<?xml version="1.0" encoding="UTF-8"?>
<!--Generator: Apple Native CoreSVG 175-->
<!DOCTYPE svg
PUBLIC "-//W3C//DTD SVG 1.1//EN"
       "http://www.w3.org/Graphics/SVG/1.1/DTD/svg11.dtd">
<svg version="1.1" xmlns="http://www.w3.org/2000/svg" xmlns:xlink="http://www.w3.org/1999/xlink" width="3300" height="2200">
 <!--glyph: "", point size: 100.0, font version: "17.0d12e1", template writer version: "65.1"-->
 <style>.hierarchical-0:secondary {fill:#4D4D4D}
.hierarchical-1:primary {fill:#212121}

.SFSymbolsPreview212121 {fill:#212121;opacity:1.0}
.SFSymbolsPreview4D4D4D {fill:#4D4D4D;opacity:1.0}
</style>
 <g id="Notes">
  <rect height="2200" id="artboard" style="fill:white;opacity:1" width="3300" x="0" y="0"/>
  <line style="fill:none;stroke:black;opacity:1;stroke-width:0.5;" x1="263" x2="3036" y1="292" y2="292"/>
  <text style="stroke:none;fill:black;font-family:sans-serif;font-size:13;font-weight:bold;" transform="matrix(1 0 0 1 263 322)">Weight/Scale Variations</text>
  <text style="stroke:none;fill:black;font-family:sans-serif;font-size:13;text-anchor:middle;" transform="matrix(1 0 0 1 559.711 322)">Ultralight</text>
  <text style="stroke:none;fill:black;font-family:sans-serif;font-size:13;text-anchor:middle;" transform="matrix(1 0 0 1 856.422 322)">Thin</text>
  <text style="stroke:none;fill:black;font-family:sans-serif;font-size:13;text-anchor:middle;" transform="matrix(1 0 0 1 1153.13 322)">Light</text>
  <text style="stroke:none;fill:black;font-family:sans-serif;font-size:13;text-anchor:middle;" transform="matrix(1 0 0 1 1449.84 322)">Regular</text>
  <text style="stroke:none;fill:black;font-family:sans-serif;font-size:13;text-anchor:middle;" transform="matrix(1 0 0 1 1746.56 322)">Medium</text>
  <text style="stroke:none;fill:black;font-family:sans-serif;font-size:13;text-anchor:middle;" transform="matrix(1 0 0 1 2043.27 322)">Semibold</text>
  <text style="stroke:none;fill:black;font-family:sans-serif;font-size:13;text-anchor:middle;" transform="matrix(1 0 0 1 2339.98 322)">Bold</text>
  <text style="stroke:none;fill:black;font-family:sans-serif;font-size:13;text-anchor:middle;" transform="matrix(1 0 0 1 2636.69 322)">Heavy</text>
  <text style="stroke:none;fill:black;font-family:sans-serif;font-size:13;text-anchor:middle;" transform="matrix(1 0 0 1 2933.4 322)">Black</text>
  <line style="fill:none;stroke:black;opacity:1;stroke-width:0.5;" x1="263" x2="3036" y1="1903" y2="1903"/>
  <g transform="matrix(1 0 0 1 263 1933)">
   <path d="M9.24805 0.830078Q10.8691 0.830078 12.2949 0.214844Q13.7207-0.400391 14.8096-1.49414Q15.8984-2.58789 16.5186-4.01367Q17.1387-5.43945 17.1387-7.05078Q17.1387-8.66211 16.5186-10.0879Q15.8984-11.5137 14.8047-12.6074Q13.7109-13.7012 12.2852-14.3164Q10.8594-14.9316 9.23828-14.9316Q7.62695-14.9316 6.20117-14.3164Q4.77539-13.7012 3.69141-12.6074Q2.60742-11.5137 1.9873-10.0879Q1.36719-8.66211 1.36719-7.05078Q1.36719-5.43945 1.9873-4.01367Q2.60742-2.58789 3.69629-1.49414Q4.78516-0.400391 6.21094 0.214844Q7.63672 0.830078 9.24805 0.830078ZM9.24805-0.654297Q7.91992-0.654297 6.7627-1.14746Q5.60547-1.64062 4.73145-2.51953Q3.85742-3.39844 3.36426-4.56055Q2.87109-5.72266 2.87109-7.05078Q2.87109-8.37891 3.35938-9.54102Q3.84766-10.7031 4.72168-11.582Q5.5957-12.4609 6.75293-12.9541Q7.91016-13.4473 9.23828-13.4473Q10.5762-13.4473 11.7334-12.9541Q12.8906-12.4609 13.7695-11.582Q14.6484-10.7031 15.1465-9.54102Q15.6445-8.37891 15.6445-7.05078Q15.6445-5.72266 15.1514-4.56055Q14.6582-3.39844 13.7842-2.51953Q12.9102-1.64062 11.748-1.14746Q10.5859-0.654297 9.24805-0.654297ZM5.6543-7.05078Q5.6543-6.72852 5.85938-6.52832Q6.06445-6.32812 6.40625-6.32812L8.51562-6.32812L8.51562-4.20898Q8.51562-3.88672 8.71094-3.67676Q8.90625-3.4668 9.23828-3.4668Q9.56055-3.4668 9.77051-3.67676Q9.98047-3.88672 9.98047-4.20898L9.98047-6.32812L12.0898-6.32812Q12.4219-6.32812 12.627-6.52832Q12.832-6.72852 12.832-7.05078Q12.832-7.38281 12.627-7.58789Q12.4219-7.79297 12.0898-7.79297L9.98047-7.79297L9.98047-9.90234Q9.98047-10.2344 9.77051-10.4443Q9.56055-10.6543 9.23828-10.6543Q8.90625-10.6543 8.71094-10.4443Q8.51562-10.2344 8.51562-9.90234L8.51562-7.79297L6.40625-7.79297Q6.06445-7.79297 5.85938-7.58789Q5.6543-7.38281 5.6543-7.05078Z"/>
  </g>
  <g transform="matrix(1 0 0 1 281.867 1933)">
   <path d="M11.709 2.91016Q13.75 2.91016 15.5518 2.12891Q17.3535 1.34766 18.7305-0.0292969Q20.1074-1.40625 20.8887-3.20801Q21.6699-5.00977 21.6699-7.05078Q21.6699-9.0918 20.8887-10.8936Q20.1074-12.6953 18.7305-14.0723Q17.3535-15.4492 15.5469-16.2305Q13.7402-17.0117 11.6992-17.0117Q9.6582-17.0117 7.85645-16.2305Q6.05469-15.4492 4.68262-14.0723Q3.31055-12.6953 2.5293-10.8936Q1.74805-9.0918 1.74805-7.05078Q1.74805-5.00977 2.5293-3.20801Q3.31055-1.40625 4.6875-0.0292969Q6.06445 1.34766 7.86621 2.12891Q9.66797 2.91016 11.709 2.91016ZM11.709 1.25Q9.98047 1.25 8.47656 0.605469Q6.97266-0.0390625 5.83496-1.17676Q4.69727-2.31445 4.05762-3.81836Q3.41797-5.32227 3.41797-7.05078Q3.41797-8.7793 4.05762-10.2832Q4.69727-11.7871 5.83008-12.9297Q6.96289-14.0723 8.4668-14.7119Q9.9707-15.3516 11.6992-15.3516Q13.4277-15.3516 14.9316-14.7119Q16.4355-14.0723 17.5781-12.9297Q18.7207-11.7871 19.3652-10.2832Q20.0098-8.7793 20.0098-7.05078Q20.0098-5.32227 19.3701-3.81836Q18.7305-2.31445 17.5928-1.17676Q16.4551-0.0390625 14.9463 0.605469Q13.4375 1.25 11.709 1.25ZM7.17773-7.05078Q7.17773-6.69922 7.41211-6.47461Q7.64648-6.25 8.01758-6.25L10.8887-6.25L10.8887-3.36914Q10.8887-2.99805 11.1133-2.76855Q11.3379-2.53906 11.6895-2.53906Q12.0605-2.53906 12.29-2.76855Q12.5195-2.99805 12.5195-3.36914L12.5195-6.25L15.4004-6.25Q15.7715-6.25 16.001-6.47461Q16.2305-6.69922 16.2305-7.05078Q16.2305-7.42188 16.001-7.65137Q15.7715-7.88086 15.4004-7.88086L12.5195-7.88086L12.5195-10.752Q12.5195-11.1328 12.29-11.3623Q12.0605-11.5918 11.6895-11.5918Q11.3379-11.5918 11.1133-11.3574Q10.8887-11.123 10.8887-10.752L10.8887-7.88086L8.01758-7.88086Q7.63672-7.88086 7.40723-7.65137Q7.17773-7.42188 7.17773-7.05078Z"/>
  </g>
  <g transform="matrix(1 0 0 1 305.646 1933)">
   <path d="M14.9707 5.66406Q17.0605 5.66406 18.96 5.01465Q20.8594 4.36523 22.4512 3.19336Q24.043 2.02148 25.2197 0.429688Q26.3965-1.16211 27.0459-3.06641Q27.6953-4.9707 27.6953-7.05078Q27.6953-9.14062 27.0459-11.04Q26.3965-12.9395 25.2197-14.5312Q24.043-16.123 22.4512-17.2998Q20.8594-18.4766 18.9551-19.126Q17.0508-19.7754 14.9609-19.7754Q12.8711-19.7754 10.9717-19.126Q9.07227-18.4766 7.48535-17.2998Q5.89844-16.123 4.72168-14.5312Q3.54492-12.9395 2.90039-11.04Q2.25586-9.14062 2.25586-7.05078Q2.25586-4.9707 2.90527-3.06641Q3.55469-1.16211 4.72656 0.429688Q5.89844 2.02148 7.49023 3.19336Q9.08203 4.36523 10.9814 5.01465Q12.8809 5.66406 14.9707 5.66406ZM14.9707 3.84766Q13.1641 3.84766 11.5283 3.2959Q9.89258 2.74414 8.53516 1.74805Q7.17773 0.751953 6.17676-0.610352Q5.17578-1.97266 4.62891-3.6084Q4.08203-5.24414 4.08203-7.05078Q4.08203-8.86719 4.62891-10.5029Q5.17578-12.1387 6.17188-13.501Q7.16797-14.8633 8.52539-15.8594Q9.88281-16.8555 11.5186-17.4023Q13.1543-17.9492 14.9609-17.9492Q16.7773-17.9492 18.4131-17.4023Q20.0488-16.8555 21.4111-15.8594Q22.7734-14.8633 23.7695-13.501Q24.7656-12.1387 25.3174-10.5029Q25.8691-8.86719 25.8691-7.05078Q25.8789-5.24414 25.332-3.6084Q24.7852-1.97266 23.7842-0.610352Q22.7832 0.751953 21.4209 1.74805Q20.0586 2.74414 18.4229 3.2959Q16.7871 3.84766 14.9707 3.84766ZM9.19922-7.05078Q9.19922-6.66992 9.45801-6.4209Q9.7168-6.17188 10.1172-6.17188L14.0625-6.17188L14.0625-2.2168Q14.0625-1.81641 14.3115-1.55762Q14.5605-1.29883 14.9512-1.29883Q15.3516-1.29883 15.6104-1.55273Q15.8691-1.80664 15.8691-2.2168L15.8691-6.17188L19.8242-6.17188Q20.2246-6.17188 20.4785-6.4209Q20.7324-6.66992 20.7324-7.05078Q20.7324-7.46094 20.4785-7.71484Q20.2246-7.96875 19.8242-7.96875L15.8691-7.96875L15.8691-11.9141Q15.8691-12.3242 15.6104-12.583Q15.3516-12.8418 14.9512-12.8418Q14.5605-12.8418 14.3115-12.583Q14.0625-12.3242 14.0625-11.9141L14.0625-7.96875L10.1172-7.96875Q9.70703-7.96875 9.45312-7.71484Q9.19922-7.46094 9.19922-7.05078Z"/>
  </g>
  <text style="stroke:none;fill:black;font-family:sans-serif;font-size:13;font-weight:bold;" transform="matrix(1 0 0 1 263 1953)">Design Variations</text>
  <text style="stroke:none;fill:black;font-family:sans-serif;font-size:13;" transform="matrix(1 0 0 1 263 1971)">Symbols are supported in up to nine weights and three scales.</text>
  <text style="stroke:none;fill:black;font-family:sans-serif;font-size:13;" transform="matrix(1 0 0 1 263 1989)">For optimal layout with text and other symbols, vertically align</text>
  <text style="stroke:none;fill:black;font-family:sans-serif;font-size:13;" transform="matrix(1 0 0 1 263 2007)">symbols with the adjacent text.</text>
  <line style="fill:none;stroke:#00AEEF;stroke-width:0.5;opacity:1.0;" x1="776" x2="776" y1="1919" y2="1933"/>
  <g transform="matrix(1 0 0 1 776 1933)">
   <path d="M3.31055 0.15625Q3.70117 0.15625 3.91602-0.00976562Q4.13086-0.175781 4.26758-0.585938L5.52734-4.0332L11.2891-4.0332L12.5488-0.585938Q12.6855-0.175781 12.9004-0.00976562Q13.1152 0.15625 13.4961 0.15625Q13.8867 0.15625 14.1162-0.0585938Q14.3457-0.273438 14.3457-0.644531Q14.3457-0.869141 14.2383-1.17188L9.6582-13.3691Q9.48242-13.8184 9.17969-14.043Q8.87695-14.2676 8.4082-14.2676Q7.5-14.2676 7.17773-13.3789L2.59766-1.16211Q2.49023-0.859375 2.49023-0.634766Q2.49023-0.263672 2.70996-0.0537109Q2.92969 0.15625 3.31055 0.15625ZM6.00586-5.51758L8.37891-12.0898L8.42773-12.0898L10.8008-5.51758Z"/>
  </g>
  <line style="fill:none;stroke:#00AEEF;stroke-width:0.5;opacity:1.0;" x1="793.197" x2="793.197" y1="1919" y2="1933"/>
  <text style="stroke:none;fill:black;font-family:sans-serif;font-size:13;font-weight:bold;" transform="matrix(1 0 0 1 776 1953)">Margins</text>
  <text style="stroke:none;fill:black;font-family:sans-serif;font-size:13;" transform="matrix(1 0 0 1 776 1971)">Leading and trailing margins on the left and right side of each symbol</text>
  <text style="stroke:none;fill:black;font-family:sans-serif;font-size:13;" transform="matrix(1 0 0 1 776 1989)">can be adjusted by modifying the x-location of the margin guidelines.</text>
  <text style="stroke:none;fill:black;font-family:sans-serif;font-size:13;" transform="matrix(1 0 0 1 776 2007)">Modifications are automatically applied proportionally to all</text>
  <text style="stroke:none;fill:black;font-family:sans-serif;font-size:13;" transform="matrix(1 0 0 1 776 2025)">scales and weights.</text>
  <g transform="matrix(1 0 0 1 1289 1933)">
   <path d="M2.8418 1.86523L4.54102 3.57422Q5.18555 4.22852 5.90332 4.17969Q6.62109 4.13086 7.31445 3.35938L18.0078-8.42773L17.041-9.4043L6.42578 2.27539Q6.16211 2.57812 5.89355 2.61719Q5.625 2.65625 5.27344 2.30469L4.10156 1.14258Q3.75 0.791016 3.79395 0.522461Q3.83789 0.253906 4.14062-0.0195312L15.6152-10.8203L14.6387-11.7871L3.04688-0.898438Q2.30469-0.214844 2.25098 0.498047Q2.19727 1.21094 2.8418 1.86523ZM9.25781-16.3281Q8.94531-16.0254 8.90625-15.6348Q8.86719-15.2441 9.04297-14.9512Q9.21875-14.6777 9.55566-14.541Q9.89258-14.4043 10.3809-14.5215Q11.4746-14.7754 12.5977-14.7314Q13.7207-14.6875 14.7949-13.9844L14.209-12.5293Q13.9551-11.9043 14.0674-11.4404Q14.1797-10.9766 14.5801-10.5664L16.875-8.25195Q17.2363-7.88086 17.5781-7.82227Q17.9199-7.76367 18.3398-7.8418L19.4043-8.03711L20.0684-7.36328L20.0293-6.80664Q20-6.43555 20.1221-6.12305Q20.2441-5.81055 20.6055-5.44922L21.3672-4.70703Q21.7285-4.3457 22.1533-4.33105Q22.5781-4.31641 22.9297-4.66797L25.8398-7.58789Q26.1914-7.93945 26.1816-8.35449Q26.1719-8.76953 25.8105-9.13086L25.0391-9.89258Q24.6875-10.2539 24.3799-10.3857Q24.0723-10.5176 23.7109-10.4883L23.1348-10.4395L22.4902-11.0742L22.7344-12.1973Q22.832-12.6172 22.6953-12.9834Q22.5586-13.3496 22.1191-13.7891L19.9219-15.9766Q18.6719-17.2168 17.2607-17.8369Q15.8496-18.457 14.4189-18.4814Q12.9883-18.5059 11.665-17.959Q10.3418-17.4121 9.25781-16.3281ZM10.752-15.957Q11.6602-16.6211 12.7002-16.9043Q13.7402-17.1875 14.8047-17.085Q15.8691-16.9824 16.8701-16.5137Q17.8711-16.0449 18.7012-15.2051L21.1328-12.793Q21.3086-12.6172 21.3525-12.4512Q21.3965-12.2852 21.3379-12.0312L21.0156-10.5469L22.5195-9.0625L23.5059-9.12109Q23.6914-9.13086 23.7891-9.09668Q23.8867-9.0625 24.0332-8.91602L24.6094-8.33984L22.168-5.89844L21.5918-6.47461Q21.4453-6.62109 21.4062-6.71875Q21.3672-6.81641 21.377-7.01172L21.4453-7.98828L19.9512-9.47266L18.4277-9.21875Q18.1836-9.16992 18.042-9.2041Q17.9004-9.23828 17.7148-9.41406L15.7129-11.416Q15.5176-11.5918 15.4932-11.7529Q15.4688-11.9141 15.5859-12.1875L16.4648-14.2773Q15.293-15.3711 13.8281-15.791Q12.3633-16.2109 10.8398-15.7617Q10.7227-15.7324 10.6885-15.8057Q10.6543-15.8789 10.752-15.957Z"/>
  </g>
  <text style="stroke:none;fill:black;font-family:sans-serif;font-size:13;font-weight:bold;" transform="matrix(1 0 0 1 1289 1953)">Exporting</text>
  <text style="stroke:none;fill:black;font-family:sans-serif;font-size:13;" transform="matrix(1 0 0 1 1289 1971)">Symbols should be outlined when exporting to ensure the</text>
  <text style="stroke:none;fill:black;font-family:sans-serif;font-size:13;" transform="matrix(1 0 0 1 1289 1989)">design is preserved when submitting to Xcode.</text>
  <text id="template-version" style="stroke:none;fill:black;font-family:sans-serif;font-size:13;text-anchor:end;" transform="matrix(1 0 0 1 3036 1933)">Template v.3.0</text>
  <text style="stroke:none;fill:black;font-family:sans-serif;font-size:13;text-anchor:end;" transform="matrix(1 0 0 1 3036 1951)">Requires Xcode 13 or greater</text>
  <text id="descriptive-name" style="stroke:none;fill:black;font-family:sans-serif;font-size:13;text-anchor:end;" transform="matrix(1 0 0 1 3036 1969)">Generated from bar-chart-2</text>
  <text style="stroke:none;fill:black;font-family:sans-serif;font-size:13;text-anchor:end;" transform="matrix(1 0 0 1 3036 1987)">Typeset at 100 points</text>
  <text style="stroke:none;fill:black;font-family:sans-serif;font-size:13;" transform="matrix(1 0 0 1 263 726)">Small</text>
  <text style="stroke:none;fill:black;font-family:sans-serif;font-size:13;" transform="matrix(1 0 0 1 263 1156)">Medium</text>
  <text style="stroke:none;fill:black;font-family:sans-serif;font-size:13;" transform="matrix(1 0 0 1 263 1586)">Large</text>
 </g>
 <g id="Guides">
  <g id="H-reference" style="fill:#27AAE1;stroke:none;" transform="matrix(1 0 0 1 339 696)">
   <path d="M0.976562 0L3.66211 0L29.3457-67.1387L30.0293-67.1387L30.0293-70.459L28.125-70.459ZM11.6699-24.4629L46.9727-24.4629L46.2402-26.709L12.4512-26.709ZM55.127 0L57.7637 0L30.6152-70.459L29.4434-70.459L29.4434-67.1387Z"/>
  </g>
  <line id="Baseline-S" style="fill:none;stroke:#27AAE1;opacity:1;stroke-width:0.5;" x1="263" x2="3036" y1="696" y2="696"/>
  <line id="Capline-S" style="fill:none;stroke:#27AAE1;opacity:1;stroke-width:0.5;" x1="263" x2="3036" y1="625.541" y2="625.541"/>
  <g id="H-reference" style="fill:#27AAE1;stroke:none;" transform="matrix(1 0 0 1 339 1126)">
   <path d="M0.976562 0L3.66211 0L29.3457-67.1387L30.0293-67.1387L30.0293-70.459L28.125-70.459ZM11.6699-24.4629L46.9727-24.4629L46.2402-26.709L12.4512-26.709ZM55.127 0L57.7637 0L30.6152-70.459L29.4434-70.459L29.4434-67.1387Z"/>
  </g>
  <line id="Baseline-M" style="fill:none;stroke:#27AAE1;opacity:1;stroke-width:0.5;" x1="263" x2="3036" y1="1126" y2="1126"/>
  <line id="Capline-M" style="fill:none;stroke:#27AAE1;opacity:1;stroke-width:0.5;" x1="263" x2="3036" y1="1055.54" y2="1055.54"/>
  <g id="H-reference" style="fill:#27AAE1;stroke:none;" transform="matrix(1 0 0 1 339 1556)">
   <path d="M0.976562 0L3.66211 0L29.3457-67.1387L30.0293-67.1387L30.0293-70.459L28.125-70.459ZM11.6699-24.4629L46.9727-24.4629L46.2402-26.709L12.4512-26.709ZM55.127 0L57.7637 0L30.6152-70.459L29.4434-70.459L29.4434-67.1387Z"/>
  </g>
  <line id="Baseline-L" style="fill:none;stroke:#27AAE1;opacity:1;stroke-width:0.5;" x1="263" x2="3036" y1="1556" y2="1556"/>
  <line id="Capline-L" style="fill:none;stroke:#27AAE1;opacity:1;stroke-width:0.5;" x1="263" x2="3036" y1="1485.54" y2="1485.54"/>
  <line id="left-margin-Regular-M" style="fill:none;stroke:#00AEEF;stroke-width:0.5;opacity:1.0;" x1="1392.45" x2="1392.45" y1="1030.78" y2="1150.12"/>
  <line id="right-margin-Regular-M" style="fill:none;stroke:#00AEEF;stroke-width:0.5;opacity:1.0;" x1="1507.24" x2="1507.24" y1="1030.78" y2="1150.12"/>
 </g>
 <g id="Symbols">
  <g id="Black-L" transform="matrix(1 0 0 1 2865.06 1556)">
   <path class="hierarchical-0:secondary SFSymbolsPreview4D4D4D" d="M68.49-87.83C72.41-87.83 75.59-84.65 75.59-80.73L75.59 10.27C75.59 14.19 72.41 17.37 68.49 17.37C64.57 17.37 61.39 14.19 61.39 10.27L61.39-80.73C61.39-84.65 64.57-87.83 68.49-87.83Z"/>
   <path class="hierarchical-1:primary SFSymbolsPreview212121" d="M102.62-53.7C106.54-53.7 109.72-50.53 109.72-46.6L109.72 10.27C109.72 14.19 106.54 17.37 102.62 17.37C98.69 17.37 95.52 14.19 95.52 10.27L95.52-46.6C95.52-50.53 98.69-53.7 102.62-53.7ZM34.37-30.95C38.29-30.95 41.47-27.78 41.47-23.85L41.47 10.27C41.47 14.19 38.29 17.37 34.37 17.37C30.44 17.37 27.27 14.19 27.27 10.27L27.27-23.85C27.27-27.78 30.44-30.95 34.37-30.95Z"/>
  </g>
  <g id="Heavy-L" transform="matrix(1 0 0 1 2569.2 1556)">
   <path class="hierarchical-0:secondary SFSymbolsPreview4D4D4D" d="M67.65-86.98C71.1-86.98 73.9-84.18 73.9-80.73L73.9 10.27C73.9 13.72 71.1 16.52 67.65 16.52C64.2 16.52 61.4 13.72 61.4 10.27L61.4-80.73C61.4-84.18 64.2-86.98 67.65-86.98Z"/>
   <path class="hierarchical-1:primary SFSymbolsPreview212121" d="M101.77-52.85C105.22-52.85 108.02-50.06 108.02-46.6L108.02 10.27C108.02 13.72 105.22 16.52 101.77 16.52C98.32 16.52 95.52 13.72 95.52 10.27L95.52-46.6C95.52-50.06 98.32-52.85 101.77-52.85ZM33.52-30.1C36.97-30.1 39.77-27.31 39.77-23.85L39.77 10.27C39.77 13.72 36.97 16.52 33.52 16.52C30.07 16.52 27.27 13.72 27.27 10.27L27.27-23.85C27.27-27.31 30.07-30.1 33.52-30.1Z"/>
  </g>
  <g id="Bold-L" transform="matrix(1 0 0 1 2273.44 1556)">
   <path class="hierarchical-0:secondary SFSymbolsPreview4D4D4D" d="M66.69-86.03C69.62-86.03 71.99-83.66 71.99-80.73L71.99 10.27C71.99 13.2 69.62 15.57 66.69 15.57C63.77 15.57 61.39 13.2 61.39 10.27L61.39-80.73C61.39-83.66 63.77-86.03 66.69-86.03Z"/>
   <path class="hierarchical-1:primary SFSymbolsPreview212121" d="M100.82-51.9C103.75-51.9 106.12-49.53 106.12-46.6L106.12 10.27C106.12 13.2 103.75 15.57 100.82 15.57C97.89 15.57 95.52 13.2 95.52 10.27L95.52-46.6C95.52-49.53 97.89-51.9 100.82-51.9ZM32.57-29.15C35.5-29.15 37.87-26.78 37.87-23.85L37.87 10.27C37.87 13.2 35.5 15.57 32.57 15.57C29.64 15.57 27.27 13.2 27.27 10.27L27.27-23.85C27.27-26.78 29.64-29.15 32.57-29.15Z"/>
  </g>
  <g id="Semibold-L" transform="matrix(1 0 0 1 1977.38 1556)">
   <path class="hierarchical-0:secondary SFSymbolsPreview4D4D4D" d="M66.05-85.38C68.62-85.38 70.7-83.3 70.7-80.73L70.7 10.27C70.7 12.84 68.62 14.92 66.05 14.92C63.48 14.92 61.4 12.84 61.4 10.27L61.4-80.73C61.4-83.3 63.48-85.38 66.05-85.38Z"/>
   <path class="hierarchical-1:primary SFSymbolsPreview212121" d="M100.17-51.25C102.74-51.25 104.82-49.17 104.82-46.6L104.82 10.27C104.82 12.84 102.74 14.92 100.17 14.92C97.61 14.92 95.52 12.84 95.52 10.27L95.52-46.6C95.52-49.17 97.61-51.25 100.17-51.25ZM31.92-28.5C34.49-28.5 36.57-26.42 36.57-23.85L36.57 10.27C36.57 12.84 34.49 14.92 31.92 14.92C29.36 14.92 27.27 12.84 27.27 10.27L27.27-23.85C27.27-26.42 29.36-28.5 31.92-28.5Z"/>
  </g>
  <g id="Medium-L" transform="matrix(1 0 0 1 1681.17 1556)">
   <path class="hierarchical-0:secondary SFSymbolsPreview4D4D4D" d="M65.55-84.88C67.84-84.88 69.7-83.02 69.7-80.73L69.7 10.27C69.7 12.56 67.84 14.42 65.55 14.42C63.26 14.42 61.4 12.56 61.4 10.27L61.4-80.73C61.4-83.02 63.26-84.88 65.55-84.88Z"/>
   <path class="hierarchical-1:primary SFSymbolsPreview212121" d="M99.67-50.75C101.97-50.75 103.82-48.9 103.82-46.6L103.82 10.27C103.82 12.56 101.97 14.42 99.67 14.42C97.38 14.42 95.52 12.56 95.52 10.27L95.52-46.6C95.52-48.9 97.38-50.75 99.67-50.75ZM31.42-28C33.72-28 35.57-26.15 35.57-23.85L35.57 10.27C35.57 12.56 33.72 14.42 31.42 14.42C29.13 14.42 27.27 12.56 27.27 10.27L27.27-23.85C27.27-26.15 29.13-28 31.42-28Z"/>
  </g>
  <g id="Regular-L" transform="matrix(1 0 0 1 1385.11 1556)">
   <path class="hierarchical-0:secondary SFSymbolsPreview4D4D4D" d="M64.89-84.23C66.82-84.23 68.39-82.66 68.39-80.73L68.39 10.27C68.39 12.2 66.82 13.77 64.89 13.77C62.96 13.77 61.39 12.2 61.39 10.27L61.39-80.73C61.39-82.66 62.96-84.23 64.89-84.23Z"/>
   <path class="hierarchical-1:primary SFSymbolsPreview212121" d="M99.01-50.1C100.95-50.1 102.51-48.54 102.51-46.6L102.51 10.27C102.51 12.2 100.95 13.77 99.01 13.77C97.08 13.77 95.51 12.2 95.51 10.27L95.51-46.6C95.51-48.54 97.08-50.1 99.01-50.1ZM30.77-27.35C32.7-27.35 34.27-25.79 34.27-23.85L34.27 10.27C34.27 12.2 32.7 13.77 30.77 13.77C28.83 13.77 27.27 12.2 27.27 10.27L27.27-23.85C27.27-25.79 28.83-27.35 30.77-27.35Z"/>
  </g>
  <g id="Light-L" transform="matrix(1 0 0 1 1089.19 1556)">
   <path class="hierarchical-0:secondary SFSymbolsPreview4D4D4D" d="M64.09-83.43C65.58-83.43 66.79-82.22 66.79-80.73L66.79 10.27C66.79 11.76 65.58 12.97 64.09 12.97C62.6 12.97 61.39 11.76 61.39 10.27L61.39-80.73C61.39-82.22 62.6-83.43 64.09-83.43Z"/>
   <path class="hierarchical-1:primary SFSymbolsPreview212121" d="M98.22-49.3C99.71-49.3 100.92-48.1 100.92-46.6L100.92 10.27C100.92 11.76 99.71 12.97 98.22 12.97C96.72 12.97 95.52 11.76 95.52 10.27L95.52-46.6C95.52-48.1 96.72-49.3 98.22-49.3ZM29.97-26.55C31.46-26.55 32.67-25.35 32.67-23.85L32.67 10.27C32.67 11.76 31.46 12.97 29.97 12.97C28.47 12.97 27.27 11.76 27.27 10.27L27.27-23.85C27.27-25.35 28.47-26.55 29.97-26.55Z"/>
  </g>
  <g id="Thin-L" transform="matrix(1 0 0 1 793.532 1556)">
   <path class="hierarchical-0:secondary SFSymbolsPreview4D4D4D" d="M63.045-82.38C63.956-82.38 64.695-81.64 64.695-80.73L64.695 10.27C64.695 11.18 63.956 11.92 63.045 11.92C62.133 11.92 61.395 11.18 61.395 10.27L61.395-80.73C61.395-81.64 62.133-82.38 63.045-82.38Z"/>
   <path class="hierarchical-1:primary SFSymbolsPreview212121" d="M97.17-48.25C98.081-48.25 98.82-47.52 98.82-46.6L98.82 10.27C98.82 11.18 98.081 11.92 97.17 11.92C96.258 11.92 95.52 11.18 95.52 10.27L95.52-46.6C95.52-47.52 96.258-48.25 97.17-48.25ZM28.92-25.5C29.831-25.5 30.57-24.77 30.57-23.85L30.57 10.27C30.57 11.18 29.831 11.92 28.92 11.92C28.008 11.92 27.27 11.18 27.27 10.27L27.27-23.85C27.27-24.77 28.008-25.5 28.92-25.5Z"/>
  </g>
  <g id="Ultralight-L" transform="matrix(1 0 0 1 497.371 1556)">
   <path class="hierarchical-0:secondary SFSymbolsPreview4D4D4D" d="M62.495-81.83C63.103-81.83 63.595-81.34 63.595-80.73L63.595 10.27C63.595 10.88 63.103 11.37 62.495 11.37C61.888 11.37 61.395 10.88 61.395 10.27L61.395-80.73C61.395-81.34 61.888-81.83 62.495-81.83Z"/>
   <path class="hierarchical-1:primary SFSymbolsPreview212121" d="M96.62-47.7C97.228-47.7 97.72-47.21 97.72-46.6L97.72 10.27C97.72 10.88 97.228 11.37 96.62 11.37C96.013 11.37 95.52 10.88 95.52 10.27L95.52-46.6C95.52-47.21 96.013-47.7 96.62-47.7ZM28.37-24.95C28.978-24.95 29.47-24.46 29.47-23.85L29.47 10.27C29.47 10.88 28.978 11.37 28.37 11.37C27.763 11.37 27.27 10.88 27.27 10.27L27.27-23.85C27.27-24.46 27.763-24.95 28.37-24.95Z"/>
  </g>
  <g id="Black-M" transform="matrix(1 0 0 1 2872.41 1126)">
   <path class="hierarchical-0:secondary SFSymbolsPreview4D4D4D" d="M61.14-78.03C65.07-78.03 68.24-74.85 68.24-70.93L68.24 0.47C68.24 4.39 65.07 7.57 61.14 7.57C57.22 7.57 54.04 4.39 54.04 0.47L54.04-70.93C54.04-74.85 57.22-78.03 61.14-78.03Z"/>
   <path class="hierarchical-1:primary SFSymbolsPreview212121" d="M87.92-51.25C91.84-51.25 95.02-48.08 95.02-44.15L95.02 0.47C95.02 4.39 91.84 7.57 87.92 7.57C84 7.57 80.82 4.39 80.82 0.47L80.82-44.15C80.82-48.08 84-51.25 87.92-51.25ZM34.37-33.4C38.29-33.4 41.47-30.23 41.47-26.3L41.47 0.47C41.47 4.39 38.29 7.57 34.37 7.57C30.45 7.57 27.27 4.39 27.27 0.47L27.27-26.3C27.27-30.23 30.45-33.4 34.37-33.4Z"/>
  </g>
  <g id="Heavy-M" transform="matrix(1 0 0 1 2576.55 1126)">
   <path class="hierarchical-0:secondary SFSymbolsPreview4D4D4D" d="M60.29-77.18C63.75-77.18 66.54-74.38 66.54-70.93L66.54 0.47C66.54 3.92 63.75 6.72 60.29 6.72C56.84 6.72 54.04 3.92 54.04 0.47L54.04-70.93C54.04-74.38 56.84-77.18 60.29-77.18Z"/>
   <path class="hierarchical-1:primary SFSymbolsPreview212121" d="M87.07-50.4C90.52-50.4 93.32-47.61 93.32-44.15L93.32 0.47C93.32 3.92 90.52 6.72 87.07 6.72C83.62 6.72 80.82 3.92 80.82 0.47L80.82-44.15C80.82-47.61 83.62-50.4 87.07-50.4ZM33.52-32.55C36.97-32.55 39.77-29.76 39.77-26.3L39.77 0.47C39.77 3.92 36.97 6.72 33.52 6.72C30.07 6.72 27.27 3.92 27.27 0.47L27.27-26.3C27.27-29.76 30.07-32.55 33.52-32.55Z"/>
  </g>
  <g id="Bold-M" transform="matrix(1 0 0 1 2280.79 1126)">
   <path class="hierarchical-0:secondary SFSymbolsPreview4D4D4D" d="M59.34-76.23C62.27-76.23 64.64-73.86 64.64-70.93L64.64 0.47C64.64 3.4 62.27 5.77 59.34 5.77C56.42 5.77 54.04 3.4 54.04 0.47L54.04-70.93C54.04-73.86 56.42-76.23 59.34-76.23Z"/>
   <path class="hierarchical-1:primary SFSymbolsPreview212121" d="M86.12-49.45C89.05-49.45 91.42-47.08 91.42-44.15L91.42 0.47C91.42 3.4 89.05 5.77 86.12 5.77C83.19 5.77 80.82 3.4 80.82 0.47L80.82-44.15C80.82-47.08 83.19-49.45 86.12-49.45ZM32.57-31.6C35.5-31.6 37.87-29.23 37.87-26.3L37.87 0.47C37.87 3.4 35.5 5.77 32.57 5.77C29.64 5.77 27.27 3.4 27.27 0.47L27.27-26.3C27.27-29.23 29.64-31.6 32.57-31.6Z"/>
  </g>
  <g id="Semibold-M" transform="matrix(1 0 0 1 1984.72 1126)">
   <path class="hierarchical-0:secondary SFSymbolsPreview4D4D4D" d="M58.7-75.58C61.27-75.58 63.35-73.5 63.35-70.93L63.35 0.47C63.35 3.04 61.27 5.12 58.7 5.12C56.13 5.12 54.05 3.04 54.05 0.47L54.05-70.93C54.05-73.5 56.13-75.58 58.7-75.58Z"/>
   <path class="hierarchical-1:primary SFSymbolsPreview212121" d="M85.48-48.8C88.04-48.8 90.13-46.72 90.13-44.15L90.13 0.47C90.13 3.04 88.04 5.12 85.48 5.12C82.91 5.12 80.82 3.04 80.82 0.47L80.82-44.15C80.82-46.72 82.91-48.8 85.48-48.8ZM31.92-30.95C34.49-30.95 36.57-28.87 36.57-26.3L36.57 0.47C36.57 3.04 34.49 5.12 31.92 5.12C29.36 5.12 27.27 3.04 27.27 0.47L27.27-26.3C27.27-28.87 29.36-30.95 31.92-30.95Z"/>
  </g>
  <g id="Medium-M" transform="matrix(1 0 0 1 1688.51 1126)">
   <path class="hierarchical-0:secondary SFSymbolsPreview4D4D4D" d="M58.2-75.08C60.49-75.08 62.35-73.22 62.35-70.93L62.35 0.47C62.35 2.76 60.49 4.62 58.2 4.62C55.91 4.62 54.05 2.76 54.05 0.47L54.05-70.93C54.05-73.22 55.91-75.08 58.2-75.08Z"/>
   <path class="hierarchical-1:primary SFSymbolsPreview212121" d="M84.98-48.3C87.27-48.3 89.13-46.45 89.13-44.15L89.13 0.47C89.13 2.76 87.27 4.62 84.98 4.62C82.68 4.62 80.82 2.76 80.82 0.47L80.82-44.15C80.82-46.45 82.68-48.3 84.98-48.3ZM31.42-30.45C33.72-30.45 35.57-28.6 35.57-26.3L35.57 0.47C35.57 2.76 33.72 4.62 31.42 4.62C29.13 4.62 27.27 2.76 27.27 0.47L27.27-26.3C27.27-28.6 29.13-30.45 31.42-30.45Z"/>
  </g>
  <g id="Regular-M" transform="matrix(1 0 0 1 1392.45 1126)">
   <path class="hierarchical-0:secondary SFSymbolsPreview4D4D4D" d="M57.55-74.43C59.48-74.43 61.05-72.86 61.05-70.93L61.05 0.47C61.05 2.4 59.48 3.97 57.55 3.97C55.62 3.97 54.05 2.4 54.05 0.47L54.05-70.93C54.05-72.86 55.62-74.43 57.55-74.43Z"/>
   <path class="hierarchical-1:primary SFSymbolsPreview212121" d="M84.33-47.65C86.26-47.65 87.83-46.09 87.83-44.15L87.83 0.47C87.83 2.4 86.26 3.97 84.33 3.97C82.39 3.97 80.83 2.4 80.83 0.47L80.83-44.15C80.83-46.09 82.39-47.65 84.33-47.65ZM30.77-29.8C32.71-29.8 34.27-28.24 34.27-26.3L34.27 0.47C34.27 2.4 32.71 3.97 30.77 3.97C28.84 3.97 27.27 2.4 27.27 0.47L27.27-26.3C27.27-28.24 28.84-29.8 30.77-29.8Z"/>
  </g>
  <g id="Light-M" transform="matrix(1 0 0 1 1096.55 1126)">
   <path class="hierarchical-0:secondary SFSymbolsPreview4D4D4D" d="M56.74-73.63C58.23-73.63 59.44-72.42 59.44-70.93L59.44 0.47C59.44 1.96 58.23 3.17 56.74 3.17C55.25 3.17 54.04 1.96 54.04 0.47L54.04-70.93C54.04-72.42 55.25-73.63 56.74-73.63Z"/>
   <path class="hierarchical-1:primary SFSymbolsPreview212121" d="M83.51-46.85C85.01-46.85 86.21-45.65 86.21-44.15L86.21 0.47C86.21 1.96 85.01 3.17 83.51 3.17C82.02 3.17 80.81 1.96 80.81 0.47L80.81-44.15C80.81-45.65 82.02-46.85 83.51-46.85ZM29.97-29C31.46-29 32.67-27.8 32.67-26.3L32.67 0.47C32.67 1.96 31.46 3.17 29.97 3.17C28.47 3.17 27.27 1.96 27.27 0.47L27.27-26.3C27.27-27.8 28.47-29 29.97-29Z"/>
  </g>
  <g id="Thin-M" transform="matrix(1 0 0 1 800.882 1126)">
   <path class="hierarchical-0:secondary SFSymbolsPreview4D4D4D" d="M55.696-72.58C56.607-72.58 57.346-71.84 57.346-70.93L57.346 0.47C57.346 1.38 56.607 2.12 55.696 2.12C54.784 2.12 54.046 1.38 54.046 0.47L54.046-70.93C54.046-71.84 54.784-72.58 55.696-72.58Z"/>
   <path class="hierarchical-1:primary SFSymbolsPreview212121" d="M82.471-45.8C83.382-45.8 84.121-45.07 84.121-44.15L84.121 0.47C84.121 1.38 83.382 2.12 82.471 2.12C81.56 2.12 80.821 1.38 80.821 0.47L80.821-44.15C80.821-45.07 81.56-45.8 82.471-45.8ZM28.92-27.95C29.831-27.95 30.57-27.22 30.57-26.3L30.57 0.47C30.57 1.38 29.831 2.12 28.92 2.12C28.009 2.12 27.27 1.38 27.27 0.47L27.27-26.3C27.27-27.22 28.009-27.95 28.92-27.95Z"/>
  </g>
  <g id="Ultralight-M" transform="matrix(1 0 0 1 504.721 1126)">
   <path class="hierarchical-0:secondary SFSymbolsPreview4D4D4D" d="M55.145-72.03C55.753-72.03 56.245-71.54 56.245-70.93L56.245 0.47C56.245 1.08 55.753 1.57 55.145 1.57C54.538 1.57 54.045 1.08 54.045 0.47L54.045-70.93C54.045-71.54 54.538-72.03 55.145-72.03Z"/>
   <path class="hierarchical-1:primary SFSymbolsPreview212121" d="M81.921-45.25C82.528-45.25 83.021-44.76 83.021-44.15L83.021 0.47C83.021 1.08 82.528 1.57 81.921 1.57C81.313 1.57 80.821 1.08 80.821 0.47L80.821-44.15C80.821-44.76 81.313-45.25 81.921-45.25ZM28.37-27.4C28.978-27.4 29.47-26.91 29.47-26.3L29.47 0.47C29.47 1.08 28.978 1.57 28.37 1.57C27.762 1.57 27.27 1.08 27.27 0.47L27.27-26.3C27.27-26.91 27.762-27.4 28.37-27.4Z"/>
  </g>
  <g id="Black-S" transform="matrix(1 0 0 1 2878.19 696)">
   <path class="hierarchical-0:secondary SFSymbolsPreview4D4D4D" d="M55.37-70.432C59.29-70.432 62.47-67.253 62.47-63.332L62.47-7.332C62.47-3.41 59.29-0.232 55.37-0.232C51.45-0.232 48.27-3.41 48.27-7.332L48.27-63.332C48.27-67.253 51.45-70.432 55.37-70.432Z"/>
   <path class="hierarchical-1:primary SFSymbolsPreview212121" d="M76.37-49.432C80.29-49.432 83.47-46.253 83.47-42.332L83.47-7.332C83.47-3.41 80.29-0.232 76.37-0.232C72.45-0.232 69.27-3.41 69.27-7.332L69.27-42.332C69.27-46.253 72.45-49.432 76.37-49.432ZM34.37-35.432C38.29-35.432 41.47-32.253 41.47-28.332L41.47-7.332C41.47-3.41 38.29-0.232 34.37-0.232C30.45-0.232 27.27-3.41 27.27-7.332L27.27-28.332C27.27-32.253 30.45-35.432 34.37-35.432Z"/>
  </g>
  <g id="Heavy-S" transform="matrix(1 0 0 1 2582.32 696)">
   <path class="hierarchical-0:secondary SFSymbolsPreview4D4D4D" d="M54.52-69.582C57.97-69.582 60.77-66.784 60.77-63.332L60.77-7.332C60.77-3.88 57.97-1.082 54.52-1.082C51.07-1.082 48.27-3.88 48.27-7.332L48.27-63.332C48.27-66.784 51.07-69.582 54.52-69.582Z"/>
   <path class="hierarchical-1:primary SFSymbolsPreview212121" d="M75.52-48.582C78.97-48.582 81.77-45.784 81.77-42.332L81.77-7.332C81.77-3.88 78.97-1.082 75.52-1.082C72.07-1.082 69.27-3.88 69.27-7.332L69.27-42.332C69.27-45.784 72.07-48.582 75.52-48.582ZM33.52-34.582C36.97-34.582 39.77-31.784 39.77-28.332L39.77-7.332C39.77-3.88 36.97-1.082 33.52-1.082C30.07-1.082 27.27-3.88 27.27-7.332L27.27-28.332C27.27-31.784 30.07-34.582 33.52-34.582Z"/>
  </g>
  <g id="Bold-S" transform="matrix(1 0 0 1 2286.56 696)">
   <path class="hierarchical-0:secondary SFSymbolsPreview4D4D4D" d="M53.57-68.427C56.5-68.427 58.87-66.054 58.87-63.127L58.87-7.127C58.87-4.2 56.5-1.827 53.57-1.827C50.65-1.827 48.27-4.2 48.27-7.127L48.27-63.127C48.27-66.054 50.65-68.427 53.57-68.427Z"/>
   <path class="hierarchical-1:primary SFSymbolsPreview212121" d="M74.57-47.427C77.5-47.427 79.87-45.054 79.87-42.127L79.87-7.127C79.87-4.2 77.5-1.827 74.57-1.827C71.65-1.827 69.27-4.2 69.27-7.127L69.27-42.127C69.27-45.054 71.65-47.427 74.57-47.427ZM32.57-33.427C35.5-33.427 37.87-31.054 37.87-28.127L37.87-7.127C37.87-4.2 35.5-1.827 32.57-1.827C29.65-1.827 27.27-4.2 27.27-7.127L27.27-28.127C27.27-31.054 29.65-33.427 32.57-33.427Z"/>
  </g>
  <g id="Semibold-S" transform="matrix(1 0 0 1 1990.5 696)">
   <path class="hierarchical-0:secondary SFSymbolsPreview4D4D4D" d="M52.92-67.777C55.49-67.777 57.57-65.695 57.57-63.127L57.57-7.127C57.57-4.559 55.49-2.477 52.92-2.477C50.35-2.477 48.27-4.559 48.27-7.127L48.27-63.127C48.27-65.695 50.35-67.777 52.92-67.777Z"/>
   <path class="hierarchical-1:primary SFSymbolsPreview212121" d="M73.92-46.777C76.49-46.777 78.57-44.695 78.57-42.127L78.57-7.127C78.57-4.559 76.49-2.477 73.92-2.477C71.35-2.477 69.27-4.559 69.27-7.127L69.27-42.127C69.27-44.695 71.35-46.777 73.92-46.777ZM31.92-32.777C34.49-32.777 36.57-30.695 36.57-28.127L36.57-7.127C36.57-4.559 34.49-2.477 31.92-2.477C29.35-2.477 27.27-4.559 27.27-7.127L27.27-28.127C27.27-30.695 29.35-32.777 31.92-32.777Z"/>
  </g>
  <g id="Medium-S" transform="matrix(1 0 0 1 1694.29 696)">
   <path class="hierarchical-0:secondary SFSymbolsPreview4D4D4D" d="M52.42-67.277C54.71-67.277 56.57-65.419 56.57-63.127L56.57-7.127C56.57-4.835 54.71-2.977 52.42-2.977C50.13-2.977 48.27-4.835 48.27-7.127L48.27-63.127C48.27-65.419 50.13-67.277 52.42-67.277Z"/>
   <path class="hierarchical-1:primary SFSymbolsPreview212121" d="M73.42-46.277C75.71-46.277 77.57-44.419 77.57-42.127L77.57-7.127C77.57-4.835 75.71-2.977 73.42-2.977C71.13-2.977 69.27-4.835 69.27-7.127L69.27-42.127C69.27-44.419 71.13-46.277 73.42-46.277ZM31.42-32.277C33.71-32.277 35.57-30.419 35.57-28.127L35.57-7.127C35.57-4.835 33.71-2.977 31.42-2.977C29.13-2.977 27.27-4.835 27.27-7.127L27.27-28.127C27.27-30.419 29.13-32.277 31.42-32.277Z"/>
  </g>
  <g id="Regular-S" transform="matrix(1 0 0 1 1398.23 696)">
   <path class="hierarchical-0:secondary SFSymbolsPreview4D4D4D" d="M51.77-66.627C53.7-66.627 55.27-65.06 55.27-63.127L55.27-7.127C55.27-5.194 53.7-3.627 51.77-3.627C49.84-3.627 48.27-5.194 48.27-7.127L48.27-63.127C48.27-65.06 49.84-66.627 51.77-66.627Z"/>
   <path class="hierarchical-1:primary SFSymbolsPreview212121" d="M72.77-45.627C74.7-45.627 76.27-44.06 76.27-42.127L76.27-7.127C76.27-5.194 74.7-3.627 72.77-3.627C70.84-3.627 69.27-5.194 69.27-7.127L69.27-42.127C69.27-44.06 70.84-45.627 72.77-45.627ZM30.77-31.627C32.7-31.627 34.27-30.06 34.27-28.127L34.27-7.127C34.27-5.194 32.7-3.627 30.77-3.627C28.84-3.627 27.27-5.194 27.27-7.127L27.27-28.127C27.27-30.06 28.84-31.627 30.77-31.627Z"/>
  </g>
  <g id="Light-S" transform="matrix(1 0 0 1 1102.32 696)">
   <path class="hierarchical-0:secondary SFSymbolsPreview4D4D4D" d="M50.97-65.827C52.46-65.827 53.67-64.618 53.67-63.127L53.67-7.127C53.67-5.636 52.46-4.427 50.97-4.427C49.48-4.427 48.27-5.636 48.27-7.127L48.27-63.127C48.27-64.618 49.48-65.827 50.97-65.827Z"/>
   <path class="hierarchical-1:primary SFSymbolsPreview212121" d="M71.97-44.827C73.46-44.827 74.67-43.618 74.67-42.127L74.67-7.127C74.67-5.636 73.46-4.427 71.97-4.427C70.48-4.427 69.27-5.636 69.27-7.127L69.27-42.127C69.27-43.618 70.48-44.827 71.97-44.827ZM29.97-30.827C31.46-30.827 32.67-29.618 32.67-28.127L32.67-7.127C32.67-5.636 31.46-4.427 29.97-4.427C28.48-4.427 27.27-5.636 27.27-7.127L27.27-28.127C27.27-29.618 28.48-30.827 29.97-30.827Z"/>
  </g>
  <g id="Thin-S" transform="matrix(1 0 0 1 806.657 696)">
   <path class="hierarchical-0:secondary SFSymbolsPreview4D4D4D" d="M49.92-64.777C50.831-64.777 51.57-64.039 51.57-63.127L51.57-7.127C51.57-6.216 50.831-5.477 49.92-5.477C49.008-5.477 48.27-6.216 48.27-7.127L48.27-63.127C48.27-64.039 49.008-64.777 49.92-64.777Z"/>
   <path class="hierarchical-1:primary SFSymbolsPreview212121" d="M70.92-43.777C71.831-43.777 72.57-43.039 72.57-42.127L72.57-7.127C72.57-6.216 71.831-5.477 70.92-5.477C70.008-5.477 69.27-6.216 69.27-7.127L69.27-42.127C69.27-43.039 70.008-43.777 70.92-43.777ZM28.92-29.777C29.831-29.777 30.57-29.039 30.57-28.127L30.57-7.127C30.57-6.216 29.831-5.477 28.92-5.477C28.008-5.477 27.27-6.216 27.27-7.127L27.27-28.127C27.27-29.039 28.008-29.777 28.92-29.777Z"/>
  </g>
  <g id="Ultralight-S" transform="matrix(1 0 0 1 510.496 696)">
   <path class="hierarchical-0:secondary SFSymbolsPreview4D4D4D" d="M49.37-64.227C49.978-64.227 50.47-63.734 50.47-63.127L50.47-7.127C50.47-6.519 49.978-6.027 49.37-6.027C48.763-6.027 48.27-6.519 48.27-7.127L48.27-63.127C48.27-63.734 48.763-64.227 49.37-64.227Z"/>
   <path class="hierarchical-1:primary SFSymbolsPreview212121" d="M70.37-43.227C70.978-43.227 71.47-42.734 71.47-42.127L71.47-7.127C71.47-6.519 70.978-6.027 70.37-6.027C69.763-6.027 69.27-6.519 69.27-7.127L69.27-42.127C69.27-42.734 69.763-43.227 70.37-43.227ZM28.37-29.227C28.978-29.227 29.47-28.734 29.47-28.127L29.47-7.127C29.47-6.519 28.978-6.027 28.37-6.027C27.763-6.027 27.27-6.519 27.27-7.127L27.27-28.127C27.27-28.734 27.763-29.227 28.37-29.227Z"/>
  </g>
 </g>
</svg>
