<?xml version="1.0" encoding="UTF-8"?>
<!--Generator: Apple Native CoreSVG 175-->
<!DOCTYPE svg
PUBLIC "-//W3C//DTD SVG 1.1//EN"
       "http://www.w3.org/Graphics/SVG/1.1/DTD/svg11.dtd">
<svg version="1.1" xmlns="http://www.w3.org/2000/svg" xmlns:xlink="http://www.w3.org/1999/xlink" width="3300" height="2200">
 <!--glyph: "", point size: 100.0, font version: "17.0d12e1", template writer version: "65.1"-->
 <g id="Notes">
  <rect height="2200" id="artboard" style="fill:white;opacity:1" width="3300" x="0" y="0"/>
  <line style="fill:none;stroke:black;opacity:1;stroke-width:0.5;" x1="263" x2="3036" y1="292" y2="292"/>
  <text style="stroke:none;fill:black;font-family:sans-serif;font-size:13;font-weight:bold;" transform="matrix(1 0 0 1 263 322)">Weight/Scale Variations</text>
  <text style="stroke:none;fill:black;font-family:sans-serif;font-size:13;text-anchor:middle;" transform="matrix(1 0 0 1 559.711 322)">Ultralight</text>
  <text style="stroke:none;fill:black;font-family:sans-serif;font-size:13;text-anchor:middle;" transform="matrix(1 0 0 1 856.422 322)">Thin</text>
  <text style="stroke:none;fill:black;font-family:sans-serif;font-size:13;text-anchor:middle;" transform="matrix(1 0 0 1 1153.13 322)">Light</text>
  <text style="stroke:none;fill:black;font-family:sans-serif;font-size:13;text-anchor:middle;" transform="matrix(1 0 0 1 1449.84 322)">Regular</text>
  <text style="stroke:none;fill:black;font-family:sans-serif;font-size:13;text-anchor:middle;" transform="matrix(1 0 0 1 1746.56 322)">Medium</text>
  <text style="stroke:none;fill:black;font-family:sans-serif;font-size:13;text-anchor:middle;" transform="matrix(1 0 0 1 2043.27 322)">Semibold</text>
  <text style="stroke:none;fill:black;font-family:sans-serif;font-size:13;text-anchor:middle;" transform="matrix(1 0 0 1 2339.98 322)">Bold</text>
  <text style="stroke:none;fill:black;font-family:sans-serif;font-size:13;text-anchor:middle;" transform="matrix(1 0 0 1 2636.69 322)">Heavy</text>
  <text style="stroke:none;fill:black;font-family:sans-serif;font-size:13;text-anchor:middle;" transform="matrix(1 0 0 1 2933.4 322)">Black</text>
  <line style="fill:none;stroke:black;opacity:1;stroke-width:0.5;" x1="263" x2="3036" y1="1903" y2="1903"/>
  <g transform="matrix(1 0 0 1 263 1933)">
   <path d="M9.24805 0.830078Q10.8691 0.830078 12.2949 0.214844Q13.7207-0.400391 14.8096-1.49414Q15.8984-2.58789 16.5186-4.01367Q17.1387-5.43945 17.1387-7.05078Q17.1387-8.66211 16.5186-10.0879Q15.8984-11.5137 14.8047-12.6074Q13.7109-13.7012 12.2852-14.3164Q10.8594-14.9316 9.23828-14.9316Q7.62695-14.9316 6.20117-14.3164Q4.77539-13.7012 3.69141-12.6074Q2.60742-11.5137 1.9873-10.0879Q1.36719-8.66211 1.36719-7.05078Q1.36719-5.43945 1.9873-4.01367Q2.60742-2.58789 3.69629-1.49414Q4.78516-0.400391 6.21094 0.214844Q7.63672 0.830078 9.24805 0.830078ZM9.24805-0.654297Q7.91992-0.654297 6.7627-1.14746Q5.60547-1.64062 4.73145-2.51953Q3.85742-3.39844 3.36426-4.56055Q2.87109-5.72266 2.87109-7.05078Q2.87109-8.37891 3.35938-9.54102Q3.84766-10.7031 4.72168-11.582Q5.5957-12.4609 6.75293-12.9541Q7.91016-13.4473 9.23828-13.4473Q10.5762-13.4473 11.7334-12.9541Q12.8906-12.4609 13.7695-11.582Q14.6484-10.7031 15.1465-9.54102Q15.6445-8.37891 15.6445-7.05078Q15.6445-5.72266 15.1514-4.56055Q14.6582-3.39844 13.7842-2.51953Q12.9102-1.64062 11.748-1.14746Q10.5859-0.654297 9.24805-0.654297ZM5.6543-7.05078Q5.6543-6.72852 5.85938-6.52832Q6.06445-6.32812 6.40625-6.32812L8.51562-6.32812L8.51562-4.20898Q8.51562-3.88672 8.71094-3.67676Q8.90625-3.4668 9.23828-3.4668Q9.56055-3.4668 9.77051-3.67676Q9.98047-3.88672 9.98047-4.20898L9.98047-6.32812L12.0898-6.32812Q12.4219-6.32812 12.627-6.52832Q12.832-6.72852 12.832-7.05078Q12.832-7.38281 12.627-7.58789Q12.4219-7.79297 12.0898-7.79297L9.98047-7.79297L9.98047-9.90234Q9.98047-10.2344 9.77051-10.4443Q9.56055-10.6543 9.23828-10.6543Q8.90625-10.6543 8.71094-10.4443Q8.51562-10.2344 8.51562-9.90234L8.51562-7.79297L6.40625-7.79297Q6.06445-7.79297 5.85938-7.58789Q5.6543-7.38281 5.6543-7.05078Z"/>
  </g>
  <g transform="matrix(1 0 0 1 281.867 1933)">
   <path d="M11.709 2.91016Q13.75 2.91016 15.5518 2.12891Q17.3535 1.34766 18.7305-0.0292969Q20.1074-1.40625 20.8887-3.20801Q21.6699-5.00977 21.6699-7.05078Q21.6699-9.0918 20.8887-10.8936Q20.1074-12.6953 18.7305-14.0723Q17.3535-15.4492 15.5469-16.2305Q13.7402-17.0117 11.6992-17.0117Q9.6582-17.0117 7.85645-16.2305Q6.05469-15.4492 4.68262-14.0723Q3.31055-12.6953 2.5293-10.8936Q1.74805-9.0918 1.74805-7.05078Q1.74805-5.00977 2.5293-3.20801Q3.31055-1.40625 4.6875-0.0292969Q6.06445 1.34766 7.86621 2.12891Q9.66797 2.91016 11.709 2.91016ZM11.709 1.25Q9.98047 1.25 8.47656 0.605469Q6.97266-0.0390625 5.83496-1.17676Q4.69727-2.31445 4.05762-3.81836Q3.41797-5.32227 3.41797-7.05078Q3.41797-8.7793 4.05762-10.2832Q4.69727-11.7871 5.83008-12.9297Q6.96289-14.0723 8.4668-14.7119Q9.9707-15.3516 11.6992-15.3516Q13.4277-15.3516 14.9316-14.7119Q16.4355-14.0723 17.5781-12.9297Q18.7207-11.7871 19.3652-10.2832Q20.0098-8.7793 20.0098-7.05078Q20.0098-5.32227 19.3701-3.81836Q18.7305-2.31445 17.5928-1.17676Q16.4551-0.0390625 14.9463 0.605469Q13.4375 1.25 11.709 1.25ZM7.17773-7.05078Q7.17773-6.69922 7.41211-6.47461Q7.64648-6.25 8.01758-6.25L10.8887-6.25L10.8887-3.36914Q10.8887-2.99805 11.1133-2.76855Q11.3379-2.53906 11.6895-2.53906Q12.0605-2.53906 12.29-2.76855Q12.5195-2.99805 12.5195-3.36914L12.5195-6.25L15.4004-6.25Q15.7715-6.25 16.001-6.47461Q16.2305-6.69922 16.2305-7.05078Q16.2305-7.42188 16.001-7.65137Q15.7715-7.88086 15.4004-7.88086L12.5195-7.88086L12.5195-10.752Q12.5195-11.1328 12.29-11.3623Q12.0605-11.5918 11.6895-11.5918Q11.3379-11.5918 11.1133-11.3574Q10.8887-11.123 10.8887-10.752L10.8887-7.88086L8.01758-7.88086Q7.63672-7.88086 7.40723-7.65137Q7.17773-7.42188 7.17773-7.05078Z"/>
  </g>
  <g transform="matrix(1 0 0 1 305.646 1933)">
   <path d="M14.9707 5.66406Q17.0605 5.66406 18.96 5.01465Q20.8594 4.36523 22.4512 3.19336Q24.043 2.02148 25.2197 0.429688Q26.3965-1.16211 27.0459-3.06641Q27.6953-4.9707 27.6953-7.05078Q27.6953-9.14062 27.0459-11.04Q26.3965-12.9395 25.2197-14.5312Q24.043-16.123 22.4512-17.2998Q20.8594-18.4766 18.9551-19.126Q17.0508-19.7754 14.9609-19.7754Q12.8711-19.7754 10.9717-19.126Q9.07227-18.4766 7.48535-17.2998Q5.89844-16.123 4.72168-14.5312Q3.54492-12.9395 2.90039-11.04Q2.25586-9.14062 2.25586-7.05078Q2.25586-4.9707 2.90527-3.06641Q3.55469-1.16211 4.72656 0.429688Q5.89844 2.02148 7.49023 3.19336Q9.08203 4.36523 10.9814 5.01465Q12.8809 5.66406 14.9707 5.66406ZM14.9707 3.84766Q13.1641 3.84766 11.5283 3.2959Q9.89258 2.74414 8.53516 1.74805Q7.17773 0.751953 6.17676-0.610352Q5.17578-1.97266 4.62891-3.6084Q4.08203-5.24414 4.08203-7.05078Q4.08203-8.86719 4.62891-10.5029Q5.17578-12.1387 6.17188-13.501Q7.16797-14.8633 8.52539-15.8594Q9.88281-16.8555 11.5186-17.4023Q13.1543-17.9492 14.9609-17.9492Q16.7773-17.9492 18.4131-17.4023Q20.0488-16.8555 21.4111-15.8594Q22.7734-14.8633 23.7695-13.501Q24.7656-12.1387 25.3174-10.5029Q25.8691-8.86719 25.8691-7.05078Q25.8789-5.24414 25.332-3.6084Q24.7852-1.97266 23.7842-0.610352Q22.7832 0.751953 21.4209 1.74805Q20.0586 2.74414 18.4229 3.2959Q16.7871 3.84766 14.9707 3.84766ZM9.19922-7.05078Q9.19922-6.66992 9.45801-6.4209Q9.7168-6.17188 10.1172-6.17188L14.0625-6.17188L14.0625-2.2168Q14.0625-1.81641 14.3115-1.55762Q14.5605-1.29883 14.9512-1.29883Q15.3516-1.29883 15.6104-1.55273Q15.8691-1.80664 15.8691-2.2168L15.8691-6.17188L19.8242-6.17188Q20.2246-6.17188 20.4785-6.4209Q20.7324-6.66992 20.7324-7.05078Q20.7324-7.46094 20.4785-7.71484Q20.2246-7.96875 19.8242-7.96875L15.8691-7.96875L15.8691-11.9141Q15.8691-12.3242 15.6104-12.583Q15.3516-12.8418 14.9512-12.8418Q14.5605-12.8418 14.3115-12.583Q14.0625-12.3242 14.0625-11.9141L14.0625-7.96875L10.1172-7.96875Q9.70703-7.96875 9.45312-7.71484Q9.19922-7.46094 9.19922-7.05078Z"/>
  </g>
  <text style="stroke:none;fill:black;font-family:sans-serif;font-size:13;font-weight:bold;" transform="matrix(1 0 0 1 263 1953)">Design Variations</text>
  <text style="stroke:none;fill:black;font-family:sans-serif;font-size:13;" transform="matrix(1 0 0 1 263 1971)">Symbols are supported in up to nine weights and three scales.</text>
  <text style="stroke:none;fill:black;font-family:sans-serif;font-size:13;" transform="matrix(1 0 0 1 263 1989)">For optimal layout with text and other symbols, vertically align</text>
  <text style="stroke:none;fill:black;font-family:sans-serif;font-size:13;" transform="matrix(1 0 0 1 263 2007)">symbols with the adjacent text.</text>
  <line style="fill:none;stroke:#00AEEF;stroke-width:0.5;opacity:1.0;" x1="776" x2="776" y1="1919" y2="1933"/>
  <g transform="matrix(1 0 0 1 776 1933)">
   <path d="M3.31055 0.15625Q3.70117 0.15625 3.91602-0.00976562Q4.13086-0.175781 4.26758-0.585938L5.52734-4.0332L11.2891-4.0332L12.5488-0.585938Q12.6855-0.175781 12.9004-0.00976562Q13.1152 0.15625 13.4961 0.15625Q13.8867 0.15625 14.1162-0.0585938Q14.3457-0.273438 14.3457-0.644531Q14.3457-0.869141 14.2383-1.17188L9.6582-13.3691Q9.48242-13.8184 9.17969-14.043Q8.87695-14.2676 8.4082-14.2676Q7.5-14.2676 7.17773-13.3789L2.59766-1.16211Q2.49023-0.859375 2.49023-0.634766Q2.49023-0.263672 2.70996-0.0537109Q2.92969 0.15625 3.31055 0.15625ZM6.00586-5.51758L8.37891-12.0898L8.42773-12.0898L10.8008-5.51758Z"/>
  </g>
  <line style="fill:none;stroke:#00AEEF;stroke-width:0.5;opacity:1.0;" x1="793.197" x2="793.197" y1="1919" y2="1933"/>
  <text style="stroke:none;fill:black;font-family:sans-serif;font-size:13;font-weight:bold;" transform="matrix(1 0 0 1 776 1953)">Margins</text>
  <text style="stroke:none;fill:black;font-family:sans-serif;font-size:13;" transform="matrix(1 0 0 1 776 1971)">Leading and trailing margins on the left and right side of each symbol</text>
  <text style="stroke:none;fill:black;font-family:sans-serif;font-size:13;" transform="matrix(1 0 0 1 776 1989)">can be adjusted by modifying the x-location of the margin guidelines.</text>
  <text style="stroke:none;fill:black;font-family:sans-serif;font-size:13;" transform="matrix(1 0 0 1 776 2007)">Modifications are automatically applied proportionally to all</text>
  <text style="stroke:none;fill:black;font-family:sans-serif;font-size:13;" transform="matrix(1 0 0 1 776 2025)">scales and weights.</text>
  <g transform="matrix(1 0 0 1 1289 1933)">
   <path d="M2.8418 1.86523L4.54102 3.57422Q5.18555 4.22852 5.90332 4.17969Q6.62109 4.13086 7.31445 3.35938L18.0078-8.42773L17.041-9.4043L6.42578 2.27539Q6.16211 2.57812 5.89355 2.61719Q5.625 2.65625 5.27344 2.30469L4.10156 1.14258Q3.75 0.791016 3.79395 0.522461Q3.83789 0.253906 4.14062-0.0195312L15.6152-10.8203L14.6387-11.7871L3.04688-0.898438Q2.30469-0.214844 2.25098 0.498047Q2.19727 1.21094 2.8418 1.86523ZM9.25781-16.3281Q8.94531-16.0254 8.90625-15.6348Q8.86719-15.2441 9.04297-14.9512Q9.21875-14.6777 9.55566-14.541Q9.89258-14.4043 10.3809-14.5215Q11.4746-14.7754 12.5977-14.7314Q13.7207-14.6875 14.7949-13.9844L14.209-12.5293Q13.9551-11.9043 14.0674-11.4404Q14.1797-10.9766 14.5801-10.5664L16.875-8.25195Q17.2363-7.88086 17.5781-7.82227Q17.9199-7.76367 18.3398-7.8418L19.4043-8.03711L20.0684-7.36328L20.0293-6.80664Q20-6.43555 20.1221-6.12305Q20.2441-5.81055 20.6055-5.44922L21.3672-4.70703Q21.7285-4.3457 22.1533-4.33105Q22.5781-4.31641 22.9297-4.66797L25.8398-7.58789Q26.1914-7.93945 26.1816-8.35449Q26.1719-8.76953 25.8105-9.13086L25.0391-9.89258Q24.6875-10.2539 24.3799-10.3857Q24.0723-10.5176 23.7109-10.4883L23.1348-10.4395L22.4902-11.0742L22.7344-12.1973Q22.832-12.6172 22.6953-12.9834Q22.5586-13.3496 22.1191-13.7891L19.9219-15.9766Q18.6719-17.2168 17.2607-17.8369Q15.8496-18.457 14.4189-18.4814Q12.9883-18.5059 11.665-17.959Q10.3418-17.4121 9.25781-16.3281ZM10.752-15.957Q11.6602-16.6211 12.7002-16.9043Q13.7402-17.1875 14.8047-17.085Q15.8691-16.9824 16.8701-16.5137Q17.8711-16.0449 18.7012-15.2051L21.1328-12.793Q21.3086-12.6172 21.3525-12.4512Q21.3965-12.2852 21.3379-12.0312L21.0156-10.5469L22.5195-9.0625L23.5059-9.12109Q23.6914-9.13086 23.7891-9.09668Q23.8867-9.0625 24.0332-8.91602L24.6094-8.33984L22.168-5.89844L21.5918-6.47461Q21.4453-6.62109 21.4062-6.71875Q21.3672-6.81641 21.377-7.01172L21.4453-7.98828L19.9512-9.47266L18.4277-9.21875Q18.1836-9.16992 18.042-9.2041Q17.9004-9.23828 17.7148-9.41406L15.7129-11.416Q15.5176-11.5918 15.4932-11.7529Q15.4688-11.9141 15.5859-12.1875L16.4648-14.2773Q15.293-15.3711 13.8281-15.791Q12.3633-16.2109 10.8398-15.7617Q10.7227-15.7324 10.6885-15.8057Q10.6543-15.8789 10.752-15.957Z"/>
  </g>
  <text style="stroke:none;fill:black;font-family:sans-serif;font-size:13;font-weight:bold;" transform="matrix(1 0 0 1 1289 1953)">Exporting</text>
  <text style="stroke:none;fill:black;font-family:sans-serif;font-size:13;" transform="matrix(1 0 0 1 1289 1971)">Symbols should be outlined when exporting to ensure the</text>
  <text style="stroke:none;fill:black;font-family:sans-serif;font-size:13;" transform="matrix(1 0 0 1 1289 1989)">design is preserved when submitting to Xcode.</text>
  <text id="template-version" style="stroke:none;fill:black;font-family:sans-serif;font-size:13;text-anchor:end;" transform="matrix(1 0 0 1 3036 1933)">Template v.3.0</text>
  <text style="stroke:none;fill:black;font-family:sans-serif;font-size:13;text-anchor:end;" transform="matrix(1 0 0 1 3036 1951)">Requires Xcode 13 or greater</text>
  <text id="descriptive-name" style="stroke:none;fill:black;font-family:sans-serif;font-size:13;text-anchor:end;" transform="matrix(1 0 0 1 3036 1969)">Generated from anchor</text>
  <text style="stroke:none;fill:black;font-family:sans-serif;font-size:13;text-anchor:end;" transform="matrix(1 0 0 1 3036 1987)">Typeset at 100 points</text>
  <text style="stroke:none;fill:black;font-family:sans-serif;font-size:13;" transform="matrix(1 0 0 1 263 726)">Small</text>
  <text style="stroke:none;fill:black;font-family:sans-serif;font-size:13;" transform="matrix(1 0 0 1 263 1156)">Medium</text>
  <text style="stroke:none;fill:black;font-family:sans-serif;font-size:13;" transform="matrix(1 0 0 1 263 1586)">Large</text>
 </g>
 <g id="Guides">
  <g id="H-reference" style="fill:#27AAE1;stroke:none;" transform="matrix(1 0 0 1 339 696)">
   <path d="M0.976562 0L3.66211 0L29.3457-67.1387L30.0293-67.1387L30.0293-70.459L28.125-70.459ZM11.6699-24.4629L46.9727-24.4629L46.2402-26.709L12.4512-26.709ZM55.127 0L57.7637 0L30.6152-70.459L29.4434-70.459L29.4434-67.1387Z"/>
  </g>
  <line id="Baseline-S" style="fill:none;stroke:#27AAE1;opacity:1;stroke-width:0.5;" x1="263" x2="3036" y1="696" y2="696"/>
  <line id="Capline-S" style="fill:none;stroke:#27AAE1;opacity:1;stroke-width:0.5;" x1="263" x2="3036" y1="625.541" y2="625.541"/>
  <g id="H-reference" style="fill:#27AAE1;stroke:none;" transform="matrix(1 0 0 1 339 1126)">
   <path d="M0.976562 0L3.66211 0L29.3457-67.1387L30.0293-67.1387L30.0293-70.459L28.125-70.459ZM11.6699-24.4629L46.9727-24.4629L46.2402-26.709L12.4512-26.709ZM55.127 0L57.7637 0L30.6152-70.459L29.4434-70.459L29.4434-67.1387Z"/>
  </g>
  <line id="Baseline-M" style="fill:none;stroke:#27AAE1;opacity:1;stroke-width:0.5;" x1="263" x2="3036" y1="1126" y2="1126"/>
  <line id="Capline-M" style="fill:none;stroke:#27AAE1;opacity:1;stroke-width:0.5;" x1="263" x2="3036" y1="1055.54" y2="1055.54"/>
  <g id="H-reference" style="fill:#27AAE1;stroke:none;" transform="matrix(1 0 0 1 339 1556)">
   <path d="M0.976562 0L3.66211 0L29.3457-67.1387L30.0293-67.1387L30.0293-70.459L28.125-70.459ZM11.6699-24.4629L46.9727-24.4629L46.2402-26.709L12.4512-26.709ZM55.127 0L57.7637 0L30.6152-70.459L29.4434-70.459L29.4434-67.1387Z"/>
  </g>
  <line id="Baseline-L" style="fill:none;stroke:#27AAE1;opacity:1;stroke-width:0.5;" x1="263" x2="3036" y1="1556" y2="1556"/>
  <line id="Capline-L" style="fill:none;stroke:#27AAE1;opacity:1;stroke-width:0.5;" x1="263" x2="3036" y1="1485.54" y2="1485.54"/>
  <line id="left-margin-Regular-M" style="fill:none;stroke:#00AEEF;stroke-width:0.5;opacity:1.0;" x1="1392.45" x2="1392.45" y1="1030.78" y2="1150.12"/>
  <line id="right-margin-Regular-M" style="fill:none;stroke:#00AEEF;stroke-width:0.5;opacity:1.0;" x1="1507.24" x2="1507.24" y1="1030.78" y2="1150.12"/>
 </g>
 <g id="Symbols">
  <g id="Black-L" transform="matrix(1 0 0 1 2860.15 1556)">
   <path d="M73.4-65.08C77.32-65.08 80.5-61.9 80.5-57.98L80.5 21.65C80.5 25.57 77.32 28.75 73.4 28.75C69.48 28.75 66.3 25.57 66.3 21.65L66.3-57.98C66.3-61.9 69.48-65.08 73.4-65.08ZM11.51-40.25C12.84-41.58 14.64-42.33 16.53-42.33L33.59-42.33C37.51-42.33 40.69-39.15 40.69-35.23C40.69-31.31 37.51-28.13 33.59-28.13L24.13-28.13C25.66-17.55 30.56-7.68 38.2-0.03C47.54 9.3 60.2 14.55 73.4 14.55C86.6 14.55 99.26 9.3 108.6-0.03C116.24-7.68 121.14-17.55 122.67-28.13L113.21-28.13C109.29-28.13 106.11-31.31 106.11-35.23C106.11-39.15 109.29-42.33 113.21-42.33L130.28-42.33C134.2-42.33 137.38-39.15 137.38-35.23C137.38-18.26 130.64-1.99 118.64 10.01C106.64 22.01 90.37 28.75 73.4 28.75C56.43 28.75 40.16 22.01 28.16 10.01C16.17-1.99 9.43-18.26 9.43-35.23C9.43-37.11 10.17-38.92 11.51-40.25ZM73.4-85C67.9-85 63.44-80.54 63.44-75.04C63.44-69.54 67.9-65.08 73.4-65.08C78.9-65.08 83.36-69.54 83.36-75.04C83.36-80.54 78.9-85 73.4-85ZM49.24-75.04C49.24-88.39 60.06-99.2 73.4-99.2C86.75-99.2 97.56-88.39 97.56-75.04C97.56-61.7 86.75-50.88 73.4-50.88C60.06-50.88 49.24-61.7 49.24-75.04Z"/>
  </g>
  <g id="Heavy-L" transform="matrix(1 0 0 1 2564.29 1556)">
   <path d="M72.56-64.23C76.01-64.23 78.81-61.43 78.81-57.98L78.81 21.65C78.81 25.1 76.01 27.9 72.56 27.9C69.11 27.9 66.31 25.1 66.31 21.65L66.31-57.98C66.31-61.43 69.11-64.23 72.56-64.23ZM11.26-39.65C12.44-40.82 14.02-41.48 15.68-41.48L32.75-41.48C36.2-41.48 38.99-38.68 38.99-35.23C38.99-31.78 36.2-28.98 32.75-28.98L22.32-28.98C23.7-17.86 28.75-7.44 36.76 0.57C46.25 10.06 59.13 15.4 72.56 15.4C85.98 15.4 98.86 10.06 108.35 0.57C116.36-7.44 121.41-17.86 122.8-28.98L112.37-28.98C108.92-28.98 106.12-31.78 106.12-35.23C106.12-38.68 108.92-41.48 112.37-41.48L129.43-41.48C132.88-41.48 135.68-38.68 135.68-35.23C135.68-18.49 129.03-2.43 117.19 9.41C105.36 21.24 89.3 27.9 72.56 27.9C55.82 27.9 39.76 21.24 27.92 9.41C16.08-2.43 9.43-18.49 9.43-35.23C9.43-36.89 10.09-38.48 11.26-39.65ZM72.56-85.85C66.59-85.85 61.75-81.01 61.75-75.04C61.75-69.07 66.59-64.23 72.56-64.23C78.53-64.23 83.37-69.07 83.37-75.04C83.37-81.01 78.53-85.85 72.56-85.85ZM49.25-75.04C49.25-87.92 59.68-98.35 72.56-98.35C85.43-98.35 95.87-87.92 95.87-75.04C95.87-62.17 85.43-51.73 72.56-51.73C59.68-51.73 49.25-62.17 49.25-75.04Z"/>
  </g>
  <g id="Bold-L" transform="matrix(1 0 0 1 2268.53 1556)">
   <path d="M71.6-63.28C74.53-63.28 76.9-60.91 76.9-57.98L76.9 21.65C76.9 24.57 74.53 26.95 71.6 26.95C68.68 26.95 66.3 24.57 66.3 21.65L66.3-57.98C66.3-60.91 68.68-63.28 71.6-63.28ZM10.98-38.98C11.98-39.97 13.32-40.53 14.73-40.53L31.79-40.53C34.72-40.53 37.09-38.16 37.09-35.23C37.09-32.3 34.72-29.93 31.79-29.93L20.3-29.93C21.51-18.2 26.72-7.18 35.13 1.24C44.81 10.91 57.93 16.35 71.6 16.35C85.28 16.35 98.4 10.91 108.07 1.24C116.49-7.18 121.69-18.2 122.91-29.93L111.42-29.93C108.49-29.93 106.12-32.3 106.12-35.23C106.12-38.16 108.49-40.53 111.42-40.53L128.48-40.53C131.41-40.53 133.78-38.16 133.78-35.23C133.78-18.74 127.23-2.93 115.57 8.73C103.91 20.39 88.09 26.95 71.6 26.95C55.11 26.95 39.3 20.39 27.64 8.73C15.98-2.93 9.43-18.74 9.43-35.23C9.43-36.64 9.99-37.98 10.98-38.98ZM71.6-86.8C65.11-86.8 59.84-81.54 59.84-75.04C59.84-68.55 65.11-63.28 71.6-63.28C78.1-63.28 83.37-68.55 83.37-75.04C83.37-81.54 78.1-86.8 71.6-86.8ZM49.24-75.04C49.24-87.39 59.25-97.4 71.6-97.4C83.95-97.4 93.97-87.39 93.97-75.04C93.97-62.69 83.95-52.68 71.6-52.68C59.25-52.68 49.24-62.69 49.24-75.04Z"/>
  </g>
  <g id="Semibold-L" transform="matrix(1 0 0 1 1972.47 1556)">
   <path d="M70.96-62.63C73.53-62.63 75.61-60.55 75.61-57.98L75.61 21.65C75.61 24.21 73.53 26.3 70.96 26.3C68.39 26.3 66.31 24.21 66.31 21.65L66.31-57.98C66.31-60.55 68.39-62.63 70.96-62.63ZM10.8-38.52C11.67-39.39 12.85-39.88 14.08-39.88L31.15-39.88C33.72-39.88 35.8-37.8 35.8-35.23C35.8-32.66 33.72-30.58 31.15-30.58L18.94-30.58C20.03-18.43 25.34-6.99 34.03 1.7C43.83 11.49 57.11 17 70.96 17C84.81 17 98.09 11.49 107.89 1.7C116.58-6.99 121.89-18.43 122.98-30.58L110.77-30.58C108.2-30.58 106.12-32.66 106.12-35.23C106.12-37.8 108.2-39.88 110.77-39.88L127.83-39.88C130.4-39.88 132.48-37.8 132.48-35.23C132.48-18.91 126-3.26 114.46 8.28C102.93 19.81 87.28 26.3 70.96 26.3C54.64 26.3 38.99 19.81 27.45 8.28C15.92-3.26 9.43-18.91 9.43-35.23C9.43-36.46 9.92-37.65 10.8-38.52ZM70.96-87.45C64.1-87.45 58.55-81.9 58.55-75.04C58.55-68.19 64.1-62.63 70.96-62.63C77.81-62.63 83.37-68.19 83.37-75.04C83.37-81.9 77.81-87.45 70.96-87.45ZM49.25-75.04C49.25-87.03 58.97-96.75 70.96-96.75C82.95-96.75 92.67-87.03 92.67-75.04C92.67-63.05 82.95-53.33 70.96-53.33C58.97-53.33 49.25-63.05 49.25-75.04Z"/>
  </g>
  <g id="Medium-L" transform="matrix(1 0 0 1 1676.26 1556)">
   <path d="M70.46-62.13C72.75-62.13 74.61-60.27 74.61-57.98L74.61 21.65C74.61 23.94 72.75 25.8 70.46 25.8C68.17 25.8 66.31 23.94 66.31 21.65L66.31-57.98C66.31-60.27 68.17-62.13 70.46-62.13ZM10.65-38.16C11.43-38.94 12.48-39.38 13.58-39.38L30.65-39.38C32.94-39.38 34.8-37.52 34.8-35.23C34.8-32.94 32.94-31.08 30.65-31.08L17.9-31.08C18.88-18.61 24.27-6.85 33.18 2.05C43.07 11.94 56.48 17.5 70.46 17.5C84.44 17.5 97.85 11.94 107.74 2.05C116.65-6.85 122.04-18.61 123.02-31.08L110.27-31.08C107.98-31.08 106.12-32.94 106.12-35.23C106.12-37.52 107.98-39.38 110.27-39.38L127.33-39.38C129.63-39.38 131.48-37.52 131.48-35.23C131.48-19.04 125.06-3.52 113.61 7.92C102.17 19.37 86.64 25.8 70.46 25.8C54.27 25.8 38.75 19.37 27.31 7.92C15.86-3.52 9.43-19.04 9.43-35.23C9.43-36.33 9.87-37.39 10.65-38.16ZM70.46-87.95C63.33-87.95 57.55-82.17 57.55-75.04C57.55-67.91 63.33-62.13 70.46-62.13C77.59-62.13 83.37-67.91 83.37-75.04C83.37-82.17 77.59-87.95 70.46-87.95ZM49.25-75.04C49.25-86.76 58.74-96.25 70.46-96.25C82.17-96.25 91.67-86.76 91.67-75.04C91.67-63.33 82.17-53.83 70.46-53.83C58.74-53.83 49.25-63.33 49.25-75.04Z"/>
  </g>
  <g id="Regular-L" transform="matrix(1 0 0 1 1380.19 1556)">
   <path d="M69.81-61.48C71.74-61.48 73.31-59.91 73.31-57.98L73.31 21.65C73.31 23.58 71.74 25.15 69.81 25.15C67.88 25.15 66.31 23.58 66.31 21.65L66.31-57.98C66.31-59.91 67.88-61.48 69.81-61.48ZM10.46-37.7C11.12-38.36 12.01-38.73 12.93-38.73L30-38.73C31.93-38.73 33.5-37.16 33.5-35.23C33.5-33.3 31.93-31.73 30-31.73L16.55-31.73C17.4-18.85 22.89-6.67 32.07 2.51C42.08 12.52 55.65 18.15 69.81 18.15C83.97 18.15 97.54 12.52 107.55 2.51C116.73-6.67 122.22-18.85 123.07-31.73L109.62-31.73C107.69-31.73 106.12-33.3 106.12-35.23C106.12-37.16 107.69-38.73 109.62-38.73L126.69-38.73C128.62-38.73 130.19-37.16 130.19-35.23C130.19-19.22 123.82-3.86 112.5 7.46C101.18 18.78 85.82 25.15 69.81 25.15C53.8 25.15 38.44 18.78 27.12 7.46C15.8-3.86 9.43-19.22 9.43-35.23C9.43-36.16 9.8-37.05 10.46-37.7ZM69.81-88.6C62.32-88.6 56.25-82.53 56.25-75.04C56.25-67.55 62.32-61.48 69.81-61.48C77.3-61.48 83.37-67.55 83.37-75.04C83.37-82.53 77.3-88.6 69.81-88.6ZM49.25-75.04C49.25-86.4 58.45-95.6 69.81-95.6C81.17-95.6 90.37-86.4 90.37-75.04C90.37-63.69 81.17-54.48 69.81-54.48C58.45-54.48 49.25-63.69 49.25-75.04Z"/>
  </g>
  <g id="Light-L" transform="matrix(1 0 0 1 1084.28 1556)">
   <path d="M69-60.68C70.49-60.68 71.7-59.47 71.7-57.98L71.7 21.65C71.7 23.14 70.49 24.35 69 24.35C67.51 24.35 66.3 23.14 66.3 21.65L66.3-57.98C66.3-59.47 67.51-60.68 69-60.68ZM10.22-37.14C10.72-37.64 11.41-37.93 12.13-37.93L29.19-37.93C30.68-37.93 31.89-36.72 31.89-35.23C31.89-33.74 30.68-32.53 29.19-32.53L14.89-32.53C15.56-19.14 21.17-6.44 30.69 3.08C40.85 13.24 54.63 18.95 69 18.95C83.37 18.95 97.15 13.24 107.31 3.08C116.83-6.44 122.44-19.14 123.11-32.53L108.81-32.53C107.32-32.53 106.11-33.74 106.11-35.23C106.11-36.72 107.32-37.93 108.81-37.93L125.88-37.93C127.37-37.93 128.58-36.72 128.58-35.23C128.58-19.43 122.3-4.28 111.13 6.9C99.95 18.07 84.8 24.35 69 24.35C53.2 24.35 38.05 18.07 26.87 6.9C15.7-4.28 9.43-19.43 9.43-35.23C9.43-35.95 9.71-36.63 10.22-37.14ZM69-89.4C61.07-89.4 54.64-82.97 54.64-75.04C54.64-67.11 61.07-60.68 69-60.68C76.93-60.68 83.36-67.11 83.36-75.04C83.36-82.97 76.93-89.4 69-89.4ZM49.24-75.04C49.24-85.96 58.09-94.8 69-94.8C79.92-94.8 88.76-85.96 88.76-75.04C88.76-64.13 79.92-55.28 69-55.28C58.09-55.28 49.24-64.13 49.24-75.04Z"/>
  </g>
  <g id="Thin-L" transform="matrix(1 0 0 1 788.622 1556)">
   <path d="M67.955-59.63C68.866-59.63 69.605-58.89 69.605-57.98L69.605 21.65C69.605 22.56 68.866 23.3 67.955 23.3C67.043 23.3 66.305 22.56 66.305 21.65L66.305-57.98C66.305-58.89 67.043-59.63 67.955-59.63ZM9.913-36.4C10.222-36.71 10.642-36.88 11.08-36.88L28.142-36.88C29.053-36.88 29.792-36.14 29.792-35.23C29.792-34.32 29.053-33.58 28.142-33.58L12.754-33.58C13.174-19.53 18.937-6.15 28.905 3.82C39.261 14.18 53.308 20 67.955 20C82.601 20 96.648 14.18 107.005 3.82C116.972-6.15 122.735-19.53 123.155-33.58L107.767-33.58C106.856-33.58 106.117-34.32 106.117-35.23C106.117-36.14 106.856-36.88 107.767-36.88L124.83-36.88C125.741-36.88 126.48-36.14 126.48-35.23C126.48-19.71 120.314-4.82 109.338 6.15C98.362 17.13 83.476 23.3 67.955 23.3C52.433 23.3 37.547 17.13 26.571 6.15C15.596-4.82 9.43-19.71 9.43-35.23C9.43-35.67 9.603-36.09 9.913-36.4ZM67.955-90.45C59.443-90.45 52.542-83.55 52.542-75.04C52.542-66.53 59.443-59.63 67.955-59.63C76.467-59.63 83.367-66.53 83.367-75.04C83.367-83.55 76.467-90.45 67.955-90.45ZM49.242-75.04C49.242-85.38 57.62-93.75 67.955-93.75C78.289-93.75 86.667-85.38 86.667-75.04C86.667-64.71 78.289-56.33 67.955-56.33C57.62-56.33 49.242-64.71 49.242-75.04Z"/>
  </g>
  <g id="Ultralight-L" transform="matrix(1 0 0 1 492.461 1556)">
   <path d="M67.405-59.08C68.013-59.08 68.505-58.59 68.505-57.98L68.505 21.65C68.505 22.25 68.013 22.75 67.405 22.75C66.798 22.75 66.305 22.25 66.305 21.65L66.305-57.98C66.305-58.59 66.798-59.08 67.405-59.08ZM9.753-36.01C9.959-36.21 10.239-36.33 10.53-36.33L27.593-36.33C28.2-36.33 28.693-35.84 28.693-35.23C28.693-34.62 28.2-34.13 27.593-34.13L11.641-34.13C11.925-19.74 17.766-5.99 27.967 4.21C38.426 14.67 52.613 20.55 67.405 20.55C82.198 20.55 96.384 14.67 106.844 4.21C117.045-5.99 122.886-19.74 123.17-34.13L107.218-34.13C106.61-34.13 106.118-34.62 106.118-35.23C106.118-35.84 106.61-36.33 107.218-36.33L124.28-36.33C124.888-36.33 125.38-35.84 125.38-35.23C125.38-19.85 119.272-5.11 108.4 5.76C97.527 16.64 82.781 22.75 67.405 22.75C52.029 22.75 37.283 16.64 26.411 5.76C15.538-5.11 9.43-19.85 9.43-35.23C9.43-35.52 9.546-35.8 9.753-36.01ZM67.405-91C58.59-91 51.443-83.86 51.443-75.04C51.443-66.23 58.59-59.08 67.405-59.08C76.221-59.08 83.368-66.23 83.368-75.04C83.368-83.86 76.221-91 67.405-91ZM49.243-75.04C49.243-85.07 57.375-93.2 67.405-93.2C77.436-93.2 85.568-85.07 85.568-75.04C85.568-65.01 77.436-56.88 67.405-56.88C57.375-56.88 49.243-65.01 49.243-75.04Z"/>
  </g>
  <g id="Black-M" transform="matrix(1 0 0 1 2872.4 1126)">
   <path d="M61.15-60.18C65.08-60.18 68.25-57 68.25-53.08L68.25 9.4C68.25 13.32 65.08 16.5 61.15 16.5C57.23 16.5 54.05 13.32 54.05 9.4L54.05-53.08C54.05-57 57.23-60.18 61.15-60.18ZM11.51-40.25C12.84-41.58 14.65-42.33 16.53-42.33L29.92-42.33C33.84-42.33 37.02-39.15 37.02-35.23C37.02-31.31 33.84-28.13 29.92-28.13L24.31-28.13C25.72-20.82 29.28-14.04 34.62-8.7C41.66-1.66 51.2 2.3 61.15 2.3C71.11 2.3 80.65-1.66 87.69-8.7C93.03-14.04 96.59-20.82 98-28.13L92.39-28.13C88.47-28.13 85.29-31.31 85.29-35.23C85.29-39.15 88.47-42.33 92.39-42.33L105.78-42.33C109.7-42.33 112.88-39.15 112.88-35.23C112.88-21.51 107.43-8.35 97.73 1.35C88.03 11.05 74.87 16.5 61.15 16.5C47.44 16.5 34.28 11.05 24.58 1.35C14.88-8.35 9.43-21.51 9.43-35.23C9.43-37.11 10.18-38.92 11.51-40.25ZM61.15-72.75C57.68-72.75 54.87-69.94 54.87-66.47C54.87-62.99 57.68-60.18 61.15-60.18C64.63-60.18 67.44-62.99 67.44-66.47C67.44-69.94 64.63-72.75 61.15-72.75ZM40.67-66.47C40.67-77.78 49.84-86.95 61.15-86.95C72.47-86.95 81.64-77.78 81.64-66.47C81.64-55.15 72.47-45.98 61.15-45.98C49.84-45.98 40.67-55.15 40.67-66.47Z"/>
  </g>
  <g id="Heavy-M" transform="matrix(1 0 0 1 2576.54 1126)">
   <path d="M60.3-59.33C63.76-59.33 66.55-56.53 66.55-53.08L66.55 9.4C66.55 12.85 63.76 15.65 60.3 15.65C56.85 15.65 54.05 12.85 54.05 9.4L54.05-53.08C54.05-56.53 56.85-59.33 60.3-59.33ZM11.26-39.65C12.43-40.82 14.02-41.48 15.68-41.48L29.07-41.48C32.52-41.48 35.32-38.68 35.32-35.23C35.32-31.78 32.52-28.98 29.07-28.98L22.44-28.98C23.74-21.12 27.46-13.8 33.17-8.09C40.37-0.9 50.13 3.15 60.3 3.15C70.48 3.15 80.24-0.9 87.44-8.09C93.15-13.8 96.87-21.12 98.17-28.98L91.54-28.98C88.09-28.98 85.29-31.78 85.29-35.23C85.29-38.68 88.09-41.48 91.54-41.48L104.93-41.48C108.38-41.48 111.18-38.68 111.18-35.23C111.18-21.74 105.82-8.8 96.28 0.74C86.74 10.29 73.8 15.65 60.3 15.65C46.81 15.65 33.87 10.29 24.33 0.74C14.79-8.8 9.43-21.74 9.43-35.23C9.43-36.89 10.09-38.48 11.26-39.65ZM60.3-73.6C56.36-73.6 53.17-70.41 53.17-66.47C53.17-62.53 56.36-59.33 60.3-59.33C64.25-59.33 67.44-62.53 67.44-66.47C67.44-70.41 64.25-73.6 60.3-73.6ZM40.67-66.47C40.67-77.31 49.46-86.1 60.3-86.1C71.15-86.1 79.94-77.31 79.94-66.47C79.94-55.62 71.15-46.83 60.3-46.83C49.46-46.83 40.67-55.62 40.67-66.47Z"/>
  </g>
  <g id="Bold-M" transform="matrix(1 0 0 1 2280.78 1126)">
   <path d="M59.35-58.38C62.28-58.38 64.65-56.01 64.65-53.08L64.65 9.4C64.65 12.32 62.28 14.7 59.35 14.7C56.43 14.7 54.05 12.32 54.05 9.4L54.05-53.08C54.05-56.01 56.43-58.38 59.35-58.38ZM10.98-38.98C11.98-39.97 13.32-40.53 14.73-40.53L28.12-40.53C31.04-40.53 33.42-38.16 33.42-35.23C33.42-32.3 31.04-29.93 28.12-29.93L20.39-29.93C21.54-21.46 25.43-13.54 31.55-7.42C38.92-0.05 48.92 4.1 59.35 4.1C69.78 4.1 79.79-0.05 87.16-7.42C93.28-13.54 97.17-21.46 98.32-29.93L90.59-29.93C87.66-29.93 85.29-32.3 85.29-35.23C85.29-38.16 87.66-40.53 90.59-40.53L103.98-40.53C106.91-40.53 109.28-38.16 109.28-35.23C109.28-21.99 104.02-9.29 94.66 0.07C85.29 9.44 72.59 14.7 59.35 14.7C46.11 14.7 33.41 9.44 24.05 0.07C14.69-9.29 9.43-21.99 9.43-35.23C9.43-36.64 9.99-37.98 10.98-38.98ZM59.35-74.55C54.89-74.55 51.27-70.93 51.27-66.47C51.27-62 54.89-58.38 59.35-58.38C63.82-58.38 67.44-62 67.44-66.47C67.44-70.93 63.82-74.55 59.35-74.55ZM40.67-66.47C40.67-76.79 49.03-85.15 59.35-85.15C69.68-85.15 78.04-76.79 78.04-66.47C78.04-56.15 69.68-47.78 59.35-47.78C49.03-47.78 40.67-56.15 40.67-66.47Z"/>
  </g>
  <g id="Semibold-M" transform="matrix(1 0 0 1 1984.72 1126)">
   <path d="M58.71-57.73C61.28-57.73 63.36-55.65 63.36-53.08L63.36 9.4C63.36 11.96 61.28 14.05 58.71 14.05C56.14 14.05 54.06 11.96 54.06 9.4L54.06-53.08C54.06-55.65 56.14-57.73 58.71-57.73ZM10.8-38.52C11.67-39.39 12.85-39.88 14.08-39.88L27.47-39.88C30.04-39.88 32.12-37.8 32.12-35.23C32.12-32.66 30.04-30.58 27.47-30.58L19.01-30.58C20.05-21.69 24.05-13.36 30.44-6.96C37.94 0.53 48.11 4.75 58.71 4.75C69.31 4.75 79.48 0.53 86.98-6.96C93.37-13.36 97.37-21.69 98.41-30.58L89.95-30.58C87.38-30.58 85.3-32.66 85.3-35.23C85.3-37.8 87.38-39.88 89.95-39.88L103.33-39.88C105.9-39.88 107.98-37.8 107.98-35.23C107.98-22.16 102.79-9.63 93.55-0.39C84.31 8.85 71.78 14.05 58.71 14.05C45.64 14.05 33.11 8.85 23.87-0.39C14.63-9.63 9.43-22.16 9.43-35.23C9.43-36.46 9.92-37.65 10.8-38.52ZM58.71-75.2C53.88-75.2 49.97-71.29 49.97-66.47C49.97-61.64 53.88-57.73 58.71-57.73C63.54-57.73 67.45-61.64 67.45-66.47C67.45-71.29 63.54-75.2 58.71-75.2ZM40.67-66.47C40.67-76.43 48.75-84.5 58.71-84.5C68.67-84.5 76.75-76.43 76.75-66.47C76.75-56.51 68.67-48.43 58.71-48.43C48.75-48.43 40.67-56.51 40.67-66.47Z"/>
  </g>
  <g id="Medium-M" transform="matrix(1 0 0 1 1688.51 1126)">
   <path d="M58.21-57.23C60.5-57.23 62.36-55.37 62.36-53.08L62.36 9.4C62.36 11.69 60.5 13.55 58.21 13.55C55.92 13.55 54.06 11.69 54.06 9.4L54.06-53.08C54.06-55.37 55.92-57.23 58.21-57.23ZM10.65-38.16C11.43-38.94 12.48-39.38 13.58-39.38L26.97-39.38C29.26-39.38 31.12-37.52 31.12-35.23C31.12-32.94 29.26-31.08 26.97-31.08L17.95-31.08C18.9-21.87 22.98-13.22 29.59-6.61C37.18 0.98 47.47 5.25 58.21 5.25C68.94 5.25 79.24 0.98 86.83-6.61C93.44-13.22 97.52-21.87 98.47-31.08L89.45-31.08C87.16-31.08 85.3-32.94 85.3-35.23C85.3-37.52 87.16-39.38 89.45-39.38L102.83-39.38C105.13-39.38 106.98-37.52 106.98-35.23C106.98-22.29 101.85-9.89 92.7-0.74C83.55 8.41 71.15 13.55 58.21 13.55C45.27 13.55 32.87 8.41 23.72-0.74C14.57-9.89 9.43-22.29 9.43-35.23C9.43-36.33 9.87-37.39 10.65-38.16ZM58.21-75.7C53.11-75.7 48.97-71.57 48.97-66.47C48.97-61.37 53.11-57.23 58.21-57.23C63.31-57.23 67.45-61.37 67.45-66.47C67.45-71.57 63.31-75.7 58.21-75.7ZM40.67-66.47C40.67-76.15 48.52-84 58.21-84C67.9-84 75.75-76.15 75.75-66.47C75.75-56.78 67.9-48.93 58.21-48.93C48.52-48.93 40.67-56.78 40.67-66.47Z"/>
  </g>
  <g id="Regular-M" transform="matrix(1 0 0 1 1392.45 1126)">
   <path d="M57.55-56.58C59.48-56.58 61.05-55.01 61.05-53.08L61.05 9.4C61.05 11.33 59.48 12.9 57.55 12.9C55.62 12.9 54.05 11.33 54.05 9.4L54.05-53.08C54.05-55.01 55.62-56.58 57.55-56.58ZM10.45-37.7C11.11-38.36 12-38.73 12.93-38.73L26.31-38.73C28.25-38.73 29.81-37.16 29.81-35.23C29.81-33.3 28.25-31.73 26.31-31.73L16.57-31.73C17.4-22.1 21.59-13.03 28.47-6.15C36.18 1.56 46.64 5.9 57.55 5.9C68.46 5.9 78.92 1.56 86.63-6.15C93.51-13.03 97.7-22.1 98.53-31.73L88.79-31.73C86.85-31.73 85.29-33.3 85.29-35.23C85.29-37.16 86.85-38.73 88.79-38.73L102.17-38.73C104.11-38.73 105.67-37.16 105.67-35.23C105.67-22.47 100.6-10.23 91.58-1.2C82.55 7.83 70.31 12.9 57.55 12.9C44.79 12.9 32.55 7.83 23.52-1.2C14.5-10.23 9.43-22.47 9.43-35.23C9.43-36.16 9.79-37.05 10.45-37.7ZM57.55-76.35C52.09-76.35 47.66-71.93 47.66-66.47C47.66-61.01 52.09-56.58 57.55-56.58C63.01-56.58 67.44-61.01 67.44-66.47C67.44-71.93 63.01-76.35 57.55-76.35ZM40.66-66.47C40.66-75.79 48.22-83.35 57.55-83.35C66.88-83.35 74.44-75.79 74.44-66.47C74.44-57.14 66.88-49.58 57.55-49.58C48.22-49.58 40.66-57.14 40.66-66.47Z"/>
  </g>
  <g id="Light-M" transform="matrix(1 0 0 1 1096.53 1126)">
   <path d="M56.75-55.78C58.24-55.78 59.45-54.57 59.45-53.08L59.45 9.4C59.45 10.89 58.24 12.1 56.75 12.1C55.26 12.1 54.05 10.89 54.05 9.4L54.05-53.08C54.05-54.57 55.26-55.78 56.75-55.78ZM10.22-37.14C10.72-37.64 11.41-37.93 12.13-37.93L25.51-37.93C27-37.93 28.21-36.72 28.21-35.23C28.21-33.74 27-32.53 25.51-32.53L14.91-32.53C15.57-22.4 19.88-12.81 27.11-5.58C34.97 2.28 45.63 6.7 56.75 6.7C67.87 6.7 78.53 2.28 86.4-5.58C93.62-12.81 97.94-22.4 98.59-32.53L87.99-32.53C86.5-32.53 85.29-33.74 85.29-35.23C85.29-36.72 86.5-37.93 87.99-37.93L101.38-37.93C102.87-37.93 104.08-36.72 104.08-35.23C104.08-22.68 99.09-10.64 90.21-1.77C81.34 7.11 69.3 12.1 56.75 12.1C44.2 12.1 32.16 7.11 23.29-1.77C14.41-10.64 9.43-22.68 9.43-35.23C9.43-35.95 9.71-36.63 10.22-37.14ZM56.75-77.15C50.85-77.15 46.06-72.37 46.06-66.47C46.06-60.56 50.85-55.78 56.75-55.78C62.65-55.78 67.44-60.56 67.44-66.47C67.44-72.37 62.65-77.15 56.75-77.15ZM40.66-66.47C40.66-75.35 47.86-82.55 56.75-82.55C65.63-82.55 72.84-75.35 72.84-66.47C72.84-57.58 65.63-50.38 56.75-50.38C47.86-50.38 40.66-57.58 40.66-66.47Z"/>
  </g>
  <g id="Thin-M" transform="matrix(1 0 0 1 800.872 1126)">
   <path d="M55.705-54.73C56.616-54.73 57.355-53.99 57.355-53.08L57.355 9.4C57.355 10.31 56.616 11.05 55.705 11.05C54.793 11.05 54.055 10.31 54.055 9.4L54.055-53.08C54.055-53.99 54.793-54.73 55.705-54.73ZM9.913-36.4C10.222-36.71 10.642-36.88 11.08-36.88L24.467-36.88C25.378-36.88 26.117-36.14 26.117-35.23C26.117-34.32 25.378-33.58 24.467-33.58L12.761-33.58C13.176-22.78 17.647-12.51 25.317-4.84C33.376 3.22 44.307 7.75 55.705 7.75C67.102 7.75 78.033 3.22 86.093-4.84C93.762-12.51 98.233-22.78 98.648-33.58L86.942-33.58C86.031-33.58 85.292-34.32 85.292-35.23C85.292-36.14 86.031-36.88 86.942-36.88L100.33-36.88C101.241-36.88 101.98-36.14 101.98-35.23C101.98-22.96 97.104-11.19 88.426-2.51C79.748 6.17 67.978 11.05 55.705 11.05C43.432 11.05 31.661 6.17 22.983-2.51C14.305-11.19 9.43-22.96 9.43-35.23C9.43-35.67 9.603-36.09 9.913-36.4ZM55.705-78.2C49.223-78.2 43.968-72.95 43.968-66.47C43.968-59.98 49.223-54.73 55.705-54.73C62.188-54.73 67.443-59.98 67.443-66.47C67.443-72.95 62.188-78.2 55.705-78.2ZM40.668-66.47C40.668-74.77 47.4-81.5 55.705-81.5C64.01-81.5 70.743-74.77 70.743-66.47C70.743-58.16 64.01-51.43 55.705-51.43C47.4-51.43 40.668-58.16 40.668-66.47Z"/>
  </g>
  <g id="Ultralight-M" transform="matrix(1 0 0 1 504.711 1126)">
   <path d="M55.155-54.18C55.763-54.18 56.255-53.69 56.255-53.08L56.255 9.4C56.255 10 55.763 10.5 55.155 10.5C54.548 10.5 54.055 10 54.055 9.4L54.055-53.08C54.055-53.69 54.548-54.18 55.155-54.18ZM9.753-36.01C9.959-36.21 10.239-36.33 10.53-36.33L23.918-36.33C24.525-36.33 25.018-35.84 25.018-35.23C25.018-34.62 24.525-34.13 23.918-34.13L11.644-34.13C11.926-22.98 16.476-12.36 24.379-4.45C32.541 3.71 43.612 8.3 55.155 8.3C66.699 8.3 77.77 3.71 85.932-4.45C93.835-12.36 98.385-22.98 98.667-34.13L86.393-34.13C85.785-34.13 85.293-34.62 85.293-35.23C85.293-35.84 85.785-36.33 86.393-36.33L99.78-36.33C100.388-36.33 100.88-35.84 100.88-35.23C100.88-23.1 96.063-11.47 87.488-2.9C78.913 5.68 67.282 10.5 55.155 10.5C43.028 10.5 31.398 5.68 22.823-2.9C14.248-11.47 9.43-23.1 9.43-35.23C9.43-35.52 9.546-35.8 9.753-36.01ZM55.154-78.75C48.368-78.75 42.867-73.25 42.867-66.47C42.867-59.68 48.368-54.18 55.154-54.18C61.94-54.18 67.442-59.68 67.442-66.47C67.442-73.25 61.94-78.75 55.154-78.75ZM40.667-66.47C40.667-74.47 47.153-80.95 55.154-80.95C63.155-80.95 69.642-74.47 69.642-66.47C69.642-58.47 63.155-51.98 55.154-51.98C47.153-51.98 40.667-58.47 40.667-66.47Z"/>
  </g>
  <g id="Black-S" transform="matrix(1 0 0 1 2882.03 696)">
   <path d="M51.53-56.432C55.45-56.432 58.63-53.253 58.63-49.332L58.63-0.332C58.63 3.589 55.45 6.768 51.53 6.768C47.61 6.768 44.43 3.589 44.43-0.332L44.43-49.332C44.43-53.253 47.61-56.432 51.53-56.432ZM11.51-40.352C12.84-41.684 14.65-42.432 16.53-42.432L27.03-42.432C30.95-42.432 34.13-39.253 34.13-35.332C34.13-31.411 30.95-28.232 27.03-28.232L24.55-28.232C25.8-23.495 28.28-19.127 31.8-15.604C37.03-10.371 44.13-7.432 51.53-7.432C58.93-7.432 66.03-10.371 71.26-15.604C74.78-19.127 77.27-23.495 78.51-28.232L76.03-28.232C72.11-28.232 68.93-31.411 68.93-35.332C68.93-39.253 72.11-42.432 76.03-42.432L86.53-42.432C90.45-42.432 93.63-39.253 93.63-35.332C93.63-24.166 89.2-13.458 81.3-5.563C73.4 2.332 62.7 6.768 51.53 6.768C40.37 6.768 29.66 2.332 21.76-5.563C13.87-13.458 9.43-24.166 9.43-35.332C9.43-37.215 10.18-39.021 11.51-40.352ZM51.53-63.232C49.65-63.232 48.13-61.71 48.13-59.832C48.13-57.954 49.65-56.432 51.53-56.432C53.41-56.432 54.93-57.954 54.93-59.832C54.93-61.71 53.41-63.232 51.53-63.232ZM33.93-59.832C33.93-69.552 41.81-77.432 51.53-77.432C61.25-77.432 69.13-69.552 69.13-59.832C69.13-50.112 61.25-42.232 51.53-42.232C41.81-42.232 33.93-50.112 33.93-59.832Z"/>
  </g>
  <g id="Heavy-S" transform="matrix(1 0 0 1 2586.16 696)">
   <path d="M50.68-55.582C54.13-55.582 56.93-52.784 56.93-49.332L56.93-0.332C56.93 3.12 54.13 5.918 50.68 5.918C47.23 5.918 44.43 3.12 44.43-0.332L44.43-49.332C44.43-52.784 47.23-55.582 50.68-55.582ZM11.26-39.751C12.43-40.924 14.02-41.582 15.68-41.582L26.18-41.582C29.63-41.582 32.43-38.784 32.43-35.332C32.43-31.88 29.63-29.082 26.18-29.082L22.62-29.082C23.8-23.791 26.46-18.896 30.35-15.003C35.74-9.611 43.06-6.582 50.68-6.582C58.31-6.582 65.62-9.611 71.01-15.003C74.9-18.896 77.57-23.791 78.74-29.082L75.18-29.082C71.73-29.082 68.93-31.88 68.93-35.332C68.93-38.784 71.73-41.582 75.18-41.582L85.68-41.582C89.13-41.582 91.93-38.784 91.93-35.332C91.93-24.392 87.59-13.9 79.85-6.164C72.11 1.572 61.62 5.918 50.68 5.918C39.74 5.918 29.25 1.572 21.51-6.164C13.78-13.9 9.43-24.392 9.43-35.332C9.43-36.99 10.09-38.579 11.26-39.751ZM50.68-64.082C48.33-64.082 46.43-62.179 46.43-59.832C46.43-57.485 48.33-55.582 50.68-55.582C53.03-55.582 54.93-57.485 54.93-59.832C54.93-62.179 53.03-64.082 50.68-64.082ZM33.93-59.832C33.93-69.083 41.43-76.582 50.68-76.582C59.93-76.582 67.43-69.083 67.43-59.832C67.43-50.581 59.93-43.082 50.68-43.082C41.43-43.082 33.93-50.581 33.93-59.832Z"/>
  </g>
  <g id="Bold-S" transform="matrix(1 0 0 1 2290.4 696)">
   <path d="M49.73-54.427C52.66-54.427 55.03-52.054 55.03-49.127L55.03-0.127C55.03 2.8 52.66 5.173 49.73 5.173C46.81 5.173 44.43 2.8 44.43-0.127L44.43-49.127C44.43-52.054 46.81-54.427 49.73-54.427ZM10.99-38.875C11.98-39.869 13.33-40.427 14.73-40.427L25.23-40.427C28.16-40.427 30.53-38.054 30.53-35.127C30.53-32.2 28.16-29.827 25.23-29.827L20.51-29.827C21.58-23.919 24.43-18.43 28.73-14.126C34.3-8.556 41.86-5.427 49.73-5.427C57.61-5.427 65.17-8.556 70.73-14.126C75.04-18.43 77.89-23.919 78.96-29.827L74.23-29.827C71.31-29.827 68.93-32.2 68.93-35.127C68.93-38.054 71.31-40.427 74.23-40.427L84.73-40.427C87.66-40.427 90.03-38.054 90.03-35.127C90.03-24.439 85.79-14.188 78.23-6.631C70.67 0.927 60.42 5.173 49.73 5.173C39.05 5.173 28.8 0.927 21.24-6.631C13.68-14.188 9.43-24.439 9.43-35.127C9.43-36.533 9.99-37.881 10.99-38.875ZM49.73-64.827C46.86-64.827 44.53-62.499 44.53-59.627C44.53-56.755 46.86-54.427 49.73-54.427C52.61-54.427 54.93-56.755 54.93-59.627C54.93-62.499 52.61-64.827 49.73-64.827ZM33.93-59.627C33.93-68.353 41.01-75.427 49.73-75.427C58.46-75.427 65.53-68.353 65.53-59.627C65.53-50.901 58.46-43.827 49.73-43.827C41.01-43.827 33.93-50.901 33.93-59.627Z"/>
  </g>
  <g id="Semibold-S" transform="matrix(1 0 0 1 1994.34 696)">
   <path d="M49.08-53.777C51.65-53.777 53.73-51.695 53.73-49.127L53.73-0.127C53.73 2.441 51.65 4.523 49.08 4.523C46.51 4.523 44.43 2.441 44.43-0.127L44.43-49.127C44.43-51.695 46.51-53.777 49.08-53.777ZM10.79-38.415C11.66-39.287 12.85-39.777 14.08-39.777L24.58-39.777C27.15-39.777 29.23-37.695 29.23-35.127C29.23-32.559 27.15-30.477 24.58-30.477L19.09-30.477C20.07-24.149 23.03-18.25 27.62-13.666C33.31-7.975 41.03-4.777 49.08-4.777C57.13-4.777 64.85-7.975 70.54-13.666C75.12-18.25 78.09-24.149 79.07-30.477L73.58-30.477C71.01-30.477 68.93-32.559 68.93-35.127C68.93-37.695 71.01-39.777 73.58-39.777L84.08-39.777C86.65-39.777 88.73-37.695 88.73-35.127C88.73-24.611 84.55-14.526 77.12-7.09C69.68 0.346 59.6 4.523 49.08 4.523C38.56 4.523 28.48 0.346 21.04-7.09C13.61-14.526 9.43-24.611 9.43-35.127C9.43-36.36 9.92-37.543 10.79-38.415ZM49.08-65.477C45.85-65.477 43.23-62.858 43.23-59.627C43.23-56.396 45.85-53.777 49.08-53.777C52.31-53.777 54.93-56.396 54.93-59.627C54.93-62.858 52.31-65.477 49.08-65.477ZM33.93-59.627C33.93-67.994 40.71-74.777 49.08-74.777C57.45-74.777 64.23-67.994 64.23-59.627C64.23-51.26 57.45-44.477 49.08-44.477C40.71-44.477 33.93-51.26 33.93-59.627Z"/>
  </g>
  <g id="Medium-S" transform="matrix(1 0 0 1 1698.13 696)">
   <path d="M48.58-53.277C50.87-53.277 52.73-51.419 52.73-49.127L52.73-0.127C52.73 2.165 50.87 4.023 48.58 4.023C46.29 4.023 44.43 2.165 44.43-0.127L44.43-49.127C44.43-51.419 46.29-53.277 48.58-53.277ZM10.65-38.061C11.42-38.84 12.48-39.277 13.58-39.277L24.08-39.277C26.37-39.277 28.23-37.419 28.23-35.127C28.23-32.835 26.37-30.977 24.08-30.977L18.01-30.977C18.91-24.328 21.97-18.111 26.77-13.313C32.55-7.527 40.4-4.277 48.58-4.277C56.76-4.277 64.61-7.527 70.39-13.313C75.19-18.111 78.25-24.328 79.15-30.977L73.08-30.977C70.79-30.977 68.93-32.835 68.93-35.127C68.93-37.419 70.79-39.277 73.08-39.277L83.58-39.277C85.87-39.277 87.73-37.419 87.73-35.127C87.73-24.744 83.6-14.786 76.26-7.444C68.92-0.102 58.96 4.023 48.58 4.023C38.2 4.023 28.24-0.102 20.9-7.444C13.55-14.786 9.43-24.744 9.43-35.127C9.43-36.228 9.87-37.283 10.65-38.061ZM48.58-65.977C45.07-65.977 42.23-63.134 42.23-59.627C42.23-56.12 45.07-53.277 48.58-53.277C52.09-53.277 54.93-56.12 54.93-59.627C54.93-63.134 52.09-65.977 48.58-65.977ZM33.93-59.627C33.93-67.718 40.49-74.277 48.58-74.277C56.67-74.277 63.23-67.718 63.23-59.627C63.23-51.536 56.67-44.977 48.58-44.977C40.49-44.977 33.93-51.536 33.93-59.627Z"/>
  </g>
  <g id="Regular-S" transform="matrix(1 0 0 1 1402.07 696)">
   <path d="M47.93-52.627C49.86-52.627 51.43-51.06 51.43-49.127L51.43-0.127C51.43 1.806 49.86 3.373 47.93 3.373C46 3.373 44.43 1.806 44.43-0.127L44.43-49.127C44.43-51.06 46-52.627 47.93-52.627ZM10.46-37.602C11.11-38.258 12-38.627 12.93-38.627L23.43-38.627C25.36-38.627 26.93-37.06 26.93-35.127C26.93-33.194 25.36-31.627 23.43-31.627L16.62-31.627C17.41-24.56 20.58-17.93 25.66-12.853C31.56-6.946 39.58-3.627 47.93-3.627C56.28-3.627 64.3-6.946 70.2-12.853C75.28-17.93 78.45-24.56 79.24-31.627L72.43-31.627C70.5-31.627 68.93-33.194 68.93-35.127C68.93-37.06 70.5-38.627 72.43-38.627L82.93-38.627C84.86-38.627 86.43-37.06 86.43-35.127C86.43-24.916 82.37-15.123 75.15-7.903C67.93-0.683 58.14 3.373 47.93 3.373C37.72 3.373 27.93-0.683 20.71-7.903C13.49-15.123 9.43-24.916 9.43-35.127C9.43-36.055 9.8-36.945 10.46-37.602ZM47.93-66.627C44.06-66.627 40.93-63.493 40.93-59.627C40.93-55.761 44.06-52.627 47.93-52.627C51.8-52.627 54.93-55.761 54.93-59.627C54.93-63.493 51.8-66.627 47.93-66.627ZM33.93-59.627C33.93-67.359 40.2-73.627 47.93-73.627C55.66-73.627 61.93-67.359 61.93-59.627C61.93-51.895 55.66-45.627 47.93-45.627C40.2-45.627 33.93-51.895 33.93-59.627Z"/>
  </g>
  <g id="Light-S" transform="matrix(1 0 0 1 1106.16 696)">
   <path d="M47.13-51.827C48.62-51.827 49.83-50.618 49.83-49.127L49.83-0.127C49.83 1.364 48.62 2.573 47.13 2.573C45.64 2.573 44.43 1.364 44.43-0.127L44.43-49.127C44.43-50.618 45.64-51.827 47.13-51.827ZM10.22-37.036C10.73-37.542 11.41-37.827 12.13-37.827L22.63-37.827C24.12-37.827 25.33-36.618 25.33-35.127C25.33-33.636 24.12-32.427 22.63-32.427L14.94-32.427C15.58-24.849 18.87-17.705 24.29-12.287C30.35-6.23 38.56-2.827 47.13-2.827C55.7-2.827 63.91-6.23 69.97-12.287C75.39-17.705 78.68-24.849 79.32-32.427L71.63-32.427C70.14-32.427 68.93-33.636 68.93-35.127C68.93-36.618 70.14-37.827 71.63-37.827L82.13-37.827C83.62-37.827 84.83-36.618 84.83-35.127C84.83-25.128 80.86-15.539 73.79-8.469C66.72-1.399 57.13 2.573 47.13 2.573C37.13 2.573 27.54-1.399 20.47-8.469C13.4-15.539 9.43-25.128 9.43-35.127C9.43-35.843 9.72-36.53 10.22-37.036ZM47.13-67.427C42.82-67.427 39.33-63.935 39.33-59.627C39.33-55.319 42.82-51.827 47.13-51.827C51.44-51.827 54.93-55.319 54.93-59.627C54.93-63.935 51.44-67.427 47.13-67.427ZM33.93-59.627C33.93-66.917 39.84-72.827 47.13-72.827C54.42-72.827 60.33-66.917 60.33-59.627C60.33-52.337 54.42-46.427 47.13-46.427C39.84-46.427 33.93-52.337 33.93-59.627Z"/>
  </g>
  <g id="Thin-S" transform="matrix(1 0 0 1 810.497 696)">
   <path d="M46.08-50.777C46.991-50.777 47.73-50.038 47.73-49.127L47.73-0.127C47.73 0.784 46.991 1.523 46.08 1.523C45.168 1.523 44.43 0.784 44.43-0.127L44.43-49.127C44.43-50.038 45.168-50.777 46.08-50.777ZM9.913-36.294C10.222-36.603 10.642-36.777 11.08-36.777L21.58-36.777C22.491-36.777 23.23-36.038 23.23-35.127C23.23-34.216 22.491-33.477 21.58-33.477L12.77-33.477C13.178-25.233 16.633-17.409 22.498-11.545C28.752-5.291 37.235-1.777 46.08-1.777C54.925-1.777 63.407-5.291 69.662-11.545C75.526-17.409 78.981-25.233 79.389-33.477L70.58-33.477C69.668-33.477 68.93-34.216 68.93-35.127C68.93-36.038 69.668-36.777 70.58-36.777L81.08-36.777C81.991-36.777 82.73-36.038 82.73-35.127C82.73-25.407 78.868-16.085 71.995-9.212C65.122-2.338 55.8 1.523 46.08 1.523C36.359 1.523 27.037-2.338 20.164-9.212C13.291-16.085 9.43-25.407 9.43-35.127C9.43-35.565 9.603-35.984 9.913-36.294ZM46.08-68.477C41.192-68.477 37.23-64.515 37.23-59.627C37.23-54.739 41.192-50.777 46.08-50.777C50.967-50.777 54.93-54.739 54.93-59.627C54.93-64.515 50.967-68.477 46.08-68.477ZM33.93-59.627C33.93-66.337 39.369-71.777 46.08-71.777C52.79-71.777 58.23-66.337 58.23-59.627C58.23-52.917 52.79-47.477 46.08-47.477C39.369-47.477 33.93-52.917 33.93-59.627Z"/>
  </g>
  <g id="Ultralight-S" transform="matrix(1 0 0 1 514.336 696)">
   <path d="M45.53-50.227C46.138-50.227 46.63-49.734 46.63-49.127L46.63-0.127C46.63 0.481 46.138 0.973 45.53 0.973C44.923 0.973 44.43 0.481 44.43-0.127L44.43-49.127C44.43-49.734 44.923-50.227 45.53-50.227ZM9.753-35.905C9.959-36.111 10.239-36.227 10.53-36.227L21.03-36.227C21.638-36.227 22.13-35.734 22.13-35.127C22.13-34.519 21.638-34.027 21.03-34.027L11.648-34.027C11.927-25.435 15.462-17.254 21.559-11.156C27.917-4.799 36.54-1.227 45.53-1.227C54.521-1.227 63.144-4.799 69.501-11.156C75.599-17.254 79.134-25.435 79.413-34.027L70.03-34.027C69.423-34.027 68.93-34.519 68.93-35.127C68.93-35.734 69.423-36.227 70.03-36.227L80.53-36.227C81.138-36.227 81.63-35.734 81.63-35.127C81.63-25.553 77.827-16.37 71.057-9.6C64.287-2.83 55.105 0.973 45.53 0.973C35.956 0.973 26.774-2.83 20.004-9.6C13.234-16.37 9.43-25.553 9.43-35.127C9.43-35.419 9.546-35.698 9.753-35.905ZM45.53-69.027C40.339-69.027 36.13-64.818 36.13-59.627C36.13-54.435 40.339-50.227 45.53-50.227C50.722-50.227 54.93-54.435 54.93-59.627C54.93-64.818 50.722-69.027 45.53-69.027ZM33.93-59.627C33.93-66.033 39.124-71.227 45.53-71.227C51.937-71.227 57.13-66.033 57.13-59.627C57.13-53.22 51.937-48.027 45.53-48.027C39.124-48.027 33.93-53.22 33.93-59.627Z"/>
  </g>
 </g>
</svg>
