<?xml version="1.0" encoding="UTF-8"?>
<!--Generator: Apple Native CoreSVG 175-->
<!DOCTYPE svg
PUBLIC "-//W3C//DTD SVG 1.1//EN"
       "http://www.w3.org/Graphics/SVG/1.1/DTD/svg11.dtd">
<svg version="1.1" xmlns="http://www.w3.org/2000/svg" xmlns:xlink="http://www.w3.org/1999/xlink" width="3300" height="2200">
 <!--glyph: "", point size: 100.0, font version: "17.0d12e1", template writer version: "65.1"-->
 <g id="Notes">
  <rect height="2200" id="artboard" style="fill:white;opacity:1" width="3300" x="0" y="0"/>
  <line style="fill:none;stroke:black;opacity:1;stroke-width:0.5;" x1="263" x2="3036" y1="292" y2="292"/>
  <text style="stroke:none;fill:black;font-family:sans-serif;font-size:13;font-weight:bold;" transform="matrix(1 0 0 1 263 322)">Weight/Scale Variations</text>
  <text style="stroke:none;fill:black;font-family:sans-serif;font-size:13;text-anchor:middle;" transform="matrix(1 0 0 1 559.711 322)">Ultralight</text>
  <text style="stroke:none;fill:black;font-family:sans-serif;font-size:13;text-anchor:middle;" transform="matrix(1 0 0 1 856.422 322)">Thin</text>
  <text style="stroke:none;fill:black;font-family:sans-serif;font-size:13;text-anchor:middle;" transform="matrix(1 0 0 1 1153.13 322)">Light</text>
  <text style="stroke:none;fill:black;font-family:sans-serif;font-size:13;text-anchor:middle;" transform="matrix(1 0 0 1 1449.84 322)">Regular</text>
  <text style="stroke:none;fill:black;font-family:sans-serif;font-size:13;text-anchor:middle;" transform="matrix(1 0 0 1 1746.56 322)">Medium</text>
  <text style="stroke:none;fill:black;font-family:sans-serif;font-size:13;text-anchor:middle;" transform="matrix(1 0 0 1 2043.27 322)">Semibold</text>
  <text style="stroke:none;fill:black;font-family:sans-serif;font-size:13;text-anchor:middle;" transform="matrix(1 0 0 1 2339.98 322)">Bold</text>
  <text style="stroke:none;fill:black;font-family:sans-serif;font-size:13;text-anchor:middle;" transform="matrix(1 0 0 1 2636.69 322)">Heavy</text>
  <text style="stroke:none;fill:black;font-family:sans-serif;font-size:13;text-anchor:middle;" transform="matrix(1 0 0 1 2933.4 322)">Black</text>
  <line style="fill:none;stroke:black;opacity:1;stroke-width:0.5;" x1="263" x2="3036" y1="1903" y2="1903"/>
  <g transform="matrix(1 0 0 1 263 1933)">
   <path d="M9.24805 0.830078Q10.8691 0.830078 12.2949 0.214844Q13.7207-0.400391 14.8096-1.49414Q15.8984-2.58789 16.5186-4.01367Q17.1387-5.43945 17.1387-7.05078Q17.1387-8.66211 16.5186-10.0879Q15.8984-11.5137 14.8047-12.6074Q13.7109-13.7012 12.2852-14.3164Q10.8594-14.9316 9.23828-14.9316Q7.62695-14.9316 6.20117-14.3164Q4.77539-13.7012 3.69141-12.6074Q2.60742-11.5137 1.9873-10.0879Q1.36719-8.66211 1.36719-7.05078Q1.36719-5.43945 1.9873-4.01367Q2.60742-2.58789 3.69629-1.49414Q4.78516-0.400391 6.21094 0.214844Q7.63672 0.830078 9.24805 0.830078ZM9.24805-0.654297Q7.91992-0.654297 6.7627-1.14746Q5.60547-1.64062 4.73145-2.51953Q3.85742-3.39844 3.36426-4.56055Q2.87109-5.72266 2.87109-7.05078Q2.87109-8.37891 3.35938-9.54102Q3.84766-10.7031 4.72168-11.582Q5.5957-12.4609 6.75293-12.9541Q7.91016-13.4473 9.23828-13.4473Q10.5762-13.4473 11.7334-12.9541Q12.8906-12.4609 13.7695-11.582Q14.6484-10.7031 15.1465-9.54102Q15.6445-8.37891 15.6445-7.05078Q15.6445-5.72266 15.1514-4.56055Q14.6582-3.39844 13.7842-2.51953Q12.9102-1.64062 11.748-1.14746Q10.5859-0.654297 9.24805-0.654297ZM5.6543-7.05078Q5.6543-6.72852 5.85938-6.52832Q6.06445-6.32812 6.40625-6.32812L8.51562-6.32812L8.51562-4.20898Q8.51562-3.88672 8.71094-3.67676Q8.90625-3.4668 9.23828-3.4668Q9.56055-3.4668 9.77051-3.67676Q9.98047-3.88672 9.98047-4.20898L9.98047-6.32812L12.0898-6.32812Q12.4219-6.32812 12.627-6.52832Q12.832-6.72852 12.832-7.05078Q12.832-7.38281 12.627-7.58789Q12.4219-7.79297 12.0898-7.79297L9.98047-7.79297L9.98047-9.90234Q9.98047-10.2344 9.77051-10.4443Q9.56055-10.6543 9.23828-10.6543Q8.90625-10.6543 8.71094-10.4443Q8.51562-10.2344 8.51562-9.90234L8.51562-7.79297L6.40625-7.79297Q6.06445-7.79297 5.85938-7.58789Q5.6543-7.38281 5.6543-7.05078Z"/>
  </g>
  <g transform="matrix(1 0 0 1 281.867 1933)">
   <path d="M11.709 2.91016Q13.75 2.91016 15.5518 2.12891Q17.3535 1.34766 18.7305-0.0292969Q20.1074-1.40625 20.8887-3.20801Q21.6699-5.00977 21.6699-7.05078Q21.6699-9.0918 20.8887-10.8936Q20.1074-12.6953 18.7305-14.0723Q17.3535-15.4492 15.5469-16.2305Q13.7402-17.0117 11.6992-17.0117Q9.6582-17.0117 7.85645-16.2305Q6.05469-15.4492 4.68262-14.0723Q3.31055-12.6953 2.5293-10.8936Q1.74805-9.0918 1.74805-7.05078Q1.74805-5.00977 2.5293-3.20801Q3.31055-1.40625 4.6875-0.0292969Q6.06445 1.34766 7.86621 2.12891Q9.66797 2.91016 11.709 2.91016ZM11.709 1.25Q9.98047 1.25 8.47656 0.605469Q6.97266-0.0390625 5.83496-1.17676Q4.69727-2.31445 4.05762-3.81836Q3.41797-5.32227 3.41797-7.05078Q3.41797-8.7793 4.05762-10.2832Q4.69727-11.7871 5.83008-12.9297Q6.96289-14.0723 8.4668-14.7119Q9.9707-15.3516 11.6992-15.3516Q13.4277-15.3516 14.9316-14.7119Q16.4355-14.0723 17.5781-12.9297Q18.7207-11.7871 19.3652-10.2832Q20.0098-8.7793 20.0098-7.05078Q20.0098-5.32227 19.3701-3.81836Q18.7305-2.31445 17.5928-1.17676Q16.4551-0.0390625 14.9463 0.605469Q13.4375 1.25 11.709 1.25ZM7.17773-7.05078Q7.17773-6.69922 7.41211-6.47461Q7.64648-6.25 8.01758-6.25L10.8887-6.25L10.8887-3.36914Q10.8887-2.99805 11.1133-2.76855Q11.3379-2.53906 11.6895-2.53906Q12.0605-2.53906 12.29-2.76855Q12.5195-2.99805 12.5195-3.36914L12.5195-6.25L15.4004-6.25Q15.7715-6.25 16.001-6.47461Q16.2305-6.69922 16.2305-7.05078Q16.2305-7.42188 16.001-7.65137Q15.7715-7.88086 15.4004-7.88086L12.5195-7.88086L12.5195-10.752Q12.5195-11.1328 12.29-11.3623Q12.0605-11.5918 11.6895-11.5918Q11.3379-11.5918 11.1133-11.3574Q10.8887-11.123 10.8887-10.752L10.8887-7.88086L8.01758-7.88086Q7.63672-7.88086 7.40723-7.65137Q7.17773-7.42188 7.17773-7.05078Z"/>
  </g>
  <g transform="matrix(1 0 0 1 305.646 1933)">
   <path d="M14.9707 5.66406Q17.0605 5.66406 18.96 5.01465Q20.8594 4.36523 22.4512 3.19336Q24.043 2.02148 25.2197 0.429688Q26.3965-1.16211 27.0459-3.06641Q27.6953-4.9707 27.6953-7.05078Q27.6953-9.14062 27.0459-11.04Q26.3965-12.9395 25.2197-14.5312Q24.043-16.123 22.4512-17.2998Q20.8594-18.4766 18.9551-19.126Q17.0508-19.7754 14.9609-19.7754Q12.8711-19.7754 10.9717-19.126Q9.07227-18.4766 7.48535-17.2998Q5.89844-16.123 4.72168-14.5312Q3.54492-12.9395 2.90039-11.04Q2.25586-9.14062 2.25586-7.05078Q2.25586-4.9707 2.90527-3.06641Q3.55469-1.16211 4.72656 0.429688Q5.89844 2.02148 7.49023 3.19336Q9.08203 4.36523 10.9814 5.01465Q12.8809 5.66406 14.9707 5.66406ZM14.9707 3.84766Q13.1641 3.84766 11.5283 3.2959Q9.89258 2.74414 8.53516 1.74805Q7.17773 0.751953 6.17676-0.610352Q5.17578-1.97266 4.62891-3.6084Q4.08203-5.24414 4.08203-7.05078Q4.08203-8.86719 4.62891-10.5029Q5.17578-12.1387 6.17188-13.501Q7.16797-14.8633 8.52539-15.8594Q9.88281-16.8555 11.5186-17.4023Q13.1543-17.9492 14.9609-17.9492Q16.7773-17.9492 18.4131-17.4023Q20.0488-16.8555 21.4111-15.8594Q22.7734-14.8633 23.7695-13.501Q24.7656-12.1387 25.3174-10.5029Q25.8691-8.86719 25.8691-7.05078Q25.8789-5.24414 25.332-3.6084Q24.7852-1.97266 23.7842-0.610352Q22.7832 0.751953 21.4209 1.74805Q20.0586 2.74414 18.4229 3.2959Q16.7871 3.84766 14.9707 3.84766ZM9.19922-7.05078Q9.19922-6.66992 9.45801-6.4209Q9.7168-6.17188 10.1172-6.17188L14.0625-6.17188L14.0625-2.2168Q14.0625-1.81641 14.3115-1.55762Q14.5605-1.29883 14.9512-1.29883Q15.3516-1.29883 15.6104-1.55273Q15.8691-1.80664 15.8691-2.2168L15.8691-6.17188L19.8242-6.17188Q20.2246-6.17188 20.4785-6.4209Q20.7324-6.66992 20.7324-7.05078Q20.7324-7.46094 20.4785-7.71484Q20.2246-7.96875 19.8242-7.96875L15.8691-7.96875L15.8691-11.9141Q15.8691-12.3242 15.6104-12.583Q15.3516-12.8418 14.9512-12.8418Q14.5605-12.8418 14.3115-12.583Q14.0625-12.3242 14.0625-11.9141L14.0625-7.96875L10.1172-7.96875Q9.70703-7.96875 9.45312-7.71484Q9.19922-7.46094 9.19922-7.05078Z"/>
  </g>
  <text style="stroke:none;fill:black;font-family:sans-serif;font-size:13;font-weight:bold;" transform="matrix(1 0 0 1 263 1953)">Design Variations</text>
  <text style="stroke:none;fill:black;font-family:sans-serif;font-size:13;" transform="matrix(1 0 0 1 263 1971)">Symbols are supported in up to nine weights and three scales.</text>
  <text style="stroke:none;fill:black;font-family:sans-serif;font-size:13;" transform="matrix(1 0 0 1 263 1989)">For optimal layout with text and other symbols, vertically align</text>
  <text style="stroke:none;fill:black;font-family:sans-serif;font-size:13;" transform="matrix(1 0 0 1 263 2007)">symbols with the adjacent text.</text>
  <line style="fill:none;stroke:#00AEEF;stroke-width:0.5;opacity:1.0;" x1="776" x2="776" y1="1919" y2="1933"/>
  <g transform="matrix(1 0 0 1 776 1933)">
   <path d="M3.31055 0.15625Q3.70117 0.15625 3.91602-0.00976562Q4.13086-0.175781 4.26758-0.585938L5.52734-4.0332L11.2891-4.0332L12.5488-0.585938Q12.6855-0.175781 12.9004-0.00976562Q13.1152 0.15625 13.4961 0.15625Q13.8867 0.15625 14.1162-0.0585938Q14.3457-0.273438 14.3457-0.644531Q14.3457-0.869141 14.2383-1.17188L9.6582-13.3691Q9.48242-13.8184 9.17969-14.043Q8.87695-14.2676 8.4082-14.2676Q7.5-14.2676 7.17773-13.3789L2.59766-1.16211Q2.49023-0.859375 2.49023-0.634766Q2.49023-0.263672 2.70996-0.0537109Q2.92969 0.15625 3.31055 0.15625ZM6.00586-5.51758L8.37891-12.0898L8.42773-12.0898L10.8008-5.51758Z"/>
  </g>
  <line style="fill:none;stroke:#00AEEF;stroke-width:0.5;opacity:1.0;" x1="793.197" x2="793.197" y1="1919" y2="1933"/>
  <text style="stroke:none;fill:black;font-family:sans-serif;font-size:13;font-weight:bold;" transform="matrix(1 0 0 1 776 1953)">Margins</text>
  <text style="stroke:none;fill:black;font-family:sans-serif;font-size:13;" transform="matrix(1 0 0 1 776 1971)">Leading and trailing margins on the left and right side of each symbol</text>
  <text style="stroke:none;fill:black;font-family:sans-serif;font-size:13;" transform="matrix(1 0 0 1 776 1989)">can be adjusted by modifying the x-location of the margin guidelines.</text>
  <text style="stroke:none;fill:black;font-family:sans-serif;font-size:13;" transform="matrix(1 0 0 1 776 2007)">Modifications are automatically applied proportionally to all</text>
  <text style="stroke:none;fill:black;font-family:sans-serif;font-size:13;" transform="matrix(1 0 0 1 776 2025)">scales and weights.</text>
  <g transform="matrix(1 0 0 1 1289 1933)">
   <path d="M2.8418 1.86523L4.54102 3.57422Q5.18555 4.22852 5.90332 4.17969Q6.62109 4.13086 7.31445 3.35938L18.0078-8.42773L17.041-9.4043L6.42578 2.27539Q6.16211 2.57812 5.89355 2.61719Q5.625 2.65625 5.27344 2.30469L4.10156 1.14258Q3.75 0.791016 3.79395 0.522461Q3.83789 0.253906 4.14062-0.0195312L15.6152-10.8203L14.6387-11.7871L3.04688-0.898438Q2.30469-0.214844 2.25098 0.498047Q2.19727 1.21094 2.8418 1.86523ZM9.25781-16.3281Q8.94531-16.0254 8.90625-15.6348Q8.86719-15.2441 9.04297-14.9512Q9.21875-14.6777 9.55566-14.541Q9.89258-14.4043 10.3809-14.5215Q11.4746-14.7754 12.5977-14.7314Q13.7207-14.6875 14.7949-13.9844L14.209-12.5293Q13.9551-11.9043 14.0674-11.4404Q14.1797-10.9766 14.5801-10.5664L16.875-8.25195Q17.2363-7.88086 17.5781-7.82227Q17.9199-7.76367 18.3398-7.8418L19.4043-8.03711L20.0684-7.36328L20.0293-6.80664Q20-6.43555 20.1221-6.12305Q20.2441-5.81055 20.6055-5.44922L21.3672-4.70703Q21.7285-4.3457 22.1533-4.33105Q22.5781-4.31641 22.9297-4.66797L25.8398-7.58789Q26.1914-7.93945 26.1816-8.35449Q26.1719-8.76953 25.8105-9.13086L25.0391-9.89258Q24.6875-10.2539 24.3799-10.3857Q24.0723-10.5176 23.7109-10.4883L23.1348-10.4395L22.4902-11.0742L22.7344-12.1973Q22.832-12.6172 22.6953-12.9834Q22.5586-13.3496 22.1191-13.7891L19.9219-15.9766Q18.6719-17.2168 17.2607-17.8369Q15.8496-18.457 14.4189-18.4814Q12.9883-18.5059 11.665-17.959Q10.3418-17.4121 9.25781-16.3281ZM10.752-15.957Q11.6602-16.6211 12.7002-16.9043Q13.7402-17.1875 14.8047-17.085Q15.8691-16.9824 16.8701-16.5137Q17.8711-16.0449 18.7012-15.2051L21.1328-12.793Q21.3086-12.6172 21.3525-12.4512Q21.3965-12.2852 21.3379-12.0312L21.0156-10.5469L22.5195-9.0625L23.5059-9.12109Q23.6914-9.13086 23.7891-9.09668Q23.8867-9.0625 24.0332-8.91602L24.6094-8.33984L22.168-5.89844L21.5918-6.47461Q21.4453-6.62109 21.4062-6.71875Q21.3672-6.81641 21.377-7.01172L21.4453-7.98828L19.9512-9.47266L18.4277-9.21875Q18.1836-9.16992 18.042-9.2041Q17.9004-9.23828 17.7148-9.41406L15.7129-11.416Q15.5176-11.5918 15.4932-11.7529Q15.4688-11.9141 15.5859-12.1875L16.4648-14.2773Q15.293-15.3711 13.8281-15.791Q12.3633-16.2109 10.8398-15.7617Q10.7227-15.7324 10.6885-15.8057Q10.6543-15.8789 10.752-15.957Z"/>
  </g>
  <text style="stroke:none;fill:black;font-family:sans-serif;font-size:13;font-weight:bold;" transform="matrix(1 0 0 1 1289 1953)">Exporting</text>
  <text style="stroke:none;fill:black;font-family:sans-serif;font-size:13;" transform="matrix(1 0 0 1 1289 1971)">Symbols should be outlined when exporting to ensure the</text>
  <text style="stroke:none;fill:black;font-family:sans-serif;font-size:13;" transform="matrix(1 0 0 1 1289 1989)">design is preserved when submitting to Xcode.</text>
  <text id="template-version" style="stroke:none;fill:black;font-family:sans-serif;font-size:13;text-anchor:end;" transform="matrix(1 0 0 1 3036 1933)">Template v.3.0</text>
  <text style="stroke:none;fill:black;font-family:sans-serif;font-size:13;text-anchor:end;" transform="matrix(1 0 0 1 3036 1951)">Requires Xcode 13 or greater</text>
  <text id="descriptive-name" style="stroke:none;fill:black;font-family:sans-serif;font-size:13;text-anchor:end;" transform="matrix(1 0 0 1 3036 1969)">Generated from monitor</text>
  <text style="stroke:none;fill:black;font-family:sans-serif;font-size:13;text-anchor:end;" transform="matrix(1 0 0 1 3036 1987)">Typeset at 100 points</text>
  <text style="stroke:none;fill:black;font-family:sans-serif;font-size:13;" transform="matrix(1 0 0 1 263 726)">Small</text>
  <text style="stroke:none;fill:black;font-family:sans-serif;font-size:13;" transform="matrix(1 0 0 1 263 1156)">Medium</text>
  <text style="stroke:none;fill:black;font-family:sans-serif;font-size:13;" transform="matrix(1 0 0 1 263 1586)">Large</text>
 </g>
 <g id="Guides">
  <g id="H-reference" style="fill:#27AAE1;stroke:none;" transform="matrix(1 0 0 1 339 696)">
   <path d="M0.976562 0L3.66211 0L29.3457-67.1387L30.0293-67.1387L30.0293-70.459L28.125-70.459ZM11.6699-24.4629L46.9727-24.4629L46.2402-26.709L12.4512-26.709ZM55.127 0L57.7637 0L30.6152-70.459L29.4434-70.459L29.4434-67.1387Z"/>
  </g>
  <line id="Baseline-S" style="fill:none;stroke:#27AAE1;opacity:1;stroke-width:0.5;" x1="263" x2="3036" y1="696" y2="696"/>
  <line id="Capline-S" style="fill:none;stroke:#27AAE1;opacity:1;stroke-width:0.5;" x1="263" x2="3036" y1="625.541" y2="625.541"/>
  <g id="H-reference" style="fill:#27AAE1;stroke:none;" transform="matrix(1 0 0 1 339 1126)">
   <path d="M0.976562 0L3.66211 0L29.3457-67.1387L30.0293-67.1387L30.0293-70.459L28.125-70.459ZM11.6699-24.4629L46.9727-24.4629L46.2402-26.709L12.4512-26.709ZM55.127 0L57.7637 0L30.6152-70.459L29.4434-70.459L29.4434-67.1387Z"/>
  </g>
  <line id="Baseline-M" style="fill:none;stroke:#27AAE1;opacity:1;stroke-width:0.5;" x1="263" x2="3036" y1="1126" y2="1126"/>
  <line id="Capline-M" style="fill:none;stroke:#27AAE1;opacity:1;stroke-width:0.5;" x1="263" x2="3036" y1="1055.54" y2="1055.54"/>
  <g id="H-reference" style="fill:#27AAE1;stroke:none;" transform="matrix(1 0 0 1 339 1556)">
   <path d="M0.976562 0L3.66211 0L29.3457-67.1387L30.0293-67.1387L30.0293-70.459L28.125-70.459ZM11.6699-24.4629L46.9727-24.4629L46.2402-26.709L12.4512-26.709ZM55.127 0L57.7637 0L30.6152-70.459L29.4434-70.459L29.4434-67.1387Z"/>
  </g>
  <line id="Baseline-L" style="fill:none;stroke:#27AAE1;opacity:1;stroke-width:0.5;" x1="263" x2="3036" y1="1556" y2="1556"/>
  <line id="Capline-L" style="fill:none;stroke:#27AAE1;opacity:1;stroke-width:0.5;" x1="263" x2="3036" y1="1485.54" y2="1485.54"/>
  <line id="left-margin-Regular-M" style="fill:none;stroke:#00AEEF;stroke-width:0.5;opacity:1.0;" x1="1392.45" x2="1392.45" y1="1030.78" y2="1150.12"/>
  <line id="right-margin-Regular-M" style="fill:none;stroke:#00AEEF;stroke-width:0.5;opacity:1.0;" x1="1507.24" x2="1507.24" y1="1030.78" y2="1150.12"/>
 </g>
 <g id="Symbols">
  <g id="Black-L" transform="matrix(1 0 0 1 2860.15 1556)">
   <path d="M43.55 15.96C43.55 12.04 46.73 8.86 50.65 8.86L96.15 8.86C100.07 8.86 103.25 12.04 103.25 15.96C103.25 19.88 100.07 23.06 96.15 23.06L50.65 23.06C46.73 23.06 43.55 19.88 43.55 15.96ZM73.4-13.89C77.32-13.89 80.5-10.71 80.5-6.79L80.5 15.96C80.5 19.88 77.32 23.06 73.4 23.06C69.48 23.06 66.3 19.88 66.3 15.96L66.3-6.79C66.3-10.71 69.48-13.89 73.4-13.89ZM27.9-79.32C25.54-79.32 23.63-77.4 23.63-75.04L23.63-18.17C23.63-15.81 25.54-13.89 27.9-13.89L118.9-13.89C121.26-13.89 123.18-15.81 123.18-18.17L123.18-75.04C123.18-77.4 121.26-79.32 118.9-79.32L27.9-79.32ZM9.43-75.04C9.43-85.25 17.7-93.52 27.9-93.52L118.9-93.52C129.1-93.52 137.38-85.25 137.38-75.04L137.38-18.17C137.38-7.96 129.1 0.31 118.9 0.31L27.9 0.31C17.7 0.31 9.43-7.96 9.43-18.17L9.43-75.04Z"/>
  </g>
  <g id="Heavy-L" transform="matrix(1 0 0 1 2564.29 1556)">
   <path d="M43.56 15.96C43.56 12.51 46.36 9.71 49.81 9.71L95.31 9.71C98.76 9.71 101.56 12.51 101.56 15.96C101.56 19.41 98.76 22.21 95.31 22.21L49.81 22.21C46.36 22.21 43.56 19.41 43.56 15.96ZM72.56-13.04C76.01-13.04 78.81-10.24 78.81-6.79L78.81 15.96C78.81 19.41 76.01 22.21 72.56 22.21C69.11 22.21 66.31 19.41 66.31 15.96L66.31-6.79C66.31-10.24 69.11-13.04 72.56-13.04ZM27.06-80.17C24.23-80.17 21.93-77.87 21.93-75.04L21.93-18.17C21.93-15.34 24.23-13.04 27.06-13.04L118.06-13.04C120.89-13.04 123.18-15.34 123.18-18.17L123.18-75.04C123.18-77.87 120.89-80.17 118.06-80.17L27.06-80.17ZM9.43-75.04C9.43-84.78 17.32-92.67 27.06-92.67L118.06-92.67C127.79-92.67 135.68-84.78 135.68-75.04L135.68-18.17C135.68-8.43 127.79-0.54 118.06-0.54L27.06-0.54C17.32-0.54 9.43-8.43 9.43-18.17L9.43-75.04Z"/>
  </g>
  <g id="Bold-L" transform="matrix(1 0 0 1 2268.53 1556)">
   <path d="M43.56 15.96C43.56 13.03 45.93 10.66 48.86 10.66L94.36 10.66C97.28 10.66 99.66 13.03 99.66 15.96C99.66 18.89 97.28 21.26 94.36 21.26L48.86 21.26C45.93 21.26 43.56 18.89 43.56 15.96ZM71.61-12.09C74.53-12.09 76.91-9.72 76.91-6.79L76.91 15.96C76.91 18.89 74.53 21.26 71.61 21.26C68.68 21.26 66.31 18.89 66.31 15.96L66.31-6.79C66.31-9.72 68.68-12.09 71.61-12.09ZM26.11-81.12C22.75-81.12 20.03-78.4 20.03-75.04L20.03-18.17C20.03-14.81 22.75-12.09 26.11-12.09L117.11-12.09C120.46-12.09 123.18-14.81 123.18-18.17L123.18-75.04C123.18-78.4 120.46-81.12 117.11-81.12L26.11-81.12ZM9.43-75.04C9.43-84.25 16.9-91.72 26.11-91.72L117.11-91.72C126.31-91.72 133.78-84.25 133.78-75.04L133.78-18.17C133.78-8.96 126.31-1.49 117.11-1.49L26.11-1.49C16.9-1.49 9.43-8.96 9.43-18.17L9.43-75.04Z"/>
  </g>
  <g id="Semibold-L" transform="matrix(1 0 0 1 1972.47 1556)">
   <path d="M43.55 15.96C43.55 13.39 45.63 11.31 48.2 11.31L93.7 11.31C96.27 11.31 98.35 13.39 98.35 15.96C98.35 18.53 96.27 20.61 93.7 20.61L48.2 20.61C45.63 20.61 43.55 18.53 43.55 15.96ZM70.95-11.44C73.52-11.44 75.6-9.36 75.6-6.79L75.6 15.96C75.6 18.53 73.52 20.61 70.95 20.61C68.38 20.61 66.3 18.53 66.3 15.96L66.3-6.79C66.3-9.36 68.38-11.44 70.95-11.44ZM25.45-81.77C21.74-81.77 18.73-78.76 18.73-75.04L18.73-18.17C18.73-14.45 21.74-11.44 25.45-11.44L116.45-11.44C120.16-11.44 123.18-14.45 123.18-18.17L123.18-75.04C123.18-78.76 120.16-81.77 116.45-81.77L25.45-81.77ZM9.43-75.04C9.43-83.89 16.6-91.07 25.45-91.07L116.45-91.07C125.3-91.07 132.48-83.89 132.48-75.04L132.48-18.17C132.48-9.32 125.3-2.14 116.45-2.14L25.45-2.14C16.6-2.14 9.43-9.32 9.43-18.17L9.43-75.04Z"/>
  </g>
  <g id="Medium-L" transform="matrix(1 0 0 1 1676.26 1556)">
   <path d="M43.55 15.96C43.55 13.67 45.41 11.81 47.7 11.81L93.2 11.81C95.49 11.81 97.35 13.67 97.35 15.96C97.35 18.25 95.49 20.11 93.2 20.11L47.7 20.11C45.41 20.11 43.55 18.25 43.55 15.96ZM70.45-10.94C72.74-10.94 74.6-9.08 74.6-6.79L74.6 15.96C74.6 18.25 72.74 20.11 70.45 20.11C68.16 20.11 66.3 18.25 66.3 15.96L66.3-6.79C66.3-9.08 68.16-10.94 70.45-10.94ZM24.95-82.27C20.96-82.27 17.73-79.03 17.73-75.04L17.73-18.17C17.73-14.18 20.96-10.94 24.95-10.94L115.95-10.94C119.94-10.94 123.18-14.18 123.18-18.17L123.18-75.04C123.18-79.03 119.94-82.27 115.95-82.27L24.95-82.27ZM9.43-75.04C9.43-83.62 16.38-90.57 24.95-90.57L115.95-90.57C124.52-90.57 131.48-83.62 131.48-75.04L131.48-18.17C131.48-9.59 124.52-2.64 115.95-2.64L24.95-2.64C16.38-2.64 9.43-9.59 9.43-18.17L9.43-75.04Z"/>
  </g>
  <g id="Regular-L" transform="matrix(1 0 0 1 1380.19 1556)">
   <path d="M43.56 15.96C43.56 14.03 45.13 12.46 47.06 12.46L92.56 12.46C94.49 12.46 96.06 14.03 96.06 15.96C96.06 17.89 94.49 19.46 92.56 19.46L47.06 19.46C45.13 19.46 43.56 17.89 43.56 15.96ZM69.81-10.29C71.74-10.29 73.31-8.72 73.31-6.79L73.31 15.96C73.31 17.89 71.74 19.46 69.81 19.46C67.88 19.46 66.31 17.89 66.31 15.96L66.31-6.79C66.31-8.72 67.88-10.29 69.81-10.29ZM24.31-82.92C19.96-82.92 16.43-79.39 16.43-75.04L16.43-18.17C16.43-13.82 19.96-10.29 24.31-10.29L115.31-10.29C119.66-10.29 123.19-13.82 123.19-18.17L123.19-75.04C123.19-79.39 119.66-82.92 115.31-82.92L24.31-82.92ZM9.43-75.04C9.43-83.26 16.09-89.92 24.31-89.92L115.31-89.92C123.53-89.92 130.19-83.26 130.19-75.04L130.19-18.17C130.19-9.95 123.53-3.29 115.31-3.29L24.31-3.29C16.09-3.29 9.43-9.95 9.43-18.17L9.43-75.04Z"/>
  </g>
  <g id="Light-L" transform="matrix(1 0 0 1 1084.28 1556)">
   <path d="M43.56 15.96C43.56 14.47 44.77 13.26 46.26 13.26L91.76 13.26C93.25 13.26 94.46 14.47 94.46 15.96C94.46 17.45 93.25 18.66 91.76 18.66L46.26 18.66C44.77 18.66 43.56 17.45 43.56 15.96ZM69.01-9.49C70.5-9.49 71.71-8.28 71.71-6.79L71.71 15.96C71.71 17.45 70.5 18.66 69.01 18.66C67.52 18.66 66.31 17.45 66.31 15.96L66.31-6.79C66.31-8.28 67.52-9.49 69.01-9.49ZM23.51-83.72C18.72-83.72 14.83-79.83 14.83-75.04L14.83-18.17C14.83-13.38 18.72-9.49 23.51-9.49L114.51-9.49C119.3-9.49 123.18-13.38 123.18-18.17L123.18-75.04C123.18-79.83 119.3-83.72 114.51-83.72L23.51-83.72ZM9.43-75.04C9.43-82.82 15.74-89.12 23.51-89.12L114.51-89.12C122.28-89.12 128.58-82.82 128.58-75.04L128.58-18.17C128.58-10.39 122.28-4.09 114.51-4.09L23.51-4.09C15.74-4.09 9.43-10.39 9.43-18.17L9.43-75.04Z"/>
  </g>
  <g id="Thin-L" transform="matrix(1 0 0 1 788.622 1556)">
   <path d="M43.555 15.96C43.555 15.05 44.293 14.31 45.205 14.31L90.705 14.31C91.616 14.31 92.355 15.05 92.355 15.96C92.355 16.87 91.616 17.61 90.705 17.61L45.205 17.61C44.293 17.61 43.555 16.87 43.555 15.96ZM67.955-8.44C68.866-8.44 69.605-7.7 69.605-6.79L69.605 15.96C69.605 16.87 68.866 17.61 67.955 17.61C67.043 17.61 66.305 16.87 66.305 15.96L66.305-6.79C66.305-7.7 67.043-8.44 67.955-8.44ZM22.455-84.77C17.084-84.77 12.73-80.41 12.73-75.04L12.73-18.17C12.73-12.8 17.084-8.44 22.455-8.44L113.455-8.44C118.826-8.44 123.18-12.8 123.18-18.17L123.18-75.04C123.18-80.41 118.826-84.77 113.455-84.77L22.455-84.77ZM9.43-75.04C9.43-82.24 15.261-88.07 22.455-88.07L113.455-88.07C120.648-88.07 126.48-82.24 126.48-75.04L126.48-18.17C126.48-10.97 120.648-5.14 113.455-5.14L22.455-5.14C15.261-5.14 9.43-10.97 9.43-18.17L9.43-75.04Z"/>
  </g>
  <g id="Ultralight-L" transform="matrix(1 0 0 1 492.461 1556)">
   <path d="M43.555 15.96C43.555 15.35 44.048 14.86 44.655 14.86L90.155 14.86C90.763 14.86 91.255 15.35 91.255 15.96C91.255 16.57 90.763 17.06 90.155 17.06L44.655 17.06C44.048 17.06 43.555 16.57 43.555 15.96ZM67.405-7.89C68.013-7.89 68.505-7.4 68.505-6.79L68.505 15.96C68.505 16.57 68.013 17.06 67.405 17.06C66.798 17.06 66.305 16.57 66.305 15.96L66.305-6.79C66.305-7.4 66.798-7.89 67.405-7.89ZM21.905-85.32C16.231-85.32 11.63-80.72 11.63-75.04L11.63-18.17C11.63-12.49 16.231-7.89 21.905-7.89L112.905-7.89C118.58-7.89 123.18-12.49 123.18-18.17L123.18-75.04C123.18-80.72 118.58-85.32 112.905-85.32L21.905-85.32ZM9.43-75.04C9.43-81.93 15.016-87.52 21.905-87.52L112.905-87.52C119.795-87.52 125.38-81.93 125.38-75.04L125.38-18.17C125.38-11.28 119.795-5.69 112.905-5.69L21.905-5.69C15.016-5.69 9.43-11.28 9.43-18.17L9.43-75.04Z"/>
  </g>
  <g id="Black-M" transform="matrix(1 0 0 1 2872.4 1126)">
   <path d="M36.2 4.93C36.2 1.01 39.38-2.17 43.3-2.17L79-2.17C82.93-2.17 86.1 1.01 86.1 4.93C86.1 8.85 82.93 12.03 79 12.03L43.3 12.03C39.38 12.03 36.2 8.85 36.2 4.93ZM61.15-20.02C65.08-20.02 68.25-16.84 68.25-12.92L68.25 4.93C68.25 8.85 65.08 12.03 61.15 12.03C57.23 12.03 54.05 8.85 54.05 4.93L54.05-12.92C54.05-16.84 57.23-20.02 61.15-20.02ZM25.45-68.29C24.45-68.29 23.63-67.48 23.63-66.47L23.63-21.84C23.63-20.83 24.45-20.02 25.45-20.02L96.85-20.02C97.86-20.02 98.68-20.83 98.68-21.84L98.68-66.47C98.68-67.48 97.86-68.29 96.85-68.29L25.45-68.29ZM9.43-66.47C9.43-75.32 16.6-82.49 25.45-82.49L96.85-82.49C105.7-82.49 112.88-75.32 112.88-66.47L112.88-21.84C112.88-12.99 105.7-5.82 96.85-5.82L25.45-5.82C16.6-5.82 9.43-12.99 9.43-21.84L9.43-66.47Z"/>
  </g>
  <g id="Heavy-M" transform="matrix(1 0 0 1 2576.54 1126)">
   <path d="M36.2 4.93C36.2 1.48 39-1.32 42.45-1.32L78.15-1.32C81.61-1.32 84.4 1.48 84.4 4.93C84.4 8.38 81.61 11.18 78.15 11.18L42.45 11.18C39 11.18 36.2 8.38 36.2 4.93ZM60.3-19.17C63.76-19.17 66.55-16.37 66.55-12.92L66.55 4.93C66.55 8.38 63.76 11.18 60.3 11.18C56.85 11.18 54.05 8.38 54.05 4.93L54.05-12.92C54.05-16.37 56.85-19.17 60.3-19.17ZM24.6-69.14C23.13-69.14 21.93-67.94 21.93-66.47L21.93-21.84C21.93-20.36 23.13-19.17 24.6-19.17L96-19.17C97.48-19.17 98.68-20.36 98.68-21.84L98.68-66.47C98.68-67.94 97.48-69.14 96-69.14L24.6-69.14ZM9.43-66.47C9.43-74.85 16.22-81.64 24.6-81.64L96-81.64C104.39-81.64 111.18-74.85 111.18-66.47L111.18-21.84C111.18-13.46 104.39-6.67 96-6.67L24.6-6.67C16.22-6.67 9.43-13.46 9.43-21.84L9.43-66.47Z"/>
  </g>
  <g id="Bold-M" transform="matrix(1 0 0 1 2280.78 1126)">
   <path d="M36.21 4.93C36.21 2.01 38.58-0.37 41.51-0.37L77.21-0.37C80.13-0.37 82.51 2.01 82.51 4.93C82.51 7.86 80.13 10.23 77.21 10.23L41.51 10.23C38.58 10.23 36.21 7.86 36.21 4.93ZM59.36-18.22C62.28-18.22 64.66-15.84 64.66-12.92L64.66 4.93C64.66 7.86 62.28 10.23 59.36 10.23C56.43 10.23 54.06 7.86 54.06 4.93L54.06-12.92C54.06-15.84 56.43-18.22 59.36-18.22ZM23.66-70.09C21.65-70.09 20.03-68.47 20.03-66.47L20.03-21.84C20.03-19.84 21.65-18.22 23.66-18.22L95.06-18.22C97.06-18.22 98.68-19.84 98.68-21.84L98.68-66.47C98.68-68.47 97.06-70.09 95.06-70.09L23.66-70.09ZM9.43-66.47C9.43-74.32 15.8-80.69 23.66-80.69L95.06-80.69C102.91-80.69 109.28-74.32 109.28-66.47L109.28-21.84C109.28-13.99 102.91-7.62 95.06-7.62L23.66-7.62C15.8-7.62 9.43-13.99 9.43-21.84L9.43-66.47Z"/>
  </g>
  <g id="Semibold-M" transform="matrix(1 0 0 1 1984.72 1126)">
   <path d="M36.2 4.93C36.2 2.37 38.28 0.28 40.85 0.28L76.55 0.28C79.12 0.28 81.2 2.37 81.2 4.93C81.2 7.5 79.12 9.58 76.55 9.58L40.85 9.58C38.28 9.58 36.2 7.5 36.2 4.93ZM58.7-17.57C61.27-17.57 63.35-15.49 63.35-12.92L63.35 4.93C63.35 7.5 61.27 9.58 58.7 9.58C56.13 9.58 54.05 7.5 54.05 4.93L54.05-12.92C54.05-15.49 56.13-17.57 58.7-17.57ZM23-70.74C20.64-70.74 18.73-68.83 18.73-66.47L18.73-21.84C18.73-19.48 20.64-17.57 23-17.57L94.4-17.57C96.76-17.57 98.68-19.48 98.68-21.84L98.68-66.47C98.68-68.83 96.76-70.74 94.4-70.74L23-70.74ZM9.43-66.47C9.43-73.96 15.5-80.04 23-80.04L94.4-80.04C101.9-80.04 107.98-73.96 107.98-66.47L107.98-21.84C107.98-14.34 101.9-8.27 94.4-8.27L23-8.27C15.5-8.27 9.43-14.34 9.43-21.84L9.43-66.47Z"/>
  </g>
  <g id="Medium-M" transform="matrix(1 0 0 1 1688.51 1126)">
   <path d="M36.2 4.93C36.2 2.64 38.06 0.78 40.35 0.78L76.05 0.78C78.34 0.78 80.2 2.64 80.2 4.93C80.2 7.23 78.34 9.08 76.05 9.08L40.35 9.08C38.06 9.08 36.2 7.23 36.2 4.93ZM58.2-17.07C60.49-17.07 62.35-15.21 62.35-12.92L62.35 4.93C62.35 7.22 60.49 9.08 58.2 9.08C55.91 9.08 54.05 7.22 54.05 4.93L54.05-12.92C54.05-15.21 55.91-17.07 58.2-17.07ZM22.5-71.24C19.86-71.24 17.73-69.1 17.73-66.47L17.73-21.84C17.73-19.2 19.86-17.07 22.5-17.07L93.9-17.07C96.54-17.07 98.68-19.2 98.68-21.84L98.68-66.47C98.68-69.1 96.54-71.24 93.9-71.24L22.5-71.24ZM9.43-66.47C9.43-73.69 15.28-79.54 22.5-79.54L93.9-79.54C101.12-79.54 106.98-73.69 106.98-66.47L106.98-21.84C106.98-14.62 101.12-8.77 93.9-8.77L22.5-8.77C15.28-8.77 9.43-14.62 9.43-21.84L9.43-66.47Z"/>
  </g>
  <g id="Regular-M" transform="matrix(1 0 0 1 1392.45 1126)">
   <path d="M36.2 4.93C36.2 3 37.77 1.43 39.7 1.43L75.4 1.43C77.33 1.43 78.9 3 78.9 4.93C78.9 6.87 77.33 8.43 75.4 8.43L39.7 8.43C37.77 8.43 36.2 6.87 36.2 4.93ZM57.55-16.42C59.48-16.42 61.05-14.85 61.05-12.92L61.05 4.93C61.05 6.87 59.48 8.43 57.55 8.43C55.62 8.43 54.05 6.87 54.05 4.93L54.05-12.92C54.05-14.85 55.62-16.42 57.55-16.42ZM21.85-71.89C18.85-71.89 16.43-69.46 16.43-66.47L16.43-21.84C16.43-18.85 18.85-16.42 21.85-16.42L93.25-16.42C96.25-16.42 98.67-18.85 98.67-21.84L98.67-66.47C98.67-69.46 96.25-71.89 93.25-71.89L21.85-71.89ZM9.43-66.47C9.43-73.33 14.99-78.89 21.85-78.89L93.25-78.89C100.11-78.89 105.67-73.33 105.67-66.47L105.67-21.84C105.67-14.98 100.11-9.42 93.25-9.42L21.85-9.42C14.99-9.42 9.43-14.98 9.43-21.84L9.43-66.47Z"/>
  </g>
  <g id="Light-M" transform="matrix(1 0 0 1 1096.53 1126)">
   <path d="M36.21 4.93C36.21 3.44 37.42 2.23 38.91 2.23L74.61 2.23C76.1 2.23 77.31 3.44 77.31 4.93C77.31 6.42 76.1 7.63 74.61 7.63L38.91 7.63C37.42 7.63 36.21 6.42 36.21 4.93ZM56.76-15.62C58.25-15.62 59.46-14.41 59.46-12.92L59.46 4.93C59.46 6.42 58.25 7.63 56.76 7.63C55.27 7.63 54.06 6.42 54.06 4.93L54.06-12.92C54.06-14.41 55.27-15.62 56.76-15.62ZM21.06-72.69C17.62-72.69 14.83-69.9 14.83-66.47L14.83-21.84C14.83-18.4 17.62-15.62 21.06-15.62L92.46-15.62C95.9-15.62 98.68-18.4 98.68-21.84L98.68-66.47C98.68-69.9 95.9-72.69 92.46-72.69L21.06-72.69ZM9.43-66.47C9.43-72.89 14.64-78.09 21.06-78.09L92.46-78.09C98.88-78.09 104.08-72.89 104.08-66.47L104.08-21.84C104.08-15.42 98.88-10.22 92.46-10.22L21.06-10.22C14.64-10.22 9.43-15.42 9.43-21.84L9.43-66.47Z"/>
  </g>
  <g id="Thin-M" transform="matrix(1 0 0 1 800.872 1126)">
   <path d="M36.205 4.93C36.205 4.02 36.944 3.28 37.855 3.28L73.555 3.28C74.466 3.28 75.205 4.02 75.205 4.93C75.205 5.84 74.466 6.58 73.555 6.58L37.855 6.58C36.944 6.58 36.205 5.84 36.205 4.93ZM55.705-14.57C56.616-14.57 57.355-13.83 57.355-12.92L57.355 4.93C57.355 5.84 56.616 6.58 55.705 6.58C54.793 6.58 54.055 5.84 54.055 4.93L54.055-12.92C54.055-13.83 54.793-14.57 55.705-14.57ZM20.005-73.74C15.987-73.74 12.73-70.48 12.73-66.47L12.73-21.84C12.73-17.82 15.987-14.57 20.005-14.57L91.405-14.57C95.422-14.57 98.68-17.82 98.68-21.84L98.68-66.47C98.68-70.48 95.422-73.74 91.405-73.74L20.005-73.74ZM9.43-66.47C9.43-72.31 14.164-77.04 20.005-77.04L91.405-77.04C97.245-77.04 101.98-72.31 101.98-66.47L101.98-21.84C101.98-16 97.245-11.27 91.405-11.27L20.005-11.27C14.164-11.27 9.43-16 9.43-21.84L9.43-66.47Z"/>
  </g>
  <g id="Ultralight-M" transform="matrix(1 0 0 1 504.711 1126)">
   <path d="M36.205 4.93C36.205 4.33 36.697 3.83 37.305 3.83L73.005 3.83C73.612 3.83 74.105 4.33 74.105 4.93C74.105 5.54 73.612 6.03 73.005 6.03L37.305 6.03C36.697 6.03 36.205 5.54 36.205 4.93ZM55.155-14.02C55.763-14.02 56.255-13.52 56.255-12.92L56.255 4.93C56.255 5.54 55.763 6.03 55.155 6.03C54.548 6.03 54.055 5.54 54.055 4.93L54.055-12.92C54.055-13.52 54.548-14.02 55.155-14.02ZM19.455-74.29C15.134-74.29 11.63-70.79 11.63-66.47L11.63-21.84C11.63-17.52 15.134-14.02 19.455-14.02L90.855-14.02C95.177-14.02 98.68-17.52 98.68-21.84L98.68-66.47C98.68-70.79 95.177-74.29 90.855-74.29L19.455-74.29ZM9.43-66.47C9.43-72 13.919-76.49 19.455-76.49L90.855-76.49C96.392-76.49 100.88-72 100.88-66.47L100.88-21.84C100.88-16.31 96.392-11.82 90.855-11.82L19.455-11.82C13.919-11.82 9.43-16.31 9.43-21.84L9.43-66.47Z"/>
  </g>
  <g id="Black-S" transform="matrix(1 0 0 1 2882.03 696)">
   <path d="M30.43-3.832C30.43-7.753 33.61-10.932 37.53-10.932L65.53-10.932C69.45-10.932 72.63-7.753 72.63-3.832C72.63 0.09 69.45 3.268 65.53 3.268L37.53 3.268C33.61 3.268 30.43 0.09 30.43-3.832ZM51.53-24.932C55.45-24.932 58.63-21.753 58.63-17.832L58.63-3.832C58.63 0.09 55.45 3.268 51.53 3.268C47.61 3.268 44.43 0.09 44.43-3.832L44.43-17.832C44.43-21.753 47.61-24.932 51.53-24.932ZM23.63-59.732L23.63-24.932L79.43-24.932L79.43-59.732L23.63-59.732ZM9.43-59.832C9.43-67.619 15.74-73.932 23.53-73.932L79.53-73.932C87.32-73.932 93.63-67.619 93.63-59.832L93.63-24.832C93.63-17.044 87.32-10.732 79.53-10.732L23.53-10.732C15.74-10.732 9.43-17.044 9.43-24.832L9.43-59.832Z"/>
  </g>
  <g id="Heavy-S" transform="matrix(1 0 0 1 2586.16 696)">
   <path d="M30.43-3.832C30.43-7.284 33.23-10.082 36.68-10.082L64.68-10.082C68.13-10.082 70.93-7.284 70.93-3.832C70.93-0.38 68.13 2.418 64.68 2.418L36.68 2.418C33.23 2.418 30.43-0.38 30.43-3.832ZM50.68-24.082C54.13-24.082 56.93-21.284 56.93-17.832L56.93-3.832C56.93-0.38 54.13 2.418 50.68 2.418C47.23 2.418 44.43-0.38 44.43-3.832L44.43-17.832C44.43-21.284 47.23-24.082 50.68-24.082ZM22.68-60.582C22.27-60.582 21.93-60.246 21.93-59.832L21.93-24.832C21.93-24.418 22.27-24.082 22.68-24.082L78.68-24.082C79.09-24.082 79.43-24.418 79.43-24.832L79.43-59.832C79.43-60.246 79.09-60.582 78.68-60.582L22.68-60.582ZM9.43-59.832C9.43-67.15 15.36-73.082 22.68-73.082L78.68-73.082C86-73.082 91.93-67.15 91.93-59.832L91.93-24.832C91.93-17.514 86-11.582 78.68-11.582L22.68-11.582C15.36-11.582 9.43-17.514 9.43-24.832L9.43-59.832Z"/>
  </g>
  <g id="Bold-S" transform="matrix(1 0 0 1 2290.4 696)">
   <path d="M30.43-3.628C30.43-6.555 32.8-8.928 35.73-8.928L63.73-8.928C66.65-8.928 69.03-6.555 69.03-3.628C69.03-0.701 66.65 1.672 63.73 1.672L35.73 1.672C32.8 1.672 30.43-0.701 30.43-3.628ZM49.73-22.928C52.65-22.928 55.03-20.555 55.03-17.628L55.03-3.628C55.03-0.701 52.65 1.672 49.73 1.672C46.8 1.672 44.43-0.701 44.43-3.628L44.43-17.628C44.43-20.555 46.8-22.928 49.73-22.928ZM21.73-61.328C20.79-61.328 20.03-60.567 20.03-59.628L20.03-24.628C20.03-23.689 20.79-22.928 21.73-22.928L77.73-22.928C78.66-22.928 79.43-23.689 79.43-24.628L79.43-59.628C79.43-60.567 78.66-61.328 77.73-61.328L21.73-61.328ZM9.43-59.628C9.43-66.421 14.93-71.928 21.73-71.928L77.73-71.928C84.52-71.928 90.03-66.421 90.03-59.628L90.03-24.628C90.03-17.835 84.52-12.328 77.73-12.328L21.73-12.328C14.93-12.328 9.43-17.835 9.43-24.628L9.43-59.628Z"/>
  </g>
  <g id="Semibold-S" transform="matrix(1 0 0 1 1994.34 696)">
   <path d="M30.43-3.627C30.43-6.195 32.51-8.277 35.08-8.277L63.08-8.277C65.65-8.277 67.73-6.195 67.73-3.627C67.73-1.059 65.65 1.023 63.08 1.023L35.08 1.023C32.51 1.023 30.43-1.059 30.43-3.627ZM49.08-22.277C51.65-22.277 53.73-20.195 53.73-17.627L53.73-3.627C53.73-1.059 51.65 1.023 49.08 1.023C46.51 1.023 44.43-1.059 44.43-3.627L44.43-17.627C44.43-20.195 46.51-22.277 49.08-22.277ZM21.08-61.977C19.78-61.977 18.73-60.925 18.73-59.627L18.73-24.627C18.73-23.329 19.78-22.277 21.08-22.277L77.08-22.277C78.38-22.277 79.43-23.329 79.43-24.627L79.43-59.627C79.43-60.925 78.38-61.977 77.08-61.977L21.08-61.977ZM9.43-59.627C9.43-66.061 14.65-71.277 21.08-71.277L77.08-71.277C83.51-71.277 88.73-66.061 88.73-59.627L88.73-24.627C88.73-18.193 83.51-12.977 77.08-12.977L21.08-12.977C14.65-12.977 9.43-18.193 9.43-24.627L9.43-59.627Z"/>
  </g>
  <g id="Medium-S" transform="matrix(1 0 0 1 1698.13 696)">
   <path d="M30.43-3.627C30.43-5.919 32.29-7.777 34.58-7.777L62.58-7.777C64.87-7.777 66.73-5.919 66.73-3.627C66.73-1.335 64.87 0.523 62.58 0.523L34.58 0.523C32.29 0.523 30.43-1.335 30.43-3.627ZM48.58-21.777C50.87-21.777 52.73-19.919 52.73-17.627L52.73-3.627C52.73-1.335 50.87 0.523 48.58 0.523C46.29 0.523 44.43-1.335 44.43-3.627L44.43-17.627C44.43-19.919 46.29-21.777 48.58-21.777ZM20.58-62.477C19.01-62.477 17.73-61.201 17.73-59.627L17.73-24.627C17.73-23.053 19.01-21.777 20.58-21.777L76.58-21.777C78.15-21.777 79.43-23.053 79.43-24.627L79.43-59.627C79.43-61.201 78.15-62.477 76.58-62.477L20.58-62.477ZM9.43-59.627C9.43-65.785 14.42-70.777 20.58-70.777L76.58-70.777C82.74-70.777 87.73-65.785 87.73-59.627L87.73-24.627C87.73-18.469 82.74-13.477 76.58-13.477L20.58-13.477C14.42-13.477 9.43-18.469 9.43-24.627L9.43-59.627Z"/>
  </g>
  <g id="Regular-S" transform="matrix(1 0 0 1 1402.07 696)">
   <path d="M30.43-3.627C30.43-5.56 32-7.127 33.93-7.127L61.93-7.127C63.86-7.127 65.43-5.56 65.43-3.627C65.43-1.694 63.86-0.127 61.93-0.127L33.93-0.127C32-0.127 30.43-1.694 30.43-3.627ZM47.93-21.127C49.86-21.127 51.43-19.56 51.43-17.627L51.43-3.627C51.43-1.694 49.86-0.127 47.93-0.127C46-0.127 44.43-1.694 44.43-3.627L44.43-17.627C44.43-19.56 46-21.127 47.93-21.127ZM19.93-63.127C18-63.127 16.43-61.56 16.43-59.627L16.43-24.627C16.43-22.694 18-21.127 19.93-21.127L75.93-21.127C77.86-21.127 79.43-22.694 79.43-24.627L79.43-59.627C79.43-61.56 77.86-63.127 75.93-63.127L19.93-63.127ZM9.43-59.627C9.43-65.426 14.13-70.127 19.93-70.127L75.93-70.127C81.73-70.127 86.43-65.426 86.43-59.627L86.43-24.627C86.43-18.828 81.73-14.127 75.93-14.127L19.93-14.127C14.13-14.127 9.43-18.828 9.43-24.627L9.43-59.627Z"/>
  </g>
  <g id="Light-S" transform="matrix(1 0 0 1 1106.16 696)">
   <path d="M30.43-3.626C30.43-5.117 31.64-6.326 33.13-6.326L61.13-6.326C62.62-6.326 63.83-5.117 63.83-3.626C63.83-2.135 62.62-0.926 61.13-0.926L33.13-0.926C31.64-0.926 30.43-2.135 30.43-3.626ZM47.13-20.326C48.62-20.326 49.83-19.117 49.83-17.626L49.83-3.626C49.83-2.135 48.62-0.926 47.13-0.926C45.64-0.926 44.43-2.135 44.43-3.626L44.43-17.626C44.43-19.117 45.64-20.326 47.13-20.326ZM19.13-63.926C16.75-63.926 14.83-62.001 14.83-59.626L14.83-24.626C14.83-22.251 16.75-20.326 19.13-20.326L75.13-20.326C77.5-20.326 79.43-22.251 79.43-24.626L79.43-59.626C79.43-62.001 77.5-63.926 75.13-63.926L19.13-63.926ZM9.43-59.626C9.43-64.983 13.77-69.326 19.13-69.326L75.13-69.326C80.49-69.326 84.83-64.983 84.83-59.626L84.83-24.626C84.83-19.269 80.49-14.926 75.13-14.926L19.13-14.926C13.77-14.926 9.43-19.269 9.43-24.626L9.43-59.626Z"/>
  </g>
  <g id="Thin-S" transform="matrix(1 0 0 1 810.497 696)">
   <path d="M30.43-3.627C30.43-4.539 31.168-5.277 32.08-5.277L60.08-5.277C60.991-5.277 61.73-4.539 61.73-3.627C61.73-2.716 60.991-1.977 60.08-1.977L32.08-1.977C31.168-1.977 30.43-2.716 30.43-3.627ZM46.08-19.277C46.991-19.277 47.73-18.539 47.73-17.627L47.73-3.627C47.73-2.716 46.991-1.977 46.08-1.977C45.168-1.977 44.43-2.716 44.43-3.627L44.43-17.627C44.43-18.539 45.168-19.277 46.08-19.277ZM18.08-64.977C15.125-64.977 12.73-62.582 12.73-59.627L12.73-24.627C12.73-21.673 15.125-19.277 18.08-19.277L74.08-19.277C77.034-19.277 79.43-21.673 79.43-24.627L79.43-59.627C79.43-62.582 77.034-64.977 74.08-64.977L18.08-64.977ZM9.43-59.627C9.43-64.405 13.302-68.277 18.08-68.277L74.08-68.277C78.857-68.277 82.73-64.405 82.73-59.627L82.73-24.627C82.73-19.85 78.857-15.977 74.08-15.977L18.08-15.977C13.302-15.977 9.43-19.85 9.43-24.627L9.43-59.627Z"/>
  </g>
  <g id="Ultralight-S" transform="matrix(1 0 0 1 514.336 696)">
   <path d="M30.43-3.627C30.43-4.234 30.923-4.727 31.53-4.727L59.53-4.727C60.138-4.727 60.63-4.234 60.63-3.627C60.63-3.019 60.138-2.527 59.53-2.527L31.53-2.527C30.923-2.527 30.43-3.019 30.43-3.627ZM45.53-18.727C46.138-18.727 46.63-18.234 46.63-17.627L46.63-3.627C46.63-3.019 46.138-2.527 45.53-2.527C44.923-2.527 44.43-3.019 44.43-3.627L44.43-17.627C44.43-18.234 44.923-18.727 45.53-18.727ZM17.53-65.527C14.272-65.527 11.63-62.885 11.63-59.627L11.63-24.627C11.63-21.368 14.272-18.727 17.53-18.727L73.53-18.727C76.789-18.727 79.43-21.368 79.43-24.627L79.43-59.627C79.43-62.885 76.789-65.527 73.53-65.527L17.53-65.527ZM9.43-59.627C9.43-64.1 13.057-67.727 17.53-67.727L73.53-67.727C78.004-67.727 81.63-64.1 81.63-59.627L81.63-24.627C81.63-20.153 78.004-16.527 73.53-16.527L17.53-16.527C13.057-16.527 9.43-20.153 9.43-24.627L9.43-59.627Z"/>
  </g>
 </g>
</svg>
