<?xml version="1.0" encoding="UTF-8"?>
<!--Generator: Apple Native CoreSVG 175-->
<!DOCTYPE svg
PUBLIC "-//W3C//DTD SVG 1.1//EN"
       "http://www.w3.org/Graphics/SVG/1.1/DTD/svg11.dtd">
<svg version="1.1" xmlns="http://www.w3.org/2000/svg" xmlns:xlink="http://www.w3.org/1999/xlink" width="3300" height="2200">
 <!--glyph: "", point size: 100.0, font version: "17.0d12e1", template writer version: "65.1"-->
 <g id="Notes">
  <rect height="2200" id="artboard" style="fill:white;opacity:1" width="3300" x="0" y="0"/>
  <line style="fill:none;stroke:black;opacity:1;stroke-width:0.5;" x1="263" x2="3036" y1="292" y2="292"/>
  <text style="stroke:none;fill:black;font-family:sans-serif;font-size:13;font-weight:bold;" transform="matrix(1 0 0 1 263 322)">Weight/Scale Variations</text>
  <text style="stroke:none;fill:black;font-family:sans-serif;font-size:13;text-anchor:middle;" transform="matrix(1 0 0 1 559.711 322)">Ultralight</text>
  <text style="stroke:none;fill:black;font-family:sans-serif;font-size:13;text-anchor:middle;" transform="matrix(1 0 0 1 856.422 322)">Thin</text>
  <text style="stroke:none;fill:black;font-family:sans-serif;font-size:13;text-anchor:middle;" transform="matrix(1 0 0 1 1153.13 322)">Light</text>
  <text style="stroke:none;fill:black;font-family:sans-serif;font-size:13;text-anchor:middle;" transform="matrix(1 0 0 1 1449.84 322)">Regular</text>
  <text style="stroke:none;fill:black;font-family:sans-serif;font-size:13;text-anchor:middle;" transform="matrix(1 0 0 1 1746.56 322)">Medium</text>
  <text style="stroke:none;fill:black;font-family:sans-serif;font-size:13;text-anchor:middle;" transform="matrix(1 0 0 1 2043.27 322)">Semibold</text>
  <text style="stroke:none;fill:black;font-family:sans-serif;font-size:13;text-anchor:middle;" transform="matrix(1 0 0 1 2339.98 322)">Bold</text>
  <text style="stroke:none;fill:black;font-family:sans-serif;font-size:13;text-anchor:middle;" transform="matrix(1 0 0 1 2636.69 322)">Heavy</text>
  <text style="stroke:none;fill:black;font-family:sans-serif;font-size:13;text-anchor:middle;" transform="matrix(1 0 0 1 2933.4 322)">Black</text>
  <line style="fill:none;stroke:black;opacity:1;stroke-width:0.5;" x1="263" x2="3036" y1="1903" y2="1903"/>
  <g transform="matrix(1 0 0 1 263 1933)">
   <path d="M9.24805 0.830078Q10.8691 0.830078 12.2949 0.214844Q13.7207-0.400391 14.8096-1.49414Q15.8984-2.58789 16.5186-4.01367Q17.1387-5.43945 17.1387-7.05078Q17.1387-8.66211 16.5186-10.0879Q15.8984-11.5137 14.8047-12.6074Q13.7109-13.7012 12.2852-14.3164Q10.8594-14.9316 9.23828-14.9316Q7.62695-14.9316 6.20117-14.3164Q4.77539-13.7012 3.69141-12.6074Q2.60742-11.5137 1.9873-10.0879Q1.36719-8.66211 1.36719-7.05078Q1.36719-5.43945 1.9873-4.01367Q2.60742-2.58789 3.69629-1.49414Q4.78516-0.400391 6.21094 0.214844Q7.63672 0.830078 9.24805 0.830078ZM9.24805-0.654297Q7.91992-0.654297 6.7627-1.14746Q5.60547-1.64062 4.73145-2.51953Q3.85742-3.39844 3.36426-4.56055Q2.87109-5.72266 2.87109-7.05078Q2.87109-8.37891 3.35938-9.54102Q3.84766-10.7031 4.72168-11.582Q5.5957-12.4609 6.75293-12.9541Q7.91016-13.4473 9.23828-13.4473Q10.5762-13.4473 11.7334-12.9541Q12.8906-12.4609 13.7695-11.582Q14.6484-10.7031 15.1465-9.54102Q15.6445-8.37891 15.6445-7.05078Q15.6445-5.72266 15.1514-4.56055Q14.6582-3.39844 13.7842-2.51953Q12.9102-1.64062 11.748-1.14746Q10.5859-0.654297 9.24805-0.654297ZM5.6543-7.05078Q5.6543-6.72852 5.85938-6.52832Q6.06445-6.32812 6.40625-6.32812L8.51562-6.32812L8.51562-4.20898Q8.51562-3.88672 8.71094-3.67676Q8.90625-3.4668 9.23828-3.4668Q9.56055-3.4668 9.77051-3.67676Q9.98047-3.88672 9.98047-4.20898L9.98047-6.32812L12.0898-6.32812Q12.4219-6.32812 12.627-6.52832Q12.832-6.72852 12.832-7.05078Q12.832-7.38281 12.627-7.58789Q12.4219-7.79297 12.0898-7.79297L9.98047-7.79297L9.98047-9.90234Q9.98047-10.2344 9.77051-10.4443Q9.56055-10.6543 9.23828-10.6543Q8.90625-10.6543 8.71094-10.4443Q8.51562-10.2344 8.51562-9.90234L8.51562-7.79297L6.40625-7.79297Q6.06445-7.79297 5.85938-7.58789Q5.6543-7.38281 5.6543-7.05078Z"/>
  </g>
  <g transform="matrix(1 0 0 1 281.867 1933)">
   <path d="M11.709 2.91016Q13.75 2.91016 15.5518 2.12891Q17.3535 1.34766 18.7305-0.0292969Q20.1074-1.40625 20.8887-3.20801Q21.6699-5.00977 21.6699-7.05078Q21.6699-9.0918 20.8887-10.8936Q20.1074-12.6953 18.7305-14.0723Q17.3535-15.4492 15.5469-16.2305Q13.7402-17.0117 11.6992-17.0117Q9.6582-17.0117 7.85645-16.2305Q6.05469-15.4492 4.68262-14.0723Q3.31055-12.6953 2.5293-10.8936Q1.74805-9.0918 1.74805-7.05078Q1.74805-5.00977 2.5293-3.20801Q3.31055-1.40625 4.6875-0.0292969Q6.06445 1.34766 7.86621 2.12891Q9.66797 2.91016 11.709 2.91016ZM11.709 1.25Q9.98047 1.25 8.47656 0.605469Q6.97266-0.0390625 5.83496-1.17676Q4.69727-2.31445 4.05762-3.81836Q3.41797-5.32227 3.41797-7.05078Q3.41797-8.7793 4.05762-10.2832Q4.69727-11.7871 5.83008-12.9297Q6.96289-14.0723 8.4668-14.7119Q9.9707-15.3516 11.6992-15.3516Q13.4277-15.3516 14.9316-14.7119Q16.4355-14.0723 17.5781-12.9297Q18.7207-11.7871 19.3652-10.2832Q20.0098-8.7793 20.0098-7.05078Q20.0098-5.32227 19.3701-3.81836Q18.7305-2.31445 17.5928-1.17676Q16.4551-0.0390625 14.9463 0.605469Q13.4375 1.25 11.709 1.25ZM7.17773-7.05078Q7.17773-6.69922 7.41211-6.47461Q7.64648-6.25 8.01758-6.25L10.8887-6.25L10.8887-3.36914Q10.8887-2.99805 11.1133-2.76855Q11.3379-2.53906 11.6895-2.53906Q12.0605-2.53906 12.29-2.76855Q12.5195-2.99805 12.5195-3.36914L12.5195-6.25L15.4004-6.25Q15.7715-6.25 16.001-6.47461Q16.2305-6.69922 16.2305-7.05078Q16.2305-7.42188 16.001-7.65137Q15.7715-7.88086 15.4004-7.88086L12.5195-7.88086L12.5195-10.752Q12.5195-11.1328 12.29-11.3623Q12.0605-11.5918 11.6895-11.5918Q11.3379-11.5918 11.1133-11.3574Q10.8887-11.123 10.8887-10.752L10.8887-7.88086L8.01758-7.88086Q7.63672-7.88086 7.40723-7.65137Q7.17773-7.42188 7.17773-7.05078Z"/>
  </g>
  <g transform="matrix(1 0 0 1 305.646 1933)">
   <path d="M14.9707 5.66406Q17.0605 5.66406 18.96 5.01465Q20.8594 4.36523 22.4512 3.19336Q24.043 2.02148 25.2197 0.429688Q26.3965-1.16211 27.0459-3.06641Q27.6953-4.9707 27.6953-7.05078Q27.6953-9.14062 27.0459-11.04Q26.3965-12.9395 25.2197-14.5312Q24.043-16.123 22.4512-17.2998Q20.8594-18.4766 18.9551-19.126Q17.0508-19.7754 14.9609-19.7754Q12.8711-19.7754 10.9717-19.126Q9.07227-18.4766 7.48535-17.2998Q5.89844-16.123 4.72168-14.5312Q3.54492-12.9395 2.90039-11.04Q2.25586-9.14062 2.25586-7.05078Q2.25586-4.9707 2.90527-3.06641Q3.55469-1.16211 4.72656 0.429688Q5.89844 2.02148 7.49023 3.19336Q9.08203 4.36523 10.9814 5.01465Q12.8809 5.66406 14.9707 5.66406ZM14.9707 3.84766Q13.1641 3.84766 11.5283 3.2959Q9.89258 2.74414 8.53516 1.74805Q7.17773 0.751953 6.17676-0.610352Q5.17578-1.97266 4.62891-3.6084Q4.08203-5.24414 4.08203-7.05078Q4.08203-8.86719 4.62891-10.5029Q5.17578-12.1387 6.17188-13.501Q7.16797-14.8633 8.52539-15.8594Q9.88281-16.8555 11.5186-17.4023Q13.1543-17.9492 14.9609-17.9492Q16.7773-17.9492 18.4131-17.4023Q20.0488-16.8555 21.4111-15.8594Q22.7734-14.8633 23.7695-13.501Q24.7656-12.1387 25.3174-10.5029Q25.8691-8.86719 25.8691-7.05078Q25.8789-5.24414 25.332-3.6084Q24.7852-1.97266 23.7842-0.610352Q22.7832 0.751953 21.4209 1.74805Q20.0586 2.74414 18.4229 3.2959Q16.7871 3.84766 14.9707 3.84766ZM9.19922-7.05078Q9.19922-6.66992 9.45801-6.4209Q9.7168-6.17188 10.1172-6.17188L14.0625-6.17188L14.0625-2.2168Q14.0625-1.81641 14.3115-1.55762Q14.5605-1.29883 14.9512-1.29883Q15.3516-1.29883 15.6104-1.55273Q15.8691-1.80664 15.8691-2.2168L15.8691-6.17188L19.8242-6.17188Q20.2246-6.17188 20.4785-6.4209Q20.7324-6.66992 20.7324-7.05078Q20.7324-7.46094 20.4785-7.71484Q20.2246-7.96875 19.8242-7.96875L15.8691-7.96875L15.8691-11.9141Q15.8691-12.3242 15.6104-12.583Q15.3516-12.8418 14.9512-12.8418Q14.5605-12.8418 14.3115-12.583Q14.0625-12.3242 14.0625-11.9141L14.0625-7.96875L10.1172-7.96875Q9.70703-7.96875 9.45312-7.71484Q9.19922-7.46094 9.19922-7.05078Z"/>
  </g>
  <text style="stroke:none;fill:black;font-family:sans-serif;font-size:13;font-weight:bold;" transform="matrix(1 0 0 1 263 1953)">Design Variations</text>
  <text style="stroke:none;fill:black;font-family:sans-serif;font-size:13;" transform="matrix(1 0 0 1 263 1971)">Symbols are supported in up to nine weights and three scales.</text>
  <text style="stroke:none;fill:black;font-family:sans-serif;font-size:13;" transform="matrix(1 0 0 1 263 1989)">For optimal layout with text and other symbols, vertically align</text>
  <text style="stroke:none;fill:black;font-family:sans-serif;font-size:13;" transform="matrix(1 0 0 1 263 2007)">symbols with the adjacent text.</text>
  <line style="fill:none;stroke:#00AEEF;stroke-width:0.5;opacity:1.0;" x1="776" x2="776" y1="1919" y2="1933"/>
  <g transform="matrix(1 0 0 1 776 1933)">
   <path d="M3.31055 0.15625Q3.70117 0.15625 3.91602-0.00976562Q4.13086-0.175781 4.26758-0.585938L5.52734-4.0332L11.2891-4.0332L12.5488-0.585938Q12.6855-0.175781 12.9004-0.00976562Q13.1152 0.15625 13.4961 0.15625Q13.8867 0.15625 14.1162-0.0585938Q14.3457-0.273438 14.3457-0.644531Q14.3457-0.869141 14.2383-1.17188L9.6582-13.3691Q9.48242-13.8184 9.17969-14.043Q8.87695-14.2676 8.4082-14.2676Q7.5-14.2676 7.17773-13.3789L2.59766-1.16211Q2.49023-0.859375 2.49023-0.634766Q2.49023-0.263672 2.70996-0.0537109Q2.92969 0.15625 3.31055 0.15625ZM6.00586-5.51758L8.37891-12.0898L8.42773-12.0898L10.8008-5.51758Z"/>
  </g>
  <line style="fill:none;stroke:#00AEEF;stroke-width:0.5;opacity:1.0;" x1="793.197" x2="793.197" y1="1919" y2="1933"/>
  <text style="stroke:none;fill:black;font-family:sans-serif;font-size:13;font-weight:bold;" transform="matrix(1 0 0 1 776 1953)">Margins</text>
  <text style="stroke:none;fill:black;font-family:sans-serif;font-size:13;" transform="matrix(1 0 0 1 776 1971)">Leading and trailing margins on the left and right side of each symbol</text>
  <text style="stroke:none;fill:black;font-family:sans-serif;font-size:13;" transform="matrix(1 0 0 1 776 1989)">can be adjusted by modifying the x-location of the margin guidelines.</text>
  <text style="stroke:none;fill:black;font-family:sans-serif;font-size:13;" transform="matrix(1 0 0 1 776 2007)">Modifications are automatically applied proportionally to all</text>
  <text style="stroke:none;fill:black;font-family:sans-serif;font-size:13;" transform="matrix(1 0 0 1 776 2025)">scales and weights.</text>
  <g transform="matrix(1 0 0 1 1289 1933)">
   <path d="M2.8418 1.86523L4.54102 3.57422Q5.18555 4.22852 5.90332 4.17969Q6.62109 4.13086 7.31445 3.35938L18.0078-8.42773L17.041-9.4043L6.42578 2.27539Q6.16211 2.57812 5.89355 2.61719Q5.625 2.65625 5.27344 2.30469L4.10156 1.14258Q3.75 0.791016 3.79395 0.522461Q3.83789 0.253906 4.14062-0.0195312L15.6152-10.8203L14.6387-11.7871L3.04688-0.898438Q2.30469-0.214844 2.25098 0.498047Q2.19727 1.21094 2.8418 1.86523ZM9.25781-16.3281Q8.94531-16.0254 8.90625-15.6348Q8.86719-15.2441 9.04297-14.9512Q9.21875-14.6777 9.55566-14.541Q9.89258-14.4043 10.3809-14.5215Q11.4746-14.7754 12.5977-14.7314Q13.7207-14.6875 14.7949-13.9844L14.209-12.5293Q13.9551-11.9043 14.0674-11.4404Q14.1797-10.9766 14.5801-10.5664L16.875-8.25195Q17.2363-7.88086 17.5781-7.82227Q17.9199-7.76367 18.3398-7.8418L19.4043-8.03711L20.0684-7.36328L20.0293-6.80664Q20-6.43555 20.1221-6.12305Q20.2441-5.81055 20.6055-5.44922L21.3672-4.70703Q21.7285-4.3457 22.1533-4.33105Q22.5781-4.31641 22.9297-4.66797L25.8398-7.58789Q26.1914-7.93945 26.1816-8.35449Q26.1719-8.76953 25.8105-9.13086L25.0391-9.89258Q24.6875-10.2539 24.3799-10.3857Q24.0723-10.5176 23.7109-10.4883L23.1348-10.4395L22.4902-11.0742L22.7344-12.1973Q22.832-12.6172 22.6953-12.9834Q22.5586-13.3496 22.1191-13.7891L19.9219-15.9766Q18.6719-17.2168 17.2607-17.8369Q15.8496-18.457 14.4189-18.4814Q12.9883-18.5059 11.665-17.959Q10.3418-17.4121 9.25781-16.3281ZM10.752-15.957Q11.6602-16.6211 12.7002-16.9043Q13.7402-17.1875 14.8047-17.085Q15.8691-16.9824 16.8701-16.5137Q17.8711-16.0449 18.7012-15.2051L21.1328-12.793Q21.3086-12.6172 21.3525-12.4512Q21.3965-12.2852 21.3379-12.0312L21.0156-10.5469L22.5195-9.0625L23.5059-9.12109Q23.6914-9.13086 23.7891-9.09668Q23.8867-9.0625 24.0332-8.91602L24.6094-8.33984L22.168-5.89844L21.5918-6.47461Q21.4453-6.62109 21.4062-6.71875Q21.3672-6.81641 21.377-7.01172L21.4453-7.98828L19.9512-9.47266L18.4277-9.21875Q18.1836-9.16992 18.042-9.2041Q17.9004-9.23828 17.7148-9.41406L15.7129-11.416Q15.5176-11.5918 15.4932-11.7529Q15.4688-11.9141 15.5859-12.1875L16.4648-14.2773Q15.293-15.3711 13.8281-15.791Q12.3633-16.2109 10.8398-15.7617Q10.7227-15.7324 10.6885-15.8057Q10.6543-15.8789 10.752-15.957Z"/>
  </g>
  <text style="stroke:none;fill:black;font-family:sans-serif;font-size:13;font-weight:bold;" transform="matrix(1 0 0 1 1289 1953)">Exporting</text>
  <text style="stroke:none;fill:black;font-family:sans-serif;font-size:13;" transform="matrix(1 0 0 1 1289 1971)">Symbols should be outlined when exporting to ensure the</text>
  <text style="stroke:none;fill:black;font-family:sans-serif;font-size:13;" transform="matrix(1 0 0 1 1289 1989)">design is preserved when submitting to Xcode.</text>
  <text id="template-version" style="stroke:none;fill:black;font-family:sans-serif;font-size:13;text-anchor:end;" transform="matrix(1 0 0 1 3036 1933)">Template v.3.0</text>
  <text style="stroke:none;fill:black;font-family:sans-serif;font-size:13;text-anchor:end;" transform="matrix(1 0 0 1 3036 1951)">Requires Xcode 13 or greater</text>
  <text id="descriptive-name" style="stroke:none;fill:black;font-family:sans-serif;font-size:13;text-anchor:end;" transform="matrix(1 0 0 1 3036 1969)">Generated from arrow-up</text>
  <text style="stroke:none;fill:black;font-family:sans-serif;font-size:13;text-anchor:end;" transform="matrix(1 0 0 1 3036 1987)">Typeset at 100 points</text>
  <text style="stroke:none;fill:black;font-family:sans-serif;font-size:13;" transform="matrix(1 0 0 1 263 726)">Small</text>
  <text style="stroke:none;fill:black;font-family:sans-serif;font-size:13;" transform="matrix(1 0 0 1 263 1156)">Medium</text>
  <text style="stroke:none;fill:black;font-family:sans-serif;font-size:13;" transform="matrix(1 0 0 1 263 1586)">Large</text>
 </g>
 <g id="Guides">
  <g id="H-reference" style="fill:#27AAE1;stroke:none;" transform="matrix(1 0 0 1 339 696)">
   <path d="M0.976562 0L3.66211 0L29.3457-67.1387L30.0293-67.1387L30.0293-70.459L28.125-70.459ZM11.6699-24.4629L46.9727-24.4629L46.2402-26.709L12.4512-26.709ZM55.127 0L57.7637 0L30.6152-70.459L29.4434-70.459L29.4434-67.1387Z"/>
  </g>
  <line id="Baseline-S" style="fill:none;stroke:#27AAE1;opacity:1;stroke-width:0.5;" x1="263" x2="3036" y1="696" y2="696"/>
  <line id="Capline-S" style="fill:none;stroke:#27AAE1;opacity:1;stroke-width:0.5;" x1="263" x2="3036" y1="625.541" y2="625.541"/>
  <g id="H-reference" style="fill:#27AAE1;stroke:none;" transform="matrix(1 0 0 1 339 1126)">
   <path d="M0.976562 0L3.66211 0L29.3457-67.1387L30.0293-67.1387L30.0293-70.459L28.125-70.459ZM11.6699-24.4629L46.9727-24.4629L46.2402-26.709L12.4512-26.709ZM55.127 0L57.7637 0L30.6152-70.459L29.4434-70.459L29.4434-67.1387Z"/>
  </g>
  <line id="Baseline-M" style="fill:none;stroke:#27AAE1;opacity:1;stroke-width:0.5;" x1="263" x2="3036" y1="1126" y2="1126"/>
  <line id="Capline-M" style="fill:none;stroke:#27AAE1;opacity:1;stroke-width:0.5;" x1="263" x2="3036" y1="1055.54" y2="1055.54"/>
  <g id="H-reference" style="fill:#27AAE1;stroke:none;" transform="matrix(1 0 0 1 339 1556)">
   <path d="M0.976562 0L3.66211 0L29.3457-67.1387L30.0293-67.1387L30.0293-70.459L28.125-70.459ZM11.6699-24.4629L46.9727-24.4629L46.2402-26.709L12.4512-26.709ZM55.127 0L57.7637 0L30.6152-70.459L29.4434-70.459L29.4434-67.1387Z"/>
  </g>
  <line id="Baseline-L" style="fill:none;stroke:#27AAE1;opacity:1;stroke-width:0.5;" x1="263" x2="3036" y1="1556" y2="1556"/>
  <line id="Capline-L" style="fill:none;stroke:#27AAE1;opacity:1;stroke-width:0.5;" x1="263" x2="3036" y1="1485.54" y2="1485.54"/>
  <line id="left-margin-Regular-M" style="fill:none;stroke:#00AEEF;stroke-width:0.5;opacity:1.0;" x1="1393.13" x2="1393.13" y1="1030.78" y2="1150.12"/>
  <line id="right-margin-Regular-M" style="fill:none;stroke:#00AEEF;stroke-width:0.5;opacity:1.0;" x1="1506.56" x2="1506.56" y1="1030.78" y2="1150.12"/>
 </g>
 <g id="Symbols">
  <g id="Black-L" transform="matrix(1 0 0 1 2864.51 1556)">
   <path d="M69.035-83.52C72.955-83.52 76.135-80.34 76.135-76.42L76.135 3.2C76.135 7.12 72.955 10.3 69.035 10.3C65.115 10.3 61.935 7.12 61.935 3.2L61.935-76.42C61.935-80.34 65.115-83.52 69.035-83.52ZM64.015-81.44C66.785-84.21 71.285-84.21 74.055-81.44L113.864-41.63C116.645-38.86 116.645-34.36 113.864-31.59C111.094-28.82 106.605-28.82 103.824-31.59L69.035-66.38L34.245-31.59C31.475-28.82 26.975-28.82 24.205-31.59C21.435-34.36 21.435-38.86 24.205-41.63L64.015-81.44Z"/>
  </g>
  <g id="Heavy-L" transform="matrix(1 0 0 1 2568.65 1556)">
   <path d="M68.195-82.51C71.645-82.51 74.445-79.71 74.445-76.26L74.445 3.36C74.445 6.81 71.645 9.61 68.195 9.61C64.745 9.61 61.945 6.81 61.945 3.36L61.945-76.26C61.945-79.71 64.745-82.51 68.195-82.51ZM63.775-80.68C66.215-83.12 70.175-83.12 72.615-80.68L112.424-40.87C114.864-38.43 114.864-34.47 112.424-32.03C109.984-29.59 106.025-29.59 103.585-32.03L68.195-67.42L32.795-32.03C30.355-29.59 26.405-29.59 23.965-32.03C21.515-34.47 21.515-38.43 23.965-40.87L63.775-80.68Z"/>
  </g>
  <g id="Bold-L" transform="matrix(1 0 0 1 2272.89 1556)">
   <path d="M67.24-81.375C70.17-81.375 72.54-79.005 72.54-76.075L72.54 3.545C72.54 6.475 70.17 8.845 67.24 8.845C64.32 8.845 61.94 6.475 61.94 3.545L61.94-76.075C61.94-79.005 64.32-81.375 67.24-81.375ZM63.5-79.825C65.57-81.895 68.92-81.895 70.99-79.825L110.801-40.015C112.87-37.945 112.87-34.585 110.801-32.515C108.73-30.445 105.381-30.445 103.31-32.515L67.24-68.585L31.18-32.515C29.11-30.445 25.75-30.445 23.68-32.515C21.61-34.585 21.61-37.945 23.68-40.015L63.5-79.825Z"/>
  </g>
  <g id="Semibold-L" transform="matrix(1 0 0 1 1976.83 1556)">
   <path d="M66.5925-80.6C69.1625-80.6 71.2425-78.52 71.2425-75.95L71.2425 3.67C71.2425 6.24 69.1625 8.32 66.5925 8.32C64.0225 8.32 61.9425 6.24 61.9425 3.67L61.9425-75.95C61.9425-78.52 64.0225-80.6 66.5925-80.6ZM63.3025-79.24C65.1225-81.06 68.0625-81.06 69.8825-79.24L109.693-39.43C111.512-37.61 111.512-34.67 109.693-32.85C107.872-31.04 104.932-31.04 103.113-32.85L66.5925-69.38L30.0725-32.85C28.2525-31.04 25.3125-31.04 23.4925-32.85C21.6725-34.67 21.6725-37.61 23.4925-39.43L63.3025-79.24Z"/>
  </g>
  <g id="Medium-L" transform="matrix(1 0 0 1 1680.62 1556)">
   <path d="M66.0925-80C68.3825-80 70.2425-78.14 70.2425-75.85L70.2425 3.77C70.2425 6.06 68.3825 7.92 66.0925 7.92C63.8025 7.92 61.9425 6.06 61.9425 3.77L61.9425-75.85C61.9425-78.14 63.8025-80 66.0925-80ZM63.1625-78.79C64.7825-80.41 67.4025-80.41 69.0225-78.79L108.842-38.97C110.463-37.35 110.463-34.73 108.842-33.11C107.223-31.48 104.592-31.48 102.973-33.11L66.0925-69.98L29.2125-33.11C27.5925-31.48 24.9625-31.48 23.3425-33.11C21.7225-34.73 21.7225-37.35 23.3425-38.97L63.1625-78.79Z"/>
  </g>
  <g id="Regular-L" transform="matrix(1 0 0 1 1384.56 1556)">
   <path d="M65.4375-79.22C67.3675-79.22 68.9375-77.65 68.9375-75.72L68.9375 3.9C68.9375 5.84 67.3675 7.4 65.4375 7.4C63.5075 7.4 61.9375 5.84 61.9375 3.9L61.9375-75.72C61.9375-77.65 63.5075-79.22 65.4375-79.22ZM62.9675-78.2C64.3275-79.56 66.5475-79.56 67.9075-78.2L107.727-38.38C109.088-37.02 109.088-34.8 107.727-33.43C106.358-32.07 104.137-32.07 102.778-33.43L65.4375-70.77L28.0975-33.43C26.7375-32.07 24.5175-32.07 23.1475-33.43C21.7875-34.8 21.7875-37.02 23.1475-38.38L62.9675-78.2Z"/>
  </g>
  <g id="Light-L" transform="matrix(1 0 0 1 1088.64 1556)">
   <path d="M64.6425-78.27C66.1325-78.27 67.3425-77.06 67.3425-75.57L67.3425 4.05C67.3425 5.54 66.1325 6.75 64.6425 6.75C63.1525 6.75 61.9425 5.54 61.9425 4.05L61.9425-75.57C61.9425-77.06 63.1525-78.27 64.6425-78.27ZM62.7325-77.48C63.7925-78.54 65.4925-78.54 66.5525-77.48L106.363-37.67C107.423-36.61 107.423-34.9 106.363-33.85C105.313-32.8 103.603-32.8 102.543-33.85L64.6425-71.75L26.7425-33.85C25.6825-32.8 23.9725-32.8 22.9225-33.85C21.8625-34.9 21.8625-36.61 22.9225-37.67L62.7325-77.48Z"/>
  </g>
  <g id="Thin-L" transform="matrix(1 0 0 1 792.985 1556)">
   <path d="M63.5905-77.01C64.5015-77.01 65.2405-76.27 65.2405-75.36L65.2405 4.26C65.2405 5.17 64.5015 5.91 63.5905 5.91C62.6785 5.91 61.9405 5.17 61.9405 4.26L61.9405-75.36C61.9405-76.27 62.6785-77.01 63.5905-77.01ZM62.4235-76.53C63.0675-77.17 64.1125-77.17 64.7565-76.53L104.57-36.72C105.214-36.07 105.214-35.03 104.57-34.38C103.925-33.74 102.881-33.74 102.236-34.38L63.5905-73.03L24.9445-34.38C24.2995-33.74 23.2555-33.74 22.6105-34.38C21.9665-35.03 21.9665-36.07 22.6105-36.72L62.4235-76.53Z"/>
  </g>
  <g id="Ultralight-L" transform="matrix(1 0 0 1 496.823 1556)">
   <path d="M63.04-76.355C63.648-76.355 64.14-75.865 64.14-75.255L64.14 4.365C64.14 4.975 63.648 5.465 63.04 5.465C62.433 5.465 61.94 4.975 61.94 4.365L61.94-75.255C61.94-75.865 62.433-76.355 63.04-76.355ZM62.263-76.035C62.692-76.465 63.389-76.465 63.818-76.035L103.632-36.225C104.061-35.795 104.061-35.095 103.632-34.665C103.201-34.235 102.506-34.235 102.075-34.665L63.04-73.705L24.006-34.665C23.576-34.235 22.88-34.235 22.45-34.665C22.02-35.095 22.02-35.795 22.45-36.225L62.263-76.035Z"/>
  </g>
  <g id="Black-M" transform="matrix(1 0 0 1 2873.09 1126)">
   <path d="M60.4625-74.95C64.3925-74.95 67.5625-71.77 67.5625-67.85L67.5625-5.37C67.5625-1.45 64.3925 1.73 60.4625 1.73C56.5425 1.73 53.3625-1.45 53.3625-5.37L53.3625-67.85C53.3625-71.77 56.5425-74.95 60.4625-74.95ZM55.4425-72.87C58.2225-75.64 62.7125-75.64 65.4825-72.87L96.7225-41.63C99.4925-38.86 99.4925-34.36 96.7225-31.59C93.9525-28.82 89.4525-28.82 86.6825-31.59L60.4625-57.81L34.2525-31.59C31.4725-28.82 26.9825-28.82 24.2125-31.59C21.4325-34.36 21.4325-38.86 24.2125-41.63L55.4425-72.87Z"/>
  </g>
  <g id="Heavy-M" transform="matrix(1 0 0 1 2577.23 1126)">
   <path d="M59.6075-73.94C63.0675-73.94 65.8575-71.14 65.8575-67.69L65.8575-5.21C65.8575-1.76 63.0675 1.04 59.6075 1.04C56.1575 1.04 53.3575-1.76 53.3575-5.21L53.3575-67.69C53.3575-71.14 56.1575-73.94 59.6075-73.94ZM55.1875-72.11C57.6275-74.55 61.5875-74.55 64.0275-72.11L95.2675-40.87C97.7075-38.43 97.7075-34.47 95.2675-32.03C92.8275-29.59 88.8675-29.59 86.4275-32.03L59.6075-58.85L32.7875-32.03C30.3475-29.59 26.3975-29.59 23.9575-32.03C21.5175-34.47 21.5175-38.43 23.9575-40.87L55.1875-72.11Z"/>
  </g>
  <g id="Bold-M" transform="matrix(1 0 0 1 2281.47 1126)">
   <path d="M58.66-72.79C61.59-72.79 63.96-70.41 63.96-67.49L63.96-5.01C63.96-2.08 61.59 0.29 58.66 0.29C55.74 0.29 53.36-2.08 53.36-5.01L53.36-67.49C53.36-70.41 55.74-72.79 58.66-72.79ZM54.92-71.23C56.99-73.3 60.34-73.3 62.41-71.23L93.65-40C95.72-37.93 95.72-34.57 93.65-32.5C91.58-30.43 88.22-30.43 86.15-32.5L58.67-59.99L31.18-32.5C29.11-30.43 25.75-30.43 23.68-32.5C21.61-34.57 21.61-37.93 23.68-40L54.92-71.23Z"/>
  </g>
  <g id="Semibold-M" transform="matrix(1 0 0 1 1985.4 1126)">
   <path d="M58.015-72.02C60.585-72.02 62.665-69.94 62.665-67.37L62.665-4.89C62.665-2.32 60.585-0.24 58.015-0.24C55.445-0.24 53.365-2.32 53.365-4.89L53.365-67.37C53.365-69.94 55.445-72.02 58.015-72.02ZM54.725-70.66C56.545-72.47 59.485-72.47 61.305-70.66L92.545-39.42C94.355-37.6 94.355-34.66 92.545-32.84C90.725-31.03 87.785-31.03 85.965-32.84L58.015-60.79L30.065-32.84C28.245-31.03 25.305-31.03 23.485-32.84C21.675-34.66 21.675-37.6 23.485-39.42L54.725-70.66Z"/>
  </g>
  <g id="Medium-M" transform="matrix(1 0 0 1 1689.2 1126)">
   <path d="M57.5125-71.42C59.8025-71.42 61.6625-69.56 61.6625-67.27L61.6625-4.79C61.6625-2.5 59.8025-0.64 57.5125-0.64C55.2225-0.64 53.3625-2.5 53.3625-4.79L53.3625-67.27C53.3625-69.56 55.2225-71.42 57.5125-71.42ZM54.5825-70.2C56.2025-71.82 58.8225-71.82 60.4425-70.2L91.6825-38.96C93.3025-37.34 93.3025-34.72 91.6825-33.1C90.0625-31.47 87.4325-31.47 85.8125-33.1L57.5125-61.4L29.2125-33.1C27.5925-31.47 24.9625-31.47 23.3425-33.1C21.7225-34.72 21.7225-37.34 23.3425-38.96L54.5825-70.2Z"/>
  </g>
  <g id="Regular-M" transform="matrix(1 0 0 1 1393.13 1126)">
   <path d="M56.865-70.65C58.795-70.65 60.365-69.08 60.365-67.15L60.365-4.67C60.365-2.74 58.795-1.17 56.865-1.17C54.935-1.17 53.365-2.74 53.365-4.67L53.365-67.15C53.365-69.08 54.935-70.65 56.865-70.65ZM54.395-69.62C55.755-70.99 57.975-70.99 59.345-69.62L90.575-38.38C91.945-37.02 91.945-34.8 90.575-33.43C89.215-32.07 86.995-32.07 85.625-33.43L56.865-62.2L28.105-33.43C26.735-32.07 24.515-32.07 23.155-33.43C21.785-34.8 21.785-37.02 23.155-38.38L54.395-69.62Z"/>
  </g>
  <g id="Light-M" transform="matrix(1 0 0 1 1097.22 1126)">
   <path d="M56.065-69.69C57.555-69.69 58.765-68.48 58.765-66.99L58.765-4.51C58.765-3.02 57.555-1.81 56.065-1.81C54.575-1.81 53.365-3.02 53.365-4.51L53.365-66.99C53.365-68.48 54.575-69.69 56.065-69.69ZM54.155-68.9C55.215-69.95 56.915-69.95 57.975-68.9L89.215-37.66C90.265-36.6 90.265-34.89 89.215-33.84C88.155-32.79 86.445-32.79 85.395-33.84L56.065-63.17L26.735-33.84C25.685-32.79 23.975-32.79 22.915-33.84C21.865-34.89 21.865-36.6 22.915-37.66L54.155-68.9Z"/>
  </g>
  <g id="Thin-M" transform="matrix(1 0 0 1 801.56 1126)">
   <path d="M55.0153-68.44C55.9262-68.44 56.6652-67.7 56.6652-66.79L56.6652-4.31C56.6652-3.4 55.9262-2.66 55.0153-2.66C54.1032-2.66 53.3653-3.4 53.3653-4.31L53.3653-66.79C53.3653-67.7 54.1032-68.44 55.0153-68.44ZM53.8482-67.95C54.4922-68.6 55.5373-68.6 56.1823-67.95L87.4193-36.72C88.0633-36.07 88.0633-35.03 87.4193-34.38C86.7753-33.74 85.7303-33.74 85.0863-34.38L55.0153-64.45L24.9442-34.38C24.3002-33.74 23.2553-33.74 22.6113-34.38C21.9663-35.03 21.9663-36.07 22.6113-36.72L53.8482-67.95Z"/>
  </g>
  <g id="Ultralight-M" transform="matrix(1 0 0 1 505.398 1126)">
   <path d="M54.4653-67.77C55.0733-67.77 55.5653-67.27 55.5653-66.67L55.5653-4.19C55.5653-3.58 55.0733-3.09 54.4653-3.09C53.8583-3.09 53.3653-3.58 53.3653-4.19L53.3653-66.67C53.3653-67.27 53.8583-67.77 54.4653-67.77ZM53.6873-67.45C54.1163-67.87 54.8133-67.87 55.2423-67.45L86.4803-36.21C86.9103-35.78 86.9103-35.08 86.4803-34.65C86.0503-34.22 85.3543-34.22 84.9243-34.65L54.4653-65.11L24.0053-34.65C23.5753-34.22 22.8793-34.22 22.4493-34.65C22.0203-35.08 22.0203-35.78 22.4493-36.21L53.6873-67.45Z"/>
  </g>
  <g id="Black-S" transform="matrix(1 0 0 1 2879.83 696)">
   <path d="M53.725-68.318C57.645-68.318 60.825-65.139 60.825-61.218L60.825-12.218C60.825-8.296 57.645-5.118 53.725-5.118C49.805-5.118 46.625-8.296 46.625-12.218L46.625-61.218C46.625-65.139 49.805-68.318 53.725-68.318ZM48.705-66.238C51.475-69.011 55.975-69.011 58.745-66.238L83.245-41.738C86.015-38.965 86.015-34.47 83.245-31.697C80.475-28.924 75.975-28.924 73.205-31.697L53.725-51.177L34.245-31.697C31.475-28.924 26.975-28.924 24.205-31.697C21.435-34.47 21.435-38.965 24.205-41.738L48.705-66.238Z"/>
  </g>
  <g id="Heavy-S" transform="matrix(1 0 0 1 2583.96 696)">
   <path d="M52.8775-67.302C56.3275-67.302 59.1275-64.504 59.1275-61.052L59.1275-12.052C59.1275-8.6 56.3275-5.802 52.8775-5.802C49.4275-5.802 46.6275-8.6 46.6275-12.052L46.6275-61.052C46.6275-64.504 49.4275-67.302 52.8775-67.302ZM48.4575-65.471C50.8975-67.912 54.8575-67.912 57.2975-65.471L81.7975-40.971C84.2375-38.531 84.2375-34.573 81.7975-32.133C79.3575-29.692 75.3975-29.692 72.9575-32.133L52.8775-52.213L32.7975-32.133C30.3575-29.692 26.3975-29.692 23.9575-32.133C21.5175-34.573 21.5175-38.531 23.9575-40.971L48.4575-65.471Z"/>
  </g>
  <g id="Bold-S" transform="matrix(1 0 0 1 2288.21 696)">
   <path d="M51.92-65.961C54.85-65.961 57.22-63.588 57.22-60.661L57.22-11.661C57.22-8.734 54.85-6.361 51.92-6.361C49-6.361 46.62-8.734 46.62-11.661L46.62-60.661C46.62-63.588 49-65.961 51.92-65.961ZM48.18-64.408C50.25-66.478 53.6-66.478 55.67-64.408L80.17-39.908C82.24-37.839 82.24-34.483 80.17-32.413C78.1-30.343 74.75-30.343 72.68-32.413L51.92-53.165L31.17-32.413C29.1-30.343 25.75-30.343 23.68-32.413C21.61-34.483 21.61-37.839 23.68-39.908L48.18-64.408Z"/>
  </g>
  <g id="Semibold-S" transform="matrix(1 0 0 1 1992.14 696)">
   <path d="M51.275-65.185C53.845-65.185 55.925-63.103 55.925-60.535L55.925-11.535C55.925-8.967 53.845-6.885 51.275-6.885C48.705-6.885 46.625-8.967 46.625-11.535L46.625-60.535C46.625-63.103 48.705-65.185 51.275-65.185ZM47.985-63.823C49.805-65.639 52.745-65.639 54.565-63.823L79.065-39.323C80.875-37.507 80.875-34.563 79.065-32.747C77.245-30.931 74.305-30.931 72.485-32.747L51.275-53.959L30.065-32.747C28.245-30.931 25.305-30.931 23.485-32.747C21.675-34.563 21.675-37.507 23.485-39.323L47.985-63.823Z"/>
  </g>
  <g id="Medium-S" transform="matrix(1 0 0 1 1695.93 696)">
   <path d="M50.78-64.5875C53.07-64.5875 54.93-62.7296 54.93-60.4375L54.93-11.4375C54.93-9.1455 53.07-7.2875 50.78-7.2875C48.49-7.2875 46.63-9.1455 46.63-11.4375L46.63-60.4375C46.63-62.7296 48.49-64.5875 50.78-64.5875ZM47.85-63.3726C49.47-64.9936 52.09-64.9936 53.71-63.3726L78.21-38.8726C79.83-37.2516 79.83-34.6245 78.21-33.0036C76.59-31.3826 73.97-31.3826 72.35-33.0036L50.78-54.5686L29.21-33.0036C27.59-31.3826 24.97-31.3826 23.35-33.0036C21.72-34.6245 21.72-37.2516 23.35-38.8726L47.85-63.3726Z"/>
  </g>
  <g id="Regular-S" transform="matrix(1 0 0 1 1399.87 696)">
   <path d="M50.125-63.8106C52.055-63.8106 53.625-62.2435 53.625-60.3106L53.625-11.3106C53.625-9.3775 52.055-7.8105 50.125-7.8105C48.195-7.8105 46.625-9.3775 46.625-11.3106L46.625-60.3106C46.625-62.2435 48.195-63.8106 50.125-63.8106ZM47.655-62.7856C49.015-64.1526 51.235-64.1526 52.595-62.7856L77.095-38.2856C78.465-36.9186 78.465-34.7026 77.095-33.3356C75.735-31.9686 73.515-31.9686 72.155-33.3356L50.125-55.3606L28.095-33.3356C26.735-31.9686 24.515-31.9686 23.155-33.3356C21.785-34.7026 21.785-36.9186 23.155-38.2856L47.655-62.7856Z"/>
  </g>
  <g id="Light-S" transform="matrix(1 0 0 1 1103.96 696)">
   <path d="M49.325-62.8544C50.815-62.8544 52.025-61.6455 52.025-60.1544L52.025-11.1544C52.025-9.6635 50.815-8.4545 49.325-8.4545C47.835-8.4545 46.625-9.6635 46.625-11.1544L46.625-60.1544C46.625-61.6455 47.835-62.8544 49.325-62.8544ZM47.415-62.0634C48.475-63.1184 50.175-63.1184 51.235-62.0634L75.735-37.5634C76.785-36.5094 76.785-34.7995 75.735-33.7455C74.675-32.6914 72.975-32.6914 71.915-33.7455L49.325-56.3364L26.735-33.7455C25.675-32.6914 23.975-32.6914 22.915-33.7455C21.865-34.7995 21.865-36.5094 22.915-37.5634L47.415-62.0634Z"/>
  </g>
  <g id="Thin-S" transform="matrix(1 0 0 1 808.297 696)">
   <path d="M48.2775-61.599C49.1885-61.599 49.9275-60.861 49.9275-59.949L49.9275-10.949C49.9275-10.038 49.1885-9.299 48.2775-9.299C47.3655-9.299 46.6275-10.038 46.6275-10.949L46.6275-59.949C46.6275-60.861 47.3655-61.599 48.2775-61.599ZM47.1105-61.116C47.7545-61.76 48.7995-61.76 49.4435-61.116L73.9435-36.616C74.5885-35.972 74.5885-34.927 73.9435-34.283C73.2995-33.638 72.2545-33.638 71.6105-34.283L48.2775-57.616L24.9435-34.283C24.2995-33.638 23.2545-33.638 22.6105-34.283C21.9665-34.927 21.9665-35.972 22.6105-36.616L47.1105-61.116Z"/>
  </g>
  <g id="Ultralight-S" transform="matrix(1 0 0 1 512.136 696)">
   <path d="M47.727-60.941C48.335-60.941 48.827-60.448 48.827-59.841L48.827-10.841C48.827-10.233 48.335-9.741 47.727-9.741C47.12-9.741 46.627-10.233 46.627-10.841L46.627-59.841C46.627-60.448 47.12-60.941 47.727-60.941ZM46.95-60.618C47.379-61.048 48.076-61.048 48.505-60.618L73.005-36.118C73.435-35.689 73.435-34.992 73.005-34.563C72.576-34.133 71.879-34.133 71.45-34.563L47.727-58.285L24.005-34.563C23.576-34.133 22.879-34.133 22.45-34.563C22.02-34.992 22.02-35.689 22.45-36.118L46.95-60.618Z"/>
  </g>
 </g>
</svg>
