<?xml version="1.0" encoding="UTF-8"?>
<!--Generator: Apple Native CoreSVG 175-->
<!DOCTYPE svg
PUBLIC "-//W3C//DTD SVG 1.1//EN"
       "http://www.w3.org/Graphics/SVG/1.1/DTD/svg11.dtd">
<svg version="1.1" xmlns="http://www.w3.org/2000/svg" xmlns:xlink="http://www.w3.org/1999/xlink" width="3300" height="2200">
 <!--glyph: "", point size: 100.0, font version: "17.0d12e1", template writer version: "65.1"-->
 <style>.hierarchical-0:secondary {fill:#4D4D4D}
.hierarchical-1:primary {fill:#212121}

.SFSymbolsPreview212121 {fill:#212121;opacity:1.0}
.SFSymbolsPreview4D4D4D {fill:#4D4D4D;opacity:1.0}
</style>
 <g id="Notes">
  <rect height="2200" id="artboard" style="fill:white;opacity:1" width="3300" x="0" y="0"/>
  <line style="fill:none;stroke:black;opacity:1;stroke-width:0.5;" x1="263" x2="3036" y1="292" y2="292"/>
  <text style="stroke:none;fill:black;font-family:sans-serif;font-size:13;font-weight:bold;" transform="matrix(1 0 0 1 263 322)">Weight/Scale Variations</text>
  <text style="stroke:none;fill:black;font-family:sans-serif;font-size:13;text-anchor:middle;" transform="matrix(1 0 0 1 559.711 322)">Ultralight</text>
  <text style="stroke:none;fill:black;font-family:sans-serif;font-size:13;text-anchor:middle;" transform="matrix(1 0 0 1 856.422 322)">Thin</text>
  <text style="stroke:none;fill:black;font-family:sans-serif;font-size:13;text-anchor:middle;" transform="matrix(1 0 0 1 1153.13 322)">Light</text>
  <text style="stroke:none;fill:black;font-family:sans-serif;font-size:13;text-anchor:middle;" transform="matrix(1 0 0 1 1449.84 322)">Regular</text>
  <text style="stroke:none;fill:black;font-family:sans-serif;font-size:13;text-anchor:middle;" transform="matrix(1 0 0 1 1746.56 322)">Medium</text>
  <text style="stroke:none;fill:black;font-family:sans-serif;font-size:13;text-anchor:middle;" transform="matrix(1 0 0 1 2043.27 322)">Semibold</text>
  <text style="stroke:none;fill:black;font-family:sans-serif;font-size:13;text-anchor:middle;" transform="matrix(1 0 0 1 2339.98 322)">Bold</text>
  <text style="stroke:none;fill:black;font-family:sans-serif;font-size:13;text-anchor:middle;" transform="matrix(1 0 0 1 2636.69 322)">Heavy</text>
  <text style="stroke:none;fill:black;font-family:sans-serif;font-size:13;text-anchor:middle;" transform="matrix(1 0 0 1 2933.4 322)">Black</text>
  <line style="fill:none;stroke:black;opacity:1;stroke-width:0.5;" x1="263" x2="3036" y1="1903" y2="1903"/>
  <g transform="matrix(1 0 0 1 263 1933)">
   <path d="M9.24805 0.830078Q10.8691 0.830078 12.2949 0.214844Q13.7207-0.400391 14.8096-1.49414Q15.8984-2.58789 16.5186-4.01367Q17.1387-5.43945 17.1387-7.05078Q17.1387-8.66211 16.5186-10.0879Q15.8984-11.5137 14.8047-12.6074Q13.7109-13.7012 12.2852-14.3164Q10.8594-14.9316 9.23828-14.9316Q7.62695-14.9316 6.20117-14.3164Q4.77539-13.7012 3.69141-12.6074Q2.60742-11.5137 1.9873-10.0879Q1.36719-8.66211 1.36719-7.05078Q1.36719-5.43945 1.9873-4.01367Q2.60742-2.58789 3.69629-1.49414Q4.78516-0.400391 6.21094 0.214844Q7.63672 0.830078 9.24805 0.830078ZM9.24805-0.654297Q7.91992-0.654297 6.7627-1.14746Q5.60547-1.64062 4.73145-2.51953Q3.85742-3.39844 3.36426-4.56055Q2.87109-5.72266 2.87109-7.05078Q2.87109-8.37891 3.35938-9.54102Q3.84766-10.7031 4.72168-11.582Q5.5957-12.4609 6.75293-12.9541Q7.91016-13.4473 9.23828-13.4473Q10.5762-13.4473 11.7334-12.9541Q12.8906-12.4609 13.7695-11.582Q14.6484-10.7031 15.1465-9.54102Q15.6445-8.37891 15.6445-7.05078Q15.6445-5.72266 15.1514-4.56055Q14.6582-3.39844 13.7842-2.51953Q12.9102-1.64062 11.748-1.14746Q10.5859-0.654297 9.24805-0.654297ZM5.6543-7.05078Q5.6543-6.72852 5.85938-6.52832Q6.06445-6.32812 6.40625-6.32812L8.51562-6.32812L8.51562-4.20898Q8.51562-3.88672 8.71094-3.67676Q8.90625-3.4668 9.23828-3.4668Q9.56055-3.4668 9.77051-3.67676Q9.98047-3.88672 9.98047-4.20898L9.98047-6.32812L12.0898-6.32812Q12.4219-6.32812 12.627-6.52832Q12.832-6.72852 12.832-7.05078Q12.832-7.38281 12.627-7.58789Q12.4219-7.79297 12.0898-7.79297L9.98047-7.79297L9.98047-9.90234Q9.98047-10.2344 9.77051-10.4443Q9.56055-10.6543 9.23828-10.6543Q8.90625-10.6543 8.71094-10.4443Q8.51562-10.2344 8.51562-9.90234L8.51562-7.79297L6.40625-7.79297Q6.06445-7.79297 5.85938-7.58789Q5.6543-7.38281 5.6543-7.05078Z"/>
  </g>
  <g transform="matrix(1 0 0 1 281.867 1933)">
   <path d="M11.709 2.91016Q13.75 2.91016 15.5518 2.12891Q17.3535 1.34766 18.7305-0.0292969Q20.1074-1.40625 20.8887-3.20801Q21.6699-5.00977 21.6699-7.05078Q21.6699-9.0918 20.8887-10.8936Q20.1074-12.6953 18.7305-14.0723Q17.3535-15.4492 15.5469-16.2305Q13.7402-17.0117 11.6992-17.0117Q9.6582-17.0117 7.85645-16.2305Q6.05469-15.4492 4.68262-14.0723Q3.31055-12.6953 2.5293-10.8936Q1.74805-9.0918 1.74805-7.05078Q1.74805-5.00977 2.5293-3.20801Q3.31055-1.40625 4.6875-0.0292969Q6.06445 1.34766 7.86621 2.12891Q9.66797 2.91016 11.709 2.91016ZM11.709 1.25Q9.98047 1.25 8.47656 0.605469Q6.97266-0.0390625 5.83496-1.17676Q4.69727-2.31445 4.05762-3.81836Q3.41797-5.32227 3.41797-7.05078Q3.41797-8.7793 4.05762-10.2832Q4.69727-11.7871 5.83008-12.9297Q6.96289-14.0723 8.4668-14.7119Q9.9707-15.3516 11.6992-15.3516Q13.4277-15.3516 14.9316-14.7119Q16.4355-14.0723 17.5781-12.9297Q18.7207-11.7871 19.3652-10.2832Q20.0098-8.7793 20.0098-7.05078Q20.0098-5.32227 19.3701-3.81836Q18.7305-2.31445 17.5928-1.17676Q16.4551-0.0390625 14.9463 0.605469Q13.4375 1.25 11.709 1.25ZM7.17773-7.05078Q7.17773-6.69922 7.41211-6.47461Q7.64648-6.25 8.01758-6.25L10.8887-6.25L10.8887-3.36914Q10.8887-2.99805 11.1133-2.76855Q11.3379-2.53906 11.6895-2.53906Q12.0605-2.53906 12.29-2.76855Q12.5195-2.99805 12.5195-3.36914L12.5195-6.25L15.4004-6.25Q15.7715-6.25 16.001-6.47461Q16.2305-6.69922 16.2305-7.05078Q16.2305-7.42188 16.001-7.65137Q15.7715-7.88086 15.4004-7.88086L12.5195-7.88086L12.5195-10.752Q12.5195-11.1328 12.29-11.3623Q12.0605-11.5918 11.6895-11.5918Q11.3379-11.5918 11.1133-11.3574Q10.8887-11.123 10.8887-10.752L10.8887-7.88086L8.01758-7.88086Q7.63672-7.88086 7.40723-7.65137Q7.17773-7.42188 7.17773-7.05078Z"/>
  </g>
  <g transform="matrix(1 0 0 1 305.646 1933)">
   <path d="M14.9707 5.66406Q17.0605 5.66406 18.96 5.01465Q20.8594 4.36523 22.4512 3.19336Q24.043 2.02148 25.2197 0.429688Q26.3965-1.16211 27.0459-3.06641Q27.6953-4.9707 27.6953-7.05078Q27.6953-9.14062 27.0459-11.04Q26.3965-12.9395 25.2197-14.5312Q24.043-16.123 22.4512-17.2998Q20.8594-18.4766 18.9551-19.126Q17.0508-19.7754 14.9609-19.7754Q12.8711-19.7754 10.9717-19.126Q9.07227-18.4766 7.48535-17.2998Q5.89844-16.123 4.72168-14.5312Q3.54492-12.9395 2.90039-11.04Q2.25586-9.14062 2.25586-7.05078Q2.25586-4.9707 2.90527-3.06641Q3.55469-1.16211 4.72656 0.429688Q5.89844 2.02148 7.49023 3.19336Q9.08203 4.36523 10.9814 5.01465Q12.8809 5.66406 14.9707 5.66406ZM14.9707 3.84766Q13.1641 3.84766 11.5283 3.2959Q9.89258 2.74414 8.53516 1.74805Q7.17773 0.751953 6.17676-0.610352Q5.17578-1.97266 4.62891-3.6084Q4.08203-5.24414 4.08203-7.05078Q4.08203-8.86719 4.62891-10.5029Q5.17578-12.1387 6.17188-13.501Q7.16797-14.8633 8.52539-15.8594Q9.88281-16.8555 11.5186-17.4023Q13.1543-17.9492 14.9609-17.9492Q16.7773-17.9492 18.4131-17.4023Q20.0488-16.8555 21.4111-15.8594Q22.7734-14.8633 23.7695-13.501Q24.7656-12.1387 25.3174-10.5029Q25.8691-8.86719 25.8691-7.05078Q25.8789-5.24414 25.332-3.6084Q24.7852-1.97266 23.7842-0.610352Q22.7832 0.751953 21.4209 1.74805Q20.0586 2.74414 18.4229 3.2959Q16.7871 3.84766 14.9707 3.84766ZM9.19922-7.05078Q9.19922-6.66992 9.45801-6.4209Q9.7168-6.17188 10.1172-6.17188L14.0625-6.17188L14.0625-2.2168Q14.0625-1.81641 14.3115-1.55762Q14.5605-1.29883 14.9512-1.29883Q15.3516-1.29883 15.6104-1.55273Q15.8691-1.80664 15.8691-2.2168L15.8691-6.17188L19.8242-6.17188Q20.2246-6.17188 20.4785-6.4209Q20.7324-6.66992 20.7324-7.05078Q20.7324-7.46094 20.4785-7.71484Q20.2246-7.96875 19.8242-7.96875L15.8691-7.96875L15.8691-11.9141Q15.8691-12.3242 15.6104-12.583Q15.3516-12.8418 14.9512-12.8418Q14.5605-12.8418 14.3115-12.583Q14.0625-12.3242 14.0625-11.9141L14.0625-7.96875L10.1172-7.96875Q9.70703-7.96875 9.45312-7.71484Q9.19922-7.46094 9.19922-7.05078Z"/>
  </g>
  <text style="stroke:none;fill:black;font-family:sans-serif;font-size:13;font-weight:bold;" transform="matrix(1 0 0 1 263 1953)">Design Variations</text>
  <text style="stroke:none;fill:black;font-family:sans-serif;font-size:13;" transform="matrix(1 0 0 1 263 1971)">Symbols are supported in up to nine weights and three scales.</text>
  <text style="stroke:none;fill:black;font-family:sans-serif;font-size:13;" transform="matrix(1 0 0 1 263 1989)">For optimal layout with text and other symbols, vertically align</text>
  <text style="stroke:none;fill:black;font-family:sans-serif;font-size:13;" transform="matrix(1 0 0 1 263 2007)">symbols with the adjacent text.</text>
  <line style="fill:none;stroke:#00AEEF;stroke-width:0.5;opacity:1.0;" x1="776" x2="776" y1="1919" y2="1933"/>
  <g transform="matrix(1 0 0 1 776 1933)">
   <path d="M3.31055 0.15625Q3.70117 0.15625 3.91602-0.00976562Q4.13086-0.175781 4.26758-0.585938L5.52734-4.0332L11.2891-4.0332L12.5488-0.585938Q12.6855-0.175781 12.9004-0.00976562Q13.1152 0.15625 13.4961 0.15625Q13.8867 0.15625 14.1162-0.0585938Q14.3457-0.273438 14.3457-0.644531Q14.3457-0.869141 14.2383-1.17188L9.6582-13.3691Q9.48242-13.8184 9.17969-14.043Q8.87695-14.2676 8.4082-14.2676Q7.5-14.2676 7.17773-13.3789L2.59766-1.16211Q2.49023-0.859375 2.49023-0.634766Q2.49023-0.263672 2.70996-0.0537109Q2.92969 0.15625 3.31055 0.15625ZM6.00586-5.51758L8.37891-12.0898L8.42773-12.0898L10.8008-5.51758Z"/>
  </g>
  <line style="fill:none;stroke:#00AEEF;stroke-width:0.5;opacity:1.0;" x1="793.197" x2="793.197" y1="1919" y2="1933"/>
  <text style="stroke:none;fill:black;font-family:sans-serif;font-size:13;font-weight:bold;" transform="matrix(1 0 0 1 776 1953)">Margins</text>
  <text style="stroke:none;fill:black;font-family:sans-serif;font-size:13;" transform="matrix(1 0 0 1 776 1971)">Leading and trailing margins on the left and right side of each symbol</text>
  <text style="stroke:none;fill:black;font-family:sans-serif;font-size:13;" transform="matrix(1 0 0 1 776 1989)">can be adjusted by modifying the x-location of the margin guidelines.</text>
  <text style="stroke:none;fill:black;font-family:sans-serif;font-size:13;" transform="matrix(1 0 0 1 776 2007)">Modifications are automatically applied proportionally to all</text>
  <text style="stroke:none;fill:black;font-family:sans-serif;font-size:13;" transform="matrix(1 0 0 1 776 2025)">scales and weights.</text>
  <g transform="matrix(1 0 0 1 1289 1933)">
   <path d="M2.8418 1.86523L4.54102 3.57422Q5.18555 4.22852 5.90332 4.17969Q6.62109 4.13086 7.31445 3.35938L18.0078-8.42773L17.041-9.4043L6.42578 2.27539Q6.16211 2.57812 5.89355 2.61719Q5.625 2.65625 5.27344 2.30469L4.10156 1.14258Q3.75 0.791016 3.79395 0.522461Q3.83789 0.253906 4.14062-0.0195312L15.6152-10.8203L14.6387-11.7871L3.04688-0.898438Q2.30469-0.214844 2.25098 0.498047Q2.19727 1.21094 2.8418 1.86523ZM9.25781-16.3281Q8.94531-16.0254 8.90625-15.6348Q8.86719-15.2441 9.04297-14.9512Q9.21875-14.6777 9.55566-14.541Q9.89258-14.4043 10.3809-14.5215Q11.4746-14.7754 12.5977-14.7314Q13.7207-14.6875 14.7949-13.9844L14.209-12.5293Q13.9551-11.9043 14.0674-11.4404Q14.1797-10.9766 14.5801-10.5664L16.875-8.25195Q17.2363-7.88086 17.5781-7.82227Q17.9199-7.76367 18.3398-7.8418L19.4043-8.03711L20.0684-7.36328L20.0293-6.80664Q20-6.43555 20.1221-6.12305Q20.2441-5.81055 20.6055-5.44922L21.3672-4.70703Q21.7285-4.3457 22.1533-4.33105Q22.5781-4.31641 22.9297-4.66797L25.8398-7.58789Q26.1914-7.93945 26.1816-8.35449Q26.1719-8.76953 25.8105-9.13086L25.0391-9.89258Q24.6875-10.2539 24.3799-10.3857Q24.0723-10.5176 23.7109-10.4883L23.1348-10.4395L22.4902-11.0742L22.7344-12.1973Q22.832-12.6172 22.6953-12.9834Q22.5586-13.3496 22.1191-13.7891L19.9219-15.9766Q18.6719-17.2168 17.2607-17.8369Q15.8496-18.457 14.4189-18.4814Q12.9883-18.5059 11.665-17.959Q10.3418-17.4121 9.25781-16.3281ZM10.752-15.957Q11.6602-16.6211 12.7002-16.9043Q13.7402-17.1875 14.8047-17.085Q15.8691-16.9824 16.8701-16.5137Q17.8711-16.0449 18.7012-15.2051L21.1328-12.793Q21.3086-12.6172 21.3525-12.4512Q21.3965-12.2852 21.3379-12.0312L21.0156-10.5469L22.5195-9.0625L23.5059-9.12109Q23.6914-9.13086 23.7891-9.09668Q23.8867-9.0625 24.0332-8.91602L24.6094-8.33984L22.168-5.89844L21.5918-6.47461Q21.4453-6.62109 21.4062-6.71875Q21.3672-6.81641 21.377-7.01172L21.4453-7.98828L19.9512-9.47266L18.4277-9.21875Q18.1836-9.16992 18.042-9.2041Q17.9004-9.23828 17.7148-9.41406L15.7129-11.416Q15.5176-11.5918 15.4932-11.7529Q15.4688-11.9141 15.5859-12.1875L16.4648-14.2773Q15.293-15.3711 13.8281-15.791Q12.3633-16.2109 10.8398-15.7617Q10.7227-15.7324 10.6885-15.8057Q10.6543-15.8789 10.752-15.957Z"/>
  </g>
  <text style="stroke:none;fill:black;font-family:sans-serif;font-size:13;font-weight:bold;" transform="matrix(1 0 0 1 1289 1953)">Exporting</text>
  <text style="stroke:none;fill:black;font-family:sans-serif;font-size:13;" transform="matrix(1 0 0 1 1289 1971)">Symbols should be outlined when exporting to ensure the</text>
  <text style="stroke:none;fill:black;font-family:sans-serif;font-size:13;" transform="matrix(1 0 0 1 1289 1989)">design is preserved when submitting to Xcode.</text>
  <text id="template-version" style="stroke:none;fill:black;font-family:sans-serif;font-size:13;text-anchor:end;" transform="matrix(1 0 0 1 3036 1933)">Template v.3.0</text>
  <text style="stroke:none;fill:black;font-family:sans-serif;font-size:13;text-anchor:end;" transform="matrix(1 0 0 1 3036 1951)">Requires Xcode 13 or greater</text>
  <text id="descriptive-name" style="stroke:none;fill:black;font-family:sans-serif;font-size:13;text-anchor:end;" transform="matrix(1 0 0 1 3036 1969)">Generated from scissors</text>
  <text style="stroke:none;fill:black;font-family:sans-serif;font-size:13;text-anchor:end;" transform="matrix(1 0 0 1 3036 1987)">Typeset at 100 points</text>
  <text style="stroke:none;fill:black;font-family:sans-serif;font-size:13;" transform="matrix(1 0 0 1 263 726)">Small</text>
  <text style="stroke:none;fill:black;font-family:sans-serif;font-size:13;" transform="matrix(1 0 0 1 263 1156)">Medium</text>
  <text style="stroke:none;fill:black;font-family:sans-serif;font-size:13;" transform="matrix(1 0 0 1 263 1586)">Large</text>
 </g>
 <g id="Guides">
  <g id="H-reference" style="fill:#27AAE1;stroke:none;" transform="matrix(1 0 0 1 339 696)">
   <path d="M0.976562 0L3.66211 0L29.3457-67.1387L30.0293-67.1387L30.0293-70.459L28.125-70.459ZM11.6699-24.4629L46.9727-24.4629L46.2402-26.709L12.4512-26.709ZM55.127 0L57.7637 0L30.6152-70.459L29.4434-70.459L29.4434-67.1387Z"/>
  </g>
  <line id="Baseline-S" style="fill:none;stroke:#27AAE1;opacity:1;stroke-width:0.5;" x1="263" x2="3036" y1="696" y2="696"/>
  <line id="Capline-S" style="fill:none;stroke:#27AAE1;opacity:1;stroke-width:0.5;" x1="263" x2="3036" y1="625.541" y2="625.541"/>
  <g id="H-reference" style="fill:#27AAE1;stroke:none;" transform="matrix(1 0 0 1 339 1126)">
   <path d="M0.976562 0L3.66211 0L29.3457-67.1387L30.0293-67.1387L30.0293-70.459L28.125-70.459ZM11.6699-24.4629L46.9727-24.4629L46.2402-26.709L12.4512-26.709ZM55.127 0L57.7637 0L30.6152-70.459L29.4434-70.459L29.4434-67.1387Z"/>
  </g>
  <line id="Baseline-M" style="fill:none;stroke:#27AAE1;opacity:1;stroke-width:0.5;" x1="263" x2="3036" y1="1126" y2="1126"/>
  <line id="Capline-M" style="fill:none;stroke:#27AAE1;opacity:1;stroke-width:0.5;" x1="263" x2="3036" y1="1055.54" y2="1055.54"/>
  <g id="H-reference" style="fill:#27AAE1;stroke:none;" transform="matrix(1 0 0 1 339 1556)">
   <path d="M0.976562 0L3.66211 0L29.3457-67.1387L30.0293-67.1387L30.0293-70.459L28.125-70.459ZM11.6699-24.4629L46.9727-24.4629L46.2402-26.709L12.4512-26.709ZM55.127 0L57.7637 0L30.6152-70.459L29.4434-70.459L29.4434-67.1387Z"/>
  </g>
  <line id="Baseline-L" style="fill:none;stroke:#27AAE1;opacity:1;stroke-width:0.5;" x1="263" x2="3036" y1="1556" y2="1556"/>
  <line id="Capline-L" style="fill:none;stroke:#27AAE1;opacity:1;stroke-width:0.5;" x1="263" x2="3036" y1="1485.54" y2="1485.54"/>
  <line id="left-margin-Regular-M" style="fill:none;stroke:#00AEEF;stroke-width:0.5;opacity:1.0;" x1="1392.79" x2="1392.79" y1="1030.78" y2="1150.12"/>
  <line id="right-margin-Regular-M" style="fill:none;stroke:#00AEEF;stroke-width:0.5;opacity:1.0;" x1="1506.9" x2="1506.9" y1="1030.78" y2="1150.12"/>
 </g>
 <g id="Symbols">
  <g id="Black-L" transform="matrix(1 0 0 1 2862.33 1556)">
   <path class="hierarchical-0:secondary SFSymbolsPreview4D4D4D" d="M81.2-26.14C83.97-28.92 88.47-28.92 91.24-26.15L122.7 5.25C125.47 8.02 125.48 12.51 122.71 15.29C119.94 18.06 115.44 18.07 112.66 15.3L81.21-16.1C78.44-18.87 78.43-23.37 81.2-26.14Z"/>
   <path class="hierarchical-1:primary SFSymbolsPreview212121" d="M13.89-69.35C13.89-82.7 24.71-93.52 38.06-93.52C51.4-93.52 62.22-82.7 62.22-69.35C62.22-56.01 51.4-45.19 38.06-45.19C24.71-45.19 13.89-56.01 13.89-69.35ZM13.89-1.1C13.89-14.45 24.71-25.27 38.06-25.27C51.4-25.27 62.22-14.45 62.22-1.1C62.22 12.24 51.4 23.06 38.06 23.06C24.71 23.06 13.89 12.24 13.89-1.1ZM122.7-85.75C125.47-82.98 125.47-78.48 122.7-75.71L55.13-8.14C52.36-5.37 47.87-5.37 45.09-8.14C42.32-10.91 42.32-15.41 45.09-18.18L112.66-85.75C115.43-88.52 119.93-88.52 122.7-85.75ZM38.06-11.07C32.55-11.07 28.09-6.61 28.09-1.1C28.09 4.4 32.55 8.86 38.06 8.86C43.56 8.86 48.02 4.4 48.02-1.1C48.02-6.61 43.56-11.07 38.06-11.07ZM38.06-79.32C32.55-79.32 28.09-74.86 28.09-69.35C28.09-63.85 32.55-59.39 38.06-59.39C43.56-59.39 48.02-63.85 48.02-69.35C48.02-74.86 43.56-79.32 38.06-79.32ZM45.09-62.32C47.87-65.09 52.36-65.09 55.13-62.32L77.2-40.25C79.97-37.48 79.97-32.98 77.2-30.21C74.43-27.44 69.93-27.44 67.16-30.21L45.09-52.28C42.32-55.05 42.32-59.55 45.09-62.32Z"/>
  </g>
  <g id="Heavy-L" transform="matrix(1 0 0 1 2566.47 1556)">
   <path class="hierarchical-0:secondary SFSymbolsPreview4D4D4D" d="M80.95-25.54C83.39-27.98 87.35-27.99 89.79-25.55L121.24 5.85C123.69 8.29 123.69 12.24 121.25 14.69C118.81 17.13 114.86 17.13 112.41 14.69L80.96-16.7C78.52-19.14 78.51-23.1 80.95-25.54Z"/>
   <path class="hierarchical-1:primary SFSymbolsPreview212121" d="M13.89-69.35C13.89-82.23 24.33-92.67 37.2-92.67C50.08-92.67 60.52-82.23 60.52-69.35C60.52-56.48 50.08-46.04 37.2-46.04C24.33-46.04 13.89-56.48 13.89-69.35ZM13.89-1.1C13.89-13.98 24.33-24.42 37.2-24.42C50.08-24.42 60.52-13.98 60.52-1.1C60.52 11.77 50.08 22.21 37.2 22.21C24.33 22.21 13.89 11.77 13.89-1.1ZM121.25-85.15C123.69-82.71 123.69-78.75 121.25-76.31L53.68-8.74C51.24-6.3 47.28-6.3 44.84-8.74C42.4-11.18 42.4-15.14 44.84-17.58L112.41-85.15C114.85-87.59 118.81-87.59 121.25-85.15ZM37.2-11.92C31.23-11.92 26.39-7.08 26.39-1.1C26.39 4.87 31.23 9.71 37.2 9.71C43.17 9.71 48.02 4.87 48.02-1.1C48.02-7.08 43.17-11.92 37.2-11.92ZM37.2-80.17C31.23-80.17 26.39-75.33 26.39-69.35C26.39-63.38 31.23-58.54 37.2-58.54C43.17-58.54 48.02-63.38 48.02-69.35C48.02-75.33 43.17-80.17 37.2-80.17ZM44.84-61.72C47.28-64.16 51.24-64.16 53.68-61.72L75.75-39.65C78.19-37.21 78.19-33.25 75.75-30.81C73.31-28.37 69.35-28.37 66.91-30.81L44.84-52.88C42.4-55.32 42.4-59.28 44.84-61.72Z"/>
  </g>
  <g id="Bold-L" transform="matrix(1 0 0 1 2270.71 1556)">
   <path class="hierarchical-0:secondary SFSymbolsPreview4D4D4D" d="M80.67-24.87C82.74-26.94 86.1-26.94 88.17-24.88L119.62 6.52C121.69 8.59 121.69 11.94 119.63 14.01C117.56 16.09 114.2 16.09 112.13 14.02L80.68-17.37C78.61-19.44 78.6-22.8 80.67-24.87Z"/>
   <path class="hierarchical-1:primary SFSymbolsPreview212121" d="M13.89-69.35C13.89-81.7 23.9-91.72 36.25-91.72C48.6-91.72 58.61-81.7 58.61-69.35C58.61-57 48.6-46.99 36.25-46.99C23.9-46.99 13.89-57 13.89-69.35ZM13.89-1.1C13.89-13.45 23.9-23.47 36.25-23.47C48.6-23.47 58.61-13.45 58.61-1.1C58.61 11.25 48.6 21.26 36.25 21.26C23.9 21.26 13.89 11.25 13.89-1.1ZM119.62-84.48C121.69-82.41 121.69-79.05 119.62-76.98L52.06-9.41C49.99-7.34 46.63-7.34 44.56-9.41C42.49-11.48 42.49-14.84 44.56-16.91L112.13-84.48C114.2-86.55 117.55-86.55 119.62-84.48ZM36.25-12.87C29.75-12.87 24.49-7.6 24.49-1.1C24.49 5.39 29.75 10.66 36.25 10.66C42.75 10.66 48.01 5.39 48.01-1.1C48.01-7.6 42.75-12.87 36.25-12.87ZM36.25-81.12C29.75-81.12 24.49-75.85 24.49-69.35C24.49-62.86 29.75-57.59 36.25-57.59C42.75-57.59 48.01-62.86 48.01-69.35C48.01-75.85 42.75-81.12 36.25-81.12ZM44.56-61.04C46.63-63.11 49.99-63.11 52.06-61.04L74.12-38.98C76.19-36.91 76.19-33.55 74.12-31.48C72.05-29.41 68.7-29.41 66.63-31.48L44.56-53.55C42.49-55.62 42.49-58.97 44.56-61.04Z"/>
  </g>
  <g id="Semibold-L" transform="matrix(1 0 0 1 1974.65 1556)">
   <path class="hierarchical-0:secondary SFSymbolsPreview4D4D4D" d="M80.49-24.41C82.3-26.23 85.25-26.23 87.06-24.42L118.52 6.98C120.33 8.79 120.34 11.74 118.52 13.56C116.71 15.37 113.76 15.38 111.94 13.56L80.49-17.83C78.68-19.65 78.67-22.59 80.49-24.41Z"/>
   <path class="hierarchical-1:primary SFSymbolsPreview212121" d="M13.89-69.35C13.89-81.35 23.61-91.07 35.61-91.07C47.6-91.07 57.32-81.35 57.32-69.35C57.32-57.36 47.6-47.64 35.61-47.64C23.61-47.64 13.89-57.36 13.89-69.35ZM13.89-1.1C13.89-13.1 23.61-22.82 35.61-22.82C47.6-22.82 57.32-13.1 57.32-1.1C57.32 10.89 47.6 20.61 35.61 20.61C23.61 20.61 13.89 10.89 13.89-1.1ZM118.52-84.02C120.33-82.2 120.33-79.26 118.52-77.44L50.95-9.87C49.13-8.06 46.19-8.06 44.37-9.87C42.56-11.69 42.56-14.63 44.37-16.45L111.94-84.02C113.76-85.83 116.7-85.83 118.52-84.02ZM35.61-13.52C28.75-13.52 23.19-7.96 23.19-1.1C23.19 5.75 28.75 11.31 35.61 11.31C42.46 11.31 48.02 5.75 48.02-1.1C48.02-7.96 42.46-13.52 35.61-13.52ZM35.61-81.77C28.75-81.77 23.19-76.21 23.19-69.35C23.19-62.5 28.75-56.94 35.61-56.94C42.46-56.94 48.02-62.5 48.02-69.35C48.02-76.21 42.46-81.77 35.61-81.77ZM44.37-60.59C46.19-62.4 49.13-62.4 50.95-60.59L73.02-38.52C74.83-36.7 74.83-33.76 73.02-31.94C71.2-30.13 68.26-30.13 66.44-31.94L44.37-54.01C42.56-55.83 42.56-58.77 44.37-60.59Z"/>
  </g>
  <g id="Medium-L" transform="matrix(1 0 0 1 1678.44 1556)">
   <path class="hierarchical-0:secondary SFSymbolsPreview4D4D4D" d="M80.34-24.06C81.96-25.68 84.59-25.68 86.21-24.06L117.66 7.33C119.28 8.95 119.29 11.58 117.67 13.2C116.05 14.82 113.42 14.83 111.8 13.21L80.35-18.19C78.72-19.81 78.72-22.43 80.34-24.06Z"/>
   <path class="hierarchical-1:primary SFSymbolsPreview212121" d="M13.89-69.35C13.89-81.07 23.39-90.57 35.11-90.57C46.82-90.57 56.32-81.07 56.32-69.35C56.32-57.64 46.82-48.14 35.11-48.14C23.39-48.14 13.89-57.64 13.89-69.35ZM13.89-1.1C13.89-12.82 23.39-22.32 35.11-22.32C46.82-22.32 56.32-12.82 56.32-1.1C56.32 10.61 46.82 20.11 35.11 20.11C23.39 20.11 13.89 10.61 13.89-1.1ZM117.66-83.66C119.28-82.04 119.28-79.42 117.66-77.8L50.1-10.23C48.48-8.61 45.85-8.61 44.23-10.23C42.61-11.85 42.61-14.48 44.23-16.1L111.8-83.66C113.42-85.29 116.04-85.29 117.66-83.66ZM35.11-14.02C27.97-14.02 22.19-8.24 22.19-1.1C22.19 6.03 27.97 11.81 35.11 11.81C42.24 11.81 48.02 6.03 48.02-1.1C48.02-8.24 42.24-14.02 35.11-14.02ZM35.11-82.27C27.97-82.27 22.19-76.49 22.19-69.35C22.19-62.22 27.97-56.44 35.11-56.44C42.24-56.44 48.02-62.22 48.02-69.35C48.02-76.49 42.24-82.27 35.11-82.27ZM44.23-60.23C45.85-61.85 48.48-61.85 50.1-60.23L72.16-38.16C73.78-36.54 73.78-33.92 72.16-32.3C70.54-30.67 67.92-30.67 66.3-32.3L44.23-54.36C42.61-55.98 42.61-58.61 44.23-60.23Z"/>
  </g>
  <g id="Regular-L" transform="matrix(1 0 0 1 1382.38 1556)">
   <path class="hierarchical-0:secondary SFSymbolsPreview4D4D4D" d="M80.15-23.6C81.52-24.97 83.73-24.97 85.1-23.6L116.55 7.79C117.92 9.16 117.92 11.37 116.56 12.74C115.19 14.11 112.98 14.11 111.61 12.75L80.16-18.65C78.79-20.01 78.79-22.23 80.15-23.6Z"/>
   <path class="hierarchical-1:primary SFSymbolsPreview212121" d="M13.89-69.35C13.89-80.71 23.1-89.92 34.46-89.92C45.81-89.92 55.02-80.71 55.02-69.35C55.02-58 45.81-48.79 34.46-48.79C23.1-48.79 13.89-58 13.89-69.35ZM13.89-1.1C13.89-12.46 23.1-21.67 34.46-21.67C45.81-21.67 55.02-12.46 55.02-1.1C55.02 10.25 45.81 19.46 34.46 19.46C23.1 19.46 13.89 10.25 13.89-1.1ZM116.55-83.2C117.92-81.84 117.92-79.62 116.55-78.25L48.99-10.69C47.62-9.32 45.4-9.32 44.04-10.69C42.67-12.05 42.67-14.27 44.04-15.64L111.61-83.2C112.97-84.57 115.19-84.57 116.55-83.2ZM34.46-14.67C26.96-14.67 20.89-8.59 20.89-1.1C20.89 6.39 26.96 12.46 34.46 12.46C41.95 12.46 48.02 6.39 48.02-1.1C48.02-8.59 41.95-14.67 34.46-14.67ZM34.46-82.92C26.96-82.92 20.89-76.84 20.89-69.35C20.89-61.86 26.96-55.79 34.46-55.79C41.95-55.79 48.02-61.86 48.02-69.35C48.02-76.84 41.95-82.92 34.46-82.92ZM44.04-59.77C45.4-61.14 47.62-61.14 48.99-59.77L71.05-37.7C72.42-36.34 72.42-34.12 71.05-32.75C69.69-31.39 67.47-31.39 66.11-32.75L44.04-54.82C42.67-56.19 42.67-58.4 44.04-59.77Z"/>
  </g>
  <g id="Light-L" transform="matrix(1 0 0 1 1086.46 1556)">
   <path class="hierarchical-0:secondary SFSymbolsPreview4D4D4D" d="M79.92-23.03C80.97-24.09 82.68-24.09 83.74-23.04L115.19 8.36C116.24 9.41 116.24 11.12 115.19 12.18C114.14 13.23 112.43 13.24 111.37 12.18L79.92-19.21C78.87-20.27 78.86-21.98 79.92-23.03Z"/>
   <path class="hierarchical-1:primary SFSymbolsPreview212121" d="M13.89-69.35C13.89-80.27 22.74-89.12 33.65-89.12C44.57-89.12 53.42-80.27 53.42-69.35C53.42-58.44 44.57-49.59 33.65-49.59C22.74-49.59 13.89-58.44 13.89-69.35ZM13.89-1.1C13.89-12.02 22.74-20.87 33.65-20.87C44.57-20.87 53.42-12.02 53.42-1.1C53.42 9.81 44.57 18.66 33.65 18.66C22.74 18.66 13.89 9.81 13.89-1.1ZM115.19-82.64C116.24-81.58 116.24-79.87 115.19-78.82L47.62-11.25C46.57-10.2 44.86-10.2 43.8-11.25C42.75-12.31 42.75-14.02 43.8-15.07L111.37-82.64C112.43-83.69 114.13-83.69 115.19-82.64ZM33.65-15.47C25.72-15.47 19.29-9.04 19.29-1.1C19.29 6.83 25.72 13.26 33.65 13.26C41.59 13.26 48.02 6.83 48.02-1.1C48.02-9.04 41.59-15.47 33.65-15.47ZM33.65-83.72C25.72-83.72 19.29-77.29 19.29-69.35C19.29-61.42 25.72-54.99 33.65-54.99C41.59-54.99 48.02-61.42 48.02-69.35C48.02-77.29 41.59-83.72 33.65-83.72ZM43.8-59.21C44.86-60.26 46.57-60.26 47.62-59.21L69.69-37.14C70.74-36.08 70.74-34.37 69.69-33.32C68.63-32.27 66.93-32.27 65.87-33.32L43.8-55.39C42.75-56.44 42.75-58.15 43.8-59.21Z"/>
  </g>
  <g id="Thin-L" transform="matrix(1 0 0 1 790.804 1556)">
   <path class="hierarchical-0:secondary SFSymbolsPreview4D4D4D" d="M79.607-22.29C80.251-22.94 81.296-22.94 81.941-22.29L113.392 9.1C114.037 9.75 114.038 10.79 113.395 11.44C112.751 12.08 111.706 12.08 111.061 11.44L79.609-19.96C78.964-20.6 78.963-21.65 79.607-22.29Z"/>
   <path class="hierarchical-1:primary SFSymbolsPreview212121" d="M13.89-69.35C13.89-79.69 22.267-88.07 32.602-88.07C42.937-88.07 51.315-79.69 51.315-69.35C51.315-59.02 42.937-50.64 32.602-50.64C22.267-50.64 13.89-59.02 13.89-69.35ZM13.89-1.1C13.89-11.44 22.267-19.82 32.602-19.82C42.937-19.82 51.315-11.44 51.315-1.1C51.315 9.23 42.937 17.61 32.602 17.61C22.267 17.61 13.89 9.23 13.89-1.1ZM113.393-81.9C114.038-81.25 114.038-80.21 113.393-79.56L45.826-12C45.182-11.35 44.137-11.35 43.493-12C42.848-12.64 42.848-13.68 43.493-14.33L111.06-81.9C111.704-82.54 112.749-82.54 113.393-81.9ZM32.602-16.52C24.09-16.52 17.19-9.62 17.19-1.1C17.19 7.41 24.09 14.31 32.602 14.31C41.114 14.31 48.015 7.41 48.015-1.1C48.015-9.62 41.114-16.52 32.602-16.52ZM32.602-84.77C24.09-84.77 17.19-77.87 17.19-69.35C17.19-60.84 24.09-53.94 32.602-53.94C41.114-53.94 48.015-60.84 48.015-69.35C48.015-77.87 41.114-84.77 32.602-84.77ZM43.493-58.46C44.137-59.11 45.182-59.11 45.826-58.46L67.893-36.4C68.538-35.75 68.538-34.71 67.893-34.06C67.249-33.42 66.204-33.42 65.56-34.06L43.493-56.13C42.848-56.77 42.848-57.82 43.493-58.46Z"/>
  </g>
  <g id="Ultralight-L" transform="matrix(1 0 0 1 494.642 1556)">
   <path class="hierarchical-0:secondary SFSymbolsPreview4D4D4D" d="M79.448-21.9C79.877-22.33 80.573-22.33 81.003-21.9L112.455 9.49C112.885 9.92 112.886 10.62 112.457 11.05C112.027 11.48 111.331 11.48 110.901 11.05L79.449-20.35C79.019-20.78 79.019-21.47 79.448-21.9Z"/>
   <path class="hierarchical-1:primary SFSymbolsPreview212121" d="M13.89-69.35C13.89-79.38 22.022-87.52 32.053-87.52C42.084-87.52 50.215-79.38 50.215-69.35C50.215-59.32 42.084-51.19 32.053-51.19C22.022-51.19 13.89-59.32 13.89-69.35ZM13.89-1.1C13.89-11.13 22.022-19.27 32.053-19.27C42.084-19.27 50.215-11.13 50.215-1.1C50.215 8.93 42.084 17.06 32.053 17.06C22.022 17.06 13.89 8.93 13.89-1.1ZM112.456-81.51C112.885-81.08 112.885-80.38 112.456-79.95L44.888-12.38C44.459-11.95 43.762-11.95 43.333-12.38C42.903-12.81 42.903-13.51 43.333-13.94L110.9-81.51C111.33-81.94 112.026-81.94 112.456-81.51ZM32.053-17.07C23.237-17.07 16.09-9.92 16.09-1.1C16.09 7.71 23.237 14.86 32.053 14.86C40.869 14.86 48.015 7.71 48.015-1.1C48.015-9.92 40.869-17.07 32.053-17.07ZM32.053-85.32C23.237-85.32 16.09-78.17 16.09-69.35C16.09-60.54 23.237-53.39 32.053-53.39C40.869-53.39 48.015-60.54 48.015-69.35C48.015-78.17 40.869-85.32 32.053-85.32ZM43.333-58.08C43.762-58.5 44.459-58.5 44.888-58.08L66.956-36.01C67.385-35.58 67.385-34.88 66.956-34.45C66.526-34.02 65.83-34.02 65.4-34.45L43.333-56.52C42.903-56.95 42.903-57.65 43.333-58.08Z"/>
  </g>
  <g id="Black-M" transform="matrix(1 0 0 1 2872.74 1126)">
   <path class="hierarchical-0:secondary SFSymbolsPreview4D4D4D" d="M67.15-29.18C69.92-31.95 74.42-31.96 77.19-29.19L101.87-4.55C104.65-1.78 104.65 2.71 101.88 5.49C99.11 8.26 94.61 8.27 91.84 5.5L67.16-19.14C64.39-21.91 64.38-26.4 67.15-29.18Z"/>
   <path class="hierarchical-1:primary SFSymbolsPreview212121" d="M13.89-62C13.89-73.32 23.06-82.49 34.38-82.49C45.69-82.49 54.87-73.32 54.87-62C54.87-50.69 45.69-41.52 34.38-41.52C23.06-41.52 13.89-50.69 13.89-62ZM13.89-8.45C13.89-19.77 23.06-28.94 34.38-28.94C45.69-28.94 54.87-19.77 54.87-8.45C54.87 2.86 45.69 12.03 34.38 12.03C23.06 12.03 13.89 2.86 13.89-8.45ZM101.87-75.95C104.65-73.18 104.65-68.68 101.87-65.91L48.86-12.89C46.09-10.12 41.59-10.12 38.82-12.89C36.05-15.67 36.05-20.16 38.82-22.94L91.83-75.95C94.61-78.72 99.1-78.72 101.87-75.95ZM34.38-14.74C30.91-14.74 28.09-11.93 28.09-8.45C28.09-4.98 30.91-2.17 34.38-2.17C37.85-2.17 40.67-4.98 40.67-8.45C40.67-11.93 37.85-14.74 34.38-14.74ZM34.38-68.29C30.91-68.29 28.09-65.48 28.09-62C28.09-58.53 30.91-55.72 34.38-55.72C37.85-55.72 40.67-58.53 40.67-62C40.67-65.48 37.85-68.29 34.38-68.29ZM38.82-57.56C41.59-60.34 46.09-60.34 48.86-57.56L66.17-40.25C68.95-37.48 68.95-32.98 66.17-30.21C63.4-27.44 58.91-27.44 56.13-30.21L38.82-47.52C36.05-50.3 36.05-54.79 38.82-57.56Z"/>
  </g>
  <g id="Heavy-M" transform="matrix(1 0 0 1 2576.88 1126)">
   <path class="hierarchical-0:secondary SFSymbolsPreview4D4D4D" d="M66.9-28.58C69.34-31.02 73.3-31.02 75.74-28.59L100.42-3.95C102.86-1.51 102.87 2.44 100.43 4.89C97.99 7.33 94.03 7.33 91.59 4.89L66.91-19.74C64.47-22.18 64.47-26.13 66.9-28.58Z"/>
   <path class="hierarchical-1:primary SFSymbolsPreview212121" d="M13.89-62C13.89-72.85 22.68-81.64 33.53-81.64C44.37-81.64 53.17-72.85 53.17-62C53.17-51.16 44.37-42.37 33.53-42.37C22.68-42.37 13.89-51.16 13.89-62ZM13.89-8.45C13.89-19.3 22.68-28.09 33.53-28.09C44.37-28.09 53.17-19.3 53.17-8.45C53.17 2.39 44.37 11.18 33.53 11.18C22.68 11.18 13.89 2.39 13.89-8.45ZM100.42-75.35C102.86-72.91 102.86-68.95 100.42-66.51L47.41-13.5C44.97-11.05 41.01-11.05 38.57-13.5C36.13-15.94 36.13-19.89 38.57-22.33L91.59-75.35C94.03-77.79 97.98-77.79 100.42-75.35ZM33.53-15.59C29.59-15.59 26.39-12.4 26.39-8.45C26.39-4.51 29.59-1.32 33.53-1.32C37.47-1.32 40.67-4.51 40.67-8.45C40.67-12.4 37.47-15.59 33.53-15.59ZM33.53-69.14C29.59-69.14 26.39-65.95 26.39-62C26.39-58.06 29.59-54.87 33.53-54.87C37.47-54.87 40.67-58.06 40.67-62C40.67-65.95 37.47-69.14 33.53-69.14ZM38.57-56.96C41.01-59.4 44.97-59.4 47.41-56.96L64.72-39.65C67.16-37.21 67.16-33.25 64.72-30.81C62.28-28.37 58.33-28.37 55.89-30.81L38.57-48.12C36.13-50.57 36.13-54.52 38.57-56.96Z"/>
  </g>
  <g id="Bold-M" transform="matrix(1 0 0 1 2281.12 1126)">
   <path class="hierarchical-0:secondary SFSymbolsPreview4D4D4D" d="M66.63-27.91C68.69-29.98 72.05-29.98 74.12-27.91L98.8-3.28C100.87-1.21 100.87 2.14 98.81 4.21C96.74 6.29 93.38 6.29 91.31 4.22L66.63-20.41C64.56-22.48 64.56-25.84 66.63-27.91Z"/>
   <path class="hierarchical-1:primary SFSymbolsPreview212121" d="M13.89-62C13.89-72.33 22.26-80.69 32.58-80.69C42.9-80.69 51.27-72.33 51.27-62C51.27-51.68 42.9-43.32 32.58-43.32C22.26-43.32 13.89-51.68 13.89-62ZM13.89-8.45C13.89-18.77 22.26-27.14 32.58-27.14C42.9-27.14 51.27-18.77 51.27-8.45C51.27 1.87 42.9 10.23 32.58 10.23C22.26 10.23 13.89 1.87 13.89-8.45ZM98.8-74.68C100.87-72.61 100.87-69.25 98.8-67.18L45.79-14.17C43.72-12.1 40.36-12.1 38.29-14.17C36.22-16.24 36.22-19.59 38.29-21.66L91.31-74.68C93.38-76.75 96.73-76.75 98.8-74.68ZM32.58-16.54C28.11-16.54 24.49-12.92 24.49-8.45C24.49-3.99 28.11-0.37 32.58-0.37C37.05-0.37 40.67-3.99 40.67-8.45C40.67-12.92 37.05-16.54 32.58-16.54ZM32.58-70.09C28.11-70.09 24.49-66.47 24.49-62C24.49-57.54 28.11-53.92 32.58-53.92C37.05-53.92 40.67-57.54 40.67-62C40.67-66.47 37.05-70.09 32.58-70.09ZM38.29-56.29C40.36-58.36 43.72-58.36 45.79-56.29L63.1-38.98C65.17-36.91 65.17-33.55 63.1-31.48C61.03-29.41 57.68-29.41 55.61-31.48L38.29-48.8C36.22-50.87 36.22-54.22 38.29-56.29Z"/>
  </g>
  <g id="Semibold-M" transform="matrix(1 0 0 1 1985.06 1126)">
   <path class="hierarchical-0:secondary SFSymbolsPreview4D4D4D" d="M66.43-27.45C68.25-29.27 71.19-29.27 73.01-27.45L97.69-2.82C99.5-1.01 99.51 1.94 97.69 3.76C95.88 5.57 92.93 5.58 91.11 3.76L66.44-20.87C64.62-22.69 64.62-25.63 66.43-27.45Z"/>
   <path class="hierarchical-1:primary SFSymbolsPreview212121" d="M13.89-62C13.89-71.97 21.96-80.04 31.92-80.04C41.89-80.04 49.96-71.97 49.96-62C49.96-52.04 41.89-43.97 31.92-43.97C21.96-43.97 13.89-52.04 13.89-62ZM13.89-8.45C13.89-18.42 21.96-26.49 31.92-26.49C41.89-26.49 49.96-18.42 49.96-8.45C49.96 1.51 41.89 9.58 31.92 9.58C21.96 9.58 13.89 1.51 13.89-8.45ZM97.69-74.22C99.5-72.4 99.5-69.46 97.69-67.64L44.67-14.63C42.86-12.81 39.91-12.81 38.1-14.63C36.28-16.44 36.28-19.39 38.1-21.2L91.11-74.22C92.93-76.03 95.87-76.03 97.69-74.22ZM31.92-17.19C27.1-17.19 23.19-13.28 23.19-8.45C23.19-3.63 27.1 0.28 31.92 0.28C36.75 0.28 40.66-3.63 40.66-8.45C40.66-13.28 36.75-17.19 31.92-17.19ZM31.92-70.74C27.1-70.74 23.19-66.83 23.19-62C23.19-57.18 27.1-53.27 31.92-53.27C36.75-53.27 40.66-57.18 40.66-62C40.66-66.83 36.75-70.74 31.92-70.74ZM38.1-55.83C39.91-57.65 42.86-57.65 44.67-55.83L61.99-38.52C63.8-36.7 63.8-33.76 61.99-31.94C60.17-30.13 57.23-30.13 55.41-31.94L38.1-49.26C36.28-51.07 36.28-54.02 38.1-55.83Z"/>
  </g>
  <g id="Medium-M" transform="matrix(1 0 0 1 1688.85 1126)">
   <path class="hierarchical-0:secondary SFSymbolsPreview4D4D4D" d="M66.29-27.09C67.9-28.72 70.53-28.72 72.15-27.1L96.83-2.47C98.45-0.85 98.46 1.78 96.84 3.4C95.22 5.02 92.59 5.03 90.97 3.41L66.29-21.23C64.67-22.84 64.67-25.47 66.29-27.09Z"/>
   <path class="hierarchical-1:primary SFSymbolsPreview212121" d="M13.89-62C13.89-71.69 21.74-79.54 31.42-79.54C41.11-79.54 48.96-71.69 48.96-62C48.96-52.32 41.11-44.47 31.42-44.47C21.74-44.47 13.89-52.32 13.89-62ZM13.89-8.45C13.89-18.14 21.74-25.99 31.42-25.99C41.11-25.99 48.96-18.14 48.96-8.45C48.96 1.23 41.11 9.08 31.42 9.08C21.74 9.08 13.89 1.23 13.89-8.45ZM96.83-73.86C98.46-72.24 98.46-69.62 96.83-67.99L43.82-14.98C42.2-13.36 39.57-13.36 37.95-14.98C36.33-16.6 36.33-19.23 37.95-20.85L90.97-73.86C92.59-75.48 95.21-75.48 96.83-73.86ZM31.42-17.69C26.32-17.69 22.19-13.56 22.19-8.45C22.19-3.35 26.32 0.78 31.42 0.78C36.53 0.78 40.66-3.35 40.66-8.45C40.66-13.56 36.53-17.69 31.42-17.69ZM31.42-71.24C26.32-71.24 22.19-67.11 22.19-62C22.19-56.9 26.32-52.77 31.42-52.77C36.53-52.77 40.66-56.9 40.66-62C40.66-67.11 36.53-71.24 31.42-71.24ZM37.95-55.48C39.57-57.1 42.2-57.1 43.82-55.48L61.13-38.16C62.76-36.54 62.76-33.92 61.13-32.3C59.51-30.67 56.89-30.67 55.27-32.3L37.95-49.61C36.33-51.23 36.33-53.86 37.95-55.48Z"/>
  </g>
  <g id="Regular-M" transform="matrix(1 0 0 1 1392.79 1126)">
   <path class="hierarchical-0:secondary SFSymbolsPreview4D4D4D" d="M66.1-26.63C67.46-28 69.68-28 71.05-26.64L95.72-2.01C97.09-0.64 97.09 1.58 95.73 2.94C94.36 4.31 92.15 4.31 90.78 2.95L66.1-21.68C64.73-23.05 64.73-25.27 66.1-26.63Z"/>
   <path class="hierarchical-1:primary SFSymbolsPreview212121" d="M13.89-62C13.89-71.33 21.45-78.89 30.77-78.89C40.1-78.89 47.66-71.33 47.66-62C47.66-52.68 40.1-45.12 30.77-45.12C21.45-45.12 13.89-52.68 13.89-62ZM13.89-8.45C13.89-17.78 21.45-25.34 30.77-25.34C40.1-25.34 47.66-17.78 47.66-8.45C47.66 0.87 40.1 8.43 30.77 8.43C21.45 8.43 13.89 0.87 13.89-8.45ZM95.72-73.4C97.09-72.04 97.09-69.82 95.72-68.45L42.71-15.44C41.34-14.07 39.13-14.07 37.76-15.44C36.39-16.81 36.39-19.02 37.76-20.39L90.78-73.4C92.14-74.77 94.36-74.77 95.72-73.4ZM30.77-18.34C25.31-18.34 20.89-13.92 20.89-8.45C20.89-2.99 25.31 1.43 30.77 1.43C36.24 1.43 40.66-2.99 40.66-8.45C40.66-13.92 36.24-18.34 30.77-18.34ZM30.77-71.89C25.31-71.89 20.89-67.46 20.89-62C20.89-56.54 25.31-52.12 30.77-52.12C36.24-52.12 40.66-56.54 40.66-62C40.66-67.46 36.24-71.89 30.77-71.89ZM37.76-55.02C39.13-56.39 41.34-56.39 42.71-55.02L60.02-37.7C61.39-36.34 61.39-34.12 60.02-32.75C58.66-31.39 56.44-31.39 55.08-32.75L37.76-50.07C36.39-51.44 36.39-53.65 37.76-55.02Z"/>
  </g>
  <g id="Light-M" transform="matrix(1 0 0 1 1096.88 1126)">
   <path class="hierarchical-0:secondary SFSymbolsPreview4D4D4D" d="M65.86-26.07C66.91-27.13 68.62-27.13 69.68-26.07L94.36-1.44C95.41-0.39 95.41 1.32 94.36 2.38C93.31 3.43 91.6 3.44 90.54 2.38L65.86-22.25C64.81-23.3 64.81-25.01 65.86-26.07Z"/>
   <path class="hierarchical-1:primary SFSymbolsPreview212121" d="M13.89-62C13.89-70.89 21.09-78.09 29.98-78.09C38.86-78.09 46.06-70.89 46.06-62C46.06-53.12 38.86-45.92 29.98-45.92C21.09-45.92 13.89-53.12 13.89-62ZM13.89-8.45C13.89-17.34 21.09-24.54 29.98-24.54C38.86-24.54 46.06-17.34 46.06-8.45C46.06 0.43 38.86 7.63 29.98 7.63C21.09 7.63 13.89 0.43 13.89-8.45ZM94.36-72.84C95.41-71.78 95.41-70.08 94.36-69.02L41.34-16.01C40.29-14.95 38.58-14.95 37.53-16.01C36.47-17.06 36.47-18.77 37.53-19.82L90.54-72.84C91.6-73.89 93.3-73.89 94.36-72.84ZM29.98-19.14C24.07-19.14 19.29-14.36 19.29-8.45C19.29-2.55 24.07 2.23 29.98 2.23C35.88 2.23 40.66-2.55 40.66-8.45C40.66-14.36 35.88-19.14 29.98-19.14ZM29.98-72.69C24.07-72.69 19.29-67.91 19.29-62C19.29-56.1 24.07-51.32 29.98-51.32C35.88-51.32 40.66-56.1 40.66-62C40.66-67.91 35.88-72.69 29.98-72.69ZM37.53-54.45C38.58-55.51 40.29-55.51 41.34-54.45L58.66-37.14C59.71-36.08 59.71-34.37 58.66-33.32C57.6-32.27 55.9-32.27 54.84-33.32L37.53-50.63C36.47-51.69 36.47-53.4 37.53-54.45Z"/>
  </g>
  <g id="Thin-M" transform="matrix(1 0 0 1 801.216 1126)">
   <path class="hierarchical-0:secondary SFSymbolsPreview4D4D4D" d="M65.557-25.33C66.201-25.97 67.245-25.97 67.89-25.33L92.568-0.7C93.213-0.05 93.214 0.99 92.57 1.64C91.926 2.28 90.881 2.28 90.237 1.64L65.559-22.99C64.914-23.64 64.913-24.68 65.557-25.33Z"/>
   <path class="hierarchical-1:primary SFSymbolsPreview212121" d="M13.89-62C13.89-70.31 20.622-77.04 28.927-77.04C37.232-77.04 43.964-70.31 43.964-62C43.964-53.7 37.232-46.97 28.927-46.97C20.622-46.97 13.89-53.7 13.89-62ZM13.89-8.45C13.89-16.76 20.622-23.49 28.927-23.49C37.232-23.49 43.964-16.76 43.964-8.45C43.964-0.15 37.232 6.58 28.927 6.58C20.622 6.58 13.89-0.15 13.89-8.45ZM92.569-72.1C93.213-71.45 93.213-70.41 92.569-69.76L39.554-16.75C38.91-16.1 37.865-16.1 37.221-16.75C36.577-17.39 36.577-18.44 37.221-19.08L90.235-72.1C90.88-72.74 91.925-72.74 92.569-72.1ZM28.927-20.19C22.445-20.19 17.189-14.94 17.189-8.45C17.189-1.97 22.445 3.28 28.927 3.28C35.409 3.28 40.664-1.97 40.664-8.45C40.664-14.94 35.409-20.19 28.927-20.19ZM28.927-73.74C22.445-73.74 17.189-68.49 17.189-62C17.189-55.52 22.445-50.27 28.927-50.27C35.409-50.27 40.664-55.52 40.664-62C40.664-68.49 35.409-73.74 28.927-73.74ZM37.221-53.71C37.865-54.36 38.91-54.36 39.554-53.71L56.869-36.4C57.513-35.75 57.513-34.71 56.869-34.06C56.225-33.42 55.18-33.42 54.535-34.06L37.221-51.38C36.577-52.02 36.577-53.07 37.221-53.71Z"/>
  </g>
  <g id="Ultralight-M" transform="matrix(1 0 0 1 505.055 1126)">
   <path class="hierarchical-0:secondary SFSymbolsPreview4D4D4D" d="M65.397-24.94C65.826-25.37 66.523-25.37 66.952-24.94L91.63-0.31C92.06 0.12 92.061 0.82 91.632 1.25C91.202 1.68 90.506 1.68 90.076 1.25L65.398-23.38C64.968-23.81 64.968-24.51 65.397-24.94Z"/>
   <path class="hierarchical-1:primary SFSymbolsPreview212121" d="M13.89-62C13.89-70.01 20.377-76.49 28.378-76.49C36.379-76.49 42.865-70.01 42.865-62C42.865-54 36.379-47.52 28.378-47.52C20.377-47.52 13.89-54 13.89-62ZM13.89-8.45C13.89-16.46 20.377-22.94 28.378-22.94C36.379-22.94 42.865-16.46 42.865-8.45C42.865-0.45 36.379 6.03 28.378 6.03C20.377 6.03 13.89-0.45 13.89-8.45ZM91.631-71.71C92.06-71.28 92.06-70.58 91.631-70.15L38.616-17.14C38.187-16.71 37.49-16.71 37.061-17.14C36.631-17.57 36.631-18.26 37.061-18.69L90.075-71.71C90.505-72.14 91.201-72.14 91.631-71.71ZM28.378-20.74C21.592-20.74 16.09-15.24 16.09-8.45C16.09-1.67 21.592 3.83 28.378 3.83C35.164 3.83 40.665-1.67 40.665-8.45C40.665-15.24 35.164-20.74 28.378-20.74ZM28.378-74.29C21.592-74.29 16.09-68.79 16.09-62C16.09-55.22 21.592-49.72 28.378-49.72C35.164-49.72 40.665-55.22 40.665-62C40.665-68.79 35.164-74.29 28.378-74.29ZM37.061-53.32C37.49-53.75 38.187-53.75 38.616-53.32L55.931-36.01C56.36-35.58 56.36-34.88 55.931-34.45C55.501-34.02 54.805-34.02 54.375-34.45L37.061-51.77C36.631-52.2 36.631-52.89 37.061-53.32Z"/>
  </g>
  <g id="Black-S" transform="matrix(1 0 0 1 2880.92 696)">
   <path class="hierarchical-0:secondary SFSymbolsPreview4D4D4D" d="M56.11-31.668C58.88-34.443 63.38-34.447 66.15-31.677L85.51-12.357C88.28-9.587 88.29-5.091 85.52-2.316C82.75 0.459 78.25 0.463 75.47-2.307L56.12-21.627C53.34-24.397 53.34-28.893 56.11-31.668Z"/>
   <path class="hierarchical-1:primary SFSymbolsPreview212121" d="M13.89-56.332C13.89-66.052 21.77-73.932 31.49-73.932C41.21-73.932 49.09-66.052 49.09-56.332C49.09-46.611 41.21-38.732 31.49-38.732C21.77-38.732 13.89-46.611 13.89-56.332ZM13.89-14.332C13.89-24.052 21.77-31.932 31.49-31.932C41.21-31.932 49.09-24.052 49.09-14.332C49.09-4.611 41.21 3.268 31.49 3.268C21.77 3.268 13.89-4.611 13.89-14.332ZM85.51-68.352C88.28-65.579 88.28-61.084 85.51-58.311L43.93-16.731C41.16-13.958 36.66-13.958 33.89-16.731C31.12-19.504 31.12-23.999 33.89-26.772L75.47-68.352C78.24-71.125 82.74-71.125 85.51-68.352ZM31.49-17.732C29.61-17.732 28.09-16.209 28.09-14.332C28.09-12.454 29.61-10.932 31.49-10.932C33.37-10.932 34.89-12.454 34.89-14.332C34.89-16.209 33.37-17.732 31.49-17.732ZM31.49-59.732C29.61-59.732 28.09-58.209 28.09-56.332C28.09-54.454 29.61-52.932 31.49-52.932C33.37-52.932 34.89-54.454 34.89-56.332C34.89-58.209 33.37-59.732 31.49-59.732ZM33.89-53.932C36.66-56.705 41.16-56.705 43.93-53.932L57.51-40.352C60.28-37.579 60.28-33.084 57.51-30.311C54.74-27.539 50.24-27.539 47.47-30.311L33.89-43.891C31.12-46.664 31.12-51.159 33.89-53.932Z"/>
  </g>
  <g id="Heavy-S" transform="matrix(1 0 0 1 2585.06 696)">
   <path class="hierarchical-0:secondary SFSymbolsPreview4D4D4D" d="M55.86-31.068C58.3-33.511 62.26-33.514 64.7-31.076L84.06-11.756C86.5-9.317 86.5-5.36 84.06-2.917C81.63-0.474 77.67-0.47 75.23-2.909L55.87-22.229C53.43-24.667 53.42-28.625 55.86-31.068Z"/>
   <path class="hierarchical-1:primary SFSymbolsPreview212121" d="M13.89-56.332C13.89-65.583 21.39-73.082 30.64-73.082C39.89-73.082 47.39-65.583 47.39-56.332C47.39-47.081 39.89-39.582 30.64-39.582C21.39-39.582 13.89-47.081 13.89-56.332ZM13.89-14.332C13.89-23.583 21.39-31.082 30.64-31.082C39.89-31.082 47.39-23.583 47.39-14.332C47.39-5.081 39.89 2.418 30.64 2.418C21.39 2.418 13.89-5.081 13.89-14.332ZM84.06-67.751C86.5-65.311 86.5-61.353 84.06-58.913L42.48-17.333C40.04-14.892 36.08-14.892 33.64-17.333C31.2-19.773 31.2-23.731 33.64-26.171L75.22-67.751C77.66-70.192 81.62-70.192 84.06-67.751ZM30.64-18.582C28.29-18.582 26.39-16.679 26.39-14.332C26.39-11.985 28.29-10.082 30.64-10.082C32.99-10.082 34.89-11.985 34.89-14.332C34.89-16.679 32.99-18.582 30.64-18.582ZM30.64-60.582C28.29-60.582 26.39-58.679 26.39-56.332C26.39-53.985 28.29-52.082 30.64-52.082C32.99-52.082 34.89-53.985 34.89-56.332C34.89-58.679 32.99-60.582 30.64-60.582ZM33.64-53.332C36.08-55.772 40.04-55.772 42.48-53.332L56.06-39.752C58.5-37.311 58.5-33.353 56.06-30.913C53.62-28.472 49.66-28.472 47.22-30.913L33.64-44.493C31.2-46.933 31.2-50.891 33.64-53.332Z"/>
  </g>
  <g id="Bold-S" transform="matrix(1 0 0 1 2289.31 696)">
   <path class="hierarchical-0:secondary SFSymbolsPreview4D4D4D" d="M55.58-30.191C57.65-32.263 61-32.266 63.07-30.198L82.43-10.878C84.5-8.81 84.5-5.454 82.44-3.383C80.37-1.311 77.01-1.308 74.94-3.376L55.59-22.696C53.51-24.764 53.51-28.12 55.58-30.191Z"/>
   <path class="hierarchical-1:primary SFSymbolsPreview212121" d="M13.89-56.127C13.89-64.853 20.96-71.927 29.69-71.927C38.41-71.927 45.49-64.853 45.49-56.127C45.49-47.401 38.41-40.327 29.69-40.327C20.96-40.327 13.89-47.401 13.89-56.127ZM13.89-14.127C13.89-22.853 20.96-29.927 29.69-29.927C38.41-29.927 45.49-22.853 45.49-14.127C45.49-5.401 38.41 1.673 29.69 1.673C20.96 1.673 13.89-5.401 13.89-14.127ZM82.43-66.874C84.5-64.805 84.5-61.449 82.43-59.379L40.85-17.799C38.78-15.729 35.43-15.729 33.36-17.799C31.29-19.869 31.29-23.225 33.36-25.294L74.94-66.874C77.01-68.944 80.36-68.944 82.43-66.874ZM29.69-19.327C26.81-19.327 24.49-16.999 24.49-14.127C24.49-11.255 26.81-8.927 29.69-8.927C32.56-8.927 34.89-11.255 34.89-14.127C34.89-16.999 32.56-19.327 29.69-19.327ZM29.69-61.327C26.81-61.327 24.49-58.999 24.49-56.127C24.49-53.255 26.81-50.927 29.69-50.927C32.56-50.927 34.89-53.255 34.89-56.127C34.89-58.999 32.56-61.327 29.69-61.327ZM33.36-52.455C35.43-54.524 38.78-54.524 40.85-52.455L54.43-38.875C56.5-36.805 56.5-33.449 54.43-31.379C52.36-29.309 49.01-29.309 46.94-31.379L33.36-44.959C31.29-47.029 31.29-50.385 33.36-52.455Z"/>
  </g>
  <g id="Semibold-S" transform="matrix(1 0 0 1 1993.24 696)">
   <path class="hierarchical-0:secondary SFSymbolsPreview4D4D4D" d="M55.39-29.732C57.21-31.549 60.15-31.552 61.97-29.738L81.33-10.418C83.14-8.603 83.15-5.659 81.33-3.842C79.52-2.024 76.57-2.021 74.76-3.836L55.4-23.156C53.58-24.97 53.58-27.914 55.39-29.732Z"/>
   <path class="hierarchical-1:primary SFSymbolsPreview212121" d="M13.89-56.127C13.89-64.494 20.67-71.277 29.04-71.277C37.41-71.277 44.19-64.494 44.19-56.127C44.19-47.76 37.41-40.977 29.04-40.977C20.67-40.977 13.89-47.76 13.89-56.127ZM13.89-14.127C13.89-22.494 20.67-29.277 29.04-29.277C37.41-29.277 44.19-22.494 44.19-14.127C44.19-5.76 37.41 1.023 29.04 1.023C20.67 1.023 13.89-5.76 13.89-14.127ZM81.33-66.415C83.14-64.599 83.14-61.655 81.33-59.839L39.75-18.259C37.93-16.443 34.99-16.443 33.17-18.259C31.36-20.075 31.36-23.019 33.17-24.835L74.75-66.415C76.57-68.231 79.51-68.231 81.33-66.415ZM29.04-19.977C25.81-19.977 23.19-17.358 23.19-14.127C23.19-10.896 25.81-8.277 29.04-8.277C32.27-8.277 34.89-10.896 34.89-14.127C34.89-17.358 32.27-19.977 29.04-19.977ZM29.04-61.977C25.81-61.977 23.19-59.358 23.19-56.127C23.19-52.896 25.81-50.277 29.04-50.277C32.27-50.277 34.89-52.896 34.89-56.127C34.89-59.358 32.27-61.977 29.04-61.977ZM33.17-51.995C34.99-53.811 37.93-53.811 39.75-51.995L53.33-38.415C55.14-36.6 55.14-33.655 53.33-31.839C51.51-30.023 48.57-30.023 46.75-31.839L33.17-45.419C31.36-47.235 31.36-50.18 33.17-51.995Z"/>
  </g>
  <g id="Medium-S" transform="matrix(1 0 0 1 1697.03 696)">
   <path class="hierarchical-0:secondary SFSymbolsPreview4D4D4D" d="M55.25-29.379C56.87-31.001 59.49-31.003 61.12-29.384L80.47-10.064C82.09-8.445 82.1-5.817 80.48-4.195C78.86-2.573 76.23-2.57 74.61-4.19L55.25-23.51C53.63-25.129 53.63-27.756 55.25-29.379Z"/>
   <path class="hierarchical-1:primary SFSymbolsPreview212121" d="M13.89-56.127C13.89-64.218 20.45-70.777 28.54-70.777C36.63-70.777 43.19-64.218 43.19-56.127C43.19-48.036 36.63-41.477 28.54-41.477C20.45-41.477 13.89-48.036 13.89-56.127ZM13.89-14.127C13.89-22.218 20.45-28.777 28.54-28.777C36.63-28.777 43.19-22.218 43.19-14.127C43.19-6.036 36.63 0.523 28.54 0.523C20.45 0.523 13.89-6.036 13.89-14.127ZM80.47-66.062C82.1-64.441 82.1-61.814 80.47-60.193L38.89-18.613C37.27-16.992 34.65-16.992 33.03-18.613C31.4-20.234 31.4-22.861 33.03-24.482L74.61-66.062C76.23-67.683 78.85-67.683 80.47-66.062ZM28.54-20.477C25.03-20.477 22.19-17.634 22.19-14.127C22.19-10.62 25.03-7.777 28.54-7.777C32.05-7.777 34.89-10.62 34.89-14.127C34.89-17.634 32.05-20.477 28.54-20.477ZM28.54-62.477C25.03-62.477 22.19-59.634 22.19-56.127C22.19-52.62 25.03-49.777 28.54-49.777C32.05-49.777 34.89-52.62 34.89-56.127C34.89-59.634 32.05-62.477 28.54-62.477ZM33.03-51.642C34.65-53.263 37.27-53.263 38.89-51.642L52.47-38.062C54.1-36.441 54.1-33.814 52.47-32.193C50.85-30.572 48.23-30.572 46.61-32.193L33.03-45.773C31.4-47.394 31.4-50.021 33.03-51.642Z"/>
  </g>
  <g id="Regular-S" transform="matrix(1 0 0 1 1400.97 696)">
   <path class="hierarchical-0:secondary SFSymbolsPreview4D4D4D" d="M55.06-28.92C56.42-30.288 58.64-30.29 60.01-28.924L79.36-9.604C80.73-8.239 80.73-6.023 79.37-4.655C78-3.287 75.79-3.285 74.42-4.65L55.06-23.97C53.69-25.336 53.69-27.552 55.06-28.92Z"/>
   <path class="hierarchical-1:primary SFSymbolsPreview212121" d="M13.89-56.127C13.89-63.859 20.16-70.127 27.89-70.127C35.62-70.127 41.89-63.859 41.89-56.127C41.89-48.395 35.62-42.127 27.89-42.127C20.16-42.127 13.89-48.395 13.89-56.127ZM13.89-14.127C13.89-21.859 20.16-28.127 27.89-28.127C35.62-28.127 41.89-21.859 41.89-14.127C41.89-6.395 35.62-0.127 27.89-0.127C20.16-0.127 13.89-6.395 13.89-14.127ZM79.36-65.602C80.73-64.235 80.73-62.019 79.36-60.652L37.78-19.072C36.42-17.705 34.2-17.705 32.84-19.072C31.47-20.439 31.47-22.655 32.84-24.022L74.42-65.602C75.78-66.969 78-66.969 79.36-65.602ZM27.89-21.127C24.02-21.127 20.89-17.993 20.89-14.127C20.89-10.261 24.02-7.127 27.89-7.127C31.76-7.127 34.89-10.261 34.89-14.127C34.89-17.993 31.76-21.127 27.89-21.127ZM27.89-63.127C24.02-63.127 20.89-59.993 20.89-56.127C20.89-52.261 24.02-49.127 27.89-49.127C31.76-49.127 34.89-52.261 34.89-56.127C34.89-59.993 31.76-63.127 27.89-63.127ZM32.84-51.182C34.2-52.549 36.42-52.549 37.78-51.182L51.36-37.602C52.73-36.235 52.73-34.019 51.36-32.652C50-31.285 47.78-31.285 46.42-32.652L32.84-46.232C31.47-47.599 31.47-49.815 32.84-51.182Z"/>
  </g>
  <g id="Light-S" transform="matrix(1 0 0 1 1105.06 696)">
   <path class="hierarchical-0:secondary SFSymbolsPreview4D4D4D" d="M54.82-28.354C55.88-29.409 57.59-29.411 58.64-28.357L78-9.037C79.05-7.984 79.05-6.274 78-5.219C76.95-4.164 75.24-4.162 74.18-5.216L54.83-24.536C53.77-25.589 53.77-27.299 54.82-28.354Z"/>
   <path class="hierarchical-1:primary SFSymbolsPreview212121" d="M13.89-56.127C13.89-63.417 19.8-69.327 27.09-69.327C34.38-69.327 40.29-63.417 40.29-56.127C40.29-48.837 34.38-42.927 27.09-42.927C19.8-42.927 13.89-48.837 13.89-56.127ZM13.89-14.127C13.89-21.417 19.8-27.327 27.09-27.327C34.38-27.327 40.29-21.417 40.29-14.127C40.29-6.837 34.38-0.927 27.09-0.927C19.8-0.927 13.89-6.837 13.89-14.127ZM78-65.036C79.05-63.982 79.05-62.272 78-61.218L36.42-19.638C35.36-18.584 33.66-18.584 32.6-19.638C31.55-20.692 31.55-22.402 32.6-23.456L74.18-65.036C75.24-66.091 76.94-66.091 78-65.036ZM27.09-21.927C22.78-21.927 19.29-18.435 19.29-14.127C19.29-9.819 22.78-6.327 27.09-6.327C31.4-6.327 34.89-9.819 34.89-14.127C34.89-18.435 31.4-21.927 27.09-21.927ZM27.09-63.927C22.78-63.927 19.29-60.435 19.29-56.127C19.29-51.819 22.78-48.327 27.09-48.327C31.4-48.327 34.89-51.819 34.89-56.127C34.89-60.435 31.4-63.927 27.09-63.927ZM32.6-50.616C33.66-51.671 35.36-51.671 36.42-50.616L50-37.036C51.05-35.982 51.05-34.272 50-33.218C48.94-32.164 47.24-32.164 46.18-33.218L32.6-46.798C31.55-47.852 31.55-49.562 32.6-50.616Z"/>
  </g>
  <g id="Thin-S" transform="matrix(1 0 0 1 809.397 696)">
   <path class="hierarchical-0:secondary SFSymbolsPreview4D4D4D" d="M54.517-27.612C55.161-28.257 56.206-28.258 56.851-27.614L76.206-8.294C76.851-7.651 76.852-6.606 76.208-5.961C75.564-5.316 74.519-5.315 73.874-5.959L54.519-25.279C53.874-25.923 53.874-26.967 54.517-27.612Z"/>
   <path class="hierarchical-1:primary SFSymbolsPreview212121" d="M13.89-56.127C13.89-62.838 19.33-68.277 26.04-68.277C32.75-68.277 38.19-62.838 38.19-56.127C38.19-49.417 32.75-43.977 26.04-43.977C19.33-43.977 13.89-49.417 13.89-56.127ZM13.89-14.127C13.89-20.838 19.33-26.277 26.04-26.277C32.75-26.277 38.19-20.838 38.19-14.127C38.19-7.417 32.75-1.977 26.04-1.977C19.33-1.977 13.89-7.417 13.89-14.127ZM76.207-64.294C76.851-63.65 76.851-62.605 76.207-61.961L34.627-20.381C33.982-19.736 32.938-19.736 32.293-20.381C31.649-21.025 31.649-22.07 32.293-22.714L73.873-64.294C74.518-64.938 75.562-64.938 76.207-64.294ZM26.04-22.977C21.152-22.977 17.19-19.015 17.19-14.127C17.19-9.24 21.152-5.277 26.04-5.277C30.928-5.277 34.89-9.24 34.89-14.127C34.89-19.015 30.928-22.977 26.04-22.977ZM26.04-64.977C21.152-64.977 17.19-61.015 17.19-56.127C17.19-51.24 21.152-47.277 26.04-47.277C30.928-47.277 34.89-51.24 34.89-56.127C34.89-61.015 30.928-64.977 26.04-64.977ZM32.293-49.874C32.938-50.519 33.982-50.519 34.627-49.874L48.207-36.294C48.851-35.65 48.851-34.605 48.207-33.961C47.562-33.316 46.518-33.316 45.873-33.961L32.293-47.541C31.649-48.185 31.649-49.23 32.293-49.874Z"/>
  </g>
  <g id="Ultralight-S" transform="matrix(1 0 0 1 513.236 696)">
   <path class="hierarchical-0:secondary SFSymbolsPreview4D4D4D" d="M54.356-27.224C54.786-27.654 55.482-27.655 55.912-27.225L75.267-7.905C75.697-7.476 75.698-6.78 75.268-6.35C74.839-5.92 74.143-5.919 73.713-6.348L54.358-25.668C53.928-26.098 53.927-26.794 54.356-27.224Z"/>
   <path class="hierarchical-1:primary SFSymbolsPreview212121" d="M13.89-56.127C13.89-62.533 19.083-67.727 25.49-67.727C31.896-67.727 37.09-62.533 37.09-56.127C37.09-49.72 31.896-44.527 25.49-44.527C19.083-44.527 13.89-49.72 13.89-56.127ZM13.89-14.127C13.89-20.533 19.083-25.727 25.49-25.727C31.896-25.727 37.09-20.533 37.09-14.127C37.09-7.72 31.896-2.527 25.49-2.527C19.083-2.527 13.89-7.72 13.89-14.127ZM75.268-63.904C75.697-63.475 75.697-62.778 75.268-62.349L33.688-20.769C33.258-20.339 32.562-20.339 32.132-20.769C31.702-21.198 31.702-21.895 32.132-22.324L73.712-63.904C74.142-64.334 74.838-64.334 75.268-63.904ZM25.49-23.527C20.298-23.527 16.09-19.318 16.09-14.127C16.09-8.935 20.298-4.727 25.49-4.727C30.681-4.727 34.89-8.935 34.89-14.127C34.89-19.318 30.681-23.527 25.49-23.527ZM25.49-65.527C20.298-65.527 16.09-61.318 16.09-56.127C16.09-50.935 20.298-46.727 25.49-46.727C30.681-46.727 34.89-50.935 34.89-56.127C34.89-61.318 30.681-65.527 25.49-65.527ZM32.132-49.484C32.562-49.914 33.258-49.914 33.688-49.484L47.268-35.904C47.697-35.475 47.697-34.778 47.268-34.349C46.838-33.919 46.142-33.919 45.712-34.349L32.132-47.929C31.702-48.358 31.702-49.055 32.132-49.484Z"/>
  </g>
 </g>
</svg>
