<?xml version="1.0" encoding="UTF-8"?>
<!--Generator: Apple Native CoreSVG 175-->
<!DOCTYPE svg
PUBLIC "-//W3C//DTD SVG 1.1//EN"
       "http://www.w3.org/Graphics/SVG/1.1/DTD/svg11.dtd">
<svg version="1.1" xmlns="http://www.w3.org/2000/svg" xmlns:xlink="http://www.w3.org/1999/xlink" width="3300" height="2200">
 <!--glyph: "", point size: 100.0, font version: "17.0d12e1", template writer version: "65.1"-->
 <style>.hierarchical-0:secondary {fill:#4D4D4D}
.hierarchical-1:primary {fill:#212121}

.SFSymbolsPreview212121 {fill:#212121;opacity:1.0}
.SFSymbolsPreview4D4D4D {fill:#4D4D4D;opacity:1.0}
</style>
 <g id="Notes">
  <rect height="2200" id="artboard" style="fill:white;opacity:1" width="3300" x="0" y="0"/>
  <line style="fill:none;stroke:black;opacity:1;stroke-width:0.5;" x1="263" x2="3036" y1="292" y2="292"/>
  <text style="stroke:none;fill:black;font-family:sans-serif;font-size:13;font-weight:bold;" transform="matrix(1 0 0 1 263 322)">Weight/Scale Variations</text>
  <text style="stroke:none;fill:black;font-family:sans-serif;font-size:13;text-anchor:middle;" transform="matrix(1 0 0 1 559.711 322)">Ultralight</text>
  <text style="stroke:none;fill:black;font-family:sans-serif;font-size:13;text-anchor:middle;" transform="matrix(1 0 0 1 856.422 322)">Thin</text>
  <text style="stroke:none;fill:black;font-family:sans-serif;font-size:13;text-anchor:middle;" transform="matrix(1 0 0 1 1153.13 322)">Light</text>
  <text style="stroke:none;fill:black;font-family:sans-serif;font-size:13;text-anchor:middle;" transform="matrix(1 0 0 1 1449.84 322)">Regular</text>
  <text style="stroke:none;fill:black;font-family:sans-serif;font-size:13;text-anchor:middle;" transform="matrix(1 0 0 1 1746.56 322)">Medium</text>
  <text style="stroke:none;fill:black;font-family:sans-serif;font-size:13;text-anchor:middle;" transform="matrix(1 0 0 1 2043.27 322)">Semibold</text>
  <text style="stroke:none;fill:black;font-family:sans-serif;font-size:13;text-anchor:middle;" transform="matrix(1 0 0 1 2339.98 322)">Bold</text>
  <text style="stroke:none;fill:black;font-family:sans-serif;font-size:13;text-anchor:middle;" transform="matrix(1 0 0 1 2636.69 322)">Heavy</text>
  <text style="stroke:none;fill:black;font-family:sans-serif;font-size:13;text-anchor:middle;" transform="matrix(1 0 0 1 2933.4 322)">Black</text>
  <line style="fill:none;stroke:black;opacity:1;stroke-width:0.5;" x1="263" x2="3036" y1="1903" y2="1903"/>
  <g transform="matrix(1 0 0 1 263 1933)">
   <path d="M9.24805 0.830078Q10.8691 0.830078 12.2949 0.214844Q13.7207-0.400391 14.8096-1.49414Q15.8984-2.58789 16.5186-4.01367Q17.1387-5.43945 17.1387-7.05078Q17.1387-8.66211 16.5186-10.0879Q15.8984-11.5137 14.8047-12.6074Q13.7109-13.7012 12.2852-14.3164Q10.8594-14.9316 9.23828-14.9316Q7.62695-14.9316 6.20117-14.3164Q4.77539-13.7012 3.69141-12.6074Q2.60742-11.5137 1.9873-10.0879Q1.36719-8.66211 1.36719-7.05078Q1.36719-5.43945 1.9873-4.01367Q2.60742-2.58789 3.69629-1.49414Q4.78516-0.400391 6.21094 0.214844Q7.63672 0.830078 9.24805 0.830078ZM9.24805-0.654297Q7.91992-0.654297 6.7627-1.14746Q5.60547-1.64062 4.73145-2.51953Q3.85742-3.39844 3.36426-4.56055Q2.87109-5.72266 2.87109-7.05078Q2.87109-8.37891 3.35938-9.54102Q3.84766-10.7031 4.72168-11.582Q5.5957-12.4609 6.75293-12.9541Q7.91016-13.4473 9.23828-13.4473Q10.5762-13.4473 11.7334-12.9541Q12.8906-12.4609 13.7695-11.582Q14.6484-10.7031 15.1465-9.54102Q15.6445-8.37891 15.6445-7.05078Q15.6445-5.72266 15.1514-4.56055Q14.6582-3.39844 13.7842-2.51953Q12.9102-1.64062 11.748-1.14746Q10.5859-0.654297 9.24805-0.654297ZM5.6543-7.05078Q5.6543-6.72852 5.85938-6.52832Q6.06445-6.32812 6.40625-6.32812L8.51562-6.32812L8.51562-4.20898Q8.51562-3.88672 8.71094-3.67676Q8.90625-3.4668 9.23828-3.4668Q9.56055-3.4668 9.77051-3.67676Q9.98047-3.88672 9.98047-4.20898L9.98047-6.32812L12.0898-6.32812Q12.4219-6.32812 12.627-6.52832Q12.832-6.72852 12.832-7.05078Q12.832-7.38281 12.627-7.58789Q12.4219-7.79297 12.0898-7.79297L9.98047-7.79297L9.98047-9.90234Q9.98047-10.2344 9.77051-10.4443Q9.56055-10.6543 9.23828-10.6543Q8.90625-10.6543 8.71094-10.4443Q8.51562-10.2344 8.51562-9.90234L8.51562-7.79297L6.40625-7.79297Q6.06445-7.79297 5.85938-7.58789Q5.6543-7.38281 5.6543-7.05078Z"/>
  </g>
  <g transform="matrix(1 0 0 1 281.867 1933)">
   <path d="M11.709 2.91016Q13.75 2.91016 15.5518 2.12891Q17.3535 1.34766 18.7305-0.0292969Q20.1074-1.40625 20.8887-3.20801Q21.6699-5.00977 21.6699-7.05078Q21.6699-9.0918 20.8887-10.8936Q20.1074-12.6953 18.7305-14.0723Q17.3535-15.4492 15.5469-16.2305Q13.7402-17.0117 11.6992-17.0117Q9.6582-17.0117 7.85645-16.2305Q6.05469-15.4492 4.68262-14.0723Q3.31055-12.6953 2.5293-10.8936Q1.74805-9.0918 1.74805-7.05078Q1.74805-5.00977 2.5293-3.20801Q3.31055-1.40625 4.6875-0.0292969Q6.06445 1.34766 7.86621 2.12891Q9.66797 2.91016 11.709 2.91016ZM11.709 1.25Q9.98047 1.25 8.47656 0.605469Q6.97266-0.0390625 5.83496-1.17676Q4.69727-2.31445 4.05762-3.81836Q3.41797-5.32227 3.41797-7.05078Q3.41797-8.7793 4.05762-10.2832Q4.69727-11.7871 5.83008-12.9297Q6.96289-14.0723 8.4668-14.7119Q9.9707-15.3516 11.6992-15.3516Q13.4277-15.3516 14.9316-14.7119Q16.4355-14.0723 17.5781-12.9297Q18.7207-11.7871 19.3652-10.2832Q20.0098-8.7793 20.0098-7.05078Q20.0098-5.32227 19.3701-3.81836Q18.7305-2.31445 17.5928-1.17676Q16.4551-0.0390625 14.9463 0.605469Q13.4375 1.25 11.709 1.25ZM7.17773-7.05078Q7.17773-6.69922 7.41211-6.47461Q7.64648-6.25 8.01758-6.25L10.8887-6.25L10.8887-3.36914Q10.8887-2.99805 11.1133-2.76855Q11.3379-2.53906 11.6895-2.53906Q12.0605-2.53906 12.29-2.76855Q12.5195-2.99805 12.5195-3.36914L12.5195-6.25L15.4004-6.25Q15.7715-6.25 16.001-6.47461Q16.2305-6.69922 16.2305-7.05078Q16.2305-7.42188 16.001-7.65137Q15.7715-7.88086 15.4004-7.88086L12.5195-7.88086L12.5195-10.752Q12.5195-11.1328 12.29-11.3623Q12.0605-11.5918 11.6895-11.5918Q11.3379-11.5918 11.1133-11.3574Q10.8887-11.123 10.8887-10.752L10.8887-7.88086L8.01758-7.88086Q7.63672-7.88086 7.40723-7.65137Q7.17773-7.42188 7.17773-7.05078Z"/>
  </g>
  <g transform="matrix(1 0 0 1 305.646 1933)">
   <path d="M14.9707 5.66406Q17.0605 5.66406 18.96 5.01465Q20.8594 4.36523 22.4512 3.19336Q24.043 2.02148 25.2197 0.429688Q26.3965-1.16211 27.0459-3.06641Q27.6953-4.9707 27.6953-7.05078Q27.6953-9.14062 27.0459-11.04Q26.3965-12.9395 25.2197-14.5312Q24.043-16.123 22.4512-17.2998Q20.8594-18.4766 18.9551-19.126Q17.0508-19.7754 14.9609-19.7754Q12.8711-19.7754 10.9717-19.126Q9.07227-18.4766 7.48535-17.2998Q5.89844-16.123 4.72168-14.5312Q3.54492-12.9395 2.90039-11.04Q2.25586-9.14062 2.25586-7.05078Q2.25586-4.9707 2.90527-3.06641Q3.55469-1.16211 4.72656 0.429688Q5.89844 2.02148 7.49023 3.19336Q9.08203 4.36523 10.9814 5.01465Q12.8809 5.66406 14.9707 5.66406ZM14.9707 3.84766Q13.1641 3.84766 11.5283 3.2959Q9.89258 2.74414 8.53516 1.74805Q7.17773 0.751953 6.17676-0.610352Q5.17578-1.97266 4.62891-3.6084Q4.08203-5.24414 4.08203-7.05078Q4.08203-8.86719 4.62891-10.5029Q5.17578-12.1387 6.17188-13.501Q7.16797-14.8633 8.52539-15.8594Q9.88281-16.8555 11.5186-17.4023Q13.1543-17.9492 14.9609-17.9492Q16.7773-17.9492 18.4131-17.4023Q20.0488-16.8555 21.4111-15.8594Q22.7734-14.8633 23.7695-13.501Q24.7656-12.1387 25.3174-10.5029Q25.8691-8.86719 25.8691-7.05078Q25.8789-5.24414 25.332-3.6084Q24.7852-1.97266 23.7842-0.610352Q22.7832 0.751953 21.4209 1.74805Q20.0586 2.74414 18.4229 3.2959Q16.7871 3.84766 14.9707 3.84766ZM9.19922-7.05078Q9.19922-6.66992 9.45801-6.4209Q9.7168-6.17188 10.1172-6.17188L14.0625-6.17188L14.0625-2.2168Q14.0625-1.81641 14.3115-1.55762Q14.5605-1.29883 14.9512-1.29883Q15.3516-1.29883 15.6104-1.55273Q15.8691-1.80664 15.8691-2.2168L15.8691-6.17188L19.8242-6.17188Q20.2246-6.17188 20.4785-6.4209Q20.7324-6.66992 20.7324-7.05078Q20.7324-7.46094 20.4785-7.71484Q20.2246-7.96875 19.8242-7.96875L15.8691-7.96875L15.8691-11.9141Q15.8691-12.3242 15.6104-12.583Q15.3516-12.8418 14.9512-12.8418Q14.5605-12.8418 14.3115-12.583Q14.0625-12.3242 14.0625-11.9141L14.0625-7.96875L10.1172-7.96875Q9.70703-7.96875 9.45312-7.71484Q9.19922-7.46094 9.19922-7.05078Z"/>
  </g>
  <text style="stroke:none;fill:black;font-family:sans-serif;font-size:13;font-weight:bold;" transform="matrix(1 0 0 1 263 1953)">Design Variations</text>
  <text style="stroke:none;fill:black;font-family:sans-serif;font-size:13;" transform="matrix(1 0 0 1 263 1971)">Symbols are supported in up to nine weights and three scales.</text>
  <text style="stroke:none;fill:black;font-family:sans-serif;font-size:13;" transform="matrix(1 0 0 1 263 1989)">For optimal layout with text and other symbols, vertically align</text>
  <text style="stroke:none;fill:black;font-family:sans-serif;font-size:13;" transform="matrix(1 0 0 1 263 2007)">symbols with the adjacent text.</text>
  <line style="fill:none;stroke:#00AEEF;stroke-width:0.5;opacity:1.0;" x1="776" x2="776" y1="1919" y2="1933"/>
  <g transform="matrix(1 0 0 1 776 1933)">
   <path d="M3.31055 0.15625Q3.70117 0.15625 3.91602-0.00976562Q4.13086-0.175781 4.26758-0.585938L5.52734-4.0332L11.2891-4.0332L12.5488-0.585938Q12.6855-0.175781 12.9004-0.00976562Q13.1152 0.15625 13.4961 0.15625Q13.8867 0.15625 14.1162-0.0585938Q14.3457-0.273438 14.3457-0.644531Q14.3457-0.869141 14.2383-1.17188L9.6582-13.3691Q9.48242-13.8184 9.17969-14.043Q8.87695-14.2676 8.4082-14.2676Q7.5-14.2676 7.17773-13.3789L2.59766-1.16211Q2.49023-0.859375 2.49023-0.634766Q2.49023-0.263672 2.70996-0.0537109Q2.92969 0.15625 3.31055 0.15625ZM6.00586-5.51758L8.37891-12.0898L8.42773-12.0898L10.8008-5.51758Z"/>
  </g>
  <line style="fill:none;stroke:#00AEEF;stroke-width:0.5;opacity:1.0;" x1="793.197" x2="793.197" y1="1919" y2="1933"/>
  <text style="stroke:none;fill:black;font-family:sans-serif;font-size:13;font-weight:bold;" transform="matrix(1 0 0 1 776 1953)">Margins</text>
  <text style="stroke:none;fill:black;font-family:sans-serif;font-size:13;" transform="matrix(1 0 0 1 776 1971)">Leading and trailing margins on the left and right side of each symbol</text>
  <text style="stroke:none;fill:black;font-family:sans-serif;font-size:13;" transform="matrix(1 0 0 1 776 1989)">can be adjusted by modifying the x-location of the margin guidelines.</text>
  <text style="stroke:none;fill:black;font-family:sans-serif;font-size:13;" transform="matrix(1 0 0 1 776 2007)">Modifications are automatically applied proportionally to all</text>
  <text style="stroke:none;fill:black;font-family:sans-serif;font-size:13;" transform="matrix(1 0 0 1 776 2025)">scales and weights.</text>
  <g transform="matrix(1 0 0 1 1289 1933)">
   <path d="M2.8418 1.86523L4.54102 3.57422Q5.18555 4.22852 5.90332 4.17969Q6.62109 4.13086 7.31445 3.35938L18.0078-8.42773L17.041-9.4043L6.42578 2.27539Q6.16211 2.57812 5.89355 2.61719Q5.625 2.65625 5.27344 2.30469L4.10156 1.14258Q3.75 0.791016 3.79395 0.522461Q3.83789 0.253906 4.14062-0.0195312L15.6152-10.8203L14.6387-11.7871L3.04688-0.898438Q2.30469-0.214844 2.25098 0.498047Q2.19727 1.21094 2.8418 1.86523ZM9.25781-16.3281Q8.94531-16.0254 8.90625-15.6348Q8.86719-15.2441 9.04297-14.9512Q9.21875-14.6777 9.55566-14.541Q9.89258-14.4043 10.3809-14.5215Q11.4746-14.7754 12.5977-14.7314Q13.7207-14.6875 14.7949-13.9844L14.209-12.5293Q13.9551-11.9043 14.0674-11.4404Q14.1797-10.9766 14.5801-10.5664L16.875-8.25195Q17.2363-7.88086 17.5781-7.82227Q17.9199-7.76367 18.3398-7.8418L19.4043-8.03711L20.0684-7.36328L20.0293-6.80664Q20-6.43555 20.1221-6.12305Q20.2441-5.81055 20.6055-5.44922L21.3672-4.70703Q21.7285-4.3457 22.1533-4.33105Q22.5781-4.31641 22.9297-4.66797L25.8398-7.58789Q26.1914-7.93945 26.1816-8.35449Q26.1719-8.76953 25.8105-9.13086L25.0391-9.89258Q24.6875-10.2539 24.3799-10.3857Q24.0723-10.5176 23.7109-10.4883L23.1348-10.4395L22.4902-11.0742L22.7344-12.1973Q22.832-12.6172 22.6953-12.9834Q22.5586-13.3496 22.1191-13.7891L19.9219-15.9766Q18.6719-17.2168 17.2607-17.8369Q15.8496-18.457 14.4189-18.4814Q12.9883-18.5059 11.665-17.959Q10.3418-17.4121 9.25781-16.3281ZM10.752-15.957Q11.6602-16.6211 12.7002-16.9043Q13.7402-17.1875 14.8047-17.085Q15.8691-16.9824 16.8701-16.5137Q17.8711-16.0449 18.7012-15.2051L21.1328-12.793Q21.3086-12.6172 21.3525-12.4512Q21.3965-12.2852 21.3379-12.0312L21.0156-10.5469L22.5195-9.0625L23.5059-9.12109Q23.6914-9.13086 23.7891-9.09668Q23.8867-9.0625 24.0332-8.91602L24.6094-8.33984L22.168-5.89844L21.5918-6.47461Q21.4453-6.62109 21.4062-6.71875Q21.3672-6.81641 21.377-7.01172L21.4453-7.98828L19.9512-9.47266L18.4277-9.21875Q18.1836-9.16992 18.042-9.2041Q17.9004-9.23828 17.7148-9.41406L15.7129-11.416Q15.5176-11.5918 15.4932-11.7529Q15.4688-11.9141 15.5859-12.1875L16.4648-14.2773Q15.293-15.3711 13.8281-15.791Q12.3633-16.2109 10.8398-15.7617Q10.7227-15.7324 10.6885-15.8057Q10.6543-15.8789 10.752-15.957Z"/>
  </g>
  <text style="stroke:none;fill:black;font-family:sans-serif;font-size:13;font-weight:bold;" transform="matrix(1 0 0 1 1289 1953)">Exporting</text>
  <text style="stroke:none;fill:black;font-family:sans-serif;font-size:13;" transform="matrix(1 0 0 1 1289 1971)">Symbols should be outlined when exporting to ensure the</text>
  <text style="stroke:none;fill:black;font-family:sans-serif;font-size:13;" transform="matrix(1 0 0 1 1289 1989)">design is preserved when submitting to Xcode.</text>
  <text id="template-version" style="stroke:none;fill:black;font-family:sans-serif;font-size:13;text-anchor:end;" transform="matrix(1 0 0 1 3036 1933)">Template v.3.0</text>
  <text style="stroke:none;fill:black;font-family:sans-serif;font-size:13;text-anchor:end;" transform="matrix(1 0 0 1 3036 1951)">Requires Xcode 13 or greater</text>
  <text id="descriptive-name" style="stroke:none;fill:black;font-family:sans-serif;font-size:13;text-anchor:end;" transform="matrix(1 0 0 1 3036 1969)">Generated from tv</text>
  <text style="stroke:none;fill:black;font-family:sans-serif;font-size:13;text-anchor:end;" transform="matrix(1 0 0 1 3036 1987)">Typeset at 100 points</text>
  <text style="stroke:none;fill:black;font-family:sans-serif;font-size:13;" transform="matrix(1 0 0 1 263 726)">Small</text>
  <text style="stroke:none;fill:black;font-family:sans-serif;font-size:13;" transform="matrix(1 0 0 1 263 1156)">Medium</text>
  <text style="stroke:none;fill:black;font-family:sans-serif;font-size:13;" transform="matrix(1 0 0 1 263 1586)">Large</text>
 </g>
 <g id="Guides">
  <g id="H-reference" style="fill:#27AAE1;stroke:none;" transform="matrix(1 0 0 1 339 696)">
   <path d="M0.976562 0L3.66211 0L29.3457-67.1387L30.0293-67.1387L30.0293-70.459L28.125-70.459ZM11.6699-24.4629L46.9727-24.4629L46.2402-26.709L12.4512-26.709ZM55.127 0L57.7637 0L30.6152-70.459L29.4434-70.459L29.4434-67.1387Z"/>
  </g>
  <line id="Baseline-S" style="fill:none;stroke:#27AAE1;opacity:1;stroke-width:0.5;" x1="263" x2="3036" y1="696" y2="696"/>
  <line id="Capline-S" style="fill:none;stroke:#27AAE1;opacity:1;stroke-width:0.5;" x1="263" x2="3036" y1="625.541" y2="625.541"/>
  <g id="H-reference" style="fill:#27AAE1;stroke:none;" transform="matrix(1 0 0 1 339 1126)">
   <path d="M0.976562 0L3.66211 0L29.3457-67.1387L30.0293-67.1387L30.0293-70.459L28.125-70.459ZM11.6699-24.4629L46.9727-24.4629L46.2402-26.709L12.4512-26.709ZM55.127 0L57.7637 0L30.6152-70.459L29.4434-70.459L29.4434-67.1387Z"/>
  </g>
  <line id="Baseline-M" style="fill:none;stroke:#27AAE1;opacity:1;stroke-width:0.5;" x1="263" x2="3036" y1="1126" y2="1126"/>
  <line id="Capline-M" style="fill:none;stroke:#27AAE1;opacity:1;stroke-width:0.5;" x1="263" x2="3036" y1="1055.54" y2="1055.54"/>
  <g id="H-reference" style="fill:#27AAE1;stroke:none;" transform="matrix(1 0 0 1 339 1556)">
   <path d="M0.976562 0L3.66211 0L29.3457-67.1387L30.0293-67.1387L30.0293-70.459L28.125-70.459ZM11.6699-24.4629L46.9727-24.4629L46.2402-26.709L12.4512-26.709ZM55.127 0L57.7637 0L30.6152-70.459L29.4434-70.459L29.4434-67.1387Z"/>
  </g>
  <line id="Baseline-L" style="fill:none;stroke:#27AAE1;opacity:1;stroke-width:0.5;" x1="263" x2="3036" y1="1556" y2="1556"/>
  <line id="Capline-L" style="fill:none;stroke:#27AAE1;opacity:1;stroke-width:0.5;" x1="263" x2="3036" y1="1485.54" y2="1485.54"/>
  <line id="left-margin-Regular-M" style="fill:none;stroke:#00AEEF;stroke-width:0.5;opacity:1.0;" x1="1392.45" x2="1392.45" y1="1030.78" y2="1150.12"/>
  <line id="right-margin-Regular-M" style="fill:none;stroke:#00AEEF;stroke-width:0.5;opacity:1.0;" x1="1507.24" x2="1507.24" y1="1030.78" y2="1150.12"/>
 </g>
 <g id="Symbols">
  <g id="Black-L" transform="matrix(1 0 0 1 2860.15 1556)">
   <path class="hierarchical-0:secondary SFSymbolsPreview4D4D4D" d="M39.94-98.5151C42.72-101.286 47.21-101.286 49.98-98.5151L73.4-75.0951L96.82-98.5151C99.59-101.286 104.09-101.286 106.86-98.5151C109.63-95.7351 109.63-91.2451 106.86-88.4751L78.42-60.0351C75.65-57.2651 71.15-57.2651 68.38-60.0351L39.94-88.4751C37.17-91.2451 37.17-95.7351 39.94-98.5151Z"/>
   <path class="hierarchical-1:primary SFSymbolsPreview212121" d="M9.43-53.6751C9.43-63.8851 17.7-72.1551 27.9-72.1551L118.9-72.1551C129.1-72.1551 137.38-63.8851 137.38-53.6751L137.38 8.88488C137.38 19.0849 129.1 27.3549 118.9 27.3549L27.9 27.3549C17.7 27.3549 9.43 19.0849 9.43 8.88488L9.43-53.6751ZM27.9-57.9551C25.54-57.9551 23.63-56.0451 23.63-53.6751L23.63 8.88488C23.63 11.2449 25.54 13.1549 27.9 13.1549L118.9 13.1549C121.26 13.1549 123.18 11.2449 123.18 8.88488L123.18-53.6751C123.18-56.0451 121.26-57.9551 118.9-57.9551L27.9-57.9551Z"/>
  </g>
  <g id="Heavy-L" transform="matrix(1 0 0 1 2564.29 1556)">
   <path class="hierarchical-0:secondary SFSymbolsPreview4D4D4D" d="M39.7-97.745C42.14-100.195 46.1-100.195 48.54-97.745L72.56-73.735L96.58-97.745C99.02-100.195 102.97-100.195 105.41-97.745C107.86-95.305 107.86-91.355 105.41-88.915L76.98-60.475C74.54-58.035 70.58-58.035 68.14-60.475L39.7-88.915C37.26-91.355 37.26-95.305 39.7-97.745Z"/>
   <path class="hierarchical-1:primary SFSymbolsPreview212121" d="M9.43-53.515C9.43-63.255 17.32-71.145 27.06-71.145L118.06-71.145C127.79-71.145 135.68-63.255 135.68-53.515L135.68 9.045C135.68 18.775 127.79 26.665 118.06 26.665L27.06 26.665C17.32 26.665 9.43 18.775 9.43 9.045L9.43-53.515ZM27.06-58.645C24.23-58.645 21.93-56.345 21.93-53.515L21.93 9.045C21.93 11.875 24.23 14.165 27.06 14.165L118.06 14.165C120.89 14.165 123.18 11.875 123.18 9.045L123.18-53.515C123.18-56.345 120.89-58.645 118.06-58.645L27.06-58.645Z"/>
  </g>
  <g id="Bold-L" transform="matrix(1 0 0 1 2268.53 1556)">
   <path class="hierarchical-0:secondary SFSymbolsPreview4D4D4D" d="M39.42-96.885C41.49-98.955 44.85-98.955 46.92-96.885L71.61-72.195L96.3-96.885C98.36-98.955 101.72-98.955 103.79-96.885C105.86-94.815 105.86-91.465 103.79-89.395L75.35-60.955C73.28-58.885 69.93-58.885 67.86-60.955L39.42-89.395C37.35-91.465 37.35-94.815 39.42-96.885Z"/>
   <path class="hierarchical-1:primary SFSymbolsPreview212121" d="M9.43-53.325C9.43-62.535 16.9-70.005 26.11-70.005L117.11-70.005C126.31-70.005 133.78-62.535 133.78-53.325L133.78 9.235C133.78 18.445 126.31 25.905 117.11 25.905L26.11 25.905C16.9 25.905 9.43 18.445 9.43 9.235L9.43-53.325ZM26.11-59.405C22.75-59.405 20.03-56.685 20.03-53.325L20.03 9.235C20.03 12.585 22.75 15.305 26.11 15.305L117.11 15.305C120.46 15.305 123.18 12.585 123.18 9.235L123.18-53.325C123.18-56.685 120.46-59.405 117.11-59.405L26.11-59.405Z"/>
  </g>
  <g id="Semibold-L" transform="matrix(1 0 0 1 1972.47 1556)">
   <path class="hierarchical-0:secondary SFSymbolsPreview4D4D4D" d="M39.22-96.3C41.04-98.12 43.98-98.12 45.8-96.3L70.95-71.15L96.1-96.3C97.92-98.12 100.86-98.12 102.68-96.3C104.49-94.49 104.49-91.54 102.68-89.73L74.24-61.29C72.42-59.47 69.48-59.47 67.66-61.29L39.22-89.73C37.41-91.54 37.41-94.49 39.22-96.3Z"/>
   <path class="hierarchical-1:primary SFSymbolsPreview212121" d="M9.43-53.2C9.43-62.05 16.6-69.23 25.45-69.23L116.45-69.23C125.3-69.23 132.48-62.05 132.48-53.2L132.48 9.36C132.48 18.21 125.3 25.39 116.45 25.39L25.45 25.39C16.6 25.39 9.43 18.21 9.43 9.36L9.43-53.2ZM25.45-59.93C21.74-59.93 18.73-56.92 18.73-53.2L18.73 9.36C18.73 13.08 21.74 16.09 25.45 16.09L116.45 16.09C120.16 16.09 123.18 13.08 123.18 9.36L123.18-53.2C123.18-56.92 120.16-59.93 116.45-59.93L25.45-59.93Z"/>
  </g>
  <g id="Medium-L" transform="matrix(1 0 0 1 1676.26 1556)">
   <path class="hierarchical-0:secondary SFSymbolsPreview4D4D4D" d="M39.08-95.85C40.7-97.47 43.33-97.47 44.95-95.85L70.45-70.35L95.95-95.85C97.57-97.47 100.2-97.47 101.82-95.85C103.44-94.23 103.44-91.6 101.82-89.98L73.38-61.54C71.76-59.92 69.14-59.92 67.52-61.54L39.08-89.98C37.46-91.6 37.46-94.23 39.08-95.85Z"/>
   <path class="hierarchical-1:primary SFSymbolsPreview212121" d="M9.43-53.1C9.43-61.68 16.38-68.63 24.95-68.63L115.95-68.63C124.52-68.63 131.48-61.68 131.48-53.1L131.48 9.46C131.48 18.04 124.52 24.99 115.95 24.99L24.95 24.99C16.38 24.99 9.43 18.04 9.43 9.46L9.43-53.1ZM24.95-60.33C20.96-60.33 17.73-57.09 17.73-53.1L17.73 9.46C17.73 13.45 20.96 16.69 24.95 16.69L115.95 16.69C119.94 16.69 123.18 13.45 123.18 9.46L123.18-53.1C123.18-57.09 119.94-60.33 115.95-60.33L24.95-60.33Z"/>
  </g>
  <g id="Regular-L" transform="matrix(1 0 0 1 1380.19 1556)">
   <path class="hierarchical-0:secondary SFSymbolsPreview4D4D4D" d="M38.9-95.265C40.26-96.635 42.48-96.635 43.85-95.265L69.81-69.305L95.77-95.265C97.14-96.635 99.36-96.635 100.72-95.265C102.09-93.895 102.09-91.685 100.72-90.315L72.28-61.875C70.92-60.515 68.7-60.515 67.34-61.875L38.9-90.315C37.53-91.685 37.53-93.895 38.9-95.265Z"/>
   <path class="hierarchical-1:primary SFSymbolsPreview212121" d="M9.43-52.975C9.43-61.195 16.09-67.855 24.31-67.855L115.31-67.855C123.53-67.855 130.19-61.195 130.19-52.975L130.19 9.585C130.19 17.795 123.53 24.455 115.31 24.455L24.31 24.455C16.09 24.455 9.43 17.795 9.43 9.585L9.43-52.975ZM24.31-60.855C19.96-60.855 16.43-57.325 16.43-52.975L16.43 9.585C16.43 13.935 19.96 17.455 24.31 17.455L115.31 17.455C119.66 17.455 123.19 13.935 123.19 9.585L123.19-52.975C123.19-57.325 119.66-60.855 115.31-60.855L24.31-60.855Z"/>
  </g>
  <g id="Light-L" transform="matrix(1 0 0 1 1084.28 1556)">
   <path class="hierarchical-0:secondary SFSymbolsPreview4D4D4D" d="M38.66-94.54C39.72-95.6 41.43-95.6 42.48-94.54L69.01-68.02L95.54-94.54C96.59-95.6 98.3-95.6 99.36-94.54C100.41-93.49 100.41-91.78 99.36-90.73L70.92-62.29C69.86-61.23 68.16-61.23 67.1-62.29L38.66-90.73C37.61-91.78 37.61-93.49 38.66-94.54Z"/>
   <path class="hierarchical-1:primary SFSymbolsPreview212121" d="M9.43-52.82C9.43-60.6 15.74-66.9 23.51-66.9L114.51-66.9C122.28-66.9 128.58-60.6 128.58-52.82L128.58 9.74C128.58 17.51 122.28 23.82 114.51 23.82L23.51 23.82C15.74 23.82 9.43 17.51 9.43 9.74L9.43-52.82ZM23.51-61.5C18.72-61.5 14.83-57.61 14.83-52.82L14.83 9.74C14.83 14.53 18.72 18.42 23.51 18.42L114.51 18.42C119.3 18.42 123.18 14.53 123.18 9.74L123.18-52.82C123.18-57.61 119.3-61.5 114.51-61.5L23.51-61.5Z"/>
  </g>
  <g id="Thin-L" transform="matrix(1 0 0 1 788.622 1556)">
   <path class="hierarchical-0:secondary SFSymbolsPreview4D4D4D" d="M38.351-93.59C38.995-94.23 40.04-94.23 40.684-93.59L67.955-66.32L95.226-93.59C95.87-94.23 96.915-94.23 97.559-93.59C98.204-92.95 98.204-91.9 97.559-91.26L69.122-62.82C68.477-62.18 67.433-62.18 66.788-62.82L38.351-91.26C37.707-91.9 37.707-92.95 38.351-93.59Z"/>
   <path class="hierarchical-1:primary SFSymbolsPreview212121" d="M9.43-52.61C9.43-59.8 15.262-65.64 22.455-65.64L113.455-65.64C120.649-65.64 126.48-59.8 126.48-52.61L126.48 9.95C126.48 17.14 120.649 22.98 113.455 22.98L22.455 22.98C15.262 22.98 9.43 17.14 9.43 9.95L9.43-52.61ZM22.455-62.34C17.084-62.34 12.73-57.98 12.73-52.61L12.73 9.95C12.73 15.32 17.084 19.68 22.455 19.68L113.455 19.68C118.826 19.68 123.18 15.32 123.18 9.95L123.18-52.61C123.18-57.98 118.826-62.34 113.455-62.34L22.455-62.34Z"/>
  </g>
  <g id="Ultralight-L" transform="matrix(1 0 0 1 492.461 1556)">
   <path class="hierarchical-0:secondary SFSymbolsPreview4D4D4D" d="M38.19-93.095C38.619-93.525 39.316-93.525 39.745-93.095L67.405-65.445L95.065-93.095C95.494-93.525 96.191-93.525 96.62-93.095C97.05-92.675 97.05-91.975 96.62-91.545L68.183-63.105C67.753-62.675 67.057-62.675 66.627-63.105L38.19-91.545C37.76-91.975 37.76-92.675 38.19-93.095Z"/>
   <path class="hierarchical-1:primary SFSymbolsPreview212121" d="M9.43-52.505C9.43-59.395 15.015-64.985 21.905-64.985L112.905-64.985C119.795-64.985 125.38-59.395 125.38-52.505L125.38 10.055C125.38 16.945 119.795 22.525 112.905 22.525L21.905 22.525C15.015 22.525 9.43 16.945 9.43 10.055L9.43-52.505ZM21.905-62.785C16.23-62.785 11.63-58.185 11.63-52.505L11.63 10.055C11.63 15.725 16.23 20.325 21.905 20.325L112.905 20.325C118.58 20.325 123.18 15.725 123.18 10.055L123.18-52.505C123.18-58.185 118.58-62.785 112.905-62.785L21.905-62.785Z"/>
  </g>
  <g id="Black-M" transform="matrix(1 0 0 1 2872.4 1126)">
   <path class="hierarchical-0:secondary SFSymbolsPreview4D4D4D" d="M33.82-86.265C36.59-89.035 41.09-89.035 43.86-86.265L61.15-68.975L78.45-86.265C81.22-89.035 85.71-89.035 88.49-86.265C91.26-83.485 91.26-78.995 88.49-76.225L66.17-53.905C63.4-51.135 58.91-51.135 56.13-53.905L33.82-76.225C31.05-78.995 31.05-83.485 33.82-86.265Z"/>
   <path class="hierarchical-1:primary SFSymbolsPreview212121" d="M9.43-50.005C9.43-58.855 16.6-66.025 25.45-66.025L96.85-66.025C105.7-66.025 112.88-58.855 112.88-50.005L112.88-0.915C112.88 7.935 105.7 15.105 96.85 15.105L25.45 15.105C16.6 15.105 9.43 7.935 9.43-0.915L9.43-50.005ZM25.45-51.825C24.45-51.825 23.63-51.015 23.63-50.005L23.63-0.915C23.63 0.095 24.45 0.905 25.45 0.905L96.85 0.905C97.86 0.905 98.68 0.095 98.68-0.915L98.68-50.005C98.68-51.015 97.86-51.825 96.85-51.825L25.45-51.825Z"/>
  </g>
  <g id="Heavy-M" transform="matrix(1 0 0 1 2576.54 1126)">
   <path class="hierarchical-0:secondary SFSymbolsPreview4D4D4D" d="M33.57-85.495C36.01-87.945 39.97-87.945 42.41-85.495L60.3-67.605L78.2-85.495C80.64-87.945 84.6-87.945 87.04-85.495C89.48-83.055 89.48-79.105 87.04-76.665L64.72-54.345C62.28-51.905 58.33-51.905 55.89-54.345L33.57-76.665C31.13-79.105 31.13-83.055 33.57-85.495Z"/>
   <path class="hierarchical-1:primary SFSymbolsPreview212121" d="M9.43-49.845C9.43-58.225 16.22-65.015 24.6-65.015L96-65.015C104.39-65.015 111.18-58.225 111.18-49.845L111.18-0.755C111.18 7.625 104.39 14.415 96 14.415L24.6 14.415C16.22 14.415 9.43 7.625 9.43-0.755L9.43-49.845ZM24.6-52.515C23.13-52.515 21.93-51.325 21.93-49.845L21.93-0.755C21.93 0.725 23.13 1.915 24.6 1.915L96 1.915C97.48 1.915 98.68 0.725 98.68-0.755L98.68-49.845C98.68-51.325 97.48-52.515 96-52.515L24.6-52.515Z"/>
  </g>
  <g id="Bold-M" transform="matrix(1 0 0 1 2280.78 1126)">
   <path class="hierarchical-0:secondary SFSymbolsPreview4D4D4D" d="M33.3-84.635C35.36-86.705 38.72-86.705 40.79-84.635L59.36-66.075L77.92-84.635C79.99-86.705 83.35-86.705 85.42-84.635C87.49-82.565 87.49-79.215 85.42-77.145L63.1-54.835C61.03-52.765 57.68-52.765 55.61-54.835L33.3-77.145C31.23-79.215 31.23-82.565 33.3-84.635Z"/>
   <path class="hierarchical-1:primary SFSymbolsPreview212121" d="M9.43-49.655C9.43-57.515 15.8-63.875 23.66-63.875L95.06-63.875C102.91-63.875 109.28-57.515 109.28-49.655L109.28-0.565C109.28 7.295 102.91 13.655 95.06 13.655L23.66 13.655C15.8 13.655 9.43 7.295 9.43-0.565L9.43-49.655ZM23.66-53.275C21.65-53.275 20.03-51.655 20.03-49.655L20.03-0.565C20.03 1.435 21.65 3.055 23.66 3.055L95.06 3.055C97.06 3.055 98.68 1.435 98.68-0.565L98.68-49.655C98.68-51.655 97.06-53.275 95.06-53.275L23.66-53.275Z"/>
  </g>
  <g id="Semibold-M" transform="matrix(1 0 0 1 1984.72 1126)">
   <path class="hierarchical-0:secondary SFSymbolsPreview4D4D4D" d="M33.1-84.05C34.92-85.87 37.86-85.87 39.68-84.05L58.7-65.03L77.72-84.05C79.54-85.87 82.48-85.87 84.3-84.05C86.12-82.24 86.12-79.29 84.3-77.48L61.99-55.16C60.17-53.35 57.23-53.35 55.41-55.16L33.1-77.48C31.28-79.29 31.28-82.24 33.1-84.05Z"/>
   <path class="hierarchical-1:primary SFSymbolsPreview212121" d="M9.43-49.53C9.43-57.02 15.5-63.1 23-63.1L94.4-63.1C101.9-63.1 107.98-57.02 107.98-49.53L107.98-0.44C107.98 7.06 101.9 13.14 94.4 13.14L23 13.14C15.5 13.14 9.43 7.06 9.43-0.44L9.43-49.53ZM23-53.8C20.64-53.8 18.73-51.89 18.73-49.53L18.73-0.44C18.73 1.92 20.64 3.84 23 3.84L94.4 3.84C96.76 3.84 98.68 1.92 98.68-0.44L98.68-49.53C98.68-51.89 96.76-53.8 94.4-53.8L23-53.8Z"/>
  </g>
  <g id="Medium-M" transform="matrix(1 0 0 1 1688.51 1126)">
   <path class="hierarchical-0:secondary SFSymbolsPreview4D4D4D" d="M32.95-83.6C34.57-85.22 37.2-85.22 38.82-83.6L58.2-64.22L77.58-83.6C79.2-85.22 81.83-85.22 83.45-83.6C85.07-81.98 85.07-79.35 83.45-77.73L61.13-55.42C59.51-53.8 56.89-53.8 55.27-55.42L32.95-77.73C31.33-79.35 31.33-81.98 32.95-83.6Z"/>
   <path class="hierarchical-1:primary SFSymbolsPreview212121" d="M9.43-49.43C9.43-56.65 15.28-62.5 22.5-62.5L93.9-62.5C101.12-62.5 106.98-56.65 106.98-49.43L106.98-0.34C106.98 6.88 101.12 12.74 93.9 12.74L22.5 12.74C15.28 12.74 9.43 6.88 9.43-0.34L9.43-49.43ZM22.5-54.2C19.86-54.2 17.73-52.06 17.73-49.43L17.73-0.34C17.73 2.3 19.86 4.44 22.5 4.44L93.9 4.44C96.54 4.44 98.68 2.3 98.68-0.34L98.68-49.43C98.68-52.06 96.54-54.2 93.9-54.2L22.5-54.2Z"/>
  </g>
  <g id="Regular-M" transform="matrix(1 0 0 1 1392.45 1126)">
   <path class="hierarchical-0:secondary SFSymbolsPreview4D4D4D" d="M32.76-83.015C34.13-84.385 36.35-84.385 37.71-83.015L57.55-63.175L77.39-83.015C78.75-84.385 80.97-84.385 82.34-83.015C83.7-81.645 83.7-79.435 82.34-78.065L60.02-55.755C58.66-54.385 56.44-54.385 55.08-55.755L32.76-78.065C31.4-79.435 31.4-81.645 32.76-83.015Z"/>
   <path class="hierarchical-1:primary SFSymbolsPreview212121" d="M9.43-49.305C9.43-56.165 14.99-61.725 21.85-61.725L93.25-61.725C100.11-61.725 105.67-56.165 105.67-49.305L105.67-0.215C105.67 6.645 100.11 12.205 93.25 12.205L21.85 12.205C14.99 12.205 9.43 6.645 9.43-0.215L9.43-49.305ZM21.85-54.725C18.85-54.725 16.43-52.295 16.43-49.305L16.43-0.215C16.43 2.785 18.85 5.205 21.85 5.205L93.25 5.205C96.25 5.205 98.67 2.785 98.67-0.215L98.67-49.305C98.67-52.295 96.25-54.725 93.25-54.725L21.85-54.725Z"/>
  </g>
  <g id="Light-M" transform="matrix(1 0 0 1 1096.53 1126)">
   <path class="hierarchical-0:secondary SFSymbolsPreview4D4D4D" d="M32.54-82.29C33.59-83.35 35.3-83.35 36.36-82.29L56.76-61.89L77.16-82.29C78.22-83.35 79.93-83.35 80.98-82.29C82.04-81.24 82.04-79.53 80.98-78.48L58.67-56.16C57.61-55.11 55.91-55.11 54.85-56.16L32.54-78.48C31.48-79.53 31.48-81.24 32.54-82.29Z"/>
   <path class="hierarchical-1:primary SFSymbolsPreview212121" d="M9.43-49.15C9.43-55.57 14.64-60.77 21.06-60.77L92.46-60.77C98.88-60.77 104.08-55.57 104.08-49.15L104.08-0.06C104.08 6.36 98.88 11.57 92.46 11.57L21.06 11.57C14.64 11.57 9.43 6.36 9.43-0.06L9.43-49.15ZM21.06-55.37C17.62-55.37 14.83-52.59 14.83-49.15L14.83-0.06C14.83 3.38 17.62 6.17 21.06 6.17L92.46 6.17C95.9 6.17 98.68 3.38 98.68-0.06L98.68-49.15C98.68-52.59 95.9-55.37 92.46-55.37L21.06-55.37Z"/>
  </g>
  <g id="Thin-M" transform="matrix(1 0 0 1 800.872 1126)">
   <path class="hierarchical-0:secondary SFSymbolsPreview4D4D4D" d="M32.226-81.34C32.87-81.98 33.915-81.98 34.559-81.34L55.705-60.19L76.851-81.34C77.495-81.98 78.54-81.98 79.184-81.34C79.829-80.7 79.829-79.65 79.184-79.01L56.872-56.69C56.227-56.05 55.183-56.05 54.538-56.69L32.226-79.01C31.582-79.65 31.582-80.7 32.226-81.34Z"/>
   <path class="hierarchical-1:primary SFSymbolsPreview212121" d="M9.43-48.94C9.43-54.78 14.165-59.51 20.005-59.51L91.405-59.51C97.246-59.51 101.98-54.78 101.98-48.94L101.98 0.15C101.98 5.99 97.246 10.73 91.405 10.73L20.005 10.73C14.165 10.73 9.43 5.99 9.43 0.15L9.43-48.94ZM20.005-56.21C15.987-56.21 12.73-52.95 12.73-48.94L12.73 0.15C12.73 4.17 15.987 7.43 20.005 7.43L91.405 7.43C95.423 7.43 98.68 4.17 98.68 0.15L98.68-48.94C98.68-52.95 95.423-56.21 91.405-56.21L20.005-56.21Z"/>
  </g>
  <g id="Ultralight-M" transform="matrix(1 0 0 1 504.711 1126)">
   <path class="hierarchical-0:secondary SFSymbolsPreview4D4D4D" d="M32.065-80.845C32.494-81.275 33.191-81.275 33.62-80.845L55.155-59.315L76.69-80.845C77.119-81.275 77.816-81.275 78.245-80.845C78.675-80.425 78.675-79.725 78.245-79.295L55.933-56.985C55.503-56.555 54.807-56.555 54.377-56.985L32.065-79.295C31.635-79.725 31.635-80.425 32.065-80.845Z"/>
   <path class="hierarchical-1:primary SFSymbolsPreview212121" d="M9.43-48.835C9.43-54.375 13.918-58.855 19.455-58.855L90.855-58.855C96.392-58.855 100.88-54.375 100.88-48.835L100.88 0.255C100.88 5.785 96.392 10.275 90.855 10.275L19.455 10.275C13.918 10.275 9.43 5.785 9.43 0.255L9.43-48.835ZM19.455-56.655C15.133-56.655 11.63-53.155 11.63-48.835L11.63 0.255C11.63 4.575 15.133 8.075 19.455 8.075L90.855 8.075C95.177 8.075 98.68 4.575 98.68 0.255L98.68-48.835C98.68-53.155 95.177-56.655 90.855-56.655L19.455-56.655Z"/>
  </g>
  <g id="Black-S" transform="matrix(1 0 0 1 2882.03 696)">
   <path class="hierarchical-0:secondary SFSymbolsPreview4D4D4D" d="M29.01-76.7405C31.78-79.5134 36.28-79.5134 39.05-76.7405L51.53-64.2615L64.01-76.7405C66.78-79.5134 71.28-79.5134 74.05-76.7405C76.82-73.9675 76.82-69.4725 74.05-66.6995L56.55-49.1995C53.78-46.4264 49.28-46.4264 46.51-49.1995L29.01-66.6995C26.24-69.4725 26.24-73.9675 29.01-76.7405Z"/>
   <path class="hierarchical-1:primary SFSymbolsPreview212121" d="M9.43-47.2204C9.43-55.0075 15.74-61.3205 23.53-61.3205L79.53-61.3205C87.32-61.3205 93.63-55.0075 93.63-47.2204L93.63-8.72047C93.63-0.932475 87.32 5.37953 79.53 5.37953L23.53 5.37953C15.74 5.37953 9.43-0.932475 9.43-8.72047L9.43-47.2204ZM23.63-47.1205L23.63-8.82047L79.43-8.82047L79.43-47.1205L23.63-47.1205Z"/>
  </g>
  <g id="Heavy-S" transform="matrix(1 0 0 1 2586.16 696)">
   <path class="hierarchical-0:secondary SFSymbolsPreview4D4D4D" d="M28.76-75.9715C31.2-78.4124 35.16-78.4124 37.6-75.9715L50.68-62.8914L63.76-75.9715C66.2-78.4124 70.16-78.4124 72.6-75.9715C75.04-73.5314 75.04-69.5734 72.6-67.1334L55.1-49.6334C52.66-47.1925 48.7-47.1925 46.26-49.6334L28.76-67.1334C26.32-69.5734 26.32-73.5314 28.76-75.9715Z"/>
   <path class="hierarchical-1:primary SFSymbolsPreview212121" d="M9.43-47.0524C9.43-54.3704 15.36-60.3024 22.68-60.3024L78.68-60.3024C86-60.3024 91.93-54.3704 91.93-47.0524L91.93-8.5525C91.93-1.2345 86 4.6975 78.68 4.6975L22.68 4.6975C15.36 4.6975 9.43-1.2345 9.43-8.5525L9.43-47.0524ZM22.68-47.8024C22.27-47.8024 21.93-47.4664 21.93-47.0524L21.93-8.5525C21.93-8.1385 22.27-7.8025 22.68-7.8025L78.68-7.8025C79.09-7.8025 79.43-8.1385 79.43-8.5525L79.43-47.0524C79.43-47.4664 79.09-47.8024 78.68-47.8024L22.68-47.8024Z"/>
  </g>
  <g id="Bold-S" transform="matrix(1 0 0 1 2290.4 696)">
   <path class="hierarchical-0:secondary SFSymbolsPreview4D4D4D" d="M28.48-74.908C30.55-76.978 33.9-76.978 35.97-74.908L49.73-61.156L63.48-74.908C65.55-76.978 68.9-76.978 70.97-74.908C73.04-72.839 73.04-69.483 70.97-67.413L53.47-49.913C51.4-47.843 48.05-47.843 45.98-49.913L28.48-67.413C26.41-69.483 26.41-72.839 28.48-74.908Z"/>
   <path class="hierarchical-1:primary SFSymbolsPreview212121" d="M9.43-46.661C9.43-53.454 14.93-58.961 21.73-58.961L77.73-58.961C84.52-58.961 90.03-53.454 90.03-46.661L90.03-8.161C90.03-1.368 84.52 4.139 77.73 4.139L21.73 4.139C14.93 4.139 9.43-1.368 9.43-8.161L9.43-46.661ZM21.73-48.361C20.79-48.361 20.03-47.6 20.03-46.661L20.03-8.161C20.03-7.222 20.79-6.461 21.73-6.461L77.73-6.461C78.66-6.461 79.43-7.222 79.43-8.161L79.43-46.661C79.43-47.6 78.66-48.361 77.73-48.361L21.73-48.361Z"/>
  </g>
  <g id="Semibold-S" transform="matrix(1 0 0 1 1994.34 696)">
   <path class="hierarchical-0:secondary SFSymbolsPreview4D4D4D" d="M28.29-74.319C30.11-76.135 33.05-76.135 34.87-74.319L49.08-60.108L63.29-74.319C65.11-76.135 68.05-76.135 69.87-74.319C71.68-72.504 71.68-69.559 69.87-67.743L52.37-50.243C50.55-48.427 47.61-48.427 45.79-50.243L28.29-67.743C26.48-69.559 26.48-72.504 28.29-74.319Z"/>
   <path class="hierarchical-1:primary SFSymbolsPreview212121" d="M9.43-46.531C9.43-52.966 14.65-58.181 21.08-58.181L77.08-58.181C83.51-58.181 88.73-52.966 88.73-46.531L88.73-8.031C88.73-1.597 83.51 3.619 77.08 3.619L21.08 3.619C14.65 3.619 9.43-1.597 9.43-8.031L9.43-46.531ZM21.08-48.881C19.78-48.881 18.73-47.829 18.73-46.531L18.73-8.031C18.73-6.734 19.78-5.681 21.08-5.681L77.08-5.681C78.38-5.681 79.43-6.734 79.43-8.031L79.43-46.531C79.43-47.829 78.38-48.881 77.08-48.881L21.08-48.881Z"/>
  </g>
  <g id="Medium-S" transform="matrix(1 0 0 1 1698.13 696)">
   <path class="hierarchical-0:secondary SFSymbolsPreview4D4D4D" d="M28.15-73.8685C29.77-75.4894 32.39-75.4894 34.01-73.8685L48.58-59.3024L63.15-73.8685C64.77-75.4894 67.39-75.4894 69.01-73.8685C70.64-72.2475 70.64-69.6204 69.01-67.9994L51.51-50.4994C49.89-48.8785 47.27-48.8785 45.65-50.4994L28.15-67.9994C26.52-69.6204 26.52-72.2475 28.15-73.8685Z"/>
   <path class="hierarchical-1:primary SFSymbolsPreview212121" d="M9.43-46.4335C9.43-52.5914 14.42-57.5835 20.58-57.5835L76.58-57.5835C82.74-57.5835 87.73-52.5914 87.73-46.4335L87.73-7.93347C87.73-1.77548 82.74 3.21653 76.58 3.21653L20.58 3.21653C14.42 3.21653 9.43-1.77548 9.43-7.93347L9.43-46.4335ZM20.58-49.2834C19.01-49.2834 17.73-48.0075 17.73-46.4335L17.73-7.93347C17.73-6.35947 19.01-5.08348 20.58-5.08348L76.58-5.08348C78.15-5.08348 79.43-6.35947 79.43-7.93347L79.43-46.4335C79.43-48.0075 78.15-49.2834 76.58-49.2834L20.58-49.2834Z"/>
  </g>
  <g id="Regular-S" transform="matrix(1 0 0 1 1402.07 696)">
   <path class="hierarchical-0:secondary SFSymbolsPreview4D4D4D" d="M27.96-73.2835C29.32-74.6505 31.54-74.6505 32.9-73.2835L47.93-58.2585L62.96-73.2835C64.32-74.6505 66.54-74.6505 67.9-73.2835C69.27-71.9165 69.27-69.7005 67.9-68.3335L50.4-50.8335C49.04-49.4665 46.82-49.4665 45.46-50.8335L27.96-68.3335C26.59-69.7005 26.59-71.9165 27.96-73.2835Z"/>
   <path class="hierarchical-1:primary SFSymbolsPreview212121" d="M9.43-46.3084C9.43-52.1075 14.13-56.8084 19.93-56.8084L75.93-56.8084C81.73-56.8084 86.43-52.1075 86.43-46.3084L86.43-7.8085C86.43-2.0095 81.73 2.6915 75.93 2.6915L19.93 2.6915C14.13 2.6915 9.43-2.0095 9.43-7.8085L9.43-46.3084ZM19.93-49.8084C18-49.8084 16.43-48.2415 16.43-46.3084L16.43-7.8085C16.43-5.8755 18-4.3085 19.93-4.3085L75.93-4.3085C77.86-4.3085 79.43-5.8755 79.43-7.8085L79.43-46.3084C79.43-48.2415 77.86-49.8084 75.93-49.8084L19.93-49.8084Z"/>
  </g>
  <g id="Light-S" transform="matrix(1 0 0 1 1106.16 696)">
   <path class="hierarchical-0:secondary SFSymbolsPreview4D4D4D" d="M27.72-72.5604C28.78-73.6154 30.48-73.6154 31.54-72.5604L47.13-56.9704L62.72-72.5604C63.78-73.6154 65.48-73.6154 66.54-72.5604C67.59-71.5065 67.59-69.7964 66.54-68.7424L49.04-51.2424C47.98-50.1884 46.28-50.1884 45.22-51.2424L27.72-68.7424C26.67-69.7964 26.67-71.5065 27.72-72.5604Z"/>
   <path class="hierarchical-1:primary SFSymbolsPreview212121" d="M9.43-46.1514C9.43-51.5084 13.77-55.8514 19.13-55.8514L75.13-55.8514C80.49-55.8514 84.83-51.5084 84.83-46.1514L84.83-7.6515C84.83-2.2945 80.49 2.0485 75.13 2.0485L19.13 2.0485C13.77 2.0485 9.43-2.2945 9.43-7.6515L9.43-46.1514ZM19.13-50.4514C16.75-50.4514 14.83-48.5264 14.83-46.1514L14.83-7.6515C14.83-5.2765 16.75-3.3515 19.13-3.3515L75.13-3.3515C77.5-3.3515 79.43-5.2765 79.43-7.6515L79.43-46.1514C79.43-48.5264 77.5-50.4514 75.13-50.4514L19.13-50.4514Z"/>
  </g>
  <g id="Thin-S" transform="matrix(1 0 0 1 810.497 696)">
   <path class="hierarchical-0:secondary SFSymbolsPreview4D4D4D" d="M27.413-71.6124C28.058-72.2574 29.102-72.2574 29.747-71.6124L46.08-55.2794L62.413-71.6124C63.058-72.2574 64.102-72.2574 64.747-71.6124C65.391-70.9684 65.391-69.9235 64.747-69.2794L47.247-51.7794C46.602-51.1345 45.558-51.1345 44.913-51.7794L27.413-69.2794C26.769-69.9235 26.769-70.9684 27.413-71.6124Z"/>
   <path class="hierarchical-1:primary SFSymbolsPreview212121" d="M9.43-45.9456C9.43-50.7234 13.303-54.5956 18.08-54.5956L74.08-54.5956C78.857-54.5956 82.73-50.7234 82.73-45.9456L82.73-7.4455C82.73-2.6685 78.857 1.2045 74.08 1.2045L18.08 1.2045C13.303 1.2045 9.43-2.6685 9.43-7.4455L9.43-45.9456ZM18.08-51.2954C15.125-51.2954 12.73-48.9004 12.73-45.9456L12.73-7.4455C12.73-4.4915 15.125-2.0955 18.08-2.0955L74.08-2.0955C77.035-2.0955 79.43-4.4915 79.43-7.4455L79.43-45.9456C79.43-48.9004 77.035-51.2954 74.08-51.2954L18.08-51.2954Z"/>
  </g>
  <g id="Ultralight-S" transform="matrix(1 0 0 1 514.336 696)">
   <path class="hierarchical-0:secondary SFSymbolsPreview4D4D4D" d="M27.252-71.119C27.682-71.549 28.378-71.549 28.808-71.119L45.53-54.397L62.252-71.119C62.682-71.549 63.378-71.549 63.808-71.119C64.237-70.69 64.237-69.993 63.808-69.564L46.308-52.064C45.878-51.634 45.182-51.634 44.752-52.064L27.252-69.564C26.823-69.993 26.823-70.69 27.252-71.119Z"/>
   <path class="hierarchical-1:primary SFSymbolsPreview212121" d="M9.43-45.842C9.43-50.315 13.056-53.942 17.53-53.942L73.53-53.942C78.003-53.942 81.63-50.315 81.63-45.842L81.63-7.342C81.63-2.868 78.003 0.758 73.53 0.758L17.53 0.758C13.056 0.758 9.43-2.868 9.43-7.342L9.43-45.842ZM17.53-51.742C14.271-51.742 11.63-49.1 11.63-45.842L11.63-7.342C11.63-4.083 14.271-1.442 17.53-1.442L73.53-1.442C76.788-1.442 79.43-4.083 79.43-7.342L79.43-45.842C79.43-49.1 76.788-51.742 73.53-51.742L17.53-51.742Z"/>
  </g>
 </g>
</svg>
