<?xml version="1.0" encoding="UTF-8"?>
<!--Generator: Apple Native CoreSVG 175-->
<!DOCTYPE svg
PUBLIC "-//W3C//DTD SVG 1.1//EN"
       "http://www.w3.org/Graphics/SVG/1.1/DTD/svg11.dtd">
<svg version="1.1" xmlns="http://www.w3.org/2000/svg" xmlns:xlink="http://www.w3.org/1999/xlink" width="3300" height="2200">
 <!--glyph: "", point size: 100.0, font version: "17.0d12e1", template writer version: "65.1"-->
 <style>.hierarchical-0:primary {fill:#212121}
.hierarchical-1:secondary {fill:#4D4D4D}

.SFSymbolsPreview212121 {fill:#212121;opacity:1.0}
.SFSymbolsPreview4D4D4D {fill:#4D4D4D;opacity:1.0}
</style>
 <g id="Notes">
  <rect height="2200" id="artboard" style="fill:white;opacity:1" width="3300" x="0" y="0"/>
  <line style="fill:none;stroke:black;opacity:1;stroke-width:0.5;" x1="263" x2="3036" y1="292" y2="292"/>
  <text style="stroke:none;fill:black;font-family:sans-serif;font-size:13;font-weight:bold;" transform="matrix(1 0 0 1 263 322)">Weight/Scale Variations</text>
  <text style="stroke:none;fill:black;font-family:sans-serif;font-size:13;text-anchor:middle;" transform="matrix(1 0 0 1 559.711 322)">Ultralight</text>
  <text style="stroke:none;fill:black;font-family:sans-serif;font-size:13;text-anchor:middle;" transform="matrix(1 0 0 1 856.422 322)">Thin</text>
  <text style="stroke:none;fill:black;font-family:sans-serif;font-size:13;text-anchor:middle;" transform="matrix(1 0 0 1 1153.13 322)">Light</text>
  <text style="stroke:none;fill:black;font-family:sans-serif;font-size:13;text-anchor:middle;" transform="matrix(1 0 0 1 1449.84 322)">Regular</text>
  <text style="stroke:none;fill:black;font-family:sans-serif;font-size:13;text-anchor:middle;" transform="matrix(1 0 0 1 1746.56 322)">Medium</text>
  <text style="stroke:none;fill:black;font-family:sans-serif;font-size:13;text-anchor:middle;" transform="matrix(1 0 0 1 2043.27 322)">Semibold</text>
  <text style="stroke:none;fill:black;font-family:sans-serif;font-size:13;text-anchor:middle;" transform="matrix(1 0 0 1 2339.98 322)">Bold</text>
  <text style="stroke:none;fill:black;font-family:sans-serif;font-size:13;text-anchor:middle;" transform="matrix(1 0 0 1 2636.69 322)">Heavy</text>
  <text style="stroke:none;fill:black;font-family:sans-serif;font-size:13;text-anchor:middle;" transform="matrix(1 0 0 1 2933.4 322)">Black</text>
  <line style="fill:none;stroke:black;opacity:1;stroke-width:0.5;" x1="263" x2="3036" y1="1903" y2="1903"/>
  <g transform="matrix(1 0 0 1 263 1933)">
   <path d="M9.24805 0.830078Q10.8691 0.830078 12.2949 0.214844Q13.7207-0.400391 14.8096-1.49414Q15.8984-2.58789 16.5186-4.01367Q17.1387-5.43945 17.1387-7.05078Q17.1387-8.66211 16.5186-10.0879Q15.8984-11.5137 14.8047-12.6074Q13.7109-13.7012 12.2852-14.3164Q10.8594-14.9316 9.23828-14.9316Q7.62695-14.9316 6.20117-14.3164Q4.77539-13.7012 3.69141-12.6074Q2.60742-11.5137 1.9873-10.0879Q1.36719-8.66211 1.36719-7.05078Q1.36719-5.43945 1.9873-4.01367Q2.60742-2.58789 3.69629-1.49414Q4.78516-0.400391 6.21094 0.214844Q7.63672 0.830078 9.24805 0.830078ZM9.24805-0.654297Q7.91992-0.654297 6.7627-1.14746Q5.60547-1.64062 4.73145-2.51953Q3.85742-3.39844 3.36426-4.56055Q2.87109-5.72266 2.87109-7.05078Q2.87109-8.37891 3.35938-9.54102Q3.84766-10.7031 4.72168-11.582Q5.5957-12.4609 6.75293-12.9541Q7.91016-13.4473 9.23828-13.4473Q10.5762-13.4473 11.7334-12.9541Q12.8906-12.4609 13.7695-11.582Q14.6484-10.7031 15.1465-9.54102Q15.6445-8.37891 15.6445-7.05078Q15.6445-5.72266 15.1514-4.56055Q14.6582-3.39844 13.7842-2.51953Q12.9102-1.64062 11.748-1.14746Q10.5859-0.654297 9.24805-0.654297ZM5.6543-7.05078Q5.6543-6.72852 5.85938-6.52832Q6.06445-6.32812 6.40625-6.32812L8.51562-6.32812L8.51562-4.20898Q8.51562-3.88672 8.71094-3.67676Q8.90625-3.4668 9.23828-3.4668Q9.56055-3.4668 9.77051-3.67676Q9.98047-3.88672 9.98047-4.20898L9.98047-6.32812L12.0898-6.32812Q12.4219-6.32812 12.627-6.52832Q12.832-6.72852 12.832-7.05078Q12.832-7.38281 12.627-7.58789Q12.4219-7.79297 12.0898-7.79297L9.98047-7.79297L9.98047-9.90234Q9.98047-10.2344 9.77051-10.4443Q9.56055-10.6543 9.23828-10.6543Q8.90625-10.6543 8.71094-10.4443Q8.51562-10.2344 8.51562-9.90234L8.51562-7.79297L6.40625-7.79297Q6.06445-7.79297 5.85938-7.58789Q5.6543-7.38281 5.6543-7.05078Z"/>
  </g>
  <g transform="matrix(1 0 0 1 281.867 1933)">
   <path d="M11.709 2.91016Q13.75 2.91016 15.5518 2.12891Q17.3535 1.34766 18.7305-0.0292969Q20.1074-1.40625 20.8887-3.20801Q21.6699-5.00977 21.6699-7.05078Q21.6699-9.0918 20.8887-10.8936Q20.1074-12.6953 18.7305-14.0723Q17.3535-15.4492 15.5469-16.2305Q13.7402-17.0117 11.6992-17.0117Q9.6582-17.0117 7.85645-16.2305Q6.05469-15.4492 4.68262-14.0723Q3.31055-12.6953 2.5293-10.8936Q1.74805-9.0918 1.74805-7.05078Q1.74805-5.00977 2.5293-3.20801Q3.31055-1.40625 4.6875-0.0292969Q6.06445 1.34766 7.86621 2.12891Q9.66797 2.91016 11.709 2.91016ZM11.709 1.25Q9.98047 1.25 8.47656 0.605469Q6.97266-0.0390625 5.83496-1.17676Q4.69727-2.31445 4.05762-3.81836Q3.41797-5.32227 3.41797-7.05078Q3.41797-8.7793 4.05762-10.2832Q4.69727-11.7871 5.83008-12.9297Q6.96289-14.0723 8.4668-14.7119Q9.9707-15.3516 11.6992-15.3516Q13.4277-15.3516 14.9316-14.7119Q16.4355-14.0723 17.5781-12.9297Q18.7207-11.7871 19.3652-10.2832Q20.0098-8.7793 20.0098-7.05078Q20.0098-5.32227 19.3701-3.81836Q18.7305-2.31445 17.5928-1.17676Q16.4551-0.0390625 14.9463 0.605469Q13.4375 1.25 11.709 1.25ZM7.17773-7.05078Q7.17773-6.69922 7.41211-6.47461Q7.64648-6.25 8.01758-6.25L10.8887-6.25L10.8887-3.36914Q10.8887-2.99805 11.1133-2.76855Q11.3379-2.53906 11.6895-2.53906Q12.0605-2.53906 12.29-2.76855Q12.5195-2.99805 12.5195-3.36914L12.5195-6.25L15.4004-6.25Q15.7715-6.25 16.001-6.47461Q16.2305-6.69922 16.2305-7.05078Q16.2305-7.42188 16.001-7.65137Q15.7715-7.88086 15.4004-7.88086L12.5195-7.88086L12.5195-10.752Q12.5195-11.1328 12.29-11.3623Q12.0605-11.5918 11.6895-11.5918Q11.3379-11.5918 11.1133-11.3574Q10.8887-11.123 10.8887-10.752L10.8887-7.88086L8.01758-7.88086Q7.63672-7.88086 7.40723-7.65137Q7.17773-7.42188 7.17773-7.05078Z"/>
  </g>
  <g transform="matrix(1 0 0 1 305.646 1933)">
   <path d="M14.9707 5.66406Q17.0605 5.66406 18.96 5.01465Q20.8594 4.36523 22.4512 3.19336Q24.043 2.02148 25.2197 0.429688Q26.3965-1.16211 27.0459-3.06641Q27.6953-4.9707 27.6953-7.05078Q27.6953-9.14062 27.0459-11.04Q26.3965-12.9395 25.2197-14.5312Q24.043-16.123 22.4512-17.2998Q20.8594-18.4766 18.9551-19.126Q17.0508-19.7754 14.9609-19.7754Q12.8711-19.7754 10.9717-19.126Q9.07227-18.4766 7.48535-17.2998Q5.89844-16.123 4.72168-14.5312Q3.54492-12.9395 2.90039-11.04Q2.25586-9.14062 2.25586-7.05078Q2.25586-4.9707 2.90527-3.06641Q3.55469-1.16211 4.72656 0.429688Q5.89844 2.02148 7.49023 3.19336Q9.08203 4.36523 10.9814 5.01465Q12.8809 5.66406 14.9707 5.66406ZM14.9707 3.84766Q13.1641 3.84766 11.5283 3.2959Q9.89258 2.74414 8.53516 1.74805Q7.17773 0.751953 6.17676-0.610352Q5.17578-1.97266 4.62891-3.6084Q4.08203-5.24414 4.08203-7.05078Q4.08203-8.86719 4.62891-10.5029Q5.17578-12.1387 6.17188-13.501Q7.16797-14.8633 8.52539-15.8594Q9.88281-16.8555 11.5186-17.4023Q13.1543-17.9492 14.9609-17.9492Q16.7773-17.9492 18.4131-17.4023Q20.0488-16.8555 21.4111-15.8594Q22.7734-14.8633 23.7695-13.501Q24.7656-12.1387 25.3174-10.5029Q25.8691-8.86719 25.8691-7.05078Q25.8789-5.24414 25.332-3.6084Q24.7852-1.97266 23.7842-0.610352Q22.7832 0.751953 21.4209 1.74805Q20.0586 2.74414 18.4229 3.2959Q16.7871 3.84766 14.9707 3.84766ZM9.19922-7.05078Q9.19922-6.66992 9.45801-6.4209Q9.7168-6.17188 10.1172-6.17188L14.0625-6.17188L14.0625-2.2168Q14.0625-1.81641 14.3115-1.55762Q14.5605-1.29883 14.9512-1.29883Q15.3516-1.29883 15.6104-1.55273Q15.8691-1.80664 15.8691-2.2168L15.8691-6.17188L19.8242-6.17188Q20.2246-6.17188 20.4785-6.4209Q20.7324-6.66992 20.7324-7.05078Q20.7324-7.46094 20.4785-7.71484Q20.2246-7.96875 19.8242-7.96875L15.8691-7.96875L15.8691-11.9141Q15.8691-12.3242 15.6104-12.583Q15.3516-12.8418 14.9512-12.8418Q14.5605-12.8418 14.3115-12.583Q14.0625-12.3242 14.0625-11.9141L14.0625-7.96875L10.1172-7.96875Q9.70703-7.96875 9.45312-7.71484Q9.19922-7.46094 9.19922-7.05078Z"/>
  </g>
  <text style="stroke:none;fill:black;font-family:sans-serif;font-size:13;font-weight:bold;" transform="matrix(1 0 0 1 263 1953)">Design Variations</text>
  <text style="stroke:none;fill:black;font-family:sans-serif;font-size:13;" transform="matrix(1 0 0 1 263 1971)">Symbols are supported in up to nine weights and three scales.</text>
  <text style="stroke:none;fill:black;font-family:sans-serif;font-size:13;" transform="matrix(1 0 0 1 263 1989)">For optimal layout with text and other symbols, vertically align</text>
  <text style="stroke:none;fill:black;font-family:sans-serif;font-size:13;" transform="matrix(1 0 0 1 263 2007)">symbols with the adjacent text.</text>
  <line style="fill:none;stroke:#00AEEF;stroke-width:0.5;opacity:1.0;" x1="776" x2="776" y1="1919" y2="1933"/>
  <g transform="matrix(1 0 0 1 776 1933)">
   <path d="M3.31055 0.15625Q3.70117 0.15625 3.91602-0.00976562Q4.13086-0.175781 4.26758-0.585938L5.52734-4.0332L11.2891-4.0332L12.5488-0.585938Q12.6855-0.175781 12.9004-0.00976562Q13.1152 0.15625 13.4961 0.15625Q13.8867 0.15625 14.1162-0.0585938Q14.3457-0.273438 14.3457-0.644531Q14.3457-0.869141 14.2383-1.17188L9.6582-13.3691Q9.48242-13.8184 9.17969-14.043Q8.87695-14.2676 8.4082-14.2676Q7.5-14.2676 7.17773-13.3789L2.59766-1.16211Q2.49023-0.859375 2.49023-0.634766Q2.49023-0.263672 2.70996-0.0537109Q2.92969 0.15625 3.31055 0.15625ZM6.00586-5.51758L8.37891-12.0898L8.42773-12.0898L10.8008-5.51758Z"/>
  </g>
  <line style="fill:none;stroke:#00AEEF;stroke-width:0.5;opacity:1.0;" x1="793.197" x2="793.197" y1="1919" y2="1933"/>
  <text style="stroke:none;fill:black;font-family:sans-serif;font-size:13;font-weight:bold;" transform="matrix(1 0 0 1 776 1953)">Margins</text>
  <text style="stroke:none;fill:black;font-family:sans-serif;font-size:13;" transform="matrix(1 0 0 1 776 1971)">Leading and trailing margins on the left and right side of each symbol</text>
  <text style="stroke:none;fill:black;font-family:sans-serif;font-size:13;" transform="matrix(1 0 0 1 776 1989)">can be adjusted by modifying the x-location of the margin guidelines.</text>
  <text style="stroke:none;fill:black;font-family:sans-serif;font-size:13;" transform="matrix(1 0 0 1 776 2007)">Modifications are automatically applied proportionally to all</text>
  <text style="stroke:none;fill:black;font-family:sans-serif;font-size:13;" transform="matrix(1 0 0 1 776 2025)">scales and weights.</text>
  <g transform="matrix(1 0 0 1 1289 1933)">
   <path d="M2.8418 1.86523L4.54102 3.57422Q5.18555 4.22852 5.90332 4.17969Q6.62109 4.13086 7.31445 3.35938L18.0078-8.42773L17.041-9.4043L6.42578 2.27539Q6.16211 2.57812 5.89355 2.61719Q5.625 2.65625 5.27344 2.30469L4.10156 1.14258Q3.75 0.791016 3.79395 0.522461Q3.83789 0.253906 4.14062-0.0195312L15.6152-10.8203L14.6387-11.7871L3.04688-0.898438Q2.30469-0.214844 2.25098 0.498047Q2.19727 1.21094 2.8418 1.86523ZM9.25781-16.3281Q8.94531-16.0254 8.90625-15.6348Q8.86719-15.2441 9.04297-14.9512Q9.21875-14.6777 9.55566-14.541Q9.89258-14.4043 10.3809-14.5215Q11.4746-14.7754 12.5977-14.7314Q13.7207-14.6875 14.7949-13.9844L14.209-12.5293Q13.9551-11.9043 14.0674-11.4404Q14.1797-10.9766 14.5801-10.5664L16.875-8.25195Q17.2363-7.88086 17.5781-7.82227Q17.9199-7.76367 18.3398-7.8418L19.4043-8.03711L20.0684-7.36328L20.0293-6.80664Q20-6.43555 20.1221-6.12305Q20.2441-5.81055 20.6055-5.44922L21.3672-4.70703Q21.7285-4.3457 22.1533-4.33105Q22.5781-4.31641 22.9297-4.66797L25.8398-7.58789Q26.1914-7.93945 26.1816-8.35449Q26.1719-8.76953 25.8105-9.13086L25.0391-9.89258Q24.6875-10.2539 24.3799-10.3857Q24.0723-10.5176 23.7109-10.4883L23.1348-10.4395L22.4902-11.0742L22.7344-12.1973Q22.832-12.6172 22.6953-12.9834Q22.5586-13.3496 22.1191-13.7891L19.9219-15.9766Q18.6719-17.2168 17.2607-17.8369Q15.8496-18.457 14.4189-18.4814Q12.9883-18.5059 11.665-17.959Q10.3418-17.4121 9.25781-16.3281ZM10.752-15.957Q11.6602-16.6211 12.7002-16.9043Q13.7402-17.1875 14.8047-17.085Q15.8691-16.9824 16.8701-16.5137Q17.8711-16.0449 18.7012-15.2051L21.1328-12.793Q21.3086-12.6172 21.3525-12.4512Q21.3965-12.2852 21.3379-12.0312L21.0156-10.5469L22.5195-9.0625L23.5059-9.12109Q23.6914-9.13086 23.7891-9.09668Q23.8867-9.0625 24.0332-8.91602L24.6094-8.33984L22.168-5.89844L21.5918-6.47461Q21.4453-6.62109 21.4062-6.71875Q21.3672-6.81641 21.377-7.01172L21.4453-7.98828L19.9512-9.47266L18.4277-9.21875Q18.1836-9.16992 18.042-9.2041Q17.9004-9.23828 17.7148-9.41406L15.7129-11.416Q15.5176-11.5918 15.4932-11.7529Q15.4688-11.9141 15.5859-12.1875L16.4648-14.2773Q15.293-15.3711 13.8281-15.791Q12.3633-16.2109 10.8398-15.7617Q10.7227-15.7324 10.6885-15.8057Q10.6543-15.8789 10.752-15.957Z"/>
  </g>
  <text style="stroke:none;fill:black;font-family:sans-serif;font-size:13;font-weight:bold;" transform="matrix(1 0 0 1 1289 1953)">Exporting</text>
  <text style="stroke:none;fill:black;font-family:sans-serif;font-size:13;" transform="matrix(1 0 0 1 1289 1971)">Symbols should be outlined when exporting to ensure the</text>
  <text style="stroke:none;fill:black;font-family:sans-serif;font-size:13;" transform="matrix(1 0 0 1 1289 1989)">design is preserved when submitting to Xcode.</text>
  <text id="template-version" style="stroke:none;fill:black;font-family:sans-serif;font-size:13;text-anchor:end;" transform="matrix(1 0 0 1 3036 1933)">Template v.3.0</text>
  <text style="stroke:none;fill:black;font-family:sans-serif;font-size:13;text-anchor:end;" transform="matrix(1 0 0 1 3036 1951)">Requires Xcode 13 or greater</text>
  <text id="descriptive-name" style="stroke:none;fill:black;font-family:sans-serif;font-size:13;text-anchor:end;" transform="matrix(1 0 0 1 3036 1969)">Generated from trello</text>
  <text style="stroke:none;fill:black;font-family:sans-serif;font-size:13;text-anchor:end;" transform="matrix(1 0 0 1 3036 1987)">Typeset at 100 points</text>
  <text style="stroke:none;fill:black;font-family:sans-serif;font-size:13;" transform="matrix(1 0 0 1 263 726)">Small</text>
  <text style="stroke:none;fill:black;font-family:sans-serif;font-size:13;" transform="matrix(1 0 0 1 263 1156)">Medium</text>
  <text style="stroke:none;fill:black;font-family:sans-serif;font-size:13;" transform="matrix(1 0 0 1 263 1586)">Large</text>
 </g>
 <g id="Guides">
  <g id="H-reference" style="fill:#27AAE1;stroke:none;" transform="matrix(1 0 0 1 339 696)">
   <path d="M0.976562 0L3.66211 0L29.3457-67.1387L30.0293-67.1387L30.0293-70.459L28.125-70.459ZM11.6699-24.4629L46.9727-24.4629L46.2402-26.709L12.4512-26.709ZM55.127 0L57.7637 0L30.6152-70.459L29.4434-70.459L29.4434-67.1387Z"/>
  </g>
  <line id="Baseline-S" style="fill:none;stroke:#27AAE1;opacity:1;stroke-width:0.5;" x1="263" x2="3036" y1="696" y2="696"/>
  <line id="Capline-S" style="fill:none;stroke:#27AAE1;opacity:1;stroke-width:0.5;" x1="263" x2="3036" y1="625.541" y2="625.541"/>
  <g id="H-reference" style="fill:#27AAE1;stroke:none;" transform="matrix(1 0 0 1 339 1126)">
   <path d="M0.976562 0L3.66211 0L29.3457-67.1387L30.0293-67.1387L30.0293-70.459L28.125-70.459ZM11.6699-24.4629L46.9727-24.4629L46.2402-26.709L12.4512-26.709ZM55.127 0L57.7637 0L30.6152-70.459L29.4434-70.459L29.4434-67.1387Z"/>
  </g>
  <line id="Baseline-M" style="fill:none;stroke:#27AAE1;opacity:1;stroke-width:0.5;" x1="263" x2="3036" y1="1126" y2="1126"/>
  <line id="Capline-M" style="fill:none;stroke:#27AAE1;opacity:1;stroke-width:0.5;" x1="263" x2="3036" y1="1055.54" y2="1055.54"/>
  <g id="H-reference" style="fill:#27AAE1;stroke:none;" transform="matrix(1 0 0 1 339 1556)">
   <path d="M0.976562 0L3.66211 0L29.3457-67.1387L30.0293-67.1387L30.0293-70.459L28.125-70.459ZM11.6699-24.4629L46.9727-24.4629L46.2402-26.709L12.4512-26.709ZM55.127 0L57.7637 0L30.6152-70.459L29.4434-70.459L29.4434-67.1387Z"/>
  </g>
  <line id="Baseline-L" style="fill:none;stroke:#27AAE1;opacity:1;stroke-width:0.5;" x1="263" x2="3036" y1="1556" y2="1556"/>
  <line id="Capline-L" style="fill:none;stroke:#27AAE1;opacity:1;stroke-width:0.5;" x1="263" x2="3036" y1="1485.54" y2="1485.54"/>
  <line id="left-margin-Regular-M" style="fill:none;stroke:#00AEEF;stroke-width:0.5;opacity:1.0;" x1="1392.45" x2="1392.45" y1="1030.78" y2="1150.12"/>
  <line id="right-margin-Regular-M" style="fill:none;stroke:#00AEEF;stroke-width:0.5;opacity:1.0;" x1="1507.24" x2="1507.24" y1="1030.78" y2="1150.12"/>
 </g>
 <g id="Symbols">
  <g id="Black-L" transform="matrix(1 0 0 1 2861.38 1556)">
   <path class="hierarchical-0:primary SFSymbolsPreview212121" d="M36.64-63.67C36.64-67.59 39.82-70.77 43.74-70.77L60.81-70.77C64.73-70.77 67.91-67.59 67.91-63.67L67.91-12.48C67.91-8.56 64.73-5.38 60.81-5.38L43.74-5.38C39.82-5.38 36.64-8.56 36.64-12.48L36.64-63.67ZM50.84-56.57L50.84-19.58L53.71-19.58L53.71-56.57L50.84-56.57ZM76.46-63.67C76.46-67.59 79.63-70.77 83.56-70.77L100.62-70.77C104.54-70.77 107.72-67.59 107.72-63.67L107.72-35.23C107.72-31.31 104.54-28.13 100.62-28.13L83.56-28.13C79.63-28.13 76.46-31.31 76.46-35.23L76.46-63.67ZM90.66-56.57L90.66-42.33L93.52-42.33L93.52-56.57L90.66-56.57Z"/>
   <path class="hierarchical-1:secondary SFSymbolsPreview4D4D4D" d="M13.89-75.04C13.89-85.25 22.16-93.52 32.37-93.52L111.99-93.52C122.2-93.52 130.47-85.25 130.47-75.04L130.47 4.58C130.47 14.79 122.2 23.06 111.99 23.06L32.37 23.06C22.16 23.06 13.89 14.79 13.89 4.58L13.89-75.04ZM32.37-79.32C30.01-79.32 28.09-77.4 28.09-75.04L28.09 4.58C28.09 6.94 30.01 8.86 32.37 8.86L111.99 8.86C114.35 8.86 116.27 6.94 116.27 4.58L116.27-75.04C116.27-77.4 114.35-79.32 111.99-79.32L32.37-79.32Z"/>
  </g>
  <g id="Heavy-L" transform="matrix(1 0 0 1 2565.52 1556)">
   <path class="hierarchical-0:primary SFSymbolsPreview212121" d="M36.64-63.67C36.64-67.12 39.44-69.92 42.89-69.92L59.95-69.92C63.4-69.92 66.2-67.12 66.2-63.67L66.2-12.48C66.2-9.03 63.4-6.23 59.95-6.23L42.89-6.23C39.44-6.23 36.64-9.03 36.64-12.48L36.64-63.67ZM49.14-57.42L49.14-18.73L53.7-18.73L53.7-57.42L49.14-57.42ZM76.45-63.67C76.45-67.12 79.25-69.92 82.7-69.92L99.76-69.92C103.22-69.92 106.02-67.12 106.02-63.67L106.02-35.23C106.02-31.78 103.22-28.98 99.76-28.98L82.7-28.98C79.25-28.98 76.45-31.78 76.45-35.23L76.45-63.67ZM88.95-57.42L88.95-41.48L93.52-41.48L93.52-57.42L88.95-57.42Z"/>
   <path class="hierarchical-1:secondary SFSymbolsPreview4D4D4D" d="M13.89-75.04C13.89-84.78 21.78-92.67 31.52-92.67L111.14-92.67C120.87-92.67 128.76-84.78 128.76-75.04L128.76 4.58C128.76 14.32 120.87 22.21 111.14 22.21L31.52 22.21C21.78 22.21 13.89 14.32 13.89 4.58L13.89-75.04ZM31.52-80.17C28.68-80.17 26.39-77.87 26.39-75.04L26.39 4.58C26.39 7.41 28.68 9.71 31.52 9.71L111.14 9.71C113.97 9.71 116.26 7.41 116.26 4.58L116.26-75.04C116.26-77.87 113.97-80.17 111.14-80.17L31.52-80.17Z"/>
  </g>
  <g id="Bold-L" transform="matrix(1 0 0 1 2269.76 1556)">
   <path class="hierarchical-0:primary SFSymbolsPreview212121" d="M36.64-63.67C36.64-66.6 39.01-68.97 41.94-68.97L59-68.97C61.93-68.97 64.3-66.6 64.3-63.67L64.3-12.48C64.3-9.55 61.93-7.18 59-7.18L41.94-7.18C39.01-7.18 36.64-9.55 36.64-12.48L36.64-63.67ZM47.24-58.37L47.24-17.78L53.7-17.78L53.7-58.37L47.24-58.37ZM76.45-63.67C76.45-66.6 78.82-68.97 81.75-68.97L98.81-68.97C101.74-68.97 104.11-66.6 104.11-63.67L104.11-35.23C104.11-32.3 101.74-29.93 98.81-29.93L81.75-29.93C78.82-29.93 76.45-32.3 76.45-35.23L76.45-63.67ZM87.05-58.37L87.05-40.53L93.51-40.53L93.51-58.37L87.05-58.37Z"/>
   <path class="hierarchical-1:secondary SFSymbolsPreview4D4D4D" d="M13.89-75.04C13.89-84.25 21.35-91.72 30.56-91.72L110.19-91.72C119.4-91.72 126.86-84.25 126.86-75.04L126.86 4.58C126.86 13.79 119.4 21.26 110.19 21.26L30.56 21.26C21.35 21.26 13.89 13.79 13.89 4.58L13.89-75.04ZM30.56-81.12C27.21-81.12 24.49-78.4 24.49-75.04L24.49 4.58C24.49 7.94 27.21 10.66 30.56 10.66L110.19 10.66C113.54 10.66 116.26 7.94 116.26 4.58L116.26-75.04C116.26-78.4 113.54-81.12 110.19-81.12L30.56-81.12Z"/>
  </g>
  <g id="Semibold-L" transform="matrix(1 0 0 1 1973.69 1556)">
   <path class="hierarchical-0:primary SFSymbolsPreview212121" d="M36.64-63.67C36.64-66.24 38.72-68.32 41.29-68.32L58.35-68.32C60.92-68.32 63-66.24 63-63.67L63-12.48C63-9.91 60.92-7.83 58.35-7.83L41.29-7.83C38.72-7.83 36.64-9.91 36.64-12.48L36.64-63.67ZM45.94-59.02L45.94-17.13L53.7-17.13L53.7-59.02L45.94-59.02ZM76.45-63.67C76.45-66.24 78.54-68.32 81.1-68.32L98.17-68.32C100.74-68.32 102.82-66.24 102.82-63.67L102.82-35.23C102.82-32.66 100.74-30.58 98.17-30.58L81.1-30.58C78.54-30.58 76.45-32.66 76.45-35.23L76.45-63.67ZM85.75-59.02L85.75-39.88L93.52-39.88L93.52-59.02L85.75-59.02Z"/>
   <path class="hierarchical-1:secondary SFSymbolsPreview4D4D4D" d="M13.89-75.04C13.89-83.89 21.07-91.07 29.92-91.07L109.54-91.07C118.39-91.07 125.57-83.89 125.57-75.04L125.57 4.58C125.57 13.43 118.39 20.61 109.54 20.61L29.92 20.61C21.07 20.61 13.89 13.43 13.89 4.58L13.89-75.04ZM29.92-81.77C26.2-81.77 23.19-78.76 23.19-75.04L23.19 4.58C23.19 8.3 26.2 11.31 29.92 11.31L109.54 11.31C113.26 11.31 116.27 8.3 116.27 4.58L116.27-75.04C116.27-78.76 113.26-81.77 109.54-81.77L29.92-81.77Z"/>
  </g>
  <g id="Medium-L" transform="matrix(1 0 0 1 1677.48 1556)">
   <path class="hierarchical-0:primary SFSymbolsPreview212121" d="M36.64-63.67C36.64-65.96 38.5-67.82 40.79-67.82L57.85-67.82C60.15-67.82 62-65.96 62-63.67L62-12.48C62-10.19 60.15-8.33 57.85-8.33L40.79-8.33C38.5-8.33 36.64-10.19 36.64-12.48L36.64-63.67ZM44.94-59.52L44.94-16.63L53.7-16.63L53.7-59.52L44.94-59.52ZM76.45-63.67C76.45-65.96 78.31-67.82 80.6-67.82L97.67-67.82C99.96-67.82 101.82-65.96 101.82-63.67L101.82-35.23C101.82-32.94 99.96-31.08 97.67-31.08L80.6-31.08C78.31-31.08 76.45-32.94 76.45-35.23L76.45-63.67ZM84.75-59.52L84.75-39.38L93.52-39.38L93.52-59.52L84.75-59.52Z"/>
   <path class="hierarchical-1:secondary SFSymbolsPreview4D4D4D" d="M13.89-75.04C13.89-83.62 20.84-90.57 29.42-90.57L109.04-90.57C117.62-90.57 124.57-83.62 124.57-75.04L124.57 4.58C124.57 13.16 117.62 20.11 109.04 20.11L29.42 20.11C20.84 20.11 13.89 13.16 13.89 4.58L13.89-75.04ZM29.42-82.27C25.43-82.27 22.19-79.03 22.19-75.04L22.19 4.58C22.19 8.57 25.43 11.81 29.42 11.81L109.04 11.81C113.03 11.81 116.27 8.57 116.27 4.58L116.27-75.04C116.27-79.03 113.03-82.27 109.04-82.27L29.42-82.27Z"/>
  </g>
  <g id="Regular-L" transform="matrix(1 0 0 1 1381.42 1556)">
   <path class="hierarchical-0:primary SFSymbolsPreview212121" d="M36.64-63.67C36.64-65.6 38.21-67.17 40.14-67.17L57.2-67.17C59.14-67.17 60.7-65.6 60.7-63.67L60.7-12.48C60.7-10.55 59.14-8.98 57.2-8.98L40.14-8.98C38.21-8.98 36.64-10.55 36.64-12.48L36.64-63.67ZM43.64-60.17L43.64-15.98L53.7-15.98L53.7-60.17L43.64-60.17ZM76.46-63.67C76.46-65.6 78.02-67.17 79.96-67.17L97.02-67.17C98.95-67.17 100.52-65.6 100.52-63.67L100.52-35.23C100.52-33.3 98.95-31.73 97.02-31.73L79.96-31.73C78.02-31.73 76.46-33.3 76.46-35.23L76.46-63.67ZM83.46-60.17L83.46-38.73L93.52-38.73L93.52-60.17L83.46-60.17Z"/>
   <path class="hierarchical-1:secondary SFSymbolsPreview4D4D4D" d="M13.89-75.04C13.89-83.26 20.55-89.92 28.77-89.92L108.39-89.92C116.61-89.92 123.27-83.26 123.27-75.04L123.27 4.58C123.27 12.8 116.61 19.46 108.39 19.46L28.77 19.46C20.55 19.46 13.89 12.8 13.89 4.58L13.89-75.04ZM28.77-82.92C24.42-82.92 20.89-79.39 20.89-75.04L20.89 4.58C20.89 8.93 24.42 12.46 28.77 12.46L108.39 12.46C112.74 12.46 116.27 8.93 116.27 4.58L116.27-75.04C116.27-79.39 112.74-82.92 108.39-82.92L28.77-82.92Z"/>
  </g>
  <g id="Light-L" transform="matrix(1 0 0 1 1085.51 1556)">
   <path class="hierarchical-0:primary SFSymbolsPreview212121" d="M36.64-63.67C36.64-65.16 37.85-66.37 39.34-66.37L56.4-66.37C57.9-66.37 59.1-65.16 59.1-63.67L59.1-12.48C59.1-10.99 57.9-9.78 56.4-9.78L39.34-9.78C37.85-9.78 36.64-10.99 36.64-12.48L36.64-63.67ZM42.04-60.97L42.04-15.18L53.7-15.18L53.7-60.97L42.04-60.97ZM76.45-63.67C76.45-65.16 77.66-66.37 79.15-66.37L96.22-66.37C97.71-66.37 98.92-65.16 98.92-63.67L98.92-35.23C98.92-33.74 97.71-32.53 96.22-32.53L79.15-32.53C77.66-32.53 76.45-33.74 76.45-35.23L76.45-63.67ZM81.85-60.97L81.85-37.93L93.52-37.93L93.52-60.97L81.85-60.97Z"/>
   <path class="hierarchical-1:secondary SFSymbolsPreview4D4D4D" d="M13.89-75.04C13.89-82.82 20.19-89.12 27.97-89.12L107.59-89.12C115.37-89.12 121.67-82.82 121.67-75.04L121.67 4.58C121.67 12.36 115.37 18.66 107.59 18.66L27.97 18.66C20.19 18.66 13.89 12.36 13.89 4.58L13.89-75.04ZM27.97-83.72C23.18-83.72 19.29-79.83 19.29-75.04L19.29 4.58C19.29 9.37 23.18 13.26 27.97 13.26L107.59 13.26C112.38 13.26 116.27 9.37 116.27 4.58L116.27-75.04C116.27-79.83 112.38-83.72 107.59-83.72L27.97-83.72Z"/>
  </g>
  <g id="Thin-L" transform="matrix(1 0 0 1 789.85 1556)">
   <path class="hierarchical-0:primary SFSymbolsPreview212121" d="M36.64-63.67C36.64-64.58 37.379-65.32 38.29-65.32L55.353-65.32C56.264-65.32 57.003-64.58 57.003-63.67L57.003-12.48C57.003-11.57 56.264-10.83 55.353-10.83L38.29-10.83C37.379-10.83 36.64-11.57 36.64-12.48L36.64-63.67ZM39.94-62.02L39.94-14.13L53.703-14.13L53.703-62.02L39.94-62.02ZM76.453-63.67C76.453-64.58 77.191-65.32 78.103-65.32L95.165-65.32C96.076-65.32 96.815-64.58 96.815-63.67L96.815-35.23C96.815-34.32 96.076-33.58 95.165-33.58L78.103-33.58C77.191-33.58 76.453-34.32 76.453-35.23L76.453-63.67ZM79.753-62.02L79.753-36.88L93.515-36.88L93.515-62.02L79.753-62.02Z"/>
   <path class="hierarchical-1:secondary SFSymbolsPreview4D4D4D" d="M13.89-75.04C13.89-82.24 19.722-88.07 26.915-88.07L106.54-88.07C113.734-88.07 119.565-82.24 119.565-75.04L119.565 4.58C119.565 11.78 113.734 17.61 106.54 17.61L26.915 17.61C19.722 17.61 13.89 11.78 13.89 4.58L13.89-75.04ZM26.915-84.77C21.544-84.77 17.19-80.41 17.19-75.04L17.19 4.58C17.19 9.95 21.544 14.31 26.915 14.31L106.54 14.31C111.911 14.31 116.265 9.95 116.265 4.58L116.265-75.04C116.265-80.41 111.911-84.77 106.54-84.77L26.915-84.77Z"/>
  </g>
  <g id="Ultralight-L" transform="matrix(1 0 0 1 493.689 1556)">
   <path class="hierarchical-0:primary SFSymbolsPreview212121" d="M36.64-63.67C36.64-64.28 37.132-64.77 37.74-64.77L54.802-64.77C55.41-64.77 55.902-64.28 55.902-63.67L55.902-12.48C55.902-11.87 55.41-11.38 54.802-11.38L37.74-11.38C37.132-11.38 36.64-11.87 36.64-12.48L36.64-63.67ZM38.84-62.57L38.84-13.58L53.702-13.58L53.702-62.57L38.84-62.57ZM76.452-63.67C76.452-64.28 76.945-64.77 77.552-64.77L94.615-64.77C95.222-64.77 95.715-64.28 95.715-63.67L95.715-35.23C95.715-34.62 95.222-34.13 94.615-34.13L77.552-34.13C76.945-34.13 76.452-34.62 76.452-35.23L76.452-63.67ZM78.652-62.57L78.652-36.33L93.515-36.33L93.515-62.57L78.652-62.57Z"/>
   <path class="hierarchical-1:secondary SFSymbolsPreview4D4D4D" d="M13.89-75.04C13.89-81.93 19.475-87.52 26.365-87.52L105.99-87.52C112.88-87.52 118.465-81.93 118.465-75.04L118.465 4.58C118.465 11.47 112.88 17.06 105.99 17.06L26.365 17.06C19.475 17.06 13.89 11.47 13.89 4.58L13.89-75.04ZM26.365-85.32C20.69-85.32 16.09-80.72 16.09-75.04L16.09 4.58C16.09 10.26 20.69 14.86 26.365 14.86L105.99 14.86C111.665 14.86 116.265 10.26 116.265 4.58L116.265-75.04C116.265-80.72 111.665-85.32 105.99-85.32L26.365-85.32Z"/>
  </g>
  <g id="Black-M" transform="matrix(1 0 0 1 2872.4 1126)">
   <path class="hierarchical-0:primary SFSymbolsPreview212121" d="M32.74-57.54C32.74-60.91 35.47-63.64 38.84-63.64L52.23-63.64C55.6-63.64 58.33-60.91 58.33-57.54L58.33-17.38C58.33-14.01 55.6-11.28 52.23-11.28L38.84-11.28C35.47-11.28 32.74-14.01 32.74-17.38L32.74-57.54ZM44.94-51.44L44.94-23.48L46.13-23.48L46.13-51.44L44.94-51.44ZM63.98-57.54C63.98-60.91 66.71-63.64 70.08-63.64L83.47-63.64C86.84-63.64 89.57-60.91 89.57-57.54L89.57-35.23C89.57-31.86 86.84-29.13 83.47-29.13L70.08-29.13C66.71-29.13 63.98-31.86 63.98-35.23L63.98-57.54ZM76.18-51.44L76.18-41.33L77.37-41.33L77.37-51.44L76.18-51.44Z"/>
   <path class="hierarchical-1:secondary SFSymbolsPreview4D4D4D" d="M13.89-66.47C13.89-75.32 21.07-82.49 29.92-82.49L92.39-82.49C101.24-82.49 108.42-75.32 108.42-66.47L108.42-3.99C108.42 4.86 101.24 12.03 92.39 12.03L29.92 12.03C21.07 12.03 13.89 4.86 13.89-3.99L13.89-66.47ZM29.92-68.29C28.91-68.29 28.09-67.48 28.09-66.47L28.09-3.99C28.09-2.98 28.91-2.17 29.92-2.17L92.39-2.17C93.4-2.17 94.22-2.98 94.22-3.99L94.22-66.47C94.22-67.48 93.4-68.29 92.39-68.29L29.92-68.29Z"/>
  </g>
  <g id="Heavy-M" transform="matrix(1 0 0 1 2576.54 1126)">
   <path class="hierarchical-0:primary SFSymbolsPreview212121" d="M31.74-57.54C31.74-60.99 34.54-63.79 37.99-63.79L51.38-63.79C54.83-63.79 57.63-60.99 57.63-57.54L57.63-17.38C57.63-13.93 54.83-11.13 51.38-11.13L37.99-11.13C34.54-11.13 31.74-13.93 31.74-17.38L31.74-57.54ZM44.24-51.29L44.24-23.63L45.13-23.63L45.13-51.29L44.24-51.29ZM62.98-57.54C62.98-60.99 65.78-63.79 69.23-63.79L82.62-63.79C86.07-63.79 88.87-60.99 88.87-57.54L88.87-35.23C88.87-31.78 86.07-28.98 82.62-28.98L69.23-28.98C65.78-28.98 62.98-31.78 62.98-35.23L62.98-57.54ZM75.48-51.29L75.48-41.48L76.37-41.48L76.37-51.29L75.48-51.29Z"/>
   <path class="hierarchical-1:secondary SFSymbolsPreview4D4D4D" d="M13.89-66.47C13.89-74.85 20.69-81.64 29.07-81.64L91.54-81.64C99.92-81.64 106.72-74.85 106.72-66.47L106.72-3.99C106.72 4.39 99.92 11.18 91.54 11.18L29.07 11.18C20.69 11.18 13.89 4.39 13.89-3.99L13.89-66.47ZM29.07-69.14C27.59-69.14 26.39-67.94 26.39-66.47L26.39-3.99C26.39-2.52 27.59-1.32 29.07-1.32L91.54-1.32C93.02-1.32 94.22-2.52 94.22-3.99L94.22-66.47C94.22-67.94 93.02-69.14 91.54-69.14L29.07-69.14Z"/>
  </g>
  <g id="Bold-M" transform="matrix(1 0 0 1 2280.78 1126)">
   <path class="hierarchical-0:primary SFSymbolsPreview212121" d="M31.74-57.54C31.74-60.47 34.12-62.84 37.04-62.84L50.43-62.84C53.36-62.84 55.73-60.47 55.73-57.54L55.73-17.38C55.73-14.45 53.36-12.08 50.43-12.08L37.04-12.08C34.12-12.08 31.74-14.45 31.74-17.38L31.74-57.54ZM42.34-52.24L42.34-22.68L45.13-22.68L45.13-52.24L42.34-52.24ZM62.98-57.54C62.98-60.47 65.35-62.84 68.28-62.84L81.67-62.84C84.59-62.84 86.97-60.47 86.97-57.54L86.97-35.23C86.97-32.3 84.59-29.93 81.67-29.93L68.28-29.93C65.35-29.93 62.98-32.3 62.98-35.23L62.98-57.54ZM73.58-52.24L73.58-40.53L76.37-40.53L76.37-52.24L73.58-52.24Z"/>
   <path class="hierarchical-1:secondary SFSymbolsPreview4D4D4D" d="M13.89-66.47C13.89-74.32 20.26-80.69 28.12-80.69L90.59-80.69C98.45-80.69 104.82-74.32 104.82-66.47L104.82-3.99C104.82 3.86 98.45 10.23 90.59 10.23L28.12 10.23C20.26 10.23 13.89 3.86 13.89-3.99L13.89-66.47ZM28.12-70.09C26.11-70.09 24.49-68.47 24.49-66.47L24.49-3.99C24.49-1.99 26.11-0.37 28.12-0.37L90.59-0.37C92.59-0.37 94.22-1.99 94.22-3.99L94.22-66.47C94.22-68.47 92.59-70.09 90.59-70.09L28.12-70.09Z"/>
  </g>
  <g id="Semibold-M" transform="matrix(1 0 0 1 1984.72 1126)">
   <path class="hierarchical-0:primary SFSymbolsPreview212121" d="M31.74-57.54C31.74-60.11 33.82-62.19 36.39-62.19L49.77-62.19C52.34-62.19 54.42-60.11 54.42-57.54L54.42-17.38C54.42-14.81 52.34-12.73 49.77-12.73L36.39-12.73C33.82-12.73 31.74-14.81 31.74-17.38L31.74-57.54ZM41.04-52.89L41.04-22.03L45.12-22.03L45.12-52.89L41.04-52.89ZM62.98-57.54C62.98-60.11 65.06-62.19 67.63-62.19L81.01-62.19C83.58-62.19 85.66-60.11 85.66-57.54L85.66-35.23C85.66-32.66 83.58-30.58 81.01-30.58L67.63-30.58C65.06-30.58 62.98-32.66 62.98-35.23L62.98-57.54ZM72.28-52.89L72.28-39.88L76.36-39.88L76.36-52.89L72.28-52.89Z"/>
   <path class="hierarchical-1:secondary SFSymbolsPreview4D4D4D" d="M13.89-66.47C13.89-73.96 19.97-80.04 27.46-80.04L89.94-80.04C97.43-80.04 103.51-73.96 103.51-66.47L103.51-3.99C103.51 3.51 97.43 9.58 89.94 9.58L27.46 9.58C19.97 9.58 13.89 3.51 13.89-3.99L13.89-66.47ZM27.46-70.74C25.1-70.74 23.19-68.83 23.19-66.47L23.19-3.99C23.19-1.63 25.1 0.28 27.46 0.28L89.94 0.28C92.3 0.28 94.21-1.63 94.21-3.99L94.21-66.47C94.21-68.83 92.3-70.74 89.94-70.74L27.46-70.74Z"/>
  </g>
  <g id="Medium-M" transform="matrix(1 0 0 1 1688.51 1126)">
   <path class="hierarchical-0:primary SFSymbolsPreview212121" d="M31.74-57.54C31.74-59.83 33.6-61.69 35.89-61.69L49.27-61.69C51.57-61.69 53.42-59.83 53.42-57.54L53.42-17.38C53.42-15.09 51.57-13.23 49.27-13.23L35.89-13.23C33.6-13.23 31.74-15.09 31.74-17.38L31.74-57.54ZM40.04-53.39L40.04-21.53L45.12-21.53L45.12-53.39L40.04-53.39ZM62.98-57.54C62.98-59.83 64.83-61.69 67.13-61.69L80.51-61.69C82.8-61.69 84.66-59.83 84.66-57.54L84.66-35.23C84.66-32.94 82.8-31.08 80.51-31.08L67.13-31.08C64.83-31.08 62.98-32.94 62.98-35.23L62.98-57.54ZM71.28-53.39L71.28-39.38L76.36-39.38L76.36-53.39L71.28-53.39Z"/>
   <path class="hierarchical-1:secondary SFSymbolsPreview4D4D4D" d="M13.89-66.47C13.89-73.69 19.74-79.54 26.96-79.54L89.44-79.54C96.66-79.54 102.51-73.69 102.51-66.47L102.51-3.99C102.51 3.23 96.66 9.08 89.44 9.08L26.96 9.08C19.74 9.08 13.89 3.23 13.89-3.99L13.89-66.47ZM26.96-71.24C24.33-71.24 22.19-69.1 22.19-66.47L22.19-3.99C22.19-1.35 24.33 0.78 26.96 0.78L89.44 0.78C92.07 0.78 94.21-1.35 94.21-3.99L94.21-66.47C94.21-69.1 92.07-71.24 89.44-71.24L26.96-71.24Z"/>
  </g>
  <g id="Regular-M" transform="matrix(1 0 0 1 1392.45 1126)">
   <path class="hierarchical-0:primary SFSymbolsPreview212121" d="M31.74-57.54C31.74-59.47 33.3-61.04 35.24-61.04L48.63-61.04C50.56-61.04 52.13-59.47 52.13-57.54L52.13-17.38C52.13-15.45 50.56-13.88 48.63-13.88L35.24-13.88C33.3-13.88 31.74-15.45 31.74-17.38L31.74-57.54ZM38.74-54.04L38.74-20.88L45.13-20.88L45.13-54.04L38.74-54.04ZM62.97-57.54C62.97-59.47 64.54-61.04 66.47-61.04L79.86-61.04C81.8-61.04 83.36-59.47 83.36-57.54L83.36-35.23C83.36-33.3 81.8-31.73 79.86-31.73L66.47-31.73C64.54-31.73 62.97-33.3 62.97-35.23L62.97-57.54ZM69.97-54.04L69.97-38.73L76.36-38.73L76.36-54.04L69.97-54.04Z"/>
   <path class="hierarchical-1:secondary SFSymbolsPreview4D4D4D" d="M13.89-66.47C13.89-73.33 19.45-78.89 26.31-78.89L88.79-78.89C95.65-78.89 101.21-73.33 101.21-66.47L101.21-3.99C101.21 2.87 95.65 8.43 88.79 8.43L26.31 8.43C19.45 8.43 13.89 2.87 13.89-3.99L13.89-66.47ZM26.31-71.89C23.32-71.89 20.89-69.46 20.89-66.47L20.89-3.99C20.89-0.99 23.32 1.43 26.31 1.43L88.79 1.43C91.78 1.43 94.21-0.99 94.21-3.99L94.21-66.47C94.21-69.46 91.78-71.89 88.79-71.89L26.31-71.89Z"/>
  </g>
  <g id="Light-M" transform="matrix(1 0 0 1 1096.54 1126)">
   <path class="hierarchical-0:primary SFSymbolsPreview212121" d="M31.74-57.54C31.74-59.03 32.95-60.24 34.44-60.24L47.82-60.24C49.32-60.24 50.52-59.03 50.52-57.54L50.52-17.38C50.52-15.89 49.32-14.68 47.82-14.68L34.44-14.68C32.95-14.68 31.74-15.89 31.74-17.38L31.74-57.54ZM37.14-54.84L37.14-20.08L45.12-20.08L45.12-54.84L37.14-54.84ZM62.97-57.54C62.97-59.03 64.18-60.24 65.67-60.24L79.06-60.24C80.55-60.24 81.76-59.03 81.76-57.54L81.76-35.23C81.76-33.74 80.55-32.53 79.06-32.53L65.67-32.53C64.18-32.53 62.97-33.74 62.97-35.23L62.97-57.54ZM68.37-54.84L68.37-37.93L76.36-37.93L76.36-54.84L68.37-54.84Z"/>
   <path class="hierarchical-1:secondary SFSymbolsPreview4D4D4D" d="M13.89-66.47C13.89-72.89 19.09-78.09 25.51-78.09L87.99-78.09C94.41-78.09 99.61-72.89 99.61-66.47L99.61-3.99C99.61 2.43 94.41 7.63 87.99 7.63L25.51 7.63C19.09 7.63 13.89 2.43 13.89-3.99L13.89-66.47ZM25.51-72.69C22.07-72.69 19.29-69.9 19.29-66.47L19.29-3.99C19.29-0.55 22.07 2.23 25.51 2.23L87.99 2.23C91.43 2.23 94.21-0.55 94.21-3.99L94.21-66.47C94.21-69.9 91.43-72.69 87.99-72.69L25.51-72.69Z"/>
  </g>
  <g id="Thin-M" transform="matrix(1 0 0 1 800.875 1126)">
   <path class="hierarchical-0:primary SFSymbolsPreview212121" d="M31.739-57.54C31.739-58.45 32.478-59.19 33.389-59.19L46.777-59.19C47.688-59.19 48.427-58.45 48.427-57.54L48.427-17.38C48.427-16.47 47.688-15.73 46.777-15.73L33.389-15.73C32.478-15.73 31.739-16.47 31.739-17.38L31.739-57.54ZM35.039-55.89L35.039-19.03L45.127-19.03L45.127-55.89L35.039-55.89ZM62.977-57.54C62.977-58.45 63.716-59.19 64.627-59.19L78.015-59.19C78.926-59.19 79.665-58.45 79.665-57.54L79.665-35.23C79.665-34.32 78.926-33.58 78.015-33.58L64.627-33.58C63.716-33.58 62.977-34.32 62.977-35.23L62.977-57.54ZM66.277-55.89L66.277-36.88L76.365-36.88L76.365-55.89L66.277-55.89Z"/>
   <path class="hierarchical-1:secondary SFSymbolsPreview4D4D4D" d="M13.89-66.47C13.89-72.31 18.624-77.04 24.464-77.04L86.939-77.04C92.78-77.04 97.514-72.31 97.514-66.47L97.514-3.99C97.514 1.85 92.78 6.58 86.939 6.58L24.464 6.58C18.624 6.58 13.89 1.85 13.89-3.99L13.89-66.47ZM24.464-73.74C20.447-73.74 17.189-70.48 17.189-66.47L17.189-3.99C17.189 0.03 20.447 3.28 24.464 3.28L86.939 3.28C90.957 3.28 94.214 0.03 94.214-3.99L94.214-66.47C94.214-70.48 90.957-73.74 86.939-73.74L24.464-73.74Z"/>
  </g>
  <g id="Ultralight-M" transform="matrix(1 0 0 1 504.714 1126)">
   <path class="hierarchical-0:primary SFSymbolsPreview212121" d="M31.741-57.54C31.741-58.15 32.233-58.64 32.841-58.64L46.228-58.64C46.836-58.64 47.328-58.15 47.328-57.54L47.328-17.38C47.328-16.77 46.836-16.28 46.228-16.28L32.841-16.28C32.233-16.28 31.741-16.77 31.741-17.38L31.741-57.54ZM33.941-56.44L33.941-18.48L45.128-18.48L45.128-56.44L33.941-56.44ZM62.978-57.54C62.978-58.15 63.471-58.64 64.078-58.64L77.466-58.64C78.073-58.64 78.566-58.15 78.566-57.54L78.566-35.23C78.566-34.62 78.073-34.13 77.466-34.13L64.078-34.13C63.471-34.13 62.978-34.62 62.978-35.23L62.978-57.54ZM65.178-56.44L65.178-36.33L76.366-36.33L76.366-56.44L65.178-56.44Z"/>
   <path class="hierarchical-1:secondary SFSymbolsPreview4D4D4D" d="M13.89-66.47C13.89-72 18.379-76.49 23.915-76.49L86.39-76.49C91.927-76.49 96.415-72 96.415-66.47L96.415-3.99C96.415 1.55 91.927 6.03 86.39 6.03L23.915 6.03C18.379 6.03 13.89 1.55 13.89-3.99L13.89-66.47ZM23.915-74.29C19.594-74.29 16.09-70.79 16.09-66.47L16.09-3.99C16.09 0.33 19.594 3.83 23.915 3.83L86.39 3.83C90.712 3.83 94.215 0.33 94.215-3.99L94.215-66.47C94.215-70.79 90.712-74.29 86.39-74.29L23.915-74.29Z"/>
  </g>
  <g id="Black-S" transform="matrix(1 0 0 1 2879.07 696)">
   <path class="hierarchical-0:primary SFSymbolsPreview212121" d="M31.89-52.832C31.89-55.648 34.17-57.932 36.99-57.932L47.49-57.932C50.31-57.932 52.59-55.648 52.59-52.832L52.59-21.332C52.59-18.515 50.31-16.232 47.49-16.232L36.99-16.232C34.17-16.232 31.89-18.515 31.89-21.332L31.89-52.832ZM42.09-47.732L42.09-26.432L42.39-26.432L42.39-47.732L42.09-47.732ZM56.39-52.832C56.39-55.648 58.67-57.932 61.49-57.932L71.99-57.932C74.81-57.932 77.09-55.648 77.09-52.832L77.09-35.332C77.09-32.515 74.81-30.232 71.99-30.232L61.49-30.232C58.67-30.232 56.39-32.515 56.39-35.332L56.39-52.832ZM66.59-47.732L66.59-40.432L66.89-40.432L66.89-47.732L66.59-47.732Z"/>
   <path class="hierarchical-1:secondary SFSymbolsPreview4D4D4D" d="M13.89-61.832C13.89-69.619 20.2-75.932 27.99-75.932L80.99-75.932C88.78-75.932 95.09-69.619 95.09-61.832L95.09-8.832C95.09-1.044 88.78 5.268 80.99 5.268L27.99 5.268C20.2 5.268 13.89-1.044 13.89-8.832L13.89-61.832ZM28.09-61.732L28.09-8.932L80.89-8.932L80.89-61.732L28.09-61.732Z"/>
  </g>
  <g id="Heavy-S" transform="matrix(1 0 0 1 2585.2 696)">
   <path class="hierarchical-0:primary SFSymbolsPreview212121" d="M29.39-52.832C29.39-55.455 31.52-57.582 34.14-57.582L44.64-57.582C47.26-57.582 49.39-55.455 49.39-52.832L49.39-21.332C49.39-18.709 47.26-16.582 44.64-16.582L34.14-16.582C31.52-16.582 29.39-18.709 29.39-21.332L29.39-52.832ZM38.89-48.082L38.89-26.082L39.89-26.082L39.89-48.082L38.89-48.082ZM53.89-52.832C53.89-55.455 56.02-57.582 58.64-57.582L69.14-57.582C71.76-57.582 73.89-55.455 73.89-52.832L73.89-35.332C73.89-32.709 71.76-30.582 69.14-30.582L58.64-30.582C56.02-30.582 53.89-32.709 53.89-35.332L53.89-52.832ZM63.39-48.082L63.39-40.082L64.39-40.082L64.39-48.082L63.39-48.082Z"/>
   <path class="hierarchical-1:secondary SFSymbolsPreview4D4D4D" d="M13.89-59.832C13.89-67.15 19.82-73.082 27.14-73.082L76.14-73.082C83.46-73.082 89.39-67.15 89.39-59.832L89.39-10.832C89.39-3.514 83.46 2.418 76.14 2.418L27.14 2.418C19.82 2.418 13.89-3.514 13.89-10.832L13.89-59.832ZM27.14-60.582C26.73-60.582 26.39-60.246 26.39-59.832L26.39-10.832C26.39-10.418 26.73-10.082 27.14-10.082L76.14-10.082C76.55-10.082 76.89-10.418 76.89-10.832L76.89-59.832C76.89-60.246 76.55-60.582 76.14-60.582L27.14-60.582Z"/>
  </g>
  <g id="Bold-S" transform="matrix(1 0 0 1 2289.44 696)">
   <path class="hierarchical-0:primary SFSymbolsPreview212121" d="M28.39-52.628C28.39-55.279 30.54-57.428 33.19-57.428L43.69-57.428C46.35-57.428 48.49-55.279 48.49-52.628L48.49-21.128C48.49-18.477 46.35-16.328 43.69-16.328L33.19-16.328C30.54-16.328 28.39-18.477 28.39-21.128L28.39-52.628ZM37.99-47.828L37.99-25.928L38.89-25.928L38.89-47.828L37.99-47.828ZM52.89-52.628C52.89-55.279 55.04-57.428 57.69-57.428L68.19-57.428C70.85-57.428 72.99-55.279 72.99-52.628L72.99-35.128C72.99-32.477 70.85-30.328 68.19-30.328L57.69-30.328C55.04-30.328 52.89-32.477 52.89-35.128L52.89-52.628ZM62.49-47.828L62.49-39.928L63.39-39.928L63.39-47.828L62.49-47.828Z"/>
   <path class="hierarchical-1:secondary SFSymbolsPreview4D4D4D" d="M13.89-59.628C13.89-66.421 19.4-71.928 26.19-71.928L75.19-71.928C81.99-71.928 87.49-66.421 87.49-59.628L87.49-10.628C87.49-3.835 81.99 1.672 75.19 1.672L26.19 1.672C19.4 1.672 13.89-3.835 13.89-10.628L13.89-59.628ZM26.19-61.328C25.26-61.328 24.49-60.567 24.49-59.628L24.49-10.628C24.49-9.689 25.26-8.928 26.19-8.928L75.19-8.928C76.13-8.928 76.89-9.689 76.89-10.628L76.89-59.628C76.89-60.567 76.13-61.328 75.19-61.328L26.19-61.328Z"/>
  </g>
  <g id="Semibold-S" transform="matrix(1 0 0 1 1993.38 696)">
   <path class="hierarchical-0:primary SFSymbolsPreview212121" d="M27.89-52.627C27.89-55.195 29.97-57.277 32.54-57.277L43.04-57.277C45.61-57.277 47.69-55.195 47.69-52.627L47.69-21.127C47.69-18.559 45.61-16.477 43.04-16.477L32.54-16.477C29.97-16.477 27.89-18.559 27.89-21.127L27.89-52.627ZM37.19-47.977L37.19-25.777L38.39-25.777L38.39-47.977L37.19-47.977ZM52.39-52.627C52.39-55.195 54.47-57.277 57.04-57.277L67.54-57.277C70.11-57.277 72.19-55.195 72.19-52.627L72.19-35.127C72.19-32.559 70.11-30.477 67.54-30.477L57.04-30.477C54.47-30.477 52.39-32.559 52.39-35.127L52.39-52.627ZM61.69-47.977L61.69-39.777L62.89-39.777L62.89-47.977L61.69-47.977Z"/>
   <path class="hierarchical-1:secondary SFSymbolsPreview4D4D4D" d="M13.89-59.627C13.89-66.061 19.11-71.277 25.54-71.277L74.54-71.277C80.97-71.277 86.19-66.061 86.19-59.627L86.19-10.627C86.19-4.193 80.97 1.023 74.54 1.023L25.54 1.023C19.11 1.023 13.89-4.193 13.89-10.627L13.89-59.627ZM25.54-61.977C24.24-61.977 23.19-60.925 23.19-59.627L23.19-10.627C23.19-9.329 24.24-8.277 25.54-8.277L74.54-8.277C75.84-8.277 76.89-9.329 76.89-10.627L76.89-59.627C76.89-60.925 75.84-61.977 74.54-61.977L25.54-61.977Z"/>
  </g>
  <g id="Medium-S" transform="matrix(1 0 0 1 1697.17 696)">
   <path class="hierarchical-0:primary SFSymbolsPreview212121" d="M27.89-52.627C27.89-54.919 29.75-56.777 32.04-56.777L42.54-56.777C44.83-56.777 46.69-54.919 46.69-52.627L46.69-21.127C46.69-18.835 44.83-16.977 42.54-16.977L32.04-16.977C29.75-16.977 27.89-18.835 27.89-21.127L27.89-52.627ZM36.19-48.477L36.19-25.277L38.39-25.277L38.39-48.477L36.19-48.477ZM52.39-52.627C52.39-54.919 54.25-56.777 56.54-56.777L67.04-56.777C69.33-56.777 71.19-54.919 71.19-52.627L71.19-35.127C71.19-32.835 69.33-30.977 67.04-30.977L56.54-30.977C54.25-30.977 52.39-32.835 52.39-35.127L52.39-52.627ZM60.69-48.477L60.69-39.277L62.89-39.277L62.89-48.477L60.69-48.477Z"/>
   <path class="hierarchical-1:secondary SFSymbolsPreview4D4D4D" d="M13.89-59.627C13.89-65.785 18.88-70.777 25.04-70.777L74.04-70.777C80.2-70.777 85.19-65.785 85.19-59.627L85.19-10.627C85.19-4.469 80.2 0.523 74.04 0.523L25.04 0.523C18.88 0.523 13.89-4.469 13.89-10.627L13.89-59.627ZM25.04-62.477C23.47-62.477 22.19-61.201 22.19-59.627L22.19-10.627C22.19-9.053 23.47-7.777 25.04-7.777L74.04-7.777C75.61-7.777 76.89-9.053 76.89-10.627L76.89-59.627C76.89-61.201 75.61-62.477 74.04-62.477L25.04-62.477Z"/>
  </g>
  <g id="Regular-S" transform="matrix(1 0 0 1 1401.11 696)">
   <path class="hierarchical-0:primary SFSymbolsPreview212121" d="M27.89-52.627C27.89-54.56 29.46-56.127 31.39-56.127L41.89-56.127C43.82-56.127 45.39-54.56 45.39-52.627L45.39-21.127C45.39-19.194 43.82-17.627 41.89-17.627L31.39-17.627C29.46-17.627 27.89-19.194 27.89-21.127L27.89-52.627ZM34.89-49.127L34.89-24.627L38.39-24.627L38.39-49.127L34.89-49.127ZM52.39-52.627C52.39-54.56 53.96-56.127 55.89-56.127L66.39-56.127C68.32-56.127 69.89-54.56 69.89-52.627L69.89-35.127C69.89-33.194 68.32-31.627 66.39-31.627L55.89-31.627C53.96-31.627 52.39-33.194 52.39-35.127L52.39-52.627ZM59.39-49.127L59.39-38.627L62.89-38.627L62.89-49.127L59.39-49.127Z"/>
   <path class="hierarchical-1:secondary SFSymbolsPreview4D4D4D" d="M13.89-59.627C13.89-65.426 18.59-70.127 24.39-70.127L73.39-70.127C79.19-70.127 83.89-65.426 83.89-59.627L83.89-10.627C83.89-4.828 79.19-0.127 73.39-0.127L24.39-0.127C18.59-0.127 13.89-4.828 13.89-10.627L13.89-59.627ZM24.39-63.127C22.46-63.127 20.89-61.56 20.89-59.627L20.89-10.627C20.89-8.694 22.46-7.127 24.39-7.127L73.39-7.127C75.32-7.127 76.89-8.694 76.89-10.627L76.89-59.627C76.89-61.56 75.32-63.127 73.39-63.127L24.39-63.127Z"/>
  </g>
  <g id="Light-S" transform="matrix(1 0 0 1 1105.2 696)">
   <path class="hierarchical-0:primary SFSymbolsPreview212121" d="M27.89-52.626C27.89-54.117 29.1-55.326 30.59-55.326L41.09-55.326C42.58-55.326 43.79-54.117 43.79-52.626L43.79-21.126C43.79-19.635 42.58-18.426 41.09-18.426L30.59-18.426C29.1-18.426 27.89-19.635 27.89-21.126L27.89-52.626ZM33.29-49.926L33.29-23.826L38.39-23.826L38.39-49.926L33.29-49.926ZM52.39-52.626C52.39-54.117 53.6-55.326 55.09-55.326L65.59-55.326C67.08-55.326 68.29-54.117 68.29-52.626L68.29-35.126C68.29-33.635 67.08-32.426 65.59-32.426L55.09-32.426C53.6-32.426 52.39-33.635 52.39-35.126L52.39-52.626ZM57.79-49.926L57.79-37.826L62.89-37.826L62.89-49.926L57.79-49.926Z"/>
   <path class="hierarchical-1:secondary SFSymbolsPreview4D4D4D" d="M13.89-59.626C13.89-64.983 18.23-69.326 23.59-69.326L72.59-69.326C77.95-69.326 82.29-64.983 82.29-59.626L82.29-10.626C82.29-5.269 77.95-0.926 72.59-0.926L23.59-0.926C18.23-0.926 13.89-5.269 13.89-10.626L13.89-59.626ZM23.59-63.926C21.21-63.926 19.29-62.001 19.29-59.626L19.29-10.626C19.29-8.251 21.21-6.326 23.59-6.326L72.59-6.326C74.96-6.326 76.89-8.251 76.89-10.626L76.89-59.626C76.89-62.001 74.96-63.926 72.59-63.926L23.59-63.926Z"/>
  </g>
  <g id="Thin-S" transform="matrix(1 0 0 1 809.537 696)">
   <path class="hierarchical-0:primary SFSymbolsPreview212121" d="M27.89-52.627C27.89-53.539 28.628-54.277 29.54-54.277L40.04-54.277C40.951-54.277 41.69-53.539 41.69-52.627L41.69-21.127C41.69-20.216 40.951-19.477 40.04-19.477L29.54-19.477C28.628-19.477 27.89-20.216 27.89-21.127L27.89-52.627ZM31.19-50.977L31.19-22.777L38.39-22.777L38.39-50.977L31.19-50.977ZM52.39-52.627C52.39-53.539 53.128-54.277 54.04-54.277L64.54-54.277C65.451-54.277 66.19-53.539 66.19-52.627L66.19-35.127C66.19-34.216 65.451-33.477 64.54-33.477L54.04-33.477C53.128-33.477 52.39-34.216 52.39-35.127L52.39-52.627ZM55.69-50.977L55.69-36.777L62.89-36.777L62.89-50.977L55.69-50.977Z"/>
   <path class="hierarchical-1:secondary SFSymbolsPreview4D4D4D" d="M13.89-59.627C13.89-64.405 17.762-68.277 22.54-68.277L71.54-68.277C76.317-68.277 80.19-64.405 80.19-59.627L80.19-10.627C80.19-5.85 76.317-1.977 71.54-1.977L22.54-1.977C17.762-1.977 13.89-5.85 13.89-10.627L13.89-59.627ZM22.54-64.977C19.585-64.977 17.19-62.582 17.19-59.627L17.19-10.627C17.19-7.673 19.585-5.277 22.54-5.277L71.54-5.277C74.494-5.277 76.89-7.673 76.89-10.627L76.89-59.627C76.89-62.582 74.494-64.977 71.54-64.977L22.54-64.977Z"/>
  </g>
  <g id="Ultralight-S" transform="matrix(1 0 0 1 513.376 696)">
   <path class="hierarchical-0:primary SFSymbolsPreview212121" d="M27.89-52.627C27.89-53.234 28.383-53.727 28.99-53.727L39.49-53.727C40.098-53.727 40.59-53.234 40.59-52.627L40.59-21.127C40.59-20.519 40.098-20.027 39.49-20.027L28.99-20.027C28.383-20.027 27.89-20.519 27.89-21.127L27.89-52.627ZM30.09-51.527L30.09-22.227L38.39-22.227L38.39-51.527L30.09-51.527ZM52.39-52.627C52.39-53.234 52.883-53.727 53.49-53.727L63.99-53.727C64.598-53.727 65.09-53.234 65.09-52.627L65.09-35.127C65.09-34.519 64.598-34.027 63.99-34.027L53.49-34.027C52.883-34.027 52.39-34.519 52.39-35.127L52.39-52.627ZM54.59-51.527L54.59-36.227L62.89-36.227L62.89-51.527L54.59-51.527Z"/>
   <path class="hierarchical-1:secondary SFSymbolsPreview4D4D4D" d="M13.89-59.627C13.89-64.1 17.517-67.727 21.99-67.727L70.99-67.727C75.464-67.727 79.09-64.1 79.09-59.627L79.09-10.627C79.09-6.153 75.464-2.527 70.99-2.527L21.99-2.527C17.517-2.527 13.89-6.153 13.89-10.627L13.89-59.627ZM21.99-65.527C18.732-65.527 16.09-62.885 16.09-59.627L16.09-10.627C16.09-7.368 18.732-4.727 21.99-4.727L70.99-4.727C74.249-4.727 76.89-7.368 76.89-10.627L76.89-59.627C76.89-62.885 74.249-65.527 70.99-65.527L21.99-65.527Z"/>
  </g>
 </g>
</svg>
