<?xml version="1.0" encoding="UTF-8"?>
<!--Generator: Apple Native CoreSVG 175-->
<!DOCTYPE svg
PUBLIC "-//W3C//DTD SVG 1.1//EN"
       "http://www.w3.org/Graphics/SVG/1.1/DTD/svg11.dtd">
<svg version="1.1" xmlns="http://www.w3.org/2000/svg" xmlns:xlink="http://www.w3.org/1999/xlink" width="3300" height="2200">
 <!--glyph: "", point size: 100.0, font version: "17.0d12e1", template writer version: "65.1"-->
 <style>.hierarchical-0:secondary {fill:#4D4D4D}
.hierarchical-1:primary {fill:#212121}

.SFSymbolsPreview212121 {fill:#212121;opacity:1.0}
.SFSymbolsPreview4D4D4D {fill:#4D4D4D;opacity:1.0}
</style>
 <g id="Notes">
  <rect height="2200" id="artboard" style="fill:white;opacity:1" width="3300" x="0" y="0"/>
  <line style="fill:none;stroke:black;opacity:1;stroke-width:0.5;" x1="263" x2="3036" y1="292" y2="292"/>
  <text style="stroke:none;fill:black;font-family:sans-serif;font-size:13;font-weight:bold;" transform="matrix(1 0 0 1 263 322)">Weight/Scale Variations</text>
  <text style="stroke:none;fill:black;font-family:sans-serif;font-size:13;text-anchor:middle;" transform="matrix(1 0 0 1 559.711 322)">Ultralight</text>
  <text style="stroke:none;fill:black;font-family:sans-serif;font-size:13;text-anchor:middle;" transform="matrix(1 0 0 1 856.422 322)">Thin</text>
  <text style="stroke:none;fill:black;font-family:sans-serif;font-size:13;text-anchor:middle;" transform="matrix(1 0 0 1 1153.13 322)">Light</text>
  <text style="stroke:none;fill:black;font-family:sans-serif;font-size:13;text-anchor:middle;" transform="matrix(1 0 0 1 1449.84 322)">Regular</text>
  <text style="stroke:none;fill:black;font-family:sans-serif;font-size:13;text-anchor:middle;" transform="matrix(1 0 0 1 1746.56 322)">Medium</text>
  <text style="stroke:none;fill:black;font-family:sans-serif;font-size:13;text-anchor:middle;" transform="matrix(1 0 0 1 2043.27 322)">Semibold</text>
  <text style="stroke:none;fill:black;font-family:sans-serif;font-size:13;text-anchor:middle;" transform="matrix(1 0 0 1 2339.98 322)">Bold</text>
  <text style="stroke:none;fill:black;font-family:sans-serif;font-size:13;text-anchor:middle;" transform="matrix(1 0 0 1 2636.69 322)">Heavy</text>
  <text style="stroke:none;fill:black;font-family:sans-serif;font-size:13;text-anchor:middle;" transform="matrix(1 0 0 1 2933.4 322)">Black</text>
  <line style="fill:none;stroke:black;opacity:1;stroke-width:0.5;" x1="263" x2="3036" y1="1903" y2="1903"/>
  <g transform="matrix(1 0 0 1 263 1933)">
   <path d="M9.24805 0.830078Q10.8691 0.830078 12.2949 0.214844Q13.7207-0.400391 14.8096-1.49414Q15.8984-2.58789 16.5186-4.01367Q17.1387-5.43945 17.1387-7.05078Q17.1387-8.66211 16.5186-10.0879Q15.8984-11.5137 14.8047-12.6074Q13.7109-13.7012 12.2852-14.3164Q10.8594-14.9316 9.23828-14.9316Q7.62695-14.9316 6.20117-14.3164Q4.77539-13.7012 3.69141-12.6074Q2.60742-11.5137 1.9873-10.0879Q1.36719-8.66211 1.36719-7.05078Q1.36719-5.43945 1.9873-4.01367Q2.60742-2.58789 3.69629-1.49414Q4.78516-0.400391 6.21094 0.214844Q7.63672 0.830078 9.24805 0.830078ZM9.24805-0.654297Q7.91992-0.654297 6.7627-1.14746Q5.60547-1.64062 4.73145-2.51953Q3.85742-3.39844 3.36426-4.56055Q2.87109-5.72266 2.87109-7.05078Q2.87109-8.37891 3.35938-9.54102Q3.84766-10.7031 4.72168-11.582Q5.5957-12.4609 6.75293-12.9541Q7.91016-13.4473 9.23828-13.4473Q10.5762-13.4473 11.7334-12.9541Q12.8906-12.4609 13.7695-11.582Q14.6484-10.7031 15.1465-9.54102Q15.6445-8.37891 15.6445-7.05078Q15.6445-5.72266 15.1514-4.56055Q14.6582-3.39844 13.7842-2.51953Q12.9102-1.64062 11.748-1.14746Q10.5859-0.654297 9.24805-0.654297ZM5.6543-7.05078Q5.6543-6.72852 5.85938-6.52832Q6.06445-6.32812 6.40625-6.32812L8.51562-6.32812L8.51562-4.20898Q8.51562-3.88672 8.71094-3.67676Q8.90625-3.4668 9.23828-3.4668Q9.56055-3.4668 9.77051-3.67676Q9.98047-3.88672 9.98047-4.20898L9.98047-6.32812L12.0898-6.32812Q12.4219-6.32812 12.627-6.52832Q12.832-6.72852 12.832-7.05078Q12.832-7.38281 12.627-7.58789Q12.4219-7.79297 12.0898-7.79297L9.98047-7.79297L9.98047-9.90234Q9.98047-10.2344 9.77051-10.4443Q9.56055-10.6543 9.23828-10.6543Q8.90625-10.6543 8.71094-10.4443Q8.51562-10.2344 8.51562-9.90234L8.51562-7.79297L6.40625-7.79297Q6.06445-7.79297 5.85938-7.58789Q5.6543-7.38281 5.6543-7.05078Z"/>
  </g>
  <g transform="matrix(1 0 0 1 281.867 1933)">
   <path d="M11.709 2.91016Q13.75 2.91016 15.5518 2.12891Q17.3535 1.34766 18.7305-0.0292969Q20.1074-1.40625 20.8887-3.20801Q21.6699-5.00977 21.6699-7.05078Q21.6699-9.0918 20.8887-10.8936Q20.1074-12.6953 18.7305-14.0723Q17.3535-15.4492 15.5469-16.2305Q13.7402-17.0117 11.6992-17.0117Q9.6582-17.0117 7.85645-16.2305Q6.05469-15.4492 4.68262-14.0723Q3.31055-12.6953 2.5293-10.8936Q1.74805-9.0918 1.74805-7.05078Q1.74805-5.00977 2.5293-3.20801Q3.31055-1.40625 4.6875-0.0292969Q6.06445 1.34766 7.86621 2.12891Q9.66797 2.91016 11.709 2.91016ZM11.709 1.25Q9.98047 1.25 8.47656 0.605469Q6.97266-0.0390625 5.83496-1.17676Q4.69727-2.31445 4.05762-3.81836Q3.41797-5.32227 3.41797-7.05078Q3.41797-8.7793 4.05762-10.2832Q4.69727-11.7871 5.83008-12.9297Q6.96289-14.0723 8.4668-14.7119Q9.9707-15.3516 11.6992-15.3516Q13.4277-15.3516 14.9316-14.7119Q16.4355-14.0723 17.5781-12.9297Q18.7207-11.7871 19.3652-10.2832Q20.0098-8.7793 20.0098-7.05078Q20.0098-5.32227 19.3701-3.81836Q18.7305-2.31445 17.5928-1.17676Q16.4551-0.0390625 14.9463 0.605469Q13.4375 1.25 11.709 1.25ZM7.17773-7.05078Q7.17773-6.69922 7.41211-6.47461Q7.64648-6.25 8.01758-6.25L10.8887-6.25L10.8887-3.36914Q10.8887-2.99805 11.1133-2.76855Q11.3379-2.53906 11.6895-2.53906Q12.0605-2.53906 12.29-2.76855Q12.5195-2.99805 12.5195-3.36914L12.5195-6.25L15.4004-6.25Q15.7715-6.25 16.001-6.47461Q16.2305-6.69922 16.2305-7.05078Q16.2305-7.42188 16.001-7.65137Q15.7715-7.88086 15.4004-7.88086L12.5195-7.88086L12.5195-10.752Q12.5195-11.1328 12.29-11.3623Q12.0605-11.5918 11.6895-11.5918Q11.3379-11.5918 11.1133-11.3574Q10.8887-11.123 10.8887-10.752L10.8887-7.88086L8.01758-7.88086Q7.63672-7.88086 7.40723-7.65137Q7.17773-7.42188 7.17773-7.05078Z"/>
  </g>
  <g transform="matrix(1 0 0 1 305.646 1933)">
   <path d="M14.9707 5.66406Q17.0605 5.66406 18.96 5.01465Q20.8594 4.36523 22.4512 3.19336Q24.043 2.02148 25.2197 0.429688Q26.3965-1.16211 27.0459-3.06641Q27.6953-4.9707 27.6953-7.05078Q27.6953-9.14062 27.0459-11.04Q26.3965-12.9395 25.2197-14.5312Q24.043-16.123 22.4512-17.2998Q20.8594-18.4766 18.9551-19.126Q17.0508-19.7754 14.9609-19.7754Q12.8711-19.7754 10.9717-19.126Q9.07227-18.4766 7.48535-17.2998Q5.89844-16.123 4.72168-14.5312Q3.54492-12.9395 2.90039-11.04Q2.25586-9.14062 2.25586-7.05078Q2.25586-4.9707 2.90527-3.06641Q3.55469-1.16211 4.72656 0.429688Q5.89844 2.02148 7.49023 3.19336Q9.08203 4.36523 10.9814 5.01465Q12.8809 5.66406 14.9707 5.66406ZM14.9707 3.84766Q13.1641 3.84766 11.5283 3.2959Q9.89258 2.74414 8.53516 1.74805Q7.17773 0.751953 6.17676-0.610352Q5.17578-1.97266 4.62891-3.6084Q4.08203-5.24414 4.08203-7.05078Q4.08203-8.86719 4.62891-10.5029Q5.17578-12.1387 6.17188-13.501Q7.16797-14.8633 8.52539-15.8594Q9.88281-16.8555 11.5186-17.4023Q13.1543-17.9492 14.9609-17.9492Q16.7773-17.9492 18.4131-17.4023Q20.0488-16.8555 21.4111-15.8594Q22.7734-14.8633 23.7695-13.501Q24.7656-12.1387 25.3174-10.5029Q25.8691-8.86719 25.8691-7.05078Q25.8789-5.24414 25.332-3.6084Q24.7852-1.97266 23.7842-0.610352Q22.7832 0.751953 21.4209 1.74805Q20.0586 2.74414 18.4229 3.2959Q16.7871 3.84766 14.9707 3.84766ZM9.19922-7.05078Q9.19922-6.66992 9.45801-6.4209Q9.7168-6.17188 10.1172-6.17188L14.0625-6.17188L14.0625-2.2168Q14.0625-1.81641 14.3115-1.55762Q14.5605-1.29883 14.9512-1.29883Q15.3516-1.29883 15.6104-1.55273Q15.8691-1.80664 15.8691-2.2168L15.8691-6.17188L19.8242-6.17188Q20.2246-6.17188 20.4785-6.4209Q20.7324-6.66992 20.7324-7.05078Q20.7324-7.46094 20.4785-7.71484Q20.2246-7.96875 19.8242-7.96875L15.8691-7.96875L15.8691-11.9141Q15.8691-12.3242 15.6104-12.583Q15.3516-12.8418 14.9512-12.8418Q14.5605-12.8418 14.3115-12.583Q14.0625-12.3242 14.0625-11.9141L14.0625-7.96875L10.1172-7.96875Q9.70703-7.96875 9.45312-7.71484Q9.19922-7.46094 9.19922-7.05078Z"/>
  </g>
  <text style="stroke:none;fill:black;font-family:sans-serif;font-size:13;font-weight:bold;" transform="matrix(1 0 0 1 263 1953)">Design Variations</text>
  <text style="stroke:none;fill:black;font-family:sans-serif;font-size:13;" transform="matrix(1 0 0 1 263 1971)">Symbols are supported in up to nine weights and three scales.</text>
  <text style="stroke:none;fill:black;font-family:sans-serif;font-size:13;" transform="matrix(1 0 0 1 263 1989)">For optimal layout with text and other symbols, vertically align</text>
  <text style="stroke:none;fill:black;font-family:sans-serif;font-size:13;" transform="matrix(1 0 0 1 263 2007)">symbols with the adjacent text.</text>
  <line style="fill:none;stroke:#00AEEF;stroke-width:0.5;opacity:1.0;" x1="776" x2="776" y1="1919" y2="1933"/>
  <g transform="matrix(1 0 0 1 776 1933)">
   <path d="M3.31055 0.15625Q3.70117 0.15625 3.91602-0.00976562Q4.13086-0.175781 4.26758-0.585938L5.52734-4.0332L11.2891-4.0332L12.5488-0.585938Q12.6855-0.175781 12.9004-0.00976562Q13.1152 0.15625 13.4961 0.15625Q13.8867 0.15625 14.1162-0.0585938Q14.3457-0.273438 14.3457-0.644531Q14.3457-0.869141 14.2383-1.17188L9.6582-13.3691Q9.48242-13.8184 9.17969-14.043Q8.87695-14.2676 8.4082-14.2676Q7.5-14.2676 7.17773-13.3789L2.59766-1.16211Q2.49023-0.859375 2.49023-0.634766Q2.49023-0.263672 2.70996-0.0537109Q2.92969 0.15625 3.31055 0.15625ZM6.00586-5.51758L8.37891-12.0898L8.42773-12.0898L10.8008-5.51758Z"/>
  </g>
  <line style="fill:none;stroke:#00AEEF;stroke-width:0.5;opacity:1.0;" x1="793.197" x2="793.197" y1="1919" y2="1933"/>
  <text style="stroke:none;fill:black;font-family:sans-serif;font-size:13;font-weight:bold;" transform="matrix(1 0 0 1 776 1953)">Margins</text>
  <text style="stroke:none;fill:black;font-family:sans-serif;font-size:13;" transform="matrix(1 0 0 1 776 1971)">Leading and trailing margins on the left and right side of each symbol</text>
  <text style="stroke:none;fill:black;font-family:sans-serif;font-size:13;" transform="matrix(1 0 0 1 776 1989)">can be adjusted by modifying the x-location of the margin guidelines.</text>
  <text style="stroke:none;fill:black;font-family:sans-serif;font-size:13;" transform="matrix(1 0 0 1 776 2007)">Modifications are automatically applied proportionally to all</text>
  <text style="stroke:none;fill:black;font-family:sans-serif;font-size:13;" transform="matrix(1 0 0 1 776 2025)">scales and weights.</text>
  <g transform="matrix(1 0 0 1 1289 1933)">
   <path d="M2.8418 1.86523L4.54102 3.57422Q5.18555 4.22852 5.90332 4.17969Q6.62109 4.13086 7.31445 3.35938L18.0078-8.42773L17.041-9.4043L6.42578 2.27539Q6.16211 2.57812 5.89355 2.61719Q5.625 2.65625 5.27344 2.30469L4.10156 1.14258Q3.75 0.791016 3.79395 0.522461Q3.83789 0.253906 4.14062-0.0195312L15.6152-10.8203L14.6387-11.7871L3.04688-0.898438Q2.30469-0.214844 2.25098 0.498047Q2.19727 1.21094 2.8418 1.86523ZM9.25781-16.3281Q8.94531-16.0254 8.90625-15.6348Q8.86719-15.2441 9.04297-14.9512Q9.21875-14.6777 9.55566-14.541Q9.89258-14.4043 10.3809-14.5215Q11.4746-14.7754 12.5977-14.7314Q13.7207-14.6875 14.7949-13.9844L14.209-12.5293Q13.9551-11.9043 14.0674-11.4404Q14.1797-10.9766 14.5801-10.5664L16.875-8.25195Q17.2363-7.88086 17.5781-7.82227Q17.9199-7.76367 18.3398-7.8418L19.4043-8.03711L20.0684-7.36328L20.0293-6.80664Q20-6.43555 20.1221-6.12305Q20.2441-5.81055 20.6055-5.44922L21.3672-4.70703Q21.7285-4.3457 22.1533-4.33105Q22.5781-4.31641 22.9297-4.66797L25.8398-7.58789Q26.1914-7.93945 26.1816-8.35449Q26.1719-8.76953 25.8105-9.13086L25.0391-9.89258Q24.6875-10.2539 24.3799-10.3857Q24.0723-10.5176 23.7109-10.4883L23.1348-10.4395L22.4902-11.0742L22.7344-12.1973Q22.832-12.6172 22.6953-12.9834Q22.5586-13.3496 22.1191-13.7891L19.9219-15.9766Q18.6719-17.2168 17.2607-17.8369Q15.8496-18.457 14.4189-18.4814Q12.9883-18.5059 11.665-17.959Q10.3418-17.4121 9.25781-16.3281ZM10.752-15.957Q11.6602-16.6211 12.7002-16.9043Q13.7402-17.1875 14.8047-17.085Q15.8691-16.9824 16.8701-16.5137Q17.8711-16.0449 18.7012-15.2051L21.1328-12.793Q21.3086-12.6172 21.3525-12.4512Q21.3965-12.2852 21.3379-12.0312L21.0156-10.5469L22.5195-9.0625L23.5059-9.12109Q23.6914-9.13086 23.7891-9.09668Q23.8867-9.0625 24.0332-8.91602L24.6094-8.33984L22.168-5.89844L21.5918-6.47461Q21.4453-6.62109 21.4062-6.71875Q21.3672-6.81641 21.377-7.01172L21.4453-7.98828L19.9512-9.47266L18.4277-9.21875Q18.1836-9.16992 18.042-9.2041Q17.9004-9.23828 17.7148-9.41406L15.7129-11.416Q15.5176-11.5918 15.4932-11.7529Q15.4688-11.9141 15.5859-12.1875L16.4648-14.2773Q15.293-15.3711 13.8281-15.791Q12.3633-16.2109 10.8398-15.7617Q10.7227-15.7324 10.6885-15.8057Q10.6543-15.8789 10.752-15.957Z"/>
  </g>
  <text style="stroke:none;fill:black;font-family:sans-serif;font-size:13;font-weight:bold;" transform="matrix(1 0 0 1 1289 1953)">Exporting</text>
  <text style="stroke:none;fill:black;font-family:sans-serif;font-size:13;" transform="matrix(1 0 0 1 1289 1971)">Symbols should be outlined when exporting to ensure the</text>
  <text style="stroke:none;fill:black;font-family:sans-serif;font-size:13;" transform="matrix(1 0 0 1 1289 1989)">design is preserved when submitting to Xcode.</text>
  <text id="template-version" style="stroke:none;fill:black;font-family:sans-serif;font-size:13;text-anchor:end;" transform="matrix(1 0 0 1 3036 1933)">Template v.3.0</text>
  <text style="stroke:none;fill:black;font-family:sans-serif;font-size:13;text-anchor:end;" transform="matrix(1 0 0 1 3036 1951)">Requires Xcode 13 or greater</text>
  <text id="descriptive-name" style="stroke:none;fill:black;font-family:sans-serif;font-size:13;text-anchor:end;" transform="matrix(1 0 0 1 3036 1969)">Generated from package</text>
  <text style="stroke:none;fill:black;font-family:sans-serif;font-size:13;text-anchor:end;" transform="matrix(1 0 0 1 3036 1987)">Typeset at 100 points</text>
  <text style="stroke:none;fill:black;font-family:sans-serif;font-size:13;" transform="matrix(1 0 0 1 263 726)">Small</text>
  <text style="stroke:none;fill:black;font-family:sans-serif;font-size:13;" transform="matrix(1 0 0 1 263 1156)">Medium</text>
  <text style="stroke:none;fill:black;font-family:sans-serif;font-size:13;" transform="matrix(1 0 0 1 263 1586)">Large</text>
 </g>
 <g id="Guides">
  <g id="H-reference" style="fill:#27AAE1;stroke:none;" transform="matrix(1 0 0 1 339 696)">
   <path d="M0.976562 0L3.66211 0L29.3457-67.1387L30.0293-67.1387L30.0293-70.459L28.125-70.459ZM11.6699-24.4629L46.9727-24.4629L46.2402-26.709L12.4512-26.709ZM55.127 0L57.7637 0L30.6152-70.459L29.4434-70.459L29.4434-67.1387Z"/>
  </g>
  <line id="Baseline-S" style="fill:none;stroke:#27AAE1;opacity:1;stroke-width:0.5;" x1="263" x2="3036" y1="696" y2="696"/>
  <line id="Capline-S" style="fill:none;stroke:#27AAE1;opacity:1;stroke-width:0.5;" x1="263" x2="3036" y1="625.541" y2="625.541"/>
  <g id="H-reference" style="fill:#27AAE1;stroke:none;" transform="matrix(1 0 0 1 339 1126)">
   <path d="M0.976562 0L3.66211 0L29.3457-67.1387L30.0293-67.1387L30.0293-70.459L28.125-70.459ZM11.6699-24.4629L46.9727-24.4629L46.2402-26.709L12.4512-26.709ZM55.127 0L57.7637 0L30.6152-70.459L29.4434-70.459L29.4434-67.1387Z"/>
  </g>
  <line id="Baseline-M" style="fill:none;stroke:#27AAE1;opacity:1;stroke-width:0.5;" x1="263" x2="3036" y1="1126" y2="1126"/>
  <line id="Capline-M" style="fill:none;stroke:#27AAE1;opacity:1;stroke-width:0.5;" x1="263" x2="3036" y1="1055.54" y2="1055.54"/>
  <g id="H-reference" style="fill:#27AAE1;stroke:none;" transform="matrix(1 0 0 1 339 1556)">
   <path d="M0.976562 0L3.66211 0L29.3457-67.1387L30.0293-67.1387L30.0293-70.459L28.125-70.459ZM11.6699-24.4629L46.9727-24.4629L46.2402-26.709L12.4512-26.709ZM55.127 0L57.7637 0L30.6152-70.459L29.4434-70.459L29.4434-67.1387Z"/>
  </g>
  <line id="Baseline-L" style="fill:none;stroke:#27AAE1;opacity:1;stroke-width:0.5;" x1="263" x2="3036" y1="1556" y2="1556"/>
  <line id="Capline-L" style="fill:none;stroke:#27AAE1;opacity:1;stroke-width:0.5;" x1="263" x2="3036" y1="1485.54" y2="1485.54"/>
  <line id="left-margin-Regular-M" style="fill:none;stroke:#00AEEF;stroke-width:0.5;opacity:1.0;" x1="1392.45" x2="1392.45" y1="1030.78" y2="1150.12"/>
  <line id="right-margin-Regular-M" style="fill:none;stroke:#00AEEF;stroke-width:0.5;opacity:1.0;" x1="1507.24" x2="1507.24" y1="1030.78" y2="1150.12"/>
 </g>
 <g id="Symbols">
  <g id="Black-L" transform="matrix(1 0 0 1 2861.38 1556)">
   <path class="hierarchical-0:secondary SFSymbolsPreview4D4D4D" d="M40.44-83.09C42.36-86.41 46.56-87.6 49.92-85.81L50.14-85.69L101.32-56.17C104.71-54.21 105.88-49.87 103.92-46.47C102-43.15 97.8-41.96 94.44-43.75L94.22-43.87L43.04-73.39C39.65-75.35 38.48-79.69 40.44-83.09Z"/>
   <path class="hierarchical-1:primary SFSymbolsPreview212121" d="M72.18-99.19C75.43-99.19 78.61-98.34 81.39-96.73L121.23-73.97C123.47-72.67 125.4-70.93 126.92-68.86C127.32-68.45 127.67-67.98 127.98-67.46C128.23-67.01 128.43-66.55 128.59-66.09L128.67-65.92C129.85-63.45 130.47-60.74 130.47-57.98L130.47-12.48C130.47-9.24 129.61-6.06 127.99-3.25C126.36-0.44 124.04 1.89 121.2 3.52L81.42 26.26C79.54 27.35 77.48 28.09 75.34 28.46C74.39 28.93 73.32 29.2 72.18 29.2C71.04 29.2 69.97 28.93 69.02 28.46C66.89 28.09 64.83 27.35 62.97 26.27L23.13 3.51C20.32 1.89 18-0.44 16.37-3.25C14.75-6.06 13.89-9.24 13.89-12.48L13.89-57.98C13.89-60.74 14.51-63.45 15.69-65.92L15.77-66.09C15.93-66.55 16.13-67.01 16.38-67.46C16.69-67.98 17.04-68.45 17.45-68.86C18.96-70.93 20.89-72.68 23.16-73.98L62.94-96.72C65.75-98.34 68.93-99.19 72.18-99.19ZM28.09-52.48L28.09-12.48C28.09-11.74 28.29-11.01 28.67-10.35C29.04-9.7 29.58-9.16 30.2-8.8L65.08 11.13L65.08-31.08L28.09-52.48ZM116.27-52.48L79.28-31.08L79.28 11.13L114.13-8.79C114.71-9.12 115.19-9.58 115.56-10.14L115.69-10.35C116.07-11.01 116.27-11.74 116.27-12.48L116.27-52.48ZM72.18-84.99C71.42-84.99 70.69-84.79 70.01-84.41L35.42-64.64L72.18-43.37L108.93-64.64L74.32-84.42C73.75-84.75 73.1-84.94 72.43-84.98L72.18-84.99Z"/>
  </g>
  <g id="Heavy-L" transform="matrix(1 0 0 1 2565.51 1556)">
   <path class="hierarchical-0:secondary SFSymbolsPreview4D4D4D" d="M40.32-82.66C42-85.58 45.69-86.63 48.64-85.07L48.85-84.95L100.04-55.43C103.03-53.71 104.06-49.89 102.33-46.9C100.65-43.98 96.96-42.93 94.01-44.49L93.8-44.61L42.61-74.13C39.62-75.85 38.59-79.67 40.32-82.66Z"/>
   <path class="hierarchical-1:primary SFSymbolsPreview212121" d="M71.33-98.34C74.42-98.34 77.47-97.53 80.12-96L119.96-73.23C122.11-71.98 123.97-70.3 125.42-68.3C125.79-67.93 126.12-67.5 126.39-67.03C126.63-66.62 126.81-66.2 126.95-65.77C128.13-63.36 128.76-60.71 128.77-57.98L128.77-12.45C128.75-9.36 127.94-6.34 126.4-3.67C124.85-0.99 122.64 1.22 119.93 2.79L80.15 25.52C78.31 26.58 76.3 27.3 74.23 27.64C73.36 28.09 72.37 28.35 71.33 28.35C70.29 28.35 69.3 28.09 68.44 27.64C66.36 27.3 64.36 26.59 62.54 25.54L22.7 2.77C20.02 1.22 17.81-0.99 16.26-3.67C14.71-6.35 13.89-9.39 13.89-12.48L13.89-57.98C13.89-60.69 14.52-63.35 15.72-65.77C15.85-66.2 16.04-66.62 16.27-67.03C16.54-67.5 16.87-67.93 17.24-68.3C18.69-70.31 20.55-71.99 22.73-73.25L62.51-95.98C65.19-97.53 68.23-98.34 71.33-98.34ZM26.39-53.95L26.39-12.48C26.39-11.59 26.63-10.71 27.08-9.93C27.53-9.15 28.18-8.5 28.93-8.07L65.08 12.59L65.08-31.57L26.39-53.95ZM116.27-53.95L77.58-31.57L77.58 12.59L113.7-8.05C114.4-8.45 114.98-9.01 115.42-9.67L115.58-9.93C116.03-10.7 116.27-11.59 116.27-12.48L116.27-53.95ZM71.33-85.84C70.42-85.84 69.54-85.61 68.74-85.14L32.87-64.65L71.33-42.39L109.79-64.64L73.89-85.16C73.21-85.55 72.43-85.78 71.63-85.83L71.33-85.84Z"/>
  </g>
  <g id="Bold-L" transform="matrix(1 0 0 1 2269.76 1556)">
   <path class="hierarchical-0:secondary SFSymbolsPreview4D4D4D" d="M40.19-82.19C41.61-84.66 44.72-85.55 47.22-84.25L47.43-84.13L98.62-54.61C101.15-53.15 102.02-49.91 100.56-47.37C99.14-44.91 96.03-44.02 93.53-45.32L93.32-45.43L42.13-74.95C39.6-76.41 38.73-79.65 40.19-82.19Z"/>
   <path class="hierarchical-1:primary SFSymbolsPreview212121" d="M70.38-97.39C73.31-97.39 76.18-96.62 78.69-95.17L118.54-72.4C120.59-71.21 122.36-69.61 123.74-67.69C124.07-67.36 124.37-66.98 124.62-66.56C124.83-66.19 125-65.8 125.11-65.41C126.26-63.1 126.86-60.56 126.86-57.98L126.86-12.48C126.86-9.57 126.09-6.7 124.63-4.15C123.17-1.62 121.07 0.47 118.51 1.96L78.71 24.7C76.93 25.73 74.98 26.41 72.96 26.73C72.2 27.16 71.32 27.4 70.38 27.4C69.44 27.4 68.56 27.16 67.8 26.73C65.78 26.42 63.83 25.73 62.06 24.71L22.23 1.95C19.69 0.48 17.58-1.62 16.11-4.17C14.66-6.7 13.89-9.57 13.89-12.48L13.89-57.98C13.89-60.56 14.49-63.09 15.64-65.4C15.75-65.8 15.92-66.18 16.13-66.55C16.38-66.98 16.67-67.36 17.01-67.69C18.39-69.61 20.17-71.22 22.25-72.42L62.04-95.16C64.57-96.62 67.45-97.39 70.38-97.39ZM24.49-55.6L24.49-12.48C24.49-11.43 24.77-10.37 25.3-9.45C25.83-8.54 26.6-7.77 27.51-7.24L65.08 14.23L65.08-32.11L24.49-55.6ZM116.26-55.6L75.68-32.11L75.68 14.22L113.22-7.22C114.06-7.72 114.78-8.4 115.29-9.19L115.44-9.43C115.98-10.37 116.26-11.43 116.26-12.48L116.26-55.6ZM70.38-86.79C69.3-86.79 68.26-86.51 67.32-85.97L30.01-64.65L70.38-41.29L110.74-64.65L73.41-85.98C72.58-86.46 71.65-86.73 70.7-86.78L70.38-86.79Z"/>
  </g>
  <g id="Semibold-L" transform="matrix(1 0 0 1 1973.69 1556)">
   <path class="hierarchical-0:secondary SFSymbolsPreview4D4D4D" d="M40.11-81.86C41.36-84.02 44.07-84.81 46.27-83.68L46.46-83.57L97.64-54.05C99.87-52.77 100.63-49.92 99.35-47.7C98.1-45.54 95.39-44.76 93.19-45.88L93-45.99L41.82-75.51C39.59-76.8 38.83-79.64 40.11-81.86Z"/>
   <path class="hierarchical-1:primary SFSymbolsPreview212121" d="M69.73-96.74C72.55-96.74 75.31-96 77.73-94.61L117.56-71.85C119.55-70.69 121.27-69.13 122.6-67.26C122.91-66.96 123.18-66.62 123.4-66.23C123.6-65.89 123.75-65.54 123.85-65.19C124.98-62.95 125.57-60.49 125.57-57.98L125.57-12.48C125.57-9.67 124.83-6.91 123.42-4.47C122.01-2.04 119.99-0.02 117.54 1.4L77.75 24.14C76 25.15 74.08 25.81 72.09 26.11C71.4 26.51 70.59 26.75 69.73 26.75C68.87 26.75 68.06 26.52 67.37 26.11C65.38 25.81 63.47 25.15 61.73 24.15L21.9 1.39C19.47-0.02 17.45-2.04 16.04-4.47C14.64-6.91 13.89-9.67 13.89-12.48L13.89-57.98C13.89-60.49 14.48-62.95 15.61-65.19C15.71-65.54 15.86-65.89 16.06-66.23C16.28-66.62 16.55-66.96 16.86-67.26C18.19-69.13 19.91-70.69 21.92-71.86L61.71-94.6C64.15-96 66.91-96.74 69.73-96.74ZM23.19-56.73L23.19-12.48C23.19-11.31 23.5-10.15 24.1-9.13C24.69-8.1 25.53-7.26 26.54-6.68L65.08 15.35L65.08-32.49L23.19-56.73ZM116.27-56.73L74.38-32.49L74.38 15.35L112.9-6.67C113.83-7.2 114.62-7.95 115.2-8.85L115.36-9.13C115.96-10.15 116.27-11.31 116.27-12.48L116.27-56.73ZM69.73-87.44C68.54-87.44 67.38-87.13 66.35-86.53L28.06-64.65L69.73-40.54L111.4-64.65L73.09-86.54C72.17-87.08 71.13-87.38 70.05-87.43L69.73-87.44Z"/>
  </g>
  <g id="Medium-L" transform="matrix(1 0 0 1 1677.48 1556)">
   <path class="hierarchical-0:secondary SFSymbolsPreview4D4D4D" d="M40.05-81.61C41.15-83.54 43.57-84.24 45.53-83.24L45.71-83.14L96.89-53.62C98.88-52.47 99.56-49.93 98.42-47.95C97.31-46.02 94.89-45.32 92.93-46.32L92.75-46.43L41.57-75.95C39.58-77.09 38.9-79.63 40.05-81.61Z"/>
   <path class="hierarchical-1:primary SFSymbolsPreview212121" d="M69.23-96.24C71.96-96.24 74.64-95.53 76.98-94.17L116.81-71.41C118.76-70.29 120.43-68.76 121.72-66.93C121.96-66.7 122.17-66.45 122.36-66.16L122.47-65.98C122.65-65.66 122.79-65.33 122.88-65C123.99-62.82 124.57-60.43 124.57-57.98L124.57-12.48C124.57-9.76 123.85-7.09 122.48-4.72C121.12-2.36 119.17-0.41 116.79 0.96L77 23.7C75.27 24.7 73.38 25.35 71.42 25.63C70.78 26.02 70.03 26.25 69.23 26.25C68.43 26.25 67.68 26.02 67.04 25.63C65.08 25.35 63.19 24.7 61.48 23.71L21.65 0.95C19.29-0.41 17.34-2.36 15.98-4.72C14.61-7.09 13.89-9.76 13.89-12.48L13.89-57.98C13.89-60.43 14.47-62.82 15.58-65C15.67-65.33 15.81-65.66 15.99-65.98C16.2-66.34 16.45-66.66 16.74-66.93C18.03-68.76 19.71-70.29 21.67-71.42L61.46-94.16C63.82-95.53 66.5-96.24 69.23-96.24ZM22.19-57.6L22.19-12.48C22.19-11.22 22.53-9.98 23.16-8.88C23.8-7.78 24.71-6.87 25.79-6.24L65.08 16.21L65.08-32.78L22.19-57.6ZM116.27-57.6L73.38-32.78L73.38 16.21L112.65-6.23C113.66-6.82 114.51-7.63 115.13-8.61L115.3-8.88C115.93-9.98 116.27-11.22 116.27-12.48L116.27-57.6ZM69.23-87.94C67.95-87.94 66.71-87.61 65.6-86.97L26.56-64.66L69.23-39.97L111.9-64.66L72.84-86.98C71.84-87.56 70.71-87.88 69.55-87.93L69.23-87.94Z"/>
  </g>
  <g id="Regular-L" transform="matrix(1 0 0 1 1381.42 1556)">
   <path class="hierarchical-0:secondary SFSymbolsPreview4D4D4D" d="M39.96-81.29C40.89-82.91 42.92-83.5 44.56-82.67L44.74-82.57L95.92-53.05C97.59-52.09 98.17-49.95 97.2-48.27C96.27-46.66 94.24-46.06 92.6-46.89L92.42-46.99L41.24-76.51C39.57-77.47 38.99-79.61 39.96-81.29Z"/>
   <path class="hierarchical-1:primary SFSymbolsPreview212121" d="M68.58-95.59C71.2-95.59 73.76-94.91 76.01-93.61L115.83-70.85C117.72-69.76 119.34-68.27 120.58-66.49C120.84-66.26 121.07-65.97 121.26-65.65C121.43-65.37 121.55-65.06 121.62-64.76C122.7-62.66 123.27-60.34 123.27-57.98L123.27-12.48C123.27-9.88 122.58-7.31 121.27-5.05C119.96-2.79 118.09-0.92 115.82 0.4L76.02 23.14C74.33 24.12 72.47 24.75 70.54 25C69.98 25.38 69.31 25.6 68.58 25.6C67.85 25.6 67.18 25.38 66.62 25C64.69 24.75 62.83 24.12 61.15 23.15L21.33 0.39C19.07-0.92 17.2-2.79 15.89-5.05C14.58-7.31 13.89-9.88 13.89-12.48L13.89-57.98C13.89-60.34 14.46-62.66 15.53-64.76C15.61-65.06 15.73-65.37 15.9-65.65C16.09-65.97 16.32-66.26 16.58-66.49C17.82-68.27 19.44-69.76 21.34-70.86L61.14-93.6C63.4-94.91 65.96-95.59 68.58-95.59ZM20.92-58.7C20.9-58.46 20.89-58.22 20.89-57.98L20.89-12.48C20.89-11.11 21.26-9.75 21.95-8.55C22.64-7.35 23.63-6.36 24.82-5.68L64.64 17.08C64.79 17.16 64.93 17.24 65.08 17.31L65.08-33.15L20.92-58.7ZM116.24-58.7L72.08-33.15L72.08 17.31C72.13 17.29 72.18 17.26 72.23 17.24L72.53 17.07L112.33-5.67C113.53-6.36 114.52-7.35 115.21-8.55C115.9-9.75 116.27-11.11 116.27-12.48L116.27-57.98C116.27-58.22 116.26-58.46 116.24-58.7ZM68.58-88.59C67.19-88.59 65.83-88.23 64.63-87.53L24.83-64.79C24.76-64.75 24.68-64.7 24.61-64.66L68.58-39.21L112.55-64.66L112.34-64.78L72.52-87.54C71.33-88.23 69.97-88.59 68.58-88.59Z"/>
  </g>
  <g id="Light-L" transform="matrix(1 0 0 1 1085.51 1556)">
   <path class="hierarchical-0:secondary SFSymbolsPreview4D4D4D" d="M39.85-80.89C40.57-82.13 42.12-82.59 43.38-81.96L43.54-81.88L94.72-52.36C96.01-51.61 96.45-49.96 95.71-48.67C94.99-47.43 93.44-46.97 92.18-47.6L92.02-47.68L40.84-77.2C39.55-77.95 39.11-79.6 39.85-80.89Z"/>
   <path class="hierarchical-1:primary SFSymbolsPreview212121" d="M67.78-94.79C70.26-94.79 72.68-94.14 74.81-92.91L114.63-70.16C116.45-69.11 117.99-67.67 119.18-65.96C119.41-65.76 119.61-65.53 119.77-65.25C119.91-65.01 120.01-64.75 120.07-64.48C121.12-62.47 121.67-60.25 121.67-57.98L121.67-12.48C121.67-10.02 121.02-7.59 119.78-5.45C118.54-3.31 116.77-1.54 114.62-0.29L74.82 22.45C73.16 23.41 71.33 24.01 69.44 24.23C68.98 24.59 68.4 24.8 67.78 24.8C67.16 24.8 66.58 24.59 66.12 24.23C64.23 24.01 62.4 23.41 60.75 22.46L20.93-0.3C18.79-1.54 17.02-3.31 15.78-5.45C14.54-7.59 13.89-10.02 13.89-12.48L13.89-57.98C13.89-60.25 14.44-62.47 15.49-64.48C15.55-64.75 15.65-65.01 15.79-65.25C15.95-65.53 16.15-65.76 16.38-65.96C17.57-67.68 19.12-69.11 20.94-70.16L60.74-92.91C62.88-94.14 65.3-94.79 67.78-94.79ZM19.52-59.97C19.37-59.32 19.29-58.65 19.29-57.98L19.29-12.48C19.29-10.97 19.69-9.47 20.46-8.15C21.22-6.83 22.31-5.74 23.62-4.98L63.44 17.77C63.96 18.07 64.51 18.32 65.08 18.5L65.08-33.61L19.52-59.97ZM116.04-59.97L70.48-33.61L70.48 18.5C70.94 18.35 71.39 18.16 71.82 17.94L72.13 17.77L111.93-4.98C113.25-5.74 114.34-6.83 115.1-8.15C115.87-9.47 116.27-10.97 116.27-12.48L116.27-57.98C116.27-58.65 116.19-59.32 116.04-59.97ZM67.78-89.39C66.25-89.39 64.76-88.99 63.43-88.22L23.63-65.48C23.18-65.22 22.75-64.92 22.35-64.58L67.78-38.29L113.21-64.58C112.82-64.91 112.39-65.21 111.94-65.47L72.12-88.23C70.81-88.99 69.31-89.39 67.78-89.39Z"/>
  </g>
  <g id="Thin-L" transform="matrix(1 0 0 1 789.849 1556)">
   <path class="hierarchical-0:secondary SFSymbolsPreview4D4D4D" d="M39.705-80.37C40.135-81.11 41.059-81.39 41.825-81.04L41.958-80.97L93.146-51.45C93.936-51 94.207-49.99 93.751-49.2C93.322-48.45 92.398-48.17 91.631-48.52L91.498-48.59L40.31-78.11C39.52-78.57 39.25-79.58 39.705-80.37Z"/>
   <path class="hierarchical-1:primary SFSymbolsPreview212121" d="M66.728-93.74C69.02-93.74 71.265-93.14 73.235-92L113.055-69.25C114.779-68.25 116.246-66.88 117.35-65.24C117.532-65.1 117.689-64.93 117.808-64.73C117.917-64.54 117.985-64.34 118.014-64.13C119.03-62.24 119.563-60.14 119.566-57.98L119.566-12.48C119.563-10.2 118.96-7.95 117.818-5.98C116.676-4 115.035-2.36 113.047-1.21L73.242 21.54C71.614 22.48 69.804 23.05 67.936 23.22C67.635 23.55 67.205 23.75 66.728 23.75C66.252 23.75 65.822 23.55 65.521 23.22C63.654 23.05 61.844 22.48 60.221 21.54L20.402-1.21C18.421-2.36 16.78-4 15.638-5.98C14.496-7.95 13.894-10.2 13.89-12.48L13.89-57.98C13.894-60.27 14.495-62.5 15.638-64.49L15.442-64.13C15.471-64.34 15.539-64.54 15.648-64.73C15.767-64.93 15.925-65.1 16.106-65.24C17.21-66.88 18.678-68.25 20.409-69.25L60.214-92C62.191-93.14 64.436-93.74 66.728-93.74ZM17.868-61.53C17.423-60.41 17.192-59.2 17.19-57.98L17.19-12.48C17.193-10.78 17.643-9.1 18.496-7.63C19.348-6.15 20.573-4.93 22.047-4.07L61.866 18.68C62.861 19.26 63.948 19.65 65.077 19.84L65.077-34.22L17.868-61.53ZM115.588-61.54L68.377-34.22L68.378 19.84C69.388 19.67 70.366 19.34 71.277 18.85L71.597 18.68L111.402-4.07C112.883-4.93 114.108-6.15 114.96-7.62C115.813-9.1 116.264-10.78 116.266-12.48L116.266-57.98C116.264-59.2 116.033-60.41 115.588-61.54ZM66.728-90.44C65.015-90.44 63.339-89.99 61.859-89.14L22.055-66.39C21.118-65.85 20.284-65.16 19.583-64.36L66.727-37.08L113.873-64.36C113.172-65.16 112.34-65.85 111.409-66.39L71.59-89.14C70.117-89.99 68.442-90.44 66.728-90.44Z"/>
  </g>
  <g id="Ultralight-L" transform="matrix(1 0 0 1 493.688 1556)">
   <path class="hierarchical-0:secondary SFSymbolsPreview4D4D4D" d="M39.631-80.09C39.914-80.58 40.519-80.77 41.027-80.55L41.134-80.49L92.322-50.97C92.848-50.67 93.028-50 92.725-49.47C92.442-48.98 91.837-48.79 91.33-49.01L91.223-49.07L40.035-78.59C39.508-78.89 39.328-79.56 39.631-80.09Z"/>
   <path class="hierarchical-1:primary SFSymbolsPreview212121" d="M66.178-93.19C68.373-93.19 70.524-92.62 72.412-91.52L112.229-68.77C113.912-67.8 115.339-66.45 116.403-64.84C116.554-64.75 116.686-64.62 116.782-64.45C116.871-64.3 116.919-64.13 116.928-63.97C117.935-62.13 118.463-60.08 118.466-57.98L118.466-12.48C118.463-10.29 117.885-8.15 116.792-6.25C115.698-4.36 114.127-2.79 112.224-1.68L72.417 21.06C70.79 22 68.974 22.56 67.102 22.7C66.907 23 66.566 23.2 66.178 23.2C65.79 23.2 65.449 23 65.253 22.7C63.382 22.56 61.567 22 59.944 21.07L20.127-1.69C18.229-2.79 16.658-4.36 15.564-6.25C14.471-8.15 13.893-10.29 13.89-12.48L13.89-57.98C13.893-60.17 14.469-62.31 15.564-64.21L15.428-63.97C15.438-64.13 15.485-64.3 15.574-64.45C15.669-64.62 15.801-64.75 15.952-64.84C17.017-66.45 18.444-67.8 20.132-68.77L59.94-91.52C61.833-92.62 63.983-93.19 66.178-93.19ZM115.298-62.32L67.277-34.54L67.278 20.47C68.581 20.33 69.846 19.95 71.005 19.33L71.32 19.16L111.127-3.59C112.692-4.5 113.986-5.79 114.886-7.35C115.787-8.91 116.263-10.68 116.266-12.48L116.266-57.98C116.264-59.49 115.933-60.96 115.298-62.32ZM17.058-62.32C16.423-60.96 16.092-59.49 16.09-57.98L16.09-12.48C16.093-10.68 16.569-8.91 17.47-7.35C18.37-5.79 19.664-4.5 21.224-3.59L61.041 19.16C62.28 19.87 63.655 20.32 65.077 20.47L65.077-34.54L17.058-62.32ZM66.178-90.99C64.368-90.99 62.598-90.52 61.036-89.61L21.229-66.87C20.046-66.18 19.019-65.28 18.198-64.2L66.178-36.44L114.158-64.2C113.338-65.28 112.311-66.18 111.132-66.86L71.316-89.62C69.758-90.52 67.988-90.99 66.178-90.99Z"/>
  </g>
  <g id="Black-M" transform="matrix(1 0 0 1 2872.4 1126)">
   <path class="hierarchical-0:secondary SFSymbolsPreview4D4D4D" d="M34.92-73.53C36.84-76.86 41.04-78.05 44.4-76.26L44.62-76.14L84.79-52.98C88.18-51.02 89.35-46.68 87.39-43.28C85.47-39.96 81.27-38.77 77.91-40.56L77.69-40.68L37.52-63.84C34.13-65.8 32.96-70.14 34.92-73.53Z"/>
   <path class="hierarchical-1:primary SFSymbolsPreview212121" d="M61.15-86.95C63.96-86.95 66.72-86.21 69.14-84.81L100.38-66.96C102.31-65.85 103.99-64.35 105.31-62.56C105.66-62.18 105.98-61.75 106.26-61.27C106.49-60.88 106.67-60.47 106.82-60.05C107.87-57.88 108.42-55.49 108.42-53.08L108.42-17.38C108.42-14.57 107.68-11.82 106.27-9.37C104.86-6.93 102.83-4.9 100.37-3.5L69.15 14.35C67.57 15.25 65.86 15.89 64.09 16.22C63.19 16.62 62.2 16.85 61.15 16.85C60.1 16.85 59.1 16.62 58.21 16.21C56.44 15.88 54.74 15.25 53.17 14.36L21.9-3.51C19.47-4.91 17.45-6.94 16.03-9.39C14.63-11.82 13.89-14.57 13.89-17.38L13.89-53.08C13.89-55.48 14.44-57.86 15.49-60.03C15.63-60.46 15.82-60.87 16.05-61.27C16.33-61.74 16.64-62.17 17-62.55C18.31-64.33 19.98-65.84 21.93-66.96L53.16-84.81C55.59-86.2 58.35-86.95 61.15-86.95ZM94.22-46.11L68.25-31.09L68.25-1.49L93.32-15.82C93.54-15.95 93.74-16.13 93.88-16.33L93.96-16.45C94.13-16.75 94.22-17.07 94.22-17.38L94.22-46.11ZM28.09-46.11L28.09-17.38C28.09-17.07 28.18-16.75 28.34-16.47C28.5-16.2 28.73-15.96 28.97-15.82L54.05-1.5L54.05-31.1L28.09-46.11ZM61.15-72.75C60.85-72.75 60.52-72.66 60.21-72.48L35.38-58.3L61.15-43.39L86.92-58.3L62.09-72.49C61.85-72.63 61.59-72.71 61.34-72.74L61.15-72.75Z"/>
  </g>
  <g id="Heavy-M" transform="matrix(1 0 0 1 2576.54 1126)">
   <path class="hierarchical-0:secondary SFSymbolsPreview4D4D4D" d="M34.81-73.11C36.49-76.03 40.17-77.08 43.13-75.52L43.34-75.4L83.51-52.24C86.5-50.52 87.53-46.7 85.8-43.71C84.12-40.79 80.44-39.74 77.48-41.3L77.27-41.41L37.1-64.57C34.11-66.3 33.08-70.12 34.81-73.11Z"/>
   <path class="hierarchical-1:primary SFSymbolsPreview212121" d="M60.3-86.1C62.96-86.1 65.57-85.4 67.87-84.08L99.11-66.22C100.95-65.16 102.55-63.73 103.8-62.02C104.13-61.67 104.42-61.28 104.67-60.85C104.88-60.48 105.05-60.1 105.18-59.72C106.19-57.65 106.72-55.38 106.72-53.08L106.72-17.38C106.72-14.72 106.02-12.12 104.68-9.79C103.35-7.49 101.42-5.57 99.1-4.23L67.88 13.61C66.35 14.49 64.69 15.09 62.97 15.4C62.16 15.79 61.26 16 60.3 16C59.34 16 58.44 15.79 57.62 15.4C55.91 15.09 54.26 14.49 52.74 13.62L21.47-4.25C19.17-5.58 17.26-7.49 15.92-9.81C14.59-12.12 13.89-14.72 13.89-17.38L13.89-53.08C13.89-55.37 14.42-57.64 15.42-59.71C15.56-60.1 15.73-60.48 15.94-60.85C16.19-61.28 16.48-61.67 16.81-62.02C18.05-63.72 19.65-65.16 21.5-66.23L52.73-84.07C55.04-85.39 57.65-86.1 60.3-86.1ZM94.22-47.59L66.55-31.58L66.55-0.03L92.89-15.08C93.23-15.28 93.53-15.55 93.75-15.87L93.85-16.03C94.1-16.46 94.22-16.92 94.22-17.38L94.22-47.59ZM26.39-47.58L26.39-17.38C26.39-16.92 26.51-16.46 26.75-16.05C26.98-15.65 27.33-15.3 27.7-15.09L54.05-0.03L54.05-31.58L26.39-47.58ZM60.3-73.6C59.85-73.6 59.38-73.47 58.94-73.22L32.83-58.3L60.3-42.41L87.78-58.3L61.66-73.23C61.29-73.44 60.9-73.56 60.5-73.59L60.3-73.6Z"/>
  </g>
  <g id="Bold-M" transform="matrix(1 0 0 1 2280.78 1126)">
   <path class="hierarchical-0:secondary SFSymbolsPreview4D4D4D" d="M34.68-72.64C36.1-75.1 39.21-76 41.71-74.7L41.92-74.58L82.09-51.42C84.62-49.96 85.49-46.72 84.03-44.18C82.61-41.72 79.5-40.82 77-42.13L76.79-42.24L36.62-65.4C34.09-66.86 33.22-70.1 34.68-72.64Z"/>
   <path class="hierarchical-1:primary SFSymbolsPreview212121" d="M59.35-85.14C61.84-85.14 64.29-84.49 66.45-83.25L97.69-65.4C99.43-64.4 100.94-63.03 102.12-61.41C102.41-61.1 102.68-60.76 102.9-60.38C103.09-60.05 103.24-59.71 103.35-59.37C104.31-57.41 104.82-55.26 104.82-53.08L104.82-17.38C104.82-14.89 104.16-12.45 102.91-10.27C101.66-8.11 99.86-6.31 97.68-5.06L66.48 12.77C65.01 13.63 63.4 14.21 61.74 14.49C61.02 14.85 60.22 15.05 59.36 15.05C58.51 15.05 57.7 14.85 56.99 14.49C55.32 14.21 53.72 13.64 52.26 12.79L21-5.07C18.84-6.32 17.05-8.11 15.79-10.28C14.55-12.45 13.89-14.89 13.89-17.38L13.89-53.08C13.89-55.25 14.4-57.4 15.36-59.36C15.47-59.71 15.62-60.05 15.81-60.37C16.03-60.76 16.29-61.1 16.59-61.4C17.76-63.02 19.27-64.39 21.02-65.4L52.25-83.25C54.41-84.49 56.86-85.14 59.35-85.14ZM24.49-49.23L24.49-17.38C24.49-16.75 24.66-16.13 24.98-15.57C25.29-15.03 25.76-14.56 26.28-14.26L54.06 1.61L54.06-32.12L24.49-49.23ZM94.22-49.23L64.66-32.12L64.66 1.6L92.41-14.26C92.89-14.53 93.3-14.92 93.6-15.36L93.72-15.56C94.05-16.13 94.22-16.75 94.22-17.38L94.22-49.23ZM59.35-74.54C58.71-74.54 58.08-74.37 57.52-74.05L29.97-58.31L59.36-41.3L88.74-58.3L61.18-74.05C60.7-74.33 60.15-74.5 59.59-74.53L59.35-74.54Z"/>
  </g>
  <g id="Semibold-M" transform="matrix(1 0 0 1 1984.72 1126)">
   <path class="hierarchical-0:secondary SFSymbolsPreview4D4D4D" d="M34.59-72.31C35.84-74.47 38.55-75.25 40.74-74.13L40.94-74.02L81.1-50.86C83.33-49.58 84.09-46.73 82.81-44.51C81.56-42.35 78.85-41.56 76.65-42.69L76.46-42.8L36.3-65.96C34.07-67.24 33.31-70.09 34.59-72.31Z"/>
   <path class="hierarchical-1:primary SFSymbolsPreview212121" d="M58.7-84.49C61.09-84.49 63.43-83.87 65.47-82.69L96.71-64.83C98.39-63.87 99.83-62.57 100.95-61.01C101.23-60.73 101.48-60.41 101.68-60.05C101.87-59.74 102.01-59.41 102.11-59.08C103.03-57.22 103.51-55.16 103.51-53.08L103.51-17.38C103.51-14.99 102.88-12.65 101.69-10.59C100.49-8.53 98.78-6.81 96.71-5.62L65.51 12.2C64.07 13.04 62.5 13.6 60.87 13.87C60.22 14.21 59.48 14.4 58.7 14.4C57.92 14.4 57.18 14.21 56.54 13.87C54.91 13.61 53.34 13.05 51.93 12.23L20.69-5.63C18.62-6.81 16.91-8.53 15.72-10.58C14.52-12.65 13.89-14.99 13.89-17.38L13.89-53.08C13.89-55.17 14.37-57.23 15.29-59.09C15.4-59.42 15.54-59.74 15.72-60.05C15.92-60.41 16.17-60.73 16.46-61.01C17.58-62.57 19.02-63.88 20.69-64.84L51.91-82.68C53.97-83.87 56.31-84.49 58.7-84.49ZM94.21-50.35L63.35-32.5L63.35 2.73L92.09-13.69C92.65-14.02 93.14-14.48 93.51-15.04L93.64-15.26C94.02-15.9 94.21-16.63 94.21-17.38L94.21-50.35ZM23.19-50.35L23.19-17.38C23.19-16.63 23.38-15.9 23.77-15.25C24.14-14.59 24.68-14.06 25.31-13.7L54.05 2.72L54.05-32.5L23.19-50.35ZM58.7-75.19C57.94-75.19 57.21-74.99 56.55-74.61L28.01-58.31L58.7-40.55L89.39-58.31L60.83-74.62C60.26-74.95 59.62-75.14 58.95-75.18L58.7-75.19Z"/>
  </g>
  <g id="Medium-M" transform="matrix(1 0 0 1 1688.51 1126)">
   <path class="hierarchical-0:secondary SFSymbolsPreview4D4D4D" d="M34.52-72.06C35.63-73.99 38.05-74.69 40.01-73.69L40.19-73.58L80.35-50.42C82.34-49.28 83.02-46.74 81.88-44.76C80.77-42.83 78.35-42.13 76.39-43.13L76.21-43.23L36.05-66.39C34.06-67.54 33.38-70.08 34.52-72.06Z"/>
   <path class="hierarchical-1:primary SFSymbolsPreview212121" d="M58.2-83.99C60.5-83.99 62.75-83.39 64.72-82.25L95.96-64.4C97.59-63.47 98.99-62.19 100.07-60.68C100.28-60.47 100.47-60.24 100.64-59.98L100.75-59.8C100.92-59.51 101.05-59.21 101.14-58.9C102.04-57.09 102.51-55.1 102.51-53.08L102.51-17.38C102.51-15.08 101.91-12.83 100.75-10.84C99.6-8.85 97.95-7.2 95.96-6.06L64.76 11.77C63.35 12.59 61.81 13.14 60.2 13.39C59.61 13.71 58.93 13.9 58.2 13.9C57.47 13.9 56.79 13.71 56.2 13.39C54.6 13.14 53.06 12.6 51.68 11.79L20.44-6.06C18.45-7.2 16.8-8.85 15.65-10.84C14.49-12.83 13.89-15.08 13.89-17.38L13.89-53.08C13.89-55.11 14.36-57.1 15.26-58.9C15.35-59.21 15.48-59.51 15.65-59.8C15.84-60.13 16.07-60.43 16.34-60.69C17.42-62.2 18.81-63.47 20.44-64.4L51.66-82.24C53.65-83.39 55.9-83.99 58.2-83.99ZM22.19-51.22L22.19-17.38C22.19-16.54 22.41-15.73 22.83-15C23.25-14.27 23.85-13.67 24.56-13.26L54.05 3.59L54.05-32.79L22.19-51.22ZM94.21-51.22L62.35-32.79L62.35 3.59L91.84-13.26C92.47-13.62 93.01-14.14 93.42-14.76L93.57-15C93.99-15.73 94.21-16.54 94.21-17.38L94.21-51.22ZM58.2-75.69C57.36-75.69 56.53-75.47 55.8-75.05L26.51-58.31L58.2-39.98L89.89-58.31L60.58-75.06C59.95-75.42 59.23-75.64 58.48-75.68L58.2-75.69Z"/>
  </g>
  <g id="Regular-M" transform="matrix(1 0 0 1 1392.45 1126)">
   <path class="hierarchical-0:secondary SFSymbolsPreview4D4D4D" d="M34.44-71.74C35.37-73.35 37.4-73.95 39.04-73.12L39.22-73.02L79.38-49.86C81.05-48.9 81.63-46.76 80.66-45.08C79.73-43.46 77.7-42.87 76.06-43.7L75.88-43.8L35.72-66.96C34.05-67.92 33.47-70.06 34.44-71.74Z"/>
   <path class="hierarchical-1:primary SFSymbolsPreview212121" d="M57.55-83.34C59.73-83.34 61.88-82.77 63.75-81.69L94.99-63.84C96.55-62.94 97.89-61.72 98.92-60.26C99.16-60.03 99.37-59.77 99.54-59.47C99.69-59.21 99.8-58.94 99.88-58.66C100.75-56.93 101.21-55.02 101.21-53.08L101.21-17.38C101.21-15.19 100.64-13.05 99.54-11.17C98.45-9.28 96.88-7.71 94.99-6.62L63.78 11.21C62.41 12.01 60.9 12.53 59.34 12.76C58.81 13.07 58.2 13.25 57.55 13.25C56.9 13.25 56.29 13.07 55.76 12.76C54.2 12.54 52.7 12.02 51.35 11.23L20.11-6.62C18.22-7.71 16.65-9.28 15.56-11.16C14.46-13.05 13.89-15.19 13.89-17.38L13.89-53.08C13.89-55.02 14.35-56.94 15.22-58.66C15.3-58.94 15.41-59.21 15.56-59.47C15.73-59.77 15.94-60.03 16.18-60.26C17.22-61.72 18.55-62.94 20.11-63.84L51.34-81.68C53.22-82.77 55.37-83.34 57.55-83.34ZM20.89-52.35L20.89-17.38C20.89-16.42 21.14-15.5 21.62-14.67C22.1-13.84 22.78-13.16 23.59-12.7L54.05 4.71L54.05-33.16L20.89-52.35ZM94.21-52.35L61.05-33.16L61.05 4.71L91.51-12.7C92.24-13.12 92.86-13.71 93.33-14.43L93.48-14.68C93.96-15.5 94.21-16.42 94.21-17.38L94.21-52.35ZM57.55-76.34C56.59-76.34 55.66-76.09 54.83-75.61L24.55-58.31L57.55-39.22L90.55-58.31L60.26-75.62C59.53-76.04 58.69-76.29 57.84-76.33L57.55-76.34Z"/>
  </g>
  <g id="Light-M" transform="matrix(1 0 0 1 1096.54 1126)">
   <path class="hierarchical-0:secondary SFSymbolsPreview4D4D4D" d="M34.33-71.34C35.05-72.58 36.6-73.04 37.86-72.41L38.02-72.33L78.18-49.17C79.47-48.42 79.91-46.77 79.17-45.48C78.45-44.24 76.9-43.78 75.64-44.41L75.48-44.49L35.32-67.65C34.03-68.4 33.59-70.05 34.33-71.34Z"/>
   <path class="hierarchical-1:primary SFSymbolsPreview212121" d="M56.75-82.54C58.79-82.54 60.8-82 62.55-80.99L93.79-63.14C95.27-62.29 96.54-61.12 97.51-59.73C97.72-59.54 97.9-59.32 98.05-59.07C98.18-58.85 98.27-58.61 98.33-58.37C99.17-56.74 99.61-54.92 99.61-53.08L99.61-17.38C99.61-15.33 99.07-13.33 98.05-11.57C97.03-9.8 95.56-8.33 93.79-7.31L62.57 10.52C61.25 11.3 59.78 11.8 58.25 11.99C57.83 12.28 57.31 12.45 56.75 12.45C56.19 12.45 55.68 12.28 55.25 11.99C53.73 11.8 52.26 11.3 50.95 10.54L19.71-7.32C17.94-8.33 16.47-9.8 15.46-11.56C14.43-13.33 13.89-15.33 13.89-17.38L13.89-53.08C13.89-54.92 14.33-56.74 15.17-58.37C15.23-58.61 15.32-58.85 15.45-59.07C15.6-59.32 15.78-59.54 15.99-59.73C16.96-61.13 18.23-62.29 19.71-63.14L50.94-80.99C52.7-82 54.71-82.54 56.75-82.54ZM19.32-53.71C19.3-53.5 19.29-53.29 19.29-53.08L19.29-17.38C19.29-16.28 19.58-15.22 20.13-14.27C20.68-13.32 21.46-12.54 22.39-12L53.65 5.86C53.78 5.94 53.92 6.01 54.05 6.07L54.05-33.62L19.32-53.71ZM94.18-53.71L59.45-33.62L59.45 6.07C59.5 6.05 59.56 6.02 59.61 5.99L59.87 5.85L91.11-12C92.04-12.54 92.82-13.32 93.38-14.28C93.92-15.22 94.21-16.28 94.21-17.38L94.21-53.08C94.21-53.29 94.2-53.5 94.18-53.71ZM56.75-77.14C55.65-77.14 54.58-76.85 53.63-76.3L22.39-58.46C22.31-58.41 22.23-58.36 22.16-58.31L56.75-38.3L91.34-58.31L91.11-58.45L59.86-76.31C58.92-76.85 57.85-77.14 56.75-77.14Z"/>
  </g>
  <g id="Thin-M" transform="matrix(1 0 0 1 800.875 1126)">
   <path class="hierarchical-0:secondary SFSymbolsPreview4D4D4D" d="M34.193-70.81C34.623-71.56 35.547-71.84 36.313-71.49L36.446-71.42L76.608-48.26C77.398-47.8 77.669-46.8 77.213-46.01C76.784-45.26 75.86-44.98 75.093-45.33L74.96-45.4L34.798-68.56C34.008-69.02 33.737-70.03 34.193-70.81Z"/>
   <path class="hierarchical-1:primary SFSymbolsPreview212121" d="M55.703-81.49C57.559-81.49 59.382-81 60.984-80.08L92.226-62.23C93.609-61.43 94.794-60.33 95.693-59.01C95.848-58.88 95.984-58.73 96.089-58.55C96.184-58.38 96.248-58.21 96.282-58.03C97.089-56.51 97.514-54.8 97.515-53.08L97.515-17.38C97.514-15.52 97.026-13.71 96.094-12.09C95.164-10.49 93.828-9.15 92.222-8.23L60.996 9.62C59.707 10.37 58.277 10.83 56.798 10.98C56.507 11.24 56.123 11.4 55.703 11.4C55.283 11.4 54.899 11.24 54.608 10.98C53.13 10.83 51.701 10.37 50.421 9.62L19.18-8.23C17.579-9.15 16.243-10.49 15.308-12.1C14.38-13.71 13.892-15.52 13.89-17.38L13.89-53.08C13.892-54.8 14.316-56.5 15.124-58.03C15.158-58.21 15.222-58.38 15.317-58.55C15.422-58.73 15.558-58.88 15.713-59.01C16.611-60.33 17.797-61.43 19.184-62.23L50.418-80.08C52.025-81 53.847-81.49 55.703-81.49ZM17.555-55.34C17.315-54.61 17.191-53.85 17.19-53.08L17.19-17.38C17.192-16.1 17.527-14.86 18.165-13.75C18.808-12.64 19.727-11.72 20.822-11.09L52.07 6.76C52.69 7.12 53.358 7.39 54.053 7.55L54.053-34.23L17.555-55.34ZM93.851-55.34L57.353-34.23L57.354 7.55C57.947 7.41 58.521 7.2 59.066 6.91L59.346 6.76L90.58-11.09C91.679-11.72 92.599-12.64 93.238-13.74C93.879-14.86 94.214-16.1 94.215-17.38L94.215-53.08C94.215-53.85 94.09-54.62 93.851-55.34ZM55.703-78.19C54.424-78.19 53.169-77.86 52.059-77.22L20.826-59.37C20.254-59.04 19.731-58.63 19.271-58.17L55.703-37.09L92.134-58.17C91.675-58.63 91.153-59.04 90.584-59.37L59.342-77.22C58.237-77.86 56.982-78.19 55.703-78.19Z"/>
  </g>
  <g id="Ultralight-M" transform="matrix(1 0 0 1 504.714 1126)">
   <path class="hierarchical-0:secondary SFSymbolsPreview4D4D4D" d="M34.118-70.54C34.401-71.03 35.006-71.22 35.513-71L35.621-70.94L75.783-47.78C76.309-47.48 76.489-46.81 76.186-46.28C75.903-45.79 75.298-45.6 74.791-45.82L74.684-45.88L34.522-69.04C33.995-69.34 33.815-70.01 34.118-70.54Z"/>
   <path class="hierarchical-1:primary SFSymbolsPreview212121" d="M55.152-80.94C56.912-80.94 58.64-80.48 60.161-79.6L91.401-61.75C92.737-60.98 93.878-59.91 94.736-58.62C94.866-58.53 94.978-58.42 95.062-58.27C95.139-58.14 95.185-58 95.202-57.85C95.995-56.39 96.413-54.74 96.415-53.08L96.415-17.38C96.413-15.62 95.95-13.9 95.068-12.37C94.185-10.85 92.918-9.58 91.398-8.7L60.168 9.14C58.891 9.88 57.466 10.33 55.997 10.46C55.795 10.7 55.492 10.85 55.152 10.85C54.812 10.85 54.509 10.7 54.307 10.45C52.838 10.33 51.414 9.89 50.144 9.15L18.903-8.71C17.385-9.58 16.119-10.85 15.235-12.37C14.354-13.9 13.891-15.62 13.89-17.38L13.89-53.08C13.891-54.83 14.355-56.56 15.237-58.09L15.101-57.85C15.118-57.99 15.164-58.14 15.242-58.27C15.326-58.42 15.439-58.54 15.569-58.62C16.424-59.91 17.567-60.98 18.906-61.75L50.142-79.6C51.664-80.48 53.392-80.94 55.152-80.94ZM16.719-56.14C16.306-55.18 16.091-54.13 16.09-53.08L16.09-17.38C16.091-16.01 16.452-14.66 17.14-13.47C17.829-12.28 18.818-11.29 19.998-10.61L51.244 7.24C52.109 7.74 53.063 8.07 54.052 8.21L54.052-34.55L16.719-56.14ZM93.585-56.15L56.252-34.55L56.252 8.21C57.129 8.09 57.979 7.82 58.768 7.4L59.069 7.24L90.303-10.61C91.486-11.29 92.475-12.28 93.164-13.47C93.852-14.66 94.213-16.01 94.215-17.38L94.215-53.08C94.214-54.13 93.998-55.18 93.585-56.15ZM55.152-78.74C53.777-78.74 52.427-78.38 51.236-77.69L20.001-59.85C19.182-59.38 18.457-58.76 17.859-58.03L55.152-36.45L92.445-58.03C91.847-58.76 91.122-59.37 90.306-59.84L59.067-77.7C57.877-78.38 56.527-78.74 55.152-78.74Z"/>
  </g>
  <g id="Black-S" transform="matrix(1 0 0 1 2881.07 696)">
   <path class="hierarchical-0:secondary SFSymbolsPreview4D4D4D" d="M30.59-66.145C32.51-69.469 36.71-70.657 40.07-68.869L40.29-68.749L71.79-50.584C75.18-48.625 76.35-44.283 74.39-40.886C72.47-37.562 68.27-36.374 64.91-38.162L64.69-38.282L33.19-56.447C29.8-58.406 28.63-62.748 30.59-66.145Z"/>
   <path class="hierarchical-1:primary SFSymbolsPreview212121" d="M52.49-77.424C54.97-77.424 57.41-76.771 59.51-75.55L84.04-61.532C85.7-60.572 87.15-59.286 88.28-57.777C88.62-57.403 88.93-56.986 89.2-56.528C89.42-56.139 89.6-55.739 89.75-55.33C90.63-53.459 91.09-51.411 91.09-49.331L91.09-21.331C91.09-18.846 90.44-16.406 89.21-14.299C87.97-12.153 86.19-10.372 84.01-9.111L59.55 4.868C58.21 5.641 56.77 6.185 55.26 6.486C54.41 6.848 53.47 7.048 52.49 7.048C51.5 7.048 50.57 6.848 49.71 6.485C48.22 6.187 46.78 5.648 45.47 4.889L20.93-9.132C18.79-10.372 17.01-12.153 15.77-14.301C14.54-16.44 13.89-18.864 13.89-21.331L13.89-49.331C13.89-51.427 14.36-53.492 15.26-55.375C15.4-55.768 15.58-56.154 15.79-56.528C16.05-56.975 16.35-57.383 16.69-57.75C17.83-59.283 19.28-60.575 20.97-61.55L45.43-75.527C47.57-76.771 50.01-77.424 52.49-77.424ZM28.09-41.213L28.09-21.396L45.39-11.51L45.39-31.203L28.09-41.213ZM76.89-41.208L59.59-31.203L59.59-11.512L76.89-21.397L76.89-41.208ZM52.49-63.209L35.35-53.416L52.49-43.501L69.63-53.414L52.49-63.209Z"/>
  </g>
  <g id="Heavy-S" transform="matrix(1 0 0 1 2585.2 696)">
   <path class="hierarchical-0:secondary SFSymbolsPreview4D4D4D" d="M30.48-65.721C32.16-68.641 35.85-69.688 38.8-68.129L39.01-68.013L70.51-49.848C73.5-48.123 74.53-44.302 72.8-41.311C71.12-38.391 67.43-37.344 64.48-38.903L64.27-39.019L32.77-57.184C29.78-58.909 28.75-62.731 30.48-65.721Z"/>
   <path class="hierarchical-1:primary SFSymbolsPreview212121" d="M51.64-76.574C53.97-76.574 56.26-75.961 58.24-74.813L82.77-60.797C84.34-59.889 85.71-58.67 86.77-57.24C87.08-56.901 87.37-56.521 87.61-56.102C87.82-55.744 87.99-55.373 88.11-54.996C88.96-53.231 89.39-51.296 89.39-49.331L89.39-21.331C89.39-18.997 88.78-16.704 87.62-14.722C86.46-12.708 84.78-11.033 82.74-9.85L58.27 4.132C56.99 4.873 55.6 5.391 54.16 5.67C53.39 6.009 52.54 6.198 51.64 6.198C50.74 6.198 49.89 6.009 49.12 5.67C47.68 5.393 46.3 4.88 45.04 4.15L20.51-9.868C18.5-11.033 16.82-12.708 15.66-14.724C14.51-16.735 13.89-19.013 13.89-21.331L13.89-49.331C13.89-51.317 14.34-53.274 15.2-55.056C15.32-55.413 15.48-55.763 15.68-56.103C15.91-56.506 16.18-56.873 16.49-57.202C17.56-58.66 18.94-59.888 20.54-60.813L45-74.792C47.02-75.961 49.31-76.574 51.64-76.574ZM26.39-42.687L26.39-21.331C26.39-21.211 26.43-21.075 26.5-20.948C26.56-20.85 26.65-20.754 26.74-20.703L45.39-10.046L45.39-31.694L26.39-42.687ZM76.89-42.682L57.89-31.693L57.89-10.046L76.51-20.684C76.6-20.737 76.67-20.804 76.74-20.891L76.8-20.984C76.86-21.082 76.89-21.2 76.89-21.331L76.89-42.682ZM51.64-64.074C51.51-64.074 51.38-64.04 51.24-63.96L32.8-53.421L51.64-42.519L70.48-53.419L52-63.98C51.93-64.025 51.84-64.056 51.74-64.068L51.64-64.074Z"/>
  </g>
  <g id="Bold-S" transform="matrix(1 0 0 1 2289.44 696)">
   <path class="hierarchical-0:secondary SFSymbolsPreview4D4D4D" d="M30.35-65.04C31.77-67.507 34.88-68.398 37.38-67.097L37.59-66.984L69.09-48.819C71.62-47.357 72.49-44.116 71.03-41.58C69.61-39.113 66.5-38.222 64-39.523L63.79-39.636L32.29-57.801C29.76-59.263 28.89-62.504 30.35-65.04Z"/>
   <path class="hierarchical-1:primary SFSymbolsPreview212121" d="M50.69-75.418C52.84-75.418 54.96-74.85 56.82-73.782L81.34-59.768C82.81-58.922 84.07-57.785 85.08-56.417C85.36-56.122 85.61-55.789 85.83-55.421C86-55.117 86.15-54.802 86.26-54.482C87.05-52.829 87.47-51.008 87.49-49.125L87.49-21.082C87.47-18.943 86.91-16.843 85.83-14.957C84.74-13.101 83.2-11.559 81.32-10.468L56.83 3.527C55.61 4.224 54.29 4.708 52.93 4.962C52.25 5.277 51.49 5.454 50.69 5.454C49.89 5.454 49.14 5.279 48.46 4.965C47.09 4.713 45.76 4.228 44.56 3.532L20.05-10.473C18.18-11.547 16.63-13.093 15.52-14.991C14.45-16.857 13.89-18.972 13.89-21.125L13.89-49.125C13.89-50.973 14.3-52.792 15.11-54.47C15.22-54.794 15.36-55.112 15.54-55.42C15.75-55.784 16-56.113 16.27-56.406C17.29-57.777 18.57-58.927 20.06-59.782L44.53-73.764C46.4-74.848 48.53-75.418 50.69-75.418ZM24.49-44.123L24.49-21.125C24.49-20.821 24.57-20.525 24.7-20.301C24.86-20.029 25.07-19.814 25.32-19.672L45.39-8.203L45.39-32.035L24.49-44.123ZM76.89-44.128L55.99-32.035L55.99-8.203L76.03-19.656C76.24-19.776 76.42-19.941 76.56-20.126L76.65-20.267C76.8-20.53 76.89-20.841 76.89-21.125L76.89-44.128ZM50.69-64.818C50.39-64.818 50.1-64.74 49.82-64.578L29.94-53.218L50.69-41.215L71.44-53.22L51.55-64.585C51.34-64.707 51.1-64.783 50.87-64.808L50.69-64.818Z"/>
  </g>
  <g id="Semibold-S" transform="matrix(1 0 0 1 1993.38 696)">
   <path class="hierarchical-0:secondary SFSymbolsPreview4D4D4D" d="M30.26-64.717C31.51-66.876 34.22-67.659 36.42-66.53L36.61-66.422L68.11-48.257C70.34-46.974 71.1-44.131 69.82-41.906C68.57-39.747 65.86-38.964 63.67-40.093L63.47-40.201L31.97-58.366C29.74-59.649 28.98-62.492 30.26-64.717Z"/>
   <path class="hierarchical-1:primary SFSymbolsPreview212121" d="M50.04-74.77C52.09-74.77 54.1-74.23 55.85-73.219L80.37-59.207C81.77-58.399 82.98-57.31 83.93-56.017C84.19-55.746 84.43-55.438 84.63-55.097C84.8-54.801 84.93-54.495 85.03-54.182C85.79-52.607 86.19-50.879 86.19-49.127L86.19-21.127C86.19-19.09 85.65-17.086 84.63-15.314C83.62-13.545 82.14-12.073 80.35-11.034L55.87 2.952C54.69 3.636 53.4 4.104 52.06 4.339C51.45 4.636 50.77 4.802 50.04 4.802C49.31 4.802 48.63 4.636 48.02 4.34C46.68 4.105 45.4 3.64 44.23 2.966L19.71-11.048C17.94-12.073 16.46-13.545 15.45-15.316C14.43-17.086 13.89-19.09 13.89-21.127L13.89-49.127C13.89-50.903 14.3-52.653 15.08-54.246C15.18-54.537 15.31-54.822 15.47-55.097C15.65-55.422 15.87-55.716 16.12-55.976C17.08-57.288 18.3-58.393 19.73-59.219L44.21-73.204C45.98-74.23 47.99-74.77 50.04-74.77ZM23.19-45.257L23.19-21.127C23.19-20.725 23.3-20.315 23.51-19.947C23.71-19.603 24.01-19.305 24.35-19.109L45.39-7.085L45.39-32.413L23.19-45.257ZM76.89-45.252L54.69-32.412L54.69-7.086L75.71-19.095C76.02-19.275 76.28-19.52 76.48-19.801L76.57-19.945C76.78-20.315 76.89-20.725 76.89-21.127L76.89-45.252ZM50.04-65.47C49.63-65.47 49.22-65.361 48.85-65.144L27.99-53.225L50.04-40.466L72.1-53.223L51.21-65.159C50.92-65.328 50.59-65.431 50.25-65.461L50.04-65.47Z"/>
  </g>
  <g id="Medium-S" transform="matrix(1 0 0 1 1697.17 696)">
   <path class="hierarchical-0:secondary SFSymbolsPreview4D4D4D" d="M30.19-64.467C31.3-66.391 33.72-67.09 35.68-66.091L35.86-65.989L67.36-47.824C69.35-46.679 70.03-44.142 68.89-42.156C67.78-40.233 65.36-39.533 63.4-40.532L63.22-40.634L31.72-58.799C29.73-59.944 29.05-62.482 30.19-64.467Z"/>
   <path class="hierarchical-1:primary SFSymbolsPreview212121" d="M49.54-74.27C51.5-74.27 53.43-73.753 55.1-72.785L79.62-58.774C80.97-57.994 82.14-56.941 83.05-55.689C83.25-55.491 83.42-55.27 83.58-55.028L83.69-54.846C83.85-54.575 83.97-54.293 84.06-54.005C84.8-52.486 85.19-50.818 85.19-49.127L85.19-21.127C85.19-19.178 84.67-17.26 83.7-15.564C82.73-13.871 81.31-12.461 79.6-11.468L55.12 2.52C53.97 3.185 52.71 3.637 51.41 3.859C50.85 4.142 50.21 4.302 49.54 4.302C48.87 4.302 48.23 4.143 47.67 3.86C46.37 3.639 45.12 3.19 43.98 2.532L19.46-11.48C17.77-12.461 16.35-13.871 15.38-15.565C14.41-17.26 13.89-19.178 13.89-21.127L13.89-49.127C13.89-50.838 14.29-52.524 15.04-54.057C15.13-54.327 15.25-54.591 15.4-54.847C15.57-55.142 15.77-55.408 16-55.643C16.91-56.915 18.1-57.986 19.48-58.785L43.96-72.771C45.65-73.753 47.58-74.27 49.54-74.27ZM22.19-46.123L22.19-21.127C22.19-20.637 22.32-20.142 22.58-19.698C22.82-19.278 23.18-18.916 23.6-18.675L45.39-6.224L45.39-32.7L22.19-46.123ZM76.89-46.119L53.69-32.701L53.69-6.224L75.46-18.663C75.84-18.88 76.16-19.177 76.39-19.52L76.5-19.696C76.76-20.142 76.89-20.637 76.89-21.127L76.89-46.119ZM49.54-65.97C49.04-65.97 48.55-65.838 48.1-65.578L26.48-53.228L49.54-39.889L72.6-53.226L50.96-65.592C50.59-65.803 50.18-65.93 49.75-65.962L49.54-65.97Z"/>
  </g>
  <g id="Regular-S" transform="matrix(1 0 0 1 1401.11 696)">
   <path class="hierarchical-0:secondary SFSymbolsPreview4D4D4D" d="M30.11-64.142C31.04-65.759 33.07-66.351 34.71-65.52L34.89-65.426L66.39-47.261C68.06-46.295 68.64-44.155 67.67-42.481C66.74-40.864 64.71-40.272 63.07-41.103L62.89-41.197L31.39-59.362C29.72-60.328 29.14-62.468 30.11-64.142Z"/>
   <path class="hierarchical-1:primary SFSymbolsPreview212121" d="M48.89-73.619C50.74-73.619 52.55-73.133 54.13-72.22L78.64-58.211C79.93-57.467 81.04-56.46 81.91-55.263C82.12-55.048 82.32-54.799 82.48-54.52C82.62-54.276 82.73-54.021 82.81-53.761C83.52-52.319 83.89-50.734 83.89-49.126L83.89-21.126C83.89-19.292 83.4-17.485 82.48-15.887C81.57-14.294 80.24-12.967 78.63-12.032L54.14 1.957C53.03 2.601 51.81 3.033 50.55 3.235C50.06 3.501 49.49 3.653 48.89 3.653C48.29 3.653 47.72 3.501 47.23 3.234C45.97 3.034 44.75 2.604 43.65 1.968L19.14-12.043C17.54-12.967 16.21-14.294 15.29-15.888C14.38-17.485 13.89-19.292 13.89-21.126L13.89-49.126C13.89-50.751 14.27-52.352 15-53.806C15.07-54.05 15.18-54.29 15.31-54.521C15.46-54.784 15.64-55.02 15.85-55.228C16.72-56.44 17.84-57.461 19.15-58.22L43.63-72.209C45.23-73.133 47.04-73.619 48.89-73.619ZM20.89-47.249L20.89-21.126C20.89-20.522 21.05-19.915 21.36-19.373C21.66-18.854 22.11-18.411 22.63-18.11L45.39-5.102L45.39-33.075L20.89-47.249ZM76.89-47.245L52.39-33.075L52.39-5.103L75.14-18.1C75.61-18.372 76-18.745 76.3-19.181L76.41-19.372C76.73-19.915 76.89-20.522 76.89-21.126L76.89-47.245ZM48.89-66.619C48.27-66.619 47.67-66.458 47.13-66.142L24.53-53.231L48.89-39.137L73.25-53.228L50.63-66.154C50.18-66.42 49.66-66.577 49.12-66.612L48.89-66.619Z"/>
  </g>
  <g id="Light-S" transform="matrix(1 0 0 1 1105.2 696)">
   <path class="hierarchical-0:secondary SFSymbolsPreview4D4D4D" d="M30-63.742C30.72-64.982 32.27-65.44 33.53-64.816L33.69-64.732L65.19-46.567C66.48-45.822 66.92-44.171 66.18-42.879C65.46-41.639 63.91-41.181 62.65-41.806L62.49-41.889L30.99-60.054C29.7-60.799 29.26-62.45 30-63.742Z"/>
   <path class="hierarchical-1:primary SFSymbolsPreview212121" d="M48.09-72.818C49.8-72.818 51.47-72.369 52.93-71.525L77.44-57.518C78.65-56.818 79.7-55.867 80.5-54.736C80.69-54.56 80.85-54.354 80.99-54.119C81.11-53.909 81.2-53.688 81.26-53.464C81.93-52.116 82.29-50.631 82.29-49.125L82.29-21.125C82.29-19.432 81.84-17.762 80.99-16.285C80.15-14.814 78.92-13.588 77.43-12.726L52.94 1.266C51.88 1.885 50.7 2.291 49.48 2.467C49.08 2.713 48.6 2.854 48.09 2.854C47.58 2.854 47.1 2.713 46.7 2.468C45.48 2.292 44.31 1.887 43.25 1.274L18.74-12.734C17.26-13.588 16.03-14.814 15.19-16.286C14.34-17.762 13.89-19.432 13.89-21.125L13.89-49.125C13.89-50.648 14.25-52.15 14.94-53.511C15-53.718 15.09-53.923 15.2-54.119C15.33-54.342 15.49-54.54 15.66-54.71C16.47-55.853 17.52-56.814 18.75-57.525L43.24-71.516C44.71-72.369 46.38-72.818 48.09-72.818ZM19.29-48.635L19.29-21.125C19.29-20.381 19.49-19.637 19.87-18.974C20.24-18.332 20.79-17.788 21.43-17.415L45.39-3.723L45.39-33.534L19.29-48.635ZM76.89-48.631L50.79-33.535L50.79-3.724L74.74-17.407C75.32-17.745 75.82-18.213 76.18-18.763L76.31-18.973C76.69-19.637 76.89-20.381 76.89-21.125L76.89-48.631ZM48.09-67.418C47.33-67.418 46.59-67.22 45.93-66.836L22.13-53.234L48.09-38.212L74.06-53.231L50.24-66.845C49.66-67.178 49.01-67.372 48.34-67.411L48.09-67.418Z"/>
  </g>
  <g id="Thin-S" transform="matrix(1 0 0 1 809.537 696)">
   <path class="hierarchical-0:secondary SFSymbolsPreview4D4D4D" d="M29.861-63.217C30.291-63.963 31.215-64.246 31.981-63.891L32.114-63.822L63.614-45.657C64.404-45.202 64.675-44.193 64.219-43.403C63.79-42.658 62.866-42.375 62.099-42.729L61.966-42.798L30.466-60.963C29.676-61.419 29.406-62.428 29.861-63.217Z"/>
   <path class="hierarchical-1:primary SFSymbolsPreview212121" d="M47.04-71.77C48.56-71.77 50.051-71.37 51.359-70.614L75.864-56.611C76.981-55.967 77.938-55.082 78.665-54.024C78.805-53.906 78.926-53.762 79.023-53.595C79.109-53.446 79.169-53.29 79.205-53.131C79.85-51.897 80.189-50.524 80.19-49.127L80.19-21.125C80.189-19.608 79.788-18.118 79.029-16.805C78.27-15.492 77.179-14.401 75.859-13.639L51.365 0.358C50.343 0.947 49.216 1.32 48.052 1.457C47.772 1.673 47.421 1.802 47.04 1.802C46.66 1.802 46.31 1.674 46.031 1.458C44.867 1.321 43.739 0.948 42.721 0.361L18.215-13.643C16.902-14.401 15.811-15.492 15.052-16.804C14.292-18.118 13.891-19.608 13.89-21.127L13.89-49.128C13.891-50.524 14.23-51.896 14.876-53.129C14.91-53.289 14.971-53.446 15.057-53.595C15.154-53.762 15.275-53.906 15.414-54.024C16.143-55.082 17.1-55.967 18.221-56.614L42.714-70.61C44.029-71.37 45.521-71.77 47.04-71.77ZM17.338-50.369C17.24-49.963 17.19-49.547 17.19-49.127L17.19-21.128C17.191-20.19 17.439-19.269 17.909-18.456C18.378-17.644 19.053-16.969 19.859-16.504L44.365-2.501C44.691-2.312 45.035-2.16 45.391-2.044L45.39-34.142L17.338-50.369ZM76.742-50.368L48.69-34.143L48.691-2.045C48.958-2.132 49.22-2.24 49.472-2.369L49.721-2.504L74.215-16.5C75.027-16.969 75.702-17.644 76.172-18.457C76.642-19.269 76.889-20.19 76.89-21.127L76.89-49.125C76.89-49.546 76.84-49.963 76.742-50.368ZM47.04-68.47C46.1-68.47 45.178-68.223 44.359-67.749L19.864-53.752C19.579-53.588 19.311-53.398 19.062-53.185L47.039-37.001L75.018-53.186C74.771-53.397 74.504-53.586 74.221-53.749L49.714-67.753C48.902-68.223 47.98-68.47 47.04-68.47Z"/>
  </g>
  <g id="Ultralight-S" transform="matrix(1 0 0 1 513.376 696)">
   <path class="hierarchical-0:secondary SFSymbolsPreview4D4D4D" d="M29.787-62.942C30.07-63.433 30.675-63.623 31.182-63.399L31.289-63.345L62.789-45.18C63.316-44.876 63.496-44.204 63.193-43.677C62.91-43.186 62.305-42.996 61.798-43.22L61.69-43.274L30.19-61.439C29.664-61.743 29.484-62.415 29.787-62.942Z"/>
   <path class="hierarchical-1:primary SFSymbolsPreview212121" d="M46.49-71.219C47.803-71.219 49.095-70.9 50.25-70.293L50.536-70.136L75.04-56.134C76.107-55.518 77.018-54.667 77.704-53.649C77.82-53.562 77.92-53.451 77.997-53.319C78.067-53.198 78.111-53.071 78.132-52.941C78.707-51.867 79.032-50.677 79.083-49.459L79.09-49.126L79.09-21.125C79.089-19.704 78.714-18.309 78.002-17.079C77.346-15.945 76.425-14.987 75.317-14.286L75.036-14.116L50.54-0.118C49.534 0.462 48.419 0.818 47.27 0.93C47.071 1.129 46.795 1.253 46.49 1.253C46.185 1.253 45.909 1.129 45.71 0.929C44.676 0.829 43.67 0.531 42.748 0.051L42.444-0.116L17.94-14.118C16.71-14.828 15.688-15.85 14.978-17.079C14.321-18.214 13.951-19.491 13.897-20.798L13.89-21.126L13.89-49.127C13.891-50.548 14.266-51.942 14.978-53.172L14.849-52.941C14.869-53.071 14.913-53.198 14.983-53.319C15.06-53.451 15.16-53.562 15.276-53.649C15.9-54.574 16.709-55.362 17.656-55.962L17.944-56.136L42.44-70.133C43.67-70.845 45.067-71.219 46.49-71.219ZM16.465-51.189C16.254-50.626 16.13-50.032 16.098-49.428L16.09-49.126L16.09-21.127C16.091-20.092 16.364-19.076 16.882-18.18C17.348-17.374 17.998-16.691 18.773-16.187L19.036-16.026L43.54-2.023C44.116-1.691 44.742-1.459 45.39-1.336L45.39-34.459L16.465-51.189ZM76.515-51.19L47.59-34.459L47.591-1.337C48.138-1.441 48.67-1.622 49.17-1.877L49.444-2.026L73.94-16.023C74.836-16.541 75.58-17.285 76.098-18.181C76.564-18.987 76.832-19.89 76.882-20.816L76.89-21.126L76.89-49.125C76.889-49.833 76.761-50.532 76.515-51.19ZM46.49-69.019C45.557-69.019 44.64-68.798 43.809-68.374L43.536-68.226L19.04-54.228C18.503-53.918 18.02-53.527 17.608-53.07L46.49-36.364L75.372-53.07C75.029-53.45 74.637-53.785 74.207-54.065L73.944-54.226L49.44-68.228C48.544-68.746 47.527-69.019 46.49-69.019Z"/>
  </g>
 </g>
</svg>
