<?xml version="1.0" encoding="UTF-8"?>
<!--Generator: Apple Native CoreSVG 175-->
<!DOCTYPE svg
PUBLIC "-//W3C//DTD SVG 1.1//EN"
       "http://www.w3.org/Graphics/SVG/1.1/DTD/svg11.dtd">
<svg version="1.1" xmlns="http://www.w3.org/2000/svg" xmlns:xlink="http://www.w3.org/1999/xlink" width="3300" height="2200">
 <!--glyph: "", point size: 100.0, font version: "17.0d12e1", template writer version: "65.1"-->
 <style>.hierarchical-0:secondary {fill:#4D4D4D}
.hierarchical-1:primary {fill:#212121}

.SFSymbolsPreview212121 {fill:#212121;opacity:1.0}
.SFSymbolsPreview4D4D4D {fill:#4D4D4D;opacity:1.0}
</style>
 <g id="Notes">
  <rect height="2200" id="artboard" style="fill:white;opacity:1" width="3300" x="0" y="0"/>
  <line style="fill:none;stroke:black;opacity:1;stroke-width:0.5;" x1="263" x2="3036" y1="292" y2="292"/>
  <text style="stroke:none;fill:black;font-family:sans-serif;font-size:13;font-weight:bold;" transform="matrix(1 0 0 1 263 322)">Weight/Scale Variations</text>
  <text style="stroke:none;fill:black;font-family:sans-serif;font-size:13;text-anchor:middle;" transform="matrix(1 0 0 1 559.711 322)">Ultralight</text>
  <text style="stroke:none;fill:black;font-family:sans-serif;font-size:13;text-anchor:middle;" transform="matrix(1 0 0 1 856.422 322)">Thin</text>
  <text style="stroke:none;fill:black;font-family:sans-serif;font-size:13;text-anchor:middle;" transform="matrix(1 0 0 1 1153.13 322)">Light</text>
  <text style="stroke:none;fill:black;font-family:sans-serif;font-size:13;text-anchor:middle;" transform="matrix(1 0 0 1 1449.84 322)">Regular</text>
  <text style="stroke:none;fill:black;font-family:sans-serif;font-size:13;text-anchor:middle;" transform="matrix(1 0 0 1 1746.56 322)">Medium</text>
  <text style="stroke:none;fill:black;font-family:sans-serif;font-size:13;text-anchor:middle;" transform="matrix(1 0 0 1 2043.27 322)">Semibold</text>
  <text style="stroke:none;fill:black;font-family:sans-serif;font-size:13;text-anchor:middle;" transform="matrix(1 0 0 1 2339.98 322)">Bold</text>
  <text style="stroke:none;fill:black;font-family:sans-serif;font-size:13;text-anchor:middle;" transform="matrix(1 0 0 1 2636.69 322)">Heavy</text>
  <text style="stroke:none;fill:black;font-family:sans-serif;font-size:13;text-anchor:middle;" transform="matrix(1 0 0 1 2933.4 322)">Black</text>
  <line style="fill:none;stroke:black;opacity:1;stroke-width:0.5;" x1="263" x2="3036" y1="1903" y2="1903"/>
  <g transform="matrix(1 0 0 1 263 1933)">
   <path d="M9.24805 0.830078Q10.8691 0.830078 12.2949 0.214844Q13.7207-0.400391 14.8096-1.49414Q15.8984-2.58789 16.5186-4.01367Q17.1387-5.43945 17.1387-7.05078Q17.1387-8.66211 16.5186-10.0879Q15.8984-11.5137 14.8047-12.6074Q13.7109-13.7012 12.2852-14.3164Q10.8594-14.9316 9.23828-14.9316Q7.62695-14.9316 6.20117-14.3164Q4.77539-13.7012 3.69141-12.6074Q2.60742-11.5137 1.9873-10.0879Q1.36719-8.66211 1.36719-7.05078Q1.36719-5.43945 1.9873-4.01367Q2.60742-2.58789 3.69629-1.49414Q4.78516-0.400391 6.21094 0.214844Q7.63672 0.830078 9.24805 0.830078ZM9.24805-0.654297Q7.91992-0.654297 6.7627-1.14746Q5.60547-1.64062 4.73145-2.51953Q3.85742-3.39844 3.36426-4.56055Q2.87109-5.72266 2.87109-7.05078Q2.87109-8.37891 3.35938-9.54102Q3.84766-10.7031 4.72168-11.582Q5.5957-12.4609 6.75293-12.9541Q7.91016-13.4473 9.23828-13.4473Q10.5762-13.4473 11.7334-12.9541Q12.8906-12.4609 13.7695-11.582Q14.6484-10.7031 15.1465-9.54102Q15.6445-8.37891 15.6445-7.05078Q15.6445-5.72266 15.1514-4.56055Q14.6582-3.39844 13.7842-2.51953Q12.9102-1.64062 11.748-1.14746Q10.5859-0.654297 9.24805-0.654297ZM5.6543-7.05078Q5.6543-6.72852 5.85938-6.52832Q6.06445-6.32812 6.40625-6.32812L8.51562-6.32812L8.51562-4.20898Q8.51562-3.88672 8.71094-3.67676Q8.90625-3.4668 9.23828-3.4668Q9.56055-3.4668 9.77051-3.67676Q9.98047-3.88672 9.98047-4.20898L9.98047-6.32812L12.0898-6.32812Q12.4219-6.32812 12.627-6.52832Q12.832-6.72852 12.832-7.05078Q12.832-7.38281 12.627-7.58789Q12.4219-7.79297 12.0898-7.79297L9.98047-7.79297L9.98047-9.90234Q9.98047-10.2344 9.77051-10.4443Q9.56055-10.6543 9.23828-10.6543Q8.90625-10.6543 8.71094-10.4443Q8.51562-10.2344 8.51562-9.90234L8.51562-7.79297L6.40625-7.79297Q6.06445-7.79297 5.85938-7.58789Q5.6543-7.38281 5.6543-7.05078Z"/>
  </g>
  <g transform="matrix(1 0 0 1 281.867 1933)">
   <path d="M11.709 2.91016Q13.75 2.91016 15.5518 2.12891Q17.3535 1.34766 18.7305-0.0292969Q20.1074-1.40625 20.8887-3.20801Q21.6699-5.00977 21.6699-7.05078Q21.6699-9.0918 20.8887-10.8936Q20.1074-12.6953 18.7305-14.0723Q17.3535-15.4492 15.5469-16.2305Q13.7402-17.0117 11.6992-17.0117Q9.6582-17.0117 7.85645-16.2305Q6.05469-15.4492 4.68262-14.0723Q3.31055-12.6953 2.5293-10.8936Q1.74805-9.0918 1.74805-7.05078Q1.74805-5.00977 2.5293-3.20801Q3.31055-1.40625 4.6875-0.0292969Q6.06445 1.34766 7.86621 2.12891Q9.66797 2.91016 11.709 2.91016ZM11.709 1.25Q9.98047 1.25 8.47656 0.605469Q6.97266-0.0390625 5.83496-1.17676Q4.69727-2.31445 4.05762-3.81836Q3.41797-5.32227 3.41797-7.05078Q3.41797-8.7793 4.05762-10.2832Q4.69727-11.7871 5.83008-12.9297Q6.96289-14.0723 8.4668-14.7119Q9.9707-15.3516 11.6992-15.3516Q13.4277-15.3516 14.9316-14.7119Q16.4355-14.0723 17.5781-12.9297Q18.7207-11.7871 19.3652-10.2832Q20.0098-8.7793 20.0098-7.05078Q20.0098-5.32227 19.3701-3.81836Q18.7305-2.31445 17.5928-1.17676Q16.4551-0.0390625 14.9463 0.605469Q13.4375 1.25 11.709 1.25ZM7.17773-7.05078Q7.17773-6.69922 7.41211-6.47461Q7.64648-6.25 8.01758-6.25L10.8887-6.25L10.8887-3.36914Q10.8887-2.99805 11.1133-2.76855Q11.3379-2.53906 11.6895-2.53906Q12.0605-2.53906 12.29-2.76855Q12.5195-2.99805 12.5195-3.36914L12.5195-6.25L15.4004-6.25Q15.7715-6.25 16.001-6.47461Q16.2305-6.69922 16.2305-7.05078Q16.2305-7.42188 16.001-7.65137Q15.7715-7.88086 15.4004-7.88086L12.5195-7.88086L12.5195-10.752Q12.5195-11.1328 12.29-11.3623Q12.0605-11.5918 11.6895-11.5918Q11.3379-11.5918 11.1133-11.3574Q10.8887-11.123 10.8887-10.752L10.8887-7.88086L8.01758-7.88086Q7.63672-7.88086 7.40723-7.65137Q7.17773-7.42188 7.17773-7.05078Z"/>
  </g>
  <g transform="matrix(1 0 0 1 305.646 1933)">
   <path d="M14.9707 5.66406Q17.0605 5.66406 18.96 5.01465Q20.8594 4.36523 22.4512 3.19336Q24.043 2.02148 25.2197 0.429688Q26.3965-1.16211 27.0459-3.06641Q27.6953-4.9707 27.6953-7.05078Q27.6953-9.14062 27.0459-11.04Q26.3965-12.9395 25.2197-14.5312Q24.043-16.123 22.4512-17.2998Q20.8594-18.4766 18.9551-19.126Q17.0508-19.7754 14.9609-19.7754Q12.8711-19.7754 10.9717-19.126Q9.07227-18.4766 7.48535-17.2998Q5.89844-16.123 4.72168-14.5312Q3.54492-12.9395 2.90039-11.04Q2.25586-9.14062 2.25586-7.05078Q2.25586-4.9707 2.90527-3.06641Q3.55469-1.16211 4.72656 0.429688Q5.89844 2.02148 7.49023 3.19336Q9.08203 4.36523 10.9814 5.01465Q12.8809 5.66406 14.9707 5.66406ZM14.9707 3.84766Q13.1641 3.84766 11.5283 3.2959Q9.89258 2.74414 8.53516 1.74805Q7.17773 0.751953 6.17676-0.610352Q5.17578-1.97266 4.62891-3.6084Q4.08203-5.24414 4.08203-7.05078Q4.08203-8.86719 4.62891-10.5029Q5.17578-12.1387 6.17188-13.501Q7.16797-14.8633 8.52539-15.8594Q9.88281-16.8555 11.5186-17.4023Q13.1543-17.9492 14.9609-17.9492Q16.7773-17.9492 18.4131-17.4023Q20.0488-16.8555 21.4111-15.8594Q22.7734-14.8633 23.7695-13.501Q24.7656-12.1387 25.3174-10.5029Q25.8691-8.86719 25.8691-7.05078Q25.8789-5.24414 25.332-3.6084Q24.7852-1.97266 23.7842-0.610352Q22.7832 0.751953 21.4209 1.74805Q20.0586 2.74414 18.4229 3.2959Q16.7871 3.84766 14.9707 3.84766ZM9.19922-7.05078Q9.19922-6.66992 9.45801-6.4209Q9.7168-6.17188 10.1172-6.17188L14.0625-6.17188L14.0625-2.2168Q14.0625-1.81641 14.3115-1.55762Q14.5605-1.29883 14.9512-1.29883Q15.3516-1.29883 15.6104-1.55273Q15.8691-1.80664 15.8691-2.2168L15.8691-6.17188L19.8242-6.17188Q20.2246-6.17188 20.4785-6.4209Q20.7324-6.66992 20.7324-7.05078Q20.7324-7.46094 20.4785-7.71484Q20.2246-7.96875 19.8242-7.96875L15.8691-7.96875L15.8691-11.9141Q15.8691-12.3242 15.6104-12.583Q15.3516-12.8418 14.9512-12.8418Q14.5605-12.8418 14.3115-12.583Q14.0625-12.3242 14.0625-11.9141L14.0625-7.96875L10.1172-7.96875Q9.70703-7.96875 9.45312-7.71484Q9.19922-7.46094 9.19922-7.05078Z"/>
  </g>
  <text style="stroke:none;fill:black;font-family:sans-serif;font-size:13;font-weight:bold;" transform="matrix(1 0 0 1 263 1953)">Design Variations</text>
  <text style="stroke:none;fill:black;font-family:sans-serif;font-size:13;" transform="matrix(1 0 0 1 263 1971)">Symbols are supported in up to nine weights and three scales.</text>
  <text style="stroke:none;fill:black;font-family:sans-serif;font-size:13;" transform="matrix(1 0 0 1 263 1989)">For optimal layout with text and other symbols, vertically align</text>
  <text style="stroke:none;fill:black;font-family:sans-serif;font-size:13;" transform="matrix(1 0 0 1 263 2007)">symbols with the adjacent text.</text>
  <line style="fill:none;stroke:#00AEEF;stroke-width:0.5;opacity:1.0;" x1="776" x2="776" y1="1919" y2="1933"/>
  <g transform="matrix(1 0 0 1 776 1933)">
   <path d="M3.31055 0.15625Q3.70117 0.15625 3.91602-0.00976562Q4.13086-0.175781 4.26758-0.585938L5.52734-4.0332L11.2891-4.0332L12.5488-0.585938Q12.6855-0.175781 12.9004-0.00976562Q13.1152 0.15625 13.4961 0.15625Q13.8867 0.15625 14.1162-0.0585938Q14.3457-0.273438 14.3457-0.644531Q14.3457-0.869141 14.2383-1.17188L9.6582-13.3691Q9.48242-13.8184 9.17969-14.043Q8.87695-14.2676 8.4082-14.2676Q7.5-14.2676 7.17773-13.3789L2.59766-1.16211Q2.49023-0.859375 2.49023-0.634766Q2.49023-0.263672 2.70996-0.0537109Q2.92969 0.15625 3.31055 0.15625ZM6.00586-5.51758L8.37891-12.0898L8.42773-12.0898L10.8008-5.51758Z"/>
  </g>
  <line style="fill:none;stroke:#00AEEF;stroke-width:0.5;opacity:1.0;" x1="793.197" x2="793.197" y1="1919" y2="1933"/>
  <text style="stroke:none;fill:black;font-family:sans-serif;font-size:13;font-weight:bold;" transform="matrix(1 0 0 1 776 1953)">Margins</text>
  <text style="stroke:none;fill:black;font-family:sans-serif;font-size:13;" transform="matrix(1 0 0 1 776 1971)">Leading and trailing margins on the left and right side of each symbol</text>
  <text style="stroke:none;fill:black;font-family:sans-serif;font-size:13;" transform="matrix(1 0 0 1 776 1989)">can be adjusted by modifying the x-location of the margin guidelines.</text>
  <text style="stroke:none;fill:black;font-family:sans-serif;font-size:13;" transform="matrix(1 0 0 1 776 2007)">Modifications are automatically applied proportionally to all</text>
  <text style="stroke:none;fill:black;font-family:sans-serif;font-size:13;" transform="matrix(1 0 0 1 776 2025)">scales and weights.</text>
  <g transform="matrix(1 0 0 1 1289 1933)">
   <path d="M2.8418 1.86523L4.54102 3.57422Q5.18555 4.22852 5.90332 4.17969Q6.62109 4.13086 7.31445 3.35938L18.0078-8.42773L17.041-9.4043L6.42578 2.27539Q6.16211 2.57812 5.89355 2.61719Q5.625 2.65625 5.27344 2.30469L4.10156 1.14258Q3.75 0.791016 3.79395 0.522461Q3.83789 0.253906 4.14062-0.0195312L15.6152-10.8203L14.6387-11.7871L3.04688-0.898438Q2.30469-0.214844 2.25098 0.498047Q2.19727 1.21094 2.8418 1.86523ZM9.25781-16.3281Q8.94531-16.0254 8.90625-15.6348Q8.86719-15.2441 9.04297-14.9512Q9.21875-14.6777 9.55566-14.541Q9.89258-14.4043 10.3809-14.5215Q11.4746-14.7754 12.5977-14.7314Q13.7207-14.6875 14.7949-13.9844L14.209-12.5293Q13.9551-11.9043 14.0674-11.4404Q14.1797-10.9766 14.5801-10.5664L16.875-8.25195Q17.2363-7.88086 17.5781-7.82227Q17.9199-7.76367 18.3398-7.8418L19.4043-8.03711L20.0684-7.36328L20.0293-6.80664Q20-6.43555 20.1221-6.12305Q20.2441-5.81055 20.6055-5.44922L21.3672-4.70703Q21.7285-4.3457 22.1533-4.33105Q22.5781-4.31641 22.9297-4.66797L25.8398-7.58789Q26.1914-7.93945 26.1816-8.35449Q26.1719-8.76953 25.8105-9.13086L25.0391-9.89258Q24.6875-10.2539 24.3799-10.3857Q24.0723-10.5176 23.7109-10.4883L23.1348-10.4395L22.4902-11.0742L22.7344-12.1973Q22.832-12.6172 22.6953-12.9834Q22.5586-13.3496 22.1191-13.7891L19.9219-15.9766Q18.6719-17.2168 17.2607-17.8369Q15.8496-18.457 14.4189-18.4814Q12.9883-18.5059 11.665-17.959Q10.3418-17.4121 9.25781-16.3281ZM10.752-15.957Q11.6602-16.6211 12.7002-16.9043Q13.7402-17.1875 14.8047-17.085Q15.8691-16.9824 16.8701-16.5137Q17.8711-16.0449 18.7012-15.2051L21.1328-12.793Q21.3086-12.6172 21.3525-12.4512Q21.3965-12.2852 21.3379-12.0312L21.0156-10.5469L22.5195-9.0625L23.5059-9.12109Q23.6914-9.13086 23.7891-9.09668Q23.8867-9.0625 24.0332-8.91602L24.6094-8.33984L22.168-5.89844L21.5918-6.47461Q21.4453-6.62109 21.4062-6.71875Q21.3672-6.81641 21.377-7.01172L21.4453-7.98828L19.9512-9.47266L18.4277-9.21875Q18.1836-9.16992 18.042-9.2041Q17.9004-9.23828 17.7148-9.41406L15.7129-11.416Q15.5176-11.5918 15.4932-11.7529Q15.4688-11.9141 15.5859-12.1875L16.4648-14.2773Q15.293-15.3711 13.8281-15.791Q12.3633-16.2109 10.8398-15.7617Q10.7227-15.7324 10.6885-15.8057Q10.6543-15.8789 10.752-15.957Z"/>
  </g>
  <text style="stroke:none;fill:black;font-family:sans-serif;font-size:13;font-weight:bold;" transform="matrix(1 0 0 1 1289 1953)">Exporting</text>
  <text style="stroke:none;fill:black;font-family:sans-serif;font-size:13;" transform="matrix(1 0 0 1 1289 1971)">Symbols should be outlined when exporting to ensure the</text>
  <text style="stroke:none;fill:black;font-family:sans-serif;font-size:13;" transform="matrix(1 0 0 1 1289 1989)">design is preserved when submitting to Xcode.</text>
  <text id="template-version" style="stroke:none;fill:black;font-family:sans-serif;font-size:13;text-anchor:end;" transform="matrix(1 0 0 1 3036 1933)">Template v.3.0</text>
  <text style="stroke:none;fill:black;font-family:sans-serif;font-size:13;text-anchor:end;" transform="matrix(1 0 0 1 3036 1951)">Requires Xcode 13 or greater</text>
  <text id="descriptive-name" style="stroke:none;fill:black;font-family:sans-serif;font-size:13;text-anchor:end;" transform="matrix(1 0 0 1 3036 1969)">Generated from sunrise</text>
  <text style="stroke:none;fill:black;font-family:sans-serif;font-size:13;text-anchor:end;" transform="matrix(1 0 0 1 3036 1987)">Typeset at 100 points</text>
  <text style="stroke:none;fill:black;font-family:sans-serif;font-size:13;" transform="matrix(1 0 0 1 263 726)">Small</text>
  <text style="stroke:none;fill:black;font-family:sans-serif;font-size:13;" transform="matrix(1 0 0 1 263 1156)">Medium</text>
  <text style="stroke:none;fill:black;font-family:sans-serif;font-size:13;" transform="matrix(1 0 0 1 263 1586)">Large</text>
 </g>
 <g id="Guides">
  <g id="H-reference" style="fill:#27AAE1;stroke:none;" transform="matrix(1 0 0 1 339 696)">
   <path d="M0.976562 0L3.66211 0L29.3457-67.1387L30.0293-67.1387L30.0293-70.459L28.125-70.459ZM11.6699-24.4629L46.9727-24.4629L46.2402-26.709L12.4512-26.709ZM55.127 0L57.7637 0L30.6152-70.459L29.4434-70.459L29.4434-67.1387Z"/>
  </g>
  <line id="Baseline-S" style="fill:none;stroke:#27AAE1;opacity:1;stroke-width:0.5;" x1="263" x2="3036" y1="696" y2="696"/>
  <line id="Capline-S" style="fill:none;stroke:#27AAE1;opacity:1;stroke-width:0.5;" x1="263" x2="3036" y1="625.541" y2="625.541"/>
  <g id="H-reference" style="fill:#27AAE1;stroke:none;" transform="matrix(1 0 0 1 339 1126)">
   <path d="M0.976562 0L3.66211 0L29.3457-67.1387L30.0293-67.1387L30.0293-70.459L28.125-70.459ZM11.6699-24.4629L46.9727-24.4629L46.2402-26.709L12.4512-26.709ZM55.127 0L57.7637 0L30.6152-70.459L29.4434-70.459L29.4434-67.1387Z"/>
  </g>
  <line id="Baseline-M" style="fill:none;stroke:#27AAE1;opacity:1;stroke-width:0.5;" x1="263" x2="3036" y1="1126" y2="1126"/>
  <line id="Capline-M" style="fill:none;stroke:#27AAE1;opacity:1;stroke-width:0.5;" x1="263" x2="3036" y1="1055.54" y2="1055.54"/>
  <g id="H-reference" style="fill:#27AAE1;stroke:none;" transform="matrix(1 0 0 1 339 1556)">
   <path d="M0.976562 0L3.66211 0L29.3457-67.1387L30.0293-67.1387L30.0293-70.459L28.125-70.459ZM11.6699-24.4629L46.9727-24.4629L46.2402-26.709L12.4512-26.709ZM55.127 0L57.7637 0L30.6152-70.459L29.4434-70.459L29.4434-67.1387Z"/>
  </g>
  <line id="Baseline-L" style="fill:none;stroke:#27AAE1;opacity:1;stroke-width:0.5;" x1="263" x2="3036" y1="1556" y2="1556"/>
  <line id="Capline-L" style="fill:none;stroke:#27AAE1;opacity:1;stroke-width:0.5;" x1="263" x2="3036" y1="1485.54" y2="1485.54"/>
  <line id="left-margin-Regular-M" style="fill:none;stroke:#00AEEF;stroke-width:0.5;opacity:1.0;" x1="1392.45" x2="1392.45" y1="1030.78" y2="1150.12"/>
  <line id="right-margin-Regular-M" style="fill:none;stroke:#00AEEF;stroke-width:0.5;opacity:1.0;" x1="1507.24" x2="1507.24" y1="1030.78" y2="1150.12"/>
 </g>
 <g id="Symbols">
  <g id="Black-L" transform="matrix(1 0 0 1 2858.94 1556)">
   <path class="hierarchical-0:secondary SFSymbolsPreview4D4D4D" d="M25.35-51.76C28.12-54.53 32.62-54.53 35.39-51.76L43.47-43.68C46.24-40.91 46.24-36.41 43.47-33.64C40.7-30.87 36.2-30.87 33.43-33.64L25.35-41.71C22.58-44.49 22.58-48.98 25.35-51.76ZM123.89-51.76C126.66-48.98 126.66-44.49 123.89-41.71L115.81-33.64C113.04-30.87 108.54-30.87 105.77-33.64C103-36.41 103-40.91 105.77-43.68L113.85-51.76C116.62-54.53 121.12-54.53 123.89-51.76ZM118.71-2.49C118.71-6.41 121.89-9.59 125.81-9.59L137.18-9.59C141.1-9.59 144.28-6.41 144.28-2.49C144.28 1.44 141.1 4.61 137.18 4.61L125.81 4.61C121.89 4.61 118.71 1.44 118.71-2.49ZM4.96-2.49C4.96-6.41 8.14-9.59 12.06-9.59L23.43-9.59C27.35-9.59 30.53-6.41 30.53-2.49C30.53 1.44 27.35 4.61 23.43 4.61L12.06 4.61C8.14 4.61 4.96 1.44 4.96-2.49Z"/>
   <path class="hierarchical-1:primary SFSymbolsPreview212121" d="M4.96 20.26C4.96 16.34 8.14 13.16 12.06 13.16L137.18 13.16C141.1 13.16 144.28 16.34 144.28 20.26C144.28 24.19 141.1 27.36 137.18 27.36L12.06 27.36C8.14 27.36 4.96 24.19 4.96 20.26ZM49.49-27.61C56.16-34.28 65.2-38.02 74.62-38.02C84.05-38.02 93.09-34.28 99.75-27.61C106.41-20.95 110.16-11.91 110.16-2.49C110.16 1.44 106.98 4.61 103.06 4.61C99.14 4.61 95.96 1.44 95.96-2.49C95.96-8.14 93.71-13.57 89.71-17.57C85.71-21.57 80.28-23.82 74.62-23.82C68.96-23.82 63.53-21.57 59.53-17.57C55.53-13.57 53.28-8.14 53.28-2.49C53.28 1.44 50.1 4.61 46.18 4.61C42.26 4.61 39.08 1.44 39.08-2.49C39.08-11.91 42.83-20.95 49.49-27.61ZM69.6-98.51C72.37-101.28 76.87-101.28 79.64-98.51L102.39-75.76C105.16-72.98 105.16-68.49 102.39-65.71C99.62-62.94 95.12-62.94 92.35-65.71L74.62-83.44L56.89-65.71C54.12-62.94 49.62-62.94 46.85-65.71C44.08-68.49 44.08-72.98 46.85-75.76L69.6-98.51ZM74.62-100.59C78.54-100.59 81.72-97.41 81.72-93.49L81.72-53.67C81.72-49.75 78.54-46.57 74.62-46.57C70.7-46.57 67.52-49.75 67.52-53.67L67.52-93.49C67.52-97.41 70.7-100.59 74.62-100.59Z"/>
  </g>
  <g id="Heavy-L" transform="matrix(1 0 0 1 2563.07 1556)">
   <path class="hierarchical-0:secondary SFSymbolsPreview4D4D4D" d="M25.1-50.99C27.54-53.44 31.5-53.44 33.94-50.99L42.01-42.92C44.45-40.48 44.45-36.52 42.01-34.08C39.57-31.64 35.62-31.64 33.18-34.08L25.1-42.16C22.66-44.6 22.66-48.55 25.1-50.99ZM122.44-50.99C124.88-48.55 124.88-44.6 122.44-42.16L114.36-34.08C111.92-31.64 107.96-31.64 105.52-34.08C103.08-36.52 103.08-40.48 105.52-42.92L113.6-50.99C116.04-53.44 120-53.44 122.44-50.99ZM118.7-2.33C118.7-5.78 121.5-8.58 124.96-8.58L136.33-8.58C139.78-8.58 142.58-5.78 142.58-2.33C142.58 1.13 139.78 3.92 136.33 3.92L124.96 3.92C121.5 3.92 118.7 1.13 118.7-2.33ZM4.96-2.33C4.96-5.78 7.75-8.58 11.2-8.58L22.58-8.58C26.03-8.58 28.83-5.78 28.83-2.33C28.83 1.13 26.03 3.92 22.58 3.92L11.2 3.92C7.75 3.92 4.96 1.13 4.96-2.33Z"/>
   <path class="hierarchical-1:primary SFSymbolsPreview212121" d="M4.96 20.42C4.96 16.97 7.75 14.17 11.2 14.17L136.33 14.17C139.78 14.17 142.58 16.97 142.58 20.42C142.58 23.88 139.78 26.67 136.33 26.67L11.2 26.67C7.75 26.67 4.96 23.88 4.96 20.42ZM49.24-26.85C55.74-33.36 64.57-37.01 73.77-37.01C82.97-37.01 91.79-33.36 98.3-26.85C104.8-20.35 108.46-11.53 108.46-2.33C108.46 1.13 105.66 3.92 102.2 3.92C98.75 3.92 95.96 1.13 95.96-2.33C95.96-8.21 93.62-13.85 89.46-18.01C85.3-22.18 79.65-24.51 73.77-24.51C67.88-24.51 62.24-22.18 58.08-18.01C53.92-13.85 51.58-8.21 51.58-2.33C51.58 1.13 48.78 3.92 45.33 3.92C41.88 3.92 39.08 1.13 39.08-2.33C39.08-11.53 42.73-20.35 49.24-26.85ZM69.35-97.74C71.79-100.19 75.75-100.19 78.19-97.74L100.94-74.99C103.38-72.55 103.38-68.6 100.94-66.16C98.5-63.72 94.54-63.72 92.1-66.16L73.77-84.49L55.44-66.16C53-63.72 49.04-63.72 46.6-66.16C44.16-68.6 44.16-72.55 46.6-74.99L69.35-97.74ZM73.77-99.58C77.22-99.58 80.02-96.78 80.02-93.33L80.02-53.51C80.02-50.06 77.22-47.26 73.77-47.26C70.32-47.26 67.52-50.06 67.52-53.51L67.52-93.33C67.52-96.78 70.32-99.58 73.77-99.58Z"/>
  </g>
  <g id="Bold-L" transform="matrix(1 0 0 1 2267.31 1556)">
   <path class="hierarchical-0:secondary SFSymbolsPreview4D4D4D" d="M24.83-50.12C26.9-52.19 30.25-52.19 32.32-50.12L40.4-42.05C42.47-39.98 42.47-36.62 40.4-34.55C38.33-32.48 34.97-32.48 32.9-34.55L24.83-42.63C22.76-44.7 22.76-48.05 24.83-50.12ZM120.82-50.12C122.89-48.05 122.89-44.7 120.82-42.63L112.74-34.55C110.67-32.48 107.32-32.48 105.25-34.55C103.18-36.62 103.18-39.98 105.25-42.05L113.33-50.12C115.4-52.19 118.75-52.19 120.82-50.12ZM118.71-2.13C118.71-5.05 121.09-7.43 124.01-7.43L135.39-7.43C138.31-7.43 140.69-5.05 140.69-2.13C140.69 0.8 138.31 3.17 135.39 3.17L124.01 3.17C121.09 3.17 118.71 0.8 118.71-2.13ZM4.96-2.13C4.96-5.05 7.34-7.43 10.26-7.43L21.64-7.43C24.56-7.43 26.94-5.05 26.94-2.13C26.94 0.8 24.56 3.17 21.64 3.17L10.26 3.17C7.34 3.17 4.96 0.8 4.96-2.13Z"/>
   <path class="hierarchical-1:primary SFSymbolsPreview212121" d="M4.96 20.62C4.96 17.7 7.34 15.32 10.26 15.32L135.39 15.32C138.31 15.32 140.69 17.7 140.69 20.62C140.69 23.55 138.31 25.92 135.39 25.92L10.26 25.92C7.34 25.92 4.96 23.55 4.96 20.62ZM48.97-25.98C55.3-32.31 63.88-35.86 72.82-35.86C81.77-35.86 90.35-32.31 96.68-25.98C103.01-19.66 106.56-11.07 106.56-2.13C106.56 0.8 104.19 3.17 101.26 3.17C98.34 3.17 95.96 0.8 95.96-2.13C95.96-8.26 93.52-14.15 89.19-18.49C84.85-22.83 78.96-25.26 72.82-25.26C66.69-25.26 60.8-22.83 56.46-18.49C52.12-14.15 49.69-8.26 49.69-2.13C49.69 0.8 47.31 3.17 44.39 3.17C41.46 3.17 39.09 0.8 39.09-2.13C39.09-11.07 42.64-19.66 48.97-25.98ZM69.08-96.87C71.15-98.94 74.5-98.94 76.57-96.87L99.32-74.12C101.39-72.05 101.39-68.7 99.32-66.63C97.25-64.56 93.9-64.56 91.83-66.63L72.82-85.63L53.82-66.63C51.75-64.56 48.4-64.56 46.33-66.63C44.26-68.7 44.26-72.05 46.33-74.12L69.08-96.87ZM72.82-98.43C75.75-98.43 78.12-96.05 78.12-93.13L78.12-53.31C78.12-50.39 75.75-48.01 72.82-48.01C69.9-48.01 67.52-50.39 67.52-53.31L67.52-93.13C67.52-96.05 69.9-98.43 72.82-98.43Z"/>
  </g>
  <g id="Semibold-L" transform="matrix(1 0 0 1 1971.25 1556)">
   <path class="hierarchical-0:secondary SFSymbolsPreview4D4D4D" d="M24.63-49.54C26.45-51.36 29.39-51.36 31.21-49.54L39.29-41.47C41.1-39.65 41.1-36.71 39.29-34.89C37.47-33.07 34.53-33.07 32.71-34.89L24.63-42.97C22.82-44.78 22.82-47.73 24.63-49.54ZM119.71-49.54C121.52-47.73 121.52-44.78 119.71-42.97L111.63-34.89C109.81-33.07 106.87-33.07 105.05-34.89C103.24-36.71 103.24-39.65 105.05-41.47L113.13-49.54C114.95-51.36 117.89-51.36 119.71-49.54ZM118.71-2.01C118.71-4.57 120.79-6.66 123.36-6.66L134.73-6.66C137.3-6.66 139.38-4.57 139.38-2.01C139.38 0.56 137.3 2.64 134.73 2.64L123.36 2.64C120.79 2.64 118.71 0.56 118.71-2.01ZM4.96-2.01C4.96-4.57 7.04-6.66 9.61-6.66L20.98-6.66C23.55-6.66 25.63-4.57 25.63-2.01C25.63 0.56 23.55 2.64 20.98 2.64L9.61 2.64C7.04 2.64 4.96 0.56 4.96-2.01Z"/>
   <path class="hierarchical-1:primary SFSymbolsPreview212121" d="M4.96 20.74C4.96 18.18 7.04 16.09 9.61 16.09L134.73 16.09C137.3 16.09 139.38 18.18 139.38 20.74C139.38 23.31 137.3 25.39 134.73 25.39L9.61 25.39C7.04 25.39 4.96 23.31 4.96 20.74ZM48.77-25.4C54.98-31.61 63.39-35.09 72.17-35.09C80.94-35.09 89.36-31.61 95.57-25.4C101.77-19.2 105.26-10.78 105.26-2.01C105.26 0.56 103.18 2.64 100.61 2.64C98.04 2.64 95.96 0.56 95.96-2.01C95.96-8.31 93.45-14.37 88.99-18.83C84.53-23.29 78.48-25.79 72.17-25.79C65.86-25.79 59.81-23.29 55.35-18.83C50.89-14.37 48.38-8.31 48.38-2.01C48.38 0.56 46.3 2.64 43.73 2.64C41.16 2.64 39.08 0.56 39.08-2.01C39.08-10.78 42.57-19.2 48.77-25.4ZM68.88-96.29C70.7-98.11 73.64-98.11 75.46-96.29L98.21-73.54C100.02-71.73 100.02-68.78 98.21-66.97C96.39-65.15 93.45-65.15 91.63-66.97L72.17-86.43L52.71-66.97C50.89-65.15 47.95-65.15 46.13-66.97C44.32-68.78 44.32-71.73 46.13-73.54L68.88-96.29ZM72.17-97.66C74.74-97.66 76.82-95.57 76.82-93.01L76.82-53.19C76.82-50.63 74.74-48.54 72.17-48.54C69.6-48.54 67.52-50.63 67.52-53.19L67.52-93.01C67.52-95.57 69.6-97.66 72.17-97.66Z"/>
  </g>
  <g id="Medium-L" transform="matrix(1 0 0 1 1675.04 1556)">
   <path class="hierarchical-0:secondary SFSymbolsPreview4D4D4D" d="M24.49-49.09C26.11-50.71 28.74-50.71 30.36-49.09L38.43-41.01C40.05-39.39 40.05-36.76 38.43-35.14C36.81-33.52 34.18-33.52 32.56-35.14L24.49-43.22C22.87-44.84 22.87-47.47 24.49-49.09ZM118.85-49.09C120.47-47.47 120.47-44.84 118.85-43.22L110.78-35.14C109.16-33.52 106.53-33.52 104.91-35.14C103.29-36.76 103.29-39.39 104.91-41.01L112.98-49.09C114.6-50.71 117.23-50.71 118.85-49.09ZM118.71-1.91C118.71-4.2 120.57-6.06 122.86-6.06L134.23-6.06C136.52-6.06 138.38-4.2 138.38-1.91C138.38 0.39 136.52 2.24 134.23 2.24L122.86 2.24C120.57 2.24 118.71 0.39 118.71-1.91ZM4.96-1.91C4.96-4.2 6.82-6.06 9.11-6.06L20.48-6.06C22.77-6.06 24.63-4.2 24.63-1.91C24.63 0.39 22.77 2.24 20.48 2.24L9.11 2.24C6.82 2.24 4.96 0.39 4.96-1.91Z"/>
   <path class="hierarchical-1:primary SFSymbolsPreview212121" d="M4.96 20.84C4.96 18.55 6.82 16.69 9.11 16.69L134.23 16.69C136.52 16.69 138.38 18.55 138.38 20.84C138.38 23.14 136.52 24.99 134.23 24.99L9.11 24.99C6.82 24.99 4.96 23.14 4.96 20.84ZM48.63-24.95C54.74-31.06 63.03-34.49 71.67-34.49C80.31-34.49 88.6-31.06 94.71-24.95C100.82-18.84 104.26-10.55 104.26-1.91C104.26 0.39 102.4 2.24 100.11 2.24C97.82 2.24 95.96 0.39 95.96-1.91C95.96-8.35 93.4-14.52 88.84-19.08C84.29-23.63 78.11-26.19 71.67-26.19C65.23-26.19 59.05-23.63 54.5-19.08C49.94-14.52 47.38-8.35 47.38-1.91C47.38 0.39 45.52 2.24 43.23 2.24C40.94 2.24 39.08 0.39 39.08-1.91C39.08-10.55 42.52-18.84 48.63-24.95ZM68.74-95.84C70.36-97.46 72.98-97.46 74.6-95.84L97.35-73.09C98.97-71.47 98.97-68.84 97.35-67.22C95.73-65.6 93.11-65.6 91.49-67.22L71.67-87.04L51.85-67.22C50.23-65.6 47.61-65.6 45.99-67.22C44.36-68.84 44.36-71.47 45.99-73.09L68.74-95.84ZM71.67-97.06C73.96-97.06 75.82-95.2 75.82-92.91L75.82-53.09C75.82-50.8 73.96-48.94 71.67-48.94C69.38-48.94 67.52-50.8 67.52-53.09L67.52-92.91C67.52-95.2 69.38-97.06 71.67-97.06Z"/>
  </g>
  <g id="Regular-L" transform="matrix(1 0 0 1 1378.98 1556)">
   <path class="hierarchical-0:secondary SFSymbolsPreview4D4D4D" d="M24.3-48.51C25.66-49.88 27.88-49.88 29.25-48.51L37.32-40.43C38.69-39.07 38.69-36.85 37.32-35.48C35.96-34.12 33.74-34.12 32.37-35.48L24.3-43.56C22.93-44.93 22.93-47.14 24.3-48.51ZM117.74-48.51C119.11-47.14 119.11-44.93 117.74-43.56L109.67-35.48C108.3-34.12 106.08-34.12 104.72-35.48C103.35-36.85 103.35-39.07 104.72-40.43L112.79-48.51C114.16-49.88 116.38-49.88 117.74-48.51ZM118.71-1.79C118.71-3.72 120.27-5.29 122.21-5.29L133.58-5.29C135.52-5.29 137.08-3.72 137.08-1.79C137.08 0.15 135.52 1.71 133.58 1.71L122.21 1.71C120.27 1.71 118.71 0.15 118.71-1.79ZM4.96-1.79C4.96-3.72 6.52-5.29 8.46-5.29L19.83-5.29C21.77-5.29 23.33-3.72 23.33-1.79C23.33 0.15 21.77 1.71 19.83 1.71L8.46 1.71C6.52 1.71 4.96 0.15 4.96-1.79Z"/>
   <path class="hierarchical-1:primary SFSymbolsPreview212121" d="M4.96 20.96C4.96 19.03 6.52 17.46 8.46 17.46L133.58 17.46C135.52 17.46 137.08 19.03 137.08 20.96C137.08 22.9 135.52 24.46 133.58 24.46L8.46 24.46C6.52 24.46 4.96 22.9 4.96 20.96ZM48.44-24.37C54.43-30.36 62.55-33.72 71.02-33.72C79.49-33.72 87.61-30.36 93.6-24.37C99.59-18.38 102.96-10.26 102.96-1.79C102.96 0.15 101.39 1.71 99.46 1.71C97.52 1.71 95.96 0.15 95.96-1.79C95.96-8.4 93.33-14.74 88.65-19.42C83.98-24.1 77.63-26.72 71.02-26.72C64.41-26.72 58.06-24.1 53.39-19.42C48.71-14.74 46.08-8.4 46.08-1.79C46.08 0.15 44.52 1.71 42.58 1.71C40.65 1.71 39.08 0.15 39.08-1.79C39.08-10.26 42.45-18.38 48.44-24.37ZM68.55-95.26C69.91-96.63 72.13-96.63 73.49-95.26L96.24-72.51C97.61-71.14 97.61-68.93 96.24-67.56C94.88-66.19 92.66-66.19 91.3-67.56L71.02-87.84L50.74-67.56C49.38-66.19 47.16-66.19 45.8-67.56C44.43-68.93 44.43-71.14 45.8-72.51L68.55-95.26ZM71.02-96.29C72.95-96.29 74.52-94.72 74.52-92.79L74.52-52.97C74.52-51.04 72.95-49.47 71.02-49.47C69.09-49.47 67.52-51.04 67.52-52.97L67.52-92.79C67.52-94.72 69.09-96.29 71.02-96.29Z"/>
  </g>
  <g id="Light-L" transform="matrix(1 0 0 1 1083.07 1556)">
   <path class="hierarchical-0:secondary SFSymbolsPreview4D4D4D" d="M24.06-47.79C25.12-48.85 26.83-48.85 27.88-47.79L35.96-39.72C37.01-38.66 37.01-36.95 35.96-35.9C34.9-34.84 33.19-34.84 32.14-35.9L24.06-43.98C23.01-45.03 23.01-46.74 24.06-47.79ZM116.38-47.79C117.43-46.74 117.43-45.03 116.38-43.98L108.3-35.9C107.25-34.84 105.54-34.84 104.48-35.9C103.43-36.95 103.43-38.66 104.48-39.72L112.56-47.79C113.61-48.85 115.32-48.85 116.38-47.79ZM118.71-1.63C118.71-3.13 119.92-4.33 121.41-4.33L132.78-4.33C134.27-4.33 135.48-3.13 135.48-1.63C135.48-0.14 134.27 1.07 132.78 1.07L121.41 1.07C119.92 1.07 118.71-0.14 118.71-1.63ZM4.96-1.63C4.96-3.13 6.17-4.33 7.66-4.33L19.03-4.33C20.52-4.33 21.73-3.13 21.73-1.63C21.73-0.14 20.52 1.07 19.03 1.07L7.66 1.07C6.17 1.07 4.96-0.14 4.96-1.63Z"/>
   <path class="hierarchical-1:primary SFSymbolsPreview212121" d="M4.96 21.12C4.96 19.62 6.17 18.42 7.66 18.42L132.78 18.42C134.27 18.42 135.48 19.62 135.48 21.12C135.48 22.61 134.27 23.82 132.78 23.82L7.66 23.82C6.17 23.82 4.96 22.61 4.96 21.12ZM48.2-23.65C54.04-29.49 61.96-32.77 70.22-32.77C78.48-32.77 86.4-29.49 92.24-23.65C98.08-17.81 101.36-9.89 101.36-1.63C101.36-0.14 100.15 1.07 98.66 1.07C97.17 1.07 95.96-0.14 95.96-1.63C95.96-8.46 93.25-15.01 88.42-19.83C83.59-24.66 77.05-27.37 70.22-27.37C63.39-27.37 56.85-24.66 52.02-19.83C47.19-15.01 44.48-8.46 44.48-1.63C44.48-0.14 43.27 1.07 41.78 1.07C40.29 1.07 39.08-0.14 39.08-1.63C39.08-9.89 42.36-17.81 48.2-23.65ZM68.31-94.54C69.37-95.6 71.07-95.6 72.13-94.54L94.88-71.79C95.93-70.74 95.93-69.03 94.88-67.98C93.82-66.92 92.12-66.92 91.06-67.98L70.22-88.82L49.38-67.98C48.32-66.92 46.62-66.92 45.56-67.98C44.51-69.03 44.51-70.74 45.56-71.79L68.31-94.54ZM70.22-95.33C71.71-95.33 72.92-94.13 72.92-92.63L72.92-52.82C72.92-51.33 71.71-50.12 70.22-50.12C68.73-50.12 67.52-51.33 67.52-52.82L67.52-92.63C67.52-94.13 68.73-95.33 70.22-95.33Z"/>
  </g>
  <g id="Thin-L" transform="matrix(1 0 0 1 787.405 1556)">
   <path class="hierarchical-0:secondary SFSymbolsPreview4D4D4D" d="M23.758-46.84C24.402-47.48 25.447-47.48 26.091-46.84L34.168-38.76C34.812-38.12 34.812-37.08 34.168-36.43C33.523-35.79 32.478-35.79 31.834-36.43L23.758-44.51C23.113-45.15 23.113-46.2 23.758-46.84ZM114.588-46.84C115.233-46.2 115.233-45.15 114.588-44.51L106.512-36.43C105.868-35.79 104.823-35.79 104.179-36.43C103.534-37.08 103.534-38.12 104.179-38.76L112.255-46.84C112.899-47.48 113.944-47.48 114.588-46.84ZM118.71-1.43C118.71-2.34 119.449-3.08 120.36-3.08L131.735-3.08C132.646-3.08 133.385-2.34 133.385-1.43C133.385-0.51 132.646 0.22 131.735 0.22L120.36 0.22C119.449 0.22 118.71-0.51 118.71-1.43ZM4.96-1.43C4.96-2.34 5.699-3.08 6.61-3.08L17.985-3.08C18.896-3.08 19.635-2.34 19.635-1.43C19.635-0.51 18.896 0.22 17.985 0.22L6.61 0.22C5.699 0.22 4.96-0.51 4.96-1.43Z"/>
   <path class="hierarchical-1:primary SFSymbolsPreview212121" d="M4.96 21.32C4.96 20.41 5.699 19.67 6.61 19.67L131.735 19.67C132.646 19.67 133.385 20.41 133.385 21.32C133.385 22.24 132.646 22.97 131.735 22.97L6.61 22.97C5.699 22.97 4.96 22.24 4.96 21.32ZM47.898-22.7C53.54-28.34 61.193-31.51 69.173-31.51C77.152-31.51 84.805-28.34 90.448-22.7C96.09-17.06 99.26-9.41 99.26-1.43C99.26-0.51 98.521 0.22 97.61 0.22C96.699 0.22 95.96-0.51 95.96-1.43C95.96-8.53 93.138-15.34 88.114-20.37C83.091-25.39 76.277-28.21 69.173-28.21C62.068-28.21 55.255-25.39 50.231-20.37C45.207-15.34 42.385-8.53 42.385-1.43C42.385-0.51 41.646 0.22 40.735 0.22C39.824 0.22 39.085-0.51 39.085-1.43C39.085-9.41 42.255-17.06 47.898-22.7ZM68.006-93.59C68.65-94.24 69.695-94.24 70.339-93.59L93.089-70.84C93.734-70.2 93.734-69.15 93.089-68.51C92.445-67.86 91.4-67.86 90.756-68.51L69.173-90.09L47.589-68.51C46.945-67.86 45.9-67.86 45.256-68.51C44.612-69.15 44.612-70.2 45.256-70.84L68.006-93.59ZM69.173-94.08C70.084-94.08 70.823-93.34 70.823-92.43L70.823-52.61C70.823-51.7 70.084-50.96 69.173-50.96C68.261-50.96 67.523-51.7 67.523-52.61L67.523-92.43C67.523-93.34 68.261-94.08 69.173-94.08Z"/>
  </g>
  <g id="Ultralight-L" transform="matrix(1 0 0 1 491.244 1556)">
   <path class="hierarchical-0:secondary SFSymbolsPreview4D4D4D" d="M23.595-46.33C24.024-46.76 24.721-46.76 25.15-46.33L33.226-38.26C33.656-37.83 33.656-37.13 33.226-36.7C32.797-36.27 32.1-36.27 31.671-36.7L23.595-44.78C23.165-45.21 23.165-45.9 23.595-46.33ZM113.648-46.33C114.078-45.9 114.078-45.21 113.648-44.78L105.572-36.7C105.143-36.27 104.446-36.27 104.016-36.7C103.587-37.13 103.587-37.83 104.016-38.26L112.093-46.33C112.522-46.76 113.219-46.76 113.648-46.33ZM118.71-1.31C118.71-1.91 119.202-2.41 119.81-2.41L131.185-2.41C131.792-2.41 132.285-1.91 132.285-1.31C132.285-0.7 131.792-0.21 131.185-0.21L119.81-0.21C119.202-0.21 118.71-0.7 118.71-1.31ZM4.96-1.31C4.96-1.91 5.452-2.41 6.06-2.41L17.435-2.41C18.042-2.41 18.535-1.91 18.535-1.31C18.535-0.7 18.042-0.21 17.435-0.21L6.06-0.21C5.452-0.21 4.96-0.7 4.96-1.31Z"/>
   <path class="hierarchical-1:primary SFSymbolsPreview212121" d="M4.96 21.44C4.96 20.84 5.452 20.34 6.06 20.34L131.185 20.34C131.792 20.34 132.285 20.84 132.285 21.44C132.285 22.05 131.792 22.54 131.185 22.54L6.06 22.54C5.452 22.54 4.96 22.05 4.96 21.44ZM47.736-22.19C53.276-27.73 60.789-30.84 68.622-30.84C76.456-30.84 83.969-27.73 89.509-22.19C95.048-16.65 98.16-9.14 98.16-1.31C98.16-0.7 97.667-0.21 97.06-0.21C96.452-0.21 95.96-0.7 95.96-1.31C95.96-8.56 93.08-15.51 87.953-20.64C82.826-25.76 75.873-28.64 68.622-28.64C61.372-28.64 54.419-25.76 49.292-20.64C44.165-15.51 41.285-8.56 41.285-1.31C41.285-0.7 40.792-0.21 40.185-0.21C39.577-0.21 39.085-0.7 39.085-1.31C39.085-9.14 42.197-16.65 47.736-22.19ZM67.845-93.08C68.274-93.51 68.971-93.51 69.4-93.08L92.15-70.33C92.58-69.9 92.58-69.21 92.15-68.78C91.721-68.35 91.024-68.35 90.595-68.78L68.622-90.75L46.65-68.78C46.221-68.35 45.524-68.35 45.095-68.78C44.665-69.21 44.665-69.9 45.095-70.33L67.845-93.08ZM68.622-93.41C69.23-93.41 69.722-92.91 69.722-92.31L69.722-52.49C69.722-51.89 69.23-51.39 68.622-51.39C68.015-51.39 67.522-51.89 67.522-52.49L67.522-92.31C67.522-92.91 68.015-93.41 68.622-93.41Z"/>
  </g>
  <g id="Black-M" transform="matrix(1 0 0 1 2872.41 1126)">
   <path class="hierarchical-0:secondary SFSymbolsPreview4D4D4D" d="M21.41-49.57C24.18-52.35 28.67-52.35 31.45-49.57L37.78-43.24C40.56-40.46 40.56-35.97 37.78-33.2C35.01-30.42 30.51-30.42 27.74-33.2L21.41-39.53C18.63-42.31 18.63-46.8 21.41-49.57ZM100.88-49.57C103.66-46.8 103.66-42.31 100.88-39.53L94.55-33.2C91.77-30.42 87.28-30.42 84.51-33.2C81.73-35.97 81.73-40.46 84.51-43.24L90.84-49.57C93.61-52.35 98.11-52.35 100.88-49.57ZM94.21-9.83C94.21-13.76 97.39-16.93 101.31-16.93L110.23-16.93C114.15-16.93 117.33-13.76 117.33-9.83C117.33-5.91 114.15-2.73 110.23-2.73L101.31-2.73C97.39-2.73 94.21-5.91 94.21-9.83ZM4.96-9.83C4.96-13.76 8.14-16.93 12.06-16.93L20.98-16.93C24.9-16.93 28.08-13.76 28.08-9.83C28.08-5.91 24.9-2.73 20.98-2.73L12.06-2.73C8.14-2.73 4.96-5.91 4.96-9.83Z"/>
   <path class="hierarchical-1:primary SFSymbolsPreview212121" d="M4.96 8.01C4.96 4.09 8.14 0.91 12.06 0.91L110.23 0.91C114.15 0.91 117.33 4.09 117.33 8.01C117.33 11.94 114.15 15.11 110.23 15.11L12.06 15.11C8.14 15.11 4.96 11.94 4.96 8.01ZM40.35-30.63C45.86-36.15 53.34-39.25 61.14-39.25C68.95-39.25 76.43-36.15 81.94-30.63C87.46-25.12 90.56-17.64 90.56-9.83C90.56-5.91 87.38-2.73 83.46-2.73C79.54-2.73 76.36-5.91 76.36-9.83C76.36-13.87 74.75-17.74 71.9-20.59C69.05-23.44 65.18-25.05 61.14-25.05C57.11-25.05 53.24-23.44 50.39-20.59C47.53-17.74 45.93-13.87 45.93-9.83C45.93-5.91 42.75-2.73 38.83-2.73C34.91-2.73 31.73-5.91 31.73-9.83C31.73-17.64 34.83-25.12 40.35-30.63ZM56.12-86.26C58.9-89.03 63.39-89.03 66.16-86.26L84.01-68.41C86.79-65.63 86.79-61.14 84.01-58.36C81.24-55.59 76.75-55.59 73.97-58.36L61.14-71.19L48.31-58.36C45.54-55.59 41.05-55.59 38.27-58.36C35.5-61.14 35.5-65.63 38.27-68.41L56.12-86.26ZM61.14-88.34C65.07-88.34 68.24-85.16 68.24-81.24L68.24-50C68.24-46.08 65.07-42.9 61.14-42.9C57.22-42.9 54.04-46.08 54.04-50L54.04-81.24C54.04-85.16 57.22-88.34 61.14-88.34Z"/>
  </g>
  <g id="Heavy-M" transform="matrix(1 0 0 1 2576.55 1126)">
   <path class="hierarchical-0:secondary SFSymbolsPreview4D4D4D" d="M21.16-48.81C23.6-51.25 27.56-51.25 30-48.81L36.33-42.48C38.77-40.04 38.77-36.08 36.33-33.64C33.89-31.2 29.93-31.2 27.49-33.64L21.16-39.97C18.72-42.42 18.72-46.37 21.16-48.81ZM99.43-48.81C101.87-46.37 101.87-42.42 99.43-39.97L93.1-33.64C90.66-31.2 86.7-31.2 84.26-33.64C81.82-36.08 81.82-40.04 84.26-42.48L90.59-48.81C93.03-51.25 96.99-51.25 99.43-48.81ZM94.21-9.68C94.21-13.13 97-15.93 100.46-15.93L109.38-15.93C112.83-15.93 115.63-13.13 115.63-9.68C115.63-6.22 112.83-3.43 109.38-3.43L100.46-3.43C97-3.43 94.21-6.22 94.21-9.68ZM4.96-9.68C4.96-13.13 7.75-15.93 11.21-15.93L20.13-15.93C23.58-15.93 26.38-13.13 26.38-9.68C26.38-6.22 23.58-3.43 20.13-3.43L11.21-3.43C7.75-3.43 4.96-6.22 4.96-9.68Z"/>
   <path class="hierarchical-1:primary SFSymbolsPreview212121" d="M4.96 8.17C4.96 4.72 7.75 1.92 11.21 1.92L109.38 1.92C112.83 1.92 115.63 4.72 115.63 8.17C115.63 11.63 112.83 14.42 109.38 14.42L11.21 14.42C7.75 14.42 4.96 11.63 4.96 8.17ZM40.1-29.87C45.45-35.23 52.72-38.24 60.29-38.24C67.87-38.24 75.13-35.23 80.49-29.87C85.85-24.52 88.86-17.25 88.86-9.68C88.86-6.22 86.06-3.43 82.61-3.43C79.16-3.43 76.36-6.22 76.36-9.68C76.36-13.94 74.66-18.02 71.65-21.03C68.64-24.05 64.55-25.74 60.29-25.74C56.03-25.74 51.95-24.05 48.94-21.03C45.92-18.02 44.23-13.94 44.23-9.68C44.23-6.22 41.43-3.43 37.98-3.43C34.53-3.43 31.73-6.22 31.73-9.68C31.73-17.25 34.74-24.52 40.1-29.87ZM55.88-85.49C58.32-87.94 62.27-87.94 64.71-85.49L82.56-67.64C85.01-65.2 85.01-61.25 82.56-58.81C80.12-56.37 76.17-56.37 73.73-58.81L60.29-72.24L46.86-58.81C44.42-56.37 40.47-56.37 38.03-58.81C35.58-61.25 35.58-65.2 38.03-67.64L55.88-85.49ZM60.29-87.33C63.75-87.33 66.54-84.53 66.54-81.08L66.54-49.84C66.54-46.39 63.75-43.59 60.29-43.59C56.84-43.59 54.04-46.39 54.04-49.84L54.04-81.08C54.04-84.53 56.84-87.33 60.29-87.33Z"/>
  </g>
  <g id="Bold-M" transform="matrix(1 0 0 1 2280.79 1126)">
   <path class="hierarchical-0:secondary SFSymbolsPreview4D4D4D" d="M20.88-47.955C22.95-50.025 26.3-50.025 28.37-47.955L34.71-41.615C36.78-39.545 36.78-36.195 34.71-34.125C32.64-32.055 29.28-32.055 27.22-34.125L20.88-40.455C18.81-42.525 18.81-45.885 20.88-47.955ZM97.81-47.955C99.88-45.885 99.88-42.525 97.81-40.455L91.47-34.125C89.4-32.055 86.05-32.055 83.98-34.125C81.91-36.195 81.91-39.545 83.98-41.615L90.31-47.955C92.38-50.025 95.74-50.025 97.81-47.955ZM94.21-9.485C94.21-12.415 96.58-14.785 99.51-14.785L108.43-14.785C111.36-14.785 113.73-12.415 113.73-9.485C113.73-6.565 111.36-4.185 108.43-4.185L99.51-4.185C96.58-4.185 94.21-6.565 94.21-9.485ZM4.96-9.485C4.96-12.415 7.33-14.785 10.26-14.785L19.18-14.785C22.11-14.785 24.48-12.415 24.48-9.485C24.48-6.565 22.11-4.185 19.18-4.185L10.26-4.185C7.33-4.185 4.96-6.565 4.96-9.485Z"/>
   <path class="hierarchical-1:primary SFSymbolsPreview212121" d="M4.96 8.365C4.96 5.435 7.33 3.065 10.26 3.065L108.43 3.065C111.36 3.065 113.73 5.435 113.73 8.365C113.73 11.285 111.36 13.665 108.43 13.665L10.26 13.665C7.33 13.665 4.96 11.285 4.96 8.365ZM39.82-29.015C45-34.195 52.02-37.105 59.34-37.105C66.67-37.105 73.69-34.195 78.87-29.015C84.05-23.835 86.96-16.815 86.96-9.485C86.96-6.565 84.58-4.185 81.66-4.185C78.73-4.185 76.36-6.565 76.36-9.485C76.36-14.005 74.56-18.325 71.37-21.515C68.18-24.705 63.86-26.505 59.34-26.505C54.83-26.505 50.51-24.705 47.32-21.515C44.12-18.325 42.33-14.005 42.33-9.485C42.33-6.565 39.96-4.185 37.03-4.185C34.11-4.185 31.73-6.565 31.73-9.485C31.73-16.815 34.64-23.835 39.82-29.015ZM55.6-84.635C57.67-86.705 61.02-86.705 63.09-84.635L80.94-66.785C83.01-64.715 83.01-61.365 80.94-59.295C78.87-57.225 75.52-57.225 73.45-59.295L59.34-73.395L45.24-59.295C43.17-57.225 39.82-57.225 37.75-59.295C35.68-61.365 35.68-64.715 37.75-66.785L55.6-84.635ZM59.34-86.185C62.27-86.185 64.64-83.815 64.64-80.885L64.64-49.655C64.64-46.725 62.27-44.355 59.34-44.355C56.42-44.355 54.04-46.725 54.04-49.655L54.04-80.885C54.04-83.815 56.42-86.185 59.34-86.185Z"/>
  </g>
  <g id="Semibold-M" transform="matrix(1 0 0 1 1984.72 1126)">
   <path class="hierarchical-0:secondary SFSymbolsPreview4D4D4D" d="M20.69-47.37C22.51-49.19 25.45-49.19 27.27-47.37L33.61-41.03C35.42-39.22 35.42-36.27 33.61-34.46C31.79-32.64 28.85-32.64 27.03-34.46L20.69-40.79C18.88-42.61 18.88-45.55 20.69-47.37ZM96.71-47.37C98.52-45.55 98.52-42.61 96.71-40.79L90.37-34.46C88.55-32.64 85.61-32.64 83.79-34.46C81.98-36.27 81.98-39.22 83.79-41.03L90.13-47.37C91.95-49.19 94.89-49.19 96.71-47.37ZM94.21-9.36C94.21-11.93 96.29-14.01 98.86-14.01L107.79-14.01C110.36-14.01 112.44-11.93 112.44-9.36C112.44-6.8 110.36-4.71 107.79-4.71L98.86-4.71C96.29-4.71 94.21-6.8 94.21-9.36ZM4.96-9.36C4.96-11.93 7.04-14.01 9.61-14.01L18.54-14.01C21.11-14.01 23.19-11.93 23.19-9.36C23.19-6.8 21.11-4.71 18.54-4.71L9.61-4.71C7.04-4.71 4.96-6.8 4.96-9.36Z"/>
   <path class="hierarchical-1:primary SFSymbolsPreview212121" d="M4.96 8.49C4.96 5.92 7.04 3.84 9.61 3.84L107.79 3.84C110.36 3.84 112.44 5.92 112.44 8.49C112.44 11.05 110.36 13.14 107.79 13.14L9.61 13.14C7.04 13.14 4.96 11.05 4.96 8.49ZM39.63-28.43C44.69-33.49 51.55-36.33 58.7-36.33C65.85-36.33 72.71-33.49 77.76-28.43C82.82-23.37 85.66-16.51 85.66-9.36C85.66-6.8 83.58-4.71 81.01-4.71C78.44-4.71 76.36-6.8 76.36-9.36C76.36-14.05 74.5-18.54 71.19-21.85C67.88-25.17 63.38-27.03 58.7-27.03C54.02-27.03 49.52-25.17 46.21-21.85C42.9-18.54 41.04-14.05 41.04-9.36C41.04-6.8 38.96-4.71 36.39-4.71C33.82-4.71 31.74-6.8 31.74-9.36C31.74-16.51 34.58-23.37 39.63-28.43ZM55.41-84.05C57.23-85.87 60.17-85.87 61.99-84.05L79.84-66.2C81.65-64.39 81.65-61.44 79.84-59.63C78.02-57.81 75.08-57.81 73.26-59.63L58.7-74.19L44.14-59.63C42.32-57.81 39.38-57.81 37.56-59.63C35.75-61.44 35.75-64.39 37.56-66.2L55.41-84.05ZM58.7-85.41C61.27-85.41 63.35-83.33 63.35-80.76L63.35-49.53C63.35-46.96 61.27-44.88 58.7-44.88C56.13-44.88 54.05-46.96 54.05-49.53L54.05-80.76C54.05-83.33 56.13-85.41 58.7-85.41Z"/>
  </g>
  <g id="Medium-M" transform="matrix(1 0 0 1 1688.51 1126)">
   <path class="hierarchical-0:secondary SFSymbolsPreview4D4D4D" d="M20.55-46.92C22.17-48.54 24.8-48.54 26.42-46.92L32.75-40.58C34.37-38.96 34.37-36.33 32.75-34.71C31.13-33.09 28.5-33.09 26.88-34.71L20.55-41.05C18.93-42.67 18.93-45.3 20.55-46.92ZM95.85-46.92C97.47-45.3 97.47-42.67 95.85-41.05L89.52-34.71C87.9-33.09 85.27-33.09 83.65-34.71C82.03-36.33 82.03-38.96 83.65-40.58L89.98-46.92C91.6-48.54 94.23-48.54 95.85-46.92ZM94.21-9.26C94.21-11.56 96.07-13.41 98.36-13.41L107.29-13.41C109.58-13.41 111.44-11.56 111.44-9.26C111.44-6.97 109.58-5.11 107.29-5.11L98.36-5.11C96.07-5.11 94.21-6.97 94.21-9.26ZM4.96-9.26C4.96-11.56 6.82-13.41 9.11-13.41L18.04-13.41C20.33-13.41 22.19-11.56 22.19-9.26C22.19-6.97 20.33-5.11 18.04-5.11L9.11-5.11C6.82-5.11 4.96-6.97 4.96-9.26Z"/>
   <path class="hierarchical-1:primary SFSymbolsPreview212121" d="M4.96 8.59C4.96 6.29 6.82 4.44 9.11 4.44L107.29 4.44C109.58 4.44 111.44 6.29 111.44 8.59C111.44 10.88 109.58 12.74 107.29 12.74L9.11 12.74C6.82 12.74 4.96 10.88 4.96 8.59ZM39.49-27.98C44.45-32.94 51.18-35.73 58.2-35.73C65.22-35.73 71.95-32.94 76.91-27.98C81.87-23.01 84.66-16.28 84.66-9.26C84.66-6.97 82.8-5.11 80.51-5.11C78.22-5.11 76.36-6.97 76.36-9.26C76.36-14.08 74.45-18.7 71.04-22.11C67.64-25.51 63.02-27.43 58.2-27.43C53.38-27.43 48.76-25.51 45.36-22.11C41.95-18.7 40.04-14.08 40.04-9.26C40.04-6.97 38.18-5.11 35.89-5.11C33.6-5.11 31.74-6.97 31.74-9.26C31.74-16.28 34.53-23.01 39.49-27.98ZM55.27-83.6C56.89-85.22 59.51-85.22 61.13-83.6L78.98-65.75C80.61-64.13 80.61-61.5 78.98-59.88C77.36-58.26 74.74-58.26 73.12-59.88L58.2-74.79L43.28-59.88C41.66-58.26 39.04-58.26 37.42-59.88C35.79-61.5 35.79-64.13 37.42-65.75L55.27-83.6ZM58.2-84.81C60.49-84.81 62.35-82.96 62.35-80.66L62.35-49.43C62.35-47.13 60.49-45.28 58.2-45.28C55.91-45.28 54.05-47.13 54.05-49.43L54.05-80.66C54.05-82.96 55.91-84.81 58.2-84.81Z"/>
  </g>
  <g id="Regular-M" transform="matrix(1 0 0 1 1392.45 1126)">
   <path class="hierarchical-0:secondary SFSymbolsPreview4D4D4D" d="M20.36-46.335C21.72-47.695 23.94-47.695 25.31-46.335L31.64-39.995C33.01-38.625 33.01-36.415 31.64-35.045C30.28-33.675 28.06-33.675 26.69-35.045L20.36-41.385C18.99-42.745 18.99-44.965 20.36-46.335ZM94.74-46.335C96.11-44.965 96.11-42.745 94.74-41.385L88.41-35.045C87.04-33.675 84.82-33.675 83.46-35.045C82.09-36.415 82.09-38.625 83.46-39.995L89.79-46.335C91.16-47.695 93.38-47.695 94.74-46.335ZM94.21-9.135C94.21-11.075 95.78-12.635 97.71-12.635L106.64-12.635C108.57-12.635 110.14-11.075 110.14-9.135C110.14-7.205 108.57-5.635 106.64-5.635L97.71-5.635C95.78-5.635 94.21-7.205 94.21-9.135ZM4.96-9.135C4.96-11.075 6.53-12.635 8.46-12.635L17.39-12.635C19.32-12.635 20.89-11.075 20.89-9.135C20.89-7.205 19.32-5.635 17.39-5.635L8.46-5.635C6.53-5.635 4.96-7.205 4.96-9.135Z"/>
   <path class="hierarchical-1:primary SFSymbolsPreview212121" d="M4.96 8.715C4.96 6.775 6.53 5.215 8.46 5.215L106.64 5.215C108.57 5.215 110.14 6.775 110.14 8.715C110.14 10.645 108.57 12.215 106.64 12.215L8.46 12.215C6.53 12.215 4.96 10.645 4.96 8.715ZM39.3-27.395C44.14-32.235 50.7-34.955 57.55-34.955C64.4-34.955 70.96-32.235 75.8-27.395C80.64-22.545 83.36-15.985 83.36-9.135C83.36-7.205 81.8-5.635 79.86-5.635C77.93-5.635 76.36-7.205 76.36-9.135C76.36-14.125 74.38-18.915 70.85-22.445C67.32-25.965 62.54-27.955 57.55-27.955C52.56-27.955 47.78-25.965 44.25-22.445C40.72-18.915 38.74-14.125 38.74-9.135C38.74-7.205 37.17-5.635 35.24-5.635C33.3-5.635 31.74-7.205 31.74-9.135C31.74-15.985 34.46-22.545 39.3-27.395ZM55.08-83.015C56.44-84.385 58.66-84.385 60.03-83.015L77.88-65.165C79.24-63.795 79.24-61.585 77.88-60.215C76.51-58.845 74.29-58.845 72.93-60.215L57.55-75.585L42.18-60.215C40.81-58.845 38.59-58.845 37.23-60.215C35.86-61.585 35.86-63.795 37.23-65.165L55.08-83.015ZM57.55-84.035C59.48-84.035 61.05-82.475 61.05-80.535L61.05-49.305C61.05-47.365 59.48-45.805 57.55-45.805C55.62-45.805 54.05-47.365 54.05-49.305L54.05-80.535C54.05-82.475 55.62-84.035 57.55-84.035Z"/>
  </g>
  <g id="Light-M" transform="matrix(1 0 0 1 1096.54 1126)">
   <path class="hierarchical-0:secondary SFSymbolsPreview4D4D4D" d="M20.12-45.61C21.18-46.66 22.89-46.66 23.94-45.61L30.28-39.27C31.33-38.22 31.33-36.51 30.28-35.46C29.22-34.4 27.51-34.4 26.46-35.46L20.12-41.79C19.07-42.85 19.07-44.56 20.12-45.61ZM93.38-45.61C94.43-44.56 94.43-42.85 93.38-41.79L87.04-35.46C85.99-34.4 84.28-34.4 83.22-35.46C82.17-36.51 82.17-38.22 83.22-39.27L89.56-45.61C90.61-46.66 92.32-46.66 93.38-45.61ZM94.21-8.98C94.21-10.48 95.42-11.68 96.91-11.68L105.84-11.68C107.33-11.68 108.54-10.48 108.54-8.98C108.54-7.49 107.33-6.28 105.84-6.28L96.91-6.28C95.42-6.28 94.21-7.49 94.21-8.98ZM4.96-8.98C4.96-10.48 6.17-11.68 7.66-11.68L16.59-11.68C18.08-11.68 19.29-10.48 19.29-8.98C19.29-7.49 18.08-6.28 16.59-6.28L7.66-6.28C6.17-6.28 4.96-7.49 4.96-8.98Z"/>
   <path class="hierarchical-1:primary SFSymbolsPreview212121" d="M4.96 8.87C4.96 7.38 6.17 6.17 7.66 6.17L105.84 6.17C107.33 6.17 108.54 7.38 108.54 8.87C108.54 10.36 107.33 11.57 105.84 11.57L7.66 11.57C6.17 11.57 4.96 10.36 4.96 8.87ZM39.06-26.67C43.75-31.36 50.12-34 56.75-34C63.38-34 69.75-31.36 74.44-26.67C79.13-21.98 81.76-15.62 81.76-8.98C81.76-7.49 80.55-6.28 79.06-6.28C77.57-6.28 76.36-7.49 76.36-8.98C76.36-14.19 74.3-19.17 70.62-22.85C66.94-26.53 61.95-28.6 56.75-28.6C51.55-28.6 46.56-26.53 42.88-22.85C39.2-19.17 37.14-14.19 37.14-8.98C37.14-7.49 35.93-6.28 34.44-6.28C32.95-6.28 31.74-7.49 31.74-8.98C31.74-15.62 34.37-21.98 39.06-26.67ZM54.84-82.29C55.9-83.35 57.6-83.35 58.66-82.29L76.51-64.44C77.56-63.39 77.56-61.68 76.51-60.62C75.45-59.57 73.75-59.57 72.69-60.62L56.75-76.56L40.81-60.62C39.75-59.57 38.05-59.57 36.99-60.62C35.94-61.68 35.94-63.39 36.99-64.44L54.84-82.29ZM56.75-83.08C58.24-83.08 59.45-81.87 59.45-80.38L59.45-49.15C59.45-47.65 58.24-46.45 56.75-46.45C55.26-46.45 54.05-47.65 54.05-49.15L54.05-80.38C54.05-81.87 55.26-83.08 56.75-83.08Z"/>
  </g>
  <g id="Thin-M" transform="matrix(1 0 0 1 800.88 1126)">
   <path class="hierarchical-0:secondary SFSymbolsPreview4D4D4D" d="M19.812-44.66C20.456-45.3 21.501-45.3 22.146-44.66L28.482-38.32C29.127-37.68 29.127-36.63 28.482-35.99C27.838-35.34 26.793-35.34 26.149-35.99L19.812-42.33C19.168-42.97 19.168-44.01 19.812-44.66ZM91.582-44.66C92.226-44.01 92.226-42.97 91.582-42.33L85.245-35.99C84.601-35.34 83.556-35.34 82.912-35.99C82.267-36.63 82.267-37.68 82.912-38.32L89.248-44.66C89.893-45.3 90.938-45.3 91.582-44.66ZM94.21-8.77C94.21-9.68 94.948-10.42 95.86-10.42L104.785-10.42C105.696-10.42 106.435-9.68 106.435-8.77C106.435-7.86 105.696-7.12 104.785-7.12L95.86-7.12C94.948-7.12 94.21-7.86 94.21-8.77ZM4.96-8.77C4.96-9.68 5.698-10.42 6.61-10.42L15.535-10.42C16.446-10.42 17.185-9.68 17.185-8.77C17.185-7.86 16.446-7.12 15.535-7.12L6.61-7.12C5.698-7.12 4.96-7.86 4.96-8.77Z"/>
   <path class="hierarchical-1:primary SFSymbolsPreview212121" d="M4.96 9.08C4.96 8.16 5.698 7.43 6.61 7.43L104.785 7.43C105.696 7.43 106.435 8.16 106.435 9.08C106.435 9.99 105.696 10.73 104.785 10.73L6.61 10.73C5.698 10.73 4.96 9.99 4.96 9.08ZM38.753-25.72C43.246-30.21 49.341-32.74 55.697-32.74C62.052-32.74 68.147-30.21 72.641-25.72C77.135-21.22 79.659-15.13 79.659-8.77C79.659-7.86 78.92-7.12 78.009-7.12C77.098-7.12 76.359-7.86 76.359-8.77C76.359-14.25 74.182-19.51 70.307-23.38C66.432-27.26 61.177-29.44 55.697-29.44C50.217-29.44 44.961-27.26 41.086-23.38C37.211-19.51 35.034-14.25 35.034-8.77C35.034-7.86 34.295-7.12 33.384-7.12C32.473-7.12 31.734-7.86 31.734-8.77C31.734-15.13 34.259-21.22 38.753-25.72ZM54.53-81.34C55.175-81.98 56.219-81.98 56.864-81.34L74.714-63.49C75.358-62.85 75.358-61.8 74.714-61.16C74.069-60.51 73.025-60.51 72.38-61.16L55.697-77.84L39.014-61.16C38.369-60.51 37.325-60.51 36.68-61.16C36.036-61.8 36.036-62.85 36.68-63.49L54.53-81.34ZM55.697-81.82C56.608-81.82 57.347-81.09 57.347-80.17L57.347-48.94C57.347-48.03 56.608-47.29 55.697-47.29C54.785-47.29 54.047-48.03 54.047-48.94L54.047-80.17C54.047-81.09 54.785-81.82 55.697-81.82Z"/>
  </g>
  <g id="Ultralight-M" transform="matrix(1 0 0 1 504.718 1126)">
   <path class="hierarchical-0:secondary SFSymbolsPreview4D4D4D" d="M19.652-44.165C20.081-44.595 20.778-44.595 21.207-44.165L27.544-37.825C27.974-37.395 27.974-36.705 27.544-36.275C27.115-35.845 26.418-35.845 25.989-36.275L19.652-42.605C19.222-43.035 19.222-43.735 19.652-44.165ZM90.644-44.165C91.073-43.735 91.073-43.035 90.644-42.605L84.307-36.275C83.877-35.845 83.181-35.845 82.751-36.275C82.322-36.705 82.322-37.395 82.751-37.825L89.088-44.165C89.518-44.595 90.214-44.595 90.644-44.165ZM94.21-8.665C94.21-9.275 94.703-9.765 95.311-9.765L104.236-9.765C104.843-9.765 105.336-9.275 105.336-8.665C105.336-8.065 104.843-7.565 104.236-7.565L95.311-7.565C94.703-7.565 94.21-8.065 94.21-8.665ZM4.96-8.665C4.96-9.275 5.453-9.765 6.061-9.765L14.985-9.765C15.593-9.765 16.085-9.275 16.085-8.665C16.085-8.065 15.593-7.565 14.985-7.565L6.061-7.565C5.453-7.565 4.96-8.065 4.96-8.665Z"/>
   <path class="hierarchical-1:primary SFSymbolsPreview212121" d="M4.96 9.185C4.96 8.575 5.453 8.085 6.061 8.085L104.236 8.085C104.843 8.085 105.336 8.575 105.336 9.185C105.336 9.785 104.843 10.285 104.236 10.285L6.061 10.285C5.453 10.285 4.96 9.785 4.96 9.185ZM38.593-25.225C42.984-29.615 48.939-32.085 55.148-32.085C61.358-32.085 67.313-29.615 71.704-25.225C76.094-20.835 78.561-14.875 78.561-8.665C78.561-8.065 78.068-7.565 77.461-7.565C76.853-7.565 76.361-8.065 76.361-8.665C76.361-14.295 74.126-19.685 70.148-23.665C66.17-27.645 60.774-29.885 55.148-29.885C49.522-29.885 44.127-27.645 40.149-23.665C36.171-19.685 33.936-14.295 33.936-8.665C33.936-8.065 33.443-7.565 32.836-7.565C32.228-7.565 31.736-8.065 31.736-8.665C31.736-14.875 34.203-20.835 38.593-25.225ZM54.371-80.845C54.801-81.275 55.497-81.275 55.927-80.845L73.777-62.995C74.206-62.565 74.206-61.865 73.777-61.445C73.347-61.015 72.651-61.015 72.221-61.445L55.149-78.515L38.077-61.445C37.647-61.015 36.951-61.015 36.521-61.445C36.091-61.865 36.091-62.565 36.521-62.995L54.371-80.845ZM55.148-81.165C55.756-81.165 56.248-80.675 56.248-80.065L56.248-48.835C56.248-48.225 55.756-47.735 55.148-47.735C54.541-47.735 54.048-48.225 54.048-48.835L54.048-80.065C54.048-80.675 54.541-81.165 55.148-81.165Z"/>
  </g>
  <g id="Black-S" transform="matrix(1 0 0 1 2883 696)">
   <path class="hierarchical-0:secondary SFSymbolsPreview4D4D4D" d="M18.31-47.969C21.08-50.741 25.58-50.741 28.35-47.969L33.32-42.999C36.09-40.226 36.09-35.73 33.32-32.958C30.55-30.185 26.05-30.185 23.28-32.958L18.31-37.928C15.54-40.7 15.54-45.196 18.31-47.969ZM82.81-47.969C85.58-45.196 85.58-40.7 82.81-37.928L77.84-32.958C75.07-30.185 70.57-30.185 67.8-32.958C65.03-35.73 65.03-40.226 67.8-42.999L72.77-47.969C75.54-50.741 80.04-50.741 82.81-47.969ZM74.96-15.718C74.96-19.639 78.14-22.818 82.06-22.818L89.06-22.818C92.98-22.818 96.16-19.639 96.16-15.718C96.16-11.796 92.98-8.618 89.06-8.618L82.06-8.618C78.14-8.618 74.96-11.796 74.96-15.718ZM4.96-15.718C4.96-19.639 8.14-22.818 12.06-22.818L19.06-22.818C22.98-22.818 26.16-19.639 26.16-15.718C26.16-11.796 22.98-8.618 19.06-8.618L12.06-8.618C8.14-8.618 4.96-11.796 4.96-15.718Z"/>
   <path class="hierarchical-1:primary SFSymbolsPreview212121" d="M4.96-1.718C4.96-5.639 8.14-8.818 12.06-8.818L89.06-8.818C92.98-8.818 96.16-5.639 96.16-1.718C96.16 2.204 92.98 5.382 89.06 5.382L12.06 5.382C8.14 5.382 4.96 2.204 4.96-1.718ZM33.17-33.112C37.78-37.726 44.04-40.318 50.56-40.318C57.09-40.318 63.34-37.726 67.96-33.112C72.57-28.499 75.16-22.242 75.16-15.718C75.16-11.796 71.98-8.618 68.06-8.618C64.14-8.618 60.96-11.796 60.96-15.718C60.96-18.476 59.87-21.121 57.91-23.072C55.96-25.022 53.32-26.118 50.56-26.118C47.8-26.118 45.16-25.022 43.21-23.072C41.26-21.121 40.16-18.476 40.16-15.718C40.16-11.796 36.98-8.618 33.06-8.618C29.14-8.618 25.96-11.796 25.96-15.718C25.96-22.242 28.55-28.499 33.17-33.112ZM45.54-76.738C48.31-79.511 52.81-79.511 55.58-76.738L69.58-62.738C72.35-59.965 72.35-55.47 69.58-52.697C66.81-49.924 62.31-49.924 59.54-52.697L50.56-61.677L41.58-52.697C38.81-49.924 34.31-49.924 31.54-52.697C28.77-55.47 28.77-59.965 31.54-62.738L45.54-76.738ZM50.56-78.818C54.48-78.818 57.66-75.639 57.66-71.718L57.66-47.218C57.66-43.296 54.48-40.118 50.56-40.118C46.64-40.118 43.46-43.296 43.46-47.218L43.46-71.718C43.46-75.639 46.64-78.818 50.56-78.818Z"/>
  </g>
  <g id="Heavy-S" transform="matrix(1 0 0 1 2587.13 696)">
   <path class="hierarchical-0:secondary SFSymbolsPreview4D4D4D" d="M18.06-47.202C20.5-49.643 24.46-49.643 26.9-47.202L31.87-42.232C34.31-39.791 34.31-35.834 31.87-33.393C29.43-30.952 25.47-30.952 23.03-33.393L18.06-38.363C15.62-40.804 15.62-44.761 18.06-47.202ZM81.36-47.202C83.8-44.761 83.8-40.804 81.36-38.363L76.39-33.393C73.95-30.952 69.99-30.952 67.55-33.393C65.11-35.834 65.11-39.791 67.55-42.232L72.52-47.202C74.96-49.643 78.92-49.643 81.36-47.202ZM74.96-15.552C74.96-19.004 77.76-21.802 81.21-21.802L88.21-21.802C91.66-21.802 94.46-19.004 94.46-15.552C94.46-12.1 91.66-9.302 88.21-9.302L81.21-9.302C77.76-9.302 74.96-12.1 74.96-15.552ZM4.96-15.552C4.96-19.004 7.76-21.802 11.21-21.802L18.21-21.802C21.66-21.802 24.46-19.004 24.46-15.552C24.46-12.1 21.66-9.302 18.21-9.302L11.21-9.302C7.76-9.302 4.96-12.1 4.96-15.552Z"/>
   <path class="hierarchical-1:primary SFSymbolsPreview212121" d="M4.96-1.552C4.96-5.004 7.76-7.802 11.21-7.802L88.21-7.802C91.66-7.802 94.46-5.004 94.46-1.552C94.46 1.9 91.66 4.698 88.21 4.698L11.21 4.698C7.76 4.698 4.96 1.9 4.96-1.552ZM32.92-32.346C37.37-36.8 43.41-39.302 49.71-39.302C56.01-39.302 62.05-36.8 66.5-32.346C70.96-27.892 73.46-21.851 73.46-15.552C73.46-12.1 70.66-9.302 67.21-9.302C63.76-9.302 60.96-12.1 60.96-15.552C60.96-18.536 59.78-21.397 57.67-23.507C55.56-25.617 52.69-26.802 49.71-26.802C46.73-26.802 43.87-25.617 41.76-23.507C39.65-21.397 38.46-18.536 38.46-15.552C38.46-12.1 35.66-9.302 32.21-9.302C28.76-9.302 25.96-12.1 25.96-15.552C25.96-21.851 28.46-27.892 32.92-32.346ZM45.29-75.971C47.73-78.412 51.69-78.412 54.13-75.971L68.13-61.971C70.57-59.531 70.57-55.573 68.13-53.133C65.69-50.692 61.73-50.692 59.29-53.133L49.71-62.713L40.13-53.133C37.69-50.692 33.73-50.692 31.29-53.133C28.85-55.573 28.85-59.531 31.29-61.971L45.29-75.971ZM49.71-77.802C53.16-77.802 55.96-75.004 55.96-71.552L55.96-47.052C55.96-43.6 53.16-40.802 49.71-40.802C46.26-40.802 43.46-43.6 43.46-47.052L43.46-71.552C43.46-75.004 46.26-77.802 49.71-77.802Z"/>
  </g>
  <g id="Bold-S" transform="matrix(1 0 0 1 2291.37 696)">
   <path class="hierarchical-0:secondary SFSymbolsPreview4D4D4D" d="M17.79-46.138C19.86-48.208 23.21-48.208 25.28-46.138L30.25-41.168C32.32-39.098 32.32-35.742 30.25-33.673C28.18-31.603 24.83-31.603 22.76-33.673L17.79-38.643C15.72-40.712 15.72-44.068 17.79-46.138ZM79.74-46.138C81.81-44.068 81.81-40.712 79.74-38.643L74.77-33.673C72.7-31.603 69.35-31.603 67.28-33.673C65.21-35.742 65.21-39.098 67.28-41.168L72.25-46.138C74.32-48.208 77.67-48.208 79.74-46.138ZM74.96-15.162C74.96-18.089 77.34-20.462 80.26-20.462L87.26-20.462C90.19-20.462 92.56-18.089 92.56-15.162C92.56-12.235 90.19-9.862 87.26-9.862L80.26-9.862C77.34-9.862 74.96-12.235 74.96-15.162ZM4.96-15.162C4.96-18.089 7.34-20.462 10.26-20.462L17.26-20.462C20.19-20.462 22.56-18.089 22.56-15.162C22.56-12.235 20.19-9.862 17.26-9.862L10.26-9.862C7.34-9.862 4.96-12.235 4.96-15.162Z"/>
   <path class="hierarchical-1:primary SFSymbolsPreview212121" d="M4.96-1.162C4.96-4.089 7.34-6.462 10.26-6.462L87.26-6.462C90.19-6.462 92.56-4.089 92.56-1.162C92.56 1.765 90.19 4.138 87.26 4.138L10.26 4.138C7.34 4.138 4.96 1.765 4.96-1.162ZM32.64-31.284C36.92-35.56 42.72-37.962 48.76-37.962C54.81-37.962 60.61-35.56 64.89-31.284C69.16-27.008 71.56-21.209 71.56-15.162C71.56-12.235 69.19-9.862 66.26-9.862C63.34-9.862 60.96-12.235 60.96-15.162C60.96-18.397 59.68-21.5 57.39-23.788C55.1-26.076 52-27.362 48.76-27.362C45.53-27.362 42.43-26.076 40.14-23.788C37.85-21.5 36.56-18.397 36.56-15.162C36.56-12.235 34.19-9.862 31.26-9.862C28.34-9.862 25.96-12.235 25.96-15.162C25.96-21.209 28.37-27.008 32.64-31.284ZM45.02-74.909C47.09-76.979 50.44-76.979 52.51-74.909L66.51-60.909C68.58-58.84 68.58-55.484 66.51-53.414C64.44-51.344 61.09-51.344 59.02-53.414L48.76-63.666L38.51-53.414C36.44-51.344 33.09-51.344 31.02-53.414C28.95-55.484 28.95-58.84 31.02-60.909L45.02-74.909ZM48.76-76.462C51.69-76.462 54.06-74.089 54.06-71.162L54.06-46.662C54.06-43.735 51.69-41.362 48.76-41.362C45.84-41.362 43.46-43.735 43.46-46.662L43.46-71.162C43.46-74.089 45.84-76.462 48.76-76.462Z"/>
  </g>
  <g id="Semibold-S" transform="matrix(1 0 0 1 1995.31 696)">
   <path class="hierarchical-0:secondary SFSymbolsPreview4D4D4D" d="M17.59-45.554C19.41-47.37 22.35-47.37 24.17-45.554L29.14-40.584C30.95-38.768 30.95-35.824 29.14-34.008C27.32-32.192 24.38-32.192 22.56-34.008L17.59-38.978C15.78-40.794 15.78-43.738 17.59-45.554ZM78.63-45.554C80.44-43.738 80.44-40.794 78.63-38.978L73.66-34.008C71.84-32.192 68.9-32.192 67.08-34.008C65.27-35.824 65.27-38.768 67.08-40.584L72.05-45.554C73.87-47.37 76.81-47.37 78.63-45.554ZM74.96-15.035C74.96-17.603 77.04-19.685 79.61-19.685L86.61-19.685C89.18-19.685 91.26-17.603 91.26-15.035C91.26-12.467 89.18-10.385 86.61-10.385L79.61-10.385C77.04-10.385 74.96-12.467 74.96-15.035ZM4.96-15.035C4.96-17.603 7.04-19.685 9.61-19.685L16.61-19.685C19.18-19.685 21.26-17.603 21.26-15.035C21.26-12.467 19.18-10.385 16.61-10.385L9.61-10.385C7.04-10.385 4.96-12.467 4.96-15.035Z"/>
   <path class="hierarchical-1:primary SFSymbolsPreview212121" d="M4.96-1.035C4.96-3.603 7.04-5.685 9.61-5.685L86.61-5.685C89.18-5.685 91.26-3.603 91.26-1.035C91.26 1.533 89.18 3.615 86.61 3.615L9.61 3.615C7.04 3.615 4.96 1.533 4.96-1.035ZM32.45-30.698C36.6-34.852 42.24-37.185 48.11-37.185C53.98-37.185 59.62-34.852 63.77-30.698C67.93-26.544 70.26-20.91 70.26-15.035C70.26-12.467 68.18-10.385 65.61-10.385C63.04-10.385 60.96-12.467 60.96-15.035C60.96-18.443 59.61-21.712 57.2-24.122C54.79-26.532 51.52-27.885 48.11-27.885C44.7-27.885 41.43-26.532 39.02-24.122C36.61-21.712 35.26-18.443 35.26-15.035C35.26-12.467 33.18-10.385 30.61-10.385C28.04-10.385 25.96-12.467 25.96-15.035C25.96-20.91 28.29-26.544 32.45-30.698ZM44.82-74.323C46.64-76.139 49.58-76.139 51.4-74.323L65.4-60.323C67.21-58.507 67.21-55.563 65.4-53.747C63.58-51.931 60.64-51.931 58.82-53.747L48.11-64.459L37.4-53.747C35.58-51.931 32.64-51.931 30.82-53.747C29.01-55.563 29.01-58.507 30.82-60.323L44.82-74.323ZM48.11-75.685C50.68-75.685 52.76-73.603 52.76-71.035L52.76-46.535C52.76-43.967 50.68-41.885 48.11-41.885C45.54-41.885 43.46-43.967 43.46-46.535L43.46-71.035C43.46-73.603 45.54-75.685 48.11-75.685Z"/>
  </g>
  <g id="Medium-S" transform="matrix(1 0 0 1 1699.1 696)">
   <path class="hierarchical-0:secondary SFSymbolsPreview4D4D4D" d="M17.45-45.1026C19.07-46.7236 21.69-46.7236 23.31-45.1026L28.28-40.1326C29.91-38.5126 29.91-35.8845 28.28-34.2635C26.66-32.6435 24.04-32.6435 22.42-34.2635L17.45-39.2336C15.82-40.8546 15.82-43.4826 17.45-45.1026ZM77.77-45.1026C79.4-43.4826 79.4-40.8546 77.77-39.2336L72.8-34.2635C71.18-32.6435 68.56-32.6435 66.94-34.2635C65.32-35.8845 65.32-38.5126 66.94-40.1326L71.91-45.1026C73.53-46.7236 76.15-46.7236 77.77-45.1026ZM74.96-14.9375C74.96-17.2296 76.82-19.0876 79.11-19.0876L86.11-19.0876C88.4-19.0876 90.26-17.2296 90.26-14.9375C90.26-12.6456 88.4-10.7875 86.11-10.7875L79.11-10.7875C76.82-10.7875 74.96-12.6456 74.96-14.9375ZM4.96-14.9375C4.96-17.2296 6.82-19.0876 9.11-19.0876L16.11-19.0876C18.4-19.0876 20.26-17.2296 20.26-14.9375C20.26-12.6456 18.4-10.7875 16.11-10.7875L9.11-10.7875C6.82-10.7875 4.96-12.6456 4.96-14.9375Z"/>
   <path class="hierarchical-1:primary SFSymbolsPreview212121" d="M4.96-0.9375C4.96-3.2295 6.82-5.0875 9.11-5.0875L86.11-5.0875C88.4-5.0875 90.26-3.2295 90.26-0.9375C90.26 1.3545 88.4 3.2125 86.11 3.2125L9.11 3.2125C6.82 3.2125 4.96 1.3545 4.96-0.9375ZM32.3-30.2466C36.36-34.3066 41.87-36.5875 47.61-36.5875C53.35-36.5875 58.86-34.3066 62.92-30.2466C66.98-26.1865 69.26-20.6796 69.26-14.9375C69.26-12.6456 67.4-10.7875 65.11-10.7875C62.82-10.7875 60.96-12.6456 60.96-14.9375C60.96-18.4786 59.55-21.8745 57.05-24.3776C54.55-26.8816 51.15-28.2875 47.61-28.2875C44.07-28.2875 40.67-26.8816 38.17-24.3776C35.67-21.8745 34.26-18.4786 34.26-14.9375C34.26-12.6456 32.4-10.7875 30.11-10.7875C27.82-10.7875 25.96-12.6456 25.96-14.9375C25.96-20.6796 28.24-26.1865 32.3-30.2466ZM44.68-73.8726C46.3-75.4936 48.92-75.4936 50.54-73.8726L64.54-59.8726C66.16-58.2516 66.16-55.6245 64.54-54.0036C62.92-52.3826 60.3-52.3826 58.68-54.0036L47.61-65.0686L36.54-54.0036C34.92-52.3826 32.3-52.3826 30.68-54.0036C29.05-55.6245 29.05-58.2516 30.68-59.8726L44.68-73.8726ZM47.61-75.0875C49.9-75.0875 51.76-73.2296 51.76-70.9375L51.76-46.4375C51.76-44.1456 49.9-42.2875 47.61-42.2875C45.32-42.2875 43.46-44.1456 43.46-46.4375L43.46-70.9375C43.46-73.2296 45.32-75.0875 47.61-75.0875Z"/>
  </g>
  <g id="Regular-S" transform="matrix(1 0 0 1 1403.04 696)">
   <path class="hierarchical-0:secondary SFSymbolsPreview4D4D4D" d="M17.25-44.5156C18.62-45.8826 20.84-45.8826 22.2-44.5156L27.17-39.5456C28.54-38.1786 28.54-35.9626 27.17-34.5966C25.81-33.2296 23.59-33.2296 22.22-34.5966L17.25-39.5666C15.89-40.9325 15.89-43.1486 17.25-44.5156ZM76.66-44.5156C78.03-43.1486 78.03-40.9325 76.66-39.5666L71.69-34.5966C70.33-33.2296 68.11-33.2296 66.74-34.5966C65.38-35.9626 65.38-38.1786 66.74-39.5456L71.71-44.5156C73.08-45.8826 75.3-45.8826 76.66-44.5156ZM74.96-14.8106C74.96-16.7435 76.53-18.3106 78.46-18.3106L85.46-18.3106C87.39-18.3106 88.96-16.7435 88.96-14.8106C88.96-12.8776 87.39-11.3106 85.46-11.3106L78.46-11.3106C76.53-11.3106 74.96-12.8776 74.96-14.8106ZM4.96-14.8106C4.96-16.7435 6.53-18.3106 8.46-18.3106L15.46-18.3106C17.39-18.3106 18.96-16.7435 18.96-14.8106C18.96-12.8776 17.39-11.3106 15.46-11.3106L8.46-11.3106C6.53-11.3106 4.96-12.8776 4.96-14.8106Z"/>
   <path class="hierarchical-1:primary SFSymbolsPreview212121" d="M4.96-0.8105C4.96-2.7435 6.53-4.3105 8.46-4.3105L85.46-4.3105C87.39-4.3105 88.96-2.7435 88.96-0.8105C88.96 1.1225 87.39 2.6895 85.46 2.6895L8.46 2.6895C6.53 2.6895 4.96 1.1225 4.96-0.8105ZM32.11-29.6596C36.05-33.5976 41.39-35.8106 46.96-35.8106C52.53-35.8106 57.87-33.5976 61.81-29.6596C65.75-25.7216 67.96-20.3795 67.96-14.8106C67.96-12.8776 66.39-11.3106 64.46-11.3106C62.53-11.3106 60.96-12.8776 60.96-14.8106C60.96-18.5236 59.49-22.0846 56.86-24.7096C54.23-27.3356 50.67-28.8106 46.96-28.8106C43.25-28.8106 39.69-27.3356 37.06-24.7096C34.43-22.0846 32.96-18.5236 32.96-14.8106C32.96-12.8776 31.39-11.3106 29.46-11.3106C27.53-11.3106 25.96-12.8776 25.96-14.8106C25.96-20.3795 28.17-25.7216 32.11-29.6596ZM44.49-73.2856C45.85-74.6526 48.07-74.6526 49.43-73.2856L63.43-59.2856C64.8-57.9186 64.8-55.7026 63.43-54.3356C62.07-52.9686 59.85-52.9686 58.49-54.3356L46.96-65.8606L35.43-54.3356C34.07-52.9686 31.85-52.9686 30.49-54.3356C29.12-55.7026 29.12-57.9186 30.49-59.2856L44.49-73.2856ZM46.96-74.3106C48.89-74.3106 50.46-72.7435 50.46-70.8106L50.46-46.3106C50.46-44.3776 48.89-42.8106 46.96-42.8106C45.03-42.8106 43.46-44.3776 43.46-46.3106L43.46-70.8106C43.46-72.7435 45.03-74.3106 46.96-74.3106Z"/>
  </g>
  <g id="Light-S" transform="matrix(1 0 0 1 1107.13 696)">
   <path class="hierarchical-0:secondary SFSymbolsPreview4D4D4D" d="M17.02-43.7935C18.08-44.8475 19.79-44.8475 20.84-43.7935L25.81-38.8235C26.86-37.7684 26.86-36.0594 25.81-35.0044C24.76-33.9504 23.05-33.9504 21.99-35.0044L17.02-39.9744C15.97-41.0294 15.97-42.7384 17.02-43.7935ZM75.3-43.7935C76.35-42.7384 76.35-41.0294 75.3-39.9744L70.33-35.0044C69.27-33.9504 67.56-33.9504 66.51-35.0044C65.46-36.0594 65.46-37.7684 66.51-38.8235L71.48-43.7935C72.53-44.8475 74.24-44.8475 75.3-43.7935ZM74.96-14.6534C74.96-16.1445 76.17-17.3534 77.66-17.3534L84.66-17.3534C86.15-17.3534 87.36-16.1445 87.36-14.6534C87.36-13.1624 86.15-11.9535 84.66-11.9535L77.66-11.9535C76.17-11.9535 74.96-13.1624 74.96-14.6534ZM4.96-14.6534C4.96-16.1445 6.17-17.3534 7.66-17.3534L14.66-17.3534C16.15-17.3534 17.36-16.1445 17.36-14.6534C17.36-13.1624 16.15-11.9535 14.66-11.9535L7.66-11.9535C6.17-11.9535 4.96-13.1624 4.96-14.6534Z"/>
   <path class="hierarchical-1:primary SFSymbolsPreview212121" d="M4.96-0.6535C4.96-2.1445 6.17-3.3535 7.66-3.3535L84.66-3.3535C86.15-3.3535 87.36-2.1445 87.36-0.6535C87.36 0.8375 86.15 2.0465 84.66 2.0465L7.66 2.0465C6.17 2.0465 4.96 0.8375 4.96-0.6535ZM31.88-28.9375C35.66-32.7254 40.8-34.8534 46.16-34.8534C51.52-34.8534 56.66-32.7254 60.44-28.9375C64.23-25.1484 66.36-20.0114 66.36-14.6534C66.36-13.1624 65.15-11.9535 63.66-11.9535C62.17-11.9535 60.96-13.1624 60.96-14.6534C60.96-18.5785 59.4-22.3434 56.62-25.1184C53.85-27.8945 50.09-29.4535 46.16-29.4535C42.23-29.4535 38.47-27.8945 35.69-25.1184C32.92-22.3434 31.36-18.5785 31.36-14.6534C31.36-13.1624 30.15-11.9535 28.66-11.9535C27.17-11.9535 25.96-13.1624 25.96-14.6534C25.96-20.0114 28.09-25.1484 31.88-28.9375ZM44.25-72.5625C45.31-73.6174 47.01-73.6174 48.07-72.5625L62.07-58.5625C63.12-57.5084 63.12-55.7985 62.07-54.7444C61.01-53.6904 59.31-53.6904 58.25-54.7444L46.16-66.8354L34.07-54.7444C33.01-53.6904 31.31-53.6904 30.25-54.7444C29.2-55.7985 29.2-57.5084 30.25-58.5625L44.25-72.5625ZM46.16-73.3534C47.65-73.3534 48.86-72.1445 48.86-70.6534L48.86-46.1534C48.86-44.6624 47.65-43.4535 46.16-43.4535C44.67-43.4535 43.46-44.6624 43.46-46.1534L43.46-70.6534C43.46-72.1445 44.67-73.3534 46.16-73.3534Z"/>
  </g>
  <g id="Thin-S" transform="matrix(1 0 0 1 811.467 696)">
   <path class="hierarchical-0:secondary SFSymbolsPreview4D4D4D" d="M16.713-42.847C17.358-43.491 18.402-43.491 19.047-42.847L24.017-37.877C24.661-37.232 24.661-36.187 24.017-35.543C23.372-34.899 22.328-34.899 21.683-35.543L16.713-40.513C16.069-41.157 16.069-42.202 16.713-42.847ZM73.507-42.847C74.151-42.202 74.151-41.157 73.507-40.513L68.537-35.543C67.893-34.899 66.848-34.899 66.204-35.543C65.559-36.187 65.559-37.232 66.204-37.877L71.174-42.847C71.818-43.491 72.863-43.491 73.507-42.847ZM74.96-14.449C74.96-15.361 75.698-16.099 76.61-16.099L83.61-16.099C84.521-16.099 85.26-15.361 85.26-14.449C85.26-13.538 84.521-12.799 83.61-12.799L76.61-12.799C75.698-12.799 74.96-13.538 74.96-14.449ZM4.96-14.449C4.96-15.361 5.698-16.099 6.61-16.099L13.61-16.099C14.521-16.099 15.26-15.361 15.26-14.449C15.26-13.538 14.521-12.799 13.61-12.799L6.61-12.799C5.698-12.799 4.96-13.538 4.96-14.449Z"/>
   <path class="hierarchical-1:primary SFSymbolsPreview212121" d="M4.96-0.449C4.96-1.361 5.698-2.099 6.61-2.099L83.61-2.099C84.521-2.099 85.26-1.361 85.26-0.449C85.26 0.462 84.521 1.201 83.61 1.201L6.61 1.201C5.698 1.201 4.96 0.462 4.96-0.449ZM31.569-27.99C35.16-31.582 40.031-33.599 45.11-33.599C50.189-33.599 55.059-31.582 58.651-27.99C62.242-24.399 64.26-19.528 64.26-14.449C64.26-13.538 63.521-12.799 62.61-12.799C61.698-12.799 60.96-13.538 60.96-14.449C60.96-18.653 59.29-22.685 56.317-25.657C53.345-28.629 49.313-30.299 45.11-30.299C40.906-30.299 36.874-28.629 33.902-25.657C30.93-22.685 29.26-18.653 29.26-14.449C29.26-13.538 28.521-12.799 27.61-12.799C26.698-12.799 25.96-13.538 25.96-14.449C25.96-19.528 27.977-24.399 31.569-27.99ZM43.943-71.616C44.587-72.26 45.632-72.26 46.276-71.616L60.276-57.616C60.921-56.972 60.921-55.927 60.276-55.283C59.632-54.638 58.587-54.638 57.943-55.283L45.11-68.116L32.276-55.283C31.632-54.638 30.587-54.638 29.943-55.283C29.299-55.927 29.299-56.972 29.943-57.616L43.943-71.616ZM45.11-72.099C46.021-72.099 46.76-71.361 46.76-70.449L46.76-45.949C46.76-45.038 46.021-44.299 45.11-44.299C44.198-44.299 43.46-45.038 43.46-45.949L43.46-70.449C43.46-71.361 44.198-72.099 45.11-72.099Z"/>
  </g>
  <g id="Ultralight-S" transform="matrix(1 0 0 1 515.306 696)">
   <path class="hierarchical-0:secondary SFSymbolsPreview4D4D4D" d="M16.552-42.349C16.982-42.778 17.678-42.778 18.108-42.349L23.078-37.379C23.507-36.949 23.507-36.253 23.078-35.823C22.648-35.394 21.952-35.394 21.522-35.823L16.552-40.793C16.123-41.223 16.123-41.919 16.552-42.349ZM72.568-42.349C72.998-41.919 72.998-41.223 72.568-40.793L67.598-35.823C67.168-35.394 66.472-35.394 66.042-35.823C65.613-36.253 65.613-36.949 66.042-37.379L71.012-42.349C71.442-42.778 72.138-42.778 72.568-42.349ZM74.96-14.341C74.96-14.948 75.453-15.441 76.06-15.441L83.06-15.441C83.668-15.441 84.16-14.948 84.16-14.341C84.16-13.733 83.668-13.241 83.06-13.241L76.06-13.241C75.453-13.241 74.96-13.733 74.96-14.341ZM4.96-14.341C4.96-14.948 5.453-15.441 6.06-15.441L13.06-15.441C13.668-15.441 14.16-14.948 14.16-14.341C14.16-13.733 13.668-13.241 13.06-13.241L6.06-13.241C5.453-13.241 4.96-13.733 4.96-14.341Z"/>
   <path class="hierarchical-1:primary SFSymbolsPreview212121" d="M4.96-0.341C4.96-0.948 5.453-1.441 6.06-1.441L83.06-1.441C83.668-1.441 84.16-0.948 84.16-0.341C84.16 0.267 83.668 0.759 83.06 0.759L6.06 0.759C5.453 0.759 4.96 0.267 4.96-0.341ZM31.408-27.493C34.896-30.981 39.627-32.941 44.56-32.941C49.493-32.941 54.224-30.981 57.713-27.493C61.201-24.005 63.16-19.274 63.16-14.341C63.16-13.733 62.668-13.241 62.06-13.241C61.453-13.241 60.96-13.733 60.96-14.341C60.96-18.69 59.233-22.862 56.157-25.937C53.081-29.013 48.91-30.741 44.56-30.741C40.211-30.741 36.039-29.013 32.964-25.937C29.888-22.862 28.16-18.69 28.16-14.341C28.16-13.733 27.668-13.241 27.06-13.241C26.453-13.241 25.96-13.733 25.96-14.341C25.96-19.274 27.92-24.005 31.408-27.493ZM43.783-71.118C44.212-71.548 44.909-71.548 45.338-71.118L59.338-57.118C59.768-56.689 59.768-55.992 59.338-55.563C58.909-55.133 58.212-55.133 57.783-55.563L44.56-68.785L31.338-55.563C30.909-55.133 30.212-55.133 29.783-55.563C29.353-55.992 29.353-56.689 29.783-57.118L43.783-71.118ZM44.56-71.441C45.168-71.441 45.66-70.948 45.66-70.341L45.66-45.841C45.66-45.233 45.168-44.741 44.56-44.741C43.953-44.741 43.46-45.233 43.46-45.841L43.46-70.341C43.46-70.948 43.953-71.441 44.56-71.441Z"/>
  </g>
 </g>
</svg>
