<?xml version="1.0" encoding="UTF-8"?>
<!--Generator: Apple Native CoreSVG 175-->
<!DOCTYPE svg
PUBLIC "-//W3C//DTD SVG 1.1//EN"
       "http://www.w3.org/Graphics/SVG/1.1/DTD/svg11.dtd">
<svg version="1.1" xmlns="http://www.w3.org/2000/svg" xmlns:xlink="http://www.w3.org/1999/xlink" width="3300" height="2200">
 <!--glyph: "", point size: 100.0, font version: "17.0d12e1", template writer version: "65.1"-->
 <style>.hierarchical-0:secondary {fill:#4D4D4D}
.hierarchical-1:primary {fill:#212121}

.SFSymbolsPreview212121 {fill:#212121;opacity:1.0}
.SFSymbolsPreview4D4D4D {fill:#4D4D4D;opacity:1.0}
</style>
 <g id="Notes">
  <rect height="2200" id="artboard" style="fill:white;opacity:1" width="3300" x="0" y="0"/>
  <line style="fill:none;stroke:black;opacity:1;stroke-width:0.5;" x1="263" x2="3036" y1="292" y2="292"/>
  <text style="stroke:none;fill:black;font-family:sans-serif;font-size:13;font-weight:bold;" transform="matrix(1 0 0 1 263 322)">Weight/Scale Variations</text>
  <text style="stroke:none;fill:black;font-family:sans-serif;font-size:13;text-anchor:middle;" transform="matrix(1 0 0 1 559.711 322)">Ultralight</text>
  <text style="stroke:none;fill:black;font-family:sans-serif;font-size:13;text-anchor:middle;" transform="matrix(1 0 0 1 856.422 322)">Thin</text>
  <text style="stroke:none;fill:black;font-family:sans-serif;font-size:13;text-anchor:middle;" transform="matrix(1 0 0 1 1153.13 322)">Light</text>
  <text style="stroke:none;fill:black;font-family:sans-serif;font-size:13;text-anchor:middle;" transform="matrix(1 0 0 1 1449.84 322)">Regular</text>
  <text style="stroke:none;fill:black;font-family:sans-serif;font-size:13;text-anchor:middle;" transform="matrix(1 0 0 1 1746.56 322)">Medium</text>
  <text style="stroke:none;fill:black;font-family:sans-serif;font-size:13;text-anchor:middle;" transform="matrix(1 0 0 1 2043.27 322)">Semibold</text>
  <text style="stroke:none;fill:black;font-family:sans-serif;font-size:13;text-anchor:middle;" transform="matrix(1 0 0 1 2339.98 322)">Bold</text>
  <text style="stroke:none;fill:black;font-family:sans-serif;font-size:13;text-anchor:middle;" transform="matrix(1 0 0 1 2636.69 322)">Heavy</text>
  <text style="stroke:none;fill:black;font-family:sans-serif;font-size:13;text-anchor:middle;" transform="matrix(1 0 0 1 2933.4 322)">Black</text>
  <line style="fill:none;stroke:black;opacity:1;stroke-width:0.5;" x1="263" x2="3036" y1="1903" y2="1903"/>
  <g transform="matrix(1 0 0 1 263 1933)">
   <path d="M9.24805 0.830078Q10.8691 0.830078 12.2949 0.214844Q13.7207-0.400391 14.8096-1.49414Q15.8984-2.58789 16.5186-4.01367Q17.1387-5.43945 17.1387-7.05078Q17.1387-8.66211 16.5186-10.0879Q15.8984-11.5137 14.8047-12.6074Q13.7109-13.7012 12.2852-14.3164Q10.8594-14.9316 9.23828-14.9316Q7.62695-14.9316 6.20117-14.3164Q4.77539-13.7012 3.69141-12.6074Q2.60742-11.5137 1.9873-10.0879Q1.36719-8.66211 1.36719-7.05078Q1.36719-5.43945 1.9873-4.01367Q2.60742-2.58789 3.69629-1.49414Q4.78516-0.400391 6.21094 0.214844Q7.63672 0.830078 9.24805 0.830078ZM9.24805-0.654297Q7.91992-0.654297 6.7627-1.14746Q5.60547-1.64062 4.73145-2.51953Q3.85742-3.39844 3.36426-4.56055Q2.87109-5.72266 2.87109-7.05078Q2.87109-8.37891 3.35938-9.54102Q3.84766-10.7031 4.72168-11.582Q5.5957-12.4609 6.75293-12.9541Q7.91016-13.4473 9.23828-13.4473Q10.5762-13.4473 11.7334-12.9541Q12.8906-12.4609 13.7695-11.582Q14.6484-10.7031 15.1465-9.54102Q15.6445-8.37891 15.6445-7.05078Q15.6445-5.72266 15.1514-4.56055Q14.6582-3.39844 13.7842-2.51953Q12.9102-1.64062 11.748-1.14746Q10.5859-0.654297 9.24805-0.654297ZM5.6543-7.05078Q5.6543-6.72852 5.85938-6.52832Q6.06445-6.32812 6.40625-6.32812L8.51562-6.32812L8.51562-4.20898Q8.51562-3.88672 8.71094-3.67676Q8.90625-3.4668 9.23828-3.4668Q9.56055-3.4668 9.77051-3.67676Q9.98047-3.88672 9.98047-4.20898L9.98047-6.32812L12.0898-6.32812Q12.4219-6.32812 12.627-6.52832Q12.832-6.72852 12.832-7.05078Q12.832-7.38281 12.627-7.58789Q12.4219-7.79297 12.0898-7.79297L9.98047-7.79297L9.98047-9.90234Q9.98047-10.2344 9.77051-10.4443Q9.56055-10.6543 9.23828-10.6543Q8.90625-10.6543 8.71094-10.4443Q8.51562-10.2344 8.51562-9.90234L8.51562-7.79297L6.40625-7.79297Q6.06445-7.79297 5.85938-7.58789Q5.6543-7.38281 5.6543-7.05078Z"/>
  </g>
  <g transform="matrix(1 0 0 1 281.867 1933)">
   <path d="M11.709 2.91016Q13.75 2.91016 15.5518 2.12891Q17.3535 1.34766 18.7305-0.0292969Q20.1074-1.40625 20.8887-3.20801Q21.6699-5.00977 21.6699-7.05078Q21.6699-9.0918 20.8887-10.8936Q20.1074-12.6953 18.7305-14.0723Q17.3535-15.4492 15.5469-16.2305Q13.7402-17.0117 11.6992-17.0117Q9.6582-17.0117 7.85645-16.2305Q6.05469-15.4492 4.68262-14.0723Q3.31055-12.6953 2.5293-10.8936Q1.74805-9.0918 1.74805-7.05078Q1.74805-5.00977 2.5293-3.20801Q3.31055-1.40625 4.6875-0.0292969Q6.06445 1.34766 7.86621 2.12891Q9.66797 2.91016 11.709 2.91016ZM11.709 1.25Q9.98047 1.25 8.47656 0.605469Q6.97266-0.0390625 5.83496-1.17676Q4.69727-2.31445 4.05762-3.81836Q3.41797-5.32227 3.41797-7.05078Q3.41797-8.7793 4.05762-10.2832Q4.69727-11.7871 5.83008-12.9297Q6.96289-14.0723 8.4668-14.7119Q9.9707-15.3516 11.6992-15.3516Q13.4277-15.3516 14.9316-14.7119Q16.4355-14.0723 17.5781-12.9297Q18.7207-11.7871 19.3652-10.2832Q20.0098-8.7793 20.0098-7.05078Q20.0098-5.32227 19.3701-3.81836Q18.7305-2.31445 17.5928-1.17676Q16.4551-0.0390625 14.9463 0.605469Q13.4375 1.25 11.709 1.25ZM7.17773-7.05078Q7.17773-6.69922 7.41211-6.47461Q7.64648-6.25 8.01758-6.25L10.8887-6.25L10.8887-3.36914Q10.8887-2.99805 11.1133-2.76855Q11.3379-2.53906 11.6895-2.53906Q12.0605-2.53906 12.29-2.76855Q12.5195-2.99805 12.5195-3.36914L12.5195-6.25L15.4004-6.25Q15.7715-6.25 16.001-6.47461Q16.2305-6.69922 16.2305-7.05078Q16.2305-7.42188 16.001-7.65137Q15.7715-7.88086 15.4004-7.88086L12.5195-7.88086L12.5195-10.752Q12.5195-11.1328 12.29-11.3623Q12.0605-11.5918 11.6895-11.5918Q11.3379-11.5918 11.1133-11.3574Q10.8887-11.123 10.8887-10.752L10.8887-7.88086L8.01758-7.88086Q7.63672-7.88086 7.40723-7.65137Q7.17773-7.42188 7.17773-7.05078Z"/>
  </g>
  <g transform="matrix(1 0 0 1 305.646 1933)">
   <path d="M14.9707 5.66406Q17.0605 5.66406 18.96 5.01465Q20.8594 4.36523 22.4512 3.19336Q24.043 2.02148 25.2197 0.429688Q26.3965-1.16211 27.0459-3.06641Q27.6953-4.9707 27.6953-7.05078Q27.6953-9.14062 27.0459-11.04Q26.3965-12.9395 25.2197-14.5312Q24.043-16.123 22.4512-17.2998Q20.8594-18.4766 18.9551-19.126Q17.0508-19.7754 14.9609-19.7754Q12.8711-19.7754 10.9717-19.126Q9.07227-18.4766 7.48535-17.2998Q5.89844-16.123 4.72168-14.5312Q3.54492-12.9395 2.90039-11.04Q2.25586-9.14062 2.25586-7.05078Q2.25586-4.9707 2.90527-3.06641Q3.55469-1.16211 4.72656 0.429688Q5.89844 2.02148 7.49023 3.19336Q9.08203 4.36523 10.9814 5.01465Q12.8809 5.66406 14.9707 5.66406ZM14.9707 3.84766Q13.1641 3.84766 11.5283 3.2959Q9.89258 2.74414 8.53516 1.74805Q7.17773 0.751953 6.17676-0.610352Q5.17578-1.97266 4.62891-3.6084Q4.08203-5.24414 4.08203-7.05078Q4.08203-8.86719 4.62891-10.5029Q5.17578-12.1387 6.17188-13.501Q7.16797-14.8633 8.52539-15.8594Q9.88281-16.8555 11.5186-17.4023Q13.1543-17.9492 14.9609-17.9492Q16.7773-17.9492 18.4131-17.4023Q20.0488-16.8555 21.4111-15.8594Q22.7734-14.8633 23.7695-13.501Q24.7656-12.1387 25.3174-10.5029Q25.8691-8.86719 25.8691-7.05078Q25.8789-5.24414 25.332-3.6084Q24.7852-1.97266 23.7842-0.610352Q22.7832 0.751953 21.4209 1.74805Q20.0586 2.74414 18.4229 3.2959Q16.7871 3.84766 14.9707 3.84766ZM9.19922-7.05078Q9.19922-6.66992 9.45801-6.4209Q9.7168-6.17188 10.1172-6.17188L14.0625-6.17188L14.0625-2.2168Q14.0625-1.81641 14.3115-1.55762Q14.5605-1.29883 14.9512-1.29883Q15.3516-1.29883 15.6104-1.55273Q15.8691-1.80664 15.8691-2.2168L15.8691-6.17188L19.8242-6.17188Q20.2246-6.17188 20.4785-6.4209Q20.7324-6.66992 20.7324-7.05078Q20.7324-7.46094 20.4785-7.71484Q20.2246-7.96875 19.8242-7.96875L15.8691-7.96875L15.8691-11.9141Q15.8691-12.3242 15.6104-12.583Q15.3516-12.8418 14.9512-12.8418Q14.5605-12.8418 14.3115-12.583Q14.0625-12.3242 14.0625-11.9141L14.0625-7.96875L10.1172-7.96875Q9.70703-7.96875 9.45312-7.71484Q9.19922-7.46094 9.19922-7.05078Z"/>
  </g>
  <text style="stroke:none;fill:black;font-family:sans-serif;font-size:13;font-weight:bold;" transform="matrix(1 0 0 1 263 1953)">Design Variations</text>
  <text style="stroke:none;fill:black;font-family:sans-serif;font-size:13;" transform="matrix(1 0 0 1 263 1971)">Symbols are supported in up to nine weights and three scales.</text>
  <text style="stroke:none;fill:black;font-family:sans-serif;font-size:13;" transform="matrix(1 0 0 1 263 1989)">For optimal layout with text and other symbols, vertically align</text>
  <text style="stroke:none;fill:black;font-family:sans-serif;font-size:13;" transform="matrix(1 0 0 1 263 2007)">symbols with the adjacent text.</text>
  <line style="fill:none;stroke:#00AEEF;stroke-width:0.5;opacity:1.0;" x1="776" x2="776" y1="1919" y2="1933"/>
  <g transform="matrix(1 0 0 1 776 1933)">
   <path d="M3.31055 0.15625Q3.70117 0.15625 3.91602-0.00976562Q4.13086-0.175781 4.26758-0.585938L5.52734-4.0332L11.2891-4.0332L12.5488-0.585938Q12.6855-0.175781 12.9004-0.00976562Q13.1152 0.15625 13.4961 0.15625Q13.8867 0.15625 14.1162-0.0585938Q14.3457-0.273438 14.3457-0.644531Q14.3457-0.869141 14.2383-1.17188L9.6582-13.3691Q9.48242-13.8184 9.17969-14.043Q8.87695-14.2676 8.4082-14.2676Q7.5-14.2676 7.17773-13.3789L2.59766-1.16211Q2.49023-0.859375 2.49023-0.634766Q2.49023-0.263672 2.70996-0.0537109Q2.92969 0.15625 3.31055 0.15625ZM6.00586-5.51758L8.37891-12.0898L8.42773-12.0898L10.8008-5.51758Z"/>
  </g>
  <line style="fill:none;stroke:#00AEEF;stroke-width:0.5;opacity:1.0;" x1="793.197" x2="793.197" y1="1919" y2="1933"/>
  <text style="stroke:none;fill:black;font-family:sans-serif;font-size:13;font-weight:bold;" transform="matrix(1 0 0 1 776 1953)">Margins</text>
  <text style="stroke:none;fill:black;font-family:sans-serif;font-size:13;" transform="matrix(1 0 0 1 776 1971)">Leading and trailing margins on the left and right side of each symbol</text>
  <text style="stroke:none;fill:black;font-family:sans-serif;font-size:13;" transform="matrix(1 0 0 1 776 1989)">can be adjusted by modifying the x-location of the margin guidelines.</text>
  <text style="stroke:none;fill:black;font-family:sans-serif;font-size:13;" transform="matrix(1 0 0 1 776 2007)">Modifications are automatically applied proportionally to all</text>
  <text style="stroke:none;fill:black;font-family:sans-serif;font-size:13;" transform="matrix(1 0 0 1 776 2025)">scales and weights.</text>
  <g transform="matrix(1 0 0 1 1289 1933)">
   <path d="M2.8418 1.86523L4.54102 3.57422Q5.18555 4.22852 5.90332 4.17969Q6.62109 4.13086 7.31445 3.35938L18.0078-8.42773L17.041-9.4043L6.42578 2.27539Q6.16211 2.57812 5.89355 2.61719Q5.625 2.65625 5.27344 2.30469L4.10156 1.14258Q3.75 0.791016 3.79395 0.522461Q3.83789 0.253906 4.14062-0.0195312L15.6152-10.8203L14.6387-11.7871L3.04688-0.898438Q2.30469-0.214844 2.25098 0.498047Q2.19727 1.21094 2.8418 1.86523ZM9.25781-16.3281Q8.94531-16.0254 8.90625-15.6348Q8.86719-15.2441 9.04297-14.9512Q9.21875-14.6777 9.55566-14.541Q9.89258-14.4043 10.3809-14.5215Q11.4746-14.7754 12.5977-14.7314Q13.7207-14.6875 14.7949-13.9844L14.209-12.5293Q13.9551-11.9043 14.0674-11.4404Q14.1797-10.9766 14.5801-10.5664L16.875-8.25195Q17.2363-7.88086 17.5781-7.82227Q17.9199-7.76367 18.3398-7.8418L19.4043-8.03711L20.0684-7.36328L20.0293-6.80664Q20-6.43555 20.1221-6.12305Q20.2441-5.81055 20.6055-5.44922L21.3672-4.70703Q21.7285-4.3457 22.1533-4.33105Q22.5781-4.31641 22.9297-4.66797L25.8398-7.58789Q26.1914-7.93945 26.1816-8.35449Q26.1719-8.76953 25.8105-9.13086L25.0391-9.89258Q24.6875-10.2539 24.3799-10.3857Q24.0723-10.5176 23.7109-10.4883L23.1348-10.4395L22.4902-11.0742L22.7344-12.1973Q22.832-12.6172 22.6953-12.9834Q22.5586-13.3496 22.1191-13.7891L19.9219-15.9766Q18.6719-17.2168 17.2607-17.8369Q15.8496-18.457 14.4189-18.4814Q12.9883-18.5059 11.665-17.959Q10.3418-17.4121 9.25781-16.3281ZM10.752-15.957Q11.6602-16.6211 12.7002-16.9043Q13.7402-17.1875 14.8047-17.085Q15.8691-16.9824 16.8701-16.5137Q17.8711-16.0449 18.7012-15.2051L21.1328-12.793Q21.3086-12.6172 21.3525-12.4512Q21.3965-12.2852 21.3379-12.0312L21.0156-10.5469L22.5195-9.0625L23.5059-9.12109Q23.6914-9.13086 23.7891-9.09668Q23.8867-9.0625 24.0332-8.91602L24.6094-8.33984L22.168-5.89844L21.5918-6.47461Q21.4453-6.62109 21.4062-6.71875Q21.3672-6.81641 21.377-7.01172L21.4453-7.98828L19.9512-9.47266L18.4277-9.21875Q18.1836-9.16992 18.042-9.2041Q17.9004-9.23828 17.7148-9.41406L15.7129-11.416Q15.5176-11.5918 15.4932-11.7529Q15.4688-11.9141 15.5859-12.1875L16.4648-14.2773Q15.293-15.3711 13.8281-15.791Q12.3633-16.2109 10.8398-15.7617Q10.7227-15.7324 10.6885-15.8057Q10.6543-15.8789 10.752-15.957Z"/>
  </g>
  <text style="stroke:none;fill:black;font-family:sans-serif;font-size:13;font-weight:bold;" transform="matrix(1 0 0 1 1289 1953)">Exporting</text>
  <text style="stroke:none;fill:black;font-family:sans-serif;font-size:13;" transform="matrix(1 0 0 1 1289 1971)">Symbols should be outlined when exporting to ensure the</text>
  <text style="stroke:none;fill:black;font-family:sans-serif;font-size:13;" transform="matrix(1 0 0 1 1289 1989)">design is preserved when submitting to Xcode.</text>
  <text id="template-version" style="stroke:none;fill:black;font-family:sans-serif;font-size:13;text-anchor:end;" transform="matrix(1 0 0 1 3036 1933)">Template v.3.0</text>
  <text style="stroke:none;fill:black;font-family:sans-serif;font-size:13;text-anchor:end;" transform="matrix(1 0 0 1 3036 1951)">Requires Xcode 13 or greater</text>
  <text id="descriptive-name" style="stroke:none;fill:black;font-family:sans-serif;font-size:13;text-anchor:end;" transform="matrix(1 0 0 1 3036 1969)">Generated from image</text>
  <text style="stroke:none;fill:black;font-family:sans-serif;font-size:13;text-anchor:end;" transform="matrix(1 0 0 1 3036 1987)">Typeset at 100 points</text>
  <text style="stroke:none;fill:black;font-family:sans-serif;font-size:13;" transform="matrix(1 0 0 1 263 726)">Small</text>
  <text style="stroke:none;fill:black;font-family:sans-serif;font-size:13;" transform="matrix(1 0 0 1 263 1156)">Medium</text>
  <text style="stroke:none;fill:black;font-family:sans-serif;font-size:13;" transform="matrix(1 0 0 1 263 1586)">Large</text>
 </g>
 <g id="Guides">
  <g id="H-reference" style="fill:#27AAE1;stroke:none;" transform="matrix(1 0 0 1 339 696)">
   <path d="M0.976562 0L3.66211 0L29.3457-67.1387L30.0293-67.1387L30.0293-70.459L28.125-70.459ZM11.6699-24.4629L46.9727-24.4629L46.2402-26.709L12.4512-26.709ZM55.127 0L57.7637 0L30.6152-70.459L29.4434-70.459L29.4434-67.1387Z"/>
  </g>
  <line id="Baseline-S" style="fill:none;stroke:#27AAE1;opacity:1;stroke-width:0.5;" x1="263" x2="3036" y1="696" y2="696"/>
  <line id="Capline-S" style="fill:none;stroke:#27AAE1;opacity:1;stroke-width:0.5;" x1="263" x2="3036" y1="625.541" y2="625.541"/>
  <g id="H-reference" style="fill:#27AAE1;stroke:none;" transform="matrix(1 0 0 1 339 1126)">
   <path d="M0.976562 0L3.66211 0L29.3457-67.1387L30.0293-67.1387L30.0293-70.459L28.125-70.459ZM11.6699-24.4629L46.9727-24.4629L46.2402-26.709L12.4512-26.709ZM55.127 0L57.7637 0L30.6152-70.459L29.4434-70.459L29.4434-67.1387Z"/>
  </g>
  <line id="Baseline-M" style="fill:none;stroke:#27AAE1;opacity:1;stroke-width:0.5;" x1="263" x2="3036" y1="1126" y2="1126"/>
  <line id="Capline-M" style="fill:none;stroke:#27AAE1;opacity:1;stroke-width:0.5;" x1="263" x2="3036" y1="1055.54" y2="1055.54"/>
  <g id="H-reference" style="fill:#27AAE1;stroke:none;" transform="matrix(1 0 0 1 339 1556)">
   <path d="M0.976562 0L3.66211 0L29.3457-67.1387L30.0293-67.1387L30.0293-70.459L28.125-70.459ZM11.6699-24.4629L46.9727-24.4629L46.2402-26.709L12.4512-26.709ZM55.127 0L57.7637 0L30.6152-70.459L29.4434-70.459L29.4434-67.1387Z"/>
  </g>
  <line id="Baseline-L" style="fill:none;stroke:#27AAE1;opacity:1;stroke-width:0.5;" x1="263" x2="3036" y1="1556" y2="1556"/>
  <line id="Capline-L" style="fill:none;stroke:#27AAE1;opacity:1;stroke-width:0.5;" x1="263" x2="3036" y1="1485.54" y2="1485.54"/>
  <line id="left-margin-Regular-M" style="fill:none;stroke:#00AEEF;stroke-width:0.5;opacity:1.0;" x1="1392.79" x2="1392.79" y1="1030.78" y2="1150.12"/>
  <line id="right-margin-Regular-M" style="fill:none;stroke:#00AEEF;stroke-width:0.5;opacity:1.0;" x1="1506.9" x2="1506.9" y1="1030.78" y2="1150.12"/>
 </g>
 <g id="Symbols">
  <g id="Black-L" transform="matrix(1 0 0 1 2861.72 1556)">
   <path class="hierarchical-0:secondary SFSymbolsPreview4D4D4D" d="M89.91-51.63C92.68-54.4 97.18-54.4 99.95-51.63L128.39-23.19C131.16-20.42 131.16-15.92 128.39-13.15C125.62-10.38 121.12-10.38 118.35-13.15L94.93-36.57L37.39 20.98C34.62 23.75 30.12 23.75 27.35 20.98C24.58 18.2 24.58 13.71 27.35 10.94L89.91-51.63ZM36.64-55.14C36.64-63.77 43.64-70.77 52.27-70.77C60.91-70.77 67.91-63.77 67.91-55.14C67.91-46.51 60.91-39.51 52.27-39.51C43.64-39.51 36.64-46.51 36.64-55.14ZM52.27-56.57C51.48-56.57 50.84-55.93 50.84-55.14C50.84-54.35 51.48-53.71 52.27-53.71C53.06-53.71 53.71-54.35 53.71-55.14C53.71-55.93 53.06-56.57 52.27-56.57Z"/>
   <path class="hierarchical-1:primary SFSymbolsPreview212121" d="M13.89-75.04C13.89-85.25 22.16-93.52 32.37-93.52L111.99-93.52C122.2-93.52 130.47-85.25 130.47-75.04L130.47 4.58C130.47 14.78 122.2 23.06 111.99 23.06L32.37 23.06C22.16 23.06 13.89 14.78 13.89 4.58L13.89-75.04ZM32.37-79.32C30.01-79.32 28.09-77.41 28.09-75.04L28.09 4.58C28.09 6.94 30.01 8.86 32.37 8.86L111.99 8.86C114.35 8.86 116.27 6.94 116.27 4.58L116.27-75.04C116.27-77.41 114.35-79.32 111.99-79.32L32.37-79.32Z"/>
  </g>
  <g id="Heavy-L" transform="matrix(1 0 0 1 2565.86 1556)">
   <path class="hierarchical-0:secondary SFSymbolsPreview4D4D4D" d="M89.66-51.02C92.1-53.47 96.06-53.47 98.5-51.02L126.93-22.59C129.38-20.15 129.38-16.19 126.93-13.75C124.49-11.31 120.54-11.31 118.1-13.75L94.08-37.77L35.93 20.38C33.49 22.82 29.54 22.82 27.1 20.38C24.65 17.94 24.65 13.98 27.1 11.54L89.66-51.02ZM36.64-55.14C36.64-63.3 43.26-69.92 51.42-69.92C59.58-69.92 66.2-63.3 66.2-55.14C66.2-46.97 59.58-40.36 51.42-40.36C43.26-40.36 36.64-46.97 36.64-55.14ZM51.42-57.42C50.16-57.42 49.14-56.4 49.14-55.14C49.14-53.88 50.16-52.86 51.42-52.86C52.68-52.86 53.7-53.88 53.7-55.14C53.7-56.4 52.68-57.42 51.42-57.42Z"/>
   <path class="hierarchical-1:primary SFSymbolsPreview212121" d="M13.89-75.04C13.89-84.78 21.78-92.67 31.52-92.67L111.14-92.67C120.87-92.67 128.76-84.78 128.76-75.04L128.76 4.58C128.76 14.32 120.87 22.21 111.14 22.21L31.52 22.21C21.78 22.21 13.89 14.32 13.89 4.58L13.89-75.04ZM31.52-80.17C28.68-80.17 26.39-77.87 26.39-75.04L26.39 4.58C26.39 7.41 28.68 9.71 31.52 9.71L111.14 9.71C113.97 9.71 116.26 7.41 116.26 4.58L116.26-75.04C116.26-77.87 113.97-80.17 111.14-80.17L31.52-80.17Z"/>
  </g>
  <g id="Bold-L" transform="matrix(1 0 0 1 2270.1 1556)">
   <path class="hierarchical-0:secondary SFSymbolsPreview4D4D4D" d="M89.38-50.35C91.45-52.42 94.8-52.42 96.87-50.35L125.31-21.92C127.38-19.85 127.38-16.49 125.31-14.42C123.24-12.35 119.88-12.35 117.81-14.42L93.12-39.11L34.31 19.7C32.24 21.77 28.88 21.77 26.81 19.7C24.74 17.63 24.74 14.28 26.81 12.21L89.38-50.35ZM36.64-55.14C36.64-62.78 42.83-68.97 50.47-68.97C58.11-68.97 64.3-62.78 64.3-55.14C64.3-47.5 58.11-41.31 50.47-41.31C42.83-41.31 36.64-47.5 36.64-55.14ZM50.47-58.37C48.68-58.37 47.24-56.92 47.24-55.14C47.24-53.35 48.68-51.91 50.47-51.91C52.25-51.91 53.7-53.35 53.7-55.14C53.7-56.92 52.25-58.37 50.47-58.37Z"/>
   <path class="hierarchical-1:primary SFSymbolsPreview212121" d="M13.89-75.04C13.89-84.25 21.35-91.72 30.56-91.72L110.19-91.72C119.4-91.72 126.86-84.25 126.86-75.04L126.86 4.58C126.86 13.79 119.4 21.26 110.19 21.26L30.56 21.26C21.35 21.26 13.89 13.79 13.89 4.58L13.89-75.04ZM30.56-81.12C27.21-81.12 24.49-78.4 24.49-75.04L24.49 4.58C24.49 7.94 27.21 10.66 30.56 10.66L110.19 10.66C113.54 10.66 116.26 7.94 116.26 4.58L116.26-75.04C116.26-78.4 113.54-81.12 110.19-81.12L30.56-81.12Z"/>
  </g>
  <g id="Semibold-L" transform="matrix(1 0 0 1 1974.03 1556)">
   <path class="hierarchical-0:secondary SFSymbolsPreview4D4D4D" d="M89.19-49.89C91.01-51.71 93.95-51.71 95.77-49.89L124.21-21.45C126.02-19.64 126.02-16.69 124.21-14.88C122.39-13.06 119.45-13.06 117.63-14.88L92.48-40.03L33.21 19.25C31.39 21.06 28.45 21.06 26.63 19.25C24.81 17.43 24.81 14.49 26.63 12.67L89.19-49.89ZM36.64-55.14C36.64-62.41 42.54-68.32 49.82-68.32C57.1-68.32 63-62.41 63-55.14C63-47.86 57.1-41.95 49.82-41.95C42.54-41.95 36.64-47.86 36.64-55.14ZM49.82-59.02C47.68-59.02 45.94-57.28 45.94-55.14C45.94-52.99 47.68-51.25 49.82-51.25C51.97-51.25 53.7-52.99 53.7-55.14C53.7-57.28 51.97-59.02 49.82-59.02Z"/>
   <path class="hierarchical-1:primary SFSymbolsPreview212121" d="M13.89-75.04C13.89-83.89 21.07-91.07 29.92-91.07L109.54-91.07C118.39-91.07 125.57-83.89 125.57-75.04L125.57 4.58C125.57 13.43 118.39 20.61 109.54 20.61L29.92 20.61C21.07 20.61 13.89 13.43 13.89 4.58L13.89-75.04ZM29.92-81.77C26.2-81.77 23.19-78.76 23.19-75.04L23.19 4.58C23.19 8.3 26.2 11.31 29.92 11.31L109.54 11.31C113.26 11.31 116.27 8.3 116.27 4.58L116.27-75.04C116.27-78.76 113.26-81.77 109.54-81.77L29.92-81.77Z"/>
  </g>
  <g id="Medium-L" transform="matrix(1 0 0 1 1677.82 1556)">
   <path class="hierarchical-0:secondary SFSymbolsPreview4D4D4D" d="M89.05-49.54C90.67-51.16 93.29-51.16 94.91-49.54L123.35-21.1C124.97-19.48 124.97-16.85 123.35-15.23C121.73-13.61 119.1-13.61 117.48-15.23L91.98-40.73L32.35 18.89C30.73 20.51 28.1 20.51 26.48 18.89C24.86 17.27 24.86 14.64 26.48 13.02L89.05-49.54ZM36.64-55.14C36.64-62.14 42.32-67.82 49.32-67.82C56.33-67.82 62-62.14 62-55.14C62-48.13 56.33-42.45 49.32-42.45C42.32-42.45 36.64-48.13 36.64-55.14ZM49.32-59.52C46.9-59.52 44.94-57.55 44.94-55.14C44.94-52.72 46.9-50.75 49.32-50.75C51.74-50.75 53.7-52.72 53.7-55.14C53.7-57.55 51.74-59.52 49.32-59.52Z"/>
   <path class="hierarchical-1:primary SFSymbolsPreview212121" d="M13.89-75.04C13.89-83.62 20.84-90.57 29.42-90.57L109.04-90.57C117.62-90.57 124.57-83.62 124.57-75.04L124.57 4.58C124.57 13.16 117.62 20.11 109.04 20.11L29.42 20.11C20.84 20.11 13.89 13.16 13.89 4.58L13.89-75.04ZM29.42-82.27C25.43-82.27 22.19-79.03 22.19-75.04L22.19 4.58C22.19 8.57 25.43 11.81 29.42 11.81L109.04 11.81C113.03 11.81 116.27 8.57 116.27 4.58L116.27-75.04C116.27-79.03 113.03-82.27 109.04-82.27L29.42-82.27Z"/>
  </g>
  <g id="Regular-L" transform="matrix(1 0 0 1 1381.76 1556)">
   <path class="hierarchical-0:secondary SFSymbolsPreview4D4D4D" d="M88.86-49.08C90.22-50.45 92.44-50.45 93.8-49.08L122.24-20.64C123.61-19.28 123.61-17.06 122.24-15.69C120.88-14.33 118.66-14.33 117.29-15.69L91.33-41.66L31.24 18.43C29.88 19.8 27.66 19.8 26.29 18.43C24.93 17.07 24.93 14.85 26.29 13.48L88.86-49.08ZM36.64-55.14C36.64-61.78 42.03-67.17 48.67-67.17C55.32-67.17 60.7-61.78 60.7-55.14C60.7-48.49 55.32-43.11 48.67-43.11C42.03-43.11 36.64-48.49 36.64-55.14ZM48.67-60.17C45.9-60.17 43.64-57.92 43.64-55.14C43.64-52.36 45.9-50.11 48.67-50.11C51.45-50.11 53.7-52.36 53.7-55.14C53.7-57.92 51.45-60.17 48.67-60.17Z"/>
   <path class="hierarchical-1:primary SFSymbolsPreview212121" d="M13.89-75.04C13.89-83.26 20.55-89.92 28.77-89.92L108.39-89.92C116.61-89.92 123.27-83.26 123.27-75.04L123.27 4.58C123.27 12.8 116.61 19.46 108.39 19.46L28.77 19.46C20.55 19.46 13.89 12.8 13.89 4.58L13.89-75.04ZM28.77-82.92C24.42-82.92 20.89-79.39 20.89-75.04L20.89 4.58C20.89 8.93 24.42 12.46 28.77 12.46L108.39 12.46C112.74 12.46 116.27 8.93 116.27 4.58L116.27-75.04C116.27-79.39 112.74-82.92 108.39-82.92L28.77-82.92Z"/>
  </g>
  <g id="Light-L" transform="matrix(1 0 0 1 1085.85 1556)">
   <path class="hierarchical-0:secondary SFSymbolsPreview4D4D4D" d="M88.62-48.51C89.68-49.57 91.39-49.57 92.44-48.51L120.88-20.08C121.93-19.02 121.93-17.31 120.88-16.26C119.82-15.2 118.11-15.2 117.06-16.26L90.53-42.79L29.88 17.87C28.82 18.92 27.11 18.92 26.06 17.87C25 16.81 25 15.1 26.06 14.05L88.62-48.51ZM36.64-55.14C36.64-61.34 41.67-66.37 47.87-66.37C54.08-66.37 59.11-61.34 59.11-55.14C59.11-48.93 54.08-43.9 47.87-43.9C41.67-43.9 36.64-48.93 36.64-55.14ZM47.87-60.97C44.65-60.97 42.04-58.36 42.04-55.14C42.04-51.92 44.65-49.3 47.87-49.3C51.1-49.3 53.71-51.92 53.71-55.14C53.71-58.36 51.1-60.97 47.87-60.97Z"/>
   <path class="hierarchical-1:primary SFSymbolsPreview212121" d="M13.89-75.04C13.89-82.82 20.19-89.12 27.97-89.12L107.59-89.12C115.37-89.12 121.67-82.82 121.67-75.04L121.67 4.58C121.67 12.36 115.37 18.66 107.59 18.66L27.97 18.66C20.19 18.66 13.89 12.36 13.89 4.58L13.89-75.04ZM27.97-83.72C23.18-83.72 19.29-79.83 19.29-75.04L19.29 4.58C19.29 9.37 23.18 13.26 27.97 13.26L107.59 13.26C112.38 13.26 116.27 9.37 116.27 4.58L116.27-75.04C116.27-79.83 112.38-83.72 107.59-83.72L27.97-83.72Z"/>
  </g>
  <g id="Thin-L" transform="matrix(1 0 0 1 790.19 1556)">
   <path class="hierarchical-0:secondary SFSymbolsPreview4D4D4D" d="M88.311-47.77C88.955-48.41 90-48.41 90.644-47.77L119.082-19.33C119.726-18.69 119.726-17.64 119.082-17C118.437-16.36 117.393-16.36 116.748-17L89.478-44.27L28.082 17.13C27.437 17.77 26.393 17.77 25.748 17.13C25.104 16.48 25.104 15.44 25.748 14.79L88.311-47.77ZM36.64-55.14C36.64-60.76 41.198-65.32 46.821-65.32C52.444-65.32 57.003-60.76 57.003-55.14C57.003-49.51 52.444-44.95 46.821-44.95C41.198-44.95 36.64-49.51 36.64-55.14ZM46.821-62.02C43.021-62.02 39.94-58.94 39.94-55.14C39.94-51.33 43.021-48.25 46.821-48.25C50.622-48.25 53.703-51.33 53.703-55.14C53.703-58.94 50.622-62.02 46.821-62.02Z"/>
   <path class="hierarchical-1:primary SFSymbolsPreview212121" d="M13.89-75.04C13.89-82.23 19.722-88.07 26.915-88.07L106.54-88.07C113.734-88.07 119.565-82.23 119.565-75.04L119.565 4.58C119.565 11.78 113.734 17.61 106.54 17.61L26.915 17.61C19.722 17.61 13.89 11.78 13.89 4.58L13.89-75.04ZM26.915-84.77C21.544-84.77 17.19-80.41 17.19-75.04L17.19 4.58C17.19 9.95 21.544 14.31 26.915 14.31L106.54 14.31C111.911 14.31 116.265 9.95 116.265 4.58L116.265-75.04C116.265-80.41 111.911-84.77 106.54-84.77L26.915-84.77Z"/>
  </g>
  <g id="Ultralight-L" transform="matrix(1 0 0 1 494.029 1556)">
   <path class="hierarchical-0:secondary SFSymbolsPreview4D4D4D" d="M88.15-47.38C88.579-47.81 89.276-47.81 89.705-47.38L118.143-18.95C118.572-18.52 118.572-17.82 118.143-17.39C117.713-16.96 117.017-16.96 116.587-17.39L88.927-45.05L27.143 16.73C26.713 17.16 26.017 17.16 25.587 16.73C25.157 16.3 25.157 15.61 25.587 15.18L88.15-47.38ZM36.64-55.14C36.64-60.46 40.952-64.77 46.271-64.77C51.59-64.77 55.902-60.46 55.902-55.14C55.902-49.82 51.59-45.51 46.271-45.51C40.952-45.51 36.64-49.82 36.64-55.14ZM46.271-62.57C42.167-62.57 38.84-59.24 38.84-55.14C38.84-51.03 42.167-47.71 46.271-47.71C50.375-47.71 53.702-51.03 53.702-55.14C53.702-59.24 50.375-62.57 46.271-62.57Z"/>
   <path class="hierarchical-1:primary SFSymbolsPreview212121" d="M13.89-75.04C13.89-81.93 19.475-87.52 26.365-87.52L105.99-87.52C112.88-87.52 118.465-81.93 118.465-75.04L118.465 4.58C118.465 11.47 112.88 17.06 105.99 17.06L26.365 17.06C19.475 17.06 13.89 11.47 13.89 4.58L13.89-75.04ZM26.365-85.32C20.69-85.32 16.09-80.72 16.09-75.04L16.09 4.58C16.09 10.26 20.69 14.86 26.365 14.86L105.99 14.86C111.665 14.86 116.265 10.26 116.265 4.58L116.265-75.04C116.265-80.72 111.665-85.32 105.99-85.32L26.365-85.32Z"/>
  </g>
  <g id="Black-M" transform="matrix(1 0 0 1 2872.74 1126)">
   <path class="hierarchical-0:secondary SFSymbolsPreview4D4D4D" d="M73.98-49.17C76.76-51.95 81.25-51.95 84.02-49.17L106.34-26.86C109.11-24.09 109.11-19.59 106.34-16.82C103.56-14.05 99.07-14.05 96.3-16.82L79-34.11L34.94 9.95C32.16 12.73 27.67 12.73 24.9 9.95C22.12 7.18 22.12 2.69 24.9-0.09L73.98-49.17ZM31.74-50.85C31.74-58.47 37.92-64.64 45.54-64.64C53.15-64.64 59.33-58.47 59.33-50.85C59.33-43.23 53.15-37.06 45.54-37.06C37.92-37.06 31.74-43.23 31.74-50.85ZM45.54-50.44C45.76-50.44 45.94-50.63 45.94-50.85C45.94-51.08 45.76-51.26 45.54-51.26C45.31-51.26 45.13-51.08 45.13-50.85C45.13-50.63 45.31-50.44 45.54-50.44Z"/>
   <path class="hierarchical-1:primary SFSymbolsPreview212121" d="M13.89-66.47C13.89-75.32 21.07-82.49 29.92-82.49L92.39-82.49C101.24-82.49 108.42-75.32 108.42-66.47L108.42-3.99C108.42 4.86 101.24 12.03 92.39 12.03L29.92 12.03C21.07 12.03 13.89 4.86 13.89-3.99L13.89-66.47ZM29.92-68.29C28.91-68.29 28.09-67.48 28.09-66.47L28.09-3.99C28.09-2.98 28.91-2.17 29.92-2.17L92.39-2.17C93.4-2.17 94.22-2.98 94.22-3.99L94.22-66.47C94.22-67.48 93.4-68.29 92.39-68.29L29.92-68.29Z"/>
  </g>
  <g id="Heavy-M" transform="matrix(1 0 0 1 2576.88 1126)">
   <path class="hierarchical-0:secondary SFSymbolsPreview4D4D4D" d="M73.73-48.58C76.17-51.02 80.13-51.02 82.57-48.58L104.88-26.26C107.33-23.82 107.33-19.87 104.88-17.42C102.44-14.98 98.49-14.98 96.05-17.42L78.15-35.32L33.48 9.35C31.04 11.79 27.09 11.79 24.65 9.35C22.21 6.91 22.21 2.95 24.65 0.51L73.73-48.58ZM31.74-50.85C31.74-58 37.54-63.79 44.68-63.79C51.83-63.79 57.63-58 57.63-50.85C57.63-43.7 51.83-37.91 44.68-37.91C37.54-37.91 31.74-43.7 31.74-50.85ZM44.68-51.29C44.44-51.29 44.24-51.09 44.24-50.85C44.24-50.6 44.44-50.41 44.68-50.41C44.93-50.41 45.13-50.6 45.13-50.85C45.13-51.09 44.93-51.29 44.68-51.29Z"/>
   <path class="hierarchical-1:primary SFSymbolsPreview212121" d="M13.89-66.47C13.89-74.85 20.69-81.64 29.07-81.64L91.54-81.64C99.92-81.64 106.72-74.85 106.72-66.47L106.72-3.99C106.72 4.39 99.92 11.18 91.54 11.18L29.07 11.18C20.69 11.18 13.89 4.39 13.89-3.99L13.89-66.47ZM29.07-69.14C27.59-69.14 26.39-67.95 26.39-66.47L26.39-3.99C26.39-2.52 27.59-1.32 29.07-1.32L91.54-1.32C93.02-1.32 94.22-2.52 94.22-3.99L94.22-66.47C94.22-67.95 93.02-69.14 91.54-69.14L29.07-69.14Z"/>
  </g>
  <g id="Bold-M" transform="matrix(1 0 0 1 2281.12 1126)">
   <path class="hierarchical-0:secondary SFSymbolsPreview4D4D4D" d="M73.46-47.9C75.53-49.97 78.88-49.97 80.95-47.9L103.27-25.59C105.33-23.52 105.33-20.17 103.27-18.1C101.2-16.03 97.84-16.03 95.77-18.1L77.2-36.66L31.87 8.68C29.8 10.75 26.44 10.75 24.37 8.68C22.3 6.61 22.3 3.25 24.37 1.18L73.46-47.9ZM31.74-50.85C31.74-57.47 37.11-62.84 43.74-62.84C50.36-62.84 55.73-57.47 55.73-50.85C55.73-44.23 50.36-38.86 43.74-38.86C37.11-38.86 31.74-44.23 31.74-50.85ZM43.74-52.24C42.97-52.24 42.34-51.62 42.34-50.85C42.34-50.08 42.97-49.46 43.74-49.46C44.5-49.46 45.13-50.08 45.13-50.85C45.13-51.62 44.5-52.24 43.74-52.24Z"/>
   <path class="hierarchical-1:primary SFSymbolsPreview212121" d="M13.89-66.47C13.89-74.32 20.26-80.69 28.12-80.69L90.59-80.69C98.45-80.69 104.82-74.32 104.82-66.47L104.82-3.99C104.82 3.86 98.45 10.23 90.59 10.23L28.12 10.23C20.26 10.23 13.89 3.86 13.89-3.99L13.89-66.47ZM28.12-70.09C26.11-70.09 24.49-68.47 24.49-66.47L24.49-3.99C24.49-1.99 26.11-0.37 28.12-0.37L90.59-0.37C92.59-0.37 94.22-1.99 94.22-3.99L94.22-66.47C94.22-68.47 92.59-70.09 90.59-70.09L28.12-70.09Z"/>
  </g>
  <g id="Semibold-M" transform="matrix(1 0 0 1 1985.06 1126)">
   <path class="hierarchical-0:secondary SFSymbolsPreview4D4D4D" d="M73.26-47.44C75.08-49.26 78.02-49.26 79.84-47.44L102.15-25.13C103.97-23.31 103.97-20.37 102.15-18.55C100.34-16.74 97.39-16.74 95.58-18.55L76.55-37.58L30.75 8.22C28.94 10.04 25.99 10.04 24.18 8.22C22.36 6.4 22.36 3.46 24.18 1.64L73.26-47.44ZM31.74-50.85C31.74-57.11 36.82-62.19 43.08-62.19C49.35-62.19 54.42-57.11 54.42-50.85C54.42-44.58 49.35-39.5 43.08-39.5C36.82-39.5 31.74-44.58 31.74-50.85ZM43.08-52.89C41.95-52.89 41.04-51.98 41.04-50.85C41.04-49.72 41.95-48.8 43.08-48.8C44.21-48.8 45.12-49.72 45.12-50.85C45.12-51.98 44.21-52.89 43.08-52.89Z"/>
   <path class="hierarchical-1:primary SFSymbolsPreview212121" d="M13.89-66.47C13.89-73.97 19.97-80.04 27.46-80.04L89.94-80.04C97.43-80.04 103.51-73.97 103.51-66.47L103.51-3.99C103.51 3.5 97.43 9.58 89.94 9.58L27.46 9.58C19.97 9.58 13.89 3.5 13.89-3.99L13.89-66.47ZM27.46-70.74C25.1-70.74 23.19-68.83 23.19-66.47L23.19-3.99C23.19-1.63 25.1 0.28 27.46 0.28L89.94 0.28C92.3 0.28 94.21-1.63 94.21-3.99L94.21-66.47C94.21-68.83 92.3-70.74 89.94-70.74L27.46-70.74Z"/>
  </g>
  <g id="Medium-M" transform="matrix(1 0 0 1 1688.85 1126)">
   <path class="hierarchical-0:secondary SFSymbolsPreview4D4D4D" d="M73.12-47.09C74.74-48.71 77.36-48.71 78.99-47.09L101.3-24.78C102.92-23.16 102.92-20.53 101.3-18.91C99.68-17.29 97.05-17.29 95.43-18.91L76.05-38.29L29.9 7.87C28.28 9.49 25.65 9.49 24.03 7.87C22.41 6.25 22.41 3.62 24.03 2L73.12-47.09ZM31.74-50.85C31.74-56.84 36.59-61.69 42.58-61.69C48.57-61.69 53.42-56.84 53.42-50.85C53.42-44.86 48.57-40 42.58-40C36.59-40 31.74-44.86 31.74-50.85ZM42.58-53.39C41.18-53.39 40.04-52.25 40.04-50.85C40.04-49.44 41.18-48.3 42.58-48.3C43.99-48.3 45.12-49.44 45.12-50.85C45.12-52.25 43.99-53.39 42.58-53.39Z"/>
   <path class="hierarchical-1:primary SFSymbolsPreview212121" d="M13.89-66.47C13.89-73.69 19.74-79.54 26.96-79.54L89.44-79.54C96.66-79.54 102.51-73.69 102.51-66.47L102.51-3.99C102.51 3.23 96.66 9.08 89.44 9.08L26.96 9.08C19.74 9.08 13.89 3.23 13.89-3.99L13.89-66.47ZM26.96-71.24C24.33-71.24 22.19-69.11 22.19-66.47L22.19-3.99C22.19-1.36 24.33 0.78 26.96 0.78L89.44 0.78C92.07 0.78 94.21-1.36 94.21-3.99L94.21-66.47C94.21-69.11 92.07-71.24 89.44-71.24L26.96-71.24Z"/>
  </g>
  <g id="Regular-M" transform="matrix(1 0 0 1 1392.79 1126)">
   <path class="hierarchical-0:secondary SFSymbolsPreview4D4D4D" d="M72.92-46.63C74.29-48 76.51-48 77.87-46.63L100.19-24.32C101.55-22.95 101.55-20.74 100.19-19.37C98.82-18 96.6-18 95.24-19.37L75.4-39.21L28.79 7.41C27.42 8.77 25.2 8.77 23.84 7.41C22.47 6.04 22.47 3.82 23.84 2.46L72.92-46.63ZM31.74-50.85C31.74-56.48 36.3-61.04 41.93-61.04C47.56-61.04 52.13-56.48 52.13-50.85C52.13-45.22 47.56-40.66 41.93-40.66C36.3-40.66 31.74-45.22 31.74-50.85ZM41.93-54.04C40.17-54.04 38.74-52.61 38.74-50.85C38.74-49.09 40.17-47.66 41.93-47.66C43.7-47.66 45.13-49.09 45.13-50.85C45.13-52.61 43.7-54.04 41.93-54.04Z"/>
   <path class="hierarchical-1:primary SFSymbolsPreview212121" d="M13.89-66.47C13.89-73.33 19.45-78.89 26.31-78.89L88.79-78.89C95.65-78.89 101.21-73.33 101.21-66.47L101.21-3.99C101.21 2.87 95.65 8.43 88.79 8.43L26.31 8.43C19.45 8.43 13.89 2.87 13.89-3.99L13.89-66.47ZM26.31-71.89C23.32-71.89 20.89-69.47 20.89-66.47L20.89-3.99C20.89-1 23.32 1.43 26.31 1.43L88.79 1.43C91.78 1.43 94.21-1 94.21-3.99L94.21-66.47C94.21-69.47 91.78-71.89 88.79-71.89L26.31-71.89Z"/>
  </g>
  <g id="Light-M" transform="matrix(1 0 0 1 1096.88 1126)">
   <path class="hierarchical-0:secondary SFSymbolsPreview4D4D4D" d="M72.69-46.06C73.75-47.12 75.45-47.12 76.51-46.06L98.82-23.75C99.88-22.7 99.88-20.99 98.82-19.93C97.77-18.88 96.06-18.88 95-19.93L74.6-40.34L27.42 6.84C26.37 7.9 24.66 7.9 23.6 6.84C22.55 5.79 22.55 4.08 23.6 3.02L72.69-46.06ZM31.74-50.85C31.74-56.04 35.94-60.24 41.13-60.24C46.32-60.24 50.53-56.04 50.53-50.85C50.53-45.66 46.32-41.45 41.13-41.45C35.94-41.45 31.74-45.66 31.74-50.85ZM41.13-54.84C38.93-54.84 37.14-53.05 37.14-50.85C37.14-48.64 38.93-46.85 41.13-46.85C43.34-46.85 45.13-48.64 45.13-50.85C45.13-53.05 43.34-54.84 41.13-54.84Z"/>
   <path class="hierarchical-1:primary SFSymbolsPreview212121" d="M13.89-66.47C13.89-72.89 19.09-78.09 25.51-78.09L87.99-78.09C94.41-78.09 99.61-72.89 99.61-66.47L99.61-3.99C99.61 2.43 94.41 7.63 87.99 7.63L25.51 7.63C19.09 7.63 13.89 2.43 13.89-3.99L13.89-66.47ZM25.51-72.69C22.07-72.69 19.29-69.91 19.29-66.47L19.29-3.99C19.29-0.56 22.07 2.23 25.51 2.23L87.99 2.23C91.42 2.23 94.21-0.56 94.21-3.99L94.21-66.47C94.21-69.91 91.42-72.69 87.99-72.69L25.51-72.69Z"/>
  </g>
  <g id="Thin-M" transform="matrix(1 0 0 1 801.215 1126)">
   <path class="hierarchical-0:secondary SFSymbolsPreview4D4D4D" d="M72.386-45.32C73.03-45.97 74.075-45.97 74.719-45.32L97.032-23.01C97.676-22.36 97.676-21.32 97.032-20.68C96.388-20.03 95.343-20.03 94.699-20.68L73.553-41.82L25.632 6.1C24.988 6.74 23.943 6.74 23.299 6.1C22.654 5.46 22.654 4.41 23.299 3.77L72.386-45.32ZM31.739-50.85C31.739-55.46 35.475-59.19 40.083-59.19C44.691-59.19 48.427-55.46 48.427-50.85C48.427-46.24 44.691-42.5 40.083-42.5C35.475-42.5 31.739-46.24 31.739-50.85ZM40.083-55.89C37.297-55.89 35.039-53.63 35.039-50.85C35.039-48.06 37.297-45.8 40.083-45.8C42.868-45.8 45.127-48.06 45.127-50.85C45.127-53.63 42.868-55.89 40.083-55.89Z"/>
   <path class="hierarchical-1:primary SFSymbolsPreview212121" d="M13.89-66.47C13.89-72.31 18.624-77.04 24.464-77.04L86.939-77.04C92.78-77.04 97.514-72.31 97.514-66.47L97.514-3.99C97.514 1.85 92.78 6.58 86.939 6.58L24.464 6.58C18.624 6.58 13.89 1.85 13.89-3.99L13.89-66.47ZM24.464-73.74C20.447-73.74 17.189-70.49 17.189-66.47L17.189-3.99C17.189 0.02 20.447 3.28 24.464 3.28L86.939 3.28C90.957 3.28 94.214 0.02 94.214-3.99L94.214-66.47C94.214-70.49 90.957-73.74 86.939-73.74L24.464-73.74Z"/>
  </g>
  <g id="Ultralight-M" transform="matrix(1 0 0 1 505.054 1126)">
   <path class="hierarchical-0:secondary SFSymbolsPreview4D4D4D" d="M72.224-44.93C72.653-45.36 73.35-45.36 73.779-44.93L96.092-22.62C96.521-22.19 96.521-21.49 96.092-21.06C95.662-20.63 94.966-20.63 94.536-21.06L73.002-42.6L24.692 5.71C24.262 6.14 23.566 6.14 23.136 5.71C22.707 5.28 22.707 4.59 23.136 4.16L72.224-44.93ZM31.74-50.85C31.74-55.16 35.229-58.64 39.534-58.64C43.838-58.64 47.327-55.16 47.327-50.85C47.327-46.55 43.838-43.06 39.534-43.06C35.229-43.06 31.74-46.55 31.74-50.85ZM39.534-56.44C36.444-56.44 33.94-53.94 33.94-50.85C33.94-47.76 36.444-45.26 39.534-45.26C42.623-45.26 45.127-47.76 45.127-50.85C45.127-53.94 42.623-56.44 39.534-56.44Z"/>
   <path class="hierarchical-1:primary SFSymbolsPreview212121" d="M13.89-66.47C13.89-72 18.379-76.49 23.915-76.49L86.39-76.49C91.927-76.49 96.415-72 96.415-66.47L96.415-3.99C96.415 1.54 91.927 6.03 86.39 6.03L23.915 6.03C18.379 6.03 13.89 1.54 13.89-3.99L13.89-66.47ZM23.915-74.29C19.594-74.29 16.09-70.79 16.09-66.47L16.09-3.99C16.09 0.33 19.594 3.83 23.915 3.83L86.39 3.83C90.712 3.83 94.215 0.33 94.215-3.99L94.215-66.47C94.215-70.79 90.712-74.29 86.39-74.29L23.915-74.29Z"/>
  </g>
  <g id="Black-S" transform="matrix(1 0 0 1 2881.41 696)">
   <path class="hierarchical-0:secondary SFSymbolsPreview4D4D4D" d="M61.47-47.354C64.24-50.127 68.74-50.127 71.51-47.354L89.01-29.854C91.78-27.081 91.78-22.586 89.01-19.813C86.24-17.04 81.74-17.04 78.97-19.813L66.49-32.293L33.01 1.187C30.24 3.96 25.74 3.96 22.97 1.187C20.2-1.586 20.2-6.081 22.97-8.854L61.47-47.354ZM27.89-47.584C27.89-54.404 33.42-59.934 40.24-59.934C47.06-59.934 52.59-54.404 52.59-47.584C52.59-40.763 47.06-35.234 40.24-35.234C33.42-35.234 27.89-40.763 27.89-47.584ZM40.24-45.734C41.26-45.734 42.09-46.562 42.09-47.584C42.09-48.605 41.26-49.434 40.24-49.434C39.22-49.434 38.39-48.605 38.39-47.584C38.39-46.562 39.22-45.734 40.24-45.734Z"/>
   <path class="hierarchical-1:primary SFSymbolsPreview212121" d="M13.89-59.834C13.89-67.621 20.2-73.934 27.99-73.934L76.99-73.934C84.78-73.934 91.09-67.621 91.09-59.834L91.09-10.834C91.09-3.046 84.78 3.266 76.99 3.266L27.99 3.266C20.2 3.266 13.89-3.046 13.89-10.834L13.89-59.834ZM28.09-59.734L28.09-10.934L76.89-10.934L76.89-59.734L28.09-59.734Z"/>
  </g>
  <g id="Heavy-S" transform="matrix(1 0 0 1 2585.54 696)">
   <path class="hierarchical-0:secondary SFSymbolsPreview4D4D4D" d="M61.22-46.751C63.66-49.192 67.62-49.192 70.06-46.751L87.56-29.251C90-26.811 90-22.853 87.56-20.413C85.12-17.972 81.16-17.972 78.72-20.413L65.64-33.493L31.56 0.587C29.12 3.028 25.16 3.028 22.72 0.587C20.28-1.853 20.28-5.811 22.72-8.251L61.22-46.751ZM27.89-47.582C27.89-53.933 33.04-59.082 39.39-59.082C45.74-59.082 50.89-53.933 50.89-47.582C50.89-41.231 45.74-36.082 39.39-36.082C33.04-36.082 27.89-41.231 27.89-47.582ZM39.39-46.582C39.94-46.582 40.39-47.03 40.39-47.582C40.39-48.134 39.94-48.582 39.39-48.582C38.84-48.582 38.39-48.134 38.39-47.582C38.39-47.03 38.84-46.582 39.39-46.582Z"/>
   <path class="hierarchical-1:primary SFSymbolsPreview212121" d="M13.89-59.832C13.89-67.15 19.82-73.082 27.14-73.082L76.14-73.082C83.46-73.082 89.39-67.15 89.39-59.832L89.39-10.832C89.39-3.514 83.46 2.418 76.14 2.418L27.14 2.418C19.82 2.418 13.89-3.514 13.89-10.832L13.89-59.832ZM27.14-60.582C26.73-60.582 26.39-60.246 26.39-59.832L26.39-10.832C26.39-10.418 26.73-10.082 27.14-10.082L76.14-10.082C76.56-10.082 76.89-10.418 76.89-10.832L76.89-59.832C76.89-60.246 76.56-60.582 76.14-60.582L27.14-60.582Z"/>
  </g>
  <g id="Bold-S" transform="matrix(1 0 0 1 2289.78 696)">
   <path class="hierarchical-0:secondary SFSymbolsPreview4D4D4D" d="M60.95-45.873C63.02-47.943 66.37-47.943 68.44-45.873L85.94-28.373C88.01-26.304 88.01-22.948 85.94-20.878C83.87-18.808 80.52-18.808 78.45-20.878L64.69-34.63L29.94 0.122C27.87 2.192 24.52 2.192 22.45 0.122C20.38-1.948 20.38-5.304 22.45-7.373L60.95-45.873ZM27.89-47.376C27.89-53.202 32.62-57.926 38.44-57.926C44.27-57.926 48.99-53.202 48.99-47.376C48.99-41.549 44.27-36.826 38.44-36.826C32.62-36.826 27.89-41.549 27.89-47.376ZM38.49-47.371C38.49-47.373 38.49-47.375 38.49-47.376C38.49-47.377 38.49-47.378 38.49-47.38C38.49-47.386 38.49-47.392 38.49-47.397C38.48-47.407 38.48-47.41 38.48-47.411C38.48-47.412 38.47-47.416 38.46-47.42C38.46-47.422 38.45-47.424 38.45-47.425C38.45-47.425 38.44-47.425 38.44-47.426C38.44-47.425 38.44-47.425 38.44-47.425C38.43-47.424 38.43-47.422 38.42-47.42C38.41-47.416 38.41-47.412 38.41-47.411C38.41-47.41 38.4-47.407 38.4-47.397C38.4-47.392 38.4-47.386 38.39-47.38C38.39-47.378 38.39-47.377 38.39-47.376C38.39-47.375 38.39-47.373 38.39-47.371C38.4-47.366 38.4-47.36 38.4-47.355C38.4-47.345 38.41-47.341 38.41-47.34C38.41-47.34 38.41-47.336 38.42-47.332C38.43-47.33 38.43-47.328 38.44-47.327C38.44-47.326 38.44-47.326 38.44-47.326C38.44-47.326 38.45-47.326 38.45-47.327C38.45-47.328 38.46-47.33 38.46-47.332C38.47-47.336 38.48-47.34 38.48-47.34C38.48-47.341 38.48-47.345 38.49-47.355C38.49-47.36 38.49-47.366 38.49-47.371Z"/>
   <path class="hierarchical-1:primary SFSymbolsPreview212121" d="M13.89-59.626C13.89-66.419 19.4-71.926 26.19-71.926L75.19-71.926C81.99-71.926 87.49-66.419 87.49-59.626L87.49-10.626C87.49-3.833 81.99 1.674 75.19 1.674L26.19 1.674C19.4 1.674 13.89-3.833 13.89-10.626L13.89-59.626ZM26.19-61.326C25.25-61.326 24.49-60.565 24.49-59.626L24.49-10.626C24.49-9.687 25.25-8.926 26.19-8.926L75.19-8.926C76.13-8.926 76.89-9.687 76.89-10.626L76.89-59.626C76.89-60.565 76.13-61.326 75.19-61.326L26.19-61.326Z"/>
  </g>
  <g id="Semibold-S" transform="matrix(1 0 0 1 1993.72 696)">
   <path class="hierarchical-0:secondary SFSymbolsPreview4D4D4D" d="M60.75-45.411C62.57-47.227 65.51-47.227 67.33-45.411L84.83-27.911C86.64-26.096 86.64-23.151 84.83-21.335C83.01-19.519 80.07-19.519 78.25-21.335L64.04-35.547L28.83-0.335C27.01 1.481 24.07 1.481 22.25-0.335C20.44-2.151 20.44-5.096 22.25-6.911L60.75-45.411ZM27.89-47.373C27.89-52.841 32.32-57.273 37.79-57.273C43.26-57.273 47.69-52.841 47.69-47.373C47.69-41.906 43.26-37.473 37.79-37.473C32.32-37.473 27.89-41.906 27.89-47.373ZM37.79-47.973C37.46-47.973 37.19-47.705 37.19-47.373C37.19-47.042 37.46-46.773 37.79-46.773C38.12-46.773 38.39-47.042 38.39-47.373C38.39-47.705 38.12-47.973 37.79-47.973Z"/>
   <path class="hierarchical-1:primary SFSymbolsPreview212121" d="M13.89-59.623C13.89-66.058 19.11-71.273 25.54-71.273L74.54-71.273C80.97-71.273 86.19-66.058 86.19-59.623L86.19-10.623C86.19-4.189 80.97 1.027 74.54 1.027L25.54 1.027C19.11 1.027 13.89-4.189 13.89-10.623L13.89-59.623ZM25.54-61.973C24.24-61.973 23.19-60.921 23.19-59.623L23.19-10.623C23.19-9.326 24.24-8.273 25.54-8.273L74.54-8.273C75.84-8.273 76.89-9.326 76.89-10.623L76.89-59.623C76.89-60.921 75.84-61.973 74.54-61.973L25.54-61.973Z"/>
  </g>
  <g id="Medium-S" transform="matrix(1 0 0 1 1697.51 696)">
   <path class="hierarchical-0:secondary SFSymbolsPreview4D4D4D" d="M60.61-45.058C62.23-46.679 64.85-46.679 66.47-45.058L83.97-27.558C85.59-25.937 85.59-23.31 83.97-21.689C82.35-20.068 79.73-20.068 78.11-21.689L63.54-36.254L27.97-0.689C26.35 0.932 23.73 0.932 22.11-0.689C20.48-2.31 20.48-4.937 22.11-6.558L60.61-45.058ZM27.89-47.373C27.89-52.565 32.1-56.773 37.29-56.773C42.48-56.773 46.69-52.565 46.69-47.373C46.69-42.182 42.48-37.973 37.29-37.973C32.1-37.973 27.89-42.182 27.89-47.373ZM37.29-48.473C36.68-48.473 36.19-47.981 36.19-47.373C36.19-46.766 36.68-46.273 37.29-46.273C37.9-46.273 38.39-46.766 38.39-47.373C38.39-47.981 37.9-48.473 37.29-48.473Z"/>
   <path class="hierarchical-1:primary SFSymbolsPreview212121" d="M13.89-59.623C13.89-65.781 18.88-70.773 25.04-70.773L74.04-70.773C80.2-70.773 85.19-65.781 85.19-59.623L85.19-10.623C85.19-4.465 80.2 0.527 74.04 0.527L25.04 0.527C18.88 0.527 13.89-4.465 13.89-10.623L13.89-59.623ZM25.04-62.473C23.47-62.473 22.19-61.197 22.19-59.623L22.19-10.623C22.19-9.049 23.47-7.773 25.04-7.773L74.04-7.773C75.61-7.773 76.89-9.049 76.89-10.623L76.89-59.623C76.89-61.197 75.61-62.473 74.04-62.473L25.04-62.473Z"/>
  </g>
  <g id="Regular-S" transform="matrix(1 0 0 1 1401.45 696)">
   <path class="hierarchical-0:secondary SFSymbolsPreview4D4D4D" d="M60.42-44.6C61.78-45.967 64-45.967 65.36-44.6L82.86-27.1C84.23-25.733 84.23-23.517 82.86-22.15C81.5-20.783 79.28-20.783 77.92-22.15L62.89-37.175L26.86-1.15C25.5 0.217 23.28 0.217 21.92-1.15C20.55-2.517 20.55-4.733 21.92-6.1L60.42-44.6ZM27.89-47.375C27.89-52.207 31.81-56.125 36.64-56.125C41.47-56.125 45.39-52.207 45.39-47.375C45.39-42.543 41.47-38.625 36.64-38.625C31.81-38.625 27.89-42.543 27.89-47.375ZM36.64-49.125C35.67-49.125 34.89-48.341 34.89-47.375C34.89-46.409 35.67-45.625 36.64-45.625C37.61-45.625 38.39-46.409 38.39-47.375C38.39-48.341 37.61-49.125 36.64-49.125Z"/>
   <path class="hierarchical-1:primary SFSymbolsPreview212121" d="M13.89-59.625C13.89-65.424 18.59-70.125 24.39-70.125L73.39-70.125C79.19-70.125 83.89-65.424 83.89-59.625L83.89-10.625C83.89-4.826 79.19-0.125 73.39-0.125L24.39-0.125C18.59-0.125 13.89-4.826 13.89-10.625L13.89-59.625ZM24.39-63.125C22.46-63.125 20.89-61.558 20.89-59.625L20.89-10.625C20.89-8.692 22.46-7.125 24.39-7.125L73.39-7.125C75.32-7.125 76.89-8.692 76.89-10.625L76.89-59.625C76.89-61.558 75.32-63.125 73.39-63.125L24.39-63.125Z"/>
  </g>
  <g id="Light-S" transform="matrix(1 0 0 1 1105.54 696)">
   <path class="hierarchical-0:secondary SFSymbolsPreview4D4D4D" d="M60.18-44.033C61.24-45.088 62.95-45.088 64-44.033L81.5-26.533C82.55-25.479 82.55-23.769 81.5-22.715C80.45-21.661 78.74-21.661 77.68-22.715L62.09-38.306L25.5-1.715C24.45-0.661 22.74-0.661 21.68-1.715C20.63-2.769 20.63-4.479 21.68-5.533L60.18-44.033ZM27.89-47.374C27.89-51.765 31.45-55.324 35.84-55.324C40.23-55.324 43.79-51.765 43.79-47.374C43.79-42.984 40.23-39.424 35.84-39.424C31.45-39.424 27.89-42.984 27.89-47.374ZM35.84-49.924C34.43-49.924 33.29-48.783 33.29-47.374C33.29-45.966 34.43-44.824 35.84-44.824C37.25-44.824 38.39-45.966 38.39-47.374C38.39-48.783 37.25-49.924 35.84-49.924Z"/>
   <path class="hierarchical-1:primary SFSymbolsPreview212121" d="M13.89-59.624C13.89-64.981 18.23-69.324 23.59-69.324L72.59-69.324C77.95-69.324 82.29-64.981 82.29-59.624L82.29-10.624C82.29-5.267 77.95-0.924 72.59-0.924L23.59-0.924C18.23-0.924 13.89-5.267 13.89-10.624L13.89-59.624ZM23.59-63.924C21.22-63.924 19.29-61.999 19.29-59.624L19.29-10.624C19.29-8.249 21.22-6.324 23.59-6.324L72.59-6.324C74.97-6.324 76.89-8.249 76.89-10.624L76.89-59.624C76.89-61.999 74.97-63.924 72.59-63.924L23.59-63.924Z"/>
  </g>
  <g id="Thin-S" transform="matrix(1 0 0 1 809.877 696)">
   <path class="hierarchical-0:secondary SFSymbolsPreview4D4D4D" d="M59.873-43.29C60.517-43.935 61.562-43.935 62.206-43.29L79.706-25.79C80.351-25.146 80.351-24.101 79.706-23.457C79.062-22.812 78.017-22.812 77.373-23.457L61.04-39.79L23.706-2.457C23.062-1.812 22.017-1.812 21.373-2.457C20.729-3.101 20.729-4.146 21.373-4.79L59.873-43.29ZM27.89-47.373C27.89-51.184 30.979-54.273 34.79-54.273C38.6-54.273 41.69-51.184 41.69-47.373C41.69-43.563 38.6-40.473 34.79-40.473C30.979-40.473 27.89-43.563 27.89-47.373ZM34.79-50.973C32.801-50.973 31.19-49.362 31.19-47.373C31.19-45.385 32.801-43.773 34.79-43.773C36.778-43.773 38.39-45.385 38.39-47.373C38.39-49.362 36.778-50.973 34.79-50.973Z"/>
   <path class="hierarchical-1:primary SFSymbolsPreview212121" d="M13.89-59.623C13.89-64.401 17.762-68.273 22.54-68.273L71.54-68.273C76.317-68.273 80.19-64.401 80.19-59.623L80.19-10.623C80.19-5.846 76.317-1.973 71.54-1.973L22.54-1.973C17.762-1.973 13.89-5.846 13.89-10.623L13.89-59.623ZM22.54-64.973C19.585-64.973 17.19-62.578 17.19-59.623L17.19-10.623C17.19-7.669 19.585-5.273 22.54-5.273L71.54-5.273C74.494-5.273 76.89-7.669 76.89-10.623L76.89-59.623C76.89-62.578 74.494-64.973 71.54-64.973L22.54-64.973Z"/>
  </g>
  <g id="Ultralight-S" transform="matrix(1 0 0 1 513.716 696)">
   <path class="hierarchical-0:secondary SFSymbolsPreview4D4D4D" d="M59.713-42.904C60.142-43.334 60.839-43.334 61.268-42.904L78.768-25.404C79.198-24.975 79.198-24.278 78.768-23.849C78.339-23.419 77.642-23.419 77.213-23.849L60.49-40.571L22.768-2.849C22.339-2.419 21.642-2.419 21.213-2.849C20.783-3.278 20.783-3.975 21.213-4.404L59.713-42.904ZM27.89-47.377C27.89-50.884 30.733-53.727 34.24-53.727C37.747-53.727 40.59-50.884 40.59-47.377C40.59-43.87 37.747-41.027 34.24-41.027C30.733-41.027 27.89-43.87 27.89-47.377ZM34.24-51.527C31.948-51.527 30.09-49.669 30.09-47.377C30.09-45.085 31.948-43.227 34.24-43.227C36.532-43.227 38.39-45.085 38.39-47.377C38.39-49.669 36.532-51.527 34.24-51.527Z"/>
   <path class="hierarchical-1:primary SFSymbolsPreview212121" d="M13.89-59.627C13.89-64.1 17.517-67.727 21.99-67.727L70.99-67.727C75.464-67.727 79.09-64.1 79.09-59.627L79.09-10.627C79.09-6.153 75.464-2.527 70.99-2.527L21.99-2.527C17.517-2.527 13.89-6.153 13.89-10.627L13.89-59.627ZM21.99-65.527C18.732-65.527 16.09-62.885 16.09-59.627L16.09-10.627C16.09-7.368 18.732-4.727 21.99-4.727L70.99-4.727C74.249-4.727 76.89-7.368 76.89-10.627L76.89-59.627C76.89-62.885 74.249-65.527 70.99-65.527L21.99-65.527Z"/>
  </g>
 </g>
</svg>
