<?xml version="1.0" encoding="UTF-8"?>
<!--Generator: Apple Native CoreSVG 175-->
<!DOCTYPE svg
PUBLIC "-//W3C//DTD SVG 1.1//EN"
       "http://www.w3.org/Graphics/SVG/1.1/DTD/svg11.dtd">
<svg version="1.1" xmlns="http://www.w3.org/2000/svg" xmlns:xlink="http://www.w3.org/1999/xlink" width="3300" height="2200">
 <!--glyph: "", point size: 100.0, font version: "17.0d12e1", template writer version: "65.1"-->
 <g id="Notes">
  <rect height="2200" id="artboard" style="fill:white;opacity:1" width="3300" x="0" y="0"/>
  <line style="fill:none;stroke:black;opacity:1;stroke-width:0.5;" x1="263" x2="3036" y1="292" y2="292"/>
  <text style="stroke:none;fill:black;font-family:sans-serif;font-size:13;font-weight:bold;" transform="matrix(1 0 0 1 263 322)">Weight/Scale Variations</text>
  <text style="stroke:none;fill:black;font-family:sans-serif;font-size:13;text-anchor:middle;" transform="matrix(1 0 0 1 559.711 322)">Ultralight</text>
  <text style="stroke:none;fill:black;font-family:sans-serif;font-size:13;text-anchor:middle;" transform="matrix(1 0 0 1 856.422 322)">Thin</text>
  <text style="stroke:none;fill:black;font-family:sans-serif;font-size:13;text-anchor:middle;" transform="matrix(1 0 0 1 1153.13 322)">Light</text>
  <text style="stroke:none;fill:black;font-family:sans-serif;font-size:13;text-anchor:middle;" transform="matrix(1 0 0 1 1449.84 322)">Regular</text>
  <text style="stroke:none;fill:black;font-family:sans-serif;font-size:13;text-anchor:middle;" transform="matrix(1 0 0 1 1746.56 322)">Medium</text>
  <text style="stroke:none;fill:black;font-family:sans-serif;font-size:13;text-anchor:middle;" transform="matrix(1 0 0 1 2043.27 322)">Semibold</text>
  <text style="stroke:none;fill:black;font-family:sans-serif;font-size:13;text-anchor:middle;" transform="matrix(1 0 0 1 2339.98 322)">Bold</text>
  <text style="stroke:none;fill:black;font-family:sans-serif;font-size:13;text-anchor:middle;" transform="matrix(1 0 0 1 2636.69 322)">Heavy</text>
  <text style="stroke:none;fill:black;font-family:sans-serif;font-size:13;text-anchor:middle;" transform="matrix(1 0 0 1 2933.4 322)">Black</text>
  <line style="fill:none;stroke:black;opacity:1;stroke-width:0.5;" x1="263" x2="3036" y1="1903" y2="1903"/>
  <g transform="matrix(1 0 0 1 263 1933)">
   <path d="M9.24805 0.830078Q10.8691 0.830078 12.2949 0.214844Q13.7207-0.400391 14.8096-1.49414Q15.8984-2.58789 16.5186-4.01367Q17.1387-5.43945 17.1387-7.05078Q17.1387-8.66211 16.5186-10.0879Q15.8984-11.5137 14.8047-12.6074Q13.7109-13.7012 12.2852-14.3164Q10.8594-14.9316 9.23828-14.9316Q7.62695-14.9316 6.20117-14.3164Q4.77539-13.7012 3.69141-12.6074Q2.60742-11.5137 1.9873-10.0879Q1.36719-8.66211 1.36719-7.05078Q1.36719-5.43945 1.9873-4.01367Q2.60742-2.58789 3.69629-1.49414Q4.78516-0.400391 6.21094 0.214844Q7.63672 0.830078 9.24805 0.830078ZM9.24805-0.654297Q7.91992-0.654297 6.7627-1.14746Q5.60547-1.64062 4.73145-2.51953Q3.85742-3.39844 3.36426-4.56055Q2.87109-5.72266 2.87109-7.05078Q2.87109-8.37891 3.35938-9.54102Q3.84766-10.7031 4.72168-11.582Q5.5957-12.4609 6.75293-12.9541Q7.91016-13.4473 9.23828-13.4473Q10.5762-13.4473 11.7334-12.9541Q12.8906-12.4609 13.7695-11.582Q14.6484-10.7031 15.1465-9.54102Q15.6445-8.37891 15.6445-7.05078Q15.6445-5.72266 15.1514-4.56055Q14.6582-3.39844 13.7842-2.51953Q12.9102-1.64062 11.748-1.14746Q10.5859-0.654297 9.24805-0.654297ZM5.6543-7.05078Q5.6543-6.72852 5.85938-6.52832Q6.06445-6.32812 6.40625-6.32812L8.51562-6.32812L8.51562-4.20898Q8.51562-3.88672 8.71094-3.67676Q8.90625-3.4668 9.23828-3.4668Q9.56055-3.4668 9.77051-3.67676Q9.98047-3.88672 9.98047-4.20898L9.98047-6.32812L12.0898-6.32812Q12.4219-6.32812 12.627-6.52832Q12.832-6.72852 12.832-7.05078Q12.832-7.38281 12.627-7.58789Q12.4219-7.79297 12.0898-7.79297L9.98047-7.79297L9.98047-9.90234Q9.98047-10.2344 9.77051-10.4443Q9.56055-10.6543 9.23828-10.6543Q8.90625-10.6543 8.71094-10.4443Q8.51562-10.2344 8.51562-9.90234L8.51562-7.79297L6.40625-7.79297Q6.06445-7.79297 5.85938-7.58789Q5.6543-7.38281 5.6543-7.05078Z"/>
  </g>
  <g transform="matrix(1 0 0 1 281.867 1933)">
   <path d="M11.709 2.91016Q13.75 2.91016 15.5518 2.12891Q17.3535 1.34766 18.7305-0.0292969Q20.1074-1.40625 20.8887-3.20801Q21.6699-5.00977 21.6699-7.05078Q21.6699-9.0918 20.8887-10.8936Q20.1074-12.6953 18.7305-14.0723Q17.3535-15.4492 15.5469-16.2305Q13.7402-17.0117 11.6992-17.0117Q9.6582-17.0117 7.85645-16.2305Q6.05469-15.4492 4.68262-14.0723Q3.31055-12.6953 2.5293-10.8936Q1.74805-9.0918 1.74805-7.05078Q1.74805-5.00977 2.5293-3.20801Q3.31055-1.40625 4.6875-0.0292969Q6.06445 1.34766 7.86621 2.12891Q9.66797 2.91016 11.709 2.91016ZM11.709 1.25Q9.98047 1.25 8.47656 0.605469Q6.97266-0.0390625 5.83496-1.17676Q4.69727-2.31445 4.05762-3.81836Q3.41797-5.32227 3.41797-7.05078Q3.41797-8.7793 4.05762-10.2832Q4.69727-11.7871 5.83008-12.9297Q6.96289-14.0723 8.4668-14.7119Q9.9707-15.3516 11.6992-15.3516Q13.4277-15.3516 14.9316-14.7119Q16.4355-14.0723 17.5781-12.9297Q18.7207-11.7871 19.3652-10.2832Q20.0098-8.7793 20.0098-7.05078Q20.0098-5.32227 19.3701-3.81836Q18.7305-2.31445 17.5928-1.17676Q16.4551-0.0390625 14.9463 0.605469Q13.4375 1.25 11.709 1.25ZM7.17773-7.05078Q7.17773-6.69922 7.41211-6.47461Q7.64648-6.25 8.01758-6.25L10.8887-6.25L10.8887-3.36914Q10.8887-2.99805 11.1133-2.76855Q11.3379-2.53906 11.6895-2.53906Q12.0605-2.53906 12.29-2.76855Q12.5195-2.99805 12.5195-3.36914L12.5195-6.25L15.4004-6.25Q15.7715-6.25 16.001-6.47461Q16.2305-6.69922 16.2305-7.05078Q16.2305-7.42188 16.001-7.65137Q15.7715-7.88086 15.4004-7.88086L12.5195-7.88086L12.5195-10.752Q12.5195-11.1328 12.29-11.3623Q12.0605-11.5918 11.6895-11.5918Q11.3379-11.5918 11.1133-11.3574Q10.8887-11.123 10.8887-10.752L10.8887-7.88086L8.01758-7.88086Q7.63672-7.88086 7.40723-7.65137Q7.17773-7.42188 7.17773-7.05078Z"/>
  </g>
  <g transform="matrix(1 0 0 1 305.646 1933)">
   <path d="M14.9707 5.66406Q17.0605 5.66406 18.96 5.01465Q20.8594 4.36523 22.4512 3.19336Q24.043 2.02148 25.2197 0.429688Q26.3965-1.16211 27.0459-3.06641Q27.6953-4.9707 27.6953-7.05078Q27.6953-9.14062 27.0459-11.04Q26.3965-12.9395 25.2197-14.5312Q24.043-16.123 22.4512-17.2998Q20.8594-18.4766 18.9551-19.126Q17.0508-19.7754 14.9609-19.7754Q12.8711-19.7754 10.9717-19.126Q9.07227-18.4766 7.48535-17.2998Q5.89844-16.123 4.72168-14.5312Q3.54492-12.9395 2.90039-11.04Q2.25586-9.14062 2.25586-7.05078Q2.25586-4.9707 2.90527-3.06641Q3.55469-1.16211 4.72656 0.429688Q5.89844 2.02148 7.49023 3.19336Q9.08203 4.36523 10.9814 5.01465Q12.8809 5.66406 14.9707 5.66406ZM14.9707 3.84766Q13.1641 3.84766 11.5283 3.2959Q9.89258 2.74414 8.53516 1.74805Q7.17773 0.751953 6.17676-0.610352Q5.17578-1.97266 4.62891-3.6084Q4.08203-5.24414 4.08203-7.05078Q4.08203-8.86719 4.62891-10.5029Q5.17578-12.1387 6.17188-13.501Q7.16797-14.8633 8.52539-15.8594Q9.88281-16.8555 11.5186-17.4023Q13.1543-17.9492 14.9609-17.9492Q16.7773-17.9492 18.4131-17.4023Q20.0488-16.8555 21.4111-15.8594Q22.7734-14.8633 23.7695-13.501Q24.7656-12.1387 25.3174-10.5029Q25.8691-8.86719 25.8691-7.05078Q25.8789-5.24414 25.332-3.6084Q24.7852-1.97266 23.7842-0.610352Q22.7832 0.751953 21.4209 1.74805Q20.0586 2.74414 18.4229 3.2959Q16.7871 3.84766 14.9707 3.84766ZM9.19922-7.05078Q9.19922-6.66992 9.45801-6.4209Q9.7168-6.17188 10.1172-6.17188L14.0625-6.17188L14.0625-2.2168Q14.0625-1.81641 14.3115-1.55762Q14.5605-1.29883 14.9512-1.29883Q15.3516-1.29883 15.6104-1.55273Q15.8691-1.80664 15.8691-2.2168L15.8691-6.17188L19.8242-6.17188Q20.2246-6.17188 20.4785-6.4209Q20.7324-6.66992 20.7324-7.05078Q20.7324-7.46094 20.4785-7.71484Q20.2246-7.96875 19.8242-7.96875L15.8691-7.96875L15.8691-11.9141Q15.8691-12.3242 15.6104-12.583Q15.3516-12.8418 14.9512-12.8418Q14.5605-12.8418 14.3115-12.583Q14.0625-12.3242 14.0625-11.9141L14.0625-7.96875L10.1172-7.96875Q9.70703-7.96875 9.45312-7.71484Q9.19922-7.46094 9.19922-7.05078Z"/>
  </g>
  <text style="stroke:none;fill:black;font-family:sans-serif;font-size:13;font-weight:bold;" transform="matrix(1 0 0 1 263 1953)">Design Variations</text>
  <text style="stroke:none;fill:black;font-family:sans-serif;font-size:13;" transform="matrix(1 0 0 1 263 1971)">Symbols are supported in up to nine weights and three scales.</text>
  <text style="stroke:none;fill:black;font-family:sans-serif;font-size:13;" transform="matrix(1 0 0 1 263 1989)">For optimal layout with text and other symbols, vertically align</text>
  <text style="stroke:none;fill:black;font-family:sans-serif;font-size:13;" transform="matrix(1 0 0 1 263 2007)">symbols with the adjacent text.</text>
  <line style="fill:none;stroke:#00AEEF;stroke-width:0.5;opacity:1.0;" x1="776" x2="776" y1="1919" y2="1933"/>
  <g transform="matrix(1 0 0 1 776 1933)">
   <path d="M3.31055 0.15625Q3.70117 0.15625 3.91602-0.00976562Q4.13086-0.175781 4.26758-0.585938L5.52734-4.0332L11.2891-4.0332L12.5488-0.585938Q12.6855-0.175781 12.9004-0.00976562Q13.1152 0.15625 13.4961 0.15625Q13.8867 0.15625 14.1162-0.0585938Q14.3457-0.273438 14.3457-0.644531Q14.3457-0.869141 14.2383-1.17188L9.6582-13.3691Q9.48242-13.8184 9.17969-14.043Q8.87695-14.2676 8.4082-14.2676Q7.5-14.2676 7.17773-13.3789L2.59766-1.16211Q2.49023-0.859375 2.49023-0.634766Q2.49023-0.263672 2.70996-0.0537109Q2.92969 0.15625 3.31055 0.15625ZM6.00586-5.51758L8.37891-12.0898L8.42773-12.0898L10.8008-5.51758Z"/>
  </g>
  <line style="fill:none;stroke:#00AEEF;stroke-width:0.5;opacity:1.0;" x1="793.197" x2="793.197" y1="1919" y2="1933"/>
  <text style="stroke:none;fill:black;font-family:sans-serif;font-size:13;font-weight:bold;" transform="matrix(1 0 0 1 776 1953)">Margins</text>
  <text style="stroke:none;fill:black;font-family:sans-serif;font-size:13;" transform="matrix(1 0 0 1 776 1971)">Leading and trailing margins on the left and right side of each symbol</text>
  <text style="stroke:none;fill:black;font-family:sans-serif;font-size:13;" transform="matrix(1 0 0 1 776 1989)">can be adjusted by modifying the x-location of the margin guidelines.</text>
  <text style="stroke:none;fill:black;font-family:sans-serif;font-size:13;" transform="matrix(1 0 0 1 776 2007)">Modifications are automatically applied proportionally to all</text>
  <text style="stroke:none;fill:black;font-family:sans-serif;font-size:13;" transform="matrix(1 0 0 1 776 2025)">scales and weights.</text>
  <g transform="matrix(1 0 0 1 1289 1933)">
   <path d="M2.8418 1.86523L4.54102 3.57422Q5.18555 4.22852 5.90332 4.17969Q6.62109 4.13086 7.31445 3.35938L18.0078-8.42773L17.041-9.4043L6.42578 2.27539Q6.16211 2.57812 5.89355 2.61719Q5.625 2.65625 5.27344 2.30469L4.10156 1.14258Q3.75 0.791016 3.79395 0.522461Q3.83789 0.253906 4.14062-0.0195312L15.6152-10.8203L14.6387-11.7871L3.04688-0.898438Q2.30469-0.214844 2.25098 0.498047Q2.19727 1.21094 2.8418 1.86523ZM9.25781-16.3281Q8.94531-16.0254 8.90625-15.6348Q8.86719-15.2441 9.04297-14.9512Q9.21875-14.6777 9.55566-14.541Q9.89258-14.4043 10.3809-14.5215Q11.4746-14.7754 12.5977-14.7314Q13.7207-14.6875 14.7949-13.9844L14.209-12.5293Q13.9551-11.9043 14.0674-11.4404Q14.1797-10.9766 14.5801-10.5664L16.875-8.25195Q17.2363-7.88086 17.5781-7.82227Q17.9199-7.76367 18.3398-7.8418L19.4043-8.03711L20.0684-7.36328L20.0293-6.80664Q20-6.43555 20.1221-6.12305Q20.2441-5.81055 20.6055-5.44922L21.3672-4.70703Q21.7285-4.3457 22.1533-4.33105Q22.5781-4.31641 22.9297-4.66797L25.8398-7.58789Q26.1914-7.93945 26.1816-8.35449Q26.1719-8.76953 25.8105-9.13086L25.0391-9.89258Q24.6875-10.2539 24.3799-10.3857Q24.0723-10.5176 23.7109-10.4883L23.1348-10.4395L22.4902-11.0742L22.7344-12.1973Q22.832-12.6172 22.6953-12.9834Q22.5586-13.3496 22.1191-13.7891L19.9219-15.9766Q18.6719-17.2168 17.2607-17.8369Q15.8496-18.457 14.4189-18.4814Q12.9883-18.5059 11.665-17.959Q10.3418-17.4121 9.25781-16.3281ZM10.752-15.957Q11.6602-16.6211 12.7002-16.9043Q13.7402-17.1875 14.8047-17.085Q15.8691-16.9824 16.8701-16.5137Q17.8711-16.0449 18.7012-15.2051L21.1328-12.793Q21.3086-12.6172 21.3525-12.4512Q21.3965-12.2852 21.3379-12.0312L21.0156-10.5469L22.5195-9.0625L23.5059-9.12109Q23.6914-9.13086 23.7891-9.09668Q23.8867-9.0625 24.0332-8.91602L24.6094-8.33984L22.168-5.89844L21.5918-6.47461Q21.4453-6.62109 21.4062-6.71875Q21.3672-6.81641 21.377-7.01172L21.4453-7.98828L19.9512-9.47266L18.4277-9.21875Q18.1836-9.16992 18.042-9.2041Q17.9004-9.23828 17.7148-9.41406L15.7129-11.416Q15.5176-11.5918 15.4932-11.7529Q15.4688-11.9141 15.5859-12.1875L16.4648-14.2773Q15.293-15.3711 13.8281-15.791Q12.3633-16.2109 10.8398-15.7617Q10.7227-15.7324 10.6885-15.8057Q10.6543-15.8789 10.752-15.957Z"/>
  </g>
  <text style="stroke:none;fill:black;font-family:sans-serif;font-size:13;font-weight:bold;" transform="matrix(1 0 0 1 1289 1953)">Exporting</text>
  <text style="stroke:none;fill:black;font-family:sans-serif;font-size:13;" transform="matrix(1 0 0 1 1289 1971)">Symbols should be outlined when exporting to ensure the</text>
  <text style="stroke:none;fill:black;font-family:sans-serif;font-size:13;" transform="matrix(1 0 0 1 1289 1989)">design is preserved when submitting to Xcode.</text>
  <text id="template-version" style="stroke:none;fill:black;font-family:sans-serif;font-size:13;text-anchor:end;" transform="matrix(1 0 0 1 3036 1933)">Template v.3.0</text>
  <text style="stroke:none;fill:black;font-family:sans-serif;font-size:13;text-anchor:end;" transform="matrix(1 0 0 1 3036 1951)">Requires Xcode 13 or greater</text>
  <text id="descriptive-name" style="stroke:none;fill:black;font-family:sans-serif;font-size:13;text-anchor:end;" transform="matrix(1 0 0 1 3036 1969)">Generated from camera-off</text>
  <text style="stroke:none;fill:black;font-family:sans-serif;font-size:13;text-anchor:end;" transform="matrix(1 0 0 1 3036 1987)">Typeset at 100 points</text>
  <text style="stroke:none;fill:black;font-family:sans-serif;font-size:13;" transform="matrix(1 0 0 1 263 726)">Small</text>
  <text style="stroke:none;fill:black;font-family:sans-serif;font-size:13;" transform="matrix(1 0 0 1 263 1156)">Medium</text>
  <text style="stroke:none;fill:black;font-family:sans-serif;font-size:13;" transform="matrix(1 0 0 1 263 1586)">Large</text>
 </g>
 <g id="Guides">
  <g id="H-reference" style="fill:#27AAE1;stroke:none;" transform="matrix(1 0 0 1 339 696)">
   <path d="M0.976562 0L3.66211 0L29.3457-67.1387L30.0293-67.1387L30.0293-70.459L28.125-70.459ZM11.6699-24.4629L46.9727-24.4629L46.2402-26.709L12.4512-26.709ZM55.127 0L57.7637 0L30.6152-70.459L29.4434-70.459L29.4434-67.1387Z"/>
  </g>
  <line id="Baseline-S" style="fill:none;stroke:#27AAE1;opacity:1;stroke-width:0.5;" x1="263" x2="3036" y1="696" y2="696"/>
  <line id="Capline-S" style="fill:none;stroke:#27AAE1;opacity:1;stroke-width:0.5;" x1="263" x2="3036" y1="625.541" y2="625.541"/>
  <g id="H-reference" style="fill:#27AAE1;stroke:none;" transform="matrix(1 0 0 1 339 1126)">
   <path d="M0.976562 0L3.66211 0L29.3457-67.1387L30.0293-67.1387L30.0293-70.459L28.125-70.459ZM11.6699-24.4629L46.9727-24.4629L46.2402-26.709L12.4512-26.709ZM55.127 0L57.7637 0L30.6152-70.459L29.4434-70.459L29.4434-67.1387Z"/>
  </g>
  <line id="Baseline-M" style="fill:none;stroke:#27AAE1;opacity:1;stroke-width:0.5;" x1="263" x2="3036" y1="1126" y2="1126"/>
  <line id="Capline-M" style="fill:none;stroke:#27AAE1;opacity:1;stroke-width:0.5;" x1="263" x2="3036" y1="1055.54" y2="1055.54"/>
  <g id="H-reference" style="fill:#27AAE1;stroke:none;" transform="matrix(1 0 0 1 339 1556)">
   <path d="M0.976562 0L3.66211 0L29.3457-67.1387L30.0293-67.1387L30.0293-70.459L28.125-70.459ZM11.6699-24.4629L46.9727-24.4629L46.2402-26.709L12.4512-26.709ZM55.127 0L57.7637 0L30.6152-70.459L29.4434-70.459L29.4434-67.1387Z"/>
  </g>
  <line id="Baseline-L" style="fill:none;stroke:#27AAE1;opacity:1;stroke-width:0.5;" x1="263" x2="3036" y1="1556" y2="1556"/>
  <line id="Capline-L" style="fill:none;stroke:#27AAE1;opacity:1;stroke-width:0.5;" x1="263" x2="3036" y1="1485.54" y2="1485.54"/>
  <line id="left-margin-Regular-M" style="fill:none;stroke:#00AEEF;stroke-width:0.5;opacity:1.0;" x1="1393.13" x2="1393.13" y1="1030.78" y2="1150.12"/>
  <line id="right-margin-Regular-M" style="fill:none;stroke:#00AEEF;stroke-width:0.5;opacity:1.0;" x1="1506.56" x2="1506.56" y1="1030.78" y2="1150.12"/>
 </g>
 <g id="Symbols">
  <g id="Black-L" transform="matrix(1 0 0 1 2859.62 1556)">
   <path d="M16.21-104.38L16.4-104.19L44.63-75.9702L44.84-75.7602L83.34-37.2502L97.62-22.9802L97.79-22.8102L141.52 20.9298C144.29 23.6998 144.29 28.1998 141.52 30.9698C138.81 33.6798 134.46 33.7398 131.67 31.1498L131.48 30.9698L122.19 21.6798L22.75 21.6798C17.86 21.6798 13.15 19.7298 9.68 16.2598C6.32 12.8898 4.4 8.36972 4.29 3.62972L4.28 3.19972L4.28-59.3602C4.28-64.2602 6.23-68.9602 9.68-72.4102C13.04-75.7802 17.57-77.7202 22.32-77.8402L22.67-77.8402L6.36-94.1502C3.59-96.9202 3.59-101.42 6.36-104.19C9.07-106.9 13.42-106.96 16.21-104.38ZM36.87-63.6402L22.75-63.6402C21.78-63.6402 20.85-63.3102 20.09-62.7002L19.91-62.5502L19.73-62.3802C18.99-61.6402 18.55-60.6502 18.49-59.6002L18.48-59.3602L18.48 3.19972C18.48 4.33972 18.93 5.42972 19.73 6.22972C20.47 6.96972 21.47 7.40972 22.51 7.46972L22.75 7.47972L107.99 7.47972L92.77-7.74028L92.25-7.32028C91.2-6.50028 90.1-5.75028 88.94-5.07028C85.17-2.85028 80.94-1.49028 76.59-1.08028C72.23-0.680285 67.82-1.24028 63.68-2.72028C59.55-4.22028 55.81-6.60028 52.71-9.70028C49.62-12.7902 47.24-16.5402 45.74-20.6802C44.26-24.8002 43.69-29.2102 44.1-33.5702C44.51-37.9302 45.87-42.1502 48.1-45.9502C48.89-47.2902 49.78-48.5602 50.76-49.7502L36.87-63.6402ZM91-94.9002C93.28-94.9002 95.42-93.8002 96.75-91.9602L96.91-91.7402L106.18-77.8402L125.13-77.8402C129.89-77.8402 134.46-76.0002 137.88-72.7202L138.19-72.4202C141.55-69.0602 143.48-64.5402 143.6-59.7902L143.6-59.3602L143.6-6.24028C143.6-2.32028 140.42 0.859718 136.5 0.859718C132.66 0.859718 129.53-2.19028 129.4-6.00028L129.4-6.24028L129.4-59.3602C129.4-60.4902 128.95-61.5802 128.14-62.3902C127.4-63.1302 126.41-63.5702 125.37-63.6302L125.13-63.6402L102.38-63.6402C100.1-63.6402 97.96-64.7402 96.63-66.5802L96.47-66.8002L87.2-80.7002L56.88-80.7002C53.04-80.7002 49.91-83.7502 49.78-87.5602L49.78-87.8002C49.78-91.6402 52.83-94.7702 56.64-94.9002L56.88-94.9002L91-94.9002ZM60.89-39.6202L60.82-39.5202C60.65-39.2702 60.49-39.0102 60.33-38.7502C59.17-36.7602 58.45-34.5402 58.24-32.2502C58.03-29.9602 58.32-27.6502 59.09-25.5002C59.88-23.3302 61.13-21.3602 62.75-19.7402C64.38-18.1102 66.34-16.8602 68.5-16.0802C70.67-15.3002 72.98-15.0102 75.27-15.2202C77.55-15.4302 79.77-16.1502 81.75-17.3102C82.02-17.4702 82.28-17.6302 82.53-17.8002L82.64-17.8702L60.89-39.6202Z"/>
  </g>
  <g id="Heavy-L" transform="matrix(1 0 0 1 2563.75 1556)">
   <path d="M14.76-103.608L14.95-103.428L140.07 21.6924C142.51 24.1324 142.51 28.0924 140.07 30.5324C137.69 32.9124 133.87 32.9724 131.42 30.7124L131.23 30.5324L121.69 20.9924L21.9 20.9924C17.37 20.9924 13.02 19.2424 9.74 16.1324L9.44 15.8324C6.23 12.6224 4.39 8.31232 4.28 3.79232L4.28 3.36232L4.28-59.1976C4.28-63.8776 6.13-68.3676 9.43-71.6476C12.63-74.8676 16.95-76.7076 21.47-76.8176L21.9-76.8276L23.87-76.8276L6.11-94.5876C3.67-97.0276 3.67-100.988 6.11-103.428C8.49-105.808 12.31-105.868 14.76-103.608ZM36.37-64.3276L21.9-64.3276C20.71-64.3276 19.57-63.9176 18.65-63.1576L18.46-62.9876L18.27-62.8076C17.37-61.9176 16.85-60.7276 16.79-59.4476L16.78-59.1976L16.78 3.36232C16.78 4.73232 17.32 6.03232 18.28 6.99232C19.18 7.89232 20.38 8.42232 21.65 8.48232L21.9 8.49232L109.19 8.49232L91.96-8.73768L91.74-8.53768C90.77-7.71768 89.75-6.95768 88.68-6.26768L88.14-5.92768L87.66-5.63768C83.99-3.47768 79.89-2.15768 75.65-1.76768C71.41-1.36767 67.14-1.91768 63.11-3.35768C59.09-4.81768 55.45-7.13768 52.46-10.1377C49.45-13.1476 47.13-16.7976 45.7-20.7876C44.24-24.7876 43.7-29.0676 44.1-33.3076C44.46-37.3676 45.69-41.2976 47.71-44.8876L48.01-45.4076L48.32-45.9176C48.93-46.9076 49.6-47.8576 50.33-48.7676L50.78-49.3076L51.06-49.6376L36.37-64.3276ZM90.15-93.8876C92.15-93.8876 94.03-92.9276 95.2-91.3176L95.35-91.1076L104.87-76.8276L124.28-76.8276C128.81-76.8276 133.18-75.0776 136.44-71.9576L136.74-71.6576C139.94-68.4476 141.79-64.1376 141.89-59.6176L141.9-59.1976L141.9-6.07768C141.9-2.62768 139.1 0.172328 135.65 0.172328C132.27 0.172328 129.52-2.49768 129.4-5.84768L129.4-6.07768L129.4-59.1976C129.4-60.5576 128.86-61.8576 127.89-62.8276C127-63.7276 125.79-64.2576 124.53-64.3176L124.28-64.3276L101.53-64.3276C99.53-64.3276 97.65-65.2876 96.48-66.8976L96.33-67.1076L86.8-81.3876L56.03-81.3876C52.65-81.3876 49.9-84.0576 49.78-87.4076L49.78-87.6376C49.78-91.0076 52.46-93.7576 55.8-93.8776L56.03-93.8876L90.15-93.8876ZM59.93-40.7676L59.74-40.5176C59.56-40.2776 59.39-40.0276 59.23-39.7776L58.98-39.3976L58.74-38.9976C57.51-36.9176 56.76-34.5876 56.54-32.1676C56.32-29.7376 56.63-27.3076 57.45-25.0376C58.27-22.7676 59.59-20.6876 61.31-18.9676C63.01-17.2576 65.08-15.9476 67.35-15.1176C69.65-14.2976 72.08-13.9876 74.49-14.2076C76.9-14.4376 79.24-15.1876 81.32-16.4076C81.72-16.6376 82.1-16.8876 82.47-17.1476L82.84-17.4176L83.09-17.6076L59.93-40.7676Z"/>
  </g>
  <g id="Bold-L" transform="matrix(1 0 0 1 2267.99 1556)">
   <path d="M13.1525-102.744L13.3325-102.574L41.6025-74.295L41.7725-74.145L62.9325-52.985L62.9925-52.915L63.0725-52.835L94.5525-21.365L94.6325-21.275L138.462 22.545C140.532 24.615 140.532 27.975 138.462 30.045C136.453 32.055 133.222 32.115 131.142 30.215L130.962 30.045L121.142 20.225L20.9625 20.225C16.6825 20.225 12.5725 18.575 9.4525 15.625L9.1525 15.335C6.1325 12.295 4.3925 8.22504 4.2825 3.95504L4.2825 3.54504L4.2825-59.015C4.2825-63.435 6.0425-67.675 9.1625-70.805C12.2025-73.835 16.2725-75.585 20.5525-75.685L20.9625-75.695L25.2225-75.695L5.8325-95.075C3.7625-97.145 3.7625-100.505 5.8325-102.574C7.8425-104.584 11.0725-104.644 13.1525-102.744ZM35.8225-65.095L20.9625-65.095C19.5425-65.095 18.1725-64.595 17.0825-63.695L16.8625-63.505L16.6625-63.305C15.5925-62.235 14.9625-60.805 14.8925-59.295L14.8825-59.015L14.8825 3.54504C14.8825 5.15504 15.5225 6.70504 16.6525 7.83504C17.7325 8.91504 19.1725 9.54502 20.6825 9.61502L20.9625 9.62502L110.542 9.62502L91.0625-9.85496L90.7625-9.58496C89.6725-8.60496 88.5025-7.70496 87.2625-6.90496L86.7225-6.56496L86.2425-6.27496C82.6925-4.18496 78.7225-2.90496 74.6225-2.52496C70.5225-2.14496 66.4025-2.67496 62.4925-4.07496C58.6125-5.48496 55.0925-7.72496 52.2025-10.615C49.2825-13.525 47.0425-17.055 45.6525-20.925C44.2425-24.805 43.7125-28.945 44.0925-33.055C44.4625-36.975 45.6425-40.775 47.6025-44.235L47.8825-44.735L48.1825-45.235C48.9225-46.425 49.7525-47.555 50.6525-48.625L51.1125-49.155L51.4225-49.495L35.8225-65.095ZM89.2125-92.755C90.9025-92.755 92.4925-91.945 93.4825-90.595L93.6225-90.395L103.422-75.695L123.332-75.695C127.622-75.695 131.732-74.045 134.832-71.095L135.132-70.805C138.162-67.775 139.902-63.705 140.002-59.425L140.012-59.015L140.012-5.89496C140.012-2.96496 137.642-0.594963 134.712-0.594963C131.862-0.594963 129.532-2.85496 129.412-5.67496L129.412-5.89496L129.412-59.015C129.412-60.625 128.772-62.165 127.632-63.305C126.552-64.385 125.122-65.015 123.612-65.085L123.332-65.095L100.582-65.095C98.8925-65.095 97.3025-65.905 96.3125-67.255L96.1725-67.455L86.3725-82.155L55.0825-82.155C52.2325-82.155 49.9025-84.415 49.7825-87.235L49.7825-87.455C49.7825-90.305 52.0425-92.635 54.8625-92.755L55.0825-92.755L89.2125-92.755ZM58.9225-41.985L58.6325-41.655C58.2225-41.155 57.8425-40.645 57.4925-40.115L57.2325-39.715L56.9825-39.305C55.6825-37.095 54.8825-34.625 54.6525-32.075C54.4125-29.525 54.7425-26.945 55.6225-24.525C56.4925-22.115 57.8725-19.925 59.7025-18.115C61.4925-16.305 63.6825-14.915 66.0925-14.045C68.5225-13.175 71.0925-12.845 73.6425-13.085C76.1925-13.315 78.6625-14.115 80.8725-15.405C81.5325-15.805 82.1625-16.235 82.7725-16.705L83.2125-17.065L83.5525-17.365L58.9225-41.985Z"/>
  </g>
  <g id="Semibold-L" transform="matrix(1 0 0 1 1971.93 1556)">
   <path d="M12.04-102.14L12.22-101.98L40.48-73.72L40.66-73.55L137.34 23.14C139.15 24.96 139.15 27.9 137.34 29.72C135.58 31.48 132.76 31.53 130.94 29.88L130.76 29.72L120.75 19.71L20.3 19.71C16.06 19.71 11.97 18.02 8.96 15.01C6.06 12.1 4.39 8.18992 4.29 4.08992L4.28 3.67992L4.28-58.88C4.28-63.13 5.97-67.2 8.96-70.2C11.87-73.12 15.79-74.8 19.89-74.9L20.3-74.91L26.13-74.91L5.64-95.4C3.83-97.22 3.83-100.16 5.64-101.98C7.4-103.74 10.22-103.79 12.04-102.14ZM35.43-65.61L20.3-65.61C18.72-65.61 17.19-65.05 15.98-64.03L15.76-63.84L15.55-63.63C14.36-62.44 13.66-60.85 13.59-59.18L13.58-58.88L13.58 3.67992C13.58 5.46992 14.29 7.17992 15.55 8.43992C16.74 9.62996 18.33 10.33 20 10.4L20.3 10.41L111.45 10.41L90.41-10.63L89.95-10.1901C88.52-8.87008 86.94-7.70008 85.25-6.70008C81.78-4.66008 77.91-3.41008 73.9-3.04008C69.91-2.67008 65.86-3.18008 62.07-4.55008C58.27-5.92008 54.84-8.10008 51.99-10.95C49.16-13.79 46.97-17.23 45.59-21.02C44.23-24.81 43.72-28.86 44.09-32.86C44.46-36.87 45.71-40.74 47.75-44.21C48.85-46.09 50.17-47.82 51.67-49.37L35.43-65.61ZM88.55-91.97C90.02-91.97 91.4-91.27 92.28-90.1L92.42-89.9L102.42-74.91L122.68-74.91C126.79-74.91 130.75-73.32 133.72-70.49L134.01-70.21C136.91-67.3 138.59-63.39 138.69-59.29L138.7-58.88L138.7-5.76008C138.7-3.19008 136.62-1.11008 134.05-1.11008C131.55-1.11008 129.52-3.08008 129.4-5.55008L129.4-5.76008L129.4-58.88C129.4-60.66 128.69-62.37 127.42-63.64C126.24-64.83 124.65-65.53 122.98-65.6L122.68-65.61L99.93-65.61C98.46-65.61 97.08-66.31 96.2-67.48L96.06-67.68L86.06-82.67L54.43-82.67C51.93-82.67 49.9-84.64 49.78-87.11L49.78-87.32C49.78-89.82 51.75-91.85 54.22-91.96L54.43-91.97L88.55-91.97ZM58.25-42.79L58.14-42.68C57.23-41.71 56.44-40.65 55.77-39.51C54.42-37.21 53.6-34.65 53.35-32C53.1-29.35 53.44-26.68 54.34-24.19C55.25-21.67 56.7-19.4 58.57-17.53C60.45-15.64 62.72-14.2 65.22-13.29C67.73-12.39 70.4-12.05 73.04-12.3C75.69-12.55 78.25-13.37 80.54-14.71C81.69-15.39 82.76-16.19 83.72-17.1L83.84-17.21L58.25-42.79Z"/>
  </g>
  <g id="Medium-L" transform="matrix(1 0 0 1 1675.72 1556)">
   <path d="M11.2025-101.684L11.3625-101.524L39.6325-73.2648L39.8025-73.0948L136.482 23.5952C138.112 25.2152 138.112 27.8352 136.482 29.4652C134.922 31.0252 132.412 31.0752 130.782 29.6152L130.622 29.4652L120.462 19.3052L19.8025 19.3052C15.6925 19.3052 11.7325 17.6652 8.8225 14.7552C6.0125 11.9252 4.3925 8.14522 4.2925 4.17522L4.2825 3.77522L4.2825-58.7848C4.2825-62.9048 5.9225-66.8448 8.8225-69.7548C11.6325-72.5748 15.4325-74.2048 19.4025-74.3048L19.8025-74.3148L26.8425-74.3148L5.5025-95.6548C3.8725-97.2848 3.8725-99.9048 5.5025-101.524C7.0625-103.094 9.5725-103.144 11.2025-101.684ZM35.1425-66.0148L19.8025-66.0148C18.1025-66.0148 16.4525-65.4048 15.1525-64.3148L14.9125-64.0948L14.6925-63.8848C13.4125-62.6048 12.6625-60.8948 12.5925-59.0848L12.5825-58.7848L12.5825 3.77522C12.5825 5.69522 13.3425 7.53522 14.6925 8.89522C15.9725 10.1752 17.7025 10.9252 19.5025 10.9952L19.8025 11.0052L112.162 11.0052L89.9225-11.2348L89.4825-10.8048C87.9825-9.36478 86.3125-8.10478 84.5025-7.03478C81.0925-5.03478 77.2925-3.80478 73.3625-3.44478C69.4325-3.07478 65.4625-3.58478 61.7425-4.92478C58.0125-6.26478 54.6425-8.41478 51.8525-11.2048C49.0625-13.9948 46.9225-17.3748 45.5725-21.0948C44.2325-24.8148 43.7225-28.7848 44.0925-32.7148C44.4525-36.6548 45.6825-40.4548 47.6825-43.8648C48.8425-45.8448 50.2525-47.6648 51.8825-49.2748L35.1425-66.0148ZM88.0525-91.3748C89.3625-91.3748 90.5925-90.7548 91.3725-89.7148L91.5025-89.5248L101.652-74.3148L122.182-74.3148C126.162-74.3148 130.002-72.7748 132.872-70.0348L133.152-69.7548C135.972-66.9448 137.592-63.1548 137.692-59.1848L137.702-58.7848L137.702-5.66478C137.702-3.37478 135.842-1.51478 133.552-1.51478C131.332-1.51478 129.512-3.26478 129.412-5.45478L129.402-5.66478L129.402-58.7848C129.402-60.7048 128.642-62.5348 127.282-63.8948C126.002-65.1748 124.282-65.9348 122.482-66.0048L122.182-66.0148L99.4325-66.0148C98.1225-66.0148 96.8925-66.6348 96.1125-67.6748L95.9825-67.8648L85.8325-83.0748L53.9325-83.0748C51.7125-83.0748 49.8925-84.8248 49.7925-87.0148L49.7825-87.2248C49.7825-89.4448 51.5325-91.2648 53.7225-91.3648L53.9325-91.3748L88.0525-91.3748ZM57.7425-43.4148L57.4425-43.0948C56.4425-42.0548 55.5725-40.9048 54.8425-39.6648C53.4625-37.3048 52.6125-34.6748 52.3525-31.9448C52.1025-29.2348 52.4525-26.4848 53.3725-23.9248C54.3125-21.3448 55.7925-19.0048 57.7125-17.0748C59.6525-15.1448 61.9825-13.6648 64.5625-12.7248C67.1325-11.8048 69.8825-11.4548 72.5925-11.7048C75.3125-11.9548 77.9425-12.8048 80.2925-14.1848C81.5425-14.9248 82.7025-15.8048 83.7425-16.8048L84.0525-17.1048L57.7425-43.4148Z"/>
  </g>
  <g id="Regular-L" transform="matrix(1 0 0 1 1379.66 1556)">
   <path d="M10.11-101.092L10.25-100.942L38.54-72.662L38.69-72.512L135.37 24.178C136.74 25.538 136.74 27.758 135.37 29.128C134.06 30.438 131.95 30.488 130.57 29.268L130.43 29.128L120.08 18.778L19.15 18.778C15.21 18.778 11.42 17.208 8.63 14.418C5.94 11.718 4.39 8.08796 4.29 4.28796L4.28 3.89796L4.28-58.662C4.28-62.602 5.85-66.392 8.63-69.172C11.32-71.872 14.95-73.432 18.76-73.532L19.15-73.542L27.76-73.542L5.31-95.992C3.94-97.362 3.94-99.582 5.31-100.942C6.62-102.262 8.73-102.312 10.11-101.092ZM34.76-66.542L19.15-66.542C17.27-66.542 15.46-65.862 14.04-64.652L13.81-64.442L13.58-64.222C12.18-62.822 11.36-60.952 11.29-58.972L11.28-58.662L11.28 3.89796C11.28 5.98796 12.11 7.98796 13.58 9.47796C14.98 10.878 16.87 11.698 18.84 11.768L19.15 11.778L113.08 11.778L89.26-12.042L88.84-11.602C87.26-10.012 85.47-8.62204 83.52-7.47204C80.2-5.52204 76.48-4.32204 72.65-3.96204C68.82-3.61204 64.94-4.10204 61.31-5.41204C57.67-6.72204 54.39-8.81204 51.66-11.542C48.94-14.262 46.85-17.562 45.53-21.192C44.22-24.822 43.73-28.702 44.09-32.532C44.44-36.372 45.64-40.092 47.59-43.412C48.84-45.532 50.37-47.462 52.15-49.152L34.76-66.542ZM87.4-90.602C88.5-90.602 89.53-90.092 90.18-89.222L90.31-89.042L100.65-73.542L121.53-73.542C125.34-73.542 129.01-72.072 131.76-69.452L132.04-69.172C134.74-66.482 136.29-62.862 136.39-59.052L136.4-58.662L136.4-5.54204C136.4-3.61204 134.83-2.04204 132.9-2.04204C131.03-2.04204 129.5-3.50204 129.41-5.35204L129.4-5.54204L129.4-58.662C129.4-60.752 128.57-62.752 127.09-64.232C125.69-65.632 123.81-66.452 121.84-66.532L121.53-66.542L98.78-66.542C97.68-66.542 96.65-67.052 96-67.922L95.87-68.102L85.53-83.602L53.28-83.602C51.41-83.602 49.88-85.062 49.79-86.912L49.78-87.102C49.78-88.972 51.24-90.492 53.09-90.592L53.28-90.602L87.4-90.602ZM57.1-44.202L57.02-44.122C55.69-42.872 54.55-41.442 53.63-39.872C52.2-37.432 51.32-34.702 51.05-31.882C50.79-29.072 51.16-26.232 52.11-23.572C53.08-20.902 54.61-18.482 56.6-16.492C58.61-14.492 61.02-12.962 63.69-11.992C66.35-11.032 69.19-10.672 72-10.932C74.81-11.202 77.54-12.082 79.97-13.502C81.55-14.442 82.99-15.592 84.24-16.912L84.31-16.992L57.1-44.202Z"/>
  </g>
  <g id="Light-L" transform="matrix(1 0 0 1 1083.75 1556)">
   <path d="M8.75-100.35L8.89-100.22L37.2-71.9097L37.33-71.7897L134.01 24.9003C135.06 25.9503 135.06 27.6603 134.01 28.7203C133 29.7303 131.39 29.7703 130.33 28.8503L130.19 28.7203L119.61 18.1403L18.35 18.1403C14.62 18.1403 11.04 16.6503 8.4 14.0103C5.85 11.4603 4.38 8.04028 4.29 4.45028L4.28 4.06028L4.28-58.4997C4.28-62.2297 5.76-65.8097 8.4-68.4397C10.94-70.9997 14.37-72.4797 17.96-72.5697L18.35-72.5797L28.89-72.5797L5.07-96.3997C4.02-97.4597 4.02-99.1697 5.07-100.22C6.08-101.23 7.69-101.27 8.75-100.35ZM34.29-67.1797L18.35-67.1797C16.27-67.1797 14.26-66.4297 12.69-65.0697L12.44-64.8497L12.22-64.6297C10.67-63.0797 9.76-60.9997 9.69-58.8097L9.68-58.4997L9.68 4.06028C9.68 6.36028 10.59 8.57028 12.22 10.2003C13.77 11.7503 15.86 12.6603 18.04 12.7303L18.35 12.7403L114.21 12.7403L88.44-13.0397L88.06-12.6197C86.39-10.8197 84.45-9.25972 82.32-7.99972C79.09-6.10972 75.49-4.94972 71.77-4.59972C68.06-4.25972 64.3-4.72972 60.78-5.99972C57.26-7.27972 54.07-9.29972 51.42-11.9497C48.79-14.5797 46.76-17.7797 45.48-21.3097C44.21-24.8197 43.74-28.5797 44.08-32.2997C44.43-36.0197 45.59-39.6197 47.48-42.8497C48.83-45.1397 50.52-47.1997 52.51-48.9597L34.29-67.1797ZM86.6-89.6397C87.44-89.6397 88.22-89.2497 88.73-88.5897L88.85-88.4397L99.42-72.5797L120.73-72.5797C124.33-72.5797 127.8-71.1897 130.4-68.7197L130.68-68.4497C133.23-65.8997 134.7-62.4797 134.79-58.8897L134.8-58.4997L134.8-5.37972C134.8-3.88972 133.59-2.67972 132.1-2.67972C130.67-2.67972 129.49-3.79972 129.41-5.20972L129.4-5.37972L129.4-58.4997C129.4-60.7997 128.49-63.0097 126.86-64.6397C125.31-66.1897 123.23-67.0997 121.04-67.1697L120.73-67.1797L97.98-67.1797C97.14-67.1797 96.36-67.5697 95.85-68.2297L95.73-68.3797L85.15-84.2397L52.48-84.2397C51.05-84.2397 49.87-85.3597 49.79-86.7697L49.78-86.9397C49.78-88.3697 50.9-89.5497 52.31-89.6297L52.48-89.6397L86.6-89.6397ZM56.33-45.1397L56.05-44.8897C54.51-43.5097 53.19-41.8997 52.14-40.1097C50.65-37.5697 49.73-34.7297 49.46-31.7997C49.19-28.8697 49.56-25.9097 50.56-23.1397C51.57-20.3597 53.17-17.8397 55.24-15.7697C57.33-13.6797 59.84-12.0897 62.61-11.0797C65.39-10.0797 68.35-9.70972 71.27-9.97972C74.2-10.2497 77.04-11.1697 79.58-12.6597C81.38-13.7197 82.99-15.0497 84.37-16.5897L84.61-16.8597L56.33-45.1397Z"/>
  </g>
  <g id="Thin-L" transform="matrix(1 0 0 1 788.085 1556)">
   <path d="M6.979-99.3818L7.097-99.2818L35.466-70.9118L35.534-70.8518L88.314-18.0718L88.359-18.0218L132.221 25.8382C132.865 26.4882 132.865 27.5282 132.221 28.1782C131.614 28.7782 130.653 28.8182 130.005 28.2782L129.887 28.1782L119.001 17.2882L17.304 17.2882C13.852 17.2882 10.539 15.9182 8.092 13.4782C5.737 11.1082 4.379 7.94822 4.285 4.62822L4.28 4.25822L4.28-58.3018C4.28-61.7618 5.652-65.0718 8.092-67.5018C10.447-69.8718 13.612-71.2318 16.934-71.3218L17.304-71.3318L30.378-71.3318L4.763-96.9418C4.119-97.5918 4.119-98.6318 4.763-99.2818C5.37-99.8818 6.331-99.9218 6.979-99.3818ZM33.678-68.0318L17.304-68.0318C14.945-68.0318 12.674-67.1718 10.907-65.6218L10.658-65.4018L10.427-65.1718C8.68-63.4318 7.667-61.0918 7.585-58.6218L7.58-58.3018L7.58 4.25822C7.58 6.83822 8.603 9.30822 10.427 11.1382C12.176 12.8882 14.522 13.8982 16.983 13.9882L17.304 13.9882L115.697 13.9882L87.327-14.3818C85.493-12.1218 83.265-10.2018 80.741-8.71178C77.647-6.89178 74.195-5.78178 70.63-5.45178C67.066-5.11178 63.468-5.57178 60.086-6.79178C56.706-8.01178 53.646-9.96178 51.119-12.4918C48.588-15.0218 46.641-18.0818 45.421-21.4618C44.204-24.8318 43.745-28.4318 44.076-32.0018C44.409-35.5718 45.523-39.0318 47.34-42.1218C48.823-44.6418 50.744-46.8618 53.009-48.7018L33.678-68.0318ZM85.554-88.3918C86.051-88.3918 86.517-88.1718 86.829-87.7918L86.927-87.6518L97.813-71.3318L119.68-71.3318C123.013-71.3318 126.213-70.0518 128.624-67.7718L128.889-67.5118C131.245-65.1518 132.605-61.9918 132.699-58.6718L132.704-58.3018L132.704-5.18178C132.704-4.27178 131.965-3.53178 131.054-3.53178C130.191-3.53178 129.482-4.19178 129.41-5.04178L129.404-5.18178L129.404-58.3018C129.404-60.8818 128.381-63.3518 126.554-65.1718C124.808-66.9318 122.464-67.9418 120.002-68.0218L119.68-68.0318L96.93-68.0318C96.434-68.0318 95.967-68.2518 95.655-68.6318L95.557-68.7618L84.67-85.0918L51.43-85.0918C50.567-85.0918 49.858-85.7518 49.786-86.6018L49.78-86.7418C49.78-87.6018 50.443-88.3118 51.288-88.3818L51.43-88.3918L85.554-88.3918ZM55.357-46.3518L55.213-46.2418C53.198-44.6318 51.493-42.6718 50.184-40.4418C48.613-37.7718 47.65-34.7918 47.362-31.7018C47.075-28.6118 47.473-25.4918 48.525-22.5818C49.58-19.6618 51.263-17.0118 53.453-14.8218C55.639-12.6318 58.285-10.9518 61.206-9.89178C64.129-8.84178 67.242-8.45178 70.324-8.73178C73.408-9.02178 76.395-9.98178 79.068-11.5518C81.296-12.8718 83.26-14.5718 84.865-16.5918L84.977-16.7318L55.357-46.3518Z"/>
  </g>
  <g id="Ultralight-L" transform="matrix(1 0 0 1 491.924 1556)">
   <path d="M6.062-98.8644L6.158-98.7844L34.532-70.4044L34.595-70.3544L87.375-17.5744L87.413-17.5344L131.282 26.3356C131.711 26.7656 131.711 27.4656 131.282 27.8956C130.883 28.2956 130.254 28.3156 129.822 27.9756L129.726 27.8956L118.679 16.8456L16.754 16.8456C13.566 16.8456 10.501 15.6256 8.186 13.4356L7.932 13.1956C5.676 10.9256 4.375 7.89552 4.285 4.71552L4.28 4.36552L4.28-58.1944C4.28-61.5044 5.594-64.6744 7.932-67.0144C10.187-69.2744 13.218-70.5844 16.4-70.6744L16.754-70.6744L31.156-70.6744L4.602-97.2244C4.173-97.6544 4.173-98.3544 4.602-98.7844C5.001-99.1844 5.63-99.2144 6.062-98.8644ZM33.356-68.4744L16.754-68.4744C14.256-68.4744 11.852-67.5644 9.984-65.9244L9.733-65.6944L9.488-65.4544C7.642-63.6144 6.572-61.1344 6.486-58.5344L6.48-58.1944L6.48 4.36552C6.48 7.09552 7.561 9.70552 9.488 11.6356C11.336 13.4856 13.815 14.5556 16.414 14.6356L16.754 14.6456L116.475 14.6456L86.727-15.1044L86.523-14.8444C84.926-12.8244 83.012-11.0744 80.853-9.66448L80.386-9.36448L79.912-9.07448C76.889-7.30448 73.514-6.21448 70.029-5.89448C66.545-5.56448 63.028-6.01448 59.723-7.20448C56.419-8.39448 53.428-10.3044 50.958-12.7744C48.484-15.2444 46.581-18.2444 45.389-21.5444C44.199-24.8344 43.75-28.3544 44.074-31.8444C44.382-35.1544 45.375-38.3544 46.995-41.2644L47.271-41.7444L47.55-42.2044C48.908-44.3944 50.611-46.3444 52.596-47.9944L53.025-48.3444L53.285-48.5444L33.356-68.4744ZM85.004-87.7344C85.326-87.7344 85.629-87.5944 85.836-87.3544L85.919-87.2444L96.969-70.6744L119.13-70.6744C122.322-70.6744 125.387-69.4544 127.697-67.2644L127.95-67.0144C130.207-64.7644 131.509-61.7344 131.599-58.5444L131.604-58.1944L131.604-5.07448C131.604-4.46448 131.112-3.97448 130.504-3.97448C129.937-3.97448 129.47-4.40448 129.41-4.95448L129.404-5.07448L129.404-58.1944C129.404-60.9244 128.322-63.5344 126.394-65.4544C124.549-67.3144 122.072-68.3844 119.47-68.4644L119.13-68.4744L96.38-68.4744C96.058-68.4744 95.755-68.6144 95.548-68.8544L95.465-68.9644L84.414-85.5344L50.88-85.5344C50.313-85.5344 49.846-85.9644 49.786-86.5144L49.78-86.6344C49.78-87.2044 50.209-87.6644 50.76-87.7244L50.88-87.7344L85.004-87.7344ZM54.855-46.9744L54.757-46.9044C52.774-45.4044 51.066-43.5744 49.711-41.5044L49.426-41.0544L49.16-40.6144C47.548-37.8744 46.559-34.8144 46.264-31.6444C45.97-28.4744 46.378-25.2744 47.458-22.2844C48.54-19.2944 50.267-16.5744 52.514-14.3344C54.757-12.0844 57.472-10.3544 60.47-9.27448C63.469-8.19448 66.662-7.78448 69.825-8.08448C72.989-8.37448 76.053-9.36448 78.797-10.9744C81.083-12.3244 83.098-14.0744 84.745-16.1444L85.07-16.5544L85.157-16.6744L54.855-46.9744Z"/>
  </g>
  <g id="Black-M" transform="matrix(1 0 0 1 2873.09 1126)">
   <path d="M16.21-90.903L16.4-90.723L105.65-1.47296C105.72-1.40296 105.79-1.33296 105.86-1.25296L114.57 7.45704C117.34 10.227 117.34 14.727 114.57 17.497C111.86 20.207 107.51 20.267 104.72 17.687L104.53 17.497L97.68 10.647L20.3 10.647C16.05 10.647 11.97 8.95704 8.95 5.94704C6.06 3.02704 4.39-0.872962 4.29-4.96296L4.28-5.37296L4.28-54.463C4.28-58.713 5.97-62.793 8.97-65.793C11.16-67.983 13.93-69.483 16.91-70.133L6.36-80.683C3.59-83.453 3.59-87.953 6.36-90.723C9.07-93.433 13.42-93.493 16.21-90.903ZM30.75-56.293L20.3-56.293C19.93-56.293 19.56-56.173 19.26-55.963L19.13-55.863L19.01-55.753C18.71-55.453 18.52-55.053 18.49-54.623L18.48-54.463L18.48-5.37296C18.48-4.89296 18.68-4.42296 19.01-4.08296C19.31-3.78296 19.71-3.59296 20.14-3.56296L20.3-3.55296L83.48-3.55296L75.11-11.923L74.6-11.563C74.09-11.213 73.56-10.873 73.02-10.553C69.86-8.69296 66.32-7.55296 62.67-7.21296C59.02-6.87296 55.35-7.34296 51.9-8.58296C48.46-9.82296 45.32-11.823 42.73-14.413C40.14-17.003 38.15-20.133 36.9-23.583C35.65-27.043 35.18-30.733 35.53-34.353C35.87-38.013 37-41.543 38.86-44.703C39.29-45.423 39.75-46.123 40.24-46.803L30.75-56.293ZM73.85-83.873C76.13-83.873 78.27-82.773 79.6-80.943L79.76-80.713L86.58-70.493L100.63-70.493C104.73-70.493 108.67-68.903 111.66-66.083L111.96-65.793C114.87-62.883 116.54-58.973 116.64-54.873L116.65-54.463L116.65-12.783C116.65-8.86296 113.47-5.68296 109.55-5.68296C105.71-5.68296 102.58-8.73296 102.45-12.543L102.45-12.783L102.45-54.463C102.45-54.953 102.26-55.413 101.93-55.733C101.61-56.053 101.2-56.243 100.79-56.283L100.63-56.293L82.78-56.293C80.5-56.293 78.36-57.393 77.03-59.223L76.87-59.453L70.05-69.673L47.08-69.673C43.24-69.673 40.11-72.723 39.98-76.533L39.98-76.773C39.98-80.613 43.03-83.743 46.84-83.873L47.08-83.873L73.85-83.873ZM64.78-22.253L50.56-36.463L50.56-36.453C50.08-35.383 49.78-34.233 49.67-33.023C49.52-31.473 49.72-29.893 50.26-28.413C50.79-26.923 51.65-25.573 52.77-24.453C53.89-23.333 55.24-22.473 56.72-21.943C58.2-21.413 59.79-21.203 61.37-21.353C62.41-21.453 63.44-21.703 64.41-22.093L64.78-22.253Z"/>
  </g>
  <g id="Heavy-M" transform="matrix(1 0 0 1 2577.23 1126)">
   <path d="M14.76-90.1376L14.95-89.9576L104.2-0.707672C104.26-0.637672 104.33-0.577672 104.39-0.507672L113.12 8.22232C115.56 10.6624 115.56 14.6224 113.12 17.0624C110.74 19.4424 106.92 19.5024 104.47 17.2424L104.28 17.0624L97.18 9.96236L19.45 9.96236C15.44 9.96236 11.58 8.37232 8.71 5.51232C5.97 2.75232 4.39-0.937672 4.29-4.80768L4.28-5.20768L4.28-54.2976C4.28-58.3276 5.88-62.1876 8.73-65.0376C11.2-67.4876 14.42-69.0276 17.84-69.3876L6.11-81.1176C3.67-83.5576 3.67-87.5176 6.11-89.9576C8.49-92.3376 12.31-92.3976 14.76-90.1376ZM30.25-56.9776L19.45-56.9776C18.89-56.9776 18.33-56.7876 17.87-56.4576L17.7-56.3176L17.56-56.1876C17.11-55.7376 16.83-55.1276 16.79-54.4876L16.78-54.2976L16.78-5.20768C16.78-4.49768 17.06-3.81768 17.55-3.32768C18.01-2.86768 18.62-2.58768 19.26-2.54768L19.45-2.53768L84.68-2.53768L74.34-12.8876L73.84-12.5076C73.17-12.0076 72.47-11.5476 71.74-11.1176C68.68-9.32768 65.27-8.21768 61.74-7.89768C58.22-7.56768 54.67-8.01768 51.34-9.21768C48.01-10.4177 44.99-12.3476 42.48-14.8476C39.98-17.3576 38.06-20.3776 36.85-23.7076C35.65-27.0576 35.19-30.6076 35.53-34.1076C35.85-37.6476 36.95-41.0576 38.74-44.1076C39.28-45.0176 39.87-45.8876 40.52-46.7076L30.25-56.9776ZM73-82.8576C75-82.8576 76.88-81.8976 78.05-80.2876L78.2-80.0776L85.27-69.4776L99.78-69.4776C103.66-69.4776 107.39-67.9776 110.22-65.3076L110.51-65.0276C113.26-62.2776 114.84-58.5776 114.94-54.6976L114.95-54.2976L114.95-12.6176C114.95-9.16768 112.15-6.36768 108.7-6.36768C105.33-6.36768 102.57-9.04768 102.45-12.3876L102.45-12.6176L102.45-54.2976C102.45-55.0076 102.17-55.6876 101.68-56.1776C101.21-56.6476 100.6-56.9276 99.97-56.9676L99.78-56.9776L81.93-56.9776C79.93-56.9776 78.05-57.9376 76.88-59.5476L76.73-59.7576L69.66-70.3576L46.23-70.3576C42.86-70.3576 40.1-73.0376 39.98-76.3776L39.98-76.6076C39.98-79.9876 42.66-82.7376 46-82.8576L46.23-82.8576L73-82.8576ZM49.49-37.7276L49.32-37.4276C48.58-36.0476 48.12-34.5376 47.97-32.9376C47.81-31.2676 48.03-29.5576 48.61-27.9576C49.19-26.3476 50.11-24.8976 51.32-23.6876C52.53-22.4776 53.98-21.5476 55.58-20.9776C57.18-20.3976 58.89-20.1876 60.6-20.3376C62.15-20.4876 63.68-20.9476 65.06-21.6976L65.35-21.8676L49.49-37.7276Z"/>
  </g>
  <g id="Bold-M" transform="matrix(1 0 0 1 2281.47 1126)">
   <path d="M13.1525-89.2626L13.3325-89.0926L65.8025-36.6126L102.582 0.157328C102.642 0.227328 102.703 0.287328 102.762 0.357328L111.502 9.08732C113.572 11.1574 113.572 14.5174 111.502 16.5874C109.492 18.5974 106.262 18.6574 104.182 16.7574L104.002 16.5874L96.6325 9.20732L18.5025 9.20732C14.7425 9.20732 11.1325 7.71732 8.4425 5.04732C5.8725 2.47732 4.3825-0.992672 4.2925-4.62268L4.2825-5.01268L4.2825-54.1026C4.2825-57.8726 5.7825-61.4926 8.4525-64.1726C11.0325-66.7326 14.4925-68.2126 18.1125-68.3126L18.5025-68.3226L19.1025-68.3226L5.8325-81.5926C3.7625-83.6626 3.7625-87.0226 5.8325-89.0926C7.8425-91.1026 11.0725-91.1526 13.1525-89.2626ZM29.6925-57.7226L18.5025-57.7226C17.6925-57.7226 16.9025-57.4426 16.2725-56.9526L16.1025-56.8126L15.9425-56.6626C15.3125-56.0426 14.9425-55.2026 14.8925-54.3226L14.8825-54.1026L14.8825-5.01268C14.8825-4.04268 15.2625-3.12268 15.9325-2.46268C16.5625-1.83268 17.4025-1.45267 18.2825-1.40267L18.5025-1.39267L86.0325-1.39267L73.4525-13.9626L72.9625-13.5626C72.1225-12.8926 71.2325-12.2926 70.3125-11.7426C67.3725-10.0127 64.0925-8.95268 60.7125-8.64268C57.3225-8.33268 53.9125-8.76268 50.7125-9.91268C47.5025-11.0726 44.5925-12.9226 42.2125-15.3126C39.8025-17.7126 37.9525-20.6226 36.7925-23.8326C35.6425-27.0526 35.2025-30.4626 35.5225-33.8226C35.8325-37.2026 36.8925-40.4826 38.6125-43.4326C39.2725-44.5426 40.0125-45.5926 40.8425-46.5826L29.6925-57.7226ZM72.0525-81.7126C73.7425-81.7126 75.3325-80.9026 76.3225-79.5526L76.4625-79.3526L83.8125-68.3226L98.8325-68.3226C102.462-68.3226 105.953-66.9326 108.612-64.4326L108.892-64.1626C111.462-61.5826 112.953-58.1226 113.042-54.4926L113.052-54.1026L113.052-12.4226C113.052-9.49268 110.682-7.12268 107.752-7.12268C104.902-7.12268 102.572-9.37268 102.453-12.2026L102.453-12.4226L102.453-54.1026C102.453-55.0626 102.072-55.9926 101.402-56.6526C100.772-57.2826 99.932-57.6626 99.0525-57.7126L98.8325-57.7226L80.9825-57.7226C79.2925-57.7226 77.7025-58.5326 76.7125-59.8826L76.5725-60.0826L69.2125-71.1126L45.2825-71.1126C42.4325-71.1126 40.1025-73.3626 39.9825-76.1926L39.9825-76.4126C39.9825-79.2626 42.2425-81.5926 45.0625-81.7026L45.2825-81.7126L72.0525-81.7126ZM48.3925-39.0326L48.2125-38.7726C48.0525-38.5426 47.9025-38.3126 47.7625-38.0726C46.8225-36.4626 46.2525-34.6826 46.0825-32.8326C45.9025-31.0226 46.1425-29.1726 46.7725-27.4326C47.3925-25.6926 48.3925-24.1226 49.7125-22.8126C51.0025-21.5126 52.5725-20.5126 54.3125-19.8926C56.0425-19.2626 57.8925-19.0326 59.7325-19.2026C61.5625-19.3626 63.3425-19.9426 64.9325-20.8826C65.1825-21.0226 65.4225-21.1726 65.6525-21.3326L65.9025-21.5126L48.3925-39.0326Z"/>
  </g>
  <g id="Semibold-M" transform="matrix(1 0 0 1 1985.4 1126)">
   <path d="M12.04-88.67L12.22-88.51L110.4 9.66996C112.21 11.49 112.21 14.43 110.4 16.25C108.64 18.01 105.82 18.06 104 16.41L103.82 16.25L96.25 8.67992L17.86 8.67992C14.26 8.67992 10.81 7.24992 8.27 4.71992C5.8 2.25992 4.38-1.04008 4.29-4.52008L4.28-4.89008L4.28-53.98C4.28-57.59 5.71-61.04 8.26-63.58C10.72-66.03 14.02-67.45 17.49-67.54L17.86-67.55L20.02-67.55L5.64-81.93C3.83-83.75 3.83-86.69 5.64-88.51C7.4-90.27 10.22-90.32 12.04-88.67ZM29.32-58.25L17.86-58.25C16.89-58.25 15.95-57.92 15.19-57.31L15.01-57.16L14.83-56.99C14.09-56.25 13.65-55.27 13.59-54.22L13.58-53.98L13.58-4.89008C13.58-3.75008 14.03-2.67008 14.84-1.87008C15.58-1.13008 16.57-0.680076 17.62-0.630076L17.86-0.620076L86.95-0.620076L72.84-14.73C71.76-13.77 70.59-12.92 69.33-12.18C66.47-10.5 63.29-9.47008 60.01-9.17008C56.71-8.87008 53.38-9.29008 50.29-10.4001C47.18-11.53 44.35-13.32 42.01-15.66C39.68-17.99 37.89-20.82 36.77-23.93C35.64-27.05 35.22-30.36 35.52-33.64C35.82-36.93 36.85-40.12 38.53-42.98C39.27-44.23 40.13-45.41 41.08-46.49L29.32-58.25ZM71.41-80.94C72.88-80.94 74.26-80.24 75.14-79.07L75.28-78.87L82.82-67.55L98.18-67.55C101.66-67.55 105-66.22 107.5-63.84L107.77-63.59C110.24-61.13 111.66-57.82 111.75-54.35L111.76-53.98L111.76-12.3C111.76-9.73008 109.68-7.65008 107.11-7.65008C104.61-7.65008 102.58-9.62008 102.46-12.09L102.46-12.3L102.46-53.98C102.46-55.11 102.01-56.2 101.2-57C100.46-57.74 99.47-58.18 98.42-58.24L98.18-58.25L80.33-58.25C78.86-58.25 77.48-58.95 76.6-60.12L76.46-60.32L68.92-71.64L44.63-71.64C42.13-71.64 40.1-73.61 39.98-76.08L39.98-76.29C39.98-78.79 41.95-80.82 44.42-80.93L44.63-80.94L71.41-80.94ZM47.68-39.89L47.48-39.63C47.14-39.2 46.83-38.74 46.55-38.26C45.56-36.59 44.96-34.71 44.78-32.79C44.6-30.87 44.85-28.92 45.51-27.09C46.17-25.26 47.22-23.6 48.59-22.24C49.96-20.86 51.62-19.81 53.45-19.15C55.26-18.5 57.21-18.25 59.15-18.43C61.07-18.61 62.94-19.21 64.62-20.2C65.1-20.48 65.56-20.79 65.99-21.12L66.25-21.33L47.68-39.89Z"/>
  </g>
  <g id="Medium-M" transform="matrix(1 0 0 1 1689.19 1126)">
   <path d="M11.2025-88.2148L11.3625-88.0548L109.542 10.1252C111.173 11.7452 111.173 14.3752 109.542 15.9952C107.982 17.5552 105.472 17.6052 103.842 16.1452L103.683 15.9952L95.9625 8.27522L17.3625 8.27522C13.8925 8.27522 10.5625 6.90522 8.1225 4.45522C5.7525 2.09522 4.3825-1.08477 4.2925-4.42478L4.2825-4.79478L4.2825-53.8848C4.2825-57.3548 5.6625-60.6848 8.1225-63.1248C10.4825-65.4948 13.6525-66.8548 16.9925-66.9448L17.3625-66.9548L20.7325-66.9548L5.5025-82.1848C3.8725-83.8048 3.8725-86.4348 5.5025-88.0548C7.0625-89.6248 9.5725-89.6748 11.2025-88.2148ZM29.0325-58.6548L17.3625-58.6548C16.2625-58.6548 15.2025-58.2748 14.3525-57.5848L14.1625-57.4248L13.9825-57.2548C13.1425-56.4248 12.6525-55.3148 12.5925-54.1348L12.5825-53.8848L12.5825-4.79478C12.5825-3.52478 13.0825-2.31478 13.9825-1.41478C14.8225-0.58477 15.9325-0.0947705 17.1125-0.0347705L17.3625-0.0247705L87.6625-0.0247705L72.3625-15.3248L71.9225-14.9248C70.8925-14.0248 69.7725-13.2148 68.5825-12.5148C65.7825-10.8748 62.6725-9.86478 59.4625-9.57478C56.2425-9.27478 52.9825-9.68478 49.9625-10.7748C46.9225-11.8748 44.1625-13.6248 41.8725-15.9148C39.5825-18.2048 37.8325-20.9648 36.7425-24.0048C35.6425-27.0548 35.2225-30.2948 35.5225-33.5048C35.8125-36.7148 36.8225-39.8348 38.4625-42.6248C39.2725-43.9948 40.2125-45.2548 41.2725-46.4148L29.0325-58.6548ZM70.9125-80.3448C72.2225-80.3448 73.4525-79.7248 74.2325-78.6848L74.3625-78.4948L82.0525-66.9548L97.6825-66.9548C101.032-66.9548 104.242-65.6748 106.653-63.3948L106.923-63.1348C109.292-60.7748 110.663-57.5948 110.752-54.2548L110.762-53.8848L110.762-12.2048C110.762-9.91478 108.903-8.05478 106.612-8.05478C104.392-8.05478 102.572-9.80478 102.472-11.9948L102.463-12.2048L102.463-53.8848C102.463-55.1548 101.963-56.3648 101.062-57.2548C100.222-58.0948 99.1125-58.5848 97.9325-58.6448L97.6825-58.6548L79.8325-58.6548C78.5225-58.6548 77.2925-59.2748 76.5125-60.3148L76.3825-60.5048L68.6925-72.0448L44.1325-72.0448C41.9125-72.0448 40.0925-73.7948 39.9925-75.9848L39.9825-76.1948C39.9825-78.4148 41.7325-80.2348 43.9225-80.3348L44.1325-80.3448L70.9125-80.3448ZM66.4925-21.1948L47.1525-40.5348L47.1325-40.5048C46.5625-39.8648 46.0525-39.1648 45.6225-38.4148C44.5925-36.6848 43.9725-34.7348 43.7825-32.7448C43.6025-30.7448 43.8625-28.7248 44.5425-26.8248C45.2325-24.9248 46.3225-23.2048 47.7325-21.7848C49.1625-20.3648 50.8825-19.2748 52.7825-18.5848C54.6625-17.9048 56.6825-17.6548 58.7025-17.8348C60.6925-18.0148 62.6325-18.6448 64.3825-19.6748C64.9725-20.0248 65.5425-20.4148 66.0725-20.8448L66.4925-21.1948Z"/>
  </g>
  <g id="Regular-M" transform="matrix(1 0 0 1 1393.13 1126)">
   <path d="M10.11-87.6198L10.26-87.4798L108.44 10.7002C109.8 12.0702 109.8 14.2902 108.44 15.6502C107.12 16.9702 105.01 17.0202 103.63 15.8002L103.49 15.6502L95.58 7.75018L16.71 7.75018C13.41 7.75018 10.25 6.44018 7.93 4.12018C5.68 1.88018 4.38-1.13982 4.29-4.31982L4.28-4.66982L4.28-53.7598C4.28-57.0598 5.59-60.2298 7.93-62.5498C10.17-64.7898 13.19-66.0898 16.36-66.1798L16.71-66.1798L21.65-66.1798L5.31-82.5298C3.94-83.8898 3.94-86.1098 5.31-87.4798C6.62-88.7898 8.73-88.8398 10.11-87.6198ZM28.65-59.1798L16.71-59.1798C15.45-59.1798 14.23-58.7398 13.27-57.9498L13.06-57.7698L12.87-57.5898C11.91-56.6398 11.35-55.3698 11.29-54.0298L11.28-53.7598L11.28-4.66982C11.28-3.22982 11.85-1.84982 12.88-0.839824C13.83 0.120176 15.1 0.680178 16.44 0.740178L16.71 0.750178L88.58 0.750178L71.72-16.1098C70.49-14.8998 69.1-13.8398 67.6-12.9498C64.88-11.3598 61.86-10.3798 58.75-10.0998C55.62-9.80982 52.47-10.2098 49.53-11.2698C46.58-12.3298 43.9-14.0298 41.68-16.2598C39.46-18.4698 37.76-21.1498 36.7-24.0998C35.63-27.0598 35.23-30.1998 35.51-33.3198C35.8-36.4398 36.78-39.4698 38.37-42.1798C39.26-43.6798 40.32-45.0598 41.53-46.2998L28.65-59.1798ZM70.26-79.5698C71.36-79.5698 72.39-79.0598 73.05-78.1898L73.17-78.0098L81.05-66.1798L97.03-66.1798C100.21-66.1798 103.26-64.9598 105.56-62.7998L105.81-62.5498C108.06-60.3098 109.37-57.2898 109.46-54.1098L109.46-53.7598L109.46-12.0798C109.46-10.1498 107.89-8.57982 105.96-8.57982C104.09-8.57982 102.57-10.0398 102.47-11.8898L102.46-12.0798L102.46-53.7598C102.46-55.1998 101.89-56.5798 100.87-57.5998C99.91-58.5498 98.64-59.1098 97.3-59.1698L97.03-59.1798L79.18-59.1798C78.08-59.1798 77.05-59.6898 76.39-60.5598L76.27-60.7398L68.39-72.5698L43.48-72.5698C41.61-72.5698 40.09-74.0298 39.99-75.8798L39.98-76.0698C39.98-77.9398 41.44-79.4698 43.29-79.5698L43.48-79.5698L70.26-79.5698ZM46.48-41.3498L46.43-41.2998C45.66-40.4898 44.98-39.5998 44.41-38.6298C43.34-36.7998 42.68-34.7698 42.49-32.6798C42.29-30.5898 42.56-28.4698 43.28-26.4798C44-24.4898 45.14-22.6898 46.63-21.2098C48.12-19.7098 49.92-18.5698 51.91-17.8498C53.88-17.1398 56-16.8698 58.11-17.0698C60.2-17.2598 62.22-17.9098 64.06-18.9898C65.02-19.5598 65.92-20.2398 66.73-21.0098L66.77-21.0598L46.48-41.3498Z"/>
  </g>
  <g id="Light-M" transform="matrix(1 0 0 1 1097.22 1126)">
   <path d="M8.75-86.8796L8.89-86.7496L107.07 11.4304C108.12 12.4904 108.12 14.2004 107.07 15.2504C106.06 16.2604 104.45 16.3004 103.39 15.3804L103.25 15.2504L95.11 7.1103L15.91 7.1103C12.83 7.1103 9.87 5.8903 7.7 3.7203C5.59 1.6203 4.38-1.18969 4.29-4.1497L4.28-4.5097L4.28-53.5996C4.28-56.6896 5.51-59.6496 7.69-61.8196C9.78-63.9096 12.6-65.1196 15.55-65.2096L15.91-65.2196L22.78-65.2196L5.07-82.9296C4.02-83.9796 4.02-85.6896 5.07-86.7496C6.08-87.7596 7.69-87.7996 8.75-86.8796ZM28.18-59.8196L15.91-59.8196C14.45-59.8196 13.05-59.3096 11.93-58.3896L11.71-58.1996L11.5-57.9896C10.4-56.8996 9.76-55.4396 9.69-53.8896L9.68-53.5996L9.68-4.5097C9.68-2.8597 10.34-1.2797 11.51-0.109692C12.6 0.990304 14.07 1.6303 15.62 1.7003L15.91 1.7103L89.71 1.7103L70.92-17.0796C69.59-15.6796 68.07-14.4696 66.39-13.4796C63.78-11.9496 60.87-11.0096 57.88-10.7296C54.86-10.4496 51.83-10.8396 49-11.8596C46.16-12.8796 43.58-14.5196 41.44-16.6596C39.31-18.7896 37.67-21.3696 36.65-24.2096C35.62-27.0596 35.24-30.0896 35.51-33.0896C35.79-36.0896 36.73-38.9996 38.26-41.6096C39.25-43.2796 40.46-44.8096 41.87-46.1296L28.18-59.8196ZM69.46-78.6096C70.3-78.6096 71.09-78.2196 71.59-77.5596L71.71-77.4096L79.82-65.2196L96.23-65.2196C99.2-65.2196 102.04-64.0896 104.19-62.0696L104.44-61.8196C106.55-59.7296 107.76-56.9196 107.85-53.9596L107.86-53.5996L107.86-11.9196C107.86-10.4296 106.65-9.2197 105.16-9.2197C103.73-9.2197 102.55-10.3396 102.47-11.7496L102.46-11.9196L102.46-53.5996C102.46-55.2496 101.8-56.8296 100.63-57.9996C99.54-59.0996 98.07-59.7396 96.52-59.8096L96.23-59.8196L78.38-59.8196C77.54-59.8196 76.75-60.2096 76.25-60.8696L76.13-61.0196L68.01-73.2096L42.68-73.2096C41.25-73.2096 40.07-74.3296 39.99-75.7396L39.98-75.9096C39.98-77.3396 41.1-78.5196 42.51-78.5996L42.68-78.6096L69.46-78.6096ZM45.69-42.3096C44.6-41.3096 43.67-40.1496 42.92-38.8696C41.79-36.9496 41.09-34.7996 40.89-32.5896C40.69-30.3796 40.97-28.1496 41.73-26.0396C42.49-23.9496 43.69-22.0496 45.26-20.4796C46.84-18.8996 48.74-17.6996 50.84-16.9396C52.92-16.1896 55.16-15.8996 57.38-16.1096C59.59-16.3096 61.73-16.9996 63.66-18.1396C64.81-18.8096 65.87-19.6396 66.8-20.5896L67.1-20.8996L45.69-42.3096Z"/>
  </g>
  <g id="Thin-M" transform="matrix(1 0 0 1 801.56 1126)">
   <path d="M6.979-85.9118L7.097-85.8118L67.086-25.8118L96.347 3.43822L96.4 3.49822L105.272 12.3682C105.916 13.0182 105.916 14.0582 105.272 14.7082C104.665 15.3082 103.704 15.3482 103.056 14.8082L102.938 14.7082L94.492 6.25822L14.855 6.25822C12.052 6.25822 9.361 5.14822 7.379 3.16822C5.474 1.26822 4.37-1.29178 4.285-3.97178L4.28-4.31178L4.28-53.4018C4.28-56.2118 5.394-58.9018 7.378-60.8818C9.282-62.7818 11.837-63.8818 14.519-63.9618L14.855-63.9718L24.266-63.9718L4.763-83.4718C4.119-84.1218 4.119-85.1618 4.763-85.8118C5.37-86.4118 6.331-86.4518 6.979-85.9118ZM27.558-60.6718L14.855-60.6718C13.135-60.6718 11.476-60.0618 10.169-58.9618L9.929-58.7518L9.709-58.5418C8.418-57.2518 7.662-55.5218 7.586-53.7018L7.58-53.4018L7.58-4.31178C7.58-2.38178 8.346-0.531778 9.71 0.828222C11.002 2.11822 12.732 2.87822 14.551 2.94822L14.855 2.95822L91.193 2.95822L69.822-18.4118C68.404-16.7318 66.71-15.3118 64.809-14.1918C62.334-12.7318 59.573-11.8418 56.725-11.5818C53.866-11.3118 50.991-11.6818 48.303-12.6518C45.602-13.6218 43.154-15.1818 41.136-17.2018C39.108-19.2218 37.553-21.6718 36.581-24.3718C35.608-27.0718 35.242-29.9418 35.506-32.7918C35.772-35.6518 36.663-38.4118 38.115-40.8818C39.234-42.7818 40.665-44.4718 42.342-45.8918L27.558-60.6718ZM68.405-77.3618C68.901-77.3618 69.368-77.1418 69.68-76.7618L69.778-76.6218L78.212-63.9718L95.18-63.9718C97.871-63.9718 100.457-62.9418 102.415-61.1118L102.657-60.8818C104.561-58.9818 105.664-56.4218 105.75-53.7418L105.755-53.4018L105.755-11.7218C105.755-10.8118 105.016-10.0718 104.105-10.0718C103.242-10.0718 102.533-10.7318 102.461-11.5818L102.455-11.7218L102.455-53.4018C102.455-55.3318 101.688-57.1818 100.326-58.5418C99.032-59.8318 97.302-60.5918 95.484-60.6618L95.18-60.6718L77.33-60.6718C76.833-60.6718 76.366-60.8918 76.055-61.2718L75.957-61.4018L67.521-74.0618L41.63-74.0618C40.767-74.0618 40.058-74.7218 39.986-75.5718L39.98-75.7118C39.98-76.5718 40.643-77.2818 41.488-77.3518L41.63-77.3618L68.405-77.3618ZM44.686-43.5418L44.635-43.5018C43.171-42.3018 41.925-40.8418 40.959-39.2018C39.753-37.1518 39.013-34.8618 38.792-32.4918C38.572-30.1218 38.877-27.7318 39.685-25.4918C40.493-23.2518 41.784-21.2118 43.47-19.5318C45.147-17.8518 47.179-16.5618 49.423-15.7518C51.654-14.9518 54.044-14.6418 56.423-14.8618C58.786-15.0818 61.079-15.8218 63.135-17.0318C64.777-18.0018 66.233-19.2418 67.437-20.7018L67.476-20.7518L44.686-43.5418Z"/>
  </g>
  <g id="Ultralight-M" transform="matrix(1 0 0 1 505.399 1126)">
   <path d="M6.062-85.3944L6.158-85.3144L61.945-29.5244L95.408 3.93552L95.453 3.98552L104.333 12.8656C104.762 13.2956 104.762 13.9956 104.333 14.4256C103.934 14.8256 103.305 14.8556 102.873 14.5056L102.777 14.4256L94.17 5.81552L14.305 5.81552C11.648 5.81552 9.098 4.76552 7.218 2.88552C5.415 1.08552 4.37-1.33448 4.285-3.87448L4.28-4.20448L4.28-53.2944C4.28-55.9544 5.337-58.5044 7.218-60.3844C9.019-62.1844 11.436-63.2244 13.973-63.3044L14.305-63.3144L25.044-63.3144L4.602-83.7544C4.173-84.1844 4.173-84.8844 4.602-85.3144C5.001-85.7144 5.63-85.7444 6.062-85.3944ZM27.237-61.1144L14.305-61.1144C12.444-61.1144 10.65-60.4544 9.241-59.2544L8.996-59.0444L8.772-58.8244C7.378-57.4344 6.564-55.5744 6.486-53.6044L6.48-53.2944L6.48-4.20448C6.48-2.12448 7.305-0.134476 8.772 1.32552C10.166 2.71552 12.033 3.53552 13.994 3.60552L14.305 3.61552L91.971 3.61552L69.232-19.1244C67.781-17.2944 66.002-15.7444 63.981-14.5544C61.576-13.1444 58.893-12.2744 56.126-12.0144C53.347-11.7644 50.552-12.1144 47.941-13.0644C45.316-14.0044 42.938-15.5144 40.975-17.4844C39.005-19.4544 37.494-21.8244 36.549-24.4544C35.603-27.0744 35.247-29.8644 35.505-32.6344C35.763-35.4144 36.629-38.0944 38.04-40.4944C39.228-42.5144 40.779-44.2944 42.612-45.7444L27.237-61.1144ZM67.855-76.7044C68.177-76.7044 68.48-76.5644 68.688-76.3244L68.77-76.2144L77.368-63.3144L94.63-63.3144C97.178-63.3144 99.625-62.3444 101.479-60.6144L101.718-60.3844C103.52-58.5844 104.566-56.1644 104.65-53.6244L104.655-53.2944L104.655-11.6144C104.655-11.0044 104.163-10.5144 103.555-10.5144C102.988-10.5144 102.521-10.9444 102.461-11.4944L102.455-11.6144L102.455-53.2944C102.455-55.3744 101.631-57.3644 100.164-58.8244C98.77-60.2144 96.903-61.0344 94.941-61.1044L94.63-61.1144L76.78-61.1144C76.458-61.1144 76.155-61.2544 75.948-61.4944L75.865-61.6044L67.265-74.5044L41.08-74.5044C40.513-74.5044 40.046-74.9344 39.986-75.4844L39.98-75.6044C39.98-76.1744 40.409-76.6344 40.96-76.6944L41.08-76.7044L67.855-76.7044ZM67.663-20.6944L44.178-44.1744L44.168-44.1644C42.465-42.8544 41.027-41.2344 39.936-39.3744C38.689-37.2544 37.924-34.8844 37.695-32.4344C37.467-29.9844 37.782-27.5144 38.619-25.1944C39.454-22.8844 40.789-20.7744 42.531-19.0444C44.266-17.3044 46.367-15.9644 48.687-15.1244C50.995-14.2944 53.465-13.9844 55.924-14.2144C58.368-14.4344 60.739-15.2044 62.865-16.4544C64.589-17.4644 66.114-18.7744 67.371-20.3244L67.663-20.6944Z"/>
  </g>
  <g id="Black-S" transform="matrix(1 0 0 1 2883.68 696)">
   <path d="M16.21-80.4198L16.4-80.2348L82.33-14.3008C81.7-15.3198 81.33-16.5098 81.28-17.7858L81.28-18.0248L81.28-50.6148L67.38-50.6148C65.1-50.6148 62.96-51.7118 61.63-53.5518L61.47-53.7758L56.58-61.1148L39.38-61.1148C35.54-61.1148 32.41-64.1648 32.28-67.9758L32.28-68.2148C32.28-72.0558 35.33-75.1848 39.14-75.3108L39.38-75.3148L60.38-75.3148C62.66-75.3148 64.8-74.2178 66.13-72.3768L66.29-72.1528L71.18-64.8148L81.38-64.8148C85-64.8148 88.47-63.4288 91.08-60.9488L91.36-60.6788C93.9-58.1258 95.38-54.6978 95.47-51.1008L95.48-50.7148L95.48-18.0248C95.48-14.1028 92.3-10.9248 88.38-10.9248C87.01-10.9248 85.74-11.3098 84.66-11.9778L93.4-3.23486C96.17-0.461858 96.17 4.03314 93.4 6.80614C90.69 9.51617 86.34 9.57717 83.55 6.99114L83.36 6.80614L78.44 1.88414L18.38 1.88514C14.77 1.88514 11.3 0.500141 8.68-1.97986L8.4-2.24986C5.86-4.80286 4.38-8.23186 4.29-11.8288L4.28-12.2148L4.28-50.7148C4.28-54.4518 5.77-58.0348 8.4-60.6788C9.69-61.9738 11.21-62.9898 12.86-63.6918L6.36-70.1938C3.59-72.9668 3.59-77.4618 6.36-80.2348C9.07-82.9448 13.42-83.0058 16.21-80.4198ZM25.94-50.6148L18.48-50.6148L18.48-12.3148L46.43-12.3148L46.33-12.3288C45.47-12.4728 44.62-12.6698 43.78-12.9188L43.15-13.1168L42.63-13.2958C39.72-14.3518 37.07-16.0368 34.9-18.2108C32.7-20.3998 31.02-23.0488 29.96-25.9718C28.91-28.8868 28.51-32.0008 28.8-35.0908C29.07-37.9938 29.94-40.8068 31.35-43.3558L31.62-43.8308L31.96-44.3988L32.04-44.5168L25.94-50.6148ZM61.18-15.3728L60.95-15.2228L60.5-14.9568C58.46-13.7528 56.23-12.9048 53.92-12.4448L53.38-12.3458L53.18-12.3148L64.24-12.3148L61.18-15.3728ZM42.93-33.6258L42.92-33.4408C42.88-32.5398 43.01-31.6438 43.32-30.8028C43.67-29.8388 44.21-28.9778 44.94-28.2528C45.65-27.5438 46.51-26.9928 47.45-26.6518C48.31-26.3438 49.21-26.2078 50.11-26.2468L50.29-26.2608L42.93-33.6258Z"/>
  </g>
  <g id="Heavy-S" transform="matrix(1 0 0 1 2587.81 696)">
   <path d="M14.76-79.648L14.95-79.469L91.95-2.46894C94.39-0.0289421 94.39 3.92906 91.95 6.36906C89.57 8.74906 85.75 8.80906 83.3 6.54806L83.11 6.36906L77.94 1.20006L17.53 1.20006C14.14 1.20006 10.88-0.0989421 8.43-2.42294L8.16-2.68594C5.76-5.08194 4.38-8.29994 4.29-11.674L4.28-12.05L4.28-50.55C4.28-54.062 5.68-57.429 8.16-59.914C9.68-61.44 11.53-62.555 13.55-63.19L6.11-70.631C3.67-73.071 3.67-77.029 6.11-79.469C8.49-81.849 12.31-81.909 14.76-79.648ZM25.44-51.3L17.53-51.3C17.41-51.3 17.29-51.272 17.19-51.22L17.09-51.16L17-51.086C16.89-50.97 16.81-50.823 16.79-50.668L16.78-50.55L16.78-12.05C16.78-11.853 16.86-11.659 17-11.516C17.11-11.406 17.26-11.334 17.41-11.309L17.53-11.3L65.44-11.3L60.44-16.302L60.11-16.077L59.67-15.795L59.22-15.524C56.66-14.014 53.79-13.088 50.83-12.813C47.87-12.538 44.89-12.918 42.07-13.931C39.27-14.944 36.73-16.561 34.65-18.649C32.54-20.749 30.93-23.291 29.91-26.097C28.9-28.894 28.52-31.882 28.8-34.848C29.05-37.634 29.89-40.334 31.28-42.851L31.55-43.321L31.83-43.781L31.97-43.996L32.11-44.209L32.28-44.461L25.44-51.3ZM59.53-74.3C61.53-74.3 63.41-73.341 64.58-71.731L64.73-71.517L69.87-63.8L80.53-63.8C83.92-63.8 87.18-62.501 89.63-60.177L89.9-59.914C92.3-57.518 93.68-54.301 93.77-50.926L93.78-50.55L93.78-17.86C93.78-14.408 90.98-11.61 87.53-11.61C84.15-11.61 81.4-14.285 81.28-17.631L81.28-17.86L81.28-50.55C81.28-50.747 81.2-50.941 81.06-51.086C80.95-51.195 80.8-51.267 80.65-51.291L80.53-51.3L66.53-51.3C64.53-51.3 62.65-52.259 61.48-53.869L61.33-54.083L56.18-61.8L38.53-61.8C35.15-61.8 32.4-64.475 32.28-67.821L32.28-68.05C32.28-71.425 34.96-74.175 38.3-74.296L38.53-74.3L59.53-74.3ZM41.54-35.203L41.49-35.032C41.37-34.595 41.29-34.147 41.24-33.694C41.14-32.554 41.28-31.413 41.67-30.349C42.06-29.268 42.67-28.3 43.49-27.489C44.28-26.691 45.26-26.072 46.32-25.688C47.4-25.299 48.54-25.154 49.67-25.259C50.01-25.291 50.35-25.345 50.68-25.42L51.01-25.503L51.18-25.556L41.54-35.203Z"/>
  </g>
  <g id="Bold-S" transform="matrix(1 0 0 1 2292.05 696)">
   <path d="M13.1525-78.5782L13.3325-78.4052L90.3325-1.40519C92.4025 0.663815 92.4025 4.01982 90.3325 6.08982C88.3225 8.10082 85.0925 8.15782 83.0125 6.26182L82.8325 6.08982L77.3925 0.641815L16.5825 0.641815C13.3125 0.641815 10.1825-0.65419 7.8925-2.95018C5.6625-5.17418 4.3725-8.16618 4.2925-11.3082L4.2825-11.6582L4.2825-50.1582C4.2825-53.4272 5.5725-56.5592 7.8825-58.8532C9.6825-60.6572 11.9925-61.8432 14.4725-62.2752L5.8325-70.9102C3.7625-72.9802 3.7625-76.3362 5.8325-78.4052C7.8425-80.4162 11.0725-80.4742 13.1525-78.5782ZM24.8925-51.8582L16.5825-51.8582C16.2425-51.8582 15.9125-51.7572 15.6325-51.5682L15.5025-51.4662L15.3725-51.3502C15.0925-51.0792 14.9325-50.7192 14.8925-50.3272L14.8825-50.1582L14.8825-11.6582C14.8825-11.2012 15.0625-10.7762 15.3825-10.4512C15.6625-10.1752 16.0225-10.0042 16.4125-9.96618L16.5825-9.95818L66.7925-9.95818L59.5925-17.1532L59.1525-16.8332C58.7125-16.5202 58.2625-16.2262 57.7925-15.9512C55.3525-14.5132 52.6125-13.6292 49.7925-13.3662C46.9625-13.1042 44.1125-13.4682 41.4525-14.4292C38.7925-15.3892 36.3725-16.9232 34.3525-18.9432C32.3525-20.9492 30.8125-23.3682 29.8525-26.0282C28.8825-28.6932 28.5225-31.5412 28.7825-34.3682C29.0425-37.1892 29.9225-39.9192 31.3725-42.3822C31.7425-43.0032 32.1425-43.6012 32.5725-44.1742L24.8925-51.8582ZM58.5825-72.9582C60.2725-72.9582 61.8625-72.1512 62.8525-70.7952L62.9925-70.5982L68.4225-62.4582L79.5825-62.4582C82.7225-62.4582 85.7425-61.2542 88.0025-59.1162L88.2625-58.8652C90.4925-56.6412 91.7925-53.6482 91.8825-50.5072L91.8825-50.1582L91.8825-17.4682C91.8825-14.5412 89.5125-12.1682 86.5825-12.1682C83.7325-12.1682 81.4025-14.4242 81.2825-17.2492L81.2825-17.4682L81.2825-50.1582C81.2825-50.6042 81.1025-51.0322 80.7725-51.3632C80.4925-51.6402 80.1325-51.8112 79.7525-51.8492L79.5825-51.8582L65.5825-51.8582C63.8925-51.8582 62.3025-52.6652 61.3125-54.0202L61.1725-54.2182L55.7425-62.3582L37.5825-62.3582C34.7325-62.3582 32.4025-64.6142 32.2825-67.4392L32.2825-67.6582C32.2825-70.5122 34.5425-72.8392 37.3625-72.9532L37.5825-72.9582L58.5825-72.9582ZM40.2425-36.5082L40.1425-36.3222C39.7125-35.4002 39.4325-34.4072 39.3425-33.3892C39.2225-32.1112 39.3825-30.8292 39.8125-29.6342C40.2525-28.4342 40.9525-27.3372 41.8425-26.4392C42.7625-25.5252 43.8525-24.8332 45.0525-24.3992C46.2525-23.9672 47.5325-23.8032 48.8125-23.9212C49.8225-24.0152 50.8225-24.2902 51.7425-24.7272L51.9225-24.8212L40.2425-36.5082Z"/>
  </g>
  <g id="Semibold-S" transform="matrix(1 0 0 1 1995.99 696)">
   <path d="M12.04-77.9848L12.22-77.8198L89.22-0.819838C91.03 0.996161 91.03 3.94016 89.22 5.75616C87.46 7.51516 84.64 7.57016 82.82 5.92116L82.64 5.75616L77 0.118162L15.93 0.118162C12.95 0.118162 10.1-1.01684 7.94-3.04984L7.69-3.29784C5.59-5.39884 4.38-8.21784 4.29-11.1768L4.28-11.5318L4.28-50.0318C4.28-53.1188 5.51-56.0808 7.69-58.2678C9.71-60.2878 12.39-61.4888 15.22-61.6608L5.64-71.2438C3.83-73.0598 3.83-76.0038 5.64-77.8198C7.4-79.5798 10.22-79.6348 12.04-77.9848ZM24.5-52.3818L15.93-52.3818C15.43-52.3818 14.95-52.2238 14.55-51.9368L14.41-51.8228L14.27-51.6978C13.87-51.2988 13.63-50.7718 13.59-50.2178L13.58-50.0318L13.58-11.5318C13.58-10.9108 13.83-10.3108 14.27-9.86684C14.66-9.47284 15.19-9.23384 15.74-9.18984L15.93-9.18184L67.7-9.18284L59-17.8878L58.8-17.7338C58.42-17.4388 58.03-17.1578 57.63-16.8938L57.22-16.6338L56.81-16.3848C54.45-14.9938 51.81-14.1408 49.08-13.8878C46.35-13.6348 43.61-13.9848 41.02-14.9168C38.44-15.8498 36.1-17.3388 34.18-19.2648C32.24-21.1988 30.75-23.5388 29.82-26.1228C28.89-28.6988 28.54-31.4498 28.79-34.1828C29.03-36.7378 29.79-39.2158 31.06-41.5148L31.32-41.9718L31.58-42.4108C31.85-42.8358 32.14-43.2498 32.44-43.6508L32.79-44.0998L24.5-52.3818ZM57.93-72.1818C59.4-72.1818 60.78-71.4848 61.66-70.3118L61.8-70.1118L67.42-61.6818L78.93-61.6818C81.9-61.6818 84.76-60.5468 86.92-58.5148L87.17-58.2668C89.27-56.1648 90.48-53.3458 90.57-50.3878L90.58-50.0318L90.58-17.3418C90.58-14.7738 88.5-12.6918 85.93-12.6918C83.43-12.6918 81.4-14.6598 81.28-17.1288L81.28-17.3418L81.28-50.0318C81.28-50.6528 81.03-51.2538 80.59-51.6968C80.2-52.0908 79.67-52.3308 79.12-52.3748L78.93-52.3818L64.93-52.3818C63.46-52.3818 62.08-53.0798 61.2-54.2528L61.06-54.4528L55.44-62.8818L36.93-62.8818C34.43-62.8818 32.4-64.8498 32.28-67.3188L32.28-67.5318C32.28-70.0288 34.25-72.0658 36.72-72.1778L36.93-72.1818L57.93-72.1818ZM39.44-37.4408L39.3-37.2038C38.6-36.0158 38.18-34.6908 38.05-33.3238C37.92-31.9508 38.1-30.5728 38.56-29.2868C39.03-27.9848 39.78-26.8148 40.75-25.8418C41.72-24.8758 42.89-24.1298 44.17-23.6648C45.47-23.1968 46.85-23.0208 48.22-23.1478C49.46-23.2638 50.67-23.6268 51.77-24.2198L52.1-24.4038L52.34-24.5488L39.44-37.4408Z"/>
  </g>
  <g id="Medium-S" transform="matrix(1 0 0 1 1699.78 696)">
   <path d="M11.2025-77.5262L11.3625-77.3692L88.3625-0.369269C89.9925 1.25174 89.9925 3.87874 88.3625 5.49974C86.8025 7.06674 84.2925 7.11874 82.6625 5.65674L82.5025 5.49974L76.7125-0.28427L15.4325-0.28427C12.5825-0.28427 9.8525-1.37127 7.7925-3.31626L7.5425-3.55326C5.5425-5.56526 4.3725-8.26326 4.2925-11.0942L4.2825-11.4342L4.2825-49.9342C4.2825-52.8882 5.4625-55.7242 7.5425-57.8172C9.5525-59.8292 12.2525-60.9932 15.0925-61.0792L15.4325-61.0842L15.9125-61.0842L5.5025-71.5002C3.8725-73.1212 3.8725-75.7482 5.5025-77.3692C7.0625-78.9352 9.5725-78.9882 11.2025-77.5262ZM24.2125-52.7842L15.4325-52.7842C14.8125-52.7842 14.2125-52.5842 13.7325-52.2202L13.5725-52.0922L13.4225-51.9532C12.9325-51.4652 12.6425-50.8192 12.5925-50.1392L12.5825-49.9342L12.5825-11.4342C12.5825-10.6802 12.8825-9.95326 13.4225-9.41526C13.9025-8.93226 14.5425-8.64126 15.2225-8.59226L15.4325-8.58426L68.4125-8.58426L58.5325-18.4642L58.5025-18.4342C57.9925-18.0092 57.4625-17.6122 56.9025-17.2452L56.4825-16.9762L56.0625-16.7182C53.7625-15.3642 51.1925-14.5342 48.5325-14.2882C45.8825-14.0422 43.2125-14.3822 40.6925-15.2892C38.1825-16.1972 35.9025-17.6462 34.0325-19.5212C32.1425-21.4032 30.7025-23.6802 29.7925-26.1962C28.8825-28.7022 28.5425-31.3792 28.7925-34.0392C29.0225-36.5252 29.7625-38.9372 30.9925-41.1702L31.2425-41.6142L31.5125-42.0462C31.8525-42.5982 32.2325-43.1302 32.6425-43.6402L32.9625-44.0362L24.2125-52.7842ZM57.4325-71.5842C58.7425-71.5842 59.9725-70.9662 60.7525-69.9242L60.8825-69.7362L66.6525-61.0842L78.4325-61.0842C81.2825-61.0842 84.0125-59.9982 86.0725-58.0532L86.3225-57.8152C88.3225-55.8042 89.4925-53.1052 89.5725-50.2752L89.5825-49.9342L89.5825-17.2442C89.5825-14.9522 87.7225-13.0942 85.4325-13.0942C83.2125-13.0942 81.3925-14.8412 81.2925-17.0372L81.2825-17.2442L81.2825-49.9342C81.2825-50.6882 80.9825-51.4162 80.4425-51.9522C79.9625-52.4362 79.3225-52.7282 78.6425-52.7772L78.4325-52.7842L64.4325-52.7842C63.1225-52.7842 61.8925-53.4032 61.1125-54.4442L60.9825-54.6322L55.2125-63.2842L36.4325-63.2842C34.2125-63.2842 32.3925-65.0312 32.2925-67.2272L32.2825-67.4342C32.2825-69.6572 34.0325-71.4712 36.2225-71.5792L36.4325-71.5842L57.4325-71.5842ZM38.8725-38.1272L38.7825-38.0052L38.5625-37.6782L38.3725-37.3592C37.6425-36.1082 37.1925-34.7122 37.0525-33.2722C36.9225-31.8262 37.1025-30.3742 37.5925-29.0192C38.0925-27.6482 38.8725-26.4152 39.9025-25.3912C40.9125-24.3732 42.1525-23.5872 43.5125-23.0962C44.8725-22.6042 46.3225-22.4192 47.7725-22.5532C49.2125-22.6862 50.6025-23.1362 51.8525-23.8752L52.1625-24.0632L52.4625-24.2622L52.6225-24.3752L38.8725-38.1272Z"/>
  </g>
  <g id="Regular-S" transform="matrix(1 0 0 1 1403.72 696)">
   <path d="M10.11-76.9228L10.25-76.7818L87.25 0.218108C88.62 1.5851 88.62 3.8011 87.25 5.1681C85.94 6.4861 83.83 6.5331 82.45 5.3091L82.31 5.1681L76.33-0.806892L14.78-0.806892C12.1-0.806892 9.53-1.8269 7.59-3.6519L7.35-3.8849C5.47-5.7759 4.37-8.3119 4.29-10.9738L4.28-11.3068L4.28-49.8068C4.28-52.5888 5.39-55.2588 7.35-57.2298C9.24-59.1208 11.78-60.2168 14.45-60.3018L14.78-60.3068L16.83-60.3068L5.31-71.8318C3.94-73.1988 3.94-75.4148 5.31-76.7818C6.62-78.0998 8.73-78.1468 10.11-76.9228ZM23.83-53.3068L14.78-53.3068C14-53.3068 13.25-53.0478 12.64-52.5778L12.46-52.4308L12.31-52.2848C11.7-51.6768 11.34-50.8688 11.29-50.0198L11.28-49.8068L11.28-11.3068C11.28-10.3798 11.65-9.4879 12.31-8.8289C12.91-8.2249 13.71-7.8649 14.57-7.8129L14.78-7.8069L69.33-7.8069L57.91-19.2248L57.79-19.1178C57.22-18.6098 56.61-18.1398 55.97-17.7118L55.49-17.3988L55.08-17.1508C52.86-15.8448 50.39-15.0448 47.82-14.8078C45.26-14.5708 42.69-14.8988 40.26-15.7728C37.84-16.6488 35.64-18.0458 33.84-19.8538C32.02-21.6678 30.63-23.8628 29.75-26.2888C28.87-28.7048 28.55-31.2868 28.78-33.8508C29.01-36.2488 29.72-38.5748 30.91-40.7218L31.15-41.1488L31.41-41.5718C31.81-42.2108 32.25-42.8208 32.73-43.4008L33.1-43.8308L33.2-43.9388L23.83-53.3068ZM56.78-70.8068C57.88-70.8068 58.91-70.2928 59.57-69.4258L59.69-69.2478L65.65-60.3068L77.78-60.3068C80.46-60.3068 83.03-59.2868 84.97-57.4608L85.21-57.2288C87.09-55.3378 88.19-52.8008 88.27-50.1398L88.28-49.8068L88.28-17.1168C88.28-15.1838 86.71-13.6168 84.78-13.6168C82.91-13.6168 81.38-15.0808 81.29-16.9248L81.28-17.1168L81.28-49.8068C81.28-50.7328 80.91-51.6258 80.25-52.2838C79.65-52.8878 78.85-53.2488 77.99-53.2998L77.78-53.3068L63.78-53.3068C62.68-53.3068 61.65-53.8208 60.99-54.6878L60.87-54.8658L54.91-63.8068L35.78-63.8068C33.91-63.8068 32.38-65.2708 32.29-67.1148L32.28-67.3068C32.28-69.1758 33.74-70.7018 35.59-70.8018L35.78-70.8068L56.78-70.8068ZM38.16-38.9798L38.03-38.8208C37.86-38.6208 37.71-38.4148 37.57-38.2058L37.36-37.8888L37.16-37.5598C36.38-36.2268 35.9-34.7398 35.76-33.2048C35.61-31.6628 35.81-30.1158 36.33-28.6708C36.86-27.2098 37.69-25.8948 38.79-24.8038C39.87-23.7188 41.19-22.8808 42.63-22.3568C44.09-21.8318 45.64-21.6348 47.18-21.7778C48.71-21.9198 50.2-22.3998 51.53-23.1858C51.86-23.3808 52.18-23.5928 52.49-23.8218L52.79-24.0568L52.95-24.1878L38.16-38.9798Z"/>
  </g>
  <g id="Light-S" transform="matrix(1 0 0 1 1107.81 696)">
   <path d="M8.75-76.1854L8.89-76.0584L85.89 0.941517C86.94 1.99552 86.94 3.70552 85.89 4.75952C84.88 5.77052 83.27 5.81252 82.21 4.88552L82.07 4.75952L75.86-1.44948L13.98-1.44948C11.51-1.44948 9.14-2.38848 7.35-4.06948L7.12-4.29248C5.38-6.03348 4.37-8.36648 4.29-10.8154L4.28-11.1494L4.28-49.6494C4.28-52.2194 5.3-54.6864 7.12-56.5074C8.86-58.2514 11.2-59.2634 13.66-59.3444L13.98-59.3494L17.96-59.3494L5.07-72.2404C4.02-73.2944 4.02-75.0044 5.07-76.0584C6.08-77.0694 7.69-77.1114 8.75-76.1854ZM23.36-53.9494L13.98-53.9494C13-53.9494 12.06-53.6174 11.3-53.0154L11.12-52.8594L10.94-52.6924C10.19-51.9414 9.75-50.9424 9.69-49.8924L9.68-49.6494L9.68-11.1494C9.68-10.0115 10.13-8.91548 10.94-8.10648C11.69-7.35948 12.68-6.91648 13.74-6.85648L13.98-6.84948L70.46-6.84948L57.13-20.1814L56.8-19.8674C56.15-19.2604 55.45-18.7064 54.71-18.2104L54.26-17.9194L53.87-17.6824C51.76-16.4374 49.39-15.6734 46.95-15.4474C44.51-15.2204 42.05-15.5344 39.73-16.3684C37.42-17.2034 35.33-18.5364 33.6-20.2634C31.87-21.9934 30.54-24.0884 29.7-26.4044C28.87-28.7094 28.55-31.1724 28.78-33.6194C28.99-35.8984 29.67-38.1084 30.79-40.1434L31.03-40.5764L31.28-40.9884C31.8-41.8084 32.39-42.5804 33.04-43.2974L33.37-43.6514L33.51-43.7974L23.36-53.9494ZM55.98-69.8494C56.82-69.8494 57.61-69.4604 58.11-68.8034L58.23-68.6474L64.43-59.3494L76.98-59.3494C79.45-59.3494 81.82-58.4104 83.61-56.7304L83.84-56.5064C85.58-54.7654 86.59-52.4324 86.67-49.9844L86.68-49.6494L86.68-16.9594C86.68-15.4684 85.47-14.2594 83.98-14.2594C82.55-14.2594 81.37-15.3774 81.29-16.7884L81.28-16.9594L81.28-49.6494C81.28-50.7874 80.83-51.8834 80.02-52.6914C79.27-53.4394 78.28-53.8834 77.22-53.9424L76.98-53.9494L62.98-53.9494C62.14-53.9494 61.36-54.3384 60.85-54.9954L60.73-55.1514L54.54-64.4494L34.98-64.4494C33.55-64.4494 32.37-65.5674 32.29-66.9784L32.28-67.1494C32.28-68.5834 33.4-69.7564 34.81-69.8444L34.98-69.8494L55.98-69.8494ZM37.33-39.9804L37.15-39.7934C36.77-39.3834 36.42-38.9484 36.1-38.4924L35.88-38.1464L35.67-37.8074C34.83-36.3734 34.31-34.7734 34.16-33.1214C34-31.4624 34.22-29.7974 34.78-28.2414C35.35-26.6694 36.25-25.2544 37.42-24.0824C38.59-22.9134 40.01-22.0114 41.56-21.4474C43.13-20.8824 44.8-20.6704 46.45-20.8244C48.1-20.9774 49.7-21.4934 51.14-22.3384C51.78-22.7144 52.38-23.1524 52.93-23.6444L53.26-23.9464L53.31-24.0004L37.33-39.9804Z"/>
  </g>
  <g id="Thin-S" transform="matrix(1 0 0 1 812.147 696)">
   <path d="M6.979-75.2182L7.097-75.1112L84.097 1.88882C84.741 2.53282 84.741 3.57782 84.097 4.22182C83.49 4.82882 82.529 4.86482 81.881 4.32882L81.763 4.22182L75.247-2.29418L12.93-2.29418C10.74-2.29418 8.636-3.12418 7.038-4.61118L6.813-4.82818C5.265-6.37618 4.364-8.45118 4.286-10.6322L4.28-10.9442L4.28-49.4442C4.28-51.7382 5.191-53.9392 6.814-55.5622C8.363-57.1092 10.438-58.0102 12.618-58.0892L12.93-58.0942L19.447-58.0942L4.763-72.7782C4.119-73.4222 4.119-74.4672 4.763-75.1112C5.37-75.7182 6.331-75.7532 6.979-75.2182ZM22.747-54.7942L12.93-54.7942C11.689-54.7942 10.492-54.3632 9.539-53.5832L9.339-53.4112L9.147-53.2282C8.206-52.2872 7.652-51.0322 7.587-49.7102L7.58-49.4442L7.58-10.9442C7.58-9.52518 8.143-8.16418 9.147-7.16118C10.088-6.22018 11.342-5.66618 12.665-5.60118L12.93-5.59418L71.947-5.59418L56.058-21.4832L55.843-21.2412C55.027-20.3602 54.112-19.5742 53.115-18.9012L52.683-18.6202L52.291-18.3812C50.308-17.2152 48.093-16.5002 45.804-16.2872C43.514-16.0752 41.206-16.3692 39.043-17.1492C36.88-17.9312 34.916-19.1782 33.289-20.8042C31.664-22.4302 30.416-24.3942 29.635-26.5572C28.855-28.7202 28.561-31.0282 28.773-33.3182C28.971-35.4552 29.607-37.5262 30.65-39.4232L30.88-39.8272L31.123-40.2252C31.76-41.2332 32.507-42.1632 33.355-43.0002L33.724-43.3532L33.968-43.5732L22.747-54.7942ZM54.93-68.5942C55.427-68.5942 55.894-68.3712 56.205-67.9922L56.303-67.8602L62.813-58.0942L75.93-58.0942C78.12-58.0942 80.223-57.2642 81.822-55.7772L82.047-55.5612C83.595-54.0122 84.496-51.9362 84.574-49.7562L84.58-49.4442L84.58-16.7542C84.58-15.8432 83.841-15.1042 82.93-15.1042C82.067-15.1042 81.358-15.7672 81.286-16.6122L81.28-16.7542L81.28-49.4442C81.28-50.8622 80.716-52.2242 79.714-53.2272C78.772-54.1682 77.518-54.7222 76.195-54.7882L75.93-54.7942L61.93-54.7942C61.434-54.7942 60.967-55.0182 60.655-55.3972L60.557-55.5292L54.047-65.2942L33.93-65.2942C33.067-65.2942 32.358-65.9572 32.286-66.8022L32.28-66.9442C32.28-67.8082 32.943-68.5162 33.788-68.5882L33.93-68.5942L54.93-68.5942ZM36.306-41.2352L36.082-41.0392C35.352-40.3802 34.704-39.6382 34.156-38.8342L33.927-38.4862L33.711-38.1322C32.791-36.5672 32.227-34.8192 32.059-33.0132C31.891-31.2062 32.124-29.3842 32.739-27.6782C33.356-25.9712 34.34-24.4212 35.622-23.1372C36.906-21.8552 38.456-20.8702 40.163-20.2532C41.87-19.6382 43.691-19.4062 45.499-19.5732C47.305-19.7412 49.053-20.3052 50.618-21.2262C51.58-21.7912 52.458-22.4832 53.23-23.2812L53.515-23.5852L53.72-23.8212L36.306-41.2352Z"/>
  </g>
  <g id="Ultralight-S" transform="matrix(1 0 0 1 515.986 696)">
   <path d="M6.062-74.701L6.158-74.615L83.158 2.3851C83.587 2.8141 83.587 3.5111 83.158 3.9401C82.759 4.3391 82.13 4.3681 81.698 4.0261L81.602 3.9401L74.924-2.7389L12.38-2.7379C10.333-2.7379 8.368-3.5109 6.873-4.8969L6.652-5.1099C5.133-6.6289 4.28-8.6889 4.28-10.838L4.28-49.338C4.28-51.486 5.133-53.546 6.653-55.066C8.172-56.584 10.232-57.438 12.38-57.438L20.224-57.439L4.602-73.06C4.173-73.489 4.173-74.186 4.602-74.615C5.001-75.014 5.63-75.043 6.062-74.701ZM22.425-55.238L12.38-55.238C10.907-55.238 9.492-54.687 8.407-53.7L8.208-53.51C7.102-52.403 6.48-50.902 6.48-49.338L6.48-10.838C6.48-9.2719 7.101-7.7719 8.208-6.6649C9.314-5.5589 10.815-4.9379 12.38-4.9379L72.725-4.9379L55.477-22.186L55.155-21.803C54.301-20.829 53.324-19.969 52.248-19.244L51.84-18.979L51.462-18.748C49.549-17.623 47.412-16.933 45.203-16.728C42.993-16.523 40.766-16.807 38.679-17.56C36.593-18.314 34.698-19.517 33.128-21.086C31.56-22.655 30.356-24.55 29.602-26.637C28.85-28.724 28.566-30.951 28.771-33.16C28.976-35.369 29.665-37.506 30.8-39.434L31.038-39.825C31.883-41.163 32.931-42.358 34.15-43.372L34.228-43.435L22.425-55.238ZM54.38-67.938C54.702-67.938 55.005-67.797 55.212-67.557L55.295-67.448L61.969-57.438L75.38-57.438C77.426-57.438 79.391-56.664 80.887-55.278L81.108-55.065C82.554-53.618 83.397-51.68 83.474-49.644L83.48-49.338L83.48-16.648C83.48-16.04 82.988-15.548 82.38-15.548C81.813-15.548 81.346-15.977 81.286-16.528L81.28-16.648L81.28-49.338C81.28-50.902 80.658-52.403 79.553-53.509C78.51-54.551 77.12-55.163 75.655-55.231L75.38-55.238L61.38-55.238C61.058-55.238 60.755-55.378 60.548-55.618L60.465-55.727L53.791-65.738L33.38-65.738C32.813-65.738 32.346-66.167 32.286-66.718L32.28-66.838C32.28-67.405 32.709-67.871 33.26-67.931L33.38-67.938L54.38-67.938ZM35.791-41.872L35.495-41.63C34.483-40.778 33.609-39.775 32.907-38.665L32.687-38.304C31.726-36.669 31.136-34.844 30.961-32.957C30.786-31.069 31.029-29.166 31.672-27.384C32.316-25.601 33.344-23.982 34.684-22.642C36.024-21.302 37.644-20.273 39.426-19.629C41.209-18.986 43.112-18.744 44.999-18.919C46.886-19.094 48.712-19.683 50.347-20.645C51.63-21.399 52.77-22.369 53.719-23.509L53.913-23.75L35.791-41.872Z"/>
  </g>
 </g>
</svg>
