<?xml version="1.0" encoding="UTF-8"?>
<!--Generator: Apple Native CoreSVG 175-->
<!DOCTYPE svg
PUBLIC "-//W3C//DTD SVG 1.1//EN"
       "http://www.w3.org/Graphics/SVG/1.1/DTD/svg11.dtd">
<svg version="1.1" xmlns="http://www.w3.org/2000/svg" xmlns:xlink="http://www.w3.org/1999/xlink" width="3300" height="2200">
 <!--glyph: "", point size: 100.0, font version: "17.0d12e1", template writer version: "65.1"-->
 <style>.hierarchical-0:secondary {fill:#4D4D4D}
.hierarchical-1:primary {fill:#212121}

.SFSymbolsPreview212121 {fill:#212121;opacity:1.0}
.SFSymbolsPreview4D4D4D {fill:#4D4D4D;opacity:1.0}
</style>
 <g id="Notes">
  <rect height="2200" id="artboard" style="fill:white;opacity:1" width="3300" x="0" y="0"/>
  <line style="fill:none;stroke:black;opacity:1;stroke-width:0.5;" x1="263" x2="3036" y1="292" y2="292"/>
  <text style="stroke:none;fill:black;font-family:sans-serif;font-size:13;font-weight:bold;" transform="matrix(1 0 0 1 263 322)">Weight/Scale Variations</text>
  <text style="stroke:none;fill:black;font-family:sans-serif;font-size:13;text-anchor:middle;" transform="matrix(1 0 0 1 559.711 322)">Ultralight</text>
  <text style="stroke:none;fill:black;font-family:sans-serif;font-size:13;text-anchor:middle;" transform="matrix(1 0 0 1 856.422 322)">Thin</text>
  <text style="stroke:none;fill:black;font-family:sans-serif;font-size:13;text-anchor:middle;" transform="matrix(1 0 0 1 1153.13 322)">Light</text>
  <text style="stroke:none;fill:black;font-family:sans-serif;font-size:13;text-anchor:middle;" transform="matrix(1 0 0 1 1449.84 322)">Regular</text>
  <text style="stroke:none;fill:black;font-family:sans-serif;font-size:13;text-anchor:middle;" transform="matrix(1 0 0 1 1746.56 322)">Medium</text>
  <text style="stroke:none;fill:black;font-family:sans-serif;font-size:13;text-anchor:middle;" transform="matrix(1 0 0 1 2043.27 322)">Semibold</text>
  <text style="stroke:none;fill:black;font-family:sans-serif;font-size:13;text-anchor:middle;" transform="matrix(1 0 0 1 2339.98 322)">Bold</text>
  <text style="stroke:none;fill:black;font-family:sans-serif;font-size:13;text-anchor:middle;" transform="matrix(1 0 0 1 2636.69 322)">Heavy</text>
  <text style="stroke:none;fill:black;font-family:sans-serif;font-size:13;text-anchor:middle;" transform="matrix(1 0 0 1 2933.4 322)">Black</text>
  <line style="fill:none;stroke:black;opacity:1;stroke-width:0.5;" x1="263" x2="3036" y1="1903" y2="1903"/>
  <g transform="matrix(1 0 0 1 263 1933)">
   <path d="M9.24805 0.830078Q10.8691 0.830078 12.2949 0.214844Q13.7207-0.400391 14.8096-1.49414Q15.8984-2.58789 16.5186-4.01367Q17.1387-5.43945 17.1387-7.05078Q17.1387-8.66211 16.5186-10.0879Q15.8984-11.5137 14.8047-12.6074Q13.7109-13.7012 12.2852-14.3164Q10.8594-14.9316 9.23828-14.9316Q7.62695-14.9316 6.20117-14.3164Q4.77539-13.7012 3.69141-12.6074Q2.60742-11.5137 1.9873-10.0879Q1.36719-8.66211 1.36719-7.05078Q1.36719-5.43945 1.9873-4.01367Q2.60742-2.58789 3.69629-1.49414Q4.78516-0.400391 6.21094 0.214844Q7.63672 0.830078 9.24805 0.830078ZM9.24805-0.654297Q7.91992-0.654297 6.7627-1.14746Q5.60547-1.64062 4.73145-2.51953Q3.85742-3.39844 3.36426-4.56055Q2.87109-5.72266 2.87109-7.05078Q2.87109-8.37891 3.35938-9.54102Q3.84766-10.7031 4.72168-11.582Q5.5957-12.4609 6.75293-12.9541Q7.91016-13.4473 9.23828-13.4473Q10.5762-13.4473 11.7334-12.9541Q12.8906-12.4609 13.7695-11.582Q14.6484-10.7031 15.1465-9.54102Q15.6445-8.37891 15.6445-7.05078Q15.6445-5.72266 15.1514-4.56055Q14.6582-3.39844 13.7842-2.51953Q12.9102-1.64062 11.748-1.14746Q10.5859-0.654297 9.24805-0.654297ZM5.6543-7.05078Q5.6543-6.72852 5.85938-6.52832Q6.06445-6.32812 6.40625-6.32812L8.51562-6.32812L8.51562-4.20898Q8.51562-3.88672 8.71094-3.67676Q8.90625-3.4668 9.23828-3.4668Q9.56055-3.4668 9.77051-3.67676Q9.98047-3.88672 9.98047-4.20898L9.98047-6.32812L12.0898-6.32812Q12.4219-6.32812 12.627-6.52832Q12.832-6.72852 12.832-7.05078Q12.832-7.38281 12.627-7.58789Q12.4219-7.79297 12.0898-7.79297L9.98047-7.79297L9.98047-9.90234Q9.98047-10.2344 9.77051-10.4443Q9.56055-10.6543 9.23828-10.6543Q8.90625-10.6543 8.71094-10.4443Q8.51562-10.2344 8.51562-9.90234L8.51562-7.79297L6.40625-7.79297Q6.06445-7.79297 5.85938-7.58789Q5.6543-7.38281 5.6543-7.05078Z"/>
  </g>
  <g transform="matrix(1 0 0 1 281.867 1933)">
   <path d="M11.709 2.91016Q13.75 2.91016 15.5518 2.12891Q17.3535 1.34766 18.7305-0.0292969Q20.1074-1.40625 20.8887-3.20801Q21.6699-5.00977 21.6699-7.05078Q21.6699-9.0918 20.8887-10.8936Q20.1074-12.6953 18.7305-14.0723Q17.3535-15.4492 15.5469-16.2305Q13.7402-17.0117 11.6992-17.0117Q9.6582-17.0117 7.85645-16.2305Q6.05469-15.4492 4.68262-14.0723Q3.31055-12.6953 2.5293-10.8936Q1.74805-9.0918 1.74805-7.05078Q1.74805-5.00977 2.5293-3.20801Q3.31055-1.40625 4.6875-0.0292969Q6.06445 1.34766 7.86621 2.12891Q9.66797 2.91016 11.709 2.91016ZM11.709 1.25Q9.98047 1.25 8.47656 0.605469Q6.97266-0.0390625 5.83496-1.17676Q4.69727-2.31445 4.05762-3.81836Q3.41797-5.32227 3.41797-7.05078Q3.41797-8.7793 4.05762-10.2832Q4.69727-11.7871 5.83008-12.9297Q6.96289-14.0723 8.4668-14.7119Q9.9707-15.3516 11.6992-15.3516Q13.4277-15.3516 14.9316-14.7119Q16.4355-14.0723 17.5781-12.9297Q18.7207-11.7871 19.3652-10.2832Q20.0098-8.7793 20.0098-7.05078Q20.0098-5.32227 19.3701-3.81836Q18.7305-2.31445 17.5928-1.17676Q16.4551-0.0390625 14.9463 0.605469Q13.4375 1.25 11.709 1.25ZM7.17773-7.05078Q7.17773-6.69922 7.41211-6.47461Q7.64648-6.25 8.01758-6.25L10.8887-6.25L10.8887-3.36914Q10.8887-2.99805 11.1133-2.76855Q11.3379-2.53906 11.6895-2.53906Q12.0605-2.53906 12.29-2.76855Q12.5195-2.99805 12.5195-3.36914L12.5195-6.25L15.4004-6.25Q15.7715-6.25 16.001-6.47461Q16.2305-6.69922 16.2305-7.05078Q16.2305-7.42188 16.001-7.65137Q15.7715-7.88086 15.4004-7.88086L12.5195-7.88086L12.5195-10.752Q12.5195-11.1328 12.29-11.3623Q12.0605-11.5918 11.6895-11.5918Q11.3379-11.5918 11.1133-11.3574Q10.8887-11.123 10.8887-10.752L10.8887-7.88086L8.01758-7.88086Q7.63672-7.88086 7.40723-7.65137Q7.17773-7.42188 7.17773-7.05078Z"/>
  </g>
  <g transform="matrix(1 0 0 1 305.646 1933)">
   <path d="M14.9707 5.66406Q17.0605 5.66406 18.96 5.01465Q20.8594 4.36523 22.4512 3.19336Q24.043 2.02148 25.2197 0.429688Q26.3965-1.16211 27.0459-3.06641Q27.6953-4.9707 27.6953-7.05078Q27.6953-9.14062 27.0459-11.04Q26.3965-12.9395 25.2197-14.5312Q24.043-16.123 22.4512-17.2998Q20.8594-18.4766 18.9551-19.126Q17.0508-19.7754 14.9609-19.7754Q12.8711-19.7754 10.9717-19.126Q9.07227-18.4766 7.48535-17.2998Q5.89844-16.123 4.72168-14.5312Q3.54492-12.9395 2.90039-11.04Q2.25586-9.14062 2.25586-7.05078Q2.25586-4.9707 2.90527-3.06641Q3.55469-1.16211 4.72656 0.429688Q5.89844 2.02148 7.49023 3.19336Q9.08203 4.36523 10.9814 5.01465Q12.8809 5.66406 14.9707 5.66406ZM14.9707 3.84766Q13.1641 3.84766 11.5283 3.2959Q9.89258 2.74414 8.53516 1.74805Q7.17773 0.751953 6.17676-0.610352Q5.17578-1.97266 4.62891-3.6084Q4.08203-5.24414 4.08203-7.05078Q4.08203-8.86719 4.62891-10.5029Q5.17578-12.1387 6.17188-13.501Q7.16797-14.8633 8.52539-15.8594Q9.88281-16.8555 11.5186-17.4023Q13.1543-17.9492 14.9609-17.9492Q16.7773-17.9492 18.4131-17.4023Q20.0488-16.8555 21.4111-15.8594Q22.7734-14.8633 23.7695-13.501Q24.7656-12.1387 25.3174-10.5029Q25.8691-8.86719 25.8691-7.05078Q25.8789-5.24414 25.332-3.6084Q24.7852-1.97266 23.7842-0.610352Q22.7832 0.751953 21.4209 1.74805Q20.0586 2.74414 18.4229 3.2959Q16.7871 3.84766 14.9707 3.84766ZM9.19922-7.05078Q9.19922-6.66992 9.45801-6.4209Q9.7168-6.17188 10.1172-6.17188L14.0625-6.17188L14.0625-2.2168Q14.0625-1.81641 14.3115-1.55762Q14.5605-1.29883 14.9512-1.29883Q15.3516-1.29883 15.6104-1.55273Q15.8691-1.80664 15.8691-2.2168L15.8691-6.17188L19.8242-6.17188Q20.2246-6.17188 20.4785-6.4209Q20.7324-6.66992 20.7324-7.05078Q20.7324-7.46094 20.4785-7.71484Q20.2246-7.96875 19.8242-7.96875L15.8691-7.96875L15.8691-11.9141Q15.8691-12.3242 15.6104-12.583Q15.3516-12.8418 14.9512-12.8418Q14.5605-12.8418 14.3115-12.583Q14.0625-12.3242 14.0625-11.9141L14.0625-7.96875L10.1172-7.96875Q9.70703-7.96875 9.45312-7.71484Q9.19922-7.46094 9.19922-7.05078Z"/>
  </g>
  <text style="stroke:none;fill:black;font-family:sans-serif;font-size:13;font-weight:bold;" transform="matrix(1 0 0 1 263 1953)">Design Variations</text>
  <text style="stroke:none;fill:black;font-family:sans-serif;font-size:13;" transform="matrix(1 0 0 1 263 1971)">Symbols are supported in up to nine weights and three scales.</text>
  <text style="stroke:none;fill:black;font-family:sans-serif;font-size:13;" transform="matrix(1 0 0 1 263 1989)">For optimal layout with text and other symbols, vertically align</text>
  <text style="stroke:none;fill:black;font-family:sans-serif;font-size:13;" transform="matrix(1 0 0 1 263 2007)">symbols with the adjacent text.</text>
  <line style="fill:none;stroke:#00AEEF;stroke-width:0.5;opacity:1.0;" x1="776" x2="776" y1="1919" y2="1933"/>
  <g transform="matrix(1 0 0 1 776 1933)">
   <path d="M3.31055 0.15625Q3.70117 0.15625 3.91602-0.00976562Q4.13086-0.175781 4.26758-0.585938L5.52734-4.0332L11.2891-4.0332L12.5488-0.585938Q12.6855-0.175781 12.9004-0.00976562Q13.1152 0.15625 13.4961 0.15625Q13.8867 0.15625 14.1162-0.0585938Q14.3457-0.273438 14.3457-0.644531Q14.3457-0.869141 14.2383-1.17188L9.6582-13.3691Q9.48242-13.8184 9.17969-14.043Q8.87695-14.2676 8.4082-14.2676Q7.5-14.2676 7.17773-13.3789L2.59766-1.16211Q2.49023-0.859375 2.49023-0.634766Q2.49023-0.263672 2.70996-0.0537109Q2.92969 0.15625 3.31055 0.15625ZM6.00586-5.51758L8.37891-12.0898L8.42773-12.0898L10.8008-5.51758Z"/>
  </g>
  <line style="fill:none;stroke:#00AEEF;stroke-width:0.5;opacity:1.0;" x1="793.197" x2="793.197" y1="1919" y2="1933"/>
  <text style="stroke:none;fill:black;font-family:sans-serif;font-size:13;font-weight:bold;" transform="matrix(1 0 0 1 776 1953)">Margins</text>
  <text style="stroke:none;fill:black;font-family:sans-serif;font-size:13;" transform="matrix(1 0 0 1 776 1971)">Leading and trailing margins on the left and right side of each symbol</text>
  <text style="stroke:none;fill:black;font-family:sans-serif;font-size:13;" transform="matrix(1 0 0 1 776 1989)">can be adjusted by modifying the x-location of the margin guidelines.</text>
  <text style="stroke:none;fill:black;font-family:sans-serif;font-size:13;" transform="matrix(1 0 0 1 776 2007)">Modifications are automatically applied proportionally to all</text>
  <text style="stroke:none;fill:black;font-family:sans-serif;font-size:13;" transform="matrix(1 0 0 1 776 2025)">scales and weights.</text>
  <g transform="matrix(1 0 0 1 1289 1933)">
   <path d="M2.8418 1.86523L4.54102 3.57422Q5.18555 4.22852 5.90332 4.17969Q6.62109 4.13086 7.31445 3.35938L18.0078-8.42773L17.041-9.4043L6.42578 2.27539Q6.16211 2.57812 5.89355 2.61719Q5.625 2.65625 5.27344 2.30469L4.10156 1.14258Q3.75 0.791016 3.79395 0.522461Q3.83789 0.253906 4.14062-0.0195312L15.6152-10.8203L14.6387-11.7871L3.04688-0.898438Q2.30469-0.214844 2.25098 0.498047Q2.19727 1.21094 2.8418 1.86523ZM9.25781-16.3281Q8.94531-16.0254 8.90625-15.6348Q8.86719-15.2441 9.04297-14.9512Q9.21875-14.6777 9.55566-14.541Q9.89258-14.4043 10.3809-14.5215Q11.4746-14.7754 12.5977-14.7314Q13.7207-14.6875 14.7949-13.9844L14.209-12.5293Q13.9551-11.9043 14.0674-11.4404Q14.1797-10.9766 14.5801-10.5664L16.875-8.25195Q17.2363-7.88086 17.5781-7.82227Q17.9199-7.76367 18.3398-7.8418L19.4043-8.03711L20.0684-7.36328L20.0293-6.80664Q20-6.43555 20.1221-6.12305Q20.2441-5.81055 20.6055-5.44922L21.3672-4.70703Q21.7285-4.3457 22.1533-4.33105Q22.5781-4.31641 22.9297-4.66797L25.8398-7.58789Q26.1914-7.93945 26.1816-8.35449Q26.1719-8.76953 25.8105-9.13086L25.0391-9.89258Q24.6875-10.2539 24.3799-10.3857Q24.0723-10.5176 23.7109-10.4883L23.1348-10.4395L22.4902-11.0742L22.7344-12.1973Q22.832-12.6172 22.6953-12.9834Q22.5586-13.3496 22.1191-13.7891L19.9219-15.9766Q18.6719-17.2168 17.2607-17.8369Q15.8496-18.457 14.4189-18.4814Q12.9883-18.5059 11.665-17.959Q10.3418-17.4121 9.25781-16.3281ZM10.752-15.957Q11.6602-16.6211 12.7002-16.9043Q13.7402-17.1875 14.8047-17.085Q15.8691-16.9824 16.8701-16.5137Q17.8711-16.0449 18.7012-15.2051L21.1328-12.793Q21.3086-12.6172 21.3525-12.4512Q21.3965-12.2852 21.3379-12.0312L21.0156-10.5469L22.5195-9.0625L23.5059-9.12109Q23.6914-9.13086 23.7891-9.09668Q23.8867-9.0625 24.0332-8.91602L24.6094-8.33984L22.168-5.89844L21.5918-6.47461Q21.4453-6.62109 21.4062-6.71875Q21.3672-6.81641 21.377-7.01172L21.4453-7.98828L19.9512-9.47266L18.4277-9.21875Q18.1836-9.16992 18.042-9.2041Q17.9004-9.23828 17.7148-9.41406L15.7129-11.416Q15.5176-11.5918 15.4932-11.7529Q15.4688-11.9141 15.5859-12.1875L16.4648-14.2773Q15.293-15.3711 13.8281-15.791Q12.3633-16.2109 10.8398-15.7617Q10.7227-15.7324 10.6885-15.8057Q10.6543-15.8789 10.752-15.957Z"/>
  </g>
  <text style="stroke:none;fill:black;font-family:sans-serif;font-size:13;font-weight:bold;" transform="matrix(1 0 0 1 1289 1953)">Exporting</text>
  <text style="stroke:none;fill:black;font-family:sans-serif;font-size:13;" transform="matrix(1 0 0 1 1289 1971)">Symbols should be outlined when exporting to ensure the</text>
  <text style="stroke:none;fill:black;font-family:sans-serif;font-size:13;" transform="matrix(1 0 0 1 1289 1989)">design is preserved when submitting to Xcode.</text>
  <text id="template-version" style="stroke:none;fill:black;font-family:sans-serif;font-size:13;text-anchor:end;" transform="matrix(1 0 0 1 3036 1933)">Template v.3.0</text>
  <text style="stroke:none;fill:black;font-family:sans-serif;font-size:13;text-anchor:end;" transform="matrix(1 0 0 1 3036 1951)">Requires Xcode 13 or greater</text>
  <text id="descriptive-name" style="stroke:none;fill:black;font-family:sans-serif;font-size:13;text-anchor:end;" transform="matrix(1 0 0 1 3036 1969)">Generated from smile</text>
  <text style="stroke:none;fill:black;font-family:sans-serif;font-size:13;text-anchor:end;" transform="matrix(1 0 0 1 3036 1987)">Typeset at 100 points</text>
  <text style="stroke:none;fill:black;font-family:sans-serif;font-size:13;" transform="matrix(1 0 0 1 263 726)">Small</text>
  <text style="stroke:none;fill:black;font-family:sans-serif;font-size:13;" transform="matrix(1 0 0 1 263 1156)">Medium</text>
  <text style="stroke:none;fill:black;font-family:sans-serif;font-size:13;" transform="matrix(1 0 0 1 263 1586)">Large</text>
 </g>
 <g id="Guides">
  <g id="H-reference" style="fill:#27AAE1;stroke:none;" transform="matrix(1 0 0 1 339 696)">
   <path d="M0.976562 0L3.66211 0L29.3457-67.1387L30.0293-67.1387L30.0293-70.459L28.125-70.459ZM11.6699-24.4629L46.9727-24.4629L46.2402-26.709L12.4512-26.709ZM55.127 0L57.7637 0L30.6152-70.459L29.4434-70.459L29.4434-67.1387Z"/>
  </g>
  <line id="Baseline-S" style="fill:none;stroke:#27AAE1;opacity:1;stroke-width:0.5;" x1="263" x2="3036" y1="696" y2="696"/>
  <line id="Capline-S" style="fill:none;stroke:#27AAE1;opacity:1;stroke-width:0.5;" x1="263" x2="3036" y1="625.541" y2="625.541"/>
  <g id="H-reference" style="fill:#27AAE1;stroke:none;" transform="matrix(1 0 0 1 339 1126)">
   <path d="M0.976562 0L3.66211 0L29.3457-67.1387L30.0293-67.1387L30.0293-70.459L28.125-70.459ZM11.6699-24.4629L46.9727-24.4629L46.2402-26.709L12.4512-26.709ZM55.127 0L57.7637 0L30.6152-70.459L29.4434-70.459L29.4434-67.1387Z"/>
  </g>
  <line id="Baseline-M" style="fill:none;stroke:#27AAE1;opacity:1;stroke-width:0.5;" x1="263" x2="3036" y1="1126" y2="1126"/>
  <line id="Capline-M" style="fill:none;stroke:#27AAE1;opacity:1;stroke-width:0.5;" x1="263" x2="3036" y1="1055.54" y2="1055.54"/>
  <g id="H-reference" style="fill:#27AAE1;stroke:none;" transform="matrix(1 0 0 1 339 1556)">
   <path d="M0.976562 0L3.66211 0L29.3457-67.1387L30.0293-67.1387L30.0293-70.459L28.125-70.459ZM11.6699-24.4629L46.9727-24.4629L46.2402-26.709L12.4512-26.709ZM55.127 0L57.7637 0L30.6152-70.459L29.4434-70.459L29.4434-67.1387Z"/>
  </g>
  <line id="Baseline-L" style="fill:none;stroke:#27AAE1;opacity:1;stroke-width:0.5;" x1="263" x2="3036" y1="1556" y2="1556"/>
  <line id="Capline-L" style="fill:none;stroke:#27AAE1;opacity:1;stroke-width:0.5;" x1="263" x2="3036" y1="1485.54" y2="1485.54"/>
  <line id="left-margin-Regular-M" style="fill:none;stroke:#00AEEF;stroke-width:0.5;opacity:1.0;" x1="1392.45" x2="1392.45" y1="1030.78" y2="1150.12"/>
  <line id="right-margin-Regular-M" style="fill:none;stroke:#00AEEF;stroke-width:0.5;opacity:1.0;" x1="1507.24" x2="1507.24" y1="1030.78" y2="1150.12"/>
 </g>
 <g id="Symbols">
  <g id="Black-L" transform="matrix(1 0 0 1 2860.15 1556)">
   <path class="hierarchical-0:secondary SFSymbolsPreview4D4D4D" d="M73.4-99.21C38.07-99.21 9.43-70.56 9.43-35.23C9.43 0.1 38.07 28.74 73.4 28.74C108.73 28.74 137.38 0.1 137.38-35.23C137.38-70.56 108.73-99.21 73.4-99.21ZM73.4-85.01C100.89-85.01 123.18-62.72 123.18-35.23C123.18-7.74 100.89 14.54 73.4 14.54C45.91 14.54 23.63-7.74 23.63-35.23C23.63-62.72 45.91-85.01 73.4-85.01Z"/>
   <path class="hierarchical-1:primary SFSymbolsPreview212121" d="M90.63-28.32C93.02-31.28 97.34-31.84 100.41-29.54C103.55-27.19 104.18-22.74 101.83-19.6L101.59-19.29L101.31-18.94L100.98-18.55C100.92-18.48 100.86-18.41 100.8-18.34L100.4-17.9L99.96-17.42C99.88-17.34 99.8-17.25 99.72-17.17C98.17-15.55 96.36-13.93 94.29-12.43C88.27-8.05 81.26-5.38 73.4-5.38C65.54-5.38 58.54-8.05 52.52-12.43C50.45-13.93 48.63-15.55 47.08-17.17L46.61-17.66C46.54-17.74 46.47-17.82 46.4-17.9L46-18.34L45.65-18.75C45.6-18.82 45.54-18.88 45.49-18.94L45.21-19.29L44.97-19.6C42.62-22.74 43.25-27.19 46.39-29.54C49.46-31.84 53.78-31.28 56.17-28.32L56.48-27.93L56.79-27.58L57.14-27.2C57.2-27.13 57.27-27.06 57.33-26.99C58.33-25.95 59.52-24.89 60.87-23.91C64.63-21.18 68.82-19.58 73.4-19.58C77.98-19.58 82.18-21.18 85.93-23.91C87.28-24.89 88.47-25.95 89.47-26.99L89.66-27.2L90.02-27.58L90.32-27.93L90.47-28.12L90.63-28.32ZM56.39-59.39C60.31-59.39 63.49-56.21 63.49-52.29C63.49-48.45 60.44-45.32 56.63-45.19L56.34-45.19C52.42-45.19 49.24-48.37 49.24-52.29C49.24-56.13 52.29-59.26 56.1-59.38L56.39-59.39ZM90.52-59.39C94.44-59.39 97.62-56.21 97.62-52.29C97.62-48.45 94.57-45.32 90.76-45.19L90.46-45.19C86.54-45.19 83.36-48.37 83.36-52.29C83.36-56.13 86.41-59.26 90.22-59.38L90.52-59.39Z"/>
  </g>
  <g id="Heavy-L" transform="matrix(1 0 0 1 2564.29 1556)">
   <path class="hierarchical-0:secondary SFSymbolsPreview4D4D4D" d="M72.56-98.36C37.7-98.36 9.43-70.09 9.43-35.23C9.43-0.37 37.7 27.89 72.56 27.89C107.42 27.89 135.68-0.37 135.68-35.23C135.68-70.09 107.42-98.36 72.56-98.36ZM72.56-85.86C100.52-85.86 123.18-63.19 123.18-35.23C123.18-7.27 100.52 15.39 72.56 15.39C44.6 15.39 21.93-7.27 21.93-35.23C21.93-63.19 44.6-85.86 72.56-85.86Z"/>
   <path class="hierarchical-1:primary SFSymbolsPreview212121" d="M90.31-27.61C92.38-30.37 96.3-30.93 99.06-28.86C101.82-26.79 102.38-22.87 100.31-20.11L100.08-19.81L99.81-19.48L99.49-19.1L99.13-18.69L98.72-18.24C98.58-18.08 98.43-17.92 98.27-17.76C96.75-16.17 94.97-14.59 92.95-13.12C87.06-8.83 80.23-6.23 72.56-6.23C64.89-6.23 58.06-8.83 52.18-13.12C50.15-14.59 48.37-16.17 46.85-17.76L46.62-18L46.19-18.47L45.8-18.9C45.74-18.97 45.69-19.03 45.63-19.1L45.31-19.48L45.04-19.81L44.81-20.11C42.74-22.87 43.3-26.79 46.06-28.86C48.76-30.88 52.56-30.39 54.66-27.8L54.89-27.5L55.09-27.27L55.37-26.95L55.74-26.55C55.78-26.5 55.83-26.45 55.88-26.4C56.91-25.33 58.14-24.24 59.53-23.22C63.42-20.39 67.78-18.73 72.56-18.73C77.34-18.73 81.7-20.39 85.59-23.22C86.98-24.24 88.21-25.33 89.24-26.4L89.64-26.83L89.95-27.17L90.23-27.5L90.31-27.61ZM55.55-58.54C59-58.54 61.8-55.74 61.8-52.29C61.8-48.91 59.13-46.16 55.78-46.04L55.5-46.04C52.05-46.04 49.25-48.84 49.25-52.29C49.25-55.66 51.93-58.41 55.27-58.53L55.55-58.54ZM89.68-58.54C93.13-58.54 95.93-55.74 95.93-52.29C95.93-48.91 93.26-46.16 89.91-46.04L89.62-46.04C86.17-46.04 83.37-48.84 83.37-52.29C83.37-55.66 86.05-58.41 89.39-58.53L89.68-58.54Z"/>
  </g>
  <g id="Bold-L" transform="matrix(1 0 0 1 2268.53 1556)">
   <path class="hierarchical-0:secondary SFSymbolsPreview4D4D4D" d="M71.61-97.41C37.27-97.41 9.43-69.57 9.43-35.23C9.43-0.89 37.26 26.94 71.61 26.94C105.95 26.94 133.78-0.89 133.78-35.23C133.78-69.57 105.95-97.41 71.61-97.41ZM71.61-86.81C100.09-86.81 123.18-63.72 123.18-35.23C123.18-6.75 100.09 16.34 71.61 16.34C43.12 16.34 20.03-6.75 20.03-35.23C20.03-63.72 43.12-86.81 71.61-86.81Z"/>
   <path class="hierarchical-1:primary SFSymbolsPreview212121" d="M90.12-27.04C91.88-29.38 95.2-29.86 97.54-28.1C99.88-26.34 100.36-23.02 98.6-20.68L98.38-20.4L98.12-20.07L97.81-19.71L97.46-19.31L97.07-18.88C96.93-18.73 96.78-18.57 96.63-18.41C95.14-16.86 93.41-15.32 91.43-13.88C85.7-9.71 79.05-7.18 71.61-7.18C64.16-7.18 57.52-9.71 51.78-13.88C49.81-15.32 48.07-16.87 46.59-18.42L46.15-18.88C46.08-18.96 46.01-19.03 45.95-19.1L45.57-19.52C45.52-19.59 45.46-19.65 45.4-19.71L45.1-20.08L44.84-20.4C44.76-20.5 44.68-20.59 44.62-20.68C42.86-23.02 43.34-26.35 45.68-28.1C47.96-29.81 51.16-29.41 52.95-27.23L53.19-26.92L53.41-26.67L53.71-26.32L53.96-26.05L54.24-25.75C55.31-24.63 56.58-23.5 58.02-22.46C62.06-19.51 66.61-17.78 71.61-17.78C76.6-17.78 81.15-19.51 85.2-22.46C86.64-23.51 87.91-24.63 88.98-25.75L89.39-26.19L89.62-26.45L89.9-26.76L90.08-26.99L90.12-27.04ZM54.6-57.59C57.53-57.59 59.9-55.22 59.9-52.29C59.9-49.44 57.64-47.11 54.82-46.99L54.54-46.99C51.61-46.99 49.24-49.36 49.24-52.29C49.24-55.14 51.5-57.47 54.32-57.59L54.6-57.59ZM88.72-57.59C91.65-57.59 94.02-55.22 94.02-52.29C94.02-49.44 91.76-47.11 88.94-46.99L88.67-46.99C85.74-46.99 83.37-49.36 83.37-52.29C83.37-55.14 85.63-57.47 88.45-57.59L88.72-57.59Z"/>
  </g>
  <g id="Semibold-L" transform="matrix(1 0 0 1 1972.46 1556)">
   <path class="hierarchical-0:secondary SFSymbolsPreview4D4D4D" d="M70.96-96.76C36.98-96.76 9.43-69.21 9.43-35.23C9.43-1.25 36.98 26.29 70.96 26.29C104.94 26.29 132.49-1.25 132.49-35.23C132.49-69.21 104.94-96.76 70.96-96.76ZM70.96-87.46C99.8-87.46 123.19-64.07 123.19-35.23C123.19-6.39 99.8 16.99 70.96 16.99C42.12 16.99 18.73-6.39 18.73-35.23C18.73-64.07 42.12-87.46 70.96-87.46Z"/>
   <path class="hierarchical-1:primary SFSymbolsPreview212121" d="M89.99-26.65C91.53-28.7 94.44-29.12 96.5-27.58C98.55-26.04 98.97-23.13 97.43-21.07L97.22-20.8L96.97-20.49L96.67-20.13L96.33-19.74L95.94-19.32L95.51-18.86C94.05-17.34 92.35-15.83 90.4-14.41C84.77-10.31 78.26-7.83 70.96-7.83C63.66-7.83 57.15-10.31 51.52-14.41C49.57-15.83 47.87-17.34 46.41-18.86L45.98-19.32L45.59-19.74L45.25-20.13L44.95-20.49L44.7-20.8L44.49-21.07C42.95-23.13 43.37-26.04 45.42-27.58C47.41-29.07 50.22-28.73 51.79-26.83L52.03-26.52L52.26-26.25L52.46-26.02L52.83-25.61L53.12-25.3C54.22-24.15 55.51-23 56.99-21.93C61.13-18.91 65.81-17.13 70.96-17.13C76.11-17.13 80.79-18.91 84.93-21.93C86.41-23 87.7-24.15 88.8-25.3L89.09-25.61L89.47-26.02L89.75-26.35L89.89-26.52L89.99-26.65ZM53.95-56.94C56.52-56.94 58.6-54.86 58.6-52.29C58.6-49.79 56.63-47.76 54.16-47.64L53.9-47.64C51.33-47.64 49.25-49.72 49.25-52.29C49.25-54.79 51.22-56.82 53.69-56.93L53.95-56.94ZM88.08-56.94C90.65-56.94 92.73-54.86 92.73-52.29C92.73-49.79 90.76-47.76 88.29-47.64L88.02-47.64C85.45-47.64 83.37-49.72 83.37-52.29C83.37-54.79 85.34-56.82 87.81-56.93L88.08-56.94Z"/>
  </g>
  <g id="Medium-L" transform="matrix(1 0 0 1 1676.25 1556)">
   <path class="hierarchical-0:secondary SFSymbolsPreview4D4D4D" d="M70.46-96.26C36.76-96.26 9.43-68.93 9.43-35.23C9.43-1.53 36.76 25.79 70.46 25.79C104.16 25.79 131.49-1.53 131.49-35.23C131.49-68.93 104.16-96.26 70.46-96.26ZM70.46-87.96C99.58-87.96 123.19-64.35 123.19-35.23C123.19-6.11 99.58 17.49 70.46 17.49C41.34 17.49 17.73-6.11 17.73-35.23C17.73-64.35 41.34-87.96 70.46-87.96Z"/>
   <path class="hierarchical-1:primary SFSymbolsPreview212121" d="M89.89-26.35C91.26-28.18 93.87-28.55 95.7-27.18C97.53-25.81 97.91-23.2 96.53-21.37L96.33-21.11C96.29-21.06 96.25-21.01 96.21-20.96L95.94-20.63L95.63-20.27L95.27-19.87L94.87-19.44C94.8-19.36 94.73-19.29 94.65-19.21C93.21-17.71 91.53-16.21 89.61-14.81C84.06-10.78 77.64-8.33 70.46-8.33C63.28-8.33 56.86-10.78 51.31-14.81C49.39-16.21 47.71-17.71 46.27-19.21L45.85-19.66L45.47-20.08C45.41-20.14 45.35-20.21 45.29-20.27L44.98-20.63L44.71-20.96L44.49-21.24C44.45-21.29 44.42-21.33 44.39-21.37C43.01-23.2 43.39-25.81 45.22-27.18C47-28.51 49.49-28.2 50.89-26.52L51.22-26.12L51.28-26.04C51.55-25.72 51.88-25.35 52.26-24.95C53.38-23.79 54.69-22.62 56.19-21.53C60.42-18.45 65.2-16.63 70.46-16.63C75.72-16.63 80.5-18.45 84.73-21.53C86.23-22.62 87.54-23.79 88.66-24.95C88.96-25.27 89.23-25.57 89.47-25.84L89.7-26.12L89.89-26.35ZM53.45-56.44C55.74-56.44 57.6-54.58 57.6-52.29C57.6-50.07 55.85-48.25 53.66-48.14L53.4-48.14C51.11-48.14 49.25-50 49.25-52.29C49.25-54.51 51-56.33 53.19-56.43L53.45-56.44ZM87.58-56.44C89.87-56.44 91.73-54.58 91.73-52.29C91.73-50.07 89.98-48.25 87.79-48.14L87.52-48.14C85.23-48.14 83.37-50 83.37-52.29C83.37-54.51 85.12-56.33 87.31-56.43L87.58-56.44Z"/>
  </g>
  <g id="Regular-L" transform="matrix(1 0 0 1 1380.19 1556)">
   <path class="hierarchical-0:secondary SFSymbolsPreview4D4D4D" d="M69.81-95.61C36.47-95.61 9.43-68.57 9.43-35.23C9.43-1.89 36.47 25.14 69.81 25.14C103.15 25.14 130.19-1.89 130.19-35.23C130.19-68.57 103.15-95.61 69.81-95.61ZM69.81-88.61C99.29-88.61 123.19-64.71 123.19-35.23C123.19-5.75 99.29 18.14 69.81 18.14C40.33 18.14 16.43-5.75 16.43-35.23C16.43-64.71 40.33-88.61 69.81-88.61Z"/>
   <path class="hierarchical-1:primary SFSymbolsPreview212121" d="M89.76-25.96C90.92-27.51 93.11-27.82 94.66-26.66C96.21-25.5 96.52-23.31 95.36-21.76L95.17-21.51L94.93-21.21L94.64-20.88C94.59-20.82 94.54-20.76 94.48-20.69L94.14-20.31L93.74-19.88C93.68-19.81 93.61-19.74 93.53-19.66C92.12-18.18 90.46-16.71 88.58-15.34C83.13-11.38 76.84-8.98 69.81-8.98C62.78-8.98 56.49-11.38 51.04-15.34C49.16-16.71 47.5-18.18 46.09-19.66L45.88-19.88L45.48-20.31L45.14-20.69L44.83-21.05L44.57-21.36L44.35-21.64C44.32-21.68 44.29-21.72 44.26-21.76C43.1-23.31 43.41-25.5 44.96-26.66C46.45-27.78 48.55-27.53 49.74-26.11L50-25.78L50.14-25.62C50.41-25.29 50.75-24.91 51.14-24.5C52.28-23.31 53.63-22.12 55.16-21C59.49-17.85 64.4-15.98 69.81-15.98C75.22-15.98 80.13-17.85 84.46-21C85.99-22.12 87.34-23.31 88.48-24.5C88.79-24.83 89.07-25.14 89.31-25.42L89.71-25.89L89.76-25.96ZM52.8-55.79C54.73-55.79 56.3-54.22 56.3-52.29C56.3-50.42 54.84-48.89 52.99-48.79L52.75-48.79C50.82-48.79 49.25-50.36 49.25-52.29C49.25-54.16 50.71-55.68 52.56-55.78L52.8-55.79ZM86.93-55.79C88.86-55.79 90.43-54.22 90.43-52.29C90.43-50.42 88.97-48.89 87.12-48.79L86.87-48.79C84.94-48.79 83.37-50.36 83.37-52.29C83.37-54.16 84.83-55.68 86.68-55.78L86.87-55.79L86.93-55.79Z"/>
  </g>
  <g id="Light-L" transform="matrix(1 0 0 1 1084.28 1556)">
   <path class="hierarchical-0:secondary SFSymbolsPreview4D4D4D" d="M69.01-94.81C36.11-94.81 9.43-68.13 9.43-35.23C9.43-2.33 36.11 24.34 69.01 24.34C101.91 24.34 128.59-2.33 128.59-35.23C128.59-68.13 101.91-94.81 69.01-94.81ZM69.01-89.41C98.93-89.41 123.19-65.15 123.19-35.23C123.19-5.31 98.93 18.94 69.01 18.94C39.09 18.94 14.83-5.31 14.83-35.23C14.83-65.15 39.09-89.41 69.01-89.41Z"/>
   <path class="hierarchical-1:primary SFSymbolsPreview212121" d="M89.6-25.48C90.49-26.67 92.19-26.92 93.38-26.02C94.57-25.13 94.81-23.43 93.92-22.24L93.73-22L93.5-21.72L93.23-21.39L92.92-21.03L92.56-20.64L92.15-20.21C90.77-18.77 89.15-17.33 87.31-15.99C81.99-12.12 75.86-9.78 69.01-9.78C62.16-9.78 56.03-12.12 50.71-15.99C48.87-17.33 47.25-18.77 45.87-20.21L45.46-20.64L45.1-21.03L44.79-21.39L44.52-21.72L44.29-22L44.1-22.24C43.21-23.43 43.45-25.13 44.64-26.02C45.79-26.88 47.39-26.69 48.31-25.62L48.65-25.2L48.72-25.11C49.01-24.76 49.36-24.37 49.76-23.95C50.94-22.73 52.32-21.5 53.89-20.35C58.35-17.11 63.41-15.18 69.01-15.18C74.61-15.18 79.67-17.11 84.13-20.35C85.7-21.5 87.08-22.73 88.26-23.95C88.5-24.2 88.72-24.45 88.92-24.67L89.3-25.11L89.58-25.45L89.6-25.48ZM52-54.99C53.49-54.99 54.7-53.78 54.7-52.29C54.7-50.86 53.58-49.68 52.17-49.6L51.95-49.59C50.46-49.59 49.25-50.8 49.25-52.29C49.25-53.72 50.37-54.9 51.78-54.98L52-54.99ZM86.13-54.99C87.62-54.99 88.83-53.78 88.83-52.29C88.83-50.86 87.71-49.68 86.3-49.6L86.07-49.59C84.58-49.59 83.37-50.8 83.37-52.29C83.37-53.72 84.49-54.9 85.9-54.98L86.07-54.99L86.13-54.99Z"/>
  </g>
  <g id="Thin-L" transform="matrix(1 0 0 1 788.622 1556)">
   <path class="hierarchical-0:secondary SFSymbolsPreview4D4D4D" d="M67.955-93.76C35.634-93.76 9.43-67.55 9.43-35.23C9.43-2.91 35.632 23.29 67.955 23.29C100.277 23.29 126.48-2.91 126.48-35.23C126.48-67.55 100.276-93.76 67.955-93.76ZM67.955-90.46C98.453-90.46 123.18-65.73 123.18-35.23C123.18-4.73 98.455 19.99 67.955 19.99C37.454 19.99 12.73-4.73 12.73-35.23C12.73-65.73 37.456-90.46 67.955-90.46Z"/>
   <path class="hierarchical-1:primary SFSymbolsPreview212121" d="M89.384-24.85C89.931-25.58 90.965-25.73 91.694-25.18C92.424-24.63 92.572-23.6 92.025-22.87L91.851-22.64C91.818-22.6 91.784-22.56 91.748-22.52L91.509-22.23L91.228-21.9L90.905-21.54L90.54-21.15C90.475-21.08 90.409-21.01 90.341-20.94C88.999-19.54 87.427-18.14 85.633-16.84C80.482-13.09 74.557-10.83 67.955-10.83C61.353-10.83 55.428-13.09 50.277-16.84C48.483-18.14 46.91-19.54 45.568-20.94L45.182-21.35L44.837-21.73L44.535-22.07L44.275-22.38C44.236-22.43 44.198-22.47 44.162-22.52L43.884-22.87C43.338-23.6 43.486-24.63 44.215-25.18C44.901-25.69 45.858-25.59 46.424-24.97L46.525-24.85L46.78-24.53L46.863-24.43C47.167-24.07 47.53-23.66 47.951-23.22C49.164-21.96 50.591-20.69 52.218-19.5C56.843-16.14 62.115-14.13 67.955-14.13C73.794-14.13 79.066-16.14 83.691-19.5C85.318-20.69 86.745-21.96 87.958-23.22C88.295-23.57 88.595-23.91 88.857-24.21L89.129-24.53L89.314-24.76L89.384-24.85ZM50.949-53.94C51.86-53.94 52.599-53.2 52.599-52.29C52.599-51.43 51.936-50.72 51.091-50.65L50.949-50.64L50.893-50.64C49.982-50.64 49.243-51.38 49.243-52.29C49.243-53.15 49.906-53.86 50.751-53.93L50.893-53.94L50.949-53.94ZM85.073-53.94C85.984-53.94 86.723-53.2 86.723-52.29C86.723-51.43 86.06-50.72 85.215-50.65L85.073-50.64L85.016-50.64C84.105-50.64 83.366-51.38 83.366-52.29C83.366-53.15 84.029-53.86 84.874-53.93L85.016-53.94L85.073-53.94Z"/>
  </g>
  <g id="Ultralight-L" transform="matrix(1 0 0 1 492.461 1556)">
   <path class="hierarchical-0:secondary SFSymbolsPreview4D4D4D" d="M67.405-93.21C35.388-93.21 9.43-67.25 9.43-35.23C9.43-3.21 35.386 22.74 67.405 22.74C99.424 22.74 125.38-3.21 125.38-35.23C125.38-67.25 99.423-93.21 67.405-93.21ZM67.405-91.01C98.208-91.01 123.18-66.03 123.18-35.23C123.18-4.43 98.21 20.54 67.405 20.54C36.601 20.54 11.63-4.43 11.63-35.23C11.63-66.03 36.603-91.01 67.405-91.01Z"/>
   <path class="hierarchical-1:primary SFSymbolsPreview212121" d="M89.275-24.52C89.64-25 90.329-25.1 90.815-24.74C91.301-24.37 91.4-23.69 91.036-23.2L90.869-22.99L90.703-22.78L90.392-22.41L89.923-21.88C89.756-21.7 89.58-21.51 89.395-21.32C88.074-19.94 86.526-18.56 84.76-17.28C79.697-13.6 73.88-11.38 67.405-11.38C60.93-11.38 55.114-13.6 50.051-17.28C48.285-18.56 46.737-19.94 45.416-21.32C45.231-21.51 45.055-21.7 44.888-21.88L44.419-22.41L44.108-22.78L43.82-23.14C43.803-23.16 43.788-23.18 43.775-23.2C43.411-23.69 43.51-24.37 43.996-24.74C44.482-25.1 45.171-25 45.536-24.52L45.731-24.27L45.893-24.08C46.204-23.71 46.575-23.29 47.005-22.84C48.239-21.55 49.691-20.26 51.346-19.06C56.058-15.63 61.439-13.58 67.405-13.58C73.372-13.58 78.753-15.63 83.465-19.06C85.12-20.26 86.572-21.55 87.806-22.84C88.15-23.2 88.456-23.54 88.724-23.85L89.08-24.27L89.243-24.48C89.255-24.49 89.266-24.51 89.275-24.52ZM50.4-53.39C51.007-53.39 51.5-52.9 51.5-52.29C51.5-51.72 51.071-51.25 50.52-51.2L50.4-51.19L50.344-51.19C49.736-51.19 49.244-51.68 49.244-52.29C49.244-52.86 49.673-53.32 50.224-53.38L50.344-53.39L50.4-53.39ZM84.524-53.39C85.131-53.39 85.624-52.9 85.624-52.29C85.624-51.72 85.195-51.25 84.644-51.2L84.524-51.19L84.467-51.19C83.859-51.19 83.367-51.68 83.367-52.29C83.367-52.86 83.796-53.32 84.347-53.38L84.467-53.39L84.524-53.39Z"/>
  </g>
  <g id="Black-M" transform="matrix(1 0 0 1 2872.4 1126)">
   <path class="hierarchical-0:secondary SFSymbolsPreview4D4D4D" d="M61.15-86.96C32.59-86.96 9.43-63.8 9.43-35.23C9.43-6.66 32.59 16.49 61.15 16.49C89.72 16.49 112.88-6.66 112.88-35.23C112.88-63.8 89.72-86.96 61.15-86.96ZM61.15-72.76C81.88-72.76 98.68-55.96 98.68-35.23C98.68-14.5 81.88 2.29 61.15 2.29C40.43 2.29 23.63-14.5 23.63-35.23C23.63-55.96 40.43-72.76 61.15-72.76Z"/>
   <path class="hierarchical-1:primary SFSymbolsPreview212121" d="M48.82-30.77L48.99-30.55L49.05-30.48C49.2-30.29 49.4-30.07 49.64-29.82C50.37-29.06 51.23-28.3 52.22-27.58C54.92-25.62 57.91-24.48 61.15-24.48C64.39-24.48 67.38-25.62 70.09-27.58C71.07-28.3 71.93-29.06 72.66-29.82C72.84-30.01 72.99-30.18 73.13-30.33L73.32-30.56L73.48-30.76C75.87-33.72 80.19-34.28 83.26-31.98C86.4-29.63 87.03-25.17 84.68-22.04L84.56-21.88L84.29-21.54C84.24-21.47 84.18-21.41 84.13-21.35L83.77-20.93C83.52-20.64 83.23-20.33 82.91-19.99C81.63-18.66 80.14-17.33 78.44-16.1C73.47-12.48 67.67-10.28 61.15-10.28C54.63-10.28 48.84-12.48 43.87-16.09C42.17-17.33 40.68-18.65 39.4-19.99C39.07-20.33 38.79-20.64 38.53-20.93L38.18-21.34C38.12-21.41 38.07-21.47 38.02-21.53L37.74-21.88C37.7-21.93 37.66-21.98 37.62-22.03C35.27-25.17 35.9-29.62 39.04-31.97C42.1-34.28 46.43-33.72 48.82-30.77ZM47.81-55.72C51.73-55.72 54.91-52.54 54.91-48.62C54.91-44.78 51.86-41.65 48.05-41.52L47.77-41.52C43.85-41.52 40.67-44.7 40.67-48.62C40.67-52.46 43.72-55.59 47.53-55.71L47.81-55.72ZM74.59-55.72C78.51-55.72 81.69-52.54 81.69-48.62C81.69-44.78 78.64-41.65 74.83-41.52L74.54-41.52C70.62-41.52 67.44-44.7 67.44-48.62C67.44-52.46 70.49-55.59 74.3-55.71L74.59-55.72Z"/>
  </g>
  <g id="Heavy-M" transform="matrix(1 0 0 1 2576.54 1126)">
   <path class="hierarchical-0:secondary SFSymbolsPreview4D4D4D" d="M60.3-86.11C32.21-86.11 9.43-63.33 9.43-35.23C9.43-7.13 32.21 15.64 60.3 15.64C88.4 15.64 111.18-7.13 111.18-35.23C111.18-63.33 88.4-86.11 60.3-86.11ZM60.3-73.61C81.5-73.61 98.68-56.43 98.68-35.23C98.68-14.03 81.5 3.14 60.3 3.14C39.11 3.14 21.93-14.03 21.93-35.23C21.93-56.43 39.11-73.61 60.3-73.61Z"/>
   <path class="hierarchical-1:primary SFSymbolsPreview212121" d="M73.3-30.24C75.41-32.84 79.2-33.32 81.9-31.3C84.66-29.23 85.22-25.31 83.15-22.55L82.91-22.24C82.87-22.19 82.82-22.13 82.77-22.07L82.46-21.69C82.4-21.63 82.34-21.56 82.28-21.49L81.89-21.05C81.75-20.9 81.6-20.74 81.44-20.58C80.2-19.28 78.74-17.99 77.09-16.78C72.25-13.27 66.63-11.13 60.3-11.13C53.98-11.13 48.35-13.27 43.52-16.78C41.86-17.99 40.41-19.28 39.16-20.58C38.77-20.99 38.43-21.36 38.15-21.69L37.83-22.07C37.78-22.13 37.74-22.18 37.69-22.24L37.45-22.54C35.38-25.3 35.94-29.22 38.7-31.3C41.39-33.32 45.19-32.84 47.3-30.25L47.5-29.99L47.54-29.94C47.71-29.73 47.93-29.5 48.18-29.23C48.94-28.44 49.84-27.64 50.87-26.89C53.71-24.83 56.87-23.63 60.3-23.63C63.74-23.63 66.9-24.83 69.74-26.89C70.76-27.64 71.66-28.44 72.42-29.23C72.61-29.43 72.78-29.61 72.92-29.78L73.15-30.05L73.3-30.24ZM46.96-54.87C50.41-54.87 53.21-52.07 53.21-48.62C53.21-45.24 50.54-42.49 47.19-42.37L46.92-42.37C43.47-42.37 40.67-45.17 40.67-48.62C40.67-51.99 43.35-54.74 46.69-54.87L46.96-54.87ZM73.74-54.87C77.19-54.87 79.99-52.07 79.99-48.62C79.99-45.24 77.32-42.49 73.97-42.37L73.69-42.37C70.24-42.37 67.44-45.17 67.44-48.62C67.44-51.99 70.12-54.74 73.46-54.87L73.74-54.87Z"/>
  </g>
  <g id="Bold-M" transform="matrix(1 0 0 1 2280.78 1126)">
   <path class="hierarchical-0:secondary SFSymbolsPreview4D4D4D" d="M59.36-85.15C31.78-85.15 9.43-62.8 9.43-35.23C9.43-7.65 31.78 14.7 59.36 14.7C86.93 14.7 109.28-7.66 109.28-35.23C109.28-62.8 86.93-85.15 59.36-85.15ZM59.36-74.55C81.07-74.55 98.68-56.94 98.68-35.23C98.68-13.51 81.07 4.1 59.36 4.1C37.64 4.1 20.03-13.51 20.03-35.23C20.03-56.94 37.64-74.55 59.36-74.55Z"/>
   <path class="hierarchical-1:primary SFSymbolsPreview212121" d="M80.38-30.54C82.72-28.78 83.2-25.46 81.44-23.12L81.22-22.83L80.94-22.5L80.61-22.12C80.55-22.05 80.49-21.98 80.43-21.91L80.03-21.47C79.96-21.4 79.88-21.32 79.81-21.24C78.6-19.98 77.19-18.73 75.58-17.55C70.9-14.15 65.46-12.08 59.35-12.08C53.25-12.08 47.81-14.15 43.13-17.55C41.52-18.72 40.11-19.98 38.9-21.24L38.47-21.69C38.4-21.77 38.34-21.84 38.27-21.91L37.92-22.31L37.62-22.67L37.37-22.98C37.33-23.03 37.3-23.07 37.26-23.12C35.5-25.46 35.98-28.78 38.32-30.54C40.59-32.25 43.8-31.85 45.59-29.67L45.82-29.39L45.87-29.33C45.94-29.24 46.02-29.15 46.11-29.05L46.39-28.74C46.44-28.69 46.49-28.63 46.55-28.58C47.34-27.75 48.28-26.91 49.36-26.13C52.35-23.95 55.7-22.68 59.35-22.68C63.01-22.68 66.35-23.95 69.34-26.13C70.42-26.91 71.36-27.75 72.15-28.57L72.46-28.9C72.5-28.95 72.55-29 72.59-29.05L72.96-29.48C74.72-31.82 78.04-32.3 80.38-30.54ZM46.01-53.92C48.94-53.92 51.31-51.55 51.31-48.62C51.31-45.77 49.05-43.44 46.23-43.32L45.97-43.32C43.04-43.32 40.67-45.69 40.67-48.62C40.67-51.47 42.93-53.8 45.75-53.92L46.01-53.92ZM72.79-53.92C75.72-53.92 78.09-51.55 78.09-48.62C78.09-45.77 75.83-43.44 73.01-43.32L72.74-43.32C69.81-43.32 67.44-45.69 67.44-48.62C67.44-51.47 69.7-53.8 72.52-53.92L72.79-53.92Z"/>
  </g>
  <g id="Semibold-M" transform="matrix(1 0 0 1 1984.72 1126)">
   <path class="hierarchical-0:secondary SFSymbolsPreview4D4D4D" d="M58.7-84.5C31.49-84.5 9.43-62.44 9.43-35.23C9.43-8.01 31.48 14.05 58.7 14.05C85.92 14.05 107.97-8.01 107.97-35.23C107.97-62.44 85.92-84.5 58.7-84.5ZM58.7-75.2C80.78-75.2 98.67-57.31 98.67-35.23C98.67-13.15 80.78 4.75 58.7 4.75C36.62 4.75 18.73-13.15 18.73-35.23C18.73-57.31 36.62-75.2 58.7-75.2Z"/>
   <path class="hierarchical-1:primary SFSymbolsPreview212121" d="M72.83-29.09C74.37-31.15 77.29-31.56 79.34-30.02C81.39-28.48 81.81-25.57 80.27-23.51L80.05-23.23L79.79-22.91L79.47-22.54C79.36-22.41 79.24-22.28 79.1-22.13L78.69-21.69C77.5-20.45 76.12-19.23 74.54-18.08C69.97-14.75 64.66-12.73 58.7-12.73C52.74-12.73 47.43-14.75 42.86-18.08C41.28-19.23 39.9-20.45 38.71-21.69L38.3-22.13C38.23-22.2 38.17-22.27 38.11-22.34L37.76-22.73C37.71-22.79 37.66-22.85 37.61-22.91L37.35-23.23L37.13-23.51C35.59-25.57 36.01-28.48 38.06-30.02C40.05-31.52 42.85-31.17 44.43-29.27L44.71-28.91L44.95-28.64L45.17-28.4L45.43-28.12C46.25-27.27 47.22-26.41 48.32-25.6C51.42-23.35 54.89-22.03 58.7-22.03C62.51-22.03 65.98-23.35 69.08-25.6C70.18-26.41 71.15-27.27 71.97-28.12L72.23-28.4L72.54-28.74L72.69-28.91L72.83-29.09ZM45.36-53.27C47.93-53.27 50.01-51.19 50.01-48.62C50.01-46.12 48.04-44.09 45.57-43.97L45.31-43.97C42.74-43.97 40.66-46.05 40.66-48.62C40.66-51.12 42.63-53.15 45.1-53.26L45.36-53.27ZM72.13-53.27C74.7-53.27 76.78-51.19 76.78-48.62C76.78-46.12 74.81-44.09 72.34-43.97L72.09-43.97C69.52-43.97 67.44-46.05 67.44-48.62C67.44-51.12 69.41-53.15 71.88-53.26L72.13-53.27Z"/>
  </g>
  <g id="Medium-M" transform="matrix(1 0 0 1 1688.51 1126)">
   <path class="hierarchical-0:secondary SFSymbolsPreview4D4D4D" d="M58.2-84C31.26-84 9.43-62.17 9.43-35.23C9.43-8.29 31.26 13.55 58.2 13.55C85.14 13.55 106.97-8.29 106.97-35.23C106.97-62.17 85.14-84 58.2-84ZM58.2-75.7C80.55-75.7 98.67-57.58 98.67-35.23C98.67-12.87 80.56 5.25 58.2 5.25C35.84 5.25 17.73-12.87 17.73-35.23C17.73-57.58 35.85-75.7 58.2-75.7Z"/>
   <path class="hierarchical-1:primary SFSymbolsPreview212121" d="M72.73-28.79C74.11-30.62 76.71-31 78.54-29.62C80.37-28.25 80.75-25.64 79.37-23.81L79.27-23.68L79.04-23.39L78.75-23.05C78.7-22.99 78.65-22.93 78.59-22.87L78.24-22.47L77.83-22.04C76.66-20.82 75.3-19.61 73.75-18.48C69.25-15.22 64.04-13.23 58.2-13.23C52.36-13.23 47.15-15.22 42.65-18.48C41.1-19.61 39.74-20.82 38.57-22.04L38.17-22.47L37.81-22.87L37.5-23.23C37.45-23.28 37.4-23.34 37.36-23.39L37.13-23.68C37.09-23.73 37.06-23.77 37.03-23.81C35.66-25.64 36.03-28.25 37.86-29.62C39.63-30.95 42.13-30.65 43.53-28.96L43.76-28.68L43.9-28.51L44.18-28.19L44.57-27.78C45.4-26.9 46.4-26.02 47.53-25.2C50.7-22.89 54.28-21.53 58.2-21.53C62.12-21.53 65.7-22.89 68.87-25.2C70-26.02 71-26.9 71.83-27.78L72.22-28.19L72.5-28.51L72.69-28.74C72.71-28.76 72.72-28.78 72.73-28.79ZM44.86-52.77C47.15-52.77 49.01-50.91 49.01-48.62C49.01-46.4 47.26-44.58 45.07-44.47L44.81-44.47C42.52-44.47 40.66-46.33 40.66-48.62C40.66-50.84 42.41-52.66 44.6-52.76L44.86-52.77ZM71.63-52.77C73.92-52.77 75.78-50.91 75.78-48.62C75.78-46.4 74.03-44.58 71.84-44.47L71.59-44.47C69.3-44.47 67.44-46.33 67.44-48.62C67.44-50.84 69.19-52.66 71.38-52.76L71.63-52.77Z"/>
  </g>
  <g id="Regular-M" transform="matrix(1 0 0 1 1392.45 1126)">
   <path class="hierarchical-0:secondary SFSymbolsPreview4D4D4D" d="M57.55-83.35C30.97-83.35 9.43-61.81 9.43-35.23C9.43-8.64 30.97 12.9 57.55 12.9C84.13 12.9 105.67-8.64 105.67-35.23C105.67-61.81 84.13-83.35 57.55-83.35ZM57.55-76.35C80.26-76.35 98.67-57.94 98.67-35.23C98.67-12.51 80.27 5.9 57.55 5.9C34.84 5.9 16.43-12.51 16.43-35.23C16.43-57.94 34.84-76.35 57.55-76.35Z"/>
   <path class="hierarchical-1:primary SFSymbolsPreview212121" d="M77.5-29.1C79.05-27.94 79.36-25.75 78.2-24.2L78.11-24.08L77.88-23.8L77.61-23.47C77.56-23.42 77.51-23.36 77.45-23.29L77.11-22.91L76.71-22.48C75.57-21.3 74.24-20.11 72.72-19.01C68.33-15.82 63.24-13.88 57.55-13.88C51.86-13.88 46.77-15.82 42.38-19.01C40.86-20.11 39.53-21.3 38.39-22.48L38-22.91L37.65-23.29L37.35-23.64C37.3-23.7 37.26-23.75 37.22-23.8L36.99-24.08C36.96-24.12 36.93-24.16 36.9-24.2C35.74-25.75 36.05-27.94 37.6-29.1C39.09-30.22 41.19-29.97 42.38-28.56L42.6-28.27L42.75-28.1L43.05-27.76L43.3-27.48C43.35-27.43 43.4-27.38 43.45-27.33C44.31-26.43 45.33-25.52 46.5-24.67C49.78-22.29 53.48-20.88 57.55-20.88C61.62-20.88 65.33-22.29 68.6-24.67C69.77-25.52 70.79-26.43 71.65-27.33L71.93-27.62L72.17-27.88L72.36-28.1L72.5-28.27L72.6-28.4C73.76-29.95 75.95-30.26 77.5-29.1ZM44.21-52.12C46.14-52.12 47.71-50.55 47.71-48.62C47.71-46.75 46.25-45.22 44.4-45.12L44.16-45.12C42.23-45.12 40.66-46.69 40.66-48.62C40.66-50.49 42.13-52.01 43.97-52.11L44.21-52.12ZM70.98-52.12C72.91-52.12 74.48-50.55 74.48-48.62C74.48-46.75 73.02-45.22 71.17-45.12L70.94-45.12C69.01-45.12 67.44-46.69 67.44-48.62C67.44-50.49 68.9-52.01 70.75-52.11L70.98-52.12Z"/>
  </g>
  <g id="Light-M" transform="matrix(1 0 0 1 1096.54 1126)">
   <path class="hierarchical-0:secondary SFSymbolsPreview4D4D4D" d="M56.75-82.55C30.61-82.55 9.43-61.36 9.43-35.23C9.43-9.09 30.61 12.1 56.75 12.1C82.89 12.1 104.07-9.09 104.07-35.23C104.07-61.36 82.89-82.55 56.75-82.55ZM56.75-77.15C79.91-77.15 98.67-58.38 98.67-35.23C98.67-12.07 79.91 6.7 56.75 6.7C33.59 6.7 14.83-12.07 14.83-35.23C14.83-58.38 33.6-77.15 56.75-77.15Z"/>
   <path class="hierarchical-1:primary SFSymbolsPreview212121" d="M72.44-27.92C73.34-29.11 75.03-29.35 76.22-28.46C77.41-27.56 77.66-25.87 76.76-24.68L76.67-24.56L76.46-24.3C76.42-24.25 76.38-24.2 76.34-24.15L76.05-23.82C76-23.76 75.94-23.7 75.89-23.63L75.53-23.24C75.46-23.18 75.4-23.11 75.33-23.04C74.22-21.88 72.93-20.73 71.45-19.65C67.18-16.55 62.26-14.68 56.75-14.68C51.24-14.68 46.32-16.55 42.05-19.65C40.57-20.73 39.28-21.88 38.17-23.04L37.79-23.44C37.73-23.51 37.67-23.57 37.61-23.63L37.3-23.99C37.25-24.04 37.21-24.1 37.17-24.15L36.93-24.44L36.74-24.68C35.85-25.87 36.09-27.56 37.28-28.46C38.43-29.32 40.03-29.13 40.95-28.06L41.24-27.69L41.53-27.35L41.92-26.93C41.97-26.88 42.02-26.83 42.07-26.77C42.97-25.84 44.02-24.9 45.23-24.02C48.63-21.55 52.49-20.08 56.75-20.08C61.01-20.08 64.87-21.55 68.27-24.02C69.48-24.9 70.54-25.84 71.43-26.77L71.72-27.08L71.97-27.35L72.26-27.69L72.39-27.85C72.41-27.88 72.43-27.9 72.44-27.92ZM43.41-51.32C44.9-51.32 46.11-50.11 46.11-48.62C46.11-47.18 44.99-46.01 43.58-45.92L43.36-45.92C41.87-45.92 40.66-47.13 40.66-48.62C40.66-50.05 41.78-51.22 43.19-51.31L43.41-51.32ZM70.18-51.32C71.67-51.32 72.88-50.11 72.88-48.62C72.88-47.18 71.76-46.01 70.35-45.92L70.14-45.92C68.65-45.92 67.44-47.13 67.44-48.62C67.44-50.05 68.56-51.22 69.97-51.31L70.18-51.32Z"/>
  </g>
  <g id="Thin-M" transform="matrix(1 0 0 1 800.872 1126)">
   <path class="hierarchical-0:secondary SFSymbolsPreview4D4D4D" d="M55.705-81.5C30.148-81.5 9.43-60.78 9.43-35.23C9.43-9.67 30.147 11.05 55.705 11.05C81.262 11.05 101.98-9.67 101.98-35.23C101.98-60.78 81.261-81.5 55.705-81.5ZM55.705-78.2C79.438-78.2 98.68-58.96 98.68-35.23C98.68-11.49 79.44 7.75 55.705 7.75C31.969 7.75 12.73-11.49 12.73-35.23C12.73-58.96 31.971-78.2 55.705-78.2Z"/>
   <path class="hierarchical-1:primary SFSymbolsPreview212121" d="M71.981-26.98L72.234-27.29C72.781-28.02 73.815-28.17 74.544-27.62C75.273-27.07 75.421-26.04 74.874-25.31L74.794-25.2L74.596-24.96L74.35-24.67L74.056-24.33L73.714-23.96C73.653-23.9 73.59-23.83 73.525-23.76C72.458-22.65 71.209-21.54 69.783-20.5C65.685-17.53 60.966-15.73 55.704-15.73C50.442-15.73 45.723-17.53 41.625-20.5C40.2-21.54 38.95-22.65 37.883-23.76L37.517-24.15L37.199-24.51L36.929-24.82C36.888-24.87 36.849-24.91 36.812-24.96L36.615-25.2C36.586-25.24 36.559-25.28 36.534-25.31C35.987-26.04 36.135-27.07 36.864-27.62C37.55-28.13 38.506-28.03 39.072-27.41L39.427-26.98L39.729-26.63C39.891-26.44 40.07-26.25 40.265-26.05C41.203-25.07 42.307-24.09 43.566-23.17C47.138-20.58 51.204-19.03 55.704-19.03C60.204-19.03 64.271-20.58 67.843-23.17C69.101-24.09 70.205-25.07 71.143-26.05C71.273-26.18 71.396-26.31 71.511-26.44L71.836-26.81C71.886-26.86 71.934-26.92 71.981-26.98ZM42.362-50.27C43.273-50.27 44.012-49.53 44.012-48.62C44.012-47.76 43.349-47.05 42.504-46.98L42.362-46.97L42.317-46.97C41.406-46.97 40.667-47.71 40.667-48.62C40.667-49.48 41.33-50.19 42.175-50.26L42.317-50.27L42.362-50.27ZM69.136-50.27C70.048-50.27 70.786-49.53 70.786-48.62C70.786-47.76 70.123-47.05 69.279-46.98L69.136-46.97L69.092-46.97C68.181-46.97 67.442-47.71 67.442-48.62C67.442-49.48 68.105-50.19 68.95-50.26L69.136-50.27Z"/>
  </g>
  <g id="Ultralight-M" transform="matrix(1 0 0 1 504.711 1126)">
   <path class="hierarchical-0:secondary SFSymbolsPreview4D4D4D" d="M55.155-80.95C29.903-80.95 9.43-60.48 9.43-35.23C9.43-9.97 29.901 10.5 55.155 10.5C80.409 10.5 100.88-9.97 100.88-35.23C100.88-60.48 80.408-80.95 55.155-80.95ZM55.155-78.75C79.193-78.75 98.68-59.26 98.68-35.23C98.68-11.19 79.194 8.3 55.155 8.3C31.116 8.3 11.63-11.19 11.63-35.23C11.63-59.26 31.118-78.75 55.155-78.75Z"/>
   <path class="hierarchical-1:primary SFSymbolsPreview212121" d="M73.666-27.18C74.152-26.81 74.25-26.12 73.886-25.64L73.809-25.54L73.62-25.3L73.382-25.02L73.097-24.7L72.764-24.34C72.704-24.27 72.643-24.21 72.58-24.14C71.534-23.05 70.309-21.96 68.911-20.95C64.901-18.03 60.291-16.28 55.156-16.28C50.021-16.28 45.411-18.03 41.401-20.95C40.003-21.96 38.778-23.05 37.732-24.14L37.376-24.52L37.066-24.86L36.805-25.17L36.591-25.43C36.528-25.5 36.473-25.58 36.426-25.64C36.061-26.12 36.16-26.81 36.646-27.18C37.131-27.54 37.821-27.44 38.186-26.96L38.379-26.72L38.608-26.45L38.942-26.07C39.06-25.94 39.187-25.81 39.32-25.67C40.279-24.67 41.408-23.66 42.694-22.73C46.354-20.07 50.529-18.48 55.156-18.48C59.783-18.48 63.958-20.07 67.618-22.73C68.904-23.66 70.033-24.67 70.992-25.67L71.37-26.07L71.704-26.45L72.053-26.87L72.126-26.96C72.491-27.44 73.18-27.54 73.666-27.18ZM41.813-49.72C42.42-49.72 42.913-49.23 42.913-48.62C42.913-48.05 42.484-47.58 41.933-47.53L41.813-47.52L41.768-47.52C41.16-47.52 40.668-48.01 40.668-48.62C40.668-49.19 41.097-49.65 41.648-49.71L41.768-49.72L41.813-49.72ZM68.587-49.72C69.195-49.72 69.687-49.23 69.687-48.62C69.687-48.05 69.258-47.58 68.707-47.53L68.587-47.52L68.543-47.52C67.936-47.52 67.443-48.01 67.443-48.62C67.443-49.19 67.872-49.65 68.423-49.71L68.543-49.72L68.587-49.72Z"/>
  </g>
  <g id="Black-S" transform="matrix(1 0 0 1 2882.03 696)">
   <path class="hierarchical-0:secondary SFSymbolsPreview4D4D4D" d="M51.53-77.432C28.28-77.432 9.43-58.583 9.43-35.332C9.43-12.08 28.28 6.768 51.53 6.768C74.78 6.768 93.63-12.08 93.63-35.332C93.63-58.583 74.78-77.432 51.53-77.432ZM51.53-63.232C66.94-63.232 79.43-50.74 79.43-35.332C79.43-19.923 66.94-7.432 51.53-7.432C36.12-7.432 23.63-19.923 23.63-35.332C23.63-50.74 36.12-63.232 51.53-63.232Z"/>
   <path class="hierarchical-1:primary SFSymbolsPreview212121" d="M59.85-32.591C62.2-35.728 66.65-36.364 69.79-34.011C72.93-31.658 73.56-27.208 71.21-24.071L70.97-23.756L70.67-23.396C70.4-23.079 70.08-22.719 69.7-22.325C68.63-21.214 67.4-20.116 65.99-19.089C61.85-16.079 57-14.231 51.53-14.231C46.06-14.231 41.21-16.079 37.07-19.089C35.66-20.116 34.43-21.214 33.36-22.325C32.98-22.719 32.66-23.079 32.39-23.396L32.1-23.756C32-23.869 31.92-23.974 31.85-24.071C29.5-27.208 30.13-31.658 33.27-34.011C36.34-36.312 40.66-35.755 43.05-32.797L43.27-32.52L43.41-32.348L43.61-32.139L43.84-31.899L44.12-31.634L44.45-31.347C44.73-31.101 45.06-30.839 45.42-30.573C47.3-29.209 49.34-28.431 51.53-28.431C53.72-28.431 55.76-29.209 57.64-30.573C58-30.839 58.33-31.101 58.61-31.347L58.94-31.634L59.22-31.899L59.46-32.139L59.65-32.348L59.79-32.52L59.85-32.591ZM41.07-52.932C44.99-52.932 48.17-49.753 48.17-45.832C48.17-41.99 45.12-38.862 41.31-38.736L41.03-38.732C37.11-38.732 33.93-41.91 33.93-45.832C33.93-49.673 36.98-52.802 40.79-52.928L41.07-52.932ZM62.07-52.932C65.99-52.932 69.17-49.753 69.17-45.832C69.17-41.99 66.12-38.862 62.31-38.736L62.03-38.732C58.11-38.732 54.93-41.91 54.93-45.832C54.93-49.673 57.98-52.802 61.79-52.928L62.07-52.932Z"/>
  </g>
  <g id="Heavy-S" transform="matrix(1 0 0 1 2586.16 696)">
   <path class="hierarchical-0:secondary SFSymbolsPreview4D4D4D" d="M50.68-76.582C27.9-76.582 9.43-58.114 9.43-35.332C9.43-12.55 27.9 5.918 50.68 5.918C73.46 5.918 91.93-12.55 91.93-35.332C91.93-58.114 73.46-76.582 50.68-76.582ZM50.68-64.082C66.56-64.082 79.43-51.21 79.43-35.332C79.43-19.454 66.56-6.582 50.68-6.582C34.8-6.582 21.93-19.454 21.93-35.332C21.93-51.21 34.8-64.082 50.68-64.082Z"/>
   <path class="hierarchical-1:primary SFSymbolsPreview212121" d="M68.43-33.332C71.19-31.261 71.75-27.343 69.68-24.582L69.45-24.284L69.17-23.941C68.91-23.639 68.6-23.293 68.24-22.914C67.2-21.837 66.01-20.773 64.64-19.777C60.63-16.865 55.95-15.082 50.68-15.082C45.41-15.082 40.73-16.865 36.72-19.777C35.35-20.773 34.16-21.837 33.12-22.914C32.76-23.293 32.45-23.639 32.19-23.941L31.91-24.284C31.83-24.391 31.75-24.49 31.68-24.582C29.61-27.343 30.17-31.261 32.93-33.332C35.63-35.353 39.42-34.868 41.53-32.275L41.71-32.04L41.98-31.746L42.15-31.562C42.69-30.998 43.34-30.422 44.08-29.886C46.09-28.423 48.3-27.582 50.68-27.582C53.06-27.582 55.27-28.423 57.29-29.886C58.02-30.422 58.67-30.998 59.21-31.562L59.46-31.825L59.68-32.082C61.75-34.843 65.67-35.403 68.43-33.332ZM40.22-52.082C43.67-52.082 46.47-49.284 46.47-45.832C46.47-42.457 43.8-39.707 40.45-39.586L40.18-39.582C36.73-39.582 33.93-42.38 33.93-45.832C33.93-49.207 36.61-51.957 39.95-52.078L40.22-52.082ZM61.22-52.082C64.67-52.082 67.47-49.284 67.47-45.832C67.47-42.457 64.8-39.707 61.45-39.586L61.18-39.582C57.73-39.582 54.93-42.38 54.93-45.832C54.93-49.207 57.61-51.957 60.95-52.078L61.22-52.082Z"/>
  </g>
  <g id="Bold-S" transform="matrix(1 0 0 1 2290.4 696)">
   <path class="hierarchical-0:secondary SFSymbolsPreview4D4D4D" d="M49.73-75.426C27.47-75.426 9.43-57.383 9.43-35.126C9.43-12.869 27.47 5.174 49.73 5.174C71.99 5.174 90.03-12.869 90.03-35.126C90.03-57.383 71.99-75.426 49.73-75.426ZM49.73-64.826C66.13-64.826 79.43-51.529 79.43-35.126C79.43-18.723 66.13-5.426 49.73-5.426C33.33-5.426 20.03-18.723 20.03-35.126C20.03-51.529 33.33-64.826 49.73-64.826Z"/>
   <path class="hierarchical-1:primary SFSymbolsPreview212121" d="M66.91-32.365C69.25-30.609 69.73-27.287 67.97-24.945L67.87-24.812L67.63-24.511L67.33-24.167C67.12-23.924 66.88-23.655 66.6-23.365C65.61-22.327 64.45-21.3 63.13-20.339C59.28-17.537 54.78-15.825 49.73-15.825C44.68-15.825 40.18-17.537 36.33-20.339C35.01-21.3 33.85-22.327 32.86-23.365C32.58-23.655 32.34-23.924 32.13-24.167L31.83-24.511L31.59-24.812C31.56-24.859 31.52-24.903 31.49-24.945C29.73-27.287 30.21-30.609 32.55-32.365C34.83-34.073 38.03-33.672 39.82-31.496L40.06-31.197L40.32-30.902L40.51-30.699C41.09-30.095 41.78-29.482 42.57-28.912C44.73-27.339 47.13-26.425 49.73-26.425C52.33-26.425 54.73-27.339 56.89-28.912C57.68-29.482 58.37-30.095 58.95-30.699L59.14-30.902L59.4-31.197L59.49-31.305C61.25-33.647 64.57-34.122 66.91-32.365ZM39.26-50.926C42.19-50.926 44.56-48.553 44.56-45.626C44.56-42.772 42.3-40.445 39.48-40.33L39.23-40.326C36.3-40.326 33.93-42.699 33.93-45.626C33.93-48.48 36.19-50.807 39.01-50.921L39.26-50.926ZM60.26-50.926C63.19-50.926 65.56-48.553 65.56-45.626C65.56-42.772 63.3-40.445 60.48-40.33L60.23-40.326C57.3-40.326 54.93-42.699 54.93-45.626C54.93-48.48 57.19-50.807 60.01-50.921L60.26-50.926Z"/>
  </g>
  <g id="Semibold-S" transform="matrix(1 0 0 1 1994.34 696)">
   <path class="hierarchical-0:secondary SFSymbolsPreview4D4D4D" d="M49.08-74.777C27.18-74.777 9.43-57.025 9.43-35.127C9.43-13.229 27.18 4.523 49.08 4.523C70.98 4.523 88.73-13.229 88.73-35.127C88.73-57.025 70.98-74.777 49.08-74.777ZM49.08-65.477C65.84-65.477 79.43-51.889 79.43-35.127C79.43-18.365 65.84-4.777 49.08-4.777C32.32-4.777 18.73-18.365 18.73-35.127C18.73-51.889 32.32-65.477 49.08-65.477Z"/>
   <path class="hierarchical-1:primary SFSymbolsPreview212121" d="M65.87-31.847C67.92-30.306 68.34-27.392 66.8-25.337L66.59-25.072C66.56-25.024 66.52-24.974 66.47-24.923L66.19-24.592C66.09-24.475 65.98-24.351 65.86-24.222L65.48-23.816C64.51-22.805 63.38-21.803 62.1-20.866C58.35-18.14 53.98-16.477 49.08-16.477C44.18-16.477 39.81-18.14 36.06-20.866C34.78-21.803 33.65-22.805 32.68-23.816L32.3-24.222C32.18-24.351 32.07-24.475 31.97-24.592L31.69-24.923L31.46-25.21C31.42-25.255 31.39-25.297 31.36-25.337C29.82-27.392 30.24-30.306 32.29-31.847C34.28-33.341 37.08-32.995 38.66-31.099L38.88-30.816L39.11-30.551L39.39-30.251C40-29.621 40.72-28.982 41.53-28.388C43.8-26.739 46.33-25.777 49.08-25.777C51.83-25.777 54.36-26.739 56.63-28.388C57.44-28.982 58.16-29.621 58.77-30.251L59.05-30.551L59.36-30.917C60.9-32.972 63.82-33.388 65.87-31.847ZM38.62-50.277C41.19-50.277 43.27-48.195 43.27-45.627C43.27-43.131 41.3-41.093 38.83-40.982L38.58-40.977C36.01-40.977 33.93-43.059 33.93-45.627C33.93-48.124 35.9-50.161 38.37-50.273L38.62-50.277ZM59.62-50.277C62.19-50.277 64.27-48.195 64.27-45.627C64.27-43.131 62.3-41.093 59.83-40.982L59.58-40.977C57.01-40.977 54.93-43.059 54.93-45.627C54.93-48.124 56.9-50.161 59.37-50.273L59.62-50.277Z"/>
  </g>
  <g id="Medium-S" transform="matrix(1 0 0 1 1698.13 696)">
   <path class="hierarchical-0:secondary SFSymbolsPreview4D4D4D" d="M48.58-74.277C26.96-74.277 9.43-56.749 9.43-35.127C9.43-13.505 26.96 4.023 48.58 4.023C70.2 4.023 87.73-13.505 87.73-35.127C87.73-56.749 70.2-74.277 48.58-74.277ZM48.58-65.977C65.62-65.977 79.43-52.165 79.43-35.127C79.43-18.089 65.62-4.277 48.58-4.277C31.54-4.277 17.73-18.089 17.73-35.127C17.73-52.165 31.54-65.977 48.58-65.977Z"/>
   <path class="hierarchical-1:primary SFSymbolsPreview212121" d="M65.07-31.447C66.9-30.072 67.28-27.471 65.9-25.637L65.81-25.516L65.58-25.238C65.54-25.188 65.5-25.136 65.45-25.083L65.16-24.742C65.1-24.682 65.05-24.621 64.99-24.558L64.62-24.162C63.67-23.172 62.57-22.189 61.3-21.271C57.63-18.602 53.37-16.977 48.58-16.977C43.79-16.977 39.53-18.602 35.86-21.271C34.6-22.189 33.49-23.172 32.54-24.162L32.17-24.558C32.11-24.621 32.06-24.682 32-24.742L31.71-25.083C31.66-25.136 31.62-25.188 31.58-25.238L31.35-25.516C31.32-25.558 31.29-25.599 31.26-25.637C29.89-27.471 30.26-30.072 32.09-31.447C33.87-32.778 36.36-32.473 37.76-30.79L37.91-30.6L38-30.494C38.15-30.323 38.32-30.124 38.53-29.905C39.16-29.254 39.9-28.596 40.74-27.983C43.09-26.277 45.71-25.277 48.58-25.277C51.45-25.277 54.07-26.277 56.42-27.983C57.26-28.596 58-29.254 58.63-29.905C58.79-30.07 58.92-30.223 59.05-30.361L59.26-30.617C60.64-32.451 63.24-32.822 65.07-31.447ZM38.12-49.777C40.41-49.777 42.27-47.919 42.27-45.627C42.27-43.405 40.52-41.59 38.33-41.482L38.08-41.477C35.79-41.477 33.93-43.335 33.93-45.627C33.93-47.85 35.68-49.664 37.87-49.772L38.12-49.777ZM59.12-49.777C61.41-49.777 63.27-47.919 63.27-45.627C63.27-43.405 61.52-41.59 59.33-41.482L59.08-41.477C56.79-41.477 54.93-43.335 54.93-45.627C54.93-47.85 56.68-49.664 58.87-49.772L59.12-49.777Z"/>
  </g>
  <g id="Regular-S" transform="matrix(1 0 0 1 1402.07 696)">
   <path class="hierarchical-0:secondary SFSymbolsPreview4D4D4D" d="M47.93-73.627C26.67-73.627 9.43-56.39 9.43-35.127C9.43-13.864 26.67 3.373 47.93 3.373C69.19 3.373 86.43-13.864 86.43-35.127C86.43-56.39 69.19-73.627 47.93-73.627ZM47.93-66.627C65.33-66.627 79.43-52.524 79.43-35.127C79.43-17.73 65.33-3.627 47.93-3.627C30.53-3.627 16.43-17.73 16.43-35.127C16.43-52.524 30.53-66.627 47.93-66.627Z"/>
   <path class="hierarchical-1:primary SFSymbolsPreview212121" d="M64.03-30.927C65.58-29.767 65.89-27.573 64.73-26.027L64.54-25.785L64.31-25.499C64.26-25.448 64.22-25.395 64.17-25.34L63.86-24.994C63.75-24.872 63.63-24.744 63.5-24.611C62.58-23.648 61.5-22.691 60.27-21.796C56.7-19.203 52.57-17.627 47.93-17.627C43.29-17.627 39.16-19.203 35.59-21.796C34.36-22.691 33.28-23.648 32.36-24.611L32.17-24.807L31.84-25.172C31.79-25.23 31.74-25.286 31.69-25.34L31.43-25.648C31.39-25.695 31.35-25.741 31.32-25.785L31.13-26.027C29.97-27.573 30.28-29.767 31.83-30.927C33.32-32.047 35.42-31.793 36.61-30.382L36.81-30.129L36.93-29.986L37.09-29.802L37.41-29.455C38.06-28.778 38.83-28.094 39.71-27.457C42.16-25.676 44.91-24.627 47.93-24.627C50.95-24.627 53.7-25.676 56.15-27.457C57.03-28.094 57.8-28.778 58.45-29.455L58.77-29.802L58.93-29.986L59.13-30.227C60.29-31.773 62.48-32.087 64.03-30.927ZM37.47-49.127C39.4-49.127 40.97-47.56 40.97-45.627C40.97-43.758 39.51-42.232 37.66-42.132L37.43-42.127C35.5-42.127 33.93-43.694 33.93-45.627C33.93-47.496 35.39-49.022 37.24-49.122L37.47-49.127ZM58.47-49.127C60.4-49.127 61.97-47.56 61.97-45.627C61.97-43.758 60.51-42.232 58.66-42.132L58.43-42.127C56.5-42.127 54.93-43.694 54.93-45.627C54.93-47.496 56.39-49.022 58.24-49.122L58.47-49.127Z"/>
  </g>
  <g id="Light-S" transform="matrix(1 0 0 1 1106.16 696)">
   <path class="hierarchical-0:secondary SFSymbolsPreview4D4D4D" d="M47.13-72.826C26.31-72.826 9.43-55.947 9.43-35.126C9.43-14.305 26.31 2.574 47.13 2.574C67.95 2.574 84.83-14.305 84.83-35.126C84.83-55.947 67.95-72.826 47.13-72.826ZM47.13-67.426C64.97-67.426 79.43-52.965 79.43-35.126C79.43-17.287 64.97-2.826 47.13-2.826C29.29-2.826 14.83-17.287 14.83-35.126C14.83-52.965 29.29-67.426 47.13-67.426Z"/>
   <path class="hierarchical-1:primary SFSymbolsPreview212121" d="M58.97-29.746C59.87-30.939 61.56-31.181 62.75-30.286C63.94-29.391 64.19-27.699 63.29-26.506L63.12-26.281L62.89-26.011C62.85-25.963 62.81-25.913 62.76-25.861L62.47-25.53L62.12-25.164C61.23-24.233 60.19-23.307 59-22.442C55.56-19.942 51.58-18.426 47.13-18.426C42.68-18.426 38.7-19.942 35.26-22.442C34.07-23.307 33.03-24.233 32.14-25.164L31.8-25.53L31.5-25.861L31.25-26.152L31.05-26.399C31.02-26.437 31-26.472 30.97-26.506C30.08-27.699 30.32-29.391 31.51-30.286C32.66-31.145 34.26-30.956 35.18-29.885L35.38-29.632L35.6-29.377L35.8-29.157L36.04-28.9C36.72-28.191 37.52-27.476 38.44-26.81C41.02-24.935 43.93-23.826 47.13-23.826C50.34-23.826 53.25-24.935 55.82-26.81C56.74-27.476 57.54-28.191 58.22-28.9L58.47-29.157L58.75-29.473L58.88-29.632L58.97-29.746ZM36.67-48.326C38.16-48.326 39.37-47.117 39.37-45.626C39.37-44.192 38.25-43.02 36.84-42.931L36.63-42.926C35.14-42.926 33.93-44.135 33.93-45.626C33.93-47.06 35.05-48.233 36.46-48.321L36.67-48.326ZM57.67-48.326C59.16-48.326 60.37-47.117 60.37-45.626C60.37-44.192 59.25-43.02 57.84-42.931L57.63-42.926C56.14-42.926 54.93-44.135 54.93-45.626C54.93-47.06 56.05-48.233 57.46-48.321L57.67-48.326Z"/>
  </g>
  <g id="Thin-S" transform="matrix(1 0 0 1 810.497 696)">
   <path class="hierarchical-0:secondary SFSymbolsPreview4D4D4D" d="M46.08-71.777C25.838-71.777 9.43-55.369 9.43-35.127C9.43-14.886 25.838 1.523 46.08 1.523C66.321 1.523 82.73-14.886 82.73-35.127C82.73-55.369 66.321-71.777 46.08-71.777ZM46.08-68.477C64.498-68.477 79.43-53.546 79.43-35.127C79.43-16.709 64.498-1.777 46.08-1.777C27.661-1.777 12.73-16.709 12.73-35.127C12.73-53.546 27.661-68.477 46.08-68.477Z"/>
   <path class="hierarchical-1:primary SFSymbolsPreview212121" d="M61.07-29.447C61.799-28.9 61.946-27.866 61.4-27.137C60.652-26.14 59.284-24.713 57.331-23.293C54.061-20.914 50.289-19.477 46.08-19.477C41.87-19.477 38.099-20.914 34.828-23.293C32.875-24.713 31.507-26.14 30.76-27.137C30.213-27.866 30.361-28.9 31.09-29.447C31.819-29.994 32.853-29.846 33.4-29.117L33.506-28.982L33.657-28.801L33.967-28.453L34.228-28.175C34.949-27.422 35.8-26.667 36.769-25.962C39.514-23.965 42.633-22.777 46.08-22.777C49.527-22.777 52.646-23.965 55.39-25.962C56.36-26.667 57.21-27.422 57.931-28.175L58.192-28.453L58.502-28.801L58.653-28.982L58.76-29.117C59.306-29.846 60.341-29.994 61.07-29.447ZM35.615-47.277C36.526-47.277 37.265-46.539 37.265-45.627C37.265-44.764 36.602-44.056 35.757-43.983L35.58-43.977C34.668-43.977 33.93-44.716 33.93-45.627C33.93-46.491 34.593-47.199 35.437-47.271L35.615-47.277ZM56.615-47.277C57.526-47.277 58.265-46.539 58.265-45.627C58.265-44.764 57.602-44.056 56.757-43.983L56.58-43.977C55.668-43.977 54.93-44.716 54.93-45.627C54.93-46.491 55.593-47.199 56.437-47.271L56.615-47.277Z"/>
  </g>
  <g id="Ultralight-S" transform="matrix(1 0 0 1 514.336 696)">
   <path class="hierarchical-0:secondary SFSymbolsPreview4D4D4D" d="M45.53-71.227C25.593-71.227 9.43-55.064 9.43-35.127C9.43-15.189 25.593 0.973 45.53 0.973C65.468 0.973 81.63-15.189 81.63-35.127C81.63-55.064 65.468-71.227 45.53-71.227ZM45.53-69.027C64.253-69.027 79.43-53.849 79.43-35.127C79.43-16.404 64.253-1.227 45.53-1.227C26.808-1.227 11.63-16.404 11.63-35.127C11.63-53.849 26.808-69.027 45.53-69.027Z"/>
   <path class="hierarchical-1:primary SFSymbolsPreview212121" d="M60.19-29.006C60.676-28.642 60.775-27.953 60.41-27.466L60.26-27.274L60.063-27.037L59.82-26.759C59.775-26.709 59.729-26.658 59.681-26.605L59.368-26.272C58.538-25.406 57.567-24.543 56.459-23.737C53.276-21.422 49.613-20.026 45.53-20.026C41.448-20.026 37.785-21.422 34.602-23.737C33.494-24.543 32.523-25.406 31.693-26.272L31.38-26.605L30.997-27.037L30.8-27.274L30.65-27.466C30.286-27.953 30.384-28.642 30.87-29.006C31.322-29.345 31.948-29.284 32.328-28.885L32.616-28.533C32.801-28.312 33.024-28.063 33.282-27.794C34.025-27.019 34.899-26.241 35.896-25.516C38.729-23.456 41.956-22.226 45.53-22.226C49.104-22.226 52.332-23.456 55.165-25.516C56.162-26.241 57.036-27.019 57.779-27.794C57.973-27.996 58.146-28.186 58.299-28.362L58.596-28.717L58.65-28.786C59.015-29.273 59.704-29.371 60.19-29.006ZM35.065-46.727C35.673-46.727 36.165-46.234 36.165-45.627C36.165-45.06 35.736-44.593 35.185-44.533L35.065-44.527L35.03-44.527C34.423-44.527 33.93-45.019 33.93-45.627C33.93-46.194 34.359-46.66 34.911-46.72L35.065-46.727ZM56.065-46.727C56.673-46.727 57.165-46.234 57.165-45.627C57.165-45.06 56.736-44.593 56.185-44.533L56.065-44.527L56.03-44.527C55.423-44.527 54.93-45.019 54.93-45.627C54.93-46.194 55.359-46.66 55.911-46.72L56.065-46.727Z"/>
  </g>
 </g>
</svg>
