<?xml version="1.0" encoding="UTF-8"?>
<!--Generator: Apple Native CoreSVG 175-->
<!DOCTYPE svg
PUBLIC "-//W3C//DTD SVG 1.1//EN"
       "http://www.w3.org/Graphics/SVG/1.1/DTD/svg11.dtd">
<svg version="1.1" xmlns="http://www.w3.org/2000/svg" xmlns:xlink="http://www.w3.org/1999/xlink" width="3300" height="2200">
 <!--glyph: "", point size: 100.0, font version: "17.0d12e1", template writer version: "65.1"-->
 <style>.hierarchical-0:primary {fill:#212121}
.hierarchical-1:secondary {fill:#4D4D4D}

.SFSymbolsPreview212121 {fill:#212121;opacity:1.0}
.SFSymbolsPreview4D4D4D {fill:#4D4D4D;opacity:1.0}
</style>
 <g id="Notes">
  <rect height="2200" id="artboard" style="fill:white;opacity:1" width="3300" x="0" y="0"/>
  <line style="fill:none;stroke:black;opacity:1;stroke-width:0.5;" x1="263" x2="3036" y1="292" y2="292"/>
  <text style="stroke:none;fill:black;font-family:sans-serif;font-size:13;font-weight:bold;" transform="matrix(1 0 0 1 263 322)">Weight/Scale Variations</text>
  <text style="stroke:none;fill:black;font-family:sans-serif;font-size:13;text-anchor:middle;" transform="matrix(1 0 0 1 559.711 322)">Ultralight</text>
  <text style="stroke:none;fill:black;font-family:sans-serif;font-size:13;text-anchor:middle;" transform="matrix(1 0 0 1 856.422 322)">Thin</text>
  <text style="stroke:none;fill:black;font-family:sans-serif;font-size:13;text-anchor:middle;" transform="matrix(1 0 0 1 1153.13 322)">Light</text>
  <text style="stroke:none;fill:black;font-family:sans-serif;font-size:13;text-anchor:middle;" transform="matrix(1 0 0 1 1449.84 322)">Regular</text>
  <text style="stroke:none;fill:black;font-family:sans-serif;font-size:13;text-anchor:middle;" transform="matrix(1 0 0 1 1746.56 322)">Medium</text>
  <text style="stroke:none;fill:black;font-family:sans-serif;font-size:13;text-anchor:middle;" transform="matrix(1 0 0 1 2043.27 322)">Semibold</text>
  <text style="stroke:none;fill:black;font-family:sans-serif;font-size:13;text-anchor:middle;" transform="matrix(1 0 0 1 2339.98 322)">Bold</text>
  <text style="stroke:none;fill:black;font-family:sans-serif;font-size:13;text-anchor:middle;" transform="matrix(1 0 0 1 2636.69 322)">Heavy</text>
  <text style="stroke:none;fill:black;font-family:sans-serif;font-size:13;text-anchor:middle;" transform="matrix(1 0 0 1 2933.4 322)">Black</text>
  <line style="fill:none;stroke:black;opacity:1;stroke-width:0.5;" x1="263" x2="3036" y1="1903" y2="1903"/>
  <g transform="matrix(1 0 0 1 263 1933)">
   <path d="M9.24805 0.830078Q10.8691 0.830078 12.2949 0.214844Q13.7207-0.400391 14.8096-1.49414Q15.8984-2.58789 16.5186-4.01367Q17.1387-5.43945 17.1387-7.05078Q17.1387-8.66211 16.5186-10.0879Q15.8984-11.5137 14.8047-12.6074Q13.7109-13.7012 12.2852-14.3164Q10.8594-14.9316 9.23828-14.9316Q7.62695-14.9316 6.20117-14.3164Q4.77539-13.7012 3.69141-12.6074Q2.60742-11.5137 1.9873-10.0879Q1.36719-8.66211 1.36719-7.05078Q1.36719-5.43945 1.9873-4.01367Q2.60742-2.58789 3.69629-1.49414Q4.78516-0.400391 6.21094 0.214844Q7.63672 0.830078 9.24805 0.830078ZM9.24805-0.654297Q7.91992-0.654297 6.7627-1.14746Q5.60547-1.64062 4.73145-2.51953Q3.85742-3.39844 3.36426-4.56055Q2.87109-5.72266 2.87109-7.05078Q2.87109-8.37891 3.35938-9.54102Q3.84766-10.7031 4.72168-11.582Q5.5957-12.4609 6.75293-12.9541Q7.91016-13.4473 9.23828-13.4473Q10.5762-13.4473 11.7334-12.9541Q12.8906-12.4609 13.7695-11.582Q14.6484-10.7031 15.1465-9.54102Q15.6445-8.37891 15.6445-7.05078Q15.6445-5.72266 15.1514-4.56055Q14.6582-3.39844 13.7842-2.51953Q12.9102-1.64062 11.748-1.14746Q10.5859-0.654297 9.24805-0.654297ZM5.6543-7.05078Q5.6543-6.72852 5.85938-6.52832Q6.06445-6.32812 6.40625-6.32812L8.51562-6.32812L8.51562-4.20898Q8.51562-3.88672 8.71094-3.67676Q8.90625-3.4668 9.23828-3.4668Q9.56055-3.4668 9.77051-3.67676Q9.98047-3.88672 9.98047-4.20898L9.98047-6.32812L12.0898-6.32812Q12.4219-6.32812 12.627-6.52832Q12.832-6.72852 12.832-7.05078Q12.832-7.38281 12.627-7.58789Q12.4219-7.79297 12.0898-7.79297L9.98047-7.79297L9.98047-9.90234Q9.98047-10.2344 9.77051-10.4443Q9.56055-10.6543 9.23828-10.6543Q8.90625-10.6543 8.71094-10.4443Q8.51562-10.2344 8.51562-9.90234L8.51562-7.79297L6.40625-7.79297Q6.06445-7.79297 5.85938-7.58789Q5.6543-7.38281 5.6543-7.05078Z"/>
  </g>
  <g transform="matrix(1 0 0 1 281.867 1933)">
   <path d="M11.709 2.91016Q13.75 2.91016 15.5518 2.12891Q17.3535 1.34766 18.7305-0.0292969Q20.1074-1.40625 20.8887-3.20801Q21.6699-5.00977 21.6699-7.05078Q21.6699-9.0918 20.8887-10.8936Q20.1074-12.6953 18.7305-14.0723Q17.3535-15.4492 15.5469-16.2305Q13.7402-17.0117 11.6992-17.0117Q9.6582-17.0117 7.85645-16.2305Q6.05469-15.4492 4.68262-14.0723Q3.31055-12.6953 2.5293-10.8936Q1.74805-9.0918 1.74805-7.05078Q1.74805-5.00977 2.5293-3.20801Q3.31055-1.40625 4.6875-0.0292969Q6.06445 1.34766 7.86621 2.12891Q9.66797 2.91016 11.709 2.91016ZM11.709 1.25Q9.98047 1.25 8.47656 0.605469Q6.97266-0.0390625 5.83496-1.17676Q4.69727-2.31445 4.05762-3.81836Q3.41797-5.32227 3.41797-7.05078Q3.41797-8.7793 4.05762-10.2832Q4.69727-11.7871 5.83008-12.9297Q6.96289-14.0723 8.4668-14.7119Q9.9707-15.3516 11.6992-15.3516Q13.4277-15.3516 14.9316-14.7119Q16.4355-14.0723 17.5781-12.9297Q18.7207-11.7871 19.3652-10.2832Q20.0098-8.7793 20.0098-7.05078Q20.0098-5.32227 19.3701-3.81836Q18.7305-2.31445 17.5928-1.17676Q16.4551-0.0390625 14.9463 0.605469Q13.4375 1.25 11.709 1.25ZM7.17773-7.05078Q7.17773-6.69922 7.41211-6.47461Q7.64648-6.25 8.01758-6.25L10.8887-6.25L10.8887-3.36914Q10.8887-2.99805 11.1133-2.76855Q11.3379-2.53906 11.6895-2.53906Q12.0605-2.53906 12.29-2.76855Q12.5195-2.99805 12.5195-3.36914L12.5195-6.25L15.4004-6.25Q15.7715-6.25 16.001-6.47461Q16.2305-6.69922 16.2305-7.05078Q16.2305-7.42188 16.001-7.65137Q15.7715-7.88086 15.4004-7.88086L12.5195-7.88086L12.5195-10.752Q12.5195-11.1328 12.29-11.3623Q12.0605-11.5918 11.6895-11.5918Q11.3379-11.5918 11.1133-11.3574Q10.8887-11.123 10.8887-10.752L10.8887-7.88086L8.01758-7.88086Q7.63672-7.88086 7.40723-7.65137Q7.17773-7.42188 7.17773-7.05078Z"/>
  </g>
  <g transform="matrix(1 0 0 1 305.646 1933)">
   <path d="M14.9707 5.66406Q17.0605 5.66406 18.96 5.01465Q20.8594 4.36523 22.4512 3.19336Q24.043 2.02148 25.2197 0.429688Q26.3965-1.16211 27.0459-3.06641Q27.6953-4.9707 27.6953-7.05078Q27.6953-9.14062 27.0459-11.04Q26.3965-12.9395 25.2197-14.5312Q24.043-16.123 22.4512-17.2998Q20.8594-18.4766 18.9551-19.126Q17.0508-19.7754 14.9609-19.7754Q12.8711-19.7754 10.9717-19.126Q9.07227-18.4766 7.48535-17.2998Q5.89844-16.123 4.72168-14.5312Q3.54492-12.9395 2.90039-11.04Q2.25586-9.14062 2.25586-7.05078Q2.25586-4.9707 2.90527-3.06641Q3.55469-1.16211 4.72656 0.429688Q5.89844 2.02148 7.49023 3.19336Q9.08203 4.36523 10.9814 5.01465Q12.8809 5.66406 14.9707 5.66406ZM14.9707 3.84766Q13.1641 3.84766 11.5283 3.2959Q9.89258 2.74414 8.53516 1.74805Q7.17773 0.751953 6.17676-0.610352Q5.17578-1.97266 4.62891-3.6084Q4.08203-5.24414 4.08203-7.05078Q4.08203-8.86719 4.62891-10.5029Q5.17578-12.1387 6.17188-13.501Q7.16797-14.8633 8.52539-15.8594Q9.88281-16.8555 11.5186-17.4023Q13.1543-17.9492 14.9609-17.9492Q16.7773-17.9492 18.4131-17.4023Q20.0488-16.8555 21.4111-15.8594Q22.7734-14.8633 23.7695-13.501Q24.7656-12.1387 25.3174-10.5029Q25.8691-8.86719 25.8691-7.05078Q25.8789-5.24414 25.332-3.6084Q24.7852-1.97266 23.7842-0.610352Q22.7832 0.751953 21.4209 1.74805Q20.0586 2.74414 18.4229 3.2959Q16.7871 3.84766 14.9707 3.84766ZM9.19922-7.05078Q9.19922-6.66992 9.45801-6.4209Q9.7168-6.17188 10.1172-6.17188L14.0625-6.17188L14.0625-2.2168Q14.0625-1.81641 14.3115-1.55762Q14.5605-1.29883 14.9512-1.29883Q15.3516-1.29883 15.6104-1.55273Q15.8691-1.80664 15.8691-2.2168L15.8691-6.17188L19.8242-6.17188Q20.2246-6.17188 20.4785-6.4209Q20.7324-6.66992 20.7324-7.05078Q20.7324-7.46094 20.4785-7.71484Q20.2246-7.96875 19.8242-7.96875L15.8691-7.96875L15.8691-11.9141Q15.8691-12.3242 15.6104-12.583Q15.3516-12.8418 14.9512-12.8418Q14.5605-12.8418 14.3115-12.583Q14.0625-12.3242 14.0625-11.9141L14.0625-7.96875L10.1172-7.96875Q9.70703-7.96875 9.45312-7.71484Q9.19922-7.46094 9.19922-7.05078Z"/>
  </g>
  <text style="stroke:none;fill:black;font-family:sans-serif;font-size:13;font-weight:bold;" transform="matrix(1 0 0 1 263 1953)">Design Variations</text>
  <text style="stroke:none;fill:black;font-family:sans-serif;font-size:13;" transform="matrix(1 0 0 1 263 1971)">Symbols are supported in up to nine weights and three scales.</text>
  <text style="stroke:none;fill:black;font-family:sans-serif;font-size:13;" transform="matrix(1 0 0 1 263 1989)">For optimal layout with text and other symbols, vertically align</text>
  <text style="stroke:none;fill:black;font-family:sans-serif;font-size:13;" transform="matrix(1 0 0 1 263 2007)">symbols with the adjacent text.</text>
  <line style="fill:none;stroke:#00AEEF;stroke-width:0.5;opacity:1.0;" x1="776" x2="776" y1="1919" y2="1933"/>
  <g transform="matrix(1 0 0 1 776 1933)">
   <path d="M3.31055 0.15625Q3.70117 0.15625 3.91602-0.00976562Q4.13086-0.175781 4.26758-0.585938L5.52734-4.0332L11.2891-4.0332L12.5488-0.585938Q12.6855-0.175781 12.9004-0.00976562Q13.1152 0.15625 13.4961 0.15625Q13.8867 0.15625 14.1162-0.0585938Q14.3457-0.273438 14.3457-0.644531Q14.3457-0.869141 14.2383-1.17188L9.6582-13.3691Q9.48242-13.8184 9.17969-14.043Q8.87695-14.2676 8.4082-14.2676Q7.5-14.2676 7.17773-13.3789L2.59766-1.16211Q2.49023-0.859375 2.49023-0.634766Q2.49023-0.263672 2.70996-0.0537109Q2.92969 0.15625 3.31055 0.15625ZM6.00586-5.51758L8.37891-12.0898L8.42773-12.0898L10.8008-5.51758Z"/>
  </g>
  <line style="fill:none;stroke:#00AEEF;stroke-width:0.5;opacity:1.0;" x1="793.197" x2="793.197" y1="1919" y2="1933"/>
  <text style="stroke:none;fill:black;font-family:sans-serif;font-size:13;font-weight:bold;" transform="matrix(1 0 0 1 776 1953)">Margins</text>
  <text style="stroke:none;fill:black;font-family:sans-serif;font-size:13;" transform="matrix(1 0 0 1 776 1971)">Leading and trailing margins on the left and right side of each symbol</text>
  <text style="stroke:none;fill:black;font-family:sans-serif;font-size:13;" transform="matrix(1 0 0 1 776 1989)">can be adjusted by modifying the x-location of the margin guidelines.</text>
  <text style="stroke:none;fill:black;font-family:sans-serif;font-size:13;" transform="matrix(1 0 0 1 776 2007)">Modifications are automatically applied proportionally to all</text>
  <text style="stroke:none;fill:black;font-family:sans-serif;font-size:13;" transform="matrix(1 0 0 1 776 2025)">scales and weights.</text>
  <g transform="matrix(1 0 0 1 1289 1933)">
   <path d="M2.8418 1.86523L4.54102 3.57422Q5.18555 4.22852 5.90332 4.17969Q6.62109 4.13086 7.31445 3.35938L18.0078-8.42773L17.041-9.4043L6.42578 2.27539Q6.16211 2.57812 5.89355 2.61719Q5.625 2.65625 5.27344 2.30469L4.10156 1.14258Q3.75 0.791016 3.79395 0.522461Q3.83789 0.253906 4.14062-0.0195312L15.6152-10.8203L14.6387-11.7871L3.04688-0.898438Q2.30469-0.214844 2.25098 0.498047Q2.19727 1.21094 2.8418 1.86523ZM9.25781-16.3281Q8.94531-16.0254 8.90625-15.6348Q8.86719-15.2441 9.04297-14.9512Q9.21875-14.6777 9.55566-14.541Q9.89258-14.4043 10.3809-14.5215Q11.4746-14.7754 12.5977-14.7314Q13.7207-14.6875 14.7949-13.9844L14.209-12.5293Q13.9551-11.9043 14.0674-11.4404Q14.1797-10.9766 14.5801-10.5664L16.875-8.25195Q17.2363-7.88086 17.5781-7.82227Q17.9199-7.76367 18.3398-7.8418L19.4043-8.03711L20.0684-7.36328L20.0293-6.80664Q20-6.43555 20.1221-6.12305Q20.2441-5.81055 20.6055-5.44922L21.3672-4.70703Q21.7285-4.3457 22.1533-4.33105Q22.5781-4.31641 22.9297-4.66797L25.8398-7.58789Q26.1914-7.93945 26.1816-8.35449Q26.1719-8.76953 25.8105-9.13086L25.0391-9.89258Q24.6875-10.2539 24.3799-10.3857Q24.0723-10.5176 23.7109-10.4883L23.1348-10.4395L22.4902-11.0742L22.7344-12.1973Q22.832-12.6172 22.6953-12.9834Q22.5586-13.3496 22.1191-13.7891L19.9219-15.9766Q18.6719-17.2168 17.2607-17.8369Q15.8496-18.457 14.4189-18.4814Q12.9883-18.5059 11.665-17.959Q10.3418-17.4121 9.25781-16.3281ZM10.752-15.957Q11.6602-16.6211 12.7002-16.9043Q13.7402-17.1875 14.8047-17.085Q15.8691-16.9824 16.8701-16.5137Q17.8711-16.0449 18.7012-15.2051L21.1328-12.793Q21.3086-12.6172 21.3525-12.4512Q21.3965-12.2852 21.3379-12.0312L21.0156-10.5469L22.5195-9.0625L23.5059-9.12109Q23.6914-9.13086 23.7891-9.09668Q23.8867-9.0625 24.0332-8.91602L24.6094-8.33984L22.168-5.89844L21.5918-6.47461Q21.4453-6.62109 21.4062-6.71875Q21.3672-6.81641 21.377-7.01172L21.4453-7.98828L19.9512-9.47266L18.4277-9.21875Q18.1836-9.16992 18.042-9.2041Q17.9004-9.23828 17.7148-9.41406L15.7129-11.416Q15.5176-11.5918 15.4932-11.7529Q15.4688-11.9141 15.5859-12.1875L16.4648-14.2773Q15.293-15.3711 13.8281-15.791Q12.3633-16.2109 10.8398-15.7617Q10.7227-15.7324 10.6885-15.8057Q10.6543-15.8789 10.752-15.957Z"/>
  </g>
  <text style="stroke:none;fill:black;font-family:sans-serif;font-size:13;font-weight:bold;" transform="matrix(1 0 0 1 1289 1953)">Exporting</text>
  <text style="stroke:none;fill:black;font-family:sans-serif;font-size:13;" transform="matrix(1 0 0 1 1289 1971)">Symbols should be outlined when exporting to ensure the</text>
  <text style="stroke:none;fill:black;font-family:sans-serif;font-size:13;" transform="matrix(1 0 0 1 1289 1989)">design is preserved when submitting to Xcode.</text>
  <text id="template-version" style="stroke:none;fill:black;font-family:sans-serif;font-size:13;text-anchor:end;" transform="matrix(1 0 0 1 3036 1933)">Template v.3.0</text>
  <text style="stroke:none;fill:black;font-family:sans-serif;font-size:13;text-anchor:end;" transform="matrix(1 0 0 1 3036 1951)">Requires Xcode 13 or greater</text>
  <text id="descriptive-name" style="stroke:none;fill:black;font-family:sans-serif;font-size:13;text-anchor:end;" transform="matrix(1 0 0 1 3036 1969)">Generated from airplay</text>
  <text style="stroke:none;fill:black;font-family:sans-serif;font-size:13;text-anchor:end;" transform="matrix(1 0 0 1 3036 1987)">Typeset at 100 points</text>
  <text style="stroke:none;fill:black;font-family:sans-serif;font-size:13;" transform="matrix(1 0 0 1 263 726)">Small</text>
  <text style="stroke:none;fill:black;font-family:sans-serif;font-size:13;" transform="matrix(1 0 0 1 263 1156)">Medium</text>
  <text style="stroke:none;fill:black;font-family:sans-serif;font-size:13;" transform="matrix(1 0 0 1 263 1586)">Large</text>
 </g>
 <g id="Guides">
  <g id="H-reference" style="fill:#27AAE1;stroke:none;" transform="matrix(1 0 0 1 339 696)">
   <path d="M0.976562 0L3.66211 0L29.3457-67.1387L30.0293-67.1387L30.0293-70.459L28.125-70.459ZM11.6699-24.4629L46.9727-24.4629L46.2402-26.709L12.4512-26.709ZM55.127 0L57.7637 0L30.6152-70.459L29.4434-70.459L29.4434-67.1387Z"/>
  </g>
  <line id="Baseline-S" style="fill:none;stroke:#27AAE1;opacity:1;stroke-width:0.5;" x1="263" x2="3036" y1="696" y2="696"/>
  <line id="Capline-S" style="fill:none;stroke:#27AAE1;opacity:1;stroke-width:0.5;" x1="263" x2="3036" y1="625.541" y2="625.541"/>
  <g id="H-reference" style="fill:#27AAE1;stroke:none;" transform="matrix(1 0 0 1 339 1126)">
   <path d="M0.976562 0L3.66211 0L29.3457-67.1387L30.0293-67.1387L30.0293-70.459L28.125-70.459ZM11.6699-24.4629L46.9727-24.4629L46.2402-26.709L12.4512-26.709ZM55.127 0L57.7637 0L30.6152-70.459L29.4434-70.459L29.4434-67.1387Z"/>
  </g>
  <line id="Baseline-M" style="fill:none;stroke:#27AAE1;opacity:1;stroke-width:0.5;" x1="263" x2="3036" y1="1126" y2="1126"/>
  <line id="Capline-M" style="fill:none;stroke:#27AAE1;opacity:1;stroke-width:0.5;" x1="263" x2="3036" y1="1055.54" y2="1055.54"/>
  <g id="H-reference" style="fill:#27AAE1;stroke:none;" transform="matrix(1 0 0 1 339 1556)">
   <path d="M0.976562 0L3.66211 0L29.3457-67.1387L30.0293-67.1387L30.0293-70.459L28.125-70.459ZM11.6699-24.4629L46.9727-24.4629L46.2402-26.709L12.4512-26.709ZM55.127 0L57.7637 0L30.6152-70.459L29.4434-70.459L29.4434-67.1387Z"/>
  </g>
  <line id="Baseline-L" style="fill:none;stroke:#27AAE1;opacity:1;stroke-width:0.5;" x1="263" x2="3036" y1="1556" y2="1556"/>
  <line id="Capline-L" style="fill:none;stroke:#27AAE1;opacity:1;stroke-width:0.5;" x1="263" x2="3036" y1="1485.54" y2="1485.54"/>
  <line id="left-margin-Regular-M" style="fill:none;stroke:#00AEEF;stroke-width:0.5;opacity:1.0;" x1="1392.45" x2="1392.45" y1="1030.78" y2="1150.12"/>
  <line id="right-margin-Regular-M" style="fill:none;stroke:#00AEEF;stroke-width:0.5;opacity:1.0;" x1="1507.24" x2="1507.24" y1="1030.78" y2="1150.12"/>
 </g>
 <g id="Symbols">
  <g id="Black-L" transform="matrix(1 0 0 1 2860.15 1556)">
   <path class="hierarchical-0:primary SFSymbolsPreview212121" d="M73.4-25.27C75.51-25.27 77.51-24.33 78.86-22.71L107.29 11.41C109.06 13.53 109.44 16.47 108.27 18.97C107.1 21.46 104.59 23.06 101.84 23.06L44.96 23.06C42.21 23.06 39.7 21.46 38.53 18.97C37.37 16.47 37.75 13.53 39.51 11.41L67.95-22.71C69.3-24.33 71.29-25.27 73.4-25.27ZM60.12 8.86L86.68 8.86L73.4-7.08L60.12 8.86Z"/>
   <path class="hierarchical-1:secondary SFSymbolsPreview4D4D4D" d="M27.9-79.32C26.77-79.32 25.68-78.87 24.88-78.06C24.08-77.26 23.63-76.18 23.63-75.04L23.63-18.17C23.63-17.03 24.08-15.95 24.88-15.14C25.68-14.34 26.77-13.89 27.9-13.89L33.59-13.89C37.51-13.89 40.69-10.71 40.69-6.79C40.69-2.87 37.51 0.31 33.59 0.31L27.9 0.31C23 0.31 18.3-1.64 14.84-5.1C11.37-8.57 9.43-13.27 9.43-18.17L9.43-75.04C9.43-79.94 11.37-84.64 14.84-88.11C18.3-91.57 23-93.52 27.9-93.52L118.9-93.52C123.8-93.52 128.5-91.57 131.96-88.11C135.43-84.64 137.38-79.94 137.38-75.04L137.38-18.17C137.38-13.27 135.43-8.57 131.96-5.1C128.5-1.64 123.8 0.31 118.9 0.31L113.21 0.31C109.29 0.31 106.11-2.87 106.11-6.79C106.11-10.71 109.29-13.89 113.21-13.89L118.9-13.89C120.03-13.89 121.12-14.34 121.92-15.14C122.73-15.95 123.18-17.03 123.18-18.17L123.18-75.04C123.18-76.18 122.73-77.26 121.92-78.06C121.12-78.87 120.03-79.32 118.9-79.32L27.9-79.32Z"/>
  </g>
  <g id="Heavy-L" transform="matrix(1 0 0 1 2564.29 1556)">
   <path class="hierarchical-0:primary SFSymbolsPreview212121" d="M72.56-24.42C74.41-24.42 76.17-23.59 77.36-22.17L105.8 11.96C107.35 13.82 107.68 16.41 106.66 18.61C105.63 20.81 103.42 22.21 101 22.21L44.12 22.21C41.69 22.21 39.49 20.81 38.46 18.61C37.43 16.41 37.77 13.82 39.32 11.96L67.76-22.17C68.94-23.59 70.7-24.42 72.56-24.42ZM57.46 9.71L87.65 9.71L72.56-8.4L57.46 9.71Z"/>
   <path class="hierarchical-1:secondary SFSymbolsPreview4D4D4D" d="M27.06-80.17C25.7-80.17 24.39-79.63 23.43-78.67C22.47-77.7 21.93-76.4 21.93-75.04L21.93-18.17C21.93-16.81 22.47-15.5 23.43-14.54C24.39-13.58 25.7-13.04 27.06-13.04L32.75-13.04C36.2-13.04 38.99-10.24 38.99-6.79C38.99-3.34 36.2-0.54 32.75-0.54L27.06-0.54C22.38-0.54 17.9-2.4 14.59-5.7C11.29-9.01 9.43-13.49 9.43-18.17L9.43-75.04C9.43-79.72 11.29-84.2 14.59-87.5C17.9-90.81 22.38-92.67 27.06-92.67L118.06-92.67C122.73-92.67 127.21-90.81 130.52-87.5C133.83-84.2 135.68-79.72 135.68-75.04L135.68-18.17C135.68-13.49 133.83-9.01 130.52-5.7C127.21-2.4 122.73-0.54 118.06-0.54L112.37-0.54C108.92-0.54 106.12-3.34 106.12-6.79C106.12-10.24 108.92-13.04 112.37-13.04L118.06-13.04C119.42-13.04 120.72-13.58 121.68-14.54C122.64-15.5 123.18-16.81 123.18-18.17L123.18-75.04C123.18-76.4 122.64-77.7 121.68-78.67C120.72-79.63 119.42-80.17 118.06-80.17L27.06-80.17Z"/>
  </g>
  <g id="Bold-L" transform="matrix(1 0 0 1 2268.53 1556)">
   <path class="hierarchical-0:primary SFSymbolsPreview212121" d="M71.6-23.47C73.18-23.47 74.67-22.77 75.68-21.56L104.11 12.57C105.43 14.14 105.71 16.34 104.84 18.21C103.97 20.07 102.1 21.26 100.04 21.26L43.17 21.26C41.11 21.26 39.24 20.07 38.37 18.21C37.49 16.34 37.78 14.14 39.09 12.57L67.53-21.56C68.54-22.77 70.03-23.47 71.6-23.47ZM54.48 10.66L88.73 10.66L71.6-9.89L54.48 10.66Z"/>
   <path class="hierarchical-1:secondary SFSymbolsPreview4D4D4D" d="M26.1-81.12C24.49-81.12 22.95-80.48 21.81-79.34C20.67-78.2 20.03-76.65 20.03-75.04L20.03-18.17C20.03-16.56 20.67-15.01 21.81-13.87C22.95-12.73 24.49-12.09 26.1-12.09L31.79-12.09C34.72-12.09 37.09-9.72 37.09-6.79C37.09-3.86 34.72-1.49 31.79-1.49L26.1-1.49C21.68-1.49 17.44-3.25 14.31-6.38C11.19-9.5 9.43-13.74 9.43-18.17L9.43-75.04C9.43-79.46 11.19-83.71 14.31-86.83C17.44-89.96 21.68-91.72 26.1-91.72L117.1-91.72C121.53-91.72 125.77-89.96 128.89-86.83C132.02-83.71 133.78-79.46 133.78-75.04L133.78-18.17C133.78-13.74 132.02-9.5 128.89-6.38C125.77-3.25 121.53-1.49 117.1-1.49L111.42-1.49C108.49-1.49 106.12-3.86 106.12-6.79C106.12-9.72 108.49-12.09 111.42-12.09L117.1-12.09C118.72-12.09 120.26-12.73 121.4-13.87C122.54-15.01 123.18-16.56 123.18-18.17L123.18-75.04C123.18-76.65 122.54-78.2 121.4-79.34C120.26-80.48 118.72-81.12 117.1-81.12L26.1-81.12Z"/>
  </g>
  <g id="Semibold-L" transform="matrix(1 0 0 1 1972.47 1556)">
   <path class="hierarchical-0:primary SFSymbolsPreview212121" d="M70.96-22.82C72.34-22.82 73.65-22.2 74.53-21.14L102.97 12.98C104.12 14.37 104.37 16.3 103.61 17.93C102.84 19.56 101.2 20.61 99.4 20.61L42.52 20.61C40.72 20.61 39.08 19.56 38.31 17.93C37.55 16.3 37.79 14.37 38.95 12.98L67.39-21.14C68.27-22.2 69.58-22.82 70.96-22.82ZM52.45 11.31L89.47 11.31L70.96-10.9L52.45 11.31Z"/>
   <path class="hierarchical-1:secondary SFSymbolsPreview4D4D4D" d="M25.46-81.77C23.68-81.77 21.97-81.06 20.7-79.8C19.44-78.54 18.73-76.83 18.73-75.04L18.73-18.17C18.73-16.38 19.44-14.67 20.7-13.41C21.97-12.15 23.68-11.44 25.46-11.44L31.15-11.44C33.72-11.44 35.8-9.36 35.8-6.79C35.8-4.22 33.72-2.14 31.15-2.14L25.46-2.14C21.21-2.14 17.13-3.83 14.13-6.84C11.12-9.84 9.43-13.92 9.43-18.17L9.43-75.04C9.43-79.29 11.12-83.37 14.13-86.37C17.13-89.38 21.21-91.07 25.46-91.07L116.46-91.07C120.71-91.07 124.79-89.38 127.79-86.37C130.8-83.37 132.48-79.29 132.48-75.04L132.48-18.17C132.48-13.92 130.8-9.84 127.79-6.84C124.79-3.83 120.71-2.14 116.46-2.14L110.77-2.14C108.2-2.14 106.12-4.22 106.12-6.79C106.12-9.36 108.2-11.44 110.77-11.44L116.46-11.44C118.24-11.44 119.95-12.15 121.21-13.41C122.48-14.67 123.18-16.38 123.18-18.17L123.18-75.04C123.18-76.83 122.48-78.54 121.21-79.8C119.95-81.06 118.24-81.77 116.46-81.77L25.46-81.77Z"/>
  </g>
  <g id="Medium-L" transform="matrix(1 0 0 1 1676.26 1556)">
   <path class="hierarchical-0:primary SFSymbolsPreview212121" d="M70.46-22.32C71.69-22.32 72.86-21.77 73.65-20.82L102.09 13.3C103.12 14.54 103.34 16.26 102.66 17.72C101.97 19.18 100.51 20.11 98.9 20.11L42.02 20.11C40.41 20.11 38.95 19.18 38.26 17.72C37.58 16.26 37.8 14.54 38.83 13.3L67.27-20.82C68.06-21.77 69.23-22.32 70.46-22.32ZM50.88 11.81L90.04 11.81L70.46-11.68L50.88 11.81Z"/>
   <path class="hierarchical-1:secondary SFSymbolsPreview4D4D4D" d="M24.96-82.27C23.04-82.27 21.21-81.51 19.85-80.15C18.5-78.8 17.73-76.96 17.73-75.04L17.73-18.17C17.73-16.25 18.5-14.41 19.85-13.06C21.21-11.7 23.04-10.94 24.96-10.94L30.65-10.94C32.94-10.94 34.8-9.08 34.8-6.79C34.8-4.5 32.94-2.64 30.65-2.64L24.96-2.64C20.84-2.64 16.89-4.28 13.98-7.19C11.07-10.1 9.43-14.05 9.43-18.17L9.43-75.04C9.43-79.16 11.07-83.11 13.98-86.02C16.89-88.93 20.84-90.57 24.96-90.57L115.96-90.57C120.08-90.57 124.03-88.93 126.94-86.02C129.85-83.11 131.48-79.16 131.48-75.04L131.48-18.17C131.48-14.05 129.85-10.1 126.94-7.19C124.03-4.28 120.08-2.64 115.96-2.64L110.27-2.64C107.98-2.64 106.12-4.5 106.12-6.79C106.12-9.08 107.98-10.94 110.27-10.94L115.96-10.94C117.88-10.94 119.71-11.7 121.07-13.06C122.42-14.41 123.18-16.25 123.18-18.17L123.18-75.04C123.18-76.96 122.42-78.8 121.07-80.15C119.71-81.51 117.88-82.27 115.96-82.27L24.96-82.27Z"/>
  </g>
  <g id="Regular-L" transform="matrix(1 0 0 1 1380.19 1556)">
   <path class="hierarchical-0:primary SFSymbolsPreview212121" d="M69.81-21.67C70.85-21.67 71.83-21.21 72.5-20.41L100.94 13.72C101.81 14.76 101.99 16.21 101.42 17.44C100.84 18.67 99.61 19.46 98.25 19.46L41.37 19.46C40.01 19.46 38.78 18.67 38.2 17.44C37.63 16.21 37.81 14.76 38.68 13.72L67.12-20.41C67.79-21.21 68.77-21.67 69.81-21.67ZM48.85 12.46L90.77 12.46L69.81-12.7L48.85 12.46Z"/>
   <path class="hierarchical-1:secondary SFSymbolsPreview4D4D4D" d="M24.31-82.92C22.22-82.92 20.22-82.09 18.74-80.61C17.26-79.13 16.43-77.13 16.43-75.04L16.43-18.17C16.43-16.08 17.26-14.08 18.74-12.6C20.22-11.12 22.22-10.29 24.31-10.29L30-10.29C31.93-10.29 33.5-8.72 33.5-6.79C33.5-4.86 31.93-3.29 30-3.29L24.31-3.29C20.36-3.29 16.58-4.86 13.79-7.65C11-10.44 9.43-14.22 9.43-18.17L9.43-75.04C9.43-78.99 11-82.77 13.79-85.56C16.58-88.35 20.36-89.92 24.31-89.92L115.31-89.92C119.26-89.92 123.04-88.35 125.83-85.56C128.62-82.77 130.19-78.99 130.19-75.04L130.19-18.17C130.19-14.22 128.62-10.44 125.83-7.65C123.04-4.86 119.26-3.29 115.31-3.29L109.62-3.29C107.69-3.29 106.12-4.86 106.12-6.79C106.12-8.72 107.69-10.29 109.62-10.29L115.31-10.29C117.4-10.29 119.4-11.12 120.88-12.6C122.36-14.08 123.19-16.08 123.19-18.17L123.19-75.04C123.19-77.13 122.36-79.13 120.88-80.61C119.4-82.09 117.4-82.92 115.31-82.92L24.31-82.92Z"/>
  </g>
  <g id="Light-L" transform="matrix(1 0 0 1 1084.28 1556)">
   <path class="hierarchical-0:primary SFSymbolsPreview212121" d="M69-20.87C69.8-20.87 70.56-20.51 71.08-19.9L99.51 14.23C100.18 15.03 100.33 16.15 99.88 17.1C99.44 18.05 98.49 18.66 97.44 18.66L40.56 18.66C39.52 18.66 38.56 18.05 38.12 17.1C37.67 16.15 37.82 15.03 38.49 14.23L66.93-19.9C67.44-20.51 68.2-20.87 69-20.87ZM46.33 13.26L91.67 13.26L69-13.95L46.33 13.26Z"/>
   <path class="hierarchical-1:secondary SFSymbolsPreview4D4D4D" d="M23.5-83.72C21.2-83.72 18.99-82.8 17.37-81.18C15.74-79.55 14.83-77.34 14.83-75.04L14.83-18.17C14.83-15.87 15.74-13.66 17.37-12.03C18.99-10.41 21.2-9.49 23.5-9.49L29.19-9.49C30.68-9.49 31.89-8.28 31.89-6.79C31.89-5.3 30.68-4.09 29.19-4.09L23.5-4.09C19.77-4.09 16.19-5.57 13.55-8.21C10.91-10.85 9.43-14.43 9.43-18.17L9.43-75.04C9.43-78.77 10.91-82.35 13.55-84.99C16.19-87.63 19.77-89.12 23.5-89.12L114.5-89.12C118.23-89.12 121.81-87.63 124.45-84.99C127.09-82.35 128.58-78.77 128.58-75.04L128.58-18.17C128.58-14.43 127.09-10.85 124.45-8.21C121.81-5.57 118.23-4.09 114.5-4.09L108.81-4.09C107.32-4.09 106.11-5.3 106.11-6.79C106.11-8.28 107.32-9.49 108.81-9.49L114.5-9.49C116.8-9.49 119.01-10.41 120.63-12.03C122.26-13.66 123.18-15.87 123.18-18.17L123.18-75.04C123.18-77.34 122.26-79.55 120.63-81.18C119.01-82.8 116.8-83.72 114.5-83.72L23.5-83.72Z"/>
  </g>
  <g id="Thin-L" transform="matrix(1 0 0 1 788.622 1556)">
   <path class="hierarchical-0:primary SFSymbolsPreview212121" d="M67.955-19.82C68.444-19.82 68.909-19.6 69.222-19.22L97.66 14.9C98.07 15.39 98.158 16.08 97.886 16.66C97.615 17.24 97.032 17.61 96.392 17.61L39.517 17.61C38.877 17.61 38.294 17.24 38.023 16.66C37.751 16.08 37.84 15.39 38.25 14.9L66.687-19.22C67.001-19.6 67.465-19.82 67.955-19.82ZM43.04 14.31L92.869 14.31L67.955-15.59L43.04 14.31Z"/>
   <path class="hierarchical-1:secondary SFSymbolsPreview4D4D4D" d="M22.455-84.77C19.875-84.77 17.402-83.74 15.578-81.92C13.754-80.09 12.73-77.62 12.73-75.04L12.73-18.17C12.73-15.59 13.754-13.11 15.578-11.29C17.402-9.47 19.875-8.44 22.455-8.44L28.142-8.44C29.053-8.44 29.792-7.7 29.792-6.79C29.792-5.88 29.053-5.14 28.142-5.14L22.455-5.14C19-5.14 15.687-6.51 13.245-8.96C10.802-11.4 9.43-14.71 9.43-18.17L9.43-75.04C9.43-78.5 10.802-81.81 13.245-84.25C15.687-86.69 19-88.07 22.455-88.07L113.455-88.07C116.909-88.07 120.222-86.69 122.665-84.25C125.107-81.81 126.48-78.5 126.48-75.04L126.48-18.17C126.48-14.71 125.107-11.4 122.665-8.96C120.222-6.51 116.909-5.14 113.455-5.14L107.767-5.14C106.856-5.14 106.117-5.88 106.117-6.79C106.117-7.7 106.856-8.44 107.767-8.44L113.455-8.44C116.034-8.44 118.507-9.47 120.331-11.29C122.155-13.11 123.18-15.59 123.18-18.17L123.18-75.04C123.18-77.62 122.155-80.09 120.331-81.92C118.507-83.74 116.034-84.77 113.455-84.77L22.455-84.77Z"/>
  </g>
  <g id="Ultralight-L" transform="matrix(1 0 0 1 492.461 1556)">
   <path class="hierarchical-0:primary SFSymbolsPreview212121" d="M67.405-19.27C67.732-19.27 68.041-19.12 68.25-18.87L96.688 15.25C96.961 15.58 97.02 16.04 96.839 16.42C96.658 16.81 96.27 17.06 95.843 17.06L38.968 17.06C38.541 17.06 38.153 16.81 37.972 16.42C37.791 16.04 37.85 15.58 38.123 15.25L66.56-18.87C66.769-19.12 67.079-19.27 67.405-19.27ZM41.316 14.86L93.494 14.86L67.405-16.45L41.316 14.86Z"/>
   <path class="hierarchical-1:secondary SFSymbolsPreview4D4D4D" d="M21.905-85.32C19.18-85.32 16.567-84.23 14.64-82.31C12.713-80.38 11.63-77.77 11.63-75.04L11.63-18.17C11.63-15.44 12.713-12.83 14.64-10.9C16.567-8.97 19.18-7.89 21.905-7.89L27.593-7.89C28.2-7.89 28.693-7.4 28.693-6.79C28.693-6.18 28.2-5.69 27.593-5.69L21.905-5.69C18.597-5.69 15.424-7.01 13.084-9.35C10.745-11.69 9.43-14.86 9.43-18.17L9.43-75.04C9.43-78.35 10.745-81.52 13.084-83.86C15.424-86.2 18.597-87.52 21.905-87.52L112.905-87.52C116.214-87.52 119.387-86.2 121.727-83.86C124.066-81.52 125.38-78.35 125.38-75.04L125.38-18.17C125.38-14.86 124.066-11.69 121.727-9.35C119.387-7.01 116.214-5.69 112.905-5.69L107.218-5.69C106.61-5.69 106.118-6.18 106.118-6.79C106.118-7.4 106.61-7.89 107.218-7.89L112.905-7.89C115.63-7.89 118.244-8.97 120.171-10.9C122.098-12.83 123.18-15.44 123.18-18.17L123.18-75.04C123.18-77.77 122.098-80.38 120.171-82.31C118.244-84.23 115.63-85.32 112.905-85.32L21.905-85.32Z"/>
  </g>
  <g id="Black-M" transform="matrix(1 0 0 1 2872.4 1126)">
   <path class="hierarchical-0:primary SFSymbolsPreview212121" d="M61.15-28.94C63.26-28.94 65.26-28.01 66.61-26.39L88.92 0.39C90.69 2.5 91.07 5.45 89.9 7.94C88.73 10.44 86.22 12.03 83.47 12.03L38.84 12.03C36.09 12.03 33.58 10.44 32.41 7.94C31.24 5.45 31.62 2.5 33.39 0.39L55.7-26.39C57.05-28.01 59.05-28.94 61.15-28.94ZM54-2.17L68.31-2.17L61.15-10.75L54-2.17Z"/>
   <path class="hierarchical-1:secondary SFSymbolsPreview4D4D4D" d="M25.45-68.29C24.97-68.29 24.51-68.1 24.16-67.76C23.82-67.42 23.63-66.95 23.63-66.47L23.63-21.84C23.63-21.36 23.82-20.89 24.16-20.55C24.51-20.21 24.97-20.02 25.45-20.02L29.92-20.02C33.84-20.02 37.02-16.84 37.02-12.92C37.02-9 33.84-5.82 29.92-5.82L25.45-5.82C21.2-5.82 17.13-7.51 14.12-10.51C11.12-13.52 9.43-17.59 9.43-21.84L9.43-66.47C9.43-70.72 11.12-74.79 14.12-77.8C17.13-80.8 21.2-82.49 25.45-82.49L96.85-82.49C101.1-82.49 105.18-80.8 108.19-77.8C111.19-74.79 112.88-70.72 112.88-66.47L112.88-21.84C112.88-17.59 111.19-13.52 108.19-10.51C105.18-7.51 101.1-5.82 96.85-5.82L92.39-5.82C88.47-5.82 85.29-9 85.29-12.92C85.29-16.84 88.47-20.02 92.39-20.02L96.85-20.02C97.34-20.02 97.8-20.21 98.15-20.55C98.49-20.89 98.68-21.36 98.68-21.84L98.68-66.47C98.68-66.95 98.49-67.42 98.15-67.76C97.8-68.1 97.34-68.29 96.85-68.29L25.45-68.29Z"/>
  </g>
  <g id="Heavy-M" transform="matrix(1 0 0 1 2576.54 1126)">
   <path class="hierarchical-0:primary SFSymbolsPreview212121" d="M60.3-28.09C62.16-28.09 63.92-27.27 65.11-25.84L87.42 0.93C88.97 2.79 89.3 5.39 88.28 7.58C87.25 9.78 85.04 11.18 82.62 11.18L37.99 11.18C35.57 11.18 33.36 9.78 32.33 7.58C31.3 5.39 31.64 2.79 33.19 0.93L55.5-25.84C56.69-27.27 58.45-28.09 60.3-28.09ZM51.34-1.32L69.27-1.32L60.3-12.08L51.34-1.32Z"/>
   <path class="hierarchical-1:secondary SFSymbolsPreview4D4D4D" d="M24.6-69.14C23.89-69.14 23.21-68.86 22.71-68.36C22.21-67.86 21.93-67.18 21.93-66.47L21.93-21.84C21.93-21.13 22.21-20.45 22.71-19.95C23.21-19.45 23.89-19.17 24.6-19.17L29.07-19.17C32.52-19.17 35.32-16.37 35.32-12.92C35.32-9.47 32.52-6.67 29.07-6.67L24.6-6.67C20.58-6.67 16.72-8.27 13.87-11.11C11.03-13.96 9.43-17.82 9.43-21.84L9.43-66.47C9.43-70.49 11.03-74.35 13.87-77.2C16.72-80.04 20.58-81.64 24.6-81.64L96-81.64C100.03-81.64 103.89-80.04 106.73-77.2C109.58-74.35 111.18-70.49 111.18-66.47L111.18-21.84C111.18-17.82 109.58-13.96 106.73-11.11C103.89-8.27 100.03-6.67 96-6.67L91.54-6.67C88.09-6.67 85.29-9.47 85.29-12.92C85.29-16.37 88.09-19.17 91.54-19.17L96-19.17C96.71-19.17 97.39-19.45 97.9-19.95C98.4-20.45 98.68-21.13 98.68-21.84L98.68-66.47C98.68-67.18 98.4-67.86 97.9-68.36C97.39-68.86 96.71-69.14 96-69.14L24.6-69.14Z"/>
  </g>
  <g id="Bold-M" transform="matrix(1 0 0 1 2280.78 1126)">
   <path class="hierarchical-0:primary SFSymbolsPreview212121" d="M59.35-27.14C60.93-27.14 62.42-26.44 63.43-25.23L85.74 1.54C87.05 3.12 87.34 5.32 86.47 7.18C85.59 9.04 83.72 10.23 81.67 10.23L37.04 10.23C34.98 10.23 33.11 9.04 32.24 7.18C31.37 5.32 31.65 3.12 32.97 1.54L55.28-25.23C56.29-26.44 57.78-27.14 59.35-27.14ZM48.36-0.37L70.35-0.37L59.35-13.56L48.36-0.37Z"/>
   <path class="hierarchical-1:secondary SFSymbolsPreview4D4D4D" d="M23.65-70.09C22.69-70.09 21.77-69.71 21.09-69.03C20.41-68.35 20.03-67.43 20.03-66.47L20.03-21.84C20.03-20.88 20.41-19.96 21.09-19.28C21.77-18.6 22.69-18.22 23.65-18.22L28.12-18.22C31.04-18.22 33.42-15.84 33.42-12.92C33.42-9.99 31.04-7.62 28.12-7.62L23.65-7.62C19.88-7.62 16.26-9.12 13.6-11.78C10.93-14.45 9.43-18.07 9.43-21.84L9.43-66.47C9.43-70.24 10.93-73.86 13.6-76.53C16.26-79.19 19.88-80.69 23.65-80.69L95.05-80.69C98.83-80.69 102.44-79.19 105.11-76.53C107.78-73.86 109.28-70.24 109.28-66.47L109.28-21.84C109.28-18.07 107.78-14.45 105.11-11.78C102.44-9.12 98.83-7.62 95.05-7.62L90.59-7.62C87.66-7.62 85.29-9.99 85.29-12.92C85.29-15.84 87.66-18.22 90.59-18.22L95.05-18.22C96.02-18.22 96.94-18.6 97.62-19.28C98.3-19.96 98.68-20.88 98.68-21.84L98.68-66.47C98.68-67.43 98.3-68.35 97.62-69.03C96.94-69.71 96.02-70.09 95.05-70.09L23.65-70.09Z"/>
  </g>
  <g id="Semibold-M" transform="matrix(1 0 0 1 1984.72 1126)">
   <path class="hierarchical-0:primary SFSymbolsPreview212121" d="M58.71-26.49C60.09-26.49 61.4-25.88 62.28-24.82L84.59 1.96C85.75 3.34 86 5.27 85.23 6.91C84.47 8.54 82.83 9.58 81.02 9.58L36.4 9.58C34.59 9.58 32.95 8.54 32.19 6.91C31.42 5.27 31.67 3.34 32.82 1.96L55.14-24.82C56.02-25.88 57.33-26.49 58.71-26.49ZM46.33 0.28L71.09 0.28L58.71-14.58L46.33 0.28Z"/>
   <path class="hierarchical-1:secondary SFSymbolsPreview4D4D4D" d="M23.01-70.74C21.88-70.74 20.79-70.29 19.99-69.49C19.19-68.69 18.73-67.6 18.73-66.47L18.73-21.84C18.73-20.71 19.19-19.62 19.99-18.82C20.79-18.02 21.88-17.57 23.01-17.57L27.47-17.57C30.04-17.57 32.12-15.48 32.12-12.92C32.12-10.35 30.04-8.27 27.47-8.27L23.01-8.27C19.41-8.27 15.96-9.7 13.41-12.24C10.86-14.79 9.43-18.24 9.43-21.84L9.43-66.47C9.43-70.07 10.86-73.52 13.41-76.07C15.96-78.61 19.41-80.04 23.01-80.04L94.41-80.04C98.01-80.04 101.46-78.61 104.01-76.07C106.55-73.52 107.98-70.07 107.98-66.47L107.98-21.84C107.98-18.24 106.55-14.79 104.01-12.24C101.46-9.7 98.01-8.27 94.41-8.27L89.95-8.27C87.38-8.27 85.3-10.35 85.3-12.92C85.3-15.48 87.38-17.57 89.95-17.57L94.41-17.57C95.54-17.57 96.63-18.02 97.43-18.82C98.23-19.62 98.68-20.71 98.68-21.84L98.68-66.47C98.68-67.6 98.23-68.69 97.43-69.49C96.63-70.29 95.54-70.74 94.41-70.74L23.01-70.74Z"/>
  </g>
  <g id="Medium-M" transform="matrix(1 0 0 1 1688.51 1126)">
   <path class="hierarchical-0:primary SFSymbolsPreview212121" d="M58.21-25.99C59.44-25.99 60.61-25.44 61.4-24.5L83.71 2.28C84.74 3.51 84.96 5.24 84.28 6.69C83.6 8.15 82.13 9.08 80.52 9.08L35.9 9.08C34.29 9.08 32.82 8.15 32.14 6.69C31.46 5.24 31.68 3.51 32.71 2.28L55.02-24.5C55.81-25.44 56.98-25.99 58.21-25.99ZM44.76 0.78L71.66 0.78L58.21-15.36L44.76 0.78Z"/>
   <path class="hierarchical-1:secondary SFSymbolsPreview4D4D4D" d="M22.51-71.24C21.24-71.24 20.03-70.74 19.13-69.84C18.24-68.95 17.73-67.73 17.73-66.47L17.73-21.84C17.73-20.58 18.24-19.36 19.13-18.47C20.03-17.57 21.24-17.07 22.51-17.07L26.97-17.07C29.26-17.07 31.12-15.21 31.12-12.92C31.12-10.62 29.26-8.77 26.97-8.77L22.51-8.77C19.04-8.77 15.72-10.14 13.26-12.6C10.81-15.05 9.43-18.37 9.43-21.84L9.43-66.47C9.43-69.93 10.81-73.26 13.26-75.71C15.72-78.16 19.04-79.54 22.51-79.54L93.91-79.54C97.38-79.54 100.7-78.16 103.16-75.71C105.61-73.26 106.98-69.93 106.98-66.47L106.98-21.84C106.98-18.37 105.61-15.05 103.16-12.6C100.7-10.14 97.38-8.77 93.91-8.77L89.45-8.77C87.16-8.77 85.3-10.62 85.3-12.92C85.3-15.21 87.16-17.07 89.45-17.07L93.91-17.07C95.18-17.07 96.39-17.57 97.29-18.47C98.18-19.36 98.68-20.58 98.68-21.84L98.68-66.47C98.68-67.73 98.18-68.95 97.29-69.84C96.39-70.74 95.18-71.24 93.91-71.24L22.51-71.24Z"/>
  </g>
  <g id="Regular-M" transform="matrix(1 0 0 1 1392.45 1126)">
   <path class="hierarchical-0:primary SFSymbolsPreview212121" d="M57.55-25.34C58.59-25.34 59.57-24.88 60.24-24.08L82.55 2.69C83.42 3.74 83.61 5.19 83.03 6.42C82.46 7.65 81.22 8.43 79.86 8.43L35.24 8.43C33.88 8.43 32.64 7.65 32.07 6.42C31.49 5.19 31.68 3.74 32.55 2.69L54.86-24.08C55.53-24.88 56.51-25.34 57.55-25.34ZM42.71 1.43L72.39 1.43L57.55-16.37L42.71 1.43Z"/>
   <path class="hierarchical-1:secondary SFSymbolsPreview4D4D4D" d="M21.85-71.89C20.41-71.89 19.03-71.32 18.01-70.3C17-69.29 16.43-67.91 16.43-66.47L16.43-21.84C16.43-20.4 17-19.02 18.01-18.01C19.03-16.99 20.41-16.42 21.85-16.42L26.31-16.42C28.25-16.42 29.81-14.85 29.81-12.92C29.81-10.98 28.25-9.42 26.31-9.42L21.85-9.42C18.55-9.42 15.39-10.73 13.06-13.06C10.73-15.39 9.43-18.55 9.43-21.84L9.43-66.47C9.43-69.76 10.73-72.92 13.06-75.25C15.39-77.58 18.55-78.89 21.85-78.89L93.25-78.89C96.55-78.89 99.71-77.58 102.04-75.25C104.37-72.92 105.67-69.76 105.67-66.47L105.67-21.84C105.67-18.55 104.37-15.39 102.04-13.06C99.71-10.73 96.55-9.42 93.25-9.42L88.79-9.42C86.85-9.42 85.29-10.98 85.29-12.92C85.29-14.85 86.85-16.42 88.79-16.42L93.25-16.42C94.69-16.42 96.07-16.99 97.09-18.01C98.1-19.02 98.67-20.4 98.67-21.84L98.67-66.47C98.67-67.91 98.1-69.29 97.09-70.3C96.07-71.32 94.69-71.89 93.25-71.89L21.85-71.89Z"/>
  </g>
  <g id="Light-M" transform="matrix(1 0 0 1 1096.53 1126)">
   <path class="hierarchical-0:primary SFSymbolsPreview212121" d="M56.75-24.54C57.55-24.54 58.31-24.19 58.83-23.57L81.14 3.2C81.81 4.01 81.95 5.13 81.51 6.08C81.06 7.03 80.11 7.63 79.06 7.63L34.44 7.63C33.39 7.63 32.44 7.03 31.99 6.08C31.55 5.13 31.69 4.01 32.36 3.2L54.68-23.57C55.19-24.19 55.95-24.54 56.75-24.54ZM40.2 2.23L73.3 2.23L56.75-17.62L40.2 2.23Z"/>
   <path class="hierarchical-1:secondary SFSymbolsPreview4D4D4D" d="M21.05-72.69C19.4-72.69 17.82-72.04 16.65-70.87C15.48-69.7 14.83-68.12 14.83-66.47L14.83-21.84C14.83-20.19 15.48-18.61 16.65-17.44C17.82-16.27 19.4-15.62 21.05-15.62L25.51-15.62C27-15.62 28.21-14.41 28.21-12.92C28.21-11.43 27-10.22 25.51-10.22L21.05-10.22C17.97-10.22 15.01-11.44 12.83-13.62C10.65-15.8 9.43-18.76 9.43-21.84L9.43-66.47C9.43-69.55 10.65-72.51 12.83-74.69C15.01-76.87 17.97-78.09 21.05-78.09L92.45-78.09C95.53-78.09 98.49-76.87 100.67-74.69C102.85-72.51 104.08-69.55 104.08-66.47L104.08-21.84C104.08-18.76 102.85-15.8 100.67-13.62C98.49-11.44 95.53-10.22 92.45-10.22L87.99-10.22C86.5-10.22 85.29-11.43 85.29-12.92C85.29-14.41 86.5-15.62 87.99-15.62L92.45-15.62C94.1-15.62 95.69-16.27 96.85-17.44C98.02-18.61 98.68-20.19 98.68-21.84L98.68-66.47C98.68-68.12 98.02-69.7 96.85-70.87C95.69-72.04 94.1-72.69 92.45-72.69L21.05-72.69Z"/>
  </g>
  <g id="Thin-M" transform="matrix(1 0 0 1 800.872 1126)">
   <path class="hierarchical-0:primary SFSymbolsPreview212121" d="M55.705-23.49C56.194-23.49 56.659-23.27 56.972-22.9L79.285 3.88C79.695 4.37 79.783 5.05 79.511 5.63C79.24 6.21 78.657 6.58 78.017 6.58L33.392 6.58C32.752 6.58 32.169 6.21 31.898 5.63C31.626 5.05 31.715 4.37 32.125 3.88L54.437-22.9C54.751-23.27 55.215-23.49 55.705-23.49ZM36.915 3.28L74.494 3.28L55.705-19.26L36.915 3.28Z"/>
   <path class="hierarchical-1:secondary SFSymbolsPreview4D4D4D" d="M20.005-73.74C18.075-73.74 16.225-72.98 14.86-71.61C13.496-70.25 12.73-68.4 12.73-66.47L12.73-21.84C12.73-19.91 13.496-18.06 14.86-16.7C16.225-15.33 18.075-14.57 20.005-14.57L24.467-14.57C25.378-14.57 26.117-13.83 26.117-12.92C26.117-12.01 25.378-11.27 24.467-11.27L20.005-11.27C17.2-11.27 14.51-12.38 12.527-14.36C10.544-16.35 9.43-19.04 9.43-21.84L9.43-66.47C9.43-69.27 10.544-71.96 12.527-73.94C14.51-75.93 17.2-77.04 20.005-77.04L91.405-77.04C94.209-77.04 96.899-75.93 98.882-73.94C100.865-71.96 101.98-69.27 101.98-66.47L101.98-21.84C101.98-19.04 100.865-16.35 98.882-14.36C96.899-12.38 94.209-11.27 91.405-11.27L86.942-11.27C86.031-11.27 85.292-12.01 85.292-12.92C85.292-13.83 86.031-14.57 86.942-14.57L91.405-14.57C93.334-14.57 95.184-15.33 96.549-16.7C97.913-18.06 98.68-19.91 98.68-21.84L98.68-66.47C98.68-68.4 97.913-70.25 96.549-71.61C95.184-72.98 93.334-73.74 91.405-73.74L20.005-73.74Z"/>
  </g>
  <g id="Ultralight-M" transform="matrix(1 0 0 1 504.711 1126)">
   <path class="hierarchical-0:primary SFSymbolsPreview212121" d="M55.155-22.94C55.482-22.94 55.791-22.8 56-22.55L78.313 4.23C78.586 4.56 78.645 5.01 78.464 5.4C78.283 5.79 77.895 6.03 77.468 6.03L32.843 6.03C32.416 6.03 32.028 5.79 31.847 5.4C31.666 5.01 31.725 4.56 31.998 4.23L54.31-22.55C54.519-22.8 54.829-22.94 55.155-22.94ZM35.191 3.83L75.119 3.83L55.155-20.12L35.191 3.83Z"/>
   <path class="hierarchical-1:secondary SFSymbolsPreview4D4D4D" d="M19.455-74.29C17.38-74.29 15.39-73.47 13.922-72C12.455-70.53 11.63-68.54 11.63-66.47L11.63-21.84C11.63-19.77 12.455-17.78 13.922-16.31C15.39-14.84 17.38-14.02 19.455-14.02L23.918-14.02C24.525-14.02 25.018-13.52 25.018-12.92C25.018-12.31 24.525-11.82 23.918-11.82L19.455-11.82C16.797-11.82 14.247-12.87 12.367-14.75C10.487-16.63 9.43-19.18 9.43-21.84L9.43-66.47C9.43-69.13 10.487-71.68 12.367-73.56C14.247-75.44 16.797-76.49 19.455-76.49L90.855-76.49C93.514-76.49 96.064-75.44 97.944-73.56C99.824-71.68 100.88-69.13 100.88-66.47L100.88-21.84C100.88-19.18 99.824-16.63 97.944-14.75C96.064-12.87 93.514-11.82 90.855-11.82L86.393-11.82C85.785-11.82 85.293-12.31 85.293-12.92C85.293-13.52 85.785-14.02 86.393-14.02L90.855-14.02C92.931-14.02 94.921-14.84 96.388-16.31C97.856-17.78 98.68-19.77 98.68-21.84L98.68-66.47C98.68-68.54 97.856-70.53 96.388-72C94.921-73.47 92.931-74.29 90.855-74.29L19.455-74.29Z"/>
  </g>
  <g id="Black-S" transform="matrix(1 0 0 1 2882.03 696)">
   <path class="hierarchical-0:primary SFSymbolsPreview212121" d="M51.53-31.932C53.64-31.932 55.64-30.996 56.99-29.377L74.49-8.377C76.25-6.261 76.63-3.315 75.46-0.821C74.29 1.674 71.79 3.268 69.03 3.268L34.03 3.268C31.28 3.268 28.77 1.674 27.6-0.821C26.43-3.315 26.81-6.261 28.58-8.377L46.08-29.377C47.43-30.996 49.42-31.932 51.53-31.932ZM49.19-10.932L53.87-10.932L51.53-13.741L49.19-10.932Z"/>
   <path class="hierarchical-1:secondary SFSymbolsPreview4D4D4D" d="M23.63-59.732L23.63-24.932L27.03-24.932C30.95-24.932 34.13-21.753 34.13-17.832C34.13-13.911 30.95-10.732 27.03-10.732L23.53-10.732C19.79-10.732 16.2-12.218 13.56-14.862C10.92-17.506 9.43-21.092 9.43-24.832L9.43-59.832C9.43-63.572 10.92-67.158 13.56-69.802C16.2-72.446 19.79-73.932 23.53-73.932L79.53-73.932C83.27-73.932 86.86-72.446 89.5-69.802C92.15-67.158 93.63-63.572 93.63-59.832L93.63-24.832C93.63-21.092 92.15-17.506 89.5-14.862C86.86-12.218 83.27-10.732 79.53-10.732L76.03-10.732C72.11-10.732 68.93-13.911 68.93-17.832C68.93-21.753 72.11-24.932 76.03-24.932L79.43-24.932L79.43-59.732L23.63-59.732Z"/>
  </g>
  <g id="Heavy-S" transform="matrix(1 0 0 1 2586.16 696)">
   <path class="hierarchical-0:primary SFSymbolsPreview212121" d="M50.68-31.082C52.54-31.082 54.3-30.258 55.48-28.833L72.98-7.833C74.54-5.97 74.87-3.377 73.84-1.181C72.81 1.015 70.61 2.418 68.18 2.418L33.18 2.418C30.76 2.418 28.55 1.015 27.52-1.181C26.49-3.377 26.83-5.97 28.38-7.833L45.88-28.833C47.07-30.258 48.83-31.082 50.68-31.082ZM46.53-10.082L54.84-10.082L50.68-15.069L46.53-10.082Z"/>
   <path class="hierarchical-1:secondary SFSymbolsPreview4D4D4D" d="M22.68-60.582C22.48-60.582 22.29-60.503 22.15-60.362C22.01-60.222 21.93-60.031 21.93-59.832L21.93-24.832C21.93-24.633 22.01-24.442 22.15-24.302C22.29-24.161 22.48-24.082 22.68-24.082L26.18-24.082C29.63-24.082 32.43-21.284 32.43-17.832C32.43-14.38 29.63-11.582 26.18-11.582L22.68-11.582C19.17-11.582 15.8-12.978 13.31-15.463C10.83-17.948 9.43-21.318 9.43-24.832L9.43-59.832C9.43-63.346 10.83-66.716 13.31-69.201C15.8-71.686 19.17-73.082 22.68-73.082L78.68-73.082C82.2-73.082 85.57-71.686 88.05-69.201C90.54-66.716 91.93-63.346 91.93-59.832L91.93-24.832C91.93-21.318 90.54-17.948 88.05-15.463C85.57-12.978 82.2-11.582 78.68-11.582L75.18-11.582C71.73-11.582 68.93-14.38 68.93-17.832C68.93-21.284 71.73-24.082 75.18-24.082L78.68-24.082C78.88-24.082 79.07-24.161 79.21-24.302C79.35-24.442 79.43-24.633 79.43-24.832L79.43-59.832C79.43-60.031 79.35-60.222 79.21-60.362C79.07-60.503 78.88-60.582 78.68-60.582L22.68-60.582Z"/>
  </g>
  <g id="Bold-S" transform="matrix(1 0 0 1 2290.4 696)">
   <path class="hierarchical-0:primary SFSymbolsPreview212121" d="M49.73-29.927C51.31-29.927 52.8-29.228 53.81-28.02L71.31-7.02C72.62-5.44 72.91-3.241 72.03-1.379C71.16 0.483 69.29 1.673 67.23 1.673L32.23 1.673C30.18 1.673 28.31 0.483 27.43-1.379C26.56-3.241 26.85-5.44 28.16-7.02L45.66-28.02C46.67-29.228 48.16-29.927 49.73-29.927ZM43.55-8.927L55.92-8.927L49.73-16.348L43.55-8.927Z"/>
   <path class="hierarchical-1:secondary SFSymbolsPreview4D4D4D" d="M21.73-61.327C21.28-61.327 20.85-61.148 20.53-60.829C20.21-60.51 20.03-60.078 20.03-59.627L20.03-24.627C20.03-24.176 20.21-23.744 20.53-23.425C20.85-23.106 21.28-22.927 21.73-22.927L25.23-22.927C28.16-22.927 30.53-20.554 30.53-17.627C30.53-14.7 28.16-12.327 25.23-12.327L21.73-12.327C18.47-12.327 15.34-13.623 13.04-15.93C10.73-18.236 9.43-21.365 9.43-24.627L9.43-59.627C9.43-62.889 10.73-66.018 13.04-68.324C15.34-70.631 18.47-71.927 21.73-71.927L77.73-71.927C81-71.927 84.12-70.631 86.43-68.324C88.74-66.018 90.03-62.889 90.03-59.627L90.03-24.627C90.03-21.365 88.74-18.236 86.43-15.93C84.12-13.623 81-12.327 77.73-12.327L74.23-12.327C71.31-12.327 68.93-14.7 68.93-17.627C68.93-20.554 71.31-22.927 74.23-22.927L77.73-22.927C78.18-22.927 78.62-23.106 78.94-23.425C79.25-23.744 79.43-24.176 79.43-24.627L79.43-59.627C79.43-60.078 79.25-60.51 78.94-60.829C78.62-61.148 78.18-61.327 77.73-61.327L21.73-61.327Z"/>
  </g>
  <g id="Semibold-S" transform="matrix(1 0 0 1 1994.34 696)">
   <path class="hierarchical-0:primary SFSymbolsPreview212121" d="M49.08-29.277C50.46-29.277 51.77-28.664 52.65-27.604L70.15-6.604C71.31-5.218 71.56-3.289 70.79-1.655C70.03-0.021 68.38 1.023 66.58 1.023L31.58 1.023C29.78 1.023 28.13-0.021 27.37-1.655C26.6-3.289 26.85-5.218 28.01-6.604L45.51-27.604C46.39-28.664 47.7-29.277 49.08-29.277ZM41.51-8.277L56.65-8.277L49.08-17.363L41.51-8.277Z"/>
   <path class="hierarchical-1:secondary SFSymbolsPreview4D4D4D" d="M21.08-61.977C20.46-61.977 19.86-61.729 19.42-61.289C18.98-60.848 18.73-60.25 18.73-59.627L18.73-24.627C18.73-24.004 18.98-23.406 19.42-22.965C19.86-22.525 20.46-22.277 21.08-22.277L24.58-22.277C27.15-22.277 29.23-20.195 29.23-17.627C29.23-15.059 27.15-12.977 24.58-12.977L21.08-12.977C17.99-12.977 15.03-14.204 12.84-16.389C10.66-18.574 9.43-21.537 9.43-24.627L9.43-59.627C9.43-62.717 10.66-65.68 12.84-67.865C15.03-70.05 17.99-71.277 21.08-71.277L77.08-71.277C80.17-71.277 83.13-70.05 85.32-67.865C87.5-65.68 88.73-62.717 88.73-59.627L88.73-24.627C88.73-21.537 87.5-18.574 85.32-16.389C83.13-14.204 80.17-12.977 77.08-12.977L73.58-12.977C71.01-12.977 68.93-15.059 68.93-17.627C68.93-20.195 71.01-22.277 73.58-22.277L77.08-22.277C77.7-22.277 78.3-22.525 78.74-22.965C79.18-23.406 79.43-24.004 79.43-24.627L79.43-59.627C79.43-60.25 79.18-60.848 78.74-61.289C78.3-61.729 77.7-61.977 77.08-61.977L21.08-61.977Z"/>
  </g>
  <g id="Medium-S" transform="matrix(1 0 0 1 1698.13 696)">
   <path class="hierarchical-0:primary SFSymbolsPreview212121" d="M48.58-28.777C49.81-28.777 50.98-28.23 51.77-27.284L69.27-6.284C70.3-5.047 70.52-3.325 69.84-1.867C69.15-0.408 67.69 0.523 66.08 0.523L31.08 0.523C29.47 0.523 28-0.408 27.32-1.867C26.64-3.325 26.86-5.047 27.89-6.284L45.39-27.284C46.18-28.23 47.35-28.777 48.58-28.777ZM39.94-7.777L57.22-7.777L48.58-18.144L39.94-7.777Z"/>
   <path class="hierarchical-1:secondary SFSymbolsPreview4D4D4D" d="M20.58-62.477C19.82-62.477 19.1-62.177 18.56-61.642C18.03-61.108 17.73-60.383 17.73-59.627L17.73-24.627C17.73-23.871 18.03-23.146 18.56-22.612C19.1-22.077 19.82-21.777 20.58-21.777L24.08-21.777C26.37-21.777 28.23-19.919 28.23-17.627C28.23-15.335 26.37-13.477 24.08-13.477L20.58-13.477C17.62-13.477 14.79-14.652 12.7-16.743C10.6-18.834 9.43-21.67 9.43-24.627L9.43-59.627C9.43-62.584 10.6-65.42 12.7-67.511C14.79-69.602 17.62-70.777 20.58-70.777L76.58-70.777C79.54-70.777 82.37-69.602 84.46-67.511C86.55-65.42 87.73-62.584 87.73-59.627L87.73-24.627C87.73-21.67 86.55-18.834 84.46-16.743C82.37-14.652 79.54-13.477 76.58-13.477L73.08-13.477C70.79-13.477 68.93-15.335 68.93-17.627C68.93-19.919 70.79-21.777 73.08-21.777L76.58-21.777C77.34-21.777 78.06-22.077 78.59-22.612C79.13-23.146 79.43-23.871 79.43-24.627L79.43-59.627C79.43-60.383 79.13-61.108 78.59-61.642C78.06-62.177 77.34-62.477 76.58-62.477L20.58-62.477Z"/>
  </g>
  <g id="Regular-S" transform="matrix(1 0 0 1 1402.07 696)">
   <path class="hierarchical-0:primary SFSymbolsPreview212121" d="M47.93-28.127C48.97-28.127 49.95-27.666 50.62-26.868L68.12-5.868C68.99-4.824 69.18-3.372 68.6-2.142C68.02-0.913 66.79-0.127 65.43-0.127L30.43-0.127C29.07-0.127 27.84-0.913 27.26-2.142C26.68-3.372 26.87-4.824 27.74-5.868L45.24-26.868C45.91-27.666 46.89-28.127 47.93-28.127ZM37.9-7.127L57.96-7.127L47.93-19.16L37.9-7.127Z"/>
   <path class="hierarchical-1:secondary SFSymbolsPreview4D4D4D" d="M19.93-63.127C19-63.127 18.11-62.758 17.46-62.102C16.8-61.445 16.43-60.555 16.43-59.627L16.43-24.627C16.43-23.699 16.8-22.808 17.46-22.152C18.11-21.496 19-21.127 19.93-21.127L23.43-21.127C25.36-21.127 26.93-19.56 26.93-17.627C26.93-15.694 25.36-14.127 23.43-14.127L19.93-14.127C17.15-14.127 14.47-15.233 12.51-17.202C10.54-19.171 9.43-21.842 9.43-24.627L9.43-59.627C9.43-62.412 10.54-65.082 12.51-67.052C14.47-69.021 17.15-70.127 19.93-70.127L75.93-70.127C78.71-70.127 81.39-69.021 83.35-67.052C85.32-65.082 86.43-62.412 86.43-59.627L86.43-24.627C86.43-21.842 85.32-19.171 83.35-17.202C81.39-15.233 78.71-14.127 75.93-14.127L72.43-14.127C70.5-14.127 68.93-15.694 68.93-17.627C68.93-19.56 70.5-21.127 72.43-21.127L75.93-21.127C76.86-21.127 77.75-21.496 78.4-22.152C79.06-22.808 79.43-23.699 79.43-24.627L79.43-59.627C79.43-60.555 79.06-61.445 78.4-62.102C77.75-62.758 76.86-63.127 75.93-63.127L19.93-63.127Z"/>
  </g>
  <g id="Light-S" transform="matrix(1 0 0 1 1106.16 696)">
   <path class="hierarchical-0:primary SFSymbolsPreview212121" d="M47.13-27.327C47.93-27.327 48.69-26.971 49.21-26.355L66.71-5.355C67.38-4.551 67.52-3.43 67.08-2.482C66.63-1.533 65.68-0.927 64.63-0.927L29.63-0.927C28.58-0.927 27.63-1.533 27.19-2.482C26.74-3.43 26.89-4.551 27.56-5.355L45.06-26.355C45.57-26.971 46.33-27.327 47.13-27.327ZM35.4-6.327L58.87-6.327L47.13-20.409L35.4-6.327Z"/>
   <path class="hierarchical-1:secondary SFSymbolsPreview4D4D4D" d="M19.13-63.927C17.99-63.927 16.9-63.474 16.09-62.667C15.28-61.861 14.83-60.767 14.83-59.627L14.83-24.627C14.83-23.486 15.28-22.393 16.09-21.586C16.9-20.78 17.99-20.327 19.13-20.327L22.63-20.327C24.12-20.327 25.33-19.118 25.33-17.627C25.33-16.136 24.12-14.927 22.63-14.927L19.13-14.927C16.56-14.927 14.09-15.949 12.27-17.768C10.45-19.587 9.43-22.054 9.43-24.627L9.43-59.627C9.43-62.2 10.45-64.667 12.27-66.486C14.09-68.305 16.56-69.327 19.13-69.327L75.13-69.327C77.7-69.327 80.17-68.305 81.99-66.486C83.81-64.667 84.83-62.2 84.83-59.627L84.83-24.627C84.83-22.054 83.81-19.587 81.99-17.768C80.17-15.949 77.7-14.927 75.13-14.927L71.63-14.927C70.14-14.927 68.93-16.136 68.93-17.627C68.93-19.118 70.14-20.327 71.63-20.327L75.13-20.327C76.27-20.327 77.36-20.78 78.17-21.586C78.98-22.393 79.43-23.486 79.43-24.627L79.43-59.627C79.43-60.767 78.98-61.861 78.17-62.667C77.36-63.474 76.27-63.927 75.13-63.927L19.13-63.927Z"/>
  </g>
  <g id="Thin-S" transform="matrix(1 0 0 1 810.497 696)">
   <path class="hierarchical-0:primary SFSymbolsPreview212121" d="M46.08-26.277C46.569-26.277 47.034-26.059 47.347-25.683L64.847-4.683C65.257-4.191 65.345-3.507 65.074-2.927C64.802-2.347 64.22-1.977 63.58-1.977L28.58-1.977C27.939-1.977 27.357-2.347 27.085-2.927C26.814-3.507 26.902-4.191 27.312-4.683L44.812-25.683C45.126-26.059 45.59-26.277 46.08-26.277ZM32.102-5.277L60.057-5.277L46.08-22.05L32.102-5.277Z"/>
   <path class="hierarchical-1:secondary SFSymbolsPreview4D4D4D" d="M18.08-64.977C16.661-64.977 15.3-64.413 14.297-63.41C13.293-62.407 12.73-61.046 12.73-59.627L12.73-24.627C12.73-23.208 13.293-21.847 14.297-20.844C15.3-19.841 16.661-19.277 18.08-19.277L21.58-19.277C22.491-19.277 23.23-18.538 23.23-17.627C23.23-16.716 22.491-15.977 21.58-15.977L18.08-15.977C15.785-15.977 13.585-16.888 11.963-18.511C10.341-20.133 9.43-22.333 9.43-24.627L9.43-59.627C9.43-61.921 10.341-64.121 11.963-65.743C13.585-67.366 15.785-68.277 18.08-68.277L74.08-68.277C76.374-68.277 78.574-67.366 80.196-65.743C81.818-64.121 82.73-61.921 82.73-59.627L82.73-24.627C82.73-22.333 81.818-20.133 80.196-18.511C78.574-16.888 76.374-15.977 74.08-15.977L70.58-15.977C69.668-15.977 68.93-16.716 68.93-17.627C68.93-18.538 69.668-19.277 70.58-19.277L74.08-19.277C75.499-19.277 76.859-19.841 77.863-20.844C78.866-21.847 79.43-23.208 79.43-24.627L79.43-59.627C79.43-61.046 78.866-62.407 77.863-63.41C76.859-64.413 75.499-64.977 74.08-64.977L18.08-64.977Z"/>
  </g>
  <g id="Ultralight-S" transform="matrix(1 0 0 1 514.336 696)">
   <path class="hierarchical-0:primary SFSymbolsPreview212121" d="M45.53-25.727C45.857-25.727 46.166-25.582 46.375-25.331L63.875-4.331C64.149-4.003 64.208-3.547 64.027-3.16C63.846-2.774 63.457-2.527 63.03-2.527L28.03-2.527C27.604-2.527 27.215-2.774 27.034-3.16C26.853-3.547 26.912-4.003 27.185-4.331L44.685-25.331C44.894-25.582 45.204-25.727 45.53-25.727ZM30.379-4.727L60.682-4.727L45.53-22.909L30.379-4.727Z"/>
   <path class="hierarchical-1:secondary SFSymbolsPreview4D4D4D" d="M17.53-65.527C15.966-65.527 14.465-64.905 13.358-63.799C12.252-62.692 11.63-61.192 11.63-59.627L11.63-24.627C11.63-23.062 12.252-21.561 13.358-20.455C14.465-19.349 15.966-18.727 17.53-18.727L21.03-18.727C21.638-18.727 22.13-18.234 22.13-17.627C22.13-17.019 21.638-16.527 21.03-16.527L17.53-16.527C15.382-16.527 13.322-17.38 11.803-18.899C10.284-20.418 9.43-22.479 9.43-24.627L9.43-59.627C9.43-61.775 10.284-63.835 11.803-65.354C13.322-66.874 15.382-67.727 17.53-67.727L73.53-67.727C75.679-67.727 77.739-66.874 79.258-65.354C80.777-63.835 81.63-61.775 81.63-59.627L81.63-24.627C81.63-22.479 80.777-20.418 79.258-18.899C77.739-17.38 75.679-16.527 73.53-16.527L70.03-16.527C69.423-16.527 68.93-17.019 68.93-17.627C68.93-18.234 69.423-18.727 70.03-18.727L73.53-18.727C75.095-18.727 76.596-19.349 77.702-20.455C78.809-21.561 79.43-23.062 79.43-24.627L79.43-59.627C79.43-61.192 78.809-62.692 77.702-63.799C76.596-64.905 75.095-65.527 73.53-65.527L17.53-65.527Z"/>
  </g>
 </g>
</svg>
