<?xml version="1.0" encoding="UTF-8"?>
<!--Generator: Apple Native CoreSVG 175-->
<!DOCTYPE svg
PUBLIC "-//W3C//DTD SVG 1.1//EN"
       "http://www.w3.org/Graphics/SVG/1.1/DTD/svg11.dtd">
<svg version="1.1" xmlns="http://www.w3.org/2000/svg" xmlns:xlink="http://www.w3.org/1999/xlink" width="3300" height="2200">
 <!--glyph: "", point size: 100.0, font version: "17.0d12e1", template writer version: "65.1"-->
 <style>.hierarchical-0:secondary {fill:#4D4D4D}
.hierarchical-1:primary {fill:#212121}

.SFSymbolsPreview212121 {fill:#212121;opacity:1.0}
.SFSymbolsPreview4D4D4D {fill:#4D4D4D;opacity:1.0}
</style>
 <g id="Notes">
  <rect height="2200" id="artboard" style="fill:white;opacity:1" width="3300" x="0" y="0"/>
  <line style="fill:none;stroke:black;opacity:1;stroke-width:0.5;" x1="263" x2="3036" y1="292" y2="292"/>
  <text style="stroke:none;fill:black;font-family:sans-serif;font-size:13;font-weight:bold;" transform="matrix(1 0 0 1 263 322)">Weight/Scale Variations</text>
  <text style="stroke:none;fill:black;font-family:sans-serif;font-size:13;text-anchor:middle;" transform="matrix(1 0 0 1 559.711 322)">Ultralight</text>
  <text style="stroke:none;fill:black;font-family:sans-serif;font-size:13;text-anchor:middle;" transform="matrix(1 0 0 1 856.422 322)">Thin</text>
  <text style="stroke:none;fill:black;font-family:sans-serif;font-size:13;text-anchor:middle;" transform="matrix(1 0 0 1 1153.13 322)">Light</text>
  <text style="stroke:none;fill:black;font-family:sans-serif;font-size:13;text-anchor:middle;" transform="matrix(1 0 0 1 1449.84 322)">Regular</text>
  <text style="stroke:none;fill:black;font-family:sans-serif;font-size:13;text-anchor:middle;" transform="matrix(1 0 0 1 1746.56 322)">Medium</text>
  <text style="stroke:none;fill:black;font-family:sans-serif;font-size:13;text-anchor:middle;" transform="matrix(1 0 0 1 2043.27 322)">Semibold</text>
  <text style="stroke:none;fill:black;font-family:sans-serif;font-size:13;text-anchor:middle;" transform="matrix(1 0 0 1 2339.98 322)">Bold</text>
  <text style="stroke:none;fill:black;font-family:sans-serif;font-size:13;text-anchor:middle;" transform="matrix(1 0 0 1 2636.69 322)">Heavy</text>
  <text style="stroke:none;fill:black;font-family:sans-serif;font-size:13;text-anchor:middle;" transform="matrix(1 0 0 1 2933.4 322)">Black</text>
  <line style="fill:none;stroke:black;opacity:1;stroke-width:0.5;" x1="263" x2="3036" y1="1903" y2="1903"/>
  <g transform="matrix(1 0 0 1 263 1933)">
   <path d="M9.24805 0.830078Q10.8691 0.830078 12.2949 0.214844Q13.7207-0.400391 14.8096-1.49414Q15.8984-2.58789 16.5186-4.01367Q17.1387-5.43945 17.1387-7.05078Q17.1387-8.66211 16.5186-10.0879Q15.8984-11.5137 14.8047-12.6074Q13.7109-13.7012 12.2852-14.3164Q10.8594-14.9316 9.23828-14.9316Q7.62695-14.9316 6.20117-14.3164Q4.77539-13.7012 3.69141-12.6074Q2.60742-11.5137 1.9873-10.0879Q1.36719-8.66211 1.36719-7.05078Q1.36719-5.43945 1.9873-4.01367Q2.60742-2.58789 3.69629-1.49414Q4.78516-0.400391 6.21094 0.214844Q7.63672 0.830078 9.24805 0.830078ZM9.24805-0.654297Q7.91992-0.654297 6.7627-1.14746Q5.60547-1.64062 4.73145-2.51953Q3.85742-3.39844 3.36426-4.56055Q2.87109-5.72266 2.87109-7.05078Q2.87109-8.37891 3.35938-9.54102Q3.84766-10.7031 4.72168-11.582Q5.5957-12.4609 6.75293-12.9541Q7.91016-13.4473 9.23828-13.4473Q10.5762-13.4473 11.7334-12.9541Q12.8906-12.4609 13.7695-11.582Q14.6484-10.7031 15.1465-9.54102Q15.6445-8.37891 15.6445-7.05078Q15.6445-5.72266 15.1514-4.56055Q14.6582-3.39844 13.7842-2.51953Q12.9102-1.64062 11.748-1.14746Q10.5859-0.654297 9.24805-0.654297ZM5.6543-7.05078Q5.6543-6.72852 5.85938-6.52832Q6.06445-6.32812 6.40625-6.32812L8.51562-6.32812L8.51562-4.20898Q8.51562-3.88672 8.71094-3.67676Q8.90625-3.4668 9.23828-3.4668Q9.56055-3.4668 9.77051-3.67676Q9.98047-3.88672 9.98047-4.20898L9.98047-6.32812L12.0898-6.32812Q12.4219-6.32812 12.627-6.52832Q12.832-6.72852 12.832-7.05078Q12.832-7.38281 12.627-7.58789Q12.4219-7.79297 12.0898-7.79297L9.98047-7.79297L9.98047-9.90234Q9.98047-10.2344 9.77051-10.4443Q9.56055-10.6543 9.23828-10.6543Q8.90625-10.6543 8.71094-10.4443Q8.51562-10.2344 8.51562-9.90234L8.51562-7.79297L6.40625-7.79297Q6.06445-7.79297 5.85938-7.58789Q5.6543-7.38281 5.6543-7.05078Z"/>
  </g>
  <g transform="matrix(1 0 0 1 281.867 1933)">
   <path d="M11.709 2.91016Q13.75 2.91016 15.5518 2.12891Q17.3535 1.34766 18.7305-0.0292969Q20.1074-1.40625 20.8887-3.20801Q21.6699-5.00977 21.6699-7.05078Q21.6699-9.0918 20.8887-10.8936Q20.1074-12.6953 18.7305-14.0723Q17.3535-15.4492 15.5469-16.2305Q13.7402-17.0117 11.6992-17.0117Q9.6582-17.0117 7.85645-16.2305Q6.05469-15.4492 4.68262-14.0723Q3.31055-12.6953 2.5293-10.8936Q1.74805-9.0918 1.74805-7.05078Q1.74805-5.00977 2.5293-3.20801Q3.31055-1.40625 4.6875-0.0292969Q6.06445 1.34766 7.86621 2.12891Q9.66797 2.91016 11.709 2.91016ZM11.709 1.25Q9.98047 1.25 8.47656 0.605469Q6.97266-0.0390625 5.83496-1.17676Q4.69727-2.31445 4.05762-3.81836Q3.41797-5.32227 3.41797-7.05078Q3.41797-8.7793 4.05762-10.2832Q4.69727-11.7871 5.83008-12.9297Q6.96289-14.0723 8.4668-14.7119Q9.9707-15.3516 11.6992-15.3516Q13.4277-15.3516 14.9316-14.7119Q16.4355-14.0723 17.5781-12.9297Q18.7207-11.7871 19.3652-10.2832Q20.0098-8.7793 20.0098-7.05078Q20.0098-5.32227 19.3701-3.81836Q18.7305-2.31445 17.5928-1.17676Q16.4551-0.0390625 14.9463 0.605469Q13.4375 1.25 11.709 1.25ZM7.17773-7.05078Q7.17773-6.69922 7.41211-6.47461Q7.64648-6.25 8.01758-6.25L10.8887-6.25L10.8887-3.36914Q10.8887-2.99805 11.1133-2.76855Q11.3379-2.53906 11.6895-2.53906Q12.0605-2.53906 12.29-2.76855Q12.5195-2.99805 12.5195-3.36914L12.5195-6.25L15.4004-6.25Q15.7715-6.25 16.001-6.47461Q16.2305-6.69922 16.2305-7.05078Q16.2305-7.42188 16.001-7.65137Q15.7715-7.88086 15.4004-7.88086L12.5195-7.88086L12.5195-10.752Q12.5195-11.1328 12.29-11.3623Q12.0605-11.5918 11.6895-11.5918Q11.3379-11.5918 11.1133-11.3574Q10.8887-11.123 10.8887-10.752L10.8887-7.88086L8.01758-7.88086Q7.63672-7.88086 7.40723-7.65137Q7.17773-7.42188 7.17773-7.05078Z"/>
  </g>
  <g transform="matrix(1 0 0 1 305.646 1933)">
   <path d="M14.9707 5.66406Q17.0605 5.66406 18.96 5.01465Q20.8594 4.36523 22.4512 3.19336Q24.043 2.02148 25.2197 0.429688Q26.3965-1.16211 27.0459-3.06641Q27.6953-4.9707 27.6953-7.05078Q27.6953-9.14062 27.0459-11.04Q26.3965-12.9395 25.2197-14.5312Q24.043-16.123 22.4512-17.2998Q20.8594-18.4766 18.9551-19.126Q17.0508-19.7754 14.9609-19.7754Q12.8711-19.7754 10.9717-19.126Q9.07227-18.4766 7.48535-17.2998Q5.89844-16.123 4.72168-14.5312Q3.54492-12.9395 2.90039-11.04Q2.25586-9.14062 2.25586-7.05078Q2.25586-4.9707 2.90527-3.06641Q3.55469-1.16211 4.72656 0.429688Q5.89844 2.02148 7.49023 3.19336Q9.08203 4.36523 10.9814 5.01465Q12.8809 5.66406 14.9707 5.66406ZM14.9707 3.84766Q13.1641 3.84766 11.5283 3.2959Q9.89258 2.74414 8.53516 1.74805Q7.17773 0.751953 6.17676-0.610352Q5.17578-1.97266 4.62891-3.6084Q4.08203-5.24414 4.08203-7.05078Q4.08203-8.86719 4.62891-10.5029Q5.17578-12.1387 6.17188-13.501Q7.16797-14.8633 8.52539-15.8594Q9.88281-16.8555 11.5186-17.4023Q13.1543-17.9492 14.9609-17.9492Q16.7773-17.9492 18.4131-17.4023Q20.0488-16.8555 21.4111-15.8594Q22.7734-14.8633 23.7695-13.501Q24.7656-12.1387 25.3174-10.5029Q25.8691-8.86719 25.8691-7.05078Q25.8789-5.24414 25.332-3.6084Q24.7852-1.97266 23.7842-0.610352Q22.7832 0.751953 21.4209 1.74805Q20.0586 2.74414 18.4229 3.2959Q16.7871 3.84766 14.9707 3.84766ZM9.19922-7.05078Q9.19922-6.66992 9.45801-6.4209Q9.7168-6.17188 10.1172-6.17188L14.0625-6.17188L14.0625-2.2168Q14.0625-1.81641 14.3115-1.55762Q14.5605-1.29883 14.9512-1.29883Q15.3516-1.29883 15.6104-1.55273Q15.8691-1.80664 15.8691-2.2168L15.8691-6.17188L19.8242-6.17188Q20.2246-6.17188 20.4785-6.4209Q20.7324-6.66992 20.7324-7.05078Q20.7324-7.46094 20.4785-7.71484Q20.2246-7.96875 19.8242-7.96875L15.8691-7.96875L15.8691-11.9141Q15.8691-12.3242 15.6104-12.583Q15.3516-12.8418 14.9512-12.8418Q14.5605-12.8418 14.3115-12.583Q14.0625-12.3242 14.0625-11.9141L14.0625-7.96875L10.1172-7.96875Q9.70703-7.96875 9.45312-7.71484Q9.19922-7.46094 9.19922-7.05078Z"/>
  </g>
  <text style="stroke:none;fill:black;font-family:sans-serif;font-size:13;font-weight:bold;" transform="matrix(1 0 0 1 263 1953)">Design Variations</text>
  <text style="stroke:none;fill:black;font-family:sans-serif;font-size:13;" transform="matrix(1 0 0 1 263 1971)">Symbols are supported in up to nine weights and three scales.</text>
  <text style="stroke:none;fill:black;font-family:sans-serif;font-size:13;" transform="matrix(1 0 0 1 263 1989)">For optimal layout with text and other symbols, vertically align</text>
  <text style="stroke:none;fill:black;font-family:sans-serif;font-size:13;" transform="matrix(1 0 0 1 263 2007)">symbols with the adjacent text.</text>
  <line style="fill:none;stroke:#00AEEF;stroke-width:0.5;opacity:1.0;" x1="776" x2="776" y1="1919" y2="1933"/>
  <g transform="matrix(1 0 0 1 776 1933)">
   <path d="M3.31055 0.15625Q3.70117 0.15625 3.91602-0.00976562Q4.13086-0.175781 4.26758-0.585938L5.52734-4.0332L11.2891-4.0332L12.5488-0.585938Q12.6855-0.175781 12.9004-0.00976562Q13.1152 0.15625 13.4961 0.15625Q13.8867 0.15625 14.1162-0.0585938Q14.3457-0.273438 14.3457-0.644531Q14.3457-0.869141 14.2383-1.17188L9.6582-13.3691Q9.48242-13.8184 9.17969-14.043Q8.87695-14.2676 8.4082-14.2676Q7.5-14.2676 7.17773-13.3789L2.59766-1.16211Q2.49023-0.859375 2.49023-0.634766Q2.49023-0.263672 2.70996-0.0537109Q2.92969 0.15625 3.31055 0.15625ZM6.00586-5.51758L8.37891-12.0898L8.42773-12.0898L10.8008-5.51758Z"/>
  </g>
  <line style="fill:none;stroke:#00AEEF;stroke-width:0.5;opacity:1.0;" x1="793.197" x2="793.197" y1="1919" y2="1933"/>
  <text style="stroke:none;fill:black;font-family:sans-serif;font-size:13;font-weight:bold;" transform="matrix(1 0 0 1 776 1953)">Margins</text>
  <text style="stroke:none;fill:black;font-family:sans-serif;font-size:13;" transform="matrix(1 0 0 1 776 1971)">Leading and trailing margins on the left and right side of each symbol</text>
  <text style="stroke:none;fill:black;font-family:sans-serif;font-size:13;" transform="matrix(1 0 0 1 776 1989)">can be adjusted by modifying the x-location of the margin guidelines.</text>
  <text style="stroke:none;fill:black;font-family:sans-serif;font-size:13;" transform="matrix(1 0 0 1 776 2007)">Modifications are automatically applied proportionally to all</text>
  <text style="stroke:none;fill:black;font-family:sans-serif;font-size:13;" transform="matrix(1 0 0 1 776 2025)">scales and weights.</text>
  <g transform="matrix(1 0 0 1 1289 1933)">
   <path d="M2.8418 1.86523L4.54102 3.57422Q5.18555 4.22852 5.90332 4.17969Q6.62109 4.13086 7.31445 3.35938L18.0078-8.42773L17.041-9.4043L6.42578 2.27539Q6.16211 2.57812 5.89355 2.61719Q5.625 2.65625 5.27344 2.30469L4.10156 1.14258Q3.75 0.791016 3.79395 0.522461Q3.83789 0.253906 4.14062-0.0195312L15.6152-10.8203L14.6387-11.7871L3.04688-0.898438Q2.30469-0.214844 2.25098 0.498047Q2.19727 1.21094 2.8418 1.86523ZM9.25781-16.3281Q8.94531-16.0254 8.90625-15.6348Q8.86719-15.2441 9.04297-14.9512Q9.21875-14.6777 9.55566-14.541Q9.89258-14.4043 10.3809-14.5215Q11.4746-14.7754 12.5977-14.7314Q13.7207-14.6875 14.7949-13.9844L14.209-12.5293Q13.9551-11.9043 14.0674-11.4404Q14.1797-10.9766 14.5801-10.5664L16.875-8.25195Q17.2363-7.88086 17.5781-7.82227Q17.9199-7.76367 18.3398-7.8418L19.4043-8.03711L20.0684-7.36328L20.0293-6.80664Q20-6.43555 20.1221-6.12305Q20.2441-5.81055 20.6055-5.44922L21.3672-4.70703Q21.7285-4.3457 22.1533-4.33105Q22.5781-4.31641 22.9297-4.66797L25.8398-7.58789Q26.1914-7.93945 26.1816-8.35449Q26.1719-8.76953 25.8105-9.13086L25.0391-9.89258Q24.6875-10.2539 24.3799-10.3857Q24.0723-10.5176 23.7109-10.4883L23.1348-10.4395L22.4902-11.0742L22.7344-12.1973Q22.832-12.6172 22.6953-12.9834Q22.5586-13.3496 22.1191-13.7891L19.9219-15.9766Q18.6719-17.2168 17.2607-17.8369Q15.8496-18.457 14.4189-18.4814Q12.9883-18.5059 11.665-17.959Q10.3418-17.4121 9.25781-16.3281ZM10.752-15.957Q11.6602-16.6211 12.7002-16.9043Q13.7402-17.1875 14.8047-17.085Q15.8691-16.9824 16.8701-16.5137Q17.8711-16.0449 18.7012-15.2051L21.1328-12.793Q21.3086-12.6172 21.3525-12.4512Q21.3965-12.2852 21.3379-12.0312L21.0156-10.5469L22.5195-9.0625L23.5059-9.12109Q23.6914-9.13086 23.7891-9.09668Q23.8867-9.0625 24.0332-8.91602L24.6094-8.33984L22.168-5.89844L21.5918-6.47461Q21.4453-6.62109 21.4062-6.71875Q21.3672-6.81641 21.377-7.01172L21.4453-7.98828L19.9512-9.47266L18.4277-9.21875Q18.1836-9.16992 18.042-9.2041Q17.9004-9.23828 17.7148-9.41406L15.7129-11.416Q15.5176-11.5918 15.4932-11.7529Q15.4688-11.9141 15.5859-12.1875L16.4648-14.2773Q15.293-15.3711 13.8281-15.791Q12.3633-16.2109 10.8398-15.7617Q10.7227-15.7324 10.6885-15.8057Q10.6543-15.8789 10.752-15.957Z"/>
  </g>
  <text style="stroke:none;fill:black;font-family:sans-serif;font-size:13;font-weight:bold;" transform="matrix(1 0 0 1 1289 1953)">Exporting</text>
  <text style="stroke:none;fill:black;font-family:sans-serif;font-size:13;" transform="matrix(1 0 0 1 1289 1971)">Symbols should be outlined when exporting to ensure the</text>
  <text style="stroke:none;fill:black;font-family:sans-serif;font-size:13;" transform="matrix(1 0 0 1 1289 1989)">design is preserved when submitting to Xcode.</text>
  <text id="template-version" style="stroke:none;fill:black;font-family:sans-serif;font-size:13;text-anchor:end;" transform="matrix(1 0 0 1 3036 1933)">Template v.3.0</text>
  <text style="stroke:none;fill:black;font-family:sans-serif;font-size:13;text-anchor:end;" transform="matrix(1 0 0 1 3036 1951)">Requires Xcode 13 or greater</text>
  <text id="descriptive-name" style="stroke:none;fill:black;font-family:sans-serif;font-size:13;text-anchor:end;" transform="matrix(1 0 0 1 3036 1969)">Generated from align-center</text>
  <text style="stroke:none;fill:black;font-family:sans-serif;font-size:13;text-anchor:end;" transform="matrix(1 0 0 1 3036 1987)">Typeset at 100 points</text>
  <text style="stroke:none;fill:black;font-family:sans-serif;font-size:13;" transform="matrix(1 0 0 1 263 726)">Small</text>
  <text style="stroke:none;fill:black;font-family:sans-serif;font-size:13;" transform="matrix(1 0 0 1 263 1156)">Medium</text>
  <text style="stroke:none;fill:black;font-family:sans-serif;font-size:13;" transform="matrix(1 0 0 1 263 1586)">Large</text>
 </g>
 <g id="Guides">
  <g id="H-reference" style="fill:#27AAE1;stroke:none;" transform="matrix(1 0 0 1 339 696)">
   <path d="M0.976562 0L3.66211 0L29.3457-67.1387L30.0293-67.1387L30.0293-70.459L28.125-70.459ZM11.6699-24.4629L46.9727-24.4629L46.2402-26.709L12.4512-26.709ZM55.127 0L57.7637 0L30.6152-70.459L29.4434-70.459L29.4434-67.1387Z"/>
  </g>
  <line id="Baseline-S" style="fill:none;stroke:#27AAE1;opacity:1;stroke-width:0.5;" x1="263" x2="3036" y1="696" y2="696"/>
  <line id="Capline-S" style="fill:none;stroke:#27AAE1;opacity:1;stroke-width:0.5;" x1="263" x2="3036" y1="625.541" y2="625.541"/>
  <g id="H-reference" style="fill:#27AAE1;stroke:none;" transform="matrix(1 0 0 1 339 1126)">
   <path d="M0.976562 0L3.66211 0L29.3457-67.1387L30.0293-67.1387L30.0293-70.459L28.125-70.459ZM11.6699-24.4629L46.9727-24.4629L46.2402-26.709L12.4512-26.709ZM55.127 0L57.7637 0L30.6152-70.459L29.4434-70.459L29.4434-67.1387Z"/>
  </g>
  <line id="Baseline-M" style="fill:none;stroke:#27AAE1;opacity:1;stroke-width:0.5;" x1="263" x2="3036" y1="1126" y2="1126"/>
  <line id="Capline-M" style="fill:none;stroke:#27AAE1;opacity:1;stroke-width:0.5;" x1="263" x2="3036" y1="1055.54" y2="1055.54"/>
  <g id="H-reference" style="fill:#27AAE1;stroke:none;" transform="matrix(1 0 0 1 339 1556)">
   <path d="M0.976562 0L3.66211 0L29.3457-67.1387L30.0293-67.1387L30.0293-70.459L28.125-70.459ZM11.6699-24.4629L46.9727-24.4629L46.2402-26.709L12.4512-26.709ZM55.127 0L57.7637 0L30.6152-70.459L29.4434-70.459L29.4434-67.1387Z"/>
  </g>
  <line id="Baseline-L" style="fill:none;stroke:#27AAE1;opacity:1;stroke-width:0.5;" x1="263" x2="3036" y1="1556" y2="1556"/>
  <line id="Capline-L" style="fill:none;stroke:#27AAE1;opacity:1;stroke-width:0.5;" x1="263" x2="3036" y1="1485.54" y2="1485.54"/>
  <line id="left-margin-Regular-M" style="fill:none;stroke:#00AEEF;stroke-width:0.5;opacity:1.0;" x1="1392.45" x2="1392.45" y1="1030.78" y2="1150.12"/>
  <line id="right-margin-Regular-M" style="fill:none;stroke:#00AEEF;stroke-width:0.5;opacity:1.0;" x1="1507.24" x2="1507.24" y1="1030.78" y2="1150.12"/>
 </g>
 <g id="Symbols">
  <g id="Black-L" transform="matrix(1 0 0 1 2861.38 1556)">
   <path class="hierarchical-0:secondary SFSymbolsPreview4D4D4D" d="M30.96-1.1C30.96-5.03 34.13-8.2 38.06-8.2L106.31-8.2C110.23-8.2 113.41-5.03 113.41-1.1C113.41 2.82 110.23 6 106.31 6L38.06 6C34.13 6 30.96 2.82 30.96-1.1ZM30.96-46.6C30.96-50.53 34.13-53.7 38.06-53.7L106.31-53.7C110.23-53.7 113.41-50.53 113.41-46.6C113.41-42.68 110.23-39.5 106.31-39.5L38.06-39.5C34.13-39.5 30.96-42.68 30.96-46.6Z"/>
   <path class="hierarchical-1:primary SFSymbolsPreview212121" d="M13.89-23.85C13.89-27.78 17.07-30.95 20.99-30.95L123.37-30.95C127.29-30.95 130.47-27.78 130.47-23.85C130.47-19.93 127.29-16.75 123.37-16.75L20.99-16.75C17.07-16.75 13.89-19.93 13.89-23.85ZM13.89-69.35C13.89-73.28 17.07-76.45 20.99-76.45L123.37-76.45C127.29-76.45 130.47-73.28 130.47-69.35C130.47-65.43 127.29-62.25 123.37-62.25L20.99-62.25C17.07-62.25 13.89-65.43 13.89-69.35Z"/>
  </g>
  <g id="Heavy-L" transform="matrix(1 0 0 1 2565.52 1556)">
   <path class="hierarchical-0:secondary SFSymbolsPreview4D4D4D" d="M30.95-1.1C30.95-4.56 33.75-7.35 37.2-7.35L105.45-7.35C108.9-7.35 111.7-4.56 111.7-1.1C111.7 2.35 108.9 5.15 105.45 5.15L37.2 5.15C33.75 5.15 30.95 2.35 30.95-1.1ZM30.95-46.6C30.95-50.06 33.75-52.85 37.2-52.85L105.45-52.85C108.9-52.85 111.7-50.06 111.7-46.6C111.7-43.15 108.9-40.35 105.45-40.35L37.2-40.35C33.75-40.35 30.95-43.15 30.95-46.6Z"/>
   <path class="hierarchical-1:primary SFSymbolsPreview212121" d="M13.89-23.85C13.89-27.31 16.69-30.1 20.14-30.1L122.52-30.1C125.97-30.1 128.76-27.31 128.76-23.85C128.76-20.4 125.97-17.6 122.52-17.6L20.14-17.6C16.69-17.6 13.89-20.4 13.89-23.85ZM13.89-69.35C13.89-72.81 16.69-75.6 20.14-75.6L122.52-75.6C125.97-75.6 128.76-72.81 128.76-69.35C128.76-65.9 125.97-63.1 122.52-63.1L20.14-63.1C16.69-63.1 13.89-65.9 13.89-69.35Z"/>
  </g>
  <g id="Bold-L" transform="matrix(1 0 0 1 2269.76 1556)">
   <path class="hierarchical-0:secondary SFSymbolsPreview4D4D4D" d="M30.95-1.1C30.95-4.03 33.32-6.4 36.25-6.4L104.5-6.4C107.43-6.4 109.8-4.03 109.8-1.1C109.8 1.82 107.43 4.2 104.5 4.2L36.25 4.2C33.32 4.2 30.95 1.82 30.95-1.1ZM30.95-46.6C30.95-49.53 33.32-51.9 36.25-51.9L104.5-51.9C107.43-51.9 109.8-49.53 109.8-46.6C109.8-43.68 107.43-41.3 104.5-41.3L36.25-41.3C33.32-41.3 30.95-43.68 30.95-46.6Z"/>
   <path class="hierarchical-1:primary SFSymbolsPreview212121" d="M13.89-23.85C13.89-26.78 16.26-29.15 19.19-29.15L121.56-29.15C124.49-29.15 126.86-26.78 126.86-23.85C126.86-20.93 124.49-18.55 121.56-18.55L19.19-18.55C16.26-18.55 13.89-20.93 13.89-23.85ZM13.89-69.35C13.89-72.28 16.26-74.65 19.19-74.65L121.56-74.65C124.49-74.65 126.86-72.28 126.86-69.35C126.86-66.43 124.49-64.05 121.56-64.05L19.19-64.05C16.26-64.05 13.89-66.43 13.89-69.35Z"/>
  </g>
  <g id="Semibold-L" transform="matrix(1 0 0 1 1973.69 1556)">
   <path class="hierarchical-0:secondary SFSymbolsPreview4D4D4D" d="M30.95-1.1C30.95-3.67 33.04-5.75 35.6-5.75L103.85-5.75C106.42-5.75 108.5-3.67 108.5-1.1C108.5 1.46 106.42 3.55 103.85 3.55L35.6 3.55C33.04 3.55 30.95 1.46 30.95-1.1ZM30.95-46.6C30.95-49.17 33.04-51.25 35.6-51.25L103.85-51.25C106.42-51.25 108.5-49.17 108.5-46.6C108.5-44.04 106.42-41.95 103.85-41.95L35.6-41.95C33.04-41.95 30.95-44.04 30.95-46.6Z"/>
   <path class="hierarchical-1:primary SFSymbolsPreview212121" d="M13.89-23.85C13.89-26.42 15.97-28.5 18.54-28.5L120.92-28.5C123.49-28.5 125.57-26.42 125.57-23.85C125.57-21.29 123.49-19.2 120.92-19.2L18.54-19.2C15.97-19.2 13.89-21.29 13.89-23.85ZM13.89-69.35C13.89-71.92 15.97-74 18.54-74L120.92-74C123.49-74 125.57-71.92 125.57-69.35C125.57-66.79 123.49-64.7 120.92-64.7L18.54-64.7C15.97-64.7 13.89-66.79 13.89-69.35Z"/>
  </g>
  <g id="Medium-L" transform="matrix(1 0 0 1 1677.48 1556)">
   <path class="hierarchical-0:secondary SFSymbolsPreview4D4D4D" d="M30.95-1.1C30.95-3.4 32.81-5.25 35.1-5.25L103.35-5.25C105.65-5.25 107.5-3.4 107.5-1.1C107.5 1.19 105.65 3.05 103.35 3.05L35.1 3.05C32.81 3.05 30.95 1.19 30.95-1.1ZM30.95-46.6C30.95-48.9 32.81-50.75 35.1-50.75L103.35-50.75C105.65-50.75 107.5-48.9 107.5-46.6C107.5-44.31 105.65-42.45 103.35-42.45L35.1-42.45C32.81-42.45 30.95-44.31 30.95-46.6Z"/>
   <path class="hierarchical-1:primary SFSymbolsPreview212121" d="M13.89-23.85C13.89-26.15 15.75-28 18.04-28L120.42-28C122.71-28 124.57-26.15 124.57-23.85C124.57-21.56 122.71-19.7 120.42-19.7L18.04-19.7C15.75-19.7 13.89-21.56 13.89-23.85ZM13.89-69.35C13.89-71.65 15.75-73.5 18.04-73.5L120.42-73.5C122.71-73.5 124.57-71.65 124.57-69.35C124.57-67.06 122.71-65.2 120.42-65.2L18.04-65.2C15.75-65.2 13.89-67.06 13.89-69.35Z"/>
  </g>
  <g id="Regular-L" transform="matrix(1 0 0 1 1381.42 1556)">
   <path class="hierarchical-0:secondary SFSymbolsPreview4D4D4D" d="M30.96-1.1C30.96-3.04 32.52-4.6 34.46-4.6L102.7-4.6C104.64-4.6 106.2-3.04 106.2-1.1C106.2 0.83 104.64 2.4 102.7 2.4L34.46 2.4C32.52 2.4 30.96 0.83 30.96-1.1ZM30.96-46.6C30.96-48.54 32.52-50.1 34.46-50.1L102.7-50.1C104.64-50.1 106.2-48.54 106.2-46.6C106.2-44.67 104.64-43.1 102.7-43.1L34.46-43.1C32.52-43.1 30.96-44.67 30.96-46.6Z"/>
   <path class="hierarchical-1:primary SFSymbolsPreview212121" d="M13.89-23.85C13.89-25.79 15.46-27.35 17.39-27.35L119.77-27.35C121.7-27.35 123.27-25.79 123.27-23.85C123.27-21.92 121.7-20.35 119.77-20.35L17.39-20.35C15.46-20.35 13.89-21.92 13.89-23.85ZM13.89-69.35C13.89-71.29 15.46-72.85 17.39-72.85L119.77-72.85C121.7-72.85 123.27-71.29 123.27-69.35C123.27-67.42 121.7-65.85 119.77-65.85L17.39-65.85C15.46-65.85 13.89-67.42 13.89-69.35Z"/>
  </g>
  <g id="Light-L" transform="matrix(1 0 0 1 1085.51 1556)">
   <path class="hierarchical-0:secondary SFSymbolsPreview4D4D4D" d="M30.96-1.1C30.96-2.6 32.16-3.8 33.66-3.8L101.91-3.8C103.4-3.8 104.61-2.6 104.61-1.1C104.61 0.39 103.4 1.6 101.91 1.6L33.66 1.6C32.16 1.6 30.96 0.39 30.96-1.1ZM30.96-46.6C30.96-48.1 32.16-49.3 33.66-49.3L101.91-49.3C103.4-49.3 104.61-48.1 104.61-46.6C104.61-45.11 103.4-43.9 101.91-43.9L33.66-43.9C32.16-43.9 30.96-45.11 30.96-46.6Z"/>
   <path class="hierarchical-1:primary SFSymbolsPreview212121" d="M13.89-23.85C13.89-25.35 15.1-26.55 16.59-26.55L118.97-26.55C120.46-26.55 121.67-25.35 121.67-23.85C121.67-22.36 120.46-21.15 118.97-21.15L16.59-21.15C15.1-21.15 13.89-22.36 13.89-23.85ZM13.89-69.35C13.89-70.85 15.1-72.05 16.59-72.05L118.97-72.05C120.46-72.05 121.67-70.85 121.67-69.35C121.67-67.86 120.46-66.65 118.97-66.65L16.59-66.65C15.1-66.65 13.89-67.86 13.89-69.35Z"/>
  </g>
  <g id="Thin-L" transform="matrix(1 0 0 1 789.85 1556)">
   <path class="hierarchical-0:secondary SFSymbolsPreview4D4D4D" d="M30.953-1.1C30.953-2.02 31.691-2.75 32.603-2.75L100.853-2.75C101.764-2.75 102.503-2.02 102.503-1.1C102.503-0.19 101.764 0.55 100.853 0.55L32.603 0.55C31.691 0.55 30.953-0.19 30.953-1.1ZM30.953-46.6C30.953-47.52 31.691-48.25 32.603-48.25L100.853-48.25C101.764-48.25 102.503-47.52 102.503-46.6C102.503-45.69 101.764-44.95 100.853-44.95L32.603-44.95C31.691-44.95 30.953-45.69 30.953-46.6Z"/>
   <path class="hierarchical-1:primary SFSymbolsPreview212121" d="M13.89-23.85C13.89-24.77 14.629-25.5 15.54-25.5L117.915-25.5C118.826-25.5 119.565-24.77 119.565-23.85C119.565-22.94 118.826-22.2 117.915-22.2L15.54-22.2C14.629-22.2 13.89-22.94 13.89-23.85ZM13.89-69.35C13.89-70.27 14.629-71 15.54-71L117.915-71C118.826-71 119.565-70.27 119.565-69.35C119.565-68.44 118.826-67.7 117.915-67.7L15.54-67.7C14.629-67.7 13.89-68.44 13.89-69.35Z"/>
  </g>
  <g id="Ultralight-L" transform="matrix(1 0 0 1 493.689 1556)">
   <path class="hierarchical-0:secondary SFSymbolsPreview4D4D4D" d="M30.952-1.1C30.952-1.71 31.445-2.2 32.052-2.2L100.302-2.2C100.91-2.2 101.402-1.71 101.402-1.1C101.402-0.5 100.91 0 100.302 0L32.052 0C31.445 0 30.952-0.5 30.952-1.1ZM30.952-46.6C30.952-47.21 31.445-47.7 32.052-47.7L100.302-47.7C100.91-47.7 101.402-47.21 101.402-46.6C101.402-46 100.91-45.5 100.302-45.5L32.052-45.5C31.445-45.5 30.952-46 30.952-46.6Z"/>
   <path class="hierarchical-1:primary SFSymbolsPreview212121" d="M13.89-23.85C13.89-24.46 14.382-24.95 14.99-24.95L117.365-24.95C117.972-24.95 118.465-24.46 118.465-23.85C118.465-23.25 117.972-22.75 117.365-22.75L14.99-22.75C14.382-22.75 13.89-23.25 13.89-23.85ZM13.89-69.35C13.89-69.96 14.382-70.45 14.99-70.45L117.365-70.45C117.972-70.45 118.465-69.96 118.465-69.35C118.465-68.75 117.972-68.25 117.365-68.25L14.99-68.25C14.382-68.25 13.89-68.75 13.89-69.35Z"/>
  </g>
  <g id="Black-M" transform="matrix(1 0 0 1 2872.4 1126)">
   <path class="hierarchical-0:secondary SFSymbolsPreview4D4D4D" d="M27.28-8.45C27.28-12.38 30.46-15.55 34.38-15.55L87.93-15.55C91.85-15.55 95.03-12.38 95.03-8.45C95.03-4.53 91.85-1.35 87.93-1.35L34.38-1.35C30.46-1.35 27.28-4.53 27.28-8.45ZM27.28-44.15C27.28-48.08 30.46-51.25 34.38-51.25L87.93-51.25C91.85-51.25 95.03-48.08 95.03-44.15C95.03-40.23 91.85-37.05 87.93-37.05L34.38-37.05C30.46-37.05 27.28-40.23 27.28-44.15Z"/>
   <path class="hierarchical-1:primary SFSymbolsPreview212121" d="M13.89-26.3C13.89-30.23 17.07-33.4 20.99-33.4L101.32-33.4C105.24-33.4 108.42-30.23 108.42-26.3C108.42-22.38 105.24-19.2 101.32-19.2L20.99-19.2C17.07-19.2 13.89-22.38 13.89-26.3ZM13.89-62C13.89-65.93 17.07-69.1 20.99-69.1L101.32-69.1C105.24-69.1 108.42-65.93 108.42-62C108.42-58.08 105.24-54.9 101.32-54.9L20.99-54.9C17.07-54.9 13.89-58.08 13.89-62Z"/>
  </g>
  <g id="Heavy-M" transform="matrix(1 0 0 1 2576.54 1126)">
   <path class="hierarchical-0:secondary SFSymbolsPreview4D4D4D" d="M27.28-8.45C27.28-11.91 30.08-14.7 33.53-14.7L87.08-14.7C90.53-14.7 93.33-11.91 93.33-8.45C93.33-5 90.53-2.2 87.08-2.2L33.53-2.2C30.08-2.2 27.28-5 27.28-8.45ZM27.28-44.15C27.28-47.61 30.08-50.4 33.53-50.4L87.08-50.4C90.53-50.4 93.33-47.61 93.33-44.15C93.33-40.7 90.53-37.9 87.08-37.9L33.53-37.9C30.08-37.9 27.28-40.7 27.28-44.15Z"/>
   <path class="hierarchical-1:primary SFSymbolsPreview212121" d="M13.89-26.3C13.89-29.76 16.69-32.55 20.14-32.55L100.47-32.55C103.92-32.55 106.72-29.76 106.72-26.3C106.72-22.85 103.92-20.05 100.47-20.05L20.14-20.05C16.69-20.05 13.89-22.85 13.89-26.3ZM13.89-62C13.89-65.46 16.69-68.25 20.14-68.25L100.47-68.25C103.92-68.25 106.72-65.46 106.72-62C106.72-58.55 103.92-55.75 100.47-55.75L20.14-55.75C16.69-55.75 13.89-58.55 13.89-62Z"/>
  </g>
  <g id="Bold-M" transform="matrix(1 0 0 1 2280.78 1126)">
   <path class="hierarchical-0:secondary SFSymbolsPreview4D4D4D" d="M27.28-8.45C27.28-11.38 29.65-13.75 32.58-13.75L86.13-13.75C89.06-13.75 91.43-11.38 91.43-8.45C91.43-5.53 89.06-3.15 86.13-3.15L32.58-3.15C29.65-3.15 27.28-5.53 27.28-8.45ZM27.28-44.15C27.28-47.08 29.65-49.45 32.58-49.45L86.13-49.45C89.06-49.45 91.43-47.08 91.43-44.15C91.43-41.23 89.06-38.85 86.13-38.85L32.58-38.85C29.65-38.85 27.28-41.23 27.28-44.15Z"/>
   <path class="hierarchical-1:primary SFSymbolsPreview212121" d="M13.89-26.3C13.89-29.23 16.26-31.6 19.19-31.6L99.52-31.6C102.44-31.6 104.82-29.23 104.82-26.3C104.82-23.38 102.44-21 99.52-21L19.19-21C16.26-21 13.89-23.38 13.89-26.3ZM13.89-62C13.89-64.93 16.26-67.3 19.19-67.3L99.52-67.3C102.44-67.3 104.82-64.93 104.82-62C104.82-59.08 102.44-56.7 99.52-56.7L19.19-56.7C16.26-56.7 13.89-59.08 13.89-62Z"/>
  </g>
  <g id="Semibold-M" transform="matrix(1 0 0 1 1984.72 1126)">
   <path class="hierarchical-0:secondary SFSymbolsPreview4D4D4D" d="M27.27-8.45C27.27-11.02 29.36-13.1 31.92-13.1L85.47-13.1C88.04-13.1 90.12-11.02 90.12-8.45C90.12-5.89 88.04-3.8 85.47-3.8L31.92-3.8C29.36-3.8 27.27-5.89 27.27-8.45ZM27.27-44.15C27.27-46.72 29.36-48.8 31.92-48.8L85.47-48.8C88.04-48.8 90.12-46.72 90.12-44.15C90.12-41.59 88.04-39.5 85.47-39.5L31.92-39.5C29.36-39.5 27.27-41.59 27.27-44.15Z"/>
   <path class="hierarchical-1:primary SFSymbolsPreview212121" d="M13.89-26.3C13.89-28.87 15.97-30.95 18.54-30.95L98.86-30.95C101.43-30.95 103.51-28.87 103.51-26.3C103.51-23.74 101.43-21.65 98.86-21.65L18.54-21.65C15.97-21.65 13.89-23.74 13.89-26.3ZM13.89-62C13.89-64.57 15.97-66.65 18.54-66.65L98.86-66.65C101.43-66.65 103.51-64.57 103.51-62C103.51-59.44 101.43-57.35 98.86-57.35L18.54-57.35C15.97-57.35 13.89-59.44 13.89-62Z"/>
  </g>
  <g id="Medium-M" transform="matrix(1 0 0 1 1688.51 1126)">
   <path class="hierarchical-0:secondary SFSymbolsPreview4D4D4D" d="M27.27-8.45C27.27-10.75 29.13-12.6 31.42-12.6L84.97-12.6C87.27-12.6 89.12-10.75 89.12-8.45C89.12-6.16 87.27-4.3 84.97-4.3L31.42-4.3C29.13-4.3 27.27-6.16 27.27-8.45ZM27.27-44.15C27.27-46.45 29.13-48.3 31.42-48.3L84.97-48.3C87.27-48.3 89.12-46.45 89.12-44.15C89.12-41.86 87.27-40 84.97-40L31.42-40C29.13-40 27.27-41.86 27.27-44.15Z"/>
   <path class="hierarchical-1:primary SFSymbolsPreview212121" d="M13.89-26.3C13.89-28.6 15.75-30.45 18.04-30.45L98.36-30.45C100.65-30.45 102.51-28.6 102.51-26.3C102.51-24.01 100.65-22.15 98.36-22.15L18.04-22.15C15.75-22.15 13.89-24.01 13.89-26.3ZM13.89-62C13.89-64.3 15.75-66.15 18.04-66.15L98.36-66.15C100.65-66.15 102.51-64.3 102.51-62C102.51-59.71 100.65-57.85 98.36-57.85L18.04-57.85C15.75-57.85 13.89-59.71 13.89-62Z"/>
  </g>
  <g id="Regular-M" transform="matrix(1 0 0 1 1392.45 1126)">
   <path class="hierarchical-0:secondary SFSymbolsPreview4D4D4D" d="M27.27-8.45C27.27-10.39 28.84-11.95 30.77-11.95L84.32-11.95C86.26-11.95 87.82-10.39 87.82-8.45C87.82-6.52 86.26-4.95 84.32-4.95L30.77-4.95C28.84-4.95 27.27-6.52 27.27-8.45ZM27.27-44.15C27.27-46.09 28.84-47.65 30.77-47.65L84.32-47.65C86.26-47.65 87.82-46.09 87.82-44.15C87.82-42.22 86.26-40.65 84.32-40.65L30.77-40.65C28.84-40.65 27.27-42.22 27.27-44.15Z"/>
   <path class="hierarchical-1:primary SFSymbolsPreview212121" d="M13.89-26.3C13.89-28.24 15.45-29.8 17.39-29.8L97.71-29.8C99.65-29.8 101.21-28.24 101.21-26.3C101.21-24.37 99.65-22.8 97.71-22.8L17.39-22.8C15.45-22.8 13.89-24.37 13.89-26.3ZM13.89-62C13.89-63.94 15.45-65.5 17.39-65.5L97.71-65.5C99.65-65.5 101.21-63.94 101.21-62C101.21-60.07 99.65-58.5 97.71-58.5L17.39-58.5C15.45-58.5 13.89-60.07 13.89-62Z"/>
  </g>
  <g id="Light-M" transform="matrix(1 0 0 1 1096.54 1126)">
   <path class="hierarchical-0:secondary SFSymbolsPreview4D4D4D" d="M27.28-8.45C27.28-9.95 28.48-11.15 29.98-11.15L83.53-11.15C85.02-11.15 86.23-9.95 86.23-8.45C86.23-6.96 85.02-5.75 83.53-5.75L29.98-5.75C28.48-5.75 27.28-6.96 27.28-8.45ZM27.28-44.15C27.28-45.65 28.48-46.85 29.98-46.85L83.53-46.85C85.02-46.85 86.23-45.65 86.23-44.15C86.23-42.66 85.02-41.45 83.53-41.45L29.98-41.45C28.48-41.45 27.28-42.66 27.28-44.15Z"/>
   <path class="hierarchical-1:primary SFSymbolsPreview212121" d="M13.89-26.3C13.89-27.8 15.1-29 16.59-29L96.91-29C98.4-29 99.61-27.8 99.61-26.3C99.61-24.81 98.4-23.6 96.91-23.6L16.59-23.6C15.1-23.6 13.89-24.81 13.89-26.3ZM13.89-62C13.89-63.5 15.1-64.7 16.59-64.7L96.91-64.7C98.4-64.7 99.61-63.5 99.61-62C99.61-60.51 98.4-59.3 96.91-59.3L16.59-59.3C15.1-59.3 13.89-60.51 13.89-62Z"/>
  </g>
  <g id="Thin-M" transform="matrix(1 0 0 1 800.875 1126)">
   <path class="hierarchical-0:secondary SFSymbolsPreview4D4D4D" d="M27.276-8.45C27.276-9.37 28.015-10.1 28.926-10.1L82.476-10.1C83.388-10.1 84.126-9.37 84.126-8.45C84.126-7.54 83.388-6.8 82.476-6.8L28.926-6.8C28.015-6.8 27.276-7.54 27.276-8.45ZM27.276-44.15C27.276-45.07 28.015-45.8 28.926-45.8L82.476-45.8C83.388-45.8 84.126-45.07 84.126-44.15C84.126-43.24 83.388-42.5 82.476-42.5L28.926-42.5C28.015-42.5 27.276-43.24 27.276-44.15Z"/>
   <path class="hierarchical-1:primary SFSymbolsPreview212121" d="M13.89-26.3C13.89-27.22 14.628-27.95 15.539-27.95L95.864-27.95C96.776-27.95 97.514-27.22 97.514-26.3C97.514-25.39 96.776-24.65 95.864-24.65L15.539-24.65C14.628-24.65 13.89-25.39 13.89-26.3ZM13.89-62C13.89-62.92 14.628-63.65 15.539-63.65L95.864-63.65C96.776-63.65 97.514-62.92 97.514-62C97.514-61.09 96.776-60.35 95.864-60.35L15.539-60.35C14.628-60.35 13.89-61.09 13.89-62Z"/>
  </g>
  <g id="Ultralight-M" transform="matrix(1 0 0 1 504.714 1126)">
   <path class="hierarchical-0:secondary SFSymbolsPreview4D4D4D" d="M27.277-8.45C27.277-9.06 27.769-9.55 28.377-9.55L81.927-9.55C82.535-9.55 83.027-9.06 83.027-8.45C83.027-7.85 82.535-7.35 81.927-7.35L28.377-7.35C27.769-7.35 27.277-7.85 27.277-8.45ZM27.277-44.15C27.277-44.76 27.769-45.25 28.377-45.25L81.927-45.25C82.535-45.25 83.027-44.76 83.027-44.15C83.027-43.55 82.535-43.05 81.927-43.05L28.377-43.05C27.769-43.05 27.277-43.55 27.277-44.15Z"/>
   <path class="hierarchical-1:primary SFSymbolsPreview212121" d="M13.89-26.3C13.89-26.91 14.383-27.4 14.99-27.4L95.315-27.4C95.923-27.4 96.415-26.91 96.415-26.3C96.415-25.7 95.923-25.2 95.315-25.2L14.99-25.2C14.383-25.2 13.89-25.7 13.89-26.3ZM13.89-62C13.89-62.61 14.383-63.1 14.99-63.1L95.315-63.1C95.923-63.1 96.415-62.61 96.415-62C96.415-61.4 95.923-60.9 95.315-60.9L14.99-60.9C14.383-60.9 13.89-61.4 13.89-62Z"/>
  </g>
  <g id="Black-S" transform="matrix(1 0 0 1 2881.07 696)">
   <path class="hierarchical-0:secondary SFSymbolsPreview4D4D4D" d="M24.39-14.332C24.39-18.253 27.57-21.432 31.49-21.432L73.49-21.432C77.41-21.432 80.59-18.253 80.59-14.332C80.59-10.411 77.41-7.232 73.49-7.232L31.49-7.232C27.57-7.232 24.39-10.411 24.39-14.332ZM24.39-42.332C24.39-46.253 27.57-49.432 31.49-49.432L73.49-49.432C77.41-49.432 80.59-46.253 80.59-42.332C80.59-38.411 77.41-35.232 73.49-35.232L31.49-35.232C27.57-35.232 24.39-38.411 24.39-42.332Z"/>
   <path class="hierarchical-1:primary SFSymbolsPreview212121" d="M13.89-28.332C13.89-32.253 17.07-35.432 20.99-35.432L83.99-35.432C87.91-35.432 91.09-32.253 91.09-28.332C91.09-24.411 87.91-21.232 83.99-21.232L20.99-21.232C17.07-21.232 13.89-24.411 13.89-28.332ZM13.89-56.332C13.89-60.253 17.07-63.432 20.99-63.432L83.99-63.432C87.91-63.432 91.09-60.253 91.09-56.332C91.09-52.411 87.91-49.232 83.99-49.232L20.99-49.232C17.07-49.232 13.89-52.411 13.89-56.332Z"/>
  </g>
  <g id="Heavy-S" transform="matrix(1 0 0 1 2585.2 696)">
   <path class="hierarchical-0:secondary SFSymbolsPreview4D4D4D" d="M24.39-14.332C24.39-17.784 27.19-20.582 30.64-20.582L72.64-20.582C76.09-20.582 78.89-17.784 78.89-14.332C78.89-10.88 76.09-8.082 72.64-8.082L30.64-8.082C27.19-8.082 24.39-10.88 24.39-14.332ZM24.39-42.332C24.39-45.784 27.19-48.582 30.64-48.582L72.64-48.582C76.09-48.582 78.89-45.784 78.89-42.332C78.89-38.88 76.09-36.082 72.64-36.082L30.64-36.082C27.19-36.082 24.39-38.88 24.39-42.332Z"/>
   <path class="hierarchical-1:primary SFSymbolsPreview212121" d="M13.89-28.332C13.89-31.784 16.69-34.582 20.14-34.582L83.14-34.582C86.59-34.582 89.39-31.784 89.39-28.332C89.39-24.88 86.59-22.082 83.14-22.082L20.14-22.082C16.69-22.082 13.89-24.88 13.89-28.332ZM13.89-56.332C13.89-59.784 16.69-62.582 20.14-62.582L83.14-62.582C86.59-62.582 89.39-59.784 89.39-56.332C89.39-52.88 86.59-50.082 83.14-50.082L20.14-50.082C16.69-50.082 13.89-52.88 13.89-56.332Z"/>
  </g>
  <g id="Bold-S" transform="matrix(1 0 0 1 2289.44 696)">
   <path class="hierarchical-0:secondary SFSymbolsPreview4D4D4D" d="M24.39-14.127C24.39-17.054 26.77-19.427 29.69-19.427L71.69-19.427C74.62-19.427 76.99-17.054 76.99-14.127C76.99-11.2 74.62-8.827 71.69-8.827L29.69-8.827C26.77-8.827 24.39-11.2 24.39-14.127ZM24.39-42.127C24.39-45.054 26.77-47.427 29.69-47.427L71.69-47.427C74.62-47.427 76.99-45.054 76.99-42.127C76.99-39.2 74.62-36.827 71.69-36.827L29.69-36.827C26.77-36.827 24.39-39.2 24.39-42.127Z"/>
   <path class="hierarchical-1:primary SFSymbolsPreview212121" d="M13.89-28.127C13.89-31.054 16.27-33.427 19.19-33.427L82.19-33.427C85.12-33.427 87.49-31.054 87.49-28.127C87.49-25.2 85.12-22.827 82.19-22.827L19.19-22.827C16.27-22.827 13.89-25.2 13.89-28.127ZM13.89-56.127C13.89-59.054 16.27-61.427 19.19-61.427L82.19-61.427C85.12-61.427 87.49-59.054 87.49-56.127C87.49-53.2 85.12-50.827 82.19-50.827L19.19-50.827C16.27-50.827 13.89-53.2 13.89-56.127Z"/>
  </g>
  <g id="Semibold-S" transform="matrix(1 0 0 1 1993.38 696)">
   <path class="hierarchical-0:secondary SFSymbolsPreview4D4D4D" d="M24.39-14.127C24.39-16.695 26.47-18.777 29.04-18.777L71.04-18.777C73.61-18.777 75.69-16.695 75.69-14.127C75.69-11.559 73.61-9.477 71.04-9.477L29.04-9.477C26.47-9.477 24.39-11.559 24.39-14.127ZM24.39-42.127C24.39-44.695 26.47-46.777 29.04-46.777L71.04-46.777C73.61-46.777 75.69-44.695 75.69-42.127C75.69-39.559 73.61-37.477 71.04-37.477L29.04-37.477C26.47-37.477 24.39-39.559 24.39-42.127Z"/>
   <path class="hierarchical-1:primary SFSymbolsPreview212121" d="M13.89-28.127C13.89-30.695 15.97-32.777 18.54-32.777L81.54-32.777C84.11-32.777 86.19-30.695 86.19-28.127C86.19-25.559 84.11-23.477 81.54-23.477L18.54-23.477C15.97-23.477 13.89-25.559 13.89-28.127ZM13.89-56.127C13.89-58.695 15.97-60.777 18.54-60.777L81.54-60.777C84.11-60.777 86.19-58.695 86.19-56.127C86.19-53.559 84.11-51.477 81.54-51.477L18.54-51.477C15.97-51.477 13.89-53.559 13.89-56.127Z"/>
  </g>
  <g id="Medium-S" transform="matrix(1 0 0 1 1697.17 696)">
   <path class="hierarchical-0:secondary SFSymbolsPreview4D4D4D" d="M24.39-14.127C24.39-16.419 26.25-18.277 28.54-18.277L70.54-18.277C72.83-18.277 74.69-16.419 74.69-14.127C74.69-11.835 72.83-9.977 70.54-9.977L28.54-9.977C26.25-9.977 24.39-11.835 24.39-14.127ZM24.39-42.127C24.39-44.419 26.25-46.277 28.54-46.277L70.54-46.277C72.83-46.277 74.69-44.419 74.69-42.127C74.69-39.835 72.83-37.977 70.54-37.977L28.54-37.977C26.25-37.977 24.39-39.835 24.39-42.127Z"/>
   <path class="hierarchical-1:primary SFSymbolsPreview212121" d="M13.89-28.127C13.89-30.419 15.75-32.277 18.04-32.277L81.04-32.277C83.33-32.277 85.19-30.419 85.19-28.127C85.19-25.835 83.33-23.977 81.04-23.977L18.04-23.977C15.75-23.977 13.89-25.835 13.89-28.127ZM13.89-56.127C13.89-58.419 15.75-60.277 18.04-60.277L81.04-60.277C83.33-60.277 85.19-58.419 85.19-56.127C85.19-53.835 83.33-51.977 81.04-51.977L18.04-51.977C15.75-51.977 13.89-53.835 13.89-56.127Z"/>
  </g>
  <g id="Regular-S" transform="matrix(1 0 0 1 1401.11 696)">
   <path class="hierarchical-0:secondary SFSymbolsPreview4D4D4D" d="M24.39-14.127C24.39-16.06 25.96-17.627 27.89-17.627L69.89-17.627C71.82-17.627 73.39-16.06 73.39-14.127C73.39-12.194 71.82-10.627 69.89-10.627L27.89-10.627C25.96-10.627 24.39-12.194 24.39-14.127ZM24.39-42.127C24.39-44.06 25.96-45.627 27.89-45.627L69.89-45.627C71.82-45.627 73.39-44.06 73.39-42.127C73.39-40.194 71.82-38.627 69.89-38.627L27.89-38.627C25.96-38.627 24.39-40.194 24.39-42.127Z"/>
   <path class="hierarchical-1:primary SFSymbolsPreview212121" d="M13.89-28.127C13.89-30.06 15.46-31.627 17.39-31.627L80.39-31.627C82.32-31.627 83.89-30.06 83.89-28.127C83.89-26.194 82.32-24.627 80.39-24.627L17.39-24.627C15.46-24.627 13.89-26.194 13.89-28.127ZM13.89-56.127C13.89-58.06 15.46-59.627 17.39-59.627L80.39-59.627C82.32-59.627 83.89-58.06 83.89-56.127C83.89-54.194 82.32-52.627 80.39-52.627L17.39-52.627C15.46-52.627 13.89-54.194 13.89-56.127Z"/>
  </g>
  <g id="Light-S" transform="matrix(1 0 0 1 1105.2 696)">
   <path class="hierarchical-0:secondary SFSymbolsPreview4D4D4D" d="M24.39-14.127C24.39-15.618 25.6-16.827 27.09-16.827L69.09-16.827C70.58-16.827 71.79-15.618 71.79-14.127C71.79-12.636 70.58-11.427 69.09-11.427L27.09-11.427C25.6-11.427 24.39-12.636 24.39-14.127ZM24.39-42.127C24.39-43.618 25.6-44.827 27.09-44.827L69.09-44.827C70.58-44.827 71.79-43.618 71.79-42.127C71.79-40.636 70.58-39.427 69.09-39.427L27.09-39.427C25.6-39.427 24.39-40.636 24.39-42.127Z"/>
   <path class="hierarchical-1:primary SFSymbolsPreview212121" d="M13.89-28.127C13.89-29.618 15.1-30.827 16.59-30.827L79.59-30.827C81.08-30.827 82.29-29.618 82.29-28.127C82.29-26.636 81.08-25.427 79.59-25.427L16.59-25.427C15.1-25.427 13.89-26.636 13.89-28.127ZM13.89-56.127C13.89-57.618 15.1-58.827 16.59-58.827L79.59-58.827C81.08-58.827 82.29-57.618 82.29-56.127C82.29-54.636 81.08-53.427 79.59-53.427L16.59-53.427C15.1-53.427 13.89-54.636 13.89-56.127Z"/>
  </g>
  <g id="Thin-S" transform="matrix(1 0 0 1 809.537 696)">
   <path class="hierarchical-0:secondary SFSymbolsPreview4D4D4D" d="M24.39-14.127C24.39-15.038 25.128-15.777 26.04-15.777L68.04-15.777C68.951-15.777 69.69-15.038 69.69-14.127C69.69-13.216 68.951-12.477 68.04-12.477L26.04-12.477C25.128-12.477 24.39-13.216 24.39-14.127ZM24.39-42.127C24.39-43.038 25.128-43.777 26.04-43.777L68.04-43.777C68.951-43.777 69.69-43.038 69.69-42.127C69.69-41.216 68.951-40.477 68.04-40.477L26.04-40.477C25.128-40.477 24.39-41.216 24.39-42.127Z"/>
   <path class="hierarchical-1:primary SFSymbolsPreview212121" d="M13.89-28.127C13.89-29.038 14.628-29.777 15.54-29.777L78.54-29.777C79.451-29.777 80.19-29.038 80.19-28.127C80.19-27.216 79.451-26.477 78.54-26.477L15.54-26.477C14.628-26.477 13.89-27.216 13.89-28.127ZM13.89-56.127C13.89-57.038 14.628-57.777 15.54-57.777L78.54-57.777C79.451-57.777 80.19-57.038 80.19-56.127C80.19-55.216 79.451-54.477 78.54-54.477L15.54-54.477C14.628-54.477 13.89-55.216 13.89-56.127Z"/>
  </g>
  <g id="Ultralight-S" transform="matrix(1 0 0 1 513.376 696)">
   <path class="hierarchical-0:secondary SFSymbolsPreview4D4D4D" d="M24.39-14.127C24.39-14.734 24.883-15.227 25.49-15.227L67.49-15.227C68.098-15.227 68.59-14.734 68.59-14.127C68.59-13.519 68.098-13.027 67.49-13.027L25.49-13.027C24.883-13.027 24.39-13.519 24.39-14.127ZM24.39-42.127C24.39-42.734 24.883-43.227 25.49-43.227L67.49-43.227C68.098-43.227 68.59-42.734 68.59-42.127C68.59-41.519 68.098-41.027 67.49-41.027L25.49-41.027C24.883-41.027 24.39-41.519 24.39-42.127Z"/>
   <path class="hierarchical-1:primary SFSymbolsPreview212121" d="M13.89-28.127C13.89-28.734 14.383-29.227 14.99-29.227L77.99-29.227C78.598-29.227 79.09-28.734 79.09-28.127C79.09-27.519 78.598-27.027 77.99-27.027L14.99-27.027C14.383-27.027 13.89-27.519 13.89-28.127ZM13.89-56.127C13.89-56.734 14.383-57.227 14.99-57.227L77.99-57.227C78.598-57.227 79.09-56.734 79.09-56.127C79.09-55.519 78.598-55.027 77.99-55.027L14.99-55.027C14.383-55.027 13.89-55.519 13.89-56.127Z"/>
  </g>
 </g>
</svg>
