<?xml version="1.0" encoding="UTF-8"?>
<!--Generator: Apple Native CoreSVG 175-->
<!DOCTYPE svg
PUBLIC "-//W3C//DTD SVG 1.1//EN"
       "http://www.w3.org/Graphics/SVG/1.1/DTD/svg11.dtd">
<svg version="1.1" xmlns="http://www.w3.org/2000/svg" xmlns:xlink="http://www.w3.org/1999/xlink" width="3300" height="2200">
 <!--glyph: "", point size: 100.0, font version: "17.0d12e1", template writer version: "65.1"-->
 <style>.hierarchical-0:primary {fill:#212121}
.hierarchical-1:secondary {fill:#4D4D4D}

.SFSymbolsPreview212121 {fill:#212121;opacity:1.0}
.SFSymbolsPreview4D4D4D {fill:#4D4D4D;opacity:1.0}
</style>
 <g id="Notes">
  <rect height="2200" id="artboard" style="fill:white;opacity:1" width="3300" x="0" y="0"/>
  <line style="fill:none;stroke:black;opacity:1;stroke-width:0.5;" x1="263" x2="3036" y1="292" y2="292"/>
  <text style="stroke:none;fill:black;font-family:sans-serif;font-size:13;font-weight:bold;" transform="matrix(1 0 0 1 263 322)">Weight/Scale Variations</text>
  <text style="stroke:none;fill:black;font-family:sans-serif;font-size:13;text-anchor:middle;" transform="matrix(1 0 0 1 559.711 322)">Ultralight</text>
  <text style="stroke:none;fill:black;font-family:sans-serif;font-size:13;text-anchor:middle;" transform="matrix(1 0 0 1 856.422 322)">Thin</text>
  <text style="stroke:none;fill:black;font-family:sans-serif;font-size:13;text-anchor:middle;" transform="matrix(1 0 0 1 1153.13 322)">Light</text>
  <text style="stroke:none;fill:black;font-family:sans-serif;font-size:13;text-anchor:middle;" transform="matrix(1 0 0 1 1449.84 322)">Regular</text>
  <text style="stroke:none;fill:black;font-family:sans-serif;font-size:13;text-anchor:middle;" transform="matrix(1 0 0 1 1746.56 322)">Medium</text>
  <text style="stroke:none;fill:black;font-family:sans-serif;font-size:13;text-anchor:middle;" transform="matrix(1 0 0 1 2043.27 322)">Semibold</text>
  <text style="stroke:none;fill:black;font-family:sans-serif;font-size:13;text-anchor:middle;" transform="matrix(1 0 0 1 2339.98 322)">Bold</text>
  <text style="stroke:none;fill:black;font-family:sans-serif;font-size:13;text-anchor:middle;" transform="matrix(1 0 0 1 2636.69 322)">Heavy</text>
  <text style="stroke:none;fill:black;font-family:sans-serif;font-size:13;text-anchor:middle;" transform="matrix(1 0 0 1 2933.4 322)">Black</text>
  <line style="fill:none;stroke:black;opacity:1;stroke-width:0.5;" x1="263" x2="3036" y1="1903" y2="1903"/>
  <g transform="matrix(1 0 0 1 263 1933)">
   <path d="M9.24805 0.830078Q10.8691 0.830078 12.2949 0.214844Q13.7207-0.400391 14.8096-1.49414Q15.8984-2.58789 16.5186-4.01367Q17.1387-5.43945 17.1387-7.05078Q17.1387-8.66211 16.5186-10.0879Q15.8984-11.5137 14.8047-12.6074Q13.7109-13.7012 12.2852-14.3164Q10.8594-14.9316 9.23828-14.9316Q7.62695-14.9316 6.20117-14.3164Q4.77539-13.7012 3.69141-12.6074Q2.60742-11.5137 1.9873-10.0879Q1.36719-8.66211 1.36719-7.05078Q1.36719-5.43945 1.9873-4.01367Q2.60742-2.58789 3.69629-1.49414Q4.78516-0.400391 6.21094 0.214844Q7.63672 0.830078 9.24805 0.830078ZM9.24805-0.654297Q7.91992-0.654297 6.7627-1.14746Q5.60547-1.64062 4.73145-2.51953Q3.85742-3.39844 3.36426-4.56055Q2.87109-5.72266 2.87109-7.05078Q2.87109-8.37891 3.35938-9.54102Q3.84766-10.7031 4.72168-11.582Q5.5957-12.4609 6.75293-12.9541Q7.91016-13.4473 9.23828-13.4473Q10.5762-13.4473 11.7334-12.9541Q12.8906-12.4609 13.7695-11.582Q14.6484-10.7031 15.1465-9.54102Q15.6445-8.37891 15.6445-7.05078Q15.6445-5.72266 15.1514-4.56055Q14.6582-3.39844 13.7842-2.51953Q12.9102-1.64062 11.748-1.14746Q10.5859-0.654297 9.24805-0.654297ZM5.6543-7.05078Q5.6543-6.72852 5.85938-6.52832Q6.06445-6.32812 6.40625-6.32812L8.51562-6.32812L8.51562-4.20898Q8.51562-3.88672 8.71094-3.67676Q8.90625-3.4668 9.23828-3.4668Q9.56055-3.4668 9.77051-3.67676Q9.98047-3.88672 9.98047-4.20898L9.98047-6.32812L12.0898-6.32812Q12.4219-6.32812 12.627-6.52832Q12.832-6.72852 12.832-7.05078Q12.832-7.38281 12.627-7.58789Q12.4219-7.79297 12.0898-7.79297L9.98047-7.79297L9.98047-9.90234Q9.98047-10.2344 9.77051-10.4443Q9.56055-10.6543 9.23828-10.6543Q8.90625-10.6543 8.71094-10.4443Q8.51562-10.2344 8.51562-9.90234L8.51562-7.79297L6.40625-7.79297Q6.06445-7.79297 5.85938-7.58789Q5.6543-7.38281 5.6543-7.05078Z"/>
  </g>
  <g transform="matrix(1 0 0 1 281.867 1933)">
   <path d="M11.709 2.91016Q13.75 2.91016 15.5518 2.12891Q17.3535 1.34766 18.7305-0.0292969Q20.1074-1.40625 20.8887-3.20801Q21.6699-5.00977 21.6699-7.05078Q21.6699-9.0918 20.8887-10.8936Q20.1074-12.6953 18.7305-14.0723Q17.3535-15.4492 15.5469-16.2305Q13.7402-17.0117 11.6992-17.0117Q9.6582-17.0117 7.85645-16.2305Q6.05469-15.4492 4.68262-14.0723Q3.31055-12.6953 2.5293-10.8936Q1.74805-9.0918 1.74805-7.05078Q1.74805-5.00977 2.5293-3.20801Q3.31055-1.40625 4.6875-0.0292969Q6.06445 1.34766 7.86621 2.12891Q9.66797 2.91016 11.709 2.91016ZM11.709 1.25Q9.98047 1.25 8.47656 0.605469Q6.97266-0.0390625 5.83496-1.17676Q4.69727-2.31445 4.05762-3.81836Q3.41797-5.32227 3.41797-7.05078Q3.41797-8.7793 4.05762-10.2832Q4.69727-11.7871 5.83008-12.9297Q6.96289-14.0723 8.4668-14.7119Q9.9707-15.3516 11.6992-15.3516Q13.4277-15.3516 14.9316-14.7119Q16.4355-14.0723 17.5781-12.9297Q18.7207-11.7871 19.3652-10.2832Q20.0098-8.7793 20.0098-7.05078Q20.0098-5.32227 19.3701-3.81836Q18.7305-2.31445 17.5928-1.17676Q16.4551-0.0390625 14.9463 0.605469Q13.4375 1.25 11.709 1.25ZM7.17773-7.05078Q7.17773-6.69922 7.41211-6.47461Q7.64648-6.25 8.01758-6.25L10.8887-6.25L10.8887-3.36914Q10.8887-2.99805 11.1133-2.76855Q11.3379-2.53906 11.6895-2.53906Q12.0605-2.53906 12.29-2.76855Q12.5195-2.99805 12.5195-3.36914L12.5195-6.25L15.4004-6.25Q15.7715-6.25 16.001-6.47461Q16.2305-6.69922 16.2305-7.05078Q16.2305-7.42188 16.001-7.65137Q15.7715-7.88086 15.4004-7.88086L12.5195-7.88086L12.5195-10.752Q12.5195-11.1328 12.29-11.3623Q12.0605-11.5918 11.6895-11.5918Q11.3379-11.5918 11.1133-11.3574Q10.8887-11.123 10.8887-10.752L10.8887-7.88086L8.01758-7.88086Q7.63672-7.88086 7.40723-7.65137Q7.17773-7.42188 7.17773-7.05078Z"/>
  </g>
  <g transform="matrix(1 0 0 1 305.646 1933)">
   <path d="M14.9707 5.66406Q17.0605 5.66406 18.96 5.01465Q20.8594 4.36523 22.4512 3.19336Q24.043 2.02148 25.2197 0.429688Q26.3965-1.16211 27.0459-3.06641Q27.6953-4.9707 27.6953-7.05078Q27.6953-9.14062 27.0459-11.04Q26.3965-12.9395 25.2197-14.5312Q24.043-16.123 22.4512-17.2998Q20.8594-18.4766 18.9551-19.126Q17.0508-19.7754 14.9609-19.7754Q12.8711-19.7754 10.9717-19.126Q9.07227-18.4766 7.48535-17.2998Q5.89844-16.123 4.72168-14.5312Q3.54492-12.9395 2.90039-11.04Q2.25586-9.14062 2.25586-7.05078Q2.25586-4.9707 2.90527-3.06641Q3.55469-1.16211 4.72656 0.429688Q5.89844 2.02148 7.49023 3.19336Q9.08203 4.36523 10.9814 5.01465Q12.8809 5.66406 14.9707 5.66406ZM14.9707 3.84766Q13.1641 3.84766 11.5283 3.2959Q9.89258 2.74414 8.53516 1.74805Q7.17773 0.751953 6.17676-0.610352Q5.17578-1.97266 4.62891-3.6084Q4.08203-5.24414 4.08203-7.05078Q4.08203-8.86719 4.62891-10.5029Q5.17578-12.1387 6.17188-13.501Q7.16797-14.8633 8.52539-15.8594Q9.88281-16.8555 11.5186-17.4023Q13.1543-17.9492 14.9609-17.9492Q16.7773-17.9492 18.4131-17.4023Q20.0488-16.8555 21.4111-15.8594Q22.7734-14.8633 23.7695-13.501Q24.7656-12.1387 25.3174-10.5029Q25.8691-8.86719 25.8691-7.05078Q25.8789-5.24414 25.332-3.6084Q24.7852-1.97266 23.7842-0.610352Q22.7832 0.751953 21.4209 1.74805Q20.0586 2.74414 18.4229 3.2959Q16.7871 3.84766 14.9707 3.84766ZM9.19922-7.05078Q9.19922-6.66992 9.45801-6.4209Q9.7168-6.17188 10.1172-6.17188L14.0625-6.17188L14.0625-2.2168Q14.0625-1.81641 14.3115-1.55762Q14.5605-1.29883 14.9512-1.29883Q15.3516-1.29883 15.6104-1.55273Q15.8691-1.80664 15.8691-2.2168L15.8691-6.17188L19.8242-6.17188Q20.2246-6.17188 20.4785-6.4209Q20.7324-6.66992 20.7324-7.05078Q20.7324-7.46094 20.4785-7.71484Q20.2246-7.96875 19.8242-7.96875L15.8691-7.96875L15.8691-11.9141Q15.8691-12.3242 15.6104-12.583Q15.3516-12.8418 14.9512-12.8418Q14.5605-12.8418 14.3115-12.583Q14.0625-12.3242 14.0625-11.9141L14.0625-7.96875L10.1172-7.96875Q9.70703-7.96875 9.45312-7.71484Q9.19922-7.46094 9.19922-7.05078Z"/>
  </g>
  <text style="stroke:none;fill:black;font-family:sans-serif;font-size:13;font-weight:bold;" transform="matrix(1 0 0 1 263 1953)">Design Variations</text>
  <text style="stroke:none;fill:black;font-family:sans-serif;font-size:13;" transform="matrix(1 0 0 1 263 1971)">Symbols are supported in up to nine weights and three scales.</text>
  <text style="stroke:none;fill:black;font-family:sans-serif;font-size:13;" transform="matrix(1 0 0 1 263 1989)">For optimal layout with text and other symbols, vertically align</text>
  <text style="stroke:none;fill:black;font-family:sans-serif;font-size:13;" transform="matrix(1 0 0 1 263 2007)">symbols with the adjacent text.</text>
  <line style="fill:none;stroke:#00AEEF;stroke-width:0.5;opacity:1.0;" x1="776" x2="776" y1="1919" y2="1933"/>
  <g transform="matrix(1 0 0 1 776 1933)">
   <path d="M3.31055 0.15625Q3.70117 0.15625 3.91602-0.00976562Q4.13086-0.175781 4.26758-0.585938L5.52734-4.0332L11.2891-4.0332L12.5488-0.585938Q12.6855-0.175781 12.9004-0.00976562Q13.1152 0.15625 13.4961 0.15625Q13.8867 0.15625 14.1162-0.0585938Q14.3457-0.273438 14.3457-0.644531Q14.3457-0.869141 14.2383-1.17188L9.6582-13.3691Q9.48242-13.8184 9.17969-14.043Q8.87695-14.2676 8.4082-14.2676Q7.5-14.2676 7.17773-13.3789L2.59766-1.16211Q2.49023-0.859375 2.49023-0.634766Q2.49023-0.263672 2.70996-0.0537109Q2.92969 0.15625 3.31055 0.15625ZM6.00586-5.51758L8.37891-12.0898L8.42773-12.0898L10.8008-5.51758Z"/>
  </g>
  <line style="fill:none;stroke:#00AEEF;stroke-width:0.5;opacity:1.0;" x1="793.197" x2="793.197" y1="1919" y2="1933"/>
  <text style="stroke:none;fill:black;font-family:sans-serif;font-size:13;font-weight:bold;" transform="matrix(1 0 0 1 776 1953)">Margins</text>
  <text style="stroke:none;fill:black;font-family:sans-serif;font-size:13;" transform="matrix(1 0 0 1 776 1971)">Leading and trailing margins on the left and right side of each symbol</text>
  <text style="stroke:none;fill:black;font-family:sans-serif;font-size:13;" transform="matrix(1 0 0 1 776 1989)">can be adjusted by modifying the x-location of the margin guidelines.</text>
  <text style="stroke:none;fill:black;font-family:sans-serif;font-size:13;" transform="matrix(1 0 0 1 776 2007)">Modifications are automatically applied proportionally to all</text>
  <text style="stroke:none;fill:black;font-family:sans-serif;font-size:13;" transform="matrix(1 0 0 1 776 2025)">scales and weights.</text>
  <g transform="matrix(1 0 0 1 1289 1933)">
   <path d="M2.8418 1.86523L4.54102 3.57422Q5.18555 4.22852 5.90332 4.17969Q6.62109 4.13086 7.31445 3.35938L18.0078-8.42773L17.041-9.4043L6.42578 2.27539Q6.16211 2.57812 5.89355 2.61719Q5.625 2.65625 5.27344 2.30469L4.10156 1.14258Q3.75 0.791016 3.79395 0.522461Q3.83789 0.253906 4.14062-0.0195312L15.6152-10.8203L14.6387-11.7871L3.04688-0.898438Q2.30469-0.214844 2.25098 0.498047Q2.19727 1.21094 2.8418 1.86523ZM9.25781-16.3281Q8.94531-16.0254 8.90625-15.6348Q8.86719-15.2441 9.04297-14.9512Q9.21875-14.6777 9.55566-14.541Q9.89258-14.4043 10.3809-14.5215Q11.4746-14.7754 12.5977-14.7314Q13.7207-14.6875 14.7949-13.9844L14.209-12.5293Q13.9551-11.9043 14.0674-11.4404Q14.1797-10.9766 14.5801-10.5664L16.875-8.25195Q17.2363-7.88086 17.5781-7.82227Q17.9199-7.76367 18.3398-7.8418L19.4043-8.03711L20.0684-7.36328L20.0293-6.80664Q20-6.43555 20.1221-6.12305Q20.2441-5.81055 20.6055-5.44922L21.3672-4.70703Q21.7285-4.3457 22.1533-4.33105Q22.5781-4.31641 22.9297-4.66797L25.8398-7.58789Q26.1914-7.93945 26.1816-8.35449Q26.1719-8.76953 25.8105-9.13086L25.0391-9.89258Q24.6875-10.2539 24.3799-10.3857Q24.0723-10.5176 23.7109-10.4883L23.1348-10.4395L22.4902-11.0742L22.7344-12.1973Q22.832-12.6172 22.6953-12.9834Q22.5586-13.3496 22.1191-13.7891L19.9219-15.9766Q18.6719-17.2168 17.2607-17.8369Q15.8496-18.457 14.4189-18.4814Q12.9883-18.5059 11.665-17.959Q10.3418-17.4121 9.25781-16.3281ZM10.752-15.957Q11.6602-16.6211 12.7002-16.9043Q13.7402-17.1875 14.8047-17.085Q15.8691-16.9824 16.8701-16.5137Q17.8711-16.0449 18.7012-15.2051L21.1328-12.793Q21.3086-12.6172 21.3525-12.4512Q21.3965-12.2852 21.3379-12.0312L21.0156-10.5469L22.5195-9.0625L23.5059-9.12109Q23.6914-9.13086 23.7891-9.09668Q23.8867-9.0625 24.0332-8.91602L24.6094-8.33984L22.168-5.89844L21.5918-6.47461Q21.4453-6.62109 21.4062-6.71875Q21.3672-6.81641 21.377-7.01172L21.4453-7.98828L19.9512-9.47266L18.4277-9.21875Q18.1836-9.16992 18.042-9.2041Q17.9004-9.23828 17.7148-9.41406L15.7129-11.416Q15.5176-11.5918 15.4932-11.7529Q15.4688-11.9141 15.5859-12.1875L16.4648-14.2773Q15.293-15.3711 13.8281-15.791Q12.3633-16.2109 10.8398-15.7617Q10.7227-15.7324 10.6885-15.8057Q10.6543-15.8789 10.752-15.957Z"/>
  </g>
  <text style="stroke:none;fill:black;font-family:sans-serif;font-size:13;font-weight:bold;" transform="matrix(1 0 0 1 1289 1953)">Exporting</text>
  <text style="stroke:none;fill:black;font-family:sans-serif;font-size:13;" transform="matrix(1 0 0 1 1289 1971)">Symbols should be outlined when exporting to ensure the</text>
  <text style="stroke:none;fill:black;font-family:sans-serif;font-size:13;" transform="matrix(1 0 0 1 1289 1989)">design is preserved when submitting to Xcode.</text>
  <text id="template-version" style="stroke:none;fill:black;font-family:sans-serif;font-size:13;text-anchor:end;" transform="matrix(1 0 0 1 3036 1933)">Template v.3.0</text>
  <text style="stroke:none;fill:black;font-family:sans-serif;font-size:13;text-anchor:end;" transform="matrix(1 0 0 1 3036 1951)">Requires Xcode 13 or greater</text>
  <text id="descriptive-name" style="stroke:none;fill:black;font-family:sans-serif;font-size:13;text-anchor:end;" transform="matrix(1 0 0 1 3036 1969)">Generated from alert-circle</text>
  <text style="stroke:none;fill:black;font-family:sans-serif;font-size:13;text-anchor:end;" transform="matrix(1 0 0 1 3036 1987)">Typeset at 100 points</text>
  <text style="stroke:none;fill:black;font-family:sans-serif;font-size:13;" transform="matrix(1 0 0 1 263 726)">Small</text>
  <text style="stroke:none;fill:black;font-family:sans-serif;font-size:13;" transform="matrix(1 0 0 1 263 1156)">Medium</text>
  <text style="stroke:none;fill:black;font-family:sans-serif;font-size:13;" transform="matrix(1 0 0 1 263 1586)">Large</text>
 </g>
 <g id="Guides">
  <g id="H-reference" style="fill:#27AAE1;stroke:none;" transform="matrix(1 0 0 1 339 696)">
   <path d="M0.976562 0L3.66211 0L29.3457-67.1387L30.0293-67.1387L30.0293-70.459L28.125-70.459ZM11.6699-24.4629L46.9727-24.4629L46.2402-26.709L12.4512-26.709ZM55.127 0L57.7637 0L30.6152-70.459L29.4434-70.459L29.4434-67.1387Z"/>
  </g>
  <line id="Baseline-S" style="fill:none;stroke:#27AAE1;opacity:1;stroke-width:0.5;" x1="263" x2="3036" y1="696" y2="696"/>
  <line id="Capline-S" style="fill:none;stroke:#27AAE1;opacity:1;stroke-width:0.5;" x1="263" x2="3036" y1="625.541" y2="625.541"/>
  <g id="H-reference" style="fill:#27AAE1;stroke:none;" transform="matrix(1 0 0 1 339 1126)">
   <path d="M0.976562 0L3.66211 0L29.3457-67.1387L30.0293-67.1387L30.0293-70.459L28.125-70.459ZM11.6699-24.4629L46.9727-24.4629L46.2402-26.709L12.4512-26.709ZM55.127 0L57.7637 0L30.6152-70.459L29.4434-70.459L29.4434-67.1387Z"/>
  </g>
  <line id="Baseline-M" style="fill:none;stroke:#27AAE1;opacity:1;stroke-width:0.5;" x1="263" x2="3036" y1="1126" y2="1126"/>
  <line id="Capline-M" style="fill:none;stroke:#27AAE1;opacity:1;stroke-width:0.5;" x1="263" x2="3036" y1="1055.54" y2="1055.54"/>
  <g id="H-reference" style="fill:#27AAE1;stroke:none;" transform="matrix(1 0 0 1 339 1556)">
   <path d="M0.976562 0L3.66211 0L29.3457-67.1387L30.0293-67.1387L30.0293-70.459L28.125-70.459ZM11.6699-24.4629L46.9727-24.4629L46.2402-26.709L12.4512-26.709ZM55.127 0L57.7637 0L30.6152-70.459L29.4434-70.459L29.4434-67.1387Z"/>
  </g>
  <line id="Baseline-L" style="fill:none;stroke:#27AAE1;opacity:1;stroke-width:0.5;" x1="263" x2="3036" y1="1556" y2="1556"/>
  <line id="Capline-L" style="fill:none;stroke:#27AAE1;opacity:1;stroke-width:0.5;" x1="263" x2="3036" y1="1485.54" y2="1485.54"/>
  <line id="left-margin-Regular-M" style="fill:none;stroke:#00AEEF;stroke-width:0.5;opacity:1.0;" x1="1392.45" x2="1392.45" y1="1030.78" y2="1150.12"/>
  <line id="right-margin-Regular-M" style="fill:none;stroke:#00AEEF;stroke-width:0.5;opacity:1.0;" x1="1507.24" x2="1507.24" y1="1030.78" y2="1150.12"/>
 </g>
 <g id="Symbols">
  <g id="Black-L" transform="matrix(1 0 0 1 2860.15 1556)">
   <path class="hierarchical-0:primary SFSymbolsPreview212121" d="M73.4-65.08C77.32-65.08 80.5-61.9 80.5-57.98L80.5-35.23C80.5-31.31 77.32-28.13 73.4-28.13C69.48-28.13 66.3-31.31 66.3-35.23L66.3-57.98C66.3-61.9 69.48-65.08 73.4-65.08ZM66.3-12.48C66.3-16.4 69.48-19.58 73.4-19.58L73.46-19.58C77.38-19.58 80.56-16.4 80.56-12.48C80.56-8.56 77.38-5.38 73.46-5.38L73.4-5.38C69.48-5.38 66.3-8.56 66.3-12.48Z"/>
   <path class="hierarchical-1:secondary SFSymbolsPreview4D4D4D" d="M9.43-35.23C9.43-70.56 38.07-99.2 73.4-99.2C108.73-99.2 137.38-70.56 137.38-35.23C137.38 0.1 108.73 28.75 73.4 28.75C38.07 28.75 9.43 0.1 9.43-35.23ZM73.4-85C45.91-85 23.63-62.72 23.63-35.23C23.63-7.74 45.91 14.55 73.4 14.55C100.89 14.55 123.18-7.74 123.18-35.23C123.18-62.72 100.89-85 73.4-85Z"/>
  </g>
  <g id="Heavy-L" transform="matrix(1 0 0 1 2564.29 1556)">
   <path class="hierarchical-0:primary SFSymbolsPreview212121" d="M72.56-64.23C76.01-64.23 78.81-61.43 78.81-57.98L78.81-35.23C78.81-31.78 76.01-28.98 72.56-28.98C69.11-28.98 66.31-31.78 66.31-35.23L66.31-57.98C66.31-61.43 69.11-64.23 72.56-64.23ZM66.31-12.48C66.31-15.93 69.11-18.73 72.56-18.73L72.61-18.73C76.07-18.73 78.86-15.93 78.86-12.48C78.86-9.03 76.07-6.23 72.61-6.23L72.56-6.23C69.11-6.23 66.31-9.03 66.31-12.48Z"/>
   <path class="hierarchical-1:secondary SFSymbolsPreview4D4D4D" d="M9.43-35.23C9.43-70.09 37.69-98.35 72.56-98.35C107.42-98.35 135.68-70.09 135.68-35.23C135.68-0.37 107.42 27.9 72.56 27.9C37.69 27.9 9.43-0.37 9.43-35.23ZM72.56-85.85C44.6-85.85 21.93-63.19 21.93-35.23C21.93-7.27 44.6 15.4 72.56 15.4C100.52 15.4 123.18-7.27 123.18-35.23C123.18-63.19 100.52-85.85 72.56-85.85Z"/>
  </g>
  <g id="Bold-L" transform="matrix(1 0 0 1 2268.53 1556)">
   <path class="hierarchical-0:primary SFSymbolsPreview212121" d="M71.6-63.28C74.53-63.28 76.9-60.91 76.9-57.98L76.9-35.23C76.9-32.3 74.53-29.93 71.6-29.93C68.68-29.93 66.3-32.3 66.3-35.23L66.3-57.98C66.3-60.91 68.68-63.28 71.6-63.28ZM66.3-12.48C66.3-15.41 68.68-17.78 71.6-17.78L71.66-17.78C74.59-17.78 76.96-15.41 76.96-12.48C76.96-9.55 74.59-7.18 71.66-7.18L71.6-7.18C68.68-7.18 66.3-9.55 66.3-12.48Z"/>
   <path class="hierarchical-1:secondary SFSymbolsPreview4D4D4D" d="M9.43-35.23C9.43-69.57 37.27-97.4 71.6-97.4C105.94-97.4 133.78-69.57 133.78-35.23C133.78-0.89 105.94 26.95 71.6 26.95C37.27 26.95 9.43-0.89 9.43-35.23ZM71.6-86.8C43.12-86.8 20.03-63.71 20.03-35.23C20.03-6.75 43.12 16.35 71.6 16.35C100.09 16.35 123.18-6.75 123.18-35.23C123.18-63.71 100.09-86.8 71.6-86.8Z"/>
  </g>
  <g id="Semibold-L" transform="matrix(1 0 0 1 1972.47 1556)">
   <path class="hierarchical-0:primary SFSymbolsPreview212121" d="M70.96-62.63C73.53-62.63 75.61-60.55 75.61-57.98L75.61-35.23C75.61-32.66 73.53-30.58 70.96-30.58C68.39-30.58 66.31-32.66 66.31-35.23L66.31-57.98C66.31-60.55 68.39-62.63 70.96-62.63ZM66.31-12.48C66.31-15.05 68.39-17.13 70.96-17.13L71.02-17.13C73.58-17.13 75.67-15.05 75.67-12.48C75.67-9.91 73.58-7.83 71.02-7.83L70.96-7.83C68.39-7.83 66.31-9.91 66.31-12.48Z"/>
   <path class="hierarchical-1:secondary SFSymbolsPreview4D4D4D" d="M9.43-35.23C9.43-69.21 36.98-96.75 70.96-96.75C104.94-96.75 132.48-69.21 132.48-35.23C132.48-1.25 104.94 26.3 70.96 26.3C36.98 26.3 9.43-1.25 9.43-35.23ZM70.96-87.45C42.12-87.45 18.73-64.07 18.73-35.23C18.73-6.39 42.12 17 70.96 17C99.8 17 123.18-6.39 123.18-35.23C123.18-64.07 99.8-87.45 70.96-87.45Z"/>
  </g>
  <g id="Medium-L" transform="matrix(1 0 0 1 1676.26 1556)">
   <path class="hierarchical-0:primary SFSymbolsPreview212121" d="M70.46-62.13C72.75-62.13 74.61-60.27 74.61-57.98L74.61-35.23C74.61-32.94 72.75-31.08 70.46-31.08C68.17-31.08 66.31-32.94 66.31-35.23L66.31-57.98C66.31-60.27 68.17-62.13 70.46-62.13ZM66.31-12.48C66.31-14.77 68.17-16.63 70.46-16.63L70.52-16.63C72.81-16.63 74.67-14.77 74.67-12.48C74.67-10.19 72.81-8.33 70.52-8.33L70.46-8.33C68.17-8.33 66.31-10.19 66.31-12.48Z"/>
   <path class="hierarchical-1:secondary SFSymbolsPreview4D4D4D" d="M9.43-35.23C9.43-68.93 36.76-96.25 70.46-96.25C104.16-96.25 131.48-68.93 131.48-35.23C131.48-1.53 104.16 25.8 70.46 25.8C36.76 25.8 9.43-1.53 9.43-35.23ZM70.46-87.95C41.34-87.95 17.73-64.35 17.73-35.23C17.73-6.11 41.34 17.5 70.46 17.5C99.58 17.5 123.18-6.11 123.18-35.23C123.18-64.35 99.58-87.95 70.46-87.95Z"/>
  </g>
  <g id="Regular-L" transform="matrix(1 0 0 1 1380.19 1556)">
   <path class="hierarchical-0:primary SFSymbolsPreview212121" d="M69.81-61.48C71.74-61.48 73.31-59.91 73.31-57.98L73.31-35.23C73.31-33.3 71.74-31.73 69.81-31.73C67.88-31.73 66.31-33.3 66.31-35.23L66.31-57.98C66.31-59.91 67.88-61.48 69.81-61.48ZM66.31-12.48C66.31-14.41 67.88-15.98 69.81-15.98L69.87-15.98C71.8-15.98 73.37-14.41 73.37-12.48C73.37-10.55 71.8-8.98 69.87-8.98L69.81-8.98C67.88-8.98 66.31-10.55 66.31-12.48Z"/>
   <path class="hierarchical-1:secondary SFSymbolsPreview4D4D4D" d="M9.43-35.23C9.43-68.57 36.47-95.6 69.81-95.6C103.15-95.6 130.19-68.57 130.19-35.23C130.19-1.89 103.15 25.15 69.81 25.15C36.47 25.15 9.43-1.89 9.43-35.23ZM69.81-88.6C40.33-88.6 16.43-64.71 16.43-35.23C16.43-5.75 40.33 18.15 69.81 18.15C99.29 18.15 123.19-5.75 123.19-35.23C123.19-64.71 99.29-88.6 69.81-88.6Z"/>
  </g>
  <g id="Light-L" transform="matrix(1 0 0 1 1084.28 1556)">
   <path class="hierarchical-0:primary SFSymbolsPreview212121" d="M69-60.68C70.49-60.68 71.7-59.47 71.7-57.98L71.7-35.23C71.7-33.74 70.49-32.53 69-32.53C67.51-32.53 66.3-33.74 66.3-35.23L66.3-57.98C66.3-59.47 67.51-60.68 69-60.68ZM66.3-12.48C66.3-13.97 67.51-15.18 69-15.18L69.06-15.18C70.55-15.18 71.76-13.97 71.76-12.48C71.76-10.99 70.55-9.78 69.06-9.78L69-9.78C67.51-9.78 66.3-10.99 66.3-12.48Z"/>
   <path class="hierarchical-1:secondary SFSymbolsPreview4D4D4D" d="M9.43-35.23C9.43-68.13 36.1-94.8 69-94.8C101.9-94.8 128.58-68.13 128.58-35.23C128.58-2.33 101.9 24.35 69 24.35C36.1 24.35 9.43-2.33 9.43-35.23ZM69-89.4C39.08-89.4 14.83-65.15 14.83-35.23C14.83-5.31 39.08 18.95 69 18.95C98.92 18.95 123.18-5.31 123.18-35.23C123.18-65.15 98.92-89.4 69-89.4Z"/>
  </g>
  <g id="Thin-L" transform="matrix(1 0 0 1 788.622 1556)">
   <path class="hierarchical-0:primary SFSymbolsPreview212121" d="M67.955-59.63C68.866-59.63 69.605-58.89 69.605-57.98L69.605-35.23C69.605-34.32 68.866-33.58 67.955-33.58C67.043-33.58 66.305-34.32 66.305-35.23L66.305-57.98C66.305-58.89 67.043-59.63 67.955-59.63ZM66.305-12.48C66.305-13.39 67.043-14.13 67.955-14.13L68.011-14.13C68.923-14.13 69.661-13.39 69.661-12.48C69.661-11.57 68.923-10.83 68.011-10.83L67.955-10.83C67.043-10.83 66.305-11.57 66.305-12.48Z"/>
   <path class="hierarchical-1:secondary SFSymbolsPreview4D4D4D" d="M9.43-35.23C9.43-67.55 35.632-93.75 67.955-93.75C100.277-93.75 126.48-67.55 126.48-35.23C126.48-2.91 100.277 23.3 67.955 23.3C35.632 23.3 9.43-2.91 9.43-35.23ZM67.955-90.45C37.455-90.45 12.73-65.73 12.73-35.23C12.73-4.73 37.455 20 67.955 20C98.455 20 123.18-4.73 123.18-35.23C123.18-65.73 98.455-90.45 67.955-90.45Z"/>
  </g>
  <g id="Ultralight-L" transform="matrix(1 0 0 1 492.461 1556)">
   <path class="hierarchical-0:primary SFSymbolsPreview212121" d="M67.405-59.08C68.013-59.08 68.505-58.59 68.505-57.98L68.505-35.23C68.505-34.62 68.013-34.13 67.405-34.13C66.798-34.13 66.305-34.62 66.305-35.23L66.305-57.98C66.305-58.59 66.798-59.08 67.405-59.08ZM66.305-12.48C66.305-13.09 66.798-13.58 67.405-13.58L67.462-13.58C68.07-13.58 68.562-13.09 68.562-12.48C68.562-11.87 68.07-11.38 67.462-11.38L67.405-11.38C66.798-11.38 66.305-11.87 66.305-12.48Z"/>
   <path class="hierarchical-1:secondary SFSymbolsPreview4D4D4D" d="M9.43-35.23C9.43-67.25 35.387-93.2 67.405-93.2C99.424-93.2 125.38-67.25 125.38-35.23C125.38-3.21 99.424 22.75 67.405 22.75C35.387 22.75 9.43-3.21 9.43-35.23ZM67.405-91C36.602-91 11.63-66.03 11.63-35.23C11.63-4.43 36.602 20.55 67.405 20.55C98.209 20.55 123.18-4.43 123.18-35.23C123.18-66.03 98.209-91 67.405-91Z"/>
  </g>
  <g id="Black-M" transform="matrix(1 0 0 1 2872.4 1126)">
   <path class="hierarchical-0:primary SFSymbolsPreview212121" d="M61.15-60.18C65.08-60.18 68.25-57 68.25-53.08L68.25-35.23C68.25-31.31 65.08-28.13 61.15-28.13C57.23-28.13 54.05-31.31 54.05-35.23L54.05-53.08C54.05-57 57.23-60.18 61.15-60.18ZM54.05-17.38C54.05-21.3 57.23-24.48 61.15-24.48L61.2-24.48C65.12-24.48 68.3-21.3 68.3-17.38C68.3-13.46 65.12-10.28 61.2-10.28L61.15-10.28C57.23-10.28 54.05-13.46 54.05-17.38Z"/>
   <path class="hierarchical-1:secondary SFSymbolsPreview4D4D4D" d="M9.43-35.23C9.43-63.8 32.59-86.95 61.15-86.95C89.72-86.95 112.88-63.8 112.88-35.23C112.88-6.66 89.72 16.5 61.15 16.5C32.59 16.5 9.43-6.66 9.43-35.23ZM61.15-72.75C40.43-72.75 23.63-55.95 23.63-35.23C23.63-14.51 40.43 2.3 61.15 2.3C81.88 2.3 98.68-14.51 98.68-35.23C98.68-55.95 81.88-72.75 61.15-72.75Z"/>
  </g>
  <g id="Heavy-M" transform="matrix(1 0 0 1 2576.54 1126)">
   <path class="hierarchical-0:primary SFSymbolsPreview212121" d="M60.3-59.33C63.76-59.33 66.55-56.53 66.55-53.08L66.55-35.23C66.55-31.78 63.76-28.98 60.3-28.98C56.85-28.98 54.05-31.78 54.05-35.23L54.05-53.08C54.05-56.53 56.85-59.33 60.3-59.33ZM54.05-17.38C54.05-20.83 56.85-23.63 60.3-23.63L60.35-23.63C63.8-23.63 66.6-20.83 66.6-17.38C66.6-13.93 63.8-11.13 60.35-11.13L60.3-11.13C56.85-11.13 54.05-13.93 54.05-17.38Z"/>
   <path class="hierarchical-1:secondary SFSymbolsPreview4D4D4D" d="M9.43-35.23C9.43-63.33 32.21-86.1 60.3-86.1C88.4-86.1 111.18-63.33 111.18-35.23C111.18-7.13 88.4 15.65 60.3 15.65C32.21 15.65 9.43-7.13 9.43-35.23ZM60.3-73.6C39.11-73.6 21.93-56.42 21.93-35.23C21.93-14.04 39.11 3.15 60.3 3.15C81.5 3.15 98.68-14.04 98.68-35.23C98.68-56.42 81.5-73.6 60.3-73.6Z"/>
  </g>
  <g id="Bold-M" transform="matrix(1 0 0 1 2280.78 1126)">
   <path class="hierarchical-0:primary SFSymbolsPreview212121" d="M59.35-58.38C62.28-58.38 64.65-56.01 64.65-53.08L64.65-35.23C64.65-32.3 62.28-29.93 59.35-29.93C56.43-29.93 54.05-32.3 54.05-35.23L54.05-53.08C54.05-56.01 56.43-58.38 59.35-58.38ZM54.05-17.38C54.05-20.31 56.43-22.68 59.35-22.68L59.4-22.68C62.33-22.68 64.7-20.31 64.7-17.38C64.7-14.45 62.33-12.08 59.4-12.08L59.35-12.08C56.43-12.08 54.05-14.45 54.05-17.38Z"/>
   <path class="hierarchical-1:secondary SFSymbolsPreview4D4D4D" d="M9.43-35.23C9.43-62.8 31.78-85.15 59.35-85.15C86.93-85.15 109.28-62.8 109.28-35.23C109.28-7.66 86.93 14.7 59.35 14.7C31.78 14.7 9.43-7.66 9.43-35.23ZM59.35-74.55C37.64-74.55 20.03-56.95 20.03-35.23C20.03-13.51 37.64 4.1 59.35 4.1C81.07 4.1 98.68-13.51 98.68-35.23C98.68-56.95 81.07-74.55 59.35-74.55Z"/>
  </g>
  <g id="Semibold-M" transform="matrix(1 0 0 1 1984.72 1126)">
   <path class="hierarchical-0:primary SFSymbolsPreview212121" d="M58.71-57.73C61.28-57.73 63.36-55.65 63.36-53.08L63.36-35.23C63.36-32.66 61.28-30.58 58.71-30.58C56.14-30.58 54.06-32.66 54.06-35.23L54.06-53.08C54.06-55.65 56.14-57.73 58.71-57.73ZM54.06-17.38C54.06-19.95 56.14-22.03 58.71-22.03L58.75-22.03C61.32-22.03 63.4-19.95 63.4-17.38C63.4-14.81 61.32-12.73 58.75-12.73L58.71-12.73C56.14-12.73 54.06-14.81 54.06-17.38Z"/>
   <path class="hierarchical-1:secondary SFSymbolsPreview4D4D4D" d="M9.43-35.23C9.43-62.44 31.5-84.5 58.71-84.5C85.92-84.5 107.98-62.44 107.98-35.23C107.98-8.02 85.92 14.05 58.71 14.05C31.5 14.05 9.43-8.02 9.43-35.23ZM58.71-75.2C36.63-75.2 18.73-57.31 18.73-35.23C18.73-13.15 36.63 4.75 58.71 4.75C80.79 4.75 98.68-13.15 98.68-35.23C98.68-57.31 80.79-75.2 58.71-75.2Z"/>
  </g>
  <g id="Medium-M" transform="matrix(1 0 0 1 1688.51 1126)">
   <path class="hierarchical-0:primary SFSymbolsPreview212121" d="M58.21-57.23C60.5-57.23 62.36-55.37 62.36-53.08L62.36-35.23C62.36-32.94 60.5-31.08 58.21-31.08C55.92-31.08 54.06-32.94 54.06-35.23L54.06-53.08C54.06-55.37 55.92-57.23 58.21-57.23ZM54.06-17.38C54.06-19.67 55.92-21.53 58.21-21.53L58.25-21.53C60.55-21.53 62.4-19.67 62.4-17.38C62.4-15.09 60.55-13.23 58.25-13.23L58.21-13.23C55.92-13.23 54.06-15.09 54.06-17.38Z"/>
   <path class="hierarchical-1:secondary SFSymbolsPreview4D4D4D" d="M9.43-35.23C9.43-62.17 31.27-84 58.21-84C85.15-84 106.98-62.17 106.98-35.23C106.98-8.29 85.15 13.55 58.21 13.55C31.27 13.55 9.43-8.29 9.43-35.23ZM58.21-75.7C35.86-75.7 17.73-57.58 17.73-35.23C17.73-12.88 35.86 5.25 58.21 5.25C80.56 5.25 98.68-12.88 98.68-35.23C98.68-57.58 80.56-75.7 58.21-75.7Z"/>
  </g>
  <g id="Regular-M" transform="matrix(1 0 0 1 1392.45 1126)">
   <path class="hierarchical-0:primary SFSymbolsPreview212121" d="M57.55-56.58C59.48-56.58 61.05-55.01 61.05-53.08L61.05-35.23C61.05-33.3 59.48-31.73 57.55-31.73C55.62-31.73 54.05-33.3 54.05-35.23L54.05-53.08C54.05-55.01 55.62-56.58 57.55-56.58ZM54.05-17.38C54.05-19.31 55.62-20.88 57.55-20.88L57.59-20.88C59.53-20.88 61.09-19.31 61.09-17.38C61.09-15.45 59.53-13.88 57.59-13.88L57.55-13.88C55.62-13.88 54.05-15.45 54.05-17.38Z"/>
   <path class="hierarchical-1:secondary SFSymbolsPreview4D4D4D" d="M9.43-35.23C9.43-61.81 30.97-83.35 57.55-83.35C84.13-83.35 105.67-61.81 105.67-35.23C105.67-8.65 84.13 12.9 57.55 12.9C30.97 12.9 9.43-8.65 9.43-35.23ZM57.55-76.35C34.84-76.35 16.43-57.94 16.43-35.23C16.43-12.52 34.84 5.9 57.55 5.9C80.26 5.9 98.67-12.52 98.67-35.23C98.67-57.94 80.26-76.35 57.55-76.35Z"/>
  </g>
  <g id="Light-M" transform="matrix(1 0 0 1 1096.53 1126)">
   <path class="hierarchical-0:primary SFSymbolsPreview212121" d="M56.75-55.78C58.24-55.78 59.45-54.57 59.45-53.08L59.45-35.23C59.45-33.74 58.24-32.53 56.75-32.53C55.26-32.53 54.05-33.74 54.05-35.23L54.05-53.08C54.05-54.57 55.26-55.78 56.75-55.78ZM54.05-17.38C54.05-18.87 55.26-20.08 56.75-20.08L56.8-20.08C58.29-20.08 59.5-18.87 59.5-17.38C59.5-15.89 58.29-14.68 56.8-14.68L56.75-14.68C55.26-14.68 54.05-15.89 54.05-17.38Z"/>
   <path class="hierarchical-1:secondary SFSymbolsPreview4D4D4D" d="M9.43-35.23C9.43-61.37 30.61-82.55 56.75-82.55C82.89-82.55 104.08-61.37 104.08-35.23C104.08-9.09 82.89 12.1 56.75 12.1C30.61 12.1 9.43-9.09 9.43-35.23ZM56.75-77.15C33.6-77.15 14.83-58.38 14.83-35.23C14.83-12.07 33.6 6.7 56.75 6.7C79.91 6.7 98.68-12.07 98.68-35.23C98.68-58.38 79.91-77.15 56.75-77.15Z"/>
  </g>
  <g id="Thin-M" transform="matrix(1 0 0 1 800.872 1126)">
   <path class="hierarchical-0:primary SFSymbolsPreview212121" d="M55.705-54.73C56.616-54.73 57.355-53.99 57.355-53.08L57.355-35.23C57.355-34.32 56.616-33.58 55.705-33.58C54.793-33.58 54.055-34.32 54.055-35.23L54.055-53.08C54.055-53.99 54.793-54.73 55.705-54.73ZM54.055-17.38C54.055-18.29 54.793-19.03 55.705-19.03L55.749-19.03C56.661-19.03 57.399-18.29 57.399-17.38C57.399-16.47 56.661-15.73 55.749-15.73L55.705-15.73C54.793-15.73 54.055-16.47 54.055-17.38Z"/>
   <path class="hierarchical-1:secondary SFSymbolsPreview4D4D4D" d="M9.43-35.23C9.43-60.79 30.148-81.5 55.705-81.5C81.262-81.5 101.98-60.79 101.98-35.23C101.98-9.67 81.262 11.05 55.705 11.05C30.148 11.05 9.43-9.67 9.43-35.23ZM55.705-78.2C31.97-78.2 12.73-58.96 12.73-35.23C12.73-11.49 31.97 7.75 55.705 7.75C79.439 7.75 98.68-11.49 98.68-35.23C98.68-58.96 79.439-78.2 55.705-78.2Z"/>
  </g>
  <g id="Ultralight-M" transform="matrix(1 0 0 1 504.711 1126)">
   <path class="hierarchical-0:primary SFSymbolsPreview212121" d="M55.155-54.18C55.763-54.18 56.255-53.69 56.255-53.08L56.255-35.23C56.255-34.62 55.763-34.13 55.155-34.13C54.548-34.13 54.055-34.62 54.055-35.23L54.055-53.08C54.055-53.69 54.548-54.18 55.155-54.18ZM54.055-17.38C54.055-17.99 54.548-18.48 55.155-18.48L55.2-18.48C55.808-18.48 56.3-17.99 56.3-17.38C56.3-16.77 55.808-16.28 55.2-16.28L55.155-16.28C54.548-16.28 54.055-16.77 54.055-17.38Z"/>
   <path class="hierarchical-1:secondary SFSymbolsPreview4D4D4D" d="M9.43-35.23C9.43-60.48 29.902-80.95 55.155-80.95C80.409-80.95 100.88-60.48 100.88-35.23C100.88-9.98 80.409 10.5 55.155 10.5C29.902 10.5 9.43-9.98 9.43-35.23ZM55.155-78.75C31.117-78.75 11.63-59.27 11.63-35.23C11.63-11.19 31.117 8.3 55.155 8.3C79.194 8.3 98.68-11.19 98.68-35.23C98.68-59.27 79.194-78.75 55.155-78.75Z"/>
  </g>
  <g id="Black-S" transform="matrix(1 0 0 1 2882.03 696)">
   <path class="hierarchical-0:primary SFSymbolsPreview212121" d="M51.53-56.432C55.45-56.432 58.63-53.253 58.63-49.332L58.63-35.332C58.63-31.411 55.45-28.232 51.53-28.232C47.61-28.232 44.43-31.411 44.43-35.332L44.43-49.332C44.43-53.253 47.61-56.432 51.53-56.432ZM44.43-21.332C44.43-25.253 47.61-28.432 51.53-28.432L51.57-28.432C55.49-28.432 58.67-25.253 58.67-21.332C58.67-17.411 55.49-14.232 51.57-14.232L51.53-14.232C47.61-14.232 44.43-17.411 44.43-21.332Z"/>
   <path class="hierarchical-1:secondary SFSymbolsPreview4D4D4D" d="M9.43-35.332C9.43-58.583 28.28-77.432 51.53-77.432C74.78-77.432 93.63-58.583 93.63-35.332C93.63-12.081 74.78 6.768 51.53 6.768C28.28 6.768 9.43-12.081 9.43-35.332ZM51.53-63.232C36.12-63.232 23.63-50.741 23.63-35.332C23.63-19.923 36.12-7.432 51.53-7.432C66.94-7.432 79.43-19.923 79.43-35.332C79.43-50.741 66.94-63.232 51.53-63.232Z"/>
  </g>
  <g id="Heavy-S" transform="matrix(1 0 0 1 2586.16 696)">
   <path class="hierarchical-0:primary SFSymbolsPreview212121" d="M50.68-55.582C54.13-55.582 56.93-52.784 56.93-49.332L56.93-35.332C56.93-31.88 54.13-29.082 50.68-29.082C47.23-29.082 44.43-31.88 44.43-35.332L44.43-49.332C44.43-52.784 47.23-55.582 50.68-55.582ZM44.43-21.332C44.43-24.784 47.23-27.582 50.68-27.582L50.72-27.582C54.17-27.582 56.97-24.784 56.97-21.332C56.97-17.88 54.17-15.082 50.72-15.082L50.68-15.082C47.23-15.082 44.43-17.88 44.43-21.332Z"/>
   <path class="hierarchical-1:secondary SFSymbolsPreview4D4D4D" d="M9.43-35.332C9.43-58.114 27.9-76.582 50.68-76.582C73.46-76.582 91.93-58.114 91.93-35.332C91.93-12.55 73.46 5.918 50.68 5.918C27.9 5.918 9.43-12.55 9.43-35.332ZM50.68-64.082C34.8-64.082 21.93-51.21 21.93-35.332C21.93-19.454 34.8-6.582 50.68-6.582C66.56-6.582 79.43-19.454 79.43-35.332C79.43-51.21 66.56-64.082 50.68-64.082Z"/>
  </g>
  <g id="Bold-S" transform="matrix(1 0 0 1 2290.4 696)">
   <path class="hierarchical-0:primary SFSymbolsPreview212121" d="M49.73-54.427C52.66-54.427 55.03-52.054 55.03-49.127L55.03-35.127C55.03-32.2 52.66-29.827 49.73-29.827C46.81-29.827 44.43-32.2 44.43-35.127L44.43-49.127C44.43-52.054 46.81-54.427 49.73-54.427ZM44.43-21.127C44.43-24.054 46.81-26.427 49.73-26.427L49.77-26.427C52.7-26.427 55.07-24.054 55.07-21.127C55.07-18.2 52.7-15.827 49.77-15.827L49.73-15.827C46.81-15.827 44.43-18.2 44.43-21.127Z"/>
   <path class="hierarchical-1:secondary SFSymbolsPreview4D4D4D" d="M9.43-35.127C9.43-57.384 27.48-75.427 49.73-75.427C71.99-75.427 90.03-57.384 90.03-35.127C90.03-12.87 71.99 5.173 49.73 5.173C27.48 5.173 9.43-12.87 9.43-35.127ZM49.73-64.827C33.33-64.827 20.03-51.53 20.03-35.127C20.03-18.724 33.33-5.427 49.73-5.427C66.14-5.427 79.43-18.724 79.43-35.127C79.43-51.53 66.14-64.827 49.73-64.827Z"/>
  </g>
  <g id="Semibold-S" transform="matrix(1 0 0 1 1994.34 696)">
   <path class="hierarchical-0:primary SFSymbolsPreview212121" d="M49.08-53.777C51.65-53.777 53.73-51.695 53.73-49.127L53.73-35.127C53.73-32.559 51.65-30.477 49.08-30.477C46.51-30.477 44.43-32.559 44.43-35.127L44.43-49.127C44.43-51.695 46.51-53.777 49.08-53.777ZM44.43-21.127C44.43-23.695 46.51-25.777 49.08-25.777L49.11-25.777C51.68-25.777 53.76-23.695 53.76-21.127C53.76-18.559 51.68-16.477 49.11-16.477L49.08-16.477C46.51-16.477 44.43-18.559 44.43-21.127Z"/>
   <path class="hierarchical-1:secondary SFSymbolsPreview4D4D4D" d="M9.43-35.127C9.43-57.025 27.18-74.777 49.08-74.777C70.98-74.777 88.73-57.025 88.73-35.127C88.73-13.229 70.98 4.523 49.08 4.523C27.18 4.523 9.43-13.229 9.43-35.127ZM49.08-65.477C32.32-65.477 18.73-51.889 18.73-35.127C18.73-18.365 32.32-4.777 49.08-4.777C65.84-4.777 79.43-18.365 79.43-35.127C79.43-51.889 65.84-65.477 49.08-65.477Z"/>
  </g>
  <g id="Medium-S" transform="matrix(1 0 0 1 1698.13 696)">
   <path class="hierarchical-0:primary SFSymbolsPreview212121" d="M48.58-53.277C50.87-53.277 52.73-51.419 52.73-49.127L52.73-35.127C52.73-32.835 50.87-30.977 48.58-30.977C46.29-30.977 44.43-32.835 44.43-35.127L44.43-49.127C44.43-51.419 46.29-53.277 48.58-53.277ZM44.43-21.127C44.43-23.419 46.29-25.277 48.58-25.277L48.61-25.277C50.91-25.277 52.76-23.419 52.76-21.127C52.76-18.835 50.91-16.977 48.61-16.977L48.58-16.977C46.29-16.977 44.43-18.835 44.43-21.127Z"/>
   <path class="hierarchical-1:secondary SFSymbolsPreview4D4D4D" d="M9.43-35.127C9.43-56.749 26.96-74.277 48.58-74.277C70.2-74.277 87.73-56.749 87.73-35.127C87.73-13.505 70.2 4.023 48.58 4.023C26.96 4.023 9.43-13.505 9.43-35.127ZM48.58-65.977C31.54-65.977 17.73-52.165 17.73-35.127C17.73-18.089 31.54-4.277 48.58-4.277C65.62-4.277 79.43-18.089 79.43-35.127C79.43-52.165 65.62-65.977 48.58-65.977Z"/>
  </g>
  <g id="Regular-S" transform="matrix(1 0 0 1 1402.07 696)">
   <path class="hierarchical-0:primary SFSymbolsPreview212121" d="M47.93-52.627C49.86-52.627 51.43-51.06 51.43-49.127L51.43-35.127C51.43-33.194 49.86-31.627 47.93-31.627C46-31.627 44.43-33.194 44.43-35.127L44.43-49.127C44.43-51.06 46-52.627 47.93-52.627ZM44.43-21.127C44.43-23.06 46-24.627 47.93-24.627L47.97-24.627C49.9-24.627 51.47-23.06 51.47-21.127C51.47-19.194 49.9-17.627 47.97-17.627L47.93-17.627C46-17.627 44.43-19.194 44.43-21.127Z"/>
   <path class="hierarchical-1:secondary SFSymbolsPreview4D4D4D" d="M9.43-35.127C9.43-56.39 26.67-73.627 47.93-73.627C69.19-73.627 86.43-56.39 86.43-35.127C86.43-13.864 69.19 3.373 47.93 3.373C26.67 3.373 9.43-13.864 9.43-35.127ZM47.93-66.627C30.53-66.627 16.43-52.524 16.43-35.127C16.43-17.73 30.53-3.627 47.93-3.627C65.33-3.627 79.43-17.73 79.43-35.127C79.43-52.524 65.33-66.627 47.93-66.627Z"/>
  </g>
  <g id="Light-S" transform="matrix(1 0 0 1 1106.16 696)">
   <path class="hierarchical-0:primary SFSymbolsPreview212121" d="M47.13-51.827C48.62-51.827 49.83-50.618 49.83-49.127L49.83-35.127C49.83-33.636 48.62-32.427 47.13-32.427C45.64-32.427 44.43-33.636 44.43-35.127L44.43-49.127C44.43-50.618 45.64-51.827 47.13-51.827ZM44.43-21.127C44.43-22.618 45.64-23.827 47.13-23.827L47.17-23.827C48.66-23.827 49.87-22.618 49.87-21.127C49.87-19.636 48.66-18.427 47.17-18.427L47.13-18.427C45.64-18.427 44.43-19.636 44.43-21.127Z"/>
   <path class="hierarchical-1:secondary SFSymbolsPreview4D4D4D" d="M9.43-35.127C9.43-55.948 26.31-72.827 47.13-72.827C67.95-72.827 84.83-55.948 84.83-35.127C84.83-14.306 67.95 2.573 47.13 2.573C26.31 2.573 9.43-14.306 9.43-35.127ZM47.13-67.427C29.29-67.427 14.83-52.966 14.83-35.127C14.83-17.288 29.29-2.827 47.13-2.827C64.97-2.827 79.43-17.288 79.43-35.127C79.43-52.966 64.97-67.427 47.13-67.427Z"/>
  </g>
  <g id="Thin-S" transform="matrix(1 0 0 1 810.497 696)">
   <path class="hierarchical-0:primary SFSymbolsPreview212121" d="M46.08-50.777C46.991-50.777 47.73-50.038 47.73-49.127L47.73-35.127C47.73-34.216 46.991-33.477 46.08-33.477C45.168-33.477 44.43-34.216 44.43-35.127L44.43-49.127C44.43-50.038 45.168-50.777 46.08-50.777ZM44.43-21.127C44.43-22.038 45.168-22.777 46.08-22.777L46.115-22.777C47.026-22.777 47.765-22.038 47.765-21.127C47.765-20.216 47.026-19.477 46.115-19.477L46.08-19.477C45.168-19.477 44.43-20.216 44.43-21.127Z"/>
   <path class="hierarchical-1:secondary SFSymbolsPreview4D4D4D" d="M9.43-35.127C9.43-55.368 25.838-71.777 46.08-71.777C66.321-71.777 82.73-55.368 82.73-35.127C82.73-14.886 66.321 1.523 46.08 1.523C25.838 1.523 9.43-14.886 9.43-35.127ZM46.08-68.477C27.661-68.477 12.73-53.546 12.73-35.127C12.73-16.708 27.661-1.777 46.08-1.777C64.498-1.777 79.43-16.708 79.43-35.127C79.43-53.546 64.498-68.477 46.08-68.477Z"/>
  </g>
  <g id="Ultralight-S" transform="matrix(1 0 0 1 514.336 696)">
   <path class="hierarchical-0:primary SFSymbolsPreview212121" d="M45.53-50.227C46.138-50.227 46.63-49.734 46.63-49.127L46.63-35.127C46.63-34.519 46.138-34.027 45.53-34.027C44.923-34.027 44.43-34.519 44.43-35.127L44.43-49.127C44.43-49.734 44.923-50.227 45.53-50.227ZM44.43-21.127C44.43-21.734 44.923-22.227 45.53-22.227L45.565-22.227C46.173-22.227 46.665-21.734 46.665-21.127C46.665-20.519 46.173-20.027 45.565-20.027L45.53-20.027C44.923-20.027 44.43-20.519 44.43-21.127Z"/>
   <path class="hierarchical-1:secondary SFSymbolsPreview4D4D4D" d="M9.43-35.127C9.43-55.064 25.593-71.227 45.53-71.227C65.468-71.227 81.63-55.064 81.63-35.127C81.63-15.189 65.468 0.973 45.53 0.973C25.593 0.973 9.43-15.189 9.43-35.127ZM45.53-69.027C26.808-69.027 11.63-53.849 11.63-35.127C11.63-16.404 26.808-1.227 45.53-1.227C64.253-1.227 79.43-16.404 79.43-35.127C79.43-53.849 64.253-69.027 45.53-69.027Z"/>
  </g>
 </g>
</svg>
