<?xml version="1.0" encoding="UTF-8"?>
<!--Generator: Apple Native CoreSVG 175-->
<!DOCTYPE svg
PUBLIC "-//W3C//DTD SVG 1.1//EN"
       "http://www.w3.org/Graphics/SVG/1.1/DTD/svg11.dtd">
<svg version="1.1" xmlns="http://www.w3.org/2000/svg" xmlns:xlink="http://www.w3.org/1999/xlink" width="3300" height="2200">
 <!--glyph: "", point size: 100.0, font version: "17.0d12e1", template writer version: "65.1"-->
 <g id="Notes">
  <rect height="2200" id="artboard" style="fill:white;opacity:1" width="3300" x="0" y="0"/>
  <line style="fill:none;stroke:black;opacity:1;stroke-width:0.5;" x1="263" x2="3036" y1="292" y2="292"/>
  <text style="stroke:none;fill:black;font-family:sans-serif;font-size:13;font-weight:bold;" transform="matrix(1 0 0 1 263 322)">Weight/Scale Variations</text>
  <text style="stroke:none;fill:black;font-family:sans-serif;font-size:13;text-anchor:middle;" transform="matrix(1 0 0 1 559.711 322)">Ultralight</text>
  <text style="stroke:none;fill:black;font-family:sans-serif;font-size:13;text-anchor:middle;" transform="matrix(1 0 0 1 856.422 322)">Thin</text>
  <text style="stroke:none;fill:black;font-family:sans-serif;font-size:13;text-anchor:middle;" transform="matrix(1 0 0 1 1153.13 322)">Light</text>
  <text style="stroke:none;fill:black;font-family:sans-serif;font-size:13;text-anchor:middle;" transform="matrix(1 0 0 1 1449.84 322)">Regular</text>
  <text style="stroke:none;fill:black;font-family:sans-serif;font-size:13;text-anchor:middle;" transform="matrix(1 0 0 1 1746.56 322)">Medium</text>
  <text style="stroke:none;fill:black;font-family:sans-serif;font-size:13;text-anchor:middle;" transform="matrix(1 0 0 1 2043.27 322)">Semibold</text>
  <text style="stroke:none;fill:black;font-family:sans-serif;font-size:13;text-anchor:middle;" transform="matrix(1 0 0 1 2339.98 322)">Bold</text>
  <text style="stroke:none;fill:black;font-family:sans-serif;font-size:13;text-anchor:middle;" transform="matrix(1 0 0 1 2636.69 322)">Heavy</text>
  <text style="stroke:none;fill:black;font-family:sans-serif;font-size:13;text-anchor:middle;" transform="matrix(1 0 0 1 2933.4 322)">Black</text>
  <line style="fill:none;stroke:black;opacity:1;stroke-width:0.5;" x1="263" x2="3036" y1="1903" y2="1903"/>
  <g transform="matrix(1 0 0 1 263 1933)">
   <path d="M9.24805 0.830078Q10.8691 0.830078 12.2949 0.214844Q13.7207-0.400391 14.8096-1.49414Q15.8984-2.58789 16.5186-4.01367Q17.1387-5.43945 17.1387-7.05078Q17.1387-8.66211 16.5186-10.0879Q15.8984-11.5137 14.8047-12.6074Q13.7109-13.7012 12.2852-14.3164Q10.8594-14.9316 9.23828-14.9316Q7.62695-14.9316 6.20117-14.3164Q4.77539-13.7012 3.69141-12.6074Q2.60742-11.5137 1.9873-10.0879Q1.36719-8.66211 1.36719-7.05078Q1.36719-5.43945 1.9873-4.01367Q2.60742-2.58789 3.69629-1.49414Q4.78516-0.400391 6.21094 0.214844Q7.63672 0.830078 9.24805 0.830078ZM9.24805-0.654297Q7.91992-0.654297 6.7627-1.14746Q5.60547-1.64062 4.73145-2.51953Q3.85742-3.39844 3.36426-4.56055Q2.87109-5.72266 2.87109-7.05078Q2.87109-8.37891 3.35938-9.54102Q3.84766-10.7031 4.72168-11.582Q5.5957-12.4609 6.75293-12.9541Q7.91016-13.4473 9.23828-13.4473Q10.5762-13.4473 11.7334-12.9541Q12.8906-12.4609 13.7695-11.582Q14.6484-10.7031 15.1465-9.54102Q15.6445-8.37891 15.6445-7.05078Q15.6445-5.72266 15.1514-4.56055Q14.6582-3.39844 13.7842-2.51953Q12.9102-1.64062 11.748-1.14746Q10.5859-0.654297 9.24805-0.654297ZM5.6543-7.05078Q5.6543-6.72852 5.85938-6.52832Q6.06445-6.32812 6.40625-6.32812L8.51562-6.32812L8.51562-4.20898Q8.51562-3.88672 8.71094-3.67676Q8.90625-3.4668 9.23828-3.4668Q9.56055-3.4668 9.77051-3.67676Q9.98047-3.88672 9.98047-4.20898L9.98047-6.32812L12.0898-6.32812Q12.4219-6.32812 12.627-6.52832Q12.832-6.72852 12.832-7.05078Q12.832-7.38281 12.627-7.58789Q12.4219-7.79297 12.0898-7.79297L9.98047-7.79297L9.98047-9.90234Q9.98047-10.2344 9.77051-10.4443Q9.56055-10.6543 9.23828-10.6543Q8.90625-10.6543 8.71094-10.4443Q8.51562-10.2344 8.51562-9.90234L8.51562-7.79297L6.40625-7.79297Q6.06445-7.79297 5.85938-7.58789Q5.6543-7.38281 5.6543-7.05078Z"/>
  </g>
  <g transform="matrix(1 0 0 1 281.867 1933)">
   <path d="M11.709 2.91016Q13.75 2.91016 15.5518 2.12891Q17.3535 1.34766 18.7305-0.0292969Q20.1074-1.40625 20.8887-3.20801Q21.6699-5.00977 21.6699-7.05078Q21.6699-9.0918 20.8887-10.8936Q20.1074-12.6953 18.7305-14.0723Q17.3535-15.4492 15.5469-16.2305Q13.7402-17.0117 11.6992-17.0117Q9.6582-17.0117 7.85645-16.2305Q6.05469-15.4492 4.68262-14.0723Q3.31055-12.6953 2.5293-10.8936Q1.74805-9.0918 1.74805-7.05078Q1.74805-5.00977 2.5293-3.20801Q3.31055-1.40625 4.6875-0.0292969Q6.06445 1.34766 7.86621 2.12891Q9.66797 2.91016 11.709 2.91016ZM11.709 1.25Q9.98047 1.25 8.47656 0.605469Q6.97266-0.0390625 5.83496-1.17676Q4.69727-2.31445 4.05762-3.81836Q3.41797-5.32227 3.41797-7.05078Q3.41797-8.7793 4.05762-10.2832Q4.69727-11.7871 5.83008-12.9297Q6.96289-14.0723 8.4668-14.7119Q9.9707-15.3516 11.6992-15.3516Q13.4277-15.3516 14.9316-14.7119Q16.4355-14.0723 17.5781-12.9297Q18.7207-11.7871 19.3652-10.2832Q20.0098-8.7793 20.0098-7.05078Q20.0098-5.32227 19.3701-3.81836Q18.7305-2.31445 17.5928-1.17676Q16.4551-0.0390625 14.9463 0.605469Q13.4375 1.25 11.709 1.25ZM7.17773-7.05078Q7.17773-6.69922 7.41211-6.47461Q7.64648-6.25 8.01758-6.25L10.8887-6.25L10.8887-3.36914Q10.8887-2.99805 11.1133-2.76855Q11.3379-2.53906 11.6895-2.53906Q12.0605-2.53906 12.29-2.76855Q12.5195-2.99805 12.5195-3.36914L12.5195-6.25L15.4004-6.25Q15.7715-6.25 16.001-6.47461Q16.2305-6.69922 16.2305-7.05078Q16.2305-7.42188 16.001-7.65137Q15.7715-7.88086 15.4004-7.88086L12.5195-7.88086L12.5195-10.752Q12.5195-11.1328 12.29-11.3623Q12.0605-11.5918 11.6895-11.5918Q11.3379-11.5918 11.1133-11.3574Q10.8887-11.123 10.8887-10.752L10.8887-7.88086L8.01758-7.88086Q7.63672-7.88086 7.40723-7.65137Q7.17773-7.42188 7.17773-7.05078Z"/>
  </g>
  <g transform="matrix(1 0 0 1 305.646 1933)">
   <path d="M14.9707 5.66406Q17.0605 5.66406 18.96 5.01465Q20.8594 4.36523 22.4512 3.19336Q24.043 2.02148 25.2197 0.429688Q26.3965-1.16211 27.0459-3.06641Q27.6953-4.9707 27.6953-7.05078Q27.6953-9.14062 27.0459-11.04Q26.3965-12.9395 25.2197-14.5312Q24.043-16.123 22.4512-17.2998Q20.8594-18.4766 18.9551-19.126Q17.0508-19.7754 14.9609-19.7754Q12.8711-19.7754 10.9717-19.126Q9.07227-18.4766 7.48535-17.2998Q5.89844-16.123 4.72168-14.5312Q3.54492-12.9395 2.90039-11.04Q2.25586-9.14062 2.25586-7.05078Q2.25586-4.9707 2.90527-3.06641Q3.55469-1.16211 4.72656 0.429688Q5.89844 2.02148 7.49023 3.19336Q9.08203 4.36523 10.9814 5.01465Q12.8809 5.66406 14.9707 5.66406ZM14.9707 3.84766Q13.1641 3.84766 11.5283 3.2959Q9.89258 2.74414 8.53516 1.74805Q7.17773 0.751953 6.17676-0.610352Q5.17578-1.97266 4.62891-3.6084Q4.08203-5.24414 4.08203-7.05078Q4.08203-8.86719 4.62891-10.5029Q5.17578-12.1387 6.17188-13.501Q7.16797-14.8633 8.52539-15.8594Q9.88281-16.8555 11.5186-17.4023Q13.1543-17.9492 14.9609-17.9492Q16.7773-17.9492 18.4131-17.4023Q20.0488-16.8555 21.4111-15.8594Q22.7734-14.8633 23.7695-13.501Q24.7656-12.1387 25.3174-10.5029Q25.8691-8.86719 25.8691-7.05078Q25.8789-5.24414 25.332-3.6084Q24.7852-1.97266 23.7842-0.610352Q22.7832 0.751953 21.4209 1.74805Q20.0586 2.74414 18.4229 3.2959Q16.7871 3.84766 14.9707 3.84766ZM9.19922-7.05078Q9.19922-6.66992 9.45801-6.4209Q9.7168-6.17188 10.1172-6.17188L14.0625-6.17188L14.0625-2.2168Q14.0625-1.81641 14.3115-1.55762Q14.5605-1.29883 14.9512-1.29883Q15.3516-1.29883 15.6104-1.55273Q15.8691-1.80664 15.8691-2.2168L15.8691-6.17188L19.8242-6.17188Q20.2246-6.17188 20.4785-6.4209Q20.7324-6.66992 20.7324-7.05078Q20.7324-7.46094 20.4785-7.71484Q20.2246-7.96875 19.8242-7.96875L15.8691-7.96875L15.8691-11.9141Q15.8691-12.3242 15.6104-12.583Q15.3516-12.8418 14.9512-12.8418Q14.5605-12.8418 14.3115-12.583Q14.0625-12.3242 14.0625-11.9141L14.0625-7.96875L10.1172-7.96875Q9.70703-7.96875 9.45312-7.71484Q9.19922-7.46094 9.19922-7.05078Z"/>
  </g>
  <text style="stroke:none;fill:black;font-family:sans-serif;font-size:13;font-weight:bold;" transform="matrix(1 0 0 1 263 1953)">Design Variations</text>
  <text style="stroke:none;fill:black;font-family:sans-serif;font-size:13;" transform="matrix(1 0 0 1 263 1971)">Symbols are supported in up to nine weights and three scales.</text>
  <text style="stroke:none;fill:black;font-family:sans-serif;font-size:13;" transform="matrix(1 0 0 1 263 1989)">For optimal layout with text and other symbols, vertically align</text>
  <text style="stroke:none;fill:black;font-family:sans-serif;font-size:13;" transform="matrix(1 0 0 1 263 2007)">symbols with the adjacent text.</text>
  <line style="fill:none;stroke:#00AEEF;stroke-width:0.5;opacity:1.0;" x1="776" x2="776" y1="1919" y2="1933"/>
  <g transform="matrix(1 0 0 1 776 1933)">
   <path d="M3.31055 0.15625Q3.70117 0.15625 3.91602-0.00976562Q4.13086-0.175781 4.26758-0.585938L5.52734-4.0332L11.2891-4.0332L12.5488-0.585938Q12.6855-0.175781 12.9004-0.00976562Q13.1152 0.15625 13.4961 0.15625Q13.8867 0.15625 14.1162-0.0585938Q14.3457-0.273438 14.3457-0.644531Q14.3457-0.869141 14.2383-1.17188L9.6582-13.3691Q9.48242-13.8184 9.17969-14.043Q8.87695-14.2676 8.4082-14.2676Q7.5-14.2676 7.17773-13.3789L2.59766-1.16211Q2.49023-0.859375 2.49023-0.634766Q2.49023-0.263672 2.70996-0.0537109Q2.92969 0.15625 3.31055 0.15625ZM6.00586-5.51758L8.37891-12.0898L8.42773-12.0898L10.8008-5.51758Z"/>
  </g>
  <line style="fill:none;stroke:#00AEEF;stroke-width:0.5;opacity:1.0;" x1="793.197" x2="793.197" y1="1919" y2="1933"/>
  <text style="stroke:none;fill:black;font-family:sans-serif;font-size:13;font-weight:bold;" transform="matrix(1 0 0 1 776 1953)">Margins</text>
  <text style="stroke:none;fill:black;font-family:sans-serif;font-size:13;" transform="matrix(1 0 0 1 776 1971)">Leading and trailing margins on the left and right side of each symbol</text>
  <text style="stroke:none;fill:black;font-family:sans-serif;font-size:13;" transform="matrix(1 0 0 1 776 1989)">can be adjusted by modifying the x-location of the margin guidelines.</text>
  <text style="stroke:none;fill:black;font-family:sans-serif;font-size:13;" transform="matrix(1 0 0 1 776 2007)">Modifications are automatically applied proportionally to all</text>
  <text style="stroke:none;fill:black;font-family:sans-serif;font-size:13;" transform="matrix(1 0 0 1 776 2025)">scales and weights.</text>
  <g transform="matrix(1 0 0 1 1289 1933)">
   <path d="M2.8418 1.86523L4.54102 3.57422Q5.18555 4.22852 5.90332 4.17969Q6.62109 4.13086 7.31445 3.35938L18.0078-8.42773L17.041-9.4043L6.42578 2.27539Q6.16211 2.57812 5.89355 2.61719Q5.625 2.65625 5.27344 2.30469L4.10156 1.14258Q3.75 0.791016 3.79395 0.522461Q3.83789 0.253906 4.14062-0.0195312L15.6152-10.8203L14.6387-11.7871L3.04688-0.898438Q2.30469-0.214844 2.25098 0.498047Q2.19727 1.21094 2.8418 1.86523ZM9.25781-16.3281Q8.94531-16.0254 8.90625-15.6348Q8.86719-15.2441 9.04297-14.9512Q9.21875-14.6777 9.55566-14.541Q9.89258-14.4043 10.3809-14.5215Q11.4746-14.7754 12.5977-14.7314Q13.7207-14.6875 14.7949-13.9844L14.209-12.5293Q13.9551-11.9043 14.0674-11.4404Q14.1797-10.9766 14.5801-10.5664L16.875-8.25195Q17.2363-7.88086 17.5781-7.82227Q17.9199-7.76367 18.3398-7.8418L19.4043-8.03711L20.0684-7.36328L20.0293-6.80664Q20-6.43555 20.1221-6.12305Q20.2441-5.81055 20.6055-5.44922L21.3672-4.70703Q21.7285-4.3457 22.1533-4.33105Q22.5781-4.31641 22.9297-4.66797L25.8398-7.58789Q26.1914-7.93945 26.1816-8.35449Q26.1719-8.76953 25.8105-9.13086L25.0391-9.89258Q24.6875-10.2539 24.3799-10.3857Q24.0723-10.5176 23.7109-10.4883L23.1348-10.4395L22.4902-11.0742L22.7344-12.1973Q22.832-12.6172 22.6953-12.9834Q22.5586-13.3496 22.1191-13.7891L19.9219-15.9766Q18.6719-17.2168 17.2607-17.8369Q15.8496-18.457 14.4189-18.4814Q12.9883-18.5059 11.665-17.959Q10.3418-17.4121 9.25781-16.3281ZM10.752-15.957Q11.6602-16.6211 12.7002-16.9043Q13.7402-17.1875 14.8047-17.085Q15.8691-16.9824 16.8701-16.5137Q17.8711-16.0449 18.7012-15.2051L21.1328-12.793Q21.3086-12.6172 21.3525-12.4512Q21.3965-12.2852 21.3379-12.0312L21.0156-10.5469L22.5195-9.0625L23.5059-9.12109Q23.6914-9.13086 23.7891-9.09668Q23.8867-9.0625 24.0332-8.91602L24.6094-8.33984L22.168-5.89844L21.5918-6.47461Q21.4453-6.62109 21.4062-6.71875Q21.3672-6.81641 21.377-7.01172L21.4453-7.98828L19.9512-9.47266L18.4277-9.21875Q18.1836-9.16992 18.042-9.2041Q17.9004-9.23828 17.7148-9.41406L15.7129-11.416Q15.5176-11.5918 15.4932-11.7529Q15.4688-11.9141 15.5859-12.1875L16.4648-14.2773Q15.293-15.3711 13.8281-15.791Q12.3633-16.2109 10.8398-15.7617Q10.7227-15.7324 10.6885-15.8057Q10.6543-15.8789 10.752-15.957Z"/>
  </g>
  <text style="stroke:none;fill:black;font-family:sans-serif;font-size:13;font-weight:bold;" transform="matrix(1 0 0 1 1289 1953)">Exporting</text>
  <text style="stroke:none;fill:black;font-family:sans-serif;font-size:13;" transform="matrix(1 0 0 1 1289 1971)">Symbols should be outlined when exporting to ensure the</text>
  <text style="stroke:none;fill:black;font-family:sans-serif;font-size:13;" transform="matrix(1 0 0 1 1289 1989)">design is preserved when submitting to Xcode.</text>
  <text id="template-version" style="stroke:none;fill:black;font-family:sans-serif;font-size:13;text-anchor:end;" transform="matrix(1 0 0 1 3036 1933)">Template v.3.0</text>
  <text style="stroke:none;fill:black;font-family:sans-serif;font-size:13;text-anchor:end;" transform="matrix(1 0 0 1 3036 1951)">Requires Xcode 13 or greater</text>
  <text id="descriptive-name" style="stroke:none;fill:black;font-family:sans-serif;font-size:13;text-anchor:end;" transform="matrix(1 0 0 1 3036 1969)">Generated from slack</text>
  <text style="stroke:none;fill:black;font-family:sans-serif;font-size:13;text-anchor:end;" transform="matrix(1 0 0 1 3036 1987)">Typeset at 100 points</text>
  <text style="stroke:none;fill:black;font-family:sans-serif;font-size:13;" transform="matrix(1 0 0 1 263 726)">Small</text>
  <text style="stroke:none;fill:black;font-family:sans-serif;font-size:13;" transform="matrix(1 0 0 1 263 1156)">Medium</text>
  <text style="stroke:none;fill:black;font-family:sans-serif;font-size:13;" transform="matrix(1 0 0 1 263 1586)">Large</text>
 </g>
 <g id="Guides">
  <g id="H-reference" style="fill:#27AAE1;stroke:none;" transform="matrix(1 0 0 1 339 696)">
   <path d="M0.976562 0L3.66211 0L29.3457-67.1387L30.0293-67.1387L30.0293-70.459L28.125-70.459ZM11.6699-24.4629L46.9727-24.4629L46.2402-26.709L12.4512-26.709ZM55.127 0L57.7637 0L30.6152-70.459L29.4434-70.459L29.4434-67.1387Z"/>
  </g>
  <line id="Baseline-S" style="fill:none;stroke:#27AAE1;opacity:1;stroke-width:0.5;" x1="263" x2="3036" y1="696" y2="696"/>
  <line id="Capline-S" style="fill:none;stroke:#27AAE1;opacity:1;stroke-width:0.5;" x1="263" x2="3036" y1="625.541" y2="625.541"/>
  <g id="H-reference" style="fill:#27AAE1;stroke:none;" transform="matrix(1 0 0 1 339 1126)">
   <path d="M0.976562 0L3.66211 0L29.3457-67.1387L30.0293-67.1387L30.0293-70.459L28.125-70.459ZM11.6699-24.4629L46.9727-24.4629L46.2402-26.709L12.4512-26.709ZM55.127 0L57.7637 0L30.6152-70.459L29.4434-70.459L29.4434-67.1387Z"/>
  </g>
  <line id="Baseline-M" style="fill:none;stroke:#27AAE1;opacity:1;stroke-width:0.5;" x1="263" x2="3036" y1="1126" y2="1126"/>
  <line id="Capline-M" style="fill:none;stroke:#27AAE1;opacity:1;stroke-width:0.5;" x1="263" x2="3036" y1="1055.54" y2="1055.54"/>
  <g id="H-reference" style="fill:#27AAE1;stroke:none;" transform="matrix(1 0 0 1 339 1556)">
   <path d="M0.976562 0L3.66211 0L29.3457-67.1387L30.0293-67.1387L30.0293-70.459L28.125-70.459ZM11.6699-24.4629L46.9727-24.4629L46.2402-26.709L12.4512-26.709ZM55.127 0L57.7637 0L30.6152-70.459L29.4434-70.459L29.4434-67.1387Z"/>
  </g>
  <line id="Baseline-L" style="fill:none;stroke:#27AAE1;opacity:1;stroke-width:0.5;" x1="263" x2="3036" y1="1556" y2="1556"/>
  <line id="Capline-L" style="fill:none;stroke:#27AAE1;opacity:1;stroke-width:0.5;" x1="263" x2="3036" y1="1485.54" y2="1485.54"/>
  <line id="left-margin-Regular-M" style="fill:none;stroke:#00AEEF;stroke-width:0.5;opacity:1.0;" x1="1392.45" x2="1392.45" y1="1030.78" y2="1150.12"/>
  <line id="right-margin-Regular-M" style="fill:none;stroke:#00AEEF;stroke-width:0.5;opacity:1.0;" x1="1507.24" x2="1507.24" y1="1030.78" y2="1150.12"/>
 </g>
 <g id="Symbols">
  <g id="Black-L" transform="matrix(1 0 0 1 2860.15 1556)">
   <path d="M77.68 4.58C77.68 0.66 80.85-2.52 84.78-2.52L93.31-2.52C101.95-2.52 108.94 4.47 108.94 13.11C108.94 21.76 101.95 28.74 93.31 28.74C84.66 28.74 77.68 21.76 77.68 13.11L77.68 4.58ZM91.88 11.68L91.88 13.11C91.88 13.91 92.51 14.54 93.31 14.54C94.11 14.54 94.74 13.91 94.74 13.11C94.74 12.31 94.11 11.68 93.31 11.68L91.88 11.68ZM59.18-16.76C58.38-16.76 57.75-16.12 57.75-15.32L57.75 13.11C57.75 13.91 58.38 14.54 59.18 14.54C59.98 14.54 60.61 13.91 60.61 13.11L60.61-15.32C60.61-16.12 59.98-16.76 59.18-16.76ZM43.55-15.32C43.55-23.97 50.54-30.96 59.18-30.96C67.82-30.96 74.81-23.97 74.81-15.32L74.81 13.11C74.81 21.76 67.82 28.74 59.18 28.74C50.54 28.74 43.55 21.76 43.55 13.11L43.55-15.32ZM25.06-16.76C24.26-16.76 23.63-16.12 23.63-15.32C23.63-14.52 24.26-13.89 25.06-13.89C25.86-13.89 26.49-14.52 26.49-15.32L26.49-16.76L25.06-16.76ZM9.43-15.32C9.43-23.97 16.41-30.96 25.06-30.96L33.59-30.96C37.51-30.96 40.69-27.78 40.69-23.86L40.69-15.32C40.69-6.68 33.7 0.31 25.06 0.31C16.41 0.31 9.43-6.68 9.43-15.32ZM93.31-22.44C92.51-22.44 91.88-21.81 91.88-21.01C91.88-20.21 92.51-19.58 93.31-19.58L121.74-19.58C122.54-19.58 123.18-20.21 123.18-21.01C123.18-21.81 122.54-22.44 121.74-22.44L93.31-22.44ZM77.68-21.01C77.68-29.65 84.66-36.64 93.31-36.64L121.74-36.64C130.39-36.64 137.38-29.65 137.38-21.01C137.38-12.37 130.39-5.38 121.74-5.38L93.31-5.38C84.66-5.38 77.68-12.37 77.68-21.01ZM9.43-49.45C9.43-58.09 16.41-65.08 25.06-65.08L53.49-65.08C62.14-65.08 69.13-58.09 69.13-49.45C69.13-40.81 62.14-33.82 53.49-33.82L25.06-33.82C16.41-33.82 9.43-40.81 9.43-49.45ZM25.06-50.88C24.26-50.88 23.63-50.25 23.63-49.45C23.63-48.65 24.26-48.02 25.06-48.02L53.49-48.02C54.29-48.02 54.93-48.65 54.93-49.45C54.93-50.25 54.29-50.88 53.49-50.88L25.06-50.88ZM121.74-56.57C120.94-56.57 120.31-55.94 120.31-55.14L120.31-53.71L121.74-53.71C122.54-53.71 123.18-54.34 123.18-55.14C123.18-55.94 122.54-56.57 121.74-56.57ZM106.11-55.14C106.11-63.78 113.1-70.77 121.74-70.77C130.39-70.77 137.38-63.78 137.38-55.14C137.38-46.49 130.39-39.51 121.74-39.51L113.21-39.51C109.29-39.51 106.11-42.68 106.11-46.61L106.11-55.14ZM87.62-85.01C86.82-85.01 86.19-84.37 86.19-83.57L86.19-55.14C86.19-54.34 86.82-53.71 87.62-53.71C88.42-53.71 89.05-54.34 89.05-55.14L89.05-83.57C89.05-84.37 88.42-85.01 87.62-85.01ZM71.99-83.57C71.99-92.22 78.98-99.21 87.62-99.21C96.26-99.21 103.25-92.22 103.25-83.57L103.25-55.14C103.25-46.49 96.26-39.51 87.62-39.51C78.98-39.51 71.99-46.49 71.99-55.14L71.99-83.57ZM37.86-83.57C37.86-92.22 44.85-99.21 53.49-99.21C62.14-99.21 69.13-92.22 69.13-83.57L69.13-75.04C69.13-71.12 65.95-67.94 62.03-67.94L53.49-67.94C44.85-67.94 37.86-74.93 37.86-83.57ZM53.49-85.01C52.69-85.01 52.06-84.37 52.06-83.57C52.06-82.77 52.69-82.14 53.49-82.14L54.93-82.14L54.93-83.57C54.93-84.37 54.29-85.01 53.49-85.01Z"/>
  </g>
  <g id="Heavy-L" transform="matrix(1 0 0 1 2564.29 1556)">
   <path d="M77.68 4.58C77.68 1.13 80.48-1.67 83.93-1.67L92.46-1.67C100.64-1.67 107.25 4.94 107.25 13.11C107.25 21.29 100.64 27.89 92.46 27.89C84.29 27.89 77.68 21.29 77.68 13.11L77.68 4.58ZM90.18 10.83L90.18 13.11C90.18 14.38 91.2 15.39 92.46 15.39C93.73 15.39 94.75 14.38 94.75 13.11C94.75 11.84 93.73 10.83 92.46 10.83L90.18 10.83ZM58.34-17.61C57.07-17.61 56.06-16.59 56.06-15.32L56.06 13.11C56.06 14.38 57.07 15.39 58.34 15.39C59.61 15.39 60.62 14.38 60.62 13.11L60.62-15.32C60.62-16.59 59.61-17.61 58.34-17.61ZM43.56-15.32C43.56-23.5 50.17-30.11 58.34-30.11C66.51-30.11 73.12-23.5 73.12-15.32L73.12 13.11C73.12 21.29 66.51 27.89 58.34 27.89C50.17 27.89 43.56 21.29 43.56 13.11L43.56-15.32ZM24.21-17.61C22.95-17.61 21.93-16.59 21.93-15.32C21.93-14.06 22.95-13.04 24.21-13.04C25.48-13.04 26.5-14.06 26.5-15.32L26.5-17.61L24.21-17.61ZM9.43-15.32C9.43-23.5 16.04-30.11 24.21-30.11L32.75-30.11C36.2-30.11 39-27.31 39-23.86L39-15.32C39-7.15 32.39-0.54 24.21-0.54C16.04-0.54 9.43-7.15 9.43-15.32ZM92.46-23.29C91.2-23.29 90.18-22.28 90.18-21.01C90.18-19.74 91.2-18.73 92.46-18.73L120.9-18.73C122.17-18.73 123.18-19.74 123.18-21.01C123.18-22.28 122.17-23.29 120.9-23.29L92.46-23.29ZM77.68-21.01C77.68-29.18 84.29-35.79 92.46-35.79L120.9-35.79C129.07-35.79 135.68-29.18 135.68-21.01C135.68-12.84 129.07-6.23 120.9-6.23L92.46-6.23C84.29-6.23 77.68-12.84 77.68-21.01ZM9.43-49.45C9.43-57.62 16.04-64.23 24.21-64.23L52.65-64.23C60.82-64.23 67.43-57.62 67.43-49.45C67.43-41.28 60.82-34.67 52.65-34.67L24.21-34.67C16.04-34.67 9.43-41.28 9.43-49.45ZM24.21-51.73C22.95-51.73 21.93-50.72 21.93-49.45C21.93-48.18 22.95-47.17 24.21-47.17L52.65-47.17C53.92-47.17 54.93-48.18 54.93-49.45C54.93-50.72 53.92-51.73 52.65-51.73L24.21-51.73ZM120.9-57.42C119.63-57.42 118.62-56.41 118.62-55.14L118.62-52.86L120.9-52.86C122.17-52.86 123.18-53.87 123.18-55.14C123.18-56.41 122.17-57.42 120.9-57.42ZM106.12-55.14C106.12-63.31 112.73-69.92 120.9-69.92C129.07-69.92 135.68-63.31 135.68-55.14C135.68-46.96 129.07-40.36 120.9-40.36L112.37-40.36C108.92-40.36 106.12-43.15 106.12-46.61L106.12-55.14ZM86.78-85.86C85.51-85.86 84.5-84.84 84.5-83.57L84.5-55.14C84.5-53.87 85.51-52.86 86.78-52.86C88.05-52.86 89.06-53.87 89.06-55.14L89.06-83.57C89.06-84.84 88.05-85.86 86.78-85.86ZM72-83.57C72-91.75 78.6-98.36 86.78-98.36C94.95-98.36 101.56-91.75 101.56-83.57L101.56-55.14C101.56-46.96 94.95-40.36 86.78-40.36C78.6-40.36 72-46.96 72-55.14L72-83.57ZM37.87-83.57C37.87-91.75 44.48-98.36 52.65-98.36C60.82-98.36 67.43-91.75 67.43-83.57L67.43-75.04C67.43-71.59 64.63-68.79 61.18-68.79L52.65-68.79C44.48-68.79 37.87-75.4 37.87-83.57ZM52.65-85.86C51.38-85.86 50.37-84.84 50.37-83.57C50.37-82.31 51.38-81.29 52.65-81.29L54.93-81.29L54.93-83.57C54.93-84.84 53.92-85.86 52.65-85.86Z"/>
  </g>
  <g id="Bold-L" transform="matrix(1 0 0 1 2268.53 1556)">
   <path d="M77.68 4.58C77.68 1.65 80.05-0.72 82.98-0.72L91.51-0.72C99.16-0.72 105.34 5.46 105.34 13.11C105.34 20.76 99.16 26.94 91.51 26.94C83.86 26.94 77.68 20.76 77.68 13.11L77.68 4.58ZM88.28 9.88L88.28 13.11C88.28 14.91 89.72 16.34 91.51 16.34C93.31 16.34 94.74 14.91 94.74 13.11C94.74 11.32 93.31 9.88 91.51 9.88L88.28 9.88ZM57.39-18.56C55.59-18.56 54.16-17.12 54.16-15.32L54.16 13.11C54.16 14.91 55.59 16.34 57.39 16.34C59.18 16.34 60.62 14.91 60.62 13.11L60.62-15.32C60.62-17.12 59.18-18.56 57.39-18.56ZM43.56-15.32C43.56-22.97 49.74-29.16 57.39-29.16C65.03-29.16 71.22-22.97 71.22-15.32L71.22 13.11C71.22 20.76 65.03 26.94 57.39 26.94C49.74 26.94 43.56 20.76 43.56 13.11L43.56-15.32ZM23.26-18.56C21.47-18.56 20.03-17.12 20.03-15.32C20.03-13.53 21.47-12.09 23.26-12.09C25.06-12.09 26.49-13.53 26.49-15.32L26.49-18.56L23.26-18.56ZM9.43-15.32C9.43-22.97 15.61-29.16 23.26-29.16L31.79-29.16C34.72-29.16 37.09-26.78 37.09-23.86L37.09-15.32C37.09-7.68 30.91-1.49 23.26-1.49C15.61-1.49 9.43-7.68 9.43-15.32ZM91.51-24.24C89.72-24.24 88.28-22.81 88.28-21.01C88.28-19.22 89.72-17.78 91.51-17.78L119.95-17.78C121.74-17.78 123.18-19.22 123.18-21.01C123.18-22.81 121.74-24.24 119.95-24.24L91.51-24.24ZM77.68-21.01C77.68-28.66 83.86-34.84 91.51-34.84L119.95-34.84C127.6-34.84 133.78-28.66 133.78-21.01C133.78-13.36 127.6-7.18 119.95-7.18L91.51-7.18C83.86-7.18 77.68-13.36 77.68-21.01ZM9.43-49.45C9.43-57.1 15.61-63.28 23.26-63.28L51.7-63.28C59.35-63.28 65.53-57.1 65.53-49.45C65.53-41.8 59.35-35.62 51.7-35.62L23.26-35.62C15.61-35.62 9.43-41.8 9.43-49.45ZM23.26-52.68C21.47-52.68 20.03-51.24 20.03-49.45C20.03-47.66 21.47-46.22 23.26-46.22L51.7-46.22C53.49-46.22 54.93-47.66 54.93-49.45C54.93-51.24 53.49-52.68 51.7-52.68L23.26-52.68ZM119.95-58.37C118.16-58.37 116.72-56.93 116.72-55.14L116.72-51.91L119.95-51.91C121.74-51.91 123.18-53.34 123.18-55.14C123.18-56.93 121.74-58.37 119.95-58.37ZM106.12-55.14C106.12-62.79 112.3-68.97 119.95-68.97C127.6-68.97 133.78-62.79 133.78-55.14C133.78-47.49 127.6-41.31 119.95-41.31L111.42-41.31C108.49-41.31 106.12-43.68 106.12-46.61L106.12-55.14ZM85.82-86.81C84.03-86.81 82.59-85.37 82.59-83.57L82.59-55.14C82.59-53.34 84.03-51.91 85.82-51.91C87.62-51.91 89.06-53.34 89.06-55.14L89.06-83.57C89.06-85.37 87.62-86.81 85.82-86.81ZM71.99-83.57C71.99-91.22 78.18-97.41 85.82-97.41C93.47-97.41 99.66-91.22 99.66-83.57L99.66-55.14C99.66-47.49 93.47-41.31 85.82-41.31C78.18-41.31 71.99-47.49 71.99-55.14L71.99-83.57ZM37.87-83.57C37.87-91.22 44.05-97.41 51.7-97.41C59.35-97.41 65.53-91.22 65.53-83.57L65.53-75.04C65.53-72.12 63.16-69.74 60.23-69.74L51.7-69.74C44.05-69.74 37.87-75.93 37.87-83.57ZM51.7-86.81C49.91-86.81 48.47-85.37 48.47-83.57C48.47-81.78 49.91-80.34 51.7-80.34L54.93-80.34L54.93-83.57C54.93-85.37 53.49-86.81 51.7-86.81Z"/>
  </g>
  <g id="Semibold-L" transform="matrix(1 0 0 1 1972.47 1556)">
   <path d="M77.68 4.58C77.68 2.01 79.76-0.07 82.33-0.07L90.86-0.07C98.15-0.07 104.04 5.82 104.04 13.11C104.04 20.4 98.15 26.29 90.86 26.29C83.57 26.29 77.68 20.4 77.68 13.11L77.68 4.58ZM86.98 9.23L86.98 13.11C86.98 15.27 88.7 16.99 90.86 16.99C93.01 16.99 94.74 15.27 94.74 13.11C94.74 10.96 93.01 9.23 90.86 9.23L86.98 9.23ZM56.73-19.21C54.58-19.21 52.85-17.48 52.85-15.32L52.85 13.11C52.85 15.27 54.58 16.99 56.73 16.99C58.88 16.99 60.61 15.27 60.61 13.11L60.61-15.32C60.61-17.48 58.88-19.21 56.73-19.21ZM43.55-15.32C43.55-22.61 49.44-28.51 56.73-28.51C64.02-28.51 69.91-22.61 69.91-15.32L69.91 13.11C69.91 20.4 64.02 26.29 56.73 26.29C49.44 26.29 43.55 20.4 43.55 13.11L43.55-15.32ZM22.61-19.21C20.45-19.21 18.73-17.48 18.73-15.32C18.73-13.17 20.45-11.44 22.61-11.44C24.76-11.44 26.49-13.17 26.49-15.32L26.49-19.21L22.61-19.21ZM9.43-15.32C9.43-22.61 15.32-28.51 22.61-28.51L31.14-28.51C33.71-28.51 35.79-26.42 35.79-23.86L35.79-15.32C35.79-8.04 29.9-2.14 22.61-2.14C15.32-2.14 9.43-8.04 9.43-15.32ZM90.86-24.89C88.7-24.89 86.98-23.16 86.98-21.01C86.98-18.86 88.7-17.13 90.86-17.13L119.29-17.13C121.45-17.13 123.18-18.86 123.18-21.01C123.18-23.16 121.45-24.89 119.29-24.89L90.86-24.89ZM77.68-21.01C77.68-28.3 83.57-34.19 90.86-34.19L119.29-34.19C126.58-34.19 132.48-28.3 132.48-21.01C132.48-13.72 126.58-7.83 119.29-7.83L90.86-7.83C83.57-7.83 77.68-13.72 77.68-21.01ZM9.43-49.45C9.43-56.74 15.32-62.63 22.61-62.63L51.04-62.63C58.33-62.63 64.23-56.74 64.23-49.45C64.23-42.16 58.33-36.27 51.04-36.27L22.61-36.27C15.32-36.27 9.43-42.16 9.43-49.45ZM22.61-53.33C20.45-53.33 18.73-51.6 18.73-49.45C18.73-47.3 20.45-45.57 22.61-45.57L51.04-45.57C53.2-45.57 54.93-47.3 54.93-49.45C54.93-51.6 53.2-53.33 51.04-53.33L22.61-53.33ZM119.29-59.02C117.14-59.02 115.41-57.29 115.41-55.14L115.41-51.26L119.29-51.26C121.45-51.26 123.18-52.98 123.18-55.14C123.18-57.29 121.45-59.02 119.29-59.02ZM106.11-55.14C106.11-62.43 112.01-68.32 119.29-68.32C126.58-68.32 132.48-62.43 132.48-55.14C132.48-47.85 126.58-41.96 119.29-41.96L110.76-41.96C108.19-41.96 106.11-44.04 106.11-46.61L106.11-55.14ZM85.17-87.46C83.02-87.46 81.29-85.73 81.29-83.57L81.29-55.14C81.29-52.98 83.02-51.26 85.17-51.26C87.32-51.26 89.05-52.98 89.05-55.14L89.05-83.57C89.05-85.73 87.32-87.46 85.17-87.46ZM71.99-83.57C71.99-90.86 77.88-96.76 85.17-96.76C92.46-96.76 98.35-90.86 98.35-83.57L98.35-55.14C98.35-47.85 92.46-41.96 85.17-41.96C77.88-41.96 71.99-47.85 71.99-55.14L71.99-83.57ZM37.86-83.57C37.86-90.86 43.76-96.76 51.04-96.76C58.33-96.76 64.23-90.86 64.23-83.57L64.23-75.04C64.23-72.48 62.14-70.39 59.58-70.39L51.04-70.39C43.76-70.39 37.86-76.29 37.86-83.57ZM51.04-87.46C48.89-87.46 47.16-85.73 47.16-83.57C47.16-81.42 48.89-79.69 51.04-79.69L54.93-79.69L54.93-83.57C54.93-85.73 53.2-87.46 51.04-87.46Z"/>
  </g>
  <g id="Medium-L" transform="matrix(1 0 0 1 1676.26 1556)">
   <path d="M77.68 4.58C77.68 2.29 79.53 0.43 81.83 0.43L90.36 0.43C97.37 0.43 103.04 6.1 103.04 13.11C103.04 20.13 97.37 25.79 90.36 25.79C83.34 25.79 77.68 20.13 77.68 13.11L77.68 4.58ZM85.98 8.73L85.98 13.11C85.98 15.54 87.93 17.49 90.36 17.49C92.78 17.49 94.74 15.54 94.74 13.11C94.74 10.68 92.78 8.73 90.36 8.73L85.98 8.73ZM56.23-19.71C53.8-19.71 51.85-17.75 51.85-15.32L51.85 13.11C51.85 15.54 53.8 17.49 56.23 17.49C58.66 17.49 60.61 15.54 60.61 13.11L60.61-15.32C60.61-17.75 58.66-19.71 56.23-19.71ZM43.55-15.32C43.55-22.34 49.22-28.01 56.23-28.01C63.24-28.01 68.91-22.34 68.91-15.32L68.91 13.11C68.91 20.13 63.24 25.79 56.23 25.79C49.22 25.79 43.55 20.13 43.55 13.11L43.55-15.32ZM22.11-19.71C19.68-19.71 17.73-17.75 17.73-15.32C17.73-12.9 19.68-10.94 22.11-10.94C24.53-10.94 26.49-12.9 26.49-15.32L26.49-19.71L22.11-19.71ZM9.43-15.32C9.43-22.34 15.09-28.01 22.11-28.01L30.64-28.01C32.93-28.01 34.79-26.15 34.79-23.86L34.79-15.32C34.79-8.31 29.12-2.64 22.11-2.64C15.09-2.64 9.43-8.31 9.43-15.32ZM90.36-25.39C87.93-25.39 85.98-23.44 85.98-21.01C85.98-18.58 87.93-16.63 90.36-16.63L118.79-16.63C121.22-16.63 123.18-18.58 123.18-21.01C123.18-23.44 121.22-25.39 118.79-25.39L90.36-25.39ZM77.68-21.01C77.68-28.02 83.34-33.69 90.36-33.69L118.79-33.69C125.81-33.69 131.48-28.02 131.48-21.01C131.48-14 125.81-8.33 118.79-8.33L90.36-8.33C83.34-8.33 77.68-14 77.68-21.01ZM9.43-49.45C9.43-56.46 15.09-62.13 22.11-62.13L50.54-62.13C57.56-62.13 63.23-56.46 63.23-49.45C63.23-42.44 57.56-36.77 50.54-36.77L22.11-36.77C15.09-36.77 9.43-42.44 9.43-49.45ZM22.11-53.83C19.68-53.83 17.73-51.88 17.73-49.45C17.73-47.02 19.68-45.07 22.11-45.07L50.54-45.07C52.97-45.07 54.93-47.02 54.93-49.45C54.93-51.88 52.97-53.83 50.54-53.83L22.11-53.83ZM118.79-59.52C116.37-59.52 114.41-57.57 114.41-55.14L114.41-50.76L118.79-50.76C121.22-50.76 123.18-52.71 123.18-55.14C123.18-57.57 121.22-59.52 118.79-59.52ZM106.11-55.14C106.11-62.15 111.78-67.82 118.79-67.82C125.81-67.82 131.48-62.15 131.48-55.14C131.48-48.12 125.81-42.46 118.79-42.46L110.26-42.46C107.97-42.46 106.11-44.31 106.11-46.61L106.11-55.14ZM84.67-87.96C82.24-87.96 80.29-86 80.29-83.57L80.29-55.14C80.29-52.71 82.24-50.76 84.67-50.76C87.1-50.76 89.05-52.71 89.05-55.14L89.05-83.57C89.05-86 87.1-87.96 84.67-87.96ZM71.99-83.57C71.99-90.59 77.66-96.26 84.67-96.26C91.68-96.26 97.35-90.59 97.35-83.57L97.35-55.14C97.35-48.12 91.68-42.46 84.67-42.46C77.66-42.46 71.99-48.12 71.99-55.14L71.99-83.57ZM37.86-83.57C37.86-90.59 43.53-96.26 50.54-96.26C57.56-96.26 63.23-90.59 63.23-83.57L63.23-75.04C63.23-72.75 61.37-70.89 59.08-70.89L50.54-70.89C43.53-70.89 37.86-76.56 37.86-83.57ZM50.54-87.96C48.12-87.96 46.16-86 46.16-83.57C46.16-81.15 48.12-79.19 50.54-79.19L54.93-79.19L54.93-83.57C54.93-86 52.97-87.96 50.54-87.96Z"/>
  </g>
  <g id="Regular-L" transform="matrix(1 0 0 1 1380.19 1556)">
   <path d="M77.69 4.58C77.69 2.65 79.25 1.08 81.19 1.08L89.72 1.08C96.37 1.08 101.75 6.46 101.75 13.11C101.75 19.77 96.37 25.14 89.72 25.14C83.06 25.14 77.69 19.77 77.69 13.11L77.69 4.58ZM84.69 8.08L84.69 13.11C84.69 15.9 86.93 18.14 89.72 18.14C92.5 18.14 94.75 15.9 94.75 13.11C94.75 10.33 92.5 8.08 89.72 8.08L84.69 8.08ZM55.59-20.36C52.8-20.36 50.56-18.11 50.56-15.32L50.56 13.11C50.56 15.9 52.8 18.14 55.59 18.14C58.38 18.14 60.62 15.9 60.62 13.11L60.62-15.32C60.62-18.11 58.38-20.36 55.59-20.36ZM43.56-15.32C43.56-21.98 48.94-27.36 55.59-27.36C62.24-27.36 67.62-21.98 67.62-15.32L67.62 13.11C67.62 19.77 62.24 25.14 55.59 25.14C48.94 25.14 43.56 19.77 43.56 13.11L43.56-15.32ZM21.47-20.36C18.68-20.36 16.43-18.11 16.43-15.32C16.43-12.54 18.68-10.29 21.47-10.29C24.25-10.29 26.5-12.54 26.5-15.32L26.5-20.36L21.47-20.36ZM9.43-15.32C9.43-21.98 14.81-27.36 21.47-27.36L30-27.36C31.93-27.36 33.5-25.79 33.5-23.86L33.5-15.32C33.5-8.67 28.12-3.29 21.47-3.29C14.81-3.29 9.43-8.67 9.43-15.32ZM89.72-26.04C86.93-26.04 84.69-23.8 84.69-21.01C84.69-18.22 86.93-15.98 89.72-15.98L118.15-15.98C120.94-15.98 123.19-18.22 123.19-21.01C123.19-23.8 120.94-26.04 118.15-26.04L89.72-26.04ZM77.69-21.01C77.69-27.67 83.06-33.04 89.72-33.04L118.15-33.04C124.81-33.04 130.19-27.67 130.19-21.01C130.19-14.36 124.81-8.98 118.15-8.98L89.72-8.98C83.06-8.98 77.69-14.36 77.69-21.01ZM9.43-49.45C9.43-56.1 14.81-61.48 21.47-61.48L49.9-61.48C56.56-61.48 61.93-56.1 61.93-49.45C61.93-42.8 56.56-37.42 49.9-37.42L21.47-37.42C14.81-37.42 9.43-42.8 9.43-49.45ZM21.47-54.48C18.68-54.48 16.43-52.24 16.43-49.45C16.43-46.66 18.68-44.42 21.47-44.42L49.9-44.42C52.69-44.42 54.93-46.66 54.93-49.45C54.93-52.24 52.69-54.48 49.9-54.48L21.47-54.48ZM118.15-60.17C115.37-60.17 113.12-57.92 113.12-55.14L113.12-50.11L118.15-50.11C120.94-50.11 123.19-52.35 123.19-55.14C123.19-57.92 120.94-60.17 118.15-60.17ZM106.12-55.14C106.12-61.79 111.5-67.17 118.15-67.17C124.81-67.17 130.19-61.79 130.19-55.14C130.19-48.48 124.81-43.11 118.15-43.11L109.62-43.11C107.69-43.11 106.12-44.67 106.12-46.61L106.12-55.14ZM84.03-88.61C81.24-88.61 79-86.36 79-83.57L79-55.14C79-52.35 81.24-50.11 84.03-50.11C86.82-50.11 89.06-52.35 89.06-55.14L89.06-83.57C89.06-86.36 86.82-88.61 84.03-88.61ZM72-83.57C72-90.23 77.38-95.61 84.03-95.61C90.68-95.61 96.06-90.23 96.06-83.57L96.06-55.14C96.06-48.48 90.68-43.11 84.03-43.11C77.38-43.11 72-48.48 72-55.14L72-83.57ZM37.87-83.57C37.87-90.23 43.25-95.61 49.9-95.61C56.56-95.61 61.93-90.23 61.93-83.57L61.93-75.04C61.93-73.11 60.37-71.54 58.43-71.54L49.9-71.54C43.25-71.54 37.87-76.92 37.87-83.57ZM49.9-88.61C47.12-88.61 44.87-86.36 44.87-83.57C44.87-80.79 47.12-78.54 49.9-78.54L54.93-78.54L54.93-83.57C54.93-86.36 52.69-88.61 49.9-88.61Z"/>
  </g>
  <g id="Light-L" transform="matrix(1 0 0 1 1084.28 1556)">
   <path d="M77.68 4.58C77.68 3.09 78.89 1.88 80.38 1.88L88.92 1.88C95.13 1.88 100.15 6.9 100.15 13.11C100.15 19.33 95.13 24.35 88.92 24.35C82.7 24.35 77.68 19.33 77.68 13.11L77.68 4.58ZM83.08 7.28L83.08 13.11C83.08 16.34 85.69 18.95 88.92 18.95C92.15 18.95 94.75 16.34 94.75 13.11C94.75 9.88 92.15 7.28 88.92 7.28L83.08 7.28ZM54.79-21.15C51.56-21.15 48.96-18.55 48.96-15.32L48.96 13.11C48.96 16.34 51.56 18.95 54.79 18.95C58.02 18.95 60.62 16.34 60.62 13.11L60.62-15.32C60.62-18.55 58.02-21.15 54.79-21.15ZM43.56-15.32C43.56-21.54 48.58-26.55 54.79-26.55C61-26.55 66.02-21.54 66.02-15.32L66.02 13.11C66.02 19.33 61 24.35 54.79 24.35C48.58 24.35 43.56 19.33 43.56 13.11L43.56-15.32ZM20.67-21.15C17.44-21.15 14.83-18.55 14.83-15.32C14.83-12.09 17.44-9.49 20.67-9.49C23.9-9.49 26.5-12.09 26.5-15.32L26.5-21.15L20.67-21.15ZM9.43-15.32C9.43-21.54 14.45-26.55 20.67-26.55L29.2-26.55C30.69-26.55 31.9-25.35 31.9-23.85L31.9-15.32C31.9-9.11 26.88-4.09 20.67-4.09C14.45-4.09 9.43-9.11 9.43-15.32ZM88.92-26.84C85.69-26.84 83.08-24.24 83.08-21.01C83.08-17.78 85.69-15.18 88.92-15.18L117.35-15.18C120.58-15.18 123.18-17.78 123.18-21.01C123.18-24.24 120.58-26.84 117.35-26.84L88.92-26.84ZM77.68-21.01C77.68-27.22 82.7-32.24 88.92-32.24L117.35-32.24C123.57-32.24 128.58-27.22 128.58-21.01C128.58-14.8 123.57-9.78 117.35-9.78L88.92-9.78C82.7-9.78 77.68-14.8 77.68-21.01ZM9.43-49.45C9.43-55.66 14.45-60.68 20.67-60.68L49.1-60.68C55.32-60.68 60.33-55.66 60.33-49.45C60.33-43.24 55.32-38.22 49.1-38.22L20.67-38.22C14.45-38.22 9.43-43.24 9.43-49.45ZM20.67-55.28C17.44-55.28 14.83-52.68 14.83-49.45C14.83-46.22 17.44-43.62 20.67-43.62L49.1-43.62C52.33-43.62 54.93-46.22 54.93-49.45C54.93-52.68 52.33-55.28 49.1-55.28L20.67-55.28ZM117.35-60.97C114.12-60.97 111.52-58.37 111.52-55.14L111.52-49.3L117.35-49.3C120.58-49.3 123.18-51.91 123.18-55.14C123.18-58.37 120.58-60.97 117.35-60.97ZM106.12-55.14C106.12-61.35 111.14-66.37 117.35-66.37C123.57-66.37 128.58-61.35 128.58-55.14C128.58-48.92 123.57-43.9 117.35-43.9L108.82-43.9C107.33-43.9 106.12-45.11 106.12-46.6L106.12-55.14ZM83.23-89.4C80-89.4 77.4-86.8 77.4-83.57L77.4-55.14C77.4-51.91 80-49.3 83.23-49.3C86.46-49.3 89.06-51.91 89.06-55.14L89.06-83.57C89.06-86.8 86.46-89.4 83.23-89.4ZM72-83.57C72-89.79 77.02-94.8 83.23-94.8C89.44-94.8 94.46-89.79 94.46-83.57L94.46-55.14C94.46-48.92 89.44-43.9 83.23-43.9C77.02-43.9 72-48.92 72-55.14L72-83.57ZM37.87-83.57C37.87-89.79 42.89-94.8 49.1-94.8C55.32-94.8 60.33-89.79 60.33-83.57L60.33-75.04C60.33-73.55 59.13-72.34 57.63-72.34L49.1-72.34C42.89-72.34 37.87-77.36 37.87-83.57ZM49.1-89.4C45.87-89.4 43.27-86.8 43.27-83.57C43.27-80.34 45.87-77.74 49.1-77.74L54.93-77.74L54.93-83.57C54.93-86.8 52.33-89.4 49.1-89.4Z"/>
  </g>
  <g id="Thin-L" transform="matrix(1 0 0 1 788.622 1556)">
   <path d="M77.68 4.58C77.68 3.67 78.418 2.93 79.33 2.93L87.861 2.93C93.493 2.93 98.042 7.48 98.042 13.11C98.042 18.74 93.493 23.29 87.861 23.29C82.229 23.29 77.68 18.74 77.68 13.11L77.68 4.58ZM80.98 6.23L80.98 13.11C80.98 16.92 84.052 19.99 87.861 19.99C91.67 19.99 94.742 16.92 94.742 13.11C94.742 9.3 91.67 6.23 87.861 6.23L80.98 6.23ZM53.736-22.21C49.927-22.21 46.855-19.13 46.855-15.32L46.855 13.11C46.855 16.92 49.927 19.99 53.736 19.99C57.545 19.99 60.617 16.92 60.617 13.11L60.617-15.32C60.617-19.13 57.545-22.21 53.736-22.21ZM43.555-15.32C43.555-20.96 48.104-25.51 53.736-25.51C59.368-25.51 63.917-20.96 63.917-15.32L63.917 13.11C63.917 18.74 59.368 23.29 53.736 23.29C48.104 23.29 43.555 18.74 43.555 13.11L43.555-15.32ZM19.611-22.21C15.802-22.21 12.73-19.13 12.73-15.32C12.73-11.52 15.802-8.44 19.611-8.44C23.42-8.44 26.492-11.52 26.492-15.32L26.492-22.21L19.611-22.21ZM9.43-15.32C9.43-20.96 13.979-25.51 19.611-25.51L28.142-25.51C29.053-25.51 29.792-24.77 29.792-23.86L29.792-15.32C29.792-9.69 25.243-5.14 19.611-5.14C13.979-5.14 9.43-9.69 9.43-15.32ZM87.861-27.89C84.052-27.89 80.98-24.82 80.98-21.01C80.98-17.2 84.052-14.13 87.861-14.13L116.298-14.13C120.108-14.13 123.18-17.2 123.18-21.01C123.18-24.82 120.108-27.89 116.298-27.89L87.861-27.89ZM77.68-21.01C77.68-26.64 82.229-31.19 87.861-31.19L116.298-31.19C121.93-31.19 126.48-26.64 126.48-21.01C126.48-15.38 121.93-10.83 116.298-10.83L87.861-10.83C82.229-10.83 77.68-15.38 77.68-21.01ZM9.43-49.45C9.43-55.08 13.979-59.63 19.611-59.63L48.048-59.63C53.68-59.63 58.23-55.08 58.23-49.45C58.23-43.82 53.68-39.27 48.048-39.27L19.611-39.27C13.979-39.27 9.43-43.82 9.43-49.45ZM19.611-56.33C15.802-56.33 12.73-53.26 12.73-49.45C12.73-45.64 15.802-42.57 19.611-42.57L48.048-42.57C51.858-42.57 54.93-45.64 54.93-49.45C54.93-53.26 51.858-56.33 48.048-56.33L19.611-56.33ZM116.298-62.02C112.489-62.02 109.417-58.95 109.417-55.14L109.417-48.26L116.298-48.26C120.108-48.26 123.18-51.33 123.18-55.14C123.18-58.95 120.108-62.02 116.298-62.02ZM106.117-55.14C106.117-60.77 110.666-65.32 116.298-65.32C121.93-65.32 126.48-60.77 126.48-55.14C126.48-49.51 121.93-44.96 116.298-44.96L107.767-44.96C106.856-44.96 106.117-45.69 106.117-46.61L106.117-55.14ZM82.173-90.46C78.364-90.46 75.292-87.38 75.292-83.57L75.292-55.14C75.292-51.33 78.364-48.26 82.173-48.26C85.983-48.26 89.055-51.33 89.055-55.14L89.055-83.57C89.055-87.38 85.983-90.46 82.173-90.46ZM71.992-83.57C71.992-89.21 76.541-93.76 82.173-93.76C87.805-93.76 92.355-89.21 92.355-83.57L92.355-55.14C92.355-49.51 87.805-44.96 82.173-44.96C76.541-44.96 71.992-49.51 71.992-55.14L71.992-83.57ZM37.867-83.57C37.867-89.21 42.416-93.76 48.048-93.76C53.68-93.76 58.23-89.21 58.23-83.57L58.23-75.04C58.23-74.13 57.491-73.39 56.58-73.39L48.048-73.39C42.416-73.39 37.867-77.94 37.867-83.57ZM48.048-90.46C44.239-90.46 41.167-87.38 41.167-83.57C41.167-79.77 44.239-76.69 48.048-76.69L54.93-76.69L54.93-83.57C54.93-87.38 51.858-90.46 48.048-90.46Z"/>
  </g>
  <g id="Ultralight-L" transform="matrix(1 0 0 1 492.461 1556)">
   <path d="M77.68 4.58C77.68 3.97 78.173 3.48 78.78 3.48L87.312 3.48C92.64 3.48 96.943 7.79 96.943 13.11C96.943 18.44 92.64 22.74 87.312 22.74C81.984 22.74 77.68 18.44 77.68 13.11L77.68 4.58ZM79.88 5.68L79.88 13.11C79.88 17.23 83.199 20.54 87.312 20.54C91.425 20.54 94.743 17.23 94.743 13.11C94.743 9 91.425 5.68 87.312 5.68L79.88 5.68ZM53.187-22.76C49.074-22.76 45.755-19.44 45.755-15.32L45.755 13.11C45.755 17.23 49.074 20.54 53.187 20.54C57.3 20.54 60.618 17.23 60.618 13.11L60.618-15.32C60.618-19.44 57.3-22.76 53.187-22.76ZM43.555-15.32C43.555-20.65 47.859-24.96 53.187-24.96C58.515-24.96 62.818-20.65 62.818-15.32L62.818 13.11C62.818 18.44 58.515 22.74 53.187 22.74C47.859 22.74 43.555 18.44 43.555 13.11L43.555-15.32ZM19.062-22.76C14.949-22.76 11.63-19.44 11.63-15.32C11.63-11.21 14.949-7.89 19.062-7.89C23.175-7.89 26.493-11.21 26.493-15.32L26.493-22.76L19.062-22.76ZM9.43-15.32C9.43-20.65 13.734-24.96 19.062-24.96L27.593-24.96C28.2-24.96 28.693-24.46 28.693-23.86L28.693-15.32C28.693-10 24.39-5.69 19.062-5.69C13.734-5.69 9.43-10 9.43-15.32ZM87.312-28.44C83.199-28.44 79.88-25.12 79.88-21.01C79.88-16.9 83.199-13.58 87.312-13.58L115.749-13.58C119.862-13.58 123.18-16.9 123.18-21.01C123.18-25.12 119.862-28.44 115.749-28.44L87.312-28.44ZM77.68-21.01C77.68-26.34 81.984-30.64 87.312-30.64L115.749-30.64C121.077-30.64 125.38-26.34 125.38-21.01C125.38-15.68 121.077-11.38 115.749-11.38L87.312-11.38C81.984-11.38 77.68-15.68 77.68-21.01ZM9.43-49.45C9.43-54.78 13.734-59.08 19.062-59.08L47.499-59.08C52.827-59.08 57.13-54.78 57.13-49.45C57.13-44.12 52.827-39.82 47.499-39.82L19.062-39.82C13.734-39.82 9.43-44.12 9.43-49.45ZM19.062-56.88C14.949-56.88 11.63-53.56 11.63-49.45C11.63-45.34 14.949-42.02 19.062-42.02L47.499-42.02C51.612-42.02 54.93-45.34 54.93-49.45C54.93-53.56 51.612-56.88 47.499-56.88L19.062-56.88ZM115.749-62.57C111.636-62.57 108.318-59.25 108.318-55.14L108.318-47.71L115.749-47.71C119.862-47.71 123.18-51.02 123.18-55.14C123.18-59.25 119.862-62.57 115.749-62.57ZM106.118-55.14C106.118-60.46 110.421-64.77 115.749-64.77C121.077-64.77 125.38-60.46 125.38-55.14C125.38-49.81 121.077-45.51 115.749-45.51L107.218-45.51C106.61-45.51 106.118-46 106.118-46.61L106.118-55.14ZM81.624-91.01C77.511-91.01 74.193-87.69 74.193-83.57L74.193-55.14C74.193-51.02 77.511-47.71 81.624-47.71C85.737-47.71 89.055-51.02 89.055-55.14L89.055-83.57C89.055-87.69 85.737-91.01 81.624-91.01ZM71.993-83.57C71.993-88.9 76.296-93.21 81.624-93.21C86.952-93.21 91.255-88.9 91.255-83.57L91.255-55.14C91.255-49.81 86.952-45.51 81.624-45.51C76.296-45.51 71.993-49.81 71.993-55.14L71.993-83.57ZM37.868-83.57C37.868-88.9 42.171-93.21 47.499-93.21C52.827-93.21 57.13-88.9 57.13-83.57L57.13-75.04C57.13-74.44 56.638-73.94 56.03-73.94L47.499-73.94C42.171-73.94 37.868-78.25 37.868-83.57ZM47.499-91.01C43.386-91.01 40.068-87.69 40.068-83.57C40.068-79.46 43.386-76.14 47.499-76.14L54.93-76.14L54.93-83.57C54.93-87.69 51.612-91.01 47.499-91.01Z"/>
  </g>
  <g id="Black-M" transform="matrix(1 0 0 1 2872.4 1126)">
   <path d="M62.98-3.99C62.98-7.91 66.16-11.09 70.08-11.09L76.77-11.09C84.4-11.09 90.57-4.93 90.57 2.7C90.57 10.33 84.4 16.49 76.77 16.49C69.15 16.49 62.98 10.33 62.98 2.7L62.98-3.99ZM36.2-19.61C36.2-27.24 42.37-33.41 50-33.41C57.62-33.41 63.79-27.24 63.79-19.61L63.79 2.7C63.79 10.33 57.62 16.49 50 16.49C42.37 16.49 36.2 10.33 36.2 2.7L36.2-19.61ZM9.43-19.61C9.43-27.24 15.6-33.41 23.22-33.41L29.92-33.41C33.84-33.41 37.02-30.23 37.02-26.31L37.02-19.61C37.02-11.99 30.85-5.82 23.22-5.82C15.6-5.82 9.43-11.99 9.43-19.61ZM62.98-24.07C62.98-31.7 69.15-37.87 76.77-37.87L99.09-37.87C106.71-37.87 112.88-31.7 112.88-24.07C112.88-16.45 106.71-10.28 99.09-10.28L76.77-10.28C69.15-10.28 62.98-16.45 62.98-24.07ZM9.43-46.39C9.43-54.01 15.6-60.18 23.22-60.18L45.54-60.18C53.16-60.18 59.33-54.01 59.33-46.39C59.33-38.76 53.16-32.59 45.54-32.59L23.22-32.59C15.6-32.59 9.43-38.76 9.43-46.39ZM85.29-50.85C85.29-58.47 91.46-64.64 99.09-64.64C106.71-64.64 112.88-58.47 112.88-50.85C112.88-43.22 106.71-37.06 99.09-37.06L92.39-37.06C88.47-37.06 85.29-40.23 85.29-44.16L85.29-50.85ZM58.52-73.16C58.52-80.79 64.69-86.96 72.31-86.96C79.94-86.96 86.1-80.79 86.1-73.16L86.1-50.85C86.1-43.22 79.94-37.06 72.31-37.06C64.69-37.06 58.52-43.22 58.52-50.85L58.52-73.16ZM31.74-73.16C31.74-80.79 37.91-86.96 45.54-86.96C53.16-86.96 59.33-80.79 59.33-73.16L59.33-66.47C59.33-62.55 56.15-59.37 52.23-59.37L45.54-59.37C37.91-59.37 31.74-65.54 31.74-73.16Z"/>
  </g>
  <g id="Heavy-M" transform="matrix(1 0 0 1 2576.54 1126)">
   <path d="M62.98-3.99C62.98-7.44 65.78-10.24 69.23-10.24L75.92-10.24C83.08-10.24 88.87-4.45 88.87 2.7C88.87 9.86 83.08 15.65 75.92 15.65C68.77 15.65 62.98 9.86 62.98 2.7L62.98-3.99ZM75.48 2.26L75.48 2.7C75.48 2.95 75.67 3.15 75.92 3.15C76.18 3.15 76.37 2.95 76.37 2.7C76.37 2.45 76.18 2.26 75.92 2.26L75.48 2.26ZM49.15-20.05C48.9-20.05 48.7-19.86 48.7-19.61L48.7 2.7C48.7 2.95 48.9 3.15 49.15 3.15C49.4 3.15 49.59 2.95 49.59 2.7L49.59-19.61C49.59-19.86 49.4-20.05 49.15-20.05ZM36.2-19.61C36.2-26.77 41.99-32.55 49.15-32.55C56.3-32.55 62.09-26.77 62.09-19.61L62.09 2.7C62.09 9.86 56.3 15.65 49.15 15.65C41.99 15.65 36.2 9.86 36.2 2.7L36.2-19.61ZM22.37-20.05C22.12-20.05 21.93-19.86 21.93-19.61C21.93-19.36 22.12-19.17 22.37-19.17C22.63-19.17 22.82-19.36 22.82-19.61L22.82-20.05L22.37-20.05ZM9.43-19.61C9.43-26.77 15.22-32.55 22.37-32.55L29.07-32.55C32.52-32.55 35.32-29.76 35.32-26.3L35.32-19.61C35.32-12.46 29.53-6.67 22.37-6.67C15.22-6.67 9.43-12.46 9.43-19.61ZM75.92-24.52C75.67-24.52 75.48-24.33 75.48-24.07C75.48-23.82 75.67-23.63 75.92-23.63L98.24-23.63C98.49-23.63 98.68-23.82 98.68-24.07C98.68-24.33 98.49-24.52 98.24-24.52L75.92-24.52ZM62.98-24.07C62.98-31.23 68.77-37.02 75.92-37.02L98.24-37.02C105.39-37.02 111.18-31.23 111.18-24.07C111.18-16.92 105.39-11.13 98.24-11.13L75.92-11.13C68.77-11.13 62.98-16.92 62.98-24.07ZM9.43-46.39C9.43-53.54 15.22-59.33 22.37-59.33L44.69-59.33C51.84-59.33 57.63-53.54 57.63-46.39C57.63-39.23 51.84-33.44 44.69-33.44L22.37-33.44C15.22-33.44 9.43-39.23 9.43-46.39ZM22.37-46.83C22.12-46.83 21.93-46.64 21.93-46.39C21.93-46.13 22.12-45.94 22.37-45.94L44.69-45.94C44.94-45.94 45.13-46.13 45.13-46.39C45.13-46.64 44.94-46.83 44.69-46.83L22.37-46.83ZM98.24-51.29C97.98-51.29 97.79-51.1 97.79-50.85L97.79-50.41L98.24-50.41C98.49-50.41 98.68-50.6 98.68-50.85C98.68-51.1 98.49-51.29 98.24-51.29ZM85.29-50.85C85.29-58 91.08-63.79 98.24-63.79C105.39-63.79 111.18-58 111.18-50.85C111.18-43.69 105.39-37.91 98.24-37.91L91.54-37.91C88.09-37.91 85.29-40.7 85.29-44.16L85.29-50.85ZM71.46-73.61C71.21-73.61 71.02-73.41 71.02-73.16L71.02-50.85C71.02-50.6 71.21-50.41 71.46-50.41C71.71-50.41 71.9-50.6 71.9-50.85L71.9-73.16C71.9-73.41 71.71-73.61 71.46-73.61ZM58.52-73.16C58.52-80.32 64.31-86.11 71.46-86.11C78.62-86.11 84.4-80.32 84.4-73.16L84.4-50.85C84.4-43.69 78.62-37.91 71.46-37.91C64.31-37.91 58.52-43.69 58.52-50.85L58.52-73.16ZM31.74-73.16C31.74-80.32 37.53-86.11 44.69-86.11C51.84-86.11 57.63-80.32 57.63-73.16L57.63-66.47C57.63-63.02 54.83-60.22 51.38-60.22L44.69-60.22C37.53-60.22 31.74-66.01 31.74-73.16ZM44.69-73.61C44.43-73.61 44.24-73.41 44.24-73.16C44.24-72.91 44.43-72.72 44.69-72.72L45.13-72.72L45.13-73.16C45.13-73.41 44.94-73.61 44.69-73.61Z"/>
  </g>
  <g id="Bold-M" transform="matrix(1 0 0 1 2280.78 1126)">
   <path d="M62.98-3.99C62.98-6.92 65.35-9.29 68.28-9.29L74.97-9.29C81.6-9.29 86.97-3.93 86.97 2.7C86.97 9.33 81.6 14.7 74.97 14.7C68.34 14.7 62.98 9.33 62.98 2.7L62.98-3.99ZM73.58 1.31L73.58 2.7C73.58 3.48 74.2 4.1 74.97 4.1C75.75 4.1 76.37 3.48 76.37 2.7C76.37 1.93 75.75 1.31 74.97 1.31L73.58 1.31ZM48.2-21C47.42-21 46.81-20.39 46.81-19.61L46.81 2.7C46.81 3.48 47.42 4.1 48.2 4.1C48.98 4.1 49.59 3.48 49.59 2.7L49.59-19.61C49.59-20.39 48.98-21 48.2-21ZM36.21-19.61C36.21-26.24 41.57-31.6 48.2-31.6C54.83-31.6 60.19-26.24 60.19-19.61L60.19 2.7C60.19 9.33 54.83 14.7 48.2 14.7C41.57 14.7 36.21 9.33 36.21 2.7L36.21-19.61ZM21.42-21C20.65-21 20.03-20.39 20.03-19.61C20.03-18.83 20.65-18.22 21.42-18.22C22.2-18.22 22.82-18.83 22.82-19.61L22.82-21L21.42-21ZM9.43-19.61C9.43-26.24 14.79-31.6 21.42-31.6L28.12-31.6C31.04-31.6 33.42-29.23 33.42-26.3L33.42-19.61C33.42-12.98 28.06-7.62 21.42-7.62C14.79-7.62 9.43-12.98 9.43-19.61ZM74.97-25.47C74.2-25.47 73.58-24.85 73.58-24.07C73.58-23.3 74.2-22.68 74.97-22.68L97.29-22.68C98.06-22.68 98.68-23.3 98.68-24.07C98.68-24.85 98.06-25.47 97.29-25.47L74.97-25.47ZM62.98-24.07C62.98-30.7 68.34-36.07 74.97-36.07L97.29-36.07C103.92-36.07 109.28-30.7 109.28-24.07C109.28-17.44 103.92-12.08 97.29-12.08L74.97-12.08C68.34-12.08 62.98-17.44 62.98-24.07ZM9.43-46.39C9.43-53.02 14.79-58.38 21.42-58.38L43.74-58.38C50.37-58.38 55.73-53.02 55.73-46.39C55.73-39.75 50.37-34.39 43.74-34.39L21.42-34.39C14.79-34.39 9.43-39.75 9.43-46.39ZM21.42-47.78C20.65-47.78 20.03-47.16 20.03-46.39C20.03-45.61 20.65-44.99 21.42-44.99L43.74-44.99C44.51-44.99 45.13-45.61 45.13-46.39C45.13-47.16 44.51-47.78 43.74-47.78L21.42-47.78ZM97.29-52.24C96.51-52.24 95.89-51.62 95.89-50.85L95.89-49.45L97.29-49.45C98.06-49.45 98.68-50.07 98.68-50.85C98.68-51.62 98.06-52.24 97.29-52.24ZM85.29-50.85C85.29-57.48 90.66-62.84 97.29-62.84C103.92-62.84 109.28-57.48 109.28-50.85C109.28-44.22 103.92-38.85 97.29-38.85L90.59-38.85C87.67-38.85 85.29-41.23 85.29-44.15L85.29-50.85ZM70.51-74.55C69.73-74.55 69.12-73.94 69.12-73.16L69.12-50.85C69.12-50.07 69.73-49.45 70.51-49.45C71.29-49.45 71.91-50.07 71.91-50.85L71.91-73.16C71.91-73.94 71.29-74.55 70.51-74.55ZM58.52-73.16C58.52-79.79 63.88-85.15 70.51-85.15C77.14-85.15 82.51-79.79 82.51-73.16L82.51-50.85C82.51-44.22 77.14-38.85 70.51-38.85C63.88-38.85 58.52-44.22 58.52-50.85L58.52-73.16ZM31.74-73.16C31.74-79.79 37.11-85.15 43.74-85.15C50.37-85.15 55.73-79.79 55.73-73.16L55.73-66.47C55.73-63.54 53.36-61.17 50.43-61.17L43.74-61.17C37.11-61.17 31.74-66.53 31.74-73.16ZM43.74-74.55C42.96-74.55 42.34-73.94 42.34-73.16C42.34-72.38 42.96-71.77 43.74-71.77L45.13-71.77L45.13-73.16C45.13-73.94 44.51-74.55 43.74-74.55Z"/>
  </g>
  <g id="Semibold-M" transform="matrix(1 0 0 1 1984.72 1126)">
   <path d="M62.97-3.99C62.97-6.56 65.06-8.64 67.62-8.64L74.32-8.64C80.59-8.64 85.66-3.57 85.66 2.7C85.66 8.98 80.59 14.05 74.32 14.05C68.05 14.05 62.97 8.98 62.97 2.7L62.97-3.99ZM72.27 0.66L72.27 2.7C72.27 3.84 73.18 4.75 74.32 4.75C75.45 4.75 76.36 3.84 76.36 2.7C76.36 1.57 75.45 0.66 74.32 0.66L72.27 0.66ZM47.54-21.65C46.41-21.65 45.5-20.75 45.5-19.61L45.5 2.7C45.5 3.84 46.41 4.75 47.54 4.75C48.68 4.75 49.59 3.84 49.59 2.7L49.59-19.61C49.59-20.75 48.68-21.65 47.54-21.65ZM36.2-19.61C36.2-25.88 41.27-30.95 47.54-30.95C53.82-30.95 58.89-25.88 58.89-19.61L58.89 2.7C58.89 8.98 53.82 14.05 47.54 14.05C41.27 14.05 36.2 8.98 36.2 2.7L36.2-19.61ZM20.77-21.65C19.63-21.65 18.73-20.75 18.73-19.61C18.73-18.47 19.63-17.57 20.77-17.57C21.9-17.57 22.81-18.47 22.81-19.61L22.81-21.65L20.77-21.65ZM9.43-19.61C9.43-25.88 14.5-30.95 20.77-30.95L27.46-30.95C30.03-30.95 32.11-28.87 32.11-26.3L32.11-19.61C32.11-13.34 27.04-8.27 20.77-8.27C14.5-8.27 9.43-13.34 9.43-19.61ZM74.32-26.12C73.18-26.12 72.27-25.21 72.27-24.07C72.27-22.94 73.18-22.03 74.32-22.03L96.63-22.03C97.77-22.03 98.67-22.94 98.67-24.07C98.67-25.21 97.77-26.12 96.63-26.12L74.32-26.12ZM62.97-24.07C62.97-30.34 68.05-35.42 74.32-35.42L96.63-35.42C102.9-35.42 107.97-30.34 107.97-24.07C107.97-17.8 102.9-12.73 96.63-12.73L74.32-12.73C68.05-12.73 62.97-17.8 62.97-24.07ZM9.43-46.38C9.43-52.66 14.5-57.73 20.77-57.73L43.08-57.73C49.35-57.73 54.43-52.66 54.43-46.38C54.43-40.11 49.35-35.04 43.08-35.04L20.77-35.04C14.5-35.04 9.43-40.11 9.43-46.38ZM20.77-48.43C19.63-48.43 18.73-47.52 18.73-46.38C18.73-45.25 19.63-44.34 20.77-44.34L43.08-44.34C44.22-44.34 45.13-45.25 45.13-46.38C45.13-47.52 44.22-48.43 43.08-48.43L20.77-48.43ZM96.63-52.89C95.5-52.89 94.59-51.98 94.59-50.85L94.59-48.8L96.63-48.8C97.77-48.8 98.67-49.71 98.67-50.85C98.67-51.98 97.77-52.89 96.63-52.89ZM85.29-50.85C85.29-57.12 90.36-62.19 96.63-62.19C102.9-62.19 107.97-57.12 107.97-50.85C107.97-44.58 102.9-39.5 96.63-39.5L89.94-39.5C87.37-39.5 85.29-41.59 85.29-44.15L85.29-50.85ZM69.86-75.2C68.72-75.2 67.81-74.3 67.81-73.16L67.81-50.85C67.81-49.71 68.72-48.8 69.86-48.8C70.99-48.8 71.9-49.71 71.9-50.85L71.9-73.16C71.9-74.3 70.99-75.2 69.86-75.2ZM58.51-73.16C58.51-79.43 63.58-84.5 69.86-84.5C76.13-84.5 81.2-79.43 81.2-73.16L81.2-50.85C81.2-44.58 76.13-39.5 69.86-39.5C63.58-39.5 58.51-44.58 58.51-50.85L58.51-73.16ZM31.74-73.16C31.74-79.43 36.81-84.5 43.08-84.5C49.35-84.5 54.43-79.43 54.43-73.16L54.43-66.47C54.43-63.9 52.34-61.82 49.78-61.82L43.08-61.82C36.81-61.82 31.74-66.89 31.74-73.16ZM43.08-75.2C41.95-75.2 41.04-74.3 41.04-73.16C41.04-72.02 41.95-71.12 43.08-71.12L45.13-71.12L45.13-73.16C45.13-74.3 44.22-75.2 43.08-75.2Z"/>
  </g>
  <g id="Medium-M" transform="matrix(1 0 0 1 1688.51 1126)">
   <path d="M62.97-3.99C62.97-6.28 64.83-8.14 67.12-8.14L73.82-8.14C79.81-8.14 84.66-3.29 84.66 2.7C84.66 8.7 79.81 13.55 73.82 13.55C67.82 13.55 62.97 8.7 62.97 2.7L62.97-3.99ZM71.27 0.16L71.27 2.7C71.27 4.12 72.41 5.25 73.82 5.25C75.23 5.25 76.36 4.12 76.36 2.7C76.36 1.29 75.23 0.16 73.82 0.16L71.27 0.16ZM47.04-22.15C45.63-22.15 44.5-21.02 44.5-19.61L44.5 2.7C44.5 4.12 45.63 5.25 47.04 5.25C48.46 5.25 49.59 4.12 49.59 2.7L49.59-19.61C49.59-21.02 48.46-22.15 47.04-22.15ZM36.2-19.61C36.2-25.61 41.05-30.45 47.04-30.45C53.04-30.45 57.89-25.61 57.89-19.61L57.89 2.7C57.89 8.7 53.04 13.55 47.04 13.55C41.05 13.55 36.2 8.7 36.2 2.7L36.2-19.61ZM20.27-22.15C18.86-22.15 17.73-21.02 17.73-19.61C17.73-18.2 18.86-17.07 20.27-17.07C21.68-17.07 22.81-18.2 22.81-19.61L22.81-22.15L20.27-22.15ZM9.43-19.61C9.43-25.61 14.27-30.45 20.27-30.45L26.96-30.45C29.25-30.45 31.11-28.6 31.11-26.3L31.11-19.61C31.11-13.61 26.26-8.77 20.27-8.77C14.27-8.77 9.43-13.61 9.43-19.61ZM73.82-26.62C72.41-26.62 71.27-25.48 71.27-24.07C71.27-22.66 72.41-21.53 73.82-21.53L96.13-21.53C97.54-21.53 98.67-22.66 98.67-24.07C98.67-25.48 97.54-26.62 96.13-26.62L73.82-26.62ZM62.97-24.07C62.97-30.07 67.82-34.92 73.82-34.92L96.13-34.92C102.13-34.92 106.97-30.07 106.97-24.07C106.97-18.08 102.13-13.23 96.13-13.23L73.82-13.23C67.82-13.23 62.97-18.08 62.97-24.07ZM9.43-46.38C9.43-52.38 14.27-57.23 20.27-57.23L42.58-57.23C48.58-57.23 53.43-52.38 53.43-46.38C53.43-40.39 48.58-35.54 42.58-35.54L20.27-35.54C14.27-35.54 9.43-40.39 9.43-46.38ZM20.27-48.93C18.86-48.93 17.73-47.8 17.73-46.38C17.73-44.97 18.86-43.84 20.27-43.84L42.58-43.84C43.99-43.84 45.13-44.97 45.13-46.38C45.13-47.8 43.99-48.93 42.58-48.93L20.27-48.93ZM96.13-53.39C94.72-53.39 93.59-52.26 93.59-50.85L93.59-48.3L96.13-48.3C97.54-48.3 98.67-49.44 98.67-50.85C98.67-52.26 97.54-53.39 96.13-53.39ZM85.29-50.85C85.29-56.84 90.14-61.69 96.13-61.69C102.13-61.69 106.97-56.84 106.97-50.85C106.97-44.85 102.13-40 96.13-40L89.44-40C87.15-40 85.29-41.86 85.29-44.15L85.29-50.85ZM69.36-75.7C67.94-75.7 66.81-74.57 66.81-73.16L66.81-50.85C66.81-49.44 67.94-48.3 69.36-48.3C70.77-48.3 71.9-49.44 71.9-50.85L71.9-73.16C71.9-74.57 70.77-75.7 69.36-75.7ZM58.51-73.16C58.51-79.16 63.36-84 69.36-84C75.35-84 80.2-79.16 80.2-73.16L80.2-50.85C80.2-44.85 75.35-40 69.36-40C63.36-40 58.51-44.85 58.51-50.85L58.51-73.16ZM31.74-73.16C31.74-79.16 36.59-84 42.58-84C48.58-84 53.43-79.16 53.43-73.16L53.43-66.47C53.43-64.17 51.57-62.32 49.28-62.32L42.58-62.32C36.59-62.32 31.74-67.16 31.74-73.16ZM42.58-75.7C41.17-75.7 40.04-74.57 40.04-73.16C40.04-71.75 41.17-70.62 42.58-70.62L45.13-70.62L45.13-73.16C45.13-74.57 43.99-75.7 42.58-75.7Z"/>
  </g>
  <g id="Regular-M" transform="matrix(1 0 0 1 1392.45 1126)">
   <path d="M62.97-3.99C62.97-5.92 64.54-7.49 66.47-7.49L73.17-7.49C78.81-7.49 83.36-2.93 83.36 2.7C83.36 8.34 78.81 12.9 73.17 12.9C67.53 12.9 62.97 8.34 62.97 2.7L62.97-3.99ZM69.97-0.49L69.97 2.7C69.97 4.47 71.4 5.9 73.17 5.9C74.94 5.9 76.36 4.47 76.36 2.7C76.36 0.93 74.94-0.49 73.17-0.49L69.97-0.49ZM46.39-22.8C44.62-22.8 43.2-21.38 43.2-19.61L43.2 2.7C43.2 4.47 44.62 5.9 46.39 5.9C48.17 5.9 49.59 4.47 49.59 2.7L49.59-19.61C49.59-21.38 48.17-22.8 46.39-22.8ZM36.2-19.61C36.2-25.25 40.76-29.8 46.39-29.8C52.03-29.8 56.59-25.25 56.59-19.61L56.59 2.7C56.59 8.34 52.03 12.9 46.39 12.9C40.76 12.9 36.2 8.34 36.2 2.7L36.2-19.61ZM19.62-22.8C17.85-22.8 16.43-21.38 16.43-19.61C16.43-17.84 17.85-16.42 19.62-16.42C21.39-16.42 22.81-17.84 22.81-19.61L22.81-22.8L19.62-22.8ZM9.43-19.61C9.43-25.25 13.98-29.8 19.62-29.8L26.31-29.8C28.25-29.8 29.81-28.24 29.81-26.3L29.81-19.61C29.81-13.97 25.26-9.42 19.62-9.42C13.98-9.42 9.43-13.97 9.43-19.61ZM73.17-27.27C71.4-27.27 69.97-25.84 69.97-24.07C69.97-22.3 71.4-20.88 73.17-20.88L95.48-20.88C97.25-20.88 98.67-22.3 98.67-24.07C98.67-25.84 97.25-27.27 95.48-27.27L73.17-27.27ZM62.97-24.07C62.97-29.71 67.53-34.27 73.17-34.27L95.48-34.27C101.12-34.27 105.67-29.71 105.67-24.07C105.67-18.44 101.12-13.88 95.48-13.88L73.17-13.88C67.53-13.88 62.97-18.44 62.97-24.07ZM9.43-46.38C9.43-52.02 13.98-56.58 19.62-56.58L41.93-56.58C47.57-56.58 52.13-52.02 52.13-46.38C52.13-40.75 47.57-36.19 41.93-36.19L19.62-36.19C13.98-36.19 9.43-40.75 9.43-46.38ZM19.62-49.58C17.85-49.58 16.43-48.16 16.43-46.38C16.43-44.61 17.85-43.19 19.62-43.19L41.93-43.19C43.7-43.19 45.13-44.61 45.13-46.38C45.13-48.16 43.7-49.58 41.93-49.58L19.62-49.58ZM95.48-54.04C93.71-54.04 92.29-52.62 92.29-50.85L92.29-47.65L95.48-47.65C97.25-47.65 98.67-49.08 98.67-50.85C98.67-52.62 97.25-54.04 95.48-54.04ZM85.29-50.85C85.29-56.48 89.84-61.04 95.48-61.04C101.12-61.04 105.67-56.48 105.67-50.85C105.67-45.21 101.12-40.65 95.48-40.65L88.79-40.65C86.85-40.65 85.29-42.22 85.29-44.15L85.29-50.85ZM68.71-76.35C66.94-76.35 65.51-74.93 65.51-73.16L65.51-50.85C65.51-49.08 66.94-47.65 68.71-47.65C70.48-47.65 71.9-49.08 71.9-50.85L71.9-73.16C71.9-74.93 70.48-76.35 68.71-76.35ZM58.51-73.16C58.51-78.8 63.07-83.35 68.71-83.35C74.34-83.35 78.9-78.8 78.9-73.16L78.9-50.85C78.9-45.21 74.34-40.65 68.71-40.65C63.07-40.65 58.51-45.21 58.51-50.85L58.51-73.16ZM31.74-73.16C31.74-78.8 36.29-83.35 41.93-83.35C47.57-83.35 52.13-78.8 52.13-73.16L52.13-66.47C52.13-64.53 50.56-62.97 48.63-62.97L41.93-62.97C36.29-62.97 31.74-67.52 31.74-73.16ZM41.93-76.35C40.16-76.35 38.74-74.93 38.74-73.16C38.74-71.39 40.16-69.97 41.93-69.97L45.13-69.97L45.13-73.16C45.13-74.93 43.7-76.35 41.93-76.35Z"/>
  </g>
  <g id="Light-M" transform="matrix(1 0 0 1 1096.53 1126)">
   <path d="M62.98-3.99C62.98-5.48 64.19-6.69 65.68-6.69L72.38-6.69C77.57-6.69 81.77-2.49 81.77 2.7C81.77 7.9 77.57 12.1 72.38 12.1C67.18 12.1 62.98 7.9 62.98 2.7L62.98-3.99ZM68.38-1.29L68.38 2.7C68.38 4.92 70.17 6.7 72.38 6.7C74.59 6.7 76.37 4.92 76.37 2.7C76.37 0.49 74.59-1.29 72.38-1.29L68.38-1.29ZM45.6-23.6C43.39-23.6 41.61-21.82 41.61-19.61L41.61 2.7C41.61 4.92 43.39 6.7 45.6 6.7C47.82 6.7 49.6 4.92 49.6 2.7L49.6-19.61C49.6-21.82 47.82-23.6 45.6-23.6ZM36.21-19.61C36.21-24.81 40.41-29 45.6-29C50.8-29 55-24.81 55-19.61L55 2.7C55 7.9 50.8 12.1 45.6 12.1C40.41 12.1 36.21 7.9 36.21 2.7L36.21-19.61ZM18.83-23.6C16.62-23.6 14.83-21.82 14.83-19.61C14.83-17.4 16.62-15.62 18.83-15.62C21.04-15.62 22.82-17.4 22.82-19.61L22.82-23.6L18.83-23.6ZM9.43-19.61C9.43-24.81 13.63-29 18.83-29L25.52-29C27.01-29 28.22-27.8 28.22-26.3L28.22-19.61C28.22-14.42 24.02-10.22 18.83-10.22C13.63-10.22 9.43-14.42 9.43-19.61ZM72.38-28.07C70.17-28.07 68.38-26.29 68.38-24.07C68.38-21.86 70.17-20.08 72.38-20.08L94.69-20.08C96.9-20.08 98.68-21.86 98.68-24.07C98.68-26.29 96.9-28.07 94.69-28.07L72.38-28.07ZM62.98-24.07C62.98-29.27 67.18-33.47 72.38-33.47L94.69-33.47C99.89-33.47 104.08-29.27 104.08-24.07C104.08-18.88 99.89-14.68 94.69-14.68L72.38-14.68C67.18-14.68 62.98-18.88 62.98-24.07ZM9.43-46.39C9.43-51.58 13.63-55.78 18.83-55.78L41.14-55.78C46.34-55.78 50.53-51.58 50.53-46.39C50.53-41.19 46.34-36.99 41.14-36.99L18.83-36.99C13.63-36.99 9.43-41.19 9.43-46.39ZM18.83-50.38C16.62-50.38 14.83-48.6 14.83-46.39C14.83-44.17 16.62-42.39 18.83-42.39L41.14-42.39C43.35-42.39 45.13-44.17 45.13-46.39C45.13-48.6 43.35-50.38 41.14-50.38L18.83-50.38ZM94.69-54.84C92.48-54.84 90.7-53.06 90.7-50.85L90.7-46.85L94.69-46.85C96.9-46.85 98.68-48.63 98.68-50.85C98.68-53.06 96.9-54.84 94.69-54.84ZM85.3-50.85C85.3-56.04 89.5-60.24 94.69-60.24C99.89-60.24 104.08-56.04 104.08-50.85C104.08-45.65 99.89-41.45 94.69-41.45L88-41.45C86.51-41.45 85.3-42.66 85.3-44.15L85.3-50.85ZM67.92-77.15C65.7-77.15 63.92-75.37 63.92-73.16L63.92-50.85C63.92-48.63 65.7-46.85 67.92-46.85C70.13-46.85 71.91-48.63 71.91-50.85L71.91-73.16C71.91-75.37 70.13-77.15 67.92-77.15ZM58.52-73.16C58.52-78.35 62.72-82.55 67.92-82.55C73.11-82.55 77.31-78.35 77.31-73.16L77.31-50.85C77.31-45.65 73.11-41.45 67.92-41.45C62.72-41.45 58.52-45.65 58.52-50.85L58.52-73.16ZM31.75-73.16C31.75-78.35 35.95-82.55 41.14-82.55C46.34-82.55 50.53-78.35 50.53-73.16L50.53-66.47C50.53-64.97 49.33-63.77 47.83-63.77L41.14-63.77C35.95-63.77 31.75-67.96 31.75-73.16ZM41.14-77.15C38.93-77.15 37.15-75.37 37.15-73.16C37.15-70.95 38.93-69.17 41.14-69.17L45.13-69.17L45.13-73.16C45.13-75.37 43.35-77.15 41.14-77.15Z"/>
  </g>
  <g id="Thin-M" transform="matrix(1 0 0 1 800.872 1126)">
   <path d="M62.98-3.99C62.98-4.9 63.719-5.64 64.63-5.64L71.324-5.64C75.939-5.64 79.668-1.91 79.668 2.7C79.668 7.32 75.939 11.05 71.324 11.05C66.709 11.05 62.98 7.32 62.98 2.7L62.98-3.99ZM66.28-2.34L66.28 2.7C66.28 5.5 68.532 7.75 71.324 7.75C74.117 7.75 76.368 5.5 76.368 2.7C76.368-0.09 74.117-2.34 71.324-2.34L66.28-2.34ZM44.549-24.65C41.756-24.65 39.505-22.4 39.505-19.61L39.505 2.7C39.505 5.5 41.756 7.75 44.549 7.75C47.341 7.75 49.592 5.5 49.592 2.7L49.592-19.61C49.592-22.4 47.341-24.65 44.549-24.65ZM36.205-19.61C36.205-24.22 39.934-27.95 44.549-27.95C49.164-27.95 52.892-24.22 52.892-19.61L52.892 2.7C52.892 7.32 49.164 11.05 44.549 11.05C39.934 11.05 36.205 7.32 36.205 2.7L36.205-19.61ZM17.773-24.65C14.981-24.65 12.73-22.4 12.73-19.61C12.73-16.82 14.981-14.57 17.773-14.57C20.566-14.57 22.817-16.82 22.817-19.61L22.817-24.65L17.773-24.65ZM9.43-19.61C9.43-24.22 13.158-27.95 17.773-27.95L24.467-27.95C25.378-27.95 26.117-27.21 26.117-26.3L26.117-19.61C26.117-14.99 22.389-11.27 17.773-11.27C13.158-11.27 9.43-14.99 9.43-19.61ZM71.324-29.12C68.532-29.12 66.28-26.86 66.28-24.07C66.28-21.28 68.532-19.03 71.324-19.03L93.637-19.03C96.429-19.03 98.68-21.28 98.68-24.07C98.68-26.86 96.429-29.12 93.637-29.12L71.324-29.12ZM62.98-24.07C62.98-28.69 66.709-32.42 71.324-32.42L93.637-32.42C98.252-32.42 101.98-28.69 101.98-24.07C101.98-19.46 98.252-15.73 93.637-15.73L71.324-15.73C66.709-15.73 62.98-19.46 62.98-24.07ZM9.43-46.38C9.43-51 13.158-54.73 17.773-54.73L40.086-54.73C44.701-54.73 48.43-51 48.43-46.38C48.43-41.77 44.701-38.04 40.086-38.04L17.773-38.04C13.158-38.04 9.43-41.77 9.43-46.38ZM17.773-51.43C14.981-51.43 12.73-49.18 12.73-46.38C12.73-43.59 14.981-41.34 17.773-41.34L40.086-41.34C42.878-41.34 45.13-43.59 45.13-46.38C45.13-49.18 42.878-51.43 40.086-51.43L17.773-51.43ZM93.637-55.89C90.844-55.89 88.593-53.64 88.593-50.85L88.593-45.8L93.637-45.8C96.429-45.8 98.68-48.06 98.68-50.85C98.68-53.64 96.429-55.89 93.637-55.89ZM85.293-50.85C85.293-55.46 89.021-59.19 93.637-59.19C98.252-59.19 101.98-55.46 101.98-50.85C101.98-46.23 98.252-42.5 93.637-42.5L86.943-42.5C86.032-42.5 85.293-43.24 85.293-44.15L85.293-50.85ZM66.861-78.2C64.069-78.2 61.817-75.95 61.817-73.16L61.817-50.85C61.817-48.06 64.069-45.8 66.861-45.8C69.654-45.8 71.905-48.06 71.905-50.85L71.905-73.16C71.905-75.95 69.654-78.2 66.861-78.2ZM58.517-73.16C58.517-77.78 62.246-81.5 66.861-81.5C71.476-81.5 75.205-77.78 75.205-73.16L75.205-50.85C75.205-46.23 71.476-42.5 66.861-42.5C62.246-42.5 58.517-46.23 58.517-50.85L58.517-73.16ZM31.742-73.16C31.742-77.78 35.471-81.5 40.086-81.5C44.701-81.5 48.43-77.78 48.43-73.16L48.43-66.47C48.43-65.56 47.691-64.82 46.78-64.82L40.086-64.82C35.471-64.82 31.742-68.55 31.742-73.16ZM40.086-78.2C37.293-78.2 35.042-75.95 35.042-73.16C35.042-70.37 37.293-68.12 40.086-68.12L45.13-68.12L45.13-73.16C45.13-75.95 42.878-78.2 40.086-78.2Z"/>
  </g>
  <g id="Ultralight-M" transform="matrix(1 0 0 1 504.711 1126)">
   <path d="M62.98-3.99C62.98-4.6 63.473-5.09 64.08-5.09L70.774-5.09C75.085-5.09 78.568-1.61 78.568 2.7C78.568 7.01 75.085 10.5 70.774 10.5C66.463 10.5 62.98 7.01 62.98 2.7L62.98-3.99ZM65.18-2.89L65.18 2.7C65.18 5.8 67.678 8.3 70.774 8.3C73.87 8.3 76.368 5.8 76.368 2.7C76.368-0.39 73.87-2.89 70.774-2.89L65.18-2.89ZM43.999-25.2C40.902-25.2 38.405-22.71 38.405-19.61L38.405 2.7C38.405 5.8 40.902 8.3 43.999 8.3C47.095 8.3 49.592 5.8 49.592 2.7L49.592-19.61C49.592-22.71 47.095-25.2 43.999-25.2ZM36.205-19.61C36.205-23.92 39.687-27.4 43.999-27.4C48.31-27.4 51.792-23.92 51.792-19.61L51.792 2.7C51.792 7.01 48.31 10.5 43.999 10.5C39.687 10.5 36.205 7.01 36.205 2.7L36.205-19.61ZM17.224-25.2C14.128-25.2 11.63-22.71 11.63-19.61C11.63-16.51 14.128-14.02 17.224-14.02C20.321-14.02 22.818-16.51 22.818-19.61L22.818-25.2L17.224-25.2ZM9.43-19.61C9.43-23.92 12.913-27.4 17.224-27.4L23.918-27.4C24.525-27.4 25.018-26.91 25.018-26.3L25.018-19.61C25.018-15.3 21.536-11.82 17.224-11.82C12.913-11.82 9.43-15.3 9.43-19.61ZM70.774-29.67C67.678-29.67 65.18-27.17 65.18-24.07C65.18-20.98 67.678-18.48 70.774-18.48L93.086-18.48C96.183-18.48 98.68-20.98 98.68-24.07C98.68-27.17 96.183-29.67 93.086-29.67L70.774-29.67ZM62.98-24.07C62.98-28.38 66.463-31.87 70.774-31.87L93.086-31.87C97.398-31.87 100.88-28.38 100.88-24.07C100.88-19.76 97.398-16.28 93.086-16.28L70.774-16.28C66.463-16.28 62.98-19.76 62.98-24.07ZM9.43-46.38C9.43-50.7 12.913-54.18 17.224-54.18L39.537-54.18C43.848-54.18 47.33-50.7 47.33-46.38C47.33-42.07 43.848-38.59 39.537-38.59L17.224-38.59C12.913-38.59 9.43-42.07 9.43-46.38ZM17.224-51.98C14.128-51.98 11.63-49.48 11.63-46.38C11.63-43.29 14.128-40.79 17.224-40.79L39.537-40.79C42.633-40.79 45.13-43.29 45.13-46.38C45.13-49.48 42.633-51.98 39.537-51.98L17.224-51.98ZM93.086-56.44C89.99-56.44 87.493-53.94 87.493-50.85L87.493-45.25L93.086-45.25C96.183-45.25 98.68-47.75 98.68-50.85C98.68-53.94 96.183-56.44 93.086-56.44ZM85.293-50.85C85.293-55.16 88.775-58.64 93.086-58.64C97.398-58.64 100.88-55.16 100.88-50.85C100.88-46.54 97.398-43.05 93.086-43.05L86.393-43.05C85.785-43.05 85.293-43.55 85.293-44.15L85.293-50.85ZM66.311-78.75C63.215-78.75 60.717-76.26 60.717-73.16L60.717-50.85C60.717-47.75 63.215-45.25 66.311-45.25C69.407-45.25 71.905-47.75 71.905-50.85L71.905-73.16C71.905-76.26 69.407-78.75 66.311-78.75ZM58.517-73.16C58.517-77.47 62-80.95 66.311-80.95C70.622-80.95 74.105-77.47 74.105-73.16L74.105-50.85C74.105-46.54 70.622-43.05 66.311-43.05C62-43.05 58.517-46.54 58.517-50.85L58.517-73.16ZM31.743-73.16C31.743-77.47 35.225-80.95 39.537-80.95C43.848-80.95 47.33-77.47 47.33-73.16L47.33-66.47C47.33-65.86 46.838-65.37 46.23-65.37L39.537-65.37C35.225-65.37 31.743-68.85 31.743-73.16ZM39.537-78.75C36.44-78.75 33.943-76.26 33.943-73.16C33.943-70.06 36.44-67.57 39.537-67.57L45.13-67.57L45.13-73.16C45.13-76.26 42.633-78.75 39.537-78.75Z"/>
  </g>
  <g id="Black-S" transform="matrix(1 0 0 1 2882.03 696)">
   <path d="M51.43-10.832C51.43-14.753 54.61-17.932 58.53-17.932L63.78-17.932C70.61-17.932 76.13-12.408 76.13-5.582C76.13 1.245 70.61 6.768 63.78 6.768C56.95 6.768 51.43 1.245 51.43-5.582L51.43-10.832ZM30.43-23.082C30.43-29.908 35.95-35.432 42.78-35.432C49.61-35.432 55.13-29.908 55.13-23.082L55.13-5.582C55.13 1.245 49.61 6.768 42.78 6.768C35.95 6.768 30.43 1.245 30.43-5.582L30.43-23.082ZM9.43-23.082C9.43-29.908 14.95-35.432 21.78-35.432L27.03-35.432C30.95-35.432 34.13-32.253 34.13-28.332L34.13-23.082C34.13-16.255 28.61-10.732 21.78-10.732C14.95-10.732 9.43-16.255 9.43-23.082ZM51.43-26.582C51.43-33.408 56.95-38.932 63.78-38.932L81.28-38.932C88.11-38.932 93.63-33.408 93.63-26.582C93.63-19.755 88.11-14.232 81.28-14.232L63.78-14.232C56.95-14.232 51.43-19.755 51.43-26.582ZM9.43-44.082C9.43-50.908 14.95-56.432 21.78-56.432L39.28-56.432C46.11-56.432 51.63-50.908 51.63-44.082C51.63-37.255 46.11-31.732 39.28-31.732L21.78-31.732C14.95-31.732 9.43-37.255 9.43-44.082ZM68.93-47.582C68.93-54.408 74.45-59.932 81.28-59.932C88.11-59.932 93.63-54.408 93.63-47.582C93.63-40.755 88.11-35.232 81.28-35.232L76.03-35.232C72.11-35.232 68.93-38.41 68.93-42.332L68.93-47.582ZM47.93-65.082C47.93-71.908 53.45-77.432 60.28-77.432C67.11-77.432 72.63-71.908 72.63-65.082L72.63-47.582C72.63-40.755 67.11-35.232 60.28-35.232C53.45-35.232 47.93-40.755 47.93-47.582L47.93-65.082ZM26.93-65.082C26.93-71.908 32.45-77.432 39.28-77.432C46.11-77.432 51.63-71.908 51.63-65.082L51.63-59.832C51.63-55.91 48.45-52.732 44.53-52.732L39.28-52.732C32.45-52.732 26.93-58.255 26.93-65.082Z"/>
  </g>
  <g id="Heavy-S" transform="matrix(1 0 0 1 2586.16 696)">
   <path d="M51.43-10.832C51.43-14.284 54.23-17.082 57.68-17.082L62.93-17.082C69.29-17.082 74.43-11.939 74.43-5.582C74.43 0.775 69.29 5.918 62.93 5.918C56.57 5.918 51.43 0.775 51.43-5.582L51.43-10.832ZM30.43-23.082C30.43-29.439 35.57-34.582 41.93-34.582C48.29-34.582 53.43-29.439 53.43-23.082L53.43-5.582C53.43 0.775 48.29 5.918 41.93 5.918C35.57 5.918 30.43 0.775 30.43-5.582L30.43-23.082ZM9.43-23.082C9.43-29.439 14.57-34.582 20.93-34.582L26.18-34.582C29.63-34.582 32.43-31.784 32.43-28.332L32.43-23.082C32.43-16.725 27.29-11.582 20.93-11.582C14.57-11.582 9.43-16.725 9.43-23.082ZM51.43-26.582C51.43-32.939 56.57-38.082 62.93-38.082L80.43-38.082C86.79-38.082 91.93-32.939 91.93-26.582C91.93-20.225 86.79-15.082 80.43-15.082L62.93-15.082C56.57-15.082 51.43-20.225 51.43-26.582ZM9.43-44.082C9.43-50.439 14.57-55.582 20.93-55.582L38.43-55.582C44.79-55.582 49.93-50.439 49.93-44.082C49.93-37.725 44.79-32.582 38.43-32.582L20.93-32.582C14.57-32.582 9.43-37.725 9.43-44.082ZM68.93-47.582C68.93-53.939 74.07-59.082 80.43-59.082C86.79-59.082 91.93-53.939 91.93-47.582C91.93-41.225 86.79-36.082 80.43-36.082L75.18-36.082C71.73-36.082 68.93-38.88 68.93-42.332L68.93-47.582ZM47.93-65.082C47.93-71.439 53.07-76.582 59.43-76.582C65.79-76.582 70.93-71.439 70.93-65.082L70.93-47.582C70.93-41.225 65.79-36.082 59.43-36.082C53.07-36.082 47.93-41.225 47.93-47.582L47.93-65.082ZM26.93-65.082C26.93-71.439 32.07-76.582 38.43-76.582C44.79-76.582 49.93-71.439 49.93-65.082L49.93-59.832C49.93-56.38 47.13-53.582 43.68-53.582L38.43-53.582C32.07-53.582 26.93-58.725 26.93-65.082Z"/>
  </g>
  <g id="Bold-S" transform="matrix(1 0 0 1 2290.4 696)">
   <path d="M51.43-10.628C51.43-13.555 53.8-15.928 56.73-15.928L61.98-15.928C67.81-15.928 72.53-11.21 72.53-5.378C72.53 0.454 67.81 5.172 61.98 5.172C56.14 5.172 51.43 0.454 51.43-5.378L51.43-10.628ZM30.43-22.878C30.43-28.71 35.14-33.428 40.98-33.428C46.81-33.428 51.53-28.71 51.53-22.878L51.53-5.378C51.53 0.454 46.81 5.172 40.98 5.172C35.14 5.172 30.43 0.454 30.43-5.378L30.43-22.878ZM9.43-22.878C9.43-28.71 14.14-33.428 19.98-33.428L25.23-33.428C28.15-33.428 30.53-31.055 30.53-28.128L30.53-22.878C30.53-17.046 25.81-12.328 19.98-12.328C14.14-12.328 9.43-17.046 9.43-22.878ZM51.43-26.378C51.43-32.21 56.14-36.928 61.98-36.928L79.48-36.928C85.31-36.928 90.03-32.21 90.03-26.378C90.03-20.546 85.31-15.828 79.48-15.828L61.98-15.828C56.14-15.828 51.43-20.546 51.43-26.378ZM9.43-43.878C9.43-49.71 14.14-54.428 19.98-54.428L37.48-54.428C43.31-54.428 48.03-49.71 48.03-43.878C48.03-38.046 43.31-33.328 37.48-33.328L19.98-33.328C14.14-33.328 9.43-38.046 9.43-43.878ZM68.93-47.378C68.93-53.21 73.64-57.928 79.48-57.928C85.31-57.928 90.03-53.21 90.03-47.378C90.03-41.546 85.31-36.828 79.48-36.828L74.23-36.828C71.3-36.828 68.93-39.201 68.93-42.128L68.93-47.378ZM47.93-64.878C47.93-70.71 52.64-75.428 58.48-75.428C64.31-75.428 69.03-70.71 69.03-64.878L69.03-47.378C69.03-41.546 64.31-36.828 58.48-36.828C52.64-36.828 47.93-41.546 47.93-47.378L47.93-64.878ZM26.93-64.878C26.93-70.71 31.64-75.428 37.48-75.428C43.31-75.428 48.03-70.71 48.03-64.878L48.03-59.628C48.03-56.701 45.65-54.328 42.73-54.328L37.48-54.328C31.64-54.328 26.93-59.046 26.93-64.878Z"/>
  </g>
  <g id="Semibold-S" transform="matrix(1 0 0 1 1994.34 696)">
   <path d="M51.43-10.627C51.43-13.195 53.51-15.277 56.08-15.277L61.33-15.277C66.8-15.277 71.23-10.85 71.23-5.377C71.23 0.096 66.8 4.523 61.33 4.523C55.86 4.523 51.43 0.096 51.43-5.377L51.43-10.627ZM60.73-5.977L60.73-5.377C60.73-5.04 60.99-4.777 61.33-4.777C61.67-4.777 61.93-5.04 61.93-5.377C61.93-5.714 61.67-5.977 61.33-5.977L60.73-5.977ZM40.33-23.477C39.99-23.477 39.73-23.214 39.73-22.877L39.73-5.377C39.73-5.04 39.99-4.777 40.33-4.777C40.67-4.777 40.93-5.04 40.93-5.377L40.93-22.877C40.93-23.214 40.67-23.477 40.33-23.477ZM30.43-22.877C30.43-28.35 34.86-32.777 40.33-32.777C45.8-32.777 50.23-28.35 50.23-22.877L50.23-5.377C50.23 0.096 45.8 4.523 40.33 4.523C34.86 4.523 30.43 0.096 30.43-5.377L30.43-22.877ZM19.33-23.477C18.99-23.477 18.73-23.214 18.73-22.877C18.73-22.54 18.99-22.277 19.33-22.277C19.67-22.277 19.93-22.54 19.93-22.877L19.93-23.477L19.33-23.477ZM9.43-22.877C9.43-28.35 13.86-32.777 19.33-32.777L24.58-32.777C27.15-32.777 29.23-30.695 29.23-28.127L29.23-22.877C29.23-17.404 24.8-12.977 19.33-12.977C13.86-12.977 9.43-17.404 9.43-22.877ZM61.33-26.977C60.99-26.977 60.73-26.714 60.73-26.377C60.73-26.04 60.99-25.777 61.33-25.777L78.83-25.777C79.17-25.777 79.43-26.04 79.43-26.377C79.43-26.714 79.17-26.977 78.83-26.977L61.33-26.977ZM51.43-26.377C51.43-31.85 55.86-36.277 61.33-36.277L78.83-36.277C84.3-36.277 88.73-31.85 88.73-26.377C88.73-20.904 84.3-16.477 78.83-16.477L61.33-16.477C55.86-16.477 51.43-20.904 51.43-26.377ZM9.43-43.877C9.43-49.35 13.86-53.777 19.33-53.777L36.83-53.777C42.3-53.777 46.73-49.35 46.73-43.877C46.73-38.404 42.3-33.977 36.83-33.977L19.33-33.977C13.86-33.977 9.43-38.404 9.43-43.877ZM19.33-44.477C18.99-44.477 18.73-44.214 18.73-43.877C18.73-43.54 18.99-43.277 19.33-43.277L36.83-43.277C37.17-43.277 37.43-43.54 37.43-43.877C37.43-44.214 37.17-44.477 36.83-44.477L19.33-44.477ZM78.83-47.977C78.49-47.977 78.23-47.714 78.23-47.377L78.23-46.777L78.83-46.777C79.17-46.777 79.43-47.04 79.43-47.377C79.43-47.714 79.17-47.977 78.83-47.977ZM68.93-47.377C68.93-52.85 73.36-57.277 78.83-57.277C84.3-57.277 88.73-52.85 88.73-47.377C88.73-41.904 84.3-37.477 78.83-37.477L73.58-37.477C71.01-37.477 68.93-39.559 68.93-42.127L68.93-47.377ZM57.83-65.477C57.49-65.477 57.23-65.214 57.23-64.877L57.23-47.377C57.23-47.04 57.49-46.777 57.83-46.777C58.17-46.777 58.43-47.04 58.43-47.377L58.43-64.877C58.43-65.214 58.17-65.477 57.83-65.477ZM47.93-64.877C47.93-70.35 52.36-74.777 57.83-74.777C63.3-74.777 67.73-70.35 67.73-64.877L67.73-47.377C67.73-41.904 63.3-37.477 57.83-37.477C52.36-37.477 47.93-41.904 47.93-47.377L47.93-64.877ZM26.93-64.877C26.93-70.35 31.36-74.777 36.83-74.777C42.3-74.777 46.73-70.35 46.73-64.877L46.73-59.627C46.73-57.059 44.65-54.977 42.08-54.977L36.83-54.977C31.36-54.977 26.93-59.404 26.93-64.877ZM36.83-65.477C36.49-65.477 36.23-65.214 36.23-64.877C36.23-64.54 36.49-64.277 36.83-64.277L37.43-64.277L37.43-64.877C37.43-65.214 37.17-65.477 36.83-65.477Z"/>
  </g>
  <g id="Medium-S" transform="matrix(1 0 0 1 1698.13 696)">
   <path d="M51.43-10.627C51.43-12.919 53.29-14.777 55.58-14.777L60.83-14.777C66.03-14.777 70.23-10.574 70.23-5.377C70.23-0.18 66.03 4.023 60.83 4.023C55.63 4.023 51.43-0.18 51.43-5.377L51.43-10.627ZM59.73-6.477L59.73-5.377C59.73-4.764 60.22-4.277 60.83-4.277C61.44-4.277 61.93-4.764 61.93-5.377C61.93-5.99 61.44-6.477 60.83-6.477L59.73-6.477ZM39.83-23.977C39.22-23.977 38.73-23.49 38.73-22.877L38.73-5.377C38.73-4.764 39.22-4.277 39.83-4.277C40.44-4.277 40.93-4.764 40.93-5.377L40.93-22.877C40.93-23.49 40.44-23.977 39.83-23.977ZM30.43-22.877C30.43-28.074 34.63-32.277 39.83-32.277C45.03-32.277 49.23-28.074 49.23-22.877L49.23-5.377C49.23-0.18 45.03 4.023 39.83 4.023C34.63 4.023 30.43-0.18 30.43-5.377L30.43-22.877ZM18.83-23.977C18.22-23.977 17.73-23.49 17.73-22.877C17.73-22.264 18.22-21.777 18.83-21.777C19.44-21.777 19.93-22.264 19.93-22.877L19.93-23.977L18.83-23.977ZM9.43-22.877C9.43-28.074 13.63-32.277 18.83-32.277L24.08-32.277C26.37-32.277 28.23-30.419 28.23-28.127L28.23-22.877C28.23-17.68 24.03-13.477 18.83-13.477C13.63-13.477 9.43-17.68 9.43-22.877ZM60.83-27.477C60.22-27.477 59.73-26.99 59.73-26.377C59.73-25.764 60.22-25.277 60.83-25.277L78.33-25.277C78.94-25.277 79.43-25.764 79.43-26.377C79.43-26.99 78.94-27.477 78.33-27.477L60.83-27.477ZM51.43-26.377C51.43-31.574 55.63-35.777 60.83-35.777L78.33-35.777C83.53-35.777 87.73-31.574 87.73-26.377C87.73-21.18 83.53-16.977 78.33-16.977L60.83-16.977C55.63-16.977 51.43-21.18 51.43-26.377ZM9.43-43.877C9.43-49.074 13.63-53.277 18.83-53.277L36.33-53.277C41.53-53.277 45.73-49.074 45.73-43.877C45.73-38.68 41.53-34.477 36.33-34.477L18.83-34.477C13.63-34.477 9.43-38.68 9.43-43.877ZM18.83-44.977C18.22-44.977 17.73-44.49 17.73-43.877C17.73-43.264 18.22-42.777 18.83-42.777L36.33-42.777C36.94-42.777 37.43-43.264 37.43-43.877C37.43-44.49 36.94-44.977 36.33-44.977L18.83-44.977ZM78.33-48.477C77.72-48.477 77.23-47.99 77.23-47.377L77.23-46.277L78.33-46.277C78.94-46.277 79.43-46.764 79.43-47.377C79.43-47.99 78.94-48.477 78.33-48.477ZM68.93-47.377C68.93-52.574 73.13-56.777 78.33-56.777C83.53-56.777 87.73-52.574 87.73-47.377C87.73-42.18 83.53-37.977 78.33-37.977L73.08-37.977C70.79-37.977 68.93-39.835 68.93-42.127L68.93-47.377ZM57.33-65.977C56.72-65.977 56.23-65.49 56.23-64.877L56.23-47.377C56.23-46.764 56.72-46.277 57.33-46.277C57.94-46.277 58.43-46.764 58.43-47.377L58.43-64.877C58.43-65.49 57.94-65.977 57.33-65.977ZM47.93-64.877C47.93-70.074 52.13-74.277 57.33-74.277C62.53-74.277 66.73-70.074 66.73-64.877L66.73-47.377C66.73-42.18 62.53-37.977 57.33-37.977C52.13-37.977 47.93-42.18 47.93-47.377L47.93-64.877ZM26.93-64.877C26.93-70.074 31.13-74.277 36.33-74.277C41.53-74.277 45.73-70.074 45.73-64.877L45.73-59.627C45.73-57.335 43.87-55.477 41.58-55.477L36.33-55.477C31.13-55.477 26.93-59.68 26.93-64.877ZM36.33-65.977C35.72-65.977 35.23-65.49 35.23-64.877C35.23-64.264 35.72-63.777 36.33-63.777L37.43-63.777L37.43-64.877C37.43-65.49 36.94-65.977 36.33-65.977Z"/>
  </g>
  <g id="Regular-S" transform="matrix(1 0 0 1 1402.07 696)">
   <path d="M51.43-10.627C51.43-12.56 53-14.127 54.93-14.127L60.18-14.127C65.02-14.127 68.93-10.215 68.93-5.377C68.93-0.539 65.02 3.373 60.18 3.373C55.34 3.373 51.43-0.539 51.43-5.377L51.43-10.627ZM58.43-7.127L58.43-5.377C58.43-4.405 59.21-3.627 60.18-3.627C61.15-3.627 61.93-4.405 61.93-5.377C61.93-6.349 61.15-7.127 60.18-7.127L58.43-7.127ZM39.18-24.627C38.21-24.627 37.43-23.849 37.43-22.877L37.43-5.377C37.43-4.405 38.21-3.627 39.18-3.627C40.15-3.627 40.93-4.405 40.93-5.377L40.93-22.877C40.93-23.849 40.15-24.627 39.18-24.627ZM30.43-22.877C30.43-27.715 34.34-31.627 39.18-31.627C44.02-31.627 47.93-27.715 47.93-22.877L47.93-5.377C47.93-0.539 44.02 3.373 39.18 3.373C34.34 3.373 30.43-0.539 30.43-5.377L30.43-22.877ZM18.18-24.627C17.21-24.627 16.43-23.849 16.43-22.877C16.43-21.905 17.21-21.127 18.18-21.127C19.15-21.127 19.93-21.905 19.93-22.877L19.93-24.627L18.18-24.627ZM9.43-22.877C9.43-27.715 13.34-31.627 18.18-31.627L23.43-31.627C25.36-31.627 26.93-30.06 26.93-28.127L26.93-22.877C26.93-18.039 23.02-14.127 18.18-14.127C13.34-14.127 9.43-18.039 9.43-22.877ZM60.18-28.127C59.21-28.127 58.43-27.349 58.43-26.377C58.43-25.405 59.21-24.627 60.18-24.627L77.68-24.627C78.65-24.627 79.43-25.405 79.43-26.377C79.43-27.349 78.65-28.127 77.68-28.127L60.18-28.127ZM51.43-26.377C51.43-31.215 55.34-35.127 60.18-35.127L77.68-35.127C82.52-35.127 86.43-31.215 86.43-26.377C86.43-21.539 82.52-17.627 77.68-17.627L60.18-17.627C55.34-17.627 51.43-21.539 51.43-26.377ZM9.43-43.877C9.43-48.715 13.34-52.627 18.18-52.627L35.68-52.627C40.52-52.627 44.43-48.715 44.43-43.877C44.43-39.039 40.52-35.127 35.68-35.127L18.18-35.127C13.34-35.127 9.43-39.039 9.43-43.877ZM18.18-45.627C17.21-45.627 16.43-44.849 16.43-43.877C16.43-42.905 17.21-42.127 18.18-42.127L35.68-42.127C36.65-42.127 37.43-42.905 37.43-43.877C37.43-44.849 36.65-45.627 35.68-45.627L18.18-45.627ZM77.68-49.127C76.71-49.127 75.93-48.349 75.93-47.377L75.93-45.627L77.68-45.627C78.65-45.627 79.43-46.405 79.43-47.377C79.43-48.349 78.65-49.127 77.68-49.127ZM68.93-47.377C68.93-52.215 72.84-56.127 77.68-56.127C82.52-56.127 86.43-52.215 86.43-47.377C86.43-42.539 82.52-38.627 77.68-38.627L72.43-38.627C70.5-38.627 68.93-40.194 68.93-42.127L68.93-47.377ZM56.68-66.627C55.71-66.627 54.93-65.849 54.93-64.877L54.93-47.377C54.93-46.405 55.71-45.627 56.68-45.627C57.65-45.627 58.43-46.405 58.43-47.377L58.43-64.877C58.43-65.849 57.65-66.627 56.68-66.627ZM47.93-64.877C47.93-69.715 51.84-73.627 56.68-73.627C61.52-73.627 65.43-69.715 65.43-64.877L65.43-47.377C65.43-42.539 61.52-38.627 56.68-38.627C51.84-38.627 47.93-42.539 47.93-47.377L47.93-64.877ZM26.93-64.877C26.93-69.715 30.84-73.627 35.68-73.627C40.52-73.627 44.43-69.715 44.43-64.877L44.43-59.627C44.43-57.694 42.86-56.127 40.93-56.127L35.68-56.127C30.84-56.127 26.93-60.039 26.93-64.877ZM35.68-66.627C34.71-66.627 33.93-65.849 33.93-64.877C33.93-63.905 34.71-63.127 35.68-63.127L37.43-63.127L37.43-64.877C37.43-65.849 36.65-66.627 35.68-66.627Z"/>
  </g>
  <g id="Light-S" transform="matrix(1 0 0 1 1106.16 696)">
   <path d="M51.43-10.626C51.43-12.117 52.64-13.326 54.13-13.326L59.38-13.326C63.78-13.326 67.33-9.772 67.33-5.376C67.33-0.98 63.78 2.574 59.38 2.574C54.98 2.574 51.43-0.98 51.43-5.376L51.43-10.626ZM56.83-7.926L56.83-5.376C56.83-3.962 57.97-2.826 59.38-2.826C60.79-2.826 61.93-3.962 61.93-5.376C61.93-6.79 60.79-7.926 59.38-7.926L56.83-7.926ZM38.38-25.426C36.97-25.426 35.83-24.29 35.83-22.876L35.83-5.376C35.83-3.962 36.97-2.826 38.38-2.826C39.79-2.826 40.93-3.962 40.93-5.376L40.93-22.876C40.93-24.29 39.79-25.426 38.38-25.426ZM30.43-22.876C30.43-27.272 33.98-30.826 38.38-30.826C42.78-30.826 46.33-27.272 46.33-22.876L46.33-5.376C46.33-0.98 42.78 2.574 38.38 2.574C33.98 2.574 30.43-0.98 30.43-5.376L30.43-22.876ZM17.38-25.426C15.97-25.426 14.83-24.29 14.83-22.876C14.83-21.462 15.97-20.326 17.38-20.326C18.79-20.326 19.93-21.462 19.93-22.876L19.93-25.426L17.38-25.426ZM9.43-22.876C9.43-27.272 12.98-30.826 17.38-30.826L22.63-30.826C24.12-30.826 25.33-29.617 25.33-28.126L25.33-22.876C25.33-18.48 21.78-14.926 17.38-14.926C12.98-14.926 9.43-18.48 9.43-22.876ZM59.38-28.926C57.97-28.926 56.83-27.79 56.83-26.376C56.83-24.962 57.97-23.826 59.38-23.826L76.88-23.826C78.29-23.826 79.43-24.962 79.43-26.376C79.43-27.79 78.29-28.926 76.88-28.926L59.38-28.926ZM51.43-26.376C51.43-30.772 54.98-34.326 59.38-34.326L76.88-34.326C81.28-34.326 84.83-30.772 84.83-26.376C84.83-21.98 81.28-18.426 76.88-18.426L59.38-18.426C54.98-18.426 51.43-21.98 51.43-26.376ZM9.43-43.876C9.43-48.272 12.98-51.826 17.38-51.826L34.88-51.826C39.28-51.826 42.83-48.272 42.83-43.876C42.83-39.48 39.28-35.926 34.88-35.926L17.38-35.926C12.98-35.926 9.43-39.48 9.43-43.876ZM17.38-46.426C15.97-46.426 14.83-45.29 14.83-43.876C14.83-42.462 15.97-41.326 17.38-41.326L34.88-41.326C36.29-41.326 37.43-42.462 37.43-43.876C37.43-45.29 36.29-46.426 34.88-46.426L17.38-46.426ZM76.88-49.926C75.47-49.926 74.33-48.79 74.33-47.376L74.33-44.826L76.88-44.826C78.29-44.826 79.43-45.962 79.43-47.376C79.43-48.79 78.29-49.926 76.88-49.926ZM68.93-47.376C68.93-51.772 72.48-55.326 76.88-55.326C81.28-55.326 84.83-51.772 84.83-47.376C84.83-42.98 81.28-39.426 76.88-39.426L71.63-39.426C70.14-39.426 68.93-40.635 68.93-42.126L68.93-47.376ZM55.88-67.426C54.47-67.426 53.33-66.29 53.33-64.876L53.33-47.376C53.33-45.962 54.47-44.826 55.88-44.826C57.29-44.826 58.43-45.962 58.43-47.376L58.43-64.876C58.43-66.29 57.29-67.426 55.88-67.426ZM47.93-64.876C47.93-69.272 51.48-72.826 55.88-72.826C60.28-72.826 63.83-69.272 63.83-64.876L63.83-47.376C63.83-42.98 60.28-39.426 55.88-39.426C51.48-39.426 47.93-42.98 47.93-47.376L47.93-64.876ZM26.93-64.876C26.93-69.272 30.48-72.826 34.88-72.826C39.28-72.826 42.83-69.272 42.83-64.876L42.83-59.626C42.83-58.135 41.62-56.926 40.13-56.926L34.88-56.926C30.48-56.926 26.93-60.48 26.93-64.876ZM34.88-67.426C33.47-67.426 32.33-66.29 32.33-64.876C32.33-63.462 33.47-62.326 34.88-62.326L37.43-62.326L37.43-64.876C37.43-66.29 36.29-67.426 34.88-67.426Z"/>
  </g>
  <g id="Thin-S" transform="matrix(1 0 0 1 810.497 696)">
   <path d="M51.43-10.627C51.43-11.539 52.168-12.277 53.08-12.277L58.33-12.277C62.146-12.277 65.23-9.194 65.23-5.377C65.23-1.561 62.146 1.523 58.33 1.523C54.513 1.523 51.43-1.561 51.43-5.377L51.43-10.627ZM54.73-8.977L54.73-5.377C54.73-3.384 56.336-1.777 58.33-1.777C60.323-1.777 61.93-3.384 61.93-5.377C61.93-7.371 60.323-8.977 58.33-8.977L54.73-8.977ZM37.33-26.477C35.336-26.477 33.73-24.871 33.73-22.877L33.73-5.377C33.73-3.384 35.336-1.777 37.33-1.777C39.323-1.777 40.93-3.384 40.93-5.377L40.93-22.877C40.93-24.871 39.323-26.477 37.33-26.477ZM30.43-22.877C30.43-26.694 33.513-29.777 37.33-29.777C41.146-29.777 44.23-26.694 44.23-22.877L44.23-5.377C44.23-1.561 41.146 1.523 37.33 1.523C33.513 1.523 30.43-1.561 30.43-5.377L30.43-22.877ZM16.33-26.477C14.336-26.477 12.73-24.871 12.73-22.877C12.73-20.884 14.336-19.277 16.33-19.277C18.323-19.277 19.93-20.884 19.93-22.877L19.93-26.477L16.33-26.477ZM9.43-22.877C9.43-26.694 12.513-29.777 16.33-29.777L21.58-29.777C22.491-29.777 23.23-29.039 23.23-28.127L23.23-22.877C23.23-19.061 20.146-15.977 16.33-15.977C12.513-15.977 9.43-19.061 9.43-22.877ZM58.33-29.977C56.336-29.977 54.73-28.371 54.73-26.377C54.73-24.384 56.336-22.777 58.33-22.777L75.83-22.777C77.823-22.777 79.43-24.384 79.43-26.377C79.43-28.371 77.823-29.977 75.83-29.977L58.33-29.977ZM51.43-26.377C51.43-30.194 54.513-33.277 58.33-33.277L75.83-33.277C79.646-33.277 82.73-30.194 82.73-26.377C82.73-22.561 79.646-19.477 75.83-19.477L58.33-19.477C54.513-19.477 51.43-22.561 51.43-26.377ZM9.43-43.877C9.43-47.694 12.513-50.777 16.33-50.777L33.83-50.777C37.646-50.777 40.73-47.694 40.73-43.877C40.73-40.061 37.646-36.977 33.83-36.977L16.33-36.977C12.513-36.977 9.43-40.061 9.43-43.877ZM16.33-47.477C14.336-47.477 12.73-45.871 12.73-43.877C12.73-41.884 14.336-40.277 16.33-40.277L33.83-40.277C35.823-40.277 37.43-41.884 37.43-43.877C37.43-45.871 35.823-47.477 33.83-47.477L16.33-47.477ZM75.83-50.977C73.836-50.977 72.23-49.371 72.23-47.377L72.23-43.777L75.83-43.777C77.823-43.777 79.43-45.384 79.43-47.377C79.43-49.371 77.823-50.977 75.83-50.977ZM68.93-47.377C68.93-51.194 72.013-54.277 75.83-54.277C79.646-54.277 82.73-51.194 82.73-47.377C82.73-43.561 79.646-40.477 75.83-40.477L70.58-40.477C69.668-40.477 68.93-41.216 68.93-42.127L68.93-47.377ZM54.83-68.477C52.836-68.477 51.23-66.871 51.23-64.877L51.23-47.377C51.23-45.384 52.836-43.777 54.83-43.777C56.823-43.777 58.43-45.384 58.43-47.377L58.43-64.877C58.43-66.871 56.823-68.477 54.83-68.477ZM47.93-64.877C47.93-68.694 51.013-71.777 54.83-71.777C58.646-71.777 61.73-68.694 61.73-64.877L61.73-47.377C61.73-43.561 58.646-40.477 54.83-40.477C51.013-40.477 47.93-43.561 47.93-47.377L47.93-64.877ZM26.93-64.877C26.93-68.694 30.013-71.777 33.83-71.777C37.646-71.777 40.73-68.694 40.73-64.877L40.73-59.627C40.73-58.716 39.991-57.977 39.08-57.977L33.83-57.977C30.013-57.977 26.93-61.061 26.93-64.877ZM33.83-68.477C31.836-68.477 30.23-66.871 30.23-64.877C30.23-62.884 31.836-61.277 33.83-61.277L37.43-61.277L37.43-64.877C37.43-66.871 35.823-68.477 33.83-68.477Z"/>
  </g>
  <g id="Ultralight-S" transform="matrix(1 0 0 1 514.336 696)">
   <path d="M51.43-10.627C51.43-11.234 51.923-11.727 52.53-11.727L57.78-11.727C61.293-11.727 64.13-8.889 64.13-5.377C64.13-1.864 61.293 0.973 57.78 0.973C54.268 0.973 51.43-1.864 51.43-5.377L51.43-10.627ZM53.63-9.527L53.63-5.377C53.63-3.079 55.483-1.227 57.78-1.227C60.078-1.227 61.93-3.079 61.93-5.377C61.93-7.674 60.078-9.527 57.78-9.527L53.63-9.527ZM36.78-27.027C34.483-27.027 32.63-25.174 32.63-22.877L32.63-5.377C32.63-3.079 34.483-1.227 36.78-1.227C39.078-1.227 40.93-3.079 40.93-5.377L40.93-22.877C40.93-25.174 39.078-27.027 36.78-27.027ZM30.43-22.877C30.43-26.389 33.268-29.227 36.78-29.227C40.293-29.227 43.13-26.389 43.13-22.877L43.13-5.377C43.13-1.864 40.293 0.973 36.78 0.973C33.268 0.973 30.43-1.864 30.43-5.377L30.43-22.877ZM15.78-27.027C13.483-27.027 11.63-25.174 11.63-22.877C11.63-20.579 13.483-18.727 15.78-18.727C18.078-18.727 19.93-20.579 19.93-22.877L19.93-27.027L15.78-27.027ZM9.43-22.877C9.43-26.389 12.268-29.227 15.78-29.227L21.03-29.227C21.638-29.227 22.13-28.734 22.13-28.127L22.13-22.877C22.13-19.364 19.293-16.527 15.78-16.527C12.268-16.527 9.43-19.364 9.43-22.877ZM57.78-30.527C55.483-30.527 53.63-28.674 53.63-26.377C53.63-24.079 55.483-22.227 57.78-22.227L75.28-22.227C77.578-22.227 79.43-24.079 79.43-26.377C79.43-28.674 77.578-30.527 75.28-30.527L57.78-30.527ZM51.43-26.377C51.43-29.889 54.268-32.727 57.78-32.727L75.28-32.727C78.793-32.727 81.63-29.889 81.63-26.377C81.63-22.864 78.793-20.027 75.28-20.027L57.78-20.027C54.268-20.027 51.43-22.864 51.43-26.377ZM9.43-43.877C9.43-47.389 12.268-50.227 15.78-50.227L33.28-50.227C36.793-50.227 39.63-47.389 39.63-43.877C39.63-40.364 36.793-37.527 33.28-37.527L15.78-37.527C12.268-37.527 9.43-40.364 9.43-43.877ZM15.78-48.027C13.483-48.027 11.63-46.174 11.63-43.877C11.63-41.579 13.483-39.727 15.78-39.727L33.28-39.727C35.578-39.727 37.43-41.579 37.43-43.877C37.43-46.174 35.578-48.027 33.28-48.027L15.78-48.027ZM75.28-51.527C72.983-51.527 71.13-49.674 71.13-47.377L71.13-43.227L75.28-43.227C77.578-43.227 79.43-45.079 79.43-47.377C79.43-49.674 77.578-51.527 75.28-51.527ZM68.93-47.377C68.93-50.889 71.768-53.727 75.28-53.727C78.793-53.727 81.63-50.889 81.63-47.377C81.63-43.864 78.793-41.027 75.28-41.027L70.03-41.027C69.423-41.027 68.93-41.519 68.93-42.127L68.93-47.377ZM54.28-69.027C51.983-69.027 50.13-67.174 50.13-64.877L50.13-47.377C50.13-45.079 51.983-43.227 54.28-43.227C56.578-43.227 58.43-45.079 58.43-47.377L58.43-64.877C58.43-67.174 56.578-69.027 54.28-69.027ZM47.93-64.877C47.93-68.389 50.768-71.227 54.28-71.227C57.793-71.227 60.63-68.389 60.63-64.877L60.63-47.377C60.63-43.864 57.793-41.027 54.28-41.027C50.768-41.027 47.93-43.864 47.93-47.377L47.93-64.877ZM26.93-64.877C26.93-68.389 29.768-71.227 33.28-71.227C36.793-71.227 39.63-68.389 39.63-64.877L39.63-59.627C39.63-59.019 39.138-58.527 38.53-58.527L33.28-58.527C29.768-58.527 26.93-61.364 26.93-64.877ZM33.28-69.027C30.983-69.027 29.13-67.174 29.13-64.877C29.13-62.579 30.983-60.727 33.28-60.727L37.43-60.727L37.43-64.877C37.43-67.174 35.578-69.027 33.28-69.027Z"/>
  </g>
 </g>
</svg>
