<?xml version="1.0" encoding="UTF-8"?>
<!--Generator: Apple Native CoreSVG 175-->
<!DOCTYPE svg
PUBLIC "-//W3C//DTD SVG 1.1//EN"
       "http://www.w3.org/Graphics/SVG/1.1/DTD/svg11.dtd">
<svg version="1.1" xmlns="http://www.w3.org/2000/svg" xmlns:xlink="http://www.w3.org/1999/xlink" width="3300" height="2200">
 <!--glyph: "", point size: 100.0, font version: "17.0d12e1", template writer version: "65.1"-->
 <style>.hierarchical-0:secondary {fill:#4D4D4D}
.hierarchical-1:primary {fill:#212121}

.SFSymbolsPreview212121 {fill:#212121;opacity:1.0}
.SFSymbolsPreview4D4D4D {fill:#4D4D4D;opacity:1.0}
</style>
 <g id="Notes">
  <rect height="2200" id="artboard" style="fill:white;opacity:1" width="3300" x="0" y="0"/>
  <line style="fill:none;stroke:black;opacity:1;stroke-width:0.5;" x1="263" x2="3036" y1="292" y2="292"/>
  <text style="stroke:none;fill:black;font-family:sans-serif;font-size:13;font-weight:bold;" transform="matrix(1 0 0 1 263 322)">Weight/Scale Variations</text>
  <text style="stroke:none;fill:black;font-family:sans-serif;font-size:13;text-anchor:middle;" transform="matrix(1 0 0 1 559.711 322)">Ultralight</text>
  <text style="stroke:none;fill:black;font-family:sans-serif;font-size:13;text-anchor:middle;" transform="matrix(1 0 0 1 856.422 322)">Thin</text>
  <text style="stroke:none;fill:black;font-family:sans-serif;font-size:13;text-anchor:middle;" transform="matrix(1 0 0 1 1153.13 322)">Light</text>
  <text style="stroke:none;fill:black;font-family:sans-serif;font-size:13;text-anchor:middle;" transform="matrix(1 0 0 1 1449.84 322)">Regular</text>
  <text style="stroke:none;fill:black;font-family:sans-serif;font-size:13;text-anchor:middle;" transform="matrix(1 0 0 1 1746.56 322)">Medium</text>
  <text style="stroke:none;fill:black;font-family:sans-serif;font-size:13;text-anchor:middle;" transform="matrix(1 0 0 1 2043.27 322)">Semibold</text>
  <text style="stroke:none;fill:black;font-family:sans-serif;font-size:13;text-anchor:middle;" transform="matrix(1 0 0 1 2339.98 322)">Bold</text>
  <text style="stroke:none;fill:black;font-family:sans-serif;font-size:13;text-anchor:middle;" transform="matrix(1 0 0 1 2636.69 322)">Heavy</text>
  <text style="stroke:none;fill:black;font-family:sans-serif;font-size:13;text-anchor:middle;" transform="matrix(1 0 0 1 2933.4 322)">Black</text>
  <line style="fill:none;stroke:black;opacity:1;stroke-width:0.5;" x1="263" x2="3036" y1="1903" y2="1903"/>
  <g transform="matrix(1 0 0 1 263 1933)">
   <path d="M9.24805 0.830078Q10.8691 0.830078 12.2949 0.214844Q13.7207-0.400391 14.8096-1.49414Q15.8984-2.58789 16.5186-4.01367Q17.1387-5.43945 17.1387-7.05078Q17.1387-8.66211 16.5186-10.0879Q15.8984-11.5137 14.8047-12.6074Q13.7109-13.7012 12.2852-14.3164Q10.8594-14.9316 9.23828-14.9316Q7.62695-14.9316 6.20117-14.3164Q4.77539-13.7012 3.69141-12.6074Q2.60742-11.5137 1.9873-10.0879Q1.36719-8.66211 1.36719-7.05078Q1.36719-5.43945 1.9873-4.01367Q2.60742-2.58789 3.69629-1.49414Q4.78516-0.400391 6.21094 0.214844Q7.63672 0.830078 9.24805 0.830078ZM9.24805-0.654297Q7.91992-0.654297 6.7627-1.14746Q5.60547-1.64062 4.73145-2.51953Q3.85742-3.39844 3.36426-4.56055Q2.87109-5.72266 2.87109-7.05078Q2.87109-8.37891 3.35938-9.54102Q3.84766-10.7031 4.72168-11.582Q5.5957-12.4609 6.75293-12.9541Q7.91016-13.4473 9.23828-13.4473Q10.5762-13.4473 11.7334-12.9541Q12.8906-12.4609 13.7695-11.582Q14.6484-10.7031 15.1465-9.54102Q15.6445-8.37891 15.6445-7.05078Q15.6445-5.72266 15.1514-4.56055Q14.6582-3.39844 13.7842-2.51953Q12.9102-1.64062 11.748-1.14746Q10.5859-0.654297 9.24805-0.654297ZM5.6543-7.05078Q5.6543-6.72852 5.85938-6.52832Q6.06445-6.32812 6.40625-6.32812L8.51562-6.32812L8.51562-4.20898Q8.51562-3.88672 8.71094-3.67676Q8.90625-3.4668 9.23828-3.4668Q9.56055-3.4668 9.77051-3.67676Q9.98047-3.88672 9.98047-4.20898L9.98047-6.32812L12.0898-6.32812Q12.4219-6.32812 12.627-6.52832Q12.832-6.72852 12.832-7.05078Q12.832-7.38281 12.627-7.58789Q12.4219-7.79297 12.0898-7.79297L9.98047-7.79297L9.98047-9.90234Q9.98047-10.2344 9.77051-10.4443Q9.56055-10.6543 9.23828-10.6543Q8.90625-10.6543 8.71094-10.4443Q8.51562-10.2344 8.51562-9.90234L8.51562-7.79297L6.40625-7.79297Q6.06445-7.79297 5.85938-7.58789Q5.6543-7.38281 5.6543-7.05078Z"/>
  </g>
  <g transform="matrix(1 0 0 1 281.867 1933)">
   <path d="M11.709 2.91016Q13.75 2.91016 15.5518 2.12891Q17.3535 1.34766 18.7305-0.0292969Q20.1074-1.40625 20.8887-3.20801Q21.6699-5.00977 21.6699-7.05078Q21.6699-9.0918 20.8887-10.8936Q20.1074-12.6953 18.7305-14.0723Q17.3535-15.4492 15.5469-16.2305Q13.7402-17.0117 11.6992-17.0117Q9.6582-17.0117 7.85645-16.2305Q6.05469-15.4492 4.68262-14.0723Q3.31055-12.6953 2.5293-10.8936Q1.74805-9.0918 1.74805-7.05078Q1.74805-5.00977 2.5293-3.20801Q3.31055-1.40625 4.6875-0.0292969Q6.06445 1.34766 7.86621 2.12891Q9.66797 2.91016 11.709 2.91016ZM11.709 1.25Q9.98047 1.25 8.47656 0.605469Q6.97266-0.0390625 5.83496-1.17676Q4.69727-2.31445 4.05762-3.81836Q3.41797-5.32227 3.41797-7.05078Q3.41797-8.7793 4.05762-10.2832Q4.69727-11.7871 5.83008-12.9297Q6.96289-14.0723 8.4668-14.7119Q9.9707-15.3516 11.6992-15.3516Q13.4277-15.3516 14.9316-14.7119Q16.4355-14.0723 17.5781-12.9297Q18.7207-11.7871 19.3652-10.2832Q20.0098-8.7793 20.0098-7.05078Q20.0098-5.32227 19.3701-3.81836Q18.7305-2.31445 17.5928-1.17676Q16.4551-0.0390625 14.9463 0.605469Q13.4375 1.25 11.709 1.25ZM7.17773-7.05078Q7.17773-6.69922 7.41211-6.47461Q7.64648-6.25 8.01758-6.25L10.8887-6.25L10.8887-3.36914Q10.8887-2.99805 11.1133-2.76855Q11.3379-2.53906 11.6895-2.53906Q12.0605-2.53906 12.29-2.76855Q12.5195-2.99805 12.5195-3.36914L12.5195-6.25L15.4004-6.25Q15.7715-6.25 16.001-6.47461Q16.2305-6.69922 16.2305-7.05078Q16.2305-7.42188 16.001-7.65137Q15.7715-7.88086 15.4004-7.88086L12.5195-7.88086L12.5195-10.752Q12.5195-11.1328 12.29-11.3623Q12.0605-11.5918 11.6895-11.5918Q11.3379-11.5918 11.1133-11.3574Q10.8887-11.123 10.8887-10.752L10.8887-7.88086L8.01758-7.88086Q7.63672-7.88086 7.40723-7.65137Q7.17773-7.42188 7.17773-7.05078Z"/>
  </g>
  <g transform="matrix(1 0 0 1 305.646 1933)">
   <path d="M14.9707 5.66406Q17.0605 5.66406 18.96 5.01465Q20.8594 4.36523 22.4512 3.19336Q24.043 2.02148 25.2197 0.429688Q26.3965-1.16211 27.0459-3.06641Q27.6953-4.9707 27.6953-7.05078Q27.6953-9.14062 27.0459-11.04Q26.3965-12.9395 25.2197-14.5312Q24.043-16.123 22.4512-17.2998Q20.8594-18.4766 18.9551-19.126Q17.0508-19.7754 14.9609-19.7754Q12.8711-19.7754 10.9717-19.126Q9.07227-18.4766 7.48535-17.2998Q5.89844-16.123 4.72168-14.5312Q3.54492-12.9395 2.90039-11.04Q2.25586-9.14062 2.25586-7.05078Q2.25586-4.9707 2.90527-3.06641Q3.55469-1.16211 4.72656 0.429688Q5.89844 2.02148 7.49023 3.19336Q9.08203 4.36523 10.9814 5.01465Q12.8809 5.66406 14.9707 5.66406ZM14.9707 3.84766Q13.1641 3.84766 11.5283 3.2959Q9.89258 2.74414 8.53516 1.74805Q7.17773 0.751953 6.17676-0.610352Q5.17578-1.97266 4.62891-3.6084Q4.08203-5.24414 4.08203-7.05078Q4.08203-8.86719 4.62891-10.5029Q5.17578-12.1387 6.17188-13.501Q7.16797-14.8633 8.52539-15.8594Q9.88281-16.8555 11.5186-17.4023Q13.1543-17.9492 14.9609-17.9492Q16.7773-17.9492 18.4131-17.4023Q20.0488-16.8555 21.4111-15.8594Q22.7734-14.8633 23.7695-13.501Q24.7656-12.1387 25.3174-10.5029Q25.8691-8.86719 25.8691-7.05078Q25.8789-5.24414 25.332-3.6084Q24.7852-1.97266 23.7842-0.610352Q22.7832 0.751953 21.4209 1.74805Q20.0586 2.74414 18.4229 3.2959Q16.7871 3.84766 14.9707 3.84766ZM9.19922-7.05078Q9.19922-6.66992 9.45801-6.4209Q9.7168-6.17188 10.1172-6.17188L14.0625-6.17188L14.0625-2.2168Q14.0625-1.81641 14.3115-1.55762Q14.5605-1.29883 14.9512-1.29883Q15.3516-1.29883 15.6104-1.55273Q15.8691-1.80664 15.8691-2.2168L15.8691-6.17188L19.8242-6.17188Q20.2246-6.17188 20.4785-6.4209Q20.7324-6.66992 20.7324-7.05078Q20.7324-7.46094 20.4785-7.71484Q20.2246-7.96875 19.8242-7.96875L15.8691-7.96875L15.8691-11.9141Q15.8691-12.3242 15.6104-12.583Q15.3516-12.8418 14.9512-12.8418Q14.5605-12.8418 14.3115-12.583Q14.0625-12.3242 14.0625-11.9141L14.0625-7.96875L10.1172-7.96875Q9.70703-7.96875 9.45312-7.71484Q9.19922-7.46094 9.19922-7.05078Z"/>
  </g>
  <text style="stroke:none;fill:black;font-family:sans-serif;font-size:13;font-weight:bold;" transform="matrix(1 0 0 1 263 1953)">Design Variations</text>
  <text style="stroke:none;fill:black;font-family:sans-serif;font-size:13;" transform="matrix(1 0 0 1 263 1971)">Symbols are supported in up to nine weights and three scales.</text>
  <text style="stroke:none;fill:black;font-family:sans-serif;font-size:13;" transform="matrix(1 0 0 1 263 1989)">For optimal layout with text and other symbols, vertically align</text>
  <text style="stroke:none;fill:black;font-family:sans-serif;font-size:13;" transform="matrix(1 0 0 1 263 2007)">symbols with the adjacent text.</text>
  <line style="fill:none;stroke:#00AEEF;stroke-width:0.5;opacity:1.0;" x1="776" x2="776" y1="1919" y2="1933"/>
  <g transform="matrix(1 0 0 1 776 1933)">
   <path d="M3.31055 0.15625Q3.70117 0.15625 3.91602-0.00976562Q4.13086-0.175781 4.26758-0.585938L5.52734-4.0332L11.2891-4.0332L12.5488-0.585938Q12.6855-0.175781 12.9004-0.00976562Q13.1152 0.15625 13.4961 0.15625Q13.8867 0.15625 14.1162-0.0585938Q14.3457-0.273438 14.3457-0.644531Q14.3457-0.869141 14.2383-1.17188L9.6582-13.3691Q9.48242-13.8184 9.17969-14.043Q8.87695-14.2676 8.4082-14.2676Q7.5-14.2676 7.17773-13.3789L2.59766-1.16211Q2.49023-0.859375 2.49023-0.634766Q2.49023-0.263672 2.70996-0.0537109Q2.92969 0.15625 3.31055 0.15625ZM6.00586-5.51758L8.37891-12.0898L8.42773-12.0898L10.8008-5.51758Z"/>
  </g>
  <line style="fill:none;stroke:#00AEEF;stroke-width:0.5;opacity:1.0;" x1="793.197" x2="793.197" y1="1919" y2="1933"/>
  <text style="stroke:none;fill:black;font-family:sans-serif;font-size:13;font-weight:bold;" transform="matrix(1 0 0 1 776 1953)">Margins</text>
  <text style="stroke:none;fill:black;font-family:sans-serif;font-size:13;" transform="matrix(1 0 0 1 776 1971)">Leading and trailing margins on the left and right side of each symbol</text>
  <text style="stroke:none;fill:black;font-family:sans-serif;font-size:13;" transform="matrix(1 0 0 1 776 1989)">can be adjusted by modifying the x-location of the margin guidelines.</text>
  <text style="stroke:none;fill:black;font-family:sans-serif;font-size:13;" transform="matrix(1 0 0 1 776 2007)">Modifications are automatically applied proportionally to all</text>
  <text style="stroke:none;fill:black;font-family:sans-serif;font-size:13;" transform="matrix(1 0 0 1 776 2025)">scales and weights.</text>
  <g transform="matrix(1 0 0 1 1289 1933)">
   <path d="M2.8418 1.86523L4.54102 3.57422Q5.18555 4.22852 5.90332 4.17969Q6.62109 4.13086 7.31445 3.35938L18.0078-8.42773L17.041-9.4043L6.42578 2.27539Q6.16211 2.57812 5.89355 2.61719Q5.625 2.65625 5.27344 2.30469L4.10156 1.14258Q3.75 0.791016 3.79395 0.522461Q3.83789 0.253906 4.14062-0.0195312L15.6152-10.8203L14.6387-11.7871L3.04688-0.898438Q2.30469-0.214844 2.25098 0.498047Q2.19727 1.21094 2.8418 1.86523ZM9.25781-16.3281Q8.94531-16.0254 8.90625-15.6348Q8.86719-15.2441 9.04297-14.9512Q9.21875-14.6777 9.55566-14.541Q9.89258-14.4043 10.3809-14.5215Q11.4746-14.7754 12.5977-14.7314Q13.7207-14.6875 14.7949-13.9844L14.209-12.5293Q13.9551-11.9043 14.0674-11.4404Q14.1797-10.9766 14.5801-10.5664L16.875-8.25195Q17.2363-7.88086 17.5781-7.82227Q17.9199-7.76367 18.3398-7.8418L19.4043-8.03711L20.0684-7.36328L20.0293-6.80664Q20-6.43555 20.1221-6.12305Q20.2441-5.81055 20.6055-5.44922L21.3672-4.70703Q21.7285-4.3457 22.1533-4.33105Q22.5781-4.31641 22.9297-4.66797L25.8398-7.58789Q26.1914-7.93945 26.1816-8.35449Q26.1719-8.76953 25.8105-9.13086L25.0391-9.89258Q24.6875-10.2539 24.3799-10.3857Q24.0723-10.5176 23.7109-10.4883L23.1348-10.4395L22.4902-11.0742L22.7344-12.1973Q22.832-12.6172 22.6953-12.9834Q22.5586-13.3496 22.1191-13.7891L19.9219-15.9766Q18.6719-17.2168 17.2607-17.8369Q15.8496-18.457 14.4189-18.4814Q12.9883-18.5059 11.665-17.959Q10.3418-17.4121 9.25781-16.3281ZM10.752-15.957Q11.6602-16.6211 12.7002-16.9043Q13.7402-17.1875 14.8047-17.085Q15.8691-16.9824 16.8701-16.5137Q17.8711-16.0449 18.7012-15.2051L21.1328-12.793Q21.3086-12.6172 21.3525-12.4512Q21.3965-12.2852 21.3379-12.0312L21.0156-10.5469L22.5195-9.0625L23.5059-9.12109Q23.6914-9.13086 23.7891-9.09668Q23.8867-9.0625 24.0332-8.91602L24.6094-8.33984L22.168-5.89844L21.5918-6.47461Q21.4453-6.62109 21.4062-6.71875Q21.3672-6.81641 21.377-7.01172L21.4453-7.98828L19.9512-9.47266L18.4277-9.21875Q18.1836-9.16992 18.042-9.2041Q17.9004-9.23828 17.7148-9.41406L15.7129-11.416Q15.5176-11.5918 15.4932-11.7529Q15.4688-11.9141 15.5859-12.1875L16.4648-14.2773Q15.293-15.3711 13.8281-15.791Q12.3633-16.2109 10.8398-15.7617Q10.7227-15.7324 10.6885-15.8057Q10.6543-15.8789 10.752-15.957Z"/>
  </g>
  <text style="stroke:none;fill:black;font-family:sans-serif;font-size:13;font-weight:bold;" transform="matrix(1 0 0 1 1289 1953)">Exporting</text>
  <text style="stroke:none;fill:black;font-family:sans-serif;font-size:13;" transform="matrix(1 0 0 1 1289 1971)">Symbols should be outlined when exporting to ensure the</text>
  <text style="stroke:none;fill:black;font-family:sans-serif;font-size:13;" transform="matrix(1 0 0 1 1289 1989)">design is preserved when submitting to Xcode.</text>
  <text id="template-version" style="stroke:none;fill:black;font-family:sans-serif;font-size:13;text-anchor:end;" transform="matrix(1 0 0 1 3036 1933)">Template v.3.0</text>
  <text style="stroke:none;fill:black;font-family:sans-serif;font-size:13;text-anchor:end;" transform="matrix(1 0 0 1 3036 1951)">Requires Xcode 13 or greater</text>
  <text id="descriptive-name" style="stroke:none;fill:black;font-family:sans-serif;font-size:13;text-anchor:end;" transform="matrix(1 0 0 1 3036 1969)">Generated from cloud-off.2</text>
  <text style="stroke:none;fill:black;font-family:sans-serif;font-size:13;text-anchor:end;" transform="matrix(1 0 0 1 3036 1987)">Typeset at 100 points</text>
  <text style="stroke:none;fill:black;font-family:sans-serif;font-size:13;" transform="matrix(1 0 0 1 263 726)">Small</text>
  <text style="stroke:none;fill:black;font-family:sans-serif;font-size:13;" transform="matrix(1 0 0 1 263 1156)">Medium</text>
  <text style="stroke:none;fill:black;font-family:sans-serif;font-size:13;" transform="matrix(1 0 0 1 263 1586)">Large</text>
 </g>
 <g id="Guides">
  <g id="H-reference" style="fill:#27AAE1;stroke:none;" transform="matrix(1 0 0 1 339 696)">
   <path d="M0.976562 0L3.66211 0L29.3457-67.1387L30.0293-67.1387L30.0293-70.459L28.125-70.459ZM11.6699-24.4629L46.9727-24.4629L46.2402-26.709L12.4512-26.709ZM55.127 0L57.7637 0L30.6152-70.459L29.4434-70.459L29.4434-67.1387Z"/>
  </g>
  <line id="Baseline-S" style="fill:none;stroke:#27AAE1;opacity:1;stroke-width:0.5;" x1="263" x2="3036" y1="696" y2="696"/>
  <line id="Capline-S" style="fill:none;stroke:#27AAE1;opacity:1;stroke-width:0.5;" x1="263" x2="3036" y1="625.541" y2="625.541"/>
  <g id="H-reference" style="fill:#27AAE1;stroke:none;" transform="matrix(1 0 0 1 339 1126)">
   <path d="M0.976562 0L3.66211 0L29.3457-67.1387L30.0293-67.1387L30.0293-70.459L28.125-70.459ZM11.6699-24.4629L46.9727-24.4629L46.2402-26.709L12.4512-26.709ZM55.127 0L57.7637 0L30.6152-70.459L29.4434-70.459L29.4434-67.1387Z"/>
  </g>
  <line id="Baseline-M" style="fill:none;stroke:#27AAE1;opacity:1;stroke-width:0.5;" x1="263" x2="3036" y1="1126" y2="1126"/>
  <line id="Capline-M" style="fill:none;stroke:#27AAE1;opacity:1;stroke-width:0.5;" x1="263" x2="3036" y1="1055.54" y2="1055.54"/>
  <g id="H-reference" style="fill:#27AAE1;stroke:none;" transform="matrix(1 0 0 1 339 1556)">
   <path d="M0.976562 0L3.66211 0L29.3457-67.1387L30.0293-67.1387L30.0293-70.459L28.125-70.459ZM11.6699-24.4629L46.9727-24.4629L46.2402-26.709L12.4512-26.709ZM55.127 0L57.7637 0L30.6152-70.459L29.4434-70.459L29.4434-67.1387Z"/>
  </g>
  <line id="Baseline-L" style="fill:none;stroke:#27AAE1;opacity:1;stroke-width:0.5;" x1="263" x2="3036" y1="1556" y2="1556"/>
  <line id="Capline-L" style="fill:none;stroke:#27AAE1;opacity:1;stroke-width:0.5;" x1="263" x2="3036" y1="1485.54" y2="1485.54"/>
  <line id="left-margin-Regular-M" style="fill:none;stroke:#00AEEF;stroke-width:0.5;opacity:1.0;" x1="1393.07" x2="1393.07" y1="1030.78" y2="1150.12"/>
  <line id="right-margin-Regular-M" style="fill:none;stroke:#00AEEF;stroke-width:0.5;opacity:1.0;" x1="1506.62" x2="1506.62" y1="1030.78" y2="1150.12"/>
 </g>
 <g id="Symbols">
  <g id="Black-L" transform="matrix(1 0 0 1 2859.47 1556)">
   <path class="hierarchical-0:secondary SFSymbolsPreview4D4D4D" d="M30.6147-81.9501C34.0447-83.8401 38.3647-82.6001 40.2547-79.1601C42.1547-75.7301 40.9047-71.4101 37.4747-69.5201C29.9747-65.3801 24.0847-58.8501 20.7247-50.9601C17.3747-43.0901 16.7447-34.3101 18.9547-26.0201C21.1647-17.7401 26.0747-10.4401 32.9147-5.28014C39.5947-0.230142 47.7347 2.48986 56.1147 2.47986L56.7947 2.47986L107.985 2.47986C110.265 2.47986 112.535 2.10986 114.715 1.36986L115.215 1.19986C118.895-0.140142 122.975 1.74986 124.315 5.43986C125.655 9.11986 123.755 13.1999 120.075 14.5399C116.415 15.8799 112.555 16.5999 108.675 16.6699L107.985 16.6799L56.9047 16.6799C45.1647 16.8599 33.7147 13.1299 24.3547 6.04986C14.9947-1.02014 8.26471-11.0201 5.23471-22.3701C2.21471-33.7101 3.06471-45.7401 7.66471-56.5201C12.2647-67.3301 20.3347-76.2701 30.6147-81.9501ZM53.6447-82.0501C53.9847-85.9501 57.4347-88.8401 61.3347-88.4901C72.2047-87.5301 82.5047-83.2201 90.8047-76.1601C97.6447-70.3301 102.855-62.8801 105.975-54.5301L106.025-54.4001L107.985-54.4001C113.645-54.4001 119.235-53.0501 124.265-50.4601L124.795-50.1801C129.965-47.4101 134.375-43.4001 137.635-38.5001C140.875-33.6001 142.855-27.9901 143.405-22.1401C143.945-16.2901 143.025-10.4001 140.745-5.00014C139.215-1.39014 135.045 0.299858 131.435-1.23014C127.905-2.73014 126.205-6.75014 127.575-10.3101L127.665-10.5401C129.035-13.7801 129.585-17.3201 129.265-20.8301C128.935-24.3301 127.735-27.7201 125.805-30.6501C123.845-33.5901 121.195-36.0001 118.085-37.6601C115.135-39.2501 111.835-40.1201 108.485-40.2001L107.985-40.2001L100.815-40.2001C97.6547-40.2001 94.8847-42.2901 93.9947-45.3101L93.9347-45.5501C91.9747-53.2601 87.6647-60.1801 81.6047-65.3401C75.5447-70.5001 68.0247-73.6501 60.0847-74.3501C56.1847-74.6901 53.2947-78.1401 53.6447-82.0501Z"/>
   <path class="hierarchical-1:primary SFSymbolsPreview212121" d="M6.27471-103.5C8.98471-106.21 13.3347-106.27 16.1247-103.69L16.3147-103.5L141.435 21.6199C144.205 24.3899 144.205 28.8899 141.435 31.6599C138.725 34.3699 134.365 34.4299 131.585 31.8399L131.395 31.6599L6.27471-93.4601C3.50471-96.2301 3.50471-100.73 6.27471-103.5Z"/>
  </g>
  <g id="Heavy-L" transform="matrix(1 0 0 1 2563.61 1556)">
   <path class="hierarchical-0:secondary SFSymbolsPreview4D4D4D" d="M30.1713-81.1188C33.1913-82.7888 36.9913-81.6888 38.6613-78.6688C40.3313-75.6488 39.2413-71.8488 36.2113-70.1788C28.5613-65.9488 22.5313-59.2688 19.1013-51.2088C15.6713-43.1488 15.0313-34.1788 17.2913-25.7188C19.5413-17.2588 24.5613-9.79884 31.5513-4.51884C38.3813 0.641164 46.7113 3.43116 55.3613 3.42116L55.9413 3.41116L107.131 3.41116C109.511 3.41116 111.881 3.02116 114.141 2.26116L114.661 2.08116C117.901 0.901164 121.491 2.57116 122.671 5.81116C123.851 9.05116 122.181 12.6412 118.941 13.8212C115.361 15.1312 111.601 15.8312 107.801 15.9012L107.131 15.9112L56.0413 15.9112C44.5013 16.0912 33.2213 12.4112 24.0113 5.46116C14.8013-1.50884 8.18133-11.3488 5.21133-22.4988C2.23133-33.6488 3.07133-45.4888 7.60133-56.1088C12.1313-66.7288 20.0713-75.5388 30.1713-81.1188ZM53.6413-81.8888C53.9513-85.3288 56.9813-87.8688 60.4213-87.5588C71.1013-86.6188 81.2313-82.3788 89.4113-75.4188C96.2813-69.5788 101.471-62.0688 104.521-53.6488L104.591-53.4688L107.131-53.4688C112.661-53.4688 118.101-52.1488 123.011-49.6288L123.551-49.3488C128.611-46.6388 132.911-42.7188 136.071-37.9488C139.241-33.1688 141.181-27.6788 141.701-21.9888C142.241-16.2888 141.341-10.5288 139.111-5.24884C137.761-2.06884 134.091-0.588836 130.911-1.92884C127.811-3.24884 126.321-6.77884 127.511-9.90884L127.601-10.1288C129.031-13.4988 129.601-17.1888 129.261-20.8388C128.921-24.4688 127.681-27.9788 125.651-31.0488C123.631-34.0888 120.881-36.5988 117.651-38.3288C114.561-39.9788 111.131-40.8788 107.631-40.9588L107.131-40.9688L99.9713-40.9688C97.1113-40.9688 94.6213-42.9088 93.9113-45.6788C91.9113-53.5588 87.5113-60.6288 81.3113-65.9088C75.2513-71.0588 67.7913-74.2388 59.9013-75.0588L59.3213-75.1088C55.8813-75.4188 53.3413-78.4488 53.6413-81.8888Z"/>
   <path class="hierarchical-1:primary SFSymbolsPreview212121" d="M6.02133-102.819C8.40133-105.199 12.2213-105.259 14.6713-102.999L14.8613-102.819L139.991 22.3012C142.431 24.7412 142.431 28.7012 139.991 31.1412C137.611 33.5212 133.791 33.5812 131.341 31.3212L131.151 31.1412L6.02133-93.9788C3.58133-96.4188 3.58133-100.379 6.02133-102.819Z"/>
  </g>
  <g id="Bold-L" transform="matrix(1 0 0 1 2267.85 1556)">
   <path class="hierarchical-0:secondary SFSymbolsPreview4D4D4D" d="M29.6714-80.1975C32.2414-81.6075 35.4614-80.6875 36.8814-78.1175C38.2914-75.5575 37.3714-72.3375 34.8014-70.9175C26.9514-66.5775 20.7814-59.7375 17.2814-51.4875C13.7614-43.2375 13.1114-34.0475 15.4214-25.3775C17.7314-16.7175 22.8714-9.07748 30.0214-3.66748C37.0214 1.62252 45.5514 4.47252 54.4014 4.46252L54.9914 4.45252L106.181 4.45252C108.861 4.45252 111.511 3.98252 114.031 3.06252C116.781 2.06252 119.831 3.48252 120.831 6.23252C121.831 8.98252 120.411 12.0225 117.661 13.0225C114.201 14.2825 110.551 14.9725 106.871 15.0425L106.181 15.0525L55.0714 15.0525C43.7414 15.2325 32.6714 11.6225 23.6314 4.79252C14.5914-2.04748 8.09139-11.6975 5.18139-22.6475C2.25139-33.5975 3.08139-45.2175 7.52139-55.6375C11.9514-66.0675 19.7514-74.7075 29.6714-80.1975ZM53.6414-81.7175C53.9014-84.6275 56.4714-86.7875 59.3914-86.5275C69.8714-85.5975 79.8214-81.4375 87.8314-74.6075C94.7414-68.7375 99.9114-61.1575 102.881-52.6475L102.951-52.4275L106.181-52.4275C111.561-52.4275 116.851-51.1475 121.631-48.6975L122.151-48.4175C127.061-45.7875 131.241-41.9875 134.331-37.3375C137.411-32.6875 139.301-27.3475 139.811-21.7975C140.321-16.2475 139.451-10.6475 137.281-5.52748C136.141-2.83748 133.031-1.57748 130.331-2.71748C127.641-3.85748 126.381-6.96748 127.521-9.66748C129.011-13.1775 129.601-17.0175 129.251-20.8275C128.901-24.6275 127.611-28.2875 125.501-31.4675C123.381-34.6575 120.511-37.2675 117.141-39.0775C113.931-40.7975 110.351-41.7375 106.701-41.8175L106.181-41.8275L99.0114-41.8275C96.5814-41.8275 94.4714-43.4675 93.8714-45.8275C91.8214-53.8975 87.3214-61.1375 80.9614-66.5375C74.6214-71.9375 66.7514-75.2375 58.4514-75.9675C55.5414-76.2275 53.3814-78.7975 53.6414-81.7175Z"/>
   <path class="hierarchical-1:primary SFSymbolsPreview212121" d="M5.74139-102.057C7.75139-104.067 10.9814-104.127 13.0614-102.227L13.2414-102.057L138.371 23.0625C140.441 25.1325 140.441 28.4925 138.371 30.5625C136.361 32.5725 133.131 32.6325 131.051 30.7325L130.871 30.5625L5.74139-94.5575C3.67139-96.6275 3.67139-99.9875 5.74139-102.057Z"/>
  </g>
  <g id="Semibold-L" transform="matrix(1 0 0 1 1971.78 1556)">
   <path class="hierarchical-0:secondary SFSymbolsPreview4D4D4D" d="M29.3502-79.56C31.6002-80.8 34.4302-79.98 35.6702-77.74C36.9102-75.49 36.1002-72.66 33.8502-71.42C25.8702-67.01 19.6002-60.07 16.0302-51.68C12.4502-43.29 11.7902-33.95 14.1402-25.15C16.4902-16.34 21.7202-8.57004 28.9902-3.08004C36.1002 2.28996 44.7802 5.18996 53.7602 5.17996L54.3502 5.16996L105.53 5.16996C108.28 5.16996 111.01 4.68996 113.61 3.73996C116.02 2.85996 118.69 4.10996 119.57 6.51996C120.45 8.92996 119.2 11.6 116.79 12.48C113.39 13.72 109.82 14.39 106.21 14.46L105.53 14.47L54.4202 14.47C43.2302 14.65 32.3002 11.08 23.3902 4.33996C14.4602-2.40004 8.04021-11.94 5.16021-22.75C2.27021-33.56 3.08021-45.03 7.47021-55.32C11.8602-65.62 19.5602-74.15 29.3502-79.56ZM53.6402-81.59C53.8602-84.15 56.1202-86.04 58.6802-85.81C69.0302-84.9 78.8402-80.79 86.7802-74.05C93.7202-68.12 98.9102-60.45 101.8-51.85L101.85-51.71L105.54-51.71C110.8-51.71 116-50.45 120.68-48.05L121.2-47.78C126.01-45.19 130.12-41.46 133.15-36.9C136.16-32.34 138.01-27.1 138.51-21.68C139.02-16.23 138.17-10.74 136.03-5.71004C135.02-3.34004 132.29-2.24004 129.93-3.25004C127.56-4.26004 126.46-6.99004 127.47-9.35004C129.01-12.95 129.62-16.9 129.25-20.82C128.89-24.72 127.56-28.49 125.4-31.76C123.22-35.04 120.27-37.72 116.8-39.58C113.49-41.36 109.8-42.32 106.05-42.4L105.54-42.41L98.3702-42.41C96.2402-42.41 94.3902-43.85 93.8602-45.91C91.7802-54.11 87.2002-61.47 80.7502-66.97C74.2902-72.46 66.3002-75.8 57.8602-76.55C55.3002-76.77 53.4102-79.03 53.6402-81.59Z"/>
   <path class="hierarchical-1:primary SFSymbolsPreview212121" d="M5.56021-101.53C7.32021-103.29 10.1402-103.34 11.9602-101.69L12.1402-101.53L137.26 23.59C139.07 25.41 139.07 28.35 137.26 30.17C135.5 31.93 132.68 31.98 130.85 30.33L130.68 30.17L5.56021-94.95C3.75021-96.77 3.75021-99.71 5.56021-101.53Z"/>
  </g>
  <g id="Medium-L" transform="matrix(1 0 0 1 1675.57 1556)">
   <path class="hierarchical-0:secondary SFSymbolsPreview4D4D4D" d="M29.09-79.0724C31.1-80.1824 33.62-79.4524 34.73-77.4524C35.84-75.4424 35.11-72.9124 33.11-71.8124C25.03-67.3524 18.69-60.3224 15.07-51.8224C11.45-43.3324 10.78-33.8824 13.16-24.9724C15.54-16.0524 20.83-8.19239 28.19-2.63239C35.38 2.80761 44.17 5.73761 53.26 5.72761L53.85 5.71761L105.03 5.71761C107.84 5.71761 110.63 5.22761 113.28 4.25761C115.43 3.47761 117.81 4.58761 118.6 6.73761C119.38 8.88761 118.27 11.2776 116.12 12.0576C112.77 13.2776 109.25 13.9376 105.7 14.0076L105.03 14.0176L53.91 14.0176C42.83 14.1976 32.01 10.6676 23.19 3.98761C14.35-2.69239 7.99996-12.1224 5.13996-22.8324C2.27996-33.5324 3.08996-44.8824 7.42996-55.0824C11.78-65.2724 19.4-73.7224 29.09-79.0724ZM53.64-81.4924C53.84-83.7824 55.85-85.4624 58.13-85.2624C68.39-84.3624 78.1-80.2924 85.95-73.6224C92.83-67.7524 97.96-60.1524 100.83-51.6424L100.99-51.1624L105.04-51.1624C110.23-51.1624 115.34-49.9224 119.95-47.5524L120.46-47.2924C125.2-44.7424 129.25-41.0724 132.23-36.5824C135.2-32.0824 137.02-26.9224 137.51-21.5924C138.02-16.2224 137.18-10.8024 135.07-5.85239C134.17-3.74239 131.73-2.76239 129.62-3.66239C127.51-4.56239 126.53-7.00239 127.43-9.10239C129-12.7924 129.62-16.8124 129.25-20.8224C128.88-24.8024 127.52-28.6424 125.31-31.9924C123.09-35.3324 120.08-38.0724 116.54-39.9724C113.16-41.7824 109.39-42.7724 105.56-42.8524L105.04-42.8624L97.87-42.8624C95.97-42.8624 94.31-44.1524 93.85-45.9924C91.74-54.2924 87.1-61.7324 80.57-67.3024C74.03-72.8524 65.94-76.2424 57.4-76.9924C55.12-77.2024 53.43-79.2124 53.64-81.4924Z"/>
   <path class="hierarchical-1:primary SFSymbolsPreview212121" d="M5.40996-101.122C6.97996-102.692 9.48996-102.742 11.12-101.282L11.28-101.122L136.4 23.9976C138.02 25.6176 138.02 28.2376 136.4 29.8676C134.84 31.4276 132.33 31.4776 130.7 30.0176L130.53 29.8676L5.40996-95.2524C3.78996-96.8824 3.78996-99.5024 5.40996-101.122Z"/>
  </g>
  <g id="Regular-L" transform="matrix(1 0 0 1 1379.51 1556)">
   <path class="hierarchical-0:secondary SFSymbolsPreview4D4D4D" d="M28.7588-78.441C30.4488-79.381 32.5788-78.761 33.5088-77.071C34.4488-75.381 33.8288-73.251 32.1388-72.311C23.9388-67.791 17.4988-60.641 13.8188-52.021C10.1488-43.391 9.45877-33.801 11.8788-24.741C14.2988-15.681 19.6688-7.70102 27.1488-2.05102C34.4588 3.47898 43.3888 6.44898 52.6088 6.43898L53.1988 6.42898L104.379 6.42898C107.269 6.42898 110.129 5.91898 112.849 4.92898C114.669 4.26898 116.679 5.20898 117.339 7.01898C117.999 8.83898 117.059 10.849 115.249 11.509C111.969 12.709 108.519 13.349 105.029 13.419L104.379 13.429L53.2488 13.429C42.3188 13.599 31.6388 10.119 22.9288 3.52898C14.2088-3.06102 7.93877-12.371 5.11877-22.941C2.29877-33.501 3.08877-44.701 7.37877-54.761C11.6688-64.821 19.1888-73.161 28.7588-78.441ZM53.6288-81.381C53.7988-83.301 55.4988-84.721 57.4288-84.551C67.5388-83.661 77.1288-79.651 84.8788-73.061C91.8088-67.151 96.9488-59.461 99.7288-50.851L99.8588-50.451L104.389-50.451C109.469-50.451 114.469-49.241 118.989-46.921L119.499-46.651C124.149-44.161 128.109-40.561 131.039-36.161C133.949-31.751 135.729-26.701 136.209-21.471C136.709-16.201 135.889-10.901 133.819-6.05102C133.059-4.27102 131.009-3.44102 129.229-4.20102C127.449-4.96102 126.619-7.01102 127.379-8.79102C128.989-12.571 129.629-16.711 129.239-20.821C128.869-24.901 127.479-28.851 125.209-32.291C122.919-35.721 119.829-38.541 116.199-40.481C112.729-42.341 108.859-43.361 104.929-43.441L104.389-43.451L97.2188-43.451C95.6188-43.451 94.2188-44.541 93.8288-46.091C91.6888-54.521 86.9688-62.081 80.3388-67.731C73.6988-73.381 65.4788-76.821 56.8088-77.581C54.8888-77.751 53.4588-79.451 53.6288-81.381Z"/>
   <path class="hierarchical-1:primary SFSymbolsPreview212121" d="M5.21877-100.601C6.53877-101.921 8.64877-101.971 10.0188-100.751L10.1688-100.601L135.289 24.519C136.659 25.879 136.659 28.099 135.289 29.469C133.979 30.779 131.869 30.829 130.489 29.609L130.339 29.469L5.21877-95.651C3.85877-97.021 3.85877-99.241 5.21877-100.601Z"/>
  </g>
  <g id="Light-L" transform="matrix(1 0 0 1 1083.6 1556)">
   <path class="hierarchical-0:secondary SFSymbolsPreview4D4D4D" d="M28.3376-77.6598C29.6476-78.3798 31.2876-77.9098 32.0076-76.6098C32.7276-75.2998 32.2576-73.6598 30.9476-72.9398C22.5976-68.3198 16.0276-61.0398 12.2776-52.2498C8.53763-43.4698 7.83763-33.6798 10.3076-24.4598C12.7676-15.2298 18.2476-7.08985 25.8676-1.32985C33.3076 4.30015 42.4076 7.33015 51.7976 7.32015L52.3976 7.31015L103.578 7.31015C106.558 7.31015 109.518 6.79015 112.318 5.76015C113.728 5.25015 115.278 5.97015 115.788 7.38015C116.298 8.78015 115.578 10.3302 114.168 10.8402C110.968 12.0002 107.608 12.6302 104.218 12.7002L103.578 12.7102L52.4376 12.7102C41.6776 12.8802 31.1776 9.45015 22.6076 2.97015C14.0276-3.50985 7.86763-12.6698 5.08763-23.0598C2.31763-33.4498 3.09763-44.4698 7.31763-54.3698C11.5276-64.2698 18.9276-72.4598 28.3376-77.6598ZM56.5576-83.6798C66.5076-82.7998 75.9376-78.8498 83.5576-72.3698C90.5376-66.4298 95.6576-58.6398 98.3576-49.9298L98.4676-49.5698L103.588-49.5698C108.538-49.5698 113.418-48.3898 117.818-46.1298L118.328-45.8698C122.858-43.4398 126.718-39.9198 129.568-35.6398C132.408-31.3398 134.148-26.4098 134.618-21.3098C135.098-16.1798 134.298-11.0098 132.278-6.27985C131.698-4.90985 130.108-4.26985 128.738-4.85985C127.368-5.43985 126.728-7.02985 127.318-8.39985C128.978-12.2998 129.638-16.5698 129.238-20.8098C128.848-25.0298 127.418-29.1098 125.068-32.6498C122.718-36.1898 119.518-39.0998 115.768-41.1098C112.188-43.0298 108.188-44.0798 104.118-44.1598L103.588-44.1698L96.4176-44.1698C95.1776-44.1698 94.1076-45.0098 93.7976-46.2098C91.6176-54.7998 86.8176-62.4998 80.0576-68.2598C73.2876-74.0098 64.9176-77.5198 56.0776-78.2998C54.5976-78.4298 53.4976-79.7398 53.6276-81.2298C53.7576-82.6598 54.9676-83.7298 56.3876-83.6898L56.5576-83.6798Z"/>
   <path class="hierarchical-1:primary SFSymbolsPreview212121" d="M4.98763-99.9598C5.99763-100.97 7.60763-101.01 8.66763-100.09L8.80763-99.9598L133.928 25.1602C134.978 26.2102 134.978 27.9202 133.928 28.9802C132.918 29.9902 131.308 30.0302 130.248 29.1102L130.108 28.9802L4.98763-96.1398C3.93763-97.1998 3.93763-98.9098 4.98763-99.9598Z"/>
  </g>
  <g id="Thin-L" transform="matrix(1 0 0 1 787.941 1556)">
   <path class="hierarchical-0:secondary SFSymbolsPreview4D4D4D" d="M27.7951-76.6409C28.5921-77.0809 29.5961-76.7909 30.0371-76.0009C30.4781-75.2009 30.1891-74.2009 29.3911-73.7609C20.8301-69.0209 14.0971-61.5609 10.2651-52.5609C6.43207-43.5609 5.72007-33.5409 8.24007-24.0809C10.7611-14.6309 16.3691-6.29089 24.1751-0.400889C31.8181 5.37911 41.1411 8.48911 50.7421 8.46911L51.3431 8.45911L102.531 8.45911C105.632 8.45911 108.713 7.91911 111.634 6.84911C112.49 6.53911 113.437 6.97911 113.749 7.83911C114.061 8.68911 113.62 9.63911 112.764 9.94911C109.687 11.0691 106.45 11.6791 103.184 11.7491L102.531 11.7591L51.3691 11.7591C40.8471 11.9291 30.5761 8.57911 22.1861 2.23911C13.7931-4.11089 7.76207-13.0709 5.05107-23.2309C2.34207-33.4009 3.10807-44.1809 7.22907-53.8609C11.3501-63.5309 18.5891-71.5509 27.7951-76.6409ZM55.4131-82.5309C65.1491-81.6709 74.3781-77.8109 81.8241-71.4709C88.7951-65.5409 93.8761-57.7209 96.4691-48.9809L96.6291-48.4209L102.531-48.4209C107.313-48.4209 112.022-47.2809 116.27-45.1109L116.778-44.8409C121.158-42.4909 124.889-39.1009 127.639-34.9609C130.385-30.8109 132.065-26.0509 132.524-21.1109C132.983-16.1609 132.208-11.1609 130.27-6.59089C129.914-5.76089 128.946-5.36089 128.107-5.72089C127.268-6.08089 126.876-7.04089 127.232-7.88089C128.957-11.9509 129.647-16.4009 129.238-20.8109C128.829-25.2109 127.334-29.4409 124.889-33.1409C122.442-36.8209 119.119-39.8409 115.218-41.9309C111.481-43.9409 107.322-45.0309 103.084-45.1109L102.531-45.1209L95.3651-45.1209C94.6101-45.1209 93.9521-45.6309 93.7661-46.3609C91.5301-55.1709 86.6101-63.0609 79.6851-68.9609C72.7611-74.8509 64.1781-78.4509 55.1231-79.2509C54.2151-79.3309 53.5441-80.1309 53.6241-81.0309C53.7001-81.8909 54.4231-82.5409 55.2711-82.5409L55.4131-82.5309Z"/>
   <path class="hierarchical-1:primary SFSymbolsPreview212121" d="M4.67707-99.1209C5.28407-99.7209 6.24507-99.7609 6.89307-99.2209L7.01107-99.1209L132.135 25.9991C132.779 26.6491 132.779 27.6891 132.135 28.3391C131.528 28.9391 130.567 28.9791 129.919 28.4391L129.801 28.3391L4.67707-96.7809C4.03307-97.4309 4.03307-98.4709 4.67707-99.1209Z"/>
  </g>
  <g id="Ultralight-L" transform="matrix(1 0 0 1 491.78 1556)">
   <path class="hierarchical-0:secondary SFSymbolsPreview4D4D4D" d="M27.5104-76.1072C28.0424-76.4072 28.7114-76.2072 29.0054-75.6772C29.2994-75.1472 29.1064-74.4772 28.5754-74.1872C19.9064-69.3972 13.0894-61.8372 9.20943-52.7272C5.32843-43.6172 4.60743-33.4672 7.15843-23.8872C9.71143-14.3172 15.3904-5.87724 23.2944 0.092762C31.0324 5.94276 40.4724 9.09276 50.1854 9.07276L50.7934 9.06276L101.981 9.06276C105.146 9.06276 108.291 8.50276 111.272 7.42276C111.843 7.21276 112.474 7.50276 112.682 8.07276C112.89 8.64276 112.596 9.27276 112.025 9.48276C109.005 10.5828 105.828 11.1828 102.622 11.2528L101.981 11.2628L50.8104 11.2628C40.4114 11.4228 30.2594 8.11276 21.9674 1.85276C13.6724-4.41724 7.71243-13.2772 5.03343-23.3272C2.35443-33.3672 3.11243-44.0272 7.18543-53.5872C11.2574-63.1572 18.4124-71.0772 27.5104-76.1072ZM54.6954-81.9372L54.8154-81.9372C64.4374-81.0872 73.5594-77.2672 80.9174-71.0072C87.9644-64.9972 93.0564-57.0572 95.5624-48.1772L95.6614-47.8172L101.981-47.8172C106.675-47.8172 111.299-46.7072 115.469-44.5672L115.968-44.3072C120.268-41.9972 123.931-38.6672 126.63-34.6072C129.327-30.5372 130.975-25.8572 131.426-21.0072C131.877-16.1472 131.116-11.2472 129.213-6.75724C128.976-6.19724 128.331-5.93724 127.771-6.17724C127.212-6.40724 126.951-7.05724 127.188-7.61724C128.949-11.7672 129.653-16.3072 129.236-20.8072C128.818-25.2972 127.292-29.6172 124.796-33.3872C122.299-37.1472 118.908-40.2372 114.928-42.3672C111.114-44.4172 106.87-45.5272 102.545-45.6072L101.981-45.6172L94.8154-45.6172C94.3124-45.6172 93.8724-45.9572 93.7494-46.4472C91.4854-55.3672 86.5044-63.3572 79.4914-69.3272C72.4804-75.2972 63.7894-78.9272 54.6214-79.7372C54.0164-79.7972 53.5694-80.3272 53.6224-80.9372C53.6724-81.4972 54.1404-81.9272 54.6954-81.9372Z"/>
   <path class="hierarchical-1:primary SFSymbolsPreview212121" d="M4.51643-98.6772C4.91543-99.0772 5.54443-99.1072 5.97643-98.7572L6.07243-98.6772L131.196 26.4428C131.625 26.8728 131.625 27.5728 131.196 28.0028C130.797 28.4028 130.168 28.4228 129.736 28.0828L129.64 28.0028L4.51643-97.1172C4.08743-97.5472 4.08643-98.2472 4.51643-98.6772Z"/>
  </g>
  <g id="Black-M" transform="matrix(1 0 0 1 2873.03 1126)">
   <path class="hierarchical-0:secondary SFSymbolsPreview4D4D4D" d="M25.5512-73.3715C28.9812-75.2715 33.3012-74.0315 35.2012-70.6015C37.1012-67.1715 35.8612-62.8515 32.4312-60.9515C26.8412-57.8515 22.4512-52.9915 19.9412-47.1215C17.4412-41.2415 16.9812-34.7115 18.6312-28.5515C20.2712-22.3815 23.9312-16.9415 29.0212-13.1015C33.9812-9.35148 40.0012-7.33148 46.1912-7.31148L46.8412-7.32148L87.0012-7.32148C88.5912-7.32148 90.1712-7.57148 91.7212-8.08148L92.4112-8.32148C96.0412-9.49148 99.9712-7.58148 101.271-3.97148C102.601-0.281481 100.691 3.78852 97.0012 5.11852C93.9812 6.20852 90.8212 6.79852 87.6412 6.86852L87.0012 6.87852L46.9612 6.87852C37.4112 7.03852 28.0912 3.98852 20.4612-1.77148C12.8412-7.52148 7.37121-15.6715 4.91121-24.8815C2.44121-34.1015 3.14121-43.8915 6.88121-52.6915C10.6312-61.4715 17.2012-68.7415 25.5512-73.3715ZM42.8512-72.2415C43.1912-76.1515 46.6412-79.0415 50.5412-78.6915C59.3812-77.9115 67.7612-74.4015 74.5112-68.6615C79.7712-64.1915 83.8412-58.5315 86.4212-52.1915L86.5212-51.9415L86.9812-51.9415C91.6612-51.9515 96.2612-50.8515 100.431-48.7215L100.931-48.4615C105.201-46.1615 108.851-42.8415 111.541-38.7915C114.221-34.7415 115.861-30.0915 116.311-25.2515C116.761-20.4015 116.001-15.5215 114.111-11.0515C112.571-7.45148 108.401-5.76148 104.791-7.30148C101.261-8.80148 99.5712-12.8215 100.941-16.3815L101.041-16.6115C102.011-18.9115 102.401-21.4315 102.171-23.9415C101.941-26.4415 101.091-28.8515 99.7112-30.9415C98.3212-33.0415 96.4212-34.7615 94.2212-35.9415C92.1312-37.0615 89.8212-37.6715 87.4512-37.7415L87.0012-37.7415L81.3812-37.7415C78.1312-37.7415 75.3012-39.9415 74.5012-43.0915C73.0312-48.8515 69.8212-54.0015 65.3112-57.8415C60.9312-61.5715 55.5312-63.8815 49.8312-64.5015L49.3012-64.5515C45.3912-64.8915 42.5012-68.3415 42.8512-72.2415Z"/>
   <path class="hierarchical-1:primary SFSymbolsPreview212121" d="M6.12121-90.0315C8.83121-92.7415 13.1812-92.8015 15.9712-90.2115L16.1612-90.0315L114.331 8.14852C117.101 10.9185 117.101 15.4185 114.331 18.1885C111.621 20.8985 107.271 20.9585 104.481 18.3785L104.291 18.1885L6.12121-79.9915C3.35121-82.7615 3.35121-87.2615 6.12121-90.0315Z"/>
  </g>
  <g id="Heavy-M" transform="matrix(1 0 0 1 2577.17 1126)">
   <path class="hierarchical-0:secondary SFSymbolsPreview4D4D4D" d="M25.1129-72.5488C28.1329-74.2188 31.9329-73.1288 33.6129-70.1088C35.2429-67.1588 34.2429-63.4588 31.3829-61.7288L31.1729-61.6088C25.4129-58.4188 20.8929-53.4188 18.3229-47.3688C15.7429-41.3188 15.2629-34.5988 16.9629-28.2488C18.6529-21.8988 22.4229-16.2988 27.6529-12.3388C32.7729-8.47884 38.9729-6.39884 45.3629-6.37884L45.9929-6.38884L86.1529-6.38884C87.8429-6.38884 89.5329-6.65884 91.1729-7.19884L91.6229-7.35884C94.8729-8.52884 98.4529-6.84884 99.6229-3.59884C100.793-0.348836 99.1129 3.23116 95.8629 4.40116C92.9229 5.46116 89.8629 6.04116 86.7729 6.10116L86.1529 6.11116L46.0929 6.11116C36.7329 6.26116 27.6029 3.28116 20.1229-2.35884C12.6629-8.00884 7.29287-15.9888 4.88287-25.0188C2.46287-34.0588 3.14287-43.6588 6.82287-52.2688C10.4829-60.8788 16.9229-68.0088 25.1129-72.5488ZM42.8429-72.0888C43.1529-75.5288 46.1829-78.0688 49.6229-77.7688C58.2829-76.9988 66.4929-73.5588 73.1129-67.9288C78.3829-63.4388 82.4429-57.7388 84.9629-51.3488L85.0929-51.0088L86.1329-51.0088C90.6629-51.0188 95.1329-49.9488 99.1729-47.8888L99.6829-47.6288C103.833-45.3988 107.373-42.1788 109.983-38.2388C112.593-34.3088 114.183-29.7888 114.613-25.0888C115.053-20.3788 114.313-15.6488 112.473-11.3088C111.123-8.12884 107.453-6.64884 104.283-7.99884C101.173-9.31884 99.6929-12.8488 100.883-15.9788L100.973-16.1888C102.003-18.6188 102.413-21.2888 102.173-23.9288C101.923-26.5788 101.033-29.1188 99.5629-31.3288C98.0929-33.5388 96.1029-35.3588 93.7729-36.6088C91.5629-37.7888 89.1229-38.4388 86.6229-38.5088L86.1529-38.5088L80.5329-38.5088C77.6729-38.5088 75.1729-40.4488 74.4729-43.2288C72.9729-49.1388 69.6629-54.4488 65.0129-58.4088C60.5029-62.2388 54.9429-64.6288 49.0729-65.2588L48.5229-65.3188C45.0829-65.6188 42.5429-68.6488 42.8429-72.0888Z"/>
   <path class="hierarchical-1:primary SFSymbolsPreview212121" d="M5.87287-89.3488C8.25287-91.7288 12.0729-91.7888 14.5229-89.5288L14.7129-89.3488L112.883 8.83116C115.323 11.2712 115.323 15.2312 112.883 17.6712C110.503 20.0512 106.683 20.1112 104.233 17.8512L104.043 17.6712L5.87287-80.5088C3.43287-82.9488 3.43287-86.9088 5.87287-89.3488Z"/>
  </g>
  <g id="Bold-M" transform="matrix(1 0 0 1 2281.4 1126)">
   <path class="hierarchical-0:secondary SFSymbolsPreview4D4D4D" d="M24.6229-71.6213C27.1829-73.0313 30.4129-72.1113 31.8329-69.5513C33.2429-66.9913 32.3229-63.7613 29.7629-62.3413C23.8229-59.0513 19.1529-53.8813 16.4929-47.6413C13.8329-41.4013 13.3429-34.4513 15.0929-27.9013C16.8429-21.3513 20.7329-15.5713 26.1329-11.4813C31.4129-7.49134 37.8229-5.34134 44.5029-5.33134L45.0429-5.34134L85.2029-5.34134C86.9929-5.34134 88.7829-5.63134 90.5229-6.20134L90.9929-6.36134C93.7529-7.36134 96.7829-5.93134 97.7829-3.18134C98.7729-0.421336 97.3429 2.60866 94.5929 3.60866C91.7529 4.62866 88.7929 5.18866 85.8029 5.24866L85.2029 5.25866L45.1329 5.25866C35.9829 5.40866 27.0529 2.49866 19.7429-3.02134C12.4529-8.54134 7.20294-16.3413 4.85294-25.1713C2.48294-34.0013 3.15294-43.3813 6.74294-51.7913C10.3229-60.2113 16.6229-67.1813 24.6229-71.6213ZM42.8429-71.9013C43.1029-74.8213 45.6729-76.9713 48.5929-76.7213C57.0529-75.9713 65.0829-72.6113 71.5429-67.1013C76.8429-62.5913 80.8929-56.8313 83.3329-50.3713L83.4829-49.9613L85.1929-49.9613C89.5729-49.9713 93.8829-48.9313 97.7929-46.9413L98.2829-46.6913C102.293-44.5313 105.723-41.4113 108.233-37.6113C110.763-33.8113 112.303-29.4513 112.723-24.9013C113.143-20.3513 112.433-15.7713 110.653-11.5813C109.503-8.88134 106.393-7.63134 103.703-8.77134C101.003-9.91134 99.7529-13.0313 100.893-15.7213C101.993-18.3013 102.423-21.1113 102.163-23.9213C101.903-26.7213 100.963-29.4113 99.4029-31.7513C97.8529-34.1013 95.7429-36.0213 93.2729-37.3513C90.9229-38.6013 88.3329-39.2913 85.6729-39.3513L85.2029-39.3613L79.5829-39.3613C77.1529-39.3613 75.0429-41.0013 74.4429-43.3613C72.8929-49.4713 69.4829-54.9413 64.6729-59.0313C59.8829-63.1113 53.9329-65.6113 47.6529-66.1613C44.7429-66.4213 42.5829-68.9913 42.8429-71.9013Z"/>
   <path class="hierarchical-1:primary SFSymbolsPreview212121" d="M5.59294-88.5813C7.60294-90.5913 10.8329-90.6413 12.9129-88.7513L13.0929-88.5813L111.263 9.59866C113.333 11.6687 113.333 15.0287 111.263 17.0987C109.253 19.1087 106.023 19.1687 103.943 17.2687L103.763 17.0987L5.59294-81.0813C3.52294-83.1513 3.52294-86.5113 5.59294-88.5813Z"/>
  </g>
  <g id="Semibold-M" transform="matrix(1 0 0 1 1985.34 1126)">
   <path class="hierarchical-0:secondary SFSymbolsPreview4D4D4D" d="M24.2818-70.99C26.5218-72.23 29.3518-71.42 30.6018-69.17C31.8418-66.92 31.0318-64.09 28.7818-62.85C22.7218-59.49 17.9518-54.21 15.2418-47.84C12.5218-41.46 12.0218-34.36 13.8018-27.67C15.5918-20.98 19.5618-15.07 25.0918-10.9C30.4718-6.83004 37.0318-4.63004 43.8318-4.62004L44.3818-4.63004L84.5418-4.63004C86.5718-4.63004 88.6118-4.99004 90.5518-5.69004C92.9618-6.56004 95.6318-5.32004 96.5018-2.90004C97.3818-0.490038 96.1318 2.17996 93.7118 3.04996C90.9618 4.04996 88.0718 4.59996 85.1618 4.65996L84.5418 4.66996L44.4618 4.66996C35.4618 4.81996 26.6618 1.94996 19.4918-3.48004C12.3018-8.90004 7.13179-16.58 4.82179-25.28C2.50179-33.97 3.16179-43.2 6.68179-51.48C10.2118-59.76 16.4018-66.62 24.2818-70.99ZM42.8318-71.79C43.0518-74.34 45.3118-76.24 47.8718-76.01C56.2018-75.28 64.1018-71.96 70.4718-66.54C75.8018-62 79.8518-56.17 82.2318-49.63L82.3618-49.25L84.5318-49.25C88.8018-49.26 93.0118-48.25 96.8118-46.32L97.3018-46.06C101.242-43.95 104.582-40.91 107.052-37.18C109.502-33.47 111.012-29.2 111.422-24.78C111.832-20.35 111.132-15.88 109.402-11.78C108.412-9.41004 105.682-8.31004 103.312-9.30004C101.012-10.27 99.9018-12.87 100.752-15.19L100.832-15.4C101.972-18.09 102.432-21.02 102.162-23.92C101.892-26.82 100.902-29.61 99.2918-32.05C97.6818-34.49 95.4918-36.48 92.9118-37.86C90.4818-39.16 87.7818-39.87 85.0318-39.94L84.5418-39.95L78.9218-39.95C76.7918-39.95 74.9318-41.39 74.4118-43.46C72.8318-49.69 69.3518-55.29 64.4518-59.46C59.5418-63.63 53.4618-66.18 47.0518-66.75C44.4918-66.97 42.6018-69.23 42.8318-71.79Z"/>
   <path class="hierarchical-1:primary SFSymbolsPreview212121" d="M5.39179-88.06C7.15179-89.82 9.97179-89.87 11.7918-88.22L11.9718-88.06L110.152 10.12C111.962 11.94 111.962 14.88 110.152 16.7C108.392 18.46 105.572 18.51 103.752 16.86L103.572 16.7L5.39179-81.48C3.58179-83.3 3.58179-86.24 5.39179-88.06Z"/>
  </g>
  <g id="Medium-M" transform="matrix(1 0 0 1 1689.13 1126)">
   <path class="hierarchical-0:secondary SFSymbolsPreview4D4D4D" d="M24.0244-70.5024C26.0244-71.6124 28.5544-70.8824 29.6644-68.8824C30.7744-66.8724 30.0444-64.3524 28.0444-63.2424C21.8844-59.8224 17.0344-54.4624 14.2844-47.9824C11.5244-41.5124 11.0144-34.2924 12.8244-27.5024C14.6344-20.6924 18.6744-14.6924 24.2944-10.4524C29.7644-6.32239 36.4344-4.08239 43.3344-4.07239L43.8844-4.08239L84.0444-4.08239C86.1344-4.08239 88.2244-4.45239 90.2244-5.17239C92.3744-5.95239 94.7544-4.84239 95.5344-2.68239C96.3144-0.532385 95.2044 1.84761 93.0444 2.62761C90.3444 3.60761 87.5144 4.14761 84.6544 4.20761L84.0444 4.21761L43.9544 4.21761C35.0644 4.36761 26.3844 1.52761 19.2944-3.83239C12.1944-9.18239 7.09435-16.7724 4.80435-25.3624C2.51435-33.9424 3.16435-43.0524 6.64435-51.2324C10.1244-59.4124 16.2444-66.1924 24.0244-70.5024ZM42.8344-71.6924C43.0344-73.9824 45.0444-75.6624 47.3244-75.4624C55.5544-74.7424 63.3544-71.4724 69.6544-66.1124C75.0644-61.5024 79.1344-55.5524 81.4544-48.8724L81.5144-48.7024L84.0344-48.7024C88.2244-48.7124 92.3544-47.7224 96.0844-45.8224L96.5744-45.5724C100.434-43.5024 103.714-40.5124 106.134-36.8624C108.544-33.2124 110.024-29.0224 110.424-24.6824C110.824-20.3424 110.144-15.9524 108.444-11.9224C107.554-9.81239 105.124-8.82239 103.014-9.71239C100.964-10.5824 99.9744-12.8924 100.724-14.9624L100.804-15.1524C101.964-17.9224 102.434-20.9424 102.164-23.9224C101.884-26.8924 100.874-29.7724 99.2144-32.2824C97.5544-34.7824 95.3044-36.8324 92.6544-38.2524C90.1544-39.5924 87.3744-40.3224 84.5444-40.3924L84.0444-40.4024L78.4244-40.4024C76.5244-40.4024 74.8644-41.6924 74.4044-43.5324C72.7944-49.8724 69.2544-55.5524 64.2744-59.7924C59.2844-64.0324 53.1144-66.6224 46.5944-67.1924C44.3144-67.4024 42.6244-69.4124 42.8344-71.6924Z"/>
   <path class="hierarchical-1:primary SFSymbolsPreview212121" d="M5.25435-87.6524C6.81435-89.2224 9.32435-89.2724 10.9544-87.8124L11.1144-87.6524L109.294 10.5276C110.914 12.1476 110.914 14.7776 109.294 16.3976C107.734 17.9576 105.224 18.0076 103.594 16.5476L103.434 16.3976L5.25435-81.7824C3.62435-83.4024 3.62435-86.0324 5.25435-87.6524Z"/>
  </g>
  <g id="Regular-M" transform="matrix(1 0 0 1 1393.07 1126)">
   <path class="hierarchical-0:secondary SFSymbolsPreview4D4D4D" d="M23.6832-69.8699C25.3832-70.8099 27.5132-70.1999 28.4432-68.5099C29.3832-66.8099 28.7732-64.6799 27.0832-63.7499C20.7832-60.2599 15.8432-54.7899 13.0332-48.1799C10.2232-41.5699 9.69317-34.2099 11.5432-27.2699C13.3932-20.3299 17.5132-14.1999 23.2532-9.86991C28.8332-5.64991 35.6432-3.36991 42.6932-3.36991L43.2332-3.36991L83.3932-3.36991C85.5632-3.36991 87.7332-3.74991 89.7932-4.49991C91.6132-5.15991 93.6132-4.21991 94.2732-2.39991C94.9332-0.579912 93.9932 1.42009 92.1732 2.08009C89.5432 3.03009 86.7732 3.56009 83.9932 3.62009L83.3932 3.63009L43.2932 3.63009C34.5532 3.77009 26.0032 0.980088 19.0332-4.28991C12.0532-9.55991 7.03317-17.0099 4.78317-25.4699C2.53317-33.9099 3.16317-42.8699 6.59317-50.9199C10.0132-58.9699 16.0332-65.6299 23.6832-69.8699ZM42.8232-71.5799C42.9932-73.4999 44.6932-74.9299 46.6232-74.7599C54.7132-74.0399 62.3832-70.8299 68.5832-65.5599C74.0332-60.9199 78.0932-54.8799 80.3532-48.1299L80.3932-47.9899L83.3832-47.9899C87.4732-47.9999 91.5032-47.0399 95.1432-45.1799L95.6132-44.9399C99.3832-42.9199 102.583-39.9999 104.943-36.4399C107.293-32.8799 108.733-28.7999 109.123-24.5599C109.523-20.3299 108.853-16.0499 107.193-12.1199C106.443-10.3399 104.393-9.49991 102.613-10.2499C100.833-11.0099 99.9932-13.0599 100.743-14.8399C101.953-17.7099 102.443-20.8299 102.153-23.9199C101.873-26.9999 100.823-29.9799 99.1032-32.5799C97.3832-35.1699 95.0532-37.2999 92.3132-38.7599C89.7132-40.1599 86.8332-40.9199 83.8832-40.9799L83.3932-40.9899L77.7732-40.9899C76.1732-40.9899 74.7732-42.0799 74.3832-43.6299C72.7432-50.0999 69.1232-55.8999 64.0432-60.2199C58.9532-64.5499 52.6532-67.1999 46.0032-67.7799C44.0832-67.9499 42.6532-69.6499 42.8232-71.5799Z"/>
   <path class="hierarchical-1:primary SFSymbolsPreview212121" d="M5.06317-87.1399C6.37317-88.4499 8.48317-88.4999 9.86317-87.2799L10.0132-87.1399L108.193 11.0401C109.553 12.4101 109.553 14.6301 108.193 15.9901C106.873 17.3101 104.763 17.3601 103.383 16.1401L103.243 15.9901L5.06317-82.1899C3.69317-83.5499 3.69317-85.7699 5.06317-87.1399Z"/>
  </g>
  <g id="Light-M" transform="matrix(1 0 0 1 1097.16 1126)">
   <path class="hierarchical-0:secondary SFSymbolsPreview4D4D4D" d="M23.272-69.0898C24.582-69.8098 26.222-69.3398 26.942-68.0398C27.662-66.7298 27.192-65.0898 25.892-64.3698C19.442-60.7998 14.382-55.1798 11.492-48.4098C8.61202-41.6398 8.07202-34.0898 9.97202-26.9798C11.862-19.8698 16.092-13.5898 21.972-9.14985C27.692-4.82985 34.672-2.48985 41.872-2.48985L42.432-2.48985L82.592-2.48985C84.852-2.48985 87.112-2.88985 89.262-3.66985C90.662-4.17985 92.212-3.44985 92.722-2.04985C93.232-0.649846 92.502 0.900154 91.102 1.41015C88.552 2.33015 85.862 2.84015 83.172 2.90015L82.592 2.91015L42.472 2.91015C33.912 3.05015 25.542 0.320154 18.712-4.83985C11.872-10.0098 6.96202-17.3098 4.75202-25.5898C2.55202-33.8698 3.17202-42.6398 6.53202-50.5298C9.88202-58.4098 15.772-64.9398 23.272-69.0898ZM45.582-73.8898L45.752-73.8798C53.672-73.1798 61.192-70.0298 67.262-64.8698C72.732-60.2098 76.772-54.1198 78.952-47.3098L79.012-47.1098L82.582-47.1098C86.542-47.1198 90.432-46.1898 93.962-44.3998L94.432-44.1498C98.082-42.1998 101.192-39.3698 103.472-35.9198C105.752-32.4698 107.152-28.5098 107.532-24.4098C107.912-20.2998 107.262-16.1598 105.662-12.3498C105.082-10.9798 103.492-10.3298 102.122-10.9098C100.752-11.4898 100.102-13.0698 100.682-14.4498C101.942-17.4398 102.452-20.6898 102.152-23.9098C101.852-27.1298 100.762-30.2298 98.972-32.9398C97.182-35.6398 94.742-37.8598 91.892-39.3898C89.172-40.8398 86.172-41.6298 83.102-41.6998L82.592-41.7098L76.972-41.7098C75.732-41.7098 74.662-42.5498 74.352-43.7498C72.672-50.3798 68.972-56.3198 63.762-60.7498C58.542-65.1898 52.082-67.8998 45.272-68.4998C43.792-68.6298 42.692-69.9398 42.822-71.4298C42.952-72.8498 44.162-73.9198 45.582-73.8898Z"/>
   <path class="hierarchical-1:primary SFSymbolsPreview212121" d="M4.82202-86.4898C5.83202-87.4998 7.44202-87.5398 8.50202-86.6198L8.64202-86.4898L106.822 11.6902C107.872 12.7502 107.872 14.4602 106.822 15.5102C105.812 16.5202 104.202 16.5602 103.142 15.6402L103.002 15.5102L4.82202-82.6698C3.77202-83.7198 3.77202-85.4298 4.82202-86.4898Z"/>
  </g>
  <g id="Thin-M" transform="matrix(1 0 0 1 801.499 1126)">
   <path class="hierarchical-0:secondary SFSymbolsPreview4D4D4D" d="M22.7351-68.0709C23.5331-68.5109 24.5371-68.2309 24.9781-67.4309C25.4201-66.6309 25.1311-65.6309 24.3341-65.1909C17.6821-61.5009 12.4561-55.7109 9.48208-48.7209C6.50508-41.7309 5.95208-33.9509 7.90908-26.6109C9.86708-19.2709 14.2231-12.7909 20.2831-8.22089C26.2021-3.75089 33.4131-1.33089 40.8411-1.33089L41.3851-1.34089L81.5481-1.34089C83.9291-1.34089 86.3061-1.76089 88.5721-2.58089C89.4291-2.89089 90.3751-2.45089 90.6851-1.59089C90.9951-0.730889 90.5521 0.209111 89.6951 0.519111C87.2461 1.40911 84.6811 1.88911 82.1011 1.94911L81.5481 1.95911L41.4121 1.95911C33.0831 2.09911 24.9451-0.560889 18.2941-5.58089C11.6461-10.6009 6.86908-17.7109 4.72108-25.7609C2.57408-33.8109 3.18108-42.3509 6.44608-50.0209C9.70808-57.6809 15.4401-64.0309 22.7351-68.0709ZM44.4671-72.7409L44.6091-72.7309C52.3211-72.0509 59.6331-68.9909 65.5301-63.9709C70.9841-59.3309 74.9801-53.2309 77.0571-46.3909L77.1841-45.9609L81.5441-45.9609C85.3271-45.9709 89.0591-45.0809 92.4351-43.3609L92.8931-43.1209C96.3851-41.2509 99.3561-38.5409 101.543-35.2409C103.732-31.9409 105.069-28.1509 105.434-24.2109C105.8-20.2709 105.183-16.2909 103.639-12.6509C103.283-11.8109 102.315-11.4209 101.476-11.7809C100.637-12.1309 100.245-13.1009 100.601-13.9409C101.932-17.0809 102.464-20.5109 102.148-23.9109C101.833-27.3009 100.68-30.5709 98.7921-33.4209C96.9061-36.2709 94.3451-38.6009 91.3351-40.2109C88.4731-41.7509 85.2961-42.5809 82.0601-42.6509L81.5481-42.6609L75.9251-42.6609C75.1701-42.6609 74.5121-43.1709 74.3261-43.9009C72.5881-50.7509 68.7671-56.8809 63.3911-61.4509C58.0141-66.0309 51.3491-68.8209 44.3191-69.4409C43.4111-69.5209 42.7401-70.3309 42.8201-71.2309C42.8961-72.0909 43.6191-72.7409 44.4671-72.7409Z"/>
   <path class="hierarchical-1:primary SFSymbolsPreview212121" d="M4.51808-85.6509C5.12408-86.2509 6.08608-86.2909 6.73408-85.7509L6.85108-85.6509L105.026 12.5291C105.671 13.1791 105.671 14.2191 105.026 14.8691C104.42 15.4691 103.459 15.5091 102.811 14.9691L102.693 14.8691L4.51808-83.3109C3.87408-83.9609 3.87408-85.0009 4.51808-85.6509Z"/>
  </g>
  <g id="Ultralight-M" transform="matrix(1 0 0 1 505.338 1126)">
   <path class="hierarchical-0:secondary SFSymbolsPreview4D4D4D" d="M22.4527-67.5372C22.9837-67.8372 23.6537-67.6372 23.9477-67.1072C24.2417-66.5772 24.0497-65.9072 23.5187-65.6172C16.7587-61.8672 11.4487-55.9872 8.42667-48.8872C5.40167-41.7872 4.83967-33.8772 6.82867-26.4172C8.81767-18.9572 13.2437-12.3772 19.4027-7.72724C25.4167-3.18724 32.7437-0.727238 40.2837-0.737238L40.8357-0.737238L80.9987-0.737238C83.4427-0.737238 85.8837-1.16724 88.2097-2.00724C88.7817-2.21724 89.4117-1.92724 89.6187-1.34724C89.8257-0.777238 89.5297-0.147238 88.9587 0.052762C86.5647 0.922762 84.0587 1.39276 81.5387 1.45276L80.9987 1.46276L40.8537 1.46276C32.6467 1.59276 24.6287-1.01724 18.0767-5.96724C11.5257-10.9172 6.81867-17.9172 4.70267-25.8572C2.58667-33.7772 3.18567-42.1972 6.40267-49.7472C9.61667-57.2972 15.2647-63.5572 22.4527-67.5372ZM43.8917-72.1372L44.0107-72.1372C51.6097-71.4672 58.8137-68.4472 64.6237-63.4972C70.1437-58.8072 74.1467-52.5872 76.1437-45.6272L76.2197-45.3572L80.9957-45.3572C84.6917-45.3672 88.3377-44.4972 91.6367-42.8172L92.0837-42.5872C95.4957-40.7572 98.3987-38.1172 100.535-34.8872C102.674-31.6672 103.98-27.9572 104.337-24.1072C104.695-20.2572 104.092-16.3772 102.584-12.8172C102.346-12.2572 101.701-11.9972 101.141-12.2372C100.582-12.4672 100.321-13.1172 100.558-13.6772C101.925-16.8972 102.471-20.4172 102.147-23.9072C101.823-27.3972 100.64-30.7472 98.7017-33.6672C96.7647-36.5972 94.1357-38.9872 91.0457-40.6472C88.0987-42.2272 84.8287-43.0772 81.4987-43.1472L80.9987-43.1572L75.3757-43.1572C74.8727-43.1572 74.4327-43.4972 74.3097-43.9872C72.5437-50.9472 68.6607-57.1772 63.1987-61.8172C57.7347-66.4772 50.9617-69.3072 43.8177-69.9372C43.2127-69.9972 42.7657-70.5272 42.8187-71.1372C42.8687-71.6972 43.3367-72.1272 43.8917-72.1372Z"/>
   <path class="hierarchical-1:primary SFSymbolsPreview212121" d="M4.35767-85.2072C4.75667-85.6072 5.38567-85.6372 5.81667-85.2872L5.91267-85.2072L104.088 12.9728C104.518 13.4028 104.518 14.1028 104.088 14.5328C103.689 14.9328 103.06 14.9628 102.629 14.6128L102.533 14.5328L4.35767-83.6472C3.92767-84.0772 3.92767-84.7772 4.35767-85.2072Z"/>
  </g>
  <g id="Black-S" transform="matrix(1 0 0 1 2883.68 696)">
   <path class="hierarchical-0:secondary SFSymbolsPreview4D4D4D" d="M38.5798-0.920429C30.9298-0.915429 23.4998-3.40443 17.3998-8.01643C11.1498-12.7404 6.65982-19.4154 4.63982-26.9864C2.62982-34.5574 3.19982-42.5774 6.25982-49.7644C9.31982-56.9714 14.7198-62.9464 21.5798-66.7374C25.0098-68.6344 29.3298-67.3904 31.2198-63.9584C33.0798-60.5994 31.9298-56.3894 28.6598-54.4334L28.4398-54.3094C24.3598-52.0534 21.1498-48.4984 19.3298-44.2054C17.5098-39.9224 17.1598-35.1424 18.3598-30.6354C19.5598-26.1364 22.2398-22.1584 25.9598-19.3424C29.5498-16.6264 33.9298-15.1474 38.4298-15.1204L38.8898-15.1224L70.4998-15.1234C71.5698-15.1244 72.6298-15.2914 73.6598-15.6184L74.0398-15.7494C77.7298-17.0844 81.7998-15.1794 83.1298-11.4924C84.4698-7.80543 82.5598-3.73443 78.8798-2.39843C76.3698-1.49043 73.7398-0.995429 71.0798-0.930429L70.5098-0.923429L39.0098-0.923429L38.5798-0.920429ZM34.3598-64.6474C34.6998-68.5534 38.1498-71.4404 42.0498-71.0954C49.2998-70.4544 56.1698-67.5774 61.7098-62.8604C65.6398-59.5194 68.7598-55.3724 70.8798-50.7314L71.1498-50.1134L71.5598-50.1014C75.0798-49.9534 78.5298-49.0504 81.6798-47.4514L82.1498-47.2064C85.7398-45.2824 88.7998-42.4994 91.0198-39.1234C93.2698-35.7374 94.6498-31.8484 95.0298-27.7784C95.3898-23.7424 94.7598-19.6764 93.1898-15.9444C91.6698-12.3294 87.5098-10.6324 83.8998-12.1534C80.3598-13.6414 78.6598-17.6604 80.0098-21.2194L80.0998-21.4514C80.7698-23.0414 81.0398-24.7784 80.8898-26.4764C80.7298-28.1874 80.1498-29.8334 79.1798-31.2854C78.2398-32.7074 76.9598-33.8784 75.4498-34.6884C74.0398-35.4414 72.4798-35.8614 70.8798-35.9164L70.5098-35.9224L66.0998-35.9224C62.9398-35.9224 60.1698-38.0114 59.2898-41.0274L59.2198-41.2734C58.1498-45.4754 55.8098-49.2404 52.5098-52.0474C49.3298-54.7554 45.4098-56.4454 41.2698-56.9044L40.7998-56.9504C36.8998-57.2954 34.0098-60.7414 34.3598-64.6474Z"/>
   <path class="hierarchical-1:primary SFSymbolsPreview212121" d="M5.98982-79.5434C8.69982-82.2534 13.0498-82.3144 15.8398-79.7284L16.0298-79.5434L93.0298-2.54343C95.7998 0.229571 95.7998 4.72457 93.0298 7.49757C90.3198 10.2076 85.9698 10.2686 83.1798 7.68257L82.9898 7.49757L5.98982-69.5024C3.21982-72.2754 3.21982-76.7704 5.98982-79.5434Z"/>
  </g>
  <g id="Heavy-S" transform="matrix(1 0 0 1 2587.82 696)">
   <path class="hierarchical-0:secondary SFSymbolsPreview4D4D4D" d="M21.1387-65.912C24.1587-67.582 27.9587-66.486 29.6287-63.465C31.2587-60.514 30.2487-56.818 27.3887-55.092L27.1787-54.972C22.9287-52.623 19.5987-48.924 17.6987-44.457C15.7987-39.999 15.4487-35.026 16.6887-30.335C17.9387-25.652 20.7187-21.513 24.5987-18.583C28.3387-15.756 32.8887-14.217 37.5687-14.189L38.0587-14.191L69.6487-14.192C70.8087-14.193 71.9587-14.373 73.0687-14.727L73.4787-14.868C76.7287-16.044 80.3087-14.366 81.4887-11.121C82.6587-7.87497 80.9787-4.29097 77.7387-3.11597C75.3187-2.23897 72.7787-1.76097 70.2087-1.69897L69.6587-1.69197L38.2587-1.69297C30.6187-1.56897 23.1487-4.00497 17.0587-8.61297C10.9587-13.222 6.57868-19.736 4.60868-27.122C2.64868-34.51 3.20868-42.336 6.19868-49.35C9.17868-56.382 14.4387-62.213 21.1387-65.912ZM34.3487-64.491C34.6587-67.929 37.6887-70.47 41.1287-70.166C48.1987-69.541 54.8987-66.734 60.3087-62.132C64.3987-58.649 67.5987-54.27 69.6687-49.363L69.7387-49.19L70.1587-49.186C73.7387-49.112 77.2587-48.232 80.4487-46.612L80.8987-46.375C84.3687-44.518 87.3187-41.831 89.4687-38.572C91.6387-35.302 92.9687-31.547 93.3287-27.62C93.6887-23.723 93.0787-19.796 91.5587-16.192C90.2187-13.01 86.5587-11.516 83.3787-12.855C80.2687-14.163 78.7687-17.692 79.9487-20.822L80.0387-21.039C80.7587-22.759 81.0487-24.634 80.8887-26.474C80.7087-28.324 80.0787-30.105 79.0387-31.672C78.0287-33.212 76.6387-34.479 74.9987-35.355C73.4787-36.171 71.7887-36.625 70.0587-36.684L69.6587-36.691L65.2487-36.691C62.4787-36.691 60.0387-38.518 59.2587-41.159L59.1887-41.401C58.0787-45.774 55.6387-49.691 52.2087-52.613C48.8987-55.431 44.8187-57.189 40.5087-57.667L40.0287-57.715C36.5887-58.019 34.0487-61.053 34.3487-64.491Z"/>
   <path class="hierarchical-1:primary SFSymbolsPreview212121" d="M5.73868-78.86C8.11868-81.24 11.9387-81.3 14.3887-79.039L14.5787-78.86L91.5787-1.85997C94.0187 0.580029 94.0187 4.53803 91.5787 6.97803C89.1987 9.35803 85.3787 9.41803 82.9287 7.15703L82.7387 6.97803L5.73868-70.022C3.29868-72.462 3.29868-76.42 5.73868-78.86Z"/>
  </g>
  <g id="Bold-S" transform="matrix(1 0 0 1 2292.05 696)">
   <path class="hierarchical-0:secondary SFSymbolsPreview4D4D4D" d="M20.6393-64.7781C23.1993-66.1951 26.4293-65.2691 27.8493-62.7081C29.2293-60.2151 28.3893-57.0911 25.9793-55.6201L25.7793-55.5041C21.3493-53.0521 17.8593-49.1881 15.8793-44.5291C13.8893-39.8741 13.5193-34.6871 14.8293-29.7891C16.1393-24.8951 19.0393-20.5781 23.0693-17.5271C26.9893-14.5711 31.7493-12.9641 36.7093-12.9381L37.2093-12.9411L68.6993-12.9411C69.9593-12.9421 71.2093-13.1381 72.3993-13.5191L72.8493-13.6711C75.5993-14.6731 78.6393-13.2551 79.6393-10.5051C80.6393-7.75409 79.2193-4.71309 76.4693-3.71109C74.1693-2.87209 71.7393-2.41209 69.2793-2.34809L68.7093-2.34109L37.2993-2.34209C29.8693-2.22109 22.6193-4.58909 16.6793-9.06909C10.7593-13.5481 6.49931-19.8801 4.58931-27.0571C2.66931-34.2401 3.20931-41.8521 6.11931-48.6851C9.03931-55.5171 14.1493-61.1821 20.6393-64.7781ZM34.3493-64.1081C34.6093-67.0241 37.1793-69.1791 40.0993-68.9211C46.9693-68.3131 53.4893-65.5831 58.7493-61.1091C62.8693-57.5971 66.0593-53.1501 68.0593-48.1711L68.1493-47.9411L68.6993-47.9411C72.3093-47.9451 75.8393-47.1011 79.0493-45.4761L79.4993-45.2381C82.8193-43.4591 85.6493-40.8861 87.7393-37.7471C89.8193-34.6141 91.0793-31.0091 91.4393-27.2531C91.7893-23.4991 91.1993-19.7161 89.7293-16.2461C88.5893-13.5511 85.4693-12.2941 82.7793-13.4381C80.1593-14.5511 78.8893-17.5311 79.8893-20.1741L79.9693-20.3871C80.7593-22.2401 81.0693-24.2591 80.8793-26.2641C80.6893-28.2821 80.0193-30.2111 78.8993-31.8831C77.7893-33.5651 76.2693-34.9431 74.4993-35.8941C72.8393-36.7841 70.9993-37.2751 69.1093-37.3351L68.7093-37.3411L64.2993-37.3411C61.8693-37.3411 59.7593-38.9911 59.1593-41.3441C58.0093-45.8921 55.4593-49.9821 51.8693-53.0371C48.2893-56.0871 43.8493-57.9481 39.1593-58.3621C36.2493-58.6201 34.0893-61.1921 34.3493-64.1081Z"/>
   <path class="hierarchical-1:primary SFSymbolsPreview212121" d="M5.45931-77.8891C7.46931-79.9001 10.6993-79.9581 12.7793-78.0621L12.9593-77.8891L89.9593-0.889095C92.0293 1.17991 92.0293 4.53591 89.9593 6.60591C87.9493 8.61691 84.7193 8.67391 82.6393 6.77791L82.4593 6.60591L5.45931-70.3941C3.38931-72.4641 3.38931-75.8201 5.45931-77.8891Z"/>
  </g>
  <g id="Semibold-S" transform="matrix(1 0 0 1 1995.99 696)">
   <path class="hierarchical-0:secondary SFSymbolsPreview4D4D4D" d="M20.3147-64.1484C22.5647-65.3914 25.3947-64.5754 26.6347-62.3284C27.8747-60.0804 27.0647-57.2514 24.8147-56.0094C20.2547-53.4874 16.6647-49.5154 14.6347-44.7214C12.5847-39.9254 12.2047-34.5894 13.5447-29.5594C14.8847-24.5324 17.8847-20.0894 22.0347-16.9434C26.0647-13.9024 30.9647-12.2494 36.0647-12.2264L36.5647-12.2284L68.0647-12.2284C69.3947-12.2304 70.7247-12.4414 72.0047-12.8554L72.4347-13.0004C74.8447-13.8754 77.5147-12.6274 78.3847-10.2124C79.2647-7.79842 78.0147-5.13142 75.5947-4.25742C73.3547-3.44342 70.9947-2.99742 68.6147-2.93642L68.0647-2.92842L36.6347-2.92942C29.3547-2.81142 22.2347-5.13342 16.4247-9.52642C10.6147-13.9204 6.43471-20.1304 4.56471-27.1624C2.68471-34.1994 3.21471-41.6634 6.07471-48.3624C8.92471-55.0644 13.9347-60.6224 20.3147-64.1484ZM34.3547-63.9894C34.5747-66.5474 36.8347-68.4374 39.3947-68.2114C46.1347-67.6154 52.5247-64.9394 57.6747-60.5524C61.8247-57.0184 65.0147-52.5154 66.9647-47.4684L67.0547-47.2294L68.0547-47.2294C71.5547-47.2334 74.9947-46.4114 78.1047-44.8334L78.5547-44.6034C81.7847-42.8724 84.5347-40.3664 86.5347-37.3254C88.5647-34.2764 89.8047-30.7734 90.1447-27.1144C90.4747-23.4784 89.9047-19.8144 88.4947-16.4514C87.4947-14.0844 84.7647-12.9724 82.4047-13.9684C80.0347-14.9644 78.9247-17.6904 79.9147-20.0574C80.7447-22.0184 81.0747-24.1564 80.8847-26.2624C80.6847-28.3754 79.9647-30.4094 78.7847-32.1914C77.6247-33.9544 76.0347-35.4024 74.1647-36.4044C72.4147-37.3404 70.4747-37.8594 68.4847-37.9224L68.0647-37.9294L63.6547-37.9294C61.5247-37.9294 59.6747-39.3724 59.1447-41.4344C57.9547-46.1284 55.3347-50.3334 51.6547-53.4704C48.0947-56.4994 43.7047-58.3884 39.0747-58.8984L38.5747-58.9474C36.0147-59.1734 34.1247-61.4304 34.3547-63.9894Z"/>
   <path class="hierarchical-1:primary SFSymbolsPreview212121" d="M5.27471-77.3674C7.03471-79.1274 9.85471-79.1824 11.6747-77.5324L11.8547-77.3674L88.8547-0.367419C90.6647 1.44858 90.6647 4.39258 88.8547 6.20858C87.0947 7.96758 84.2747 8.02258 82.4547 6.37358L82.2747 6.20858L5.27471-70.7914C3.46471-72.6074 3.46471-75.5514 5.27471-77.3674Z"/>
  </g>
  <g id="Medium-S" transform="matrix(1 0 0 1 1699.78 696)">
   <path class="hierarchical-0:secondary SFSymbolsPreview4D4D4D" d="M20.0545-63.6626C22.0645-64.7706 24.5845-64.0436 25.6945-62.0376C26.8045-60.0316 26.0745-57.5066 24.0745-56.3976C19.4145-53.8226 15.7545-49.7656 13.6745-44.8686C11.5845-39.9706 11.1945-34.5196 12.5645-29.3816C13.9345-24.2466 16.9845-19.7086 21.2345-16.4966C25.3445-13.3896 30.3545-11.7006 35.5545-11.6776L36.0645-11.6806L67.5645-11.6806C68.9545-11.6816 70.3345-11.9006 71.6645-12.3306L72.1045-12.4816C74.2545-13.2626 76.6345-12.1486 77.4145-9.99363C78.1945-7.83863 77.0845-5.45963 74.9245-4.67863C72.7345-3.88363 70.4345-3.44763 68.1045-3.38763L67.5645-3.38063L36.1345-3.38063C28.9545-3.26463 21.9545-5.55063 16.2345-9.87563C10.5045-14.2036 6.39446-20.3186 4.54446-27.2426C2.69446-34.1716 3.22446-41.5206 6.03446-48.1176C8.83446-54.7176 13.7745-60.1906 20.0545-63.6626ZM34.3545-63.8966C34.5545-66.1796 36.5645-67.8666 38.8545-67.6646C45.4845-67.0776 51.7745-64.4426 56.8545-60.1226C61.0545-56.5436 64.2545-51.9556 66.1645-46.8126L66.2045-46.6806L67.5645-46.6806C70.9645-46.6846 74.3245-45.8846 77.3645-44.3496L77.8145-44.1136C80.9745-42.4216 83.6545-39.9736 85.6245-36.9996C87.6045-34.0196 88.8145-30.5956 89.1445-27.0206C89.4645-23.4656 88.9145-19.8836 87.5345-16.5966C86.6445-14.4836 84.2045-13.4916 82.0945-14.3806C79.9845-15.2696 78.9945-17.7026 79.8745-19.8146C80.7345-21.8506 81.0845-24.0706 80.8845-26.2606C80.6745-28.4556 79.9245-30.5686 78.7045-32.4186C77.4945-34.2496 75.8445-35.7556 73.8945-36.7966C72.0745-37.7736 70.0445-38.3126 67.9745-38.3746L67.5645-38.3806L63.1545-38.3806C61.2545-38.3806 59.6045-39.6686 59.1345-41.5086C57.9145-46.3026 55.2345-50.5986 51.4745-53.8026C47.7145-57.0066 43.0445-58.9616 38.1145-59.3966C35.8345-59.5986 34.1445-61.6126 34.3545-63.8966Z"/>
   <path class="hierarchical-1:primary SFSymbolsPreview212121" d="M5.13446-76.9656C6.69446-78.5316 9.20446-78.5846 10.8345-77.1226L10.9945-76.9656L87.9945 0.0343654C89.6145 1.65537 89.6145 4.28237 87.9945 5.90337C86.4345 7.47037 83.9245 7.52237 82.2945 6.06037L82.1345 5.90337L5.13446-71.0966C3.50446-72.7176 3.50446-75.3446 5.13446-76.9656Z"/>
  </g>
  <g id="Regular-S" transform="matrix(1 0 0 1 1403.72 696)">
   <path class="hierarchical-0:secondary SFSymbolsPreview4D4D4D" d="M19.7233-63.0299C21.4133-63.9649 23.5433-63.3509 24.4733-61.6589C25.4133-59.9669 24.7933-57.8379 23.1033-56.9029C18.3233-54.2569 14.5533-50.0889 12.4233-45.0599C10.2733-40.0279 9.87328-34.4279 11.2833-29.1499C12.6933-23.8749 15.8333-19.2139 20.1933-15.9139C24.4233-12.7189 29.5633-10.9839 34.9133-10.9629L35.4133-10.9659L66.9133-10.9659C68.3733-10.9679 69.8133-11.1979 71.2133-11.6489L71.6733-11.8069C73.4933-12.4649 75.4933-11.5259 76.1533-9.70895C76.8133-7.89095 75.8733-5.88395 74.0533-5.22595C71.9433-4.45895 69.7233-4.03695 67.4733-3.97395L66.9133-3.96595L35.4733-3.96695C28.4433-3.85295 21.5733-6.09295 15.9733-10.3309C10.3633-14.5709 6.33328-20.5619 4.52328-27.3459C2.71328-34.1349 3.22328-41.3359 5.98328-47.7999C8.72328-54.2659 13.5633-59.6279 19.7233-63.0299ZM34.3433-63.7749C34.5133-65.6999 36.2133-67.1229 38.1433-66.9529C44.6433-66.3779 50.8133-63.7959 55.7833-59.5639C59.8933-56.0609 63.0233-51.5719 64.8933-46.5399L65.1033-45.9669L66.9133-45.9669C70.2133-45.9699 73.4733-45.1939 76.4133-43.7059L76.8533-43.4769C79.9233-41.8359 82.5233-39.4609 84.4333-36.5759C86.3533-33.6849 87.5233-30.3639 87.8533-26.8989C88.1633-23.4489 87.6233-19.9739 86.2833-16.7839C85.5333-15.0029 83.4733-14.1659 81.6933-14.9159C79.9133-15.6649 79.0733-17.7169 79.8233-19.4989C80.7233-21.6329 81.0833-23.9599 80.8833-26.2569C80.6633-28.5589 79.8833-30.7749 78.5933-32.7119C77.3233-34.6339 75.5933-36.2139 73.5533-37.3059C71.6433-38.3299 69.5133-38.8959 67.3433-38.9599L66.9133-38.9669L62.5033-38.9669C60.9033-38.9669 59.5033-40.0529 59.1133-41.6049C57.8633-46.5289 55.1133-50.9419 51.2433-54.2329C47.3733-57.5249 42.5833-59.5329 37.5233-59.9799C35.6033-60.1509 34.1733-61.8489 34.3433-63.7749Z"/>
   <path class="hierarchical-1:primary SFSymbolsPreview212121" d="M4.94328-76.4419C6.25328-77.7599 8.36328-77.8069 9.74328-76.5829L9.88328-76.4419L86.8833 0.558054C88.2533 1.92505 88.2533 4.14105 86.8833 5.50805C85.5733 6.82605 83.4633 6.87305 82.0833 5.64905L81.9433 5.50805L4.94328-71.4919C3.57328-72.8589 3.57328-75.0749 4.94328-76.4419Z"/>
  </g>
  <g id="Light-S" transform="matrix(1 0 0 1 1107.81 696)">
   <path class="hierarchical-0:secondary SFSymbolsPreview4D4D4D" d="M19.3027-62.2507C20.6127-62.9717 22.2527-62.4987 22.9727-61.1937C23.6927-59.8887 23.2227-58.2457 21.9227-57.5247C16.9727-54.7917 13.0927-50.4877 10.8827-45.2947C8.67274-40.0987 8.25274-34.3157 9.71274-28.8657C11.1627-23.4177 14.4027-18.6037 18.9127-15.1967C23.2727-11.8977 28.5927-10.1067 34.0927-10.0847L34.6127-10.0877L66.1127-10.0877C67.8227-10.0887 69.5227-10.3897 71.1427-10.9757C72.5427-11.4837 74.0927-10.7587 74.6027-9.35674C75.1127-7.95474 74.3827-6.40674 72.9827-5.89874C70.9427-5.16074 68.8127-4.75474 66.6527-4.69474L66.1127-4.68774L34.6527-4.68774C27.8027-4.57674 21.1127-6.75974 15.6527-10.8897C10.1927-15.0227 6.25274-20.8617 4.49274-27.4737C2.73274-34.0897 3.23274-41.1077 5.91274-47.4087C8.59274-53.7097 13.3027-58.9347 19.3027-62.2507ZM37.1027-66.0867L37.2727-66.0777C43.6127-65.5167 49.6127-63.0007 54.4627-58.8757C58.7427-55.2357 61.9227-50.5037 63.6927-45.2027L63.7227-45.0877L66.1127-45.0877C69.2827-45.0907 72.4027-44.3487 75.2327-42.9237L75.6727-42.6927C78.6227-41.1137 81.1327-38.8307 82.9627-36.0547C84.8127-33.2737 85.9427-30.0787 86.2527-26.7477C86.5527-23.4287 86.0327-20.0847 84.7427-17.0157C84.1627-15.6407 82.5827-14.9957 81.2027-15.5737C79.8327-16.1527 79.1827-17.7357 79.7627-19.1097C80.7127-21.3647 81.0927-23.8227 80.8727-26.2527C80.6427-28.6867 79.8127-31.0277 78.4627-33.0737C77.1127-35.1067 75.2827-36.7767 73.1327-37.9327C71.1027-39.0147 68.8627-39.6127 66.5727-39.6807L66.1127-39.6877L61.7027-39.6877C60.4627-39.6877 59.3927-40.5257 59.0827-41.7227C57.7927-46.8077 54.9527-51.3647 50.9627-54.7637C46.9727-58.1627 42.0227-60.2367 36.7927-60.6977C35.3127-60.8297 34.2127-62.1397 34.3427-63.6257C34.4727-65.0537 35.6827-66.1237 37.1027-66.0867Z"/>
   <path class="hierarchical-1:primary SFSymbolsPreview212121" d="M4.70274-75.7967C5.71274-76.8077 7.32274-76.8497 8.38274-75.9237L8.52274-75.7967L85.5227 1.20326C86.5727 2.25726 86.5727 3.96726 85.5227 5.02126C84.5127 6.03126 82.9027 6.07426 81.8427 5.14726L81.7027 5.02126L4.70274-71.9787C3.65274-73.0327 3.65274-74.7427 4.70274-75.7967Z"/>
  </g>
  <g id="Thin-S" transform="matrix(1 0 0 1 812.151 696)">
   <path class="hierarchical-0:secondary SFSymbolsPreview4D4D4D" d="M18.7628-61.2296C19.5608-61.6706 20.5638-61.3816 21.0048-60.5836C21.4458-59.7866 21.1568-58.7826 20.3598-58.3416C15.2148-55.4966 11.1688-51.0136 8.86682-45.6056C6.56382-40.1956 6.13582-34.1736 7.64982-28.4926C9.16482-22.8126 12.5358-17.8026 17.2258-14.2576C21.7788-10.8186 27.3198-8.95159 33.0408-8.93259L33.5608-8.93559L65.0598-8.93559C66.8958-8.93759 68.7198-9.25959 70.4488-9.88659C71.3048-10.1976 72.2518-9.75459 72.5628-8.89859C72.8728-8.04159 72.4308-7.09559 71.5738-6.78459C69.6468-6.08559 67.6208-5.69959 65.5738-5.64259L65.0608-5.63559L33.5878-5.63559C26.9738-5.52859 20.5148-7.63759 15.2368-11.6256C9.95882-15.6136 6.16582-21.2506 4.46082-27.6426C2.75682-34.0346 3.23882-40.8116 5.82982-46.8976C8.42182-52.9836 12.9738-58.0286 18.7628-61.2296ZM35.9798-64.9356L36.1218-64.9296C42.2448-64.3886 48.0488-61.9576 52.7298-57.9746C56.9848-54.3516 60.1218-49.6086 61.7938-44.3006L61.9048-43.9356L65.0598-43.9356C68.0568-43.9386 71.0118-43.2386 73.6848-41.8946L74.1278-41.6656C76.9168-40.1706 79.2918-38.0076 81.0408-35.3706C82.7898-32.7346 83.8588-29.7046 84.1508-26.5556C84.4428-23.4036 83.9498-20.2296 82.7158-17.3166C82.3598-16.4776 81.3918-16.0856 80.5528-16.4416C79.7138-16.7976 79.3218-17.7656 79.6778-18.6046C80.6988-21.0146 81.1068-23.6426 80.8648-26.2506C80.6228-28.8576 79.7378-31.3646 78.2908-33.5466C76.8428-35.7296 74.8778-37.5196 72.5698-38.7566C70.3978-39.9196 67.9848-40.5606 65.5238-40.6296L65.0618-40.6356L60.6518-40.6356C59.8968-40.6356 59.2378-41.1476 59.0528-41.8796C57.7078-47.1736 54.7508-51.9196 50.5908-55.4616C46.4308-59.0016 41.2728-61.1616 35.8308-61.6426C34.9238-61.7226 34.2528-62.5236 34.3328-63.4306C34.4088-64.2906 35.1318-64.9386 35.9798-64.9356Z"/>
   <path class="hierarchical-1:primary SFSymbolsPreview212121" d="M4.39482-74.9526C5.00082-75.5596 5.96182-75.5946 6.61082-75.0596L6.72782-74.9526L83.7278 2.04741C84.3728 2.69141 84.3728 3.73641 83.7278 4.38041C83.1218 4.98741 82.1608 5.02341 81.5128 4.48741L81.3948 4.38041L4.39482-72.6196C3.75082-73.2636 3.75082-74.3086 4.39482-74.9526Z"/>
  </g>
  <g id="Ultralight-S" transform="matrix(1 0 0 1 515.99 696)">
   <path class="hierarchical-0:secondary SFSymbolsPreview4D4D4D" d="M18.479-60.6945C19.011-60.9885 19.68-60.7955 19.974-60.2645C20.268-59.7325 20.075-59.0635 19.544-58.7695C14.291-55.8645 10.161-51.2885 7.80996-45.7665C5.45996-40.2445 5.02196-34.0965 6.56796-28.2975C8.11496-22.4985 11.556-17.3835 16.344-13.7655C20.992-10.2535 26.649-8.34845 32.481-8.32845L33.011-8.33145L64.51-8.33145C66.41-8.33345 68.298-8.66645 70.086-9.31545C70.657-9.52345 71.288-9.22845 71.495-8.65745C71.703-8.08645 71.408-7.45545 70.836-7.24745C68.964-6.56845 66.996-6.19445 65.009-6.13945L64.511-6.13145L33.029-6.13245C26.538-6.02745 20.198-8.09645 15.018-12.0105C9.83796-15.9245 6.11596-21.4575 4.44196-27.7305C2.76996-34.0035 3.24296-40.6555 5.78596-46.6285C8.32896-52.6015 12.797-57.5525 18.479-60.6945ZM35.403-64.3325L35.523-64.3275C41.533-63.7965 47.229-61.4115 51.824-57.5015C56.139-53.8275 59.282-48.9805 60.878-43.5595L60.942-43.3325L64.51-43.3325C67.421-43.3355 70.291-42.6555 72.888-41.3505L73.318-41.1265C76.027-39.6745 78.334-37.5745 80.032-35.0135C81.731-32.4525 82.769-29.5105 83.053-26.4505C83.337-23.3905 82.858-20.3065 81.659-17.4785C81.422-16.9185 80.777-16.6575 80.217-16.8945C79.658-17.1315 79.397-17.7775 79.634-18.3365C80.69-20.8305 81.113-23.5485 80.862-26.2475C80.612-28.9445 79.697-31.5385 78.199-33.7975C76.701-36.0555 74.668-37.9075 72.279-39.1875C70.032-40.3915 67.535-41.0545 64.989-41.1255L64.512-41.1325L60.102-41.1325C59.598-41.1325 59.159-41.4735 59.035-41.9615C57.663-47.3665 54.644-52.2115 50.398-55.8265C46.151-59.4405 40.885-61.6455 35.33-62.1365C34.725-62.1895 34.277-62.7235 34.331-63.3295C34.381-63.8935 34.849-64.3215 35.403-64.3325Z"/>
   <path class="hierarchical-1:primary SFSymbolsPreview212121" d="M4.23396-74.5095C4.63196-74.9085 5.26196-74.9375 5.69296-74.5955L5.78896-74.5095L82.789 2.49055C83.219 2.91955 83.219 3.61655 82.789 4.04555C82.39 4.44455 81.761 4.47355 81.33 4.13155L81.234 4.04555L4.23396-72.9545C3.80396-73.3835 3.80396-74.0805 4.23396-74.5095Z"/>
  </g>
 </g>
</svg>
