<?xml version="1.0" encoding="UTF-8"?>
<!--Generator: Apple Native CoreSVG 175-->
<!DOCTYPE svg
PUBLIC "-//W3C//DTD SVG 1.1//EN"
       "http://www.w3.org/Graphics/SVG/1.1/DTD/svg11.dtd">
<svg version="1.1" xmlns="http://www.w3.org/2000/svg" xmlns:xlink="http://www.w3.org/1999/xlink" width="3300" height="2200">
 <!--glyph: "", point size: 100.0, font version: "17.0d12e1", template writer version: "65.1"-->
 <style>.hierarchical-0:primary {fill:#212121}
.hierarchical-1:secondary {fill:#4D4D4D}

.SFSymbolsPreview212121 {fill:#212121;opacity:1.0}
.SFSymbolsPreview4D4D4D {fill:#4D4D4D;opacity:1.0}
</style>
 <g id="Notes">
  <rect height="2200" id="artboard" style="fill:white;opacity:1" width="3300" x="0" y="0"/>
  <line style="fill:none;stroke:black;opacity:1;stroke-width:0.5;" x1="263" x2="3036" y1="292" y2="292"/>
  <text style="stroke:none;fill:black;font-family:sans-serif;font-size:13;font-weight:bold;" transform="matrix(1 0 0 1 263 322)">Weight/Scale Variations</text>
  <text style="stroke:none;fill:black;font-family:sans-serif;font-size:13;text-anchor:middle;" transform="matrix(1 0 0 1 559.711 322)">Ultralight</text>
  <text style="stroke:none;fill:black;font-family:sans-serif;font-size:13;text-anchor:middle;" transform="matrix(1 0 0 1 856.422 322)">Thin</text>
  <text style="stroke:none;fill:black;font-family:sans-serif;font-size:13;text-anchor:middle;" transform="matrix(1 0 0 1 1153.13 322)">Light</text>
  <text style="stroke:none;fill:black;font-family:sans-serif;font-size:13;text-anchor:middle;" transform="matrix(1 0 0 1 1449.84 322)">Regular</text>
  <text style="stroke:none;fill:black;font-family:sans-serif;font-size:13;text-anchor:middle;" transform="matrix(1 0 0 1 1746.56 322)">Medium</text>
  <text style="stroke:none;fill:black;font-family:sans-serif;font-size:13;text-anchor:middle;" transform="matrix(1 0 0 1 2043.27 322)">Semibold</text>
  <text style="stroke:none;fill:black;font-family:sans-serif;font-size:13;text-anchor:middle;" transform="matrix(1 0 0 1 2339.98 322)">Bold</text>
  <text style="stroke:none;fill:black;font-family:sans-serif;font-size:13;text-anchor:middle;" transform="matrix(1 0 0 1 2636.69 322)">Heavy</text>
  <text style="stroke:none;fill:black;font-family:sans-serif;font-size:13;text-anchor:middle;" transform="matrix(1 0 0 1 2933.4 322)">Black</text>
  <line style="fill:none;stroke:black;opacity:1;stroke-width:0.5;" x1="263" x2="3036" y1="1903" y2="1903"/>
  <g transform="matrix(1 0 0 1 263 1933)">
   <path d="M9.24805 0.830078Q10.8691 0.830078 12.2949 0.214844Q13.7207-0.400391 14.8096-1.49414Q15.8984-2.58789 16.5186-4.01367Q17.1387-5.43945 17.1387-7.05078Q17.1387-8.66211 16.5186-10.0879Q15.8984-11.5137 14.8047-12.6074Q13.7109-13.7012 12.2852-14.3164Q10.8594-14.9316 9.23828-14.9316Q7.62695-14.9316 6.20117-14.3164Q4.77539-13.7012 3.69141-12.6074Q2.60742-11.5137 1.9873-10.0879Q1.36719-8.66211 1.36719-7.05078Q1.36719-5.43945 1.9873-4.01367Q2.60742-2.58789 3.69629-1.49414Q4.78516-0.400391 6.21094 0.214844Q7.63672 0.830078 9.24805 0.830078ZM9.24805-0.654297Q7.91992-0.654297 6.7627-1.14746Q5.60547-1.64062 4.73145-2.51953Q3.85742-3.39844 3.36426-4.56055Q2.87109-5.72266 2.87109-7.05078Q2.87109-8.37891 3.35938-9.54102Q3.84766-10.7031 4.72168-11.582Q5.5957-12.4609 6.75293-12.9541Q7.91016-13.4473 9.23828-13.4473Q10.5762-13.4473 11.7334-12.9541Q12.8906-12.4609 13.7695-11.582Q14.6484-10.7031 15.1465-9.54102Q15.6445-8.37891 15.6445-7.05078Q15.6445-5.72266 15.1514-4.56055Q14.6582-3.39844 13.7842-2.51953Q12.9102-1.64062 11.748-1.14746Q10.5859-0.654297 9.24805-0.654297ZM5.6543-7.05078Q5.6543-6.72852 5.85938-6.52832Q6.06445-6.32812 6.40625-6.32812L8.51562-6.32812L8.51562-4.20898Q8.51562-3.88672 8.71094-3.67676Q8.90625-3.4668 9.23828-3.4668Q9.56055-3.4668 9.77051-3.67676Q9.98047-3.88672 9.98047-4.20898L9.98047-6.32812L12.0898-6.32812Q12.4219-6.32812 12.627-6.52832Q12.832-6.72852 12.832-7.05078Q12.832-7.38281 12.627-7.58789Q12.4219-7.79297 12.0898-7.79297L9.98047-7.79297L9.98047-9.90234Q9.98047-10.2344 9.77051-10.4443Q9.56055-10.6543 9.23828-10.6543Q8.90625-10.6543 8.71094-10.4443Q8.51562-10.2344 8.51562-9.90234L8.51562-7.79297L6.40625-7.79297Q6.06445-7.79297 5.85938-7.58789Q5.6543-7.38281 5.6543-7.05078Z"/>
  </g>
  <g transform="matrix(1 0 0 1 281.867 1933)">
   <path d="M11.709 2.91016Q13.75 2.91016 15.5518 2.12891Q17.3535 1.34766 18.7305-0.0292969Q20.1074-1.40625 20.8887-3.20801Q21.6699-5.00977 21.6699-7.05078Q21.6699-9.0918 20.8887-10.8936Q20.1074-12.6953 18.7305-14.0723Q17.3535-15.4492 15.5469-16.2305Q13.7402-17.0117 11.6992-17.0117Q9.6582-17.0117 7.85645-16.2305Q6.05469-15.4492 4.68262-14.0723Q3.31055-12.6953 2.5293-10.8936Q1.74805-9.0918 1.74805-7.05078Q1.74805-5.00977 2.5293-3.20801Q3.31055-1.40625 4.6875-0.0292969Q6.06445 1.34766 7.86621 2.12891Q9.66797 2.91016 11.709 2.91016ZM11.709 1.25Q9.98047 1.25 8.47656 0.605469Q6.97266-0.0390625 5.83496-1.17676Q4.69727-2.31445 4.05762-3.81836Q3.41797-5.32227 3.41797-7.05078Q3.41797-8.7793 4.05762-10.2832Q4.69727-11.7871 5.83008-12.9297Q6.96289-14.0723 8.4668-14.7119Q9.9707-15.3516 11.6992-15.3516Q13.4277-15.3516 14.9316-14.7119Q16.4355-14.0723 17.5781-12.9297Q18.7207-11.7871 19.3652-10.2832Q20.0098-8.7793 20.0098-7.05078Q20.0098-5.32227 19.3701-3.81836Q18.7305-2.31445 17.5928-1.17676Q16.4551-0.0390625 14.9463 0.605469Q13.4375 1.25 11.709 1.25ZM7.17773-7.05078Q7.17773-6.69922 7.41211-6.47461Q7.64648-6.25 8.01758-6.25L10.8887-6.25L10.8887-3.36914Q10.8887-2.99805 11.1133-2.76855Q11.3379-2.53906 11.6895-2.53906Q12.0605-2.53906 12.29-2.76855Q12.5195-2.99805 12.5195-3.36914L12.5195-6.25L15.4004-6.25Q15.7715-6.25 16.001-6.47461Q16.2305-6.69922 16.2305-7.05078Q16.2305-7.42188 16.001-7.65137Q15.7715-7.88086 15.4004-7.88086L12.5195-7.88086L12.5195-10.752Q12.5195-11.1328 12.29-11.3623Q12.0605-11.5918 11.6895-11.5918Q11.3379-11.5918 11.1133-11.3574Q10.8887-11.123 10.8887-10.752L10.8887-7.88086L8.01758-7.88086Q7.63672-7.88086 7.40723-7.65137Q7.17773-7.42188 7.17773-7.05078Z"/>
  </g>
  <g transform="matrix(1 0 0 1 305.646 1933)">
   <path d="M14.9707 5.66406Q17.0605 5.66406 18.96 5.01465Q20.8594 4.36523 22.4512 3.19336Q24.043 2.02148 25.2197 0.429688Q26.3965-1.16211 27.0459-3.06641Q27.6953-4.9707 27.6953-7.05078Q27.6953-9.14062 27.0459-11.04Q26.3965-12.9395 25.2197-14.5312Q24.043-16.123 22.4512-17.2998Q20.8594-18.4766 18.9551-19.126Q17.0508-19.7754 14.9609-19.7754Q12.8711-19.7754 10.9717-19.126Q9.07227-18.4766 7.48535-17.2998Q5.89844-16.123 4.72168-14.5312Q3.54492-12.9395 2.90039-11.04Q2.25586-9.14062 2.25586-7.05078Q2.25586-4.9707 2.90527-3.06641Q3.55469-1.16211 4.72656 0.429688Q5.89844 2.02148 7.49023 3.19336Q9.08203 4.36523 10.9814 5.01465Q12.8809 5.66406 14.9707 5.66406ZM14.9707 3.84766Q13.1641 3.84766 11.5283 3.2959Q9.89258 2.74414 8.53516 1.74805Q7.17773 0.751953 6.17676-0.610352Q5.17578-1.97266 4.62891-3.6084Q4.08203-5.24414 4.08203-7.05078Q4.08203-8.86719 4.62891-10.5029Q5.17578-12.1387 6.17188-13.501Q7.16797-14.8633 8.52539-15.8594Q9.88281-16.8555 11.5186-17.4023Q13.1543-17.9492 14.9609-17.9492Q16.7773-17.9492 18.4131-17.4023Q20.0488-16.8555 21.4111-15.8594Q22.7734-14.8633 23.7695-13.501Q24.7656-12.1387 25.3174-10.5029Q25.8691-8.86719 25.8691-7.05078Q25.8789-5.24414 25.332-3.6084Q24.7852-1.97266 23.7842-0.610352Q22.7832 0.751953 21.4209 1.74805Q20.0586 2.74414 18.4229 3.2959Q16.7871 3.84766 14.9707 3.84766ZM9.19922-7.05078Q9.19922-6.66992 9.45801-6.4209Q9.7168-6.17188 10.1172-6.17188L14.0625-6.17188L14.0625-2.2168Q14.0625-1.81641 14.3115-1.55762Q14.5605-1.29883 14.9512-1.29883Q15.3516-1.29883 15.6104-1.55273Q15.8691-1.80664 15.8691-2.2168L15.8691-6.17188L19.8242-6.17188Q20.2246-6.17188 20.4785-6.4209Q20.7324-6.66992 20.7324-7.05078Q20.7324-7.46094 20.4785-7.71484Q20.2246-7.96875 19.8242-7.96875L15.8691-7.96875L15.8691-11.9141Q15.8691-12.3242 15.6104-12.583Q15.3516-12.8418 14.9512-12.8418Q14.5605-12.8418 14.3115-12.583Q14.0625-12.3242 14.0625-11.9141L14.0625-7.96875L10.1172-7.96875Q9.70703-7.96875 9.45312-7.71484Q9.19922-7.46094 9.19922-7.05078Z"/>
  </g>
  <text style="stroke:none;fill:black;font-family:sans-serif;font-size:13;font-weight:bold;" transform="matrix(1 0 0 1 263 1953)">Design Variations</text>
  <text style="stroke:none;fill:black;font-family:sans-serif;font-size:13;" transform="matrix(1 0 0 1 263 1971)">Symbols are supported in up to nine weights and three scales.</text>
  <text style="stroke:none;fill:black;font-family:sans-serif;font-size:13;" transform="matrix(1 0 0 1 263 1989)">For optimal layout with text and other symbols, vertically align</text>
  <text style="stroke:none;fill:black;font-family:sans-serif;font-size:13;" transform="matrix(1 0 0 1 263 2007)">symbols with the adjacent text.</text>
  <line style="fill:none;stroke:#00AEEF;stroke-width:0.5;opacity:1.0;" x1="776" x2="776" y1="1919" y2="1933"/>
  <g transform="matrix(1 0 0 1 776 1933)">
   <path d="M3.31055 0.15625Q3.70117 0.15625 3.91602-0.00976562Q4.13086-0.175781 4.26758-0.585938L5.52734-4.0332L11.2891-4.0332L12.5488-0.585938Q12.6855-0.175781 12.9004-0.00976562Q13.1152 0.15625 13.4961 0.15625Q13.8867 0.15625 14.1162-0.0585938Q14.3457-0.273438 14.3457-0.644531Q14.3457-0.869141 14.2383-1.17188L9.6582-13.3691Q9.48242-13.8184 9.17969-14.043Q8.87695-14.2676 8.4082-14.2676Q7.5-14.2676 7.17773-13.3789L2.59766-1.16211Q2.49023-0.859375 2.49023-0.634766Q2.49023-0.263672 2.70996-0.0537109Q2.92969 0.15625 3.31055 0.15625ZM6.00586-5.51758L8.37891-12.0898L8.42773-12.0898L10.8008-5.51758Z"/>
  </g>
  <line style="fill:none;stroke:#00AEEF;stroke-width:0.5;opacity:1.0;" x1="793.197" x2="793.197" y1="1919" y2="1933"/>
  <text style="stroke:none;fill:black;font-family:sans-serif;font-size:13;font-weight:bold;" transform="matrix(1 0 0 1 776 1953)">Margins</text>
  <text style="stroke:none;fill:black;font-family:sans-serif;font-size:13;" transform="matrix(1 0 0 1 776 1971)">Leading and trailing margins on the left and right side of each symbol</text>
  <text style="stroke:none;fill:black;font-family:sans-serif;font-size:13;" transform="matrix(1 0 0 1 776 1989)">can be adjusted by modifying the x-location of the margin guidelines.</text>
  <text style="stroke:none;fill:black;font-family:sans-serif;font-size:13;" transform="matrix(1 0 0 1 776 2007)">Modifications are automatically applied proportionally to all</text>
  <text style="stroke:none;fill:black;font-family:sans-serif;font-size:13;" transform="matrix(1 0 0 1 776 2025)">scales and weights.</text>
  <g transform="matrix(1 0 0 1 1289 1933)">
   <path d="M2.8418 1.86523L4.54102 3.57422Q5.18555 4.22852 5.90332 4.17969Q6.62109 4.13086 7.31445 3.35938L18.0078-8.42773L17.041-9.4043L6.42578 2.27539Q6.16211 2.57812 5.89355 2.61719Q5.625 2.65625 5.27344 2.30469L4.10156 1.14258Q3.75 0.791016 3.79395 0.522461Q3.83789 0.253906 4.14062-0.0195312L15.6152-10.8203L14.6387-11.7871L3.04688-0.898438Q2.30469-0.214844 2.25098 0.498047Q2.19727 1.21094 2.8418 1.86523ZM9.25781-16.3281Q8.94531-16.0254 8.90625-15.6348Q8.86719-15.2441 9.04297-14.9512Q9.21875-14.6777 9.55566-14.541Q9.89258-14.4043 10.3809-14.5215Q11.4746-14.7754 12.5977-14.7314Q13.7207-14.6875 14.7949-13.9844L14.209-12.5293Q13.9551-11.9043 14.0674-11.4404Q14.1797-10.9766 14.5801-10.5664L16.875-8.25195Q17.2363-7.88086 17.5781-7.82227Q17.9199-7.76367 18.3398-7.8418L19.4043-8.03711L20.0684-7.36328L20.0293-6.80664Q20-6.43555 20.1221-6.12305Q20.2441-5.81055 20.6055-5.44922L21.3672-4.70703Q21.7285-4.3457 22.1533-4.33105Q22.5781-4.31641 22.9297-4.66797L25.8398-7.58789Q26.1914-7.93945 26.1816-8.35449Q26.1719-8.76953 25.8105-9.13086L25.0391-9.89258Q24.6875-10.2539 24.3799-10.3857Q24.0723-10.5176 23.7109-10.4883L23.1348-10.4395L22.4902-11.0742L22.7344-12.1973Q22.832-12.6172 22.6953-12.9834Q22.5586-13.3496 22.1191-13.7891L19.9219-15.9766Q18.6719-17.2168 17.2607-17.8369Q15.8496-18.457 14.4189-18.4814Q12.9883-18.5059 11.665-17.959Q10.3418-17.4121 9.25781-16.3281ZM10.752-15.957Q11.6602-16.6211 12.7002-16.9043Q13.7402-17.1875 14.8047-17.085Q15.8691-16.9824 16.8701-16.5137Q17.8711-16.0449 18.7012-15.2051L21.1328-12.793Q21.3086-12.6172 21.3525-12.4512Q21.3965-12.2852 21.3379-12.0312L21.0156-10.5469L22.5195-9.0625L23.5059-9.12109Q23.6914-9.13086 23.7891-9.09668Q23.8867-9.0625 24.0332-8.91602L24.6094-8.33984L22.168-5.89844L21.5918-6.47461Q21.4453-6.62109 21.4062-6.71875Q21.3672-6.81641 21.377-7.01172L21.4453-7.98828L19.9512-9.47266L18.4277-9.21875Q18.1836-9.16992 18.042-9.2041Q17.9004-9.23828 17.7148-9.41406L15.7129-11.416Q15.5176-11.5918 15.4932-11.7529Q15.4688-11.9141 15.5859-12.1875L16.4648-14.2773Q15.293-15.3711 13.8281-15.791Q12.3633-16.2109 10.8398-15.7617Q10.7227-15.7324 10.6885-15.8057Q10.6543-15.8789 10.752-15.957Z"/>
  </g>
  <text style="stroke:none;fill:black;font-family:sans-serif;font-size:13;font-weight:bold;" transform="matrix(1 0 0 1 1289 1953)">Exporting</text>
  <text style="stroke:none;fill:black;font-family:sans-serif;font-size:13;" transform="matrix(1 0 0 1 1289 1971)">Symbols should be outlined when exporting to ensure the</text>
  <text style="stroke:none;fill:black;font-family:sans-serif;font-size:13;" transform="matrix(1 0 0 1 1289 1989)">design is preserved when submitting to Xcode.</text>
  <text id="template-version" style="stroke:none;fill:black;font-family:sans-serif;font-size:13;text-anchor:end;" transform="matrix(1 0 0 1 3036 1933)">Template v.3.0</text>
  <text style="stroke:none;fill:black;font-family:sans-serif;font-size:13;text-anchor:end;" transform="matrix(1 0 0 1 3036 1951)">Requires Xcode 13 or greater</text>
  <text id="descriptive-name" style="stroke:none;fill:black;font-family:sans-serif;font-size:13;text-anchor:end;" transform="matrix(1 0 0 1 3036 1969)">Generated from instagram</text>
  <text style="stroke:none;fill:black;font-family:sans-serif;font-size:13;text-anchor:end;" transform="matrix(1 0 0 1 3036 1987)">Typeset at 100 points</text>
  <text style="stroke:none;fill:black;font-family:sans-serif;font-size:13;" transform="matrix(1 0 0 1 263 726)">Small</text>
  <text style="stroke:none;fill:black;font-family:sans-serif;font-size:13;" transform="matrix(1 0 0 1 263 1156)">Medium</text>
  <text style="stroke:none;fill:black;font-family:sans-serif;font-size:13;" transform="matrix(1 0 0 1 263 1586)">Large</text>
 </g>
 <g id="Guides">
  <g id="H-reference" style="fill:#27AAE1;stroke:none;" transform="matrix(1 0 0 1 339 696)">
   <path d="M0.976562 0L3.66211 0L29.3457-67.1387L30.0293-67.1387L30.0293-70.459L28.125-70.459ZM11.6699-24.4629L46.9727-24.4629L46.2402-26.709L12.4512-26.709ZM55.127 0L57.7637 0L30.6152-70.459L29.4434-70.459L29.4434-67.1387Z"/>
  </g>
  <line id="Baseline-S" style="fill:none;stroke:#27AAE1;opacity:1;stroke-width:0.5;" x1="263" x2="3036" y1="696" y2="696"/>
  <line id="Capline-S" style="fill:none;stroke:#27AAE1;opacity:1;stroke-width:0.5;" x1="263" x2="3036" y1="625.541" y2="625.541"/>
  <g id="H-reference" style="fill:#27AAE1;stroke:none;" transform="matrix(1 0 0 1 339 1126)">
   <path d="M0.976562 0L3.66211 0L29.3457-67.1387L30.0293-67.1387L30.0293-70.459L28.125-70.459ZM11.6699-24.4629L46.9727-24.4629L46.2402-26.709L12.4512-26.709ZM55.127 0L57.7637 0L30.6152-70.459L29.4434-70.459L29.4434-67.1387Z"/>
  </g>
  <line id="Baseline-M" style="fill:none;stroke:#27AAE1;opacity:1;stroke-width:0.5;" x1="263" x2="3036" y1="1126" y2="1126"/>
  <line id="Capline-M" style="fill:none;stroke:#27AAE1;opacity:1;stroke-width:0.5;" x1="263" x2="3036" y1="1055.54" y2="1055.54"/>
  <g id="H-reference" style="fill:#27AAE1;stroke:none;" transform="matrix(1 0 0 1 339 1556)">
   <path d="M0.976562 0L3.66211 0L29.3457-67.1387L30.0293-67.1387L30.0293-70.459L28.125-70.459ZM11.6699-24.4629L46.9727-24.4629L46.2402-26.709L12.4512-26.709ZM55.127 0L57.7637 0L30.6152-70.459L29.4434-70.459L29.4434-67.1387Z"/>
  </g>
  <line id="Baseline-L" style="fill:none;stroke:#27AAE1;opacity:1;stroke-width:0.5;" x1="263" x2="3036" y1="1556" y2="1556"/>
  <line id="Capline-L" style="fill:none;stroke:#27AAE1;opacity:1;stroke-width:0.5;" x1="263" x2="3036" y1="1485.54" y2="1485.54"/>
  <line id="left-margin-Regular-M" style="fill:none;stroke:#00AEEF;stroke-width:0.5;opacity:1.0;" x1="1392.45" x2="1392.45" y1="1030.78" y2="1150.12"/>
  <line id="right-margin-Regular-M" style="fill:none;stroke:#00AEEF;stroke-width:0.5;opacity:1.0;" x1="1507.24" x2="1507.24" y1="1030.78" y2="1150.12"/>
 </g>
 <g id="Symbols">
  <g id="Black-L" transform="matrix(1 0 0 1 2860.15 1556)">
   <path class="hierarchical-0:primary SFSymbolsPreview212121" d="M59.9-61.97C65.47-64.87 71.81-65.93 78.03-65.01C84.36-64.07 90.23-61.11 94.75-56.59C99.28-52.06 102.23-46.19 103.17-39.86C104.1-33.65 103.03-27.3 100.14-21.73C97.25-16.16 92.68-11.64 87.07-8.82C81.46-5.99 75.1-5.01 68.9-6.01C62.71-7 56.98-9.93 52.54-14.37C48.1-18.81 45.17-24.54 44.18-30.74C43.18-36.93 44.16-43.29 46.98-48.9C49.81-54.51 54.33-59.08 59.9-61.97ZM75.94-50.96C72.69-51.44 69.36-50.89 66.44-49.37C63.52-47.85 61.15-45.45 59.67-42.51C58.19-39.57 57.67-36.24 58.2-32.99C58.72-29.74 60.25-26.74 62.58-24.41C64.91-22.08 67.91-20.55 71.16-20.03C74.41-19.5 77.74-20.02 80.68-21.5C83.62-22.98 86.02-25.35 87.54-28.27C89.05-31.19 89.61-34.52 89.13-37.77C88.64-41.1 87.09-44.17 84.71-46.54C82.34-48.92 79.26-50.47 75.94-50.96ZM97.58-66.51C97.58-70.43 100.76-73.61 104.68-73.61L104.74-73.61C108.66-73.61 111.84-70.43 111.84-66.51C111.84-62.59 108.66-59.41 104.74-59.41L104.68-59.41C100.76-59.41 97.58-62.59 97.58-66.51Z"/>
   <path class="hierarchical-1:secondary SFSymbolsPreview4D4D4D" d="M9.43-63.67C9.43-83.3 25.34-99.21 44.96-99.21L101.84-99.21C121.47-99.21 137.38-83.3 137.38-63.67L137.38-6.79C137.38 12.83 121.47 28.74 101.84 28.74L44.96 28.74C25.34 28.74 9.43 12.83 9.43-6.79L9.43-63.67ZM44.96-85.01C33.18-85.01 23.63-75.45 23.63-63.67L23.63-6.79C23.63 4.99 33.18 14.54 44.96 14.54L101.84 14.54C113.62 14.54 123.18 4.99 123.18-6.79L123.18-63.67C123.18-75.45 113.62-85.01 101.84-85.01L44.96-85.01Z"/>
  </g>
  <g id="Heavy-L" transform="matrix(1 0 0 1 2564.29 1556)">
   <path class="hierarchical-0:primary SFSymbolsPreview212121" d="M59.45-61.22C64.86-64.03 71.02-65.06 77.06-64.16C83.21-63.25 88.91-60.38 93.31-55.98C97.71-51.58 100.58-45.89 101.49-39.73C102.38-33.7 101.35-27.53 98.54-22.12C95.74-16.71 91.29-12.32 85.84-9.57C80.39-6.83 74.22-5.88 68.2-6.84C62.17-7.81 56.61-10.66 52.3-14.97C47.98-19.28 45.14-24.85 44.17-30.87C43.2-36.89 44.16-43.07 46.9-48.51C49.64-53.96 54.03-58.41 59.45-61.22ZM75.22-51.8C71.79-52.31 68.28-51.72 65.2-50.12C62.12-48.52 59.63-45.99 58.07-42.89C56.5-39.79 55.96-36.28 56.51-32.86C57.06-29.43 58.68-26.26 61.14-23.81C63.59-21.36 66.76-19.74 70.18-19.19C73.61-18.63 77.12-19.18 80.22-20.74C83.32-22.3 85.85-24.8 87.45-27.88C89.05-30.96 89.63-34.46 89.13-37.9C88.61-41.4 86.97-44.64 84.47-47.14C81.97-49.65 78.73-51.28 75.22-51.8ZM97.59-66.51C97.59-69.96 100.39-72.76 103.84-72.76L103.9-72.76C107.35-72.76 110.15-69.96 110.15-66.51C110.15-63.06 107.35-60.26 103.9-60.26L103.84-60.26C100.39-60.26 97.59-63.06 97.59-66.51Z"/>
   <path class="hierarchical-1:secondary SFSymbolsPreview4D4D4D" d="M9.43-63.67C9.43-82.83 24.96-98.36 44.12-98.36L100.99-98.36C120.15-98.36 135.68-82.83 135.68-63.67L135.68-6.79C135.68 12.36 120.15 27.89 100.99 27.89L44.12 27.89C24.96 27.89 9.43 12.36 9.43-6.79L9.43-63.67ZM44.12-85.86C31.87-85.86 21.93-75.92 21.93-63.67L21.93-6.79C21.93 5.46 31.87 15.39 44.12 15.39L100.99 15.39C113.25 15.39 123.18 5.46 123.18-6.79L123.18-63.67C123.18-75.92 113.25-85.86 100.99-85.86L44.12-85.86Z"/>
  </g>
  <g id="Bold-L" transform="matrix(1 0 0 1 2268.53 1556)">
   <path class="hierarchical-0:primary SFSymbolsPreview212121" d="M58.93-60.38C64.17-63.09 70.13-64.09 75.97-63.22C81.92-62.34 87.43-59.57 91.69-55.31C95.94-51.06 98.71-45.54 99.6-39.59C100.46-33.76 99.47-27.8 96.75-22.56C94.03-17.32 89.73-13.07 84.46-10.42C79.19-7.77 73.22-6.85 67.39-7.78C61.57-8.72 56.19-11.47 52.02-15.64C47.84-19.81 45.09-25.2 44.16-31.02C43.22-36.85 44.14-42.82 46.8-48.09C49.45-53.36 53.7-57.66 58.93-60.38ZM74.41-52.74C70.78-53.28 67.07-52.66 63.81-50.97C60.56-49.28 57.91-46.6 56.26-43.32C54.61-40.04 54.04-36.33 54.62-32.71C55.21-29.08 56.92-25.73 59.51-23.14C62.11-20.54 65.45-18.83 69.08-18.25C72.7-17.67 76.42-18.24 79.7-19.89C82.97-21.54 85.65-24.18 87.34-27.44C89.03-30.7 89.65-34.41 89.11-38.04C88.56-41.74 86.84-45.17 84.19-47.82C81.54-50.46 78.11-52.19 74.41-52.74ZM97.59-66.51C97.59-69.44 99.96-71.81 102.89-71.81L102.94-71.81C105.87-71.81 108.24-69.44 108.24-66.51C108.24-63.59 105.87-61.21 102.94-61.21L102.89-61.21C99.96-61.21 97.59-63.59 97.59-66.51Z"/>
   <path class="hierarchical-1:secondary SFSymbolsPreview4D4D4D" d="M9.43-63.67C9.43-82.3 24.53-97.41 43.17-97.41L100.04-97.41C118.68-97.41 133.78-82.3 133.78-63.67L133.78-6.79C133.78 11.84 118.68 26.94 100.04 26.94L43.17 26.94C24.53 26.94 9.43 11.84 9.43-6.79L9.43-63.67ZM43.17-86.81C30.39-86.81 20.03-76.45 20.03-63.67L20.03-6.79C20.03 5.98 30.39 16.34 43.17 16.34L100.04 16.34C112.82 16.34 123.18 5.98 123.18-6.79L123.18-63.67C123.18-76.45 112.82-86.81 100.04-86.81L43.17-86.81Z"/>
  </g>
  <g id="Semibold-L" transform="matrix(1 0 0 1 1972.47 1556)">
   <path class="hierarchical-0:primary SFSymbolsPreview212121" d="M58.59-59.8C63.7-62.45 69.52-63.43 75.22-62.58C81.04-61.72 86.42-59.01 90.58-54.85C94.74-50.7 97.45-45.31 98.31-39.5C99.15-33.8 98.18-27.97 95.53-22.86C92.87-17.74 88.67-13.6 83.52-11C78.38-8.41 72.54-7.51 66.85-8.43C61.16-9.34 55.91-12.03 51.83-16.1C47.76-20.18 45.07-25.44 44.15-31.13C43.24-36.82 44.14-42.65 46.73-47.8C49.32-52.95 53.47-57.15 58.59-59.8ZM73.86-53.38C70.09-53.94 66.25-53.3 62.87-51.54C59.49-49.79 56.75-47.02 55.04-43.62C53.33-40.22 52.73-36.36 53.34-32.6C53.94-28.84 55.72-25.37 58.41-22.68C61.1-19.99 64.57-18.21 68.33-17.61C72.09-17 75.94-17.6 79.34-19.31C82.74-21.02 85.52-23.76 87.27-27.14C89.03-30.52 89.67-34.37 89.11-38.13C88.54-41.98 86.75-45.53 84-48.28C81.26-51.02 77.7-52.81 73.86-53.38ZM97.59-66.51C97.59-69.08 99.67-71.16 102.24-71.16L102.3-71.16C104.87-71.16 106.95-69.08 106.95-66.51C106.95-63.94 104.87-61.86 102.3-61.86L102.24-61.86C99.67-61.86 97.59-63.94 97.59-66.51Z"/>
   <path class="hierarchical-1:secondary SFSymbolsPreview4D4D4D" d="M9.43-63.67C9.43-81.94 24.25-96.75 42.52-96.75L99.4-96.75C117.67-96.75 132.48-81.94 132.48-63.67L132.48-6.79C132.48 11.48 117.67 26.3 99.4 26.3L42.52 26.3C24.25 26.3 9.43 11.48 9.43-6.79L9.43-63.67ZM42.52-87.45C29.38-87.45 18.73-76.8 18.73-63.67L18.73-6.79C18.73 6.35 29.38 17 42.52 17L99.4 17C112.53 17 123.18 6.35 123.18-6.79L123.18-63.67C123.18-76.8 112.53-87.45 99.4-87.45L42.52-87.45Z"/>
  </g>
  <g id="Medium-L" transform="matrix(1 0 0 1 1676.26 1556)">
   <path class="hierarchical-0:primary SFSymbolsPreview212121" d="M58.32-59.36C63.34-61.96 69.05-62.92 74.65-62.09C80.36-61.24 85.65-58.58 89.73-54.5C93.81-50.42 96.47-45.13 97.31-39.42C98.14-33.83 97.19-28.11 94.58-23.09C91.98-18.07 87.85-13.99 82.8-11.45C77.75-8.91 72.02-8.02 66.43-8.92C60.85-9.82 55.69-12.46 51.68-16.46C47.68-20.46 45.05-25.62 44.15-31.21C43.25-36.79 44.13-42.52 46.68-47.57C49.22-52.63 53.29-56.75 58.32-59.36ZM73.43-53.88C69.56-54.45 65.61-53.79 62.14-51.99C58.67-50.19 55.85-47.34 54.09-43.84C52.33-40.35 51.72-36.39 52.34-32.52C52.96-28.66 54.79-25.09 57.55-22.33C60.32-19.56 63.89-17.74 67.75-17.12C71.61-16.49 75.57-17.11 79.07-18.86C82.56-20.62 85.41-23.44 87.22-26.91C89.02-30.38 89.68-34.34 89.1-38.21C88.52-42.15 86.68-45.81 83.86-48.63C81.04-51.45 77.38-53.29 73.43-53.88ZM97.59-66.51C97.59-68.8 99.45-70.66 101.74-70.66L101.8-70.66C104.09-70.66 105.95-68.8 105.95-66.51C105.95-64.22 104.09-62.36 101.8-62.36L101.74-62.36C99.45-62.36 97.59-64.22 97.59-66.51Z"/>
   <path class="hierarchical-1:secondary SFSymbolsPreview4D4D4D" d="M9.43-63.67C9.43-81.66 24.02-96.25 42.02-96.25L98.9-96.25C116.89-96.25 131.48-81.66 131.48-63.67L131.48-6.79C131.48 11.21 116.89 25.8 98.9 25.8L42.02 25.8C24.02 25.8 9.43 11.21 9.43-6.79L9.43-63.67ZM42.02-87.95C28.61-87.95 17.73-77.08 17.73-63.67L17.73-6.79C17.73 6.62 28.61 17.5 42.02 17.5L98.9 17.5C112.31 17.5 123.18 6.62 123.18-6.79L123.18-63.67C123.18-77.08 112.31-87.95 98.9-87.95L42.02-87.95Z"/>
  </g>
  <g id="Regular-L" transform="matrix(1 0 0 1 1380.19 1556)">
   <path class="hierarchical-0:primary SFSymbolsPreview212121" d="M57.97-58.78C62.87-61.32 68.44-62.25 73.91-61.44C79.48-60.62 84.64-58.02 88.62-54.04C92.6-50.06 95.2-44.9 96.02-39.33C96.83-33.87 95.9-28.29 93.36-23.39C90.81-18.49 86.79-14.51 81.86-12.03C76.93-9.55 71.34-8.68 65.89-9.56C60.43-10.44 55.4-13.01 51.49-16.91C47.59-20.82 45.02-25.85 44.14-31.31C43.26-36.76 44.13-42.35 46.61-47.28C49.09-52.21 53.07-56.23 57.97-58.78ZM72.88-54.52C68.87-55.11 64.78-54.43 61.19-52.56C57.6-50.7 54.68-47.75 52.86-44.13C51.04-40.51 50.41-36.42 51.05-32.42C51.69-28.42 53.58-24.73 56.44-21.86C59.31-19 63-17.11 67-16.47C71-15.83 75.09-16.46 78.71-18.28C82.33-20.1 85.28-23.02 87.14-26.61C89.01-30.2 89.69-34.3 89.1-38.3C88.49-42.39 86.59-46.17 83.67-49.09C80.75-52.01 76.97-53.91 72.88-54.52ZM97.59-66.51C97.59-68.44 99.16-70.01 101.09-70.01L101.15-70.01C103.08-70.01 104.65-68.44 104.65-66.51C104.65-64.58 103.08-63.01 101.15-63.01L101.09-63.01C99.16-63.01 97.59-64.58 97.59-66.51Z"/>
   <path class="hierarchical-1:secondary SFSymbolsPreview4D4D4D" d="M9.43-63.67C9.43-81.31 23.73-95.61 41.37-95.61L98.25-95.61C115.89-95.61 130.19-81.31 130.19-63.67L130.19-6.79C130.19 10.85 115.89 25.14 98.25 25.14L41.37 25.14C23.73 25.14 9.43 10.85 9.43-6.79L9.43-63.67ZM41.37-88.61C27.6-88.61 16.43-77.44 16.43-63.67L16.43-6.79C16.43 6.98 27.6 18.14 41.37 18.14L98.25 18.14C112.02 18.14 123.19 6.98 123.19-6.79L123.19-63.67C123.19-77.44 112.02-88.61 98.25-88.61L41.37-88.61Z"/>
  </g>
  <g id="Light-L" transform="matrix(1 0 0 1 1084.28 1556)">
   <path class="hierarchical-0:primary SFSymbolsPreview212121" d="M57.53-58.07C62.29-60.53 67.69-61.44 72.99-60.65C78.39-59.85 83.39-57.33 87.25-53.47C91.11-49.61 93.63-44.61 94.43-39.21C95.22-33.91 94.31-28.51 91.85-23.75C89.38-19 85.48-15.15 80.7-12.74C75.92-10.34 70.5-9.5 65.21-10.35C59.93-11.2 55.05-13.69 51.26-17.48C47.47-21.27 44.98-26.15 44.13-31.43C43.28-36.72 44.12-42.14 46.52-46.92C48.93-51.7 52.78-55.6 57.53-58.07ZM72.2-55.31C68.03-55.93 63.76-55.21 60.02-53.27C56.28-51.33 53.24-48.26 51.35-44.49C49.45-40.72 48.79-36.45 49.46-32.29C50.13-28.13 52.1-24.28 55.08-21.3C58.06-18.32 61.91-16.35 66.07-15.68C70.23-15.01 74.5-15.67 78.27-17.57C82.04-19.46 85.11-22.5 87.05-26.24C89-29.98 89.71-34.25 89.09-38.42C88.46-42.67 86.48-46.61 83.43-49.65C80.39-52.7 76.45-54.68 72.2-55.31ZM97.59-66.51C97.59-68 98.8-69.21 100.29-69.21L100.35-69.21C101.84-69.21 103.05-68 103.05-66.51C103.05-65.02 101.84-63.81 100.35-63.81L100.29-63.81C98.8-63.81 97.59-65.02 97.59-66.51Z"/>
   <path class="hierarchical-1:secondary SFSymbolsPreview4D4D4D" d="M9.43-63.67C9.43-80.86 23.38-94.8 40.57-94.8L97.45-94.8C114.64-94.8 128.58-80.86 128.58-63.67L128.58-6.79C128.58 10.4 114.64 24.35 97.45 24.35L40.57 24.35C23.38 24.35 9.43 10.4 9.43-6.79L9.43-63.67ZM40.57-89.4C26.36-89.4 14.83-77.88 14.83-63.67L14.83-6.79C14.83 7.42 26.36 18.95 40.57 18.95L97.45 18.95C111.66 18.95 123.18 7.42 123.18-6.79L123.18-63.67C123.18-77.88 111.66-89.4 97.45-89.4L40.57-89.4Z"/>
  </g>
  <g id="Thin-L" transform="matrix(1 0 0 1 788.622 1556)">
   <path class="hierarchical-0:primary SFSymbolsPreview212121" d="M56.963-57.14C61.518-59.5 66.703-60.37 71.78-59.61C76.958-58.85 81.752-56.43 85.454-52.73C89.156-49.03 91.569-44.24 92.337-39.06C93.09-33.98 92.222-28.8 89.859-24.24C87.495-19.69 83.755-15.99 79.171-13.68C74.586-11.38 69.391-10.57 64.324-11.39C59.257-12.2 54.576-14.6 50.947-18.23C47.318-21.85 44.926-26.54 44.111-31.6C43.295-36.67 44.098-41.86 46.406-46.45C48.713-51.03 52.407-54.77 56.963-57.14ZM71.296-56.35C66.906-57 62.422-56.25 58.483-54.21C54.543-52.16 51.349-48.93 49.353-44.97C47.358-41 46.664-36.51 47.369-32.13C48.074-27.74 50.143-23.7 53.281-20.56C56.419-17.42 60.467-15.35 64.849-14.65C69.23-13.94 73.723-14.64 77.687-16.63C81.651-18.63 84.886-21.82 86.93-25.76C88.974-29.7 89.724-34.18 89.073-38.57C88.408-43.05 86.322-47.2 83.121-50.4C79.92-53.6 75.774-55.69 71.296-56.35ZM97.586-66.51C97.586-67.42 98.325-68.16 99.236-68.16L99.293-68.16C100.204-68.16 100.943-67.42 100.943-66.51C100.943-65.6 100.204-64.86 99.293-64.86L99.236-64.86C98.325-64.86 97.586-65.6 97.586-66.51Z"/>
   <path class="hierarchical-1:secondary SFSymbolsPreview4D4D4D" d="M9.43-63.67C9.43-80.28 22.9-93.75 39.517-93.75L96.392-93.75C113.009-93.75 126.48-80.28 126.48-63.67L126.48-6.79C126.48 9.83 113.009 23.3 96.392 23.3L39.517 23.3C22.9 23.3 9.43 9.83 9.43-6.79L9.43-63.67ZM39.517-90.45C24.723-90.45 12.73-78.46 12.73-63.67L12.73-6.79C12.73 8 24.723 20 39.517 20L96.392 20C111.186 20 123.18 8 123.18-6.79L123.18-63.67C123.18-78.46 111.186-90.45 96.392-90.45L39.517-90.45Z"/>
  </g>
  <g id="Ultralight-L" transform="matrix(1 0 0 1 492.461 1556)">
   <path class="hierarchical-0:primary SFSymbolsPreview212121" d="M56.667-56.65C61.12-58.96 66.188-59.81 71.15-59.07C76.212-58.32 80.898-55.96 84.516-52.34C88.134-48.72 90.493-44.04 91.244-38.98C91.979-34.01 91.132-28.95 88.821-24.49C86.511-20.04 82.855-16.43 78.374-14.17C73.893-11.92 68.815-11.13 63.862-11.93C58.91-12.73 54.334-15.07 50.787-18.61C47.24-22.16 44.901-26.74 44.104-31.69C43.307-36.64 44.092-41.72 46.348-46.2C48.603-50.68 52.214-54.34 56.667-56.65ZM70.827-56.89C66.323-57.56 61.722-56.79 57.68-54.7C53.638-52.6 50.36-49.28 48.313-45.21C46.266-41.14 45.553-36.53 46.276-32.04C47-27.54 49.123-23.39 52.343-20.17C55.563-16.95 59.716-14.83 64.212-14.1C68.708-13.38 73.318-14.09 77.385-16.14C81.453-18.19 84.771-21.46 86.869-25.51C88.966-29.55 89.735-34.15 89.067-38.65C88.386-43.25 86.245-47.5 82.96-50.79C79.676-54.07 75.422-56.21 70.827-56.89ZM97.587-66.51C97.587-67.12 98.079-67.61 98.687-67.61L98.744-67.61C99.351-67.61 99.844-67.12 99.844-66.51C99.844-65.91 99.351-65.41 98.744-65.41L98.687-65.41C98.079-65.41 97.587-65.91 97.587-66.51Z"/>
   <path class="hierarchical-1:secondary SFSymbolsPreview4D4D4D" d="M9.43-63.67C9.43-79.98 22.655-93.21 38.968-93.21L95.843-93.21C112.156-93.21 125.38-79.98 125.38-63.67L125.38-6.79C125.38 9.52 112.156 22.74 95.843 22.74L38.968 22.74C22.655 22.74 9.43 9.52 9.43-6.79L9.43-63.67ZM38.968-91.01C23.87-91.01 11.63-78.77 11.63-63.67L11.63-6.79C11.63 8.3 23.87 20.54 38.968 20.54L95.843 20.54C110.941 20.54 123.18 8.3 123.18-6.79L123.18-63.67C123.18-78.77 110.941-91.01 95.843-91.01L38.968-91.01Z"/>
  </g>
  <g id="Black-M" transform="matrix(1 0 0 1 2872.4 1126)">
   <path class="hierarchical-0:primary SFSymbolsPreview212121" d="M49.86-57.57C54.51-59.99 59.82-60.87 65.01-60.11C70.3-59.32 75.2-56.85 78.99-53.07C82.77-49.28 85.24-44.38 86.03-39.08C86.8-33.89 85.91-28.59 83.49-23.93C81.08-19.28 77.25-15.5 72.56-13.14C67.88-10.78 62.56-9.96 57.38-10.79C52.2-11.63 47.42-14.07 43.71-17.78C39.99-21.49 37.55-26.28 36.71-31.46C35.88-36.64 36.7-41.95 39.06-46.64C41.42-51.33 45.2-55.15 49.86-57.57ZM62.92-46.06C60.69-46.39 58.4-46.01 56.4-44.97C54.39-43.93 52.76-42.28 51.75-40.26C50.73-38.24 50.37-35.95 50.73-33.72C51.09-31.48 52.15-29.42 53.75-27.82C55.34-26.22 57.41-25.17 59.64-24.81C61.87-24.45 64.16-24.81 66.18-25.82C68.2-26.84 69.85-28.47 70.89-30.47C71.93-32.48 72.31-34.77 71.98-37C71.64-39.28 70.58-41.4 68.95-43.03C67.32-44.66 65.21-45.72 62.92-46.06ZM78.6-59.78C78.6-63.7 81.78-66.88 85.7-66.88L85.74-66.88C89.66-66.88 92.84-63.7 92.84-59.78C92.84-55.85 89.66-52.68 85.74-52.68L85.7-52.68C81.78-52.68 78.6-55.85 78.6-59.78Z"/>
   <path class="hierarchical-1:secondary SFSymbolsPreview4D4D4D" d="M9.43-57.54C9.43-73.79 22.6-86.96 38.84-86.96L83.47-86.96C99.71-86.96 112.88-73.79 112.88-57.54L112.88-12.92C112.88 3.32 99.71 16.49 83.47 16.49L38.84 16.49C22.6 16.49 9.43 3.32 9.43-12.92L9.43-57.54ZM38.84-72.76C30.44-72.76 23.63-65.95 23.63-57.54L23.63-12.92C23.63-4.52 30.44 2.29 38.84 2.29L83.47 2.29C91.87 2.29 98.68-4.52 98.68-12.92L98.68-57.54C98.68-65.95 91.87-72.76 83.47-72.76L38.84-72.76Z"/>
  </g>
  <g id="Heavy-M" transform="matrix(1 0 0 1 2576.54 1126)">
   <path class="hierarchical-0:primary SFSymbolsPreview212121" d="M49.4-56.82C53.9-59.15 59.02-60.01 64.03-59.26C69.15-58.5 73.88-56.12 77.54-52.46C81.19-48.81 83.58-44.07 84.34-38.96C85.08-33.94 84.22-28.82 81.89-24.32C79.55-19.82 75.86-16.18 71.33-13.9C66.8-11.62 61.67-10.82 56.67-11.63C51.66-12.43 47.04-14.8 43.46-18.38C39.87-21.97 37.51-26.59 36.7-31.59C35.9-36.6 36.69-41.73 38.97-46.26C41.25-50.79 44.9-54.48 49.4-56.82ZM62.2-46.9C59.79-47.26 57.32-46.84 55.15-45.72C52.99-44.6 51.23-42.82 50.14-40.64C49.04-38.46 48.66-35.99 49.04-33.58C49.43-31.17 50.57-28.95 52.29-27.22C54.02-25.5 56.25-24.36 58.65-23.97C61.06-23.58 63.53-23.96 65.71-25.06C67.89-26.16 69.67-27.92 70.79-30.08C71.92-32.25 72.33-34.71 71.97-37.12C71.61-39.59 70.46-41.87 68.7-43.63C66.94-45.39 64.66-46.53 62.2-46.9ZM78.6-59.77C78.6-63.23 81.4-66.02 84.85-66.02L84.89-66.02C88.34-66.02 91.14-63.23 91.14-59.77C91.14-56.32 88.34-53.52 84.89-53.52L84.85-53.52C81.4-53.52 78.6-56.32 78.6-59.77Z"/>
   <path class="hierarchical-1:secondary SFSymbolsPreview4D4D4D" d="M9.43-57.54C9.43-73.32 22.22-86.11 37.99-86.11L82.62-86.11C98.39-86.11 111.18-73.32 111.18-57.54L111.18-12.92C111.18 2.86 98.39 15.64 82.62 15.64L37.99 15.64C22.22 15.64 9.43 2.86 9.43-12.92L9.43-57.54ZM37.99-73.61C29.12-73.61 21.93-66.41 21.93-57.54L21.93-12.92C21.93-4.05 29.12 3.14 37.99 3.14L82.62 3.14C91.49 3.14 98.68-4.05 98.68-12.92L98.68-57.54C98.68-66.41 91.49-73.61 82.62-73.61L37.99-73.61Z"/>
  </g>
  <g id="Bold-M" transform="matrix(1 0 0 1 2280.78 1126)">
   <path class="hierarchical-0:primary SFSymbolsPreview212121" d="M48.89-55.97C53.21-58.22 58.13-59.04 62.94-58.32C67.86-57.6 72.41-55.31 75.92-51.79C79.43-48.28 81.72-43.73 82.45-38.82C83.16-34 82.34-29.08 80.1-24.76C77.85-20.44 74.31-16.93 69.96-14.75C65.61-12.56 60.68-11.79 55.87-12.57C51.06-13.34 46.62-15.61 43.18-19.05C39.73-22.5 37.47-26.94 36.69-31.75C35.92-36.55 36.68-41.48 38.87-45.83C41.06-50.18 44.56-53.73 48.89-55.97ZM61.39-47.84C58.78-48.23 56.11-47.78 53.77-46.56C51.42-45.35 49.52-43.42 48.34-41.07C47.15-38.71 46.74-36.04 47.16-33.43C47.58-30.82 48.81-28.42 50.67-26.55C52.54-24.68 54.95-23.45 57.55-23.03C60.16-22.61 62.83-23.03 65.19-24.21C67.55-25.4 69.47-27.3 70.69-29.64C71.9-31.99 72.35-34.65 71.96-37.27C71.57-39.93 70.33-42.39 68.42-44.3C66.52-46.2 64.05-47.44 61.39-47.84ZM78.6-59.77C78.6-62.7 80.97-65.07 83.9-65.07L83.94-65.07C86.87-65.07 89.24-62.7 89.24-59.77C89.24-56.85 86.87-54.47 83.94-54.47L83.9-54.47C80.97-54.47 78.6-56.85 78.6-59.77Z"/>
   <path class="hierarchical-1:secondary SFSymbolsPreview4D4D4D" d="M9.43-57.54C9.43-72.79 21.79-85.16 37.04-85.16L81.67-85.16C96.92-85.16 109.28-72.79 109.28-57.54L109.28-12.92C109.28 2.33 96.92 14.69 81.67 14.69L37.04 14.69C21.79 14.69 9.43 2.33 9.43-12.92L9.43-57.54ZM37.04-74.56C27.65-74.56 20.03-66.94 20.03-57.54L20.03-12.92C20.03-3.52 27.65 4.09 37.04 4.09L81.67 4.09C91.06 4.09 98.68-3.52 98.68-12.92L98.68-57.54C98.68-66.94 91.06-74.56 81.67-74.56L37.04-74.56Z"/>
  </g>
  <g id="Semibold-M" transform="matrix(1 0 0 1 1984.72 1126)">
   <path class="hierarchical-0:primary SFSymbolsPreview212121" d="M48.54-55.39C52.74-57.57 57.52-58.37 62.2-57.68C66.98-56.97 71.4-54.75 74.81-51.33C78.23-47.92 80.45-43.5 81.16-38.72C81.85-34.04 81.05-29.26 78.87-25.06C76.7-20.86 73.25-17.45 69.02-15.32C64.79-13.2 60-12.46 55.33-13.21C50.66-13.96 46.34-16.17 42.99-19.51C39.65-22.86 37.44-27.17 36.69-31.85C35.94-36.52 36.68-41.31 38.81-45.54C40.93-49.76 44.34-53.21 48.54-55.39ZM60.84-48.48C58.09-48.89 55.29-48.42 52.82-47.14C50.36-45.86 48.36-43.84 47.11-41.36C45.86-38.88 45.43-36.07 45.87-33.32C46.31-30.58 47.61-28.05 49.57-26.09C51.53-24.12 54.07-22.83 56.81-22.39C59.55-21.95 62.36-22.38 64.84-23.63C67.32-24.88 69.34-26.88 70.62-29.34C71.9-31.81 72.37-34.61 71.96-37.36C71.55-40.16 70.24-42.75 68.24-44.76C66.23-46.76 63.64-48.06 60.84-48.48ZM78.6-59.78C78.6-62.34 80.69-64.43 83.25-64.43L83.3-64.43C85.87-64.43 87.95-62.34 87.95-59.78C87.95-57.21 85.87-55.13 83.3-55.13L83.25-55.13C80.69-55.13 78.6-57.21 78.6-59.78Z"/>
   <path class="hierarchical-1:secondary SFSymbolsPreview4D4D4D" d="M9.43-57.54C9.43-72.43 21.51-84.5 36.4-84.5L81.02-84.5C95.91-84.5 107.98-72.43 107.98-57.54L107.98-12.92C107.98 1.97 95.91 14.05 81.02 14.05L36.4 14.05C21.51 14.05 9.43 1.97 9.43-12.92L9.43-57.54ZM36.4-75.2C26.64-75.2 18.73-67.3 18.73-57.54L18.73-12.92C18.73-3.16 26.64 4.75 36.4 4.75L81.02 4.75C90.78 4.75 98.68-3.16 98.68-12.92L98.68-57.54C98.68-67.3 90.78-75.2 81.02-75.2L36.4-75.2Z"/>
  </g>
  <g id="Medium-M" transform="matrix(1 0 0 1 1688.51 1126)">
   <path class="hierarchical-0:primary SFSymbolsPreview212121" d="M48.27-54.95C52.38-57.08 57.05-57.86 61.63-57.18C66.3-56.49 70.62-54.32 73.96-50.98C77.3-47.64 79.47-43.32 80.17-38.65C80.84-34.07 80.06-29.4 77.93-25.29C75.8-21.18 72.43-17.85 68.29-15.77C64.16-13.69 59.48-12.97 54.91-13.7C50.34-14.44 46.12-16.59 42.85-19.87C39.57-23.14 37.42-27.36 36.68-31.93C35.95-36.5 36.67-41.18 38.75-45.31C40.83-49.45 44.16-52.82 48.27-54.95ZM60.41-48.97C57.56-49.4 54.65-48.91 52.09-47.58C49.54-46.26 47.46-44.16 46.17-41.58C44.87-39.01 44.42-36.09 44.88-33.25C45.34-30.4 46.68-27.77 48.72-25.73C50.75-23.7 53.38-22.35 56.23-21.9C59.07-21.44 61.99-21.89 64.56-23.18C67.14-24.48 69.24-26.55 70.56-29.11C71.89-31.67 72.38-34.58 71.96-37.43C71.52-40.34 70.17-43.03 68.09-45.11C66.01-47.19 63.32-48.54 60.41-48.97ZM78.6-59.78C78.6-62.07 80.46-63.93 82.75-63.93L82.8-63.93C85.09-63.93 86.95-62.07 86.95-59.78C86.95-57.48 85.09-55.63 82.8-55.63L82.75-55.63C80.46-55.63 78.6-57.48 78.6-59.78Z"/>
   <path class="hierarchical-1:secondary SFSymbolsPreview4D4D4D" d="M9.43-57.54C9.43-72.16 21.28-84 35.9-84L80.52-84C95.14-84 106.98-72.16 106.98-57.54L106.98-12.92C106.98 1.7 95.14 13.55 80.52 13.55L35.9 13.55C21.28 13.55 9.43 1.7 9.43-12.92L9.43-57.54ZM35.9-75.7C25.87-75.7 17.73-67.57 17.73-57.54L17.73-12.92C17.73-2.89 25.87 5.25 35.9 5.25L80.52 5.25C90.55 5.25 98.68-2.89 98.68-12.92L98.68-57.54C98.68-67.57 90.55-75.7 80.52-75.7L35.9-75.7Z"/>
  </g>
  <g id="Regular-M" transform="matrix(1 0 0 1 1392.45 1126)">
   <path class="hierarchical-0:primary SFSymbolsPreview212121" d="M47.91-54.37C51.9-56.44 56.43-57.2 60.87-56.54C65.41-55.87 69.6-53.76 72.84-50.52C76.08-47.28 78.19-43.09 78.86-38.56C79.52-34.11 78.76-29.58 76.69-25.59C74.63-21.6 71.35-18.37 67.34-16.35C63.33-14.33 58.78-13.63 54.35-14.34C49.92-15.06 45.82-17.15 42.65-20.33C39.47-23.5 37.38-27.6 36.66-32.03C35.95-36.47 36.65-41.01 38.67-45.02C40.69-49.03 43.92-52.31 47.91-54.37ZM59.85-49.62C56.86-50.06 53.81-49.55 51.13-48.16C48.45-46.77 46.28-44.57 44.92-41.88C43.57-39.18 43.1-36.12 43.58-33.14C44.05-30.16 45.46-27.41 47.6-25.28C49.73-23.14 52.48-21.74 55.46-21.26C58.44-20.78 61.5-21.25 64.19-22.61C66.89-23.96 69.09-26.14 70.48-28.81C71.87-31.49 72.38-34.54 71.94-37.53C71.49-40.57 70.07-43.39 67.89-45.57C65.71-47.75 62.89-49.17 59.85-49.62ZM78.59-59.77C78.59-61.71 80.16-63.27 82.09-63.27L82.14-63.27C84.07-63.27 85.64-61.71 85.64-59.77C85.64-57.84 84.07-56.27 82.14-56.27L82.09-56.27C80.16-56.27 78.59-57.84 78.59-59.77Z"/>
   <path class="hierarchical-1:secondary SFSymbolsPreview4D4D4D" d="M9.43-57.54C9.43-71.8 20.98-83.36 35.24-83.36L79.86-83.36C94.12-83.36 105.67-71.8 105.67-57.54L105.67-12.92C105.67 1.34 94.12 12.89 79.86 12.89L35.24 12.89C20.98 12.89 9.43 1.34 9.43-12.92L9.43-57.54ZM35.24-76.36C24.85-76.36 16.43-67.93 16.43-57.54L16.43-12.92C16.43-2.53 24.85 5.89 35.24 5.89L79.86 5.89C90.25 5.89 98.67-2.53 98.67-12.92L98.67-57.54C98.67-67.93 90.25-76.36 79.86-76.36L35.24-76.36Z"/>
  </g>
  <g id="Light-M" transform="matrix(1 0 0 1 1096.53 1126)">
   <path class="hierarchical-0:primary SFSymbolsPreview212121" d="M47.49-53.66C51.32-55.65 55.69-56.38 59.97-55.75C64.33-55.1 68.37-53.07 71.48-49.95C74.6-46.84 76.63-42.8 77.28-38.44C77.91-34.16 77.18-29.79 75.19-25.96C73.2-22.12 70.05-19.01 66.19-17.07C62.33-15.12 57.96-14.45 53.69-15.13C49.42-15.82 45.48-17.84 42.42-20.89C39.37-23.95 37.35-27.89 36.66-32.16C35.98-36.43 36.65-40.8 38.6-44.66C40.54-48.52 43.65-51.67 47.49-53.66ZM59.17-50.41C56.02-50.88 52.8-50.34 49.97-48.87C47.15-47.4 44.85-45.08 43.42-42.23C41.99-39.39 41.49-36.16 42-33.02C42.5-29.87 43.99-26.96 46.24-24.71C48.49-22.46 51.4-20.97 54.55-20.47C57.69-19.96 60.92-20.46 63.76-21.89C66.61-23.32 68.93-25.62 70.4-28.44C71.87-31.27 72.41-34.49 71.94-37.64C71.46-40.86 69.96-43.84 67.67-46.14C65.37-48.43 62.39-49.93 59.17-50.41ZM78.6-59.77C78.6-61.26 79.81-62.47 81.3-62.47L81.35-62.47C82.84-62.47 84.05-61.26 84.05-59.77C84.05-58.28 82.84-57.07 81.35-57.07L81.3-57.07C79.81-57.07 78.6-58.28 78.6-59.77Z"/>
   <path class="hierarchical-1:secondary SFSymbolsPreview4D4D4D" d="M9.43-57.54C9.43-71.36 20.63-82.55 34.45-82.55L79.07-82.55C92.89-82.55 104.08-71.36 104.08-57.54L104.08-12.92C104.08 0.9 92.89 12.1 79.07 12.1L34.45 12.1C20.63 12.1 9.43 0.9 9.43-12.92L9.43-57.54ZM34.45-77.15C23.62-77.15 14.83-68.37 14.83-57.54L14.83-12.92C14.83-2.09 23.62 6.7 34.45 6.7L79.07 6.7C89.9 6.7 98.68-2.09 98.68-12.92L98.68-57.54C98.68-68.37 89.9-77.15 79.07-77.15L34.45-77.15Z"/>
  </g>
  <g id="Thin-M" transform="matrix(1 0 0 1 800.872 1126)">
   <path class="hierarchical-0:primary SFSymbolsPreview212121" d="M46.917-52.73C50.558-54.62 54.702-55.31 58.759-54.71C62.897-54.1 66.729-52.17 69.687-49.21C72.645-46.25 74.574-42.42 75.187-38.28C75.789-34.22 75.096-30.08 73.207-26.44C71.318-22.8 68.329-19.85 64.665-18C61.002-16.16 56.85-15.52 52.8-16.17C48.751-16.82 45.01-18.73 42.11-21.63C39.21-24.53 37.298-28.27 36.646-32.32C35.994-36.37 36.636-40.53 38.48-44.19C40.324-47.85 43.277-50.84 46.917-52.73ZM58.275-51.45C54.904-51.95 51.462-51.37 48.437-49.8C45.413-48.23 42.96-45.75 41.428-42.71C39.896-39.66 39.363-36.21 39.904-32.85C40.445-29.48 42.034-26.38 44.443-23.97C46.853-21.56 49.961-19.97 53.325-19.43C56.689-18.89 60.138-19.42 63.182-20.95C66.225-22.48 68.709-24.94 70.278-27.96C71.847-30.99 72.423-34.43 71.923-37.8C71.413-41.24 69.811-44.42 67.354-46.88C64.896-49.33 61.713-50.94 58.275-51.45ZM78.599-59.78C78.599-60.69 79.337-61.43 80.249-61.43L80.293-61.43C81.204-61.43 81.943-60.69 81.943-59.78C81.943-58.86 81.204-58.13 80.293-58.13L80.249-58.13C79.337-58.13 78.599-58.86 78.599-59.78Z"/>
   <path class="hierarchical-1:secondary SFSymbolsPreview4D4D4D" d="M9.43-57.54C9.43-70.78 20.158-81.5 33.392-81.5L78.017-81.5C91.251-81.5 101.98-70.78 101.98-57.54L101.98-12.92C101.98 0.32 91.251 11.05 78.017 11.05L33.392 11.05C20.158 11.05 9.43 0.32 9.43-12.92L9.43-57.54ZM33.392-78.2C21.981-78.2 12.73-68.95 12.73-57.54L12.73-12.92C12.73-1.5 21.981 7.75 33.392 7.75L78.017 7.75C89.429 7.75 98.68-1.5 98.68-12.92L98.68-57.54C98.68-68.95 89.429-78.2 78.017-78.2L33.392-78.2Z"/>
  </g>
  <g id="Ultralight-M" transform="matrix(1 0 0 1 504.711 1126)">
   <path class="hierarchical-0:primary SFSymbolsPreview212121" d="M46.62-52.25C50.158-54.08 54.185-54.75 58.128-54.17C62.15-53.57 65.873-51.7 68.748-48.82C71.623-45.95 73.497-42.23 74.093-38.2C74.678-34.26 74.004-30.24 72.169-26.7C70.333-23.16 67.428-20.29 63.868-18.5C60.308-16.71 56.273-16.08 52.338-16.72C48.402-17.35 44.767-19.21 41.949-22.03C39.13-24.84 37.272-28.48 36.639-32.41C36.006-36.35 36.629-40.38 38.421-43.94C40.213-47.51 43.082-50.41 46.62-52.25ZM57.805-51.99C54.32-52.51 50.761-51.92 47.634-50.29C44.506-48.67 41.97-46.1 40.387-42.96C38.803-39.81 38.251-36.24 38.811-32.76C39.371-29.29 41.013-26.07 43.504-23.58C45.995-21.09 49.209-19.45 52.687-18.89C56.166-18.33 59.732-18.88 62.879-20.46C66.026-22.05 68.593-24.58 70.216-27.71C71.839-30.84 72.434-34.4 71.917-37.88C71.39-41.44 69.733-44.73 67.192-47.27C64.651-49.81 61.36-51.47 57.805-51.99ZM78.598-59.77C78.598-60.38 79.091-60.88 79.698-60.88L79.743-60.88C80.35-60.88 80.843-60.38 80.843-59.77C80.843-59.17 80.35-58.67 79.743-58.67L79.698-58.67C79.091-58.67 78.598-59.17 78.598-59.77Z"/>
   <path class="hierarchical-1:secondary SFSymbolsPreview4D4D4D" d="M9.43-57.54C9.43-70.47 19.913-80.96 32.843-80.96L77.468-80.96C90.398-80.96 100.88-70.47 100.88-57.54L100.88-12.92C100.88 0.01 90.398 10.49 77.468 10.49L32.843 10.49C19.913 10.49 9.43 0.01 9.43-12.92L9.43-57.54ZM32.843-78.76C21.128-78.76 11.63-69.26 11.63-57.54L11.63-12.92C11.63-1.2 21.128 8.29 32.843 8.29L77.468 8.29C89.183 8.29 98.68-1.2 98.68-12.92L98.68-57.54C98.68-69.26 89.183-78.76 77.468-78.76L32.843-78.76Z"/>
  </g>
  <g id="Black-S" transform="matrix(1 0 0 1 2882.03 696)">
   <path class="hierarchical-0:primary SFSymbolsPreview212121" d="M41.96-54.211C45.9-56.255 50.39-57.005 54.78-56.354C59.26-55.69 63.4-53.603 66.6-50.402C69.8-47.201 71.89-43.055 72.55-38.577C73.2-34.187 72.46-29.703 70.41-25.764C68.37-21.825 65.13-18.63 61.17-16.635C57.2-14.639 52.71-13.945 48.33-14.65C43.95-15.355 39.9-17.424 36.76-20.562C33.62-23.7 31.56-27.748 30.85-32.13C30.15-36.512 30.84-41.004 32.83-44.968C34.83-48.933 38.02-52.167 41.96-54.211ZM52.69-42.307C51.26-42.52 49.79-42.275 48.5-41.607C47.22-40.938 46.17-39.881 45.52-38.584C44.87-37.288 44.64-35.819 44.87-34.386C45.1-32.953 45.78-31.629 46.8-30.603C47.83-29.577 49.15-28.9 50.59-28.67C52.02-28.439 53.49-28.666 54.78-29.319C56.08-29.971 57.14-31.016 57.81-32.304C58.48-33.592 58.72-35.059 58.51-36.494C58.29-37.959 57.61-39.314 56.56-40.361C55.51-41.408 54.16-42.09 52.69-42.307ZM63.68-54.584C63.68-58.505 66.86-61.684 70.78-61.684L70.82-61.684C74.74-61.684 77.92-58.505 77.92-54.584C77.92-50.662 74.74-47.484 70.82-47.484L70.78-47.484C66.86-47.484 63.68-50.662 63.68-54.584Z"/>
   <path class="hierarchical-1:secondary SFSymbolsPreview4D4D4D" d="M9.43-52.834C9.43-66.42 20.44-77.434 34.03-77.434L69.03-77.434C82.62-77.434 93.63-66.42 93.63-52.834L93.63-17.834C93.63-4.247 82.62 6.766 69.03 6.766L34.03 6.766C20.44 6.766 9.43-4.247 9.43-17.834L9.43-52.834ZM34.03-63.234C28.29-63.234 23.63-58.577 23.63-52.834L23.63-17.834C23.63-12.09 28.29-7.434 34.03-7.434L69.03-7.434C74.77-7.434 79.43-12.09 79.43-17.834L79.43-52.834C79.43-58.577 74.77-63.234 69.03-63.234L34.03-63.234Z"/>
  </g>
  <g id="Heavy-S" transform="matrix(1 0 0 1 2586.16 696)">
   <path class="hierarchical-0:primary SFSymbolsPreview212121" d="M41.51-53.459C45.29-55.42 49.59-56.14 53.8-55.515C58.1-54.878 62.08-52.875 65.15-49.803C68.22-46.731 70.23-42.752 70.86-38.455C71.49-34.241 70.77-29.938 68.81-26.158C66.84-22.377 63.74-19.311 59.94-17.396C56.13-15.481 51.82-14.815 47.61-15.492C43.41-16.168 39.52-18.154 36.51-21.165C33.5-24.177 31.52-28.062 30.84-32.267C30.16-36.472 30.83-40.784 32.74-44.589C34.66-48.393 37.72-51.497 41.51-53.459ZM51.97-43.151C50.36-43.39 48.71-43.114 47.26-42.363C45.82-41.613 44.64-40.425 43.91-38.969C43.18-37.513 42.92-35.863 43.18-34.253C43.44-32.644 44.2-31.157 45.35-30.004C46.5-28.852 47.99-28.092 49.6-27.833C51.21-27.574 52.86-27.829 54.32-28.562C55.77-29.295 56.96-30.468 57.71-31.915C58.46-33.362 58.74-35.009 58.5-36.621C58.25-38.266 57.49-39.789 56.31-40.964C55.14-42.14 53.61-42.907 51.97-43.151ZM63.68-54.582C63.68-58.034 66.48-60.832 69.93-60.832L69.97-60.832C73.42-60.832 76.22-58.034 76.22-54.582C76.22-51.13 73.42-48.332 69.97-48.332L69.93-48.332C66.48-48.332 63.68-51.13 63.68-54.582Z"/>
   <path class="hierarchical-1:secondary SFSymbolsPreview4D4D4D" d="M9.43-52.832C9.43-65.949 20.06-76.582 33.18-76.582L68.18-76.582C81.3-76.582 91.93-65.949 91.93-52.832L91.93-17.832C91.93-4.715 81.3 5.918 68.18 5.918L33.18 5.918C20.06 5.918 9.43-4.715 9.43-17.832L9.43-52.832ZM33.18-64.082C26.97-64.082 21.93-59.045 21.93-52.832L21.93-17.832C21.93-11.619 26.97-6.582 33.18-6.582L68.18-6.582C74.39-6.582 79.43-11.619 79.43-17.832L79.43-52.832C79.43-59.045 74.39-64.082 68.18-64.082L33.18-64.082Z"/>
  </g>
  <g id="Bold-S" transform="matrix(1 0 0 1 2290.4 696)">
   <path class="hierarchical-0:primary SFSymbolsPreview212121" d="M41-52.409C44.6-54.279 48.7-54.965 52.72-54.369C56.81-53.762 60.61-51.853 63.53-48.925C66.46-45.997 68.37-42.205 68.98-38.109C69.57-34.094 68.89-29.992 67.02-26.389C65.15-22.786 62.19-19.864 58.56-18.039C54.94-16.214 50.83-15.578 46.82-16.223C42.81-16.868 39.11-18.76 36.24-21.631C33.37-24.501 31.48-28.204 30.83-32.212C30.19-36.22 30.82-40.329 32.65-43.955C34.47-47.581 37.39-50.54 41-52.409ZM51.16-43.884C49.35-44.152 47.5-43.843 45.88-43C44.25-42.158 42.94-40.824 42.12-39.19C41.29-37.555 41.01-35.703 41.3-33.896C41.59-32.089 42.44-30.42 43.73-29.126C45.03-27.832 46.7-26.979 48.5-26.689C50.31-26.398 52.16-26.684 53.8-27.507C55.43-28.33 56.77-29.647 57.61-31.271C58.45-32.895 58.76-34.744 58.49-36.554C58.22-38.401 57.36-40.11 56.04-41.43C54.72-42.75 53.01-43.61 51.16-43.884ZM63.68-54.376C63.68-57.303 66.06-59.676 68.98-59.676L69.02-59.676C71.95-59.676 74.32-57.303 74.32-54.376C74.32-51.449 71.95-49.076 69.02-49.076L68.98-49.076C66.06-49.076 63.68-51.449 63.68-54.376Z"/>
   <path class="hierarchical-1:secondary SFSymbolsPreview4D4D4D" d="M9.43-52.626C9.43-65.218 19.64-75.426 32.23-75.426L67.23-75.426C79.83-75.426 90.03-65.218 90.03-52.626L90.03-17.626C90.03-5.034 79.83 5.174 67.23 5.174L32.23 5.174C19.64 5.174 9.43-5.034 9.43-17.626L9.43-52.626ZM32.23-64.826C25.5-64.826 20.03-59.364 20.03-52.626L20.03-17.626C20.03-10.888 25.5-5.426 32.23-5.426L67.23-5.426C73.97-5.426 79.43-10.888 79.43-17.626L79.43-52.626C79.43-59.364 73.97-64.826 67.23-64.826L32.23-64.826Z"/>
  </g>
  <g id="Semibold-S" transform="matrix(1 0 0 1 1994.34 696)">
   <path class="hierarchical-0:primary SFSymbolsPreview212121" d="M40.64-51.83C44.12-53.637 48.09-54.299 51.97-53.724C55.92-53.137 59.59-51.293 62.42-48.463C65.25-45.634 67.09-41.97 67.68-38.011C68.25-34.131 67.59-30.168 65.79-26.686C63.98-23.204 61.12-20.381 57.62-18.617C54.11-16.853 50.14-16.239 46.27-16.863C42.4-17.486 38.82-19.314 36.04-22.088C33.27-24.862 31.44-28.44 30.82-32.313C30.19-36.186 30.81-40.157 32.57-43.661C34.34-47.165 37.16-50.023 40.64-51.83ZM50.6-44.525C48.66-44.813 46.67-44.481 44.92-43.575C43.18-42.669 41.76-41.236 40.88-39.479C40-37.723 39.69-35.732 40-33.79C40.31-31.849 41.23-30.055 42.62-28.664C44.01-27.274 45.8-26.357 47.75-26.045C49.69-25.732 51.68-26.04 53.43-26.924C55.19-27.808 56.62-29.224 57.53-30.969C58.44-32.715 58.77-34.702 58.48-36.647C58.19-38.632 57.26-40.469 55.84-41.887C54.42-43.306 52.59-44.23 50.6-44.525ZM63.68-54.373C63.68-56.942 65.76-59.023 68.33-59.023L68.36-59.023C70.93-59.023 73.01-56.942 73.01-54.373C73.01-51.805 70.93-49.723 68.36-49.723L68.33-49.723C65.76-49.723 63.68-51.805 63.68-54.373Z"/>
   <path class="hierarchical-1:secondary SFSymbolsPreview4D4D4D" d="M9.43-52.623C9.43-64.857 19.35-74.773 31.58-74.773L66.58-74.773C78.81-74.773 88.73-64.857 88.73-52.623L88.73-17.623C88.73-5.39 78.81 4.527 66.58 4.527L31.58 4.527C19.35 4.527 9.43-5.39 9.43-17.623L9.43-52.623ZM31.58-65.473C24.48-65.473 18.73-59.72 18.73-52.623L18.73-17.623C18.73-10.527 24.48-4.773 31.58-4.773L66.58-4.773C73.68-4.773 79.43-10.527 79.43-17.623L79.43-52.623C79.43-59.72 73.68-65.473 66.58-65.473L31.58-65.473Z"/>
  </g>
  <g id="Medium-S" transform="matrix(1 0 0 1 1698.13 696)">
   <path class="hierarchical-0:primary SFSymbolsPreview212121" d="M40.37-51.386C43.76-53.144 47.62-53.789 51.39-53.229C55.25-52.658 58.81-50.863 61.56-48.11C64.32-45.356 66.11-41.79 66.68-37.938C67.24-34.162 66.6-30.305 64.84-26.916C63.08-23.528 60.3-20.78 56.89-19.064C53.48-17.347 49.62-16.75 45.85-17.356C42.08-17.963 38.6-19.742 35.9-22.442C33.2-25.141 31.42-28.623 30.81-32.392C30.21-36.161 30.8-40.026 32.52-43.436C34.24-46.846 36.98-49.628 40.37-51.386ZM50.18-45.019C48.13-45.323 46.03-44.973 44.19-44.019C42.36-43.065 40.86-41.555 39.93-39.704C39-37.854 38.68-35.756 39.01-33.711C39.34-31.665 40.3-29.776 41.77-28.311C43.23-26.846 45.12-25.88 47.17-25.551C49.21-25.222 51.31-25.546 53.16-26.477C55.01-27.409 56.52-28.9 57.47-30.739C58.43-32.578 58.78-34.671 58.47-36.721C58.16-38.811 57.19-40.746 55.7-42.241C54.2-43.735 52.27-44.709 50.18-45.019ZM63.68-54.373C63.68-56.665 65.54-58.523 67.83-58.523L67.86-58.523C70.16-58.523 72.01-56.665 72.01-54.373C72.01-52.081 70.16-50.223 67.86-50.223L67.83-50.223C65.54-50.223 63.68-52.081 63.68-54.373Z"/>
   <path class="hierarchical-1:secondary SFSymbolsPreview4D4D4D" d="M9.43-52.623C9.43-64.58 19.12-74.273 31.08-74.273L66.08-74.273C78.04-74.273 87.73-64.58 87.73-52.623L87.73-17.623C87.73-5.666 78.04 4.027 66.08 4.027L31.08 4.027C19.12 4.027 9.43-5.666 9.43-17.623L9.43-52.623ZM31.08-65.973C23.71-65.973 17.73-59.996 17.73-52.623L17.73-17.623C17.73-10.25 23.71-4.273 31.08-4.273L66.08-4.273C73.45-4.273 79.43-10.25 79.43-17.623L79.43-52.623C79.43-59.996 73.45-65.973 66.08-65.973L31.08-65.973Z"/>
  </g>
  <g id="Regular-S" transform="matrix(1 0 0 1 1402.07 696)">
   <path class="hierarchical-0:primary SFSymbolsPreview212121" d="M40.02-50.811C43.29-52.506 47.01-53.128 50.65-52.588C54.36-52.037 57.8-50.307 60.46-47.652C63.11-44.997 64.84-41.558 65.39-37.844C65.93-34.203 65.31-30.485 63.61-27.217C61.92-23.95 59.24-21.301 55.95-19.646C52.66-17.991 48.94-17.415 45.3-18C41.67-18.584 38.31-20.3 35.71-22.903C33.1-25.506 31.39-28.863 30.8-32.497C30.22-36.131 30.79-39.857 32.45-43.145C34.1-46.433 36.75-49.115 40.02-50.811ZM49.62-45.664C47.44-45.988 45.21-45.615 43.25-44.597C41.29-43.58 39.7-41.971 38.7-39.998C37.71-38.025 37.36-35.79 37.71-33.609C38.07-31.429 39.1-29.414 40.66-27.853C42.22-26.291 44.23-25.262 46.41-24.911C48.59-24.56 50.83-24.905 52.8-25.898C54.77-26.891 56.38-28.481 57.4-30.441C58.42-32.402 58.79-34.633 58.47-36.818C58.14-39.046 57.1-41.109 55.51-42.702C53.91-44.295 51.85-45.333 49.62-45.664ZM63.68-54.375C63.68-56.308 65.25-57.875 67.18-57.875L67.22-57.875C69.15-57.875 70.72-56.308 70.72-54.375C70.72-52.442 69.15-50.875 67.22-50.875L67.18-50.875C65.25-50.875 63.68-52.442 63.68-54.375Z"/>
   <path class="hierarchical-1:secondary SFSymbolsPreview4D4D4D" d="M9.43-52.625C9.43-64.223 18.83-73.625 30.43-73.625L65.43-73.625C77.03-73.625 86.43-64.223 86.43-52.625L86.43-17.625C86.43-6.027 77.03 3.375 65.43 3.375L30.43 3.375C18.83 3.375 9.43-6.027 9.43-17.625L9.43-52.625ZM30.43-66.625C22.7-66.625 16.43-60.357 16.43-52.625L16.43-17.625C16.43-9.893 22.7-3.625 30.43-3.625L65.43-3.625C73.16-3.625 79.43-9.893 79.43-17.625L79.43-52.625C79.43-60.357 73.16-66.625 65.43-66.625L30.43-66.625Z"/>
  </g>
  <g id="Light-S" transform="matrix(1 0 0 1 1106.16 696)">
   <path class="hierarchical-0:primary SFSymbolsPreview212121" d="M39.59-50.1C42.71-51.718 46.26-52.311 49.73-51.796C53.28-51.27 56.56-49.619 59.09-47.085C61.62-44.552 63.27-41.27 63.8-37.726C64.32-34.252 63.72-30.703 62.1-27.585C60.49-24.467 57.93-21.939 54.79-20.36C51.65-18.78 48.1-18.231 44.63-18.789C41.16-19.347 37.96-20.984 35.47-23.468C32.99-25.952 31.35-29.155 30.79-32.623C30.24-36.091 30.78-39.647 32.36-42.785C33.94-45.922 36.47-48.482 39.59-50.1ZM48.94-46.454C46.59-46.803 44.19-46.401 42.08-45.307C39.97-44.212 38.26-42.48 37.19-40.357C36.12-38.234 35.75-35.828 36.12-33.481C36.5-31.135 37.61-28.967 39.29-27.286C40.97-25.606 43.14-24.498 45.49-24.12C47.83-23.742 50.24-24.114 52.36-25.183C54.48-26.252 56.22-27.962 57.31-30.072C58.41-32.182 58.81-34.583 58.46-36.934C58.1-39.332 56.99-41.553 55.27-43.267C53.56-44.981 51.34-46.099 48.94-46.454ZM63.68-54.374C63.68-55.865 64.89-57.074 66.38-57.074L66.41-57.074C67.91-57.074 69.11-55.865 69.11-54.374C69.11-52.883 67.91-51.674 66.41-51.674L66.38-51.674C64.89-51.674 63.68-52.883 63.68-54.374Z"/>
   <path class="hierarchical-1:secondary SFSymbolsPreview4D4D4D" d="M9.43-52.624C9.43-63.78 18.47-72.824 29.63-72.824L64.63-72.824C75.79-72.824 84.83-63.78 84.83-52.624L84.83-17.624C84.83-6.468 75.79 2.576 64.63 2.576L29.63 2.576C18.47 2.576 9.43-6.468 9.43-17.624L9.43-52.624ZM29.63-67.424C21.46-67.424 14.83-60.798 14.83-52.624L14.83-17.624C14.83-9.45 21.46-2.824 29.63-2.824L64.63-2.824C72.8-2.824 79.43-9.45 79.43-17.624L79.43-52.624C79.43-60.798 72.8-67.424 64.63-67.424L29.63-67.424Z"/>
  </g>
  <g id="Thin-S" transform="matrix(1 0 0 1 810.497 696)">
   <path class="hierarchical-0:primary SFSymbolsPreview212121" d="M39.023-49.167C41.945-50.683 45.27-51.239 48.527-50.756C51.848-50.264 54.923-48.716 57.297-46.342C59.671-43.968 61.219-40.893 61.712-37.571C62.195-34.315 61.638-30.99 60.122-28.068C58.606-25.146 56.207-22.777 53.267-21.297C50.327-19.817 46.995-19.302 43.745-19.825C40.495-20.347 37.492-21.882 35.165-24.21C32.837-26.537 31.303-29.539 30.78-32.789C30.257-36.039 30.772-39.372 32.252-42.312C33.732-45.252 36.101-47.651 39.023-49.167ZM48.043-47.492C45.473-47.873 42.849-47.434 40.543-46.238C38.237-45.042 36.367-43.149 35.2-40.828C34.032-38.508 33.625-35.878 34.038-33.314C34.451-30.749 35.661-28.38 37.498-26.543C39.335-24.706 41.704-23.495 44.269-23.083C46.834-22.67 49.463-23.076 51.783-24.244C54.104-25.412 55.997-27.282 57.193-29.588C58.39-31.893 58.828-34.518 58.447-37.087C58.059-39.708 56.837-42.135 54.964-44.009C53.09-45.882 50.664-47.104 48.043-47.492ZM63.68-54.373C63.68-55.285 64.418-56.023 65.33-56.023L65.365-56.023C66.276-56.023 67.015-55.285 67.015-54.373C67.015-53.462 66.276-52.723 65.365-52.723L65.33-52.723C64.418-52.723 63.68-53.462 63.68-54.373Z"/>
   <path class="hierarchical-1:secondary SFSymbolsPreview4D4D4D" d="M9.43-52.623C9.43-63.2 18.003-71.773 28.58-71.773L63.58-71.773C74.156-71.773 82.73-63.2 82.73-52.623L82.73-17.623C82.73-7.047 74.156 1.527 63.58 1.527L28.58 1.527C18.003 1.527 9.43-7.047 9.43-17.623L9.43-52.623ZM28.58-68.473C19.826-68.473 12.73-61.377 12.73-52.623L12.73-17.623C12.73-8.87 19.826-1.773 28.58-1.773L63.58-1.773C72.333-1.773 79.43-8.87 79.43-17.623L79.43-52.623C79.43-61.377 72.333-68.473 63.58-68.473L28.58-68.473Z"/>
  </g>
  <g id="Ultralight-S" transform="matrix(1 0 0 1 514.336 696)">
   <path class="hierarchical-0:primary SFSymbolsPreview212121" d="M38.727-48.678C41.546-50.141 44.755-50.678 47.897-50.212C51.101-49.736 54.068-48.243 56.359-45.952C58.65-43.661 60.143-40.695 60.618-37.49C61.084-34.348 60.548-31.14 59.085-28.32C57.622-25.501 55.308-23.215 52.471-21.787C49.634-20.359 46.419-19.862 43.283-20.367C40.147-20.871 37.25-22.352 35.004-24.598C32.759-26.844 31.278-29.74 30.774-32.876C30.269-36.012 30.766-39.227 32.194-42.064C33.622-44.901 35.908-47.215 38.727-48.678ZM47.574-48.035C44.89-48.433 42.149-47.975 39.74-46.725C37.332-45.476 35.379-43.498 34.159-41.075C32.939-38.651 32.515-35.904 32.946-33.226C33.377-30.547 34.641-28.072 36.56-26.153C38.479-24.235 40.953-22.97 43.632-22.539C46.311-22.108 49.058-22.532 51.481-23.752C53.905-24.972 55.882-26.925 57.132-29.334C58.382-31.742 58.84-34.483 58.442-37.167C58.036-39.905 56.761-42.44 54.803-44.397C52.846-46.354 50.312-47.629 47.574-48.035ZM63.68-54.377C63.68-54.984 64.173-55.477 64.78-55.477L64.815-55.477C65.423-55.477 65.915-54.984 65.915-54.377C65.915-53.769 65.423-53.277 64.815-53.277L64.78-53.277C64.173-53.277 63.68-53.769 63.68-54.377Z"/>
   <path class="hierarchical-1:secondary SFSymbolsPreview4D4D4D" d="M9.43-52.627C9.43-62.899 17.758-71.227 28.03-71.227L63.03-71.227C73.303-71.227 81.63-62.899 81.63-52.627L81.63-17.627C81.63-7.354 73.303 0.973 63.03 0.973L28.03 0.973C17.758 0.973 9.43-7.354 9.43-17.627L9.43-52.627ZM28.03-69.027C18.973-69.027 11.63-61.684 11.63-52.627L11.63-17.627C11.63-8.569 18.973-1.227 28.03-1.227L63.03-1.227C72.088-1.227 79.43-8.569 79.43-17.627L79.43-52.627C79.43-61.684 72.088-69.027 63.03-69.027L28.03-69.027Z"/>
  </g>
 </g>
</svg>
