<?xml version="1.0" encoding="UTF-8"?>
<!--Generator: Apple Native CoreSVG 175-->
<!DOCTYPE svg
PUBLIC "-//W3C//DTD SVG 1.1//EN"
       "http://www.w3.org/Graphics/SVG/1.1/DTD/svg11.dtd">
<svg version="1.1" xmlns="http://www.w3.org/2000/svg" xmlns:xlink="http://www.w3.org/1999/xlink" width="3300" height="2200">
 <!--glyph: "", point size: 100.0, font version: "17.0d12e1", template writer version: "65.1"-->
 <style>.hierarchical-0:primary {fill:#212121}
.hierarchical-1:secondary {fill:#4D4D4D}

.SFSymbolsPreview212121 {fill:#212121;opacity:1.0}
.SFSymbolsPreview4D4D4D {fill:#4D4D4D;opacity:1.0}
</style>
 <g id="Notes">
  <rect height="2200" id="artboard" style="fill:white;opacity:1" width="3300" x="0" y="0"/>
  <line style="fill:none;stroke:black;opacity:1;stroke-width:0.5;" x1="263" x2="3036" y1="292" y2="292"/>
  <text style="stroke:none;fill:black;font-family:sans-serif;font-size:13;font-weight:bold;" transform="matrix(1 0 0 1 263 322)">Weight/Scale Variations</text>
  <text style="stroke:none;fill:black;font-family:sans-serif;font-size:13;text-anchor:middle;" transform="matrix(1 0 0 1 559.711 322)">Ultralight</text>
  <text style="stroke:none;fill:black;font-family:sans-serif;font-size:13;text-anchor:middle;" transform="matrix(1 0 0 1 856.422 322)">Thin</text>
  <text style="stroke:none;fill:black;font-family:sans-serif;font-size:13;text-anchor:middle;" transform="matrix(1 0 0 1 1153.13 322)">Light</text>
  <text style="stroke:none;fill:black;font-family:sans-serif;font-size:13;text-anchor:middle;" transform="matrix(1 0 0 1 1449.84 322)">Regular</text>
  <text style="stroke:none;fill:black;font-family:sans-serif;font-size:13;text-anchor:middle;" transform="matrix(1 0 0 1 1746.56 322)">Medium</text>
  <text style="stroke:none;fill:black;font-family:sans-serif;font-size:13;text-anchor:middle;" transform="matrix(1 0 0 1 2043.27 322)">Semibold</text>
  <text style="stroke:none;fill:black;font-family:sans-serif;font-size:13;text-anchor:middle;" transform="matrix(1 0 0 1 2339.98 322)">Bold</text>
  <text style="stroke:none;fill:black;font-family:sans-serif;font-size:13;text-anchor:middle;" transform="matrix(1 0 0 1 2636.69 322)">Heavy</text>
  <text style="stroke:none;fill:black;font-family:sans-serif;font-size:13;text-anchor:middle;" transform="matrix(1 0 0 1 2933.4 322)">Black</text>
  <line style="fill:none;stroke:black;opacity:1;stroke-width:0.5;" x1="263" x2="3036" y1="1903" y2="1903"/>
  <g transform="matrix(1 0 0 1 263 1933)">
   <path d="M9.24805 0.830078Q10.8691 0.830078 12.2949 0.214844Q13.7207-0.400391 14.8096-1.49414Q15.8984-2.58789 16.5186-4.01367Q17.1387-5.43945 17.1387-7.05078Q17.1387-8.66211 16.5186-10.0879Q15.8984-11.5137 14.8047-12.6074Q13.7109-13.7012 12.2852-14.3164Q10.8594-14.9316 9.23828-14.9316Q7.62695-14.9316 6.20117-14.3164Q4.77539-13.7012 3.69141-12.6074Q2.60742-11.5137 1.9873-10.0879Q1.36719-8.66211 1.36719-7.05078Q1.36719-5.43945 1.9873-4.01367Q2.60742-2.58789 3.69629-1.49414Q4.78516-0.400391 6.21094 0.214844Q7.63672 0.830078 9.24805 0.830078ZM9.24805-0.654297Q7.91992-0.654297 6.7627-1.14746Q5.60547-1.64062 4.73145-2.51953Q3.85742-3.39844 3.36426-4.56055Q2.87109-5.72266 2.87109-7.05078Q2.87109-8.37891 3.35938-9.54102Q3.84766-10.7031 4.72168-11.582Q5.5957-12.4609 6.75293-12.9541Q7.91016-13.4473 9.23828-13.4473Q10.5762-13.4473 11.7334-12.9541Q12.8906-12.4609 13.7695-11.582Q14.6484-10.7031 15.1465-9.54102Q15.6445-8.37891 15.6445-7.05078Q15.6445-5.72266 15.1514-4.56055Q14.6582-3.39844 13.7842-2.51953Q12.9102-1.64062 11.748-1.14746Q10.5859-0.654297 9.24805-0.654297ZM5.6543-7.05078Q5.6543-6.72852 5.85938-6.52832Q6.06445-6.32812 6.40625-6.32812L8.51562-6.32812L8.51562-4.20898Q8.51562-3.88672 8.71094-3.67676Q8.90625-3.4668 9.23828-3.4668Q9.56055-3.4668 9.77051-3.67676Q9.98047-3.88672 9.98047-4.20898L9.98047-6.32812L12.0898-6.32812Q12.4219-6.32812 12.627-6.52832Q12.832-6.72852 12.832-7.05078Q12.832-7.38281 12.627-7.58789Q12.4219-7.79297 12.0898-7.79297L9.98047-7.79297L9.98047-9.90234Q9.98047-10.2344 9.77051-10.4443Q9.56055-10.6543 9.23828-10.6543Q8.90625-10.6543 8.71094-10.4443Q8.51562-10.2344 8.51562-9.90234L8.51562-7.79297L6.40625-7.79297Q6.06445-7.79297 5.85938-7.58789Q5.6543-7.38281 5.6543-7.05078Z"/>
  </g>
  <g transform="matrix(1 0 0 1 281.867 1933)">
   <path d="M11.709 2.91016Q13.75 2.91016 15.5518 2.12891Q17.3535 1.34766 18.7305-0.0292969Q20.1074-1.40625 20.8887-3.20801Q21.6699-5.00977 21.6699-7.05078Q21.6699-9.0918 20.8887-10.8936Q20.1074-12.6953 18.7305-14.0723Q17.3535-15.4492 15.5469-16.2305Q13.7402-17.0117 11.6992-17.0117Q9.6582-17.0117 7.85645-16.2305Q6.05469-15.4492 4.68262-14.0723Q3.31055-12.6953 2.5293-10.8936Q1.74805-9.0918 1.74805-7.05078Q1.74805-5.00977 2.5293-3.20801Q3.31055-1.40625 4.6875-0.0292969Q6.06445 1.34766 7.86621 2.12891Q9.66797 2.91016 11.709 2.91016ZM11.709 1.25Q9.98047 1.25 8.47656 0.605469Q6.97266-0.0390625 5.83496-1.17676Q4.69727-2.31445 4.05762-3.81836Q3.41797-5.32227 3.41797-7.05078Q3.41797-8.7793 4.05762-10.2832Q4.69727-11.7871 5.83008-12.9297Q6.96289-14.0723 8.4668-14.7119Q9.9707-15.3516 11.6992-15.3516Q13.4277-15.3516 14.9316-14.7119Q16.4355-14.0723 17.5781-12.9297Q18.7207-11.7871 19.3652-10.2832Q20.0098-8.7793 20.0098-7.05078Q20.0098-5.32227 19.3701-3.81836Q18.7305-2.31445 17.5928-1.17676Q16.4551-0.0390625 14.9463 0.605469Q13.4375 1.25 11.709 1.25ZM7.17773-7.05078Q7.17773-6.69922 7.41211-6.47461Q7.64648-6.25 8.01758-6.25L10.8887-6.25L10.8887-3.36914Q10.8887-2.99805 11.1133-2.76855Q11.3379-2.53906 11.6895-2.53906Q12.0605-2.53906 12.29-2.76855Q12.5195-2.99805 12.5195-3.36914L12.5195-6.25L15.4004-6.25Q15.7715-6.25 16.001-6.47461Q16.2305-6.69922 16.2305-7.05078Q16.2305-7.42188 16.001-7.65137Q15.7715-7.88086 15.4004-7.88086L12.5195-7.88086L12.5195-10.752Q12.5195-11.1328 12.29-11.3623Q12.0605-11.5918 11.6895-11.5918Q11.3379-11.5918 11.1133-11.3574Q10.8887-11.123 10.8887-10.752L10.8887-7.88086L8.01758-7.88086Q7.63672-7.88086 7.40723-7.65137Q7.17773-7.42188 7.17773-7.05078Z"/>
  </g>
  <g transform="matrix(1 0 0 1 305.646 1933)">
   <path d="M14.9707 5.66406Q17.0605 5.66406 18.96 5.01465Q20.8594 4.36523 22.4512 3.19336Q24.043 2.02148 25.2197 0.429688Q26.3965-1.16211 27.0459-3.06641Q27.6953-4.9707 27.6953-7.05078Q27.6953-9.14062 27.0459-11.04Q26.3965-12.9395 25.2197-14.5312Q24.043-16.123 22.4512-17.2998Q20.8594-18.4766 18.9551-19.126Q17.0508-19.7754 14.9609-19.7754Q12.8711-19.7754 10.9717-19.126Q9.07227-18.4766 7.48535-17.2998Q5.89844-16.123 4.72168-14.5312Q3.54492-12.9395 2.90039-11.04Q2.25586-9.14062 2.25586-7.05078Q2.25586-4.9707 2.90527-3.06641Q3.55469-1.16211 4.72656 0.429688Q5.89844 2.02148 7.49023 3.19336Q9.08203 4.36523 10.9814 5.01465Q12.8809 5.66406 14.9707 5.66406ZM14.9707 3.84766Q13.1641 3.84766 11.5283 3.2959Q9.89258 2.74414 8.53516 1.74805Q7.17773 0.751953 6.17676-0.610352Q5.17578-1.97266 4.62891-3.6084Q4.08203-5.24414 4.08203-7.05078Q4.08203-8.86719 4.62891-10.5029Q5.17578-12.1387 6.17188-13.501Q7.16797-14.8633 8.52539-15.8594Q9.88281-16.8555 11.5186-17.4023Q13.1543-17.9492 14.9609-17.9492Q16.7773-17.9492 18.4131-17.4023Q20.0488-16.8555 21.4111-15.8594Q22.7734-14.8633 23.7695-13.501Q24.7656-12.1387 25.3174-10.5029Q25.8691-8.86719 25.8691-7.05078Q25.8789-5.24414 25.332-3.6084Q24.7852-1.97266 23.7842-0.610352Q22.7832 0.751953 21.4209 1.74805Q20.0586 2.74414 18.4229 3.2959Q16.7871 3.84766 14.9707 3.84766ZM9.19922-7.05078Q9.19922-6.66992 9.45801-6.4209Q9.7168-6.17188 10.1172-6.17188L14.0625-6.17188L14.0625-2.2168Q14.0625-1.81641 14.3115-1.55762Q14.5605-1.29883 14.9512-1.29883Q15.3516-1.29883 15.6104-1.55273Q15.8691-1.80664 15.8691-2.2168L15.8691-6.17188L19.8242-6.17188Q20.2246-6.17188 20.4785-6.4209Q20.7324-6.66992 20.7324-7.05078Q20.7324-7.46094 20.4785-7.71484Q20.2246-7.96875 19.8242-7.96875L15.8691-7.96875L15.8691-11.9141Q15.8691-12.3242 15.6104-12.583Q15.3516-12.8418 14.9512-12.8418Q14.5605-12.8418 14.3115-12.583Q14.0625-12.3242 14.0625-11.9141L14.0625-7.96875L10.1172-7.96875Q9.70703-7.96875 9.45312-7.71484Q9.19922-7.46094 9.19922-7.05078Z"/>
  </g>
  <text style="stroke:none;fill:black;font-family:sans-serif;font-size:13;font-weight:bold;" transform="matrix(1 0 0 1 263 1953)">Design Variations</text>
  <text style="stroke:none;fill:black;font-family:sans-serif;font-size:13;" transform="matrix(1 0 0 1 263 1971)">Symbols are supported in up to nine weights and three scales.</text>
  <text style="stroke:none;fill:black;font-family:sans-serif;font-size:13;" transform="matrix(1 0 0 1 263 1989)">For optimal layout with text and other symbols, vertically align</text>
  <text style="stroke:none;fill:black;font-family:sans-serif;font-size:13;" transform="matrix(1 0 0 1 263 2007)">symbols with the adjacent text.</text>
  <line style="fill:none;stroke:#00AEEF;stroke-width:0.5;opacity:1.0;" x1="776" x2="776" y1="1919" y2="1933"/>
  <g transform="matrix(1 0 0 1 776 1933)">
   <path d="M3.31055 0.15625Q3.70117 0.15625 3.91602-0.00976562Q4.13086-0.175781 4.26758-0.585938L5.52734-4.0332L11.2891-4.0332L12.5488-0.585938Q12.6855-0.175781 12.9004-0.00976562Q13.1152 0.15625 13.4961 0.15625Q13.8867 0.15625 14.1162-0.0585938Q14.3457-0.273438 14.3457-0.644531Q14.3457-0.869141 14.2383-1.17188L9.6582-13.3691Q9.48242-13.8184 9.17969-14.043Q8.87695-14.2676 8.4082-14.2676Q7.5-14.2676 7.17773-13.3789L2.59766-1.16211Q2.49023-0.859375 2.49023-0.634766Q2.49023-0.263672 2.70996-0.0537109Q2.92969 0.15625 3.31055 0.15625ZM6.00586-5.51758L8.37891-12.0898L8.42773-12.0898L10.8008-5.51758Z"/>
  </g>
  <line style="fill:none;stroke:#00AEEF;stroke-width:0.5;opacity:1.0;" x1="793.197" x2="793.197" y1="1919" y2="1933"/>
  <text style="stroke:none;fill:black;font-family:sans-serif;font-size:13;font-weight:bold;" transform="matrix(1 0 0 1 776 1953)">Margins</text>
  <text style="stroke:none;fill:black;font-family:sans-serif;font-size:13;" transform="matrix(1 0 0 1 776 1971)">Leading and trailing margins on the left and right side of each symbol</text>
  <text style="stroke:none;fill:black;font-family:sans-serif;font-size:13;" transform="matrix(1 0 0 1 776 1989)">can be adjusted by modifying the x-location of the margin guidelines.</text>
  <text style="stroke:none;fill:black;font-family:sans-serif;font-size:13;" transform="matrix(1 0 0 1 776 2007)">Modifications are automatically applied proportionally to all</text>
  <text style="stroke:none;fill:black;font-family:sans-serif;font-size:13;" transform="matrix(1 0 0 1 776 2025)">scales and weights.</text>
  <g transform="matrix(1 0 0 1 1289 1933)">
   <path d="M2.8418 1.86523L4.54102 3.57422Q5.18555 4.22852 5.90332 4.17969Q6.62109 4.13086 7.31445 3.35938L18.0078-8.42773L17.041-9.4043L6.42578 2.27539Q6.16211 2.57812 5.89355 2.61719Q5.625 2.65625 5.27344 2.30469L4.10156 1.14258Q3.75 0.791016 3.79395 0.522461Q3.83789 0.253906 4.14062-0.0195312L15.6152-10.8203L14.6387-11.7871L3.04688-0.898438Q2.30469-0.214844 2.25098 0.498047Q2.19727 1.21094 2.8418 1.86523ZM9.25781-16.3281Q8.94531-16.0254 8.90625-15.6348Q8.86719-15.2441 9.04297-14.9512Q9.21875-14.6777 9.55566-14.541Q9.89258-14.4043 10.3809-14.5215Q11.4746-14.7754 12.5977-14.7314Q13.7207-14.6875 14.7949-13.9844L14.209-12.5293Q13.9551-11.9043 14.0674-11.4404Q14.1797-10.9766 14.5801-10.5664L16.875-8.25195Q17.2363-7.88086 17.5781-7.82227Q17.9199-7.76367 18.3398-7.8418L19.4043-8.03711L20.0684-7.36328L20.0293-6.80664Q20-6.43555 20.1221-6.12305Q20.2441-5.81055 20.6055-5.44922L21.3672-4.70703Q21.7285-4.3457 22.1533-4.33105Q22.5781-4.31641 22.9297-4.66797L25.8398-7.58789Q26.1914-7.93945 26.1816-8.35449Q26.1719-8.76953 25.8105-9.13086L25.0391-9.89258Q24.6875-10.2539 24.3799-10.3857Q24.0723-10.5176 23.7109-10.4883L23.1348-10.4395L22.4902-11.0742L22.7344-12.1973Q22.832-12.6172 22.6953-12.9834Q22.5586-13.3496 22.1191-13.7891L19.9219-15.9766Q18.6719-17.2168 17.2607-17.8369Q15.8496-18.457 14.4189-18.4814Q12.9883-18.5059 11.665-17.959Q10.3418-17.4121 9.25781-16.3281ZM10.752-15.957Q11.6602-16.6211 12.7002-16.9043Q13.7402-17.1875 14.8047-17.085Q15.8691-16.9824 16.8701-16.5137Q17.8711-16.0449 18.7012-15.2051L21.1328-12.793Q21.3086-12.6172 21.3525-12.4512Q21.3965-12.2852 21.3379-12.0312L21.0156-10.5469L22.5195-9.0625L23.5059-9.12109Q23.6914-9.13086 23.7891-9.09668Q23.8867-9.0625 24.0332-8.91602L24.6094-8.33984L22.168-5.89844L21.5918-6.47461Q21.4453-6.62109 21.4062-6.71875Q21.3672-6.81641 21.377-7.01172L21.4453-7.98828L19.9512-9.47266L18.4277-9.21875Q18.1836-9.16992 18.042-9.2041Q17.9004-9.23828 17.7148-9.41406L15.7129-11.416Q15.5176-11.5918 15.4932-11.7529Q15.4688-11.9141 15.5859-12.1875L16.4648-14.2773Q15.293-15.3711 13.8281-15.791Q12.3633-16.2109 10.8398-15.7617Q10.7227-15.7324 10.6885-15.8057Q10.6543-15.8789 10.752-15.957Z"/>
  </g>
  <text style="stroke:none;fill:black;font-family:sans-serif;font-size:13;font-weight:bold;" transform="matrix(1 0 0 1 1289 1953)">Exporting</text>
  <text style="stroke:none;fill:black;font-family:sans-serif;font-size:13;" transform="matrix(1 0 0 1 1289 1971)">Symbols should be outlined when exporting to ensure the</text>
  <text style="stroke:none;fill:black;font-family:sans-serif;font-size:13;" transform="matrix(1 0 0 1 1289 1989)">design is preserved when submitting to Xcode.</text>
  <text id="template-version" style="stroke:none;fill:black;font-family:sans-serif;font-size:13;text-anchor:end;" transform="matrix(1 0 0 1 3036 1933)">Template v.3.0</text>
  <text style="stroke:none;fill:black;font-family:sans-serif;font-size:13;text-anchor:end;" transform="matrix(1 0 0 1 3036 1951)">Requires Xcode 13 or greater</text>
  <text id="descriptive-name" style="stroke:none;fill:black;font-family:sans-serif;font-size:13;text-anchor:end;" transform="matrix(1 0 0 1 3036 1969)">Generated from divide</text>
  <text style="stroke:none;fill:black;font-family:sans-serif;font-size:13;text-anchor:end;" transform="matrix(1 0 0 1 3036 1987)">Typeset at 100 points</text>
  <text style="stroke:none;fill:black;font-family:sans-serif;font-size:13;" transform="matrix(1 0 0 1 263 726)">Small</text>
  <text style="stroke:none;fill:black;font-family:sans-serif;font-size:13;" transform="matrix(1 0 0 1 263 1156)">Medium</text>
  <text style="stroke:none;fill:black;font-family:sans-serif;font-size:13;" transform="matrix(1 0 0 1 263 1586)">Large</text>
 </g>
 <g id="Guides">
  <g id="H-reference" style="fill:#27AAE1;stroke:none;" transform="matrix(1 0 0 1 339 696)">
   <path d="M0.976562 0L3.66211 0L29.3457-67.1387L30.0293-67.1387L30.0293-70.459L28.125-70.459ZM11.6699-24.4629L46.9727-24.4629L46.2402-26.709L12.4512-26.709ZM55.127 0L57.7637 0L30.6152-70.459L29.4434-70.459L29.4434-67.1387Z"/>
  </g>
  <line id="Baseline-S" style="fill:none;stroke:#27AAE1;opacity:1;stroke-width:0.5;" x1="263" x2="3036" y1="696" y2="696"/>
  <line id="Capline-S" style="fill:none;stroke:#27AAE1;opacity:1;stroke-width:0.5;" x1="263" x2="3036" y1="625.541" y2="625.541"/>
  <g id="H-reference" style="fill:#27AAE1;stroke:none;" transform="matrix(1 0 0 1 339 1126)">
   <path d="M0.976562 0L3.66211 0L29.3457-67.1387L30.0293-67.1387L30.0293-70.459L28.125-70.459ZM11.6699-24.4629L46.9727-24.4629L46.2402-26.709L12.4512-26.709ZM55.127 0L57.7637 0L30.6152-70.459L29.4434-70.459L29.4434-67.1387Z"/>
  </g>
  <line id="Baseline-M" style="fill:none;stroke:#27AAE1;opacity:1;stroke-width:0.5;" x1="263" x2="3036" y1="1126" y2="1126"/>
  <line id="Capline-M" style="fill:none;stroke:#27AAE1;opacity:1;stroke-width:0.5;" x1="263" x2="3036" y1="1055.54" y2="1055.54"/>
  <g id="H-reference" style="fill:#27AAE1;stroke:none;" transform="matrix(1 0 0 1 339 1556)">
   <path d="M0.976562 0L3.66211 0L29.3457-67.1387L30.0293-67.1387L30.0293-70.459L28.125-70.459ZM11.6699-24.4629L46.9727-24.4629L46.2402-26.709L12.4512-26.709ZM55.127 0L57.7637 0L30.6152-70.459L29.4434-70.459L29.4434-67.1387Z"/>
  </g>
  <line id="Baseline-L" style="fill:none;stroke:#27AAE1;opacity:1;stroke-width:0.5;" x1="263" x2="3036" y1="1556" y2="1556"/>
  <line id="Capline-L" style="fill:none;stroke:#27AAE1;opacity:1;stroke-width:0.5;" x1="263" x2="3036" y1="1485.54" y2="1485.54"/>
  <line id="left-margin-Regular-M" style="fill:none;stroke:#00AEEF;stroke-width:0.5;opacity:1.0;" x1="1392.45" x2="1392.45" y1="1030.78" y2="1150.12"/>
  <line id="right-margin-Regular-M" style="fill:none;stroke:#00AEEF;stroke-width:0.5;opacity:1.0;" x1="1507.24" x2="1507.24" y1="1030.78" y2="1150.12"/>
 </g>
 <g id="Symbols">
  <g id="Black-L" transform="matrix(1 0 0 1 2863.84 1556)">
   <path class="hierarchical-0:primary SFSymbolsPreview212121" d="M51.25-1.1C51.25-11.31 59.52-19.58 69.72-19.58C79.92-19.58 88.2-11.31 88.2-1.1C88.2 9.1 79.92 17.37 69.72 17.37C59.52 17.37 51.25 9.1 51.25-1.1ZM51.25-69.35C51.25-79.56 59.52-87.83 69.72-87.83C79.92-87.83 88.2-79.56 88.2-69.35C88.2-59.15 79.92-50.88 69.72-50.88C59.52-50.88 51.25-59.15 51.25-69.35ZM69.72-5.38C67.36-5.38 65.45-3.47 65.45-1.1C65.45 1.26 67.36 3.17 69.72 3.17C72.08 3.17 74 1.26 74-1.1C74-3.47 72.08-5.38 69.72-5.38ZM69.72-73.63C67.36-73.63 65.45-71.72 65.45-69.35C65.45-66.99 67.36-65.08 69.72-65.08C72.08-65.08 74-66.99 74-69.35C74-71.72 72.08-73.63 69.72-73.63Z"/>
   <path class="hierarchical-1:secondary SFSymbolsPreview4D4D4D" d="M22.81-35.23C22.81-39.15 25.99-42.33 29.91-42.33L109.53-42.33C113.45-42.33 116.63-39.15 116.63-35.23C116.63-31.31 113.45-28.13 109.53-28.13L29.91-28.13C25.99-28.13 22.81-31.31 22.81-35.23Z"/>
  </g>
  <g id="Heavy-L" transform="matrix(1 0 0 1 2567.97 1556)">
   <path class="hierarchical-0:primary SFSymbolsPreview212121" d="M51.25-1.1C51.25-10.84 59.14-18.73 68.88-18.73C78.61-18.73 86.5-10.84 86.5-1.1C86.5 8.63 78.61 16.52 68.88 16.52C59.14 16.52 51.25 8.63 51.25-1.1ZM51.25-69.35C51.25-79.09 59.14-86.98 68.88-86.98C78.61-86.98 86.5-79.09 86.5-69.35C86.5-59.62 78.61-51.73 68.88-51.73C59.14-51.73 51.25-59.62 51.25-69.35ZM68.88-6.23C66.05-6.23 63.75-3.93 63.75-1.1C63.75 1.73 66.05 4.02 68.88 4.02C71.71 4.02 74 1.73 74-1.1C74-3.93 71.71-6.23 68.88-6.23ZM68.88-74.48C66.05-74.48 63.75-72.18 63.75-69.35C63.75-66.52 66.05-64.23 68.88-64.23C71.71-64.23 74-66.52 74-69.35C74-72.18 71.71-74.48 68.88-74.48Z"/>
   <path class="hierarchical-1:secondary SFSymbolsPreview4D4D4D" d="M22.81-35.23C22.81-38.68 25.61-41.48 29.07-41.48L108.69-41.48C112.14-41.48 114.94-38.68 114.94-35.23C114.94-31.78 112.14-28.98 108.69-28.98L29.07-28.98C25.61-28.98 22.81-31.78 22.81-35.23Z"/>
  </g>
  <g id="Bold-L" transform="matrix(1 0 0 1 2272.21 1556)">
   <path class="hierarchical-0:primary SFSymbolsPreview212121" d="M51.25-1.1C51.25-10.31 58.72-17.78 67.92-17.78C77.13-17.78 84.6-10.31 84.6-1.1C84.6 8.11 77.13 15.57 67.92 15.57C58.72 15.57 51.25 8.11 51.25-1.1ZM51.25-69.35C51.25-78.56 58.72-86.03 67.92-86.03C77.13-86.03 84.6-78.56 84.6-69.35C84.6-60.14 77.13-52.68 67.92-52.68C58.72-52.68 51.25-60.14 51.25-69.35ZM67.92-7.18C64.57-7.18 61.85-4.46 61.85-1.1C61.85 2.25 64.57 4.97 67.92 4.97C71.28 4.97 74 2.25 74-1.1C74-4.46 71.28-7.18 67.92-7.18ZM67.92-75.43C64.57-75.43 61.85-72.71 61.85-69.35C61.85-66 64.57-63.28 67.92-63.28C71.28-63.28 74-66 74-69.35C74-72.71 71.28-75.43 67.92-75.43Z"/>
   <path class="hierarchical-1:secondary SFSymbolsPreview4D4D4D" d="M22.81-35.23C22.81-38.16 25.19-40.53 28.11-40.53L107.74-40.53C110.66-40.53 113.04-38.16 113.04-35.23C113.04-32.3 110.66-29.93 107.74-29.93L28.11-29.93C25.19-29.93 22.81-32.3 22.81-35.23Z"/>
  </g>
  <g id="Semibold-L" transform="matrix(1 0 0 1 1976.15 1556)">
   <path class="hierarchical-0:primary SFSymbolsPreview212121" d="M51.24-1.1C51.24-9.96 58.42-17.13 67.27-17.13C76.12-17.13 83.29-9.96 83.29-1.1C83.29 7.75 76.12 14.92 67.27 14.92C58.42 14.92 51.24 7.75 51.24-1.1ZM51.24-69.35C51.24-78.21 58.42-85.38 67.27-85.38C76.12-85.38 83.29-78.21 83.29-69.35C83.29-60.5 76.12-53.33 67.27-53.33C58.42-53.33 51.24-60.5 51.24-69.35ZM67.27-7.83C63.56-7.83 60.54-4.82 60.54-1.1C60.54 2.61 63.56 5.62 67.27 5.62C70.98 5.62 73.99 2.61 73.99-1.1C73.99-4.82 70.98-7.83 67.27-7.83ZM67.27-76.08C63.56-76.08 60.54-73.07 60.54-69.35C60.54-65.64 63.56-62.63 67.27-62.63C70.98-62.63 73.99-65.64 73.99-69.35C73.99-73.07 70.98-76.08 67.27-76.08Z"/>
   <path class="hierarchical-1:secondary SFSymbolsPreview4D4D4D" d="M22.81-35.23C22.81-37.8 24.89-39.88 27.46-39.88L107.08-39.88C109.65-39.88 111.73-37.8 111.73-35.23C111.73-32.66 109.65-30.58 107.08-30.58L27.46-30.58C24.89-30.58 22.81-32.66 22.81-35.23Z"/>
  </g>
  <g id="Medium-L" transform="matrix(1 0 0 1 1679.94 1556)">
   <path class="hierarchical-0:primary SFSymbolsPreview212121" d="M51.24-1.1C51.24-9.68 58.2-16.63 66.77-16.63C75.34-16.63 82.29-9.68 82.29-1.1C82.29 7.47 75.34 14.42 66.77 14.42C58.2 14.42 51.24 7.47 51.24-1.1ZM51.24-69.35C51.24-77.93 58.2-84.88 66.77-84.88C75.34-84.88 82.29-77.93 82.29-69.35C82.29-60.78 75.34-53.83 66.77-53.83C58.2-53.83 51.24-60.78 51.24-69.35ZM66.77-8.33C62.78-8.33 59.54-5.1 59.54-1.1C59.54 2.89 62.78 6.12 66.77 6.12C70.76 6.12 73.99 2.89 73.99-1.1C73.99-5.1 70.76-8.33 66.77-8.33ZM66.77-76.58C62.78-76.58 59.54-73.35 59.54-69.35C59.54-65.36 62.78-62.13 66.77-62.13C70.76-62.13 73.99-65.36 73.99-69.35C73.99-73.35 70.76-76.58 66.77-76.58Z"/>
   <path class="hierarchical-1:secondary SFSymbolsPreview4D4D4D" d="M22.81-35.23C22.81-37.52 24.67-39.38 26.96-39.38L106.58-39.38C108.87-39.38 110.73-37.52 110.73-35.23C110.73-32.94 108.87-31.08 106.58-31.08L26.96-31.08C24.67-31.08 22.81-32.94 22.81-35.23Z"/>
  </g>
  <g id="Regular-L" transform="matrix(1 0 0 1 1383.88 1556)">
   <path class="hierarchical-0:primary SFSymbolsPreview212121" d="M51.24-1.1C51.24-9.32 57.9-15.98 66.12-15.98C74.34-15.98 81-9.32 81-1.1C81 7.11 74.34 13.77 66.12 13.77C57.9 13.77 51.24 7.11 51.24-1.1ZM51.24-69.35C51.24-77.57 57.9-84.23 66.12-84.23C74.34-84.23 81-77.57 81-69.35C81-61.14 74.34-54.48 66.12-54.48C57.9-54.48 51.24-61.14 51.24-69.35ZM66.12-8.98C61.77-8.98 58.24-5.45 58.24-1.1C58.24 3.24 61.77 6.77 66.12 6.77C70.47 6.77 74 3.24 74-1.1C74-5.45 70.47-8.98 66.12-8.98ZM66.12-77.23C61.77-77.23 58.24-73.7 58.24-69.35C58.24-65.01 61.77-61.48 66.12-61.48C70.47-61.48 74-65.01 74-69.35C74-73.7 70.47-77.23 66.12-77.23Z"/>
   <path class="hierarchical-1:secondary SFSymbolsPreview4D4D4D" d="M22.81-35.23C22.81-37.16 24.37-38.73 26.31-38.73L105.93-38.73C107.87-38.73 109.43-37.16 109.43-35.23C109.43-33.3 107.87-31.73 105.93-31.73L26.31-31.73C24.37-31.73 22.81-33.3 22.81-35.23Z"/>
  </g>
  <g id="Light-L" transform="matrix(1 0 0 1 1087.97 1556)">
   <path class="hierarchical-0:primary SFSymbolsPreview212121" d="M51.24-1.1C51.24-8.88 57.55-15.18 65.32-15.18C73.09-15.18 79.39-8.88 79.39-1.1C79.39 6.67 73.09 12.97 65.32 12.97C57.55 12.97 51.24 6.67 51.24-1.1ZM51.24-69.35C51.24-77.13 57.55-83.43 65.32-83.43C73.09-83.43 79.39-77.13 79.39-69.35C79.39-61.58 73.09-55.28 65.32-55.28C57.55-55.28 51.24-61.58 51.24-69.35ZM65.32-9.78C60.53-9.78 56.64-5.9 56.64-1.1C56.64 3.69 60.53 7.57 65.32 7.57C70.11 7.57 73.99 3.69 73.99-1.1C73.99-5.9 70.11-9.78 65.32-9.78ZM65.32-78.03C60.53-78.03 56.64-74.15 56.64-69.35C56.64-64.56 60.53-60.68 65.32-60.68C70.11-60.68 73.99-64.56 73.99-69.35C73.99-74.15 70.11-78.03 65.32-78.03Z"/>
   <path class="hierarchical-1:secondary SFSymbolsPreview4D4D4D" d="M22.81-35.23C22.81-36.72 24.02-37.93 25.51-37.93L105.13-37.93C106.62-37.93 107.83-36.72 107.83-35.23C107.83-33.74 106.62-32.53 105.13-32.53L25.51-32.53C24.02-32.53 22.81-33.74 22.81-35.23Z"/>
  </g>
  <g id="Thin-L" transform="matrix(1 0 0 1 792.305 1556)">
   <path class="hierarchical-0:primary SFSymbolsPreview212121" d="M51.248-1.1C51.248-8.3 57.079-14.13 64.273-14.13C71.466-14.13 77.298-8.3 77.298-1.1C77.298 6.09 71.466 11.92 64.273 11.92C57.079 11.92 51.248 6.09 51.248-1.1ZM51.248-69.35C51.248-76.55 57.079-82.38 64.273-82.38C71.466-82.38 77.298-76.55 77.298-69.35C77.298-62.16 71.466-56.33 64.273-56.33C57.079-56.33 51.248-62.16 51.248-69.35ZM64.273-10.83C58.902-10.83 54.548-6.48 54.548-1.1C54.548 4.27 58.902 8.62 64.273 8.62C69.644 8.62 73.998 4.27 73.998-1.1C73.998-6.48 69.644-10.83 64.273-10.83ZM64.273-79.08C58.902-79.08 54.548-74.73 54.548-69.35C54.548-63.98 58.902-59.63 64.273-59.63C69.644-59.63 73.998-63.98 73.998-69.35C73.998-74.73 69.644-79.08 64.273-79.08Z"/>
   <path class="hierarchical-1:secondary SFSymbolsPreview4D4D4D" d="M22.81-35.23C22.81-36.14 23.549-36.88 24.46-36.88L104.085-36.88C104.996-36.88 105.735-36.14 105.735-35.23C105.735-34.32 104.996-33.58 104.085-33.58L24.46-33.58C23.549-33.58 22.81-34.32 22.81-35.23Z"/>
  </g>
  <g id="Ultralight-L" transform="matrix(1 0 0 1 496.144 1556)">
   <path class="hierarchical-0:primary SFSymbolsPreview212121" d="M51.247-1.1C51.247-7.99 56.833-13.58 63.722-13.58C70.612-13.58 76.197-7.99 76.197-1.1C76.197 5.79 70.612 11.37 63.722 11.37C56.833 11.37 51.247 5.79 51.247-1.1ZM51.247-69.35C51.247-76.24 56.833-81.83 63.722-81.83C70.612-81.83 76.197-76.24 76.197-69.35C76.197-62.46 70.612-56.88 63.722-56.88C56.833-56.88 51.247-62.46 51.247-69.35ZM63.722-11.38C58.048-11.38 53.447-6.78 53.447-1.1C53.447 4.57 58.048 9.17 63.722 9.17C69.397 9.17 73.997 4.57 73.997-1.1C73.997-6.78 69.397-11.38 63.722-11.38ZM63.722-79.63C58.048-79.63 53.447-75.03 53.447-69.35C53.447-63.68 58.048-59.08 63.722-59.08C69.397-59.08 73.997-63.68 73.997-69.35C73.997-75.03 69.397-79.63 63.722-79.63Z"/>
   <path class="hierarchical-1:secondary SFSymbolsPreview4D4D4D" d="M22.81-35.23C22.81-35.84 23.302-36.33 23.91-36.33L103.535-36.33C104.142-36.33 104.635-35.84 104.635-35.23C104.635-34.62 104.142-34.13 103.535-34.13L23.91-34.13C23.302-34.13 22.81-34.62 22.81-35.23Z"/>
  </g>
  <g id="Black-M" transform="matrix(1 0 0 1 2872.41 1126)">
   <path class="hierarchical-0:primary SFSymbolsPreview212121" d="M45.12-8.45C45.12-17.3 52.29-24.48 61.14-24.48C69.99-24.48 77.17-17.3 77.17-8.45C77.17 0.4 69.99 7.57 61.14 7.57C52.29 7.57 45.12 0.4 45.12-8.45ZM45.12-62C45.12-70.85 52.29-78.03 61.14-78.03C69.99-78.03 77.17-70.85 77.17-62C77.17-53.15 69.99-45.98 61.14-45.98C52.29-45.98 45.12-53.15 45.12-62ZM61.14-10.28C60.14-10.28 59.32-9.46 59.32-8.45C59.32-7.45 60.14-6.63 61.14-6.63C62.15-6.63 62.97-7.45 62.97-8.45C62.97-9.46 62.15-10.28 61.14-10.28ZM61.14-63.83C60.14-63.83 59.32-63.01 59.32-62C59.32-61 60.14-60.18 61.14-60.18C62.15-60.18 62.97-61 62.97-62C62.97-63.01 62.15-63.83 61.14-63.83Z"/>
   <path class="hierarchical-1:secondary SFSymbolsPreview4D4D4D" d="M22.81-35.23C22.81-39.15 25.99-42.33 29.91-42.33L92.38-42.33C96.3-42.33 99.48-39.15 99.48-35.23C99.48-31.31 96.3-28.13 92.38-28.13L29.91-28.13C25.99-28.13 22.81-31.31 22.81-35.23Z"/>
  </g>
  <g id="Heavy-M" transform="matrix(1 0 0 1 2576.55 1126)">
   <path class="hierarchical-0:primary SFSymbolsPreview212121" d="M45.12-8.45C45.12-16.84 51.91-23.63 60.29-23.63C68.68-23.63 75.47-16.84 75.47-8.45C75.47-0.07 68.68 6.72 60.29 6.72C51.91 6.72 45.12-0.07 45.12-8.45ZM45.12-62C45.12-70.39 51.91-77.18 60.29-77.18C68.68-77.18 75.47-70.39 75.47-62C75.47-53.62 68.68-46.83 60.29-46.83C51.91-46.83 45.12-53.62 45.12-62ZM60.29-11.13C58.82-11.13 57.62-9.93 57.62-8.45C57.62-6.98 58.82-5.78 60.29-5.78C61.77-5.78 62.97-6.98 62.97-8.45C62.97-9.93 61.77-11.13 60.29-11.13ZM60.29-64.68C58.82-64.68 57.62-63.48 57.62-62C57.62-60.53 58.82-59.33 60.29-59.33C61.77-59.33 62.97-60.53 62.97-62C62.97-63.48 61.77-64.68 60.29-64.68Z"/>
   <path class="hierarchical-1:secondary SFSymbolsPreview4D4D4D" d="M22.81-35.23C22.81-38.68 25.61-41.48 29.06-41.48L91.53-41.48C94.98-41.48 97.78-38.68 97.78-35.23C97.78-31.78 94.98-28.98 91.53-28.98L29.06-28.98C25.61-28.98 22.81-31.78 22.81-35.23Z"/>
  </g>
  <g id="Bold-M" transform="matrix(1 0 0 1 2280.79 1126)">
   <path class="hierarchical-0:primary SFSymbolsPreview212121" d="M45.12-8.45C45.12-16.31 51.49-22.68 59.34-22.68C67.2-22.68 73.57-16.31 73.57-8.45C73.57-0.6 67.2 5.77 59.34 5.77C51.49 5.77 45.12-0.6 45.12-8.45ZM45.12-62C45.12-69.86 51.49-76.23 59.34-76.23C67.2-76.23 73.57-69.86 73.57-62C73.57-54.15 67.2-47.78 59.34-47.78C51.49-47.78 45.12-54.15 45.12-62ZM59.34-12.08C57.34-12.08 55.72-10.46 55.72-8.45C55.72-6.45 57.34-4.83 59.34-4.83C61.35-4.83 62.97-6.45 62.97-8.45C62.97-10.46 61.35-12.08 59.34-12.08ZM59.34-65.63C57.34-65.63 55.72-64.01 55.72-62C55.72-60 57.34-58.38 59.34-58.38C61.35-58.38 62.97-60 62.97-62C62.97-64.01 61.35-65.63 59.34-65.63Z"/>
   <path class="hierarchical-1:secondary SFSymbolsPreview4D4D4D" d="M22.81-35.23C22.81-38.16 25.18-40.53 28.11-40.53L90.58-40.53C93.51-40.53 95.88-38.16 95.88-35.23C95.88-32.3 93.51-29.93 90.58-29.93L28.11-29.93C25.18-29.93 22.81-32.3 22.81-35.23Z"/>
  </g>
  <g id="Semibold-M" transform="matrix(1 0 0 1 1984.72 1126)">
   <path class="hierarchical-0:primary SFSymbolsPreview212121" d="M45.12-8.45C45.12-15.95 51.2-22.03 58.7-22.03C66.2-22.03 72.27-15.95 72.27-8.45C72.27-0.96 66.2 5.12 58.7 5.12C51.2 5.12 45.12-0.96 45.12-8.45ZM45.12-62C45.12-69.5 51.2-75.58 58.7-75.58C66.2-75.58 72.27-69.5 72.27-62C72.27-54.51 66.2-48.43 58.7-48.43C51.2-48.43 45.12-54.51 45.12-62ZM58.7-12.73C56.34-12.73 54.42-10.82 54.42-8.45C54.42-6.09 56.34-4.18 58.7-4.18C61.06-4.18 62.97-6.09 62.97-8.45C62.97-10.82 61.06-12.73 58.7-12.73ZM58.7-66.28C56.34-66.28 54.42-64.37 54.42-62C54.42-59.64 56.34-57.73 58.7-57.73C61.06-57.73 62.97-59.64 62.97-62C62.97-64.37 61.06-66.28 58.7-66.28Z"/>
   <path class="hierarchical-1:secondary SFSymbolsPreview4D4D4D" d="M22.81-35.23C22.81-37.8 24.89-39.88 27.46-39.88L89.94-39.88C92.51-39.88 94.59-37.8 94.59-35.23C94.59-32.66 92.51-30.58 89.94-30.58L27.46-30.58C24.89-30.58 22.81-32.66 22.81-35.23Z"/>
  </g>
  <g id="Medium-M" transform="matrix(1 0 0 1 1688.51 1126)">
   <path class="hierarchical-0:primary SFSymbolsPreview212121" d="M45.12-8.45C45.12-15.68 50.98-21.53 58.2-21.53C65.42-21.53 71.27-15.68 71.27-8.45C71.27-1.23 65.42 4.62 58.2 4.62C50.98 4.62 45.12-1.23 45.12-8.45ZM45.12-62C45.12-69.23 50.98-75.08 58.2-75.08C65.42-75.08 71.27-69.23 71.27-62C71.27-54.78 65.42-48.93 58.2-48.93C50.98-48.93 45.12-54.78 45.12-62ZM58.2-13.23C55.56-13.23 53.42-11.09 53.42-8.45C53.42-5.82 55.56-3.68 58.2-3.68C60.84-3.68 62.97-5.82 62.97-8.45C62.97-11.09 60.84-13.23 58.2-13.23ZM58.2-66.78C55.56-66.78 53.42-64.64 53.42-62C53.42-59.37 55.56-57.23 58.2-57.23C60.84-57.23 62.97-59.37 62.97-62C62.97-64.64 60.84-66.78 58.2-66.78Z"/>
   <path class="hierarchical-1:secondary SFSymbolsPreview4D4D4D" d="M22.81-35.23C22.81-37.52 24.67-39.38 26.96-39.38L89.44-39.38C91.73-39.38 93.59-37.52 93.59-35.23C93.59-32.94 91.73-31.08 89.44-31.08L26.96-31.08C24.67-31.08 22.81-32.94 22.81-35.23Z"/>
  </g>
  <g id="Regular-M" transform="matrix(1 0 0 1 1392.45 1126)">
   <path class="hierarchical-0:primary SFSymbolsPreview212121" d="M45.13-8.45C45.13-15.32 50.69-20.88 57.55-20.88C64.41-20.88 69.98-15.32 69.98-8.45C69.98-1.59 64.41 3.97 57.55 3.97C50.69 3.97 45.13-1.59 45.13-8.45ZM45.13-62C45.13-68.87 50.69-74.43 57.55-74.43C64.41-74.43 69.98-68.87 69.98-62C69.98-55.14 64.41-49.58 57.55-49.58C50.69-49.58 45.13-55.14 45.13-62ZM57.55-13.88C54.55-13.88 52.13-11.45 52.13-8.45C52.13-5.46 54.55-3.03 57.55-3.03C60.55-3.03 62.98-5.46 62.98-8.45C62.98-11.45 60.55-13.88 57.55-13.88ZM57.55-67.43C54.55-67.43 52.13-65 52.13-62C52.13-59.01 54.55-56.58 57.55-56.58C60.55-56.58 62.98-59.01 62.98-62C62.98-65 60.55-67.43 57.55-67.43Z"/>
   <path class="hierarchical-1:secondary SFSymbolsPreview4D4D4D" d="M22.81-35.23C22.81-37.16 24.38-38.73 26.31-38.73L88.79-38.73C90.72-38.73 92.29-37.16 92.29-35.23C92.29-33.3 90.72-31.73 88.79-31.73L26.31-31.73C24.38-31.73 22.81-33.3 22.81-35.23Z"/>
  </g>
  <g id="Light-M" transform="matrix(1 0 0 1 1096.54 1126)">
   <path class="hierarchical-0:primary SFSymbolsPreview212121" d="M45.13-8.45C45.13-14.87 50.33-20.08 56.75-20.08C63.17-20.08 68.37-14.87 68.37-8.45C68.37-2.03 63.17 3.17 56.75 3.17C50.33 3.17 45.13-2.03 45.13-8.45ZM45.13-62C45.13-68.43 50.33-73.63 56.75-73.63C63.17-73.63 68.37-68.43 68.37-62C68.37-55.58 63.17-50.38 56.75-50.38C50.33-50.38 45.13-55.58 45.13-62ZM56.75-14.68C53.31-14.68 50.53-11.89 50.53-8.45C50.53-5.02 53.31-2.23 56.75-2.23C60.19-2.23 62.97-5.02 62.97-8.45C62.97-11.89 60.19-14.68 56.75-14.68ZM56.75-68.23C53.31-68.23 50.53-65.44 50.53-62C50.53-58.57 53.31-55.78 56.75-55.78C60.19-55.78 62.97-58.57 62.97-62C62.97-65.44 60.19-68.23 56.75-68.23Z"/>
   <path class="hierarchical-1:secondary SFSymbolsPreview4D4D4D" d="M22.81-35.23C22.81-36.72 24.02-37.93 25.51-37.93L87.99-37.93C89.48-37.93 90.69-36.72 90.69-35.23C90.69-33.74 89.48-32.53 87.99-32.53L25.51-32.53C24.02-32.53 22.81-33.74 22.81-35.23Z"/>
  </g>
  <g id="Thin-M" transform="matrix(1 0 0 1 800.88 1126)">
   <path class="hierarchical-0:primary SFSymbolsPreview212121" d="M45.123-8.45C45.123-14.29 49.857-19.03 55.698-19.03C61.538-19.03 66.273-14.29 66.273-8.45C66.273-2.61 61.538 2.12 55.698 2.12C49.857 2.12 45.123-2.61 45.123-8.45ZM45.123-62C45.123-67.84 49.857-72.58 55.698-72.58C61.538-72.58 66.273-67.84 66.273-62C66.273-56.16 61.538-51.43 55.698-51.43C49.857-51.43 45.123-56.16 45.123-62ZM55.698-15.73C51.68-15.73 48.423-12.47 48.423-8.45C48.423-4.44 51.68-1.18 55.698-1.18C59.716-1.18 62.973-4.44 62.973-8.45C62.973-12.47 59.716-15.73 55.698-15.73ZM55.698-69.28C51.68-69.28 48.423-66.02 48.423-62C48.423-57.99 51.68-54.73 55.698-54.73C59.716-54.73 62.973-57.99 62.973-62C62.973-66.02 59.716-69.28 55.698-69.28Z"/>
   <path class="hierarchical-1:secondary SFSymbolsPreview4D4D4D" d="M22.81-35.23C22.81-36.14 23.549-36.88 24.46-36.88L86.935-36.88C87.847-36.88 88.585-36.14 88.585-35.23C88.585-34.32 87.847-33.58 86.935-33.58L24.46-33.58C23.549-33.58 22.81-34.32 22.81-35.23Z"/>
  </g>
  <g id="Ultralight-M" transform="matrix(1 0 0 1 504.719 1126)">
   <path class="hierarchical-0:primary SFSymbolsPreview212121" d="M45.123-8.45C45.123-13.99 49.611-18.48 55.148-18.48C60.684-18.48 65.173-13.99 65.173-8.45C65.173-2.92 60.684 1.57 55.148 1.57C49.611 1.57 45.123-2.92 45.123-8.45ZM45.123-62C45.123-67.54 49.611-72.03 55.148-72.03C60.684-72.03 65.173-67.54 65.173-62C65.173-56.47 60.684-51.98 55.148-51.98C49.611-51.98 45.123-56.47 45.123-62ZM55.148-16.28C50.826-16.28 47.323-12.78 47.323-8.45C47.323-4.13 50.826-0.63 55.148-0.63C59.469-0.63 62.973-4.13 62.973-8.45C62.973-12.78 59.469-16.28 55.148-16.28ZM55.148-69.83C50.826-69.83 47.323-66.33 47.323-62C47.323-57.68 50.826-54.18 55.148-54.18C59.469-54.18 62.973-57.68 62.973-62C62.973-66.33 59.469-69.83 55.148-69.83Z"/>
   <path class="hierarchical-1:secondary SFSymbolsPreview4D4D4D" d="M22.81-35.23C22.81-35.84 23.303-36.33 23.91-36.33L86.385-36.33C86.993-36.33 87.485-35.84 87.485-35.23C87.485-34.62 86.993-34.13 86.385-34.13L23.91-34.13C23.303-34.13 22.81-34.62 22.81-35.23Z"/>
  </g>
  <g id="Black-S" transform="matrix(1 0 0 1 2879.15 696)">
   <path class="hierarchical-0:primary SFSymbolsPreview212121" d="M41.45-14.332C41.45-21.65 47.38-27.582 54.7-27.582C62.02-27.582 67.95-21.65 67.95-14.332C67.95-7.014 62.02-1.082 54.7-1.082C47.38-1.082 41.45-7.014 41.45-14.332ZM41.45-56.332C41.45-63.65 47.38-69.582 54.7-69.582C62.02-69.582 67.95-63.65 67.95-56.332C67.95-49.014 62.02-43.082 54.7-43.082C47.38-43.082 41.45-49.014 41.45-56.332ZM54.7-15.082C54.29-15.082 53.95-14.746 53.95-14.332C53.95-13.918 54.29-13.582 54.7-13.582C55.11-13.582 55.45-13.918 55.45-14.332C55.45-14.746 55.11-15.082 54.7-15.082ZM54.7-57.082C54.29-57.082 53.95-56.746 53.95-56.332C53.95-55.918 54.29-55.582 54.7-55.582C55.11-55.582 55.45-55.918 55.45-56.332C55.45-56.746 55.11-57.082 54.7-57.082Z"/>
   <path class="hierarchical-1:secondary SFSymbolsPreview4D4D4D" d="M22.81-35.332C22.81-39.253 25.99-42.432 29.91-42.432L78.91-42.432C82.83-42.432 86.01-39.253 86.01-35.332C86.01-31.41 82.83-28.232 78.91-28.232L29.91-28.232C25.99-28.232 22.81-31.41 22.81-35.332Z"/>
  </g>
  <g id="Heavy-S" transform="matrix(1 0 0 1 2583.28 696)">
   <path class="hierarchical-0:primary SFSymbolsPreview212121" d="M40.31-14.332C40.31-21.65 46.24-27.582 53.56-27.582C60.88-27.582 66.81-21.65 66.81-14.332C66.81-7.014 60.88-1.082 53.56-1.082C46.24-1.082 40.31-7.014 40.31-14.332ZM40.31-56.332C40.31-63.65 46.24-69.582 53.56-69.582C60.88-69.582 66.81-63.65 66.81-56.332C66.81-49.014 60.88-43.082 53.56-43.082C46.24-43.082 40.31-49.014 40.31-56.332ZM53.56-15.082C53.15-15.082 52.81-14.746 52.81-14.332C52.81-13.918 53.15-13.582 53.56-13.582C53.97-13.582 54.31-13.918 54.31-14.332C54.31-14.746 53.97-15.082 53.56-15.082ZM53.56-57.082C53.15-57.082 52.81-56.746 52.81-56.332C52.81-55.918 53.15-55.582 53.56-55.582C53.97-55.582 54.31-55.918 54.31-56.332C54.31-56.746 53.97-57.082 53.56-57.082Z"/>
   <path class="hierarchical-1:secondary SFSymbolsPreview4D4D4D" d="M22.81-35.332C22.81-38.784 25.61-41.582 29.06-41.582L78.06-41.582C81.51-41.582 84.31-38.784 84.31-35.332C84.31-31.88 81.51-29.082 78.06-29.082L29.06-29.082C25.61-29.082 22.81-31.88 22.81-35.332Z"/>
  </g>
  <g id="Bold-S" transform="matrix(1 0 0 1 2287.52 696)">
   <path class="hierarchical-0:primary SFSymbolsPreview212121" d="M40.31-14.127C40.31-20.92 45.82-26.427 52.61-26.427C59.41-26.427 64.91-20.92 64.91-14.127C64.91-7.334 59.41-1.827 52.61-1.827C45.82-1.827 40.31-7.334 40.31-14.127ZM40.31-56.127C40.31-62.92 45.82-68.427 52.61-68.427C59.41-68.427 64.91-62.92 64.91-56.127C64.91-49.334 59.41-43.827 52.61-43.827C45.82-43.827 40.31-49.334 40.31-56.127ZM52.61-15.827C51.68-15.827 50.91-15.066 50.91-14.127C50.91-13.188 51.68-12.427 52.61-12.427C53.55-12.427 54.31-13.188 54.31-14.127C54.31-15.066 53.55-15.827 52.61-15.827ZM52.61-57.827C51.68-57.827 50.91-57.066 50.91-56.127C50.91-55.188 51.68-54.427 52.61-54.427C53.55-54.427 54.31-55.188 54.31-56.127C54.31-57.066 53.55-57.827 52.61-57.827Z"/>
   <path class="hierarchical-1:secondary SFSymbolsPreview4D4D4D" d="M22.81-35.127C22.81-38.054 25.19-40.427 28.11-40.427L77.11-40.427C80.04-40.427 82.41-38.054 82.41-35.127C82.41-32.2 80.04-29.827 77.11-29.827L28.11-29.827C25.19-29.827 22.81-32.2 22.81-35.127Z"/>
  </g>
  <g id="Semibold-S" transform="matrix(1 0 0 1 1991.46 696)">
   <path class="hierarchical-0:primary SFSymbolsPreview212121" d="M40.31-14.127C40.31-20.561 45.53-25.777 51.96-25.777C58.39-25.777 63.61-20.561 63.61-14.127C63.61-7.693 58.39-2.477 51.96-2.477C45.53-2.477 40.31-7.693 40.31-14.127ZM40.31-56.127C40.31-62.561 45.53-67.777 51.96-67.777C58.39-67.777 63.61-62.561 63.61-56.127C63.61-49.693 58.39-44.477 51.96-44.477C45.53-44.477 40.31-49.693 40.31-56.127ZM51.96-16.477C50.66-16.477 49.61-15.425 49.61-14.127C49.61-12.829 50.66-11.777 51.96-11.777C53.26-11.777 54.31-12.829 54.31-14.127C54.31-15.425 53.26-16.477 51.96-16.477ZM51.96-58.477C50.66-58.477 49.61-57.425 49.61-56.127C49.61-54.829 50.66-53.777 51.96-53.777C53.26-53.777 54.31-54.829 54.31-56.127C54.31-57.425 53.26-58.477 51.96-58.477Z"/>
   <path class="hierarchical-1:secondary SFSymbolsPreview4D4D4D" d="M22.81-35.127C22.81-37.695 24.89-39.777 27.46-39.777L76.46-39.777C79.03-39.777 81.11-37.695 81.11-35.127C81.11-32.559 79.03-30.477 76.46-30.477L27.46-30.477C24.89-30.477 22.81-32.559 22.81-35.127Z"/>
  </g>
  <g id="Medium-S" transform="matrix(1 0 0 1 1695.25 696)">
   <path class="hierarchical-0:primary SFSymbolsPreview212121" d="M40.31-14.127C40.31-20.285 45.3-25.277 51.46-25.277C57.62-25.277 62.61-20.285 62.61-14.127C62.61-7.969 57.62-2.977 51.46-2.977C45.3-2.977 40.31-7.969 40.31-14.127ZM40.31-56.127C40.31-62.285 45.3-67.277 51.46-67.277C57.62-67.277 62.61-62.285 62.61-56.127C62.61-49.969 57.62-44.977 51.46-44.977C45.3-44.977 40.31-49.969 40.31-56.127ZM51.46-16.977C49.89-16.977 48.61-15.701 48.61-14.127C48.61-12.553 49.89-11.277 51.46-11.277C53.03-11.277 54.31-12.553 54.31-14.127C54.31-15.701 53.03-16.977 51.46-16.977ZM51.46-58.977C49.89-58.977 48.61-57.701 48.61-56.127C48.61-54.553 49.89-53.277 51.46-53.277C53.03-53.277 54.31-54.553 54.31-56.127C54.31-57.701 53.03-58.977 51.46-58.977Z"/>
   <path class="hierarchical-1:secondary SFSymbolsPreview4D4D4D" d="M22.81-35.127C22.81-37.419 24.67-39.277 26.96-39.277L75.96-39.277C78.25-39.277 80.11-37.419 80.11-35.127C80.11-32.835 78.25-30.977 75.96-30.977L26.96-30.977C24.67-30.977 22.81-32.835 22.81-35.127Z"/>
  </g>
  <g id="Regular-S" transform="matrix(1 0 0 1 1399.19 696)">
   <path class="hierarchical-0:primary SFSymbolsPreview212121" d="M40.31-14.127C40.31-19.926 45.01-24.627 50.81-24.627C56.61-24.627 61.31-19.926 61.31-14.127C61.31-8.328 56.61-3.627 50.81-3.627C45.01-3.627 40.31-8.328 40.31-14.127ZM40.31-56.127C40.31-61.926 45.01-66.627 50.81-66.627C56.61-66.627 61.31-61.926 61.31-56.127C61.31-50.328 56.61-45.627 50.81-45.627C45.01-45.627 40.31-50.328 40.31-56.127ZM50.81-17.627C48.88-17.627 47.31-16.06 47.31-14.127C47.31-12.194 48.88-10.627 50.81-10.627C52.74-10.627 54.31-12.194 54.31-14.127C54.31-16.06 52.74-17.627 50.81-17.627ZM50.81-59.627C48.88-59.627 47.31-58.06 47.31-56.127C47.31-54.194 48.88-52.627 50.81-52.627C52.74-52.627 54.31-54.194 54.31-56.127C54.31-58.06 52.74-59.627 50.81-59.627Z"/>
   <path class="hierarchical-1:secondary SFSymbolsPreview4D4D4D" d="M22.81-35.127C22.81-37.06 24.38-38.627 26.31-38.627L75.31-38.627C77.24-38.627 78.81-37.06 78.81-35.127C78.81-33.194 77.24-31.627 75.31-31.627L26.31-31.627C24.38-31.627 22.81-33.194 22.81-35.127Z"/>
  </g>
  <g id="Light-S" transform="matrix(1 0 0 1 1103.28 696)">
   <path class="hierarchical-0:primary SFSymbolsPreview212121" d="M40.31-14.127C40.31-19.484 44.65-23.827 50.01-23.827C55.37-23.827 59.71-19.484 59.71-14.127C59.71-8.77 55.37-4.427 50.01-4.427C44.65-4.427 40.31-8.77 40.31-14.127ZM40.31-56.127C40.31-61.484 44.65-65.827 50.01-65.827C55.37-65.827 59.71-61.484 59.71-56.127C59.71-50.77 55.37-46.427 50.01-46.427C44.65-46.427 40.31-50.77 40.31-56.127ZM50.01-18.427C47.63-18.427 45.71-16.502 45.71-14.127C45.71-11.752 47.63-9.827 50.01-9.827C52.38-9.827 54.31-11.752 54.31-14.127C54.31-16.502 52.38-18.427 50.01-18.427ZM50.01-60.427C47.63-60.427 45.71-58.502 45.71-56.127C45.71-53.752 47.63-51.827 50.01-51.827C52.38-51.827 54.31-53.752 54.31-56.127C54.31-58.502 52.38-60.427 50.01-60.427Z"/>
   <path class="hierarchical-1:secondary SFSymbolsPreview4D4D4D" d="M22.81-35.127C22.81-36.618 24.02-37.827 25.51-37.827L74.51-37.827C76-37.827 77.21-36.618 77.21-35.127C77.21-33.636 76-32.427 74.51-32.427L25.51-32.427C24.02-32.427 22.81-33.636 22.81-35.127Z"/>
  </g>
  <g id="Thin-S" transform="matrix(1 0 0 1 807.617 696)">
   <path class="hierarchical-0:primary SFSymbolsPreview212121" d="M40.31-14.127C40.31-18.905 44.182-22.777 48.96-22.777C53.737-22.777 57.61-18.905 57.61-14.127C57.61-9.35 53.737-5.477 48.96-5.477C44.182-5.477 40.31-9.35 40.31-14.127ZM40.31-56.127C40.31-60.905 44.182-64.777 48.96-64.777C53.737-64.777 57.61-60.905 57.61-56.127C57.61-51.35 53.737-47.477 48.96-47.477C44.182-47.477 40.31-51.35 40.31-56.127ZM48.96-19.477C46.005-19.477 43.61-17.082 43.61-14.127C43.61-11.173 46.005-8.777 48.96-8.777C51.914-8.777 54.31-11.173 54.31-14.127C54.31-17.082 51.914-19.477 48.96-19.477ZM48.96-61.477C46.005-61.477 43.61-59.082 43.61-56.127C43.61-53.173 46.005-50.777 48.96-50.777C51.914-50.777 54.31-53.173 54.31-56.127C54.31-59.082 51.914-61.477 48.96-61.477Z"/>
   <path class="hierarchical-1:secondary SFSymbolsPreview4D4D4D" d="M22.81-35.127C22.81-36.039 23.548-36.777 24.46-36.777L73.46-36.777C74.371-36.777 75.11-36.039 75.11-35.127C75.11-34.216 74.371-33.477 73.46-33.477L24.46-33.477C23.548-33.477 22.81-34.216 22.81-35.127Z"/>
  </g>
  <g id="Ultralight-S" transform="matrix(1 0 0 1 511.456 696)">
   <path class="hierarchical-0:primary SFSymbolsPreview212121" d="M40.31-14.127C40.31-18.6 43.937-22.227 48.41-22.227C52.884-22.227 56.51-18.6 56.51-14.127C56.51-9.653 52.884-6.027 48.41-6.027C43.937-6.027 40.31-9.653 40.31-14.127ZM40.31-56.127C40.31-60.6 43.937-64.227 48.41-64.227C52.884-64.227 56.51-60.6 56.51-56.127C56.51-51.653 52.884-48.027 48.41-48.027C43.937-48.027 40.31-51.653 40.31-56.127ZM48.41-20.027C45.152-20.027 42.51-17.385 42.51-14.127C42.51-10.868 45.152-8.227 48.41-8.227C51.669-8.227 54.31-10.868 54.31-14.127C54.31-17.385 51.669-20.027 48.41-20.027ZM48.41-62.027C45.152-62.027 42.51-59.385 42.51-56.127C42.51-52.868 45.152-50.227 48.41-50.227C51.669-50.227 54.31-52.868 54.31-56.127C54.31-59.385 51.669-62.027 48.41-62.027Z"/>
   <path class="hierarchical-1:secondary SFSymbolsPreview4D4D4D" d="M22.81-35.127C22.81-35.734 23.303-36.227 23.91-36.227L72.91-36.227C73.518-36.227 74.01-35.734 74.01-35.127C74.01-34.519 73.518-34.027 72.91-34.027L23.91-34.027C23.303-34.027 22.81-34.519 22.81-35.127Z"/>
  </g>
 </g>
</svg>
