<?xml version="1.0" encoding="UTF-8"?>
<!--Generator: Apple Native CoreSVG 175-->
<!DOCTYPE svg
PUBLIC "-//W3C//DTD SVG 1.1//EN"
       "http://www.w3.org/Graphics/SVG/1.1/DTD/svg11.dtd">
<svg version="1.1" xmlns="http://www.w3.org/2000/svg" xmlns:xlink="http://www.w3.org/1999/xlink" width="3300" height="2200">
 <!--glyph: "", point size: 100.0, font version: "17.0d12e1", template writer version: "65.1"-->
 <g id="Notes">
  <rect height="2200" id="artboard" style="fill:white;opacity:1" width="3300" x="0" y="0"/>
  <line style="fill:none;stroke:black;opacity:1;stroke-width:0.5;" x1="263" x2="3036" y1="292" y2="292"/>
  <text style="stroke:none;fill:black;font-family:sans-serif;font-size:13;font-weight:bold;" transform="matrix(1 0 0 1 263 322)">Weight/Scale Variations</text>
  <text style="stroke:none;fill:black;font-family:sans-serif;font-size:13;text-anchor:middle;" transform="matrix(1 0 0 1 559.711 322)">Ultralight</text>
  <text style="stroke:none;fill:black;font-family:sans-serif;font-size:13;text-anchor:middle;" transform="matrix(1 0 0 1 856.422 322)">Thin</text>
  <text style="stroke:none;fill:black;font-family:sans-serif;font-size:13;text-anchor:middle;" transform="matrix(1 0 0 1 1153.13 322)">Light</text>
  <text style="stroke:none;fill:black;font-family:sans-serif;font-size:13;text-anchor:middle;" transform="matrix(1 0 0 1 1449.84 322)">Regular</text>
  <text style="stroke:none;fill:black;font-family:sans-serif;font-size:13;text-anchor:middle;" transform="matrix(1 0 0 1 1746.56 322)">Medium</text>
  <text style="stroke:none;fill:black;font-family:sans-serif;font-size:13;text-anchor:middle;" transform="matrix(1 0 0 1 2043.27 322)">Semibold</text>
  <text style="stroke:none;fill:black;font-family:sans-serif;font-size:13;text-anchor:middle;" transform="matrix(1 0 0 1 2339.98 322)">Bold</text>
  <text style="stroke:none;fill:black;font-family:sans-serif;font-size:13;text-anchor:middle;" transform="matrix(1 0 0 1 2636.69 322)">Heavy</text>
  <text style="stroke:none;fill:black;font-family:sans-serif;font-size:13;text-anchor:middle;" transform="matrix(1 0 0 1 2933.4 322)">Black</text>
  <line style="fill:none;stroke:black;opacity:1;stroke-width:0.5;" x1="263" x2="3036" y1="1903" y2="1903"/>
  <g transform="matrix(1 0 0 1 263 1933)">
   <path d="M9.24805 0.830078Q10.8691 0.830078 12.2949 0.214844Q13.7207-0.400391 14.8096-1.49414Q15.8984-2.58789 16.5186-4.01367Q17.1387-5.43945 17.1387-7.05078Q17.1387-8.66211 16.5186-10.0879Q15.8984-11.5137 14.8047-12.6074Q13.7109-13.7012 12.2852-14.3164Q10.8594-14.9316 9.23828-14.9316Q7.62695-14.9316 6.20117-14.3164Q4.77539-13.7012 3.69141-12.6074Q2.60742-11.5137 1.9873-10.0879Q1.36719-8.66211 1.36719-7.05078Q1.36719-5.43945 1.9873-4.01367Q2.60742-2.58789 3.69629-1.49414Q4.78516-0.400391 6.21094 0.214844Q7.63672 0.830078 9.24805 0.830078ZM9.24805-0.654297Q7.91992-0.654297 6.7627-1.14746Q5.60547-1.64062 4.73145-2.51953Q3.85742-3.39844 3.36426-4.56055Q2.87109-5.72266 2.87109-7.05078Q2.87109-8.37891 3.35938-9.54102Q3.84766-10.7031 4.72168-11.582Q5.5957-12.4609 6.75293-12.9541Q7.91016-13.4473 9.23828-13.4473Q10.5762-13.4473 11.7334-12.9541Q12.8906-12.4609 13.7695-11.582Q14.6484-10.7031 15.1465-9.54102Q15.6445-8.37891 15.6445-7.05078Q15.6445-5.72266 15.1514-4.56055Q14.6582-3.39844 13.7842-2.51953Q12.9102-1.64062 11.748-1.14746Q10.5859-0.654297 9.24805-0.654297ZM5.6543-7.05078Q5.6543-6.72852 5.85938-6.52832Q6.06445-6.32812 6.40625-6.32812L8.51562-6.32812L8.51562-4.20898Q8.51562-3.88672 8.71094-3.67676Q8.90625-3.4668 9.23828-3.4668Q9.56055-3.4668 9.77051-3.67676Q9.98047-3.88672 9.98047-4.20898L9.98047-6.32812L12.0898-6.32812Q12.4219-6.32812 12.627-6.52832Q12.832-6.72852 12.832-7.05078Q12.832-7.38281 12.627-7.58789Q12.4219-7.79297 12.0898-7.79297L9.98047-7.79297L9.98047-9.90234Q9.98047-10.2344 9.77051-10.4443Q9.56055-10.6543 9.23828-10.6543Q8.90625-10.6543 8.71094-10.4443Q8.51562-10.2344 8.51562-9.90234L8.51562-7.79297L6.40625-7.79297Q6.06445-7.79297 5.85938-7.58789Q5.6543-7.38281 5.6543-7.05078Z"/>
  </g>
  <g transform="matrix(1 0 0 1 281.867 1933)">
   <path d="M11.709 2.91016Q13.75 2.91016 15.5518 2.12891Q17.3535 1.34766 18.7305-0.0292969Q20.1074-1.40625 20.8887-3.20801Q21.6699-5.00977 21.6699-7.05078Q21.6699-9.0918 20.8887-10.8936Q20.1074-12.6953 18.7305-14.0723Q17.3535-15.4492 15.5469-16.2305Q13.7402-17.0117 11.6992-17.0117Q9.6582-17.0117 7.85645-16.2305Q6.05469-15.4492 4.68262-14.0723Q3.31055-12.6953 2.5293-10.8936Q1.74805-9.0918 1.74805-7.05078Q1.74805-5.00977 2.5293-3.20801Q3.31055-1.40625 4.6875-0.0292969Q6.06445 1.34766 7.86621 2.12891Q9.66797 2.91016 11.709 2.91016ZM11.709 1.25Q9.98047 1.25 8.47656 0.605469Q6.97266-0.0390625 5.83496-1.17676Q4.69727-2.31445 4.05762-3.81836Q3.41797-5.32227 3.41797-7.05078Q3.41797-8.7793 4.05762-10.2832Q4.69727-11.7871 5.83008-12.9297Q6.96289-14.0723 8.4668-14.7119Q9.9707-15.3516 11.6992-15.3516Q13.4277-15.3516 14.9316-14.7119Q16.4355-14.0723 17.5781-12.9297Q18.7207-11.7871 19.3652-10.2832Q20.0098-8.7793 20.0098-7.05078Q20.0098-5.32227 19.3701-3.81836Q18.7305-2.31445 17.5928-1.17676Q16.4551-0.0390625 14.9463 0.605469Q13.4375 1.25 11.709 1.25ZM7.17773-7.05078Q7.17773-6.69922 7.41211-6.47461Q7.64648-6.25 8.01758-6.25L10.8887-6.25L10.8887-3.36914Q10.8887-2.99805 11.1133-2.76855Q11.3379-2.53906 11.6895-2.53906Q12.0605-2.53906 12.29-2.76855Q12.5195-2.99805 12.5195-3.36914L12.5195-6.25L15.4004-6.25Q15.7715-6.25 16.001-6.47461Q16.2305-6.69922 16.2305-7.05078Q16.2305-7.42188 16.001-7.65137Q15.7715-7.88086 15.4004-7.88086L12.5195-7.88086L12.5195-10.752Q12.5195-11.1328 12.29-11.3623Q12.0605-11.5918 11.6895-11.5918Q11.3379-11.5918 11.1133-11.3574Q10.8887-11.123 10.8887-10.752L10.8887-7.88086L8.01758-7.88086Q7.63672-7.88086 7.40723-7.65137Q7.17773-7.42188 7.17773-7.05078Z"/>
  </g>
  <g transform="matrix(1 0 0 1 305.646 1933)">
   <path d="M14.9707 5.66406Q17.0605 5.66406 18.96 5.01465Q20.8594 4.36523 22.4512 3.19336Q24.043 2.02148 25.2197 0.429688Q26.3965-1.16211 27.0459-3.06641Q27.6953-4.9707 27.6953-7.05078Q27.6953-9.14062 27.0459-11.04Q26.3965-12.9395 25.2197-14.5312Q24.043-16.123 22.4512-17.2998Q20.8594-18.4766 18.9551-19.126Q17.0508-19.7754 14.9609-19.7754Q12.8711-19.7754 10.9717-19.126Q9.07227-18.4766 7.48535-17.2998Q5.89844-16.123 4.72168-14.5312Q3.54492-12.9395 2.90039-11.04Q2.25586-9.14062 2.25586-7.05078Q2.25586-4.9707 2.90527-3.06641Q3.55469-1.16211 4.72656 0.429688Q5.89844 2.02148 7.49023 3.19336Q9.08203 4.36523 10.9814 5.01465Q12.8809 5.66406 14.9707 5.66406ZM14.9707 3.84766Q13.1641 3.84766 11.5283 3.2959Q9.89258 2.74414 8.53516 1.74805Q7.17773 0.751953 6.17676-0.610352Q5.17578-1.97266 4.62891-3.6084Q4.08203-5.24414 4.08203-7.05078Q4.08203-8.86719 4.62891-10.5029Q5.17578-12.1387 6.17188-13.501Q7.16797-14.8633 8.52539-15.8594Q9.88281-16.8555 11.5186-17.4023Q13.1543-17.9492 14.9609-17.9492Q16.7773-17.9492 18.4131-17.4023Q20.0488-16.8555 21.4111-15.8594Q22.7734-14.8633 23.7695-13.501Q24.7656-12.1387 25.3174-10.5029Q25.8691-8.86719 25.8691-7.05078Q25.8789-5.24414 25.332-3.6084Q24.7852-1.97266 23.7842-0.610352Q22.7832 0.751953 21.4209 1.74805Q20.0586 2.74414 18.4229 3.2959Q16.7871 3.84766 14.9707 3.84766ZM9.19922-7.05078Q9.19922-6.66992 9.45801-6.4209Q9.7168-6.17188 10.1172-6.17188L14.0625-6.17188L14.0625-2.2168Q14.0625-1.81641 14.3115-1.55762Q14.5605-1.29883 14.9512-1.29883Q15.3516-1.29883 15.6104-1.55273Q15.8691-1.80664 15.8691-2.2168L15.8691-6.17188L19.8242-6.17188Q20.2246-6.17188 20.4785-6.4209Q20.7324-6.66992 20.7324-7.05078Q20.7324-7.46094 20.4785-7.71484Q20.2246-7.96875 19.8242-7.96875L15.8691-7.96875L15.8691-11.9141Q15.8691-12.3242 15.6104-12.583Q15.3516-12.8418 14.9512-12.8418Q14.5605-12.8418 14.3115-12.583Q14.0625-12.3242 14.0625-11.9141L14.0625-7.96875L10.1172-7.96875Q9.70703-7.96875 9.45312-7.71484Q9.19922-7.46094 9.19922-7.05078Z"/>
  </g>
  <text style="stroke:none;fill:black;font-family:sans-serif;font-size:13;font-weight:bold;" transform="matrix(1 0 0 1 263 1953)">Design Variations</text>
  <text style="stroke:none;fill:black;font-family:sans-serif;font-size:13;" transform="matrix(1 0 0 1 263 1971)">Symbols are supported in up to nine weights and three scales.</text>
  <text style="stroke:none;fill:black;font-family:sans-serif;font-size:13;" transform="matrix(1 0 0 1 263 1989)">For optimal layout with text and other symbols, vertically align</text>
  <text style="stroke:none;fill:black;font-family:sans-serif;font-size:13;" transform="matrix(1 0 0 1 263 2007)">symbols with the adjacent text.</text>
  <line style="fill:none;stroke:#00AEEF;stroke-width:0.5;opacity:1.0;" x1="776" x2="776" y1="1919" y2="1933"/>
  <g transform="matrix(1 0 0 1 776 1933)">
   <path d="M3.31055 0.15625Q3.70117 0.15625 3.91602-0.00976562Q4.13086-0.175781 4.26758-0.585938L5.52734-4.0332L11.2891-4.0332L12.5488-0.585938Q12.6855-0.175781 12.9004-0.00976562Q13.1152 0.15625 13.4961 0.15625Q13.8867 0.15625 14.1162-0.0585938Q14.3457-0.273438 14.3457-0.644531Q14.3457-0.869141 14.2383-1.17188L9.6582-13.3691Q9.48242-13.8184 9.17969-14.043Q8.87695-14.2676 8.4082-14.2676Q7.5-14.2676 7.17773-13.3789L2.59766-1.16211Q2.49023-0.859375 2.49023-0.634766Q2.49023-0.263672 2.70996-0.0537109Q2.92969 0.15625 3.31055 0.15625ZM6.00586-5.51758L8.37891-12.0898L8.42773-12.0898L10.8008-5.51758Z"/>
  </g>
  <line style="fill:none;stroke:#00AEEF;stroke-width:0.5;opacity:1.0;" x1="793.197" x2="793.197" y1="1919" y2="1933"/>
  <text style="stroke:none;fill:black;font-family:sans-serif;font-size:13;font-weight:bold;" transform="matrix(1 0 0 1 776 1953)">Margins</text>
  <text style="stroke:none;fill:black;font-family:sans-serif;font-size:13;" transform="matrix(1 0 0 1 776 1971)">Leading and trailing margins on the left and right side of each symbol</text>
  <text style="stroke:none;fill:black;font-family:sans-serif;font-size:13;" transform="matrix(1 0 0 1 776 1989)">can be adjusted by modifying the x-location of the margin guidelines.</text>
  <text style="stroke:none;fill:black;font-family:sans-serif;font-size:13;" transform="matrix(1 0 0 1 776 2007)">Modifications are automatically applied proportionally to all</text>
  <text style="stroke:none;fill:black;font-family:sans-serif;font-size:13;" transform="matrix(1 0 0 1 776 2025)">scales and weights.</text>
  <g transform="matrix(1 0 0 1 1289 1933)">
   <path d="M2.8418 1.86523L4.54102 3.57422Q5.18555 4.22852 5.90332 4.17969Q6.62109 4.13086 7.31445 3.35938L18.0078-8.42773L17.041-9.4043L6.42578 2.27539Q6.16211 2.57812 5.89355 2.61719Q5.625 2.65625 5.27344 2.30469L4.10156 1.14258Q3.75 0.791016 3.79395 0.522461Q3.83789 0.253906 4.14062-0.0195312L15.6152-10.8203L14.6387-11.7871L3.04688-0.898438Q2.30469-0.214844 2.25098 0.498047Q2.19727 1.21094 2.8418 1.86523ZM9.25781-16.3281Q8.94531-16.0254 8.90625-15.6348Q8.86719-15.2441 9.04297-14.9512Q9.21875-14.6777 9.55566-14.541Q9.89258-14.4043 10.3809-14.5215Q11.4746-14.7754 12.5977-14.7314Q13.7207-14.6875 14.7949-13.9844L14.209-12.5293Q13.9551-11.9043 14.0674-11.4404Q14.1797-10.9766 14.5801-10.5664L16.875-8.25195Q17.2363-7.88086 17.5781-7.82227Q17.9199-7.76367 18.3398-7.8418L19.4043-8.03711L20.0684-7.36328L20.0293-6.80664Q20-6.43555 20.1221-6.12305Q20.2441-5.81055 20.6055-5.44922L21.3672-4.70703Q21.7285-4.3457 22.1533-4.33105Q22.5781-4.31641 22.9297-4.66797L25.8398-7.58789Q26.1914-7.93945 26.1816-8.35449Q26.1719-8.76953 25.8105-9.13086L25.0391-9.89258Q24.6875-10.2539 24.3799-10.3857Q24.0723-10.5176 23.7109-10.4883L23.1348-10.4395L22.4902-11.0742L22.7344-12.1973Q22.832-12.6172 22.6953-12.9834Q22.5586-13.3496 22.1191-13.7891L19.9219-15.9766Q18.6719-17.2168 17.2607-17.8369Q15.8496-18.457 14.4189-18.4814Q12.9883-18.5059 11.665-17.959Q10.3418-17.4121 9.25781-16.3281ZM10.752-15.957Q11.6602-16.6211 12.7002-16.9043Q13.7402-17.1875 14.8047-17.085Q15.8691-16.9824 16.8701-16.5137Q17.8711-16.0449 18.7012-15.2051L21.1328-12.793Q21.3086-12.6172 21.3525-12.4512Q21.3965-12.2852 21.3379-12.0312L21.0156-10.5469L22.5195-9.0625L23.5059-9.12109Q23.6914-9.13086 23.7891-9.09668Q23.8867-9.0625 24.0332-8.91602L24.6094-8.33984L22.168-5.89844L21.5918-6.47461Q21.4453-6.62109 21.4062-6.71875Q21.3672-6.81641 21.377-7.01172L21.4453-7.98828L19.9512-9.47266L18.4277-9.21875Q18.1836-9.16992 18.042-9.2041Q17.9004-9.23828 17.7148-9.41406L15.7129-11.416Q15.5176-11.5918 15.4932-11.7529Q15.4688-11.9141 15.5859-12.1875L16.4648-14.2773Q15.293-15.3711 13.8281-15.791Q12.3633-16.2109 10.8398-15.7617Q10.7227-15.7324 10.6885-15.8057Q10.6543-15.8789 10.752-15.957Z"/>
  </g>
  <text style="stroke:none;fill:black;font-family:sans-serif;font-size:13;font-weight:bold;" transform="matrix(1 0 0 1 1289 1953)">Exporting</text>
  <text style="stroke:none;fill:black;font-family:sans-serif;font-size:13;" transform="matrix(1 0 0 1 1289 1971)">Symbols should be outlined when exporting to ensure the</text>
  <text style="stroke:none;fill:black;font-family:sans-serif;font-size:13;" transform="matrix(1 0 0 1 1289 1989)">design is preserved when submitting to Xcode.</text>
  <text id="template-version" style="stroke:none;fill:black;font-family:sans-serif;font-size:13;text-anchor:end;" transform="matrix(1 0 0 1 3036 1933)">Template v.3.0</text>
  <text style="stroke:none;fill:black;font-family:sans-serif;font-size:13;text-anchor:end;" transform="matrix(1 0 0 1 3036 1951)">Requires Xcode 13 or greater</text>
  <text id="descriptive-name" style="stroke:none;fill:black;font-family:sans-serif;font-size:13;text-anchor:end;" transform="matrix(1 0 0 1 3036 1969)">Generated from corner-left-up</text>
  <text style="stroke:none;fill:black;font-family:sans-serif;font-size:13;text-anchor:end;" transform="matrix(1 0 0 1 3036 1987)">Typeset at 100 points</text>
  <text style="stroke:none;fill:black;font-family:sans-serif;font-size:13;" transform="matrix(1 0 0 1 263 726)">Small</text>
  <text style="stroke:none;fill:black;font-family:sans-serif;font-size:13;" transform="matrix(1 0 0 1 263 1156)">Medium</text>
  <text style="stroke:none;fill:black;font-family:sans-serif;font-size:13;" transform="matrix(1 0 0 1 263 1586)">Large</text>
 </g>
 <g id="Guides">
  <g id="H-reference" style="fill:#27AAE1;stroke:none;" transform="matrix(1 0 0 1 339 696)">
   <path d="M0.976562 0L3.66211 0L29.3457-67.1387L30.0293-67.1387L30.0293-70.459L28.125-70.459ZM11.6699-24.4629L46.9727-24.4629L46.2402-26.709L12.4512-26.709ZM55.127 0L57.7637 0L30.6152-70.459L29.4434-70.459L29.4434-67.1387Z"/>
  </g>
  <line id="Baseline-S" style="fill:none;stroke:#27AAE1;opacity:1;stroke-width:0.5;" x1="263" x2="3036" y1="696" y2="696"/>
  <line id="Capline-S" style="fill:none;stroke:#27AAE1;opacity:1;stroke-width:0.5;" x1="263" x2="3036" y1="625.541" y2="625.541"/>
  <g id="H-reference" style="fill:#27AAE1;stroke:none;" transform="matrix(1 0 0 1 339 1126)">
   <path d="M0.976562 0L3.66211 0L29.3457-67.1387L30.0293-67.1387L30.0293-70.459L28.125-70.459ZM11.6699-24.4629L46.9727-24.4629L46.2402-26.709L12.4512-26.709ZM55.127 0L57.7637 0L30.6152-70.459L29.4434-70.459L29.4434-67.1387Z"/>
  </g>
  <line id="Baseline-M" style="fill:none;stroke:#27AAE1;opacity:1;stroke-width:0.5;" x1="263" x2="3036" y1="1126" y2="1126"/>
  <line id="Capline-M" style="fill:none;stroke:#27AAE1;opacity:1;stroke-width:0.5;" x1="263" x2="3036" y1="1055.54" y2="1055.54"/>
  <g id="H-reference" style="fill:#27AAE1;stroke:none;" transform="matrix(1 0 0 1 339 1556)">
   <path d="M0.976562 0L3.66211 0L29.3457-67.1387L30.0293-67.1387L30.0293-70.459L28.125-70.459ZM11.6699-24.4629L46.9727-24.4629L46.2402-26.709L12.4512-26.709ZM55.127 0L57.7637 0L30.6152-70.459L29.4434-70.459L29.4434-67.1387Z"/>
  </g>
  <line id="Baseline-L" style="fill:none;stroke:#27AAE1;opacity:1;stroke-width:0.5;" x1="263" x2="3036" y1="1556" y2="1556"/>
  <line id="Capline-L" style="fill:none;stroke:#27AAE1;opacity:1;stroke-width:0.5;" x1="263" x2="3036" y1="1485.54" y2="1485.54"/>
  <line id="left-margin-Regular-M" style="fill:none;stroke:#00AEEF;stroke-width:0.5;opacity:1.0;" x1="1392.79" x2="1392.79" y1="1030.78" y2="1150.12"/>
  <line id="right-margin-Regular-M" style="fill:none;stroke:#00AEEF;stroke-width:0.5;opacity:1.0;" x1="1506.9" x2="1506.9" y1="1030.78" y2="1150.12"/>
 </g>
 <g id="Symbols">
  <g id="Black-L" transform="matrix(1 0 0 1 2862.95 1556)">
   <path d="M48.1875-87.14C50.9575-89.92 55.4575-89.92 58.2275-87.14L86.6675-58.7C89.4375-55.93 89.4375-51.44 86.6675-48.66C83.8875-45.89 79.3975-45.89 76.6275-48.66L53.2075-72.08L29.7875-48.66C27.0175-45.89 22.5175-45.89 19.7475-48.66C16.9775-51.44 16.9775-55.93 19.7475-58.7L48.1875-87.14ZM53.2075-89.22C57.1275-89.22 60.3075-86.04 60.3075-82.12L60.3075-13.87C60.3075-9.72 61.9575-5.74 64.8875-2.81C67.8275 0.13 71.8075 1.78 75.9575 1.78L115.767 1.78C119.688 1.78 122.867 4.96 122.867 8.88C122.867 12.8 119.688 15.98 115.767 15.98L75.9575 15.98C68.0375 15.98 60.4475 12.83 54.8475 7.24C49.2475 1.64 46.1075-5.96 46.1075-13.87L46.1075-82.12C46.1075-86.04 49.2875-89.22 53.2075-89.22Z"/>
  </g>
  <g id="Heavy-L" transform="matrix(1 0 0 1 2567.08 1556)">
   <path d="M47.94-86.37C50.38-88.81 54.33-88.81 56.77-86.37L85.21-57.93C87.65-55.49 87.65-51.53 85.21-49.09C82.77-46.65 78.81-46.65 76.37-49.09L52.35-73.11L28.34-49.09C25.9-46.65 21.94-46.65 19.5-49.09C17.06-51.53 17.06-55.49 19.5-57.93L47.94-86.37ZM52.35-88.2C55.81-88.2 58.61-85.4 58.61-81.95L58.61-13.7C58.61-9.32 60.34-5.13 63.44-2.03C66.53 1.06 70.73 2.8 75.11 2.8L114.92 2.8C118.37 2.8 121.17 5.6 121.17 9.05C121.17 12.5 118.37 15.3 114.92 15.3L75.11 15.3C67.41 15.3 60.04 12.24 54.6 6.81C49.16 1.37 46.11-6.01 46.11-13.7L46.11-81.95C46.11-85.4 48.9-88.2 52.35-88.2Z"/>
  </g>
  <g id="Bold-L" transform="matrix(1 0 0 1 2271.33 1556)">
   <path d="M47.6525-85.515C49.7225-87.585 53.0825-87.585 55.1525-85.515L83.5925-57.075C85.6625-55.005 85.6625-51.655 83.5925-49.585C81.5225-47.515 78.1625-47.515 76.0925-49.585L51.4025-74.275L26.7125-49.585C24.6425-47.515 21.2925-47.515 19.2225-49.585C17.1525-51.655 17.1525-55.005 19.2225-57.075L47.6525-85.515ZM51.4025-87.065C54.3325-87.065 56.7025-84.695 56.7025-81.765L56.7025-13.515C56.7025-8.885 58.5425-4.445 61.8125-1.175C65.0825 2.095 69.5225 3.935 74.1525 3.935L113.962 3.935C116.893 3.935 119.263 6.305 119.263 9.235C119.263 12.165 116.893 14.535 113.962 14.535L74.1525 14.535C66.7125 14.535 59.5825 11.575 54.3225 6.315C49.0625 1.055 46.1025-6.075 46.1025-13.515L46.1025-81.765C46.1025-84.695 48.4725-87.065 51.4025-87.065Z"/>
  </g>
  <g id="Semibold-L" transform="matrix(1 0 0 1 1975.26 1556)">
   <path d="M47.4675-84.92C49.2875-86.73 52.2275-86.73 54.0475-84.92L82.4775-56.48C84.2975-54.66 84.2975-51.72 82.4775-49.9C80.6675-48.09 77.7175-48.09 75.9075-49.9L50.7575-75.05L25.6075-49.9C23.7875-48.09 20.8475-48.09 19.0275-49.9C17.2175-51.72 17.2175-54.66 19.0275-56.48L47.4675-84.92ZM50.7575-86.28C53.3275-86.28 55.4075-84.2 55.4075-81.63L55.4075-13.38C55.4075-8.58 57.3075-3.97 60.7075-0.58C64.0975 2.81 68.7075 4.72 73.5075 4.72L113.317 4.72C115.888 4.72 117.968 6.8 117.968 9.37C117.968 11.94 115.888 14.02 113.317 14.02L73.5075 14.02C66.2375 14.02 59.2675 11.13 54.1275 6C48.9875 0.86 46.1075-6.11 46.1075-13.38L46.1075-81.63C46.1075-84.2 48.1875-86.28 50.7575-86.28Z"/>
  </g>
  <g id="Medium-L" transform="matrix(1 0 0 1 1679.05 1556)">
   <path d="M47.3225-84.46C48.9425-86.08 51.5725-86.08 53.1925-84.46L81.6325-56.03C83.2525-54.41 83.2525-51.78 81.6325-50.16C80.0125-48.54 77.3825-48.54 75.7625-50.16L50.2625-75.66L24.7525-50.16C23.1325-48.54 20.5125-48.54 18.8925-50.16C17.2625-51.78 17.2625-54.41 18.8925-56.03L47.3225-84.46ZM50.2625-85.68C52.5525-85.68 54.4125-83.82 54.4125-81.53L54.4125-13.28C54.4125-8.35 56.3725-3.61 59.8525-0.13C63.3425 3.36 68.0725 5.32 73.0125 5.32L112.822 5.32C115.112 5.32 116.973 7.18 116.973 9.47C116.973 11.76 115.112 13.62 112.822 13.62L73.0125 13.62C65.8725 13.62 59.0325 10.79 53.9925 5.74C48.9425 0.7 46.1125-6.14 46.1125-13.28L46.1125-81.53C46.1125-83.82 47.9725-85.68 50.2625-85.68Z"/>
  </g>
  <g id="Regular-L" transform="matrix(1 0 0 1 1382.99 1556)">
   <path d="M47.1275-83.89C48.4975-85.25 50.7175-85.25 52.0775-83.89L80.5175-55.45C81.8875-54.08 81.8875-51.86 80.5175-50.5C79.1475-49.13 76.9375-49.13 75.5675-50.5L49.6075-76.46L23.6375-50.5C22.2775-49.13 20.0575-49.13 18.6975-50.5C17.3275-51.86 17.3275-54.08 18.6975-55.45L47.1275-83.89ZM49.6075-84.91C51.5375-84.91 53.1075-83.34 53.1075-81.41L53.1075-13.16C53.1075-8.06 55.1375-3.16 58.7475 0.45C62.3575 4.06 67.2475 6.09 72.3575 6.09L112.167 6.09C114.098 6.09 115.667 7.66 115.667 9.59C115.667 11.52 114.098 13.09 112.167 13.09L72.3575 13.09C65.3975 13.09 58.7175 10.32 53.7975 5.4C48.8675 0.48 46.1075-6.2 46.1075-13.16L46.1075-81.41C46.1075-83.34 47.6675-84.91 49.6075-84.91Z"/>
  </g>
  <g id="Light-L" transform="matrix(1 0 0 1 1087.08 1556)">
   <path d="M46.8975-83.16C47.9475-84.21 49.6575-84.21 50.7175-83.16L79.1475-54.72C80.2075-53.67 80.2075-51.96 79.1475-50.9C78.0975-49.85 76.3875-49.85 75.3375-50.9L48.8075-77.43L22.2775-50.9C21.2175-49.85 19.5175-49.85 18.4575-50.9C17.4075-51.96 17.4075-53.67 18.4575-54.72L46.8975-83.16ZM48.8075-83.95C50.2975-83.95 51.5075-82.74 51.5075-81.25L51.5075-13C51.5075-7.68 53.6175-2.58 57.3775 1.18C61.1375 4.94 66.2375 7.05 71.5575 7.05L111.368 7.05C112.858 7.05 114.068 8.26 114.068 9.75C114.068 11.24 112.858 12.45 111.368 12.45L71.5575 12.45C64.8075 12.45 58.3275 9.77 53.5575 5C48.7875 0.22 46.1075-6.25 46.1075-13L46.1075-81.25C46.1075-82.74 47.3175-83.95 48.8075-83.95Z"/>
  </g>
  <g id="Thin-L" transform="matrix(1 0 0 1 791.417 1556)">
   <path d="M46.59-82.22C47.235-82.86 48.279-82.86 48.924-82.22L77.361-53.78C78.006-53.13 78.006-52.09 77.361-51.44C76.717-50.8 75.672-50.8 75.028-51.44L47.757-78.72L20.486-51.44C19.842-50.8 18.797-50.8 18.153-51.44C17.509-52.09 17.509-53.13 18.153-53.78L46.59-82.22ZM47.757-82.7C48.668-82.7 49.407-81.96 49.407-81.05L49.407-12.8C49.407-7.2 51.63-1.84 55.587 2.12C59.544 6.08 64.911 8.3 70.507 8.3L110.32 8.3C111.231 8.3 111.97 9.04 111.97 9.95C111.97 10.86 111.231 11.6 110.32 11.6L70.507 11.6C64.036 11.6 57.83 9.03 53.254 4.45C48.678-0.12 46.107-6.33 46.107-12.8L46.107-81.05C46.107-81.96 46.846-82.7 47.757-82.7Z"/>
  </g>
  <g id="Ultralight-L" transform="matrix(1 0 0 1 495.256 1556)">
   <path d="M46.4295-81.725C46.8595-82.155 47.5555-82.155 47.9855-81.725L76.4225-53.285C76.8525-52.855 76.8525-52.165 76.4225-51.735C75.9935-51.305 75.2965-51.305 74.8675-51.735L47.2075-79.395L19.5475-51.735C19.1185-51.305 18.4215-51.305 17.9925-51.735C17.5625-52.165 17.5625-52.855 17.9925-53.285L46.4295-81.725ZM47.2075-82.045C47.8145-82.045 48.3075-81.555 48.3075-80.945L48.3075-12.695C48.3075-6.955 50.5885-1.445 54.6485 2.615C58.7085 6.675 64.2155 8.955 69.9575 8.955L109.769 8.955C110.377 8.955 110.87 9.445 110.87 10.055C110.87 10.665 110.377 11.155 109.769 11.155L69.9575 11.155C63.6315 11.155 57.5655 8.645 53.0925 4.165C48.6205-0.305 46.1075-6.375 46.1075-12.695L46.1075-80.945C46.1075-81.555 46.5995-82.045 47.2075-82.045Z"/>
  </g>
  <g id="Black-M" transform="matrix(1 0 0 1 2872.75 1126)">
   <path d="M42.0675-77.33C44.8375-80.1 49.3275-80.1 52.1075-77.33L74.4175-55.02C77.1875-52.25 77.1875-47.75 74.4175-44.98C71.6475-42.21 67.1475-42.21 64.3775-44.98L47.0875-62.27L29.7875-44.98C27.0175-42.21 22.5275-42.21 19.7475-44.98C16.9775-47.75 16.9775-52.25 19.7475-55.02L42.0675-77.33ZM47.0875-79.41C51.0075-79.41 54.1875-76.23 54.1875-72.31L54.1875-18.76C54.1875-15.91 55.3175-13.18 57.3275-11.16C59.3475-9.14 62.0775-8.01 64.9375-8.01L96.1675-8.01C100.088-8.01 103.267-4.83 103.267-0.91C103.267 3.01 100.088 6.19 96.1675 6.19L64.9375 6.19C58.3175 6.19 51.9675 3.56 47.2875-1.12C42.6075-5.8 39.9875-12.14 39.9875-18.76L39.9875-72.31C39.9875-76.23 43.1575-79.41 47.0875-79.41Z"/>
  </g>
  <g id="Heavy-M" transform="matrix(1 0 0 1 2576.88 1126)">
   <path d="M41.82-76.57C44.26-79.01 48.22-79.01 50.66-76.57L72.97-54.26C75.41-51.82 75.41-47.86 72.97-45.42C70.53-42.98 66.57-42.98 64.13-45.42L46.24-63.31L28.34-45.42C25.9-42.98 21.95-42.98 19.5-45.42C17.06-47.86 17.06-51.82 19.5-54.26L41.82-76.57ZM46.24-78.4C49.69-78.4 52.49-75.6 52.49-72.15L52.49-18.6C52.49-15.52 53.71-12.57 55.88-10.4C58.06-8.22 61.01-7 64.09-7L95.32-7C98.78-7 101.57-4.2 101.57-0.75C101.57 2.7 98.78 5.5 95.32 5.5L64.09 5.5C57.7 5.5 51.57 2.96 47.05-1.56C42.53-6.08 39.99-12.21 39.99-18.6L39.99-72.15C39.99-75.6 42.79-78.4 46.24-78.4Z"/>
  </g>
  <g id="Bold-M" transform="matrix(1 0 0 1 2281.13 1126)">
   <path d="M41.5325-75.715C43.6025-77.785 46.9525-77.785 49.0225-75.715L71.3425-53.405C73.4125-51.335 73.4125-47.975 71.3425-45.905C69.2725-43.835 65.9125-43.835 63.8425-45.905L45.2825-64.475L26.7125-45.905C24.6425-43.835 21.2925-43.835 19.2225-45.905C17.1525-47.975 17.1525-51.335 19.2225-53.405L41.5325-75.715ZM45.2825-77.265C48.2025-77.265 50.5825-74.895 50.5825-71.965L50.5825-18.415C50.5825-15.085 51.9025-11.895 54.2525-9.545C56.6125-7.185 59.8025-5.865 63.1325-5.865L94.3625-5.865C97.2925-5.865 99.662-3.495 99.662-0.565C99.662 2.365 97.2925 4.735 94.3625 4.735L63.1325 4.735C56.9925 4.735 51.1025 2.295 46.7625-2.045C42.4225-6.385 39.9825-12.275 39.9825-18.415L39.9825-71.965C39.9825-74.895 42.3525-77.265 45.2825-77.265Z"/>
  </g>
  <g id="Semibold-M" transform="matrix(1 0 0 1 1985.06 1126)">
   <path d="M41.3375-75.13C43.1575-76.95 46.0975-76.95 47.9175-75.13L70.2275-52.82C72.0475-51 72.0475-48.06 70.2275-46.24C68.4175-44.43 65.4675-44.43 63.6575-46.24L44.6275-65.27L25.6075-46.24C23.7875-44.43 20.8475-44.43 19.0275-46.24C17.2175-48.06 17.2175-51 19.0275-52.82L41.3375-75.13ZM44.6275-76.49C47.1975-76.49 49.2775-74.41 49.2775-71.84L49.2775-18.29C49.2775-14.79 50.6675-11.43 53.1475-8.96C55.6175-6.48 58.9775-5.09 62.4775-5.09L93.7175-5.09C96.2875-5.09 98.3675-3.01 98.3675-0.44C98.3675 2.13 96.2875 4.21 93.7175 4.21L62.4775 4.21C56.5175 4.21 50.7875 1.84 46.5675-2.38C42.3475-6.6 39.9775-12.32 39.9775-18.29L39.9775-71.84C39.9775-74.41 42.0575-76.49 44.6275-76.49Z"/>
  </g>
  <g id="Medium-M" transform="matrix(1 0 0 1 1688.85 1126)">
   <path d="M41.195-74.68C42.815-76.3 45.445-76.3 47.065-74.68L69.375-52.36C70.995-50.74 70.995-48.12 69.375-46.5C67.755-44.87 65.125-44.87 63.505-46.5L44.125-65.87L24.745-46.5C23.125-44.87 20.505-44.87 18.885-46.5C17.265-48.12 17.265-50.74 18.885-52.36L41.195-74.68ZM44.125-75.89C46.415-75.89 48.275-74.03 48.275-71.74L48.275-18.19C48.275-14.56 49.725-11.07 52.295-8.5C54.855-5.94 58.345-4.49 61.975-4.49L93.215-4.49C95.505-4.49 97.365-2.63 97.365-0.34C97.365 1.95 95.505 3.81 93.215 3.81L61.975 3.81C56.145 3.81 50.545 1.49 46.425-2.64C42.295-6.76 39.975-12.36 39.975-18.19L39.975-71.74C39.975-74.03 41.835-75.89 44.125-75.89Z"/>
  </g>
  <g id="Regular-M" transform="matrix(1 0 0 1 1392.79 1126)">
   <path d="M41.01-74.08C42.37-75.45 44.59-75.45 45.96-74.08L68.27-51.77C69.64-50.41 69.64-48.19 68.27-46.82C66.9-45.46 64.69-45.46 63.32-46.82L43.48-66.66L23.64-46.82C22.28-45.46 20.06-45.46 18.69-46.82C17.33-48.19 17.33-50.41 18.69-51.77L41.01-74.08ZM43.48-75.11C45.42-75.11 46.98-73.54 46.98-71.61L46.98-18.06C46.98-14.25 48.49-10.6 51.19-7.91C53.88-5.22 57.53-3.71 61.33-3.71L92.57-3.71C94.5-3.71 96.07-2.14 96.07-0.21C96.07 1.72 94.5 3.29 92.57 3.29L61.33 3.29C55.67 3.29 50.24 1.04 46.24-2.96C42.23-6.97 39.98-12.4 39.98-18.06L39.98-71.61C39.98-73.54 41.55-75.11 43.48-75.11Z"/>
  </g>
  <g id="Light-M" transform="matrix(1 0 0 1 1096.88 1126)">
   <path d="M40.7675-73.36C41.8275-74.41 43.5375-74.41 44.5875-73.36L66.8975-51.05C67.9575-49.99 67.9575-48.28 66.8975-47.23C65.8475-46.17 64.1375-46.17 63.0875-47.23L42.6775-67.63L22.2775-47.23C21.2175-46.17 19.5075-46.17 18.4575-47.23C17.4075-48.28 17.4075-49.99 18.4575-51.05L40.7675-73.36ZM42.6775-74.15C44.1675-74.15 45.3775-72.94 45.3775-71.45L45.3775-17.9C45.3775-13.88 46.9775-10.03 49.8175-7.19C52.6575-4.35 56.5075-2.75 60.5275-2.75L91.7675-2.75C93.2575-2.75 94.4675-1.54 94.4675-0.05C94.4675 1.44 93.2575 2.65 91.7675 2.65L60.5275 2.65C55.0775 2.65 49.8475 0.49 45.9975-3.37C42.1475-7.22 39.9775-12.45 39.9775-17.9L39.9775-71.45C39.9775-72.94 41.1875-74.15 42.6775-74.15Z"/>
  </g>
  <g id="Thin-M" transform="matrix(1 0 0 1 801.217 1126)">
   <path d="M40.4658-72.42C41.1108-73.06 42.1548-73.06 42.7998-72.42L65.1118-50.11C65.7558-49.46 65.7558-48.42 65.1118-47.77C64.4678-47.13 63.4228-47.13 62.7788-47.77L41.6329-68.92L20.4868-47.77C19.8428-47.13 18.7978-47.13 18.1538-47.77C17.5088-48.42 17.5088-49.46 18.1538-50.11L40.4658-72.42ZM41.6329-72.9C42.5438-72.9 43.2828-72.16 43.2828-71.25L43.2828-17.7C43.2828-13.41 44.9898-9.28 48.0279-6.25C51.0659-3.21 55.1859-1.5 59.4828-1.5L90.7199-1.5C91.6318-1.5 92.3698-0.76 92.3698 0.15C92.3698 1.06 91.6318 1.8 90.7199 1.8L59.4828 1.8C54.3109 1.8 49.3508-0.26 45.6938-3.91C42.0369-7.57 39.9828-12.53 39.9828-17.7L39.9828-71.25C39.9828-72.16 40.7218-72.9 41.6329-72.9Z"/>
  </g>
  <g id="Ultralight-M" transform="matrix(1 0 0 1 505.056 1126)">
   <path d="M40.3048-71.925C40.7338-72.355 41.4308-72.355 41.8607-71.925L64.1727-49.615C64.6028-49.185 64.6028-48.485 64.1727-48.055C63.7428-47.625 63.0468-47.625 62.6168-48.055L41.0828-69.595L19.5477-48.055C19.1178-47.625 18.4218-47.625 17.9918-48.055C17.5627-48.485 17.5627-49.185 17.9918-49.615L40.3048-71.925ZM41.0828-72.245C41.6898-72.245 42.1827-71.755 42.1827-71.145L42.1827-17.595C42.1827-13.155 43.9467-8.895 47.0888-5.755C50.2297-2.615 54.4897-0.845 58.9327-0.845L90.1698-0.845C90.7778-0.845 91.2697-0.355 91.2697 0.255C91.2697 0.865 90.7778 1.355 90.1698 1.355L58.9327 1.355C53.9068 1.355 49.0867-0.645 45.5327-4.195C41.9788-7.755 39.9828-12.575 39.9828-17.595L39.9828-71.145C39.9828-71.755 40.4748-72.245 41.0828-72.245Z"/>
  </g>
  <g id="Black-S" transform="matrix(1 0 0 1 2880.45 696)">
   <path d="M37.2475-69.74C40.0175-72.513 44.5175-72.513 47.2875-69.74L64.7875-52.24C67.5575-49.467 67.5575-44.972 64.7875-42.199C62.0175-39.426 57.5175-39.426 54.7475-42.199L42.2675-54.679L29.7875-42.199C27.0175-39.426 22.5175-39.426 19.7475-42.199C16.9775-44.972 16.9775-49.467 19.7475-52.24L37.2475-69.74ZM42.2675-71.82C46.1875-71.82 49.3675-68.641 49.3675-64.72L49.3675-22.72C49.3675-20.89 50.0975-19.135 51.3875-17.841C52.6875-16.547 54.4375-15.82 56.2675-15.82L80.7675-15.82C84.6875-15.82 87.8675-12.641 87.8675-8.72C87.8675-4.798 84.6875-1.62 80.7675-1.62L56.2675-1.62C50.6675-1.62 45.3075-3.843 41.3475-7.8C37.3875-11.757 35.1675-17.124 35.1675-22.72L35.1675-64.72C35.1675-68.641 38.3475-71.82 42.2675-71.82Z"/>
  </g>
  <g id="Heavy-S" transform="matrix(1 0 0 1 2584.58 696)">
   <path d="M37-68.971C39.44-71.412 43.4-71.412 45.84-68.971L63.34-51.471C65.78-49.031 65.78-45.073 63.34-42.633C60.9-40.192 56.94-40.192 54.5-42.633L41.42-55.713L28.34-42.633C25.9-40.192 21.94-40.192 19.5-42.633C17.06-45.073 17.06-49.031 19.5-51.471L37-68.971ZM41.42-70.802C44.87-70.802 47.67-68.004 47.67-64.552L47.67-22.552C47.67-20.497 48.49-18.525 49.94-17.072C51.39-15.619 53.37-14.802 55.42-14.802L79.92-14.802C83.37-14.802 86.17-12.004 86.17-8.552C86.17-5.1 83.37-2.302 79.92-2.302L55.42-2.302C50.05-2.302 44.9-4.436 41.1-8.233C37.3-12.031 35.17-17.181 35.17-22.552L35.17-64.552C35.17-68.004 37.97-70.802 41.42-70.802Z"/>
  </g>
  <g id="Bold-S" transform="matrix(1 0 0 1 2288.83 696)">
   <path d="M36.7225-67.907C38.7925-69.977 42.1425-69.977 44.2125-67.907L61.7125-50.407C63.7825-48.338 63.7825-44.982 61.7125-42.912C59.6425-40.842 56.2925-40.842 54.2225-42.912L40.4625-56.664L26.7125-42.912C24.6425-40.842 21.2925-40.842 19.2225-42.912C17.1525-44.982 17.1525-48.338 19.2225-50.407L36.7225-67.907ZM40.4625-69.46C43.3925-69.46 45.7625-67.087 45.7625-64.16L45.7625-22.16C45.7625-19.852 46.6825-17.64 48.3125-16.008C49.9425-14.376 52.1625-13.46 54.4625-13.46L78.9625-13.46C81.8925-13.46 84.2625-11.087 84.2625-8.16C84.2625-5.233 81.8925-2.86 78.9625-2.86L54.4625-2.86C49.3525-2.86 44.4425-4.893 40.8225-8.513C37.2025-12.132 35.1625-17.041 35.1625-22.16L35.1625-64.16C35.1625-67.087 37.5425-69.46 40.4625-69.46Z"/>
  </g>
  <g id="Semibold-S" transform="matrix(1 0 0 1 1992.76 696)">
   <path d="M36.5275-67.319C38.3475-69.135 41.2875-69.135 43.1075-67.319L60.6075-49.819C62.4175-48.004 62.4175-45.059 60.6075-43.243C58.7875-41.427 55.8475-41.427 54.0275-43.243L39.8175-57.455L25.6075-43.243C23.7875-41.427 20.8475-41.427 19.0275-43.243C17.2175-45.059 17.2175-48.004 19.0275-49.819L36.5275-67.319ZM39.8175-68.681C42.3875-68.681 44.4675-66.6 44.4675-64.031L44.4675-22.031C44.4675-19.552 45.4475-17.173 47.2075-15.42C48.9575-13.667 51.3375-12.681 53.8175-12.681L78.3175-12.681C80.8875-12.681 82.9675-10.6 82.9675-8.031C82.9675-5.463 80.8875-3.381 78.3175-3.381L53.8175-3.381C48.8675-3.381 44.1275-5.346 40.6275-8.844C37.1275-12.341 35.1675-17.085 35.1675-22.031L35.1675-64.031C35.1675-66.6 37.2475-68.681 39.8175-68.681Z"/>
  </g>
  <g id="Medium-S" transform="matrix(1 0 0 1 1696.55 696)">
   <path d="M36.3925-66.8685C38.0125-68.4894 40.6325-68.4894 42.2525-66.8685L59.7525-49.3685C61.3725-47.7475 61.3725-45.1204 59.7525-43.4994C58.1325-41.8785 55.5125-41.8785 53.8925-43.4994L39.3225-58.0645L24.7525-43.4994C23.1325-41.8785 20.5125-41.8785 18.8925-43.4994C17.2625-45.1204 17.2625-47.7475 18.8925-49.3685L36.3925-66.8685ZM39.3225-68.0835C41.6125-68.0835 43.4725-66.2254 43.4725-63.9335L43.4725-21.9335C43.4725-19.3214 44.5125-16.8164 46.3525-14.9685C48.2025-13.1215 50.7125-12.0835 53.3225-12.0835L77.8225-12.0835C80.1125-12.0835 81.9725-10.2255 81.9725-7.93347C81.9725-5.64148 80.1125-3.78347 77.8225-3.78347L53.3225-3.78347C48.5125-3.78347 43.8925-5.69647 40.4925-9.09947C37.0825-12.5035 35.1725-17.1204 35.1725-21.9335L35.1725-63.9335C35.1725-66.2254 37.0325-68.0835 39.3225-68.0835Z"/>
  </g>
  <g id="Regular-S" transform="matrix(1 0 0 1 1400.49 696)">
   <path d="M36.1975-66.2835C37.5575-67.6505 39.7775-67.6505 41.1375-66.2835L58.6375-48.7835C60.0075-47.4165 60.0075-45.2005 58.6375-43.8335C57.2775-42.4665 55.0575-42.4665 53.6975-43.8335L38.6675-58.8585L23.6375-43.8335C22.2775-42.4665 20.0575-42.4665 18.6975-43.8335C17.3275-45.2005 17.3275-47.4165 18.6975-48.7835L36.1975-66.2835ZM38.6675-67.3084C40.5975-67.3084 42.1675-65.7414 42.1675-63.8084L42.1675-21.8084C42.1675-19.0235 43.2775-16.3535 45.2475-14.3835C47.2075-12.4145 49.8875-11.3084 52.6675-11.3084L77.1675-11.3084C79.0975-11.3084 80.6675-9.7415 80.6675-7.8085C80.6675-5.8755 79.0975-4.3085 77.1675-4.3085L52.6675-4.3085C48.0275-4.3085 43.5775-6.1525 40.2975-9.4345C37.0075-12.7165 35.1675-17.1675 35.1675-21.8084L35.1675-63.8084C35.1675-65.7414 36.7375-67.3084 38.6675-67.3084Z"/>
  </g>
  <g id="Light-S" transform="matrix(1 0 0 1 1104.58 696)">
   <path d="M35.9575-65.5604C37.0175-66.6154 38.7175-66.6154 39.7775-65.5604L57.2775-48.0604C58.3275-47.0065 58.3275-45.2964 57.2775-44.2424C56.2175-43.1884 54.5175-43.1884 53.4575-44.2424L37.8675-59.8334L22.2775-44.2424C21.2175-43.1884 19.5175-43.1884 18.4575-44.2424C17.4075-45.2964 17.4075-47.0065 18.4575-48.0604L35.9575-65.5604ZM37.8675-66.3514C39.3575-66.3514 40.5675-65.1424 40.5675-63.6514L40.5675-21.6514C40.5675-18.6544 41.7575-15.7805 43.8775-13.6614C45.9975-11.5424 48.8675-10.3514 51.8675-10.3514L76.3675-10.3514C77.8575-10.3514 79.0675-9.1425 79.0675-7.6515C79.0675-6.1605 77.8575-4.9515 76.3675-4.9515L51.8675-4.9515C47.4375-4.9515 43.1875-6.7115 40.0575-9.8435C36.9275-12.9744 35.1675-17.2225 35.1675-21.6514L35.1675-63.6514C35.1675-65.1424 36.3775-66.3514 37.8675-66.3514Z"/>
  </g>
  <g id="Thin-S" transform="matrix(1 0 0 1 808.917 696)">
   <path d="M35.653-64.6124C36.297-65.2574 37.342-65.2574 37.986-64.6124L55.486-47.1124C56.131-46.4684 56.131-45.4235 55.486-44.7794C54.842-44.1345 53.797-44.1345 53.153-44.7794L36.82-61.1124L20.486-44.7794C19.842-44.1345 18.797-44.1345 18.153-44.7794C17.509-45.4235 17.509-46.4684 18.153-47.1124L35.653-64.6124ZM36.82-65.0956C37.731-65.0956 38.47-64.3574 38.47-63.4456L38.47-21.4456C38.47-18.1704 39.771-15.0294 42.087-12.7134C44.403-10.3976 47.544-9.0955 50.82-9.0955L75.32-9.0955C76.231-9.0955 76.97-8.3575 76.97-7.4455C76.97-6.5345 76.231-5.7955 75.32-5.7955L50.82-5.7955C46.669-5.7955 42.688-7.4445 39.753-10.3795C36.818-13.3144 35.17-17.2954 35.17-21.4456L35.17-63.4456C35.17-64.3574 35.908-65.0956 36.82-65.0956Z"/>
  </g>
  <g id="Ultralight-S" transform="matrix(1 0 0 1 512.756 696)">
   <path d="M35.4925-64.118C35.9215-64.548 36.6185-64.548 37.0475-64.118L54.5475-46.618C54.9775-46.189 54.9775-45.492 54.5475-45.063C54.1185-44.633 53.4215-44.633 52.9925-45.063L36.2695-61.785L19.5475-45.063C19.1185-44.633 18.4215-44.633 17.9925-45.063C17.5625-45.492 17.5625-46.189 17.9925-46.618L35.4925-64.118ZM36.2695-64.441C36.8775-64.441 37.3695-63.948 37.3695-63.341L37.3695-21.341C37.3695-17.919 38.7285-14.638 41.1485-12.219C43.5675-9.8 46.8485-8.441 50.2695-8.441L74.7695-8.441C75.3775-8.441 75.8695-7.948 75.8695-7.341C75.8695-6.733 75.3775-6.241 74.7695-6.241L50.2695-6.241C46.2655-6.241 42.4245-7.831 39.5925-10.663C36.7605-13.495 35.1695-17.336 35.1695-21.341L35.1695-63.341C35.1695-63.948 35.6625-64.441 36.2695-64.441Z"/>
  </g>
 </g>
</svg>
