<?xml version="1.0" encoding="UTF-8"?>
<!--Generator: Apple Native CoreSVG 175-->
<!DOCTYPE svg
PUBLIC "-//W3C//DTD SVG 1.1//EN"
       "http://www.w3.org/Graphics/SVG/1.1/DTD/svg11.dtd">
<svg version="1.1" xmlns="http://www.w3.org/2000/svg" xmlns:xlink="http://www.w3.org/1999/xlink" width="3300" height="2200">
 <!--glyph: "", point size: 100.0, font version: "17.0d12e1", template writer version: "65.1"-->
 <g id="Notes">
  <rect height="2200" id="artboard" style="fill:white;opacity:1" width="3300" x="0" y="0"/>
  <line style="fill:none;stroke:black;opacity:1;stroke-width:0.5;" x1="263" x2="3036" y1="292" y2="292"/>
  <text style="stroke:none;fill:black;font-family:sans-serif;font-size:13;font-weight:bold;" transform="matrix(1 0 0 1 263 322)">Weight/Scale Variations</text>
  <text style="stroke:none;fill:black;font-family:sans-serif;font-size:13;text-anchor:middle;" transform="matrix(1 0 0 1 559.711 322)">Ultralight</text>
  <text style="stroke:none;fill:black;font-family:sans-serif;font-size:13;text-anchor:middle;" transform="matrix(1 0 0 1 856.422 322)">Thin</text>
  <text style="stroke:none;fill:black;font-family:sans-serif;font-size:13;text-anchor:middle;" transform="matrix(1 0 0 1 1153.13 322)">Light</text>
  <text style="stroke:none;fill:black;font-family:sans-serif;font-size:13;text-anchor:middle;" transform="matrix(1 0 0 1 1449.84 322)">Regular</text>
  <text style="stroke:none;fill:black;font-family:sans-serif;font-size:13;text-anchor:middle;" transform="matrix(1 0 0 1 1746.56 322)">Medium</text>
  <text style="stroke:none;fill:black;font-family:sans-serif;font-size:13;text-anchor:middle;" transform="matrix(1 0 0 1 2043.27 322)">Semibold</text>
  <text style="stroke:none;fill:black;font-family:sans-serif;font-size:13;text-anchor:middle;" transform="matrix(1 0 0 1 2339.98 322)">Bold</text>
  <text style="stroke:none;fill:black;font-family:sans-serif;font-size:13;text-anchor:middle;" transform="matrix(1 0 0 1 2636.69 322)">Heavy</text>
  <text style="stroke:none;fill:black;font-family:sans-serif;font-size:13;text-anchor:middle;" transform="matrix(1 0 0 1 2933.4 322)">Black</text>
  <line style="fill:none;stroke:black;opacity:1;stroke-width:0.5;" x1="263" x2="3036" y1="1903" y2="1903"/>
  <g transform="matrix(1 0 0 1 263 1933)">
   <path d="M9.24805 0.830078Q10.8691 0.830078 12.2949 0.214844Q13.7207-0.400391 14.8096-1.49414Q15.8984-2.58789 16.5186-4.01367Q17.1387-5.43945 17.1387-7.05078Q17.1387-8.66211 16.5186-10.0879Q15.8984-11.5137 14.8047-12.6074Q13.7109-13.7012 12.2852-14.3164Q10.8594-14.9316 9.23828-14.9316Q7.62695-14.9316 6.20117-14.3164Q4.77539-13.7012 3.69141-12.6074Q2.60742-11.5137 1.9873-10.0879Q1.36719-8.66211 1.36719-7.05078Q1.36719-5.43945 1.9873-4.01367Q2.60742-2.58789 3.69629-1.49414Q4.78516-0.400391 6.21094 0.214844Q7.63672 0.830078 9.24805 0.830078ZM9.24805-0.654297Q7.91992-0.654297 6.7627-1.14746Q5.60547-1.64062 4.73145-2.51953Q3.85742-3.39844 3.36426-4.56055Q2.87109-5.72266 2.87109-7.05078Q2.87109-8.37891 3.35938-9.54102Q3.84766-10.7031 4.72168-11.582Q5.5957-12.4609 6.75293-12.9541Q7.91016-13.4473 9.23828-13.4473Q10.5762-13.4473 11.7334-12.9541Q12.8906-12.4609 13.7695-11.582Q14.6484-10.7031 15.1465-9.54102Q15.6445-8.37891 15.6445-7.05078Q15.6445-5.72266 15.1514-4.56055Q14.6582-3.39844 13.7842-2.51953Q12.9102-1.64062 11.748-1.14746Q10.5859-0.654297 9.24805-0.654297ZM5.6543-7.05078Q5.6543-6.72852 5.85938-6.52832Q6.06445-6.32812 6.40625-6.32812L8.51562-6.32812L8.51562-4.20898Q8.51562-3.88672 8.71094-3.67676Q8.90625-3.4668 9.23828-3.4668Q9.56055-3.4668 9.77051-3.67676Q9.98047-3.88672 9.98047-4.20898L9.98047-6.32812L12.0898-6.32812Q12.4219-6.32812 12.627-6.52832Q12.832-6.72852 12.832-7.05078Q12.832-7.38281 12.627-7.58789Q12.4219-7.79297 12.0898-7.79297L9.98047-7.79297L9.98047-9.90234Q9.98047-10.2344 9.77051-10.4443Q9.56055-10.6543 9.23828-10.6543Q8.90625-10.6543 8.71094-10.4443Q8.51562-10.2344 8.51562-9.90234L8.51562-7.79297L6.40625-7.79297Q6.06445-7.79297 5.85938-7.58789Q5.6543-7.38281 5.6543-7.05078Z"/>
  </g>
  <g transform="matrix(1 0 0 1 281.867 1933)">
   <path d="M11.709 2.91016Q13.75 2.91016 15.5518 2.12891Q17.3535 1.34766 18.7305-0.0292969Q20.1074-1.40625 20.8887-3.20801Q21.6699-5.00977 21.6699-7.05078Q21.6699-9.0918 20.8887-10.8936Q20.1074-12.6953 18.7305-14.0723Q17.3535-15.4492 15.5469-16.2305Q13.7402-17.0117 11.6992-17.0117Q9.6582-17.0117 7.85645-16.2305Q6.05469-15.4492 4.68262-14.0723Q3.31055-12.6953 2.5293-10.8936Q1.74805-9.0918 1.74805-7.05078Q1.74805-5.00977 2.5293-3.20801Q3.31055-1.40625 4.6875-0.0292969Q6.06445 1.34766 7.86621 2.12891Q9.66797 2.91016 11.709 2.91016ZM11.709 1.25Q9.98047 1.25 8.47656 0.605469Q6.97266-0.0390625 5.83496-1.17676Q4.69727-2.31445 4.05762-3.81836Q3.41797-5.32227 3.41797-7.05078Q3.41797-8.7793 4.05762-10.2832Q4.69727-11.7871 5.83008-12.9297Q6.96289-14.0723 8.4668-14.7119Q9.9707-15.3516 11.6992-15.3516Q13.4277-15.3516 14.9316-14.7119Q16.4355-14.0723 17.5781-12.9297Q18.7207-11.7871 19.3652-10.2832Q20.0098-8.7793 20.0098-7.05078Q20.0098-5.32227 19.3701-3.81836Q18.7305-2.31445 17.5928-1.17676Q16.4551-0.0390625 14.9463 0.605469Q13.4375 1.25 11.709 1.25ZM7.17773-7.05078Q7.17773-6.69922 7.41211-6.47461Q7.64648-6.25 8.01758-6.25L10.8887-6.25L10.8887-3.36914Q10.8887-2.99805 11.1133-2.76855Q11.3379-2.53906 11.6895-2.53906Q12.0605-2.53906 12.29-2.76855Q12.5195-2.99805 12.5195-3.36914L12.5195-6.25L15.4004-6.25Q15.7715-6.25 16.001-6.47461Q16.2305-6.69922 16.2305-7.05078Q16.2305-7.42188 16.001-7.65137Q15.7715-7.88086 15.4004-7.88086L12.5195-7.88086L12.5195-10.752Q12.5195-11.1328 12.29-11.3623Q12.0605-11.5918 11.6895-11.5918Q11.3379-11.5918 11.1133-11.3574Q10.8887-11.123 10.8887-10.752L10.8887-7.88086L8.01758-7.88086Q7.63672-7.88086 7.40723-7.65137Q7.17773-7.42188 7.17773-7.05078Z"/>
  </g>
  <g transform="matrix(1 0 0 1 305.646 1933)">
   <path d="M14.9707 5.66406Q17.0605 5.66406 18.96 5.01465Q20.8594 4.36523 22.4512 3.19336Q24.043 2.02148 25.2197 0.429688Q26.3965-1.16211 27.0459-3.06641Q27.6953-4.9707 27.6953-7.05078Q27.6953-9.14062 27.0459-11.04Q26.3965-12.9395 25.2197-14.5312Q24.043-16.123 22.4512-17.2998Q20.8594-18.4766 18.9551-19.126Q17.0508-19.7754 14.9609-19.7754Q12.8711-19.7754 10.9717-19.126Q9.07227-18.4766 7.48535-17.2998Q5.89844-16.123 4.72168-14.5312Q3.54492-12.9395 2.90039-11.04Q2.25586-9.14062 2.25586-7.05078Q2.25586-4.9707 2.90527-3.06641Q3.55469-1.16211 4.72656 0.429688Q5.89844 2.02148 7.49023 3.19336Q9.08203 4.36523 10.9814 5.01465Q12.8809 5.66406 14.9707 5.66406ZM14.9707 3.84766Q13.1641 3.84766 11.5283 3.2959Q9.89258 2.74414 8.53516 1.74805Q7.17773 0.751953 6.17676-0.610352Q5.17578-1.97266 4.62891-3.6084Q4.08203-5.24414 4.08203-7.05078Q4.08203-8.86719 4.62891-10.5029Q5.17578-12.1387 6.17188-13.501Q7.16797-14.8633 8.52539-15.8594Q9.88281-16.8555 11.5186-17.4023Q13.1543-17.9492 14.9609-17.9492Q16.7773-17.9492 18.4131-17.4023Q20.0488-16.8555 21.4111-15.8594Q22.7734-14.8633 23.7695-13.501Q24.7656-12.1387 25.3174-10.5029Q25.8691-8.86719 25.8691-7.05078Q25.8789-5.24414 25.332-3.6084Q24.7852-1.97266 23.7842-0.610352Q22.7832 0.751953 21.4209 1.74805Q20.0586 2.74414 18.4229 3.2959Q16.7871 3.84766 14.9707 3.84766ZM9.19922-7.05078Q9.19922-6.66992 9.45801-6.4209Q9.7168-6.17188 10.1172-6.17188L14.0625-6.17188L14.0625-2.2168Q14.0625-1.81641 14.3115-1.55762Q14.5605-1.29883 14.9512-1.29883Q15.3516-1.29883 15.6104-1.55273Q15.8691-1.80664 15.8691-2.2168L15.8691-6.17188L19.8242-6.17188Q20.2246-6.17188 20.4785-6.4209Q20.7324-6.66992 20.7324-7.05078Q20.7324-7.46094 20.4785-7.71484Q20.2246-7.96875 19.8242-7.96875L15.8691-7.96875L15.8691-11.9141Q15.8691-12.3242 15.6104-12.583Q15.3516-12.8418 14.9512-12.8418Q14.5605-12.8418 14.3115-12.583Q14.0625-12.3242 14.0625-11.9141L14.0625-7.96875L10.1172-7.96875Q9.70703-7.96875 9.45312-7.71484Q9.19922-7.46094 9.19922-7.05078Z"/>
  </g>
  <text style="stroke:none;fill:black;font-family:sans-serif;font-size:13;font-weight:bold;" transform="matrix(1 0 0 1 263 1953)">Design Variations</text>
  <text style="stroke:none;fill:black;font-family:sans-serif;font-size:13;" transform="matrix(1 0 0 1 263 1971)">Symbols are supported in up to nine weights and three scales.</text>
  <text style="stroke:none;fill:black;font-family:sans-serif;font-size:13;" transform="matrix(1 0 0 1 263 1989)">For optimal layout with text and other symbols, vertically align</text>
  <text style="stroke:none;fill:black;font-family:sans-serif;font-size:13;" transform="matrix(1 0 0 1 263 2007)">symbols with the adjacent text.</text>
  <line style="fill:none;stroke:#00AEEF;stroke-width:0.5;opacity:1.0;" x1="776" x2="776" y1="1919" y2="1933"/>
  <g transform="matrix(1 0 0 1 776 1933)">
   <path d="M3.31055 0.15625Q3.70117 0.15625 3.91602-0.00976562Q4.13086-0.175781 4.26758-0.585938L5.52734-4.0332L11.2891-4.0332L12.5488-0.585938Q12.6855-0.175781 12.9004-0.00976562Q13.1152 0.15625 13.4961 0.15625Q13.8867 0.15625 14.1162-0.0585938Q14.3457-0.273438 14.3457-0.644531Q14.3457-0.869141 14.2383-1.17188L9.6582-13.3691Q9.48242-13.8184 9.17969-14.043Q8.87695-14.2676 8.4082-14.2676Q7.5-14.2676 7.17773-13.3789L2.59766-1.16211Q2.49023-0.859375 2.49023-0.634766Q2.49023-0.263672 2.70996-0.0537109Q2.92969 0.15625 3.31055 0.15625ZM6.00586-5.51758L8.37891-12.0898L8.42773-12.0898L10.8008-5.51758Z"/>
  </g>
  <line style="fill:none;stroke:#00AEEF;stroke-width:0.5;opacity:1.0;" x1="793.197" x2="793.197" y1="1919" y2="1933"/>
  <text style="stroke:none;fill:black;font-family:sans-serif;font-size:13;font-weight:bold;" transform="matrix(1 0 0 1 776 1953)">Margins</text>
  <text style="stroke:none;fill:black;font-family:sans-serif;font-size:13;" transform="matrix(1 0 0 1 776 1971)">Leading and trailing margins on the left and right side of each symbol</text>
  <text style="stroke:none;fill:black;font-family:sans-serif;font-size:13;" transform="matrix(1 0 0 1 776 1989)">can be adjusted by modifying the x-location of the margin guidelines.</text>
  <text style="stroke:none;fill:black;font-family:sans-serif;font-size:13;" transform="matrix(1 0 0 1 776 2007)">Modifications are automatically applied proportionally to all</text>
  <text style="stroke:none;fill:black;font-family:sans-serif;font-size:13;" transform="matrix(1 0 0 1 776 2025)">scales and weights.</text>
  <g transform="matrix(1 0 0 1 1289 1933)">
   <path d="M2.8418 1.86523L4.54102 3.57422Q5.18555 4.22852 5.90332 4.17969Q6.62109 4.13086 7.31445 3.35938L18.0078-8.42773L17.041-9.4043L6.42578 2.27539Q6.16211 2.57812 5.89355 2.61719Q5.625 2.65625 5.27344 2.30469L4.10156 1.14258Q3.75 0.791016 3.79395 0.522461Q3.83789 0.253906 4.14062-0.0195312L15.6152-10.8203L14.6387-11.7871L3.04688-0.898438Q2.30469-0.214844 2.25098 0.498047Q2.19727 1.21094 2.8418 1.86523ZM9.25781-16.3281Q8.94531-16.0254 8.90625-15.6348Q8.86719-15.2441 9.04297-14.9512Q9.21875-14.6777 9.55566-14.541Q9.89258-14.4043 10.3809-14.5215Q11.4746-14.7754 12.5977-14.7314Q13.7207-14.6875 14.7949-13.9844L14.209-12.5293Q13.9551-11.9043 14.0674-11.4404Q14.1797-10.9766 14.5801-10.5664L16.875-8.25195Q17.2363-7.88086 17.5781-7.82227Q17.9199-7.76367 18.3398-7.8418L19.4043-8.03711L20.0684-7.36328L20.0293-6.80664Q20-6.43555 20.1221-6.12305Q20.2441-5.81055 20.6055-5.44922L21.3672-4.70703Q21.7285-4.3457 22.1533-4.33105Q22.5781-4.31641 22.9297-4.66797L25.8398-7.58789Q26.1914-7.93945 26.1816-8.35449Q26.1719-8.76953 25.8105-9.13086L25.0391-9.89258Q24.6875-10.2539 24.3799-10.3857Q24.0723-10.5176 23.7109-10.4883L23.1348-10.4395L22.4902-11.0742L22.7344-12.1973Q22.832-12.6172 22.6953-12.9834Q22.5586-13.3496 22.1191-13.7891L19.9219-15.9766Q18.6719-17.2168 17.2607-17.8369Q15.8496-18.457 14.4189-18.4814Q12.9883-18.5059 11.665-17.959Q10.3418-17.4121 9.25781-16.3281ZM10.752-15.957Q11.6602-16.6211 12.7002-16.9043Q13.7402-17.1875 14.8047-17.085Q15.8691-16.9824 16.8701-16.5137Q17.8711-16.0449 18.7012-15.2051L21.1328-12.793Q21.3086-12.6172 21.3525-12.4512Q21.3965-12.2852 21.3379-12.0312L21.0156-10.5469L22.5195-9.0625L23.5059-9.12109Q23.6914-9.13086 23.7891-9.09668Q23.8867-9.0625 24.0332-8.91602L24.6094-8.33984L22.168-5.89844L21.5918-6.47461Q21.4453-6.62109 21.4062-6.71875Q21.3672-6.81641 21.377-7.01172L21.4453-7.98828L19.9512-9.47266L18.4277-9.21875Q18.1836-9.16992 18.042-9.2041Q17.9004-9.23828 17.7148-9.41406L15.7129-11.416Q15.5176-11.5918 15.4932-11.7529Q15.4688-11.9141 15.5859-12.1875L16.4648-14.2773Q15.293-15.3711 13.8281-15.791Q12.3633-16.2109 10.8398-15.7617Q10.7227-15.7324 10.6885-15.8057Q10.6543-15.8789 10.752-15.957Z"/>
  </g>
  <text style="stroke:none;fill:black;font-family:sans-serif;font-size:13;font-weight:bold;" transform="matrix(1 0 0 1 1289 1953)">Exporting</text>
  <text style="stroke:none;fill:black;font-family:sans-serif;font-size:13;" transform="matrix(1 0 0 1 1289 1971)">Symbols should be outlined when exporting to ensure the</text>
  <text style="stroke:none;fill:black;font-family:sans-serif;font-size:13;" transform="matrix(1 0 0 1 1289 1989)">design is preserved when submitting to Xcode.</text>
  <text id="template-version" style="stroke:none;fill:black;font-family:sans-serif;font-size:13;text-anchor:end;" transform="matrix(1 0 0 1 3036 1933)">Template v.3.0</text>
  <text style="stroke:none;fill:black;font-family:sans-serif;font-size:13;text-anchor:end;" transform="matrix(1 0 0 1 3036 1951)">Requires Xcode 13 or greater</text>
  <text id="descriptive-name" style="stroke:none;fill:black;font-family:sans-serif;font-size:13;text-anchor:end;" transform="matrix(1 0 0 1 3036 1969)">Generated from clipboard</text>
  <text style="stroke:none;fill:black;font-family:sans-serif;font-size:13;text-anchor:end;" transform="matrix(1 0 0 1 3036 1987)">Typeset at 100 points</text>
  <text style="stroke:none;fill:black;font-family:sans-serif;font-size:13;" transform="matrix(1 0 0 1 263 726)">Small</text>
  <text style="stroke:none;fill:black;font-family:sans-serif;font-size:13;" transform="matrix(1 0 0 1 263 1156)">Medium</text>
  <text style="stroke:none;fill:black;font-family:sans-serif;font-size:13;" transform="matrix(1 0 0 1 263 1586)">Large</text>
 </g>
 <g id="Guides">
  <g id="H-reference" style="fill:#27AAE1;stroke:none;" transform="matrix(1 0 0 1 339 696)">
   <path d="M0.976562 0L3.66211 0L29.3457-67.1387L30.0293-67.1387L30.0293-70.459L28.125-70.459ZM11.6699-24.4629L46.9727-24.4629L46.2402-26.709L12.4512-26.709ZM55.127 0L57.7637 0L30.6152-70.459L29.4434-70.459L29.4434-67.1387Z"/>
  </g>
  <line id="Baseline-S" style="fill:none;stroke:#27AAE1;opacity:1;stroke-width:0.5;" x1="263" x2="3036" y1="696" y2="696"/>
  <line id="Capline-S" style="fill:none;stroke:#27AAE1;opacity:1;stroke-width:0.5;" x1="263" x2="3036" y1="625.541" y2="625.541"/>
  <g id="H-reference" style="fill:#27AAE1;stroke:none;" transform="matrix(1 0 0 1 339 1126)">
   <path d="M0.976562 0L3.66211 0L29.3457-67.1387L30.0293-67.1387L30.0293-70.459L28.125-70.459ZM11.6699-24.4629L46.9727-24.4629L46.2402-26.709L12.4512-26.709ZM55.127 0L57.7637 0L30.6152-70.459L29.4434-70.459L29.4434-67.1387Z"/>
  </g>
  <line id="Baseline-M" style="fill:none;stroke:#27AAE1;opacity:1;stroke-width:0.5;" x1="263" x2="3036" y1="1126" y2="1126"/>
  <line id="Capline-M" style="fill:none;stroke:#27AAE1;opacity:1;stroke-width:0.5;" x1="263" x2="3036" y1="1055.54" y2="1055.54"/>
  <g id="H-reference" style="fill:#27AAE1;stroke:none;" transform="matrix(1 0 0 1 339 1556)">
   <path d="M0.976562 0L3.66211 0L29.3457-67.1387L30.0293-67.1387L30.0293-70.459L28.125-70.459ZM11.6699-24.4629L46.9727-24.4629L46.2402-26.709L12.4512-26.709ZM55.127 0L57.7637 0L30.6152-70.459L29.4434-70.459L29.4434-67.1387Z"/>
  </g>
  <line id="Baseline-L" style="fill:none;stroke:#27AAE1;opacity:1;stroke-width:0.5;" x1="263" x2="3036" y1="1556" y2="1556"/>
  <line id="Capline-L" style="fill:none;stroke:#27AAE1;opacity:1;stroke-width:0.5;" x1="263" x2="3036" y1="1485.54" y2="1485.54"/>
  <line id="left-margin-Regular-M" style="fill:none;stroke:#00AEEF;stroke-width:0.5;opacity:1.0;" x1="1392.45" x2="1392.45" y1="1030.78" y2="1150.12"/>
  <line id="right-margin-Regular-M" style="fill:none;stroke:#00AEEF;stroke-width:0.5;opacity:1.0;" x1="1507.24" x2="1507.24" y1="1030.78" y2="1150.12"/>
 </g>
 <g id="Symbols">
  <g id="Black-L" transform="matrix(1 0 0 1 2862.61 1556)">
   <path d="M36.83-73.63C35.69-73.63 34.6-73.18 33.8-72.38C33-71.58 32.55-70.49 32.55-69.36L32.55 10.27C32.55 11.4 33 12.49 33.8 13.29C34.6 14.09 35.69 14.54 36.83 14.54L105.08 14.54C106.21 14.54 107.3 14.09 108.1 13.29C108.9 12.49 109.35 11.4 109.35 10.27L109.35-69.36C109.35-70.49 108.9-71.58 108.1-72.38C107.3-73.18 106.21-73.63 105.08-73.63L93.7-73.63C89.78-73.63 86.6-76.81 86.6-80.73C86.6-84.65 89.78-87.83 93.7-87.83L105.08-87.83C109.98-87.83 114.67-85.88 118.14-82.42C121.6-78.95 123.55-74.25 123.55-69.36L123.55 10.27C123.55 15.17 121.6 19.87 118.14 23.33C114.67 26.8 109.98 28.74 105.08 28.74L36.83 28.74C31.93 28.74 27.23 26.8 23.76 23.33C20.3 19.87 18.35 15.17 18.35 10.27L18.35-69.36C18.35-74.25 20.3-78.95 23.76-82.42C27.23-85.88 31.93-87.83 36.83-87.83L48.2-87.83C52.12-87.83 55.3-84.65 55.3-80.73C55.3-76.81 52.12-73.63 48.2-73.63L36.83-73.63ZM55.3-85.01L55.3-76.46L86.6-76.46L86.6-85.01L55.3-85.01ZM41.1-86.42C41.1-93.48 46.83-99.21 53.89-99.21L88.01-99.21C95.08-99.21 100.8-93.48 100.8-86.42L100.8-75.04C100.8-67.98 95.08-62.26 88.01-62.26L53.89-62.26C46.83-62.26 41.1-67.98 41.1-75.04L41.1-86.42Z"/>
  </g>
  <g id="Heavy-L" transform="matrix(1 0 0 1 2566.74 1556)">
   <path d="M35.97-74.48C34.61-74.48 33.31-73.94 32.35-72.98C31.39-72.02 30.85-70.71 30.85-69.36L30.85 10.27C30.85 11.63 31.39 12.93 32.35 13.89C33.31 14.85 34.61 15.39 35.97 15.39L104.22 15.39C105.58 15.39 106.89 14.85 107.85 13.89C108.81 12.93 109.35 11.63 109.35 10.27L109.35-69.36C109.35-70.71 108.81-72.02 107.85-72.98C106.89-73.94 105.58-74.48 104.22-74.48L92.85-74.48C89.4-74.48 86.6-77.28 86.6-80.73C86.6-84.18 89.4-86.98 92.85-86.98L104.22-86.98C108.9-86.98 113.38-85.12 116.69-81.82C119.99-78.51 121.85-74.03 121.85-69.36L121.85 10.27C121.85 14.94 119.99 19.43 116.69 22.73C113.38 26.04 108.9 27.89 104.22 27.89L35.97 27.89C31.3 27.89 26.82 26.04 23.51 22.73C20.2 19.43 18.35 14.94 18.35 10.27L18.35-69.36C18.35-74.03 20.2-78.51 23.51-81.82C26.82-85.12 31.3-86.98 35.97-86.98L47.35-86.98C50.8-86.98 53.6-84.18 53.6-80.73C53.6-77.28 50.8-74.48 47.35-74.48L35.97-74.48ZM53.6-85.86L53.6-75.61L86.6-75.61L86.6-85.86L53.6-85.86ZM41.1-86.42C41.1-93.01 46.44-98.36 53.03-98.36L87.16-98.36C93.75-98.36 99.1-93.01 99.1-86.42L99.1-75.04C99.1-68.45 93.75-63.11 87.16-63.11L53.03-63.11C46.44-63.11 41.1-68.45 41.1-75.04L41.1-86.42Z"/>
  </g>
  <g id="Bold-L" transform="matrix(1 0 0 1 2270.98 1556)">
   <path d="M35.03-75.43C33.42-75.43 31.87-74.79 30.73-73.65C29.59-72.51 28.95-70.97 28.95-69.36L28.95 10.27C28.95 11.88 29.59 13.43 30.73 14.56C31.87 15.7 33.42 16.34 35.03 16.34L103.28 16.34C104.89 16.34 106.44 15.7 107.57 14.56C108.71 13.43 109.35 11.88 109.35 10.27L109.35-69.36C109.35-70.97 108.71-72.51 107.57-73.65C106.44-74.79 104.89-75.43 103.28-75.43L91.9-75.43C88.98-75.43 86.6-77.8 86.6-80.73C86.6-83.66 88.98-86.03 91.9-86.03L103.28-86.03C107.7-86.03 111.94-84.27 115.07-81.15C118.2-78.02 119.95-73.78 119.95-69.36L119.95 10.27C119.95 14.69 118.2 18.93 115.07 22.06C111.94 25.19 107.7 26.94 103.28 26.94L35.03 26.94C30.61 26.94 26.36 25.19 23.24 22.06C20.11 18.93 18.35 14.69 18.35 10.27L18.35-69.36C18.35-73.78 20.11-78.02 23.24-81.15C26.36-84.27 30.61-86.03 35.03-86.03L46.4-86.03C49.33-86.03 51.7-83.66 51.7-80.73C51.7-77.8 49.33-75.43 46.4-75.43L35.03-75.43ZM52.09-86.81C51.88-86.81 51.7-86.63 51.7-86.42L51.7-75.04C51.7-74.83 51.88-74.66 52.09-74.66L86.22-74.66C86.43-74.66 86.6-74.83 86.6-75.04L86.6-86.42C86.6-86.63 86.43-86.81 86.22-86.81L52.09-86.81ZM41.1-86.42C41.1-92.49 46.02-97.41 52.09-97.41L86.22-97.41C92.28-97.41 97.2-92.49 97.2-86.42L97.2-75.04C97.2-68.98 92.28-64.06 86.22-64.06L52.09-64.06C46.02-64.06 41.1-68.98 41.1-75.04L41.1-86.42Z"/>
  </g>
  <g id="Semibold-L" transform="matrix(1 0 0 1 1974.92 1556)">
   <path d="M34.37-76.08C32.59-76.08 30.88-75.37 29.62-74.11C28.36-72.85 27.65-71.14 27.65-69.36L27.65 10.27C27.65 12.05 28.36 13.76 29.62 15.02C30.88 16.29 32.59 16.99 34.37 16.99L102.62 16.99C104.41 16.99 106.12 16.29 107.38 15.02C108.64 13.76 109.35 12.05 109.35 10.27L109.35-69.36C109.35-71.14 108.64-72.85 107.38-74.11C106.12-75.37 104.41-76.08 102.62-76.08L91.25-76.08C88.68-76.08 86.6-78.16 86.6-80.73C86.6-83.3 88.68-85.38 91.25-85.38L102.62-85.38C106.87-85.38 110.95-83.69 113.96-80.69C116.96-77.68 118.65-73.61 118.65-69.36L118.65 10.27C118.65 14.52 116.96 18.6 113.96 21.6C110.95 24.61 106.87 26.29 102.62 26.29L34.37 26.29C30.12 26.29 26.05 24.61 23.04 21.6C20.04 18.6 18.35 14.52 18.35 10.27L18.35-69.36C18.35-73.61 20.04-77.68 23.04-80.69C26.05-83.69 30.12-85.38 34.37-85.38L45.75-85.38C48.32-85.38 50.4-83.3 50.4-80.73C50.4-78.16 48.32-76.08 45.75-76.08L34.37-76.08ZM51.44-87.46C50.86-87.46 50.4-86.99 50.4-86.42L50.4-75.04C50.4-74.47 50.86-74.01 51.44-74.01L85.56-74.01C86.14-74.01 86.6-74.47 86.6-75.04L86.6-86.42C86.6-86.99 86.14-87.46 85.56-87.46L51.44-87.46ZM41.1-86.42C41.1-92.13 45.73-96.76 51.44-96.76L85.56-96.76C91.27-96.76 95.9-92.13 95.9-86.42L95.9-75.04C95.9-69.33 91.27-64.71 85.56-64.71L51.44-64.71C45.73-64.71 41.1-69.33 41.1-75.04L41.1-86.42Z"/>
  </g>
  <g id="Medium-L" transform="matrix(1 0 0 1 1678.71 1556)">
   <path d="M33.87-76.58C31.96-76.58 30.12-75.82 28.77-74.46C27.41-73.11 26.65-71.27 26.65-69.36L26.65 10.27C26.65 12.19 27.41 14.02 28.77 15.38C30.12 16.73 31.96 17.49 33.87 17.49L102.12 17.49C104.04 17.49 105.88 16.73 107.23 15.38C108.59 14.02 109.35 12.19 109.35 10.27L109.35-69.36C109.35-71.27 108.59-73.11 107.23-74.46C105.88-75.82 104.04-76.58 102.12-76.58L90.75-76.58C88.46-76.58 86.6-78.44 86.6-80.73C86.6-83.02 88.46-84.88 90.75-84.88L102.12-84.88C106.24-84.88 110.19-83.25 113.1-80.33C116.01-77.42 117.65-73.47 117.65-69.36L117.65 10.27C117.65 14.39 116.01 18.34 113.1 21.25C110.19 24.16 106.24 25.79 102.12 25.79L33.87 25.79C29.76 25.79 25.81 24.16 22.9 21.25C19.99 18.34 18.35 14.39 18.35 10.27L18.35-69.36C18.35-73.47 19.99-77.42 22.9-80.33C25.81-83.25 29.76-84.88 33.87-84.88L45.25-84.88C47.54-84.88 49.4-83.02 49.4-80.73C49.4-78.44 47.54-76.58 45.25-76.58L33.87-76.58ZM50.94-87.96C50.09-87.96 49.4-87.27 49.4-86.42L49.4-75.04C49.4-74.19 50.09-73.51 50.94-73.51L85.06-73.51C85.91-73.51 86.6-74.19 86.6-75.04L86.6-86.42C86.6-87.27 85.91-87.96 85.06-87.96L50.94-87.96ZM41.1-86.42C41.1-91.85 45.5-96.26 50.94-96.26L85.06-96.26C90.5-96.26 94.9-91.85 94.9-86.42L94.9-75.04C94.9-69.61 90.5-65.21 85.06-65.21L50.94-65.21C45.5-65.21 41.1-69.61 41.1-75.04L41.1-86.42Z"/>
  </g>
  <g id="Regular-L" transform="matrix(1 0 0 1 1382.65 1556)">
   <path d="M33.23-77.23C31.14-77.23 29.13-76.4 27.66-74.92C26.18-73.45 25.35-71.44 25.35-69.36L25.35 10.27C25.35 12.36 26.18 14.36 27.66 15.84C29.13 17.31 31.14 18.14 33.23 18.14L101.47 18.14C103.56 18.14 105.57 17.31 107.04 15.84C108.52 14.36 109.35 12.36 109.35 10.27L109.35-69.36C109.35-71.44 108.52-73.45 107.04-74.92C105.57-76.4 103.56-77.23 101.47-77.23L90.1-77.23C88.17-77.23 86.6-78.8 86.6-80.73C86.6-82.66 88.17-84.23 90.1-84.23L101.47-84.23C105.42-84.23 109.2-82.66 111.99-79.87C114.78-77.08 116.35-73.3 116.35-69.36L116.35 10.27C116.35 14.21 114.78 18 111.99 20.79C109.2 23.58 105.42 25.14 101.47 25.14L33.23 25.14C29.28 25.14 25.5 23.58 22.71 20.79C19.92 18 18.35 14.21 18.35 10.27L18.35-69.36C18.35-73.3 19.92-77.08 22.71-79.87C25.5-82.66 29.28-84.23 33.23-84.23L44.6-84.23C46.53-84.23 48.1-82.66 48.1-80.73C48.1-78.8 46.53-77.23 44.6-77.23L33.23-77.23ZM50.29-88.61C49.08-88.61 48.1-87.63 48.1-86.42L48.1-75.04C48.1-73.83 49.08-72.86 50.29-72.86L84.41-72.86C85.62-72.86 86.6-73.83 86.6-75.04L86.6-86.42C86.6-87.63 85.62-88.61 84.41-88.61L50.29-88.61ZM41.1-86.42C41.1-91.49 45.21-95.61 50.29-95.61L84.41-95.61C89.49-95.61 93.6-91.49 93.6-86.42L93.6-75.04C93.6-69.97 89.49-65.86 84.41-65.86L50.29-65.86C45.21-65.86 41.1-69.97 41.1-75.04L41.1-86.42Z"/>
  </g>
  <g id="Light-L" transform="matrix(1 0 0 1 1086.74 1556)">
   <path d="M32.43-78.03C30.13-78.03 27.92-77.12 26.29-75.49C24.66-73.86 23.75-71.66 23.75-69.35L23.75 10.27C23.75 12.57 24.66 14.78 26.29 16.4C27.92 18.03 30.13 18.95 32.43 18.95L100.68 18.95C102.98 18.95 105.18 18.03 106.81 16.4C108.44 14.78 109.35 12.57 109.35 10.27L109.35-69.35C109.35-71.66 108.44-73.86 106.81-75.49C105.18-77.12 102.98-78.03 100.68-78.03L89.3-78.03C87.81-78.03 86.6-79.24 86.6-80.73C86.6-82.22 87.81-83.43 89.3-83.43L100.68-83.43C104.41-83.43 107.99-81.95 110.63-79.31C113.27-76.67 114.75-73.09 114.75-69.35L114.75 10.27C114.75 14 113.27 17.58 110.63 20.22C107.99 22.86 104.41 24.35 100.68 24.35L32.43 24.35C28.69 24.35 25.11 22.86 22.47 20.22C19.83 17.58 18.35 14 18.35 10.27L18.35-69.35C18.35-73.09 19.83-76.67 22.47-79.31C25.11-81.95 28.69-83.43 32.43-83.43L43.8-83.43C45.29-83.43 46.5-82.22 46.5-80.73C46.5-79.24 45.29-78.03 43.8-78.03L32.43-78.03ZM49.49-89.4C47.84-89.4 46.5-88.07 46.5-86.42L46.5-75.04C46.5-73.39 47.84-72.05 49.49-72.05L83.61-72.05C85.26-72.05 86.6-73.39 86.6-75.04L86.6-86.42C86.6-88.07 85.26-89.4 83.61-89.4L49.49-89.4ZM41.1-86.42C41.1-91.05 44.86-94.8 49.49-94.8L83.61-94.8C88.25-94.8 92-91.05 92-86.42L92-75.04C92-70.41 88.25-66.65 83.61-66.65L49.49-66.65C44.86-66.65 41.1-70.41 41.1-75.04L41.1-86.42Z"/>
  </g>
  <g id="Thin-L" transform="matrix(1 0 0 1 791.077 1556)">
   <path d="M31.375-79.08C28.795-79.08 26.322-78.06 24.498-76.23C22.674-74.41 21.65-71.94 21.65-69.36L21.65 10.27C21.65 12.85 22.674 15.32 24.498 17.15C26.322 18.97 28.795 19.99 31.375 19.99L99.625 19.99C102.204 19.99 104.677 18.97 106.501 17.15C108.325 15.32 109.35 12.85 109.35 10.27L109.35-69.36C109.35-71.94 108.325-74.41 106.501-76.23C104.677-78.06 102.204-79.08 99.625-79.08L88.25-79.08C87.338-79.08 86.6-79.82 86.6-80.73C86.6-81.64 87.338-82.38 88.25-82.38L99.625-82.38C103.079-82.38 106.392-81.01 108.835-78.57C111.277-76.12 112.65-72.81 112.65-69.36L112.65 10.27C112.65 13.72 111.277 17.04 108.835 19.48C106.392 21.92 103.079 23.29 99.625 23.29L31.375 23.29C27.92 23.29 24.607 21.92 22.165 19.48C19.722 17.04 18.35 13.72 18.35 10.27L18.35-69.36C18.35-72.81 19.722-76.12 22.165-78.57C24.607-81.01 27.92-82.38 31.375-82.38L42.75-82.38C43.661-82.38 44.4-81.64 44.4-80.73C44.4-79.82 43.661-79.08 42.75-79.08L31.375-79.08ZM48.437-90.46C46.207-90.46 44.4-88.65 44.4-86.42L44.4-75.04C44.4-72.81 46.207-71.01 48.437-71.01L82.562-71.01C84.792-71.01 86.6-72.81 86.6-75.04L86.6-86.42C86.6-88.65 84.792-90.46 82.562-90.46L48.437-90.46ZM41.1-86.42C41.1-90.47 44.385-93.76 48.437-93.76L82.562-93.76C86.615-93.76 89.9-90.47 89.9-86.42L89.9-75.04C89.9-70.99 86.615-67.71 82.562-67.71L48.437-67.71C44.385-67.71 41.1-70.99 41.1-75.04L41.1-86.42Z"/>
  </g>
  <g id="Ultralight-L" transform="matrix(1 0 0 1 494.916 1556)">
   <path d="M30.825-79.63C28.1-79.63 25.487-78.55 23.56-76.62C21.633-74.69 20.55-72.08 20.55-69.36L20.55 10.27C20.55 13 21.633 15.61 23.56 17.54C25.487 19.46 28.1 20.54 30.825 20.54L99.075 20.54C101.8 20.54 104.414 19.46 106.341 17.54C108.268 15.61 109.35 13 109.35 10.27L109.35-69.36C109.35-72.08 108.268-74.69 106.341-76.62C104.414-78.55 101.8-79.63 99.075-79.63L87.7-79.63C87.093-79.63 86.6-80.12 86.6-80.73C86.6-81.34 87.093-81.83 87.7-81.83L99.075-81.83C102.384-81.83 105.557-80.52 107.897-78.18C110.236-75.84 111.55-72.66 111.55-69.36L111.55 10.27C111.55 13.58 110.236 16.75 107.897 19.09C105.557 21.43 102.384 22.74 99.075 22.74L30.825 22.74C27.517 22.74 24.344 21.43 22.004 19.09C19.665 16.75 18.35 13.58 18.35 10.27L18.35-69.36C18.35-72.66 19.665-75.84 22.004-78.18C24.344-80.52 27.517-81.83 30.825-81.83L42.2-81.83C42.808-81.83 43.3-81.34 43.3-80.73C43.3-80.12 42.808-79.63 42.2-79.63L30.825-79.63ZM47.888-91.01C45.354-91.01 43.3-88.95 43.3-86.42L43.3-75.04C43.3-72.51 45.354-70.46 47.888-70.46L82.013-70.46C84.546-70.46 86.6-72.51 86.6-75.04L86.6-86.42C86.6-88.95 84.546-91.01 82.013-91.01L47.888-91.01ZM41.1-86.42C41.1-90.17 44.139-93.21 47.888-93.21L82.013-93.21C85.762-93.21 88.8-90.17 88.8-86.42L88.8-75.04C88.8-71.29 85.762-68.26 82.013-68.26L47.888-68.26C44.139-68.26 41.1-71.29 41.1-75.04L41.1-86.42Z"/>
  </g>
  <g id="Black-M" transform="matrix(1 0 0 1 2872.41 1126)">
   <path d="M34.38-63.83C33.89-63.83 33.43-63.64 33.09-63.3C32.75-62.95 32.55-62.49 32.55-62.01L32.55 0.47C32.55 0.95 32.75 1.42 33.09 1.76C33.43 2.1 33.89 2.29 34.38 2.29L87.93 2.29C88.41 2.29 88.88 2.1 89.22 1.76C89.56 1.42 89.75 0.95 89.75 0.47L89.75-62.01C89.75-62.49 89.56-62.95 89.22-63.3C88.88-63.64 88.41-63.83 87.93-63.83L79-63.83C75.08-63.83 71.9-67.01 71.9-70.93C71.9-74.85 75.08-78.03 79-78.03L87.93-78.03C92.18-78.03 96.25-76.34 99.26-73.34C102.27-70.33 103.95-66.26 103.95-62.01L103.95 0.47C103.95 4.72 102.27 8.79 99.26 11.8C96.25 14.81 92.18 16.49 87.93 16.49L34.38 16.49C30.13 16.49 26.05 14.81 23.05 11.8C20.04 8.79 18.35 4.72 18.35 0.47L18.35-62.01C18.35-66.26 20.04-70.33 23.05-73.34C26.05-76.34 30.13-78.03 34.38-78.03L43.3-78.03C47.22-78.03 50.4-74.85 50.4-70.93C50.4-67.01 47.22-63.83 43.3-63.83L34.38-63.83ZM50.41-72.76L50.41-69.11L71.91-69.11L71.91-72.76L50.41-72.76ZM36.21-75.39C36.21-81.78 41.38-86.96 47.77-86.96L74.54-86.96C80.93-86.96 86.11-81.78 86.11-75.39L86.11-66.47C86.11-60.08 80.93-54.91 74.54-54.91L47.77-54.91C41.38-54.91 36.21-60.08 36.21-66.47L36.21-75.39Z"/>
  </g>
  <g id="Heavy-M" transform="matrix(1 0 0 1 2576.54 1126)">
   <path d="M33.53-64.68C32.82-64.68 32.14-64.4 31.64-63.9C31.14-63.39 30.85-62.71 30.85-62L30.85 0.47C30.85 1.18 31.14 1.86 31.64 2.36C32.14 2.86 32.82 3.15 33.53 3.15L87.08 3.15C87.79 3.15 88.47 2.86 88.97 2.36C89.47 1.86 89.75 1.18 89.75 0.47L89.75-62C89.75-62.71 89.47-63.39 88.97-63.9C88.47-64.4 87.79-64.68 87.08-64.68L78.15-64.68C74.7-64.68 71.9-67.48 71.9-70.93C71.9-74.38 74.7-77.18 78.15-77.18L87.08-77.18C91.1-77.18 94.96-75.58 97.81-72.74C100.66-69.89 102.25-66.03 102.25-62L102.25 0.47C102.25 4.49 100.66 8.35 97.81 11.2C94.96 14.05 91.1 15.65 87.08 15.65L33.53 15.65C29.5 15.65 25.64 14.05 22.8 11.2C19.95 8.35 18.35 4.49 18.35 0.47L18.35-62C18.35-66.03 19.95-69.89 22.8-72.74C25.64-75.58 29.5-77.18 33.53-77.18L42.45-77.18C45.91-77.18 48.7-74.38 48.7-70.93C48.7-67.48 45.91-64.68 42.45-64.68L33.53-64.68ZM48.7-73.61L48.7-68.26L71.9-68.26L71.9-73.61L48.7-73.61ZM36.2-75.39C36.2-81.31 41-86.11 46.92-86.11L73.69-86.11C79.61-86.11 84.4-81.31 84.4-75.39L84.4-66.47C84.4-60.55 79.61-55.76 73.69-55.76L46.92-55.76C41-55.76 36.2-60.55 36.2-66.47L36.2-75.39Z"/>
  </g>
  <g id="Bold-M" transform="matrix(1 0 0 1 2280.78 1126)">
   <path d="M32.58-65.63C31.62-65.63 30.7-65.25 30.02-64.57C29.34-63.89 28.95-62.96 28.95-62L28.95 0.47C28.95 1.43 29.34 2.35 30.02 3.03C30.7 3.71 31.62 4.1 32.58 4.1L86.13 4.1C87.09 4.1 88.01 3.71 88.69 3.03C89.37 2.35 89.75 1.43 89.75 0.47L89.75-62C89.75-62.96 89.37-63.89 88.69-64.57C88.01-65.25 87.09-65.63 86.13-65.63L77.2-65.63C74.28-65.63 71.9-68 71.9-70.93C71.9-73.86 74.28-76.23 77.2-76.23L86.13-76.23C89.9-76.23 93.52-74.73 96.19-72.06C98.86-69.39 100.35-65.78 100.35-62L100.35 0.47C100.35 4.24 98.86 7.86 96.19 10.53C93.52 13.2 89.9 14.7 86.13 14.7L32.58 14.7C28.81 14.7 25.19 13.2 22.52 10.53C19.85 7.86 18.35 4.24 18.35 0.47L18.35-62C18.35-65.78 19.85-69.39 22.52-72.06C25.19-74.73 28.81-76.23 32.58-76.23L41.5-76.23C44.43-76.23 46.8-73.86 46.8-70.93C46.8-68 44.43-65.63 41.5-65.63L32.58-65.63ZM46.8-74.55L46.8-67.3L71.9-67.3L71.9-74.55L46.8-74.55ZM36.2-75.39C36.2-80.78 40.58-85.15 45.97-85.15L72.74-85.15C78.13-85.15 82.5-80.78 82.5-75.39L82.5-66.47C82.5-61.08 78.13-56.7 72.74-56.7L45.97-56.7C40.58-56.7 36.2-61.08 36.2-66.47L36.2-75.39Z"/>
  </g>
  <g id="Semibold-M" transform="matrix(1 0 0 1 1984.72 1126)">
   <path d="M31.93-66.28C30.79-66.28 29.7-65.83 28.9-65.03C28.1-64.22 27.65-63.14 27.65-62L27.65 0.47C27.65 1.61 28.1 2.69 28.9 3.49C29.7 4.3 30.79 4.75 31.93 4.75L85.48 4.75C86.61 4.75 87.7 4.3 88.5 3.49C89.3 2.69 89.75 1.61 89.75 0.47L89.75-62C89.75-63.14 89.3-64.22 88.5-65.03C87.7-65.83 86.61-66.28 85.48-66.28L76.55-66.28C73.98-66.28 71.9-68.36 71.9-70.93C71.9-73.5 73.98-75.58 76.55-75.58L85.48-75.58C89.08-75.58 92.53-74.15 95.07-71.6C97.62-69.06 99.05-65.6 99.05-62L99.05 0.47C99.05 4.07 97.62 7.53 95.07 10.07C92.53 12.62 89.08 14.05 85.48 14.05L31.93 14.05C28.33 14.05 24.87 12.62 22.33 10.07C19.78 7.53 18.35 4.07 18.35 0.47L18.35-62C18.35-65.6 19.78-69.06 22.33-71.6C24.87-74.15 28.33-75.58 31.93-75.58L40.85-75.58C43.42-75.58 45.5-73.5 45.5-70.93C45.5-68.36 43.42-66.28 40.85-66.28L31.93-66.28ZM45.5-75.2L45.5-66.65L71.9-66.65L71.9-75.2L45.5-75.2ZM36.2-75.39C36.2-80.42 40.28-84.5 45.31-84.5L72.09-84.5C77.12-84.5 81.2-80.42 81.2-75.39L81.2-66.47C81.2-61.43 77.12-57.35 72.09-57.35L45.31-57.35C40.28-57.35 36.2-61.43 36.2-66.47L36.2-75.39Z"/>
  </g>
  <g id="Medium-M" transform="matrix(1 0 0 1 1688.51 1126)">
   <path d="M31.43-66.78C30.16-66.78 28.94-66.28 28.05-65.38C27.15-64.48 26.65-63.27 26.65-62L26.65 0.47C26.65 1.74 27.15 2.95 28.05 3.85C28.94 4.74 30.16 5.25 31.43 5.25L84.98 5.25C86.24 5.25 87.46 4.74 88.35 3.85C89.25 2.95 89.75 1.74 89.75 0.47L89.75-62C89.75-63.27 89.25-64.48 88.35-65.38C87.46-66.28 86.24-66.78 84.98-66.78L76.05-66.78C73.76-66.78 71.9-68.64 71.9-70.93C71.9-73.22 73.76-75.08 76.05-75.08L84.98-75.08C88.44-75.08 91.77-73.7 94.22-71.25C96.67-68.8 98.05-65.47 98.05-62L98.05 0.47C98.05 3.94 96.67 7.27 94.22 9.72C91.77 12.17 88.44 13.55 84.98 13.55L31.43 13.55C27.96 13.55 24.63 12.17 22.18 9.72C19.73 7.27 18.35 3.94 18.35 0.47L18.35-62C18.35-65.47 19.73-68.8 22.18-71.25C24.63-73.7 27.96-75.08 31.43-75.08L40.35-75.08C42.64-75.08 44.5-73.22 44.5-70.93C44.5-68.64 42.64-66.78 40.35-66.78L31.43-66.78ZM44.81-75.7C44.64-75.7 44.5-75.56 44.5-75.39L44.5-66.47C44.5-66.29 44.64-66.15 44.81-66.15L71.59-66.15C71.76-66.15 71.9-66.29 71.9-66.47L71.9-75.39C71.9-75.56 71.76-75.7 71.59-75.7L44.81-75.7ZM36.2-75.39C36.2-80.15 40.06-84 44.81-84L71.59-84C76.34-84 80.2-80.15 80.2-75.39L80.2-66.47C80.2-61.71 76.34-57.85 71.59-57.85L44.81-57.85C40.06-57.85 36.2-61.71 36.2-66.47L36.2-75.39Z"/>
  </g>
  <g id="Regular-M" transform="matrix(1 0 0 1 1392.45 1126)">
   <path d="M30.78-67.43C29.34-67.43 27.96-66.86 26.94-65.84C25.92-64.82 25.35-63.44 25.35-62L25.35 0.47C25.35 1.91 25.92 3.29 26.94 4.31C27.96 5.33 29.34 5.9 30.78 5.9L84.33 5.9C85.76 5.9 87.14 5.33 88.16 4.31C89.18 3.29 89.75 1.91 89.75 0.47L89.75-62C89.75-63.44 89.18-64.82 88.16-65.84C87.14-66.86 85.76-67.43 84.33-67.43L75.4-67.43C73.47-67.43 71.9-68.99 71.9-70.93C71.9-72.86 73.47-74.43 75.4-74.43L84.33-74.43C87.62-74.43 90.78-73.12 93.11-70.79C95.44-68.46 96.75-65.3 96.75-62L96.75 0.47C96.75 3.77 95.44 6.93 93.11 9.26C90.78 11.59 87.62 12.9 84.33 12.9L30.78 12.9C27.48 12.9 24.32 11.59 21.99 9.26C19.66 6.93 18.35 3.77 18.35 0.47L18.35-62C18.35-65.3 19.66-68.46 21.99-70.79C24.32-73.12 27.48-74.43 30.78-74.43L39.7-74.43C41.63-74.43 43.2-72.86 43.2-70.93C43.2-68.99 41.63-67.43 39.7-67.43L30.78-67.43ZM44.16-76.35C43.63-76.35 43.2-75.92 43.2-75.39L43.2-66.47C43.2-65.93 43.63-65.5 44.16-65.5L70.94-65.5C71.47-65.5 71.9-65.93 71.9-66.47L71.9-75.39C71.9-75.92 71.47-76.35 70.94-76.35L44.16-76.35ZM36.2-75.39C36.2-79.79 39.77-83.35 44.16-83.35L70.94-83.35C75.34-83.35 78.9-79.79 78.9-75.39L78.9-66.47C78.9-62.07 75.34-58.5 70.94-58.5L44.16-58.5C39.77-58.5 36.2-62.07 36.2-66.47L36.2-75.39Z"/>
  </g>
  <g id="Light-M" transform="matrix(1 0 0 1 1096.54 1126)">
   <path d="M29.97-68.23C28.32-68.23 26.74-67.57 25.57-66.41C24.41-65.24 23.75-63.65 23.75-62L23.75 0.47C23.75 2.12 24.41 3.71 25.57 4.87C26.74 6.04 28.32 6.7 29.97 6.7L83.52 6.7C85.18 6.7 86.76 6.04 87.93 4.87C89.09 3.71 89.75 2.12 89.75 0.47L89.75-62C89.75-63.65 89.09-65.24 87.93-66.41C86.76-67.57 85.18-68.23 83.52-68.23L74.6-68.23C73.11-68.23 71.9-69.44 71.9-70.93C71.9-72.42 73.11-73.63 74.6-73.63L83.52-73.63C86.61-73.63 89.56-72.4 91.74-70.22C93.92-68.04 95.15-65.09 95.15-62L95.15 0.47C95.15 3.55 93.92 6.51 91.74 8.69C89.56 10.87 86.61 12.1 83.52 12.1L29.97 12.1C26.89 12.1 23.93 10.87 21.75 8.69C19.57 6.51 18.35 3.55 18.35 0.47L18.35-62C18.35-65.09 19.57-68.04 21.75-70.22C23.93-72.4 26.89-73.63 29.97-73.63L38.9-73.63C40.39-73.63 41.6-72.42 41.6-70.93C41.6-69.44 40.39-68.23 38.9-68.23L29.97-68.23ZM43.36-77.15C42.39-77.15 41.6-76.36 41.6-75.39L41.6-66.47C41.6-65.49 42.39-64.7 43.36-64.7L70.14-64.7C71.11-64.7 71.9-65.49 71.9-66.47L71.9-75.39C71.9-76.36 71.11-77.15 70.14-77.15L43.36-77.15ZM36.2-75.39C36.2-79.35 39.41-82.55 43.36-82.55L70.14-82.55C74.09-82.55 77.3-79.35 77.3-75.39L77.3-66.47C77.3-62.51 74.09-59.3 70.14-59.3L43.36-59.3C39.41-59.3 36.2-62.51 36.2-66.47L36.2-75.39Z"/>
  </g>
  <g id="Thin-M" transform="matrix(1 0 0 1 800.877 1126)">
   <path d="M28.925-69.28C26.996-69.28 25.146-68.51 23.781-67.15C22.417-65.78 21.65-63.93 21.65-62L21.65 0.47C21.65 2.4 22.417 4.25 23.781 5.62C25.146 6.98 26.996 7.75 28.925 7.75L82.475 7.75C84.405 7.75 86.255 6.98 87.62 5.62C88.984 4.25 89.75 2.4 89.75 0.47L89.75-62C89.75-63.93 88.984-65.78 87.62-67.15C86.255-68.51 84.405-69.28 82.475-69.28L73.55-69.28C72.639-69.28 71.9-70.02 71.9-70.93C71.9-71.84 72.639-72.58 73.55-72.58L82.475-72.58C85.28-72.58 87.97-71.46 89.953-69.48C91.936-67.5 93.05-64.81 93.05-62L93.05 0.47C93.05 3.28 91.936 5.97 89.953 7.95C87.97 9.93 85.28 11.05 82.475 11.05L28.925 11.05C26.121 11.05 23.431 9.93 21.448 7.95C19.465 5.97 18.35 3.28 18.35 0.47L18.35-62C18.35-64.81 19.465-67.5 21.448-69.48C23.431-71.46 26.121-72.58 28.925-72.58L37.85-72.58C38.762-72.58 39.5-71.84 39.5-70.93C39.5-70.02 38.762-69.28 37.85-69.28L28.925-69.28ZM42.312-78.2C40.759-78.2 39.5-76.94 39.5-75.39L39.5-66.47C39.5-64.91 40.759-63.65 42.312-63.65L69.087-63.65C70.641-63.65 71.9-64.91 71.9-66.47L71.9-75.39C71.9-76.94 70.641-78.2 69.087-78.2L42.312-78.2ZM36.2-75.39C36.2-78.77 38.937-81.5 42.312-81.5L69.087-81.5C72.463-81.5 75.2-78.77 75.2-75.39L75.2-66.47C75.2-63.09 72.463-60.35 69.087-60.35L42.312-60.35C38.937-60.35 36.2-63.09 36.2-66.47L36.2-75.39Z"/>
  </g>
  <g id="Ultralight-M" transform="matrix(1 0 0 1 504.716 1126)">
   <path d="M28.375-69.83C26.3-69.83 24.31-69 22.842-67.54C21.375-66.07 20.55-64.08 20.55-62L20.55 0.47C20.55 2.55 21.375 4.54 22.842 6C24.31 7.47 26.3 8.3 28.375 8.3L81.925 8.3C84.001 8.3 85.991 7.47 87.458 6C88.926 4.54 89.75 2.55 89.75 0.47L89.75-62C89.75-64.08 88.926-66.07 87.458-67.54C85.991-69 84.001-69.83 81.925-69.83L73-69.83C72.393-69.83 71.9-70.32 71.9-70.93C71.9-71.54 72.393-72.03 73-72.03L81.925-72.03C84.584-72.03 87.134-70.97 89.014-69.09C90.894-67.21 91.95-64.66 91.95-62L91.95 0.47C91.95 3.13 90.894 5.68 89.014 7.56C87.134 9.44 84.584 10.5 81.925 10.5L28.375 10.5C25.716 10.5 23.167 9.44 21.286 7.56C19.406 5.68 18.35 3.13 18.35 0.47L18.35-62C18.35-64.66 19.406-67.21 21.286-69.09C23.167-70.97 25.716-72.03 28.375-72.03L37.3-72.03C37.908-72.03 38.4-71.54 38.4-70.93C38.4-70.32 37.908-69.83 37.3-69.83L28.375-69.83ZM41.764-78.75C39.907-78.75 38.402-77.25 38.402-75.39L38.402-66.47C38.402-64.61 39.907-63.1 41.764-63.1L68.539-63.1C70.396-63.1 71.902-64.61 71.902-66.47L71.902-75.39C71.902-77.25 70.396-78.75 68.539-78.75L41.764-78.75ZM36.202-75.39C36.202-78.46 38.692-80.95 41.764-80.95L68.539-80.95C71.611-80.95 74.102-78.46 74.102-75.39L74.102-66.47C74.102-63.39 71.611-60.9 68.539-60.9L41.764-60.9C38.692-60.9 36.202-63.39 36.202-66.47L36.202-75.39Z"/>
  </g>
  <g id="Black-S" transform="matrix(1 0 0 1 2880.11 696)">
   <path d="M32.55-56.232L39.45-56.232C43.37-56.232 46.55-59.41 46.55-63.332C46.55-67.253 43.37-70.432 39.45-70.432L32.45-70.432C28.71-70.432 25.12-68.946 22.48-66.302C19.84-63.658 18.35-60.071 18.35-56.332L18.35-7.332C18.35-3.592 19.84-0.006 22.48 2.639C25.12 5.283 28.71 6.768 32.45 6.768L74.45 6.768C78.19 6.768 81.78 5.283 84.42 2.639C87.07-0.006 88.55-3.592 88.55-7.332L88.55-56.332C88.55-60.071 87.07-63.658 84.42-66.302C81.78-68.946 78.19-70.432 74.45-70.432L67.45-70.432C63.53-70.432 60.35-67.253 60.35-63.332C60.35-59.41 63.53-56.232 67.45-56.232L74.35-56.232L74.35-7.432L32.55-7.432L32.55-56.232ZM32.35-66.832C32.35-72.686 37.1-77.432 42.95-77.432L63.95-77.432C69.8-77.432 74.55-72.686 74.55-66.832L74.55-59.832C74.55-53.977 69.8-49.232 63.95-49.232L42.95-49.232C37.1-49.232 32.35-53.977 32.35-59.832L32.35-66.832Z"/>
  </g>
  <g id="Heavy-S" transform="matrix(1 0 0 1 2584.24 696)">
   <path d="M31.6-57.082C31.4-57.082 31.21-57.003 31.07-56.862C30.93-56.722 30.85-56.531 30.85-56.332L30.85-7.332C30.85-7.133 30.93-6.942 31.07-6.802C31.21-6.661 31.4-6.582 31.6-6.582L73.6-6.582C73.8-6.582 73.99-6.661 74.13-6.802C74.27-6.942 74.35-7.133 74.35-7.332L74.35-56.332C74.35-56.531 74.27-56.722 74.13-56.862C73.99-57.003 73.8-57.082 73.6-57.082L66.6-57.082C63.15-57.082 60.35-59.88 60.35-63.332C60.35-66.784 63.15-69.582 66.6-69.582L73.6-69.582C77.12-69.582 80.49-68.186 82.97-65.701C85.46-63.216 86.85-59.846 86.85-56.332L86.85-7.332C86.85-3.818 85.46-0.448 82.97 2.037C80.49 4.522 77.12 5.918 73.6 5.918L31.6 5.918C28.09 5.918 24.72 4.522 22.23 2.037C19.75-0.448 18.35-3.818 18.35-7.332L18.35-56.332C18.35-59.846 19.75-63.216 22.23-65.701C24.72-68.186 28.09-69.582 31.6-69.582L38.6-69.582C42.05-69.582 44.85-66.784 44.85-63.332C44.85-59.88 42.05-57.082 38.6-57.082L31.6-57.082ZM44.85-64.082L44.85-62.582L60.35-62.582L60.35-64.082L44.85-64.082ZM32.35-66.832C32.35-72.217 36.72-76.582 42.1-76.582L63.1-76.582C68.49-76.582 72.85-72.217 72.85-66.832L72.85-59.832C72.85-54.447 68.49-50.082 63.1-50.082L42.1-50.082C36.72-50.082 32.35-54.447 32.35-59.832L32.35-66.832Z"/>
  </g>
  <g id="Bold-S" transform="matrix(1 0 0 1 2288.48 696)">
   <path d="M30.65-57.828C30.2-57.828 29.77-57.649 29.45-57.33C29.13-57.011 28.95-56.579 28.95-56.128L28.95-7.128C28.95-6.677 29.13-6.244 29.45-5.926C29.77-5.607 30.2-5.428 30.65-5.428L72.65-5.428C73.1-5.428 73.54-5.607 73.86-5.926C74.17-6.244 74.35-6.677 74.35-7.128L74.35-56.128C74.35-56.579 74.17-57.011 73.86-57.33C73.54-57.649 73.1-57.828 72.65-57.828L65.65-57.828C62.73-57.828 60.35-60.201 60.35-63.128C60.35-66.055 62.73-68.428 65.65-68.428L72.65-68.428C75.92-68.428 79.04-67.132 81.35-64.825C83.66-62.518 84.95-59.39 84.95-56.128L84.95-7.128C84.95-3.866 83.66-0.737 81.35 1.57C79.04 3.876 75.92 5.172 72.65 5.172L30.65 5.172C27.39 5.172 24.26 3.876 21.96 1.57C19.65-0.737 18.35-3.866 18.35-7.128L18.35-56.128C18.35-59.39 19.65-62.518 21.96-64.825C24.26-67.132 27.39-68.428 30.65-68.428L37.65-68.428C40.58-68.428 42.95-66.055 42.95-63.128C42.95-60.201 40.58-57.828 37.65-57.828L30.65-57.828ZM42.95-64.828L42.95-61.428L60.35-61.428L60.35-64.828L42.95-64.828ZM32.35-66.628C32.35-71.488 36.29-75.428 41.15-75.428L62.15-75.428C67.01-75.428 70.95-71.488 70.95-66.628L70.95-59.628C70.95-54.768 67.01-50.828 62.15-50.828L41.15-50.828C36.29-50.828 32.35-54.768 32.35-59.628L32.35-66.628Z"/>
  </g>
  <g id="Semibold-S" transform="matrix(1 0 0 1 1992.42 696)">
   <path d="M30-58.477C29.38-58.477 28.78-58.23 28.34-57.789C27.9-57.348 27.65-56.751 27.65-56.127L27.65-7.127C27.65-6.504 27.9-5.906 28.34-5.466C28.78-5.025 29.38-4.777 30-4.777L72-4.777C72.62-4.777 73.22-5.025 73.66-5.466C74.1-5.906 74.35-6.504 74.35-7.127L74.35-56.127C74.35-56.751 74.1-57.348 73.66-57.789C73.22-58.23 72.62-58.477 72-58.477L65-58.477C62.43-58.477 60.35-60.559 60.35-63.127C60.35-65.695 62.43-67.777 65-67.777L72-67.777C75.09-67.777 78.05-66.55 80.24-64.365C82.42-62.18 83.65-59.217 83.65-56.127L83.65-7.127C83.65-4.038 82.42-1.074 80.24 1.11C78.05 3.295 75.09 4.523 72 4.523L30 4.523C26.91 4.523 23.95 3.295 21.76 1.11C19.58-1.074 18.35-4.038 18.35-7.127L18.35-56.127C18.35-59.217 19.58-62.18 21.76-64.365C23.95-66.55 26.91-67.777 30-67.777L37-67.777C39.57-67.777 41.65-65.695 41.65-63.127C41.65-60.559 39.57-58.477 37-58.477L30-58.477ZM41.65-65.477L41.65-60.777L60.35-60.777L60.35-65.477L41.65-65.477ZM32.35-66.627C32.35-71.128 36-74.777 40.5-74.777L61.5-74.777C66-74.777 69.65-71.128 69.65-66.627L69.65-59.627C69.65-55.126 66-51.477 61.5-51.477L40.5-51.477C36-51.477 32.35-55.126 32.35-59.627L32.35-66.627Z"/>
  </g>
  <g id="Medium-S" transform="matrix(1 0 0 1 1696.21 696)">
   <path d="M29.5-58.977C28.74-58.977 28.02-58.677 27.48-58.143C26.95-57.608 26.65-56.883 26.65-56.127L26.65-7.127C26.65-6.371 26.95-5.647 27.48-5.112C28.02-4.578 28.74-4.277 29.5-4.277L71.5-4.277C72.26-4.277 72.98-4.578 73.51-5.112C74.05-5.647 74.35-6.371 74.35-7.127L74.35-56.127C74.35-56.883 74.05-57.608 73.51-58.143C72.98-58.677 72.26-58.977 71.5-58.977L64.5-58.977C62.21-58.977 60.35-60.835 60.35-63.127C60.35-65.419 62.21-67.277 64.5-67.277L71.5-67.277C74.46-67.277 77.29-66.103 79.38-64.012C81.47-61.921 82.65-59.085 82.65-56.127L82.65-7.127C82.65-4.17 81.47-1.334 79.38 0.757C77.29 2.848 74.46 4.023 71.5 4.023L29.5 4.023C26.54 4.023 23.71 2.848 21.62 0.757C19.52-1.334 18.35-4.17 18.35-7.127L18.35-56.127C18.35-59.085 19.52-61.921 21.62-64.012C23.71-66.103 26.54-67.277 29.5-67.277L36.5-67.277C38.79-67.277 40.65-65.419 40.65-63.127C40.65-60.835 38.79-58.977 36.5-58.977L29.5-58.977ZM40.65-65.977L40.65-60.277L60.35-60.277L60.35-65.977L40.65-65.977ZM32.35-66.627C32.35-70.852 35.77-74.277 40-74.277L61-74.277C65.22-74.277 68.65-70.852 68.65-66.627L68.65-59.627C68.65-55.402 65.22-51.977 61-51.977L40-51.977C35.77-51.977 32.35-55.402 32.35-59.627L32.35-66.627Z"/>
  </g>
  <g id="Regular-S" transform="matrix(1 0 0 1 1400.15 696)">
   <path d="M28.85-59.627C27.92-59.627 27.03-59.258 26.38-58.602C25.72-57.945 25.35-57.055 25.35-56.127L25.35-7.127C25.35-6.199 25.72-5.308 26.38-4.652C27.03-3.996 27.92-3.627 28.85-3.627L70.85-3.627C71.78-3.627 72.67-3.996 73.32-4.652C73.98-5.308 74.35-6.199 74.35-7.127L74.35-56.127C74.35-57.055 73.98-57.945 73.32-58.602C72.67-59.258 71.78-59.627 70.85-59.627L63.85-59.627C61.92-59.627 60.35-61.194 60.35-63.127C60.35-65.06 61.92-66.627 63.85-66.627L70.85-66.627C73.63-66.627 76.31-65.521 78.27-63.552C80.24-61.582 81.35-58.912 81.35-56.127L81.35-7.127C81.35-4.342 80.24-1.671 78.27 0.298C76.31 2.267 73.63 3.373 70.85 3.373L28.85 3.373C26.07 3.373 23.39 2.267 21.43 0.298C19.46-1.671 18.35-4.342 18.35-7.127L18.35-56.127C18.35-58.912 19.46-61.582 21.43-63.552C23.39-65.521 26.07-66.627 28.85-66.627L35.85-66.627C37.78-66.627 39.35-65.06 39.35-63.127C39.35-61.194 37.78-59.627 35.85-59.627L28.85-59.627ZM32.35-66.627C32.35-70.493 35.48-73.627 39.35-73.627L60.35-73.627C64.22-73.627 67.35-70.493 67.35-66.627L67.35-59.627C67.35-55.761 64.22-52.627 60.35-52.627L39.35-52.627C35.48-52.627 32.35-55.761 32.35-59.627L32.35-66.627ZM60.35-66.627L39.35-66.627L39.35-59.627L60.35-59.627L60.35-66.627Z"/>
  </g>
  <g id="Light-S" transform="matrix(1 0 0 1 1104.24 696)">
   <path d="M28.05-60.426C26.91-60.426 25.82-59.973 25.01-59.167C24.2-58.36 23.75-57.267 23.75-56.126L23.75-7.126C23.75-5.986 24.2-4.892 25.01-4.086C25.82-3.279 26.91-2.826 28.05-2.826L70.05-2.826C71.19-2.826 72.28-3.279 73.09-4.086C73.9-4.892 74.35-5.986 74.35-7.126L74.35-56.126C74.35-57.267 73.9-58.36 73.09-59.167C72.28-59.973 71.19-60.426 70.05-60.426L63.05-60.426C61.56-60.426 60.35-61.635 60.35-63.126C60.35-64.617 61.56-65.826 63.05-65.826L70.05-65.826C72.62-65.826 75.09-64.804 76.91-62.985C78.73-61.166 79.75-58.699 79.75-56.126L79.75-7.126C79.75-4.554 78.73-2.086 76.91-0.267C75.09 1.552 72.62 2.574 70.05 2.574L28.05 2.574C25.48 2.574 23.01 1.552 21.19-0.267C19.37-2.086 18.35-4.554 18.35-7.126L18.35-56.126C18.35-58.699 19.37-61.166 21.19-62.985C23.01-64.804 25.48-65.826 28.05-65.826L35.05-65.826C36.54-65.826 37.75-64.617 37.75-63.126C37.75-61.635 36.54-60.426 35.05-60.426L28.05-60.426ZM38.55-67.426C38.11-67.426 37.75-67.068 37.75-66.626L37.75-59.626C37.75-59.184 38.11-58.826 38.55-58.826L59.55-58.826C59.99-58.826 60.35-59.184 60.35-59.626L60.35-66.626C60.35-67.068 59.99-67.426 59.55-67.426L38.55-67.426ZM32.35-66.626C32.35-70.05 35.13-72.826 38.55-72.826L59.55-72.826C62.97-72.826 65.75-70.05 65.75-66.626L65.75-59.626C65.75-56.202 62.97-53.426 59.55-53.426L38.55-53.426C35.13-53.426 32.35-56.202 32.35-59.626L32.35-66.626Z"/>
  </g>
  <g id="Thin-S" transform="matrix(1 0 0 1 808.577 696)">
   <path d="M27-61.477C25.581-61.477 24.22-60.914 23.217-59.91C22.213-58.907 21.65-57.546 21.65-56.127L21.65-7.127C21.65-5.708 22.213-4.348 23.217-3.344C24.22-2.341 25.581-1.777 27-1.777L69-1.777C70.419-1.777 71.779-2.341 72.783-3.344C73.786-4.348 74.35-5.708 74.35-7.127L74.35-56.127C74.35-57.546 73.786-58.907 72.783-59.91C71.779-60.914 70.419-61.477 69-61.477L62-61.477C61.088-61.477 60.35-62.216 60.35-63.127C60.35-64.039 61.088-64.777 62-64.777L69-64.777C71.294-64.777 73.494-63.866 75.116-62.244C76.738-60.622 77.65-58.421 77.65-56.127L77.65-7.127C77.65-4.833 76.738-2.633 75.116-1.011C73.494 0.611 71.294 1.523 69 1.523L27 1.523C24.705 1.523 22.505 0.611 20.883-1.011C19.261-2.633 18.35-4.833 18.35-7.127L18.35-56.127C18.35-58.421 19.261-60.622 20.883-62.244C22.505-63.866 24.705-64.777 27-64.777L34-64.777C34.911-64.777 35.65-64.039 35.65-63.127C35.65-62.216 34.911-61.477 34-61.477L27-61.477ZM37.5-68.477C36.478-68.477 35.65-67.649 35.65-66.627L35.65-59.627C35.65-58.606 36.478-57.777 37.5-57.777L58.5-57.777C59.521-57.777 60.35-58.606 60.35-59.627L60.35-66.627C60.35-67.649 59.521-68.477 58.5-68.477L37.5-68.477ZM32.35-66.627C32.35-69.472 34.655-71.777 37.5-71.777L58.5-71.777C61.344-71.777 63.65-69.472 63.65-66.627L63.65-59.627C63.65-56.783 61.344-54.477 58.5-54.477L37.5-54.477C34.655-54.477 32.35-56.783 32.35-59.627L32.35-66.627Z"/>
  </g>
  <g id="Ultralight-S" transform="matrix(1 0 0 1 512.416 696)">
   <path d="M26.45-62.027C24.886-62.027 23.385-61.405 22.278-60.298C21.172-59.192 20.55-57.691 20.55-56.127L20.55-7.127C20.55-5.562 21.172-4.061 22.278-2.955C23.385-1.848 24.886-1.227 26.45-1.227L68.45-1.227C70.015-1.227 71.516-1.848 72.622-2.955C73.729-4.061 74.35-5.562 74.35-7.127L74.35-56.127C74.35-57.691 73.729-59.192 72.622-60.298C71.516-61.405 70.015-62.027 68.45-62.027L61.45-62.027C60.843-62.027 60.35-62.519 60.35-63.127C60.35-63.734 60.843-64.227 61.45-64.227L68.45-64.227C70.599-64.227 72.659-63.373 74.178-61.854C75.697-60.335 76.55-58.275 76.55-56.127L76.55-7.127C76.55-4.978 75.697-2.918 74.178-1.399C72.659 0.12 70.599 0.973 68.45 0.973L26.45 0.973C24.302 0.973 22.242 0.12 20.723-1.399C19.204-2.918 18.35-4.978 18.35-7.127L18.35-56.127C18.35-58.275 19.204-60.335 20.723-61.854C22.242-63.373 24.302-64.227 26.45-64.227L33.45-64.227C34.058-64.227 34.55-63.734 34.55-63.127C34.55-62.519 34.058-62.027 33.45-62.027L26.45-62.027ZM36.95-69.027C35.625-69.027 34.55-67.952 34.55-66.627L34.55-59.627C34.55-58.301 35.625-57.227 36.95-57.227L57.95-57.227C59.276-57.227 60.35-58.301 60.35-59.627L60.35-66.627C60.35-67.952 59.276-69.027 57.95-69.027L36.95-69.027ZM32.35-66.627C32.35-69.167 34.41-71.227 36.95-71.227L57.95-71.227C60.491-71.227 62.55-69.167 62.55-66.627L62.55-59.627C62.55-57.086 60.491-55.027 57.95-55.027L36.95-55.027C34.41-55.027 32.35-57.086 32.35-59.627L32.35-66.627Z"/>
  </g>
 </g>
</svg>
