<?xml version="1.0" encoding="UTF-8"?>
<!--Generator: Apple Native CoreSVG 175-->
<!DOCTYPE svg
PUBLIC "-//W3C//DTD SVG 1.1//EN"
       "http://www.w3.org/Graphics/SVG/1.1/DTD/svg11.dtd">
<svg version="1.1" xmlns="http://www.w3.org/2000/svg" xmlns:xlink="http://www.w3.org/1999/xlink" width="3300" height="2200">
 <!--glyph: "", point size: 100.0, font version: "17.0d12e1", template writer version: "65.1"-->
 <g id="Notes">
  <rect height="2200" id="artboard" style="fill:white;opacity:1" width="3300" x="0" y="0"/>
  <line style="fill:none;stroke:black;opacity:1;stroke-width:0.5;" x1="263" x2="3036" y1="292" y2="292"/>
  <text style="stroke:none;fill:black;font-family:sans-serif;font-size:13;font-weight:bold;" transform="matrix(1 0 0 1 263 322)">Weight/Scale Variations</text>
  <text style="stroke:none;fill:black;font-family:sans-serif;font-size:13;text-anchor:middle;" transform="matrix(1 0 0 1 559.711 322)">Ultralight</text>
  <text style="stroke:none;fill:black;font-family:sans-serif;font-size:13;text-anchor:middle;" transform="matrix(1 0 0 1 856.422 322)">Thin</text>
  <text style="stroke:none;fill:black;font-family:sans-serif;font-size:13;text-anchor:middle;" transform="matrix(1 0 0 1 1153.13 322)">Light</text>
  <text style="stroke:none;fill:black;font-family:sans-serif;font-size:13;text-anchor:middle;" transform="matrix(1 0 0 1 1449.84 322)">Regular</text>
  <text style="stroke:none;fill:black;font-family:sans-serif;font-size:13;text-anchor:middle;" transform="matrix(1 0 0 1 1746.56 322)">Medium</text>
  <text style="stroke:none;fill:black;font-family:sans-serif;font-size:13;text-anchor:middle;" transform="matrix(1 0 0 1 2043.27 322)">Semibold</text>
  <text style="stroke:none;fill:black;font-family:sans-serif;font-size:13;text-anchor:middle;" transform="matrix(1 0 0 1 2339.98 322)">Bold</text>
  <text style="stroke:none;fill:black;font-family:sans-serif;font-size:13;text-anchor:middle;" transform="matrix(1 0 0 1 2636.69 322)">Heavy</text>
  <text style="stroke:none;fill:black;font-family:sans-serif;font-size:13;text-anchor:middle;" transform="matrix(1 0 0 1 2933.4 322)">Black</text>
  <line style="fill:none;stroke:black;opacity:1;stroke-width:0.5;" x1="263" x2="3036" y1="1903" y2="1903"/>
  <g transform="matrix(1 0 0 1 263 1933)">
   <path d="M9.24805 0.830078Q10.8691 0.830078 12.2949 0.214844Q13.7207-0.400391 14.8096-1.49414Q15.8984-2.58789 16.5186-4.01367Q17.1387-5.43945 17.1387-7.05078Q17.1387-8.66211 16.5186-10.0879Q15.8984-11.5137 14.8047-12.6074Q13.7109-13.7012 12.2852-14.3164Q10.8594-14.9316 9.23828-14.9316Q7.62695-14.9316 6.20117-14.3164Q4.77539-13.7012 3.69141-12.6074Q2.60742-11.5137 1.9873-10.0879Q1.36719-8.66211 1.36719-7.05078Q1.36719-5.43945 1.9873-4.01367Q2.60742-2.58789 3.69629-1.49414Q4.78516-0.400391 6.21094 0.214844Q7.63672 0.830078 9.24805 0.830078ZM9.24805-0.654297Q7.91992-0.654297 6.7627-1.14746Q5.60547-1.64062 4.73145-2.51953Q3.85742-3.39844 3.36426-4.56055Q2.87109-5.72266 2.87109-7.05078Q2.87109-8.37891 3.35938-9.54102Q3.84766-10.7031 4.72168-11.582Q5.5957-12.4609 6.75293-12.9541Q7.91016-13.4473 9.23828-13.4473Q10.5762-13.4473 11.7334-12.9541Q12.8906-12.4609 13.7695-11.582Q14.6484-10.7031 15.1465-9.54102Q15.6445-8.37891 15.6445-7.05078Q15.6445-5.72266 15.1514-4.56055Q14.6582-3.39844 13.7842-2.51953Q12.9102-1.64062 11.748-1.14746Q10.5859-0.654297 9.24805-0.654297ZM5.6543-7.05078Q5.6543-6.72852 5.85938-6.52832Q6.06445-6.32812 6.40625-6.32812L8.51562-6.32812L8.51562-4.20898Q8.51562-3.88672 8.71094-3.67676Q8.90625-3.4668 9.23828-3.4668Q9.56055-3.4668 9.77051-3.67676Q9.98047-3.88672 9.98047-4.20898L9.98047-6.32812L12.0898-6.32812Q12.4219-6.32812 12.627-6.52832Q12.832-6.72852 12.832-7.05078Q12.832-7.38281 12.627-7.58789Q12.4219-7.79297 12.0898-7.79297L9.98047-7.79297L9.98047-9.90234Q9.98047-10.2344 9.77051-10.4443Q9.56055-10.6543 9.23828-10.6543Q8.90625-10.6543 8.71094-10.4443Q8.51562-10.2344 8.51562-9.90234L8.51562-7.79297L6.40625-7.79297Q6.06445-7.79297 5.85938-7.58789Q5.6543-7.38281 5.6543-7.05078Z"/>
  </g>
  <g transform="matrix(1 0 0 1 281.867 1933)">
   <path d="M11.709 2.91016Q13.75 2.91016 15.5518 2.12891Q17.3535 1.34766 18.7305-0.0292969Q20.1074-1.40625 20.8887-3.20801Q21.6699-5.00977 21.6699-7.05078Q21.6699-9.0918 20.8887-10.8936Q20.1074-12.6953 18.7305-14.0723Q17.3535-15.4492 15.5469-16.2305Q13.7402-17.0117 11.6992-17.0117Q9.6582-17.0117 7.85645-16.2305Q6.05469-15.4492 4.68262-14.0723Q3.31055-12.6953 2.5293-10.8936Q1.74805-9.0918 1.74805-7.05078Q1.74805-5.00977 2.5293-3.20801Q3.31055-1.40625 4.6875-0.0292969Q6.06445 1.34766 7.86621 2.12891Q9.66797 2.91016 11.709 2.91016ZM11.709 1.25Q9.98047 1.25 8.47656 0.605469Q6.97266-0.0390625 5.83496-1.17676Q4.69727-2.31445 4.05762-3.81836Q3.41797-5.32227 3.41797-7.05078Q3.41797-8.7793 4.05762-10.2832Q4.69727-11.7871 5.83008-12.9297Q6.96289-14.0723 8.4668-14.7119Q9.9707-15.3516 11.6992-15.3516Q13.4277-15.3516 14.9316-14.7119Q16.4355-14.0723 17.5781-12.9297Q18.7207-11.7871 19.3652-10.2832Q20.0098-8.7793 20.0098-7.05078Q20.0098-5.32227 19.3701-3.81836Q18.7305-2.31445 17.5928-1.17676Q16.4551-0.0390625 14.9463 0.605469Q13.4375 1.25 11.709 1.25ZM7.17773-7.05078Q7.17773-6.69922 7.41211-6.47461Q7.64648-6.25 8.01758-6.25L10.8887-6.25L10.8887-3.36914Q10.8887-2.99805 11.1133-2.76855Q11.3379-2.53906 11.6895-2.53906Q12.0605-2.53906 12.29-2.76855Q12.5195-2.99805 12.5195-3.36914L12.5195-6.25L15.4004-6.25Q15.7715-6.25 16.001-6.47461Q16.2305-6.69922 16.2305-7.05078Q16.2305-7.42188 16.001-7.65137Q15.7715-7.88086 15.4004-7.88086L12.5195-7.88086L12.5195-10.752Q12.5195-11.1328 12.29-11.3623Q12.0605-11.5918 11.6895-11.5918Q11.3379-11.5918 11.1133-11.3574Q10.8887-11.123 10.8887-10.752L10.8887-7.88086L8.01758-7.88086Q7.63672-7.88086 7.40723-7.65137Q7.17773-7.42188 7.17773-7.05078Z"/>
  </g>
  <g transform="matrix(1 0 0 1 305.646 1933)">
   <path d="M14.9707 5.66406Q17.0605 5.66406 18.96 5.01465Q20.8594 4.36523 22.4512 3.19336Q24.043 2.02148 25.2197 0.429688Q26.3965-1.16211 27.0459-3.06641Q27.6953-4.9707 27.6953-7.05078Q27.6953-9.14062 27.0459-11.04Q26.3965-12.9395 25.2197-14.5312Q24.043-16.123 22.4512-17.2998Q20.8594-18.4766 18.9551-19.126Q17.0508-19.7754 14.9609-19.7754Q12.8711-19.7754 10.9717-19.126Q9.07227-18.4766 7.48535-17.2998Q5.89844-16.123 4.72168-14.5312Q3.54492-12.9395 2.90039-11.04Q2.25586-9.14062 2.25586-7.05078Q2.25586-4.9707 2.90527-3.06641Q3.55469-1.16211 4.72656 0.429688Q5.89844 2.02148 7.49023 3.19336Q9.08203 4.36523 10.9814 5.01465Q12.8809 5.66406 14.9707 5.66406ZM14.9707 3.84766Q13.1641 3.84766 11.5283 3.2959Q9.89258 2.74414 8.53516 1.74805Q7.17773 0.751953 6.17676-0.610352Q5.17578-1.97266 4.62891-3.6084Q4.08203-5.24414 4.08203-7.05078Q4.08203-8.86719 4.62891-10.5029Q5.17578-12.1387 6.17188-13.501Q7.16797-14.8633 8.52539-15.8594Q9.88281-16.8555 11.5186-17.4023Q13.1543-17.9492 14.9609-17.9492Q16.7773-17.9492 18.4131-17.4023Q20.0488-16.8555 21.4111-15.8594Q22.7734-14.8633 23.7695-13.501Q24.7656-12.1387 25.3174-10.5029Q25.8691-8.86719 25.8691-7.05078Q25.8789-5.24414 25.332-3.6084Q24.7852-1.97266 23.7842-0.610352Q22.7832 0.751953 21.4209 1.74805Q20.0586 2.74414 18.4229 3.2959Q16.7871 3.84766 14.9707 3.84766ZM9.19922-7.05078Q9.19922-6.66992 9.45801-6.4209Q9.7168-6.17188 10.1172-6.17188L14.0625-6.17188L14.0625-2.2168Q14.0625-1.81641 14.3115-1.55762Q14.5605-1.29883 14.9512-1.29883Q15.3516-1.29883 15.6104-1.55273Q15.8691-1.80664 15.8691-2.2168L15.8691-6.17188L19.8242-6.17188Q20.2246-6.17188 20.4785-6.4209Q20.7324-6.66992 20.7324-7.05078Q20.7324-7.46094 20.4785-7.71484Q20.2246-7.96875 19.8242-7.96875L15.8691-7.96875L15.8691-11.9141Q15.8691-12.3242 15.6104-12.583Q15.3516-12.8418 14.9512-12.8418Q14.5605-12.8418 14.3115-12.583Q14.0625-12.3242 14.0625-11.9141L14.0625-7.96875L10.1172-7.96875Q9.70703-7.96875 9.45312-7.71484Q9.19922-7.46094 9.19922-7.05078Z"/>
  </g>
  <text style="stroke:none;fill:black;font-family:sans-serif;font-size:13;font-weight:bold;" transform="matrix(1 0 0 1 263 1953)">Design Variations</text>
  <text style="stroke:none;fill:black;font-family:sans-serif;font-size:13;" transform="matrix(1 0 0 1 263 1971)">Symbols are supported in up to nine weights and three scales.</text>
  <text style="stroke:none;fill:black;font-family:sans-serif;font-size:13;" transform="matrix(1 0 0 1 263 1989)">For optimal layout with text and other symbols, vertically align</text>
  <text style="stroke:none;fill:black;font-family:sans-serif;font-size:13;" transform="matrix(1 0 0 1 263 2007)">symbols with the adjacent text.</text>
  <line style="fill:none;stroke:#00AEEF;stroke-width:0.5;opacity:1.0;" x1="776" x2="776" y1="1919" y2="1933"/>
  <g transform="matrix(1 0 0 1 776 1933)">
   <path d="M3.31055 0.15625Q3.70117 0.15625 3.91602-0.00976562Q4.13086-0.175781 4.26758-0.585938L5.52734-4.0332L11.2891-4.0332L12.5488-0.585938Q12.6855-0.175781 12.9004-0.00976562Q13.1152 0.15625 13.4961 0.15625Q13.8867 0.15625 14.1162-0.0585938Q14.3457-0.273438 14.3457-0.644531Q14.3457-0.869141 14.2383-1.17188L9.6582-13.3691Q9.48242-13.8184 9.17969-14.043Q8.87695-14.2676 8.4082-14.2676Q7.5-14.2676 7.17773-13.3789L2.59766-1.16211Q2.49023-0.859375 2.49023-0.634766Q2.49023-0.263672 2.70996-0.0537109Q2.92969 0.15625 3.31055 0.15625ZM6.00586-5.51758L8.37891-12.0898L8.42773-12.0898L10.8008-5.51758Z"/>
  </g>
  <line style="fill:none;stroke:#00AEEF;stroke-width:0.5;opacity:1.0;" x1="793.197" x2="793.197" y1="1919" y2="1933"/>
  <text style="stroke:none;fill:black;font-family:sans-serif;font-size:13;font-weight:bold;" transform="matrix(1 0 0 1 776 1953)">Margins</text>
  <text style="stroke:none;fill:black;font-family:sans-serif;font-size:13;" transform="matrix(1 0 0 1 776 1971)">Leading and trailing margins on the left and right side of each symbol</text>
  <text style="stroke:none;fill:black;font-family:sans-serif;font-size:13;" transform="matrix(1 0 0 1 776 1989)">can be adjusted by modifying the x-location of the margin guidelines.</text>
  <text style="stroke:none;fill:black;font-family:sans-serif;font-size:13;" transform="matrix(1 0 0 1 776 2007)">Modifications are automatically applied proportionally to all</text>
  <text style="stroke:none;fill:black;font-family:sans-serif;font-size:13;" transform="matrix(1 0 0 1 776 2025)">scales and weights.</text>
  <g transform="matrix(1 0 0 1 1289 1933)">
   <path d="M2.8418 1.86523L4.54102 3.57422Q5.18555 4.22852 5.90332 4.17969Q6.62109 4.13086 7.31445 3.35938L18.0078-8.42773L17.041-9.4043L6.42578 2.27539Q6.16211 2.57812 5.89355 2.61719Q5.625 2.65625 5.27344 2.30469L4.10156 1.14258Q3.75 0.791016 3.79395 0.522461Q3.83789 0.253906 4.14062-0.0195312L15.6152-10.8203L14.6387-11.7871L3.04688-0.898438Q2.30469-0.214844 2.25098 0.498047Q2.19727 1.21094 2.8418 1.86523ZM9.25781-16.3281Q8.94531-16.0254 8.90625-15.6348Q8.86719-15.2441 9.04297-14.9512Q9.21875-14.6777 9.55566-14.541Q9.89258-14.4043 10.3809-14.5215Q11.4746-14.7754 12.5977-14.7314Q13.7207-14.6875 14.7949-13.9844L14.209-12.5293Q13.9551-11.9043 14.0674-11.4404Q14.1797-10.9766 14.5801-10.5664L16.875-8.25195Q17.2363-7.88086 17.5781-7.82227Q17.9199-7.76367 18.3398-7.8418L19.4043-8.03711L20.0684-7.36328L20.0293-6.80664Q20-6.43555 20.1221-6.12305Q20.2441-5.81055 20.6055-5.44922L21.3672-4.70703Q21.7285-4.3457 22.1533-4.33105Q22.5781-4.31641 22.9297-4.66797L25.8398-7.58789Q26.1914-7.93945 26.1816-8.35449Q26.1719-8.76953 25.8105-9.13086L25.0391-9.89258Q24.6875-10.2539 24.3799-10.3857Q24.0723-10.5176 23.7109-10.4883L23.1348-10.4395L22.4902-11.0742L22.7344-12.1973Q22.832-12.6172 22.6953-12.9834Q22.5586-13.3496 22.1191-13.7891L19.9219-15.9766Q18.6719-17.2168 17.2607-17.8369Q15.8496-18.457 14.4189-18.4814Q12.9883-18.5059 11.665-17.959Q10.3418-17.4121 9.25781-16.3281ZM10.752-15.957Q11.6602-16.6211 12.7002-16.9043Q13.7402-17.1875 14.8047-17.085Q15.8691-16.9824 16.8701-16.5137Q17.8711-16.0449 18.7012-15.2051L21.1328-12.793Q21.3086-12.6172 21.3525-12.4512Q21.3965-12.2852 21.3379-12.0312L21.0156-10.5469L22.5195-9.0625L23.5059-9.12109Q23.6914-9.13086 23.7891-9.09668Q23.8867-9.0625 24.0332-8.91602L24.6094-8.33984L22.168-5.89844L21.5918-6.47461Q21.4453-6.62109 21.4062-6.71875Q21.3672-6.81641 21.377-7.01172L21.4453-7.98828L19.9512-9.47266L18.4277-9.21875Q18.1836-9.16992 18.042-9.2041Q17.9004-9.23828 17.7148-9.41406L15.7129-11.416Q15.5176-11.5918 15.4932-11.7529Q15.4688-11.9141 15.5859-12.1875L16.4648-14.2773Q15.293-15.3711 13.8281-15.791Q12.3633-16.2109 10.8398-15.7617Q10.7227-15.7324 10.6885-15.8057Q10.6543-15.8789 10.752-15.957Z"/>
  </g>
  <text style="stroke:none;fill:black;font-family:sans-serif;font-size:13;font-weight:bold;" transform="matrix(1 0 0 1 1289 1953)">Exporting</text>
  <text style="stroke:none;fill:black;font-family:sans-serif;font-size:13;" transform="matrix(1 0 0 1 1289 1971)">Symbols should be outlined when exporting to ensure the</text>
  <text style="stroke:none;fill:black;font-family:sans-serif;font-size:13;" transform="matrix(1 0 0 1 1289 1989)">design is preserved when submitting to Xcode.</text>
  <text id="template-version" style="stroke:none;fill:black;font-family:sans-serif;font-size:13;text-anchor:end;" transform="matrix(1 0 0 1 3036 1933)">Template v.3.0</text>
  <text style="stroke:none;fill:black;font-family:sans-serif;font-size:13;text-anchor:end;" transform="matrix(1 0 0 1 3036 1951)">Requires Xcode 13 or greater</text>
  <text id="descriptive-name" style="stroke:none;fill:black;font-family:sans-serif;font-size:13;text-anchor:end;" transform="matrix(1 0 0 1 3036 1969)">Generated from message-circle</text>
  <text style="stroke:none;fill:black;font-family:sans-serif;font-size:13;text-anchor:end;" transform="matrix(1 0 0 1 3036 1987)">Typeset at 100 points</text>
  <text style="stroke:none;fill:black;font-family:sans-serif;font-size:13;" transform="matrix(1 0 0 1 263 726)">Small</text>
  <text style="stroke:none;fill:black;font-family:sans-serif;font-size:13;" transform="matrix(1 0 0 1 263 1156)">Medium</text>
  <text style="stroke:none;fill:black;font-family:sans-serif;font-size:13;" transform="matrix(1 0 0 1 263 1586)">Large</text>
 </g>
 <g id="Guides">
  <g id="H-reference" style="fill:#27AAE1;stroke:none;" transform="matrix(1 0 0 1 339 696)">
   <path d="M0.976562 0L3.66211 0L29.3457-67.1387L30.0293-67.1387L30.0293-70.459L28.125-70.459ZM11.6699-24.4629L46.9727-24.4629L46.2402-26.709L12.4512-26.709ZM55.127 0L57.7637 0L30.6152-70.459L29.4434-70.459L29.4434-67.1387Z"/>
  </g>
  <line id="Baseline-S" style="fill:none;stroke:#27AAE1;opacity:1;stroke-width:0.5;" x1="263" x2="3036" y1="696" y2="696"/>
  <line id="Capline-S" style="fill:none;stroke:#27AAE1;opacity:1;stroke-width:0.5;" x1="263" x2="3036" y1="625.541" y2="625.541"/>
  <g id="H-reference" style="fill:#27AAE1;stroke:none;" transform="matrix(1 0 0 1 339 1126)">
   <path d="M0.976562 0L3.66211 0L29.3457-67.1387L30.0293-67.1387L30.0293-70.459L28.125-70.459ZM11.6699-24.4629L46.9727-24.4629L46.2402-26.709L12.4512-26.709ZM55.127 0L57.7637 0L30.6152-70.459L29.4434-70.459L29.4434-67.1387Z"/>
  </g>
  <line id="Baseline-M" style="fill:none;stroke:#27AAE1;opacity:1;stroke-width:0.5;" x1="263" x2="3036" y1="1126" y2="1126"/>
  <line id="Capline-M" style="fill:none;stroke:#27AAE1;opacity:1;stroke-width:0.5;" x1="263" x2="3036" y1="1055.54" y2="1055.54"/>
  <g id="H-reference" style="fill:#27AAE1;stroke:none;" transform="matrix(1 0 0 1 339 1556)">
   <path d="M0.976562 0L3.66211 0L29.3457-67.1387L30.0293-67.1387L30.0293-70.459L28.125-70.459ZM11.6699-24.4629L46.9727-24.4629L46.2402-26.709L12.4512-26.709ZM55.127 0L57.7637 0L30.6152-70.459L29.4434-70.459L29.4434-67.1387Z"/>
  </g>
  <line id="Baseline-L" style="fill:none;stroke:#27AAE1;opacity:1;stroke-width:0.5;" x1="263" x2="3036" y1="1556" y2="1556"/>
  <line id="Capline-L" style="fill:none;stroke:#27AAE1;opacity:1;stroke-width:0.5;" x1="263" x2="3036" y1="1485.54" y2="1485.54"/>
  <line id="left-margin-Regular-M" style="fill:none;stroke:#00AEEF;stroke-width:0.5;opacity:1.0;" x1="1392.77" x2="1392.77" y1="1030.78" y2="1150.12"/>
  <line id="right-margin-Regular-M" style="fill:none;stroke:#00AEEF;stroke-width:0.5;opacity:1.0;" x1="1506.92" x2="1506.92" y1="1030.78" y2="1150.12"/>
 </g>
 <g id="Symbols">
  <g id="Black-L" transform="matrix(1 0 0 1 2861.7 1556)">
   <path d="M77.2498-93.5497L74.3998-93.5497C65.8098-93.5797 57.2898-91.5597 49.5898-87.6697C40.4098-83.0897 32.6598-76.0097 27.2498-67.2397C21.8298-58.4897 18.9598-48.3997 18.9598-38.0997L18.9598-37.3397C19.0398-30.2597 20.4998-23.2497 23.2498-16.7297L23.5498-16.0397L13.6298 13.6803L13.5698 13.9003C11.9198 19.3703 17.1398 24.4903 22.6198 22.6603L52.3398 12.7503L53.0298 13.0503C59.7798 15.8903 67.0598 17.3603 74.4198 17.3403C84.6898 17.3403 94.7898 14.4603 103.55 9.05033C112.31 3.63033 119.38-4.10967 123.98-13.3197C127.85-20.9997 129.87-29.5097 129.85-38.1197L129.85-40.9497C129.85-41.0797 129.85-41.2197 129.84-41.3497C129.08-54.9497 123.34-67.7997 113.71-77.4197C104.09-87.0397 91.2498-92.7797 77.6398-93.5397C77.5098-93.5497 77.3798-93.5497 77.2498-93.5497ZM74.3798-79.3497L77.0298-79.3497L76.8598-79.3597C86.9698-78.7997 96.5198-74.5297 103.67-67.3797L104.06-66.9797C110.86-59.9997 114.95-50.8397 115.63-41.1197L115.65-40.7397L115.65-38.0997C115.67-31.7097 114.17-25.3997 111.29-19.6897C107.86-12.8197 102.6-7.05967 96.0798-3.02967C89.5598 1.00033 82.0498 3.14033 74.3998 3.14033C67.9898 3.15033 61.6898 1.66033 55.9998-1.21967L55.7098-1.34967C54.0898-2.08967 52.2398-2.17967 50.5398-1.61967L31.5998 4.70033L37.9198-14.2497C38.5098-16.0397 38.3698-18.0097 37.5198-19.6997C34.6398-25.3897 33.1398-31.6897 33.1598-38.0797C33.1598-45.7497 35.2998-53.2597 39.3298-59.7797C43.3598-66.2997 49.1098-71.5597 55.9598-74.9797C61.6998-77.8697 68.0098-79.3697 74.3798-79.3497Z"/>
  </g>
  <g id="Heavy-L" transform="matrix(1 0 0 1 2565.83 1556)">
   <path d="M76.4025-92.6898L73.5525-92.6898C65.0825-92.7098 56.7125-90.7298 49.1325-86.8998C40.0825-82.3898 32.4625-75.4198 27.1225-66.7898C21.7825-58.1698 18.9625-48.2298 18.9625-38.0898L18.9625-37.3398C19.0425-30.1198 20.5825-22.9798 23.4825-16.3598L23.6125-16.0798L13.5925 13.9602L13.5225 14.1702C12.1025 18.9802 16.6825 23.4702 21.5025 21.8702L51.5325 11.8502L51.8225 11.9802C58.6725 14.9802 66.0725 16.5202 73.5725 16.5002C83.6825 16.5002 93.6225 13.6702 102.253 8.33015C110.863 3.00015 117.833-4.61985 122.373-13.6798C126.183-21.2298 128.163-29.6098 128.153-38.0998L128.153-40.9398C128.153-41.0598 128.153-41.1698 128.143-41.2898C127.393-54.6798 121.743-67.3298 112.263-76.7998C102.793-86.2798 90.1425-91.9398 76.7525-92.6798C76.6325-92.6898 76.5225-92.6898 76.4025-92.6898ZM73.5325-80.1898L76.2125-80.1898L76.0525-80.1998C86.3825-79.6298 96.1225-75.2698 103.423-67.9598L103.813-67.5598C110.753-60.4398 114.943-51.0798 115.623-41.1598L115.653-40.7398L115.653-38.0898C115.663-31.5498 114.133-25.1098 111.203-19.2998C107.693-12.2898 102.323-6.40985 95.6725-2.29985C89.0225 1.82015 81.3625 4.00015 73.5525 4.00015C67.0025 4.02015 60.5825 2.49015 54.7625-0.44985L54.5025-0.56985C53.0725-1.20985 51.4525-1.29985 49.9625-0.79985L29.4025 6.05015L36.2625-14.4998C36.7925-16.0898 36.6625-17.8098 35.9125-19.2998C32.9725-25.1098 31.4425-31.5498 31.4625-38.0698C31.4625-45.9098 33.6425-53.5698 37.7525-60.2098C41.8725-66.8698 47.7525-72.2398 54.7325-75.7298C60.5925-78.6798 67.0225-80.2098 73.5325-80.1898Z"/>
  </g>
  <g id="Bold-L" transform="matrix(1 0 0 1 2270.08 1556)">
   <path d="M75.4381-91.7398L72.5981-91.7398C64.2781-91.7598 56.0581-89.8098 48.5981-86.0498C39.7081-81.6098 32.2081-74.7598 26.9681-66.2898C21.7381-57.8298 18.9581-48.0698 18.9481-38.0998L18.9481-37.3398C19.0481-30.2698 20.5381-23.2998 23.3481-16.8298L23.6581-16.1298L13.5381 14.2602L13.4781 14.4602C12.2881 18.5302 16.1681 22.3202 20.2481 20.9702L50.6281 10.8302L50.6481 10.8402C57.5381 13.9602 65.0181 15.5702 72.6081 15.5502C82.5481 15.5502 92.3081 12.7702 100.798 7.53015C109.268 2.28015 116.108-5.20985 120.558-14.1098C124.308-21.5298 126.258-29.7598 126.238-38.1098L126.238-40.9398C126.238-41.0398 126.238-41.1398 126.228-41.2298C125.508-54.3798 119.948-66.8098 110.638-76.1298C101.318-85.4498 88.8981-90.9998 75.7281-91.7298C75.6381-91.7398 75.5381-91.7398 75.4381-91.7398ZM72.5881-81.1398L75.2881-81.1398L75.1481-81.1498C85.7081-80.5598 95.6681-76.1098 103.138-68.6298L103.548-68.2198C110.638-60.9398 114.918-51.3598 115.608-41.2298L115.638-40.7798L115.638-38.0898C115.658-31.3998 114.098-24.8198 111.088-18.8698C107.508-11.7098 102.018-5.68985 95.2181-1.48985C88.4081 2.72015 80.5781 4.95015 72.5981 4.95015C65.9081 4.97015 59.3281 3.41015 53.3781 0.400152L53.1381 0.290152C51.9381-0.249848 50.5681-0.319848 49.3081 0.100152L26.9481 7.56015L34.3981-14.8098C34.8381-16.1498 34.7381-17.6098 34.0981-18.8698C31.0981-24.8198 29.5381-31.4098 29.5481-38.0898C29.5581-46.0898 31.7881-53.9198 35.9881-60.7098C40.1881-67.5098 46.1981-73.0098 53.3581-76.5798C59.3381-79.5998 65.9181-81.1598 72.5881-81.1398Z"/>
  </g>
  <g id="Semibold-L" transform="matrix(1 0 0 1 1974.01 1556)">
   <path d="M74.7969-91.0898L71.9469-91.0898C63.7369-91.1098 55.5969-89.1798 48.2469-85.4698C39.4569-81.0798 32.0569-74.3198 26.8769-65.9398C21.7069-57.5698 18.9569-47.9298 18.9569-38.0898L18.9569-37.3398C19.0469-30.1198 20.6269-22.9798 23.6069-16.3998L23.7169-16.1598L13.5069 14.4702L13.4469 14.6602C12.4169 18.2202 15.8169 21.5402 19.3869 20.3502L50.0169 10.1402L50.2569 10.2502C57.0669 13.3302 64.4669 14.9202 71.9569 14.9002C81.7869 14.9002 91.4369 12.1502 99.8069 6.97015C108.177 1.80015 114.937-5.59985 119.337-14.3998C123.037-21.7398 124.967-29.8798 124.947-38.0998L124.947-40.9398C124.947-41.0298 124.947-41.1098 124.937-41.1998C124.217-54.1998 118.727-66.4798 109.527-75.6698C100.337-84.8698 88.0569-90.3598 75.0569-91.0798C74.9669-91.0898 74.8869-91.0898 74.7969-91.0898ZM71.9369-81.7898L74.6669-81.7898L74.5369-81.7998C85.2569-81.1998 95.3769-76.6798 102.947-69.0898L103.357-68.6798C110.567-61.2898 114.907-51.5698 115.617-41.2698L115.647-40.7898L115.647-38.0898C115.667-31.3198 114.077-24.6298 111.027-18.5698C107.397-11.2998 101.817-5.19985 94.9169-0.939846C88.0069 3.34015 80.0569 5.60015 71.9469 5.60015C65.1569 5.62015 58.4769 4.04015 52.4369 0.980154L52.2169 0.880154C51.1569 0.410154 49.9669 0.350154 48.8669 0.720154L25.2669 8.59015L33.1369-15.0098C33.5269-16.1898 33.4369-17.4698 32.8769-18.5798C29.8169-24.6198 28.2369-31.2998 28.2569-38.0798C28.2569-46.1998 30.5269-54.1498 34.7869-61.0498C39.0569-67.9598 45.1569-73.5398 52.4169-77.1598C58.4869-80.2198 65.1769-81.8098 71.9369-81.7898Z"/>
  </g>
  <g id="Medium-L" transform="matrix(1 0 0 1 1677.8 1556)">
   <path d="M74.2969-90.5898L71.4469-90.5898C63.3069-90.6098 55.2569-88.6998 47.9669-85.0298C39.2669-80.6798 31.9369-73.9798 26.8069-65.6798C21.6769-57.3898 18.9569-47.8298 18.9569-38.0898L18.9569-37.3498C19.0469-30.1898 20.6169-23.1198 23.5669-16.6098L23.7569-16.1898L13.4769 14.6302L13.4269 14.8002C12.5069 17.9802 15.5469 20.9402 18.7269 19.8802L49.5469 9.60016L49.9669 9.79016C56.7069 12.8502 64.0369 14.4202 71.4569 14.4002C81.1869 14.4002 90.7469 11.6802 99.0369 6.55016C107.337 1.42016 114.037-5.90984 118.387-14.6298C122.057-21.8998 123.967-29.9498 123.947-38.0998L123.947-40.9398C123.947-41.0198 123.947-41.0898 123.937-41.1698C123.227-54.0498 117.787-66.2098 108.667-75.3198C99.5669-84.4298 87.4069-89.8698 74.5269-90.5798C74.4469-90.5898 74.3769-90.5898 74.2969-90.5898ZM71.4369-82.2898L74.1769-82.2898L74.0669-82.2998C84.9069-81.6898 95.1369-77.1198 102.797-69.4498L103.207-69.0298C110.497-61.5498 114.897-51.7198 115.617-41.2898L115.647-40.8098L115.647-38.0898C115.667-31.2398 114.057-24.4698 110.967-18.3498C107.297-10.9998 101.657-4.82984 94.6769-0.509845C87.6869 3.81016 79.6469 6.10016 71.4469 6.10016C64.5769 6.12016 57.8169 4.52016 51.7069 1.43016L51.4969 1.33016C50.5569 0.920155 49.4969 0.870155 48.5269 1.19016L23.9769 9.38016L32.1669-15.1698C32.5169-16.2198 32.4269-17.3698 31.9269-18.3498C28.8369-24.4598 27.2369-31.2198 27.2569-38.0798C27.2569-46.2898 29.5469-54.3398 33.8669-61.3198C38.1869-68.2998 44.3569-73.9398 51.6869-77.6098C57.8269-80.6998 64.5969-82.3098 71.4369-82.2898Z"/>
  </g>
  <g id="Regular-L" transform="matrix(1 0 0 1 1381.74 1556)">
   <path d="M73.8357-89.9398L73.6457-89.9398L70.7957-89.9398C62.7557-89.9598 54.8057-88.0798 47.6057-84.4498C39.0157-80.1498 31.7657-73.5398 26.7057-65.3398C21.6457-57.1498 18.9557-47.7098 18.9557-38.0898L18.9557-37.3598C19.0457-30.2898 20.5957-23.3098 23.5057-16.8798L23.8057-16.2298L13.4457 14.8302L13.3957 15.0002C12.6357 17.6702 15.1957 20.1502 17.8757 19.2602L48.9357 8.90016L49.5857 9.20016C56.2357 12.2102 63.4757 13.7702 70.8057 13.7502C80.4157 13.7502 89.8557 11.0602 98.0457 6.00016C106.236 0.930158 112.856-6.30984 117.156-14.9198C120.786-22.0998 122.666-30.0598 122.646-38.0998L122.646-40.9398L122.636-41.1398C121.936-53.8498 116.566-65.8598 107.556-74.8598C98.5657-83.8598 86.5557-89.2298 73.8357-89.9398ZM70.7857-82.9398L73.5457-82.9398L73.4557-82.9498C84.4457-82.3298 94.8357-77.6898 102.606-69.9098L103.026-69.4898C110.426-61.8998 114.886-51.9198 115.616-41.3398L115.646-40.8298L115.646-38.0898C115.666-31.1398 114.036-24.2698 110.896-18.0598C107.176-10.5998 101.456-4.33984 94.3657 0.0401579C87.2757 4.42016 79.1157 6.75016 70.7957 6.75016C63.8257 6.77016 56.9657 5.14016 50.7657 2.01016L50.5557 1.91016C49.7757 1.57016 48.8857 1.54016 48.0757 1.81016L22.2957 10.4002L30.8957-15.3698C31.1957-16.2598 31.1157-17.2298 30.6957-18.0598C27.5657-24.2598 25.9357-31.1198 25.9557-38.0798C25.9557-46.4098 28.2757-54.5798 32.6657-61.6598C37.0457-68.7498 43.3057-74.4698 50.7457-78.1898C56.9757-81.3298 63.8457-82.9598 70.7857-82.9398Z"/>
  </g>
  <g id="Light-L" transform="matrix(1 0 0 1 1085.83 1556)">
   <path d="M72.997-89.1398L72.847-89.1398L69.997-89.1398C62.087-89.1598 54.257-87.3098 47.167-83.7298C38.707-79.4998 31.577-72.9898 26.587-64.9198C21.607-56.8598 18.957-47.5598 18.957-38.0898L18.957-37.3698C19.047-30.1698 20.677-23.0698 23.737-16.5598L23.867-16.2898L13.407 15.0902L13.357 15.2402C12.797 17.2902 14.757 19.1902 16.817 18.5002L48.197 8.04016L48.467 8.17016C55.187 11.3302 62.547 12.9702 70.007 12.9502C79.467 12.9502 88.767 10.3002 96.827 5.32016C104.897 0.33016 111.407-6.79984 115.647-15.2698C119.207-22.3498 121.067-30.1798 121.047-38.0998L121.047-40.9398L121.047-41.0898C120.347-53.6098 115.057-65.4398 106.197-74.2898C97.347-83.1498 85.517-88.4398 72.997-89.1398ZM69.987-83.7398L72.777-83.7398L72.697-83.7398C83.887-83.1198 94.467-78.3998 102.377-70.4698L102.787-70.0498C110.327-62.3298 114.877-52.1598 115.617-41.3798L115.647-40.8498L115.647-38.0898C115.667-31.0198 114.007-24.0198 110.817-17.6998C107.027-10.1098 101.207-3.72984 93.987 0.72016C86.777 5.18016 78.467 7.55016 69.997 7.55016C62.907 7.57016 55.917 5.91016 49.607 2.72016L49.407 2.63016C48.817 2.39016 48.147 2.36016 47.537 2.57016L20.237 11.6702L29.337-15.6298C29.567-16.3098 29.507-17.0598 29.187-17.6998C25.997-24.0098 24.337-30.9998 24.357-38.0798C24.357-46.5598 26.727-54.8698 31.187-62.0798C35.637-69.2998 42.017-75.1198 49.597-78.9098C55.927-82.0998 62.917-83.7598 69.987-83.7398Z"/>
  </g>
  <g id="Thin-L" transform="matrix(1 0 0 1 790.173 1556)">
   <path d="M71.8808-88.0898L71.7888-88.0898L68.9448-88.0898C61.1908-88.1098 53.5288-86.2898 46.5888-82.7898C38.2908-78.6498 31.3058-72.2698 26.4238-64.3698C21.5418-56.4798 18.9538-47.3798 18.9508-38.0898L18.9538-37.3598C19.0398-30.3398 20.6288-23.4098 23.6108-17.0398L23.9388-16.3598L13.3478 15.4202L13.3098 15.5502C12.9998 16.7902 14.1878 17.9202 15.4348 17.5102L47.2068 6.91016L47.8948 7.24016C54.4728 10.3302 61.6618 11.9202 68.9488 11.9002C78.2188 11.9002 87.3188 9.31016 95.2208 4.42016C103.118-0.459837 109.497-7.43984 113.646-15.7398C117.143-22.6698 118.959-30.3298 118.939-38.0898L118.939-40.9398C118.259-53.2898 113.082-64.8698 104.401-73.5498C95.7238-82.2298 84.1458-87.3998 71.8808-88.0898ZM68.9408-84.7898L71.7458-84.7898L71.6968-84.7898C83.1518-84.1498 93.9638-79.3198 102.068-71.2098C110.175-63.1098 115.009-52.2998 115.642-40.8498L115.639-38.0898C115.657-30.8398 113.963-23.6898 110.697-17.2198C106.819-9.45984 100.861-2.93984 93.4848 1.62016C86.1048 6.18016 77.6058 8.60016 68.9448 8.60016C61.6868 8.62016 54.5398 6.93016 48.0768 3.66016L47.9268 3.59016C47.5708 3.45016 47.1758 3.44016 46.8098 3.56016L17.5218 13.3302L27.2848-15.9598C27.4238-16.3798 27.3908-16.8298 27.1928-17.2198C23.9258-23.6898 22.2318-30.8398 22.2508-38.0898C22.2538-46.7598 24.6708-55.2598 29.2308-62.6298C33.7908-70.0098 40.3138-75.9698 48.0688-79.8398C54.5528-83.1098 61.7018-84.8098 68.9408-84.7898Z"/>
  </g>
  <g id="Ultralight-L" transform="matrix(1 0 0 1 494.012 1556)">
   <path d="M71.2991-87.5398L71.2381-87.5398L68.3941-87.5398C60.7251-87.5598 53.1491-85.7698 46.2851-82.3098C38.0771-78.2098 31.1691-71.8898 26.3411-64.0798C21.5131-56.2798 18.9531-47.2798 18.9501-38.0898L18.9531-37.3698C19.0401-30.1898 20.7191-23.0998 23.8671-16.6298L23.9821-16.3998L13.3181 15.5902L13.2881 15.7002C13.1001 16.5202 13.8861 17.2602 14.7101 16.9802L46.6981 6.31017L46.2841 6.11017C53.1341 9.57017 60.7101 11.3702 68.3971 11.3502C77.5661 11.3502 86.5651 8.78017 94.3801 3.95017C102.19-0.879834 108.499-7.77983 112.603-15.9898C116.062-22.8398 117.857-30.4198 117.838-38.0998L117.838-40.9398C117.166-53.1298 112.047-64.5798 103.461-73.1598C94.8801-81.7498 83.4291-86.8698 71.2991-87.5398ZM68.3911-85.3398L71.2081-85.3398L71.1771-85.3398C82.7671-84.6998 93.7071-79.8098 101.906-71.6098C110.108-63.4098 114.999-52.4698 115.64-40.8798L115.638-38.0898C115.656-30.7598 113.942-23.5198 110.637-16.9798C106.714-9.12983 100.686-2.52983 93.2231 2.08017C85.7561 6.70017 77.1571 9.15017 68.3941 9.15017C61.0511 9.17017 53.8181 7.45017 47.2771 4.15017L47.1631 4.10017C46.9291 4.01017 46.6721 4.00017 46.4331 4.08017L16.1011 14.2002L26.2121-16.1398C26.3051-16.4098 26.2831-16.7198 26.1511-16.9798C22.8451-23.5198 21.1301-30.7598 21.1501-38.0898C21.1531-46.8698 23.5991-55.4698 28.2121-62.9198C32.8261-70.3898 39.4261-76.4198 47.2721-80.3398C53.8311-83.6498 61.0661-85.3598 68.3911-85.3398Z"/>
  </g>
  <g id="Black-M" transform="matrix(1 0 0 1 2872.72 1126)">
   <path d="M65.0064-82.5196L62.7764-82.5196C55.7964-82.5496 48.8864-80.9096 42.6164-77.7496C35.1564-74.0196 28.8664-68.2696 24.4764-61.1596C20.0764-54.0596 17.7464-45.8696 17.7364-37.4996L17.7364-36.7996C17.8164-31.2096 18.9464-25.6796 21.0664-20.5196L21.2364-20.1196L13.6364 2.6504L13.5664 2.8704C11.9264 8.3404 17.1464 13.4604 22.6164 11.6304L45.3964 4.0404L45.6864 4.1604C51.0964 6.4004 56.9064 7.5504 62.7864 7.5404C71.1264 7.5404 79.3164 5.2104 86.4364 0.810404C93.5564-3.5996 99.2964-9.8896 103.036-17.3696C106.176-23.5696 107.816-30.4796 107.806-37.4996L107.806-39.7196C107.806-39.8496 107.806-39.9896 107.796-40.1196C107.176-51.1696 102.516-61.5996 94.6964-69.4196C86.8664-77.2496 76.4464-81.8996 65.3964-82.5096C65.2664-82.5196 65.1364-82.5196 65.0064-82.5196ZM62.7564-68.3196L64.7864-68.3196L64.6164-68.3296C72.1764-67.9196 79.3064-64.7296 84.6564-59.3796L85.0064-59.0196C90.0264-53.8296 93.0664-47.0496 93.5864-39.8296L93.6064-39.4896L93.6064-37.4896C93.6164-32.6896 92.4964-27.9896 90.3564-23.7496C87.7764-18.5896 83.8364-14.2796 78.9664-11.2696C74.0964-8.2596 68.4864-6.6596 62.7764-6.6596C57.9764-6.6496 53.2664-7.7696 49.0164-9.9196L48.7364-10.0496C47.1164-10.7896 45.2664-10.8796 43.5664-10.3196L31.5964-6.3296L35.5864-18.2996C36.1864-20.0896 36.0464-22.0496 35.1964-23.7396C33.0464-27.9996 31.9264-32.7096 31.9364-37.4796C31.9464-43.2196 33.5364-48.8296 36.5564-53.6896C39.5564-58.5696 43.8664-62.4996 48.9864-65.0596C53.2864-67.2196 57.9864-68.3396 62.7564-68.3196Z"/>
  </g>
  <g id="Heavy-M" transform="matrix(1 0 0 1 2576.86 1126)">
   <path d="M64.1525-81.6598L61.9225-81.6598C55.0725-81.6798 48.2925-80.0798 42.1525-76.9798C34.8225-73.3198 28.6525-67.6798 24.3425-60.6998C20.0325-53.7398 17.7425-45.6998 17.7325-37.4898L17.7325-36.7998C17.8125-31.3198 18.9225-25.9098 20.9925-20.8598L21.2825-20.1498L13.5925 2.93019L13.5225 3.15019C12.1025 7.95019 16.6825 12.4402 21.5025 10.8402L44.5825 3.15019L44.6225 3.17019C50.0825 5.51019 55.9725 6.71019 61.9325 6.70019C70.1125 6.70019 78.1525 4.41019 85.1325 0.100185C92.1225-4.22981 97.7525-10.3998 101.423-17.7298C104.513-23.8198 106.113-30.6098 106.103-37.4898L106.103-39.7098C106.103-39.8298 106.103-39.9398 106.093-40.0598C105.483-50.9098 100.913-61.1298 93.2425-68.8098C85.5625-76.4898 75.3325-81.0598 64.4925-81.6498C64.3825-81.6598 64.2625-81.6598 64.1525-81.6598ZM61.9025-69.1598L63.9625-69.1598L63.8125-69.1698C71.5725-68.7398 78.9025-65.4698 84.4025-59.9698L84.7625-59.5998C89.9225-54.2698 93.0425-47.2898 93.5825-39.8798L93.6025-39.4998L93.6025-37.4798C93.6125-32.5498 92.4625-27.7098 90.2525-23.3498C87.6125-18.0598 83.5625-13.6298 78.5625-10.5298C73.5525-7.43981 67.7925-5.79981 61.9225-5.79981C56.9925-5.78981 52.1525-6.93981 47.7825-9.14981L47.5225-9.26981C46.0925-9.90981 44.4725-9.99981 42.9825-9.49981L29.4025-4.96981L33.9325-18.5498C34.4625-20.1298 34.3325-21.8598 33.5825-23.3498C31.3725-27.7198 30.2225-32.5598 30.2325-37.4698C30.2425-43.3698 31.8825-49.1298 34.9725-54.1298C38.0625-59.1298 42.4925-63.1798 47.7525-65.8098C52.1625-68.0298 57.0025-69.1798 61.9025-69.1598Z"/>
  </g>
  <g id="Bold-M" transform="matrix(1 0 0 1 2281.1 1126)">
   <path d="M63.1981-80.7098L60.9681-80.7098C54.2681-80.7298 47.6381-79.1598 41.6281-76.1298C34.4581-72.5498 28.4181-67.0298 24.1981-60.2098C19.9781-53.3798 17.7381-45.5198 17.7381-37.4798L17.7381-36.8098C17.8081-31.2298 18.9881-25.7098 21.1781-20.5798L21.3481-20.1998L13.5381 3.23019L13.4781 3.43019C12.2881 7.50019 16.1681 11.3002 20.2481 9.94019L43.6681 2.13019L44.0481 2.29019C49.3781 4.58019 55.1381 5.76019 60.9781 5.75019C68.9881 5.75019 76.8481 3.51019 83.6881-0.709811C90.5181-4.93981 96.0281-10.9798 99.6181-18.1598C102.638-24.1198 104.208-30.7498 104.198-37.4898L104.198-39.7098C104.198-39.8098 104.198-39.9098 104.188-40.0098C103.598-50.6198 99.1281-60.6298 91.6181-68.1398C84.1081-75.6498 74.0981-80.1198 63.4881-80.6998C63.3881-80.7098 63.2981-80.7098 63.1981-80.7098ZM60.9481-70.1098L63.0381-70.1098L62.9081-70.1198C70.9081-69.6798 78.4581-66.3098 84.1181-60.6398L84.4881-60.2698C89.8081-54.7698 93.0281-47.5798 93.5781-39.9398L93.5981-39.5398L93.5981-37.4798C93.6081-32.3998 92.4281-27.4198 90.1481-22.9298C87.4281-17.4798 83.2581-12.9198 78.1081-9.72981C72.9481-6.53981 67.0181-4.84981 60.9681-4.84981C55.8881-4.83981 50.9081-6.01981 46.3981-8.29981L46.1581-8.40981C44.9581-8.94981 43.5881-9.01981 42.3281-8.59981L26.9481-3.46981L32.0781-18.8498C32.5181-20.1898 32.4181-21.6598 31.7781-22.9198C29.4981-27.4298 28.3181-32.4198 28.3381-37.4598C28.3381-43.5498 30.0281-49.4798 33.2181-54.6298C36.3981-59.7798 40.9581-63.9498 46.3781-66.6598C50.9181-68.9498 55.9081-70.1298 60.9481-70.1098Z"/>
  </g>
  <g id="Semibold-M" transform="matrix(1 0 0 1 1985.04 1126)">
   <path d="M62.5369-80.0598L60.3069-80.0598C53.7069-80.0798 47.1769-78.5398 41.2569-75.5598C34.1969-72.0298 28.2569-66.5998 24.0969-59.8698C19.9369-53.1298 17.7269-45.3898 17.7269-37.4798L17.7269-36.8198C17.8069-31.2998 18.9669-25.8698 21.1269-20.8198L21.3969-20.2298L13.5069 3.44019L13.4469 3.63019C12.4169 7.19019 15.8169 10.5102 19.3869 9.32019L43.0369 1.43019L43.6469 1.69019C48.8969 3.95019 54.5669 5.11019 60.3169 5.10019C68.2069 5.10019 75.9569 2.89019 82.6869-1.26981C89.4169-5.42981 94.8469-11.3798 98.3869-18.4498C101.357-24.3498 102.907-30.8798 102.887-37.4998L102.887-39.7098C102.887-39.7998 102.887-39.8798 102.877-39.9698C102.307-50.4098 97.8969-60.2698 90.5069-67.6798C83.1069-75.0798 73.2369-79.4798 62.7869-80.0598C62.7069-80.0598 62.6169-80.0598 62.5369-80.0598ZM60.2869-70.7598L62.3969-70.7598L62.2769-70.7698C70.4469-70.3198 78.1569-66.8798 83.9269-61.0998L84.2969-60.7298C89.7269-55.1198 93.0069-47.7698 93.5569-39.9798L93.5869-39.5698L93.5869-37.4798C93.6069-32.3198 92.3969-27.2298 90.0769-22.6298C87.3069-17.0798 83.0569-12.4298 77.7969-9.17981C72.5369-5.92981 66.4769-4.19981 60.3069-4.19981C55.1269-4.18981 50.0369-5.39981 45.4469-7.71981L45.2169-7.82981C44.1669-8.28981 42.9769-8.34981 41.8769-7.97981L25.2669-2.44981L30.8069-19.0598C31.1969-20.2398 31.1069-21.5298 30.5469-22.6298C28.2269-27.2198 27.0169-32.2998 27.0269-37.4698C27.0269-43.6598 28.7469-49.7098 32.0069-54.9798C35.2569-60.2398 39.9069-64.4798 45.4269-67.2398C50.0569-69.5798 55.1469-70.7798 60.2869-70.7598Z"/>
  </g>
  <g id="Medium-M" transform="matrix(1 0 0 1 1688.83 1126)">
   <path d="M62.0369-79.5598L59.8069-79.5598C53.2869-79.5798 46.8269-78.0598 40.9769-75.1098C34.0069-71.6198 28.1369-66.2598 24.0169-59.6098C19.9069-52.9498 17.7269-45.2898 17.7269-37.4798L17.7269-36.8098C17.8169-31.1698 19.0369-25.6098 21.3269-20.4798L21.4269-20.2598L13.4769 3.60019L13.4269 3.77019C12.5069 6.95019 15.5469 9.91019 18.7269 8.84019L42.5669 0.890195L42.8069 1.00019C48.1469 3.38019 53.9369 4.61019 59.8169 4.60019C67.6069 4.60019 75.2769 2.42019 81.9269-1.68981C88.5769-5.80981 93.9469-11.6898 97.4369-18.6798C100.377-24.4998 101.907-30.9598 101.887-37.4998L101.887-39.7098C101.887-39.7898 101.887-39.8598 101.877-39.9398C101.317-50.2598 96.9569-60.0098 89.6569-67.3198C82.3369-74.6398 72.5869-78.9898 62.2669-79.5598C62.1869-79.5598 62.1169-79.5598 62.0369-79.5598ZM59.7969-71.2598L61.9169-71.2598L61.8069-71.2698C70.0969-70.8098 77.9169-67.3198 83.7869-61.4598L84.1569-61.0798C89.6669-55.3798 93.0069-47.9198 93.5569-40.0098L93.5869-39.5798L93.5869-37.4798C93.6069-32.2398 92.3769-27.0798 90.0269-22.3998C87.2069-16.7798 82.8969-12.0598 77.5569-8.74981C72.2269-5.44981 66.0669-3.69981 59.8069-3.69981C54.5469-3.68981 49.3869-4.91981 44.7169-7.27981L44.5069-7.37981C43.5669-7.78981 42.5069-7.82981 41.5369-7.50981L23.9769-1.65981L29.8369-19.2198C30.1869-20.2698 30.0969-21.4198 29.5969-22.4098C27.2369-27.0598 26.0169-32.2298 26.0269-37.4798C26.0269-43.7498 27.7769-49.8998 31.0769-55.2398C34.3869-60.5798 39.0969-64.8898 44.7069-67.6898C49.3969-70.0598 54.5669-71.2798 59.7969-71.2598Z"/>
  </g>
  <g id="Regular-M" transform="matrix(1 0 0 1 1392.77 1126)">
   <path d="M61.5757-78.8998L61.3857-78.9098L59.1557-78.9098C52.7357-78.9298 46.3857-77.4298 40.6257-74.5298C33.7557-71.0898 27.9757-65.8098 23.9157-59.2598C19.8757-52.7098 17.7257-45.1698 17.7257-37.4798L17.7257-36.8098C17.8057-31.2598 19.0157-25.7898 21.2657-20.7498L21.4757-20.2898L13.4457 3.8002L13.3957 3.9702C12.6357 6.6402 15.1957 9.1202 17.8757 8.2302L41.9557 0.200197L42.4157 0.410197C47.6757 2.7502 53.3757 3.9602 59.1657 3.9502C66.8357 3.9502 74.3857 1.8002 80.9357-2.2398C87.4757-6.2998 92.7657-12.0798 96.2057-18.9598C99.1057-24.6998 100.606-31.0598 100.586-37.4898L100.586-39.7098L100.586-39.8998C100.026-50.0598 95.7357-59.6598 88.5457-66.8598C81.3457-74.0598 71.7457-78.3498 61.5757-78.8998ZM59.1457-71.9098L61.2857-71.9098L61.1957-71.9198C69.6357-71.4498 77.6157-67.8898 83.5957-61.9198L83.9657-61.5398C89.5957-55.7198 92.9957-48.1098 93.5557-40.0498L93.5857-39.5998L93.5857-37.4798C93.6057-32.1398 92.3557-26.8698 89.9557-22.1098C87.0857-16.3798 82.6957-11.5598 77.2557-8.1998C71.8157-4.8398 65.5357-3.0498 59.1557-3.0498C53.7957-3.0398 48.5357-4.2898 43.7757-6.6898L43.5657-6.7898C42.7857-7.1198 41.8957-7.1598 41.0857-6.8898L22.2957-0.629803L28.5657-19.4198C28.8657-20.3098 28.7857-21.2798 28.3657-22.1098C25.9657-26.8598 24.7157-32.1198 24.7257-37.4698C24.7257-43.8698 26.5057-50.1298 29.8757-55.5798C33.2457-61.0198 38.0457-65.4098 43.7657-68.2698C48.5457-70.6798 53.8157-71.9298 59.1457-71.9098Z"/>
  </g>
  <g id="Light-M" transform="matrix(1 0 0 1 1096.86 1126)">
   <path d="M60.737-78.1098L60.587-78.1098L58.357-78.1098C52.057-78.1298 45.827-76.6598 40.177-73.8098C33.447-70.4498 27.777-65.2698 23.797-58.8398C19.827-52.4198 17.727-45.0198 17.727-37.4798L17.727-36.8298C17.817-31.1698 19.087-25.5998 21.467-20.4798L21.537-20.3398L13.407 4.0502L13.357 4.2002C12.797 6.2602 14.757 8.1602 16.817 7.4702L41.207-0.659799L41.347-0.589799C46.667 1.8802 52.467 3.1602 58.357 3.1502C65.887 3.1502 73.297 1.0402 79.717-2.9298C86.137-6.8998 91.317-12.5798 94.687-19.3298C97.537-24.9498 99.007-31.1798 98.987-37.4898L98.987-39.7098L98.987-39.8598C98.437-49.8298 94.237-59.2298 87.177-66.2998C80.117-73.3598 70.707-77.5598 60.737-78.1098ZM58.347-72.7098L60.517-72.7098L60.437-72.7198C69.077-72.2398 77.237-68.5998 83.357-62.4798L83.737-62.0998C89.497-56.1498 92.977-48.3598 93.557-40.0998L93.587-39.6298L93.587-37.4798C93.607-32.0198 92.327-26.6298 89.867-21.7498C86.937-15.8898 82.437-10.9698 76.877-7.5198C71.307-4.0798 64.887-2.2498 58.357-2.2498C52.877-2.2398 47.487-3.5198 42.617-5.9798L42.417-6.0698C41.827-6.3198 41.157-6.3398 40.547-6.1298L20.237 0.640201L27.007-19.6798C27.237-20.3598 27.177-21.1098 26.857-21.7498C24.397-26.6098 23.117-31.9998 23.127-37.4798C23.127-44.0198 24.947-50.4298 28.397-55.9998C31.837-61.5698 36.757-66.0698 42.607-68.9898C47.497-71.4598 52.897-72.7298 58.347-72.7098Z"/>
  </g>
  <g id="Thin-M" transform="matrix(1 0 0 1 801.198 1126)">
   <path d="M59.6281-77.0598L59.5371-77.0598L57.3061-77.0598C51.1711-77.0798 45.1031-75.6498 39.6061-72.8798C33.0361-69.5898 27.5071-64.5398 23.6421-58.2898C19.7761-52.0398 17.7281-44.8398 17.7241-37.4798L17.7281-36.8498C17.8041-31.3398 19.0441-25.9098 21.3651-20.9298L21.6111-20.4098L13.3471 4.39021L13.3101 4.51021C12.9991 5.76021 14.1871 6.89021 15.4341 6.47021L40.2251-1.78979L40.7451-1.54979C45.9191 0.860207 51.5731 2.11021 57.3091 2.10021C64.6471 2.10021 71.8521 0.0502069 78.1101-3.81979C84.3621-7.68979 89.4121-13.2198 92.6971-19.7898C95.4661-25.2698 96.9031-31.3398 96.8881-37.4898L96.8881-39.7098C96.3501-49.5198 92.2551-58.6798 85.3781-65.5598C78.5071-72.4298 69.3381-76.5298 59.6281-77.0598ZM57.3011-73.7598L59.4941-73.7598L59.4471-73.7698C68.3461-73.2798 76.7481-69.5298 83.0441-63.2298C89.3471-56.9198 93.0991-48.5198 93.5901-39.6198L93.5881-37.4798C93.6021-31.8498 92.2861-26.2898 89.7491-21.2798C86.7341-15.2398 82.1041-10.1698 76.3741-6.62979C70.6381-3.07979 64.0341-1.19979 57.3061-1.19979C51.6611-1.18979 46.1081-2.50979 41.0931-5.03979L40.9431-5.10979C40.5871-5.24979 40.1921-5.25979 39.8271-5.13979L17.5201 2.30021L24.9571-20.0098C25.0961-20.4298 25.0621-20.8798 24.8641-21.2798C22.3261-26.2898 21.0101-31.8498 21.0241-37.4798C21.0271-44.2198 22.9051-50.8198 26.4491-56.5498C29.9911-62.2798 35.0591-66.9098 41.0861-69.9298C46.1251-72.4698 51.6801-73.7798 57.3011-73.7598Z"/>
  </g>
  <g id="Ultralight-M" transform="matrix(1 0 0 1 505.038 1126)">
   <path d="M59.0464-76.5098L58.9864-76.5098L56.7554-76.5098C50.7044-76.5298 44.7224-75.1198 39.3024-72.3798C32.8224-69.1398 27.3704-64.1598 23.5594-57.9998C19.7464-51.8298 17.7264-44.7298 17.7234-37.4798L17.7274-36.8298C17.8084-31.2098 19.1204-25.6698 21.5714-20.6198L21.6534-20.4498L13.3184 4.56021L13.2884 4.67021C13.0994 5.49021 13.8854 6.23021 14.7094 5.95021L39.7144-2.38979L39.3014-2.58979C44.7024 0.14021 50.6824 1.56021 56.7574 1.55021C63.9944 1.55021 71.0984-0.46979 77.2694-4.28979C83.4344-8.09979 88.4144-13.5598 91.6544-20.0398C94.3854-25.4398 95.8024-31.4198 95.7864-37.4798L95.7864-39.7098C95.2574-49.3498 91.2194-58.3898 84.4384-65.1698C77.6624-71.9498 68.6224-75.9798 59.0464-76.5098ZM56.7524-74.3098L58.9574-74.3098L58.9264-74.3098C67.9604-73.8198 76.4904-70.0098 82.8824-63.6098C89.2804-57.2098 93.0904-48.6898 93.5884-39.6498L93.5864-37.4798C93.6014-31.7598 92.2654-26.1198 89.6894-21.0298C86.6294-14.9098 81.9294-9.75979 76.1124-6.15979C70.2894-2.55979 63.5854-0.64979 56.7554-0.64979C51.0244-0.63979 45.3864-1.97979 40.2944-4.54979L40.1794-4.59979C39.9464-4.68979 39.6884-4.68979 39.4494-4.61979L16.1004 3.17021L23.8844-20.1798C23.9774-20.4598 23.9544-20.7698 23.8224-21.0298C21.2454-26.1198 19.9094-31.7598 19.9234-37.4798C19.9264-44.3198 21.8324-51.0198 25.4304-56.8398C29.0264-62.6598 34.1714-67.3598 40.2894-70.4198C45.4034-72.9998 51.0444-74.3298 56.7524-74.3098Z"/>
  </g>
  <g id="Black-S" transform="matrix(1 0 0 1 2881.38 696)">
   <path d="M55.3764-73.9479L53.6264-73.9479C47.9064-73.9629 42.2364-72.6219 37.1264-70.0339C31.0264-66.9869 25.8764-62.2819 22.2864-56.4639C18.6864-50.6529 16.7764-43.9439 16.7764-37.0979L16.7764-36.4859C16.8464-32.1999 17.6664-27.9579 19.1964-23.9609L19.4164-23.4139L13.6364-6.09288L13.5664-5.87488C11.9264-0.404876 17.1464 4.71312 22.6164 2.88712L39.9364-2.88588L40.4864-2.67088C44.6664-1.06188 49.1364-0.236876 53.6464-0.247876C60.4664-0.250876 67.1764-2.15888 72.9964-5.75588C78.8164-9.36088 83.5164-14.5089 86.5764-20.6239C89.1464-25.7209 90.4864-31.3779 90.4764-37.1139L90.4764-38.8479C90.4764-38.9779 90.4764-39.1079 90.4664-39.2369C89.9664-48.2789 86.1564-56.8199 79.7464-63.2229C73.3564-69.6219 64.8164-73.4379 55.7664-73.9379C55.6364-73.9449 55.5064-73.9479 55.3764-73.9479ZM53.6064-59.7479L55.1464-59.7479L54.9864-59.7589C60.5364-59.4519 65.7764-57.1099 69.7064-53.1829L70.0364-52.8419C73.6664-49.0629 75.8564-44.1479 76.2564-38.9339L76.2764-38.6129L76.2764-37.0979C76.2864-33.5799 75.4664-30.1239 73.8864-26.9959C71.9964-23.2139 69.1064-20.0469 65.5264-17.8309C61.9564-15.6229 57.8264-14.4499 53.6264-14.4479C50.1064-14.4389 46.6464-15.2569 43.5264-16.8339L43.2464-16.9699C41.6264-17.7029 39.7764-17.7999 38.0764-17.2339L31.5964-15.0739L33.7664-21.5529C34.3564-23.3479 34.2164-25.3069 33.3664-26.9959C31.7864-30.1239 30.9664-33.5799 30.9764-37.0829C30.9764-41.3019 32.1464-45.4219 34.3664-48.9959C36.5664-52.5739 39.7364-55.4649 43.4964-57.3479C46.6464-58.9389 50.1064-59.7569 53.6064-59.7479Z"/>
  </g>
  <g id="Heavy-S" transform="matrix(1 0 0 1 2585.52 696)">
   <path d="M54.5225-73.0959L52.7725-73.0959C47.1825-73.1099 41.6525-71.7999 36.6525-69.2729C30.6925-66.2949 25.6625-61.6979 22.1525-56.0149C18.6325-50.3369 16.7725-43.7829 16.7725-37.0959L16.7725-36.4749C16.8425-32.1329 17.7025-27.8389 19.3125-23.8099L19.4625-23.4439L13.5925-5.82189L13.5225-5.60989C12.1025-0.802889 16.6825 3.68911 21.5025 2.08411L39.1125-3.78989L39.3825-3.68089C43.6325-1.96489 48.1825-1.08389 52.7925-1.09589C59.4525-1.09789 66.0125-2.96189 71.7025-6.47589C77.3825-9.99789 81.9725-15.0279 84.9625-21.0009C87.4725-25.9819 88.7825-31.5079 88.7725-37.1089L88.7725-38.8459C88.7725-38.9599 88.7725-39.0739 88.7625-39.1879C88.2825-48.0209 84.5525-56.3639 78.2925-62.6189C72.0425-68.8699 63.7025-72.5979 54.8625-73.0859C54.7525-73.0929 54.6325-73.0959 54.5225-73.0959ZM52.7525-60.5959L54.3325-60.5959L54.1725-60.6049C59.9425-60.2869 65.3825-57.8569 69.4525-53.7809L69.7825-53.4379C73.5525-49.5119 75.8425-44.4019 76.2525-38.9819L76.2725-38.6429L76.2725-37.0959C76.2825-33.4459 75.4325-29.8579 73.7925-26.6109C71.8325-22.6909 68.8325-19.4039 65.1225-17.1059C61.4125-14.8149 57.1325-13.5969 52.7725-13.5959C49.1225-13.5859 45.5325-14.4359 42.2925-16.0729L42.0225-16.1999C40.6025-16.8379 38.9825-16.9209 37.4925-16.4249L29.4025-13.7289L32.1025-21.8189C32.6325-23.3989 32.5025-25.1239 31.7525-26.6109C30.1125-29.8579 29.2625-33.4459 29.2725-37.0819C29.2725-41.4579 30.4925-45.7319 32.7825-49.4409C35.0725-53.1529 38.3625-56.1519 42.2625-58.1059C45.5325-59.7559 49.1225-60.6049 52.7525-60.5959Z"/>
  </g>
  <g id="Bold-S" transform="matrix(1 0 0 1 2289.76 696)">
   <path d="M53.5681-71.9399L51.8181-71.9399C46.3881-71.9539 41.0081-70.6789 36.1281-68.2219C30.3281-65.3219 25.4381-60.8519 22.0081-55.3159C18.5881-49.7779 16.7781-43.4039 16.7681-36.8989L16.7681-36.2939C16.8381-31.8579 17.7581-27.4799 19.4681-23.3979L19.5281-23.2749L13.5381-5.31489L13.4781-5.11489C12.2881-1.04589 16.1681 2.74711 20.2481 1.38911L38.1981-4.59789L38.3281-4.54289C42.5981-2.74989 47.1881-1.82689 51.8281-1.83889C58.3281-1.84189 64.7081-3.65489 70.2481-7.07789C75.7881-10.5059 80.2681-15.4059 83.1581-21.2269C85.6181-26.0659 86.8881-31.4519 86.8681-36.9119L86.8681-38.6389C86.8681-38.7359 86.8681-38.8329 86.8581-38.9299C86.3881-47.5239 82.7581-55.6459 76.6781-61.7369C70.5781-67.8289 62.4581-71.4569 53.8581-71.9309C53.7581-71.9369 53.6681-71.9399 53.5681-71.9399ZM51.8081-61.3399L53.4081-61.3399L53.2781-61.3479C59.2681-61.0159 64.9281-58.4879 69.1781-54.2419L69.5181-53.8949C73.4381-49.8109 75.8181-44.4819 76.2481-38.8339L76.2681-38.4709L76.2681-36.8889C76.2881-33.0879 75.3981-29.3599 73.6881-25.9859C71.6581-21.8999 68.5381-18.4849 64.6681-16.0939C60.8081-13.7059 56.3581-12.4409 51.8181-12.4389C48.0281-12.4299 44.2881-13.3149 40.9081-15.0219L40.6481-15.1419C39.4481-15.6689 38.0881-15.7339 36.8381-15.3169L26.9481-12.0199L30.2481-21.9129C30.6881-23.2529 30.5881-24.7159 29.9481-25.9769C28.2481-29.3569 27.3581-33.0919 27.3681-36.8779C27.3781-41.4249 28.6381-45.8789 31.0281-49.7419C33.4181-53.6019 36.8281-56.7209 40.8881-58.7489C44.2881-60.4639 48.0281-61.3489 51.8081-61.3399Z"/>
  </g>
  <g id="Semibold-S" transform="matrix(1 0 0 1 1993.7 696)">
   <path d="M52.9169-71.2909L51.1669-71.2909C45.8269-71.3049 40.5369-70.0539 35.7669-67.6409C30.0669-64.7919 25.2569-60.3999 21.9069-54.9699C18.5469-49.5429 16.7669-43.2809 16.7669-36.8909L16.7669-36.2979C16.8369-31.9509 17.7369-27.6559 19.4169-23.6509L19.5669-23.3059L13.5069-5.11088L13.4469-4.92388C12.4169-1.35788 15.8169 1.96112 19.3869 0.770116L37.5769-5.29388L37.9269-5.14588C42.1069-3.38488 46.6169-2.47888 51.1769-2.49088C57.5569-2.49288 63.8169-4.27488 69.2469-7.63288C74.6869-10.9979 79.0769-15.8039 81.9269-21.5119C84.3269-26.2729 85.5769-31.5509 85.5669-36.9009L85.5669-38.6409C85.5669-38.7259 85.5669-38.8109 85.5569-38.8959C85.0969-47.3349 81.5369-55.3069 75.5569-61.2819C69.5869-67.2559 61.6169-70.8179 53.1769-71.2839C53.0869-71.2889 53.0069-71.2909 52.9169-71.2909ZM51.1569-61.9909L52.7769-61.9909L52.6569-61.9979C58.8169-61.6579 64.6269-59.0619 68.9769-54.7069L69.3169-54.3599C73.3669-50.1579 75.8069-44.6809 76.2469-38.8709L76.2669-38.4929L76.2669-36.8909C76.2769-32.9929 75.3669-29.1569 73.6169-25.6849C71.5269-21.5049 68.3169-17.9959 64.3569-15.5409C60.3969-13.0929 55.8269-11.7929 51.1669-11.7909C47.2669-11.7809 43.4269-12.6889 39.9669-14.4409L39.7369-14.5469C38.6869-15.0109 37.4969-15.0689 36.3969-14.7019L25.2669-10.9939L28.9769-22.1209C29.3669-23.2959 29.2769-24.5789 28.7169-25.6849C26.9669-29.1569 26.0569-32.9929 26.0669-36.8809C26.0669-41.5509 27.3669-46.1169 29.8169-50.0779C32.2669-54.0419 35.7769-57.2459 39.9469-59.3319C43.4269-61.0929 47.2669-62.0009 51.1569-61.9909Z"/>
  </g>
  <g id="Medium-S" transform="matrix(1 0 0 1 1697.49 696)">
   <path d="M52.4169-70.7909L50.6669-70.7909C45.4069-70.8049 40.1969-69.5719 35.4969-67.1949C29.8769-64.3859 25.1369-60.0579 21.8369-54.7069C18.5269-49.3589 16.7669-43.1879 16.7669-36.8909L16.7669-36.2839C16.8369-32.0479 17.7069-27.8619 19.3369-23.9539L19.6069-23.3279L13.4769-4.95288L13.4269-4.77688C12.5069-1.59788 15.5469 1.35812 18.7269 0.296118L37.0969-5.82788L37.1369-5.80988C41.3969-3.94188 46.0069-2.97888 50.6769-2.99088C56.9569-2.99288 63.1369-4.74888 68.4869-8.05788C73.8369-11.3739 78.1669-16.1109 80.9769-21.7349C83.3469-26.4279 84.5769-31.6289 84.5669-36.8999L84.5669-38.6409C84.5669-38.7169 84.5669-38.7929 84.5569-38.8679C84.1069-47.1849 80.5969-55.0399 74.6969-60.9289C68.8169-66.8149 60.9669-70.3249 52.6469-70.7849C52.5669-70.7889 52.4969-70.7909 52.4169-70.7909ZM50.6569-62.4909L52.2969-62.4909L52.1869-62.4969C58.4669-62.1509 64.3969-59.5019 68.8269-55.0599L69.1669-54.7149C73.3069-50.4259 75.8069-44.8299 76.2469-38.8959L76.2669-38.5069L76.2669-36.8909C76.2769-32.9159 75.3469-29.0019 73.5569-25.4599C71.4269-21.1989 68.1669-17.6199 64.1169-15.1159C60.0769-12.6189 55.4169-11.2929 50.6669-11.2909C46.6869-11.2809 42.7769-12.2079 39.2369-13.9949L39.0269-14.0949C38.0869-14.5039 37.0269-14.5529 36.0569-14.2279L23.9769-10.2029L28.0069-22.2789C28.3569-23.3279 28.2669-24.4729 27.7769-25.4599C25.9869-29.0019 25.0569-32.9159 25.0669-36.8819C25.0669-41.6439 26.3969-46.3009 28.8969-50.3419C31.3869-54.3839 34.9669-57.6519 39.2269-59.7789C42.7769-61.5739 46.6869-62.5009 50.6569-62.4909Z"/>
  </g>
  <g id="Regular-S" transform="matrix(1 0 0 1 1401.43 696)">
   <path d="M51.9557-70.1319L51.7657-70.1379L50.0157-70.1379C44.8557-70.1509 39.7457-68.9429 35.1357-66.6109C29.6257-63.8549 24.9757-59.6099 21.7357-54.3619C18.4857-49.1159 16.7657-43.0639 16.7657-36.8879L16.7657-36.2919C16.8357-31.9299 17.7757-27.6219 19.5257-23.6269L19.6457-23.3599L13.4457-4.7439L13.3957-4.5769C12.6357-1.9039 15.1957 0.576104 17.8757-0.316896L36.4857-6.5229L36.7557-6.4019C40.9257-4.5699 45.4457-3.6259 50.0257-3.6379C56.1857-3.6399 62.2457-5.3619 67.4957-8.6069C72.7457-11.8599 76.9857-16.5059 79.7457-22.0229C82.0657-26.6259 83.2757-31.7259 83.2657-36.8949L83.2657-38.6379L83.2657-38.8289C82.8157-46.9859 79.3657-54.6899 73.5857-60.4659C67.8257-66.2389 60.1157-69.6819 51.9557-70.1319ZM50.0057-63.1379L51.6657-63.1379L51.5757-63.1429C58.0157-62.7879 64.0857-60.0719 68.6357-55.5159L68.9757-55.1719C73.2257-50.7689 75.7957-45.0229 76.2357-38.9279L76.2657-38.5249L76.2657-36.8879C76.2757-32.8109 75.3257-28.7969 73.4957-25.1639C71.3057-20.7969 67.9557-17.1269 63.8157-14.5599C59.6657-11.9989 54.8857-10.6389 50.0157-10.6379C45.9357-10.6269 41.9257-11.5779 38.2957-13.4109L38.0857-13.5089C37.3057-13.8419 36.4257-13.8789 35.6057-13.6079L22.2957-9.1719L26.7357-22.4809C27.0357-23.3659 26.9657-24.3309 26.5457-25.1639C24.7057-28.7969 23.7557-32.8109 23.7657-36.8799C23.7657-41.7619 25.1257-46.5369 27.6957-50.6809C30.2457-54.8249 33.9157-58.1759 38.2857-60.3569C41.9257-62.1969 45.9357-63.1479 50.0057-63.1379Z"/>
  </g>
  <g id="Light-S" transform="matrix(1 0 0 1 1105.52 696)">
   <path d="M51.117-69.3369L50.967-69.3409L49.217-69.3409C44.177-69.3539 39.197-68.1749 34.697-65.8999C29.317-63.2089 24.777-59.0659 21.617-53.9449C18.447-48.8239 16.767-42.9179 16.767-36.8909L16.767-36.2869C16.837-32.0599 17.747-27.8879 19.437-24.0149L19.707-23.4069L13.407-4.49489L13.357-4.34389C12.797-2.28989 14.757-0.392894 16.817-1.07889L35.727-7.38289L35.747-7.37589C39.967-5.43189 44.567-4.42889 49.227-4.44089C55.237-4.44289 61.147-6.12289 66.277-9.29089C71.397-12.4649 75.537-16.9989 78.227-22.3839C80.497-26.8779 81.677-31.8529 81.667-36.8969L81.667-38.6409L81.667-38.7889C81.227-46.7479 77.867-54.2669 72.227-59.9029C66.597-65.5369 59.077-68.8969 51.117-69.3369ZM49.207-63.9409L50.897-63.9409L50.817-63.9449C57.457-63.5789 63.717-60.7799 68.407-56.0849L68.747-55.7379C73.127-51.1979 75.777-45.2669 76.237-38.9769L76.267-38.5559L76.267-36.8909C76.277-32.6909 75.297-28.5519 73.407-24.8069C71.157-20.3099 67.707-16.5279 63.437-13.8829C59.167-11.2439 54.237-9.84289 49.217-9.84089C45.017-9.82989 40.877-10.8099 37.137-12.6999L36.937-12.7899C36.347-13.0329 35.677-13.0569 35.067-12.8519L20.237-7.90989L25.177-22.7369C25.407-23.4199 25.347-24.1649 25.027-24.8069C23.137-28.5519 22.157-32.6909 22.167-36.8849C22.167-41.9139 23.567-46.8349 26.207-51.1049C28.847-55.3749 32.627-58.8279 37.127-61.0759C40.877-62.9709 45.017-63.9519 49.207-63.9409Z"/>
  </g>
  <g id="Thin-S" transform="matrix(1 0 0 1 809.861 696)">
   <path d="M50.0041-68.2879L49.9131-68.2899L48.1631-68.2899C43.2861-68.3029 38.4731-67.1629 34.1181-64.9629C28.9091-62.3589 24.5231-58.3519 21.4571-53.3939C18.3901-48.4359 16.7651-42.7209 16.7631-36.8909L16.7671-36.3059C16.8361-32.0189 17.7961-27.7939 19.5821-23.8999L19.7841-23.4719L13.3471-4.16189L13.3101-4.03289C12.9991-2.79189 14.1871-1.65889 15.4341-2.07489L34.7441-8.51189L35.1721-8.30989C39.2441-6.44189 43.6771-5.47789 48.1671-5.48989C53.9931-5.49189 59.7081-7.11689 64.6661-10.1839C69.6261-13.2509 73.6331-17.6379 76.2391-22.8519C78.4351-27.2009 79.5751-32.0139 79.5631-36.8939L79.5631-38.6399C79.1361-46.4309 75.8851-53.7049 70.4311-59.1589C64.9781-64.6119 57.7041-67.8619 50.0041-68.2879ZM48.1581-64.9899L49.8681-64.9899L49.8211-64.9929C56.7111-64.6119 63.2191-61.7039 68.0981-56.8249C72.9771-51.9459 75.8851-45.4379 76.2651-38.5489L76.2631-36.8899C76.2741-32.5249 75.2551-28.2249 73.2901-24.3339C70.9551-19.6609 67.3691-15.7359 62.9311-12.9899C58.4931-10.2459 53.3791-8.79189 48.1621-8.78989C43.7981-8.77889 39.4971-9.79689 35.6071-11.7629L35.4571-11.8289C35.1011-11.9669 34.7061-11.9769 34.3411-11.8549L17.5211-6.24889L23.1281-23.0679C23.2671-23.4859 23.2341-23.9409 23.0351-24.3339C21.0701-28.2249 20.0511-32.5249 20.0631-36.8859C20.0641-42.1069 21.5191-47.2209 24.2641-51.6579C27.0071-56.0949 30.9331-59.6809 35.6001-62.0139C39.4971-63.9829 43.7981-65.0009 48.1581-64.9899Z"/>
  </g>
  <g id="Ultralight-S" transform="matrix(1 0 0 1 513.7 696)">
   <path d="M49.4224-67.7379L49.3614-67.7389L47.6114-67.7389C42.8204-67.7519 38.0934-66.6319 33.8154-64.4709C28.6954-61.9119 24.3864-57.9749 21.3744-53.1039C18.3604-48.2319 16.7634-42.6179 16.7614-36.8899L16.7654-36.3149C16.8374-31.9119 17.8644-27.5759 19.7754-23.6089L19.8244-23.5079L13.3184-3.98689L13.2884-3.87989C13.0994-3.06089 13.8854-2.32089 14.7094-2.59589L34.2294-9.10289L33.8154-9.30689C38.0934-7.14689 42.8204-6.02689 47.6144-6.03889C53.3404-6.04089 58.9544-7.63789 63.8264-10.6509C68.6984-13.6649 72.6354-17.9749 75.1954-23.0979C77.3544-27.3699 78.4744-32.0979 78.4624-36.8919L78.4624-38.6389C78.0434-46.2649 74.8494-53.4109 69.4914-58.7689C64.1344-64.1259 56.9884-67.3199 49.4224-67.7379ZM47.6094-65.5389L49.3314-65.5389L49.3014-65.5409C56.3264-65.1529 62.9614-62.1879 67.9364-57.2129C72.9104-52.2389 75.8764-45.6029 76.2634-38.5789L76.2614-36.8889C76.2734-32.4389 75.2344-28.0529 73.2304-24.0849C70.8504-19.3229 67.1944-15.3209 62.6694-12.5219C58.1444-9.72389 52.9304-8.24089 47.6114-8.23889C43.1614-8.22789 38.7754-9.26589 34.8074-11.2709L34.6934-11.3209C34.4594-11.4069 34.2024-11.4119 33.9634-11.3329L16.0994-5.37789L22.0554-23.2409C22.1484-23.5199 22.1254-23.8229 21.9934-24.0849C19.9894-28.0529 18.9504-32.4389 18.9614-36.8859C18.9634-42.2089 20.4464-47.4219 23.2454-51.9469C26.0424-56.4709 30.0444-60.1259 34.8034-62.5049C38.7754-64.5119 43.1614-65.5509 47.6094-65.5389Z"/>
  </g>
 </g>
</svg>
