<?xml version="1.0" encoding="UTF-8"?>
<!--Generator: Apple Native CoreSVG 175-->
<!DOCTYPE svg
PUBLIC "-//W3C//DTD SVG 1.1//EN"
       "http://www.w3.org/Graphics/SVG/1.1/DTD/svg11.dtd">
<svg version="1.1" xmlns="http://www.w3.org/2000/svg" xmlns:xlink="http://www.w3.org/1999/xlink" width="3300" height="2200">
 <!--glyph: "", point size: 100.0, font version: "17.0d12e1", template writer version: "65.1"-->
 <g id="Notes">
  <rect height="2200" id="artboard" style="fill:white;opacity:1" width="3300" x="0" y="0"/>
  <line style="fill:none;stroke:black;opacity:1;stroke-width:0.5;" x1="263" x2="3036" y1="292" y2="292"/>
  <text style="stroke:none;fill:black;font-family:sans-serif;font-size:13;font-weight:bold;" transform="matrix(1 0 0 1 263 322)">Weight/Scale Variations</text>
  <text style="stroke:none;fill:black;font-family:sans-serif;font-size:13;text-anchor:middle;" transform="matrix(1 0 0 1 559.711 322)">Ultralight</text>
  <text style="stroke:none;fill:black;font-family:sans-serif;font-size:13;text-anchor:middle;" transform="matrix(1 0 0 1 856.422 322)">Thin</text>
  <text style="stroke:none;fill:black;font-family:sans-serif;font-size:13;text-anchor:middle;" transform="matrix(1 0 0 1 1153.13 322)">Light</text>
  <text style="stroke:none;fill:black;font-family:sans-serif;font-size:13;text-anchor:middle;" transform="matrix(1 0 0 1 1449.84 322)">Regular</text>
  <text style="stroke:none;fill:black;font-family:sans-serif;font-size:13;text-anchor:middle;" transform="matrix(1 0 0 1 1746.56 322)">Medium</text>
  <text style="stroke:none;fill:black;font-family:sans-serif;font-size:13;text-anchor:middle;" transform="matrix(1 0 0 1 2043.27 322)">Semibold</text>
  <text style="stroke:none;fill:black;font-family:sans-serif;font-size:13;text-anchor:middle;" transform="matrix(1 0 0 1 2339.98 322)">Bold</text>
  <text style="stroke:none;fill:black;font-family:sans-serif;font-size:13;text-anchor:middle;" transform="matrix(1 0 0 1 2636.69 322)">Heavy</text>
  <text style="stroke:none;fill:black;font-family:sans-serif;font-size:13;text-anchor:middle;" transform="matrix(1 0 0 1 2933.4 322)">Black</text>
  <line style="fill:none;stroke:black;opacity:1;stroke-width:0.5;" x1="263" x2="3036" y1="1903" y2="1903"/>
  <g transform="matrix(1 0 0 1 263 1933)">
   <path d="M9.24805 0.830078Q10.8691 0.830078 12.2949 0.214844Q13.7207-0.400391 14.8096-1.49414Q15.8984-2.58789 16.5186-4.01367Q17.1387-5.43945 17.1387-7.05078Q17.1387-8.66211 16.5186-10.0879Q15.8984-11.5137 14.8047-12.6074Q13.7109-13.7012 12.2852-14.3164Q10.8594-14.9316 9.23828-14.9316Q7.62695-14.9316 6.20117-14.3164Q4.77539-13.7012 3.69141-12.6074Q2.60742-11.5137 1.9873-10.0879Q1.36719-8.66211 1.36719-7.05078Q1.36719-5.43945 1.9873-4.01367Q2.60742-2.58789 3.69629-1.49414Q4.78516-0.400391 6.21094 0.214844Q7.63672 0.830078 9.24805 0.830078ZM9.24805-0.654297Q7.91992-0.654297 6.7627-1.14746Q5.60547-1.64062 4.73145-2.51953Q3.85742-3.39844 3.36426-4.56055Q2.87109-5.72266 2.87109-7.05078Q2.87109-8.37891 3.35938-9.54102Q3.84766-10.7031 4.72168-11.582Q5.5957-12.4609 6.75293-12.9541Q7.91016-13.4473 9.23828-13.4473Q10.5762-13.4473 11.7334-12.9541Q12.8906-12.4609 13.7695-11.582Q14.6484-10.7031 15.1465-9.54102Q15.6445-8.37891 15.6445-7.05078Q15.6445-5.72266 15.1514-4.56055Q14.6582-3.39844 13.7842-2.51953Q12.9102-1.64062 11.748-1.14746Q10.5859-0.654297 9.24805-0.654297ZM5.6543-7.05078Q5.6543-6.72852 5.85938-6.52832Q6.06445-6.32812 6.40625-6.32812L8.51562-6.32812L8.51562-4.20898Q8.51562-3.88672 8.71094-3.67676Q8.90625-3.4668 9.23828-3.4668Q9.56055-3.4668 9.77051-3.67676Q9.98047-3.88672 9.98047-4.20898L9.98047-6.32812L12.0898-6.32812Q12.4219-6.32812 12.627-6.52832Q12.832-6.72852 12.832-7.05078Q12.832-7.38281 12.627-7.58789Q12.4219-7.79297 12.0898-7.79297L9.98047-7.79297L9.98047-9.90234Q9.98047-10.2344 9.77051-10.4443Q9.56055-10.6543 9.23828-10.6543Q8.90625-10.6543 8.71094-10.4443Q8.51562-10.2344 8.51562-9.90234L8.51562-7.79297L6.40625-7.79297Q6.06445-7.79297 5.85938-7.58789Q5.6543-7.38281 5.6543-7.05078Z"/>
  </g>
  <g transform="matrix(1 0 0 1 281.867 1933)">
   <path d="M11.709 2.91016Q13.75 2.91016 15.5518 2.12891Q17.3535 1.34766 18.7305-0.0292969Q20.1074-1.40625 20.8887-3.20801Q21.6699-5.00977 21.6699-7.05078Q21.6699-9.0918 20.8887-10.8936Q20.1074-12.6953 18.7305-14.0723Q17.3535-15.4492 15.5469-16.2305Q13.7402-17.0117 11.6992-17.0117Q9.6582-17.0117 7.85645-16.2305Q6.05469-15.4492 4.68262-14.0723Q3.31055-12.6953 2.5293-10.8936Q1.74805-9.0918 1.74805-7.05078Q1.74805-5.00977 2.5293-3.20801Q3.31055-1.40625 4.6875-0.0292969Q6.06445 1.34766 7.86621 2.12891Q9.66797 2.91016 11.709 2.91016ZM11.709 1.25Q9.98047 1.25 8.47656 0.605469Q6.97266-0.0390625 5.83496-1.17676Q4.69727-2.31445 4.05762-3.81836Q3.41797-5.32227 3.41797-7.05078Q3.41797-8.7793 4.05762-10.2832Q4.69727-11.7871 5.83008-12.9297Q6.96289-14.0723 8.4668-14.7119Q9.9707-15.3516 11.6992-15.3516Q13.4277-15.3516 14.9316-14.7119Q16.4355-14.0723 17.5781-12.9297Q18.7207-11.7871 19.3652-10.2832Q20.0098-8.7793 20.0098-7.05078Q20.0098-5.32227 19.3701-3.81836Q18.7305-2.31445 17.5928-1.17676Q16.4551-0.0390625 14.9463 0.605469Q13.4375 1.25 11.709 1.25ZM7.17773-7.05078Q7.17773-6.69922 7.41211-6.47461Q7.64648-6.25 8.01758-6.25L10.8887-6.25L10.8887-3.36914Q10.8887-2.99805 11.1133-2.76855Q11.3379-2.53906 11.6895-2.53906Q12.0605-2.53906 12.29-2.76855Q12.5195-2.99805 12.5195-3.36914L12.5195-6.25L15.4004-6.25Q15.7715-6.25 16.001-6.47461Q16.2305-6.69922 16.2305-7.05078Q16.2305-7.42188 16.001-7.65137Q15.7715-7.88086 15.4004-7.88086L12.5195-7.88086L12.5195-10.752Q12.5195-11.1328 12.29-11.3623Q12.0605-11.5918 11.6895-11.5918Q11.3379-11.5918 11.1133-11.3574Q10.8887-11.123 10.8887-10.752L10.8887-7.88086L8.01758-7.88086Q7.63672-7.88086 7.40723-7.65137Q7.17773-7.42188 7.17773-7.05078Z"/>
  </g>
  <g transform="matrix(1 0 0 1 305.646 1933)">
   <path d="M14.9707 5.66406Q17.0605 5.66406 18.96 5.01465Q20.8594 4.36523 22.4512 3.19336Q24.043 2.02148 25.2197 0.429688Q26.3965-1.16211 27.0459-3.06641Q27.6953-4.9707 27.6953-7.05078Q27.6953-9.14062 27.0459-11.04Q26.3965-12.9395 25.2197-14.5312Q24.043-16.123 22.4512-17.2998Q20.8594-18.4766 18.9551-19.126Q17.0508-19.7754 14.9609-19.7754Q12.8711-19.7754 10.9717-19.126Q9.07227-18.4766 7.48535-17.2998Q5.89844-16.123 4.72168-14.5312Q3.54492-12.9395 2.90039-11.04Q2.25586-9.14062 2.25586-7.05078Q2.25586-4.9707 2.90527-3.06641Q3.55469-1.16211 4.72656 0.429688Q5.89844 2.02148 7.49023 3.19336Q9.08203 4.36523 10.9814 5.01465Q12.8809 5.66406 14.9707 5.66406ZM14.9707 3.84766Q13.1641 3.84766 11.5283 3.2959Q9.89258 2.74414 8.53516 1.74805Q7.17773 0.751953 6.17676-0.610352Q5.17578-1.97266 4.62891-3.6084Q4.08203-5.24414 4.08203-7.05078Q4.08203-8.86719 4.62891-10.5029Q5.17578-12.1387 6.17188-13.501Q7.16797-14.8633 8.52539-15.8594Q9.88281-16.8555 11.5186-17.4023Q13.1543-17.9492 14.9609-17.9492Q16.7773-17.9492 18.4131-17.4023Q20.0488-16.8555 21.4111-15.8594Q22.7734-14.8633 23.7695-13.501Q24.7656-12.1387 25.3174-10.5029Q25.8691-8.86719 25.8691-7.05078Q25.8789-5.24414 25.332-3.6084Q24.7852-1.97266 23.7842-0.610352Q22.7832 0.751953 21.4209 1.74805Q20.0586 2.74414 18.4229 3.2959Q16.7871 3.84766 14.9707 3.84766ZM9.19922-7.05078Q9.19922-6.66992 9.45801-6.4209Q9.7168-6.17188 10.1172-6.17188L14.0625-6.17188L14.0625-2.2168Q14.0625-1.81641 14.3115-1.55762Q14.5605-1.29883 14.9512-1.29883Q15.3516-1.29883 15.6104-1.55273Q15.8691-1.80664 15.8691-2.2168L15.8691-6.17188L19.8242-6.17188Q20.2246-6.17188 20.4785-6.4209Q20.7324-6.66992 20.7324-7.05078Q20.7324-7.46094 20.4785-7.71484Q20.2246-7.96875 19.8242-7.96875L15.8691-7.96875L15.8691-11.9141Q15.8691-12.3242 15.6104-12.583Q15.3516-12.8418 14.9512-12.8418Q14.5605-12.8418 14.3115-12.583Q14.0625-12.3242 14.0625-11.9141L14.0625-7.96875L10.1172-7.96875Q9.70703-7.96875 9.45312-7.71484Q9.19922-7.46094 9.19922-7.05078Z"/>
  </g>
  <text style="stroke:none;fill:black;font-family:sans-serif;font-size:13;font-weight:bold;" transform="matrix(1 0 0 1 263 1953)">Design Variations</text>
  <text style="stroke:none;fill:black;font-family:sans-serif;font-size:13;" transform="matrix(1 0 0 1 263 1971)">Symbols are supported in up to nine weights and three scales.</text>
  <text style="stroke:none;fill:black;font-family:sans-serif;font-size:13;" transform="matrix(1 0 0 1 263 1989)">For optimal layout with text and other symbols, vertically align</text>
  <text style="stroke:none;fill:black;font-family:sans-serif;font-size:13;" transform="matrix(1 0 0 1 263 2007)">symbols with the adjacent text.</text>
  <line style="fill:none;stroke:#00AEEF;stroke-width:0.5;opacity:1.0;" x1="776" x2="776" y1="1919" y2="1933"/>
  <g transform="matrix(1 0 0 1 776 1933)">
   <path d="M3.31055 0.15625Q3.70117 0.15625 3.91602-0.00976562Q4.13086-0.175781 4.26758-0.585938L5.52734-4.0332L11.2891-4.0332L12.5488-0.585938Q12.6855-0.175781 12.9004-0.00976562Q13.1152 0.15625 13.4961 0.15625Q13.8867 0.15625 14.1162-0.0585938Q14.3457-0.273438 14.3457-0.644531Q14.3457-0.869141 14.2383-1.17188L9.6582-13.3691Q9.48242-13.8184 9.17969-14.043Q8.87695-14.2676 8.4082-14.2676Q7.5-14.2676 7.17773-13.3789L2.59766-1.16211Q2.49023-0.859375 2.49023-0.634766Q2.49023-0.263672 2.70996-0.0537109Q2.92969 0.15625 3.31055 0.15625ZM6.00586-5.51758L8.37891-12.0898L8.42773-12.0898L10.8008-5.51758Z"/>
  </g>
  <line style="fill:none;stroke:#00AEEF;stroke-width:0.5;opacity:1.0;" x1="793.197" x2="793.197" y1="1919" y2="1933"/>
  <text style="stroke:none;fill:black;font-family:sans-serif;font-size:13;font-weight:bold;" transform="matrix(1 0 0 1 776 1953)">Margins</text>
  <text style="stroke:none;fill:black;font-family:sans-serif;font-size:13;" transform="matrix(1 0 0 1 776 1971)">Leading and trailing margins on the left and right side of each symbol</text>
  <text style="stroke:none;fill:black;font-family:sans-serif;font-size:13;" transform="matrix(1 0 0 1 776 1989)">can be adjusted by modifying the x-location of the margin guidelines.</text>
  <text style="stroke:none;fill:black;font-family:sans-serif;font-size:13;" transform="matrix(1 0 0 1 776 2007)">Modifications are automatically applied proportionally to all</text>
  <text style="stroke:none;fill:black;font-family:sans-serif;font-size:13;" transform="matrix(1 0 0 1 776 2025)">scales and weights.</text>
  <g transform="matrix(1 0 0 1 1289 1933)">
   <path d="M2.8418 1.86523L4.54102 3.57422Q5.18555 4.22852 5.90332 4.17969Q6.62109 4.13086 7.31445 3.35938L18.0078-8.42773L17.041-9.4043L6.42578 2.27539Q6.16211 2.57812 5.89355 2.61719Q5.625 2.65625 5.27344 2.30469L4.10156 1.14258Q3.75 0.791016 3.79395 0.522461Q3.83789 0.253906 4.14062-0.0195312L15.6152-10.8203L14.6387-11.7871L3.04688-0.898438Q2.30469-0.214844 2.25098 0.498047Q2.19727 1.21094 2.8418 1.86523ZM9.25781-16.3281Q8.94531-16.0254 8.90625-15.6348Q8.86719-15.2441 9.04297-14.9512Q9.21875-14.6777 9.55566-14.541Q9.89258-14.4043 10.3809-14.5215Q11.4746-14.7754 12.5977-14.7314Q13.7207-14.6875 14.7949-13.9844L14.209-12.5293Q13.9551-11.9043 14.0674-11.4404Q14.1797-10.9766 14.5801-10.5664L16.875-8.25195Q17.2363-7.88086 17.5781-7.82227Q17.9199-7.76367 18.3398-7.8418L19.4043-8.03711L20.0684-7.36328L20.0293-6.80664Q20-6.43555 20.1221-6.12305Q20.2441-5.81055 20.6055-5.44922L21.3672-4.70703Q21.7285-4.3457 22.1533-4.33105Q22.5781-4.31641 22.9297-4.66797L25.8398-7.58789Q26.1914-7.93945 26.1816-8.35449Q26.1719-8.76953 25.8105-9.13086L25.0391-9.89258Q24.6875-10.2539 24.3799-10.3857Q24.0723-10.5176 23.7109-10.4883L23.1348-10.4395L22.4902-11.0742L22.7344-12.1973Q22.832-12.6172 22.6953-12.9834Q22.5586-13.3496 22.1191-13.7891L19.9219-15.9766Q18.6719-17.2168 17.2607-17.8369Q15.8496-18.457 14.4189-18.4814Q12.9883-18.5059 11.665-17.959Q10.3418-17.4121 9.25781-16.3281ZM10.752-15.957Q11.6602-16.6211 12.7002-16.9043Q13.7402-17.1875 14.8047-17.085Q15.8691-16.9824 16.8701-16.5137Q17.8711-16.0449 18.7012-15.2051L21.1328-12.793Q21.3086-12.6172 21.3525-12.4512Q21.3965-12.2852 21.3379-12.0312L21.0156-10.5469L22.5195-9.0625L23.5059-9.12109Q23.6914-9.13086 23.7891-9.09668Q23.8867-9.0625 24.0332-8.91602L24.6094-8.33984L22.168-5.89844L21.5918-6.47461Q21.4453-6.62109 21.4062-6.71875Q21.3672-6.81641 21.377-7.01172L21.4453-7.98828L19.9512-9.47266L18.4277-9.21875Q18.1836-9.16992 18.042-9.2041Q17.9004-9.23828 17.7148-9.41406L15.7129-11.416Q15.5176-11.5918 15.4932-11.7529Q15.4688-11.9141 15.5859-12.1875L16.4648-14.2773Q15.293-15.3711 13.8281-15.791Q12.3633-16.2109 10.8398-15.7617Q10.7227-15.7324 10.6885-15.8057Q10.6543-15.8789 10.752-15.957Z"/>
  </g>
  <text style="stroke:none;fill:black;font-family:sans-serif;font-size:13;font-weight:bold;" transform="matrix(1 0 0 1 1289 1953)">Exporting</text>
  <text style="stroke:none;fill:black;font-family:sans-serif;font-size:13;" transform="matrix(1 0 0 1 1289 1971)">Symbols should be outlined when exporting to ensure the</text>
  <text style="stroke:none;fill:black;font-family:sans-serif;font-size:13;" transform="matrix(1 0 0 1 1289 1989)">design is preserved when submitting to Xcode.</text>
  <text id="template-version" style="stroke:none;fill:black;font-family:sans-serif;font-size:13;text-anchor:end;" transform="matrix(1 0 0 1 3036 1933)">Template v.3.0</text>
  <text style="stroke:none;fill:black;font-family:sans-serif;font-size:13;text-anchor:end;" transform="matrix(1 0 0 1 3036 1951)">Requires Xcode 13 or greater</text>
  <text id="descriptive-name" style="stroke:none;fill:black;font-family:sans-serif;font-size:13;text-anchor:end;" transform="matrix(1 0 0 1 3036 1969)">Generated from corner-left-down</text>
  <text style="stroke:none;fill:black;font-family:sans-serif;font-size:13;text-anchor:end;" transform="matrix(1 0 0 1 3036 1987)">Typeset at 100 points</text>
  <text style="stroke:none;fill:black;font-family:sans-serif;font-size:13;" transform="matrix(1 0 0 1 263 726)">Small</text>
  <text style="stroke:none;fill:black;font-family:sans-serif;font-size:13;" transform="matrix(1 0 0 1 263 1156)">Medium</text>
  <text style="stroke:none;fill:black;font-family:sans-serif;font-size:13;" transform="matrix(1 0 0 1 263 1586)">Large</text>
 </g>
 <g id="Guides">
  <g id="H-reference" style="fill:#27AAE1;stroke:none;" transform="matrix(1 0 0 1 339 696)">
   <path d="M0.976562 0L3.66211 0L29.3457-67.1387L30.0293-67.1387L30.0293-70.459L28.125-70.459ZM11.6699-24.4629L46.9727-24.4629L46.2402-26.709L12.4512-26.709ZM55.127 0L57.7637 0L30.6152-70.459L29.4434-70.459L29.4434-67.1387Z"/>
  </g>
  <line id="Baseline-S" style="fill:none;stroke:#27AAE1;opacity:1;stroke-width:0.5;" x1="263" x2="3036" y1="696" y2="696"/>
  <line id="Capline-S" style="fill:none;stroke:#27AAE1;opacity:1;stroke-width:0.5;" x1="263" x2="3036" y1="625.541" y2="625.541"/>
  <g id="H-reference" style="fill:#27AAE1;stroke:none;" transform="matrix(1 0 0 1 339 1126)">
   <path d="M0.976562 0L3.66211 0L29.3457-67.1387L30.0293-67.1387L30.0293-70.459L28.125-70.459ZM11.6699-24.4629L46.9727-24.4629L46.2402-26.709L12.4512-26.709ZM55.127 0L57.7637 0L30.6152-70.459L29.4434-70.459L29.4434-67.1387Z"/>
  </g>
  <line id="Baseline-M" style="fill:none;stroke:#27AAE1;opacity:1;stroke-width:0.5;" x1="263" x2="3036" y1="1126" y2="1126"/>
  <line id="Capline-M" style="fill:none;stroke:#27AAE1;opacity:1;stroke-width:0.5;" x1="263" x2="3036" y1="1055.54" y2="1055.54"/>
  <g id="H-reference" style="fill:#27AAE1;stroke:none;" transform="matrix(1 0 0 1 339 1556)">
   <path d="M0.976562 0L3.66211 0L29.3457-67.1387L30.0293-67.1387L30.0293-70.459L28.125-70.459ZM11.6699-24.4629L46.9727-24.4629L46.2402-26.709L12.4512-26.709ZM55.127 0L57.7637 0L30.6152-70.459L29.4434-70.459L29.4434-67.1387Z"/>
  </g>
  <line id="Baseline-L" style="fill:none;stroke:#27AAE1;opacity:1;stroke-width:0.5;" x1="263" x2="3036" y1="1556" y2="1556"/>
  <line id="Capline-L" style="fill:none;stroke:#27AAE1;opacity:1;stroke-width:0.5;" x1="263" x2="3036" y1="1485.54" y2="1485.54"/>
  <line id="left-margin-Regular-M" style="fill:none;stroke:#00AEEF;stroke-width:0.5;opacity:1.0;" x1="1392.79" x2="1392.79" y1="1030.78" y2="1150.12"/>
  <line id="right-margin-Regular-M" style="fill:none;stroke:#00AEEF;stroke-width:0.5;opacity:1.0;" x1="1506.9" x2="1506.9" y1="1030.78" y2="1150.12"/>
 </g>
 <g id="Symbols">
  <g id="Black-L" transform="matrix(1 0 0 1 2862.95 1556)">
   <path d="M19.745-23.19C22.515-25.96 27.015-25.96 29.785-23.19L53.205 0.23L76.625-23.19C79.395-25.96 83.885-25.96 86.665-23.19C89.435-20.42 89.435-15.92 86.665-13.15L58.225 15.29C55.455 18.06 50.955 18.06 48.185 15.29L19.745-13.15C16.975-15.92 16.975-20.42 19.745-23.19ZM54.845-79.09C60.445-84.69 68.035-87.83 75.955-87.83L115.764-87.83C119.685-87.83 122.864-84.65 122.864-80.73C122.864-76.81 119.685-73.63 115.764-73.63L75.955-73.63C71.805-73.63 67.825-71.98 64.885-69.05C61.955-66.11 60.305-62.13 60.305-57.98L60.305 10.27C60.305 14.19 57.125 17.37 53.205 17.37C49.285 17.37 46.105 14.19 46.105 10.27L46.105-57.98C46.105-65.9 49.245-73.49 54.845-79.09Z"/>
  </g>
  <g id="Heavy-L" transform="matrix(1 0 0 1 2567.08 1556)">
   <path d="M19.4975-22.59C21.9375-25.03 25.8975-25.03 28.3375-22.59L52.3475 1.43L76.3675-22.59C78.8075-25.03 82.7675-25.03 85.2075-22.59C87.6475-20.15 87.6475-16.19 85.2075-13.75L56.7675 14.69C54.3275 17.13 50.3775 17.13 47.9375 14.69L19.4975-13.75C17.0575-16.19 17.0575-20.15 19.4975-22.59ZM54.5975-78.49C60.0375-83.93 67.4075-86.98 75.1075-86.98L114.918-86.98C118.367-86.98 121.168-84.18 121.168-80.73C121.168-77.28 118.367-74.48 114.918-74.48L75.1075-74.48C70.7275-74.48 66.5275-72.74 63.4375-69.65C60.3375-66.55 58.6075-62.36 58.6075-57.98L58.6075 10.27C58.6075 13.72 55.8075 16.52 52.3475 16.52C48.8975 16.52 46.1075 13.72 46.1075 10.27L46.1075-57.98C46.1075-65.67 49.1575-73.05 54.5975-78.49Z"/>
  </g>
  <g id="Bold-L" transform="matrix(1 0 0 1 2271.33 1556)">
   <path d="M19.22-21.92C21.29-23.99 24.64-23.99 26.71-21.92L51.4 2.77L76.09-21.92C78.16-23.99 81.52-23.99 83.59-21.92C85.66-19.85 85.66-16.49 83.59-14.42L55.15 14.02C53.08 16.09 49.72 16.09 47.65 14.02L19.22-14.42C17.15-16.49 17.15-19.85 19.22-21.92ZM54.32-77.82C59.58-83.08 66.71-86.03 74.15-86.03L113.96-86.03C116.891-86.03 119.261-83.66 119.261-80.73C119.261-77.8 116.891-75.43 113.96-75.43L74.15-75.43C69.52-75.43 65.08-73.59 61.81-70.32C58.54-67.05 56.7-62.61 56.7-57.98L56.7 10.27C56.7 13.2 54.33 15.57 51.4 15.57C48.47 15.57 46.1 13.2 46.1 10.27L46.1-57.98C46.1-65.42 49.06-72.56 54.32-77.82Z"/>
  </g>
  <g id="Semibold-L" transform="matrix(1 0 0 1 1975.26 1556)">
   <path d="M19.025-21.45C20.845-23.27 23.785-23.27 25.605-21.45L50.755 3.7L75.905-21.45C77.715-23.27 80.665-23.27 82.475-21.45C84.295-19.64 84.295-16.69 82.475-14.88L54.045 13.56C52.225 15.38 49.285 15.38 47.465 13.56L19.025-14.88C17.215-16.69 17.215-19.64 19.025-21.45ZM54.125-77.35C59.265-82.49 66.235-85.38 73.505-85.38L113.315-85.38C115.885-85.38 117.966-83.3 117.966-80.73C117.966-78.16 115.885-76.08 113.315-76.08L73.505-76.08C68.705-76.08 64.095-74.17 60.705-70.78C57.305-67.38 55.405-62.78 55.405-57.98L55.405 10.27C55.405 12.84 53.325 14.92 50.755 14.92C48.185 14.92 46.105 12.84 46.105 10.27L46.105-57.98C46.105-65.25 48.985-72.22 54.125-77.35Z"/>
  </g>
  <g id="Medium-L" transform="matrix(1 0 0 1 1679.05 1556)">
   <path d="M18.89-21.1C20.51-22.72 23.13-22.72 24.75-21.1L50.26 4.4L75.76-21.1C77.38-22.72 80.01-22.72 81.63-21.1C83.25-19.48 83.25-16.85 81.63-15.23L53.19 13.21C51.57 14.83 48.94 14.83 47.32 13.21L18.89-15.23C17.26-16.85 17.26-19.48 18.89-21.1ZM53.99-77C59.03-82.04 65.87-84.88 73.01-84.88L112.82-84.88C115.11-84.88 116.971-83.02 116.971-80.73C116.971-78.44 115.11-76.58 112.82-76.58L73.01-76.58C68.07-76.58 63.34-74.62 59.85-71.13C56.37-67.64 54.41-62.91 54.41-57.98L54.41 10.27C54.41 12.56 52.55 14.42 50.26 14.42C47.97 14.42 46.11 12.56 46.11 10.27L46.11-57.98C46.11-65.11 48.94-71.96 53.99-77Z"/>
  </g>
  <g id="Regular-L" transform="matrix(1 0 0 1 1382.99 1556)">
   <path d="M18.695-20.64C20.055-22.01 22.275-22.01 23.635-20.64L49.605 5.32L75.565-20.64C76.935-22.01 79.145-22.01 80.515-20.64C81.885-19.28 81.885-17.06 80.515-15.69L52.075 12.74C50.715 14.11 48.495 14.11 47.125 12.74L18.695-15.69C17.325-17.06 17.325-19.28 18.695-20.64ZM53.795-76.54C58.715-81.46 65.395-84.23 72.355-84.23L112.165-84.23C114.096-84.23 115.665-82.66 115.665-80.73C115.665-78.8 114.096-77.23 112.165-77.23L72.355-77.23C67.245-77.23 62.355-75.2 58.745-71.59C55.135-67.98 53.105-63.09 53.105-57.98L53.105 10.27C53.105 12.2 51.535 13.77 49.605 13.77C47.665 13.77 46.105 12.2 46.105 10.27L46.105-57.98C46.105-64.94 48.865-71.62 53.795-76.54Z"/>
  </g>
  <g id="Light-L" transform="matrix(1 0 0 1 1087.08 1556)">
   <path d="M18.455-20.08C19.515-21.13 21.225-21.13 22.275-20.08L48.805 6.45L75.335-20.08C76.385-21.13 78.095-21.13 79.145-20.08C80.205-19.02 80.205-17.31 79.145-16.26L50.715 12.18C49.655 13.23 47.945 13.23 46.895 12.18L18.455-16.26C17.405-17.31 17.405-19.02 18.455-20.08ZM53.555-75.98C58.335-80.75 64.805-83.43 71.555-83.43L111.366-83.43C112.856-83.43 114.065-82.22 114.065-80.73C114.065-79.24 112.856-78.03 111.366-78.03L71.555-78.03C66.235-78.03 61.135-75.92 57.375-72.16C53.615-68.4 51.505-63.3 51.505-57.98L51.505 10.27C51.505 11.76 50.295 12.97 48.805 12.97C47.315 12.97 46.105 11.76 46.105 10.27L46.105-57.98C46.105-64.73 48.785-71.2 53.555-75.98Z"/>
  </g>
  <g id="Thin-L" transform="matrix(1 0 0 1 791.417 1556)">
   <path d="M18.1505-19.33C18.7945-19.98 19.8395-19.98 20.4835-19.33L47.7545 7.94L75.0255-19.33C75.6695-19.98 76.7145-19.98 77.3585-19.33C78.0035-18.69 78.0035-17.64 77.3585-17L48.9215 11.44C48.2765 12.08 47.2325 12.08 46.5875 11.44L18.1505-17C17.5065-17.64 17.5065-18.69 18.1505-19.33ZM53.2515-75.23C57.8275-79.81 64.0335-82.38 70.5045-82.38L110.317-82.38C111.228-82.38 111.968-81.64 111.968-80.73C111.968-79.82 111.228-79.08 110.317-79.08L70.5045-79.08C64.9085-79.08 59.5415-76.86 55.5845-72.9C51.6275-68.94 49.4045-63.57 49.4045-57.98L49.4045 10.27C49.4045 11.18 48.6655 11.92 47.7545 11.92C46.8435 11.92 46.1045 11.18 46.1045 10.27L46.1045-57.98C46.1045-64.45 48.6755-70.66 53.2515-75.23Z"/>
  </g>
  <g id="Ultralight-L" transform="matrix(1 0 0 1 495.256 1556)">
   <path d="M17.99-18.95C18.419-19.38 19.116-19.38 19.545-18.95L47.205 8.71L74.865-18.95C75.294-19.38 75.991-19.38 76.42-18.95C76.85-18.52 76.85-17.82 76.42-17.39L47.983 11.05C47.553 11.48 46.857 11.48 46.427 11.05L17.99-17.39C17.56-17.82 17.56-18.52 17.99-18.95ZM53.09-74.85C57.563-79.32 63.629-81.83 69.955-81.83L109.767-81.83C110.374-81.83 110.868-81.34 110.868-80.73C110.868-80.12 110.374-79.63 109.767-79.63L69.955-79.63C64.213-79.63 58.706-77.35 54.646-73.29C50.586-69.23 48.305-63.72 48.305-57.98L48.305 10.27C48.305 10.88 47.812 11.37 47.205 11.37C46.597 11.37 46.105 10.88 46.105 10.27L46.105-57.98C46.105-64.31 48.618-70.37 53.09-74.85Z"/>
  </g>
  <g id="Black-M" transform="matrix(1 0 0 1 2872.75 1126)">
   <path d="M19.745-26.86C22.525-29.63 27.015-29.63 29.785-26.86L47.085-9.57L64.375-26.86C67.145-29.63 71.645-29.63 74.415-26.86C77.185-24.09 77.185-19.59 74.415-16.82L52.105 5.49C49.325 8.26 44.835 8.26 42.065 5.49L19.745-16.82C16.975-19.59 16.975-24.09 19.745-26.86ZM47.285-70.72C51.965-75.4 58.315-78.03 64.935-78.03L96.165-78.03C100.085-78.03 103.264-74.85 103.264-70.93C103.264-67.01 100.085-63.83 96.165-63.83L64.935-63.83C62.075-63.83 59.345-62.7 57.325-60.68C55.315-58.67 54.185-55.93 54.185-53.08L54.185 0.47C54.185 4.39 51.005 7.57 47.085 7.57C43.155 7.57 39.985 4.39 39.985 0.47L39.985-53.08C39.985-59.7 42.605-66.04 47.285-70.72Z"/>
  </g>
  <g id="Heavy-M" transform="matrix(1 0 0 1 2576.88 1126)">
   <path d="M19.4975-26.26C21.9475-28.7 25.8975-28.7 28.3375-26.26L46.2375-8.37L64.1275-26.26C66.5675-28.7 70.5275-28.7 72.9675-26.26C75.4075-23.82 75.4075-19.87 72.9675-17.42L50.6575 4.89C48.2175 7.33 44.2575 7.33 41.8175 4.89L19.4975-17.42C17.0575-19.87 17.0575-23.82 19.4975-26.26ZM47.0475-70.12C51.5675-74.64 57.6975-77.18 64.0875-77.18L95.3175-77.18C98.7775-77.18 101.567-74.38 101.567-70.93C101.567-67.48 98.7775-64.68 95.3175-64.68L64.0875-64.68C61.0075-64.68 58.0575-63.46 55.8775-61.28C53.7075-59.11 52.4875-56.16 52.4875-53.08L52.4875 0.47C52.4875 3.92 49.6875 6.72 46.2375 6.72C42.7875 6.72 39.9875 3.92 39.9875 0.47L39.9875-53.08C39.9875-59.47 42.5275-65.6 47.0475-70.12Z"/>
  </g>
  <g id="Bold-M" transform="matrix(1 0 0 1 2281.13 1126)">
   <path d="M19.22-25.59C21.29-27.66 24.64-27.66 26.71-25.59L45.28-7.03L63.84-25.59C65.91-27.66 69.27-27.66 71.34-25.59C73.41-23.52 73.41-20.17 71.34-18.1L49.02 4.22C46.95 6.29 43.6 6.29 41.53 4.22L19.22-18.1C17.15-20.17 17.15-23.52 19.22-25.59ZM46.76-69.45C51.1-73.79 56.99-76.23 63.13-76.23L94.36-76.23C97.29-76.23 99.6595-73.86 99.6595-70.93C99.6595-68 97.29-65.63 94.36-65.63L63.13-65.63C59.8-65.63 56.61-64.31 54.25-61.95C51.9-59.6 50.58-56.41 50.58-53.08L50.58 0.47C50.58 3.4 48.2 5.77 45.28 5.77C42.35 5.77 39.98 3.4 39.98 0.47L39.98-53.08C39.98-59.22 42.42-65.11 46.76-69.45Z"/>
  </g>
  <g id="Semibold-M" transform="matrix(1 0 0 1 1985.06 1126)">
   <path d="M19.025-25.13C20.845-26.95 23.785-26.95 25.605-25.13L44.625-6.11L63.655-25.13C65.465-26.95 68.415-26.95 70.225-25.13C72.045-23.31 72.045-20.37 70.225-18.55L47.915 3.76C46.095 5.57 43.155 5.57 41.335 3.76L19.025-18.55C17.215-20.37 17.215-23.31 19.025-25.13ZM46.565-68.99C50.785-73.21 56.515-75.58 62.475-75.58L93.715-75.58C96.285-75.58 98.365-73.5 98.365-70.93C98.365-68.36 96.285-66.28 93.715-66.28L62.475-66.28C58.975-66.28 55.615-64.89 53.145-62.42C50.665-59.94 49.275-56.58 49.275-53.08L49.275 0.47C49.275 3.04 47.195 5.12 44.625 5.12C42.055 5.12 39.975 3.04 39.975 0.47L39.975-53.08C39.975-59.05 42.345-64.77 46.565-68.99Z"/>
  </g>
  <g id="Medium-M" transform="matrix(1 0 0 1 1688.85 1126)">
   <path d="M18.8825-24.78C20.5025-26.4 23.1225-26.4 24.7425-24.78L44.1225-5.4L63.5025-24.78C65.1225-26.4 67.7525-26.4 69.3725-24.78C70.9925-23.16 70.9925-20.53 69.3725-18.91L47.0625 3.4C45.4425 5.03 42.8125 5.03 41.1925 3.4L18.8825-18.91C17.2625-20.53 17.2625-23.16 18.8825-24.78ZM46.4225-68.64C50.5425-72.76 56.1425-75.08 61.9725-75.08L93.2125-75.08C95.5025-75.08 97.3625-73.22 97.3625-70.93C97.3625-68.64 95.5025-66.78 93.2125-66.78L61.9725-66.78C58.3425-66.78 54.8525-65.34 52.2925-62.77C49.7225-60.2 48.2725-56.72 48.2725-53.08L48.2725 0.47C48.2725 2.76 46.4125 4.62 44.1225 4.62C41.8325 4.62 39.9725 2.76 39.9725 0.47L39.9725-53.08C39.9725-58.92 42.2925-64.51 46.4225-68.64Z"/>
  </g>
  <g id="Regular-M" transform="matrix(1 0 0 1 1392.79 1126)">
   <path d="M18.695-24.32C20.055-25.69 22.275-25.69 23.645-24.32L43.475-4.48L63.315-24.32C64.685-25.69 66.895-25.69 68.265-24.32C69.635-22.95 69.635-20.74 68.265-19.37L45.955 2.94C44.585 4.31 42.375 4.31 41.005 2.94L18.695-19.37C17.325-20.74 17.325-22.95 18.695-24.32ZM46.235-68.18C50.235-72.18 55.665-74.43 61.325-74.43L92.565-74.43C94.495-74.43 96.065-72.86 96.065-70.93C96.065-69 94.495-67.43 92.565-67.43L61.325-67.43C57.525-67.43 53.875-65.92 51.185-63.23C48.495-60.54 46.975-56.89 46.975-53.08L46.975 0.47C46.975 2.4 45.415 3.97 43.475 3.97C41.545 3.97 39.975 2.4 39.975 0.47L39.975-53.08C39.975-58.74 42.225-64.17 46.235-68.18Z"/>
  </g>
  <g id="Light-M" transform="matrix(1 0 0 1 1096.88 1126)">
   <path d="M18.455-23.75C19.505-24.81 21.215-24.81 22.275-23.75L42.675-3.35L63.085-23.75C64.135-24.81 65.845-24.81 66.895-23.75C67.955-22.7 67.955-20.99 66.895-19.93L44.585 2.38C43.535 3.43 41.825 3.43 40.765 2.38L18.455-19.93C17.405-20.99 17.405-22.7 18.455-23.75ZM45.995-67.61C49.845-71.46 55.075-73.63 60.525-73.63L91.765-73.63C93.255-73.63 94.465-72.42 94.465-70.93C94.465-69.44 93.255-68.23 91.765-68.23L60.525-68.23C56.505-68.23 52.655-66.63 49.815-63.79C46.975-60.95 45.375-57.1 45.375-53.08L45.375 0.47C45.375 1.96 44.165 3.17 42.675 3.17C41.185 3.17 39.975 1.96 39.975 0.47L39.975-53.08C39.975-58.53 42.145-63.76 45.995-67.61Z"/>
  </g>
  <g id="Thin-M" transform="matrix(1 0 0 1 801.217 1126)">
   <path d="M18.1513-23.01C18.7953-23.65 19.8402-23.65 20.4842-23.01L41.6304-1.86L62.7763-23.01C63.4203-23.65 64.4652-23.65 65.1092-23.01C65.7532-22.36 65.7532-21.32 65.1092-20.68L42.7972 1.64C42.1522 2.28 41.1082 2.28 40.4633 1.64L18.1513-20.68C17.5063-21.32 17.5063-22.36 18.1513-23.01ZM45.6912-66.87C49.3483-70.53 54.3084-72.58 59.4802-72.58L90.7174-72.58C91.6293-72.58 92.3673-71.84 92.3673-70.93C92.3673-70.02 91.6293-69.28 90.7174-69.28L59.4802-69.28C55.1834-69.28 51.0634-67.58 48.0254-64.54C44.9873-61.5 43.2803-57.38 43.2803-53.08L43.2803 0.47C43.2803 1.38 42.5412 2.12 41.6304 2.12C40.7192 2.12 39.9802 1.38 39.9802 0.47L39.9802-53.08C39.9802-58.25 42.0344-63.21 45.6912-66.87Z"/>
  </g>
  <g id="Ultralight-M" transform="matrix(1 0 0 1 505.056 1126)">
   <path d="M17.9892-22.62C18.4194-23.05 19.1153-23.05 19.5454-22.62L41.0803-1.08L62.6142-22.62C63.0444-23.05 63.7403-23.05 64.1704-22.62C64.6002-22.19 64.6002-21.49 64.1704-21.06L41.8583 1.25C41.4283 1.68 40.7313 1.68 40.3022 1.25L17.9892-21.06C17.5603-21.49 17.5603-22.19 17.9892-22.62ZM45.5304-66.48C49.0843-70.03 53.9043-72.03 58.9304-72.03L90.1672-72.03C90.7754-72.03 91.2673-71.54 91.2673-70.93C91.2673-70.32 90.7754-69.83 90.1672-69.83L58.9304-69.83C54.4874-69.83 50.2274-68.07 47.0863-64.93C43.9444-61.78 42.1804-57.52 42.1804-53.08L42.1804 0.47C42.1804 1.08 41.6873 1.57 41.0803 1.57C40.4724 1.57 39.9802 1.08 39.9802 0.47L39.9802-53.08C39.9802-58.11 41.9763-62.93 45.5304-66.48Z"/>
  </g>
  <g id="Black-S" transform="matrix(1 0 0 1 2880.45 696)">
   <path d="M19.745-29.854C22.515-32.627 27.015-32.627 29.785-29.854L42.265-17.375L54.745-29.854C57.515-32.627 62.015-32.627 64.785-29.854C67.555-27.081 67.555-22.586 64.785-19.813L47.285-2.313C44.515 0.46 40.015 0.46 37.245-2.313L19.745-19.813C16.975-22.586 16.975-27.081 19.745-29.854ZM41.345-64.254C45.305-68.211 50.665-70.434 56.265-70.434L80.765-70.434C84.685-70.434 87.865-67.255 87.865-63.334C87.865-59.412 84.685-56.234 80.765-56.234L56.265-56.234C54.435-56.234 52.685-55.507 51.385-54.213C50.095-52.919 49.365-51.164 49.365-49.334L49.365-7.334C49.365-3.412 46.185-0.234 42.265-0.234C38.345-0.234 35.165-3.412 35.165-7.334L35.165-49.334C35.165-54.93 37.385-60.297 41.345-64.254Z"/>
  </g>
  <g id="Heavy-S" transform="matrix(1 0 0 1 2584.58 696)">
   <path d="M19.4975-29.251C21.9375-31.692 25.8975-31.692 28.3375-29.251L41.4175-16.171L54.4975-29.251C56.9375-31.692 60.8975-31.692 63.3375-29.251C65.7775-26.811 65.7775-22.853 63.3375-20.413L45.8375-2.913C43.3975-0.472 39.4375-0.472 36.9975-2.913L19.4975-20.413C17.0575-22.853 17.0575-26.811 19.4975-29.251ZM41.0975-63.651C44.8975-67.449 50.0475-69.582 55.4175-69.582L79.9175-69.582C83.3675-69.582 86.1675-66.784 86.1675-63.332C86.1675-59.88 83.3675-57.082 79.9175-57.082L55.4175-57.082C53.3675-57.082 51.3875-56.266 49.9375-54.812C48.4875-53.359 47.6675-51.387 47.6675-49.332L47.6675-7.332C47.6675-3.88 44.8675-1.082 41.4175-1.082C37.9675-1.082 35.1675-3.88 35.1675-7.332L35.1675-49.332C35.1675-54.703 37.2975-59.853 41.0975-63.651Z"/>
  </g>
  <g id="Bold-S" transform="matrix(1 0 0 1 2288.83 696)">
   <path d="M19.22-28.373C21.29-30.443 24.64-30.443 26.71-28.373L40.46-14.621L54.22-28.373C56.29-30.443 59.64-30.443 61.71-28.373C63.78-26.304 63.78-22.948 61.71-20.878L44.21-3.378C42.14-1.308 38.79-1.308 36.72-3.378L19.22-20.878C17.15-22.948 17.15-26.304 19.22-28.373ZM40.82-62.773C44.44-66.392 49.35-68.426 54.46-68.426L78.96-68.426C81.89-68.426 84.26-66.053 84.26-63.126C84.26-60.199 81.89-57.826 78.96-57.826L54.46-57.826C52.16-57.826 49.94-56.909 48.31-55.278C46.68-53.646 45.76-51.433 45.76-49.126L45.76-7.126C45.76-4.199 43.39-1.826 40.46-1.826C37.54-1.826 35.16-4.199 35.16-7.126L35.16-49.126C35.16-54.244 37.2-59.153 40.82-62.773Z"/>
  </g>
  <g id="Semibold-S" transform="matrix(1 0 0 1 1992.76 696)">
   <path d="M19.025-27.911C20.845-29.727 23.785-29.727 25.605-27.911L39.815-13.7L54.025-27.911C55.845-29.727 58.785-29.727 60.605-27.911C62.415-26.096 62.415-23.151 60.605-21.335L43.105-3.835C41.285-2.019 38.345-2.019 36.525-3.835L19.025-21.335C17.215-23.151 17.215-26.096 19.025-27.911ZM40.625-62.311C44.125-65.809 48.865-67.773 53.815-67.773L78.315-67.773C80.885-67.773 82.965-65.692 82.965-63.123C82.965-60.555 80.885-58.473 78.315-58.473L53.815-58.473C51.335-58.473 48.955-57.488 47.205-55.735C45.445-53.981 44.465-51.603 44.465-49.123L44.465-7.123C44.465-4.555 42.385-2.473 39.815-2.473C37.245-2.473 35.165-4.555 35.165-7.123L35.165-49.123C35.165-54.07 37.125-58.813 40.625-62.311Z"/>
  </g>
  <g id="Medium-S" transform="matrix(1 0 0 1 1696.55 696)">
   <path d="M18.89-27.558C20.51-29.179 23.13-29.179 24.75-27.558L39.32-12.992L53.89-27.558C55.51-29.179 58.13-29.179 59.75-27.558C61.37-25.937 61.37-23.31 59.75-21.689L42.25-4.189C40.63-2.568 38.01-2.568 36.39-4.189L18.89-21.689C17.26-23.31 17.26-25.937 18.89-27.558ZM40.49-61.957C43.89-65.361 48.51-67.273 53.32-67.273L77.82-67.273C80.11-67.273 81.97-65.415 81.97-63.123C81.97-60.831 80.11-58.973 77.82-58.973L53.32-58.973C50.71-58.973 48.2-57.936 46.35-56.088C44.51-54.241 43.47-51.736 43.47-49.123L43.47-7.123C43.47-4.831 41.61-2.973 39.32-2.973C37.03-2.973 35.17-4.831 35.17-7.123L35.17-49.123C35.17-53.937 37.08-58.554 40.49-61.957Z"/>
  </g>
  <g id="Regular-S" transform="matrix(1 0 0 1 1400.49 696)">
   <path d="M18.695-27.1C20.055-28.467 22.275-28.467 23.635-27.1L38.665-12.075L53.695-27.1C55.055-28.467 57.275-28.467 58.635-27.1C60.005-25.733 60.005-23.517 58.635-22.15L41.135-4.65C39.775-3.283 37.555-3.283 36.195-4.65L18.695-22.15C17.325-23.517 17.325-25.733 18.695-27.1ZM40.295-61.499C43.575-64.781 48.025-66.625 52.665-66.625L77.165-66.625C79.095-66.625 80.665-65.058 80.665-63.125C80.665-61.192 79.095-59.625 77.165-59.625L52.665-59.625C49.885-59.625 47.205-58.519 45.245-56.55C43.275-54.58 42.165-51.91 42.165-49.125L42.165-7.125C42.165-5.192 40.595-3.625 38.665-3.625C36.735-3.625 35.165-5.192 35.165-7.125L35.165-49.125C35.165-53.766 37.005-58.217 40.295-61.499Z"/>
  </g>
  <g id="Light-S" transform="matrix(1 0 0 1 1104.58 696)">
   <path d="M18.455-26.533C19.515-27.588 21.225-27.588 22.275-26.533L37.865-10.943L53.455-26.533C54.515-27.588 56.225-27.588 57.275-26.533C58.325-25.479 58.325-23.769 57.275-22.715L39.775-5.215C38.725-4.161 37.015-4.161 35.955-5.215L18.455-22.715C17.405-23.769 17.405-25.479 18.455-26.533ZM40.055-60.933C43.185-64.065 47.435-65.824 51.865-65.824L76.365-65.824C77.855-65.824 79.065-64.615 79.065-63.124C79.065-61.633 77.855-60.424 76.365-60.424L51.865-60.424C48.865-60.424 45.995-59.234 43.875-57.115C41.755-54.995 40.565-52.121 40.565-49.124L40.565-7.124C40.565-5.633 39.355-4.424 37.865-4.424C36.375-4.424 35.165-5.633 35.165-7.124L35.165-49.124C35.165-53.553 36.925-57.801 40.055-60.933Z"/>
  </g>
  <g id="Thin-S" transform="matrix(1 0 0 1 808.917 696)">
   <path d="M18.1505-25.79C18.7945-26.435 19.8395-26.435 20.4835-25.79L36.8175-9.457L53.1505-25.79C53.7945-26.435 54.8395-26.435 55.4835-25.79C56.1285-25.146 56.1285-24.101 55.4835-23.457L37.9835-5.957C37.3395-5.312 36.2945-5.312 35.6505-5.957L18.1505-23.457C17.5065-24.101 17.5065-25.146 18.1505-25.79ZM39.7505-60.19C42.6855-63.125 46.6665-64.773 50.8175-64.773L75.3175-64.773C76.2285-64.773 76.9675-64.035 76.9675-63.123C76.9675-62.212 76.2285-61.473 75.3175-61.473L50.8175-61.473C47.5415-61.473 44.4005-60.172 42.0845-57.856C39.7685-55.54 38.4675-52.399 38.4675-49.123L38.4675-7.123C38.4675-6.212 37.7285-5.473 36.8175-5.473C35.9055-5.473 35.1675-6.212 35.1675-7.123L35.1675-49.123C35.1675-53.274 36.8155-57.255 39.7505-60.19Z"/>
  </g>
  <g id="Ultralight-S" transform="matrix(1 0 0 1 512.756 696)">
   <path d="M17.99-25.404C18.419-25.834 19.116-25.834 19.545-25.404L36.267-8.682L52.99-25.404C53.419-25.834 54.116-25.834 54.545-25.404C54.975-24.975 54.975-24.278 54.545-23.849L37.045-6.349C36.616-5.919 35.919-5.919 35.49-6.349L17.99-23.849C17.56-24.278 17.56-24.975 17.99-25.404ZM39.59-59.804C42.422-62.636 46.263-64.227 50.267-64.227L74.767-64.227C75.375-64.227 75.867-63.734 75.867-63.127C75.867-62.519 75.375-62.027 74.767-62.027L50.267-62.027C46.846-62.027 43.565-60.667 41.146-58.248C38.726-55.829 37.367-52.548 37.367-49.127L37.367-7.127C37.367-6.519 36.875-6.027 36.267-6.027C35.66-6.027 35.167-6.519 35.167-7.127L35.167-49.127C35.167-53.131 36.758-56.972 39.59-59.804Z"/>
  </g>
 </g>
</svg>
