<?xml version="1.0" encoding="UTF-8"?>
<!--Generator: Apple Native CoreSVG 175-->
<!DOCTYPE svg
PUBLIC "-//W3C//DTD SVG 1.1//EN"
       "http://www.w3.org/Graphics/SVG/1.1/DTD/svg11.dtd">
<svg version="1.1" xmlns="http://www.w3.org/2000/svg" xmlns:xlink="http://www.w3.org/1999/xlink" width="3300" height="2200">
 <!--glyph: "", point size: 100.0, font version: "17.0d12e1", template writer version: "65.1"-->
 <g id="Notes">
  <rect height="2200" id="artboard" style="fill:white;opacity:1" width="3300" x="0" y="0"/>
  <line style="fill:none;stroke:black;opacity:1;stroke-width:0.5;" x1="263" x2="3036" y1="292" y2="292"/>
  <text style="stroke:none;fill:black;font-family:sans-serif;font-size:13;font-weight:bold;" transform="matrix(1 0 0 1 263 322)">Weight/Scale Variations</text>
  <text style="stroke:none;fill:black;font-family:sans-serif;font-size:13;text-anchor:middle;" transform="matrix(1 0 0 1 559.711 322)">Ultralight</text>
  <text style="stroke:none;fill:black;font-family:sans-serif;font-size:13;text-anchor:middle;" transform="matrix(1 0 0 1 856.422 322)">Thin</text>
  <text style="stroke:none;fill:black;font-family:sans-serif;font-size:13;text-anchor:middle;" transform="matrix(1 0 0 1 1153.13 322)">Light</text>
  <text style="stroke:none;fill:black;font-family:sans-serif;font-size:13;text-anchor:middle;" transform="matrix(1 0 0 1 1449.84 322)">Regular</text>
  <text style="stroke:none;fill:black;font-family:sans-serif;font-size:13;text-anchor:middle;" transform="matrix(1 0 0 1 1746.56 322)">Medium</text>
  <text style="stroke:none;fill:black;font-family:sans-serif;font-size:13;text-anchor:middle;" transform="matrix(1 0 0 1 2043.27 322)">Semibold</text>
  <text style="stroke:none;fill:black;font-family:sans-serif;font-size:13;text-anchor:middle;" transform="matrix(1 0 0 1 2339.98 322)">Bold</text>
  <text style="stroke:none;fill:black;font-family:sans-serif;font-size:13;text-anchor:middle;" transform="matrix(1 0 0 1 2636.69 322)">Heavy</text>
  <text style="stroke:none;fill:black;font-family:sans-serif;font-size:13;text-anchor:middle;" transform="matrix(1 0 0 1 2933.4 322)">Black</text>
  <line style="fill:none;stroke:black;opacity:1;stroke-width:0.5;" x1="263" x2="3036" y1="1903" y2="1903"/>
  <g transform="matrix(1 0 0 1 263 1933)">
   <path d="M9.24805 0.830078Q10.8691 0.830078 12.2949 0.214844Q13.7207-0.400391 14.8096-1.49414Q15.8984-2.58789 16.5186-4.01367Q17.1387-5.43945 17.1387-7.05078Q17.1387-8.66211 16.5186-10.0879Q15.8984-11.5137 14.8047-12.6074Q13.7109-13.7012 12.2852-14.3164Q10.8594-14.9316 9.23828-14.9316Q7.62695-14.9316 6.20117-14.3164Q4.77539-13.7012 3.69141-12.6074Q2.60742-11.5137 1.9873-10.0879Q1.36719-8.66211 1.36719-7.05078Q1.36719-5.43945 1.9873-4.01367Q2.60742-2.58789 3.69629-1.49414Q4.78516-0.400391 6.21094 0.214844Q7.63672 0.830078 9.24805 0.830078ZM9.24805-0.654297Q7.91992-0.654297 6.7627-1.14746Q5.60547-1.64062 4.73145-2.51953Q3.85742-3.39844 3.36426-4.56055Q2.87109-5.72266 2.87109-7.05078Q2.87109-8.37891 3.35938-9.54102Q3.84766-10.7031 4.72168-11.582Q5.5957-12.4609 6.75293-12.9541Q7.91016-13.4473 9.23828-13.4473Q10.5762-13.4473 11.7334-12.9541Q12.8906-12.4609 13.7695-11.582Q14.6484-10.7031 15.1465-9.54102Q15.6445-8.37891 15.6445-7.05078Q15.6445-5.72266 15.1514-4.56055Q14.6582-3.39844 13.7842-2.51953Q12.9102-1.64062 11.748-1.14746Q10.5859-0.654297 9.24805-0.654297ZM5.6543-7.05078Q5.6543-6.72852 5.85938-6.52832Q6.06445-6.32812 6.40625-6.32812L8.51562-6.32812L8.51562-4.20898Q8.51562-3.88672 8.71094-3.67676Q8.90625-3.4668 9.23828-3.4668Q9.56055-3.4668 9.77051-3.67676Q9.98047-3.88672 9.98047-4.20898L9.98047-6.32812L12.0898-6.32812Q12.4219-6.32812 12.627-6.52832Q12.832-6.72852 12.832-7.05078Q12.832-7.38281 12.627-7.58789Q12.4219-7.79297 12.0898-7.79297L9.98047-7.79297L9.98047-9.90234Q9.98047-10.2344 9.77051-10.4443Q9.56055-10.6543 9.23828-10.6543Q8.90625-10.6543 8.71094-10.4443Q8.51562-10.2344 8.51562-9.90234L8.51562-7.79297L6.40625-7.79297Q6.06445-7.79297 5.85938-7.58789Q5.6543-7.38281 5.6543-7.05078Z"/>
  </g>
  <g transform="matrix(1 0 0 1 281.867 1933)">
   <path d="M11.709 2.91016Q13.75 2.91016 15.5518 2.12891Q17.3535 1.34766 18.7305-0.0292969Q20.1074-1.40625 20.8887-3.20801Q21.6699-5.00977 21.6699-7.05078Q21.6699-9.0918 20.8887-10.8936Q20.1074-12.6953 18.7305-14.0723Q17.3535-15.4492 15.5469-16.2305Q13.7402-17.0117 11.6992-17.0117Q9.6582-17.0117 7.85645-16.2305Q6.05469-15.4492 4.68262-14.0723Q3.31055-12.6953 2.5293-10.8936Q1.74805-9.0918 1.74805-7.05078Q1.74805-5.00977 2.5293-3.20801Q3.31055-1.40625 4.6875-0.0292969Q6.06445 1.34766 7.86621 2.12891Q9.66797 2.91016 11.709 2.91016ZM11.709 1.25Q9.98047 1.25 8.47656 0.605469Q6.97266-0.0390625 5.83496-1.17676Q4.69727-2.31445 4.05762-3.81836Q3.41797-5.32227 3.41797-7.05078Q3.41797-8.7793 4.05762-10.2832Q4.69727-11.7871 5.83008-12.9297Q6.96289-14.0723 8.4668-14.7119Q9.9707-15.3516 11.6992-15.3516Q13.4277-15.3516 14.9316-14.7119Q16.4355-14.0723 17.5781-12.9297Q18.7207-11.7871 19.3652-10.2832Q20.0098-8.7793 20.0098-7.05078Q20.0098-5.32227 19.3701-3.81836Q18.7305-2.31445 17.5928-1.17676Q16.4551-0.0390625 14.9463 0.605469Q13.4375 1.25 11.709 1.25ZM7.17773-7.05078Q7.17773-6.69922 7.41211-6.47461Q7.64648-6.25 8.01758-6.25L10.8887-6.25L10.8887-3.36914Q10.8887-2.99805 11.1133-2.76855Q11.3379-2.53906 11.6895-2.53906Q12.0605-2.53906 12.29-2.76855Q12.5195-2.99805 12.5195-3.36914L12.5195-6.25L15.4004-6.25Q15.7715-6.25 16.001-6.47461Q16.2305-6.69922 16.2305-7.05078Q16.2305-7.42188 16.001-7.65137Q15.7715-7.88086 15.4004-7.88086L12.5195-7.88086L12.5195-10.752Q12.5195-11.1328 12.29-11.3623Q12.0605-11.5918 11.6895-11.5918Q11.3379-11.5918 11.1133-11.3574Q10.8887-11.123 10.8887-10.752L10.8887-7.88086L8.01758-7.88086Q7.63672-7.88086 7.40723-7.65137Q7.17773-7.42188 7.17773-7.05078Z"/>
  </g>
  <g transform="matrix(1 0 0 1 305.646 1933)">
   <path d="M14.9707 5.66406Q17.0605 5.66406 18.96 5.01465Q20.8594 4.36523 22.4512 3.19336Q24.043 2.02148 25.2197 0.429688Q26.3965-1.16211 27.0459-3.06641Q27.6953-4.9707 27.6953-7.05078Q27.6953-9.14062 27.0459-11.04Q26.3965-12.9395 25.2197-14.5312Q24.043-16.123 22.4512-17.2998Q20.8594-18.4766 18.9551-19.126Q17.0508-19.7754 14.9609-19.7754Q12.8711-19.7754 10.9717-19.126Q9.07227-18.4766 7.48535-17.2998Q5.89844-16.123 4.72168-14.5312Q3.54492-12.9395 2.90039-11.04Q2.25586-9.14062 2.25586-7.05078Q2.25586-4.9707 2.90527-3.06641Q3.55469-1.16211 4.72656 0.429688Q5.89844 2.02148 7.49023 3.19336Q9.08203 4.36523 10.9814 5.01465Q12.8809 5.66406 14.9707 5.66406ZM14.9707 3.84766Q13.1641 3.84766 11.5283 3.2959Q9.89258 2.74414 8.53516 1.74805Q7.17773 0.751953 6.17676-0.610352Q5.17578-1.97266 4.62891-3.6084Q4.08203-5.24414 4.08203-7.05078Q4.08203-8.86719 4.62891-10.5029Q5.17578-12.1387 6.17188-13.501Q7.16797-14.8633 8.52539-15.8594Q9.88281-16.8555 11.5186-17.4023Q13.1543-17.9492 14.9609-17.9492Q16.7773-17.9492 18.4131-17.4023Q20.0488-16.8555 21.4111-15.8594Q22.7734-14.8633 23.7695-13.501Q24.7656-12.1387 25.3174-10.5029Q25.8691-8.86719 25.8691-7.05078Q25.8789-5.24414 25.332-3.6084Q24.7852-1.97266 23.7842-0.610352Q22.7832 0.751953 21.4209 1.74805Q20.0586 2.74414 18.4229 3.2959Q16.7871 3.84766 14.9707 3.84766ZM9.19922-7.05078Q9.19922-6.66992 9.45801-6.4209Q9.7168-6.17188 10.1172-6.17188L14.0625-6.17188L14.0625-2.2168Q14.0625-1.81641 14.3115-1.55762Q14.5605-1.29883 14.9512-1.29883Q15.3516-1.29883 15.6104-1.55273Q15.8691-1.80664 15.8691-2.2168L15.8691-6.17188L19.8242-6.17188Q20.2246-6.17188 20.4785-6.4209Q20.7324-6.66992 20.7324-7.05078Q20.7324-7.46094 20.4785-7.71484Q20.2246-7.96875 19.8242-7.96875L15.8691-7.96875L15.8691-11.9141Q15.8691-12.3242 15.6104-12.583Q15.3516-12.8418 14.9512-12.8418Q14.5605-12.8418 14.3115-12.583Q14.0625-12.3242 14.0625-11.9141L14.0625-7.96875L10.1172-7.96875Q9.70703-7.96875 9.45312-7.71484Q9.19922-7.46094 9.19922-7.05078Z"/>
  </g>
  <text style="stroke:none;fill:black;font-family:sans-serif;font-size:13;font-weight:bold;" transform="matrix(1 0 0 1 263 1953)">Design Variations</text>
  <text style="stroke:none;fill:black;font-family:sans-serif;font-size:13;" transform="matrix(1 0 0 1 263 1971)">Symbols are supported in up to nine weights and three scales.</text>
  <text style="stroke:none;fill:black;font-family:sans-serif;font-size:13;" transform="matrix(1 0 0 1 263 1989)">For optimal layout with text and other symbols, vertically align</text>
  <text style="stroke:none;fill:black;font-family:sans-serif;font-size:13;" transform="matrix(1 0 0 1 263 2007)">symbols with the adjacent text.</text>
  <line style="fill:none;stroke:#00AEEF;stroke-width:0.5;opacity:1.0;" x1="776" x2="776" y1="1919" y2="1933"/>
  <g transform="matrix(1 0 0 1 776 1933)">
   <path d="M3.31055 0.15625Q3.70117 0.15625 3.91602-0.00976562Q4.13086-0.175781 4.26758-0.585938L5.52734-4.0332L11.2891-4.0332L12.5488-0.585938Q12.6855-0.175781 12.9004-0.00976562Q13.1152 0.15625 13.4961 0.15625Q13.8867 0.15625 14.1162-0.0585938Q14.3457-0.273438 14.3457-0.644531Q14.3457-0.869141 14.2383-1.17188L9.6582-13.3691Q9.48242-13.8184 9.17969-14.043Q8.87695-14.2676 8.4082-14.2676Q7.5-14.2676 7.17773-13.3789L2.59766-1.16211Q2.49023-0.859375 2.49023-0.634766Q2.49023-0.263672 2.70996-0.0537109Q2.92969 0.15625 3.31055 0.15625ZM6.00586-5.51758L8.37891-12.0898L8.42773-12.0898L10.8008-5.51758Z"/>
  </g>
  <line style="fill:none;stroke:#00AEEF;stroke-width:0.5;opacity:1.0;" x1="793.197" x2="793.197" y1="1919" y2="1933"/>
  <text style="stroke:none;fill:black;font-family:sans-serif;font-size:13;font-weight:bold;" transform="matrix(1 0 0 1 776 1953)">Margins</text>
  <text style="stroke:none;fill:black;font-family:sans-serif;font-size:13;" transform="matrix(1 0 0 1 776 1971)">Leading and trailing margins on the left and right side of each symbol</text>
  <text style="stroke:none;fill:black;font-family:sans-serif;font-size:13;" transform="matrix(1 0 0 1 776 1989)">can be adjusted by modifying the x-location of the margin guidelines.</text>
  <text style="stroke:none;fill:black;font-family:sans-serif;font-size:13;" transform="matrix(1 0 0 1 776 2007)">Modifications are automatically applied proportionally to all</text>
  <text style="stroke:none;fill:black;font-family:sans-serif;font-size:13;" transform="matrix(1 0 0 1 776 2025)">scales and weights.</text>
  <g transform="matrix(1 0 0 1 1289 1933)">
   <path d="M2.8418 1.86523L4.54102 3.57422Q5.18555 4.22852 5.90332 4.17969Q6.62109 4.13086 7.31445 3.35938L18.0078-8.42773L17.041-9.4043L6.42578 2.27539Q6.16211 2.57812 5.89355 2.61719Q5.625 2.65625 5.27344 2.30469L4.10156 1.14258Q3.75 0.791016 3.79395 0.522461Q3.83789 0.253906 4.14062-0.0195312L15.6152-10.8203L14.6387-11.7871L3.04688-0.898438Q2.30469-0.214844 2.25098 0.498047Q2.19727 1.21094 2.8418 1.86523ZM9.25781-16.3281Q8.94531-16.0254 8.90625-15.6348Q8.86719-15.2441 9.04297-14.9512Q9.21875-14.6777 9.55566-14.541Q9.89258-14.4043 10.3809-14.5215Q11.4746-14.7754 12.5977-14.7314Q13.7207-14.6875 14.7949-13.9844L14.209-12.5293Q13.9551-11.9043 14.0674-11.4404Q14.1797-10.9766 14.5801-10.5664L16.875-8.25195Q17.2363-7.88086 17.5781-7.82227Q17.9199-7.76367 18.3398-7.8418L19.4043-8.03711L20.0684-7.36328L20.0293-6.80664Q20-6.43555 20.1221-6.12305Q20.2441-5.81055 20.6055-5.44922L21.3672-4.70703Q21.7285-4.3457 22.1533-4.33105Q22.5781-4.31641 22.9297-4.66797L25.8398-7.58789Q26.1914-7.93945 26.1816-8.35449Q26.1719-8.76953 25.8105-9.13086L25.0391-9.89258Q24.6875-10.2539 24.3799-10.3857Q24.0723-10.5176 23.7109-10.4883L23.1348-10.4395L22.4902-11.0742L22.7344-12.1973Q22.832-12.6172 22.6953-12.9834Q22.5586-13.3496 22.1191-13.7891L19.9219-15.9766Q18.6719-17.2168 17.2607-17.8369Q15.8496-18.457 14.4189-18.4814Q12.9883-18.5059 11.665-17.959Q10.3418-17.4121 9.25781-16.3281ZM10.752-15.957Q11.6602-16.6211 12.7002-16.9043Q13.7402-17.1875 14.8047-17.085Q15.8691-16.9824 16.8701-16.5137Q17.8711-16.0449 18.7012-15.2051L21.1328-12.793Q21.3086-12.6172 21.3525-12.4512Q21.3965-12.2852 21.3379-12.0312L21.0156-10.5469L22.5195-9.0625L23.5059-9.12109Q23.6914-9.13086 23.7891-9.09668Q23.8867-9.0625 24.0332-8.91602L24.6094-8.33984L22.168-5.89844L21.5918-6.47461Q21.4453-6.62109 21.4062-6.71875Q21.3672-6.81641 21.377-7.01172L21.4453-7.98828L19.9512-9.47266L18.4277-9.21875Q18.1836-9.16992 18.042-9.2041Q17.9004-9.23828 17.7148-9.41406L15.7129-11.416Q15.5176-11.5918 15.4932-11.7529Q15.4688-11.9141 15.5859-12.1875L16.4648-14.2773Q15.293-15.3711 13.8281-15.791Q12.3633-16.2109 10.8398-15.7617Q10.7227-15.7324 10.6885-15.8057Q10.6543-15.8789 10.752-15.957Z"/>
  </g>
  <text style="stroke:none;fill:black;font-family:sans-serif;font-size:13;font-weight:bold;" transform="matrix(1 0 0 1 1289 1953)">Exporting</text>
  <text style="stroke:none;fill:black;font-family:sans-serif;font-size:13;" transform="matrix(1 0 0 1 1289 1971)">Symbols should be outlined when exporting to ensure the</text>
  <text style="stroke:none;fill:black;font-family:sans-serif;font-size:13;" transform="matrix(1 0 0 1 1289 1989)">design is preserved when submitting to Xcode.</text>
  <text id="template-version" style="stroke:none;fill:black;font-family:sans-serif;font-size:13;text-anchor:end;" transform="matrix(1 0 0 1 3036 1933)">Template v.3.0</text>
  <text style="stroke:none;fill:black;font-family:sans-serif;font-size:13;text-anchor:end;" transform="matrix(1 0 0 1 3036 1951)">Requires Xcode 13 or greater</text>
  <text id="descriptive-name" style="stroke:none;fill:black;font-family:sans-serif;font-size:13;text-anchor:end;" transform="matrix(1 0 0 1 3036 1969)">Generated from thumbs-down</text>
  <text style="stroke:none;fill:black;font-family:sans-serif;font-size:13;text-anchor:end;" transform="matrix(1 0 0 1 3036 1987)">Typeset at 100 points</text>
  <text style="stroke:none;fill:black;font-family:sans-serif;font-size:13;" transform="matrix(1 0 0 1 263 726)">Small</text>
  <text style="stroke:none;fill:black;font-family:sans-serif;font-size:13;" transform="matrix(1 0 0 1 263 1156)">Medium</text>
  <text style="stroke:none;fill:black;font-family:sans-serif;font-size:13;" transform="matrix(1 0 0 1 263 1586)">Large</text>
 </g>
 <g id="Guides">
  <g id="H-reference" style="fill:#27AAE1;stroke:none;" transform="matrix(1 0 0 1 339 696)">
   <path d="M0.976562 0L3.66211 0L29.3457-67.1387L30.0293-67.1387L30.0293-70.459L28.125-70.459ZM11.6699-24.4629L46.9727-24.4629L46.2402-26.709L12.4512-26.709ZM55.127 0L57.7637 0L30.6152-70.459L29.4434-70.459L29.4434-67.1387Z"/>
  </g>
  <line id="Baseline-S" style="fill:none;stroke:#27AAE1;opacity:1;stroke-width:0.5;" x1="263" x2="3036" y1="696" y2="696"/>
  <line id="Capline-S" style="fill:none;stroke:#27AAE1;opacity:1;stroke-width:0.5;" x1="263" x2="3036" y1="625.541" y2="625.541"/>
  <g id="H-reference" style="fill:#27AAE1;stroke:none;" transform="matrix(1 0 0 1 339 1126)">
   <path d="M0.976562 0L3.66211 0L29.3457-67.1387L30.0293-67.1387L30.0293-70.459L28.125-70.459ZM11.6699-24.4629L46.9727-24.4629L46.2402-26.709L12.4512-26.709ZM55.127 0L57.7637 0L30.6152-70.459L29.4434-70.459L29.4434-67.1387Z"/>
  </g>
  <line id="Baseline-M" style="fill:none;stroke:#27AAE1;opacity:1;stroke-width:0.5;" x1="263" x2="3036" y1="1126" y2="1126"/>
  <line id="Capline-M" style="fill:none;stroke:#27AAE1;opacity:1;stroke-width:0.5;" x1="263" x2="3036" y1="1055.54" y2="1055.54"/>
  <g id="H-reference" style="fill:#27AAE1;stroke:none;" transform="matrix(1 0 0 1 339 1556)">
   <path d="M0.976562 0L3.66211 0L29.3457-67.1387L30.0293-67.1387L30.0293-70.459L28.125-70.459ZM11.6699-24.4629L46.9727-24.4629L46.2402-26.709L12.4512-26.709ZM55.127 0L57.7637 0L30.6152-70.459L29.4434-70.459L29.4434-67.1387Z"/>
  </g>
  <line id="Baseline-L" style="fill:none;stroke:#27AAE1;opacity:1;stroke-width:0.5;" x1="263" x2="3036" y1="1556" y2="1556"/>
  <line id="Capline-L" style="fill:none;stroke:#27AAE1;opacity:1;stroke-width:0.5;" x1="263" x2="3036" y1="1485.54" y2="1485.54"/>
  <line id="left-margin-Regular-M" style="fill:none;stroke:#00AEEF;stroke-width:0.5;opacity:1.0;" x1="1392.58" x2="1392.58" y1="1030.78" y2="1150.12"/>
  <line id="right-margin-Regular-M" style="fill:none;stroke:#00AEEF;stroke-width:0.5;opacity:1.0;" x1="1507.11" x2="1507.11" y1="1030.78" y2="1150.12"/>
 </g>
 <g id="Symbols">
  <g id="Black-L" transform="matrix(1 0 0 1 2860.48 1556)">
   <path d="M101.19-99.3076C101.23-99.3076 101.27-99.3076 101.31-99.3076L116.37-99.3076L116.72-99.3076C121.52-99.2776 126.15-97.5476 129.78-94.4276C133.54-91.1976 135.99-86.7076 136.66-81.7976C136.69-81.5876 136.71-81.3676 136.72-81.1476L136.73-80.8276L136.73-41.0176C136.73-40.6976 136.71-40.3676 136.66-40.0476C135.99-35.1376 133.54-30.6476 129.79-27.4276C126.15-24.2976 121.52-22.5676 116.72-22.5376L105.8-22.5376L84.9299 24.4224C83.8299 26.9024 81.4099 28.5324 78.7099 28.6324L78.4399 28.6424C72.0299 28.6424 65.8799 26.1024 61.3499 21.5724C56.8199 17.0424 54.2799 10.8924 54.2799 4.48232L54.2799-11.1676L28.7699-11.1676C26.4299-11.2076 24.1199-11.6876 21.9499-12.5876L21.4799-12.7876C19.0299-13.8876 16.8499-15.5076 15.1199-17.5176C13.3599-19.5276 12.0599-21.9176 11.3099-24.4876C10.5599-27.0576 10.3899-29.7676 10.7899-32.4276L18.6399-83.5976C19.3099-87.9976 21.5399-92.0176 24.9499-94.9176C28.3499-97.7876 32.6599-99.3576 37.0299-99.3076L101.19-99.3076ZM94.0899-85.1076L36.9499-85.1076C35.9299-85.1176 34.9299-84.7576 34.1399-84.0876C33.3499-83.4176 32.8299-82.4876 32.6799-81.4576L24.8299-30.2676C24.7399-29.6676 24.7799-29.0376 24.9499-28.4476C25.1199-27.8576 25.4199-27.2976 25.8399-26.8176C26.2399-26.3576 26.7399-25.9976 27.2999-25.7376C27.8599-25.4876 28.4799-25.3576 29.1799-25.3676L61.3799-25.3676C65.2999-25.3676 68.4799-22.1876 68.4799-18.2676L68.4799 4.48232C68.4799 7.13232 69.5299 9.67232 71.3899 11.5324C72.1699 12.3124 73.0599 12.9424 74.0299 13.4224L74.2399 13.5124L94.0899-31.1476L94.0899-85.1076ZM108.29-85.1076L108.29-36.7376L116.48-36.7376C117.98-36.7176 119.42-37.2276 120.54-38.1976C121.52-39.0376 122.2-40.1776 122.5-41.4376L122.53-41.6076L122.53-80.2376L122.5-80.4076C122.22-81.5776 121.62-82.6476 120.74-83.4676L120.53-83.6576C119.49-84.5576 118.16-85.0676 116.76-85.1076L108.29-85.1076Z"/>
  </g>
  <g id="Heavy-L" transform="matrix(1 0 0 1 2564.62 1556)">
   <path d="M83.3039 24.0442C82.3039 26.2942 80.0639 27.7542 77.5939 27.7542C71.4039 27.7542 65.4739 25.3042 61.1039 20.9342C56.7339 16.5642 54.2739 10.6342 54.2739 4.44426L54.2739-12.0558L27.9339-12.0558C25.7039-12.0958 23.5039-12.5458 21.4339-13.4058L20.9839-13.5958C18.6439-14.6558 16.5639-16.1958 14.9139-18.1158C13.2339-20.0358 11.9939-22.3058 11.2839-24.7558C10.5639-27.2158 10.3939-29.8058 10.7839-32.3358L18.6339-83.5158C19.2739-87.7158 21.3939-91.5358 24.6539-94.3158C27.9039-97.0558 32.0139-98.5458 36.1839-98.4958L100.344-98.4958C100.374-98.4958 100.404-98.4958 100.434-98.4958L115.424-98.4958C120.184-98.5658 124.794-96.9058 128.394-93.8158C131.994-90.7158 134.334-86.4058 134.964-81.7058C134.994-81.5158 135.014-81.3358 135.014-81.1458L135.024-80.8658L135.024-41.0558C135.024-40.7758 135.004-40.4958 134.964-40.2258C134.334-35.5158 131.994-31.2058 128.394-28.1058C124.904-25.1058 120.464-23.4558 115.964-23.4258L115.524-23.4258L104.404-23.4258L83.3039 24.0442ZM94.0939-85.9958L36.1139-85.9958C34.8839-86.0058 33.6739-85.5758 32.7339-84.7758C31.7939-83.9758 31.1839-82.8658 30.9939-81.6258L23.1439-30.4358C23.0339-29.7058 23.0839-28.9558 23.2839-28.2558C23.4939-27.5358 23.8539-26.8758 24.3539-26.3058C24.8339-25.7558 25.4239-25.3058 26.1039-25.0058C26.7839-24.6958 27.5139-24.5458 28.3339-24.5558L60.5239-24.5558C63.9739-24.5558 66.7739-21.7558 66.7739-18.3058L66.7739 4.44426C66.7739 7.31426 67.9139 10.0642 69.9439 12.0942C70.9939 13.1442 72.2439 13.9542 73.6039 14.4942L73.8339 14.5842L94.0939-31.0058L94.0939-85.9958ZM106.594-35.9258L115.624-35.9258C117.324-35.8958 118.964-36.4858 120.234-37.5858C121.374-38.5558 122.154-39.8658 122.474-41.3058L122.524-41.5458L122.524-80.3758L122.474-80.6158C122.174-81.9558 121.474-83.1858 120.454-84.1358L120.234-84.3358C119.044-85.3658 117.514-85.9558 115.844-85.9958L115.524-85.9958L106.594-85.9958L106.594-35.9258Z"/>
  </g>
  <g id="Bold-L" transform="matrix(1 0 0 1 2268.86 1556)">
   <path d="M81.4699 23.6544C80.6199 25.5744 78.7199 26.8044 76.6299 26.8044C70.6999 26.8044 65.0099 24.4544 60.8199 20.2644C56.6299 16.0644 54.2699 10.3744 54.2699 4.44446L54.2699-13.0056L26.9599-13.0056C24.8799-13.0456 22.8199-13.4656 20.8499-14.2756L20.3999-14.4656C18.1999-15.4656 16.2399-16.9256 14.6899-18.7156C13.0899-20.5356 11.9199-22.6856 11.2399-25.0256C10.5699-27.3356 10.4099-29.7756 10.7599-32.1856L18.6099-83.3656C19.2099-87.3356 21.2299-90.9656 24.2999-93.5756C27.3699-96.1756 31.2699-97.5856 35.2299-97.5456L99.3799-97.5456C99.4099-97.5456 99.4399-97.5456 99.4699-97.5456L114.49-97.5456C119-97.6156 123.38-96.0356 126.82-93.0956C130.24-90.1456 132.47-86.0456 133.07-81.5756C133.09-81.4156 133.11-81.2556 133.11-81.1056L133.12-80.8656L133.12-41.0556C133.12-40.8156 133.1-40.5856 133.07-40.3456C132.47-35.8756 130.24-31.7756 126.81-28.8256C123.49-25.9756 119.29-24.4056 115-24.3756L114.57-24.3756L102.82-24.3756L81.4699 23.6544ZM94.0799-86.9456L35.1699-86.9456C33.7099-86.9656 32.2799-86.4456 31.1699-85.4956C30.0499-84.5456 29.3099-83.2256 29.0899-81.7756L21.2399-30.6156C21.1099-29.7256 21.1699-28.8256 21.4199-27.9856C21.6699-27.1256 22.0899-26.3556 22.6799-25.6756C23.2499-25.0256 23.9599-24.4956 24.7399-24.1356C25.5599-23.7756 26.4399-23.5956 27.3799-23.6056L59.5699-23.6056C62.4999-23.6056 64.8699-21.2356 64.8699-18.3056L64.8699 4.44446C64.8699 7.56446 66.1099 10.5644 68.3199 12.7644C69.6999 14.1544 71.3999 15.1544 73.2499 15.7144L73.3899 15.7444L94.0799-30.8056L94.0799-86.9456ZM104.68-86.9456L104.68-34.9756L114.65-34.9756C116.59-34.9456 118.45-35.6156 119.9-36.8656C121.2-37.9756 122.09-39.4856 122.46-41.1356L122.52-41.4656L122.52-80.4556L122.52-80.4756C122.22-82.1456 121.39-83.6756 120.15-84.8356L119.91-85.0556C118.53-86.2356 116.79-86.8956 114.9-86.9456L104.68-86.9456Z"/>
  </g>
  <g id="Semibold-L" transform="matrix(1 0 0 1 1972.8 1556)">
   <path d="M80.2408 23.3946C79.4908 25.0746 77.8308 26.1546 75.9908 26.1546C70.2208 26.1546 64.7008 23.8746 60.6308 19.8046C56.5608 15.7246 54.2708 10.2046 54.2708 4.4446L54.2708-13.6554L26.3208-13.6554C24.3208-13.6954 22.3308-14.1054 20.4708-14.8754L20.0408-15.0554C17.9108-16.0154 16.0208-17.4154 14.5108-19.1654C12.9908-20.9054 11.8608-22.9754 11.2208-25.2054C10.5708-27.4354 10.4108-29.7954 10.7608-32.0954L18.6108-83.2754C19.1908-87.0854 21.1308-90.5654 24.0808-93.0854C27.0308-95.5754 30.7808-96.9354 34.5808-96.8954L98.7408-96.8954C98.7708-96.8954 98.8008-96.8954 98.8308-96.8954L113.851-96.8954C118.211-96.9654 122.441-95.4354 125.741-92.6054C129.051-89.7654 131.201-85.8154 131.781-81.4854C131.801-81.3554 131.811-81.2154 131.821-81.0754L131.821-80.8654L131.821-41.0554C131.821-40.8454 131.811-40.6454 131.781-40.4354C131.201-36.1054 129.051-32.1554 125.741-29.3254C122.551-26.5754 118.491-25.0654 114.351-25.0254L113.921-25.0254L101.761-25.0254L80.2408 23.3946ZM94.0908-87.5954L34.5308-87.5954C32.9208-87.6154 31.3408-87.0454 30.1008-85.9954C28.8608-84.9354 28.0508-83.4754 27.8108-81.8754L19.9608-30.6854C19.8108-29.7254 19.8708-28.7354 20.1408-27.8054C20.4208-26.8654 20.8908-25.9954 21.5408-25.2554C22.1708-24.5254 22.9608-23.9454 23.8508-23.5454C24.7408-23.1454 25.7008-22.9454 26.7308-22.9554L58.9208-22.9554C61.4908-22.9554 63.5708-20.8754 63.5708-18.3054L63.5708 4.4446C63.5708 7.7346 64.8808 10.8946 67.2108 13.2246C68.7908 14.8046 70.7508 15.9146 72.8708 16.4546L73.1208 16.5146L94.0908-30.6654L94.0908-87.5954ZM103.391-87.5954L103.391-34.3254L113.991-34.3254C116.091-34.2954 118.111-35.0254 119.681-36.3754C121.181-37.6554 122.171-39.4154 122.511-41.3554L122.521-41.4054L122.521-80.5154L122.511-80.5654C122.191-82.4054 121.291-84.0654 119.921-85.3354L119.681-85.5554C118.191-86.8354 116.301-87.5554 114.261-87.5954L103.391-87.5954Z"/>
  </g>
  <g id="Medium-L" transform="matrix(1 0 0 1 1676.59 1556)">
   <path d="M98.2372-96.3952C98.2672-96.3952 98.2972-96.3952 98.3172-96.3952L113.357-96.3952C117.597-96.4652 121.707-94.9852 124.907-92.2252C128.127-89.4652 130.217-85.6252 130.777-81.4252C130.797-81.2952 130.807-81.1752 130.817-81.0552L130.817-80.8652L130.817-41.0552C130.817-40.8752 130.807-40.6852 130.777-40.5052C130.217-36.2952 128.127-32.4552 124.917-29.7052C121.817-27.0352 117.867-25.5652 113.837-25.5252L100.937-25.5252L79.2772 23.1848C78.6372 24.6248 77.2572 25.5648 75.6972 25.6448L75.4872 25.6548C69.8572 25.6548 64.4572 23.4248 60.4872 19.4448C56.5072 15.4648 54.2672 10.0748 54.2672 4.44474L54.2672-14.1552L25.8272-14.1552C23.8872-14.1952 21.9672-14.5852 20.1572-15.3352L19.7472-15.5152C17.6772-16.4452 15.8472-17.7952 14.3872-19.4952C12.9172-21.1852 11.8172-23.1852 11.1972-25.3452C10.5672-27.5052 10.4172-29.7852 10.7572-32.0152L18.6072-83.1952C19.1672-86.8952 21.0472-90.2652 23.9072-92.7052C26.7572-95.1252 30.3872-96.4352 34.0772-96.3952L98.2372-96.3952ZM94.0872-88.0952L34.0372-88.0952C32.2972-88.1152 30.6072-87.5052 29.2772-86.3752C27.9472-85.2452 27.0672-83.6752 26.8072-81.9452L18.9572-30.7552C18.7972-29.7252 18.8672-28.6652 19.1572-27.6652C19.4572-26.6652 19.9672-25.7252 20.6572-24.9252C21.3372-24.1452 22.1772-23.5152 23.1372-23.0852C24.0972-22.6552 25.1272-22.4452 26.2272-22.4552L58.4172-22.4552C60.7072-22.4552 62.5672-20.5952 62.5672-18.3052L62.5672 4.44474C62.5672 7.87474 63.9272 11.1548 66.3472 13.5748C68.0772 15.3048 70.2472 16.4948 72.5972 17.0248L72.9072 17.0948L94.0872-30.5552L94.0872-88.0952ZM102.387-88.0952L102.387-33.8252L113.817-33.8252C115.907-33.8752 117.917-34.6352 119.507-35.9952C121.097-37.3552 122.147-39.2252 122.507-41.2852L122.517-41.3652L122.517-80.5552L122.507-80.6352C122.167-82.5852 121.207-84.3652 119.747-85.7152L119.497-85.9352C117.917-87.2852 115.907-88.0552 113.757-88.0952L102.387-88.0952Z"/>
  </g>
  <g id="Regular-L" transform="matrix(1 0 0 1 1380.53 1556)">
   <path d="M97.5912-95.7264C97.6212-95.7264 97.6412-95.7264 97.6712-95.7264L112.721-95.7264C116.801-95.7864 120.761-94.3664 123.841-91.7164C126.941-89.0564 128.941-85.3564 129.491-81.3164L129.511-81.0864L129.521-80.8464L129.521-41.0364C129.521-40.8764 129.511-40.7264 129.491-40.5664C128.941-36.5264 126.941-32.8264 123.841-30.1764C120.861-27.6064 117.071-26.1964 113.191-26.1564L99.8612-26.1564L78.0412 22.9436C77.5012 24.1436 76.3512 24.9436 75.0512 25.0136L74.8412 25.0236C69.3812 25.0236 64.1512 22.8636 60.2912 19.0036C56.4412 15.1536 54.2712 9.92366 54.2712 4.46366L54.2712-14.7864L25.6212-14.7864C23.6212-14.7664 21.6412-15.1464 19.7912-15.9064L19.3612-16.0864C17.3812-16.9764 15.6312-18.2764 14.2312-19.8964C12.8212-21.5164 11.7712-23.4364 11.1712-25.5064C10.5712-27.5764 10.4212-29.7664 10.7512-31.8964L18.6012-83.0764C19.1412-86.6264 20.9412-89.8564 23.6812-92.1864C26.4112-94.5064 29.8912-95.7664 33.4312-95.7264L97.5912-95.7264ZM94.0912-88.7264L33.3912-88.7264C31.5012-88.7464 29.6612-88.0764 28.2112-86.8564C26.7612-85.6164 25.8012-83.9064 25.5212-82.0264L17.6712-30.8364C17.5012-29.7164 17.5712-28.5564 17.8912-27.4664C18.2112-26.3664 18.7612-25.3464 19.5212-24.4864C20.2612-23.6264 21.1812-22.9464 22.2312-22.4764C23.2712-22.0064 24.4012-21.7764 25.5812-21.7864L57.7712-21.7864C59.7012-21.7864 61.2712-20.2164 61.2712-18.2864L61.2712 4.46366C61.2712 8.06366 62.7012 11.5136 65.2412 14.0536C67.2612 16.0736 69.8512 17.3836 72.6312 17.8436L72.6412 17.8436L94.0912-30.3964L94.0912-88.7264ZM101.091-33.1564L112.821-33.1564C115.201-33.1164 117.491-33.9464 119.281-35.4864C120.991-36.9464 122.121-38.9564 122.501-41.1664L122.521-41.2964L122.521-80.5864L122.501-80.7164C122.141-82.8164 121.101-84.7364 119.531-86.1764L119.281-86.4064C117.581-87.8664 115.421-88.6864 113.121-88.7264L101.091-88.7264L101.091-33.1564Z"/>
  </g>
  <g id="Light-L" transform="matrix(1 0 0 1 1084.62 1556)">
   <path d="M96.7908-94.9262C96.8108-94.9262 96.8308-94.9262 96.8508-94.9262L111.931-94.9262C115.821-94.9862 119.591-93.6262 122.521-91.1062C125.471-88.5762 127.381-85.0562 127.901-81.2062L127.911-81.0262L127.921-80.8462L127.921-41.0362C127.921-40.9162 127.911-40.7962 127.901-40.6762C127.381-36.8262 125.471-33.3062 122.521-30.7762C119.691-28.3362 116.071-26.9962 112.371-26.9562L98.5408-26.9562L76.5108 22.6238C76.1008 23.5338 75.2208 24.1438 74.2308 24.2138L74.0408 24.2238C68.7908 24.2238 63.7608 22.1438 60.0608 18.4438C56.3508 14.7338 54.2708 9.7038 54.2708 4.4638L54.2708-15.5862L24.8108-15.5862C22.9208-15.5662 21.0508-15.9262 19.2908-16.6462L18.8908-16.8162C17.0208-17.6562 15.3608-18.8862 14.0308-20.4262C12.7008-21.9562 11.7108-23.7762 11.1408-25.7362C10.5708-27.6862 10.4308-29.7562 10.7408-31.7762L18.5908-82.9562C19.1008-86.3162 20.8008-89.3662 23.3908-91.5762C25.9808-93.7662 29.2808-94.9662 32.6308-94.9262L96.7908-94.9262ZM94.0908-89.5262L32.6008-89.5262C30.5208-89.5462 28.4908-88.8162 26.8908-87.4562C25.2908-86.0962 24.2408-84.2162 23.9308-82.1462L16.0808-30.9562C15.8908-29.7162 15.9708-28.4462 16.3208-27.2462C16.6708-26.0362 17.2908-24.9162 18.1108-23.9662C18.9308-23.0162 19.9508-22.2562 21.1008-21.7462C22.2508-21.2262 23.4908-20.9662 24.7808-20.9862L56.9708-20.9862C58.4608-20.9862 59.6708-19.7762 59.6708-18.2862L59.6708 4.4638C59.6708 8.2738 61.1808 11.9338 63.8808 14.6238C66.1108 16.8538 68.9908 18.2638 72.0808 18.6938L72.3308 18.7238L94.0908-30.2262L94.0908-89.5262ZM99.4908-32.3562L112.361-32.3562C114.811-32.3962 117.161-33.2862 119.001-34.8762C120.861-36.4662 122.091-38.6562 122.491-41.0662L122.521-41.2362L122.521-80.6462L122.491-80.8162C122.111-83.1162 120.971-85.2162 119.251-86.7862L119.001-87.0062C117.161-88.5962 114.811-89.4862 112.331-89.5262L99.4908-89.5262L99.4908-32.3562Z"/>
  </g>
  <g id="Thin-L" transform="matrix(1 0 0 1 788.955 1556)">
   <path d="M95.7367-93.876C95.7527-93.876 95.7687-93.876 95.7837-93.876L110.897-93.876C114.527-93.936 118.045-92.666 120.788-90.306C123.439-88.026 125.195-84.886 125.753-81.446L125.81-81.066L125.825-80.846L125.825-41.036L125.81-40.816C125.324-37.226 123.538-33.936 120.788-31.576C118.143-29.296 114.777-28.046 111.309-28.006L96.8077-28.006L74.4947 22.194C74.2497 22.744 73.7277 23.114 73.1357 23.164L72.9867 23.174C68.0197 23.174 63.2617 21.204 59.7547 17.704C56.2457 14.194 54.2747 9.43406 54.2747 4.46406L54.2747-16.636L23.7537-16.636C22.0147-16.616 20.2887-16.946 18.6697-17.596L18.2667-17.776C16.5377-18.556 15.0067-19.696 13.7777-21.106C12.5407-22.526 11.6247-24.206 11.0967-26.026C10.5697-27.836 10.4437-29.746 10.7277-31.616L18.5757-82.806C19.0467-85.906 20.6237-88.736 23.0207-90.776C25.4177-92.806 28.4657-93.906 31.5817-93.876L95.7367-93.876ZM94.0867-90.576L31.5637-90.576C29.2257-90.606 26.9467-89.776 25.1567-88.256C23.3677-86.736 22.1897-84.626 21.8377-82.306L13.9897-31.116C13.7777-29.726 13.8717-28.296 14.2647-26.946C14.6597-25.586 15.3437-24.336 16.2677-23.276C17.1867-22.216 18.3307-21.366 19.6177-20.786C20.9097-20.206 22.3067-19.916 23.7337-19.936L55.9247-19.936C56.8357-19.936 57.5747-19.196 57.5747-18.286L57.5747 4.46406C57.5747 8.55406 59.1977 12.474 62.0887 15.364C64.6957 17.974 68.1457 19.554 71.8037 19.834L71.9307 19.834L94.0867-30.006L94.0867-90.576ZM111.279-90.576L97.3867-90.576L97.3867-31.306L111.301-31.306C114-31.346 116.596-32.326 118.637-34.076C120.685-35.836 122.045-38.256 122.487-40.906L122.525-41.156L122.525-80.726L122.487-80.976C122.064-83.506 120.802-85.836 118.901-87.576L118.637-87.806C116.596-89.556 114-90.536 111.279-90.576Z"/>
  </g>
  <g id="Ultralight-L" transform="matrix(1 0 0 1 492.794 1556)">
   <path d="M95.1871-93.307C95.1991-93.307 95.2101-93.307 95.2221-93.307L110.356-93.307C113.851-93.357 117.238-92.147 119.88-89.877C122.429-87.677 124.118-84.667 124.658-81.357L124.715-80.977L124.725-80.827L124.725-41.017L124.715-40.867C124.247-37.417 122.527-34.247 119.88-31.977C117.336-29.787 114.101-28.577 110.759-28.537L95.9011-28.537L73.4421 21.993C73.2831 22.343 72.9481 22.593 72.5661 22.633L72.4371 22.643C67.6161 22.643 62.9981 20.733 59.5941 17.333C56.1881 13.923 54.2751 9.30298 54.2751 4.48298L54.2751-17.167L23.1971-17.167C21.5321-17.147 19.8781-17.467 18.3291-18.087L17.9441-18.257C16.2871-19.007 14.8201-20.097 13.6421-21.457C12.4581-22.807 11.5811-24.417 11.0751-26.157C10.5701-27.897 10.4491-29.727 10.7221-31.517L18.5691-82.707C19.0211-85.677 20.5321-88.387 22.8261-90.337C25.1231-92.287 28.0431-93.337 31.0321-93.307L95.1871-93.307ZM94.0871-91.107L31.0201-91.107C28.5491-91.137 26.1421-90.267 24.2501-88.657C22.3611-87.047 21.1161-84.817 20.7441-82.367L12.8961-31.187C12.6721-29.707 12.7721-28.197 13.1871-26.777C13.6041-25.347 14.3271-24.017 15.3031-22.897C16.2741-21.777 17.4821-20.877 18.8441-20.267C20.2081-19.657 21.6841-19.347 23.1841-19.367L55.3751-19.367C55.9821-19.367 56.4751-18.877 56.4751-18.267L56.4751 4.48298C56.4751 8.72298 58.1561 12.783 61.1501 15.773C63.9471 18.573 67.6801 20.223 71.6191 20.423L71.7301 20.423L94.0871-29.867L94.0871-91.107ZM110.744-91.107L96.2871-91.107L96.2871-30.737L110.759-30.737C113.586-30.777 116.306-31.807 118.446-33.647C120.592-35.487 122.017-38.017 122.48-40.797L122.525-41.097L122.525-80.747L122.48-81.047C122.037-83.707 120.714-86.137 118.722-87.957L118.446-88.207C116.306-90.047 113.586-91.067 110.744-91.107Z"/>
  </g>
  <g id="Black-M" transform="matrix(1 0 0 1 2872.54 1126)">
   <path d="M71.848 12.1918C70.708 14.7618 68.168 16.4118 65.358 16.4118C59.928 16.4118 54.708 14.2518 50.868 10.4118C47.028 6.57172 44.868 1.36172 44.868-4.06828L44.868-14.8182L26.758-14.8182C24.608-14.7982 22.468-15.2182 20.508-16.0282L20.098-16.2082C17.958-17.1582 16.038-18.5782 14.518-20.3382C12.988-22.0882 11.868-24.1582 11.218-26.3782C10.568-28.6182 10.408-30.9782 10.768-33.2682L16.918-73.4382C17.518-77.2582 19.458-80.7282 22.378-83.2082C25.318-85.7182 29.068-87.0782 32.868-87.0382L83.208-87.0382C83.228-87.0382 83.248-87.0382 83.268-87.0382L95.428-87.0382C99.548-87.0082 103.518-85.5182 106.648-82.8382C109.868-80.0682 111.978-76.1882 112.558-71.9682C112.578-71.7582 112.598-71.5382 112.608-71.3282L112.618-71.0082L112.618-39.7682C112.618-39.4482 112.598-39.1282 112.558-38.8082C111.978-34.5982 109.878-30.7382 106.628-27.9282C103.488-25.2482 99.518-23.7682 95.408-23.7482L95.118-23.7482L87.818-23.7482L71.848 12.1918ZM76.108-72.8382L32.808-72.8382C32.358-72.8482 31.928-72.6882 31.578-72.3882C31.248-72.1082 31.028-71.7082 30.958-71.2782L24.798-31.0982C24.768-30.8582 24.778-30.5882 24.858-30.3382C24.928-30.0882 25.058-29.8482 25.248-29.6382C25.408-29.4482 25.618-29.2982 25.868-29.1882C26.118-29.0782 26.388-29.0182 26.708-29.0182L51.968-29.0182C55.888-29.0182 59.068-25.8382 59.068-21.9182L59.068-4.06828C59.068-2.40828 59.728-0.808284 60.908 0.371716C61.048 0.511716 61.188 0.641716 61.338 0.761716L61.378 0.791716L76.108-32.3582L76.108-72.8382ZM95.228-72.8382L90.308-72.8382L90.308-37.9482L95.258-37.9482C96.038-37.9282 96.798-38.2082 97.378-38.6982C97.878-39.1282 98.228-39.6982 98.398-40.3082L98.418-40.3982L98.418-70.3882L98.398-70.4682C98.248-71.0182 97.948-71.5182 97.548-71.9182L97.388-72.0682C96.848-72.5282 96.168-72.7982 95.448-72.8382L95.228-72.8382Z"/>
  </g>
  <g id="Heavy-M" transform="matrix(1 0 0 1 2576.67 1126)">
   <path d="M70.2176 11.8136C69.2176 14.0736 66.9776 15.5236 64.5076 15.5236C59.2976 15.5236 54.2976 13.4536 50.6176 9.77368C46.9376 6.09368 44.8676 1.10368 44.8676-4.10632L44.8676-15.7064L25.9076-15.7064C23.8576-15.6864 21.8376-16.0864 19.9776-16.8564L19.5876-17.0264C17.5676-17.9164 15.7476-19.2664 14.3076-20.9264C12.8676-22.5964 11.7976-24.5464 11.1876-26.6564C10.5676-28.7764 10.4176-31.0064 10.7576-33.1764L16.9176-73.3164C17.4576-76.9364 19.2976-80.2464 22.0776-82.5964C24.8676-84.9764 28.4176-86.2564 32.0176-86.2264L82.3576-86.2264C82.3776-86.2264 82.3976-86.2264 82.4176-86.2264L94.1676-86.2264C98.2276-86.2864 102.168-84.8764 105.228-82.2364C108.308-79.6064 110.318-75.9164 110.858-71.8864C110.888-71.7064 110.908-71.5164 110.908-71.3264L110.918-71.0464L110.918-39.8064C110.918-39.5264 110.898-39.2464 110.858-38.9664C110.318-34.9464 108.318-31.2664 105.228-28.6164C102.248-26.0664 98.4676-24.6564 94.5676-24.6364L94.2676-24.6364L86.4176-24.6364L70.2176 11.8136ZM76.1076-73.7264L31.9576-73.7264C31.3076-73.7364 30.6776-73.5064 30.1776-73.0764C29.6976-72.6664 29.3776-72.0964 29.2776-71.4364L23.1076-31.2564C23.0576-30.8964 23.0776-30.5164 23.1876-30.1364C23.2976-29.7764 23.4876-29.4264 23.7476-29.1164C23.9976-28.8364 24.3076-28.6064 24.6676-28.4464C25.0276-28.2864 25.4176-28.2064 25.8576-28.2064L51.1176-28.2064C54.5676-28.2064 57.3676-25.4064 57.3676-21.9564L57.3676-4.10632C57.3676-2.21632 58.1176-0.406322 59.4576 0.933678C59.8776 1.35368 60.3476 1.72368 60.8576 2.02368L60.8876 2.03368L76.1076-32.2164L76.1076-73.7264ZM88.6076-37.1364L94.3876-37.1364C95.3776-37.1164 96.3376-37.4664 97.0976-38.1064C97.7376-38.6564 98.1876-39.3864 98.3876-40.1964L98.4176-40.3364L98.4176-70.5164L98.3876-70.6564C98.1976-71.3964 97.8176-72.0664 97.2676-72.5964L97.0976-72.7464C96.3976-73.3464 95.5176-73.6864 94.5176-73.7264L94.2676-73.7264L88.6076-73.7264L88.6076-37.1364Z"/>
  </g>
  <g id="Bold-M" transform="matrix(1 0 0 1 2280.91 1126)">
   <path d="M68.3976 11.453C67.5476 13.373 65.6476 14.603 63.5576 14.603C58.5976 14.603 53.8476 12.633 50.3276 9.12298C46.8376 5.61298 44.8676 0.86298 44.8676-4.08702L44.8676-16.637L24.9476-16.637C23.0376-16.627 21.1476-16.987 19.3876-17.707L18.9876-17.887C17.1076-18.727 15.4276-19.977 14.0776-21.537C12.7176-23.097 11.7176-24.927 11.1476-26.897C10.5676-28.887 10.4276-30.987 10.7476-33.007L16.9076-73.157C17.4176-76.557 19.1376-79.647 21.7576-81.867C24.3776-84.087 27.7076-85.297 31.0676-85.247L81.4076-85.247C81.4276-85.247 81.4476-85.247 81.4676-85.247L93.3176-85.247L93.6176-85.247C97.2976-85.227 100.858-83.897 103.668-81.487C106.578-78.997 108.458-75.527 108.968-71.737C108.988-71.587 109.008-71.427 109.008-71.267L109.018-71.027L109.018-39.787C109.018-39.547 108.998-39.307 108.968-39.077C108.458-35.287 106.578-31.817 103.658-29.317C100.858-26.917 97.2976-25.587 93.6176-25.567L93.3176-25.567L84.8476-25.567L68.3976 11.453ZM76.1076-74.647L30.9976-74.647C30.1376-74.657 29.2876-74.357 28.6176-73.787C27.9576-73.227 27.5176-72.437 27.3876-71.567L21.2276-31.387C21.1476-30.887 21.1776-30.357 21.3276-29.847C21.4676-29.347 21.7276-28.897 22.0776-28.477C22.4276-28.087 22.8476-27.767 23.3276-27.547C23.7976-27.337 24.3176-27.237 24.9076-27.237L50.1676-27.237C53.0976-27.237 55.4676-24.867 55.4676-21.937L55.4676-4.08702C55.4676-1.94702 56.3176 0.11298 57.8376 1.63298C58.5576 2.35298 59.3976 2.92298 60.3176 3.33298L60.3976 3.36298L76.1076-31.997L76.1076-74.647ZM86.7076-36.167L93.3176-36.167L93.4176-36.167C94.6376-36.147 95.8276-36.567 96.7676-37.367C97.5676-38.057 98.1176-38.967 98.3676-39.987L98.4176-40.217L98.4176-70.597L98.3676-70.827C98.1376-71.757 97.6576-72.607 96.9676-73.267L96.7776-73.437C95.8976-74.187 94.8076-74.607 93.6876-74.647L86.7076-74.647L86.7076-36.167Z"/>
  </g>
  <g id="Semibold-M" transform="matrix(1 0 0 1 1984.85 1126)">
   <path d="M67.1496 11.1554C66.3996 12.8354 64.7396 13.9154 62.8996 13.9154C58.1196 13.9154 53.5296 12.0154 50.1496 8.62542C46.7696 5.23542 44.8696 0.655414 44.8696-4.12458L44.8696-17.3246L24.2996-17.3246C22.4696-17.3146 20.6796-17.6546 19.0096-18.3346L18.5896-18.5146C16.7996-19.3246 15.1996-20.5046 13.9096-21.9946C12.6096-23.4846 11.6696-25.2346 11.1296-27.0846C10.5696-28.9746 10.4396-30.9646 10.7296-32.9446L16.8896-73.0946C17.3796-76.3346 19.0196-79.2946 21.5196-81.4146C24.0196-83.5346 27.1996-84.6746 30.4196-84.6346L80.7496-84.6346C80.7696-84.6346 80.7896-84.6346 80.7996-84.6346L92.5796-84.6346C96.2396-84.7046 99.8096-83.4146 102.59-81.0346C105.37-78.6446 107.18-75.3146 107.68-71.6946C107.7-71.5546 107.71-71.4146 107.72-71.2746L107.72-71.0646L107.72-39.8246C107.72-39.6146 107.71-39.4046 107.68-39.1946C107.18-35.5746 105.37-32.2446 102.59-29.8546C99.9098-27.5546 96.4896-26.2746 93.0496-26.2546L92.6696-26.2546L83.7696-26.2546L67.1496 11.1554ZM76.0996-75.3346L30.3596-75.3346C29.3296-75.3546 28.3296-74.9846 27.5396-74.3146C26.7596-73.6546 26.2396-72.7346 26.0896-71.6946L19.9296-31.5646C19.8396-30.9346 19.8796-30.3046 20.0596-29.7046C20.2296-29.1046 20.5196-28.5646 20.9296-28.0946C21.3396-27.6246 21.8396-27.2546 22.4096-26.9946C22.9596-26.7446 23.5796-26.6146 24.2596-26.6246L49.5196-26.6246C52.0896-26.6246 54.1696-24.5446 54.1696-21.9746L54.1696-4.12458C54.1696-1.80458 55.0896 0.415414 56.7296 2.05542C57.6196 2.95542 58.6896 3.63542 59.8496 4.06542L60.0796 4.14542L76.0996-31.8946L76.0996-75.3346ZM85.3996-35.5546L92.7596-35.5546C94.1296-35.5246 95.4796-36.0146 96.5296-36.9146C97.4496-37.7046 98.0896-38.7546 98.3596-39.9146L98.4196-40.1946L98.4196-70.6946L98.4196-70.7146C98.1996-71.8846 97.6096-72.9646 96.7396-73.7946L96.5296-73.9746C95.5496-74.8146 94.3096-75.2946 92.9596-75.3346L92.6696-75.3346L85.3996-75.3346L85.3996-35.5546Z"/>
  </g>
  <g id="Medium-M" transform="matrix(1 0 0 1 1688.64 1126)">
   <path d="M66.1904 10.9556C65.5304 12.4456 64.0404 13.4156 62.4004 13.4156C57.7504 13.4156 53.2904 11.5656 50.0004 8.27558C46.7104 4.97558 44.8704 0.525578 44.8704-4.12442L44.8704-17.8244L23.7904-17.8244C22.0404-17.8144 20.3104-18.1344 18.7004-18.7944L18.3004-18.9644C16.5704-19.7444 15.0304-20.8944 13.7804-22.3244C12.5404-23.7644 11.6304-25.4344 11.1104-27.2244C10.5704-29.0444 10.4404-30.9644 10.7304-32.8744L16.8904-73.0244C17.3604-76.1444 18.9404-78.9944 21.3504-81.0344C23.7504-83.0744 26.8204-84.1744 29.9204-84.1344L80.2504-84.1344C80.2604-84.1344 80.2804-84.1344 80.2904-84.1344L92.0904-84.1344C95.6204-84.2044 99.0804-82.9544 101.761-80.6544C104.451-78.3444 106.211-75.1244 106.681-71.6244C106.701-71.5044 106.711-71.3744 106.721-71.2544L106.721-71.0644L106.721-39.8244C106.721-39.6344 106.711-39.4544 106.681-39.2644C106.211-35.7544 104.451-32.5444 101.761-30.2344C99.1804-28.0144 95.8804-26.7744 92.5504-26.7544L92.1704-26.7544L82.9504-26.7544L66.1904 10.9556ZM76.1004-75.8344L29.8604-75.8344C28.7204-75.8544 27.6004-75.4444 26.7104-74.6944C25.8404-73.9544 25.2604-72.9244 25.0904-71.7744L18.9304-31.6344C18.8304-30.9344 18.8804-30.2344 19.0804-29.5644C19.2704-28.8944 19.6004-28.2944 20.0604-27.7644C20.5104-27.2444 21.0704-26.8244 21.7004-26.5444C22.3204-26.2644 23.0104-26.1144 23.7604-26.1244L49.0204-26.1244C51.3104-26.1244 53.1704-24.2644 53.1704-21.9744L53.1704-4.12442C53.1704-1.67442 54.1404 0.675578 55.8704 2.41558C56.9304 3.46558 58.2104 4.23558 59.6004 4.68558L59.8604 4.75558L76.1004-31.7844L76.1004-75.8344ZM84.4004-35.0544L92.2504-35.0544C93.7504-35.0244 95.2204-35.5544 96.3604-36.5344C97.4404-37.4644 98.1604-38.7244 98.4104-40.1044L98.4204-40.1444L98.4204-70.7444L98.4104-70.7844C98.1804-72.0744 97.5304-73.2544 96.5704-74.1644L96.3604-74.3544C95.2904-75.2744 93.9304-75.7944 92.4604-75.8344L84.4004-75.8344L84.4004-35.0544Z"/>
  </g>
  <g id="Regular-M" transform="matrix(1 0 0 1 1392.58 1126)">
   <path d="M64.9496 10.6858C64.3896 11.9558 63.1296 12.7658 61.7496 12.7658C57.2696 12.7658 52.9796 10.9858 49.8096 7.81584C46.6496 4.63584 44.8696 0.355844 44.8696-4.12416L44.8696-18.4742L23.1396-18.4742C21.4696-18.4642 19.8196-18.7742 18.2996-19.3942L17.9196-19.5642C16.2696-20.3042 14.8096-21.3842 13.6296-22.7542C12.4396-24.1142 11.5796-25.7042 11.0896-27.4142C10.5696-29.1342 10.4496-30.9642 10.7196-32.7742L16.8796-72.9242C17.3196-75.8942 18.8296-78.5942 21.1196-80.5342C23.4096-82.4742 26.3196-83.5242 29.2696-83.4842L79.5996-83.4842L91.4496-83.4842C94.8296-83.5542 98.1196-82.3642 100.69-80.1542C103.26-77.9542 104.93-74.8842 105.39-71.5342L105.41-71.3042L105.42-71.0642L105.42-39.8242C105.42-39.6642 105.41-39.5042 105.39-39.3542C104.93-36.0042 103.26-32.9342 100.69-30.7242C98.2196-28.6142 95.0796-27.4342 91.8996-27.4042L91.5196-27.4042L81.8796-27.4042L64.9496 10.6858ZM76.0996-76.4842L29.2196-76.4842C27.9196-76.5042 26.6496-76.0442 25.6396-75.1942C24.6496-74.3542 23.9996-73.1742 23.7996-71.8742L17.6396-31.7342C17.5196-30.9342 17.5796-30.1442 17.7996-29.3842C18.0196-28.6242 18.3996-27.9342 18.9096-27.3342C19.4296-26.7442 20.0696-26.2642 20.7796-25.9442C21.4896-25.6242 22.2696-25.4642 23.1096-25.4742L48.3696-25.4742C50.2996-25.4742 51.8696-23.9042 51.8696-21.9742L51.8696-4.12416C51.8696-1.50416 52.9096 1.00584 54.7596 2.87584C56.0796 4.18584 57.7196 5.08584 59.4996 5.50584L59.5796 5.52584L76.0996-31.6442L76.0996-76.4842ZM83.0996-76.4842L83.0996-34.4042L91.5896-34.4042C93.2396-34.3742 94.8696-34.9542 96.1296-36.0342C97.3296-37.0642 98.1296-38.4742 98.4096-40.0042L98.4196-40.0942L98.4196-70.7942L98.4096-70.8842C98.1496-72.3242 97.4296-73.6442 96.3496-74.6542L96.1296-74.8442C94.9396-75.8642 93.4296-76.4442 91.8196-76.4842L83.0996-76.4842Z"/>
  </g>
  <g id="Light-M" transform="matrix(1 0 0 1 1096.67 1126)">
   <path d="M63.4196 10.3846C62.9796 11.3546 62.0196 11.9846 60.9496 11.9846C56.6796 11.9846 52.5996 10.2946 49.5796 7.26458C46.5596 4.24458 44.8696 0.154584 44.8696-4.10542L44.8696-19.2554L22.3296-19.2554C20.7796-19.2454 19.2496-19.5354 17.8296-20.1054L17.4396-20.2754C15.9096-20.9654 14.5396-21.9854 13.4296-23.2554C12.3196-24.5354 11.5096-26.0254 11.0496-27.6254C10.5696-29.2354 10.4596-30.9454 10.7096-32.6354L16.8696-72.7854C17.2896-75.5654 18.6996-78.0954 20.8296-79.9054C22.9796-81.7254 25.6996-82.7054 28.4696-82.6654L78.7996-82.6654L90.6696-82.6654C93.8496-82.7254 96.9496-81.6054 99.3696-79.5354C101.79-77.4554 103.37-74.5654 103.8-71.4054L103.81-71.2254L103.82-71.0454L103.82-39.8054C103.82-39.6854 103.81-39.5654 103.8-39.4454C103.37-36.2854 101.79-33.3954 99.3696-31.3154C97.0496-29.3254 94.0896-28.2154 91.0996-28.1854L90.7196-28.1854L80.5596-28.1854L63.4196 10.3846ZM76.0996-77.2654L28.4296-77.2654C26.9296-77.2854 25.4796-76.7654 24.3296-75.7854C23.1796-74.8154 22.4296-73.4654 22.2096-71.9754L16.0496-31.8254C15.9196-30.9254 15.9796-30.0054 16.2296-29.1454C16.4896-28.2754 16.9196-27.4754 17.5096-26.7954C18.0996-26.1154 18.8296-25.5654 19.6596-25.1954C20.4696-24.8354 21.3596-24.6454 22.3096-24.6554L47.5696-24.6554C49.0596-24.6554 50.2696-23.4454 50.2696-21.9554L50.2696-4.10542C50.2696-1.27542 51.3896 1.44458 53.3996 3.45458C54.9196 4.97458 56.8596 5.99458 58.9396 6.39458L59.2596 6.44458L76.0996-31.4554L76.0996-77.2654ZM81.4996-77.2654L81.4996-33.5854L90.7696-33.5854C92.6196-33.5454 94.4396-34.2054 95.8496-35.4154C97.1896-36.5654 98.0896-38.1454 98.3996-39.8654L98.4196-40.0154L98.4196-70.8454L98.3996-70.9854C98.1096-72.6054 97.2996-74.0954 96.0796-75.2254L95.8496-75.4354C94.5196-76.5854 92.8196-77.2254 91.0396-77.2654L81.4996-77.2654Z"/>
  </g>
  <g id="Thin-M" transform="matrix(1 0 0 1 801.01 1126)">
   <path d="M61.4096 9.95498C61.1446 10.555 60.5536 10.935 59.9016 10.935C55.9136 10.935 52.0886 9.35496 49.2656 6.52496C46.4456 3.69496 44.8636-0.125037 44.8636-4.10504L44.8636-20.305L21.2686-20.305C19.8576-20.295 18.4656-20.555 17.1746-21.085L16.8246-21.225C15.4236-21.855 14.1776-22.785 13.1726-23.945C12.1626-25.105 11.4236-26.465 10.9996-27.935C10.5716-29.405 10.4696-30.955 10.6996-32.475L16.8586-72.635C17.2396-75.155 18.5216-77.455 20.4666-79.105C22.4156-80.755 24.8916-81.655 27.4146-81.615L77.7516-81.615L89.6326-81.615C92.5576-81.675 95.4056-80.645 97.6386-78.735C99.7686-76.905 101.184-74.385 101.644-71.625L101.699-71.265L101.714-71.045L101.714-39.805L101.699-39.585C101.306-36.685 99.8616-34.025 97.6356-32.115C95.4986-30.285 92.7936-29.265 90.0266-29.235L89.6656-29.235L78.8236-29.235L61.4096 9.95498ZM76.1016-78.315L27.3926-78.315C25.6456-78.335 23.9426-77.725 22.5996-76.585C21.2646-75.455 20.3836-73.875 20.1206-72.135L13.9616-31.975C13.8036-30.935 13.8746-29.865 14.1686-28.855C14.4616-27.845 14.9686-26.915 15.6666-26.105C16.3576-25.305 17.2126-24.675 18.1766-24.245C19.1286-23.815 20.1746-23.595 21.2556-23.605L46.5136-23.605C47.4246-23.605 48.1636-22.865 48.1636-21.955L48.1636-4.10504C48.1636-0.995038 49.3996 1.98496 51.6016 4.19496C53.4766 6.07496 55.9206 7.24496 58.5286 7.55496L58.8496 7.58496L76.1016-31.235L76.1016-78.315ZM79.4006-32.535L89.6986-32.535C91.8116-32.495 93.8736-33.235 95.4866-34.615C97.0126-35.925 98.0326-37.725 98.3776-39.695L98.4136-39.935L98.4136-70.915L98.3776-71.155C98.0516-73.015 97.1246-74.725 95.7396-76.005L95.4896-76.235C93.9586-77.545 92.0276-78.275 90.0036-78.315L79.4006-78.315L79.4006-32.535Z"/>
  </g>
  <g id="Ultralight-M" transform="matrix(1 0 0 1 504.849 1126)">
   <path d="M60.3559 9.7352C60.1799 10.1252 59.7859 10.3852 59.3509 10.3852C55.5089 10.3852 51.8249 8.8552 49.1059 6.1452C46.3879 3.4152 44.8639-0.264798 44.8639-4.1048L44.8639-20.8548L20.7139-20.8548C19.3859-20.8448 18.0779-21.0848 16.8619-21.5748L16.5009-21.7348C15.1719-22.3248 13.9909-23.2048 13.0389-24.3048C12.0809-25.4148 11.3809-26.6948 10.9779-28.0848C10.5719-29.4848 10.4749-30.9548 10.6939-32.3948L16.8509-72.5548C17.2139-74.9448 18.4289-77.1248 20.2719-78.6848C22.1189-80.2548 24.4669-81.0948 26.8639-81.0648L77.2009-81.0648C77.2119-81.0648 77.2239-81.0648 77.2349-81.0648L89.0939-81.0648C91.8829-81.1248 94.6009-80.1448 96.7309-78.3148C98.7629-76.5648 100.113-74.1648 100.552-71.5348L100.604-71.1948L100.614-71.0448L100.614-39.8048L100.604-39.6548C100.229-36.8948 98.8509-34.3548 96.7279-32.5248C94.6939-30.7848 92.1179-29.8148 89.4769-29.7848L89.1159-29.7848L77.9159-29.7848L60.3559 9.7352ZM76.1009-78.8648L26.8489-78.8648C24.9699-78.8948 23.1369-78.2248 21.6939-77.0048C20.2579-75.7848 19.3099-74.0848 19.0259-72.2148L12.8689-32.0648C12.6979-30.9348 12.7739-29.7848 13.0909-28.7048C13.4049-27.6148 13.9509-26.6148 14.7009-25.7448C15.4439-24.8848 16.3649-24.2048 17.4019-23.7348C18.4269-23.2748 19.5499-23.0448 20.7059-23.0548L45.9639-23.0548C46.5709-23.0548 47.0639-22.5648 47.0639-21.9548L47.0639-4.1048C47.0639-0.844798 48.3569 2.2752 50.6629 4.5852C52.7969 6.7152 55.6339 7.9852 58.6289 8.1652L58.6449 8.1652L76.1009-31.1248L76.1009-78.8648ZM78.2999-31.9848L89.1379-31.9848C91.3859-31.9448 93.5799-32.7348 95.2949-34.1948C96.9229-35.6048 98.0079-37.5148 98.3719-39.6148L98.4139-39.8948L98.4139-70.9548L98.3719-71.2348C98.0279-73.2248 97.0349-75.0448 95.5499-76.4248L95.2979-76.6448C93.6659-78.0448 91.6039-78.8248 89.4559-78.8648L78.2999-78.8648L78.2999-31.9848Z"/>
  </g>
  <g id="Black-S" transform="matrix(1 0 0 1 2882.01 696)">
   <path d="M69.064-77.5054C69.104-77.5054 69.144-77.5044 69.184-77.5044L78.684-77.5044C82.264-77.4744 85.724-76.1784 88.424-73.8514C91.254-71.4314 93.094-68.0584 93.594-64.3714C93.624-64.1574 93.644-63.9424 93.654-63.7274L93.664-63.4034L93.664-38.9034C93.664-38.5804 93.644-38.2574 93.594-37.9374C93.094-34.2474 91.254-30.8744 88.444-28.4714C85.724-26.1304 82.264-24.8334 78.684-24.8034L73.674-24.8044L61.554 2.47958C60.454 4.96058 58.034 6.58858 55.334 6.69058L55.064 6.69658C50.404 6.69658 45.924 4.84158 42.624 1.54258C39.324-1.75842 37.464-6.23542 37.464-10.9034L37.464-17.8044L24.404-17.8064C22.654-17.8394 20.924-18.1994 19.294-18.8704L18.884-19.0444C17.024-19.8854 15.354-21.1244 14.054-22.6354C12.694-24.1864 11.694-26.0134 11.134-27.9904C10.574-29.9424 10.434-31.9934 10.734-34.0304L15.564-65.5054C16.064-68.8764 17.784-71.9474 20.364-74.1374C22.954-76.3464 26.254-77.5414 29.584-77.5054L69.064-77.5054ZM61.964-63.3054L29.594-63.3054L24.794-32.0044L44.564-32.0034C48.404-32.0034 51.534-28.9534 51.664-25.1434L51.664-24.9034L51.664-10.9034C51.664-10.7544 51.674-10.6054 51.694-10.4584L51.714-10.3454L61.964-33.4114L61.964-63.3054ZM78.544-63.3054L76.164-63.3054L76.164-39.0034L78.544-39.0024C78.774-38.9984 79.004-39.0804 79.204-39.2514C79.294-39.3264 79.364-39.4174 79.424-39.5224L79.464-39.6224L79.464-62.6864L79.414-62.7874C79.374-62.8584 79.334-62.9244 79.274-62.9854L79.184-63.0714C79.034-63.2014 78.854-63.2794 78.654-63.3004L78.544-63.3054Z"/>
  </g>
  <g id="Heavy-S" transform="matrix(1 0 0 1 2586.15 696)">
   <path d="M68.214-76.6514C68.234-76.6514 68.254-76.6514 68.274-76.6514L77.844-76.6514C81.214-76.6184 84.474-75.3964 87.024-73.2014C89.694-70.9174 91.424-67.7344 91.904-64.2524C91.934-64.0634 91.944-63.8744 91.954-63.6854L91.964-63.4004L91.964-38.9004C91.964-38.6154 91.944-38.3314 91.904-38.0494C91.424-34.5654 89.694-31.3814 87.044-29.1124C84.474-26.9054 81.224-25.6814 77.844-25.6494L72.274-25.6514L59.924 2.1375C58.954 4.3175 56.834 5.7485 54.464 5.8445L54.214 5.8495C49.774 5.8495 45.514 4.0845 42.374 0.945502C39.234-2.1965 37.464-6.4575 37.464-10.9004L37.464-18.6504L23.974-18.6504C22.194-18.6294 20.414-18.9714 18.794-19.6444L18.414-19.8054C16.644-20.5954 15.074-21.7624 13.844-23.1914C12.564-24.6484 11.634-26.3644 11.094-28.2214C10.574-30.0574 10.444-31.9844 10.724-33.8974L15.554-65.3764C16.024-68.5434 17.634-71.4284 20.064-73.4874C22.494-75.5634 25.604-76.6854 28.734-76.6514L68.214-76.6514ZM61.964-64.1514L28.664-64.1514C28.484-64.1534 28.314-64.0904 28.164-63.9674C28.024-63.8504 27.944-63.6934 27.914-63.5034L23.084-32.0264C23.064-31.9144 23.074-31.7934 23.114-31.6734C23.134-31.5784 23.184-31.4944 23.274-31.3864C23.334-31.3244 23.414-31.2644 23.544-31.2084C23.624-31.1704 23.724-31.1484 23.904-31.1504L43.714-31.1504C47.164-31.1504 49.964-28.3524 49.964-24.9004L49.964-10.9004C49.964-10.0175 50.244-9.1605 50.744-8.4465L50.874-8.2775L61.964-33.2284L61.964-64.1514ZM77.674-64.1514L74.464-64.1524L74.464-38.1504L77.674-38.1494C78.124-38.1414 78.554-38.2964 78.904-38.6014C79.154-38.8164 79.344-39.0974 79.444-39.4184L79.464-39.4844L79.464-62.8164L79.444-62.8824C79.354-63.1504 79.214-63.3924 79.014-63.5954L78.884-63.7124C78.594-63.9674 78.224-64.1184 77.844-64.1464L77.674-64.1514Z"/>
  </g>
  <g id="Bold-S" transform="matrix(1 0 0 1 2290.38 696)">
   <path d="M67.2777-75.5396C67.2877-75.5396 67.3077-75.5396 67.3177-75.5396L76.5277-75.5376C79.8077-75.5956 82.9977-74.4456 85.4877-72.3066C87.9677-70.1716 89.5777-67.2026 90.0277-63.9606C90.0477-63.8006 90.0677-63.6406 90.0677-63.4796L90.0777-63.2386L90.0777-38.7386C90.0777-38.4966 90.0577-38.2556 90.0277-38.0166C89.5777-34.7726 87.9677-31.8026 85.4877-29.6706C83.0977-27.6136 80.0477-26.4716 76.9877-26.4376L70.7177-26.4386L58.1177 1.91436C57.2977 3.75736 55.5077 4.96936 53.5077 5.05636L53.2777 5.06136C49.0877 5.06136 45.0677 3.39836 42.0977 0.43535C39.1377-2.52664 37.4777-6.54564 37.4777-10.7386L37.4777-19.4386L23.0277-19.4386C21.3777-19.4196 19.7577-19.7296 18.2377-20.3496L17.8577-20.5116C16.2277-21.2386 14.7877-22.3106 13.5777-23.6846C12.4377-25.0186 11.5777-26.5836 11.0677-28.3226C10.5677-30.0456 10.4477-31.8536 10.7277-33.5916L15.5577-65.0736C15.9977-68.0036 17.4777-70.6766 19.7477-72.6166C22.0177-74.5336 24.8877-75.5706 27.7977-75.5396L67.2777-75.5396ZM61.9777-64.9396L27.7377-64.9396C27.3277-64.9436 26.9177-64.7986 26.6177-64.5436C26.3077-64.2736 26.0977-63.9026 26.0377-63.4856L21.1977-31.9546C21.1677-31.7326 21.1777-31.4926 21.2377-31.2976C21.3177-31.0356 21.4477-30.7996 21.5877-30.6336C21.7577-30.4366 21.9577-30.2896 22.1777-30.1896C22.4177-30.0856 22.6577-30.0356 22.9677-30.0386L42.7777-30.0386C45.7077-30.0386 48.0777-27.6656 48.0777-24.7386L48.0777-10.7386C48.0777-9.35364 48.6277-8.03264 49.5977-7.06164C49.7777-6.87864 49.9677-6.71064 50.1777-6.55864L50.2577-6.50164L61.9777-32.8636L61.9777-64.9396ZM72.5777-37.0386L76.7077-37.0376C77.3977-37.0256 78.0577-37.2646 78.5677-37.7056C78.9877-38.0646 79.2877-38.5356 79.4377-39.0596L79.4777-39.2026L79.4777-62.7746L79.4377-62.9176C79.3077-63.3746 79.0577-63.7936 78.7177-64.1316L78.5677-64.2706C78.1077-64.6676 77.5277-64.9016 76.8477-64.9346L76.6177-64.9386L72.5777-64.9396L72.5777-37.0386Z"/>
  </g>
  <g id="Semibold-S" transform="matrix(1 0 0 1 1994.33 696)">
   <path d="M66.6177-74.8836C66.6277-74.8836 66.6477-74.8836 66.6577-74.8826L75.8877-74.8816C79.0077-74.9366 82.0377-73.8426 84.3877-71.8176C86.7577-69.7886 88.2977-66.9606 88.7277-63.8656C88.7477-63.7256 88.7577-63.5846 88.7677-63.4436L88.7677-63.2326L88.7677-38.7326C88.7677-38.5206 88.7577-38.3086 88.7277-38.0986C88.2977-35.0026 86.7577-32.1736 84.3977-30.1566C82.1277-28.2026 79.2477-27.1166 76.3277-27.0806L69.6377-27.0826L56.8677 1.65632C56.1477 3.26832 54.5877 4.33032 52.8377 4.41232L52.6177 4.41732C48.5977 4.41732 44.7377 2.81732 41.9077-0.0186714C39.0677-2.85968 37.4677-6.71468 37.4677-10.7326L37.4677-20.0826L22.3677-20.0826C20.8177-20.0636 19.2777-20.3546 17.8377-20.9396L17.4477-21.1066C15.9077-21.8016 14.5277-22.8246 13.4477-24.0766C12.3277-25.3566 11.5077-26.8636 11.0377-28.4956C10.5777-30.1106 10.4577-31.8076 10.7077-33.4866L15.5377-64.9706C15.9577-67.7536 17.3677-70.2906 19.5077-72.1026C21.6477-73.9266 24.3777-74.9136 27.1377-74.8836L66.6177-74.8836ZM61.9677-65.5836L27.0877-65.5836C26.5177-65.5886 25.9677-65.3906 25.5377-65.0196C25.0977-64.6526 24.8177-64.1456 24.7377-63.5776L19.9077-32.0946C19.8577-31.7546 19.8777-31.4036 19.9777-31.0636C20.0677-30.7436 20.2277-30.4496 20.4677-30.1736C20.6777-29.9306 20.9577-29.7256 21.2577-29.5896C21.5677-29.4486 21.9177-29.3776 22.3077-29.3826L42.1177-29.3826C44.6877-29.3826 46.7677-27.3006 46.7677-24.7326L46.7677-10.7326C46.7677-9.18368 47.3877-7.69468 48.4977-6.58768C48.8777-6.20368 49.3077-5.87868 49.7777-5.61768L49.8977-5.55668L61.9677-32.7216L61.9677-65.5836ZM71.2677-36.3826L76.0477-36.3816C76.8877-36.3666 77.6977-36.6596 78.3477-37.2166C78.8677-37.6596 79.2377-38.2496 79.4177-38.9126L79.4677-39.1206L79.4677-62.8446L79.4177-63.0506C79.2577-63.6406 78.9477-64.1736 78.5077-64.6016L78.3377-64.7576C77.7577-65.2586 77.0177-65.5466 76.1977-65.5796L75.9677-65.5826L71.2677-65.5826L71.2677-36.3826Z"/>
  </g>
  <g id="Medium-S" transform="matrix(1 0 0 1 1698.12 696)">
   <path d="M66.114-74.3338C66.124-74.3338 66.144-74.3338 66.154-74.3328L75.764-74.3328C78.634-74.2958 81.394-73.2528 83.564-71.3878C85.844-69.4388 87.314-66.7218 87.724-63.7478C87.744-63.6228 87.754-63.4978 87.764-63.3718L87.764-63.1828L87.764-38.6828C87.764-38.4928 87.754-38.3048 87.724-38.1168C87.314-35.1418 85.844-32.4248 83.574-30.4858C81.394-28.6118 78.634-27.5688 75.834-27.5318L68.814-27.5328L55.904 1.50322C55.274 2.93622 53.884 3.88222 52.324 3.96222L52.114 3.96722C48.224 3.96722 44.494 2.42022 41.764-0.32179C39.014-3.06978 37.464-6.79778 37.464-10.6828L37.464-20.5328L21.854-20.5328C20.374-20.5148 18.904-20.7938 17.524-21.3528L17.144-21.5128C15.674-22.1778 14.354-23.1568 13.324-24.3558C12.254-25.5798 11.464-27.0228 11.014-28.5838C10.574-30.1308 10.464-31.7548 10.704-33.3618L15.534-64.8468C15.924-67.5108 17.284-69.9378 19.324-71.6728C21.374-73.4178 23.984-74.3618 26.634-74.3338L66.114-74.3338ZM61.964-66.0338L26.584-66.0338C25.904-66.0408 25.234-65.7998 24.704-65.3508C24.184-64.9058 23.834-64.2898 23.734-63.6038L18.904-32.1188C18.844-31.7078 18.874-31.2838 18.994-30.8758C19.104-30.4848 19.304-30.1258 19.584-29.7968C19.844-29.4988 20.184-29.2498 20.544-29.0838C20.934-28.9138 21.344-28.8268 21.804-28.8328L41.614-28.8328C43.904-28.8328 45.764-26.9748 45.764-24.6828L45.764-10.6828C45.764-9.00078 46.434-7.38478 47.634-6.18478C48.184-5.62878 48.844-5.18578 49.554-4.87278L49.644-4.83578L61.964-32.5658L61.964-66.0338ZM70.264-35.8328L75.534-35.8318C76.494-35.8148 77.424-36.1508 78.164-36.7868C78.834-37.3568 79.284-38.1368 79.464-39.0078L79.464-62.8568C79.304-63.6488 78.914-64.3658 78.334-64.9238L78.154-65.0868C77.494-65.6618 76.654-65.9918 75.724-66.0298L75.464-66.0328L70.264-66.0328L70.264-35.8328Z"/>
  </g>
  <g id="Regular-S" transform="matrix(1 0 0 1 1402.06 696)">
   <path d="M65.4677-73.7264C65.4777-73.7264 65.4977-73.7264 65.5077-73.7264L74.7577-73.7254C77.5977-73.7754 80.3477-72.7804 82.4877-70.9364C84.6477-69.0914 86.0477-66.5194 86.4377-63.7024L86.4577-63.4644L86.4677-63.2254L86.4677-38.7254C86.4677-38.5664 86.4577-38.4064 86.4377-38.2494C86.0477-35.4304 84.6477-32.8574 82.4977-31.0214C80.4377-29.2474 77.8277-28.2604 75.1677-28.2244L67.7377-28.2264L54.6677 1.1956C54.1277 2.3966 52.9777 3.1916 51.6777 3.2686L51.4677 3.2746C47.7577 3.2746 44.1777 1.7956 41.5777-0.825406C38.9477-3.4514 37.4677-7.0134 37.4677-10.7254L37.4677-21.2254L21.1977-21.2254C19.8077-21.2094 18.4177-21.4714 17.1177-21.9984L16.7677-22.1484C15.3777-22.7744 14.1377-23.6974 13.1677-24.8274C12.1577-25.9794 11.4177-27.3374 10.9977-28.8064C10.5777-30.2644 10.4677-31.7944 10.6977-33.3064L15.5277-64.7944C15.8977-67.3014 17.1777-69.5864 19.1077-71.2214C21.0277-72.8644 23.4877-73.7534 25.9877-73.7264L65.4677-73.7264ZM61.9677-66.7264L25.9477-66.7264C25.1077-66.7354 24.2877-66.4394 23.6377-65.8904C22.9977-65.3424 22.5777-64.5854 22.4477-63.7454L17.6177-32.2584C17.5477-31.7544 17.5777-31.2374 17.7177-30.7394C17.8577-30.2574 18.0977-29.8134 18.4477-29.4164C18.7677-29.0454 19.1777-28.7384 19.6377-28.5334C20.1077-28.3244 20.6077-28.2194 21.1577-28.2254L40.9677-28.2254C42.8977-28.2254 44.4677-26.6584 44.4677-24.7254L44.4677-10.7254C44.4677-8.8714 45.2077-7.0904 46.5277-5.7694C47.2477-5.0444 48.1177-4.4944 49.0677-4.1484L49.3377-4.0574L61.9677-32.4704L61.9677-66.7264ZM68.9677-35.2264L74.8777-35.2254C75.9977-35.2054 77.0877-35.5974 77.9477-36.3354C78.7377-37.0094 79.2677-37.9334 79.4577-38.9634L79.4677-39.0064L79.4677-62.9454L79.4577-62.9874C79.2777-63.9374 78.8077-64.7984 78.1177-65.4614L77.9377-65.6234C77.1477-66.3014 76.1577-66.6884 75.0677-66.7234L74.8177-66.7254L68.9677-66.7264L68.9677-35.2264Z"/>
  </g>
  <g id="Light-S" transform="matrix(1 0 0 1 1106.14 696)">
   <path d="M64.6673-72.8788C64.6773-72.8788 64.6873-72.8778 64.6973-72.8778L74.3173-72.8778C76.8373-72.8418 79.2573-71.9228 81.1673-70.2808C83.1773-68.5628 84.4773-66.1688 84.8373-63.5448L84.8573-63.3618L84.8673-63.1778L84.8673-38.6778C84.8673-38.5538 84.8573-38.4318 84.8373-38.3098C84.4773-35.6848 83.1773-33.2898 81.1773-31.5798C79.2673-29.9318 76.8373-29.0128 74.3573-28.9768L66.4173-28.9778L53.1373 0.919108C52.7273 1.8371 51.8473 2.4471 50.8573 2.5161L50.6673 2.5221C47.1673 2.5221 43.7973 1.1281 41.3373-1.3429C38.8573-3.8189 37.4673-7.1769 37.4673-10.6778L37.4673-21.9778L20.3873-21.9778C19.1173-21.9628 17.8473-22.2008 16.6473-22.6788L16.2973-22.8288C15.0173-23.4078 13.8673-24.2598 12.9673-25.3058C12.0373-26.3698 11.3473-27.6228 10.9673-28.9798C10.5773-30.3268 10.4773-31.7418 10.6873-33.1368L15.5173-64.6268C15.8673-66.9428 17.0373-69.0538 18.8273-70.5648C20.5973-72.0818 22.8773-72.9038 25.1873-72.8788L64.6673-72.8788ZM61.9673-67.4788L25.1573-67.4778C24.1173-67.4898 23.1173-67.1258 22.3273-66.4518C21.5273-65.7798 21.0073-64.8478 20.8573-63.8178L16.0273-32.3288C15.9373-31.7108 15.9773-31.0778 16.1573-30.4708C16.3273-29.8748 16.6173-29.3268 17.0473-28.8458C17.4373-28.3858 17.9473-28.0088 18.5073-27.7548C19.0773-27.4988 19.7073-27.3698 20.3573-27.3778L40.1673-27.3778C41.6573-27.3778 42.8673-26.1688 42.8673-24.6778L42.8673-10.6778C42.8673-8.6109 43.6873-6.6259 45.1573-5.1569C46.1773-4.1379 47.4573-3.4289 48.8373-3.0949L48.9973-3.0619L61.9673-32.2528L61.9673-67.4788ZM67.3673-67.4768L67.3673-34.3778L74.0673-34.3768C75.3873-34.3538 76.6573-34.8138 77.6673-35.6788C78.5973-36.4758 79.2273-37.5688 79.4473-38.7828L79.4673-38.8938L79.4673-62.9618L79.4473-63.0708C79.2373-64.1978 78.6873-65.2218 77.8573-66.0048L77.6573-66.1808C76.7273-66.9828 75.5473-67.4378 74.2873-67.4758L67.3673-67.4768Z"/>
  </g>
  <g id="Thin-S" transform="matrix(1 0 0 1 810.483 696)">
   <path d="M63.6188-71.822C63.6268-71.822 63.6348-71.822 63.6428-71.822L73.2748-71.821C75.5388-71.782 77.7238-70.953 79.4478-69.473C81.1718-67.993 82.3218-65.959 82.7028-63.728L82.7538-63.392L82.7688-63.171L82.7688-38.671L82.7538-38.45C82.4348-36.086 81.2578-33.922 79.4478-32.368C77.7248-30.888 75.5398-30.06 73.2998-30.021L64.6898-30.021L51.1268 0.498964C50.8818 1.04896 50.3598 1.41896 49.7678 1.47196L49.6188 1.47896C46.3968 1.47896 43.3068 0.199964 41.0268-2.07904C38.7488-4.35704 37.4688-7.44804 37.4688-10.671L37.4688-23.021L19.3288-23.021C18.1988-23.008 17.0798-23.216 16.0348-23.632L15.6888-23.778C14.5438-24.291 13.5238-25.048 12.7028-25.994C11.8798-26.941 11.2718-28.055 10.9228-29.258C10.5728-30.461 10.4898-31.727 10.6778-32.971L15.5078-64.468C15.8198-66.53 16.8678-68.41 18.4578-69.762C20.0478-71.113 22.0718-71.844 24.1388-71.822L63.6188-71.822ZM61.9688-68.522L24.1208-68.521C22.8308-68.536 21.5778-68.083 20.5948-67.248C19.6118-66.411 18.9638-65.249 18.7698-63.971L13.9398-32.474C13.8238-31.705 13.8758-30.922 14.0918-30.179C14.3078-29.435 14.6828-28.746 15.1938-28.159C15.7008-27.574 16.3308-27.107 17.0408-26.789C17.7468-26.471 18.5138-26.312 19.3088-26.321L39.1188-26.321C40.0298-26.321 40.7688-25.582 40.7688-24.671L40.7688-10.671C40.7688-8.32304 41.7008-6.07204 43.3598-4.41304C44.7188-3.05504 46.4728-2.18404 48.3508-1.91204L48.5748-1.88404L61.9688-32.021L61.9688-68.522ZM65.2688-68.521L65.2688-33.321L72.9928-33.321C74.5708-33.293 76.1018-33.845 77.2978-34.872C78.4198-35.835 79.1738-37.152 79.4378-38.6L79.4688-38.799L79.4688-63.043L79.4378-63.241C79.1918-64.592 78.5188-65.83 77.5178-66.772L77.2978-66.97C76.1768-67.933 74.7598-68.478 73.2638-68.519L65.2688-68.521Z"/>
  </g>
  <g id="Ultralight-S" transform="matrix(1 0 0 1 514.322 696)">
   <path d="M63.0692-71.271C63.0762-71.271 63.0822-71.271 63.0892-71.271L72.7312-71.27C74.8622-71.229 76.9172-70.448 78.5402-69.056C80.1622-67.662 81.2442-65.75 81.6082-63.651L81.6592-63.318L81.6692-63.17L81.6692-38.67L81.6592-38.522C81.3572-36.291 80.2472-34.25 78.5402-32.785C76.9182-31.392 74.8632-30.611 72.7482-30.57L63.7842-30.57L50.0742 0.276938C49.9152 0.633938 49.5802 0.876938 49.1982 0.921938L49.0692 0.929938C45.9922 0.929938 43.0412-0.292062 40.8662-2.46706C38.6912-4.64206 37.4692-7.59306 37.4692-10.67L37.4692-23.57L18.7722-23.57C17.7142-23.558 16.6662-23.752 15.6872-24.142L15.3632-24.279C14.2922-24.76 13.3372-25.468 12.5662-26.355C11.7962-27.242 11.2282-28.285 10.9012-29.411C10.5732-30.538 10.4952-31.722 10.6722-32.887L15.5012-64.385C15.7942-66.316 16.7752-68.076 18.2642-69.343C19.7532-70.607 21.6482-71.292 23.5892-71.271L63.0692-71.271ZM61.9692-69.071L23.5772-69.071C22.1542-69.086 20.7732-68.587 19.6892-67.666C18.6042-66.744 17.8902-65.461 17.6762-64.053L12.8472-32.555C12.7182-31.708 12.7752-30.845 13.0132-30.025C13.2512-29.204 13.6662-28.444 14.2272-27.798C14.7882-27.152 15.4832-26.637 16.2642-26.286C17.0442-25.936 17.8902-25.76 18.7592-25.77L38.5692-25.77C39.1762-25.77 39.6692-25.278 39.6692-24.67L39.6692-10.67C39.6692-8.17706 40.6592-5.78506 42.4222-4.02306C43.9542-2.49006 45.9622-1.54206 48.1002-1.32006L48.3662-1.29806L61.9692-31.903L61.9692-69.071ZM64.1692-69.07L64.1692-32.77L72.4332-32.77C74.1452-32.74 75.8082-33.339 77.1062-34.454C78.3292-35.503 79.1482-36.94 79.4322-38.52L79.4692-38.755L79.4692-63.086L79.4322-63.32C79.1662-64.801 78.4292-66.156 77.3312-67.185L77.1062-67.386C75.8842-68.436 74.3392-69.028 72.7192-69.069L64.1692-69.07Z"/>
  </g>
 </g>
</svg>
