<?xml version="1.0" encoding="UTF-8"?>
<!--Generator: Apple Native CoreSVG 175-->
<!DOCTYPE svg
PUBLIC "-//W3C//DTD SVG 1.1//EN"
       "http://www.w3.org/Graphics/SVG/1.1/DTD/svg11.dtd">
<svg version="1.1" xmlns="http://www.w3.org/2000/svg" xmlns:xlink="http://www.w3.org/1999/xlink" width="3300" height="2200">
 <!--glyph: "", point size: 100.0, font version: "17.0d12e1", template writer version: "65.1"-->
 <style>.hierarchical-0:tertiary {fill:#8E8E8E}
.hierarchical-1:secondary {fill:#4D4D4D}
.hierarchical-2:primary {fill:#212121}

.SFSymbolsPreview212121 {fill:#212121;opacity:1.0}
.SFSymbolsPreview4D4D4D {fill:#4D4D4D;opacity:1.0}
.SFSymbolsPreview8E8E8E {fill:#8E8E8E;opacity:1.0}
</style>
 <g id="Notes">
  <rect height="2200" id="artboard" style="fill:white;opacity:1" width="3300" x="0" y="0"/>
  <line style="fill:none;stroke:black;opacity:1;stroke-width:0.5;" x1="263" x2="3036" y1="292" y2="292"/>
  <text style="stroke:none;fill:black;font-family:sans-serif;font-size:13;font-weight:bold;" transform="matrix(1 0 0 1 263 322)">Weight/Scale Variations</text>
  <text style="stroke:none;fill:black;font-family:sans-serif;font-size:13;text-anchor:middle;" transform="matrix(1 0 0 1 559.711 322)">Ultralight</text>
  <text style="stroke:none;fill:black;font-family:sans-serif;font-size:13;text-anchor:middle;" transform="matrix(1 0 0 1 856.422 322)">Thin</text>
  <text style="stroke:none;fill:black;font-family:sans-serif;font-size:13;text-anchor:middle;" transform="matrix(1 0 0 1 1153.13 322)">Light</text>
  <text style="stroke:none;fill:black;font-family:sans-serif;font-size:13;text-anchor:middle;" transform="matrix(1 0 0 1 1449.84 322)">Regular</text>
  <text style="stroke:none;fill:black;font-family:sans-serif;font-size:13;text-anchor:middle;" transform="matrix(1 0 0 1 1746.56 322)">Medium</text>
  <text style="stroke:none;fill:black;font-family:sans-serif;font-size:13;text-anchor:middle;" transform="matrix(1 0 0 1 2043.27 322)">Semibold</text>
  <text style="stroke:none;fill:black;font-family:sans-serif;font-size:13;text-anchor:middle;" transform="matrix(1 0 0 1 2339.98 322)">Bold</text>
  <text style="stroke:none;fill:black;font-family:sans-serif;font-size:13;text-anchor:middle;" transform="matrix(1 0 0 1 2636.69 322)">Heavy</text>
  <text style="stroke:none;fill:black;font-family:sans-serif;font-size:13;text-anchor:middle;" transform="matrix(1 0 0 1 2933.4 322)">Black</text>
  <line style="fill:none;stroke:black;opacity:1;stroke-width:0.5;" x1="263" x2="3036" y1="1903" y2="1903"/>
  <g transform="matrix(1 0 0 1 263 1933)">
   <path d="M9.24805 0.830078Q10.8691 0.830078 12.2949 0.214844Q13.7207-0.400391 14.8096-1.49414Q15.8984-2.58789 16.5186-4.01367Q17.1387-5.43945 17.1387-7.05078Q17.1387-8.66211 16.5186-10.0879Q15.8984-11.5137 14.8047-12.6074Q13.7109-13.7012 12.2852-14.3164Q10.8594-14.9316 9.23828-14.9316Q7.62695-14.9316 6.20117-14.3164Q4.77539-13.7012 3.69141-12.6074Q2.60742-11.5137 1.9873-10.0879Q1.36719-8.66211 1.36719-7.05078Q1.36719-5.43945 1.9873-4.01367Q2.60742-2.58789 3.69629-1.49414Q4.78516-0.400391 6.21094 0.214844Q7.63672 0.830078 9.24805 0.830078ZM9.24805-0.654297Q7.91992-0.654297 6.7627-1.14746Q5.60547-1.64062 4.73145-2.51953Q3.85742-3.39844 3.36426-4.56055Q2.87109-5.72266 2.87109-7.05078Q2.87109-8.37891 3.35938-9.54102Q3.84766-10.7031 4.72168-11.582Q5.5957-12.4609 6.75293-12.9541Q7.91016-13.4473 9.23828-13.4473Q10.5762-13.4473 11.7334-12.9541Q12.8906-12.4609 13.7695-11.582Q14.6484-10.7031 15.1465-9.54102Q15.6445-8.37891 15.6445-7.05078Q15.6445-5.72266 15.1514-4.56055Q14.6582-3.39844 13.7842-2.51953Q12.9102-1.64062 11.748-1.14746Q10.5859-0.654297 9.24805-0.654297ZM5.6543-7.05078Q5.6543-6.72852 5.85938-6.52832Q6.06445-6.32812 6.40625-6.32812L8.51562-6.32812L8.51562-4.20898Q8.51562-3.88672 8.71094-3.67676Q8.90625-3.4668 9.23828-3.4668Q9.56055-3.4668 9.77051-3.67676Q9.98047-3.88672 9.98047-4.20898L9.98047-6.32812L12.0898-6.32812Q12.4219-6.32812 12.627-6.52832Q12.832-6.72852 12.832-7.05078Q12.832-7.38281 12.627-7.58789Q12.4219-7.79297 12.0898-7.79297L9.98047-7.79297L9.98047-9.90234Q9.98047-10.2344 9.77051-10.4443Q9.56055-10.6543 9.23828-10.6543Q8.90625-10.6543 8.71094-10.4443Q8.51562-10.2344 8.51562-9.90234L8.51562-7.79297L6.40625-7.79297Q6.06445-7.79297 5.85938-7.58789Q5.6543-7.38281 5.6543-7.05078Z"/>
  </g>
  <g transform="matrix(1 0 0 1 281.867 1933)">
   <path d="M11.709 2.91016Q13.75 2.91016 15.5518 2.12891Q17.3535 1.34766 18.7305-0.0292969Q20.1074-1.40625 20.8887-3.20801Q21.6699-5.00977 21.6699-7.05078Q21.6699-9.0918 20.8887-10.8936Q20.1074-12.6953 18.7305-14.0723Q17.3535-15.4492 15.5469-16.2305Q13.7402-17.0117 11.6992-17.0117Q9.6582-17.0117 7.85645-16.2305Q6.05469-15.4492 4.68262-14.0723Q3.31055-12.6953 2.5293-10.8936Q1.74805-9.0918 1.74805-7.05078Q1.74805-5.00977 2.5293-3.20801Q3.31055-1.40625 4.6875-0.0292969Q6.06445 1.34766 7.86621 2.12891Q9.66797 2.91016 11.709 2.91016ZM11.709 1.25Q9.98047 1.25 8.47656 0.605469Q6.97266-0.0390625 5.83496-1.17676Q4.69727-2.31445 4.05762-3.81836Q3.41797-5.32227 3.41797-7.05078Q3.41797-8.7793 4.05762-10.2832Q4.69727-11.7871 5.83008-12.9297Q6.96289-14.0723 8.4668-14.7119Q9.9707-15.3516 11.6992-15.3516Q13.4277-15.3516 14.9316-14.7119Q16.4355-14.0723 17.5781-12.9297Q18.7207-11.7871 19.3652-10.2832Q20.0098-8.7793 20.0098-7.05078Q20.0098-5.32227 19.3701-3.81836Q18.7305-2.31445 17.5928-1.17676Q16.4551-0.0390625 14.9463 0.605469Q13.4375 1.25 11.709 1.25ZM7.17773-7.05078Q7.17773-6.69922 7.41211-6.47461Q7.64648-6.25 8.01758-6.25L10.8887-6.25L10.8887-3.36914Q10.8887-2.99805 11.1133-2.76855Q11.3379-2.53906 11.6895-2.53906Q12.0605-2.53906 12.29-2.76855Q12.5195-2.99805 12.5195-3.36914L12.5195-6.25L15.4004-6.25Q15.7715-6.25 16.001-6.47461Q16.2305-6.69922 16.2305-7.05078Q16.2305-7.42188 16.001-7.65137Q15.7715-7.88086 15.4004-7.88086L12.5195-7.88086L12.5195-10.752Q12.5195-11.1328 12.29-11.3623Q12.0605-11.5918 11.6895-11.5918Q11.3379-11.5918 11.1133-11.3574Q10.8887-11.123 10.8887-10.752L10.8887-7.88086L8.01758-7.88086Q7.63672-7.88086 7.40723-7.65137Q7.17773-7.42188 7.17773-7.05078Z"/>
  </g>
  <g transform="matrix(1 0 0 1 305.646 1933)">
   <path d="M14.9707 5.66406Q17.0605 5.66406 18.96 5.01465Q20.8594 4.36523 22.4512 3.19336Q24.043 2.02148 25.2197 0.429688Q26.3965-1.16211 27.0459-3.06641Q27.6953-4.9707 27.6953-7.05078Q27.6953-9.14062 27.0459-11.04Q26.3965-12.9395 25.2197-14.5312Q24.043-16.123 22.4512-17.2998Q20.8594-18.4766 18.9551-19.126Q17.0508-19.7754 14.9609-19.7754Q12.8711-19.7754 10.9717-19.126Q9.07227-18.4766 7.48535-17.2998Q5.89844-16.123 4.72168-14.5312Q3.54492-12.9395 2.90039-11.04Q2.25586-9.14062 2.25586-7.05078Q2.25586-4.9707 2.90527-3.06641Q3.55469-1.16211 4.72656 0.429688Q5.89844 2.02148 7.49023 3.19336Q9.08203 4.36523 10.9814 5.01465Q12.8809 5.66406 14.9707 5.66406ZM14.9707 3.84766Q13.1641 3.84766 11.5283 3.2959Q9.89258 2.74414 8.53516 1.74805Q7.17773 0.751953 6.17676-0.610352Q5.17578-1.97266 4.62891-3.6084Q4.08203-5.24414 4.08203-7.05078Q4.08203-8.86719 4.62891-10.5029Q5.17578-12.1387 6.17188-13.501Q7.16797-14.8633 8.52539-15.8594Q9.88281-16.8555 11.5186-17.4023Q13.1543-17.9492 14.9609-17.9492Q16.7773-17.9492 18.4131-17.4023Q20.0488-16.8555 21.4111-15.8594Q22.7734-14.8633 23.7695-13.501Q24.7656-12.1387 25.3174-10.5029Q25.8691-8.86719 25.8691-7.05078Q25.8789-5.24414 25.332-3.6084Q24.7852-1.97266 23.7842-0.610352Q22.7832 0.751953 21.4209 1.74805Q20.0586 2.74414 18.4229 3.2959Q16.7871 3.84766 14.9707 3.84766ZM9.19922-7.05078Q9.19922-6.66992 9.45801-6.4209Q9.7168-6.17188 10.1172-6.17188L14.0625-6.17188L14.0625-2.2168Q14.0625-1.81641 14.3115-1.55762Q14.5605-1.29883 14.9512-1.29883Q15.3516-1.29883 15.6104-1.55273Q15.8691-1.80664 15.8691-2.2168L15.8691-6.17188L19.8242-6.17188Q20.2246-6.17188 20.4785-6.4209Q20.7324-6.66992 20.7324-7.05078Q20.7324-7.46094 20.4785-7.71484Q20.2246-7.96875 19.8242-7.96875L15.8691-7.96875L15.8691-11.9141Q15.8691-12.3242 15.6104-12.583Q15.3516-12.8418 14.9512-12.8418Q14.5605-12.8418 14.3115-12.583Q14.0625-12.3242 14.0625-11.9141L14.0625-7.96875L10.1172-7.96875Q9.70703-7.96875 9.45312-7.71484Q9.19922-7.46094 9.19922-7.05078Z"/>
  </g>
  <text style="stroke:none;fill:black;font-family:sans-serif;font-size:13;font-weight:bold;" transform="matrix(1 0 0 1 263 1953)">Design Variations</text>
  <text style="stroke:none;fill:black;font-family:sans-serif;font-size:13;" transform="matrix(1 0 0 1 263 1971)">Symbols are supported in up to nine weights and three scales.</text>
  <text style="stroke:none;fill:black;font-family:sans-serif;font-size:13;" transform="matrix(1 0 0 1 263 1989)">For optimal layout with text and other symbols, vertically align</text>
  <text style="stroke:none;fill:black;font-family:sans-serif;font-size:13;" transform="matrix(1 0 0 1 263 2007)">symbols with the adjacent text.</text>
  <line style="fill:none;stroke:#00AEEF;stroke-width:0.5;opacity:1.0;" x1="776" x2="776" y1="1919" y2="1933"/>
  <g transform="matrix(1 0 0 1 776 1933)">
   <path d="M3.31055 0.15625Q3.70117 0.15625 3.91602-0.00976562Q4.13086-0.175781 4.26758-0.585938L5.52734-4.0332L11.2891-4.0332L12.5488-0.585938Q12.6855-0.175781 12.9004-0.00976562Q13.1152 0.15625 13.4961 0.15625Q13.8867 0.15625 14.1162-0.0585938Q14.3457-0.273438 14.3457-0.644531Q14.3457-0.869141 14.2383-1.17188L9.6582-13.3691Q9.48242-13.8184 9.17969-14.043Q8.87695-14.2676 8.4082-14.2676Q7.5-14.2676 7.17773-13.3789L2.59766-1.16211Q2.49023-0.859375 2.49023-0.634766Q2.49023-0.263672 2.70996-0.0537109Q2.92969 0.15625 3.31055 0.15625ZM6.00586-5.51758L8.37891-12.0898L8.42773-12.0898L10.8008-5.51758Z"/>
  </g>
  <line style="fill:none;stroke:#00AEEF;stroke-width:0.5;opacity:1.0;" x1="793.197" x2="793.197" y1="1919" y2="1933"/>
  <text style="stroke:none;fill:black;font-family:sans-serif;font-size:13;font-weight:bold;" transform="matrix(1 0 0 1 776 1953)">Margins</text>
  <text style="stroke:none;fill:black;font-family:sans-serif;font-size:13;" transform="matrix(1 0 0 1 776 1971)">Leading and trailing margins on the left and right side of each symbol</text>
  <text style="stroke:none;fill:black;font-family:sans-serif;font-size:13;" transform="matrix(1 0 0 1 776 1989)">can be adjusted by modifying the x-location of the margin guidelines.</text>
  <text style="stroke:none;fill:black;font-family:sans-serif;font-size:13;" transform="matrix(1 0 0 1 776 2007)">Modifications are automatically applied proportionally to all</text>
  <text style="stroke:none;fill:black;font-family:sans-serif;font-size:13;" transform="matrix(1 0 0 1 776 2025)">scales and weights.</text>
  <g transform="matrix(1 0 0 1 1289 1933)">
   <path d="M2.8418 1.86523L4.54102 3.57422Q5.18555 4.22852 5.90332 4.17969Q6.62109 4.13086 7.31445 3.35938L18.0078-8.42773L17.041-9.4043L6.42578 2.27539Q6.16211 2.57812 5.89355 2.61719Q5.625 2.65625 5.27344 2.30469L4.10156 1.14258Q3.75 0.791016 3.79395 0.522461Q3.83789 0.253906 4.14062-0.0195312L15.6152-10.8203L14.6387-11.7871L3.04688-0.898438Q2.30469-0.214844 2.25098 0.498047Q2.19727 1.21094 2.8418 1.86523ZM9.25781-16.3281Q8.94531-16.0254 8.90625-15.6348Q8.86719-15.2441 9.04297-14.9512Q9.21875-14.6777 9.55566-14.541Q9.89258-14.4043 10.3809-14.5215Q11.4746-14.7754 12.5977-14.7314Q13.7207-14.6875 14.7949-13.9844L14.209-12.5293Q13.9551-11.9043 14.0674-11.4404Q14.1797-10.9766 14.5801-10.5664L16.875-8.25195Q17.2363-7.88086 17.5781-7.82227Q17.9199-7.76367 18.3398-7.8418L19.4043-8.03711L20.0684-7.36328L20.0293-6.80664Q20-6.43555 20.1221-6.12305Q20.2441-5.81055 20.6055-5.44922L21.3672-4.70703Q21.7285-4.3457 22.1533-4.33105Q22.5781-4.31641 22.9297-4.66797L25.8398-7.58789Q26.1914-7.93945 26.1816-8.35449Q26.1719-8.76953 25.8105-9.13086L25.0391-9.89258Q24.6875-10.2539 24.3799-10.3857Q24.0723-10.5176 23.7109-10.4883L23.1348-10.4395L22.4902-11.0742L22.7344-12.1973Q22.832-12.6172 22.6953-12.9834Q22.5586-13.3496 22.1191-13.7891L19.9219-15.9766Q18.6719-17.2168 17.2607-17.8369Q15.8496-18.457 14.4189-18.4814Q12.9883-18.5059 11.665-17.959Q10.3418-17.4121 9.25781-16.3281ZM10.752-15.957Q11.6602-16.6211 12.7002-16.9043Q13.7402-17.1875 14.8047-17.085Q15.8691-16.9824 16.8701-16.5137Q17.8711-16.0449 18.7012-15.2051L21.1328-12.793Q21.3086-12.6172 21.3525-12.4512Q21.3965-12.2852 21.3379-12.0312L21.0156-10.5469L22.5195-9.0625L23.5059-9.12109Q23.6914-9.13086 23.7891-9.09668Q23.8867-9.0625 24.0332-8.91602L24.6094-8.33984L22.168-5.89844L21.5918-6.47461Q21.4453-6.62109 21.4062-6.71875Q21.3672-6.81641 21.377-7.01172L21.4453-7.98828L19.9512-9.47266L18.4277-9.21875Q18.1836-9.16992 18.042-9.2041Q17.9004-9.23828 17.7148-9.41406L15.7129-11.416Q15.5176-11.5918 15.4932-11.7529Q15.4688-11.9141 15.5859-12.1875L16.4648-14.2773Q15.293-15.3711 13.8281-15.791Q12.3633-16.2109 10.8398-15.7617Q10.7227-15.7324 10.6885-15.8057Q10.6543-15.8789 10.752-15.957Z"/>
  </g>
  <text style="stroke:none;fill:black;font-family:sans-serif;font-size:13;font-weight:bold;" transform="matrix(1 0 0 1 1289 1953)">Exporting</text>
  <text style="stroke:none;fill:black;font-family:sans-serif;font-size:13;" transform="matrix(1 0 0 1 1289 1971)">Symbols should be outlined when exporting to ensure the</text>
  <text style="stroke:none;fill:black;font-family:sans-serif;font-size:13;" transform="matrix(1 0 0 1 1289 1989)">design is preserved when submitting to Xcode.</text>
  <text id="template-version" style="stroke:none;fill:black;font-family:sans-serif;font-size:13;text-anchor:end;" transform="matrix(1 0 0 1 3036 1933)">Template v.3.0</text>
  <text style="stroke:none;fill:black;font-family:sans-serif;font-size:13;text-anchor:end;" transform="matrix(1 0 0 1 3036 1951)">Requires Xcode 13 or greater</text>
  <text id="descriptive-name" style="stroke:none;fill:black;font-family:sans-serif;font-size:13;text-anchor:end;" transform="matrix(1 0 0 1 3036 1969)">Generated from wind</text>
  <text style="stroke:none;fill:black;font-family:sans-serif;font-size:13;text-anchor:end;" transform="matrix(1 0 0 1 3036 1987)">Typeset at 100 points</text>
  <text style="stroke:none;fill:black;font-family:sans-serif;font-size:13;" transform="matrix(1 0 0 1 263 726)">Small</text>
  <text style="stroke:none;fill:black;font-family:sans-serif;font-size:13;" transform="matrix(1 0 0 1 263 1156)">Medium</text>
  <text style="stroke:none;fill:black;font-family:sans-serif;font-size:13;" transform="matrix(1 0 0 1 263 1586)">Large</text>
 </g>
 <g id="Guides">
  <g id="H-reference" style="fill:#27AAE1;stroke:none;" transform="matrix(1 0 0 1 339 696)">
   <path d="M0.976562 0L3.66211 0L29.3457-67.1387L30.0293-67.1387L30.0293-70.459L28.125-70.459ZM11.6699-24.4629L46.9727-24.4629L46.2402-26.709L12.4512-26.709ZM55.127 0L57.7637 0L30.6152-70.459L29.4434-70.459L29.4434-67.1387Z"/>
  </g>
  <line id="Baseline-S" style="fill:none;stroke:#27AAE1;opacity:1;stroke-width:0.5;" x1="263" x2="3036" y1="696" y2="696"/>
  <line id="Capline-S" style="fill:none;stroke:#27AAE1;opacity:1;stroke-width:0.5;" x1="263" x2="3036" y1="625.541" y2="625.541"/>
  <g id="H-reference" style="fill:#27AAE1;stroke:none;" transform="matrix(1 0 0 1 339 1126)">
   <path d="M0.976562 0L3.66211 0L29.3457-67.1387L30.0293-67.1387L30.0293-70.459L28.125-70.459ZM11.6699-24.4629L46.9727-24.4629L46.2402-26.709L12.4512-26.709ZM55.127 0L57.7637 0L30.6152-70.459L29.4434-70.459L29.4434-67.1387Z"/>
  </g>
  <line id="Baseline-M" style="fill:none;stroke:#27AAE1;opacity:1;stroke-width:0.5;" x1="263" x2="3036" y1="1126" y2="1126"/>
  <line id="Capline-M" style="fill:none;stroke:#27AAE1;opacity:1;stroke-width:0.5;" x1="263" x2="3036" y1="1055.54" y2="1055.54"/>
  <g id="H-reference" style="fill:#27AAE1;stroke:none;" transform="matrix(1 0 0 1 339 1556)">
   <path d="M0.976562 0L3.66211 0L29.3457-67.1387L30.0293-67.1387L30.0293-70.459L28.125-70.459ZM11.6699-24.4629L46.9727-24.4629L46.2402-26.709L12.4512-26.709ZM55.127 0L57.7637 0L30.6152-70.459L29.4434-70.459L29.4434-67.1387Z"/>
  </g>
  <line id="Baseline-L" style="fill:none;stroke:#27AAE1;opacity:1;stroke-width:0.5;" x1="263" x2="3036" y1="1556" y2="1556"/>
  <line id="Capline-L" style="fill:none;stroke:#27AAE1;opacity:1;stroke-width:0.5;" x1="263" x2="3036" y1="1485.54" y2="1485.54"/>
  <line id="left-margin-Regular-M" style="fill:none;stroke:#00AEEF;stroke-width:0.5;opacity:1.0;" x1="1392.53" x2="1392.53" y1="1030.78" y2="1150.12"/>
  <line id="right-margin-Regular-M" style="fill:none;stroke:#00AEEF;stroke-width:0.5;opacity:1.0;" x1="1507.16" x2="1507.16" y1="1030.78" y2="1150.12"/>
 </g>
 <g id="Symbols">
  <g id="Black-L" transform="matrix(1 0 0 1 2860.24 1556)">
   <path class="hierarchical-0:tertiary SFSymbolsPreview8E8E8E" d="M84.74-19.8235C87.79-19.8335 90.8-19.0935 93.45-17.6835C96.14-16.2635 98.44-14.1935 100.18-11.6335C101.87-9.0935 102.92-6.1835 103.2-3.2035C103.51-0.153497 103.06 2.9065 101.9 5.6965C100.74 8.5165 98.9 11.0065 96.54 12.9365C94.19 14.8765 91.39 16.1865 88.43 16.7665C85.43 17.3765 82.34 17.2165 79.45 16.3265C76.53 15.4465 73.87 13.8365 71.72 11.6665C68.96 8.8865 68.98 4.3965 71.76 1.6265C74.54-1.1335 79.04-1.1135 81.8 1.6665C82.3 2.1665 82.91 2.5365 83.59 2.7465C84.26 2.9465 84.96 2.9865 85.67 2.8365C86.35 2.7065 87 2.4065 87.54 1.9565C88.08 1.5165 88.5 0.946503 88.78 0.266503C89.04-0.373497 89.15-1.0735 89.07-1.7935C89.01-2.4735 88.77-3.1535 88.39-3.7135C87.99-4.3135 87.45-4.7835 86.81-5.1235C86.27-5.4135 85.68-5.5835 85.05-5.6135L84.78-5.6235L16.53-5.6235C12.61-5.6235 9.43-8.8035 9.43-12.7235C9.43-16.5635 12.48-19.6935 16.29-19.8135L16.53-19.8235L84.74-19.8235Z"/>
   <path class="hierarchical-1:secondary SFSymbolsPreview4D4D4D" d="M62.36-87.2535C65.28-88.1535 68.37-88.3135 71.33-87.7135C74.33-87.1335 77.14-85.8035 79.47-83.8835C81.83-81.9435 83.68-79.4535 84.83-76.6635C86-73.8435 86.45-70.7835 86.14-67.7435C85.83-64.7135 84.79-61.8135 83.1-59.2935C81.39-56.7535 79.09-54.6735 76.42-53.2735C73.87-51.9235 71.05-51.1935 68.21-51.1235L67.71-51.1235L16.53-51.1235C12.61-51.1235 9.43-54.3035 9.43-58.2235C9.43-62.0635 12.48-65.1935 16.29-65.3135L16.53-65.3235L67.75-65.3235C68.44-65.3135 69.13-65.4835 69.79-65.8435C70.39-66.1535 70.91-66.6235 71.31-67.2135C71.7-67.7935 71.94-68.4735 72.02-69.1735C72.09-69.8735 71.98-70.5635 71.7-71.2435C71.44-71.8735 71.02-72.4535 70.45-72.9135C69.92-73.3535 69.29-73.6535 68.57-73.7935C67.9-73.9235 67.2-73.8935 66.48-73.6735C65.83-73.4735 65.23-73.1135 64.73-72.6135C61.97-69.8235 57.47-69.8135 54.69-72.5735C51.91-75.3335 51.89-79.8335 54.65-82.6135C56.81-84.7835 59.47-86.3935 62.36-87.2535Z"/>
   <path class="hierarchical-2:primary SFSymbolsPreview212121" d="M109.85-70.0935C113.2-71.1135 116.76-71.2835 120.18-70.5935C123.62-69.9235 126.85-68.3935 129.54-66.1735C132.26-63.9635 134.37-61.1035 135.73-57.8435C137.07-54.6135 137.59-51.0935 137.25-47.6035C136.9-44.1135 135.71-40.7735 133.77-37.8635C131.83-34.9535 129.19-32.5535 126.12-30.9135C123.17-29.3235 119.9-28.4535 116.56-28.3735L116.06-28.3735L16.53-28.3735C12.61-28.3735 9.43-31.5435 9.43-35.4735C9.43-39.3135 12.48-42.4435 16.29-42.5635L16.53-42.5735L116.06-42.5735C117.22-42.5735 118.36-42.8535 119.41-43.4235C120.43-43.9635 121.31-44.7635 121.95-45.7335C122.6-46.7135 123-47.8235 123.12-48.9935C123.23-50.1635 123.06-51.3435 122.62-52.4035C122.16-53.4935 121.45-54.4535 120.54-55.1935C119.64-55.9335 118.57-56.4435 117.41-56.6735C116.27-56.9035 115.09-56.8435 113.98-56.5035C112.95-56.1935 112.01-55.6635 111.24-54.9535L111.01-54.7435C108.24-51.9635 103.74-51.9635 100.97-54.7435C98.2-57.5135 98.2-62.0035 100.97-64.7835C103.44-67.2535 106.5-69.0735 109.85-70.0935Z"/>
  </g>
  <g id="Heavy-L" transform="matrix(1 0 0 1 2564.37 1556)">
   <path class="hierarchical-0:tertiary SFSymbolsPreview8E8E8E" d="M83.9-18.9609C86.81-18.9709 89.66-18.2609 92.23-16.9109C94.79-15.5509 96.99-13.5709 98.61-11.1709C100.23-8.76094 101.22-5.99094 101.52-3.10094C101.81-0.20094 101.38 2.71906 100.27 5.37906C99.17 8.06906 97.41 10.4491 95.17 12.2791C92.93 14.1291 90.25 15.3891 87.42 15.9491C84.57 16.5191 81.61 16.3691 78.86 15.5291C76.07 14.6891 73.53 13.1591 71.47 11.0791C69.04 8.62906 69.06 4.67906 71.51 2.24906C73.9-0.12094 77.72-0.17094 80.16 2.09906L80.35 2.27906C80.94 2.87906 81.67 3.31906 82.5 3.56906C83.3 3.80906 84.15 3.85906 84.98 3.68906C85.81 3.52906 86.58 3.15906 87.23 2.62906C87.88 2.08906 88.4 1.39906 88.72 0.60906C89.04-0.17094 89.17-1.00094 89.08-1.83094C89-2.68094 88.71-3.49094 88.23-4.20094C87.77-4.89094 87.13-5.46094 86.38-5.86094C85.71-6.21094 84.98-6.41094 84.22-6.45094L83.93-6.46094L15.68-6.46094C12.23-6.46094 9.43-9.26094 9.43-12.7109C9.43-16.0809 12.11-18.8309 15.45-18.9509L15.68-18.9609L83.9-18.9609Z"/>
   <path class="hierarchical-1:secondary SFSymbolsPreview4D4D4D" d="M61.76-86.4309C64.56-87.2909 67.51-87.4409 70.32-86.8709C73.18-86.3109 75.85-85.0509 78.1-83.2109C80.34-81.3709 82.09-79.0109 83.2-76.3309C84.31-73.6509 84.74-70.7409 84.46-67.8109C84.16-64.9209 83.17-62.1609 81.55-59.7509C79.93-57.3409 77.73-55.3609 75.18-54.0209C72.75-52.7309 70.06-52.0209 67.35-51.9609L66.87-51.9609L15.68-51.9609C12.23-51.9609 9.43-54.7609 9.43-58.2109C9.43-61.5809 12.11-64.3309 15.45-64.4509L15.68-64.4609L66.9-64.4609C67.73-64.4509 68.57-64.6609 69.34-65.0709C70.07-65.4509 70.71-66.0309 71.18-66.7309C71.65-67.4209 71.94-68.2309 72.02-69.0509C72.1-69.9109 71.98-70.7609 71.66-71.5309C71.33-72.3209 70.82-73.0109 70.17-73.5509C69.52-74.0809 68.75-74.4409 67.88-74.6109C67.08-74.7709 66.23-74.7309 65.4-74.4709C64.7-74.2609 64.05-73.8909 63.49-73.3909L63.29-73.1909C60.86-70.7409 56.9-70.7309 54.45-73.1609C52-75.5909 51.98-79.5509 54.41-82.0009C56.47-84.0709 59-85.6009 61.76-86.4309Z"/>
   <path class="hierarchical-2:primary SFSymbolsPreview212121" d="M109.26-69.2709C112.48-70.2509 115.9-70.4109 119.18-69.7509C122.47-69.1009 125.56-67.6409 128.17-65.5009C130.78-63.3709 132.81-60.6209 134.09-57.5309C135.39-54.4209 135.89-51.0309 135.56-47.6709C135.23-44.3409 134.09-41.1409 132.21-38.3109C130.34-35.5109 127.81-33.2109 124.88-31.6409C122.05-30.1209 118.92-29.2909 115.72-29.2109L115.21-29.2109L15.68-29.2109C12.23-29.2109 9.43-32.0009 9.43-35.4609C9.43-38.8309 12.11-41.5809 15.45-41.7009L15.68-41.7109L115.21-41.7109C116.52-41.7109 117.8-42.0309 118.97-42.6609C120.11-43.2709 121.09-44.1609 121.81-45.2309C122.54-46.3409 122.99-47.6009 123.12-48.9009C123.25-50.2009 123.05-51.5109 122.54-52.7409C122.04-53.9509 121.26-55.0109 120.25-55.8309C119.23-56.6709 118.03-57.2409 116.74-57.4909C115.45-57.7509 114.13-57.6809 112.89-57.3109C111.73-56.9509 110.67-56.3509 109.8-55.5509L109.57-55.3309C107.13-52.8909 103.17-52.8909 100.73-55.3309C98.29-57.7709 98.29-61.7309 100.73-64.1709C103.1-66.5409 106.03-68.2809 109.26-69.2709Z"/>
  </g>
  <g id="Bold-L" transform="matrix(1 0 0 1 2268.62 1556)">
   <path class="hierarchical-0:tertiary SFSymbolsPreview8E8E8E" d="M82.95-18.0012C85.7-18.0112 88.41-17.3412 90.83-16.0612C93.26-14.7812 95.34-12.9012 96.87-10.6312C98.4-8.35122 99.34-5.73122 99.63-2.97122C99.89-0.221223 99.49 2.52878 98.43 5.05878C97.38 7.58878 95.72 9.82878 93.6 11.5688C91.48 13.3088 88.95 14.4988 86.28 15.0288C83.58 15.5688 80.8 15.4288 78.17 14.6288C75.54 13.8288 73.14 12.3788 71.2 10.4188C69.14 8.34878 69.15 4.98878 71.23 2.92878C73.25 0.928777 76.47 0.878777 78.54 2.77878L78.72 2.95878C79.43 3.66878 80.3 4.19878 81.25 4.47878C82.22 4.77878 83.22 4.82878 84.21 4.62878C85.19 4.43878 86.11 4.00878 86.88 3.36878C87.65 2.73878 88.26 1.91878 88.65 0.978777C89.03 0.0787773 89.17-0.931223 89.08-1.92122C88.98-2.92122 88.63-3.88122 88.07-4.72122C87.52-5.54122 86.76-6.22122 85.88-6.69122C85.07-7.11122 84.19-7.35122 83.28-7.39122L82.98-7.40122L14.73-7.40122C11.8-7.40122 9.43-9.77122 9.43-12.7012C9.43-15.5512 11.69-17.8812 14.51-17.9912L14.73-18.0012L82.95-18.0012Z"/>
   <path class="hierarchical-1:secondary SFSymbolsPreview4D4D4D" d="M61.08-85.5112C63.72-86.3212 66.51-86.4712 69.19-85.9312C71.89-85.4012 74.42-84.2112 76.54-82.4712C78.66-80.7312 80.32-78.4912 81.38-75.9312C82.43-73.3912 82.83-70.6312 82.56-67.9312C82.29-65.2012 81.35-62.5812 79.8-60.2612C78.25-57.9712 76.18-56.1112 73.78-54.8512C71.5-53.6312 68.96-52.9712 66.4-52.9012L65.92-52.9012L14.73-52.9012C11.8-52.9012 9.43-55.2712 9.43-58.2012C9.43-61.0512 11.69-63.3812 14.51-63.4912L14.73-63.5012L65.95-63.5012C66.94-63.4912 67.92-63.7412 68.83-64.2212C69.7-64.6812 70.45-65.3612 71-66.1712C71.57-67.0212 71.91-67.9712 72.01-68.9712C72.11-69.9712 71.96-70.9712 71.59-71.8812C71.2-72.8212 70.59-73.6412 69.82-74.2712C69.05-74.9012 68.13-75.3412 67.13-75.5312C66.16-75.7312 65.15-75.6812 64.17-75.3712C63.33-75.1212 62.55-74.6712 61.88-74.0612L61.66-73.8512C59.6-71.7812 56.24-71.7612 54.17-73.8312C52.09-75.8912 52.08-79.2412 54.14-81.3212C56.08-83.2812 58.48-84.7312 61.08-85.5112Z"/>
   <path class="hierarchical-2:primary SFSymbolsPreview212121" d="M108.58-68.3512C111.66-69.2812 114.91-69.4412 118.04-68.8112C121.18-68.1912 124.13-66.8012 126.63-64.7512C129.11-62.7212 131.05-60.0912 132.26-57.1612C133.49-54.2112 133.97-50.9912 133.66-47.7612C133.35-44.5812 132.26-41.5312 130.47-38.8312C128.69-36.1712 126.28-33.9812 123.47-32.4712C120.79-31.0312 117.81-30.2412 114.77-30.1612L114.26-30.1512L14.73-30.1512C11.8-30.1512 9.43-32.5212 9.43-35.4512C9.43-38.3012 11.69-40.6312 14.51-40.7412L14.73-40.7512L114.26-40.7512C115.72-40.7512 117.16-41.1112 118.45-41.8112C119.74-42.5012 120.85-43.5112 121.65-44.7012C122.47-45.9412 122.97-47.3512 123.11-48.7812C123.25-50.2612 123.04-51.7412 122.47-53.0912C121.92-54.4312 121.03-55.6312 119.91-56.5612C118.76-57.4912 117.42-58.1312 115.98-58.4112C114.54-58.7012 113.06-58.6312 111.66-58.2112C110.36-57.8112 109.18-57.1412 108.19-56.2312L107.93-55.9812C105.85-53.9212 102.5-53.9312 100.43-56.0012C98.37-58.0812 98.38-61.4312 100.45-63.5012C102.73-65.7612 105.51-67.4212 108.58-68.3512Z"/>
  </g>
  <g id="Semibold-L" transform="matrix(1 0 0 1 1972.55 1556)">
   <path class="hierarchical-0:tertiary SFSymbolsPreview8E8E8E" d="M82.32-17.3415C84.96-17.3515 87.57-16.7115 89.87-15.4815C92.2-14.2515 94.19-12.4615 95.7-10.2415C97.16-8.05149 98.06-5.54149 98.33-2.92149C98.59-0.281493 98.2 2.36851 97.19 4.79851C96.19 7.23851 94.59 9.39851 92.55 11.0785C90.51 12.7485 88.08 13.8985 85.51 14.3985C82.91 14.9185 80.23 14.7785 77.72 14.0085C75.19 13.2485 72.89 11.8585 71.02 9.97851C69.21 8.14851 69.22 5.20851 71.05 3.39851C72.81 1.64851 75.63 1.59851 77.45 3.25851L77.62 3.42851C78.41 4.21851 79.37 4.79851 80.43 5.11851C81.48 5.43851 82.6 5.49851 83.7 5.27851C84.78 5.06851 85.8 4.58851 86.65 3.88851C87.5 3.18851 88.17 2.28851 88.6 1.23851C89.02 0.218507 89.19-0.881493 89.07-1.98149C88.96-3.09149 88.58-4.15149 87.98-5.05149C87.35-5.98149 86.51-6.74149 85.52-7.26149C84.65-7.72149 83.68-7.99149 82.68-8.03149L82.34-8.04149L14.08-8.04149C11.51-8.04149 9.43-10.1215 9.43-12.6915C9.43-15.1915 11.4-17.2215 13.87-17.3315L14.08-17.3415L82.32-17.3415Z"/>
   <path class="hierarchical-1:secondary SFSymbolsPreview4D4D4D" d="M60.63-84.8815C63.17-85.6615 65.85-85.8015 68.43-85.2815C71.02-84.7715 73.46-83.6215 75.48-81.9515C77.53-80.2715 79.13-78.1115 80.12-75.7015C81.14-73.2515 81.53-70.5915 81.27-67.9615C81-65.3315 80.09-62.8115 78.62-60.6315C77.15-58.4415 75.15-56.6315 72.83-55.4115C70.62-54.2415 68.19-53.6015 65.73-53.5415L65.27-53.5415L14.08-53.5415C11.51-53.5415 9.43-55.6215 9.43-58.1915C9.43-60.6915 11.4-62.7215 13.87-62.8315L14.08-62.8415L65.3-62.8415C66.4-62.8315 67.48-63.1015 68.48-63.6315C69.45-64.1415 70.29-64.9015 70.9-65.8115C71.52-66.7315 71.9-67.7915 72.01-68.9015C72.13-70.0015 71.96-71.1015 71.53-72.1415C71.11-73.1515 70.44-74.0615 69.57-74.7715C68.73-75.4615 67.72-75.9415 66.61-76.1615C65.54-76.3815 64.42-76.3215 63.34-75.9815C62.4-75.7015 61.53-75.2115 60.79-74.5315L60.55-74.3015C58.74-72.4815 55.8-72.4715 53.98-74.2815C52.15-76.0915 52.14-79.0315 53.95-80.8515C55.82-82.7415 58.13-84.1315 60.63-84.8815Z"/>
   <path class="hierarchical-2:primary SFSymbolsPreview212121" d="M108.12-67.7215C111.09-68.6215 114.24-68.7715 117.27-68.1615C120.31-67.5615 123.17-66.2115 125.55-64.2515C127.95-62.2915 129.83-59.7615 131.03-56.8815C132.21-54.0215 132.67-50.9015 132.37-47.8115C132.06-44.7315 131.01-41.7715 129.29-39.1915C127.58-36.6115 125.24-34.4915 122.52-33.0415C119.92-31.6415 117.04-30.8715 114.11-30.8015L113.62-30.7915L14.08-30.7915C11.51-30.7915 9.43-32.8715 9.43-35.4415C9.43-37.9415 11.4-39.9715 13.87-40.0815L14.08-40.0915L113.62-40.0915C115.18-40.0915 116.72-40.4815 118.12-41.2315C119.5-41.9715 120.68-43.0415 121.55-44.3515C122.42-45.6615 122.96-47.1615 123.11-48.7315C123.27-50.2915 123.03-51.8715 122.44-53.3115C121.83-54.7815 120.88-56.0615 119.66-57.0615C118.45-58.0515 117-58.7415 115.45-59.0415C113.91-59.3515 112.32-59.2715 110.83-58.8215C109.43-58.3915 108.15-57.6615 107.1-56.6915L106.84-56.4415C105.02-54.6315 102.08-54.6315 100.26-56.4415C98.45-58.2615 98.45-61.2015 100.26-63.0215C102.45-65.2015 105.15-66.8115 108.12-67.7215Z"/>
  </g>
  <g id="Medium-L" transform="matrix(1 0 0 1 1676.34 1556)">
   <path class="hierarchical-0:tertiary SFSymbolsPreview8E8E8E" d="M81.82-16.8318C84.38-16.8418 86.9-16.2118 89.14-15.0218C91.4-13.8418 93.33-12.1018 94.78-9.95175C96.2-7.83175 97.07-5.40175 97.33-2.86175C97.59-0.301753 97.21 2.26825 96.23 4.61825C95.26 6.97825 93.71 9.06825 91.73 10.6982C89.75 12.3282 87.4 13.4282 84.91 13.9182C82.4 14.4282 79.8 14.2882 77.36 13.5382C74.92 12.8082 72.68 11.4582 70.88 9.63825C69.26 8.00825 69.27 5.37825 70.9 3.76825C72.47 2.20825 74.98 2.15825 76.6 3.62825L76.77 3.78825C77.61 4.63825 78.64 5.25825 79.78 5.59825C80.92 5.94825 82.12 6.01825 83.29 5.77825C84.46 5.54825 85.55 5.03825 86.47 4.27825C87.39 3.52825 88.1 2.55825 88.56 1.44825C89.02 0.348247 89.19-0.841753 89.07-2.02175C88.95-3.21175 88.54-4.35175 87.89-5.32175C87.22-6.32175 86.32-7.13175 85.26-7.69175C84.31-8.19175 83.25-8.48175 82.17-8.52175L81.84-8.53175L13.58-8.53175C11.29-8.53175 9.43-10.3918 9.43-12.6818C9.43-14.9018 11.18-16.7218 13.37-16.8218L13.58-16.8318L81.82-16.8318Z"/>
   <path class="hierarchical-1:secondary SFSymbolsPreview4D4D4D" d="M60.28-84.4018C62.74-85.1518 65.34-85.2818 67.83-84.7818C70.34-84.2918 72.71-83.1718 74.66-81.5618C76.65-79.9318 78.2-77.8418 79.16-75.4918C80.15-73.1218 80.53-70.5518 80.27-68.0018C80.01-65.4518 79.13-63.0118 77.71-60.9018C76.28-58.7718 74.34-57.0318 72.09-55.8418C69.96-54.7118 67.6-54.0918 65.22-54.0318L64.77-54.0318L13.58-54.0318C11.29-54.0318 9.43-55.8918 9.43-58.1818C9.43-60.4018 11.18-62.2218 13.37-62.3218L13.58-62.3318L64.79-62.3318C65.98-62.3218 67.14-62.6118 68.22-63.1818C69.25-63.7318 70.16-64.5418 70.82-65.5318C71.48-66.5118 71.89-67.6518 72.01-68.8418C72.13-70.0218 71.96-71.2118 71.49-72.3218C71.05-73.4118 70.32-74.3818 69.39-75.1518C68.49-75.8918 67.39-76.4118 66.21-76.6418C65.06-76.8718 63.86-76.8118 62.69-76.4518C61.67-76.1518 60.73-75.6118 59.93-74.8718L59.7-74.6518C58.08-73.0218 55.45-73.0118 53.83-74.6218C52.2-76.2418 52.19-78.8718 53.81-80.4918C55.62-82.3218 57.85-83.6718 60.28-84.4018Z"/>
   <path class="hierarchical-2:primary SFSymbolsPreview212121" d="M107.77-67.2318C110.65-68.1118 113.72-68.2518 116.67-67.6618C119.63-67.0818 122.41-65.7618 124.74-63.8518C127.07-61.9418 128.9-59.4818 130.07-56.6818C131.22-53.8918 131.67-50.8618 131.37-47.8518C131.07-44.8518 130.05-41.9718 128.38-39.4618C126.71-36.9518 124.43-34.8818 121.78-33.4718C119.26-32.1118 116.47-31.3618 113.62-31.2918L113.12-31.2818L13.58-31.2818C11.29-31.2818 9.43-33.1418 9.43-35.4318C9.43-37.6518 11.18-39.4718 13.37-39.5718L13.58-39.5818L113.12-39.5818C114.76-39.5818 116.39-39.9918 117.86-40.7818C119.31-41.5618 120.55-42.6918 121.47-44.0618C122.38-45.4418 122.95-47.0218 123.11-48.6718C123.27-50.3118 123.03-51.9818 122.4-53.4918C121.76-55.0418 120.76-56.3918 119.48-57.4318C118.2-58.4818 116.68-59.2018 115.05-59.5218C113.43-59.8518 111.76-59.7718 110.19-59.2918C108.71-58.8418 107.37-58.0718 106.26-57.0518L105.99-56.7818C104.36-55.1618 101.74-55.1618 100.12-56.7818C98.5-58.4118 98.5-61.0318 100.12-62.6518C102.24-64.7818 104.88-66.3518 107.77-67.2318Z"/>
  </g>
  <g id="Regular-L" transform="matrix(1 0 0 1 1380.28 1556)">
   <path class="hierarchical-0:tertiary SFSymbolsPreview8E8E8E" d="M81.17-16.1726C83.62-16.1826 86.04-15.5826 88.18-14.4426C90.35-13.3026 92.2-11.6426 93.59-9.58264C94.95-7.55264 95.78-5.21264 96.03-2.78264C96.28-0.342637 95.92 2.12736 94.98 4.37736C94.05 6.64736 92.57 8.64736 90.67 10.2074C88.77 11.7574 86.52 12.8274 84.13 13.2874C81.72 13.7774 79.23 13.6474 76.9 12.9274C74.56 12.2274 72.42 10.9274 70.69 9.18736C69.32 7.81736 69.33 5.59736 70.7 4.23736C72.03 2.91736 74.14 2.88736 75.51 4.10736L75.65 4.25736C76.57 5.17736 77.7 5.85736 78.94 6.23736C80.18 6.61736 81.49 6.67736 82.77 6.42736C84.04 6.17736 85.23 5.61736 86.23 4.79736C87.23 3.96736 88.01 2.91736 88.51 1.70736C89.01 0.507363 89.2-0.792637 89.07-2.07264C88.94-3.37264 88.49-4.61264 87.78-5.68264C87.04-6.76264 86.07-7.65264 84.91-8.25264C83.87-8.81264 82.71-9.12264 81.52-9.16264L81.19-9.17264L12.93-9.17264C11-9.17264 9.43-10.7426 9.43-12.6726C9.43-14.5426 10.89-16.0626 12.74-16.1626L12.93-16.1726L81.17-16.1726Z"/>
   <path class="hierarchical-1:secondary SFSymbolsPreview4D4D4D" d="M59.82-83.7626C62.17-84.4926 64.66-84.6126 67.06-84.1326C69.46-83.6626 71.73-82.5926 73.6-81.0426C75.5-79.4826 76.99-77.4826 77.91-75.2326C78.86-72.9626 79.22-70.5026 78.97-68.0526C78.72-65.6126 77.88-63.2826 76.52-61.2526C75.15-59.2226 73.29-57.5426 71.14-56.4126C69.1-55.3226 66.85-54.7326 64.58-54.6726L64.12-54.6726L12.93-54.6726C11-54.6726 9.43-56.2426 9.43-58.1726C9.43-60.0426 10.89-61.5626 12.74-61.6626L12.93-61.6726L64.14-61.6726C65.43-61.6626 66.7-61.9826 67.87-62.5926C69-63.1926 69.99-64.0826 70.71-65.1526C71.43-66.2326 71.88-67.4726 72.01-68.7626C72.14-70.0526 71.95-71.3526 71.44-72.5626C70.96-73.7426 70.17-74.8026 69.15-75.6426C68.17-76.4526 66.97-77.0126 65.69-77.2726C64.43-77.5226 63.12-77.4526 61.86-77.0726C60.63-76.7026 59.5-76.0226 58.58-75.0926C57.22-73.7226 55.01-73.7126 53.63-75.0726C52.26-76.4426 52.25-78.6526 53.62-80.0226C55.35-81.7726 57.49-83.0726 59.82-83.7626Z"/>
   <path class="hierarchical-2:primary SFSymbolsPreview212121" d="M107.31-66.6026C110.09-67.4426 113.05-67.5926 115.89-67.0126C118.75-66.4526 121.43-65.1826 123.68-63.3426C125.93-61.5026 127.69-59.1226 128.81-56.4226C129.93-53.7326 130.36-50.8026 130.07-47.9026C129.79-45.0126 128.8-42.2326 127.18-39.8126C125.57-37.3926 123.38-35.3926 120.82-34.0326C118.39-32.7226 115.7-32.0026 112.95-31.9326L112.47-31.9226L12.93-31.9226C11-31.9226 9.43-33.4926 9.43-35.4226C9.43-37.2926 10.89-38.8126 12.74-38.9126L12.93-38.9226L112.47-38.9226C114.22-38.9226 115.95-39.3626 117.51-40.2026C119.06-41.0226 120.38-42.2326 121.36-43.6926C122.33-45.1526 122.93-46.8326 123.11-48.5926C123.28-50.3526 123.02-52.1226 122.35-53.7326C121.67-55.3726 120.6-56.8126 119.24-57.9326C117.88-59.0426 116.26-59.8126 114.53-60.1526C112.8-60.4926 111.02-60.4126 109.35-59.9026C107.77-59.4226 106.33-58.6026 105.14-57.4926L104.87-57.2326C103.51-55.8726 101.29-55.8726 99.93-57.2326C98.56-58.6026 98.56-60.8226 99.93-62.1826C101.98-64.2426 104.52-65.7526 107.31-66.6026Z"/>
  </g>
  <g id="Light-L" transform="matrix(1 0 0 1 1084.37 1556)">
   <path class="hierarchical-0:tertiary SFSymbolsPreview8E8E8E" d="M80.38-15.3629C82.69-15.3729 84.98-14.8029 87.01-13.7229C89.06-12.6529 90.81-11.0729 92.13-9.12293C93.41-7.20293 94.2-4.99293 94.44-2.69293C94.67-0.382934 94.33 1.94707 93.44 4.08707C92.56 6.22707 91.16 8.12707 89.36 9.59707C87.57 11.0671 85.44 12.0771 83.17 12.5171C80.9 12.9771 78.54 12.8571 76.33 12.1771C74.12 11.5071 72.09 10.2871 70.45 8.62707C69.4 7.57707 69.41 5.86707 70.47 4.81707C71.53 3.76707 73.24 3.76707 74.29 4.82707C75.3 5.84707 76.54 6.59707 77.9 7.00707C79.27 7.42707 80.71 7.50707 82.12 7.21707C83.52 6.94707 84.83 6.32707 85.94 5.42707C87.04 4.51707 87.9 3.35707 88.45 2.02707C89 0.707066 89.21-0.722934 89.06-2.14293C88.92-3.57293 88.43-4.94293 87.64-6.11293C86.83-7.31293 85.75-8.28293 84.49-8.94293C83.34-9.56293 82.06-9.90293 80.75-9.95293L80.39-9.96293L12.13-9.96293C10.64-9.96293 9.43-11.1729 9.43-12.6629C9.43-14.0929 10.55-15.2629 11.96-15.3529L12.13-15.3629L80.38-15.3629Z"/>
   <path class="hierarchical-1:secondary SFSymbolsPreview4D4D4D" d="M59.26-82.9929C61.48-83.6729 63.84-83.7929 66.1-83.3429C68.38-82.8929 70.52-81.8829 72.29-80.4129C74.09-78.9429 75.5-77.0429 76.37-74.9129C77.27-72.7729 77.61-70.4429 77.38-68.1229C77.14-65.8129 76.34-63.6029 75.05-61.6829C73.76-59.7629 72-58.1829 69.96-57.1029C68.03-56.0829 65.91-55.5229 63.75-55.4629L63.32-55.4629L12.13-55.4629C10.64-55.4629 9.43-56.6729 9.43-58.1629C9.43-59.5929 10.55-60.7629 11.96-60.8529L12.13-60.8629L63.33-60.8629C64.76-60.8529 66.16-61.2029 67.44-61.8829C68.69-62.5429 69.78-63.5129 70.57-64.7029C71.37-65.8829 71.86-67.2429 72-68.6729C72.15-70.0929 71.94-71.5229 71.38-72.8529C70.85-74.1629 69.98-75.3329 68.86-76.2529C67.77-77.1429 66.46-77.7629 65.05-78.0429C63.65-78.3229 62.21-78.2529 60.83-77.8229C59.47-77.4129 58.23-76.6729 57.22-75.6529C56.17-74.5929 54.46-74.5829 53.4-75.6329C52.34-76.6829 52.33-78.3929 53.38-79.4529C55.03-81.1129 57.05-82.3329 59.26-82.9929Z"/>
   <path class="hierarchical-2:primary SFSymbolsPreview212121" d="M106.74-65.8229C109.4-66.6329 112.22-66.7629 114.94-66.2229C117.67-65.6829 120.23-64.4729 122.37-62.7129C124.52-60.9529 126.2-58.6829 127.27-56.1029C128.34-53.5429 128.75-50.7429 128.48-47.9729C128.2-45.2029 127.26-42.5529 125.72-40.2429C124.18-37.9329 122.08-36.0329 119.64-34.7229C117.33-33.4829 114.77-32.7929 112.16-32.7229L111.67-32.7129L12.13-32.7129C10.64-32.7129 9.43-33.9229 9.43-35.4129C9.43-36.8429 10.55-38.0129 11.96-38.1029L12.13-38.1129L111.67-38.1129C113.55-38.1129 115.41-38.5829 117.09-39.4829C118.75-40.3729 120.18-41.6629 121.22-43.2429C122.27-44.8129 122.92-46.6229 123.1-48.5029C123.29-50.3929 123.01-52.2929 122.29-54.0329C121.55-55.7929 120.41-57.3429 118.95-58.5329C117.49-59.7329 115.75-60.5629 113.89-60.9229C112.03-61.2929 110.11-61.2029 108.31-60.6529C106.49-60.1029 104.84-59.1229 103.51-57.7929C102.45-56.7329 100.75-56.7329 99.69-57.7929C98.64-58.8429 98.64-60.5529 99.69-61.6129C101.65-63.5729 104.07-65.0129 106.74-65.8229Z"/>
  </g>
  <g id="Thin-L" transform="matrix(1 0 0 1 788.71 1556)">
   <path class="hierarchical-0:tertiary SFSymbolsPreview8E8E8E" d="M79.321-14.3004C81.464-14.3104 83.58-13.7804 85.474-12.7804C87.364-11.7804 88.987-10.3204 90.19-8.53038C91.386-6.75038 92.124-4.70038 92.337-2.57038C92.551-0.430377 92.235 1.71962 91.414 3.70962C90.592 5.68962 89.296 7.43962 87.639 8.79962C85.98 10.1596 84.008 11.0896 81.909 11.4996C79.806 11.9196 77.629 11.8096 75.577 11.1796C73.53 10.5696 71.66 9.43962 70.14 7.90962C69.498 7.25962 69.501 6.21962 70.148 5.56962C70.794 4.92962 71.839 4.92962 72.481 5.57962C73.617 6.71962 75.01 7.56962 76.536 8.02962C78.074 8.49962 79.695 8.57962 81.266 8.25962C82.838 7.95962 84.308 7.25962 85.544 6.24962C86.782 5.22962 87.751 3.91962 88.365 2.43962C88.977 0.959623 89.214-0.640377 89.054-2.24038C88.895-3.83038 88.343-5.36038 87.451-6.69038C86.554-8.03038 85.343-9.12038 83.932-9.86038C82.622-10.5604 81.176-10.9404 79.699-10.9904L79.33-11.0004L11.08-11.0004C10.168-11.0004 9.43-11.7404 9.43-12.6504C9.43-13.5104 10.093-14.2204 10.937-14.2904L11.08-14.3004L79.321-14.3004Z"/>
   <path class="hierarchical-1:secondary SFSymbolsPreview4D4D4D" d="M58.506-81.9704C60.566-82.6104 62.744-82.7204 64.838-82.3004C66.945-81.8804 68.916-80.9504 70.576-79.5904C72.234-78.2304 73.531-76.4804 74.351-74.5004C75.171-72.5204 75.488-70.3604 75.275-68.2204C75.061-66.0904 74.324-64.0404 73.126-62.2504C71.923-60.4704 70.301-59.0104 68.418-58.0204C66.645-57.0804 64.684-56.5604 62.694-56.5004L62.268-56.5004L11.08-56.5004C10.168-56.5004 9.43-57.2404 9.43-58.1504C9.43-59.0104 10.093-59.7204 10.937-59.7904L11.08-59.8004L62.276-59.8004C63.872-59.7904 65.45-60.1804 66.876-60.9404C68.28-61.6804 69.49-62.7704 70.387-64.1004C71.281-65.4304 71.832-66.9604 71.992-68.5504C72.151-70.1504 71.914-71.7604 71.302-73.2404C70.689-74.7204 69.72-76.0204 68.481-77.0404C67.244-78.0604 65.775-78.7504 64.195-79.0604C62.632-79.3704 61.011-79.2904 59.467-78.8204C57.947-78.3604 56.554-77.5204 55.418-76.3704C54.776-75.7304 53.731-75.7204 53.085-76.3704C52.438-77.0104 52.435-78.0504 53.077-78.7004C54.597-80.2304 56.467-81.3604 58.506-81.9704Z"/>
   <path class="hierarchical-2:primary SFSymbolsPreview212121" d="M105.99-64.8104C108.483-65.5604 111.128-65.6904 113.685-65.1804C116.235-64.6804 118.629-63.5404 120.652-61.8804C122.666-60.2304 124.245-58.1004 125.244-55.6904C126.242-53.2904 126.632-50.6704 126.379-48.0704C126.124-45.4804 125.236-42.9904 123.788-40.8104C122.337-38.6404 120.376-36.8604 118.089-35.6404C115.925-34.4704 113.523-33.8304 111.071-33.7504L110.611-33.7504L11.08-33.7504C10.168-33.7504 9.43-34.4904 9.43-35.4004C9.43-36.2604 10.093-36.9704 10.937-37.0404L11.08-37.0504L110.611-37.0504C112.675-37.0504 114.705-37.5604 116.528-38.5404C118.34-39.5104 119.894-40.9204 121.041-42.6404C122.189-44.3704 122.893-46.3404 123.094-48.3904C123.295-50.4504 122.986-52.5304 122.196-54.4304C121.404-56.3404 120.154-58.0304 118.561-59.3304C116.957-60.6504 115.062-61.5404 113.042-61.9404C111.012-62.3504 108.92-62.2504 106.95-61.6504C104.964-61.0504 103.166-59.9704 101.709-58.5204C101.063-57.8804 100.018-57.8804 99.375-58.5204C98.732-59.1704 98.733-60.2104 99.379-60.8604C101.22-62.6904 103.489-64.0504 105.99-64.8104Z"/>
  </g>
  <g id="Ultralight-L" transform="matrix(1 0 0 1 492.549 1556)">
   <path class="hierarchical-0:tertiary SFSymbolsPreview8E8E8E" d="M78.775-13.7435C80.827-13.7535 82.853-13.2535 84.669-12.2835C86.478-11.3335 88.032-9.93349 89.184-8.22349C90.33-6.51349 91.037-4.55349 91.241-2.51349C91.446-0.463486 91.142 1.59651 90.357 3.49651C89.57 5.39651 88.327 7.07651 86.741 8.37651C85.152 9.68651 83.264 10.5765 81.251 10.9665C79.238 11.3765 77.154 11.2665 75.186 10.6665C73.227 10.0765 71.437 8.98651 69.981 7.52651C69.553 7.09651 69.555 6.39651 69.986 5.96651C70.417 5.53651 71.114 5.54651 71.542 5.97651C72.742 7.18651 74.214 8.06651 75.826 8.55651C77.45 9.05651 79.164 9.14651 80.823 8.80651C82.484 8.48651 84.037 7.75651 85.344 6.67651C86.652 5.60651 87.675 4.22651 88.324 2.65651C88.971 1.09651 89.221-0.603486 89.052-2.29349C88.884-3.97349 88.301-5.58349 87.358-6.99349C86.41-8.40349 85.131-9.55349 83.641-10.3435C82.257-11.0735 80.729-11.4835 79.171-11.5335L78.78-11.5435L10.53-11.5435C9.923-11.5435 9.43-12.0335 9.43-12.6435C9.43-13.2035 9.859-13.6735 10.411-13.7335L10.53-13.7435L78.775-13.7435Z"/>
   <path class="hierarchical-1:secondary SFSymbolsPreview4D4D4D" d="M58.119-81.4435C60.091-82.0435 62.176-82.1535 64.183-81.7535C66.201-81.3535 68.088-80.4635 69.678-79.1635C71.265-77.8535 72.508-76.1835 73.294-74.2835C74.079-72.3835 74.383-70.3235 74.179-68.2735C73.974-66.2335 73.267-64.2735 72.12-62.5535C70.968-60.8435 69.415-59.4435 67.611-58.5035C65.913-57.5935 64.034-57.1035 62.127-57.0435L61.718-57.0435L10.53-57.0435C9.923-57.0435 9.43-57.5335 9.43-58.1435C9.43-58.7135 9.859-59.1735 10.411-59.2335L10.53-59.2435L61.724-59.2435C63.411-59.2335 65.079-59.6435 66.583-60.4435C68.068-61.2235 69.347-62.3735 70.294-63.7835C71.239-65.1935 71.821-66.8135 71.99-68.4935C72.158-70.1835 71.908-71.8735 71.261-73.4435C70.614-75.0035 69.59-76.3835 68.281-77.4635C66.974-78.5335 65.421-79.2635 63.754-79.5935C62.102-79.9235 60.387-79.8335 58.759-79.3335C57.152-78.8535 55.678-77.9635 54.479-76.7535C54.051-76.3235 53.354-76.3235 52.923-76.7535C52.492-77.1835 52.49-77.8735 52.918-78.3035C54.374-79.7735 56.165-80.8535 58.119-81.4435Z"/>
   <path class="hierarchical-2:primary SFSymbolsPreview212121" d="M105.6-64.2735C108.007-65.0035 110.559-65.1235 113.029-64.6335C115.49-64.1535 117.801-63.0535 119.755-61.4535C121.698-59.8635 123.222-57.8035 124.187-55.4735C125.15-53.1535 125.527-50.6235 125.282-48.1135C125.037-45.6135 124.179-43.2135 122.781-41.1135C121.381-39.0135 119.487-37.2935 117.278-36.1135C115.19-34.9835 112.872-34.3635 110.506-34.3035L110.061-34.2935L10.53-34.2935C9.923-34.2935 9.43-34.7835 9.43-35.3935C9.43-35.9635 9.859-36.4235 10.411-36.4835L10.53-36.4935L110.061-36.4935C112.217-36.4935 114.336-37.0235 116.238-38.0535C118.131-39.0635 119.752-40.5335 120.95-42.3335C122.147-44.1335 122.882-46.1935 123.093-48.3335C123.302-50.4835 122.98-52.6435 122.155-54.6335C121.328-56.6235 120.023-58.3935 118.36-59.7535C116.687-61.1235 114.708-62.0635 112.601-62.4735C110.482-62.9035 108.298-62.7935 106.24-62.1735C104.169-61.5435 102.293-60.4235 100.771-58.9035C100.341-58.4735 99.644-58.4735 99.215-58.9035C98.786-59.3335 98.788-60.0335 99.218-60.4635C100.995-62.2335 103.185-63.5435 105.6-64.2735Z"/>
  </g>
  <g id="Black-M" transform="matrix(1 0 0 1 2872.48 1126)">
   <path class="hierarchical-0:tertiary SFSymbolsPreview8E8E8E" d="M70.03-24.6887C72.68-24.7087 75.29-24.0587 77.63-22.8187C79.96-21.5787 81.95-19.7887 83.42-17.5987C84.89-15.4087 85.8-12.8987 86.07-10.2287C86.32-7.58867 85.93-4.92867 84.93-2.54867C83.92-0.118666 82.33 2.04133 80.3 3.71133C78.26 5.39133 75.84 6.53133 73.21 7.06133C70.62 7.56133 67.94 7.43133 65.44 6.66133C62.91 5.89133 60.6 4.50133 58.75 2.63133C55.99-0.158666 56.01-4.64867 58.79-7.40867C61.58-10.1687 66.08-10.1487 68.84-7.35867C69.04-7.15867 69.29-7.00867 69.6-6.91867C69.86-6.82867 70.18-6.81867 70.45-6.86867C70.76-6.92867 71.04-7.05867 71.27-7.24867C71.5-7.43867 71.68-7.68867 71.82-8.01867C71.92-8.25867 71.96-8.54867 71.94-8.82867C71.9-9.14867 71.8-9.42867 71.64-9.67867C71.47-9.92867 71.24-10.1287 70.97-10.2787C70.76-10.3887 70.53-10.4587 70.28-10.4787L70.08-10.4887L16.53-10.4887C12.61-10.4887 9.43-13.6687 9.43-17.5887C9.43-21.4287 12.48-24.5587 16.29-24.6787L16.53-24.6887L70.03-24.6887Z"/>
   <path class="hierarchical-1:secondary SFSymbolsPreview4D4D4D" d="M52.05-77.5387C54.59-78.3087 57.27-78.4487 59.82-77.9387C62.41-77.4287 64.83-76.2887 66.91-74.5987C68.94-72.9187 70.53-70.7687 71.55-68.3287C72.55-65.8887 72.94-63.2287 72.67-60.6087C72.41-57.9787 71.5-55.4687 70.03-53.2787C68.56-51.0887 66.57-49.2887 64.24-48.0587C62.04-46.8887 59.6-46.2487 57.15-46.1887L56.69-46.1887L16.53-46.1887C12.61-46.1887 9.43-49.3687 9.43-53.2887C9.43-57.1287 12.48-60.2587 16.29-60.3787L16.53-60.3887L56.74-60.3887C57.02-60.3887 57.31-60.4587 57.58-60.5987C57.85-60.7387 58.08-60.9487 58.25-61.1987C58.41-61.4387 58.51-61.7287 58.55-62.0487C58.58-62.3387 58.53-62.6387 58.42-62.9087C58.31-63.1787 58.12-63.4387 57.9-63.6187C57.66-63.8087 57.38-63.9387 57.06-64.0087C56.79-64.0587 56.49-64.0487 56.19-63.9587C55.91-63.8687 55.65-63.7087 55.42-63.4887C52.65-60.7087 48.15-60.7087 45.38-63.4887C42.61-66.2587 42.61-70.7587 45.38-73.5287C47.24-75.3887 49.53-76.7687 52.05-77.5387Z"/>
   <path class="hierarchical-2:primary SFSymbolsPreview212121" d="M89.32-64.0787C92.2-64.9387 95.24-65.0887 98.19-64.4987C101.11-63.9087 103.86-62.6087 106.17-60.7187C108.5-58.8187 110.32-56.3587 111.47-53.5887C112.61-50.8287 113.06-47.8187 112.78-44.8087C112.48-41.8387 111.46-38.9687 109.8-36.4687C108.13-33.9687 105.87-31.9187 103.24-30.5087C100.73-29.1687 97.96-28.4187 95.12-28.3487L94.62-28.3387L16.53-28.3387C12.61-28.3387 9.43-31.5187 9.43-35.4387C9.43-39.2787 12.48-42.4087 16.29-42.5287L16.53-42.5387L94.62-42.5387C95.28-42.5387 95.92-42.6987 96.54-43.0287C97.12-43.3387 97.61-43.7887 97.98-44.3387C98.35-44.8887 98.58-45.5487 98.64-46.1687C98.71-46.8487 98.6-47.5387 98.35-48.1487C98.1-48.7587 97.69-49.3087 97.19-49.7187C96.66-50.1487 96.04-50.4487 95.4-50.5787C94.74-50.7087 94.06-50.6687 93.46-50.4887C92.88-50.3087 92.35-50.0187 91.91-49.6287L91.72-49.4587C88.94-46.6987 84.44-46.7087 81.68-49.4987C78.92-52.2787 78.94-56.7787 81.72-59.5387C83.83-61.6287 86.43-63.1787 89.32-64.0787Z"/>
  </g>
  <g id="Heavy-M" transform="matrix(1 0 0 1 2576.62 1126)">
   <path class="hierarchical-0:tertiary SFSymbolsPreview8E8E8E" d="M69.19-23.8283C71.69-23.8483 74.16-23.2383 76.38-22.0583C78.59-20.8883 80.47-19.1883 81.87-17.1183C83.26-15.0383 84.11-12.6583 84.37-10.1383C84.61-7.63831 84.24-5.11831 83.29-2.86831C82.34-0.55831 80.83 1.48169 78.91 3.06169C76.98 4.65169 74.69 5.73169 72.19 6.24169C69.74 6.71169 67.2 6.59169 64.84 5.86169C62.44 5.13169 60.26 3.82169 58.5 2.04169C56.07-0.40831 56.09-4.36831 58.54-6.79831C61-9.22831 64.95-9.20831 67.38-6.75831C67.68-6.44831 68.06-6.22831 68.5-6.08831C68.9-5.96831 69.36-5.94831 69.77-6.02831C70.22-6.11831 70.62-6.30831 70.96-6.57831C71.3-6.85831 71.57-7.21831 71.75-7.67831C71.91-8.04831 71.97-8.48831 71.93-8.89831C71.89-9.35831 71.74-9.77831 71.49-10.1383C71.25-10.5083 70.91-10.8083 70.52-11.0183C70.19-11.1883 69.84-11.2883 69.46-11.3183L69.23-11.3283L15.68-11.3283C12.23-11.3283 9.43-14.1283 9.43-17.5783C9.43-20.9483 12.11-23.6983 15.45-23.8183L15.68-23.8283L69.19-23.8283Z"/>
   <path class="hierarchical-1:secondary SFSymbolsPreview4D4D4D" d="M51.45-76.7183C53.85-77.4483 56.39-77.5783 58.8-77.0883C61.25-76.6183 63.55-75.5283 65.52-73.9283C67.44-72.3383 68.95-70.3083 69.91-67.9983C70.86-65.6783 71.23-63.1683 70.98-60.6783C70.72-58.1883 69.87-55.8083 68.48-53.7383C67.08-51.6683 65.2-49.9683 62.99-48.7983C60.91-47.6883 58.59-47.0883 56.28-47.0283L55.84-47.0283L15.68-47.0283C12.23-47.0283 9.43-49.8283 9.43-53.2783C9.43-56.6483 12.11-59.3983 15.45-59.5183L15.68-59.5283L55.88-59.5283C56.31-59.5283 56.74-59.6283 57.13-59.8383C57.52-60.0483 57.86-60.3483 58.1-60.7083C58.35-61.0783 58.5-61.4883 58.54-61.9583C58.59-62.3783 58.52-62.8183 58.36-63.2183C58.19-63.6283 57.92-63.9983 57.59-64.2683C57.24-64.5483 56.83-64.7383 56.38-64.8283C55.96-64.9083 55.52-64.8883 55.09-64.7583C54.67-64.6283 54.29-64.3983 53.97-64.0783C51.53-61.6383 47.57-61.6383 45.13-64.0783C42.69-66.5183 42.69-70.4783 45.13-72.9183C46.9-74.6783 49.06-75.9883 51.45-76.7183Z"/>
   <path class="hierarchical-2:primary SFSymbolsPreview212121" d="M88.72-63.2483C91.46-64.0783 94.36-64.2183 97.17-63.6583C99.96-63.0983 102.58-61.8483 104.78-60.0483C107-58.2383 108.74-55.8983 109.83-53.2483C110.93-50.6083 111.36-47.7183 111.08-44.8783C110.8-42.0483 109.82-39.3083 108.24-36.9283C106.65-34.5483 104.5-32.5883 101.99-31.2483C99.6-29.9683 96.95-29.2583 94.25-29.1883L93.77-29.1783L15.68-29.1783C12.23-29.1783 9.43-31.9783 9.43-35.4283C9.43-38.7983 12.11-41.5483 15.45-41.6683L15.68-41.6783L93.77-41.6783C94.57-41.6783 95.35-41.8783 96.09-42.2683C96.79-42.6483 97.39-43.1983 97.83-43.8583C98.28-44.5283 98.56-45.3083 98.64-46.1083C98.72-46.8983 98.6-47.7183 98.29-48.4683C97.98-49.2083 97.49-49.8683 96.88-50.3683C96.24-50.8883 95.49-51.2383 94.71-51.3983C93.92-51.5583 93.1-51.5183 92.36-51.2983C91.65-51.0783 91.01-50.7083 90.47-50.2383L90.27-50.0483C87.82-47.6183 83.87-47.6383 81.43-50.0883C79-52.5383 79.02-56.4883 81.47-58.9283C83.48-60.9183 85.96-62.3983 88.72-63.2483Z"/>
  </g>
  <g id="Bold-M" transform="matrix(1 0 0 1 2280.86 1126)">
   <path class="hierarchical-0:tertiary SFSymbolsPreview8E8E8E" d="M68.24-22.8651C70.59-22.8751 72.91-22.3051 74.99-21.2051C77.06-20.1051 78.82-18.5151 80.13-16.5651C81.43-14.6251 82.24-12.3951 82.48-10.0251C82.7-7.69512 82.35-5.33512 81.46-3.20512C80.57-1.05512 79.17 0.844881 77.33 2.37488C75.51 3.85488 73.36 4.87488 71.1 5.31488C68.8 5.77488 66.4 5.65488 64.16 4.96488C61.92 4.28488 59.87 3.05488 58.23 1.38488C56.17-0.695119 56.18-4.04512 58.26-6.10512C60.28-8.10512 63.51-8.15512 65.58-6.24512L65.76-6.07512C66.17-5.65512 66.68-5.34512 67.27-5.16512C67.83-4.99512 68.44-4.96512 69.04-5.08512C69.61-5.19512 70.16-5.45512 70.59-5.80512C71.07-6.20512 71.44-6.69512 71.67-7.27512C71.9-7.80512 71.98-8.40512 71.93-8.98512C71.87-9.59512 71.66-10.1651 71.33-10.6551C71-11.1551 70.55-11.5551 70.02-11.8451C69.55-12.0851 69.05-12.2251 68.51-12.2551L68.28-12.2651L14.73-12.2651C11.8-12.2651 9.43-14.6351 9.43-17.5651C9.43-20.4151 11.69-22.7451 14.51-22.8551L14.73-22.8651L68.24-22.8651Z"/>
   <path class="hierarchical-1:secondary SFSymbolsPreview4D4D4D" d="M50.77-75.7951C53.01-76.4751 55.38-76.5951 57.71-76.1351C60.01-75.6751 62.15-74.6651 63.94-73.1851C65.76-71.7051 67.19-69.7851 68.08-67.6051C68.98-65.4351 69.32-63.0851 69.08-60.7551C68.84-58.4251 68.04-56.1951 66.74-54.2551C65.43-52.3151 63.67-50.7151 61.6-49.6251C59.65-48.5851 57.49-48.0151 55.32-47.9651L54.89-47.9651L14.73-47.9651C11.8-47.9651 9.43-50.3351 9.43-53.2651C9.43-56.1151 11.69-58.4451 14.51-58.5551L14.73-58.5651L54.93-58.5651C55.51-58.5551 56.1-58.7051 56.63-58.9851C57.16-59.2651 57.61-59.6751 57.94-60.1651C58.27-60.6551 58.48-61.2251 58.54-61.8251C58.6-62.4151 58.51-63.0151 58.28-63.5751C58.05-64.1251 57.7-64.6051 57.22-64.9951C56.77-65.3651 56.22-65.6251 55.65-65.7351C55.05-65.8551 54.44-65.8251 53.87-65.6551C53.38-65.5051 52.94-65.2551 52.55-64.9151L52.37-64.7451C50.31-62.6651 46.95-62.6451 44.87-64.7051C42.79-66.7651 42.78-70.1251 44.84-72.2051C46.49-73.8751 48.53-75.1051 50.77-75.7951Z"/>
   <path class="hierarchical-2:primary SFSymbolsPreview212121" d="M88.04-62.3151C90.62-63.0951 93.36-63.2251 96.04-62.7051C98.67-62.1751 101.14-61.0051 103.25-59.2851C105.34-57.5551 106.98-55.3651 108.01-52.8551C109.04-50.3551 109.45-47.6451 109.19-44.9651C108.92-42.2751 108-39.6951 106.5-37.4451C105-35.1951 102.98-33.3551 100.57-32.0551C98.31-30.8551 95.83-30.1951 93.3-30.1151L92.82-30.1151L14.73-30.1151C11.8-30.1151 9.43-32.4851 9.43-35.4151C9.43-38.2651 11.69-40.5951 14.51-40.7051L14.73-40.7151L92.82-40.7151C93.78-40.7151 94.73-40.9551 95.56-41.3951C96.42-41.8551 97.15-42.5151 97.68-43.3151C98.21-44.1251 98.54-45.0451 98.64-46.0051C98.73-46.9451 98.58-47.9151 98.21-48.8151C97.85-49.6951 97.27-50.4751 96.53-51.0851C95.77-51.7051 94.88-52.1251 93.98-52.3051C93.02-52.4951 92.03-52.4451 91.11-52.1651C90.28-51.9151 89.53-51.4951 88.9-50.9351L88.67-50.7151C86.6-48.6451 83.24-48.6451 81.17-50.7151C79.1-52.7851 79.1-56.1351 81.17-58.2051C83.09-60.1251 85.44-61.5251 88.04-62.3151Z"/>
  </g>
  <g id="Semibold-M" transform="matrix(1 0 0 1 1984.8 1126)">
   <path class="hierarchical-0:tertiary SFSymbolsPreview8E8E8E" d="M67.59-22.2038C69.84-22.2138 72.04-21.6738 74.02-20.6238C76-19.5738 77.68-18.0538 78.93-16.1938C80.18-14.3338 80.96-12.1938 81.17-9.98382C81.39-7.76382 81.06-5.51382 80.21-3.44382C79.36-1.37382 78.01 0.436178 76.28 1.86618C74.54 3.29618 72.48 4.26618 70.31 4.68618C68.12 5.12618 65.84 5.00618 63.69 4.35618C61.56 3.69618 59.62 2.52618 58.04 0.956178C56.23-0.863822 56.23-3.80382 58.04-5.62382C59.8-7.38382 62.62-7.43382 64.45-5.78382L64.62-5.62382C65.12-5.11382 65.74-4.74382 66.41-4.54382C67.09-4.33382 67.8-4.29382 68.51-4.43382C69.19-4.57382 69.83-4.87382 70.36-5.31382C70.92-5.77382 71.35-6.34382 71.61-6.98382C71.88-7.64382 71.99-8.35382 71.91-9.07382C71.85-9.75382 71.61-10.4238 71.21-11.0138C70.82-11.5938 70.28-12.0738 69.66-12.4038C69.11-12.6938 68.52-12.8638 67.89-12.8938L67.62-12.9038L14.08-12.9038C11.51-12.9038 9.43-14.9838 9.43-17.5538C9.43-20.0538 11.4-22.0838 13.87-22.1938L14.08-22.2038L67.59-22.2038Z"/>
   <path class="hierarchical-1:secondary SFSymbolsPreview4D4D4D" d="M50.31-75.1538C52.43-75.8138 54.69-75.9238 56.93-75.4938C59.12-75.0438 61.17-74.0838 62.9-72.6638C64.62-71.2438 65.97-69.4138 66.82-67.3538C67.67-65.2938 68-63.0638 67.79-60.8038C67.56-58.5938 66.79-56.4638 65.54-54.6038C64.29-52.7538 62.61-51.2338 60.64-50.1838C58.78-49.1938 56.72-48.6538 54.65-48.6038L54.24-48.6038L14.08-48.6038C11.51-48.6038 9.43-50.6838 9.43-53.2538C9.43-55.7538 11.4-57.7838 13.87-57.8938L14.08-57.9038L54.27-57.9038C54.97-57.8938 55.66-58.0638 56.28-58.4038C56.9-58.7238 57.42-59.2038 57.82-59.7938C58.22-60.3838 58.46-61.0638 58.53-61.7238C58.6-62.4338 58.49-63.1538 58.22-63.8138C57.95-64.4638 57.53-65.0338 56.98-65.4838C56.45-65.9238 55.8-66.2338 55.13-66.3638C54.41-66.5038 53.69-66.4738 53.03-66.2638C52.44-66.0838 51.9-65.7838 51.46-65.3838L51.27-65.2038C49.47-63.3738 46.53-63.3438 44.69-65.1438C42.86-66.9438 42.83-69.8838 44.63-71.7138C46.2-73.3238 48.16-74.5038 50.31-75.1538Z"/>
   <path class="hierarchical-2:primary SFSymbolsPreview212121" d="M87.57-61.6838C90.05-62.4338 92.67-62.5638 95.24-62.0638C97.78-61.5538 100.16-60.4238 102.2-58.7638C104.2-57.1038 105.76-54.9938 106.74-52.6238C107.75-50.2138 108.13-47.6038 107.88-45.0138C107.62-42.4238 106.74-39.9338 105.3-37.7938C103.86-35.6238 101.91-33.8538 99.61-32.6238C97.46-31.4738 95.06-30.8338 92.63-30.7538L92.17-30.7538L14.08-30.7538C11.51-30.7538 9.43-32.8338 9.43-35.4038C9.43-37.8938 11.4-39.9338 13.87-40.0438L14.08-40.0538L92.17-40.0538C93.23-40.0538 94.28-40.3138 95.22-40.8138C96.16-41.3238 96.96-42.0538 97.57-42.9638C98.16-43.8338 98.52-44.8538 98.62-45.9338C98.73-46.9938 98.57-48.0538 98.15-49.0538C97.75-50.0338 97.1-50.9038 96.29-51.5838C95.45-52.2638 94.47-52.7338 93.44-52.9338C92.38-53.1438 91.29-53.0938 90.26-52.7838C89.34-52.5038 88.5-52.0238 87.79-51.3838L87.56-51.1638C85.74-49.3438 82.8-49.3438 80.98-51.1638C79.17-52.9838 79.17-55.9238 80.98-57.7438C82.83-59.5838 85.08-60.9338 87.57-61.6838Z"/>
  </g>
  <g id="Medium-M" transform="matrix(1 0 0 1 1688.59 1126)">
   <path class="hierarchical-0:tertiary SFSymbolsPreview8E8E8E" d="M67.09-21.6969C69.26-21.7069 71.37-21.1869 73.29-20.1669C75.19-19.1569 76.81-17.6969 78.01-15.9069C79.22-14.1169 79.97-12.0469 80.17-9.92693C80.39-7.78693 80.07-5.61693 79.25-3.62693C78.43-1.63693 77.13 0.113068 75.46 1.49307C73.79 2.86307 71.8 3.80307 69.71 4.20307C67.6 4.62307 65.41 4.51307 63.33 3.88307C61.28 3.25307 59.41 2.12307 57.9 0.613068C56.28-1.01693 56.28-3.63693 57.9-5.25693C59.46-6.82693 61.97-6.87693 63.6-5.41693L63.76-5.25693C64.33-4.69693 65.02-4.28693 65.76-4.05693C66.52-3.82693 67.32-3.78693 68.1-3.93693C68.87-4.08693 69.58-4.42693 70.18-4.91693C70.8-5.43693 71.28-6.06693 71.57-6.78693C71.87-7.51693 71.99-8.30693 71.91-9.11693C71.84-9.87693 71.57-10.6269 71.13-11.2769C70.69-11.9369 70.09-12.4669 69.39-12.8369C68.77-13.1669 68.1-13.3569 67.39-13.3869L67.12-13.3969L13.58-13.3969C11.29-13.3969 9.43-15.2569 9.43-17.5469C9.43-19.7669 11.18-21.5869 13.37-21.6869L13.58-21.6969L67.09-21.6969Z"/>
   <path class="hierarchical-1:secondary SFSymbolsPreview4D4D4D" d="M49.95-74.6769C52-75.2969 54.18-75.4069 56.33-74.9969C58.45-74.5669 60.42-73.6369 62.08-72.2669C63.74-70.9069 65.04-69.1469 65.86-67.1569C66.68-65.1669 67-63.0269 66.79-60.8469C66.57-58.7169 65.83-56.6669 64.62-54.8769C63.42-53.0869 61.81-51.6269 59.91-50.6169C58.12-49.6769 56.15-49.1569 54.17-49.0969L53.74-49.0969L13.58-49.0969C11.29-49.0969 9.43-50.9569 9.43-53.2469C9.43-55.4669 11.18-57.2869 13.37-57.3869L13.58-57.3969L53.77-57.3969C54.54-57.3869 55.32-57.5769 56.01-57.9469C56.7-58.3169 57.29-58.8469 57.74-59.5069C58.18-60.1669 58.45-60.9169 58.53-61.6669C58.6-62.4669 58.49-63.2569 58.18-63.9969C57.88-64.7169 57.41-65.3669 56.8-65.8669C56.2-66.3569 55.48-66.6969 54.72-66.8469C53.93-67.0069 53.13-66.9669 52.38-66.7369C51.71-66.5269 51.1-66.1869 50.6-65.7269L50.41-65.5469C48.81-63.9169 46.18-63.8869 44.54-65.4969C42.91-67.0969 42.88-69.7269 44.49-71.3569C46-72.9069 47.88-74.0369 49.95-74.6769Z"/>
   <path class="hierarchical-2:primary SFSymbolsPreview212121" d="M87.22-61.1969C89.61-61.9169 92.16-62.0469 94.64-61.5669C97.11-61.0669 99.41-59.9769 101.38-58.3669C103.31-56.7669 104.83-54.7169 105.78-52.4269C106.75-50.0969 107.13-47.5669 106.88-45.0569C106.63-42.5469 105.78-40.1369 104.38-38.0669C102.98-35.9669 101.1-34.2469 98.88-33.0569C96.79-31.9369 94.47-31.3169 92.11-31.2469L91.67-31.2469L13.58-31.2469C11.29-31.2469 9.43-33.1069 9.43-35.3969C9.43-37.6169 11.18-39.4269 13.37-39.5369L13.58-39.5469L91.67-39.5469C92.81-39.5469 93.95-39.8269 94.96-40.3669C95.97-40.9169 96.83-41.6969 97.48-42.6769C98.12-43.6169 98.51-44.7169 98.62-45.8769C98.73-47.0169 98.56-48.1669 98.12-49.2369C97.68-50.2869 96.98-51.2369 96.1-51.9569C95.2-52.6969 94.14-53.1969 93.04-53.4169C91.9-53.6469 90.72-53.5869 89.62-53.2469C88.61-52.9469 87.7-52.4269 86.93-51.7269L86.7-51.5069C85.08-49.8869 82.46-49.8869 80.84-51.5069C79.22-53.1269 79.22-55.7569 80.84-57.3769C82.62-59.1669 84.81-60.4669 87.22-61.1969Z"/>
  </g>
  <g id="Regular-M" transform="matrix(1 0 0 1 1392.53 1126)">
   <path class="hierarchical-0:tertiary SFSymbolsPreview8E8E8E" d="M66.45-21.0378C68.5-21.0478 70.51-20.5478 72.33-19.5878C74.14-18.6278 75.68-17.2378 76.83-15.5378C77.97-13.8278 78.68-11.8678 78.87-9.84782C79.08-7.81782 78.78-5.75782 78-3.85782C77.22-1.97782 75.98-0.31782 74.4 1.00218C72.81 2.30218 70.92 3.19218 68.93 3.57218C66.93 3.98218 64.85 3.87218 62.87 3.27218C60.93 2.67218 59.15 1.60218 57.71 0.16218C56.34-1.20782 56.34-3.41782 57.71-4.78782C59.02-6.10782 61.13-6.15782 62.51-4.92782L62.66-4.78782C63.29-4.15782 64.07-3.67782 64.92-3.41782C65.79-3.15782 66.69-3.10782 67.58-3.28782C68.45-3.45782 69.26-3.84782 69.94-4.40782C70.65-4.98782 71.19-5.70782 71.52-6.52782C71.87-7.35782 72-8.25782 71.91-9.15782C71.82-10.0378 71.52-10.8878 71.02-11.6278C70.52-12.3778 69.84-12.9878 69.05-13.4078C68.34-13.7778 67.58-13.9878 66.77-14.0278L66.47-14.0378L12.93-14.0378C11-14.0378 9.43-15.5978 9.43-17.5378C9.43-19.4078 10.9-20.9278 12.74-21.0278L12.93-21.0378L66.45-21.0378Z"/>
   <path class="hierarchical-1:secondary SFSymbolsPreview4D4D4D" d="M49.49-74.0378C51.44-74.6378 53.51-74.7378 55.55-74.3478C57.56-73.9378 59.44-73.0578 61.01-71.7578C62.59-70.4578 63.83-68.7878 64.61-66.8978C65.38-65.0078 65.69-62.9678 65.49-60.9078C65.28-58.8778 64.58-56.9278 63.44-55.2378C62.29-53.5278 60.76-52.1378 58.95-51.1878C57.26-50.2878 55.38-49.7878 53.5-49.7378L53.09-49.7378L12.93-49.7378C11-49.7378 9.43-51.2978 9.43-53.2378C9.43-55.1078 10.9-56.6278 12.74-56.7278L12.93-56.7378L53.11-56.7378C54-56.7278 54.88-56.9478 55.67-57.3678C56.45-57.7778 57.12-58.3878 57.63-59.1378C58.13-59.8878 58.44-60.7378 58.53-61.5978C58.61-62.4978 58.48-63.3978 58.13-64.2378C57.8-65.0578 57.25-65.7878 56.56-66.3578C55.88-66.9178 55.06-67.3078 54.2-67.4778C53.3-67.6478 52.39-67.6078 51.54-67.3478C50.78-67.1178 50.09-66.7178 49.51-66.1978L49.3-65.9978C47.95-64.6178 45.73-64.5978 44.35-65.9478C42.97-67.2978 42.95-69.5178 44.3-70.8978C45.74-72.3578 47.53-73.4378 49.49-74.0378Z"/>
   <path class="hierarchical-2:primary SFSymbolsPreview212121" d="M86.76-60.5678C89.05-61.2578 91.49-61.3778 93.87-60.9178C96.22-60.4478 98.43-59.3978 100.32-57.8578C102.17-56.3178 103.62-54.3678 104.53-52.1678C105.46-49.9378 105.82-47.5178 105.58-45.1078C105.35-42.7078 104.53-40.3978 103.19-38.4178C101.85-36.4078 100.05-34.7578 97.92-33.6178C95.93-32.5578 93.72-31.9578 91.47-31.8878L91.02-31.8878L12.93-31.8878C11-31.8878 9.43-33.4478 9.43-35.3878C9.43-37.2578 10.9-38.7778 12.74-38.8778L12.93-38.8878L91.02-38.8878C92.27-38.8878 93.51-39.1978 94.61-39.7878C95.72-40.3878 96.66-41.2378 97.37-42.3078C98.07-43.3378 98.49-44.5378 98.62-45.7978C98.74-47.0478 98.55-48.3078 98.07-49.4778C97.59-50.6278 96.83-51.6578 95.87-52.4578C94.88-53.2578 93.73-53.8078 92.51-54.0478C91.27-54.2878 89.98-54.2278 88.78-53.8678C87.68-53.5378 86.68-52.9678 85.84-52.1978L85.6-51.9578C84.23-50.5978 82.01-50.5978 80.65-51.9578C79.28-53.3278 79.28-55.5478 80.65-56.9078C82.35-58.6178 84.45-59.8678 86.76-60.5678Z"/>
  </g>
  <g id="Light-M" transform="matrix(1 0 0 1 1096.62 1126)">
   <path class="hierarchical-0:tertiary SFSymbolsPreview8E8E8E" d="M65.65-20.2253C67.57-20.2353 69.46-19.7753 71.16-18.8653C72.85-17.9653 74.29-16.6653 75.36-15.0753C76.44-13.4853 77.1-11.6453 77.28-9.75526C77.47-7.85526 77.19-5.93526 76.46-4.15526C75.73-2.38526 74.57-0.835263 73.09 0.394737C71.6 1.61474 69.84 2.44474 67.97 2.80474C66.1 3.18474 64.16 3.08474 62.31 2.51474C60.49 1.95474 58.82 0.954737 57.47-0.395263C56.42-1.44526 56.42-3.15526 57.47-4.21526C58.48-5.22526 60.09-5.26526 61.15-4.33526L61.29-4.21526C62.02-3.48526 62.91-2.94526 63.89-2.64526C64.88-2.34526 65.92-2.28526 66.93-2.49526C67.93-2.68526 68.87-3.12526 69.65-3.77526C70.46-4.44526 71.08-5.27526 71.46-6.21526C71.86-7.16526 72.01-8.19526 71.9-9.22526C71.81-10.2353 71.46-11.2053 70.88-12.0653C70.31-12.9153 69.53-13.6153 68.62-14.0953C67.8-14.5353 66.91-14.7753 65.98-14.8153L65.67-14.8253L12.13-14.8253C10.64-14.8253 9.43-16.0353 9.43-17.5253C9.43-18.9553 10.55-20.1253 11.96-20.2153L12.13-20.2253L65.65-20.2253Z"/>
   <path class="hierarchical-1:secondary SFSymbolsPreview4D4D4D" d="M48.93-73.2653C50.75-73.8253 52.68-73.9153 54.59-73.5553C56.48-73.1753 58.23-72.3453 59.71-71.1253C61.18-69.9153 62.34-68.3453 63.07-66.5853C63.8-64.8153 64.08-62.9053 63.9-60.9753C63.7-59.0753 63.04-57.2553 61.97-55.6653C60.9-54.0753 59.46-52.7753 57.78-51.8753C56.19-51.0353 54.44-50.5753 52.67-50.5253L52.29-50.5253L12.13-50.5253C10.64-50.5253 9.43-51.7353 9.43-53.2253C9.43-54.6553 10.55-55.8353 11.96-55.9153L12.13-55.9253L52.31-55.9253C53.33-55.9153 54.34-56.1653 55.24-56.6453C56.14-57.1253 56.91-57.8253 57.49-58.6753C58.07-59.5353 58.42-60.5153 58.52-61.5053C58.62-62.5453 58.47-63.5653 58.07-64.5253C57.68-65.4753 57.06-66.3053 56.27-66.9653C55.49-67.6053 54.55-68.0553 53.55-68.2553C52.52-68.4553 51.48-68.3953 50.51-68.1053C49.62-67.8353 48.82-67.3653 48.15-66.7553L47.93-66.5453C46.88-65.4753 45.17-65.4653 44.11-66.5053C43.05-67.5553 43.03-69.2553 44.07-70.3253C45.42-71.6953 47.09-72.7053 48.93-73.2653Z"/>
   <path class="hierarchical-2:primary SFSymbolsPreview212121" d="M86.19-59.7853C88.36-60.4453 90.66-60.5553 92.91-60.1253C95.14-59.6753 97.22-58.6853 99-57.2353C100.76-55.7753 102.13-53.9253 102.99-51.8453C103.87-49.7353 104.21-47.4453 103.99-45.1753C103.76-42.9053 102.99-40.7253 101.73-38.8453C100.46-36.9453 98.76-35.3953 96.74-34.3153C94.86-33.3053 92.77-32.7453 90.65-32.6753L90.22-32.6753L12.13-32.6753C10.64-32.6753 9.43-33.8853 9.43-35.3753C9.43-36.8053 10.55-37.9753 11.96-38.0653L12.13-38.0753L90.22-38.0753C91.6-38.0753 92.97-38.4153 94.19-39.0753C95.42-39.7353 96.46-40.6753 97.24-41.8453C98.01-42.9953 98.48-44.3153 98.61-45.7053C98.75-47.0953 98.54-48.4853 98.01-49.7653C97.48-51.0453 96.64-52.1753 95.57-53.0653C94.49-53.9453 93.21-54.5553 91.87-54.8253C90.49-55.0853 89.08-55.0153 87.75-54.6153C86.42-54.2153 85.21-53.4953 84.23-52.5153C83.18-51.4553 81.47-51.4553 80.41-52.5153C79.36-53.5653 79.36-55.2753 80.41-56.3353C82.03-57.9453 84-59.1253 86.19-59.7853Z"/>
  </g>
  <g id="Thin-M" transform="matrix(1 0 0 1 800.957 1126)">
   <path class="hierarchical-0:tertiary SFSymbolsPreview8E8E8E" d="M64.618-19.1671C66.359-19.1771 68.079-18.7471 69.623-17.9271C71.16-17.1171 72.473-15.9271 73.445-14.4871C74.419-13.0371 75.017-11.3771 75.189-9.63712C75.363-7.90712 75.105-6.15712 74.44-4.54712C73.777-2.93712 72.728-1.52712 71.372-0.407119C70.02 0.702881 68.418 1.45288 66.723 1.78288C65.018 2.12288 63.249 2.03288 61.576 1.52288C59.912 1.01288 58.398 0.102881 57.169-1.12712C56.526-1.77712 56.527-2.81712 57.173-3.46712C57.818-4.10712 58.863-4.10712 59.506-3.45712C60.352-2.60712 61.395-1.98712 62.541-1.63712C63.693-1.27712 64.906-1.21712 66.083-1.45712C67.251-1.67712 68.352-2.19712 69.276-2.95712C70.212-3.72712 70.935-4.70712 71.39-5.80712C71.847-6.90712 72.025-8.11712 71.906-9.30712C71.787-10.5071 71.376-11.6471 70.706-12.6471C70.037-13.6371 69.133-14.4571 68.075-15.0171C67.11-15.5271 66.046-15.8171 64.957-15.8571L64.63-15.8671L11.08-15.8671C10.168-15.8671 9.43-16.6071 9.43-17.5171C9.43-18.3771 10.093-19.0871 10.937-19.1571L11.08-19.1671L64.618-19.1671Z"/>
   <path class="hierarchical-1:secondary SFSymbolsPreview4D4D4D" d="M48.189-72.2571C49.847-72.7571 51.61-72.8471 53.336-72.5071C55.055-72.1671 56.652-71.4171 57.984-70.3071C59.332-69.2071 60.386-67.7871 61.053-66.1771C61.719-64.5671 61.975-62.8171 61.802-61.0771C61.628-59.3471 61.029-57.6871 60.058-56.2471C59.087-54.7971 57.773-53.6171 56.235-52.7971C54.801-52.0371 53.216-51.6171 51.612-51.5671L51.242-51.5671L11.08-51.5671C10.168-51.5671 9.43-52.3071 9.43-53.2171C9.43-54.0771 10.093-54.7871 10.937-54.8571L11.08-54.8671L51.253-54.8671C52.445-54.8571 53.625-55.1471 54.687-55.7071C55.746-56.2771 56.65-57.0871 57.319-58.0871C57.988-59.0771 58.399-60.2171 58.519-61.4071C58.638-62.6071 58.461-63.8071 58.003-64.9171C57.544-66.0271 56.82-66.9971 55.888-67.7671C54.972-68.5171 53.875-69.0371 52.696-69.2771C51.508-69.5071 50.292-69.4471 49.154-69.0971C48.005-68.7471 46.966-68.1171 46.124-67.2671C45.483-66.6171 44.439-66.6071 43.79-67.2471C43.142-67.8871 43.135-68.9371 43.776-69.5871C45.003-70.8271 46.518-71.7371 48.189-72.2571Z"/>
   <path class="hierarchical-2:primary SFSymbolsPreview212121" d="M85.447-58.7771C87.455-59.3771 89.586-59.4871 91.66-59.0771C93.718-58.6671 95.648-57.7571 97.282-56.4171C98.909-55.0771 100.179-53.3671 100.985-51.4271C101.79-49.4771 102.104-47.3571 101.899-45.2771C101.695-43.1771 100.976-41.1671 99.81-39.4171C98.645-37.6671 97.066-36.2271 95.202-35.2271C93.464-34.3071 91.544-33.7871 89.592-33.7171L89.174-33.7171L11.08-33.7171C10.168-33.7171 9.43-34.4571 9.43-35.3671C9.43-36.2271 10.093-36.9371 10.937-37.0071L11.08-37.0171L89.174-37.0171C90.725-37.0171 92.264-37.4071 93.644-38.1371C95.025-38.8771 96.197-39.9471 97.064-41.2471C97.931-42.5471 98.463-44.0371 98.615-45.5971C98.767-47.1471 98.534-48.7171 97.936-50.1571C97.339-51.5971 96.394-52.8671 95.186-53.8671C93.974-54.8571 92.54-55.5371 91.02-55.8471C89.481-56.1471 87.894-56.0671 86.402-55.6171C84.901-55.1571 83.543-54.3471 82.442-53.2471C81.798-52.6071 80.754-52.6071 80.109-53.2471C79.464-53.8871 79.463-54.9371 80.107-55.5771C81.594-57.0671 83.427-58.1671 85.447-58.7771Z"/>
  </g>
  <g id="Ultralight-M" transform="matrix(1 0 0 1 504.796 1126)">
   <path class="hierarchical-0:tertiary SFSymbolsPreview8E8E8E" d="M64.073-18.6058C65.722-18.6158 67.352-18.2158 68.815-17.4358C70.273-16.6658 71.518-15.5358 72.439-14.1658C73.362-12.7958 73.929-11.2158 74.093-9.57582C74.257-7.93582 74.013-6.26582 73.382-4.74582C72.754-3.22582 71.76-1.88582 70.475-0.825815C69.193 0.224185 67.674 0.944185 66.065 1.25418C64.45 1.57418 62.774 1.49418 61.188 1.00418C59.61 0.524185 58.175-0.335815 57.009-1.50582C56.58-1.93582 56.582-2.63582 57.012-3.06582C57.442-3.49582 58.138-3.49582 58.567-3.06582C59.477-2.14582 60.599-1.47582 61.831-1.09582C63.07-0.715815 64.376-0.645815 65.639-0.905815C66.896-1.14582 68.08-1.70582 69.077-2.52582C70.082-3.35582 70.859-4.39582 71.349-5.58582C71.841-6.77582 72.032-8.07582 71.904-9.35582C71.776-10.6458 71.334-11.8658 70.613-12.9358C69.894-14.0158 68.922-14.8858 67.783-15.4958C66.737-16.0458 65.582-16.3558 64.403-16.3958L64.08-16.4058L10.53-16.4058C9.923-16.4058 9.43-16.8958 9.43-17.5058C9.43-18.0758 9.859-18.5358 10.411-18.5958L10.53-18.6058L64.073-18.6058Z"/>
   <path class="hierarchical-1:secondary SFSymbolsPreview4D4D4D" d="M47.801-71.7158C49.372-72.1958 51.044-72.2758 52.678-71.9658C54.309-71.6358 55.823-70.9158 57.087-69.8758C58.364-68.8358 59.363-67.4858 59.995-65.9558C60.626-64.4258 60.87-62.7758 60.706-61.1258C60.541-59.4858 59.973-57.9058 59.052-56.5358C58.131-55.1658 56.886-54.0458 55.427-53.2758C54.077-52.5558 52.584-52.1558 51.071-52.1058L50.692-52.1058L10.53-52.1058C9.923-52.1058 9.43-52.5958 9.43-53.2058C9.43-53.7758 9.859-54.2358 10.411-54.2958L10.53-54.3058L50.7-54.3058C51.984-54.2958 53.253-54.6058 54.395-55.2158C55.534-55.8158 56.507-56.6958 57.226-57.7658C57.945-58.8358 58.388-60.0658 58.517-61.3458C58.645-62.6358 58.455-63.9158 57.962-65.1158C57.469-66.3058 56.689-67.3558 55.689-68.1758C54.703-68.9958 53.523-69.5458 52.252-69.8058C50.976-70.0558 49.669-69.9858 48.444-69.6158C47.208-69.2358 46.089-68.5558 45.183-67.6458C44.756-67.2058 44.06-67.2058 43.627-67.6358C43.195-68.0558 43.191-68.7558 43.618-69.1858C44.781-70.3658 46.216-71.2358 47.801-71.7158Z"/>
   <path class="hierarchical-2:primary SFSymbolsPreview212121" d="M85.057-58.2358C86.979-58.8158 89.019-58.9158 91.002-58.5358C92.973-58.1358 94.82-57.2658 96.383-55.9858C97.941-54.6958 99.157-53.0558 99.927-51.2058C100.698-49.3358 100.999-47.3158 100.802-45.3158C100.607-43.3058 99.92-41.3858 98.802-39.7158C97.688-38.0358 96.176-36.6658 94.394-35.7058C92.73-34.8158 90.892-34.3258 89.025-34.2558L88.624-34.2558L10.53-34.2558C9.923-34.2558 9.43-34.7458 9.43-35.3558C9.43-35.9258 9.859-36.3858 10.411-36.4458L10.53-36.4558L88.624-36.4558C90.266-36.4558 91.894-36.8658 93.356-37.6458C94.816-38.4258 96.056-39.5558 96.972-40.9358C97.889-42.3058 98.452-43.8858 98.613-45.5358C98.774-47.1758 98.527-48.8258 97.895-50.3658C97.263-51.8858 96.264-53.2258 94.986-54.2858C93.704-55.3358 92.187-56.0558 90.576-56.3758C88.949-56.6958 87.272-56.6058 85.693-56.1358C84.106-55.6558 82.669-54.7958 81.504-53.6258C81.075-53.1958 80.378-53.1958 79.948-53.6258C79.518-54.0558 79.518-54.7558 79.947-55.1858C81.369-56.6058 83.123-57.6558 85.057-58.2358Z"/>
  </g>
  <g id="Black-S" transform="matrix(1 0 0 1 2882.11 696)">
   <path class="hierarchical-0:tertiary SFSymbolsPreview8E8E8E" d="M58.51-26.0914C60.58-26.0994 62.63-25.5954 64.46-24.6244C66.3-23.6504 67.87-22.2354 69.03-20.5064C70.17-18.7924 70.89-16.8224 71.11-14.7224C71.3-12.6644 71-10.5894 70.21-8.67936C69.42-6.76136 68.16-5.06836 66.56-3.75336C64.95-2.43536 63.05-1.53436 61.01-1.13036C58.98-0.727355 56.87-0.834355 54.87-1.44236C52.89-2.05036 51.08-3.14036 49.62-4.61536C47.45-6.81336 47.46-10.3584 49.66-12.5354C51.86-14.7114 55.4-14.6934 57.58-12.4964C57.74-12.3364 57.93-12.2174 58.14-12.1554C58.37-12.0844 58.61-12.0724 58.83-12.1174C59.06-12.1624 59.27-12.2614 59.45-12.4064C59.63-12.5554 59.77-12.7444 59.85-12.9524C59.94-13.1694 59.98-13.4104 59.96-13.6054C59.94-13.8444 59.85-14.0784 59.72-14.2804C59.59-14.4654 59.42-14.6194 59.22-14.7274C59.05-14.8134 58.87-14.8674 58.68-14.8844L58.53-14.8914L16.53-14.8914C13.44-14.8914 10.93-17.3984 10.93-20.4914C10.93-23.5104 13.32-25.9714 16.31-26.0864L16.53-26.0914L58.51-26.0914Z"/>
   <path class="hierarchical-1:secondary SFSymbolsPreview4D4D4D" d="M44.38-69.5434C46.37-70.1474 48.48-70.2544 50.51-69.8514C52.55-69.4474 54.45-68.5474 56.06-67.2304C57.66-65.9134 58.92-64.2204 59.71-62.3024C60.5-60.3924 60.8-58.3174 60.6-56.2114C60.39-54.1604 59.67-52.1894 58.53-50.4754C57.37-48.7464 55.8-47.3314 53.96-46.3604C52.25-45.4514 50.35-44.9514 48.44-44.8964L48.03-44.8914L16.53-44.8914C13.44-44.8914 10.93-47.3984 10.93-50.4914C10.93-53.5104 13.32-55.9714 16.31-56.0864L16.53-56.0914L48.05-56.0914C48.28-56.0904 48.51-56.1464 48.72-56.2564C48.92-56.3634 49.09-56.5164 49.22-56.7014C49.35-56.9044 49.44-57.1384 49.46-57.3284C49.48-57.5714 49.44-57.8124 49.35-58.0294C49.27-58.2374 49.13-58.4264 48.94-58.5784C48.77-58.7204 48.56-58.8194 48.33-58.8654C48.11-58.9094 47.87-58.8974 47.65-58.8304C47.43-58.7644 47.24-58.6454 47.08-58.4854C44.9-56.2884 41.36-56.2704 39.16-58.4474C36.96-60.6234 36.95-64.1684 39.12-66.3664C40.58-67.8414 42.39-68.9314 44.38-69.5434Z"/>
   <path class="hierarchical-2:primary SFSymbolsPreview212121" d="M73.18-59.4144C75.68-60.1664 78.32-60.2934 80.87-59.7854C83.42-59.2754 85.82-58.1434 87.83-56.4894C89.84-54.8374 91.41-52.7144 92.41-50.3074C93.41-47.9024 93.79-45.2894 93.54-42.6974C93.28-40.1184 92.4-37.6384 90.95-35.4394C89.5-33.2754 87.55-31.5004 85.25-30.2704C83.09-29.1134 80.7-28.4744 78.24-28.3984L77.78-28.3914L16.53-28.3914C12.61-28.3914 9.43-31.5694 9.43-35.4914C9.43-39.3324 12.48-42.4614 16.29-42.5874L16.53-42.5914L77.77-42.5914C78.04-42.5914 78.3-42.6584 78.55-42.7894C78.79-42.9184 79-43.1044 79.13-43.2984C79.28-43.5354 79.38-43.8054 79.4-44.0804C79.43-44.3594 79.39-44.6324 79.29-44.8754C79.19-45.1234 79.02-45.3454 78.81-45.5184C78.61-45.6884 78.36-45.8064 78.09-45.8594C77.82-45.9124 77.54-45.8994 77.3-45.8244C77.03-45.7444 76.8-45.6024 76.62-45.4284C73.86-42.6484 69.36-42.6374 66.58-45.4034C63.8-48.1694 63.79-52.6644 66.56-55.4444C68.39-57.2884 70.67-58.6514 73.18-59.4144Z"/>
  </g>
  <g id="Heavy-S" transform="matrix(1 0 0 1 2586.25 696)">
   <path class="hierarchical-0:tertiary SFSymbolsPreview8E8E8E" d="M57.66-27.2412C59.75-27.2502 61.83-26.7392 63.68-25.7572C65.54-24.7712 67.13-23.3402 68.3-21.5902C69.46-19.8562 70.18-17.8622 70.4-15.7362C70.6-13.6542 70.29-11.5552 69.5-9.62224C68.69-7.68124 67.42-5.96824 65.8-4.63824C64.18-3.30324 62.25-2.39224 60.19-1.98424C58.13-1.57624 56-1.68424 53.98-2.29924C51.97-2.91424 50.14-4.01724 48.66-5.51024C46.43-7.76724 46.45-11.4072 48.7-13.6422C50.96-15.8762 54.6-15.8582 56.84-13.6022C56.98-13.4592 57.15-13.3542 57.33-13.2992C57.54-13.2352 57.75-13.2252 57.95-13.2642C58.16-13.3042 58.34-13.3932 58.5-13.5222C58.66-13.6562 58.79-13.8252 58.87-14.0102C58.95-14.2042 58.98-14.4202 58.96-14.5902C58.94-14.8042 58.86-15.0152 58.74-15.1972C58.63-15.3612 58.48-15.4982 58.3-15.5952C58.15-15.6722 57.99-15.7202 57.81-15.7352L57.68-15.7412L15.68-15.7412C12.5-15.7412 9.93-18.3152 9.93-21.4912C9.93-24.5932 12.39-27.1212 15.46-27.2372L15.68-27.2412L57.66-27.2412Z"/>
   <path class="hierarchical-1:secondary SFSymbolsPreview4D4D4D" d="M43.49-68.6872C45.5-69.2982 47.63-69.4062 49.69-68.9982C51.75-68.5902 53.68-67.6792 55.3-66.3472C56.92-65.0142 58.19-63.3012 59-61.3602C59.79-59.4272 60.1-57.3282 59.9-55.1962C59.68-53.1202 58.96-51.1262 57.8-49.3922C56.63-47.6422 55.04-46.2112 53.18-45.2272C51.45-44.3092 49.53-43.8022 47.6-43.7462L47.18-43.7412L15.68-43.7412C12.5-43.7412 9.93-46.3152 9.93-49.4912C9.93-52.5932 12.39-55.1212 15.46-55.2372L15.68-55.2412L47.21-55.2412C47.41-55.2402 47.62-55.2912 47.8-55.3892C47.98-55.4842 48.13-55.6212 48.24-55.7852C48.36-55.9672 48.44-56.1782 48.46-56.3432C48.48-56.5622 48.45-56.7782 48.37-56.9722C48.29-57.1572 48.16-57.3262 48-57.4622C47.84-57.5892 47.66-57.6782 47.45-57.7182C47.25-57.7582 47.04-57.7472 46.84-57.6872C46.65-57.6282 46.48-57.5232 46.34-57.3802C44.1-55.1242 40.46-55.1062 38.2-57.3402C35.95-59.5752 35.93-63.2152 38.16-65.4722C39.64-66.9652 41.47-68.0682 43.49-68.6872Z"/>
   <path class="hierarchical-2:primary SFSymbolsPreview212121" d="M72.58-58.6012C74.94-59.3132 77.44-59.4332 79.85-58.9522C82.27-58.4702 84.53-57.3982 86.44-55.8332C88.34-54.2692 89.83-52.2602 90.78-49.9822C91.72-47.7062 92.08-45.2342 91.84-42.7812C91.6-40.3392 90.77-37.9922 89.4-35.9122C88.02-33.8632 86.17-32.1842 84-31.0202C81.96-29.9292 79.71-29.3252 77.39-29.2492L76.93-29.2412L15.68-29.2412C12.23-29.2412 9.43-32.0392 9.43-35.4912C9.43-38.8662 12.11-41.6162 15.45-41.7372L15.68-41.7412L76.92-41.7412C77.33-41.7422 77.73-41.8432 78.1-42.0402C78.46-42.2352 78.77-42.5162 78.98-42.8302C79.22-43.1832 79.36-43.5852 79.4-43.9982C79.44-44.4152 79.38-44.8282 79.23-45.2012C79.07-45.5782 78.82-45.9142 78.5-46.1752C78.19-46.4342 77.81-46.6132 77.41-46.6932C77-46.7732 76.58-46.7532 76.2-46.6382C75.8-46.5172 75.44-46.3022 75.17-46.0282C72.74-43.5812 68.78-43.5712 66.33-46.0062C63.89-48.4412 63.88-52.3982 66.31-54.8452C68.05-56.5892 70.2-57.8782 72.58-58.6012Z"/>
  </g>
  <g id="Bold-S" transform="matrix(1 0 0 1 2290.48 696)">
   <path class="hierarchical-0:tertiary SFSymbolsPreview8E8E8E" d="M56.71-26.5801C58.74-26.5881 60.73-26.0971 62.52-25.1481C64.32-24.1971 65.85-22.8161 66.95-21.1601C68.09-19.4831 68.79-17.5481 69.01-15.4821C69.2-13.4731 68.9-11.4471 68.13-9.58306C67.36-7.71006 66.13-6.05806 64.57-4.77406C63-3.48706 61.14-2.60806 59.15-2.21406C57.16-1.82006 55.1-1.92506 53.17-2.51806C51.23-3.11206 49.46-4.17606 48.03-5.61506C45.97-7.69506 45.99-11.0511 48.07-13.1111C50.15-15.1701 53.51-15.1541 55.57-13.0741C55.75-12.8851 56-12.7371 56.27-12.6531C56.54-12.5721 56.82-12.5581 57.09-12.6111C57.37-12.6661 57.62-12.7871 57.84-12.9631C58.06-13.1441 58.23-13.3731 58.33-13.6271C58.44-13.8891 58.48-14.1791 58.46-14.4251C58.43-14.7241 58.33-14.9891 58.16-15.2361C58.01-15.4621 57.81-15.6501 57.56-15.7811C57.36-15.8881 57.14-15.9521 56.91-15.9721L56.73-15.9801L14.73-15.9801C11.8-15.9801 9.43-18.3531 9.43-21.2801C9.43-24.1341 11.69-26.4611 14.51-26.5751L14.73-26.5801L56.71-26.5801Z"/>
   <path class="hierarchical-1:secondary SFSymbolsPreview4D4D4D" d="M42.67-68.0411C44.6-68.6351 46.66-68.7401 48.65-68.3461C50.64-67.9521 52.5-67.0731 54.06-65.7881C55.63-64.5021 56.86-62.8491 57.63-60.9771C58.4-59.1121 58.7-57.0871 58.5-55.0311C58.29-53.0111 57.59-51.0771 56.48-49.4311C55.35-47.7431 53.82-46.3621 52.02-45.4141C50.35-44.5261 48.5-44.0391 46.63-43.9851L46.23-43.9801L14.73-43.9801C11.8-43.9801 9.43-46.3531 9.43-49.2801C9.43-52.1341 11.69-54.4611 14.51-54.5751L14.73-54.5801L46.25-54.5801C46.54-54.5791 46.81-54.6451 47.06-54.7801C47.31-54.9101 47.51-55.0971 47.69-55.3551C47.83-55.5711 47.93-55.8351 47.95-56.0881C47.98-56.3801 47.94-56.6701 47.83-56.9331C47.73-57.1861 47.56-57.4161 47.33-57.5991C47.12-57.7721 46.87-57.8931 46.59-57.9481C46.32-58.0021 46.04-57.9871 45.77-57.9061C45.5-57.8231 45.25-57.6741 45.07-57.4861C43.01-55.4061 39.65-55.3891 37.57-57.4491C35.49-59.5081 35.47-62.8641 37.53-64.9441C38.96-66.3831 40.73-67.4481 42.67-68.0411Z"/>
   <path class="hierarchical-2:primary SFSymbolsPreview212121" d="M71.9-57.4751C74.1-58.1471 76.45-58.2601 78.72-57.8091C80.98-57.3571 83.1-56.3541 84.88-54.8881C86.67-53.4231 88.06-51.5411 88.95-49.4081C89.83-47.2731 90.18-44.9571 89.95-42.6621C89.73-40.3611 88.94-38.1531 87.66-36.2291C86.37-34.3101 84.64-32.7361 82.62-31.6551C80.71-30.6281 78.59-30.0591 76.42-29.9871L75.98-29.9801L14.73-29.9801C11.8-29.9801 9.43-32.3531 9.43-35.2801C9.43-38.1341 11.69-40.4611 14.51-40.5751L14.73-40.5801L75.97-40.5801C76.54-40.5811 77.1-40.7221 77.6-40.9911C78.1-41.2601 78.53-41.6471 78.84-42.1211C79.16-42.5901 79.35-43.1301 79.41-43.6941C79.46-44.2501 79.37-44.8201 79.15-45.3531C78.94-45.8751 78.59-46.3371 78.16-46.6981C77.72-47.0561 77.2-47.3031 76.64-47.4131C76.09-47.5241 75.51-47.4961 74.97-47.3301C74.43-47.1671 73.93-46.8731 73.53-46.4681C71.45-44.4031 68.1-44.4121 66.03-46.4861C63.97-48.5611 63.98-51.9171 66.05-53.9821C67.69-55.6121 69.7-56.8131 71.9-57.4751Z"/>
  </g>
  <g id="Semibold-S" transform="matrix(1 0 0 1 1994.43 696)">
   <path class="hierarchical-0:tertiary SFSymbolsPreview8E8E8E" d="M56.06-25.9222C57.98-25.9302 59.87-25.4642 61.57-24.5662C63.27-23.6662 64.72-22.3582 65.79-20.7602C66.85-19.1622 67.52-17.3242 67.7-15.4532C67.9-13.5382 67.61-11.6042 66.88-9.82318C66.15-8.05018 64.98-6.48518 63.5-5.26918C62.02-4.05018 60.26-3.21718 58.37-2.84418C56.49-2.47118 54.55-2.57018 52.7-3.13218C50.86-3.69418 49.2-4.70218 47.85-6.06518C46.04-7.89018 46.05-10.8342 47.88-12.6412C49.7-14.4482 52.65-14.4342 54.45-12.6092C54.72-12.3372 55.06-12.1372 55.41-12.0282C55.79-11.9122 56.19-11.8922 56.57-11.9662C56.95-12.0422 57.3-12.2102 57.6-12.4542C57.9-12.7022 58.14-13.0192 58.28-13.3712C58.43-13.7282 58.49-14.1102 58.44-14.5252C58.41-14.8952 58.27-15.2632 58.06-15.5902C57.84-15.9062 57.56-16.1662 57.21-16.3482C56.93-16.4992 56.61-16.5902 56.28-16.6152L56.08-16.6222L14.08-16.6222C11.51-16.6222 9.43-18.7042 9.43-21.2722C9.43-23.7692 11.4-25.8062 13.87-25.9172L14.08-25.9222L56.06-25.9222Z"/>
   <path class="hierarchical-1:secondary SFSymbolsPreview4D4D4D" d="M42.21-67.4162C44.05-67.9752 45.99-68.0742 47.87-67.7012C49.76-67.3272 51.52-66.4952 53-65.2782C54.48-64.0602 55.65-62.4952 56.38-60.7222C57.11-58.9412 57.4-57.0072 57.2-55.1322C57.02-53.2212 56.35-51.3832 55.29-49.7852C54.22-48.1872 52.77-46.8792 51.07-45.9812C49.49-45.1412 47.73-44.6782 45.96-44.6272L45.58-44.6222L14.08-44.6222C11.51-44.6222 9.43-46.7042 9.43-49.2722C9.43-51.7692 11.4-53.8062 13.87-53.9182L14.08-53.9222L45.6-53.9222C45.99-53.9212 46.37-54.0152 46.71-54.1982C47.06-54.3782 47.34-54.6392 47.56-54.9542C47.77-55.2812 47.91-55.6492 47.95-56.0592C47.99-56.4352 47.93-56.8172 47.78-57.1732C47.64-57.5262 47.4-57.8432 47.1-58.0932C46.8-58.3352 46.45-58.5032 46.07-58.5782C45.69-58.6532 45.29-58.6332 44.92-58.5202C44.62-58.4272 44.34-58.2722 44.09-58.0652L43.95-57.9362C42.15-56.1112 39.2-56.0962 37.38-57.9032C35.55-59.7102 35.54-62.6552 37.35-64.4792C38.7-65.8432 40.36-66.8502 42.21-67.4162Z"/>
   <path class="hierarchical-2:primary SFSymbolsPreview212121" d="M71.44-56.8492C73.55-57.4862 75.78-57.5942 77.94-57.1642C80.09-56.7352 82.1-55.7832 83.82-54.3782C85.52-52.9812 86.85-51.1862 87.7-49.1522C88.54-47.1192 88.86-44.9102 88.65-42.7182C88.43-40.5242 87.68-38.4182 86.47-36.6062C85.25-34.7652 83.6-33.2562 81.65-32.2122C79.83-31.2412 77.83-30.7022 75.77-30.6312L75.33-30.6222L14.08-30.6222C11.51-30.6222 9.43-32.7042 9.43-35.2722C9.43-37.7692 11.4-39.8062 13.87-39.9182L14.08-39.9222L75.32-39.9222C76-39.9242 76.66-40.0902 77.26-40.4112C77.85-40.7282 78.35-41.1832 78.72-41.7522C79.1-42.3112 79.33-42.9532 79.39-43.6232C79.46-44.3012 79.36-44.9782 79.1-45.5942C78.85-46.2152 78.44-46.7642 77.93-47.1802C77.39-47.6202 76.78-47.9132 76.12-48.0432C75.46-48.1752 74.77-48.1422 74.13-47.9482C73.57-47.7762 73.04-47.4862 72.62-47.1062L72.44-46.9382C70.63-45.1172 67.68-45.1102 65.86-46.9212C64.04-48.7332 64.03-51.6772 65.84-53.4972C67.39-55.0552 69.32-56.2072 71.44-56.8492Z"/>
  </g>
  <g id="Medium-S" transform="matrix(1 0 0 1 1698.21 696)">
   <path class="hierarchical-0:tertiary SFSymbolsPreview8E8E8E" d="M55.56-25.4157C57.4-25.4237 59.21-24.9767 60.83-24.1177C62.46-23.2557 63.85-22.0047 64.87-20.4757C65.89-18.9457 66.53-17.1867 66.7-15.3947C66.89-13.5617 66.62-11.7117 65.92-10.0077C65.22-8.31072 64.1-6.81272 62.69-5.64872C61.27-4.48272 59.58-3.68572 57.78-3.32772C55.98-2.97172 54.12-3.06572 52.34-3.60372C50.59-4.14172 48.99-5.10572 47.7-6.41072C46.09-8.03972 46.1-10.6667 47.73-12.2797C49.3-13.8387 51.81-13.8787 53.43-12.4087L53.6-12.2507C53.93-11.9207 54.33-11.6767 54.77-11.5427C55.23-11.4027 55.71-11.3787 56.16-11.4697C56.63-11.5617 57.06-11.7647 57.42-12.0607C57.78-12.3617 58.07-12.7447 58.24-13.1747C58.42-13.6067 58.49-14.0727 58.44-14.5667C58.4-15.0197 58.24-15.4667 57.97-15.8617C57.71-16.2467 57.36-16.5637 56.95-16.7837C56.59-16.9717 56.2-17.0827 55.79-17.1097L55.58-17.1157L13.58-17.1157C11.29-17.1157 9.43-18.9737 9.43-21.2657C9.43-23.4887 11.18-25.3027 13.37-25.4107L13.58-25.4157L55.56-25.4157Z"/>
   <path class="hierarchical-1:secondary SFSymbolsPreview4D4D4D" d="M41.85-66.9317C43.62-67.4657 45.48-67.5607 47.28-67.2037C49.08-66.8467 50.77-66.0497 52.18-64.8847C53.6-63.7197 54.72-62.2207 55.42-60.5247C56.12-58.8207 56.39-56.9697 56.2-55.1727C56.03-53.3447 55.39-51.5867 54.37-50.0567C53.35-48.5277 51.96-47.2757 50.34-46.4157C48.83-45.6167 47.16-45.1747 45.47-45.1217L45.08-45.1157L13.58-45.1157C11.29-45.1157 9.43-46.9737 9.43-49.2657C9.43-51.4887 11.18-53.3027 13.37-53.4107L13.58-53.4157L45.1-53.4157C45.57-53.4137 46.03-53.5287 46.45-53.7497C46.86-53.9687 47.21-54.2857 47.47-54.6697C47.74-55.0657 47.9-55.5127 47.94-56.0007C47.99-56.4597 47.92-56.9247 47.74-57.3577C47.57-57.7867 47.28-58.1707 46.91-58.4727C46.56-58.7677 46.13-58.9707 45.66-59.0627C45.21-59.1537 44.73-59.1287 44.28-58.9927C43.83-58.8557 43.43-58.6117 43.1-58.2807C41.49-56.6527 38.86-56.6397 37.23-58.2527C35.6-59.8647 35.59-62.4927 37.2-64.1217C38.49-65.4257 40.09-66.3907 41.85-66.9317Z"/>
   <path class="hierarchical-2:primary SFSymbolsPreview212121" d="M71.08-56.3637C73.11-56.9777 75.26-57.0817 77.34-56.6667C79.41-56.2547 81.34-55.3377 83.01-53.9857C84.64-52.6407 85.92-50.9127 86.74-48.9537C87.54-46.9977 87.86-44.8717 87.65-42.7597C87.44-40.6477 86.72-38.6207 85.55-36.8747C84.38-35.1037 82.79-33.6517 80.91-32.6467C79.16-31.7117 77.24-31.1927 75.26-31.1237L74.83-31.1157L13.58-31.1157C11.29-31.1157 9.43-32.9737 9.43-35.2657C9.43-37.4887 11.18-39.3027 13.37-39.4107L13.58-39.4157L74.82-39.4157C75.58-39.4177 76.32-39.6047 76.99-39.9637C77.66-40.3207 78.22-40.8317 78.64-41.4677C79.06-42.0957 79.32-42.8157 79.39-43.5687C79.46-44.3277 79.35-45.0867 79.07-45.7797C78.78-46.4757 78.32-47.0927 77.75-47.5607C77.15-48.0527 76.46-48.3807 75.72-48.5267C74.98-48.6757 74.21-48.6377 73.49-48.4197C72.84-48.2247 72.25-47.8907 71.76-47.4527L71.58-47.2837C69.97-45.6597 67.34-45.6527 65.71-47.2697C64.09-48.8857 64.08-51.5137 65.7-53.1387C67.19-54.6367 69.05-55.7457 71.08-56.3637Z"/>
  </g>
  <g id="Regular-S" transform="matrix(1 0 0 1 1402.15 696)">
   <path class="hierarchical-0:tertiary SFSymbolsPreview8E8E8E" d="M54.91-24.7551C56.64-24.7621 58.35-24.3421 59.88-23.5321C61.41-22.7211 62.72-21.5431 63.68-20.1041C64.64-18.6621 65.24-17.0061 65.4-15.3161C65.58-13.5911 65.33-11.8491 64.67-10.2441C64.01-8.64715 62.96-7.23615 61.62-6.14015C60.29-5.04215 58.7-4.29115 57-3.95515C55.31-3.61915 53.55-3.70815 51.88-4.21415C50.23-4.72115 48.73-5.62915 47.51-6.85715C46.15-8.23115 46.16-10.4471 47.54-11.8071C48.86-13.1181 50.97-13.1551 52.34-11.9251L52.49-11.7831C52.89-11.3761 53.39-11.0751 53.93-10.9101C54.49-10.7391 55.08-10.7091 55.64-10.8211C56.21-10.9331 56.74-11.1831 57.18-11.5481C57.63-11.9161 57.98-12.3871 58.19-12.9151C58.41-13.4481 58.5-14.0221 58.44-14.6181C58.38-15.1781 58.18-15.7281 57.86-16.2121C57.54-16.6861 57.11-17.0761 56.6-17.3471C56.16-17.5781 55.68-17.7151 55.18-17.7471L54.93-17.7551L12.93-17.7551C11-17.7551 9.43-19.3221 9.43-21.2551C9.43-23.1231 10.89-24.6501 12.74-24.7501L12.93-24.7551L54.91-24.7551Z"/>
   <path class="hierarchical-1:secondary SFSymbolsPreview4D4D4D" d="M41.39-66.2981C43.05-66.8021 44.81-66.8911 46.5-66.5551C48.2-66.2191 49.79-65.4681 51.12-64.3721C52.46-63.2741 53.51-61.8631 54.17-60.2661C54.83-58.6611 55.08-56.9191 54.9-55.2241C54.74-53.5041 54.14-51.8481 53.18-50.4061C52.22-48.9671 50.91-47.7891 49.38-46.9791C47.96-46.2261 46.39-45.8101 44.8-45.7601L44.43-45.7551L12.93-45.7551C11-45.7551 9.43-47.3221 9.43-49.2551C9.43-51.1241 10.89-52.6501 12.74-52.7501L12.93-52.7551L44.45-52.7551C45.02-52.7531 45.59-52.8931 46.1-53.1641C46.61-53.4341 47.04-53.8241 47.36-54.2981C47.68-54.7821 47.88-55.3321 47.94-55.9221C48-56.4881 47.91-57.0621 47.69-57.5951C47.48-58.1231 47.13-58.5941 46.68-58.9641C46.24-59.3271 45.71-59.5771 45.14-59.6891C44.58-59.8011 43.99-59.7711 43.44-59.6031C42.97-59.4591 42.53-59.2171 42.17-58.8951L41.99-58.7271C40.63-57.3541 38.41-57.3431 37.04-58.7031C35.66-60.0631 35.65-62.2791 37.01-63.6531C38.23-64.8811 39.73-65.7891 41.39-66.2981Z"/>
   <path class="hierarchical-2:primary SFSymbolsPreview212121" d="M70.62-55.7301C72.55-56.3131 74.59-56.4121 76.56-56.0191C78.53-55.6271 80.36-54.7571 81.94-53.4721C83.5-52.1951 84.71-50.5541 85.48-48.6941C86.25-46.8371 86.55-44.8181 86.35-42.8121C86.16-40.8071 85.47-38.8821 84.36-37.2221C83.25-35.5421 81.73-34.1631 79.95-33.2091C78.29-32.3211 76.46-31.8281 74.58-31.7631L74.18-31.7551L12.93-31.7551C11-31.7551 9.43-33.3221 9.43-35.2551C9.43-37.1241 10.89-38.6501 12.74-38.7501L12.93-38.7551L74.17-38.7551C75.04-38.7571 75.88-38.9701 76.65-39.3801C77.41-39.7871 78.05-40.3721 78.53-41.0961C79.01-41.8121 79.3-42.6351 79.39-43.4941C79.47-44.3591 79.34-45.2251 79.02-46.0171C78.69-46.8121 78.17-47.5161 77.51-48.0541C76.82-48.6121 76.04-48.9861 75.2-49.1541C74.35-49.3231 73.47-49.2801 72.65-49.0311C71.91-48.8081 71.23-48.4271 70.68-47.9251L70.47-47.7311C69.11-46.3611 66.89-46.3561 65.52-47.7191C64.15-49.0831 64.15-51.2991 65.51-52.6691C66.92-54.0911 68.69-55.1441 70.62-55.7301Z"/>
  </g>
  <g id="Light-S" transform="matrix(1 0 0 1 1106.24 696)">
   <path class="hierarchical-0:tertiary SFSymbolsPreview8E8E8E" d="M54.12-23.9476C55.72-23.9546 57.29-23.5656 58.7-22.8176C60.12-22.0686 61.33-20.9806 62.22-19.6516C63.11-18.3196 63.66-16.7896 63.81-15.2256C63.97-13.6326 63.74-12.0246 63.13-10.5426C62.52-9.06764 61.55-7.76364 60.32-6.75064C59.08-5.73664 57.61-5.04264 56.05-4.73264C54.48-4.42164 52.86-4.50464 51.32-4.97164C49.79-5.43964 48.41-6.27864 47.28-7.41264C46.23-8.47264 46.24-10.1816 47.3-11.2316C48.32-12.2366 49.93-12.2706 50.98-11.3396L51.12-11.2126C51.61-10.7116 52.23-10.3416 52.9-10.1376C53.58-9.92864 54.3-9.89164 55-10.0286C55.69-10.1666 56.34-10.4736 56.89-10.9216C57.44-11.3736 57.87-11.9526 58.14-12.6026C58.41-13.2576 58.51-13.9656 58.43-14.6866C58.37-15.3796 58.12-16.0566 57.73-16.6496C57.34-17.2346 56.8-17.7146 56.18-18.0466C55.63-18.3366 55.02-18.5046 54.4-18.5406L54.13-18.5476L12.13-18.5476C10.64-18.5476 9.43-19.7566 9.43-21.2476C9.43-22.6816 10.55-23.8546 11.96-23.9426L12.13-23.9476L54.12-23.9476Z"/>
   <path class="hierarchical-1:secondary SFSymbolsPreview4D4D4D" d="M40.83-65.5256C42.36-65.9916 43.98-66.0736 45.55-65.7636C47.11-65.4526 48.58-64.7596 49.81-63.7466C51.05-62.7316 52.02-61.4286 52.63-59.9526C53.24-58.4706 53.47-56.8626 53.31-55.2936C53.16-53.7056 52.61-52.1756 51.72-50.8436C50.83-49.5156 49.62-48.4266 48.21-47.6786C46.9-46.9876 45.46-46.6026 44-46.5536L43.63-46.5476L12.13-46.5476C10.64-46.5476 9.43-47.7566 9.43-49.2476C9.43-50.6816 10.55-51.8546 11.96-51.9426L12.13-51.9476L43.64-51.9476C44.35-51.9446 45.05-52.1176 45.68-52.4506C46.3-52.7816 46.84-53.2616 47.23-53.8456C47.62-54.4396 47.87-55.1156 47.94-55.8316C48.01-56.5306 47.91-57.2376 47.64-57.8926C47.37-58.5436 46.94-59.1216 46.39-59.5746C45.84-60.0216 45.19-60.3286 44.5-60.4666C43.8-60.6036 43.08-60.5666 42.4-60.3606C41.81-60.1796 41.27-59.8736 40.81-59.4646L40.62-59.2826C39.57-58.2236 37.86-58.2156 36.8-59.2646C35.74-60.3136 35.73-62.0226 36.78-63.0826C37.91-64.2176 39.29-65.0556 40.83-65.5256Z"/>
   <path class="hierarchical-2:primary SFSymbolsPreview212121" d="M70.05-54.9576C71.85-55.5026 73.76-55.5946 75.61-55.2266C77.45-54.8606 79.16-54.0466 80.63-52.8466C82.09-51.6526 83.23-50.1186 83.95-48.3816C84.66-46.6456 84.94-44.7576 84.76-42.8826C84.57-41.0086 83.93-39.2096 82.89-37.6556C81.86-36.0866 80.44-34.7986 78.78-33.9066C77.23-33.0806 75.53-32.6206 73.78-32.5556L73.38-32.5476L12.13-32.5476C10.64-32.5476 9.43-33.7566 9.43-35.2476C9.43-36.6816 10.55-37.8546 11.96-37.9426L12.13-37.9476L73.38-37.9476C74.37-37.9496 75.35-38.1956 76.23-38.6676C77.1-39.1366 77.85-39.8126 78.4-40.6446C78.95-41.4696 79.29-42.4186 79.38-43.4086C79.48-44.4046 79.33-45.4016 78.96-46.3156C78.58-47.2326 77.98-48.0436 77.22-48.6676C76.43-49.3076 75.52-49.7376 74.55-49.9306C73.58-50.1256 72.57-50.0766 71.62-49.7896C70.76-49.5286 69.97-49.0816 69.32-48.4906L69.1-48.2886C68.05-47.2316 66.34-47.2276 65.29-48.2786C64.23-49.3306 64.23-51.0406 65.28-52.0976C66.6-53.4246 68.24-54.4096 70.05-54.9576Z"/>
  </g>
  <g id="Thin-S" transform="matrix(1 0 0 1 810.58 696)">
   <path class="hierarchical-0:tertiary SFSymbolsPreview8E8E8E" d="M53.073-22.8836C54.498-22.8896 55.903-22.5436 57.161-21.8756C58.42-21.2086 59.494-20.2406 60.289-19.0566C61.084-17.8746 61.574-16.5126 61.717-15.0936C61.857-13.6746 61.647-12.2446 61.103-10.9296C60.559-9.61255 59.697-8.45055 58.595-7.54655C57.494-6.64255 56.186-6.02555 54.787-5.74855C53.39-5.47155 51.944-5.54555 50.581-5.96155C49.218-6.37855 47.979-7.12455 46.974-8.13555C46.332-8.78155 46.335-9.82655 46.981-10.4696C47.628-11.1116 48.672-11.1086 49.315-10.4616C49.936-9.83755 50.702-9.37555 51.546-9.11755C52.389-8.85955 53.283-8.81455 54.146-8.98555C55.012-9.15655 55.821-9.53855 56.502-10.0976C57.184-10.6566 57.717-11.3756 58.053-12.1896C58.39-13.0036 58.52-13.8886 58.433-14.7666C58.345-15.6426 58.041-16.4856 57.55-17.2166C57.058-17.9486 56.394-18.5476 55.615-18.9606C54.923-19.3276 54.16-19.5376 53.375-19.5776L53.08-19.5836L11.08-19.5836C10.168-19.5836 9.43-20.3226 9.43-21.2336C9.43-22.0976 10.093-22.8056 10.937-22.8776L11.08-22.8836L53.073-22.8836Z"/>
   <path class="hierarchical-1:secondary SFSymbolsPreview4D4D4D" d="M40.081-64.5056C41.444-64.9226 42.89-64.9966 44.287-64.7196C45.686-64.4426 46.994-63.8256 48.095-62.9216C49.197-62.0176 50.059-60.8556 50.602-59.5396C51.147-58.2236 51.357-56.7926 51.216-55.3726C51.074-53.9546 50.584-52.5936 49.789-51.4106C48.994-50.2276 47.92-49.2596 46.662-48.5926C45.508-47.9796 44.231-47.6376 42.934-47.5896L42.58-47.5836L11.08-47.5836C10.168-47.5836 9.43-48.3226 9.43-49.2336C9.43-50.0976 10.093-50.8056 10.937-50.8776L11.08-50.8836L42.587-50.8836C43.468-50.8806 44.337-51.0946 45.116-51.5076C45.894-51.9206 46.558-52.5186 47.05-53.2516C47.541-53.9826 47.845-54.8256 47.933-55.7006C48.02-56.5796 47.89-57.4646 47.552-58.2796C47.217-59.0926 46.684-59.8106 46.002-60.3706C45.321-60.9296 44.512-61.3106 43.646-61.4826C42.783-61.6536 41.889-61.6076 41.046-61.3506C40.202-61.0926 39.436-60.6306 38.815-60.0056C38.172-59.3596 37.128-59.3566 36.481-59.9986C35.835-60.6416 35.832-61.6856 36.474-62.3326C37.479-63.3426 38.718-64.0896 40.081-64.5056Z"/>
   <path class="hierarchical-2:primary SFSymbolsPreview212121" d="M69.303-53.9386C70.938-54.4336 72.671-54.5176 74.348-54.1836C76.023-53.8496 77.591-53.1066 78.912-52.0226C80.234-50.9376 81.267-49.5446 81.921-47.9666C82.576-46.3876 82.831-44.6726 82.665-42.9716C82.498-41.2716 81.916-39.6386 80.967-38.2146C80.019-36.7936 78.736-35.6276 77.23-34.8196C75.832-34.0696 74.283-33.6506 72.696-33.5916L72.33-33.5836L11.08-33.5836C10.168-33.5836 9.43-34.3226 9.43-35.2336C9.43-36.0976 10.093-36.8056 10.937-36.8776L11.08-36.8836L72.326-36.8836C73.495-36.8866 74.643-37.1756 75.669-37.7266C76.698-38.2786 77.574-39.0756 78.221-40.0446C78.869-41.0176 79.267-42.1326 79.38-43.2926C79.494-44.4536 79.32-45.6246 78.872-46.7036C78.426-47.7806 77.721-48.7316 76.819-49.4716C75.917-50.2126 74.846-50.7186 73.703-50.9466C72.558-51.1756 71.375-51.1176 70.259-50.7796C69.142-50.4426 68.126-49.8346 67.3-49.0106C66.654-48.3676 65.61-48.3686 64.966-49.0136C64.323-49.6596 64.324-50.7036 64.97-51.3476C66.18-52.5546 67.669-53.4446 69.303-53.9386Z"/>
  </g>
  <g id="Ultralight-S" transform="matrix(1 0 0 1 514.419 696)">
   <path class="hierarchical-0:tertiary SFSymbolsPreview8E8E8E" d="M52.526-22.3262C53.861-22.3312 55.176-22.0072 56.354-21.3812C57.533-20.7572 58.539-19.8502 59.283-18.7422C60.027-17.6352 60.487-16.3602 60.62-15.0312C60.752-13.7022 60.555-12.3622 60.045-11.1312C59.536-9.89818 58.729-8.81018 57.697-7.96318C56.666-7.11718 55.441-6.53918 54.131-6.27918C52.823-6.02018 51.469-6.08918 50.193-6.47918C48.916-6.87018 47.756-7.56918 46.815-8.51518C46.387-8.94618 46.389-9.64218 46.82-10.0712C47.251-10.4992 47.947-10.4972 48.376-10.0662C49.06-9.37718 49.906-8.86818 50.836-8.58318C51.765-8.29918 52.752-8.24918 53.704-8.43718C54.658-8.62718 55.551-9.04818 56.302-9.66418C57.054-10.2812 57.641-11.0732 58.012-11.9712C58.383-12.8692 58.527-13.8452 58.431-14.8132C58.334-15.7792 57.999-16.7082 57.457-17.5152C56.915-18.3222 56.182-18.9832 55.324-19.4382C54.561-19.8432 53.719-20.0742 52.855-20.1182L52.53-20.1262L10.53-20.1262C9.923-20.1262 9.43-20.6182 9.43-21.2262C9.43-21.7932 9.859-22.2592 10.411-22.3192L10.53-22.3262L52.526-22.3262Z"/>
   <path class="hierarchical-1:secondary SFSymbolsPreview4D4D4D" d="M39.693-63.9722C40.969-64.3622 42.323-64.4312 43.631-64.1722C44.941-63.9122 46.166-63.3342 47.197-62.4882C48.229-61.6412 49.036-60.5532 49.545-59.3212C50.055-58.0892 50.252-56.7492 50.12-55.4192C49.987-54.0922 49.527-52.8172 48.783-51.7092C48.039-50.6012 47.033-49.6942 45.855-49.0702C44.775-48.4962 43.579-48.1762 42.363-48.1312L42.03-48.1262L10.53-48.1262C9.923-48.1262 9.43-48.6182 9.43-49.2262C9.43-49.7932 9.859-50.2592 10.411-50.3192L10.53-50.3262L42.035-50.3262C43.007-50.3212 43.965-50.5582 44.824-51.0142C45.682-51.4682 46.415-52.1292 46.957-52.9362C47.499-53.7432 47.834-54.6722 47.931-55.6372C48.027-56.6062 47.883-57.5832 47.512-58.4812C47.141-59.3782 46.554-60.1702 45.802-60.7872C45.051-61.4032 44.158-61.8252 43.204-62.0142C42.252-62.2022 41.265-62.1522 40.336-61.8682C39.406-61.5842 38.56-61.0742 37.876-60.3852C37.447-59.9542 36.751-59.9522 36.32-60.3812C35.889-60.8092 35.887-61.5052 36.315-61.9362C37.256-62.8822 38.416-63.5822 39.693-63.9722Z"/>
   <path class="hierarchical-2:primary SFSymbolsPreview212121" d="M68.913-53.4032C70.462-53.8732 72.103-53.9522 73.691-53.6352C75.278-53.3192 76.763-52.6162 78.014-51.5892C79.266-50.5622 80.245-49.2422 80.864-47.7482C81.484-46.2522 81.726-44.6272 81.568-43.0172C81.411-41.4072 80.859-39.8602 79.96-38.5112C79.062-37.1652 77.847-36.0612 76.421-35.2952C75.105-34.5892 73.647-34.1932 72.154-34.1342L71.78-34.1262L10.53-34.1262C9.923-34.1262 9.43-34.6182 9.43-35.2262C9.43-35.7932 9.859-36.2602 10.411-36.3192L10.53-36.3262L71.778-36.3262C73.037-36.3282 74.274-36.6402 75.38-37.2342C76.488-37.8292 77.433-38.6862 78.13-39.7312C78.827-40.7792 79.256-41.9812 79.379-43.2312C79.501-44.4822 79.313-45.7432 78.831-46.9062C78.351-48.0662 77.59-49.0912 76.618-49.8882C75.647-50.6862 74.493-51.2322 73.261-51.4782C72.028-51.7242 70.753-51.6622 69.551-51.2982C68.347-50.9342 67.253-50.2802 66.362-49.3922C65.932-48.9632 65.235-48.9642 64.806-49.3942C64.377-49.8242 64.379-50.5212 64.809-50.9502C65.955-52.0932 67.365-52.9362 68.913-53.4032Z"/>
  </g>
 </g>
</svg>
