<?xml version="1.0" encoding="UTF-8"?>
<!--Generator: Apple Native CoreSVG 175-->
<!DOCTYPE svg
PUBLIC "-//W3C//DTD SVG 1.1//EN"
       "http://www.w3.org/Graphics/SVG/1.1/DTD/svg11.dtd">
<svg version="1.1" xmlns="http://www.w3.org/2000/svg" xmlns:xlink="http://www.w3.org/1999/xlink" width="3300" height="2200">
 <!--glyph: "", point size: 100.0, font version: "17.1d1e1", template writer version: "65.1"-->
 <style>.hierarchical-0:secondary {fill:#4D4D4D}
.hierarchical-1:primary {fill:#212121}

.SFSymbolsPreview212121 {fill:#212121;opacity:1.0}
.SFSymbolsPreview4D4D4D {fill:#4D4D4D;opacity:1.0}
</style>
 <g id="Notes">
  <rect height="2200" id="artboard" style="fill:white;opacity:1" width="3300" x="0" y="0"/>
  <line style="fill:none;stroke:black;opacity:1;stroke-width:0.5;" x1="263" x2="3036" y1="292" y2="292"/>
  <text style="stroke:none;fill:black;font-family:sans-serif;font-size:13;font-weight:bold;" transform="matrix(1 0 0 1 263 322)">Weight/Scale Variations</text>
  <text style="stroke:none;fill:black;font-family:sans-serif;font-size:13;text-anchor:middle;" transform="matrix(1 0 0 1 559.711 322)">Ultralight</text>
  <text style="stroke:none;fill:black;font-family:sans-serif;font-size:13;text-anchor:middle;" transform="matrix(1 0 0 1 856.422 322)">Thin</text>
  <text style="stroke:none;fill:black;font-family:sans-serif;font-size:13;text-anchor:middle;" transform="matrix(1 0 0 1 1153.13 322)">Light</text>
  <text style="stroke:none;fill:black;font-family:sans-serif;font-size:13;text-anchor:middle;" transform="matrix(1 0 0 1 1449.84 322)">Regular</text>
  <text style="stroke:none;fill:black;font-family:sans-serif;font-size:13;text-anchor:middle;" transform="matrix(1 0 0 1 1746.56 322)">Medium</text>
  <text style="stroke:none;fill:black;font-family:sans-serif;font-size:13;text-anchor:middle;" transform="matrix(1 0 0 1 2043.27 322)">Semibold</text>
  <text style="stroke:none;fill:black;font-family:sans-serif;font-size:13;text-anchor:middle;" transform="matrix(1 0 0 1 2339.98 322)">Bold</text>
  <text style="stroke:none;fill:black;font-family:sans-serif;font-size:13;text-anchor:middle;" transform="matrix(1 0 0 1 2636.69 322)">Heavy</text>
  <text style="stroke:none;fill:black;font-family:sans-serif;font-size:13;text-anchor:middle;" transform="matrix(1 0 0 1 2933.4 322)">Black</text>
  <line style="fill:none;stroke:black;opacity:1;stroke-width:0.5;" x1="263" x2="3036" y1="1903" y2="1903"/>
  <g transform="matrix(1 0 0 1 263 1933)">
   <path d="M9.24805 0.830078Q10.8691 0.830078 12.2949 0.214844Q13.7207-0.400391 14.8096-1.49414Q15.8984-2.58789 16.5186-4.01367Q17.1387-5.43945 17.1387-7.05078Q17.1387-8.66211 16.5186-10.0879Q15.8984-11.5137 14.8047-12.6074Q13.7109-13.7012 12.2852-14.3164Q10.8594-14.9316 9.23828-14.9316Q7.62695-14.9316 6.20117-14.3164Q4.77539-13.7012 3.69141-12.6074Q2.60742-11.5137 1.9873-10.0879Q1.36719-8.66211 1.36719-7.05078Q1.36719-5.43945 1.9873-4.01367Q2.60742-2.58789 3.69629-1.49414Q4.78516-0.400391 6.21094 0.214844Q7.63672 0.830078 9.24805 0.830078ZM9.24805-0.654297Q7.91992-0.654297 6.7627-1.14746Q5.60547-1.64062 4.73145-2.51953Q3.85742-3.39844 3.36426-4.56055Q2.87109-5.72266 2.87109-7.05078Q2.87109-8.37891 3.35938-9.54102Q3.84766-10.7031 4.72168-11.582Q5.5957-12.4609 6.75293-12.9541Q7.91016-13.4473 9.23828-13.4473Q10.5762-13.4473 11.7334-12.9541Q12.8906-12.4609 13.7695-11.582Q14.6484-10.7031 15.1465-9.54102Q15.6445-8.37891 15.6445-7.05078Q15.6445-5.72266 15.1514-4.56055Q14.6582-3.39844 13.7842-2.51953Q12.9102-1.64062 11.748-1.14746Q10.5859-0.654297 9.24805-0.654297ZM5.6543-7.05078Q5.6543-6.72852 5.85938-6.52832Q6.06445-6.32812 6.40625-6.32812L8.51562-6.32812L8.51562-4.20898Q8.51562-3.88672 8.71094-3.67676Q8.90625-3.4668 9.23828-3.4668Q9.56055-3.4668 9.77051-3.67676Q9.98047-3.88672 9.98047-4.20898L9.98047-6.32812L12.0898-6.32812Q12.4219-6.32812 12.627-6.52832Q12.832-6.72852 12.832-7.05078Q12.832-7.38281 12.627-7.58789Q12.4219-7.79297 12.0898-7.79297L9.98047-7.79297L9.98047-9.90234Q9.98047-10.2344 9.77051-10.4443Q9.56055-10.6543 9.23828-10.6543Q8.90625-10.6543 8.71094-10.4443Q8.51562-10.2344 8.51562-9.90234L8.51562-7.79297L6.40625-7.79297Q6.06445-7.79297 5.85938-7.58789Q5.6543-7.38281 5.6543-7.05078Z"/>
  </g>
  <g transform="matrix(1 0 0 1 281.867 1933)">
   <path d="M11.709 2.91016Q13.75 2.91016 15.5518 2.12891Q17.3535 1.34766 18.7305-0.0292969Q20.1074-1.40625 20.8887-3.20801Q21.6699-5.00977 21.6699-7.05078Q21.6699-9.0918 20.8887-10.8936Q20.1074-12.6953 18.7305-14.0723Q17.3535-15.4492 15.5469-16.2305Q13.7402-17.0117 11.6992-17.0117Q9.6582-17.0117 7.85645-16.2305Q6.05469-15.4492 4.68262-14.0723Q3.31055-12.6953 2.5293-10.8936Q1.74805-9.0918 1.74805-7.05078Q1.74805-5.00977 2.5293-3.20801Q3.31055-1.40625 4.6875-0.0292969Q6.06445 1.34766 7.86621 2.12891Q9.66797 2.91016 11.709 2.91016ZM11.709 1.25Q9.98047 1.25 8.47656 0.605469Q6.97266-0.0390625 5.83496-1.17676Q4.69727-2.31445 4.05762-3.81836Q3.41797-5.32227 3.41797-7.05078Q3.41797-8.7793 4.05762-10.2832Q4.69727-11.7871 5.83008-12.9297Q6.96289-14.0723 8.4668-14.7119Q9.9707-15.3516 11.6992-15.3516Q13.4277-15.3516 14.9316-14.7119Q16.4355-14.0723 17.5781-12.9297Q18.7207-11.7871 19.3652-10.2832Q20.0098-8.7793 20.0098-7.05078Q20.0098-5.32227 19.3701-3.81836Q18.7305-2.31445 17.5928-1.17676Q16.4551-0.0390625 14.9463 0.605469Q13.4375 1.25 11.709 1.25ZM7.17773-7.05078Q7.17773-6.69922 7.41211-6.47461Q7.64648-6.25 8.01758-6.25L10.8887-6.25L10.8887-3.36914Q10.8887-2.99805 11.1133-2.76855Q11.3379-2.53906 11.6895-2.53906Q12.0605-2.53906 12.29-2.76855Q12.5195-2.99805 12.5195-3.36914L12.5195-6.25L15.4004-6.25Q15.7715-6.25 16.001-6.47461Q16.2305-6.69922 16.2305-7.05078Q16.2305-7.42188 16.001-7.65137Q15.7715-7.88086 15.4004-7.88086L12.5195-7.88086L12.5195-10.752Q12.5195-11.1328 12.29-11.3623Q12.0605-11.5918 11.6895-11.5918Q11.3379-11.5918 11.1133-11.3574Q10.8887-11.123 10.8887-10.752L10.8887-7.88086L8.01758-7.88086Q7.63672-7.88086 7.40723-7.65137Q7.17773-7.42188 7.17773-7.05078Z"/>
  </g>
  <g transform="matrix(1 0 0 1 305.646 1933)">
   <path d="M14.9707 5.66406Q17.0605 5.66406 18.96 5.01465Q20.8594 4.36523 22.4512 3.19336Q24.043 2.02148 25.2197 0.429688Q26.3965-1.16211 27.0459-3.06641Q27.6953-4.9707 27.6953-7.05078Q27.6953-9.14062 27.0459-11.04Q26.3965-12.9395 25.2197-14.5312Q24.043-16.123 22.4512-17.2998Q20.8594-18.4766 18.9551-19.126Q17.0508-19.7754 14.9609-19.7754Q12.8711-19.7754 10.9717-19.126Q9.07227-18.4766 7.48535-17.2998Q5.89844-16.123 4.72168-14.5312Q3.54492-12.9395 2.90039-11.04Q2.25586-9.14062 2.25586-7.05078Q2.25586-4.9707 2.90527-3.06641Q3.55469-1.16211 4.72656 0.429688Q5.89844 2.02148 7.49023 3.19336Q9.08203 4.36523 10.9814 5.01465Q12.8809 5.66406 14.9707 5.66406ZM14.9707 3.84766Q13.1641 3.84766 11.5283 3.2959Q9.89258 2.74414 8.53516 1.74805Q7.17773 0.751953 6.17676-0.610352Q5.17578-1.97266 4.62891-3.6084Q4.08203-5.24414 4.08203-7.05078Q4.08203-8.86719 4.62891-10.5029Q5.17578-12.1387 6.17188-13.501Q7.16797-14.8633 8.52539-15.8594Q9.88281-16.8555 11.5186-17.4023Q13.1543-17.9492 14.9609-17.9492Q16.7773-17.9492 18.4131-17.4023Q20.0488-16.8555 21.4111-15.8594Q22.7734-14.8633 23.7695-13.501Q24.7656-12.1387 25.3174-10.5029Q25.8691-8.86719 25.8691-7.05078Q25.8789-5.24414 25.332-3.6084Q24.7852-1.97266 23.7842-0.610352Q22.7832 0.751953 21.4209 1.74805Q20.0586 2.74414 18.4229 3.2959Q16.7871 3.84766 14.9707 3.84766ZM9.19922-7.05078Q9.19922-6.66992 9.45801-6.4209Q9.7168-6.17188 10.1172-6.17188L14.0625-6.17188L14.0625-2.2168Q14.0625-1.81641 14.3115-1.55762Q14.5605-1.29883 14.9512-1.29883Q15.3516-1.29883 15.6104-1.55273Q15.8691-1.80664 15.8691-2.2168L15.8691-6.17188L19.8242-6.17188Q20.2246-6.17188 20.4785-6.4209Q20.7324-6.66992 20.7324-7.05078Q20.7324-7.46094 20.4785-7.71484Q20.2246-7.96875 19.8242-7.96875L15.8691-7.96875L15.8691-11.9141Q15.8691-12.3242 15.6104-12.583Q15.3516-12.8418 14.9512-12.8418Q14.5605-12.8418 14.3115-12.583Q14.0625-12.3242 14.0625-11.9141L14.0625-7.96875L10.1172-7.96875Q9.70703-7.96875 9.45312-7.71484Q9.19922-7.46094 9.19922-7.05078Z"/>
  </g>
  <text style="stroke:none;fill:black;font-family:sans-serif;font-size:13;font-weight:bold;" transform="matrix(1 0 0 1 263 1953)">Design Variations</text>
  <text style="stroke:none;fill:black;font-family:sans-serif;font-size:13;" transform="matrix(1 0 0 1 263 1971)">Symbols are supported in up to nine weights and three scales.</text>
  <text style="stroke:none;fill:black;font-family:sans-serif;font-size:13;" transform="matrix(1 0 0 1 263 1989)">For optimal layout with text and other symbols, vertically align</text>
  <text style="stroke:none;fill:black;font-family:sans-serif;font-size:13;" transform="matrix(1 0 0 1 263 2007)">symbols with the adjacent text.</text>
  <line style="fill:none;stroke:#00AEEF;stroke-width:0.5;opacity:1.0;" x1="776" x2="776" y1="1919" y2="1933"/>
  <g transform="matrix(1 0 0 1 776 1933)">
   <path d="M3.31055 0.15625Q3.70117 0.15625 3.91602-0.00976562Q4.13086-0.175781 4.26758-0.585938L5.52734-4.0332L11.2891-4.0332L12.5488-0.585938Q12.6855-0.175781 12.9004-0.00976562Q13.1152 0.15625 13.4961 0.15625Q13.8867 0.15625 14.1162-0.0585938Q14.3457-0.273438 14.3457-0.644531Q14.3457-0.869141 14.2383-1.17188L9.6582-13.3691Q9.48242-13.8184 9.17969-14.043Q8.87695-14.2676 8.4082-14.2676Q7.5-14.2676 7.17773-13.3789L2.59766-1.16211Q2.49023-0.859375 2.49023-0.634766Q2.49023-0.263672 2.70996-0.0537109Q2.92969 0.15625 3.31055 0.15625ZM6.00586-5.51758L8.37891-12.0898L8.42773-12.0898L10.8008-5.51758Z"/>
  </g>
  <line style="fill:none;stroke:#00AEEF;stroke-width:0.5;opacity:1.0;" x1="793.197" x2="793.197" y1="1919" y2="1933"/>
  <text style="stroke:none;fill:black;font-family:sans-serif;font-size:13;font-weight:bold;" transform="matrix(1 0 0 1 776 1953)">Margins</text>
  <text style="stroke:none;fill:black;font-family:sans-serif;font-size:13;" transform="matrix(1 0 0 1 776 1971)">Leading and trailing margins on the left and right side of each symbol</text>
  <text style="stroke:none;fill:black;font-family:sans-serif;font-size:13;" transform="matrix(1 0 0 1 776 1989)">can be adjusted by modifying the x-location of the margin guidelines.</text>
  <text style="stroke:none;fill:black;font-family:sans-serif;font-size:13;" transform="matrix(1 0 0 1 776 2007)">Modifications are automatically applied proportionally to all</text>
  <text style="stroke:none;fill:black;font-family:sans-serif;font-size:13;" transform="matrix(1 0 0 1 776 2025)">scales and weights.</text>
  <g transform="matrix(1 0 0 1 1289 1933)">
   <path d="M2.8418 1.86523L4.54102 3.57422Q5.18555 4.22852 5.90332 4.17969Q6.62109 4.13086 7.31445 3.35938L18.0078-8.42773L17.041-9.4043L6.42578 2.27539Q6.16211 2.57812 5.89355 2.61719Q5.625 2.65625 5.27344 2.30469L4.10156 1.14258Q3.75 0.791016 3.79395 0.522461Q3.83789 0.253906 4.14062-0.0195312L15.6152-10.8203L14.6387-11.7871L3.04688-0.898438Q2.30469-0.214844 2.25098 0.498047Q2.19727 1.21094 2.8418 1.86523ZM9.25781-16.3281Q8.94531-16.0254 8.90625-15.6348Q8.86719-15.2441 9.04297-14.9512Q9.21875-14.6777 9.55566-14.541Q9.89258-14.4043 10.3809-14.5215Q11.4746-14.7754 12.5977-14.7314Q13.7207-14.6875 14.7949-13.9844L14.209-12.5293Q13.9551-11.9043 14.0674-11.4404Q14.1797-10.9766 14.5801-10.5664L16.875-8.25195Q17.2363-7.88086 17.5781-7.82227Q17.9199-7.76367 18.3398-7.8418L19.4043-8.03711L20.0684-7.36328L20.0293-6.80664Q20-6.43555 20.1221-6.12305Q20.2441-5.81055 20.6055-5.44922L21.3672-4.70703Q21.7285-4.3457 22.1533-4.33105Q22.5781-4.31641 22.9297-4.66797L25.8398-7.58789Q26.1914-7.93945 26.1816-8.35449Q26.1719-8.76953 25.8105-9.13086L25.0391-9.89258Q24.6875-10.2539 24.3799-10.3857Q24.0723-10.5176 23.7109-10.4883L23.1348-10.4395L22.4902-11.0742L22.7344-12.1973Q22.832-12.6172 22.6953-12.9834Q22.5586-13.3496 22.1191-13.7891L19.9219-15.9766Q18.6719-17.2168 17.2607-17.8369Q15.8496-18.457 14.4189-18.4814Q12.9883-18.5059 11.665-17.959Q10.3418-17.4121 9.25781-16.3281ZM10.752-15.957Q11.6602-16.6211 12.7002-16.9043Q13.7402-17.1875 14.8047-17.085Q15.8691-16.9824 16.8701-16.5137Q17.8711-16.0449 18.7012-15.2051L21.1328-12.793Q21.3086-12.6172 21.3525-12.4512Q21.3965-12.2852 21.3379-12.0312L21.0156-10.5469L22.5195-9.0625L23.5059-9.12109Q23.6914-9.13086 23.7891-9.09668Q23.8867-9.0625 24.0332-8.91602L24.6094-8.33984L22.168-5.89844L21.5918-6.47461Q21.4453-6.62109 21.4062-6.71875Q21.3672-6.81641 21.377-7.01172L21.4453-7.98828L19.9512-9.47266L18.4277-9.21875Q18.1836-9.16992 18.042-9.2041Q17.9004-9.23828 17.7148-9.41406L15.7129-11.416Q15.5176-11.5918 15.4932-11.7529Q15.4688-11.9141 15.5859-12.1875L16.4648-14.2773Q15.293-15.3711 13.8281-15.791Q12.3633-16.2109 10.8398-15.7617Q10.7227-15.7324 10.6885-15.8057Q10.6543-15.8789 10.752-15.957Z"/>
  </g>
  <text style="stroke:none;fill:black;font-family:sans-serif;font-size:13;font-weight:bold;" transform="matrix(1 0 0 1 1289 1953)">Exporting</text>
  <text style="stroke:none;fill:black;font-family:sans-serif;font-size:13;" transform="matrix(1 0 0 1 1289 1971)">Symbols should be outlined when exporting to ensure the</text>
  <text style="stroke:none;fill:black;font-family:sans-serif;font-size:13;" transform="matrix(1 0 0 1 1289 1989)">design is preserved when submitting to Xcode.</text>
  <text id="template-version" style="stroke:none;fill:black;font-family:sans-serif;font-size:13;text-anchor:end;" transform="matrix(1 0 0 1 3036 1933)">Template v.3.0</text>
  <text style="stroke:none;fill:black;font-family:sans-serif;font-size:13;text-anchor:end;" transform="matrix(1 0 0 1 3036 1951)">Requires Xcode 13 or greater</text>
  <text id="descriptive-name" style="stroke:none;fill:black;font-family:sans-serif;font-size:13;text-anchor:end;" transform="matrix(1 0 0 1 3036 1969)">Generated from divide-circle</text>
  <text style="stroke:none;fill:black;font-family:sans-serif;font-size:13;text-anchor:end;" transform="matrix(1 0 0 1 3036 1987)">Typeset at 100 points</text>
  <text style="stroke:none;fill:black;font-family:sans-serif;font-size:13;" transform="matrix(1 0 0 1 263 726)">Small</text>
  <text style="stroke:none;fill:black;font-family:sans-serif;font-size:13;" transform="matrix(1 0 0 1 263 1156)">Medium</text>
  <text style="stroke:none;fill:black;font-family:sans-serif;font-size:13;" transform="matrix(1 0 0 1 263 1586)">Large</text>
 </g>
 <g id="Guides">
  <g id="H-reference" style="fill:#27AAE1;stroke:none;" transform="matrix(1 0 0 1 339 696)">
   <path d="M0.976562 0L3.66211 0L29.3457-67.1387L30.0293-67.1387L30.0293-70.459L28.125-70.459ZM11.6699-24.4629L46.9727-24.4629L46.2402-26.709L12.4512-26.709ZM55.127 0L57.7637 0L30.6152-70.459L29.4434-70.459L29.4434-67.1387Z"/>
  </g>
  <line id="Baseline-S" style="fill:none;stroke:#27AAE1;opacity:1;stroke-width:0.5;" x1="263" x2="3036" y1="696" y2="696"/>
  <line id="Capline-S" style="fill:none;stroke:#27AAE1;opacity:1;stroke-width:0.5;" x1="263" x2="3036" y1="625.541" y2="625.541"/>
  <g id="H-reference" style="fill:#27AAE1;stroke:none;" transform="matrix(1 0 0 1 339 1126)">
   <path d="M0.976562 0L3.66211 0L29.3457-67.1387L30.0293-67.1387L30.0293-70.459L28.125-70.459ZM11.6699-24.4629L46.9727-24.4629L46.2402-26.709L12.4512-26.709ZM55.127 0L57.7637 0L30.6152-70.459L29.4434-70.459L29.4434-67.1387Z"/>
  </g>
  <line id="Baseline-M" style="fill:none;stroke:#27AAE1;opacity:1;stroke-width:0.5;" x1="263" x2="3036" y1="1126" y2="1126"/>
  <line id="Capline-M" style="fill:none;stroke:#27AAE1;opacity:1;stroke-width:0.5;" x1="263" x2="3036" y1="1055.54" y2="1055.54"/>
  <g id="H-reference" style="fill:#27AAE1;stroke:none;" transform="matrix(1 0 0 1 339 1556)">
   <path d="M0.976562 0L3.66211 0L29.3457-67.1387L30.0293-67.1387L30.0293-70.459L28.125-70.459ZM11.6699-24.4629L46.9727-24.4629L46.2402-26.709L12.4512-26.709ZM55.127 0L57.7637 0L30.6152-70.459L29.4434-70.459L29.4434-67.1387Z"/>
  </g>
  <line id="Baseline-L" style="fill:none;stroke:#27AAE1;opacity:1;stroke-width:0.5;" x1="263" x2="3036" y1="1556" y2="1556"/>
  <line id="Capline-L" style="fill:none;stroke:#27AAE1;opacity:1;stroke-width:0.5;" x1="263" x2="3036" y1="1485.54" y2="1485.54"/>
  <line id="left-margin-Regular-M" style="fill:none;stroke:#00AEEF;stroke-width:0.5;opacity:1.0;" x1="1392.45" x2="1392.45" y1="1030.78" y2="1150.12"/>
  <line id="right-margin-Regular-M" style="fill:none;stroke:#00AEEF;stroke-width:0.5;opacity:1.0;" x1="1507.24" x2="1507.24" y1="1030.78" y2="1150.12"/>
 </g>
 <g id="Symbols">
  <g id="Black-L" transform="matrix(1 0 0 1 2860.15 1556)">
   <path class="hierarchical-0:secondary SFSymbolsPreview4D4D4D" d="M9.43-35.23C9.43-70.56 38.07-99.21 73.4-99.21C108.73-99.21 137.38-70.56 137.38-35.23C137.38 0.1 108.73 28.74 73.4 28.74C38.07 28.74 9.43 0.1 9.43-35.23ZM73.4-85.01C45.91-85.01 23.63-62.72 23.63-35.23C23.63-7.74 45.91 14.54 73.4 14.54C100.89 14.54 123.18-7.74 123.18-35.23C123.18-62.72 100.89-85.01 73.4-85.01Z"/>
   <path class="hierarchical-1:primary SFSymbolsPreview212121" d="M43.55-35.23C43.55-39.15 46.73-42.33 50.65-42.33L96.15-42.33C100.07-42.33 103.25-39.15 103.25-35.23C103.25-31.31 100.07-28.13 96.15-28.13L50.65-28.13C46.73-28.13 43.55-31.31 43.55-35.23ZM73.4-50.29C77.65-50.29 81.09-53.73 81.09-57.98C81.09-62.23 77.65-65.67 73.4-65.67C69.15-65.67 65.71-62.23 65.71-57.98C65.71-53.73 69.15-50.29 73.4-50.29ZM73.4-4.79C77.65-4.79 81.09-8.23 81.09-12.48C81.09-16.73 77.65-20.17 73.4-20.17C69.15-20.17 65.71-16.73 65.71-12.48C65.71-8.23 69.15-4.79 73.4-4.79Z"/>
  </g>
  <g id="Heavy-L" transform="matrix(1 0 0 1 2564.29 1556)">
   <path class="hierarchical-0:secondary SFSymbolsPreview4D4D4D" d="M9.43-35.23C9.43-70.09 37.69-98.36 72.56-98.36C107.42-98.36 135.68-70.09 135.68-35.23C135.68-0.37 107.42 27.89 72.56 27.89C37.69 27.89 9.43-0.37 9.43-35.23ZM72.56-85.86C44.6-85.86 21.93-63.19 21.93-35.23C21.93-7.27 44.6 15.39 72.56 15.39C100.52 15.39 123.18-7.27 123.18-35.23C123.18-63.19 100.52-85.86 72.56-85.86Z"/>
   <path class="hierarchical-1:primary SFSymbolsPreview212121" d="M43.56-35.23C43.56-38.68 46.36-41.48 49.81-41.48L95.31-41.48C98.76-41.48 101.56-38.68 101.56-35.23C101.56-31.78 98.76-28.98 95.31-28.98L49.81-28.98C46.36-28.98 43.56-31.78 43.56-35.23ZM72.56-49.29C77.36-49.29 81.24-53.18 81.24-57.98C81.24-62.78 77.36-66.67 72.56-66.67C67.76-66.67 63.87-62.78 63.87-57.98C63.87-53.18 67.76-49.29 72.56-49.29ZM72.56-3.79C77.36-3.79 81.24-7.68 81.24-12.48C81.24-17.28 77.36-21.17 72.56-21.17C67.76-21.17 63.87-17.28 63.87-12.48C63.87-7.68 67.76-3.79 72.56-3.79Z"/>
  </g>
  <g id="Bold-L" transform="matrix(1 0 0 1 2268.53 1556)">
   <path class="hierarchical-0:secondary SFSymbolsPreview4D4D4D" d="M9.43-35.23C9.43-69.57 37.27-97.41 71.6-97.41C105.94-97.41 133.78-69.57 133.78-35.23C133.78-0.89 105.94 26.94 71.6 26.94C37.27 26.94 9.43-0.89 9.43-35.23ZM71.6-86.81C43.12-86.81 20.03-63.72 20.03-35.23C20.03-6.75 43.12 16.34 71.6 16.34C100.09 16.34 123.18-6.75 123.18-35.23C123.18-63.72 100.09-86.81 71.6-86.81Z"/>
   <path class="hierarchical-1:primary SFSymbolsPreview212121" d="M43.55-35.23C43.55-38.16 45.93-40.53 48.85-40.53L94.35-40.53C97.28-40.53 99.65-38.16 99.65-35.23C99.65-32.3 97.28-29.93 94.35-29.93L48.85-29.93C45.93-29.93 43.55-32.3 43.55-35.23ZM71.6-50.29C75.85-50.29 79.29-53.73 79.29-57.98C79.29-62.23 75.85-65.67 71.6-65.67C67.36-65.67 63.92-62.23 63.92-57.98C63.92-53.73 67.36-50.29 71.6-50.29ZM71.6-4.79C75.85-4.79 79.29-8.23 79.29-12.48C79.29-16.73 75.85-20.17 71.6-20.17C67.36-20.17 63.92-16.73 63.92-12.48C63.92-8.23 67.36-4.79 71.6-4.79Z"/>
  </g>
  <g id="Semibold-L" transform="matrix(1 0 0 1 1972.47 1556)">
   <path class="hierarchical-0:secondary SFSymbolsPreview4D4D4D" d="M9.43-35.23C9.43-69.21 36.98-96.75 70.96-96.75C104.94-96.75 132.48-69.21 132.48-35.23C132.48-1.25 104.94 26.3 70.96 26.3C36.98 26.3 9.43-1.25 9.43-35.23ZM70.96-87.45C42.12-87.45 18.73-64.07 18.73-35.23C18.73-6.39 42.12 17 70.96 17C99.8 17 123.18-6.39 123.18-35.23C123.18-64.07 99.8-87.45 70.96-87.45Z"/>
   <path class="hierarchical-1:primary SFSymbolsPreview212121" d="M43.56-35.23C43.56-37.8 45.64-39.88 48.21-39.88L93.71-39.88C96.28-39.88 98.36-37.8 98.36-35.23C98.36-32.66 96.28-30.58 93.71-30.58L48.21-30.58C45.64-30.58 43.56-32.66 43.56-35.23ZM70.96-51.29C74.65-51.29 77.65-54.29 77.65-57.98C77.65-61.67 74.65-64.67 70.96-64.67C67.27-64.67 64.27-61.67 64.27-57.98C64.27-54.29 67.27-51.29 70.96-51.29ZM70.96-5.79C74.65-5.79 77.65-8.79 77.65-12.48C77.65-16.17 74.65-19.17 70.96-19.17C67.27-19.17 64.27-16.17 64.27-12.48C64.27-8.79 67.27-5.79 70.96-5.79Z"/>
  </g>
  <g id="Medium-L" transform="matrix(1 0 0 1 1676.26 1556)">
   <path class="hierarchical-0:secondary SFSymbolsPreview4D4D4D" d="M9.43-35.23C9.43-68.93 36.76-96.25 70.46-96.25C104.16-96.25 131.48-68.93 131.48-35.23C131.48-1.53 104.16 25.8 70.46 25.8C36.76 25.8 9.43-1.53 9.43-35.23ZM70.46-87.95C41.34-87.95 17.73-64.35 17.73-35.23C17.73-6.11 41.34 17.5 70.46 17.5C99.58 17.5 123.18-6.11 123.18-35.23C123.18-64.35 99.58-87.95 70.46-87.95Z"/>
   <path class="hierarchical-1:primary SFSymbolsPreview212121" d="M43.56-35.23C43.56-37.52 45.42-39.38 47.71-39.38L93.21-39.38C95.5-39.38 97.36-37.52 97.36-35.23C97.36-32.94 95.5-31.08 93.21-31.08L47.71-31.08C45.42-31.08 43.56-32.94 43.56-35.23ZM76.1475-57.98C76.1475-54.8389 73.6011-52.2925 70.46-52.2925C67.3189-52.2925 64.7725-54.8389 64.7725-57.98C64.7725-61.1211 67.3189-63.6675 70.46-63.6675C73.6011-63.6675 76.1475-61.1211 76.1475-57.98ZM76.1475-12.48C76.1475-9.33888 73.6011-6.7925 70.46-6.7925C67.3189-6.7925 64.7725-9.33888 64.7725-12.48C64.7725-15.6211 67.3189-18.1675 70.46-18.1675C73.6011-18.1675 76.1475-15.6211 76.1475-12.48Z"/>
  </g>
  <g id="Regular-L" transform="matrix(1 0 0 1 1380.19 1556)">
   <path class="hierarchical-0:secondary SFSymbolsPreview4D4D4D" d="M9.43-35.23C9.43-68.57 36.47-95.61 69.81-95.61C103.15-95.61 130.19-68.57 130.19-35.23C130.19-1.89 103.15 25.14 69.81 25.14C36.47 25.14 9.43-1.89 9.43-35.23ZM69.81-88.61C40.33-88.61 16.43-64.71 16.43-35.23C16.43-5.75 40.33 18.14 69.81 18.14C99.29 18.14 123.19-5.75 123.19-35.23C123.19-64.71 99.29-88.61 69.81-88.61Z"/>
   <path class="hierarchical-1:primary SFSymbolsPreview212121" d="M43.56-35.23C43.56-37.16 45.13-38.73 47.06-38.73L92.56-38.73C94.49-38.73 96.06-37.16 96.06-35.23C96.06-33.3 94.49-31.73 92.56-31.73L47.06-31.73C45.13-31.73 43.56-33.3 43.56-35.23ZM75.4975-57.98C75.4975-54.8389 72.9511-52.2925 69.81-52.2925C66.6689-52.2925 64.1225-54.8389 64.1225-57.98C64.1225-61.1211 66.6689-63.6675 69.81-63.6675C72.9511-63.6675 75.4975-61.1211 75.4975-57.98ZM75.4975-12.48C75.4975-9.33888 72.9511-6.7925 69.81-6.7925C66.6689-6.7925 64.1225-9.33888 64.1225-12.48C64.1225-15.6211 66.6689-18.1675 69.81-18.1675C72.9511-18.1675 75.4975-15.6211 75.4975-12.48Z"/>
  </g>
  <g id="Light-L" transform="matrix(1 0 0 1 1084.28 1556)">
   <path class="hierarchical-0:secondary SFSymbolsPreview4D4D4D" d="M9.43-35.23C9.43-68.13 36.11-94.8 69.01-94.8C101.91-94.8 128.58-68.13 128.58-35.23C128.58-2.33 101.91 24.35 69.01 24.35C36.11 24.35 9.43-2.33 9.43-35.23ZM69.01-89.4C39.09-89.4 14.83-65.15 14.83-35.23C14.83-5.31 39.09 18.95 69.01 18.95C98.93 18.95 123.18-5.31 123.18-35.23C123.18-65.15 98.93-89.4 69.01-89.4Z"/>
   <path class="hierarchical-1:primary SFSymbolsPreview212121" d="M43.56-35.23C43.56-36.72 44.77-37.93 46.26-37.93L91.76-37.93C93.25-37.93 94.46-36.72 94.46-35.23C94.46-33.74 93.25-32.53 91.76-32.53L46.26-32.53C44.77-32.53 43.56-33.74 43.56-35.23ZM74.6975-57.98C74.6975-54.8389 72.1511-52.2925 69.01-52.2925C65.8689-52.2925 63.3225-54.8389 63.3225-57.98C63.3225-61.1211 65.8689-63.6675 69.01-63.6675C72.1511-63.6675 74.6975-61.1211 74.6975-57.98ZM74.6975-12.48C74.6975-9.33888 72.1511-6.7925 69.01-6.7925C65.8689-6.7925 63.3225-9.33888 63.3225-12.48C63.3225-15.6211 65.8689-18.1675 69.01-18.1675C72.1511-18.1675 74.6975-15.6211 74.6975-12.48Z"/>
  </g>
  <g id="Thin-L" transform="matrix(1 0 0 1 788.622 1556)">
   <path class="hierarchical-0:secondary SFSymbolsPreview4D4D4D" d="M9.43-35.23C9.43-67.55 35.632-93.75 67.955-93.75C100.277-93.75 126.48-67.55 126.48-35.23C126.48-2.91 100.277 23.3 67.955 23.3C35.632 23.3 9.43-2.91 9.43-35.23ZM67.955-90.45C37.455-90.45 12.73-65.73 12.73-35.23C12.73-4.73 37.455 20 67.955 20C98.455 20 123.18-4.73 123.18-35.23C123.18-65.73 98.455-90.45 67.955-90.45Z"/>
   <path class="hierarchical-1:primary SFSymbolsPreview212121" d="M43.555-35.23C43.555-36.14 44.293-36.88 45.205-36.88L90.705-36.88C91.616-36.88 92.355-36.14 92.355-35.23C92.355-34.32 91.616-33.58 90.705-33.58L45.205-33.58C44.293-33.58 43.555-34.32 43.555-35.23ZM71.642-57.98C71.642-55.94 69.992-54.29 67.955-54.29C65.918-54.29 64.267-55.94 64.267-57.98C64.267-60.02 65.918-61.67 67.955-61.67C69.992-61.67 71.642-60.02 71.642-57.98ZM71.642-12.48C71.642-10.44 69.992-8.79 67.955-8.79C65.918-8.79 64.267-10.44 64.267-12.48C64.267-14.52 65.918-16.17 67.955-16.17C69.992-16.17 71.642-14.52 71.642-12.48Z"/>
  </g>
  <g id="Ultralight-L" transform="matrix(1 0 0 1 492.461 1556)">
   <path class="hierarchical-0:secondary SFSymbolsPreview4D4D4D" d="M9.43-35.23C9.43-67.25 35.387-93.21 67.405-93.21C99.424-93.21 125.38-67.25 125.38-35.23C125.38-3.21 99.424 22.74 67.405 22.74C35.387 22.74 9.43-3.21 9.43-35.23ZM67.405-91.01C36.602-91.01 11.63-66.04 11.63-35.23C11.63-4.43 36.602 20.54 67.405 20.54C98.209 20.54 123.18-4.43 123.18-35.23C123.18-66.04 98.209-91.01 67.405-91.01Z"/>
   <path class="hierarchical-1:primary SFSymbolsPreview212121" d="M43.555-35.23C43.555-35.84 44.048-36.33 44.655-36.33L90.155-36.33C90.763-36.33 91.255-35.84 91.255-35.23C91.255-34.62 90.763-34.13 90.155-34.13L44.655-34.13C44.048-34.13 43.555-34.62 43.555-35.23ZM70.092-57.98C70.092-56.5 68.889-55.29 67.405-55.29C65.921-55.29 64.717-56.5 64.717-57.98C64.717-59.46 65.921-60.67 67.405-60.67C68.889-60.67 70.092-59.46 70.092-57.98ZM70.092-12.48C70.092-11 68.889-9.79 67.405-9.79C65.921-9.79 64.717-11 64.717-12.48C64.717-13.96 65.921-15.17 67.405-15.17C68.889-15.17 70.092-13.96 70.092-12.48Z"/>
  </g>
  <g id="Black-M" transform="matrix(1 0 0 1 2872.4 1126)">
   <path class="hierarchical-0:secondary SFSymbolsPreview4D4D4D" d="M9.43-35.23C9.43-63.8 32.59-86.96 61.15-86.96C89.72-86.96 112.88-63.8 112.88-35.23C112.88-6.67 89.72 16.49 61.15 16.49C32.59 16.49 9.43-6.67 9.43-35.23ZM61.15-72.76C40.43-72.76 23.63-55.96 23.63-35.23C23.63-14.51 40.43 2.29 61.15 2.29C81.88 2.29 98.68-14.51 98.68-35.23C98.68-55.96 81.88-72.76 61.15-72.76Z"/>
   <path class="hierarchical-1:primary SFSymbolsPreview212121" d="M36.2-35.23C36.2-39.15 39.38-42.33 43.3-42.33L79-42.33C82.93-42.33 86.1-39.15 86.1-35.23C86.1-31.31 82.93-28.13 79-28.13L43.3-28.13C39.38-28.13 36.2-31.31 36.2-35.23ZM61.15-45.62C65.28-45.62 68.62-48.96 68.62-53.08C68.62-57.2 65.28-60.54 61.15-60.54C57.03-60.54 53.69-57.2 53.69-53.08C53.69-48.96 57.03-45.62 61.15-45.62ZM61.15-9.92C65.28-9.92 68.62-13.26 68.62-17.38C68.62-21.5 65.28-24.84 61.15-24.84C57.03-24.84 53.69-21.5 53.69-17.38C53.69-13.26 57.03-9.92 61.15-9.92Z"/>
  </g>
  <g id="Heavy-M" transform="matrix(1 0 0 1 2576.54 1126)">
   <path class="hierarchical-0:secondary SFSymbolsPreview4D4D4D" d="M9.43-35.23C9.43-63.33 32.21-86.11 60.3-86.11C88.4-86.11 111.18-63.33 111.18-35.23C111.18-7.13 88.4 15.64 60.3 15.64C32.21 15.64 9.43-7.13 9.43-35.23ZM60.3-73.61C39.11-73.61 21.93-56.42 21.93-35.23C21.93-14.04 39.11 3.14 60.3 3.14C81.5 3.14 98.68-14.04 98.68-35.23C98.68-56.42 81.5-73.61 60.3-73.61Z"/>
   <path class="hierarchical-1:primary SFSymbolsPreview212121" d="M36.2-35.23C36.2-38.68 39-41.48 42.45-41.48L78.15-41.48C81.61-41.48 84.4-38.68 84.4-35.23C84.4-31.78 81.61-28.98 78.15-28.98L42.45-28.98C39-28.98 36.2-31.78 36.2-35.23ZM60.3-45.62C64.43-45.62 67.77-48.96 67.77-53.08C67.77-57.2 64.43-60.54 60.3-60.54C56.18-60.54 52.84-57.2 52.84-53.08C52.84-48.96 56.18-45.62 60.3-45.62ZM60.3-9.92C64.43-9.92 67.77-13.26 67.77-17.38C67.77-21.5 64.43-24.84 60.3-24.84C56.18-24.84 52.84-21.5 52.84-17.38C52.84-13.26 56.18-9.92 60.3-9.92Z"/>
  </g>
  <g id="Bold-M" transform="matrix(1 0 0 1 2280.78 1126)">
   <path class="hierarchical-0:secondary SFSymbolsPreview4D4D4D" d="M9.43-35.23C9.43-62.8 31.78-85.16 59.35-85.16C86.93-85.16 109.28-62.8 109.28-35.23C109.28-7.66 86.93 14.69 59.35 14.69C31.78 14.69 9.43-7.66 9.43-35.23ZM59.35-74.56C37.64-74.56 20.03-56.95 20.03-35.23C20.03-13.51 37.64 4.09 59.35 4.09C81.07 4.09 98.68-13.51 98.68-35.23C98.68-56.95 81.07-74.56 59.35-74.56Z"/>
   <path class="hierarchical-1:primary SFSymbolsPreview212121" d="M36.2-35.23C36.2-38.16 38.58-40.53 41.5-40.53L77.2-40.53C80.13-40.53 82.5-38.16 82.5-35.23C82.5-32.3 80.13-29.93 77.2-29.93L41.5-29.93C38.58-29.93 36.2-32.3 36.2-35.23ZM59.35-46.62C62.92-46.62 65.82-49.51 65.82-53.08C65.82-56.65 62.92-59.54 59.35-59.54C55.79-59.54 52.89-56.65 52.89-53.08C52.89-49.51 55.79-46.62 59.35-46.62ZM59.36-10.91C62.92-10.91 65.82-13.81 65.82-17.38C65.82-20.95 62.92-23.84 59.36-23.84C55.79-23.84 52.89-20.95 52.89-17.38C52.89-13.81 55.79-10.91 59.36-10.91Z"/>
  </g>
  <g id="Semibold-M" transform="matrix(1 0 0 1 1984.72 1126)">
   <path class="hierarchical-0:secondary SFSymbolsPreview4D4D4D" d="M9.43-35.23C9.43-62.44 31.5-84.5 58.71-84.5C85.92-84.5 107.98-62.44 107.98-35.23C107.98-8.02 85.92 14.05 58.71 14.05C31.5 14.05 9.43-8.02 9.43-35.23ZM58.71-75.2C36.63-75.2 18.73-57.31 18.73-35.23C18.73-13.15 36.63 4.75 58.71 4.75C80.79 4.75 98.68-13.15 98.68-35.23C98.68-57.31 80.79-75.2 58.71-75.2Z"/>
   <path class="hierarchical-1:primary SFSymbolsPreview212121" d="M36.21-35.23C36.21-37.8 38.29-39.88 40.86-39.88L76.56-39.88C79.13-39.88 81.21-37.8 81.21-35.23C81.21-32.66 79.13-30.58 76.56-30.58L40.86-30.58C38.29-30.58 36.21-32.66 36.21-35.23ZM58.71-47.62C61.73-47.62 64.17-50.06 64.17-53.08C64.17-56.1 61.73-58.54 58.71-58.54C55.69-58.54 53.25-56.1 53.25-53.08C53.25-50.06 55.69-47.62 58.71-47.62ZM58.71-11.92C61.73-11.92 64.17-14.36 64.17-17.38C64.17-20.4 61.73-22.84 58.71-22.84C55.69-22.84 53.25-20.4 53.25-17.38C53.25-14.36 55.69-11.92 58.71-11.92Z"/>
  </g>
  <g id="Medium-M" transform="matrix(1 0 0 1 1688.51 1126)">
   <path class="hierarchical-0:secondary SFSymbolsPreview4D4D4D" d="M9.43-35.23C9.43-62.17 31.27-84 58.21-84C85.15-84 106.98-62.17 106.98-35.23C106.98-8.29 85.15 13.55 58.21 13.55C31.27 13.55 9.43-8.29 9.43-35.23ZM58.21-75.7C35.86-75.7 17.73-57.58 17.73-35.23C17.73-12.88 35.86 5.25 58.21 5.25C80.56 5.25 98.68-12.88 98.68-35.23C98.68-57.58 80.56-75.7 58.21-75.7Z"/>
   <path class="hierarchical-1:primary SFSymbolsPreview212121" d="M36.21-35.23C36.21-37.52 38.07-39.38 40.36-39.38L76.06-39.38C78.35-39.38 80.21-37.52 80.21-35.23C80.21-32.94 78.35-31.08 76.06-31.08L40.36-31.08C38.07-31.08 36.21-32.94 36.21-35.23ZM58.21-47.62C61.23-47.62 63.67-50.06 63.67-53.08C63.67-56.1 61.23-58.54 58.21-58.54C55.19-58.54 52.75-56.1 52.75-53.08C52.75-50.06 55.19-47.62 58.21-47.62ZM58.21-11.92C61.23-11.92 63.67-14.36 63.67-17.38C63.67-20.4 61.23-22.84 58.21-22.84C55.19-22.84 52.75-20.4 52.75-17.38C52.75-14.36 55.19-11.92 58.21-11.92Z"/>
  </g>
  <g id="Regular-M" transform="matrix(1 0 0 1 1392.45 1126)">
   <path class="hierarchical-0:secondary SFSymbolsPreview4D4D4D" d="M9.43-35.23C9.43-61.81 30.97-83.36 57.55-83.36C84.13-83.36 105.67-61.81 105.67-35.23C105.67-8.65 84.13 12.89 57.55 12.89C30.97 12.89 9.43-8.65 9.43-35.23ZM57.55-76.36C34.84-76.36 16.43-57.94 16.43-35.23C16.43-12.52 34.84 5.89 57.55 5.89C80.26 5.89 98.67-12.52 98.67-35.23C98.67-57.94 80.26-76.36 57.55-76.36Z"/>
   <path class="hierarchical-1:primary SFSymbolsPreview212121" d="M36.2-35.23C36.2-37.16 37.77-38.73 39.7-38.73L75.4-38.73C77.33-38.73 78.9-37.16 78.9-35.23C78.9-33.3 77.33-31.73 75.4-31.73L39.7-31.73C37.77-31.73 36.2-33.3 36.2-35.23ZM62.0125-53.08C62.0125-50.6154 60.0146-48.6175 57.55-48.6175C55.0854-48.6175 53.0875-50.6154 53.0875-53.08C53.0875-55.5446 55.0854-57.5425 57.55-57.5425C60.0146-57.5425 62.0125-55.5446 62.0125-53.08ZM62.0125-17.38C62.0125-14.9154 60.0146-12.9175 57.55-12.9175C55.0854-12.9175 53.0875-14.9154 53.0875-17.38C53.0875-19.8446 55.0854-21.8425 57.55-21.8425C60.0146-21.8425 62.0125-19.8446 62.0125-17.38Z"/>
  </g>
  <g id="Light-M" transform="matrix(1 0 0 1 1096.53 1126)">
   <path class="hierarchical-0:secondary SFSymbolsPreview4D4D4D" d="M9.43-35.23C9.43-61.37 30.62-82.55 56.76-82.55C82.9-82.55 104.08-61.37 104.08-35.23C104.08-9.09 82.9 12.1 56.76 12.1C30.62 12.1 9.43-9.09 9.43-35.23ZM56.76-77.15C33.61-77.15 14.83-58.38 14.83-35.23C14.83-12.08 33.61 6.7 56.76 6.7C79.91 6.7 98.68-12.08 98.68-35.23C98.68-58.38 79.91-77.15 56.76-77.15Z"/>
   <path class="hierarchical-1:primary SFSymbolsPreview212121" d="M36.21-35.23C36.21-36.72 37.42-37.93 38.91-37.93L74.61-37.93C76.1-37.93 77.31-36.72 77.31-35.23C77.31-33.74 76.1-32.53 74.61-32.53L38.91-32.53C37.42-32.53 36.21-33.74 36.21-35.23ZM61.2225-53.08C61.2225-50.6154 59.2246-48.6175 56.76-48.6175C54.2954-48.6175 52.2975-50.6154 52.2975-53.08C52.2975-55.5446 54.2954-57.5425 56.76-57.5425C59.2246-57.5425 61.2225-55.5446 61.2225-53.08ZM61.2225-17.38C61.2225-14.9154 59.2246-12.9175 56.76-12.9175C54.2954-12.9175 52.2975-14.9154 52.2975-17.38C52.2975-19.8446 54.2954-21.8425 56.76-21.8425C59.2246-21.8425 61.2225-19.8446 61.2225-17.38Z"/>
  </g>
  <g id="Thin-M" transform="matrix(1 0 0 1 800.872 1126)">
   <path class="hierarchical-0:secondary SFSymbolsPreview4D4D4D" d="M9.43-35.23C9.43-60.79 30.148-81.5 55.705-81.5C81.262-81.5 101.98-60.79 101.98-35.23C101.98-9.67 81.262 11.05 55.705 11.05C30.148 11.05 9.43-9.67 9.43-35.23ZM55.705-78.2C31.97-78.2 12.73-58.96 12.73-35.23C12.73-11.49 31.97 7.75 55.705 7.75C79.439 7.75 98.68-11.49 98.68-35.23C98.68-58.96 79.439-78.2 55.705-78.2Z"/>
   <path class="hierarchical-1:primary SFSymbolsPreview212121" d="M36.205-35.23C36.205-36.14 36.944-36.88 37.855-36.88L73.555-36.88C74.466-36.88 75.205-36.14 75.205-35.23C75.205-34.32 74.466-33.58 73.555-33.58L37.855-33.58C36.944-33.58 36.205-34.32 36.205-35.23ZM59.167-53.08C59.167-51.17 57.617-49.62 55.705-49.62C53.792-49.62 52.242-51.17 52.242-53.08C52.242-54.99 53.792-56.54 55.705-56.54C57.617-56.54 59.167-54.99 59.167-53.08ZM59.167-17.38C59.167-15.47 57.617-13.92 55.705-13.92C53.792-13.92 52.242-15.47 52.242-17.38C52.242-19.29 53.792-20.84 55.705-20.84C57.617-20.84 59.167-19.29 59.167-17.38Z"/>
  </g>
  <g id="Ultralight-M" transform="matrix(1 0 0 1 504.711 1126)">
   <path class="hierarchical-0:secondary SFSymbolsPreview4D4D4D" d="M9.43-35.23C9.43-60.49 29.902-80.96 55.155-80.96C80.409-80.96 100.88-60.49 100.88-35.23C100.88-9.98 80.409 10.49 55.155 10.49C29.902 10.49 9.43-9.98 9.43-35.23ZM55.155-78.76C31.117-78.76 11.63-59.27 11.63-35.23C11.63-11.19 31.117 8.29 55.155 8.29C79.194 8.29 98.68-11.19 98.68-35.23C98.68-59.27 79.194-78.76 55.155-78.76Z"/>
   <path class="hierarchical-1:primary SFSymbolsPreview212121" d="M36.205-35.23C36.205-35.84 36.697-36.33 37.305-36.33L73.005-36.33C73.612-36.33 74.105-35.84 74.105-35.23C74.105-34.62 73.612-34.13 73.005-34.13L37.305-34.13C36.697-34.13 36.205-34.62 36.205-35.23ZM57.117-53.08C57.117-52 56.238-51.12 55.155-51.12C54.071-51.12 53.192-52 53.192-53.08C53.192-54.16 54.071-55.04 55.155-55.04C56.238-55.04 57.117-54.16 57.117-53.08ZM57.117-17.38C57.117-16.3 56.238-15.42 55.155-15.42C54.071-15.42 53.192-16.3 53.192-17.38C53.192-18.47 54.071-19.34 55.155-19.34C56.238-19.34 57.117-18.47 57.117-17.38Z"/>
  </g>
  <g id="Black-S" transform="matrix(1 0 0 1 2882.03 696)">
   <path class="hierarchical-0:secondary SFSymbolsPreview4D4D4D" d="M9.43-35.334C9.43-58.585 28.28-77.434 51.53-77.434C74.78-77.434 93.63-58.585 93.63-35.334C93.63-12.082 74.78 6.766 51.53 6.766C28.28 6.766 9.43-12.082 9.43-35.334ZM51.53-63.234C36.12-63.234 23.63-50.742 23.63-35.334C23.63-19.925 36.12-7.434 51.53-7.434C66.94-7.434 79.43-19.925 79.43-35.334C79.43-50.742 66.94-63.234 51.53-63.234Z"/>
   <path class="hierarchical-1:primary SFSymbolsPreview212121" d="M30.43-35.334C30.43-39.255 33.61-42.434 37.53-42.434L65.53-42.434C69.45-42.434 72.63-39.255 72.63-35.334C72.63-31.412 69.45-28.234 65.53-28.234L37.53-28.234C33.61-28.234 30.43-31.412 30.43-35.334ZM51.53-45.332C54.84-45.332 57.53-48.018 57.53-51.332C57.53-54.646 54.84-57.332 51.53-57.332C48.22-57.332 45.53-54.646 45.53-51.332C45.53-48.018 48.22-45.332 51.53-45.332ZM51.53-13.332C54.84-13.332 57.53-16.018 57.53-19.332C57.53-22.646 54.84-25.332 51.53-25.332C48.22-25.332 45.53-22.646 45.53-19.332C45.53-16.018 48.22-13.332 51.53-13.332Z"/>
  </g>
  <g id="Heavy-S" transform="matrix(1 0 0 1 2586.16 696)">
   <path class="hierarchical-0:secondary SFSymbolsPreview4D4D4D" d="M9.43-35.332C9.43-58.114 27.9-76.582 50.68-76.582C73.46-76.582 91.93-58.114 91.93-35.332C91.93-12.55 73.46 5.918 50.68 5.918C27.9 5.918 9.43-12.55 9.43-35.332ZM50.68-64.082C34.8-64.082 21.93-51.21 21.93-35.332C21.93-19.454 34.8-6.582 50.68-6.582C66.56-6.582 79.43-19.454 79.43-35.332C79.43-51.21 66.56-64.082 50.68-64.082Z"/>
   <path class="hierarchical-1:primary SFSymbolsPreview212121" d="M30.43-35.332C30.43-38.784 33.23-41.582 36.68-41.582L64.68-41.582C68.13-41.582 70.93-38.784 70.93-35.332C70.93-31.88 68.13-29.082 64.68-29.082L36.68-29.082C33.23-29.082 30.43-31.88 30.43-35.332ZM50.68-44.832C54.27-44.832 57.18-47.742 57.18-51.332C57.18-54.922 54.27-57.832 50.68-57.832C47.09-57.832 44.18-54.922 44.18-51.332C44.18-47.742 47.09-44.832 50.68-44.832ZM50.68-12.832C54.27-12.832 57.18-15.742 57.18-19.332C57.18-22.922 54.27-25.832 50.68-25.832C47.09-25.832 44.18-22.922 44.18-19.332C44.18-15.742 47.09-12.832 50.68-12.832Z"/>
  </g>
  <g id="Bold-S" transform="matrix(1 0 0 1 2290.4 696)">
   <path class="hierarchical-0:secondary SFSymbolsPreview4D4D4D" d="M9.43-35.126C9.43-57.383 27.48-75.426 49.73-75.426C71.99-75.426 90.03-57.383 90.03-35.126C90.03-12.869 71.99 5.174 49.73 5.174C27.48 5.174 9.43-12.869 9.43-35.126ZM49.73-64.826C33.33-64.826 20.03-51.529 20.03-35.126C20.03-18.723 33.33-5.426 49.73-5.426C66.14-5.426 79.43-18.723 79.43-35.126C79.43-51.529 66.14-64.826 49.73-64.826Z"/>
   <path class="hierarchical-1:primary SFSymbolsPreview212121" d="M30.43-35.126C30.43-38.053 32.81-40.426 35.73-40.426L63.73-40.426C66.66-40.426 69.03-38.053 69.03-35.126C69.03-32.199 66.66-29.826 63.73-29.826L35.73-29.826C32.81-29.826 30.43-32.199 30.43-35.126ZM49.73-44.629C52.77-44.629 55.23-47.091 55.23-50.129C55.23-53.166 52.77-55.629 49.73-55.629C46.7-55.629 44.23-53.166 44.23-50.129C44.23-47.091 46.7-44.629 49.73-44.629ZM49.73-14.629C52.77-14.629 55.23-17.091 55.23-20.129C55.23-23.166 52.77-25.629 49.73-25.629C46.7-25.629 44.23-23.166 44.23-20.129C44.23-17.091 46.7-14.629 49.73-14.629Z"/>
  </g>
  <g id="Semibold-S" transform="matrix(1 0 0 1 1994.34 696)">
   <path class="hierarchical-0:secondary SFSymbolsPreview4D4D4D" d="M9.43-35.123C9.43-57.022 27.18-74.773 49.08-74.773C70.98-74.773 88.73-57.022 88.73-35.123C88.73-13.225 70.98 4.527 49.08 4.527C27.18 4.527 9.43-13.225 9.43-35.123ZM49.08-65.473C32.32-65.473 18.73-51.885 18.73-35.123C18.73-18.362 32.32-4.773 49.08-4.773C65.84-4.773 79.43-18.362 79.43-35.123C79.43-51.885 65.84-65.473 49.08-65.473Z"/>
   <path class="hierarchical-1:primary SFSymbolsPreview212121" d="M30.43-35.123C30.43-37.692 32.51-39.773 35.08-39.773L63.08-39.773C65.65-39.773 67.73-37.692 67.73-35.123C67.73-32.555 65.65-30.473 63.08-30.473L35.08-30.473C32.51-30.473 30.43-32.555 30.43-35.123ZM49.08-44.629C51.57-44.629 53.58-46.644 53.58-49.129C53.58-51.614 51.57-53.629 49.08-53.629C46.59-53.629 44.58-51.614 44.58-49.129C44.58-46.644 46.59-44.629 49.08-44.629ZM49.08-16.629C51.57-16.629 53.58-18.644 53.58-21.129C53.58-23.614 51.57-25.629 49.08-25.629C46.59-25.629 44.58-23.614 44.58-21.129C44.58-18.644 46.59-16.629 49.08-16.629Z"/>
  </g>
  <g id="Medium-S" transform="matrix(1 0 0 1 1698.13 696)">
   <path class="hierarchical-0:secondary SFSymbolsPreview4D4D4D" d="M9.43-35.123C9.43-56.745 26.96-74.273 48.58-74.273C70.2-74.273 87.73-56.745 87.73-35.123C87.73-13.501 70.2 4.027 48.58 4.027C26.96 4.027 9.43-13.501 9.43-35.123ZM48.58-65.973C31.54-65.973 17.73-52.161 17.73-35.123C17.73-18.085 31.54-4.273 48.58-4.273C65.62-4.273 79.43-18.085 79.43-35.123C79.43-52.161 65.62-65.973 48.58-65.973Z"/>
   <path class="hierarchical-1:primary SFSymbolsPreview212121" d="M30.43-35.123C30.43-37.415 32.29-39.273 34.58-39.273L62.58-39.273C64.87-39.273 66.73-37.415 66.73-35.123C66.73-32.831 64.87-30.973 62.58-30.973L34.58-30.973C32.29-30.973 30.43-32.831 30.43-35.123ZM48.58-44.629C51.07-44.629 53.08-46.644 53.08-49.129C53.08-51.614 51.07-53.629 48.58-53.629C46.09-53.629 44.08-51.614 44.08-49.129C44.08-46.644 46.09-44.629 48.58-44.629ZM48.58-16.629C51.07-16.629 53.08-18.644 53.08-21.129C53.08-23.614 51.07-25.629 48.58-25.629C46.09-25.629 44.08-23.614 44.08-21.129C44.08-18.644 46.09-16.629 48.58-16.629Z"/>
  </g>
  <g id="Regular-S" transform="matrix(1 0 0 1 1402.07 696)">
   <path class="hierarchical-0:secondary SFSymbolsPreview4D4D4D" d="M9.43-35.125C9.43-56.388 26.67-73.625 47.93-73.625C69.19-73.625 86.43-56.388 86.43-35.125C86.43-13.862 69.19 3.375 47.93 3.375C26.67 3.375 9.43-13.862 9.43-35.125ZM47.93-66.625C30.53-66.625 16.43-52.522 16.43-35.125C16.43-17.728 30.53-3.625 47.93-3.625C65.33-3.625 79.43-17.728 79.43-35.125C79.43-52.522 65.33-66.625 47.93-66.625Z"/>
   <path class="hierarchical-1:primary SFSymbolsPreview212121" d="M30.43-35.125C30.43-37.058 32-38.625 33.93-38.625L61.93-38.625C63.86-38.625 65.43-37.058 65.43-35.125C65.43-33.192 63.86-31.625 61.93-31.625L33.93-31.625C32-31.625 30.43-33.192 30.43-35.125ZM47.93-44.629C50.42-44.629 52.43-46.644 52.43-49.129C52.43-51.614 50.42-53.629 47.93-53.629C45.44-53.629 43.43-51.614 43.43-49.129C43.43-46.644 45.44-44.629 47.93-44.629ZM47.93-16.629C50.42-16.629 52.43-18.644 52.43-21.129C52.43-23.614 50.42-25.629 47.93-25.629C45.44-25.629 43.43-23.614 43.43-21.129C43.43-18.644 45.44-16.629 47.93-16.629Z"/>
  </g>
  <g id="Light-S" transform="matrix(1 0 0 1 1106.16 696)">
   <path class="hierarchical-0:secondary SFSymbolsPreview4D4D4D" d="M9.43-35.124C9.43-55.945 26.31-72.824 47.13-72.824C67.95-72.824 84.83-55.945 84.83-35.124C84.83-14.303 67.95 2.576 47.13 2.576C26.31 2.576 9.43-14.303 9.43-35.124ZM47.13-67.424C29.29-67.424 14.83-52.963 14.83-35.124C14.83-17.285 29.29-2.824 47.13-2.824C64.97-2.824 79.43-17.285 79.43-35.124C79.43-52.963 64.97-67.424 47.13-67.424Z"/>
   <path class="hierarchical-1:primary SFSymbolsPreview212121" d="M30.43-35.124C30.43-36.615 31.64-37.824 33.13-37.824L61.13-37.824C62.62-37.824 63.83-36.615 63.83-35.124C63.83-33.633 62.62-32.424 61.13-32.424L33.13-32.424C31.64-32.424 30.43-33.633 30.43-35.124ZM50.63-49.125C50.63-47.192 49.063-45.625 47.13-45.625C45.197-45.625 43.63-47.192 43.63-49.125C43.63-51.058 45.197-52.625 47.13-52.625C49.063-52.625 50.63-51.058 50.63-49.125ZM50.63-21.125C50.63-19.192 49.063-17.625 47.13-17.625C45.197-17.625 43.63-19.192 43.63-21.125C43.63-23.058 45.197-24.625 47.13-24.625C49.063-24.625 50.63-23.058 50.63-21.125Z"/>
  </g>
  <g id="Thin-S" transform="matrix(1 0 0 1 810.497 696)">
   <path class="hierarchical-0:secondary SFSymbolsPreview4D4D4D" d="M9.43-35.123C9.43-55.365 25.838-71.773 46.08-71.773C66.321-71.773 82.73-55.365 82.73-35.123C82.73-14.882 66.321 1.527 46.08 1.527C25.838 1.527 9.43-14.882 9.43-35.123ZM46.08-68.473C27.661-68.473 12.73-53.542 12.73-35.123C12.73-16.705 27.661-1.773 46.08-1.773C64.498-1.773 79.43-16.705 79.43-35.123C79.43-53.542 64.498-68.473 46.08-68.473Z"/>
   <path class="hierarchical-1:primary SFSymbolsPreview212121" d="M30.43-35.123C30.43-36.035 31.168-36.773 32.08-36.773L60.08-36.773C60.991-36.773 61.73-36.035 61.73-35.123C61.73-34.212 60.991-33.473 60.08-33.473L32.08-33.473C31.168-33.473 30.43-34.212 30.43-35.123ZM49.58-49.125C49.58-47.192 48.013-45.625 46.08-45.625C44.147-45.625 42.58-47.192 42.58-49.125C42.58-51.058 44.147-52.625 46.08-52.625C48.013-52.625 49.58-51.058 49.58-49.125ZM49.58-21.125C49.58-19.192 48.013-17.625 46.08-17.625C44.147-17.625 42.58-19.192 42.58-21.125C42.58-23.058 44.147-24.625 46.08-24.625C48.013-24.625 49.58-23.058 49.58-21.125Z"/>
  </g>
  <g id="Ultralight-S" transform="matrix(1 0 0 1 514.336 696)">
   <path class="hierarchical-0:secondary SFSymbolsPreview4D4D4D" d="M9.43-35.127C9.43-55.064 25.593-71.227 45.53-71.227C65.468-71.227 81.63-55.064 81.63-35.127C81.63-15.189 65.468 0.973 45.53 0.973C25.593 0.973 9.43-15.189 9.43-35.127ZM45.53-69.027C26.808-69.027 11.63-53.849 11.63-35.127C11.63-16.404 26.808-1.227 45.53-1.227C64.253-1.227 79.43-16.404 79.43-35.127C79.43-53.849 64.253-69.027 45.53-69.027Z"/>
   <path class="hierarchical-1:primary SFSymbolsPreview212121" d="M30.43-35.127C30.43-35.734 30.923-36.227 31.53-36.227L59.53-36.227C60.138-36.227 60.63-35.734 60.63-35.127C60.63-34.519 60.138-34.027 59.53-34.027L31.53-34.027C30.923-34.027 30.43-34.519 30.43-35.127ZM47.53-49.129C47.53-48.024 46.635-47.129 45.53-47.129C44.425-47.129 43.53-48.024 43.53-49.129C43.53-50.233 44.425-51.129 45.53-51.129C46.635-51.129 47.53-50.233 47.53-49.129ZM47.53-21.129C47.53-20.024 46.635-19.129 45.53-19.129C44.425-19.129 43.53-20.024 43.53-21.129C43.53-22.233 44.425-23.129 45.53-23.129C46.635-23.129 47.53-22.233 47.53-21.129Z"/>
  </g>
 </g>
</svg>
