<?xml version="1.0" encoding="UTF-8"?>
<!--Generator: Apple Native CoreSVG 175-->
<!DOCTYPE svg
PUBLIC "-//W3C//DTD SVG 1.1//EN"
       "http://www.w3.org/Graphics/SVG/1.1/DTD/svg11.dtd">
<svg version="1.1" xmlns="http://www.w3.org/2000/svg" xmlns:xlink="http://www.w3.org/1999/xlink" width="3300" height="2200">
 <!--glyph: "", point size: 100.0, font version: "17.0d12e1", template writer version: "65.1"-->
 <style>.hierarchical-0:secondary {fill:#4D4D4D}
.hierarchical-1:primary {fill:#212121}

.SFSymbolsPreview212121 {fill:#212121;opacity:1.0}
.SFSymbolsPreview4D4D4D {fill:#4D4D4D;opacity:1.0}
</style>
 <g id="Notes">
  <rect height="2200" id="artboard" style="fill:white;opacity:1" width="3300" x="0" y="0"/>
  <line style="fill:none;stroke:black;opacity:1;stroke-width:0.5;" x1="263" x2="3036" y1="292" y2="292"/>
  <text style="stroke:none;fill:black;font-family:sans-serif;font-size:13;font-weight:bold;" transform="matrix(1 0 0 1 263 322)">Weight/Scale Variations</text>
  <text style="stroke:none;fill:black;font-family:sans-serif;font-size:13;text-anchor:middle;" transform="matrix(1 0 0 1 559.711 322)">Ultralight</text>
  <text style="stroke:none;fill:black;font-family:sans-serif;font-size:13;text-anchor:middle;" transform="matrix(1 0 0 1 856.422 322)">Thin</text>
  <text style="stroke:none;fill:black;font-family:sans-serif;font-size:13;text-anchor:middle;" transform="matrix(1 0 0 1 1153.13 322)">Light</text>
  <text style="stroke:none;fill:black;font-family:sans-serif;font-size:13;text-anchor:middle;" transform="matrix(1 0 0 1 1449.84 322)">Regular</text>
  <text style="stroke:none;fill:black;font-family:sans-serif;font-size:13;text-anchor:middle;" transform="matrix(1 0 0 1 1746.56 322)">Medium</text>
  <text style="stroke:none;fill:black;font-family:sans-serif;font-size:13;text-anchor:middle;" transform="matrix(1 0 0 1 2043.27 322)">Semibold</text>
  <text style="stroke:none;fill:black;font-family:sans-serif;font-size:13;text-anchor:middle;" transform="matrix(1 0 0 1 2339.98 322)">Bold</text>
  <text style="stroke:none;fill:black;font-family:sans-serif;font-size:13;text-anchor:middle;" transform="matrix(1 0 0 1 2636.69 322)">Heavy</text>
  <text style="stroke:none;fill:black;font-family:sans-serif;font-size:13;text-anchor:middle;" transform="matrix(1 0 0 1 2933.4 322)">Black</text>
  <line style="fill:none;stroke:black;opacity:1;stroke-width:0.5;" x1="263" x2="3036" y1="1903" y2="1903"/>
  <g transform="matrix(1 0 0 1 263 1933)">
   <path d="M9.24805 0.830078Q10.8691 0.830078 12.2949 0.214844Q13.7207-0.400391 14.8096-1.49414Q15.8984-2.58789 16.5186-4.01367Q17.1387-5.43945 17.1387-7.05078Q17.1387-8.66211 16.5186-10.0879Q15.8984-11.5137 14.8047-12.6074Q13.7109-13.7012 12.2852-14.3164Q10.8594-14.9316 9.23828-14.9316Q7.62695-14.9316 6.20117-14.3164Q4.77539-13.7012 3.69141-12.6074Q2.60742-11.5137 1.9873-10.0879Q1.36719-8.66211 1.36719-7.05078Q1.36719-5.43945 1.9873-4.01367Q2.60742-2.58789 3.69629-1.49414Q4.78516-0.400391 6.21094 0.214844Q7.63672 0.830078 9.24805 0.830078ZM9.24805-0.654297Q7.91992-0.654297 6.7627-1.14746Q5.60547-1.64062 4.73145-2.51953Q3.85742-3.39844 3.36426-4.56055Q2.87109-5.72266 2.87109-7.05078Q2.87109-8.37891 3.35938-9.54102Q3.84766-10.7031 4.72168-11.582Q5.5957-12.4609 6.75293-12.9541Q7.91016-13.4473 9.23828-13.4473Q10.5762-13.4473 11.7334-12.9541Q12.8906-12.4609 13.7695-11.582Q14.6484-10.7031 15.1465-9.54102Q15.6445-8.37891 15.6445-7.05078Q15.6445-5.72266 15.1514-4.56055Q14.6582-3.39844 13.7842-2.51953Q12.9102-1.64062 11.748-1.14746Q10.5859-0.654297 9.24805-0.654297ZM5.6543-7.05078Q5.6543-6.72852 5.85938-6.52832Q6.06445-6.32812 6.40625-6.32812L8.51562-6.32812L8.51562-4.20898Q8.51562-3.88672 8.71094-3.67676Q8.90625-3.4668 9.23828-3.4668Q9.56055-3.4668 9.77051-3.67676Q9.98047-3.88672 9.98047-4.20898L9.98047-6.32812L12.0898-6.32812Q12.4219-6.32812 12.627-6.52832Q12.832-6.72852 12.832-7.05078Q12.832-7.38281 12.627-7.58789Q12.4219-7.79297 12.0898-7.79297L9.98047-7.79297L9.98047-9.90234Q9.98047-10.2344 9.77051-10.4443Q9.56055-10.6543 9.23828-10.6543Q8.90625-10.6543 8.71094-10.4443Q8.51562-10.2344 8.51562-9.90234L8.51562-7.79297L6.40625-7.79297Q6.06445-7.79297 5.85938-7.58789Q5.6543-7.38281 5.6543-7.05078Z"/>
  </g>
  <g transform="matrix(1 0 0 1 281.867 1933)">
   <path d="M11.709 2.91016Q13.75 2.91016 15.5518 2.12891Q17.3535 1.34766 18.7305-0.0292969Q20.1074-1.40625 20.8887-3.20801Q21.6699-5.00977 21.6699-7.05078Q21.6699-9.0918 20.8887-10.8936Q20.1074-12.6953 18.7305-14.0723Q17.3535-15.4492 15.5469-16.2305Q13.7402-17.0117 11.6992-17.0117Q9.6582-17.0117 7.85645-16.2305Q6.05469-15.4492 4.68262-14.0723Q3.31055-12.6953 2.5293-10.8936Q1.74805-9.0918 1.74805-7.05078Q1.74805-5.00977 2.5293-3.20801Q3.31055-1.40625 4.6875-0.0292969Q6.06445 1.34766 7.86621 2.12891Q9.66797 2.91016 11.709 2.91016ZM11.709 1.25Q9.98047 1.25 8.47656 0.605469Q6.97266-0.0390625 5.83496-1.17676Q4.69727-2.31445 4.05762-3.81836Q3.41797-5.32227 3.41797-7.05078Q3.41797-8.7793 4.05762-10.2832Q4.69727-11.7871 5.83008-12.9297Q6.96289-14.0723 8.4668-14.7119Q9.9707-15.3516 11.6992-15.3516Q13.4277-15.3516 14.9316-14.7119Q16.4355-14.0723 17.5781-12.9297Q18.7207-11.7871 19.3652-10.2832Q20.0098-8.7793 20.0098-7.05078Q20.0098-5.32227 19.3701-3.81836Q18.7305-2.31445 17.5928-1.17676Q16.4551-0.0390625 14.9463 0.605469Q13.4375 1.25 11.709 1.25ZM7.17773-7.05078Q7.17773-6.69922 7.41211-6.47461Q7.64648-6.25 8.01758-6.25L10.8887-6.25L10.8887-3.36914Q10.8887-2.99805 11.1133-2.76855Q11.3379-2.53906 11.6895-2.53906Q12.0605-2.53906 12.29-2.76855Q12.5195-2.99805 12.5195-3.36914L12.5195-6.25L15.4004-6.25Q15.7715-6.25 16.001-6.47461Q16.2305-6.69922 16.2305-7.05078Q16.2305-7.42188 16.001-7.65137Q15.7715-7.88086 15.4004-7.88086L12.5195-7.88086L12.5195-10.752Q12.5195-11.1328 12.29-11.3623Q12.0605-11.5918 11.6895-11.5918Q11.3379-11.5918 11.1133-11.3574Q10.8887-11.123 10.8887-10.752L10.8887-7.88086L8.01758-7.88086Q7.63672-7.88086 7.40723-7.65137Q7.17773-7.42188 7.17773-7.05078Z"/>
  </g>
  <g transform="matrix(1 0 0 1 305.646 1933)">
   <path d="M14.9707 5.66406Q17.0605 5.66406 18.96 5.01465Q20.8594 4.36523 22.4512 3.19336Q24.043 2.02148 25.2197 0.429688Q26.3965-1.16211 27.0459-3.06641Q27.6953-4.9707 27.6953-7.05078Q27.6953-9.14062 27.0459-11.04Q26.3965-12.9395 25.2197-14.5312Q24.043-16.123 22.4512-17.2998Q20.8594-18.4766 18.9551-19.126Q17.0508-19.7754 14.9609-19.7754Q12.8711-19.7754 10.9717-19.126Q9.07227-18.4766 7.48535-17.2998Q5.89844-16.123 4.72168-14.5312Q3.54492-12.9395 2.90039-11.04Q2.25586-9.14062 2.25586-7.05078Q2.25586-4.9707 2.90527-3.06641Q3.55469-1.16211 4.72656 0.429688Q5.89844 2.02148 7.49023 3.19336Q9.08203 4.36523 10.9814 5.01465Q12.8809 5.66406 14.9707 5.66406ZM14.9707 3.84766Q13.1641 3.84766 11.5283 3.2959Q9.89258 2.74414 8.53516 1.74805Q7.17773 0.751953 6.17676-0.610352Q5.17578-1.97266 4.62891-3.6084Q4.08203-5.24414 4.08203-7.05078Q4.08203-8.86719 4.62891-10.5029Q5.17578-12.1387 6.17188-13.501Q7.16797-14.8633 8.52539-15.8594Q9.88281-16.8555 11.5186-17.4023Q13.1543-17.9492 14.9609-17.9492Q16.7773-17.9492 18.4131-17.4023Q20.0488-16.8555 21.4111-15.8594Q22.7734-14.8633 23.7695-13.501Q24.7656-12.1387 25.3174-10.5029Q25.8691-8.86719 25.8691-7.05078Q25.8789-5.24414 25.332-3.6084Q24.7852-1.97266 23.7842-0.610352Q22.7832 0.751953 21.4209 1.74805Q20.0586 2.74414 18.4229 3.2959Q16.7871 3.84766 14.9707 3.84766ZM9.19922-7.05078Q9.19922-6.66992 9.45801-6.4209Q9.7168-6.17188 10.1172-6.17188L14.0625-6.17188L14.0625-2.2168Q14.0625-1.81641 14.3115-1.55762Q14.5605-1.29883 14.9512-1.29883Q15.3516-1.29883 15.6104-1.55273Q15.8691-1.80664 15.8691-2.2168L15.8691-6.17188L19.8242-6.17188Q20.2246-6.17188 20.4785-6.4209Q20.7324-6.66992 20.7324-7.05078Q20.7324-7.46094 20.4785-7.71484Q20.2246-7.96875 19.8242-7.96875L15.8691-7.96875L15.8691-11.9141Q15.8691-12.3242 15.6104-12.583Q15.3516-12.8418 14.9512-12.8418Q14.5605-12.8418 14.3115-12.583Q14.0625-12.3242 14.0625-11.9141L14.0625-7.96875L10.1172-7.96875Q9.70703-7.96875 9.45312-7.71484Q9.19922-7.46094 9.19922-7.05078Z"/>
  </g>
  <text style="stroke:none;fill:black;font-family:sans-serif;font-size:13;font-weight:bold;" transform="matrix(1 0 0 1 263 1953)">Design Variations</text>
  <text style="stroke:none;fill:black;font-family:sans-serif;font-size:13;" transform="matrix(1 0 0 1 263 1971)">Symbols are supported in up to nine weights and three scales.</text>
  <text style="stroke:none;fill:black;font-family:sans-serif;font-size:13;" transform="matrix(1 0 0 1 263 1989)">For optimal layout with text and other symbols, vertically align</text>
  <text style="stroke:none;fill:black;font-family:sans-serif;font-size:13;" transform="matrix(1 0 0 1 263 2007)">symbols with the adjacent text.</text>
  <line style="fill:none;stroke:#00AEEF;stroke-width:0.5;opacity:1.0;" x1="776" x2="776" y1="1919" y2="1933"/>
  <g transform="matrix(1 0 0 1 776 1933)">
   <path d="M3.31055 0.15625Q3.70117 0.15625 3.91602-0.00976562Q4.13086-0.175781 4.26758-0.585938L5.52734-4.0332L11.2891-4.0332L12.5488-0.585938Q12.6855-0.175781 12.9004-0.00976562Q13.1152 0.15625 13.4961 0.15625Q13.8867 0.15625 14.1162-0.0585938Q14.3457-0.273438 14.3457-0.644531Q14.3457-0.869141 14.2383-1.17188L9.6582-13.3691Q9.48242-13.8184 9.17969-14.043Q8.87695-14.2676 8.4082-14.2676Q7.5-14.2676 7.17773-13.3789L2.59766-1.16211Q2.49023-0.859375 2.49023-0.634766Q2.49023-0.263672 2.70996-0.0537109Q2.92969 0.15625 3.31055 0.15625ZM6.00586-5.51758L8.37891-12.0898L8.42773-12.0898L10.8008-5.51758Z"/>
  </g>
  <line style="fill:none;stroke:#00AEEF;stroke-width:0.5;opacity:1.0;" x1="793.197" x2="793.197" y1="1919" y2="1933"/>
  <text style="stroke:none;fill:black;font-family:sans-serif;font-size:13;font-weight:bold;" transform="matrix(1 0 0 1 776 1953)">Margins</text>
  <text style="stroke:none;fill:black;font-family:sans-serif;font-size:13;" transform="matrix(1 0 0 1 776 1971)">Leading and trailing margins on the left and right side of each symbol</text>
  <text style="stroke:none;fill:black;font-family:sans-serif;font-size:13;" transform="matrix(1 0 0 1 776 1989)">can be adjusted by modifying the x-location of the margin guidelines.</text>
  <text style="stroke:none;fill:black;font-family:sans-serif;font-size:13;" transform="matrix(1 0 0 1 776 2007)">Modifications are automatically applied proportionally to all</text>
  <text style="stroke:none;fill:black;font-family:sans-serif;font-size:13;" transform="matrix(1 0 0 1 776 2025)">scales and weights.</text>
  <g transform="matrix(1 0 0 1 1289 1933)">
   <path d="M2.8418 1.86523L4.54102 3.57422Q5.18555 4.22852 5.90332 4.17969Q6.62109 4.13086 7.31445 3.35938L18.0078-8.42773L17.041-9.4043L6.42578 2.27539Q6.16211 2.57812 5.89355 2.61719Q5.625 2.65625 5.27344 2.30469L4.10156 1.14258Q3.75 0.791016 3.79395 0.522461Q3.83789 0.253906 4.14062-0.0195312L15.6152-10.8203L14.6387-11.7871L3.04688-0.898438Q2.30469-0.214844 2.25098 0.498047Q2.19727 1.21094 2.8418 1.86523ZM9.25781-16.3281Q8.94531-16.0254 8.90625-15.6348Q8.86719-15.2441 9.04297-14.9512Q9.21875-14.6777 9.55566-14.541Q9.89258-14.4043 10.3809-14.5215Q11.4746-14.7754 12.5977-14.7314Q13.7207-14.6875 14.7949-13.9844L14.209-12.5293Q13.9551-11.9043 14.0674-11.4404Q14.1797-10.9766 14.5801-10.5664L16.875-8.25195Q17.2363-7.88086 17.5781-7.82227Q17.9199-7.76367 18.3398-7.8418L19.4043-8.03711L20.0684-7.36328L20.0293-6.80664Q20-6.43555 20.1221-6.12305Q20.2441-5.81055 20.6055-5.44922L21.3672-4.70703Q21.7285-4.3457 22.1533-4.33105Q22.5781-4.31641 22.9297-4.66797L25.8398-7.58789Q26.1914-7.93945 26.1816-8.35449Q26.1719-8.76953 25.8105-9.13086L25.0391-9.89258Q24.6875-10.2539 24.3799-10.3857Q24.0723-10.5176 23.7109-10.4883L23.1348-10.4395L22.4902-11.0742L22.7344-12.1973Q22.832-12.6172 22.6953-12.9834Q22.5586-13.3496 22.1191-13.7891L19.9219-15.9766Q18.6719-17.2168 17.2607-17.8369Q15.8496-18.457 14.4189-18.4814Q12.9883-18.5059 11.665-17.959Q10.3418-17.4121 9.25781-16.3281ZM10.752-15.957Q11.6602-16.6211 12.7002-16.9043Q13.7402-17.1875 14.8047-17.085Q15.8691-16.9824 16.8701-16.5137Q17.8711-16.0449 18.7012-15.2051L21.1328-12.793Q21.3086-12.6172 21.3525-12.4512Q21.3965-12.2852 21.3379-12.0312L21.0156-10.5469L22.5195-9.0625L23.5059-9.12109Q23.6914-9.13086 23.7891-9.09668Q23.8867-9.0625 24.0332-8.91602L24.6094-8.33984L22.168-5.89844L21.5918-6.47461Q21.4453-6.62109 21.4062-6.71875Q21.3672-6.81641 21.377-7.01172L21.4453-7.98828L19.9512-9.47266L18.4277-9.21875Q18.1836-9.16992 18.042-9.2041Q17.9004-9.23828 17.7148-9.41406L15.7129-11.416Q15.5176-11.5918 15.4932-11.7529Q15.4688-11.9141 15.5859-12.1875L16.4648-14.2773Q15.293-15.3711 13.8281-15.791Q12.3633-16.2109 10.8398-15.7617Q10.7227-15.7324 10.6885-15.8057Q10.6543-15.8789 10.752-15.957Z"/>
  </g>
  <text style="stroke:none;fill:black;font-family:sans-serif;font-size:13;font-weight:bold;" transform="matrix(1 0 0 1 1289 1953)">Exporting</text>
  <text style="stroke:none;fill:black;font-family:sans-serif;font-size:13;" transform="matrix(1 0 0 1 1289 1971)">Symbols should be outlined when exporting to ensure the</text>
  <text style="stroke:none;fill:black;font-family:sans-serif;font-size:13;" transform="matrix(1 0 0 1 1289 1989)">design is preserved when submitting to Xcode.</text>
  <text id="template-version" style="stroke:none;fill:black;font-family:sans-serif;font-size:13;text-anchor:end;" transform="matrix(1 0 0 1 3036 1933)">Template v.3.0</text>
  <text style="stroke:none;fill:black;font-family:sans-serif;font-size:13;text-anchor:end;" transform="matrix(1 0 0 1 3036 1951)">Requires Xcode 13 or greater</text>
  <text id="descriptive-name" style="stroke:none;fill:black;font-family:sans-serif;font-size:13;text-anchor:end;" transform="matrix(1 0 0 1 3036 1969)">Generated from battery-charging</text>
  <text style="stroke:none;fill:black;font-family:sans-serif;font-size:13;text-anchor:end;" transform="matrix(1 0 0 1 3036 1987)">Typeset at 100 points</text>
  <text style="stroke:none;fill:black;font-family:sans-serif;font-size:13;" transform="matrix(1 0 0 1 263 726)">Small</text>
  <text style="stroke:none;fill:black;font-family:sans-serif;font-size:13;" transform="matrix(1 0 0 1 263 1156)">Medium</text>
  <text style="stroke:none;fill:black;font-family:sans-serif;font-size:13;" transform="matrix(1 0 0 1 263 1586)">Large</text>
 </g>
 <g id="Guides">
  <g id="H-reference" style="fill:#27AAE1;stroke:none;" transform="matrix(1 0 0 1 339 696)">
   <path d="M0.976562 0L3.66211 0L29.3457-67.1387L30.0293-67.1387L30.0293-70.459L28.125-70.459ZM11.6699-24.4629L46.9727-24.4629L46.2402-26.709L12.4512-26.709ZM55.127 0L57.7637 0L30.6152-70.459L29.4434-70.459L29.4434-67.1387Z"/>
  </g>
  <line id="Baseline-S" style="fill:none;stroke:#27AAE1;opacity:1;stroke-width:0.5;" x1="263" x2="3036" y1="696" y2="696"/>
  <line id="Capline-S" style="fill:none;stroke:#27AAE1;opacity:1;stroke-width:0.5;" x1="263" x2="3036" y1="625.541" y2="625.541"/>
  <g id="H-reference" style="fill:#27AAE1;stroke:none;" transform="matrix(1 0 0 1 339 1126)">
   <path d="M0.976562 0L3.66211 0L29.3457-67.1387L30.0293-67.1387L30.0293-70.459L28.125-70.459ZM11.6699-24.4629L46.9727-24.4629L46.2402-26.709L12.4512-26.709ZM55.127 0L57.7637 0L30.6152-70.459L29.4434-70.459L29.4434-67.1387Z"/>
  </g>
  <line id="Baseline-M" style="fill:none;stroke:#27AAE1;opacity:1;stroke-width:0.5;" x1="263" x2="3036" y1="1126" y2="1126"/>
  <line id="Capline-M" style="fill:none;stroke:#27AAE1;opacity:1;stroke-width:0.5;" x1="263" x2="3036" y1="1055.54" y2="1055.54"/>
  <g id="H-reference" style="fill:#27AAE1;stroke:none;" transform="matrix(1 0 0 1 339 1556)">
   <path d="M0.976562 0L3.66211 0L29.3457-67.1387L30.0293-67.1387L30.0293-70.459L28.125-70.459ZM11.6699-24.4629L46.9727-24.4629L46.2402-26.709L12.4512-26.709ZM55.127 0L57.7637 0L30.6152-70.459L29.4434-70.459L29.4434-67.1387Z"/>
  </g>
  <line id="Baseline-L" style="fill:none;stroke:#27AAE1;opacity:1;stroke-width:0.5;" x1="263" x2="3036" y1="1556" y2="1556"/>
  <line id="Capline-L" style="fill:none;stroke:#27AAE1;opacity:1;stroke-width:0.5;" x1="263" x2="3036" y1="1485.54" y2="1485.54"/>
  <line id="left-margin-Regular-M" style="fill:none;stroke:#00AEEF;stroke-width:0.5;opacity:1.0;" x1="1392.45" x2="1392.45" y1="1030.78" y2="1150.12"/>
  <line id="right-margin-Regular-M" style="fill:none;stroke:#00AEEF;stroke-width:0.5;opacity:1.0;" x1="1507.24" x2="1507.24" y1="1030.78" y2="1150.12"/>
 </g>
 <g id="Symbols">
  <g id="Black-L" transform="matrix(1 0 0 1 2858.94 1556)">
   <path class="hierarchical-0:secondary SFSymbolsPreview4D4D4D" d="M72.87-77.226C76.13-75.056 77.02-70.646 74.84-67.386L59.45-44.296L80.31-44.296C82.93-44.296 85.33-42.856 86.57-40.546C87.8-38.236 87.67-35.436 86.22-33.256L63.47 0.86402C61.29 4.13402 56.88 5.01402 53.62 2.83402C50.36 0.66402 49.48-3.74598 51.65-7.00598L67.04-30.096L46.18-30.096C43.56-30.096 41.16-31.536 39.92-33.846C38.69-36.156 38.82-38.956 40.28-41.136L63.03-75.256C65.2-78.526 69.61-79.406 72.87-77.226ZM137.18-49.986C141.1-49.986 144.28-46.806 144.28-42.886L144.28-31.506C144.28-27.586 141.1-24.406 137.18-24.406C133.26-24.406 130.08-27.586 130.08-31.506L130.08-42.886C130.08-46.806 133.26-49.986 137.18-49.986Z"/>
   <path class="hierarchical-1:primary SFSymbolsPreview212121" d="M23.43-64.216C22.3-64.216 21.21-63.766 20.41-62.966C19.61-62.166 19.16-61.076 19.16-59.946L19.16-14.446C19.16-13.316 19.61-12.226 20.41-11.426C21.21-10.616 22.3-10.166 23.43-10.166L34.81-10.166C38.73-10.166 41.91-6.99598 41.91-3.06598C41.91 0.85402 38.73 4.03402 34.81 4.03402L23.43 4.03402C18.53 4.03402 13.83 2.08402 10.37-1.38598C6.9-4.84598 4.96-9.54598 4.96-14.446L4.96-59.946C4.96-64.846 6.9-69.546 10.37-73.006C13.83-76.476 18.53-78.416 23.43-78.416L41.58-78.416C45.5-78.416 48.68-75.246 48.68-71.316C48.68-67.396 45.5-64.216 41.58-64.216L23.43-64.216ZM84.58-71.316C84.58-75.246 87.76-78.416 91.68-78.416L103.06-78.416C107.96-78.416 112.66-76.476 116.12-73.006C119.59-69.546 121.53-64.846 121.53-59.946L121.53-14.446C121.53-9.54598 119.59-4.84598 116.12-1.38598C112.66 2.08402 107.96 4.03402 103.06 4.03402L84.92 4.03402C80.99 4.03402 77.82 0.85402 77.82-3.06598C77.82-6.99598 80.99-10.166 84.92-10.166L103.06-10.166C104.19-10.166 105.28-10.616 106.08-11.426C106.88-12.226 107.33-13.316 107.33-14.446L107.33-59.946C107.33-61.076 106.88-62.166 106.08-62.966C105.28-63.766 104.19-64.216 103.06-64.216L91.68-64.216C87.76-64.216 84.58-67.396 84.58-71.316Z"/>
  </g>
  <g id="Heavy-L" transform="matrix(1 0 0 1 2563.07 1556)">
   <path class="hierarchical-0:secondary SFSymbolsPreview4D4D4D" d="M71.55-76.2886C74.42-74.3686 75.2-70.4886 73.28-67.6186L57.01-43.2086L79.46-43.2086C81.76-43.2086 83.88-41.9386 84.97-39.9086C86.05-37.8786 85.93-35.4086 84.66-33.4886L61.91 0.63142C59.99 3.50142 56.11 4.28142 53.24 2.37142C50.37 0.45142 49.59-3.42858 51.5-6.29858L67.78-30.7086L45.33-30.7086C43.03-30.7086 40.91-31.9786 39.82-34.0086C38.73-36.0386 38.85-38.5086 40.13-40.4286L62.88-74.5486C64.79-77.4186 68.67-78.1986 71.55-76.2886ZM136.33-48.8986C139.78-48.8986 142.58-46.0986 142.58-42.6486L142.58-31.2686C142.58-27.8186 139.78-25.0186 136.33-25.0186C132.88-25.0186 130.08-27.8186 130.08-31.2686L130.08-42.6486C130.08-46.0986 132.88-48.8986 136.33-48.8986Z"/>
   <path class="hierarchical-1:primary SFSymbolsPreview212121" d="M22.58-64.8286C21.22-64.8286 19.92-64.2886 18.96-63.3286C17.99-62.3686 17.46-61.0686 17.46-59.7086L17.46-14.2086C17.46-12.8486 17.99-11.5486 18.96-10.5886C19.92-9.61858 21.22-9.07858 22.58-9.07858L33.96-9.07858C37.41-9.07858 40.2-6.28858 40.2-2.82858C40.2 0.62142 37.41 3.42142 33.96 3.42142L22.58 3.42142C17.91 3.42142 13.42 1.56142 10.12-1.74858C6.81-5.04858 4.96-9.53858 4.96-14.2086L4.96-59.7086C4.96-64.3786 6.81-68.8686 10.12-72.1686C13.42-75.4786 17.91-77.3286 22.58-77.3286L40.72-77.3286C44.17-77.3286 46.97-74.5386 46.97-71.0786C46.97-67.6286 44.17-64.8286 40.72-64.8286L22.58-64.8286ZM84.58-71.0786C84.58-74.5386 87.38-77.3286 90.83-77.3286L102.2-77.3286C106.88-77.3286 111.36-75.4786 114.67-72.1686C117.97-68.8686 119.83-64.3786 119.83-59.7086L119.83-14.2086C119.83-9.53858 117.97-5.04858 114.67-1.74858C111.36 1.56142 106.88 3.42142 102.2 3.42142L84.06 3.42142C80.61 3.42142 77.81 0.62142 77.81-2.82858C77.81-6.28858 80.61-9.07858 84.06-9.07858L102.2-9.07858C103.56-9.07858 104.87-9.61858 105.83-10.5886C106.79-11.5486 107.33-12.8486 107.33-14.2086L107.33-59.7086C107.33-61.0686 106.79-62.3686 105.83-63.3286C104.87-64.2886 103.56-64.8286 102.2-64.8286L90.83-64.8286C87.38-64.8286 84.58-67.6286 84.58-71.0786Z"/>
  </g>
  <g id="Bold-L" transform="matrix(1 0 0 1 2267.31 1556)">
   <path class="hierarchical-0:secondary SFSymbolsPreview4D4D4D" d="M70.08-75.2308C72.51-73.6108 73.17-70.3208 71.55-67.8808L54.29-42.0008L78.51-42.0008C80.47-42.0008 82.26-40.9208 83.18-39.2008C84.11-37.4808 84.01-35.3908 82.92-33.7608L60.17 0.36928C58.55 2.79928 55.26 3.45928 52.82 1.83928C50.39 0.20928 49.73-3.08072 51.35-5.51072L68.61-31.4008L44.39-31.4008C42.43-31.4008 40.64-32.4808 39.71-34.2008C38.79-35.9208 38.89-38.0108 39.98-39.6408L62.73-73.7608C64.35-76.2008 67.64-76.8608 70.08-75.2308ZM135.39-47.6908C138.31-47.6908 140.69-45.3108 140.69-42.3908L140.69-31.0108C140.69-28.0808 138.31-25.7108 135.39-25.7108C132.46-25.7108 130.09-28.0808 130.09-31.0108L130.09-42.3908C130.09-45.3108 132.46-47.6908 135.39-47.6908Z"/>
   <path class="hierarchical-1:primary SFSymbolsPreview212121" d="M21.64-65.5208C20.03-65.5208 18.48-64.8808 17.34-63.7408C16.2-62.6108 15.56-61.0608 15.56-59.4508L15.56-13.9508C15.56-12.3408 16.2-10.7908 17.34-9.65072C18.48-8.51072 20.03-7.87072 21.64-7.87072L33.01-7.87072C35.94-7.87072 38.31-5.50072 38.31-2.57072C38.31 0.34928 35.94 2.72928 33.01 2.72928L21.64 2.72928C17.21 2.72928 12.97 0.96928 9.85-2.16072C6.72-5.29072 4.96-9.53072 4.96-13.9508L4.96-59.4508C4.96-63.8708 6.72-68.1108 9.85-71.2408C12.97-74.3708 17.21-76.1208 21.64-76.1208L39.78-76.1208C42.71-76.1208 45.08-73.7508 45.08-70.8208C45.08-67.9008 42.71-65.5208 39.78-65.5208L21.64-65.5208ZM84.59-70.8208C84.59-73.7508 86.96-76.1208 89.89-76.1208L101.26-76.1208C105.68-76.1208 109.93-74.3708 113.05-71.2408C116.18-68.1108 117.94-63.8708 117.94-59.4508L117.94-13.9508C117.94-9.53072 116.18-5.29072 113.05-2.16072C109.93 0.96928 105.68 2.72928 101.26 2.72928L83.12 2.72928C80.19 2.72928 77.82 0.34928 77.82-2.57072C77.82-5.50072 80.19-7.87072 83.12-7.87072L101.26-7.87072C102.87-7.87072 104.42-8.51072 105.56-9.65072C106.7-10.7908 107.34-12.3408 107.34-13.9508L107.34-59.4508C107.34-61.0608 106.7-62.6108 105.56-63.7408C104.42-64.8808 102.87-65.5208 101.26-65.5208L89.89-65.5208C86.96-65.5208 84.59-67.9008 84.59-70.8208Z"/>
  </g>
  <g id="Semibold-L" transform="matrix(1 0 0 1 1971.25 1556)">
   <path class="hierarchical-0:secondary SFSymbolsPreview4D4D4D" d="M69.06-74.5108C71.2-73.0908 71.78-70.2008 70.35-68.0708L52.42-41.1708L77.86-41.1708C79.57-41.1708 81.15-40.2308 81.96-38.7108C82.77-37.2008 82.68-35.3708 81.73-33.9408L58.98 0.179188C57.55 2.31918 54.66 2.89918 52.53 1.46918C50.39 0.049188 49.81-2.84082 51.24-4.97082L69.17-31.8708L43.73-31.8708C42.02-31.8708 40.44-32.8108 39.63-34.3308C38.82-35.8408 38.91-37.6708 39.86-39.1008L62.61-73.2208C64.04-75.3608 66.92-75.9408 69.06-74.5108ZM134.73-46.8608C137.3-46.8608 139.38-44.7808 139.38-42.2108L139.38-30.8308C139.38-28.2608 137.3-26.1808 134.73-26.1808C132.16-26.1808 130.08-28.2608 130.08-30.8308L130.08-42.2108C130.08-44.7808 132.16-46.8608 134.73-46.8608Z"/>
   <path class="hierarchical-1:primary SFSymbolsPreview212121" d="M20.98-65.9908C19.2-65.9908 17.49-65.2908 16.23-64.0308C14.97-62.7608 14.26-61.0508 14.26-59.2708L14.26-13.7708C14.26-11.9908 14.97-10.2808 16.23-9.01082C17.49-7.75082 19.2-7.04082 20.98-7.04082L32.36-7.04082C34.93-7.04082 37.01-4.96082 37.01-2.39082C37.01 0.169188 34.93 2.25918 32.36 2.25918L20.98 2.25918C16.73 2.25918 12.66 0.569184 9.65-2.44082C6.65-5.44082 4.96-9.52082 4.96-13.7708L4.96-59.2708C4.96-63.5208 6.65-67.6008 9.65-70.6008C12.66-73.6108 16.73-75.2908 20.98-75.2908L39.13-75.2908C41.69-75.2908 43.78-73.2108 43.78-70.6408C43.78-68.0808 41.69-65.9908 39.13-65.9908L20.98-65.9908ZM84.58-70.6408C84.58-73.2108 86.66-75.2908 89.23-75.2908L100.61-75.2908C104.86-75.2908 108.93-73.6108 111.94-70.6008C114.94-67.6008 116.63-63.5208 116.63-59.2708L116.63-13.7708C116.63-9.52082 114.94-5.44082 111.94-2.44082C108.93 0.569184 104.86 2.25918 100.61 2.25918L82.46 2.25918C79.9 2.25918 77.81 0.169188 77.81-2.39082C77.81-4.96082 79.9-7.04082 82.46-7.04082L100.61-7.04082C102.39-7.04082 104.1-7.75082 105.36-9.01082C106.62-10.2808 107.33-11.9908 107.33-13.7708L107.33-59.2708C107.33-61.0508 106.62-62.7608 105.36-64.0308C104.1-65.2908 102.39-65.9908 100.61-65.9908L89.23-65.9908C86.66-65.9908 84.58-68.0808 84.58-70.6408Z"/>
  </g>
  <g id="Medium-L" transform="matrix(1 0 0 1 1675.04 1556)">
   <path class="hierarchical-0:secondary SFSymbolsPreview4D4D4D" d="M68.28-73.9594C70.19-72.6894 70.71-70.1094 69.44-68.1994L50.99-40.5294L77.36-40.5294C78.89-40.5294 80.29-39.6894 81.02-38.3394C81.74-36.9894 81.66-35.3494 80.81-34.0794L58.06 0.0506318C56.79 1.95064 54.21 2.47064 52.31 1.20064C50.4-0.0693682 49.88-2.64936 51.15-4.55936L69.6-32.2294L43.23-32.2294C41.7-32.2294 40.3-33.0694 39.57-34.4194C38.85-35.7694 38.93-37.4094 39.78-38.6794L62.53-72.8094C63.8-74.7094 66.38-75.2294 68.28-73.9594ZM134.23-46.2194C136.52-46.2194 138.38-44.3594 138.38-42.0694L138.38-30.6894C138.38-28.3994 136.52-26.5394 134.23-26.5394C131.94-26.5394 130.08-28.3994 130.08-30.6894L130.08-42.0694C130.08-44.3594 131.94-46.2194 134.23-46.2194Z"/>
   <path class="hierarchical-1:primary SFSymbolsPreview212121" d="M20.48-66.3494C18.57-66.3494 16.73-65.5894 15.37-64.2394C14.02-62.8794 13.26-61.0494 13.26-59.1294L13.26-13.6294C13.26-11.7094 14.02-9.87936 15.37-8.51936C16.73-7.16936 18.57-6.39936 20.48-6.39936L31.86-6.39936C34.15-6.39936 36.01-4.54936 36.01-2.24936C36.01 0.0406318 34.15 1.90064 31.86 1.90064L20.48 1.90064C16.36 1.90064 12.42 0.260632 9.5-2.64936C6.59-5.55936 4.96-9.50936 4.96-13.6294L4.96-59.1294C4.96-63.2494 6.59-67.1994 9.5-70.1094C12.42-73.0194 16.36-74.6494 20.48-74.6494L38.63-74.6494C40.92-74.6494 42.78-72.7994 42.78-70.4994C42.78-68.2094 40.92-66.3494 38.63-66.3494L20.48-66.3494ZM84.58-70.4994C84.58-72.7994 86.44-74.6494 88.73-74.6494L100.11-74.6494C104.22-74.6494 108.17-73.0194 111.08-70.1094C114-67.1994 115.63-63.2494 115.63-59.1294L115.63-13.6294C115.63-9.50936 114-5.55936 111.08-2.64936C108.17 0.260632 104.22 1.90064 100.11 1.90064L81.96 1.90064C79.67 1.90064 77.81 0.0406318 77.81-2.24936C77.81-4.54936 79.67-6.39936 81.96-6.39936L100.11-6.39936C102.02-6.39936 103.86-7.16936 105.22-8.51936C106.57-9.87936 107.33-11.7094 107.33-13.6294L107.33-59.1294C107.33-61.0494 106.57-62.8794 105.22-64.2394C103.86-65.5894 102.02-66.3494 100.11-66.3494L88.73-66.3494C86.44-66.3494 84.58-68.2094 84.58-70.4994Z"/>
  </g>
  <g id="Regular-L" transform="matrix(1 0 0 1 1378.98 1556)">
   <path class="hierarchical-0:secondary SFSymbolsPreview4D4D4D" d="M67.27-73.2394C68.88-72.1594 69.32-69.9894 68.24-68.3794L49.12-39.6994L76.71-39.6994C78-39.6994 79.18-38.9894 79.79-37.8494C80.4-36.7094 80.34-35.3294 79.62-34.2594L56.87-0.129456C55.8 1.48054 53.62 1.91054 52.02 0.840542C50.41-0.229456 49.97-2.40946 51.05-4.01946L70.17-32.6994L42.58-32.6994C41.29-32.6994 40.11-33.4094 39.5-34.5494C38.89-35.6894 38.95-37.0694 39.67-38.1394L62.42-72.2694C63.49-73.8694 65.67-74.3094 67.27-73.2394ZM133.58-45.3894C135.52-45.3894 137.08-43.8194 137.08-41.8894L137.08-30.5094C137.08-28.5794 135.52-27.0094 133.58-27.0094C131.65-27.0094 130.08-28.5794 130.08-30.5094L130.08-41.8894C130.08-43.8194 131.65-45.3894 133.58-45.3894Z"/>
   <path class="hierarchical-1:primary SFSymbolsPreview212121" d="M19.83-66.8194C17.74-66.8194 15.74-65.9894 14.26-64.5194C12.79-63.0394 11.96-61.0394 11.96-58.9494L11.96-13.4494C11.96-11.3594 12.79-9.35946 14.26-7.87946C15.74-6.39946 17.74-5.56946 19.83-5.56946L31.21-5.56946C33.14-5.56946 34.71-4.00946 34.71-2.06946C34.71-0.139456 33.14 1.43054 31.21 1.43054L19.83 1.43054C15.89 1.43054 12.1-0.139456 9.31-2.92946C6.52-5.71946 4.96-9.49946 4.96-13.4494L4.96-58.9494C4.96-62.8894 6.52-66.6794 9.31-69.4694C12.1-72.2594 15.89-73.8194 19.83-73.8194L37.98-73.8194C39.91-73.8194 41.48-72.2594 41.48-70.3194C41.48-68.3894 39.91-66.8194 37.98-66.8194L19.83-66.8194ZM84.58-70.3194C84.58-72.2594 86.15-73.8194 88.08-73.8194L99.46-73.8194C103.4-73.8194 107.19-72.2594 109.98-69.4694C112.77-66.6794 114.33-62.8894 114.33-58.9494L114.33-13.4494C114.33-9.49946 112.77-5.71946 109.98-2.92946C107.19-0.139456 103.4 1.43054 99.46 1.43054L81.31 1.43054C79.38 1.43054 77.81-0.139456 77.81-2.06946C77.81-4.00946 79.38-5.56946 81.31-5.56946L99.46-5.56946C101.55-5.56946 103.55-6.39946 105.03-7.87946C106.5-9.35946 107.33-11.3594 107.33-13.4494L107.33-58.9494C107.33-61.0394 106.5-63.0394 105.03-64.5194C103.55-65.9894 101.55-66.8194 99.46-66.8194L88.08-66.8194C86.15-66.8194 84.58-68.3894 84.58-70.3194Z"/>
  </g>
  <g id="Light-L" transform="matrix(1 0 0 1 1083.07 1556)">
   <path class="hierarchical-0:secondary SFSymbolsPreview4D4D4D" d="M66.03-72.351C67.27-71.521 67.61-69.851 66.78-68.611L46.83-38.681L75.91-38.681C76.9-38.681 77.82-38.131 78.29-37.251C78.76-36.381 78.71-35.311 78.15-34.481L55.4-0.361083C54.58 0.878918 52.9 1.21892 51.66 0.388916C50.42-0.441083 50.08-2.11108 50.91-3.35108L70.86-33.281L41.78-33.281C40.79-33.281 39.87-33.831 39.4-34.711C38.93-35.581 38.98-36.651 39.54-37.481L62.29-71.601C63.11-72.841 64.79-73.181 66.03-72.351ZM132.78-44.371C134.27-44.371 135.48-43.161 135.48-41.671L135.48-30.291C135.48-28.801 134.27-27.591 132.78-27.591C131.29-27.591 130.08-28.801 130.08-30.291L130.08-41.671C130.08-43.161 131.29-44.371 132.78-44.371Z"/>
   <path class="hierarchical-1:primary SFSymbolsPreview212121" d="M19.03-67.401C16.73-67.401 14.53-66.491 12.9-64.861C11.27-63.241 10.36-61.031 10.36-58.731L10.36-13.231C10.36-10.931 11.27-8.72108 12.9-7.10108C14.53-5.47108 16.73-4.55108 19.03-4.55108L30.41-4.55108C31.9-4.55108 33.11-3.35108 33.11-1.85108C33.11-0.361083 31.9 0.848918 30.41 0.848918L19.03 0.848918C15.3 0.848918 11.72-0.641084 9.08-3.28108C6.44-5.92108 4.96-9.50108 4.96-13.231L4.96-58.731C4.96-62.461 6.44-66.041 9.08-68.681C11.72-71.321 15.3-72.801 19.03-72.801L37.18-72.801C38.67-72.801 39.88-71.601 39.88-70.101C39.88-68.611 38.67-67.401 37.18-67.401L19.03-67.401ZM84.58-70.101C84.58-71.601 85.79-72.801 87.28-72.801L98.66-72.801C102.39-72.801 105.97-71.321 108.61-68.681C111.25-66.041 112.73-62.461 112.73-58.731L112.73-13.231C112.73-9.50108 111.25-5.92108 108.61-3.28108C105.97-0.641084 102.39 0.848918 98.66 0.848918L80.52 0.848918C79.02 0.848918 77.82-0.361083 77.82-1.85108C77.82-3.35108 79.02-4.55108 80.52-4.55108L98.66-4.55108C100.96-4.55108 103.17-5.47108 104.79-7.10108C106.42-8.72108 107.33-10.931 107.33-13.231L107.33-58.731C107.33-61.031 106.42-63.241 104.79-64.861C103.17-66.491 100.96-67.401 98.66-67.401L87.28-67.401C85.79-67.401 84.58-68.611 84.58-70.101Z"/>
  </g>
  <g id="Thin-L" transform="matrix(1 0 0 1 787.405 1556)">
   <path class="hierarchical-0:secondary SFSymbolsPreview4D4D4D" d="M64.4-71.1808C65.159-70.6708 65.363-69.6508 64.858-68.8908L43.818-37.3308L74.86-37.3308C75.469-37.3308 76.028-36.9908 76.315-36.4608C76.602-35.9208 76.571-35.2708 76.233-34.7608L53.483-0.640794C52.978 0.119206 51.953 0.319206 51.195-0.180794C50.437-0.690794 50.232-1.7108 50.737-2.4708L71.777-34.0308L40.735-34.0308C40.127-34.0308 39.567-34.3608 39.28-34.9008C38.993-35.4408 39.025-36.0908 39.362-36.5908L62.112-70.7208C62.618-71.4808 63.642-71.6808 64.4-71.1808ZM131.735-43.0208C132.646-43.0208 133.385-42.2808 133.385-41.3708L133.385-29.9908C133.385-29.0808 132.646-28.3408 131.735-28.3408C130.824-28.3408 130.085-29.0808 130.085-29.9908L130.085-41.3708C130.085-42.2808 130.824-43.0208 131.735-43.0208Z"/>
   <path class="hierarchical-1:primary SFSymbolsPreview212121" d="M17.985-68.1508C15.406-68.1508 12.932-67.1308 11.108-65.3108C9.285-63.4808 8.26-61.0108 8.26-58.4308L8.26-12.9308C8.26-10.3508 9.285-7.8808 11.108-6.0508C12.932-4.2308 15.406-3.2008 17.985-3.2008L29.36-3.2008C30.271-3.2008 31.01-2.4708 31.01-1.5508C31.01-0.640794 30.271 0.099206 29.36 0.099206L17.985 0.099206C14.531 0.099206 11.218-1.2808 8.775-3.7208C6.332-6.1608 4.96-9.4808 4.96-12.9308L4.96-58.4308C4.96-61.8808 6.332-65.2008 8.775-67.6408C11.218-70.0808 14.531-71.4508 17.985-71.4508L36.128-71.4508C37.04-71.4508 37.778-70.7208 37.778-69.8008C37.778-68.8908 37.04-68.1508 36.128-68.1508L17.985-68.1508ZM84.585-69.8008C84.585-70.7208 85.324-71.4508 86.235-71.4508L97.61-71.4508C101.065-71.4508 104.378-70.0808 106.82-67.6408C109.263-65.2008 110.635-61.8808 110.635-58.4308L110.635-12.9308C110.635-9.4808 109.263-6.1608 106.82-3.7208C104.378-1.2808 101.065 0.099206 97.61 0.099206L79.467 0.099206C78.556 0.099206 77.817-0.640794 77.817-1.5508C77.817-2.4708 78.556-3.2008 79.467-3.2008L97.61-3.2008C100.189-3.2008 102.663-4.2308 104.487-6.0508C106.311-7.8808 107.335-10.3508 107.335-12.9308L107.335-58.4308C107.335-61.0108 106.311-63.4808 104.487-65.3108C102.663-67.1308 100.189-68.1508 97.61-68.1508L86.235-68.1508C85.324-68.1508 84.585-68.8908 84.585-69.8008Z"/>
  </g>
  <g id="Ultralight-L" transform="matrix(1 0 0 1 491.244 1556)">
   <path class="hierarchical-0:secondary SFSymbolsPreview4D4D4D" d="M63.545-70.5774C64.051-70.2374 64.187-69.5574 63.85-69.0474L42.24-36.6374L74.31-36.6374C74.716-36.6374 75.088-36.4174 75.28-36.0574C75.471-35.6974 75.45-35.2674 75.225-34.9274L52.475-0.79731C52.138-0.29731 51.455-0.15731 50.95-0.49731C50.444-0.83731 50.308-1.51732 50.645-2.02732L72.255-34.4374L40.185-34.4374C39.779-34.4374 39.406-34.6574 39.215-35.0174C39.024-35.3774 39.045-35.8074 39.27-36.1474L62.02-70.2774C62.357-70.7774 63.04-70.9174 63.545-70.5774ZM131.185-42.3274C131.792-42.3274 132.285-41.8274 132.285-41.2274L132.285-29.8474C132.285-29.2374 131.792-28.7474 131.185-28.7474C130.577-28.7474 130.085-29.2374 130.085-29.8474L130.085-41.2274C130.085-41.8274 130.577-42.3274 131.185-42.3274Z"/>
   <path class="hierarchical-1:primary SFSymbolsPreview212121" d="M17.435-68.5574C14.71-68.5574 12.096-67.4774 10.169-65.5474C8.242-63.6274 7.16-61.0074 7.16-58.2874L7.16-12.7874C7.16-10.0573 8.242-7.44732 10.169-5.51732C12.096-3.59732 14.71-2.50732 17.435-2.50732L28.81-2.50732C29.417-2.50732 29.91-2.01732 29.91-1.40732C29.91-0.80731 29.417-0.30731 28.81-0.30731L17.435-0.30731C14.126-0.30731 10.953-1.62732 8.614-3.96732C6.274-6.30732 4.96-9.47732 4.96-12.7874L4.96-58.2874C4.96-61.5974 6.274-64.7674 8.614-67.1074C10.953-69.4474 14.126-70.7574 17.435-70.7574L35.578-70.7574C36.186-70.7574 36.678-70.2674 36.678-69.6574C36.678-69.0574 36.186-68.5574 35.578-68.5574L17.435-68.5574ZM84.585-69.6574C84.585-70.2674 85.077-70.7574 85.685-70.7574L97.06-70.7574C100.368-70.7574 103.542-69.4474 105.881-67.1074C108.221-64.7674 109.535-61.5974 109.535-58.2874L109.535-12.7874C109.535-9.47732 108.221-6.30732 105.881-3.96732C103.542-1.62732 100.368-0.30731 97.06-0.30731L78.917-0.30731C78.309-0.30731 77.817-0.80731 77.817-1.40732C77.817-2.01732 78.309-2.50732 78.917-2.50732L97.06-2.50732C99.785-2.50732 102.398-3.59732 104.325-5.51732C106.252-7.44732 107.335-10.0573 107.335-12.7874L107.335-58.2874C107.335-61.0074 106.252-63.6274 104.325-65.5474C102.398-67.4774 99.785-68.5574 97.06-68.5574L85.685-68.5574C85.077-68.5574 84.585-69.0574 84.585-69.6574Z"/>
  </g>
  <g id="Black-M" transform="matrix(1 0 0 1 2872.41 1126)">
   <path class="hierarchical-0:secondary SFSymbolsPreview4D4D4D" d="M60.62-69.876C63.88-67.706 64.76-63.296 62.59-60.036L52.1-44.296L65.61-44.296C68.23-44.296 70.63-42.856 71.87-40.546C73.1-38.236 72.97-35.436 71.51-33.256L53.66-6.48598C51.49-3.21598 47.08-2.33598 43.82-4.51598C40.56-6.68598 39.67-11.096 41.85-14.356L52.34-30.096L38.83-30.096C36.21-30.096 33.81-31.536 32.57-33.846C31.34-36.156 31.47-38.956 32.92-41.136L50.77-67.906C52.95-71.176 57.36-72.056 60.62-69.876ZM110.23-48.756C114.15-48.756 117.33-45.576 117.33-41.656L117.33-32.736C117.33-28.816 114.15-25.636 110.23-25.636C106.31-25.636 103.13-28.816 103.13-32.736L103.13-41.656C103.13-45.576 106.31-48.756 110.23-48.756Z"/>
   <path class="hierarchical-1:primary SFSymbolsPreview212121" d="M20.98-56.866C20.5-56.866 20.03-56.676 19.69-56.336C19.35-55.996 19.16-55.526 19.16-55.046L19.16-19.346C19.16-18.866 19.35-18.396 19.69-18.056C20.03-17.716 20.5-17.516 20.98-17.516L29.91-17.516C33.83-17.516 37.01-14.346 37.01-10.416C37.01-6.49598 33.83-3.31598 29.91-3.31598L20.98-3.31598C16.73-3.31598 12.66-5.00598 9.65-8.01598C6.65-11.016 4.96-15.096 4.96-19.346L4.96-55.046C4.96-59.296 6.65-63.376 9.65-66.376C12.66-69.386 16.73-71.066 20.98-71.066L35.22-71.066C39.14-71.066 42.32-67.896 42.32-63.966C42.32-60.046 39.14-56.866 35.22-56.866L20.98-56.866ZM67.43-63.966C67.43-67.896 70.61-71.066 74.53-71.066L83.46-71.066C87.71-71.066 91.78-69.386 94.79-66.376C97.79-63.376 99.48-59.296 99.48-55.046L99.48-19.346C99.48-15.096 97.79-11.016 94.79-8.01598C91.78-5.00598 87.71-3.31598 83.46-3.31598L69.22-3.31598C65.3-3.31598 62.12-6.49598 62.12-10.416C62.12-14.346 65.3-17.516 69.22-17.516L83.46-17.516C83.94-17.516 84.41-17.716 84.75-18.056C85.09-18.396 85.28-18.866 85.28-19.346L85.28-55.046C85.28-55.526 85.09-55.996 84.75-56.336C84.41-56.676 83.94-56.866 83.46-56.866L74.53-56.866C70.61-56.866 67.43-60.046 67.43-63.966Z"/>
  </g>
  <g id="Heavy-M" transform="matrix(1 0 0 1 2576.55 1126)">
   <path class="hierarchical-0:secondary SFSymbolsPreview4D4D4D" d="M59.3-68.9336C62.17-67.0236 62.95-63.1436 61.03-60.2736L49.66-43.2136L64.76-43.2136C67.06-43.2136 69.18-41.9436 70.27-39.9136C71.35-37.8836 71.23-35.4136 69.96-33.4936L52.11-6.72356C50.19-3.85356 46.31-3.07356 43.44-4.98356C40.57-6.90356 39.79-10.7836 41.71-13.6536L53.08-30.7136L37.98-30.7136C35.68-30.7136 33.56-31.9836 32.47-34.0136C31.38-36.0436 31.5-38.5136 32.78-40.4336L50.63-67.2036C52.55-70.0736 56.43-70.8536 59.3-68.9336ZM109.38-47.6736C112.83-47.6736 115.63-44.8736 115.63-41.4236L115.63-32.5036C115.63-29.0536 112.83-26.2536 109.38-26.2536C105.93-26.2536 103.13-29.0536 103.13-32.5036L103.13-41.4236C103.13-44.8736 105.93-47.6736 109.38-47.6736Z"/>
   <path class="hierarchical-1:primary SFSymbolsPreview212121" d="M20.13-57.4836C19.42-57.4836 18.74-57.2036 18.24-56.7036C17.74-56.2036 17.46-55.5236 17.46-54.8136L17.46-19.1136C17.46-18.4036 17.74-17.7236 18.24-17.2236C18.74-16.7236 19.42-16.4336 20.13-16.4336L29.06-16.4336C32.51-16.4336 35.31-13.6436 35.31-10.1836C35.31-6.73356 32.51-3.93356 29.06-3.93356L20.13-3.93356C16.11-3.93356 12.25-5.53356 9.4-8.38356C6.55-11.2336 4.96-15.0936 4.96-19.1136L4.96-54.8136C4.96-58.8336 6.55-62.6936 9.4-65.5436C12.25-68.3936 16.11-69.9836 20.13-69.9836L34.37-69.9836C37.82-69.9836 40.62-67.1936 40.62-63.7336C40.62-60.2836 37.82-57.4836 34.37-57.4836L20.13-57.4836ZM67.43-63.7336C67.43-67.1936 70.23-69.9836 73.68-69.9836L82.61-69.9836C86.63-69.9836 90.49-68.3936 93.34-65.5436C96.18-62.6936 97.78-58.8336 97.78-54.8136L97.78-19.1136C97.78-15.0936 96.18-11.2336 93.34-8.38356C90.49-5.53356 86.63-3.93356 82.61-3.93356L68.37-3.93356C64.92-3.93356 62.12-6.73356 62.12-10.1836C62.12-13.6436 64.92-16.4336 68.37-16.4336L82.61-16.4336C83.32-16.4336 84-16.7236 84.5-17.2236C85-17.7236 85.28-18.4036 85.28-19.1136L85.28-54.8136C85.28-55.5236 85-56.2036 84.5-56.7036C84-57.2036 83.32-57.4836 82.61-57.4836L73.68-57.4836C70.23-57.4836 67.43-60.2836 67.43-63.7336Z"/>
  </g>
  <g id="Bold-M" transform="matrix(1 0 0 1 2280.79 1126)">
   <path class="hierarchical-0:secondary SFSymbolsPreview4D4D4D" d="M57.82-67.8808C60.26-66.2608 60.91-62.9708 59.29-60.5308L46.93-42.0008L63.81-42.0008C65.76-42.0008 67.56-40.9208 68.48-39.2008C69.4-37.4808 69.3-35.3908 68.22-33.7608L50.37-6.98072C48.74-4.55072 45.45-3.89072 43.02-5.51072C40.58-7.14072 39.92-10.4307 41.55-12.8608L53.9-31.4008L37.03-31.4008C35.08-31.4008 33.28-32.4708 32.36-34.2008C31.44-35.9208 31.54-38.0108 32.62-39.6408L50.47-66.4108C52.1-68.8508 55.39-69.5108 57.82-67.8808ZM108.43-46.4608C111.36-46.4608 113.73-44.0908 113.73-41.1608L113.73-32.2408C113.73-29.3108 111.36-26.9408 108.43-26.9408C105.5-26.9408 103.13-29.3108 103.13-32.2408L103.13-41.1608C103.13-44.0908 105.5-46.4608 108.43-46.4608Z"/>
   <path class="hierarchical-1:primary SFSymbolsPreview212121" d="M19.18-58.1708C18.22-58.1708 17.3-57.7908 16.62-57.1108C15.94-56.4308 15.56-55.5108 15.56-54.5508L15.56-18.8508C15.56-17.8908 15.94-16.9708 16.62-16.2908C17.3-15.6108 18.22-15.2208 19.18-15.2208L28.11-15.2208C31.04-15.2208 33.41-12.8508 33.41-9.92072C33.41-7.00072 31.04-4.62072 28.11-4.62072L19.18-4.62072C15.41-4.62072 11.79-6.12072 9.12-8.79072C6.46-11.4608 4.96-15.0808 4.96-18.8508L4.96-54.5508C4.96-58.3208 6.46-61.9408 9.12-64.6108C11.79-67.2808 15.41-68.7708 19.18-68.7708L33.42-68.7708C36.35-68.7708 38.72-66.4008 38.72-63.4708C38.72-60.5508 36.35-58.1708 33.42-58.1708L19.18-58.1708ZM67.43-63.4708C67.43-66.4008 69.81-68.7708 72.73-68.7708L81.66-68.7708C85.43-68.7708 89.05-67.2808 91.72-64.6108C94.38-61.9408 95.88-58.3208 95.88-54.5508L95.88-18.8508C95.88-15.0808 94.38-11.4608 91.72-8.79072C89.05-6.12072 85.43-4.62072 81.66-4.62072L67.42-4.62072C64.5-4.62072 62.12-7.00072 62.12-9.92072C62.12-12.8508 64.5-15.2208 67.42-15.2208L81.66-15.2208C82.62-15.2208 83.54-15.6108 84.22-16.2908C84.9-16.9708 85.28-17.8908 85.28-18.8508L85.28-54.5508C85.28-55.5108 84.9-56.4308 84.22-57.1108C83.54-57.7908 82.62-58.1708 81.66-58.1708L72.73-58.1708C69.81-58.1708 67.43-60.5508 67.43-63.4708Z"/>
  </g>
  <g id="Semibold-M" transform="matrix(1 0 0 1 1984.72 1126)">
   <path class="hierarchical-0:secondary SFSymbolsPreview4D4D4D" d="M56.82-67.1608C58.95-65.7408 59.53-62.8508 58.11-60.7208L45.08-41.1708L63.16-41.1708C64.88-41.1708 66.45-40.2308 67.26-38.7108C68.07-37.2008 67.98-35.3708 67.03-33.9408L49.18-7.17082C47.76-5.03082 44.87-4.45082 42.73-5.88082C40.6-7.30082 40.02-10.1908 41.44-12.3208L54.47-31.8708L36.39-31.8708C34.67-31.8708 33.1-32.8108 32.29-34.3308C31.48-35.8408 31.57-37.6708 32.52-39.1008L50.37-65.8708C51.79-68.0108 54.68-68.5908 56.82-67.1608ZM107.79-45.6308C110.36-45.6308 112.44-43.5508 112.44-40.9808L112.44-32.0608C112.44-29.4908 110.36-27.4108 107.79-27.4108C105.22-27.4108 103.14-29.4908 103.14-32.0608L103.14-40.9808C103.14-43.5508 105.22-45.6308 107.79-45.6308Z"/>
   <path class="hierarchical-1:primary SFSymbolsPreview212121" d="M18.54-58.6408C17.4-58.6408 16.32-58.1908 15.51-57.3908C14.71-56.5908 14.26-55.5008 14.26-54.3708L14.26-18.6708C14.26-17.5408 14.71-16.4508 15.51-15.6508C16.32-14.8408 17.4-14.3908 18.54-14.3908L27.46-14.3908C30.03-14.3908 32.11-12.3108 32.11-9.74082C32.11-7.18082 30.03-5.09082 27.46-5.09082L18.54-5.09082C14.94-5.09082 11.48-6.52082 8.94-9.07082C6.39-11.6208 4.96-15.0708 4.96-18.6708L4.96-54.3708C4.96-57.9708 6.39-61.4208 8.94-63.9708C11.48-66.5108 14.94-67.9408 18.54-67.9408L32.77-67.9408C35.34-67.9408 37.42-65.8608 37.42-63.2908C37.42-60.7308 35.34-58.6408 32.77-58.6408L18.54-58.6408ZM67.44-63.2908C67.44-65.8608 69.52-67.9408 72.09-67.9408L81.01-67.9408C84.61-67.9408 88.06-66.5108 90.61-63.9708C93.16-61.4208 94.59-57.9708 94.59-54.3708L94.59-18.6708C94.59-15.0708 93.16-11.6208 90.61-9.07082C88.06-6.52082 84.61-5.09082 81.01-5.09082L66.78-5.09082C64.21-5.09082 62.13-7.18082 62.13-9.74082C62.13-12.3108 64.21-14.3908 66.78-14.3908L81.01-14.3908C82.15-14.3908 83.23-14.8408 84.03-15.6508C84.84-16.4508 85.29-17.5408 85.29-18.6708L85.29-54.3708C85.29-55.5008 84.84-56.5908 84.03-57.3908C83.23-58.1908 82.15-58.6408 81.01-58.6408L72.09-58.6408C69.52-58.6408 67.44-60.7308 67.44-63.2908Z"/>
  </g>
  <g id="Medium-M" transform="matrix(1 0 0 1 1688.51 1126)">
   <path class="hierarchical-0:secondary SFSymbolsPreview4D4D4D" d="M56.04-66.6094C57.95-65.3394 58.46-62.7594 57.19-60.8494L43.64-40.5294L62.66-40.5294C64.19-40.5294 65.6-39.6894 66.32-38.3394C67.04-36.9894 66.96-35.3494 66.12-34.0794L48.27-7.29936C46.99-5.39936 44.42-4.87936 42.51-6.14936C40.6-7.41936 40.09-9.99936 41.36-11.9094L54.91-32.2294L35.89-32.2294C34.36-32.2294 32.95-33.0694 32.23-34.4194C31.51-35.7694 31.59-37.4094 32.43-38.6794L50.28-65.4594C51.56-67.3594 54.13-67.8794 56.04-66.6094ZM107.29-44.9894C109.58-44.9894 111.44-43.1294 111.44-40.8394L111.44-31.9194C111.44-29.6194 109.58-27.7694 107.29-27.7694C105-27.7694 103.14-29.6194 103.14-31.9194L103.14-40.8394C103.14-43.1294 105-44.9894 107.29-44.9894Z"/>
   <path class="hierarchical-1:primary SFSymbolsPreview212121" d="M18.04-58.9994C16.77-58.9994 15.56-58.4994 14.66-57.6094C13.76-56.7094 13.26-55.4994 13.26-54.2294L13.26-18.5294C13.26-17.2594 13.76-16.0494 14.66-15.1494C15.56-14.2594 16.77-13.7494 18.04-13.7494L26.96-13.7494C29.25-13.7494 31.11-11.8994 31.11-9.59936C31.11-7.30936 29.25-5.44936 26.96-5.44936L18.04-5.44936C14.57-5.44936 11.24-6.82936 8.79-9.27936C6.34-11.7394 4.96-15.0594 4.96-18.5294L4.96-54.2294C4.96-57.6994 6.34-61.0194 8.79-63.4694C11.24-65.9294 14.57-67.2994 18.04-67.2994L32.27-67.2994C34.56-67.2994 36.42-65.4494 36.42-63.1494C36.42-60.8594 34.56-58.9994 32.27-58.9994L18.04-58.9994ZM67.44-63.1494C67.44-65.4494 69.29-67.2994 71.59-67.2994L80.51-67.2994C83.98-67.2994 87.31-65.9294 89.76-63.4694C92.21-61.0194 93.59-57.6994 93.59-54.2294L93.59-18.5294C93.59-15.0594 92.21-11.7394 89.76-9.27936C87.31-6.82936 83.98-5.44936 80.51-5.44936L66.28-5.44936C63.98-5.44936 62.13-7.30936 62.13-9.59936C62.13-11.8994 63.98-13.7494 66.28-13.7494L80.51-13.7494C81.78-13.7494 82.99-14.2594 83.89-15.1494C84.78-16.0494 85.29-17.2594 85.29-18.5294L85.29-54.2294C85.29-55.4994 84.78-56.7094 83.89-57.6094C82.99-58.4994 81.78-58.9994 80.51-58.9994L71.59-58.9994C69.29-58.9994 67.44-60.8594 67.44-63.1494Z"/>
  </g>
  <g id="Regular-M" transform="matrix(1 0 0 1 1392.45 1126)">
   <path class="hierarchical-0:secondary SFSymbolsPreview4D4D4D" d="M55.03-65.8894C56.64-64.8094 57.07-62.6394 56-61.0294L41.78-39.6994L62.01-39.6994C63.3-39.6994 64.49-38.9894 65.1-37.8494C65.71-36.7094 65.64-35.3294 64.92-34.2594L47.07-7.47946C46-5.86946 43.83-5.43946 42.22-6.50946C40.61-7.57946 40.18-9.75946 41.25-11.3694L55.47-32.6994L35.24-32.6994C33.95-32.6994 32.76-33.4094 32.15-34.5494C31.54-35.6894 31.61-37.0694 32.33-38.1394L50.18-64.9194C51.25-66.5194 53.42-66.9594 55.03-65.8894ZM106.64-44.1594C108.57-44.1594 110.14-42.5994 110.14-40.6594L110.14-31.7394C110.14-29.7994 108.57-28.2394 106.64-28.2394C104.7-28.2394 103.14-29.7994 103.14-31.7394L103.14-40.6594C103.14-42.5994 104.7-44.1594 106.64-44.1594Z"/>
   <path class="hierarchical-1:primary SFSymbolsPreview212121" d="M17.39-59.4694C15.95-59.4694 14.57-58.8994 13.55-57.8894C12.53-56.8694 11.96-55.4894 11.96-54.0494L11.96-18.3494C11.96-16.9094 12.53-15.5294 13.55-14.5094C14.57-13.4994 15.95-12.9194 17.39-12.9194L26.31-12.9194C28.25-12.9194 29.81-11.3594 29.81-9.41946C29.81-7.48946 28.25-5.91946 26.31-5.91946L17.39-5.91946C14.09-5.91946 10.93-7.22946 8.6-9.55946C6.27-11.8894 4.96-15.0494 4.96-18.3494L4.96-54.0494C4.96-57.3494 6.27-60.5094 8.6-62.8394C10.93-65.1694 14.09-66.4694 17.39-66.4694L31.62-66.4694C33.56-66.4694 35.12-64.9094 35.12-62.9694C35.12-61.0394 33.56-59.4694 31.62-59.4694L17.39-59.4694ZM67.44-62.9694C67.44-64.9094 69-66.4694 70.94-66.4694L79.86-66.4694C83.16-66.4694 86.32-65.1694 88.65-62.8394C90.98-60.5094 92.29-57.3494 92.29-54.0494L92.29-18.3494C92.29-15.0494 90.98-11.8894 88.65-9.55946C86.32-7.22946 83.16-5.91946 79.86-5.91946L65.63-5.91946C63.69-5.91946 62.13-7.48946 62.13-9.41946C62.13-11.3594 63.69-12.9194 65.63-12.9194L79.86-12.9194C81.3-12.9194 82.68-13.4994 83.7-14.5094C84.72-15.5294 85.29-16.9094 85.29-18.3494L85.29-54.0494C85.29-55.4894 84.72-56.8694 83.7-57.8894C82.68-58.8994 81.3-59.4694 79.86-59.4694L70.94-59.4694C69-59.4694 67.44-61.0394 67.44-62.9694Z"/>
  </g>
  <g id="Light-M" transform="matrix(1 0 0 1 1096.54 1126)">
   <path class="hierarchical-0:secondary SFSymbolsPreview4D4D4D" d="M53.79-65.001C55.03-64.171 55.36-62.501 54.53-61.261L39.48-38.681L61.21-38.681C62.21-38.681 63.12-38.131 63.59-37.251C64.06-36.381 64.01-35.311 63.46-34.481L45.61-7.71108C44.78-6.47108 43.11-6.13108 41.87-6.96108C40.62-7.79108 40.29-9.46108 41.12-10.701L56.17-33.281L34.44-33.281C33.44-33.281 32.53-33.831 32.06-34.711C31.59-35.581 31.64-36.651 32.19-37.481L50.04-64.251C50.87-65.491 52.55-65.831 53.79-65.001ZM105.84-43.141C107.33-43.141 108.54-41.931 108.54-40.441L108.54-31.521C108.54-30.031 107.33-28.821 105.84-28.821C104.35-28.821 103.14-30.031 103.14-31.521L103.14-40.441C103.14-41.931 104.35-43.141 105.84-43.141Z"/>
   <path class="hierarchical-1:primary SFSymbolsPreview212121" d="M16.59-60.051C14.94-60.051 13.35-59.401 12.19-58.231C11.02-57.061 10.36-55.481 10.36-53.831L10.36-18.131C10.36-16.481 11.02-14.891 12.19-13.731C13.35-12.561 14.94-11.901 16.59-11.901L25.51-11.901C27-11.901 28.21-10.701 28.21-9.20108C28.21-7.71108 27-6.50108 25.51-6.50108L16.59-6.50108C13.5-6.50108 10.55-7.73108 8.37-9.91108C6.19-12.091 4.96-15.051 4.96-18.131L4.96-53.831C4.96-56.911 6.19-59.871 8.37-62.051C10.55-64.231 13.5-65.451 16.59-65.451L30.82-65.451C32.31-65.451 33.52-64.251 33.52-62.751C33.52-61.261 32.31-60.051 30.82-60.051L16.59-60.051ZM67.44-62.751C67.44-64.251 68.65-65.451 70.14-65.451L79.06-65.451C82.15-65.451 85.1-64.231 87.28-62.051C89.46-59.871 90.69-56.911 90.69-53.831L90.69-18.131C90.69-15.051 89.46-12.091 87.28-9.91108C85.1-7.73108 82.15-6.50108 79.06-6.50108L64.83-6.50108C63.34-6.50108 62.13-7.71108 62.13-9.20108C62.13-10.701 63.34-11.901 64.83-11.901L79.06-11.901C80.71-11.901 82.3-12.561 83.46-13.731C84.63-14.891 85.29-16.481 85.29-18.131L85.29-53.831C85.29-55.481 84.63-57.061 83.46-58.231C82.3-59.401 80.71-60.051 79.06-60.051L70.14-60.051C68.65-60.051 67.44-61.261 67.44-62.751Z"/>
  </g>
  <g id="Thin-M" transform="matrix(1 0 0 1 800.88 1126)">
   <path class="hierarchical-0:secondary SFSymbolsPreview4D4D4D" d="M52.15-63.8308C52.909-63.3208 53.113-62.3008 52.608-61.5408L36.468-37.3308L60.16-37.3308C60.769-37.3308 61.328-36.9908 61.615-36.4608C61.902-35.9208 61.871-35.2708 61.533-34.7608L43.683-7.9908C43.178-7.2308 42.153-7.0308 41.395-7.5308C40.637-8.0408 40.432-9.0608 40.937-9.8208L57.077-34.0308L33.385-34.0308C32.777-34.0308 32.217-34.3608 31.93-34.9008C31.643-35.4408 31.675-36.0908 32.012-36.5908L49.862-63.3708C50.368-64.1308 51.392-64.3308 52.15-63.8308ZM104.785-41.7908C105.697-41.7908 106.435-41.0508 106.435-40.1408L106.435-31.2208C106.435-30.3108 105.697-29.5708 104.785-29.5708C103.874-29.5708 103.136-30.3108 103.136-31.2208L103.136-40.1408C103.136-41.0508 103.874-41.7908 104.785-41.7908Z"/>
   <path class="hierarchical-1:primary SFSymbolsPreview212121" d="M15.535-60.8008C13.605-60.8008 11.755-60.0408 10.391-58.6708C9.026-57.3108 8.26-55.4608 8.26-53.5308L8.26-17.8308C8.26-15.9008 9.026-14.0508 10.391-12.6908C11.755-11.3208 13.605-10.5508 15.535-10.5508L24.46-10.5508C25.371-10.5508 26.11-9.8208 26.11-8.9008C26.11-7.9908 25.371-7.2508 24.46-7.2508L15.535-7.2508C12.73-7.2508 10.04-8.3708 8.057-10.3508C6.074-12.3308 4.96-15.0208 4.96-17.8308L4.96-53.5308C4.96-56.3308 6.074-59.0208 8.057-61.0108C10.04-62.9908 12.73-64.1008 15.535-64.1008L29.77-64.1008C30.681-64.1008 31.42-63.3708 31.42-62.4508C31.42-61.5408 30.681-60.8008 29.77-60.8008L15.535-60.8008ZM67.435-62.4508C67.435-63.3708 68.173-64.1008 69.085-64.1008L78.01-64.1008C80.814-64.1008 83.504-62.9908 85.487-61.0108C87.471-59.0208 88.585-56.3308 88.585-53.5308L88.585-17.8308C88.585-15.0208 87.471-12.3308 85.487-10.3508C83.504-8.3708 80.814-7.2508 78.01-7.2508L63.774-7.2508C62.863-7.2508 62.124-7.9908 62.124-8.9008C62.124-9.8208 62.863-10.5508 63.774-10.5508L78.01-10.5508C79.939-10.5508 81.79-11.3208 83.154-12.6908C84.518-14.0508 85.285-15.9008 85.285-17.8308L85.285-53.5308C85.285-55.4608 84.518-57.3108 83.154-58.6708C81.79-60.0408 79.939-60.8008 78.01-60.8008L69.085-60.8008C68.173-60.8008 67.435-61.5408 67.435-62.4508Z"/>
  </g>
  <g id="Ultralight-M" transform="matrix(1 0 0 1 504.718 1126)">
   <path class="hierarchical-0:secondary SFSymbolsPreview4D4D4D" d="M51.296-63.2284C51.802-62.8884 51.938-62.2084 51.601-61.6984L34.891-36.6384L59.611-36.6384C60.017-36.6384 60.389-36.4184 60.581-36.0584C60.772-35.6984 60.751-35.2684 60.526-34.9284L42.676-8.14832C42.339-7.64832 41.656-7.50832 41.151-7.84832C40.645-8.18832 40.509-8.86832 40.846-9.36832L57.556-34.4384L32.836-34.4384C32.43-34.4384 32.057-34.6584 31.866-35.0184C31.675-35.3784 31.696-35.8084 31.921-36.1484L49.771-62.9184C50.108-63.4284 50.791-63.5684 51.296-63.2284ZM104.236-41.0984C104.844-41.0984 105.336-40.6084 105.336-39.9984L105.336-31.0784C105.336-30.4684 104.844-29.9784 104.236-29.9784C103.629-29.9784 103.136-30.4684 103.136-31.0784L103.136-39.9984C103.136-40.6084 103.629-41.0984 104.236-41.0984Z"/>
   <path class="hierarchical-1:primary SFSymbolsPreview212121" d="M14.986-61.2084C12.91-61.2084 10.92-60.3884 9.452-58.9184C7.985-57.4584 7.161-55.4584 7.161-53.3884L7.161-17.6884C7.161-15.6084 7.985-13.6184 9.452-12.1584C10.92-10.6884 12.91-9.85832 14.986-9.85832L23.911-9.85832C24.518-9.85832 25.01-9.36832 25.01-8.75832C25.01-8.15832 24.518-7.65832 23.911-7.65832L14.986-7.65832C12.327-7.65832 9.777-8.71832 7.897-10.5984C6.017-12.4784 4.96-15.0284 4.96-17.6884L4.96-53.3884C4.96-56.0484 6.017-58.5984 7.897-60.4784C9.777-62.3584 12.327-63.4084 14.986-63.4084L29.221-63.4084C29.828-63.4084 30.321-62.9184 30.321-62.3084C30.321-61.7084 29.828-61.2084 29.221-61.2084L14.986-61.2084ZM67.435-62.3084C67.435-62.9184 67.928-63.4084 68.535-63.4084L77.46-63.4084C80.119-63.4084 82.669-62.3584 84.549-60.4784C86.429-58.5984 87.485-56.0484 87.485-53.3884L87.485-17.6884C87.485-15.0284 86.429-12.4784 84.549-10.5984C82.669-8.71832 80.119-7.65832 77.46-7.65832L63.225-7.65832C62.618-7.65832 62.125-8.15832 62.125-8.75832C62.125-9.36832 62.618-9.85832 63.225-9.85832L77.46-9.85832C79.536-9.85832 81.526-10.6884 82.994-12.1584C84.461-13.6184 85.285-15.6084 85.285-17.6884L85.285-53.3884C85.285-55.4584 84.461-57.4584 82.994-58.9184C81.526-60.3884 79.536-61.2084 77.46-61.2084L68.535-61.2084C67.928-61.2084 67.435-61.7084 67.435-62.3084Z"/>
  </g>
  <g id="Black-S" transform="matrix(1 0 0 1 2883 696)">
   <path class="hierarchical-0:secondary SFSymbolsPreview4D4D4D" d="M51-64.2036C54.26-62.0286 55.14-57.6206 52.97-54.3576L46.33-44.3966L54.06-44.3966C56.68-44.3966 59.09-42.9556 60.32-40.6466C61.56-38.3376 61.42-35.5366 59.97-33.3576L45.97-12.3576C43.79-9.09552 39.39-8.21352 36.12-10.3885C32.86-12.5636 31.98-16.9726 34.15-20.2346L40.79-30.1966L33.06-30.1966C30.44-30.1966 28.04-31.6376 26.8-33.9466C25.57-36.2546 25.7-39.0566 27.15-41.2346L41.15-62.2346C43.33-65.4976 47.74-66.3796 51-64.2036ZM89.06-47.8966C92.98-47.8966 96.16-44.7176 96.16-40.7966L96.16-33.7966C96.16-29.8746 92.98-26.6966 89.06-26.6966C85.14-26.6966 81.96-29.8746 81.96-33.7966L81.96-40.7966C81.96-44.7176 85.14-47.8966 89.06-47.8966Z"/>
   <path class="hierarchical-1:primary SFSymbolsPreview212121" d="M19.16-51.1966L30.23-51.1966C34.15-51.1966 37.33-54.3746 37.33-58.2966C37.33-62.2176 34.15-65.3966 30.23-65.3966L19.06-65.3966C15.32-65.3966 11.73-63.9106 9.09-61.2666C6.45-58.6226 4.96-55.0356 4.96-51.2966L4.96-23.2966C4.96-19.5566 6.45-15.9706 9.09-13.3256C11.73-10.6815 15.32-9.19652 19.06-9.19652L26.06-9.19652C29.98-9.19652 33.16-12.3746 33.16-16.2966C33.16-20.2176 29.98-23.3966 26.06-23.3966L19.16-23.3966L19.16-51.1966ZM53.96-58.2966C53.96-62.2176 57.14-65.3966 61.06-65.3966L68.06-65.3966C71.8-65.3966 75.39-63.9106 78.03-61.2666C80.68-58.6226 82.16-55.0356 82.16-51.2966L82.16-23.2966C82.16-19.5566 80.68-15.9706 78.03-13.3256C75.39-10.6815 71.8-9.19652 68.06-9.19652L56.9-9.19652C52.97-9.19652 49.8-12.3746 49.8-16.2966C49.8-20.2176 52.97-23.3966 56.9-23.3966L67.96-23.3966L67.96-51.1966L61.06-51.1966C57.14-51.1966 53.96-54.3746 53.96-58.2966Z"/>
  </g>
  <g id="Heavy-S" transform="matrix(1 0 0 1 2587.13 696)">
   <path class="hierarchical-0:secondary SFSymbolsPreview4D4D4D" d="M49.68-63.2612C52.55-61.3462 53.33-57.4662 51.41-54.5932L43.89-43.3102L53.21-43.3102C55.52-43.3102 57.63-42.0422 58.72-40.0092C59.81-37.9772 59.69-35.5112 58.41-33.5932L44.41-12.5932C42.5-9.7213 38.62-8.9453 35.74-10.8603C32.87-12.7752 32.1-16.6552 34.01-19.5272L41.53-30.8102L32.21-30.8102C29.91-30.8102 27.79-32.0792 26.7-34.1112C25.61-36.1432 25.73-38.6092 27.01-40.5272L41.01-61.5272C42.93-64.3992 46.81-65.1752 49.68-63.2612ZM88.21-46.8102C91.66-46.8102 94.46-44.0122 94.46-40.5602L94.46-33.5602C94.46-30.1082 91.66-27.3102 88.21-27.3102C84.76-27.3102 81.96-30.1082 81.96-33.5602L81.96-40.5602C81.96-44.0122 84.76-46.8102 88.21-46.8102Z"/>
   <path class="hierarchical-1:primary SFSymbolsPreview212121" d="M18.21-51.8102C18.01-51.8102 17.82-51.7312 17.68-51.5902C17.54-51.4502 17.46-51.2592 17.46-51.0602L17.46-23.0602C17.46-22.8612 17.54-22.6702 17.68-22.5302C17.82-22.3892 18.01-22.3102 18.21-22.3102L25.21-22.3102C28.66-22.3102 31.46-19.5122 31.46-16.0602C31.46-12.6082 28.66-9.8103 25.21-9.8103L18.21-9.8103C14.7-9.8103 11.33-11.2062 8.84-13.6912C6.36-16.1762 4.96-19.5462 4.96-23.0602L4.96-51.0602C4.96-54.5742 6.36-57.9442 8.84-60.4292C11.33-62.9142 14.7-64.3102 18.21-64.3102L29.38-64.3102C32.83-64.3102 35.63-61.5122 35.63-58.0602C35.63-54.6082 32.83-51.8102 29.38-51.8102L18.21-51.8102ZM53.96-58.0602C53.96-61.5122 56.76-64.3102 60.21-64.3102L67.21-64.3102C70.73-64.3102 74.1-62.9142 76.58-60.4292C79.07-57.9442 80.46-54.5742 80.46-51.0602L80.46-23.0602C80.46-19.5462 79.07-16.1762 76.58-13.6912C74.1-11.2062 70.73-9.8103 67.21-9.8103L56.05-9.8103C52.59-9.8103 49.8-12.6082 49.8-16.0602C49.8-19.5122 52.59-22.3102 56.05-22.3102L67.21-22.3102C67.41-22.3102 67.6-22.3892 67.74-22.5302C67.88-22.6702 67.96-22.8612 67.96-23.0602L67.96-51.0602C67.96-51.2592 67.88-51.4502 67.74-51.5902C67.6-51.7312 67.41-51.8102 67.21-51.8102L60.21-51.8102C56.76-51.8102 53.96-54.6082 53.96-58.0602Z"/>
  </g>
  <g id="Bold-S" transform="matrix(1 0 0 1 2291.37 696)">
   <path class="hierarchical-0:secondary SFSymbolsPreview4D4D4D" d="M48.2-62.003C50.64-60.379 51.3-57.089 49.67-54.653L41.17-41.893L52.26-41.893C54.22-41.893 56.01-40.817 56.94-39.094C57.86-37.371 57.76-35.28 56.67-33.653L42.67-12.653C41.05-10.2181 37.76-9.56008 35.32-11.183C32.89-12.807 32.23-16.098 33.85-18.533L42.36-31.293L31.26-31.293C29.31-31.293 27.51-32.369 26.59-34.092C25.67-35.816 25.77-37.907 26.85-39.533L40.85-60.533C42.48-62.969 45.77-63.627 48.2-62.003ZM87.26-45.393C90.19-45.393 92.56-43.02 92.56-40.093L92.56-33.093C92.56-30.166 90.19-27.793 87.26-27.793C84.34-27.793 81.96-30.166 81.96-33.093L81.96-40.093C81.96-43.02 84.34-45.393 87.26-45.393Z"/>
   <path class="hierarchical-1:primary SFSymbolsPreview212121" d="M17.26-52.293C16.81-52.293 16.38-52.114 16.06-51.795C15.74-51.476 15.56-51.044 15.56-50.593L15.56-22.593C15.56-22.142 15.74-21.709 16.06-21.391C16.38-21.072 16.81-20.893 17.26-20.893L24.26-20.893C27.19-20.893 29.56-18.52 29.56-15.593C29.56-12.666 27.19-10.2931 24.26-10.2931L17.26-10.2931C14-10.2931 10.87-11.589 8.57-13.895C6.26-16.202 4.96-19.331 4.96-22.593L4.96-50.593C4.96-53.855 6.26-56.983 8.57-59.29C10.87-61.597 14-62.893 17.26-62.893L28.43-62.893C31.36-62.893 33.73-60.52 33.73-57.593C33.73-54.666 31.36-52.293 28.43-52.293L17.26-52.293ZM53.96-57.593C53.96-60.52 56.34-62.893 59.26-62.893L66.26-62.893C69.53-62.893 72.65-61.597 74.96-59.29C77.27-56.983 78.56-53.855 78.56-50.593L78.56-22.593C78.56-19.331 77.27-16.202 74.96-13.895C72.65-11.589 69.53-10.2931 66.26-10.2931L55.1-10.2931C52.17-10.2931 49.8-12.666 49.8-15.593C49.8-18.52 52.17-20.893 55.1-20.893L66.26-20.893C66.71-20.893 67.15-21.072 67.47-21.391C67.78-21.709 67.96-22.142 67.96-22.593L67.96-50.593C67.96-51.044 67.78-51.476 67.47-51.795C67.15-52.114 66.71-52.293 66.26-52.293L59.26-52.293C56.34-52.293 53.96-54.666 53.96-57.593Z"/>
  </g>
  <g id="Semibold-S" transform="matrix(1 0 0 1 1995.31 696)">
   <path class="hierarchical-0:secondary SFSymbolsPreview4D4D4D" d="M47.19-61.2816C49.33-59.8566 49.9-56.9696 48.48-54.8326L39.3-41.0626L51.61-41.0626C53.32-41.0626 54.9-40.1186 55.71-38.6066C56.52-37.0946 56.43-35.2596 55.48-33.8326L41.48-12.8326C40.05-10.6966 37.17-10.1187 35.03-11.5436C32.89-12.9676 32.32-15.8546 33.74-17.9916L42.92-31.7626L30.61-31.7626C28.89-31.7626 27.32-32.7066 26.51-34.2186C25.7-35.7306 25.79-37.5646 26.74-38.9916L40.74-59.9916C42.17-62.1286 45.05-62.7056 47.19-61.2816ZM86.61-44.5626C89.18-44.5626 91.26-42.4806 91.26-39.9126L91.26-32.9126C91.26-30.3446 89.18-28.2626 86.61-28.2626C84.04-28.2626 81.96-30.3446 81.96-32.9126L81.96-39.9126C81.96-42.4806 84.04-44.5626 86.61-44.5626Z"/>
   <path class="hierarchical-1:primary SFSymbolsPreview212121" d="M16.61-52.7626C15.99-52.7626 15.39-52.5156 14.95-52.0746C14.51-51.6336 14.26-51.0366 14.26-50.4126L14.26-22.4126C14.26-21.7896 14.51-21.1916 14.95-20.7516C15.39-20.3106 15.99-20.0626 16.61-20.0626L23.61-20.0626C26.18-20.0626 28.26-17.9806 28.26-15.4126C28.26-12.8446 26.18-10.7626 23.61-10.7626L16.61-10.7626C13.52-10.7626 10.56-11.9906 8.37-14.1756C6.19-16.3596 4.96-19.3236 4.96-22.4126L4.96-50.4126C4.96-53.5026 6.19-56.4656 8.37-58.6506C10.56-60.8356 13.52-62.0626 16.61-62.0626L27.77-62.0626C30.34-62.0626 32.42-59.9806 32.42-57.4126C32.42-54.8446 30.34-52.7626 27.77-52.7626L16.61-52.7626ZM53.96-57.4126C53.96-59.9806 56.04-62.0626 58.61-62.0626L65.61-62.0626C68.7-62.0626 71.66-60.8356 73.85-58.6506C76.03-56.4656 77.26-53.5026 77.26-50.4126L77.26-22.4126C77.26-19.3236 76.03-16.3596 73.85-14.1756C71.66-11.9906 68.7-10.7626 65.61-10.7626L54.44-10.7626C51.88-10.7626 49.79-12.8446 49.79-15.4126C49.79-17.9806 51.88-20.0626 54.44-20.0626L65.61-20.0626C66.23-20.0626 66.83-20.3106 67.27-20.7516C67.71-21.1916 67.96-21.7896 67.96-22.4126L67.96-50.4126C67.96-51.0366 67.71-51.6336 67.27-52.0746C66.83-52.5156 66.23-52.7626 65.61-52.7626L58.61-52.7626C56.04-52.7626 53.96-54.8446 53.96-57.4126Z"/>
  </g>
  <g id="Medium-S" transform="matrix(1 0 0 1 1699.1 696)">
   <path class="hierarchical-0:secondary SFSymbolsPreview4D4D4D" d="M46.41-60.7274C48.32-59.4564 48.83-56.8794 47.56-54.9724L37.86-40.4244L51.11-40.4244C52.64-40.4244 54.05-39.5824 54.77-38.2324C55.49-36.8834 55.41-35.2454 54.56-33.9724L40.56-12.9724C39.29-11.0654 36.71-10.5505 34.81-11.8214C32.9-13.0924 32.39-15.6694 33.66-17.5764L43.36-32.1244L30.11-32.1244C28.58-32.1244 27.17-32.9664 26.45-34.3164C25.73-35.6654 25.81-37.3024 26.66-38.5764L40.66-59.5764C41.93-61.4834 44.5-61.9984 46.41-60.7274ZM86.11-43.9244C88.4-43.9244 90.26-42.0664 90.26-39.7744L90.26-32.7744C90.26-30.4824 88.4-28.6244 86.11-28.6244C83.82-28.6244 81.96-30.4824 81.96-32.7744L81.96-39.7744C81.96-42.0664 83.82-43.9244 86.11-43.9244Z"/>
   <path class="hierarchical-1:primary SFSymbolsPreview212121" d="M16.11-53.1244C15.35-53.1244 14.63-52.8244 14.09-52.2904C13.56-51.7554 13.26-51.0304 13.26-50.2744L13.26-22.2744C13.26-21.5184 13.56-20.7944 14.09-20.2594C14.63-19.7254 15.35-19.4244 16.11-19.4244L23.11-19.4244C25.4-19.4244 27.26-17.5664 27.26-15.2744C27.26-12.9824 25.4-11.1244 23.11-11.1244L16.11-11.1244C13.15-11.1244 10.32-12.2994 8.23-14.3904C6.13-16.4814 4.96-19.3174 4.96-22.2744L4.96-50.2744C4.96-53.2324 6.13-56.0684 8.23-58.1594C10.32-60.2504 13.15-61.4244 16.11-61.4244L27.27-61.4244C29.57-61.4244 31.42-59.5664 31.42-57.2744C31.42-54.9824 29.57-53.1244 27.27-53.1244L16.11-53.1244ZM53.96-57.2744C53.96-59.5664 55.82-61.4244 58.11-61.4244L65.11-61.4244C68.07-61.4244 70.9-60.2504 72.99-58.1594C75.08-56.0684 76.26-53.2324 76.26-50.2744L76.26-22.2744C76.26-19.3174 75.08-16.4814 72.99-14.3904C70.9-12.2994 68.07-11.1244 65.11-11.1244L53.94-11.1244C51.65-11.1244 49.79-12.9824 49.79-15.2744C49.79-17.5664 51.65-19.4244 53.94-19.4244L65.11-19.4244C65.87-19.4244 66.59-19.7254 67.12-20.2594C67.66-20.7944 67.96-21.5184 67.96-22.2744L67.96-50.2744C67.96-51.0304 67.66-51.7554 67.12-52.2904C66.59-52.8244 65.87-53.1244 65.11-53.1244L58.11-53.1244C55.82-53.1244 53.96-54.9824 53.96-57.2744Z"/>
  </g>
  <g id="Regular-S" transform="matrix(1 0 0 1 1403.04 696)">
   <path class="hierarchical-0:secondary SFSymbolsPreview4D4D4D" d="M45.4-60.007C47.01-58.935 47.44-56.761 46.37-55.153L36-39.595L50.46-39.595C51.75-39.595 52.94-38.884 53.55-37.746C54.15-36.608 54.09-35.227 53.37-34.153L39.37-13.153C38.3-11.545 36.13-11.11 34.52-12.182C32.91-13.255 32.48-15.428 33.55-17.036L43.92-32.595L29.46-32.595C28.17-32.595 26.98-33.305 26.37-34.443C25.77-35.581 25.83-36.962 26.55-38.036L40.55-59.036C41.62-60.644 43.79-61.079 45.4-60.007ZM85.46-43.095C87.39-43.095 88.96-41.528 88.96-39.595L88.96-32.595C88.96-30.662 87.39-29.095 85.46-29.095C83.53-29.095 81.96-30.662 81.96-32.595L81.96-39.595C81.96-41.528 83.53-43.095 85.46-43.095Z"/>
   <path class="hierarchical-1:primary SFSymbolsPreview212121" d="M15.46-53.595C14.53-53.595 13.64-53.226 12.99-52.57C12.33-51.913 11.96-51.023 11.96-50.095L11.96-22.095C11.96-21.167 12.33-20.276 12.99-19.62C13.64-18.964 14.53-18.595 15.46-18.595L22.46-18.595C24.39-18.595 25.96-17.028 25.96-15.095C25.96-13.162 24.39-11.595 22.46-11.595L15.46-11.595C12.68-11.595 10-12.701 8.04-14.67C6.07-16.639 4.96-19.31 4.96-22.095L4.96-50.095C4.96-52.88 6.07-55.55 8.04-57.52C10-59.489 12.68-60.595 15.46-60.595L26.63-60.595C28.56-60.595 30.13-59.028 30.13-57.095C30.13-55.162 28.56-53.595 26.63-53.595L15.46-53.595ZM53.96-57.095C53.96-59.028 55.53-60.595 57.46-60.595L64.46-60.595C67.24-60.595 69.92-59.489 71.88-57.52C73.85-55.55 74.96-52.88 74.96-50.095L74.96-22.095C74.96-19.31 73.85-16.639 71.88-14.67C69.92-12.701 67.24-11.595 64.46-11.595L53.3-11.595C51.36-11.595 49.8-13.162 49.8-15.095C49.8-17.028 51.36-18.595 53.3-18.595L64.46-18.595C65.39-18.595 66.28-18.964 66.93-19.62C67.59-20.276 67.96-21.167 67.96-22.095L67.96-50.095C67.96-51.023 67.59-51.913 66.93-52.57C66.28-53.226 65.39-53.595 64.46-53.595L57.46-53.595C55.53-53.595 53.96-55.162 53.96-57.095Z"/>
  </g>
  <g id="Light-S" transform="matrix(1 0 0 1 1107.13 696)">
   <path class="hierarchical-0:secondary SFSymbolsPreview4D4D4D" d="M44.16-59.1206C45.4-58.2936 45.73-56.6176 44.91-55.3766L33.71-38.5746L49.66-38.5746C50.66-38.5746 51.57-38.0266 52.04-37.1486C52.51-36.2706 52.46-35.2056 51.91-34.3766L37.91-13.3766C37.08-12.1356 35.4-11.8006 34.16-12.6276C32.92-13.4546 32.59-15.1316 33.41-16.3726L44.62-33.1746L28.66-33.1746C27.67-33.1746 26.75-33.7226 26.28-34.6006C25.81-35.4786 25.86-36.5436 26.41-37.3726L40.41-58.3726C41.24-59.6126 42.92-59.9486 44.16-59.1206ZM84.66-42.0746C86.15-42.0746 87.36-40.8656 87.36-39.3746L87.36-32.3746C87.36-30.8836 86.15-29.6746 84.66-29.6746C83.17-29.6746 81.96-30.8836 81.96-32.3746L81.96-39.3746C81.96-40.8656 83.17-42.0746 84.66-42.0746Z"/>
   <path class="hierarchical-1:primary SFSymbolsPreview212121" d="M14.66-54.1746C13.52-54.1746 12.43-53.7216 11.62-52.9156C10.81-52.1086 10.36-51.0156 10.36-49.8746L10.36-21.8746C10.36-20.7346 10.81-19.6406 11.62-18.8346C12.43-18.0276 13.52-17.5746 14.66-17.5746L21.66-17.5746C23.15-17.5746 24.36-16.3656 24.36-14.8746C24.36-13.3836 23.15-12.1746 21.66-12.1746L14.66-12.1746C12.09-12.1746 9.62-13.1966 7.8-15.0156C5.98-16.8346 4.96-19.3026 4.96-21.8746L4.96-49.8746C4.96-52.4476 5.98-54.9146 7.8-56.7336C9.62-58.5526 12.09-59.5746 14.66-59.5746L25.83-59.5746C27.32-59.5746 28.53-58.3656 28.53-56.8746C28.53-55.3836 27.32-54.1746 25.83-54.1746L14.66-54.1746ZM53.96-56.8746C53.96-58.3656 55.17-59.5746 56.66-59.5746L63.66-59.5746C66.23-59.5746 68.7-58.5526 70.52-56.7336C72.34-54.9146 73.36-52.4476 73.36-49.8746L73.36-21.8746C73.36-19.3026 72.34-16.8346 70.52-15.0156C68.7-13.1966 66.23-12.1746 63.66-12.1746L52.5-12.1746C51-12.1746 49.8-13.3836 49.8-14.8746C49.8-16.3656 51-17.5746 52.5-17.5746L63.66-17.5746C64.8-17.5746 65.89-18.0276 66.7-18.8346C67.51-19.6406 67.96-20.7346 67.96-21.8746L67.96-49.8746C67.96-51.0156 67.51-52.1086 66.7-52.9156C65.89-53.7216 64.8-54.1746 63.66-54.1746L56.66-54.1746C55.17-54.1746 53.96-55.3836 53.96-56.8746Z"/>
  </g>
  <g id="Thin-S" transform="matrix(1 0 0 1 811.467 696)">
   <path class="hierarchical-0:secondary SFSymbolsPreview4D4D4D" d="M42.525-57.9568C43.283-57.4518 43.488-56.4268 42.982-55.6688L30.693-37.2338L48.61-37.2338C49.218-37.2338 49.777-36.8988 50.064-36.3628C50.352-35.8258 50.32-35.1748 49.982-34.6688L35.982-13.6688C35.477-12.9108 34.453-12.7058 33.694-13.2108C32.936-13.7168 32.731-14.7408 33.237-15.4988L45.527-33.9338L27.61-33.9338C27.001-33.9338 26.442-34.2688 26.155-34.8058C25.868-35.3418 25.899-35.9928 26.237-36.4988L40.237-57.4988C40.742-58.2578 41.767-58.4628 42.525-57.9568ZM83.61-40.7338C84.521-40.7338 85.26-39.9958 85.26-39.0838L85.26-32.0838C85.26-31.1728 84.521-30.4338 83.61-30.4338C82.698-30.4338 81.96-31.1728 81.96-32.0838L81.96-39.0838C81.96-39.9958 82.698-40.7338 83.61-40.7338Z"/>
   <path class="hierarchical-1:primary SFSymbolsPreview212121" d="M13.61-54.9338C12.191-54.9338 10.83-54.3708 9.827-53.3668C8.823-52.3638 8.26-51.0028 8.26-49.5838L8.26-21.5838C8.26-20.1648 8.823-18.8048 9.827-17.8008C10.83-16.7978 12.191-16.2338 13.61-16.2338L20.61-16.2338C21.521-16.2338 22.26-15.4958 22.26-14.5838C22.26-13.6728 21.521-12.9338 20.61-12.9338L13.61-12.9338C11.315-12.9338 9.115-13.8458 7.493-15.4678C5.871-17.0898 4.96-19.2898 4.96-21.5838L4.96-49.5838C4.96-51.8778 5.871-54.0788 7.493-55.7008C9.115-57.3228 11.315-58.2338 13.61-58.2338L24.775-58.2338C25.686-58.2338 26.425-57.4958 26.425-56.5838C26.425-55.6728 25.686-54.9338 24.775-54.9338L13.61-54.9338ZM53.96-56.5838C53.96-57.4958 54.698-58.2338 55.61-58.2338L62.61-58.2338C64.904-58.2338 67.104-57.3228 68.726-55.7008C70.348-54.0788 71.26-51.8778 71.26-49.5838L71.26-21.5838C71.26-19.2898 70.348-17.0898 68.726-15.4678C67.104-13.8458 64.904-12.9338 62.61-12.9338L51.445-12.9338C50.533-12.9338 49.795-13.6728 49.795-14.5838C49.795-15.4958 50.533-16.2338 51.445-16.2338L62.61-16.2338C64.029-16.2338 65.389-16.7978 66.393-17.8008C67.396-18.8048 67.96-20.1648 67.96-21.5838L67.96-49.5838C67.96-51.0028 67.396-52.3638 66.393-53.3668C65.389-54.3708 64.029-54.9338 62.61-54.9338L55.61-54.9338C54.698-54.9338 53.96-55.6728 53.96-56.5838Z"/>
  </g>
  <g id="Ultralight-S" transform="matrix(1 0 0 1 515.306 696)">
   <path class="hierarchical-0:secondary SFSymbolsPreview4D4D4D" d="M41.671-57.3474C42.176-57.0104 42.313-56.3274 41.976-55.8214L29.116-36.5314L48.06-36.5314C48.466-36.5314 48.839-36.3084 49.03-35.9504C49.222-35.5934 49.201-35.1594 48.976-34.8214L34.976-13.8214C34.639-13.3164 33.956-13.1794 33.45-13.5164C32.945-13.8534 32.808-14.5364 33.145-15.0424L46.005-34.3314L27.06-34.3314C26.655-34.3314 26.282-34.5554 26.091-34.9124C25.899-35.2704 25.92-35.7044 26.145-36.0424L40.145-57.0424C40.482-57.5474 41.165-57.6844 41.671-57.3474ZM83.06-40.0314C83.668-40.0314 84.16-39.5384 84.16-38.9314L84.16-31.9314C84.16-31.3234 83.668-30.8314 83.06-30.8314C82.453-30.8314 81.96-31.3234 81.96-31.9314L81.96-38.9314C81.96-39.5384 82.453-40.0314 83.06-40.0314Z"/>
   <path class="hierarchical-1:primary SFSymbolsPreview212121" d="M13.06-55.3314C11.496-55.3314 9.995-54.7094 8.888-53.6024C7.782-52.4964 7.16-50.9954 7.16-49.4314L7.16-21.4314C7.16-19.8664 7.782-18.3654 8.888-17.2594C9.995-16.1524 11.496-15.5314 13.06-15.5314L20.06-15.5314C20.668-15.5314 21.16-15.0384 21.16-14.4314C21.16-13.8234 20.668-13.3314 20.06-13.3314L13.06-13.3314C10.912-13.3314 8.852-14.1844 7.333-15.7034C5.814-17.2224 4.96-19.2824 4.96-21.4314L4.96-49.4314C4.96-51.5794 5.814-53.6394 7.333-55.1584C8.852-56.6774 10.912-57.5314 13.06-57.5314L24.225-57.5314C24.833-57.5314 25.325-57.0384 25.325-56.4314C25.325-55.8234 24.833-55.3314 24.225-55.3314L13.06-55.3314ZM53.96-56.4314C53.96-57.0384 54.453-57.5314 55.06-57.5314L62.06-57.5314C64.209-57.5314 66.269-56.6774 67.788-55.1584C69.307-53.6394 70.16-51.5794 70.16-49.4314L70.16-21.4314C70.16-19.2824 69.307-17.2224 67.788-15.7034C66.269-14.1844 64.209-13.3314 62.06-13.3314L50.895-13.3314C50.288-13.3314 49.795-13.8234 49.795-14.4314C49.795-15.0384 50.288-15.5314 50.895-15.5314L62.06-15.5314C63.625-15.5314 65.126-16.1524 66.232-17.2594C67.339-18.3654 67.96-19.8664 67.96-21.4314L67.96-49.4314C67.96-50.9954 67.339-52.4964 66.232-53.6024C65.126-54.7094 63.625-55.3314 62.06-55.3314L55.06-55.3314C54.453-55.3314 53.96-55.8234 53.96-56.4314Z"/>
  </g>
 </g>
</svg>
