<?xml version="1.0" encoding="UTF-8"?>
<!--Generator: Apple Native CoreSVG 175-->
<!DOCTYPE svg
PUBLIC "-//W3C//DTD SVG 1.1//EN"
       "http://www.w3.org/Graphics/SVG/1.1/DTD/svg11.dtd">
<svg version="1.1" xmlns="http://www.w3.org/2000/svg" xmlns:xlink="http://www.w3.org/1999/xlink" width="3300" height="2200">
 <!--glyph: "", point size: 100.0, font version: "17.0d12e1", template writer version: "65.1"-->
 <g id="Notes">
  <rect height="2200" id="artboard" style="fill:white;opacity:1" width="3300" x="0" y="0"/>
  <line style="fill:none;stroke:black;opacity:1;stroke-width:0.5;" x1="263" x2="3036" y1="292" y2="292"/>
  <text style="stroke:none;fill:black;font-family:sans-serif;font-size:13;font-weight:bold;" transform="matrix(1 0 0 1 263 322)">Weight/Scale Variations</text>
  <text style="stroke:none;fill:black;font-family:sans-serif;font-size:13;text-anchor:middle;" transform="matrix(1 0 0 1 559.711 322)">Ultralight</text>
  <text style="stroke:none;fill:black;font-family:sans-serif;font-size:13;text-anchor:middle;" transform="matrix(1 0 0 1 856.422 322)">Thin</text>
  <text style="stroke:none;fill:black;font-family:sans-serif;font-size:13;text-anchor:middle;" transform="matrix(1 0 0 1 1153.13 322)">Light</text>
  <text style="stroke:none;fill:black;font-family:sans-serif;font-size:13;text-anchor:middle;" transform="matrix(1 0 0 1 1449.84 322)">Regular</text>
  <text style="stroke:none;fill:black;font-family:sans-serif;font-size:13;text-anchor:middle;" transform="matrix(1 0 0 1 1746.56 322)">Medium</text>
  <text style="stroke:none;fill:black;font-family:sans-serif;font-size:13;text-anchor:middle;" transform="matrix(1 0 0 1 2043.27 322)">Semibold</text>
  <text style="stroke:none;fill:black;font-family:sans-serif;font-size:13;text-anchor:middle;" transform="matrix(1 0 0 1 2339.98 322)">Bold</text>
  <text style="stroke:none;fill:black;font-family:sans-serif;font-size:13;text-anchor:middle;" transform="matrix(1 0 0 1 2636.69 322)">Heavy</text>
  <text style="stroke:none;fill:black;font-family:sans-serif;font-size:13;text-anchor:middle;" transform="matrix(1 0 0 1 2933.4 322)">Black</text>
  <line style="fill:none;stroke:black;opacity:1;stroke-width:0.5;" x1="263" x2="3036" y1="1903" y2="1903"/>
  <g transform="matrix(1 0 0 1 263 1933)">
   <path d="M9.24805 0.830078Q10.8691 0.830078 12.2949 0.214844Q13.7207-0.400391 14.8096-1.49414Q15.8984-2.58789 16.5186-4.01367Q17.1387-5.43945 17.1387-7.05078Q17.1387-8.66211 16.5186-10.0879Q15.8984-11.5137 14.8047-12.6074Q13.7109-13.7012 12.2852-14.3164Q10.8594-14.9316 9.23828-14.9316Q7.62695-14.9316 6.20117-14.3164Q4.77539-13.7012 3.69141-12.6074Q2.60742-11.5137 1.9873-10.0879Q1.36719-8.66211 1.36719-7.05078Q1.36719-5.43945 1.9873-4.01367Q2.60742-2.58789 3.69629-1.49414Q4.78516-0.400391 6.21094 0.214844Q7.63672 0.830078 9.24805 0.830078ZM9.24805-0.654297Q7.91992-0.654297 6.7627-1.14746Q5.60547-1.64062 4.73145-2.51953Q3.85742-3.39844 3.36426-4.56055Q2.87109-5.72266 2.87109-7.05078Q2.87109-8.37891 3.35938-9.54102Q3.84766-10.7031 4.72168-11.582Q5.5957-12.4609 6.75293-12.9541Q7.91016-13.4473 9.23828-13.4473Q10.5762-13.4473 11.7334-12.9541Q12.8906-12.4609 13.7695-11.582Q14.6484-10.7031 15.1465-9.54102Q15.6445-8.37891 15.6445-7.05078Q15.6445-5.72266 15.1514-4.56055Q14.6582-3.39844 13.7842-2.51953Q12.9102-1.64062 11.748-1.14746Q10.5859-0.654297 9.24805-0.654297ZM5.6543-7.05078Q5.6543-6.72852 5.85938-6.52832Q6.06445-6.32812 6.40625-6.32812L8.51562-6.32812L8.51562-4.20898Q8.51562-3.88672 8.71094-3.67676Q8.90625-3.4668 9.23828-3.4668Q9.56055-3.4668 9.77051-3.67676Q9.98047-3.88672 9.98047-4.20898L9.98047-6.32812L12.0898-6.32812Q12.4219-6.32812 12.627-6.52832Q12.832-6.72852 12.832-7.05078Q12.832-7.38281 12.627-7.58789Q12.4219-7.79297 12.0898-7.79297L9.98047-7.79297L9.98047-9.90234Q9.98047-10.2344 9.77051-10.4443Q9.56055-10.6543 9.23828-10.6543Q8.90625-10.6543 8.71094-10.4443Q8.51562-10.2344 8.51562-9.90234L8.51562-7.79297L6.40625-7.79297Q6.06445-7.79297 5.85938-7.58789Q5.6543-7.38281 5.6543-7.05078Z"/>
  </g>
  <g transform="matrix(1 0 0 1 281.867 1933)">
   <path d="M11.709 2.91016Q13.75 2.91016 15.5518 2.12891Q17.3535 1.34766 18.7305-0.0292969Q20.1074-1.40625 20.8887-3.20801Q21.6699-5.00977 21.6699-7.05078Q21.6699-9.0918 20.8887-10.8936Q20.1074-12.6953 18.7305-14.0723Q17.3535-15.4492 15.5469-16.2305Q13.7402-17.0117 11.6992-17.0117Q9.6582-17.0117 7.85645-16.2305Q6.05469-15.4492 4.68262-14.0723Q3.31055-12.6953 2.5293-10.8936Q1.74805-9.0918 1.74805-7.05078Q1.74805-5.00977 2.5293-3.20801Q3.31055-1.40625 4.6875-0.0292969Q6.06445 1.34766 7.86621 2.12891Q9.66797 2.91016 11.709 2.91016ZM11.709 1.25Q9.98047 1.25 8.47656 0.605469Q6.97266-0.0390625 5.83496-1.17676Q4.69727-2.31445 4.05762-3.81836Q3.41797-5.32227 3.41797-7.05078Q3.41797-8.7793 4.05762-10.2832Q4.69727-11.7871 5.83008-12.9297Q6.96289-14.0723 8.4668-14.7119Q9.9707-15.3516 11.6992-15.3516Q13.4277-15.3516 14.9316-14.7119Q16.4355-14.0723 17.5781-12.9297Q18.7207-11.7871 19.3652-10.2832Q20.0098-8.7793 20.0098-7.05078Q20.0098-5.32227 19.3701-3.81836Q18.7305-2.31445 17.5928-1.17676Q16.4551-0.0390625 14.9463 0.605469Q13.4375 1.25 11.709 1.25ZM7.17773-7.05078Q7.17773-6.69922 7.41211-6.47461Q7.64648-6.25 8.01758-6.25L10.8887-6.25L10.8887-3.36914Q10.8887-2.99805 11.1133-2.76855Q11.3379-2.53906 11.6895-2.53906Q12.0605-2.53906 12.29-2.76855Q12.5195-2.99805 12.5195-3.36914L12.5195-6.25L15.4004-6.25Q15.7715-6.25 16.001-6.47461Q16.2305-6.69922 16.2305-7.05078Q16.2305-7.42188 16.001-7.65137Q15.7715-7.88086 15.4004-7.88086L12.5195-7.88086L12.5195-10.752Q12.5195-11.1328 12.29-11.3623Q12.0605-11.5918 11.6895-11.5918Q11.3379-11.5918 11.1133-11.3574Q10.8887-11.123 10.8887-10.752L10.8887-7.88086L8.01758-7.88086Q7.63672-7.88086 7.40723-7.65137Q7.17773-7.42188 7.17773-7.05078Z"/>
  </g>
  <g transform="matrix(1 0 0 1 305.646 1933)">
   <path d="M14.9707 5.66406Q17.0605 5.66406 18.96 5.01465Q20.8594 4.36523 22.4512 3.19336Q24.043 2.02148 25.2197 0.429688Q26.3965-1.16211 27.0459-3.06641Q27.6953-4.9707 27.6953-7.05078Q27.6953-9.14062 27.0459-11.04Q26.3965-12.9395 25.2197-14.5312Q24.043-16.123 22.4512-17.2998Q20.8594-18.4766 18.9551-19.126Q17.0508-19.7754 14.9609-19.7754Q12.8711-19.7754 10.9717-19.126Q9.07227-18.4766 7.48535-17.2998Q5.89844-16.123 4.72168-14.5312Q3.54492-12.9395 2.90039-11.04Q2.25586-9.14062 2.25586-7.05078Q2.25586-4.9707 2.90527-3.06641Q3.55469-1.16211 4.72656 0.429688Q5.89844 2.02148 7.49023 3.19336Q9.08203 4.36523 10.9814 5.01465Q12.8809 5.66406 14.9707 5.66406ZM14.9707 3.84766Q13.1641 3.84766 11.5283 3.2959Q9.89258 2.74414 8.53516 1.74805Q7.17773 0.751953 6.17676-0.610352Q5.17578-1.97266 4.62891-3.6084Q4.08203-5.24414 4.08203-7.05078Q4.08203-8.86719 4.62891-10.5029Q5.17578-12.1387 6.17188-13.501Q7.16797-14.8633 8.52539-15.8594Q9.88281-16.8555 11.5186-17.4023Q13.1543-17.9492 14.9609-17.9492Q16.7773-17.9492 18.4131-17.4023Q20.0488-16.8555 21.4111-15.8594Q22.7734-14.8633 23.7695-13.501Q24.7656-12.1387 25.3174-10.5029Q25.8691-8.86719 25.8691-7.05078Q25.8789-5.24414 25.332-3.6084Q24.7852-1.97266 23.7842-0.610352Q22.7832 0.751953 21.4209 1.74805Q20.0586 2.74414 18.4229 3.2959Q16.7871 3.84766 14.9707 3.84766ZM9.19922-7.05078Q9.19922-6.66992 9.45801-6.4209Q9.7168-6.17188 10.1172-6.17188L14.0625-6.17188L14.0625-2.2168Q14.0625-1.81641 14.3115-1.55762Q14.5605-1.29883 14.9512-1.29883Q15.3516-1.29883 15.6104-1.55273Q15.8691-1.80664 15.8691-2.2168L15.8691-6.17188L19.8242-6.17188Q20.2246-6.17188 20.4785-6.4209Q20.7324-6.66992 20.7324-7.05078Q20.7324-7.46094 20.4785-7.71484Q20.2246-7.96875 19.8242-7.96875L15.8691-7.96875L15.8691-11.9141Q15.8691-12.3242 15.6104-12.583Q15.3516-12.8418 14.9512-12.8418Q14.5605-12.8418 14.3115-12.583Q14.0625-12.3242 14.0625-11.9141L14.0625-7.96875L10.1172-7.96875Q9.70703-7.96875 9.45312-7.71484Q9.19922-7.46094 9.19922-7.05078Z"/>
  </g>
  <text style="stroke:none;fill:black;font-family:sans-serif;font-size:13;font-weight:bold;" transform="matrix(1 0 0 1 263 1953)">Design Variations</text>
  <text style="stroke:none;fill:black;font-family:sans-serif;font-size:13;" transform="matrix(1 0 0 1 263 1971)">Symbols are supported in up to nine weights and three scales.</text>
  <text style="stroke:none;fill:black;font-family:sans-serif;font-size:13;" transform="matrix(1 0 0 1 263 1989)">For optimal layout with text and other symbols, vertically align</text>
  <text style="stroke:none;fill:black;font-family:sans-serif;font-size:13;" transform="matrix(1 0 0 1 263 2007)">symbols with the adjacent text.</text>
  <line style="fill:none;stroke:#00AEEF;stroke-width:0.5;opacity:1.0;" x1="776" x2="776" y1="1919" y2="1933"/>
  <g transform="matrix(1 0 0 1 776 1933)">
   <path d="M3.31055 0.15625Q3.70117 0.15625 3.91602-0.00976562Q4.13086-0.175781 4.26758-0.585938L5.52734-4.0332L11.2891-4.0332L12.5488-0.585938Q12.6855-0.175781 12.9004-0.00976562Q13.1152 0.15625 13.4961 0.15625Q13.8867 0.15625 14.1162-0.0585938Q14.3457-0.273438 14.3457-0.644531Q14.3457-0.869141 14.2383-1.17188L9.6582-13.3691Q9.48242-13.8184 9.17969-14.043Q8.87695-14.2676 8.4082-14.2676Q7.5-14.2676 7.17773-13.3789L2.59766-1.16211Q2.49023-0.859375 2.49023-0.634766Q2.49023-0.263672 2.70996-0.0537109Q2.92969 0.15625 3.31055 0.15625ZM6.00586-5.51758L8.37891-12.0898L8.42773-12.0898L10.8008-5.51758Z"/>
  </g>
  <line style="fill:none;stroke:#00AEEF;stroke-width:0.5;opacity:1.0;" x1="793.197" x2="793.197" y1="1919" y2="1933"/>
  <text style="stroke:none;fill:black;font-family:sans-serif;font-size:13;font-weight:bold;" transform="matrix(1 0 0 1 776 1953)">Margins</text>
  <text style="stroke:none;fill:black;font-family:sans-serif;font-size:13;" transform="matrix(1 0 0 1 776 1971)">Leading and trailing margins on the left and right side of each symbol</text>
  <text style="stroke:none;fill:black;font-family:sans-serif;font-size:13;" transform="matrix(1 0 0 1 776 1989)">can be adjusted by modifying the x-location of the margin guidelines.</text>
  <text style="stroke:none;fill:black;font-family:sans-serif;font-size:13;" transform="matrix(1 0 0 1 776 2007)">Modifications are automatically applied proportionally to all</text>
  <text style="stroke:none;fill:black;font-family:sans-serif;font-size:13;" transform="matrix(1 0 0 1 776 2025)">scales and weights.</text>
  <g transform="matrix(1 0 0 1 1289 1933)">
   <path d="M2.8418 1.86523L4.54102 3.57422Q5.18555 4.22852 5.90332 4.17969Q6.62109 4.13086 7.31445 3.35938L18.0078-8.42773L17.041-9.4043L6.42578 2.27539Q6.16211 2.57812 5.89355 2.61719Q5.625 2.65625 5.27344 2.30469L4.10156 1.14258Q3.75 0.791016 3.79395 0.522461Q3.83789 0.253906 4.14062-0.0195312L15.6152-10.8203L14.6387-11.7871L3.04688-0.898438Q2.30469-0.214844 2.25098 0.498047Q2.19727 1.21094 2.8418 1.86523ZM9.25781-16.3281Q8.94531-16.0254 8.90625-15.6348Q8.86719-15.2441 9.04297-14.9512Q9.21875-14.6777 9.55566-14.541Q9.89258-14.4043 10.3809-14.5215Q11.4746-14.7754 12.5977-14.7314Q13.7207-14.6875 14.7949-13.9844L14.209-12.5293Q13.9551-11.9043 14.0674-11.4404Q14.1797-10.9766 14.5801-10.5664L16.875-8.25195Q17.2363-7.88086 17.5781-7.82227Q17.9199-7.76367 18.3398-7.8418L19.4043-8.03711L20.0684-7.36328L20.0293-6.80664Q20-6.43555 20.1221-6.12305Q20.2441-5.81055 20.6055-5.44922L21.3672-4.70703Q21.7285-4.3457 22.1533-4.33105Q22.5781-4.31641 22.9297-4.66797L25.8398-7.58789Q26.1914-7.93945 26.1816-8.35449Q26.1719-8.76953 25.8105-9.13086L25.0391-9.89258Q24.6875-10.2539 24.3799-10.3857Q24.0723-10.5176 23.7109-10.4883L23.1348-10.4395L22.4902-11.0742L22.7344-12.1973Q22.832-12.6172 22.6953-12.9834Q22.5586-13.3496 22.1191-13.7891L19.9219-15.9766Q18.6719-17.2168 17.2607-17.8369Q15.8496-18.457 14.4189-18.4814Q12.9883-18.5059 11.665-17.959Q10.3418-17.4121 9.25781-16.3281ZM10.752-15.957Q11.6602-16.6211 12.7002-16.9043Q13.7402-17.1875 14.8047-17.085Q15.8691-16.9824 16.8701-16.5137Q17.8711-16.0449 18.7012-15.2051L21.1328-12.793Q21.3086-12.6172 21.3525-12.4512Q21.3965-12.2852 21.3379-12.0312L21.0156-10.5469L22.5195-9.0625L23.5059-9.12109Q23.6914-9.13086 23.7891-9.09668Q23.8867-9.0625 24.0332-8.91602L24.6094-8.33984L22.168-5.89844L21.5918-6.47461Q21.4453-6.62109 21.4062-6.71875Q21.3672-6.81641 21.377-7.01172L21.4453-7.98828L19.9512-9.47266L18.4277-9.21875Q18.1836-9.16992 18.042-9.2041Q17.9004-9.23828 17.7148-9.41406L15.7129-11.416Q15.5176-11.5918 15.4932-11.7529Q15.4688-11.9141 15.5859-12.1875L16.4648-14.2773Q15.293-15.3711 13.8281-15.791Q12.3633-16.2109 10.8398-15.7617Q10.7227-15.7324 10.6885-15.8057Q10.6543-15.8789 10.752-15.957Z"/>
  </g>
  <text style="stroke:none;fill:black;font-family:sans-serif;font-size:13;font-weight:bold;" transform="matrix(1 0 0 1 1289 1953)">Exporting</text>
  <text style="stroke:none;fill:black;font-family:sans-serif;font-size:13;" transform="matrix(1 0 0 1 1289 1971)">Symbols should be outlined when exporting to ensure the</text>
  <text style="stroke:none;fill:black;font-family:sans-serif;font-size:13;" transform="matrix(1 0 0 1 1289 1989)">design is preserved when submitting to Xcode.</text>
  <text id="template-version" style="stroke:none;fill:black;font-family:sans-serif;font-size:13;text-anchor:end;" transform="matrix(1 0 0 1 3036 1933)">Template v.3.0</text>
  <text style="stroke:none;fill:black;font-family:sans-serif;font-size:13;text-anchor:end;" transform="matrix(1 0 0 1 3036 1951)">Requires Xcode 13 or greater</text>
  <text id="descriptive-name" style="stroke:none;fill:black;font-family:sans-serif;font-size:13;text-anchor:end;" transform="matrix(1 0 0 1 3036 1969)">Generated from hexagon</text>
  <text style="stroke:none;fill:black;font-family:sans-serif;font-size:13;text-anchor:end;" transform="matrix(1 0 0 1 3036 1987)">Typeset at 100 points</text>
  <text style="stroke:none;fill:black;font-family:sans-serif;font-size:13;" transform="matrix(1 0 0 1 263 726)">Small</text>
  <text style="stroke:none;fill:black;font-family:sans-serif;font-size:13;" transform="matrix(1 0 0 1 263 1156)">Medium</text>
  <text style="stroke:none;fill:black;font-family:sans-serif;font-size:13;" transform="matrix(1 0 0 1 263 1586)">Large</text>
 </g>
 <g id="Guides">
  <g id="H-reference" style="fill:#27AAE1;stroke:none;" transform="matrix(1 0 0 1 339 696)">
   <path d="M0.976562 0L3.66211 0L29.3457-67.1387L30.0293-67.1387L30.0293-70.459L28.125-70.459ZM11.6699-24.4629L46.9727-24.4629L46.2402-26.709L12.4512-26.709ZM55.127 0L57.7637 0L30.6152-70.459L29.4434-70.459L29.4434-67.1387Z"/>
  </g>
  <line id="Baseline-S" style="fill:none;stroke:#27AAE1;opacity:1;stroke-width:0.5;" x1="263" x2="3036" y1="696" y2="696"/>
  <line id="Capline-S" style="fill:none;stroke:#27AAE1;opacity:1;stroke-width:0.5;" x1="263" x2="3036" y1="625.541" y2="625.541"/>
  <g id="H-reference" style="fill:#27AAE1;stroke:none;" transform="matrix(1 0 0 1 339 1126)">
   <path d="M0.976562 0L3.66211 0L29.3457-67.1387L30.0293-67.1387L30.0293-70.459L28.125-70.459ZM11.6699-24.4629L46.9727-24.4629L46.2402-26.709L12.4512-26.709ZM55.127 0L57.7637 0L30.6152-70.459L29.4434-70.459L29.4434-67.1387Z"/>
  </g>
  <line id="Baseline-M" style="fill:none;stroke:#27AAE1;opacity:1;stroke-width:0.5;" x1="263" x2="3036" y1="1126" y2="1126"/>
  <line id="Capline-M" style="fill:none;stroke:#27AAE1;opacity:1;stroke-width:0.5;" x1="263" x2="3036" y1="1055.54" y2="1055.54"/>
  <g id="H-reference" style="fill:#27AAE1;stroke:none;" transform="matrix(1 0 0 1 339 1556)">
   <path d="M0.976562 0L3.66211 0L29.3457-67.1387L30.0293-67.1387L30.0293-70.459L28.125-70.459ZM11.6699-24.4629L46.9727-24.4629L46.2402-26.709L12.4512-26.709ZM55.127 0L57.7637 0L30.6152-70.459L29.4434-70.459L29.4434-67.1387Z"/>
  </g>
  <line id="Baseline-L" style="fill:none;stroke:#27AAE1;opacity:1;stroke-width:0.5;" x1="263" x2="3036" y1="1556" y2="1556"/>
  <line id="Capline-L" style="fill:none;stroke:#27AAE1;opacity:1;stroke-width:0.5;" x1="263" x2="3036" y1="1485.54" y2="1485.54"/>
  <line id="left-margin-Regular-M" style="fill:none;stroke:#00AEEF;stroke-width:0.5;opacity:1.0;" x1="1392.45" x2="1392.45" y1="1030.78" y2="1150.12"/>
  <line id="right-margin-Regular-M" style="fill:none;stroke:#00AEEF;stroke-width:0.5;opacity:1.0;" x1="1507.24" x2="1507.24" y1="1030.78" y2="1150.12"/>
 </g>
 <g id="Symbols">
  <g id="Black-L" transform="matrix(1 0 0 1 2861.38 1556)">
   <path d="M72.18-99.19C68.93-99.19 65.75-98.34 62.94-96.72L23.16-73.99C20.32-72.35 17.99-70.02 16.37-67.21C14.75-64.4 13.89-61.23 13.89-57.98L13.89-12.48C13.89-9.24 14.75-6.06 16.37-3.25C17.99-0.44 20.32 1.88 23.13 3.51L62.97 26.27C65.75 27.88 68.93 28.73 72.18 28.73C75.43 28.73 78.61 27.88 81.42 26.26L121.2 3.52C124.04 1.88 126.36-0.44 127.99-3.25C129.61-6.06 130.47-9.24 130.47-12.48L130.47-57.98C130.47-61.23 129.61-64.4 127.99-67.21C126.36-70.02 124.04-72.35 121.23-73.97L81.39-96.74C78.61-98.34 75.43-99.19 72.18-99.19ZM72.18-84.99C72.94-84.99 73.67-84.8 74.32-84.42L114.16-61.66C114.78-61.3 115.31-60.76 115.69-60.11C116.07-59.45 116.27-58.72 116.27-57.98L116.27-12.48C116.27-11.75 116.07-11.01 115.69-10.35C115.31-9.7 114.78-9.17 114.13-8.79L74.35 13.94C73.67 14.33 72.94 14.53 72.18 14.53C71.42 14.53 70.69 14.33 70.04 13.96L30.2-8.81C29.58-9.17 29.04-9.7 28.67-10.35C28.29-11.01 28.09-11.75 28.09-12.48L28.09-57.98C28.09-58.72 28.29-59.45 28.67-60.11C29.04-60.76 29.58-61.3 30.23-61.67L70.01-84.41C70.69-84.8 71.42-84.99 72.18-84.99Z"/>
  </g>
  <g id="Heavy-L" transform="matrix(1 0 0 1 2565.51 1556)">
   <path d="M71.33-98.34C68.23-98.34 65.19-97.53 62.51-95.98L22.73-73.25C20.02-71.69 17.81-69.47 16.26-66.79C14.71-64.11 13.89-61.08 13.89-57.98L13.89-12.48C13.89-9.4 14.71-6.36 16.26-3.68C17.81-1 20.02 1.22 22.7 2.77L62.54 25.53C65.19 27.07 68.23 27.88 71.33 27.88C74.42 27.88 77.47 27.06 80.15 25.52L119.93 2.78C122.64 1.22 124.85-1 126.4-3.68C127.94-6.34 128.75-9.37 128.77-12.45L128.77-57.98C128.75-61.11 127.94-64.12 126.4-66.79C124.85-69.47 122.64-71.69 119.96-73.23L80.12-96C77.47-97.53 74.42-98.34 71.33-98.34ZM71.33-85.84C72.23-85.84 73.12-85.61 73.89-85.16L113.73-62.4C114.48-61.96 115.13-61.32 115.58-60.54C116.03-59.76 116.27-58.88 116.27-57.95L116.27-12.48C116.27-11.6 116.03-10.71 115.58-9.93C115.13-9.15 114.48-8.51 113.7-8.05L73.92 14.68C73.12 15.14 72.23 15.38 71.33 15.38C70.42 15.38 69.54 15.14 68.77 14.7L28.93-8.07C28.18-8.51 27.53-9.15 27.08-9.93C26.63-10.72 26.39-11.6 26.39-12.48L26.39-57.98C26.39-58.88 26.63-59.75 27.08-60.54C27.53-61.32 28.18-61.96 28.96-62.41L68.74-85.15C69.54-85.61 70.42-85.84 71.33-85.84Z"/>
  </g>
  <g id="Bold-L" transform="matrix(1 0 0 1 2269.76 1556)">
   <path d="M70.37-97.39C67.44-97.39 64.57-96.62 62.04-95.16L22.24-72.42C19.68-70.93 17.58-68.84 16.12-66.31C14.66-63.76 13.89-60.9 13.89-57.98L13.89-12.48C13.89-9.57 14.66-6.7 16.11-4.17C17.58-1.62 19.68 0.47 22.21 1.94L62.06 24.71C64.57 26.16 67.44 26.93 70.37 26.93C73.3 26.93 76.18 26.16 78.71 24.7L118.5 1.96C121.06 0.48 123.17-1.62 124.63-4.15C126.09-6.7 126.86-9.57 126.86-12.48L126.86-57.98C126.86-60.9 126.09-63.76 124.64-66.29C123.17-68.84 121.06-70.94 118.52-72.41L78.69-95.17C76.18-96.62 73.3-97.39 70.37-97.39ZM70.37-86.79C71.45-86.79 72.49-86.51 73.41-85.98L113.24-63.22C114.15-62.69 114.92-61.93 115.45-61.01C115.98-60.09 116.26-59.04 116.26-57.98L116.26-12.48C116.26-11.43 115.98-10.37 115.44-9.43C114.92-8.54 114.15-7.77 113.22-7.23L73.43 15.51C72.49 16.05 71.45 16.33 70.37 16.33C69.3 16.33 68.26 16.05 67.34 15.52L27.5-7.24C26.6-7.77 25.83-8.54 25.3-9.45C24.77-10.37 24.49-11.43 24.49-12.48L24.49-57.98C24.49-59.04 24.77-60.09 25.31-61.03C25.83-61.93 26.6-62.7 27.53-63.24L67.32-85.97C68.26-86.51 69.3-86.79 70.37-86.79Z"/>
  </g>
  <g id="Semibold-L" transform="matrix(1 0 0 1 1973.69 1556)">
   <path d="M69.73-96.74C66.91-96.74 64.15-96.01 61.71-94.6L21.92-71.86C19.47-70.44 17.45-68.42 16.04-65.99C14.63-63.55 13.89-60.8 13.89-57.98L13.89-12.48C13.89-9.68 14.64-6.91 16.04-4.48C17.45-2.04 19.47-0.02 21.9 1.38L61.73 24.15C64.15 25.54 66.91 26.28 69.73 26.28C72.55 26.28 75.31 25.54 77.75 24.13L117.54 1.4C119.99-0.02 122.01-2.04 123.42-4.48C124.83-6.91 125.57-9.68 125.57-12.48L125.57-57.98C125.57-60.8 124.83-63.55 123.42-65.99C122.01-68.42 119.99-70.44 117.56-71.85L77.73-94.61C75.31-96.01 72.55-96.74 69.73-96.74ZM69.73-87.44C70.92-87.44 72.08-87.13 73.09-86.55L112.92-63.78C113.93-63.2 114.77-62.36 115.36-61.34C115.96-60.3 116.27-59.16 116.27-57.98L116.27-12.48C116.27-11.31 115.96-10.16 115.36-9.13C114.77-8.1 113.93-7.26 112.9-6.67L73.11 16.07C72.08 16.67 70.92 16.98 69.73 16.98C68.54 16.98 67.38 16.67 66.37 16.08L26.54-6.68C25.53-7.26 24.69-8.1 24.1-9.13C23.5-10.16 23.19-11.31 23.19-12.48L23.19-57.98C23.19-59.16 23.5-60.3 24.1-61.34C24.69-62.36 25.53-63.2 26.56-63.8L66.35-86.53C67.38-87.13 68.54-87.44 69.73-87.44Z"/>
  </g>
  <g id="Medium-L" transform="matrix(1 0 0 1 1677.48 1556)">
   <path d="M69.23-96.24C66.5-96.24 63.82-95.53 61.46-94.17L21.67-71.43C19.29-70.05 17.34-68.1 15.98-65.74C14.61-63.37 13.89-60.71 13.89-57.98L13.89-12.48C13.89-9.76 14.61-7.09 15.98-4.73C17.34-2.37 19.29-0.41 21.65 0.95L61.48 23.71C63.82 25.06 66.5 25.78 69.23 25.78C71.96 25.78 74.64 25.06 77 23.7L116.79 0.96C119.17-0.41 121.12-2.37 122.48-4.73C123.85-7.09 124.57-9.76 124.57-12.48L124.57-57.98C124.57-60.71 123.85-63.37 122.48-65.74C121.12-68.1 119.17-70.05 116.81-71.42L76.98-94.18C74.64-95.53 71.96-96.24 69.23-96.24ZM69.23-87.94C70.51-87.94 71.75-87.61 72.84-86.98L112.67-64.22C113.75-63.59 114.66-62.69 115.3-61.59C115.94-60.48 116.27-59.24 116.27-57.98L116.27-12.48C116.27-11.23 115.93-9.98 115.3-8.88C114.66-7.78 113.75-6.87 112.65-6.24L72.86 16.5C71.75 17.15 70.51 17.48 69.23 17.48C67.95 17.48 66.71 17.15 65.62 16.51L25.79-6.25C24.71-6.87 23.8-7.78 23.16-8.88C22.53-9.98 22.19-11.23 22.19-12.48L22.19-57.98C22.19-59.24 22.52-60.48 23.16-61.59C23.8-62.69 24.71-63.59 25.81-64.23L65.6-86.97C66.71-87.61 67.95-87.94 69.23-87.94Z"/>
  </g>
  <g id="Regular-L" transform="matrix(1 0 0 1 1381.42 1556)">
   <path d="M68.58-95.59C65.96-95.59 63.4-94.91 61.14-93.6L21.34-70.86C19.07-69.55 17.2-67.68 15.89-65.42C14.58-63.15 13.89-60.59 13.89-57.98L13.89-12.48C13.89-9.88 14.58-7.32 15.89-5.05C17.2-2.79 19.07-0.92 21.33 0.39L61.15 23.15C63.4 24.44 65.96 25.13 68.58 25.13C71.2 25.13 73.76 24.44 76.02 23.14L115.82 0.4C118.09-0.92 119.96-2.79 121.27-5.05C122.58-7.32 123.27-9.88 123.27-12.48L123.27-57.98C123.27-60.59 122.58-63.15 121.27-65.42C119.96-67.68 118.09-69.55 115.83-70.85L76.01-93.61C73.76-94.91 71.2-95.59 68.58-95.59ZM68.58-88.59C69.97-88.59 71.33-88.23 72.52-87.54L112.34-64.78C113.53-64.1 114.52-63.11 115.21-61.91C115.91-60.71 116.27-59.36 116.27-57.98L116.27-12.48C116.27-11.11 115.9-9.76 115.21-8.56C114.52-7.36 113.53-6.37 112.33-5.67L72.53 17.07C71.33 17.76 69.97 18.13 68.58 18.13C67.19 18.13 65.83 17.76 64.64 17.08L24.82-5.68C23.63-6.37 22.64-7.36 21.95-8.56C21.26-9.76 20.89-11.11 20.89-12.48L20.89-57.98C20.89-59.36 21.25-60.71 21.95-61.91C22.64-63.11 23.63-64.1 24.83-64.79L64.63-87.53C65.83-88.23 67.19-88.59 68.58-88.59Z"/>
  </g>
  <g id="Light-L" transform="matrix(1 0 0 1 1085.51 1556)">
   <path d="M67.78-94.79C65.3-94.79 62.88-94.15 60.74-92.91L20.94-70.17C18.79-68.92 17.02-67.15 15.78-65.01C14.54-62.87 13.89-60.45 13.89-57.98L13.89-12.48C13.89-10.02 14.54-7.59 15.78-5.45C17.02-3.31 18.79-1.54 20.93-0.31L60.75 22.45C62.88 23.68 65.3 24.33 67.78 24.33C70.26 24.33 72.68 23.68 74.82 22.44L114.62-0.3C116.77-1.54 118.54-3.31 119.78-5.45C121.02-7.59 121.67-10.02 121.67-12.48L121.67-57.98C121.67-60.45 121.02-62.87 119.78-65.01C118.54-67.15 116.77-68.92 114.63-70.16L74.81-92.92C72.68-94.15 70.26-94.79 67.78-94.79ZM67.78-89.39C69.31-89.39 70.8-88.99 72.12-88.24L111.94-65.48C113.25-64.72 114.34-63.63 115.1-62.31C115.87-60.99 116.27-59.5 116.27-57.98L116.27-12.48C116.27-10.97 115.87-9.48 115.1-8.15C114.34-6.83 113.25-5.74 111.93-4.98L72.13 17.76C70.8 18.53 69.31 18.93 67.78 18.93C66.25 18.93 64.75 18.53 63.44 17.77L23.62-4.99C22.31-5.74 21.22-6.83 20.46-8.15C19.69-9.48 19.29-10.97 19.29-12.48L19.29-57.98C19.29-59.5 19.69-60.99 20.46-62.31C21.22-63.63 22.31-64.72 23.63-65.49L63.43-88.23C64.75-88.99 66.25-89.39 67.78-89.39Z"/>
  </g>
  <g id="Thin-L" transform="matrix(1 0 0 1 789.849 1556)">
   <path d="M66.728-93.74C64.436-93.74 62.191-93.14 60.214-92L20.409-69.25C18.421-68.1 16.78-66.46 15.638-64.49C14.495-62.5 13.894-60.27 13.89-57.98L13.89-12.48C13.894-10.2 14.496-7.96 15.638-5.98C16.78-4 18.421-2.36 20.402-1.21L60.221 21.54C62.191 22.68 64.436 23.28 66.728 23.28C69.02 23.28 71.265 22.68 73.242 21.54L113.047-1.21C115.035-2.36 116.676-4 117.818-5.98C118.96-7.96 119.563-10.2 119.566-12.48L119.566-57.98C119.563-60.27 118.962-62.5 117.818-64.49C116.676-66.46 115.036-68.1 113.055-69.25L73.235-92C71.265-93.14 69.02-93.74 66.728-93.74ZM66.728-90.44C68.442-90.44 70.117-90 71.59-89.14L111.409-66.39C112.883-65.54 114.108-64.31 114.96-62.84C115.815-61.36 116.264-59.69 116.266-57.98L116.266-12.48C116.264-10.78 115.813-9.11 114.96-7.63C114.108-6.15 112.883-4.93 111.402-4.07L71.597 18.68C70.117 19.53 68.442 19.98 66.728 19.98C65.015 19.98 63.339 19.53 61.866 18.68L22.047-4.07C20.573-4.93 19.348-6.15 18.496-7.63C17.643-9.11 17.193-10.78 17.19-12.48L17.19-57.98C17.193-59.69 17.641-61.36 18.496-62.84C19.348-64.31 20.573-65.54 22.055-66.39L61.859-89.14C63.339-90 65.015-90.44 66.728-90.44Z"/>
  </g>
  <g id="Ultralight-L" transform="matrix(1 0 0 1 493.688 1556)">
   <path d="M66.178-93.19C63.983-93.19 61.832-92.62 59.939-91.52L20.132-68.78C18.229-67.68 16.658-66.11 15.564-64.21C14.469-62.31 13.893-60.17 13.89-57.98L13.89-12.48C13.893-10.3 14.471-8.15 15.564-6.25C16.658-4.36 18.229-2.79 20.127-1.69L59.944 21.06C61.832 22.16 63.983 22.73 66.178 22.73C68.373 22.73 70.523 22.16 72.416 21.06L112.224-1.69C114.127-2.79 115.698-4.36 116.791-6.25C117.885-8.15 118.463-10.3 118.466-12.48L118.466-57.98C118.463-60.17 117.887-62.31 116.792-64.21C115.698-66.11 114.127-67.68 112.229-68.77L72.412-91.53C70.523-92.62 68.373-93.19 66.178-93.19ZM66.178-90.99C67.988-90.99 69.758-90.52 71.315-89.62L111.132-66.87C112.692-65.96 113.986-64.67 114.886-63.11C115.789-61.55 116.263-59.78 116.266-57.98L116.266-12.48C116.263-10.68 115.787-8.91 114.886-7.35C113.986-5.79 112.692-4.5 111.127-3.59L71.32 19.15C69.758 20.06 67.988 20.53 66.178 20.53C64.368 20.53 62.598 20.06 61.04 19.16L21.224-3.6C19.664-4.5 18.37-5.79 17.469-7.35C16.568-8.91 16.093-10.68 16.09-12.48L16.09-57.98C16.093-59.78 16.567-61.55 17.47-63.11C18.37-64.67 19.664-65.96 21.229-66.87L61.036-89.62C62.598-90.52 64.368-90.99 66.178-90.99Z"/>
  </g>
  <g id="Black-M" transform="matrix(1 0 0 1 2872.4 1126)">
   <path d="M61.15-86.95C58.33-86.95 55.56-86.21 53.12-84.79L21.93-66.97C19.47-65.55 17.45-63.52 16.04-61.1C14.63-58.64 13.89-55.89 13.89-53.08L13.89-17.38C13.89-14.58 14.64-11.83 16.03-9.39C17.45-6.94 19.47-4.92 21.9-3.52L53.17 14.35C55.59 15.74 58.35 16.48 61.15 16.48C63.96 16.48 66.72 15.74 69.15 14.35L100.37-3.5C102.83-4.91 104.86-6.93 106.27-9.37C107.68-11.83 108.42-14.58 108.42-17.38L108.42-53.08C108.42-55.89 107.68-58.64 106.28-61.08C104.86-63.53 102.83-65.56 100.38-66.96L69.14-84.82C66.74-86.21 63.97-86.95 61.15-86.95ZM61.15-72.75C61.48-72.75 61.78-72.67 62.05-72.51L93.33-54.64C93.59-54.49 93.82-54.26 93.97-53.99C94.14-53.71 94.22-53.39 94.22-53.08L94.22-17.38C94.22-17.08 94.13-16.75 93.96-16.46C93.82-16.21 93.59-15.98 93.32-15.82L62.1 2.02C61.8 2.19 61.48 2.28 61.15 2.28C60.83 2.28 60.51 2.19 60.22 2.03L28.97-15.83C28.73-15.97 28.5-16.2 28.34-16.48C28.18-16.75 28.09-17.08 28.09-17.38L28.09-53.08C28.09-53.39 28.18-53.71 28.35-54.01C28.5-54.26 28.73-54.5 29-54.66L60.21-72.49C60.53-72.67 60.83-72.75 61.15-72.75Z"/>
  </g>
  <g id="Heavy-M" transform="matrix(1 0 0 1 2576.54 1126)">
   <path d="M60.3-86.1C57.63-86.1 55.01-85.4 52.7-84.06L21.5-66.23C19.17-64.89 17.26-62.97 15.93-60.67C14.59-58.34 13.89-55.74 13.89-53.08L13.89-17.38C13.89-14.73 14.59-12.12 15.92-9.81C17.26-7.5 19.17-5.58 21.47-4.25L52.74 13.62C55.03 14.93 57.65 15.63 60.3 15.63C62.96 15.63 65.57 14.93 67.88 13.61L99.1-4.24C101.42-5.57 103.35-7.49 104.68-9.79C106.01-12.1 106.7-14.7 106.72-17.34L106.72-53.08C106.7-55.77 106.01-58.36 104.69-60.65C103.35-62.98 101.42-64.9 99.11-66.22L67.87-84.08C65.6-85.4 62.97-86.1 60.3-86.1ZM60.3-73.6C60.77-73.6 61.23-73.48 61.63-73.25L92.9-55.38C93.29-55.15 93.63-54.81 93.86-54.41C94.09-54.01 94.22-53.54 94.22-53.04L94.22-17.38C94.22-16.93 94.09-16.45 93.85-16.03C93.63-15.65 93.29-15.31 92.89-15.08L61.67 2.76C61.25 3 60.78 3.13 60.3 3.13C59.83 3.13 59.36 3 58.95 2.77L27.7-15.09C27.33-15.31 26.98-15.65 26.75-16.05C26.52-16.46 26.39-16.93 26.39-17.38L26.39-53.08C26.39-53.54 26.51-54 26.76-54.43C26.98-54.82 27.33-55.16 27.73-55.39L58.94-73.22C59.38-73.48 59.83-73.6 60.3-73.6Z"/>
  </g>
  <g id="Bold-M" transform="matrix(1 0 0 1 2280.78 1126)">
   <path d="M59.35-85.15C56.85-85.15 54.39-84.49 52.23-83.24L21.02-65.4C18.84-64.15 17.05-62.35 15.8-60.19C14.55-58.01 13.89-55.57 13.89-53.08L13.89-17.38C13.89-14.9 14.55-12.45 15.79-10.29C17.05-8.12 18.84-6.32 21-5.07L52.26 12.79C54.41 14.02 56.86 14.68 59.35 14.68C61.84 14.68 64.29 14.03 66.46 12.79L97.68-5.06C99.86-6.31 101.66-8.11 102.91-10.27C104.16-12.45 104.82-14.9 104.82-17.38L104.82-53.08C104.82-55.57 104.16-58.01 102.92-60.18C101.66-62.36 99.86-64.16 97.69-65.4L66.45-83.25C64.32-84.49 61.86-85.15 59.35-85.15ZM59.35-74.55C59.99-74.55 60.61-74.39 61.16-74.07L92.42-56.2C92.96-55.89 93.42-55.44 93.73-54.89C94.05-54.33 94.22-53.71 94.22-53.08L94.22-17.38C94.22-16.76 94.05-16.13 93.72-15.56C93.42-15.03 92.96-14.57 92.41-14.26L61.19 3.59C60.63 3.91 59.99 4.08 59.35 4.08C58.71 4.08 58.08 3.91 57.53 3.59L26.28-14.26C25.76-14.57 25.29-15.03 24.98-15.57C24.66-16.13 24.49-16.76 24.49-17.38L24.49-53.08C24.49-53.71 24.66-54.33 24.99-54.91C25.29-55.44 25.76-55.9 26.3-56.21L57.52-74.05C58.1-74.39 58.72-74.55 59.35-74.55Z"/>
  </g>
  <g id="Semibold-M" transform="matrix(1 0 0 1 1984.72 1126)">
   <path d="M58.7-84.5C56.3-84.5 53.95-83.87 51.89-82.66L20.69-64.84C18.62-63.65 16.91-61.93 15.71-59.87C14.52-57.81 13.89-55.47 13.89-53.08L13.89-17.38C13.89-15 14.52-12.65 15.72-10.58C16.91-8.53 18.62-6.81 20.69-5.63L51.93 12.23C53.97 13.41 56.31 14.03 58.7 14.03C61.09 14.03 63.43 13.41 65.49 12.22L96.71-5.62C98.78-6.81 100.49-8.53 101.69-10.59C102.88-12.65 103.51-15 103.51-17.38L103.51-53.08C103.51-55.47 102.88-57.81 101.68-59.88C100.49-61.93 98.78-63.65 96.71-64.83L65.47-82.69C63.45-83.87 61.1-84.5 58.7-84.5ZM58.7-75.2C59.45-75.2 60.18-75 60.81-74.64L92.09-56.76C92.72-56.4 93.26-55.87 93.63-55.21C94.01-54.56 94.21-53.83 94.21-53.08L94.21-17.38C94.21-16.63 94.01-15.9 93.64-15.26C93.26-14.59 92.72-14.06 92.09-13.69L60.85 4.15C60.19 4.53 59.46 4.73 58.7 4.73C57.94 4.73 57.21 4.53 56.57 4.16L25.31-13.7C24.68-14.06 24.14-14.59 23.77-15.25C23.39-15.9 23.19-16.63 23.19-17.38L23.19-53.08C23.19-53.83 23.38-54.56 23.76-55.2C24.14-55.87 24.68-56.4 25.31-56.77L56.55-74.61C57.22-75 57.94-75.2 58.7-75.2Z"/>
  </g>
  <g id="Medium-M" transform="matrix(1 0 0 1 1688.51 1126)">
   <path d="M58.2-84C55.89-84 53.63-83.39 51.64-82.23L20.44-64.4C18.44-63.26 16.8-61.61 15.65-59.62C14.49-57.63 13.89-55.38 13.89-53.08L13.89-17.38C13.89-15.08 14.5-12.82 15.65-10.84C16.8-8.85 18.44-7.2 20.43-6.06L51.68 11.79C53.65 12.93 55.9 13.53 58.2 13.53C60.5 13.53 62.75 12.93 64.74 11.78L95.96-6.06C97.95-7.2 99.6-8.85 100.75-10.84C101.9-12.82 102.51-15.08 102.51-17.38L102.51-53.08C102.51-55.38 101.9-57.63 100.75-59.62C99.6-61.61 97.95-63.26 95.96-64.4L64.72-82.25C62.77-83.39 60.51-84 58.2-84ZM58.2-75.7C59.04-75.7 59.86-75.48 60.56-75.07L91.84-57.2C92.55-56.79 93.15-56.19 93.57-55.46C93.99-54.73 94.21-53.92 94.21-53.08L94.21-17.38C94.21-16.54 93.99-15.72 93.57-15C93.15-14.27 92.55-13.67 91.83-13.26L60.6 4.59C59.87 5.01 59.04 5.23 58.2 5.23C57.36 5.23 56.53 5.01 55.82 4.6L24.56-13.26C23.85-13.67 23.25-14.27 22.83-15C22.41-15.72 22.19-16.54 22.19-17.38L22.19-53.08C22.19-53.92 22.41-54.73 22.83-55.46C23.25-56.19 23.85-56.79 24.56-57.2L55.8-75.05C56.54-75.48 57.36-75.7 58.2-75.7Z"/>
  </g>
  <g id="Regular-M" transform="matrix(1 0 0 1 1392.45 1126)">
   <path d="M57.55-83.35C55.36-83.35 53.21-82.77 51.32-81.67L20.11-63.84C18.22-62.75 16.65-61.18 15.56-59.29C14.46-57.41 13.89-55.27 13.89-53.08L13.89-17.38C13.89-15.2 14.47-13.05 15.56-11.16C16.65-9.28 18.22-7.71 20.11-6.63L51.35 11.23C53.22 12.31 55.37 12.88 57.55 12.88C59.73 12.88 61.88 12.31 63.76 11.22L94.99-6.62C96.88-7.71 98.45-9.28 99.54-11.17C100.63-13.05 101.21-15.2 101.21-17.38L101.21-53.08C101.21-55.27 100.64-57.41 99.54-59.3C98.45-61.18 96.88-62.75 94.99-63.84L63.75-81.69C61.89-82.77 59.74-83.35 57.55-83.35ZM57.55-76.35C58.51-76.35 59.44-76.1 60.24-75.63L91.51-57.76C92.32-57.3 93-56.62 93.48-55.79C93.96-54.96 94.21-54.04 94.21-53.08L94.21-17.38C94.21-16.43 93.96-15.5 93.48-14.68C93-13.85 92.32-13.16 91.51-12.7L60.27 5.15C59.44 5.63 58.51 5.88 57.55 5.88C56.59 5.88 55.66 5.63 54.84 5.16L23.59-12.7C22.78-13.16 22.1-13.85 21.62-14.67C21.14-15.5 20.89-16.43 20.89-17.38L20.89-53.08C20.89-54.04 21.14-54.96 21.62-55.78C22.1-56.62 22.78-57.3 23.59-57.77L54.83-75.61C55.66-76.1 56.59-76.35 57.55-76.35Z"/>
  </g>
  <g id="Light-M" transform="matrix(1 0 0 1 1096.54 1126)">
   <path d="M56.75-82.55C54.7-82.55 52.69-82.01 50.93-80.98L19.71-63.15C17.94-62.13 16.47-60.66 15.45-58.89C14.43-57.13 13.89-55.13 13.89-53.08L13.89-17.38C13.89-15.34 14.43-13.33 15.45-11.56C16.47-9.8 17.94-8.33 19.71-7.32L50.95 10.53C52.7 11.54 54.71 12.08 56.75 12.08C58.79 12.08 60.8 11.54 62.56 10.53L93.79-7.32C95.56-8.33 97.03-9.8 98.05-11.57C99.07-13.33 99.61-15.34 99.61-17.38L99.61-53.08C99.61-55.13 99.07-57.13 98.04-58.9C97.03-60.66 95.56-62.13 93.79-63.14L62.55-81C60.81-82.01 58.8-82.55 56.75-82.55ZM56.75-77.15C57.85-77.15 58.92-76.86 59.85-76.32L91.11-58.46C92.04-57.92 92.82-57.14 93.37-56.19C93.92-55.24 94.21-54.18 94.21-53.08L94.21-17.38C94.21-16.29 93.92-15.22 93.37-14.28C92.82-13.32 92.04-12.54 91.11-12L59.87 5.84C58.92 6.39 57.85 6.68 56.75 6.68C55.65 6.68 54.58 6.39 53.64 5.85L22.39-12.01C21.46-12.54 20.68-13.32 20.13-14.27C19.58-15.22 19.29-16.29 19.29-17.38L19.29-53.08C19.29-54.18 19.58-55.24 20.12-56.18C20.68-57.14 21.46-57.92 22.39-58.46L53.63-76.31C54.58-76.86 55.65-77.15 56.75-77.15Z"/>
  </g>
  <g id="Thin-M" transform="matrix(1 0 0 1 800.875 1126)">
   <path d="M55.702-81.5C53.839-81.5 52.015-81.01 50.409-80.08L19.183-62.23C17.577-61.31 16.241-59.97 15.31-58.37C14.379-56.75 13.891-54.94 13.89-53.08L13.89-17.38C13.891-15.53 14.381-13.71 15.308-12.1C16.241-10.49 17.577-9.15 19.178-8.23L50.421 9.62C52.024 10.54 53.846 11.03 55.702 11.03C57.557 11.03 59.38 10.54 60.987 9.62L92.22-8.23C93.827-9.15 95.163-10.49 96.094-12.09C97.023-13.71 97.512-15.53 97.514-17.38L97.514-53.08C97.512-54.94 97.024-56.75 96.096-58.36C95.163-59.97 93.827-61.31 92.224-62.23L60.983-80.08C59.389-81.01 57.565-81.5 55.702-81.5ZM55.702-78.2C56.983-78.2 58.235-77.86 59.334-77.22L90.583-59.37C91.678-58.74 92.598-57.82 93.239-56.71C93.877-55.6 94.213-54.36 94.215-53.08L94.215-17.38C94.213-16.11 93.875-14.85 93.237-13.74C92.598-12.64 91.678-11.72 90.579-11.09L59.346 6.76C58.236 7.4 56.981 7.73 55.702 7.73C54.423 7.73 53.168 7.4 52.062 6.76L20.82-11.09C19.726-11.72 18.806-12.64 18.165-13.75C17.528-14.85 17.19-16.11 17.189-17.38L17.189-53.08C17.19-54.36 17.526-55.6 18.167-56.72C18.806-57.82 19.726-58.74 20.825-59.37L52.058-77.22C53.169-77.86 54.421-78.2 55.702-78.2Z"/>
  </g>
  <g id="Ultralight-M" transform="matrix(1 0 0 1 504.714 1126)">
   <path d="M55.152-80.95C53.387-80.95 51.658-80.49 50.137-79.6L18.907-61.76C17.386-60.88 16.119-59.62 15.237-58.1C14.354-56.56 13.891-54.84 13.89-53.08L13.89-17.38C13.891-15.63 14.356-13.9 15.235-12.37C16.119-10.85 17.386-9.58 18.904-8.71L50.145 9.14C51.665 10.02 53.393 10.48 55.152 10.48C56.912 10.48 58.64 10.02 60.163 9.14L91.398-8.71C92.92-9.58 94.186-10.85 95.069-12.37C95.949-13.9 96.413-15.63 96.415-17.38L96.415-53.08C96.413-54.84 95.951-56.56 95.071-58.09C94.186-59.62 92.92-60.88 91.401-61.76L60.161-79.61C58.648-80.49 56.918-80.95 55.152-80.95ZM55.152-78.75C56.531-78.75 57.878-78.39 59.062-77.7L90.307-59.85C91.487-59.17 92.476-58.18 93.166-56.99C93.853-55.8 94.214-54.46 94.215-53.08L94.215-17.38C94.214-16.02 93.851-14.66 93.164-13.47C92.476-12.29 91.487-11.3 90.304-10.62L59.07 7.23C57.877 7.92 56.528 8.28 55.152 8.28C53.778 8.28 52.428 7.92 51.238 7.23L19.998-10.62C18.818-11.3 17.829-12.29 17.14-13.48C16.454-14.67 16.091-16.02 16.09-17.38L16.09-53.08C16.091-54.46 16.452-55.8 17.142-56.99C17.829-58.18 18.818-59.17 20.001-59.85L51.236-77.7C52.428-78.39 53.775-78.75 55.152-78.75Z"/>
  </g>
  <g id="Black-S" transform="matrix(1 0 0 1 2881.07 696)">
   <path d="M52.49-77.426C50.01-77.426 47.57-76.773 45.43-75.529L20.97-61.552C18.79-60.295 17.01-58.511 15.77-56.363C14.55-54.227 13.89-51.802 13.89-49.333L13.89-21.333C13.89-18.865 14.55-16.442 15.77-14.303C17.01-12.155 18.79-10.374 20.93-9.134L45.47 4.887C47.57 6.107 50.01 6.759 52.49 6.759C54.97 6.759 57.41 6.107 59.55 4.866L84.01-9.113C86.19-10.374 87.98-12.155 89.21-14.3C90.44-16.408 91.09-18.848 91.09-21.333L91.09-49.333C91.09-51.819 90.44-54.26 89.18-56.408C87.98-58.511 86.19-60.295 84.05-61.534L59.51-75.552C57.41-76.773 54.97-77.426 52.49-77.426ZM52.49-63.211L76.89-49.268L76.89-21.399L52.49-7.456L28.09-21.398L28.09-49.268L52.49-63.211Z"/>
  </g>
  <g id="Heavy-S" transform="matrix(1 0 0 1 2585.2 696)">
   <path d="M51.64-76.574C49.32-76.574 47.04-75.964 45.02-74.805L20.54-60.813C18.51-59.639 16.85-57.976 15.68-55.976C14.51-53.93 13.89-51.651 13.89-49.331L13.89-21.331C13.89-19.013 14.5-16.735 15.66-14.724C16.85-12.687 18.51-11.026 20.51-9.868L45.04 4.15C47.04 5.302 49.32 5.911 51.64 5.911C53.97 5.911 56.26 5.298 58.27 4.132L82.74-9.85C84.78-11.033 86.46-12.708 87.62-14.722C88.78-16.704 89.39-18.997 89.39-21.331L89.39-49.331C89.39-51.667 88.77-53.961 87.6-55.978C86.46-57.956 84.78-59.632 82.77-60.797L58.24-74.813C56.26-75.961 53.97-76.574 51.64-76.574ZM51.64-64.074C51.77-64.074 51.9-64.04 52-63.98L76.54-49.96C76.63-49.908 76.72-49.813 76.78-49.716C76.86-49.58 76.89-49.463 76.89-49.331L76.89-21.331C76.89-21.2 76.86-21.082 76.8-20.984C76.72-20.85 76.63-20.754 76.51-20.684L52.04-6.703C51.9-6.624 51.77-6.589 51.64-6.589C51.51-6.589 51.38-6.624 51.25-6.697L26.74-20.703C26.66-20.751 26.55-20.854 26.48-20.986C26.43-21.075 26.39-21.211 26.39-21.331L26.39-49.331C26.39-49.452 26.43-49.587 26.5-49.714C26.56-49.81 26.66-49.911 26.77-49.976L51.24-63.96C51.38-64.04 51.51-64.074 51.64-64.074Z"/>
  </g>
  <g id="Bold-S" transform="matrix(1 0 0 1 2289.44 696)">
   <path d="M50.69-75.418C48.54-75.418 46.42-74.85 44.55-73.775L20.06-59.782C18.18-58.694 16.64-57.15 15.55-55.291C14.47-53.409 13.91-51.309 13.89-49.168L13.89-21.125C13.91-18.943 14.47-16.843 15.53-14.991C16.64-13.101 18.18-11.559 20.03-10.484L44.56 3.532C46.42 4.6 48.54 5.167 50.69 5.167C52.85 5.167 54.98 4.598 56.85 3.516L81.32-10.468C83.21-11.553 84.77-13.111 85.85-14.989C86.92-16.831 87.49-18.958 87.49-21.125L87.49-49.125C87.49-51.294 86.92-53.421 85.83-55.293C84.77-57.14 83.21-58.699 81.32-59.779L56.82-73.782C54.98-74.848 52.85-75.418 50.69-75.418ZM50.69-64.818C50.99-64.818 51.28-64.74 51.53-64.596L76.06-50.578C76.3-50.438 76.51-50.234 76.65-49.983C76.81-49.707 76.89-49.424 76.89-49.125L76.89-21.125C76.89-20.826 76.81-20.543 76.67-20.299C76.51-20.017 76.3-19.811 76.05-19.667L51.56-5.672C51.28-5.511 50.99-5.433 50.69-5.433C50.4-5.433 50.1-5.513 49.83-5.667L25.32-19.672C25.09-19.806 24.87-20.027 24.71-20.301C24.58-20.53 24.49-20.841 24.49-21.168L24.49-49.125C24.49-49.41 24.58-49.72 24.73-49.981C24.87-50.224 25.09-50.444 25.34-50.592L49.82-64.578C50.1-64.738 50.4-64.818 50.69-64.818Z"/>
  </g>
  <g id="Semibold-S" transform="matrix(1 0 0 1 1993.38 696)">
   <path d="M50.04-74.77C47.99-74.77 45.98-74.23 44.21-73.204L19.73-59.219C17.94-58.183 16.46-56.709 15.45-54.937C14.43-53.169 13.89-51.164 13.89-49.127L13.89-21.127C13.89-19.09 14.43-17.086 15.45-15.316C16.46-13.545 17.94-12.073 19.71-11.048L44.23 2.966C45.98 3.977 47.99 4.515 50.04 4.515C52.09 4.515 54.1 3.977 55.87 2.952L80.35-11.034C82.14-12.073 83.62-13.545 84.63-15.314C85.65-17.086 86.19-19.09 86.19-21.127L86.19-49.127C86.19-51.164 85.65-53.169 84.63-54.939C83.62-56.709 82.14-58.183 80.37-59.207L55.85-73.219C54.1-74.23 52.09-74.77 50.04-74.77ZM50.04-65.47C50.45-65.47 50.86-65.361 51.21-65.159L75.73-51.144C76.07-50.948 76.37-50.651 76.57-50.308C76.78-49.938 76.89-49.529 76.89-49.127L76.89-21.127C76.89-20.725 76.78-20.315 76.57-19.945C76.37-19.603 76.07-19.305 75.71-19.095L51.23-5.109C50.86-4.893 50.45-4.785 50.04-4.785C49.63-4.785 49.22-4.893 48.87-5.095L24.35-19.109C24.01-19.305 23.71-19.603 23.51-19.947C23.3-20.315 23.19-20.725 23.19-21.127L23.19-49.127C23.19-49.529 23.3-49.938 23.51-50.306C23.71-50.651 24.01-50.948 24.37-51.156L48.85-65.144C49.22-65.361 49.63-65.47 50.04-65.47Z"/>
  </g>
  <g id="Medium-S" transform="matrix(1 0 0 1 1697.17 696)">
   <path d="M49.54-74.27C47.58-74.27 45.65-73.753 43.96-72.771L19.48-58.785C17.77-57.794 16.35-56.383 15.38-54.688C14.41-52.995 13.89-51.076 13.89-49.127L13.89-21.127C13.89-19.178 14.41-17.26 15.38-15.565C16.35-13.871 17.77-12.461 19.46-11.48L43.98 2.532C45.65 3.5 47.58 4.015 49.54 4.015C51.5 4.015 53.43 3.5 55.12 2.52L79.6-11.468C81.31-12.461 82.73-13.871 83.7-15.564C84.67-17.26 85.19-19.178 85.19-21.127L85.19-49.127C85.19-51.076 84.67-52.995 83.7-54.69C82.73-56.383 81.31-57.794 79.62-58.774L55.1-72.785C53.43-73.753 51.5-74.27 49.54-74.27ZM49.54-65.97C50.04-65.97 50.53-65.838 50.96-65.592L75.48-51.578C75.9-51.337 76.26-50.976 76.5-50.557C76.76-50.112 76.89-49.617 76.89-49.127L76.89-21.127C76.89-20.637 76.76-20.142 76.5-19.696C76.26-19.278 75.9-18.916 75.46-18.663L50.98-4.675C50.53-4.416 50.04-4.285 49.54-4.285C49.04-4.285 48.55-4.416 48.12-4.663L23.6-18.675C23.18-18.916 22.82-19.278 22.58-19.698C22.32-20.142 22.19-20.637 22.19-21.127L22.19-49.127C22.19-49.617 22.32-50.112 22.58-50.556C22.82-50.976 23.18-51.337 23.62-51.589L48.1-65.578C48.55-65.838 49.04-65.97 49.54-65.97Z"/>
  </g>
  <g id="Regular-S" transform="matrix(1 0 0 1 1401.11 696)">
   <path d="M48.89-73.617C47.04-73.617 45.23-73.131 43.63-72.207L19.15-58.218C17.54-57.286 16.21-55.957 15.29-54.362C14.38-52.767 13.89-50.96 13.89-49.124L13.89-21.124C13.89-19.29 14.38-17.483 15.29-15.886C16.21-14.292 17.54-12.965 19.14-12.041L43.65 1.97C45.23 2.882 47.04 3.368 48.89 3.368C50.74 3.368 52.55 2.882 54.14 1.959L78.63-12.03C80.24-12.965 81.57-14.292 82.48-15.885C83.4-17.483 83.89-19.29 83.89-21.124L83.89-49.124C83.89-50.96 83.4-52.767 82.48-54.363C81.57-55.957 80.24-57.286 78.64-58.209L54.13-72.218C52.55-73.131 50.74-73.617 48.89-73.617ZM48.89-66.617C49.51-66.617 50.11-66.456 50.63-66.152L75.15-52.14C75.67-51.84 76.12-51.398 76.41-50.878C76.73-50.335 76.89-49.729 76.89-49.124L76.89-21.124C76.89-20.52 76.73-19.913 76.41-19.37C76.12-18.852 75.67-18.409 75.14-18.098L50.65-4.108C50.11-3.794 49.51-3.632 48.89-3.632C48.27-3.632 47.67-3.794 47.14-4.098L22.63-18.108C22.11-18.409 21.66-18.852 21.36-19.371C21.05-19.913 20.89-20.52 20.89-21.124L20.89-49.124C20.89-49.729 21.05-50.335 21.36-50.877C21.66-51.398 22.11-51.84 22.64-52.149L47.13-66.14C47.67-66.456 48.27-66.617 48.89-66.617Z"/>
  </g>
  <g id="Light-S" transform="matrix(1 0 0 1 1105.2 696)">
   <path d="M48.09-72.82C46.38-72.82 44.71-72.371 43.23-71.518L18.75-57.527C17.26-56.666 16.03-55.439 15.19-53.967C14.34-52.492 13.89-50.822 13.89-49.127L13.89-21.127C13.89-19.434 14.34-17.764 15.19-16.287C16.03-14.816 17.26-13.59 18.74-12.736L43.25 1.272C44.71 2.116 46.38 2.565 48.09 2.565C49.8 2.565 51.47 2.116 52.94 1.264L77.43-12.728C78.92-13.59 80.15-14.816 80.99-16.287C81.84-17.764 82.29-19.434 82.29-21.127L82.29-49.127C82.29-50.822 81.84-52.492 80.99-53.968C80.15-55.439 78.92-56.666 77.44-57.52L52.93-71.527C51.47-72.371 49.8-72.82 48.09-72.82ZM48.09-67.42C48.85-67.42 49.59-67.222 50.23-66.847L74.75-52.838C75.39-52.465 75.94-51.922 76.31-51.279C76.69-50.616 76.89-49.873 76.89-49.127L76.89-21.127C76.89-20.383 76.69-19.639 76.31-18.975C75.94-18.334 75.39-17.79 74.74-17.409L50.25-3.417C49.59-3.034 48.85-2.835 48.09-2.835C47.33-2.835 46.59-3.034 45.94-3.409L21.43-17.417C20.79-17.79 20.24-18.334 19.87-18.976C19.49-19.639 19.29-20.383 19.29-21.127L19.29-49.127C19.29-49.873 19.49-50.616 19.87-51.279C20.24-51.922 20.79-52.465 21.44-52.845L45.93-66.838C46.59-67.222 47.33-67.42 48.09-67.42Z"/>
  </g>
  <g id="Thin-S" transform="matrix(1 0 0 1 809.537 696)">
   <path d="M47.04-71.77C45.52-71.77 44.028-71.37 42.714-70.61L18.221-56.614C16.901-55.853 15.81-54.762 15.051-53.448C14.292-52.137 13.891-50.646 13.89-49.128L13.89-21.127C13.891-19.608 14.292-18.118 15.051-16.804C15.81-15.492 16.901-14.401 18.214-13.643L42.721 0.361C44.03 1.116 45.521 1.515 47.04 1.515C48.558 1.515 50.05 1.116 51.364 0.358L75.858-13.639C77.178-14.401 78.269-15.492 79.028-16.805C79.788-18.118 80.188-19.608 80.19-21.125L80.19-49.127C80.188-50.646 79.788-52.137 79.027-53.449C78.269-54.762 77.178-55.853 75.864-56.611L51.358-70.614C50.051-71.37 48.559-71.77 47.04-71.77ZM47.04-68.47C47.98-68.47 48.902-68.223 49.714-67.753L74.221-53.749C75.027-53.284 75.702-52.61 76.171-51.797C76.641-50.985 76.889-50.064 76.89-49.125L76.89-21.127C76.889-20.19 76.641-19.269 76.171-18.457C75.702-17.644 75.027-16.969 74.214-16.5L49.721-2.504C48.902-2.031 47.979-1.785 47.04-1.785C46.1-1.785 45.177-2.031 44.364-2.501L19.858-16.504C19.053-16.969 18.378-17.644 17.908-18.456C17.438-19.269 17.19-20.19 17.19-21.128L17.19-49.127C17.19-50.064 17.438-50.985 17.907-51.796C18.378-52.61 19.052-53.284 19.864-53.752L44.358-67.749C45.178-68.223 46.1-68.47 47.04-68.47Z"/>
  </g>
  <g id="Ultralight-S" transform="matrix(1 0 0 1 513.376 696)">
   <path d="M46.49-71.219C45.068-71.219 43.671-70.845 42.44-70.133L17.945-56.136C16.711-55.424 15.689-54.402 14.978-53.172C14.267-51.944 13.892-50.548 13.89-49.127L13.89-21.126C13.892-19.704 14.267-18.309 14.978-17.079C15.689-15.85 16.711-14.828 17.94-14.118L42.445-0.116C43.672 0.592 45.068 0.966 46.49 0.966C47.913 0.966 49.309 0.592 50.54-0.118L75.036-14.116C76.27-14.828 77.292-15.85 78.003-17.079C78.714-18.309 79.089-19.704 79.09-21.125L79.09-49.126C79.089-50.548 78.714-51.944 78.002-53.173C77.292-54.402 76.27-55.424 75.04-56.134L50.536-70.136C49.31-70.845 47.913-71.219 46.49-71.219ZM46.49-69.019C47.527-69.019 48.544-68.746 49.44-68.228L73.945-54.226C74.836-53.712 75.58-52.968 76.098-52.072C76.616-51.176 76.89-50.16 76.89-49.125L76.89-21.126C76.89-20.092 76.616-19.076 76.098-18.181C75.58-17.285 74.836-16.541 73.94-16.023L49.445-2.026C48.544-1.506 47.527-1.234 46.49-1.234C45.454-1.234 44.437-1.506 43.54-2.023L19.036-16.026C18.145-16.541 17.4-17.285 16.883-18.18C16.364-19.076 16.091-20.092 16.09-21.127L16.09-49.126C16.091-50.16 16.364-51.176 16.882-52.071C17.4-52.968 18.145-53.712 19.04-54.228L43.536-68.226C44.437-68.746 45.454-69.019 46.49-69.019Z"/>
  </g>
 </g>
</svg>
