<?xml version="1.0" encoding="UTF-8"?>
<!--Generator: Apple Native CoreSVG 175-->
<!DOCTYPE svg
PUBLIC "-//W3C//DTD SVG 1.1//EN"
       "http://www.w3.org/Graphics/SVG/1.1/DTD/svg11.dtd">
<svg version="1.1" xmlns="http://www.w3.org/2000/svg" xmlns:xlink="http://www.w3.org/1999/xlink" width="3300" height="2200">
 <!--glyph: "", point size: 100.0, font version: "17.0d12e1", template writer version: "65.1"-->
 <style>.hierarchical-0:primary {fill:#212121}
.hierarchical-1:secondary {fill:#4D4D4D}

.SFSymbolsPreview212121 {fill:#212121;opacity:1.0}
.SFSymbolsPreview4D4D4D {fill:#4D4D4D;opacity:1.0}
</style>
 <g id="Notes">
  <rect height="2200" id="artboard" style="fill:white;opacity:1" width="3300" x="0" y="0"/>
  <line style="fill:none;stroke:black;opacity:1;stroke-width:0.5;" x1="263" x2="3036" y1="292" y2="292"/>
  <text style="stroke:none;fill:black;font-family:sans-serif;font-size:13;font-weight:bold;" transform="matrix(1 0 0 1 263 322)">Weight/Scale Variations</text>
  <text style="stroke:none;fill:black;font-family:sans-serif;font-size:13;text-anchor:middle;" transform="matrix(1 0 0 1 559.711 322)">Ultralight</text>
  <text style="stroke:none;fill:black;font-family:sans-serif;font-size:13;text-anchor:middle;" transform="matrix(1 0 0 1 856.422 322)">Thin</text>
  <text style="stroke:none;fill:black;font-family:sans-serif;font-size:13;text-anchor:middle;" transform="matrix(1 0 0 1 1153.13 322)">Light</text>
  <text style="stroke:none;fill:black;font-family:sans-serif;font-size:13;text-anchor:middle;" transform="matrix(1 0 0 1 1449.84 322)">Regular</text>
  <text style="stroke:none;fill:black;font-family:sans-serif;font-size:13;text-anchor:middle;" transform="matrix(1 0 0 1 1746.56 322)">Medium</text>
  <text style="stroke:none;fill:black;font-family:sans-serif;font-size:13;text-anchor:middle;" transform="matrix(1 0 0 1 2043.27 322)">Semibold</text>
  <text style="stroke:none;fill:black;font-family:sans-serif;font-size:13;text-anchor:middle;" transform="matrix(1 0 0 1 2339.98 322)">Bold</text>
  <text style="stroke:none;fill:black;font-family:sans-serif;font-size:13;text-anchor:middle;" transform="matrix(1 0 0 1 2636.69 322)">Heavy</text>
  <text style="stroke:none;fill:black;font-family:sans-serif;font-size:13;text-anchor:middle;" transform="matrix(1 0 0 1 2933.4 322)">Black</text>
  <line style="fill:none;stroke:black;opacity:1;stroke-width:0.5;" x1="263" x2="3036" y1="1903" y2="1903"/>
  <g transform="matrix(1 0 0 1 263 1933)">
   <path d="M9.24805 0.830078Q10.8691 0.830078 12.2949 0.214844Q13.7207-0.400391 14.8096-1.49414Q15.8984-2.58789 16.5186-4.01367Q17.1387-5.43945 17.1387-7.05078Q17.1387-8.66211 16.5186-10.0879Q15.8984-11.5137 14.8047-12.6074Q13.7109-13.7012 12.2852-14.3164Q10.8594-14.9316 9.23828-14.9316Q7.62695-14.9316 6.20117-14.3164Q4.77539-13.7012 3.69141-12.6074Q2.60742-11.5137 1.9873-10.0879Q1.36719-8.66211 1.36719-7.05078Q1.36719-5.43945 1.9873-4.01367Q2.60742-2.58789 3.69629-1.49414Q4.78516-0.400391 6.21094 0.214844Q7.63672 0.830078 9.24805 0.830078ZM9.24805-0.654297Q7.91992-0.654297 6.7627-1.14746Q5.60547-1.64062 4.73145-2.51953Q3.85742-3.39844 3.36426-4.56055Q2.87109-5.72266 2.87109-7.05078Q2.87109-8.37891 3.35938-9.54102Q3.84766-10.7031 4.72168-11.582Q5.5957-12.4609 6.75293-12.9541Q7.91016-13.4473 9.23828-13.4473Q10.5762-13.4473 11.7334-12.9541Q12.8906-12.4609 13.7695-11.582Q14.6484-10.7031 15.1465-9.54102Q15.6445-8.37891 15.6445-7.05078Q15.6445-5.72266 15.1514-4.56055Q14.6582-3.39844 13.7842-2.51953Q12.9102-1.64062 11.748-1.14746Q10.5859-0.654297 9.24805-0.654297ZM5.6543-7.05078Q5.6543-6.72852 5.85938-6.52832Q6.06445-6.32812 6.40625-6.32812L8.51562-6.32812L8.51562-4.20898Q8.51562-3.88672 8.71094-3.67676Q8.90625-3.4668 9.23828-3.4668Q9.56055-3.4668 9.77051-3.67676Q9.98047-3.88672 9.98047-4.20898L9.98047-6.32812L12.0898-6.32812Q12.4219-6.32812 12.627-6.52832Q12.832-6.72852 12.832-7.05078Q12.832-7.38281 12.627-7.58789Q12.4219-7.79297 12.0898-7.79297L9.98047-7.79297L9.98047-9.90234Q9.98047-10.2344 9.77051-10.4443Q9.56055-10.6543 9.23828-10.6543Q8.90625-10.6543 8.71094-10.4443Q8.51562-10.2344 8.51562-9.90234L8.51562-7.79297L6.40625-7.79297Q6.06445-7.79297 5.85938-7.58789Q5.6543-7.38281 5.6543-7.05078Z"/>
  </g>
  <g transform="matrix(1 0 0 1 281.867 1933)">
   <path d="M11.709 2.91016Q13.75 2.91016 15.5518 2.12891Q17.3535 1.34766 18.7305-0.0292969Q20.1074-1.40625 20.8887-3.20801Q21.6699-5.00977 21.6699-7.05078Q21.6699-9.0918 20.8887-10.8936Q20.1074-12.6953 18.7305-14.0723Q17.3535-15.4492 15.5469-16.2305Q13.7402-17.0117 11.6992-17.0117Q9.6582-17.0117 7.85645-16.2305Q6.05469-15.4492 4.68262-14.0723Q3.31055-12.6953 2.5293-10.8936Q1.74805-9.0918 1.74805-7.05078Q1.74805-5.00977 2.5293-3.20801Q3.31055-1.40625 4.6875-0.0292969Q6.06445 1.34766 7.86621 2.12891Q9.66797 2.91016 11.709 2.91016ZM11.709 1.25Q9.98047 1.25 8.47656 0.605469Q6.97266-0.0390625 5.83496-1.17676Q4.69727-2.31445 4.05762-3.81836Q3.41797-5.32227 3.41797-7.05078Q3.41797-8.7793 4.05762-10.2832Q4.69727-11.7871 5.83008-12.9297Q6.96289-14.0723 8.4668-14.7119Q9.9707-15.3516 11.6992-15.3516Q13.4277-15.3516 14.9316-14.7119Q16.4355-14.0723 17.5781-12.9297Q18.7207-11.7871 19.3652-10.2832Q20.0098-8.7793 20.0098-7.05078Q20.0098-5.32227 19.3701-3.81836Q18.7305-2.31445 17.5928-1.17676Q16.4551-0.0390625 14.9463 0.605469Q13.4375 1.25 11.709 1.25ZM7.17773-7.05078Q7.17773-6.69922 7.41211-6.47461Q7.64648-6.25 8.01758-6.25L10.8887-6.25L10.8887-3.36914Q10.8887-2.99805 11.1133-2.76855Q11.3379-2.53906 11.6895-2.53906Q12.0605-2.53906 12.29-2.76855Q12.5195-2.99805 12.5195-3.36914L12.5195-6.25L15.4004-6.25Q15.7715-6.25 16.001-6.47461Q16.2305-6.69922 16.2305-7.05078Q16.2305-7.42188 16.001-7.65137Q15.7715-7.88086 15.4004-7.88086L12.5195-7.88086L12.5195-10.752Q12.5195-11.1328 12.29-11.3623Q12.0605-11.5918 11.6895-11.5918Q11.3379-11.5918 11.1133-11.3574Q10.8887-11.123 10.8887-10.752L10.8887-7.88086L8.01758-7.88086Q7.63672-7.88086 7.40723-7.65137Q7.17773-7.42188 7.17773-7.05078Z"/>
  </g>
  <g transform="matrix(1 0 0 1 305.646 1933)">
   <path d="M14.9707 5.66406Q17.0605 5.66406 18.96 5.01465Q20.8594 4.36523 22.4512 3.19336Q24.043 2.02148 25.2197 0.429688Q26.3965-1.16211 27.0459-3.06641Q27.6953-4.9707 27.6953-7.05078Q27.6953-9.14062 27.0459-11.04Q26.3965-12.9395 25.2197-14.5312Q24.043-16.123 22.4512-17.2998Q20.8594-18.4766 18.9551-19.126Q17.0508-19.7754 14.9609-19.7754Q12.8711-19.7754 10.9717-19.126Q9.07227-18.4766 7.48535-17.2998Q5.89844-16.123 4.72168-14.5312Q3.54492-12.9395 2.90039-11.04Q2.25586-9.14062 2.25586-7.05078Q2.25586-4.9707 2.90527-3.06641Q3.55469-1.16211 4.72656 0.429688Q5.89844 2.02148 7.49023 3.19336Q9.08203 4.36523 10.9814 5.01465Q12.8809 5.66406 14.9707 5.66406ZM14.9707 3.84766Q13.1641 3.84766 11.5283 3.2959Q9.89258 2.74414 8.53516 1.74805Q7.17773 0.751953 6.17676-0.610352Q5.17578-1.97266 4.62891-3.6084Q4.08203-5.24414 4.08203-7.05078Q4.08203-8.86719 4.62891-10.5029Q5.17578-12.1387 6.17188-13.501Q7.16797-14.8633 8.52539-15.8594Q9.88281-16.8555 11.5186-17.4023Q13.1543-17.9492 14.9609-17.9492Q16.7773-17.9492 18.4131-17.4023Q20.0488-16.8555 21.4111-15.8594Q22.7734-14.8633 23.7695-13.501Q24.7656-12.1387 25.3174-10.5029Q25.8691-8.86719 25.8691-7.05078Q25.8789-5.24414 25.332-3.6084Q24.7852-1.97266 23.7842-0.610352Q22.7832 0.751953 21.4209 1.74805Q20.0586 2.74414 18.4229 3.2959Q16.7871 3.84766 14.9707 3.84766ZM9.19922-7.05078Q9.19922-6.66992 9.45801-6.4209Q9.7168-6.17188 10.1172-6.17188L14.0625-6.17188L14.0625-2.2168Q14.0625-1.81641 14.3115-1.55762Q14.5605-1.29883 14.9512-1.29883Q15.3516-1.29883 15.6104-1.55273Q15.8691-1.80664 15.8691-2.2168L15.8691-6.17188L19.8242-6.17188Q20.2246-6.17188 20.4785-6.4209Q20.7324-6.66992 20.7324-7.05078Q20.7324-7.46094 20.4785-7.71484Q20.2246-7.96875 19.8242-7.96875L15.8691-7.96875L15.8691-11.9141Q15.8691-12.3242 15.6104-12.583Q15.3516-12.8418 14.9512-12.8418Q14.5605-12.8418 14.3115-12.583Q14.0625-12.3242 14.0625-11.9141L14.0625-7.96875L10.1172-7.96875Q9.70703-7.96875 9.45312-7.71484Q9.19922-7.46094 9.19922-7.05078Z"/>
  </g>
  <text style="stroke:none;fill:black;font-family:sans-serif;font-size:13;font-weight:bold;" transform="matrix(1 0 0 1 263 1953)">Design Variations</text>
  <text style="stroke:none;fill:black;font-family:sans-serif;font-size:13;" transform="matrix(1 0 0 1 263 1971)">Symbols are supported in up to nine weights and three scales.</text>
  <text style="stroke:none;fill:black;font-family:sans-serif;font-size:13;" transform="matrix(1 0 0 1 263 1989)">For optimal layout with text and other symbols, vertically align</text>
  <text style="stroke:none;fill:black;font-family:sans-serif;font-size:13;" transform="matrix(1 0 0 1 263 2007)">symbols with the adjacent text.</text>
  <line style="fill:none;stroke:#00AEEF;stroke-width:0.5;opacity:1.0;" x1="776" x2="776" y1="1919" y2="1933"/>
  <g transform="matrix(1 0 0 1 776 1933)">
   <path d="M3.31055 0.15625Q3.70117 0.15625 3.91602-0.00976562Q4.13086-0.175781 4.26758-0.585938L5.52734-4.0332L11.2891-4.0332L12.5488-0.585938Q12.6855-0.175781 12.9004-0.00976562Q13.1152 0.15625 13.4961 0.15625Q13.8867 0.15625 14.1162-0.0585938Q14.3457-0.273438 14.3457-0.644531Q14.3457-0.869141 14.2383-1.17188L9.6582-13.3691Q9.48242-13.8184 9.17969-14.043Q8.87695-14.2676 8.4082-14.2676Q7.5-14.2676 7.17773-13.3789L2.59766-1.16211Q2.49023-0.859375 2.49023-0.634766Q2.49023-0.263672 2.70996-0.0537109Q2.92969 0.15625 3.31055 0.15625ZM6.00586-5.51758L8.37891-12.0898L8.42773-12.0898L10.8008-5.51758Z"/>
  </g>
  <line style="fill:none;stroke:#00AEEF;stroke-width:0.5;opacity:1.0;" x1="793.197" x2="793.197" y1="1919" y2="1933"/>
  <text style="stroke:none;fill:black;font-family:sans-serif;font-size:13;font-weight:bold;" transform="matrix(1 0 0 1 776 1953)">Margins</text>
  <text style="stroke:none;fill:black;font-family:sans-serif;font-size:13;" transform="matrix(1 0 0 1 776 1971)">Leading and trailing margins on the left and right side of each symbol</text>
  <text style="stroke:none;fill:black;font-family:sans-serif;font-size:13;" transform="matrix(1 0 0 1 776 1989)">can be adjusted by modifying the x-location of the margin guidelines.</text>
  <text style="stroke:none;fill:black;font-family:sans-serif;font-size:13;" transform="matrix(1 0 0 1 776 2007)">Modifications are automatically applied proportionally to all</text>
  <text style="stroke:none;fill:black;font-family:sans-serif;font-size:13;" transform="matrix(1 0 0 1 776 2025)">scales and weights.</text>
  <g transform="matrix(1 0 0 1 1289 1933)">
   <path d="M2.8418 1.86523L4.54102 3.57422Q5.18555 4.22852 5.90332 4.17969Q6.62109 4.13086 7.31445 3.35938L18.0078-8.42773L17.041-9.4043L6.42578 2.27539Q6.16211 2.57812 5.89355 2.61719Q5.625 2.65625 5.27344 2.30469L4.10156 1.14258Q3.75 0.791016 3.79395 0.522461Q3.83789 0.253906 4.14062-0.0195312L15.6152-10.8203L14.6387-11.7871L3.04688-0.898438Q2.30469-0.214844 2.25098 0.498047Q2.19727 1.21094 2.8418 1.86523ZM9.25781-16.3281Q8.94531-16.0254 8.90625-15.6348Q8.86719-15.2441 9.04297-14.9512Q9.21875-14.6777 9.55566-14.541Q9.89258-14.4043 10.3809-14.5215Q11.4746-14.7754 12.5977-14.7314Q13.7207-14.6875 14.7949-13.9844L14.209-12.5293Q13.9551-11.9043 14.0674-11.4404Q14.1797-10.9766 14.5801-10.5664L16.875-8.25195Q17.2363-7.88086 17.5781-7.82227Q17.9199-7.76367 18.3398-7.8418L19.4043-8.03711L20.0684-7.36328L20.0293-6.80664Q20-6.43555 20.1221-6.12305Q20.2441-5.81055 20.6055-5.44922L21.3672-4.70703Q21.7285-4.3457 22.1533-4.33105Q22.5781-4.31641 22.9297-4.66797L25.8398-7.58789Q26.1914-7.93945 26.1816-8.35449Q26.1719-8.76953 25.8105-9.13086L25.0391-9.89258Q24.6875-10.2539 24.3799-10.3857Q24.0723-10.5176 23.7109-10.4883L23.1348-10.4395L22.4902-11.0742L22.7344-12.1973Q22.832-12.6172 22.6953-12.9834Q22.5586-13.3496 22.1191-13.7891L19.9219-15.9766Q18.6719-17.2168 17.2607-17.8369Q15.8496-18.457 14.4189-18.4814Q12.9883-18.5059 11.665-17.959Q10.3418-17.4121 9.25781-16.3281ZM10.752-15.957Q11.6602-16.6211 12.7002-16.9043Q13.7402-17.1875 14.8047-17.085Q15.8691-16.9824 16.8701-16.5137Q17.8711-16.0449 18.7012-15.2051L21.1328-12.793Q21.3086-12.6172 21.3525-12.4512Q21.3965-12.2852 21.3379-12.0312L21.0156-10.5469L22.5195-9.0625L23.5059-9.12109Q23.6914-9.13086 23.7891-9.09668Q23.8867-9.0625 24.0332-8.91602L24.6094-8.33984L22.168-5.89844L21.5918-6.47461Q21.4453-6.62109 21.4062-6.71875Q21.3672-6.81641 21.377-7.01172L21.4453-7.98828L19.9512-9.47266L18.4277-9.21875Q18.1836-9.16992 18.042-9.2041Q17.9004-9.23828 17.7148-9.41406L15.7129-11.416Q15.5176-11.5918 15.4932-11.7529Q15.4688-11.9141 15.5859-12.1875L16.4648-14.2773Q15.293-15.3711 13.8281-15.791Q12.3633-16.2109 10.8398-15.7617Q10.7227-15.7324 10.6885-15.8057Q10.6543-15.8789 10.752-15.957Z"/>
  </g>
  <text style="stroke:none;fill:black;font-family:sans-serif;font-size:13;font-weight:bold;" transform="matrix(1 0 0 1 1289 1953)">Exporting</text>
  <text style="stroke:none;fill:black;font-family:sans-serif;font-size:13;" transform="matrix(1 0 0 1 1289 1971)">Symbols should be outlined when exporting to ensure the</text>
  <text style="stroke:none;fill:black;font-family:sans-serif;font-size:13;" transform="matrix(1 0 0 1 1289 1989)">design is preserved when submitting to Xcode.</text>
  <text id="template-version" style="stroke:none;fill:black;font-family:sans-serif;font-size:13;text-anchor:end;" transform="matrix(1 0 0 1 3036 1933)">Template v.3.0</text>
  <text style="stroke:none;fill:black;font-family:sans-serif;font-size:13;text-anchor:end;" transform="matrix(1 0 0 1 3036 1951)">Requires Xcode 13 or greater</text>
  <text id="descriptive-name" style="stroke:none;fill:black;font-family:sans-serif;font-size:13;text-anchor:end;" transform="matrix(1 0 0 1 3036 1969)">Generated from cloud-drizzle</text>
  <text style="stroke:none;fill:black;font-family:sans-serif;font-size:13;text-anchor:end;" transform="matrix(1 0 0 1 3036 1987)">Typeset at 100 points</text>
  <text style="stroke:none;fill:black;font-family:sans-serif;font-size:13;" transform="matrix(1 0 0 1 263 726)">Small</text>
  <text style="stroke:none;fill:black;font-family:sans-serif;font-size:13;" transform="matrix(1 0 0 1 263 1156)">Medium</text>
  <text style="stroke:none;fill:black;font-family:sans-serif;font-size:13;" transform="matrix(1 0 0 1 263 1586)">Large</text>
 </g>
 <g id="Guides">
  <g id="H-reference" style="fill:#27AAE1;stroke:none;" transform="matrix(1 0 0 1 339 696)">
   <path d="M0.976562 0L3.66211 0L29.3457-67.1387L30.0293-67.1387L30.0293-70.459L28.125-70.459ZM11.6699-24.4629L46.9727-24.4629L46.2402-26.709L12.4512-26.709ZM55.127 0L57.7637 0L30.6152-70.459L29.4434-70.459L29.4434-67.1387Z"/>
  </g>
  <line id="Baseline-S" style="fill:none;stroke:#27AAE1;opacity:1;stroke-width:0.5;" x1="263" x2="3036" y1="696" y2="696"/>
  <line id="Capline-S" style="fill:none;stroke:#27AAE1;opacity:1;stroke-width:0.5;" x1="263" x2="3036" y1="625.541" y2="625.541"/>
  <g id="H-reference" style="fill:#27AAE1;stroke:none;" transform="matrix(1 0 0 1 339 1126)">
   <path d="M0.976562 0L3.66211 0L29.3457-67.1387L30.0293-67.1387L30.0293-70.459L28.125-70.459ZM11.6699-24.4629L46.9727-24.4629L46.2402-26.709L12.4512-26.709ZM55.127 0L57.7637 0L30.6152-70.459L29.4434-70.459L29.4434-67.1387Z"/>
  </g>
  <line id="Baseline-M" style="fill:none;stroke:#27AAE1;opacity:1;stroke-width:0.5;" x1="263" x2="3036" y1="1126" y2="1126"/>
  <line id="Capline-M" style="fill:none;stroke:#27AAE1;opacity:1;stroke-width:0.5;" x1="263" x2="3036" y1="1055.54" y2="1055.54"/>
  <g id="H-reference" style="fill:#27AAE1;stroke:none;" transform="matrix(1 0 0 1 339 1556)">
   <path d="M0.976562 0L3.66211 0L29.3457-67.1387L30.0293-67.1387L30.0293-70.459L28.125-70.459ZM11.6699-24.4629L46.9727-24.4629L46.2402-26.709L12.4512-26.709ZM55.127 0L57.7637 0L30.6152-70.459L29.4434-70.459L29.4434-67.1387Z"/>
  </g>
  <line id="Baseline-L" style="fill:none;stroke:#27AAE1;opacity:1;stroke-width:0.5;" x1="263" x2="3036" y1="1556" y2="1556"/>
  <line id="Capline-L" style="fill:none;stroke:#27AAE1;opacity:1;stroke-width:0.5;" x1="263" x2="3036" y1="1485.54" y2="1485.54"/>
  <line id="left-margin-Regular-M" style="fill:none;stroke:#00AEEF;stroke-width:0.5;opacity:1.0;" x1="1393.37" x2="1393.37" y1="1030.78" y2="1150.12"/>
  <line id="right-margin-Regular-M" style="fill:none;stroke:#00AEEF;stroke-width:0.5;opacity:1.0;" x1="1506.32" x2="1506.32" y1="1030.78" y2="1150.12"/>
 </g>
 <g id="Symbols">
  <g id="Black-L" transform="matrix(1 0 0 1 2859.85 1556)">
   <path class="hierarchical-0:primary SFSymbolsPreview212121" d="M51.3626-37.7814C55.2826-37.7814 58.4626-34.6014 58.4626-30.6814L58.4626-19.3114C58.4626-15.3914 55.2826-12.2114 51.3626-12.2114C47.4426-12.2114 44.2626-15.3914 44.2626-19.3114L44.2626-30.6814C44.2626-34.6014 47.4426-37.7814 51.3626-37.7814ZM96.8626-37.7814C100.783-37.7814 103.963-34.6014 103.963-30.6814L103.963-19.3114C103.963-15.3914 100.783-12.2114 96.8626-12.2114C92.9426-12.2114 89.7626-15.3914 89.7626-19.3114L89.7626-30.6814C89.7626-34.6014 92.9426-37.7814 96.8626-37.7814ZM74.1126 7.71862C78.0326 7.71862 81.2126 10.8986 81.2126 14.8186L81.2126 26.1886C81.2126 30.1086 78.0326 33.2886 74.1126 33.2886C70.1926 33.2886 67.0126 30.1086 67.0126 26.1886L67.0126 14.8186C67.0126 10.8986 70.1926 7.71862 74.1126 7.71862ZM74.1126-26.4114C78.0326-26.4114 81.2126-23.2314 81.2126-19.3114L81.2126-7.93138C81.2126-4.01138 78.0326-0.831376 74.1126-0.831376C70.1926-0.831376 67.0126-4.01138 67.0126-7.93138L67.0126-19.3114C67.0126-23.2314 70.1926-26.4114 74.1126-26.4114ZM51.3626-3.66138C55.2826-3.66138 58.4626-0.481377 58.4626 3.43862L58.4626 14.8186C58.4626 18.7386 55.2826 21.9186 51.3626 21.9186C47.4426 21.9186 44.2626 18.7386 44.2626 14.8186L44.2626 3.43862C44.2626-0.481377 47.4426-3.66138 51.3626-3.66138ZM96.8626-3.66138C100.783-3.66138 103.963-0.481377 103.963 3.43862L103.963 14.8186C103.963 18.7386 100.783 21.9186 96.8626 21.9186C92.9426 21.9186 89.7626 18.7386 89.7626 14.8186L89.7626 3.43862C89.7626-0.481377 92.9426-3.66138 96.8626-3.66138Z"/>
   <path class="hierarchical-1:secondary SFSymbolsPreview4D4D4D" d="M51.6926-105.762C59.9826-106.602 68.3526-105.472 76.1226-102.442C83.8926-99.4114 90.8226-94.5814 96.3526-88.3514C100.653-83.5114 104.003-77.9314 106.263-71.9114L108.243-71.9114C116.403-71.9014 124.313-69.0814 130.633-63.9314C136.963-58.7914 141.323-51.6214 142.993-43.6314C144.663-35.6514 143.533-27.3314 139.793-20.0814C136.053-12.8314 129.933-7.09138 122.463-3.82138C118.873-2.24138 114.683-3.88138 113.113-7.47138C111.533-11.0614 113.173-15.2514 116.763-16.8214C121.253-18.7914 124.923-22.2414 127.173-26.5914C129.413-30.9414 130.093-35.9414 129.093-40.7314C128.093-45.5214 125.473-49.8314 121.673-52.9214C117.873-56.0114 113.133-57.7014 108.233-57.7114L101.073-57.7114C97.8326-57.7114 95.0026-59.9014 94.2026-63.0314C92.6726-68.9214 89.7726-74.3714 85.7326-78.9214C81.7026-83.4714 76.6326-87.0014 70.9626-89.2114C65.2926-91.4214 59.1826-92.2514 53.1326-91.6314C47.0726-91.0214 41.2526-88.9714 36.1426-85.6614C31.0326-82.3614 26.7926-77.8814 23.7526-72.6114C20.7126-67.3414 18.9726-61.4214 18.6626-55.3414C18.3626-49.2614 19.5126-43.2014 22.0126-37.6514C24.5126-32.1014 28.2926-27.2314 33.0426-23.4314C36.1126-20.9814 36.6126-16.5214 34.1626-13.4514C31.7126-10.3914 27.2426-9.89138 24.1826-12.3414C17.6726-17.5414 12.4926-24.2214 9.06263-31.8214C5.64263-39.4214 4.07263-47.7214 4.48263-56.0514C4.89263-64.3714 7.28263-72.4814 11.4526-79.7014C15.6126-86.9214 21.4326-93.0514 28.4226-97.5814C35.4226-102.112 43.3926-104.922 51.6926-105.762Z"/>
  </g>
  <g id="Heavy-L" transform="matrix(1 0 0 1 2563.99 1556)">
   <path class="hierarchical-0:primary SFSymbolsPreview212121" d="M50.5136-36.928C53.9636-36.928 56.7636-34.128 56.7636-30.678L56.7636-19.308C56.7636-15.858 53.9636-13.058 50.5136-13.058C47.0636-13.058 44.2636-15.858 44.2636-19.308L44.2636-30.678C44.2636-34.128 47.0636-36.928 50.5136-36.928ZM96.0136-36.928C99.4636-36.928 102.264-34.128 102.264-30.678L102.264-19.308C102.264-15.858 99.4636-13.058 96.0136-13.058C92.5636-13.058 89.7636-15.858 89.7636-19.308L89.7636-30.678C89.7636-34.128 92.5636-36.928 96.0136-36.928ZM73.2636 8.57198C76.7136 8.57198 79.5136 11.372 79.5136 14.822L79.5136 26.192C79.5136 29.642 76.7136 32.442 73.2636 32.442C69.8136 32.442 67.0136 29.642 67.0136 26.192L67.0136 14.822C67.0136 11.372 69.8136 8.57198 73.2636 8.57198ZM73.2636-25.558C76.7136-25.558 79.5136-22.758 79.5136-19.308L79.5136-7.92802C79.5136-4.47802 76.7136-1.67802 73.2636-1.67802C69.8136-1.67802 67.0136-4.47802 67.0136-7.92802L67.0136-19.308C67.0136-22.758 69.8136-25.558 73.2636-25.558ZM50.5136-2.80802C53.9636-2.80802 56.7636-0.00801588 56.7636 3.44198L56.7636 14.822C56.7636 18.272 53.9636 21.072 50.5136 21.072C47.0636 21.072 44.2636 18.272 44.2636 14.822L44.2636 3.44198C44.2636-0.00801588 47.0636-2.80802 50.5136-2.80802ZM96.0136-2.80802C99.4636-2.80802 102.264-0.00801588 102.264 3.44198L102.264 14.822C102.264 18.272 99.4636 21.072 96.0136 21.072C92.5636 21.072 89.7636 18.272 89.7636 14.822L89.7636 3.44198C89.7636-0.00801588 92.5636-2.80802 96.0136-2.80802Z"/>
   <path class="hierarchical-1:secondary SFSymbolsPreview4D4D4D" d="M50.9236-104.908C59.0836-105.748 67.3236-104.628 74.9636-101.648C82.6036-98.668 89.4236-93.918 94.8736-87.778C99.2236-82.878 102.594-77.198 104.824-71.058L107.394-71.058C115.354-71.048 123.074-68.298 129.244-63.268C135.424-58.248 139.684-51.248 141.304-43.458C142.934-35.668 141.834-27.548 138.184-20.468C134.534-13.398 128.564-7.78802 121.274-4.59802C118.104-3.20802 114.424-4.64802 113.034-7.80802C111.654-10.978 113.094-14.658 116.254-16.048C120.924-18.088 124.744-21.678 127.074-26.198C129.404-30.728 130.114-35.918 129.074-40.898C128.034-45.888 125.304-50.368 121.354-53.578C117.404-56.788 112.474-58.548 107.384-58.558C107.384-58.558 107.384-58.558 107.384-58.558L100.224-58.558C97.3736-58.558 94.8836-60.488 94.1736-63.238C92.6136-69.268 89.6536-74.828 85.5236-79.488C81.3936-84.138 76.2136-87.738 70.4236-89.998C64.6236-92.258 58.3736-93.108 52.1936-92.478C46.0036-91.848 40.0536-89.758 34.8336-86.378C29.6136-82.998 25.2636-78.418 22.1636-73.028C19.0536-67.648 17.2736-61.598 16.9636-55.378C16.6536-49.168 17.8236-42.968 20.3836-37.298C22.9336-31.628 26.8036-26.648 31.6636-22.768C34.3636-20.608 34.8036-16.678 32.6436-13.978C30.4936-11.288 26.5536-10.848 23.8636-12.998C17.4536-18.118 12.3536-24.688 8.9836-32.168C5.6136-39.638 4.0736-47.808 4.4836-56.008C4.8836-64.198 7.2336-72.168 11.3336-79.278C15.4236-86.378 21.1536-92.408 28.0336-96.868C34.9236-101.328 42.7636-104.078 50.9236-104.908Z"/>
  </g>
  <g id="Bold-L" transform="matrix(1 0 0 1 2268.23 1556)">
   <path class="hierarchical-0:primary SFSymbolsPreview212121" d="M49.5615-35.953C52.4915-35.953 54.8615-33.583 54.8615-30.653L54.8615-19.283C54.8615-16.353 52.4915-13.983 49.5615-13.983C46.6415-13.983 44.2615-16.353 44.2615-19.283L44.2615-30.653C44.2615-33.583 46.6415-35.953 49.5615-35.953ZM95.0615-35.953C97.9915-35.953 100.362-33.583 100.362-30.653L100.362-19.283C100.362-16.353 97.9915-13.983 95.0615-13.983C92.1415-13.983 89.7615-16.353 89.7615-19.283L89.7615-30.653C89.7615-33.583 92.1415-35.953 95.0615-35.953ZM72.3115 9.54704C75.2415 9.54704 77.6115 11.917 77.6115 14.847L77.6115 26.217C77.6115 29.147 75.2415 31.517 72.3115 31.517C69.3915 31.517 67.0115 29.147 67.0115 26.217L67.0115 14.847C67.0115 11.917 69.3915 9.54704 72.3115 9.54704ZM72.3115-24.583C75.2415-24.583 77.6115-22.213 77.6115-19.283L77.6115-7.90292C77.6115-4.98292 75.2415-2.60292 72.3115-2.60292C69.3915-2.60292 67.0115-4.98292 67.0115-7.90292L67.0115-19.283C67.0115-22.213 69.3915-24.583 72.3115-24.583ZM49.5615-1.83292C52.4915-1.83292 54.8615 0.537079 54.8615 3.46708L54.8615 14.847C54.8615 17.767 52.4915 20.147 49.5615 20.147C46.6415 20.147 44.2615 17.767 44.2615 14.847L44.2615 3.46708C44.2615 0.537079 46.6415-1.83292 49.5615-1.83292ZM95.0615-1.83292C97.9915-1.83292 100.362 0.537079 100.362 3.46708L100.362 14.847C100.362 17.767 97.9915 20.147 95.0615 20.147C92.1415 20.147 89.7615 17.767 89.7615 14.847L89.7615 3.46708C89.7615 0.537079 92.1415-1.83292 95.0615-1.83292Z"/>
   <path class="hierarchical-1:secondary SFSymbolsPreview4D4D4D" d="M50.0715-103.942C58.0815-104.762 66.1715-103.662 73.6715-100.732C81.1715-97.813 87.8715-93.143 93.2115-87.123C97.6315-82.143 101.022-76.353 103.202-70.083L106.452-70.083C114.192-70.073 121.692-67.403 127.702-62.513C133.712-57.623 137.852-50.823 139.432-43.243C141.012-35.663 139.942-27.763 136.392-20.883C132.842-14.003 127.032-8.54292 119.942-5.44292C117.262-4.26292 114.132-5.48292 112.962-8.17292C111.792-10.853 113.012-13.973 115.692-15.153C120.552-17.283 124.542-21.023 126.972-25.743C129.402-30.463 130.142-35.873 129.052-41.073C127.972-46.273 125.132-50.943 121.012-54.293C116.892-57.643 111.752-59.473 106.442-59.483C106.432-59.483 106.432-59.483 106.432-59.483L99.2715-59.483C96.8615-59.483 94.7515-61.113 94.1415-63.453C92.5515-69.623 89.5115-75.323 85.2815-80.093C81.0515-84.853 75.7515-88.543 69.8215-90.863C63.8815-93.173 57.4815-94.043 51.1515-93.393C44.8115-92.753 38.7115-90.613 33.3715-87.143C28.0215-83.683 23.5715-79.003 20.3915-73.483C17.2115-67.963 15.3815-61.763 15.0715-55.403C14.7515-49.043 15.9515-42.693 18.5715-36.883C21.1915-31.083 25.1515-25.973 30.1215-22.003C32.4115-20.173 32.7815-16.833 30.9515-14.553C29.1315-12.263 25.7915-11.893 23.5115-13.723C17.2215-18.743 12.2115-25.193 8.90147-32.533C5.60147-39.873 4.08147-47.893 4.48147-55.933C4.88147-63.973 7.19147-71.803 11.2115-78.773C15.2315-85.753 20.8515-91.673 27.6115-96.043C34.3615-100.423 42.0615-103.122 50.0715-103.942Z"/>
  </g>
  <g id="Semibold-L" transform="matrix(1 0 0 1 1972.17 1556)">
   <path class="hierarchical-0:primary SFSymbolsPreview212121" d="M48.9121-35.2898C51.4821-35.2898 53.5621-33.2098 53.5621-30.6398L53.5621-19.2698C53.5621-16.6998 51.4821-14.6198 48.9121-14.6198C46.3421-14.6198 44.2621-16.6998 44.2621-19.2698L44.2621-30.6398C44.2621-33.2098 46.3421-35.2898 48.9121-35.2898ZM94.4121-35.2898C96.9821-35.2898 99.0621-33.2098 99.0621-30.6398L99.0621-19.2698C99.0621-16.6998 96.9821-14.6198 94.4121-14.6198C91.8421-14.6198 89.7621-16.6998 89.7621-19.2698L89.7621-30.6398C89.7621-33.2098 91.8421-35.2898 94.4121-35.2898ZM71.6621 10.2102C74.2321 10.2102 76.3121 12.2902 76.3121 14.8602L76.3121 26.2302C76.3121 28.8002 74.2321 30.8802 71.6621 30.8802C69.0921 30.8802 67.0121 28.8002 67.0121 26.2302L67.0121 14.8602C67.0121 12.2902 69.0921 10.2102 71.6621 10.2102ZM71.6621-23.9198C74.2321-23.9198 76.3121-21.8398 76.3121-19.2698L76.3121-7.88988C76.3121-5.32988 74.2321-3.23988 71.6621-3.23988C69.0921-3.23988 67.0121-5.32988 67.0121-7.88988L67.0121-19.2698C67.0121-21.8398 69.0921-23.9198 71.6621-23.9198ZM48.9121-1.16988C51.4821-1.16988 53.5621 0.910121 53.5621 3.48012L53.5621 14.8602C53.5621 17.4202 51.4821 19.5102 48.9121 19.5102C46.3421 19.5102 44.2621 17.4202 44.2621 14.8602L44.2621 3.48012C44.2621 0.910121 46.3421-1.16988 48.9121-1.16988ZM94.4121-1.16988C96.9821-1.16988 99.0621 0.910121 99.0621 3.48012L99.0621 14.8602C99.0621 17.4202 96.9821 19.5102 94.4121 19.5102C91.8421 19.5102 89.7621 17.4202 89.7621 14.8602L89.7621 3.48012C89.7621 0.910121 91.8421-1.16988 94.4121-1.16988Z"/>
   <path class="hierarchical-1:secondary SFSymbolsPreview4D4D4D" d="M49.4821-103.28C57.3921-104.09 65.3721-103 72.7821-100.12C80.1821-97.2298 86.8021-92.6298 92.0721-86.6798C96.5421-81.6498 99.9421-75.7698 102.082-69.4198L105.792-69.4198C113.382-69.4098 120.752-66.7898 126.642-61.9898C132.532-57.1998 136.592-50.5298 138.142-43.0898C139.692-35.6598 138.642-27.9198 135.162-21.1698C131.682-14.4198 125.982-9.06988 119.032-6.01988C116.672-4.98988 113.932-6.05988 112.902-8.41988C111.872-10.7698 112.942-13.5098 115.292-14.5398C120.302-16.7298 124.392-20.5798 126.892-25.4298C129.402-30.2798 130.152-35.8498 129.042-41.1898C127.922-46.5398 125.002-51.3298 120.772-54.7798C116.532-58.2298 111.242-60.1098 105.782-60.1198C105.782-60.1198 105.782-60.1198 105.782-60.1198L98.6221-60.1198C96.5021-60.1198 94.6521-61.5498 94.1221-63.6098C92.5021-69.8698 89.4121-75.6698 85.1221-80.5098C80.8221-85.3498 75.4321-89.0998 69.4021-91.4498C63.3721-93.7998 56.8721-94.6898 50.4321-94.0298C43.9921-93.3798 37.7921-91.1998 32.3621-87.6798C26.9321-84.1598 22.4121-79.3998 19.1721-73.7898C15.9421-68.1898 14.0921-61.8898 13.7621-55.4198C13.4421-48.9598 14.6621-42.5098 17.3221-36.6098C19.9821-30.7098 24.0121-25.5198 29.0621-21.4798C31.0721-19.8798 31.4021-16.9498 29.7921-14.9398C28.1921-12.9398 25.2621-12.6098 23.2621-14.2098C17.0521-19.1698 12.1121-25.5398 8.84213-32.7898C5.58213-40.0298 4.08213-47.9498 4.48213-55.8898C4.87213-63.8198 7.15213-71.5498 11.1221-78.4398C15.0921-85.3198 20.6321-91.1698 27.3021-95.4898C33.9821-99.8098 41.5821-102.48 49.4821-103.28Z"/>
  </g>
  <g id="Medium-L" transform="matrix(1 0 0 1 1675.96 1556)">
   <path class="hierarchical-0:primary SFSymbolsPreview212121" d="M48.4125-34.7654C50.7025-34.7654 52.5625-32.9154 52.5625-30.6154L52.5625-19.2454C52.5625-16.9554 50.7025-15.0954 48.4125-15.0954C46.1225-15.0954 44.2625-16.9554 44.2625-19.2454L44.2625-30.6154C44.2625-32.9154 46.1225-34.7654 48.4125-34.7654ZM93.9125-34.7654C96.2025-34.7654 98.0625-32.9154 98.0625-30.6154L98.0625-19.2454C98.0625-16.9554 96.2025-15.0954 93.9125-15.0954C91.6225-15.0954 89.7625-16.9554 89.7625-19.2454L89.7625-30.6154C89.7625-32.9154 91.6225-34.7654 93.9125-34.7654ZM71.1625 10.7346C73.4525 10.7346 75.3125 12.5846 75.3125 14.8846L75.3125 26.2546C75.3125 28.5446 73.4525 30.4046 71.1625 30.4046C68.8725 30.4046 67.0125 28.5446 67.0125 26.2546L67.0125 14.8846C67.0125 12.5846 68.8725 10.7346 71.1625 10.7346ZM71.1625-23.3954C73.4525-23.3954 75.3125-21.5354 75.3125-19.2454L75.3125-7.86535C75.3125-5.57535 73.4525-3.71535 71.1625-3.71535C68.8725-3.71535 67.0125-5.57535 67.0125-7.86535L67.0125-19.2454C67.0125-21.5354 68.8725-23.3954 71.1625-23.3954ZM48.4125-0.645347C50.7025-0.645347 52.5625 1.21465 52.5625 3.50465L52.5625 14.8846C52.5625 17.1746 50.7025 19.0346 48.4125 19.0346C46.1225 19.0346 44.2625 17.1746 44.2625 14.8846L44.2625 3.50465C44.2625 1.21465 46.1225-0.645347 48.4125-0.645347ZM93.9125-0.645347C96.2025-0.645347 98.0625 1.21465 98.0625 3.50465L98.0625 14.8846C98.0625 17.1746 96.2025 19.0346 93.9125 19.0346C91.6225 19.0346 89.7625 17.1746 89.7625 14.8846L89.7625 3.50465C89.7625 1.21465 91.6225-0.645347 93.9125-0.645347Z"/>
   <path class="hierarchical-1:secondary SFSymbolsPreview4D4D4D" d="M49.0325-102.766C56.8625-103.556 64.7725-102.486 72.1025-99.6254C79.4325-96.7654 85.9725-92.2054 91.2025-86.3254C95.7025-81.2554 99.1125-75.3154 101.223-68.8954L105.293-68.8954C112.773-68.8854 120.023-66.3054 125.823-61.5854C131.623-56.8654 135.623-50.2854 137.153-42.9654C138.683-35.6454 137.643-28.0154 134.223-21.3754C130.793-14.7254 125.183-9.45535 118.323-6.45535C116.233-5.53535 113.783-6.49535 112.863-8.59535C111.943-10.6954 112.903-13.1354 115.003-14.0554C120.103-16.2954 124.283-20.2154 126.843-25.1754C129.393-30.1254 130.173-35.8154 129.033-41.2654C127.893-46.7254 124.913-51.6254 120.583-55.1454C116.263-58.6654 110.863-60.5854 105.283-60.5954C105.283-60.5954 105.283-60.5954 105.283-60.5954L98.1225-60.5954C96.2325-60.5954 94.5725-61.8754 94.1025-63.7054C92.4625-70.0454 89.3425-75.9154 84.9925-80.8154C80.6425-85.7154 75.1925-89.5154 69.0825-91.8954C62.9825-94.2754 56.3925-95.1654 49.8825-94.5054C43.3625-93.8354 37.0925-91.6354 31.5925-88.0754C26.0925-84.5154 21.5125-79.6954 18.2425-74.0154C14.9725-68.3454 13.0925-61.9654 12.7725-55.4254C12.4425-48.8754 13.6725-42.3554 16.3725-36.3754C19.0625-30.4054 23.1325-25.1554 28.2525-21.0654C30.0425-19.6354 30.3325-17.0254 28.9025-15.2354C27.4725-13.4354 24.8625-13.1454 23.0725-14.5754C16.9225-19.4954 12.0325-25.7954 8.80248-32.9654C5.57248-40.1354 4.08248-47.9754 4.48248-55.8354C4.87248-63.6954 7.12248-71.3454 11.0525-78.1654C14.9825-84.9754 20.4725-90.7654 27.0825-95.0454C33.6825-99.3154 41.2125-101.966 49.0325-102.766Z"/>
  </g>
  <g id="Regular-L" transform="matrix(1 0 0 1 1379.9 1556)">
   <path class="hierarchical-0:primary SFSymbolsPreview212121" d="M47.7678-34.1124C49.6978-34.1124 51.2678-32.5524 51.2678-30.6124L51.2678-19.2424C51.2678-17.3024 49.6978-15.7424 47.7678-15.7424C45.8378-15.7424 44.2678-17.3024 44.2678-19.2424L44.2678-30.6124C44.2678-32.5524 45.8378-34.1124 47.7678-34.1124ZM93.2678-34.1124C95.1978-34.1124 96.7678-32.5524 96.7678-30.6124L96.7678-19.2424C96.7678-17.3024 95.1978-15.7424 93.2678-15.7424C91.3378-15.7424 89.7678-17.3024 89.7678-19.2424L89.7678-30.6124C89.7678-32.5524 91.3378-34.1124 93.2678-34.1124ZM70.5178 11.3876C72.4478 11.3876 74.0178 12.9476 74.0178 14.8876L74.0178 26.2576C74.0178 28.1976 72.4478 29.7576 70.5178 29.7576C68.5878 29.7576 67.0178 28.1976 67.0178 26.2576L67.0178 14.8876C67.0178 12.9476 68.5878 11.3876 70.5178 11.3876ZM70.5178-22.7424C72.4478-22.7424 74.0178-21.1724 74.0178-19.2424L74.0178-7.8624C74.0178-5.9324 72.4478-4.3624 70.5178-4.3624C68.5878-4.3624 67.0178-5.9324 67.0178-7.8624L67.0178-19.2424C67.0178-21.1724 68.5878-22.7424 70.5178-22.7424ZM47.7678 0.00759762C49.6978 0.00759762 51.2678 1.5776 51.2678 3.5076L51.2678 14.8876C51.2678 16.8176 49.6978 18.3876 47.7678 18.3876C45.8378 18.3876 44.2678 16.8176 44.2678 14.8876L44.2678 3.5076C44.2678 1.5776 45.8378 0.00759762 47.7678 0.00759762ZM93.2678 0.00759762C95.1978 0.00759762 96.7678 1.5776 96.7678 3.5076L96.7678 14.8876C96.7678 16.8176 95.1978 18.3876 93.2678 18.3876C91.3378 18.3876 89.7678 16.8176 89.7678 14.8876L89.7678 3.5076C89.7678 1.5776 91.3378 0.00759762 93.2678 0.00759762Z"/>
   <path class="hierarchical-1:secondary SFSymbolsPreview4D4D4D" d="M48.4578-102.112C56.1878-102.902 63.9878-101.842 71.2178-99.0124C78.4578-96.1924 84.9178-91.7024 90.0678-85.8924C94.6178-80.7624 98.0378-74.7524 100.108-68.2424L104.648-68.2424C111.978-68.2324 119.078-65.7024 124.768-61.0724C130.458-56.4424 134.378-50.0024 135.878-42.8324C137.368-35.6524 136.358-28.1824 132.998-21.6624C129.638-15.1524 124.138-9.9924 117.418-7.0524C115.648-6.2724 113.588-7.0824 112.808-8.8524C112.038-10.6224 112.848-12.6824 114.618-13.4624C119.858-15.7524 124.148-19.7824 126.778-24.8724C129.398-29.9624 130.188-35.7924 129.018-41.4024C127.848-47.0024 124.788-52.0324 120.348-55.6424C115.908-59.2624 110.368-61.2324 104.638-61.2424L97.4778-61.2424C95.8778-61.2424 94.4878-62.3224 94.0878-63.8624C92.4278-70.3124 89.2478-76.2624 84.8378-81.2424C80.4178-86.2224 74.8778-90.0824 68.6778-92.4924C62.4778-94.9124 55.7878-95.8224 49.1678-95.1424C42.5478-94.4724 36.1778-92.2324 30.5978-88.6124C25.0078-85.0024 20.3578-80.1024 17.0378-74.3424C13.7078-68.5724 11.8078-62.1024 11.4778-55.4524C11.1478-48.8024 12.3978-42.1724 15.1278-36.1024C17.8678-30.0424 22.0078-24.7024 27.2078-20.5524C28.7178-19.3424 28.9578-17.1424 27.7478-15.6324C26.5478-14.1224 24.3478-13.8724 22.8378-15.0824C16.7678-19.9324 11.9378-26.1524 8.74779-33.2324C5.55779-40.3124 4.09779-48.0424 4.47779-55.8024C4.86779-63.5524 7.09779-71.1124 10.9678-77.8324C14.8478-84.5624 20.2678-90.2724 26.7878-94.4924C33.3078-98.7124 40.7378-101.322 48.4578-102.112Z"/>
  </g>
  <g id="Light-L" transform="matrix(1 0 0 1 1083.98 1556)">
   <path class="hierarchical-0:primary SFSymbolsPreview212121" d="M46.9684-33.2992C48.4584-33.2992 49.6684-32.0892 49.6684-30.5992L49.6684-19.2292C49.6684-17.7392 48.4584-16.5292 46.9684-16.5292C45.4784-16.5292 44.2684-17.7392 44.2684-19.2292L44.2684-30.5992C44.2684-32.0892 45.4784-33.2992 46.9684-33.2992ZM92.4684-33.2992C93.9584-33.2992 95.1684-32.0892 95.1684-30.5992L95.1684-19.2292C95.1684-17.7392 93.9584-16.5292 92.4684-16.5292C90.9784-16.5292 89.7684-17.7392 89.7684-19.2292L89.7684-30.5992C89.7684-32.0892 90.9784-33.2992 92.4684-33.2992ZM69.7184 12.2008C71.2084 12.2008 72.4184 13.4108 72.4184 14.9008L72.4184 26.2708C72.4184 27.7608 71.2084 28.9708 69.7184 28.9708C68.2284 28.9708 67.0184 27.7608 67.0184 26.2708L67.0184 14.9008C67.0184 13.4108 68.2284 12.2008 69.7184 12.2008ZM69.7184-21.9292C71.2084-21.9292 72.4184-20.7192 72.4184-19.2292L72.4184-7.84916C72.4184-6.35916 71.2084-5.14916 69.7184-5.14916C68.2284-5.14916 67.0184-6.35916 67.0184-7.84916L67.0184-19.2292C67.0184-20.7192 68.2284-21.9292 69.7184-21.9292ZM46.9684 0.820835C48.4584 0.820835 49.6684 2.03084 49.6684 3.52084L49.6684 14.9008C49.6684 16.3908 48.4584 17.6008 46.9684 17.6008C45.4784 17.6008 44.2684 16.3908 44.2684 14.9008L44.2684 3.52084C44.2684 2.03084 45.4784 0.820835 46.9684 0.820835ZM92.4684 0.820835C93.9584 0.820835 95.1684 2.03084 95.1684 3.52084L95.1684 14.9008C95.1684 16.3908 93.9584 17.6008 92.4684 17.6008C90.9784 17.6008 89.7684 16.3908 89.7684 14.9008L89.7684 3.52084C89.7684 2.03084 90.9784 0.820835 92.4684 0.820835Z"/>
   <path class="hierarchical-1:secondary SFSymbolsPreview4D4D4D" d="M47.7384-101.3C55.3384-102.08 63.0084-101.03 70.1284-98.2592C77.2484-95.4892 83.5984-91.0592 88.6684-85.3492C93.2784-80.1592 96.6984-74.0492 98.7184-67.4292L103.848-67.4292C110.989-67.4192 117.919-64.9492 123.459-60.4392C129.009-55.9292 132.829-49.6492 134.289-42.6492C135.749-35.6592 134.759-28.3692 131.489-22.0192C128.209-15.6692 122.849-10.6392 116.299-7.76916C114.939-7.16916 113.339-7.78916 112.749-9.15916C112.149-10.5292 112.769-12.1192 114.139-12.7192C119.549-15.0892 123.979-19.2492 126.689-24.4992C129.389-29.7492 130.209-35.7692 129.009-41.5492C127.799-47.3292 124.639-52.5292 120.059-56.2492C115.469-59.9792 109.749-62.0192 103.838-62.0292L96.6784-62.0292C95.4484-62.0292 94.3684-62.8592 94.0584-64.0492C92.3684-70.6192 89.1384-76.6892 84.6284-81.7592C80.1284-86.8392 74.4884-90.7692 68.1684-93.2292C61.8484-95.6892 55.0284-96.6192 48.2884-95.9292C41.5384-95.2392 35.0484-92.9592 29.3584-89.2792C23.6684-85.5892 18.9284-80.5992 15.5384-74.7292C12.1585-68.8492 10.2085-62.2592 9.87845-55.4792C9.53845-48.7092 10.8185-41.9492 13.5985-35.7692C16.3884-29.5792 20.6084-24.1492 25.8984-19.9192C27.0684-18.9892 27.2584-17.2892 26.3284-16.1192C25.3984-14.9592 23.6984-14.7692 22.5284-15.6992C16.5684-20.4692 11.8185-26.5792 8.67845-33.5492C5.53845-40.5092 4.09845-48.1192 4.47845-55.7492C4.85845-63.3792 7.04845-70.8092 10.8685-77.4292C14.6784-84.0392 20.0084-89.6592 26.4184-93.8092C32.8384-97.9592 40.1384-100.529 47.7384-101.3Z"/>
  </g>
  <g id="Thin-L" transform="matrix(1 0 0 1 788.325 1556)">
   <path class="hierarchical-0:primary SFSymbolsPreview212121" d="M45.915-32.2218C46.826-32.2218 47.565-31.4818 47.565-30.5718L47.565-19.2018C47.565-18.2918 46.826-17.5518 45.915-17.5518C45.003-17.5518 44.265-18.2918 44.265-19.2018L44.265-30.5718C44.265-31.4818 45.003-32.2218 45.915-32.2218ZM91.415-32.2218C92.326-32.2218 93.065-31.4818 93.065-30.5718L93.065-19.2018C93.065-18.2918 92.326-17.5518 91.415-17.5518C90.503-17.5518 89.765-18.2918 89.765-19.2018L89.765-30.5718C89.765-31.4818 90.503-32.2218 91.415-32.2218ZM68.665 13.2782C69.576 13.2782 70.315 14.0182 70.315 14.9282L70.315 26.2982C70.315 27.2082 69.576 27.9482 68.665 27.9482C67.753 27.9482 67.015 27.2082 67.015 26.2982L67.015 14.9282C67.015 14.0182 67.753 13.2782 68.665 13.2782ZM68.665-20.8518C69.576-20.8518 70.315-20.1118 70.315-19.2018L70.315-7.82182C70.315-6.91182 69.576-6.17182 68.665-6.17182C67.753-6.17182 67.015-6.91182 67.015-7.82182L67.015-19.2018C67.015-20.1118 67.753-20.8518 68.665-20.8518ZM45.915 1.89818C46.826 1.89818 47.565 2.63818 47.565 3.54818L47.565 14.9282C47.565 15.8382 46.826 16.5782 45.915 16.5782C45.003 16.5782 44.265 15.8382 44.265 14.9282L44.265 3.54818C44.265 2.63818 45.003 1.89818 45.915 1.89818ZM91.415 1.89818C92.326 1.89818 93.065 2.63818 93.065 3.54818L93.065 14.9282C93.065 15.8382 92.326 16.5782 91.415 16.5782C90.503 16.5782 89.765 15.8382 89.765 14.9282L89.765 3.54818C89.765 2.63818 90.503 1.89818 91.415 1.89818Z"/>
   <path class="hierarchical-1:secondary SFSymbolsPreview4D4D4D" d="M46.792-100.232C54.226-100.992 61.733-99.9718 68.694-97.2518C75.656-94.5418 81.873-90.2118 86.832-84.6218C91.508-79.3518 94.941-73.1118 96.884-66.3518L102.792-66.3518C109.698-66.3418 116.391-63.9618 121.747-59.6018C127.104-55.2418 130.798-49.1718 132.209-42.4118C133.62-35.6518 132.663-28.6118 129.498-22.4718C126.333-16.3318 121.153-11.4718 114.827-8.70182C113.992-8.33182 113.019-8.72182 112.654-9.55182C112.288-10.3818 112.668-11.3618 113.503-11.7218C119.135-14.1918 123.747-18.5218 126.565-23.9818C129.383-29.4518 130.235-35.7218 128.979-41.7318C127.722-47.7518 124.433-53.1618 119.664-57.0418C114.895-60.9218 108.936-63.0418 102.788-63.0518L95.624-63.0518C94.871-63.0518 94.214-63.5618 94.026-64.2918C92.289-71.0118 88.977-77.2318 84.364-82.4318C79.752-87.6318 73.97-91.6518 67.496-94.1818C61.021-96.7018 54.04-97.6518 47.127-96.9518C40.214-96.2418 33.567-93.9118 27.734-90.1318C21.901-86.3518 17.05-81.2418 13.579-75.2218C10.109-69.2018 8.119-62.4418 7.773-55.5018C7.428-48.5618 8.736-41.6418 11.591-35.3018C14.447-28.9718 18.766-23.4018 24.195-19.0718C24.907-18.5018 25.023-17.4618 24.454-16.7518C23.885-16.0318 22.847-15.9218 22.135-16.4918C16.298-21.1518 11.653-27.1418 8.583-33.9518C5.513-40.7618 4.106-48.2018 4.477-55.6718C4.849-63.1318 6.989-70.4018 10.72-76.8718C14.452-83.3418 19.669-88.8418 25.94-92.9018C32.212-96.9618 39.359-99.4718 46.792-100.232Z"/>
  </g>
  <g id="Ultralight-L" transform="matrix(1 0 0 1 492.163 1556)">
   <path class="hierarchical-0:primary SFSymbolsPreview212121" d="M45.3644-31.6588C45.9724-31.6588 46.4644-31.1688 46.4644-30.5588L46.4644-19.1888C46.4644-18.5788 45.9724-18.0888 45.3644-18.0888C44.7574-18.0888 44.2644-18.5788 44.2644-19.1888L44.2644-30.5588C44.2644-31.1688 44.7574-31.6588 45.3644-31.6588ZM90.8644-31.6588C91.4724-31.6588 91.9644-31.1688 91.9644-30.5588L91.9644-19.1888C91.9644-18.5788 91.4724-18.0888 90.8644-18.0888C90.2574-18.0888 89.7644-18.5788 89.7644-19.1888L89.7644-30.5588C89.7644-31.1688 90.2574-31.6588 90.8644-31.6588ZM68.1144 13.8412C68.7224 13.8412 69.2144 14.3312 69.2144 14.9412L69.2144 26.3112C69.2144 26.9212 68.7224 27.4112 68.1144 27.4112C67.5074 27.4112 67.0144 26.9212 67.0144 26.3112L67.0144 14.9412C67.0144 14.3312 67.5074 13.8412 68.1144 13.8412ZM68.1144-20.2888C68.7224-20.2888 69.2144-19.7988 69.2144-19.1888L69.2144-7.80884C69.2144-7.20884 68.7224-6.70884 68.1144-6.70884C67.5074-6.70884 67.0144-7.20884 67.0144-7.80884L67.0144-19.1888C67.0144-19.7988 67.5074-20.2888 68.1144-20.2888ZM45.3644 2.46116C45.9724 2.46116 46.4644 2.95116 46.4644 3.56116L46.4644 14.9412C46.4644 15.5412 45.9724 16.0412 45.3644 16.0412C44.7574 16.0412 44.2644 15.5412 44.2644 14.9412L44.2644 3.56116C44.2644 2.95116 44.7574 2.46116 45.3644 2.46116ZM90.8644 2.46116C91.4724 2.46116 91.9644 2.95116 91.9644 3.56116L91.9644 14.9412C91.9644 15.5412 91.4724 16.0412 90.8644 16.0412C90.2574 16.0412 89.7644 15.5412 89.7644 14.9412L89.7644 3.56116C89.7644 2.95116 90.2574 2.46116 90.8644 2.46116Z"/>
   <path class="hierarchical-1:secondary SFSymbolsPreview4D4D4D" d="M46.2984-99.6688C53.6454-100.419 61.0644-99.4088 67.9444-96.7288C74.8244-94.0488 80.9694-89.7688 85.8714-84.2388C90.5844-78.9288 94.0194-72.6188 95.9174-65.7888L102.241-65.7888C109.022-65.7788 115.592-63.4388 120.851-59.1588C126.109-54.8788 129.736-48.9188 131.121-42.2888C132.507-35.6488 131.567-28.7388 128.46-22.7088C125.353-16.6888 120.267-11.9088 114.057-9.18884C113.501-8.94884 112.852-9.19884 112.608-9.75884C112.364-10.3188 112.618-10.9588 113.174-11.2088C118.922-13.7288 123.629-18.1388 126.505-23.7188C129.38-29.2988 130.25-35.6888 128.968-41.8388C127.685-47.9788 124.329-53.4888 119.462-57.4488C114.595-61.4088 108.514-63.5788 102.238-63.5888L95.0734-63.5888C94.5724-63.5888 94.1344-63.9288 94.0084-64.4088C92.2494-71.2188 88.8964-77.5188 84.2254-82.7788C79.5554-88.0488 73.7014-92.1188 67.1454-94.6788C60.5904-97.2288 53.5214-98.1888 46.5214-97.4788C39.5214-96.7688 32.7914-94.3988 26.8854-90.5788C20.9794-86.7488 16.0674-81.5788 12.5534-75.4888C9.0394-69.3888 7.0244-62.5488 6.6744-55.5188C6.3244-48.4888 7.6494-41.4788 10.5404-35.0688C13.4314-28.6488 17.8054-23.0188 23.3014-18.6188C23.7764-18.2488 23.8534-17.5488 23.4744-17.0788C23.0954-16.5988 22.4034-16.5288 21.9284-16.9088C16.1594-21.5188 11.5684-27.4288 8.5344-34.1588C5.5004-40.8988 4.1094-48.2488 4.4764-55.6288C4.8444-62.9988 6.9594-70.1888 10.6474-76.5788C14.3354-82.9788 19.4914-88.4088 25.6894-92.4288C31.8884-96.4388 38.9514-98.9188 46.2984-99.6688Z"/>
  </g>
  <g id="Black-M" transform="matrix(1 0 0 1 2873.32 1126)">
   <path class="hierarchical-0:primary SFSymbolsPreview212121" d="M42.7899-38.7956C46.7099-38.7956 49.8899-35.6156 49.8899-31.6956L49.8899-22.7656C49.8899-18.8456 46.7099-15.6656 42.7899-15.6656C38.8599-15.6656 35.6899-18.8456 35.6899-22.7656L35.6899-31.6956C35.6899-35.6156 38.8599-38.7956 42.7899-38.7956ZM78.4799-38.7956C82.4099-38.7956 85.5799-35.6156 85.5799-31.6956L85.5799-22.7656C85.5799-18.8456 82.4099-15.6656 78.4799-15.6656C74.5599-15.6656 71.3799-18.8456 71.3799-22.7656L71.3799-31.6956C71.3799-35.6156 74.5599-38.7956 78.4799-38.7956ZM60.6299-3.09554C64.5599-3.09554 67.7299 0.0844642 67.7299 4.00446L67.7299 12.9344C67.7299 16.8544 64.5599 20.0344 60.6299 20.0344C56.7099 20.0344 53.5299 16.8544 53.5299 12.9344L53.5299 4.00446C53.5299 0.0844642 56.7099-3.09554 60.6299-3.09554ZM60.6299-29.8656C64.5599-29.8656 67.7299-26.6856 67.7299-22.7656L67.7299-13.8456C67.7299-9.92554 64.5599-6.74554 60.6299-6.74554C56.7099-6.74554 53.5299-9.92554 53.5299-13.8456L53.5299-22.7656C53.5299-26.6856 56.7099-29.8656 60.6299-29.8656ZM42.7899-12.0156C46.7099-12.0156 49.8899-8.83554 49.8899-4.91554L49.8899 4.00446C49.8899 7.92446 46.7099 11.1044 42.7899 11.1044C38.8599 11.1044 35.6899 7.92446 35.6899 4.00446L35.6899-4.91554C35.6899-8.83554 38.8599-12.0156 42.7899-12.0156ZM78.4799-12.0156C82.4099-12.0156 85.5799-8.83554 85.5799-4.91554L85.5799 4.00446C85.5799 7.92446 82.4099 11.1044 78.4799 11.1044C74.5599 11.1044 71.3799 7.92446 71.3799 4.00446L71.3799-4.91554C71.3799-8.83554 74.5599-12.0156 78.4799-12.0156Z"/>
   <path class="hierarchical-1:secondary SFSymbolsPreview4D4D4D" d="M42.8899-92.1256C49.6299-92.8056 56.4499-91.8856 62.7699-89.4156C69.0899-86.9556 74.7299-83.0256 79.2299-77.9556C82.4899-74.2856 85.0799-70.0956 86.9099-65.5656L87.4199-65.5656C94.1699-65.5556 100.71-63.2256 105.95-58.9656C111.19-54.7056 114.8-48.7756 116.18-42.1656C117.56-35.5556 116.62-28.6756 113.53-22.6756C110.43-16.6756 105.37-11.9256 99.1799-9.21554C95.5899-7.63554 91.3999-9.27554 89.8299-12.8656C88.2599-16.4656 89.8999-20.6456 93.4899-22.2256C96.6899-23.6256 99.2999-26.0756 100.9-29.1856C102.51-32.2856 102.99-35.8456 102.28-39.2656C101.56-42.6856 99.6899-45.7556 96.9899-47.9556C94.2799-50.1556 90.8999-51.3656 87.4099-51.3656L81.7899-51.3656C78.5499-51.3656 75.7199-53.5556 74.9099-56.6956C73.7799-61.0856 71.6199-65.1356 68.6099-68.5256C65.5999-71.9156 61.8299-74.5456 57.6099-76.1856C53.3899-77.8356 48.8299-78.4556 44.3199-77.9956C39.8199-77.5356 35.4799-76.0156 31.6799-73.5456C27.8699-71.0856 24.7099-67.7556 22.4399-63.8256C20.1799-59.8956 18.8799-55.4956 18.6599-50.9656C18.4299-46.4356 19.2799-41.9256 21.1499-37.7856C23.0099-33.6556 25.8299-30.0256 29.3699-27.1956C32.4299-24.7556 32.9299-20.2856 30.4799-17.2156C28.0299-14.1556 23.5699-13.6556 20.4999-16.1056C15.1999-20.3356 10.9899-25.7756 8.19994-31.9556C5.40994-38.1356 4.13994-44.8956 4.46994-51.6656C4.80994-58.4456 6.74994-65.0456 10.1399-70.9156C13.5299-76.7956 18.2599-81.7756 23.9599-85.4656C29.6499-89.1556 36.1399-91.4356 42.8899-92.1256Z"/>
  </g>
  <g id="Heavy-M" transform="matrix(1 0 0 1 2577.47 1126)">
   <path class="hierarchical-0:primary SFSymbolsPreview212121" d="M41.9306-37.9302C45.3906-37.9302 48.1806-35.1302 48.1806-31.6802L48.1806-22.7502C48.1806-19.3002 45.3906-16.5002 41.9306-16.5002C38.4806-16.5002 35.6806-19.3002 35.6806-22.7502L35.6806-31.6802C35.6806-35.1302 38.4806-37.9302 41.9306-37.9302ZM77.6306-37.9302C81.0806-37.9302 83.8806-35.1302 83.8806-31.6802L83.8806-22.7502C83.8806-19.3002 81.0806-16.5002 77.6306-16.5002C74.1806-16.5002 71.3806-19.3002 71.3806-22.7502L71.3806-31.6802C71.3806-35.1302 74.1806-37.9302 77.6306-37.9302ZM59.7806-2.23014C63.2406-2.23014 66.0306 0.569861 66.0306 4.01986L66.0306 12.9498C66.0306 16.3998 63.2406 19.1998 59.7806 19.1998C56.3306 19.1998 53.5306 16.3998 53.5306 12.9498L53.5306 4.01986C53.5306 0.569861 56.3306-2.23014 59.7806-2.23014ZM59.7806-29.0002C63.2406-29.0002 66.0306-26.2102 66.0306-22.7502L66.0306-13.8302C66.0306-10.3801 63.2406-7.58014 59.7806-7.58014C56.3306-7.58014 53.5306-10.3801 53.5306-13.8302L53.5306-22.7502C53.5306-26.2102 56.3306-29.0002 59.7806-29.0002ZM41.9306-11.1502C45.3906-11.1502 48.1806-8.35014 48.1806-4.90014L48.1806 4.01986C48.1806 7.46986 45.3906 10.2698 41.9306 10.2698C38.4806 10.2698 35.6806 7.46986 35.6806 4.01986L35.6806-4.90014C35.6806-8.35014 38.4806-11.1502 41.9306-11.1502ZM77.6306-11.1502C81.0806-11.1502 83.8806-8.35014 83.8806-4.90014L83.8806 4.01986C83.8806 7.46986 81.0806 10.2698 77.6306 10.2698C74.1806 10.2698 71.3806 7.46986 71.3806 4.01986L71.3806-4.90014C71.3806-8.35014 74.1806-11.1502 77.6306-11.1502Z"/>
   <path class="hierarchical-1:secondary SFSymbolsPreview4D4D4D" d="M42.1206-91.2602C48.7306-91.9302 55.4106-91.0302 61.6106-88.6102C67.8006-86.2002 73.3306-82.3502 77.7406-77.3702C81.0606-73.6302 83.6806-69.3402 85.4806-64.7002L86.5706-64.7002C93.1206-64.6902 99.4806-62.4302 104.561-58.2902C109.651-54.1602 113.151-48.3902 114.491-41.9802C115.831-35.5602 114.921-28.8802 111.921-23.0502C108.911-17.2202 104.001-12.6102 97.9906-9.98014C94.8306-8.59014 91.1406-10.0301 89.7606-13.1902C88.3706-16.3602 89.8106-20.0402 92.9806-21.4302C96.3506-22.9102 99.1206-25.5002 100.811-28.7802C102.501-32.0602 103.011-35.8102 102.261-39.4202C101.501-43.0302 99.5306-46.2702 96.6706-48.6002C93.8106-50.9302 90.2406-52.2002 86.5506-52.2002C86.5506-52.2002 86.5506-52.2002 86.5506-52.2002L80.9406-52.2002C78.0906-52.2002 75.6006-54.1302 74.8806-56.8902C73.7206-61.4102 71.4906-65.5902 68.4006-69.0802C65.3006-72.5702 61.4106-75.2702 57.0706-76.9702C52.7206-78.6602 48.0306-79.3002 43.3906-78.8202C38.7406-78.3502 34.2806-76.7802 30.3606-74.2502C26.4506-71.7102 23.1906-68.2802 20.8606-64.2302C18.5306-60.1902 17.1906-55.6502 16.9606-50.9902C16.7206-46.3302 17.6006-41.6802 19.5206-37.4302C21.4406-33.1702 24.3406-29.4302 27.9906-26.5202C30.6806-24.3602 31.1206-20.4302 28.9706-17.7402C26.8106-15.0402 22.8806-14.6002 20.1806-16.7502C14.9906-20.9002 10.8606-26.2302 8.13061-32.2902C5.39061-38.3502 4.14061-44.9702 4.47061-51.6102C4.80061-58.2502 6.71061-64.7202 10.0306-70.4802C13.3506-76.2402 17.9906-81.1202 23.5706-84.7402C29.1506-88.3502 35.5106-90.5902 42.1206-91.2602Z"/>
  </g>
  <g id="Bold-M" transform="matrix(1 0 0 1 2281.71 1126)">
   <path class="hierarchical-0:primary SFSymbolsPreview212121" d="M40.9788-36.9646C43.9088-36.9646 46.2788-34.5846 46.2788-31.6646L46.2788-22.7346C46.2788-19.8046 43.9088-17.4346 40.9788-17.4346C38.0588-17.4346 35.6788-19.8046 35.6788-22.7346L35.6788-31.6646C35.6788-34.5846 38.0588-36.9646 40.9788-36.9646ZM76.6888-36.9646C79.6088-36.9646 81.9888-34.5846 81.9888-31.6646L81.9888-22.7346C81.9888-19.8046 79.6088-17.4346 76.6888-17.4346C73.7588-17.4346 71.3888-19.8046 71.3888-22.7346L71.3888-31.6646C71.3888-34.5846 73.7588-36.9646 76.6888-36.9646ZM58.8288-1.26453C61.7588-1.26453 64.1288 1.11548 64.1288 4.03548L64.1288 12.9654C64.1288 15.8954 61.7588 18.2654 58.8288 18.2654C55.9088 18.2654 53.5288 15.8954 53.5288 12.9654L53.5288 4.03548C53.5288 1.11548 55.9088-1.26453 58.8288-1.26453ZM58.8288-28.0346C61.7588-28.0346 64.1288-25.6646 64.1288-22.7346L64.1288-13.8146C64.1288-10.8846 61.7588-8.51452 58.8288-8.51452C55.9088-8.51452 53.5288-10.8846 53.5288-13.8146L53.5288-22.7346C53.5288-25.6646 55.9088-28.0346 58.8288-28.0346ZM40.9788-10.1845C43.9088-10.1845 46.2788-7.81452 46.2788-4.88452L46.2788 4.03548C46.2788 6.96548 43.9088 9.33548 40.9788 9.33548C38.0588 9.33548 35.6788 6.96548 35.6788 4.03548L35.6788-4.88452C35.6788-7.81452 38.0588-10.1845 40.9788-10.1845ZM76.6888-10.1845C79.6088-10.1845 81.9888-7.81452 81.9888-4.88452L81.9888 4.03548C81.9888 6.96548 79.6088 9.33548 76.6888 9.33548C73.7588 9.33548 71.3888 6.96548 71.3888 4.03548L71.3888-4.88452C71.3888-7.81452 73.7588-10.1845 76.6888-10.1845Z"/>
   <path class="hierarchical-1:secondary SFSymbolsPreview4D4D4D" d="M41.2688-90.2946C47.7288-90.9546 54.2588-90.0746 60.3088-87.7146C66.3688-85.3546 71.7688-81.5846 76.0788-76.7246C79.4688-72.9046 82.1088-68.5046 83.8688-63.7346L85.6188-63.7346C91.9488-63.7246 98.0988-61.5446 103.009-57.5446C107.929-53.5446 111.319-47.9746 112.609-41.7646C113.909-35.5646 113.029-29.1046 110.119-23.4646C107.219-17.8346 102.469-13.3746 96.6588-10.8346C93.9788-9.65452 90.8488-10.8746 89.6788-13.5546C88.5088-16.2446 89.7288-19.3646 92.4088-20.5446C95.9788-22.1046 98.9088-24.8546 100.699-28.3246C102.489-31.7946 103.029-35.7746 102.239-39.6046C101.439-43.4246 99.3488-46.8546 96.3188-49.3146C93.2888-51.7846 89.5088-53.1346 85.6088-53.1346C85.6088-53.1346 85.5988-53.1346 85.5988-53.1346L79.9888-53.1346C77.5688-53.1346 75.4588-54.7746 74.8488-57.1146C73.6488-61.7746 71.3488-66.0846 68.1588-69.6946C64.9588-73.2946 60.9488-76.0846 56.4588-77.8346C51.9688-79.5846 47.1288-80.2446 42.3388-79.7546C37.5488-79.2646 32.9388-77.6446 28.8988-75.0246C24.8488-72.4046 21.4888-68.8646 19.0788-64.6946C16.6788-60.5146 15.2988-55.8346 15.0588-51.0246C14.8188-46.2146 15.7288-41.4146 17.7088-37.0146C19.6788-32.6246 22.6788-28.7646 26.4388-25.7646C28.7288-23.9346 29.0988-20.5946 27.2688-18.3146C25.4488-16.0246 22.1088-15.6546 19.8288-17.4846C14.7488-21.5346 10.7088-26.7446 8.03878-32.6646C5.36878-38.5846 4.14878-45.0646 4.46878-51.5446C4.78878-58.0346 6.65878-64.3546 9.89878-69.9846C13.1488-75.6146 17.6788-80.3946 23.1288-83.9246C28.5888-87.4546 34.7988-89.6446 41.2688-90.2946Z"/>
  </g>
  <g id="Semibold-M" transform="matrix(1 0 0 1 1985.65 1126)">
   <path class="hierarchical-0:primary SFSymbolsPreview212121" d="M40.3294-36.304C42.8994-36.304 44.9794-34.214 44.9794-31.654L44.9794-22.724C44.9794-20.154 42.8994-18.074 40.3294-18.074C37.7594-18.074 35.6794-20.154 35.6794-22.724L35.6794-31.654C35.6794-34.214 37.7594-36.304 40.3294-36.304ZM76.0294-36.304C78.5994-36.304 80.6794-34.214 80.6794-31.654L80.6794-22.724C80.6794-20.154 78.5994-18.074 76.0294-18.074C73.4594-18.074 71.3794-20.154 71.3794-22.724L71.3794-31.654C71.3794-34.214 73.4594-36.304 76.0294-36.304ZM58.1794-0.604042C60.7494-0.604042 62.8294 1.48596 62.8294 4.04596L62.8294 12.976C62.8294 15.546 60.7494 17.626 58.1794 17.626C55.6094 17.626 53.5294 15.546 53.5294 12.976L53.5294 4.04596C53.5294 1.48596 55.6094-0.604042 58.1794-0.604042ZM58.1794-27.374C60.7494-27.374 62.8294-25.294 62.8294-22.724L62.8294-13.804C62.8294-11.234 60.7494-9.15404 58.1794-9.15404C55.6094-9.15404 53.5294-11.234 53.5294-13.804L53.5294-22.724C53.5294-25.294 55.6094-27.374 58.1794-27.374ZM40.3294-9.52404C42.8994-9.52404 44.9794-7.44404 44.9794-4.87404L44.9794 4.04596C44.9794 6.61596 42.8994 8.69596 40.3294 8.69596C37.7594 8.69596 35.6794 6.61596 35.6794 4.04596L35.6794-4.87404C35.6794-7.44404 37.7594-9.52404 40.3294-9.52404ZM76.0294-9.52404C78.5994-9.52404 80.6794-7.44404 80.6794-4.87404L80.6794 4.04596C80.6794 6.61596 78.5994 8.69596 76.0294 8.69596C73.4594 8.69596 71.3794 6.61596 71.3794 4.04596L71.3794-4.87404C71.3794-7.44404 73.4594-9.52404 76.0294-9.52404Z"/>
   <path class="hierarchical-1:secondary SFSymbolsPreview4D4D4D" d="M40.6794-89.644C47.0394-90.294 53.4594-89.414 59.4194-87.094C65.3794-84.774 70.6994-81.064 74.9394-76.284C78.3794-72.414 81.0294-67.924 82.7594-63.074L84.9594-63.074C91.1494-63.064 97.1494-60.934 101.949-57.024C106.75-53.124 110.06-47.684 111.32-41.624C112.59-35.564 111.73-29.254 108.89-23.754C106.06-18.254 101.409-13.894 95.7494-11.414C93.3894-10.384 90.6494-11.454 89.6194-13.804C88.5894-16.164 89.6594-18.904 92.0094-19.934C95.7294-21.564 98.7694-24.414 100.629-28.014C102.489-31.624 103.049-35.754 102.219-39.724C101.389-43.694 99.2194-47.254 96.0794-49.814C92.9294-52.374 89.0094-53.774 84.9494-53.774L79.3294-53.774C77.2094-53.774 75.3594-55.214 74.8294-57.264C73.5994-62.024 71.2494-66.434 67.9894-70.114C64.7194-73.794 60.6294-76.644 56.0394-78.424C51.4594-80.214 46.5194-80.884 41.6194-80.394C36.7294-79.894 32.0194-78.234 27.8894-75.564C23.7594-72.884 20.3194-69.274 17.8694-65.004C15.4094-60.744 13.9994-55.954 13.7494-51.044C13.5094-46.124 14.4394-41.224 16.4594-36.744C18.4794-32.254 21.5394-28.314 25.3794-25.244C27.3894-23.634 27.7194-20.714 26.1094-18.704C24.5094-16.704 21.5794-16.374 19.5794-17.974C14.5794-21.964 10.6094-27.094 7.97944-32.924C5.34944-38.754 4.14944-45.124 4.46944-51.504C4.77944-57.894 6.61944-64.114 9.80944-69.654C12.9994-75.194 17.4694-79.894 22.8294-83.364C28.1994-86.844 34.3194-88.994 40.6794-89.644Z"/>
  </g>
  <g id="Medium-M" transform="matrix(1 0 0 1 1689.44 1126)">
   <path class="hierarchical-0:primary SFSymbolsPreview212121" d="M39.8298-35.7892C42.1198-35.7892 43.9798-33.9292 43.9798-31.6392L43.9798-22.7092C43.9798-20.4192 42.1198-18.5592 39.8298-18.5592C37.5398-18.5592 35.6798-20.4192 35.6798-22.7092L35.6798-31.6392C35.6798-33.9292 37.5398-35.7892 39.8298-35.7892ZM75.5298-35.7892C77.8198-35.7892 79.6798-33.9292 79.6798-31.6392L79.6798-22.7092C79.6798-20.4192 77.8198-18.5592 75.5298-18.5592C73.2398-18.5592 71.3798-20.4192 71.3798-22.7092L71.3798-31.6392C71.3798-33.9292 73.2398-35.7892 75.5298-35.7892ZM57.6798-0.0892277C59.9698-0.0892277 61.8298 1.77078 61.8298 4.06078L61.8298 12.9908C61.8298 15.2808 59.9698 17.1408 57.6798 17.1408C55.3898 17.1408 53.5298 15.2808 53.5298 12.9908L53.5298 4.06078C53.5298 1.77078 55.3898-0.0892277 57.6798-0.0892277ZM57.6798-26.8592C59.9698-26.8592 61.8298-24.9992 61.8298-22.7092L61.8298-13.7892C61.8298-11.4892 59.9698-9.63922 57.6798-9.63922C55.3898-9.63922 53.5298-11.4892 53.5298-13.7892L53.5298-22.7092C53.5298-24.9992 55.3898-26.8592 57.6798-26.8592ZM39.8298-9.00922C42.1198-9.00922 43.9798-7.14922 43.9798-4.85922L43.9798 4.06078C43.9798 6.36078 42.1198 8.21078 39.8298 8.21078C37.5398 8.21078 35.6798 6.36078 35.6798 4.06078L35.6798-4.85922C35.6798-7.14922 37.5398-9.00922 39.8298-9.00922ZM75.5298-9.00922C77.8198-9.00922 79.6798-7.14922 79.6798-4.85922L79.6798 4.06078C79.6798 6.36078 77.8198 8.21078 75.5298 8.21078C73.2398 8.21078 71.3798 6.36078 71.3798 4.06078L71.3798-4.85922C71.3798-7.14922 73.2398-9.00922 75.5298-9.00922Z"/>
   <path class="hierarchical-1:secondary SFSymbolsPreview4D4D4D" d="M40.2298-89.1292C46.5098-89.7692 52.8598-88.9092 58.7398-86.6092C64.6198-84.3192 69.8798-80.6592 74.0698-75.9392C77.5398-72.0292 80.1998-67.4792 81.9098-62.5592L84.4598-62.5592C90.5298-62.5492 96.4198-60.4592 101.13-56.6192C105.84-52.7892 109.09-47.4492 110.33-41.5092C111.57-35.5592 110.73-29.3692 107.95-23.9692C105.16-18.5692 100.61-14.2992 95.0498-11.8592C92.9498-10.9392 90.4998-11.8992 89.5798-13.9992C88.6598-16.0892 89.6198-18.5392 91.7198-19.4592C95.5298-21.1292 98.6598-24.0692 100.57-27.7692C102.48-31.4792 103.06-35.7292 102.21-39.8092C101.36-43.8892 99.1298-47.5492 95.8898-50.1892C92.6598-52.8192 88.6198-54.2592 84.4498-54.2592L78.8298-54.2592C76.9398-54.2592 75.2898-55.5392 74.8098-57.3692C73.5598-62.2092 71.1798-66.6892 67.8598-70.4292C64.5398-74.1692 60.3798-77.0592 55.7298-78.8792C51.0698-80.6992 46.0398-81.3792 41.0698-80.8692C36.0998-80.3692 31.3098-78.6792 27.1198-75.9692C22.9198-73.2492 19.4298-69.5692 16.9298-65.2392C14.4398-60.9092 12.9998-56.0492 12.7598-51.0492C12.5098-46.0592 13.4498-41.0792 15.4998-36.5192C17.5598-31.9592 20.6698-27.9592 24.5698-24.8392C26.3598-23.4092 26.6498-20.7992 25.2198-18.9992C23.7898-17.2092 21.1798-16.9192 19.3898-18.3492C14.4598-22.2992 10.5298-27.3492 7.93979-33.1092C5.33979-38.8692 4.14979-45.1592 4.46979-51.4692C4.77979-57.7692 6.58979-63.9192 9.73979-69.3892C12.8998-74.8592 17.3098-79.4992 22.6098-82.9292C27.9098-86.3692 33.9498-88.4892 40.2298-89.1292Z"/>
  </g>
  <g id="Regular-M" transform="matrix(1 0 0 1 1393.37 1126)">
   <path class="hierarchical-0:primary SFSymbolsPreview212121" d="M39.1776-35.1262C41.1076-35.1262 42.6776-33.5562 42.6776-31.6262L42.6776-22.6962C42.6776-20.7662 41.1076-19.1962 39.1776-19.1962C37.2476-19.1962 35.6776-20.7662 35.6776-22.6962L35.6776-31.6262C35.6776-33.5562 37.2476-35.1262 39.1776-35.1262ZM74.8776-35.1262C76.8076-35.1262 78.3776-33.5562 78.3776-31.6262L78.3776-22.6962C78.3776-20.7662 76.8076-19.1962 74.8776-19.1962C72.9476-19.1962 71.3776-20.7662 71.3776-22.6962L71.3776-31.6262C71.3776-33.5562 72.9476-35.1262 74.8776-35.1262ZM57.0276 0.57382C58.9576 0.57382 60.5276 2.14382 60.5276 4.07382L60.5276 13.0038C60.5276 14.9338 58.9576 16.5038 57.0276 16.5038C55.0976 16.5038 53.5276 14.9338 53.5276 13.0038L53.5276 4.07382C53.5276 2.14382 55.0976 0.57382 57.0276 0.57382ZM57.0276-26.1962C58.9576-26.1962 60.5276-24.6262 60.5276-22.6962L60.5276-13.7762C60.5276-11.8362 58.9576-10.2762 57.0276-10.2762C55.0976-10.2762 53.5276-11.8362 53.5276-13.7762L53.5276-22.6962C53.5276-24.6262 55.0976-26.1962 57.0276-26.1962ZM39.1776-8.34618C41.1076-8.34618 42.6776-6.77618 42.6776-4.84618L42.6776 4.07382C42.6776 6.01382 41.1076 7.57382 39.1776 7.57382C37.2476 7.57382 35.6776 6.01382 35.6776 4.07382L35.6776-4.84618C35.6776-6.77618 37.2476-8.34618 39.1776-8.34618ZM74.8776-8.34618C76.8076-8.34618 78.3776-6.77618 78.3776-4.84618L78.3776 4.07382C78.3776 6.01382 76.8076 7.57382 74.8776 7.57382C72.9476 7.57382 71.3776 6.01382 71.3776 4.07382L71.3776-4.84618C71.3776-6.77618 72.9476-8.34618 74.8776-8.34618Z"/>
   <path class="hierarchical-1:secondary SFSymbolsPreview4D4D4D" d="M39.6476-88.4662C45.8276-89.0962 52.0676-88.2462 57.8476-85.9962C63.6376-83.7362 68.8076-80.1362 72.9276-75.4962C76.4476-71.5262 79.1176-66.9062 80.7976-61.8962L83.8076-61.8962C89.7276-61.8862 95.4776-59.8462 100.068-56.1062C104.668-52.3662 107.838-47.1562 109.048-41.3562C110.258-35.5562 109.438-29.5162 106.718-24.2562C104.008-18.9862 99.5576-14.8162 94.1276-12.4362C92.3576-11.6662 90.2976-12.4762 89.5176-14.2462C88.7476-16.0162 89.5576-18.0762 91.3276-18.8562C95.2776-20.5862 98.5176-23.6262 100.498-27.4662C102.478-31.2962 103.078-35.7062 102.188-39.9262C101.308-44.1562 98.9976-47.9462 95.6476-50.6762C92.2976-53.3962 88.1176-54.8962 83.7976-54.8962C83.7976-54.8962 83.7976-54.8962 83.7976-54.8962L78.1776-54.8962C76.5876-54.8962 75.1876-55.9762 74.7876-57.5262C73.5176-62.4662 71.0876-67.0262 67.6976-70.8462C64.3076-74.6662 60.0676-77.6162 55.3076-79.4762C50.5576-81.3262 45.4276-82.0262 40.3476-81.5062C35.2776-80.9862 30.3976-79.2762 26.1076-76.4962C21.8276-73.7262 18.2676-69.9762 15.7176-65.5562C13.1676-61.1362 11.7076-56.1662 11.4576-51.0762C11.1976-45.9762 12.1576-40.8962 14.2576-36.2362C16.3576-31.5862 19.5276-27.4962 23.5176-24.3162C25.0276-23.1062 25.2676-20.9062 24.0576-19.3962C22.8576-17.8862 20.6576-17.6362 19.1476-18.8462C14.2876-22.7262 10.4276-27.6962 7.87762-33.3662C5.32762-39.0262 4.15762-45.2162 4.46762-51.4162C4.76762-57.6262 6.54762-63.6662 9.65762-69.0462C12.7576-74.4262 17.0976-78.9962 22.3076-82.3762C27.5176-85.7462 33.4676-87.8362 39.6476-88.4662Z"/>
  </g>
  <g id="Light-M" transform="matrix(1 0 0 1 1097.46 1126)">
   <path class="hierarchical-0:primary SFSymbolsPreview212121" d="M38.3855-34.3012C39.8755-34.3012 41.0855-33.0912 41.0855-31.6012L41.0855-22.6712C41.0855-21.1812 39.8755-19.9712 38.3855-19.9712C36.8955-19.9712 35.6855-21.1812 35.6855-22.6712L35.6855-31.6012C35.6855-33.0912 36.8955-34.3012 38.3855-34.3012ZM74.0855-34.3012C75.5755-34.3012 76.7855-33.0912 76.7855-31.6012L76.7855-22.6712C76.7855-21.1812 75.5755-19.9712 74.0855-19.9712C72.5955-19.9712 71.3855-21.1812 71.3855-22.6712L71.3855-31.6012C71.3855-33.0912 72.5955-34.3012 74.0855-34.3012ZM56.2355 1.39876C57.7255 1.39876 58.9355 2.60876 58.9355 4.09876L58.9355 13.0288C58.9355 14.5188 57.7255 15.7288 56.2355 15.7288C54.7455 15.7288 53.5355 14.5188 53.5355 13.0288L53.5355 4.09876C53.5355 2.60876 54.7455 1.39876 56.2355 1.39876ZM56.2355-25.3712C57.7255-25.3712 58.9355-24.1612 58.9355-22.6712L58.9355-13.7512C58.9355-12.2512 57.7255-11.0512 56.2355-11.0512C54.7455-11.0512 53.5355-12.2512 53.5355-13.7512L53.5355-22.6712C53.5355-24.1612 54.7455-25.3712 56.2355-25.3712ZM38.3855-7.52124C39.8755-7.52124 41.0855-6.31124 41.0855-4.82124L41.0855 4.09876C41.0855 5.58876 39.8755 6.79876 38.3855 6.79876C36.8955 6.79876 35.6855 5.58876 35.6855 4.09876L35.6855-4.82124C35.6855-6.31124 36.8955-7.52124 38.3855-7.52124ZM74.0855-7.52124C75.5755-7.52124 76.7855-6.31124 76.7855-4.82124L76.7855 4.09876C76.7855 5.58876 75.5755 6.79876 74.0855 6.79876C72.5955 6.79876 71.3855 5.58876 71.3855 4.09876L71.3855-4.82124C71.3855-6.31124 72.5955-7.52124 74.0855-7.52124Z"/>
   <path class="hierarchical-1:secondary SFSymbolsPreview4D4D4D" d="M38.9355-87.6512C44.9855-88.2612 51.0955-87.4312 56.7655-85.2212C62.4355-83.0112 67.5055-79.4912 71.5355-74.9412C75.1155-70.9112 77.7955-66.1912 79.4155-61.0712L83.0155-61.0712C88.7555-61.0712 94.3155-59.0812 98.7755-55.4612C103.226-51.8412 106.296-46.7912 107.466-41.1712C108.646-35.5512 107.846-29.7012 105.216-24.6012C102.586-19.4912 98.2755-15.4512 93.0155-13.1512C91.6555-12.5512 90.0555-13.1712 89.4655-14.5412C88.8655-15.9012 89.4855-17.5012 90.8555-18.0912C94.9755-19.9012 98.3555-23.0712 100.416-27.0712C102.476-31.0712 103.106-35.6612 102.186-40.0712C101.266-44.4712 98.8555-48.4312 95.3655-51.2712C91.8755-54.1112 87.5055-55.6712 83.0055-55.6712C83.0055-55.6712 83.0055-55.6712 83.0055-55.6712L77.3855-55.6712C76.1555-55.6712 75.0855-56.5012 74.7755-57.7012C73.4655-62.7612 70.9755-67.4412 67.5055-71.3512C64.0255-75.2612 59.6755-78.2912 54.8055-80.1912C49.9355-82.0912 44.6855-82.8112 39.4755-82.2812C34.2755-81.7512 29.2755-79.9912 24.8855-77.1512C20.4955-74.3012 16.8455-70.4612 14.2355-65.9312C11.6155-61.4012 10.1255-56.3112 9.86547-51.0912C9.60547-45.8612 10.5855-40.6512 12.7355-35.8912C14.8855-31.1212 18.1355-26.9312 22.2155-23.6712C23.3855-22.7312 23.5755-21.0412 22.6455-19.8712C21.7155-18.7112 20.0155-18.5212 18.8455-19.4512C14.0955-23.2512 10.3155-28.1212 7.81547-33.6712C5.31547-39.2212 4.16547-45.2812 4.46547-51.3612C4.77547-57.4312 6.51547-63.3512 9.55547-68.6212C12.5955-73.9012 16.8455-78.3712 21.9455-81.6812C27.0555-84.9912 32.8755-87.0312 38.9355-87.6512Z"/>
  </g>
  <g id="Thin-M" transform="matrix(1 0 0 1 801.8 1126)">
   <path class="hierarchical-0:primary SFSymbolsPreview212121" d="M37.3322-33.2356C38.2432-33.2356 38.9822-32.4956 38.9822-31.5856L38.9822-22.6556C38.9822-21.7456 38.2432-21.0056 37.3322-21.0056C36.4212-21.0056 35.6822-21.7456 35.6822-22.6556L35.6822-31.5856C35.6822-32.4956 36.4212-33.2356 37.3322-33.2356ZM73.0312-33.2356C73.9422-33.2356 74.6812-32.4956 74.6812-31.5856L74.6812-22.6556C74.6812-21.7456 73.9422-21.0056 73.0312-21.0056C72.1202-21.0056 71.3812-21.7456 71.3812-22.6556L71.3812-31.5856C71.3812-32.4956 72.1202-33.2356 73.0312-33.2356ZM55.1822 2.46434C56.0932 2.46434 56.8322 3.20434 56.8322 4.11434L56.8322 13.0444C56.8322 13.9544 56.0932 14.6944 55.1822 14.6944C54.2702 14.6944 53.5322 13.9544 53.5322 13.0444L53.5322 4.11434C53.5322 3.20434 54.2702 2.46434 55.1822 2.46434ZM55.1822-24.3056C56.0932-24.3056 56.8322-23.5656 56.8322-22.6556L56.8322-13.7356C56.8322-12.8156 56.0932-12.0856 55.1822-12.0856C54.2702-12.0856 53.5322-12.8156 53.5322-13.7356L53.5322-22.6556C53.5322-23.5656 54.2702-24.3056 55.1822-24.3056ZM37.3322-6.45566C38.2432-6.45566 38.9822-5.71566 38.9822-4.80566L38.9822 4.11434C38.9822 5.03434 38.2432 5.76434 37.3322 5.76434C36.4212 5.76434 35.6822 5.03434 35.6822 4.11434L35.6822-4.80566C35.6822-5.71566 36.4212-6.45566 37.3322-6.45566ZM73.0312-6.45566C73.9422-6.45566 74.6812-5.71566 74.6812-4.80566L74.6812 4.11434C74.6812 5.03434 73.9422 5.76434 73.0312 5.76434C72.1202 5.76434 71.3812 5.03434 71.3812 4.11434L71.3812-4.80566C71.3812-5.71566 72.1202-6.45566 73.0312-6.45566Z"/>
   <path class="hierarchical-1:secondary SFSymbolsPreview4D4D4D" d="M37.9852-86.5856C43.8732-87.1856 49.8202-86.3756 55.3342-84.2256C60.8492-82.0756 65.7732-78.6456 69.7022-74.2256C73.3472-70.1156 76.0382-65.2656 77.5902-60.0056L81.9592-60.0056C87.4592-59.9956 92.7902-58.1056 97.0562-54.6256C101.322-51.1556 104.264-46.3256 105.388-40.9456C106.512-35.5556 105.749-29.9456 103.229-25.0656C100.708-20.1756 96.5822-16.3056 91.5442-14.0956C90.7092-13.7256 89.7362-14.1056 89.3712-14.9456C89.0052-15.7756 89.3852-16.7556 90.2202-17.1156C94.5642-19.0156 98.1222-22.3556 100.296-26.5756C102.469-30.7856 103.127-35.6256 102.157-40.2656C101.188-44.9056 98.6512-49.0756 94.9732-52.0756C91.2942-55.0656 86.6982-56.7056 81.9552-56.7056L76.3342-56.7056C75.5822-56.7056 74.9252-57.2156 74.7372-57.9456C73.3882-63.1656 70.8162-67.9956 67.2342-72.0356C63.6532-76.0656 59.1632-79.1956 54.1362-81.1556C49.1082-83.1156 43.6872-83.8556 38.3192-83.3056C32.9512-82.7556 27.7902-80.9456 23.2602-78.0156C18.7312-75.0756 14.9642-71.1156 12.2692-66.4356C9.57421-61.7656 8.02921-56.5156 7.76021-51.1256C7.49221-45.7356 8.50821-40.3556 10.7252-35.4356C12.9422-30.5156 16.2972-26.1956 20.5122-22.8256C21.2242-22.2656 21.3402-21.2256 20.7712-20.5156C20.2022-19.7956 19.1642-19.6856 18.4522-20.2556C13.8282-23.9456 10.1492-28.6856 7.71721-34.0856C5.28521-39.4756 4.17021-45.3756 4.46521-51.2856C4.75921-57.1956 6.45421-62.9556 9.41021-68.0856C12.3662-73.2156 16.4992-77.5656 21.4672-80.7856C26.4352-83.9956 32.0962-85.9856 37.9852-86.5856Z"/>
  </g>
  <g id="Ultralight-M" transform="matrix(1 0 0 1 505.639 1126)">
   <path class="hierarchical-0:primary SFSymbolsPreview212121" d="M36.7823-32.6826C37.3893-32.6826 37.8823-32.1826 37.8823-31.5826L37.8823-22.6526C37.8823-22.0426 37.3893-21.5526 36.7823-21.5526C36.1743-21.5526 35.6823-22.0426 35.6823-22.6526L35.6823-31.5826C35.6823-32.1826 36.1743-32.6826 36.7823-32.6826ZM72.4813-32.6826C73.0893-32.6826 73.5813-32.1826 73.5813-31.5826L73.5813-22.6526C73.5813-22.0426 73.0893-21.5526 72.4813-21.5526C71.8733-21.5526 71.3813-22.0426 71.3813-22.6526L71.3813-31.5826C71.3813-32.1826 71.8733-32.6826 72.4813-32.6826ZM54.6313 3.0173C55.2393 3.0173 55.7313 3.5173 55.7313 4.1173L55.7313 13.0474C55.7313 13.6574 55.2393 14.1474 54.6313 14.1474C54.0243 14.1474 53.5313 13.6574 53.5313 13.0474L53.5313 4.1173C53.5313 3.5173 54.0243 3.0173 54.6313 3.0173ZM54.6313-23.7526C55.2393-23.7526 55.7313-23.2626 55.7313-22.6526L55.7313-13.7326C55.7313-13.1226 55.2393-12.6326 54.6313-12.6326C54.0243-12.6326 53.5313-13.1226 53.5313-13.7326L53.5313-22.6526C53.5313-23.2626 54.0243-23.7526 54.6313-23.7526ZM36.7823-5.9027C37.3893-5.9027 37.8823-5.4127 37.8823-4.8027L37.8823 4.1173C37.8823 4.7273 37.3893 5.2173 36.7823 5.2173C36.1743 5.2173 35.6823 4.7273 35.6823 4.1173L35.6823-4.8027C35.6823-5.4127 36.1743-5.9027 36.7823-5.9027ZM72.4813-5.9027C73.0893-5.9027 73.5813-5.4127 73.5813-4.8027L73.5813 4.1173C73.5813 4.7273 73.0893 5.2173 72.4813 5.2173C71.8733 5.2173 71.3813 4.7273 71.3813 4.1173L71.3813-4.8027C71.3813-5.4127 71.8733-5.9027 72.4813-5.9027Z"/>
   <path class="hierarchical-1:secondary SFSymbolsPreview4D4D4D" d="M37.4903-86.0326C43.2923-86.6326 49.1513-85.8326 54.5843-83.7126C60.0183-81.5926 64.8703-78.2126 68.7413-73.8526C72.4233-69.7026 75.1173-64.7826 76.6263-59.4526L81.4083-59.4526C86.7823-59.4426 91.9903-57.5926 96.1583-54.2026C100.326-50.8126 103.201-46.0826 104.299-40.8226C105.398-35.5626 104.653-30.0826 102.19-25.3126C99.7273-20.5326 95.6963-16.7526 90.7733-14.5926C90.2173-14.3526 89.5683-14.6026 89.3243-15.1626C89.0813-15.7126 89.3343-16.3626 89.8913-16.6126C94.3513-18.5626 98.0033-21.9926 100.234-26.3226C102.466-30.6426 103.14-35.6126 102.145-40.3726C101.15-45.1426 98.5463-49.4226 94.7703-52.4926C90.9933-55.5626 86.2753-57.2426 81.4063-57.2526L75.7843-57.2526C75.2833-57.2526 74.8453-57.5926 74.7193-58.0826C73.3483-63.3826 70.7353-68.2926 67.0953-72.3926C63.4563-76.4926 58.8943-79.6726 53.7853-81.6626C48.6773-83.6526 43.1683-84.4026 37.7133-83.8526C32.2583-83.2926 27.0143-81.4526 22.4113-78.4726C17.8093-75.4926 13.9814-71.4526 11.2424-66.7026C8.50436-61.9526 6.93436-56.6226 6.66136-51.1526C6.38836-45.6726 7.42136-40.2126 9.67436-35.2126C11.9274-30.2126 15.3353-25.8226 19.6193-22.3926C20.0933-22.0126 20.1703-21.3226 19.7913-20.8526C19.4123-20.3726 18.7203-20.3026 18.2453-20.6826C13.6894-24.3226 10.0644-28.9926 7.66836-34.3026C5.27236-39.6226 4.17436-45.4326 4.46436-51.2526C4.75436-57.0826 6.42436-62.7526 9.33636-67.8026C12.2494-72.8626 16.3203-77.1426 21.2153-80.3126C26.1103-83.4826 31.6893-85.4426 37.4903-86.0326Z"/>
  </g>
  <g id="Black-S" transform="matrix(1 0 0 1 2883.92 696)">
   <path class="hierarchical-0:primary SFSymbolsPreview212121" d="M36.0406-39.6984C39.9606-39.6984 43.1406-36.5194 43.1406-32.5984L43.1406-25.5984C43.1406-21.6764 39.9606-18.4984 36.0406-18.4984C32.1206-18.4984 28.9406-21.6764 28.9406-25.5984L28.9406-32.5984C28.9406-36.5194 32.1206-39.6984 36.0406-39.6984ZM64.0406-39.6984C67.9606-39.6984 71.1406-36.5194 71.1406-32.5984L71.1406-25.5984C71.1406-21.6764 67.9606-18.4984 64.0406-18.4984C60.1206-18.4984 56.9406-21.6764 56.9406-25.5984L56.9406-32.5984C56.9406-36.5194 60.1206-39.6984 64.0406-39.6984ZM50.0406-11.6984C53.9606-11.6984 57.1406-8.51938 57.1406-4.59838L57.1406 2.40162C57.1406 6.32362 53.9606 9.50162 50.0406 9.50162C46.1206 9.50162 42.9406 6.32362 42.9406 2.40162L42.9406-4.59838C42.9406-8.51938 46.1206-11.6984 50.0406-11.6984ZM50.0406-32.6984C53.9606-32.6984 57.1406-29.5194 57.1406-25.5984L57.1406-18.5984C57.1406-14.6764 53.9606-11.4984 50.0406-11.4984C46.1206-11.4984 42.9406-14.6764 42.9406-18.5984L42.9406-25.5984C42.9406-29.5194 46.1206-32.6984 50.0406-32.6984ZM36.0406-18.6984C39.9606-18.6984 43.1406-15.5194 43.1406-11.5984L43.1406-4.59838C43.1406-0.676372 39.9606 2.50162 36.0406 2.50162C32.1206 2.50162 28.9406-0.676372 28.9406-4.59838L28.9406-11.5984C28.9406-15.5194 32.1206-18.6984 36.0406-18.6984ZM64.0406-18.6984C67.9606-18.6984 71.1406-15.5194 71.1406-11.5984L71.1406-4.59838C71.1406-0.676372 67.9606 2.50162 64.0406 2.50162C60.1206 2.50162 56.9406-0.676372 56.9406-4.59838L56.9406-11.5984C56.9406-15.5194 60.1206-18.6984 64.0406-18.6984Z"/>
   <path class="hierarchical-1:secondary SFSymbolsPreview4D4D4D" d="M35.9606-81.5174C41.5006-82.0814 47.0906-81.3214 52.2706-79.3014C57.4506-77.2804 62.0806-74.0574 65.7706-69.8974C68.2106-67.1464 70.2006-64.0384 71.6706-60.6904C77.0906-60.5484 82.3306-58.6134 86.5506-55.1794C90.9306-51.6154 93.9506-46.6534 95.1006-41.1264C96.2506-35.5994 95.4706-29.8434 92.8806-24.8244C90.3006-19.8064 86.0606-15.8304 80.8906-13.5654C77.3006-11.9924 73.1106-13.6284 71.5406-17.2204C69.9606-20.8124 71.6006-24.9994 75.1906-26.5724C77.3806-27.5304 79.1706-29.2114 80.2606-31.3324C81.3606-33.4544 81.6906-35.8874 81.2006-38.2244C80.7106-40.5614 79.4406-42.6594 77.5806-44.1654C75.7306-45.6714 73.4206-46.4954 71.0306-46.4994L66.6306-46.4994C63.3906-46.4994 60.5606-48.6894 59.7606-51.8234C58.9306-55.0304 57.3506-57.9944 55.1506-60.4714C52.9506-62.9484 50.2006-64.8674 47.1106-66.0704C44.0206-67.2734 40.7006-67.7264 37.4006-67.3904C34.1106-67.0554 30.9406-65.9414 28.1606-64.1414C25.3806-62.3404 23.0706-59.9054 21.4106-57.0364C19.7606-54.1674 18.8106-50.9454 18.6506-47.6374C18.4806-44.3294 19.1006-41.0304 20.4706-38.0104C21.8306-34.9914 23.8806-32.3384 26.4706-30.2704C29.5406-27.8224 30.0306-23.3554 27.5906-20.2914C25.1406-17.2284 20.6706-16.7294 17.6106-19.1774C13.2606-22.6494 9.80061-27.1054 7.52061-32.1764C5.23061-37.2474 4.19061-42.7884 4.46061-48.3444C4.74061-53.8994 6.33061-59.3094 9.11061-64.1284C11.8906-68.9474 15.7706-73.0364 20.4406-76.0604C25.1106-79.0834 30.4306-80.9544 35.9606-81.5174Z"/>
  </g>
  <g id="Heavy-S" transform="matrix(1 0 0 1 2588.05 696)">
   <path class="hierarchical-0:primary SFSymbolsPreview212121" d="M35.1913-38.8296C38.6413-38.8296 41.4413-36.0316 41.4413-32.5796L41.4413-25.5796C41.4413-22.1276 38.6413-19.3296 35.1913-19.3296C31.7413-19.3296 28.9413-22.1276 28.9413-25.5796L28.9413-32.5796C28.9413-36.0316 31.7413-38.8296 35.1913-38.8296ZM63.1913-38.8296C66.6413-38.8296 69.4413-36.0316 69.4413-32.5796L69.4413-25.5796C69.4413-22.1276 66.6413-19.3296 63.1913-19.3296C59.7413-19.3296 56.9413-22.1276 56.9413-25.5796L56.9413-32.5796C56.9413-36.0316 59.7413-38.8296 63.1913-38.8296ZM49.1913-10.8296C52.6413-10.8296 55.4413-8.03158 55.4413-4.57958L55.4413 2.42042C55.4413 5.87242 52.6413 8.67042 49.1913 8.67042C45.7413 8.67042 42.9413 5.87242 42.9413 2.42042L42.9413-4.57958C42.9413-8.03158 45.7413-10.8296 49.1913-10.8296ZM49.1913-31.8296C52.6413-31.8296 55.4413-29.0316 55.4413-25.5796L55.4413-18.5796C55.4413-15.1276 52.6413-12.3296 49.1913-12.3296C45.7413-12.3296 42.9413-15.1276 42.9413-18.5796L42.9413-25.5796C42.9413-29.0316 45.7413-31.8296 49.1913-31.8296ZM35.1913-17.8296C38.6413-17.8296 41.4413-15.0316 41.4413-11.5796L41.4413-4.57958C41.4413-1.12758 38.6413 1.67042 35.1913 1.67042C31.7413 1.67042 28.9413-1.12758 28.9413-4.57958L28.9413-11.5796C28.9413-15.0316 31.7413-17.8296 35.1913-17.8296ZM63.1913-17.8296C66.6413-17.8296 69.4413-15.0316 69.4413-11.5796L69.4413-4.57958C69.4413-1.12758 66.6413 1.67042 63.1913 1.67042C59.7413 1.67042 56.9413-1.12758 56.9413-4.57958L56.9413-11.5796C56.9413-15.0316 59.7413-17.8296 63.1913-17.8296Z"/>
   <path class="hierarchical-1:secondary SFSymbolsPreview4D4D4D" d="M35.2013-80.6516C40.6013-81.2016 46.0513-80.4596 51.1113-78.4886C56.1713-76.5176 60.6813-73.3726 64.2913-69.3136C66.7913-66.4926 68.8013-63.2856 70.2513-59.8286C75.6813-59.8096 80.9513-57.9296 85.1613-54.4996C89.3913-51.0596 92.3013-46.2686 93.4213-40.9326C94.5313-35.5956 93.7813-30.0386 91.2813-25.1936C88.7813-20.3486 84.6913-16.5106 79.7013-14.3236C76.5413-12.9386 72.8513-14.3796 71.4713-17.5416C70.0813-20.7036 71.5213-24.3886 74.6813-25.7736C77.0513-26.8096 78.9913-28.6276 80.1713-30.9226C81.3513-33.2176 81.7113-35.8496 81.1813-38.3776C80.6513-40.9056 79.2713-43.1746 77.2713-44.8046C75.2713-46.4336 72.7713-47.3246 70.1913-47.3286L65.7813-47.3286C62.9313-47.3286 60.4413-49.2566 59.7313-52.0156C58.8713-55.3536 57.2213-58.4376 54.9413-61.0156C52.6513-63.5936 49.7813-65.5906 46.5713-66.8426C43.3613-68.0946 39.9013-68.5646 36.4713-68.2156C33.0413-67.8666 29.7413-66.7076 26.8513-64.8336C23.9513-62.9606 21.5513-60.4266 19.8313-57.4406C18.1113-54.4546 17.1213-51.1016 16.9513-47.6596C16.7813-44.2176 17.4213-40.7836 18.8413-37.6406C20.2613-34.4986 22.4013-31.7376 25.0913-29.5866C27.7913-27.4316 28.2313-23.4986 26.0713-20.8016C23.9213-18.1056 19.9913-17.6666 17.2913-19.8206C13.0513-23.2096 9.67129-27.5566 7.44129-32.5046C5.21129-37.4536 4.19129-42.8606 4.46129-48.2816C4.73129-53.7026 6.29129-58.9816 9.00129-63.6836C11.7113-68.3856 15.5013-72.3766 20.0513-75.3266C24.6113-78.2766 29.8013-80.1016 35.2013-80.6516Z"/>
  </g>
  <g id="Bold-S" transform="matrix(1 0 0 1 2292.29 696)">
   <path class="hierarchical-0:primary SFSymbolsPreview212121" d="M34.232-37.655C37.162-37.655 39.532-35.282 39.532-32.355L39.532-25.355C39.532-22.428 37.162-20.055 34.232-20.055C31.312-20.055 28.932-22.428 28.932-25.355L28.932-32.355C28.932-35.282 31.312-37.655 34.232-37.655ZM62.232-37.655C65.162-37.655 67.532-35.282 67.532-32.355L67.532-25.355C67.532-22.428 65.162-20.055 62.232-20.055C59.312-20.055 56.932-22.428 56.932-25.355L56.932-32.355C56.932-35.282 59.312-37.655 62.232-37.655ZM48.232-9.65498C51.162-9.65498 53.532-7.28198 53.532-4.35498L53.532 2.64502C53.532 5.57202 51.162 7.94502 48.232 7.94502C45.312 7.94502 42.932 5.57202 42.932 2.64502L42.932-4.35498C42.932-7.28198 45.312-9.65498 48.232-9.65498ZM48.232-30.655C51.162-30.655 53.532-28.282 53.532-25.355L53.532-18.355C53.532-15.428 51.162-13.055 48.232-13.055C45.312-13.055 42.932-15.428 42.932-18.355L42.932-25.355C42.932-28.282 45.312-30.655 48.232-30.655ZM34.232-16.655C37.162-16.655 39.532-14.282 39.532-11.355L39.532-4.35498C39.532-1.42798 37.162 0.945019 34.232 0.945019C31.312 0.945019 28.932-1.42798 28.932-4.35498L28.932-11.355C28.932-14.282 31.312-16.655 34.232-16.655ZM62.232-16.655C65.162-16.655 67.532-14.282 67.532-11.355L67.532-4.35498C67.532-1.42798 65.162 0.945019 62.232 0.945019C59.312 0.945019 56.932-1.42798 56.932-4.35498L56.932-11.355C56.932-14.282 59.312-16.655 62.232-16.655Z"/>
   <path class="hierarchical-1:secondary SFSymbolsPreview4D4D4D" d="M34.342-79.481C39.592-80.016 44.892-79.295 49.812-77.379C54.732-75.462 59.122-72.404 62.622-68.458C65.192-65.557 67.232-62.238 68.662-58.654L69.242-58.654C74.472-58.648 79.552-56.841 83.612-53.538C87.662-50.235 90.462-45.636 91.532-40.513C92.602-35.39 91.882-30.056 89.482-25.404C87.082-20.753 83.152-17.068 78.362-14.969C75.682-13.795 72.552-15.016 71.382-17.698C70.212-20.379 71.432-23.504 74.112-24.679C76.672-25.802 78.772-27.774 80.062-30.262C81.342-32.751 81.732-35.606 81.162-38.347C80.582-41.088 79.092-43.549 76.912-45.317C74.742-47.083 72.032-48.05 69.232-48.054L64.822-48.054C62.412-48.054 60.302-49.689 59.692-52.029C58.792-55.512 57.082-58.731 54.692-61.421C52.302-64.112 49.312-66.196 45.962-67.503C42.612-68.809 38.992-69.3 35.412-68.936C31.842-68.572 28.402-67.362 25.382-65.407C22.362-63.451 19.842-60.806 18.052-57.69C16.252-54.574 15.222-51.075 15.042-47.482C14.862-43.889 15.542-40.305 17.022-37.026C18.502-33.746 20.732-30.865 23.542-28.619C25.832-26.792 26.202-23.457 24.382-21.17C22.552-18.883 19.212-18.511 16.932-20.338C12.802-23.633 9.52198-27.859 7.36198-32.67C5.19198-37.481 4.19198-42.739 4.46198-48.009C4.72198-53.28 6.23198-58.412 8.86198-62.984C11.502-67.556 15.182-71.436 19.612-74.304C24.042-77.172 29.092-78.947 34.342-79.481Z"/>
  </g>
  <g id="Semibold-S" transform="matrix(1 0 0 1 1996.23 696)">
   <path class="hierarchical-0:primary SFSymbolsPreview212121" d="M33.5898-36.9902C36.1598-36.9902 38.2398-34.9082 38.2398-32.3402L38.2398-25.3402C38.2398-22.7722 36.1598-20.6902 33.5898-20.6902C31.0198-20.6902 28.9398-22.7722 28.9398-25.3402L28.9398-32.3402C28.9398-34.9082 31.0198-36.9902 33.5898-36.9902ZM61.5898-36.9902C64.1598-36.9902 66.2398-34.9082 66.2398-32.3402L66.2398-25.3402C66.2398-22.7722 64.1598-20.6902 61.5898-20.6902C59.0198-20.6902 56.9398-22.7722 56.9398-25.3402L56.9398-32.3402C56.9398-34.9082 59.0198-36.9902 61.5898-36.9902ZM47.5898-8.99024C50.1598-8.99024 52.2398-6.90824 52.2398-4.34024L52.2398 2.65976C52.2398 5.22776 50.1598 7.30976 47.5898 7.30976C45.0198 7.30976 42.9398 5.22776 42.9398 2.65976L42.9398-4.34024C42.9398-6.90824 45.0198-8.99024 47.5898-8.99024ZM47.5898-29.9902C50.1598-29.9902 52.2398-27.9082 52.2398-25.3402L52.2398-18.3402C52.2398-15.7722 50.1598-13.6902 47.5898-13.6902C45.0198-13.6902 42.9398-15.7722 42.9398-18.3402L42.9398-25.3402C42.9398-27.9082 45.0198-29.9902 47.5898-29.9902ZM33.5898-15.9902C36.1598-15.9902 38.2398-13.9082 38.2398-11.3402L38.2398-4.34024C38.2398-1.77224 36.1598 0.309752 33.5898 0.309752C31.0198 0.309752 28.9398-1.77224 28.9398-4.34024L28.9398-11.3402C28.9398-13.9082 31.0198-15.9902 33.5898-15.9902ZM61.5898-15.9902C64.1598-15.9902 66.2398-13.9082 66.2398-11.3402L66.2398-4.34024C66.2398-1.77224 64.1598 0.309752 61.5898 0.309752C59.0198 0.309752 56.9398-1.77224 56.9398-4.34024L56.9398-11.3402C56.9398-13.9082 59.0198-15.9902 61.5898-15.9902Z"/>
   <path class="hierarchical-1:secondary SFSymbolsPreview4D4D4D" d="M33.7598-78.8202C38.9098-79.3452 44.1098-78.6382 48.9298-76.7592C53.7498-74.8792 58.0498-71.8812 61.4898-68.0122C64.1098-65.0582 66.1698-61.6602 67.5698-57.9892L68.5998-57.9892C73.6798-57.9832 78.6098-56.2292 82.5498-53.0202C86.4898-49.8112 89.2098-45.3432 90.2498-40.3662C91.2898-35.3892 90.5898-30.2072 88.2598-25.6882C85.9298-21.1692 82.1098-17.5902 77.4598-15.5502C75.0998-14.5202 72.3598-15.5922 71.3298-17.9442C70.2998-20.2962 71.3698-23.0392 73.7298-24.0692C76.4298-25.2522 78.6398-27.3292 79.9898-29.9502C81.3398-32.5722 81.7498-35.5782 81.1498-38.4652C80.5498-41.3532 78.9698-43.9452 76.6798-45.8062C74.3898-47.6672 71.5398-48.6852 68.5898-48.6892L64.1798-48.6892C62.0598-48.6892 60.2098-50.1242 59.6798-52.1772C58.7498-55.7592 56.9898-59.0712 54.5298-61.8382C52.0798-64.6062 48.9998-66.7502 45.5498-68.0942C42.0998-69.4382 38.3898-69.9432 34.6998-69.5682C31.0198-69.1932 27.4798-67.9492 24.3798-65.9382C21.2698-63.9272 18.6898-61.2062 16.8398-58.0002C14.9898-54.7952 13.9298-51.1962 13.7498-47.5002C13.5598-43.8042 14.2598-40.1182 15.7798-36.7442C17.2998-33.3712 19.5998-30.4072 22.4898-28.0972C24.4998-26.4942 24.8298-23.5682 23.2198-21.5622C21.6198-19.5552 18.6898-19.2292 16.6898-20.8322C12.6498-24.0622 9.42981-28.2062 7.29981-32.9232C5.17981-37.6402 4.19981-42.7952 4.45981-47.9622C4.71981-53.1302 6.19981-58.1622 8.77981-62.6452C11.3698-67.1272 14.9798-70.9322 19.3198-73.7442C23.6698-76.5562 28.6198-78.2962 33.7598-78.8202Z"/>
  </g>
  <g id="Medium-S" transform="matrix(1 0 0 1 1700.02 696)">
   <path class="hierarchical-0:primary SFSymbolsPreview212121" d="M33.0876-36.4784C35.3776-36.4784 37.2376-34.6204 37.2376-32.3284L37.2376-25.3284C37.2376-23.0364 35.3776-21.1784 33.0876-21.1784C30.7976-21.1784 28.9376-23.0364 28.9376-25.3284L28.9376-32.3284C28.9376-34.6204 30.7976-36.4784 33.0876-36.4784ZM61.0876-36.4784C63.3776-36.4784 65.2376-34.6204 65.2376-32.3284L65.2376-25.3284C65.2376-23.0364 63.3776-21.1784 61.0876-21.1784C58.7976-21.1784 56.9376-23.0364 56.9376-25.3284L56.9376-32.3284C56.9376-34.6204 58.7976-36.4784 61.0876-36.4784ZM47.0876-8.47834C49.3776-8.47834 51.2376-6.62034 51.2376-4.32834L51.2376 2.67166C51.2376 4.96366 49.3776 6.82166 47.0876 6.82166C44.7976 6.82166 42.9376 4.96366 42.9376 2.67166L42.9376-4.32834C42.9376-6.62034 44.7976-8.47834 47.0876-8.47834ZM47.0876-29.4784C49.3776-29.4784 51.2376-27.6204 51.2376-25.3284L51.2376-18.3284C51.2376-16.0364 49.3776-14.1784 47.0876-14.1784C44.7976-14.1784 42.9376-16.0364 42.9376-18.3284L42.9376-25.3284C42.9376-27.6204 44.7976-29.4784 47.0876-29.4784ZM33.0876-15.4784C35.3776-15.4784 37.2376-13.6204 37.2376-11.3284L37.2376-4.32834C37.2376-2.03634 35.3776-0.178348 33.0876-0.178348C30.7976-0.178348 28.9376-2.03634 28.9376-4.32834L28.9376-11.3284C28.9376-13.6204 30.7976-15.4784 33.0876-15.4784ZM61.0876-15.4784C63.3776-15.4784 65.2376-13.6204 65.2376-11.3284L65.2376-4.32834C65.2376-2.03634 63.3776-0.178348 61.0876-0.178348C58.7976-0.178348 56.9376-2.03634 56.9376-4.32834L56.9376-11.3284C56.9376-13.6204 58.7976-15.4784 61.0876-15.4784Z"/>
   <path class="hierarchical-1:secondary SFSymbolsPreview4D4D4D" d="M33.3076-78.3114C38.3776-78.8274 43.4976-78.1314 48.2476-76.2814C52.9876-74.4304 57.2276-71.4784 60.6176-67.6684C63.2676-64.6734 65.3376-61.2154 66.7176-57.4774L68.0976-57.4774C73.0576-57.4724 77.8776-55.7564 81.7376-52.6204C85.5876-49.4834 88.2476-45.1164 89.2576-40.2524C90.2776-35.3874 89.5876-30.3224 87.3076-25.9054C85.0376-21.4884 81.3076-17.9904 76.7576-15.9964C74.6576-15.0764 72.2076-16.0334 71.2876-18.1334C70.3676-20.2324 71.3276-22.6794 73.4276-23.5994C76.2276-24.8284 78.5276-26.9864 79.9376-29.7094C81.3376-32.4324 81.7576-35.5564 81.1376-38.5564C80.5076-41.5554 78.8676-44.2484 76.4976-46.1824C74.1176-48.1164 71.1476-49.1734 68.0876-49.1774L63.6776-49.1774C61.7876-49.1774 60.1376-50.4584 59.6576-52.2904C58.7176-55.9494 56.9176-59.3324 54.4076-62.1584C51.8976-64.9854 48.7476-67.1754 45.2276-68.5484C41.7076-69.9204 37.9076-70.4374 34.1476-70.0544C30.3876-69.6714 26.7776-68.4004 23.6076-66.3454C20.4276-64.2914 17.7976-61.5124 15.9076-58.2384C14.0176-54.9644 12.9376-51.2884 12.7476-47.5134C12.5576-43.7384 13.2676-39.9734 14.8276-36.5274C16.3776-33.0814 18.7276-30.0544 21.6776-27.6944C23.4676-26.2644 23.7576-23.6524 22.3276-21.8624C20.8976-20.0714 18.2876-19.7804 16.4976-21.2104C12.5176-24.3914 9.34764-28.4724 7.25764-33.1164C5.16764-37.7614 4.20764-42.8374 4.45764-47.9264C4.70764-53.0144 6.16764-57.9694 8.71764-62.3834C11.2576-66.7974 14.8176-70.5434 19.0876-73.3124C23.3676-76.0824 28.2376-77.7954 33.3076-78.3114Z"/>
  </g>
  <g id="Regular-S" transform="matrix(1 0 0 1 1403.96 696)">
   <path class="hierarchical-0:primary SFSymbolsPreview212121" d="M32.4383-35.8146C34.3683-35.8146 35.9383-34.2476 35.9383-32.3146L35.9383-25.3146C35.9383-23.3816 34.3683-21.8146 32.4383-21.8146C30.5083-21.8146 28.9383-23.3816 28.9383-25.3146L28.9383-32.3146C28.9383-34.2476 30.5083-35.8146 32.4383-35.8146ZM60.4383-35.8146C62.3683-35.8146 63.9383-34.2476 63.9383-32.3146L63.9383-25.3146C63.9383-23.3816 62.3683-21.8146 60.4383-21.8146C58.5083-21.8146 56.9383-23.3816 56.9383-25.3146L56.9383-32.3146C56.9383-34.2476 58.5083-35.8146 60.4383-35.8146ZM46.4383-7.81462C48.3683-7.81462 49.9383-6.24762 49.9383-4.31462L49.9383 2.68538C49.9383 4.61838 48.3683 6.18538 46.4383 6.18538C44.5083 6.18538 42.9383 4.61838 42.9383 2.68538L42.9383-4.31462C42.9383-6.24762 44.5083-7.81462 46.4383-7.81462ZM46.4383-28.8146C48.3683-28.8146 49.9383-27.2476 49.9383-25.3146L49.9383-18.3146C49.9383-16.3816 48.3683-14.8146 46.4383-14.8146C44.5083-14.8146 42.9383-16.3816 42.9383-18.3146L42.9383-25.3146C42.9383-27.2476 44.5083-28.8146 46.4383-28.8146ZM32.4383-14.8146C34.3683-14.8146 35.9383-13.2476 35.9383-11.3146L35.9383-4.31462C35.9383-2.38162 34.3683-0.814612 32.4383-0.814612C30.5083-0.814612 28.9383-2.38162 28.9383-4.31462L28.9383-11.3146C28.9383-13.2476 30.5083-14.8146 32.4383-14.8146ZM60.4383-14.8146C62.3683-14.8146 63.9383-13.2476 63.9383-11.3146L63.9383-4.31462C63.9383-2.38162 62.3683-0.814612 60.4383-0.814612C58.5083-0.814612 56.9383-2.38162 56.9383-4.31462L56.9383-11.3146C56.9383-13.2476 58.5083-14.8146 60.4383-14.8146Z"/>
   <path class="hierarchical-1:secondary SFSymbolsPreview4D4D4D" d="M32.7283-77.6506C37.6883-78.1566 42.7083-77.4746 47.3583-75.6616C52.0083-73.8486 56.1583-70.9556 59.4783-67.2226C62.1783-64.1756 64.2583-60.6386 65.6183-56.8136L67.4383-56.8136C72.2583-56.8076 76.9283-55.1446 80.6683-52.1016C84.4083-49.0596 86.9883-44.8236 87.9783-40.1056C88.9583-35.3866 88.2883-30.4736 86.0783-26.1896C83.8683-21.9046 80.2583-18.5116 75.8383-16.5776C74.0683-15.8026 72.0083-16.6086 71.2283-18.3796C70.4583-20.1506 71.2583-22.2146 73.0383-22.9896C75.9783-24.2786 78.3883-26.5416 79.8583-29.3976C81.3283-32.2536 81.7783-35.5296 81.1183-38.6746C80.4683-41.8206 78.7483-44.6446 76.2583-46.6726C73.7583-48.7006 70.6483-49.8096 67.4383-49.8136C67.4383-49.8136 67.4383-49.8136 67.4383-49.8136L63.0283-49.8136C61.4283-49.8136 60.0383-50.8936 59.6383-52.4386C58.6683-56.1976 56.8183-59.6726 54.2383-62.5756C51.6583-65.4796 48.4283-67.7296 44.8183-69.1396C41.1983-70.5496 37.2983-71.0796 33.4383-70.6866C29.5683-70.2936 25.8583-68.9876 22.5983-66.8776C19.3383-64.7666 16.6283-61.9126 14.6883-58.5486C12.7483-55.1856 11.6383-51.4086 11.4483-47.5316C11.2583-43.6536 11.9883-39.7856 13.5783-36.2456C15.1783-32.7066 17.5883-29.5966 20.6183-27.1726C22.1283-25.9666 22.3783-23.7636 21.1683-22.2536C19.9683-20.7436 17.7583-20.4976 16.2483-21.7046C12.3483-24.8206 9.24829-28.8186 7.19829-33.3696C5.14829-37.9206 4.20829-42.8936 4.45829-47.8796C4.70829-52.8646 6.13829-57.7206 8.62829-62.0446C11.1183-66.3696 14.6083-70.0396 18.7983-72.7526C22.9883-75.4666 27.7583-77.1446 32.7283-77.6506Z"/>
  </g>
  <g id="Light-S" transform="matrix(1 0 0 1 1108.05 696)">
   <path class="hierarchical-0:primary SFSymbolsPreview212121" d="M31.6364-34.9958C33.1264-34.9958 34.3364-33.7868 34.3364-32.2958L34.3364-25.2958C34.3364-23.8048 33.1264-22.5958 31.6364-22.5958C30.1464-22.5958 28.9364-23.8048 28.9364-25.2958L28.9364-32.2958C28.9364-33.7868 30.1464-34.9958 31.6364-34.9958ZM59.6364-34.9958C61.1264-34.9958 62.3364-33.7868 62.3364-32.2958L62.3364-25.2958C62.3364-23.8048 61.1264-22.5958 59.6364-22.5958C58.1464-22.5958 56.9364-23.8048 56.9364-25.2958L56.9364-32.2958C56.9364-33.7868 58.1464-34.9958 59.6364-34.9958ZM45.6364-6.99584C47.1264-6.99584 48.3364-5.78684 48.3364-4.29584L48.3364 2.70416C48.3364 4.19516 47.1264 5.40416 45.6364 5.40416C44.1464 5.40416 42.9364 4.19516 42.9364 2.70416L42.9364-4.29584C42.9364-5.78684 44.1464-6.99584 45.6364-6.99584ZM45.6364-27.9958C47.1264-27.9958 48.3364-26.7868 48.3364-25.2958L48.3364-18.2958C48.3364-16.8048 47.1264-15.5958 45.6364-15.5958C44.1464-15.5958 42.9364-16.8048 42.9364-18.2958L42.9364-25.2958C42.9364-26.7868 44.1464-27.9958 45.6364-27.9958ZM31.6364-13.9958C33.1264-13.9958 34.3364-12.7868 34.3364-11.2958L34.3364-4.29584C34.3364-2.80484 33.1264-1.59584 31.6364-1.59584C30.1464-1.59584 28.9364-2.80484 28.9364-4.29584L28.9364-11.2958C28.9364-12.7868 30.1464-13.9958 31.6364-13.9958ZM59.6364-13.9958C61.1264-13.9958 62.3364-12.7868 62.3364-11.2958L62.3364-4.29584C62.3364-2.80484 61.1264-1.59584 59.6364-1.59584C58.1464-1.59584 56.9364-2.80484 56.9364-4.29584L56.9364-11.2958C56.9364-12.7868 58.1464-13.9958 59.6364-13.9958Z"/>
   <path class="hierarchical-1:secondary SFSymbolsPreview4D4D4D" d="M32.0064-76.8378C36.8464-77.3308 41.7364-76.6668 46.2664-74.8998C50.7964-73.1328 54.8464-70.3138 58.0764-66.6748C60.8364-63.5638 62.9364-59.9298 64.2464-55.9968L66.6364-55.9968C71.2764-55.9918 75.7664-54.3908 79.3664-51.4648C82.9664-48.5378 85.4464-44.4638 86.3864-39.9248C87.3364-35.3868 86.6964-30.6598 84.5664-26.5388C82.4464-22.4178 78.9664-19.1538 74.7164-17.2938C73.3564-16.6958 71.7564-17.3178 71.1664-18.6838C70.5664-20.0498 71.1864-21.6418 72.5564-22.2398C75.6664-23.6028 78.2164-25.9948 79.7664-29.0138C81.3264-32.0328 81.7964-35.4958 81.1064-38.8218C80.4064-42.1468 78.5964-45.1318 75.9564-47.2768C73.3264-49.4198 70.0264-50.5928 66.6364-50.5968C66.6364-50.5968 66.6364-50.5968 66.6364-50.5968L62.2264-50.5968C60.9964-50.5968 59.9164-51.4298 59.6164-52.6218C58.6064-56.5038 56.6964-60.0918 54.0364-63.0908C51.3764-66.0888 48.0364-68.4118 44.3064-69.8678C40.5664-71.3248 36.5364-71.8718 32.5564-71.4658C28.5664-71.0598 24.7264-69.7118 21.3664-67.5318C17.9964-65.3528 15.1964-62.4048 13.1964-58.9318C11.1964-55.4578 10.0464-51.5588 9.84644-47.5548C9.64644-43.5498 10.4064-39.5558 12.0464-35.9008C13.6964-32.2458 16.1864-29.0338 19.3264-26.5308C20.4864-25.6008 20.6764-23.9018 19.7464-22.7368C18.8164-21.5718 17.1164-21.3818 15.9464-22.3128C12.1464-25.3498 9.12644-29.2468 7.12644-33.6818C5.12644-38.1168 4.21644-42.9638 4.45644-47.8228C4.69644-52.6818 6.08644-57.4138 8.51644-61.6288C10.9464-65.8438 14.3464-69.4208 18.4264-72.0648C22.5164-74.7088 27.1664-76.3448 32.0064-76.8378Z"/>
  </g>
  <g id="Thin-S" transform="matrix(1 0 0 1 812.387 696)">
   <path class="hierarchical-0:primary SFSymbolsPreview212121" d="M30.5886-33.924C31.4996-33.924 32.2386-33.186 32.2386-32.274L32.2386-25.274C32.2386-24.363 31.4996-23.624 30.5886-23.624C29.6766-23.624 28.9386-24.363 28.9386-25.274L28.9386-32.274C28.9386-33.186 29.6766-33.924 30.5886-33.924ZM58.5886-33.924C59.4996-33.924 60.2386-33.186 60.2386-32.274L60.2386-25.274C60.2386-24.363 59.4996-23.624 58.5886-23.624C57.6766-23.624 56.9386-24.363 56.9386-25.274L56.9386-32.274C56.9386-33.186 57.6766-33.924 58.5886-33.924ZM44.5886-5.92396C45.4996-5.92396 46.2386-5.18596 46.2386-4.27396L46.2386 2.72604C46.2386 3.63704 45.4996 4.37604 44.5886 4.37604C43.6766 4.37604 42.9386 3.63704 42.9386 2.72604L42.9386-4.27396C42.9386-5.18596 43.6766-5.92396 44.5886-5.92396ZM44.5886-26.924C45.4996-26.924 46.2386-26.186 46.2386-25.274L46.2386-18.274C46.2386-17.363 45.4996-16.624 44.5886-16.624C43.6766-16.624 42.9386-17.363 42.9386-18.274L42.9386-25.274C42.9386-26.186 43.6766-26.924 44.5886-26.924ZM30.5886-12.924C31.4996-12.924 32.2386-12.186 32.2386-11.274L32.2386-4.27396C32.2386-3.36296 31.4996-2.62396 30.5886-2.62396C29.6766-2.62396 28.9386-3.36296 28.9386-4.27396L28.9386-11.274C28.9386-12.186 29.6766-12.924 30.5886-12.924ZM58.5886-12.924C59.4996-12.924 60.2386-12.186 60.2386-11.274L60.2386-4.27396C60.2386-3.36296 59.4996-2.62396 58.5886-2.62396C57.6766-2.62396 56.9386-3.36296 56.9386-4.27396L56.9386-11.274C56.9386-12.186 57.6766-12.924 58.5886-12.924Z"/>
   <path class="hierarchical-1:secondary SFSymbolsPreview4D4D4D" d="M31.0646-75.77C35.7396-76.246 40.4596-75.604 44.8376-73.898C49.2156-72.191 53.1246-69.468 56.2436-65.954C59.0776-62.761 61.1856-58.998 62.4286-54.923L65.5916-54.923C69.9866-54.918 74.2466-53.401 77.6556-50.627C81.0656-47.852 83.4166-43.99 84.3146-39.687C85.2126-35.384 84.6036-30.903 82.5896-26.997C80.5746-23.09 77.2776-19.995 73.2516-18.232C72.4166-17.866 71.4436-18.247 71.0776-19.081C70.7126-19.916 71.0926-20.889 71.9276-21.255C75.2596-22.714 77.9886-25.276 79.6556-28.509C81.3236-31.743 81.8276-35.451 81.0846-39.013C80.3406-42.574 78.3946-45.771 75.5726-48.067C72.7516-50.363 69.2266-51.619 65.5886-51.623C65.5886-51.623 65.5876-51.623 65.5876-51.623L61.1796-51.623C60.4266-51.623 59.7696-52.132 59.5816-52.861C58.5376-56.904 56.5476-60.641 53.7756-63.764C51.0036-66.887 47.5296-69.306 43.6396-70.823C39.7486-72.34 35.5536-72.91 31.3996-72.487C27.2456-72.064 23.2506-70.66 19.7456-68.39C16.2416-66.12 13.3256-63.05 11.2406-59.433C9.15459-55.815 7.95859-51.754 7.75159-47.583C7.54359-43.413 8.32959-39.252 10.0456-35.446C11.7616-31.639 14.3576-28.294 17.6196-25.687C18.3316-25.119 18.4476-24.08 17.8786-23.368C17.3096-22.656 16.2716-22.541 15.5596-23.109C11.8886-26.043 8.96759-29.806 7.03759-34.09C5.10659-38.373 4.22159-43.054 4.45559-47.747C4.68959-52.44 6.03459-57.01 8.38159-61.081C10.7276-65.151 14.0086-68.606 17.9526-71.16C21.8966-73.714 26.3906-75.294 31.0646-75.77Z"/>
  </g>
  <g id="Ultralight-S" transform="matrix(1 0 0 1 516.226 696)">
   <path class="hierarchical-0:primary SFSymbolsPreview212121" d="M30.0397-33.3618C30.6477-33.3618 31.1397-32.8688 31.1397-32.2618L31.1397-25.2618C31.1397-24.6538 30.6477-24.1618 30.0397-24.1618C29.4327-24.1618 28.9397-24.6538 28.9397-25.2618L28.9397-32.2618C28.9397-32.8688 29.4327-33.3618 30.0397-33.3618ZM58.0397-33.3618C58.6477-33.3618 59.1397-32.8688 59.1397-32.2618L59.1397-25.2618C59.1397-24.6538 58.6477-24.1618 58.0397-24.1618C57.4327-24.1618 56.9397-24.6538 56.9397-25.2618L56.9397-32.2618C56.9397-32.8688 57.4327-33.3618 58.0397-33.3618ZM44.0397-5.36178C44.6477-5.36178 45.1397-4.86878 45.1397-4.26178L45.1397 2.73822C45.1397 3.34622 44.6477 3.83822 44.0397 3.83822C43.4327 3.83822 42.9397 3.34622 42.9397 2.73822L42.9397-4.26178C42.9397-4.86878 43.4327-5.36178 44.0397-5.36178ZM44.0397-26.3618C44.6477-26.3618 45.1397-25.8688 45.1397-25.2618L45.1397-18.2618C45.1397-17.6538 44.6477-17.1618 44.0397-17.1618C43.4327-17.1618 42.9397-17.6538 42.9397-18.2618L42.9397-25.2618C42.9397-25.8688 43.4327-26.3618 44.0397-26.3618ZM30.0397-12.3618C30.6477-12.3618 31.1397-11.8688 31.1397-11.2618L31.1397-4.26178C31.1397-3.65378 30.6477-3.16178 30.0397-3.16178C29.4327-3.16178 28.9397-3.65378 28.9397-4.26178L28.9397-11.2618C28.9397-11.8688 29.4327-12.3618 30.0397-12.3618ZM58.0397-12.3618C58.6477-12.3618 59.1397-11.8688 59.1397-11.2618L59.1397-4.26178C59.1397-3.65378 58.6477-3.16178 58.0397-3.16178C57.4327-3.16178 56.9397-3.65378 56.9397-4.26178L56.9397-11.2618C56.9397-11.8688 57.4327-12.3618 58.0397-12.3618Z"/>
   <path class="hierarchical-1:secondary SFSymbolsPreview4D4D4D" d="M30.5707-75.2118C35.1587-75.6788 39.7917-75.0488 44.0877-73.3738C48.3847-71.6988 52.2217-69.0268 55.2827-65.5778C58.1537-62.3428 60.2657-58.5108 61.4687-54.3628L65.0407-54.3628C69.3097-54.3578 73.4477-52.8838 76.7587-50.1888C80.0697-47.4948 82.3537-43.7428 83.2257-39.5638C84.0987-35.3848 83.5067-31.0328 81.5497-27.2378C79.5937-23.4438 76.3907-20.4378 72.4807-18.7248C71.9237-18.4808 71.2757-18.7348 71.0317-19.2908C70.7877-19.8478 71.0417-20.4958 71.5977-20.7398C75.0457-22.2498 77.8697-24.9008 79.5947-28.2458C81.3197-31.5918 81.8417-35.4288 81.0727-39.1138C80.3037-42.7988 78.2897-46.1068 75.3697-48.4828C72.4507-50.8588 68.8027-52.1578 65.0377-52.1628L60.6297-52.1628C60.1277-52.1628 59.6897-52.5018 59.5637-52.9878C58.4987-57.1148 56.4667-60.9298 53.6367-64.1178C50.8077-67.3058 47.2607-69.7758 43.2887-71.3248C39.3177-72.8728 35.0347-73.4548 30.7937-73.0228C26.5527-72.5908 22.4747-71.1578 18.8967-68.8408C15.3187-66.5238 12.3427-63.3888 10.2137-59.6958C8.08474-56.0028 6.86374-51.8568 6.65174-47.5998C6.43974-43.3418 7.24274-39.0948 8.99474-35.2088C10.7457-31.3218 13.3957-27.9078 16.7257-25.2468C17.2007-24.8678 17.2777-24.1748 16.8987-23.7008C16.5197-23.2258 15.8267-23.1488 15.3527-23.5278C11.7497-26.4068 8.88374-30.1008 6.98874-34.3048C5.09374-38.5088 4.22574-43.1028 4.45474-47.7088C4.68374-52.3148 6.00474-56.7998 8.30774-60.7948C10.6107-64.7898 13.8307-68.1808 17.7017-70.6868C21.5717-73.1938 25.9827-74.7448 30.5707-75.2118Z"/>
  </g>
 </g>
</svg>
