<?xml version="1.0" encoding="UTF-8"?>
<!--Generator: Apple Native CoreSVG 175-->
<!DOCTYPE svg
PUBLIC "-//W3C//DTD SVG 1.1//EN"
       "http://www.w3.org/Graphics/SVG/1.1/DTD/svg11.dtd">
<svg version="1.1" xmlns="http://www.w3.org/2000/svg" xmlns:xlink="http://www.w3.org/1999/xlink" width="3300" height="2200">
 <!--glyph: "", point size: 100.0, font version: "17.0d12e1", template writer version: "65.1"-->
 <g id="Notes">
  <rect height="2200" id="artboard" style="fill:white;opacity:1" width="3300" x="0" y="0"/>
  <line style="fill:none;stroke:black;opacity:1;stroke-width:0.5;" x1="263" x2="3036" y1="292" y2="292"/>
  <text style="stroke:none;fill:black;font-family:sans-serif;font-size:13;font-weight:bold;" transform="matrix(1 0 0 1 263 322)">Weight/Scale Variations</text>
  <text style="stroke:none;fill:black;font-family:sans-serif;font-size:13;text-anchor:middle;" transform="matrix(1 0 0 1 559.711 322)">Ultralight</text>
  <text style="stroke:none;fill:black;font-family:sans-serif;font-size:13;text-anchor:middle;" transform="matrix(1 0 0 1 856.422 322)">Thin</text>
  <text style="stroke:none;fill:black;font-family:sans-serif;font-size:13;text-anchor:middle;" transform="matrix(1 0 0 1 1153.13 322)">Light</text>
  <text style="stroke:none;fill:black;font-family:sans-serif;font-size:13;text-anchor:middle;" transform="matrix(1 0 0 1 1449.84 322)">Regular</text>
  <text style="stroke:none;fill:black;font-family:sans-serif;font-size:13;text-anchor:middle;" transform="matrix(1 0 0 1 1746.56 322)">Medium</text>
  <text style="stroke:none;fill:black;font-family:sans-serif;font-size:13;text-anchor:middle;" transform="matrix(1 0 0 1 2043.27 322)">Semibold</text>
  <text style="stroke:none;fill:black;font-family:sans-serif;font-size:13;text-anchor:middle;" transform="matrix(1 0 0 1 2339.98 322)">Bold</text>
  <text style="stroke:none;fill:black;font-family:sans-serif;font-size:13;text-anchor:middle;" transform="matrix(1 0 0 1 2636.69 322)">Heavy</text>
  <text style="stroke:none;fill:black;font-family:sans-serif;font-size:13;text-anchor:middle;" transform="matrix(1 0 0 1 2933.4 322)">Black</text>
  <line style="fill:none;stroke:black;opacity:1;stroke-width:0.5;" x1="263" x2="3036" y1="1903" y2="1903"/>
  <g transform="matrix(1 0 0 1 263 1933)">
   <path d="M9.24805 0.830078Q10.8691 0.830078 12.2949 0.214844Q13.7207-0.400391 14.8096-1.49414Q15.8984-2.58789 16.5186-4.01367Q17.1387-5.43945 17.1387-7.05078Q17.1387-8.66211 16.5186-10.0879Q15.8984-11.5137 14.8047-12.6074Q13.7109-13.7012 12.2852-14.3164Q10.8594-14.9316 9.23828-14.9316Q7.62695-14.9316 6.20117-14.3164Q4.77539-13.7012 3.69141-12.6074Q2.60742-11.5137 1.9873-10.0879Q1.36719-8.66211 1.36719-7.05078Q1.36719-5.43945 1.9873-4.01367Q2.60742-2.58789 3.69629-1.49414Q4.78516-0.400391 6.21094 0.214844Q7.63672 0.830078 9.24805 0.830078ZM9.24805-0.654297Q7.91992-0.654297 6.7627-1.14746Q5.60547-1.64062 4.73145-2.51953Q3.85742-3.39844 3.36426-4.56055Q2.87109-5.72266 2.87109-7.05078Q2.87109-8.37891 3.35938-9.54102Q3.84766-10.7031 4.72168-11.582Q5.5957-12.4609 6.75293-12.9541Q7.91016-13.4473 9.23828-13.4473Q10.5762-13.4473 11.7334-12.9541Q12.8906-12.4609 13.7695-11.582Q14.6484-10.7031 15.1465-9.54102Q15.6445-8.37891 15.6445-7.05078Q15.6445-5.72266 15.1514-4.56055Q14.6582-3.39844 13.7842-2.51953Q12.9102-1.64062 11.748-1.14746Q10.5859-0.654297 9.24805-0.654297ZM5.6543-7.05078Q5.6543-6.72852 5.85938-6.52832Q6.06445-6.32812 6.40625-6.32812L8.51562-6.32812L8.51562-4.20898Q8.51562-3.88672 8.71094-3.67676Q8.90625-3.4668 9.23828-3.4668Q9.56055-3.4668 9.77051-3.67676Q9.98047-3.88672 9.98047-4.20898L9.98047-6.32812L12.0898-6.32812Q12.4219-6.32812 12.627-6.52832Q12.832-6.72852 12.832-7.05078Q12.832-7.38281 12.627-7.58789Q12.4219-7.79297 12.0898-7.79297L9.98047-7.79297L9.98047-9.90234Q9.98047-10.2344 9.77051-10.4443Q9.56055-10.6543 9.23828-10.6543Q8.90625-10.6543 8.71094-10.4443Q8.51562-10.2344 8.51562-9.90234L8.51562-7.79297L6.40625-7.79297Q6.06445-7.79297 5.85938-7.58789Q5.6543-7.38281 5.6543-7.05078Z"/>
  </g>
  <g transform="matrix(1 0 0 1 281.867 1933)">
   <path d="M11.709 2.91016Q13.75 2.91016 15.5518 2.12891Q17.3535 1.34766 18.7305-0.0292969Q20.1074-1.40625 20.8887-3.20801Q21.6699-5.00977 21.6699-7.05078Q21.6699-9.0918 20.8887-10.8936Q20.1074-12.6953 18.7305-14.0723Q17.3535-15.4492 15.5469-16.2305Q13.7402-17.0117 11.6992-17.0117Q9.6582-17.0117 7.85645-16.2305Q6.05469-15.4492 4.68262-14.0723Q3.31055-12.6953 2.5293-10.8936Q1.74805-9.0918 1.74805-7.05078Q1.74805-5.00977 2.5293-3.20801Q3.31055-1.40625 4.6875-0.0292969Q6.06445 1.34766 7.86621 2.12891Q9.66797 2.91016 11.709 2.91016ZM11.709 1.25Q9.98047 1.25 8.47656 0.605469Q6.97266-0.0390625 5.83496-1.17676Q4.69727-2.31445 4.05762-3.81836Q3.41797-5.32227 3.41797-7.05078Q3.41797-8.7793 4.05762-10.2832Q4.69727-11.7871 5.83008-12.9297Q6.96289-14.0723 8.4668-14.7119Q9.9707-15.3516 11.6992-15.3516Q13.4277-15.3516 14.9316-14.7119Q16.4355-14.0723 17.5781-12.9297Q18.7207-11.7871 19.3652-10.2832Q20.0098-8.7793 20.0098-7.05078Q20.0098-5.32227 19.3701-3.81836Q18.7305-2.31445 17.5928-1.17676Q16.4551-0.0390625 14.9463 0.605469Q13.4375 1.25 11.709 1.25ZM7.17773-7.05078Q7.17773-6.69922 7.41211-6.47461Q7.64648-6.25 8.01758-6.25L10.8887-6.25L10.8887-3.36914Q10.8887-2.99805 11.1133-2.76855Q11.3379-2.53906 11.6895-2.53906Q12.0605-2.53906 12.29-2.76855Q12.5195-2.99805 12.5195-3.36914L12.5195-6.25L15.4004-6.25Q15.7715-6.25 16.001-6.47461Q16.2305-6.69922 16.2305-7.05078Q16.2305-7.42188 16.001-7.65137Q15.7715-7.88086 15.4004-7.88086L12.5195-7.88086L12.5195-10.752Q12.5195-11.1328 12.29-11.3623Q12.0605-11.5918 11.6895-11.5918Q11.3379-11.5918 11.1133-11.3574Q10.8887-11.123 10.8887-10.752L10.8887-7.88086L8.01758-7.88086Q7.63672-7.88086 7.40723-7.65137Q7.17773-7.42188 7.17773-7.05078Z"/>
  </g>
  <g transform="matrix(1 0 0 1 305.646 1933)">
   <path d="M14.9707 5.66406Q17.0605 5.66406 18.96 5.01465Q20.8594 4.36523 22.4512 3.19336Q24.043 2.02148 25.2197 0.429688Q26.3965-1.16211 27.0459-3.06641Q27.6953-4.9707 27.6953-7.05078Q27.6953-9.14062 27.0459-11.04Q26.3965-12.9395 25.2197-14.5312Q24.043-16.123 22.4512-17.2998Q20.8594-18.4766 18.9551-19.126Q17.0508-19.7754 14.9609-19.7754Q12.8711-19.7754 10.9717-19.126Q9.07227-18.4766 7.48535-17.2998Q5.89844-16.123 4.72168-14.5312Q3.54492-12.9395 2.90039-11.04Q2.25586-9.14062 2.25586-7.05078Q2.25586-4.9707 2.90527-3.06641Q3.55469-1.16211 4.72656 0.429688Q5.89844 2.02148 7.49023 3.19336Q9.08203 4.36523 10.9814 5.01465Q12.8809 5.66406 14.9707 5.66406ZM14.9707 3.84766Q13.1641 3.84766 11.5283 3.2959Q9.89258 2.74414 8.53516 1.74805Q7.17773 0.751953 6.17676-0.610352Q5.17578-1.97266 4.62891-3.6084Q4.08203-5.24414 4.08203-7.05078Q4.08203-8.86719 4.62891-10.5029Q5.17578-12.1387 6.17188-13.501Q7.16797-14.8633 8.52539-15.8594Q9.88281-16.8555 11.5186-17.4023Q13.1543-17.9492 14.9609-17.9492Q16.7773-17.9492 18.4131-17.4023Q20.0488-16.8555 21.4111-15.8594Q22.7734-14.8633 23.7695-13.501Q24.7656-12.1387 25.3174-10.5029Q25.8691-8.86719 25.8691-7.05078Q25.8789-5.24414 25.332-3.6084Q24.7852-1.97266 23.7842-0.610352Q22.7832 0.751953 21.4209 1.74805Q20.0586 2.74414 18.4229 3.2959Q16.7871 3.84766 14.9707 3.84766ZM9.19922-7.05078Q9.19922-6.66992 9.45801-6.4209Q9.7168-6.17188 10.1172-6.17188L14.0625-6.17188L14.0625-2.2168Q14.0625-1.81641 14.3115-1.55762Q14.5605-1.29883 14.9512-1.29883Q15.3516-1.29883 15.6104-1.55273Q15.8691-1.80664 15.8691-2.2168L15.8691-6.17188L19.8242-6.17188Q20.2246-6.17188 20.4785-6.4209Q20.7324-6.66992 20.7324-7.05078Q20.7324-7.46094 20.4785-7.71484Q20.2246-7.96875 19.8242-7.96875L15.8691-7.96875L15.8691-11.9141Q15.8691-12.3242 15.6104-12.583Q15.3516-12.8418 14.9512-12.8418Q14.5605-12.8418 14.3115-12.583Q14.0625-12.3242 14.0625-11.9141L14.0625-7.96875L10.1172-7.96875Q9.70703-7.96875 9.45312-7.71484Q9.19922-7.46094 9.19922-7.05078Z"/>
  </g>
  <text style="stroke:none;fill:black;font-family:sans-serif;font-size:13;font-weight:bold;" transform="matrix(1 0 0 1 263 1953)">Design Variations</text>
  <text style="stroke:none;fill:black;font-family:sans-serif;font-size:13;" transform="matrix(1 0 0 1 263 1971)">Symbols are supported in up to nine weights and three scales.</text>
  <text style="stroke:none;fill:black;font-family:sans-serif;font-size:13;" transform="matrix(1 0 0 1 263 1989)">For optimal layout with text and other symbols, vertically align</text>
  <text style="stroke:none;fill:black;font-family:sans-serif;font-size:13;" transform="matrix(1 0 0 1 263 2007)">symbols with the adjacent text.</text>
  <line style="fill:none;stroke:#00AEEF;stroke-width:0.5;opacity:1.0;" x1="776" x2="776" y1="1919" y2="1933"/>
  <g transform="matrix(1 0 0 1 776 1933)">
   <path d="M3.31055 0.15625Q3.70117 0.15625 3.91602-0.00976562Q4.13086-0.175781 4.26758-0.585938L5.52734-4.0332L11.2891-4.0332L12.5488-0.585938Q12.6855-0.175781 12.9004-0.00976562Q13.1152 0.15625 13.4961 0.15625Q13.8867 0.15625 14.1162-0.0585938Q14.3457-0.273438 14.3457-0.644531Q14.3457-0.869141 14.2383-1.17188L9.6582-13.3691Q9.48242-13.8184 9.17969-14.043Q8.87695-14.2676 8.4082-14.2676Q7.5-14.2676 7.17773-13.3789L2.59766-1.16211Q2.49023-0.859375 2.49023-0.634766Q2.49023-0.263672 2.70996-0.0537109Q2.92969 0.15625 3.31055 0.15625ZM6.00586-5.51758L8.37891-12.0898L8.42773-12.0898L10.8008-5.51758Z"/>
  </g>
  <line style="fill:none;stroke:#00AEEF;stroke-width:0.5;opacity:1.0;" x1="793.197" x2="793.197" y1="1919" y2="1933"/>
  <text style="stroke:none;fill:black;font-family:sans-serif;font-size:13;font-weight:bold;" transform="matrix(1 0 0 1 776 1953)">Margins</text>
  <text style="stroke:none;fill:black;font-family:sans-serif;font-size:13;" transform="matrix(1 0 0 1 776 1971)">Leading and trailing margins on the left and right side of each symbol</text>
  <text style="stroke:none;fill:black;font-family:sans-serif;font-size:13;" transform="matrix(1 0 0 1 776 1989)">can be adjusted by modifying the x-location of the margin guidelines.</text>
  <text style="stroke:none;fill:black;font-family:sans-serif;font-size:13;" transform="matrix(1 0 0 1 776 2007)">Modifications are automatically applied proportionally to all</text>
  <text style="stroke:none;fill:black;font-family:sans-serif;font-size:13;" transform="matrix(1 0 0 1 776 2025)">scales and weights.</text>
  <g transform="matrix(1 0 0 1 1289 1933)">
   <path d="M2.8418 1.86523L4.54102 3.57422Q5.18555 4.22852 5.90332 4.17969Q6.62109 4.13086 7.31445 3.35938L18.0078-8.42773L17.041-9.4043L6.42578 2.27539Q6.16211 2.57812 5.89355 2.61719Q5.625 2.65625 5.27344 2.30469L4.10156 1.14258Q3.75 0.791016 3.79395 0.522461Q3.83789 0.253906 4.14062-0.0195312L15.6152-10.8203L14.6387-11.7871L3.04688-0.898438Q2.30469-0.214844 2.25098 0.498047Q2.19727 1.21094 2.8418 1.86523ZM9.25781-16.3281Q8.94531-16.0254 8.90625-15.6348Q8.86719-15.2441 9.04297-14.9512Q9.21875-14.6777 9.55566-14.541Q9.89258-14.4043 10.3809-14.5215Q11.4746-14.7754 12.5977-14.7314Q13.7207-14.6875 14.7949-13.9844L14.209-12.5293Q13.9551-11.9043 14.0674-11.4404Q14.1797-10.9766 14.5801-10.5664L16.875-8.25195Q17.2363-7.88086 17.5781-7.82227Q17.9199-7.76367 18.3398-7.8418L19.4043-8.03711L20.0684-7.36328L20.0293-6.80664Q20-6.43555 20.1221-6.12305Q20.2441-5.81055 20.6055-5.44922L21.3672-4.70703Q21.7285-4.3457 22.1533-4.33105Q22.5781-4.31641 22.9297-4.66797L25.8398-7.58789Q26.1914-7.93945 26.1816-8.35449Q26.1719-8.76953 25.8105-9.13086L25.0391-9.89258Q24.6875-10.2539 24.3799-10.3857Q24.0723-10.5176 23.7109-10.4883L23.1348-10.4395L22.4902-11.0742L22.7344-12.1973Q22.832-12.6172 22.6953-12.9834Q22.5586-13.3496 22.1191-13.7891L19.9219-15.9766Q18.6719-17.2168 17.2607-17.8369Q15.8496-18.457 14.4189-18.4814Q12.9883-18.5059 11.665-17.959Q10.3418-17.4121 9.25781-16.3281ZM10.752-15.957Q11.6602-16.6211 12.7002-16.9043Q13.7402-17.1875 14.8047-17.085Q15.8691-16.9824 16.8701-16.5137Q17.8711-16.0449 18.7012-15.2051L21.1328-12.793Q21.3086-12.6172 21.3525-12.4512Q21.3965-12.2852 21.3379-12.0312L21.0156-10.5469L22.5195-9.0625L23.5059-9.12109Q23.6914-9.13086 23.7891-9.09668Q23.8867-9.0625 24.0332-8.91602L24.6094-8.33984L22.168-5.89844L21.5918-6.47461Q21.4453-6.62109 21.4062-6.71875Q21.3672-6.81641 21.377-7.01172L21.4453-7.98828L19.9512-9.47266L18.4277-9.21875Q18.1836-9.16992 18.042-9.2041Q17.9004-9.23828 17.7148-9.41406L15.7129-11.416Q15.5176-11.5918 15.4932-11.7529Q15.4688-11.9141 15.5859-12.1875L16.4648-14.2773Q15.293-15.3711 13.8281-15.791Q12.3633-16.2109 10.8398-15.7617Q10.7227-15.7324 10.6885-15.8057Q10.6543-15.8789 10.752-15.957Z"/>
  </g>
  <text style="stroke:none;fill:black;font-family:sans-serif;font-size:13;font-weight:bold;" transform="matrix(1 0 0 1 1289 1953)">Exporting</text>
  <text style="stroke:none;fill:black;font-family:sans-serif;font-size:13;" transform="matrix(1 0 0 1 1289 1971)">Symbols should be outlined when exporting to ensure the</text>
  <text style="stroke:none;fill:black;font-family:sans-serif;font-size:13;" transform="matrix(1 0 0 1 1289 1989)">design is preserved when submitting to Xcode.</text>
  <text id="template-version" style="stroke:none;fill:black;font-family:sans-serif;font-size:13;text-anchor:end;" transform="matrix(1 0 0 1 3036 1933)">Template v.3.0</text>
  <text style="stroke:none;fill:black;font-family:sans-serif;font-size:13;text-anchor:end;" transform="matrix(1 0 0 1 3036 1951)">Requires Xcode 13 or greater</text>
  <text id="descriptive-name" style="stroke:none;fill:black;font-family:sans-serif;font-size:13;text-anchor:end;" transform="matrix(1 0 0 1 3036 1969)">Generated from thumbs-up</text>
  <text style="stroke:none;fill:black;font-family:sans-serif;font-size:13;text-anchor:end;" transform="matrix(1 0 0 1 3036 1987)">Typeset at 100 points</text>
  <text style="stroke:none;fill:black;font-family:sans-serif;font-size:13;" transform="matrix(1 0 0 1 263 726)">Small</text>
  <text style="stroke:none;fill:black;font-family:sans-serif;font-size:13;" transform="matrix(1 0 0 1 263 1156)">Medium</text>
  <text style="stroke:none;fill:black;font-family:sans-serif;font-size:13;" transform="matrix(1 0 0 1 263 1586)">Large</text>
 </g>
 <g id="Guides">
  <g id="H-reference" style="fill:#27AAE1;stroke:none;" transform="matrix(1 0 0 1 339 696)">
   <path d="M0.976562 0L3.66211 0L29.3457-67.1387L30.0293-67.1387L30.0293-70.459L28.125-70.459ZM11.6699-24.4629L46.9727-24.4629L46.2402-26.709L12.4512-26.709ZM55.127 0L57.7637 0L30.6152-70.459L29.4434-70.459L29.4434-67.1387Z"/>
  </g>
  <line id="Baseline-S" style="fill:none;stroke:#27AAE1;opacity:1;stroke-width:0.5;" x1="263" x2="3036" y1="696" y2="696"/>
  <line id="Capline-S" style="fill:none;stroke:#27AAE1;opacity:1;stroke-width:0.5;" x1="263" x2="3036" y1="625.541" y2="625.541"/>
  <g id="H-reference" style="fill:#27AAE1;stroke:none;" transform="matrix(1 0 0 1 339 1126)">
   <path d="M0.976562 0L3.66211 0L29.3457-67.1387L30.0293-67.1387L30.0293-70.459L28.125-70.459ZM11.6699-24.4629L46.9727-24.4629L46.2402-26.709L12.4512-26.709ZM55.127 0L57.7637 0L30.6152-70.459L29.4434-70.459L29.4434-67.1387Z"/>
  </g>
  <line id="Baseline-M" style="fill:none;stroke:#27AAE1;opacity:1;stroke-width:0.5;" x1="263" x2="3036" y1="1126" y2="1126"/>
  <line id="Capline-M" style="fill:none;stroke:#27AAE1;opacity:1;stroke-width:0.5;" x1="263" x2="3036" y1="1055.54" y2="1055.54"/>
  <g id="H-reference" style="fill:#27AAE1;stroke:none;" transform="matrix(1 0 0 1 339 1556)">
   <path d="M0.976562 0L3.66211 0L29.3457-67.1387L30.0293-67.1387L30.0293-70.459L28.125-70.459ZM11.6699-24.4629L46.9727-24.4629L46.2402-26.709L12.4512-26.709ZM55.127 0L57.7637 0L30.6152-70.459L29.4434-70.459L29.4434-67.1387Z"/>
  </g>
  <line id="Baseline-L" style="fill:none;stroke:#27AAE1;opacity:1;stroke-width:0.5;" x1="263" x2="3036" y1="1556" y2="1556"/>
  <line id="Capline-L" style="fill:none;stroke:#27AAE1;opacity:1;stroke-width:0.5;" x1="263" x2="3036" y1="1485.54" y2="1485.54"/>
  <line id="left-margin-Regular-M" style="fill:none;stroke:#00AEEF;stroke-width:0.5;opacity:1.0;" x1="1392.57" x2="1392.57" y1="1030.78" y2="1150.12"/>
  <line id="right-margin-Regular-M" style="fill:none;stroke:#00AEEF;stroke-width:0.5;opacity:1.0;" x1="1507.12" x2="1507.12" y1="1030.78" y2="1150.12"/>
 </g>
 <g id="Symbols">
  <g id="Black-L" transform="matrix(1 0 0 1 2860.46 1556)">
   <path d="M67.71-99.21C74.12-99.21 80.27-96.66 84.8-92.13C89.23-87.7 91.76-81.74 91.88-75.5L91.88-75.04L91.88-59.39L117.39-59.39C119.55-59.36 121.7-58.94 123.73-58.16L124.2-57.97L124.67-57.77C127.12-56.67 129.3-55.05 131.03-53.04C132.79-51.03 134.09-48.64 134.84-46.07C135.54-43.66 135.74-41.12 135.43-38.63L135.36-38.13L127.51 13.04C126.84 17.44 124.61 21.46 121.2 24.36C117.91 27.14 113.76 28.7 109.46 28.74L27.9 28.74C22.99 28.74 18.29 26.8 14.85 23.34C11.48 19.98 9.55 15.46 9.44 10.7L9.43 10.27L9.43-29.54C9.43-34.44 11.37-39.14 14.84-42.61C18.2-45.97 22.72-47.9 27.47-48.01L27.9-48.02L40.35-48.02L61.22-94.99C62.32-97.47 64.74-99.1 67.44-99.2L67.71-99.21ZM71.91-84.08L52.06-39.41L52.06 14.54L109.22 14.54C110.07 14.55 110.91 14.3 111.61 13.83L111.82 13.68L112.01 13.54C112.74 12.91 113.24 12.07 113.43 11.14L113.47 10.9L121.32-40.29C121.42-40.89 121.37-41.52 121.2-42.1C121.03-42.7 120.73-43.26 120.31-43.74C119.91-44.19 119.41-44.56 118.85-44.82C118.36-45.04 117.83-45.16 117.23-45.19L116.97-45.19L84.78-45.19C80.94-45.19 77.81-48.24 77.68-52.05L77.68-52.29L77.68-75.04C77.68-77.68 76.63-80.22 74.76-82.09C74.08-82.77 73.31-83.34 72.48-83.8L72.12-83.98L71.91-84.08ZM37.86 14.54L37.86-33.82L27.9-33.82C26.77-33.82 25.68-33.37 24.88-32.57C24.13-31.82 23.7-30.84 23.64-29.78L23.63-29.54L23.63 10.27C23.63 11.41 24.08 12.49 24.89 13.3C25.63 14.04 26.61 14.48 27.66 14.53L27.9 14.54L37.86 14.54Z"/>
  </g>
  <g id="Heavy-L" transform="matrix(1 0 0 1 2564.6 1556)">
   <path d="M66.87-98.36C73.06-98.36 78.99-95.9 83.36-91.53C87.62-87.26 90.06-81.52 90.18-75.49L90.18-75.04L90.18-58.54L116.52-58.54C118.59-58.51 120.65-58.11 122.59-57.37L123.03-57.19L123.48-57C125.81-55.95 127.87-54.42 129.55-52.48C131.23-50.56 132.47-48.29 133.18-45.84C133.85-43.53 134.04-41.11 133.74-38.74L133.68-38.26L125.83 12.92C125.19 17.11 123.06 20.94 119.81 23.71C116.67 26.37 112.71 27.85 108.7 27.89L27.06 27.89C22.38 27.89 17.9 26.04 14.59 22.73C11.39 19.53 9.54 15.22 9.44 10.7L9.43 10.27L9.43-29.54C9.43-34.21 11.28-38.69 14.6-42.02C17.81-45.22 22.12-47.06 26.64-47.16L27.06-47.17L40.06-47.17L61.16-94.65C62.13-96.83 64.25-98.26 66.62-98.35L66.87-98.36ZM70.63-85.18L50.37-39.59L50.37 15.39L108.37 15.39C109.41 15.41 110.44 15.09 111.3 14.5L111.51 14.35L111.72 14.18C112.6 13.43 113.2 12.42 113.43 11.29L113.47 11.03L121.32-40.16C121.43-40.89 121.38-41.64 121.18-42.34C120.97-43.06 120.61-43.72 120.13-44.27C119.63-44.85 119.03-45.29 118.36-45.59C117.77-45.86 117.13-46.01 116.42-46.04L116.12-46.04L83.93-46.04C80.55-46.04 77.8-48.71 77.68-52.06L77.68-52.29L77.68-75.04C77.68-77.92 76.54-80.67 74.52-82.69C73.56-83.65 72.44-84.41 71.22-84.95L70.85-85.1L70.63-85.18ZM37.87 15.39L37.87-34.67L27.06-34.67C25.7-34.67 24.39-34.13 23.44-33.18C22.53-32.27 22-31.06 21.94-29.79L21.93-29.54L21.93 10.27C21.93 11.63 22.47 12.93 23.43 13.89C24.33 14.79 25.53 15.32 26.8 15.38L27.06 15.39L37.87 15.39Z"/>
  </g>
  <g id="Bold-L" transform="matrix(1 0 0 1 2268.84 1556)">
   <path d="M26.11 26.94C21.68 26.94 17.43 25.19 14.31 22.06C11.28 19.03 9.54 14.96 9.44 10.68L9.43 10.27L9.43-29.54C9.43-33.96 11.18-38.19 14.31-41.34C17.34-44.36 21.42-46.11 25.7-46.22L26.11-46.22L39.73-46.22L61.08-94.26C61.9-96.11 63.69-97.32 65.69-97.41L65.92-97.41C71.85-97.41 77.53-95.05 81.73-90.86C85.82-86.77 88.16-81.26 88.28-75.5L88.28-75.04L88.28-57.59L115.59-57.59C117.51-57.56 119.42-57.19 121.24-56.5L121.7-56.32L122.15-56.13C124.35-55.13 126.31-53.67 127.86-51.88C129.46-50.06 130.63-47.91 131.31-45.57C131.94-43.42 132.12-41.15 131.85-38.89L131.79-38.41L123.94 12.77C123.34 16.74 121.32 20.37 118.25 22.98C115.28 25.5 111.53 26.9 107.73 26.94L26.11 26.94ZM69.16-86.35L48.47-39.8L48.47 16.34L107.4 16.34C108.66 16.36 109.89 15.98 110.92 15.26L111.16 15.09L111.38 14.9C112.43 14.01 113.14 12.8 113.41 11.47L113.46 11.18L121.31-39.98C121.44-40.87 121.38-41.77 121.13-42.61C120.88-43.47 120.46-44.24 119.87-44.92C119.3-45.57 118.59-46.1 117.81-46.46C117.08-46.78 116.31-46.96 115.48-46.99L115.17-46.99L82.98-46.99C80.13-46.99 77.8-49.25 77.68-52.07L77.68-52.29L77.68-75.04C77.68-78.16 76.44-81.15 74.23-83.36C72.94-84.66 71.37-85.62 69.66-86.2L69.3-86.31L69.16-86.35ZM37.87 16.34L37.87-35.62L26.11-35.62C24.5-35.62 22.94-34.98 21.82-33.85C20.74-32.77 20.11-31.33 20.04-29.82L20.03-29.54L20.03 10.27C20.03 11.88 20.67 13.42 21.82 14.57C22.88 15.64 24.31 16.26 25.82 16.33L26.11 16.34L37.87 16.34Z"/>
  </g>
  <g id="Semibold-L" transform="matrix(1 0 0 1 1972.78 1556)">
   <path d="M25.46 26.29C21.2 26.29 17.12 24.61 14.14 21.61C11.22 18.7 9.54 14.79 9.44 10.68L9.43 10.27L9.43-29.54C9.43-33.79 11.12-37.87 14.13-40.88C17.04-43.78 20.95-45.46 25.05-45.56L25.46-45.57L39.5-45.57L61.02-94C61.74-95.61 63.3-96.67 65.05-96.75L65.27-96.76C71.03-96.76 76.55-94.47 80.63-90.4C84.59-86.43 86.86-81.09 86.98-75.49L86.98-75.04L86.98-56.94L114.94-56.94C116.79-56.91 118.62-56.55 120.36-55.89L120.79-55.72L121.22-55.54C123.35-54.58 125.24-53.18 126.75-51.43C128.27-49.69 129.4-47.62 130.04-45.39C130.65-43.31 130.83-41.12 130.56-38.97L130.5-38.5L122.65 12.68C122.07 16.49 120.13 19.97 117.18 22.49C114.33 24.9 110.74 26.25 107.09 26.29L25.46 26.29ZM68.14-87.12L47.17-39.93L47.17 16.99L106.75 16.99C108.15 17.01 109.53 16.58 110.68 15.77L110.92 15.59L111.15 15.4C112.32 14.41 113.11 13.06 113.4 11.57L113.45 11.28L121.3-39.91C121.45-40.87 121.39-41.86 121.12-42.79C120.84-43.73 120.37-44.6 119.72-45.34C119.09-46.07 118.3-46.65 117.41-47.05C116.62-47.41 115.77-47.6 114.87-47.64L114.53-47.64L82.33-47.64C79.83-47.64 77.8-49.61 77.68-52.08L77.68-52.29L77.68-75.04C77.68-78.34 76.38-81.5 74.05-83.82C72.57-85.3 70.75-86.37 68.78-86.95L68.38-87.06L68.14-87.12ZM37.87 16.99L37.87-36.27L25.46-36.27C23.68-36.27 21.97-35.56 20.71-34.3C19.51-33.1 18.81-31.51 18.74-29.84L18.73-29.54L18.73 10.27C18.73 12.05 19.44 13.76 20.72 15.03C21.9 16.22 23.48 16.91 25.16 16.98L25.46 16.99L37.87 16.99Z"/>
  </g>
  <g id="Medium-L" transform="matrix(1 0 0 1 1676.57 1556)">
   <path d="M24.96 25.79C20.83 25.79 16.88 24.16 13.99 21.25C11.16 18.44 9.54 14.65 9.44 10.67L9.43 10.27L9.43-29.54C9.43-33.66 11.07-37.61 13.99-40.52C16.8-43.34 20.59-44.96 24.56-45.06L24.96-45.07L39.32-45.07L60.98-93.8C61.61-95.23 63-96.17 64.56-96.25L64.77-96.26C70.4-96.26 75.79-94.02 79.77-90.04C83.64-86.18 85.86-80.96 85.98-75.5L85.98-75.04L85.98-56.44L114.43-56.44C116.21-56.41 117.97-56.07 119.65-55.44L120.1-55.26L120.51-55.08C122.58-54.15 124.41-52.8 125.87-51.11C127.34-49.41 128.44-47.41 129.06-45.25C129.65-43.23 129.82-41.11 129.56-39.03L129.5-38.58L121.65 12.6C121.09 16.3 119.21 19.67 116.35 22.11C113.59 24.44 110.11 25.75 106.57 25.79L24.96 25.79ZM67.35-87.7L46.17-40.04L46.17 17.49L106.24 17.49C107.76 17.51 109.25 17.04 110.5 16.16L110.74 15.97L110.98 15.78C112.23 14.71 113.08 13.26 113.4 11.65L113.45 11.35L121.3-39.84C121.46-40.87 121.39-41.93 121.1-42.93C120.8-43.94 120.29-44.87 119.6-45.67C118.92-46.45 118.08-47.08 117.12-47.51C116.27-47.89 115.35-48.1 114.39-48.14L114.03-48.14L81.83-48.14C79.61-48.14 77.79-49.89 77.69-52.08L77.68-52.29L77.68-75.04C77.68-78.47 76.32-81.76 73.91-84.18C72.27-85.81 70.24-86.96 68.05-87.54L67.66-87.63L67.35-87.7ZM37.87 17.49L37.87-36.77L24.96-36.77C23.04-36.77 21.21-36.01 19.85-34.66C18.56-33.36 17.81-31.65 17.74-29.84L17.73-29.54L17.73 10.27C17.73 12.19 18.49 14.02 19.86 15.38C21.14 16.66 22.84 17.41 24.66 17.48L24.96 17.49L37.87 17.49Z"/>
  </g>
  <g id="Regular-L" transform="matrix(1 0 0 1 1380.51 1556)">
   <path d="M64.12-95.61C69.58-95.61 74.81-93.44 78.66-89.58C82.41-85.84 84.56-80.79 84.68-75.49L84.68-75.04L84.68-55.79L113.8-55.79C115.49-55.76 117.16-55.44 118.74-54.84L119.17-54.67L119.6-54.49C121.58-53.6 123.33-52.3 124.73-50.68C126.14-49.06 127.19-47.14 127.79-45.07C128.35-43.15 128.51-41.12 128.27-39.14L128.21-38.68L120.36 12.5C119.82 16.05 118.02 19.28 115.28 21.61C112.64 23.85 109.31 25.1 105.92 25.14L24.31 25.14C20.36 25.14 16.57 23.58 13.8 20.79C11.09 18.1 9.54 14.47 9.44 10.67L9.43 10.27L9.43-29.54C9.43-33.49 11-37.27 13.8-40.06C16.49-42.76 20.11-44.31 23.92-44.41L24.31-44.42L39.1-44.42L60.92-93.53C61.46-94.73 62.61-95.53 63.91-95.6L64.12-95.61ZM66.32-88.43L44.87-40.18L44.87 18.14L105.58 18.14C107.24 18.17 108.87 17.65 110.22 16.69L110.49 16.49L110.75 16.28C112.12 15.11 113.05 13.52 113.39 11.76L113.44 11.45L121.29-39.74C121.46-40.86 121.39-42.02 121.07-43.11C120.75-44.21 120.2-45.23 119.44-46.09C118.7-46.95 117.78-47.63 116.73-48.1C115.79-48.52 114.79-48.75 113.73-48.79L113.38-48.79L81.18-48.79C79.31-48.79 77.78-50.25 77.69-52.1L77.68-52.29L77.68-75.04C77.68-78.65 76.26-82.09 73.72-84.63C71.79-86.56 69.34-87.85 66.71-88.36L66.32-88.43ZM37.87 18.14L37.87-37.42L24.31-37.42C22.22-37.42 20.22-36.59 18.74-35.11C17.33-33.7 16.51-31.83 16.44-29.85L16.43-29.54L16.43 10.27C16.43 12.36 17.26 14.36 18.75 15.84C20.14 17.24 22.01 18.06 24 18.13L24.31 18.14L37.87 18.14Z"/>
  </g>
  <g id="Light-L" transform="matrix(1 0 0 1 1084.59 1556)">
   <path d="M63.32-94.81C68.56-94.81 73.59-92.73 77.3-89.02C80.9-85.42 82.96-80.58 83.07-75.49L83.08-75.04L83.08-54.99L112.98-54.99C114.58-54.96 116.16-54.66 117.66-54.09L118.07-53.93L118.47-53.76C120.34-52.92 122-51.69 123.33-50.15C124.66-48.62 125.65-46.8 126.22-44.85C126.75-43.03 126.91-41.11 126.68-39.23L126.62-38.8L118.77 12.38C118.26 15.73 116.56 18.79 113.96 21C111.47 23.11 108.33 24.3 105.12 24.34L23.51 24.34C19.77 24.34 16.19 22.86 13.57 20.22C11.01 17.68 9.53 14.25 9.44 10.66L9.43 10.27L9.43-29.54C9.43-33.28 10.91-36.85 13.56-39.5C16.11-42.05 19.53-43.52 23.12-43.62L23.51-43.62L38.81-43.62L60.85-93.21C61.26-94.12 62.14-94.74 63.13-94.8L63.32-94.81ZM65.03-89.31L43.27-40.35L43.27 18.94L104.77 18.94C106.62 18.97 108.43 18.39 109.94 17.3L110.21 17.09L110.47 16.88C111.98 15.59 113.01 13.84 113.38 11.9L113.43 11.57L121.28-39.62C121.47-40.86 121.39-42.13 121.04-43.34C120.69-44.54 120.07-45.67 119.25-46.62C118.43-47.56 117.41-48.32 116.26-48.84C115.23-49.3 114.12-49.55 112.96-49.59L112.58-49.59L80.38-49.59C78.95-49.59 77.77-50.71 77.69-52.12L77.68-52.29L77.68-75.04C77.68-78.86 76.17-82.51 73.48-85.2C71.34-87.34 68.6-88.73 65.66-89.22L65.27-89.28L65.03-89.31ZM37.87 18.94L37.87-38.22L23.51-38.22C21.21-38.22 19-37.31 17.38-35.68C15.82-34.12 14.91-32.04 14.84-29.85L14.83-29.54L14.83 10.27C14.83 12.57 15.74 14.77 17.38 16.4C18.93 17.96 21 18.86 23.2 18.93L23.51 18.94L37.87 18.94Z"/>
  </g>
  <g id="Thin-L" transform="matrix(1 0 0 1 788.935 1556)">
   <path d="M22.455 23.29C18.994 23.29 15.682 21.92 13.246 19.48C10.889 17.13 9.529 13.96 9.435 10.64L9.43 10.27L9.43-29.54C9.43-33 10.8-36.3 13.246-38.76C15.603-41.11 18.767-42.47 22.086-42.56L22.455-42.57L38.444-42.57L60.759-92.78C61.004-93.33 61.526-93.7 62.118-93.75L62.267-93.76C67.229-93.76 71.99-91.79 75.5-88.28C78.906-84.87 80.863-80.29 80.975-75.48L80.98-75.04L80.98-53.94L111.501-53.94C113.095-53.96 114.678-53.68 116.178-53.13L116.585-52.97L116.988-52.8C118.717-52.02 120.248-50.88 121.477-49.46C122.714-48.05 123.63-46.37 124.158-44.55C124.645-42.88 124.79-41.12 124.585-39.39L124.527-38.96L116.678 12.23C116.208 15.33 114.631 18.16 112.234 20.2C109.929 22.15 107.024 23.25 104.045 23.29L22.455 23.29ZM63.322-90.42L41.167-40.57L41.167 19.99L103.696 19.99C105.801 20.02 107.861 19.35 109.559 18.11L109.839 17.9L110.098 17.68C111.802 16.23 112.951 14.25 113.36 12.06L113.416 11.73L121.265-39.46C121.477-40.85 121.383-42.28 120.99-43.63C120.595-44.98 119.911-46.24 118.987-47.3C118.068-48.36 116.924-49.21 115.637-49.79C114.463-50.32 113.201-50.6 111.909-50.64L111.521-50.64L79.33-50.64C78.467-50.64 77.758-51.3 77.686-52.15L77.68-52.29L77.68-75.04C77.68-79.13 76.057-83.05 73.166-85.94C70.648-88.46 67.349-90.02 63.839-90.38L63.448-90.41L63.322-90.42ZM37.866 19.99L37.866-39.27L22.455-39.27C19.877-39.27 17.403-38.24 15.58-36.42C13.83-34.67 12.817-32.33 12.735-29.86L12.73-29.54L12.73 10.27C12.73 12.85 13.754 15.32 15.581 17.15C17.323 18.89 19.664 19.9 22.132 19.98L22.455 19.99L37.866 19.99Z"/>
  </g>
  <g id="Ultralight-L" transform="matrix(1 0 0 1 492.774 1556)">
   <path d="M21.905 22.74C18.589 22.74 15.418 21.43 13.085 19.09C10.828 16.84 9.525 13.81 9.435 10.63L9.43 10.27L9.43-29.54C9.43-32.85 10.743-36.02 13.085-38.37C15.342-40.62 18.373-41.92 21.551-42.01L21.905-42.02L38.252-42.02L60.712-92.56C60.871-92.91 61.206-93.16 61.588-93.2L61.717-93.21C66.533-93.21 71.154-91.29 74.561-87.89C77.864-84.58 79.763-80.14 79.875-75.48L79.88-75.04L79.879-53.39L111.374-53.39C112.745-53.36 114.104-53.1 115.397-52.63L115.826-52.47L116.211-52.3C117.868-51.55 119.335-50.46 120.513-49.1C121.697-47.75 122.574-46.13 123.08-44.4C123.546-42.8 123.685-41.11 123.489-39.46L123.433-39.04L115.585 12.15C115.134 15.12 113.624 17.83 111.329 19.78C109.124 21.65 106.348 22.7 103.495 22.74L21.905 22.74ZM62.424-90.99L40.066-40.68L40.066 20.54L103.491 20.54C105.597 20.5 107.644 19.8 109.347 18.54L109.643 18.32L109.905 18.1C111.708 16.57 112.924 14.46 113.354 12.15L113.41 11.81L121.259-39.37C121.483-40.85 121.383-42.36 120.968-43.78C120.551-45.21 119.828-46.54 118.852-47.66C117.881-48.78 116.673-49.68 115.311-50.29C114.06-50.85 112.716-51.15 111.345-51.19L110.971-51.19L78.78-51.19C78.213-51.19 77.746-51.62 77.686-52.17L77.68-52.29L77.68-75.04C77.68-79.28 75.999-83.34 73.005-86.33C70.3-89.04 66.726-90.67 62.94-90.96L62.534-90.99L62.424-90.99ZM37.866 20.54L37.866-39.82L21.905-39.82C19.182-39.82 16.568-38.74 14.641-36.81C12.792-34.96 11.722-32.48 11.636-29.88L11.63-29.54L11.63 10.27C11.63 13 12.712 15.61 14.641 17.53C16.482 19.38 18.957 20.45 21.564 20.54L21.905 20.54L37.866 20.54Z"/>
  </g>
  <g id="Black-M" transform="matrix(1 0 0 1 2872.52 1126)">
   <path d="M56.69-86.96C62.13-86.96 67.35-84.8 71.18-80.95C74.92-77.21 77.06-72.19 77.18-66.92L77.18-66.47L77.18-55.72L95.29-55.72C97.29-55.73 99.28-55.38 101.15-54.67L101.57-54.5L102-54.32C104.12-53.36 106.01-51.96 107.53-50.2C109.06-48.45 110.18-46.38 110.83-44.16C111.44-42.07 111.61-39.87 111.34-37.73L111.28-37.27L105.12 2.87C104.55 6.7 102.6 10.19 99.65 12.69C96.81 15.1 93.21 16.45 89.58 16.49L25.45 16.49C21.21 16.49 17.14 14.81 14.12 11.8C11.21 8.9 9.54 4.98 9.44 0.88L9.43 0.47L9.43-30.77C9.43-35.02 11.12-39.1 14.13-42.11C17.05-45.01 20.95-46.68 25.04-46.78L25.45-46.79L34.23-46.79L50.2-82.74C51.3-85.22 53.72-86.85 56.42-86.95L56.69-86.96ZM60.67-71.33L45.94-38.18L45.94 2.29L89.28 2.29C89.59 2.3 89.91 2.21 90.2 2.05L90.34 1.96L90.47 1.85C90.76 1.61 90.96 1.28 91.05 0.9L91.08 0.73L97.25-39.45C97.28-39.68 97.27-39.95 97.19-40.2C97.12-40.45 96.99-40.69 96.81-40.9C96.63-41.1 96.42-41.25 96.18-41.36C96-41.45 95.79-41.5 95.54-41.51L95.34-41.52L70.08-41.52C66.24-41.52 63.11-44.57 62.98-48.38L62.98-48.62L62.98-66.47C62.98-68.13 62.32-69.73 61.13-70.92L60.92-71.12L60.7-71.31L60.67-71.33ZM31.74 2.29L31.74-32.59L25.45-32.59C24.97-32.59 24.5-32.39 24.16-32.06C23.86-31.76 23.67-31.36 23.64-30.93L23.63-30.77L23.63 0.47C23.63 0.96 23.82 1.42 24.15 1.75C24.46 2.06 24.87 2.25 25.29 2.28L25.45 2.29L31.74 2.29Z"/>
  </g>
  <g id="Heavy-M" transform="matrix(1 0 0 1 2576.66 1126)">
   <path d="M24.6 15.64C20.59 15.64 16.73 14.05 13.87 11.2C11.12 8.45 9.54 4.75 9.44 0.87L9.43 0.47L9.43-30.77C9.43-34.8 11.03-38.66 13.88-41.51C16.64-44.25 20.33-45.83 24.2-45.93L24.6-45.94L33.93-45.94L50.13-82.4C51.1-84.58 53.22-86.01 55.59-86.1L55.84-86.11C61.06-86.11 66.06-84.04 69.73-80.35C73.31-76.77 75.36-71.96 75.48-66.92L75.48-66.47L75.48-54.87L94.44-54.87C96.33-54.88 98.2-54.55 99.96-53.89L100.4-53.71L100.8-53.54C102.81-52.64 104.6-51.31 106.04-49.64C107.48-47.98 108.55-46.03 109.16-43.92C109.74-41.94 109.9-39.86 109.65-37.84L109.59-37.4L103.43 2.74C102.89 6.37 101.05 9.67 98.25 12.04C95.56 14.32 92.16 15.6 88.71 15.64L24.6 15.64ZM59.46-72.62L44.24-38.36L44.24 3.14L88.41 3.14C88.9 3.15 89.39 3.01 89.82 2.75L90 2.64L90.17 2.5C90.6 2.14 90.9 1.64 91.03 1.08L91.07 0.86L97.23-39.31C97.29-39.68 97.27-40.06 97.16-40.44C97.05-40.8 96.86-41.15 96.6-41.45C96.34-41.75 96.03-41.98 95.68-42.14C95.39-42.27 95.08-42.34 94.71-42.36L94.49-42.37L69.23-42.37C65.85-42.37 63.1-45.04 62.98-48.39L62.98-48.62L62.98-66.47C62.98-68.36 62.23-70.17 60.88-71.52C60.55-71.86 60.18-72.16 59.79-72.42L59.46-72.62ZM31.74 3.14L31.74-33.44L24.6-33.44C23.89-33.44 23.21-33.16 22.71-32.66C22.26-32.21 21.98-31.6 21.94-30.96L21.93-30.77L21.93 0.47C21.93 1.18 22.21 1.86 22.7 2.35C23.16 2.81 23.77 3.09 24.41 3.13L24.6 3.14L31.74 3.14Z"/>
  </g>
  <g id="Bold-M" transform="matrix(1 0 0 1 2280.9 1126)">
   <path d="M23.66 14.7C19.88 14.7 16.27 13.2 13.59 10.53C11.02 7.95 9.53 4.49 9.44 0.86L9.43 0.47L9.43-30.77C9.43-34.53 10.92-38.14 13.6-40.84C16.19-43.41 19.64-44.89 23.27-44.99L23.66-44.99L33.6-44.99L50.05-82C50.87-83.85 52.66-85.06 54.66-85.15L54.89-85.15C59.85-85.15 64.6-83.18 68.11-79.68C71.51-76.28 73.46-71.7 73.57-66.91L73.58-66.47L73.58-53.92L93.5-53.92C95.26-53.93 97-53.62 98.65-53L99.06-52.84L99.46-52.67C101.33-51.82 103-50.59 104.37-49.02C105.73-47.46 106.73-45.63 107.3-43.66C107.84-41.81 107.99-39.87 107.76-37.98L107.7-37.55L101.54 2.6C101.03 6 99.31 9.09 96.7 11.3C94.19 13.44 91.02 14.64 87.77 14.7L23.66 14.7ZM31.74 4.1L31.74-34.39L23.66-34.39C22.69-34.39 21.77-34.01 21.1-33.34C20.47-32.71 20.09-31.87 20.04-30.99L20.03-30.77L20.03 0.47C20.03 1.43 20.41 2.36 21.09 3.03C21.72 3.66 22.55 4.04 23.44 4.09L23.66 4.1L31.74 4.1ZM58.05-73.91L42.34-38.56L42.34 4.1L87.43 4.1C88.16 4.11 88.86 3.9 89.46 3.5L89.66 3.36L89.83 3.23C90.44 2.71 90.86 2.01 91.02 1.22L91.06 1.01L97.22-39.17C97.3-39.67 97.27-40.2 97.12-40.7C96.98-41.2 96.72-41.67 96.38-42.06C96.03-42.46 95.6-42.78 95.12-43C94.7-43.18 94.26-43.29 93.78-43.32L93.54-43.32L68.28-43.32C65.43-43.32 63.1-45.58 62.98-48.4L62.98-48.62L62.98-66.47C62.98-68.61 62.13-70.67 60.61-72.18C59.98-72.81 59.26-73.33 58.47-73.72L58.13-73.88L58.05-73.91Z"/>
  </g>
  <g id="Semibold-M" transform="matrix(1 0 0 1 1984.84 1126)">
   <path d="M23 14.05C19.39 14.05 15.93 12.62 13.4 10.07C10.95 7.61 9.53 4.31 9.44 0.84L9.43 0.47L9.43-30.77C9.43-34.36 10.86-37.81 13.4-40.37C15.86-42.82 19.16-44.24 22.63-44.33L23-44.34L33.37-44.34L49.99-81.74C50.71-83.35 52.27-84.41 54.02-84.49L54.24-84.5C59.02-84.5 63.61-82.6 66.99-79.22C70.27-75.94 72.16-71.53 72.27-66.9L72.28-66.47L72.28-53.27L92.84-53.27C94.52-53.28 96.17-52.99 97.74-52.4L98.16-52.24L98.55-52.07C100.33-51.27 101.93-50.09 103.23-48.6C104.52-47.11 105.47-45.37 106.01-43.51C106.53-41.76 106.68-39.91 106.46-38.07L106.41-37.64L100.25 2.5C99.76 5.74 98.12 8.7 95.63 10.81C93.23 12.85 90.2 13.99 87.09 14.05L23 14.05ZM31.74 4.75L31.74-35.04L23-35.04C21.86-35.04 20.78-34.59 19.99-33.8C19.24-33.05 18.8-32.05 18.74-31.01L18.73-30.77L18.73 0.47C18.73 1.61 19.18 2.69 19.99 3.5C20.73 4.24 21.71 4.68 22.76 4.74L23 4.75L31.74 4.75ZM57.05-74.73L41.04-38.7L41.04 4.75L86.76 4.75C87.65 4.76 88.5 4.5 89.22 4.01L89.42 3.87L89.6 3.72C90.32 3.11 90.82 2.28 91.01 1.34L91.05 1.1L97.21-39.03C97.3-39.66 97.26-40.29 97.08-40.88C96.91-41.49 96.61-42.04 96.22-42.49C95.81-42.96 95.3-43.33 94.73-43.59C94.24-43.81 93.72-43.94 93.16-43.96L92.88-43.97L67.63-43.97C65.13-43.97 63.1-45.94 62.98-48.41L62.98-48.62L62.98-66.47C62.98-68.78 62.06-71 60.41-72.64C59.61-73.45 58.66-74.08 57.64-74.51L57.29-74.65L57.05-74.73Z"/>
  </g>
  <g id="Medium-M" transform="matrix(1 0 0 1 1688.63 1126)">
   <path d="M22.5 13.55C19.02 13.55 15.7 12.17 13.26 9.71C10.89 7.35 9.53 4.18 9.44 0.84L9.43 0.47L9.43-30.77C9.43-34.23 10.8-37.55 13.26-40.01C15.62-42.38 18.79-43.74 22.13-43.83L22.5-43.84L33.19-43.84L49.95-81.54C50.58-82.97 51.97-83.92 53.53-83.99L53.74-84C58.39-84 62.85-82.15 66.13-78.86C69.33-75.67 71.17-71.39 71.27-66.89L71.28-66.47L71.28-52.77L92.35-52.77C93.95-52.78 95.54-52.5 97.03-51.95L97.44-51.79L97.84-51.62C99.56-50.84 101.1-49.71 102.36-48.27C103.6-46.84 104.51-45.16 105.03-43.37C105.53-41.69 105.67-39.92 105.47-38.16L105.41-37.72L99.25 2.43C98.78 5.55 97.2 8.4 94.8 10.43C92.5 12.39 89.59 13.49 86.59 13.55L86.22 13.55L22.5 13.55ZM31.74 5.25L31.74-35.54L22.5-35.54C21.23-35.54 20.02-35.04 19.13-34.15C18.29-33.31 17.8-32.19 17.74-31.02L17.73-30.77L17.73 0.47C17.73 1.74 18.23 2.95 19.13 3.85C19.96 4.69 21.07 5.18 22.25 5.24L22.5 5.25L31.74 5.25ZM56.28-75.34L40.04-38.81L40.04 5.25L86.26 5.25C87.25 5.26 88.21 4.97 89.02 4.42L89.23 4.26L89.43 4.1C90.24 3.42 90.79 2.48 91 1.43L91.05 1.18L97.2-38.96C97.31-39.66 97.26-40.36 97.06-41.02C96.87-41.7 96.54-42.31 96.1-42.81C95.64-43.34 95.07-43.76 94.44-44.04C93.88-44.29 93.28-44.44 92.65-44.47L92.38-44.47L67.13-44.47C64.91-44.47 63.09-46.22 62.99-48.41L62.98-48.62L62.98-66.47C62.98-68.91 62-71.26 60.27-73C59.3-73.96 58.14-74.69 56.88-75.15L56.54-75.27L56.28-75.34Z"/>
  </g>
  <g id="Regular-M" transform="matrix(1 0 0 1 1392.57 1126)">
   <path d="M21.85 12.9C18.55 12.9 15.38 11.59 13.07 9.26C10.82 7.01 9.52 3.99 9.43 0.82L9.43 0.47L9.43-30.77C9.43-34.05 10.74-37.21 13.07-39.55C15.31-41.8 18.33-43.09 21.5-43.18L21.85-43.19L32.96-43.19L49.89-81.27C50.43-82.47 51.58-83.27 52.88-83.34L53.09-83.35C57.57-83.35 61.86-81.57 65.02-78.4C68.1-75.33 69.87-71.21 69.97-66.89L69.98-66.47L69.98-52.12L91.7-52.12C93.23-52.13 94.74-51.87 96.16-51.34L96.54-51.19L96.92-51.02C98.56-50.29 100.02-49.21 101.21-47.84C102.39-46.48 103.26-44.89 103.75-43.18C104.23-41.59 104.37-39.91 104.17-38.24L104.12-37.82L97.96 2.33C97.52 5.3 96.01 8 93.73 9.93C91.55 11.8 88.79 12.84 85.94 12.9L85.57 12.9L21.85 12.9ZM31.74 5.9L31.74-36.19L21.85-36.19C20.41-36.19 19.03-35.62 18.02-34.61C17.07-33.65 16.5-32.37 16.44-31.04L16.43-30.77L16.43 0.47C16.43 1.91 17 3.29 18.02 4.31C18.97 5.27 20.24 5.83 21.58 5.89L21.85 5.9L31.74 5.9ZM55.26-76.11L38.74-38.95L38.74 5.9L85.6 5.9C86.74 5.91 87.84 5.57 88.77 4.93L88.99 4.77L89.2 4.6C90.12 3.81 90.76 2.74 91 1.54L91.04 1.28L97.2-38.86C97.32-39.66 97.26-40.45 97.04-41.2C96.82-41.97 96.44-42.67 95.94-43.24C95.42-43.84 94.77-44.31 94.06-44.64C93.42-44.92 92.75-45.08 92.04-45.11L91.73-45.12L66.48-45.12C64.61-45.12 63.08-46.58 62.99-48.43L62.98-48.62L62.98-66.47C62.98-69.08 61.93-71.6 60.08-73.45C58.85-74.68 57.34-75.55 55.69-76L55.34-76.09L55.26-76.11Z"/>
  </g>
  <g id="Light-M" transform="matrix(1 0 0 1 1096.65 1126)">
   <path d="M21.05 12.1C17.96 12.1 15 10.87 12.83 8.69C10.74 6.6 9.53 3.78 9.44 0.83L9.43 0.47L9.43-30.77C9.43-33.84 10.65-36.8 12.83-38.99C14.92-41.08 17.74-42.29 20.69-42.38L21.05-42.39L32.69-42.39L49.82-80.95C50.23-81.86 51.11-82.47 52.1-82.54L52.29-82.55C56.56-82.55 60.64-80.85 63.66-77.84C66.58-74.92 68.27-70.99 68.37-66.88L68.38-66.47L68.38-51.32L90.91-51.32C92.31-51.33 93.71-51.09 95.02-50.61L95.41-50.46L95.8-50.29C97.33-49.6 98.69-48.59 99.81-47.32C100.91-46.05 101.72-44.55 102.19-42.95C102.63-41.48 102.76-39.92 102.58-38.36L102.53-37.94L96.37 2.21C95.95 4.99 94.54 7.52 92.41 9.32C90.37 11.07 87.8 12.04 85.13 12.1L84.77 12.1L21.05 12.1ZM31.74 6.7L31.74-36.99L21.05-36.99C19.4-36.99 17.81-36.33 16.66-35.18C15.56-34.07 14.91-32.6 14.84-31.06L14.83-30.77L14.83 0.47C14.83 2.12 15.49 3.71 16.66 4.88C17.75 5.98 19.21 6.62 20.76 6.69L21.05 6.7L31.74 6.7ZM53.98-77.01L37.14-39.11L37.14 6.7L84.79 6.7C86.12 6.71 87.4 6.31 88.47 5.56L88.7 5.39L88.91 5.21C89.98 4.3 90.71 3.06 90.98 1.68L91.03 1.4L97.19-38.75C97.32-39.65 97.26-40.56 97.01-41.43C96.75-42.3 96.32-43.1 95.74-43.77C95.14-44.45 94.41-45 93.58-45.37C92.85-45.7 92.06-45.88 91.24-45.91L90.93-45.92L65.68-45.92C64.25-45.92 63.07-47.04 62.99-48.45L62.98-48.62L62.98-66.47C62.98-69.29 61.85-72.01 59.84-74.02C58.41-75.45 56.61-76.44 54.67-76.88L54.3-76.96L53.98-77.01Z"/>
  </g>
  <g id="Thin-M" transform="matrix(1 0 0 1 800.99 1126)">
   <path d="M20.005 11.05C17.198 11.05 14.508 9.93 12.529 7.95C10.624 6.05 9.521 3.49 9.435 0.81L9.43 0.47L9.43-30.77C9.43-33.57 10.544-36.26 12.529-38.25C14.433-40.15 16.988-41.25 19.669-41.33L20.005-41.34L32.321-41.34L49.735-80.52C49.98-81.07 50.502-81.44 51.094-81.49L51.243-81.5C55.231-81.5 59.055-79.92 61.876-77.1C64.603-74.37 66.173-70.71 66.275-66.87L66.28-66.47L66.279-50.27L89.875-50.27C91.138-50.28 92.391-50.06 93.575-49.64L93.967-49.49L94.319-49.34C95.714-48.71 96.958-47.79 97.971-46.63C98.975-45.47 99.717-44.11 100.144-42.64C100.536-41.29 100.655-39.88 100.495-38.48L100.444-38.1L94.286 2.06C93.904 4.58 92.622 6.88 90.682 8.52C88.832 10.1 86.494 10.99 84.076 11.05L83.73 11.05L20.005 11.05ZM31.743 7.75L31.743-38.04L20.005-38.04C18.076-38.04 16.225-37.27 14.863-35.92C13.569-34.62 12.812-32.89 12.736-31.07L12.73-30.77L12.73 0.47C12.73 2.4 13.496 4.25 14.863 5.62C16.154 6.91 17.881 7.67 19.701 7.74L20.005 7.75L31.743 7.75ZM52.294-78.15L35.042-39.34L35.042 7.75L83.745 7.75C85.3 7.76 86.807 7.29 88.058 6.39L88.305 6.21L88.544 6.01C89.801 4.95 90.655 3.48 90.971 1.87L91.024 1.56L97.182-38.6C97.34-39.64 97.27-40.71 96.976-41.72C96.681-42.73 96.17-43.67 95.483-44.46C94.788-45.26 93.929-45.89 92.967-46.32C92.11-46.71 91.188-46.93 90.243-46.96L89.888-46.97L64.63-46.97C63.767-46.97 63.058-47.63 62.986-48.48L62.98-48.62L62.98-66.47C62.98-69.58 61.745-72.56 59.543-74.76C57.752-76.55 55.444-77.7 52.97-78.07L52.616-78.12L52.294-78.15Z"/>
  </g>
  <g id="Ultralight-M" transform="matrix(1 0 0 1 504.829 1126)">
   <path d="M50.693-80.95C54.535-80.95 58.219-79.42 60.937-76.71C63.564-74.08 65.077-70.55 65.175-66.85L65.18-66.47L65.179-49.72L89.33-49.72C90.517-49.73 91.695-49.53 92.81-49.13L93.179-48.99L93.543-48.83C94.866-48.24 96.047-47.36 97.005-46.27C97.958-45.17 98.661-43.88 99.066-42.49C99.435-41.22 99.548-39.89 99.402-38.58L99.35-38.18L93.193 1.98C92.83 4.37 91.615 6.55 89.775 8.11C88.025 9.6 85.815 10.44 83.524 10.5L83.18 10.5L19.455 10.5C16.794 10.5 14.244 9.44 12.367 7.56C10.565 5.76 9.519 3.34 9.436 0.8L9.43 0.47L9.43-30.77C9.43-33.42 10.486-35.97 12.367-37.86C14.17-39.66 16.586-40.7 19.123-40.78L19.455-40.79L32.128-40.79L49.688-80.3C49.847-80.65 50.182-80.9 50.564-80.94L50.693-80.95ZM31.743 8.3L31.743-38.59L19.455-38.59C17.38-38.59 15.39-37.77 13.923-36.3C12.528-34.9 11.714-33.04 11.636-31.08L11.63-30.77L11.63 0.47C11.63 2.55 12.454 4.54 13.923 6C15.316 7.4 17.181 8.22 19.144 8.29L19.455 8.3L31.743 8.3ZM51.398-78.73L33.942-39.45L33.942 8.3L83.19 8.3C84.861 8.32 86.483 7.8 87.827 6.84L88.092 6.64L88.35 6.43C89.707 5.28 90.627 3.7 90.964 1.95L91.018 1.64L97.175-38.51C97.346-39.64 97.27-40.79 96.954-41.87C96.637-42.96 96.087-43.97 95.346-44.82C94.599-45.68 93.676-46.36 92.642-46.83C91.721-47.24 90.73-47.47 89.718-47.51L89.338-47.52L64.08-47.52C63.513-47.52 63.046-47.95 62.986-48.5L62.98-48.62L62.98-66.47C62.98-69.73 61.687-72.85 59.381-75.15C57.333-77.2 54.636-78.45 51.773-78.7L51.398-78.73Z"/>
  </g>
  <g id="Black-S" transform="matrix(1 0 0 1 2881.99 696)">
   <path d="M48.03-77.432C52.7-77.432 57.18-75.579 60.49-72.266C63.68-69.064 65.52-64.762 65.62-60.255L65.63-59.832L65.63-52.932L78.26-52.931C80.01-52.952 81.74-52.646 83.39-52.025L83.81-51.863L84.22-51.688C86.08-50.847 87.74-49.61 89.04-48.1C90.4-46.549 91.4-44.722 91.94-42.81C92.49-40.978 92.64-39.06 92.42-37.147L92.36-36.706L87.53-5.23C87.03-1.858 85.31 1.215 82.73 3.402C80.24 5.526 77.09 6.712 73.89 6.768L73.51 6.77L23.53 6.768C19.79 6.768 16.2 5.282 13.55 2.633C11.01 0.08 9.53-3.349 9.44-6.946L9.43-7.332L9.43-31.832C9.43-35.569 10.92-39.152 13.55-41.796C16.11-44.354 19.54-45.828 23.14-45.926L23.53-45.932L29.41-45.933L41.54-73.215C42.64-75.697 45.06-77.324 47.76-77.427L48.03-77.432ZM26.93-7.432L26.93-31.732L23.63-31.732L23.63-7.432L26.93-7.432ZM51.38-60.391L41.13-37.326L41.13-7.432L73.5-7.432L78.3-38.732L58.53-38.732C54.77-38.732 51.69-41.654 51.45-45.35L51.43-45.593L51.43-45.832L51.43-59.832L51.42-60.056L51.4-60.278L51.38-60.391Z"/>
  </g>
  <g id="Heavy-S" transform="matrix(1 0 0 1 2586.13 696)">
   <path d="M47.18-76.582C51.63-76.582 55.89-74.819 59.04-71.666C62.07-68.622 63.82-64.532 63.92-60.247L63.93-59.832L63.93-52.082L77.42-52.082C79.04-52.101 80.65-51.821 82.18-51.253L82.6-51.09L83.02-50.914C84.76-50.123 86.33-48.961 87.55-47.541C88.83-46.084 89.76-44.368 90.28-42.568C90.79-40.859 90.94-39.068 90.73-37.281L90.67-36.835L85.84-5.356C85.37-2.188 83.76 0.699 81.33 2.755C78.99 4.748 76.04 5.862 73.04 5.918L72.66 5.919L22.68 5.918C19.16 5.918 15.79 4.521 13.31 2.032C10.91-0.364 9.53-3.582 9.44-6.956L9.43-7.332L9.43-31.832C9.43-35.344 10.83-38.711 13.31-41.196C15.7-43.597 18.92-44.981 22.3-45.077L22.68-45.082L29.12-45.082L41.47-72.87C42.44-75.05 44.56-76.481 46.93-76.577L47.18-76.582ZM26.93-6.582L26.93-32.582L22.68-32.582C22.48-32.582 22.29-32.504 22.15-32.368C22.04-32.252 21.96-32.105 21.94-31.95L21.93-31.832L21.93-7.332C21.93-7.135 22.01-6.941 22.15-6.798C22.26-6.688 22.41-6.616 22.56-6.591L22.68-6.582L26.93-6.582ZM50.52-62.462L39.43-37.507L39.43-6.582L72.73-6.581C72.84-6.58 72.94-6.602 73.04-6.647L73.14-6.699L73.23-6.767C73.34-6.859 73.42-6.978 73.46-7.119L73.48-7.229L78.31-38.706C78.33-38.83 78.32-38.93 78.28-39.059C78.26-39.154 78.21-39.238 78.12-39.343C78.06-39.41 77.97-39.476 77.89-39.512C77.8-39.552 77.72-39.574 77.59-39.58L57.68-39.582C54.3-39.582 51.55-42.257 51.43-45.603L51.43-45.832L51.43-59.832C51.43-60.628 51.2-61.405 50.79-62.071L50.65-62.289L50.52-62.462Z"/>
  </g>
  <g id="Bold-S" transform="matrix(1 0 0 1 2290.37 696)">
   <path d="M46.23-75.426C50.42-75.426 54.43-73.761 57.4-70.798C60.27-67.93 61.92-64.074 62.02-60.031L62.03-59.626L62.03-50.926L76.48-50.925C77.98-50.942 79.47-50.682 80.88-50.161L81.27-50.012L81.64-49.851C83.27-49.123 84.71-48.053 85.92-46.679C87.06-45.346 87.92-43.78 88.43-42.042C88.89-40.468 89.02-38.821 88.83-37.182L88.78-36.773L83.95-5.26C83.49-2.341 82.01 0.322 79.75 2.252C77.58 4.088 74.85 5.119 72.07 5.174L71.71 5.175L21.73 5.174C18.46 5.174 15.33 3.878 13.04 1.582C10.81-0.642 9.52-3.634 9.44-6.776L9.43-7.126L9.43-31.626C9.43-34.895 10.72-38.027 13.03-40.321C15.25-42.544 18.23-43.828 21.37-43.92L21.73-43.926L28.79-43.926L41.39-72.278C42.21-74.121 44-75.333 46-75.421L46.23-75.426ZM26.93-5.426L26.93-33.327L21.73-33.326C21.28-33.326 20.85-33.147 20.52-32.818C20.24-32.547 20.08-32.187 20.04-31.795L20.03-31.626L20.03-7.126C20.03-6.669 20.21-6.244 20.53-5.919C20.81-5.643 21.17-5.472 21.56-5.434L21.73-5.426L26.93-5.426ZM49.24-63.859L37.53-37.502L37.53-5.426L71.77-5.425C72.07-5.422 72.37-5.503 72.63-5.652L72.76-5.731L72.88-5.822C73.16-6.059 73.35-6.381 73.44-6.729L73.47-6.879L78.3-38.36C78.34-38.606 78.32-38.865 78.26-39.067C78.18-39.328 78.05-39.564 77.91-39.728C77.74-39.926 77.54-40.075 77.32-40.173C77.13-40.257 76.94-40.306 76.71-40.321L76.54-40.326L56.73-40.326C53.88-40.326 51.55-42.582 51.43-45.407L51.43-45.626L51.43-59.626C51.43-61.002 50.88-62.325 49.9-63.302C49.78-63.424 49.65-63.539 49.52-63.648L49.32-63.805L49.24-63.859Z"/>
  </g>
  <g id="Semibold-S" transform="matrix(1 0 0 1 1994.31 696)">
   <path d="M45.58-74.777C49.6-74.777 53.46-73.177 56.29-70.34C59.04-67.592 60.62-63.9 60.72-60.028L60.73-59.627L60.73-50.277L75.84-50.277C77.24-50.292 78.64-50.054 79.97-49.57L80.36-49.418L80.76-49.251C82.29-48.556 83.67-47.534 84.75-46.283C85.87-45.003 86.69-43.496 87.16-41.864C87.58-40.383 87.72-38.833 87.54-37.292L87.49-36.873L82.66-5.389C82.24-2.605 80.83-0.067 78.69 1.743C76.65 3.488 74.06 4.466 71.42 4.522L71.06 4.524L21.08 4.523C17.99 4.523 15.02 3.295 12.84 1.107C10.74-0.994 9.53-3.813 9.44-6.772L9.43-7.127L9.43-31.627C9.43-34.714 10.66-37.676 12.84-39.863C14.94-41.965 17.76-43.181 20.72-43.272L21.08-43.277L28.56-43.277L41.33-72.016C42.05-73.628 43.61-74.69 45.36-74.772L45.58-74.777ZM26.93-4.777L26.93-33.977L21.08-33.977C20.45-33.977 19.86-33.73 19.42-33.293C19.02-32.894 18.78-32.367 18.74-31.813L18.73-31.627L18.73-7.127C18.73-6.506 18.98-5.906 19.42-5.462C19.81-5.068 20.34-4.829 20.89-4.785L21.08-4.777L26.93-4.777ZM48.3-64.804L36.23-37.641L36.23-4.777L71.11-4.776C71.55-4.772 71.98-4.891 72.36-5.119L72.51-5.223L72.66-5.341C73.05-5.666 73.31-6.103 73.43-6.595L73.46-6.782L78.29-38.265C78.34-38.604 78.32-38.956 78.22-39.296C78.13-39.616 77.97-39.91 77.73-40.184C77.52-40.427 77.24-40.635 76.95-40.768C76.69-40.881 76.42-40.95 76.12-40.971L75.89-40.977L56.08-40.977C53.58-40.977 51.55-42.945 51.43-45.414L51.43-45.627L51.43-59.627C51.43-61.176 50.81-62.664 49.7-63.772C49.4-64.079 49.06-64.349 48.7-64.578L48.42-64.741L48.3-64.804Z"/>
  </g>
  <g id="Medium-S" transform="matrix(1 0 0 1 1698.1 696)">
   <path d="M45.08-74.277C48.97-74.277 52.7-72.73 55.43-69.987C58.09-67.329 59.63-63.759 59.72-60.015L59.73-59.627L59.73-49.777L75.34-49.777C76.69-49.792 78.02-49.563 79.29-49.101L79.67-48.955L80.05-48.796C81.52-48.13 82.84-47.152 83.87-45.954C84.94-44.729 85.73-43.287 86.18-41.726C86.59-40.308 86.71-38.824 86.54-37.35L86.49-36.948L81.66-5.463C81.27-2.799 79.91-0.37 77.86 1.363C75.91 3.032 73.43 3.969 70.91 4.022L70.56 4.024L20.58 4.023C17.62 4.023 14.78 2.848 12.69 0.754C10.69-1.258 9.52-3.956 9.44-6.787L9.43-7.127L9.43-31.627C9.43-34.581 10.61-37.417 12.69-39.51C14.7-41.522 17.4-42.686 20.24-42.772L20.58-42.777L28.38-42.777L41.29-71.813C41.92-73.246 43.31-74.192 44.87-74.272L45.08-74.277ZM26.93-4.277L26.93-34.477L20.58-34.477C19.82-34.477 19.1-34.178 18.57-33.646C18.08-33.158 17.79-32.512 17.74-31.832L17.73-31.627L17.73-7.127C17.73-6.373 18.03-5.646 18.57-5.108C19.05-4.625 19.69-4.334 20.37-4.285L20.58-4.277L26.93-4.277ZM47.55-65.474L35.23-37.747L35.23-4.277L70.61-4.276C71.16-4.271 71.69-4.423 72.16-4.715L72.33-4.831L72.49-4.96C72.96-5.359 73.28-5.898 73.42-6.503L73.46-6.706L78.29-38.191C78.35-38.601 78.32-39.026 78.2-39.434C78.09-39.825 77.89-40.184 77.61-40.51C77.35-40.81 77.01-41.06 76.65-41.225C76.33-41.367 75.99-41.451 75.62-41.472L75.39-41.477L55.58-41.477C53.36-41.477 51.54-43.224 51.44-45.42L51.43-45.627L51.43-59.627C51.43-61.308 50.76-62.924 49.56-64.125C49.08-64.601 48.54-64.995 47.94-65.295L47.64-65.437L47.55-65.474Z"/>
  </g>
  <g id="Regular-S" transform="matrix(1 0 0 1 1402.04 696)">
   <path d="M44.43-73.627C48.14-73.627 51.72-72.148 54.32-69.527C56.86-66.99 58.33-63.583 58.42-60.01L58.43-59.627L58.43-49.127L74.7-49.127C75.95-49.14 77.2-48.93 78.39-48.503L78.78-48.353L79.13-48.203C80.52-47.576 81.76-46.655 82.73-45.525C83.74-44.373 84.48-43.015 84.9-41.546C85.29-40.21 85.41-38.812 85.25-37.424L85.2-37.046L80.37-5.558C80-3.051 78.72-0.764 76.79 0.869C74.96 2.437 72.63 3.319 70.25 3.372L69.91 3.374L19.93 3.373C17.14 3.373 14.47 2.267 12.5 0.295C10.62-1.596 9.52-4.132 9.44-6.794L9.43-7.127L9.43-31.627C9.43-34.409 10.54-37.079 12.5-39.05C14.39-40.941 16.93-42.037 19.6-42.122L19.93-42.127L28.16-42.127L41.23-71.548C41.77-72.749 42.92-73.544 44.22-73.621L44.43-73.627ZM26.93-3.627L26.93-35.127L19.93-35.127C19-35.127 18.11-34.759 17.46-34.105C16.85-33.497 16.49-32.689 16.44-31.84L16.43-31.627L16.43-7.127C16.43-6.2 16.8-5.308 17.46-4.649C18.06-4.045 18.86-3.685 19.72-3.633L19.93-3.627L26.93-3.627ZM46.56-66.295L33.93-37.885L33.93-3.627L69.95-3.626C70.64-3.619 71.31-3.815 71.89-4.189L72.08-4.32L72.26-4.463C72.84-4.959 73.25-5.631 73.41-6.38L73.45-6.607L78.28-38.095C78.35-38.597 78.32-39.116 78.18-39.613C78.04-40.096 77.8-40.539 77.45-40.935C77.13-41.306 76.72-41.614 76.26-41.818C75.86-41.997 75.43-42.1 74.97-42.123L74.74-42.127L54.93-42.127C53.06-42.127 51.53-43.591 51.44-45.435L51.43-45.627L51.43-59.627C51.43-61.481 50.69-63.261 49.37-64.583C48.73-65.227 47.97-65.734 47.14-66.081L46.83-66.204L46.56-66.295Z"/>
  </g>
  <g id="Light-S" transform="matrix(1 0 0 1 1106.12 696)">
   <path d="M43.63-72.826C47.13-72.826 50.5-71.432 52.96-68.96C55.35-66.571 56.73-63.364 56.82-60.001L56.83-59.626L56.83-48.326L73.91-48.326C75.06-48.338 76.2-48.147 77.29-47.76L77.65-47.624L78-47.473C79.28-46.894 80.43-46.043 81.33-44.998C82.26-43.934 82.95-42.681 83.33-41.324C83.69-40.099 83.8-38.818 83.66-37.548L83.61-37.167L78.78-5.676C78.43-3.36 77.25-1.248 75.47 0.261C73.79 1.702 71.65 2.516 69.46 2.572L69.11 2.575L19.13 2.574C16.55 2.574 14.09 1.552 12.27-0.269C10.53-2.01 9.52-4.343 9.44-6.792L9.43-7.126L9.43-31.626C9.43-34.196 10.45-36.663 12.27-38.484C14.01-40.228 16.35-41.24 18.81-41.321L19.13-41.326L27.87-41.326L41.16-71.223C41.57-72.14 42.45-72.751 43.44-72.82L43.63-72.826ZM26.93-2.826L26.93-35.926L19.13-35.926C17.99-35.926 16.89-35.473 16.09-34.669C15.34-33.918 14.9-32.919 14.84-31.869L14.83-31.626L14.83-7.126C14.83-5.988 15.28-4.892 16.09-4.083C16.84-3.336 17.83-2.893 18.89-2.833L19.13-2.826L26.93-2.826ZM45.3-67.243L32.33-38.054L32.33-2.826L69.14-2.825C70.02-2.816 70.87-3.075 71.6-3.563L71.79-3.702L71.97-3.852C72.71-4.472 73.21-5.314 73.4-6.25L73.44-6.485L78.27-37.976C78.36-38.592 78.32-39.226 78.14-39.833C77.97-40.429 77.68-40.977 77.26-41.456C76.86-41.916 76.35-42.294 75.79-42.548C75.3-42.767 74.77-42.893 74.22-42.921L73.94-42.926L54.13-42.926C52.7-42.926 51.52-44.044 51.44-45.455L51.43-45.626L51.43-59.626C51.43-61.692 50.61-63.676 49.14-65.146C48.2-66.087 47.04-66.764 45.77-67.125L45.46-67.209L45.3-67.243Z"/>
  </g>
  <g id="Thin-S" transform="matrix(1 0 0 1 810.463 696)">
   <path d="M18.08 1.523C15.785 1.523 13.586 0.612 11.963-1.011C10.415-2.559 9.514-4.634 9.436-6.815L9.43-7.127L9.43-31.627C9.43-33.921 10.341-36.122 11.964-37.745C13.513-39.292 15.588-40.193 17.768-40.272L18.08-40.277L27.507-40.277L41.072-70.797C41.317-71.347 41.839-71.717 42.431-71.771L42.58-71.777C45.802-71.777 48.892-70.498 51.172-68.219C53.366-66.024 54.634-63.077 54.725-59.985L54.73-59.627L54.73-47.277L72.872-47.277C73.875-47.288 74.87-47.125 75.815-46.796L76.166-46.666L76.513-46.519C77.656-46.005 78.674-45.249 79.498-44.303C80.32-43.356 80.927-42.243 81.277-41.04C81.591-39.957 81.69-38.823 81.569-37.701L81.521-37.327L76.691-5.83C76.379-3.768 75.331-1.887 73.741-0.536C72.235 0.744 70.339 1.467 68.386 1.521L68.06 1.524L18.08 1.523ZM26.93-1.777L26.93-36.977L18.08-36.977C16.661-36.977 15.301-36.414 14.297-35.411C13.356-34.47 12.802-33.215 12.737-31.893L12.73-31.627L12.73-7.127C12.73-5.708 13.293-4.347 14.297-3.344C15.238-2.403 16.492-1.849 17.815-1.784L18.08-1.777L26.93-1.777ZM43.624-68.414L30.23-38.279L30.23-1.777L68.078-1.776C69.19-1.765 70.273-2.099 71.181-2.726L71.404-2.889L71.605-3.051C72.522-3.83 73.147-4.895 73.384-6.073L73.429-6.327L78.259-37.825C78.375-38.592 78.324-39.376 78.107-40.119C77.892-40.863 77.516-41.553 77.008-42.138C76.498-42.723 75.867-43.191 75.161-43.509C74.542-43.786 73.876-43.943 73.187-43.973L72.89-43.977L53.08-43.977C52.217-43.977 51.508-44.64 51.436-45.485L51.43-45.627L51.43-59.627C51.43-61.975 50.498-64.225 48.839-65.885C47.56-67.164 45.931-68.01 44.178-68.332L43.848-68.386L43.624-68.414Z"/>
  </g>
  <g id="Ultralight-S" transform="matrix(1 0 0 1 514.301 696)">
   <path d="M42.03-71.227C45.106-71.227 48.056-70.005 50.233-67.829C52.325-65.736 53.535-62.929 53.625-59.981L53.63-59.627L53.63-46.727L72.328-46.726C73.267-46.737 74.199-46.584 75.084-46.276L75.413-46.154L75.737-46.017C76.807-45.535 77.761-44.828 78.533-43.942C79.303-43.055 79.871-42.012 80.198-40.885C80.493-39.872 80.586-38.81 80.473-37.759L80.427-37.41L75.598-5.912C75.305-3.98 74.324-2.219 72.835-0.954C71.429 0.24 69.66 0.917 67.833 0.971L67.51 0.974L17.53 0.973C15.381 0.973 13.321 0.12 11.802-1.399C10.355-2.846 9.513-4.783 9.436-6.82L9.43-7.127L9.43-31.627C9.43-33.775 10.283-35.835 11.803-37.355C13.25-38.801 15.187-39.644 17.224-39.721L17.53-39.727L27.315-39.728L41.025-70.573C41.184-70.931 41.519-71.174 41.901-71.219L42.03-71.227ZM26.929-1.227L26.929-37.527L17.53-37.527C15.965-37.527 14.465-36.905 13.358-35.799C12.317-34.758 11.705-33.367 11.636-31.902L11.63-31.627L11.63-7.127C11.63-5.561 12.251-4.061 13.358-2.954C14.399-1.913 15.789-1.301 17.255-1.233L17.53-1.227L26.929-1.227ZM42.732-69L29.13-38.395L29.13-1.227L67.522-1.225C68.755-1.212 69.957-1.585 70.961-2.285L71.19-2.452L71.411-2.631C72.422-3.49 73.112-4.665 73.373-5.963L73.423-6.243L78.252-37.741C78.381-38.588 78.324-39.452 78.086-40.272C77.847-41.093 77.433-41.852 76.872-42.498C76.311-43.143 75.615-43.659 74.836-44.01C74.153-44.316 73.419-44.489 72.665-44.521L72.34-44.527L52.53-44.527C51.963-44.527 51.496-44.956 51.436-45.507L51.43-45.627L51.43-59.627C51.43-62.12 50.44-64.51 48.677-66.274C47.224-67.726 45.346-68.654 43.335-68.936L42.999-68.977L42.732-69Z"/>
  </g>
 </g>
</svg>
