<?xml version="1.0" encoding="UTF-8"?>
<!--Generator: Apple Native CoreSVG 175-->
<!DOCTYPE svg
PUBLIC "-//W3C//DTD SVG 1.1//EN"
       "http://www.w3.org/Graphics/SVG/1.1/DTD/svg11.dtd">
<svg version="1.1" xmlns="http://www.w3.org/2000/svg" xmlns:xlink="http://www.w3.org/1999/xlink" width="3300" height="2200">
 <!--glyph: "", point size: 100.0, font version: "17.0d12e1", template writer version: "65.1"-->
 <g id="Notes">
  <rect height="2200" id="artboard" style="fill:white;opacity:1" width="3300" x="0" y="0"/>
  <line style="fill:none;stroke:black;opacity:1;stroke-width:0.5;" x1="263" x2="3036" y1="292" y2="292"/>
  <text style="stroke:none;fill:black;font-family:sans-serif;font-size:13;font-weight:bold;" transform="matrix(1 0 0 1 263 322)">Weight/Scale Variations</text>
  <text style="stroke:none;fill:black;font-family:sans-serif;font-size:13;text-anchor:middle;" transform="matrix(1 0 0 1 559.711 322)">Ultralight</text>
  <text style="stroke:none;fill:black;font-family:sans-serif;font-size:13;text-anchor:middle;" transform="matrix(1 0 0 1 856.422 322)">Thin</text>
  <text style="stroke:none;fill:black;font-family:sans-serif;font-size:13;text-anchor:middle;" transform="matrix(1 0 0 1 1153.13 322)">Light</text>
  <text style="stroke:none;fill:black;font-family:sans-serif;font-size:13;text-anchor:middle;" transform="matrix(1 0 0 1 1449.84 322)">Regular</text>
  <text style="stroke:none;fill:black;font-family:sans-serif;font-size:13;text-anchor:middle;" transform="matrix(1 0 0 1 1746.56 322)">Medium</text>
  <text style="stroke:none;fill:black;font-family:sans-serif;font-size:13;text-anchor:middle;" transform="matrix(1 0 0 1 2043.27 322)">Semibold</text>
  <text style="stroke:none;fill:black;font-family:sans-serif;font-size:13;text-anchor:middle;" transform="matrix(1 0 0 1 2339.98 322)">Bold</text>
  <text style="stroke:none;fill:black;font-family:sans-serif;font-size:13;text-anchor:middle;" transform="matrix(1 0 0 1 2636.69 322)">Heavy</text>
  <text style="stroke:none;fill:black;font-family:sans-serif;font-size:13;text-anchor:middle;" transform="matrix(1 0 0 1 2933.4 322)">Black</text>
  <line style="fill:none;stroke:black;opacity:1;stroke-width:0.5;" x1="263" x2="3036" y1="1903" y2="1903"/>
  <g transform="matrix(1 0 0 1 263 1933)">
   <path d="M9.24805 0.830078Q10.8691 0.830078 12.2949 0.214844Q13.7207-0.400391 14.8096-1.49414Q15.8984-2.58789 16.5186-4.01367Q17.1387-5.43945 17.1387-7.05078Q17.1387-8.66211 16.5186-10.0879Q15.8984-11.5137 14.8047-12.6074Q13.7109-13.7012 12.2852-14.3164Q10.8594-14.9316 9.23828-14.9316Q7.62695-14.9316 6.20117-14.3164Q4.77539-13.7012 3.69141-12.6074Q2.60742-11.5137 1.9873-10.0879Q1.36719-8.66211 1.36719-7.05078Q1.36719-5.43945 1.9873-4.01367Q2.60742-2.58789 3.69629-1.49414Q4.78516-0.400391 6.21094 0.214844Q7.63672 0.830078 9.24805 0.830078ZM9.24805-0.654297Q7.91992-0.654297 6.7627-1.14746Q5.60547-1.64062 4.73145-2.51953Q3.85742-3.39844 3.36426-4.56055Q2.87109-5.72266 2.87109-7.05078Q2.87109-8.37891 3.35938-9.54102Q3.84766-10.7031 4.72168-11.582Q5.5957-12.4609 6.75293-12.9541Q7.91016-13.4473 9.23828-13.4473Q10.5762-13.4473 11.7334-12.9541Q12.8906-12.4609 13.7695-11.582Q14.6484-10.7031 15.1465-9.54102Q15.6445-8.37891 15.6445-7.05078Q15.6445-5.72266 15.1514-4.56055Q14.6582-3.39844 13.7842-2.51953Q12.9102-1.64062 11.748-1.14746Q10.5859-0.654297 9.24805-0.654297ZM5.6543-7.05078Q5.6543-6.72852 5.85938-6.52832Q6.06445-6.32812 6.40625-6.32812L8.51562-6.32812L8.51562-4.20898Q8.51562-3.88672 8.71094-3.67676Q8.90625-3.4668 9.23828-3.4668Q9.56055-3.4668 9.77051-3.67676Q9.98047-3.88672 9.98047-4.20898L9.98047-6.32812L12.0898-6.32812Q12.4219-6.32812 12.627-6.52832Q12.832-6.72852 12.832-7.05078Q12.832-7.38281 12.627-7.58789Q12.4219-7.79297 12.0898-7.79297L9.98047-7.79297L9.98047-9.90234Q9.98047-10.2344 9.77051-10.4443Q9.56055-10.6543 9.23828-10.6543Q8.90625-10.6543 8.71094-10.4443Q8.51562-10.2344 8.51562-9.90234L8.51562-7.79297L6.40625-7.79297Q6.06445-7.79297 5.85938-7.58789Q5.6543-7.38281 5.6543-7.05078Z"/>
  </g>
  <g transform="matrix(1 0 0 1 281.867 1933)">
   <path d="M11.709 2.91016Q13.75 2.91016 15.5518 2.12891Q17.3535 1.34766 18.7305-0.0292969Q20.1074-1.40625 20.8887-3.20801Q21.6699-5.00977 21.6699-7.05078Q21.6699-9.0918 20.8887-10.8936Q20.1074-12.6953 18.7305-14.0723Q17.3535-15.4492 15.5469-16.2305Q13.7402-17.0117 11.6992-17.0117Q9.6582-17.0117 7.85645-16.2305Q6.05469-15.4492 4.68262-14.0723Q3.31055-12.6953 2.5293-10.8936Q1.74805-9.0918 1.74805-7.05078Q1.74805-5.00977 2.5293-3.20801Q3.31055-1.40625 4.6875-0.0292969Q6.06445 1.34766 7.86621 2.12891Q9.66797 2.91016 11.709 2.91016ZM11.709 1.25Q9.98047 1.25 8.47656 0.605469Q6.97266-0.0390625 5.83496-1.17676Q4.69727-2.31445 4.05762-3.81836Q3.41797-5.32227 3.41797-7.05078Q3.41797-8.7793 4.05762-10.2832Q4.69727-11.7871 5.83008-12.9297Q6.96289-14.0723 8.4668-14.7119Q9.9707-15.3516 11.6992-15.3516Q13.4277-15.3516 14.9316-14.7119Q16.4355-14.0723 17.5781-12.9297Q18.7207-11.7871 19.3652-10.2832Q20.0098-8.7793 20.0098-7.05078Q20.0098-5.32227 19.3701-3.81836Q18.7305-2.31445 17.5928-1.17676Q16.4551-0.0390625 14.9463 0.605469Q13.4375 1.25 11.709 1.25ZM7.17773-7.05078Q7.17773-6.69922 7.41211-6.47461Q7.64648-6.25 8.01758-6.25L10.8887-6.25L10.8887-3.36914Q10.8887-2.99805 11.1133-2.76855Q11.3379-2.53906 11.6895-2.53906Q12.0605-2.53906 12.29-2.76855Q12.5195-2.99805 12.5195-3.36914L12.5195-6.25L15.4004-6.25Q15.7715-6.25 16.001-6.47461Q16.2305-6.69922 16.2305-7.05078Q16.2305-7.42188 16.001-7.65137Q15.7715-7.88086 15.4004-7.88086L12.5195-7.88086L12.5195-10.752Q12.5195-11.1328 12.29-11.3623Q12.0605-11.5918 11.6895-11.5918Q11.3379-11.5918 11.1133-11.3574Q10.8887-11.123 10.8887-10.752L10.8887-7.88086L8.01758-7.88086Q7.63672-7.88086 7.40723-7.65137Q7.17773-7.42188 7.17773-7.05078Z"/>
  </g>
  <g transform="matrix(1 0 0 1 305.646 1933)">
   <path d="M14.9707 5.66406Q17.0605 5.66406 18.96 5.01465Q20.8594 4.36523 22.4512 3.19336Q24.043 2.02148 25.2197 0.429688Q26.3965-1.16211 27.0459-3.06641Q27.6953-4.9707 27.6953-7.05078Q27.6953-9.14062 27.0459-11.04Q26.3965-12.9395 25.2197-14.5312Q24.043-16.123 22.4512-17.2998Q20.8594-18.4766 18.9551-19.126Q17.0508-19.7754 14.9609-19.7754Q12.8711-19.7754 10.9717-19.126Q9.07227-18.4766 7.48535-17.2998Q5.89844-16.123 4.72168-14.5312Q3.54492-12.9395 2.90039-11.04Q2.25586-9.14062 2.25586-7.05078Q2.25586-4.9707 2.90527-3.06641Q3.55469-1.16211 4.72656 0.429688Q5.89844 2.02148 7.49023 3.19336Q9.08203 4.36523 10.9814 5.01465Q12.8809 5.66406 14.9707 5.66406ZM14.9707 3.84766Q13.1641 3.84766 11.5283 3.2959Q9.89258 2.74414 8.53516 1.74805Q7.17773 0.751953 6.17676-0.610352Q5.17578-1.97266 4.62891-3.6084Q4.08203-5.24414 4.08203-7.05078Q4.08203-8.86719 4.62891-10.5029Q5.17578-12.1387 6.17188-13.501Q7.16797-14.8633 8.52539-15.8594Q9.88281-16.8555 11.5186-17.4023Q13.1543-17.9492 14.9609-17.9492Q16.7773-17.9492 18.4131-17.4023Q20.0488-16.8555 21.4111-15.8594Q22.7734-14.8633 23.7695-13.501Q24.7656-12.1387 25.3174-10.5029Q25.8691-8.86719 25.8691-7.05078Q25.8789-5.24414 25.332-3.6084Q24.7852-1.97266 23.7842-0.610352Q22.7832 0.751953 21.4209 1.74805Q20.0586 2.74414 18.4229 3.2959Q16.7871 3.84766 14.9707 3.84766ZM9.19922-7.05078Q9.19922-6.66992 9.45801-6.4209Q9.7168-6.17188 10.1172-6.17188L14.0625-6.17188L14.0625-2.2168Q14.0625-1.81641 14.3115-1.55762Q14.5605-1.29883 14.9512-1.29883Q15.3516-1.29883 15.6104-1.55273Q15.8691-1.80664 15.8691-2.2168L15.8691-6.17188L19.8242-6.17188Q20.2246-6.17188 20.4785-6.4209Q20.7324-6.66992 20.7324-7.05078Q20.7324-7.46094 20.4785-7.71484Q20.2246-7.96875 19.8242-7.96875L15.8691-7.96875L15.8691-11.9141Q15.8691-12.3242 15.6104-12.583Q15.3516-12.8418 14.9512-12.8418Q14.5605-12.8418 14.3115-12.583Q14.0625-12.3242 14.0625-11.9141L14.0625-7.96875L10.1172-7.96875Q9.70703-7.96875 9.45312-7.71484Q9.19922-7.46094 9.19922-7.05078Z"/>
  </g>
  <text style="stroke:none;fill:black;font-family:sans-serif;font-size:13;font-weight:bold;" transform="matrix(1 0 0 1 263 1953)">Design Variations</text>
  <text style="stroke:none;fill:black;font-family:sans-serif;font-size:13;" transform="matrix(1 0 0 1 263 1971)">Symbols are supported in up to nine weights and three scales.</text>
  <text style="stroke:none;fill:black;font-family:sans-serif;font-size:13;" transform="matrix(1 0 0 1 263 1989)">For optimal layout with text and other symbols, vertically align</text>
  <text style="stroke:none;fill:black;font-family:sans-serif;font-size:13;" transform="matrix(1 0 0 1 263 2007)">symbols with the adjacent text.</text>
  <line style="fill:none;stroke:#00AEEF;stroke-width:0.5;opacity:1.0;" x1="776" x2="776" y1="1919" y2="1933"/>
  <g transform="matrix(1 0 0 1 776 1933)">
   <path d="M3.31055 0.15625Q3.70117 0.15625 3.91602-0.00976562Q4.13086-0.175781 4.26758-0.585938L5.52734-4.0332L11.2891-4.0332L12.5488-0.585938Q12.6855-0.175781 12.9004-0.00976562Q13.1152 0.15625 13.4961 0.15625Q13.8867 0.15625 14.1162-0.0585938Q14.3457-0.273438 14.3457-0.644531Q14.3457-0.869141 14.2383-1.17188L9.6582-13.3691Q9.48242-13.8184 9.17969-14.043Q8.87695-14.2676 8.4082-14.2676Q7.5-14.2676 7.17773-13.3789L2.59766-1.16211Q2.49023-0.859375 2.49023-0.634766Q2.49023-0.263672 2.70996-0.0537109Q2.92969 0.15625 3.31055 0.15625ZM6.00586-5.51758L8.37891-12.0898L8.42773-12.0898L10.8008-5.51758Z"/>
  </g>
  <line style="fill:none;stroke:#00AEEF;stroke-width:0.5;opacity:1.0;" x1="793.197" x2="793.197" y1="1919" y2="1933"/>
  <text style="stroke:none;fill:black;font-family:sans-serif;font-size:13;font-weight:bold;" transform="matrix(1 0 0 1 776 1953)">Margins</text>
  <text style="stroke:none;fill:black;font-family:sans-serif;font-size:13;" transform="matrix(1 0 0 1 776 1971)">Leading and trailing margins on the left and right side of each symbol</text>
  <text style="stroke:none;fill:black;font-family:sans-serif;font-size:13;" transform="matrix(1 0 0 1 776 1989)">can be adjusted by modifying the x-location of the margin guidelines.</text>
  <text style="stroke:none;fill:black;font-family:sans-serif;font-size:13;" transform="matrix(1 0 0 1 776 2007)">Modifications are automatically applied proportionally to all</text>
  <text style="stroke:none;fill:black;font-family:sans-serif;font-size:13;" transform="matrix(1 0 0 1 776 2025)">scales and weights.</text>
  <g transform="matrix(1 0 0 1 1289 1933)">
   <path d="M2.8418 1.86523L4.54102 3.57422Q5.18555 4.22852 5.90332 4.17969Q6.62109 4.13086 7.31445 3.35938L18.0078-8.42773L17.041-9.4043L6.42578 2.27539Q6.16211 2.57812 5.89355 2.61719Q5.625 2.65625 5.27344 2.30469L4.10156 1.14258Q3.75 0.791016 3.79395 0.522461Q3.83789 0.253906 4.14062-0.0195312L15.6152-10.8203L14.6387-11.7871L3.04688-0.898438Q2.30469-0.214844 2.25098 0.498047Q2.19727 1.21094 2.8418 1.86523ZM9.25781-16.3281Q8.94531-16.0254 8.90625-15.6348Q8.86719-15.2441 9.04297-14.9512Q9.21875-14.6777 9.55566-14.541Q9.89258-14.4043 10.3809-14.5215Q11.4746-14.7754 12.5977-14.7314Q13.7207-14.6875 14.7949-13.9844L14.209-12.5293Q13.9551-11.9043 14.0674-11.4404Q14.1797-10.9766 14.5801-10.5664L16.875-8.25195Q17.2363-7.88086 17.5781-7.82227Q17.9199-7.76367 18.3398-7.8418L19.4043-8.03711L20.0684-7.36328L20.0293-6.80664Q20-6.43555 20.1221-6.12305Q20.2441-5.81055 20.6055-5.44922L21.3672-4.70703Q21.7285-4.3457 22.1533-4.33105Q22.5781-4.31641 22.9297-4.66797L25.8398-7.58789Q26.1914-7.93945 26.1816-8.35449Q26.1719-8.76953 25.8105-9.13086L25.0391-9.89258Q24.6875-10.2539 24.3799-10.3857Q24.0723-10.5176 23.7109-10.4883L23.1348-10.4395L22.4902-11.0742L22.7344-12.1973Q22.832-12.6172 22.6953-12.9834Q22.5586-13.3496 22.1191-13.7891L19.9219-15.9766Q18.6719-17.2168 17.2607-17.8369Q15.8496-18.457 14.4189-18.4814Q12.9883-18.5059 11.665-17.959Q10.3418-17.4121 9.25781-16.3281ZM10.752-15.957Q11.6602-16.6211 12.7002-16.9043Q13.7402-17.1875 14.8047-17.085Q15.8691-16.9824 16.8701-16.5137Q17.8711-16.0449 18.7012-15.2051L21.1328-12.793Q21.3086-12.6172 21.3525-12.4512Q21.3965-12.2852 21.3379-12.0312L21.0156-10.5469L22.5195-9.0625L23.5059-9.12109Q23.6914-9.13086 23.7891-9.09668Q23.8867-9.0625 24.0332-8.91602L24.6094-8.33984L22.168-5.89844L21.5918-6.47461Q21.4453-6.62109 21.4062-6.71875Q21.3672-6.81641 21.377-7.01172L21.4453-7.98828L19.9512-9.47266L18.4277-9.21875Q18.1836-9.16992 18.042-9.2041Q17.9004-9.23828 17.7148-9.41406L15.7129-11.416Q15.5176-11.5918 15.4932-11.7529Q15.4688-11.9141 15.5859-12.1875L16.4648-14.2773Q15.293-15.3711 13.8281-15.791Q12.3633-16.2109 10.8398-15.7617Q10.7227-15.7324 10.6885-15.8057Q10.6543-15.8789 10.752-15.957Z"/>
  </g>
  <text style="stroke:none;fill:black;font-family:sans-serif;font-size:13;font-weight:bold;" transform="matrix(1 0 0 1 1289 1953)">Exporting</text>
  <text style="stroke:none;fill:black;font-family:sans-serif;font-size:13;" transform="matrix(1 0 0 1 1289 1971)">Symbols should be outlined when exporting to ensure the</text>
  <text style="stroke:none;fill:black;font-family:sans-serif;font-size:13;" transform="matrix(1 0 0 1 1289 1989)">design is preserved when submitting to Xcode.</text>
  <text id="template-version" style="stroke:none;fill:black;font-family:sans-serif;font-size:13;text-anchor:end;" transform="matrix(1 0 0 1 3036 1933)">Template v.3.0</text>
  <text style="stroke:none;fill:black;font-family:sans-serif;font-size:13;text-anchor:end;" transform="matrix(1 0 0 1 3036 1951)">Requires Xcode 13 or greater</text>
  <text id="descriptive-name" style="stroke:none;fill:black;font-family:sans-serif;font-size:13;text-anchor:end;" transform="matrix(1 0 0 1 3036 1969)">Generated from rotate-ccw</text>
  <text style="stroke:none;fill:black;font-family:sans-serif;font-size:13;text-anchor:end;" transform="matrix(1 0 0 1 3036 1987)">Typeset at 100 points</text>
  <text style="stroke:none;fill:black;font-family:sans-serif;font-size:13;" transform="matrix(1 0 0 1 263 726)">Small</text>
  <text style="stroke:none;fill:black;font-family:sans-serif;font-size:13;" transform="matrix(1 0 0 1 263 1156)">Medium</text>
  <text style="stroke:none;fill:black;font-family:sans-serif;font-size:13;" transform="matrix(1 0 0 1 263 1586)">Large</text>
 </g>
 <g id="Guides">
  <g id="H-reference" style="fill:#27AAE1;stroke:none;" transform="matrix(1 0 0 1 339 696)">
   <path d="M0.976562 0L3.66211 0L29.3457-67.1387L30.0293-67.1387L30.0293-70.459L28.125-70.459ZM11.6699-24.4629L46.9727-24.4629L46.2402-26.709L12.4512-26.709ZM55.127 0L57.7637 0L30.6152-70.459L29.4434-70.459L29.4434-67.1387Z"/>
  </g>
  <line id="Baseline-S" style="fill:none;stroke:#27AAE1;opacity:1;stroke-width:0.5;" x1="263" x2="3036" y1="696" y2="696"/>
  <line id="Capline-S" style="fill:none;stroke:#27AAE1;opacity:1;stroke-width:0.5;" x1="263" x2="3036" y1="625.541" y2="625.541"/>
  <g id="H-reference" style="fill:#27AAE1;stroke:none;" transform="matrix(1 0 0 1 339 1126)">
   <path d="M0.976562 0L3.66211 0L29.3457-67.1387L30.0293-67.1387L30.0293-70.459L28.125-70.459ZM11.6699-24.4629L46.9727-24.4629L46.2402-26.709L12.4512-26.709ZM55.127 0L57.7637 0L30.6152-70.459L29.4434-70.459L29.4434-67.1387Z"/>
  </g>
  <line id="Baseline-M" style="fill:none;stroke:#27AAE1;opacity:1;stroke-width:0.5;" x1="263" x2="3036" y1="1126" y2="1126"/>
  <line id="Capline-M" style="fill:none;stroke:#27AAE1;opacity:1;stroke-width:0.5;" x1="263" x2="3036" y1="1055.54" y2="1055.54"/>
  <g id="H-reference" style="fill:#27AAE1;stroke:none;" transform="matrix(1 0 0 1 339 1556)">
   <path d="M0.976562 0L3.66211 0L29.3457-67.1387L30.0293-67.1387L30.0293-70.459L28.125-70.459ZM11.6699-24.4629L46.9727-24.4629L46.2402-26.709L12.4512-26.709ZM55.127 0L57.7637 0L30.6152-70.459L29.4434-70.459L29.4434-67.1387Z"/>
  </g>
  <line id="Baseline-L" style="fill:none;stroke:#27AAE1;opacity:1;stroke-width:0.5;" x1="263" x2="3036" y1="1556" y2="1556"/>
  <line id="Capline-L" style="fill:none;stroke:#27AAE1;opacity:1;stroke-width:0.5;" x1="263" x2="3036" y1="1485.54" y2="1485.54"/>
  <line id="left-margin-Regular-M" style="fill:none;stroke:#00AEEF;stroke-width:0.5;opacity:1.0;" x1="1393.83" x2="1393.83" y1="1030.78" y2="1150.12"/>
  <line id="right-margin-Regular-M" style="fill:none;stroke:#00AEEF;stroke-width:0.5;opacity:1.0;" x1="1505.86" x2="1505.86" y1="1030.78" y2="1150.12"/>
 </g>
 <g id="Symbols">
  <g id="Black-L" transform="matrix(1 0 0 1 2861.54 1556)">
   <path d="M11.3211-90.2246C15.2411-90.2246 18.4211-87.0446 18.4211-83.1246L18.4211-56.0946L45.4411-56.0946C49.3611-56.0946 52.5411-52.9246 52.5411-48.9946C52.5411-45.0746 49.3611-41.8946 45.4411-41.8946L11.3211-41.8946C7.40108-41.8946 4.22108-45.0746 4.22108-48.9946L4.22108-83.1246C4.22108-87.0446 7.40108-90.2246 11.3211-90.2246ZM65.7511-95.2846C78.2711-97.0546 91.0111-94.6946 102.071-88.5846C113.131-82.4646 121.901-72.9246 127.071-61.3946C132.231-49.8546 133.511-36.9546 130.711-24.6346C127.901-12.3146 121.171-1.23455 111.521 6.92544C101.881 15.0854 89.8411 19.8954 77.2211 20.6254C64.6111 21.3454 52.0911 17.9554 41.5711 10.9554C31.0611 3.94544 23.1011-6.28456 18.9011-18.2046C17.5911-21.9046 19.5411-25.9546 23.2311-27.2546C26.9311-28.5646 30.9911-26.6146 32.2911-22.9246C35.4711-13.9046 41.4911-6.16456 49.4411-0.874552C57.4011 4.42544 66.8611 6.99544 76.4111 6.44544C85.9511 5.89544 95.0511 2.25544 102.351-3.91456C109.651-10.0846 114.741-18.4646 116.861-27.7846C118.981-37.1046 118.021-46.8646 114.111-55.5846C110.201-64.3146 103.571-71.5346 95.2011-76.1546C86.8411-80.7746 77.2011-82.5646 67.7311-81.2246C58.2611-79.8946 49.4911-75.5246 42.7211-68.7746C42.6711-68.7246 42.6211-68.6746 42.5711-68.6246L16.1811-43.8246C13.3211-41.1346 8.83108-41.2746 6.14108-44.1346C3.46108-46.9946 3.60108-51.4846 6.46108-54.1746L32.7711-78.8946C41.7011-87.7846 53.2711-93.5346 65.7511-95.2846Z"/>
  </g>
  <g id="Heavy-L" transform="matrix(1 0 0 1 2565.68 1556)">
   <path d="M10.4731-89.3344C13.9231-89.3344 16.7231-86.5344 16.7231-83.0844L16.7231-55.2044L44.5931-55.2044C48.0431-55.2044 50.8431-52.4144 50.8431-48.9544C50.8431-45.5044 48.0431-42.7044 44.5931-42.7044L10.4731-42.7044C7.01307-42.7044 4.22307-45.5044 4.22307-48.9544L4.22307-83.0844C4.22307-86.5344 7.01307-89.3344 10.4731-89.3344ZM65.0231-94.4044C77.3531-96.1444 89.9131-93.8244 100.813-87.7944C111.713-81.7744 120.353-72.3744 125.443-61.0044C130.533-49.6444 131.793-36.9244 129.033-24.7844C126.263-12.6444 119.633-1.72444 110.123 6.31556C100.623 14.3556 88.7531 19.0956 76.3231 19.8156C63.8931 20.5256 51.5631 17.1856 41.1931 10.2856C30.8331 3.38556 22.9831-6.69444 18.8531-18.4444C17.7031-21.7044 19.4131-25.2644 22.6631-26.4144C25.9231-27.5644 29.4931-25.8544 30.6431-22.5944C33.8731-13.4044 40.0131-5.52444 48.1231-0.124442C56.2331 5.27556 65.8831 7.89556 75.6031 7.33556C85.3331 6.77556 94.6131 3.06556 102.053-3.22444C109.483-9.52444 114.683-18.0644 116.843-27.5544C119.003-37.0544 118.013-47.0044 114.033-55.8944C110.053-64.7844 103.293-72.1444 94.7631-76.8544C86.2331-81.5744 76.4131-83.3844 66.7631-82.0344C57.1131-80.6744 48.1731-76.2144 41.2731-69.3344C41.2331-69.2844 41.1831-69.2444 41.1431-69.2044L14.7531-44.4044C12.2331-42.0444 8.27307-42.1644 5.91307-44.6744C3.55307-47.1944 3.67307-51.1544 6.19307-53.5144L32.5131-78.2444C41.3131-87.0044 52.7231-92.6744 65.0231-94.4044Z"/>
  </g>
  <g id="Bold-L" transform="matrix(1 0 0 1 2269.92 1556)">
   <path d="M9.52-88.344C12.45-88.344 14.82-85.974 14.82-83.044L14.82-54.214L43.65-54.214C46.57-54.214 48.95-51.844 48.95-48.914C48.95-45.994 46.57-43.614 43.65-43.614L9.52-43.614C6.6-43.614 4.22-45.994 4.22-48.914L4.22-83.044C4.22-85.974 6.6-88.344 9.52-88.344ZM64.21-93.424C76.33-95.134 88.69-92.854 99.41-86.924C110.12-81.004 118.63-71.754 123.63-60.574C128.64-49.394 129.87-36.894 127.16-24.954C124.44-13.014 117.91-2.28392 108.57 5.63608C99.22 13.546 87.55 18.196 75.32 18.906C63.1 19.606 50.97 16.316 40.78 9.53604C30.58 2.74608 22.87-7.16392 18.8-18.724C17.83-21.484 19.28-24.504 22.04-25.484C24.8-26.454 27.82-25.004 28.8-22.244C32.1-12.854 38.37-4.80392 46.65 0.706075C54.93 6.22608 64.78 8.89604 74.71 8.32608C84.65 7.74608 94.12 3.96608 101.72-2.46392C109.31-8.88392 114.61-17.604 116.82-27.304C119.03-37.004 118.02-47.164 113.96-56.244C109.89-65.324 102.98-72.834 94.28-77.654C85.57-82.464 75.54-84.314 65.68-82.934C55.83-81.544 46.7-76.994 39.66-69.964C39.62-69.924 39.58-69.894 39.54-69.854L13.15-45.054C11.02-43.054 7.66-43.154 5.66-45.284C3.66-47.424 3.76-50.774 5.89-52.784L32.23-77.524C40.89-86.144 52.11-91.724 64.21-93.424Z"/>
  </g>
  <g id="Semibold-L" transform="matrix(1 0 0 1 1973.86 1556)">
   <path d="M8.87342-87.6684C11.4434-87.6684 13.5234-85.5884 13.5234-83.0184L13.5234-53.5384L42.9934-53.5384C45.5634-53.5384 47.6434-51.4584 47.6434-48.8884C47.6434-46.3284 45.5634-44.2384 42.9934-44.2384L8.87342-44.2384C6.30342-44.2384 4.22342-46.3284 4.22342-48.8884L4.22342-83.0184C4.22342-85.5884 6.30342-87.6684 8.87342-87.6684ZM63.6434-92.7584C75.6334-94.4484 87.8434-92.1884 98.4434-86.3284C109.033-80.4784 117.443-71.3384 122.383-60.2884C127.333-49.2384 128.553-36.8784 125.873-25.0784C123.183-13.2684 116.733-2.65846 107.493 5.16154C98.2534 12.9816 86.7234 17.5816 74.6334 18.2816C62.5434 18.9716 50.5634 15.7216 40.4834 9.02157C30.4034 2.31154 22.7834-7.48846 18.7634-18.9084C17.9034-21.3284 19.1834-23.9884 21.6034-24.8384C24.0234-25.6984 26.6834-24.4184 27.5334-21.9984C30.8834-12.4884 37.2434-4.31846 45.6434 1.27154C54.0334 6.86154 64.0234 9.57157 74.1034 8.99157C84.1734 8.41154 93.7834 4.58154 101.483-1.93845C109.193-8.45846 114.563-17.2984 116.803-27.1384C119.043-36.9784 118.023-47.2784 113.903-56.4884C109.773-65.6884 102.773-73.3084 93.9434-78.1884C85.1134-83.0784 74.9334-84.9584 64.9434-83.5484C54.9534-82.1384 45.6834-77.5284 38.5434-70.3984C38.5134-70.3684 38.4834-70.3384 38.4434-70.2984L12.0534-45.5084C10.1834-43.7484 7.24342-43.8384 5.48342-45.7084C3.72342-47.5784 3.81342-50.5184 5.68342-52.2784L32.0234-77.0284C40.5834-85.5584 51.6834-91.0784 63.6434-92.7584Z"/>
  </g>
  <g id="Medium-L" transform="matrix(1 0 0 1 1677.65 1556)">
   <path d="M8.37227-87.1528C10.6623-87.1528 12.5223-85.2928 12.5223-83.0028L12.5223-53.0228L42.4923-53.0228C44.7823-53.0228 46.6423-51.1728 46.6423-48.8728C46.6423-46.5828 44.7823-44.7228 42.4923-44.7228L8.37227-44.7228C6.08227-44.7228 4.22227-46.5828 4.22227-48.8728L4.22227-83.0028C4.22227-85.2928 6.08227-87.1528 8.37227-87.1528ZM63.2123-92.2428C75.0923-93.9228 87.1923-91.6828 97.6923-85.8828C108.192-80.0728 116.522-71.0128 121.432-60.0628C126.332-49.1128 127.542-36.8728 124.882-25.1728C122.222-13.4728 115.832-2.9528 106.672 4.7972C97.5123 12.5472 86.0823 17.1072 74.1023 17.7972C62.1223 18.4872 50.2523 15.2672 40.2623 8.6172C30.2723 1.9672 22.7223-7.7428 18.7323-19.0628C17.9723-21.2228 19.1023-23.5928 21.2623-24.3528C23.4323-25.1128 25.8023-23.9828 26.5623-21.8228C29.9523-12.2028 36.3723-3.9428 44.8623 1.7072C53.3523 7.3572 63.4423 10.0972 73.6223 9.5072C83.8123 8.9272 93.5223 5.0472 101.312-1.54281C109.092-8.1328 114.522-17.0728 116.792-27.0128C119.052-36.9528 118.022-47.3628 113.852-56.6728C109.682-65.9828 102.602-73.6828 93.6823-78.6128C84.7523-83.5528 74.4723-85.4528 64.3723-84.0228C54.2723-82.6028 44.9123-77.9428 37.6923-70.7328C37.6623-70.7128 37.6323-70.6828 37.6023-70.6528L11.2123-45.8528C9.54227-44.2828 6.91227-44.3628 5.34227-46.0328C3.77227-47.7028 3.86227-50.3328 5.53227-51.9028L31.8723-76.6528C40.3623-85.1028 51.3523-90.5828 63.2123-92.2428Z"/>
  </g>
  <g id="Regular-L" transform="matrix(1 0 0 1 1381.58 1556)">
   <path d="M7.72416-86.4652C9.6542-86.4652 11.2242-84.8952 11.2242-82.9652L11.2242-52.3352L41.8442-52.3352C43.7842-52.3352 45.3442-50.7752 45.3442-48.8352C45.3442-46.9052 43.7842-45.3352 41.8442-45.3352L7.72416-45.3352C5.78416-45.3352 4.22416-46.9052 4.22416-48.8352L4.22416-82.9652C4.22416-84.8952 5.78416-86.4652 7.72416-86.4652ZM62.6542-91.5652C74.3942-93.2152 86.3542-91.0052 96.7342-85.2752C107.114-79.5352 115.344-70.5852 120.184-59.7652C125.034-48.9452 126.234-36.8352 123.604-25.2752C120.974-13.7152 114.654-3.3253 105.604 4.3347C96.5542 11.9948 85.2542 16.5048 73.4142 17.1848C61.5842 17.8648 49.8442 14.6848 39.9742 8.1147C30.1042 1.5447 22.6342-8.0553 18.6942-19.2352C18.0542-21.0652 19.0142-23.0652 20.8342-23.7052C22.6542-24.3452 24.6542-23.3852 25.2942-21.5652C28.7342-11.8152 35.2442-3.4453 43.8542 2.2847C52.4542 8.0147 62.6942 10.7948 73.0142 10.1948C83.3342 9.60475 93.1842 5.6747 101.084-1.0053C108.974-7.6853 114.484-16.7452 116.774-26.8252C119.064-36.9152 118.024-47.4652 113.794-56.9052C109.574-66.3352 102.394-74.1452 93.3442-79.1452C84.3042-84.1452 73.8742-86.0752 63.6342-84.6352C53.3942-83.1952 43.9042-78.4652 36.5842-71.1552C36.5642-71.1352 36.5342-71.1152 36.5042-71.0852L10.1142-46.2852C8.71416-44.9652 6.49416-45.0352 5.17416-46.4452C3.84416-47.8552 3.91416-50.0652 5.32416-51.3852L31.6742-76.1552C40.0642-84.5052 50.9342-89.9152 62.6542-91.5652Z"/>
  </g>
  <g id="Light-L" transform="matrix(1 0 0 1 1085.67 1556)">
   <path d="M6.92253-85.6372C8.41253-85.6372 9.62253-84.4272 9.62253-82.9372L9.62253-51.5072L41.0425-51.5072C42.5325-51.5072 43.7425-50.3072 43.7425-48.8072C43.7425-47.3172 42.5325-46.1072 41.0425-46.1072L6.92253-46.1072C5.43253-46.1072 4.22253-47.3172 4.22253-48.8072L4.22253-82.9372C4.22253-84.4272 5.43253-85.6372 6.92253-85.6372ZM61.9625-90.7472C73.5325-92.3772 85.3225-90.1972 95.5425-84.5472C105.773-78.8872 113.883-70.0672 118.653-59.4072C123.433-48.7472 124.613-36.8172 122.023-25.4272C119.423-14.0372 113.203-3.79722 104.283 3.75278C95.3625 11.3028 84.2325 15.7428 72.5725 16.4128C60.9025 17.0828 49.3425 13.9528 39.6125 7.47278C29.8925 1.00278 22.5325-8.45722 18.6525-19.4772C18.1525-20.8872 18.8925-22.4272 20.3025-22.9172C21.7025-23.4172 23.2425-22.6772 23.7425-21.2672C27.2325-11.3572 33.8525-2.84722 42.6025 2.98278C51.3625 8.80278 61.7625 11.6328 72.2625 11.0228C82.7525 10.4228 92.7725 6.42278 100.793-0.367224C108.823-7.15722 114.423-16.3772 116.753-26.6272C119.083-36.8772 118.023-47.6072 113.723-57.1972C109.433-66.7972 102.133-74.7272 92.9325-79.8172C83.7325-84.9072 73.1325-86.8672 62.7225-85.3972C52.3125-83.9372 42.6525-79.1272 35.2125-71.6972C35.2025-71.6772 35.1825-71.6572 35.1625-71.6372L8.77253-46.8472C7.68253-45.8272 5.97253-45.8772 4.95253-46.9672C3.93253-48.0472 3.98253-49.7572 5.07253-50.7772L31.4325-75.5472C39.6925-83.7872 50.4125-89.1172 61.9625-90.7472Z"/>
  </g>
  <g id="Thin-L" transform="matrix(1 0 0 1 790.012 1556)">
   <path d="M5.87032-84.5344C6.78132-84.5344 7.52032-83.7944 7.52032-82.8844L7.52032-50.4044L39.9953-50.4044C40.9063-50.4044 41.6453-49.6744 41.6453-48.7544C41.6453-47.8444 40.9063-47.1044 39.9953-47.1044L5.87032-47.1044C4.95832-47.1044 4.22032-47.8444 4.22032-48.7544L4.22032-82.8844C4.22032-83.7944 4.95832-84.5344 5.87032-84.5344ZM61.0633-89.6544C72.4063-91.2444 83.9623-89.1144 93.9873-83.5744C104.013-78.0344 111.966-69.3844 116.647-58.9244C121.329-48.4744 122.486-36.7744 119.944-25.6044C117.402-14.4344 111.299-4.39448 102.554 3.00552C93.8093 10.4056 82.8973 14.7656 71.4603 15.4156C60.0233 16.0756 48.6833 13.0056 39.1473 6.65552C29.6113 0.305524 22.3963-8.96448 18.5893-19.7744C18.2863-20.6344 18.7373-21.5744 19.5973-21.8744C20.4563-22.1844 21.3993-21.7244 21.7013-20.8744C25.2703-10.7445 32.0353-2.04447 40.9753 3.90552C49.9163 9.85556 60.5483 12.7456 71.2703 12.1256C81.9933 11.5056 92.2243 7.42552 100.423 0.485524C108.621-6.45448 114.343-15.8644 116.727-26.3344C119.11-36.8144 118.025-47.7744 113.635-57.5744C109.246-67.3744 101.79-75.4844 92.3913-80.6844C82.9913-85.8844 72.1583-87.8844 61.5223-86.3844C50.8873-84.8844 41.0263-79.9744 33.4253-72.3844C33.4143-72.3744 33.4023-72.3644 33.3893-72.3544L6.99932-47.5544C6.33532-46.9344 5.29132-46.9644 4.66732-47.6244C4.04332-48.2944 4.07632-49.3344 4.74032-49.9644L31.1123-74.7444C39.2163-82.8244 49.7273-88.0544 61.0633-89.6544Z"/>
  </g>
  <g id="Ultralight-L" transform="matrix(1 0 0 1 493.85 1556)">
   <path d="M5.32-83.9688C5.928-83.9688 6.42-83.4788 6.42-82.8688L6.42-49.8388L39.445-49.8388C40.053-49.8388 40.545-49.3488 40.545-48.7388C40.545-48.1388 40.053-47.6388 39.445-47.6388L5.32-47.6388C4.713-47.6388 4.22-48.1388 4.22-48.7388L4.22-82.8688C4.22-83.4788 4.713-83.9688 5.32-83.9688ZM60.59-89.0888C71.816-90.6688 83.251-88.5588 93.172-83.0788C103.093-77.5888 110.963-69.0288 115.596-58.6888C120.229-48.3388 121.374-36.7688 118.859-25.7088C116.343-14.6588 110.304-4.71884 101.65 2.60116C92.996 9.92118 82.197 14.2312 70.879 14.8912C59.562 15.5412 48.339 12.4912 38.902 6.21116C29.465-0.0688369 22.326-9.24884 18.559-19.9388C18.357-20.5088 18.658-21.1388 19.231-21.3388C19.803-21.5488 20.432-21.2388 20.634-20.6688C24.242-10.4288 31.081-1.63883 40.121 4.38116C49.161 10.4012 59.911 13.3112 70.753 12.6912C81.594 12.0612 91.939 7.93116 100.229 0.921163C108.519-6.08884 114.304-15.6088 116.714-26.1988C119.123-36.7888 118.026-47.8788 113.588-57.7888C109.15-67.6988 101.611-75.8988 92.107-81.1488C82.604-86.3988 71.65-88.4288 60.897-86.9088C50.143-85.3988 40.173-80.4388 32.488-72.7588C32.48-72.7588 32.472-72.7488 32.464-72.7388L6.074-47.9388C5.631-47.5288 4.935-47.5488 4.519-47.9888C4.103-48.4288 4.124-49.1288 4.567-49.5488L30.945-74.3288C38.966-82.3288 49.37-87.5088 60.59-89.0888Z"/>
  </g>
  <g id="Black-M" transform="matrix(1 0 0 1 2873.79 1126)">
   <path d="M11.3222-79.9658C15.2422-79.9658 18.4222-76.7858 18.4222-72.8658L18.4222-53.1858L38.0922-53.1858C42.0122-53.1858 45.1922-50.0158 45.1922-46.0858C45.1922-42.1658 42.0122-38.9858 38.0922-38.9858L11.3222-38.9858C7.40218-38.9858 4.22218-42.1658 4.22218-46.0858L4.22218-72.8658C4.22218-76.7858 7.40218-79.9658 11.3222-79.9658ZM53.8122-83.9258C63.9622-85.3558 74.3022-83.4458 83.2622-78.4858C92.2322-73.5258 99.3522-65.7958 103.532-56.4358C107.722-47.0858 108.762-36.6258 106.482-26.6358C104.212-16.6458 98.7522-7.66586 90.9322-1.04586C83.1022 5.57414 73.3422 9.47417 63.1122 10.0642C52.8822 10.6542 42.7422 7.89414 34.2122 2.22414C25.6822-3.45586 19.2322-11.7558 15.8222-21.4158C14.5222-25.1158 16.4622-29.1758 20.1622-30.4758C23.8622-31.7758 27.9122-29.8358 29.2122-26.1358C31.6022-19.3758 36.1122-13.5758 42.0822-9.59586C48.0522-5.62586 55.1422-3.70586 62.3022-4.11586C69.4522-4.52586 76.2822-7.25586 81.7522-11.8858C87.2322-16.5158 91.0522-22.7958 92.6422-29.7858C94.2322-36.7758 93.5022-44.0958 90.5722-50.6358C87.6422-57.1758 82.6722-62.5958 76.3922-66.0558C70.1222-69.5258 62.8922-70.8658 55.7922-69.8658C48.6922-68.8658 42.1122-65.5858 37.0422-60.5258C36.9922-60.4758 36.9422-60.4258 36.8822-60.3758L16.1822-40.9158C13.3222-38.2358 8.83218-38.3658 6.14218-41.2258C3.46218-44.0858 3.60218-48.5758 6.45218-51.2658L27.0922-70.6458C34.3322-77.8458 43.7022-82.5058 53.8122-83.9258Z"/>
  </g>
  <g id="Heavy-M" transform="matrix(1 0 0 1 2577.93 1126)">
   <path d="M10.4731-79.0778C13.9231-79.0778 16.7231-76.2778 16.7231-72.8278L16.7231-52.2978L37.2431-52.2978C40.6931-52.2978 43.4931-49.5078 43.4931-46.0478C43.4931-42.5978 40.6931-39.7978 37.2431-39.7978L10.4731-39.7978C7.02307-39.7978 4.22307-42.5978 4.22307-46.0478L4.22307-72.8278C4.22307-76.2778 7.02307-79.0778 10.4731-79.0778ZM53.0831-83.0478C63.0531-84.4478 73.2031-82.5678 82.0031-77.7078C90.8131-72.8378 97.8031-65.2378 101.913-56.0578C106.023-46.8678 107.043-36.5978 104.803-26.7878C102.573-16.9778 97.2131-8.15774 89.5331-1.65774C81.8531 4.84226 72.2631 8.67226 62.2231 9.25223C52.1731 9.83223 42.2131 7.12226 33.8331 1.55226C25.4531-4.02774 19.1231-12.1678 15.7731-21.6578C14.6331-24.9178 16.3431-28.4878 19.5931-29.6378C22.8531-30.7778 26.4231-29.0678 27.5631-25.8178C30.0131-18.8778 34.6431-12.9278 40.7631-8.85774C46.8831-4.77774 54.1631-2.80774 61.5031-3.22774C68.8431-3.64774 75.8431-6.44774 81.4531-11.1978C87.0731-15.9478 90.9831-22.3878 92.6231-29.5578C94.2531-36.7278 93.5031-44.2378 90.5031-50.9478C87.4931-57.6578 82.3931-63.2078 75.9631-66.7678C69.5231-70.3178 62.1031-71.6878 54.8231-70.6678C47.5431-69.6378 40.7931-66.2778 35.5931-61.0878C35.5431-61.0378 35.5031-60.9978 35.4531-60.9578L14.7531-41.4978C12.2331-39.1378 8.28307-39.2578 5.91307-41.7678C3.55307-44.2878 3.67307-48.2478 6.19307-50.6078L26.8331-69.9978C33.9431-77.0678 43.1531-81.6478 53.0831-83.0478Z"/>
  </g>
  <g id="Bold-M" transform="matrix(1 0 0 1 2282.17 1126)">
   <path d="M9.52012-78.0872C12.4401-78.0872 14.8201-75.7172 14.8201-72.7872L14.8201-51.3072L36.2901-51.3072C39.2201-51.3072 41.5901-48.9372 41.5901-46.0072C41.5901-43.0872 39.2201-40.7072 36.2901-40.7072L9.52012-40.7072C6.59012-40.7072 4.22012-43.0872 4.22012-46.0072L4.22012-72.7872C4.22012-75.7172 6.59012-78.0872 9.52012-78.0872ZM52.2601-82.0672C62.0301-83.4372 71.9701-81.5972 80.5901-76.8372C89.2201-72.0672 96.0601-64.6172 100.09-55.6272C104.12-46.6272 105.12-36.5672 102.93-26.9572C100.74-17.3472 95.4901-8.70722 87.9701-2.33722C80.4401 4.02278 71.0501 7.77278 61.2101 8.34278C51.3701 8.91278 41.6101 6.26278 33.4101 0.802778C25.2001-4.65722 18.9901-12.6372 15.7201-21.9372C14.7501-24.6972 16.2001-27.7272 18.9601-28.6972C21.7201-29.6672 24.7401-28.2172 25.7201-25.4572C28.2301-18.3272 32.9901-12.2072 39.2801-8.02722C45.5701-3.83722 53.0601-1.80722 60.6001-2.23722C68.1501-2.67722 75.3501-5.54722 81.1201-10.4272C86.8901-15.3172 90.9201-21.9372 92.5901-29.3072C94.2701-36.6772 93.5101-44.3972 90.4201-51.2972C87.3301-58.1872 82.0801-63.8972 75.4701-67.5572C68.8501-71.2172 61.2301-72.6172 53.7401-71.5672C46.2601-70.5172 39.3201-67.0572 33.9701-61.7172C33.9301-61.6772 33.8901-61.6472 33.8501-61.6072L13.1501-42.1472C11.0101-40.1472 7.66012-40.2472 5.66012-42.3872C3.65012-44.5172 3.76012-47.8672 5.89012-49.8772L26.5401-69.2772C33.5101-76.2072 42.5301-80.6972 52.2601-82.0672Z"/>
  </g>
  <g id="Semibold-M" transform="matrix(1 0 0 1 1986.1 1126)">
   <path d="M8.87-77.4192C11.44-77.4192 13.52-75.3392 13.52-72.7692L13.52-50.6392L35.65-50.6392C38.22-50.6392 40.3-48.5592 40.3-45.9892C40.3-43.4292 38.22-41.3392 35.65-41.3392L8.87-41.3392C6.3-41.3392 4.22-43.4292 4.22-45.9892L4.22-72.7692C4.22-75.3392 6.3-77.4192 8.87-77.4192ZM51.71-81.3992C61.33-82.7592 71.13-80.9492 79.63-76.2492C88.14-71.5492 94.88-64.2092 98.85-55.3392C102.82-46.4692 103.81-36.5592 101.65-27.0792C99.49-17.6092 94.32-9.08918 86.9-2.81918C79.48 3.46082 70.23 7.15082 60.53 7.71082C50.83 8.27082 41.21 5.66082 33.12 0.280816C25.04-5.10918 18.92-12.9692 15.69-22.1392C14.83-24.5592 16.11-27.2092 18.53-28.0692C20.95-28.9192 23.61-27.6492 24.46-25.2292C27.02-17.9592 31.87-11.7292 38.28-7.46918C44.69-3.19918 52.31-1.12919 59.99-1.56919C67.68-2.01918 75.02-4.93918 80.89-9.91918C86.77-14.8892 90.87-21.6392 92.58-29.1492C94.29-36.6492 93.51-44.5092 90.37-51.5392C87.22-58.5692 81.87-64.3792 75.14-68.1092C68.4-71.8292 60.63-73.2692 53.01-72.1892C45.38-71.1192 38.31-67.5992 32.86-62.1592C32.83-62.1292 32.8-62.0892 32.76-62.0592L12.06-42.6092C10.19-40.8492 7.24-40.9392 5.48-42.8092C3.73-44.6792 3.82-47.6192 5.69-49.3792L26.34-68.7892C33.21-75.6292 42.11-80.0492 51.71-81.3992Z"/>
  </g>
  <g id="Medium-M" transform="matrix(1 0 0 1 1689.89 1126)">
   <path d="M8.37-76.8942C10.66-76.8942 12.52-75.0342 12.52-72.7442L12.52-50.1142L35.15-50.1142C37.44-50.1142 39.3-48.2642 39.3-45.9642C39.3-43.6742 37.44-41.8142 35.15-41.8142L8.37-41.8142C6.08-41.8142 4.22-43.6742 4.22-45.9642L4.22-72.7442C4.22-75.0342 6.08-76.8942 8.37-76.8942ZM51.28-80.8842C60.79-82.2242 70.48-80.4342 78.89-75.7842C87.3-71.1342 93.97-63.8842 97.9-55.1142C101.82-46.3442 102.79-36.5342 100.66-27.1642C98.53-17.8042 93.41-9.38412 86.08-3.17412C78.74 3.03588 69.59 6.68588 60 7.23588C50.41 7.78588 40.9 5.20588 32.9-0.114118C24.9-5.43412 18.85-13.2142 15.66-22.2742C14.9-24.4342 16.03-26.8042 18.19-27.5742C20.36-28.3342 22.73-27.1942 23.49-25.0342C26.08-17.6742 31-11.3542 37.5-7.02412C44-2.69412 51.73-0.604118 59.52-1.04412C67.32-1.49412 74.76-4.46412 80.72-9.51412C86.68-14.5542 90.84-21.3942 92.57-29.0142C94.3-36.6242 93.51-44.5942 90.32-51.7242C87.13-58.8442 81.71-64.7442 74.88-68.5142C68.04-72.2942 60.17-73.7542 52.44-72.6642C44.7-71.5742 37.54-68.0042 32.01-62.4842C31.98-62.4542 31.95-62.4242 31.92-62.4042L11.21-42.9442C9.54-41.3742 6.92-41.4542 5.35-43.1242C3.78-44.7942 3.86-47.4242 5.53-48.9942L26.19-68.4042C32.99-75.1642 41.79-79.5442 51.28-80.8842Z"/>
  </g>
  <g id="Regular-M" transform="matrix(1 0 0 1 1393.83 1126)">
   <path d="M7.72-76.2162C9.66-76.2162 11.22-74.6462 11.22-72.7162L11.22-49.4362L34.5-49.4362C36.43-49.4362 38-47.8762 38-45.9362C38-44.0062 36.43-42.4362 34.5-42.4362L7.72-42.4362C5.79-42.4362 4.22-44.0062 4.22-45.9362L4.22-72.7162C4.22-74.6462 5.79-76.2162 7.72-76.2162ZM50.72-80.2062C60.09-81.5262 69.64-79.7662 77.93-75.1862C86.21-70.6062 92.78-63.4562 96.65-54.8162C100.52-46.1762 101.48-36.5162 99.38-27.2862C97.28-18.0562 92.23-9.75624 85.01-3.64624C77.78 2.47376 68.76 6.07376 59.31 6.61376C49.86 7.16376 40.49 4.61376 32.61-0.626242C24.73-5.87624 18.77-13.5362 15.62-22.4662C14.98-24.2862 15.94-26.2862 17.76-26.9262C19.58-27.5762 21.58-26.6162 22.22-24.7862C24.87-17.2962 29.87-10.8562 36.49-6.45624C43.11-2.04624 50.97 0.0837584 58.91-0.376242C66.85-0.826241 74.42-3.85624 80.49-8.98624C86.55-14.1162 90.79-21.0862 92.55-28.8362C94.32-36.5862 93.51-44.7062 90.26-51.9562C87.02-59.2162 81.5-65.2162 74.54-69.0562C67.58-72.9062 59.57-74.3862 51.7-73.2762C43.82-72.1762 36.53-68.5362 30.9-62.9162C30.88-62.8962 30.85-62.8662 30.83-62.8462L10.12-43.3862C8.71-42.0662 6.5-42.1362 5.17-43.5462C3.85-44.9562 3.92-47.1662 5.33-48.4862L25.99-67.9162C32.69-74.5762 41.36-78.8962 50.72-80.2062Z"/>
  </g>
  <g id="Light-M" transform="matrix(1 0 0 1 1097.92 1126)">
   <path d="M6.92-75.3882C8.41-75.3882 9.62-74.1782 9.62-72.6882L9.62-48.6082L33.7-48.6082C35.19-48.6082 36.4-47.4082 36.4-45.9082C36.4-44.4182 35.19-43.2082 33.7-43.2082L6.92-43.2082C5.43-43.2082 4.22-44.4182 4.22-45.9082L4.22-72.6882C4.22-74.1782 5.43-75.3882 6.92-75.3882ZM50.03-79.3882C59.23-80.6882 68.61-78.9582 76.74-74.4582C84.87-69.9582 91.33-62.9482 95.12-54.4682C98.92-45.9782 99.86-36.4982 97.8-27.4382C95.74-18.3782 90.78-10.2282 83.69-4.22816C76.6 1.78184 67.74 5.31184 58.47 5.84184C49.19 6.38184 39.99 3.88184 32.25-1.26816C24.52-6.41816 18.66-13.9382 15.58-22.6982C15.08-24.1082 15.82-25.6482 17.23-26.1482C18.63-26.6382 20.17-25.9082 20.67-24.4982C23.37-16.8382 28.48-10.2582 35.25-5.75816C42.01-1.25816 50.05 0.92184 58.16 0.45184C66.26-0.0081603 74-3.09816 80.2-8.34816C86.4-13.5982 90.73-20.7182 92.53-28.6382C94.33-36.5482 93.51-44.8482 90.19-52.2582C86.88-59.6682 81.24-65.7982 74.13-69.7282C67.02-73.6582 58.83-75.1782 50.78-74.0382C42.74-72.9082 35.28-69.1982 29.54-63.4582C29.52-63.4382 29.5-63.4182 29.48-63.3982L8.77-43.9482C7.68-42.9282 5.98-42.9782 4.95-44.0682C3.93-45.1482 3.99-46.8582 5.07-47.8782L25.75-67.3082C32.32-73.8582 40.84-78.0982 50.03-79.3882Z"/>
  </g>
  <g id="Thin-M" transform="matrix(1 0 0 1 802.26 1126)">
   <path d="M5.87032-74.2974C6.78132-74.2974 7.52032-73.5574 7.52032-72.6474L7.52032-47.5174L32.6453-47.5174C33.5563-47.5174 34.2953-46.7874 34.2953-45.8674C34.2953-44.9574 33.5563-44.2174 32.6453-44.2174L5.87032-44.2174C4.95832-44.2174 4.22032-44.9574 4.22032-45.8674L4.22032-72.6474C4.22032-73.5574 4.95832-74.2974 5.87032-74.2974ZM49.1253-78.3074C58.1023-79.5774 67.2463-77.8874 75.1803-73.4974C83.1143-69.1074 89.4073-62.2674 93.1123-53.9974C96.8173-45.7174 97.7333-36.4674 95.7213-27.6274C93.7103-18.7874 88.8803-10.8374 81.9603-4.98744C75.0393 0.872558 66.4043 4.32256 57.3533 4.84256C48.3033 5.36256 39.3293 2.92256 31.7823-2.09744C24.2363-7.11744 18.5273-14.4574 15.5143-23.0074C15.2123-23.8674 15.6633-24.8174 16.5223-25.1174C17.3823-25.4174 18.3243-24.9674 18.6273-24.1074C21.4013-16.2274 26.6603-9.46744 33.6113-4.84744C40.5623-0.217444 48.8283 2.02256 57.1643 1.54256C65.5003 1.06256 73.4543-2.10744 79.8283-7.50744C86.2023-12.8974 90.6513-20.2174 92.5033-28.3574C94.3563-36.4974 93.5133-45.0274 90.1003-52.6474C86.6883-60.2674 80.8913-66.5674 73.5833-70.6074C66.2763-74.6474 57.8543-76.2074 49.5853-75.0374C41.3173-73.8774 33.6513-70.0574 27.7413-64.1574C27.7303-64.1474 27.7183-64.1374 27.7063-64.1274L7.00032-44.6674C6.33532-44.0474 5.29132-44.0774 4.66732-44.7374C4.04332-45.4074 4.07632-46.4474 4.74032-47.0774L25.4283-66.5174C31.8413-72.9074 40.1573-77.0474 49.1253-78.3074Z"/>
  </g>
  <g id="Ultralight-M" transform="matrix(1 0 0 1 506.099 1126)">
   <path d="M5.321-73.7102C5.928-73.7102 6.421-73.2202 6.421-72.6102L6.421-46.9302L32.095-46.9302C32.703-46.9302 33.195-46.4402 33.195-45.8302C33.195-45.2302 32.703-44.7302 32.095-44.7302L5.321-44.7302C4.713-44.7302 4.22-45.2302 4.22-45.8302L4.22-72.6102C4.22-73.2202 4.713-73.7102 5.321-73.7102ZM48.653-77.7302C57.512-78.9702 66.535-77.3102 74.365-72.9802C82.194-68.6502 88.405-61.9002 92.061-53.7302C95.717-45.5702 96.621-36.4302 94.636-27.7102C92.651-18.9902 87.884-11.1502 81.055-5.37014C74.226 0.409862 65.704 3.80986 56.773 4.32986C47.841 4.83986 38.985 2.43986 31.538-2.52014C24.091-7.48014 18.457-14.7202 15.484-23.1602C15.282-23.7302 15.583-24.3602 16.156-24.5602C16.729-24.7602 17.357-24.4602 17.559-23.8902C20.373-15.9002 25.707-9.04014 32.757-4.35014C39.807 0.339862 48.191 2.61986 56.646 2.12986C65.101 1.63986 73.169-1.58014 79.634-7.05014C86.099-12.5202 90.611-19.9402 92.49-28.2002C94.37-36.4602 93.514-45.1002 90.053-52.8302C86.592-60.5602 80.712-66.9602 73.3-71.0502C65.888-75.1502 57.346-76.7302 48.959-75.5502C40.573-74.3702 32.797-70.5002 26.804-64.5102C26.801-64.5102 26.798-64.5102 26.795-64.5002C26.79-64.5002 26.785-64.4902 26.78-64.4902L6.074-45.0302C5.631-44.6202 4.935-44.6402 4.519-45.0802C4.103-45.5202 4.125-46.2202 4.567-46.6402L25.261-66.0802C31.591-72.3902 39.8-76.4802 48.653-77.7302Z"/>
  </g>
  <g id="Black-S" transform="matrix(1 0 0 1 2883.41 696)">
   <path d="M11.32-72.011C15.24-72.011 18.42-68.832 18.42-64.911L18.42-51.011L32.32-51.011C36.24-51.011 39.42-47.832 39.42-43.911C39.42-39.99 36.24-36.811 32.32-36.811L11.32-36.811C7.4-36.811 4.22-39.99 4.22-43.911L4.22-64.911C4.22-68.832 7.4-72.011 11.32-72.011ZM44.44-75.102C52.72-76.268 61.17-74.709 68.49-70.66C75.81-66.611 81.62-60.292 85.04-52.654C88.46-45.016 89.31-36.473 87.45-28.313C85.6-20.153 81.14-12.818 74.75-7.41196C68.36-2.00596 60.39 1.17704 52.03 1.65804C43.68 2.13904 35.39-0.108954 28.43-4.74596C21.46-9.38296 16.19-16.159 13.41-24.052C12.11-27.75 14.05-31.805 17.75-33.108C21.44-34.411 25.5-32.469 26.8-28.77C28.56-23.781 31.89-19.498 36.3-16.567C40.7-13.635 45.94-12.215 51.22-12.519C56.5-12.823 61.54-14.835 65.58-18.252C69.61-21.669 72.43-26.306 73.61-31.464C74.78-36.622 74.25-42.022 72.08-46.85C69.92-51.679 66.25-55.673 61.62-58.233C56.99-60.792 51.65-61.777 46.42-61.04C41.18-60.303 36.32-57.884 32.58-54.146C32.53-54.096 32.47-54.046 32.42-53.997L16.18-38.737C13.32-36.052 8.83-36.192 6.15-39.049C3.46-41.907 3.6-46.4 6.46-49.085L22.62-64.275C28.54-70.143 36.19-73.941 44.44-75.102Z"/>
  </g>
  <g id="Heavy-S" transform="matrix(1 0 0 1 2587.55 696)">
   <path d="M10.47-71.1258C13.92-71.1258 16.72-68.3278 16.72-64.8758L16.72-50.1258L31.47-50.1258C34.92-50.1258 37.72-47.3278 37.72-43.8758C37.72-40.4238 34.92-37.6258 31.47-37.6258L10.47-37.6258C7.02-37.6258 4.22-40.4238 4.22-43.8758L4.22-64.8758C4.22-68.3278 7.02-71.1258 10.47-71.1258ZM43.71-74.2248C51.81-75.3648 60.07-73.8408 67.23-69.8808C74.39-65.9208 80.07-59.7408 83.42-52.2708C86.76-44.8018 87.59-36.4468 85.77-28.4668C83.96-20.4858 79.6-13.3118 73.35-8.02572C67.1-2.73872 59.31 0.374283 51.13 0.844283C42.96 1.31528 34.86-0.882714 28.05-5.41772C21.23-9.95272 16.08-16.5798 13.36-24.2988C12.21-27.5548 13.92-31.1238 17.18-32.2708C20.43-33.4178 24-31.7078 25.15-28.4528C26.97-23.2898 30.42-18.8568 34.97-15.8238C39.53-12.7908 44.95-11.3198 50.42-11.6348C55.88-11.9498 61.1-14.0318 65.28-17.5678C69.45-21.1038 72.37-25.9028 73.59-31.2408C74.8-36.5778 74.25-42.1658 72.01-47.1628C69.77-52.1588 65.97-56.2928 61.18-58.9408C56.39-61.5898 50.87-62.6098 45.45-61.8468C40.03-61.0838 35-58.5798 31.13-54.7128C31.08-54.6678 31.04-54.6238 30.99-54.5808L14.75-39.3208C12.23-36.9578 8.28-37.0808 5.92-39.5958C3.55-42.1118 3.68-46.0668 6.19-48.4308L22.36-63.6288C28.15-69.3718 35.63-73.0888 43.71-74.2248Z"/>
  </g>
  <g id="Bold-S" transform="matrix(1 0 0 1 2291.79 696)">
   <path d="M9.52512-69.9316C12.4451-69.9316 14.8251-67.5586 14.8251-64.6316L14.8251-48.9316L30.5251-48.9316C33.4451-48.9316 35.8251-46.5586 35.8251-43.6316C35.8251-40.7046 33.4451-38.3316 30.5251-38.3316L9.52512-38.3316C6.59512-38.3316 4.22512-40.7046 4.22512-43.6316L4.22512-64.6316C4.22512-67.5586 6.59512-69.9316 9.52512-69.9316ZM42.8851-73.0406C50.7851-74.1516 58.8351-72.6656 65.8151-68.8056C72.8051-64.9456 78.3451-58.9206 81.6051-51.6386C84.8651-44.3576 85.6651-36.2126 83.8951-28.4336C82.1251-20.6536 77.8751-13.6606 71.7851-8.50664C65.6951-3.35264 58.0951-0.318642 50.1251 0.140358C42.1651 0.598359 34.2651-1.54364 27.6251-5.96464C20.9851-10.3856 15.9551-16.8456 13.3051-24.3706C12.3351-27.1316 13.7851-30.1576 16.5451-31.1306C19.3051-32.1036 22.3351-30.6536 23.3051-27.8926C25.1951-22.5356 28.7651-17.9366 33.4951-14.7886C38.2251-11.6416 43.8451-10.1156 49.5251-10.4426C55.1951-10.7686 60.6051-12.9296 64.9351-16.5986C69.2751-20.2676 72.3051-25.2466 73.5651-30.7856C74.8251-36.3246 74.2451-42.1226 71.9251-47.3066C69.6051-52.4916 65.6651-56.7806 60.6951-59.5286C55.7151-62.2766 49.9851-63.3346 44.3651-62.5436C38.7351-61.7526 33.5251-59.1546 29.5051-55.1406C29.4651-55.1036 29.4251-55.0656 29.3851-55.0296L13.1451-39.7696C11.0151-37.7646 7.66512-37.8696 5.65512-40.0026C3.65512-42.1356 3.75512-45.4896 5.89512-47.4946L22.0751-62.7016C27.7151-68.3046 35.0151-71.9326 42.8851-73.0406Z"/>
  </g>
  <g id="Semibold-S" transform="matrix(1 0 0 1 1995.73 696)">
   <path d="M8.87232-69.2546C11.4423-69.2546 13.5223-67.1726 13.5223-64.6046L13.5223-48.2546L29.8723-48.2546C32.4423-48.2546 34.5223-46.1726 34.5223-43.6046C34.5223-41.0366 32.4423-38.9546 29.8723-38.9546L8.87232-38.9546C6.30232-38.9546 4.22232-41.0366 4.22232-43.6046L4.22232-64.6046C4.22232-67.1726 6.30232-69.2546 8.87232-69.2546ZM42.3323-72.3696C50.0923-73.4606 58.0023-72.0016 64.8523-68.2096C71.7123-64.4176 77.1623-58.4986 80.3623-51.3456C83.5623-44.1926 84.3523-36.1926 82.6123-28.5506C80.8723-20.9086 76.7023-14.0386 70.7223-8.97552C64.7323-3.91252 57.2723-0.931526 49.4423-0.481526C41.6223-0.0305265 33.8623-2.13552 27.3323-6.47852C20.8123-10.8216 15.8723-17.1666 13.2723-24.5596C12.4223-26.9816 13.6923-29.6366 16.1123-30.4906C18.5323-31.3436 21.1923-30.0716 22.0423-27.6496C23.9823-22.1586 27.6423-17.4456 32.4923-14.2206C37.3323-10.9946 43.1023-9.43152 48.9123-9.76552C54.7223-10.1005 60.2723-12.3146 64.7123-16.0746C69.1523-19.8356 72.2523-24.9376 73.5523-30.6136C74.8423-36.2896 74.2523-42.2326 71.8723-47.5456C69.4923-52.8576 65.4523-57.2536 60.3623-60.0706C55.2623-62.8866 49.3923-63.9706 43.6223-63.1596C37.8623-62.3486 32.5223-59.6866 28.4023-55.5736C28.3623-55.5406 28.3323-55.5076 28.2923-55.4756L12.0523-40.2156C10.1823-38.4566 7.24232-38.5486 5.48232-40.4206C3.72232-42.2916 3.81232-45.2346 5.69232-46.9926L21.8823-62.2066C27.4223-67.7146 34.5923-71.2806 42.3323-72.3696Z"/>
  </g>
  <g id="Medium-S" transform="matrix(1 0 0 1 1699.52 696)">
   <path d="M8.37-68.7354C10.66-68.7354 12.52-66.8774 12.52-64.5854L12.52-47.7354L29.37-47.7354C31.66-47.7354 33.52-45.8774 33.52-43.5854C33.52-41.2934 31.66-39.4354 29.37-39.4354L8.37-39.4354C6.08-39.4354 4.22-41.2934 4.22-43.5854L4.22-64.5854C4.22-66.8774 6.08-68.7354 8.37-68.7354ZM41.9-71.8544C49.55-72.9314 57.35-71.4914 64.11-67.7524C70.88-64.0134 76.24-58.1764 79.4-51.1224C82.56-44.0684 83.34-36.1784 81.63-28.6424C79.91-21.1054 75.79-14.3304 69.89-9.33842C63.99-4.34542 56.63-1.40541 48.91-0.961414C41.2-0.517414 33.55-2.59342 27.11-6.87542C20.68-11.1584 15.81-17.4164 13.24-24.7064C12.48-26.8674 13.61-29.2374 15.78-29.9994C17.94-30.7614 20.31-29.6264 21.07-27.4644C23.04-21.8714 26.77-17.0704 31.71-13.7854C36.65-10.4994 42.52-8.90742 48.44-9.24742C54.36-9.58842 60.01-11.8434 64.53-15.6744C69.06-19.5044 72.22-24.7024 73.53-30.4834C74.85-36.2654 74.25-42.3184 71.83-47.7304C69.4-53.1424 65.29-57.6194 60.1-60.4884C54.91-63.3574 48.93-64.4614 43.05-63.6354C37.18-62.8094 31.74-60.0974 27.54-55.9084C27.51-55.8784 27.48-55.8494 27.45-55.8204L11.21-40.5604C9.54-38.9914 6.92-39.0734 5.35-40.7434C3.78-42.4134 3.86-45.0404 5.53-46.6094L21.72-61.8274C27.19-67.2624 34.27-70.7814 41.9-71.8544Z"/>
  </g>
  <g id="Regular-S" transform="matrix(1 0 0 1 1403.46 696)">
   <path d="M7.72026-68.0584C9.6503-68.0584 11.2203-66.4914 11.2203-64.5584L11.2203-47.0584L28.7203-47.0584C30.6503-47.0584 32.2203-45.4914 32.2203-43.5584C32.2203-41.6254 30.6503-40.0584 28.7203-40.0584L7.72026-40.0584C5.79026-40.0584 4.22026-41.6254 4.22026-43.5584L4.22026-64.5584C4.22026-66.4914 5.79026-68.0584 7.72026-68.0584ZM41.3403-71.1844C48.8503-72.2414 56.5103-70.8284 63.1503-67.1564C69.7903-63.4854 75.0603-57.7554 78.1603-50.8294C81.2603-43.9044 82.0303-36.1584 80.3403-28.7594C78.6603-21.3604 74.6203-14.7094 68.8203-9.80732C63.0303-4.90532 55.8003-2.01932 48.2303-1.58332C40.6503-1.14732 33.1403-3.18532 26.8203-7.38932C20.5003-11.5944 15.7303-17.7384 13.2003-24.8954C12.5603-26.7184 13.5203-28.7174 15.3403-29.3594C17.1703-30.0014 19.1603-29.0444 19.8103-27.2214C21.8203-21.4954 25.6503-16.5804 30.7003-13.2174C35.7503-9.85332 41.7603-8.22332 47.8203-8.57132C53.8803-8.92032 59.6703-11.2294 64.3003-15.1514C68.9403-19.0724 72.1703-24.3934 73.5203-30.3124C74.8603-36.2314 74.2503-42.4284 71.7703-47.9694C69.2903-53.5094 65.0703-58.0934 59.7603-61.0304C54.4503-63.9674 48.3303-65.0984 42.3103-64.2524C36.3003-63.4064 30.7303-60.6304 26.4303-56.3414C26.4103-56.3164 26.3803-56.2914 26.3603-56.2674L10.1203-41.0074C8.71026-39.6844 6.49026-39.7524 5.17026-41.1614C3.85026-42.5704 3.91026-44.7854 5.32026-46.1094L21.5303-61.3334C26.8903-66.6734 33.8403-70.1294 41.3403-71.1844Z"/>
  </g>
  <g id="Light-S" transform="matrix(1 0 0 1 1107.54 696)">
   <path d="M6.92253-67.2258C8.41253-67.2258 9.62253-66.0168 9.62253-64.5258L9.62253-46.2258L27.9225-46.2258C29.4125-46.2258 30.6225-45.0168 30.6225-43.5258C30.6225-42.0348 29.4125-40.8258 27.9225-40.8258L6.92253-40.8258C5.43253-40.8258 4.22253-42.0348 4.22253-43.5258L4.22253-64.5258C4.22253-66.0168 5.43253-67.2258 6.92253-67.2258ZM40.6525-70.3598C47.9925-71.3928 55.4725-70.0118 61.9625-66.4238C68.4525-62.8368 73.6025-57.2378 76.6325-50.4708C79.6625-43.7028 80.4125-36.1348 78.7625-28.9048C77.1225-21.6748 73.1725-15.1748 67.5125-10.3858C61.8525-5.59582 54.7825-2.77582 47.3825-2.34982C39.9825-1.92382 32.6425-3.91482 26.4625-8.02382C20.2925-12.1318 15.6225-18.1348 13.1625-25.1288C12.6625-26.5348 13.4025-28.0768 14.8125-28.5728C16.2125-29.0678 17.7625-28.3298 18.2525-26.9228C20.3325-21.0338 24.2625-15.9788 29.4625-12.5188C34.6525-9.05882 40.8425-7.38182 47.0725-7.74082C53.3025-8.09982 59.2525-10.4748 64.0225-14.5078C68.7825-18.5408 72.1125-24.0148 73.5025-30.1028C74.8825-36.1908 74.2525-42.5648 71.7025-48.2638C69.1525-53.9628 64.8125-58.6778 59.3525-61.6978C53.8825-64.7188 47.5925-65.8818 41.4025-65.0128C35.2225-64.1428 29.4925-61.2868 25.0725-56.8748C25.0525-56.8558 25.0325-56.8368 25.0125-56.8178L8.77253-41.5578C7.68253-40.5368 5.97253-40.5898 4.95253-41.6768C3.93253-42.7638 3.98253-44.4728 5.07253-45.4938L21.2825-60.7258C26.5325-65.9478 33.3225-69.3288 40.6525-70.3598Z"/>
  </g>
  <g id="Thin-S" transform="matrix(1 0 0 1 811.884 696)">
   <path d="M5.87-66.1326C6.781-66.1326 7.52-65.3936 7.52-64.4826L7.52-45.1326L26.87-45.1326C27.781-45.1326 28.52-44.3936 28.52-43.4826C28.52-42.5716 27.781-41.8326 26.87-41.8326L5.87-41.8326C4.959-41.8326 4.22-42.5716 4.22-43.4826L4.22-64.4826C4.22-65.3936 4.959-66.1326 5.87-66.1326ZM39.747-69.2766C46.864-70.2776 54.113-68.9386 60.403-65.4616C66.693-61.9846 71.683-56.5576 74.62-49.9976C77.558-43.4386 78.284-36.1016 76.689-29.0936C75.094-22.0856 71.265-15.7866 65.778-11.1436C60.292-6.50168 53.445-3.76768 46.27-3.35468C39.095-2.94168 31.98-4.87168 25.997-8.85368C20.014-12.8366 15.487-18.6556 13.099-25.4336C12.796-26.2936 13.247-27.2356 14.107-27.5386C14.966-27.8416 15.909-27.3906 16.211-26.5306C18.362-20.4266 22.438-15.1866 27.825-11.6016C33.212-8.01568 39.619-6.27768 46.08-6.64868C52.541-7.02068 58.706-9.48268 63.647-13.6626C68.587-17.8436 72.035-23.5156 73.471-29.8266C74.907-36.1366 74.253-42.7426 71.608-48.6496C68.963-54.5556 64.471-59.4426 58.807-62.5736C53.143-65.7046 46.615-66.9106 40.206-66.0086C33.798-65.1066 27.856-62.1466 23.276-57.5746C23.264-57.5626 23.252-57.5516 23.24-57.5396L7-42.2796C6.336-41.6556 5.292-41.6886 4.668-42.3526C4.044-43.0166 4.076-44.0606 4.74-44.6846L20.962-59.9276C26.046-64.9956 32.638-68.2766 39.747-69.2766Z"/>
  </g>
  <g id="Ultralight-S" transform="matrix(1 0 0 1 515.723 696)">
   <path d="M5.32018-65.5608C5.92718-65.5608 6.42018-65.0688 6.42018-64.4608L6.42018-44.5608L26.3202-44.5608C26.9272-44.5608 27.4202-44.0688 27.4202-43.4608C27.4202-42.8538 26.9272-42.3608 26.3202-42.3608L5.32018-42.3608C4.71218-42.3608 4.22018-42.8538 4.22018-43.4608L4.22018-64.4608C4.22018-65.0688 4.71218-65.5608 5.32018-65.5608ZM39.2732-68.7098C46.2722-69.6948 53.4012-68.3778 59.5872-64.9588C65.7732-61.5398 70.6792-56.2018 73.5682-49.7518C76.4572-43.3008 77.1712-36.0858 75.6022-29.1948C74.0342-22.3028 70.2682-16.1078 64.8732-11.5418C59.4772-6.97682 52.7442-4.28782 45.6882-3.88182C38.6322-3.47582 31.6352-5.37382 25.7512-9.28982C19.8682-13.2068 15.4162-18.9288 13.0672-25.5948C12.8662-26.1678 13.1662-26.7968 13.7392-26.9978C14.3122-27.1998 14.9412-26.8988 15.1422-26.3268C17.3332-20.1098 21.4842-14.7738 26.9702-11.1218C32.4572-7.46982 38.9822-5.69982 45.5622-6.07882C52.1422-6.45682 58.4202-8.96382 63.4522-13.2218C68.4832-17.4788 71.9952-23.2558 73.4572-29.6828C74.9202-36.1088 74.2542-42.8368 71.5602-48.8528C68.8662-54.8678 64.2912-59.8448 58.5232-63.0338C52.7542-66.2218 46.1062-67.4498 39.5802-66.5318C33.0532-65.6138 27.0012-62.5988 22.3372-57.9428C22.3292-57.9348 22.3212-57.9268 22.3132-57.9188L6.07318-42.6588C5.63018-42.2428 4.93418-42.2648 4.51818-42.7078C4.10218-43.1498 4.12418-43.8468 4.56718-44.2628L20.7952-59.5108C25.7952-64.4978 32.2802-67.7258 39.2732-68.7098Z"/>
  </g>
 </g>
</svg>
