<?xml version="1.0" encoding="UTF-8"?>
<!--Generator: Apple Native CoreSVG 175-->
<!DOCTYPE svg
PUBLIC "-//W3C//DTD SVG 1.1//EN"
       "http://www.w3.org/Graphics/SVG/1.1/DTD/svg11.dtd">
<svg version="1.1" xmlns="http://www.w3.org/2000/svg" xmlns:xlink="http://www.w3.org/1999/xlink" width="3300" height="2200">
 <!--glyph: "", point size: 100.0, font version: "17.0d12e1", template writer version: "65.1"-->
 <style>.hierarchical-0:secondary {fill:#4D4D4D}
.hierarchical-1:primary {fill:#212121}

.SFSymbolsPreview212121 {fill:#212121;opacity:1.0}
.SFSymbolsPreview4D4D4D {fill:#4D4D4D;opacity:1.0}
</style>
 <g id="Notes">
  <rect height="2200" id="artboard" style="fill:white;opacity:1" width="3300" x="0" y="0"/>
  <line style="fill:none;stroke:black;opacity:1;stroke-width:0.5;" x1="263" x2="3036" y1="292" y2="292"/>
  <text style="stroke:none;fill:black;font-family:sans-serif;font-size:13;font-weight:bold;" transform="matrix(1 0 0 1 263 322)">Weight/Scale Variations</text>
  <text style="stroke:none;fill:black;font-family:sans-serif;font-size:13;text-anchor:middle;" transform="matrix(1 0 0 1 559.711 322)">Ultralight</text>
  <text style="stroke:none;fill:black;font-family:sans-serif;font-size:13;text-anchor:middle;" transform="matrix(1 0 0 1 856.422 322)">Thin</text>
  <text style="stroke:none;fill:black;font-family:sans-serif;font-size:13;text-anchor:middle;" transform="matrix(1 0 0 1 1153.13 322)">Light</text>
  <text style="stroke:none;fill:black;font-family:sans-serif;font-size:13;text-anchor:middle;" transform="matrix(1 0 0 1 1449.84 322)">Regular</text>
  <text style="stroke:none;fill:black;font-family:sans-serif;font-size:13;text-anchor:middle;" transform="matrix(1 0 0 1 1746.56 322)">Medium</text>
  <text style="stroke:none;fill:black;font-family:sans-serif;font-size:13;text-anchor:middle;" transform="matrix(1 0 0 1 2043.27 322)">Semibold</text>
  <text style="stroke:none;fill:black;font-family:sans-serif;font-size:13;text-anchor:middle;" transform="matrix(1 0 0 1 2339.98 322)">Bold</text>
  <text style="stroke:none;fill:black;font-family:sans-serif;font-size:13;text-anchor:middle;" transform="matrix(1 0 0 1 2636.69 322)">Heavy</text>
  <text style="stroke:none;fill:black;font-family:sans-serif;font-size:13;text-anchor:middle;" transform="matrix(1 0 0 1 2933.4 322)">Black</text>
  <line style="fill:none;stroke:black;opacity:1;stroke-width:0.5;" x1="263" x2="3036" y1="1903" y2="1903"/>
  <g transform="matrix(1 0 0 1 263 1933)">
   <path d="M9.24805 0.830078Q10.8691 0.830078 12.2949 0.214844Q13.7207-0.400391 14.8096-1.49414Q15.8984-2.58789 16.5186-4.01367Q17.1387-5.43945 17.1387-7.05078Q17.1387-8.66211 16.5186-10.0879Q15.8984-11.5137 14.8047-12.6074Q13.7109-13.7012 12.2852-14.3164Q10.8594-14.9316 9.23828-14.9316Q7.62695-14.9316 6.20117-14.3164Q4.77539-13.7012 3.69141-12.6074Q2.60742-11.5137 1.9873-10.0879Q1.36719-8.66211 1.36719-7.05078Q1.36719-5.43945 1.9873-4.01367Q2.60742-2.58789 3.69629-1.49414Q4.78516-0.400391 6.21094 0.214844Q7.63672 0.830078 9.24805 0.830078ZM9.24805-0.654297Q7.91992-0.654297 6.7627-1.14746Q5.60547-1.64062 4.73145-2.51953Q3.85742-3.39844 3.36426-4.56055Q2.87109-5.72266 2.87109-7.05078Q2.87109-8.37891 3.35938-9.54102Q3.84766-10.7031 4.72168-11.582Q5.5957-12.4609 6.75293-12.9541Q7.91016-13.4473 9.23828-13.4473Q10.5762-13.4473 11.7334-12.9541Q12.8906-12.4609 13.7695-11.582Q14.6484-10.7031 15.1465-9.54102Q15.6445-8.37891 15.6445-7.05078Q15.6445-5.72266 15.1514-4.56055Q14.6582-3.39844 13.7842-2.51953Q12.9102-1.64062 11.748-1.14746Q10.5859-0.654297 9.24805-0.654297ZM5.6543-7.05078Q5.6543-6.72852 5.85938-6.52832Q6.06445-6.32812 6.40625-6.32812L8.51562-6.32812L8.51562-4.20898Q8.51562-3.88672 8.71094-3.67676Q8.90625-3.4668 9.23828-3.4668Q9.56055-3.4668 9.77051-3.67676Q9.98047-3.88672 9.98047-4.20898L9.98047-6.32812L12.0898-6.32812Q12.4219-6.32812 12.627-6.52832Q12.832-6.72852 12.832-7.05078Q12.832-7.38281 12.627-7.58789Q12.4219-7.79297 12.0898-7.79297L9.98047-7.79297L9.98047-9.90234Q9.98047-10.2344 9.77051-10.4443Q9.56055-10.6543 9.23828-10.6543Q8.90625-10.6543 8.71094-10.4443Q8.51562-10.2344 8.51562-9.90234L8.51562-7.79297L6.40625-7.79297Q6.06445-7.79297 5.85938-7.58789Q5.6543-7.38281 5.6543-7.05078Z"/>
  </g>
  <g transform="matrix(1 0 0 1 281.867 1933)">
   <path d="M11.709 2.91016Q13.75 2.91016 15.5518 2.12891Q17.3535 1.34766 18.7305-0.0292969Q20.1074-1.40625 20.8887-3.20801Q21.6699-5.00977 21.6699-7.05078Q21.6699-9.0918 20.8887-10.8936Q20.1074-12.6953 18.7305-14.0723Q17.3535-15.4492 15.5469-16.2305Q13.7402-17.0117 11.6992-17.0117Q9.6582-17.0117 7.85645-16.2305Q6.05469-15.4492 4.68262-14.0723Q3.31055-12.6953 2.5293-10.8936Q1.74805-9.0918 1.74805-7.05078Q1.74805-5.00977 2.5293-3.20801Q3.31055-1.40625 4.6875-0.0292969Q6.06445 1.34766 7.86621 2.12891Q9.66797 2.91016 11.709 2.91016ZM11.709 1.25Q9.98047 1.25 8.47656 0.605469Q6.97266-0.0390625 5.83496-1.17676Q4.69727-2.31445 4.05762-3.81836Q3.41797-5.32227 3.41797-7.05078Q3.41797-8.7793 4.05762-10.2832Q4.69727-11.7871 5.83008-12.9297Q6.96289-14.0723 8.4668-14.7119Q9.9707-15.3516 11.6992-15.3516Q13.4277-15.3516 14.9316-14.7119Q16.4355-14.0723 17.5781-12.9297Q18.7207-11.7871 19.3652-10.2832Q20.0098-8.7793 20.0098-7.05078Q20.0098-5.32227 19.3701-3.81836Q18.7305-2.31445 17.5928-1.17676Q16.4551-0.0390625 14.9463 0.605469Q13.4375 1.25 11.709 1.25ZM7.17773-7.05078Q7.17773-6.69922 7.41211-6.47461Q7.64648-6.25 8.01758-6.25L10.8887-6.25L10.8887-3.36914Q10.8887-2.99805 11.1133-2.76855Q11.3379-2.53906 11.6895-2.53906Q12.0605-2.53906 12.29-2.76855Q12.5195-2.99805 12.5195-3.36914L12.5195-6.25L15.4004-6.25Q15.7715-6.25 16.001-6.47461Q16.2305-6.69922 16.2305-7.05078Q16.2305-7.42188 16.001-7.65137Q15.7715-7.88086 15.4004-7.88086L12.5195-7.88086L12.5195-10.752Q12.5195-11.1328 12.29-11.3623Q12.0605-11.5918 11.6895-11.5918Q11.3379-11.5918 11.1133-11.3574Q10.8887-11.123 10.8887-10.752L10.8887-7.88086L8.01758-7.88086Q7.63672-7.88086 7.40723-7.65137Q7.17773-7.42188 7.17773-7.05078Z"/>
  </g>
  <g transform="matrix(1 0 0 1 305.646 1933)">
   <path d="M14.9707 5.66406Q17.0605 5.66406 18.96 5.01465Q20.8594 4.36523 22.4512 3.19336Q24.043 2.02148 25.2197 0.429688Q26.3965-1.16211 27.0459-3.06641Q27.6953-4.9707 27.6953-7.05078Q27.6953-9.14062 27.0459-11.04Q26.3965-12.9395 25.2197-14.5312Q24.043-16.123 22.4512-17.2998Q20.8594-18.4766 18.9551-19.126Q17.0508-19.7754 14.9609-19.7754Q12.8711-19.7754 10.9717-19.126Q9.07227-18.4766 7.48535-17.2998Q5.89844-16.123 4.72168-14.5312Q3.54492-12.9395 2.90039-11.04Q2.25586-9.14062 2.25586-7.05078Q2.25586-4.9707 2.90527-3.06641Q3.55469-1.16211 4.72656 0.429688Q5.89844 2.02148 7.49023 3.19336Q9.08203 4.36523 10.9814 5.01465Q12.8809 5.66406 14.9707 5.66406ZM14.9707 3.84766Q13.1641 3.84766 11.5283 3.2959Q9.89258 2.74414 8.53516 1.74805Q7.17773 0.751953 6.17676-0.610352Q5.17578-1.97266 4.62891-3.6084Q4.08203-5.24414 4.08203-7.05078Q4.08203-8.86719 4.62891-10.5029Q5.17578-12.1387 6.17188-13.501Q7.16797-14.8633 8.52539-15.8594Q9.88281-16.8555 11.5186-17.4023Q13.1543-17.9492 14.9609-17.9492Q16.7773-17.9492 18.4131-17.4023Q20.0488-16.8555 21.4111-15.8594Q22.7734-14.8633 23.7695-13.501Q24.7656-12.1387 25.3174-10.5029Q25.8691-8.86719 25.8691-7.05078Q25.8789-5.24414 25.332-3.6084Q24.7852-1.97266 23.7842-0.610352Q22.7832 0.751953 21.4209 1.74805Q20.0586 2.74414 18.4229 3.2959Q16.7871 3.84766 14.9707 3.84766ZM9.19922-7.05078Q9.19922-6.66992 9.45801-6.4209Q9.7168-6.17188 10.1172-6.17188L14.0625-6.17188L14.0625-2.2168Q14.0625-1.81641 14.3115-1.55762Q14.5605-1.29883 14.9512-1.29883Q15.3516-1.29883 15.6104-1.55273Q15.8691-1.80664 15.8691-2.2168L15.8691-6.17188L19.8242-6.17188Q20.2246-6.17188 20.4785-6.4209Q20.7324-6.66992 20.7324-7.05078Q20.7324-7.46094 20.4785-7.71484Q20.2246-7.96875 19.8242-7.96875L15.8691-7.96875L15.8691-11.9141Q15.8691-12.3242 15.6104-12.583Q15.3516-12.8418 14.9512-12.8418Q14.5605-12.8418 14.3115-12.583Q14.0625-12.3242 14.0625-11.9141L14.0625-7.96875L10.1172-7.96875Q9.70703-7.96875 9.45312-7.71484Q9.19922-7.46094 9.19922-7.05078Z"/>
  </g>
  <text style="stroke:none;fill:black;font-family:sans-serif;font-size:13;font-weight:bold;" transform="matrix(1 0 0 1 263 1953)">Design Variations</text>
  <text style="stroke:none;fill:black;font-family:sans-serif;font-size:13;" transform="matrix(1 0 0 1 263 1971)">Symbols are supported in up to nine weights and three scales.</text>
  <text style="stroke:none;fill:black;font-family:sans-serif;font-size:13;" transform="matrix(1 0 0 1 263 1989)">For optimal layout with text and other symbols, vertically align</text>
  <text style="stroke:none;fill:black;font-family:sans-serif;font-size:13;" transform="matrix(1 0 0 1 263 2007)">symbols with the adjacent text.</text>
  <line style="fill:none;stroke:#00AEEF;stroke-width:0.5;opacity:1.0;" x1="776" x2="776" y1="1919" y2="1933"/>
  <g transform="matrix(1 0 0 1 776 1933)">
   <path d="M3.31055 0.15625Q3.70117 0.15625 3.91602-0.00976562Q4.13086-0.175781 4.26758-0.585938L5.52734-4.0332L11.2891-4.0332L12.5488-0.585938Q12.6855-0.175781 12.9004-0.00976562Q13.1152 0.15625 13.4961 0.15625Q13.8867 0.15625 14.1162-0.0585938Q14.3457-0.273438 14.3457-0.644531Q14.3457-0.869141 14.2383-1.17188L9.6582-13.3691Q9.48242-13.8184 9.17969-14.043Q8.87695-14.2676 8.4082-14.2676Q7.5-14.2676 7.17773-13.3789L2.59766-1.16211Q2.49023-0.859375 2.49023-0.634766Q2.49023-0.263672 2.70996-0.0537109Q2.92969 0.15625 3.31055 0.15625ZM6.00586-5.51758L8.37891-12.0898L8.42773-12.0898L10.8008-5.51758Z"/>
  </g>
  <line style="fill:none;stroke:#00AEEF;stroke-width:0.5;opacity:1.0;" x1="793.197" x2="793.197" y1="1919" y2="1933"/>
  <text style="stroke:none;fill:black;font-family:sans-serif;font-size:13;font-weight:bold;" transform="matrix(1 0 0 1 776 1953)">Margins</text>
  <text style="stroke:none;fill:black;font-family:sans-serif;font-size:13;" transform="matrix(1 0 0 1 776 1971)">Leading and trailing margins on the left and right side of each symbol</text>
  <text style="stroke:none;fill:black;font-family:sans-serif;font-size:13;" transform="matrix(1 0 0 1 776 1989)">can be adjusted by modifying the x-location of the margin guidelines.</text>
  <text style="stroke:none;fill:black;font-family:sans-serif;font-size:13;" transform="matrix(1 0 0 1 776 2007)">Modifications are automatically applied proportionally to all</text>
  <text style="stroke:none;fill:black;font-family:sans-serif;font-size:13;" transform="matrix(1 0 0 1 776 2025)">scales and weights.</text>
  <g transform="matrix(1 0 0 1 1289 1933)">
   <path d="M2.8418 1.86523L4.54102 3.57422Q5.18555 4.22852 5.90332 4.17969Q6.62109 4.13086 7.31445 3.35938L18.0078-8.42773L17.041-9.4043L6.42578 2.27539Q6.16211 2.57812 5.89355 2.61719Q5.625 2.65625 5.27344 2.30469L4.10156 1.14258Q3.75 0.791016 3.79395 0.522461Q3.83789 0.253906 4.14062-0.0195312L15.6152-10.8203L14.6387-11.7871L3.04688-0.898438Q2.30469-0.214844 2.25098 0.498047Q2.19727 1.21094 2.8418 1.86523ZM9.25781-16.3281Q8.94531-16.0254 8.90625-15.6348Q8.86719-15.2441 9.04297-14.9512Q9.21875-14.6777 9.55566-14.541Q9.89258-14.4043 10.3809-14.5215Q11.4746-14.7754 12.5977-14.7314Q13.7207-14.6875 14.7949-13.9844L14.209-12.5293Q13.9551-11.9043 14.0674-11.4404Q14.1797-10.9766 14.5801-10.5664L16.875-8.25195Q17.2363-7.88086 17.5781-7.82227Q17.9199-7.76367 18.3398-7.8418L19.4043-8.03711L20.0684-7.36328L20.0293-6.80664Q20-6.43555 20.1221-6.12305Q20.2441-5.81055 20.6055-5.44922L21.3672-4.70703Q21.7285-4.3457 22.1533-4.33105Q22.5781-4.31641 22.9297-4.66797L25.8398-7.58789Q26.1914-7.93945 26.1816-8.35449Q26.1719-8.76953 25.8105-9.13086L25.0391-9.89258Q24.6875-10.2539 24.3799-10.3857Q24.0723-10.5176 23.7109-10.4883L23.1348-10.4395L22.4902-11.0742L22.7344-12.1973Q22.832-12.6172 22.6953-12.9834Q22.5586-13.3496 22.1191-13.7891L19.9219-15.9766Q18.6719-17.2168 17.2607-17.8369Q15.8496-18.457 14.4189-18.4814Q12.9883-18.5059 11.665-17.959Q10.3418-17.4121 9.25781-16.3281ZM10.752-15.957Q11.6602-16.6211 12.7002-16.9043Q13.7402-17.1875 14.8047-17.085Q15.8691-16.9824 16.8701-16.5137Q17.8711-16.0449 18.7012-15.2051L21.1328-12.793Q21.3086-12.6172 21.3525-12.4512Q21.3965-12.2852 21.3379-12.0312L21.0156-10.5469L22.5195-9.0625L23.5059-9.12109Q23.6914-9.13086 23.7891-9.09668Q23.8867-9.0625 24.0332-8.91602L24.6094-8.33984L22.168-5.89844L21.5918-6.47461Q21.4453-6.62109 21.4062-6.71875Q21.3672-6.81641 21.377-7.01172L21.4453-7.98828L19.9512-9.47266L18.4277-9.21875Q18.1836-9.16992 18.042-9.2041Q17.9004-9.23828 17.7148-9.41406L15.7129-11.416Q15.5176-11.5918 15.4932-11.7529Q15.4688-11.9141 15.5859-12.1875L16.4648-14.2773Q15.293-15.3711 13.8281-15.791Q12.3633-16.2109 10.8398-15.7617Q10.7227-15.7324 10.6885-15.8057Q10.6543-15.8789 10.752-15.957Z"/>
  </g>
  <text style="stroke:none;fill:black;font-family:sans-serif;font-size:13;font-weight:bold;" transform="matrix(1 0 0 1 1289 1953)">Exporting</text>
  <text style="stroke:none;fill:black;font-family:sans-serif;font-size:13;" transform="matrix(1 0 0 1 1289 1971)">Symbols should be outlined when exporting to ensure the</text>
  <text style="stroke:none;fill:black;font-family:sans-serif;font-size:13;" transform="matrix(1 0 0 1 1289 1989)">design is preserved when submitting to Xcode.</text>
  <text id="template-version" style="stroke:none;fill:black;font-family:sans-serif;font-size:13;text-anchor:end;" transform="matrix(1 0 0 1 3036 1933)">Template v.3.0</text>
  <text style="stroke:none;fill:black;font-family:sans-serif;font-size:13;text-anchor:end;" transform="matrix(1 0 0 1 3036 1951)">Requires Xcode 13 or greater</text>
  <text id="descriptive-name" style="stroke:none;fill:black;font-family:sans-serif;font-size:13;text-anchor:end;" transform="matrix(1 0 0 1 3036 1969)">Generated from phone-outgoing</text>
  <text style="stroke:none;fill:black;font-family:sans-serif;font-size:13;text-anchor:end;" transform="matrix(1 0 0 1 3036 1987)">Typeset at 100 points</text>
  <text style="stroke:none;fill:black;font-family:sans-serif;font-size:13;" transform="matrix(1 0 0 1 263 726)">Small</text>
  <text style="stroke:none;fill:black;font-family:sans-serif;font-size:13;" transform="matrix(1 0 0 1 263 1156)">Medium</text>
  <text style="stroke:none;fill:black;font-family:sans-serif;font-size:13;" transform="matrix(1 0 0 1 263 1586)">Large</text>
 </g>
 <g id="Guides">
  <g id="H-reference" style="fill:#27AAE1;stroke:none;" transform="matrix(1 0 0 1 339 696)">
   <path d="M0.976562 0L3.66211 0L29.3457-67.1387L30.0293-67.1387L30.0293-70.459L28.125-70.459ZM11.6699-24.4629L46.9727-24.4629L46.2402-26.709L12.4512-26.709ZM55.127 0L57.7637 0L30.6152-70.459L29.4434-70.459L29.4434-67.1387Z"/>
  </g>
  <line id="Baseline-S" style="fill:none;stroke:#27AAE1;opacity:1;stroke-width:0.5;" x1="263" x2="3036" y1="696" y2="696"/>
  <line id="Capline-S" style="fill:none;stroke:#27AAE1;opacity:1;stroke-width:0.5;" x1="263" x2="3036" y1="625.541" y2="625.541"/>
  <g id="H-reference" style="fill:#27AAE1;stroke:none;" transform="matrix(1 0 0 1 339 1126)">
   <path d="M0.976562 0L3.66211 0L29.3457-67.1387L30.0293-67.1387L30.0293-70.459L28.125-70.459ZM11.6699-24.4629L46.9727-24.4629L46.2402-26.709L12.4512-26.709ZM55.127 0L57.7637 0L30.6152-70.459L29.4434-70.459L29.4434-67.1387Z"/>
  </g>
  <line id="Baseline-M" style="fill:none;stroke:#27AAE1;opacity:1;stroke-width:0.5;" x1="263" x2="3036" y1="1126" y2="1126"/>
  <line id="Capline-M" style="fill:none;stroke:#27AAE1;opacity:1;stroke-width:0.5;" x1="263" x2="3036" y1="1055.54" y2="1055.54"/>
  <g id="H-reference" style="fill:#27AAE1;stroke:none;" transform="matrix(1 0 0 1 339 1556)">
   <path d="M0.976562 0L3.66211 0L29.3457-67.1387L30.0293-67.1387L30.0293-70.459L28.125-70.459ZM11.6699-24.4629L46.9727-24.4629L46.2402-26.709L12.4512-26.709ZM55.127 0L57.7637 0L30.6152-70.459L29.4434-70.459L29.4434-67.1387Z"/>
  </g>
  <line id="Baseline-L" style="fill:none;stroke:#27AAE1;opacity:1;stroke-width:0.5;" x1="263" x2="3036" y1="1556" y2="1556"/>
  <line id="Capline-L" style="fill:none;stroke:#27AAE1;opacity:1;stroke-width:0.5;" x1="263" x2="3036" y1="1485.54" y2="1485.54"/>
  <line id="left-margin-Regular-M" style="fill:none;stroke:#00AEEF;stroke-width:0.5;opacity:1.0;" x1="1392.67" x2="1392.67" y1="1030.78" y2="1150.12"/>
  <line id="right-margin-Regular-M" style="fill:none;stroke:#00AEEF;stroke-width:0.5;opacity:1.0;" x1="1507.02" x2="1507.02" y1="1030.78" y2="1150.12"/>
 </g>
 <g id="Symbols">
  <g id="Black-L" transform="matrix(1 0 0 1 2859.84 1556)">
   <path class="hierarchical-0:secondary SFSymbolsPreview4D4D4D" d="M45.715-99.41L28.285-99.41C25.715-99.41 23.185-98.87 20.825-97.84C18.465-96.78 16.355-95.27 14.635-93.37C12.935-91.52 11.605-89.27 10.785-86.83C9.96496-84.42 9.66496-81.84 9.89496-79.28L9.90496-79.16C11.855-60.79 18.035-43.13 27.945-27.56L28.465-26.74C37.555-12.44 49.665-0.23 63.945 9L64.735 9.51C80.385 19.66 98.265 26.02 116.865 28.04C119.525 28.29 122.125 27.99 124.575 27.16C127.025 26.33 129.245 25.01 131.135 23.28C133.045 21.54 134.555 19.41 135.585 17.04L135.785 16.57C136.675 14.39 137.135 12.01 137.135 9.61L137.135-7.3C137.235-11.83 135.675-16.24 132.745-19.69C129.835-23.14 125.735-25.4 121.235-26.03C116.545-26.65 111.995-27.75 107.625-29.31L106.755-29.63C103.485-30.87 99.875-31.14 96.425-30.41L95.965-30.3C92.675-29.51 89.675-27.84 87.275-25.47L83.975-22.17L83.735-22.33C74.335-28.55 66.275-36.6 60.045-46.01L59.885-46.25L63.165-49.53C65.675-52.07 67.395-55.25 68.125-58.7C68.865-62.12 68.595-65.71 67.355-69.03C65.615-73.7 64.405-78.54 63.755-83.46C63.125-87.95 60.905-92.01 57.505-94.94C54.205-97.77 50.035-99.35 45.715-99.41ZM28.285-85.21L45.425-85.21C46.455-85.22 47.455-84.86 48.255-84.17C49.025-83.5 49.545-82.56 49.685-81.55C50.465-75.61 51.935-69.73 54.055-64.06C54.345-63.29 54.405-62.46 54.235-61.67C54.065-60.85 53.665-60.12 53.095-59.54L45.895-52.34C43.635-50.08 43.165-46.59 44.745-43.81C53.475-28.46 66.185-15.75 81.535-7.03C84.315-5.45 87.805-5.92 90.065-8.18L97.285-15.4C97.835-15.95 98.575-16.34 99.395-16.52C100.175-16.69 101.005-16.62 101.745-16.34C107.425-14.22 113.315-12.75 119.315-11.96C120.295-11.82 121.235-11.3 121.915-10.51C122.595-9.7 122.965-8.67 122.935-7.6L122.935-7.45L122.935 9.61C122.935 10.22 122.815 10.82 122.575 11.34C122.325 11.92 121.985 12.41 121.555 12.8C121.105 13.21 120.595 13.51 120.015 13.71C119.465 13.9 118.875 13.97 118.315 13.91C102.295 12.17 86.815 6.74 73.165-1.95L72.405-2.44C59.755-10.48 49.025-21.11 40.915-33.64L39.925-35.17C31.345-48.68 25.945-63.91 24.125-79.76L24.035-80.58L24.035-80.54C23.985-81.15 24.055-81.74 24.235-82.28C24.435-82.86 24.735-83.37 25.115-83.79C25.545-84.26 26.025-84.61 26.575-84.85C27.115-85.09 27.695-85.21 28.285-85.21Z"/>
   <path class="hierarchical-1:primary SFSymbolsPreview212121" d="M135.715-105.1C139.555-105.1 142.685-102.05 142.815-98.24L142.815-98L142.815-63.87C142.815-59.95 139.635-56.77 135.715-56.77C131.875-56.77 128.745-59.82 128.615-63.63L128.615-63.87L128.615-90.9L101.595-90.9C97.755-90.9 94.625-93.95 94.495-97.76L94.495-98C94.495-101.84 97.545-104.97 101.355-105.1L101.595-105.1L135.715-105.1ZM130.695-103.02C133.465-105.79 137.965-105.79 140.735-103.02C143.445-100.31 143.505-95.96 140.925-93.17L140.735-92.98L100.925-53.17C98.155-50.4 93.655-50.4 90.885-53.17C88.175-55.88 88.115-60.23 90.705-63.02L90.885-63.21L130.695-103.02Z"/>
  </g>
  <g id="Heavy-L" transform="matrix(1 0 0 1 2563.97 1556)">
   <path class="hierarchical-0:secondary SFSymbolsPreview4D4D4D" d="M44.8577-98.48L27.4277-98.48C24.9777-98.48 22.5477-97.97 20.3077-96.97C18.0877-95.99 16.0777-94.55 14.4277-92.74C12.7877-90.94 11.5377-88.82 10.7477-86.51C9.94768-84.13 9.66768-81.67 9.89768-79.23C11.8377-60.93 17.9677-43.4 27.8077-27.93L28.3377-27.12C37.3577-12.92 49.3877-0.79 63.5577 8.37L64.3477 8.88C79.8877 18.96 97.6277 25.27 116.108 27.28C118.648 27.52 121.118 27.22 123.458 26.43C125.778 25.64 127.908 24.38 129.718 22.73C131.528 21.07 132.978 19.04 133.958 16.78L134.148 16.33C135.008 14.21 135.448 11.94 135.428 9.65L135.428-7.37L135.428-7.21C135.538-11.53 134.048-15.74 131.258-19.04C128.468-22.34 124.558-24.5 120.278-25.11C115.528-25.73 110.918-26.84 106.488-28.43L105.608-28.75C102.468-29.94 99.0477-30.19 95.7477-29.49L95.3177-29.39C92.1577-28.63 89.2877-27.04 87.0177-24.77L83.2377-21L83.1677-21.04C73.3377-27.4 64.9177-35.73 58.4677-45.5L57.9477-46.29L61.7077-50.05C64.1077-52.46 65.7477-55.49 66.4477-58.8C67.1077-61.95 66.9077-65.21 65.8477-68.24L65.6977-68.68C63.9477-73.38 62.7177-78.29 62.0677-83.27C61.4477-87.57 59.3377-91.44 56.0877-94.22C52.9577-96.91 48.9877-98.42 44.8577-98.48ZM27.4277-85.98L44.5677-85.98C45.7977-85.99 46.9977-85.55 47.9377-84.74C48.8877-83.93 49.5077-82.8 49.6777-81.56C50.4477-75.72 51.8977-69.9 53.9877-64.29C54.3477-63.35 54.4177-62.35 54.2177-61.38C54.0177-60.44 53.5377-59.57 52.8577-58.87L45.6477-51.65C43.6577-49.66 43.2477-46.59 44.6377-44.15C53.2877-28.93 65.8877-16.33 81.0977-7.69C83.5477-6.3 86.6177-6.71 88.6077-8.7L95.8377-15.92C96.5077-16.58 97.3877-17.06 98.3677-17.27C99.3077-17.47 100.298-17.4 101.208-17.05C106.818-14.95 112.638-13.51 118.578-12.72C119.768-12.55 120.908-11.93 121.718-10.97C122.478-10.08 122.898-8.94 122.928-7.78L122.928-7.37L122.928 9.69C122.938 10.42 122.788 11.13 122.498 11.8C122.218 12.45 121.798 13.04 121.278 13.51C120.758 13.99 120.128 14.36 119.438 14.59C118.768 14.82 118.068 14.91 117.368 14.84C101.228 13.09 85.6277 7.61 71.8577-1.15L71.0977-1.64C58.3377-9.75 47.5277-20.47 39.3377-33.11L38.8577-33.87C29.7377-47.93 24.0877-63.88 22.3377-80.49C22.2777-81.11 22.3577-81.82 22.5877-82.51C22.8077-83.15 23.1777-83.79 23.6477-84.3C24.1377-84.84 24.7177-85.25 25.3677-85.54C26.0277-85.83 26.7177-85.98 27.4277-85.98Z"/>
   <path class="hierarchical-1:primary SFSymbolsPreview212121" d="M134.868-104.17C138.248-104.17 140.998-101.49 141.118-98.15L141.118-97.92L141.118-63.79C141.118-60.34 138.318-57.54 134.868-57.54C131.498-57.54 128.748-60.21 128.628-63.56L128.618-63.79L128.618-91.67L100.738-91.67C97.3677-91.67 94.6177-94.34 94.4977-97.69L94.4877-97.92C94.4877-101.29 97.1677-104.04 100.508-104.16L100.738-104.17L134.868-104.17ZM130.448-102.34C132.888-104.78 136.848-104.78 139.288-102.34C141.668-99.96 141.728-96.14 139.468-93.69L139.288-93.5L99.4777-53.69C97.0377-51.25 93.0777-51.25 90.6377-53.69C88.2577-56.07 88.1977-59.89 90.4577-62.34L90.6377-62.53L130.448-102.34Z"/>
  </g>
  <g id="Bold-L" transform="matrix(1 0 0 1 2268.21 1556)">
   <path class="hierarchical-0:secondary SFSymbolsPreview4D4D4D" d="M43.9037-97.4375L26.4837-97.4375C24.1637-97.4375 21.8737-96.9475 19.7537-96.0075C17.6337-95.0775 15.7237-93.7075 14.1637-91.9875C12.6337-90.3075 11.4437-88.2975 10.7037-86.1175C9.95373-83.8775 9.68373-81.5575 9.88373-79.2675C11.8137-61.0875 17.9037-43.6975 27.6537-28.3475L28.1737-27.5475C37.1437-13.4475 49.0637-1.4275 63.1137 7.6525L63.9137 8.1625C79.3337 18.1725 96.9337 24.4325 115.264 26.4225C117.654 26.6525 119.994 26.3725 122.214 25.6225C124.414 24.8725 126.434 23.6825 128.134 22.1125C129.834 20.5625 131.194 18.6525 132.134 16.5225L132.314 16.0925C133.134 14.0525 133.544 11.9125 133.534 9.7525L133.534-7.1475C133.634-11.2275 132.234-15.2175 129.594-18.3375C126.934-21.4675 123.244-23.5075 119.194-24.0775C114.384-24.7075 109.724-25.8375 105.224-27.4475L104.334-27.7675C101.364-28.8875 98.1237-29.1375 94.9937-28.4675L94.5737-28.3775C91.6037-27.6575 88.9037-26.1575 86.7437-24.0175L82.4237-19.6975L82.3837-19.7175C71.9137-26.3475 63.0037-35.1675 56.2737-45.5775L55.7937-46.3275L60.0937-50.6275C62.3437-52.8975 63.8937-55.7575 64.5637-58.8775C65.2237-62.0075 64.9837-65.2475 63.8737-68.2275C62.0837-72.9975 60.8437-77.9675 60.1737-83.0475C59.6037-87.1075 57.5937-90.7675 54.5337-93.4075C51.5737-95.9575 47.8037-97.3775 43.9037-97.4375ZM26.4837-86.8375L43.6037-86.8375C45.0737-86.8575 46.5037-86.3275 47.6137-85.3675C48.7337-84.4075 49.4637-83.0675 49.6737-81.6075C50.4437-75.7875 51.8737-70.0375 53.9437-64.5175C54.3537-63.4175 54.4437-62.2275 54.1937-61.0875C53.9537-59.9675 53.3937-58.9275 52.5837-58.1075L45.3737-50.8875C43.6937-49.2075 43.3337-46.5975 44.5137-44.5275C53.0737-29.4575 65.5537-16.9775 80.6237-8.4175C82.7037-7.2375 85.3037-7.5975 86.9937-9.2775L94.2137-16.4975C95.0137-17.2975 96.0637-17.8575 97.2137-18.1075C98.3437-18.3475 99.5237-18.2575 100.604-17.8475C106.144-15.7775 111.884-14.3475 117.764-13.5675C119.184-13.3675 120.534-12.6275 121.504-11.4875C122.404-10.4275 122.904-9.0775 122.934-7.6875L122.934-7.2775L122.934 9.7825C122.944 10.6425 122.764 11.4825 122.424 12.2725C122.084 13.0325 121.584 13.7425 120.964 14.3025C120.344 14.8725 119.614 15.3125 118.794 15.5825C118.004 15.8525 117.164 15.9525 116.334 15.8725C100.034 14.1025 84.2937 8.5825 70.4037-0.2575L69.6337-0.7575C56.7737-8.9275 45.8537-19.7475 37.5837-32.5075L37.0937-33.2675C27.9137-47.4475 22.2137-63.5475 20.4337-80.2975C20.3637-81.0475 20.4737-81.9075 20.7437-82.7175C21.0037-83.4975 21.4437-84.2375 22.0037-84.8475C22.5737-85.4775 23.2637-85.9775 24.0437-86.3175C24.8137-86.6575 25.6437-86.8375 26.4837-86.8375Z"/>
   <path class="hierarchical-1:primary SFSymbolsPreview212121" d="M133.924-103.127C136.774-103.127 139.104-100.867 139.224-98.0475L139.224-97.8275L139.224-63.6975C139.224-60.7675 136.854-58.3975 133.924-58.3975C131.074-58.3975 128.744-60.6575 128.624-63.4775L128.624-63.6975L128.624-92.5275L99.7937-92.5275C96.9437-92.5275 94.6137-94.7875 94.4937-97.6075L94.4937-97.8275C94.4937-100.678 96.7537-103.007 99.5737-103.117L99.7937-103.127L133.924-103.127ZM130.174-101.577C132.244-103.648 135.604-103.648 137.674-101.577C139.684-99.5675 139.744-96.3375 137.844-94.2575L137.674-94.0775L97.8537-54.2675C95.7837-52.1975 92.4237-52.1975 90.3537-54.2675C88.3437-56.2775 88.2837-59.5075 90.1837-61.5875L90.3537-61.7675L130.174-101.577Z"/>
  </g>
  <g id="Semibold-L" transform="matrix(1 0 0 1 1972.15 1556)">
   <path class="hierarchical-0:secondary SFSymbolsPreview4D4D4D" d="M43.2653-96.72L25.8353-96.72C23.6053-96.72 21.4053-96.25 19.3653-95.35C17.3153-94.44 15.4853-93.13 13.9953-91.48C12.5153-89.87 11.3653-87.92 10.6553-85.81C9.94532-83.72 9.68532-81.48 9.88532-79.26C11.7953-61.2 17.8453-43.9 27.5553-28.63L28.0753-27.83C36.9753-13.81 48.8353-1.86 62.8053 7.18L63.6053 7.69C78.9453 17.64 96.4553 23.87 114.685 25.84C116.965 26.06 119.215 25.8 121.345 25.07C123.455 24.36 125.385 23.22 127.035 21.71C128.685 20.2 129.995 18.36 130.895 16.3C131.775 14.29 132.235 12.09 132.235 9.85L132.235-7.21C132.315-11.04 130.975-14.87 128.425-17.86C125.895-20.85 122.345-22.81 118.445-23.36C113.595-24 108.885-25.14 104.345-26.76L103.445-27.09C100.605-28.17 97.4753-28.4 94.4753-27.77L94.0553-27.67C91.2053-26.97 88.6253-25.54 86.5453-23.49L81.8653-18.81L81.3953-19.1C70.5953-25.93 61.4453-35.08 54.6153-45.88L54.3153-46.35L58.9853-51.02C61.1553-53.22 62.6453-55.97 63.2753-58.97C63.8853-61.81 63.7053-64.77 62.7453-67.54L62.5953-67.95C60.7953-72.78 59.5453-77.8 58.8753-82.9C58.3353-86.78 56.4053-90.3 53.4553-92.84C50.6053-95.29 46.9953-96.66 43.2653-96.72ZM25.8353-87.42L42.9453-87.42C44.5753-87.44 46.1453-86.86 47.3953-85.79C48.6253-84.73 49.4353-83.25 49.6553-81.65C50.4153-75.89 51.8353-70.19 53.8853-64.69C54.3553-63.46 54.4453-62.16 54.1753-60.91C53.9153-59.64 53.2853-58.49 52.3853-57.58L45.1753-50.37C43.6953-48.89 43.3853-46.6 44.4253-44.78C52.9353-29.81 65.3353-17.42 80.2953-8.92C82.1153-7.88 84.4053-8.19 85.8853-9.67L93.1053-16.89C93.9953-17.78 95.1553-18.4 96.4253-18.67C97.6753-18.94 98.9853-18.84 100.165-18.39C105.665-16.34 111.365-14.92 117.185-14.15C118.785-13.92 120.275-13.1 121.335-11.85C122.335-10.67 122.895-9.18 122.935-7.62L122.935 9.85C122.935 10.8 122.745 11.73 122.375 12.57C121.985 13.46 121.435 14.23 120.755 14.85C120.065 15.49 119.255 15.96 118.355 16.27C117.465 16.57 116.535 16.68 115.625 16.59C99.2153 14.81 83.3653 9.25 69.3953 0.36L68.6253-0.14C55.6853-8.36 44.7053-19.25 36.3953-32.08L35.8953-32.85C26.6553-47.13 20.9253-63.32 19.1353-80.16C19.0653-81.02 19.1753-81.96 19.4653-82.83C19.7653-83.73 20.2453-84.54 20.8653-85.21C21.5053-85.92 22.2753-86.47 23.1353-86.85C23.9853-87.22 24.9053-87.42 25.8353-87.42Z"/>
   <path class="hierarchical-1:primary SFSymbolsPreview212121" d="M133.265-102.41C135.765-102.41 137.795-100.44 137.915-97.97L137.915-97.76L137.915-63.63C137.915-61.06 135.835-58.98 133.265-58.98C130.765-58.98 128.735-60.95 128.615-63.42L128.615-63.63L128.615-93.11L99.1453-93.11C96.6453-93.11 94.6153-95.08 94.4953-97.55L94.4953-97.76C94.4953-100.26 96.4653-102.29 98.9353-102.4L99.1453-102.41L133.265-102.41ZM129.975-101.05C131.795-102.86 134.735-102.86 136.555-101.05C138.315-99.29 138.365-96.47 136.715-94.64L136.555-94.47L96.7453-54.66C94.9253-52.84 91.9853-52.84 90.1653-54.66C88.4053-56.42 88.3553-59.24 90.0053-61.06L90.1653-61.24L129.975-101.05Z"/>
  </g>
  <g id="Medium-L" transform="matrix(1 0 0 1 1675.94 1556)">
   <path class="hierarchical-0:secondary SFSymbolsPreview4D4D4D" d="M42.7555-96.17L25.3355-96.17C23.1755-96.17 21.0455-95.72 19.0655-94.85C17.0855-93.96 15.3155-92.69 13.8655-91.1C12.4355-89.54 11.3155-87.65 10.6355-85.6C9.94553-83.58 9.68553-81.41 9.88553-79.25C11.7855-61.29 17.8055-44.07 27.4755-28.87L27.9955-28.05C36.8655-14.09 48.6655-2.19 62.5755 6.81L63.3655 7.31C78.6455 17.22 96.0855 23.43 114.236 25.4C116.446 25.61 118.626 25.35 120.686 24.65C122.726 23.96 124.596 22.85 126.196 21.39C127.796 19.93 129.066 18.14 129.936 16.15C130.796 14.21 131.236 12.07 131.236 9.9L131.236-7.16C131.316-10.88 130.016-14.59 127.546-17.49C125.096-20.39 121.656-22.29 117.876-22.82C112.996-23.46 108.256-24.61 103.686-26.24L102.766-26.58C100.016-27.62 96.9855-27.85 94.0855-27.23L93.6655-27.13C90.9155-26.46 88.4055-25.07 86.3955-23.08L81.4355-18.12L81.3155-18.19C70.1655-25.1 60.7155-34.46 53.6955-45.54L53.1755-46.37L58.1255-51.32C60.2355-53.45 61.6755-56.12 62.2855-59.02C62.8755-61.77 62.7055-64.63 61.7755-67.3L61.6255-67.72C59.8155-72.59 58.5555-77.65 57.8755-82.78C57.3555-86.54 55.4855-89.95 52.6355-92.41C49.8655-94.79 46.3755-96.11 42.7555-96.17ZM25.3355-87.87L42.4355-87.87C44.1855-87.89 45.8855-87.27 47.2255-86.12C48.5455-84.98 49.4155-83.39 49.6555-81.67C50.4055-75.94 51.8255-70.28 53.8555-64.81C54.3555-63.49 54.4555-62.1 54.1655-60.75C53.8855-59.4 53.2155-58.16 52.2455-57.17L45.0355-49.96C43.7055-48.64 43.4355-46.6 44.3555-44.98C52.8255-30.08 65.1555-17.76 80.0455-9.3C81.6655-8.38 83.7055-8.65 85.0255-9.97L92.2455-17.19C93.2155-18.15 94.4555-18.82 95.8255-19.11C97.1655-19.4 98.5655-19.29 99.8455-18.81C105.306-16.77 110.966-15.36 116.756-14.59C118.476-14.35 120.076-13.47 121.216-12.12C122.296-10.85 122.906-9.24 122.936-7.56L122.936 9.9C122.936 10.92 122.726 11.92 122.326 12.83C121.916 13.77 121.326 14.6 120.596 15.27C119.846 15.95 118.976 16.46 118.016 16.79C117.056 17.12 116.056 17.23 115.076 17.14C98.5855 15.35 82.6655 9.76 68.6355 0.83L67.8555 0.33C54.8555-7.93 43.8255-18.87 35.4755-31.76L34.9755-32.53C25.6955-46.87 19.9355-63.14 18.1455-80.06C18.0555-81 18.1755-82.01 18.4955-82.94C18.8155-83.9 19.3255-84.77 19.9955-85.5C20.6855-86.25 21.5055-86.85 22.4355-87.26C23.3455-87.66 24.3355-87.87 25.3355-87.87Z"/>
   <path class="hierarchical-1:primary SFSymbolsPreview212121" d="M132.766-101.86C134.986-101.86 136.806-100.11 136.906-97.92L136.916-97.71L136.916-63.58C136.916-61.29 135.056-59.43 132.766-59.43C130.546-59.43 128.726-61.18 128.626-63.37L128.616-63.58L128.616-93.56L98.6455-93.56C96.4255-93.56 94.6055-95.31 94.5055-97.5L94.4955-97.71C94.4955-99.93 96.2455-101.75 98.4355-101.85L98.6455-101.86L132.766-101.86ZM129.836-100.64C131.456-102.26 134.076-102.26 135.706-100.64C137.266-99.08 137.316-96.57 135.856-94.94L135.706-94.77L95.8955-54.96C94.2655-53.34 91.6455-53.34 90.0255-54.96C88.4555-56.53 88.4055-59.04 89.8655-60.67L90.0255-60.83L129.836-100.64Z"/>
  </g>
  <g id="Regular-L" transform="matrix(1 0 0 1 1379.88 1556)">
   <path class="hierarchical-0:secondary SFSymbolsPreview4D4D4D" d="M42.0979-95.46L24.6879-95.46C22.6179-95.46 20.5779-95.03 18.6879-94.19C16.7879-93.35 15.0879-92.12 13.7079-90.6C12.3279-89.1 11.2579-87.3 10.5979-85.33C9.93786-83.39 9.69786-81.31 9.87786-79.25C11.7679-61.4 17.7579-44.27 27.3679-29.15L27.8879-28.35C36.7179-14.46 48.4579-2.63 62.2879 6.32L63.0679 6.83C78.2679 16.68 95.6079 22.85 113.658 24.81C115.768 25.01 117.858 24.77 119.828 24.1C121.788 23.43 123.578 22.37 125.108 20.97C126.638 19.58 127.858 17.86 128.688 15.96C129.518 14.09 129.938 12.04 129.938 9.96L129.938-7.1C130.018-10.68 128.768-14.23 126.408-17C124.058-19.79 120.758-21.6 117.138-22.11C112.218-22.76 107.428-23.92 102.818-25.57L101.898-25.91C99.2579-26.91 96.3579-27.12 93.5679-26.53L93.1579-26.44C90.5279-25.79 88.1279-24.46 86.2079-22.56L80.8879-17.24L80.3779-17.55C68.8579-24.67 59.1579-34.38 52.0179-45.9L51.7079-46.41L57.0279-51.72C59.0379-53.76 60.4179-56.32 60.9979-59.1C61.5679-61.72 61.3979-64.46 60.5279-67.01L60.3779-67.43C58.5479-72.35 57.2679-77.45 56.5879-82.64C56.0879-86.23 54.2979-89.5 51.5579-91.86C48.9079-94.14 45.5679-95.4 42.0979-95.46ZM24.6879-88.46L41.7879-88.46C43.6879-88.48 45.5379-87.8 46.9979-86.55C48.4479-85.31 49.3879-83.58 49.6479-81.7C50.3979-76.02 51.7979-70.4 53.8179-64.98C54.3579-63.55 54.4779-62.02 54.1579-60.56C53.8479-59.08 53.1179-57.73 52.0579-56.66L44.8479-49.44C43.7279-48.33 43.4979-46.61 44.2779-45.24C52.6879-30.45 64.9379-18.21 79.7179-9.81C81.0879-9.03 82.8079-9.26 83.9279-10.37L91.1479-17.59C92.1979-18.64 93.5479-19.37 95.0379-19.69C96.4979-20 98.0379-19.88 99.4279-19.36C104.838-17.33 110.458-15.94 116.188-15.18C118.078-14.91 119.818-13.95 121.068-12.48C122.248-11.09 122.908-9.33 122.938-7.5L122.938 9.96C122.938 11.07 122.718 12.16 122.278 13.15C121.828 14.17 121.188 15.08 120.388 15.81C119.578 16.55 118.628 17.11 117.578 17.47C116.538 17.82 115.438 17.95 114.368 17.85C97.7679 16.04 81.7579 10.42 67.6379 1.44L66.8579 0.94C53.7779-7.37 42.6679-18.39 34.2779-31.36L33.7779-32.13C24.4479-46.54 18.6479-62.91 16.8479-79.93C16.7579-80.97 16.8879-82.07 17.2279-83.09C17.5779-84.14 18.1379-85.09 18.8679-85.88C19.6179-86.7 20.5079-87.34 21.5179-87.79C22.5179-88.23 23.5979-88.46 24.6879-88.46Z"/>
   <path class="hierarchical-1:primary SFSymbolsPreview212121" d="M132.118-101.15C133.988-101.15 135.518-99.68 135.618-97.84L135.618-97.65L135.618-63.52C135.618-61.59 134.048-60.02 132.118-60.02C130.248-60.02 128.728-61.48 128.628-63.33L128.618-63.52L128.618-94.15L97.9979-94.15C96.1279-94.15 94.6079-95.61 94.5079-97.46L94.4979-97.65C94.4979-99.52 95.9579-101.04 97.8079-101.14L97.9979-101.15L132.118-101.15ZM129.648-100.12C131.008-101.49 133.228-101.49 134.598-100.12C135.908-98.81 135.958-96.7 134.738-95.32L134.598-95.17L94.7879-55.36C93.4179-54 91.1979-54 89.8379-55.36C88.5179-56.68 88.4679-58.79 89.6879-60.16L89.8379-60.31L129.648-100.12Z"/>
  </g>
  <g id="Light-L" transform="matrix(1 0 0 1 1083.97 1556)">
   <path class="hierarchical-0:secondary SFSymbolsPreview4D4D4D" d="M41.3043-94.58L23.8843-94.58C21.9343-94.58 19.9943-94.17 18.2043-93.38C16.4043-92.58 14.8043-91.43 13.4943-89.98C12.1843-88.57 11.1743-86.86 10.5543-85C9.93428-83.16 9.70428-81.2 9.87428-79.24C11.7543-61.52 17.6943-44.52 27.2443-29.5L27.7543-28.7C36.5243-14.91 48.1843-3.16 61.9143 5.73L62.6943 6.23C77.7943 16.02 95.0243 22.15 112.944 24.09C114.924 24.28 116.904 24.05 118.764 23.42C120.624 22.79 122.314 21.79 123.764 20.46C125.214 19.14 126.364 17.52 127.154 15.72C127.934 13.95 128.334 12.01 128.334 10.04L128.334-7.02C128.404-10.42 127.224-13.78 124.994-16.41C122.764-19.04 119.644-20.76 116.224-21.24C111.254-21.9 106.404-23.07 101.744-24.74L100.814-25.08C98.3143-26.03 95.5643-26.23 92.9343-25.67L92.5143-25.57C90.0343-24.96 87.7843-23.7 85.9643-21.91L80.2043-16.15L79.8543-16.36C67.6943-23.73 57.4843-33.93 50.1143-46.1L49.8943-46.45L55.6543-52.21C57.5543-54.14 58.8643-56.55 59.4143-59.18C59.9543-61.67 59.7943-64.26 58.9643-66.67L58.8243-67.07C56.9743-72.05 55.6843-77.21 54.9943-82.45C54.5143-85.85 52.8243-88.95 50.2343-91.18C47.7343-93.32 44.5843-94.52 41.3043-94.58ZM23.8843-89.18L40.9743-89.18C43.0743-89.2 45.1143-88.46 46.7143-87.08C48.3043-85.71 49.3543-83.8 49.6443-81.73C50.3843-76.1 51.7643-70.54 53.7643-65.18C54.3543-63.61 54.4843-61.93 54.1343-60.31C53.7943-58.69 52.9843-57.2 51.8243-56.02L44.6043-48.8C43.7443-47.94 43.5643-46.61 44.1643-45.55C52.5143-30.89 64.6543-18.75 79.3143-10.42C80.3643-9.82 81.6943-10 82.5543-10.86L89.7743-18.08C90.9443-19.23 92.4343-20.04 94.0643-20.39C95.6843-20.73 97.3743-20.61 98.9043-20.03C104.254-18.02 109.814-16.64 115.494-15.89C117.584-15.6 119.504-14.54 120.874-12.92C122.174-11.38 122.904-9.44 122.934-7.42L122.934 10.04C122.934 11.26 122.684 12.46 122.204 13.55C121.714 14.67 121.004 15.67 120.124 16.48C119.224 17.3 118.184 17.91 117.034 18.3C115.884 18.69 114.674 18.84 113.494 18.72C96.7443 16.9 80.6143 11.24 66.3843 2.18L65.6143 1.69C52.4443-6.68 41.2543-17.78 32.7943-30.85L32.3043-31.62C22.9043-46.13 17.0643-62.62 15.2543-79.76C15.1443-80.93 15.2843-82.14 15.6743-83.27C16.0543-84.42 16.6743-85.47 17.4743-86.34C18.2943-87.24 19.2843-87.95 20.3943-88.44C21.4943-88.93 22.6843-89.18 23.8843-89.18Z"/>
   <path class="hierarchical-1:primary SFSymbolsPreview212121" d="M131.314-100.27C132.744-100.27 133.924-99.15 134.004-97.74L134.014-97.57L134.014-63.44C134.014-61.95 132.804-60.74 131.314-60.74C129.884-60.74 128.704-61.86 128.624-63.27L128.614-63.44L128.614-94.87L97.1943-94.87C95.7643-94.87 94.5843-95.99 94.5043-97.4L94.4943-97.57C94.4943-99 95.6143-100.18 97.0243-100.26L97.1943-100.27L131.314-100.27ZM129.404-99.48C130.464-100.53 132.174-100.53 133.224-99.48C134.234-98.47 134.274-96.86 133.354-95.8L133.224-95.66L93.4143-55.85C92.3643-54.8 90.6543-54.8 89.5943-55.85C88.5843-56.86 88.5443-58.47 89.4743-59.53L89.5943-59.67L129.404-99.48Z"/>
  </g>
  <g id="Thin-L" transform="matrix(1 0 0 1 788.307 1556)">
   <path class="hierarchical-0:secondary SFSymbolsPreview4D4D4D" d="M40.2579-93.43L22.8339-93.43C21.0249-93.43 19.2349-93.05 17.5809-92.32C15.9229-91.58 14.4389-90.52 13.2239-89.18C12.0129-87.86 11.0819-86.28 10.5019-84.57C9.92488-82.85 9.70988-81.03 9.87288-79.23C11.7369-61.68 17.6269-44.83 27.0829-29.97L27.5929-29.17C36.2829-15.5 47.8349-3.85 61.4449 4.95L62.2179 5.44C77.1909 15.16 94.2489 21.22 112.007 23.15C113.834 23.33 115.659 23.11 117.384 22.52C119.106 21.94 120.682 21.01 122.013 19.79C123.346 18.57 124.413 17.07 125.143 15.4C125.869 13.74 126.241 11.94 126.233 10.13L126.233-6.92C126.313-10.07 125.216-13.19 123.151-15.62C121.086-18.06 118.197-19.66 115.032-20.1C109.664-20.81 104.424-22.11 99.3969-23.99C97.0789-24.87 94.5459-25.06 92.1029-24.54L91.6969-24.45C89.4109-23.88 87.3269-22.71 85.6579-21.06L79.3239-14.73L78.9729-14.94C66.1139-22.56 55.3749-33.3 47.7399-46.17L47.5319-46.52L53.8609-52.85C55.6169-54.62 56.8239-56.85 57.3439-59.29C57.8639-61.73 57.6739-64.26 56.7979-66.6C54.9169-71.64 53.6119-76.88 52.9079-82.21C52.4629-85.36 50.8969-88.22 48.5009-90.28C46.1999-92.26 43.2829-93.37 40.2579-93.43ZM22.8339-90.13L39.9149-90.13C42.2709-90.15 44.5589-89.32 46.3489-87.78C48.1379-86.24 49.3079-84.1 49.6389-81.77C50.3729-76.2 51.7379-70.72 53.7079-65.44C54.3629-63.69 54.5049-61.8 54.1169-59.98C53.7279-58.16 52.8289-56.5 51.5229-55.18L44.3029-47.96C43.7779-47.43 43.6689-46.62 44.0359-45.97C52.2809-31.47 64.2849-19.47 78.7799-11.23C79.4259-10.87 80.2369-10.98 80.7619-11.5L87.9849-18.72C89.2979-20.02 90.9669-20.92 92.7929-21.32C94.6139-21.7 96.5039-21.56 98.2359-20.91C103.503-18.94 108.985-17.57 114.586-16.83C116.934-16.5 119.091-15.31 120.632-13.49C122.174-11.67 122.994-9.35 122.934-6.96L122.933 10.14C122.939 11.5 122.662 12.84 122.12 14.08C121.574 15.33 120.776 16.45 119.784 17.35C118.79 18.27 117.613 18.96 116.322 19.4C115.037 19.84 113.681 20 112.342 19.87C95.4259 18.03 79.1449 12.32 64.7819 3.17L63.9999 2.67C50.7109-5.78 39.4149-16.98 30.8689-30.18L30.3699-30.95C20.8899-45.59 14.9969-62.23 13.1569-79.55C13.0379-80.87 13.1979-82.23 13.6289-83.51C14.0609-84.79 14.7559-85.97 15.6599-86.95C16.5709-87.95 17.6769-88.75 18.9179-89.3C20.1509-89.85 21.4859-90.13 22.8339-90.13Z"/>
   <path class="hierarchical-1:primary SFSymbolsPreview212121" d="M130.27-99.12C131.133-99.12 131.842-98.46 131.914-97.61L131.92-97.47L131.92-63.34C131.92-62.43 131.181-61.69 130.27-61.69C129.407-61.69 128.698-62.35 128.626-63.2L128.62-63.34L128.62-95.82L96.1459-95.82C95.2829-95.82 94.5739-96.48 94.5019-97.33L94.4959-97.47C94.4959-98.33 95.1589-99.04 96.0039-99.11L96.1459-99.12L130.27-99.12ZM129.104-98.64C129.748-99.28 130.793-99.28 131.437-98.64C132.044-98.03 132.079-97.07 131.544-96.42L131.437-96.3L91.6249-56.49C90.9809-55.85 89.9359-55.85 89.2919-56.49C88.6849-57.1 88.6499-58.06 89.1849-58.71L89.2919-58.83L129.104-98.64Z"/>
  </g>
  <g id="Ultralight-L" transform="matrix(1 0 0 1 492.146 1556)">
   <path class="hierarchical-0:secondary SFSymbolsPreview4D4D4D" d="M39.3357-92.8275L22.2837-92.8275C20.5517-92.8275 18.8377-92.4675 17.2527-91.7675C15.6647-91.0575 14.2437-90.0375 13.0797-88.7575C11.9197-87.4975 11.0277-85.9775 10.4727-84.3375C9.91969-82.6975 9.71469-80.9475 9.87069-79.2275C11.7237-61.7775 17.5857-45.0075 26.9957-30.2075L27.5037-29.4175C36.1517-15.8175 47.6417-4.2275 61.1787 4.5325L61.9617 5.0325C76.8677 14.7025 93.8427 20.7325 111.516 22.6525C113.259 22.8225 115.005 22.6125 116.657 22.0525C118.307 21.4925 119.816 20.6025 121.092 19.4325C122.368 18.2625 123.39 16.8325 124.089 15.2325C124.785 13.6425 125.141 11.9225 125.133 10.1825L125.133-6.8675C125.21-9.8975 124.158-12.8875 122.181-15.2175C120.203-17.5575 117.436-19.0775 114.405-19.5075C109-20.2175 103.72-21.5375 98.6547-23.4275C96.4327-24.2675 94.0067-24.4475 91.6667-23.9575L91.2547-23.8575C89.0747-23.3075 87.0867-22.1975 85.4947-20.6175L78.8617-13.9875L78.1417-14.4175C64.9647-22.2275 53.9987-33.2975 46.2927-46.5575L52.9207-53.1875C54.6017-54.8775 55.7577-57.0175 56.2557-59.3575C56.7537-61.6975 56.5717-64.1175 55.7327-66.3575C53.8367-71.4375 52.5217-76.7175 51.8127-82.0875C51.3867-85.0975 49.8867-87.8375 47.5917-89.8075C45.2967-91.7875 42.3607-92.8575 39.3357-92.8275ZM22.2837-90.6275L39.3587-90.6275C41.8487-90.6575 44.2667-89.7675 46.1577-88.1475C48.0477-86.5175 49.2827-84.2575 49.6327-81.7975C50.3627-76.2575 51.7177-70.8175 53.6727-65.5875C54.3647-63.7375 54.5137-61.7375 54.1037-59.8175C53.6937-57.8975 52.7427-56.1375 51.3627-54.7475L44.1417-47.5175C43.7917-47.1675 43.7187-46.6275 43.9637-46.1975C52.1597-31.7775 64.0927-19.8475 78.5017-11.6575C78.9317-11.4175 79.4727-11.4875 79.8227-11.8375L87.0457-19.0575C88.4357-20.4375 90.1977-21.3875 92.1267-21.8075C94.0517-22.2075 96.0497-22.0575 97.8797-21.3675C103.106-19.4175 108.548-18.0575 114.107-17.3275C116.595-16.9775 118.873-15.7175 120.502-13.7975C122.131-11.8775 122.997-9.4175 122.934-6.8975L122.933 10.1925C122.94 11.6225 122.646 13.0425 122.073 14.3525C121.497 15.6625 120.655 16.8525 119.605 17.8125C118.555 18.7725 117.312 19.5025 115.949 19.9725C114.591 20.4325 113.156 20.6025 111.739 20.4625C94.7317 18.6225 78.3707 12.8725 63.9357 3.6825L63.1507 3.1825C49.7987-5.3075 38.4457-16.5575 29.8577-29.8275L29.3557-30.6075C19.8307-45.3175 13.9087-62.0375 12.0597-79.4475C11.9327-80.8475 12.1027-82.2875 12.5577-83.6375C13.0147-84.9875 13.7477-86.2375 14.7037-87.2775C15.6657-88.3275 16.8347-89.1675 18.1447-89.7475C19.4487-90.3275 20.8587-90.6275 22.2837-90.6275Z"/>
   <path class="hierarchical-1:primary SFSymbolsPreview212121" d="M129.72-98.5175C130.287-98.5175 130.754-98.0875 130.813-97.5375L130.82-97.4175L130.82-63.2875C130.82-62.6775 130.327-62.1875 129.72-62.1875C129.153-62.1875 128.686-62.6175 128.626-63.1675L128.62-63.2875L128.62-96.3175L95.5957-96.3175C95.0287-96.3175 94.5617-96.7475 94.5017-97.2975L94.4957-97.4175C94.4957-97.9875 94.9247-98.4475 95.4757-98.5075L95.5957-98.5175L129.72-98.5175ZM128.943-98.1975C129.372-98.6275 130.069-98.6275 130.498-98.1975C130.897-97.7975 130.926-97.1675 130.584-96.7375L130.498-96.6375L90.6857-56.8275C90.2567-56.3975 89.5597-56.3975 89.1307-56.8275C88.7317-57.2275 88.7027-57.8575 89.0447-58.2875L89.1307-58.3875L128.943-98.1975Z"/>
  </g>
  <g id="Black-M" transform="matrix(1 0 0 1 2872.63 1126)">
   <path class="hierarchical-0:secondary SFSymbolsPreview4D4D4D" d="M39.1642-87.16L25.8342-87.16C23.6142-87.16 21.4042-86.69 19.3742-85.79C17.3442-84.9 15.5242-83.59 14.0142-81.94C12.5042-80.28 11.3542-78.33 10.6542-76.21C9.95422-74.17 9.68422-71.93 9.88422-69.7L9.89422-69.58C11.4842-54.67 16.5542-40.35 24.6942-27.78C31.9242-16.41 41.5542-6.7 52.8842 0.65L53.6242 1.12C66.0842 9.21 80.3442 14.28 95.1742 15.89L95.3142 15.9C97.5442 16.1 99.7942 15.84 101.904 15.12C103.994 14.41 105.924 13.27 107.574 11.76C109.234 10.23 110.534 8.41 111.424 6.37L111.614 5.93C112.384 4.02 112.774 1.98 112.774-0.09L112.774-13.32C112.864-17.24 111.514-21.06 108.984-24.05C106.434-27.06 102.884-29.01 98.9942-29.57C95.4542-30.03 92.0142-30.86 88.6942-32.03L87.9342-32.31C85.1042-33.38 81.9942-33.62 78.9942-32.99L78.5642-32.89C75.7042-32.19 73.1142-30.74 71.0442-28.69L69.3442-27L69.0042-27.23C62.6942-31.61 57.2242-37.08 52.8442-43.39L52.6142-43.73L54.2842-45.41C56.4642-47.6 57.9542-50.35 58.5942-53.34C59.2042-56.23 59.0142-59.19 58.0742-61.93L57.9242-62.34C56.6042-65.88 55.6842-69.56 55.1942-73.31C54.6242-77.24 52.7042-80.76 49.7642-83.28C46.8342-85.82 43.0642-87.19 39.1642-87.16ZM25.8342-72.96L39.2842-72.96C39.7442-72.96 40.1642-72.81 40.4842-72.53C40.8442-72.23 41.0642-71.82 41.1242-71.37C41.7442-66.65 42.9242-61.92 44.6242-57.36C44.7542-57.02 44.7842-56.65 44.7042-56.3C44.6442-55.99 44.4642-55.68 44.2242-55.43L38.5842-49.78C36.3242-47.52 35.8542-44.03 37.4342-41.25C44.4142-28.97 54.5842-18.8 66.8642-11.82C69.6442-10.24 73.1342-10.71 75.3942-12.96L81.0642-18.62C81.2942-18.85 81.6042-19.02 81.9542-19.1C82.2642-19.16 82.6242-19.14 82.9442-19.02C87.5342-17.31 92.2642-16.13 97.0742-15.5C97.4442-15.45 97.8642-15.22 98.1542-14.87C98.4342-14.54 98.5842-14.1 98.5742-13.64L98.5742-13.48L98.5742-0.09C98.5742 0.19 98.5242 0.44 98.4242 0.67C98.3142 0.91 98.1642 1.12 97.9642 1.3C97.7942 1.46 97.5742 1.59 97.3242 1.68L97.1842 1.72C97.0442 1.75 96.8942 1.77 96.7342 1.77L96.6042 1.76L96.7142 1.77C84.3542 0.43 72.4842-3.73 61.9942-10.38L61.2942-10.83C51.3442-17.15 42.9442-25.55 36.6442-35.45L36.1942-36.15C29.6442-46.49 25.5242-58.14 24.1042-70.25L24.0242-70.96C24.0042-71.21 24.0342-71.45 24.1142-71.68C24.2042-71.97 24.3342-72.18 24.5042-72.36C24.6742-72.56 24.8742-72.7 25.0942-72.8C25.3442-72.91 25.5942-72.96 25.8342-72.96Z"/>
   <path class="hierarchical-1:primary SFSymbolsPreview212121" d="M110.134-91.62C113.974-91.62 117.104-88.57 117.234-84.76L117.234-84.52L117.234-57.75C117.234-53.83 114.054-50.65 110.134-50.65C106.294-50.65 103.164-53.7 103.034-57.51L103.034-57.75L103.034-77.42L83.3642-77.42C79.5242-77.42 76.3942-80.47 76.2642-84.28L76.2642-84.52C76.2642-88.36 79.3142-91.49 83.1242-91.62L83.3642-91.62L110.134-91.62ZM105.114-89.54C107.884-92.31 112.384-92.31 115.154-89.54C117.864-86.83 117.924-82.47 115.334-79.69L115.154-79.5L83.9142-48.27C81.1442-45.5 76.6442-45.5 73.8742-48.27C71.1642-50.98 71.1042-55.34 73.6942-58.12L73.8742-58.31L105.114-89.54Z"/>
  </g>
  <g id="Heavy-M" transform="matrix(1 0 0 1 2576.77 1126)">
   <path class="hierarchical-0:secondary SFSymbolsPreview4D4D4D" d="M38.3166-86.23L24.9966-86.23C22.8866-86.23 20.7966-85.79 18.8666-84.94C16.9466-84.09 15.2166-82.85 13.7866-81.28C12.3666-79.72 11.2766-77.87 10.6166-75.86C9.9466-73.92 9.6966-71.81 9.8766-69.7L9.8966-69.59C11.4366-55.1 16.2966-41.18 24.0866-28.9L24.5566-28.16C31.7266-16.89 41.2666-7.27 52.4966 0.01L53.2366 0.49C65.5966 8.5 79.7166 13.53 94.4266 15.12L94.5466 15.14C96.6566 15.32 98.7866 15.08 100.777 14.39C102.757 13.72 104.597 12.64 106.147 11.22C107.717 9.77 108.957 8.04 109.797 6.11L109.977 5.7C110.707 3.88 111.077 1.95 111.077-0.01L111.077-13.26C111.157-16.97 109.887-20.59 107.497-23.42C105.067-26.27 101.707-28.12 98.0266-28.65C94.4366-29.12 90.9466-29.96 87.5666-31.15L86.7866-31.44C84.1066-32.45 81.1566-32.67 78.3266-32.08L77.8966-31.98C75.1966-31.32 72.7466-29.95 70.7966-28.01L68.6066-25.82L68.3566-25.99C61.4466-30.65 55.4966-36.6 50.8366-43.51L50.6666-43.76L52.8366-45.93C54.8966-48.01 56.3066-50.61 56.9166-53.44C57.5166-56.31 57.2966-59.26 56.2766-61.96C54.9366-65.56 53.9966-69.31 53.5066-73.12C52.9666-76.84 51.1466-80.17 48.3566-82.56C45.5866-84.96 42.0166-86.26 38.3166-86.23ZM24.9966-73.73L38.4366-73.73C39.0966-73.74 39.7166-73.51 40.1966-73.09C40.7066-72.66 41.0266-72.07 41.1166-71.41C41.7266-66.75 42.8966-62.07 44.5766-57.58C44.7566-57.09 44.7966-56.56 44.6866-56.04C44.5866-55.57 44.3366-55.11 43.9766-54.75L38.3366-49.1C36.3466-47.11 35.9366-44.03 37.3266-41.59C44.2266-29.44 54.2866-19.38 66.4366-12.48C68.8866-11.09 71.9566-11.5 73.9466-13.49L79.6166-19.15C79.9566-19.49 80.4166-19.74 80.9266-19.85C81.3966-19.95 81.9266-19.91 82.3966-19.73C86.9266-18.05 91.5966-16.88 96.3366-16.26C96.9266-16.18 97.5266-15.85 97.9566-15.34C98.3666-14.85 98.5966-14.21 98.5766-13.54L98.5766-13.4L98.5766-0.01C98.5766 0.38 98.4966 0.76 98.3566 1.09C98.1966 1.44 97.9766 1.75 97.6966 2.01C97.4366 2.25 97.1066 2.44 96.7466 2.56L96.5466 2.62C96.3366 2.67 96.1166 2.7 95.8766 2.7L95.6766 2.69L95.7666 2.7C83.2866 1.34 71.2866-2.86 60.6966-9.58L59.9866-10.03C50.1666-16.27 41.8466-24.51 35.5266-34.22L34.6366-35.61C28.0166-46.06 23.8466-57.84 22.4166-70.09L22.3366-70.8C22.2966-71.17 22.3466-71.53 22.4566-71.88C22.5866-72.27 22.7766-72.59 23.0266-72.86C23.2766-73.14 23.5766-73.35 23.9066-73.5C24.2566-73.65 24.6266-73.73 24.9966-73.73Z"/>
   <path class="hierarchical-1:primary SFSymbolsPreview212121" d="M109.287-90.69C112.667-90.69 115.417-88.01 115.537-84.67L115.537-84.44L115.537-57.67C115.537-54.22 112.737-51.42 109.287-51.42C105.907-51.42 103.157-54.1 103.037-57.44L103.037-57.67L103.037-78.19L82.5166-78.19C79.1366-78.19 76.3866-80.87 76.2666-84.21L76.2666-84.44C76.2666-87.82 78.9466-90.57 82.2866-90.69L82.5166-90.69L109.287-90.69ZM104.867-88.86C107.307-91.3 111.267-91.3 113.707-88.86C116.087-86.48 116.147-82.66 113.887-80.21L113.707-80.02L82.4666-48.79C80.0266-46.35 76.0666-46.35 73.6266-48.79C71.2466-51.17 71.1866-54.99 73.4466-57.44L73.6266-57.63L104.867-88.86Z"/>
  </g>
  <g id="Bold-M" transform="matrix(1 0 0 1 2281 1126)">
   <path class="hierarchical-0:secondary SFSymbolsPreview4D4D4D" d="M37.3771-85.1875L24.0471-85.1875C22.0671-85.1875 20.1071-84.7675 18.3071-83.9775C16.5071-83.1875 14.8871-82.0175 13.5471-80.5475C12.2071-79.0875 11.1871-77.3475 10.5671-75.4675C9.94707-73.6475 9.69707-71.6575 9.87707-69.6875C11.4171-55.2575 16.2271-41.4675 23.9471-29.3075L24.4071-28.5875C31.5071-17.4275 40.9471-7.8975 52.0671-0.6875L52.7971-0.2275C65.0371 7.7225 79.0171 12.6925 93.5771 14.2725C95.6271 14.4725 97.6371 14.2325 99.5171 13.5925C101.377 12.9625 103.097 11.9425 104.557 10.6125C106.027 9.2525 107.187 7.6325 107.977 5.8225L108.157 5.4025C108.837 3.7125 109.177 1.9125 109.177 0.0825L109.177-13.1875C109.257-16.6675 108.057-20.0575 105.817-22.7175C103.547-25.3875 100.397-27.1175 96.9471-27.6175C93.0071-28.1275 89.1871-29.0775 85.5071-30.4475C82.9971-31.3975 80.2271-31.6075 77.5671-31.0575L77.1471-30.9575C74.6271-30.3375 72.3471-29.0475 70.5171-27.2375L67.7771-24.5075L67.4771-24.6975C60.0071-29.6275 53.6171-36.0175 48.6971-43.4875L48.4971-43.7875L51.2171-46.5075C53.1471-48.4575 54.4671-50.8875 55.0371-53.5475C55.5671-56.0975 55.4071-58.7075 54.5771-61.1375L54.4371-61.5375C53.0671-65.1975 52.1171-69.0175 51.6171-72.8975C51.1071-76.3775 49.4071-79.4975 46.7971-81.7475C44.1771-83.9975 40.8271-85.2175 37.3771-85.1875ZM24.0471-74.5875L37.4771-74.5875C38.3571-74.5975 39.2171-74.2775 39.8771-73.7075C40.5471-73.1375 40.9871-72.3375 41.1071-71.4475C41.7171-66.8475 42.8571-62.2475 44.5071-57.8175C44.7571-57.1575 44.8171-56.4375 44.6671-55.7575C44.5271-55.1075 44.1871-54.4775 43.7071-53.9875L38.0571-48.3275C36.3671-46.6475 36.0171-44.0375 37.1971-41.9675C44.0171-29.9675 53.9571-20.0275 65.9571-13.2075C68.0271-12.0275 70.6371-12.3775 72.3171-14.0675L77.9871-19.7275C78.4671-20.1975 79.0971-20.5375 79.7771-20.6875C80.4371-20.8275 81.1471-20.7675 81.7871-20.5275C86.2371-18.8675 90.8371-17.7175 95.5071-17.1075C96.3371-16.9875 97.1471-16.5475 97.7271-15.8675C98.2971-15.1975 98.5971-14.3275 98.5771-13.4275L98.5771-13.3075L98.5771 0.0825C98.5771 0.6025 98.4771 1.1125 98.2771 1.5625C98.0671 2.0325 97.7671 2.4525 97.3971 2.8025C97.0271 3.1325 96.5871 3.3925 96.1071 3.5525C95.6271 3.7125 95.1371 3.7725 94.6571 3.7325C82.0871 2.3625 69.9371-1.8875 59.2171-8.6975L58.5171-9.1375C48.5971-15.4475 40.1771-23.7875 33.7771-33.6075L33.3271-34.3075C26.2271-45.2775 21.8071-57.7475 20.4271-70.7175C20.3871-71.1175 20.4571-71.6275 20.6171-72.0875C20.7771-72.5975 21.0371-73.0375 21.3771-73.4075C21.7171-73.7775 22.1271-74.0775 22.5771-74.2675C23.0471-74.4775 23.5471-74.5875 24.0471-74.5875Z"/>
   <path class="hierarchical-1:primary SFSymbolsPreview212121" d="M108.337-89.6475C111.187-89.6475 113.517-87.3875 113.637-84.5675L113.637-84.3475L113.637-57.5775C113.637-54.6475 111.267-52.2775 108.337-52.2775C105.487-52.2775 103.157-54.5275 103.037-57.3575L103.037-57.5775L103.037-79.0475L81.5671-79.0475C78.7171-79.0475 76.3871-81.2975 76.2671-84.1275L76.2671-84.3475C76.2671-87.1975 78.5271-89.5275 81.3471-89.6375L81.5671-89.6475L108.337-89.6475ZM104.587-88.0975C106.657-90.1675 110.017-90.1675 112.087-88.0975C114.097-86.0875 114.157-82.8575 112.257-80.7775L112.087-80.5975L80.8471-49.3575C78.7771-47.2875 75.4171-47.2875 73.3471-49.3575C71.3371-51.3675 71.2771-54.5975 73.1771-56.6775L73.3471-56.8575L104.587-88.0975Z"/>
  </g>
  <g id="Semibold-M" transform="matrix(1 0 0 1 1984.94 1126)">
   <path class="hierarchical-0:secondary SFSymbolsPreview4D4D4D" d="M36.7345-84.47L23.3845-84.47C21.5045-84.47 19.6445-84.08 17.9145-83.32C16.1745-82.54 14.6145-81.43 13.3545-80.02C12.1045-78.68 11.1445-77.03 10.5345-75.23C9.93448-73.43 9.70448-71.54 9.87448-69.67C11.3945-55.36 16.1745-41.66 23.8345-29.59L24.3045-28.87C31.3445-17.79 40.7145-8.34 51.7545-1.18L52.4945-0.7C64.6445 7.19 78.5245 12.13 92.9945 13.69C94.9245 13.88 96.8445 13.66 98.6445 13.05C100.444 12.44 102.094 11.46 103.474 10.18C104.854 8.92 105.974 7.36 106.734 5.63L106.904 5.23C107.554 3.6 107.874 1.87 107.864 0.11L107.864-13.24L107.864-13.11C107.954-16.45 106.814-19.7 104.644-22.24C102.514-24.77 99.5045-26.43 96.2045-26.9C92.2245-27.42 88.3645-28.38 84.6345-29.78C82.2145-30.68 79.5845-30.88 77.0545-30.35L76.6545-30.26C74.2545-29.66 72.0745-28.45 70.3245-26.72L67.2145-23.61L67.0845-23.69C59.0645-28.85 52.2445-35.66 47.0845-43.68L47.0045-43.8L50.1045-46.9C51.9545-48.76 53.2145-51.1 53.7445-53.64C54.2545-56.02 54.1145-58.52 53.3245-60.83L53.1745-61.24C51.7945-64.94 50.8245-68.81 50.3045-72.75C49.8445-76.05 48.2145-79.04 45.7145-81.18C43.2045-83.33 40.0145-84.5 36.7345-84.47ZM23.3845-75.17L36.8145-75.17C37.8545-75.18 38.8645-74.81 39.6645-74.12C40.4345-73.46 40.9445-72.52 41.0945-71.5C41.7045-66.9 42.8345-62.35 44.4645-57.97C44.7545-57.2 44.8245-56.37 44.6545-55.58C44.4745-54.77 44.0845-54.04 43.5145-53.46L37.8545-47.81C36.3745-46.33 36.0645-44.04 37.1045-42.22C43.8645-30.32 53.7245-20.47 65.6245-13.7C67.4445-12.67 69.7345-12.98 71.2145-14.46L76.8745-20.12C77.4445-20.68 78.1845-21.08 78.9845-21.25C79.7645-21.42 80.6045-21.35 81.3745-21.06C85.7745-19.42 90.3145-18.29 94.9445-17.69C95.9345-17.55 96.8845-17.02 97.5545-16.23C98.1845-15.48 98.5345-14.56 98.5645-13.61L98.5645 0.15C98.5745 0.78 98.4545 1.36 98.2145 1.89C97.9745 2.44 97.6245 2.93 97.1945 3.33C96.7445 3.74 96.2245 4.05 95.6645 4.24C95.0945 4.43 94.5145 4.5 93.9445 4.44C81.2545 3.07 69.0145-1.22 58.2245-8.08L57.5145-8.53C47.5045-14.89 39.0145-23.29 32.5745-33.2L32.1345-33.89C24.9645-44.95 20.5245-57.51 19.1245-70.58C19.0845-71.09 19.1545-71.7 19.3445-72.27C19.5345-72.83 19.8345-73.34 20.2245-73.75C20.6445-74.22 21.1245-74.57 21.6645-74.81C22.2145-75.04 22.7945-75.17 23.3845-75.17Z"/>
   <path class="hierarchical-1:primary SFSymbolsPreview212121" d="M107.684-88.93C110.184-88.93 112.214-86.96 112.334-84.49L112.334-84.28L112.334-57.51C112.334-54.94 110.254-52.86 107.684-52.86C105.184-52.86 103.154-54.83 103.034-57.3L103.034-57.51L103.034-79.63L80.9045-79.63C78.4045-79.63 76.3745-81.6 76.2545-84.07L76.2545-84.28C76.2545-86.78 78.2245-88.81 80.6945-88.92L80.9045-88.93L107.684-88.93ZM104.394-87.57C106.214-89.38 109.154-89.38 110.974-87.57C112.734-85.81 112.784-82.99 111.134-81.16L110.974-80.99L79.7345-49.75C77.9145-47.93 74.9745-47.93 73.1545-49.75C71.3945-51.51 71.3445-54.33 72.9945-56.15L73.1545-56.33L104.394-87.57Z"/>
  </g>
  <g id="Medium-M" transform="matrix(1 0 0 1 1688.73 1126)">
   <path class="hierarchical-0:secondary SFSymbolsPreview4D4D4D" d="M36.2319-83.92L22.8819-83.92C21.0719-83.92 19.2819-83.54 17.6119-82.81C15.9319-82.07 14.4419-80.99 13.2219-79.64C12.0219-78.34 11.0919-76.76 10.5019-75.02C9.92189-73.29 9.71189-71.46 9.87189-69.67C11.3819-55.44 16.1319-41.83 23.7519-29.82L24.2219-29.09C31.2219-18.07 40.5419-8.67 51.5219-1.55L52.2619-1.07C64.3419 6.77 78.1519 11.69 92.5419 13.25C94.4019 13.43 96.2419 13.21 97.9819 12.62C99.7119 12.04 101.302 11.1 102.642 9.86C103.972 8.65 105.042 7.15 105.772 5.48L105.932 5.09C106.562 3.53 106.872 1.86 106.862 0.17L106.862-13.19L106.862-13.07C106.952-16.29 105.852-19.42 103.762-21.87C101.712-24.3 98.8119-25.9 95.6319-26.36C91.6219-26.88 87.7219-27.85 83.9519-29.26C81.6219-30.13 79.0919-30.32 76.6519-29.81L76.2419-29.72C73.9419-29.14 71.8519-27.97 70.1719-26.32L66.7819-22.92L66.3719-23.18C58.2419-28.39 51.3419-35.3 46.1219-43.42L45.8719-43.83L49.2519-47.2C51.0219-49 52.2419-51.25 52.7519-53.7C53.2519-55.99 53.1019-58.39 52.3419-60.62L52.2019-61.01C50.8119-64.75 49.8319-68.66 49.3019-72.64C48.8619-75.81 47.2919-78.69 44.8919-80.76C42.4719-82.82 39.3919-83.95 36.2319-83.92ZM22.8819-75.62L36.3119-75.62C37.4619-75.63 38.5919-75.22 39.4819-74.45C40.3519-73.71 40.9219-72.66 41.0819-71.51C41.6919-66.95 42.8119-62.44 44.4319-58.1C44.7619-57.24 44.8319-56.31 44.6319-55.42C44.4419-54.52 44.0119-53.71 43.3619-53.06L37.7119-47.4C36.3919-46.08 36.1119-44.04 37.0319-42.42C43.7519-30.59 53.5419-20.81 65.3719-14.09C66.9919-13.17 69.0319-13.44 70.3619-14.76L76.0219-20.42C76.6519-21.05 77.4819-21.5 78.3819-21.69C79.2519-21.88 80.1819-21.81 81.0419-21.48C85.4119-19.85 89.9219-18.73 94.5019-18.13C95.6219-17.97 96.6819-17.39 97.4319-16.5C98.1419-15.66 98.5419-14.63 98.5619-13.55L98.5619 0.2C98.5719 0.9 98.4319 1.55 98.1719 2.14C97.9019 2.76 97.5119 3.3 97.0219 3.75C96.5219 4.21 95.9519 4.55 95.3219 4.76C94.6919 4.98 94.0319 5.05 93.3919 4.99C80.6219 3.61 68.3119-0.71 57.4519-7.61L56.7419-8.06C46.6719-14.45 38.1219-22.91 31.6519-32.88L31.2019-33.57C24.0019-44.69 19.5319-57.33 18.1319-70.48C18.0819-71.06 18.1619-71.74 18.3719-72.38C18.5819-73 18.9219-73.57 19.3519-74.04C19.8119-74.56 20.3519-74.94 20.9619-75.21C21.5719-75.48 22.2219-75.62 22.8819-75.62Z"/>
   <path class="hierarchical-1:primary SFSymbolsPreview212121" d="M107.182-88.38C109.402-88.38 111.222-86.63 111.332-84.44L111.332-84.23L111.332-57.46C111.332-55.17 109.472-53.31 107.182-53.31C104.962-53.31 103.142-55.06 103.042-57.25L103.032-57.46L103.032-80.08L80.4019-80.08C78.1819-80.08 76.3619-81.83 76.2619-84.02L76.2519-84.23C76.2519-86.45 78.0019-88.27 80.1919-88.37L80.4019-88.38L107.182-88.38ZM104.252-87.16C105.872-88.78 108.492-88.78 110.112-87.16C111.682-85.6 111.732-83.09 110.272-81.46L110.112-81.29L78.8719-50.05C77.2519-48.43 74.6319-48.43 73.0119-50.05C71.4419-51.62 71.3919-54.13 72.8519-55.76L73.0119-55.92L104.252-87.16Z"/>
  </g>
  <g id="Regular-M" transform="matrix(1 0 0 1 1392.67 1126)">
   <path class="hierarchical-0:secondary SFSymbolsPreview4D4D4D" d="M35.5971-83.21L22.2371-83.21C20.5171-83.21 18.8171-82.85 17.2271-82.16C15.6371-81.45 14.2171-80.43 13.0571-79.14C11.9171-77.91 11.0271-76.4 10.4771-74.75C9.92706-73.11 9.71706-71.37 9.86706-69.67C11.3771-55.55 16.0871-42.03 23.6571-30.11L24.1171-29.39C31.0771-18.44 40.3271-9.1 51.2271-2.03L51.9571-1.57C63.9671 6.23 77.6771 11.11 91.9671 12.66C93.7271 12.83 95.4771 12.63 97.1271 12.06C98.7771 11.51 100.277 10.61 101.547 9.44C102.817 8.29 103.837 6.86 104.537 5.28C105.227 3.69 105.577 1.97 105.567 0.23L105.567-13.13C105.647-16.09 104.607-19.06 102.627-21.39C100.667-23.7 97.9171-25.22 94.8971-25.65C90.8371-26.18 86.8971-27.17 83.0771-28.59C80.8671-29.42 78.4571-29.6 76.1371-29.12L75.7271-29.02C73.5571-28.47 71.5771-27.36 69.9871-25.8L66.2271-22.04L65.9871-22.18C57.3171-27.62 49.9771-34.95 44.5371-43.63L44.3971-43.86L48.1371-47.6C49.8271-49.31 50.9871-51.44 51.4771-53.77C51.9371-55.94 51.8071-58.22 51.0971-60.33L50.9471-60.73C49.5371-64.51 48.5571-68.47 48.0171-72.49C47.5971-75.51 46.1071-78.24 43.8171-80.2C41.5171-82.17 38.5971-83.24 35.5971-83.21ZM22.2371-76.21L35.6571-76.21C36.9671-76.22 38.2471-75.75 39.2671-74.89C40.2471-74.04 40.8971-72.85 41.0771-71.55C41.6871-67.03 42.7971-62.56 44.3971-58.27C44.7671-57.29 44.8471-56.24 44.6271-55.23C44.4071-54.21 43.9071-53.28 43.1771-52.54L37.5271-46.88C36.4071-45.77 36.1771-44.05 36.9571-42.68C43.6171-30.96 53.3271-21.26 65.0471-14.6C66.4171-13.82 68.1371-14.05 69.2471-15.16L74.9071-20.82C75.6371-21.54 76.5771-22.05 77.5971-22.27C78.5971-22.48 79.6571-22.4 80.6271-22.03C84.9471-20.42 89.4071-19.31 93.9471-18.72C95.2271-18.54 96.4271-17.87 97.2871-16.86C98.0971-15.91 98.5471-14.72 98.5671-13.49L98.5671 0.26C98.5771 1.04 98.4171 1.78 98.1171 2.46C97.8171 3.16 97.3771 3.78 96.8171 4.29C96.2571 4.8 95.5971 5.19 94.8871 5.44C94.1671 5.68 93.4171 5.77 92.6871 5.7C79.8071 4.3 67.3971-0.05 56.4571-7L55.7471-7.46C45.5971-13.9 36.9871-22.42 30.4671-32.46L30.0071-33.17C22.7571-44.36 18.2471-57.1 16.8371-70.35C16.7771-71.04 16.8671-71.8 17.1071-72.52C17.3471-73.24 17.7371-73.89 18.2271-74.43C18.7471-75 19.3671-75.44 20.0571-75.75C20.7471-76.05 21.4871-76.21 22.2371-76.21Z"/>
   <path class="hierarchical-1:primary SFSymbolsPreview212121" d="M106.537-87.67C108.407-87.67 109.927-86.21 110.027-84.36L110.037-84.17L110.037-57.4C110.037-55.47 108.467-53.9 106.537-53.9C104.667-53.9 103.137-55.36 103.037-57.21L103.037-57.4L103.037-80.67L79.7571-80.67C77.8871-80.67 76.3571-82.13 76.2571-83.98L76.2571-84.17C76.2571-86.04 77.7171-87.57 79.5671-87.66L79.7571-87.67L106.537-87.67ZM104.057-86.64C105.427-88.01 107.647-88.01 109.007-86.64C110.327-85.33 110.377-83.22 109.157-81.84L109.007-81.7L77.7671-50.46C76.4071-49.09 74.1871-49.09 72.8171-50.46C71.5071-51.77 71.4571-53.88 72.6771-55.26L72.8171-55.4L104.057-86.64Z"/>
  </g>
  <g id="Light-M" transform="matrix(1 0 0 1 1096.76 1126)">
   <path class="hierarchical-0:secondary SFSymbolsPreview4D4D4D" d="M34.8046-82.33L21.4346-82.33C19.8246-82.33 18.2346-81.99 16.7546-81.34C15.2546-80.68 13.9346-79.73 12.8546-78.53C11.7746-77.37 10.9546-75.96 10.4246-74.42C9.91464-72.88 9.72464-71.25 9.86464-69.66C11.3546-55.68 16.0346-42.28 23.5246-30.46L23.9846-29.74C30.8846-18.88 40.0546-9.63 50.8646-2.62L51.5846-2.16C63.4946 5.57 77.0846 10.41 91.2546 11.95C92.8946 12.11 94.5246 11.91 96.0746 11.39C97.6046 10.87 99.0146 10.03 100.205 8.93C101.395 7.85 102.345 6.52 102.995 5.04C103.645 3.55 103.975 1.94 103.965 0.32L103.965-13.05C104.045-15.83 103.065-18.61 101.215-20.79C99.3846-22.96 96.8046-24.38 93.9746-24.78C89.8746-25.32 85.8746-26.31 81.9946-27.76C79.9246-28.54 77.6746-28.71 75.5046-28.25L75.1146-28.16C73.0846-27.65 71.2346-26.61 69.7446-25.14L65.5446-20.95L65.3946-21.04C56.1246-26.7 48.3446-34.49 42.6746-43.75L42.5846-43.9L46.7746-48.09C48.3546-49.68 49.4346-51.68 49.8846-53.86C50.3546-56.02 50.1846-58.28 49.4046-60.36C47.9646-64.21 46.9646-68.22 46.4246-72.31C46.0246-75.12 44.6346-77.68 42.4946-79.52C40.3446-81.36 37.6146-82.35 34.8046-82.33ZM21.4346-76.93L34.8446-76.93C36.3546-76.94 37.8246-76.41 38.9846-75.42C40.1146-74.44 40.8646-73.07 41.0746-71.58C41.6646-67.11 42.7646-62.7 44.3446-58.47C44.7646-57.35 44.8546-56.14 44.6046-54.98C44.3646-53.81 43.7846-52.75 42.9446-51.9L37.2846-46.24C36.4246-45.38 36.2446-44.05 36.8446-42.99C43.4346-31.4 53.0446-21.8 64.6446-15.21C65.6946-14.61 67.0246-14.79 67.8846-15.65L73.5446-21.31C74.3846-22.14 75.4546-22.72 76.6246-22.97C77.7746-23.21 78.9846-23.12 80.1046-22.7C84.3646-21.11 88.7646-20.02 93.2446-19.43C94.7346-19.22 96.1146-18.46 97.0946-17.3C98.0246-16.2 98.5446-14.83 98.5646-13.41L98.5646 0.34C98.5746 1.23 98.3946 2.08 98.0546 2.87C97.7046 3.66 97.1946 4.37 96.5546 4.96C95.9146 5.55 95.1646 5.99 94.3346 6.27C93.5146 6.55 92.6446 6.66 91.8046 6.57C78.7846 5.16 66.2646 0.77 55.2046-6.25L54.5046-6.7C44.2646-13.2 35.5746-21.81 28.9846-31.95L28.5346-32.66C21.2146-43.95 16.6646-56.81 15.2346-70.19C15.1646-70.99 15.2746-71.87 15.5446-72.7C15.8246-73.52 16.2646-74.27 16.8346-74.89C17.4246-75.54 18.1346-76.05 18.9246-76.4C19.7246-76.75 20.5746-76.93 21.4346-76.93Z"/>
   <path class="hierarchical-1:primary SFSymbolsPreview212121" d="M105.735-86.79C107.165-86.79 108.345-85.67 108.425-84.26L108.435-84.09L108.435-57.32C108.435-55.83 107.225-54.62 105.735-54.62C104.305-54.62 103.125-55.74 103.035-57.15L103.035-57.32L103.035-81.39L78.9546-81.39C77.5246-81.39 76.3446-82.51 76.2546-83.92L76.2546-84.09C76.2546-85.52 77.3746-86.7 78.7846-86.78L78.9546-86.79L105.735-86.79ZM103.825-86C104.875-87.05 106.585-87.05 107.645-86C108.655-84.99 108.695-83.38 107.765-82.32L107.645-82.18L76.4046-50.94C75.3446-49.89 73.6346-49.89 72.5846-50.94C71.5746-51.95 71.5346-53.56 72.4546-54.62L72.5846-54.76L103.825-86Z"/>
  </g>
  <g id="Thin-M" transform="matrix(1 0 0 1 801.1 1126)">
   <path class="hierarchical-0:secondary SFSymbolsPreview4D4D4D" d="M33.7597-81.18L20.3877-81.18C18.9207-81.18 17.4677-80.87 16.1227-80.28C14.7767-79.68 13.5717-78.82 12.5827-77.73C11.5957-76.65 10.8407-75.37 10.3727-73.97C9.90572-72.59 9.73072-71.11 9.86272-69.65C11.3277-55.86 15.9467-42.62 23.3547-30.94L23.8217-30.21C30.6447-19.48 39.7067-10.33 50.3827-3.4L51.0967-2.95C62.8857 4.7 76.3227 9.48 90.3147 11C91.7997 11.15 93.2827 10.97 94.6867 10.49C96.0817 10.02 97.3627 9.26 98.4457 8.27C99.5307 7.27 100.396 6.06 100.986 4.71C101.576 3.36 101.878 1.9 101.872 0.43L101.872-12.95C101.935-15.5 101.044-18.03 99.3677-20.01C97.6927-21.98 95.3487-23.27 92.7787-23.64C88.6097-24.19 84.5237-25.2 80.5827-26.67C78.6967-27.38 76.6437-27.54 74.6657-27.12L74.2957-27.04C72.4557-26.57 70.7767-25.62 69.4297-24.29L64.6547-19.52L64.4627-19.64C54.5427-25.55 46.2487-33.85 40.3247-43.77L40.2117-43.96L44.9827-48.73C46.4097-50.17 47.3887-51.98 47.8107-53.96C48.2327-55.94 48.0787-58 47.3667-59.89C45.9027-63.82 44.8847-67.9 44.3347-72.06C43.9747-74.62 42.7037-76.95 40.7567-78.62C38.8097-80.29 36.3227-81.2 33.7597-81.18ZM20.3877-77.88L33.7897-77.88C35.5527-77.89 37.2657-77.27 38.6067-76.12C39.9447-74.97 40.8187-73.37 41.0657-71.62C41.6447-67.23 42.7237-62.9 44.2777-58.73C44.7677-57.43 44.8737-56.01 44.5837-54.65C44.2937-53.29 43.6207-52.05 42.6437-51.06L36.9807-45.39C36.4557-44.87 36.3457-44.06 36.7127-43.41C43.2137-31.98 52.6787-22.52 64.1067-16.02C64.7527-15.66 65.5627-15.77 66.0887-16.29L71.7567-21.95C72.7407-22.92 73.9907-23.6 75.3527-23.9C76.7077-24.18 78.1247-24.07 79.4267-23.58C83.6037-22.03 87.9337-20.95 92.3317-20.37C94.0827-20.12 95.6977-19.23 96.8497-17.87C97.9357-16.59 98.5417-14.98 98.5727-13.3L98.5717 0.44C98.5757 1.46 98.3677 2.46 97.9617 3.39C97.5557 4.32 96.9617 5.15 96.2137 5.84C95.4687 6.52 94.5857 7.04 93.6247 7.37C92.6627 7.7 91.6487 7.82 90.6517 7.72C77.4727 6.29 64.7877 1.85 53.5917-5.27L52.8797-5.72C42.5247-12.3 33.7207-21.02 27.0507-31.29L26.5987-31.99C19.1917-43.43 14.5847-56.44 13.1467-69.97C13.0587-70.95 13.1787-71.97 13.5007-72.92C13.8237-73.89 14.3407-74.76 15.0187-75.5C15.7037-76.26 16.5297-76.85 17.4547-77.26C18.3807-77.67 19.3807-77.88 20.3877-77.88Z"/>
   <path class="hierarchical-1:primary SFSymbolsPreview212121" d="M104.685-85.64C105.548-85.64 106.257-84.98 106.329-84.13L106.335-83.99L106.335-57.22C106.335-56.31 105.596-55.57 104.685-55.57C103.822-55.57 103.113-56.23 103.041-57.08L103.035-57.22L103.035-82.34L77.9087-82.34C77.0457-82.34 76.3367-83 76.2647-83.85L76.2587-83.99C76.2587-84.85 76.9217-85.56 77.7667-85.63L77.9087-85.64L104.685-85.64ZM103.516-85.16C104.161-85.8 105.205-85.8 105.85-85.16C106.456-84.55 106.492-83.59 105.957-82.94L105.85-82.82L74.6127-51.58C73.9687-50.94 72.9237-50.94 72.2797-51.58C71.6727-52.19 71.6367-53.15 72.1717-53.8L72.2787-53.92L103.516-85.16Z"/>
  </g>
  <g id="Ultralight-M" transform="matrix(1 0 0 1 504.939 1126)">
   <path class="hierarchical-0:secondary SFSymbolsPreview4D4D4D" d="M33.2135-80.5775L19.8365-80.5775C18.4475-80.5775 17.0695-80.2875 15.7945-79.7275C14.5185-79.1575 13.3765-78.3375 12.4385-77.3075C11.5025-76.2875 10.7875-75.0675 10.3435-73.7475C9.90053-72.4375 9.73553-71.0375 9.86053-69.6475C11.3155-55.9475 15.9065-42.7875 23.2695-31.1775L23.7325-30.4575C30.5125-19.7875 39.5135-10.7075 50.1155-3.8275L50.8415-3.3575C62.5625 4.2425 75.9175 9.0025 89.8235 10.5025C91.2235 10.6425 92.6285 10.4725 93.9585 10.0225C95.2815 9.5725 96.4965 8.8525 97.5225 7.9125C98.5525 6.9725 99.3725 5.8225 99.9305 4.5425C100.491 3.2625 100.777 1.8825 100.771 0.4925L100.771-12.8975C100.832-15.3275 99.9865-17.7175 98.3975-19.5975C96.8095-21.4675 94.5875-22.6975 92.1505-23.0475C87.9465-23.5975 83.8205-24.6275 79.8405-26.1075C78.0515-26.7775 76.1035-26.9275 74.2285-26.5375L73.8775-26.4475C72.1355-26.0075 70.5435-25.1175 69.2665-23.8475L64.1905-18.7775L63.6305-19.1075C53.6325-25.0775 45.2725-33.4375 39.3025-43.4375L38.9705-43.9975L44.0425-49.0675C45.3945-50.4275 46.3225-52.1475 46.7225-54.0275C47.1225-55.9075 46.9765-57.8575 46.3025-59.6475C44.8225-63.6075 43.7935-67.7375 43.2395-71.9375C42.8985-74.3675 41.6935-76.5675 39.8475-78.1475C38.0015-79.7375 35.6445-80.5975 33.2135-80.5775ZM19.8365-78.3775L33.2335-78.3775C35.1315-78.3975 36.9725-77.7175 38.4145-76.4875C39.8545-75.2475 40.7945-73.5275 41.0595-71.6475C41.6345-67.2875 42.7035-62.9975 44.2425-58.8775C44.7695-57.4775 44.8835-55.9475 44.5715-54.4875C44.2585-53.0175 43.5345-51.6775 42.4835-50.6175L36.8195-44.9575C36.4685-44.6075 36.3955-44.0675 36.6405-43.6375C43.0925-32.2875 52.4855-22.8975 63.8285-16.4475C64.2585-16.2075 64.7995-16.2775 65.1495-16.6275L70.8175-22.2875C71.8785-23.3375 73.2225-24.0675 74.6855-24.3775C76.1465-24.6875 77.6695-24.5775 79.0695-24.0475C83.2075-22.5075 87.4955-21.4375 91.8525-20.8675C93.7435-20.5975 95.4795-19.6375 96.7185-18.1775C97.8905-16.7975 98.5435-15.0475 98.5725-13.2475L98.5705 0.4925C98.5755 1.5825 98.3515 2.6625 97.9145 3.6625C97.4795 4.6625 96.8395 5.5525 96.0355 6.2925C95.2335 7.0325 94.2845 7.5925 93.2515 7.9425C92.2155 8.2925 91.1235 8.4225 90.0485 8.3225C76.7795 6.8825 64.0135 2.4025 52.7465-4.7475L52.0295-5.2075C41.6125-11.8275 32.7525-20.6075 26.0385-30.9375L25.5845-31.6475C18.1325-43.1475 13.4965-56.2375 12.0495-69.8675C11.9535-70.9275 12.0835-72.0275 12.4285-73.0475C12.7765-74.0775 13.3325-75.0275 14.0635-75.8275C14.7975-76.6275 15.6875-77.2675 16.6825-77.7075C17.6785-78.1475 18.7535-78.3775 19.8365-78.3775Z"/>
   <path class="hierarchical-1:primary SFSymbolsPreview212121" d="M104.135-85.0375C104.702-85.0375 105.169-84.6075 105.228-84.0575L105.235-83.9375L105.235-57.1675C105.235-56.5575 104.742-56.0675 104.135-56.0675C103.568-56.0675 103.101-56.4975 103.041-57.0475L103.035-57.1675L103.035-82.8375L77.3585-82.8375C76.7915-82.8375 76.3245-83.2675 76.2645-83.8175L76.2585-83.9375C76.2585-84.5075 76.6875-84.9675 77.2385-85.0275L77.3585-85.0375L104.135-85.0375ZM103.355-84.7175C103.785-85.1475 104.481-85.1475 104.911-84.7175C105.31-84.3175 105.338-83.6875 104.996-83.2575L104.911-83.1575L73.6735-51.9175C73.2435-51.4875 72.5475-51.4875 72.1175-51.9175C71.7185-52.3175 71.6905-52.9475 72.0325-53.3775L72.1175-53.4775L103.355-84.7175Z"/>
  </g>
  <g id="Black-S" transform="matrix(1 0 0 1 2882.93 696)">
   <path class="hierarchical-0:secondary SFSymbolsPreview4D4D4D" d="M33.8596-77.14L23.4196-77.14C21.5196-77.137 19.6496-76.743 17.9196-75.98C16.2096-75.223 14.6696-74.115 13.3896-72.729C12.0996-71.297 11.1296-69.66 10.5396-67.879C9.92959-66.084 9.69959-64.184 9.87959-62.298C11.1196-50.623 14.9996-39.478 21.2296-29.642L21.6596-28.973C27.3696-19.981 34.9896-12.281 43.9696-6.439L44.6596-5.993C54.5496 0.427 65.8896 4.459 77.6896 5.742L77.8096 5.755C79.6996 5.924 81.5996 5.698 83.3896 5.09C85.1696 4.492 86.8196 3.518 88.2196 2.236C89.6196 0.953 90.7296-0.607 91.4896-2.348C92.2396-4.071 92.6296-5.936 92.6296-7.819L92.6296-18.752C92.5696-21.881 91.4296-24.895 89.4096-27.285C87.2496-29.829 84.2396-31.493 80.9296-31.959C78.0096-32.345 75.1896-33.047 72.4896-34.056C70.0596-34.967 67.4196-35.164 64.8796-34.623L64.4796-34.532C62.0896-33.947 59.8996-32.723 58.1496-30.988L57.4196-30.263L57.1396-30.463C52.8396-33.564 49.0596-37.338 45.9596-41.641L45.7496-41.93L46.4596-42.635C48.3096-44.51 49.5696-46.841 50.1096-49.38C50.6596-51.923 50.4596-54.57 49.5496-57.004C48.5396-59.699 47.8396-62.508 47.4596-65.376C46.9896-68.718 45.3496-71.703 42.8496-73.854C40.3496-76.003 37.1496-77.171 33.8596-77.14ZM23.0996-62.834L23.0096-63.607C23.0196-63.586 23.0196-63.582 23.0196-63.589L23.0496-63.669C23.0596-63.722 23.0996-63.778 23.1396-63.829C23.1596-63.85 23.2096-63.883 23.2496-63.902C23.3096-63.928 23.3596-63.94 23.4296-63.94L33.9896-63.94C34.0796-63.941 34.1796-63.905 34.2496-63.84C34.3196-63.777 34.3696-63.688 34.3896-63.587C34.8796-59.798 35.8296-56.01 37.1896-52.368C37.2196-52.296 37.2196-52.218 37.2096-52.141C37.1896-52.066 37.1496-51.994 37.0896-51.936L32.6796-47.518C30.5796-45.417 30.1496-42.174 31.6096-39.593C37.1796-29.793 45.2896-21.684 55.0896-16.116C57.6696-14.648 60.9196-15.087 63.0196-17.19L67.4596-21.635C67.4896-21.662 67.5496-21.697 67.6296-21.713C67.6996-21.729 67.7896-21.723 67.8696-21.692C71.5096-20.332 75.2896-19.389 79.1496-18.881C79.1796-18.875 79.2696-18.827 79.3396-18.751L79.3796-18.694C79.3996-18.654 79.4196-18.609 79.4196-18.563L79.4296-18.502L79.4296-7.819C79.4296-7.75 79.4196-7.685 79.3896-7.628C79.3696-7.574 79.3396-7.534 79.2996-7.502C79.2496-7.455 79.2096-7.431 79.1696-7.417L79.1096-7.4L79.0496-7.392L79.0096-7.393L79.1096-7.38C69.3696-8.44 59.9996-11.771 51.7896-17.1C44.3196-21.845 37.9996-28.085 33.1996-35.431L32.7696-36.102C27.5296-44.192 24.2296-53.321 23.0996-62.834Z"/>
   <path class="hierarchical-1:primary SFSymbolsPreview212121" d="M89.5296-81.14C93.3696-81.14 96.4996-78.09 96.6296-74.279L96.6296-74.04L96.6296-53.04C96.6296-49.119 93.4496-45.94 89.5296-45.94C85.6896-45.94 82.5596-48.991 82.4296-52.801L82.4296-53.04L82.4296-66.94L68.5296-66.94C64.6896-66.94 61.5596-69.991 61.4296-73.801L61.4296-74.04C61.4296-77.881 64.4796-81.01 68.2896-81.136L68.5296-81.14L89.5296-81.14ZM84.5096-79.061C87.2796-81.833 91.7796-81.833 94.5496-79.061C97.2596-76.351 97.3196-71.996 94.7396-69.211L94.5496-69.02L70.0496-44.52C67.2796-41.747 62.7796-41.747 60.0096-44.52C57.2996-47.23 57.2396-51.585 59.8296-54.369L60.0096-54.561L84.5096-79.061Z"/>
  </g>
  <g id="Heavy-S" transform="matrix(1 0 0 1 2586.82 696)">
   <path class="hierarchical-0:secondary SFSymbolsPreview4D4D4D" d="M33.5058-76.707L23.0658-76.707C21.2158-76.704 19.3958-76.32 17.7158-75.577C16.0358-74.84 14.5458-73.76 13.2958-72.409C12.0358-71.015 11.0958-69.42 10.5158-67.685C9.92579-65.936 9.70579-64.084 9.87579-62.248C11.1058-50.637 14.9658-39.549 21.1658-29.762L21.6058-29.081C27.2858-20.129 34.8658-12.464 43.8058-6.649L44.4958-6.206C54.1158 0.041 65.1158 4.016 76.5658 5.386L77.4858 5.489C79.3258 5.653 81.1758 5.433 82.9258 4.842C84.6558 4.259 86.2558 3.31 87.6258 2.06C88.9858 0.811 90.0758-0.709 90.8158-2.405C91.5458-4.085 91.9258-5.901 91.9258-7.736L91.9258-18.662C91.8658-21.711 90.7558-24.647 88.7858-26.976C86.6858-29.455 83.7458-31.076 80.5258-31.53C77.5758-31.919 74.7358-32.627 72.0158-33.646C69.6358-34.533 67.0658-34.726 64.5958-34.198L64.1858-34.104C61.8658-33.532 59.7358-32.342 58.0358-30.657L57.1058-29.724L56.6858-30.021C52.2758-33.183 48.4058-37.047 45.2458-41.46L44.9458-41.885L45.8558-42.799C47.6658-44.625 48.8858-46.897 49.4158-49.371C49.9158-51.711 49.7758-54.141 49.0058-56.401L48.8658-56.798C47.8458-59.518 47.1458-62.353 46.7658-65.248C46.2958-68.502 44.7058-71.411 42.2658-73.506C39.8258-75.599 36.7158-76.738 33.5058-76.707ZM23.0758-64.207L33.6258-64.207C33.8058-64.209 33.9858-64.143 34.1258-64.023C34.2658-63.905 34.3558-63.739 34.3758-63.553C34.8758-59.788 35.8058-56.026 37.1658-52.408C37.2158-52.274 37.2258-52.128 37.1958-51.986C37.1658-51.845 37.0958-51.713 36.9858-51.608L32.5758-47.188C30.5858-45.199 30.1758-42.128 31.5658-39.683C37.1058-29.938 45.1658-21.874 54.9058-16.337C57.3558-14.947 60.4258-15.363 62.4158-17.354L66.8558-21.799C66.9358-21.875 67.0558-21.943 67.1958-21.972C67.3458-22.003 67.4858-21.992 67.6358-21.937C71.2458-20.587 75.0058-19.65 78.8358-19.145C78.9658-19.127 79.1258-19.036 79.2458-18.895L79.3058-18.811C79.3658-18.723 79.4058-18.624 79.4158-18.521L79.4258-18.428L79.4258-7.737C79.4258-7.62 79.4058-7.507 79.3558-7.406C79.3158-7.307 79.2558-7.226 79.1858-7.161C79.0958-7.082 79.0158-7.033 78.9258-7.003L78.8158-6.973C78.7858-6.966 78.7458-6.961 78.7058-6.959L78.6158-6.962L78.7258-6.95C69.1758-7.987 59.9958-11.19 51.9058-16.305L51.2458-16.724C43.7358-21.498 37.3758-27.78 32.5458-35.176L32.1258-35.832C26.7058-44.184 23.3558-53.641 22.3158-63.487L22.3258-63.578C22.3358-63.613 22.3458-63.655 22.3558-63.698C22.3958-63.796 22.4458-63.895 22.5258-63.982C22.5858-64.039 22.6658-64.102 22.7558-64.14C22.8558-64.185 22.9558-64.207 23.0758-64.207Z"/>
   <path class="hierarchical-1:primary SFSymbolsPreview212121" d="M89.1758-80.208C92.5558-80.208 95.3058-77.532 95.4258-74.187L95.4258-73.958L95.4258-52.958C95.4258-49.506 92.6258-46.708 89.1758-46.708C85.8058-46.708 83.0558-49.383 82.9258-52.729L82.9258-52.958L82.9258-67.708L68.1758-67.708C64.8058-67.708 62.0558-70.383 61.9258-73.729L61.9258-73.958C61.9258-77.333 64.6058-80.083 67.9458-80.204L68.1758-80.208L89.1758-80.208ZM84.7558-78.377C87.1958-80.818 91.1558-80.818 93.5958-78.377C95.9758-75.997 96.0358-72.176 93.7758-69.724L93.5958-69.538L69.0958-45.038C66.6558-42.597 62.6958-42.597 60.2558-45.038C57.8758-47.418 57.8158-51.239 60.0758-53.691L60.2558-53.877L84.7558-78.377Z"/>
  </g>
  <g id="Bold-S" transform="matrix(1 0 0 1 2291.06 696)">
   <path class="hierarchical-0:secondary SFSymbolsPreview4D4D4D" d="M32.5632-75.4585L22.1132-75.4585C20.4032-75.4555 18.7132-75.0985 17.1532-74.4095C15.5832-73.7195 14.1732-72.7055 13.0232-71.4375C11.8932-70.2005 11.0032-68.7085 10.4632-67.0835C9.92324-65.4805 9.72324-63.7815 9.86324-62.0915L9.87324-61.9675C11.0832-50.5815 14.8932-39.6345 21.0132-29.9715L21.4432-29.2995C27.0632-20.4545 34.5532-12.8875 43.3732-7.1465L44.0532-6.7085C53.5732-0.5325 64.4232 3.3905 75.7332 4.7415L76.6232 4.8415C78.3332 4.9935 80.0432 4.7915 81.6632 4.2445C83.2932 3.6925 84.7832 2.8125 86.0432 1.6575C87.3032 0.4985 88.3132-0.9125 89.0032-2.4865L89.1632-2.8835C89.7432-4.3485 90.0432-5.9135 90.0232-7.4925L90.0232-17.9375L90.0232-17.7835C90.1132-20.8075 89.0732-23.7545 87.1132-26.0625C85.1632-28.3645 82.4332-29.8685 79.4432-30.2905C76.6932-30.6545 74.0232-31.2925 71.4332-32.2035L70.7232-32.4595C68.5432-33.2815 66.1532-33.4605 63.8532-32.9705L63.4432-32.8775C61.3132-32.3465 59.3532-31.2505 57.7732-29.7025L56.2632-28.1935L55.7232-28.5675C50.8132-31.9895 46.5532-36.2515 43.1332-41.1535L42.7632-41.6985L44.2332-43.1725C45.9032-44.8465 47.0432-46.9605 47.5332-49.2715C48.0232-51.5715 47.8532-53.9645 47.0232-56.1655C45.9832-58.9545 45.2532-61.8595 44.8632-64.8255C44.4332-67.8405 42.9632-70.5415 40.6932-72.4865C38.4332-74.4315 35.5432-75.4865 32.5632-75.4585ZM22.1232-64.8585L32.6632-64.8585C33.0732-64.8625 33.4732-64.7175 33.7932-64.4435C34.1032-64.1765 34.3032-63.8025 34.3632-63.3885C34.8532-59.6845 35.7732-55.9925 37.1032-52.4435C37.2132-52.1385 37.2432-51.8075 37.1732-51.4885C37.1032-51.1605 36.9532-50.8795 36.7332-50.6615L32.2932-46.2185C30.6032-44.5315 30.2532-41.9265 31.4332-39.8535C36.8832-30.2665 44.8332-22.3225 54.4232-16.8655C56.4932-15.6855 59.1032-16.0385 60.7932-17.7275L65.2332-22.1725C65.4432-22.3745 65.7332-22.5345 66.0532-22.6025C66.3732-22.6705 66.7032-22.6465 67.0032-22.5335C70.5832-21.1995 74.2632-20.2825 78.0132-19.7885C78.3832-19.7355 78.7632-19.5255 79.0332-19.2105C79.2932-18.8945 79.4332-18.4965 79.4232-18.0915L79.4232-17.9375L79.4232-7.4375C79.4232-7.1645 79.3832-6.9415 79.2832-6.7265C79.1932-6.5065 79.0532-6.3165 78.8832-6.1615C78.7032-5.9995 78.4932-5.8745 78.2732-5.7975L78.1032-5.7505C77.9832-5.7245 77.8632-5.7105 77.7432-5.7095L77.5732-5.7165L77.6632-5.7065C67.7232-6.7865 58.1732-10.1845 49.7732-15.6295C42.1532-20.4705 35.6932-26.8485 30.7932-34.3585L29.9532-35.6775C24.8432-43.7685 21.6232-52.8575 20.5032-62.3195L20.4232-62.9925L20.4232-62.9645C20.4032-63.2315 20.4332-63.4825 20.5032-63.7015C20.5832-63.9195 20.6932-64.1195 20.8532-64.2905C21.0232-64.4805 21.2132-64.6165 21.4332-64.7105C21.6532-64.8085 21.8832-64.8575 22.1232-64.8585Z"/>
   <path class="hierarchical-1:primary SFSymbolsPreview212121" d="M88.2232-78.9585C91.0732-78.9585 93.4032-76.7035 93.5232-73.8775L93.5232-73.6585L93.5232-52.6585C93.5232-49.7315 91.1532-47.3585 88.2232-47.3585C85.3732-47.3585 83.0432-49.6145 82.9232-52.4405L82.9232-52.6585L82.9232-68.3585L67.2232-68.3585C64.3732-68.3585 62.0432-70.6145 61.9232-73.4405L61.9232-73.6585C61.9232-76.5125 64.1832-78.8395 67.0032-78.9545L67.2232-78.9585L88.2232-78.9585ZM84.4732-77.4065C86.5432-79.4765 89.9032-79.4765 91.9732-77.4065C93.9832-75.3955 94.0432-72.1715 92.1432-70.0915L91.9732-69.9115L67.4732-45.4115C65.4032-43.3415 62.0432-43.3415 59.9732-45.4115C57.9632-47.4215 57.9032-50.6465 59.8032-52.7265L59.9732-52.9065L84.4732-77.4065Z"/>
  </g>
  <g id="Semibold-S" transform="matrix(1 0 0 1 1995 696)">
   <path class="hierarchical-0:secondary SFSymbolsPreview4D4D4D" d="M31.9186-74.746L21.4686-74.746C19.8386-74.744 18.2386-74.406 16.7586-73.752C15.2886-73.105 13.9686-72.155 12.8786-70.965C11.7686-69.743 10.9486-68.339 10.4286-66.814C9.91862-65.275 9.71862-63.648 9.86862-62.035C11.0786-50.689 14.8586-39.836 20.9186-30.257L21.3486-29.591C26.9186-20.82 34.3386-13.32 43.0786-7.63L43.7586-7.196C53.4086-0.931 64.4486 2.998 75.9486 4.247C77.6486 4.401 79.2786 4.207 80.8186 3.685C82.3386 3.174 83.7486 2.34 84.9486 1.24C86.1486 0.143 87.0986-1.193 87.7486-2.684C88.3986-4.162 88.7286-5.76 88.7286-7.376L88.7286-18.178C88.6786-20.951 87.6986-23.533 85.9686-25.581C84.1186-27.761 81.5386-29.186 78.7086-29.585C75.6486-29.988 72.6986-30.725 69.8586-31.786C67.7686-32.567 65.5086-32.736 63.3286-32.273L62.9486-32.184C60.9186-31.68 59.0586-30.635 57.5686-29.159L55.6986-27.295L55.3386-27.536C49.8886-31.213 45.1986-35.902 41.5286-41.351L41.2786-41.719L43.1286-43.57C44.7086-45.172 45.7886-47.169 46.2586-49.345C46.7186-51.524 46.5586-53.79 45.7686-55.875C44.7086-58.711 43.9786-61.664 43.5786-64.68C43.1686-67.531 41.7686-70.089 39.6286-71.931C37.4886-73.772 34.7386-74.774 31.9186-74.746ZM21.4786-65.446L32.0186-65.446C32.5786-65.452 33.1386-65.248 33.5686-64.875C33.9986-64.505 34.2886-63.988 34.3686-63.419C34.8486-59.756 35.7486-56.112 37.0686-52.609C37.2186-52.189 37.2586-51.731 37.1586-51.29C37.0686-50.851 36.8486-50.445 36.5286-50.123L32.1086-45.697C30.6286-44.217 30.3186-41.932 31.3586-40.113C36.7486-30.619 44.6086-22.762 54.0986-17.368C55.9186-16.333 58.2086-16.643 59.6886-18.125L64.1286-22.57C64.4286-22.867 64.8286-23.084 65.2686-23.177C65.7086-23.271 66.1686-23.237 66.5986-23.075C70.0986-21.767 73.7386-20.86 77.4486-20.371C77.9786-20.296 78.4986-20.009 78.8686-19.569C79.2186-19.155 79.4186-18.631 79.4286-18.087L79.4286-7.376C79.4286-7.039 79.3586-6.708 79.2286-6.405C79.0986-6.102 78.9086-5.837 78.6686-5.62C78.4186-5.391 78.1386-5.227 77.8386-5.125C77.5186-5.017 77.1886-4.978 76.8686-5.007C67.1586-6.062 57.7386-9.35 49.4386-14.602L48.7786-15.021C41.0886-19.91 34.5586-26.354 29.6086-33.941L29.1786-34.614C23.6286-43.164 20.1986-52.861 19.1186-62.957C19.0986-63.205 19.1386-63.53 19.2486-63.847C19.3486-64.156 19.5186-64.446 19.7486-64.695C19.9586-64.923 20.2186-65.115 20.5086-65.243C20.8186-65.378 21.1386-65.446 21.4786-65.446Z"/>
   <path class="hierarchical-1:primary SFSymbolsPreview212121" d="M87.5786-78.247C90.0786-78.247 92.1086-76.279 92.2286-73.81L92.2286-73.597L92.2286-52.597C92.2286-50.029 90.1486-47.947 87.5786-47.947C85.0786-47.947 83.0486-49.915 82.9386-52.384L82.9286-52.597L82.9286-68.947L66.5786-68.947C64.0786-68.947 62.0486-70.915 61.9386-73.384L61.9286-73.597C61.9286-76.094 63.8986-78.131 66.3686-78.242L66.5786-78.247L87.5786-78.247ZM84.2886-76.885C86.1086-78.701 89.0486-78.701 90.8686-76.885C92.6286-75.126 92.6786-72.308 91.0286-70.482L90.8686-70.309L66.3686-45.809C64.5486-43.993 61.6086-43.993 59.7886-45.809C58.0286-47.568 57.9786-50.386 59.6286-52.212L59.7886-52.385L84.2886-76.885Z"/>
  </g>
  <g id="Medium-S" transform="matrix(1 0 0 1 1698.79 696)">
   <path class="hierarchical-0:secondary SFSymbolsPreview4D4D4D" d="M31.43-74.197L20.97-74.197C19.41-74.195 17.88-73.872 16.46-73.246C15.06-72.626 13.8-71.718 12.75-70.577C11.69-69.409 10.9-68.065 10.41-66.606C9.90996-65.132 9.71996-63.575 9.86996-62.033C11.07-50.769 14.82-39.99 20.84-30.476L21.27-29.814C26.8-21.105 34.16-13.661 42.84-8.011L43.53-7.569C53.11-1.344 64.08 2.559 75.5 3.799C77.13 3.945 78.69 3.761 80.16 3.261C81.62 2.772 82.96 1.974 84.11 0.921C85.26-0.13 86.17-1.408 86.79-2.835C87.41-4.25 87.73-5.78 87.73-7.327L87.73-18.129C87.68-20.777 86.75-23.249 85.09-25.209C83.32-27.295 80.85-28.659 78.14-29.041C75.05-29.448 72.06-30.195 69.18-31.269C67.18-32.017 65.02-32.179 62.94-31.735L62.57-31.65C60.63-31.167 58.85-30.168 57.42-28.755L55.27-26.604L55.11-26.705C49.19-30.592 44.13-35.652 40.24-41.574L40.14-41.736L42.28-43.874C43.79-45.407 44.82-47.318 45.27-49.401C45.71-51.486 45.55-53.655 44.81-55.65C43.73-58.522 42.98-61.513 42.59-64.566C42.2-67.292 40.86-69.74 38.8-71.503C36.75-73.265 34.13-74.223 31.43-74.197ZM20.98-65.897L31.51-65.897C32.2-65.904 32.87-65.657 33.4-65.205C33.92-64.756 34.26-64.13 34.36-63.441C34.84-59.809 35.74-56.203 37.03-52.736C37.23-52.226 37.27-51.671 37.15-51.137C37.04-50.604 36.77-50.113 36.39-49.723L31.96-45.295C30.64-43.974 30.37-41.934 31.29-40.311C36.64-30.895 44.43-23.104 53.85-17.754C55.47-16.83 57.52-17.107 58.84-18.429L63.28-22.874C63.65-23.241 64.13-23.504 64.66-23.617C65.2-23.731 65.76-23.689 66.28-23.494C69.74-22.2 73.35-21.302 77.02-20.817C77.67-20.725 78.3-20.377 78.75-19.843C79.18-19.341 79.42-18.707 79.43-18.047L79.43-7.327C79.43-6.921 79.35-6.523 79.19-6.156C79.03-5.789 78.8-5.466 78.51-5.202C78.21-4.926 77.87-4.726 77.5-4.602C77.12-4.472 76.72-4.425 76.32-4.46C66.53-5.525 57.04-8.838 48.67-14.131L48.01-14.553C40.26-19.477 33.68-25.972 28.69-33.619L28.25-34.297C22.67-42.909 19.21-52.681 18.13-62.855C18.1-63.18 18.14-63.575 18.27-63.958C18.4-64.331 18.61-64.681 18.88-64.982C19.14-65.263 19.46-65.496 19.81-65.652C20.18-65.814 20.57-65.897 20.98-65.897Z"/>
   <path class="hierarchical-1:primary SFSymbolsPreview212121" d="M87.08-77.698C89.3-77.698 91.12-75.951 91.23-73.755L91.23-73.548L91.23-52.548C91.23-50.256 89.37-48.398 87.08-48.398C84.86-48.398 83.04-50.145 82.94-52.341L82.93-52.548L82.93-69.398L66.08-69.398C63.86-69.398 62.04-71.145 61.94-73.341L61.93-73.548C61.93-75.77 63.68-77.585 65.87-77.693L66.08-77.698L87.08-77.698ZM84.15-76.482C85.77-78.103 88.39-78.103 90.02-76.482C91.58-74.916 91.63-72.408 90.17-70.779L90.02-70.613L65.52-46.113C63.89-44.493 61.27-44.493 59.65-46.113C58.08-47.68 58.03-50.188 59.49-51.817L59.65-51.982L84.15-76.482Z"/>
  </g>
  <g id="Regular-S" transform="matrix(1 0 0 1 1402.72 696)">
   <path class="hierarchical-0:secondary SFSymbolsPreview4D4D4D" d="M30.7912-73.483L20.3212-73.483C18.8512-73.481 17.4112-73.177 16.0812-72.587C14.7512-72.004 13.5612-71.148 12.5712-70.073C11.5812-68.975 10.8412-67.709 10.3712-66.334C9.91117-64.946 9.73117-63.48 9.86117-62.028C11.0512-50.873 14.7712-40.189 20.7412-30.759L21.1612-30.103C26.6512-21.468 33.9412-14.09 42.5412-8.491L43.2212-8.053C52.7312-1.88 63.6012 1.988 74.9212 3.217C76.4412 3.354 77.9212 3.18 79.3012 2.71C80.6712 2.249 81.9412 1.498 83.0212 0.505C84.1012-0.483 84.9612-1.687 85.5512-3.031C86.1312-4.364 86.4312-5.805 86.4312-7.262L86.4312-18.065C86.3812-20.551 85.5012-22.879 83.9412-24.724C82.2712-26.689 79.9512-27.973 77.4012-28.333C74.2712-28.746 71.2312-29.504 68.3112-30.596C66.4212-31.3 64.3812-31.453 62.4212-31.035L62.0512-30.95C60.2312-30.493 58.5612-29.554 57.2312-28.229L54.7112-25.708L54.1712-26.054C48.1312-30.01 42.9612-35.172 39.0112-41.219L38.6612-41.759L41.1712-44.269C42.5912-45.711 43.5612-47.511 43.9812-49.472C44.4012-51.436 44.2512-53.479 43.5512-55.357C42.4512-58.276 41.7012-61.315 41.2912-64.417C40.9212-66.98 39.6612-69.285 37.7312-70.945C35.8012-72.605 33.3312-73.508 30.7912-73.483ZM20.3212-66.483L30.8512-66.483C31.7012-66.491 32.5212-66.189 33.1712-65.634C33.8112-65.082 34.2312-64.313 34.3512-63.468C34.8212-59.878 35.7112-56.32 36.9912-52.899C37.2312-52.273 37.2812-51.592 37.1412-50.937C37.0012-50.282 36.6712-49.68 36.2012-49.202L31.7712-44.771C30.6612-43.657 30.4312-41.937 31.2112-40.568C36.5012-31.254 44.2112-23.546 53.5212-18.254C54.8912-17.476 56.6112-17.709 57.7312-18.824L62.1712-23.269C62.6312-23.726 63.2312-24.049 63.8812-24.188C64.5412-24.328 65.2212-24.277 65.8512-24.039C69.2712-22.762 72.8312-21.875 76.4512-21.397C77.2712-21.282 78.0412-20.855 78.6012-20.199C79.1212-19.583 79.4212-18.805 79.4312-17.996L79.4312-7.263C79.4312-6.767 79.3312-6.28 79.1312-5.831C78.9412-5.381 78.6512-4.984 78.3012-4.658C77.9312-4.322 77.5112-4.075 77.0612-3.922C76.5912-3.763 76.1012-3.705 75.6112-3.748C65.4512-4.853 55.6212-8.349 47.0112-13.943C39.1712-18.918 32.5312-25.485 27.4812-33.218L27.0512-33.884C21.4212-42.577 17.9212-52.447 16.8312-62.722C16.7912-63.147 16.8512-63.632 17.0112-64.101C17.1612-64.56 17.4112-64.987 17.7412-65.353C18.0712-65.704 18.4612-65.99 18.9012-66.182C19.3512-66.381 19.8312-66.482 20.3212-66.483Z"/>
   <path class="hierarchical-1:primary SFSymbolsPreview212121" d="M86.4312-76.984C88.3012-76.984 89.8312-75.519 89.9212-73.676L89.9312-73.484L89.9312-52.484C89.9312-50.551 88.3612-48.984 86.4312-48.984C84.5612-48.984 83.0312-50.448 82.9412-52.292L82.9312-52.484L82.9312-69.984L65.4312-69.984C63.5612-69.984 62.0312-71.448 61.9412-73.292L61.9312-73.484C61.9312-75.352 63.3912-76.879 65.2412-76.978L65.4312-76.984L86.4312-76.984ZM83.9612-75.958C85.3212-77.325 87.5412-77.325 88.9012-75.958C90.2212-74.64 90.2712-72.533 89.0512-71.158L88.9012-71.009L64.4012-46.509C63.0412-45.142 60.8212-45.142 59.4612-46.509C58.1412-47.827 58.0912-49.934 59.3112-51.309L59.4612-51.458L83.9612-75.958Z"/>
  </g>
  <g id="Light-S" transform="matrix(1 0 0 1 1106.81 696)">
   <path class="hierarchical-0:secondary SFSymbolsPreview4D4D4D" d="M29.9887-72.604L19.5187-72.604C18.1587-72.602 16.8287-72.321 15.5987-71.777C14.3787-71.238 13.2787-70.447 12.3587-69.452C11.4487-68.44 10.7587-67.27 10.3287-66C9.89867-64.717 9.73867-63.363 9.85867-62.024C11.0287-51.006 14.7087-40.446 20.6087-31.124L21.0387-30.46C26.4587-21.915 33.6787-14.619 42.1787-9.083L42.8487-8.65C52.2587-2.541 63.0187 1.285 74.2087 2.501C75.6087 2.626 76.9587 2.465 78.2387 2.031C79.5087 1.605 80.6787 0.911 81.6787-0.006C82.6787-0.919 83.4687-2.03 84.0187-3.272C84.5487-4.504 84.8287-5.836 84.8287-7.184L84.8287-17.986C84.7887-20.272 83.9787-22.423 82.5287-24.128C80.9887-25.944 78.8387-27.13 76.4887-27.462C73.2987-27.882 70.1987-28.655 67.2287-29.768C65.4787-30.419 63.5987-30.56 61.7887-30.173L61.4287-30.089C59.7487-29.665 58.2187-28.8 56.9887-27.582L54.0187-24.613L53.4887-24.945C46.9287-29.125 41.3587-34.694 37.1787-41.262L36.8387-41.795L39.7987-44.756C41.1087-46.086 42.0087-47.749 42.3987-49.561C42.7887-51.375 42.6487-53.263 41.9987-54.998C40.8787-57.974 40.1087-61.072 39.6987-64.234C39.3587-66.596 38.1987-68.726 36.4087-70.26C34.6187-71.793 32.3387-72.627 29.9887-72.604ZM19.5187-67.204L30.0487-67.204C31.0787-67.214 32.0987-66.843 32.8887-66.163C33.6787-65.484 34.1987-64.539 34.3487-63.502C34.8087-59.964 35.6787-56.465 36.9387-53.101C37.2287-52.332 37.2887-51.496 37.1187-50.69C36.9487-49.887 36.5487-49.148 35.9687-48.561L31.5387-44.127C30.6787-43.267 30.4987-41.941 31.0987-40.885C36.3287-31.695 43.9287-24.092 53.1187-18.871C54.1687-18.271 55.4987-18.45 56.3587-19.311L60.7987-23.756C61.3687-24.323 62.1087-24.721 62.9087-24.892C63.7187-25.064 64.5587-25.001 65.3387-24.71C68.6987-23.454 72.1887-22.582 75.7587-22.112C76.7787-21.968 77.7287-21.443 78.4087-20.637C79.0487-19.881 79.4087-18.925 79.4287-17.933L79.4287-7.184C79.4287-6.578 79.3087-5.983 79.0687-5.432C78.8287-4.88 78.4787-4.391 78.0387-3.989C77.5887-3.578 77.0687-3.273 76.5087-3.084C75.9387-2.89 75.3387-2.819 74.7387-2.873C64.6987-3.964 54.9887-7.355 46.4287-12.773L45.7687-13.193C37.8487-18.225 31.1187-24.874 26.0087-32.702L25.5787-33.376C19.8787-42.169 16.3387-52.159 15.2387-62.559C15.1787-63.106 15.2587-63.704 15.4487-64.277C15.6387-64.841 15.9487-65.364 16.3487-65.812C16.7487-66.247 17.2387-66.599 17.7787-66.836C18.3287-67.079 18.9187-67.203 19.5187-67.204Z"/>
   <path class="hierarchical-1:primary SFSymbolsPreview212121" d="M85.6287-76.105C87.0587-76.105 88.2387-74.987 88.3287-73.576L88.3287-73.405L88.3287-52.405C88.3287-50.914 87.1187-49.705 85.6287-49.705C84.1987-49.705 83.0187-50.822 82.9387-52.234L82.9287-52.405L82.9287-70.705L64.6287-70.705C63.1987-70.705 62.0187-71.822 61.9387-73.234L61.9287-73.405C61.9287-74.839 63.0487-76.011 64.4587-76.099L64.6287-76.105L85.6287-76.105ZM83.7187-75.314C84.7787-76.368 86.4887-76.368 87.5387-75.314C88.5487-74.304 88.5887-72.691 87.6687-71.631L87.5387-71.496L63.0387-46.996C61.9887-45.941 60.2787-45.941 59.2187-46.996C58.2087-48.006 58.1687-49.618 59.0987-50.679L59.2187-50.814L83.7187-75.314Z"/>
  </g>
  <g id="Thin-S" transform="matrix(1 0 0 1 811.153 696)">
   <path class="hierarchical-0:secondary SFSymbolsPreview4D4D4D" d="M28.947-71.454L18.463-71.454C17.26-71.452 16.072-71.2 14.974-70.715C13.878-70.232 12.893-69.523 12.082-68.636C11.272-67.747 10.655-66.702 10.273-65.564C9.88996-64.427 9.74696-63.221 9.85496-62.025C11.007-51.181 14.629-40.774 20.44-31.585L20.859-30.931C26.211-22.509 33.313-15.326 41.677-9.874L42.358-9.435C51.653-3.408 62.245 0.36 73.27 1.557C74.502 1.668 75.711 1.525 76.851 1.139C77.99 0.754 79.039 0.133 79.926-0.681C80.814-1.495 81.521-2.485 82.004-3.59C82.487-4.695 82.733-5.886 82.728-7.09L82.728-17.583C82.781-19.663 82.052-21.729 80.68-23.349C79.309-24.967 77.39-26.025 75.289-26.322C72.037-26.75 68.858-27.542 65.8-28.684C64.256-29.264 62.574-29.39 60.956-29.046L60.635-28.971C59.143-28.593 57.777-27.822 56.678-26.736L53.126-23.185L53.058-23.225C45.655-27.679 39.422-33.832 34.876-41.169L34.459-41.852L38.005-45.396C39.175-46.58 39.976-48.064 40.321-49.681C40.666-51.299 40.54-52.982 39.958-54.529C38.818-57.585 38.026-60.763 37.599-63.999C37.303-66.092 36.264-67.993 34.672-69.362C33.08-70.73 31.046-71.474 28.947-71.454ZM18.466-68.154L28.98-68.154C30.277-68.166 31.536-67.706 32.521-66.86C33.505-66.013 34.148-64.838 34.33-63.552C34.787-60.084 35.639-56.664 36.867-53.371C37.229-52.41 37.307-51.369 37.094-50.369C36.881-49.369 36.385-48.451 35.665-47.723L31.227-43.285C30.701-42.759 30.592-41.948 30.959-41.302C36.087-32.283 43.557-24.814 52.578-19.684C53.223-19.316 54.035-19.426 54.56-19.951L59.005-24.396C59.727-25.109 60.645-25.605 61.644-25.818C62.645-26.031 63.685-25.953 64.643-25.593C67.938-24.364 71.359-23.511 74.843-23.052C76.127-22.871 77.314-22.216 78.163-21.215C78.955-20.281 79.4-19.105 79.429-17.886L79.428-7.083C79.431-6.332 79.279-5.595 78.98-4.911C78.682-4.228 78.244-3.616 77.695-3.113C77.146-2.609 76.498-2.225 75.793-1.987C75.088-1.748 74.34-1.66 73.596-1.726C63.115-2.865 53.016-6.458 44.141-12.212C36.106-17.318 29.27-24.073 24.077-32.028L23.636-32.713C17.854-41.638 14.261-51.787 13.139-62.347C13.075-63.061 13.163-63.808 13.4-64.512C13.637-65.214 14.018-65.861 14.519-66.411C15.02-66.959 15.629-67.397 16.307-67.696C16.987-67.997 17.722-68.152 18.466-68.154Z"/>
   <path class="hierarchical-1:primary SFSymbolsPreview212121" d="M84.579-74.954C85.442-74.954 86.15-74.291 86.223-73.446L86.229-73.304L86.229-52.304C86.229-51.393 85.49-50.654 84.579-50.654C83.715-50.654 83.007-51.317 82.935-52.162L82.929-52.304L82.928-71.654L63.579-71.654C62.715-71.654 62.007-72.317 61.935-73.162L61.929-73.304C61.929-74.167 62.592-74.876 63.436-74.948L63.579-74.954L84.579-74.954ZM83.412-74.471C84.056-75.115 85.101-75.115 85.745-74.471C86.352-73.864 86.387-72.903 85.852-72.255L85.745-72.137L61.245-47.637C60.601-46.993 59.556-46.993 58.912-47.637C58.305-48.244 58.27-49.205 58.805-49.853L58.912-49.971L83.412-74.471Z"/>
  </g>
  <g id="Ultralight-S" transform="matrix(1 0 0 1 514.992 696)">
   <path class="hierarchical-0:secondary SFSymbolsPreview4D4D4D" d="M28.4018-70.8495L17.9128-70.8495C16.7858-70.8475 15.6738-70.6125 14.6458-70.1575C13.6198-69.7045 12.6968-69.0415 11.9378-68.2105C11.1788-67.3785 10.6018-66.3995 10.2438-65.3345C9.88478-64.2695 9.75178-63.1405 9.85278-62.0205C11.0218-51.0125 14.7608-40.4515 20.7698-31.1755C26.0818-22.8165 33.1288-15.6895 41.4278-10.2805L42.1028-9.8455C51.3298-3.8625 61.8398-0.1235 72.7788 1.0645C73.9248 1.1675 75.0568 1.0335 76.1238 0.6725C77.1908 0.3115 78.1728-0.2695 79.0038-1.0325C79.8348-1.7945 80.4968-2.7215 80.9498-3.7555C81.4018-4.7905 81.6328-5.9055 81.6278-7.0335L81.6278-17.5285C81.6778-19.4875 80.9948-21.4225 79.7098-22.9385C78.4258-24.4545 76.6288-25.4455 74.6618-25.7225C71.3738-26.1565 68.1548-26.9585 65.0578-28.1145C63.6098-28.6585 62.0358-28.7765 60.5208-28.4535L60.1978-28.3775C58.8098-28.0215 57.5378-27.3025 56.5148-26.2905L52.6628-22.4395L52.2248-22.6995C44.5378-27.3235 38.1018-33.7605 33.4788-41.4455L33.2178-41.8845L37.0658-45.7305C38.1598-46.8375 38.9098-48.2275 39.2328-49.7415C39.5558-51.2565 39.4378-52.8325 38.8928-54.2805C37.7378-57.3775 36.9358-60.5955 36.5038-63.8725C36.2268-65.8295 35.2538-67.6085 33.7638-68.8905C32.2718-70.1725 30.3678-70.8685 28.4018-70.8495ZM17.9148-68.6495L28.4238-68.6495C29.8548-68.6635 31.2428-68.1565 32.3288-67.2225C33.4138-66.2885 34.1228-64.9925 34.3238-63.5745C34.7758-60.1435 35.6178-56.7635 36.8328-53.5095C37.2298-52.4515 37.3168-51.3035 37.0808-50.1995C36.8458-49.0975 36.2998-48.0845 35.5058-47.2815L31.0648-42.8415C30.7148-42.4915 30.6418-41.9505 30.8868-41.5195C35.9658-32.5865 43.3638-25.1885 52.2988-20.1075C52.7298-19.8625 53.2708-19.9355 53.6208-20.2855L58.0658-24.7305C58.8648-25.5205 59.8768-26.0665 60.9788-26.3015C62.0828-26.5365 63.2298-26.4505 64.2858-26.0535C67.5408-24.8395 70.9218-23.9965 74.3638-23.5435C75.7878-23.3425 77.0968-22.6205 78.0318-21.5165C78.9048-20.4855 79.3968-19.1895 79.4288-17.8445L79.4288-7.0285C79.4318-6.2035 79.2628-5.3905 78.9338-4.6365C78.6048-3.8835 78.1218-3.2085 77.5168-2.6535C76.9108-2.0975 76.1958-1.6745 75.4188-1.4115C74.6408-1.1485 73.8168-1.0505 72.9958-1.1245C62.4188-2.2735 52.2378-5.8955 43.2918-11.6965C35.1888-16.8455 28.2918-23.6625 23.0538-31.6915L22.6218-32.3635C16.7948-41.3575 13.1728-51.5885 12.0418-62.2345C11.9698-63.0335 12.0668-63.8565 12.3288-64.6325C12.5898-65.4085 13.0098-66.1215 13.5628-66.7275C14.1148-67.3325 14.7868-67.8155 15.5348-68.1455C16.2848-68.4765 17.0938-68.6475 17.9148-68.6495Z"/>
   <path class="hierarchical-1:primary SFSymbolsPreview212121" d="M84.0278-74.3495C84.5948-74.3495 85.0618-73.9205 85.1218-73.3695L85.1278-73.2495L85.1278-52.2495C85.1278-51.6425 84.6358-51.1495 84.0278-51.1495C83.4608-51.1495 82.9948-51.5785 82.9348-52.1295L82.9278-52.2495L82.9278-72.1495L63.0278-72.1495C62.4608-72.1495 61.9948-72.5785 61.9348-73.1295L61.9278-73.2495C61.9278-73.8165 62.3568-74.2835 62.9088-74.3435L63.0278-74.3495L84.0278-74.3495ZM83.2508-74.0275C83.6798-74.4575 84.3768-74.4575 84.8058-74.0275C85.2048-73.6285 85.2338-72.9995 84.8918-72.5675L84.8058-72.4715L60.3058-47.9715C59.8768-47.5425 59.1798-47.5425 58.7508-47.9715C58.3518-48.3705 58.3228-48.9995 58.6648-49.4315L58.7508-49.5275L83.2508-74.0275Z"/>
  </g>
 </g>
</svg>
