<?xml version="1.0" encoding="UTF-8"?>
<!--Generator: Apple Native CoreSVG 175-->
<!DOCTYPE svg
PUBLIC "-//W3C//DTD SVG 1.1//EN"
       "http://www.w3.org/Graphics/SVG/1.1/DTD/svg11.dtd">
<svg version="1.1" xmlns="http://www.w3.org/2000/svg" xmlns:xlink="http://www.w3.org/1999/xlink" width="3300" height="2200">
 <!--glyph: "", point size: 100.0, font version: "17.0d12e1", template writer version: "65.1"-->
 <style>.hierarchical-0:secondary {fill:#4D4D4D}
.hierarchical-1:primary {fill:#212121}

.SFSymbolsPreview212121 {fill:#212121;opacity:1.0}
.SFSymbolsPreview4D4D4D {fill:#4D4D4D;opacity:1.0}
</style>
 <g id="Notes">
  <rect height="2200" id="artboard" style="fill:white;opacity:1" width="3300" x="0" y="0"/>
  <line style="fill:none;stroke:black;opacity:1;stroke-width:0.5;" x1="263" x2="3036" y1="292" y2="292"/>
  <text style="stroke:none;fill:black;font-family:sans-serif;font-size:13;font-weight:bold;" transform="matrix(1 0 0 1 263 322)">Weight/Scale Variations</text>
  <text style="stroke:none;fill:black;font-family:sans-serif;font-size:13;text-anchor:middle;" transform="matrix(1 0 0 1 559.711 322)">Ultralight</text>
  <text style="stroke:none;fill:black;font-family:sans-serif;font-size:13;text-anchor:middle;" transform="matrix(1 0 0 1 856.422 322)">Thin</text>
  <text style="stroke:none;fill:black;font-family:sans-serif;font-size:13;text-anchor:middle;" transform="matrix(1 0 0 1 1153.13 322)">Light</text>
  <text style="stroke:none;fill:black;font-family:sans-serif;font-size:13;text-anchor:middle;" transform="matrix(1 0 0 1 1449.84 322)">Regular</text>
  <text style="stroke:none;fill:black;font-family:sans-serif;font-size:13;text-anchor:middle;" transform="matrix(1 0 0 1 1746.56 322)">Medium</text>
  <text style="stroke:none;fill:black;font-family:sans-serif;font-size:13;text-anchor:middle;" transform="matrix(1 0 0 1 2043.27 322)">Semibold</text>
  <text style="stroke:none;fill:black;font-family:sans-serif;font-size:13;text-anchor:middle;" transform="matrix(1 0 0 1 2339.98 322)">Bold</text>
  <text style="stroke:none;fill:black;font-family:sans-serif;font-size:13;text-anchor:middle;" transform="matrix(1 0 0 1 2636.69 322)">Heavy</text>
  <text style="stroke:none;fill:black;font-family:sans-serif;font-size:13;text-anchor:middle;" transform="matrix(1 0 0 1 2933.4 322)">Black</text>
  <line style="fill:none;stroke:black;opacity:1;stroke-width:0.5;" x1="263" x2="3036" y1="1903" y2="1903"/>
  <g transform="matrix(1 0 0 1 263 1933)">
   <path d="M9.24805 0.830078Q10.8691 0.830078 12.2949 0.214844Q13.7207-0.400391 14.8096-1.49414Q15.8984-2.58789 16.5186-4.01367Q17.1387-5.43945 17.1387-7.05078Q17.1387-8.66211 16.5186-10.0879Q15.8984-11.5137 14.8047-12.6074Q13.7109-13.7012 12.2852-14.3164Q10.8594-14.9316 9.23828-14.9316Q7.62695-14.9316 6.20117-14.3164Q4.77539-13.7012 3.69141-12.6074Q2.60742-11.5137 1.9873-10.0879Q1.36719-8.66211 1.36719-7.05078Q1.36719-5.43945 1.9873-4.01367Q2.60742-2.58789 3.69629-1.49414Q4.78516-0.400391 6.21094 0.214844Q7.63672 0.830078 9.24805 0.830078ZM9.24805-0.654297Q7.91992-0.654297 6.7627-1.14746Q5.60547-1.64062 4.73145-2.51953Q3.85742-3.39844 3.36426-4.56055Q2.87109-5.72266 2.87109-7.05078Q2.87109-8.37891 3.35938-9.54102Q3.84766-10.7031 4.72168-11.582Q5.5957-12.4609 6.75293-12.9541Q7.91016-13.4473 9.23828-13.4473Q10.5762-13.4473 11.7334-12.9541Q12.8906-12.4609 13.7695-11.582Q14.6484-10.7031 15.1465-9.54102Q15.6445-8.37891 15.6445-7.05078Q15.6445-5.72266 15.1514-4.56055Q14.6582-3.39844 13.7842-2.51953Q12.9102-1.64062 11.748-1.14746Q10.5859-0.654297 9.24805-0.654297ZM5.6543-7.05078Q5.6543-6.72852 5.85938-6.52832Q6.06445-6.32812 6.40625-6.32812L8.51562-6.32812L8.51562-4.20898Q8.51562-3.88672 8.71094-3.67676Q8.90625-3.4668 9.23828-3.4668Q9.56055-3.4668 9.77051-3.67676Q9.98047-3.88672 9.98047-4.20898L9.98047-6.32812L12.0898-6.32812Q12.4219-6.32812 12.627-6.52832Q12.832-6.72852 12.832-7.05078Q12.832-7.38281 12.627-7.58789Q12.4219-7.79297 12.0898-7.79297L9.98047-7.79297L9.98047-9.90234Q9.98047-10.2344 9.77051-10.4443Q9.56055-10.6543 9.23828-10.6543Q8.90625-10.6543 8.71094-10.4443Q8.51562-10.2344 8.51562-9.90234L8.51562-7.79297L6.40625-7.79297Q6.06445-7.79297 5.85938-7.58789Q5.6543-7.38281 5.6543-7.05078Z"/>
  </g>
  <g transform="matrix(1 0 0 1 281.867 1933)">
   <path d="M11.709 2.91016Q13.75 2.91016 15.5518 2.12891Q17.3535 1.34766 18.7305-0.0292969Q20.1074-1.40625 20.8887-3.20801Q21.6699-5.00977 21.6699-7.05078Q21.6699-9.0918 20.8887-10.8936Q20.1074-12.6953 18.7305-14.0723Q17.3535-15.4492 15.5469-16.2305Q13.7402-17.0117 11.6992-17.0117Q9.6582-17.0117 7.85645-16.2305Q6.05469-15.4492 4.68262-14.0723Q3.31055-12.6953 2.5293-10.8936Q1.74805-9.0918 1.74805-7.05078Q1.74805-5.00977 2.5293-3.20801Q3.31055-1.40625 4.6875-0.0292969Q6.06445 1.34766 7.86621 2.12891Q9.66797 2.91016 11.709 2.91016ZM11.709 1.25Q9.98047 1.25 8.47656 0.605469Q6.97266-0.0390625 5.83496-1.17676Q4.69727-2.31445 4.05762-3.81836Q3.41797-5.32227 3.41797-7.05078Q3.41797-8.7793 4.05762-10.2832Q4.69727-11.7871 5.83008-12.9297Q6.96289-14.0723 8.4668-14.7119Q9.9707-15.3516 11.6992-15.3516Q13.4277-15.3516 14.9316-14.7119Q16.4355-14.0723 17.5781-12.9297Q18.7207-11.7871 19.3652-10.2832Q20.0098-8.7793 20.0098-7.05078Q20.0098-5.32227 19.3701-3.81836Q18.7305-2.31445 17.5928-1.17676Q16.4551-0.0390625 14.9463 0.605469Q13.4375 1.25 11.709 1.25ZM7.17773-7.05078Q7.17773-6.69922 7.41211-6.47461Q7.64648-6.25 8.01758-6.25L10.8887-6.25L10.8887-3.36914Q10.8887-2.99805 11.1133-2.76855Q11.3379-2.53906 11.6895-2.53906Q12.0605-2.53906 12.29-2.76855Q12.5195-2.99805 12.5195-3.36914L12.5195-6.25L15.4004-6.25Q15.7715-6.25 16.001-6.47461Q16.2305-6.69922 16.2305-7.05078Q16.2305-7.42188 16.001-7.65137Q15.7715-7.88086 15.4004-7.88086L12.5195-7.88086L12.5195-10.752Q12.5195-11.1328 12.29-11.3623Q12.0605-11.5918 11.6895-11.5918Q11.3379-11.5918 11.1133-11.3574Q10.8887-11.123 10.8887-10.752L10.8887-7.88086L8.01758-7.88086Q7.63672-7.88086 7.40723-7.65137Q7.17773-7.42188 7.17773-7.05078Z"/>
  </g>
  <g transform="matrix(1 0 0 1 305.646 1933)">
   <path d="M14.9707 5.66406Q17.0605 5.66406 18.96 5.01465Q20.8594 4.36523 22.4512 3.19336Q24.043 2.02148 25.2197 0.429688Q26.3965-1.16211 27.0459-3.06641Q27.6953-4.9707 27.6953-7.05078Q27.6953-9.14062 27.0459-11.04Q26.3965-12.9395 25.2197-14.5312Q24.043-16.123 22.4512-17.2998Q20.8594-18.4766 18.9551-19.126Q17.0508-19.7754 14.9609-19.7754Q12.8711-19.7754 10.9717-19.126Q9.07227-18.4766 7.48535-17.2998Q5.89844-16.123 4.72168-14.5312Q3.54492-12.9395 2.90039-11.04Q2.25586-9.14062 2.25586-7.05078Q2.25586-4.9707 2.90527-3.06641Q3.55469-1.16211 4.72656 0.429688Q5.89844 2.02148 7.49023 3.19336Q9.08203 4.36523 10.9814 5.01465Q12.8809 5.66406 14.9707 5.66406ZM14.9707 3.84766Q13.1641 3.84766 11.5283 3.2959Q9.89258 2.74414 8.53516 1.74805Q7.17773 0.751953 6.17676-0.610352Q5.17578-1.97266 4.62891-3.6084Q4.08203-5.24414 4.08203-7.05078Q4.08203-8.86719 4.62891-10.5029Q5.17578-12.1387 6.17188-13.501Q7.16797-14.8633 8.52539-15.8594Q9.88281-16.8555 11.5186-17.4023Q13.1543-17.9492 14.9609-17.9492Q16.7773-17.9492 18.4131-17.4023Q20.0488-16.8555 21.4111-15.8594Q22.7734-14.8633 23.7695-13.501Q24.7656-12.1387 25.3174-10.5029Q25.8691-8.86719 25.8691-7.05078Q25.8789-5.24414 25.332-3.6084Q24.7852-1.97266 23.7842-0.610352Q22.7832 0.751953 21.4209 1.74805Q20.0586 2.74414 18.4229 3.2959Q16.7871 3.84766 14.9707 3.84766ZM9.19922-7.05078Q9.19922-6.66992 9.45801-6.4209Q9.7168-6.17188 10.1172-6.17188L14.0625-6.17188L14.0625-2.2168Q14.0625-1.81641 14.3115-1.55762Q14.5605-1.29883 14.9512-1.29883Q15.3516-1.29883 15.6104-1.55273Q15.8691-1.80664 15.8691-2.2168L15.8691-6.17188L19.8242-6.17188Q20.2246-6.17188 20.4785-6.4209Q20.7324-6.66992 20.7324-7.05078Q20.7324-7.46094 20.4785-7.71484Q20.2246-7.96875 19.8242-7.96875L15.8691-7.96875L15.8691-11.9141Q15.8691-12.3242 15.6104-12.583Q15.3516-12.8418 14.9512-12.8418Q14.5605-12.8418 14.3115-12.583Q14.0625-12.3242 14.0625-11.9141L14.0625-7.96875L10.1172-7.96875Q9.70703-7.96875 9.45312-7.71484Q9.19922-7.46094 9.19922-7.05078Z"/>
  </g>
  <text style="stroke:none;fill:black;font-family:sans-serif;font-size:13;font-weight:bold;" transform="matrix(1 0 0 1 263 1953)">Design Variations</text>
  <text style="stroke:none;fill:black;font-family:sans-serif;font-size:13;" transform="matrix(1 0 0 1 263 1971)">Symbols are supported in up to nine weights and three scales.</text>
  <text style="stroke:none;fill:black;font-family:sans-serif;font-size:13;" transform="matrix(1 0 0 1 263 1989)">For optimal layout with text and other symbols, vertically align</text>
  <text style="stroke:none;fill:black;font-family:sans-serif;font-size:13;" transform="matrix(1 0 0 1 263 2007)">symbols with the adjacent text.</text>
  <line style="fill:none;stroke:#00AEEF;stroke-width:0.5;opacity:1.0;" x1="776" x2="776" y1="1919" y2="1933"/>
  <g transform="matrix(1 0 0 1 776 1933)">
   <path d="M3.31055 0.15625Q3.70117 0.15625 3.91602-0.00976562Q4.13086-0.175781 4.26758-0.585938L5.52734-4.0332L11.2891-4.0332L12.5488-0.585938Q12.6855-0.175781 12.9004-0.00976562Q13.1152 0.15625 13.4961 0.15625Q13.8867 0.15625 14.1162-0.0585938Q14.3457-0.273438 14.3457-0.644531Q14.3457-0.869141 14.2383-1.17188L9.6582-13.3691Q9.48242-13.8184 9.17969-14.043Q8.87695-14.2676 8.4082-14.2676Q7.5-14.2676 7.17773-13.3789L2.59766-1.16211Q2.49023-0.859375 2.49023-0.634766Q2.49023-0.263672 2.70996-0.0537109Q2.92969 0.15625 3.31055 0.15625ZM6.00586-5.51758L8.37891-12.0898L8.42773-12.0898L10.8008-5.51758Z"/>
  </g>
  <line style="fill:none;stroke:#00AEEF;stroke-width:0.5;opacity:1.0;" x1="793.197" x2="793.197" y1="1919" y2="1933"/>
  <text style="stroke:none;fill:black;font-family:sans-serif;font-size:13;font-weight:bold;" transform="matrix(1 0 0 1 776 1953)">Margins</text>
  <text style="stroke:none;fill:black;font-family:sans-serif;font-size:13;" transform="matrix(1 0 0 1 776 1971)">Leading and trailing margins on the left and right side of each symbol</text>
  <text style="stroke:none;fill:black;font-family:sans-serif;font-size:13;" transform="matrix(1 0 0 1 776 1989)">can be adjusted by modifying the x-location of the margin guidelines.</text>
  <text style="stroke:none;fill:black;font-family:sans-serif;font-size:13;" transform="matrix(1 0 0 1 776 2007)">Modifications are automatically applied proportionally to all</text>
  <text style="stroke:none;fill:black;font-family:sans-serif;font-size:13;" transform="matrix(1 0 0 1 776 2025)">scales and weights.</text>
  <g transform="matrix(1 0 0 1 1289 1933)">
   <path d="M2.8418 1.86523L4.54102 3.57422Q5.18555 4.22852 5.90332 4.17969Q6.62109 4.13086 7.31445 3.35938L18.0078-8.42773L17.041-9.4043L6.42578 2.27539Q6.16211 2.57812 5.89355 2.61719Q5.625 2.65625 5.27344 2.30469L4.10156 1.14258Q3.75 0.791016 3.79395 0.522461Q3.83789 0.253906 4.14062-0.0195312L15.6152-10.8203L14.6387-11.7871L3.04688-0.898438Q2.30469-0.214844 2.25098 0.498047Q2.19727 1.21094 2.8418 1.86523ZM9.25781-16.3281Q8.94531-16.0254 8.90625-15.6348Q8.86719-15.2441 9.04297-14.9512Q9.21875-14.6777 9.55566-14.541Q9.89258-14.4043 10.3809-14.5215Q11.4746-14.7754 12.5977-14.7314Q13.7207-14.6875 14.7949-13.9844L14.209-12.5293Q13.9551-11.9043 14.0674-11.4404Q14.1797-10.9766 14.5801-10.5664L16.875-8.25195Q17.2363-7.88086 17.5781-7.82227Q17.9199-7.76367 18.3398-7.8418L19.4043-8.03711L20.0684-7.36328L20.0293-6.80664Q20-6.43555 20.1221-6.12305Q20.2441-5.81055 20.6055-5.44922L21.3672-4.70703Q21.7285-4.3457 22.1533-4.33105Q22.5781-4.31641 22.9297-4.66797L25.8398-7.58789Q26.1914-7.93945 26.1816-8.35449Q26.1719-8.76953 25.8105-9.13086L25.0391-9.89258Q24.6875-10.2539 24.3799-10.3857Q24.0723-10.5176 23.7109-10.4883L23.1348-10.4395L22.4902-11.0742L22.7344-12.1973Q22.832-12.6172 22.6953-12.9834Q22.5586-13.3496 22.1191-13.7891L19.9219-15.9766Q18.6719-17.2168 17.2607-17.8369Q15.8496-18.457 14.4189-18.4814Q12.9883-18.5059 11.665-17.959Q10.3418-17.4121 9.25781-16.3281ZM10.752-15.957Q11.6602-16.6211 12.7002-16.9043Q13.7402-17.1875 14.8047-17.085Q15.8691-16.9824 16.8701-16.5137Q17.8711-16.0449 18.7012-15.2051L21.1328-12.793Q21.3086-12.6172 21.3525-12.4512Q21.3965-12.2852 21.3379-12.0312L21.0156-10.5469L22.5195-9.0625L23.5059-9.12109Q23.6914-9.13086 23.7891-9.09668Q23.8867-9.0625 24.0332-8.91602L24.6094-8.33984L22.168-5.89844L21.5918-6.47461Q21.4453-6.62109 21.4062-6.71875Q21.3672-6.81641 21.377-7.01172L21.4453-7.98828L19.9512-9.47266L18.4277-9.21875Q18.1836-9.16992 18.042-9.2041Q17.9004-9.23828 17.7148-9.41406L15.7129-11.416Q15.5176-11.5918 15.4932-11.7529Q15.4688-11.9141 15.5859-12.1875L16.4648-14.2773Q15.293-15.3711 13.8281-15.791Q12.3633-16.2109 10.8398-15.7617Q10.7227-15.7324 10.6885-15.8057Q10.6543-15.8789 10.752-15.957Z"/>
  </g>
  <text style="stroke:none;fill:black;font-family:sans-serif;font-size:13;font-weight:bold;" transform="matrix(1 0 0 1 1289 1953)">Exporting</text>
  <text style="stroke:none;fill:black;font-family:sans-serif;font-size:13;" transform="matrix(1 0 0 1 1289 1971)">Symbols should be outlined when exporting to ensure the</text>
  <text style="stroke:none;fill:black;font-family:sans-serif;font-size:13;" transform="matrix(1 0 0 1 1289 1989)">design is preserved when submitting to Xcode.</text>
  <text id="template-version" style="stroke:none;fill:black;font-family:sans-serif;font-size:13;text-anchor:end;" transform="matrix(1 0 0 1 3036 1933)">Template v.3.0</text>
  <text style="stroke:none;fill:black;font-family:sans-serif;font-size:13;text-anchor:end;" transform="matrix(1 0 0 1 3036 1951)">Requires Xcode 13 or greater</text>
  <text id="descriptive-name" style="stroke:none;fill:black;font-family:sans-serif;font-size:13;text-anchor:end;" transform="matrix(1 0 0 1 3036 1969)">Generated from zap-off</text>
  <text style="stroke:none;fill:black;font-family:sans-serif;font-size:13;text-anchor:end;" transform="matrix(1 0 0 1 3036 1987)">Typeset at 100 points</text>
  <text style="stroke:none;fill:black;font-family:sans-serif;font-size:13;" transform="matrix(1 0 0 1 263 726)">Small</text>
  <text style="stroke:none;fill:black;font-family:sans-serif;font-size:13;" transform="matrix(1 0 0 1 263 1156)">Medium</text>
  <text style="stroke:none;fill:black;font-family:sans-serif;font-size:13;" transform="matrix(1 0 0 1 263 1586)">Large</text>
 </g>
 <g id="Guides">
  <g id="H-reference" style="fill:#27AAE1;stroke:none;" transform="matrix(1 0 0 1 339 696)">
   <path d="M0.976562 0L3.66211 0L29.3457-67.1387L30.0293-67.1387L30.0293-70.459L28.125-70.459ZM11.6699-24.4629L46.9727-24.4629L46.2402-26.709L12.4512-26.709ZM55.127 0L57.7637 0L30.6152-70.459L29.4434-70.459L29.4434-67.1387Z"/>
  </g>
  <line id="Baseline-S" style="fill:none;stroke:#27AAE1;opacity:1;stroke-width:0.5;" x1="263" x2="3036" y1="696" y2="696"/>
  <line id="Capline-S" style="fill:none;stroke:#27AAE1;opacity:1;stroke-width:0.5;" x1="263" x2="3036" y1="625.541" y2="625.541"/>
  <g id="H-reference" style="fill:#27AAE1;stroke:none;" transform="matrix(1 0 0 1 339 1126)">
   <path d="M0.976562 0L3.66211 0L29.3457-67.1387L30.0293-67.1387L30.0293-70.459L28.125-70.459ZM11.6699-24.4629L46.9727-24.4629L46.2402-26.709L12.4512-26.709ZM55.127 0L57.7637 0L30.6152-70.459L29.4434-70.459L29.4434-67.1387Z"/>
  </g>
  <line id="Baseline-M" style="fill:none;stroke:#27AAE1;opacity:1;stroke-width:0.5;" x1="263" x2="3036" y1="1126" y2="1126"/>
  <line id="Capline-M" style="fill:none;stroke:#27AAE1;opacity:1;stroke-width:0.5;" x1="263" x2="3036" y1="1055.54" y2="1055.54"/>
  <g id="H-reference" style="fill:#27AAE1;stroke:none;" transform="matrix(1 0 0 1 339 1556)">
   <path d="M0.976562 0L3.66211 0L29.3457-67.1387L30.0293-67.1387L30.0293-70.459L28.125-70.459ZM11.6699-24.4629L46.9727-24.4629L46.2402-26.709L12.4512-26.709ZM55.127 0L57.7637 0L30.6152-70.459L29.4434-70.459L29.4434-67.1387Z"/>
  </g>
  <line id="Baseline-L" style="fill:none;stroke:#27AAE1;opacity:1;stroke-width:0.5;" x1="263" x2="3036" y1="1556" y2="1556"/>
  <line id="Capline-L" style="fill:none;stroke:#27AAE1;opacity:1;stroke-width:0.5;" x1="263" x2="3036" y1="1485.54" y2="1485.54"/>
  <line id="left-margin-Regular-M" style="fill:none;stroke:#00AEEF;stroke-width:0.5;opacity:1.0;" x1="1393.13" x2="1393.13" y1="1030.78" y2="1150.12"/>
  <line id="right-margin-Regular-M" style="fill:none;stroke:#00AEEF;stroke-width:0.5;opacity:1.0;" x1="1506.56" x2="1506.56" y1="1030.78" y2="1150.12"/>
 </g>
 <g id="Symbols">
  <g id="Black-L" transform="matrix(1 0 0 1 2859.61 1556)">
   <path class="hierarchical-0:secondary SFSymbolsPreview4D4D4D" d="M55.7425-64.83C58.7525-62.32 59.1625-57.84 56.6425-54.83L37.9125-32.35L73.9425-32.35C75.9825-32.35 77.9225-31.47 79.2625-29.95C80.6125-28.42 81.2425-26.39 80.9925-24.37L78.3025-2.9L91.2425-18.42C93.7525-21.43 98.2225-21.84 101.242-19.33C104.252-16.82 104.662-12.34 102.142-9.33L73.7125 24.8C71.6925 27.22 68.3225 28.02 65.4325 26.77C62.5325 25.51 60.8225 22.5 61.2125 19.37L65.9025-18.15L22.7525-18.15C20.0025-18.15 17.4925-19.74 16.3225-22.24C15.1525-24.73 15.5325-27.68 17.3025-29.79L45.7425-63.92C48.2525-66.93 52.7225-67.34 55.7425-64.83ZM87.6625-48C87.6625-51.92 90.8425-55.1 94.7625-55.1L125.132-55.1C127.882-55.1 130.392-53.5 131.562-51.01C132.732-48.51 132.342-45.56 130.582-43.45L116.762-26.9C114.242-23.89 109.772-23.48 106.762-26C103.752-28.51 103.342-32.99 105.862-36L109.952-40.9L94.7625-40.9C90.8425-40.9 87.6625-44.08 87.6625-48ZM82.4525-100.01C85.3425-98.76 87.0625-95.75 86.6725-92.62L83.3225-65.61C82.8325-61.71 79.2925-58.95 75.4025-59.44C71.5125-59.92 68.7425-63.46 69.2325-67.36L69.6725-70.93C67.1325-69.28 63.7125-69.39 61.2725-71.43C58.2525-73.94 57.8425-78.42 60.3525-81.43L74.1725-98.04C76.1925-100.46 79.5625-101.26 82.4525-100.01Z"/>
   <path class="hierarchical-1:primary SFSymbolsPreview212121" d="M6.3625-104.2C9.1325-106.98 13.6325-106.98 16.4025-104.2L141.523 20.92C144.302 23.69 144.302 28.19 141.523 30.96C138.752 33.73 134.262 33.73 131.482 30.96L6.3625-94.16C3.5825-96.94 3.5825-101.43 6.3625-104.2Z"/>
  </g>
  <g id="Heavy-L" transform="matrix(1 0 0 1 2563.75 1556)">
   <path class="hierarchical-0:secondary SFSymbolsPreview4D4D4D" d="M54.3375-64C56.9875-61.79 57.3475-57.85 55.1375-55.2L35.2375-31.33L73.0875-31.33C74.8775-31.33 76.5875-30.56 77.7675-29.21C78.9575-27.87 79.5075-26.08 79.2875-24.3L76.2475 0.05L91.0375-17.7C93.2475-20.35 97.1875-20.71 99.8375-18.5C102.487-16.29 102.847-12.35 100.637-9.7L72.1975 24.43C70.4275 26.56 67.4575 27.26 64.9075 26.16C62.3675 25.05 60.8475 22.4 61.1975 19.65L66.0075-18.83L21.8975-18.83C19.4775-18.83 17.2675-20.23 16.2375-22.42C15.2075-24.62 15.5475-27.21 17.0975-29.08L45.5375-63.2C47.7475-65.85 51.6875-66.21 54.3375-64ZM87.6475-47.83C87.6475-51.28 90.4475-54.08 93.8975-54.08L124.277-54.08C126.697-54.08 128.907-52.67 129.938-50.47C130.957-48.28 130.627-45.68 129.067-43.82L115.247-27.27C113.037-24.62 109.097-24.27 106.447-26.48C103.797-28.69 103.447-32.63 105.657-35.28L110.907-41.58L93.8975-41.58C90.4475-41.58 87.6475-44.37 87.6475-47.83ZM81.2575-99.06C83.8075-97.96 85.3175-95.31 84.9775-92.55L81.6175-65.54C81.1975-62.11 78.0675-59.68 74.6475-60.11C71.2175-60.53 68.7875-63.65 69.2175-67.08L69.9475-72.94L69.7575-72.72C67.5475-70.07 63.6075-69.71 60.9575-71.91C58.2975-74.12 57.9375-78.06 60.1475-80.72L73.9675-97.32C75.7475-99.46 78.7075-100.16 81.2575-99.06Z"/>
   <path class="hierarchical-1:primary SFSymbolsPreview212121" d="M6.1075-103.43C8.5475-105.87 12.4975-105.87 14.9375-103.43L140.067 21.69C142.507 24.13 142.507 28.09 140.067 30.53C137.627 32.97 133.668 32.97 131.227 30.53L6.1075-94.59C3.6675-97.03 3.6675-100.99 6.1075-103.43Z"/>
  </g>
  <g id="Bold-L" transform="matrix(1 0 0 1 2267.99 1556)">
   <path class="hierarchical-0:secondary SFSymbolsPreview4D4D4D" d="M52.78-63.085C55.03-61.215 55.33-57.875 53.46-55.625L32.26-30.195L72.13-30.195C73.66-30.195 75.1-29.535 76.11-28.395C77.11-27.255 77.58-25.745 77.39-24.235L73.95 3.325L90.81-16.905C92.69-19.155 96.03-19.465 98.28-17.585C100.529-15.715 100.831-12.375 98.96-10.125L70.52 24.005C69.01 25.805 66.5 26.405 64.34 25.475C62.18 24.535 60.9 22.285 61.19 19.955L66.13-19.595L20.95-19.595C18.89-19.595 17.02-20.785 16.15-22.645C15.28-24.505 15.56-26.705 16.88-28.285L45.31-62.405C47.19-64.655 50.53-64.965 52.78-63.085ZM87.65-47.645C87.65-50.565 90.02-52.945 92.95-52.945L123.319-52.945C125.38-52.945 127.25-51.755 128.119-49.885C128.989-48.025 128.71-45.825 127.389-44.245L113.569-27.695C111.69-25.445 108.349-25.145 106.099-27.025C103.859-28.895 103.56-32.245 105.429-34.485L111.989-42.345L92.95-42.345C90.02-42.345 87.65-44.715 87.65-47.645ZM79.93-98.005C82.09-97.065 83.37-94.825 83.08-92.485L79.73-65.475C79.37-62.565 76.72-60.505 73.81-60.865C70.91-61.225 68.85-63.875 69.21-66.775L70.34-75.855L68.08-73.145C66.2-70.895 62.86-70.585 60.61-72.455C58.36-74.335 58.06-77.675 59.93-79.925L73.75-96.535C75.25-98.335 77.77-98.935 79.93-98.005Z"/>
   <path class="hierarchical-1:primary SFSymbolsPreview212121" d="M5.83-102.574C7.89-104.644 11.25-104.644 13.32-102.574L138.449 22.545C140.52 24.615 140.52 27.975 138.449 30.045C136.38 32.115 133.02 32.115 130.949 30.045L5.83-95.085C3.76-97.155 3.76-100.505 5.83-102.574Z"/>
  </g>
  <g id="Semibold-L" transform="matrix(1 0 0 1 1971.93 1556)">
   <path class="hierarchical-0:secondary SFSymbolsPreview4D4D4D" d="M51.7225-62.46C53.6925-60.82 53.9625-57.88 52.3125-55.91L30.2325-29.41L71.4925-29.41C72.8225-29.41 74.0925-28.84 74.9825-27.84C75.8625-26.84 76.2725-25.51 76.1025-24.19L72.3825 5.58L90.6725-16.37C92.3125-18.34 95.2425-18.61 97.2225-16.96C99.1925-15.32 99.4625-12.38 97.8125-10.41L69.3725 23.71C68.0525 25.3 65.8425 25.82 63.9525 25C62.0625 24.18 60.9325 22.21 61.1925 20.16L66.2225-20.11L20.3025-20.11C18.5025-20.11 16.8625-21.16 16.0925-22.79C15.3325-24.43 15.5825-26.35 16.7325-27.74L45.1725-61.87C46.8125-63.84 49.7425-64.11 51.7225-62.46ZM87.6625-47.51C87.6625-50.08 89.7425-52.16 92.3125-52.16L122.682-52.16C124.483-52.16 126.122-51.12 126.892-49.48C127.653-47.85 127.403-45.92 126.252-44.53L112.432-27.98C110.783-26.01 107.852-25.75 105.883-27.39C103.912-29.04 103.642-31.97 105.292-33.94L112.742-42.86L92.3125-42.86C89.7425-42.86 87.6625-44.95 87.6625-47.51ZM79.0325-97.28C80.9225-96.46 82.0525-94.49 81.7925-92.44L78.4425-65.42C78.1225-62.88 75.8025-61.07 73.2525-61.38C70.7025-61.7 68.8925-64.02 69.2125-66.57L70.6125-77.85L66.9325-73.43C65.2925-71.46 62.3625-71.19 60.3825-72.83C58.4125-74.47 58.1425-77.41 59.7825-79.38L73.6025-95.99C74.9225-97.57 77.1325-98.1 79.0325-97.28Z"/>
   <path class="hierarchical-1:primary SFSymbolsPreview212121" d="M5.6425-101.99C7.4625-103.81 10.4025-103.81 12.2225-101.99L137.343 23.14C139.162 24.95 139.162 27.9 137.343 29.71C135.522 31.53 132.582 31.53 130.762 29.71L5.6425-95.41C3.8225-97.23 3.8225-100.17 5.6425-101.99Z"/>
  </g>
  <g id="Medium-L" transform="matrix(1 0 0 1 1675.72 1556)">
   <path class="hierarchical-0:secondary SFSymbolsPreview4D4D4D" d="M50.9025-61.98C52.6625-60.51 52.9025-57.89 51.4325-56.13L28.6625-28.81L70.9925-28.81C72.1825-28.81 73.3125-28.3 74.1025-27.41C74.8925-26.52 75.2625-25.33 75.1125-24.15L71.1825 7.31L90.5525-15.95C92.0225-17.71 94.6425-17.94 96.4025-16.48C98.1625-15.01 98.4025-12.39 96.9325-10.63L68.4925 23.49C67.3125 24.91 65.3425 25.38 63.6525 24.64C61.9625 23.91 60.9625 22.15 61.1825 20.32L66.2925-20.51L19.8025-20.51C18.1925-20.51 16.7325-21.45 16.0425-22.9C15.3625-24.36 15.5825-26.08 16.6125-27.32L45.0525-61.45C46.5225-63.21 49.1425-63.44 50.9025-61.98ZM87.6625-47.41C87.6625-49.71 89.5125-51.56 91.8125-51.56L122.183-51.56C123.792-51.56 125.252-50.63 125.943-49.17C126.622-47.71 126.402-45.99 125.362-44.75L111.542-28.2C110.072-26.44 107.463-26.21 105.703-27.68C103.943-29.15 103.703-31.76 105.173-33.52L113.312-43.26L91.8125-43.26C89.5125-43.26 87.6625-45.12 87.6625-47.41ZM78.3325-96.72C80.0225-95.99 81.0225-94.23 80.8025-92.4L77.4425-65.39C77.1625-63.11 75.0825-61.5 72.8125-61.78C70.5425-62.06 68.9225-64.14 69.2025-66.41L70.8125-79.38L66.0525-73.65C64.5825-71.89 61.9625-71.65 60.2025-73.12C58.4425-74.58 58.2025-77.2 59.6725-78.96L73.4925-95.57C74.6725-96.98 76.6425-97.45 78.3325-96.72Z"/>
   <path class="hierarchical-1:primary SFSymbolsPreview212121" d="M5.4925-101.54C7.1125-103.16 9.7425-103.16 11.3625-101.54L136.493 23.59C138.112 25.21 138.112 27.84 136.493 29.46C134.872 31.08 132.243 31.08 130.622 29.46L5.4925-95.67C3.8725-97.29 3.8725-99.92 5.4925-101.54Z"/>
  </g>
  <g id="Regular-L" transform="matrix(1 0 0 1 1379.66 1556)">
   <path class="hierarchical-0:secondary SFSymbolsPreview4D4D4D" d="M49.8275-61.35C51.3175-60.11 51.5175-57.9 50.2775-56.42L26.6275-28.04L70.3375-28.04C71.3375-28.04 72.2975-27.6 72.9575-26.85C73.6275-26.1 73.9375-25.1 73.8075-24.1L69.6075 9.55L90.3975-15.4C91.6375-16.89 93.8475-17.09 95.3275-15.85C96.8175-14.61 97.0175-12.4 95.7775-10.92L67.3375 23.21C66.3475 24.4 64.6775 24.79 63.2575 24.18C61.8275 23.56 60.9875 22.07 61.1775 20.53L66.3775-21.04L19.1475-21.04C17.7875-21.04 16.5575-21.82 15.9775-23.05C15.4075-24.28 15.5875-25.73 16.4575-26.78L44.8975-60.9C46.1375-62.39 48.3475-62.59 49.8275-61.35ZM87.6575-47.29C87.6575-49.22 89.2175-50.79 91.1575-50.79L121.528-50.79C122.887-50.79 124.117-50 124.697-48.77C125.267-47.54 125.087-46.09 124.207-45.04L110.387-28.49C109.147-27.01 106.947-26.81 105.457-28.05C103.977-29.29 103.778-31.49 105.017-32.98L114.048-43.79L91.1575-43.79C89.2175-43.79 87.6575-45.35 87.6575-47.29ZM77.4175-96C78.8375-95.38 79.6875-93.9 79.4975-92.35L76.1475-65.34C75.9075-63.42 74.1575-62.06 72.2375-62.3C70.3175-62.53 68.9575-64.28 69.1975-66.2L71.0775-81.37L64.8975-73.94C63.6575-72.45 61.4475-72.25 59.9675-73.49C58.4775-74.72 58.2775-76.93 59.5175-78.42L73.3375-95.02C74.3275-96.22 75.9875-96.61 77.4175-96Z"/>
   <path class="hierarchical-1:primary SFSymbolsPreview212121" d="M5.2975-100.95C6.6675-102.31 8.8875-102.31 10.2475-100.95L135.377 24.18C136.737 25.54 136.737 27.76 135.377 29.13C134.007 30.49 131.787 30.49 130.427 29.13L5.2975-96C3.9375-97.36 3.9375-99.58 5.2975-100.95Z"/>
  </g>
  <g id="Light-L" transform="matrix(1 0 0 1 1083.74 1556)">
   <path class="hierarchical-0:secondary SFSymbolsPreview4D4D4D" d="M48.5225-60.58C49.6625-59.63 49.8225-57.93 48.8625-56.78L24.1225-27.08L69.5425-27.08C70.3125-27.08 71.0525-26.75 71.5625-26.17C72.0825-25.59 72.3225-24.82 72.2225-24.05L67.6725 12.31L90.2225-14.74C91.1725-15.88 92.8725-16.04 94.0225-15.08C95.1625-14.13 95.3225-12.43 94.3625-11.28L65.9325 22.84C65.1625 23.76 63.8825 24.07 62.7825 23.59C61.6825 23.11 61.0225 21.97 61.1725 20.78L66.4825-21.68L18.3525-21.68C17.3025-21.68 16.3525-22.29 15.9125-23.24C15.4625-24.19 15.6125-25.31 16.2825-26.11L44.7225-60.24C45.6725-61.38 47.3725-61.54 48.5225-60.58ZM87.6625-47.13C87.6625-48.63 88.8725-49.83 90.3625-49.83L120.732-49.83C121.782-49.83 122.732-49.23 123.173-48.28C123.622-47.33 123.472-46.21 122.802-45.4L108.982-28.85C108.022-27.71 106.322-27.56 105.183-28.51C104.032-29.47 103.882-31.17 104.832-32.31L114.962-44.43L90.3625-44.43C88.8725-44.43 87.6625-45.64 87.6625-47.13ZM76.3025-95.11C77.4025-94.64 78.0525-93.49 77.9125-92.3L74.5525-65.29C74.3725-63.81 73.0225-62.76 71.5425-62.94C70.0625-63.12 69.0125-64.47 69.1925-65.95L71.4125-83.83L63.4825-74.3C62.5325-73.15 60.8325-73 59.6825-73.95C58.5325-74.91 58.3825-76.61 59.3325-77.75L73.1525-94.36C73.9225-95.28 75.2025-95.59 76.3025-95.11Z"/>
   <path class="hierarchical-1:primary SFSymbolsPreview212121" d="M5.0725-100.23C6.1225-101.29 7.8325-101.29 8.8925-100.23L134.012 24.89C135.072 25.95 135.072 27.66 134.012 28.71C132.962 29.77 131.252 29.77 130.192 28.71L5.0725-96.41C4.0125-97.47 4.0125-99.18 5.0725-100.23Z"/>
  </g>
  <g id="Thin-L" transform="matrix(1 0 0 1 788.085 1556)">
   <path class="hierarchical-0:secondary SFSymbolsPreview4D4D4D" d="M46.7955-59.57C47.4955-58.98 47.5905-57.94 47.0075-57.24L20.8245-25.82L68.4895-25.82C68.9625-25.82 69.4135-25.62 69.7265-25.27C70.0395-24.91 70.1855-24.44 70.1265-23.97L65.1375 15.95L89.9725-13.86C90.5555-14.56 91.5955-14.65 92.2955-14.07C92.9955-13.48 93.0905-12.44 92.5075-11.74L64.0695 22.38C63.6005 22.95 62.8175 23.13 62.1455 22.84C61.4735 22.55 61.0745 21.85 61.1645 21.12L66.6205-22.52L17.3025-22.52C16.6615-22.52 16.0795-22.89 15.8075-23.47C15.5365-24.05 15.6245-24.74 16.0345-25.23L44.4725-59.36C45.0555-60.06 46.0955-60.15 46.7955-59.57ZM87.6565-46.92C87.6565-47.84 88.3945-48.57 89.3065-48.57L119.677-48.57C120.317-48.57 120.901-48.2 121.171-47.62C121.443-47.04 121.354-46.36 120.943-45.87L107.123-29.32C106.539-28.62 105.498-28.52 104.799-29.11C104.099-29.69 104.007-30.73 104.59-31.43L116.149-45.27L89.3065-45.27C88.3945-45.27 87.6565-46.01 87.6565-46.92ZM74.8325-93.94C75.5045-93.65 75.9045-92.95 75.8145-92.22L72.4585-65.2C72.3465-64.3 71.5225-63.66 70.6175-63.77C69.7135-63.88 69.0715-64.71 69.1835-65.61L71.8455-87.04L61.6245-74.76C61.0415-74.06 60.0015-73.97 59.3005-74.55C58.6005-75.13 58.5055-76.17 59.0885-76.87L72.9085-93.48C73.3775-94.04 74.1605-94.23 74.8325-93.94Z"/>
   <path class="hierarchical-1:primary SFSymbolsPreview212121" d="M4.7605-99.28C5.4045-99.92 6.4495-99.92 7.0935-99.28L132.219 25.85C132.863 26.49 132.863 27.54 132.219 28.18C131.575 28.82 130.529 28.82 129.885 28.18L4.7605-96.94C4.1165-97.59 4.1165-98.63 4.7605-99.28Z"/>
  </g>
  <g id="Ultralight-L" transform="matrix(1 0 0 1 491.924 1556)">
   <path class="hierarchical-0:secondary SFSymbolsPreview4D4D4D" d="M45.894-59.045C46.361-58.655 46.424-57.955 46.035-57.495L19.101-25.175L67.94-25.175C68.255-25.175 68.556-25.035 68.765-24.795C68.973-24.565 69.071-24.245 69.031-23.935L63.809 17.845L89.845-13.405C90.234-13.865 90.927-13.935 91.394-13.545C91.861-13.155 91.924-12.455 91.535-11.995L63.097 22.135C62.785 22.505 62.262 22.635 61.814 22.435C61.366 22.245 61.1 21.775 61.161 21.295L66.694-22.975L16.752-22.975C16.326-22.975 15.937-23.215 15.756-23.605C15.575-23.995 15.634-24.445 15.907-24.775L44.345-58.905C44.734-59.365 45.427-59.435 45.894-59.045ZM87.656-46.825C87.656-47.425 88.149-47.925 88.756-47.925L119.127-47.925C119.554-47.925 119.942-47.675 120.123-47.285C120.304-46.905 120.245-46.445 119.971-46.115L106.15-29.565C105.761-29.105 105.067-29.035 104.601-29.425C104.135-29.815 104.072-30.515 104.462-30.975L116.775-45.725L88.756-45.725C88.149-45.725 87.656-46.215 87.656-46.825ZM74.065-93.335C74.513-93.135 74.779-92.675 74.719-92.185L71.363-65.175C71.288-64.565 70.739-64.135 70.136-64.215C69.533-64.285 69.105-64.835 69.18-65.445L72.073-88.735L60.652-75.015C60.264-74.545 59.57-74.485 59.103-74.865C58.636-75.255 58.573-75.955 58.961-76.415L72.782-93.025C73.094-93.405 73.616-93.525 74.065-93.335Z"/>
   <path class="hierarchical-1:primary SFSymbolsPreview212121" d="M4.6-98.785C5.029-99.215 5.726-99.215 6.155-98.785L131.279 26.335C131.709 26.765 131.709 27.465 131.279 27.895C130.85 28.325 130.153 28.325 129.724 27.895L4.6-97.235C4.17-97.665 4.17-98.355 4.6-98.785Z"/>
  </g>
  <g id="Black-M" transform="matrix(1 0 0 1 2873.09 1126)">
   <path class="hierarchical-0:secondary SFSymbolsPreview4D4D4D" d="M47.1625-59.915C50.1725-57.405 50.5825-52.935 48.0725-49.915L35.4625-34.785L60.4625-34.785C62.5025-34.785 64.4425-33.915 65.7925-32.385C67.1325-30.865 67.7625-28.825 67.5125-26.805L66.0525-15.135L72.8625-23.305C75.3725-26.325 79.8525-26.725 82.8625-24.215C85.8725-21.705 86.2825-17.235 83.7725-14.215L61.4625 12.555C59.4425 14.975 56.0725 15.775 53.1725 14.525C50.2825 13.265 48.5725 10.255 48.9625 7.125L52.4225-20.585L20.3025-20.585C17.5525-20.585 15.0425-22.185 13.8725-24.675C12.7025-27.175 13.0825-30.115 14.8525-32.235L37.1625-59.005C39.6725-62.025 44.1525-62.425 47.1625-59.915ZM69.7025-45.535C69.7025-49.465 72.8825-52.635 76.8025-52.635L100.632-52.635C103.382-52.635 105.892-51.045 107.062-48.545C108.232-46.055 107.842-43.105 106.082-40.985L95.2325-28.005C92.7225-24.995 88.2425-24.585 85.2325-27.105C82.2225-29.615 81.8225-34.095 84.3325-37.105L85.4525-38.435L76.8025-38.435C72.8825-38.435 69.7025-41.615 69.7025-45.535ZM67.7525-87.755C70.6425-86.505 72.3625-83.495 71.9725-80.365L69.3425-59.165C68.8625-55.275 65.3125-52.515 61.4225-52.995C57.5325-53.485 54.7625-57.025 55.2525-60.915L55.2825-61.215C53.3125-60.875 51.2025-61.375 49.5425-62.755C46.5325-65.265 46.1225-69.735 48.6325-72.755L59.4725-85.785C61.4925-88.205 64.8625-89.005 67.7525-87.755Z"/>
   <path class="hierarchical-1:primary SFSymbolsPreview212121" d="M6.3625-90.725C9.1325-93.495 13.6225-93.495 16.4025-90.725L114.572 7.455C117.342 10.225 117.342 14.715 114.572 17.495C111.802 20.265 107.302 20.265 104.532 17.495L6.3625-80.685C3.5825-83.455 3.5825-87.955 6.3625-90.725Z"/>
  </g>
  <g id="Heavy-M" transform="matrix(1 0 0 1 2577.23 1126)">
   <path class="hierarchical-0:secondary SFSymbolsPreview4D4D4D" d="M45.7675-59.1C48.4175-56.89 48.7775-52.95 46.5675-50.3L32.7975-33.78L59.6075-33.78C61.4075-33.78 63.1075-33.01 64.2975-31.66C65.4875-30.32 66.0375-28.53 65.8175-26.75L63.9975-12.2L72.6575-22.6C74.8675-25.25 78.8075-25.61 81.4675-23.4C84.1175-21.19 84.4775-17.25 82.2675-14.6L59.9475 12.17C58.1775 14.31 55.2075 15.01 52.6575 13.91C50.1175 12.8 48.6075 10.15 48.9475 7.4L52.5275-21.28L19.4475-21.28C17.0275-21.28 14.8175-22.68 13.7875-24.88C12.7575-27.07 13.0975-29.67 14.6475-31.53L36.9575-58.3C39.1675-60.95 43.1075-61.31 45.7675-59.1ZM69.6975-45.38C69.6975-48.83 72.4975-51.63 75.9475-51.63L99.7775-51.63C102.197-51.63 104.407-50.22 105.438-48.02C106.467-45.83 106.127-43.23 104.567-41.37L93.7275-28.38C91.5175-25.73 87.5775-25.38 84.9275-27.59C82.2775-29.81 81.9175-33.75 84.1375-36.4L86.4175-39.13L75.9475-39.13C72.4975-39.13 69.6975-41.92 69.6975-45.38ZM66.5575-86.81C69.1075-85.71 70.6175-83.06 70.2775-80.3L67.6475-59.11C67.2175-55.68 64.0975-53.25 60.6675-53.68C57.2475-54.1 54.8175-57.22 55.2375-60.65L55.4275-62.19C53.3975-61.43 51.0175-61.75 49.2375-63.24C46.5775-65.45 46.2175-69.39 48.4275-72.04L59.2675-85.07C61.0475-87.21 64.0175-87.91 66.5575-86.81Z"/>
   <path class="hierarchical-1:primary SFSymbolsPreview212121" d="M6.1075-89.96C8.5475-92.4 12.5075-92.4 14.9475-89.96L113.117 8.22C115.557 10.66 115.557 14.62 113.117 17.06C110.677 19.5 106.717 19.5 104.277 17.06L6.1075-81.12C3.6675-83.56 3.6675-87.52 6.1075-89.96Z"/>
  </g>
  <g id="Bold-M" transform="matrix(1 0 0 1 2281.47 1126)">
   <path class="hierarchical-0:secondary SFSymbolsPreview4D4D4D" d="M44.21-58.185C46.46-56.315 46.76-52.965 44.89-50.725L29.82-32.635L58.67-32.635C60.19-32.635 61.63-31.985 62.64-30.845C63.64-29.705 64.11-28.185 63.92-26.685L61.7-8.915L72.44-21.805C74.32-24.055 77.66-24.355 79.91-22.485C82.16-20.615 82.46-17.265 80.59-15.025L58.27 11.755C56.77 13.565 54.25 14.155 52.09 13.225C49.93 12.285 48.65 10.035 48.94 7.705L52.66-22.035L18.5-22.035C16.45-22.035 14.58-23.225 13.7-25.095C12.83-26.955 13.11-29.155 14.43-30.735L36.74-57.505C38.62-59.755 41.96-60.055 44.21-58.185ZM69.7-45.195C69.7-48.115 72.07-50.495 75-50.495L98.83-50.495C100.889-50.495 102.759-49.305 103.63-47.435C104.5-45.575 104.21-43.375 102.9-41.795L92.05-28.805C90.18-26.565 86.83-26.265 84.59-28.135C82.34-30.015 82.04-33.355 83.92-35.605L87.5-39.895L75-39.895C72.07-39.895 69.7-42.265 69.7-45.195ZM65.23-85.755C67.39-84.815 68.68-82.575 68.39-80.235L65.75-59.045C65.39-56.135 62.75-54.075 59.84-54.435C56.94-54.795 54.87-57.445 55.24-60.345L55.66-63.775C53.73-62.175 50.89-62.125 48.89-63.785C46.64-65.655 46.34-69.005 48.21-71.255L59.05-84.285C60.56-86.085 63.08-86.685 65.23-85.755Z"/>
   <path class="hierarchical-1:primary SFSymbolsPreview212121" d="M5.83-89.095C7.9-91.165 11.26-91.165 13.33-89.095L111.5 9.075C113.569 11.145 113.569 14.505 111.5 16.575C109.429 18.645 106.069 18.645 104 16.575L5.83-81.605C3.76-83.675 3.76-87.035 5.83-89.095Z"/>
  </g>
  <g id="Semibold-M" transform="matrix(1 0 0 1 1985.4 1126)">
   <path class="hierarchical-0:secondary SFSymbolsPreview4D4D4D" d="M43.145-57.555C45.115-55.915 45.385-52.985 43.735-51.005L27.785-31.865L58.015-31.865C59.345-31.865 60.615-31.285 61.505-30.285C62.385-29.285 62.795-27.955 62.625-26.635L60.135-6.675L72.295-21.265C73.935-23.235 76.865-23.505 78.845-21.855C80.815-20.215 81.085-17.285 79.435-15.305L57.125 11.465C55.805 13.055 53.595 13.575 51.705 12.755C49.805 11.935 48.685 9.965 48.935 7.915L52.745-22.565L17.855-22.565C16.045-22.565 14.405-23.605 13.645-25.235C12.875-26.875 13.125-28.805 14.285-30.185L36.595-56.965C38.235-58.935 41.165-59.205 43.145-57.555ZM69.695-45.055C69.695-47.625 71.775-49.705 74.345-49.705L98.175-49.705C99.9845-49.705 101.625-48.665 102.384-47.025C103.154-45.395 102.904-43.465 101.744-42.075L90.905-29.095C89.255-27.125 86.325-26.855 84.355-28.505C82.385-30.155 82.115-33.085 83.765-35.055L88.235-40.405L74.345-40.405C71.775-40.405 69.695-42.495 69.695-45.055ZM64.325-85.025C66.215-84.205 67.345-82.235 67.095-80.185L64.455-58.985C64.145-56.445 61.815-54.635 59.275-54.945C56.725-55.265 54.915-57.585 55.225-60.135L55.905-65.595L55.205-64.755C53.565-62.775 50.635-62.515 48.655-64.155C46.685-65.795 46.415-68.725 48.055-70.705L58.905-83.735C60.225-85.315 62.435-85.845 64.325-85.025Z"/>
   <path class="hierarchical-1:primary SFSymbolsPreview212121" d="M5.635-88.515C7.455-90.325 10.395-90.325 12.215-88.515L110.395 9.665C112.206 11.475 112.206 14.425 110.395 16.235C108.574 18.055 105.634 18.055 103.815 16.235L5.635-81.935C3.825-83.755 3.825-86.695 5.635-88.515Z"/>
  </g>
  <g id="Medium-M" transform="matrix(1 0 0 1 1689.2 1126)">
   <path class="hierarchical-0:secondary SFSymbolsPreview4D4D4D" d="M42.3225-57.08C44.0825-55.61 44.3225-52.99 42.8525-51.23L26.2125-31.27L57.5125-31.27C58.7025-31.27 59.8325-30.75 60.6225-29.86C61.4125-28.97 61.7825-27.78 61.6325-26.6L58.9225-4.95L72.1725-20.85C73.6425-22.61 76.2625-22.85 78.0225-21.38C79.7825-19.91 80.0225-17.29 78.5525-15.53L56.2425 11.24C55.0625 12.66 53.0825 13.13 51.4025 12.39C49.7125 11.66 48.7025 9.9 48.9325 8.07L52.8125-22.97L17.3525-22.97C15.7425-22.97 14.2725-23.9 13.5925-25.36C12.9125-26.81 13.1325-28.54 14.1625-29.77L36.4725-56.55C37.9425-58.31 40.5625-58.55 42.3225-57.08ZM69.6925-44.96C69.6925-47.26 71.5525-49.11 73.8425-49.11L97.6725-49.11C99.2825-49.11 100.752-48.18 101.433-46.72C102.112-45.26 101.892-43.54 100.862-42.3L90.0125-29.32C88.5425-27.56 85.9325-27.32 84.1725-28.79C82.4125-30.26 82.1725-32.88 83.6425-34.64L88.8025-40.81L73.8425-40.81C71.5525-40.81 69.6925-42.67 69.6925-44.96ZM63.6225-84.47C65.3125-83.74 66.3225-81.98 66.0925-80.15L63.4625-58.96C63.1825-56.68 61.1025-55.07 58.8325-55.35C56.5525-55.63 54.9425-57.7 55.2225-59.98L56.1125-67.13L54.3225-64.98C52.8525-63.22 50.2425-62.98 48.4725-64.44C46.7125-65.91 46.4725-68.53 47.9425-70.29L58.7825-83.32C59.9625-84.73 61.9325-85.2 63.6225-84.47Z"/>
   <path class="hierarchical-1:primary SFSymbolsPreview212121" d="M5.4925-88.06C7.1125-89.68 9.7425-89.68 11.3625-88.06L109.532 10.11C111.153 11.73 111.153 14.36 109.532 15.98C107.912 17.6 105.282 17.6 103.662 15.98L5.4925-82.19C3.8725-83.81 3.8725-86.44 5.4925-88.06Z"/>
  </g>
  <g id="Regular-M" transform="matrix(1 0 0 1 1393.13 1126)">
   <path class="hierarchical-0:secondary SFSymbolsPreview4D4D4D" d="M41.255-56.455C42.745-55.215 42.945-53.015 41.705-51.525L24.175-30.495L56.865-30.495C57.865-30.495 58.825-30.065 59.485-29.305C60.155-28.555 60.465-27.555 60.335-26.555L57.355-2.705L72.025-20.305C73.265-21.795 75.475-21.995 76.955-20.755C78.445-19.515 78.645-17.315 77.405-15.825L55.095 10.945C54.095 12.145 52.435 12.535 51.005 11.915C49.585 11.295 48.735 9.815 48.925 8.275L52.905-23.495L16.705-23.495C15.345-23.495 14.105-24.275 13.535-25.505C12.955-26.735 13.145-28.185 14.015-29.235L36.325-56.005C37.565-57.495 39.775-57.695 41.255-56.455ZM69.695-44.845C69.695-46.775 71.265-48.345 73.195-48.345L97.025-48.345C98.385-48.345 99.625-47.555 100.195-46.325C100.775-45.095 100.584-43.645 99.7145-42.595L88.875-29.615C87.635-28.125 85.425-27.925 83.945-29.165C82.455-30.405 82.255-32.615 83.495-34.095L89.545-41.345L73.195-41.345C71.265-41.345 69.695-42.905 69.695-44.845ZM62.715-83.755C64.145-83.135 64.995-81.655 64.805-80.105L62.165-58.915C61.925-56.995 60.185-55.635 58.265-55.875C56.345-56.105 54.985-57.855 55.225-59.775L56.385-69.125L53.175-65.275C51.935-63.785 49.735-63.585 48.245-64.815C46.755-66.055 46.555-68.265 47.795-69.745L58.635-82.775C59.635-83.975 61.295-84.365 62.715-83.755Z"/>
   <path class="hierarchical-1:primary SFSymbolsPreview212121" d="M5.305-87.475C6.665-88.845 8.885-88.845 10.255-87.475L108.425 10.695C109.794 12.065 109.794 14.285 108.425 15.645C107.064 17.015 104.844 17.015 103.475 15.645L5.305-82.525C3.935-83.895 3.935-86.105 5.305-87.475Z"/>
  </g>
  <g id="Light-M" transform="matrix(1 0 0 1 1097.22 1126)">
   <path class="hierarchical-0:secondary SFSymbolsPreview4D4D4D" d="M39.945-55.685C41.085-54.725 41.245-53.025 40.285-51.875L21.665-29.535L56.065-29.535C56.835-29.535 57.575-29.195 58.085-28.615C58.605-28.035 58.845-27.265 58.745-26.495L55.425 0.065L71.845-19.635C72.795-20.785 74.495-20.935 75.645-19.985C76.785-19.025 76.945-17.325 75.985-16.175L53.675 10.595C52.905 11.515 51.625 11.825 50.525 11.345C49.425 10.865 48.775 9.725 48.925 8.535L53.005-24.135L15.905-24.135C14.855-24.135 13.905-24.735 13.455-25.685C13.015-26.635 13.155-27.755 13.825-28.555L36.145-55.335C37.095-56.485 38.795-56.635 39.945-55.685ZM69.695-44.685C69.695-46.175 70.905-47.385 72.395-47.385L96.225-47.385C97.275-47.385 98.225-46.775 98.675-45.825C99.115-44.875 98.975-43.755 98.305-42.945L87.455-29.965C86.505-28.815 84.795-28.665 83.655-29.625C82.505-30.575 82.355-32.285 83.315-33.425L90.455-41.985L72.395-41.985C70.905-41.985 69.695-43.185 69.695-44.685ZM61.605-82.855C62.705-82.385 63.355-81.235 63.205-80.045L60.575-58.845C60.395-57.375 59.045-56.315 57.565-56.505C56.085-56.685 55.035-58.035 55.215-59.515L56.715-71.575L51.755-65.625C50.805-64.475 49.105-64.315 47.955-65.275C46.815-66.225 46.655-67.925 47.605-69.075L58.455-82.105C59.215-83.025 60.505-83.335 61.605-82.855Z"/>
   <path class="hierarchical-1:primary SFSymbolsPreview212121" d="M5.065-86.755C6.125-87.805 7.835-87.805 8.885-86.755L107.064 11.425C108.114 12.475 108.114 14.185 107.064 15.235C106.004 16.295 104.294 16.295 103.244 15.235L5.065-82.935C4.015-83.985 4.015-85.695 5.065-86.755Z"/>
  </g>
  <g id="Thin-M" transform="matrix(1 0 0 1 801.56 1126)">
   <path class="hierarchical-0:secondary SFSymbolsPreview4D4D4D" d="M38.2205-54.67C38.9205-54.08 39.0155-53.04 38.4325-52.34L18.3745-28.28L55.0145-28.28C55.4875-28.28 55.9385-28.07 56.2515-27.72C56.5645-27.36 56.7105-26.89 56.6515-26.42L52.8875 3.69L71.5965-18.76C72.1805-19.46 73.2205-19.55 73.9205-18.97C74.6205-18.38 74.7155-17.34 74.1325-16.64L51.8195 10.13C51.3505 10.69 50.5665 10.88 49.8955 10.59C49.2235 10.3 48.8235 9.6 48.9145 8.87L53.1455-24.98L14.8525-24.98C14.2115-24.98 13.6295-25.35 13.3575-25.93C13.0865-26.51 13.1745-27.19 13.5845-27.68L35.8965-54.46C36.4805-55.16 37.5205-55.25 38.2205-54.67ZM69.6975-44.47C69.6975-45.39 70.4355-46.12 71.3475-46.12L95.1765-46.12C95.8175-46.12 96.4005-45.75 96.6715-45.17C96.9425-44.59 96.8535-43.91 96.4435-43.42L85.5995-30.43C85.0155-29.73 83.9745-29.64 83.2755-30.22C82.5755-30.81 82.4825-31.85 83.0665-32.55L91.6495-42.82L71.3475-42.82C70.4355-42.82 69.6975-43.56 69.6975-44.47ZM60.1335-81.69C60.8055-81.4 61.2045-80.7 61.1145-79.97L58.4815-58.77C58.3695-57.87 57.5455-57.23 56.6405-57.34C55.7365-57.45 55.0945-58.28 55.2065-59.18L57.1465-74.79L49.9015-66.09C49.3185-65.39 48.2785-65.29 47.5775-65.88C46.8775-66.46 46.7825-67.5 47.3655-68.2L58.2085-81.23C58.6775-81.79 59.4615-81.98 60.1335-81.69Z"/>
   <path class="hierarchical-1:primary SFSymbolsPreview212121" d="M4.7605-85.81C5.4045-86.45 6.4495-86.45 7.0935-85.81L105.268 12.37C105.913 13.01 105.913 14.06 105.268 14.7C104.624 15.35 103.579 15.35 102.935 14.7L4.7605-83.47C4.1165-84.12 4.1165-85.16 4.7605-85.81Z"/>
  </g>
  <g id="Ultralight-M" transform="matrix(1 0 0 1 505.399 1126)">
   <path class="hierarchical-0:secondary SFSymbolsPreview4D4D4D" d="M37.319-54.135C37.786-53.755 37.849-53.055 37.46-52.595L16.651-27.615L54.465-27.615C54.78-27.615 55.081-27.485 55.289-27.245C55.498-27.015 55.595-26.695 55.556-26.385L51.559 5.595L71.47-18.295C71.859-18.765 72.552-18.825 73.019-18.435C73.486-18.055 73.549-17.355 73.16-16.895L50.847 9.885C50.535 10.255 50.012 10.385 49.564 10.185C49.116 9.995 48.85 9.525 48.911 9.045L53.219-25.415L14.302-25.415C13.875-25.415 13.487-25.665 13.306-26.055C13.125-26.435 13.184-26.895 13.457-27.225L35.77-53.995C36.159-54.465 36.852-54.525 37.319-54.135ZM69.698-44.365C69.698-44.975 70.19-45.465 70.798-45.465L94.628-45.465C95.055-45.465 95.443-45.225 95.624-44.835C95.805-44.445 95.746-43.995 95.472-43.665L84.628-30.675C84.239-30.215 83.545-30.145 83.079-30.535C82.612-30.925 82.55-31.625 82.939-32.085L92.276-43.265L70.798-43.265C70.19-43.265 69.698-43.765 69.698-44.365ZM59.365-81.085C59.813-80.885 60.079-80.425 60.019-79.935L57.386-58.735C57.311-58.135 56.762-57.705 56.159-57.785C55.556-57.855 55.128-58.405 55.203-59.015L57.373-76.485L48.929-66.335C48.54-65.875 47.847-65.805 47.38-66.195C46.913-66.585 46.849-67.275 47.238-67.745L58.082-80.775C58.394-81.155 58.917-81.275 59.365-81.085Z"/>
   <path class="hierarchical-1:primary SFSymbolsPreview212121" d="M4.6-85.315C5.029-85.745 5.726-85.745 6.155-85.315L104.329 12.865C104.759 13.295 104.759 13.995 104.329 14.415C103.9 14.845 103.203 14.845 102.774 14.415L4.6-83.755C4.17-84.185 4.17-84.885 4.6-85.315Z"/>
  </g>
  <g id="Black-S" transform="matrix(1 0 0 1 2883.68 696)">
   <path class="hierarchical-0:secondary SFSymbolsPreview4D4D4D" d="M40.425-56.1745C43.435-53.6635 43.845-49.1864 41.325-46.1745L33.535-36.8195L49.875-36.8195C51.915-36.8195 53.855-35.9455 55.195-34.4185C56.545-32.8915 57.175-30.8605 56.925-28.8395L56.425-24.8694L58.425-27.2655C60.935-30.2774 65.405-30.6845 68.425-28.1745C71.435-25.6635 71.845-21.1864 69.325-18.1745L51.825 2.82552C49.815 5.24653 46.435 6.04753 43.545 4.79253C40.655 3.53752 38.935 0.526525 39.335-2.60047L41.835-22.6194L18.375-22.6194C15.625-22.6194 13.115-24.2135 11.945-26.7085C10.775-29.2035 11.155-32.1484 12.925-34.2655L30.425-55.2655C32.935-58.2774 37.405-58.6845 40.425-56.1745ZM55.585-43.7204C55.585-47.6415 58.765-50.8205 62.685-50.8205L81.375-50.8205C84.135-50.8205 86.635-49.2244 87.805-46.7285C88.975-44.2315 88.595-41.2845 86.825-39.1695L78.325-28.9844C75.805-25.9744 71.325-25.5714 68.315-28.0854C65.765-30.2154 65.095-33.7575 66.475-36.6205L62.685-36.6205C58.765-36.6205 55.585-39.7985 55.585-43.7204ZM56.195-78.2344C59.085-76.9815 60.805-73.9725 60.425-70.8445L58.355-54.2195C57.875-50.3285 54.325-47.5655 50.435-48.0485C47.065-48.4675 44.545-51.1814 44.245-54.4275C42.855-54.5495 41.485-55.0825 40.325-56.0424C37.315-58.5505 36.905-63.0274 39.415-66.0415L47.915-76.2615C49.935-78.6835 53.305-79.4875 56.195-78.2344Z"/>
   <path class="hierarchical-1:primary SFSymbolsPreview212121" d="M6.355-80.2405C9.125-83.0134 13.625-83.0134 16.395-80.2405L93.395-3.24047C96.165-0.467475 96.165 4.02752 93.395 6.80052C90.625 9.57358 86.125 9.57358 83.355 6.80052L6.355-70.1995C3.585-72.9725 3.585-77.4675 6.355-80.2405Z"/>
  </g>
  <g id="Heavy-S" transform="matrix(1 0 0 1 2587.81 696)">
   <path class="hierarchical-0:secondary SFSymbolsPreview4D4D4D" d="M39.0275-55.3534C41.6775-53.1434 42.0375-49.2024 39.8275-46.5514L30.8675-35.8024L49.0275-35.8024C50.8175-35.8024 52.5275-35.0324 53.7175-33.6884C54.8975-32.3444 55.4475-30.5564 55.2275-28.7774L54.3775-21.9304L58.2275-26.5534C60.4375-29.2054 64.3775-29.5634 67.0275-27.3534C69.6775-25.1434 70.0375-21.2024 67.8275-18.5514L50.3275 2.4485C48.5575 4.5805 45.5875 5.2855 43.0375 4.1805C40.4975 3.0755 38.9775 0.4255 39.3275-2.3275L41.9475-23.3024L17.5275-23.3024C15.1075-23.3024 12.8975-24.7054 11.8675-26.9014C10.8375-29.0974 11.1775-31.6904 12.7275-33.5534L30.2275-54.5534C32.4375-57.2054 36.3775-57.5634 39.0275-55.3534ZM55.5875-43.5524C55.5875-47.0044 58.3875-49.8024 61.8375-49.8024L80.5275-49.8024C82.9575-49.8024 85.1575-48.3984 86.1875-46.2004C87.2175-44.0024 86.8775-41.4084 85.3275-39.5464L76.8175-29.3614C74.6075-26.7124 70.6675-26.3574 68.0175-28.5704C65.3875-30.7624 65.0175-34.6544 67.1675-37.3024L61.8375-37.3024C58.3875-37.3024 55.5875-40.1004 55.5875-43.5524ZM55.0175-77.2874C57.5575-76.1845 59.0675-73.5355 58.7275-70.7814L56.6675-54.1564C56.2375-50.7314 53.1175-48.2994 49.6975-48.7244C46.4775-49.1244 44.1275-51.9074 44.2175-55.0854C42.7375-55.0394 41.2475-55.5115 40.0275-56.5284C37.3675-58.7364 37.0075-62.6764 39.2175-65.3304L47.7275-75.5504C49.4975-77.6824 52.4675-78.3904 55.0175-77.2874Z"/>
   <path class="hierarchical-1:primary SFSymbolsPreview212121" d="M6.1075-79.4715C8.5475-81.9124 12.5075-81.9124 14.9475-79.4715L91.9475-2.4715C94.3875-0.0315 94.3875 3.9265 91.9475 6.3665C89.5075 8.8075 85.5475 8.8075 83.1075 6.3665L6.1075-70.6334C3.6675-73.0734 3.6675-77.0314 6.1075-79.4715Z"/>
  </g>
  <g id="Bold-S" transform="matrix(1 0 0 1 2292.06 696)">
   <path class="hierarchical-0:secondary SFSymbolsPreview4D4D4D" d="M37.47-54.232C39.72-52.358 40.02-49.016 38.15-46.768L27.89-34.461L48.07-34.461C49.6-34.461 51.04-33.808 52.05-32.668C53.05-31.529 53.52-30.012 53.33-28.503L52.08-18.441L58-25.554C59.88-27.802 63.22-28.106 65.47-26.232C67.72-24.358 68.02-21.016 66.15-18.768L48.65 2.232C47.14 4.04 44.62 4.638 42.46 3.701C40.31 2.764 39.02 0.517 39.32-1.818L42.07-23.861L16.57-23.861C14.52-23.861 12.65-25.05 11.78-26.913C10.9-28.775 11.19-30.974 12.5-32.554L30-53.554C31.88-55.802 35.22-56.106 37.47-54.232ZM55.58-43.161C55.58-46.088 57.96-48.461 60.88-48.461L79.57-48.461C81.63-48.461 83.5-47.27 84.38-45.406C85.25-43.543 84.96-41.343 83.64-39.764L75.14-29.579C73.26-27.332 69.92-27.031 67.67-28.908C65.43-30.784 65.13-34.126 67-36.373L68.24-37.861L60.88-37.861C57.96-37.861 55.58-40.234 55.58-43.161ZM53.68-76.024C55.84-75.088 57.12-72.842 56.83-70.507L54.77-53.882C54.41-50.977 51.76-48.915 48.86-49.276C45.95-49.637 43.89-52.284 44.25-55.189L44.33-55.791C42.75-55.408 41.02-55.75 39.68-56.867C37.43-58.739 37.12-62.081 39-64.331L47.5-74.551C49.01-76.359 51.52-76.959 53.68-76.024Z"/>
   <path class="hierarchical-1:primary SFSymbolsPreview212121" d="M5.83-78.408C7.9-80.478 11.25-80.478 13.32-78.408L90.32-1.408C92.39 0.661 92.39 4.017 90.32 6.087C88.25 8.157 84.9 8.157 82.83 6.087L5.83-70.913C3.76-72.983 3.76-76.339 5.83-78.408Z"/>
  </g>
  <g id="Semibold-S" transform="matrix(1 0 0 1 1995.99 696)">
   <path class="hierarchical-0:secondary SFSymbolsPreview4D4D4D" d="M36.405-53.604C38.375-51.959 38.645-49.027 36.995-47.054L25.855-33.681L47.425-33.681C48.755-33.681 50.025-33.109 50.915-32.109C51.795-31.109 52.205-29.778 52.035-28.455L50.505-16.192L57.855-25.008C59.495-26.981 62.425-27.248 64.405-25.604C66.375-23.959 66.645-21.027 64.995-19.054L47.495 1.946C46.175 3.531 43.965 4.056 42.075 3.234C40.185 2.412 39.055 0.44 39.315-1.608L42.155-24.381L15.925-24.381C14.125-24.381 12.475-25.425 11.715-27.059C10.945-28.693 11.195-30.622 12.355-32.008L29.855-53.008C31.495-54.981 34.425-55.248 36.405-53.604ZM55.585-43.031C55.585-45.6 57.665-47.681 60.235-47.681L78.925-47.681C80.735-47.681 82.375-46.637 83.135-45.002C83.905-43.367 83.655-41.437 82.495-40.051L73.985-29.866C72.345-27.895 69.415-27.631 67.435-29.277C65.465-30.923 65.205-33.856 66.855-35.827L68.985-38.381L60.235-38.381C57.665-38.381 55.585-40.463 55.585-43.031ZM52.775-75.298C54.665-74.477 55.795-72.506 55.535-70.458L53.475-53.833C53.155-51.284 50.835-49.475 48.285-49.792C45.735-50.108 43.925-52.431 44.245-54.979L44.445-56.626C42.855-55.855 40.895-56.032 39.445-57.237C37.475-58.88 37.205-61.812 38.845-63.786L47.355-74.006C48.675-75.592 50.875-76.119 52.775-75.298Z"/>
   <path class="hierarchical-1:primary SFSymbolsPreview212121" d="M5.635-77.819C7.455-79.635 10.395-79.635 12.215-77.819L89.215-0.819C91.025 0.996 91.025 3.941 89.215 5.757C87.395 7.573 84.455 7.573 82.635 5.757L5.635-71.243C3.825-73.059 3.825-76.004 5.635-77.819Z"/>
  </g>
  <g id="Medium-S" transform="matrix(1 0 0 1 1699.78 696)">
   <path class="hierarchical-0:secondary SFSymbolsPreview4D4D4D" d="M35.59-53.1215C37.35-51.6545 37.59-49.0374 36.12-47.2775L24.29-33.0835L46.93-33.0835C48.12-33.0835 49.25-32.5724 50.04-31.6805C50.83-30.7874 51.2-29.6004 51.05-28.4195L49.3-14.4645L57.74-24.5904C59.21-26.3515 61.83-26.5895 63.59-25.1215C65.35-23.6545 65.59-21.0374 64.12-19.2775L46.62 1.72253C45.44 3.13853 43.47 3.60653 41.78 2.87252C40.09 2.13953 39.08 0.379525 39.31-1.44847L42.23-24.7834L15.43-24.7834C13.82-24.7834 12.35-25.7154 11.67-27.1735C10.99-28.6315 11.21-30.3535 12.24-31.5904L29.74-52.5904C31.21-54.3515 33.83-54.5895 35.59-53.1215ZM55.59-42.9335C55.59-45.2254 57.45-47.0835 59.74-47.0835L78.43-47.0835C80.04-47.0835 81.51-46.1515 82.19-44.6924C82.87-43.2325 82.65-41.5105 81.62-40.2734L73.11-30.0885C71.64-28.3295 69.02-28.0945 67.27-29.5635C65.51-31.0325 65.27-33.6495 66.74-35.4084L69.56-38.7834L59.74-38.7834C57.45-38.7834 55.59-40.6415 55.59-42.9335ZM52.08-74.7415C53.77-74.0094 54.78-72.2505 54.55-70.4224L52.48-53.7974C52.2-51.5225 50.13-49.9075 47.85-50.1905C45.58-50.4725 43.96-52.5455 44.25-54.8205L44.58-57.5255C43.07-56.2655 40.83-56.2214 39.27-57.5234C37.51-58.9894 37.27-61.6065 38.73-63.3685L47.24-73.5885C48.42-75.0044 50.39-75.4745 52.08-74.7415Z"/>
   <path class="hierarchical-1:primary SFSymbolsPreview212121" d="M5.5-77.3685C7.12-78.9894 9.74-78.9894 11.36-77.3685L88.36-0.368475C89.99 1.25252 89.99 3.87953 88.36 5.50053C86.74 7.12153 84.12 7.12153 82.5 5.50053L5.5-71.4994C3.87-73.1204 3.87-75.7475 5.5-77.3685Z"/>
  </g>
  <g id="Regular-S" transform="matrix(1 0 0 1 1403.72 696)">
   <path class="hierarchical-0:secondary SFSymbolsPreview4D4D4D" d="M34.515-52.4975C36.005-51.2595 36.205-49.0525 34.965-47.5675L22.245-32.3084L46.275-32.3084C47.275-32.3084 48.235-31.8775 48.895-31.1245C49.565-30.3725 49.875-29.3705 49.745-28.3745L47.725-12.2205L57.585-24.0495C58.825-25.5344 61.035-25.7345 62.515-24.4975C64.005-23.2595 64.205-21.0525 62.965-19.5675L45.465 1.4325C44.465 2.6255 42.805 3.0205 41.385 2.4025C39.955 1.7835 39.105 0.2995 39.305-1.2425L42.315-25.3084L14.775-25.3084C13.415-25.3084 12.185-26.0945 11.605-27.3235C11.025-28.5534 11.215-30.0054 12.085-31.0495L29.585-52.0495C30.825-53.5345 33.035-53.7345 34.515-52.4975ZM55.585-42.8084C55.585-44.7415 57.155-46.3084 59.085-46.3084L77.775-46.3084C79.135-46.3084 80.365-45.5225 80.945-44.2915C81.525-43.0605 81.335-41.6085 80.465-40.5655L71.955-30.3804C70.715-28.8965 68.515-28.6985 67.025-29.9365C65.545-31.1755 65.345-33.3835 66.585-34.8665L70.295-39.3084L59.085-39.3084C57.155-39.3084 55.585-40.8755 55.585-42.8084ZM51.165-74.0195C52.595-73.4025 53.445-71.9185 53.245-70.3765L51.185-53.7515C50.945-51.8335 49.195-50.4715 47.275-50.7095C45.365-50.9485 43.995-52.6965 44.235-54.6145L44.835-59.3955L43.965-58.3495C42.725-56.8635 40.515-56.6615 39.035-57.8985C37.545-59.1345 37.345-61.3415 38.575-62.8274L47.085-73.0475C48.075-74.2414 49.745-74.6375 51.165-74.0195Z"/>
   <path class="hierarchical-1:primary SFSymbolsPreview212121" d="M5.305-76.7835C6.665-78.1505 8.885-78.1505 10.245-76.7835L87.245 0.2165C88.615 1.5835 88.615 3.7995 87.245 5.1665C85.885 6.5335 83.665 6.5335 82.305 5.1665L5.305-71.8335C3.935-73.2005 3.935-75.4165 5.305-76.7835Z"/>
  </g>
  <g id="Light-S" transform="matrix(1 0 0 1 1107.81 696)">
   <path class="hierarchical-0:secondary SFSymbolsPreview4D4D4D" d="M33.205-51.7254C34.345-50.7714 34.505-49.0685 33.545-47.9235L19.735-31.3514L45.475-31.3514C46.245-31.3514 46.985-31.0195 47.495-30.4384C48.015-29.8575 48.255-29.0854 48.155-28.3164L45.795-9.4545L57.405-23.3804C58.355-24.5255 60.055-24.6804 61.205-23.7254C62.345-22.7714 62.505-21.0685 61.545-19.9235L44.045 1.0765C43.285 1.9975 41.995 2.3025 40.895 1.8255C39.805 1.3475 39.145 0.2025 39.295-0.9865L42.415-25.9514L13.975-25.9514C12.925-25.9514 11.975-26.5574 11.525-27.5065C11.085-28.4554 11.225-29.5754 11.905-30.3804L29.405-51.3804C30.355-52.5255 32.055-52.6804 33.205-51.7254ZM55.585-42.6514C55.585-44.1424 56.795-45.3514 58.285-45.3514L76.975-45.3514C78.025-45.3514 78.975-44.7455 79.425-43.7954C79.865-42.8465 79.715-41.7254 79.045-40.9214L70.545-30.7364C69.585-29.5915 67.885-29.4384 66.735-30.3945C65.595-31.3504 65.445-33.0524 66.395-34.1975L71.205-39.9514L58.285-39.9514C56.795-39.9514 55.585-41.1604 55.585-42.6514ZM50.045-73.1295C51.145-72.6524 51.805-71.5084 51.655-70.3185L49.585-53.6935C49.405-52.2134 48.055-51.1635 46.575-51.3475C45.095-51.5305 44.045-52.8794 44.235-54.3594L45.165-61.8475L42.545-58.7044C41.595-57.5584 39.885-57.4024 38.745-58.3564C37.595-59.3104 37.445-61.0124 38.395-62.1585L46.895-72.3784C47.665-73.2995 48.945-73.6054 50.045-73.1295Z"/>
   <path class="hierarchical-1:primary SFSymbolsPreview212121" d="M5.065-76.0604C6.125-77.1154 7.825-77.1154 8.885-76.0604L85.885 0.9395C86.935 1.9935 86.935 3.7035 85.885 4.7575C84.825 5.8115 83.125 5.8115 82.065 4.7575L5.065-72.2424C4.015-73.2964 4.015-75.0065 5.065-76.0604Z"/>
  </g>
  <g id="Thin-S" transform="matrix(1 0 0 1 812.147 696)">
   <path class="hierarchical-0:secondary SFSymbolsPreview4D4D4D" d="M31.4835-50.7134C32.1835-50.1304 32.2785-49.0896 31.6955-48.3895L16.4505-30.0956L44.4275-30.0956C44.9005-30.0956 45.3515-29.8926 45.6645-29.5376C45.9775-29.1834 46.1235-28.7106 46.0645-28.2414L43.2625-5.8255L57.1605-22.5024C57.7435-23.2024 58.7835-23.2966 59.4835-22.7134C60.1835-22.1304 60.2785-21.0896 59.6955-20.3895L42.1955 0.6105C41.7265 1.1735 40.9425 1.3595 40.2705 1.0675C39.5985 0.7755 39.1995 0.0765 39.2905-0.6505L42.5585-26.7954L12.9275-26.7954C12.2875-26.7954 11.7045-27.1666 11.4335-27.7464C11.1615-28.3256 11.2505-29.0104 11.6605-29.5024L29.1605-50.5024C29.7435-51.2024 30.7835-51.2966 31.4835-50.7134ZM55.5875-42.4456C55.5875-43.3574 56.3265-44.0956 57.2375-44.0956L75.9275-44.0956C76.5685-44.0956 77.1505-43.7255 77.4225-43.1454C77.6935-42.5644 77.6045-41.8804 77.1945-41.3886L68.6895-31.2034C68.1055-30.5036 67.0645-30.4104 66.3655-30.9946C65.6655-31.5784 65.5725-32.6196 66.1565-33.3184L72.4005-40.7954L57.2375-40.7954C56.3265-40.7954 55.5875-41.5344 55.5875-42.4456ZM48.5835-71.9594C49.2555-71.6685 49.6545-70.9696 49.5645-70.2424L47.4995-53.6174C47.3875-52.7134 46.5635-52.0716 45.6585-52.1834C44.7545-52.2954 44.1125-53.1196 44.2245-54.0245L45.5965-65.0656L40.6905-59.1704C40.1075-58.4696 39.0675-58.3745 38.3665-58.9574C37.6665-59.5404 37.5715-60.5806 38.1535-61.2814L46.6585-71.5014C47.1275-72.0644 47.9115-72.2514 48.5835-71.9594Z"/>
   <path class="hierarchical-1:primary SFSymbolsPreview212121" d="M4.7605-75.1124C5.4055-75.7574 6.4495-75.7574 7.0945-75.1124L84.0945 1.8875C84.7385 2.5315 84.7385 3.5765 84.0945 4.2205C83.4495 4.8655 82.4055 4.8655 81.7605 4.2205L4.7605-72.7794C4.1165-73.4235 4.1165-74.4684 4.7605-75.1124Z"/>
  </g>
  <g id="Ultralight-S" transform="matrix(1 0 0 1 515.986 696)">
   <path class="hierarchical-0:secondary SFSymbolsPreview4D4D4D" d="M30.5812-50.187C31.0482-49.798 31.1112-49.104 30.7222-48.637L14.7252-29.442L43.8772-29.442C44.1922-29.442 44.4932-29.306 44.7022-29.07C44.9102-28.833 45.0082-28.518 44.9682-28.205L41.9342-3.928L57.0322-22.046C57.4212-22.512 58.1142-22.575 58.5812-22.187C59.0482-21.798 59.1112-21.104 58.7222-20.637L41.2222 0.363C40.9092 0.738 40.3872 0.862 39.9392 0.667C39.4912 0.473 39.2252 0.007 39.2852-0.478L42.6312-27.242L12.3772-27.242C11.9502-27.242 11.5622-27.488 11.3812-27.875C11.2002-28.261 11.2592-28.718 11.5322-29.046L29.0322-50.046C29.4212-50.512 30.1142-50.575 30.5812-50.187ZM55.5872-42.342C55.5872-42.949 56.0792-43.442 56.6872-43.442L75.3772-43.442C75.8042-43.442 76.1922-43.194 76.3732-42.808C76.5542-42.421 76.4952-41.964 76.2212-41.637L67.7162-31.452C67.3272-30.985 66.6332-30.923 66.1672-31.312C65.7012-31.702 65.6382-32.395 66.0282-32.862L73.0252-41.242L56.6872-41.242C56.0792-41.242 55.5872-41.734 55.5872-42.342ZM47.8142-71.351C48.2622-71.157 48.5292-70.69 48.4692-70.206L46.4042-53.581C46.3292-52.978 45.7792-52.55 45.1762-52.625C44.5742-52.7 44.1462-53.249 44.2202-53.852L45.8232-66.755L39.7182-59.418C39.3292-58.951 38.6352-58.887 38.1682-59.276C37.7012-59.665 37.6382-60.358 38.0272-60.825L46.5322-71.045C46.8442-71.42 47.3662-71.545 47.8142-71.351Z"/>
   <path class="hierarchical-1:primary SFSymbolsPreview212121" d="M4.59925-74.619C5.02925-75.049 5.72525-75.049 6.15525-74.619L83.1552 2.381C83.5842 2.81 83.5842 3.507 83.1552 3.936C82.7252 4.366 82.0292 4.366 81.5992 3.936L4.59925-73.064C4.17025-73.493 4.17025-74.19 4.59925-74.619Z"/>
  </g>
 </g>
</svg>
