<?xml version="1.0" encoding="UTF-8"?>
<!--Generator: Apple Native CoreSVG 175-->
<!DOCTYPE svg
PUBLIC "-//W3C//DTD SVG 1.1//EN"
       "http://www.w3.org/Graphics/SVG/1.1/DTD/svg11.dtd">
<svg version="1.1" xmlns="http://www.w3.org/2000/svg" xmlns:xlink="http://www.w3.org/1999/xlink" width="3300" height="2200">
 <!--glyph: "", point size: 100.0, font version: "17.0d12e1", template writer version: "65.1"-->
 <style>.hierarchical-0:secondary {fill:#4D4D4D}
.hierarchical-1:primary {fill:#212121}

.SFSymbolsPreview212121 {fill:#212121;opacity:1.0}
.SFSymbolsPreview4D4D4D {fill:#4D4D4D;opacity:1.0}
</style>
 <g id="Notes">
  <rect height="2200" id="artboard" style="fill:white;opacity:1" width="3300" x="0" y="0"/>
  <line style="fill:none;stroke:black;opacity:1;stroke-width:0.5;" x1="263" x2="3036" y1="292" y2="292"/>
  <text style="stroke:none;fill:black;font-family:sans-serif;font-size:13;font-weight:bold;" transform="matrix(1 0 0 1 263 322)">Weight/Scale Variations</text>
  <text style="stroke:none;fill:black;font-family:sans-serif;font-size:13;text-anchor:middle;" transform="matrix(1 0 0 1 559.711 322)">Ultralight</text>
  <text style="stroke:none;fill:black;font-family:sans-serif;font-size:13;text-anchor:middle;" transform="matrix(1 0 0 1 856.422 322)">Thin</text>
  <text style="stroke:none;fill:black;font-family:sans-serif;font-size:13;text-anchor:middle;" transform="matrix(1 0 0 1 1153.13 322)">Light</text>
  <text style="stroke:none;fill:black;font-family:sans-serif;font-size:13;text-anchor:middle;" transform="matrix(1 0 0 1 1449.84 322)">Regular</text>
  <text style="stroke:none;fill:black;font-family:sans-serif;font-size:13;text-anchor:middle;" transform="matrix(1 0 0 1 1746.56 322)">Medium</text>
  <text style="stroke:none;fill:black;font-family:sans-serif;font-size:13;text-anchor:middle;" transform="matrix(1 0 0 1 2043.27 322)">Semibold</text>
  <text style="stroke:none;fill:black;font-family:sans-serif;font-size:13;text-anchor:middle;" transform="matrix(1 0 0 1 2339.98 322)">Bold</text>
  <text style="stroke:none;fill:black;font-family:sans-serif;font-size:13;text-anchor:middle;" transform="matrix(1 0 0 1 2636.69 322)">Heavy</text>
  <text style="stroke:none;fill:black;font-family:sans-serif;font-size:13;text-anchor:middle;" transform="matrix(1 0 0 1 2933.4 322)">Black</text>
  <line style="fill:none;stroke:black;opacity:1;stroke-width:0.5;" x1="263" x2="3036" y1="1903" y2="1903"/>
  <g transform="matrix(1 0 0 1 263 1933)">
   <path d="M9.24805 0.830078Q10.8691 0.830078 12.2949 0.214844Q13.7207-0.400391 14.8096-1.49414Q15.8984-2.58789 16.5186-4.01367Q17.1387-5.43945 17.1387-7.05078Q17.1387-8.66211 16.5186-10.0879Q15.8984-11.5137 14.8047-12.6074Q13.7109-13.7012 12.2852-14.3164Q10.8594-14.9316 9.23828-14.9316Q7.62695-14.9316 6.20117-14.3164Q4.77539-13.7012 3.69141-12.6074Q2.60742-11.5137 1.9873-10.0879Q1.36719-8.66211 1.36719-7.05078Q1.36719-5.43945 1.9873-4.01367Q2.60742-2.58789 3.69629-1.49414Q4.78516-0.400391 6.21094 0.214844Q7.63672 0.830078 9.24805 0.830078ZM9.24805-0.654297Q7.91992-0.654297 6.7627-1.14746Q5.60547-1.64062 4.73145-2.51953Q3.85742-3.39844 3.36426-4.56055Q2.87109-5.72266 2.87109-7.05078Q2.87109-8.37891 3.35938-9.54102Q3.84766-10.7031 4.72168-11.582Q5.5957-12.4609 6.75293-12.9541Q7.91016-13.4473 9.23828-13.4473Q10.5762-13.4473 11.7334-12.9541Q12.8906-12.4609 13.7695-11.582Q14.6484-10.7031 15.1465-9.54102Q15.6445-8.37891 15.6445-7.05078Q15.6445-5.72266 15.1514-4.56055Q14.6582-3.39844 13.7842-2.51953Q12.9102-1.64062 11.748-1.14746Q10.5859-0.654297 9.24805-0.654297ZM5.6543-7.05078Q5.6543-6.72852 5.85938-6.52832Q6.06445-6.32812 6.40625-6.32812L8.51562-6.32812L8.51562-4.20898Q8.51562-3.88672 8.71094-3.67676Q8.90625-3.4668 9.23828-3.4668Q9.56055-3.4668 9.77051-3.67676Q9.98047-3.88672 9.98047-4.20898L9.98047-6.32812L12.0898-6.32812Q12.4219-6.32812 12.627-6.52832Q12.832-6.72852 12.832-7.05078Q12.832-7.38281 12.627-7.58789Q12.4219-7.79297 12.0898-7.79297L9.98047-7.79297L9.98047-9.90234Q9.98047-10.2344 9.77051-10.4443Q9.56055-10.6543 9.23828-10.6543Q8.90625-10.6543 8.71094-10.4443Q8.51562-10.2344 8.51562-9.90234L8.51562-7.79297L6.40625-7.79297Q6.06445-7.79297 5.85938-7.58789Q5.6543-7.38281 5.6543-7.05078Z"/>
  </g>
  <g transform="matrix(1 0 0 1 281.867 1933)">
   <path d="M11.709 2.91016Q13.75 2.91016 15.5518 2.12891Q17.3535 1.34766 18.7305-0.0292969Q20.1074-1.40625 20.8887-3.20801Q21.6699-5.00977 21.6699-7.05078Q21.6699-9.0918 20.8887-10.8936Q20.1074-12.6953 18.7305-14.0723Q17.3535-15.4492 15.5469-16.2305Q13.7402-17.0117 11.6992-17.0117Q9.6582-17.0117 7.85645-16.2305Q6.05469-15.4492 4.68262-14.0723Q3.31055-12.6953 2.5293-10.8936Q1.74805-9.0918 1.74805-7.05078Q1.74805-5.00977 2.5293-3.20801Q3.31055-1.40625 4.6875-0.0292969Q6.06445 1.34766 7.86621 2.12891Q9.66797 2.91016 11.709 2.91016ZM11.709 1.25Q9.98047 1.25 8.47656 0.605469Q6.97266-0.0390625 5.83496-1.17676Q4.69727-2.31445 4.05762-3.81836Q3.41797-5.32227 3.41797-7.05078Q3.41797-8.7793 4.05762-10.2832Q4.69727-11.7871 5.83008-12.9297Q6.96289-14.0723 8.4668-14.7119Q9.9707-15.3516 11.6992-15.3516Q13.4277-15.3516 14.9316-14.7119Q16.4355-14.0723 17.5781-12.9297Q18.7207-11.7871 19.3652-10.2832Q20.0098-8.7793 20.0098-7.05078Q20.0098-5.32227 19.3701-3.81836Q18.7305-2.31445 17.5928-1.17676Q16.4551-0.0390625 14.9463 0.605469Q13.4375 1.25 11.709 1.25ZM7.17773-7.05078Q7.17773-6.69922 7.41211-6.47461Q7.64648-6.25 8.01758-6.25L10.8887-6.25L10.8887-3.36914Q10.8887-2.99805 11.1133-2.76855Q11.3379-2.53906 11.6895-2.53906Q12.0605-2.53906 12.29-2.76855Q12.5195-2.99805 12.5195-3.36914L12.5195-6.25L15.4004-6.25Q15.7715-6.25 16.001-6.47461Q16.2305-6.69922 16.2305-7.05078Q16.2305-7.42188 16.001-7.65137Q15.7715-7.88086 15.4004-7.88086L12.5195-7.88086L12.5195-10.752Q12.5195-11.1328 12.29-11.3623Q12.0605-11.5918 11.6895-11.5918Q11.3379-11.5918 11.1133-11.3574Q10.8887-11.123 10.8887-10.752L10.8887-7.88086L8.01758-7.88086Q7.63672-7.88086 7.40723-7.65137Q7.17773-7.42188 7.17773-7.05078Z"/>
  </g>
  <g transform="matrix(1 0 0 1 305.646 1933)">
   <path d="M14.9707 5.66406Q17.0605 5.66406 18.96 5.01465Q20.8594 4.36523 22.4512 3.19336Q24.043 2.02148 25.2197 0.429688Q26.3965-1.16211 27.0459-3.06641Q27.6953-4.9707 27.6953-7.05078Q27.6953-9.14062 27.0459-11.04Q26.3965-12.9395 25.2197-14.5312Q24.043-16.123 22.4512-17.2998Q20.8594-18.4766 18.9551-19.126Q17.0508-19.7754 14.9609-19.7754Q12.8711-19.7754 10.9717-19.126Q9.07227-18.4766 7.48535-17.2998Q5.89844-16.123 4.72168-14.5312Q3.54492-12.9395 2.90039-11.04Q2.25586-9.14062 2.25586-7.05078Q2.25586-4.9707 2.90527-3.06641Q3.55469-1.16211 4.72656 0.429688Q5.89844 2.02148 7.49023 3.19336Q9.08203 4.36523 10.9814 5.01465Q12.8809 5.66406 14.9707 5.66406ZM14.9707 3.84766Q13.1641 3.84766 11.5283 3.2959Q9.89258 2.74414 8.53516 1.74805Q7.17773 0.751953 6.17676-0.610352Q5.17578-1.97266 4.62891-3.6084Q4.08203-5.24414 4.08203-7.05078Q4.08203-8.86719 4.62891-10.5029Q5.17578-12.1387 6.17188-13.501Q7.16797-14.8633 8.52539-15.8594Q9.88281-16.8555 11.5186-17.4023Q13.1543-17.9492 14.9609-17.9492Q16.7773-17.9492 18.4131-17.4023Q20.0488-16.8555 21.4111-15.8594Q22.7734-14.8633 23.7695-13.501Q24.7656-12.1387 25.3174-10.5029Q25.8691-8.86719 25.8691-7.05078Q25.8789-5.24414 25.332-3.6084Q24.7852-1.97266 23.7842-0.610352Q22.7832 0.751953 21.4209 1.74805Q20.0586 2.74414 18.4229 3.2959Q16.7871 3.84766 14.9707 3.84766ZM9.19922-7.05078Q9.19922-6.66992 9.45801-6.4209Q9.7168-6.17188 10.1172-6.17188L14.0625-6.17188L14.0625-2.2168Q14.0625-1.81641 14.3115-1.55762Q14.5605-1.29883 14.9512-1.29883Q15.3516-1.29883 15.6104-1.55273Q15.8691-1.80664 15.8691-2.2168L15.8691-6.17188L19.8242-6.17188Q20.2246-6.17188 20.4785-6.4209Q20.7324-6.66992 20.7324-7.05078Q20.7324-7.46094 20.4785-7.71484Q20.2246-7.96875 19.8242-7.96875L15.8691-7.96875L15.8691-11.9141Q15.8691-12.3242 15.6104-12.583Q15.3516-12.8418 14.9512-12.8418Q14.5605-12.8418 14.3115-12.583Q14.0625-12.3242 14.0625-11.9141L14.0625-7.96875L10.1172-7.96875Q9.70703-7.96875 9.45312-7.71484Q9.19922-7.46094 9.19922-7.05078Z"/>
  </g>
  <text style="stroke:none;fill:black;font-family:sans-serif;font-size:13;font-weight:bold;" transform="matrix(1 0 0 1 263 1953)">Design Variations</text>
  <text style="stroke:none;fill:black;font-family:sans-serif;font-size:13;" transform="matrix(1 0 0 1 263 1971)">Symbols are supported in up to nine weights and three scales.</text>
  <text style="stroke:none;fill:black;font-family:sans-serif;font-size:13;" transform="matrix(1 0 0 1 263 1989)">For optimal layout with text and other symbols, vertically align</text>
  <text style="stroke:none;fill:black;font-family:sans-serif;font-size:13;" transform="matrix(1 0 0 1 263 2007)">symbols with the adjacent text.</text>
  <line style="fill:none;stroke:#00AEEF;stroke-width:0.5;opacity:1.0;" x1="776" x2="776" y1="1919" y2="1933"/>
  <g transform="matrix(1 0 0 1 776 1933)">
   <path d="M3.31055 0.15625Q3.70117 0.15625 3.91602-0.00976562Q4.13086-0.175781 4.26758-0.585938L5.52734-4.0332L11.2891-4.0332L12.5488-0.585938Q12.6855-0.175781 12.9004-0.00976562Q13.1152 0.15625 13.4961 0.15625Q13.8867 0.15625 14.1162-0.0585938Q14.3457-0.273438 14.3457-0.644531Q14.3457-0.869141 14.2383-1.17188L9.6582-13.3691Q9.48242-13.8184 9.17969-14.043Q8.87695-14.2676 8.4082-14.2676Q7.5-14.2676 7.17773-13.3789L2.59766-1.16211Q2.49023-0.859375 2.49023-0.634766Q2.49023-0.263672 2.70996-0.0537109Q2.92969 0.15625 3.31055 0.15625ZM6.00586-5.51758L8.37891-12.0898L8.42773-12.0898L10.8008-5.51758Z"/>
  </g>
  <line style="fill:none;stroke:#00AEEF;stroke-width:0.5;opacity:1.0;" x1="793.197" x2="793.197" y1="1919" y2="1933"/>
  <text style="stroke:none;fill:black;font-family:sans-serif;font-size:13;font-weight:bold;" transform="matrix(1 0 0 1 776 1953)">Margins</text>
  <text style="stroke:none;fill:black;font-family:sans-serif;font-size:13;" transform="matrix(1 0 0 1 776 1971)">Leading and trailing margins on the left and right side of each symbol</text>
  <text style="stroke:none;fill:black;font-family:sans-serif;font-size:13;" transform="matrix(1 0 0 1 776 1989)">can be adjusted by modifying the x-location of the margin guidelines.</text>
  <text style="stroke:none;fill:black;font-family:sans-serif;font-size:13;" transform="matrix(1 0 0 1 776 2007)">Modifications are automatically applied proportionally to all</text>
  <text style="stroke:none;fill:black;font-family:sans-serif;font-size:13;" transform="matrix(1 0 0 1 776 2025)">scales and weights.</text>
  <g transform="matrix(1 0 0 1 1289 1933)">
   <path d="M2.8418 1.86523L4.54102 3.57422Q5.18555 4.22852 5.90332 4.17969Q6.62109 4.13086 7.31445 3.35938L18.0078-8.42773L17.041-9.4043L6.42578 2.27539Q6.16211 2.57812 5.89355 2.61719Q5.625 2.65625 5.27344 2.30469L4.10156 1.14258Q3.75 0.791016 3.79395 0.522461Q3.83789 0.253906 4.14062-0.0195312L15.6152-10.8203L14.6387-11.7871L3.04688-0.898438Q2.30469-0.214844 2.25098 0.498047Q2.19727 1.21094 2.8418 1.86523ZM9.25781-16.3281Q8.94531-16.0254 8.90625-15.6348Q8.86719-15.2441 9.04297-14.9512Q9.21875-14.6777 9.55566-14.541Q9.89258-14.4043 10.3809-14.5215Q11.4746-14.7754 12.5977-14.7314Q13.7207-14.6875 14.7949-13.9844L14.209-12.5293Q13.9551-11.9043 14.0674-11.4404Q14.1797-10.9766 14.5801-10.5664L16.875-8.25195Q17.2363-7.88086 17.5781-7.82227Q17.9199-7.76367 18.3398-7.8418L19.4043-8.03711L20.0684-7.36328L20.0293-6.80664Q20-6.43555 20.1221-6.12305Q20.2441-5.81055 20.6055-5.44922L21.3672-4.70703Q21.7285-4.3457 22.1533-4.33105Q22.5781-4.31641 22.9297-4.66797L25.8398-7.58789Q26.1914-7.93945 26.1816-8.35449Q26.1719-8.76953 25.8105-9.13086L25.0391-9.89258Q24.6875-10.2539 24.3799-10.3857Q24.0723-10.5176 23.7109-10.4883L23.1348-10.4395L22.4902-11.0742L22.7344-12.1973Q22.832-12.6172 22.6953-12.9834Q22.5586-13.3496 22.1191-13.7891L19.9219-15.9766Q18.6719-17.2168 17.2607-17.8369Q15.8496-18.457 14.4189-18.4814Q12.9883-18.5059 11.665-17.959Q10.3418-17.4121 9.25781-16.3281ZM10.752-15.957Q11.6602-16.6211 12.7002-16.9043Q13.7402-17.1875 14.8047-17.085Q15.8691-16.9824 16.8701-16.5137Q17.8711-16.0449 18.7012-15.2051L21.1328-12.793Q21.3086-12.6172 21.3525-12.4512Q21.3965-12.2852 21.3379-12.0312L21.0156-10.5469L22.5195-9.0625L23.5059-9.12109Q23.6914-9.13086 23.7891-9.09668Q23.8867-9.0625 24.0332-8.91602L24.6094-8.33984L22.168-5.89844L21.5918-6.47461Q21.4453-6.62109 21.4062-6.71875Q21.3672-6.81641 21.377-7.01172L21.4453-7.98828L19.9512-9.47266L18.4277-9.21875Q18.1836-9.16992 18.042-9.2041Q17.9004-9.23828 17.7148-9.41406L15.7129-11.416Q15.5176-11.5918 15.4932-11.7529Q15.4688-11.9141 15.5859-12.1875L16.4648-14.2773Q15.293-15.3711 13.8281-15.791Q12.3633-16.2109 10.8398-15.7617Q10.7227-15.7324 10.6885-15.8057Q10.6543-15.8789 10.752-15.957Z"/>
  </g>
  <text style="stroke:none;fill:black;font-family:sans-serif;font-size:13;font-weight:bold;" transform="matrix(1 0 0 1 1289 1953)">Exporting</text>
  <text style="stroke:none;fill:black;font-family:sans-serif;font-size:13;" transform="matrix(1 0 0 1 1289 1971)">Symbols should be outlined when exporting to ensure the</text>
  <text style="stroke:none;fill:black;font-family:sans-serif;font-size:13;" transform="matrix(1 0 0 1 1289 1989)">design is preserved when submitting to Xcode.</text>
  <text id="template-version" style="stroke:none;fill:black;font-family:sans-serif;font-size:13;text-anchor:end;" transform="matrix(1 0 0 1 3036 1933)">Template v.3.0</text>
  <text style="stroke:none;fill:black;font-family:sans-serif;font-size:13;text-anchor:end;" transform="matrix(1 0 0 1 3036 1951)">Requires Xcode 13 or greater</text>
  <text id="descriptive-name" style="stroke:none;fill:black;font-family:sans-serif;font-size:13;text-anchor:end;" transform="matrix(1 0 0 1 3036 1969)">Generated from layers</text>
  <text style="stroke:none;fill:black;font-family:sans-serif;font-size:13;text-anchor:end;" transform="matrix(1 0 0 1 3036 1987)">Typeset at 100 points</text>
  <text style="stroke:none;fill:black;font-family:sans-serif;font-size:13;" transform="matrix(1 0 0 1 263 726)">Small</text>
  <text style="stroke:none;fill:black;font-family:sans-serif;font-size:13;" transform="matrix(1 0 0 1 263 1156)">Medium</text>
  <text style="stroke:none;fill:black;font-family:sans-serif;font-size:13;" transform="matrix(1 0 0 1 263 1586)">Large</text>
 </g>
 <g id="Guides">
  <g id="H-reference" style="fill:#27AAE1;stroke:none;" transform="matrix(1 0 0 1 339 696)">
   <path d="M0.976562 0L3.66211 0L29.3457-67.1387L30.0293-67.1387L30.0293-70.459L28.125-70.459ZM11.6699-24.4629L46.9727-24.4629L46.2402-26.709L12.4512-26.709ZM55.127 0L57.7637 0L30.6152-70.459L29.4434-70.459L29.4434-67.1387Z"/>
  </g>
  <line id="Baseline-S" style="fill:none;stroke:#27AAE1;opacity:1;stroke-width:0.5;" x1="263" x2="3036" y1="696" y2="696"/>
  <line id="Capline-S" style="fill:none;stroke:#27AAE1;opacity:1;stroke-width:0.5;" x1="263" x2="3036" y1="625.541" y2="625.541"/>
  <g id="H-reference" style="fill:#27AAE1;stroke:none;" transform="matrix(1 0 0 1 339 1126)">
   <path d="M0.976562 0L3.66211 0L29.3457-67.1387L30.0293-67.1387L30.0293-70.459L28.125-70.459ZM11.6699-24.4629L46.9727-24.4629L46.2402-26.709L12.4512-26.709ZM55.127 0L57.7637 0L30.6152-70.459L29.4434-70.459L29.4434-67.1387Z"/>
  </g>
  <line id="Baseline-M" style="fill:none;stroke:#27AAE1;opacity:1;stroke-width:0.5;" x1="263" x2="3036" y1="1126" y2="1126"/>
  <line id="Capline-M" style="fill:none;stroke:#27AAE1;opacity:1;stroke-width:0.5;" x1="263" x2="3036" y1="1055.54" y2="1055.54"/>
  <g id="H-reference" style="fill:#27AAE1;stroke:none;" transform="matrix(1 0 0 1 339 1556)">
   <path d="M0.976562 0L3.66211 0L29.3457-67.1387L30.0293-67.1387L30.0293-70.459L28.125-70.459ZM11.6699-24.4629L46.9727-24.4629L46.2402-26.709L12.4512-26.709ZM55.127 0L57.7637 0L30.6152-70.459L29.4434-70.459L29.4434-67.1387Z"/>
  </g>
  <line id="Baseline-L" style="fill:none;stroke:#27AAE1;opacity:1;stroke-width:0.5;" x1="263" x2="3036" y1="1556" y2="1556"/>
  <line id="Capline-L" style="fill:none;stroke:#27AAE1;opacity:1;stroke-width:0.5;" x1="263" x2="3036" y1="1485.54" y2="1485.54"/>
  <line id="left-margin-Regular-M" style="fill:none;stroke:#00AEEF;stroke-width:0.5;opacity:1.0;" x1="1393.43" x2="1393.43" y1="1030.78" y2="1150.12"/>
  <line id="right-margin-Regular-M" style="fill:none;stroke:#00AEEF;stroke-width:0.5;opacity:1.0;" x1="1506.26" x2="1506.26" y1="1030.78" y2="1150.12"/>
 </g>
 <g id="Symbols">
  <g id="Black-L" transform="matrix(1 0 0 1 2861.14 1556)">
   <path class="hierarchical-0:secondary SFSymbolsPreview4D4D4D" d="M9.18302-10.47C10.943-13.98 15.203-15.4 18.7131-13.64L72.4131 13.21L126.113-13.64C129.623-15.4 133.883-13.98 135.643-10.47C137.393-6.96 135.973-2.7 132.463-0.94L75.5931 27.49C73.5931 28.49 71.2331 28.49 69.2431 27.49L12.363-0.94C8.85302-2.7 7.43302-6.96 9.18302-10.47ZM9.18302-38.91C10.943-42.41 15.203-43.83 18.7131-42.08L72.4131-15.23L126.113-42.08C129.623-43.83 133.883-42.41 135.643-38.91C137.393-35.4 135.973-31.13 132.463-29.38L75.5931-0.94C73.5931 0.06 71.2331 0.06 69.2431-0.94L12.363-29.38C8.85302-31.13 7.43302-35.4 9.18302-38.91Z"/>
   <path class="hierarchical-1:primary SFSymbolsPreview212121" d="M69.2431-98.96C71.2331-99.96 73.5931-99.96 75.5931-98.96L132.463-70.52C134.873-69.32 136.393-66.86 136.393-64.17C136.393-61.48 134.873-59.02 132.463-57.82L75.5931-29.38C73.5931-28.38 71.2331-28.38 69.2431-29.38L12.363-57.82C9.96302-59.02 8.44302-61.48 8.44302-64.17C8.44302-66.86 9.96302-69.32 12.363-70.52L69.2431-98.96ZM31.4131-64.17L72.4131-43.67L113.413-64.17L72.4131-84.67L31.4131-64.17Z"/>
  </g>
  <g id="Heavy-L" transform="matrix(1 0 0 1 2565.28 1556)">
   <path class="hierarchical-0:secondary SFSymbolsPreview4D4D4D" d="M9.09397-10.03C10.644-13.11 14.394-14.37 17.484-12.82L71.564 14.22L125.644-12.82C128.724-14.37 132.484-13.11 134.024-10.03C135.574-6.94 134.314-3.19 131.234-1.64L74.354 26.8C72.594 27.68 70.524 27.68 68.764 26.8L11.894-1.64C8.80397-3.19 7.55397-6.94 9.09397-10.03ZM9.09397-38.46C10.644-41.55 14.394-42.8 17.484-41.26L71.564-14.22L125.644-41.26C128.724-42.8 132.484-41.55 134.024-38.46C135.574-35.38 134.314-31.62 131.234-30.08L74.354-1.64C72.594-0.76 70.524-0.76 68.764-1.64L11.894-30.08C8.80397-31.62 7.55397-35.38 9.09397-38.46Z"/>
   <path class="hierarchical-1:primary SFSymbolsPreview212121" d="M68.764-98.14C70.524-99.02 72.594-99.02 74.354-98.14L131.234-69.7C133.344-68.64 134.684-66.48 134.684-64.11C134.684-61.74 133.344-59.58 131.234-58.52L74.354-30.08C72.594-29.2 70.524-29.2 68.764-30.08L11.894-58.52C9.77397-59.58 8.43397-61.74 8.43397-64.11C8.43397-66.48 9.77397-68.64 11.894-69.7L68.764-98.14ZM28.664-64.11L71.564-42.66L114.464-64.11L71.564-85.56L28.664-64.11Z"/>
  </g>
  <g id="Bold-L" transform="matrix(1 0 0 1 2269.52 1556)">
   <path class="hierarchical-0:secondary SFSymbolsPreview4D4D4D" d="M8.99548-9.53C10.3055-12.15 13.4855-13.21 16.1055-11.9L70.6055 15.35L125.116-11.9C127.736-13.21 130.916-12.15 132.226-9.53C133.536-6.91 132.476-3.73 129.856-2.42L72.9855 26.02C71.4855 26.76 69.7355 26.76 68.2355 26.02L11.3655-2.42C8.74548-3.73 7.68548-6.91 8.99548-9.53ZM8.99548-37.97C10.3055-40.59 13.4855-41.65 16.1055-40.34L70.6055-13.09L125.116-40.34C127.736-41.65 130.916-40.59 132.226-37.97C133.536-35.35 132.476-32.17 129.856-30.86L72.9855-2.42C71.4855-1.68 69.7355-1.68 68.2355-2.42L11.3655-30.86C8.74548-32.17 7.68548-35.35 8.99548-37.97Z"/>
   <path class="hierarchical-1:primary SFSymbolsPreview212121" d="M68.2355-97.22C69.7355-97.96 71.4855-97.96 72.9755-97.22L129.856-68.78C131.646-67.88 132.786-66.05 132.786-64.04C132.786-62.03 131.646-60.2 129.856-59.3L72.9755-30.86C71.4855-30.11 69.7355-30.11 68.2355-30.86L11.3655-59.3C9.56548-60.2 8.43548-62.03 8.43548-64.04C8.43548-66.05 9.56548-67.88 11.3655-68.78L68.2355-97.22ZM25.5855-64.04L70.6055-41.53L115.636-64.04L70.6055-86.55L25.5855-64.04Z"/>
  </g>
  <g id="Semibold-L" transform="matrix(1 0 0 1 1973.46 1556)">
   <path class="hierarchical-0:secondary SFSymbolsPreview4D4D4D" d="M8.93397-9.2C10.084-11.5 12.874-12.43 15.174-11.28L69.964 16.11L124.764-11.28C127.054-12.43 129.854-11.5 130.994-9.2C132.144-6.91 131.214-4.11 128.924-2.97L72.044 25.47C70.734 26.13 69.194 26.13 67.884 25.47L11.014-2.97C8.71397-4.11 7.78397-6.91 8.93397-9.2ZM8.93397-37.64C10.084-39.94 12.874-40.87 15.174-39.72L69.964-12.32L124.764-39.72C127.054-40.87 129.854-39.94 130.994-37.64C132.144-35.34 131.214-32.55 128.924-31.4L72.044-2.97C70.734-2.31 69.194-2.31 67.884-2.97L11.014-31.4C8.71397-32.55 7.78397-35.34 8.93397-37.64Z"/>
   <path class="hierarchical-1:primary SFSymbolsPreview212121" d="M67.884-96.59C69.194-97.25 70.734-97.25 72.044-96.59L128.914-68.16C130.494-67.37 131.484-65.76 131.484-64C131.484-62.24 130.494-60.62 128.914-59.84L72.044-31.4C70.734-30.75 69.194-30.75 67.884-31.4L11.014-59.84C9.43397-60.62 8.43397-62.24 8.43397-64C8.43397-65.76 9.43397-67.37 11.014-68.16L67.884-96.59ZM23.484-64L69.964-40.76L116.444-64L69.964-87.24L23.484-64Z"/>
  </g>
  <g id="Medium-L" transform="matrix(1 0 0 1 1677.24 1556)">
   <path class="hierarchical-0:secondary SFSymbolsPreview4D4D4D" d="M8.87397-8.94C9.90397-10.99 12.394-11.82 14.444-10.8L69.464 16.71L124.484-10.8C126.534-11.82 129.024-10.99 130.054-8.94C131.074-6.89 130.244-4.4 128.194-3.37L71.324 25.06C70.154 25.65 68.774 25.65 67.604 25.06L10.734-3.37C8.68397-4.4 7.85397-6.89 8.87397-8.94ZM8.87397-37.38C9.90397-39.43 12.394-40.26 14.444-39.23L69.464-11.72L124.484-39.23C126.534-40.26 129.024-39.43 130.054-37.38C131.074-35.33 130.244-32.84 128.194-31.81L71.324-3.37C70.154-2.79 68.774-2.79 67.604-3.37L10.734-31.81C8.68397-32.84 7.85397-35.33 8.87397-37.38Z"/>
   <path class="hierarchical-1:primary SFSymbolsPreview212121" d="M67.604-96.11C68.774-96.69 70.154-96.69 71.324-96.11L128.194-67.67C129.604-66.97 130.484-65.53 130.484-63.96C130.484-62.38 129.604-60.95 128.194-60.24L71.324-31.81C70.154-31.22 68.774-31.22 67.604-31.81L10.734-60.24C9.32397-60.95 8.43397-62.38 8.43397-63.96C8.43397-65.53 9.32397-66.97 10.734-67.67L67.604-96.11ZM21.864-63.96L69.464-40.16L117.054-63.96L69.464-87.75L21.864-63.96Z"/>
  </g>
  <g id="Regular-L" transform="matrix(1 0 0 1 1381.18 1556)">
   <path class="hierarchical-0:secondary SFSymbolsPreview4D4D4D" d="M8.81397-8.605C9.67397-10.335 11.774-11.035 13.504-10.165L68.814 17.485L124.124-10.165C125.854-11.035 127.954-10.335 128.824-8.605C129.684-6.875 128.984-4.775 127.254-3.905L70.384 24.535C69.394 25.025 68.234 25.025 67.254 24.535L10.374-3.905C8.64397-4.775 7.94397-6.875 8.81397-8.605ZM8.81397-37.035C9.67397-38.765 11.774-39.465 13.504-38.605L68.814-10.955L124.124-38.605C125.854-39.465 127.954-38.765 128.824-37.035C129.684-35.315 128.984-33.205 127.254-32.345L70.384-3.905C69.394-3.415 68.234-3.415 67.254-3.905L10.374-32.345C8.64397-33.205 7.94397-35.315 8.81397-37.035Z"/>
   <path class="hierarchical-1:primary SFSymbolsPreview212121" d="M67.244-95.485C68.234-95.975 69.394-95.975 70.384-95.485L127.254-67.045C128.444-66.455 129.194-65.235 129.194-63.915C129.194-62.585 128.444-61.375 127.254-60.785L70.384-32.345C69.394-31.855 68.234-31.855 67.244-32.345L10.374-60.785C9.18397-61.375 8.43397-62.585 8.43397-63.915C8.43397-65.235 9.18397-66.455 10.374-67.045L67.244-95.485ZM19.764-63.915L68.814-39.385L117.864-63.915L68.814-88.435L19.764-63.915Z"/>
  </g>
  <g id="Light-L" transform="matrix(1 0 0 1 1085.27 1556)">
   <path class="hierarchical-0:secondary SFSymbolsPreview4D4D4D" d="M8.72159-8.19C9.39159-9.52 11.0116-10.06 12.3416-9.4L68.0116 18.44L123.682-9.4C125.012-10.06 126.632-9.52 127.302-8.19C127.972-6.86 127.432-5.23 126.092-4.57L69.2216 23.87C68.4616 24.25 67.5616 24.25 66.8016 23.87L9.93159-4.57C8.59159-5.23 8.05159-6.86 8.72159-8.19ZM8.72159-36.63C9.39159-37.96 11.0116-38.5 12.3416-37.83L68.0116-10L123.682-37.83C125.012-38.5 126.632-37.96 127.302-36.63C127.972-35.29 127.432-33.67 126.092-33L69.2216-4.57C68.4616-4.19 67.5616-4.19 66.8016-4.57L9.93159-33C8.59159-33.67 8.05159-35.29 8.72159-36.63Z"/>
   <path class="hierarchical-1:primary SFSymbolsPreview212121" d="M66.8016-94.71C67.5616-95.09 68.4616-95.09 69.2216-94.71L126.092-66.27C127.012-65.81 127.592-64.88 127.592-63.86C127.592-62.83 127.012-61.9 126.092-61.44L69.2216-33C68.4616-32.62 67.5616-32.62 66.8016-33L9.93159-61.44C9.01159-61.9 8.44159-62.83 8.44159-63.86C8.44159-64.88 9.01159-65.81 9.93159-66.27L66.8016-94.71ZM17.1716-63.86L68.0116-38.44L118.852-63.86L68.0116-89.28L17.1716-63.86Z"/>
  </g>
  <g id="Thin-L" transform="matrix(1 0 0 1 789.612 1556)">
   <path class="hierarchical-0:secondary SFSymbolsPreview4D4D4D" d="M8.60826-7.645C9.01626-8.455 10.0073-8.785 10.8223-8.385L66.9593 19.685L123.096-8.385C123.911-8.785 124.902-8.455 125.31-7.645C125.717-6.825 125.387-5.835 124.572-5.435L67.6973 23.005C67.2323 23.235 66.6863 23.235 66.2213 23.005L9.34626-5.435C8.53126-5.835 8.20126-6.825 8.60826-7.645ZM8.60826-36.085C9.01626-36.895 10.0073-37.225 10.8223-36.815L66.9593-8.755L123.096-36.815C123.911-37.225 124.902-36.895 125.31-36.085C125.717-35.265 125.387-34.275 124.572-33.865L67.6973-5.435C67.2323-5.195 66.6863-5.195 66.2213-5.435L9.34626-33.865C8.53126-34.275 8.20126-35.265 8.60826-36.085Z"/>
   <path class="hierarchical-1:primary SFSymbolsPreview212121" d="M66.2213-93.695C66.6853-93.925 67.2323-93.925 67.6973-93.695L124.572-65.255C125.131-64.975 125.484-64.405 125.484-63.785C125.484-63.155 125.131-62.585 124.572-62.305L67.6973-33.865C67.2323-33.635 66.6853-33.635 66.2213-33.865L9.34626-62.305C8.78726-62.585 8.43426-63.155 8.43426-63.785C8.43426-64.405 8.78726-64.975 9.34626-65.255L66.2213-93.695ZM13.7733-63.785L66.9593-37.185L120.144-63.785L66.9593-90.375L13.7733-63.785Z"/>
  </g>
  <g id="Ultralight-L" transform="matrix(1 0 0 1 493.451 1556)">
   <path class="hierarchical-0:secondary SFSymbolsPreview4D4D4D" d="M8.55097-7.37C8.82197-7.91 9.48297-8.13 10.027-7.86L66.41 20.33L122.793-7.86C123.336-8.13 123.997-7.91 124.269-7.37C124.54-6.82 124.32-6.16 123.777-5.89L66.902 22.55C66.592 22.7 66.227 22.7 65.918 22.55L9.04297-5.89C8.49897-6.16 8.27897-6.82 8.55097-7.37ZM8.55097-35.8C8.82197-36.35 9.48297-36.57 10.027-36.3L66.41-8.1L122.793-36.3C123.336-36.57 123.997-36.35 124.269-35.8C124.54-35.26 124.32-34.6 123.777-34.33L66.902-5.89C66.592-5.74 66.227-5.74 65.918-5.89L9.04297-34.33C8.49897-34.6 8.27897-35.26 8.55097-35.8Z"/>
   <path class="hierarchical-1:primary SFSymbolsPreview212121" d="M65.917-93.17C66.227-93.33 66.592-93.33 66.901-93.17L123.776-64.73C124.149-64.55 124.384-64.17 124.384-63.75C124.384-63.33 124.149-62.95 123.776-62.77L66.901-34.33C66.592-34.17 66.227-34.17 65.917-34.33L9.04197-62.77C8.66997-62.95 8.43397-63.33 8.43397-63.75C8.43397-64.17 8.66997-64.55 9.04197-64.73L65.917-93.17ZM11.994-63.75L66.409-36.54L120.825-63.75L66.409-90.96L11.994-63.75Z"/>
  </g>
  <g id="Black-M" transform="matrix(1 0 0 1 2873.39 1126)">
   <path class="hierarchical-0:secondary SFSymbolsPreview4D4D4D" d="M9.18397-16.59C10.934-20.1 15.204-21.52 18.704-19.77L60.154 0.96L101.604-19.77C105.114-21.52 109.384-20.1 111.134-16.59C112.884-13.09 111.464-8.82 107.954-7.07L63.334 15.24C61.334 16.24 58.984 16.24 56.984 15.24L12.354-7.07C8.85397-8.82 7.43397-13.09 9.18397-16.59ZM9.18397-38.91C10.934-42.41 15.204-43.83 18.704-42.08L60.154-21.36L101.604-42.08C105.114-43.83 109.384-42.41 111.134-38.91C112.884-35.4 111.464-31.13 107.954-29.38L63.334-7.07C61.334-6.07 58.984-6.07 56.984-7.07L12.354-29.38C8.85397-31.13 7.43397-35.4 9.18397-38.91Z"/>
   <path class="hierarchical-1:primary SFSymbolsPreview212121" d="M56.984-86.71C58.984-87.71 61.334-87.71 63.334-86.71L107.954-64.39C110.364-63.19 111.884-60.73 111.884-58.04C111.884-55.36 110.364-52.9 107.954-51.69L63.334-29.38C61.334-28.38 58.984-28.38 56.984-29.38L12.354-51.69C9.95397-52.9 8.43397-55.36 8.43397-58.04C8.43397-60.73 9.95397-63.19 12.354-64.39L56.984-86.71ZM31.414-58.04L60.154-43.67L88.904-58.04L60.154-72.42L31.414-58.04Z"/>
  </g>
  <g id="Heavy-M" transform="matrix(1 0 0 1 2577.53 1126)">
   <path class="hierarchical-0:secondary SFSymbolsPreview4D4D4D" d="M9.09766-16.15C10.6377-19.24 14.3977-20.49 17.4777-18.95L59.3077 1.97L101.138-18.95C104.228-20.49 107.978-19.24 109.528-16.15C111.068-13.06 109.818-9.31 106.728-7.77L62.1077 14.55C60.3477 15.43 58.2777 15.43 56.5177 14.55L11.8877-7.77C8.80766-9.31 7.54766-13.06 9.09766-16.15ZM9.09766-38.46C10.6377-41.55 14.3977-42.8 17.4777-41.26L59.3077-20.34L101.138-41.26C104.228-42.8 107.978-41.55 109.528-38.46C111.068-35.38 109.818-31.62 106.728-30.08L62.1077-7.77C60.3477-6.89 58.2777-6.89 56.5177-7.77L11.8877-30.08C8.80766-31.62 7.54766-35.38 9.09766-38.46Z"/>
   <path class="hierarchical-1:primary SFSymbolsPreview212121" d="M56.5177-85.89C58.2777-86.77 60.3477-86.77 62.1077-85.89L106.728-63.57C108.848-62.51 110.188-60.35 110.188-57.98C110.188-55.62 108.848-53.45 106.728-52.39L62.1077-30.08C60.3477-29.2 58.2777-29.2 56.5177-30.08L11.8877-52.39C9.77766-53.45 8.43766-55.62 8.43766-57.98C8.43766-60.35 9.77766-62.51 11.8877-63.57L56.5177-85.89ZM28.6577-57.98L59.3077-42.66L89.9577-57.98L59.3077-73.31L28.6577-57.98Z"/>
  </g>
  <g id="Bold-M" transform="matrix(1 0 0 1 2281.77 1126)">
   <path class="hierarchical-0:secondary SFSymbolsPreview4D4D4D" d="M8.99548-15.66C10.3055-18.28 13.4855-19.34 16.1055-18.03L58.3555 3.1L100.615-18.03C103.235-19.34 106.415-18.28 107.725-15.66C109.036-13.04 107.975-9.86 105.355-8.55L60.7355 13.77C59.2355 14.51 57.4855 14.51 55.9855 13.77L11.3655-8.55C8.74548-9.86 7.68548-13.04 8.99548-15.66ZM8.99548-37.97C10.3055-40.59 13.4855-41.65 16.1055-40.34L58.3555-19.21L100.615-40.34C103.235-41.65 106.415-40.59 107.725-37.97C109.036-35.35 107.975-32.17 105.355-30.86L60.7355-8.55C59.2355-7.8 57.4855-7.8 55.9855-8.55L11.3655-30.86C8.74548-32.17 7.68548-35.35 8.99548-37.97Z"/>
   <path class="hierarchical-1:primary SFSymbolsPreview212121" d="M55.9855-84.97C57.4855-85.71 59.2355-85.71 60.7255-84.97L105.355-62.65C107.145-61.76 108.285-59.92 108.285-57.91C108.285-55.91 107.145-54.07 105.355-53.17L60.7255-30.86C59.2355-30.11 57.4855-30.11 55.9855-30.86L11.3655-53.17C9.56548-54.07 8.43548-55.91 8.43548-57.91C8.43548-59.92 9.56548-61.76 11.3655-62.65L55.9855-84.97ZM25.5855-57.91L58.3555-41.53L91.1355-57.91L58.3555-74.3L25.5855-57.91Z"/>
  </g>
  <g id="Semibold-M" transform="matrix(1 0 0 1 1985.71 1126)">
   <path class="hierarchical-0:secondary SFSymbolsPreview4D4D4D" d="M8.93397-15.33C10.084-17.63 12.874-18.56 15.174-17.41L57.714 3.86L100.264-17.41C102.554-18.56 105.354-17.63 106.494-15.33C107.644-13.03 106.714-10.24 104.424-9.09L59.794 13.22C58.484 13.88 56.944 13.88 55.634 13.22L11.014-9.09C8.71397-10.24 7.78397-13.03 8.93397-15.33ZM8.93397-37.64C10.084-39.94 12.874-40.87 15.174-39.72L57.714-18.45L100.264-39.72C102.554-40.87 105.354-39.94 106.494-37.64C107.644-35.34 106.714-32.55 104.424-31.4L59.794-9.09C58.484-8.44 56.944-8.44 55.634-9.09L11.014-31.4C8.71397-32.55 7.78397-35.34 8.93397-37.64Z"/>
   <path class="hierarchical-1:primary SFSymbolsPreview212121" d="M55.634-84.34C56.944-85 58.484-85 59.794-84.34L104.414-62.03C105.994-61.24 106.984-59.63 106.984-57.87C106.984-56.11 105.994-54.5 104.414-53.71L59.794-31.4C58.484-30.75 56.944-30.75 55.634-31.4L11.014-53.71C9.43397-54.5 8.43397-56.11 8.43397-57.87C8.43397-59.63 9.43397-61.24 11.014-62.03L55.634-84.34ZM23.484-57.87L57.714-40.76L91.944-57.87L57.714-74.99L23.484-57.87Z"/>
  </g>
  <g id="Medium-M" transform="matrix(1 0 0 1 1689.49 1126)">
   <path class="hierarchical-0:secondary SFSymbolsPreview4D4D4D" d="M8.87397-15.07C9.90397-17.12 12.394-17.95 14.444-16.92L57.214 4.46L99.984-16.92C102.034-17.95 104.524-17.12 105.554-15.07C106.574-13.02 105.744-10.52 103.694-9.5L59.074 12.81C57.904 13.4 56.524 13.4 55.354 12.81L10.734-9.5C8.68397-10.52 7.85397-13.02 8.87397-15.07ZM8.87397-37.38C9.90397-39.43 12.394-40.26 14.444-39.23L57.214-17.85L99.984-39.23C102.034-40.26 104.524-39.43 105.554-37.38C106.574-35.33 105.744-32.84 103.694-31.81L59.074-9.5C57.904-8.91 56.524-8.91 55.354-9.5L10.734-31.81C8.68397-32.84 7.85397-35.33 8.87397-37.38Z"/>
   <path class="hierarchical-1:primary SFSymbolsPreview212121" d="M55.354-83.86C56.524-84.44 57.904-84.44 59.074-83.86L103.694-61.54C105.104-60.84 105.984-59.4 105.984-57.83C105.984-56.26 105.104-54.82 103.694-54.12L59.074-31.81C57.904-31.22 56.524-31.22 55.354-31.81L10.734-54.12C9.32397-54.82 8.43397-56.26 8.43397-57.83C8.43397-59.4 9.32397-60.84 10.734-61.54L55.354-83.86ZM21.864-57.83L57.214-40.16L92.554-57.83L57.214-75.5L21.864-57.83Z"/>
  </g>
  <g id="Regular-M" transform="matrix(1 0 0 1 1393.43 1126)">
   <path class="hierarchical-0:secondary SFSymbolsPreview4D4D4D" d="M8.80794-14.725C9.66797-16.455 11.768-17.155 13.498-16.295L56.558 5.235L99.618-16.295C101.348-17.155 103.448-16.455 104.318-14.725C105.178-12.995 104.478-10.895 102.748-10.035L58.128 12.285C57.138 12.775 55.978 12.775 54.998 12.285L10.368-10.035C8.63794-10.895 7.93794-12.995 8.80794-14.725ZM8.80794-37.035C9.66797-38.765 11.768-39.465 13.498-38.605L56.558-17.075L99.618-38.605C101.348-39.465 103.448-38.765 104.318-37.035C105.178-35.315 104.478-33.205 102.748-32.345L58.128-10.035C57.138-9.535 55.978-9.535 54.998-10.035L10.368-32.345C8.63794-33.205 7.93794-35.315 8.80794-37.035Z"/>
   <path class="hierarchical-1:primary SFSymbolsPreview212121" d="M54.988-83.235C55.978-83.725 57.138-83.725 58.128-83.235L102.748-60.915C103.938-60.325 104.678-59.115 104.678-57.785C104.678-56.465 103.938-55.255 102.748-54.655L58.128-32.345C57.138-31.855 55.978-31.855 54.988-32.345L10.368-54.655C9.17794-55.255 8.43794-56.465 8.43794-57.785C8.43794-59.115 9.17794-60.325 10.368-60.915L54.988-83.235ZM19.758-57.785L56.558-39.385L93.358-57.785L56.558-76.185L19.758-57.785Z"/>
  </g>
  <g id="Light-M" transform="matrix(1 0 0 1 1097.52 1126)">
   <path class="hierarchical-0:secondary SFSymbolsPreview4D4D4D" d="M8.72159-14.31C9.39159-15.65 11.0116-16.19 12.3416-15.52L55.7616 6.19L99.1816-15.52C100.512-16.19 102.132-15.65 102.802-14.31C103.472-12.98 102.932-11.36 101.592-10.69L56.9716 11.62C56.2116 12 55.3116 12 54.5516 11.62L9.93159-10.69C8.59159-11.36 8.05159-12.98 8.72159-14.31ZM8.72159-36.63C9.39159-37.96 11.0116-38.5 12.3416-37.83L55.7616-16.13L99.1816-37.83C100.512-38.5 102.132-37.96 102.802-36.63C103.472-35.29 102.932-33.67 101.592-33L56.9716-10.69C56.2116-10.31 55.3116-10.31 54.5516-10.69L9.93159-33C8.59159-33.67 8.05159-35.29 8.72159-36.63Z"/>
   <path class="hierarchical-1:primary SFSymbolsPreview212121" d="M54.5516-82.46C55.3116-82.84 56.2116-82.84 56.9716-82.46L101.592-60.15C102.512-59.69 103.092-58.75 103.092-57.73C103.092-56.71 102.512-55.77 101.592-55.32L56.9716-33C56.2116-32.62 55.3116-32.62 54.5516-33L9.93159-55.32C9.01159-55.77 8.44159-56.71 8.44159-57.73C8.44159-58.75 9.01159-59.69 9.93159-60.15L54.5516-82.46ZM17.1716-57.73L55.7616-38.44L94.3516-57.73L55.7616-77.03L17.1716-57.73Z"/>
  </g>
  <g id="Thin-M" transform="matrix(1 0 0 1 801.862 1126)">
   <path class="hierarchical-0:secondary SFSymbolsPreview4D4D4D" d="M8.60826-13.765C9.01626-14.585 10.0073-14.915 10.8223-14.505L54.7093 7.435L98.5963-14.505C99.4113-14.915 100.402-14.585 100.81-13.765C101.217-12.955 100.887-11.965 100.072-11.555L55.4473 10.755C54.9823 10.985 54.4363 10.985 53.9713 10.755L9.34626-11.555C8.53126-11.965 8.20126-12.955 8.60826-13.765ZM8.60826-36.085C9.01626-36.895 10.0073-37.225 10.8223-36.815L54.7093-14.875L98.5963-36.815C99.4113-37.225 100.402-36.895 100.81-36.085C101.217-35.265 100.887-34.275 100.072-33.865L55.4473-11.555C54.9823-11.325 54.4363-11.325 53.9713-11.555L9.34626-33.865C8.53126-34.275 8.20126-35.265 8.60826-36.085Z"/>
   <path class="hierarchical-1:primary SFSymbolsPreview212121" d="M53.9713-81.445C54.4353-81.675 54.9823-81.675 55.4473-81.445L100.072-59.135C100.631-58.855 100.984-58.285 100.984-57.655C100.984-57.035 100.631-56.465 100.072-56.185L55.4473-33.865C54.9823-33.635 54.4353-33.635 53.9713-33.865L9.34626-56.185C8.78726-56.465 8.43426-57.035 8.43426-57.655C8.43426-58.285 8.78726-58.855 9.34626-59.135L53.9713-81.445ZM13.7733-57.655L54.7093-37.185L95.6443-57.655L54.7093-78.125L13.7733-57.655Z"/>
  </g>
  <g id="Ultralight-M" transform="matrix(1 0 0 1 505.701 1126)">
   <path class="hierarchical-0:secondary SFSymbolsPreview4D4D4D" d="M8.55097-13.49C8.82197-14.03 9.48297-14.25 10.027-13.98L54.16 8.08L98.293-13.98C98.836-14.25 99.497-14.03 99.769-13.49C100.04-12.95 99.82-12.29 99.277-12.02L54.652 10.3C54.342 10.45 53.977 10.45 53.668 10.3L9.04297-12.02C8.49897-12.29 8.27897-12.95 8.55097-13.49ZM8.55097-35.8C8.82197-36.35 9.48297-36.57 10.027-36.3L54.16-14.23L98.293-36.3C98.836-36.57 99.497-36.35 99.769-35.8C100.04-35.26 99.82-34.6 99.277-34.33L54.652-12.02C54.342-11.86 53.977-11.86 53.668-12.02L9.04297-34.33C8.49897-34.6 8.27897-35.26 8.55097-35.8Z"/>
   <path class="hierarchical-1:primary SFSymbolsPreview212121" d="M53.667-80.92C53.977-81.08 54.342-81.08 54.651-80.92L99.276-58.61C99.649-58.42 99.884-58.04 99.884-57.62C99.884-57.21 99.649-56.83 99.276-56.64L54.651-34.33C54.342-34.17 53.977-34.17 53.667-34.33L9.04197-56.64C8.66997-56.83 8.43397-57.21 8.43397-57.62C8.43397-58.04 8.66997-58.42 9.04197-58.61L53.667-80.92ZM11.994-57.62L54.159-36.54L96.325-57.62L54.159-78.71L11.994-57.62Z"/>
  </g>
  <g id="Black-S" transform="matrix(1 0 0 1 2883.02 696)">
   <path class="hierarchical-0:secondary SFSymbolsPreview4D4D4D" d="M9.18397-21.5064C10.934-25.0144 15.204-26.4354 18.714-24.6814L50.534-8.7695L82.364-24.6814C85.864-26.4354 90.134-25.0144 91.884-21.5064C93.634-17.9994 92.214-13.7344 88.714-11.9814L53.714 5.5185C51.714 6.5185 49.354 6.5185 47.364 5.5185L12.364-11.9814C8.85397-13.7344 7.43397-17.9994 9.18397-21.5064ZM9.18397-39.0064C10.934-42.5144 15.204-43.9354 18.714-42.1814L50.534-26.2695L82.364-42.1814C85.864-43.9354 90.134-42.5144 91.884-39.0064C93.634-35.4994 92.214-31.2344 88.714-29.4814L53.714-11.9814C51.714-10.9814 49.354-10.9814 47.364-11.9814L12.364-29.4814C8.85397-31.2344 7.43397-35.4994 9.18397-39.0064Z"/>
   <path class="hierarchical-1:primary SFSymbolsPreview212121" d="M47.364-77.1834C49.354-78.1824 51.714-78.1824 53.714-77.1834L88.714-59.6834C91.114-58.4804 92.634-56.0224 92.634-53.3334C92.634-50.6434 91.114-48.1854 88.714-46.9824L53.714-29.4824C51.714-28.4834 49.354-28.4834 47.364-29.4824L12.364-46.9824C9.95397-48.1854 8.43397-50.6434 8.43397-53.3334C8.43397-56.0224 9.95397-58.4804 12.364-59.6834L47.364-77.1834ZM31.414-53.3334L50.534-43.7714L69.654-53.3334L50.534-62.8954L31.414-53.3334Z"/>
  </g>
  <g id="Heavy-S" transform="matrix(1 0 0 1 2587.15 696)">
   <path class="hierarchical-0:secondary SFSymbolsPreview4D4D4D" d="M9.09397-21.066C10.634-24.153 14.394-25.405 17.484-23.861L49.684-7.758L81.894-23.861C84.974-25.405 88.734-24.153 90.274-21.066C91.814-17.978 90.564-14.224 87.484-12.68L52.484 4.82C50.724 5.699 48.654 5.699 46.894 4.82L11.894-12.68C8.80397-14.224 7.55397-17.978 9.09397-21.066ZM9.09397-38.566C10.634-41.653 14.394-42.905 17.484-41.361L49.684-25.258L81.894-41.361C84.974-42.905 88.734-41.653 90.274-38.566C91.814-35.478 90.564-31.724 87.484-30.18L52.484-12.68C50.724-11.801 48.654-11.801 46.894-12.68L11.894-30.18C8.80397-31.724 7.55397-35.478 9.09397-38.566Z"/>
   <path class="hierarchical-1:primary SFSymbolsPreview212121" d="M46.894-76.362C48.654-77.242 50.724-77.242 52.484-76.362L87.484-58.862C89.594-57.804 90.934-55.639 90.934-53.272C90.934-50.905 89.594-48.741 87.484-47.682L52.484-30.182C50.724-29.302 48.654-29.302 46.894-30.182L11.894-47.682C9.77397-48.741 8.43397-50.905 8.43397-53.272C8.43397-55.639 9.77397-57.804 11.894-58.862L46.894-76.362ZM28.664-53.272L49.684-42.76L70.714-53.272L49.684-63.784L28.664-53.272Z"/>
  </g>
  <g id="Bold-S" transform="matrix(1 0 0 1 2291.39 696)">
   <path class="hierarchical-0:secondary SFSymbolsPreview4D4D4D" d="M8.99397-20.368C10.304-22.986 13.494-24.047 16.114-22.738L48.734-6.423L81.364-22.738C83.984-24.047 87.174-22.986 88.484-20.368C89.784-17.75 88.724-14.566 86.114-13.257L51.114 4.243C49.614 4.989 47.864 4.989 46.364 4.243L11.364-13.257C8.75397-14.566 7.69397-17.75 8.99397-20.368ZM8.99397-37.868C10.304-40.486 13.494-41.547 16.114-40.238L48.734-23.923L81.364-40.238C83.984-41.547 87.174-40.486 88.484-37.868C89.784-35.25 88.724-32.066 86.114-30.757L51.114-13.257C49.614-12.511 47.864-12.511 46.364-13.257L11.364-30.757C8.75397-32.066 7.69397-35.25 8.99397-37.868Z"/>
   <path class="hierarchical-1:primary SFSymbolsPreview212121" d="M46.364-75.239C47.864-75.985 49.614-75.985 51.104-75.239L86.104-57.739C87.904-56.841 89.034-55.006 89.034-52.999C89.034-50.991 87.904-49.156 86.104-48.258L51.104-30.758C49.614-30.012 47.864-30.012 46.364-30.758L11.364-48.258C9.57397-49.156 8.43397-50.991 8.43397-52.999C8.43397-55.006 9.57397-56.841 11.364-57.739L46.364-75.239ZM25.584-52.999L48.734-41.424L71.884-52.999L48.734-64.573L25.584-52.999Z"/>
  </g>
  <g id="Semibold-S" transform="matrix(1 0 0 1 1995.33 696)">
   <path class="hierarchical-0:secondary SFSymbolsPreview4D4D4D" d="M8.92701-20.033C10.077-22.33 12.867-23.261 15.167-22.112L48.087-5.652L81.007-22.112C83.307-23.261 86.097-22.33 87.247-20.033C88.397-17.736 87.467-14.943 85.167-13.794L50.167 3.706C48.857 4.36 47.317 4.36 46.007 3.706L11.007-13.794C8.70701-14.943 7.77701-17.736 8.92701-20.033ZM8.92701-37.533C10.077-39.83 12.867-40.761 15.167-39.612L48.087-23.152L81.007-39.612C83.307-40.761 86.097-39.83 87.247-37.533C88.397-35.236 87.467-32.443 85.167-31.294L50.167-13.794C48.857-13.14 47.317-13.14 46.007-13.794L11.007-31.294C8.70701-32.443 7.77701-35.236 8.92701-37.533Z"/>
   <path class="hierarchical-1:primary SFSymbolsPreview212121" d="M46.007-74.61C47.317-75.264 48.857-75.264 50.167-74.61L85.167-57.11C86.737-56.322 87.737-54.712 87.737-52.95C87.737-51.189 86.737-49.579 85.167-48.791L50.167-31.291C48.857-30.637 47.317-30.637 46.007-31.291L11.007-48.791C9.42701-49.579 8.43701-51.189 8.43701-52.95C8.43701-54.712 9.42701-56.322 11.007-57.11L46.007-74.61ZM23.487-52.95L48.087-40.649L72.687-52.95L48.087-65.252L23.487-52.95Z"/>
  </g>
  <g id="Medium-S" transform="matrix(1 0 0 1 1699.12 696)">
   <path class="hierarchical-0:secondary SFSymbolsPreview4D4D4D" d="M8.87641-19.774C9.89641-21.824 12.3964-22.655 14.4464-21.63L47.5864-5.058L80.7264-21.63C82.7764-22.655 85.2764-21.824 86.2964-19.774C87.3264-17.724 86.4964-15.232 84.4464-14.207L49.4464 3.293C48.2764 3.878 46.8964 3.878 45.7264 3.293L10.7264-14.207C8.67641-15.232 7.84641-17.724 8.87641-19.774ZM8.87641-37.274C9.89641-39.324 12.3964-40.155 14.4464-39.13L47.5864-22.558L80.7264-39.13C82.7764-40.155 85.2764-39.324 86.2964-37.274C87.3264-35.224 86.4964-32.732 84.4464-31.707L49.4464-14.207C48.2764-13.622 46.8964-13.622 45.7264-14.207L10.7264-31.707C8.67641-32.732 7.84641-35.224 8.87641-37.274Z"/>
   <path class="hierarchical-1:primary SFSymbolsPreview212121" d="M45.7264-74.127C46.8964-74.711 48.2764-74.711 49.4464-74.127L84.4464-56.627C85.8464-55.924 86.7364-54.487 86.7364-52.915C86.7364-51.344 85.8464-49.907 84.4464-49.204L49.4464-31.704C48.2764-31.119 46.8964-31.119 45.7264-31.704L10.7264-49.204C9.32641-49.907 8.43641-51.344 8.43641-52.915C8.43641-54.487 9.32641-55.924 10.7264-56.627L45.7264-74.127ZM21.8664-52.915L47.5864-40.055L73.3064-52.915L47.5864-65.776L21.8664-52.915Z"/>
  </g>
  <g id="Regular-S" transform="matrix(1 0 0 1 1403.06 696)">
   <path class="hierarchical-0:secondary SFSymbolsPreview4D4D4D" d="M8.80397-19.4355C9.66397-21.1645 11.774-21.8656 13.504-21.0015L46.934-4.28353L80.374-21.0015C82.094-21.8656 84.204-21.1645 85.064-19.4355C85.934-17.7075 85.224-15.6045 83.504-14.7406L48.504 2.75947C47.514 3.25248 46.354 3.25248 45.374 2.75947L10.374-14.7406C8.64397-15.6045 7.94397-17.7075 8.80397-19.4355ZM8.80397-36.9355C9.66397-38.6645 11.774-39.3656 13.504-38.5015L46.934-21.7836L80.374-38.5015C82.094-39.3656 84.204-38.6645 85.064-36.9355C85.934-35.2075 85.224-33.1045 83.504-32.2406L48.504-14.7406C47.514-14.2475 46.354-14.2475 45.374-14.7406L10.374-32.2406C8.64397-33.1045 7.94397-35.2075 8.80397-36.9355Z"/>
   <path class="hierarchical-1:primary SFSymbolsPreview212121" d="M45.364-73.5015C46.354-73.9946 47.514-73.9946 48.504-73.5015L83.504-56.0015C84.684-55.4095 85.434-54.1976 85.434-52.8715C85.434-51.5455 84.684-50.3335 83.504-49.7415L48.504-32.2415C47.514-31.7485 46.354-31.7485 45.364-32.2415L10.364-49.7415C9.18397-50.3335 8.43397-51.5455 8.43397-52.8715C8.43397-54.1976 9.18397-55.4095 10.364-56.0015L45.364-73.5015ZM19.764-52.8715L46.934-39.2845L74.104-52.8715L46.934-66.4585L19.764-52.8715Z"/>
  </g>
  <g id="Light-S" transform="matrix(1 0 0 1 1107.15 696)">
   <path class="hierarchical-0:secondary SFSymbolsPreview4D4D4D" d="M8.71541-19.021C9.38541-20.355 11.0054-20.895 12.3454-20.229L46.1354-3.332L79.9254-20.229C81.2654-20.895 82.8854-20.355 83.5454-19.021C84.2154-17.687 83.6754-16.066 82.3454-15.399L47.3454 2.101C46.5854 2.481 45.6854 2.481 44.9254 2.101L9.92541-15.399C8.59541-16.066 8.05541-17.687 8.71541-19.021ZM8.71541-36.521C9.38541-37.855 11.0054-38.395 12.3454-37.729L46.1354-20.832L79.9254-37.729C81.2654-38.395 82.8854-37.855 83.5454-36.521C84.2154-35.187 83.6754-33.566 82.3454-32.899L47.3454-15.399C46.5854-15.019 45.6854-15.019 44.9254-15.399L9.92541-32.899C8.59541-33.566 8.05541-35.187 8.71541-36.521Z"/>
   <path class="hierarchical-1:primary SFSymbolsPreview212121" d="M44.9254-72.729C45.6854-73.109 46.5854-73.109 47.3454-72.729L82.3454-55.229C83.2554-54.772 83.8354-53.837 83.8354-52.814C83.8354-51.792 83.2554-50.857 82.3454-50.399L47.3454-32.899C46.5854-32.519 45.6854-32.519 44.9254-32.899L9.92541-50.399C9.01541-50.857 8.43541-51.792 8.43541-52.814C8.43541-53.837 9.01541-54.772 9.92541-55.229L44.9254-72.729ZM17.1754-52.814L46.1354-38.333L75.0954-52.814L46.1354-67.296L17.1754-52.814Z"/>
  </g>
  <g id="Thin-S" transform="matrix(1 0 0 1 811.487 696)">
   <path class="hierarchical-0:secondary SFSymbolsPreview4D4D4D" d="M8.60826-18.4775C9.01626-19.2925 10.0073-19.6225 10.8223-19.2155L45.0843-2.0845L79.3463-19.2155C80.1613-19.6225 81.1523-19.2925 81.5603-18.4775C81.9673-17.6625 81.6373-16.6715 80.8223-16.2635L45.8223 1.2365C45.3573 1.4685 44.8113 1.4685 44.3463 1.2365L9.34626-16.2635C8.53126-16.6715 8.20126-17.6625 8.60826-18.4775ZM8.60826-35.9775C9.01626-36.7925 10.0073-37.1225 10.8223-36.7155L45.0843-19.5845L79.3463-36.7155C80.1613-37.1225 81.1523-36.7925 81.5603-35.9775C81.9673-35.1625 81.6373-34.1715 80.8223-33.7635L45.8223-16.2635C45.3573-16.0315 44.8113-16.0315 44.3463-16.2635L9.34626-33.7635C8.53126-34.1715 8.20126-35.1625 8.60826-35.9775Z"/>
   <path class="hierarchical-1:primary SFSymbolsPreview212121" d="M44.3463-71.7155C44.8103-71.9485 45.3573-71.9485 45.8223-71.7155L80.8223-54.2155C81.3813-53.9365 81.7343-53.3645 81.7343-52.7395C81.7343-52.1145 81.3813-51.5435 80.8223-51.2645L45.8223-33.7645C45.3573-33.5315 44.8103-33.5315 44.3463-33.7645L9.34626-51.2645C8.78726-51.5435 8.43426-52.1145 8.43426-52.7395C8.43426-53.3645 8.78726-53.9365 9.34626-54.2155L44.3463-71.7155ZM13.7733-52.7395L45.0843-37.0845L76.3943-52.7395L45.0843-68.3954L13.7733-52.7395Z"/>
  </g>
  <g id="Ultralight-S" transform="matrix(1 0 0 1 515.326 696)">
   <path class="hierarchical-0:secondary SFSymbolsPreview4D4D4D" d="M8.55097-18.1956C8.82197-18.7396 9.48297-18.9595 10.027-18.6876L44.535-1.4335L79.043-18.6876C79.586-18.9595 80.247-18.7396 80.519-18.1956C80.79-17.6526 80.57-16.9916 80.027-16.7196L45.027 0.7805C44.717 0.9345 44.352 0.9345 44.043 0.7805L9.04297-16.7196C8.49897-16.9916 8.27897-17.6526 8.55097-18.1956ZM8.55097-35.6956C8.82197-36.2396 9.48297-36.4595 10.027-36.1876L44.535-18.9336L79.043-36.1876C79.586-36.4595 80.247-36.2396 80.519-35.6956C80.79-35.1526 80.57-34.4916 80.027-34.2196L45.027-16.7196C44.717-16.5656 44.352-16.5656 44.043-16.7196L9.04297-34.2196C8.49897-34.4916 8.27897-35.1526 8.55097-35.6956Z"/>
   <path class="hierarchical-1:primary SFSymbolsPreview212121" d="M44.042-71.1875C44.352-71.3426 44.717-71.3426 45.026-71.1875L80.026-53.6876C80.399-53.5016 80.634-53.1206 80.634-52.7046C80.634-52.2876 80.399-51.9066 80.026-51.7206L45.026-34.2206C44.717-34.0656 44.352-34.0656 44.042-34.2206L9.04197-51.7206C8.66997-51.9066 8.43397-52.2876 8.43397-52.7046C8.43397-53.1206 8.66997-53.5016 9.04197-53.6876L44.042-71.1875ZM11.994-52.7046L44.534-36.4336L77.075-52.7046L44.534-68.9746L11.994-52.7046Z"/>
  </g>
 </g>
</svg>
