<?xml version="1.0" encoding="UTF-8"?>
<!--Generator: Apple Native CoreSVG 175-->
<!DOCTYPE svg
PUBLIC "-//W3C//DTD SVG 1.1//EN"
       "http://www.w3.org/Graphics/SVG/1.1/DTD/svg11.dtd">
<svg version="1.1" xmlns="http://www.w3.org/2000/svg" xmlns:xlink="http://www.w3.org/1999/xlink" width="3300" height="2200">
 <!--glyph: "", point size: 100.0, font version: "17.0d12e1", template writer version: "65.1"-->
 <style>.hierarchical-0:secondary {fill:#4D4D4D}
.hierarchical-1:primary {fill:#212121}

.SFSymbolsPreview212121 {fill:#212121;opacity:1.0}
.SFSymbolsPreview4D4D4D {fill:#4D4D4D;opacity:1.0}
</style>
 <g id="Notes">
  <rect height="2200" id="artboard" style="fill:white;opacity:1" width="3300" x="0" y="0"/>
  <line style="fill:none;stroke:black;opacity:1;stroke-width:0.5;" x1="263" x2="3036" y1="292" y2="292"/>
  <text style="stroke:none;fill:black;font-family:sans-serif;font-size:13;font-weight:bold;" transform="matrix(1 0 0 1 263 322)">Weight/Scale Variations</text>
  <text style="stroke:none;fill:black;font-family:sans-serif;font-size:13;text-anchor:middle;" transform="matrix(1 0 0 1 559.711 322)">Ultralight</text>
  <text style="stroke:none;fill:black;font-family:sans-serif;font-size:13;text-anchor:middle;" transform="matrix(1 0 0 1 856.422 322)">Thin</text>
  <text style="stroke:none;fill:black;font-family:sans-serif;font-size:13;text-anchor:middle;" transform="matrix(1 0 0 1 1153.13 322)">Light</text>
  <text style="stroke:none;fill:black;font-family:sans-serif;font-size:13;text-anchor:middle;" transform="matrix(1 0 0 1 1449.84 322)">Regular</text>
  <text style="stroke:none;fill:black;font-family:sans-serif;font-size:13;text-anchor:middle;" transform="matrix(1 0 0 1 1746.56 322)">Medium</text>
  <text style="stroke:none;fill:black;font-family:sans-serif;font-size:13;text-anchor:middle;" transform="matrix(1 0 0 1 2043.27 322)">Semibold</text>
  <text style="stroke:none;fill:black;font-family:sans-serif;font-size:13;text-anchor:middle;" transform="matrix(1 0 0 1 2339.98 322)">Bold</text>
  <text style="stroke:none;fill:black;font-family:sans-serif;font-size:13;text-anchor:middle;" transform="matrix(1 0 0 1 2636.69 322)">Heavy</text>
  <text style="stroke:none;fill:black;font-family:sans-serif;font-size:13;text-anchor:middle;" transform="matrix(1 0 0 1 2933.4 322)">Black</text>
  <line style="fill:none;stroke:black;opacity:1;stroke-width:0.5;" x1="263" x2="3036" y1="1903" y2="1903"/>
  <g transform="matrix(1 0 0 1 263 1933)">
   <path d="M9.24805 0.830078Q10.8691 0.830078 12.2949 0.214844Q13.7207-0.400391 14.8096-1.49414Q15.8984-2.58789 16.5186-4.01367Q17.1387-5.43945 17.1387-7.05078Q17.1387-8.66211 16.5186-10.0879Q15.8984-11.5137 14.8047-12.6074Q13.7109-13.7012 12.2852-14.3164Q10.8594-14.9316 9.23828-14.9316Q7.62695-14.9316 6.20117-14.3164Q4.77539-13.7012 3.69141-12.6074Q2.60742-11.5137 1.9873-10.0879Q1.36719-8.66211 1.36719-7.05078Q1.36719-5.43945 1.9873-4.01367Q2.60742-2.58789 3.69629-1.49414Q4.78516-0.400391 6.21094 0.214844Q7.63672 0.830078 9.24805 0.830078ZM9.24805-0.654297Q7.91992-0.654297 6.7627-1.14746Q5.60547-1.64062 4.73145-2.51953Q3.85742-3.39844 3.36426-4.56055Q2.87109-5.72266 2.87109-7.05078Q2.87109-8.37891 3.35938-9.54102Q3.84766-10.7031 4.72168-11.582Q5.5957-12.4609 6.75293-12.9541Q7.91016-13.4473 9.23828-13.4473Q10.5762-13.4473 11.7334-12.9541Q12.8906-12.4609 13.7695-11.582Q14.6484-10.7031 15.1465-9.54102Q15.6445-8.37891 15.6445-7.05078Q15.6445-5.72266 15.1514-4.56055Q14.6582-3.39844 13.7842-2.51953Q12.9102-1.64062 11.748-1.14746Q10.5859-0.654297 9.24805-0.654297ZM5.6543-7.05078Q5.6543-6.72852 5.85938-6.52832Q6.06445-6.32812 6.40625-6.32812L8.51562-6.32812L8.51562-4.20898Q8.51562-3.88672 8.71094-3.67676Q8.90625-3.4668 9.23828-3.4668Q9.56055-3.4668 9.77051-3.67676Q9.98047-3.88672 9.98047-4.20898L9.98047-6.32812L12.0898-6.32812Q12.4219-6.32812 12.627-6.52832Q12.832-6.72852 12.832-7.05078Q12.832-7.38281 12.627-7.58789Q12.4219-7.79297 12.0898-7.79297L9.98047-7.79297L9.98047-9.90234Q9.98047-10.2344 9.77051-10.4443Q9.56055-10.6543 9.23828-10.6543Q8.90625-10.6543 8.71094-10.4443Q8.51562-10.2344 8.51562-9.90234L8.51562-7.79297L6.40625-7.79297Q6.06445-7.79297 5.85938-7.58789Q5.6543-7.38281 5.6543-7.05078Z"/>
  </g>
  <g transform="matrix(1 0 0 1 281.867 1933)">
   <path d="M11.709 2.91016Q13.75 2.91016 15.5518 2.12891Q17.3535 1.34766 18.7305-0.0292969Q20.1074-1.40625 20.8887-3.20801Q21.6699-5.00977 21.6699-7.05078Q21.6699-9.0918 20.8887-10.8936Q20.1074-12.6953 18.7305-14.0723Q17.3535-15.4492 15.5469-16.2305Q13.7402-17.0117 11.6992-17.0117Q9.6582-17.0117 7.85645-16.2305Q6.05469-15.4492 4.68262-14.0723Q3.31055-12.6953 2.5293-10.8936Q1.74805-9.0918 1.74805-7.05078Q1.74805-5.00977 2.5293-3.20801Q3.31055-1.40625 4.6875-0.0292969Q6.06445 1.34766 7.86621 2.12891Q9.66797 2.91016 11.709 2.91016ZM11.709 1.25Q9.98047 1.25 8.47656 0.605469Q6.97266-0.0390625 5.83496-1.17676Q4.69727-2.31445 4.05762-3.81836Q3.41797-5.32227 3.41797-7.05078Q3.41797-8.7793 4.05762-10.2832Q4.69727-11.7871 5.83008-12.9297Q6.96289-14.0723 8.4668-14.7119Q9.9707-15.3516 11.6992-15.3516Q13.4277-15.3516 14.9316-14.7119Q16.4355-14.0723 17.5781-12.9297Q18.7207-11.7871 19.3652-10.2832Q20.0098-8.7793 20.0098-7.05078Q20.0098-5.32227 19.3701-3.81836Q18.7305-2.31445 17.5928-1.17676Q16.4551-0.0390625 14.9463 0.605469Q13.4375 1.25 11.709 1.25ZM7.17773-7.05078Q7.17773-6.69922 7.41211-6.47461Q7.64648-6.25 8.01758-6.25L10.8887-6.25L10.8887-3.36914Q10.8887-2.99805 11.1133-2.76855Q11.3379-2.53906 11.6895-2.53906Q12.0605-2.53906 12.29-2.76855Q12.5195-2.99805 12.5195-3.36914L12.5195-6.25L15.4004-6.25Q15.7715-6.25 16.001-6.47461Q16.2305-6.69922 16.2305-7.05078Q16.2305-7.42188 16.001-7.65137Q15.7715-7.88086 15.4004-7.88086L12.5195-7.88086L12.5195-10.752Q12.5195-11.1328 12.29-11.3623Q12.0605-11.5918 11.6895-11.5918Q11.3379-11.5918 11.1133-11.3574Q10.8887-11.123 10.8887-10.752L10.8887-7.88086L8.01758-7.88086Q7.63672-7.88086 7.40723-7.65137Q7.17773-7.42188 7.17773-7.05078Z"/>
  </g>
  <g transform="matrix(1 0 0 1 305.646 1933)">
   <path d="M14.9707 5.66406Q17.0605 5.66406 18.96 5.01465Q20.8594 4.36523 22.4512 3.19336Q24.043 2.02148 25.2197 0.429688Q26.3965-1.16211 27.0459-3.06641Q27.6953-4.9707 27.6953-7.05078Q27.6953-9.14062 27.0459-11.04Q26.3965-12.9395 25.2197-14.5312Q24.043-16.123 22.4512-17.2998Q20.8594-18.4766 18.9551-19.126Q17.0508-19.7754 14.9609-19.7754Q12.8711-19.7754 10.9717-19.126Q9.07227-18.4766 7.48535-17.2998Q5.89844-16.123 4.72168-14.5312Q3.54492-12.9395 2.90039-11.04Q2.25586-9.14062 2.25586-7.05078Q2.25586-4.9707 2.90527-3.06641Q3.55469-1.16211 4.72656 0.429688Q5.89844 2.02148 7.49023 3.19336Q9.08203 4.36523 10.9814 5.01465Q12.8809 5.66406 14.9707 5.66406ZM14.9707 3.84766Q13.1641 3.84766 11.5283 3.2959Q9.89258 2.74414 8.53516 1.74805Q7.17773 0.751953 6.17676-0.610352Q5.17578-1.97266 4.62891-3.6084Q4.08203-5.24414 4.08203-7.05078Q4.08203-8.86719 4.62891-10.5029Q5.17578-12.1387 6.17188-13.501Q7.16797-14.8633 8.52539-15.8594Q9.88281-16.8555 11.5186-17.4023Q13.1543-17.9492 14.9609-17.9492Q16.7773-17.9492 18.4131-17.4023Q20.0488-16.8555 21.4111-15.8594Q22.7734-14.8633 23.7695-13.501Q24.7656-12.1387 25.3174-10.5029Q25.8691-8.86719 25.8691-7.05078Q25.8789-5.24414 25.332-3.6084Q24.7852-1.97266 23.7842-0.610352Q22.7832 0.751953 21.4209 1.74805Q20.0586 2.74414 18.4229 3.2959Q16.7871 3.84766 14.9707 3.84766ZM9.19922-7.05078Q9.19922-6.66992 9.45801-6.4209Q9.7168-6.17188 10.1172-6.17188L14.0625-6.17188L14.0625-2.2168Q14.0625-1.81641 14.3115-1.55762Q14.5605-1.29883 14.9512-1.29883Q15.3516-1.29883 15.6104-1.55273Q15.8691-1.80664 15.8691-2.2168L15.8691-6.17188L19.8242-6.17188Q20.2246-6.17188 20.4785-6.4209Q20.7324-6.66992 20.7324-7.05078Q20.7324-7.46094 20.4785-7.71484Q20.2246-7.96875 19.8242-7.96875L15.8691-7.96875L15.8691-11.9141Q15.8691-12.3242 15.6104-12.583Q15.3516-12.8418 14.9512-12.8418Q14.5605-12.8418 14.3115-12.583Q14.0625-12.3242 14.0625-11.9141L14.0625-7.96875L10.1172-7.96875Q9.70703-7.96875 9.45312-7.71484Q9.19922-7.46094 9.19922-7.05078Z"/>
  </g>
  <text style="stroke:none;fill:black;font-family:sans-serif;font-size:13;font-weight:bold;" transform="matrix(1 0 0 1 263 1953)">Design Variations</text>
  <text style="stroke:none;fill:black;font-family:sans-serif;font-size:13;" transform="matrix(1 0 0 1 263 1971)">Symbols are supported in up to nine weights and three scales.</text>
  <text style="stroke:none;fill:black;font-family:sans-serif;font-size:13;" transform="matrix(1 0 0 1 263 1989)">For optimal layout with text and other symbols, vertically align</text>
  <text style="stroke:none;fill:black;font-family:sans-serif;font-size:13;" transform="matrix(1 0 0 1 263 2007)">symbols with the adjacent text.</text>
  <line style="fill:none;stroke:#00AEEF;stroke-width:0.5;opacity:1.0;" x1="776" x2="776" y1="1919" y2="1933"/>
  <g transform="matrix(1 0 0 1 776 1933)">
   <path d="M3.31055 0.15625Q3.70117 0.15625 3.91602-0.00976562Q4.13086-0.175781 4.26758-0.585938L5.52734-4.0332L11.2891-4.0332L12.5488-0.585938Q12.6855-0.175781 12.9004-0.00976562Q13.1152 0.15625 13.4961 0.15625Q13.8867 0.15625 14.1162-0.0585938Q14.3457-0.273438 14.3457-0.644531Q14.3457-0.869141 14.2383-1.17188L9.6582-13.3691Q9.48242-13.8184 9.17969-14.043Q8.87695-14.2676 8.4082-14.2676Q7.5-14.2676 7.17773-13.3789L2.59766-1.16211Q2.49023-0.859375 2.49023-0.634766Q2.49023-0.263672 2.70996-0.0537109Q2.92969 0.15625 3.31055 0.15625ZM6.00586-5.51758L8.37891-12.0898L8.42773-12.0898L10.8008-5.51758Z"/>
  </g>
  <line style="fill:none;stroke:#00AEEF;stroke-width:0.5;opacity:1.0;" x1="793.197" x2="793.197" y1="1919" y2="1933"/>
  <text style="stroke:none;fill:black;font-family:sans-serif;font-size:13;font-weight:bold;" transform="matrix(1 0 0 1 776 1953)">Margins</text>
  <text style="stroke:none;fill:black;font-family:sans-serif;font-size:13;" transform="matrix(1 0 0 1 776 1971)">Leading and trailing margins on the left and right side of each symbol</text>
  <text style="stroke:none;fill:black;font-family:sans-serif;font-size:13;" transform="matrix(1 0 0 1 776 1989)">can be adjusted by modifying the x-location of the margin guidelines.</text>
  <text style="stroke:none;fill:black;font-family:sans-serif;font-size:13;" transform="matrix(1 0 0 1 776 2007)">Modifications are automatically applied proportionally to all</text>
  <text style="stroke:none;fill:black;font-family:sans-serif;font-size:13;" transform="matrix(1 0 0 1 776 2025)">scales and weights.</text>
  <g transform="matrix(1 0 0 1 1289 1933)">
   <path d="M2.8418 1.86523L4.54102 3.57422Q5.18555 4.22852 5.90332 4.17969Q6.62109 4.13086 7.31445 3.35938L18.0078-8.42773L17.041-9.4043L6.42578 2.27539Q6.16211 2.57812 5.89355 2.61719Q5.625 2.65625 5.27344 2.30469L4.10156 1.14258Q3.75 0.791016 3.79395 0.522461Q3.83789 0.253906 4.14062-0.0195312L15.6152-10.8203L14.6387-11.7871L3.04688-0.898438Q2.30469-0.214844 2.25098 0.498047Q2.19727 1.21094 2.8418 1.86523ZM9.25781-16.3281Q8.94531-16.0254 8.90625-15.6348Q8.86719-15.2441 9.04297-14.9512Q9.21875-14.6777 9.55566-14.541Q9.89258-14.4043 10.3809-14.5215Q11.4746-14.7754 12.5977-14.7314Q13.7207-14.6875 14.7949-13.9844L14.209-12.5293Q13.9551-11.9043 14.0674-11.4404Q14.1797-10.9766 14.5801-10.5664L16.875-8.25195Q17.2363-7.88086 17.5781-7.82227Q17.9199-7.76367 18.3398-7.8418L19.4043-8.03711L20.0684-7.36328L20.0293-6.80664Q20-6.43555 20.1221-6.12305Q20.2441-5.81055 20.6055-5.44922L21.3672-4.70703Q21.7285-4.3457 22.1533-4.33105Q22.5781-4.31641 22.9297-4.66797L25.8398-7.58789Q26.1914-7.93945 26.1816-8.35449Q26.1719-8.76953 25.8105-9.13086L25.0391-9.89258Q24.6875-10.2539 24.3799-10.3857Q24.0723-10.5176 23.7109-10.4883L23.1348-10.4395L22.4902-11.0742L22.7344-12.1973Q22.832-12.6172 22.6953-12.9834Q22.5586-13.3496 22.1191-13.7891L19.9219-15.9766Q18.6719-17.2168 17.2607-17.8369Q15.8496-18.457 14.4189-18.4814Q12.9883-18.5059 11.665-17.959Q10.3418-17.4121 9.25781-16.3281ZM10.752-15.957Q11.6602-16.6211 12.7002-16.9043Q13.7402-17.1875 14.8047-17.085Q15.8691-16.9824 16.8701-16.5137Q17.8711-16.0449 18.7012-15.2051L21.1328-12.793Q21.3086-12.6172 21.3525-12.4512Q21.3965-12.2852 21.3379-12.0312L21.0156-10.5469L22.5195-9.0625L23.5059-9.12109Q23.6914-9.13086 23.7891-9.09668Q23.8867-9.0625 24.0332-8.91602L24.6094-8.33984L22.168-5.89844L21.5918-6.47461Q21.4453-6.62109 21.4062-6.71875Q21.3672-6.81641 21.377-7.01172L21.4453-7.98828L19.9512-9.47266L18.4277-9.21875Q18.1836-9.16992 18.042-9.2041Q17.9004-9.23828 17.7148-9.41406L15.7129-11.416Q15.5176-11.5918 15.4932-11.7529Q15.4688-11.9141 15.5859-12.1875L16.4648-14.2773Q15.293-15.3711 13.8281-15.791Q12.3633-16.2109 10.8398-15.7617Q10.7227-15.7324 10.6885-15.8057Q10.6543-15.8789 10.752-15.957Z"/>
  </g>
  <text style="stroke:none;fill:black;font-family:sans-serif;font-size:13;font-weight:bold;" transform="matrix(1 0 0 1 1289 1953)">Exporting</text>
  <text style="stroke:none;fill:black;font-family:sans-serif;font-size:13;" transform="matrix(1 0 0 1 1289 1971)">Symbols should be outlined when exporting to ensure the</text>
  <text style="stroke:none;fill:black;font-family:sans-serif;font-size:13;" transform="matrix(1 0 0 1 1289 1989)">design is preserved when submitting to Xcode.</text>
  <text id="template-version" style="stroke:none;fill:black;font-family:sans-serif;font-size:13;text-anchor:end;" transform="matrix(1 0 0 1 3036 1933)">Template v.3.0</text>
  <text style="stroke:none;fill:black;font-family:sans-serif;font-size:13;text-anchor:end;" transform="matrix(1 0 0 1 3036 1951)">Requires Xcode 13 or greater</text>
  <text id="descriptive-name" style="stroke:none;fill:black;font-family:sans-serif;font-size:13;text-anchor:end;" transform="matrix(1 0 0 1 3036 1969)">Generated from chevrons-left</text>
  <text style="stroke:none;fill:black;font-family:sans-serif;font-size:13;text-anchor:end;" transform="matrix(1 0 0 1 3036 1987)">Typeset at 100 points</text>
  <text style="stroke:none;fill:black;font-family:sans-serif;font-size:13;" transform="matrix(1 0 0 1 263 726)">Small</text>
  <text style="stroke:none;fill:black;font-family:sans-serif;font-size:13;" transform="matrix(1 0 0 1 263 1156)">Medium</text>
  <text style="stroke:none;fill:black;font-family:sans-serif;font-size:13;" transform="matrix(1 0 0 1 263 1586)">Large</text>
 </g>
 <g id="Guides">
  <g id="H-reference" style="fill:#27AAE1;stroke:none;" transform="matrix(1 0 0 1 339 696)">
   <path d="M0.976562 0L3.66211 0L29.3457-67.1387L30.0293-67.1387L30.0293-70.459L28.125-70.459ZM11.6699-24.4629L46.9727-24.4629L46.2402-26.709L12.4512-26.709ZM55.127 0L57.7637 0L30.6152-70.459L29.4434-70.459L29.4434-67.1387Z"/>
  </g>
  <line id="Baseline-S" style="fill:none;stroke:#27AAE1;opacity:1;stroke-width:0.5;" x1="263" x2="3036" y1="696" y2="696"/>
  <line id="Capline-S" style="fill:none;stroke:#27AAE1;opacity:1;stroke-width:0.5;" x1="263" x2="3036" y1="625.541" y2="625.541"/>
  <g id="H-reference" style="fill:#27AAE1;stroke:none;" transform="matrix(1 0 0 1 339 1126)">
   <path d="M0.976562 0L3.66211 0L29.3457-67.1387L30.0293-67.1387L30.0293-70.459L28.125-70.459ZM11.6699-24.4629L46.9727-24.4629L46.2402-26.709L12.4512-26.709ZM55.127 0L57.7637 0L30.6152-70.459L29.4434-70.459L29.4434-67.1387Z"/>
  </g>
  <line id="Baseline-M" style="fill:none;stroke:#27AAE1;opacity:1;stroke-width:0.5;" x1="263" x2="3036" y1="1126" y2="1126"/>
  <line id="Capline-M" style="fill:none;stroke:#27AAE1;opacity:1;stroke-width:0.5;" x1="263" x2="3036" y1="1055.54" y2="1055.54"/>
  <g id="H-reference" style="fill:#27AAE1;stroke:none;" transform="matrix(1 0 0 1 339 1556)">
   <path d="M0.976562 0L3.66211 0L29.3457-67.1387L30.0293-67.1387L30.0293-70.459L28.125-70.459ZM11.6699-24.4629L46.9727-24.4629L46.2402-26.709L12.4512-26.709ZM55.127 0L57.7637 0L30.6152-70.459L29.4434-70.459L29.4434-67.1387Z"/>
  </g>
  <line id="Baseline-L" style="fill:none;stroke:#27AAE1;opacity:1;stroke-width:0.5;" x1="263" x2="3036" y1="1556" y2="1556"/>
  <line id="Capline-L" style="fill:none;stroke:#27AAE1;opacity:1;stroke-width:0.5;" x1="263" x2="3036" y1="1485.54" y2="1485.54"/>
  <line id="left-margin-Regular-M" style="fill:none;stroke:#00AEEF;stroke-width:0.5;opacity:1.0;" x1="1393.13" x2="1393.13" y1="1030.78" y2="1150.12"/>
  <line id="right-margin-Regular-M" style="fill:none;stroke:#00AEEF;stroke-width:0.5;opacity:1.0;" x1="1506.56" x2="1506.56" y1="1030.78" y2="1150.12"/>
 </g>
 <g id="Symbols">
  <g id="Black-L" transform="matrix(1 0 0 1 2865.74 1556)">
   <path class="hierarchical-0:secondary SFSymbolsPreview4D4D4D" d="M106.963-70.075C109.733-67.305 109.733-62.805 106.963-60.035L83.5425-36.615L106.963-13.195C109.733-10.425 109.733-5.925 106.963-3.155C104.183-0.385 99.6925-0.385 96.9225-3.155L68.4825-31.595C65.7125-34.365 65.7125-38.865 68.4825-41.635L96.9225-70.075C99.6925-72.845 104.183-72.845 106.963-70.075Z"/>
   <path class="hierarchical-1:primary SFSymbolsPreview212121" d="M67.1425-70.075C69.9225-67.305 69.9225-62.805 67.1425-60.035L43.7325-36.615L67.1425-13.195C69.9225-10.425 69.9225-5.925 67.1425-3.155C64.3725-0.385 59.8825-0.385 57.1025-3.155L28.6725-31.595C25.8925-34.365 25.8925-38.865 28.6725-41.635L57.1025-70.075C59.8825-72.845 64.3725-72.845 67.1425-70.075Z"/>
  </g>
  <g id="Heavy-L" transform="matrix(1 0 0 1 2569.88 1556)">
   <path class="hierarchical-0:secondary SFSymbolsPreview4D4D4D" d="M105.508-69.31C107.948-66.87 107.948-62.91 105.508-60.47L81.4875-36.45L105.508-12.43C107.948-9.99 107.948-6.03 105.508-3.59C103.068-1.15 99.1075-1.15 96.6675-3.59L68.2375-32.03C65.7875-34.47 65.7875-38.43 68.2375-40.87L96.6675-69.31C99.1075-71.75 103.068-71.75 105.508-69.31Z"/>
   <path class="hierarchical-1:primary SFSymbolsPreview212121" d="M65.6975-69.31C68.1375-66.87 68.1375-62.91 65.6975-60.47L41.6775-36.45L65.6975-12.43C68.1375-9.99 68.1375-6.03 65.6975-3.59C63.2575-1.15 59.2975-1.15 56.8575-3.59L28.4175-32.03C25.9775-34.47 25.9775-38.43 28.4175-40.87L56.8575-69.31C59.2975-71.75 63.2575-71.75 65.6975-69.31Z"/>
  </g>
  <g id="Bold-L" transform="matrix(1 0 0 1 2274.12 1556)">
   <path class="hierarchical-0:secondary SFSymbolsPreview4D4D4D" d="M103.89-68.455C105.96-66.385 105.96-63.025 103.89-60.955L79.2-36.265L103.89-11.575C105.96-9.505 105.96-6.155 103.89-4.085C101.82-2.015 98.46-2.015 96.39-4.085L67.95-32.515C65.88-34.585 65.88-37.945 67.95-40.015L96.39-68.455C98.46-70.525 101.82-70.525 103.89-68.455Z"/>
   <path class="hierarchical-1:primary SFSymbolsPreview212121" d="M64.07-68.455C66.14-66.385 66.14-63.025 64.07-60.955L39.38-36.265L64.07-11.575C66.14-9.505 66.14-6.155 64.07-4.085C62-2.015 58.65-2.015 56.58-4.085L28.14-32.515C26.07-34.585 26.07-37.945 28.14-40.015L56.58-68.455C58.65-70.525 62-70.525 64.07-68.455Z"/>
  </g>
  <g id="Semibold-L" transform="matrix(1 0 0 1 1978.06 1556)">
   <path class="hierarchical-0:secondary SFSymbolsPreview4D4D4D" d="M102.773-67.865C104.592-66.045 104.592-63.105 102.773-61.285L77.6225-36.135L102.773-10.985C104.592-9.175 104.592-6.225 102.773-4.415C100.963-2.595 98.0125-2.595 96.2025-4.415L67.7625-32.845C65.9425-34.665 65.9425-37.605 67.7625-39.425L96.2025-67.865C98.0125-69.675 100.963-69.675 102.773-67.865Z"/>
   <path class="hierarchical-1:primary SFSymbolsPreview212121" d="M62.9625-67.865C64.7825-66.045 64.7825-63.105 62.9625-61.285L37.8125-36.135L62.9625-10.985C64.7825-9.175 64.7825-6.225 62.9625-4.415C61.1425-2.595 58.2025-2.595 56.3825-4.415L27.9525-32.845C26.1325-34.665 26.1325-37.605 27.9525-39.425L56.3825-67.865C58.2025-69.675 61.1425-69.675 62.9625-67.865Z"/>
  </g>
  <g id="Medium-L" transform="matrix(1 0 0 1 1681.85 1556)">
   <path class="hierarchical-0:secondary SFSymbolsPreview4D4D4D" d="M101.923-67.41C103.543-65.79 103.543-63.16 101.923-61.54L76.4225-36.04L101.923-10.54C103.543-8.92 103.543-6.29 101.923-4.67C100.303-3.05 97.6725-3.05 96.0525-4.67L67.6125-33.11C65.9925-34.73 65.9925-37.35 67.6125-38.98L96.0525-67.41C97.6725-69.03 100.303-69.03 101.923-67.41Z"/>
   <path class="hierarchical-1:primary SFSymbolsPreview212121" d="M62.1125-67.41C63.7325-65.79 63.7325-63.16 62.1125-61.54L36.6025-36.04L62.1125-10.54C63.7325-8.92 63.7325-6.29 62.1125-4.67C60.4925-3.05 57.8625-3.05 56.2425-4.67L27.8025-33.11C26.1825-34.73 26.1825-37.35 27.8025-38.98L56.2425-67.41C57.8625-69.03 60.4925-69.03 62.1125-67.41Z"/>
  </g>
  <g id="Regular-L" transform="matrix(1 0 0 1 1385.78 1556)">
   <path class="hierarchical-0:secondary SFSymbolsPreview4D4D4D" d="M100.815-66.825C102.185-65.465 102.185-63.245 100.815-61.875L74.855-35.915L100.815-9.955C102.185-8.585 102.185-6.365 100.815-5.005C99.445-3.635 97.235-3.635 95.865-5.005L67.425-33.445C66.065-34.805 66.065-37.025 67.425-38.395L95.865-66.825C97.235-68.195 99.445-68.195 100.815-66.825Z"/>
   <path class="hierarchical-1:primary SFSymbolsPreview212121" d="M61.005-66.825C62.365-65.465 62.365-63.245 61.005-61.875L35.035-35.915L61.005-9.955C62.365-8.585 62.365-6.365 61.005-5.005C59.635-3.635 57.415-3.635 56.055-5.005L27.615-33.445C26.245-34.805 26.245-37.025 27.615-38.395L56.055-66.825C57.415-68.195 59.635-68.195 61.005-66.825Z"/>
  </g>
  <g id="Light-L" transform="matrix(1 0 0 1 1089.87 1556)">
   <path class="hierarchical-0:secondary SFSymbolsPreview4D4D4D" d="M99.4425-66.105C100.503-65.045 100.503-63.335 99.4425-62.285L72.9225-35.755L99.4425-9.225C100.503-8.175 100.503-6.465 99.4425-5.405C98.3925-4.355 96.6825-4.355 95.6325-5.405L67.1925-33.845C66.1325-34.895 66.1325-36.605 67.1925-37.665L95.6325-66.105C96.6825-67.155 98.3925-67.155 99.4425-66.105Z"/>
   <path class="hierarchical-1:primary SFSymbolsPreview212121" d="M59.6325-66.105C60.6925-65.045 60.6925-63.335 59.6325-62.285L33.1025-35.755L59.6325-9.225C60.6925-8.175 60.6925-6.465 59.6325-5.405C58.5825-4.355 56.8725-4.355 55.8125-5.405L27.3825-33.845C26.3225-34.895 26.3225-36.605 27.3825-37.665L55.8125-66.105C56.8725-67.155 58.5825-67.155 59.6325-66.105Z"/>
  </g>
  <g id="Thin-L" transform="matrix(1 0 0 1 794.212 1556)">
   <path class="hierarchical-0:secondary SFSymbolsPreview4D4D4D" d="M97.6535-65.16C98.2985-64.51 98.2985-63.47 97.6535-62.82L70.3835-35.55L97.6535-8.28C98.2985-7.64 98.2985-6.59 97.6535-5.95C97.0095-5.3 95.9645-5.3 95.3205-5.95L66.8825-34.38C66.2385-35.03 66.2385-36.07 66.8825-36.72L95.3205-65.16C95.9645-65.8 97.0095-65.8 97.6535-65.16Z"/>
   <path class="hierarchical-1:primary SFSymbolsPreview212121" d="M57.8415-65.16C58.4855-64.51 58.4855-63.47 57.8415-62.82L30.5705-35.55L57.8415-8.28C58.4855-7.64 58.4855-6.59 57.8415-5.95C57.1965-5.3 56.1525-5.3 55.5075-5.95L27.0705-34.38C26.4265-35.03 26.4265-36.07 27.0705-36.72L55.5075-65.16C56.1525-65.8 57.1965-65.8 57.8415-65.16Z"/>
  </g>
  <g id="Ultralight-L" transform="matrix(1 0 0 1 498.051 1556)">
   <path class="hierarchical-0:secondary SFSymbolsPreview4D4D4D" d="M96.715-64.66C97.145-64.23 97.145-63.53 96.715-63.1L69.056-35.44L96.715-7.78C97.145-7.35 97.145-6.65 96.715-6.22C96.286-5.8 95.589-5.8 95.16-6.22L66.722-34.66C66.292-35.09 66.292-35.79 66.722-36.22L95.16-64.66C95.589-65.08 96.286-65.08 96.715-64.66Z"/>
   <path class="hierarchical-1:primary SFSymbolsPreview212121" d="M56.903-64.66C57.332-64.23 57.332-63.53 56.903-63.1L29.243-35.44L56.903-7.78C57.332-7.35 57.332-6.65 56.903-6.22C56.473-5.8 55.777-5.8 55.347-6.22L26.91-34.66C26.48-35.09 26.48-35.79 26.91-36.22L55.347-64.66C55.777-65.08 56.473-65.08 56.903-64.66Z"/>
  </g>
  <g id="Black-M" transform="matrix(1 0 0 1 2873.09 1126)">
   <path class="hierarchical-0:secondary SFSymbolsPreview4D4D4D" d="M92.255-63.95C95.025-61.18 95.025-56.68 92.255-53.91L74.965-36.62L92.255-19.33C95.025-16.56 95.025-12.06 92.255-9.29C89.485-6.51 84.985-6.51 82.215-9.29L59.905-31.6C58.575-32.93 57.825-34.74 57.825-36.62C57.825-38.5 58.575-40.31 59.905-41.64L82.215-63.95C84.985-66.73 89.485-66.73 92.255-63.95Z"/>
   <path class="hierarchical-1:primary SFSymbolsPreview212121" d="M61.015-63.95C63.785-61.18 63.785-56.68 61.015-53.91L43.725-36.62L61.015-19.33C63.785-16.56 63.785-12.06 61.015-9.29C58.245-6.51 53.745-6.51 50.975-9.29L28.665-31.6C25.895-34.37 25.895-38.87 28.665-41.64L50.975-63.95C53.745-66.73 58.245-66.73 61.015-63.95Z"/>
  </g>
  <g id="Heavy-M" transform="matrix(1 0 0 1 2577.23 1126)">
   <path class="hierarchical-0:secondary SFSymbolsPreview4D4D4D" d="M90.8075-63.18C93.2475-60.74 93.2475-56.78 90.8075-54.34L72.9175-36.45L90.8075-18.56C93.2475-16.12 93.2475-12.16 90.8075-9.72C88.3675-7.28 84.4075-7.28 81.9675-9.72L59.6575-32.03C58.4775-33.2 57.8275-34.79 57.8275-36.45C57.8275-38.11 58.4775-39.7 59.6575-40.87L81.9675-63.18C84.4075-65.62 88.3675-65.62 90.8075-63.18Z"/>
   <path class="hierarchical-1:primary SFSymbolsPreview212121" d="M59.5675-63.18C62.0075-60.74 62.0075-56.78 59.5675-54.34L41.6775-36.45L59.5675-18.56C62.0075-16.12 62.0075-12.16 59.5675-9.72C57.1275-7.28 53.1675-7.28 50.7275-9.72L28.4175-32.03C25.9775-34.47 25.9775-38.43 28.4175-40.87L50.7275-63.18C53.1675-65.62 57.1275-65.62 59.5675-63.18Z"/>
  </g>
  <g id="Bold-M" transform="matrix(1 0 0 1 2281.47 1126)">
   <path class="hierarchical-0:secondary SFSymbolsPreview4D4D4D" d="M89.19-62.325C91.26-60.255 91.26-56.895 89.19-54.825L70.62-36.265L89.19-17.695C91.26-15.625 91.26-12.275 89.19-10.205C87.12-8.135 83.76-8.135 81.69-10.205L59.38-32.515C58.39-33.515 57.83-34.855 57.83-36.265C57.83-37.665 58.39-39.015 59.38-40.015L81.69-62.325C83.76-64.395 87.12-64.395 89.19-62.325Z"/>
   <path class="hierarchical-1:primary SFSymbolsPreview212121" d="M57.95-62.325C60.02-60.255 60.02-56.895 57.95-54.825L39.39-36.265L57.95-17.695C60.02-15.625 60.02-12.275 57.95-10.205C55.88-8.135 52.53-8.135 50.46-10.205L28.14-32.515C26.07-34.585 26.07-37.945 28.14-40.015L50.46-62.325C52.53-64.395 55.88-64.395 57.95-62.325Z"/>
  </g>
  <g id="Semibold-M" transform="matrix(1 0 0 1 1985.41 1126)">
   <path class="hierarchical-0:secondary SFSymbolsPreview4D4D4D" d="M88.0725-61.74C89.8925-59.92 89.8925-56.98 88.0725-55.16L69.0525-36.14L88.0725-17.11C89.8925-15.3 89.8925-12.35 88.0725-10.54C86.2625-8.72 83.3125-8.72 81.5025-10.54L59.1825-32.85C58.3125-33.72 57.8225-34.91 57.8225-36.14C57.8225-37.37 58.3125-38.55 59.1825-39.43L81.5025-61.74C83.3125-63.56 86.2625-63.56 88.0725-61.74Z"/>
   <path class="hierarchical-1:primary SFSymbolsPreview212121" d="M56.8325-61.74C58.6525-59.92 58.6525-56.98 56.8325-55.16L37.8125-36.14L56.8325-17.11C58.6525-15.3 58.6525-12.35 56.8325-10.54C55.0225-8.72 52.0725-8.72 50.2625-10.54L27.9525-32.85C26.1325-34.67 26.1325-37.61 27.9525-39.43L50.2625-61.74C52.0725-63.56 55.0225-63.56 56.8325-61.74Z"/>
  </g>
  <g id="Medium-M" transform="matrix(1 0 0 1 1689.2 1126)">
   <path class="hierarchical-0:secondary SFSymbolsPreview4D4D4D" d="M87.2225-61.29C88.8425-59.67 88.8425-57.04 87.2225-55.42L67.8425-36.04L87.2225-16.66C88.8425-15.04 88.8425-12.41 87.2225-10.79C85.6025-9.17 82.9725-9.17 81.3525-10.79L59.0425-33.1C58.2625-33.88 57.8225-34.94 57.8225-36.04C57.8225-37.14 58.2625-38.2 59.0425-38.97L81.3525-61.29C82.9725-62.91 85.6025-62.91 87.2225-61.29Z"/>
   <path class="hierarchical-1:primary SFSymbolsPreview212121" d="M55.9825-61.29C57.6025-59.67 57.6025-57.04 55.9825-55.42L36.6025-36.04L55.9825-16.66C57.6025-15.04 57.6025-12.41 55.9825-10.79C54.3625-9.17 51.7325-9.17 50.1125-10.79L27.8025-33.1C26.1825-34.73 26.1825-37.35 27.8025-38.97L50.1125-61.29C51.7325-62.91 54.3625-62.91 55.9825-61.29Z"/>
  </g>
  <g id="Regular-M" transform="matrix(1 0 0 1 1393.13 1126)">
   <path class="hierarchical-0:secondary SFSymbolsPreview4D4D4D" d="M86.115-60.7C87.485-59.33 87.485-57.11 86.115-55.75L66.275-35.91L86.115-16.07C87.485-14.7 87.485-12.49 86.115-11.12C84.745-9.75 82.535-9.75 81.165-11.12L58.855-33.43C58.195-34.09 57.825-34.98 57.825-35.91C57.825-36.84 58.195-37.73 58.855-38.38L81.165-60.7C82.535-62.06 84.745-62.06 86.115-60.7Z"/>
   <path class="hierarchical-1:primary SFSymbolsPreview212121" d="M54.875-60.7C56.245-59.33 56.245-57.11 54.875-55.75L35.035-35.91L54.875-16.07C56.245-14.7 56.245-12.49 54.875-11.12C53.515-9.75 51.295-9.75 49.925-11.12L27.615-33.43C26.245-34.8 26.245-37.02 27.615-38.38L49.925-60.7C51.295-62.06 53.515-62.06 54.875-60.7Z"/>
  </g>
  <g id="Light-M" transform="matrix(1 0 0 1 1097.22 1126)">
   <path class="hierarchical-0:secondary SFSymbolsPreview4D4D4D" d="M84.7425-59.975C85.8025-58.925 85.8025-57.215 84.7425-56.155L64.3425-35.755L84.7425-15.345C85.8025-14.295 85.8025-12.585 84.7425-11.535C83.6925-10.475 81.9825-10.475 80.9325-11.535L58.6125-33.845C58.1125-34.345 57.8225-35.035 57.8225-35.755C57.8225-36.465 58.1125-37.155 58.6125-37.665L80.9325-59.975C81.9825-61.025 83.6925-61.025 84.7425-59.975Z"/>
   <path class="hierarchical-1:primary SFSymbolsPreview212121" d="M53.5125-59.975C54.5625-58.925 54.5625-57.215 53.5125-56.155L33.1025-35.755L53.5125-15.345C54.5625-14.295 54.5625-12.585 53.5125-11.535C52.4525-10.475 50.7425-10.475 49.6925-11.535L27.3825-33.845C26.3225-34.895 26.3225-36.605 27.3825-37.665L49.6925-59.975C50.7425-61.025 52.4525-61.025 53.5125-59.975Z"/>
  </g>
  <g id="Thin-M" transform="matrix(1 0 0 1 801.562 1126)">
   <path class="hierarchical-0:secondary SFSymbolsPreview4D4D4D" d="M82.9555-59.03C83.5995-58.38 83.5995-57.34 82.9555-56.69L61.8095-35.55L82.9555-14.4C83.5995-13.76 83.5995-12.71 82.9555-12.07C82.3105-11.43 81.2665-11.43 80.6215-12.07L58.3095-34.38C57.9995-34.69 57.8255-35.11 57.8255-35.55C57.8255-35.99 57.9995-36.41 58.3095-36.72L80.6215-59.03C81.2665-59.67 82.3105-59.67 82.9555-59.03Z"/>
   <path class="hierarchical-1:primary SFSymbolsPreview212121" d="M51.7165-59.03C52.3615-58.38 52.3615-57.34 51.7165-56.69L30.5715-35.55L51.7165-14.4C52.3615-13.76 52.3615-12.71 51.7165-12.07C51.0725-11.43 50.0275-11.43 49.3835-12.07L27.0705-34.38C26.4265-35.03 26.4265-36.07 27.0705-36.72L49.3835-59.03C50.0275-59.67 51.0725-59.67 51.7165-59.03Z"/>
  </g>
  <g id="Ultralight-M" transform="matrix(1 0 0 1 505.401 1126)">
   <path class="hierarchical-0:secondary SFSymbolsPreview4D4D4D" d="M82.0162-58.535C82.4452-58.105 82.4452-57.405 82.0162-56.975L60.4812-35.445L82.0162-13.905C82.4452-13.475 82.4452-12.785 82.0162-12.355C81.5862-11.925 80.8902-11.925 80.4602-12.355L58.1472-34.665C57.9412-34.875 57.8253-35.155 57.8253-35.445C57.8253-35.735 57.9412-36.015 58.1472-36.225L80.4602-58.535C80.8902-58.965 81.5862-58.965 82.0162-58.535Z"/>
   <path class="hierarchical-1:primary SFSymbolsPreview212121" d="M50.7773-58.535C51.2072-58.105 51.2072-57.405 50.7773-56.975L29.2433-35.445L50.7773-13.905C51.2072-13.475 51.2072-12.785 50.7773-12.355C50.3482-11.925 49.6512-11.925 49.2222-12.355L26.9093-34.665C26.4803-35.095 26.4803-35.795 26.9093-36.225L49.2222-58.535C49.6512-58.965 50.3482-58.965 50.7773-58.535Z"/>
  </g>
  <g id="Black-S" transform="matrix(1 0 0 1 2878.87 696)">
   <path class="hierarchical-0:secondary SFSymbolsPreview4D4D4D" d="M80.705-59.2386C83.475-56.4655 83.475-51.9705 80.705-49.1976L68.225-36.7186L80.705-24.2386C83.475-21.4655 83.475-16.9705 80.705-14.1976C77.935-11.4246 73.435-11.4246 70.665-14.1976L53.165-31.6976C50.395-34.4705 50.395-38.9655 53.165-41.7386L70.665-59.2386C73.435-62.0116 77.935-62.0116 80.705-59.2386Z"/>
   <path class="hierarchical-1:primary SFSymbolsPreview212121" d="M56.205-59.2386C58.975-56.4655 58.975-51.9705 56.205-49.1976L43.725-36.7186L56.205-24.2386C58.975-21.4655 58.975-16.9705 56.205-14.1976C53.435-11.4246 48.935-11.4246 46.165-14.1976L28.665-31.6976C25.895-34.4705 25.895-38.9655 28.665-41.7386L46.165-59.2386C48.935-62.0116 53.435-62.0116 56.205-59.2386Z"/>
  </g>
  <g id="Heavy-S" transform="matrix(1 0 0 1 2583 696)">
   <path class="hierarchical-0:secondary SFSymbolsPreview4D4D4D" d="M79.2575-58.4715C81.6975-56.0314 81.6975-52.0734 79.2575-49.6334L66.1775-36.5524L79.2575-23.4715C81.6975-21.0314 81.6975-17.0734 79.2575-14.6334C76.8175-12.1925 72.8575-12.1925 70.4175-14.6334L52.9175-32.1334C50.4775-34.5734 50.4775-38.5314 52.9175-40.9715L70.4175-58.4715C72.8575-60.9124 76.8175-60.9124 79.2575-58.4715Z"/>
   <path class="hierarchical-1:primary SFSymbolsPreview212121" d="M54.7575-58.4715C57.1975-56.0314 57.1975-52.0734 54.7575-49.6334L41.6775-36.5524L54.7575-23.4715C57.1975-21.0314 57.1975-17.0734 54.7575-14.6334C52.3175-12.1925 48.3575-12.1925 45.9175-14.6334L28.4175-32.1334C25.9775-34.5734 25.9775-38.5314 28.4175-40.9715L45.9175-58.4715C48.3575-60.9124 52.3175-60.9124 54.7575-58.4715Z"/>
  </g>
  <g id="Bold-S" transform="matrix(1 0 0 1 2287.25 696)">
   <path class="hierarchical-0:secondary SFSymbolsPreview4D4D4D" d="M77.63-57.41C79.7-55.341 79.7-51.985 77.63-49.915L63.88-36.163L77.63-22.41C79.7-20.341 79.7-16.985 77.63-14.915C75.56-12.845 72.21-12.845 70.14-14.915L52.64-32.415C50.57-34.485 50.57-37.841 52.64-39.91L70.14-57.41C72.21-59.48 75.56-59.48 77.63-57.41Z"/>
   <path class="hierarchical-1:primary SFSymbolsPreview212121" d="M53.13-57.41C55.2-55.341 55.2-51.985 53.13-49.915L39.38-36.163L53.13-22.41C55.2-20.341 55.2-16.985 53.13-14.915C51.06-12.845 47.71-12.845 45.64-14.915L28.14-32.415C26.07-34.485 26.07-37.841 28.14-39.91L45.64-57.41C47.71-59.48 51.06-59.48 53.13-57.41Z"/>
  </g>
  <g id="Semibold-S" transform="matrix(1 0 0 1 1991.18 696)">
   <path class="hierarchical-0:secondary SFSymbolsPreview4D4D4D" d="M76.525-56.823C78.335-55.007 78.335-52.063 76.525-50.247L62.315-36.035L76.525-21.823C78.335-20.007 78.335-17.063 76.525-15.247C74.705-13.431 71.765-13.431 69.945-15.247L52.445-32.747C50.635-34.563 50.635-37.507 52.445-39.323L69.945-56.823C71.765-58.639 74.705-58.639 76.525-56.823Z"/>
   <path class="hierarchical-1:primary SFSymbolsPreview212121" d="M52.025-56.823C53.835-55.007 53.835-52.063 52.025-50.247L37.815-36.035L52.025-21.823C53.835-20.007 53.835-17.063 52.025-15.247C50.205-13.431 47.265-13.431 45.445-15.247L27.945-32.747C26.135-34.563 26.135-37.507 27.945-39.323L45.445-56.823C47.265-58.639 50.205-58.639 52.025-56.823Z"/>
  </g>
  <g id="Medium-S" transform="matrix(1 0 0 1 1694.97 696)">
   <path class="hierarchical-0:secondary SFSymbolsPreview4D4D4D" d="M75.67-56.3726C77.29-54.7516 77.29-52.1245 75.67-50.5036L61.11-35.9375L75.67-21.3726C77.29-19.7516 77.29-17.1245 75.67-15.5036C74.05-13.8826 71.43-13.8826 69.81-15.5036L52.31-33.0036C50.68-34.6245 50.68-37.2516 52.31-38.8726L69.81-56.3726C71.43-57.9936 74.05-57.9936 75.67-56.3726Z"/>
   <path class="hierarchical-1:primary SFSymbolsPreview212121" d="M51.17-56.3726C52.79-54.7516 52.79-52.1245 51.17-50.5036L36.61-35.9375L51.17-21.3726C52.79-19.7516 52.79-17.1245 51.17-15.5036C49.55-13.8826 46.93-13.8826 45.31-15.5036L27.81-33.0036C26.18-34.6245 26.18-37.2516 27.81-38.8726L45.31-56.3726C46.93-57.9936 49.55-57.9936 51.17-56.3726Z"/>
  </g>
  <g id="Regular-S" transform="matrix(1 0 0 1 1398.91 696)">
   <path class="hierarchical-0:secondary SFSymbolsPreview4D4D4D" d="M74.555-55.7856C75.925-54.4186 75.925-52.2026 74.555-50.8356L59.535-35.8106L74.555-20.7856C75.925-19.4186 75.925-17.2026 74.555-15.8356C73.195-14.4686 70.975-14.4686 69.615-15.8356L52.115-33.3356C50.745-34.7026 50.745-36.9186 52.115-38.2856L69.615-55.7856C70.975-57.1526 73.195-57.1526 74.555-55.7856Z"/>
   <path class="hierarchical-1:primary SFSymbolsPreview212121" d="M50.055-55.7856C51.425-54.4186 51.425-52.2026 50.055-50.8356L35.035-35.8106L50.055-20.7856C51.425-19.4186 51.425-17.2026 50.055-15.8356C48.695-14.4686 46.475-14.4686 45.115-15.8356L27.615-33.3356C26.245-34.7026 26.245-36.9186 27.615-38.2856L45.115-55.7856C46.475-57.1526 48.695-57.1526 50.055-55.7856Z"/>
  </g>
  <g id="Light-S" transform="matrix(1 0 0 1 1103 696)">
   <path class="hierarchical-0:secondary SFSymbolsPreview4D4D4D" d="M73.195-55.0625C74.245-54.0084 74.245-52.2985 73.195-51.2444L57.605-35.6534L73.195-20.0625C74.245-19.0084 74.245-17.2985 73.195-16.2444C72.145-15.1904 70.435-15.1904 69.375-16.2444L51.875-33.7444C50.825-34.7985 50.825-36.5084 51.875-37.5625L69.375-55.0625C70.435-56.1174 72.145-56.1174 73.195-55.0625Z"/>
   <path class="hierarchical-1:primary SFSymbolsPreview212121" d="M48.695-55.0625C49.745-54.0084 49.745-52.2985 48.695-51.2444L33.105-35.6534L48.695-20.0625C49.745-19.0084 49.745-17.2985 48.695-16.2444C47.645-15.1904 45.935-15.1904 44.875-16.2444L27.375-33.7444C26.325-34.7985 26.325-36.5084 27.375-37.5625L44.875-55.0625C45.935-56.1174 47.645-56.1174 48.695-55.0625Z"/>
  </g>
  <g id="Thin-S" transform="matrix(1 0 0 1 807.337 696)">
   <path class="hierarchical-0:secondary SFSymbolsPreview4D4D4D" d="M71.4035-54.116C72.0485-53.472 72.0485-52.427 71.4035-51.783L55.0705-35.449L71.4035-19.116C72.0485-18.472 72.0485-17.427 71.4035-16.783C70.7595-16.138 69.7145-16.138 69.0705-16.783L51.5705-34.283C50.9265-34.927 50.9265-35.972 51.5705-36.616L69.0705-54.116C69.7145-54.76 70.7595-54.76 71.4035-54.116Z"/>
   <path class="hierarchical-1:primary SFSymbolsPreview212121" d="M46.9035-54.116C47.5485-53.472 47.5485-52.427 46.9035-51.783L30.5705-35.449L46.9035-19.116C47.5485-18.472 47.5485-17.427 46.9035-16.783C46.2595-16.138 45.2145-16.138 44.5705-16.783L27.0705-34.283C26.4265-34.927 26.4265-35.972 27.0705-36.616L44.5705-54.116C45.2145-54.76 46.2595-54.76 46.9035-54.116Z"/>
  </g>
  <g id="Ultralight-S" transform="matrix(1 0 0 1 511.176 696)">
   <path class="hierarchical-0:secondary SFSymbolsPreview4D4D4D" d="M70.465-53.619C70.895-53.19 70.895-52.493 70.465-52.064L53.743-35.342L70.465-18.619C70.895-18.19 70.895-17.493 70.465-17.064C70.036-16.634 69.339-16.634 68.91-17.064L51.41-34.564C50.98-34.993 50.98-35.69 51.41-36.119L68.91-53.619C69.339-54.049 70.036-54.049 70.465-53.619Z"/>
   <path class="hierarchical-1:primary SFSymbolsPreview212121" d="M45.965-53.619C46.395-53.19 46.395-52.493 45.965-52.064L29.243-35.342L45.965-18.619C46.395-18.19 46.395-17.493 45.965-17.064C45.536-16.634 44.839-16.634 44.41-17.064L26.91-34.564C26.48-34.993 26.48-35.69 26.91-36.119L44.41-53.619C44.839-54.049 45.536-54.049 45.965-53.619Z"/>
  </g>
 </g>
</svg>
