<?xml version="1.0" encoding="UTF-8"?>
<!--Generator: Apple Native CoreSVG 175-->
<!DOCTYPE svg
PUBLIC "-//W3C//DTD SVG 1.1//EN"
       "http://www.w3.org/Graphics/SVG/1.1/DTD/svg11.dtd">
<svg version="1.1" xmlns="http://www.w3.org/2000/svg" xmlns:xlink="http://www.w3.org/1999/xlink" width="3300" height="2200">
 <!--glyph: "", point size: 100.0, font version: "17.0d12e1", template writer version: "65.1"-->
 <style>.hierarchical-0:primary {fill:#212121}
.hierarchical-1:secondary {fill:#4D4D4D}

.SFSymbolsPreview212121 {fill:#212121;opacity:1.0}
.SFSymbolsPreview4D4D4D {fill:#4D4D4D;opacity:1.0}
</style>
 <g id="Notes">
  <rect height="2200" id="artboard" style="fill:white;opacity:1" width="3300" x="0" y="0"/>
  <line style="fill:none;stroke:black;opacity:1;stroke-width:0.5;" x1="263" x2="3036" y1="292" y2="292"/>
  <text style="stroke:none;fill:black;font-family:sans-serif;font-size:13;font-weight:bold;" transform="matrix(1 0 0 1 263 322)">Weight/Scale Variations</text>
  <text style="stroke:none;fill:black;font-family:sans-serif;font-size:13;text-anchor:middle;" transform="matrix(1 0 0 1 559.711 322)">Ultralight</text>
  <text style="stroke:none;fill:black;font-family:sans-serif;font-size:13;text-anchor:middle;" transform="matrix(1 0 0 1 856.422 322)">Thin</text>
  <text style="stroke:none;fill:black;font-family:sans-serif;font-size:13;text-anchor:middle;" transform="matrix(1 0 0 1 1153.13 322)">Light</text>
  <text style="stroke:none;fill:black;font-family:sans-serif;font-size:13;text-anchor:middle;" transform="matrix(1 0 0 1 1449.84 322)">Regular</text>
  <text style="stroke:none;fill:black;font-family:sans-serif;font-size:13;text-anchor:middle;" transform="matrix(1 0 0 1 1746.56 322)">Medium</text>
  <text style="stroke:none;fill:black;font-family:sans-serif;font-size:13;text-anchor:middle;" transform="matrix(1 0 0 1 2043.27 322)">Semibold</text>
  <text style="stroke:none;fill:black;font-family:sans-serif;font-size:13;text-anchor:middle;" transform="matrix(1 0 0 1 2339.98 322)">Bold</text>
  <text style="stroke:none;fill:black;font-family:sans-serif;font-size:13;text-anchor:middle;" transform="matrix(1 0 0 1 2636.69 322)">Heavy</text>
  <text style="stroke:none;fill:black;font-family:sans-serif;font-size:13;text-anchor:middle;" transform="matrix(1 0 0 1 2933.4 322)">Black</text>
  <line style="fill:none;stroke:black;opacity:1;stroke-width:0.5;" x1="263" x2="3036" y1="1903" y2="1903"/>
  <g transform="matrix(1 0 0 1 263 1933)">
   <path d="M9.24805 0.830078Q10.8691 0.830078 12.2949 0.214844Q13.7207-0.400391 14.8096-1.49414Q15.8984-2.58789 16.5186-4.01367Q17.1387-5.43945 17.1387-7.05078Q17.1387-8.66211 16.5186-10.0879Q15.8984-11.5137 14.8047-12.6074Q13.7109-13.7012 12.2852-14.3164Q10.8594-14.9316 9.23828-14.9316Q7.62695-14.9316 6.20117-14.3164Q4.77539-13.7012 3.69141-12.6074Q2.60742-11.5137 1.9873-10.0879Q1.36719-8.66211 1.36719-7.05078Q1.36719-5.43945 1.9873-4.01367Q2.60742-2.58789 3.69629-1.49414Q4.78516-0.400391 6.21094 0.214844Q7.63672 0.830078 9.24805 0.830078ZM9.24805-0.654297Q7.91992-0.654297 6.7627-1.14746Q5.60547-1.64062 4.73145-2.51953Q3.85742-3.39844 3.36426-4.56055Q2.87109-5.72266 2.87109-7.05078Q2.87109-8.37891 3.35938-9.54102Q3.84766-10.7031 4.72168-11.582Q5.5957-12.4609 6.75293-12.9541Q7.91016-13.4473 9.23828-13.4473Q10.5762-13.4473 11.7334-12.9541Q12.8906-12.4609 13.7695-11.582Q14.6484-10.7031 15.1465-9.54102Q15.6445-8.37891 15.6445-7.05078Q15.6445-5.72266 15.1514-4.56055Q14.6582-3.39844 13.7842-2.51953Q12.9102-1.64062 11.748-1.14746Q10.5859-0.654297 9.24805-0.654297ZM5.6543-7.05078Q5.6543-6.72852 5.85938-6.52832Q6.06445-6.32812 6.40625-6.32812L8.51562-6.32812L8.51562-4.20898Q8.51562-3.88672 8.71094-3.67676Q8.90625-3.4668 9.23828-3.4668Q9.56055-3.4668 9.77051-3.67676Q9.98047-3.88672 9.98047-4.20898L9.98047-6.32812L12.0898-6.32812Q12.4219-6.32812 12.627-6.52832Q12.832-6.72852 12.832-7.05078Q12.832-7.38281 12.627-7.58789Q12.4219-7.79297 12.0898-7.79297L9.98047-7.79297L9.98047-9.90234Q9.98047-10.2344 9.77051-10.4443Q9.56055-10.6543 9.23828-10.6543Q8.90625-10.6543 8.71094-10.4443Q8.51562-10.2344 8.51562-9.90234L8.51562-7.79297L6.40625-7.79297Q6.06445-7.79297 5.85938-7.58789Q5.6543-7.38281 5.6543-7.05078Z"/>
  </g>
  <g transform="matrix(1 0 0 1 281.867 1933)">
   <path d="M11.709 2.91016Q13.75 2.91016 15.5518 2.12891Q17.3535 1.34766 18.7305-0.0292969Q20.1074-1.40625 20.8887-3.20801Q21.6699-5.00977 21.6699-7.05078Q21.6699-9.0918 20.8887-10.8936Q20.1074-12.6953 18.7305-14.0723Q17.3535-15.4492 15.5469-16.2305Q13.7402-17.0117 11.6992-17.0117Q9.6582-17.0117 7.85645-16.2305Q6.05469-15.4492 4.68262-14.0723Q3.31055-12.6953 2.5293-10.8936Q1.74805-9.0918 1.74805-7.05078Q1.74805-5.00977 2.5293-3.20801Q3.31055-1.40625 4.6875-0.0292969Q6.06445 1.34766 7.86621 2.12891Q9.66797 2.91016 11.709 2.91016ZM11.709 1.25Q9.98047 1.25 8.47656 0.605469Q6.97266-0.0390625 5.83496-1.17676Q4.69727-2.31445 4.05762-3.81836Q3.41797-5.32227 3.41797-7.05078Q3.41797-8.7793 4.05762-10.2832Q4.69727-11.7871 5.83008-12.9297Q6.96289-14.0723 8.4668-14.7119Q9.9707-15.3516 11.6992-15.3516Q13.4277-15.3516 14.9316-14.7119Q16.4355-14.0723 17.5781-12.9297Q18.7207-11.7871 19.3652-10.2832Q20.0098-8.7793 20.0098-7.05078Q20.0098-5.32227 19.3701-3.81836Q18.7305-2.31445 17.5928-1.17676Q16.4551-0.0390625 14.9463 0.605469Q13.4375 1.25 11.709 1.25ZM7.17773-7.05078Q7.17773-6.69922 7.41211-6.47461Q7.64648-6.25 8.01758-6.25L10.8887-6.25L10.8887-3.36914Q10.8887-2.99805 11.1133-2.76855Q11.3379-2.53906 11.6895-2.53906Q12.0605-2.53906 12.29-2.76855Q12.5195-2.99805 12.5195-3.36914L12.5195-6.25L15.4004-6.25Q15.7715-6.25 16.001-6.47461Q16.2305-6.69922 16.2305-7.05078Q16.2305-7.42188 16.001-7.65137Q15.7715-7.88086 15.4004-7.88086L12.5195-7.88086L12.5195-10.752Q12.5195-11.1328 12.29-11.3623Q12.0605-11.5918 11.6895-11.5918Q11.3379-11.5918 11.1133-11.3574Q10.8887-11.123 10.8887-10.752L10.8887-7.88086L8.01758-7.88086Q7.63672-7.88086 7.40723-7.65137Q7.17773-7.42188 7.17773-7.05078Z"/>
  </g>
  <g transform="matrix(1 0 0 1 305.646 1933)">
   <path d="M14.9707 5.66406Q17.0605 5.66406 18.96 5.01465Q20.8594 4.36523 22.4512 3.19336Q24.043 2.02148 25.2197 0.429688Q26.3965-1.16211 27.0459-3.06641Q27.6953-4.9707 27.6953-7.05078Q27.6953-9.14062 27.0459-11.04Q26.3965-12.9395 25.2197-14.5312Q24.043-16.123 22.4512-17.2998Q20.8594-18.4766 18.9551-19.126Q17.0508-19.7754 14.9609-19.7754Q12.8711-19.7754 10.9717-19.126Q9.07227-18.4766 7.48535-17.2998Q5.89844-16.123 4.72168-14.5312Q3.54492-12.9395 2.90039-11.04Q2.25586-9.14062 2.25586-7.05078Q2.25586-4.9707 2.90527-3.06641Q3.55469-1.16211 4.72656 0.429688Q5.89844 2.02148 7.49023 3.19336Q9.08203 4.36523 10.9814 5.01465Q12.8809 5.66406 14.9707 5.66406ZM14.9707 3.84766Q13.1641 3.84766 11.5283 3.2959Q9.89258 2.74414 8.53516 1.74805Q7.17773 0.751953 6.17676-0.610352Q5.17578-1.97266 4.62891-3.6084Q4.08203-5.24414 4.08203-7.05078Q4.08203-8.86719 4.62891-10.5029Q5.17578-12.1387 6.17188-13.501Q7.16797-14.8633 8.52539-15.8594Q9.88281-16.8555 11.5186-17.4023Q13.1543-17.9492 14.9609-17.9492Q16.7773-17.9492 18.4131-17.4023Q20.0488-16.8555 21.4111-15.8594Q22.7734-14.8633 23.7695-13.501Q24.7656-12.1387 25.3174-10.5029Q25.8691-8.86719 25.8691-7.05078Q25.8789-5.24414 25.332-3.6084Q24.7852-1.97266 23.7842-0.610352Q22.7832 0.751953 21.4209 1.74805Q20.0586 2.74414 18.4229 3.2959Q16.7871 3.84766 14.9707 3.84766ZM9.19922-7.05078Q9.19922-6.66992 9.45801-6.4209Q9.7168-6.17188 10.1172-6.17188L14.0625-6.17188L14.0625-2.2168Q14.0625-1.81641 14.3115-1.55762Q14.5605-1.29883 14.9512-1.29883Q15.3516-1.29883 15.6104-1.55273Q15.8691-1.80664 15.8691-2.2168L15.8691-6.17188L19.8242-6.17188Q20.2246-6.17188 20.4785-6.4209Q20.7324-6.66992 20.7324-7.05078Q20.7324-7.46094 20.4785-7.71484Q20.2246-7.96875 19.8242-7.96875L15.8691-7.96875L15.8691-11.9141Q15.8691-12.3242 15.6104-12.583Q15.3516-12.8418 14.9512-12.8418Q14.5605-12.8418 14.3115-12.583Q14.0625-12.3242 14.0625-11.9141L14.0625-7.96875L10.1172-7.96875Q9.70703-7.96875 9.45312-7.71484Q9.19922-7.46094 9.19922-7.05078Z"/>
  </g>
  <text style="stroke:none;fill:black;font-family:sans-serif;font-size:13;font-weight:bold;" transform="matrix(1 0 0 1 263 1953)">Design Variations</text>
  <text style="stroke:none;fill:black;font-family:sans-serif;font-size:13;" transform="matrix(1 0 0 1 263 1971)">Symbols are supported in up to nine weights and three scales.</text>
  <text style="stroke:none;fill:black;font-family:sans-serif;font-size:13;" transform="matrix(1 0 0 1 263 1989)">For optimal layout with text and other symbols, vertically align</text>
  <text style="stroke:none;fill:black;font-family:sans-serif;font-size:13;" transform="matrix(1 0 0 1 263 2007)">symbols with the adjacent text.</text>
  <line style="fill:none;stroke:#00AEEF;stroke-width:0.5;opacity:1.0;" x1="776" x2="776" y1="1919" y2="1933"/>
  <g transform="matrix(1 0 0 1 776 1933)">
   <path d="M3.31055 0.15625Q3.70117 0.15625 3.91602-0.00976562Q4.13086-0.175781 4.26758-0.585938L5.52734-4.0332L11.2891-4.0332L12.5488-0.585938Q12.6855-0.175781 12.9004-0.00976562Q13.1152 0.15625 13.4961 0.15625Q13.8867 0.15625 14.1162-0.0585938Q14.3457-0.273438 14.3457-0.644531Q14.3457-0.869141 14.2383-1.17188L9.6582-13.3691Q9.48242-13.8184 9.17969-14.043Q8.87695-14.2676 8.4082-14.2676Q7.5-14.2676 7.17773-13.3789L2.59766-1.16211Q2.49023-0.859375 2.49023-0.634766Q2.49023-0.263672 2.70996-0.0537109Q2.92969 0.15625 3.31055 0.15625ZM6.00586-5.51758L8.37891-12.0898L8.42773-12.0898L10.8008-5.51758Z"/>
  </g>
  <line style="fill:none;stroke:#00AEEF;stroke-width:0.5;opacity:1.0;" x1="793.197" x2="793.197" y1="1919" y2="1933"/>
  <text style="stroke:none;fill:black;font-family:sans-serif;font-size:13;font-weight:bold;" transform="matrix(1 0 0 1 776 1953)">Margins</text>
  <text style="stroke:none;fill:black;font-family:sans-serif;font-size:13;" transform="matrix(1 0 0 1 776 1971)">Leading and trailing margins on the left and right side of each symbol</text>
  <text style="stroke:none;fill:black;font-family:sans-serif;font-size:13;" transform="matrix(1 0 0 1 776 1989)">can be adjusted by modifying the x-location of the margin guidelines.</text>
  <text style="stroke:none;fill:black;font-family:sans-serif;font-size:13;" transform="matrix(1 0 0 1 776 2007)">Modifications are automatically applied proportionally to all</text>
  <text style="stroke:none;fill:black;font-family:sans-serif;font-size:13;" transform="matrix(1 0 0 1 776 2025)">scales and weights.</text>
  <g transform="matrix(1 0 0 1 1289 1933)">
   <path d="M2.8418 1.86523L4.54102 3.57422Q5.18555 4.22852 5.90332 4.17969Q6.62109 4.13086 7.31445 3.35938L18.0078-8.42773L17.041-9.4043L6.42578 2.27539Q6.16211 2.57812 5.89355 2.61719Q5.625 2.65625 5.27344 2.30469L4.10156 1.14258Q3.75 0.791016 3.79395 0.522461Q3.83789 0.253906 4.14062-0.0195312L15.6152-10.8203L14.6387-11.7871L3.04688-0.898438Q2.30469-0.214844 2.25098 0.498047Q2.19727 1.21094 2.8418 1.86523ZM9.25781-16.3281Q8.94531-16.0254 8.90625-15.6348Q8.86719-15.2441 9.04297-14.9512Q9.21875-14.6777 9.55566-14.541Q9.89258-14.4043 10.3809-14.5215Q11.4746-14.7754 12.5977-14.7314Q13.7207-14.6875 14.7949-13.9844L14.209-12.5293Q13.9551-11.9043 14.0674-11.4404Q14.1797-10.9766 14.5801-10.5664L16.875-8.25195Q17.2363-7.88086 17.5781-7.82227Q17.9199-7.76367 18.3398-7.8418L19.4043-8.03711L20.0684-7.36328L20.0293-6.80664Q20-6.43555 20.1221-6.12305Q20.2441-5.81055 20.6055-5.44922L21.3672-4.70703Q21.7285-4.3457 22.1533-4.33105Q22.5781-4.31641 22.9297-4.66797L25.8398-7.58789Q26.1914-7.93945 26.1816-8.35449Q26.1719-8.76953 25.8105-9.13086L25.0391-9.89258Q24.6875-10.2539 24.3799-10.3857Q24.0723-10.5176 23.7109-10.4883L23.1348-10.4395L22.4902-11.0742L22.7344-12.1973Q22.832-12.6172 22.6953-12.9834Q22.5586-13.3496 22.1191-13.7891L19.9219-15.9766Q18.6719-17.2168 17.2607-17.8369Q15.8496-18.457 14.4189-18.4814Q12.9883-18.5059 11.665-17.959Q10.3418-17.4121 9.25781-16.3281ZM10.752-15.957Q11.6602-16.6211 12.7002-16.9043Q13.7402-17.1875 14.8047-17.085Q15.8691-16.9824 16.8701-16.5137Q17.8711-16.0449 18.7012-15.2051L21.1328-12.793Q21.3086-12.6172 21.3525-12.4512Q21.3965-12.2852 21.3379-12.0312L21.0156-10.5469L22.5195-9.0625L23.5059-9.12109Q23.6914-9.13086 23.7891-9.09668Q23.8867-9.0625 24.0332-8.91602L24.6094-8.33984L22.168-5.89844L21.5918-6.47461Q21.4453-6.62109 21.4062-6.71875Q21.3672-6.81641 21.377-7.01172L21.4453-7.98828L19.9512-9.47266L18.4277-9.21875Q18.1836-9.16992 18.042-9.2041Q17.9004-9.23828 17.7148-9.41406L15.7129-11.416Q15.5176-11.5918 15.4932-11.7529Q15.4688-11.9141 15.5859-12.1875L16.4648-14.2773Q15.293-15.3711 13.8281-15.791Q12.3633-16.2109 10.8398-15.7617Q10.7227-15.7324 10.6885-15.8057Q10.6543-15.8789 10.752-15.957Z"/>
  </g>
  <text style="stroke:none;fill:black;font-family:sans-serif;font-size:13;font-weight:bold;" transform="matrix(1 0 0 1 1289 1953)">Exporting</text>
  <text style="stroke:none;fill:black;font-family:sans-serif;font-size:13;" transform="matrix(1 0 0 1 1289 1971)">Symbols should be outlined when exporting to ensure the</text>
  <text style="stroke:none;fill:black;font-family:sans-serif;font-size:13;" transform="matrix(1 0 0 1 1289 1989)">design is preserved when submitting to Xcode.</text>
  <text id="template-version" style="stroke:none;fill:black;font-family:sans-serif;font-size:13;text-anchor:end;" transform="matrix(1 0 0 1 3036 1933)">Template v.3.0</text>
  <text style="stroke:none;fill:black;font-family:sans-serif;font-size:13;text-anchor:end;" transform="matrix(1 0 0 1 3036 1951)">Requires Xcode 13 or greater</text>
  <text id="descriptive-name" style="stroke:none;fill:black;font-family:sans-serif;font-size:13;text-anchor:end;" transform="matrix(1 0 0 1 3036 1969)">Generated from volume-1</text>
  <text style="stroke:none;fill:black;font-family:sans-serif;font-size:13;text-anchor:end;" transform="matrix(1 0 0 1 3036 1987)">Typeset at 100 points</text>
  <text style="stroke:none;fill:black;font-family:sans-serif;font-size:13;" transform="matrix(1 0 0 1 263 726)">Small</text>
  <text style="stroke:none;fill:black;font-family:sans-serif;font-size:13;" transform="matrix(1 0 0 1 263 1156)">Medium</text>
  <text style="stroke:none;fill:black;font-family:sans-serif;font-size:13;" transform="matrix(1 0 0 1 263 1586)">Large</text>
 </g>
 <g id="Guides">
  <g id="H-reference" style="fill:#27AAE1;stroke:none;" transform="matrix(1 0 0 1 339 696)">
   <path d="M0.976562 0L3.66211 0L29.3457-67.1387L30.0293-67.1387L30.0293-70.459L28.125-70.459ZM11.6699-24.4629L46.9727-24.4629L46.2402-26.709L12.4512-26.709ZM55.127 0L57.7637 0L30.6152-70.459L29.4434-70.459L29.4434-67.1387Z"/>
  </g>
  <line id="Baseline-S" style="fill:none;stroke:#27AAE1;opacity:1;stroke-width:0.5;" x1="263" x2="3036" y1="696" y2="696"/>
  <line id="Capline-S" style="fill:none;stroke:#27AAE1;opacity:1;stroke-width:0.5;" x1="263" x2="3036" y1="625.541" y2="625.541"/>
  <g id="H-reference" style="fill:#27AAE1;stroke:none;" transform="matrix(1 0 0 1 339 1126)">
   <path d="M0.976562 0L3.66211 0L29.3457-67.1387L30.0293-67.1387L30.0293-70.459L28.125-70.459ZM11.6699-24.4629L46.9727-24.4629L46.2402-26.709L12.4512-26.709ZM55.127 0L57.7637 0L30.6152-70.459L29.4434-70.459L29.4434-67.1387Z"/>
  </g>
  <line id="Baseline-M" style="fill:none;stroke:#27AAE1;opacity:1;stroke-width:0.5;" x1="263" x2="3036" y1="1126" y2="1126"/>
  <line id="Capline-M" style="fill:none;stroke:#27AAE1;opacity:1;stroke-width:0.5;" x1="263" x2="3036" y1="1055.54" y2="1055.54"/>
  <g id="H-reference" style="fill:#27AAE1;stroke:none;" transform="matrix(1 0 0 1 339 1556)">
   <path d="M0.976562 0L3.66211 0L29.3457-67.1387L30.0293-67.1387L30.0293-70.459L28.125-70.459ZM11.6699-24.4629L46.9727-24.4629L46.2402-26.709L12.4512-26.709ZM55.127 0L57.7637 0L30.6152-70.459L29.4434-70.459L29.4434-67.1387Z"/>
  </g>
  <line id="Baseline-L" style="fill:none;stroke:#27AAE1;opacity:1;stroke-width:0.5;" x1="263" x2="3036" y1="1556" y2="1556"/>
  <line id="Capline-L" style="fill:none;stroke:#27AAE1;opacity:1;stroke-width:0.5;" x1="263" x2="3036" y1="1485.54" y2="1485.54"/>
  <line id="left-margin-Regular-M" style="fill:none;stroke:#00AEEF;stroke-width:0.5;opacity:1.0;" x1="1392.45" x2="1392.45" y1="1030.78" y2="1150.12"/>
  <line id="right-margin-Regular-M" style="fill:none;stroke:#00AEEF;stroke-width:0.5;opacity:1.0;" x1="1507.24" x2="1507.24" y1="1030.78" y2="1150.12"/>
 </g>
 <g id="Symbols">
  <g id="Black-L" transform="matrix(1 0 0 1 2863.22 1556)">
   <path class="hierarchical-0:primary SFSymbolsPreview212121" d="M88.51-61.361C91.29-64.131 95.78-64.131 98.56-61.351C105.22-54.691 108.96-45.651 108.96-36.231C108.96-26.811 105.22-17.771 98.56-11.101C95.78-8.331 91.29-8.331 88.51-11.101C85.74-13.881 85.74-18.371 88.51-21.141C92.51-25.151 94.76-30.571 94.76-36.231C94.76-41.891 92.51-47.311 88.51-51.321C85.74-54.091 85.74-58.581 88.51-61.361Z"/>
   <path class="hierarchical-1:secondary SFSymbolsPreview4D4D4D" d="M70.79-82.411C73.25-81.231 74.81-78.741 74.81-76.011L74.81 3.609C74.81 6.339 73.25 8.829 70.79 10.009C68.33 11.189 65.41 10.859 63.28 9.149L36.78-12.041L16.53-12.041C12.6-12.041 9.43-15.221 9.43-19.141L9.43-53.261C9.43-57.191 12.6-60.361 16.53-60.361L36.78-60.361L63.28-81.561C65.41-83.261 68.33-83.601 70.79-82.411ZM60.61-61.241L43.71-47.721C42.45-46.711 40.89-46.161 39.28-46.161L23.63-46.161L23.63-26.241L39.28-26.241C40.89-26.241 42.45-25.691 43.71-24.681L60.61-11.161L60.61-61.241Z"/>
  </g>
  <g id="Heavy-L" transform="matrix(1 0 0 1 2567.35 1556)">
   <path class="hierarchical-0:primary SFSymbolsPreview212121" d="M88.27-60.6324C90.71-63.0724 94.67-63.0724 97.11-60.6324C103.61-54.1324 107.27-45.3124 107.27-36.1124C107.27-26.9124 103.61-18.0924 97.11-11.5824C94.67-9.14238 90.71-9.14238 88.27-11.5824C85.83-14.0224 85.83-17.9824 88.27-20.4224C92.43-24.5824 94.77-30.2224 94.77-36.1124C94.77-41.9924 92.43-47.6324 88.27-51.7924C85.83-54.2424 85.83-58.1924 88.27-60.6324Z"/>
   <path class="hierarchical-1:secondary SFSymbolsPreview4D4D4D" d="M69.58-81.5324C71.74-80.4924 73.12-78.3024 73.12-75.8924L73.12 3.72762C73.12 6.12762 71.74 8.31762 69.58 9.36762C67.41 10.4076 64.84 10.1076 62.97 8.60762L36.24-12.7724L15.68-12.7724C12.23-12.7724 9.43-15.5724 9.43-19.0224L9.43-53.1424C9.43-56.5924 12.23-59.3924 15.68-59.3924L36.24-59.3924L62.97-80.7724C64.84-82.2724 67.41-82.5724 69.58-81.5324ZM60.62-62.8924L42.34-48.2624C41.23-47.3824 39.85-46.8924 38.43-46.8924L21.93-46.8924L21.93-25.2724L38.43-25.2724C39.85-25.2724 41.23-24.7824 42.34-23.9024L60.62-9.27238L60.62-62.8924Z"/>
  </g>
  <g id="Bold-L" transform="matrix(1 0 0 1 2271.59 1556)">
   <path class="hierarchical-0:primary SFSymbolsPreview212121" d="M87.99-59.823C90.06-61.893 93.42-61.893 95.49-59.823C101.81-53.493 105.37-44.913 105.37-35.973C105.37-27.023 101.81-18.443 95.49-12.123C93.42-10.0529 90.06-10.0529 87.99-12.123C85.92-14.183 85.92-17.543 87.99-19.613C92.33-23.953 94.77-29.833 94.77-35.973C94.77-42.103 92.33-47.993 87.99-52.333C85.92-54.403 85.92-57.753 87.99-59.823Z"/>
   <path class="hierarchical-1:secondary SFSymbolsPreview4D4D4D" d="M68.21-80.533C70.05-79.653 71.22-77.793 71.22-75.753L71.22 3.86706C71.22 5.90706 70.05 7.76706 68.21 8.64706C66.38 9.52706 64.2 9.27706 62.61 8.00706L35.62-13.583L14.73-13.583C11.8-13.583 9.43-15.953 9.43-18.883L9.43-53.003C9.43-55.933 11.8-58.303 14.73-58.303L35.62-58.303L62.61-79.893C64.2-81.173 66.38-81.413 68.21-80.533ZM60.62-64.733L40.79-48.873C39.85-48.113 38.68-47.703 37.48-47.703L20.03-47.703L20.03-24.183L37.48-24.183C38.68-24.183 39.85-23.773 40.79-23.023L60.62-7.16294L60.62-64.733Z"/>
  </g>
  <g id="Semibold-L" transform="matrix(1 0 0 1 1975.53 1556)">
   <path class="hierarchical-0:primary SFSymbolsPreview212121" d="M87.8-59.2852C89.61-61.1052 92.56-61.1052 94.37-59.2852C100.58-53.0852 104.06-44.6652 104.06-35.8952C104.06-27.1252 100.58-18.7052 94.37-12.5052C92.56-10.6852 89.61-10.6852 87.8-12.5052C85.98-14.3152 85.98-17.2652 87.8-19.0752C92.25-23.5352 94.76-29.5852 94.76-35.8952C94.76-42.2052 92.25-48.2552 87.8-52.7152C85.98-54.5252 85.98-57.4752 87.8-59.2852Z"/>
   <path class="hierarchical-1:secondary SFSymbolsPreview4D4D4D" d="M67.28-79.8652C68.89-79.0952 69.91-77.4652 69.91-75.6752L69.91 3.94482C69.91 5.73482 68.89 7.36482 67.28 8.13482C65.67 8.91482 63.75 8.69482 62.36 7.57482L35.19-14.1552L14.08-14.1552C11.51-14.1552 9.43-16.2352 9.43-18.8052L9.43-52.9252C9.43-55.4952 11.51-57.5752 14.08-57.5752L35.19-57.5752L62.36-79.3052C63.75-80.4252 65.67-80.6452 67.28-79.8652ZM60.61-66.0052L39.73-49.2952C38.91-48.6352 37.88-48.2752 36.83-48.2752L18.73-48.2752L18.73-23.4552L36.83-23.4552C37.88-23.4552 38.91-23.0952 39.73-22.4352L60.61-5.72518L60.61-66.0052Z"/>
  </g>
  <g id="Medium-L" transform="matrix(1 0 0 1 1679.32 1556)">
   <path class="hierarchical-0:primary SFSymbolsPreview212121" d="M87.66-58.8598C89.28-60.4798 91.91-60.4798 93.53-58.8598C99.64-52.7498 103.07-44.4598 103.07-35.8198C103.07-27.1798 99.64-18.8898 93.53-12.7798C91.91-11.1598 89.28-11.1598 87.66-12.7798C86.04-14.3998 86.04-17.0298 87.66-18.6498C92.21-23.1998 94.77-29.3798 94.77-35.8198C94.77-42.2598 92.21-48.4398 87.66-52.9898C86.04-54.6098 86.04-57.2398 87.66-58.8598Z"/>
   <path class="hierarchical-1:secondary SFSymbolsPreview4D4D4D" d="M66.57-79.3398C68.01-78.6498 68.92-77.1998 68.92-75.5998L68.92 4.02018C68.92 5.62018 68.01 7.07018 66.57 7.76018C65.13 8.46018 63.43 8.26018 62.18 7.26018L34.88-14.5798L13.58-14.5798C11.29-14.5798 9.43-16.4298 9.43-18.7298L9.43-52.8498C9.43-55.1398 11.29-56.9998 13.58-56.9998L34.88-56.9998L62.18-78.8398C63.43-79.8398 65.13-80.0298 66.57-79.3398ZM60.62-66.9698L38.93-49.6098C38.19-49.0198 37.28-48.6998 36.33-48.6998L17.73-48.6998L17.73-22.8798L36.33-22.8798C37.28-22.8798 38.19-22.5598 38.93-21.9698L60.62-4.60982L60.62-66.9698Z"/>
  </g>
  <g id="Regular-L" transform="matrix(1 0 0 1 1383.25 1556)">
   <path class="hierarchical-0:primary SFSymbolsPreview212121" d="M87.47-58.3108C88.84-59.6808 91.05-59.6708 92.42-58.3108C98.41-52.3208 101.77-44.2008 101.77-35.7308C101.77-27.2608 98.41-19.1408 92.42-13.1508C91.05-11.7808 88.84-11.7808 87.47-13.1508C86.1-14.5108 86.1-16.7308 87.47-18.1008C92.14-22.7708 94.77-29.1208 94.77-35.7308C94.77-42.3408 92.14-48.6808 87.47-53.3608C86.1-54.7308 86.1-56.9408 87.47-58.3108Z"/>
   <path class="hierarchical-1:secondary SFSymbolsPreview4D4D4D" d="M65.64-78.6708C66.85-78.0808 67.62-76.8608 67.62-75.5108L67.62 4.1093C67.62 5.4593 66.85 6.6793 65.64 7.2693C64.43 7.8493 62.99 7.6893 61.94 6.8493L34.46-15.1408L12.93-15.1408C11-15.1408 9.43-16.7008 9.43-18.6408L9.43-52.7608C9.43-54.7008 11-56.2608 12.93-56.2608L34.46-56.2608L61.94-78.2508C62.99-79.0908 64.43-79.2508 65.64-78.6708ZM60.62-68.2308L37.87-50.0308C37.25-49.5308 36.48-49.2608 35.69-49.2608L16.43-49.2608L16.43-22.1408L35.69-22.1408C36.48-22.1408 37.25-21.8708 37.87-21.3708L60.62-3.1707L60.62-68.2308Z"/>
  </g>
  <g id="Light-L" transform="matrix(1 0 0 1 1087.34 1556)">
   <path class="hierarchical-0:primary SFSymbolsPreview212121" d="M87.23-57.649C88.29-58.699 90-58.699 91.05-57.649C96.89-51.809 100.17-43.889 100.17-35.629C100.17-27.369 96.89-19.459 91.05-13.619C90-12.559 88.29-12.559 87.23-13.619C86.18-14.669 86.18-16.379 87.23-17.429C92.06-22.259 94.77-28.809 94.77-35.629C94.77-42.459 92.06-48.999 87.23-53.829C86.18-54.879 86.18-56.589 87.23-57.649Z"/>
   <path class="hierarchical-1:secondary SFSymbolsPreview4D4D4D" d="M64.49-77.849C65.43-77.399 66.02-76.449 66.02-75.409L66.02 4.21094C66.02 5.25094 65.43 6.20094 64.49 6.65094C63.56 7.10094 62.45 6.97094 61.64 6.32094L33.94-15.839L12.13-15.839C10.64-15.839 9.43-17.049 9.43-18.539L9.43-52.659C9.43-54.149 10.64-55.359 12.13-55.359L33.94-55.359L61.64-77.519C62.45-78.169 63.56-78.299 64.49-77.849ZM60.62-69.789L36.57-50.549C36.09-50.169 35.5-49.959 34.88-49.959L14.83-49.959L14.83-21.239L34.88-21.239C35.5-21.239 36.09-21.029 36.57-20.649L60.62-1.39906L60.62-69.789Z"/>
  </g>
  <g id="Thin-L" transform="matrix(1 0 0 1 791.685 1556)">
   <path class="hierarchical-0:primary SFSymbolsPreview212121" d="M86.922-56.7472C87.566-57.3972 88.611-57.3972 89.255-56.7472C94.896-51.1072 98.065-43.4572 98.065-35.4772C98.065-27.4972 94.896-19.8472 89.255-14.2072C88.611-13.5572 87.566-13.5572 86.922-14.2072C86.277-14.8472 86.277-15.8972 86.921-16.5372C91.943-21.5572 94.765-28.3772 94.765-35.4772C94.765-42.5772 91.943-49.3972 86.921-54.4172C86.277-55.0572 86.277-56.1072 86.922-56.7472Z"/>
   <path class="hierarchical-1:secondary SFSymbolsPreview4D4D4D" d="M62.982-76.7472C63.554-76.4672 63.917-75.8972 63.917-75.2572L63.917 4.36288C63.917 5.00288 63.554 5.58288 62.982 5.85288C62.41 6.13288 61.732 6.05288 61.236 5.65288L33.251-16.7372L11.08-16.7372C10.168-16.7372 9.43-17.4772 9.43-18.3872L9.43-52.5072C9.43-53.4172 10.168-54.1572 11.08-54.1572L33.251-54.1572L61.236-76.5472C61.732-76.9472 62.41-77.0172 62.982-76.7472ZM60.617-71.8272L34.86-51.2172C34.568-50.9872 34.204-50.8572 33.83-50.8572L12.73-50.8572L12.73-20.0372L33.83-20.0372C34.204-20.0372 34.568-19.9072 34.86-19.6672L60.617 0.93288L60.617-71.8272Z"/>
  </g>
  <g id="Ultralight-L" transform="matrix(1 0 0 1 495.524 1556)">
   <path class="hierarchical-0:primary SFSymbolsPreview212121" d="M86.761-56.2874C87.191-56.7174 87.888-56.7174 88.317-56.2874C93.855-50.7474 96.965-43.2374 96.965-35.4074C96.965-27.5774 93.855-20.0674 88.317-14.5274C87.888-14.0974 87.191-14.0974 86.761-14.5274C86.332-14.9574 86.332-15.6474 86.761-16.0774C91.886-21.2074 94.765-28.1574 94.765-35.4074C94.765-42.6574 91.886-49.6074 86.761-54.7374C86.332-55.1674 86.332-55.8574 86.761-56.2874Z"/>
   <path class="hierarchical-1:secondary SFSymbolsPreview4D4D4D" d="M62.194-76.1874C62.576-75.9974 62.818-75.6174 62.818-75.1874L62.818 4.43252C62.818 4.85252 62.576 5.24252 62.194 5.42252C61.813 5.61252 61.361 5.55252 61.031 5.29252L32.895-17.2174L10.53-17.2174C9.923-17.2174 9.43-17.7074 9.43-18.3174L9.43-52.4374C9.43-53.0474 9.923-53.5374 10.53-53.5374L32.895-53.5374L61.031-76.0474C61.361-76.3174 61.813-76.3674 62.194-76.1874ZM60.618-72.9074L33.968-51.5874C33.773-51.4274 33.53-51.3374 33.28-51.3374L11.63-51.3374L11.63-19.4174L33.28-19.4174C33.53-19.4174 33.773-19.3274 33.968-19.1774L60.618 2.14252L60.618-72.9074Z"/>
  </g>
  <g id="Black-M" transform="matrix(1 0 0 1 2872.41 1126)">
   <path class="hierarchical-0:primary SFSymbolsPreview212121" d="M71.93-57.011C74.71-59.781 79.2-59.781 81.97-57.011C87.49-51.491 90.58-44.011 90.58-36.211C90.58-28.411 87.49-20.931 81.97-15.421C79.2-12.651 74.71-12.651 71.93-15.421C69.16-18.191 69.16-22.691 71.93-25.461C74.78-28.311 76.38-32.181 76.38-36.211C76.38-40.251 74.78-44.121 71.93-46.971C69.16-49.741 69.16-54.241 71.93-57.011Z"/>
   <path class="hierarchical-1:secondary SFSymbolsPreview4D4D4D" d="M59.77-73.831C62.23-72.641 63.79-70.161 63.79-67.431L63.79-4.9509C63.79-2.2209 62.23 0.269094 59.77 1.4491C57.31 2.6291 54.39 2.2991 52.26 0.589097L31.89-15.701L16.53-15.701C12.61-15.701 9.43-18.881 9.43-22.801L9.43-49.581C9.43-53.501 12.61-56.681 16.53-56.681L31.89-56.681L52.26-72.971C54.39-74.681 57.31-75.011 59.77-73.831ZM49.59-52.651L38.81-44.031C37.56-43.031 35.99-42.481 34.38-42.481L23.63-42.481L23.63-29.901L34.38-29.901C35.99-29.901 37.56-29.351 38.81-28.351L49.59-19.721L49.59-52.651Z"/>
  </g>
  <g id="Heavy-M" transform="matrix(1 0 0 1 2576.54 1126)">
   <path class="hierarchical-0:primary SFSymbolsPreview212121" d="M71.68-56.2954C74.12-58.7354 78.08-58.7354 80.52-56.2954C85.88-50.9354 88.88-43.6754 88.88-36.0954C88.88-28.5254 85.88-21.2554 80.52-15.9054C78.08-13.4654 74.12-13.4654 71.68-15.9054C69.24-18.3454 69.24-22.3054 71.68-24.7454C74.69-27.7554 76.38-31.8354 76.38-36.0954C76.38-40.3554 74.69-44.4454 71.68-47.4554C69.24-49.8954 69.24-53.8554 71.68-56.2954Z"/>
   <path class="hierarchical-1:secondary SFSymbolsPreview4D4D4D" d="M58.55-72.9454C60.71-71.9054 62.09-69.7154 62.09-67.3154L62.09-4.83542C62.09-2.43542 60.71-0.245414 58.55 0.794583C56.38 1.83458 53.81 1.54458 51.94 0.0445865L31.34-16.4354L15.68-16.4354C12.23-16.4354 9.43-19.2354 9.43-22.6854L9.43-49.4654C9.43-52.9154 12.23-55.7154 15.68-55.7154L31.34-55.7154L51.94-72.1954C53.81-73.6954 56.38-73.9854 58.55-72.9454ZM49.59-54.3054L37.43-44.5854C36.33-43.6954 34.95-43.2154 33.53-43.2154L21.93-43.2154L21.93-28.9354L33.53-28.9354C34.95-28.9354 36.33-28.4554 37.43-27.5654L49.59-17.8454L49.59-54.3054Z"/>
  </g>
  <g id="Bold-M" transform="matrix(1 0 0 1 2280.78 1126)">
   <path class="hierarchical-0:primary SFSymbolsPreview212121" d="M71.41-55.4986C73.48-57.5686 76.83-57.5686 78.9-55.4986C84.08-50.3186 86.98-43.2986 86.98-35.9686C86.98-28.6486 84.08-21.6286 78.9-16.4486C76.83-14.3786 73.48-14.3786 71.41-16.4486C69.33-18.5186 69.33-21.8786 71.4-23.9486C74.59-27.1386 76.38-31.4586 76.38-35.9686C76.38-40.4786 74.59-44.8086 71.4-47.9986C69.33-50.0686 69.33-53.4286 71.41-55.4986Z"/>
   <path class="hierarchical-1:secondary SFSymbolsPreview4D4D4D" d="M57.19-71.9686C59.02-71.0786 60.19-69.2286 60.19-67.1886L60.19-4.70866C60.19-2.67866 59.02-0.818664 57.19 0.0613363C55.35 0.941338 53.17 0.701338 51.58-0.578664L30.72-17.2586L14.73-17.2586C11.8-17.2586 9.43-19.6386 9.43-22.5586L9.43-49.3386C9.43-52.2686 11.8-54.6386 14.73-54.6386L30.72-54.6386L51.58-71.3286C53.17-72.5986 55.35-72.8486 57.19-71.9686ZM49.59-56.1586L35.89-45.1986C34.95-44.4486 33.78-44.0386 32.58-44.0386L20.03-44.0386L20.03-27.8586L32.58-27.8586C33.78-27.8586 34.95-27.4486 35.89-26.6986L49.59-15.7386L49.59-56.1586Z"/>
  </g>
  <g id="Semibold-M" transform="matrix(1 0 0 1 1984.72 1126)">
   <path class="hierarchical-0:primary SFSymbolsPreview212121" d="M71.21-54.9496C73.03-56.7596 75.97-56.7596 77.79-54.9496C82.84-49.8896 85.68-43.0296 85.68-35.8796C85.68-28.7396 82.84-21.8796 77.79-16.8196C75.97-15.0096 73.03-15.0096 71.21-16.8196C69.39-18.6396 69.39-21.5796 71.21-23.3996C74.52-26.7096 76.38-31.1996 76.38-35.8796C76.38-40.5696 74.52-45.0596 71.21-48.3696C69.39-50.1896 69.39-53.1296 71.21-54.9496Z"/>
   <path class="hierarchical-1:secondary SFSymbolsPreview4D4D4D" d="M56.25-71.2896C57.86-70.5096 58.89-68.8796 58.89-67.0996L58.89-4.61954C58.89-2.82954 57.86-1.20954 56.25-0.429544C54.64 0.340456 52.73 0.130456 51.33-0.989544L30.29-17.8196L14.08-17.8196C11.51-17.8196 9.43-19.8996 9.43-22.4696L9.43-49.2496C9.43-51.8196 11.51-53.8996 14.08-53.8996L30.29-53.8996L51.33-70.7296C52.73-71.8396 54.64-72.0596 56.25-71.2896ZM49.59-57.4196L34.83-45.6196C34.01-44.9596 32.98-44.5996 31.93-44.5996L18.73-44.5996L18.73-27.1196L31.93-27.1196C32.98-27.1196 34.01-26.7596 34.83-26.0996L49.59-14.2996L49.59-57.4196Z"/>
  </g>
  <g id="Medium-M" transform="matrix(1 0 0 1 1688.51 1126)">
   <path class="hierarchical-0:primary SFSymbolsPreview212121" d="M71.07-54.5256C72.69-56.1556 75.32-56.1456 76.94-54.5256C81.9-49.5656 84.69-42.8356 84.69-35.8156C84.69-28.8056 81.9-22.0756 76.94-17.1156C75.32-15.4856 72.69-15.4856 71.07-17.1056C69.45-18.7356 69.45-21.3556 71.07-22.9756C74.48-26.3856 76.39-31.0056 76.39-35.8156C76.39-40.6356 74.48-45.2556 71.07-48.6656C69.45-50.2856 69.45-52.9056 71.07-54.5256Z"/>
   <path class="hierarchical-1:secondary SFSymbolsPreview4D4D4D" d="M55.54-70.7756C56.98-70.0856 57.9-68.6256 57.9-67.0356L57.9-4.55554C57.9-2.96554 56.98-1.50554 55.54-0.815536C54.11-0.125536 52.4-0.315536 51.15-1.31554L29.98-18.2556L13.58-18.2556C11.29-18.2556 9.43-20.1156 9.43-22.4056L9.43-49.1856C9.43-51.4756 11.29-53.3356 13.58-53.3356L29.98-53.3356L51.15-70.2756C52.4-71.2656 54.11-71.4656 55.54-70.7756ZM49.6-58.3956L34.03-45.9456C33.29-45.3556 32.38-45.0356 31.43-45.0356L17.73-45.0356L17.73-26.5556L31.43-26.5556C32.38-26.5556 33.29-26.2356 34.03-25.6456L49.6-13.1956L49.6-58.3956Z"/>
  </g>
  <g id="Regular-M" transform="matrix(1 0 0 1 1392.45 1126)">
   <path class="hierarchical-0:primary SFSymbolsPreview212121" d="M70.87-53.982C72.24-55.352 74.46-55.352 75.82-53.982C80.66-49.142 83.38-42.582 83.38-35.732C83.38-28.892 80.66-22.322 75.82-17.482C74.46-16.122 72.24-16.122 70.87-17.482C69.51-18.852 69.5-21.062 70.87-22.432C74.4-25.962 76.38-30.742 76.38-35.732C76.38-40.722 74.4-45.502 70.87-49.032C69.5-50.402 69.51-52.622 70.87-53.982Z"/>
   <path class="hierarchical-1:secondary SFSymbolsPreview4D4D4D" d="M54.6-70.102C55.82-69.522 56.59-68.292 56.59-66.952L56.59-4.47206C56.59-3.13206 55.82-1.90206 54.6-1.32206C53.39-0.742054 51.95-0.902054 50.9-1.74206L29.55-18.822L12.93-18.822C10.99-18.822 9.43-20.392 9.43-22.322L9.43-49.102C9.43-51.032 10.99-52.602 12.93-52.602L29.55-52.602L50.9-69.682C51.95-70.522 53.39-70.692 54.6-70.102ZM49.59-59.672L32.96-46.372C32.34-45.872 31.57-45.602 30.77-45.602L16.43-45.602L16.43-25.822L30.77-25.822C31.57-25.822 32.34-25.552 32.96-25.062L49.59-11.762L49.59-59.672Z"/>
  </g>
  <g id="Light-M" transform="matrix(1 0 0 1 1096.53 1126)">
   <path class="hierarchical-0:primary SFSymbolsPreview212121" d="M70.65-53.3078C71.7-54.3578 73.41-54.3578 74.47-53.3078C79.16-48.6078 81.79-42.2478 81.79-35.6178C81.79-28.9878 79.16-22.6278 74.47-17.9378C73.41-16.8778 71.7-16.8778 70.65-17.9378C69.59-18.9878 69.59-20.6978 70.65-21.7578C74.32-25.4278 76.39-30.4178 76.39-35.6178C76.39-40.8178 74.32-45.8078 70.65-49.4878C69.59-50.5378 69.59-52.2478 70.65-53.3078Z"/>
   <path class="hierarchical-1:secondary SFSymbolsPreview4D4D4D" d="M53.47-69.2678C54.4-68.8178 55-67.8778 55-66.8378L55-4.35782C55-3.32782 54.4-2.37782 53.47-1.92782C52.53-1.47782 51.42-1.60782 50.61-2.24782L29.04-19.5078L12.13-19.5078C10.64-19.5078 9.43-20.7178 9.43-22.2078L9.43-48.9878C9.43-50.4778 10.64-51.6878 12.13-51.6878L29.04-51.6878L50.61-68.9478C51.42-69.5878 52.53-69.7178 53.47-69.2678ZM49.6-61.2178L31.67-46.8778C31.19-46.4978 30.6-46.2878 29.98-46.2878L14.83-46.2878L14.83-24.9078L29.98-24.9078C30.6-24.9078 31.19-24.6978 31.67-24.3178L49.6-9.97782L49.6-61.2178Z"/>
  </g>
  <g id="Thin-M" transform="matrix(1 0 0 1 800.875 1126)">
   <path class="hierarchical-0:primary SFSymbolsPreview212121" d="M70.336-52.4272C70.98-53.0672 72.025-53.0672 72.669-52.4272C77.162-47.9272 79.685-41.8372 79.685-35.4772C79.685-29.1272 77.162-23.0372 72.669-18.5372C72.025-17.8972 70.98-17.8972 70.336-18.5372C69.691-19.1872 69.691-20.2272 70.336-20.8772C74.209-24.7472 76.385-30.0072 76.385-35.4772C76.385-40.9572 74.209-46.2172 70.336-50.0872C69.691-50.7372 69.691-51.7772 70.336-52.4272Z"/>
   <path class="hierarchical-1:secondary SFSymbolsPreview4D4D4D" d="M51.957-68.1772C52.529-67.9072 52.892-67.3272 52.892-66.6972L52.892-4.2172C52.892-3.5872 52.529-3.0072 51.957-2.7372C51.385-2.4572 50.707-2.5372 50.211-2.9272L28.351-20.4172L11.08-20.4172C10.168-20.4172 9.43-21.1572 9.43-22.0672L9.43-48.8472C9.43-49.7572 10.168-50.4972 11.08-50.4972L28.351-50.4972L50.211-67.9872C50.707-68.3772 51.385-68.4572 51.957-68.1772ZM49.592-63.2572L29.96-47.5572C29.668-47.3172 29.304-47.1972 28.93-47.1972L12.73-47.1972L12.73-23.7172L28.93-23.7172C29.304-23.7172 29.668-23.5872 29.96-23.3572L49.592-7.6572L49.592-63.2572Z"/>
  </g>
  <g id="Ultralight-M" transform="matrix(1 0 0 1 504.714 1126)">
   <path class="hierarchical-0:primary SFSymbolsPreview212121" d="M70.175-51.9562C70.604-52.3862 71.301-52.3862 71.73-51.9562C76.119-47.5662 78.585-41.6062 78.585-35.3962C78.585-29.1962 76.119-23.2362 71.73-18.8462C71.301-18.4162 70.604-18.4162 70.175-18.8462C69.745-19.2762 69.745-19.9762 70.174-20.4062C74.151-24.3762 76.385-29.7762 76.385-35.3962C76.385-41.0262 74.151-46.4162 70.174-50.3962C69.745-50.8262 69.745-51.5262 70.175-51.9562Z"/>
   <path class="hierarchical-1:secondary SFSymbolsPreview4D4D4D" d="M51.169-67.6062C51.551-67.4162 51.793-67.0362 51.793-66.6162L51.793-4.13624C51.793-3.71624 51.551-3.32624 51.169-3.14624C50.788-2.96624 50.336-3.01624 50.006-3.27624L27.995-20.8862L10.53-20.8862C9.923-20.8862 9.43-21.3762 9.43-21.9862L9.43-48.7662C9.43-49.3662 9.923-49.8662 10.53-49.8662L27.995-49.8662L50.006-67.4762C50.336-67.7362 50.788-67.7862 51.169-67.6062ZM49.593-64.3262L29.068-47.9062C28.873-47.7462 28.63-47.6662 28.38-47.6662L11.63-47.6662L11.63-23.0862L28.38-23.0862C28.63-23.0862 28.873-23.0062 29.068-22.8462L49.593-6.42624L49.593-64.3262Z"/>
  </g>
  <g id="Black-S" transform="matrix(1 0 0 1 2879.63 696)">
   <path class="hierarchical-0:primary SFSymbolsPreview212121" d="M58.9-53.7046C61.67-56.4766 66.17-56.4756 68.94-53.7026C73.55-49.0896 76.14-42.8336 76.14-36.3106C76.14-29.7876 73.55-23.5316 68.94-18.9186C66.17-16.1446 61.67-16.1446 58.9-18.9166C56.13-21.6886 56.13-26.1846 58.9-28.9576C60.85-30.9076 61.94-33.5526 61.94-36.3106C61.94-39.0686 60.85-41.7126 58.9-43.6636C56.13-46.4366 56.13-50.9316 58.9-53.7046Z"/>
   <path class="hierarchical-1:secondary SFSymbolsPreview4D4D4D" d="M51.11-67.1956C53.57-66.0126 55.13-63.5256 55.13-60.7966L55.13-11.7966C55.13-9.06654 53.57-6.57954 51.11-5.39654C48.65-4.21454 45.73-4.54654 43.59-6.25154L28.04-18.6966L16.53-18.6966C12.61-18.6966 9.43-21.8746 9.43-25.7966L9.43-46.7966C9.43-50.7176 12.61-53.8966 16.53-53.8966L28.04-53.8966L43.59-66.3406C45.73-68.0456 48.65-68.3776 51.11-67.1956ZM40.93-46.0236L34.97-41.2516C33.71-40.2446 32.14-39.6966 30.53-39.6966L23.63-39.6966L23.63-32.8966L30.53-32.8966C32.14-32.8966 33.71-32.3476 34.97-31.3406L40.93-26.5686L40.93-46.0236Z"/>
  </g>
  <g id="Heavy-S" transform="matrix(1 0 0 1 2583.76 696)">
   <path class="hierarchical-0:primary SFSymbolsPreview212121" d="M58.65-52.991C61.09-55.431 65.05-55.431 67.49-52.989C71.94-48.536 74.44-42.496 74.44-36.198C74.44-29.901 71.94-23.861 67.49-19.407C65.05-16.966 61.09-16.965 58.65-19.406C56.21-21.846 56.21-25.803 58.65-28.244C60.76-30.354 61.94-33.215 61.94-36.198C61.94-39.181 60.76-42.042 58.65-44.152C56.21-46.593 56.21-50.55 58.65-52.991Z"/>
   <path class="hierarchical-1:secondary SFSymbolsPreview4D4D4D" d="M49.89-66.313C52.05-65.272 53.43-63.083 53.43-60.68L53.43-11.68C53.43-9.27706 52.05-7.08806 49.89-6.04706C47.72-5.00606 45.15-5.29906 43.28-6.80006L27.49-19.43L15.68-19.43C12.23-19.43 9.43-22.228 9.43-25.68L9.43-46.68C9.43-50.132 12.23-52.93 15.68-52.93L27.49-52.93L43.28-65.56C45.15-67.061 47.72-67.354 49.89-66.313ZM40.93-47.676L33.58-41.8C32.48-40.913 31.1-40.43 29.68-40.43L21.93-40.43L21.93-31.93L29.68-31.93C31.1-31.93 32.48-31.447 33.58-30.56L40.93-24.684L40.93-47.676Z"/>
  </g>
  <g id="Bold-S" transform="matrix(1 0 0 1 2288 696)">
   <path class="hierarchical-0:primary SFSymbolsPreview212121" d="M58.37-51.9836C60.44-54.0526 63.79-54.0526 65.86-51.9826C70.14-47.7066 72.54-41.9086 72.54-35.8626C72.54-29.8166 70.14-24.0186 65.86-19.7426C63.79-17.6726 60.44-17.6726 58.37-19.7416C56.3-21.8116 56.3-25.1666 58.37-27.2376C60.65-29.5246 61.94-32.6276 61.94-35.8626C61.94-39.0976 60.65-42.1996 58.37-44.4876C56.3-46.5576 56.3-49.9136 58.37-51.9836Z"/>
   <path class="hierarchical-1:secondary SFSymbolsPreview4D4D4D" d="M48.52-65.1216C50.36-64.2386 51.53-62.3816 51.53-60.3446L51.53-11.3446C51.53-9.30652 50.36-7.44952 48.52-6.56752C46.68-5.68452 44.51-5.93252 42.91-7.20552L26.87-20.0446L14.73-20.0446C11.8-20.0446 9.43-22.4176 9.43-25.3446L9.43-46.3446C9.43-49.2716 11.8-51.6446 14.73-51.6446L26.87-51.6446L42.91-64.4826C44.51-65.7556 46.68-66.0036 48.52-65.1216ZM40.93-49.3166L32.04-42.2056C31.1-41.4536 29.93-41.0446 28.73-41.0446L20.03-41.0446L20.03-30.6446L28.73-30.6446C29.93-30.6446 31.1-30.2346 32.04-29.4826L40.93-22.3716L40.93-49.3166Z"/>
  </g>
  <g id="Semibold-S" transform="matrix(1 0 0 1 1991.94 696)">
   <path class="hierarchical-0:primary SFSymbolsPreview212121" d="M58.18-51.4342C60-53.2492 62.94-53.2492 64.76-51.4332C68.91-47.2792 71.24-41.6462 71.24-35.7732C71.24-29.8992 68.91-24.2662 64.76-20.1132C62.94-18.2962 60-18.2962 58.18-20.1122C56.37-21.9272 56.37-24.8712 58.18-26.6882C60.59-29.0972 61.94-32.3652 61.94-35.7732C61.94-39.1802 60.59-42.4482 58.18-44.8582C56.37-46.6742 56.37-49.6182 58.18-51.4342Z"/>
   <path class="hierarchical-1:secondary SFSymbolsPreview4D4D4D" d="M47.59-64.4452C49.21-63.6712 50.23-62.0422 50.23-60.2542L50.23-11.2542C50.23-9.46722 49.21-7.83822 47.59-7.06322C45.98-6.28922 44.07-6.50722 42.68-7.62322L26.45-20.6042L14.08-20.6042C11.51-20.6042 9.43-22.6862 9.43-25.2542L9.43-46.2542C9.43-48.8232 11.51-50.9042 14.08-50.9042L26.45-50.9042L42.68-63.8852C44.07-65.0022 45.98-65.2202 47.59-64.4452ZM40.93-50.5792L30.98-42.6232C30.16-41.9642 29.14-41.6042 28.08-41.6042L18.73-41.6042L18.73-29.9042L28.08-29.9042C29.14-29.9042 30.16-29.5452 30.98-28.8852L40.93-20.9292L40.93-50.5792Z"/>
  </g>
  <g id="Medium-S" transform="matrix(1 0 0 1 1695.73 696)">
   <path class="hierarchical-0:primary SFSymbolsPreview212121" d="M58.04-51.0116C59.66-52.6316 62.28-52.6316 63.91-51.0106C67.96-46.9506 70.24-41.4446 70.24-35.7046C70.24-29.9636 67.96-24.4576 63.91-20.3976C62.28-18.7766 59.66-18.7766 58.04-20.3966C56.42-22.0176 56.41-24.6446 58.04-26.2656C60.54-28.7696 61.94-32.1646 61.94-35.7046C61.94-39.2446 60.54-42.6396 58.04-45.1426C56.41-46.7636 56.42-49.3916 58.04-51.0116Z"/>
   <path class="hierarchical-1:secondary SFSymbolsPreview4D4D4D" d="M46.88-63.9266C48.32-63.2356 49.23-61.7816 49.23-60.1856L49.23-11.1856C49.23-9.59068 48.32-8.13668 46.88-7.44568C45.44-6.75468 43.73-6.94868 42.49-7.94568L26.12-21.0356L13.58-21.0356C11.29-21.0356 9.43-22.8936 9.43-25.1856L9.43-46.1856C9.43-48.4776 11.29-50.3356 13.58-50.3356L26.12-50.3356L42.49-63.4266C43.73-64.4236 45.44-64.6176 46.88-63.9266ZM40.93-51.5516L30.17-42.9456C29.44-42.3566 28.52-42.0356 27.58-42.0356L17.73-42.0356L17.73-29.3356L27.58-29.3356C28.52-29.3356 29.44-29.0156 30.17-28.4266L40.93-19.8206L40.93-51.5516Z"/>
  </g>
  <g id="Regular-S" transform="matrix(1 0 0 1 1399.67 696)">
   <path class="hierarchical-0:primary SFSymbolsPreview212121" d="M57.85-50.4654C59.21-51.8324 61.43-51.8314 62.79-50.4644C66.73-46.5264 68.94-41.1864 68.94-35.6174C68.94-30.0494 66.73-24.7084 62.79-20.7704C61.43-19.4034 59.21-19.4034 57.85-20.7694C56.48-22.1364 56.48-24.3524 57.84-25.7194C60.47-28.3454 61.94-31.9054 61.94-35.6174C61.94-39.3294 60.47-42.8904 57.84-45.5154C56.48-46.8824 56.48-49.0984 57.85-50.4654Z"/>
   <path class="hierarchical-1:secondary SFSymbolsPreview4D4D4D" d="M45.95-63.2544C47.16-62.6714 47.93-61.4444 47.93-60.0994L47.93-11.0994C47.93-9.75438 47.16-8.52738 45.95-7.94438C44.73-7.36238 43.29-7.52538 42.24-8.36638L25.7-21.5994L12.93-21.5994C11-21.5994 9.43-23.1664 9.43-25.0994L9.43-46.0994C9.43-48.0324 11-49.5994 12.93-49.5994L25.7-49.5994L42.24-62.8324C43.29-63.6724 44.73-63.8364 45.95-63.2544ZM40.93-52.8174L29.12-43.3664C28.5-42.8694 27.72-42.5994 26.93-42.5994L16.43-42.5994L16.43-28.5994L26.93-28.5994C27.72-28.5994 28.5-28.3284 29.12-27.8324L40.93-18.3814L40.93-52.8174Z"/>
  </g>
  <g id="Light-S" transform="matrix(1 0 0 1 1103.76 696)">
   <path class="hierarchical-0:primary SFSymbolsPreview212121" d="M57.61-49.7896C58.67-50.8446 60.38-50.8436 61.43-49.7896C65.22-46.0016 67.34-40.8646 67.34-35.5076C67.34-30.1516 65.22-25.0146 61.43-21.2266C60.38-20.1716 58.67-20.1716 57.61-21.2256C56.56-22.2806 56.56-23.9896 57.61-25.0446C60.39-27.8196 61.94-31.5836 61.94-35.5076C61.94-39.4326 60.39-43.1966 57.61-45.9716C56.56-47.0266 56.56-48.7356 57.61-49.7896Z"/>
   <path class="hierarchical-1:secondary SFSymbolsPreview4D4D4D" d="M44.8-62.4236C45.73-61.9736 46.33-61.0276 46.33-59.9896L46.33-10.9896C46.33-9.9516 45.73-9.0056 44.8-8.5566C43.86-8.1066 42.75-8.2326 41.94-8.8816L25.18-22.2896L12.13-22.2896C10.64-22.2896 9.43-23.4986 9.43-24.9896L9.43-45.9896C9.43-47.4806 10.64-48.6896 12.13-48.6896L25.18-48.6896L41.94-62.0986C42.75-62.7466 43.86-62.8726 44.8-62.4236ZM40.93-54.3726L27.82-43.8816C27.34-43.4986 26.74-43.2896 26.13-43.2896L14.83-43.2896L14.83-27.6896L26.13-27.6896C26.74-27.6896 27.34-27.4816 27.82-27.0986L40.93-16.6076L40.93-54.3726Z"/>
  </g>
  <g id="Thin-S" transform="matrix(1 0 0 1 808.095 696)">
   <path class="hierarchical-0:primary SFSymbolsPreview212121" d="M57.304-48.9042C57.948-49.5482 58.993-49.5482 59.637-48.9042C63.227-45.3122 65.244-40.4422 65.244-35.3652C65.244-30.2872 63.227-25.4172 59.637-21.8262C58.993-21.1812 57.948-21.1812 57.304-21.8252C56.659-22.4692 56.659-23.5142 57.303-24.1592C60.275-27.1312 61.944-31.1622 61.944-35.3652C61.944-39.5672 60.275-43.5982 57.303-46.5712C56.659-47.2152 56.659-48.2602 57.304-48.9042Z"/>
   <path class="hierarchical-1:secondary SFSymbolsPreview4D4D4D" d="M43.294-61.3342C43.866-61.0592 44.23-60.4812 44.23-59.8462L44.23-10.8462C44.23-10.2122 43.866-9.63426 43.294-9.35926C42.723-9.08526 42.044-9.16226 41.549-9.55826L24.501-23.1962L11.08-23.1962C10.168-23.1962 9.43-23.9352 9.43-24.8462L9.43-45.8462C9.43-46.7582 10.168-47.4962 11.08-47.4962L24.501-47.4962L41.549-61.1352C42.044-61.5312 42.723-61.6082 43.294-61.3342ZM40.93-56.4132L26.11-44.5582C25.818-44.3242 25.454-44.1962 25.08-44.1962L12.73-44.1962L12.73-26.4962L25.08-26.4962C25.454-26.4962 25.818-26.3692 26.11-26.1352L40.93-14.2792L40.93-56.4132Z"/>
  </g>
  <g id="Ultralight-S" transform="matrix(1 0 0 1 511.934 696)">
   <path class="hierarchical-0:primary SFSymbolsPreview212121" d="M57.142-48.4398C57.572-48.8698 58.268-48.8698 58.698-48.4398C62.185-44.9518 64.144-40.2218 64.144-35.2898C64.144-30.3578 62.185-25.6278 58.698-22.1398C58.268-21.7098 57.572-21.7098 57.142-22.1388C56.713-22.5688 56.713-23.2648 57.142-23.6948C60.217-26.7698 61.944-30.9408 61.944-35.2898C61.944-39.6378 60.217-43.8088 57.142-46.8848C56.713-47.3138 56.713-48.0108 57.142-48.4398Z"/>
   <path class="hierarchical-1:secondary SFSymbolsPreview4D4D4D" d="M42.507-60.7668C42.888-60.5838 43.13-60.1978 43.13-59.7758L43.13-10.7758C43.13-10.3528 42.888-9.96674 42.507-9.78374C42.126-9.60074 41.673-9.65174 41.343-9.91674L24.145-23.6758L10.53-23.6758C9.923-23.6758 9.43-24.1678 9.43-24.7758L9.43-45.7758C9.43-46.3828 9.923-46.8758 10.53-46.8758L24.145-46.8758L41.343-60.6348C41.673-60.8988 42.126-60.9498 42.507-60.7668ZM40.93-57.4868L25.218-44.9168C25.023-44.7608 24.78-44.6758 24.53-44.6758L11.63-44.6758L11.63-25.8758L24.53-25.8758C24.78-25.8758 25.023-25.7908 25.218-25.6348L40.93-13.0638L40.93-57.4868Z"/>
  </g>
 </g>
</svg>
