<?xml version="1.0" encoding="UTF-8"?>
<!--Generator: Apple Native CoreSVG 175-->
<!DOCTYPE svg
PUBLIC "-//W3C//DTD SVG 1.1//EN"
       "http://www.w3.org/Graphics/SVG/1.1/DTD/svg11.dtd">
<svg version="1.1" xmlns="http://www.w3.org/2000/svg" xmlns:xlink="http://www.w3.org/1999/xlink" width="3300" height="2200">
 <!--glyph: "", point size: 100.0, font version: "17.0d12e1", template writer version: "65.1"-->
 <g id="Notes">
  <rect height="2200" id="artboard" style="fill:white;opacity:1" width="3300" x="0" y="0"/>
  <line style="fill:none;stroke:black;opacity:1;stroke-width:0.5;" x1="263" x2="3036" y1="292" y2="292"/>
  <text style="stroke:none;fill:black;font-family:sans-serif;font-size:13;font-weight:bold;" transform="matrix(1 0 0 1 263 322)">Weight/Scale Variations</text>
  <text style="stroke:none;fill:black;font-family:sans-serif;font-size:13;text-anchor:middle;" transform="matrix(1 0 0 1 559.711 322)">Ultralight</text>
  <text style="stroke:none;fill:black;font-family:sans-serif;font-size:13;text-anchor:middle;" transform="matrix(1 0 0 1 856.422 322)">Thin</text>
  <text style="stroke:none;fill:black;font-family:sans-serif;font-size:13;text-anchor:middle;" transform="matrix(1 0 0 1 1153.13 322)">Light</text>
  <text style="stroke:none;fill:black;font-family:sans-serif;font-size:13;text-anchor:middle;" transform="matrix(1 0 0 1 1449.84 322)">Regular</text>
  <text style="stroke:none;fill:black;font-family:sans-serif;font-size:13;text-anchor:middle;" transform="matrix(1 0 0 1 1746.56 322)">Medium</text>
  <text style="stroke:none;fill:black;font-family:sans-serif;font-size:13;text-anchor:middle;" transform="matrix(1 0 0 1 2043.27 322)">Semibold</text>
  <text style="stroke:none;fill:black;font-family:sans-serif;font-size:13;text-anchor:middle;" transform="matrix(1 0 0 1 2339.98 322)">Bold</text>
  <text style="stroke:none;fill:black;font-family:sans-serif;font-size:13;text-anchor:middle;" transform="matrix(1 0 0 1 2636.69 322)">Heavy</text>
  <text style="stroke:none;fill:black;font-family:sans-serif;font-size:13;text-anchor:middle;" transform="matrix(1 0 0 1 2933.4 322)">Black</text>
  <line style="fill:none;stroke:black;opacity:1;stroke-width:0.5;" x1="263" x2="3036" y1="1903" y2="1903"/>
  <g transform="matrix(1 0 0 1 263 1933)">
   <path d="M9.24805 0.830078Q10.8691 0.830078 12.2949 0.214844Q13.7207-0.400391 14.8096-1.49414Q15.8984-2.58789 16.5186-4.01367Q17.1387-5.43945 17.1387-7.05078Q17.1387-8.66211 16.5186-10.0879Q15.8984-11.5137 14.8047-12.6074Q13.7109-13.7012 12.2852-14.3164Q10.8594-14.9316 9.23828-14.9316Q7.62695-14.9316 6.20117-14.3164Q4.77539-13.7012 3.69141-12.6074Q2.60742-11.5137 1.9873-10.0879Q1.36719-8.66211 1.36719-7.05078Q1.36719-5.43945 1.9873-4.01367Q2.60742-2.58789 3.69629-1.49414Q4.78516-0.400391 6.21094 0.214844Q7.63672 0.830078 9.24805 0.830078ZM9.24805-0.654297Q7.91992-0.654297 6.7627-1.14746Q5.60547-1.64062 4.73145-2.51953Q3.85742-3.39844 3.36426-4.56055Q2.87109-5.72266 2.87109-7.05078Q2.87109-8.37891 3.35938-9.54102Q3.84766-10.7031 4.72168-11.582Q5.5957-12.4609 6.75293-12.9541Q7.91016-13.4473 9.23828-13.4473Q10.5762-13.4473 11.7334-12.9541Q12.8906-12.4609 13.7695-11.582Q14.6484-10.7031 15.1465-9.54102Q15.6445-8.37891 15.6445-7.05078Q15.6445-5.72266 15.1514-4.56055Q14.6582-3.39844 13.7842-2.51953Q12.9102-1.64062 11.748-1.14746Q10.5859-0.654297 9.24805-0.654297ZM5.6543-7.05078Q5.6543-6.72852 5.85938-6.52832Q6.06445-6.32812 6.40625-6.32812L8.51562-6.32812L8.51562-4.20898Q8.51562-3.88672 8.71094-3.67676Q8.90625-3.4668 9.23828-3.4668Q9.56055-3.4668 9.77051-3.67676Q9.98047-3.88672 9.98047-4.20898L9.98047-6.32812L12.0898-6.32812Q12.4219-6.32812 12.627-6.52832Q12.832-6.72852 12.832-7.05078Q12.832-7.38281 12.627-7.58789Q12.4219-7.79297 12.0898-7.79297L9.98047-7.79297L9.98047-9.90234Q9.98047-10.2344 9.77051-10.4443Q9.56055-10.6543 9.23828-10.6543Q8.90625-10.6543 8.71094-10.4443Q8.51562-10.2344 8.51562-9.90234L8.51562-7.79297L6.40625-7.79297Q6.06445-7.79297 5.85938-7.58789Q5.6543-7.38281 5.6543-7.05078Z"/>
  </g>
  <g transform="matrix(1 0 0 1 281.867 1933)">
   <path d="M11.709 2.91016Q13.75 2.91016 15.5518 2.12891Q17.3535 1.34766 18.7305-0.0292969Q20.1074-1.40625 20.8887-3.20801Q21.6699-5.00977 21.6699-7.05078Q21.6699-9.0918 20.8887-10.8936Q20.1074-12.6953 18.7305-14.0723Q17.3535-15.4492 15.5469-16.2305Q13.7402-17.0117 11.6992-17.0117Q9.6582-17.0117 7.85645-16.2305Q6.05469-15.4492 4.68262-14.0723Q3.31055-12.6953 2.5293-10.8936Q1.74805-9.0918 1.74805-7.05078Q1.74805-5.00977 2.5293-3.20801Q3.31055-1.40625 4.6875-0.0292969Q6.06445 1.34766 7.86621 2.12891Q9.66797 2.91016 11.709 2.91016ZM11.709 1.25Q9.98047 1.25 8.47656 0.605469Q6.97266-0.0390625 5.83496-1.17676Q4.69727-2.31445 4.05762-3.81836Q3.41797-5.32227 3.41797-7.05078Q3.41797-8.7793 4.05762-10.2832Q4.69727-11.7871 5.83008-12.9297Q6.96289-14.0723 8.4668-14.7119Q9.9707-15.3516 11.6992-15.3516Q13.4277-15.3516 14.9316-14.7119Q16.4355-14.0723 17.5781-12.9297Q18.7207-11.7871 19.3652-10.2832Q20.0098-8.7793 20.0098-7.05078Q20.0098-5.32227 19.3701-3.81836Q18.7305-2.31445 17.5928-1.17676Q16.4551-0.0390625 14.9463 0.605469Q13.4375 1.25 11.709 1.25ZM7.17773-7.05078Q7.17773-6.69922 7.41211-6.47461Q7.64648-6.25 8.01758-6.25L10.8887-6.25L10.8887-3.36914Q10.8887-2.99805 11.1133-2.76855Q11.3379-2.53906 11.6895-2.53906Q12.0605-2.53906 12.29-2.76855Q12.5195-2.99805 12.5195-3.36914L12.5195-6.25L15.4004-6.25Q15.7715-6.25 16.001-6.47461Q16.2305-6.69922 16.2305-7.05078Q16.2305-7.42188 16.001-7.65137Q15.7715-7.88086 15.4004-7.88086L12.5195-7.88086L12.5195-10.752Q12.5195-11.1328 12.29-11.3623Q12.0605-11.5918 11.6895-11.5918Q11.3379-11.5918 11.1133-11.3574Q10.8887-11.123 10.8887-10.752L10.8887-7.88086L8.01758-7.88086Q7.63672-7.88086 7.40723-7.65137Q7.17773-7.42188 7.17773-7.05078Z"/>
  </g>
  <g transform="matrix(1 0 0 1 305.646 1933)">
   <path d="M14.9707 5.66406Q17.0605 5.66406 18.96 5.01465Q20.8594 4.36523 22.4512 3.19336Q24.043 2.02148 25.2197 0.429688Q26.3965-1.16211 27.0459-3.06641Q27.6953-4.9707 27.6953-7.05078Q27.6953-9.14062 27.0459-11.04Q26.3965-12.9395 25.2197-14.5312Q24.043-16.123 22.4512-17.2998Q20.8594-18.4766 18.9551-19.126Q17.0508-19.7754 14.9609-19.7754Q12.8711-19.7754 10.9717-19.126Q9.07227-18.4766 7.48535-17.2998Q5.89844-16.123 4.72168-14.5312Q3.54492-12.9395 2.90039-11.04Q2.25586-9.14062 2.25586-7.05078Q2.25586-4.9707 2.90527-3.06641Q3.55469-1.16211 4.72656 0.429688Q5.89844 2.02148 7.49023 3.19336Q9.08203 4.36523 10.9814 5.01465Q12.8809 5.66406 14.9707 5.66406ZM14.9707 3.84766Q13.1641 3.84766 11.5283 3.2959Q9.89258 2.74414 8.53516 1.74805Q7.17773 0.751953 6.17676-0.610352Q5.17578-1.97266 4.62891-3.6084Q4.08203-5.24414 4.08203-7.05078Q4.08203-8.86719 4.62891-10.5029Q5.17578-12.1387 6.17188-13.501Q7.16797-14.8633 8.52539-15.8594Q9.88281-16.8555 11.5186-17.4023Q13.1543-17.9492 14.9609-17.9492Q16.7773-17.9492 18.4131-17.4023Q20.0488-16.8555 21.4111-15.8594Q22.7734-14.8633 23.7695-13.501Q24.7656-12.1387 25.3174-10.5029Q25.8691-8.86719 25.8691-7.05078Q25.8789-5.24414 25.332-3.6084Q24.7852-1.97266 23.7842-0.610352Q22.7832 0.751953 21.4209 1.74805Q20.0586 2.74414 18.4229 3.2959Q16.7871 3.84766 14.9707 3.84766ZM9.19922-7.05078Q9.19922-6.66992 9.45801-6.4209Q9.7168-6.17188 10.1172-6.17188L14.0625-6.17188L14.0625-2.2168Q14.0625-1.81641 14.3115-1.55762Q14.5605-1.29883 14.9512-1.29883Q15.3516-1.29883 15.6104-1.55273Q15.8691-1.80664 15.8691-2.2168L15.8691-6.17188L19.8242-6.17188Q20.2246-6.17188 20.4785-6.4209Q20.7324-6.66992 20.7324-7.05078Q20.7324-7.46094 20.4785-7.71484Q20.2246-7.96875 19.8242-7.96875L15.8691-7.96875L15.8691-11.9141Q15.8691-12.3242 15.6104-12.583Q15.3516-12.8418 14.9512-12.8418Q14.5605-12.8418 14.3115-12.583Q14.0625-12.3242 14.0625-11.9141L14.0625-7.96875L10.1172-7.96875Q9.70703-7.96875 9.45312-7.71484Q9.19922-7.46094 9.19922-7.05078Z"/>
  </g>
  <text style="stroke:none;fill:black;font-family:sans-serif;font-size:13;font-weight:bold;" transform="matrix(1 0 0 1 263 1953)">Design Variations</text>
  <text style="stroke:none;fill:black;font-family:sans-serif;font-size:13;" transform="matrix(1 0 0 1 263 1971)">Symbols are supported in up to nine weights and three scales.</text>
  <text style="stroke:none;fill:black;font-family:sans-serif;font-size:13;" transform="matrix(1 0 0 1 263 1989)">For optimal layout with text and other symbols, vertically align</text>
  <text style="stroke:none;fill:black;font-family:sans-serif;font-size:13;" transform="matrix(1 0 0 1 263 2007)">symbols with the adjacent text.</text>
  <line style="fill:none;stroke:#00AEEF;stroke-width:0.5;opacity:1.0;" x1="776" x2="776" y1="1919" y2="1933"/>
  <g transform="matrix(1 0 0 1 776 1933)">
   <path d="M3.31055 0.15625Q3.70117 0.15625 3.91602-0.00976562Q4.13086-0.175781 4.26758-0.585938L5.52734-4.0332L11.2891-4.0332L12.5488-0.585938Q12.6855-0.175781 12.9004-0.00976562Q13.1152 0.15625 13.4961 0.15625Q13.8867 0.15625 14.1162-0.0585938Q14.3457-0.273438 14.3457-0.644531Q14.3457-0.869141 14.2383-1.17188L9.6582-13.3691Q9.48242-13.8184 9.17969-14.043Q8.87695-14.2676 8.4082-14.2676Q7.5-14.2676 7.17773-13.3789L2.59766-1.16211Q2.49023-0.859375 2.49023-0.634766Q2.49023-0.263672 2.70996-0.0537109Q2.92969 0.15625 3.31055 0.15625ZM6.00586-5.51758L8.37891-12.0898L8.42773-12.0898L10.8008-5.51758Z"/>
  </g>
  <line style="fill:none;stroke:#00AEEF;stroke-width:0.5;opacity:1.0;" x1="793.197" x2="793.197" y1="1919" y2="1933"/>
  <text style="stroke:none;fill:black;font-family:sans-serif;font-size:13;font-weight:bold;" transform="matrix(1 0 0 1 776 1953)">Margins</text>
  <text style="stroke:none;fill:black;font-family:sans-serif;font-size:13;" transform="matrix(1 0 0 1 776 1971)">Leading and trailing margins on the left and right side of each symbol</text>
  <text style="stroke:none;fill:black;font-family:sans-serif;font-size:13;" transform="matrix(1 0 0 1 776 1989)">can be adjusted by modifying the x-location of the margin guidelines.</text>
  <text style="stroke:none;fill:black;font-family:sans-serif;font-size:13;" transform="matrix(1 0 0 1 776 2007)">Modifications are automatically applied proportionally to all</text>
  <text style="stroke:none;fill:black;font-family:sans-serif;font-size:13;" transform="matrix(1 0 0 1 776 2025)">scales and weights.</text>
  <g transform="matrix(1 0 0 1 1289 1933)">
   <path d="M2.8418 1.86523L4.54102 3.57422Q5.18555 4.22852 5.90332 4.17969Q6.62109 4.13086 7.31445 3.35938L18.0078-8.42773L17.041-9.4043L6.42578 2.27539Q6.16211 2.57812 5.89355 2.61719Q5.625 2.65625 5.27344 2.30469L4.10156 1.14258Q3.75 0.791016 3.79395 0.522461Q3.83789 0.253906 4.14062-0.0195312L15.6152-10.8203L14.6387-11.7871L3.04688-0.898438Q2.30469-0.214844 2.25098 0.498047Q2.19727 1.21094 2.8418 1.86523ZM9.25781-16.3281Q8.94531-16.0254 8.90625-15.6348Q8.86719-15.2441 9.04297-14.9512Q9.21875-14.6777 9.55566-14.541Q9.89258-14.4043 10.3809-14.5215Q11.4746-14.7754 12.5977-14.7314Q13.7207-14.6875 14.7949-13.9844L14.209-12.5293Q13.9551-11.9043 14.0674-11.4404Q14.1797-10.9766 14.5801-10.5664L16.875-8.25195Q17.2363-7.88086 17.5781-7.82227Q17.9199-7.76367 18.3398-7.8418L19.4043-8.03711L20.0684-7.36328L20.0293-6.80664Q20-6.43555 20.1221-6.12305Q20.2441-5.81055 20.6055-5.44922L21.3672-4.70703Q21.7285-4.3457 22.1533-4.33105Q22.5781-4.31641 22.9297-4.66797L25.8398-7.58789Q26.1914-7.93945 26.1816-8.35449Q26.1719-8.76953 25.8105-9.13086L25.0391-9.89258Q24.6875-10.2539 24.3799-10.3857Q24.0723-10.5176 23.7109-10.4883L23.1348-10.4395L22.4902-11.0742L22.7344-12.1973Q22.832-12.6172 22.6953-12.9834Q22.5586-13.3496 22.1191-13.7891L19.9219-15.9766Q18.6719-17.2168 17.2607-17.8369Q15.8496-18.457 14.4189-18.4814Q12.9883-18.5059 11.665-17.959Q10.3418-17.4121 9.25781-16.3281ZM10.752-15.957Q11.6602-16.6211 12.7002-16.9043Q13.7402-17.1875 14.8047-17.085Q15.8691-16.9824 16.8701-16.5137Q17.8711-16.0449 18.7012-15.2051L21.1328-12.793Q21.3086-12.6172 21.3525-12.4512Q21.3965-12.2852 21.3379-12.0312L21.0156-10.5469L22.5195-9.0625L23.5059-9.12109Q23.6914-9.13086 23.7891-9.09668Q23.8867-9.0625 24.0332-8.91602L24.6094-8.33984L22.168-5.89844L21.5918-6.47461Q21.4453-6.62109 21.4062-6.71875Q21.3672-6.81641 21.377-7.01172L21.4453-7.98828L19.9512-9.47266L18.4277-9.21875Q18.1836-9.16992 18.042-9.2041Q17.9004-9.23828 17.7148-9.41406L15.7129-11.416Q15.5176-11.5918 15.4932-11.7529Q15.4688-11.9141 15.5859-12.1875L16.4648-14.2773Q15.293-15.3711 13.8281-15.791Q12.3633-16.2109 10.8398-15.7617Q10.7227-15.7324 10.6885-15.8057Q10.6543-15.8789 10.752-15.957Z"/>
  </g>
  <text style="stroke:none;fill:black;font-family:sans-serif;font-size:13;font-weight:bold;" transform="matrix(1 0 0 1 1289 1953)">Exporting</text>
  <text style="stroke:none;fill:black;font-family:sans-serif;font-size:13;" transform="matrix(1 0 0 1 1289 1971)">Symbols should be outlined when exporting to ensure the</text>
  <text style="stroke:none;fill:black;font-family:sans-serif;font-size:13;" transform="matrix(1 0 0 1 1289 1989)">design is preserved when submitting to Xcode.</text>
  <text id="template-version" style="stroke:none;fill:black;font-family:sans-serif;font-size:13;text-anchor:end;" transform="matrix(1 0 0 1 3036 1933)">Template v.3.0</text>
  <text style="stroke:none;fill:black;font-family:sans-serif;font-size:13;text-anchor:end;" transform="matrix(1 0 0 1 3036 1951)">Requires Xcode 13 or greater</text>
  <text id="descriptive-name" style="stroke:none;fill:black;font-family:sans-serif;font-size:13;text-anchor:end;" transform="matrix(1 0 0 1 3036 1969)">Generated from move</text>
  <text style="stroke:none;fill:black;font-family:sans-serif;font-size:13;text-anchor:end;" transform="matrix(1 0 0 1 3036 1987)">Typeset at 100 points</text>
  <text style="stroke:none;fill:black;font-family:sans-serif;font-size:13;" transform="matrix(1 0 0 1 263 726)">Small</text>
  <text style="stroke:none;fill:black;font-family:sans-serif;font-size:13;" transform="matrix(1 0 0 1 263 1156)">Medium</text>
  <text style="stroke:none;fill:black;font-family:sans-serif;font-size:13;" transform="matrix(1 0 0 1 263 1586)">Large</text>
 </g>
 <g id="Guides">
  <g id="H-reference" style="fill:#27AAE1;stroke:none;" transform="matrix(1 0 0 1 339 696)">
   <path d="M0.976562 0L3.66211 0L29.3457-67.1387L30.0293-67.1387L30.0293-70.459L28.125-70.459ZM11.6699-24.4629L46.9727-24.4629L46.2402-26.709L12.4512-26.709ZM55.127 0L57.7637 0L30.6152-70.459L29.4434-70.459L29.4434-67.1387Z"/>
  </g>
  <line id="Baseline-S" style="fill:none;stroke:#27AAE1;opacity:1;stroke-width:0.5;" x1="263" x2="3036" y1="696" y2="696"/>
  <line id="Capline-S" style="fill:none;stroke:#27AAE1;opacity:1;stroke-width:0.5;" x1="263" x2="3036" y1="625.541" y2="625.541"/>
  <g id="H-reference" style="fill:#27AAE1;stroke:none;" transform="matrix(1 0 0 1 339 1126)">
   <path d="M0.976562 0L3.66211 0L29.3457-67.1387L30.0293-67.1387L30.0293-70.459L28.125-70.459ZM11.6699-24.4629L46.9727-24.4629L46.2402-26.709L12.4512-26.709ZM55.127 0L57.7637 0L30.6152-70.459L29.4434-70.459L29.4434-67.1387Z"/>
  </g>
  <line id="Baseline-M" style="fill:none;stroke:#27AAE1;opacity:1;stroke-width:0.5;" x1="263" x2="3036" y1="1126" y2="1126"/>
  <line id="Capline-M" style="fill:none;stroke:#27AAE1;opacity:1;stroke-width:0.5;" x1="263" x2="3036" y1="1055.54" y2="1055.54"/>
  <g id="H-reference" style="fill:#27AAE1;stroke:none;" transform="matrix(1 0 0 1 339 1556)">
   <path d="M0.976562 0L3.66211 0L29.3457-67.1387L30.0293-67.1387L30.0293-70.459L28.125-70.459ZM11.6699-24.4629L46.9727-24.4629L46.2402-26.709L12.4512-26.709ZM55.127 0L57.7637 0L30.6152-70.459L29.4434-70.459L29.4434-67.1387Z"/>
  </g>
  <line id="Baseline-L" style="fill:none;stroke:#27AAE1;opacity:1;stroke-width:0.5;" x1="263" x2="3036" y1="1556" y2="1556"/>
  <line id="Capline-L" style="fill:none;stroke:#27AAE1;opacity:1;stroke-width:0.5;" x1="263" x2="3036" y1="1485.54" y2="1485.54"/>
  <line id="left-margin-Regular-M" style="fill:none;stroke:#00AEEF;stroke-width:0.5;opacity:1.0;" x1="1393.13" x2="1393.13" y1="1030.78" y2="1150.12"/>
  <line id="right-margin-Regular-M" style="fill:none;stroke:#00AEEF;stroke-width:0.5;opacity:1.0;" x1="1506.56" x2="1506.56" y1="1030.78" y2="1150.12"/>
 </g>
 <g id="Symbols">
  <g id="Black-L" transform="matrix(1 0 0 1 2860.84 1556)">
   <path d="M50.635-1.83C53.405-4.6 57.905-4.6 60.675-1.83L72.715 10.21L84.755-1.83C87.535-4.6 92.025-4.6 94.795-1.83C97.575 0.95 97.575 5.44 94.795 8.21L77.735 25.28C74.965 28.05 70.465 28.05 67.695 25.28L50.635 8.21C47.855 5.44 47.855 0.95 50.635-1.83ZM107.505-58.7C110.285-61.47 114.775-61.47 117.545-58.7L134.616-41.64C137.386-38.87 137.386-34.37 134.616-31.6L117.545-14.54C114.775-11.76 110.285-11.76 107.505-14.54C104.735-17.31 104.735-21.8 107.505-24.58L119.545-36.62L107.505-48.66C104.735-51.43 104.735-55.93 107.505-58.7ZM37.925-58.7C40.695-55.93 40.695-51.43 37.925-48.66L25.885-36.62L37.925-24.58C40.695-21.8 40.695-17.31 37.925-14.54C35.155-11.76 30.655-11.76 27.885-14.54L10.815-31.6C8.045-34.37 8.045-38.87 10.815-41.64L27.885-58.7C30.655-61.47 35.155-61.47 37.925-58.7ZM8.745-36.62C8.745-40.54 11.915-43.72 15.845-43.72L129.596-43.72C133.515-43.72 136.696-40.54 136.696-36.62C136.696-32.7 133.515-29.52 129.596-29.52L15.845-29.52C11.915-29.52 8.745-32.7 8.745-36.62ZM67.695-98.51C70.465-101.29 74.965-101.29 77.735-98.51L94.795-81.45C97.575-78.68 97.575-74.18 94.795-71.41C92.025-68.64 87.535-68.64 84.755-71.41L72.715-83.45L60.675-71.41C57.905-68.64 53.405-68.64 50.635-71.41C47.855-74.18 47.855-78.68 50.635-81.45L67.695-98.51ZM72.715-100.59C76.635-100.59 79.815-97.42 79.815-93.49L79.815 20.26C79.815 24.18 76.635 27.36 72.715 27.36C68.795 27.36 65.615 24.18 65.615 20.26L65.615-93.49C65.615-97.42 68.795-100.59 72.715-100.59Z"/>
  </g>
  <g id="Heavy-L" transform="matrix(1 0 0 1 2564.98 1556)">
   <path d="M50.3875-1.06C52.8275-3.5 56.7775-3.5 59.2175-1.06L71.8675 11.59L84.5075-1.06C86.9475-3.5 90.9075-3.5 93.3475-1.06C95.7875 1.38 95.7875 5.34 93.3475 7.78L76.2875 24.84C73.8475 27.29 69.8875 27.29 67.4475 24.84L50.3875 7.78C47.9475 5.34 47.9475 1.38 50.3875-1.06ZM107.258-57.93C109.698-60.37 113.658-60.37 116.098-57.93L133.158-40.87C135.598-38.43 135.598-34.47 133.158-32.03L116.098-14.97C113.658-12.53 109.698-12.53 107.258-14.97C104.817-17.41 104.817-21.37 107.258-23.81L119.897-36.45L107.258-49.09C104.817-51.53 104.817-55.49 107.258-57.93ZM36.4675-57.93C38.9175-55.49 38.9175-51.53 36.4675-49.09L23.8275-36.45L36.4675-23.81C38.9175-21.37 38.9175-17.41 36.4675-14.97C34.0275-12.53 30.0775-12.53 27.6375-14.97L10.5675-32.03C8.1275-34.47 8.1275-38.43 10.5675-40.87L27.6375-57.93C30.0775-60.37 34.0275-60.37 36.4675-57.93ZM8.7375-36.45C8.7375-39.9 11.5375-42.7 14.9875-42.7L128.738-42.7C132.188-42.7 134.988-39.9 134.988-36.45C134.988-33 132.188-30.2 128.738-30.2L14.9875-30.2C11.5375-30.2 8.7375-33 8.7375-36.45ZM67.4475-97.74C69.8875-100.18 73.8475-100.18 76.2875-97.74L93.3475-80.68C95.7875-78.24 95.7875-74.28 93.3475-71.84C90.9075-69.4 86.9475-69.4 84.5075-71.84L71.8675-84.49L59.2175-71.84C56.7775-69.4 52.8275-69.4 50.3875-71.84C47.9475-74.28 47.9475-78.24 50.3875-80.68L67.4475-97.74ZM71.8675-99.57C75.3175-99.57 78.1175-96.78 78.1175-93.32L78.1175 20.43C78.1175 23.88 75.3175 26.68 71.8675 26.68C68.4175 26.68 65.6175 23.88 65.6175 20.43L65.6175-93.32C65.6175-96.78 68.4175-99.57 71.8675-99.57Z"/>
  </g>
  <g id="Bold-L" transform="matrix(1 0 0 1 2269.22 1556)">
   <path d="M50.1-0.195C52.17-2.265 55.53-2.265 57.6-0.195L70.92 13.115L84.23-0.195C86.3-2.265 89.66-2.265 91.73-0.195C93.79 1.875 93.79 5.225 91.73 7.295L74.66 24.355C72.59 26.425 69.24 26.425 67.17 24.355L50.1 7.295C48.04 5.225 48.04 1.875 50.1-0.195ZM106.98-57.075C109.049-59.145 112.409-59.145 114.48-57.075L131.539-40.015C133.61-37.945 133.61-34.585 131.539-32.515L114.48-15.455C112.409-13.385 109.049-13.385 106.98-15.455C104.909-17.525 104.909-20.875 106.98-22.945L120.289-36.265L106.98-49.575C104.909-51.645 104.909-55.005 106.98-57.075ZM34.85-57.075C36.92-55.005 36.92-51.645 34.85-49.575L21.54-36.265L34.85-22.945C36.92-20.875 36.92-17.525 34.85-15.455C32.78-13.385 29.42-13.385 27.35-15.455L10.29-32.515C8.22-34.585 8.22-37.945 10.29-40.015L27.35-57.075C29.42-59.145 32.78-59.145 34.85-57.075ZM8.74-36.265C8.74-39.195 11.11-41.565 14.04-41.565L127.789-41.565C130.719-41.565 133.089-39.195 133.089-36.265C133.089-33.335 130.719-30.965 127.789-30.965L14.04-30.965C11.11-30.965 8.74-33.335 8.74-36.265ZM67.17-96.885C69.24-98.955 72.59-98.955 74.66-96.885L91.73-79.825C93.79-77.755 93.79-74.395 91.73-72.325C89.66-70.255 86.3-70.255 84.23-72.325L70.92-85.645L57.6-72.325C55.53-70.255 52.17-70.255 50.1-72.325C48.04-74.395 48.04-77.755 50.1-79.825L67.17-96.885ZM70.92-98.435C73.84-98.435 76.22-96.065 76.22-93.135L76.22 20.615C76.22 23.535 73.84 25.915 70.92 25.915C67.99 25.915 65.62 23.535 65.62 20.615L65.62-93.135C65.62-96.065 67.99-98.435 70.92-98.435Z"/>
  </g>
  <g id="Semibold-L" transform="matrix(1 0 0 1 1973.15 1556)">
   <path d="M49.9125 0.38C51.7325-1.43 54.6725-1.43 56.4925 0.38L70.2625 14.16L84.0325 0.38C85.8525-1.43 88.7925-1.43 90.6125 0.38C92.4325 2.2 92.4325 5.14 90.6125 6.96L73.5525 24.02C71.7325 25.84 68.7925 25.84 66.9725 24.02L49.9125 6.96C48.0925 5.14 48.0925 2.2 49.9125 0.38ZM106.782-56.49C108.603-58.31 111.543-58.31 113.362-56.49L130.422-39.43C132.243-37.61 132.243-34.67 130.422-32.85L113.362-15.79C111.543-13.97 108.603-13.97 106.782-15.79C104.973-17.61 104.973-20.55 106.782-22.37L120.563-36.14L106.782-49.91C104.973-51.73 104.973-54.67 106.782-56.49ZM33.7425-56.49C35.5525-54.67 35.5525-51.73 33.7425-49.91L19.9625-36.14L33.7425-22.37C35.5525-20.55 35.5525-17.61 33.7425-15.79C31.9225-13.97 28.9825-13.97 27.1625-15.79L10.1025-32.85C8.2825-34.67 8.2825-37.61 10.1025-39.43L27.1625-56.49C28.9825-58.31 31.9225-58.31 33.7425-56.49ZM8.7425-36.14C8.7425-38.71 10.8225-40.79 13.3925-40.79L127.143-40.79C129.703-40.79 131.792-38.71 131.792-36.14C131.792-33.57 129.703-31.49 127.143-31.49L13.3925-31.49C10.8225-31.49 8.7425-33.57 8.7425-36.14ZM66.9725-96.3C68.7925-98.12 71.7325-98.12 73.5525-96.3L90.6125-79.24C92.4325-77.42 92.4325-74.48 90.6125-72.66C88.7925-70.85 85.8525-70.85 84.0325-72.66L70.2625-86.44L56.4925-72.66C54.6725-70.85 51.7325-70.85 49.9125-72.66C48.0925-74.48 48.0925-77.42 49.9125-79.24L66.9725-96.3ZM70.2625-97.66C72.8325-97.66 74.9125-95.58 74.9125-93.01L74.9125 20.74C74.9125 23.3 72.8325 25.39 70.2625 25.39C67.6925 25.39 65.6125 23.3 65.6125 20.74L65.6125-93.01C65.6125-95.58 67.6925-97.66 70.2625-97.66Z"/>
  </g>
  <g id="Medium-L" transform="matrix(1 0 0 1 1676.94 1556)">
   <path d="M49.7625 0.84C51.3825-0.78 54.0125-0.78 55.6325 0.84L69.7625 14.97L83.8925 0.84C85.5125-0.78 88.1425-0.78 89.7625 0.84C91.3825 2.46 91.3825 5.09 89.7625 6.71L72.6925 23.77C71.0725 25.39 68.4525 25.39 66.8325 23.77L49.7625 6.71C48.1425 5.09 48.1425 2.46 49.7625 0.84ZM106.642-56.04C108.262-57.66 110.892-57.66 112.512-56.04L129.572-38.97C131.193-37.35 131.193-34.73 129.572-33.11L112.512-16.04C110.892-14.42 108.262-14.42 106.642-16.04C105.022-17.66 105.022-20.29 106.642-21.91L120.772-36.04L106.642-50.17C105.022-51.79 105.022-54.42 106.642-56.04ZM32.8825-56.04C34.5025-54.42 34.5025-51.79 32.8825-50.17L18.7525-36.04L32.8825-21.91C34.5025-20.29 34.5025-17.66 32.8825-16.04C31.2625-14.42 28.6325-14.42 27.0125-16.04L9.9525-33.11C8.3325-34.73 8.3325-37.35 9.9525-38.97L27.0125-56.04C28.6325-57.66 31.2625-57.66 32.8825-56.04ZM8.7425-36.04C8.7425-38.33 10.5925-40.19 12.8925-40.19L126.642-40.19C128.933-40.19 130.792-38.33 130.792-36.04C130.792-33.75 128.933-31.89 126.642-31.89L12.8925-31.89C10.5925-31.89 8.7425-33.75 8.7425-36.04ZM66.8325-95.85C68.4525-97.47 71.0725-97.47 72.6925-95.85L89.7625-78.79C91.3825-77.17 91.3825-74.54 89.7625-72.92C88.1425-71.3 85.5125-71.3 83.8925-72.92L69.7625-87.05L55.6325-72.92C54.0125-71.3 51.3825-71.3 49.7625-72.92C48.1425-74.54 48.1425-77.17 49.7625-78.79L66.8325-95.85ZM69.7625-97.06C72.0525-97.06 73.9125-95.21 73.9125-92.91L73.9125 20.84C73.9125 23.13 72.0525 24.99 69.7625 24.99C67.4725 24.99 65.6125 23.13 65.6125 20.84L65.6125-92.91C65.6125-95.21 67.4725-97.06 69.7625-97.06Z"/>
  </g>
  <g id="Regular-L" transform="matrix(1 0 0 1 1380.88 1556)">
   <path d="M49.5775 1.425C50.9475 0.055 53.1675 0.055 54.5275 1.425L69.1175 16.015L83.7075 1.425C85.0675 0.055 87.2875 0.055 88.6575 1.425C90.0175 2.785 90.0175 5.005 88.6575 6.375L71.5875 23.435C70.2275 24.805 68.0075 24.805 66.6475 23.435L49.5775 6.375C48.2175 5.005 48.2175 2.785 49.5775 1.425ZM106.457-55.455C107.818-56.815 110.038-56.815 111.408-55.455L128.467-38.385C129.838-37.025 129.838-34.805 128.467-33.435L111.408-16.375C110.038-15.015 107.818-15.015 106.457-16.375C105.088-17.745 105.088-19.965 106.457-21.325L121.048-35.915L106.457-50.505C105.088-51.865 105.088-54.085 106.457-55.455ZM31.7775-55.455C33.1475-54.085 33.1475-51.865 31.7775-50.505L17.1875-35.915L31.7775-21.325C33.1475-19.965 33.1475-17.745 31.7775-16.375C30.4175-15.015 28.1975-15.015 26.8275-16.375L9.7675-33.435C8.3975-34.805 8.3975-37.025 9.7675-38.385L26.8275-55.455C28.1975-56.815 30.4175-56.815 31.7775-55.455ZM8.7375-35.915C8.7375-37.845 10.3075-39.415 12.2375-39.415L125.997-39.415C127.928-39.415 129.497-37.845 129.497-35.915C129.497-33.985 127.928-32.415 125.997-32.415L12.2375-32.415C10.3075-32.415 8.7375-33.985 8.7375-35.915ZM66.6475-95.265C68.0075-96.635 70.2275-96.635 71.5875-95.265L88.6575-78.205C90.0175-76.835 90.0175-74.615 88.6575-73.255C87.2875-71.885 85.0675-71.885 83.7075-73.255L69.1175-87.835L54.5275-73.255C53.1675-71.885 50.9475-71.885 49.5775-73.255C48.2175-74.615 48.2175-76.835 49.5775-78.205L66.6475-95.265ZM69.1175-96.285C71.0475-96.285 72.6175-94.725 72.6175-92.785L72.6175 20.965C72.6175 22.895 71.0475 24.465 69.1175 24.465C67.1875 24.465 65.6175 22.895 65.6175 20.965L65.6175-92.785C65.6175-94.725 67.1875-96.285 69.1175-96.285Z"/>
  </g>
  <g id="Light-L" transform="matrix(1 0 0 1 1084.97 1556)">
   <path d="M49.3475 2.14C50.3975 1.09 52.1075 1.09 53.1675 2.14L68.3175 17.3L83.4675 2.14C84.5275 1.09 86.2375 1.09 87.2875 2.14C88.3475 3.2 88.3475 4.91 87.2875 5.96L70.2275 23.02C69.1675 24.08 67.4675 24.08 66.4075 23.02L49.3475 5.96C48.2875 4.91 48.2875 3.2 49.3475 2.14ZM106.217-54.73C107.277-55.79 108.987-55.79 110.038-54.73L127.098-37.67C128.158-36.61 128.158-34.9 127.098-33.85L110.038-16.79C108.987-15.73 107.277-15.73 106.217-16.79C105.168-17.84 105.168-19.55 106.217-20.61L121.378-35.76L106.217-50.91C105.168-51.97 105.168-53.68 106.217-54.73ZM30.4175-54.73C31.4675-53.68 31.4675-51.97 30.4175-50.91L15.2575-35.76L30.4175-20.61C31.4675-19.55 31.4675-17.84 30.4175-16.79C29.3575-15.73 27.6475-15.73 26.5975-16.79L9.5375-33.85C8.4775-34.9 8.4775-36.61 9.5375-37.67L26.5975-54.73C27.6475-55.79 29.3575-55.79 30.4175-54.73ZM8.7375-35.76C8.7375-37.25 9.9475-38.46 11.4375-38.46L125.188-38.46C126.688-38.46 127.888-37.25 127.888-35.76C127.888-34.27 126.688-33.06 125.188-33.06L11.4375-33.06C9.9475-33.06 8.7375-34.27 8.7375-35.76ZM66.4075-94.54C67.4675-95.6 69.1675-95.6 70.2275-94.54L87.2875-77.48C88.3475-76.43 88.3475-74.72 87.2875-73.66C86.2375-72.61 84.5275-72.61 83.4675-73.66L68.3175-88.82L53.1675-73.66C52.1075-72.61 50.3975-72.61 49.3475-73.66C48.2875-74.72 48.2875-76.43 49.3475-77.48L66.4075-94.54ZM68.3175-95.33C69.8075-95.33 71.0175-94.13 71.0175-92.63L71.0175 21.12C71.0175 22.61 69.8075 23.82 68.3175 23.82C66.8275 23.82 65.6175 22.61 65.6175 21.12L65.6175-92.63C65.6175-94.13 66.8275-95.33 68.3175-95.33Z"/>
  </g>
  <g id="Thin-L" transform="matrix(1 0 0 1 789.312 1556)">
   <path d="M49.0335 3.095C49.6775 2.445 50.7225 2.445 51.3665 3.095L67.2625 18.985L83.1585 3.095C83.8025 2.445 84.8475 2.445 85.4915 3.095C86.1365 3.735 86.1365 4.775 85.4915 5.425L68.4295 22.485C67.7845 23.135 66.7405 23.135 66.0955 22.485L49.0335 5.425C48.3895 4.775 48.3895 3.735 49.0335 3.095ZM105.908-53.785C106.552-54.425 107.598-54.425 108.242-53.785L125.305-36.725C125.948-36.075 125.948-35.035 125.305-34.385L108.242-17.325C107.598-16.685 106.552-16.685 105.908-17.325C105.264-17.975 105.264-19.015 105.908-19.655L121.805-35.555L105.908-51.455C105.264-52.095 105.264-53.135 105.908-53.785ZM28.6165-53.785C29.2615-53.135 29.2615-52.095 28.6165-51.455L12.7215-35.555L28.6165-19.655C29.2615-19.015 29.2615-17.975 28.6165-17.325C27.9725-16.685 26.9275-16.685 26.2835-17.325L9.2205-34.385C8.5765-35.035 8.5765-36.075 9.2205-36.725L26.2835-53.785C26.9275-54.425 27.9725-54.425 28.6165-53.785ZM8.7375-35.555C8.7375-36.465 9.4765-37.205 10.3875-37.205L124.137-37.205C125.048-37.205 125.787-36.465 125.787-35.555C125.787-34.645 125.048-33.905 124.137-33.905L10.3875-33.905C9.4765-33.905 8.7375-34.645 8.7375-35.555ZM66.0955-93.595C66.7405-94.245 67.7845-94.245 68.4295-93.595L85.4915-76.535C86.1365-75.885 86.1365-74.845 85.4915-74.205C84.8475-73.555 83.8025-73.555 83.1585-74.205L67.2625-90.095L51.3665-74.205C50.7225-73.555 49.6775-73.555 49.0335-74.205C48.3895-74.845 48.3895-75.885 49.0335-76.535L66.0955-93.595ZM67.2625-94.075C68.1735-94.075 68.9125-93.345 68.9125-92.425L68.9125 21.325C68.9125 22.235 68.1735 22.975 67.2625 22.975C66.3515 22.975 65.6125 22.235 65.6125 21.325L65.6125-92.425C65.6125-93.345 66.3515-94.075 67.2625-94.075Z"/>
  </g>
  <g id="Ultralight-L" transform="matrix(1 0 0 1 493.151 1556)">
   <path d="M48.8725 3.595C49.3015 3.165 49.9985 3.165 50.4275 3.595L66.7125 19.875L82.9975 3.595C83.4265 3.165 84.1235 3.165 84.5525 3.595C84.9825 4.025 84.9825 4.715 84.5525 5.145L67.4905 22.205C67.0605 22.635 66.3645 22.635 65.9345 22.205L48.8725 5.145C48.4425 4.715 48.4425 4.025 48.8725 3.595ZM105.747-53.285C106.176-53.715 106.873-53.715 107.303-53.285L124.365-36.225C124.794-35.795 124.794-35.095 124.365-34.665L107.303-17.605C106.873-17.175 106.176-17.175 105.747-17.605C105.317-18.035 105.317-18.725 105.747-19.155L122.031-35.445L105.747-51.725C105.317-52.155 105.317-52.855 105.747-53.285ZM27.6775-53.285C28.1075-52.855 28.1075-52.155 27.6775-51.725L11.3935-35.445L27.6775-19.155C28.1075-18.725 28.1075-18.035 27.6775-17.605C27.2485-17.175 26.5515-17.175 26.1225-17.605L9.0595-34.665C8.6305-35.095 8.6305-35.795 9.0595-36.225L26.1225-53.285C26.5515-53.715 27.2485-53.715 27.6775-53.285ZM8.7375-35.445C8.7375-36.055 9.2295-36.545 9.8375-36.545L123.587-36.545C124.194-36.545 124.688-36.055 124.688-35.445C124.688-34.835 124.194-34.345 123.587-34.345L9.8375-34.345C9.2295-34.345 8.7375-34.835 8.7375-35.445ZM65.9345-93.095C66.3645-93.525 67.0605-93.525 67.4905-93.095L84.5525-76.035C84.9825-75.605 84.9825-74.905 84.5525-74.475C84.1235-74.045 83.4265-74.045 82.9975-74.475L66.7125-90.765L50.4275-74.475C49.9985-74.045 49.3015-74.045 48.8725-74.475C48.4425-74.905 48.4425-75.605 48.8725-76.035L65.9345-93.095ZM66.7125-93.415C67.3195-93.415 67.8125-92.925 67.8125-92.315L67.8125 21.435C67.8125 22.035 67.3195 22.535 66.7125 22.535C66.1045 22.535 65.6125 22.035 65.6125 21.435L65.6125-92.315C65.6125-92.925 66.1045-93.415 66.7125-93.415Z"/>
  </g>
  <g id="Black-M" transform="matrix(1 0 0 1 2873.09 1126)">
   <path d="M42.0575-10.4C44.8275-13.17 49.3175-13.17 52.0975-10.4L60.4575-2.04L68.8275-10.4C71.5975-13.17 76.0975-13.17 78.8675-10.4C81.6375-7.63 81.6375-3.13 78.8675-0.36L65.4775 13.03C62.7075 15.8 58.2175 15.8 55.4375 13.03L42.0575-0.36C39.2775-3.13 39.2775-7.63 42.0575-10.4ZM86.6775-55.03C89.4475-57.8 93.9475-57.8 96.7175-55.03L110.107-41.64C112.877-38.87 112.877-34.37 110.107-31.6L96.7175-18.21C93.9475-15.44 89.4475-15.44 86.6775-18.21C83.9075-20.98 83.9075-25.48 86.6775-28.25L95.0475-36.62L86.6775-44.99C83.9075-47.76 83.9075-52.25 86.6775-55.03ZM34.2475-55.03C37.0175-52.25 37.0175-47.76 34.2475-44.99L25.8775-36.62L34.2475-28.25C37.0175-25.48 37.0175-20.98 34.2475-18.21C31.4675-15.44 26.9775-15.44 24.2075-18.21L10.8175-31.6C8.0475-34.37 8.0475-38.87 10.8175-41.64L24.2075-55.03C26.9775-57.8 31.4675-57.8 34.2475-55.03ZM8.7375-36.62C8.7375-40.54 11.9175-43.72 15.8375-43.72L105.087-43.72C109.007-43.72 112.188-40.54 112.188-36.62C112.188-32.7 109.007-29.52 105.087-29.52L15.8375-29.52C11.9175-29.52 8.7375-32.7 8.7375-36.62ZM55.4375-86.26C58.2175-89.04 62.7075-89.04 65.4775-86.26L78.8675-72.88C81.6375-70.1 81.6375-65.61 78.8675-62.84C76.0975-60.06 71.5975-60.06 68.8275-62.84L60.4575-71.2L52.0975-62.84C49.3175-60.06 44.8275-60.06 42.0575-62.84C39.2775-65.61 39.2775-70.1 42.0575-72.88L55.4375-86.26ZM60.4575-88.34C64.3875-88.34 67.5575-85.17 67.5575-81.24L67.5575 8.01C67.5575 11.93 64.3875 15.11 60.4575 15.11C56.5375 15.11 53.3575 11.93 53.3575 8.01L53.3575-81.24C53.3575-85.17 56.5375-88.34 60.4575-88.34Z"/>
  </g>
  <g id="Heavy-M" transform="matrix(1 0 0 1 2577.23 1126)">
   <path d="M41.8075-9.63C44.2475-12.07 48.2075-12.07 50.6475-9.63L59.6075-0.66L68.5775-9.63C71.0175-12.07 74.9775-12.07 77.4175-9.63C79.8575-7.19 79.8575-3.23 77.4175-0.79L64.0275 12.59C61.5875 15.04 57.6375 15.04 55.1975 12.59L41.8075-0.79C39.3675-3.23 39.3675-7.19 41.8075-9.63ZM86.4275-54.26C88.8675-56.7 92.8275-56.7 95.2675-54.26L108.658-40.87C111.098-38.43 111.098-34.47 108.658-32.03L95.2675-18.64C92.8275-16.2 88.8675-16.2 86.4275-18.64C83.9875-21.08 83.9875-25.04 86.4275-27.48L95.3975-36.45L86.4275-45.42C83.9875-47.86 83.9875-51.82 86.4275-54.26ZM32.7975-54.26C35.2375-51.82 35.2375-47.86 32.7975-45.42L23.8275-36.45L32.7975-27.48C35.2375-25.04 35.2375-21.08 32.7975-18.64C30.3575-16.2 26.3975-16.2 23.9575-18.64L10.5675-32.03C8.1275-34.47 8.1275-38.43 10.5675-40.87L23.9575-54.26C26.3975-56.7 30.3575-56.7 32.7975-54.26ZM8.7375-36.45C8.7375-39.9 11.5375-42.7 14.9875-42.7L104.238-42.7C107.688-42.7 110.488-39.9 110.488-36.45C110.488-33 107.688-30.2 104.238-30.2L14.9875-30.2C11.5375-30.2 8.7375-33 8.7375-36.45ZM55.1975-85.49C57.6375-87.93 61.5875-87.93 64.0275-85.49L77.4175-72.11C79.8575-69.67 79.8575-65.71 77.4175-63.27C74.9775-60.83 71.0175-60.83 68.5775-63.27L59.6075-72.24L50.6475-63.27C48.2075-60.83 44.2475-60.83 41.8075-63.27C39.3675-65.71 39.3675-69.67 41.8075-72.11L55.1975-85.49ZM59.6075-87.32C63.0675-87.32 65.8575-84.53 65.8575-81.07L65.8575 8.18C65.8575 11.63 63.0675 14.43 59.6075 14.43C56.1575 14.43 53.3575 11.63 53.3575 8.18L53.3575-81.07C53.3575-84.53 56.1575-87.32 59.6075-87.32Z"/>
  </g>
  <g id="Bold-M" transform="matrix(1 0 0 1 2281.47 1126)">
   <path d="M41.53-8.775C43.6-10.845 46.96-10.845 49.03-8.775L58.67 0.865L68.3-8.775C70.37-10.845 73.73-10.845 75.8-8.775C77.87-6.705 77.87-3.345 75.8-1.275L62.41 12.105C60.34 14.175 56.99 14.175 54.92 12.105L41.53-1.275C39.46-3.345 39.46-6.705 41.53-8.775ZM86.15-53.395C88.22-55.465 91.58-55.465 93.65-53.395L107.039-40.015C109.11-37.945 109.11-34.585 107.039-32.515L93.65-19.125C91.58-17.055 88.22-17.055 86.15-19.125C84.09-21.195 84.09-24.555 86.15-26.625L95.79-36.265L86.15-45.905C84.09-47.975 84.09-51.325 86.15-53.395ZM31.18-53.395C33.24-51.325 33.24-47.975 31.18-45.905L21.54-36.265L31.18-26.625C33.24-24.555 33.24-21.195 31.18-19.125C29.11-17.055 25.75-17.055 23.68-19.125L10.29-32.515C8.22-34.585 8.22-37.945 10.29-40.015L23.68-53.395C25.75-55.465 29.11-55.465 31.18-53.395ZM8.74-36.265C8.74-39.195 11.11-41.565 14.04-41.565L103.289-41.565C106.219-41.565 108.589-39.195 108.589-36.265C108.589-33.335 106.219-30.965 103.289-30.965L14.04-30.965C11.11-30.965 8.74-33.335 8.74-36.265ZM54.92-84.635C56.99-86.705 60.34-86.705 62.41-84.635L75.8-71.245C77.87-69.175 77.87-65.825 75.8-63.755C73.73-61.685 70.37-61.685 68.3-63.755L58.67-73.395L49.03-63.755C46.96-61.685 43.6-61.685 41.53-63.755C39.46-65.825 39.46-69.175 41.53-71.245L54.92-84.635ZM58.67-86.185C61.59-86.185 63.97-83.815 63.97-80.885L63.97 8.365C63.97 11.285 61.59 13.665 58.67 13.665C55.74 13.665 53.37 11.285 53.37 8.365L53.37-80.885C53.37-83.815 55.74-86.185 58.67-86.185Z"/>
  </g>
  <g id="Semibold-M" transform="matrix(1 0 0 1 1985.4 1126)">
   <path d="M41.3325-8.19C43.1525-10.01 46.0925-10.01 47.9125-8.19L58.0125 1.91L68.1125-8.19C69.9325-10.01 72.8725-10.01 74.6925-8.19C76.5025-6.37 76.5025-3.43 74.6925-1.61L61.3025 11.77C59.4825 13.59 56.5425 13.59 54.7225 11.77L41.3325-1.61C39.5225-3.43 39.5225-6.37 41.3325-8.19ZM85.9625-52.81C87.7825-54.63 90.7225-54.63 92.5425-52.81L105.922-39.43C107.743-37.61 107.743-34.67 105.922-32.85L92.5425-19.46C90.7225-17.65 87.7825-17.65 85.9625-19.46C84.1425-21.28 84.1425-24.22 85.9625-26.04L96.0625-36.14L85.9625-46.24C84.1425-48.05 84.1425-51 85.9625-52.81ZM30.0625-52.81C31.8825-51 31.8825-48.05 30.0625-46.24L19.9625-36.14L30.0625-26.04C31.8825-24.22 31.8825-21.28 30.0625-19.46C28.2425-17.65 25.3025-17.65 23.4825-19.46L10.1025-32.85C8.2825-34.67 8.2825-37.61 10.1025-39.43L23.4825-52.81C25.3025-54.63 28.2425-54.63 30.0625-52.81ZM8.7425-36.14C8.7425-38.71 10.8225-40.79 13.3925-40.79L102.643-40.79C105.203-40.79 107.293-38.71 107.293-36.14C107.293-33.57 105.203-31.49 102.643-31.49L13.3925-31.49C10.8225-31.49 8.7425-33.57 8.7425-36.14ZM54.7225-84.05C56.5425-85.87 59.4825-85.87 61.3025-84.05L74.6925-70.67C76.5025-68.85 76.5025-65.91 74.6925-64.09C72.8725-62.27 69.9325-62.27 68.1125-64.09L58.0125-74.19L47.9125-64.09C46.0925-62.27 43.1525-62.27 41.3325-64.09C39.5225-65.91 39.5225-68.85 41.3325-70.67L54.7225-84.05ZM58.0125-85.41C60.5825-85.41 62.6625-83.33 62.6625-80.76L62.6625 8.49C62.6625 11.05 60.5825 13.14 58.0125 13.14C55.4425 13.14 53.3625 11.05 53.3625 8.49L53.3625-80.76C53.3625-83.33 55.4425-85.41 58.0125-85.41Z"/>
  </g>
  <g id="Medium-M" transform="matrix(1 0 0 1 1689.19 1126)">
   <path d="M41.1925-7.74C42.8125-9.36 45.4425-9.36 47.0625-7.74L57.5125 2.72L67.9625-7.74C69.5825-9.36 72.2125-9.36 73.8325-7.74C75.4525-6.12 75.4525-3.49 73.8325-1.87L60.4425 11.52C58.8225 13.14 56.2025 13.14 54.5825 11.52L41.1925-1.87C39.5725-3.49 39.5725-6.12 41.1925-7.74ZM85.8125-52.36C87.4325-53.98 90.0625-53.98 91.6825-52.36L105.072-38.97C106.693-37.35 106.693-34.73 105.072-33.1L91.6825-19.72C90.0625-18.1 87.4325-18.1 85.8125-19.72C84.1925-21.34 84.1925-23.97 85.8125-25.59L96.2725-36.04L85.8125-46.49C84.1925-48.11 84.1925-50.74 85.8125-52.36ZM29.2125-52.36C30.8325-50.74 30.8325-48.11 29.2125-46.49L18.7525-36.04L29.2125-25.59C30.8325-23.97 30.8325-21.34 29.2125-19.72C27.5925-18.1 24.9625-18.1 23.3425-19.72L9.9525-33.1C8.3325-34.73 8.3325-37.35 9.9525-38.97L23.3425-52.36C24.9625-53.98 27.5925-53.98 29.2125-52.36ZM8.7425-36.04C8.7425-38.33 10.5925-40.19 12.8925-40.19L102.142-40.19C104.433-40.19 106.292-38.33 106.292-36.04C106.292-33.75 104.433-31.89 102.142-31.89L12.8925-31.89C10.5925-31.89 8.7425-33.75 8.7425-36.04ZM54.5825-83.6C56.2025-85.22 58.8225-85.22 60.4425-83.6L73.8325-70.21C75.4525-68.59 75.4525-65.96 73.8325-64.34C72.2125-62.72 69.5825-62.72 67.9625-64.34L57.5125-74.8L47.0625-64.34C45.4425-62.72 42.8125-62.72 41.1925-64.34C39.5725-65.96 39.5725-68.59 41.1925-70.21L54.5825-83.6ZM57.5125-84.81C59.8025-84.81 61.6625-82.96 61.6625-80.66L61.6625 8.59C61.6625 10.88 59.8025 12.74 57.5125 12.74C55.2225 12.74 53.3625 10.88 53.3625 8.59L53.3625-80.66C53.3625-82.96 55.2225-84.81 57.5125-84.81Z"/>
  </g>
  <g id="Regular-M" transform="matrix(1 0 0 1 1393.13 1126)">
   <path d="M41.005-7.155C42.365-8.515 44.585-8.515 45.955-7.155L56.865 3.765L67.775-7.155C69.145-8.515 71.365-8.515 72.725-7.155C74.095-5.785 74.095-3.565 72.725-2.205L59.335 11.185C57.975 12.555 55.755 12.555 54.385 11.185L41.005-2.205C39.635-3.565 39.635-5.785 41.005-7.155ZM85.625-51.775C86.995-53.145 89.215-53.145 90.575-51.775L103.965-38.385C105.334-37.025 105.334-34.805 103.965-33.435L90.575-20.055C89.215-18.685 86.995-18.685 85.625-20.055C84.265-21.415 84.265-23.635 85.625-25.005L96.545-35.915L85.625-46.825C84.265-48.195 84.265-50.415 85.625-51.775ZM28.105-51.775C29.465-50.415 29.465-48.195 28.105-46.825L17.185-35.915L28.105-25.005C29.465-23.635 29.465-21.415 28.105-20.055C26.735-18.685 24.515-18.685 23.155-20.055L9.765-33.435C8.395-34.805 8.395-37.025 9.765-38.385L23.155-51.775C24.515-53.145 26.735-53.145 28.105-51.775ZM8.745-35.915C8.745-37.845 10.305-39.415 12.245-39.415L101.485-39.415C103.425-39.415 104.985-37.845 104.985-35.915C104.985-33.985 103.425-32.415 101.485-32.415L12.245-32.415C10.305-32.415 8.745-33.985 8.745-35.915ZM54.385-83.015C55.755-84.385 57.975-84.385 59.335-83.015L72.725-69.625C74.095-68.265 74.095-66.045 72.725-64.675C71.365-63.315 69.145-63.315 67.775-64.675L56.865-75.585L45.955-64.675C44.585-63.315 42.365-63.315 41.005-64.675C39.635-66.045 39.635-68.265 41.005-69.625L54.385-83.015ZM56.865-84.035C58.795-84.035 60.365-82.475 60.365-80.535L60.365 8.715C60.365 10.645 58.795 12.215 56.865 12.215C54.935 12.215 53.365 10.645 53.365 8.715L53.365-80.535C53.365-82.475 54.935-84.035 56.865-84.035Z"/>
  </g>
  <g id="Light-M" transform="matrix(1 0 0 1 1097.22 1126)">
   <path d="M40.7675-6.43C41.8275-7.49 43.5375-7.49 44.5875-6.43L56.0675 5.05L67.5475-6.43C68.5975-7.49 70.3075-7.49 71.3675-6.43C72.4175-5.38 72.4175-3.67 71.3675-2.61L57.9775 10.77C56.9175 11.83 55.2175 11.83 54.1575 10.77L40.7675-2.61C39.7175-3.67 39.7175-5.38 40.7675-6.43ZM85.3975-51.06C86.4475-52.11 88.1575-52.11 89.2175-51.06L102.598-37.67C103.658-36.61 103.658-34.91 102.598-33.85L89.2175-20.46C88.1575-19.41 86.4475-19.41 85.3975-20.46C84.3375-21.52 84.3375-23.23 85.3975-24.28L96.8775-35.76L85.3975-47.24C84.3375-48.29 84.3375-50 85.3975-51.06ZM26.7375-51.06C27.7975-50 27.7975-48.29 26.7375-47.24L15.2575-35.76L26.7375-24.28C27.7975-23.23 27.7975-21.52 26.7375-20.46C25.6875-19.41 23.9775-19.41 22.9175-20.46L9.5375-33.85C8.4775-34.91 8.4775-36.61 9.5375-37.67L22.9175-51.06C23.9775-52.11 25.6875-52.11 26.7375-51.06ZM8.7375-35.76C8.7375-37.25 9.9475-38.46 11.4375-38.46L100.688-38.46C102.188-38.46 103.388-37.25 103.388-35.76C103.388-34.27 102.188-33.06 100.688-33.06L11.4375-33.06C9.9475-33.06 8.7375-34.27 8.7375-35.76ZM54.1575-82.29C55.2175-83.35 56.9175-83.35 57.9775-82.29L71.3675-68.91C72.4175-67.85 72.4175-66.14 71.3675-65.09C70.3075-64.03 68.5975-64.03 67.5475-65.09L56.0675-76.57L44.5875-65.09C43.5375-64.03 41.8275-64.03 40.7675-65.09C39.7175-66.14 39.7175-67.85 40.7675-68.91L54.1575-82.29ZM56.0675-83.08C57.5575-83.08 58.7675-81.88 58.7675-80.38L58.7675 8.87C58.7675 10.36 57.5575 11.57 56.0675 11.57C54.5775 11.57 53.3675 10.36 53.3675 8.87L53.3675-80.38C53.3675-81.88 54.5775-83.08 56.0675-83.08Z"/>
  </g>
  <g id="Thin-M" transform="matrix(1 0 0 1 801.562 1126)">
   <path d="M40.4585-5.485C41.1025-6.125 42.1475-6.125 42.7915-5.485L55.0125 6.735L67.2335-5.485C67.8775-6.125 68.9225-6.125 69.5665-5.485C70.2115-4.835 70.2115-3.795 69.5665-3.145L56.1795 10.235C55.5345 10.885 54.4905 10.885 53.8455 10.235L40.4585-3.145C39.8135-3.795 39.8135-4.835 40.4585-5.485ZM85.0835-50.105C85.7275-50.755 86.7725-50.755 87.4165-50.105L100.805-36.725C101.448-36.075 101.448-35.035 100.805-34.385L87.4165-20.995C86.7725-20.355 85.7275-20.355 85.0835-20.995C84.4385-21.645 84.4385-22.685 85.0835-23.335L97.3035-35.555L85.0835-47.775C84.4385-48.415 84.4385-49.465 85.0835-50.105ZM24.9415-50.105C25.5865-49.465 25.5865-48.415 24.9415-47.775L12.7215-35.555L24.9415-23.335C25.5865-22.685 25.5865-21.645 24.9415-20.995C24.2975-20.355 23.2525-20.355 22.6085-20.995L9.2205-34.385C8.5765-35.035 8.5765-36.075 9.2205-36.725L22.6085-50.105C23.2525-50.755 24.2975-50.755 24.9415-50.105ZM8.7375-35.555C8.7375-36.465 9.4765-37.205 10.3875-37.205L99.6375-37.205C100.548-37.205 101.287-36.465 101.287-35.555C101.287-34.645 100.548-33.905 99.6375-33.905L10.3875-33.905C9.4765-33.905 8.7375-34.645 8.7375-35.555ZM53.8455-81.345C54.4905-81.995 55.5345-81.995 56.1795-81.345L69.5665-67.955C70.2115-67.315 70.2115-66.275 69.5665-65.625C68.9225-64.985 67.8775-64.985 67.2335-65.625L55.0125-77.845L42.7915-65.625C42.1475-64.985 41.1025-64.985 40.4585-65.625C39.8135-66.275 39.8135-67.315 40.4585-67.955L53.8455-81.345ZM55.0125-81.825C55.9235-81.825 56.6625-81.095 56.6625-80.175L56.6625 9.075C56.6625 9.985 55.9235 10.725 55.0125 10.725C54.1015 10.725 53.3625 9.985 53.3625 9.075L53.3625-80.175C53.3625-81.095 54.1015-81.825 55.0125-81.825Z"/>
  </g>
  <g id="Ultralight-M" transform="matrix(1 0 0 1 505.401 1126)">
   <path d="M40.2975-4.985C40.7265-5.415 41.4235-5.415 41.8535-4.985L54.4625 7.625L67.0725-4.985C67.5015-5.415 68.1985-5.415 68.6285-4.985C69.0575-4.555 69.0575-3.855 68.6285-3.425L55.2405 9.955C54.8105 10.385 54.1145 10.385 53.6845 9.955L40.2975-3.425C39.8675-3.855 39.8675-4.555 40.2975-4.985ZM84.9225-49.605C85.3515-50.035 86.0485-50.035 86.4785-49.605L99.8655-36.225C100.295-35.795 100.295-35.095 99.8655-34.665L86.4785-21.275C86.0485-20.845 85.3515-20.845 84.9225-21.275C84.4925-21.705 84.4925-22.405 84.9225-22.835L97.5325-35.445L84.9225-48.055C84.4925-48.485 84.4925-49.185 84.9225-49.605ZM24.0025-49.605C24.4325-49.185 24.4325-48.485 24.0025-48.055L11.3935-35.445L24.0025-22.835C24.4325-22.405 24.4325-21.705 24.0025-21.275C23.5735-20.845 22.8765-20.845 22.4475-21.275L9.0595-34.665C8.6305-35.095 8.6305-35.795 9.0595-36.225L22.4475-49.605C22.8765-50.035 23.5735-50.035 24.0025-49.605ZM8.7375-35.445C8.7375-36.055 9.2295-36.545 9.8375-36.545L99.0875-36.545C99.6945-36.545 100.188-36.055 100.188-35.445C100.188-34.835 99.6945-34.345 99.0875-34.345L9.8375-34.345C9.2295-34.345 8.7375-34.835 8.7375-35.445ZM53.6845-80.845C54.1145-81.275 54.8105-81.275 55.2405-80.845L68.6285-67.455C69.0575-67.025 69.0575-66.335 68.6285-65.905C68.1985-65.475 67.5015-65.475 67.0725-65.905L54.4625-78.515L41.8535-65.905C41.4235-65.475 40.7265-65.475 40.2975-65.905C39.8675-66.335 39.8675-67.025 40.2975-67.455L53.6845-80.845ZM54.4625-81.165C55.0695-81.165 55.5625-80.675 55.5625-80.065L55.5625 9.185C55.5625 9.785 55.0695 10.285 54.4625 10.285C53.8545 10.285 53.3625 9.785 53.3625 9.185L53.3625-80.065C53.3625-80.675 53.8545-81.165 54.4625-81.165Z"/>
  </g>
  <g id="Black-S" transform="matrix(1 0 0 1 2882.71 696)">
   <path d="M35.3175-17.238C38.0875-20.011 42.5875-20.011 45.3575-17.238L50.8375-11.759L56.3175-17.238C59.0875-20.011 63.5875-20.011 66.3575-17.238C69.1275-14.465 69.1275-9.97 66.3575-7.197L55.8575 3.303C53.0875 6.076 48.5875 6.076 45.8175 3.303L35.3175-7.197C32.5475-9.97 32.5475-14.465 35.3175-17.238ZM70.3175-52.238C73.0875-55.011 77.5875-55.011 80.3575-52.238L90.8575-41.738C93.6275-38.965 93.6275-34.47 90.8575-31.697L80.3575-21.197C77.5875-18.424 73.0875-18.424 70.3175-21.197C67.5475-23.97 67.5475-28.465 70.3175-31.238L75.7975-36.718L70.3175-42.197C67.5475-44.97 67.5475-49.465 70.3175-52.238ZM31.3575-52.238C34.1275-49.465 34.1275-44.97 31.3575-42.197L25.8775-36.718L31.3575-31.238C34.1275-28.465 34.1275-23.97 31.3575-21.197C28.5875-18.424 24.0875-18.424 21.3175-21.197L10.8175-31.697C8.0475-34.47 8.0475-38.965 10.8175-41.738L21.3175-52.238C24.0875-55.011 28.5875-55.011 31.3575-52.238ZM8.7375-36.718C8.7375-40.639 11.9175-43.818 15.8375-43.818L85.8375-43.818C89.7575-43.818 92.9375-40.639 92.9375-36.718C92.9375-32.796 89.7575-29.618 85.8375-29.618L15.8375-29.618C11.9175-29.618 8.7375-32.796 8.7375-36.718ZM45.8175-76.738C48.5875-79.511 53.0875-79.511 55.8575-76.738L66.3575-66.238C69.1275-63.465 69.1275-58.97 66.3575-56.197C63.5875-53.424 59.0875-53.424 56.3175-56.197L50.8375-61.677L45.3575-56.197C42.5875-53.424 38.0875-53.424 35.3175-56.197C32.5475-58.97 32.5475-63.465 35.3175-66.238L45.8175-76.738ZM50.8375-78.818C54.7575-78.818 57.9375-75.639 57.9375-71.718L57.9375-1.718C57.9375 2.204 54.7575 5.382 50.8375 5.382C46.9175 5.382 43.7375 2.204 43.7375-1.718L43.7375-71.718C43.7375-75.639 46.9175-78.818 50.8375-78.818Z"/>
  </g>
  <g id="Heavy-S" transform="matrix(1 0 0 1 2586.85 696)">
   <path d="M35.0675-16.471C37.5075-18.912 41.4675-18.912 43.9075-16.471L49.9875-10.391L56.0675-16.471C58.5075-18.912 62.4675-18.912 64.9075-16.471C67.3475-14.031 67.3475-10.073 64.9075-7.633L54.4075 2.867C51.9675 5.308 48.0075 5.308 45.5675 2.867L35.0675-7.633C32.6275-10.073 32.6275-14.031 35.0675-16.471ZM70.0675-51.471C72.5075-53.912 76.4675-53.912 78.9075-51.471L89.4075-40.971C91.8475-38.531 91.8475-34.573 89.4075-32.133L78.9075-21.633C76.4675-19.192 72.5075-19.192 70.0675-21.633C67.6275-24.073 67.6275-28.031 70.0675-30.471L76.1475-36.552L70.0675-42.633C67.6275-45.073 67.6275-49.031 70.0675-51.471ZM29.9075-51.471C32.3475-49.031 32.3475-45.073 29.9075-42.633L23.8275-36.552L29.9075-30.471C32.3475-28.031 32.3475-24.073 29.9075-21.633C27.4675-19.192 23.5075-19.192 21.0675-21.633L10.5675-32.133C8.1275-34.573 8.1275-38.531 10.5675-40.971L21.0675-51.471C23.5075-53.912 27.4675-53.912 29.9075-51.471ZM8.7375-36.552C8.7375-40.004 11.5375-42.802 14.9875-42.802L84.9875-42.802C88.4375-42.802 91.2375-40.004 91.2375-36.552C91.2375-33.1 88.4375-30.302 84.9875-30.302L14.9875-30.302C11.5375-30.302 8.7375-33.1 8.7375-36.552ZM45.5675-75.971C48.0075-78.412 51.9675-78.412 54.4075-75.971L64.9075-65.471C67.3475-63.031 67.3475-59.073 64.9075-56.633C62.4675-54.192 58.5075-54.192 56.0675-56.633L49.9875-62.713L43.9075-56.633C41.4675-54.192 37.5075-54.192 35.0675-56.633C32.6275-59.073 32.6275-63.031 35.0675-65.471L45.5675-75.971ZM49.9875-77.802C53.4375-77.802 56.2375-75.004 56.2375-71.552L56.2375-1.552C56.2375 1.9 53.4375 4.698 49.9875 4.698C46.5375 4.698 43.7375 1.9 43.7375-1.552L43.7375-71.552C43.7375-75.004 46.5375-77.802 49.9875-77.802Z"/>
  </g>
  <g id="Bold-S" transform="matrix(1 0 0 1 2291.09 696)">
   <path d="M34.79-15.408C36.86-17.478 40.21-17.478 42.28-15.408L49.04-8.656L55.79-15.408C57.86-17.478 61.21-17.478 63.28-15.408C65.35-13.339 65.35-9.983 63.28-7.913L52.78 2.587C50.71 4.657 47.36 4.657 45.29 2.587L34.79-7.913C32.72-9.983 32.72-13.339 34.79-15.408ZM69.79-50.408C71.86-52.478 75.21-52.478 77.28-50.408L87.78-39.908C89.85-37.839 89.85-34.483 87.78-32.413L77.28-21.913C75.21-19.843 71.86-19.843 69.79-21.913C67.72-23.983 67.72-27.339 69.79-29.408L76.54-36.161L69.79-42.913C67.72-44.983 67.72-48.339 69.79-50.408ZM28.28-50.408C30.35-48.339 30.35-44.983 28.28-42.913L21.53-36.161L28.28-29.408C30.35-27.339 30.35-23.983 28.28-21.913C26.21-19.843 22.86-19.843 20.79-21.913L10.29-32.413C8.22-34.483 8.22-37.839 10.29-39.908L20.79-50.408C22.86-52.478 26.21-52.478 28.28-50.408ZM8.74-36.161C8.74-39.088 11.11-41.461 14.04-41.461L84.04-41.461C86.96-41.461 89.34-39.088 89.34-36.161C89.34-33.234 86.96-30.861 84.04-30.861L14.04-30.861C11.11-30.861 8.74-33.234 8.74-36.161ZM45.29-74.908C47.36-76.978 50.71-76.978 52.78-74.908L63.28-64.408C65.35-62.339 65.35-58.983 63.28-56.913C61.21-54.843 57.86-54.843 55.79-56.913L49.04-63.665L42.28-56.913C40.21-54.843 36.86-54.843 34.79-56.913C32.72-58.983 32.72-62.339 34.79-64.408L45.29-74.908ZM49.04-76.461C51.96-76.461 54.34-74.088 54.34-71.161L54.34-1.161C54.34 1.766 51.96 4.139 49.04 4.139C46.11 4.139 43.74 1.766 43.74-1.161L43.74-71.161C43.74-74.088 46.11-76.461 49.04-76.461Z"/>
  </g>
  <g id="Semibold-S" transform="matrix(1 0 0 1 1995.03 696)">
   <path d="M34.5975-14.823C36.4175-16.639 39.3575-16.639 41.1775-14.823L48.3875-7.611L55.5975-14.823C57.4175-16.639 60.3575-16.639 62.1775-14.823C63.9875-13.007 63.9875-10.063 62.1775-8.247L51.6775 2.253C49.8575 4.069 46.9175 4.069 45.0975 2.253L34.5975-8.247C32.7875-10.063 32.7875-13.007 34.5975-14.823ZM69.5975-49.823C71.4175-51.639 74.3575-51.639 76.1775-49.823L86.6775-39.323C88.4875-37.507 88.4875-34.563 86.6775-32.747L76.1775-22.247C74.3575-20.431 71.4175-20.431 69.5975-22.247C67.7875-24.063 67.7875-27.007 69.5975-28.823L76.8075-36.035L69.5975-43.247C67.7875-45.063 67.7875-48.007 69.5975-49.823ZM27.1775-49.823C28.9875-48.007 28.9875-45.063 27.1775-43.247L19.9675-36.035L27.1775-28.823C28.9875-27.007 28.9875-24.063 27.1775-22.247C25.3575-20.431 22.4175-20.431 20.5975-22.247L10.0975-32.747C8.2875-34.563 8.2875-37.507 10.0975-39.323L20.5975-49.823C22.4175-51.639 25.3575-51.639 27.1775-49.823ZM8.7375-36.035C8.7375-38.603 10.8175-40.685 13.3875-40.685L83.3875-40.685C85.9575-40.685 88.0375-38.603 88.0375-36.035C88.0375-33.467 85.9575-31.385 83.3875-31.385L13.3875-31.385C10.8175-31.385 8.7375-33.467 8.7375-36.035ZM45.0975-74.323C46.9175-76.139 49.8575-76.139 51.6775-74.323L62.1775-63.823C63.9875-62.007 63.9875-59.063 62.1775-57.247C60.3575-55.431 57.4175-55.431 55.5975-57.247L48.3875-64.459L41.1775-57.247C39.3575-55.431 36.4175-55.431 34.5975-57.247C32.7875-59.063 32.7875-62.007 34.5975-63.823L45.0975-74.323ZM48.3875-75.685C50.9575-75.685 53.0375-73.603 53.0375-71.035L53.0375-1.035C53.0375 1.533 50.9575 3.615 48.3875 3.615C45.8175 3.615 43.7375 1.533 43.7375-1.035L43.7375-71.035C43.7375-73.603 45.8175-75.685 48.3875-75.685Z"/>
  </g>
  <g id="Medium-S" transform="matrix(1 0 0 1 1698.82 696)">
   <path d="M34.46-14.3726C36.08-15.9936 38.7-15.9936 40.32-14.3726L47.89-6.8065L55.46-14.3726C57.08-15.9936 59.7-15.9936 61.32-14.3726C62.95-12.7516 62.95-10.1245 61.32-8.5035L50.82 1.9965C49.2 3.6175 46.58 3.6175 44.96 1.9965L34.46-8.5035C32.83-10.1245 32.83-12.7516 34.46-14.3726ZM69.46-49.3726C71.08-50.9936 73.7-50.9936 75.32-49.3726L85.82-38.8726C87.45-37.2516 87.45-34.6245 85.82-33.0036L75.32-22.5036C73.7-20.8826 71.08-20.8826 69.46-22.5036C67.83-24.1245 67.83-26.7516 69.46-28.3726L77.02-35.9375L69.46-43.5036C67.83-45.1245 67.83-47.7516 69.46-49.3726ZM26.32-49.3726C27.95-47.7516 27.95-45.1245 26.32-43.5036L18.76-35.9375L26.32-28.3726C27.95-26.7516 27.95-24.1245 26.32-22.5036C24.7-20.8826 22.08-20.8826 20.46-22.5036L9.96-33.0036C8.33-34.6245 8.33-37.2516 9.96-38.8726L20.46-49.3726C22.08-50.9936 24.7-50.9936 26.32-49.3726ZM8.74-35.9375C8.74-38.2296 10.6-40.0875 12.89-40.0875L82.89-40.0875C85.18-40.0875 87.04-38.2296 87.04-35.9375C87.04-33.6456 85.18-31.7875 82.89-31.7875L12.89-31.7875C10.6-31.7875 8.74-33.6456 8.74-35.9375ZM44.96-73.8726C46.58-75.4936 49.2-75.4936 50.82-73.8726L61.32-63.3726C62.95-61.7516 62.95-59.1245 61.32-57.5036C59.7-55.8826 57.08-55.8826 55.46-57.5036L47.89-65.0686L40.32-57.5036C38.7-55.8826 36.08-55.8826 34.46-57.5036C32.83-59.1245 32.83-61.7516 34.46-63.3726L44.96-73.8726ZM47.89-75.0875C50.18-75.0875 52.04-73.2296 52.04-70.9375L52.04-0.9375C52.04 1.3545 50.18 3.2125 47.89 3.2125C45.6 3.2125 43.74 1.3545 43.74-0.9375L43.74-70.9375C43.74-73.2296 45.6-75.0875 47.89-75.0875Z"/>
  </g>
  <g id="Regular-S" transform="matrix(1 0 0 1 1402.76 696)">
   <path d="M34.2675-13.7856C35.6275-15.1526 37.8475-15.1526 39.2075-13.7856L47.2375-5.7605L55.2675-13.7856C56.6275-15.1526 58.8475-15.1526 60.2075-13.7856C61.5775-12.4186 61.5775-10.2025 60.2075-8.8355L49.7075 1.6645C48.3475 3.0315 46.1275 3.0315 44.7675 1.6645L34.2675-8.8355C32.8975-10.2025 32.8975-12.4186 34.2675-13.7856ZM69.2675-48.7856C70.6275-50.1526 72.8475-50.1526 74.2075-48.7856L84.7075-38.2856C86.0775-36.9186 86.0775-34.7026 84.7075-33.3356L74.2075-22.8356C72.8475-21.4686 70.6275-21.4686 69.2675-22.8356C67.8975-24.2026 67.8975-26.4186 69.2675-27.7856L77.2875-35.8106L69.2675-43.8356C67.8975-45.2026 67.8975-47.4186 69.2675-48.7856ZM25.2075-48.7856C26.5775-47.4186 26.5775-45.2026 25.2075-43.8356L17.1875-35.8106L25.2075-27.7856C26.5775-26.4186 26.5775-24.2026 25.2075-22.8356C23.8475-21.4686 21.6275-21.4686 20.2675-22.8356L9.7675-33.3356C8.3975-34.7026 8.3975-36.9186 9.7675-38.2856L20.2675-48.7856C21.6275-50.1526 23.8475-50.1526 25.2075-48.7856ZM8.7375-35.8106C8.7375-37.7435 10.3075-39.3106 12.2375-39.3106L82.2375-39.3106C84.1675-39.3106 85.7375-37.7435 85.7375-35.8106C85.7375-33.8776 84.1675-32.3106 82.2375-32.3106L12.2375-32.3106C10.3075-32.3106 8.7375-33.8776 8.7375-35.8106ZM44.7675-73.2856C46.1275-74.6526 48.3475-74.6526 49.7075-73.2856L60.2075-62.7856C61.5775-61.4186 61.5775-59.2026 60.2075-57.8356C58.8475-56.4686 56.6275-56.4686 55.2675-57.8356L47.2375-65.8606L39.2075-57.8356C37.8475-56.4686 35.6275-56.4686 34.2675-57.8356C32.8975-59.2026 32.8975-61.4186 34.2675-62.7856L44.7675-73.2856ZM47.2375-74.3106C49.1675-74.3106 50.7375-72.7435 50.7375-70.8106L50.7375-0.8105C50.7375 1.1225 49.1675 2.6895 47.2375 2.6895C45.3075 2.6895 43.7375 1.1225 43.7375-0.8105L43.7375-70.8106C43.7375-72.7435 45.3075-74.3106 47.2375-74.3106Z"/>
  </g>
  <g id="Light-S" transform="matrix(1 0 0 1 1106.85 696)">
   <path d="M34.0275-13.0634C35.0875-14.1184 36.7875-14.1184 37.8475-13.0634L46.4375-4.4735L55.0275-13.0634C56.0875-14.1184 57.7875-14.1184 58.8475-13.0634C59.8975-12.0094 59.8975-10.2995 58.8475-9.2455L48.3475 1.2545C47.2875 2.3085 45.5875 2.3085 44.5275 1.2545L34.0275-9.2455C32.9775-10.2995 32.9775-12.0094 34.0275-13.0634ZM69.0275-48.0634C70.0875-49.1184 71.7875-49.1184 72.8475-48.0634L83.3475-37.5634C84.3975-36.5094 84.3975-34.7995 83.3475-33.7455L72.8475-23.2455C71.7875-22.1914 70.0875-22.1914 69.0275-23.2455C67.9775-24.2995 67.9775-26.0094 69.0275-27.0634L77.6175-35.6544L69.0275-44.2455C67.9775-45.2995 67.9775-47.0094 69.0275-48.0634ZM23.8475-48.0634C24.8975-47.0094 24.8975-45.2995 23.8475-44.2455L15.2575-35.6544L23.8475-27.0634C24.8975-26.0094 24.8975-24.2995 23.8475-23.2455C22.7875-22.1914 21.0875-22.1914 20.0275-23.2455L9.5275-33.7455C8.4775-34.7995 8.4775-36.5094 9.5275-37.5634L20.0275-48.0634C21.0875-49.1184 22.7875-49.1184 23.8475-48.0634ZM8.7375-35.6544C8.7375-37.1455 9.9475-38.3544 11.4375-38.3544L81.4375-38.3544C82.9275-38.3544 84.1375-37.1455 84.1375-35.6544C84.1375-34.1635 82.9275-32.9544 81.4375-32.9544L11.4375-32.9544C9.9475-32.9544 8.7375-34.1635 8.7375-35.6544ZM44.5275-72.5634C45.5875-73.6184 47.2875-73.6184 48.3475-72.5634L58.8475-62.0634C59.8975-61.0094 59.8975-59.2995 58.8475-58.2455C57.7875-57.1914 56.0875-57.1914 55.0275-58.2455L46.4375-66.8364L37.8475-58.2455C36.7875-57.1914 35.0875-57.1914 34.0275-58.2455C32.9775-59.2995 32.9775-61.0094 34.0275-62.0634L44.5275-72.5634ZM46.4375-73.3544C47.9275-73.3544 49.1375-72.1455 49.1375-70.6544L49.1375-0.6545C49.1375 0.8365 47.9275 2.0455 46.4375 2.0455C44.9475 2.0455 43.7375 0.8365 43.7375-0.6545L43.7375-70.6544C43.7375-72.1455 44.9475-73.3544 46.4375-73.3544Z"/>
  </g>
  <g id="Thin-S" transform="matrix(1 0 0 1 811.187 696)">
   <path d="M33.7205-12.116C34.3655-12.76 35.4095-12.76 36.0545-12.116L45.3875-2.783L54.7205-12.116C55.3655-12.76 56.4095-12.76 57.0545-12.116C57.6985-11.472 57.6985-10.427 57.0545-9.783L46.5545 0.717C45.9095 1.362 44.8655 1.362 44.2205 0.717L33.7205-9.783C33.0765-10.427 33.0765-11.472 33.7205-12.116ZM68.7205-47.116C69.3655-47.76 70.4095-47.76 71.0545-47.116L81.5545-36.616C82.1985-35.972 82.1985-34.927 81.5545-34.283L71.0545-23.783C70.4095-23.138 69.3655-23.138 68.7205-23.783C68.0765-24.427 68.0765-25.472 68.7205-26.116L78.0545-35.449L68.7205-44.783C68.0765-45.427 68.0765-46.472 68.7205-47.116ZM22.0545-47.116C22.6985-46.472 22.6985-45.427 22.0545-44.783L12.7215-35.449L22.0545-26.116C22.6985-25.472 22.6985-24.427 22.0545-23.783C21.4095-23.138 20.3655-23.138 19.7205-23.783L9.2205-34.283C8.5765-34.927 8.5765-35.972 9.2205-36.616L19.7205-47.116C20.3655-47.76 21.4095-47.76 22.0545-47.116ZM8.7375-35.449C8.7375-36.361 9.4765-37.099 10.3875-37.099L80.3875-37.099C81.2985-37.099 82.0375-36.361 82.0375-35.449C82.0375-34.538 81.2985-33.799 80.3875-33.799L10.3875-33.799C9.4765-33.799 8.7375-34.538 8.7375-35.449ZM44.2205-71.616C44.8655-72.26 45.9095-72.26 46.5545-71.616L57.0545-61.116C57.6985-60.472 57.6985-59.427 57.0545-58.783C56.4095-58.138 55.3655-58.138 54.7205-58.783L45.3875-68.116L36.0545-58.783C35.4095-58.138 34.3655-58.138 33.7205-58.783C33.0765-59.427 33.0765-60.472 33.7205-61.116L44.2205-71.616ZM45.3875-72.099C46.2985-72.099 47.0375-71.361 47.0375-70.449L47.0375-0.449C47.0375 0.462 46.2985 1.201 45.3875 1.201C44.4765 1.201 43.7375 0.462 43.7375-0.449L43.7375-70.449C43.7375-71.361 44.4765-72.099 45.3875-72.099Z"/>
  </g>
  <g id="Ultralight-S" transform="matrix(1 0 0 1 515.026 696)">
   <path d="M33.5595-11.618C33.9895-12.048 34.6855-12.048 35.1155-11.618L44.8375-1.896L54.5595-11.618C54.9895-12.048 55.6855-12.048 56.1155-11.618C56.5445-11.189 56.5445-10.492 56.1155-10.063L45.6155 0.437C45.1855 0.867 44.4895 0.867 44.0595 0.437L33.5595-10.063C33.1305-10.492 33.1305-11.189 33.5595-11.618ZM68.5595-46.618C68.9895-47.048 69.6855-47.048 70.1155-46.618L80.6155-36.118C81.0445-35.689 81.0445-34.992 80.6155-34.563L70.1155-24.063C69.6855-23.633 68.9895-23.633 68.5595-24.063C68.1305-24.492 68.1305-25.189 68.5595-25.618L78.2815-35.341L68.5595-45.063C68.1305-45.492 68.1305-46.189 68.5595-46.618ZM21.1155-46.618C21.5445-46.189 21.5445-45.492 21.1155-45.063L11.3935-35.341L21.1155-25.618C21.5445-25.189 21.5445-24.492 21.1155-24.063C20.6855-23.633 19.9895-23.633 19.5595-24.063L9.0595-34.563C8.6305-34.992 8.6305-35.689 9.0595-36.118L19.5595-46.618C19.9895-47.048 20.6855-47.048 21.1155-46.618ZM8.7375-35.341C8.7375-35.948 9.2295-36.441 9.8375-36.441L79.8375-36.441C80.4445-36.441 80.9375-35.948 80.9375-35.341C80.9375-34.733 80.4445-34.241 79.8375-34.241L9.8375-34.241C9.2295-34.241 8.7375-34.733 8.7375-35.341ZM44.0595-71.118C44.4895-71.548 45.1855-71.548 45.6155-71.118L56.1155-60.618C56.5445-60.189 56.5445-59.492 56.1155-59.063C55.6855-58.633 54.9895-58.633 54.5595-59.063L44.8375-68.785L35.1155-59.063C34.6855-58.633 33.9895-58.633 33.5595-59.063C33.1305-59.492 33.1305-60.189 33.5595-60.618L44.0595-71.118ZM44.8375-71.441C45.4445-71.441 45.9375-70.948 45.9375-70.341L45.9375-0.341C45.9375 0.267 45.4445 0.759 44.8375 0.759C44.2295 0.759 43.7375 0.267 43.7375-0.341L43.7375-70.341C43.7375-70.948 44.2295-71.441 44.8375-71.441Z"/>
  </g>
 </g>
</svg>
