<?xml version="1.0" encoding="UTF-8"?>
<!--Generator: Apple Native CoreSVG 175-->
<!DOCTYPE svg
PUBLIC "-//W3C//DTD SVG 1.1//EN"
       "http://www.w3.org/Graphics/SVG/1.1/DTD/svg11.dtd">
<svg version="1.1" xmlns="http://www.w3.org/2000/svg" xmlns:xlink="http://www.w3.org/1999/xlink" width="3300" height="2200">
 <!--glyph: "", point size: 100.0, font version: "17.0d12e1", template writer version: "65.1"-->
 <g id="Notes">
  <rect height="2200" id="artboard" style="fill:white;opacity:1" width="3300" x="0" y="0"/>
  <line style="fill:none;stroke:black;opacity:1;stroke-width:0.5;" x1="263" x2="3036" y1="292" y2="292"/>
  <text style="stroke:none;fill:black;font-family:sans-serif;font-size:13;font-weight:bold;" transform="matrix(1 0 0 1 263 322)">Weight/Scale Variations</text>
  <text style="stroke:none;fill:black;font-family:sans-serif;font-size:13;text-anchor:middle;" transform="matrix(1 0 0 1 559.711 322)">Ultralight</text>
  <text style="stroke:none;fill:black;font-family:sans-serif;font-size:13;text-anchor:middle;" transform="matrix(1 0 0 1 856.422 322)">Thin</text>
  <text style="stroke:none;fill:black;font-family:sans-serif;font-size:13;text-anchor:middle;" transform="matrix(1 0 0 1 1153.13 322)">Light</text>
  <text style="stroke:none;fill:black;font-family:sans-serif;font-size:13;text-anchor:middle;" transform="matrix(1 0 0 1 1449.84 322)">Regular</text>
  <text style="stroke:none;fill:black;font-family:sans-serif;font-size:13;text-anchor:middle;" transform="matrix(1 0 0 1 1746.56 322)">Medium</text>
  <text style="stroke:none;fill:black;font-family:sans-serif;font-size:13;text-anchor:middle;" transform="matrix(1 0 0 1 2043.27 322)">Semibold</text>
  <text style="stroke:none;fill:black;font-family:sans-serif;font-size:13;text-anchor:middle;" transform="matrix(1 0 0 1 2339.98 322)">Bold</text>
  <text style="stroke:none;fill:black;font-family:sans-serif;font-size:13;text-anchor:middle;" transform="matrix(1 0 0 1 2636.69 322)">Heavy</text>
  <text style="stroke:none;fill:black;font-family:sans-serif;font-size:13;text-anchor:middle;" transform="matrix(1 0 0 1 2933.4 322)">Black</text>
  <line style="fill:none;stroke:black;opacity:1;stroke-width:0.5;" x1="263" x2="3036" y1="1903" y2="1903"/>
  <g transform="matrix(1 0 0 1 263 1933)">
   <path d="M9.24805 0.830078Q10.8691 0.830078 12.2949 0.214844Q13.7207-0.400391 14.8096-1.49414Q15.8984-2.58789 16.5186-4.01367Q17.1387-5.43945 17.1387-7.05078Q17.1387-8.66211 16.5186-10.0879Q15.8984-11.5137 14.8047-12.6074Q13.7109-13.7012 12.2852-14.3164Q10.8594-14.9316 9.23828-14.9316Q7.62695-14.9316 6.20117-14.3164Q4.77539-13.7012 3.69141-12.6074Q2.60742-11.5137 1.9873-10.0879Q1.36719-8.66211 1.36719-7.05078Q1.36719-5.43945 1.9873-4.01367Q2.60742-2.58789 3.69629-1.49414Q4.78516-0.400391 6.21094 0.214844Q7.63672 0.830078 9.24805 0.830078ZM9.24805-0.654297Q7.91992-0.654297 6.7627-1.14746Q5.60547-1.64062 4.73145-2.51953Q3.85742-3.39844 3.36426-4.56055Q2.87109-5.72266 2.87109-7.05078Q2.87109-8.37891 3.35938-9.54102Q3.84766-10.7031 4.72168-11.582Q5.5957-12.4609 6.75293-12.9541Q7.91016-13.4473 9.23828-13.4473Q10.5762-13.4473 11.7334-12.9541Q12.8906-12.4609 13.7695-11.582Q14.6484-10.7031 15.1465-9.54102Q15.6445-8.37891 15.6445-7.05078Q15.6445-5.72266 15.1514-4.56055Q14.6582-3.39844 13.7842-2.51953Q12.9102-1.64062 11.748-1.14746Q10.5859-0.654297 9.24805-0.654297ZM5.6543-7.05078Q5.6543-6.72852 5.85938-6.52832Q6.06445-6.32812 6.40625-6.32812L8.51562-6.32812L8.51562-4.20898Q8.51562-3.88672 8.71094-3.67676Q8.90625-3.4668 9.23828-3.4668Q9.56055-3.4668 9.77051-3.67676Q9.98047-3.88672 9.98047-4.20898L9.98047-6.32812L12.0898-6.32812Q12.4219-6.32812 12.627-6.52832Q12.832-6.72852 12.832-7.05078Q12.832-7.38281 12.627-7.58789Q12.4219-7.79297 12.0898-7.79297L9.98047-7.79297L9.98047-9.90234Q9.98047-10.2344 9.77051-10.4443Q9.56055-10.6543 9.23828-10.6543Q8.90625-10.6543 8.71094-10.4443Q8.51562-10.2344 8.51562-9.90234L8.51562-7.79297L6.40625-7.79297Q6.06445-7.79297 5.85938-7.58789Q5.6543-7.38281 5.6543-7.05078Z"/>
  </g>
  <g transform="matrix(1 0 0 1 281.867 1933)">
   <path d="M11.709 2.91016Q13.75 2.91016 15.5518 2.12891Q17.3535 1.34766 18.7305-0.0292969Q20.1074-1.40625 20.8887-3.20801Q21.6699-5.00977 21.6699-7.05078Q21.6699-9.0918 20.8887-10.8936Q20.1074-12.6953 18.7305-14.0723Q17.3535-15.4492 15.5469-16.2305Q13.7402-17.0117 11.6992-17.0117Q9.6582-17.0117 7.85645-16.2305Q6.05469-15.4492 4.68262-14.0723Q3.31055-12.6953 2.5293-10.8936Q1.74805-9.0918 1.74805-7.05078Q1.74805-5.00977 2.5293-3.20801Q3.31055-1.40625 4.6875-0.0292969Q6.06445 1.34766 7.86621 2.12891Q9.66797 2.91016 11.709 2.91016ZM11.709 1.25Q9.98047 1.25 8.47656 0.605469Q6.97266-0.0390625 5.83496-1.17676Q4.69727-2.31445 4.05762-3.81836Q3.41797-5.32227 3.41797-7.05078Q3.41797-8.7793 4.05762-10.2832Q4.69727-11.7871 5.83008-12.9297Q6.96289-14.0723 8.4668-14.7119Q9.9707-15.3516 11.6992-15.3516Q13.4277-15.3516 14.9316-14.7119Q16.4355-14.0723 17.5781-12.9297Q18.7207-11.7871 19.3652-10.2832Q20.0098-8.7793 20.0098-7.05078Q20.0098-5.32227 19.3701-3.81836Q18.7305-2.31445 17.5928-1.17676Q16.4551-0.0390625 14.9463 0.605469Q13.4375 1.25 11.709 1.25ZM7.17773-7.05078Q7.17773-6.69922 7.41211-6.47461Q7.64648-6.25 8.01758-6.25L10.8887-6.25L10.8887-3.36914Q10.8887-2.99805 11.1133-2.76855Q11.3379-2.53906 11.6895-2.53906Q12.0605-2.53906 12.29-2.76855Q12.5195-2.99805 12.5195-3.36914L12.5195-6.25L15.4004-6.25Q15.7715-6.25 16.001-6.47461Q16.2305-6.69922 16.2305-7.05078Q16.2305-7.42188 16.001-7.65137Q15.7715-7.88086 15.4004-7.88086L12.5195-7.88086L12.5195-10.752Q12.5195-11.1328 12.29-11.3623Q12.0605-11.5918 11.6895-11.5918Q11.3379-11.5918 11.1133-11.3574Q10.8887-11.123 10.8887-10.752L10.8887-7.88086L8.01758-7.88086Q7.63672-7.88086 7.40723-7.65137Q7.17773-7.42188 7.17773-7.05078Z"/>
  </g>
  <g transform="matrix(1 0 0 1 305.646 1933)">
   <path d="M14.9707 5.66406Q17.0605 5.66406 18.96 5.01465Q20.8594 4.36523 22.4512 3.19336Q24.043 2.02148 25.2197 0.429688Q26.3965-1.16211 27.0459-3.06641Q27.6953-4.9707 27.6953-7.05078Q27.6953-9.14062 27.0459-11.04Q26.3965-12.9395 25.2197-14.5312Q24.043-16.123 22.4512-17.2998Q20.8594-18.4766 18.9551-19.126Q17.0508-19.7754 14.9609-19.7754Q12.8711-19.7754 10.9717-19.126Q9.07227-18.4766 7.48535-17.2998Q5.89844-16.123 4.72168-14.5312Q3.54492-12.9395 2.90039-11.04Q2.25586-9.14062 2.25586-7.05078Q2.25586-4.9707 2.90527-3.06641Q3.55469-1.16211 4.72656 0.429688Q5.89844 2.02148 7.49023 3.19336Q9.08203 4.36523 10.9814 5.01465Q12.8809 5.66406 14.9707 5.66406ZM14.9707 3.84766Q13.1641 3.84766 11.5283 3.2959Q9.89258 2.74414 8.53516 1.74805Q7.17773 0.751953 6.17676-0.610352Q5.17578-1.97266 4.62891-3.6084Q4.08203-5.24414 4.08203-7.05078Q4.08203-8.86719 4.62891-10.5029Q5.17578-12.1387 6.17188-13.501Q7.16797-14.8633 8.52539-15.8594Q9.88281-16.8555 11.5186-17.4023Q13.1543-17.9492 14.9609-17.9492Q16.7773-17.9492 18.4131-17.4023Q20.0488-16.8555 21.4111-15.8594Q22.7734-14.8633 23.7695-13.501Q24.7656-12.1387 25.3174-10.5029Q25.8691-8.86719 25.8691-7.05078Q25.8789-5.24414 25.332-3.6084Q24.7852-1.97266 23.7842-0.610352Q22.7832 0.751953 21.4209 1.74805Q20.0586 2.74414 18.4229 3.2959Q16.7871 3.84766 14.9707 3.84766ZM9.19922-7.05078Q9.19922-6.66992 9.45801-6.4209Q9.7168-6.17188 10.1172-6.17188L14.0625-6.17188L14.0625-2.2168Q14.0625-1.81641 14.3115-1.55762Q14.5605-1.29883 14.9512-1.29883Q15.3516-1.29883 15.6104-1.55273Q15.8691-1.80664 15.8691-2.2168L15.8691-6.17188L19.8242-6.17188Q20.2246-6.17188 20.4785-6.4209Q20.7324-6.66992 20.7324-7.05078Q20.7324-7.46094 20.4785-7.71484Q20.2246-7.96875 19.8242-7.96875L15.8691-7.96875L15.8691-11.9141Q15.8691-12.3242 15.6104-12.583Q15.3516-12.8418 14.9512-12.8418Q14.5605-12.8418 14.3115-12.583Q14.0625-12.3242 14.0625-11.9141L14.0625-7.96875L10.1172-7.96875Q9.70703-7.96875 9.45312-7.71484Q9.19922-7.46094 9.19922-7.05078Z"/>
  </g>
  <text style="stroke:none;fill:black;font-family:sans-serif;font-size:13;font-weight:bold;" transform="matrix(1 0 0 1 263 1953)">Design Variations</text>
  <text style="stroke:none;fill:black;font-family:sans-serif;font-size:13;" transform="matrix(1 0 0 1 263 1971)">Symbols are supported in up to nine weights and three scales.</text>
  <text style="stroke:none;fill:black;font-family:sans-serif;font-size:13;" transform="matrix(1 0 0 1 263 1989)">For optimal layout with text and other symbols, vertically align</text>
  <text style="stroke:none;fill:black;font-family:sans-serif;font-size:13;" transform="matrix(1 0 0 1 263 2007)">symbols with the adjacent text.</text>
  <line style="fill:none;stroke:#00AEEF;stroke-width:0.5;opacity:1.0;" x1="776" x2="776" y1="1919" y2="1933"/>
  <g transform="matrix(1 0 0 1 776 1933)">
   <path d="M3.31055 0.15625Q3.70117 0.15625 3.91602-0.00976562Q4.13086-0.175781 4.26758-0.585938L5.52734-4.0332L11.2891-4.0332L12.5488-0.585938Q12.6855-0.175781 12.9004-0.00976562Q13.1152 0.15625 13.4961 0.15625Q13.8867 0.15625 14.1162-0.0585938Q14.3457-0.273438 14.3457-0.644531Q14.3457-0.869141 14.2383-1.17188L9.6582-13.3691Q9.48242-13.8184 9.17969-14.043Q8.87695-14.2676 8.4082-14.2676Q7.5-14.2676 7.17773-13.3789L2.59766-1.16211Q2.49023-0.859375 2.49023-0.634766Q2.49023-0.263672 2.70996-0.0537109Q2.92969 0.15625 3.31055 0.15625ZM6.00586-5.51758L8.37891-12.0898L8.42773-12.0898L10.8008-5.51758Z"/>
  </g>
  <line style="fill:none;stroke:#00AEEF;stroke-width:0.5;opacity:1.0;" x1="793.197" x2="793.197" y1="1919" y2="1933"/>
  <text style="stroke:none;fill:black;font-family:sans-serif;font-size:13;font-weight:bold;" transform="matrix(1 0 0 1 776 1953)">Margins</text>
  <text style="stroke:none;fill:black;font-family:sans-serif;font-size:13;" transform="matrix(1 0 0 1 776 1971)">Leading and trailing margins on the left and right side of each symbol</text>
  <text style="stroke:none;fill:black;font-family:sans-serif;font-size:13;" transform="matrix(1 0 0 1 776 1989)">can be adjusted by modifying the x-location of the margin guidelines.</text>
  <text style="stroke:none;fill:black;font-family:sans-serif;font-size:13;" transform="matrix(1 0 0 1 776 2007)">Modifications are automatically applied proportionally to all</text>
  <text style="stroke:none;fill:black;font-family:sans-serif;font-size:13;" transform="matrix(1 0 0 1 776 2025)">scales and weights.</text>
  <g transform="matrix(1 0 0 1 1289 1933)">
   <path d="M2.8418 1.86523L4.54102 3.57422Q5.18555 4.22852 5.90332 4.17969Q6.62109 4.13086 7.31445 3.35938L18.0078-8.42773L17.041-9.4043L6.42578 2.27539Q6.16211 2.57812 5.89355 2.61719Q5.625 2.65625 5.27344 2.30469L4.10156 1.14258Q3.75 0.791016 3.79395 0.522461Q3.83789 0.253906 4.14062-0.0195312L15.6152-10.8203L14.6387-11.7871L3.04688-0.898438Q2.30469-0.214844 2.25098 0.498047Q2.19727 1.21094 2.8418 1.86523ZM9.25781-16.3281Q8.94531-16.0254 8.90625-15.6348Q8.86719-15.2441 9.04297-14.9512Q9.21875-14.6777 9.55566-14.541Q9.89258-14.4043 10.3809-14.5215Q11.4746-14.7754 12.5977-14.7314Q13.7207-14.6875 14.7949-13.9844L14.209-12.5293Q13.9551-11.9043 14.0674-11.4404Q14.1797-10.9766 14.5801-10.5664L16.875-8.25195Q17.2363-7.88086 17.5781-7.82227Q17.9199-7.76367 18.3398-7.8418L19.4043-8.03711L20.0684-7.36328L20.0293-6.80664Q20-6.43555 20.1221-6.12305Q20.2441-5.81055 20.6055-5.44922L21.3672-4.70703Q21.7285-4.3457 22.1533-4.33105Q22.5781-4.31641 22.9297-4.66797L25.8398-7.58789Q26.1914-7.93945 26.1816-8.35449Q26.1719-8.76953 25.8105-9.13086L25.0391-9.89258Q24.6875-10.2539 24.3799-10.3857Q24.0723-10.5176 23.7109-10.4883L23.1348-10.4395L22.4902-11.0742L22.7344-12.1973Q22.832-12.6172 22.6953-12.9834Q22.5586-13.3496 22.1191-13.7891L19.9219-15.9766Q18.6719-17.2168 17.2607-17.8369Q15.8496-18.457 14.4189-18.4814Q12.9883-18.5059 11.665-17.959Q10.3418-17.4121 9.25781-16.3281ZM10.752-15.957Q11.6602-16.6211 12.7002-16.9043Q13.7402-17.1875 14.8047-17.085Q15.8691-16.9824 16.8701-16.5137Q17.8711-16.0449 18.7012-15.2051L21.1328-12.793Q21.3086-12.6172 21.3525-12.4512Q21.3965-12.2852 21.3379-12.0312L21.0156-10.5469L22.5195-9.0625L23.5059-9.12109Q23.6914-9.13086 23.7891-9.09668Q23.8867-9.0625 24.0332-8.91602L24.6094-8.33984L22.168-5.89844L21.5918-6.47461Q21.4453-6.62109 21.4062-6.71875Q21.3672-6.81641 21.377-7.01172L21.4453-7.98828L19.9512-9.47266L18.4277-9.21875Q18.1836-9.16992 18.042-9.2041Q17.9004-9.23828 17.7148-9.41406L15.7129-11.416Q15.5176-11.5918 15.4932-11.7529Q15.4688-11.9141 15.5859-12.1875L16.4648-14.2773Q15.293-15.3711 13.8281-15.791Q12.3633-16.2109 10.8398-15.7617Q10.7227-15.7324 10.6885-15.8057Q10.6543-15.8789 10.752-15.957Z"/>
  </g>
  <text style="stroke:none;fill:black;font-family:sans-serif;font-size:13;font-weight:bold;" transform="matrix(1 0 0 1 1289 1953)">Exporting</text>
  <text style="stroke:none;fill:black;font-family:sans-serif;font-size:13;" transform="matrix(1 0 0 1 1289 1971)">Symbols should be outlined when exporting to ensure the</text>
  <text style="stroke:none;fill:black;font-family:sans-serif;font-size:13;" transform="matrix(1 0 0 1 1289 1989)">design is preserved when submitting to Xcode.</text>
  <text id="template-version" style="stroke:none;fill:black;font-family:sans-serif;font-size:13;text-anchor:end;" transform="matrix(1 0 0 1 3036 1933)">Template v.3.0</text>
  <text style="stroke:none;fill:black;font-family:sans-serif;font-size:13;text-anchor:end;" transform="matrix(1 0 0 1 3036 1951)">Requires Xcode 13 or greater</text>
  <text id="descriptive-name" style="stroke:none;fill:black;font-family:sans-serif;font-size:13;text-anchor:end;" transform="matrix(1 0 0 1 3036 1969)">Generated from corner-right-up</text>
  <text style="stroke:none;fill:black;font-family:sans-serif;font-size:13;text-anchor:end;" transform="matrix(1 0 0 1 3036 1987)">Typeset at 100 points</text>
  <text style="stroke:none;fill:black;font-family:sans-serif;font-size:13;" transform="matrix(1 0 0 1 263 726)">Small</text>
  <text style="stroke:none;fill:black;font-family:sans-serif;font-size:13;" transform="matrix(1 0 0 1 263 1156)">Medium</text>
  <text style="stroke:none;fill:black;font-family:sans-serif;font-size:13;" transform="matrix(1 0 0 1 263 1586)">Large</text>
 </g>
 <g id="Guides">
  <g id="H-reference" style="fill:#27AAE1;stroke:none;" transform="matrix(1 0 0 1 339 696)">
   <path d="M0.976562 0L3.66211 0L29.3457-67.1387L30.0293-67.1387L30.0293-70.459L28.125-70.459ZM11.6699-24.4629L46.9727-24.4629L46.2402-26.709L12.4512-26.709ZM55.127 0L57.7637 0L30.6152-70.459L29.4434-70.459L29.4434-67.1387Z"/>
  </g>
  <line id="Baseline-S" style="fill:none;stroke:#27AAE1;opacity:1;stroke-width:0.5;" x1="263" x2="3036" y1="696" y2="696"/>
  <line id="Capline-S" style="fill:none;stroke:#27AAE1;opacity:1;stroke-width:0.5;" x1="263" x2="3036" y1="625.541" y2="625.541"/>
  <g id="H-reference" style="fill:#27AAE1;stroke:none;" transform="matrix(1 0 0 1 339 1126)">
   <path d="M0.976562 0L3.66211 0L29.3457-67.1387L30.0293-67.1387L30.0293-70.459L28.125-70.459ZM11.6699-24.4629L46.9727-24.4629L46.2402-26.709L12.4512-26.709ZM55.127 0L57.7637 0L30.6152-70.459L29.4434-70.459L29.4434-67.1387Z"/>
  </g>
  <line id="Baseline-M" style="fill:none;stroke:#27AAE1;opacity:1;stroke-width:0.5;" x1="263" x2="3036" y1="1126" y2="1126"/>
  <line id="Capline-M" style="fill:none;stroke:#27AAE1;opacity:1;stroke-width:0.5;" x1="263" x2="3036" y1="1055.54" y2="1055.54"/>
  <g id="H-reference" style="fill:#27AAE1;stroke:none;" transform="matrix(1 0 0 1 339 1556)">
   <path d="M0.976562 0L3.66211 0L29.3457-67.1387L30.0293-67.1387L30.0293-70.459L28.125-70.459ZM11.6699-24.4629L46.9727-24.4629L46.2402-26.709L12.4512-26.709ZM55.127 0L57.7637 0L30.6152-70.459L29.4434-70.459L29.4434-67.1387Z"/>
  </g>
  <line id="Baseline-L" style="fill:none;stroke:#27AAE1;opacity:1;stroke-width:0.5;" x1="263" x2="3036" y1="1556" y2="1556"/>
  <line id="Capline-L" style="fill:none;stroke:#27AAE1;opacity:1;stroke-width:0.5;" x1="263" x2="3036" y1="1485.54" y2="1485.54"/>
  <line id="left-margin-Regular-M" style="fill:none;stroke:#00AEEF;stroke-width:0.5;opacity:1.0;" x1="1392.79" x2="1392.79" y1="1030.78" y2="1150.12"/>
  <line id="right-margin-Regular-M" style="fill:none;stroke:#00AEEF;stroke-width:0.5;opacity:1.0;" x1="1506.9" x2="1506.9" y1="1030.78" y2="1150.12"/>
 </g>
 <g id="Symbols">
  <g id="Black-L" transform="matrix(1 0 0 1 2862.95 1556)">
   <path d="M82.99-87.14C85.77-89.92 90.26-89.92 93.03-87.14L121.47-58.7C124.24-55.93 124.24-51.44 121.47-48.66C118.7-45.89 114.2-45.89 111.43-48.66L88.01-72.08L64.6-48.66C61.82-45.89 57.33-45.89 54.56-48.66C51.78-51.44 51.78-55.93 54.56-58.7L82.99-87.14ZM88.01-89.22C91.93-89.22 95.11-86.04 95.11-82.12L95.11-13.87C95.11-5.96 91.97 1.64 86.37 7.24C80.77 12.83 73.18 15.98 65.26 15.98L25.45 15.98C21.53 15.98 18.35 12.8 18.35 8.88C18.35 4.96 21.53 1.78 25.45 1.78L65.26 1.78C69.41 1.78 73.39 0.13 76.33-2.81C79.26-5.74 80.91-9.72 80.91-13.87L80.91-82.12C80.91-86.04 84.09-89.22 88.01-89.22Z"/>
  </g>
  <g id="Heavy-L" transform="matrix(1 0 0 1 2567.08 1556)">
   <path d="M82.74-86.37C85.18-88.81 89.14-88.81 91.58-86.37L120.02-57.93C122.46-55.49 122.46-51.53 120.02-49.09C117.58-46.65 113.62-46.65 111.18-49.09L87.16-73.11L63.14-49.09C60.7-46.65 56.74-46.65 54.3-49.09C51.86-51.53 51.86-55.49 54.3-57.93L82.74-86.37ZM87.16-88.2C90.61-88.2 93.41-85.4 93.41-81.95L93.41-13.7C93.41-6.01 90.35 1.37 84.92 6.81C79.48 12.24 72.1 15.3 64.41 15.3L24.6 15.3C21.15 15.3 18.35 12.5 18.35 9.05C18.35 5.6 21.15 2.8 24.6 2.8L64.41 2.8C68.79 2.8 72.98 1.06 76.08-2.03C79.17-5.13 80.91-9.32 80.91-13.7L80.91-81.95C80.91-85.4 83.71-88.2 87.16-88.2Z"/>
  </g>
  <g id="Bold-L" transform="matrix(1 0 0 1 2271.32 1556)">
   <path d="M82.47-85.515C84.54-87.585 87.89-87.585 89.96-85.515L118.4-57.075C120.47-55.005 120.47-51.655 118.4-49.585C116.33-47.515 112.98-47.515 110.91-49.585L86.22-74.275L61.53-49.585C59.46-47.515 56.1-47.515 54.03-49.585C51.96-51.655 51.96-55.005 54.03-57.075L82.47-85.515ZM86.22-87.065C89.14-87.065 91.52-84.695 91.52-81.765L91.52-13.515C91.52-6.075 88.56 1.055 83.3 6.315C78.04 11.575 70.91 14.535 63.47 14.535L23.65 14.535C20.73 14.535 18.35 12.165 18.35 9.235C18.35 6.305 20.73 3.935 23.65 3.935L63.47 3.935C68.09 3.935 72.53 2.095 75.81-1.175C79.08-4.445 80.92-8.885 80.92-13.515L80.92-81.765C80.92-84.695 83.29-87.065 86.22-87.065Z"/>
  </g>
  <g id="Semibold-L" transform="matrix(1 0 0 1 1975.26 1556)">
   <path d="M82.27-84.92C84.09-86.73 87.03-86.73 88.85-84.92L117.29-56.48C119.1-54.66 119.1-51.72 117.29-49.9C115.47-48.09 112.53-48.09 110.71-49.9L85.56-75.05L60.41-49.9C58.6-48.09 55.65-48.09 53.84-49.9C52.02-51.72 52.02-54.66 53.84-56.48L82.27-84.92ZM85.56-86.28C88.13-86.28 90.21-84.2 90.21-81.63L90.21-13.38C90.21-6.11 87.33 0.86 82.19 6C77.05 11.13 70.08 14.02 62.81 14.02L23 14.02C20.43 14.02 18.35 11.94 18.35 9.37C18.35 6.8 20.43 4.72 23 4.72L62.81 4.72C67.61 4.72 72.22 2.81 75.61-0.58C79.01-3.97 80.91-8.58 80.91-13.38L80.91-81.63C80.91-84.2 82.99-86.28 85.56-86.28Z"/>
  </g>
  <g id="Medium-L" transform="matrix(1 0 0 1 1679.05 1556)">
   <path d="M82.13-84.46C83.75-86.08 86.38-86.08 88-84.46L116.43-56.03C118.05-54.41 118.05-51.78 116.43-50.16C114.81-48.54 112.19-48.54 110.57-50.16L85.06-75.66L59.56-50.16C57.94-48.54 55.31-48.54 53.69-50.16C52.07-51.78 52.07-54.41 53.69-56.03L82.13-84.46ZM85.06-85.68C87.35-85.68 89.21-83.82 89.21-81.53L89.21-13.28C89.21-6.14 86.38 0.7 81.33 5.74C76.29 10.79 69.45 13.62 62.31 13.62L22.5 13.62C20.21 13.62 18.35 11.76 18.35 9.47C18.35 7.18 20.21 5.32 22.5 5.32L62.31 5.32C67.25 5.32 71.98 3.36 75.46-0.13C78.95-3.61 80.91-8.35 80.91-13.28L80.91-81.53C80.91-83.82 82.77-85.68 85.06-85.68Z"/>
  </g>
  <g id="Regular-L" transform="matrix(1 0 0 1 1382.99 1556)">
   <path d="M81.94-83.89C83.3-85.25 85.52-85.25 86.89-83.89L115.32-55.45C116.69-54.08 116.69-51.86 115.32-50.5C113.96-49.13 111.74-49.13 110.38-50.5L84.41-76.46L58.45-50.5C57.08-49.13 54.87-49.13 53.5-50.5C52.13-51.86 52.13-54.08 53.5-55.45L81.94-83.89ZM84.41-84.91C86.35-84.91 87.91-83.34 87.91-81.41L87.91-13.16C87.91-6.2 85.15 0.48 80.22 5.4C75.3 10.32 68.62 13.09 61.66 13.09L21.85 13.09C19.92 13.09 18.35 11.52 18.35 9.59C18.35 7.66 19.92 6.09 21.85 6.09L61.66 6.09C66.77 6.09 71.66 4.06 75.27 0.45C78.88-3.16 80.91-8.06 80.91-13.16L80.91-81.41C80.91-83.34 82.48-84.91 84.41-84.91Z"/>
  </g>
  <g id="Light-L" transform="matrix(1 0 0 1 1087.08 1556)">
   <path d="M81.7-83.16C82.76-84.21 84.47-84.21 85.52-83.16L113.96-54.72C115.01-53.67 115.01-51.96 113.96-50.9C112.91-49.85 111.2-49.85 110.14-50.9L83.61-77.43L57.08-50.9C56.03-49.85 54.32-49.85 53.27-50.9C52.21-51.96 52.21-53.67 53.27-54.72L81.7-83.16ZM83.61-83.95C85.1-83.95 86.31-82.74 86.31-81.25L86.31-13C86.31-6.25 83.63 0.22 78.86 5C74.09 9.77 67.61 12.45 60.86 12.45L21.05 12.45C19.56 12.45 18.35 11.24 18.35 9.75C18.35 8.26 19.56 7.05 21.05 7.05L60.86 7.05C66.18 7.05 71.28 4.94 75.04 1.18C78.8-2.58 80.91-7.68 80.91-13L80.91-81.25C80.91-82.74 82.12-83.95 83.61-83.95Z"/>
  </g>
  <g id="Thin-L" transform="matrix(1 0 0 1 791.417 1556)">
   <path d="M81.395-82.22C82.04-82.86 83.084-82.86 83.729-82.22L112.166-53.78C112.811-53.13 112.811-52.09 112.166-51.44C111.522-50.8 110.477-50.8 109.833-51.44L82.562-78.72L55.291-51.44C54.647-50.8 53.602-50.8 52.958-51.44C52.314-52.09 52.314-53.13 52.958-53.78L81.395-82.22ZM82.562-82.7C83.473-82.7 84.212-81.96 84.212-81.05L84.212-12.8C84.212-6.33 81.641-0.12 77.066 4.45C72.49 9.03 66.283 11.6 59.812 11.6L20 11.6C19.088 11.6 18.35 10.86 18.35 9.95C18.35 9.04 19.088 8.3 20 8.3L59.812 8.3C65.408 8.3 70.775 6.08 74.732 2.12C78.689-1.84 80.912-7.2 80.912-12.8L80.912-81.05C80.912-81.96 81.651-82.7 82.562-82.7Z"/>
  </g>
  <g id="Ultralight-L" transform="matrix(1 0 0 1 495.256 1556)">
   <path d="M81.235-81.725C81.665-82.155 82.361-82.155 82.791-81.725L111.228-53.285C111.658-52.855 111.658-52.165 111.228-51.735C110.799-51.305 110.102-51.305 109.673-51.735L82.013-79.395L54.353-51.735C53.924-51.305 53.227-51.305 52.798-51.735C52.368-52.165 52.368-52.855 52.798-53.285L81.235-81.725ZM82.013-82.045C82.62-82.045 83.113-81.555 83.113-80.945L83.113-12.695C83.113-6.375 80.6-0.305 76.127 4.165C71.655 8.645 65.588 11.155 59.263 11.155L19.45 11.155C18.843 11.155 18.35 10.665 18.35 10.055C18.35 9.445 18.843 8.955 19.45 8.955L59.263 8.955C65.005 8.955 70.512 6.675 74.572 2.615C78.632-1.445 80.913-6.955 80.913-12.695L80.913-80.945C80.913-81.555 81.405-82.045 82.013-82.045Z"/>
  </g>
  <g id="Black-M" transform="matrix(1 0 0 1 2872.74 1126)">
   <path d="M74.54-78.03C76.42-78.03 78.23-77.28 79.56-75.95L101.87-53.64C104.65-50.87 104.65-46.37 101.87-43.6C99.1-40.83 94.61-40.83 91.83-43.6L74.54-60.89L57.25-43.6C54.48-40.83 49.98-40.83 47.21-43.6C44.44-46.37 44.44-50.87 47.21-53.64L69.52-75.95C70.85-77.28 72.66-78.03 74.54-78.03ZM74.54-78.03C78.46-78.03 81.64-74.85 81.64-70.93L81.64-17.38C81.64-10.76 79.01-4.42 74.33 0.26C69.65 4.94 63.31 7.57 56.69 7.57L25.45 7.57C21.53 7.57 18.35 4.39 18.35 0.47C18.35-3.45 21.53-6.63 25.45-6.63L56.69-6.63C59.54-6.63 62.28-7.76 64.29-9.78C66.31-11.8 67.44-14.53 67.44-17.38L67.44-70.93C67.44-74.85 70.62-78.03 74.54-78.03Z"/>
  </g>
  <g id="Heavy-M" transform="matrix(1 0 0 1 2576.88 1126)">
   <path d="M73.69-77.18C75.35-77.18 76.94-76.52 78.11-75.35L100.42-53.04C102.86-50.6 102.86-46.64 100.42-44.2C97.98-41.76 94.02-41.76 91.58-44.2L73.69-62.09L55.8-44.2C53.36-41.76 49.4-41.76 46.96-44.2C44.52-46.64 44.52-50.6 46.96-53.04L69.27-75.35C70.44-76.52 72.03-77.18 73.69-77.18ZM73.69-77.18C77.14-77.18 79.94-74.38 79.94-70.93L79.94-17.38C79.94-10.99 77.4-4.86 72.88-0.34C68.36 4.18 62.23 6.72 55.84 6.72L24.6 6.72C21.15 6.72 18.35 3.92 18.35 0.47C18.35-2.98 21.15-5.78 24.6-5.78L55.84-5.78C58.92-5.78 61.87-7 64.04-9.18C66.22-11.35 67.44-14.3 67.44-17.38L67.44-70.93C67.44-74.38 70.24-77.18 73.69-77.18Z"/>
  </g>
  <g id="Bold-M" transform="matrix(1 0 0 1 2281.12 1126)">
   <path d="M72.74-76.23C74.15-76.23 75.5-75.67 76.49-74.68L98.8-52.37C100.87-50.3 100.87-46.94 98.8-44.87C96.73-42.8 93.38-42.8 91.31-44.87L72.74-63.44L54.18-44.87C52.11-42.8 48.75-42.8 46.68-44.87C44.61-46.94 44.61-50.3 46.68-52.37L68.99-74.68C69.99-75.67 71.34-76.23 72.74-76.23ZM72.74-76.23C75.67-76.23 78.04-73.86 78.04-70.93L78.04-17.38C78.04-11.24 75.6-5.35 71.26-1.01C66.92 3.33 61.03 5.77 54.89 5.77L23.65 5.77C20.73 5.77 18.35 3.4 18.35 0.47C18.35-2.46 20.73-4.83 23.65-4.83L54.89-4.83C58.22-4.83 61.41-6.15 63.77-8.51C66.12-10.86 67.44-14.05 67.44-17.38L67.44-70.93C67.44-73.86 69.82-76.23 72.74-76.23Z"/>
  </g>
  <g id="Semibold-M" transform="matrix(1 0 0 1 1985.06 1126)">
   <path d="M72.09-75.58C73.32-75.58 74.5-75.09 75.38-74.22L97.69-51.91C99.5-50.09 99.5-47.15 97.69-45.33C95.87-43.52 92.93-43.52 91.11-45.33L72.09-64.36L53.06-45.33C51.25-43.52 48.3-43.52 46.49-45.33C44.67-47.15 44.67-50.09 46.49-51.91L68.8-74.22C69.67-75.09 70.86-75.58 72.09-75.58ZM72.09-75.58C74.66-75.58 76.74-73.5 76.74-70.93L76.74-17.38C76.74-11.41 74.37-5.69 70.15-1.47C65.93 2.75 60.21 5.12 54.24 5.12L23 5.12C20.43 5.12 18.35 3.04 18.35 0.47C18.35-2.1 20.43-4.18 23-4.18L54.24-4.18C57.74-4.18 61.1-5.57 63.57-8.05C66.05-10.52 67.44-13.88 67.44-17.38L67.44-70.93C67.44-73.5 69.52-75.58 72.09-75.58Z"/>
  </g>
  <g id="Medium-M" transform="matrix(1 0 0 1 1688.85 1126)">
   <path d="M71.59-75.08C72.69-75.08 73.74-74.64 74.52-73.87L96.84-51.55C98.46-49.93 98.46-47.31 96.84-45.69C95.21-44.06 92.59-44.06 90.97-45.69L71.59-65.06L52.21-45.69C50.59-44.06 47.96-44.06 46.34-45.69C44.72-47.31 44.72-49.93 46.34-51.55L68.65-73.87C69.43-74.64 70.49-75.08 71.59-75.08ZM71.59-75.08C73.88-75.08 75.74-73.22 75.74-70.93L75.74-17.38C75.74-11.55 73.42-5.95 69.29-1.83C65.17 2.3 59.57 4.62 53.74 4.62L22.5 4.62C20.21 4.62 18.35 2.76 18.35 0.47C18.35-1.82 20.21-3.68 22.5-3.68L53.74-3.68C57.37-3.68 60.86-5.13 63.43-7.69C65.99-10.26 67.44-13.75 67.44-17.38L67.44-70.93C67.44-73.22 69.3-75.08 71.59-75.08Z"/>
  </g>
  <g id="Regular-M" transform="matrix(1 0 0 1 1392.79 1126)">
   <path d="M70.94-74.43C71.86-74.43 72.76-74.06 73.41-73.4L95.72-51.09C97.09-49.73 97.09-47.51 95.72-46.14C94.36-44.78 92.14-44.78 90.77-46.14L70.94-65.98L51.1-46.14C49.73-44.78 47.52-44.78 46.15-46.14C44.78-47.51 44.78-49.73 46.15-51.09L68.46-73.4C69.12-74.06 70.01-74.43 70.94-74.43ZM70.94-74.43C72.87-74.43 74.44-72.86 74.44-70.93L74.44-17.38C74.44-11.72 72.19-6.29 68.19-2.28C64.18 1.72 58.75 3.97 53.09 3.97L21.85 3.97C19.92 3.97 18.35 2.4 18.35 0.47C18.35-1.46 19.92-3.03 21.85-3.03L53.09-3.03C56.89-3.03 60.54-4.54 63.24-7.23C65.93-9.92 67.44-13.57 67.44-17.38L67.44-70.93C67.44-72.86 69.01-74.43 70.94-74.43Z"/>
  </g>
  <g id="Light-M" transform="matrix(1 0 0 1 1096.88 1126)">
   <path d="M70.14-73.63C70.85-73.63 71.54-73.34 72.05-72.84L94.36-50.53C95.41-49.47 95.41-47.76 94.36-46.71C93.3-45.65 91.6-45.65 90.54-46.71L70.14-67.11L49.73-46.71C48.68-45.65 46.97-45.65 45.92-46.71C44.86-47.76 44.86-49.47 45.92-50.53L68.23-72.84C68.73-73.34 69.42-73.63 70.14-73.63ZM70.14-73.63C71.63-73.63 72.84-72.42 72.84-70.93L72.84-17.38C72.84-11.93 70.67-6.7 66.82-2.85C62.96 1.01 57.74 3.17 52.29 3.17L21.05 3.17C19.56 3.17 18.35 1.96 18.35 0.47C18.35-1.02 19.56-2.23 21.05-2.23L52.29-2.23C56.31-2.23 60.16-3.83 63-6.67C65.84-9.51 67.44-13.36 67.44-17.38L67.44-70.93C67.44-72.42 68.65-73.63 70.14-73.63Z"/>
  </g>
  <g id="Thin-M" transform="matrix(1 0 0 1 801.217 1126)">
   <path d="M69.088-72.58C69.526-72.58 69.946-72.41 70.255-72.1L92.568-49.79C93.212-49.14 93.212-48.1 92.568-47.45C91.923-46.81 90.878-46.81 90.234-47.45L69.088-68.6L47.943-47.45C47.298-46.81 46.253-46.81 45.609-47.45C44.965-48.1 44.965-49.14 45.609-49.79L67.922-72.1C68.231-72.41 68.651-72.58 69.088-72.58ZM69.088-72.58C69.999-72.58 70.738-71.84 70.738-70.93L70.738-17.38C70.738-12.21 68.683-7.25 65.026-3.59C61.37 0.06 56.41 2.12 51.238 2.12L20 2.12C19.089 2.12 18.35 1.38 18.35 0.47C18.35-0.44 19.089-1.18 20-1.18L51.238-1.18C55.534-1.18 59.655-2.89 62.693-5.93C65.731-8.96 67.438-13.09 67.438-17.38L67.438-70.93C67.438-71.84 68.177-72.58 69.088-72.58Z"/>
  </g>
  <g id="Ultralight-M" transform="matrix(1 0 0 1 505.056 1126)">
   <path d="M68.538-72.03C68.83-72.03 69.11-71.92 69.316-71.71L91.628-49.4C92.058-48.97 92.058-48.27 91.628-47.84C91.199-47.41 90.502-47.41 90.073-47.84L68.538-69.38L47.003-47.84C46.574-47.41 45.877-47.41 45.448-47.84C45.018-48.27 45.018-48.97 45.448-49.4L67.76-71.71C67.967-71.92 68.246-72.03 68.538-72.03ZM68.538-72.03C69.145-72.03 69.638-71.54 69.638-70.93L69.638-17.38C69.638-12.36 67.641-7.54 64.087-3.98C60.534-0.43 55.714 1.57 50.688 1.57L19.45 1.57C18.843 1.57 18.35 1.08 18.35 0.47C18.35-0.14 18.843-0.63 19.45-0.63L50.688-0.63C55.13-0.63 59.391-2.4 62.532-5.54C65.673-8.68 67.438-12.94 67.438-17.38L67.438-70.93C67.438-71.54 67.93-72.03 68.538-72.03Z"/>
  </g>
  <g id="Black-S" transform="matrix(1 0 0 1 2880.45 696)">
   <path d="M58.93-69.74C61.7-72.513 66.2-72.513 68.97-69.74L86.47-52.24C89.24-49.467 89.24-44.972 86.47-42.199C83.7-39.426 79.2-39.426 76.43-42.199L63.95-54.679L51.47-42.199C48.7-39.426 44.2-39.426 41.43-42.199C38.66-44.972 38.66-49.467 41.43-52.24L58.93-69.74ZM63.95-71.82C67.87-71.82 71.05-68.641 71.05-64.72L71.05-22.72C71.05-17.124 68.83-11.757 64.87-7.8C60.91-3.843 55.55-1.62 49.95-1.62L25.45-1.62C21.53-1.62 18.35-4.798 18.35-8.72C18.35-12.641 21.53-15.82 25.45-15.82L49.95-15.82C51.78-15.82 53.54-16.547 54.83-17.841C56.12-19.135 56.85-20.89 56.85-22.72L56.85-64.72C56.85-68.641 60.03-71.82 63.95-71.82Z"/>
  </g>
  <g id="Heavy-S" transform="matrix(1 0 0 1 2584.58 696)">
   <path d="M58.68-68.971C61.12-71.412 65.08-71.412 67.52-68.971L85.02-51.471C87.46-49.031 87.46-45.073 85.02-42.633C82.58-40.192 78.62-40.192 76.18-42.633L63.1-55.713L50.02-42.633C47.58-40.192 43.62-40.192 41.18-42.633C38.74-45.073 38.74-49.031 41.18-51.471L58.68-68.971ZM63.1-70.802C66.55-70.802 69.35-68.004 69.35-64.552L69.35-22.552C69.35-17.181 67.22-12.031 63.42-8.233C59.62-4.436 54.47-2.302 49.1-2.302L24.6-2.302C21.15-2.302 18.35-5.1 18.35-8.552C18.35-12.004 21.15-14.802 24.6-14.802L49.1-14.802C51.16-14.802 53.13-15.619 54.58-17.072C56.03-18.525 56.85-20.497 56.85-22.552L56.85-64.552C56.85-68.004 59.65-70.802 63.1-70.802Z"/>
  </g>
  <g id="Bold-S" transform="matrix(1 0 0 1 2288.82 696)">
   <path d="M58.41-67.907C60.48-69.977 63.83-69.977 65.9-67.907L83.4-50.407C85.47-48.338 85.47-44.982 83.4-42.912C81.33-40.842 77.98-40.842 75.91-42.912L62.15-56.664L48.4-42.912C46.33-40.842 42.98-40.842 40.91-42.912C38.84-44.982 38.84-48.338 40.91-50.407L58.41-67.907ZM62.15-69.46C65.08-69.46 67.45-67.087 67.45-64.16L67.45-22.16C67.45-17.041 65.42-12.132 61.8-8.513C58.18-4.893 53.27-2.86 48.15-2.86L23.65-2.86C20.73-2.86 18.35-5.233 18.35-8.16C18.35-11.087 20.73-13.46 23.65-13.46L48.15-13.46C50.46-13.46 52.67-14.376 54.31-16.008C55.94-17.64 56.85-19.852 56.85-22.16L56.85-64.16C56.85-67.087 59.23-69.46 62.15-69.46Z"/>
  </g>
  <g id="Semibold-S" transform="matrix(1 0 0 1 1992.76 696)">
   <path d="M58.21-67.319C60.03-69.135 62.97-69.135 64.79-67.319L82.29-49.819C84.1-48.004 84.1-45.059 82.29-43.243C80.47-41.427 77.53-41.427 75.71-43.243L61.5-57.455L47.29-43.243C45.47-41.427 42.53-41.427 40.71-43.243C38.9-45.059 38.9-48.004 40.71-49.819L58.21-67.319ZM61.5-68.681C64.07-68.681 66.15-66.6 66.15-64.031L66.15-22.031C66.15-17.085 64.18-12.341 60.69-8.844C57.19-5.346 52.45-3.381 47.5-3.381L23-3.381C20.43-3.381 18.35-5.463 18.35-8.031C18.35-10.6 20.43-12.681 23-12.681L47.5-12.681C49.98-12.681 52.36-13.667 54.11-15.42C55.86-17.173 56.85-19.552 56.85-22.031L56.85-64.031C56.85-66.6 58.93-68.681 61.5-68.681Z"/>
  </g>
  <g id="Medium-S" transform="matrix(1 0 0 1 1696.55 696)">
   <path d="M58.07-66.8685C59.69-68.4894 62.31-68.4894 63.93-66.8685L81.43-49.3685C83.05-47.7475 83.05-45.1204 81.43-43.4994C79.81-41.8785 77.19-41.8785 75.57-43.4994L61-58.0645L46.43-43.4994C44.81-41.8785 42.19-41.8785 40.57-43.4994C38.94-45.1204 38.94-47.7475 40.57-49.3685L58.07-66.8685ZM61-68.0835C63.29-68.0835 65.15-66.2254 65.15-63.9335L65.15-21.9335C65.15-17.1204 63.24-12.5035 59.83-9.09947C56.43-5.69647 51.81-3.78347 47-3.78347L22.5-3.78347C20.21-3.78347 18.35-5.64148 18.35-7.93347C18.35-10.2255 20.21-12.0835 22.5-12.0835L47-12.0835C49.61-12.0835 52.12-13.1215 53.96-14.9685C55.81-16.8164 56.85-19.3214 56.85-21.9335L56.85-63.9335C56.85-66.2254 58.71-68.0835 61-68.0835Z"/>
  </g>
  <g id="Regular-S" transform="matrix(1 0 0 1 1400.49 696)">
   <path d="M57.88-66.2835C59.24-67.6505 61.46-67.6505 62.82-66.2835L80.32-48.7835C81.69-47.4165 81.69-45.2005 80.32-43.8335C78.96-42.4665 76.74-42.4665 75.38-43.8335L60.35-58.8585L45.32-43.8335C43.96-42.4665 41.74-42.4665 40.38-43.8335C39.01-45.2005 39.01-47.4165 40.38-48.7835L57.88-66.2835ZM60.35-67.3084C62.28-67.3084 63.85-65.7414 63.85-63.8084L63.85-21.8084C63.85-17.1675 62.01-12.7165 58.72-9.4345C55.44-6.1525 50.99-4.3085 46.35-4.3085L21.85-4.3085C19.92-4.3085 18.35-5.8755 18.35-7.8085C18.35-9.7415 19.92-11.3084 21.85-11.3084L46.35-11.3084C49.13-11.3084 51.81-12.4145 53.77-14.3835C55.74-16.3535 56.85-19.0235 56.85-21.8084L56.85-63.8084C56.85-65.7414 58.42-67.3084 60.35-67.3084Z"/>
  </g>
  <g id="Light-S" transform="matrix(1 0 0 1 1104.58 696)">
   <path d="M57.64-65.5604C58.7-66.6154 60.41-66.6154 61.46-65.5604L78.96-48.0604C80.01-47.0065 80.01-45.2964 78.96-44.2424C77.91-43.1884 76.2-43.1884 75.14-44.2424L59.55-59.8334L43.96-44.2424C42.91-43.1884 41.2-43.1884 40.14-44.2424C39.09-45.2964 39.09-47.0065 40.14-48.0604L57.64-65.5604ZM59.55-66.3514C61.04-66.3514 62.25-65.1424 62.25-63.6514L62.25-21.6514C62.25-17.2225 60.49-12.9744 57.36-9.8435C54.23-6.7115 49.98-4.9515 45.55-4.9515L21.05-4.9515C19.56-4.9515 18.35-6.1605 18.35-7.6515C18.35-9.1425 19.56-10.3514 21.05-10.3514L45.55-10.3514C48.55-10.3514 51.42-11.5424 53.54-13.6614C55.66-15.7805 56.85-18.6544 56.85-21.6514L56.85-63.6514C56.85-65.1424 58.06-66.3514 59.55-66.3514Z"/>
  </g>
  <g id="Thin-S" transform="matrix(1 0 0 1 808.917 696)">
   <path d="M57.333-64.6124C57.977-65.2574 59.022-65.2574 59.666-64.6124L77.166-47.1124C77.811-46.4684 77.811-45.4235 77.166-44.7794C76.522-44.1345 75.477-44.1345 74.833-44.7794L58.5-61.1124L42.166-44.7794C41.522-44.1345 40.477-44.1345 39.833-44.7794C39.189-45.4235 39.189-46.4684 39.833-47.1124L57.333-64.6124ZM58.5-65.0956C59.411-65.0956 60.15-64.3574 60.15-63.4456L60.15-21.4456C60.15-17.2954 58.501-13.3144 55.566-10.3795C52.631-7.4445 48.65-5.7955 44.5-5.7955L20-5.7955C19.088-5.7955 18.35-6.5345 18.35-7.4455C18.35-8.3575 19.088-9.0955 20-9.0955L44.5-9.0955C47.775-9.0955 50.916-10.3976 53.232-12.7134C55.548-15.0294 56.85-18.1704 56.85-21.4456L56.85-63.4456C56.85-64.3574 57.588-65.0956 58.5-65.0956Z"/>
  </g>
  <g id="Ultralight-S" transform="matrix(1 0 0 1 512.756 696)">
   <path d="M57.173-64.118C57.602-64.548 58.299-64.548 58.728-64.118L76.228-46.618C76.658-46.189 76.658-45.492 76.228-45.063C75.799-44.633 75.102-44.633 74.673-45.063L57.95-61.785L41.228-45.063C40.799-44.633 40.102-44.633 39.673-45.063C39.243-45.492 39.243-46.189 39.673-46.618L57.173-64.118ZM57.95-64.441C58.558-64.441 59.05-63.948 59.05-63.341L59.05-21.341C59.05-17.336 57.46-13.495 54.628-10.663C51.796-7.831 47.955-6.241 43.95-6.241L19.45-6.241C18.843-6.241 18.35-6.733 18.35-7.341C18.35-7.948 18.843-8.441 19.45-8.441L43.95-8.441C47.372-8.441 50.653-9.8 53.072-12.219C55.491-14.638 56.85-17.919 56.85-21.341L56.85-63.341C56.85-63.948 57.343-64.441 57.95-64.441Z"/>
  </g>
 </g>
</svg>
