<?xml version="1.0" encoding="UTF-8"?>
<!--Generator: Apple Native CoreSVG 175-->
<!DOCTYPE svg
PUBLIC "-//W3C//DTD SVG 1.1//EN"
       "http://www.w3.org/Graphics/SVG/1.1/DTD/svg11.dtd">
<svg version="1.1" xmlns="http://www.w3.org/2000/svg" xmlns:xlink="http://www.w3.org/1999/xlink" width="3300" height="2200">
 <!--glyph: "", point size: 100.0, font version: "17.0d12e1", template writer version: "65.1"-->
 <style>.hierarchical-0:secondary {fill:#4D4D4D}
.hierarchical-1:primary {fill:#212121}

.SFSymbolsPreview212121 {fill:#212121;opacity:1.0}
.SFSymbolsPreview4D4D4D {fill:#4D4D4D;opacity:1.0}
</style>
 <g id="Notes">
  <rect height="2200" id="artboard" style="fill:white;opacity:1" width="3300" x="0" y="0"/>
  <line style="fill:none;stroke:black;opacity:1;stroke-width:0.5;" x1="263" x2="3036" y1="292" y2="292"/>
  <text style="stroke:none;fill:black;font-family:sans-serif;font-size:13;font-weight:bold;" transform="matrix(1 0 0 1 263 322)">Weight/Scale Variations</text>
  <text style="stroke:none;fill:black;font-family:sans-serif;font-size:13;text-anchor:middle;" transform="matrix(1 0 0 1 559.711 322)">Ultralight</text>
  <text style="stroke:none;fill:black;font-family:sans-serif;font-size:13;text-anchor:middle;" transform="matrix(1 0 0 1 856.422 322)">Thin</text>
  <text style="stroke:none;fill:black;font-family:sans-serif;font-size:13;text-anchor:middle;" transform="matrix(1 0 0 1 1153.13 322)">Light</text>
  <text style="stroke:none;fill:black;font-family:sans-serif;font-size:13;text-anchor:middle;" transform="matrix(1 0 0 1 1449.84 322)">Regular</text>
  <text style="stroke:none;fill:black;font-family:sans-serif;font-size:13;text-anchor:middle;" transform="matrix(1 0 0 1 1746.56 322)">Medium</text>
  <text style="stroke:none;fill:black;font-family:sans-serif;font-size:13;text-anchor:middle;" transform="matrix(1 0 0 1 2043.27 322)">Semibold</text>
  <text style="stroke:none;fill:black;font-family:sans-serif;font-size:13;text-anchor:middle;" transform="matrix(1 0 0 1 2339.98 322)">Bold</text>
  <text style="stroke:none;fill:black;font-family:sans-serif;font-size:13;text-anchor:middle;" transform="matrix(1 0 0 1 2636.69 322)">Heavy</text>
  <text style="stroke:none;fill:black;font-family:sans-serif;font-size:13;text-anchor:middle;" transform="matrix(1 0 0 1 2933.4 322)">Black</text>
  <line style="fill:none;stroke:black;opacity:1;stroke-width:0.5;" x1="263" x2="3036" y1="1903" y2="1903"/>
  <g transform="matrix(1 0 0 1 263 1933)">
   <path d="M9.24805 0.830078Q10.8691 0.830078 12.2949 0.214844Q13.7207-0.400391 14.8096-1.49414Q15.8984-2.58789 16.5186-4.01367Q17.1387-5.43945 17.1387-7.05078Q17.1387-8.66211 16.5186-10.0879Q15.8984-11.5137 14.8047-12.6074Q13.7109-13.7012 12.2852-14.3164Q10.8594-14.9316 9.23828-14.9316Q7.62695-14.9316 6.20117-14.3164Q4.77539-13.7012 3.69141-12.6074Q2.60742-11.5137 1.9873-10.0879Q1.36719-8.66211 1.36719-7.05078Q1.36719-5.43945 1.9873-4.01367Q2.60742-2.58789 3.69629-1.49414Q4.78516-0.400391 6.21094 0.214844Q7.63672 0.830078 9.24805 0.830078ZM9.24805-0.654297Q7.91992-0.654297 6.7627-1.14746Q5.60547-1.64062 4.73145-2.51953Q3.85742-3.39844 3.36426-4.56055Q2.87109-5.72266 2.87109-7.05078Q2.87109-8.37891 3.35938-9.54102Q3.84766-10.7031 4.72168-11.582Q5.5957-12.4609 6.75293-12.9541Q7.91016-13.4473 9.23828-13.4473Q10.5762-13.4473 11.7334-12.9541Q12.8906-12.4609 13.7695-11.582Q14.6484-10.7031 15.1465-9.54102Q15.6445-8.37891 15.6445-7.05078Q15.6445-5.72266 15.1514-4.56055Q14.6582-3.39844 13.7842-2.51953Q12.9102-1.64062 11.748-1.14746Q10.5859-0.654297 9.24805-0.654297ZM5.6543-7.05078Q5.6543-6.72852 5.85938-6.52832Q6.06445-6.32812 6.40625-6.32812L8.51562-6.32812L8.51562-4.20898Q8.51562-3.88672 8.71094-3.67676Q8.90625-3.4668 9.23828-3.4668Q9.56055-3.4668 9.77051-3.67676Q9.98047-3.88672 9.98047-4.20898L9.98047-6.32812L12.0898-6.32812Q12.4219-6.32812 12.627-6.52832Q12.832-6.72852 12.832-7.05078Q12.832-7.38281 12.627-7.58789Q12.4219-7.79297 12.0898-7.79297L9.98047-7.79297L9.98047-9.90234Q9.98047-10.2344 9.77051-10.4443Q9.56055-10.6543 9.23828-10.6543Q8.90625-10.6543 8.71094-10.4443Q8.51562-10.2344 8.51562-9.90234L8.51562-7.79297L6.40625-7.79297Q6.06445-7.79297 5.85938-7.58789Q5.6543-7.38281 5.6543-7.05078Z"/>
  </g>
  <g transform="matrix(1 0 0 1 281.867 1933)">
   <path d="M11.709 2.91016Q13.75 2.91016 15.5518 2.12891Q17.3535 1.34766 18.7305-0.0292969Q20.1074-1.40625 20.8887-3.20801Q21.6699-5.00977 21.6699-7.05078Q21.6699-9.0918 20.8887-10.8936Q20.1074-12.6953 18.7305-14.0723Q17.3535-15.4492 15.5469-16.2305Q13.7402-17.0117 11.6992-17.0117Q9.6582-17.0117 7.85645-16.2305Q6.05469-15.4492 4.68262-14.0723Q3.31055-12.6953 2.5293-10.8936Q1.74805-9.0918 1.74805-7.05078Q1.74805-5.00977 2.5293-3.20801Q3.31055-1.40625 4.6875-0.0292969Q6.06445 1.34766 7.86621 2.12891Q9.66797 2.91016 11.709 2.91016ZM11.709 1.25Q9.98047 1.25 8.47656 0.605469Q6.97266-0.0390625 5.83496-1.17676Q4.69727-2.31445 4.05762-3.81836Q3.41797-5.32227 3.41797-7.05078Q3.41797-8.7793 4.05762-10.2832Q4.69727-11.7871 5.83008-12.9297Q6.96289-14.0723 8.4668-14.7119Q9.9707-15.3516 11.6992-15.3516Q13.4277-15.3516 14.9316-14.7119Q16.4355-14.0723 17.5781-12.9297Q18.7207-11.7871 19.3652-10.2832Q20.0098-8.7793 20.0098-7.05078Q20.0098-5.32227 19.3701-3.81836Q18.7305-2.31445 17.5928-1.17676Q16.4551-0.0390625 14.9463 0.605469Q13.4375 1.25 11.709 1.25ZM7.17773-7.05078Q7.17773-6.69922 7.41211-6.47461Q7.64648-6.25 8.01758-6.25L10.8887-6.25L10.8887-3.36914Q10.8887-2.99805 11.1133-2.76855Q11.3379-2.53906 11.6895-2.53906Q12.0605-2.53906 12.29-2.76855Q12.5195-2.99805 12.5195-3.36914L12.5195-6.25L15.4004-6.25Q15.7715-6.25 16.001-6.47461Q16.2305-6.69922 16.2305-7.05078Q16.2305-7.42188 16.001-7.65137Q15.7715-7.88086 15.4004-7.88086L12.5195-7.88086L12.5195-10.752Q12.5195-11.1328 12.29-11.3623Q12.0605-11.5918 11.6895-11.5918Q11.3379-11.5918 11.1133-11.3574Q10.8887-11.123 10.8887-10.752L10.8887-7.88086L8.01758-7.88086Q7.63672-7.88086 7.40723-7.65137Q7.17773-7.42188 7.17773-7.05078Z"/>
  </g>
  <g transform="matrix(1 0 0 1 305.646 1933)">
   <path d="M14.9707 5.66406Q17.0605 5.66406 18.96 5.01465Q20.8594 4.36523 22.4512 3.19336Q24.043 2.02148 25.2197 0.429688Q26.3965-1.16211 27.0459-3.06641Q27.6953-4.9707 27.6953-7.05078Q27.6953-9.14062 27.0459-11.04Q26.3965-12.9395 25.2197-14.5312Q24.043-16.123 22.4512-17.2998Q20.8594-18.4766 18.9551-19.126Q17.0508-19.7754 14.9609-19.7754Q12.8711-19.7754 10.9717-19.126Q9.07227-18.4766 7.48535-17.2998Q5.89844-16.123 4.72168-14.5312Q3.54492-12.9395 2.90039-11.04Q2.25586-9.14062 2.25586-7.05078Q2.25586-4.9707 2.90527-3.06641Q3.55469-1.16211 4.72656 0.429688Q5.89844 2.02148 7.49023 3.19336Q9.08203 4.36523 10.9814 5.01465Q12.8809 5.66406 14.9707 5.66406ZM14.9707 3.84766Q13.1641 3.84766 11.5283 3.2959Q9.89258 2.74414 8.53516 1.74805Q7.17773 0.751953 6.17676-0.610352Q5.17578-1.97266 4.62891-3.6084Q4.08203-5.24414 4.08203-7.05078Q4.08203-8.86719 4.62891-10.5029Q5.17578-12.1387 6.17188-13.501Q7.16797-14.8633 8.52539-15.8594Q9.88281-16.8555 11.5186-17.4023Q13.1543-17.9492 14.9609-17.9492Q16.7773-17.9492 18.4131-17.4023Q20.0488-16.8555 21.4111-15.8594Q22.7734-14.8633 23.7695-13.501Q24.7656-12.1387 25.3174-10.5029Q25.8691-8.86719 25.8691-7.05078Q25.8789-5.24414 25.332-3.6084Q24.7852-1.97266 23.7842-0.610352Q22.7832 0.751953 21.4209 1.74805Q20.0586 2.74414 18.4229 3.2959Q16.7871 3.84766 14.9707 3.84766ZM9.19922-7.05078Q9.19922-6.66992 9.45801-6.4209Q9.7168-6.17188 10.1172-6.17188L14.0625-6.17188L14.0625-2.2168Q14.0625-1.81641 14.3115-1.55762Q14.5605-1.29883 14.9512-1.29883Q15.3516-1.29883 15.6104-1.55273Q15.8691-1.80664 15.8691-2.2168L15.8691-6.17188L19.8242-6.17188Q20.2246-6.17188 20.4785-6.4209Q20.7324-6.66992 20.7324-7.05078Q20.7324-7.46094 20.4785-7.71484Q20.2246-7.96875 19.8242-7.96875L15.8691-7.96875L15.8691-11.9141Q15.8691-12.3242 15.6104-12.583Q15.3516-12.8418 14.9512-12.8418Q14.5605-12.8418 14.3115-12.583Q14.0625-12.3242 14.0625-11.9141L14.0625-7.96875L10.1172-7.96875Q9.70703-7.96875 9.45312-7.71484Q9.19922-7.46094 9.19922-7.05078Z"/>
  </g>
  <text style="stroke:none;fill:black;font-family:sans-serif;font-size:13;font-weight:bold;" transform="matrix(1 0 0 1 263 1953)">Design Variations</text>
  <text style="stroke:none;fill:black;font-family:sans-serif;font-size:13;" transform="matrix(1 0 0 1 263 1971)">Symbols are supported in up to nine weights and three scales.</text>
  <text style="stroke:none;fill:black;font-family:sans-serif;font-size:13;" transform="matrix(1 0 0 1 263 1989)">For optimal layout with text and other symbols, vertically align</text>
  <text style="stroke:none;fill:black;font-family:sans-serif;font-size:13;" transform="matrix(1 0 0 1 263 2007)">symbols with the adjacent text.</text>
  <line style="fill:none;stroke:#00AEEF;stroke-width:0.5;opacity:1.0;" x1="776" x2="776" y1="1919" y2="1933"/>
  <g transform="matrix(1 0 0 1 776 1933)">
   <path d="M3.31055 0.15625Q3.70117 0.15625 3.91602-0.00976562Q4.13086-0.175781 4.26758-0.585938L5.52734-4.0332L11.2891-4.0332L12.5488-0.585938Q12.6855-0.175781 12.9004-0.00976562Q13.1152 0.15625 13.4961 0.15625Q13.8867 0.15625 14.1162-0.0585938Q14.3457-0.273438 14.3457-0.644531Q14.3457-0.869141 14.2383-1.17188L9.6582-13.3691Q9.48242-13.8184 9.17969-14.043Q8.87695-14.2676 8.4082-14.2676Q7.5-14.2676 7.17773-13.3789L2.59766-1.16211Q2.49023-0.859375 2.49023-0.634766Q2.49023-0.263672 2.70996-0.0537109Q2.92969 0.15625 3.31055 0.15625ZM6.00586-5.51758L8.37891-12.0898L8.42773-12.0898L10.8008-5.51758Z"/>
  </g>
  <line style="fill:none;stroke:#00AEEF;stroke-width:0.5;opacity:1.0;" x1="793.197" x2="793.197" y1="1919" y2="1933"/>
  <text style="stroke:none;fill:black;font-family:sans-serif;font-size:13;font-weight:bold;" transform="matrix(1 0 0 1 776 1953)">Margins</text>
  <text style="stroke:none;fill:black;font-family:sans-serif;font-size:13;" transform="matrix(1 0 0 1 776 1971)">Leading and trailing margins on the left and right side of each symbol</text>
  <text style="stroke:none;fill:black;font-family:sans-serif;font-size:13;" transform="matrix(1 0 0 1 776 1989)">can be adjusted by modifying the x-location of the margin guidelines.</text>
  <text style="stroke:none;fill:black;font-family:sans-serif;font-size:13;" transform="matrix(1 0 0 1 776 2007)">Modifications are automatically applied proportionally to all</text>
  <text style="stroke:none;fill:black;font-family:sans-serif;font-size:13;" transform="matrix(1 0 0 1 776 2025)">scales and weights.</text>
  <g transform="matrix(1 0 0 1 1289 1933)">
   <path d="M2.8418 1.86523L4.54102 3.57422Q5.18555 4.22852 5.90332 4.17969Q6.62109 4.13086 7.31445 3.35938L18.0078-8.42773L17.041-9.4043L6.42578 2.27539Q6.16211 2.57812 5.89355 2.61719Q5.625 2.65625 5.27344 2.30469L4.10156 1.14258Q3.75 0.791016 3.79395 0.522461Q3.83789 0.253906 4.14062-0.0195312L15.6152-10.8203L14.6387-11.7871L3.04688-0.898438Q2.30469-0.214844 2.25098 0.498047Q2.19727 1.21094 2.8418 1.86523ZM9.25781-16.3281Q8.94531-16.0254 8.90625-15.6348Q8.86719-15.2441 9.04297-14.9512Q9.21875-14.6777 9.55566-14.541Q9.89258-14.4043 10.3809-14.5215Q11.4746-14.7754 12.5977-14.7314Q13.7207-14.6875 14.7949-13.9844L14.209-12.5293Q13.9551-11.9043 14.0674-11.4404Q14.1797-10.9766 14.5801-10.5664L16.875-8.25195Q17.2363-7.88086 17.5781-7.82227Q17.9199-7.76367 18.3398-7.8418L19.4043-8.03711L20.0684-7.36328L20.0293-6.80664Q20-6.43555 20.1221-6.12305Q20.2441-5.81055 20.6055-5.44922L21.3672-4.70703Q21.7285-4.3457 22.1533-4.33105Q22.5781-4.31641 22.9297-4.66797L25.8398-7.58789Q26.1914-7.93945 26.1816-8.35449Q26.1719-8.76953 25.8105-9.13086L25.0391-9.89258Q24.6875-10.2539 24.3799-10.3857Q24.0723-10.5176 23.7109-10.4883L23.1348-10.4395L22.4902-11.0742L22.7344-12.1973Q22.832-12.6172 22.6953-12.9834Q22.5586-13.3496 22.1191-13.7891L19.9219-15.9766Q18.6719-17.2168 17.2607-17.8369Q15.8496-18.457 14.4189-18.4814Q12.9883-18.5059 11.665-17.959Q10.3418-17.4121 9.25781-16.3281ZM10.752-15.957Q11.6602-16.6211 12.7002-16.9043Q13.7402-17.1875 14.8047-17.085Q15.8691-16.9824 16.8701-16.5137Q17.8711-16.0449 18.7012-15.2051L21.1328-12.793Q21.3086-12.6172 21.3525-12.4512Q21.3965-12.2852 21.3379-12.0312L21.0156-10.5469L22.5195-9.0625L23.5059-9.12109Q23.6914-9.13086 23.7891-9.09668Q23.8867-9.0625 24.0332-8.91602L24.6094-8.33984L22.168-5.89844L21.5918-6.47461Q21.4453-6.62109 21.4062-6.71875Q21.3672-6.81641 21.377-7.01172L21.4453-7.98828L19.9512-9.47266L18.4277-9.21875Q18.1836-9.16992 18.042-9.2041Q17.9004-9.23828 17.7148-9.41406L15.7129-11.416Q15.5176-11.5918 15.4932-11.7529Q15.4688-11.9141 15.5859-12.1875L16.4648-14.2773Q15.293-15.3711 13.8281-15.791Q12.3633-16.2109 10.8398-15.7617Q10.7227-15.7324 10.6885-15.8057Q10.6543-15.8789 10.752-15.957Z"/>
  </g>
  <text style="stroke:none;fill:black;font-family:sans-serif;font-size:13;font-weight:bold;" transform="matrix(1 0 0 1 1289 1953)">Exporting</text>
  <text style="stroke:none;fill:black;font-family:sans-serif;font-size:13;" transform="matrix(1 0 0 1 1289 1971)">Symbols should be outlined when exporting to ensure the</text>
  <text style="stroke:none;fill:black;font-family:sans-serif;font-size:13;" transform="matrix(1 0 0 1 1289 1989)">design is preserved when submitting to Xcode.</text>
  <text id="template-version" style="stroke:none;fill:black;font-family:sans-serif;font-size:13;text-anchor:end;" transform="matrix(1 0 0 1 3036 1933)">Template v.3.0</text>
  <text style="stroke:none;fill:black;font-family:sans-serif;font-size:13;text-anchor:end;" transform="matrix(1 0 0 1 3036 1951)">Requires Xcode 13 or greater</text>
  <text id="descriptive-name" style="stroke:none;fill:black;font-family:sans-serif;font-size:13;text-anchor:end;" transform="matrix(1 0 0 1 3036 1969)">Generated from columns</text>
  <text style="stroke:none;fill:black;font-family:sans-serif;font-size:13;text-anchor:end;" transform="matrix(1 0 0 1 3036 1987)">Typeset at 100 points</text>
  <text style="stroke:none;fill:black;font-family:sans-serif;font-size:13;" transform="matrix(1 0 0 1 263 726)">Small</text>
  <text style="stroke:none;fill:black;font-family:sans-serif;font-size:13;" transform="matrix(1 0 0 1 263 1156)">Medium</text>
  <text style="stroke:none;fill:black;font-family:sans-serif;font-size:13;" transform="matrix(1 0 0 1 263 1586)">Large</text>
 </g>
 <g id="Guides">
  <g id="H-reference" style="fill:#27AAE1;stroke:none;" transform="matrix(1 0 0 1 339 696)">
   <path d="M0.976562 0L3.66211 0L29.3457-67.1387L30.0293-67.1387L30.0293-70.459L28.125-70.459ZM11.6699-24.4629L46.9727-24.4629L46.2402-26.709L12.4512-26.709ZM55.127 0L57.7637 0L30.6152-70.459L29.4434-70.459L29.4434-67.1387Z"/>
  </g>
  <line id="Baseline-S" style="fill:none;stroke:#27AAE1;opacity:1;stroke-width:0.5;" x1="263" x2="3036" y1="696" y2="696"/>
  <line id="Capline-S" style="fill:none;stroke:#27AAE1;opacity:1;stroke-width:0.5;" x1="263" x2="3036" y1="625.541" y2="625.541"/>
  <g id="H-reference" style="fill:#27AAE1;stroke:none;" transform="matrix(1 0 0 1 339 1126)">
   <path d="M0.976562 0L3.66211 0L29.3457-67.1387L30.0293-67.1387L30.0293-70.459L28.125-70.459ZM11.6699-24.4629L46.9727-24.4629L46.2402-26.709L12.4512-26.709ZM55.127 0L57.7637 0L30.6152-70.459L29.4434-70.459L29.4434-67.1387Z"/>
  </g>
  <line id="Baseline-M" style="fill:none;stroke:#27AAE1;opacity:1;stroke-width:0.5;" x1="263" x2="3036" y1="1126" y2="1126"/>
  <line id="Capline-M" style="fill:none;stroke:#27AAE1;opacity:1;stroke-width:0.5;" x1="263" x2="3036" y1="1055.54" y2="1055.54"/>
  <g id="H-reference" style="fill:#27AAE1;stroke:none;" transform="matrix(1 0 0 1 339 1556)">
   <path d="M0.976562 0L3.66211 0L29.3457-67.1387L30.0293-67.1387L30.0293-70.459L28.125-70.459ZM11.6699-24.4629L46.9727-24.4629L46.2402-26.709L12.4512-26.709ZM55.127 0L57.7637 0L30.6152-70.459L29.4434-70.459L29.4434-67.1387Z"/>
  </g>
  <line id="Baseline-L" style="fill:none;stroke:#27AAE1;opacity:1;stroke-width:0.5;" x1="263" x2="3036" y1="1556" y2="1556"/>
  <line id="Capline-L" style="fill:none;stroke:#27AAE1;opacity:1;stroke-width:0.5;" x1="263" x2="3036" y1="1485.54" y2="1485.54"/>
  <line id="left-margin-Regular-M" style="fill:none;stroke:#00AEEF;stroke-width:0.5;opacity:1.0;" x1="1392.45" x2="1392.45" y1="1030.78" y2="1150.12"/>
  <line id="right-margin-Regular-M" style="fill:none;stroke:#00AEEF;stroke-width:0.5;opacity:1.0;" x1="1507.24" x2="1507.24" y1="1030.78" y2="1150.12"/>
 </g>
 <g id="Symbols">
  <g id="Black-L" transform="matrix(1 0 0 1 2861.38 1556)">
   <path class="hierarchical-0:secondary SFSymbolsPreview4D4D4D" d="M72.18-93.52C76.1-93.52 79.28-90.34 79.28-86.42L79.28 15.96C79.28 19.88 76.1 23.06 72.18 23.06C68.26 23.06 65.08 19.88 65.08 15.96L65.08-86.42C65.08-90.34 68.26-93.52 72.18-93.52Z"/>
   <path class="hierarchical-1:primary SFSymbolsPreview212121" d="M19.3-88.11C22.77-91.57 27.47-93.52 32.37-93.52L111.99-93.52C116.89-93.52 121.59-91.57 125.06-88.11C128.52-84.64 130.47-79.94 130.47-75.04L130.47 4.58C130.47 9.48 128.52 14.18 125.06 17.64C121.59 21.11 116.89 23.06 111.99 23.06L32.37 23.06C27.47 23.06 22.77 21.11 19.3 17.64C15.84 14.18 13.89 9.48 13.89 4.58L13.89-75.04C13.89-79.94 15.84-84.64 19.3-88.11ZM32.37-79.32C31.23-79.32 30.15-78.87 29.35-78.07C28.54-77.27 28.09-76.18 28.09-75.04L28.09 4.58C28.09 5.71 28.54 6.8 29.35 7.6C30.15 8.41 31.23 8.86 32.37 8.86L111.99 8.86C113.13 8.86 114.21 8.41 115.02 7.6C115.82 6.8 116.27 5.71 116.27 4.58L116.27-75.04C116.27-76.18 115.82-77.27 115.02-78.07C114.21-78.87 113.13-79.32 111.99-79.32L32.37-79.32Z"/>
  </g>
  <g id="Heavy-L" transform="matrix(1 0 0 1 2565.52 1556)">
   <path class="hierarchical-0:secondary SFSymbolsPreview4D4D4D" d="M71.33-92.67C74.78-92.67 77.58-89.87 77.58-86.42L77.58 15.96C77.58 19.41 74.78 22.21 71.33 22.21C67.88 22.21 65.08 19.41 65.08 15.96L65.08-86.42C65.08-89.87 67.88-92.67 71.33-92.67Z"/>
   <path class="hierarchical-1:primary SFSymbolsPreview212121" d="M19.05-87.51C22.36-90.81 26.84-92.67 31.52-92.67L111.14-92.67C115.81-92.67 120.3-90.81 123.6-87.51C126.91-84.2 128.76-79.72 128.76-75.04L128.76 4.58C128.76 9.26 126.91 13.74 123.6 17.04C120.3 20.35 115.81 22.21 111.14 22.21L31.52 22.21C26.84 22.21 22.36 20.35 19.05 17.04C15.75 13.74 13.89 9.26 13.89 4.58L13.89-75.04C13.89-79.72 15.75-84.2 19.05-87.51ZM31.52-80.17C30.16-80.17 28.85-79.63 27.89-78.67C26.93-77.71 26.39-76.4 26.39-75.04L26.39 4.58C26.39 5.94 26.93 7.24 27.89 8.21C28.85 9.17 30.16 9.71 31.52 9.71L111.14 9.71C112.5 9.71 113.8 9.17 114.76 8.21C115.73 7.24 116.26 5.94 116.26 4.58L116.26-75.04C116.26-76.4 115.73-77.71 114.76-78.67C113.8-79.63 112.5-80.17 111.14-80.17L31.52-80.17Z"/>
  </g>
  <g id="Bold-L" transform="matrix(1 0 0 1 2269.76 1556)">
   <path class="hierarchical-0:secondary SFSymbolsPreview4D4D4D" d="M70.37-91.72C73.3-91.72 75.67-89.35 75.67-86.42L75.67 15.96C75.67 18.88 73.3 21.26 70.37 21.26C67.45 21.26 65.07 18.88 65.07 15.96L65.07-86.42C65.07-89.35 67.45-91.72 70.37-91.72Z"/>
   <path class="hierarchical-1:primary SFSymbolsPreview212121" d="M18.77-86.83C21.9-89.96 26.14-91.72 30.56-91.72L110.19-91.72C114.61-91.72 118.85-89.96 121.98-86.83C125.11-83.71 126.86-79.47 126.86-75.04L126.86 4.58C126.86 9 125.11 13.25 121.98 16.37C118.85 19.5 114.61 21.26 110.19 21.26L30.56 21.26C26.14 21.26 21.9 19.5 18.77 16.37C15.64 13.25 13.89 9 13.89 4.58L13.89-75.04C13.89-79.47 15.64-83.71 18.77-86.83ZM30.56-81.12C28.95-81.12 27.41-80.48 26.27-79.34C25.13-78.2 24.49-76.65 24.49-75.04L24.49 4.58C24.49 6.19 25.13 7.74 26.27 8.88C27.41 10.02 28.95 10.66 30.56 10.66L110.19 10.66C111.8 10.66 113.34 10.02 114.48 8.88C115.62 7.74 116.26 6.19 116.26 4.58L116.26-75.04C116.26-76.65 115.62-78.2 114.48-79.34C113.34-80.48 111.8-81.12 110.19-81.12L30.56-81.12Z"/>
  </g>
  <g id="Semibold-L" transform="matrix(1 0 0 1 1973.69 1556)">
   <path class="hierarchical-0:secondary SFSymbolsPreview4D4D4D" d="M69.73-91.07C72.3-91.07 74.38-88.98 74.38-86.42L74.38 15.96C74.38 18.53 72.3 20.61 69.73 20.61C67.16 20.61 65.08 18.53 65.08 15.96L65.08-86.42C65.08-88.98 67.16-91.07 69.73-91.07Z"/>
   <path class="hierarchical-1:primary SFSymbolsPreview212121" d="M18.59-86.37C21.59-89.38 25.67-91.07 29.92-91.07L109.54-91.07C113.79-91.07 117.87-89.38 120.87-86.37C123.88-83.37 125.57-79.29 125.57-75.04L125.57 4.58C125.57 8.83 123.88 12.91 120.87 15.91C117.87 18.92 113.79 20.61 109.54 20.61L29.92 20.61C25.67 20.61 21.59 18.92 18.59 15.91C15.58 12.91 13.89 8.83 13.89 4.58L13.89-75.04C13.89-79.29 15.58-83.37 18.59-86.37ZM29.92-81.77C28.13-81.77 26.42-81.06 25.16-79.8C23.9-78.54 23.19-76.82 23.19-75.04L23.19 4.58C23.19 6.37 23.9 8.08 25.16 9.34C26.42 10.6 28.13 11.31 29.92 11.31L109.54 11.31C111.33 11.31 113.04 10.6 114.3 9.34C115.56 8.08 116.27 6.37 116.27 4.58L116.27-75.04C116.27-76.82 115.56-78.54 114.3-79.8C113.04-81.06 111.33-81.77 109.54-81.77L29.92-81.77Z"/>
  </g>
  <g id="Medium-L" transform="matrix(1 0 0 1 1677.48 1556)">
   <path class="hierarchical-0:secondary SFSymbolsPreview4D4D4D" d="M69.23-90.57C71.52-90.57 73.38-88.71 73.38-86.42L73.38 15.96C73.38 18.25 71.52 20.11 69.23 20.11C66.94 20.11 65.08 18.25 65.08 15.96L65.08-86.42C65.08-88.71 66.94-90.57 69.23-90.57Z"/>
   <path class="hierarchical-1:primary SFSymbolsPreview212121" d="M18.44-86.02C21.35-88.93 25.3-90.57 29.42-90.57L109.04-90.57C113.16-90.57 117.11-88.93 120.02-86.02C122.93-83.11 124.57-79.16 124.57-75.04L124.57 4.58C124.57 8.7 122.93 12.65 120.02 15.56C117.11 18.47 113.16 20.11 109.04 20.11L29.42 20.11C25.3 20.11 21.35 18.47 18.44 15.56C15.53 12.65 13.89 8.7 13.89 4.58L13.89-75.04C13.89-79.16 15.53-83.11 18.44-86.02ZM29.42-82.27C27.5-82.27 25.66-81.51 24.31-80.15C22.95-78.8 22.19-76.96 22.19-75.04L22.19 4.58C22.19 6.5 22.95 8.34 24.31 9.69C25.66 11.05 27.5 11.81 29.42 11.81L109.04 11.81C110.96 11.81 112.8 11.05 114.15 9.69C115.51 8.34 116.27 6.5 116.27 4.58L116.27-75.04C116.27-76.96 115.51-78.8 114.15-80.15C112.8-81.51 110.96-82.27 109.04-82.27L29.42-82.27Z"/>
  </g>
  <g id="Regular-L" transform="matrix(1 0 0 1 1381.42 1556)">
   <path class="hierarchical-0:secondary SFSymbolsPreview4D4D4D" d="M68.58-89.92C70.51-89.92 72.08-88.35 72.08-86.42L72.08 15.96C72.08 17.89 70.51 19.46 68.58 19.46C66.65 19.46 65.08 17.89 65.08 15.96L65.08-86.42C65.08-88.35 66.65-89.92 68.58-89.92Z"/>
   <path class="hierarchical-1:primary SFSymbolsPreview212121" d="M18.25-85.56C21.04-88.35 24.82-89.92 28.77-89.92L108.39-89.92C112.34-89.92 116.12-88.35 118.91-85.56C121.7-82.77 123.27-78.99 123.27-75.04L123.27 4.58C123.27 8.53 121.7 12.31 118.91 15.1C116.12 17.89 112.34 19.46 108.39 19.46L28.77 19.46C24.82 19.46 21.04 17.89 18.25 15.1C15.46 12.31 13.89 8.53 13.89 4.58L13.89-75.04C13.89-78.99 15.46-82.77 18.25-85.56ZM28.77-82.92C26.68-82.92 24.68-82.09 23.2-80.61C21.72-79.13 20.89-77.13 20.89-75.04L20.89 4.58C20.89 6.67 21.72 8.67 23.2 10.15C24.68 11.63 26.68 12.46 28.77 12.46L108.39 12.46C110.48 12.46 112.48 11.63 113.96 10.15C115.44 8.67 116.27 6.67 116.27 4.58L116.27-75.04C116.27-77.13 115.44-79.13 113.96-80.61C112.48-82.09 110.48-82.92 108.39-82.92L28.77-82.92Z"/>
  </g>
  <g id="Light-L" transform="matrix(1 0 0 1 1085.51 1556)">
   <path class="hierarchical-0:secondary SFSymbolsPreview4D4D4D" d="M67.78-89.12C69.27-89.12 70.48-87.91 70.48-86.42L70.48 15.96C70.48 17.45 69.27 18.66 67.78 18.66C66.29 18.66 65.08 17.45 65.08 15.96L65.08-86.42C65.08-87.91 66.29-89.12 67.78-89.12Z"/>
   <path class="hierarchical-1:primary SFSymbolsPreview212121" d="M18.01-84.99C20.65-87.63 24.23-89.12 27.97-89.12L107.59-89.12C111.33-89.12 114.91-87.63 117.54-84.99C120.18-82.36 121.67-78.78 121.67-75.04L121.67 4.58C121.67 8.32 120.18 11.9 117.54 14.54C114.91 17.17 111.33 18.66 107.59 18.66L27.97 18.66C24.23 18.66 20.65 17.17 18.01 14.54C15.38 11.9 13.89 8.32 13.89 4.58L13.89-75.04C13.89-78.78 15.38-82.36 18.01-84.99ZM27.97-83.72C25.67-83.72 23.46-82.8 21.83-81.18C20.21-79.55 19.29-77.34 19.29-75.04L19.29 4.58C19.29 6.88 20.21 9.09 21.83 10.72C23.46 12.34 25.67 13.26 27.97 13.26L107.59 13.26C109.89 13.26 112.1 12.34 113.73 10.72C115.35 9.09 116.27 6.88 116.27 4.58L116.27-75.04C116.27-77.34 115.35-79.55 113.73-81.18C112.1-82.8 109.89-83.72 107.59-83.72L27.97-83.72Z"/>
  </g>
  <g id="Thin-L" transform="matrix(1 0 0 1 789.85 1556)">
   <path class="hierarchical-0:secondary SFSymbolsPreview4D4D4D" d="M66.728-88.07C67.639-88.07 68.378-87.33 68.378-86.42L68.378 15.96C68.378 16.87 67.639 17.61 66.728 17.61C65.816 17.61 65.078 16.87 65.078 15.96L65.078-86.42C65.078-87.33 65.816-88.07 66.728-88.07Z"/>
   <path class="hierarchical-1:primary SFSymbolsPreview212121" d="M17.705-84.25C20.148-86.69 23.461-88.07 26.915-88.07L106.54-88.07C109.995-88.07 113.308-86.69 115.75-84.25C118.193-81.81 119.565-78.5 119.565-75.04L119.565 4.58C119.565 8.04 118.193 11.35 115.75 13.79C113.308 16.24 109.995 17.61 106.54 17.61L26.915 17.61C23.461 17.61 20.148 16.24 17.705 13.79C15.262 11.35 13.89 8.04 13.89 4.58L13.89-75.04C13.89-78.5 15.262-81.81 17.705-84.25ZM26.915-84.77C24.336-84.77 21.862-83.74 20.038-81.92C18.215-80.09 17.19-77.62 17.19-75.04L17.19 4.58C17.19 7.16 18.215 9.64 20.038 11.46C21.862 13.28 24.336 14.31 26.915 14.31L106.54 14.31C109.119 14.31 111.593 13.28 113.417 11.46C115.241 9.64 116.265 7.16 116.265 4.58L116.265-75.04C116.265-77.62 115.241-80.09 113.417-81.92C111.593-83.74 109.119-84.77 106.54-84.77L26.915-84.77Z"/>
  </g>
  <g id="Ultralight-L" transform="matrix(1 0 0 1 493.689 1556)">
   <path class="hierarchical-0:secondary SFSymbolsPreview4D4D4D" d="M66.177-87.52C66.785-87.52 67.277-87.03 67.277-86.42L67.277 15.96C67.277 16.56 66.785 17.06 66.177 17.06C65.57 17.06 65.077 16.56 65.077 15.96L65.077-86.42C65.077-87.03 65.57-87.52 66.177-87.52Z"/>
   <path class="hierarchical-1:primary SFSymbolsPreview212121" d="M17.544-83.87C19.883-86.21 23.056-87.52 26.365-87.52L105.99-87.52C109.298-87.52 112.472-86.21 114.811-83.87C117.151-81.53 118.465-78.35 118.465-75.04L118.465 4.58C118.465 7.89 117.151 11.06 114.811 13.4C112.472 15.74 109.298 17.06 105.99 17.06L26.365 17.06C23.056 17.06 19.883 15.74 17.544 13.4C15.204 11.06 13.89 7.89 13.89 4.58L13.89-75.04C13.89-78.35 15.204-81.53 17.544-83.87ZM26.365-85.32C23.64-85.32 21.026-84.24 19.099-82.31C17.172-80.38 16.09-77.77 16.09-75.04L16.09 4.58C16.09 7.31 17.172 9.92 19.099 11.85C21.026 13.77 23.64 14.86 26.365 14.86L105.99 14.86C108.715 14.86 111.328 13.77 113.255 11.85C115.182 9.92 116.265 7.31 116.265 4.58L116.265-75.04C116.265-77.77 115.182-80.38 113.255-82.31C111.328-84.24 108.715-85.32 105.99-85.32L26.365-85.32Z"/>
  </g>
  <g id="Black-M" transform="matrix(1 0 0 1 2872.4 1126)">
   <path class="hierarchical-0:secondary SFSymbolsPreview4D4D4D" d="M61.15-82.49C65.08-82.49 68.25-79.31 68.25-75.39L68.25 4.93C68.25 8.85 65.08 12.03 61.15 12.03C57.23 12.03 54.05 8.85 54.05 4.93L54.05-75.39C54.05-79.31 57.23-82.49 61.15-82.49Z"/>
   <path class="hierarchical-1:primary SFSymbolsPreview212121" d="M18.59-77.8C21.59-80.8 25.67-82.49 29.92-82.49L92.39-82.49C96.64-82.49 100.72-80.8 103.72-77.8C106.73-74.79 108.42-70.72 108.42-66.47L108.42-3.99C108.42 0.26 106.73 4.33 103.72 7.34C100.72 10.34 96.64 12.03 92.39 12.03L29.92 12.03C25.67 12.03 21.59 10.34 18.59 7.34C15.58 4.33 13.89 0.26 13.89-3.99L13.89-66.47C13.89-70.72 15.58-74.79 18.59-77.8ZM29.92-68.29C29.43-68.29 28.97-68.1 28.63-67.76C28.28-67.42 28.09-66.95 28.09-66.47L28.09-3.99C28.09-3.51 28.28-3.04 28.63-2.7C28.97-2.36 29.43-2.17 29.92-2.17L92.39-2.17C92.88-2.17 93.34-2.36 93.68-2.7C94.02-3.04 94.22-3.51 94.22-3.99L94.22-66.47C94.22-66.95 94.02-67.42 93.68-67.76C93.34-68.1 92.88-68.29 92.39-68.29L29.92-68.29Z"/>
  </g>
  <g id="Heavy-M" transform="matrix(1 0 0 1 2576.54 1126)">
   <path class="hierarchical-0:secondary SFSymbolsPreview4D4D4D" d="M60.3-81.64C63.76-81.64 66.55-78.85 66.55-75.39L66.55 4.93C66.55 8.38 63.76 11.18 60.3 11.18C56.85 11.18 54.05 8.38 54.05 4.93L54.05-75.39C54.05-78.85 56.85-81.64 60.3-81.64Z"/>
   <path class="hierarchical-1:primary SFSymbolsPreview212121" d="M18.34-77.2C21.18-80.05 25.04-81.64 29.07-81.64L91.54-81.64C95.57-81.64 99.43-80.05 102.27-77.2C105.12-74.35 106.72-70.49 106.72-66.47L106.72-3.99C106.72 0.03 105.12 3.89 102.27 6.74C99.43 9.58 95.57 11.18 91.54 11.18L29.07 11.18C25.04 11.18 21.18 9.58 18.34 6.74C15.49 3.89 13.89 0.03 13.89-3.99L13.89-66.47C13.89-70.49 15.49-74.35 18.34-77.2ZM29.07-69.14C28.36-69.14 27.68-68.86 27.18-68.36C26.67-67.86 26.39-67.18 26.39-66.47L26.39-3.99C26.39-3.29 26.67-2.6 27.18-2.1C27.68-1.6 28.36-1.32 29.07-1.32L91.54-1.32C92.25-1.32 92.93-1.6 93.43-2.1C93.94-2.6 94.22-3.29 94.22-3.99L94.22-66.47C94.22-67.18 93.94-67.86 93.43-68.36C92.93-68.86 92.25-69.14 91.54-69.14L29.07-69.14Z"/>
  </g>
  <g id="Bold-M" transform="matrix(1 0 0 1 2280.78 1126)">
   <path class="hierarchical-0:secondary SFSymbolsPreview4D4D4D" d="M59.35-80.69C62.28-80.69 64.65-78.32 64.65-75.39L64.65 4.93C64.65 7.86 62.28 10.23 59.35 10.23C56.43 10.23 54.05 7.86 54.05 4.93L54.05-75.39C54.05-78.32 56.43-80.69 59.35-80.69Z"/>
   <path class="hierarchical-1:primary SFSymbolsPreview212121" d="M18.06-76.53C20.73-79.19 24.34-80.69 28.12-80.69L90.59-80.69C94.36-80.69 97.98-79.19 100.65-76.53C103.32-73.86 104.82-70.24 104.82-66.47L104.82-3.99C104.82-0.22 103.32 3.4 100.65 6.07C97.98 8.73 94.36 10.23 90.59 10.23L28.12 10.23C24.34 10.23 20.73 8.73 18.06 6.07C15.39 3.4 13.89-0.22 13.89-3.99L13.89-66.47C13.89-70.24 15.39-73.86 18.06-76.53ZM28.12-70.09C27.16-70.09 26.23-69.71 25.55-69.03C24.87-68.35 24.49-67.43 24.49-66.47L24.49-3.99C24.49-3.03 24.87-2.11 25.55-1.43C26.23-0.75 27.16-0.37 28.12-0.37L90.59-0.37C91.55-0.37 92.48-0.75 93.15-1.43C93.83-2.11 94.22-3.03 94.22-3.99L94.22-66.47C94.22-67.43 93.83-68.35 93.15-69.03C92.48-69.71 91.55-70.09 90.59-70.09L28.12-70.09Z"/>
  </g>
  <g id="Semibold-M" transform="matrix(1 0 0 1 1984.72 1126)">
   <path class="hierarchical-0:secondary SFSymbolsPreview4D4D4D" d="M58.7-80.04C61.27-80.04 63.35-77.96 63.35-75.39L63.35 4.93C63.35 7.5 61.27 9.58 58.7 9.58C56.13 9.58 54.05 7.5 54.05 4.93L54.05-75.39C54.05-77.96 56.13-80.04 58.7-80.04Z"/>
   <path class="hierarchical-1:primary SFSymbolsPreview212121" d="M17.86-76.07C20.41-78.61 23.86-80.04 27.46-80.04L89.94-80.04C93.54-80.04 96.99-78.61 99.54-76.07C102.08-73.52 103.51-70.07 103.51-66.47L103.51-3.99C103.51-0.39 102.08 3.06 99.54 5.61C96.99 8.15 93.54 9.58 89.94 9.58L27.46 9.58C23.86 9.58 20.41 8.15 17.86 5.61C15.32 3.06 13.89-0.39 13.89-3.99L13.89-66.47C13.89-70.07 15.32-73.52 17.86-76.07ZM27.46-70.74C26.33-70.74 25.24-70.29 24.44-69.49C23.64-68.69 23.19-67.6 23.19-66.47L23.19-3.99C23.19-2.86 23.64-1.77 24.44-0.97C25.24-0.17 26.33 0.28 27.46 0.28L89.94 0.28C91.07 0.28 92.16-0.17 92.96-0.97C93.76-1.77 94.21-2.86 94.21-3.99L94.21-66.47C94.21-67.6 93.76-68.69 92.96-69.49C92.16-70.29 91.07-70.74 89.94-70.74L27.46-70.74Z"/>
  </g>
  <g id="Medium-M" transform="matrix(1 0 0 1 1688.51 1126)">
   <path class="hierarchical-0:secondary SFSymbolsPreview4D4D4D" d="M58.2-79.54C60.49-79.54 62.35-77.68 62.35-75.39L62.35 4.93C62.35 7.22 60.49 9.08 58.2 9.08C55.91 9.08 54.05 7.22 54.05 4.93L54.05-75.39C54.05-77.68 55.91-79.54 58.2-79.54Z"/>
   <path class="hierarchical-1:primary SFSymbolsPreview212121" d="M17.72-75.71C20.17-78.17 23.49-79.54 26.96-79.54L89.44-79.54C92.91-79.54 96.23-78.17 98.68-75.71C101.13-73.26 102.51-69.94 102.51-66.47L102.51-3.99C102.51-0.53 101.13 2.8 98.68 5.25C96.23 7.7 92.91 9.08 89.44 9.08L26.96 9.08C23.49 9.08 20.17 7.7 17.72 5.25C15.27 2.8 13.89-0.53 13.89-3.99L13.89-66.47C13.89-69.94 15.27-73.26 17.72-75.71ZM26.96-71.24C25.7-71.24 24.48-70.74 23.59-69.84C22.69-68.95 22.19-67.73 22.19-66.47L22.19-3.99C22.19-2.73 22.69-1.51 23.59-0.62C24.48 0.28 25.7 0.78 26.96 0.78L89.44 0.78C90.7 0.78 91.92 0.28 92.81-0.62C93.71-1.51 94.21-2.73 94.21-3.99L94.21-66.47C94.21-67.73 93.71-68.95 92.81-69.84C91.92-70.74 90.7-71.24 89.44-71.24L26.96-71.24Z"/>
  </g>
  <g id="Regular-M" transform="matrix(1 0 0 1 1392.45 1126)">
   <path class="hierarchical-0:secondary SFSymbolsPreview4D4D4D" d="M57.55-78.89C59.48-78.89 61.05-77.33 61.05-75.39L61.05 4.93C61.05 6.86 59.48 8.43 57.55 8.43C55.62 8.43 54.05 6.86 54.05 4.93L54.05-75.39C54.05-77.33 55.62-78.89 57.55-78.89Z"/>
   <path class="hierarchical-1:primary SFSymbolsPreview212121" d="M17.53-75.26C19.86-77.59 23.02-78.89 26.31-78.89L88.79-78.89C92.08-78.89 95.24-77.59 97.57-75.26C99.9-72.93 101.21-69.76 101.21-66.47L101.21-3.99C101.21-0.7 99.9 2.46 97.57 4.79C95.24 7.12 92.08 8.43 88.79 8.43L26.31 8.43C23.02 8.43 19.86 7.12 17.53 4.79C15.2 2.46 13.89-0.7 13.89-3.99L13.89-66.47C13.89-69.76 15.2-72.93 17.53-75.26ZM26.31-71.89C24.87-71.89 23.49-71.32 22.48-70.31C21.46-69.29 20.89-67.91 20.89-66.47L20.89-3.99C20.89-2.56 21.46-1.18 22.48-0.16C23.49 0.86 24.87 1.43 26.31 1.43L88.79 1.43C90.23 1.43 91.61 0.86 92.62-0.16C93.64-1.18 94.21-2.56 94.21-3.99L94.21-66.47C94.21-67.91 93.64-69.29 92.62-70.31C91.61-71.32 90.23-71.89 88.79-71.89L26.31-71.89Z"/>
  </g>
  <g id="Light-M" transform="matrix(1 0 0 1 1096.54 1126)">
   <path class="hierarchical-0:secondary SFSymbolsPreview4D4D4D" d="M56.75-78.09C58.24-78.09 59.45-76.88 59.45-75.39L59.45 4.93C59.45 6.42 58.24 7.63 56.75 7.63C55.26 7.63 54.05 6.42 54.05 4.93L54.05-75.39C54.05-76.88 55.26-78.09 56.75-78.09Z"/>
   <path class="hierarchical-1:primary SFSymbolsPreview212121" d="M17.29-74.69C19.47-76.87 22.43-78.09 25.51-78.09L87.99-78.09C91.07-78.09 94.03-76.87 96.21-74.69C98.39-72.51 99.61-69.55 99.61-66.47L99.61-3.99C99.61-0.91 98.39 2.05 96.21 4.23C94.03 6.41 91.07 7.63 87.99 7.63L25.51 7.63C22.43 7.63 19.47 6.41 17.29 4.23C15.11 2.05 13.89-0.91 13.89-3.99L13.89-66.47C13.89-69.55 15.11-72.51 17.29-74.69ZM25.51-72.69C23.86-72.69 22.28-72.04 21.11-70.87C19.94-69.7 19.29-68.12 19.29-66.47L19.29-3.99C19.29-2.34 19.94-0.76 21.11 0.41C22.28 1.58 23.86 2.23 25.51 2.23L87.99 2.23C89.64 2.23 91.22 1.58 92.39 0.41C93.56-0.76 94.21-2.34 94.21-3.99L94.21-66.47C94.21-68.12 93.56-69.7 92.39-70.87C91.22-72.04 89.64-72.69 87.99-72.69L25.51-72.69Z"/>
  </g>
  <g id="Thin-M" transform="matrix(1 0 0 1 800.875 1126)">
   <path class="hierarchical-0:secondary SFSymbolsPreview4D4D4D" d="M55.702-77.04C56.613-77.04 57.352-76.3 57.352-75.39L57.352 4.93C57.352 5.84 56.613 6.58 55.702 6.58C54.79 6.58 54.052 5.84 54.052 4.93L54.052-75.39C54.052-76.3 54.79-77.04 55.702-77.04Z"/>
   <path class="hierarchical-1:primary SFSymbolsPreview212121" d="M16.987-73.95C18.97-75.93 21.66-77.04 24.464-77.04L86.94-77.04C89.744-77.04 92.434-75.93 94.417-73.95C96.4-71.96 97.514-69.27 97.514-66.47L97.514-3.99C97.514-1.19 96.4 1.5 94.417 3.48C92.434 5.47 89.744 6.58 86.94 6.58L24.464 6.58C21.66 6.58 18.97 5.47 16.987 3.48C15.004 1.5 13.89-1.19 13.89-3.99L13.89-66.47C13.89-69.27 15.004-71.96 16.987-73.95ZM24.464-73.74C22.535-73.74 20.685-72.98 19.32-71.61C17.956-70.25 17.189-68.4 17.189-66.47L17.189-3.99C17.189-2.06 17.956-0.21 19.32 1.15C20.685 2.52 22.535 3.28 24.464 3.28L86.94 3.28C88.869 3.28 90.719 2.52 92.084 1.15C93.448-0.21 94.214-2.06 94.214-3.99L94.214-66.47C94.214-68.4 93.448-70.25 92.084-71.61C90.719-72.98 88.869-73.74 86.94-73.74L24.464-73.74Z"/>
  </g>
  <g id="Ultralight-M" transform="matrix(1 0 0 1 504.714 1126)">
   <path class="hierarchical-0:secondary SFSymbolsPreview4D4D4D" d="M55.153-76.49C55.761-76.49 56.253-76 56.253-75.39L56.253 4.93C56.253 5.54 55.761 6.03 55.153 6.03C54.546 6.03 54.053 5.54 54.053 4.93L54.053-75.39C54.053-76 54.546-76.49 55.153-76.49Z"/>
   <path class="hierarchical-1:primary SFSymbolsPreview212121" d="M16.827-73.56C18.707-75.44 21.257-76.49 23.915-76.49L86.39-76.49C89.049-76.49 91.599-75.44 93.479-73.56C95.359-71.68 96.415-69.13 96.415-66.47L96.415-3.99C96.415-1.33 95.359 1.22 93.479 3.1C91.599 4.98 89.049 6.03 86.39 6.03L23.915 6.03C21.257 6.03 18.707 4.98 16.827 3.1C14.947 1.22 13.89-1.33 13.89-3.99L13.89-66.47C13.89-69.13 14.947-71.68 16.827-73.56ZM23.915-74.29C21.84-74.29 19.85-73.47 18.382-72C16.915-70.53 16.09-68.54 16.09-66.47L16.09-3.99C16.09-1.92 16.915 0.07 18.382 1.54C19.85 3.01 21.84 3.83 23.915 3.83L86.39 3.83C88.466 3.83 90.456 3.01 91.923 1.54C93.391 0.07 94.215-1.92 94.215-3.99L94.215-66.47C94.215-68.54 93.391-70.53 91.923-72C90.456-73.47 88.466-74.29 86.39-74.29L23.915-74.29Z"/>
  </g>
  <g id="Black-S" transform="matrix(1 0 0 1 2881.07 696)">
   <path class="hierarchical-0:secondary SFSymbolsPreview4D4D4D" d="M52.49-73.934C56.41-73.934 59.59-70.755 59.59-66.834L59.59-3.834C59.59 0.088 56.41 3.266 52.49 3.266C48.57 3.266 45.39 0.088 45.39-3.834L45.39-66.834C45.39-70.755 48.57-73.934 52.49-73.934Z"/>
   <path class="hierarchical-1:primary SFSymbolsPreview212121" d="M18.02-69.804C20.66-72.448 24.25-73.934 27.99-73.934L76.99-73.934C80.73-73.934 84.32-72.448 86.96-69.804C89.61-67.16 91.09-63.573 91.09-59.834L91.09-10.834C91.09-7.094 89.61-3.508 86.96-0.863C84.32 1.781 80.73 3.266 76.99 3.266L27.99 3.266C24.25 3.266 20.66 1.781 18.02-0.863C15.38-3.508 13.89-7.094 13.89-10.834L13.89-59.834C13.89-63.573 15.38-67.16 18.02-69.804ZM28.09-59.734L28.09-10.934L76.89-10.934L76.89-59.734L28.09-59.734Z"/>
  </g>
  <g id="Heavy-S" transform="matrix(1 0 0 1 2585.2 696)">
   <path class="hierarchical-0:secondary SFSymbolsPreview4D4D4D" d="M51.64-73.082C55.09-73.082 57.89-70.284 57.89-66.832L57.89-3.832C57.89-0.38 55.09 2.418 51.64 2.418C48.19 2.418 45.39-0.38 45.39-3.832L45.39-66.832C45.39-70.284 48.19-73.082 51.64-73.082Z"/>
   <path class="hierarchical-1:primary SFSymbolsPreview212121" d="M17.77-69.201C20.26-71.686 23.63-73.082 27.14-73.082L76.14-73.082C79.65-73.082 83.02-71.686 85.51-69.201C87.99-66.716 89.39-63.346 89.39-59.832L89.39-10.832C89.39-7.318 87.99-3.948 85.51-1.463C83.02 1.022 79.65 2.418 76.14 2.418L27.14 2.418C23.63 2.418 20.26 1.022 17.77-1.463C15.29-3.948 13.89-7.318 13.89-10.832L13.89-59.832C13.89-63.346 15.29-66.716 17.77-69.201ZM27.14-60.582C26.94-60.582 26.75-60.503 26.61-60.362C26.47-60.222 26.39-60.031 26.39-59.832L26.39-10.832C26.39-10.633 26.47-10.442 26.61-10.302C26.75-10.161 26.94-10.082 27.14-10.082L76.14-10.082C76.34-10.082 76.53-10.161 76.67-10.302C76.81-10.442 76.89-10.633 76.89-10.832L76.89-59.832C76.89-60.031 76.81-60.222 76.67-60.362C76.53-60.503 76.34-60.582 76.14-60.582L27.14-60.582Z"/>
  </g>
  <g id="Bold-S" transform="matrix(1 0 0 1 2289.44 696)">
   <path class="hierarchical-0:secondary SFSymbolsPreview4D4D4D" d="M50.69-71.926C53.62-71.926 55.99-69.553 55.99-66.626L55.99-3.626C55.99-0.699 53.62 1.674 50.69 1.674C47.77 1.674 45.39-0.699 45.39-3.626L45.39-66.626C45.39-69.553 47.77-71.926 50.69-71.926Z"/>
   <path class="hierarchical-1:primary SFSymbolsPreview212121" d="M17.5-68.323C19.8-70.63 22.93-71.926 26.19-71.926L75.19-71.926C78.46-71.926 81.59-70.63 83.89-68.323C86.2-66.017 87.49-62.888 87.49-59.626L87.49-10.626C87.49-7.364 86.2-4.235 83.89-1.928C81.59 0.378 78.46 1.674 75.19 1.674L26.19 1.674C22.93 1.674 19.8 0.378 17.5-1.928C15.19-4.235 13.89-7.364 13.89-10.626L13.89-59.626C13.89-62.888 15.19-66.016 17.5-68.323ZM26.19-61.326C25.74-61.326 25.31-61.147 24.99-60.828C24.67-60.509 24.49-60.077 24.49-59.626L24.49-10.626C24.49-10.175 24.67-9.743 24.99-9.424C25.31-9.105 25.74-8.926 26.19-8.926L75.19-8.926C75.65-8.926 76.08-9.105 76.4-9.424C76.72-9.743 76.89-10.175 76.89-10.626L76.89-59.626C76.89-60.077 76.72-60.509 76.4-60.828C76.08-61.147 75.65-61.326 75.19-61.326L26.19-61.326Z"/>
  </g>
  <g id="Semibold-S" transform="matrix(1 0 0 1 1993.38 696)">
   <path class="hierarchical-0:secondary SFSymbolsPreview4D4D4D" d="M50.04-71.273C52.61-71.273 54.69-69.192 54.69-66.623L54.69-3.623C54.69-1.055 52.61 1.027 50.04 1.027C47.47 1.027 45.39-1.055 45.39-3.623L45.39-66.623C45.39-69.192 47.47-71.273 50.04-71.273Z"/>
   <path class="hierarchical-1:primary SFSymbolsPreview212121" d="M17.3-67.861C19.49-70.046 22.45-71.273 25.54-71.273L74.54-71.273C77.63-71.273 80.59-70.046 82.78-67.861C84.96-65.676 86.19-62.713 86.19-59.623L86.19-10.623C86.19-7.534 84.96-4.57 82.78-2.386C80.59-0.201 77.63 1.027 74.54 1.027L25.54 1.027C22.45 1.027 19.49-0.201 17.3-2.386C15.12-4.57 13.89-7.534 13.89-10.623L13.89-59.623C13.89-62.713 15.12-65.676 17.3-67.861ZM25.54-61.973C24.92-61.973 24.32-61.726 23.88-61.285C23.44-60.844 23.19-60.247 23.19-59.623L23.19-10.623C23.19-10 23.44-9.402 23.88-8.962C24.32-8.521 24.92-8.273 25.54-8.273L74.54-8.273C75.16-8.273 75.76-8.521 76.2-8.962C76.64-9.402 76.89-10 76.89-10.623L76.89-59.623C76.89-60.247 76.64-60.844 76.2-61.285C75.76-61.726 75.16-61.973 74.54-61.973L25.54-61.973Z"/>
  </g>
  <g id="Medium-S" transform="matrix(1 0 0 1 1697.17 696)">
   <path class="hierarchical-0:secondary SFSymbolsPreview4D4D4D" d="M49.54-70.773C51.83-70.773 53.69-68.915 53.69-66.623L53.69-3.623C53.69-1.331 51.83 0.527 49.54 0.527C47.25 0.527 45.39-1.331 45.39-3.623L45.39-66.623C45.39-68.915 47.25-70.773 49.54-70.773Z"/>
   <path class="hierarchical-1:primary SFSymbolsPreview212121" d="M17.16-67.508C19.25-69.599 22.08-70.773 25.04-70.773L74.04-70.773C77-70.773 79.83-69.599 81.92-67.508C84.01-65.417 85.19-62.581 85.19-59.623L85.19-10.623C85.19-7.666 84.01-4.83 81.92-2.739C79.83-0.648 77 0.527 74.04 0.527L25.04 0.527C22.08 0.527 19.25-0.648 17.16-2.739C15.06-4.83 13.89-7.666 13.89-10.623L13.89-59.623C13.89-62.581 15.06-65.417 17.16-67.508ZM25.04-62.473C24.28-62.473 23.56-62.173 23.02-61.639C22.49-61.104 22.19-60.379 22.19-59.623L22.19-10.623C22.19-9.868 22.49-9.143 23.02-8.608C23.56-8.074 24.28-7.773 25.04-7.773L74.04-7.773C74.8-7.773 75.52-8.074 76.05-8.608C76.59-9.143 76.89-9.868 76.89-10.623L76.89-59.623C76.89-60.379 76.59-61.104 76.05-61.639C75.52-62.173 74.8-62.473 74.04-62.473L25.04-62.473Z"/>
  </g>
  <g id="Regular-S" transform="matrix(1 0 0 1 1401.11 696)">
   <path class="hierarchical-0:secondary SFSymbolsPreview4D4D4D" d="M48.89-70.125C50.82-70.125 52.39-68.558 52.39-66.625L52.39-3.625C52.39-1.692 50.82-0.125 48.89-0.125C46.96-0.125 45.39-1.692 45.39-3.625L45.39-66.625C45.39-68.558 46.96-70.125 48.89-70.125Z"/>
   <path class="hierarchical-1:primary SFSymbolsPreview212121" d="M16.97-67.05C18.93-69.019 21.61-70.125 24.39-70.125L73.39-70.125C76.17-70.125 78.85-69.019 80.81-67.05C82.78-65.08 83.89-62.41 83.89-59.625L83.89-10.625C83.89-7.84 82.78-5.17 80.81-3.2C78.85-1.231 76.17-0.125 73.39-0.125L24.39-0.125C21.61-0.125 18.93-1.231 16.97-3.2C15-5.17 13.89-7.84 13.89-10.625L13.89-59.625C13.89-62.41 15-65.08 16.97-67.05ZM24.39-63.125C23.46-63.125 22.57-62.756 21.92-62.1C21.26-61.443 20.89-60.553 20.89-59.625L20.89-10.625C20.89-9.697 21.26-8.807 21.92-8.15C22.57-7.494 23.46-7.125 24.39-7.125L73.39-7.125C74.32-7.125 75.21-7.494 75.86-8.15C76.52-8.807 76.89-9.697 76.89-10.625L76.89-59.625C76.89-60.553 76.52-61.443 75.86-62.1C75.21-62.756 74.32-63.125 73.39-63.125L24.39-63.125Z"/>
  </g>
  <g id="Light-S" transform="matrix(1 0 0 1 1105.2 696)">
   <path class="hierarchical-0:secondary SFSymbolsPreview4D4D4D" d="M48.09-69.324C49.58-69.324 50.79-68.115 50.79-66.624L50.79-3.624C50.79-2.133 49.58-0.924 48.09-0.924C46.6-0.924 45.39-2.133 45.39-3.624L45.39-66.624C45.39-68.115 46.6-69.324 48.09-69.324Z"/>
   <path class="hierarchical-1:primary SFSymbolsPreview212121" d="M16.73-66.483C18.55-68.302 21.02-69.324 23.59-69.324L72.59-69.324C75.16-69.324 77.63-68.302 79.45-66.483C81.27-64.664 82.29-62.197 82.29-59.624L82.29-10.624C82.29-8.052 81.27-5.584 79.45-3.765C77.63-1.946 75.16-0.924 72.59-0.924L23.59-0.924C21.02-0.924 18.55-1.946 16.73-3.765C14.91-5.584 13.89-8.052 13.89-10.624L13.89-59.624C13.89-62.197 14.91-64.664 16.73-66.483ZM23.59-63.924C22.45-63.924 21.36-63.471 20.55-62.665C19.74-61.858 19.29-60.765 19.29-59.624L19.29-10.624C19.29-9.484 19.74-8.39 20.55-7.584C21.36-6.777 22.45-6.324 23.59-6.324L72.59-6.324C73.73-6.324 74.82-6.777 75.63-7.584C76.44-8.39 76.89-9.484 76.89-10.624L76.89-59.624C76.89-60.765 76.44-61.858 75.63-62.665C74.82-63.471 73.73-63.924 72.59-63.924L23.59-63.924Z"/>
  </g>
  <g id="Thin-S" transform="matrix(1 0 0 1 809.537 696)">
   <path class="hierarchical-0:secondary SFSymbolsPreview4D4D4D" d="M47.04-68.273C47.951-68.273 48.69-67.535 48.69-66.623L48.69-3.623C48.69-2.712 47.951-1.973 47.04-1.973C46.128-1.973 45.39-2.712 45.39-3.623L45.39-66.623C45.39-67.535 46.128-68.273 47.04-68.273Z"/>
   <path class="hierarchical-1:primary SFSymbolsPreview212121" d="M16.423-65.74C18.045-67.362 20.245-68.273 22.54-68.273L71.54-68.273C73.834-68.273 76.034-67.362 77.656-65.74C79.278-64.118 80.19-61.918 80.19-59.623L80.19-10.623C80.19-8.329 79.278-6.129 77.656-4.507C76.034-2.885 73.834-1.973 71.54-1.973L22.54-1.973C20.245-1.973 18.045-2.885 16.423-4.507C14.801-6.129 13.89-8.329 13.89-10.623L13.89-59.623C13.89-61.918 14.801-64.118 16.423-65.74ZM22.54-64.973C21.121-64.973 19.76-64.41 18.757-63.406C17.753-62.403 17.19-61.042 17.19-59.623L17.19-10.623C17.19-9.205 17.753-7.844 18.757-6.84C19.76-5.837 21.121-5.273 22.54-5.273L71.54-5.273C72.959-5.273 74.319-5.837 75.323-6.84C76.326-7.844 76.89-9.205 76.89-10.623L76.89-59.623C76.89-61.042 76.326-62.403 75.323-63.406C74.319-64.41 72.959-64.973 71.54-64.973L22.54-64.973Z"/>
  </g>
  <g id="Ultralight-S" transform="matrix(1 0 0 1 513.376 696)">
   <path class="hierarchical-0:secondary SFSymbolsPreview4D4D4D" d="M46.49-67.727C47.098-67.727 47.59-67.234 47.59-66.627L47.59-3.627C47.59-3.019 47.098-2.527 46.49-2.527C45.883-2.527 45.39-3.019 45.39-3.627L45.39-66.627C45.39-67.234 45.883-67.727 46.49-67.727Z"/>
   <path class="hierarchical-1:primary SFSymbolsPreview212121" d="M16.263-65.354C17.782-66.873 19.842-67.727 21.99-67.727L70.99-67.727C73.139-67.727 75.199-66.873 76.718-65.354C78.237-63.835 79.09-61.775 79.09-59.627L79.09-10.627C79.09-8.478 78.237-6.418 76.718-4.899C75.199-3.38 73.139-2.527 70.99-2.527L21.99-2.527C19.842-2.527 17.782-3.38 16.263-4.899C14.744-6.418 13.89-8.478 13.89-10.627L13.89-59.627C13.89-61.775 14.744-63.835 16.263-65.354ZM21.99-65.527C20.426-65.527 18.925-64.905 17.818-63.798C16.712-62.692 16.09-61.191 16.09-59.627L16.09-10.627C16.09-9.062 16.712-7.561 17.818-6.455C18.925-5.348 20.426-4.727 21.99-4.727L70.99-4.727C72.555-4.727 74.056-5.348 75.162-6.455C76.269-7.561 76.89-9.062 76.89-10.627L76.89-59.627C76.89-61.191 76.269-62.692 75.162-63.798C74.056-64.905 72.555-65.527 70.99-65.527L21.99-65.527Z"/>
  </g>
 </g>
</svg>
