<?xml version="1.0" encoding="UTF-8"?>
<!--Generator: Apple Native CoreSVG 175-->
<!DOCTYPE svg
PUBLIC "-//W3C//DTD SVG 1.1//EN"
       "http://www.w3.org/Graphics/SVG/1.1/DTD/svg11.dtd">
<svg version="1.1" xmlns="http://www.w3.org/2000/svg" xmlns:xlink="http://www.w3.org/1999/xlink" width="3300" height="2200">
 <!--glyph: "", point size: 100.0, font version: "17.0d12e1", template writer version: "65.1"-->
 <style>.hierarchical-0:primary {fill:#212121}
.hierarchical-1:secondary {fill:#4D4D4D}

.SFSymbolsPreview212121 {fill:#212121;opacity:1.0}
.SFSymbolsPreview4D4D4D {fill:#4D4D4D;opacity:1.0}
</style>
 <g id="Notes">
  <rect height="2200" id="artboard" style="fill:white;opacity:1" width="3300" x="0" y="0"/>
  <line style="fill:none;stroke:black;opacity:1;stroke-width:0.5;" x1="263" x2="3036" y1="292" y2="292"/>
  <text style="stroke:none;fill:black;font-family:sans-serif;font-size:13;font-weight:bold;" transform="matrix(1 0 0 1 263 322)">Weight/Scale Variations</text>
  <text style="stroke:none;fill:black;font-family:sans-serif;font-size:13;text-anchor:middle;" transform="matrix(1 0 0 1 559.711 322)">Ultralight</text>
  <text style="stroke:none;fill:black;font-family:sans-serif;font-size:13;text-anchor:middle;" transform="matrix(1 0 0 1 856.422 322)">Thin</text>
  <text style="stroke:none;fill:black;font-family:sans-serif;font-size:13;text-anchor:middle;" transform="matrix(1 0 0 1 1153.13 322)">Light</text>
  <text style="stroke:none;fill:black;font-family:sans-serif;font-size:13;text-anchor:middle;" transform="matrix(1 0 0 1 1449.84 322)">Regular</text>
  <text style="stroke:none;fill:black;font-family:sans-serif;font-size:13;text-anchor:middle;" transform="matrix(1 0 0 1 1746.56 322)">Medium</text>
  <text style="stroke:none;fill:black;font-family:sans-serif;font-size:13;text-anchor:middle;" transform="matrix(1 0 0 1 2043.27 322)">Semibold</text>
  <text style="stroke:none;fill:black;font-family:sans-serif;font-size:13;text-anchor:middle;" transform="matrix(1 0 0 1 2339.98 322)">Bold</text>
  <text style="stroke:none;fill:black;font-family:sans-serif;font-size:13;text-anchor:middle;" transform="matrix(1 0 0 1 2636.69 322)">Heavy</text>
  <text style="stroke:none;fill:black;font-family:sans-serif;font-size:13;text-anchor:middle;" transform="matrix(1 0 0 1 2933.4 322)">Black</text>
  <line style="fill:none;stroke:black;opacity:1;stroke-width:0.5;" x1="263" x2="3036" y1="1903" y2="1903"/>
  <g transform="matrix(1 0 0 1 263 1933)">
   <path d="M9.24805 0.830078Q10.8691 0.830078 12.2949 0.214844Q13.7207-0.400391 14.8096-1.49414Q15.8984-2.58789 16.5186-4.01367Q17.1387-5.43945 17.1387-7.05078Q17.1387-8.66211 16.5186-10.0879Q15.8984-11.5137 14.8047-12.6074Q13.7109-13.7012 12.2852-14.3164Q10.8594-14.9316 9.23828-14.9316Q7.62695-14.9316 6.20117-14.3164Q4.77539-13.7012 3.69141-12.6074Q2.60742-11.5137 1.9873-10.0879Q1.36719-8.66211 1.36719-7.05078Q1.36719-5.43945 1.9873-4.01367Q2.60742-2.58789 3.69629-1.49414Q4.78516-0.400391 6.21094 0.214844Q7.63672 0.830078 9.24805 0.830078ZM9.24805-0.654297Q7.91992-0.654297 6.7627-1.14746Q5.60547-1.64062 4.73145-2.51953Q3.85742-3.39844 3.36426-4.56055Q2.87109-5.72266 2.87109-7.05078Q2.87109-8.37891 3.35938-9.54102Q3.84766-10.7031 4.72168-11.582Q5.5957-12.4609 6.75293-12.9541Q7.91016-13.4473 9.23828-13.4473Q10.5762-13.4473 11.7334-12.9541Q12.8906-12.4609 13.7695-11.582Q14.6484-10.7031 15.1465-9.54102Q15.6445-8.37891 15.6445-7.05078Q15.6445-5.72266 15.1514-4.56055Q14.6582-3.39844 13.7842-2.51953Q12.9102-1.64062 11.748-1.14746Q10.5859-0.654297 9.24805-0.654297ZM5.6543-7.05078Q5.6543-6.72852 5.85938-6.52832Q6.06445-6.32812 6.40625-6.32812L8.51562-6.32812L8.51562-4.20898Q8.51562-3.88672 8.71094-3.67676Q8.90625-3.4668 9.23828-3.4668Q9.56055-3.4668 9.77051-3.67676Q9.98047-3.88672 9.98047-4.20898L9.98047-6.32812L12.0898-6.32812Q12.4219-6.32812 12.627-6.52832Q12.832-6.72852 12.832-7.05078Q12.832-7.38281 12.627-7.58789Q12.4219-7.79297 12.0898-7.79297L9.98047-7.79297L9.98047-9.90234Q9.98047-10.2344 9.77051-10.4443Q9.56055-10.6543 9.23828-10.6543Q8.90625-10.6543 8.71094-10.4443Q8.51562-10.2344 8.51562-9.90234L8.51562-7.79297L6.40625-7.79297Q6.06445-7.79297 5.85938-7.58789Q5.6543-7.38281 5.6543-7.05078Z"/>
  </g>
  <g transform="matrix(1 0 0 1 281.867 1933)">
   <path d="M11.709 2.91016Q13.75 2.91016 15.5518 2.12891Q17.3535 1.34766 18.7305-0.0292969Q20.1074-1.40625 20.8887-3.20801Q21.6699-5.00977 21.6699-7.05078Q21.6699-9.0918 20.8887-10.8936Q20.1074-12.6953 18.7305-14.0723Q17.3535-15.4492 15.5469-16.2305Q13.7402-17.0117 11.6992-17.0117Q9.6582-17.0117 7.85645-16.2305Q6.05469-15.4492 4.68262-14.0723Q3.31055-12.6953 2.5293-10.8936Q1.74805-9.0918 1.74805-7.05078Q1.74805-5.00977 2.5293-3.20801Q3.31055-1.40625 4.6875-0.0292969Q6.06445 1.34766 7.86621 2.12891Q9.66797 2.91016 11.709 2.91016ZM11.709 1.25Q9.98047 1.25 8.47656 0.605469Q6.97266-0.0390625 5.83496-1.17676Q4.69727-2.31445 4.05762-3.81836Q3.41797-5.32227 3.41797-7.05078Q3.41797-8.7793 4.05762-10.2832Q4.69727-11.7871 5.83008-12.9297Q6.96289-14.0723 8.4668-14.7119Q9.9707-15.3516 11.6992-15.3516Q13.4277-15.3516 14.9316-14.7119Q16.4355-14.0723 17.5781-12.9297Q18.7207-11.7871 19.3652-10.2832Q20.0098-8.7793 20.0098-7.05078Q20.0098-5.32227 19.3701-3.81836Q18.7305-2.31445 17.5928-1.17676Q16.4551-0.0390625 14.9463 0.605469Q13.4375 1.25 11.709 1.25ZM7.17773-7.05078Q7.17773-6.69922 7.41211-6.47461Q7.64648-6.25 8.01758-6.25L10.8887-6.25L10.8887-3.36914Q10.8887-2.99805 11.1133-2.76855Q11.3379-2.53906 11.6895-2.53906Q12.0605-2.53906 12.29-2.76855Q12.5195-2.99805 12.5195-3.36914L12.5195-6.25L15.4004-6.25Q15.7715-6.25 16.001-6.47461Q16.2305-6.69922 16.2305-7.05078Q16.2305-7.42188 16.001-7.65137Q15.7715-7.88086 15.4004-7.88086L12.5195-7.88086L12.5195-10.752Q12.5195-11.1328 12.29-11.3623Q12.0605-11.5918 11.6895-11.5918Q11.3379-11.5918 11.1133-11.3574Q10.8887-11.123 10.8887-10.752L10.8887-7.88086L8.01758-7.88086Q7.63672-7.88086 7.40723-7.65137Q7.17773-7.42188 7.17773-7.05078Z"/>
  </g>
  <g transform="matrix(1 0 0 1 305.646 1933)">
   <path d="M14.9707 5.66406Q17.0605 5.66406 18.96 5.01465Q20.8594 4.36523 22.4512 3.19336Q24.043 2.02148 25.2197 0.429688Q26.3965-1.16211 27.0459-3.06641Q27.6953-4.9707 27.6953-7.05078Q27.6953-9.14062 27.0459-11.04Q26.3965-12.9395 25.2197-14.5312Q24.043-16.123 22.4512-17.2998Q20.8594-18.4766 18.9551-19.126Q17.0508-19.7754 14.9609-19.7754Q12.8711-19.7754 10.9717-19.126Q9.07227-18.4766 7.48535-17.2998Q5.89844-16.123 4.72168-14.5312Q3.54492-12.9395 2.90039-11.04Q2.25586-9.14062 2.25586-7.05078Q2.25586-4.9707 2.90527-3.06641Q3.55469-1.16211 4.72656 0.429688Q5.89844 2.02148 7.49023 3.19336Q9.08203 4.36523 10.9814 5.01465Q12.8809 5.66406 14.9707 5.66406ZM14.9707 3.84766Q13.1641 3.84766 11.5283 3.2959Q9.89258 2.74414 8.53516 1.74805Q7.17773 0.751953 6.17676-0.610352Q5.17578-1.97266 4.62891-3.6084Q4.08203-5.24414 4.08203-7.05078Q4.08203-8.86719 4.62891-10.5029Q5.17578-12.1387 6.17188-13.501Q7.16797-14.8633 8.52539-15.8594Q9.88281-16.8555 11.5186-17.4023Q13.1543-17.9492 14.9609-17.9492Q16.7773-17.9492 18.4131-17.4023Q20.0488-16.8555 21.4111-15.8594Q22.7734-14.8633 23.7695-13.501Q24.7656-12.1387 25.3174-10.5029Q25.8691-8.86719 25.8691-7.05078Q25.8789-5.24414 25.332-3.6084Q24.7852-1.97266 23.7842-0.610352Q22.7832 0.751953 21.4209 1.74805Q20.0586 2.74414 18.4229 3.2959Q16.7871 3.84766 14.9707 3.84766ZM9.19922-7.05078Q9.19922-6.66992 9.45801-6.4209Q9.7168-6.17188 10.1172-6.17188L14.0625-6.17188L14.0625-2.2168Q14.0625-1.81641 14.3115-1.55762Q14.5605-1.29883 14.9512-1.29883Q15.3516-1.29883 15.6104-1.55273Q15.8691-1.80664 15.8691-2.2168L15.8691-6.17188L19.8242-6.17188Q20.2246-6.17188 20.4785-6.4209Q20.7324-6.66992 20.7324-7.05078Q20.7324-7.46094 20.4785-7.71484Q20.2246-7.96875 19.8242-7.96875L15.8691-7.96875L15.8691-11.9141Q15.8691-12.3242 15.6104-12.583Q15.3516-12.8418 14.9512-12.8418Q14.5605-12.8418 14.3115-12.583Q14.0625-12.3242 14.0625-11.9141L14.0625-7.96875L10.1172-7.96875Q9.70703-7.96875 9.45312-7.71484Q9.19922-7.46094 9.19922-7.05078Z"/>
  </g>
  <text style="stroke:none;fill:black;font-family:sans-serif;font-size:13;font-weight:bold;" transform="matrix(1 0 0 1 263 1953)">Design Variations</text>
  <text style="stroke:none;fill:black;font-family:sans-serif;font-size:13;" transform="matrix(1 0 0 1 263 1971)">Symbols are supported in up to nine weights and three scales.</text>
  <text style="stroke:none;fill:black;font-family:sans-serif;font-size:13;" transform="matrix(1 0 0 1 263 1989)">For optimal layout with text and other symbols, vertically align</text>
  <text style="stroke:none;fill:black;font-family:sans-serif;font-size:13;" transform="matrix(1 0 0 1 263 2007)">symbols with the adjacent text.</text>
  <line style="fill:none;stroke:#00AEEF;stroke-width:0.5;opacity:1.0;" x1="776" x2="776" y1="1919" y2="1933"/>
  <g transform="matrix(1 0 0 1 776 1933)">
   <path d="M3.31055 0.15625Q3.70117 0.15625 3.91602-0.00976562Q4.13086-0.175781 4.26758-0.585938L5.52734-4.0332L11.2891-4.0332L12.5488-0.585938Q12.6855-0.175781 12.9004-0.00976562Q13.1152 0.15625 13.4961 0.15625Q13.8867 0.15625 14.1162-0.0585938Q14.3457-0.273438 14.3457-0.644531Q14.3457-0.869141 14.2383-1.17188L9.6582-13.3691Q9.48242-13.8184 9.17969-14.043Q8.87695-14.2676 8.4082-14.2676Q7.5-14.2676 7.17773-13.3789L2.59766-1.16211Q2.49023-0.859375 2.49023-0.634766Q2.49023-0.263672 2.70996-0.0537109Q2.92969 0.15625 3.31055 0.15625ZM6.00586-5.51758L8.37891-12.0898L8.42773-12.0898L10.8008-5.51758Z"/>
  </g>
  <line style="fill:none;stroke:#00AEEF;stroke-width:0.5;opacity:1.0;" x1="793.197" x2="793.197" y1="1919" y2="1933"/>
  <text style="stroke:none;fill:black;font-family:sans-serif;font-size:13;font-weight:bold;" transform="matrix(1 0 0 1 776 1953)">Margins</text>
  <text style="stroke:none;fill:black;font-family:sans-serif;font-size:13;" transform="matrix(1 0 0 1 776 1971)">Leading and trailing margins on the left and right side of each symbol</text>
  <text style="stroke:none;fill:black;font-family:sans-serif;font-size:13;" transform="matrix(1 0 0 1 776 1989)">can be adjusted by modifying the x-location of the margin guidelines.</text>
  <text style="stroke:none;fill:black;font-family:sans-serif;font-size:13;" transform="matrix(1 0 0 1 776 2007)">Modifications are automatically applied proportionally to all</text>
  <text style="stroke:none;fill:black;font-family:sans-serif;font-size:13;" transform="matrix(1 0 0 1 776 2025)">scales and weights.</text>
  <g transform="matrix(1 0 0 1 1289 1933)">
   <path d="M2.8418 1.86523L4.54102 3.57422Q5.18555 4.22852 5.90332 4.17969Q6.62109 4.13086 7.31445 3.35938L18.0078-8.42773L17.041-9.4043L6.42578 2.27539Q6.16211 2.57812 5.89355 2.61719Q5.625 2.65625 5.27344 2.30469L4.10156 1.14258Q3.75 0.791016 3.79395 0.522461Q3.83789 0.253906 4.14062-0.0195312L15.6152-10.8203L14.6387-11.7871L3.04688-0.898438Q2.30469-0.214844 2.25098 0.498047Q2.19727 1.21094 2.8418 1.86523ZM9.25781-16.3281Q8.94531-16.0254 8.90625-15.6348Q8.86719-15.2441 9.04297-14.9512Q9.21875-14.6777 9.55566-14.541Q9.89258-14.4043 10.3809-14.5215Q11.4746-14.7754 12.5977-14.7314Q13.7207-14.6875 14.7949-13.9844L14.209-12.5293Q13.9551-11.9043 14.0674-11.4404Q14.1797-10.9766 14.5801-10.5664L16.875-8.25195Q17.2363-7.88086 17.5781-7.82227Q17.9199-7.76367 18.3398-7.8418L19.4043-8.03711L20.0684-7.36328L20.0293-6.80664Q20-6.43555 20.1221-6.12305Q20.2441-5.81055 20.6055-5.44922L21.3672-4.70703Q21.7285-4.3457 22.1533-4.33105Q22.5781-4.31641 22.9297-4.66797L25.8398-7.58789Q26.1914-7.93945 26.1816-8.35449Q26.1719-8.76953 25.8105-9.13086L25.0391-9.89258Q24.6875-10.2539 24.3799-10.3857Q24.0723-10.5176 23.7109-10.4883L23.1348-10.4395L22.4902-11.0742L22.7344-12.1973Q22.832-12.6172 22.6953-12.9834Q22.5586-13.3496 22.1191-13.7891L19.9219-15.9766Q18.6719-17.2168 17.2607-17.8369Q15.8496-18.457 14.4189-18.4814Q12.9883-18.5059 11.665-17.959Q10.3418-17.4121 9.25781-16.3281ZM10.752-15.957Q11.6602-16.6211 12.7002-16.9043Q13.7402-17.1875 14.8047-17.085Q15.8691-16.9824 16.8701-16.5137Q17.8711-16.0449 18.7012-15.2051L21.1328-12.793Q21.3086-12.6172 21.3525-12.4512Q21.3965-12.2852 21.3379-12.0312L21.0156-10.5469L22.5195-9.0625L23.5059-9.12109Q23.6914-9.13086 23.7891-9.09668Q23.8867-9.0625 24.0332-8.91602L24.6094-8.33984L22.168-5.89844L21.5918-6.47461Q21.4453-6.62109 21.4062-6.71875Q21.3672-6.81641 21.377-7.01172L21.4453-7.98828L19.9512-9.47266L18.4277-9.21875Q18.1836-9.16992 18.042-9.2041Q17.9004-9.23828 17.7148-9.41406L15.7129-11.416Q15.5176-11.5918 15.4932-11.7529Q15.4688-11.9141 15.5859-12.1875L16.4648-14.2773Q15.293-15.3711 13.8281-15.791Q12.3633-16.2109 10.8398-15.7617Q10.7227-15.7324 10.6885-15.8057Q10.6543-15.8789 10.752-15.957Z"/>
  </g>
  <text style="stroke:none;fill:black;font-family:sans-serif;font-size:13;font-weight:bold;" transform="matrix(1 0 0 1 1289 1953)">Exporting</text>
  <text style="stroke:none;fill:black;font-family:sans-serif;font-size:13;" transform="matrix(1 0 0 1 1289 1971)">Symbols should be outlined when exporting to ensure the</text>
  <text style="stroke:none;fill:black;font-family:sans-serif;font-size:13;" transform="matrix(1 0 0 1 1289 1989)">design is preserved when submitting to Xcode.</text>
  <text id="template-version" style="stroke:none;fill:black;font-family:sans-serif;font-size:13;text-anchor:end;" transform="matrix(1 0 0 1 3036 1933)">Template v.3.0</text>
  <text style="stroke:none;fill:black;font-family:sans-serif;font-size:13;text-anchor:end;" transform="matrix(1 0 0 1 3036 1951)">Requires Xcode 13 or greater</text>
  <text id="descriptive-name" style="stroke:none;fill:black;font-family:sans-serif;font-size:13;text-anchor:end;" transform="matrix(1 0 0 1 3036 1969)">Generated from volume-2</text>
  <text style="stroke:none;fill:black;font-family:sans-serif;font-size:13;text-anchor:end;" transform="matrix(1 0 0 1 3036 1987)">Typeset at 100 points</text>
  <text style="stroke:none;fill:black;font-family:sans-serif;font-size:13;" transform="matrix(1 0 0 1 263 726)">Small</text>
  <text style="stroke:none;fill:black;font-family:sans-serif;font-size:13;" transform="matrix(1 0 0 1 263 1156)">Medium</text>
  <text style="stroke:none;fill:black;font-family:sans-serif;font-size:13;" transform="matrix(1 0 0 1 263 1586)">Large</text>
 </g>
 <g id="Guides">
  <g id="H-reference" style="fill:#27AAE1;stroke:none;" transform="matrix(1 0 0 1 339 696)">
   <path d="M0.976562 0L3.66211 0L29.3457-67.1387L30.0293-67.1387L30.0293-70.459L28.125-70.459ZM11.6699-24.4629L46.9727-24.4629L46.2402-26.709L12.4512-26.709ZM55.127 0L57.7637 0L30.6152-70.459L29.4434-70.459L29.4434-67.1387Z"/>
  </g>
  <line id="Baseline-S" style="fill:none;stroke:#27AAE1;opacity:1;stroke-width:0.5;" x1="263" x2="3036" y1="696" y2="696"/>
  <line id="Capline-S" style="fill:none;stroke:#27AAE1;opacity:1;stroke-width:0.5;" x1="263" x2="3036" y1="625.541" y2="625.541"/>
  <g id="H-reference" style="fill:#27AAE1;stroke:none;" transform="matrix(1 0 0 1 339 1126)">
   <path d="M0.976562 0L3.66211 0L29.3457-67.1387L30.0293-67.1387L30.0293-70.459L28.125-70.459ZM11.6699-24.4629L46.9727-24.4629L46.2402-26.709L12.4512-26.709ZM55.127 0L57.7637 0L30.6152-70.459L29.4434-70.459L29.4434-67.1387Z"/>
  </g>
  <line id="Baseline-M" style="fill:none;stroke:#27AAE1;opacity:1;stroke-width:0.5;" x1="263" x2="3036" y1="1126" y2="1126"/>
  <line id="Capline-M" style="fill:none;stroke:#27AAE1;opacity:1;stroke-width:0.5;" x1="263" x2="3036" y1="1055.54" y2="1055.54"/>
  <g id="H-reference" style="fill:#27AAE1;stroke:none;" transform="matrix(1 0 0 1 339 1556)">
   <path d="M0.976562 0L3.66211 0L29.3457-67.1387L30.0293-67.1387L30.0293-70.459L28.125-70.459ZM11.6699-24.4629L46.9727-24.4629L46.2402-26.709L12.4512-26.709ZM55.127 0L57.7637 0L30.6152-70.459L29.4434-70.459L29.4434-67.1387Z"/>
  </g>
  <line id="Baseline-L" style="fill:none;stroke:#27AAE1;opacity:1;stroke-width:0.5;" x1="263" x2="3036" y1="1556" y2="1556"/>
  <line id="Capline-L" style="fill:none;stroke:#27AAE1;opacity:1;stroke-width:0.5;" x1="263" x2="3036" y1="1485.54" y2="1485.54"/>
  <line id="left-margin-Regular-M" style="fill:none;stroke:#00AEEF;stroke-width:0.5;opacity:1.0;" x1="1392.45" x2="1392.45" y1="1030.78" y2="1150.12"/>
  <line id="right-margin-Regular-M" style="fill:none;stroke:#00AEEF;stroke-width:0.5;opacity:1.0;" x1="1507.24" x2="1507.24" y1="1030.78" y2="1150.12"/>
 </g>
 <g id="Symbols">
  <g id="Black-L" transform="matrix(1 0 0 1 2860.16 1556)">
   <path class="hierarchical-0:primary SFSymbolsPreview212121" d="M108.59-81.845C111.36-84.615 115.86-84.615 118.63-81.845C130.63-69.845 137.36-53.575 137.36-36.615C137.36-19.645 130.63-3.385 118.63 8.615C115.86 11.395 111.36 11.395 108.59 8.615C105.82 5.845 105.82 1.355 108.59-1.425C117.92-10.755 123.16-23.415 123.16-36.615C123.16-49.815 117.92-62.475 108.59-71.805C105.82-74.575 105.82-79.075 108.59-81.845ZM88.51-61.765C91.29-64.545 95.78-64.545 98.56-61.765C105.22-55.105 108.96-46.065 108.96-36.645C108.96-27.215 105.22-18.185 98.56-11.515C95.78-8.745 91.29-8.745 88.51-11.515C85.74-14.285 85.74-18.785 88.51-21.555C92.51-25.555 94.76-30.985 94.76-36.645C94.76-42.295 92.51-47.725 88.51-51.725C85.74-54.505 85.74-58.995 88.51-61.765Z"/>
   <path class="hierarchical-1:secondary SFSymbolsPreview4D4D4D" d="M70.79-82.825C73.25-81.645 74.81-79.155 74.81-76.425L74.81 3.195C74.81 5.925 73.25 8.415 70.79 9.595C68.33 10.775 65.41 10.445 63.28 8.735L36.78-12.455L16.53-12.455C12.6-12.455 9.43-15.635 9.43-19.555L9.43-53.675C9.43-57.605 12.6-60.775 16.53-60.775L36.78-60.775L63.28-81.975C65.41-83.675 68.33-84.015 70.79-82.825ZM60.61-61.655L43.71-48.135C42.45-47.125 40.89-46.575 39.28-46.575L23.63-46.575L23.63-26.655L39.28-26.655C40.89-26.655 42.45-26.105 43.71-25.095L60.61-11.575L60.61-61.655Z"/>
  </g>
  <g id="Heavy-L" transform="matrix(1 0 0 1 2564.29 1556)">
   <path class="hierarchical-0:primary SFSymbolsPreview212121" d="M108.35-81.08C110.79-83.52 114.75-83.52 117.19-81.08C129.02-69.24 135.67-53.19 135.67-36.45C135.67-19.71 129.02-3.66 117.19 8.18C114.75 10.62 110.79 10.62 108.35 8.18C105.91 5.74 105.91 1.78 108.35-0.66C117.84-10.15 123.17-23.03 123.17-36.45C123.17-49.87 117.84-62.75 108.35-72.24C105.91-74.68 105.91-78.64 108.35-81.08ZM88.27-61C90.71-63.45 94.67-63.44 97.11-61C103.61-54.5 107.27-45.68 107.27-36.48C107.27-27.28 103.61-18.46 97.11-11.96C94.67-9.51 90.71-9.51 88.27-11.95C85.83-14.39 85.83-18.35 88.27-20.79C92.43-24.95 94.77-30.6 94.77-36.48C94.77-42.36 92.43-48.01 88.27-52.17C85.83-54.61 85.83-58.56 88.27-61Z"/>
   <path class="hierarchical-1:secondary SFSymbolsPreview4D4D4D" d="M69.58-81.9C71.74-80.86 73.12-78.67 73.12-76.26L73.12 3.36C73.12 5.76 71.74 7.95 69.58 9C67.41 10.04 64.84 9.74 62.97 8.24L36.24-13.14L15.68-13.14C12.23-13.14 9.43-15.94 9.43-19.39L9.43-53.51C9.43-56.96 12.23-59.76 15.68-59.76L36.24-59.76L62.97-81.14C64.84-82.64 67.41-82.94 69.58-81.9ZM60.62-63.26L42.34-48.63C41.23-47.75 39.85-47.26 38.43-47.26L21.93-47.26L21.93-25.64L38.43-25.64C39.85-25.64 41.23-25.15 42.34-24.27L60.62-9.64L60.62-63.26Z"/>
  </g>
  <g id="Bold-L" transform="matrix(1 0 0 1 2268.53 1556)">
   <path class="hierarchical-0:primary SFSymbolsPreview212121" d="M108.07-80.225C110.14-82.295 113.49-82.295 115.56-80.225C127.22-68.565 133.77-52.755 133.77-36.265C133.77-19.775 127.22-3.965 115.56 7.695C113.49 9.765 110.14 9.765 108.07 7.695C106 5.625 106 2.265 108.07 0.195C117.74-9.475 123.17-22.595 123.17-36.265C123.17-49.945 117.74-63.055 108.07-72.735C106-74.805 106-78.155 108.07-80.225ZM87.99-60.145C90.06-62.215 93.42-62.215 95.49-60.145C101.81-53.825 105.37-45.245 105.37-36.295C105.37-27.345 101.81-18.765 95.49-12.445C93.42-10.375 90.06-10.375 87.99-12.445C85.92-14.515 85.92-17.865 87.99-19.935C92.33-24.275 94.77-30.155 94.77-36.295C94.77-42.435 92.33-48.315 87.99-52.655C85.92-54.725 85.92-58.075 87.99-60.145Z"/>
   <path class="hierarchical-1:secondary SFSymbolsPreview4D4D4D" d="M68.21-80.855C70.05-79.975 71.22-78.115 71.22-76.075L71.22 3.545C71.22 5.585 70.05 7.445 68.21 8.325C66.38 9.205 64.2 8.955 62.61 7.685L35.62-13.905L14.73-13.905C11.8-13.905 9.43-16.275 9.43-19.205L9.43-53.325C9.43-56.255 11.8-58.625 14.73-58.625L35.62-58.625L62.61-80.215C64.2-81.495 66.38-81.735 68.21-80.855ZM60.62-65.055L40.79-49.195C39.85-48.435 38.68-48.025 37.48-48.025L20.03-48.025L20.03-24.505L37.48-24.505C38.68-24.505 39.85-24.095 40.79-23.345L60.62-7.485L60.62-65.055Z"/>
  </g>
  <g id="Semibold-L" transform="matrix(1 0 0 1 1972.48 1556)">
   <path class="hierarchical-0:primary SFSymbolsPreview212121" d="M107.87-79.635C109.69-81.445 112.63-81.445 114.45-79.635C125.98-68.095 132.46-52.445 132.46-36.135C132.46-19.815 125.98-4.175 114.45 7.365C112.63 9.185 109.69 9.185 107.87 7.365C106.06 5.545 106.06 2.605 107.87 0.785C117.66-9.005 123.16-22.285 123.16-36.135C123.16-49.985 117.66-63.265 107.87-73.055C106.06-74.875 106.06-77.815 107.87-79.635ZM87.8-59.555C89.61-61.375 92.56-61.375 94.37-59.555C100.58-53.355 104.06-44.935 104.06-36.165C104.06-27.385 100.58-18.975 94.37-12.765C92.56-10.955 89.61-10.955 87.8-12.765C85.98-14.585 85.98-17.525 87.8-19.345C92.25-23.805 94.76-29.855 94.76-36.165C94.76-42.475 92.25-48.515 87.8-52.985C85.98-54.795 85.98-57.745 87.8-59.555Z"/>
   <path class="hierarchical-1:secondary SFSymbolsPreview4D4D4D" d="M67.28-80.135C68.89-79.365 69.91-77.735 69.91-75.945L69.91 3.675C69.91 5.465 68.89 7.095 67.28 7.865C65.67 8.645 63.75 8.425 62.36 7.305L35.19-14.425L14.08-14.425C11.51-14.425 9.43-16.505 9.43-19.075L9.43-53.195C9.43-55.765 11.51-57.845 14.08-57.845L35.19-57.845L62.36-79.575C63.75-80.695 65.67-80.915 67.28-80.135ZM60.61-66.275L39.73-49.565C38.91-48.905 37.88-48.545 36.83-48.545L18.73-48.545L18.73-23.725L36.83-23.725C37.88-23.725 38.91-23.365 39.73-22.705L60.61-5.995L60.61-66.275Z"/>
  </g>
  <g id="Medium-L" transform="matrix(1 0 0 1 1676.27 1556)">
   <path class="hierarchical-0:primary SFSymbolsPreview212121" d="M107.73-79.1924C109.35-80.8224 111.98-80.8124 113.6-79.1924C125.04-67.7524 131.46-52.2324 131.46-36.0524C131.46-19.8724 125.04-4.3525 113.6 7.0975C111.98 8.7175 109.35 8.7175 107.73 7.0975C106.11 5.4775 106.11 2.8475 107.73 1.2275C117.61-8.6625 123.16-22.0724 123.16-36.0524C123.16-50.0324 117.61-63.4424 107.73-73.3324C106.11-74.9524 106.11-77.5724 107.73-79.1924ZM87.65-59.1224C89.27-60.7424 91.9-60.7424 93.52-59.1224C99.63-53.0124 103.06-44.7224 103.06-36.0824C103.06-27.4424 99.63-19.1524 93.52-13.0424C91.9-11.4224 89.27-11.4224 87.65-13.0424C86.03-14.6624 86.03-17.2924 87.65-18.9124C92.2-23.4624 94.76-29.6424 94.76-36.0824C94.76-42.5224 92.2-48.6924 87.65-53.2524C86.03-54.8724 86.03-57.5024 87.65-59.1224Z"/>
   <path class="hierarchical-1:secondary SFSymbolsPreview4D4D4D" d="M66.56-79.6024C68-78.9124 68.91-77.4624 68.91-75.8624L68.91 3.7575C68.91 5.3575 68 6.8075 66.56 7.4975C65.12 8.1975 63.42 7.9975 62.17 6.9975L34.87-14.8424L13.58-14.8424C11.28-14.8424 9.43-16.6924 9.43-18.9924L9.43-53.1124C9.43-55.4024 11.28-57.2624 13.58-57.2624L34.87-57.2624L62.17-79.1024C63.42-80.1024 65.12-80.2924 66.56-79.6024ZM60.61-67.2324L38.92-49.8724C38.18-49.2824 37.27-48.9624 36.33-48.9624L17.73-48.9624L17.73-23.1424L36.33-23.1424C37.27-23.1424 38.18-22.8224 38.92-22.2324L60.61-4.8725L60.61-67.2324Z"/>
  </g>
  <g id="Regular-L" transform="matrix(1 0 0 1 1380.2 1556)">
   <path class="hierarchical-0:primary SFSymbolsPreview212121" d="M107.55-78.6C108.91-79.96 111.13-79.96 112.5-78.6C123.81-67.27 130.17-51.92 130.17-35.91C130.17-19.9 123.81-4.55 112.5 6.77C111.13 8.14 108.91 8.14 107.55 6.78C106.18 5.41 106.18 3.19 107.55 1.83C117.55-8.18 123.17-21.76 123.17-35.91C123.17-50.06 117.55-63.64 107.55-73.65C106.18-75.01 106.18-77.23 107.55-78.6ZM87.47-58.52C88.84-59.89 91.05-59.89 92.42-58.52C98.41-52.53 101.77-44.41 101.77-35.94C101.77-27.47 98.41-19.35 92.42-13.36C91.05-11.99 88.84-11.99 87.47-13.36C86.1-14.73 86.1-16.94 87.47-18.31C92.14-22.98 94.77-29.33 94.77-35.94C94.77-42.55 92.14-48.89 87.47-53.57C86.1-54.94 86.1-57.15 87.47-58.52Z"/>
   <path class="hierarchical-1:secondary SFSymbolsPreview4D4D4D" d="M65.64-78.88C66.85-78.29 67.62-77.07 67.62-75.72L67.62 3.9C67.62 5.25 66.85 6.47 65.64 7.06C64.43 7.64 62.99 7.48 61.94 6.64L34.46-15.35L12.93-15.35C11-15.35 9.43-16.91 9.43-18.85L9.43-52.97C9.43-54.91 11-56.47 12.93-56.47L34.46-56.47L61.94-78.46C62.99-79.3 64.43-79.46 65.64-78.88ZM60.62-68.44L37.87-50.24C37.25-49.74 36.48-49.47 35.69-49.47L16.43-49.47L16.43-22.35L35.69-22.35C36.48-22.35 37.25-22.08 37.87-21.58L60.62-3.38L60.62-68.44Z"/>
  </g>
  <g id="Light-L" transform="matrix(1 0 0 1 1084.29 1556)">
   <path class="hierarchical-0:primary SFSymbolsPreview212121" d="M107.31-77.875C108.37-78.925 110.08-78.925 111.13-77.875C122.3-66.705 128.57-51.555 128.57-35.755C128.57-19.955 122.3-4.805 111.13 6.365C110.08 7.415 108.37 7.415 107.31 6.365C106.26 5.315 106.26 3.605 107.31 2.545C117.47-7.615 123.17-21.385 123.17-35.755C123.17-50.125 117.47-63.895 107.31-74.055C106.26-75.115 106.26-76.825 107.31-77.875ZM87.23-57.795C88.29-58.855 90-58.855 91.05-57.795C96.89-51.955 100.17-44.035 100.17-35.785C100.17-27.525 96.89-19.605 91.05-13.765C90-12.715 88.29-12.715 87.23-13.765C86.18-14.825 86.18-16.535 87.23-17.585C92.06-22.415 94.77-28.955 94.77-35.785C94.77-42.605 92.06-49.155 87.23-53.975C86.18-55.035 86.18-56.745 87.23-57.795Z"/>
   <path class="hierarchical-1:secondary SFSymbolsPreview4D4D4D" d="M64.49-78.005C65.43-77.555 66.02-76.605 66.02-75.565L66.02 4.055C66.02 5.095 65.43 6.045 64.49 6.495C63.56 6.945 62.45 6.815 61.64 6.165L33.94-15.995L12.13-15.995C10.64-15.995 9.43-17.205 9.43-18.695L9.43-52.815C9.43-54.305 10.64-55.515 12.13-55.515L33.94-55.515L61.64-77.675C62.45-78.325 63.56-78.455 64.49-78.005ZM60.62-69.945L36.57-50.705C36.09-50.325 35.5-50.115 34.88-50.115L14.83-50.115L14.83-21.395L34.88-21.395C35.5-21.395 36.09-21.185 36.57-20.805L60.62-1.555L60.62-69.945Z"/>
  </g>
  <g id="Thin-L" transform="matrix(1 0 0 1 788.628 1556)">
   <path class="hierarchical-0:primary SFSymbolsPreview212121" d="M106.999-76.93C107.644-77.57 108.688-77.57 109.333-76.93C120.304-65.95 126.468-51.07 126.468-35.55C126.468-20.03 120.304-5.15 109.333 5.83C108.688 6.47 107.644 6.47 106.999 5.83C106.355 5.18 106.355 4.14 106.999 3.49C117.352-6.86 123.168-20.91 123.168-35.55C123.168-50.19 117.352-64.24 106.999-74.59C106.355-75.24 106.355-76.28 106.999-76.93ZM86.922-56.85C87.567-57.49 88.612-57.49 89.256-56.85C94.896-51.21 98.065-43.56 98.065-35.58C98.065-27.6 94.896-19.95 89.256-14.31C88.612-13.66 87.567-13.66 86.922-14.31C86.278-14.95 86.278-15.99 86.922-16.64C91.944-21.66 94.765-28.47 94.765-35.58C94.765-42.68 91.944-49.49 86.922-54.52C86.278-55.16 86.278-56.21 86.922-56.85Z"/>
   <path class="hierarchical-1:secondary SFSymbolsPreview4D4D4D" d="M62.982-76.85C63.554-76.57 63.918-76 63.918-75.36L63.918 4.26C63.918 4.9 63.554 5.48 62.982 5.75C62.411 6.03 61.732 5.95 61.237 5.55L33.251-16.84L11.08-16.84C10.169-16.84 9.43-17.58 9.43-18.49L9.43-52.61C9.43-53.52 10.169-54.26 11.08-54.26L33.251-54.26L61.237-76.65C61.732-77.05 62.411-77.12 62.982-76.85ZM60.618-71.93L34.861-51.32C34.568-51.09 34.205-50.96 33.83-50.96L12.73-50.96L12.73-20.14L33.83-20.14C34.205-20.14 34.568-20.01 34.861-19.77L60.618 0.83L60.618-71.93Z"/>
  </g>
  <g id="Ultralight-L" transform="matrix(1 0 0 1 492.467 1556)">
   <path class="hierarchical-0:primary SFSymbolsPreview212121" d="M106.838-76.435C107.268-76.865 107.964-76.865 108.394-76.435C119.262-65.555 125.368-50.815 125.368-35.445C125.368-20.075 119.262-5.325 108.394 5.545C107.964 5.975 107.268 5.975 106.838 5.545C106.408 5.115 106.408 4.415 106.838 3.985C117.294-6.465 123.168-20.655 123.168-35.445C123.168-50.235 117.294-64.415 106.838-74.875C106.408-75.305 106.408-76.005 106.838-76.435ZM86.761-56.355C87.191-56.785 87.887-56.785 88.317-56.355C93.854-50.815 96.965-43.305 96.965-35.475C96.965-27.635 93.854-20.125 88.317-14.585C87.887-14.155 87.191-14.155 86.761-14.585C86.331-15.015 86.331-15.715 86.761-16.145C91.886-21.275 94.765-28.225 94.765-35.475C94.765-42.725 91.886-49.675 86.761-54.795C86.331-55.225 86.331-55.925 86.761-56.355Z"/>
   <path class="hierarchical-1:secondary SFSymbolsPreview4D4D4D" d="M62.194-76.255C62.575-76.065 62.817-75.685 62.817-75.255L62.817 4.365C62.817 4.785 62.575 5.175 62.194 5.355C61.813 5.545 61.36 5.485 61.03 5.225L32.894-17.285L10.53-17.285C9.922-17.285 9.43-17.775 9.43-18.385L9.43-52.505C9.43-53.115 9.922-53.605 10.53-53.605L32.894-53.605L61.03-76.115C61.36-76.385 61.813-76.435 62.194-76.255ZM60.617-72.975L33.967-51.655C33.772-51.495 33.53-51.405 33.28-51.405L11.63-51.405L11.63-19.485L33.28-19.485C33.53-19.485 33.772-19.395 33.967-19.245L60.617 2.075L60.617-72.975Z"/>
  </g>
  <g id="Black-M" transform="matrix(1 0 0 1 2872.41 1126)">
   <path class="hierarchical-0:primary SFSymbolsPreview212121" d="M87.68-73.185C90.46-75.955 94.95-75.955 97.73-73.185C107.42-63.485 112.87-50.325 112.87-36.615C112.87-22.895 107.42-9.745 97.73-0.045C94.95 2.725 90.46 2.725 87.68-0.045C84.91-2.815 84.91-7.315 87.68-10.085C94.72-17.125 98.67-26.665 98.67-36.615C98.67-46.565 94.72-56.105 87.68-63.145C84.91-65.915 84.91-70.415 87.68-73.185ZM71.93-57.435C74.71-60.205 79.2-60.205 81.97-57.435C87.49-51.915 90.58-44.435 90.58-36.635C90.58-28.835 87.49-21.355 81.97-15.845C79.2-13.065 74.71-13.065 71.93-15.845C69.16-18.615 69.16-23.105 71.93-25.885C74.78-28.735 76.38-32.605 76.38-36.635C76.38-40.675 74.78-44.535 71.93-47.395C69.16-50.165 69.16-54.665 71.93-57.435Z"/>
   <path class="hierarchical-1:secondary SFSymbolsPreview4D4D4D" d="M59.77-74.255C62.23-73.065 63.79-70.585 63.79-67.855L63.79-5.375C63.79-2.645 62.23-0.155 59.77 1.025C57.31 2.205 54.39 1.875 52.26 0.165L31.89-16.125L16.53-16.125C12.61-16.125 9.43-19.305 9.43-23.225L9.43-50.005C9.43-53.925 12.61-57.105 16.53-57.105L31.89-57.105L52.26-73.395C54.39-75.105 57.31-75.435 59.77-74.255ZM49.59-53.075L38.81-44.455C37.56-43.455 35.99-42.905 34.38-42.905L23.63-42.905L23.63-30.325L34.38-30.325C35.99-30.325 37.56-29.775 38.81-28.775L49.59-20.145L49.59-53.075Z"/>
  </g>
  <g id="Heavy-M" transform="matrix(1 0 0 1 2576.54 1126)">
   <path class="hierarchical-0:primary SFSymbolsPreview212121" d="M87.44-72.42C89.88-74.86 93.83-74.86 96.27-72.42C105.81-62.88 111.17-49.94 111.17-36.45C111.17-22.96 105.81-10.02 96.27-0.48C93.83 1.96 89.88 1.96 87.44-0.48C84.99-2.92 84.99-6.88 87.43-9.32C94.63-16.52 98.67-26.28 98.67-36.45C98.67-46.63 94.63-56.39 87.43-63.58C84.99-66.02 84.99-69.98 87.44-72.42ZM71.68-56.67C74.12-59.11 78.08-59.11 80.52-56.67C85.88-51.31 88.88-44.05 88.88-36.47C88.88-28.9 85.88-21.64 80.52-16.28C78.08-13.84 74.12-13.84 71.68-16.28C69.24-18.72 69.24-22.68 71.68-25.12C74.69-28.13 76.38-32.21 76.38-36.47C76.38-40.73 74.69-44.82 71.68-47.83C69.24-50.27 69.24-54.23 71.68-56.67Z"/>
   <path class="hierarchical-1:secondary SFSymbolsPreview4D4D4D" d="M58.55-73.32C60.71-72.28 62.09-70.09 62.09-67.69L62.09-5.21C62.09-2.81 60.71-0.62 58.55 0.42C56.38 1.46 53.81 1.17 51.94-0.33L31.34-16.81L15.68-16.81C12.23-16.81 9.43-19.61 9.43-23.06L9.43-49.84C9.43-53.29 12.23-56.09 15.68-56.09L31.34-56.09L51.94-72.57C53.81-74.07 56.38-74.36 58.55-73.32ZM49.59-54.68L37.43-44.96C36.33-44.07 34.95-43.59 33.53-43.59L21.93-43.59L21.93-29.31L33.53-29.31C34.95-29.31 36.33-28.83 37.43-27.94L49.59-18.22L49.59-54.68Z"/>
  </g>
  <g id="Bold-M" transform="matrix(1 0 0 1 2280.78 1126)">
   <path class="hierarchical-0:primary SFSymbolsPreview212121" d="M87.16-71.565C89.23-73.635 92.58-73.635 94.65-71.565C104.01-62.205 109.27-49.505 109.27-36.265C109.27-23.025 104.01-10.335 94.65-0.975C92.58 1.095 89.23 1.105 87.16-0.965C85.09-3.035 85.09-6.395 87.16-8.465C94.53-15.835 98.67-25.835 98.67-36.265C98.67-46.695 94.53-56.695 87.16-64.065C85.09-66.145 85.09-69.495 87.16-71.565ZM71.41-55.815C73.48-57.885 76.83-57.885 78.9-55.815C84.08-50.635 86.98-43.615 86.98-36.285C86.98-28.965 84.08-21.945 78.9-16.765C76.83-14.695 73.48-14.695 71.41-16.765C69.33-18.835 69.33-22.195 71.4-24.265C74.59-27.455 76.38-31.775 76.38-36.285C76.38-40.805 74.59-45.125 71.4-48.315C69.33-50.385 69.33-53.745 71.41-55.815Z"/>
   <path class="hierarchical-1:secondary SFSymbolsPreview4D4D4D" d="M57.19-72.285C59.02-71.395 60.19-69.545 60.19-67.505L60.19-5.025C60.19-2.995 59.02-1.135 57.19-0.255C55.35 0.625 53.17 0.385 51.58-0.895L30.72-17.575L14.73-17.575C11.8-17.575 9.43-19.955 9.43-22.875L9.43-49.655C9.43-52.585 11.8-54.955 14.73-54.955L30.72-54.955L51.58-71.645C53.17-72.915 55.35-73.165 57.19-72.285ZM49.59-56.475L35.89-45.515C34.95-44.765 33.78-44.355 32.58-44.355L20.03-44.355L20.03-28.175L32.58-28.175C33.78-28.175 34.95-27.765 35.89-27.015L49.59-16.055L49.59-56.475Z"/>
  </g>
  <g id="Semibold-M" transform="matrix(1 0 0 1 1984.72 1126)">
   <path class="hierarchical-0:primary SFSymbolsPreview212121" d="M86.96-70.975C88.78-72.785 91.72-72.785 93.54-70.975C102.78-61.735 107.97-49.205 107.97-36.135C107.97-23.065 102.78-10.535 93.54-1.295C91.72 0.515 88.78 0.515 86.96-1.295C85.15-3.115 85.15-6.055 86.96-7.875C94.46-15.365 98.67-25.535 98.67-36.135C98.67-46.735 94.46-56.905 86.96-64.395C85.15-66.215 85.15-69.155 86.96-70.975ZM71.21-55.225C73.03-57.035 75.97-57.035 77.79-55.215C82.84-50.165 85.68-43.305 85.68-36.155C85.68-29.005 82.84-22.155 77.79-17.095C75.97-15.275 73.03-15.275 71.21-17.095C69.39-18.905 69.39-21.855 71.21-23.665C74.52-26.985 76.38-31.475 76.38-36.155C76.38-40.845 74.52-45.335 71.21-48.645C69.39-50.465 69.39-53.405 71.21-55.225Z"/>
   <path class="hierarchical-1:secondary SFSymbolsPreview4D4D4D" d="M56.25-71.565C57.86-70.785 58.89-69.155 58.89-67.375L58.89-4.895C58.89-3.105 57.86-1.485 56.25-0.705C54.64 0.065 52.73-0.145 51.33-1.265L30.29-18.095L14.08-18.095C11.51-18.095 9.43-20.175 9.43-22.745L9.43-49.525C9.43-52.095 11.51-54.175 14.08-54.175L30.29-54.175L51.33-71.005C52.73-72.115 54.64-72.335 56.25-71.565ZM49.59-57.695L34.83-45.895C34.01-45.235 32.98-44.875 31.93-44.875L18.73-44.875L18.73-27.395L31.93-27.395C32.98-27.395 34.01-27.035 34.83-26.375L49.59-14.575L49.59-57.695Z"/>
  </g>
  <g id="Medium-M" transform="matrix(1 0 0 1 1688.51 1126)">
   <path class="hierarchical-0:primary SFSymbolsPreview212121" d="M86.82-70.5324C88.44-72.1624 91.06-72.1524 92.69-70.5324C101.83-61.3924 106.97-48.9824 106.97-36.0524C106.97-23.1224 101.83-10.7124 92.69-1.5725C91.06 0.0575059 88.44 0.0575059 86.82-1.5725C85.2-3.1925 85.19-5.8125 86.82-7.4325C94.4-15.0224 98.67-25.3224 98.67-36.0524C98.67-46.7824 94.4-57.0824 86.82-64.6724C85.19-66.2924 85.2-68.9124 86.82-70.5324ZM71.06-54.7824C72.68-56.4024 75.31-56.4024 76.93-54.7824C81.89-49.8224 84.68-43.0924 84.68-36.0724C84.68-29.0624 81.89-22.3324 76.93-17.3624C75.31-15.7424 72.68-15.7424 71.06-17.3624C69.44-18.9824 69.44-21.6124 71.06-23.2324C74.47-26.6424 76.38-31.2624 76.38-36.0724C76.38-40.8924 74.47-45.5124 71.06-48.9124C69.44-50.5324 69.44-53.1624 71.06-54.7824Z"/>
   <path class="hierarchical-1:secondary SFSymbolsPreview4D4D4D" d="M55.54-71.0324C56.97-70.3424 57.89-68.8824 57.89-67.2924L57.89-4.8125C57.89-3.2225 56.97-1.7625 55.54-1.07249C54.1-0.382494 52.39-0.572494 51.15-1.5725L29.97-18.5124L13.58-18.5124C11.28-18.5124 9.43-20.3724 9.43-22.6624L9.43-49.4424C9.43-51.7324 11.28-53.5924 13.58-53.5924L29.97-53.5924L51.15-70.5324C52.39-71.5224 54.1-71.7224 55.54-71.0324ZM49.59-58.6524L34.02-46.2024C33.28-45.6124 32.37-45.2924 31.43-45.2924L17.73-45.2924L17.73-26.8124L31.43-26.8124C32.37-26.8124 33.28-26.4924 34.02-25.9024L49.59-13.4524L49.59-58.6524Z"/>
  </g>
  <g id="Regular-M" transform="matrix(1 0 0 1 1392.45 1126)">
   <path class="hierarchical-0:primary SFSymbolsPreview212121" d="M86.63-69.94C87.99-71.3 90.21-71.3 91.58-69.94C100.6-60.91 105.67-48.67 105.67-35.91C105.67-23.15 100.6-10.91 91.58-1.89C90.21-0.52 87.99-0.52 86.63-1.89C85.26-3.25 85.26-5.47 86.62-6.84C94.33-14.55 98.67-25.01 98.67-35.91C98.67-46.82 94.33-57.27 86.62-64.99C85.26-66.35 85.26-68.57 86.63-69.94ZM70.87-54.18C72.24-55.55 74.46-55.55 75.82-54.18C80.66-49.34 83.38-42.78 83.38-35.93C83.38-29.09 80.66-22.52 75.82-17.68C74.46-16.32 72.24-16.32 70.87-17.68C69.51-19.05 69.51-21.27 70.87-22.63C74.4-26.16 76.38-30.95 76.38-35.93C76.38-40.92 74.4-45.71 70.87-49.23C69.51-50.6 69.51-52.82 70.87-54.18Z"/>
   <path class="hierarchical-1:secondary SFSymbolsPreview4D4D4D" d="M54.6-70.3C55.82-69.72 56.59-68.49 56.59-67.15L56.59-4.67C56.59-3.33 55.82-2.1 54.6-1.52C53.39-0.94 51.95-1.1 50.9-1.94L29.55-19.02L12.93-19.02C10.99-19.02 9.43-20.59 9.43-22.52L9.43-49.3C9.43-51.23 10.99-52.8 12.93-52.8L29.55-52.8L50.9-69.88C51.95-70.72 53.39-70.89 54.6-70.3ZM49.59-59.87L32.96-46.57C32.34-46.07 31.57-45.8 30.77-45.8L16.43-45.8L16.43-26.02L30.77-26.02C31.57-26.02 32.34-25.75 32.96-25.26L49.59-11.96L49.59-59.87Z"/>
  </g>
  <g id="Light-M" transform="matrix(1 0 0 1 1096.53 1126)">
   <path class="hierarchical-0:primary SFSymbolsPreview212121" d="M86.4-69.215C87.46-70.265 89.17-70.265 90.22-69.215C99.09-60.335 104.08-48.305 104.08-35.755C104.08-23.205 99.09-11.175 90.22-2.295C89.17-1.245 87.46-1.245 86.4-2.295C85.35-3.355 85.35-5.065 86.4-6.115C94.26-13.975 98.68-24.635 98.68-35.755C98.68-46.875 94.26-57.535 86.4-65.395C85.35-66.455 85.35-68.165 86.4-69.215ZM70.65-53.465C71.7-54.515 73.41-54.515 74.47-53.465C79.16-48.775 81.79-42.415 81.79-35.775C81.79-29.145 79.16-22.785 74.47-18.095C73.41-17.035 71.7-17.035 70.65-18.095C69.59-19.145 69.59-20.855 70.65-21.915C74.32-25.585 76.39-30.575 76.39-35.775C76.39-40.975 74.32-45.965 70.65-49.645C69.59-50.695 69.59-52.405 70.65-53.465Z"/>
   <path class="hierarchical-1:secondary SFSymbolsPreview4D4D4D" d="M53.47-69.425C54.4-68.975 55-68.035 55-66.995L55-4.515C55-3.485 54.4-2.535 53.47-2.085C52.53-1.635 51.42-1.765 50.61-2.405L29.04-19.665L12.13-19.665C10.64-19.665 9.43-20.875 9.43-22.365L9.43-49.145C9.43-50.635 10.64-51.845 12.13-51.845L29.04-51.845L50.61-69.105C51.42-69.745 52.53-69.875 53.47-69.425ZM49.6-61.375L31.67-47.035C31.19-46.655 30.6-46.445 29.98-46.445L14.83-46.445L14.83-25.065L29.98-25.065C30.6-25.065 31.19-24.855 31.67-24.475L49.6-10.135L49.6-61.375Z"/>
  </g>
  <g id="Thin-M" transform="matrix(1 0 0 1 800.877 1126)">
   <path class="hierarchical-0:primary SFSymbolsPreview212121" d="M86.089-68.27C86.733-68.91 87.778-68.91 88.422-68.27C97.097-59.59 101.971-47.82 101.971-35.55C101.971-23.28 97.097-11.51 88.422-2.83C87.778-2.19 86.733-2.19 86.089-2.83C85.444-3.48 85.444-4.52 86.088-5.17C94.145-13.23 98.671-24.15 98.671-35.55C98.671-46.95 94.145-57.87 86.088-65.93C85.444-66.58 85.444-67.62 86.089-68.27ZM70.336-52.51C70.98-53.16 72.025-53.16 72.669-52.51C77.162-48.02 79.685-41.93 79.685-35.57C79.685-29.22 77.162-23.12 72.669-18.63C72.025-17.99 70.98-17.99 70.336-18.63C69.691-19.27 69.691-20.32 70.336-20.96C74.209-24.84 76.385-30.09 76.385-35.57C76.385-41.05 74.209-46.31 70.336-50.18C69.691-50.82 69.691-51.87 70.336-52.51Z"/>
   <path class="hierarchical-1:secondary SFSymbolsPreview4D4D4D" d="M51.957-68.27C52.529-68 52.893-67.42 52.893-66.79L52.893-4.31C52.893-3.68 52.529-3.1 51.957-2.83C51.386-2.55 50.707-2.63 50.212-3.02L28.351-20.51L11.08-20.51C10.169-20.51 9.43-21.25 9.43-22.16L9.43-48.94C9.43-49.85 10.169-50.59 11.08-50.59L28.351-50.59L50.212-68.08C50.707-68.47 51.386-68.55 51.957-68.27ZM49.593-63.35L29.961-47.65C29.668-47.41 29.305-47.29 28.93-47.29L12.73-47.29L12.73-23.81L28.93-23.81C29.305-23.81 29.668-23.68 29.961-23.45L49.593-7.75L49.593-63.35Z"/>
  </g>
  <g id="Ultralight-M" transform="matrix(1 0 0 1 504.716 1126)">
   <path class="hierarchical-0:primary SFSymbolsPreview212121" d="M85.927-67.775C86.357-68.205 87.053-68.205 87.483-67.775C96.055-59.195 100.87-47.565 100.87-35.445C100.87-23.315 96.055-11.695 87.483-3.115C87.053-2.685 86.357-2.685 85.927-3.115C85.498-3.545 85.497-4.245 85.927-4.675C94.087-12.835 98.67-23.905 98.67-35.445C98.67-46.985 94.087-58.055 85.927-66.215C85.497-66.645 85.498-67.345 85.927-67.775ZM70.175-52.015C70.604-52.445 71.301-52.445 71.73-52.015C76.119-47.625 78.585-41.675 78.585-35.465C78.585-29.255 76.119-23.305 71.73-18.915C71.301-18.485 70.604-18.485 70.175-18.915C69.745-19.345 69.745-20.035 70.174-20.465C74.151-24.445 76.385-29.845 76.385-35.465C76.385-41.095 74.151-46.485 70.174-50.465C69.745-50.895 69.745-51.585 70.175-52.015Z"/>
   <path class="hierarchical-1:secondary SFSymbolsPreview4D4D4D" d="M51.169-67.675C51.55-67.485 51.792-67.105 51.792-66.685L51.792-4.205C51.792-3.785 51.55-3.395 51.169-3.215C50.788-3.035 50.335-3.085 50.005-3.345L27.994-20.955L10.53-20.955C9.922-20.955 9.43-21.445 9.43-22.055L9.43-48.835C9.43-49.435 9.922-49.935 10.53-49.935L27.994-49.935L50.005-67.545C50.335-67.805 50.788-67.855 51.169-67.675ZM49.592-64.395L29.067-47.975C28.872-47.815 28.63-47.735 28.38-47.735L11.63-47.735L11.63-23.155L28.38-23.155C28.63-23.155 28.872-23.075 29.067-22.915L49.592-6.495L49.592-64.395Z"/>
  </g>
  <g id="Black-S" transform="matrix(1 0 0 1 2882.03 696)">
   <path class="hierarchical-0:primary SFSymbolsPreview212121" d="M71.26-66.4834C74.03-69.2554 78.52-69.2554 81.3-66.4814C89.19-58.5874 93.62-47.8804 93.62-36.7174C93.62-25.5534 89.19-14.8474 81.3-6.9525C78.52-4.1795 74.03-4.1785 71.26-6.9515C68.48-9.7235 68.48-14.2184 71.25-16.9914C76.48-22.2244 79.42-29.3194 79.42-36.7174C79.42-44.1154 76.48-51.2104 71.25-56.4424C68.48-59.2154 68.48-63.7114 71.26-66.4834ZM58.9-54.1284C61.67-56.9004 66.17-56.9004 68.94-54.1264C73.55-49.5134 76.14-43.2574 76.14-36.7344C76.14-30.2114 73.55-23.9554 68.94-19.3424C66.17-16.5694 61.67-16.5684 58.9-19.3414C56.13-22.1134 56.13-26.6084 58.9-29.3814C60.85-31.3324 61.94-33.9774 61.94-36.7344C61.94-39.4924 60.85-42.1374 58.9-44.0874C56.13-46.8604 56.13-51.3564 58.9-54.1284Z"/>
   <path class="hierarchical-1:secondary SFSymbolsPreview4D4D4D" d="M51.11-67.6194C53.57-66.4364 55.13-63.9494 55.13-61.2204L55.13-12.2204C55.13-9.4905 53.57-7.0035 51.11-5.8205C48.65-4.6385 45.73-4.9705 43.59-6.6755L28.04-19.1204L16.53-19.1204C12.61-19.1204 9.43-22.2984 9.43-26.2204L9.43-47.2204C9.43-51.1414 12.61-54.3204 16.53-54.3204L28.04-54.3204L43.59-66.7644C45.73-68.4694 48.65-68.8014 51.11-67.6194ZM40.93-46.4474L34.97-41.6754C33.71-40.6684 32.14-40.1204 30.53-40.1204L23.63-40.1204L23.63-33.3204L30.53-33.3204C32.14-33.3204 33.71-32.7714 34.97-31.7644L40.93-26.9924L40.93-46.4474Z"/>
  </g>
  <g id="Heavy-S" transform="matrix(1 0 0 1 2586.17 696)">
   <path class="hierarchical-0:primary SFSymbolsPreview212121" d="M71.01-65.7194C73.45-68.1604 77.4-68.1594 79.85-65.7184C87.58-57.9824 91.92-47.4924 91.92-36.5544C91.92-25.6164 87.58-15.1264 79.85-7.3905C77.4-4.9495 73.45-4.9495 71.01-7.3895C68.57-9.8295 68.56-13.7874 71.01-16.2284C76.4-21.6194 79.42-28.9314 79.42-36.5544C79.42-44.1784 76.4-51.4894 71.01-56.8804C68.56-59.3224 68.57-63.2794 71.01-65.7194ZM58.65-53.3644C61.09-55.8054 65.05-55.8044 67.49-53.3634C71.94-48.9094 74.44-42.8694 74.44-36.5724C74.44-30.2744 71.94-24.2344 67.49-19.7804C65.05-17.3394 61.09-17.3394 58.65-19.7794C56.21-22.2194 56.21-26.1774 58.65-28.6184C60.76-30.7284 61.94-33.5894 61.94-36.5724C61.94-39.5554 60.76-42.4164 58.65-44.5254C56.21-46.9674 56.21-50.9244 58.65-53.3644Z"/>
   <path class="hierarchical-1:secondary SFSymbolsPreview4D4D4D" d="M49.89-66.6864C52.05-65.6454 53.43-63.4564 53.43-61.0534L53.43-12.0534C53.43-9.6505 52.05-7.4615 49.89-6.4205C47.72-5.3795 45.15-5.6725 43.28-7.1735L27.49-19.8034L15.68-19.8034C12.23-19.8034 9.43-22.6014 9.43-26.0534L9.43-47.0534C9.43-50.5054 12.23-53.3034 15.68-53.3034L27.49-53.3034L43.28-65.9334C45.15-67.4344 47.72-67.7274 49.89-66.6864ZM40.93-48.0494L33.58-42.1734C32.48-41.2864 31.1-40.8034 29.68-40.8034L21.93-40.8034L21.93-32.3034L29.68-32.3034C31.1-32.3034 32.48-31.8204 33.58-30.9334L40.93-25.0574L40.93-48.0494Z"/>
  </g>
  <g id="Bold-S" transform="matrix(1 0 0 1 2290.41 696)">
   <path class="hierarchical-0:primary SFSymbolsPreview212121" d="M70.72-64.656C72.79-66.726 76.15-66.725 78.22-64.655C85.77-57.098 90.02-46.849 90.02-36.163C90.02-25.477 85.77-15.228 78.22-7.671C76.15-5.601 72.79-5.6 70.72-7.67C68.65-9.739 68.65-13.095 70.72-15.165C76.29-20.735 79.42-28.287 79.42-36.163C79.42-44.038 76.29-51.591 70.72-57.161C68.65-59.231 68.65-62.587 70.72-64.656ZM58.37-52.301C60.44-54.371 63.79-54.37 65.86-52.3C70.14-48.024 72.54-42.226 72.54-36.18C72.54-30.135 70.14-24.336 65.86-20.061C63.79-17.991 60.44-17.99 58.37-20.06C56.3-22.129 56.3-25.485 58.37-27.555C60.65-29.843 61.94-32.945 61.94-36.18C61.94-39.415 60.65-42.518 58.37-44.806C56.3-46.876 56.3-50.232 58.37-52.301Z"/>
   <path class="hierarchical-1:secondary SFSymbolsPreview4D4D4D" d="M48.52-65.439C50.36-64.556 51.53-62.699 51.53-60.662L51.53-11.662C51.53-9.624 50.36-7.767 48.52-6.885C46.68-6.002 44.51-6.25 42.91-7.523L26.87-20.362L14.73-20.362C11.8-20.362 9.43-22.735 9.43-25.662L9.43-46.662C9.43-49.589 11.8-51.962 14.73-51.962L26.87-51.962L42.91-64.8C44.51-66.073 46.68-66.321 48.52-65.439ZM40.93-49.634L32.04-42.523C31.1-41.771 29.93-41.362 28.73-41.362L20.03-41.362L20.03-30.962L28.73-30.962C29.93-30.962 31.1-30.552 32.04-29.8L40.93-22.689L40.93-49.634Z"/>
  </g>
  <g id="Semibold-S" transform="matrix(1 0 0 1 1994.35 696)">
   <path class="hierarchical-0:primary SFSymbolsPreview212121" d="M70.54-64.067C72.35-65.883 75.3-65.882 77.11-64.066C84.55-56.631 88.72-46.547 88.72-36.034C88.72-25.52 84.55-15.436 77.11-8.001C75.3-6.185 72.35-6.184 70.54-8C68.72-9.816 68.72-12.76 70.54-14.576C76.23-20.268 79.42-27.986 79.42-36.034C79.42-44.081 76.23-51.8 70.54-57.491C68.72-59.307 68.72-62.251 70.54-64.067ZM58.18-51.712C60-53.528 62.94-53.527 64.76-51.711C68.91-47.557 71.24-41.924 71.24-36.051C71.24-30.178 68.91-24.545 64.76-20.391C62.94-18.575 60-18.574 58.18-20.39C56.37-22.206 56.37-25.15 58.18-26.966C60.59-29.376 61.94-32.644 61.94-36.051C61.94-39.458 60.59-42.726 58.18-45.136C56.37-46.952 56.37-49.896 58.18-51.712Z"/>
   <path class="hierarchical-1:secondary SFSymbolsPreview4D4D4D" d="M47.59-64.723C49.21-63.949 50.23-62.32 50.23-60.532L50.23-11.532C50.23-9.745 49.21-8.116 47.59-7.341C45.98-6.567 44.07-6.785 42.68-7.901L26.45-20.882L14.08-20.882C11.51-20.882 9.43-22.964 9.43-25.532L9.43-46.532C9.43-49.101 11.51-51.182 14.08-51.182L26.45-51.182L42.68-64.163C44.07-65.28 45.98-65.498 47.59-64.723ZM40.93-50.857L30.98-42.901C30.16-42.242 29.14-41.882 28.08-41.882L18.73-41.882L18.73-30.182L28.08-30.182C29.14-30.182 30.16-29.823 30.98-29.163L40.93-21.207L40.93-50.857Z"/>
  </g>
  <g id="Medium-S" transform="matrix(1 0 0 1 1698.14 696)">
   <path class="hierarchical-0:primary SFSymbolsPreview212121" d="M70.39-63.6145C72.01-65.2355 74.64-65.2355 76.26-63.6145C83.6-56.2726 87.72-46.3165 87.72-35.9356C87.72-25.5535 83.6-15.5976 76.26-8.2555C74.64-6.6355 72.01-6.6345 70.39-8.2555C68.77-9.8755 68.77-12.5036 70.39-14.1245C76.17-19.9096 79.42-27.7545 79.42-35.9356C79.42-44.1155 76.17-51.9606 70.39-57.7455C68.77-59.3666 68.77-61.9945 70.39-63.6145ZM58.04-51.2595C59.66-52.8805 62.28-52.8805 63.91-51.2595C67.96-47.1996 70.24-41.6936 70.24-35.9525C70.24-30.2115 67.96-24.7056 63.91-20.6456C62.28-19.0256 59.66-19.0245 58.04-20.6456C56.42-22.2656 56.41-24.8935 58.04-26.5145C60.54-29.0176 61.94-32.4125 61.94-35.9525C61.94-39.4926 60.54-42.8876 58.04-45.3906C56.41-47.0116 56.42-49.6395 58.04-51.2595Z"/>
   <path class="hierarchical-1:secondary SFSymbolsPreview4D4D4D" d="M46.88-64.1746C48.32-63.4836 49.23-62.0295 49.23-60.4335L49.23-11.4335C49.23-9.8385 48.32-8.3845 46.88-7.6935C45.44-7.0025 43.73-7.1965 42.49-8.1935L26.12-21.2835L13.58-21.2835C11.29-21.2835 9.43-23.1416 9.43-25.4335L9.43-46.4335C9.43-48.7255 11.29-50.5836 13.58-50.5836L26.12-50.5836L42.49-63.6746C43.73-64.6716 45.44-64.8655 46.88-64.1746ZM40.93-51.7996L30.17-43.1936C29.44-42.6046 28.52-42.2835 27.58-42.2835L17.73-42.2835L17.73-29.5836L27.58-29.5836C28.52-29.5836 29.44-29.2635 30.17-28.6746L40.93-20.0686L40.93-51.7996Z"/>
  </g>
  <g id="Regular-S" transform="matrix(1 0 0 1 1402.07 696)">
   <path class="hierarchical-0:primary SFSymbolsPreview212121" d="M70.2-63.0295C71.57-64.3965 73.78-64.3965 75.15-63.0295C82.37-55.8095 86.42-46.0185 86.42-35.8095C86.42-25.6005 82.37-15.8095 75.15-8.5905C73.78-7.2235 71.57-7.2225 70.2-8.5895C68.83-9.9555 68.83-12.1725 70.2-13.5395C76.11-19.4465 79.42-27.4565 79.42-35.8095C79.42-44.1625 76.11-52.1725 70.2-58.0805C68.83-59.4475 68.83-61.6635 70.2-63.0295ZM57.85-50.6745C59.21-52.0414 61.43-52.0414 62.8-50.6745C66.73-46.7365 68.94-41.3955 68.94-35.8275C68.94-30.2585 66.73-24.9185 62.8-20.9805C61.43-19.6134 59.21-19.6125 57.85-20.9795C56.48-22.3455 56.48-24.5625 57.84-25.9295C60.47-28.5545 61.94-32.1145 61.94-35.8275C61.94-39.5395 60.47-43.0995 57.84-45.7255C56.48-47.0925 56.48-49.3085 57.85-50.6745Z"/>
   <path class="hierarchical-1:secondary SFSymbolsPreview4D4D4D" d="M45.95-63.4635C47.16-62.8805 47.93-61.6535 47.93-60.3085L47.93-11.3085C47.93-9.9635 47.16-8.7365 45.95-8.1535C44.73-7.5715 43.29-7.7345 42.24-8.5755L25.7-21.8085L12.93-21.8085C11-21.8085 9.43-23.3755 9.43-25.3085L9.43-46.3085C9.43-48.2415 11-49.8085 12.93-49.8085L25.7-49.8085L42.24-63.0414C43.29-63.8815 44.73-64.0455 45.95-63.4635ZM40.93-53.0265L29.12-43.5755C28.5-43.0785 27.72-42.8085 26.93-42.8085L16.43-42.8085L16.43-28.8085L26.93-28.8085C27.72-28.8085 28.5-28.5375 29.12-28.0414L40.93-18.5905L40.93-53.0265Z"/>
  </g>
  <g id="Light-S" transform="matrix(1 0 0 1 1106.16 696)">
   <path class="hierarchical-0:primary SFSymbolsPreview212121" d="M69.97-62.3072C71.02-63.3612 72.73-63.3612 73.78-62.3062C80.85-55.2362 84.82-45.6492 84.82-35.6522C84.82-25.6562 80.85-16.0682 73.78-8.99824C72.73-7.94424 71.02-7.94424 69.97-8.99824C68.91-10.0522 68.91-11.7622 69.97-12.8162C76.02-18.8732 79.42-27.0882 79.42-35.6522C79.42-44.2172 76.02-52.4312 69.97-58.4882C68.91-59.5432 68.91-61.2532 69.97-62.3072ZM57.61-49.9522C58.67-51.0062 60.38-51.0062 61.43-49.9512C65.22-46.1632 67.34-41.0262 67.34-35.6702C67.34-30.3132 65.22-25.1762 61.43-21.3882C60.38-20.3342 58.67-20.3342 57.61-21.3882C56.56-22.4422 56.56-24.1522 57.61-25.2062C60.39-27.9822 61.94-31.7452 61.94-35.6702C61.94-39.5942 60.39-43.3582 57.61-46.1332C56.56-47.1882 56.56-48.8982 57.61-49.9522Z"/>
   <path class="hierarchical-1:secondary SFSymbolsPreview4D4D4D" d="M44.8-62.5852C45.73-62.1352 46.33-61.1892 46.33-60.1512L46.33-11.1512C46.33-10.1132 45.73-9.16724 44.8-8.71824C43.86-8.26824 42.75-8.39424 41.94-9.04324L25.18-22.4512L12.13-22.4512C10.64-22.4512 9.43-23.6602 9.43-25.1512L9.43-46.1512C9.43-47.6422 10.64-48.8512 12.13-48.8512L25.18-48.8512L41.94-62.2602C42.75-62.9082 43.86-63.0342 44.8-62.5852ZM40.93-54.5342L27.82-44.0432C27.34-43.6602 26.74-43.4512 26.13-43.4512L14.83-43.4512L14.83-27.8512L26.13-27.8512C26.74-27.8512 27.34-27.6432 27.82-27.2602L40.93-16.7692L40.93-54.5342Z"/>
  </g>
  <g id="Thin-S" transform="matrix(1 0 0 1 810.501 696)">
   <path class="hierarchical-0:primary SFSymbolsPreview212121" d="M69.659-61.3585C70.303-62.0036 71.348-62.0036 71.992-61.3585C78.863-54.4856 82.723-45.1655 82.723-35.4475C82.723-25.7285 78.863-16.4086 71.992-9.53553C71.348-8.89153 70.303-8.89053 69.659-9.53553C69.014-10.1795 69.014-11.2246 69.658-11.8686C75.91-18.1225 79.423-26.6035 79.423-35.4475C79.423-44.2905 75.91-52.7715 69.658-59.0255C69.014-59.6695 69.014-60.7146 69.659-61.3585ZM57.304-49.0036C57.948-49.6486 58.993-49.6486 59.637-49.0036C63.227-45.4126 65.244-40.5426 65.244-35.4646C65.244-30.3865 63.227-25.5165 59.637-21.9255C58.993-21.2815 57.948-21.2805 57.304-21.9255C56.659-22.5695 56.659-23.6146 57.303-24.2586C60.275-27.2306 61.944-31.2615 61.944-35.4646C61.944-39.6676 60.275-43.6985 57.303-46.6705C56.659-47.3145 56.659-48.3596 57.304-49.0036Z"/>
   <path class="hierarchical-1:secondary SFSymbolsPreview4D4D4D" d="M43.295-61.4335C43.867-61.1586 44.23-60.5806 44.23-59.9456L44.23-10.9456C44.23-10.3116 43.867-9.73353 43.295-9.45853C42.723-9.18453 42.045-9.26153 41.549-9.65753L24.501-23.2955L11.08-23.2955C10.169-23.2955 9.43-24.0345 9.43-24.9456L9.43-45.9456C9.43-46.8575 10.169-47.5956 11.08-47.5956L24.501-47.5956L41.549-61.2346C42.045-61.6305 42.723-61.7075 43.295-61.4335ZM40.93-56.5126L26.111-44.6576C25.818-44.4235 25.455-44.2955 25.08-44.2955L12.73-44.2955L12.73-26.5956L25.08-26.5956C25.455-26.5956 25.818-26.4685 26.111-26.2346L40.93-14.3786L40.93-56.5126Z"/>
  </g>
  <g id="Ultralight-S" transform="matrix(1 0 0 1 514.34 696)">
   <path class="hierarchical-0:primary SFSymbolsPreview212121" d="M69.497-60.8618C69.927-61.2908 70.623-61.2908 71.053-60.8608C77.821-54.0918 81.623-44.9108 81.623-35.3388C81.623-25.7658 77.821-16.5858 71.053-9.81574C70.623-9.38574 69.927-9.38574 69.497-9.81574C69.068-10.2448 69.068-10.9418 69.497-11.3708C75.852-17.7288 79.423-26.3498 79.423-35.3388C79.423-44.3278 75.852-52.9488 69.497-59.3058C69.068-59.7358 69.068-60.4318 69.497-60.8618ZM57.142-48.5068C57.572-48.9358 58.268-48.9358 58.698-48.5058C62.185-45.0178 64.144-40.2878 64.144-35.3558C64.144-30.4238 62.185-25.6938 58.698-22.2058C58.268-21.7758 57.572-21.7758 57.142-22.2058C56.713-22.6348 56.713-23.3318 57.142-23.7608C60.217-26.8368 61.944-31.0078 61.944-35.3558C61.944-39.7048 60.217-43.8758 57.142-46.9508C56.713-47.3808 56.713-48.0768 57.142-48.5068Z"/>
   <path class="hierarchical-1:secondary SFSymbolsPreview4D4D4D" d="M42.506-60.8328C42.888-60.6498 43.13-60.2638 43.13-59.8418L43.13-10.8418C43.13-10.4188 42.888-10.0327 42.506-9.84974C42.125-9.66674 41.673-9.71774 41.343-9.98274L24.144-23.7418L10.53-23.7418C9.922-23.7418 9.43-24.2338 9.43-24.8418L9.43-45.8418C9.43-46.4488 9.922-46.9418 10.53-46.9418L24.144-46.9418L41.343-60.7008C41.673-60.9648 42.125-61.0158 42.506-60.8328ZM40.93-57.5528L25.217-44.9828C25.022-44.8268 24.78-44.7418 24.53-44.7418L11.63-44.7418L11.63-25.9418L24.53-25.9418C24.78-25.9418 25.022-25.8568 25.217-25.7008L40.93-13.1298L40.93-57.5528Z"/>
  </g>
 </g>
</svg>
