<?xml version="1.0" encoding="UTF-8"?>
<!--Generator: Apple Native CoreSVG 175-->
<!DOCTYPE svg
PUBLIC "-//W3C//DTD SVG 1.1//EN"
       "http://www.w3.org/Graphics/SVG/1.1/DTD/svg11.dtd">
<svg version="1.1" xmlns="http://www.w3.org/2000/svg" xmlns:xlink="http://www.w3.org/1999/xlink" width="3300" height="2200">
 <!--glyph: "", point size: 100.0, font version: "17.0d12e1", template writer version: "65.1"-->
 <style>.hierarchical-0:primary {fill:#212121}
.hierarchical-1:secondary {fill:#4D4D4D}

.SFSymbolsPreview212121 {fill:#212121;opacity:1.0}
.SFSymbolsPreview4D4D4D {fill:#4D4D4D;opacity:1.0}
</style>
 <g id="Notes">
  <rect height="2200" id="artboard" style="fill:white;opacity:1" width="3300" x="0" y="0"/>
  <line style="fill:none;stroke:black;opacity:1;stroke-width:0.5;" x1="263" x2="3036" y1="292" y2="292"/>
  <text style="stroke:none;fill:black;font-family:sans-serif;font-size:13;font-weight:bold;" transform="matrix(1 0 0 1 263 322)">Weight/Scale Variations</text>
  <text style="stroke:none;fill:black;font-family:sans-serif;font-size:13;text-anchor:middle;" transform="matrix(1 0 0 1 559.711 322)">Ultralight</text>
  <text style="stroke:none;fill:black;font-family:sans-serif;font-size:13;text-anchor:middle;" transform="matrix(1 0 0 1 856.422 322)">Thin</text>
  <text style="stroke:none;fill:black;font-family:sans-serif;font-size:13;text-anchor:middle;" transform="matrix(1 0 0 1 1153.13 322)">Light</text>
  <text style="stroke:none;fill:black;font-family:sans-serif;font-size:13;text-anchor:middle;" transform="matrix(1 0 0 1 1449.84 322)">Regular</text>
  <text style="stroke:none;fill:black;font-family:sans-serif;font-size:13;text-anchor:middle;" transform="matrix(1 0 0 1 1746.56 322)">Medium</text>
  <text style="stroke:none;fill:black;font-family:sans-serif;font-size:13;text-anchor:middle;" transform="matrix(1 0 0 1 2043.27 322)">Semibold</text>
  <text style="stroke:none;fill:black;font-family:sans-serif;font-size:13;text-anchor:middle;" transform="matrix(1 0 0 1 2339.98 322)">Bold</text>
  <text style="stroke:none;fill:black;font-family:sans-serif;font-size:13;text-anchor:middle;" transform="matrix(1 0 0 1 2636.69 322)">Heavy</text>
  <text style="stroke:none;fill:black;font-family:sans-serif;font-size:13;text-anchor:middle;" transform="matrix(1 0 0 1 2933.4 322)">Black</text>
  <line style="fill:none;stroke:black;opacity:1;stroke-width:0.5;" x1="263" x2="3036" y1="1903" y2="1903"/>
  <g transform="matrix(1 0 0 1 263 1933)">
   <path d="M9.24805 0.830078Q10.8691 0.830078 12.2949 0.214844Q13.7207-0.400391 14.8096-1.49414Q15.8984-2.58789 16.5186-4.01367Q17.1387-5.43945 17.1387-7.05078Q17.1387-8.66211 16.5186-10.0879Q15.8984-11.5137 14.8047-12.6074Q13.7109-13.7012 12.2852-14.3164Q10.8594-14.9316 9.23828-14.9316Q7.62695-14.9316 6.20117-14.3164Q4.77539-13.7012 3.69141-12.6074Q2.60742-11.5137 1.9873-10.0879Q1.36719-8.66211 1.36719-7.05078Q1.36719-5.43945 1.9873-4.01367Q2.60742-2.58789 3.69629-1.49414Q4.78516-0.400391 6.21094 0.214844Q7.63672 0.830078 9.24805 0.830078ZM9.24805-0.654297Q7.91992-0.654297 6.7627-1.14746Q5.60547-1.64062 4.73145-2.51953Q3.85742-3.39844 3.36426-4.56055Q2.87109-5.72266 2.87109-7.05078Q2.87109-8.37891 3.35938-9.54102Q3.84766-10.7031 4.72168-11.582Q5.5957-12.4609 6.75293-12.9541Q7.91016-13.4473 9.23828-13.4473Q10.5762-13.4473 11.7334-12.9541Q12.8906-12.4609 13.7695-11.582Q14.6484-10.7031 15.1465-9.54102Q15.6445-8.37891 15.6445-7.05078Q15.6445-5.72266 15.1514-4.56055Q14.6582-3.39844 13.7842-2.51953Q12.9102-1.64062 11.748-1.14746Q10.5859-0.654297 9.24805-0.654297ZM5.6543-7.05078Q5.6543-6.72852 5.85938-6.52832Q6.06445-6.32812 6.40625-6.32812L8.51562-6.32812L8.51562-4.20898Q8.51562-3.88672 8.71094-3.67676Q8.90625-3.4668 9.23828-3.4668Q9.56055-3.4668 9.77051-3.67676Q9.98047-3.88672 9.98047-4.20898L9.98047-6.32812L12.0898-6.32812Q12.4219-6.32812 12.627-6.52832Q12.832-6.72852 12.832-7.05078Q12.832-7.38281 12.627-7.58789Q12.4219-7.79297 12.0898-7.79297L9.98047-7.79297L9.98047-9.90234Q9.98047-10.2344 9.77051-10.4443Q9.56055-10.6543 9.23828-10.6543Q8.90625-10.6543 8.71094-10.4443Q8.51562-10.2344 8.51562-9.90234L8.51562-7.79297L6.40625-7.79297Q6.06445-7.79297 5.85938-7.58789Q5.6543-7.38281 5.6543-7.05078Z"/>
  </g>
  <g transform="matrix(1 0 0 1 281.867 1933)">
   <path d="M11.709 2.91016Q13.75 2.91016 15.5518 2.12891Q17.3535 1.34766 18.7305-0.0292969Q20.1074-1.40625 20.8887-3.20801Q21.6699-5.00977 21.6699-7.05078Q21.6699-9.0918 20.8887-10.8936Q20.1074-12.6953 18.7305-14.0723Q17.3535-15.4492 15.5469-16.2305Q13.7402-17.0117 11.6992-17.0117Q9.6582-17.0117 7.85645-16.2305Q6.05469-15.4492 4.68262-14.0723Q3.31055-12.6953 2.5293-10.8936Q1.74805-9.0918 1.74805-7.05078Q1.74805-5.00977 2.5293-3.20801Q3.31055-1.40625 4.6875-0.0292969Q6.06445 1.34766 7.86621 2.12891Q9.66797 2.91016 11.709 2.91016ZM11.709 1.25Q9.98047 1.25 8.47656 0.605469Q6.97266-0.0390625 5.83496-1.17676Q4.69727-2.31445 4.05762-3.81836Q3.41797-5.32227 3.41797-7.05078Q3.41797-8.7793 4.05762-10.2832Q4.69727-11.7871 5.83008-12.9297Q6.96289-14.0723 8.4668-14.7119Q9.9707-15.3516 11.6992-15.3516Q13.4277-15.3516 14.9316-14.7119Q16.4355-14.0723 17.5781-12.9297Q18.7207-11.7871 19.3652-10.2832Q20.0098-8.7793 20.0098-7.05078Q20.0098-5.32227 19.3701-3.81836Q18.7305-2.31445 17.5928-1.17676Q16.4551-0.0390625 14.9463 0.605469Q13.4375 1.25 11.709 1.25ZM7.17773-7.05078Q7.17773-6.69922 7.41211-6.47461Q7.64648-6.25 8.01758-6.25L10.8887-6.25L10.8887-3.36914Q10.8887-2.99805 11.1133-2.76855Q11.3379-2.53906 11.6895-2.53906Q12.0605-2.53906 12.29-2.76855Q12.5195-2.99805 12.5195-3.36914L12.5195-6.25L15.4004-6.25Q15.7715-6.25 16.001-6.47461Q16.2305-6.69922 16.2305-7.05078Q16.2305-7.42188 16.001-7.65137Q15.7715-7.88086 15.4004-7.88086L12.5195-7.88086L12.5195-10.752Q12.5195-11.1328 12.29-11.3623Q12.0605-11.5918 11.6895-11.5918Q11.3379-11.5918 11.1133-11.3574Q10.8887-11.123 10.8887-10.752L10.8887-7.88086L8.01758-7.88086Q7.63672-7.88086 7.40723-7.65137Q7.17773-7.42188 7.17773-7.05078Z"/>
  </g>
  <g transform="matrix(1 0 0 1 305.646 1933)">
   <path d="M14.9707 5.66406Q17.0605 5.66406 18.96 5.01465Q20.8594 4.36523 22.4512 3.19336Q24.043 2.02148 25.2197 0.429688Q26.3965-1.16211 27.0459-3.06641Q27.6953-4.9707 27.6953-7.05078Q27.6953-9.14062 27.0459-11.04Q26.3965-12.9395 25.2197-14.5312Q24.043-16.123 22.4512-17.2998Q20.8594-18.4766 18.9551-19.126Q17.0508-19.7754 14.9609-19.7754Q12.8711-19.7754 10.9717-19.126Q9.07227-18.4766 7.48535-17.2998Q5.89844-16.123 4.72168-14.5312Q3.54492-12.9395 2.90039-11.04Q2.25586-9.14062 2.25586-7.05078Q2.25586-4.9707 2.90527-3.06641Q3.55469-1.16211 4.72656 0.429688Q5.89844 2.02148 7.49023 3.19336Q9.08203 4.36523 10.9814 5.01465Q12.8809 5.66406 14.9707 5.66406ZM14.9707 3.84766Q13.1641 3.84766 11.5283 3.2959Q9.89258 2.74414 8.53516 1.74805Q7.17773 0.751953 6.17676-0.610352Q5.17578-1.97266 4.62891-3.6084Q4.08203-5.24414 4.08203-7.05078Q4.08203-8.86719 4.62891-10.5029Q5.17578-12.1387 6.17188-13.501Q7.16797-14.8633 8.52539-15.8594Q9.88281-16.8555 11.5186-17.4023Q13.1543-17.9492 14.9609-17.9492Q16.7773-17.9492 18.4131-17.4023Q20.0488-16.8555 21.4111-15.8594Q22.7734-14.8633 23.7695-13.501Q24.7656-12.1387 25.3174-10.5029Q25.8691-8.86719 25.8691-7.05078Q25.8789-5.24414 25.332-3.6084Q24.7852-1.97266 23.7842-0.610352Q22.7832 0.751953 21.4209 1.74805Q20.0586 2.74414 18.4229 3.2959Q16.7871 3.84766 14.9707 3.84766ZM9.19922-7.05078Q9.19922-6.66992 9.45801-6.4209Q9.7168-6.17188 10.1172-6.17188L14.0625-6.17188L14.0625-2.2168Q14.0625-1.81641 14.3115-1.55762Q14.5605-1.29883 14.9512-1.29883Q15.3516-1.29883 15.6104-1.55273Q15.8691-1.80664 15.8691-2.2168L15.8691-6.17188L19.8242-6.17188Q20.2246-6.17188 20.4785-6.4209Q20.7324-6.66992 20.7324-7.05078Q20.7324-7.46094 20.4785-7.71484Q20.2246-7.96875 19.8242-7.96875L15.8691-7.96875L15.8691-11.9141Q15.8691-12.3242 15.6104-12.583Q15.3516-12.8418 14.9512-12.8418Q14.5605-12.8418 14.3115-12.583Q14.0625-12.3242 14.0625-11.9141L14.0625-7.96875L10.1172-7.96875Q9.70703-7.96875 9.45312-7.71484Q9.19922-7.46094 9.19922-7.05078Z"/>
  </g>
  <text style="stroke:none;fill:black;font-family:sans-serif;font-size:13;font-weight:bold;" transform="matrix(1 0 0 1 263 1953)">Design Variations</text>
  <text style="stroke:none;fill:black;font-family:sans-serif;font-size:13;" transform="matrix(1 0 0 1 263 1971)">Symbols are supported in up to nine weights and three scales.</text>
  <text style="stroke:none;fill:black;font-family:sans-serif;font-size:13;" transform="matrix(1 0 0 1 263 1989)">For optimal layout with text and other symbols, vertically align</text>
  <text style="stroke:none;fill:black;font-family:sans-serif;font-size:13;" transform="matrix(1 0 0 1 263 2007)">symbols with the adjacent text.</text>
  <line style="fill:none;stroke:#00AEEF;stroke-width:0.5;opacity:1.0;" x1="776" x2="776" y1="1919" y2="1933"/>
  <g transform="matrix(1 0 0 1 776 1933)">
   <path d="M3.31055 0.15625Q3.70117 0.15625 3.91602-0.00976562Q4.13086-0.175781 4.26758-0.585938L5.52734-4.0332L11.2891-4.0332L12.5488-0.585938Q12.6855-0.175781 12.9004-0.00976562Q13.1152 0.15625 13.4961 0.15625Q13.8867 0.15625 14.1162-0.0585938Q14.3457-0.273438 14.3457-0.644531Q14.3457-0.869141 14.2383-1.17188L9.6582-13.3691Q9.48242-13.8184 9.17969-14.043Q8.87695-14.2676 8.4082-14.2676Q7.5-14.2676 7.17773-13.3789L2.59766-1.16211Q2.49023-0.859375 2.49023-0.634766Q2.49023-0.263672 2.70996-0.0537109Q2.92969 0.15625 3.31055 0.15625ZM6.00586-5.51758L8.37891-12.0898L8.42773-12.0898L10.8008-5.51758Z"/>
  </g>
  <line style="fill:none;stroke:#00AEEF;stroke-width:0.5;opacity:1.0;" x1="793.197" x2="793.197" y1="1919" y2="1933"/>
  <text style="stroke:none;fill:black;font-family:sans-serif;font-size:13;font-weight:bold;" transform="matrix(1 0 0 1 776 1953)">Margins</text>
  <text style="stroke:none;fill:black;font-family:sans-serif;font-size:13;" transform="matrix(1 0 0 1 776 1971)">Leading and trailing margins on the left and right side of each symbol</text>
  <text style="stroke:none;fill:black;font-family:sans-serif;font-size:13;" transform="matrix(1 0 0 1 776 1989)">can be adjusted by modifying the x-location of the margin guidelines.</text>
  <text style="stroke:none;fill:black;font-family:sans-serif;font-size:13;" transform="matrix(1 0 0 1 776 2007)">Modifications are automatically applied proportionally to all</text>
  <text style="stroke:none;fill:black;font-family:sans-serif;font-size:13;" transform="matrix(1 0 0 1 776 2025)">scales and weights.</text>
  <g transform="matrix(1 0 0 1 1289 1933)">
   <path d="M2.8418 1.86523L4.54102 3.57422Q5.18555 4.22852 5.90332 4.17969Q6.62109 4.13086 7.31445 3.35938L18.0078-8.42773L17.041-9.4043L6.42578 2.27539Q6.16211 2.57812 5.89355 2.61719Q5.625 2.65625 5.27344 2.30469L4.10156 1.14258Q3.75 0.791016 3.79395 0.522461Q3.83789 0.253906 4.14062-0.0195312L15.6152-10.8203L14.6387-11.7871L3.04688-0.898438Q2.30469-0.214844 2.25098 0.498047Q2.19727 1.21094 2.8418 1.86523ZM9.25781-16.3281Q8.94531-16.0254 8.90625-15.6348Q8.86719-15.2441 9.04297-14.9512Q9.21875-14.6777 9.55566-14.541Q9.89258-14.4043 10.3809-14.5215Q11.4746-14.7754 12.5977-14.7314Q13.7207-14.6875 14.7949-13.9844L14.209-12.5293Q13.9551-11.9043 14.0674-11.4404Q14.1797-10.9766 14.5801-10.5664L16.875-8.25195Q17.2363-7.88086 17.5781-7.82227Q17.9199-7.76367 18.3398-7.8418L19.4043-8.03711L20.0684-7.36328L20.0293-6.80664Q20-6.43555 20.1221-6.12305Q20.2441-5.81055 20.6055-5.44922L21.3672-4.70703Q21.7285-4.3457 22.1533-4.33105Q22.5781-4.31641 22.9297-4.66797L25.8398-7.58789Q26.1914-7.93945 26.1816-8.35449Q26.1719-8.76953 25.8105-9.13086L25.0391-9.89258Q24.6875-10.2539 24.3799-10.3857Q24.0723-10.5176 23.7109-10.4883L23.1348-10.4395L22.4902-11.0742L22.7344-12.1973Q22.832-12.6172 22.6953-12.9834Q22.5586-13.3496 22.1191-13.7891L19.9219-15.9766Q18.6719-17.2168 17.2607-17.8369Q15.8496-18.457 14.4189-18.4814Q12.9883-18.5059 11.665-17.959Q10.3418-17.4121 9.25781-16.3281ZM10.752-15.957Q11.6602-16.6211 12.7002-16.9043Q13.7402-17.1875 14.8047-17.085Q15.8691-16.9824 16.8701-16.5137Q17.8711-16.0449 18.7012-15.2051L21.1328-12.793Q21.3086-12.6172 21.3525-12.4512Q21.3965-12.2852 21.3379-12.0312L21.0156-10.5469L22.5195-9.0625L23.5059-9.12109Q23.6914-9.13086 23.7891-9.09668Q23.8867-9.0625 24.0332-8.91602L24.6094-8.33984L22.168-5.89844L21.5918-6.47461Q21.4453-6.62109 21.4062-6.71875Q21.3672-6.81641 21.377-7.01172L21.4453-7.98828L19.9512-9.47266L18.4277-9.21875Q18.1836-9.16992 18.042-9.2041Q17.9004-9.23828 17.7148-9.41406L15.7129-11.416Q15.5176-11.5918 15.4932-11.7529Q15.4688-11.9141 15.5859-12.1875L16.4648-14.2773Q15.293-15.3711 13.8281-15.791Q12.3633-16.2109 10.8398-15.7617Q10.7227-15.7324 10.6885-15.8057Q10.6543-15.8789 10.752-15.957Z"/>
  </g>
  <text style="stroke:none;fill:black;font-family:sans-serif;font-size:13;font-weight:bold;" transform="matrix(1 0 0 1 1289 1953)">Exporting</text>
  <text style="stroke:none;fill:black;font-family:sans-serif;font-size:13;" transform="matrix(1 0 0 1 1289 1971)">Symbols should be outlined when exporting to ensure the</text>
  <text style="stroke:none;fill:black;font-family:sans-serif;font-size:13;" transform="matrix(1 0 0 1 1289 1989)">design is preserved when submitting to Xcode.</text>
  <text id="template-version" style="stroke:none;fill:black;font-family:sans-serif;font-size:13;text-anchor:end;" transform="matrix(1 0 0 1 3036 1933)">Template v.3.0</text>
  <text style="stroke:none;fill:black;font-family:sans-serif;font-size:13;text-anchor:end;" transform="matrix(1 0 0 1 3036 1951)">Requires Xcode 13 or greater</text>
  <text id="descriptive-name" style="stroke:none;fill:black;font-family:sans-serif;font-size:13;text-anchor:end;" transform="matrix(1 0 0 1 3036 1969)">Generated from user-plus</text>
  <text style="stroke:none;fill:black;font-family:sans-serif;font-size:13;text-anchor:end;" transform="matrix(1 0 0 1 3036 1987)">Typeset at 100 points</text>
  <text style="stroke:none;fill:black;font-family:sans-serif;font-size:13;" transform="matrix(1 0 0 1 263 726)">Small</text>
  <text style="stroke:none;fill:black;font-family:sans-serif;font-size:13;" transform="matrix(1 0 0 1 263 1156)">Medium</text>
  <text style="stroke:none;fill:black;font-family:sans-serif;font-size:13;" transform="matrix(1 0 0 1 263 1586)">Large</text>
 </g>
 <g id="Guides">
  <g id="H-reference" style="fill:#27AAE1;stroke:none;" transform="matrix(1 0 0 1 339 696)">
   <path d="M0.976562 0L3.66211 0L29.3457-67.1387L30.0293-67.1387L30.0293-70.459L28.125-70.459ZM11.6699-24.4629L46.9727-24.4629L46.2402-26.709L12.4512-26.709ZM55.127 0L57.7637 0L30.6152-70.459L29.4434-70.459L29.4434-67.1387Z"/>
  </g>
  <line id="Baseline-S" style="fill:none;stroke:#27AAE1;opacity:1;stroke-width:0.5;" x1="263" x2="3036" y1="696" y2="696"/>
  <line id="Capline-S" style="fill:none;stroke:#27AAE1;opacity:1;stroke-width:0.5;" x1="263" x2="3036" y1="625.541" y2="625.541"/>
  <g id="H-reference" style="fill:#27AAE1;stroke:none;" transform="matrix(1 0 0 1 339 1126)">
   <path d="M0.976562 0L3.66211 0L29.3457-67.1387L30.0293-67.1387L30.0293-70.459L28.125-70.459ZM11.6699-24.4629L46.9727-24.4629L46.2402-26.709L12.4512-26.709ZM55.127 0L57.7637 0L30.6152-70.459L29.4434-70.459L29.4434-67.1387Z"/>
  </g>
  <line id="Baseline-M" style="fill:none;stroke:#27AAE1;opacity:1;stroke-width:0.5;" x1="263" x2="3036" y1="1126" y2="1126"/>
  <line id="Capline-M" style="fill:none;stroke:#27AAE1;opacity:1;stroke-width:0.5;" x1="263" x2="3036" y1="1055.54" y2="1055.54"/>
  <g id="H-reference" style="fill:#27AAE1;stroke:none;" transform="matrix(1 0 0 1 339 1556)">
   <path d="M0.976562 0L3.66211 0L29.3457-67.1387L30.0293-67.1387L30.0293-70.459L28.125-70.459ZM11.6699-24.4629L46.9727-24.4629L46.2402-26.709L12.4512-26.709ZM55.127 0L57.7637 0L30.6152-70.459L29.4434-70.459L29.4434-67.1387Z"/>
  </g>
  <line id="Baseline-L" style="fill:none;stroke:#27AAE1;opacity:1;stroke-width:0.5;" x1="263" x2="3036" y1="1556" y2="1556"/>
  <line id="Capline-L" style="fill:none;stroke:#27AAE1;opacity:1;stroke-width:0.5;" x1="263" x2="3036" y1="1485.54" y2="1485.54"/>
  <line id="left-margin-Regular-M" style="fill:none;stroke:#00AEEF;stroke-width:0.5;opacity:1.0;" x1="1392.45" x2="1392.45" y1="1030.78" y2="1150.12"/>
  <line id="right-margin-Regular-M" style="fill:none;stroke:#00AEEF;stroke-width:0.5;opacity:1.0;" x1="1507.24" x2="1507.24" y1="1030.78" y2="1150.12"/>
 </g>
 <g id="Symbols">
  <g id="Black-L" transform="matrix(1 0 0 1 2858.94 1556)">
   <path class="hierarchical-0:primary SFSymbolsPreview212121" d="M95.96-40.92C95.96-44.84 99.14-48.02 103.06-48.02L137.18-48.02C141.1-48.02 144.28-44.84 144.28-40.92C144.28-37 141.1-33.82 137.18-33.82L103.06-33.82C99.14-33.82 95.96-37 95.96-40.92ZM120.12-65.08C124.04-65.08 127.22-61.9 127.22-57.98L127.22-23.86C127.22-19.94 124.04-16.76 120.12-16.76C116.2-16.76 113.02-19.94 113.02-23.86L113.02-57.98C113.02-61.9 116.2-65.08 120.12-65.08Z"/>
   <path class="hierarchical-1:secondary SFSymbolsPreview4D4D4D" d="M24.86-63.67C24.86-80.16 38.23-93.52 54.71-93.52C71.2-93.52 84.56-80.16 84.56-63.67C84.56-47.18 71.2-33.82 54.71-33.82C38.23-33.82 24.86-47.18 24.86-63.67ZM13.7-16.53C19.3-22.12 26.89-25.27 34.81-25.27L74.62-25.27C82.54-25.27 90.13-22.12 95.73-16.53C101.33-10.93 104.47-3.34 104.47 4.58L104.47 15.96C104.47 19.88 101.29 23.06 97.37 23.06C93.45 23.06 90.27 19.88 90.27 15.96L90.27 4.58C90.27 0.43 88.62-3.55 85.69-6.49C82.75-9.42 78.77-11.07 74.62-11.07L34.81-11.07C30.66-11.07 26.68-9.42 23.74-6.49C20.81-3.55 19.16 0.43 19.16 4.58L19.16 15.96C19.16 19.88 15.98 23.06 12.06 23.06C8.14 23.06 4.96 19.88 4.96 15.96L4.96 4.58C4.96-3.34 8.1-10.93 13.7-16.53ZM54.71-79.32C46.07-79.32 39.06-72.31 39.06-63.67C39.06-55.03 46.07-48.02 54.71-48.02C63.36-48.02 70.36-55.03 70.36-63.67C70.36-72.31 63.36-79.32 54.71-79.32Z"/>
  </g>
  <g id="Heavy-L" transform="matrix(1 0 0 1 2563.07 1556)">
   <path class="hierarchical-0:primary SFSymbolsPreview212121" d="M95.96-40.92C95.96-44.37 98.75-47.17 102.21-47.17L136.33-47.17C139.78-47.17 142.58-44.37 142.58-40.92C142.58-37.47 139.78-34.67 136.33-34.67L102.21-34.67C98.75-34.67 95.96-37.47 95.96-40.92ZM119.27-64.23C122.72-64.23 125.52-61.43 125.52-57.98L125.52-23.86C125.52-20.4 122.72-17.61 119.27-17.61C115.82-17.61 113.02-20.4 113.02-23.86L113.02-57.98C113.02-61.43 115.82-64.23 119.27-64.23Z"/>
   <path class="hierarchical-1:secondary SFSymbolsPreview4D4D4D" d="M24.86-63.67C24.86-79.68 37.85-92.67 53.86-92.67C69.88-92.67 82.86-79.68 82.86-63.67C82.86-47.65 69.88-34.67 53.86-34.67C37.85-34.67 24.86-47.65 24.86-63.67ZM13.45-15.92C18.89-21.36 26.26-24.42 33.96-24.42L73.77-24.42C81.46-24.42 88.84-21.36 94.27-15.92C99.71-10.49 102.77-3.11 102.77 4.58L102.77 15.96C102.77 19.41 99.97 22.21 96.52 22.21C93.07 22.21 90.27 19.41 90.27 15.96L90.27 4.58C90.27 0.21 88.53-3.99 85.44-7.09C82.34-10.18 78.14-11.92 73.77-11.92L33.96-11.92C29.58-11.92 25.38-10.18 22.29-7.09C19.19-3.99 17.46 0.21 17.46 4.58L17.46 15.96C17.46 19.41 14.66 22.21 11.21 22.21C7.75 22.21 4.96 19.41 4.96 15.96L4.96 4.58C4.96-3.11 8.01-10.49 13.45-15.92ZM53.86-80.17C44.75-80.17 37.36-72.78 37.36-63.67C37.36-54.56 44.75-47.17 53.86-47.17C62.97-47.17 70.36-54.56 70.36-63.67C70.36-72.78 62.97-80.17 53.86-80.17Z"/>
  </g>
  <g id="Bold-L" transform="matrix(1 0 0 1 2267.31 1556)">
   <path class="hierarchical-0:primary SFSymbolsPreview212121" d="M95.96-40.92C95.96-43.85 98.34-46.22 101.26-46.22L135.39-46.22C138.31-46.22 140.69-43.85 140.69-40.92C140.69-37.99 138.31-35.62 135.39-35.62L101.26-35.62C98.34-35.62 95.96-37.99 95.96-40.92ZM118.33-63.28C121.25-63.28 123.63-60.91 123.63-57.98L123.63-23.86C123.63-20.93 121.25-18.56 118.33-18.56C115.4-18.56 113.03-20.93 113.03-23.86L113.03-57.98C113.03-60.91 115.4-63.28 118.33-63.28Z"/>
   <path class="hierarchical-1:secondary SFSymbolsPreview4D4D4D" d="M24.87-63.67C24.87-79.16 37.43-91.72 52.92-91.72C68.41-91.72 80.97-79.16 80.97-63.67C80.97-48.18 68.41-35.62 52.92-35.62C37.43-35.62 24.87-48.18 24.87-63.67ZM13.18-15.25C18.44-20.51 25.57-23.47 33.01-23.47L72.83-23.47C80.26-23.47 87.4-20.51 92.66-15.25C97.92-9.99 100.88-2.86 100.88 4.58L100.88 15.96C100.88 18.88 98.5 21.26 95.58 21.26C92.65 21.26 90.28 18.88 90.28 15.96L90.28 4.58C90.28-0.05 88.44-4.49 85.16-7.76C81.89-11.03 77.45-12.87 72.83-12.87L33.01-12.87C28.38-12.87 23.95-11.03 20.67-7.76C17.4-4.49 15.56-0.05 15.56 4.58L15.56 15.96C15.56 18.88 13.19 21.26 10.26 21.26C7.34 21.26 4.96 18.88 4.96 15.96L4.96 4.58C4.96-2.86 7.92-9.99 13.18-15.25ZM52.92-81.12C43.28-81.12 35.47-73.31 35.47-63.67C35.47-54.03 43.28-46.22 52.92-46.22C62.56-46.22 70.37-54.03 70.37-63.67C70.37-73.31 62.56-81.12 52.92-81.12Z"/>
  </g>
  <g id="Semibold-L" transform="matrix(1 0 0 1 1971.25 1556)">
   <path class="hierarchical-0:primary SFSymbolsPreview212121" d="M95.96-40.92C95.96-43.48 98.04-45.57 100.61-45.57L134.73-45.57C137.3-45.57 139.38-43.48 139.38-40.92C139.38-38.35 137.3-36.27 134.73-36.27L100.61-36.27C98.04-36.27 95.96-38.35 95.96-40.92ZM117.67-62.63C120.24-62.63 122.32-60.55 122.32-57.98L122.32-23.85C122.32-21.29 120.24-19.2 117.67-19.2C115.1-19.2 113.02-21.29 113.02-23.85L113.02-57.98C113.02-60.55 115.1-62.63 117.67-62.63Z"/>
   <path class="hierarchical-1:secondary SFSymbolsPreview4D4D4D" d="M24.86-63.67C24.86-78.8 37.13-91.07 52.26-91.07C67.4-91.07 79.66-78.8 79.66-63.67C79.66-48.53 67.4-36.27 52.26-36.27C37.13-36.27 24.86-48.53 24.86-63.67ZM12.98-14.79C18.12-19.93 25.09-22.82 32.36-22.82L72.17-22.82C79.44-22.82 86.41-19.93 91.54-14.79C96.68-9.65 99.57-2.68 99.57 4.58L99.57 15.96C99.57 18.53 97.49 20.61 94.92 20.61C92.35 20.61 90.27 18.53 90.27 15.96L90.27 4.58C90.27-0.22 88.36-4.82 84.97-8.22C81.57-11.61 76.97-13.52 72.17-13.52L32.36-13.52C27.56-13.52 22.95-11.61 19.56-8.22C16.16-4.82 14.26-0.22 14.26 4.58L14.26 15.96C14.26 18.53 12.18 20.61 9.61 20.61C7.04 20.61 4.96 18.53 4.96 15.96L4.96 4.58C4.96-2.68 7.84-9.65 12.98-14.79ZM52.26-81.77C42.27-81.77 34.16-73.66 34.16-63.67C34.16-53.67 42.27-45.57 52.26-45.57C62.26-45.57 70.36-53.67 70.36-63.67C70.36-73.66 62.26-81.77 52.26-81.77Z"/>
  </g>
  <g id="Medium-L" transform="matrix(1 0 0 1 1675.04 1556)">
   <path class="hierarchical-0:primary SFSymbolsPreview212121" d="M95.96-40.92C95.96-43.21 97.82-45.07 100.11-45.07L134.23-45.07C136.52-45.07 138.38-43.21 138.38-40.92C138.38-38.62 136.52-36.77 134.23-36.77L100.11-36.77C97.82-36.77 95.96-38.62 95.96-40.92ZM117.17-62.13C119.46-62.13 121.32-60.27 121.32-57.98L121.32-23.85C121.32-21.56 119.46-19.7 117.17-19.7C114.88-19.7 113.02-21.56 113.02-23.85L113.02-57.98C113.02-60.27 114.88-62.13 117.17-62.13Z"/>
   <path class="hierarchical-1:secondary SFSymbolsPreview4D4D4D" d="M24.86-63.67C24.86-78.52 36.91-90.57 51.76-90.57C66.62-90.57 78.66-78.52 78.66-63.67C78.66-48.81 66.62-36.77 51.76-36.77C36.91-36.77 24.86-48.81 24.86-63.67ZM12.84-14.44C17.88-19.48 24.72-22.32 31.86-22.32L71.67-22.32C78.8-22.32 85.65-19.48 90.69-14.44C95.74-9.39 98.57-2.55 98.57 4.58L98.57 15.96C98.57 18.25 96.71 20.11 94.42 20.11C92.13 20.11 90.27 18.25 90.27 15.96L90.27 4.58C90.27-0.35 88.31-5.08 84.82-8.57C81.33-12.06 76.6-14.02 71.67-14.02L31.86-14.02C26.92-14.02 22.19-12.06 18.71-8.57C15.22-5.08 13.26-0.35 13.26 4.58L13.26 15.96C13.26 18.25 11.4 20.11 9.11 20.11C6.82 20.11 4.96 18.25 4.96 15.96L4.96 4.58C4.96-2.55 7.79-9.39 12.84-14.44ZM51.76-82.27C41.49-82.27 33.16-73.94 33.16-63.67C33.16-53.39 41.49-45.07 51.76-45.07C62.04-45.07 70.36-53.39 70.36-63.67C70.36-73.94 62.04-82.27 51.76-82.27Z"/>
  </g>
  <g id="Regular-L" transform="matrix(1 0 0 1 1378.98 1556)">
   <path class="hierarchical-0:primary SFSymbolsPreview212121" d="M95.96-40.92C95.96-42.85 97.52-44.42 99.46-44.42L133.58-44.42C135.52-44.42 137.08-42.85 137.08-40.92C137.08-38.98 135.52-37.42 133.58-37.42L99.46-37.42C97.52-37.42 95.96-38.98 95.96-40.92ZM116.52-61.48C118.45-61.48 120.02-59.91 120.02-57.98L120.02-23.86C120.02-21.92 118.45-20.36 116.52-20.36C114.59-20.36 113.02-21.92 113.02-23.86L113.02-57.98C113.02-59.91 114.59-61.48 116.52-61.48Z"/>
   <path class="hierarchical-1:secondary SFSymbolsPreview4D4D4D" d="M24.86-63.67C24.86-78.17 36.62-89.92 51.11-89.92C65.61-89.92 77.36-78.17 77.36-63.67C77.36-49.17 65.61-37.42 51.11-37.42C36.62-37.42 24.86-49.17 24.86-63.67ZM12.65-13.98C17.57-18.9 24.25-21.67 31.21-21.67L71.02-21.67C77.98-21.67 84.66-18.9 89.58-13.98C94.5-9.06 97.27-2.38 97.27 4.58L97.27 15.96C97.27 17.89 95.7 19.46 93.77 19.46C91.84 19.46 90.27 17.89 90.27 15.96L90.27 4.58C90.27-0.52 88.24-5.42 84.63-9.03C81.02-12.64 76.13-14.67 71.02-14.67L31.21-14.67C26.1-14.67 21.21-12.64 17.6-9.03C13.99-5.42 11.96-0.52 11.96 4.58L11.96 15.96C11.96 17.89 10.39 19.46 8.46 19.46C6.52 19.46 4.96 17.89 4.96 15.96L4.96 4.58C4.96-2.38 7.72-9.06 12.65-13.98ZM51.11-82.92C40.48-82.92 31.86-74.3 31.86-63.67C31.86-53.04 40.48-44.42 51.11-44.42C61.75-44.42 70.36-53.04 70.36-63.67C70.36-74.3 61.75-82.92 51.11-82.92Z"/>
  </g>
  <g id="Light-L" transform="matrix(1 0 0 1 1083.07 1556)">
   <path class="hierarchical-0:primary SFSymbolsPreview212121" d="M95.96-40.92C95.96-42.41 97.17-43.62 98.66-43.62L132.78-43.62C134.27-43.62 135.48-42.41 135.48-40.92C135.48-39.43 134.27-38.22 132.78-38.22L98.66-38.22C97.17-38.22 95.96-39.43 95.96-40.92ZM115.72-60.68C117.21-60.68 118.42-59.47 118.42-57.98L118.42-23.85C118.42-22.36 117.21-21.15 115.72-21.15C114.23-21.15 113.02-22.36 113.02-23.85L113.02-57.98C113.02-59.47 114.23-60.68 115.72-60.68Z"/>
   <path class="hierarchical-1:secondary SFSymbolsPreview4D4D4D" d="M24.86-63.67C24.86-77.72 36.26-89.12 50.31-89.12C64.37-89.12 75.76-77.72 75.76-63.67C75.76-49.61 64.37-38.22 50.31-38.22C36.26-38.22 24.86-49.61 24.86-63.67ZM12.41-13.41C17.18-18.19 23.66-20.87 30.41-20.87L70.22-20.87C76.97-20.87 83.44-18.19 88.22-13.41C92.99-8.64 95.67-2.17 95.67 4.58L95.67 15.96C95.67 17.45 94.46 18.66 92.97 18.66C91.48 18.66 90.27 17.45 90.27 15.96L90.27 4.58C90.27-0.73 88.16-5.83 84.4-9.59C80.64-13.35 75.54-15.47 70.22-15.47L30.41-15.47C25.09-15.47 19.99-13.35 16.23-9.59C12.47-5.83 10.36-0.73 10.36 4.58L10.36 15.96C10.36 17.45 9.15 18.66 7.66 18.66C6.17 18.66 4.96 17.45 4.96 15.96L4.96 4.58C4.96-2.17 7.64-8.64 12.41-13.41ZM50.31-83.72C39.24-83.72 30.26-74.74 30.26-63.67C30.26-52.59 39.24-43.62 50.31-43.62C61.39-43.62 70.36-52.59 70.36-63.67C70.36-74.74 61.39-83.72 50.31-83.72Z"/>
  </g>
  <g id="Thin-L" transform="matrix(1 0 0 1 787.405 1556)">
   <path class="hierarchical-0:primary SFSymbolsPreview212121" d="M95.96-40.92C95.96-41.83 96.698-42.57 97.61-42.57L131.735-42.57C132.646-42.57 133.385-41.83 133.385-40.92C133.385-40.01 132.646-39.27 131.735-39.27L97.61-39.27C96.698-39.27 95.96-40.01 95.96-40.92ZM114.672-59.63C115.583-59.63 116.322-58.89 116.322-57.98L116.322-23.85C116.322-22.94 115.583-22.2 114.672-22.2C113.761-22.2 113.022-22.94 113.022-23.85L113.022-57.98C113.022-58.89 113.761-59.63 114.672-59.63Z"/>
   <path class="hierarchical-1:secondary SFSymbolsPreview4D4D4D" d="M24.866-63.67C24.866-77.14 35.79-88.07 49.266-88.07C62.742-88.07 73.666-77.14 73.666-63.67C73.666-50.19 62.742-39.27 49.266-39.27C35.79-39.27 24.866-50.19 24.866-63.67ZM12.106-12.67C16.682-17.25 22.888-19.82 29.36-19.82L69.172-19.82C75.643-19.82 81.85-17.25 86.426-12.67C91.001-8.09 93.572-1.89 93.572 4.58L93.572 15.96C93.572 16.87 92.833 17.61 91.922 17.61C91.011 17.61 90.272 16.87 90.272 15.96L90.272 4.58C90.272-1.01 88.049-6.38 84.092-10.34C80.135-14.29 74.768-16.52 69.172-16.52L29.36-16.52C23.764-16.52 18.397-14.29 14.44-10.34C10.483-6.38 8.26-1.01 8.26 4.58L8.26 15.96C8.26 16.87 7.521 17.61 6.61 17.61C5.698 17.61 4.96 16.87 4.96 15.96L4.96 4.58C4.96-1.89 7.53-8.09 12.106-12.67ZM49.266-84.77C37.613-84.77 28.166-75.32 28.166-63.67C28.166-52.01 37.613-42.57 49.266-42.57C60.919-42.57 70.366-52.01 70.366-63.67C70.366-75.32 60.919-84.77 49.266-84.77Z"/>
  </g>
  <g id="Ultralight-L" transform="matrix(1 0 0 1 491.244 1556)">
   <path class="hierarchical-0:primary SFSymbolsPreview212121" d="M95.96-40.92C95.96-41.53 96.453-42.02 97.06-42.02L131.185-42.02C131.793-42.02 132.285-41.53 132.285-40.92C132.285-40.31 131.793-39.82 131.185-39.82L97.06-39.82C96.453-39.82 95.96-40.31 95.96-40.92ZM114.123-59.08C114.73-59.08 115.223-58.59 115.223-57.98L115.223-23.86C115.223-23.25 114.73-22.76 114.123-22.76C113.515-22.76 113.023-23.25 113.023-23.86L113.023-57.98C113.023-58.59 113.515-59.08 114.123-59.08Z"/>
   <path class="hierarchical-1:secondary SFSymbolsPreview4D4D4D" d="M24.867-63.67C24.867-76.84 35.545-87.52 48.717-87.52C61.889-87.52 72.567-76.84 72.567-63.67C72.567-50.5 61.889-39.82 48.717-39.82C35.545-39.82 24.867-50.5 24.867-63.67ZM11.946-12.28C16.419-16.76 22.485-19.27 28.81-19.27L68.623-19.27C74.948-19.27 81.015-16.76 85.487-12.28C89.96-7.81 92.473-1.74 92.473 4.58L92.473 15.96C92.473 16.56 91.98 17.06 91.373 17.06C90.765 17.06 90.273 16.56 90.273 15.96L90.273 4.58C90.273-1.16 87.992-6.67 83.932-10.73C79.872-14.79 74.365-17.07 68.623-17.07L28.81-17.07C23.068-17.07 17.562-14.79 13.502-10.73C9.441-6.67 7.16-1.16 7.16 4.58L7.16 15.96C7.16 16.56 6.668 17.06 6.06 17.06C5.453 17.06 4.96 16.56 4.96 15.96L4.96 4.58C4.96-1.74 7.473-7.81 11.946-12.28ZM48.717-85.32C36.76-85.32 27.067-75.63 27.067-63.67C27.067-51.71 36.76-42.02 48.717-42.02C60.674-42.02 70.367-51.71 70.367-63.67C70.367-75.63 60.674-85.32 48.717-85.32Z"/>
  </g>
  <g id="Black-M" transform="matrix(1 0 0 1 2872.41 1126)">
   <path class="hierarchical-0:primary SFSymbolsPreview212121" d="M76.36-39.69C76.36-43.61 79.54-46.79 83.46-46.79L110.23-46.79C114.15-46.79 117.33-43.61 117.33-39.69C117.33-35.77 114.15-32.59 110.23-32.59L83.46-32.59C79.54-32.59 76.36-35.77 76.36-39.69ZM96.84-60.18C100.77-60.18 103.94-57 103.94-53.08L103.94-26.3C103.94-22.38 100.77-19.2 96.84-19.2C92.92-19.2 89.74-22.38 89.74-26.3L89.74-53.08C89.74-57 92.92-60.18 96.84-60.18Z"/>
   <path class="hierarchical-1:secondary SFSymbolsPreview4D4D4D" d="M20.58-57.54C20.58-71.32 31.75-82.49 45.53-82.49C59.3-82.49 70.48-71.32 70.48-57.54C70.48-43.76 59.3-32.59 45.53-32.59C31.75-32.59 20.58-43.76 20.58-57.54ZM12.26-21.63C16.94-26.31 23.29-28.94 29.91-28.94L61.14-28.94C67.76-28.94 74.11-26.31 78.79-21.63C83.47-16.95 86.09-10.61 86.09-3.99L86.09 4.93C86.09 8.85 82.92 12.03 78.99 12.03C75.07 12.03 71.89 8.85 71.89 4.93L71.89-3.99C71.89-6.84 70.76-9.58 68.75-11.59C66.73-13.61 64-14.74 61.14-14.74L29.91-14.74C27.06-14.74 24.32-13.61 22.31-11.59C20.29-9.58 19.16-6.84 19.16-3.99L19.16 4.93C19.16 8.85 15.98 12.03 12.06 12.03C8.14 12.03 4.96 8.85 4.96 4.93L4.96-3.99C4.96-10.61 7.59-16.95 12.26-21.63ZM45.53-68.29C39.59-68.29 34.78-63.48 34.78-57.54C34.78-51.61 39.59-46.79 45.53-46.79C51.46-46.79 56.28-51.61 56.28-57.54C56.28-63.48 51.46-68.29 45.53-68.29Z"/>
  </g>
  <g id="Heavy-M" transform="matrix(1 0 0 1 2576.55 1126)">
   <path class="hierarchical-0:primary SFSymbolsPreview212121" d="M76.36-39.69C76.36-43.14 79.16-45.94 82.61-45.94L109.38-45.94C112.83-45.94 115.63-43.14 115.63-39.69C115.63-36.24 112.83-33.44 109.38-33.44L82.61-33.44C79.16-33.44 76.36-36.24 76.36-39.69ZM95.99-59.33C99.45-59.33 102.24-56.53 102.24-53.08L102.24-26.31C102.24-22.86 99.45-20.06 95.99-20.06C92.54-20.06 89.74-22.86 89.74-26.31L89.74-53.08C89.74-56.53 92.54-59.33 95.99-59.33Z"/>
   <path class="hierarchical-1:secondary SFSymbolsPreview4D4D4D" d="M20.58-57.54C20.58-70.85 31.37-81.64 44.68-81.64C57.99-81.64 68.78-70.85 68.78-57.54C68.78-44.23 57.99-33.44 44.68-33.44C31.37-33.44 20.58-44.23 20.58-57.54ZM12.02-21.04C16.54-25.55 22.67-28.09 29.06-28.09L60.29-28.09C66.69-28.09 72.82-25.55 77.34-21.04C81.86-16.52 84.39-10.39 84.39-3.99L84.39 4.93C84.39 8.38 81.6 11.18 78.14 11.18C74.69 11.18 71.89 8.38 71.89 4.93L71.89-3.99C71.89-7.07 70.67-10.02 68.5-12.2C66.32-14.37 63.37-15.59 60.29-15.59L29.06-15.59C25.98-15.59 23.03-14.37 20.85-12.2C18.68-10.02 17.46-7.07 17.46-3.99L17.46 4.93C17.46 8.38 14.66 11.18 11.21 11.18C7.76 11.18 4.96 8.38 4.96 4.93L4.96-3.99C4.96-10.39 7.5-16.52 12.02-21.04ZM44.68-69.14C38.27-69.14 33.08-63.95 33.08-57.54C33.08-51.14 38.27-45.94 44.68-45.94C51.08-45.94 56.28-51.14 56.28-57.54C56.28-63.95 51.08-69.14 44.68-69.14Z"/>
  </g>
  <g id="Bold-M" transform="matrix(1 0 0 1 2280.79 1126)">
   <path class="hierarchical-0:primary SFSymbolsPreview212121" d="M76.36-39.69C76.36-42.62 78.73-44.99 81.66-44.99L108.43-44.99C111.36-44.99 113.73-42.62 113.73-39.69C113.73-36.77 111.36-34.39 108.43-34.39L81.66-34.39C78.73-34.39 76.36-36.77 76.36-39.69ZM95.05-58.38C97.97-58.38 100.35-56.01 100.35-53.08L100.35-26.3C100.35-23.38 97.97-21 95.05-21C92.12-21 89.75-23.38 89.75-26.3L89.75-53.08C89.75-56.01 92.12-58.38 95.05-58.38Z"/>
   <path class="hierarchical-1:secondary SFSymbolsPreview4D4D4D" d="M20.58-57.54C20.58-70.33 30.94-80.69 43.73-80.69C56.51-80.69 66.88-70.33 66.88-57.54C66.88-44.76 56.51-34.39 43.73-34.39C30.94-34.39 20.58-44.76 20.58-57.54ZM11.74-20.36C16.08-24.71 21.97-27.14 28.11-27.14L59.34-27.14C65.48-27.14 71.37-24.71 75.71-20.36C80.06-16.02 82.49-10.13 82.49-3.99L82.49 4.93C82.49 7.86 80.12 10.23 77.19 10.23C74.27 10.23 71.89 7.86 71.89 4.93L71.89-3.99C71.89-7.32 70.57-10.52 68.22-12.87C65.87-15.22 62.67-16.54 59.34-16.54L28.11-16.54C24.78-16.54 21.59-15.22 19.23-12.87C16.88-10.52 15.56-7.32 15.56-3.99L15.56 4.93C15.56 7.86 13.18 10.23 10.26 10.23C7.33 10.23 4.96 7.86 4.96 4.93L4.96-3.99C4.96-10.13 7.4-16.02 11.74-20.36ZM43.73-70.09C36.8-70.09 31.18-64.47 31.18-57.54C31.18-50.61 36.8-44.99 43.73-44.99C50.66-44.99 56.28-50.61 56.28-57.54C56.28-64.47 50.66-70.09 43.73-70.09Z"/>
  </g>
  <g id="Semibold-M" transform="matrix(1 0 0 1 1984.72 1126)">
   <path class="hierarchical-0:primary SFSymbolsPreview212121" d="M76.36-39.69C76.36-42.26 78.44-44.34 81.01-44.34L107.79-44.34C110.36-44.34 112.44-42.26 112.44-39.69C112.44-37.13 110.36-35.04 107.79-35.04L81.01-35.04C78.44-35.04 76.36-37.13 76.36-39.69ZM94.4-57.73C96.97-57.73 99.05-55.65 99.05-53.08L99.05-26.31C99.05-23.74 96.97-21.66 94.4-21.66C91.83-21.66 89.75-23.74 89.75-26.31L89.75-53.08C89.75-55.65 91.83-57.73 94.4-57.73Z"/>
   <path class="hierarchical-1:secondary SFSymbolsPreview4D4D4D" d="M20.58-57.54C20.58-69.97 30.65-80.04 43.08-80.04C55.51-80.04 65.58-69.97 65.58-57.54C65.58-45.12 55.51-35.04 43.08-35.04C30.65-35.04 20.58-45.12 20.58-57.54ZM11.55-19.9C15.77-24.12 21.5-26.49 27.46-26.49L58.7-26.49C64.67-26.49 70.39-24.12 74.61-19.9C78.83-15.68 81.2-9.96 81.2-3.99L81.2 4.93C81.2 7.5 79.12 9.58 76.55 9.58C73.98 9.58 71.9 7.5 71.9 4.93L71.9-3.99C71.9-7.49 70.51-10.85 68.03-13.33C65.56-15.8 62.2-17.19 58.7-17.19L27.46-17.19C23.96-17.19 20.6-15.8 18.13-13.33C15.65-10.85 14.26-7.49 14.26-3.99L14.26 4.93C14.26 7.5 12.18 9.58 9.61 9.58C7.04 9.58 4.96 7.5 4.96 4.93L4.96-3.99C4.96-9.96 7.33-15.68 11.55-19.9ZM43.08-70.74C35.79-70.74 29.88-64.83 29.88-57.54C29.88-50.25 35.79-44.34 43.08-44.34C50.37-44.34 56.28-50.25 56.28-57.54C56.28-64.83 50.37-70.74 43.08-70.74Z"/>
  </g>
  <g id="Medium-M" transform="matrix(1 0 0 1 1688.51 1126)">
   <path class="hierarchical-0:primary SFSymbolsPreview212121" d="M76.36-39.69C76.36-41.99 78.22-43.84 80.51-43.84L107.29-43.84C109.58-43.84 111.44-41.99 111.44-39.69C111.44-37.4 109.58-35.54 107.29-35.54L80.51-35.54C78.22-35.54 76.36-37.4 76.36-39.69ZM93.9-57.23C96.19-57.23 98.05-55.37 98.05-53.08L98.05-26.31C98.05-24.01 96.19-22.16 93.9-22.16C91.61-22.16 89.75-24.01 89.75-26.31L89.75-53.08C89.75-55.37 91.61-57.23 93.9-57.23Z"/>
   <path class="hierarchical-1:secondary SFSymbolsPreview4D4D4D" d="M20.58-57.54C20.58-69.69 30.43-79.54 42.58-79.54C54.73-79.54 64.58-69.69 64.58-57.54C64.58-45.39 54.73-35.54 42.58-35.54C30.43-35.54 20.58-45.39 20.58-57.54ZM11.41-19.55C15.53-23.67 21.13-25.99 26.96-25.99L58.2-25.99C64.03-25.99 69.63-23.67 73.76-19.55C77.88-15.42 80.2-9.83 80.2-3.99L80.2 4.93C80.2 7.22 78.34 9.08 76.05 9.08C73.76 9.08 71.9 7.22 71.9 4.93L71.9-3.99C71.9-7.63 70.46-11.11 67.89-13.68C65.32-16.25 61.83-17.69 58.2-17.69L26.96-17.69C23.33-17.69 19.84-16.25 17.28-13.68C14.71-11.11 13.26-7.63 13.26-3.99L13.26 4.93C13.26 7.22 11.4 9.08 9.11 9.08C6.82 9.08 4.96 7.22 4.96 4.93L4.96-3.99C4.96-9.83 7.28-15.42 11.41-19.55ZM42.58-71.24C35.02-71.24 28.88-65.11 28.88-57.54C28.88-49.98 35.02-43.84 42.58-43.84C50.15-43.84 56.28-49.98 56.28-57.54C56.28-65.11 50.15-71.24 42.58-71.24Z"/>
  </g>
  <g id="Regular-M" transform="matrix(1 0 0 1 1392.45 1126)">
   <path class="hierarchical-0:primary SFSymbolsPreview212121" d="M76.36-39.69C76.36-41.62 77.93-43.19 79.86-43.19L106.64-43.19C108.57-43.19 110.14-41.62 110.14-39.69C110.14-37.76 108.57-36.19 106.64-36.19L79.86-36.19C77.93-36.19 76.36-37.76 76.36-39.69ZM93.25-56.58C95.18-56.58 96.75-55.02 96.75-53.08L96.75-26.31C96.75-24.37 95.18-22.81 93.25-22.81C91.32-22.81 89.75-24.37 89.75-26.31L89.75-53.08C89.75-55.02 91.32-56.58 93.25-56.58Z"/>
   <path class="hierarchical-1:secondary SFSymbolsPreview4D4D4D" d="M20.58-57.54C20.58-69.34 30.14-78.89 41.93-78.89C53.72-78.89 63.28-69.34 63.28-57.54C63.28-45.75 53.72-36.19 41.93-36.19C30.14-36.19 20.58-45.75 20.58-57.54ZM11.22-19.09C15.22-23.09 20.65-25.34 26.31-25.34L57.55-25.34C63.21-25.34 68.64-23.09 72.65-19.09C76.65-15.09 78.9-9.66 78.9-3.99L78.9 4.93C78.9 6.86 77.33 8.43 75.4 8.43C73.47 8.43 71.9 6.86 71.9 4.93L71.9-3.99C71.9-7.8 70.39-11.45 67.7-14.14C65.01-16.83 61.36-18.34 57.55-18.34L26.31-18.34C22.51-18.34 18.86-16.83 16.17-14.14C13.47-11.45 11.96-7.8 11.96-3.99L11.96 4.93C11.96 6.86 10.4 8.43 8.46 8.43C6.53 8.43 4.96 6.86 4.96 4.93L4.96-3.99C4.96-9.66 7.21-15.09 11.22-19.09ZM41.93-71.89C34.01-71.89 27.58-65.47 27.58-57.54C27.58-49.62 34.01-43.19 41.93-43.19C49.86-43.19 56.28-49.62 56.28-57.54C56.28-65.47 49.86-71.89 41.93-71.89Z"/>
  </g>
  <g id="Light-M" transform="matrix(1 0 0 1 1096.54 1126)">
   <path class="hierarchical-0:primary SFSymbolsPreview212121" d="M76.36-39.69C76.36-41.19 77.57-42.39 79.06-42.39L105.84-42.39C107.33-42.39 108.54-41.19 108.54-39.69C108.54-38.2 107.33-36.99 105.84-36.99L79.06-36.99C77.57-36.99 76.36-38.2 76.36-39.69ZM92.45-55.78C93.94-55.78 95.15-54.57 95.15-53.08L95.15-26.31C95.15-24.82 93.94-23.61 92.45-23.61C90.96-23.61 89.75-24.82 89.75-26.31L89.75-53.08C89.75-54.57 90.96-55.78 92.45-55.78Z"/>
   <path class="hierarchical-1:secondary SFSymbolsPreview4D4D4D" d="M20.58-57.54C20.58-68.89 29.78-78.09 41.13-78.09C52.48-78.09 61.68-68.89 61.68-57.54C61.68-46.19 52.48-36.99 41.13-36.99C29.78-36.99 20.58-46.19 20.58-57.54ZM10.98-18.52C14.84-22.38 20.06-24.54 25.51-24.54L56.75-24.54C62.2-24.54 67.43-22.38 71.28-18.52C75.13-14.67 77.3-9.44 77.3-3.99L77.3 4.93C77.3 6.42 76.09 7.63 74.6 7.63C73.11 7.63 71.9 6.42 71.9 4.93L71.9-3.99C71.9-8.01 70.3-11.86 67.46-14.71C64.62-17.55 60.77-19.14 56.75-19.14L25.51-19.14C21.49-19.14 17.64-17.55 14.8-14.71C11.96-11.86 10.36-8.01 10.36-3.99L10.36 4.93C10.36 6.42 9.15 7.63 7.66 7.63C6.17 7.63 4.96 6.42 4.96 4.93L4.96-3.99C4.96-9.44 7.13-14.67 10.98-18.52ZM41.13-72.69C32.76-72.69 25.98-65.91 25.98-57.54C25.98-49.18 32.76-42.39 41.13-42.39C49.5-42.39 56.28-49.18 56.28-57.54C56.28-65.91 49.5-72.69 41.13-72.69Z"/>
  </g>
  <g id="Thin-M" transform="matrix(1 0 0 1 800.88 1126)">
   <path class="hierarchical-0:primary SFSymbolsPreview212121" d="M76.36-39.69C76.36-40.61 77.098-41.34 78.01-41.34L104.785-41.34C105.696-41.34 106.435-40.61 106.435-39.69C106.435-38.78 105.696-38.04 104.785-38.04L78.01-38.04C77.098-38.04 76.36-38.78 76.36-39.69ZM91.397-54.73C92.308-54.73 93.047-53.99 93.047-53.08L93.047-26.31C93.047-25.39 92.308-24.66 91.397-24.66C90.486-24.66 89.747-25.39 89.747-26.31L89.747-53.08C89.747-53.99 90.486-54.73 91.397-54.73Z"/>
   <path class="hierarchical-1:secondary SFSymbolsPreview4D4D4D" d="M20.578-57.54C20.578-68.31 29.309-77.04 40.078-77.04C50.848-77.04 59.578-68.31 59.578-57.54C59.578-46.77 50.848-38.04 40.078-38.04C29.309-38.04 20.578-46.77 20.578-57.54ZM10.671-17.78C14.328-21.44 19.288-23.49 24.46-23.49L55.697-23.49C60.869-23.49 65.829-21.44 69.486-17.78C73.143-14.12 75.197-9.16 75.197-3.99L75.197 4.93C75.197 5.84 74.458 6.58 73.547 6.58C72.636 6.58 71.897 5.84 71.897 4.93L71.897-3.99C71.897-8.29 70.19-12.41 67.152-15.45C64.114-18.49 59.994-20.19 55.697-20.19L24.46-20.19C20.163-20.19 16.043-18.49 13.005-15.45C9.966-12.41 8.26-8.29 8.26-3.99L8.26 4.93C8.26 5.84 7.521 6.58 6.61 6.58C5.698 6.58 4.96 5.84 4.96 4.93L4.96-3.99C4.96-9.16 7.014-14.12 10.671-17.78ZM40.078-73.74C31.131-73.74 23.878-66.49 23.878-57.54C23.878-48.6 31.131-41.34 40.078-41.34C49.025-41.34 56.278-48.6 56.278-57.54C56.278-66.49 49.025-73.74 40.078-73.74Z"/>
  </g>
  <g id="Ultralight-M" transform="matrix(1 0 0 1 504.719 1126)">
   <path class="hierarchical-0:primary SFSymbolsPreview212121" d="M76.36-39.69C76.36-40.3 76.853-40.79 77.46-40.79L104.235-40.79C104.843-40.79 105.335-40.3 105.335-39.69C105.335-39.09 104.843-38.59 104.235-38.59L77.46-38.59C76.853-38.59 76.36-39.09 76.36-39.69ZM90.848-54.18C91.456-54.18 91.948-53.69 91.948-53.08L91.948-26.3C91.948-25.7 91.456-25.2 90.848-25.2C90.241-25.2 89.748-25.7 89.748-26.3L89.748-53.08C89.748-53.69 90.241-54.18 90.848-54.18Z"/>
   <path class="hierarchical-1:secondary SFSymbolsPreview4D4D4D" d="M20.579-57.54C20.579-68.01 29.063-76.49 39.529-76.49C49.995-76.49 58.479-68.01 58.479-57.54C58.479-47.08 49.995-38.59 39.529-38.59C29.063-38.59 20.579-47.08 20.579-57.54ZM10.511-17.39C14.065-20.94 18.885-22.94 23.911-22.94L55.148-22.94C60.174-22.94 64.994-20.94 68.548-17.39C72.101-13.84 74.098-9.02 74.098-3.99L74.098 4.93C74.098 5.54 73.606 6.03 72.998 6.03C72.39 6.03 71.898 5.54 71.898 4.93L71.898-3.99C71.898-8.43 70.133-12.69 66.992-15.84C63.851-18.98 59.59-20.74 55.148-20.74L23.911-20.74C19.468-20.74 15.208-18.98 12.066-15.84C8.925-12.69 7.161-8.43 7.161-3.99L7.161 4.93C7.161 5.54 6.668 6.03 6.061 6.03C5.453 6.03 4.96 5.54 4.96 4.93L4.96-3.99C4.96-9.02 6.957-13.84 10.511-17.39ZM39.529-74.29C30.278-74.29 22.779-66.79 22.779-57.54C22.779-48.29 30.278-40.79 39.529-40.79C48.78-40.79 56.279-48.29 56.279-57.54C56.279-66.79 48.78-74.29 39.529-74.29Z"/>
  </g>
  <g id="Black-S" transform="matrix(1 0 0 1 2883 696)">
   <path class="hierarchical-0:primary SFSymbolsPreview212121" d="M60.96-38.834C60.96-42.755 64.14-45.934 68.06-45.934L89.06-45.934C92.98-45.934 96.16-42.755 96.16-38.834C96.16-34.912 92.98-31.734 89.06-31.734L68.06-31.734C64.14-31.734 60.96-34.912 60.96-38.834ZM78.56-56.434C82.48-56.434 85.66-53.255 85.66-49.334L85.66-28.334C85.66-24.412 82.48-21.234 78.56-21.234C74.64-21.234 71.46-24.412 71.46-28.334L71.46-49.334C71.46-53.255 74.64-56.434 78.56-56.434Z"/>
   <path class="hierarchical-1:secondary SFSymbolsPreview4D4D4D" d="M17.21-52.834C17.21-64.487 26.66-73.934 38.31-73.934C49.96-73.934 59.41-64.487 59.41-52.834C59.41-41.18 49.96-31.734 38.31-31.734C26.66-31.734 17.21-41.18 17.21-52.834ZM11.14-25.754C15.1-29.711 20.46-31.934 26.06-31.934L50.56-31.934C56.16-31.934 61.52-29.711 65.48-25.754C69.44-21.797 71.66-16.43 71.66-10.834L71.66-3.834C71.66 0.088 68.48 3.266 64.56 3.266C60.64 3.266 57.46 0.088 57.46-3.834L57.46-10.834C57.46-12.664 56.73-14.419 55.44-15.713C54.15-17.007 52.39-17.734 50.56-17.734L26.06-17.734C24.23-17.734 22.48-17.007 21.18-15.713C19.89-14.419 19.16-12.664 19.16-10.834L19.16-3.834C19.16 0.088 15.98 3.266 12.06 3.266C8.14 3.266 4.96 0.088 4.96-3.834L4.96-10.834C4.96-16.43 7.18-21.797 11.14-25.754ZM38.31-59.734C34.5-59.734 31.41-56.644 31.41-52.834C31.41-49.023 34.5-45.934 38.31-45.934C42.12-45.934 45.21-49.023 45.21-52.834C45.21-56.644 42.12-59.734 38.31-59.734Z"/>
  </g>
  <g id="Heavy-S" transform="matrix(1 0 0 1 2587.13 696)">
   <path class="hierarchical-0:primary SFSymbolsPreview212121" d="M60.96-38.832C60.96-42.284 63.76-45.082 67.21-45.082L88.21-45.082C91.66-45.082 94.46-42.284 94.46-38.832C94.46-35.38 91.66-32.582 88.21-32.582L67.21-32.582C63.76-32.582 60.96-35.38 60.96-38.832ZM77.71-55.582C81.16-55.582 83.96-52.784 83.96-49.332L83.96-28.332C83.96-24.88 81.16-22.082 77.71-22.082C74.26-22.082 71.46-24.88 71.46-28.332L71.46-49.332C71.46-52.784 74.26-55.582 77.71-55.582Z"/>
   <path class="hierarchical-1:secondary SFSymbolsPreview4D4D4D" d="M17.21-52.832C17.21-64.016 26.28-73.082 37.46-73.082C48.64-73.082 57.71-64.016 57.71-52.832C57.71-41.648 48.64-32.582 37.46-32.582C26.28-32.582 17.21-41.648 17.21-52.832ZM10.89-25.151C14.69-28.949 19.84-31.082 25.21-31.082L49.71-31.082C55.08-31.082 60.23-28.949 64.03-25.151C67.83-21.353 69.96-16.203 69.96-10.832L69.96-3.832C69.96-0.38 67.16 2.418 63.71 2.418C60.26 2.418 57.46-0.38 57.46-3.832L57.46-10.832C57.46-12.887 56.64-14.859 55.19-16.312C53.74-17.766 51.77-18.582 49.71-18.582L25.21-18.582C23.16-18.582 21.18-17.766 19.73-16.312C18.28-14.859 17.46-12.887 17.46-10.832L17.46-3.832C17.46-0.38 14.66 2.418 11.21 2.418C7.76 2.418 4.96-0.38 4.96-3.832L4.96-10.832C4.96-16.203 7.09-21.353 10.89-25.151ZM37.46-60.582C33.18-60.582 29.71-57.112 29.71-52.832C29.71-48.552 33.18-45.082 37.46-45.082C41.74-45.082 45.21-48.552 45.21-52.832C45.21-57.112 41.74-60.582 37.46-60.582Z"/>
  </g>
  <g id="Bold-S" transform="matrix(1 0 0 1 2291.37 696)">
   <path class="hierarchical-0:primary SFSymbolsPreview212121" d="M60.96-38.626C60.96-41.553 63.33-43.926 66.26-43.926L87.26-43.926C90.18-43.926 92.56-41.553 92.56-38.626C92.56-35.699 90.18-33.326 87.26-33.326L66.26-33.326C63.33-33.326 60.96-35.699 60.96-38.626ZM76.76-54.426C79.68-54.426 82.06-52.053 82.06-49.126L82.06-28.126C82.06-25.199 79.68-22.826 76.76-22.826C73.83-22.826 71.46-25.199 71.46-28.126L71.46-49.126C71.46-52.053 73.83-54.426 76.76-54.426Z"/>
   <path class="hierarchical-1:secondary SFSymbolsPreview4D4D4D" d="M17.21-52.626C17.21-63.285 25.85-71.926 36.51-71.926C47.16-71.926 55.81-63.285 55.81-52.626C55.81-41.967 47.16-33.326 36.51-33.326C25.85-33.326 17.21-41.967 17.21-52.626ZM10.61-24.273C14.23-27.892 19.14-29.926 24.26-29.926L48.76-29.926C53.87-29.926 58.78-27.892 62.4-24.273C66.02-20.653 68.06-15.744 68.06-10.626L68.06-3.626C68.06-0.699 65.68 1.674 62.76 1.674C59.83 1.674 57.46-0.699 57.46-3.626L57.46-10.626C57.46-12.933 56.54-15.146 54.91-16.778C53.28-18.409 51.06-19.326 48.76-19.326L24.26-19.326C21.95-19.326 19.74-18.409 18.1-16.778C16.47-15.146 15.56-12.933 15.56-10.626L15.56-3.626C15.56-0.699 13.18 1.674 10.26 1.674C7.33 1.674 4.96-0.699 4.96-3.626L4.96-10.626C4.96-15.744 6.99-20.653 10.61-24.273ZM36.51-61.326C31.7-61.326 27.81-57.431 27.81-52.626C27.81-47.821 31.7-43.926 36.51-43.926C41.31-43.926 45.21-47.821 45.21-52.626C45.21-57.431 41.31-61.326 36.51-61.326Z"/>
  </g>
  <g id="Semibold-S" transform="matrix(1 0 0 1 1995.31 696)">
   <path class="hierarchical-0:primary SFSymbolsPreview212121" d="M60.96-38.623C60.96-41.192 63.04-43.273 65.61-43.273L86.61-43.273C89.18-43.273 91.26-41.192 91.26-38.623C91.26-36.055 89.18-33.973 86.61-33.973L65.61-33.973C63.04-33.973 60.96-36.055 60.96-38.623ZM76.11-53.773C78.68-53.773 80.76-51.692 80.76-49.123L80.76-28.123C80.76-25.555 78.68-23.473 76.11-23.473C73.54-23.473 71.46-25.555 71.46-28.123L71.46-49.123C71.46-51.692 73.54-53.773 76.11-53.773Z"/>
   <path class="hierarchical-1:secondary SFSymbolsPreview4D4D4D" d="M17.21-52.623C17.21-62.924 25.56-71.273 35.86-71.273C46.16-71.273 54.51-62.924 54.51-52.623C54.51-42.323 46.16-33.973 35.86-33.973C25.56-33.973 17.21-42.323 17.21-52.623ZM10.42-23.811C13.92-27.309 18.66-29.273 23.61-29.273L48.11-29.273C53.06-29.273 57.8-27.309 61.3-23.811C64.8-20.313 66.76-15.57 66.76-10.623L66.76-3.623C66.76-1.055 64.68 1.027 62.11 1.027C59.54 1.027 57.46-1.055 57.46-3.623L57.46-10.623C57.46-13.103 56.48-15.481 54.72-17.235C52.97-18.988 50.59-19.973 48.11-19.973L23.61-19.973C21.13-19.973 18.75-18.988 17-17.235C15.25-15.481 14.26-13.103 14.26-10.623L14.26-3.623C14.26-1.055 12.18 1.027 9.61 1.027C7.04 1.027 4.96-1.055 4.96-3.623L4.96-10.623C4.96-15.57 6.93-20.313 10.42-23.811ZM35.86-61.973C30.7-61.973 26.51-57.787 26.51-52.623C26.51-47.46 30.7-43.273 35.86-43.273C41.02-43.273 45.21-47.46 45.21-52.623C45.21-57.787 41.02-61.973 35.86-61.973Z"/>
  </g>
  <g id="Medium-S" transform="matrix(1 0 0 1 1699.1 696)">
   <path class="hierarchical-0:primary SFSymbolsPreview212121" d="M60.96-38.623C60.96-40.915 62.82-42.773 65.11-42.773L86.11-42.773C88.4-42.773 90.26-40.915 90.26-38.623C90.26-36.331 88.4-34.473 86.11-34.473L65.11-34.473C62.82-34.473 60.96-36.331 60.96-38.623ZM75.61-53.273C77.9-53.273 79.76-51.415 79.76-49.123L79.76-28.123C79.76-25.831 77.9-23.973 75.61-23.973C73.32-23.973 71.46-25.831 71.46-28.123L71.46-49.123C71.46-51.415 73.32-53.273 75.61-53.273Z"/>
   <path class="hierarchical-1:secondary SFSymbolsPreview4D4D4D" d="M17.21-52.623C17.21-62.647 25.34-70.773 35.36-70.773C45.38-70.773 53.51-62.647 53.51-52.623C53.51-42.599 45.38-34.473 35.36-34.473C25.34-34.473 17.21-42.599 17.21-52.623ZM10.28-23.457C13.68-26.861 18.3-28.773 23.11-28.773L47.61-28.773C52.42-28.773 57.04-26.861 60.44-23.457C63.85-20.054 65.76-15.437 65.76-10.623L65.76-3.623C65.76-1.331 63.9 0.527 61.61 0.527C59.32 0.527 57.46-1.331 57.46-3.623L57.46-10.623C57.46-13.236 56.42-15.741 54.58-17.588C52.73-19.436 50.22-20.473 47.61-20.473L23.11-20.473C20.5-20.473 17.99-19.436 16.15-17.588C14.3-15.741 13.26-13.236 13.26-10.623L13.26-3.623C13.26-1.331 11.4 0.527 9.11 0.527C6.82 0.527 4.96-1.331 4.96-3.623L4.96-10.623C4.96-15.437 6.87-20.054 10.28-23.457ZM35.36-62.473C29.92-62.473 25.51-58.063 25.51-52.623C25.51-47.183 29.92-42.773 35.36-42.773C40.8-42.773 45.21-47.183 45.21-52.623C45.21-58.063 40.8-62.473 35.36-62.473Z"/>
  </g>
  <g id="Regular-S" transform="matrix(1 0 0 1 1403.04 696)">
   <path class="hierarchical-0:primary SFSymbolsPreview212121" d="M60.96-38.625C60.96-40.558 62.53-42.125 64.46-42.125L85.46-42.125C87.39-42.125 88.96-40.558 88.96-38.625C88.96-36.692 87.39-35.125 85.46-35.125L64.46-35.125C62.53-35.125 60.96-36.692 60.96-38.625ZM74.96-52.625C76.89-52.625 78.46-51.058 78.46-49.125L78.46-28.125C78.46-26.192 76.89-24.625 74.96-24.625C73.03-24.625 71.46-26.192 71.46-28.125L71.46-49.125C71.46-51.058 73.03-52.625 74.96-52.625Z"/>
   <path class="hierarchical-1:secondary SFSymbolsPreview4D4D4D" d="M17.21-52.625C17.21-62.29 25.05-70.125 34.71-70.125C44.37-70.125 52.21-62.29 52.21-52.625C52.21-42.96 44.37-35.125 34.71-35.125C25.05-35.125 17.21-42.96 17.21-52.625ZM10.09-22.999C13.37-26.281 17.82-28.125 22.46-28.125L46.96-28.125C51.6-28.125 56.05-26.281 59.33-22.999C62.62-19.717 64.46-15.266 64.46-10.625L64.46-3.625C64.46-1.692 62.89-0.125 60.96-0.125C59.03-0.125 57.46-1.692 57.46-3.625L57.46-10.625C57.46-13.41 56.35-16.08 54.38-18.05C52.42-20.019 49.74-21.125 46.96-21.125L22.46-21.125C19.68-21.125 17-20.019 15.04-18.05C13.07-16.08 11.96-13.41 11.96-10.625L11.96-3.625C11.96-1.692 10.39-0.125 8.46-0.125C6.53-0.125 4.96-1.692 4.96-3.625L4.96-10.625C4.96-15.266 6.8-19.717 10.09-22.999ZM34.71-63.125C28.91-63.125 24.21-58.424 24.21-52.625C24.21-46.826 28.91-42.125 34.71-42.125C40.51-42.125 45.21-46.826 45.21-52.625C45.21-58.424 40.51-63.125 34.71-63.125Z"/>
  </g>
  <g id="Light-S" transform="matrix(1 0 0 1 1107.13 696)">
   <path class="hierarchical-0:primary SFSymbolsPreview212121" d="M60.96-38.624C60.96-40.115 62.17-41.324 63.66-41.324L84.66-41.324C86.15-41.324 87.36-40.115 87.36-38.624C87.36-37.133 86.15-35.924 84.66-35.924L63.66-35.924C62.17-35.924 60.96-37.133 60.96-38.624ZM74.16-51.824C75.65-51.824 76.86-50.615 76.86-49.124L76.86-28.124C76.86-26.633 75.65-25.424 74.16-25.424C72.67-25.424 71.46-26.633 71.46-28.124L71.46-49.124C71.46-50.615 72.67-51.824 74.16-51.824Z"/>
   <path class="hierarchical-1:secondary SFSymbolsPreview4D4D4D" d="M17.21-52.624C17.21-61.847 24.69-69.324 33.91-69.324C43.13-69.324 50.61-61.847 50.61-52.624C50.61-43.401 43.13-35.924 33.91-35.924C24.69-35.924 17.21-43.401 17.21-52.624ZM9.85-22.433C12.98-25.565 17.23-27.324 21.66-27.324L46.16-27.324C50.59-27.324 54.84-25.565 57.97-22.433C61.1-19.301 62.86-15.053 62.86-10.624L62.86-3.624C62.86-2.133 61.65-0.924 60.16-0.924C58.67-0.924 57.46-2.133 57.46-3.624L57.46-10.624C57.46-13.621 56.27-16.495 54.15-18.615C52.03-20.734 49.16-21.924 46.16-21.924L21.66-21.924C18.66-21.924 15.79-20.734 13.67-18.615C11.55-16.495 10.36-13.621 10.36-10.624L10.36-3.624C10.36-2.133 9.15-0.924 7.66-0.924C6.17-0.924 4.96-2.133 4.96-3.624L4.96-10.624C4.96-15.053 6.72-19.301 9.85-22.433ZM33.91-63.924C27.67-63.924 22.61-58.865 22.61-52.624C22.61-46.383 27.67-41.324 33.91-41.324C40.15-41.324 45.21-46.383 45.21-52.624C45.21-58.865 40.15-63.924 33.91-63.924Z"/>
  </g>
  <g id="Thin-S" transform="matrix(1 0 0 1 811.467 696)">
   <path class="hierarchical-0:primary SFSymbolsPreview212121" d="M60.96-38.623C60.96-39.535 61.699-40.273 62.61-40.273L83.61-40.273C84.521-40.273 85.26-39.535 85.26-38.623C85.26-37.712 84.521-36.973 83.61-36.973L62.61-36.973C61.699-36.973 60.96-37.712 60.96-38.623ZM73.11-50.773C74.021-50.773 74.76-50.035 74.76-49.123L74.76-28.123C74.76-27.212 74.021-26.473 73.11-26.473C72.199-26.473 71.46-27.212 71.46-28.123L71.46-49.123C71.46-50.035 72.199-50.773 73.11-50.773Z"/>
   <path class="hierarchical-1:secondary SFSymbolsPreview4D4D4D" d="M17.21-52.623C17.21-61.267 24.217-68.273 32.86-68.273C41.503-68.273 48.51-61.267 48.51-52.623C48.51-43.98 41.503-36.973 32.86-36.973C24.217-36.973 17.21-43.98 17.21-52.623ZM9.544-21.69C12.479-24.625 16.459-26.273 20.61-26.273L45.11-26.273C49.261-26.273 53.241-24.625 56.176-21.69C59.111-18.755 60.76-14.774 60.76-10.623L60.76-3.623C60.76-2.712 60.021-1.973 59.11-1.973C58.199-1.973 57.46-2.712 57.46-3.623L57.46-10.623C57.46-13.899 56.159-17.04 53.843-19.356C51.527-21.672 48.386-22.973 45.11-22.973L20.61-22.973C17.335-22.973 14.193-21.672 11.877-19.356C9.561-17.04 8.26-13.899 8.26-10.623L8.26-3.623C8.26-2.712 7.521-1.973 6.61-1.973C5.699-1.973 4.96-2.712 4.96-3.623L4.96-10.623C4.96-14.774 6.609-18.755 9.544-21.69ZM32.86-64.973C26.039-64.973 20.51-59.444 20.51-52.623C20.51-45.803 26.039-40.273 32.86-40.273C39.681-40.273 45.21-45.803 45.21-52.623C45.21-59.444 39.681-64.973 32.86-64.973Z"/>
  </g>
  <g id="Ultralight-S" transform="matrix(1 0 0 1 515.306 696)">
   <path class="hierarchical-0:primary SFSymbolsPreview212121" d="M60.96-38.627C60.96-39.234 61.452-39.727 62.06-39.727L83.06-39.727C83.667-39.727 84.16-39.234 84.16-38.627C84.16-38.019 83.667-37.527 83.06-37.527L62.06-37.527C61.452-37.527 60.96-38.019 60.96-38.627ZM72.56-50.227C73.167-50.227 73.66-49.734 73.66-49.127L73.66-28.127C73.66-27.519 73.167-27.027 72.56-27.027C71.952-27.027 71.46-27.519 71.46-28.127L71.46-49.127C71.46-49.734 71.952-50.227 72.56-50.227Z"/>
   <path class="hierarchical-1:secondary SFSymbolsPreview4D4D4D" d="M17.21-52.627C17.21-60.966 23.97-67.727 32.31-67.727C40.649-67.727 47.41-60.966 47.41-52.627C47.41-44.287 40.649-37.527 32.31-37.527C23.97-37.527 17.21-44.287 17.21-52.627ZM9.383-21.304C12.214-24.136 16.055-25.727 20.06-25.727L44.56-25.727C48.565-25.727 52.405-24.136 55.237-21.304C58.069-18.472 59.66-14.631 59.66-10.627L59.66-3.627C59.66-3.019 59.167-2.527 58.56-2.527C57.952-2.527 57.46-3.019 57.46-3.627L57.46-10.627C57.46-14.048 56.101-17.329 53.682-19.748C51.262-22.167 47.981-23.527 44.56-23.527L20.06-23.527C16.639-23.527 13.357-22.167 10.938-19.748C8.519-17.329 7.16-14.048 7.16-10.627L7.16-3.627C7.16-3.019 6.667-2.527 6.06-2.527C5.452-2.527 4.96-3.019 4.96-3.627L4.96-10.627C4.96-14.631 6.551-18.472 9.383-21.304ZM32.31-65.527C25.185-65.527 19.41-59.751 19.41-52.627C19.41-45.502 25.185-39.727 32.31-39.727C39.434-39.727 45.21-45.502 45.21-52.627C45.21-59.751 39.434-65.527 32.31-65.527Z"/>
  </g>
 </g>
</svg>
