<?xml version="1.0" encoding="UTF-8"?>
<!--Generator: Apple Native CoreSVG 175-->
<!DOCTYPE svg
PUBLIC "-//W3C//DTD SVG 1.1//EN"
       "http://www.w3.org/Graphics/SVG/1.1/DTD/svg11.dtd">
<svg version="1.1" xmlns="http://www.w3.org/2000/svg" xmlns:xlink="http://www.w3.org/1999/xlink" width="3300" height="2200">
 <!--glyph: "", point size: 100.0, font version: "17.0d12e1", template writer version: "65.1"-->
 <g id="Notes">
  <rect height="2200" id="artboard" style="fill:white;opacity:1" width="3300" x="0" y="0"/>
  <line style="fill:none;stroke:black;opacity:1;stroke-width:0.5;" x1="263" x2="3036" y1="292" y2="292"/>
  <text style="stroke:none;fill:black;font-family:sans-serif;font-size:13;font-weight:bold;" transform="matrix(1 0 0 1 263 322)">Weight/Scale Variations</text>
  <text style="stroke:none;fill:black;font-family:sans-serif;font-size:13;text-anchor:middle;" transform="matrix(1 0 0 1 559.711 322)">Ultralight</text>
  <text style="stroke:none;fill:black;font-family:sans-serif;font-size:13;text-anchor:middle;" transform="matrix(1 0 0 1 856.422 322)">Thin</text>
  <text style="stroke:none;fill:black;font-family:sans-serif;font-size:13;text-anchor:middle;" transform="matrix(1 0 0 1 1153.13 322)">Light</text>
  <text style="stroke:none;fill:black;font-family:sans-serif;font-size:13;text-anchor:middle;" transform="matrix(1 0 0 1 1449.84 322)">Regular</text>
  <text style="stroke:none;fill:black;font-family:sans-serif;font-size:13;text-anchor:middle;" transform="matrix(1 0 0 1 1746.56 322)">Medium</text>
  <text style="stroke:none;fill:black;font-family:sans-serif;font-size:13;text-anchor:middle;" transform="matrix(1 0 0 1 2043.27 322)">Semibold</text>
  <text style="stroke:none;fill:black;font-family:sans-serif;font-size:13;text-anchor:middle;" transform="matrix(1 0 0 1 2339.98 322)">Bold</text>
  <text style="stroke:none;fill:black;font-family:sans-serif;font-size:13;text-anchor:middle;" transform="matrix(1 0 0 1 2636.69 322)">Heavy</text>
  <text style="stroke:none;fill:black;font-family:sans-serif;font-size:13;text-anchor:middle;" transform="matrix(1 0 0 1 2933.4 322)">Black</text>
  <line style="fill:none;stroke:black;opacity:1;stroke-width:0.5;" x1="263" x2="3036" y1="1903" y2="1903"/>
  <g transform="matrix(1 0 0 1 263 1933)">
   <path d="M9.24805 0.830078Q10.8691 0.830078 12.2949 0.214844Q13.7207-0.400391 14.8096-1.49414Q15.8984-2.58789 16.5186-4.01367Q17.1387-5.43945 17.1387-7.05078Q17.1387-8.66211 16.5186-10.0879Q15.8984-11.5137 14.8047-12.6074Q13.7109-13.7012 12.2852-14.3164Q10.8594-14.9316 9.23828-14.9316Q7.62695-14.9316 6.20117-14.3164Q4.77539-13.7012 3.69141-12.6074Q2.60742-11.5137 1.9873-10.0879Q1.36719-8.66211 1.36719-7.05078Q1.36719-5.43945 1.9873-4.01367Q2.60742-2.58789 3.69629-1.49414Q4.78516-0.400391 6.21094 0.214844Q7.63672 0.830078 9.24805 0.830078ZM9.24805-0.654297Q7.91992-0.654297 6.7627-1.14746Q5.60547-1.64062 4.73145-2.51953Q3.85742-3.39844 3.36426-4.56055Q2.87109-5.72266 2.87109-7.05078Q2.87109-8.37891 3.35938-9.54102Q3.84766-10.7031 4.72168-11.582Q5.5957-12.4609 6.75293-12.9541Q7.91016-13.4473 9.23828-13.4473Q10.5762-13.4473 11.7334-12.9541Q12.8906-12.4609 13.7695-11.582Q14.6484-10.7031 15.1465-9.54102Q15.6445-8.37891 15.6445-7.05078Q15.6445-5.72266 15.1514-4.56055Q14.6582-3.39844 13.7842-2.51953Q12.9102-1.64062 11.748-1.14746Q10.5859-0.654297 9.24805-0.654297ZM5.6543-7.05078Q5.6543-6.72852 5.85938-6.52832Q6.06445-6.32812 6.40625-6.32812L8.51562-6.32812L8.51562-4.20898Q8.51562-3.88672 8.71094-3.67676Q8.90625-3.4668 9.23828-3.4668Q9.56055-3.4668 9.77051-3.67676Q9.98047-3.88672 9.98047-4.20898L9.98047-6.32812L12.0898-6.32812Q12.4219-6.32812 12.627-6.52832Q12.832-6.72852 12.832-7.05078Q12.832-7.38281 12.627-7.58789Q12.4219-7.79297 12.0898-7.79297L9.98047-7.79297L9.98047-9.90234Q9.98047-10.2344 9.77051-10.4443Q9.56055-10.6543 9.23828-10.6543Q8.90625-10.6543 8.71094-10.4443Q8.51562-10.2344 8.51562-9.90234L8.51562-7.79297L6.40625-7.79297Q6.06445-7.79297 5.85938-7.58789Q5.6543-7.38281 5.6543-7.05078Z"/>
  </g>
  <g transform="matrix(1 0 0 1 281.867 1933)">
   <path d="M11.709 2.91016Q13.75 2.91016 15.5518 2.12891Q17.3535 1.34766 18.7305-0.0292969Q20.1074-1.40625 20.8887-3.20801Q21.6699-5.00977 21.6699-7.05078Q21.6699-9.0918 20.8887-10.8936Q20.1074-12.6953 18.7305-14.0723Q17.3535-15.4492 15.5469-16.2305Q13.7402-17.0117 11.6992-17.0117Q9.6582-17.0117 7.85645-16.2305Q6.05469-15.4492 4.68262-14.0723Q3.31055-12.6953 2.5293-10.8936Q1.74805-9.0918 1.74805-7.05078Q1.74805-5.00977 2.5293-3.20801Q3.31055-1.40625 4.6875-0.0292969Q6.06445 1.34766 7.86621 2.12891Q9.66797 2.91016 11.709 2.91016ZM11.709 1.25Q9.98047 1.25 8.47656 0.605469Q6.97266-0.0390625 5.83496-1.17676Q4.69727-2.31445 4.05762-3.81836Q3.41797-5.32227 3.41797-7.05078Q3.41797-8.7793 4.05762-10.2832Q4.69727-11.7871 5.83008-12.9297Q6.96289-14.0723 8.4668-14.7119Q9.9707-15.3516 11.6992-15.3516Q13.4277-15.3516 14.9316-14.7119Q16.4355-14.0723 17.5781-12.9297Q18.7207-11.7871 19.3652-10.2832Q20.0098-8.7793 20.0098-7.05078Q20.0098-5.32227 19.3701-3.81836Q18.7305-2.31445 17.5928-1.17676Q16.4551-0.0390625 14.9463 0.605469Q13.4375 1.25 11.709 1.25ZM7.17773-7.05078Q7.17773-6.69922 7.41211-6.47461Q7.64648-6.25 8.01758-6.25L10.8887-6.25L10.8887-3.36914Q10.8887-2.99805 11.1133-2.76855Q11.3379-2.53906 11.6895-2.53906Q12.0605-2.53906 12.29-2.76855Q12.5195-2.99805 12.5195-3.36914L12.5195-6.25L15.4004-6.25Q15.7715-6.25 16.001-6.47461Q16.2305-6.69922 16.2305-7.05078Q16.2305-7.42188 16.001-7.65137Q15.7715-7.88086 15.4004-7.88086L12.5195-7.88086L12.5195-10.752Q12.5195-11.1328 12.29-11.3623Q12.0605-11.5918 11.6895-11.5918Q11.3379-11.5918 11.1133-11.3574Q10.8887-11.123 10.8887-10.752L10.8887-7.88086L8.01758-7.88086Q7.63672-7.88086 7.40723-7.65137Q7.17773-7.42188 7.17773-7.05078Z"/>
  </g>
  <g transform="matrix(1 0 0 1 305.646 1933)">
   <path d="M14.9707 5.66406Q17.0605 5.66406 18.96 5.01465Q20.8594 4.36523 22.4512 3.19336Q24.043 2.02148 25.2197 0.429688Q26.3965-1.16211 27.0459-3.06641Q27.6953-4.9707 27.6953-7.05078Q27.6953-9.14062 27.0459-11.04Q26.3965-12.9395 25.2197-14.5312Q24.043-16.123 22.4512-17.2998Q20.8594-18.4766 18.9551-19.126Q17.0508-19.7754 14.9609-19.7754Q12.8711-19.7754 10.9717-19.126Q9.07227-18.4766 7.48535-17.2998Q5.89844-16.123 4.72168-14.5312Q3.54492-12.9395 2.90039-11.04Q2.25586-9.14062 2.25586-7.05078Q2.25586-4.9707 2.90527-3.06641Q3.55469-1.16211 4.72656 0.429688Q5.89844 2.02148 7.49023 3.19336Q9.08203 4.36523 10.9814 5.01465Q12.8809 5.66406 14.9707 5.66406ZM14.9707 3.84766Q13.1641 3.84766 11.5283 3.2959Q9.89258 2.74414 8.53516 1.74805Q7.17773 0.751953 6.17676-0.610352Q5.17578-1.97266 4.62891-3.6084Q4.08203-5.24414 4.08203-7.05078Q4.08203-8.86719 4.62891-10.5029Q5.17578-12.1387 6.17188-13.501Q7.16797-14.8633 8.52539-15.8594Q9.88281-16.8555 11.5186-17.4023Q13.1543-17.9492 14.9609-17.9492Q16.7773-17.9492 18.4131-17.4023Q20.0488-16.8555 21.4111-15.8594Q22.7734-14.8633 23.7695-13.501Q24.7656-12.1387 25.3174-10.5029Q25.8691-8.86719 25.8691-7.05078Q25.8789-5.24414 25.332-3.6084Q24.7852-1.97266 23.7842-0.610352Q22.7832 0.751953 21.4209 1.74805Q20.0586 2.74414 18.4229 3.2959Q16.7871 3.84766 14.9707 3.84766ZM9.19922-7.05078Q9.19922-6.66992 9.45801-6.4209Q9.7168-6.17188 10.1172-6.17188L14.0625-6.17188L14.0625-2.2168Q14.0625-1.81641 14.3115-1.55762Q14.5605-1.29883 14.9512-1.29883Q15.3516-1.29883 15.6104-1.55273Q15.8691-1.80664 15.8691-2.2168L15.8691-6.17188L19.8242-6.17188Q20.2246-6.17188 20.4785-6.4209Q20.7324-6.66992 20.7324-7.05078Q20.7324-7.46094 20.4785-7.71484Q20.2246-7.96875 19.8242-7.96875L15.8691-7.96875L15.8691-11.9141Q15.8691-12.3242 15.6104-12.583Q15.3516-12.8418 14.9512-12.8418Q14.5605-12.8418 14.3115-12.583Q14.0625-12.3242 14.0625-11.9141L14.0625-7.96875L10.1172-7.96875Q9.70703-7.96875 9.45312-7.71484Q9.19922-7.46094 9.19922-7.05078Z"/>
  </g>
  <text style="stroke:none;fill:black;font-family:sans-serif;font-size:13;font-weight:bold;" transform="matrix(1 0 0 1 263 1953)">Design Variations</text>
  <text style="stroke:none;fill:black;font-family:sans-serif;font-size:13;" transform="matrix(1 0 0 1 263 1971)">Symbols are supported in up to nine weights and three scales.</text>
  <text style="stroke:none;fill:black;font-family:sans-serif;font-size:13;" transform="matrix(1 0 0 1 263 1989)">For optimal layout with text and other symbols, vertically align</text>
  <text style="stroke:none;fill:black;font-family:sans-serif;font-size:13;" transform="matrix(1 0 0 1 263 2007)">symbols with the adjacent text.</text>
  <line style="fill:none;stroke:#00AEEF;stroke-width:0.5;opacity:1.0;" x1="776" x2="776" y1="1919" y2="1933"/>
  <g transform="matrix(1 0 0 1 776 1933)">
   <path d="M3.31055 0.15625Q3.70117 0.15625 3.91602-0.00976562Q4.13086-0.175781 4.26758-0.585938L5.52734-4.0332L11.2891-4.0332L12.5488-0.585938Q12.6855-0.175781 12.9004-0.00976562Q13.1152 0.15625 13.4961 0.15625Q13.8867 0.15625 14.1162-0.0585938Q14.3457-0.273438 14.3457-0.644531Q14.3457-0.869141 14.2383-1.17188L9.6582-13.3691Q9.48242-13.8184 9.17969-14.043Q8.87695-14.2676 8.4082-14.2676Q7.5-14.2676 7.17773-13.3789L2.59766-1.16211Q2.49023-0.859375 2.49023-0.634766Q2.49023-0.263672 2.70996-0.0537109Q2.92969 0.15625 3.31055 0.15625ZM6.00586-5.51758L8.37891-12.0898L8.42773-12.0898L10.8008-5.51758Z"/>
  </g>
  <line style="fill:none;stroke:#00AEEF;stroke-width:0.5;opacity:1.0;" x1="793.197" x2="793.197" y1="1919" y2="1933"/>
  <text style="stroke:none;fill:black;font-family:sans-serif;font-size:13;font-weight:bold;" transform="matrix(1 0 0 1 776 1953)">Margins</text>
  <text style="stroke:none;fill:black;font-family:sans-serif;font-size:13;" transform="matrix(1 0 0 1 776 1971)">Leading and trailing margins on the left and right side of each symbol</text>
  <text style="stroke:none;fill:black;font-family:sans-serif;font-size:13;" transform="matrix(1 0 0 1 776 1989)">can be adjusted by modifying the x-location of the margin guidelines.</text>
  <text style="stroke:none;fill:black;font-family:sans-serif;font-size:13;" transform="matrix(1 0 0 1 776 2007)">Modifications are automatically applied proportionally to all</text>
  <text style="stroke:none;fill:black;font-family:sans-serif;font-size:13;" transform="matrix(1 0 0 1 776 2025)">scales and weights.</text>
  <g transform="matrix(1 0 0 1 1289 1933)">
   <path d="M2.8418 1.86523L4.54102 3.57422Q5.18555 4.22852 5.90332 4.17969Q6.62109 4.13086 7.31445 3.35938L18.0078-8.42773L17.041-9.4043L6.42578 2.27539Q6.16211 2.57812 5.89355 2.61719Q5.625 2.65625 5.27344 2.30469L4.10156 1.14258Q3.75 0.791016 3.79395 0.522461Q3.83789 0.253906 4.14062-0.0195312L15.6152-10.8203L14.6387-11.7871L3.04688-0.898438Q2.30469-0.214844 2.25098 0.498047Q2.19727 1.21094 2.8418 1.86523ZM9.25781-16.3281Q8.94531-16.0254 8.90625-15.6348Q8.86719-15.2441 9.04297-14.9512Q9.21875-14.6777 9.55566-14.541Q9.89258-14.4043 10.3809-14.5215Q11.4746-14.7754 12.5977-14.7314Q13.7207-14.6875 14.7949-13.9844L14.209-12.5293Q13.9551-11.9043 14.0674-11.4404Q14.1797-10.9766 14.5801-10.5664L16.875-8.25195Q17.2363-7.88086 17.5781-7.82227Q17.9199-7.76367 18.3398-7.8418L19.4043-8.03711L20.0684-7.36328L20.0293-6.80664Q20-6.43555 20.1221-6.12305Q20.2441-5.81055 20.6055-5.44922L21.3672-4.70703Q21.7285-4.3457 22.1533-4.33105Q22.5781-4.31641 22.9297-4.66797L25.8398-7.58789Q26.1914-7.93945 26.1816-8.35449Q26.1719-8.76953 25.8105-9.13086L25.0391-9.89258Q24.6875-10.2539 24.3799-10.3857Q24.0723-10.5176 23.7109-10.4883L23.1348-10.4395L22.4902-11.0742L22.7344-12.1973Q22.832-12.6172 22.6953-12.9834Q22.5586-13.3496 22.1191-13.7891L19.9219-15.9766Q18.6719-17.2168 17.2607-17.8369Q15.8496-18.457 14.4189-18.4814Q12.9883-18.5059 11.665-17.959Q10.3418-17.4121 9.25781-16.3281ZM10.752-15.957Q11.6602-16.6211 12.7002-16.9043Q13.7402-17.1875 14.8047-17.085Q15.8691-16.9824 16.8701-16.5137Q17.8711-16.0449 18.7012-15.2051L21.1328-12.793Q21.3086-12.6172 21.3525-12.4512Q21.3965-12.2852 21.3379-12.0312L21.0156-10.5469L22.5195-9.0625L23.5059-9.12109Q23.6914-9.13086 23.7891-9.09668Q23.8867-9.0625 24.0332-8.91602L24.6094-8.33984L22.168-5.89844L21.5918-6.47461Q21.4453-6.62109 21.4062-6.71875Q21.3672-6.81641 21.377-7.01172L21.4453-7.98828L19.9512-9.47266L18.4277-9.21875Q18.1836-9.16992 18.042-9.2041Q17.9004-9.23828 17.7148-9.41406L15.7129-11.416Q15.5176-11.5918 15.4932-11.7529Q15.4688-11.9141 15.5859-12.1875L16.4648-14.2773Q15.293-15.3711 13.8281-15.791Q12.3633-16.2109 10.8398-15.7617Q10.7227-15.7324 10.6885-15.8057Q10.6543-15.8789 10.752-15.957Z"/>
  </g>
  <text style="stroke:none;fill:black;font-family:sans-serif;font-size:13;font-weight:bold;" transform="matrix(1 0 0 1 1289 1953)">Exporting</text>
  <text style="stroke:none;fill:black;font-family:sans-serif;font-size:13;" transform="matrix(1 0 0 1 1289 1971)">Symbols should be outlined when exporting to ensure the</text>
  <text style="stroke:none;fill:black;font-family:sans-serif;font-size:13;" transform="matrix(1 0 0 1 1289 1989)">design is preserved when submitting to Xcode.</text>
  <text id="template-version" style="stroke:none;fill:black;font-family:sans-serif;font-size:13;text-anchor:end;" transform="matrix(1 0 0 1 3036 1933)">Template v.3.0</text>
  <text style="stroke:none;fill:black;font-family:sans-serif;font-size:13;text-anchor:end;" transform="matrix(1 0 0 1 3036 1951)">Requires Xcode 13 or greater</text>
  <text id="descriptive-name" style="stroke:none;fill:black;font-family:sans-serif;font-size:13;text-anchor:end;" transform="matrix(1 0 0 1 3036 1969)">Generated from tool</text>
  <text style="stroke:none;fill:black;font-family:sans-serif;font-size:13;text-anchor:end;" transform="matrix(1 0 0 1 3036 1987)">Typeset at 100 points</text>
  <text style="stroke:none;fill:black;font-family:sans-serif;font-size:13;" transform="matrix(1 0 0 1 263 726)">Small</text>
  <text style="stroke:none;fill:black;font-family:sans-serif;font-size:13;" transform="matrix(1 0 0 1 263 1156)">Medium</text>
  <text style="stroke:none;fill:black;font-family:sans-serif;font-size:13;" transform="matrix(1 0 0 1 263 1586)">Large</text>
 </g>
 <g id="Guides">
  <g id="H-reference" style="fill:#27AAE1;stroke:none;" transform="matrix(1 0 0 1 339 696)">
   <path d="M0.976562 0L3.66211 0L29.3457-67.1387L30.0293-67.1387L30.0293-70.459L28.125-70.459ZM11.6699-24.4629L46.9727-24.4629L46.2402-26.709L12.4512-26.709ZM55.127 0L57.7637 0L30.6152-70.459L29.4434-70.459L29.4434-67.1387Z"/>
  </g>
  <line id="Baseline-S" style="fill:none;stroke:#27AAE1;opacity:1;stroke-width:0.5;" x1="263" x2="3036" y1="696" y2="696"/>
  <line id="Capline-S" style="fill:none;stroke:#27AAE1;opacity:1;stroke-width:0.5;" x1="263" x2="3036" y1="625.541" y2="625.541"/>
  <g id="H-reference" style="fill:#27AAE1;stroke:none;" transform="matrix(1 0 0 1 339 1126)">
   <path d="M0.976562 0L3.66211 0L29.3457-67.1387L30.0293-67.1387L30.0293-70.459L28.125-70.459ZM11.6699-24.4629L46.9727-24.4629L46.2402-26.709L12.4512-26.709ZM55.127 0L57.7637 0L30.6152-70.459L29.4434-70.459L29.4434-67.1387Z"/>
  </g>
  <line id="Baseline-M" style="fill:none;stroke:#27AAE1;opacity:1;stroke-width:0.5;" x1="263" x2="3036" y1="1126" y2="1126"/>
  <line id="Capline-M" style="fill:none;stroke:#27AAE1;opacity:1;stroke-width:0.5;" x1="263" x2="3036" y1="1055.54" y2="1055.54"/>
  <g id="H-reference" style="fill:#27AAE1;stroke:none;" transform="matrix(1 0 0 1 339 1556)">
   <path d="M0.976562 0L3.66211 0L29.3457-67.1387L30.0293-67.1387L30.0293-70.459L28.125-70.459ZM11.6699-24.4629L46.9727-24.4629L46.2402-26.709L12.4512-26.709ZM55.127 0L57.7637 0L30.6152-70.459L29.4434-70.459L29.4434-67.1387Z"/>
  </g>
  <line id="Baseline-L" style="fill:none;stroke:#27AAE1;opacity:1;stroke-width:0.5;" x1="263" x2="3036" y1="1556" y2="1556"/>
  <line id="Capline-L" style="fill:none;stroke:#27AAE1;opacity:1;stroke-width:0.5;" x1="263" x2="3036" y1="1485.54" y2="1485.54"/>
  <line id="left-margin-Regular-M" style="fill:none;stroke:#00AEEF;stroke-width:0.5;opacity:1.0;" x1="1393.06" x2="1393.06" y1="1030.78" y2="1150.12"/>
  <line id="right-margin-Regular-M" style="fill:none;stroke:#00AEEF;stroke-width:0.5;opacity:1.0;" x1="1506.63" x2="1506.63" y1="1030.78" y2="1150.12"/>
 </g>
 <g id="Symbols">
  <g id="Black-L" transform="matrix(1 0 0 1 2861.38 1556)">
   <path d="M94.86-86.6985C93.26-86.6885 91.65-86.5485 90.06-86.2585C84.65-85.2685 79.67-82.6685 75.79-78.7785C71.91-74.8985 69.3-69.9185 68.31-64.5185C67.33-59.1085 68.01-53.5285 70.28-48.5285C71.5-45.8385 70.92-42.6685 68.83-40.5785L29.53-1.27851C28.6-0.348513 28.08 0.911485 28.08 2.23149C28.08 3.55149 28.6 4.81149 29.53 5.74149C30.46 6.67149 31.72 7.19149 33.04 7.19149C34.36 7.19149 35.62 6.67149 36.55 5.74149L75.85-33.5585C77.94-35.6485 81.11-36.2285 83.8-35.0085C88.8-32.7385 94.38-32.0585 99.79-33.0385C105.19-34.0285 110.17-36.6385 114.05-40.5185C117.94-44.4085 120.54-49.3785 121.53-54.7885C121.82-56.3785 121.96-57.9885 121.97-59.5885L109.61-47.2385C109.59-47.2185 109.58-47.1985 109.56-47.1885C107.17-44.8385 103.96-43.5285 100.61-43.5285C97.26-43.5285 94.05-44.8385 91.66-47.1885C91.65-47.1985 91.63-47.2085 91.62-47.2185C91.62-47.2285 91.61-47.2285 91.61-47.2385L82.51-56.3385C82.49-56.3485 82.47-56.3685 82.46-56.3885C80.11-58.7785 78.8-61.9885 78.8-65.3385C78.8-68.6885 80.11-71.8985 82.46-74.2885C82.47-74.3085 82.49-74.3185 82.51-74.3385L94.86-86.6985ZM87.51-100.229C95.75-101.728 104.26-100.679 111.9-97.2285C114.02-96.2685 115.54-94.3285 115.95-92.0285C116.37-89.7385 115.64-87.3885 113.99-85.7385L93.59-65.3385L100.61-58.3185L121.01-78.7185C122.66-80.3685 125.01-81.0985 127.3-80.6785C129.6-80.2685 131.54-78.7485 132.5-76.6285C135.95-68.9885 137-60.4785 135.5-52.2385C134-43.9985 130.02-36.4085 124.09-30.4785C118.17-24.5485 110.58-20.5685 102.33-19.0685C95.75-17.8685 88.99-18.2985 82.65-20.2785L46.59 15.7815C43 19.3715 38.12 21.3915 33.04 21.3915C27.96 21.3915 23.08 19.3715 19.49 15.7815C15.89 12.1915 13.88 7.31149 13.88 2.23149C13.88-2.84851 15.89-7.72851 19.49-11.3185L55.55-47.3785C53.57-53.7185 53.14-60.4785 54.34-67.0585C55.84-75.3085 59.82-82.8985 65.75-88.8185C71.67-94.7485 79.27-98.7285 87.51-100.229Z"/>
  </g>
  <g id="Heavy-L" transform="matrix(1 0 0 1 2565.51 1556)">
   <path d="M96-87.442C93.7-87.602 91.36-87.472 89.06-87.052C83.49-86.042 78.35-83.352 74.35-79.342C70.34-75.332 67.65-70.202 66.63-64.632C65.62-59.052 66.33-53.302 68.66-48.142C69.73-45.772 69.23-42.982 67.39-41.142L28.09-1.84202C27-0.752014 26.38 0.727983 26.38 2.26798C26.38 3.80798 27 5.28798 28.09 6.37798C29.18 7.46798 30.66 8.08798 32.2 8.08798C33.74 8.08798 35.22 7.46798 36.31 6.37798L75.61-32.922C77.45-34.762 80.24-35.272 82.61-34.192C87.77-31.862 93.52-31.152 99.1-32.172C104.67-33.182 109.8-35.872 113.81-39.882C117.82-43.882 120.51-49.022 121.52-54.592C121.94-56.892 122.07-59.232 121.91-61.542L108.17-47.802C108.15-47.782 108.14-47.772 108.12-47.752C105.89-45.562 102.89-44.342 99.77-44.342C96.64-44.342 93.64-45.562 91.41-47.752C91.39-47.772 91.38-47.782 91.36-47.802L82.26-56.902C82.25-56.912 82.24-56.932 82.22-56.942C80.03-59.172 78.81-62.172 78.81-65.302C78.81-68.422 80.03-71.422 82.22-73.652C82.24-73.672 82.25-73.682 82.26-73.702L96-87.442ZM86.82-99.352C94.89-100.822 103.23-99.802 110.7-96.412C112.57-95.572 113.91-93.862 114.27-91.842C114.64-89.822 114-87.752 112.55-86.302L91.54-65.302L99.77-57.072L120.77-78.082C122.22-79.532 124.29-80.172 126.31-79.812C128.33-79.442 130.04-78.102 130.88-76.232C134.27-68.762 135.29-60.432 133.82-52.352C132.35-44.282 128.45-36.842 122.65-31.042C116.84-25.242 109.41-21.342 101.34-19.872C94.72-18.662 87.93-19.132 81.57-21.202L45.15 15.218C41.71 18.658 37.06 20.588 32.2 20.588C27.34 20.588 22.68 18.658 19.25 15.218C15.81 11.788 13.88 7.12798 13.88 2.26798C13.88-2.59202 15.81-7.25202 19.25-10.682L55.67-47.112C53.6-53.462 53.13-60.252 54.34-66.872C55.81-74.942 59.7-82.382 65.51-88.182C71.31-93.982 78.75-97.882 86.82-99.352Z"/>
  </g>
  <g id="Bold-L" transform="matrix(1 0 0 1 2269.75 1556)">
   <path d="M97.13-88.131C94.09-88.561 90.99-88.501 87.94-87.951C82.17-86.901 76.87-84.121 72.72-79.971C68.58-75.831 65.8-70.521 64.75-64.761C63.7-58.991 64.43-53.051 66.84-47.711C67.75-45.701 67.32-43.331 65.76-41.771L26.46-2.47102C25.19-1.20101 24.48 0.518983 24.48 2.30898C24.48 4.09898 25.19 5.81898 26.46 7.08898C27.73 8.35898 29.45 9.06898 31.24 9.06898C33.04 9.06898 34.76 8.35898 36.03 7.08898L75.33-32.211C76.89-33.771 79.25-34.201 81.26-33.291C86.6-30.871 92.55-30.141 98.31-31.191C104.08-32.241 109.38-35.021 113.53-39.171C117.67-43.311 120.45-48.621 121.5-54.381C122.06-57.431 122.12-60.541 121.69-63.581L106.54-48.431L106.5-48.391C104.45-46.381 101.69-45.251 98.81-45.251C95.94-45.251 93.18-46.381 91.12-48.391L91.08-48.431L81.98-57.531L81.95-57.571C79.93-59.621 78.81-62.381 78.81-65.261C78.81-68.131 79.93-70.891 81.95-72.951L81.98-72.991L97.13-88.131ZM86.04-98.381C93.92-99.811 102.06-98.811 109.36-95.511C110.94-94.791 112.08-93.341 112.39-91.631C112.7-89.921 112.15-88.161 110.92-86.931L89.51-65.521C89.44-65.451 89.41-65.361 89.41-65.261C89.41-65.161 89.44-65.071 89.51-64.991L98.55-55.951C98.62-55.891 98.71-55.851 98.81-55.851C98.91-55.851 99-55.891 99.08-55.951L120.49-77.371C121.72-78.601 123.47-79.141 125.19-78.831C126.9-78.521 128.35-77.391 129.06-75.801C132.37-68.501 133.37-60.371 131.93-52.481C130.5-44.601 126.69-37.341 121.02-31.671C115.36-26.001 108.1-22.201 100.21-20.761C93.56-19.551 86.73-20.071 80.37-22.251L43.52 14.589C40.27 17.849 35.85 19.669 31.24 19.669C26.64 19.669 22.22 17.849 18.97 14.589C15.71 11.329 13.88 6.91898 13.88 2.30898C13.88-2.30102 15.71-6.71102 18.97-9.97102L55.81-46.811C53.63-53.171 53.11-60.001 54.32-66.661C55.75-74.541 59.56-81.801 65.23-87.471C70.89-93.141 78.15-96.941 86.04-98.381Z"/>
  </g>
  <g id="Semibold-L" transform="matrix(1 0 0 1 1973.69 1556)">
   <path d="M97.84-88.546C94.34-89.196 90.72-89.216 87.18-88.566C81.28-87.496 75.85-84.646 71.62-80.406C67.38-76.176 64.54-70.746 63.46-64.856C62.39-58.956 63.14-52.876 65.61-47.416C66.4-45.656 66.03-43.576 64.66-42.216L25.36-2.906C23.97-1.51601 23.18 0.363996 23.18 2.334C23.18 4.294 23.97 6.184 25.36 7.574C26.75 8.964 28.63 9.744 30.6 9.744C32.57 9.744 34.45 8.964 35.84 7.574L75.14-31.726C76.51-33.096 78.59-33.476 80.35-32.676C85.81-30.206 91.89-29.456 97.78-30.526C103.68-31.606 109.11-34.446 113.34-38.686C117.58-42.926 120.42-48.346 121.5-54.246C122.14-57.786 122.13-61.406 121.48-64.906L105.44-48.866L105.4-48.836C103.47-46.936 100.87-45.876 98.17-45.876C95.46-45.876 92.86-46.936 90.93-48.836L90.9-48.866L81.8-57.966L81.77-57.996C79.87-59.936 78.81-62.526 78.81-65.236C78.81-67.946 79.87-70.536 81.77-72.476L81.8-72.506L97.84-88.546ZM85.51-97.716C93.26-99.126 101.26-98.146 108.44-94.896C109.84-94.266 110.83-92.996 111.1-91.496C111.38-89.986 110.9-88.446 109.82-87.366L88.4-65.956C88.21-65.756 88.11-65.506 88.11-65.236C88.11-64.966 88.21-64.716 88.4-64.516L97.45-55.466C97.64-55.276 97.9-55.176 98.17-55.176C98.43-55.176 98.69-55.276 98.88-55.466L120.3-76.886C121.38-77.966 122.92-78.446 124.42-78.166C125.93-77.896 127.2-76.906 127.83-75.516C131.08-68.336 132.06-60.326 130.65-52.576C129.23-44.826 125.49-37.686 119.92-32.106C114.35-26.536 107.21-22.796 99.45-21.376C92.77-20.166 85.91-20.726 79.55-22.976L42.42 14.154C39.28 17.284 35.03 19.044 30.6 19.044C26.17 19.044 21.92 17.284 18.78 14.154C15.65 11.014 13.88 6.764 13.88 2.334C13.88-2.096 15.65-6.356 18.78-9.486L55.91-46.616C53.66-52.976 53.1-59.836 54.31-66.516C55.73-74.276 59.47-81.416 65.04-86.986C70.61-92.556 77.75-96.306 85.51-97.716Z"/>
  </g>
  <g id="Medium-L" transform="matrix(1 0 0 1 1677.48 1556)">
   <path d="M98.35-88.8358C94.5-89.6758 90.5-89.7558 86.59-89.0358C80.59-87.9458 75.07-85.0558 70.76-80.7458C66.46-76.4358 63.56-70.9158 62.47-64.9258C61.38-58.9258 62.14-52.7458 64.65-47.1858C65.36-45.6158 65.03-43.7658 63.8-42.5458L24.5-3.24578C23.02-1.75577 22.18 0.254225 22.18 2.35422C22.18 4.45422 23.02 6.46422 24.5 7.95422C25.99 9.43421 28 10.2642 30.1 10.2642C32.2 10.2642 34.21 9.43421 35.7 7.95422L75-31.3558C76.22-32.5758 78.07-32.9058 79.64-32.1958C85.19-29.6858 91.38-28.9258 97.37-30.0158C103.37-31.1058 108.89-34.0058 113.2-38.3158C117.5-42.6158 120.4-48.1358 121.49-54.1358C122.2-58.0558 122.13-62.0558 121.29-65.9058L104.58-49.1958L104.55-49.1658C102.71-47.3658 100.24-46.3558 97.67-46.3558C95.09-46.3558 92.62-47.3658 90.78-49.1658L90.75-49.1958L81.65-58.2958L81.62-58.3258C79.82-60.1658 78.81-62.6358 78.81-65.2158C78.81-67.7858 79.82-70.2658 81.62-72.1058L81.65-72.1258L98.35-88.8358ZM85.1-97.2058C92.75-98.5958 100.65-97.6258 107.74-94.4158C108.98-93.8558 109.87-92.7258 110.11-91.3858C110.35-90.0458 109.93-88.6658 108.96-87.7058L87.54-66.2858C87.26-65.9958 87.11-65.6158 87.11-65.2158C87.11-64.8158 87.26-64.4358 87.54-64.1458L96.6-55.0858C96.89-54.8158 97.27-54.6558 97.67-54.6558C98.07-54.6558 98.45-54.8158 98.73-55.0858L120.16-76.5058C121.12-77.4758 122.49-77.9058 123.83-77.6558C125.17-77.4158 126.31-76.5258 126.87-75.2858C130.08-68.1958 131.05-60.2958 129.66-52.6458C128.26-44.9958 124.57-37.9458 119.06-32.4458C113.56-26.9358 106.52-23.2458 98.86-21.8558C92.17-20.6358 85.28-21.2258 78.92-23.5358L41.57 13.8142C38.52 16.8642 34.4 18.5642 30.1 18.5642C25.8 18.5642 21.67 16.8642 18.63 13.8142C15.59 10.7742 13.88 6.65422 13.88 2.35422C13.88-1.94578 15.59-6.07578 18.63-9.11578L55.99-46.4658C53.67-52.8358 53.08-59.7158 54.3-66.4058C55.7-74.0658 59.39-81.1158 64.89-86.6158C70.4-92.1158 77.44-95.8058 85.1-97.2058Z"/>
  </g>
  <g id="Regular-L" transform="matrix(1 0 0 1 1381.42 1556)">
   <path d="M98.98-89.1744C94.69-90.2844 90.2-90.4544 85.81-89.6544C79.69-88.5344 74.05-85.5844 69.64-81.1844C65.24-76.7744 62.29-71.1344 61.17-65.0144C60.05-58.8844 60.83-52.5744 63.4-46.8944C64-45.5744 63.71-44.0144 62.68-42.9844L23.38-3.68448C21.78-2.07448 20.88 0.105516 20.88 2.37552C20.88 4.64552 21.78 6.82552 23.38 8.43552C24.99 10.0356 27.17 10.9456 29.44 10.9456C31.71 10.9456 33.89 10.0356 35.5 8.43552L74.8-30.8644C75.83-31.8944 77.39-32.1844 78.72-31.5844C84.39-29.0144 90.71-28.2344 96.83-29.3544C102.95-30.4744 108.59-33.4244 113-37.8244C117.4-42.2344 120.35-47.8644 121.47-53.9944C122.27-58.3844 122.1-62.8744 120.99-67.1644L103.46-49.6344L103.44-49.6144C101.72-47.9244 99.41-46.9844 97.01-46.9844C94.6-46.9844 92.29-47.9244 90.58-49.6144L90.55-49.6344L81.45-58.7344L81.43-58.7644C79.74-60.4744 78.8-62.7844 78.8-65.1944C78.8-67.5944 79.74-69.9044 81.43-71.6244L81.45-71.6444L98.98-89.1744ZM84.56-96.5444C92.08-97.9144 99.84-96.9544 106.81-93.8044C107.86-93.3244 108.61-92.3744 108.81-91.2444C109.02-90.1144 108.66-88.9544 107.84-88.1444L86.42-66.7144C86.02-66.3044 85.8-65.7544 85.8-65.1944C85.8-64.6244 86.02-64.0744 86.42-63.6744L95.49-54.6044C95.89-54.2044 96.44-53.9844 97.01-53.9844C97.58-53.9844 98.12-54.2044 98.53-54.6044L119.96-76.0244C120.77-76.8344 121.93-77.2044 123.06-76.9944C124.19-76.7844 125.15-76.0444 125.62-74.9944C128.77-68.0244 129.73-60.2644 128.36-52.7344C126.99-45.2144 123.35-38.2844 117.95-32.8744C112.54-27.4744 105.61-23.8344 98.09-22.4644C91.37-21.2444 84.46-21.8744 78.1-24.2644L40.45 13.3856C37.53 16.3056 33.57 17.9456 29.44 17.9456C25.31 17.9456 21.35 16.3056 18.43 13.3856C15.52 10.4656 13.88 6.50552 13.88 2.37552C13.88-1.75448 15.52-5.71448 18.43-8.63448L56.08-46.2744C53.69-52.6444 53.06-59.5544 54.28-66.2644C55.65-73.7944 59.29-80.7244 64.69-86.1244C70.1-91.5344 77.03-95.1644 84.56-96.5444Z"/>
  </g>
  <g id="Light-L" transform="matrix(1 0 0 1 1085.51 1556)">
   <path d="M99.72-89.5378C94.93-91.0078 89.84-91.3078 84.88-90.4078C78.59-89.2578 72.81-86.2278 68.29-81.7078C63.77-77.1978 60.74-71.4078 59.59-65.1278C58.45-58.8378 59.25-52.3578 61.88-46.5378C62.34-45.5078 62.12-44.3078 61.33-43.5178L22.03-4.20776C20.27-2.45776 19.28-0.0777619 19.28 2.41224C19.28 4.89224 20.27 7.27224 22.03 9.03224C23.78 10.7922 26.17 11.7722 28.65 11.7722C31.13 11.7722 33.52 10.7922 35.27 9.03224L74.57-30.2678C75.37-31.0678 76.57-31.2778 77.6-30.8178C83.41-28.1878 89.9-27.3878 96.18-28.5378C102.47-29.6778 108.25-32.7078 112.77-37.2278C117.29-41.7478 120.32-47.5278 121.47-53.8178C122.37-58.7778 122.06-63.8678 120.6-68.6578L102.11-50.1678L102.09-50.1478C100.52-48.6078 98.41-47.7478 96.22-47.7478C94.02-47.7478 91.91-48.6078 90.35-50.1478L90.33-50.1678L81.23-59.2678L81.21-59.2878C79.67-60.8578 78.81-62.9578 78.81-65.1578C78.81-67.3578 79.67-69.4578 81.21-71.0278L81.23-71.0478L99.72-89.5378ZM83.91-95.7178C91.27-97.0578 98.87-96.1278 105.69-93.0378C106.5-92.6778 107.08-91.9378 107.23-91.0678C107.39-90.1978 107.11-89.2978 106.49-88.6678L85.06-67.2378C84.51-66.6878 84.21-65.9378 84.21-65.1578C84.21-64.3778 84.51-63.6278 85.06-63.0778L94.13-53.9978C94.69-53.4578 95.44-53.1478 96.22-53.1478C97-53.1478 97.74-53.4578 98.3-53.9978L119.73-75.4278C120.36-76.0578 121.25-76.3378 122.12-76.1778C123-76.0178 123.74-75.4378 124.1-74.6278C127.19-67.8078 128.12-60.2178 126.78-52.8478C125.44-45.4878 121.88-38.7078 116.59-33.4078C111.3-28.1178 104.52-24.5578 97.15-23.2178C90.41-21.9878 83.47-22.6678 77.11-25.1678L39.09 12.8522C36.32 15.6222 32.57 17.1722 28.65 17.1722C24.73 17.1722 20.98 15.6222 18.21 12.8522C15.44 10.0822 13.88 6.32224 13.88 2.41224C13.88-1.50776 15.44-5.25776 18.21-8.02776L56.23-46.0478C53.73-52.4078 53.05-59.3478 54.28-66.0878C55.62-73.4578 59.18-80.2378 64.47-85.5278C69.76-90.8278 76.54-94.3778 83.91-95.7178Z"/>
  </g>
  <g id="Thin-L" transform="matrix(1 0 0 1 789.847 1556)">
   <path d="M100.601-89.9462C95.188-91.9262 89.331-92.4362 83.633-91.3962C77.138-90.2162 71.159-87.0762 66.491-82.4162C61.823-77.7462 58.688-71.7662 57.505-65.2662C56.322-58.7762 57.146-52.0762 59.867-46.0562C60.151-45.4362 60.017-44.6962 59.531-44.2162L20.23-4.91624C18.277-2.95624 17.18-0.306238 17.18 2.45376C17.18 5.21376 18.277 7.86376 20.23 9.81378C22.183 11.7738 24.833 12.8638 27.595 12.8638C30.357 12.8638 33.006 11.7738 34.959 9.81378L74.26-29.4862C74.746-29.9662 75.481-30.1062 76.107-29.8162C82.121-27.0962 88.822-26.2762 95.317-27.4562C101.811-28.6462 107.791-31.7762 112.459-36.4462C117.127-41.1162 120.261-47.0962 121.444-53.5862C122.483-59.2862 121.976-65.1462 119.997-70.5562L100.31-50.8662L100.299-50.8562C98.927-49.5162 97.083-48.7562 95.162-48.7562C93.242-48.7562 91.398-49.5162 90.026-50.8562L90.014-50.8662L80.914-59.9662L80.903-59.9762C79.558-61.3462 78.805-63.1962 78.805-65.1162C78.805-67.0362 79.558-68.8762 80.903-70.2562L80.914-70.2662L100.601-89.9462ZM83.041-94.6462C90.196-95.9462 97.578-95.0362 104.203-92.0462C104.697-91.8162 105.049-91.3662 105.146-90.8362C105.243-90.3062 105.073-89.7562 104.69-89.3762L83.305-67.9862L83.259-67.9462C83.258-67.9362 83.256-67.9362 83.254-67.9362C82.518-67.1862 82.105-66.1662 82.105-65.1162C82.105-64.0562 82.518-63.0462 83.254-62.2962C83.256-62.2962 83.258-62.2862 83.259-62.2862L92.336-53.2162C92.338-53.2062 92.34-53.2062 92.342-53.2062C93.096-52.4662 94.108-52.0562 95.162-52.0562C96.217-52.0562 97.229-52.4662 97.983-53.2062C97.985-53.2062 97.987-53.2062 97.989-53.2162L119.419-74.6462C119.802-75.0262 120.348-75.1962 120.881-75.0962C121.414-75.0062 121.865-74.6462 122.089-74.1562C125.087-67.5262 125.995-60.1462 124.691-52.9962C123.387-45.8362 119.934-39.2562 114.792-34.1062C109.65-28.9662 103.063-25.5162 95.908-24.2162C89.131-22.9762 82.149-23.7262 75.8-26.3562L37.293 12.1538C34.721 14.7238 31.232 16.1638 27.595 16.1638C23.957 16.1638 20.469 14.7238 17.897 12.1538C15.325 9.57378 13.88 6.09376 13.88 2.45376C13.88-1.18624 15.325-4.67624 17.897-7.24624L56.404-45.7562C53.773-52.1062 53.024-59.0862 54.259-65.8662C55.562-73.0162 59.015-79.6062 64.157-84.7462C69.3-89.8862 75.887-93.3362 83.041-94.6462Z"/>
  </g>
  <g id="Ultralight-L" transform="matrix(1 0 0 1 493.686 1556)">
   <path d="M101.042-90.1422C95.316-92.4022 89.062-93.0222 82.985-91.9122C76.38-90.7122 70.299-87.5222 65.552-82.7722C60.805-78.0322 57.618-71.9522 56.414-65.3422C55.211-58.7422 56.049-51.9222 58.817-45.8122C59.005-45.3922 58.916-44.9022 58.592-44.5722L19.292-5.27228C17.235-3.22228 16.08-0.432282 16.08 2.47772C16.08 5.38772 17.235 8.17772 19.292 10.2278C21.348 12.2878 24.137 13.4378 27.045 13.4378C29.953 13.4378 32.742 12.2878 34.799 10.2278L74.099-29.0722C74.423-29.3922 74.913-29.4822 75.33-29.2922C81.447-26.5222 88.261-25.6922 94.866-26.8922C101.47-28.0922 107.551-31.2822 112.298-36.0322C117.045-40.7722 120.233-46.8622 121.436-53.4622C122.543-59.5422 121.922-65.7922 119.66-71.5222L99.372-51.2322L99.364-51.2222C98.095-49.9822 96.389-49.2822 94.613-49.2822C92.836-49.2822 91.13-49.9822 89.861-51.2222L89.854-51.2322L80.754-60.3322L80.746-60.3422C79.502-61.6122 78.806-63.3122 78.806-65.0922C78.806-66.8622 79.502-68.5722 80.746-69.8422L80.754-69.8522L101.042-90.1422ZM82.59-94.0822C89.635-95.3622 96.903-94.4722 103.427-91.5122C103.756-91.3622 103.991-91.0622 104.055-90.7122C104.12-90.3522 104.006-89.9922 103.751-89.7322L82.317-68.3022C82.316-68.3022 82.314-68.3022 82.313-68.3022C81.475-67.4422 81.006-66.2922 81.006-65.0922C81.006-63.8922 81.475-62.7422 82.313-61.8822C82.314-61.8822 82.316-61.8822 82.317-61.8822L91.401-52.7922C91.403-52.7922 91.404-52.7922 91.405-52.7922C92.262-51.9522 93.414-51.4822 94.613-51.4822C95.812-51.4822 96.963-51.9522 97.82-52.7922C97.822-52.7922 97.823-52.7922 97.824-52.7922L119.258-74.2322C119.513-74.4822 119.878-74.6022 120.233-74.5322C120.588-74.4722 120.889-74.2322 121.038-73.9022C123.99-67.3822 124.884-60.1122 123.6-53.0722C122.317-46.0222 118.917-39.5422 113.854-34.4722C108.79-29.4122 102.304-26.0122 95.26-24.7322C88.466-23.4922 81.464-24.2822 75.123-26.9822L36.354 11.7878C33.885 14.2578 30.537 15.6378 27.045 15.6378C23.554 15.6378 20.205 14.2578 17.736 11.7878C15.267 9.31776 13.88 5.96772 13.88 2.47772C13.88-1.01228 15.267-4.36228 17.736-6.83228L56.505-45.6022C53.799-51.9422 53.012-58.9422 54.25-65.7422C55.533-72.7822 58.933-79.2722 63.997-84.3322C69.06-89.3922 75.546-92.7922 82.59-94.0822Z"/>
  </g>
  <g id="Black-M" transform="matrix(1 0 0 1 2873.02 1126)">
   <path d="M74.81-73.7054C71.12-72.9054 67.74-71.0554 65.07-68.3854C62.24-65.5554 60.34-61.9354 59.62-57.9954C58.9-54.0654 59.4-50.0054 61.05-46.3654C62.27-43.6654 61.69-40.5054 59.6-38.4154L28.77-7.57546C28.33-7.13546 28.08-6.53546 28.08-5.90546C28.08-5.27546 28.33-4.67546 28.77-4.23546C29.21-3.78546 29.81-3.53546 30.44-3.53546C31.07-3.53546 31.67-3.78546 32.12-4.23546L62.95-35.0654C65.04-37.1554 68.21-37.7354 70.9-36.5154C74.54-34.8654 78.6-34.3654 82.54-35.0854C86.47-35.8054 90.09-37.6954 92.92-40.5254C95.6-43.2054 97.44-46.5854 98.24-50.2754L91.6-43.6354C91.58-43.6154 91.57-43.6054 91.55-43.5854C89.39-41.4654 86.48-40.2754 83.46-40.2754C80.43-40.2754 77.52-41.4654 75.36-43.5854C75.35-43.6054 75.33-43.6154 75.31-43.6354L68.17-50.7754C68.16-50.7954 68.14-50.8054 68.12-50.8254C66-52.9854 64.82-55.8954 64.82-58.9154C64.82-61.9454 66-64.8554 68.12-67.0154C68.14-67.0254 68.16-67.0454 68.17-67.0654L74.81-73.7054ZM72.91-87.7954C79.68-89.0354 86.67-88.1754 92.94-85.3354C95.07-84.3754 96.58-82.4354 97-80.1354C97.42-77.8454 96.69-75.4954 95.04-73.8454L80.11-58.9154L83.46-55.5754L98.38-70.4954C100.03-72.1454 102.38-72.8854 104.68-72.4654C106.97-72.0454 108.91-70.5254 109.87-68.4054C112.71-62.1354 113.57-55.1454 112.34-48.3654C111.1-41.5954 107.83-35.3554 102.96-30.4854C98.09-25.6154 91.86-22.3454 85.08-21.1154C79.98-20.1854 74.76-20.4454 69.81-21.8354L42.16 5.80454C39.05 8.91454 34.84 10.6646 30.44 10.6646C26.05 10.6646 21.83 8.91454 18.73 5.80454C15.62 2.70454 13.88-1.51546 13.88-5.90546C13.88-10.2955 15.62-14.5154 18.73-17.6154L46.38-45.2654C44.98-50.2154 44.72-55.4454 45.65-60.5454C46.89-67.3154 50.16-73.5554 55.02-78.4254C59.89-83.2954 66.13-86.5654 72.91-87.7954Z"/>
  </g>
  <g id="Heavy-M" transform="matrix(1 0 0 1 2577.16 1126)">
   <path d="M76.39-74.8856C75.74-74.8256 75.09-74.7456 74.45-74.6256C70.34-73.8756 66.57-71.8956 63.61-68.9456C60.66-65.9956 58.68-62.2156 57.94-58.1156C57.19-54.0056 57.71-49.7756 59.43-45.9656C60.5-43.5956 59.99-40.8156 58.15-38.9756L27.32-8.13552C26.71-7.53552 26.38-6.71552 26.38-5.86552C26.38-5.00552 26.71-4.19552 27.32-3.58552C27.92-2.98552 28.74-2.64552 29.59-2.64552C30.45-2.64552 31.26-2.98552 31.87-3.58552L62.7-34.4256C64.54-36.2656 67.33-36.7756 69.7-35.6956C73.5-33.9756 77.74-33.4556 81.84-34.2056C85.94-34.9556 89.72-36.9356 92.67-39.8856C95.62-42.8356 97.61-46.6156 98.35-50.7156C98.47-51.3656 98.56-52.0056 98.61-52.6556L90.15-44.1956C90.14-44.1756 90.12-44.1656 90.11-44.1556C88.1-42.1856 85.41-41.0856 82.61-41.0856C79.8-41.0856 77.11-42.1856 75.11-44.1556C75.09-44.1656 75.08-44.1756 75.06-44.1956L67.92-51.3356C67.92-51.3456 67.91-51.3456 67.9-51.3556C67.89-51.3656 67.89-51.3756 67.88-51.3756C65.92-53.3856 64.82-56.0756 64.82-58.8756C64.82-61.6856 65.92-64.3756 67.88-66.3756C67.89-66.3956 67.91-66.4056 67.92-66.4256L76.39-74.8856ZM72.21-86.9256C78.81-88.1256 85.63-87.2856 91.74-84.5156C93.61-83.6756 94.95-81.9656 95.32-79.9456C95.68-77.9256 95.04-75.8556 93.59-74.4056L78.06-58.8756L82.61-54.3256L98.13-69.8556C99.59-71.3056 101.66-71.9556 103.67-71.5856C105.69-71.2156 107.4-69.8856 108.25-68.0156C111.02-61.8956 111.85-55.0856 110.65-48.4756C109.45-41.8756 106.26-35.7956 101.51-31.0456C96.77-26.2956 90.69-23.1156 84.08-21.9056C78.94-20.9756 73.68-21.2756 68.71-22.7556L40.71 5.25448C37.76 8.19448 33.76 9.85444 29.59 9.85444C25.42 9.85444 21.43 8.19448 18.48 5.25448C15.53 2.30448 13.88-1.69552 13.88-5.86552C13.88-10.0355 15.53-14.0256 18.48-16.9756L46.48-44.9856C45-49.9456 44.7-55.2156 45.64-60.3556C46.84-66.9556 50.03-73.0356 54.78-77.7856C59.52-82.5356 65.6-85.7156 72.21-86.9256Z"/>
  </g>
  <g id="Bold-M" transform="matrix(1 0 0 1 2281.39 1126)">
   <path d="M77.79-75.8578C76.31-75.9078 74.81-75.7878 73.33-75.5178C69.03-74.7378 65.08-72.6678 61.99-69.5778C58.91-66.4978 56.83-62.5378 56.05-58.2478C55.27-53.9478 55.81-49.5178 57.61-45.5378C58.52-43.5278 58.09-41.1678 56.53-39.6078L25.7-8.76774C24.92-7.98774 24.48-6.92774 24.48-5.82774C24.48-4.71774 24.92-3.65774 25.7-2.87774C26.48-2.09774 27.54-1.65774 28.64-1.65774C29.75-1.65774 30.81-2.09774 31.59-2.87774L62.43-33.7178C63.99-35.2778 66.35-35.7078 68.36-34.7978C72.34-32.9978 76.77-32.4478 81.06-33.2378C85.36-34.0178 89.31-36.0878 92.4-39.1778C95.48-42.2678 97.56-46.2178 98.34-50.5078C98.61-51.9978 98.72-53.4878 98.68-54.9778L88.53-44.8278L88.49-44.7878C86.67-43.0078 84.21-41.9978 81.66-41.9978C79.1-41.9978 76.65-43.0078 74.82-44.7878L74.79-44.8278L67.65-51.9678L67.61-52.0078C65.82-53.8278 64.82-56.2878 64.82-58.8378C64.82-61.3978 65.82-63.8478 67.61-65.6778L67.65-65.7078L77.79-75.8578ZM71.43-85.9478C77.84-87.1178 84.46-86.3078 90.4-83.6178C91.99-82.8978 93.12-81.4478 93.43-79.7378C93.74-78.0278 93.2-76.2678 91.97-75.0378L75.77-58.8378L81.66-52.9478L97.86-69.1478C99.09-70.3778 100.84-70.9278 102.56-70.6178C104.27-70.3078 105.72-69.1678 106.43-67.5878C109.12-61.6478 109.94-55.0278 108.77-48.6078C107.6-42.1978 104.5-36.2878 99.89-31.6778C95.28-27.0678 89.38-23.9778 82.96-22.8078C77.78-21.8678 72.47-22.2078 67.49-23.7978L39.08 4.61226C36.32 7.38226 32.56 8.94226 28.64 8.94226C24.73 8.94226 20.97 7.38226 18.2 4.61226C15.43 1.84226 13.88-1.90774 13.88-5.82774C13.88-9.73774 15.43-13.4978 18.2-16.2678L46.61-44.6778C45.03-49.6578 44.68-54.9678 45.62-60.1478C46.79-66.5578 49.89-72.4678 54.5-77.0778C59.11-81.6878 65.01-84.7778 71.43-85.9478Z"/>
  </g>
  <g id="Semibold-M" transform="matrix(1 0 0 1 1985.33 1126)">
   <path d="M78.63-76.3964C76.62-76.5964 74.58-76.5064 72.57-76.1464C68.14-75.3364 64.07-73.1964 60.89-70.0164C57.71-66.8364 55.57-62.7664 54.77-58.3364C53.96-53.9164 54.52-49.3464 56.38-45.2564C57.17-43.4864 56.8-41.4164 55.43-40.0464L24.59-9.21646C23.69-8.30646 23.18-7.08646 23.18-5.80646C23.18-4.52646 23.69-3.30646 24.59-2.39646C25.5-1.49645 26.72-0.986454 28-0.986454C29.28-0.986454 30.5-1.49645 31.4-2.39646L62.24-33.2364C63.61-34.6064 65.68-34.9864 67.44-34.1864C71.54-32.3264 76.11-31.7664 80.53-32.5764C84.96-33.3864 89.03-35.5164 92.21-38.6964C95.39-41.8764 97.53-45.9564 98.33-50.3764C98.7-52.3864 98.78-54.4264 98.59-56.4364L87.42-45.2664L87.39-45.2364C85.69-43.5664 83.4-42.6364 81.01-42.6364C78.63-42.6364 76.34-43.5664 74.63-45.2364L74.6-45.2664L67.46-52.4064L67.43-52.4464C65.76-54.1464 64.82-56.4364 64.82-58.8164C64.82-61.2064 65.76-63.4964 67.43-65.1964L67.46-65.2364L78.63-76.3964ZM70.9-85.2864C77.19-86.4364 83.67-85.6364 89.49-83.0064C90.88-82.3764 91.87-81.1064 92.15-79.6064C92.42-78.0964 91.94-76.5564 90.86-75.4764L74.2-58.8164L81.01-52.0064L97.67-68.6664C98.75-69.7464 100.29-70.2264 101.79-69.9564C103.3-69.6864 104.57-68.6864 105.2-67.2964C107.83-61.4764 108.63-54.9964 107.48-48.7064C106.34-42.4264 103.3-36.6364 98.79-32.1264C94.27-27.6064 88.48-24.5664 82.2-23.4264C77-22.4764 71.66-22.8664 66.67-24.5164L37.98 4.17354C35.33 6.82354 31.74 8.31354 28 8.31354C24.25 8.31354 20.66 6.82354 18.02 4.17354C15.37 1.52354 13.88-2.06646 13.88-5.80646C13.88-9.54646 15.37-13.1364 18.02-15.7864L46.71-44.4764C45.05-49.4664 44.67-54.8064 45.62-60.0064C46.76-66.2964 49.8-72.0764 54.31-76.5964C58.83-81.1164 64.62-84.1464 70.9-85.2864Z"/>
  </g>
  <g id="Medium-M" transform="matrix(1 0 0 1 1689.12 1126)">
   <path d="M79.21-76.7562C76.82-77.0962 74.38-77.0462 71.98-76.6162C67.45-75.7862 63.29-73.6062 60.04-70.3562C56.78-67.0962 54.6-62.9362 53.78-58.4062C52.95-53.8862 53.52-49.2162 55.42-45.0262C56.13-43.4562 55.8-41.6062 54.57-40.3862L23.74-9.54622C22.74-8.54622 22.18-7.19622 22.18-5.78622C22.18-4.37622 22.74-3.02622 23.74-2.02622C24.74-1.02622 26.09-0.46622 27.5-0.46622C28.91-0.46622 30.26-1.02622 31.26-2.02622L62.09-32.8662C63.31-34.0862 65.16-34.4262 66.74-33.7062C70.93-31.8162 75.6-31.2362 80.12-32.0662C84.65-32.8862 88.81-35.0762 92.06-38.3262C95.32-41.5762 97.5-45.7462 98.32-50.2662C98.76-52.6662 98.81-55.1062 98.47-57.4962L86.57-45.6062L86.54-45.5762C84.93-43.9962 82.77-43.1162 80.51-43.1162C78.26-43.1162 76.09-43.9962 74.48-45.5762L74.45-45.6062L67.31-52.7462L67.29-52.7762C65.71-54.3862 64.82-56.5462 64.82-58.7962C64.82-61.0562 65.71-63.2162 67.29-64.8262L67.31-64.8562L79.21-76.7562ZM70.49-84.7762C76.67-85.9062 83.06-85.1162 88.78-82.5262C90.02-81.9662 90.91-80.8362 91.16-79.4962C91.4-78.1562 90.97-76.7762 90.01-75.8162L73.21-59.0162C73.15-58.9562 73.12-58.8762 73.12-58.7962C73.12-58.7262 73.15-58.6462 73.21-58.5862L80.3-51.4962C80.36-51.4462 80.43-51.4162 80.51-51.4162C80.59-51.4162 80.67-51.4462 80.72-51.4962L97.53-68.2962C98.49-69.2562 99.86-69.6862 101.2-69.4462C102.54-69.1962 103.68-68.3162 104.24-67.0762C106.83-61.3462 107.62-54.9662 106.49-48.7762C105.36-42.5962 102.38-36.8962 97.93-32.4562C93.49-28.0062 87.79-25.0262 81.61-23.8962C76.39-22.9462 71.03-23.3562 66.04-25.0662L37.13 3.84378C34.57 6.39378 31.11 7.83378 27.5 7.83378C23.89 7.83378 20.42 6.39378 17.87 3.84378C15.32 1.28378 13.88-2.17622 13.88-5.78622C13.88-9.39622 15.32-12.8562 17.87-15.4162L46.78-44.3262C45.07-49.3162 44.66-54.6762 45.61-59.8962C46.74-66.0862 49.72-71.7762 54.17-76.2262C58.61-80.6662 64.31-83.6562 70.49-84.7762Z"/>
  </g>
  <g id="Regular-M" transform="matrix(1 0 0 1 1393.06 1126)">
   <path d="M79.91-77.15C77.06-77.71 74.11-77.74 71.21-77.21C66.56-76.37 62.27-74.12 58.93-70.77C55.58-67.43 53.33-63.14 52.49-58.49C51.64-53.83 52.23-49.03 54.18-44.72C54.78-43.39 54.5-41.83 53.46-40.8L22.63-9.97002C21.51-8.85002 20.88-7.33002 20.88-5.75002C20.88-4.17002 21.51-2.65002 22.63-1.53002C23.75-0.410016 25.27 0.219984 26.85 0.219984C28.43 0.219984 29.95-0.410016 31.07-1.53002L61.9-32.36C62.93-33.39 64.49-33.68 65.82-33.08C70.13-31.13 74.93-30.54 79.59-31.39C84.24-32.23 88.53-34.48 91.87-37.83C95.22-41.17 97.47-45.46 98.31-50.11C98.84-53 98.81-55.96 98.25-58.81L85.46-46.02L85.44-46C83.95-44.54 81.95-43.72 79.86-43.72C77.78-43.72 75.78-44.54 74.29-46L74.26-46.02L67.12-53.16L67.1-53.19C65.64-54.68 64.82-56.68 64.82-58.76C64.82-60.85 65.64-62.85 67.1-64.34L67.12-64.36L79.91-77.15ZM69.96-84.1C76.01-85.2 82.26-84.44 87.87-81.9C88.91-81.42 89.66-80.47 89.87-79.34C90.07-78.21 89.71-77.05 88.9-76.23L72.09-59.43C71.92-59.25 71.82-59.01 71.82-58.76C71.82-58.51 71.92-58.28 72.09-58.1L79.2-50.99C79.38-50.82 79.61-50.72 79.86-50.72C80.11-50.72 80.35-50.82 80.53-50.99L97.33-67.8C98.15-68.61 99.31-68.97 100.44-68.77C101.57-68.56 102.52-67.81 103-66.77C105.54-61.16 106.3-54.91 105.2-48.86C104.1-42.8 101.18-37.23 96.82-32.88C92.47-28.52 86.9-25.6 80.84-24.5C75.6-23.54 70.21-23.99 65.22-25.78L36.02 3.41998C33.58 5.84998 30.29 7.21998 26.85 7.21998C23.41 7.21998 20.11 5.84998 17.68 3.41998C15.25 0.989982 13.88-2.31002 13.88-5.75002C13.88-9.19002 15.25-12.48 17.68-14.92L46.88-44.12C45.09-49.11 44.64-54.5 45.6-59.74C46.7-65.8 49.62-71.37 53.98-75.72C58.33-80.08 63.9-83 69.96-84.1Z"/>
  </g>
  <g id="Light-M" transform="matrix(1 0 0 1 1097.15 1126)">
   <path d="M80.7-77.5782C77.31-78.4682 73.75-78.6082 70.27-77.9782C65.45-77.0982 61.02-74.7782 57.56-71.3182C54.1-67.8582 51.78-63.4282 50.9-58.6082C50.02-53.7982 50.63-48.8282 52.65-44.3682C53.11-43.3482 52.89-42.1382 52.1-41.3482L21.26-10.5082C19.99-9.2382 19.28-7.5182 19.28-5.7282C19.28-3.9282 19.99-2.2082 21.26-0.938206C22.53 0.331794 24.25 1.0418 26.05 1.0418C27.84 1.0418 29.56 0.331794 30.83-0.938206L61.67-31.7782C62.46-32.5682 63.67-32.7882 64.69-32.3282C69.15-30.3082 74.12-29.6982 78.93-30.5782C83.75-31.4482 88.18-33.7782 91.64-37.2382C95.1-40.6982 97.42-45.1282 98.3-49.9482C98.94-53.4282 98.79-56.9882 97.9-60.3782L84.1-46.5682L84.08-46.5482C82.74-45.2382 80.94-44.4982 79.06-44.4982C77.19-44.4982 75.39-45.2382 74.05-46.5482L74.03-46.5682L66.89-53.7082L66.87-53.7282C65.56-55.0682 64.82-56.8682 64.82-58.7382C64.82-60.6182 65.56-62.4182 66.87-63.7582L66.89-63.7682L80.7-77.5782ZM69.3-83.2882C75.2-84.3682 81.28-83.6182 86.74-81.1482C87.54-80.7782 88.12-80.0382 88.28-79.1682C88.44-78.2982 88.16-77.4082 87.53-76.7782L70.72-59.9682C70.4-59.6382 70.22-59.1982 70.22-58.7382C70.22-58.2782 70.4-57.8382 70.72-57.5182L77.84-50.3982C78.17-50.0782 78.6-49.8982 79.06-49.8982C79.52-49.8982 79.96-50.0782 80.29-50.3982L97.1-67.2082C97.73-67.8382 98.62-68.1182 99.49-67.9582C100.37-67.7982 101.1-67.2182 101.47-66.4082C103.94-60.9582 104.69-54.8682 103.61-48.9782C102.54-43.0782 99.7-37.6582 95.46-33.4182C91.22-29.1782 85.79-26.3382 79.9-25.2682C74.63-24.2982 69.2-24.7982 64.21-26.6882L34.65 2.8818C32.37 5.1618 29.27 6.4418 26.05 6.4418C22.82 6.4418 19.73 5.1618 17.45 2.8818C15.16 0.591797 13.88-2.4982 13.88-5.7282C13.88-8.9482 15.16-12.0482 17.45-14.3282L47.01-43.8882C45.12-48.8782 44.63-54.3082 45.59-59.5782C46.66-65.4682 49.51-70.8982 53.74-75.1382C57.98-79.3682 63.41-82.2182 69.3-83.2882Z"/>
  </g>
  <g id="Thin-M" transform="matrix(1 0 0 1 801.488 1126)">
   <path d="M81.628-78.033C77.589-79.413 73.252-79.743 69.028-78.973C64.003-78.053 59.377-75.633 55.766-72.013C52.154-68.403 49.729-63.783 48.814-58.753C47.898-53.733 48.536-48.543 50.641-43.893C50.925-43.263 50.791-42.533 50.305-42.043L19.469-11.213C18.003-9.74296 17.18-7.75296 17.18-5.68296C17.18-3.61296 18.003-1.62296 19.469-0.152958C20.935 1.30704 22.923 2.13704 24.996 2.13704C27.069 2.13704 29.057 1.30704 30.523-0.152958L61.359-30.993C61.845-31.473 62.58-31.613 63.206-31.333C67.859-29.223 73.043-28.583 78.068-29.503C83.093-30.413 87.719-32.843 91.33-36.453C94.942-40.063 97.367-44.693 98.282-49.713C99.052-53.943 98.724-58.273 97.349-62.313L82.301-47.263L82.289-47.253C81.147-46.133 79.61-45.513 78.011-45.513C76.411-45.513 74.874-46.133 73.732-47.253L73.72-47.263L66.58-54.403L66.568-54.423C65.448-55.563 64.821-57.093 64.821-58.693C64.821-60.293 65.448-61.833 66.568-62.973L66.58-62.993L81.628-78.033ZM68.437-82.213C74.121-83.253 79.986-82.533 85.251-80.153C85.744-79.923 86.097-79.473 86.194-78.943C86.291-78.403 86.12-77.863 85.737-77.483L68.92-60.663C68.408-60.133 68.121-59.433 68.121-58.693C68.121-57.963 68.408-57.263 68.92-56.733L76.047-49.603C76.572-49.093 77.277-48.813 78.011-48.813C78.744-48.813 79.449-49.093 79.974-49.603C79.976-49.613 79.978-49.613 79.979-49.613L96.791-66.423C97.174-66.803 97.721-66.973 98.254-66.883C98.787-66.783 99.238-66.433 99.461-65.933C101.843-60.673 102.565-54.813 101.529-49.123C100.493-43.443 97.75-38.203 93.664-34.123C89.578-30.033 84.344-27.293 78.659-26.253C73.353-25.283 67.889-25.853 62.903-27.873L32.857 2.17704C30.772 4.26704 27.944 5.43704 24.996 5.43704C22.048 5.43704 19.22 4.26704 17.136 2.17704C15.051 0.0970422 13.88-2.73296 13.88-5.68296C13.88-8.63296 15.051-11.463 17.136-13.543L47.182-43.593C45.165-48.573 44.6-54.043 45.567-59.343C46.603-65.033 49.347-70.263 53.432-74.353C57.518-78.433 62.752-81.183 68.437-82.213Z"/>
  </g>
  <g id="Ultralight-M" transform="matrix(1 0 0 1 505.326 1126)">
   <path d="M82.081-78.2428C77.722-79.8928 72.986-80.3328 68.38-79.4928C63.246-78.5528 58.518-76.0728 54.828-72.3828C51.137-68.6928 48.659-63.9628 47.723-58.8328C46.788-53.7028 47.439-48.4028 49.591-43.6428C49.78-43.2328 49.691-42.7328 49.367-42.4128L18.531-11.5828C16.962-10.0127 16.08-7.88272 16.08-5.66272C16.08-3.44272 16.962-1.31273 18.531 0.257272C20.1 1.82728 22.228 2.70728 24.447 2.70728C26.666 2.70728 28.794 1.82728 30.363 0.257272L61.199-30.5828C61.522-30.9028 62.013-30.9928 62.43-30.8028C67.185-28.6528 72.483-28.0028 77.617-28.9428C82.752-29.8728 87.48-32.3528 91.17-36.0428C94.861-39.7328 97.339-44.4628 98.274-49.5928C99.113-54.2028 98.676-58.9328 97.024-63.2928L81.363-47.6328L81.355-47.6228C80.315-46.6128 78.917-46.0328 77.461-46.0328C76.005-46.0328 74.607-46.6128 73.568-47.6228L73.56-47.6328L66.412-54.7828C65.393-55.8228 64.822-57.2228 64.822-58.6728C64.822-60.1328 65.393-61.5328 66.412-62.5728L66.42-62.5828L82.081-78.2428ZM67.986-81.6528C73.561-82.6728 79.312-81.9628 84.475-79.6228C84.804-79.4728 85.039-79.1728 85.103-78.8228C85.168-78.4628 85.054-78.1028 84.799-77.8428L68.02-61.0628L67.983-61.0328C67.982-61.0328 67.981-61.0328 67.98-61.0228C67.366-60.4028 67.022-59.5528 67.022-58.6728C67.022-57.8028 67.366-56.9528 67.98-56.3228C67.981-56.3228 67.982-56.3228 67.983-56.3228L75.108-49.2028C75.109-49.1928 75.11-49.1928 75.111-49.1928C75.739-48.5828 76.583-48.2328 77.461-48.2328C78.34-48.2328 79.183-48.5828 79.811-49.1928C79.813-49.1928 79.814-49.1928 79.815-49.2028L96.631-66.0128C96.886-66.2728 97.251-66.3828 97.606-66.3228C97.961-66.2528 98.262-66.0228 98.411-65.6928C100.747-60.5228 101.454-54.7728 100.439-49.2028C99.423-43.6228 96.732-38.4928 92.726-34.4828C88.719-30.4828 83.586-27.7928 78.012-26.7728C72.688-25.8028 67.203-26.4028 62.224-28.4928L31.918 1.80728C29.937 3.78728 27.249 4.90728 24.447 4.90728C21.644 4.90728 18.957 3.78728 16.975 1.80728C14.994-0.172728 13.88-2.86272 13.88-5.66272C13.88-8.46272 14.994-11.1528 16.975-13.1328L47.281-43.4428C45.19-48.4228 44.589-53.9028 45.559-59.2228C46.575-64.8028 49.265-69.9328 53.272-73.9428C57.279-77.9428 62.411-80.6428 67.986-81.6528Z"/>
  </g>
  <g id="Black-S" transform="matrix(1 0 0 1 2882.16 696)">
   <path d="M54.38-57.3536C53.62-56.0016 53.07-54.5216 52.79-52.9746C52.29-50.1946 52.64-47.3266 53.8-44.7526C55.02-42.0596 54.45-38.8946 52.36-36.8046L28.17-12.6196C28.11-12.5586 28.08-12.4766 28.08-12.3906C28.08-12.3036 28.11-12.2216 28.17-12.1606C28.23-12.0996 28.31-12.0656 28.4-12.0656C28.49-12.0656 28.57-12.0996 28.63-12.1606L31.87-8.92156L28.63-12.1606L52.81-36.3456C54.9-38.4356 58.07-39.0116 60.76-37.7936C63.34-36.6286 66.2-36.2756 68.98-36.7826C70.53-37.0646 72.01-37.6056 73.36-38.3736C72.28-38.0106 71.14-37.8196 69.98-37.8196C67.21-37.8196 64.54-38.9076 62.56-40.8496C62.54-40.8666 62.53-40.8826 62.51-40.8996L56.91-46.4996C56.89-46.5166 56.88-46.5336 56.86-46.5506C54.92-48.5316 53.83-51.1956 53.83-53.9706C53.83-55.1316 54.02-56.2726 54.38-57.3536ZM61.43-78.1276C67.05-79.1516 72.85-78.4386 78.05-76.0836C80.18-75.1226 81.69-73.1806 82.11-70.8876C82.53-68.5946 81.79-66.2426 80.15-64.5946L69.52-53.9706L69.98-53.5106L80.6-64.1356C82.25-65.7836 84.6-66.5176 86.9-66.1006C89.19-65.6826 91.13-64.1656 92.09-62.0426C94.45-56.8386 95.16-51.0396 94.14-45.4206C93.11-39.8006 90.4-34.6266 86.36-30.5876C82.32-26.5486 77.15-23.8366 71.53-22.8126C67.6-22.0956 63.58-22.2306 59.73-23.1826L38.67-2.11956C35.95 0.604436 32.25 2.13444 28.4 2.13444C24.55 2.13444 20.85 0.604436 18.13-2.11956C15.41-4.84356 13.88-8.53756 13.88-12.3906C13.88-16.2426 15.41-19.9366 18.13-22.6606L39.19-43.7236C38.24-47.5666 38.11-51.5866 38.82-55.5196C39.85-61.1396 42.56-66.3136 46.6-70.3526C50.64-74.3916 55.81-77.1036 61.43-78.1276Z"/>
  </g>
  <g id="Heavy-S" transform="matrix(1 0 0 1 2586.3 696)">
   <path d="M59.9-64.044C58.15-63.308 56.55-62.235 55.19-60.877C53.07-58.756 51.64-56.04 51.11-53.091C50.57-50.141 50.94-47.097 52.18-44.366C53.25-41.996 52.74-39.209 50.9-37.37L26.72-13.185C26.5-12.964 26.38-12.666 26.38-12.354C26.38-12.042 26.5-11.744 26.72-11.523C26.94-11.303 27.24-11.179 27.55-11.179C27.86-11.179 28.16-11.303 28.38-11.523L52.57-35.708C54.41-37.548 57.19-38.056 59.56-36.983C62.29-35.747 65.34-35.373 68.29-35.91C71.24-36.448 73.95-37.871 76.07-39.991C77.43-41.35 78.5-42.953 79.24-44.705L76-41.465C75.99-41.45 75.97-41.435 75.96-41.421C74.13-39.634 71.68-38.633 69.13-38.633C66.58-38.633 64.13-39.634 62.31-41.421C62.3-41.425 62.3-41.43 62.29-41.435C62.28-41.445 62.27-41.455 62.26-41.465L56.66-47.065C56.65-47.079 56.63-47.094 56.62-47.109C54.83-48.932 53.83-51.382 53.83-53.934C53.83-56.486 54.83-58.936 56.62-60.759C56.63-60.774 56.65-60.789 56.66-60.803L59.9-64.044ZM60.73-77.255C66.18-78.248 71.81-77.557 76.85-75.273C78.72-74.427 80.06-72.718 80.42-70.699C80.79-68.681 80.15-66.61 78.69-65.16L67.47-53.934L69.13-52.273L80.36-63.498C81.81-64.949 83.88-65.596 85.9-65.228C87.91-64.86 89.62-63.525 90.47-61.656C92.75-56.609 93.44-50.986 92.45-45.537C91.46-40.087 88.83-35.069 84.91-31.153C80.99-27.236 75.98-24.606 70.53-23.613C66.56-22.889 62.49-23.06 58.63-24.09L37.22-2.68496C34.66-0.11997 31.18 1.32104 27.55 1.32104C23.92 1.32104 20.45-0.11997 17.88-2.68496C15.32-5.24896 13.88-8.72696 13.88-12.354C13.88-15.981 15.32-19.459 17.88-22.023L39.29-43.429C38.26-47.295 38.09-51.359 38.81-55.331C39.8-60.781 42.43-65.799 46.35-69.715C50.27-73.632 55.28-76.262 60.73-77.255Z"/>
  </g>
  <g id="Bold-S" transform="matrix(1 0 0 1 2290.54 696)">
   <path d="M62.21-65.7076C62.09-65.6886 61.97-65.6686 61.86-65.6476C58.72-65.0756 55.83-63.5606 53.57-61.3036C51.31-59.0466 49.8-56.1556 49.23-53.0166C48.65-49.8766 49.05-46.6366 50.37-43.7296C51.28-41.7196 50.85-39.3566 49.29-37.7966L25.1-13.6116C24.7-13.2136 24.48-12.6726 24.48-12.1096C24.48-11.5456 24.7-11.0056 25.1-10.6066C25.5-10.2087 26.04-9.9847 26.61-9.9847C27.17-9.9847 27.71-10.2087 28.11-10.6066L52.29-34.7916C53.85-36.3516 56.22-36.7826 58.23-35.8726C61.13-34.5576 64.37-34.1586 67.51-34.7306C70.65-35.3026 73.54-36.8186 75.8-39.0746C78.06-41.3316 79.57-44.2226 80.14-47.3626C80.16-47.4786 80.18-47.5956 80.2-47.7126L74.38-41.8916L74.35-41.8546C72.7-40.2416 70.49-39.3386 68.19-39.3386C65.88-39.3386 63.67-40.2416 62.03-41.8546L61.99-41.8916L56.39-47.4916L56.35-47.5296C54.74-49.1746 53.83-51.3856 53.83-53.6896C53.83-55.9926 54.74-58.2046 56.35-59.8496L56.39-59.8866L62.21-65.7076ZM59.96-76.0766C65.22-77.0346 70.64-76.3666 75.52-74.1626C77.1-73.4456 78.23-71.9956 78.54-70.2846C78.86-68.5726 78.31-66.8166 77.08-65.5866L65.18-53.6896L68.19-50.6846L80.08-62.5816C81.31-63.8126 83.07-64.3606 84.78-64.0486C86.49-63.7366 87.94-62.6046 88.66-61.0196C90.86-56.1486 91.53-50.7216 90.57-45.4626C89.61-40.2026 87.08-35.3596 83.29-31.5796C79.51-27.7996 74.67-25.2606 69.41-24.3026C65.4-23.5716 61.29-23.7866 57.4-24.9096L35.6-3.1117C33.22-0.725696 29.98 0.615302 26.61 0.615302C23.23 0.615302 19.99-0.725696 17.61-3.1117C15.22-5.4977 13.88-8.7347 13.88-12.1096C13.88-15.4846 15.22-18.7206 17.61-21.1066L39.4-42.9046C38.28-46.7916 38.07-50.9026 38.8-54.9166C39.76-60.1756 42.3-65.0186 46.08-68.7986C49.86-72.5796 54.7-75.1176 59.96-76.0766Z"/>
  </g>
  <g id="Semibold-S" transform="matrix(1 0 0 1 1994.48 696)">
   <path d="M63.3-66.511C62.56-66.479 61.82-66.396 61.09-66.262C57.82-65.666 54.81-64.088 52.46-61.738C50.11-59.388 48.53-56.378 47.93-53.108C47.34-49.838 47.75-46.464 49.12-43.436C49.92-41.673 49.54-39.6 48.17-38.231L23.99-14.046C23.47-13.526 23.18-12.82 23.18-12.084C23.18-11.348 23.47-10.643 23.99-10.1219C24.51-9.60192 25.21-9.30992 25.95-9.30992C26.69-9.30992 27.39-9.60192 27.91-10.1219L52.1-34.307C53.47-35.676 55.54-36.054 57.3-35.256C60.33-33.886 63.7-33.471 66.97-34.066C70.24-34.662 73.25-36.24 75.6-38.59C77.95-40.941 79.53-43.951 80.13-47.221C80.26-47.955 80.34-48.695 80.38-49.435L73.27-42.326L73.23-42.294C71.71-40.8 69.66-39.964 67.53-39.964C65.4-39.964 63.35-40.8 61.82-42.294L61.79-42.326L56.19-47.926L56.16-47.959C54.67-49.483 53.83-51.531 53.83-53.664C53.83-55.798 54.67-57.846 56.16-59.369L56.19-59.402L63.3-66.511ZM59.42-75.412C64.55-76.346 69.84-75.695 74.59-73.546C75.98-72.916 76.98-71.645 77.25-70.143C77.52-68.641 77.04-67.101 75.96-66.021L63.61-53.664L67.53-49.74L79.89-62.097C80.97-63.177 82.51-63.658 84.01-63.384C85.51-63.11 86.78-62.117 87.41-60.726C89.56-55.976 90.21-50.683 89.28-45.554C88.34-40.424 85.87-35.701 82.18-32.014C78.49-28.327 73.77-25.852 68.64-24.917C64.6-24.181 60.46-24.428 56.56-25.617L34.49-3.54592C32.22-1.28192 29.15-0.00992155 25.95-0.00992155C22.75-0.00992155 19.68-1.28192 17.41-3.54592C15.15-5.81092 13.88-8.88192 13.88-12.084C13.88-15.287 15.15-18.358 17.41-20.622L39.48-42.694C38.29-46.592 38.05-50.734 38.78-54.775C39.72-59.904 42.19-64.627 45.88-68.314C49.57-72.001 54.29-74.477 59.42-75.412Z"/>
  </g>
  <g id="Medium-S" transform="matrix(1 0 0 1 1698.27 696)">
   <path d="M64.02-66.9998C62.84-67.0338 61.66-66.9468 60.5-66.7338C57.13-66.1198 54.02-64.4938 51.6-62.0718C49.18-59.6498 47.55-56.5468 46.94-53.1768C46.33-49.8078 46.75-46.3308 48.17-43.2098C48.88-41.6368 48.54-39.7858 47.32-38.5648L23.13-14.3798C22.52-13.7658 22.18-12.9328 22.18-12.0638C22.18-11.1958 22.52-10.3627 23.13-9.74874C23.75-9.13474 24.58-8.78974 25.45-8.78974C26.32-8.78974 27.15-9.13474 27.77-9.74874L51.95-33.9338C53.17-35.1548 55.02-35.4918 56.6-34.7798C59.72-33.3678 63.19-32.9408 66.56-33.5538C69.93-34.1678 73.04-35.7948 75.46-38.2168C77.88-40.6388 79.51-43.7408 80.12-47.1108C80.33-48.2778 80.42-49.4568 80.39-50.6308L72.41-42.6598L72.38-42.6308C70.95-41.2288 69.03-40.4438 67.03-40.4438C65.03-40.4438 63.1-41.2288 61.67-42.6308L61.65-42.6598L56.05-48.2598L56.02-48.2888C54.61-49.7188 53.83-51.6418 53.83-53.6438C53.83-55.6468 54.61-57.5688 56.02-58.9988L56.05-59.0288L64.02-66.9998ZM59.01-74.8998C64.04-75.8158 69.23-75.1778 73.89-73.0698C75.13-72.5088 76.01-71.3728 76.26-70.0328C76.5-68.6928 76.07-67.3178 75.11-66.3548L62.4-53.6438L67.03-49.0128L79.74-61.7238C80.7-62.6868 82.08-63.1158 83.42-62.8718C84.76-62.6278 85.89-61.7408 86.46-60.4998C88.56-55.8428 89.2-50.6528 88.29-45.6228C87.37-40.5938 84.94-35.9628 81.33-32.3478C77.71-28.7328 73.08-26.3048 68.05-25.3888C63.99-24.6488 59.82-24.9228 55.92-26.1648L33.63-3.87974C31.46-1.70874 28.52-0.489747 25.45-0.489747C22.38-0.489747 19.44-1.70874 17.27-3.87974C15.09-6.04974 13.88-8.99474 13.88-12.0638C13.88-15.1338 15.09-18.0778 17.27-20.2488L39.55-42.5338C38.31-46.4388 38.03-50.6038 38.77-54.6648C39.69-59.6948 42.12-64.3258 45.73-67.9408C49.35-71.5558 53.98-73.9828 59.01-74.8998Z"/>
  </g>
  <g id="Regular-S" transform="matrix(1 0 0 1 1402.21 696)">
   <path d="M64.83-67.518C63.14-67.709 61.42-67.654 59.73-67.345C56.23-66.708 53.01-65.019 50.49-62.503C47.98-59.988 46.29-56.765 45.65-53.266C45.01-49.766 45.46-46.155 46.92-42.914C47.52-41.587 47.24-40.026 46.21-38.996L22.03-14.811C21.29-14.075 20.88-13.077 20.88-12.036C20.88-10.995 21.29-9.9971 22.03-9.2611C22.76-8.5251 23.76-8.1111 24.8-8.1111C25.84-8.1111 26.84-8.5251 27.58-9.2611L51.76-33.446C52.79-34.476 54.35-34.76 55.68-34.16C58.92-32.693 62.53-32.249 66.03-32.887C69.53-33.524 72.75-35.213 75.27-37.729C77.78-40.244 79.47-43.467 80.11-46.966C80.42-48.659 80.47-50.378 80.28-52.068L71.31-43.091L71.28-43.066C69.97-41.784 68.21-41.065 66.38-41.065C64.55-41.065 62.79-41.784 61.48-43.066L61.46-43.091L55.86-48.691L55.83-48.716C54.55-50.024 53.83-51.784 53.83-53.616C53.83-55.448 54.55-57.207 55.83-58.516L55.86-58.541L64.83-67.518ZM58.48-74.232C63.38-75.125 68.43-74.503 72.97-72.45C74.01-71.976 74.76-71.019 74.97-69.888C75.17-68.758 74.81-67.599 74-66.786L60.83-53.616L66.38-48.066L79.55-61.236C80.36-62.048 81.52-62.41 82.65-62.204C83.78-61.998 84.74-61.251 85.21-60.204C87.27-55.667 87.89-50.611 87-45.712C86.1-40.812 83.74-36.301 80.22-32.779C76.7-29.258 72.18-26.893 67.28-26C63.2-25.256 59-25.564 55.09-26.878L32.53-4.3111C30.48-2.2621 27.7-1.11109 24.8-1.11109C21.9-1.11109 19.12-2.2621 17.08-4.3111C15.03-6.3601 13.88-9.1391 13.88-12.036C13.88-14.933 15.03-17.712 17.08-19.761L39.64-42.328C38.33-46.24 38.02-50.434 38.76-54.52C39.66-59.42 42.02-63.931 45.54-67.453C49.06-70.974 53.58-73.339 58.48-74.232Z"/>
  </g>
  <g id="Light-S" transform="matrix(1 0 0 1 1106.3 696)">
   <path d="M65.71-68.03C63.44-68.491 61.09-68.519 58.79-68.1C55.13-67.433 51.76-65.666 49.13-63.036C46.5-60.406 44.73-57.036 44.06-53.376C43.4-49.716 43.86-45.94 45.39-42.551C45.86-41.527 45.64-40.324 44.84-39.529L20.66-15.344C19.77-14.458 19.28-13.256 19.28-12.003C19.28-10.75 19.77-9.54794 20.66-8.66194C21.55-7.77594 22.75-7.27894 24-7.27894C25.25-7.27894 26.45-7.77594 27.34-8.66194L51.53-32.847C52.32-33.642 53.52-33.861 54.55-33.398C57.94-31.864 61.71-31.4 65.37-32.067C69.03-32.734 72.4-34.5 75.03-37.13C77.66-39.761 79.43-43.13 80.1-46.79C80.52-49.093 80.49-51.442 80.03-53.712L69.94-43.624L69.92-43.605C68.76-42.469 67.2-41.833 65.58-41.833C63.96-41.833 62.4-42.469 61.24-43.605L61.22-43.624L55.62-49.224L55.6-49.243C54.47-50.402 53.83-51.96 53.83-53.583C53.83-55.206 54.47-56.764 55.6-57.923L55.62-57.942L65.71-68.03ZM57.82-73.412C62.56-74.276 67.45-73.674 71.84-71.688C72.65-71.323 73.22-70.584 73.38-69.712C73.54-68.84 73.26-67.946 72.63-67.319L59.45-54.137C59.31-53.988 59.23-53.79 59.23-53.583C59.23-53.377 59.31-53.178 59.45-53.029L65.03-47.455C65.18-47.313 65.37-47.233 65.58-47.233C65.79-47.233 65.98-47.313 66.13-47.455L79.32-60.637C79.94-61.264 80.84-61.543 81.71-61.384C82.58-61.226 83.32-60.649 83.68-59.841C85.67-55.452 86.27-50.562 85.41-45.822C84.55-41.083 82.26-36.719 78.85-33.312C75.44-29.905 71.08-27.618 66.34-26.754C62.23-26.004 58-26.359 54.08-27.766L31.16-4.84394C29.26-2.94494 26.69-1.87894 24-1.87894C21.31-1.87894 18.74-2.94494 16.84-4.84394C14.94-6.74294 13.88-9.31794 13.88-12.003C13.88-14.688 14.94-17.264 16.84-19.162L39.76-42.084C38.36-46 38-50.229 38.75-54.344C39.61-59.084 41.9-63.448 45.31-66.854C48.72-70.261 53.08-72.548 57.82-73.412Z"/>
  </g>
  <g id="Thin-S" transform="matrix(1 0 0 1 810.633 696)">
   <path d="M66.709-68.5514C63.756-69.4594 60.616-69.6514 57.554-69.0934C53.684-68.3884 50.121-66.5204 47.34-63.7394C44.558-60.9574 42.691-57.3944 41.986-53.5254C41.28-49.6554 41.771-45.6624 43.393-42.0794C43.676-41.4534 43.542-40.7174 43.057-40.2324L18.872-16.0474C17.789-14.9644 17.18-13.4954 17.18-11.9634C17.18-10.4325 17.789-8.96346 18.872-7.88046C19.955-6.79746 21.423-6.18946 22.955-6.18946C24.486-6.18946 25.955-6.79746 27.038-7.88046L51.223-32.0654C51.709-32.5514 52.444-32.6854 53.07-32.4024C56.654-30.7804 60.646-30.2894 64.516-30.9944C68.386-31.6994 71.949-33.5674 74.73-36.3484C77.511-39.1294 79.379-42.6924 80.084-46.5624C80.642-49.6254 80.451-52.7654 79.543-55.7184L68.152-44.3274L68.14-44.3154C67.177-43.3714 65.883-42.8434 64.535-42.8434C63.187-42.8434 61.893-43.3714 60.93-44.3154L60.918-44.3274L55.318-49.9274L55.307-49.9384C54.363-50.9014 53.834-52.1954 53.834-53.5434C53.834-54.8914 54.363-56.1864 55.307-57.1484L55.318-57.1604L66.709-68.5514ZM56.962-72.3394C61.492-73.1654 66.165-72.5904 70.36-70.6924C70.854-70.4684 71.206-70.0174 71.303-69.4844C71.4-68.9514 71.23-68.4054 70.847-68.0224L57.658-54.8334C57.322-54.4884 57.134-54.0254 57.134-53.5434C57.134-53.0614 57.322-52.5994 57.658-52.2534L63.245-46.6674C63.59-46.3314 64.053-46.1434 64.535-46.1434C65.017-46.1434 65.48-46.3314 65.825-46.6674L79.013-59.8554C79.396-60.2384 79.943-60.4094 80.476-60.3124C81.008-60.2144 81.46-59.8624 81.683-59.3694C83.581-55.1744 84.156-50.5004 83.331-45.9714C82.505-41.4414 80.319-37.2704 77.064-34.0154C73.808-30.7594 69.637-28.5734 65.108-27.7474C60.957-26.9914 56.685-27.4114 52.772-28.9474L29.372-5.54746C27.67-3.84546 25.362-2.88946 22.955-2.88946C20.548-2.88946 18.24-3.84546 16.538-5.54746C14.836-7.24846 13.88-9.55746 13.88-11.9634C13.88-14.3704 14.836-16.6784 16.538-18.3804L39.938-41.7804C38.402-45.6934 37.983-49.9654 38.739-54.1164C39.564-58.6464 41.75-62.8164 45.006-66.0724C48.262-69.3284 52.432-71.5144 56.962-72.3394Z"/>
  </g>
  <g id="Ultralight-S" transform="matrix(1 0 0 1 514.473 696)">
   <path d="M67.177-68.7692C63.895-69.9442 60.352-70.2392 56.904-69.6112C52.925-68.8862 49.26-66.9652 46.4-64.1052C43.54-61.2442 41.619-57.5802 40.894-53.6002C40.169-49.6212 40.674-45.5142 42.341-41.8292C42.53-41.4122 42.441-40.9212 42.117-40.5982L17.932-16.4132C16.746-15.2272 16.08-13.6182 16.08-11.9412C16.08-10.2632 16.746-8.65422 17.932-7.46822C19.118-6.28222 20.727-5.61622 22.404-5.61622C24.082-5.61622 25.69-6.28222 26.876-7.46822L51.061-31.6532C51.385-31.9772 51.875-32.0662 52.293-31.8782C55.978-30.2102 60.084-29.7052 64.064-30.4302C68.044-31.1552 71.708-33.0762 74.568-35.9362C77.429-38.7972 79.349-42.4612 80.075-46.4412C80.703-49.8892 80.408-53.4322 79.233-56.7142L67.204-44.6852C66.344-43.8422 65.188-43.3702 63.984-43.3702C62.78-43.3702 61.624-43.8422 60.764-44.6852L60.756-44.6932L55.149-50.3002C54.306-51.1602 53.834-52.3162 53.834-53.5212C53.834-54.7252 54.306-55.8812 55.149-56.7412L55.156-56.7482L67.177-68.7692ZM56.51-71.7752C60.93-72.5812 65.49-72.0202 69.583-70.1682C69.912-70.0192 70.147-69.7182 70.211-69.3632C70.276-69.0072 70.162-68.6432 69.907-68.3882L56.747-55.2282L56.72-55.2012C56.719-55.1992 56.717-55.1982 56.716-55.1972C56.279-54.7492 56.034-54.1472 56.034-53.5212C56.034-52.8942 56.279-52.2922 56.716-51.8442C56.717-51.8432 56.719-51.8422 56.72-51.8412L62.304-46.2562C62.305-46.2552 62.307-46.2542 62.308-46.2532C62.756-45.8152 63.358-45.5702 63.984-45.5702C64.611-45.5702 65.212-45.8152 65.66-46.2532C65.662-46.2542 65.663-46.2552 65.664-46.2562L78.851-59.4432C79.107-59.6992 79.471-59.8122 79.826-59.7482C80.182-59.6832 80.482-59.4482 80.631-59.1192C82.483-55.0262 83.044-50.4662 82.239-46.0462C81.434-41.6272 79.301-37.5572 76.124-34.3812C72.947-31.2042 68.878-29.0712 64.458-28.2662C60.29-27.5062 55.997-27.9622 52.089-29.5702L28.432-5.91322C26.833-4.31422 24.665-3.41622 22.404-3.41622C20.143-3.41622 17.975-4.31422 16.376-5.91322C14.778-7.51122 13.88-9.68022 13.88-11.9412C13.88-14.2012 14.778-16.3702 16.376-17.9682L40.033-41.6252C38.425-45.5342 37.97-49.8272 38.729-53.9952C39.535-58.4142 41.668-62.4842 44.844-65.6602C48.021-68.8372 52.09-70.9702 56.51-71.7752Z"/>
  </g>
 </g>
</svg>
