<?xml version="1.0" encoding="UTF-8"?>
<!--Generator: Apple Native CoreSVG 175-->
<!DOCTYPE svg
PUBLIC "-//W3C//DTD SVG 1.1//EN"
       "http://www.w3.org/Graphics/SVG/1.1/DTD/svg11.dtd">
<svg version="1.1" xmlns="http://www.w3.org/2000/svg" xmlns:xlink="http://www.w3.org/1999/xlink" width="3300" height="2200">
 <!--glyph: "", point size: 100.0, font version: "17.0d12e1", template writer version: "65.1"-->
 <g id="Notes">
  <rect height="2200" id="artboard" style="fill:white;opacity:1" width="3300" x="0" y="0"/>
  <line style="fill:none;stroke:black;opacity:1;stroke-width:0.5;" x1="263" x2="3036" y1="292" y2="292"/>
  <text style="stroke:none;fill:black;font-family:sans-serif;font-size:13;font-weight:bold;" transform="matrix(1 0 0 1 263 322)">Weight/Scale Variations</text>
  <text style="stroke:none;fill:black;font-family:sans-serif;font-size:13;text-anchor:middle;" transform="matrix(1 0 0 1 559.711 322)">Ultralight</text>
  <text style="stroke:none;fill:black;font-family:sans-serif;font-size:13;text-anchor:middle;" transform="matrix(1 0 0 1 856.422 322)">Thin</text>
  <text style="stroke:none;fill:black;font-family:sans-serif;font-size:13;text-anchor:middle;" transform="matrix(1 0 0 1 1153.13 322)">Light</text>
  <text style="stroke:none;fill:black;font-family:sans-serif;font-size:13;text-anchor:middle;" transform="matrix(1 0 0 1 1449.84 322)">Regular</text>
  <text style="stroke:none;fill:black;font-family:sans-serif;font-size:13;text-anchor:middle;" transform="matrix(1 0 0 1 1746.56 322)">Medium</text>
  <text style="stroke:none;fill:black;font-family:sans-serif;font-size:13;text-anchor:middle;" transform="matrix(1 0 0 1 2043.27 322)">Semibold</text>
  <text style="stroke:none;fill:black;font-family:sans-serif;font-size:13;text-anchor:middle;" transform="matrix(1 0 0 1 2339.98 322)">Bold</text>
  <text style="stroke:none;fill:black;font-family:sans-serif;font-size:13;text-anchor:middle;" transform="matrix(1 0 0 1 2636.69 322)">Heavy</text>
  <text style="stroke:none;fill:black;font-family:sans-serif;font-size:13;text-anchor:middle;" transform="matrix(1 0 0 1 2933.4 322)">Black</text>
  <line style="fill:none;stroke:black;opacity:1;stroke-width:0.5;" x1="263" x2="3036" y1="1903" y2="1903"/>
  <g transform="matrix(1 0 0 1 263 1933)">
   <path d="M9.24805 0.830078Q10.8691 0.830078 12.2949 0.214844Q13.7207-0.400391 14.8096-1.49414Q15.8984-2.58789 16.5186-4.01367Q17.1387-5.43945 17.1387-7.05078Q17.1387-8.66211 16.5186-10.0879Q15.8984-11.5137 14.8047-12.6074Q13.7109-13.7012 12.2852-14.3164Q10.8594-14.9316 9.23828-14.9316Q7.62695-14.9316 6.20117-14.3164Q4.77539-13.7012 3.69141-12.6074Q2.60742-11.5137 1.9873-10.0879Q1.36719-8.66211 1.36719-7.05078Q1.36719-5.43945 1.9873-4.01367Q2.60742-2.58789 3.69629-1.49414Q4.78516-0.400391 6.21094 0.214844Q7.63672 0.830078 9.24805 0.830078ZM9.24805-0.654297Q7.91992-0.654297 6.7627-1.14746Q5.60547-1.64062 4.73145-2.51953Q3.85742-3.39844 3.36426-4.56055Q2.87109-5.72266 2.87109-7.05078Q2.87109-8.37891 3.35938-9.54102Q3.84766-10.7031 4.72168-11.582Q5.5957-12.4609 6.75293-12.9541Q7.91016-13.4473 9.23828-13.4473Q10.5762-13.4473 11.7334-12.9541Q12.8906-12.4609 13.7695-11.582Q14.6484-10.7031 15.1465-9.54102Q15.6445-8.37891 15.6445-7.05078Q15.6445-5.72266 15.1514-4.56055Q14.6582-3.39844 13.7842-2.51953Q12.9102-1.64062 11.748-1.14746Q10.5859-0.654297 9.24805-0.654297ZM5.6543-7.05078Q5.6543-6.72852 5.85938-6.52832Q6.06445-6.32812 6.40625-6.32812L8.51562-6.32812L8.51562-4.20898Q8.51562-3.88672 8.71094-3.67676Q8.90625-3.4668 9.23828-3.4668Q9.56055-3.4668 9.77051-3.67676Q9.98047-3.88672 9.98047-4.20898L9.98047-6.32812L12.0898-6.32812Q12.4219-6.32812 12.627-6.52832Q12.832-6.72852 12.832-7.05078Q12.832-7.38281 12.627-7.58789Q12.4219-7.79297 12.0898-7.79297L9.98047-7.79297L9.98047-9.90234Q9.98047-10.2344 9.77051-10.4443Q9.56055-10.6543 9.23828-10.6543Q8.90625-10.6543 8.71094-10.4443Q8.51562-10.2344 8.51562-9.90234L8.51562-7.79297L6.40625-7.79297Q6.06445-7.79297 5.85938-7.58789Q5.6543-7.38281 5.6543-7.05078Z"/>
  </g>
  <g transform="matrix(1 0 0 1 281.867 1933)">
   <path d="M11.709 2.91016Q13.75 2.91016 15.5518 2.12891Q17.3535 1.34766 18.7305-0.0292969Q20.1074-1.40625 20.8887-3.20801Q21.6699-5.00977 21.6699-7.05078Q21.6699-9.0918 20.8887-10.8936Q20.1074-12.6953 18.7305-14.0723Q17.3535-15.4492 15.5469-16.2305Q13.7402-17.0117 11.6992-17.0117Q9.6582-17.0117 7.85645-16.2305Q6.05469-15.4492 4.68262-14.0723Q3.31055-12.6953 2.5293-10.8936Q1.74805-9.0918 1.74805-7.05078Q1.74805-5.00977 2.5293-3.20801Q3.31055-1.40625 4.6875-0.0292969Q6.06445 1.34766 7.86621 2.12891Q9.66797 2.91016 11.709 2.91016ZM11.709 1.25Q9.98047 1.25 8.47656 0.605469Q6.97266-0.0390625 5.83496-1.17676Q4.69727-2.31445 4.05762-3.81836Q3.41797-5.32227 3.41797-7.05078Q3.41797-8.7793 4.05762-10.2832Q4.69727-11.7871 5.83008-12.9297Q6.96289-14.0723 8.4668-14.7119Q9.9707-15.3516 11.6992-15.3516Q13.4277-15.3516 14.9316-14.7119Q16.4355-14.0723 17.5781-12.9297Q18.7207-11.7871 19.3652-10.2832Q20.0098-8.7793 20.0098-7.05078Q20.0098-5.32227 19.3701-3.81836Q18.7305-2.31445 17.5928-1.17676Q16.4551-0.0390625 14.9463 0.605469Q13.4375 1.25 11.709 1.25ZM7.17773-7.05078Q7.17773-6.69922 7.41211-6.47461Q7.64648-6.25 8.01758-6.25L10.8887-6.25L10.8887-3.36914Q10.8887-2.99805 11.1133-2.76855Q11.3379-2.53906 11.6895-2.53906Q12.0605-2.53906 12.29-2.76855Q12.5195-2.99805 12.5195-3.36914L12.5195-6.25L15.4004-6.25Q15.7715-6.25 16.001-6.47461Q16.2305-6.69922 16.2305-7.05078Q16.2305-7.42188 16.001-7.65137Q15.7715-7.88086 15.4004-7.88086L12.5195-7.88086L12.5195-10.752Q12.5195-11.1328 12.29-11.3623Q12.0605-11.5918 11.6895-11.5918Q11.3379-11.5918 11.1133-11.3574Q10.8887-11.123 10.8887-10.752L10.8887-7.88086L8.01758-7.88086Q7.63672-7.88086 7.40723-7.65137Q7.17773-7.42188 7.17773-7.05078Z"/>
  </g>
  <g transform="matrix(1 0 0 1 305.646 1933)">
   <path d="M14.9707 5.66406Q17.0605 5.66406 18.96 5.01465Q20.8594 4.36523 22.4512 3.19336Q24.043 2.02148 25.2197 0.429688Q26.3965-1.16211 27.0459-3.06641Q27.6953-4.9707 27.6953-7.05078Q27.6953-9.14062 27.0459-11.04Q26.3965-12.9395 25.2197-14.5312Q24.043-16.123 22.4512-17.2998Q20.8594-18.4766 18.9551-19.126Q17.0508-19.7754 14.9609-19.7754Q12.8711-19.7754 10.9717-19.126Q9.07227-18.4766 7.48535-17.2998Q5.89844-16.123 4.72168-14.5312Q3.54492-12.9395 2.90039-11.04Q2.25586-9.14062 2.25586-7.05078Q2.25586-4.9707 2.90527-3.06641Q3.55469-1.16211 4.72656 0.429688Q5.89844 2.02148 7.49023 3.19336Q9.08203 4.36523 10.9814 5.01465Q12.8809 5.66406 14.9707 5.66406ZM14.9707 3.84766Q13.1641 3.84766 11.5283 3.2959Q9.89258 2.74414 8.53516 1.74805Q7.17773 0.751953 6.17676-0.610352Q5.17578-1.97266 4.62891-3.6084Q4.08203-5.24414 4.08203-7.05078Q4.08203-8.86719 4.62891-10.5029Q5.17578-12.1387 6.17188-13.501Q7.16797-14.8633 8.52539-15.8594Q9.88281-16.8555 11.5186-17.4023Q13.1543-17.9492 14.9609-17.9492Q16.7773-17.9492 18.4131-17.4023Q20.0488-16.8555 21.4111-15.8594Q22.7734-14.8633 23.7695-13.501Q24.7656-12.1387 25.3174-10.5029Q25.8691-8.86719 25.8691-7.05078Q25.8789-5.24414 25.332-3.6084Q24.7852-1.97266 23.7842-0.610352Q22.7832 0.751953 21.4209 1.74805Q20.0586 2.74414 18.4229 3.2959Q16.7871 3.84766 14.9707 3.84766ZM9.19922-7.05078Q9.19922-6.66992 9.45801-6.4209Q9.7168-6.17188 10.1172-6.17188L14.0625-6.17188L14.0625-2.2168Q14.0625-1.81641 14.3115-1.55762Q14.5605-1.29883 14.9512-1.29883Q15.3516-1.29883 15.6104-1.55273Q15.8691-1.80664 15.8691-2.2168L15.8691-6.17188L19.8242-6.17188Q20.2246-6.17188 20.4785-6.4209Q20.7324-6.66992 20.7324-7.05078Q20.7324-7.46094 20.4785-7.71484Q20.2246-7.96875 19.8242-7.96875L15.8691-7.96875L15.8691-11.9141Q15.8691-12.3242 15.6104-12.583Q15.3516-12.8418 14.9512-12.8418Q14.5605-12.8418 14.3115-12.583Q14.0625-12.3242 14.0625-11.9141L14.0625-7.96875L10.1172-7.96875Q9.70703-7.96875 9.45312-7.71484Q9.19922-7.46094 9.19922-7.05078Z"/>
  </g>
  <text style="stroke:none;fill:black;font-family:sans-serif;font-size:13;font-weight:bold;" transform="matrix(1 0 0 1 263 1953)">Design Variations</text>
  <text style="stroke:none;fill:black;font-family:sans-serif;font-size:13;" transform="matrix(1 0 0 1 263 1971)">Symbols are supported in up to nine weights and three scales.</text>
  <text style="stroke:none;fill:black;font-family:sans-serif;font-size:13;" transform="matrix(1 0 0 1 263 1989)">For optimal layout with text and other symbols, vertically align</text>
  <text style="stroke:none;fill:black;font-family:sans-serif;font-size:13;" transform="matrix(1 0 0 1 263 2007)">symbols with the adjacent text.</text>
  <line style="fill:none;stroke:#00AEEF;stroke-width:0.5;opacity:1.0;" x1="776" x2="776" y1="1919" y2="1933"/>
  <g transform="matrix(1 0 0 1 776 1933)">
   <path d="M3.31055 0.15625Q3.70117 0.15625 3.91602-0.00976562Q4.13086-0.175781 4.26758-0.585938L5.52734-4.0332L11.2891-4.0332L12.5488-0.585938Q12.6855-0.175781 12.9004-0.00976562Q13.1152 0.15625 13.4961 0.15625Q13.8867 0.15625 14.1162-0.0585938Q14.3457-0.273438 14.3457-0.644531Q14.3457-0.869141 14.2383-1.17188L9.6582-13.3691Q9.48242-13.8184 9.17969-14.043Q8.87695-14.2676 8.4082-14.2676Q7.5-14.2676 7.17773-13.3789L2.59766-1.16211Q2.49023-0.859375 2.49023-0.634766Q2.49023-0.263672 2.70996-0.0537109Q2.92969 0.15625 3.31055 0.15625ZM6.00586-5.51758L8.37891-12.0898L8.42773-12.0898L10.8008-5.51758Z"/>
  </g>
  <line style="fill:none;stroke:#00AEEF;stroke-width:0.5;opacity:1.0;" x1="793.197" x2="793.197" y1="1919" y2="1933"/>
  <text style="stroke:none;fill:black;font-family:sans-serif;font-size:13;font-weight:bold;" transform="matrix(1 0 0 1 776 1953)">Margins</text>
  <text style="stroke:none;fill:black;font-family:sans-serif;font-size:13;" transform="matrix(1 0 0 1 776 1971)">Leading and trailing margins on the left and right side of each symbol</text>
  <text style="stroke:none;fill:black;font-family:sans-serif;font-size:13;" transform="matrix(1 0 0 1 776 1989)">can be adjusted by modifying the x-location of the margin guidelines.</text>
  <text style="stroke:none;fill:black;font-family:sans-serif;font-size:13;" transform="matrix(1 0 0 1 776 2007)">Modifications are automatically applied proportionally to all</text>
  <text style="stroke:none;fill:black;font-family:sans-serif;font-size:13;" transform="matrix(1 0 0 1 776 2025)">scales and weights.</text>
  <g transform="matrix(1 0 0 1 1289 1933)">
   <path d="M2.8418 1.86523L4.54102 3.57422Q5.18555 4.22852 5.90332 4.17969Q6.62109 4.13086 7.31445 3.35938L18.0078-8.42773L17.041-9.4043L6.42578 2.27539Q6.16211 2.57812 5.89355 2.61719Q5.625 2.65625 5.27344 2.30469L4.10156 1.14258Q3.75 0.791016 3.79395 0.522461Q3.83789 0.253906 4.14062-0.0195312L15.6152-10.8203L14.6387-11.7871L3.04688-0.898438Q2.30469-0.214844 2.25098 0.498047Q2.19727 1.21094 2.8418 1.86523ZM9.25781-16.3281Q8.94531-16.0254 8.90625-15.6348Q8.86719-15.2441 9.04297-14.9512Q9.21875-14.6777 9.55566-14.541Q9.89258-14.4043 10.3809-14.5215Q11.4746-14.7754 12.5977-14.7314Q13.7207-14.6875 14.7949-13.9844L14.209-12.5293Q13.9551-11.9043 14.0674-11.4404Q14.1797-10.9766 14.5801-10.5664L16.875-8.25195Q17.2363-7.88086 17.5781-7.82227Q17.9199-7.76367 18.3398-7.8418L19.4043-8.03711L20.0684-7.36328L20.0293-6.80664Q20-6.43555 20.1221-6.12305Q20.2441-5.81055 20.6055-5.44922L21.3672-4.70703Q21.7285-4.3457 22.1533-4.33105Q22.5781-4.31641 22.9297-4.66797L25.8398-7.58789Q26.1914-7.93945 26.1816-8.35449Q26.1719-8.76953 25.8105-9.13086L25.0391-9.89258Q24.6875-10.2539 24.3799-10.3857Q24.0723-10.5176 23.7109-10.4883L23.1348-10.4395L22.4902-11.0742L22.7344-12.1973Q22.832-12.6172 22.6953-12.9834Q22.5586-13.3496 22.1191-13.7891L19.9219-15.9766Q18.6719-17.2168 17.2607-17.8369Q15.8496-18.457 14.4189-18.4814Q12.9883-18.5059 11.665-17.959Q10.3418-17.4121 9.25781-16.3281ZM10.752-15.957Q11.6602-16.6211 12.7002-16.9043Q13.7402-17.1875 14.8047-17.085Q15.8691-16.9824 16.8701-16.5137Q17.8711-16.0449 18.7012-15.2051L21.1328-12.793Q21.3086-12.6172 21.3525-12.4512Q21.3965-12.2852 21.3379-12.0312L21.0156-10.5469L22.5195-9.0625L23.5059-9.12109Q23.6914-9.13086 23.7891-9.09668Q23.8867-9.0625 24.0332-8.91602L24.6094-8.33984L22.168-5.89844L21.5918-6.47461Q21.4453-6.62109 21.4062-6.71875Q21.3672-6.81641 21.377-7.01172L21.4453-7.98828L19.9512-9.47266L18.4277-9.21875Q18.1836-9.16992 18.042-9.2041Q17.9004-9.23828 17.7148-9.41406L15.7129-11.416Q15.5176-11.5918 15.4932-11.7529Q15.4688-11.9141 15.5859-12.1875L16.4648-14.2773Q15.293-15.3711 13.8281-15.791Q12.3633-16.2109 10.8398-15.7617Q10.7227-15.7324 10.6885-15.8057Q10.6543-15.8789 10.752-15.957Z"/>
  </g>
  <text style="stroke:none;fill:black;font-family:sans-serif;font-size:13;font-weight:bold;" transform="matrix(1 0 0 1 1289 1953)">Exporting</text>
  <text style="stroke:none;fill:black;font-family:sans-serif;font-size:13;" transform="matrix(1 0 0 1 1289 1971)">Symbols should be outlined when exporting to ensure the</text>
  <text style="stroke:none;fill:black;font-family:sans-serif;font-size:13;" transform="matrix(1 0 0 1 1289 1989)">design is preserved when submitting to Xcode.</text>
  <text id="template-version" style="stroke:none;fill:black;font-family:sans-serif;font-size:13;text-anchor:end;" transform="matrix(1 0 0 1 3036 1933)">Template v.3.0</text>
  <text style="stroke:none;fill:black;font-family:sans-serif;font-size:13;text-anchor:end;" transform="matrix(1 0 0 1 3036 1951)">Requires Xcode 13 or greater</text>
  <text id="descriptive-name" style="stroke:none;fill:black;font-family:sans-serif;font-size:13;text-anchor:end;" transform="matrix(1 0 0 1 3036 1969)">Generated from chevron-up</text>
  <text style="stroke:none;fill:black;font-family:sans-serif;font-size:13;text-anchor:end;" transform="matrix(1 0 0 1 3036 1987)">Typeset at 100 points</text>
  <text style="stroke:none;fill:black;font-family:sans-serif;font-size:13;" transform="matrix(1 0 0 1 263 726)">Small</text>
  <text style="stroke:none;fill:black;font-family:sans-serif;font-size:13;" transform="matrix(1 0 0 1 263 1156)">Medium</text>
  <text style="stroke:none;fill:black;font-family:sans-serif;font-size:13;" transform="matrix(1 0 0 1 263 1586)">Large</text>
 </g>
 <g id="Guides">
  <g id="H-reference" style="fill:#27AAE1;stroke:none;" transform="matrix(1 0 0 1 339 696)">
   <path d="M0.976562 0L3.66211 0L29.3457-67.1387L30.0293-67.1387L30.0293-70.459L28.125-70.459ZM11.6699-24.4629L46.9727-24.4629L46.2402-26.709L12.4512-26.709ZM55.127 0L57.7637 0L30.6152-70.459L29.4434-70.459L29.4434-67.1387Z"/>
  </g>
  <line id="Baseline-S" style="fill:none;stroke:#27AAE1;opacity:1;stroke-width:0.5;" x1="263" x2="3036" y1="696" y2="696"/>
  <line id="Capline-S" style="fill:none;stroke:#27AAE1;opacity:1;stroke-width:0.5;" x1="263" x2="3036" y1="625.541" y2="625.541"/>
  <g id="H-reference" style="fill:#27AAE1;stroke:none;" transform="matrix(1 0 0 1 339 1126)">
   <path d="M0.976562 0L3.66211 0L29.3457-67.1387L30.0293-67.1387L30.0293-70.459L28.125-70.459ZM11.6699-24.4629L46.9727-24.4629L46.2402-26.709L12.4512-26.709ZM55.127 0L57.7637 0L30.6152-70.459L29.4434-70.459L29.4434-67.1387Z"/>
  </g>
  <line id="Baseline-M" style="fill:none;stroke:#27AAE1;opacity:1;stroke-width:0.5;" x1="263" x2="3036" y1="1126" y2="1126"/>
  <line id="Capline-M" style="fill:none;stroke:#27AAE1;opacity:1;stroke-width:0.5;" x1="263" x2="3036" y1="1055.54" y2="1055.54"/>
  <g id="H-reference" style="fill:#27AAE1;stroke:none;" transform="matrix(1 0 0 1 339 1556)">
   <path d="M0.976562 0L3.66211 0L29.3457-67.1387L30.0293-67.1387L30.0293-70.459L28.125-70.459ZM11.6699-24.4629L46.9727-24.4629L46.2402-26.709L12.4512-26.709ZM55.127 0L57.7637 0L30.6152-70.459L29.4434-70.459L29.4434-67.1387Z"/>
  </g>
  <line id="Baseline-L" style="fill:none;stroke:#27AAE1;opacity:1;stroke-width:0.5;" x1="263" x2="3036" y1="1556" y2="1556"/>
  <line id="Capline-L" style="fill:none;stroke:#27AAE1;opacity:1;stroke-width:0.5;" x1="263" x2="3036" y1="1485.54" y2="1485.54"/>
  <line id="left-margin-Regular-M" style="fill:none;stroke:#00AEEF;stroke-width:0.5;opacity:1.0;" x1="1393.13" x2="1393.13" y1="1030.78" y2="1150.12"/>
  <line id="right-margin-Regular-M" style="fill:none;stroke:#00AEEF;stroke-width:0.5;opacity:1.0;" x1="1506.56" x2="1506.56" y1="1030.78" y2="1150.12"/>
 </g>
 <g id="Symbols">
  <g id="Black-L" transform="matrix(1 0 0 1 2865.74 1556)">
   <path d="M62.7925-58.7C65.5625-61.48 70.0625-61.48 72.8325-58.7L106.962-24.58C109.732-21.81 109.732-17.31 106.962-14.54C104.183-11.76 99.6925-11.76 96.9225-14.54L67.8125-43.64L38.7125-14.54C35.9325-11.76 31.4425-11.76 28.6725-14.54C25.8925-17.31 25.8925-21.81 28.6725-24.58L62.7925-58.7Z"/>
  </g>
  <g id="Heavy-L" transform="matrix(1 0 0 1 2569.88 1556)">
   <path d="M62.5475-57.93C64.9875-60.37 68.9475-60.37 71.3875-57.93L105.507-23.81C107.947-21.37 107.947-17.41 105.507-14.97C103.067-12.53 99.1075-12.53 96.6675-14.97L66.9675-44.67L37.2575-14.97C34.8175-12.53 30.8575-12.53 28.4175-14.97C25.9775-17.41 25.9775-21.37 28.4175-23.81L62.5475-57.93Z"/>
  </g>
  <g id="Bold-L" transform="matrix(1 0 0 1 2274.12 1556)">
   <path d="M62.27-57.075C64.34-59.145 67.69-59.145 69.76-57.075L103.89-22.955C105.961-20.885 105.961-17.525 103.89-15.455C101.821-13.385 98.46-13.385 96.39-15.455L66.01-45.835L35.64-15.455C33.57-13.385 30.21-13.385 28.14-15.455C26.07-17.525 26.07-20.885 28.14-22.955L62.27-57.075Z"/>
  </g>
  <g id="Semibold-L" transform="matrix(1 0 0 1 1978.06 1556)">
   <path d="M62.0725-56.49C63.8925-58.31 66.8325-58.31 68.6525-56.49L102.773-22.37C104.593-20.55 104.593-17.61 102.773-15.79C100.963-13.97 98.0125-13.97 96.2025-15.79L65.3625-46.63L34.5225-15.79C32.7125-13.97 29.7625-13.97 27.9525-15.79C26.1325-17.61 26.1325-20.55 27.9525-22.37L62.0725-56.49Z"/>
  </g>
  <g id="Medium-L" transform="matrix(1 0 0 1 1681.85 1556)">
   <path d="M61.9325-56.04C63.5525-57.66 66.1725-57.66 67.7925-56.04L101.923-21.91C103.543-20.29 103.543-17.66 101.923-16.04C100.303-14.42 97.6725-14.42 96.0525-16.04L64.8625-47.23L33.6725-16.04C32.0525-14.42 29.4225-14.42 27.8025-16.04C26.1825-17.66 26.1825-20.29 27.8025-21.91L61.9325-56.04Z"/>
  </g>
  <g id="Regular-L" transform="matrix(1 0 0 1 1385.78 1556)">
   <path d="M61.745-55.45C63.105-56.81 65.325-56.81 66.685-55.45L100.814-21.32C102.186-19.96 102.186-17.74 100.814-16.37C99.445-15.01 97.235-15.01 95.865-16.37L64.215-48.02L32.565-16.37C31.195-15.01 28.985-15.01 27.615-16.37C26.245-17.74 26.245-19.96 27.615-21.32L61.745-55.45Z"/>
  </g>
  <g id="Light-L" transform="matrix(1 0 0 1 1089.87 1556)">
   <path d="M61.5025-54.73C62.5625-55.79 64.2725-55.79 65.3225-54.73L99.4425-20.61C100.503-19.55 100.503-17.84 99.4425-16.79C98.3925-15.73 96.6825-15.73 95.6325-16.79L63.4125-49L31.1925-16.79C30.1425-15.73 28.4325-15.73 27.3825-16.79C26.3225-17.84 26.3225-19.55 27.3825-20.61L61.5025-54.73Z"/>
  </g>
  <g id="Thin-L" transform="matrix(1 0 0 1 794.212 1556)">
   <path d="M61.1955-53.78C61.8395-54.42 62.8845-54.42 63.5285-53.78L97.6535-19.66C98.2985-19.01 98.2985-17.97 97.6535-17.32C97.0095-16.68 95.9645-16.68 95.3205-17.32L62.3625-50.28L29.4035-17.32C28.7595-16.68 27.7145-16.68 27.0705-17.32C26.4265-17.97 26.4265-19.01 27.0705-19.66L61.1955-53.78Z"/>
  </g>
  <g id="Ultralight-L" transform="matrix(1 0 0 1 498.051 1556)">
   <path d="M61.035-53.285C61.464-53.715 62.161-53.715 62.59-53.285L96.715-19.165C97.145-18.735 97.145-18.035 96.715-17.605C96.286-17.175 95.589-17.175 95.16-17.605L61.812-50.955L28.465-17.605C28.036-17.175 27.339-17.175 26.91-17.605C26.48-18.035 26.48-18.735 26.91-19.165L61.035-53.285Z"/>
  </g>
  <g id="Black-M" transform="matrix(1 0 0 1 2873.09 1126)">
   <path d="M60.455-55.72C62.345-55.72 64.145-54.97 65.475-53.64L92.255-26.86C95.025-24.09 95.025-19.6 92.255-16.82C89.485-14.05 84.985-14.05 82.215-16.82L60.455-38.58L38.705-16.82C35.935-14.05 31.435-14.05 28.665-16.82C25.895-19.6 25.895-24.09 28.665-26.86L55.435-53.64C56.775-54.97 58.575-55.72 60.455-55.72Z"/>
  </g>
  <g id="Heavy-M" transform="matrix(1 0 0 1 2577.23 1126)">
   <path d="M59.6075-54.87C61.2675-54.87 62.8575-54.21 64.0275-53.04L90.8075-26.26C93.2475-23.82 93.2475-19.86 90.8075-17.42C88.3675-14.98 84.4075-14.98 81.9675-17.42L59.6075-39.78L37.2575-17.42C34.8175-14.98 30.8575-14.98 28.4175-17.42C25.9775-19.86 25.9775-23.82 28.4175-26.26L55.1875-53.04C56.3675-54.21 57.9575-54.87 59.6075-54.87Z"/>
  </g>
  <g id="Bold-M" transform="matrix(1 0 0 1 2281.47 1126)">
   <path d="M58.67-53.92C60.07-53.92 61.42-53.36 62.41-52.36L89.19-25.59C91.26-23.52 91.26-20.16 89.19-18.09C87.12-16.02 83.76-16.02 81.69-18.09L58.67-41.12L35.64-18.09C33.57-16.02 30.21-16.02 28.14-18.09C26.07-20.16 26.07-23.52 28.14-25.59L54.92-52.36C55.91-53.36 57.26-53.92 58.67-53.92Z"/>
  </g>
  <g id="Semibold-M" transform="matrix(1 0 0 1 1985.41 1126)">
   <path d="M58.0125-53.27C59.2425-53.27 60.4325-52.78 61.3025-51.9L88.0725-25.13C89.8925-23.31 89.8925-20.37 88.0725-18.55C86.2625-16.74 83.3125-16.74 81.5025-18.55L58.0125-42.04L34.5225-18.55C32.7125-16.74 29.7625-16.74 27.9525-18.55C26.1325-20.37 26.1325-23.31 27.9525-25.13L54.7225-51.9C55.5925-52.78 56.7825-53.27 58.0125-53.27Z"/>
  </g>
  <g id="Medium-M" transform="matrix(1 0 0 1 1689.2 1126)">
   <path d="M57.5125-52.77C58.6125-52.77 59.6725-52.33 60.4425-51.55L87.2225-24.78C88.8425-23.15 88.8425-20.53 87.2225-18.91C85.6025-17.29 82.9725-17.29 81.3525-18.91L57.5125-42.75L33.6725-18.91C32.0525-17.29 29.4225-17.29 27.8025-18.91C26.1825-20.53 26.1825-23.15 27.8025-24.78L54.5725-51.55C55.3525-52.33 56.4125-52.77 57.5125-52.77Z"/>
  </g>
  <g id="Regular-M" transform="matrix(1 0 0 1 1393.13 1126)">
   <path d="M56.865-52.12C57.795-52.12 58.685-51.75 59.335-51.09L86.115-24.32C87.485-22.95 87.485-20.73 86.115-19.37C84.745-18 82.535-18 81.165-19.37L56.865-43.67L32.565-19.37C31.195-18 28.985-18 27.615-19.37C26.245-20.73 26.245-22.95 27.615-24.32L54.385-51.09C55.045-51.75 55.935-52.12 56.865-52.12Z"/>
  </g>
  <g id="Light-M" transform="matrix(1 0 0 1 1097.22 1126)">
   <path d="M56.0625-51.32C56.7825-51.32 57.4625-51.03 57.9725-50.53L84.7425-23.75C85.8025-22.7 85.8025-20.99 84.7425-19.93C83.6925-18.88 81.9825-18.88 80.9325-19.93L56.0625-44.8L31.1925-19.93C30.1425-18.88 28.4325-18.88 27.3825-19.93C26.3225-20.99 26.3225-22.7 27.3825-23.75L54.1525-50.53C54.6625-51.03 55.3425-51.32 56.0625-51.32Z"/>
  </g>
  <g id="Thin-M" transform="matrix(1 0 0 1 801.562 1126)">
   <path d="M55.0125-50.27C55.4505-50.27 55.8705-50.09 56.1795-49.78L82.9545-23.01C83.5985-22.36 83.5985-21.32 82.9545-20.67C82.3105-20.03 81.2655-20.03 80.6215-20.67L55.0125-46.28L29.4045-20.67C28.7605-20.03 27.7155-20.03 27.0705-20.67C26.4265-21.32 26.4265-22.36 27.0705-23.01L53.8455-49.78C54.1555-50.09 54.5755-50.27 55.0125-50.27Z"/>
  </g>
  <g id="Ultralight-M" transform="matrix(1 0 0 1 505.401 1126)">
   <path d="M54.4623-49.72C54.7543-49.72 55.0343-49.6 55.2403-49.39L82.0153-22.62C82.4443-22.19 82.4443-21.49 82.0153-21.06C81.5853-20.63 80.8893-20.63 80.4592-21.06L54.4623-47.06L28.4653-21.06C28.0353-20.63 27.3392-20.63 26.9093-21.06C26.4803-21.49 26.4803-22.19 26.9093-22.62L53.6843-49.39C53.8903-49.6 54.1703-49.72 54.4623-49.72Z"/>
  </g>
  <g id="Black-S" transform="matrix(1 0 0 1 2878.87 696)">
   <path d="M49.665-52.2386C52.435-55.0116 56.935-55.0116 59.705-52.2386L80.705-31.2386C83.475-28.4655 83.475-23.9705 80.705-21.1976C77.935-18.4246 73.435-18.4246 70.665-21.1976L54.685-37.1775L38.705-21.1976C35.935-18.4246 31.435-18.4246 28.665-21.1976C25.895-23.9705 25.895-28.4655 28.665-31.2386L49.665-52.2386Z"/>
  </g>
  <g id="Heavy-S" transform="matrix(1 0 0 1 2583 696)">
   <path d="M49.4175-51.4715C51.8575-53.9124 55.8175-53.9124 58.2575-51.4715L79.2575-30.4715C81.6975-28.0314 81.6975-24.0734 79.2575-21.6334C76.8175-19.1925 72.8575-19.1925 70.4175-21.6334L53.8375-38.2135L37.2575-21.6334C34.8175-19.1925 30.8575-19.1925 28.4175-21.6334C25.9775-24.0734 25.9775-28.0314 28.4175-30.4715L49.4175-51.4715Z"/>
  </g>
  <g id="Bold-S" transform="matrix(1 0 0 1 2287.25 696)">
   <path d="M49.14-50.41C51.21-52.48 54.56-52.48 56.63-50.41L77.63-29.41C79.7-27.341 79.7-23.985 77.63-21.915C75.56-19.845 72.21-19.845 70.14-21.915L52.88-39.167L35.63-21.915C33.56-19.845 30.21-19.845 28.14-21.915C26.07-23.985 26.07-27.341 28.14-29.41L49.14-50.41Z"/>
  </g>
  <g id="Semibold-S" transform="matrix(1 0 0 1 1991.18 696)">
   <path d="M48.945-49.823C50.765-51.639 53.705-51.639 55.525-49.823L76.525-28.823C78.335-27.007 78.335-24.063 76.525-22.247C74.705-20.431 71.765-20.431 69.945-22.247L52.235-39.959L34.525-22.247C32.705-20.431 29.765-20.431 27.945-22.247C26.135-24.063 26.135-27.007 27.945-28.823L48.945-49.823Z"/>
  </g>
  <g id="Medium-S" transform="matrix(1 0 0 1 1694.97 696)">
   <path d="M48.81-49.3726C50.43-50.9936 53.05-50.9936 54.67-49.3726L75.67-28.3726C77.29-26.7516 77.29-24.1245 75.67-22.5036C74.05-20.8826 71.43-20.8826 69.81-22.5036L51.74-40.5686L33.67-22.5036C32.05-20.8826 29.43-20.8826 27.81-22.5036C26.18-24.1245 26.18-26.7516 27.81-28.3726L48.81-49.3726Z"/>
  </g>
  <g id="Regular-S" transform="matrix(1 0 0 1 1398.91 696)">
   <path d="M48.615-48.7856C49.975-50.1526 52.195-50.1526 53.555-48.7856L74.555-27.7856C75.925-26.4186 75.925-24.2026 74.555-22.8356C73.195-21.4686 70.975-21.4686 69.615-22.8356L51.085-41.3606L32.555-22.8356C31.195-21.4686 28.975-21.4686 27.615-22.8356C26.245-24.2026 26.245-26.4186 27.615-27.7856L48.615-48.7856Z"/>
  </g>
  <g id="Light-S" transform="matrix(1 0 0 1 1103 696)">
   <path d="M48.375-48.0625C49.435-49.1174 51.145-49.1174 52.195-48.0625L73.195-27.0625C74.245-26.0084 74.245-24.2985 73.195-23.2444C72.145-22.1904 70.435-22.1904 69.375-23.2444L50.285-42.3354L31.195-23.2444C30.145-22.1904 28.435-22.1904 27.375-23.2444C26.325-24.2985 26.325-26.0084 27.375-27.0625L48.375-48.0625Z"/>
  </g>
  <g id="Thin-S" transform="matrix(1 0 0 1 807.337 696)">
   <path d="M48.0705-47.116C48.7145-47.76 49.7595-47.76 50.4035-47.116L71.4035-26.116C72.0485-25.472 72.0485-24.427 71.4035-23.783C70.7595-23.138 69.7145-23.138 69.0705-23.783L49.2375-43.616L29.4035-23.783C28.7595-23.138 27.7145-23.138 27.0705-23.783C26.4265-24.427 26.4265-25.472 27.0705-26.116L48.0705-47.116Z"/>
  </g>
  <g id="Ultralight-S" transform="matrix(1 0 0 1 511.176 696)">
   <path d="M47.91-46.619C48.339-47.049 49.036-47.049 49.465-46.619L70.465-25.619C70.895-25.19 70.895-24.493 70.465-24.064C70.036-23.634 69.339-23.634 68.91-24.064L48.687-44.286L28.465-24.064C28.036-23.634 27.339-23.634 26.91-24.064C26.48-24.493 26.48-25.19 26.91-25.619L47.91-46.619Z"/>
  </g>
 </g>
</svg>
