<svg width="1182" height="1095" viewBox="0 0 1182 1095" fill="none" xmlns="http://www.w3.org/2000/svg">
<path d="M118.904 611.8C123.203 600.6 124.903 588.7 127.602 577.1C134.101 549.8 140.299 522.4 146.598 495.1C151.797 472.8 169.993 458.3 193.088 458C208.884 457.8 224.681 457.8 240.477 457.6C240.977 457.9 241.477 458.3 241.777 458.8C244.077 465.5 243.977 472.5 244.776 479.5C249.275 518.3 253.874 557.2 258.473 596C258.473 596.3 258.573 596.7 258.573 597C259.573 610.4 260.173 608.2 271.271 608.4C275.77 608.5 280.269 608.5 284.768 608.4C290.366 608.3 291.166 607.7 290.766 601.9C290.166 592.9 289.267 584 288.467 575.1C286.967 556.7 285.467 538.3 283.768 519.9C282.168 502.3 281.068 484.8 279.169 467.2C278.969 464.9 278.669 462.6 279.269 460.3C279.469 459.7 279.669 459.2 280.069 458.8C283.068 456.9 286.467 457.8 289.667 457.3C290.966 457.5 292.366 457.3 293.666 457.3C299.964 457.6 306.263 457.2 312.562 457.5C315.761 457.6 316.961 456.4 316.961 453.2C316.961 444.1 316.461 435 317.261 425.9C317.76 424.9 317.86 423.3 319.76 424.2C320.06 435.6 319.86 446.9 319.96 455.8C319.56 446.3 320.66 434.5 319.46 422.6C319.26 421 319.36 419.6 320.96 418.7C323.559 420.2 322.759 422.8 322.759 425C322.859 434.8 322.959 444.7 322.759 454.5C322.659 458.2 323.959 460.8 326.958 462.9C332.757 467 335.956 472.7 338.156 479.5C344.555 499.5 352.553 518.9 359.551 538.7C359.851 539.7 360.251 540.7 360.551 541.6C363.85 550.4 366.95 559.3 370.249 568.1C370.549 569 370.849 569.9 371.149 570.8C372.448 574.5 373.848 578.2 375.348 582.1C380.247 579 382.646 574.1 386.545 570.5C387.345 569.7 388.145 568.9 388.945 568.1C396.543 559 404.841 550.6 412.54 541.5C413.34 540.7 414.139 539.9 414.939 539C419.038 533.8 423.937 529.4 428.036 524.2C429.136 522.8 430.336 521.4 432.335 521.2C435.835 521.9 438.034 524.5 440.634 526.6C452.031 535.8 463.629 544.7 474.926 554.1C482.624 560.5 482.624 561.3 475.626 568.8C470.927 573.8 466.328 578.8 462.029 584C457.43 588.7 453.131 593.7 448.832 598.6C430.336 619.1 412.34 640.1 393.344 660.1C387.445 666.3 380.047 669.4 371.349 669C369.749 668.9 367.949 669.1 366.85 667.4C366.35 666.5 366.25 665.5 366.15 664.5C364.95 651.9 358.552 643.7 346.154 640.8C336.956 638.7 327.858 635.9 318.56 634.1C318.06 634 317.561 633.9 317.061 633.8C305.263 631.6 304.563 632.1 301.764 643.4C299.164 653.7 296.965 664.2 294.466 674.5C293.866 677.1 293.466 679.8 290.366 680.9C288.867 681.3 287.367 681.2 285.867 681.2C239.478 681.2 193.088 681.2 146.698 681.2C145.698 681.2 144.698 681.2 143.699 681.1C133.601 677.6 126.202 670.9 120.504 662.1C119.604 660.7 118.804 659.3 117.904 657.9C117.004 655.7 116.304 653.4 115.405 651.3C112.305 641.8 112.705 632.4 115.505 623C117.104 619.4 116.304 615.1 118.904 611.8Z" fill="#6DB5DE"/>
<path d="M571.604 796.5C570.305 820 568.905 843.5 567.605 866.9C567.905 868 568.505 869.1 568.605 870.3C568.405 877.6 567.605 884.8 567.405 892.1C566.806 894.2 566.705 896.5 565.606 898.5C563.806 928.5 562.006 958.6 560.207 988.6C559.707 997.4 559.007 1006.2 558.407 1015C556.908 1016.6 554.808 1016.6 552.808 1016.6C534.612 1016.6 516.417 1018.3 498.22 1017.6C495.721 1017.5 493.222 1017.8 490.922 1016.7C488.823 1015 489.722 1012.7 490.022 1010.7C498.62 947 506.919 883.3 515.417 819.6C517.516 804.3 519.516 788.9 521.215 773.5C519.416 780 518.816 786.7 518.016 793.3C510.018 853.4 502.12 913.5 494.121 973.5C492.422 986.7 490.422 999.9 489.023 1013.1C488.923 1014.4 489.122 1015.8 487.723 1016.7C485.323 1017.8 482.824 1017.6 480.324 1017.6C456.43 1017.6 432.435 1017.6 408.54 1017.6C405.741 1017.6 402.842 1018.1 400.442 1015.9C401.842 1005.3 403.141 994.6 404.541 984C405.341 982.5 404.141 981.1 404.441 979.7C404.341 976.9 404.241 974 404.741 971.2C408.64 947.5 410.84 923.5 414.339 899.7C414.739 898.3 415.139 897 415.039 895.5C415.939 884.6 417.438 873.8 418.938 863.1C418.938 861.9 419.038 860.8 419.238 859.6C419.838 856.5 420.138 853.4 420.638 850.3C421.437 844.3 420.838 843.6 414.939 843.6C404.341 843.6 393.743 843.6 383.146 843.6C380.846 843.6 378.447 843.9 376.447 842.3C377.247 838.7 380.246 839.7 382.446 839.7C392.944 839.5 403.441 839.6 413.939 839.6C421.937 839.6 421.937 839.4 423.037 831.3C424.837 817.1 426.836 802.9 428.936 788.7C429.736 782.9 429.536 782.7 423.837 782.6C419.838 782.6 415.839 782.6 411.839 782.6C409.34 782.6 406.841 782.5 404.641 781C402.742 779.6 402.342 777.4 401.842 775.3C395.843 750.4 390.144 725.4 384.246 700.5C383.646 698 382.446 695.3 385.345 693.2C387.545 692.3 389.944 692.4 392.244 692.4C439.233 692.4 486.223 692.4 533.213 692.4C535.212 692.4 537.212 692.4 539.212 692.8C549.409 695.5 558.307 700.4 565.306 708.5C574.504 718.9 577.703 731 576.203 744.6C575.404 751.4 575.404 758.2 575.004 765C574.604 773 573.604 780.9 573.504 788.9C572.804 791.3 572.704 794 571.604 796.5Z" fill="#8F3600"/>
<path d="M404.041 779.9C411.94 781.5 419.938 780.5 427.836 780.8C430.235 780.9 431.535 781.2 431.135 784.1C428.536 801.6 426.036 819.1 423.737 836.7C423.337 840.1 422.137 841 418.838 840.9C405.541 840.7 392.244 840.8 379.047 840.8C378.247 840.8 377.447 841.2 376.747 841.3C379.647 846.8 380.247 853 381.946 858.9C382.146 860.2 382.746 861.4 382.946 862.8C385.545 873.7 387.845 884.6 390.444 895.5C390.644 896.3 390.844 897.1 390.944 897.9C395.943 919.4 400.442 941 405.141 962.6C405.841 965.7 406.141 968.8 405.641 972C405.541 974.6 405.441 977.1 405.341 979.7C404.841 980.3 404.241 980.3 403.741 979.8C398.043 953.9 392.244 928 386.545 902.2C386.245 900.7 385.745 899.3 385.345 897.9C384.546 896.8 383.846 895.7 383.546 894.4C380.946 884.1 378.747 873.7 376.247 863.4C376.047 862.1 375.547 860.8 375.348 859.5C374.548 855.3 373.348 851.2 372.448 847C371.648 843.5 369.649 842.1 366.15 842.2C361.051 842.3 355.952 842 350.853 842.7C349.953 842.7 349.253 842.3 348.653 841.7C346.854 841.6 345.054 841.3 343.255 841.3C319.46 841.3 295.665 841.5 271.87 841.1C266.771 841 264.772 842.4 263.672 847.5C255.574 884.2 247.076 920.7 238.978 957.4C229.78 998.9 220.982 1040.5 211.984 1082.1C211.584 1083.8 211.784 1086.5 209.184 1085.9C206.585 1085.3 207.884 1082.9 208.284 1081.3C225.181 1003.5 241.377 925.6 259.773 848.1C261.373 841.5 261.373 841.5 254.574 841.3C207.585 839.9 170.993 808.2 162.694 761.7C158.795 740.1 154.796 718.5 150.797 696.9C150.597 695.6 150.597 694.1 148.797 693.9C145.998 695 142.999 695.3 139.999 695.2C129.902 695.1 119.704 695.1 109.606 695.2C103.008 695.3 96.809 696.7 91.7101 701.5C87.611 705.3 85.6114 710.1 84.8116 715.5C84.0118 718.3 84.3117 721.1 84.3117 724C84.3117 842.3 84.3117 960.6 84.3117 1078.8C84.3117 1091.5 84.0118 1088.7 73.6141 1089.2C69.9149 1089.4 68.4152 1087.8 68.3152 1084.3C68.3152 1082.8 68.2153 1081.3 68.2153 1079.8C68.2153 959.2 68.2153 838.6 68.2153 718C68.2153 700.3 78.5131 685.7 94.0096 681C95.8092 680.5 97.6088 680.3 99.3084 679.7C100.908 679.3 102.608 679.1 104.207 679.3C136.3 679.3 168.293 680.8 200.386 680.3C215.683 680.1 230.979 680.2 246.276 680.3C285.367 680.5 324.359 678.7 363.45 679.3C430.735 679.3 498.021 679.3 565.206 679.3C610.096 679 654.986 679.2 699.876 679.1C717.472 679.1 735.168 679.5 752.764 679.3C754.464 679.3 756.064 679.2 757.763 679.7C758.663 680.1 759.863 680.6 759.363 681.8C757.063 686.5 756.164 692.1 750.965 694.9C748.665 695.5 746.366 695.4 744.066 695.4C716.572 695.4 688.978 695.4 661.485 695.4C658.685 695.4 655.786 695.9 653.286 694C627.992 694 602.698 694.1 577.403 694.1C576.303 694.9 575.104 695.2 573.804 695.3C562.706 695.3 551.509 696.4 540.411 694.1C497.521 694.1 454.63 694 411.839 694C402.741 694 393.544 694.2 384.446 694.2C381.846 695.9 378.947 695.4 376.147 695.4C317.56 695.4 259.073 695.4 200.486 695.4C191.288 695.4 191.188 695.5 193.388 704.2C195.887 713.9 197.687 723.7 200.486 733.3C205.785 751.5 216.882 765 233.779 773.7C237.078 775.4 240.577 776.2 244.376 776.3C265.772 777.1 287.267 777.7 308.662 777.3C338.456 776.7 368.149 779 397.943 778.3C400.042 778.4 402.242 778.5 404.041 779.9Z" fill="black"/>
<path d="M99.6086 681.2C84.012 684.9 73.9142 694.3 70.215 710.1C69.7151 712.3 69.6151 714.7 69.6151 717C69.6151 839.3 69.6151 961.5 69.5152 1083.8C69.5152 1087.6 70.4149 1089.4 74.414 1088.8C75.9137 1088.6 77.4134 1088.6 78.913 1088.8C82.1123 1089.3 83.0122 1087.7 82.8122 1084.8C82.7122 1083.5 82.8122 1082.1 82.8122 1080.8C82.8122 961 82.8122 841.3 82.8122 721.5C82.8122 719.2 82.1124 716.8 83.6121 714.7C85.9116 717 85.3117 720 85.3117 722.8C85.4117 750.5 85.3117 778.1 85.3117 805.8C85.3117 896.8 85.3117 987.7 85.3117 1078.7C85.3117 1082.5 84.6118 1086.6 89.3108 1088.5C90.3106 1089.8 89.4108 1090.5 88.411 1090.5C86.8113 1090.5 85.1118 1090.8 83.6121 1090.1C57.6177 1089 31.7233 1089.7 5.72886 1089.7C1.42979 1089.7 0.130096 1088.8 0.130096 1084.3C0.230075 961.3 0.23005 838.4 0.23005 715.4C0.23005 693.4 12.5274 681.2 34.6227 681.2C52.6188 681.2 70.6149 681.1 88.5111 681C89.2109 680.5 90.0106 680 90.9104 679.9C94.0098 679.7 97.1092 678.7 99.6086 681.2Z" fill="#202B6D"/>
<path d="M1122.08 656.1C1120.28 666.4 1118.48 676.6 1116.68 686.9C1115.99 691.1 1115.99 695.4 1115.29 699.6C1113.59 709.4 1112.19 719.2 1109.99 728.8C1108.89 735.1 1107.79 741.4 1106.39 747.7C1103.59 764.6 1100.89 781.5 1091.99 796.7C1082.89 812.3 1070.6 824.5 1054.8 833.3C1052.1 834.8 1049.4 836 1046.6 837.2C1035.3 842.6 1023.21 844.4 1010.91 845.3C1005.71 845.7 1005.51 845.9 1006.61 850.9C1007.41 854.5 1008.51 858 1009.11 861.6C1009.21 863.2 1009.31 864.8 1010.01 866.3C1015.21 886.9 1019.61 907.8 1024.21 928.6C1029.8 954.1 1035.6 979.6 1040.8 1005.2C1041.2 1006.8 1040.6 1008.4 1040.6 1010C1045.8 1034.5 1051.1 1059 1056.2 1083.5C1056.5 1085 1058.3 1087.2 1055.5 1087.9C1052.7 1088.6 1053 1086 1052.7 1084.3C1047.3 1059.5 1042 1034.7 1036.6 1009.8C1035.9 1008.4 1034.5 1007.3 1034.4 1005.6C1029.6 986 1025.7 966.3 1021.41 946.6C1015.41 919.1 1009.11 891.7 1002.91 864.2C1002.61 862.3 1002.41 860.3 1001.61 858.4C1001.31 857.5 1001.01 856.5 1000.71 855.5C997.811 844.8 999.411 845.5 987.413 845.5C958.72 845.5 929.926 845.5 901.233 845.5C893.534 845.5 893.434 845.6 891.535 853.1C890.835 855.8 890.235 858.6 889.435 861.3C889.235 862.4 888.735 863.5 888.535 864.6C877.738 911.5 867.64 958.5 857.342 1005.4C857.042 1006.8 856.243 1007.9 855.243 1008.9C851.844 1024.9 848.344 1041 844.945 1057C844.145 1058.8 845.745 1060.5 845.045 1062.3C842.746 1070.7 842.246 1079.5 838.746 1087.6C838.347 1088.1 837.947 1088.4 837.347 1088.5C833.948 1088.7 833.748 1086.2 833.948 1083.9C834.148 1080.8 834.947 1077.8 835.747 1074.8C837.147 1069.6 837.747 1064.3 839.146 1059.1C839.846 1056.8 840.546 1054.6 840.746 1052.2C843.445 1037.7 847.045 1023.5 849.844 1009C849.944 1007.6 850.544 1006.4 850.744 1005C860.941 958 871.239 910.9 881.937 864C882.137 862.9 882.637 861.9 882.737 860.8C883.437 857.4 884.436 854 885.136 850.6C886.136 846 885.736 845.4 880.837 845.4C868.54 845.3 856.343 845.4 844.045 845.4C842.846 845.4 841.746 845.4 840.546 845.3C839.646 845.3 838.846 845.3 837.947 845.3C831.748 844.8 825.349 845 820.051 840.7C818.651 838.8 818.551 836.7 818.551 834.5C818.451 824.5 818.451 814.5 818.551 804.6C818.651 798.6 819.851 797.4 826.049 797.4C840.046 797.3 853.943 797.3 867.94 797.4C890.535 797.5 913.13 798.2 935.725 796.8C948.622 796 961.719 796.8 974.616 796.6C1007.71 796 1031.7 780.7 1046.5 751.3C1052.8 738.8 1054.5 725.4 1052.9 711.4C1051.4 698.7 1050.9 685.9 1049.6 673.1C1049.2 669.3 1050.8 666.4 1053.8 664.1C1060.7 658.6 1067.6 653.1 1074.49 647.6C1082.49 641.1 1088.49 633.4 1089.99 622.8C1090.59 618.8 1090.29 614.9 1089.49 610.9C1084.09 584.3 1078.49 557.8 1073.19 531.1C1072.69 528.8 1071.99 526.6 1072.59 524.2C1077.39 521.5 1082.29 523.7 1086.99 524.2C1097.09 525.3 1105.99 529.6 1113.99 535.9C1115.29 537.2 1116.58 538.5 1117.98 539.8C1134.48 555.4 1139.18 574.4 1134.28 596.3C1134.28 598.5 1133.38 600.5 1133.28 602.7C1130.58 617.7 1127.88 632.8 1124.88 647.8C1124.08 650.5 1123.88 653.6 1122.08 656.1Z" fill="black"/>
<path d="M89.7101 1088.9C85.0112 1089.7 83.6115 1087.8 83.6115 1083C83.7115 962.6 83.7115 842.2 83.7115 721.8C83.7115 719.5 83.7115 717.1 83.6115 714.8C84.2114 703.2 94.309 694.3 107.306 694.1C121.003 693.9 134.8 694.1 148.496 694.1C146.997 695.2 145.597 696.4 144.097 697.4C139.099 700.9 137.099 705.4 137.099 711.8C137.299 779 137.199 846.2 137.199 913.5C137.199 915.7 137.399 917.8 137.499 920C138.099 920.7 138.299 921.5 138.199 922.5C138.099 923.1 137.999 923.7 137.899 924.3C137.799 976.5 137.799 1028.7 137.899 1080.9C137.999 1081.5 138.099 1082.1 138.199 1082.7C138.299 1083.6 137.999 1084.5 137.499 1085.2C136.799 1086.4 137.699 1088.1 136.499 1089.2C132.9 1090.2 129.001 1088.9 125.402 1089.9C125.102 1090 124.802 1090 124.402 1090C121.503 1090.9 118.603 1090.6 115.704 1090.5C107.806 1090.3 99.8077 1090.7 91.9095 1090.3C91.2097 1090 90.3099 1089.7 89.7101 1088.9Z" fill="#202B6D"/>
<path d="M653.187 694.2C686.18 694.2 719.172 694.2 752.065 694.1C753.665 695.9 752.765 697.9 752.365 699.8C744.067 735.1 735.869 770.5 727.67 805.8C724.971 817.5 722.172 829.1 719.572 840.8C719.172 842.6 718.872 844.4 717.873 846C715.773 846.6 715.373 848.1 714.973 850.2C709.075 878 702.776 905.8 696.777 933.6C696.077 936.9 694.478 939.4 691.179 940.7C680.681 945 670.283 949.5 659.886 953.8C658.086 954.6 656.186 955.6 654.187 954.5C654.087 952.5 653.887 950.5 653.887 948.6C653.887 866 653.887 783.3 653.887 700.7C653.687 698.4 653.987 696.2 653.187 694.2Z" fill="#202B6D"/>
<path d="M490.422 1015.5C513.117 1016.3 535.812 1015 558.507 1014.9C582.602 1028.9 606.697 1042.8 630.791 1056.9C641.889 1063.4 646.388 1074.1 647.688 1086.4C648.088 1090.1 645.288 1088.8 643.589 1088.8C622.493 1088.9 601.298 1089 580.203 1089C579.503 1089 578.903 1089 578.203 1089.1C567.405 1089.6 556.608 1089.4 545.81 1089.4C496.921 1089.4 447.931 1089.4 399.042 1089.4C397.243 1089.4 395.343 1089.8 393.643 1089C394.643 1077.1 395.543 1065.2 396.643 1053.4C397.842 1040.9 399.242 1028.4 400.542 1015.8C429.735 1015.7 458.929 1015.7 488.123 1015.6C488.823 1015.1 489.622 1015.1 490.422 1015.5Z" fill="black"/>
<path d="M654.087 954.4C666.884 949.2 679.581 943.9 692.378 938.7C694.578 937.8 694.878 935.8 695.278 933.8C701.276 906.4 707.275 879 713.374 851.6C713.874 849.6 713.174 846.3 716.773 846.1C725.371 847.3 732.969 851.6 741.168 854.1C743.067 854.7 744.867 855.4 746.667 856.3C748.066 857.1 748.966 858.2 749.266 859.8C749.666 878.7 750.266 897.6 748.966 916.4C746.967 919.6 746.467 923.2 746.567 926.9C747.066 943.8 745.467 960.7 745.267 977.6C745.167 987 744.867 996.5 744.367 1005.9C743.967 1014.6 737.269 1018.7 730.67 1022.8C723.372 1022.3 716.373 1020.1 709.275 1018.5C692.678 1014.7 675.982 1011 659.386 1007.2C657.286 1006.7 655.086 1006.6 653.587 1004.8C639.39 1001.5 625.293 998 610.996 994.9C606.997 994 605.897 992.9 607.497 988.8C611.996 977.5 618.794 968.7 630.592 964.3C638.69 961.4 646.288 957.8 654.087 954.4Z" fill="#8F3600"/>
<path d="M1122.08 656.1C1122.98 653.5 1122.08 650.6 1123.58 648.1C1129.88 642.2 1135.08 635.3 1140.58 628.6C1149.98 617.2 1160.18 606.4 1166.87 592.9C1174.27 577.9 1178.07 562.2 1178.17 545.7C1178.57 506.9 1178.37 468.1 1178.27 429.2C1178.27 414.1 1169.67 402 1156.78 398.3C1150.58 396.5 1149.28 397.5 1149.18 403.8C1149.18 408.8 1149.18 413.8 1149.18 418.8C1149.18 421.9 1150.28 423.8 1153.28 424.9C1161.28 427.8 1164.27 433.6 1164.27 442C1164.08 472.2 1164.08 502.3 1164.27 532.5C1164.38 556.6 1156.48 577.5 1140.08 595.2C1137.68 597.8 1136.38 601.8 1132.08 602.1C1132.38 600.1 1132.68 598 1132.98 596C1139.98 586.5 1148.38 578.1 1152.58 566.7C1156.68 555.7 1159.28 544.4 1159.28 532.6C1159.28 503.1 1159.28 473.6 1159.28 444.2C1159.28 439.6 1158.78 435.2 1154.78 432C1153.58 431.1 1152.28 429.9 1150.78 430.5C1149.08 431.2 1149.38 433 1149.38 434.4C1149.28 446.2 1149.38 458.1 1149.38 469.9C1149.38 471.6 1149.38 473.2 1149.38 474.9C1149.28 483.3 1148.08 484.5 1139.88 484.6C1118.38 484.7 1096.99 484.6 1075.49 484.6C1069.5 484.6 1063.5 484.5 1057.5 484.7C1055.1 484.6 1053.3 483.2 1051.6 481.7C1050.4 480.6 1050.9 479.8 1052.1 479.1C1054.7 478.1 1057.4 478.4 1060 478.4C1085.29 478.4 1110.59 478.4 1135.88 478.4C1142.88 478.4 1143.18 478.1 1143.18 471.1C1143.18 402 1143.18 332.8 1143.18 263.7C1143.18 257.1 1142.88 256.7 1136.08 256.7C1040.4 256.7 944.623 256.7 848.944 256.7C842.046 256.7 841.746 257 841.746 264.1C841.746 295.6 841.746 327.1 841.746 358.6C841.746 361.4 842.146 364.3 840.546 366.9C839.646 367.7 838.746 367.7 837.847 367C836.147 364.6 836.547 361.9 836.547 359.3C836.547 326.6 836.547 294 836.547 261.3C836.547 252.4 837.447 251.5 846.245 251.5C885.736 251.5 925.128 251.5 964.619 251.5C974.417 251.5 974.417 251.5 974.417 241.5C974.417 174.3 974.417 107.2 974.417 40C974.417 30.8 974.417 30.8 965.519 30.8C754.165 30.8 542.911 30.8 331.558 30.8C330.358 30.8 329.258 30.9 328.058 30.8C324.659 30.6 323.16 32.2 323.259 35.6C323.359 37.4 323.259 39.3 323.259 41.1C323.259 150.4 323.259 259.7 323.259 369C323.259 372.1 323.659 375.4 322.36 378.4C319.86 380.4 319.76 377.9 319.46 376.6C318.761 373.6 318.161 370.6 318.161 367.5C318.86 362.9 316.661 358.6 316.961 354.1C317.561 350.8 316.961 347.4 316.961 344.1C316.961 242.3 316.961 140.5 316.961 38.7C316.961 25.9 317.361 25.5 330.058 25.5C542.511 25.5 754.965 25.5 967.418 25.5C979.515 25.5 979.616 25.6 979.616 37.8C979.616 106 979.616 174.1 979.616 242.3C979.616 251.5 979.615 251.6 989.013 251.5C1002.71 251.4 1001.31 252.6 1001.31 239.1C1001.31 164.1 1001.31 89.1 1001.31 14.2C1001.31 4.9 1001.31 4.89999 991.913 4.89999C762.463 4.89999 533.014 4.89999 303.564 4.89999C294.166 4.89999 294.166 4.90001 294.166 14.1C294.166 120.1 294.166 226.1 294.166 332C294.166 335.3 294.766 338.7 293.066 341.8C292.266 342.7 291.366 342.7 290.367 342.1C290.367 340.3 290.267 338.4 290.267 336.6C290.267 227 290.267 117.3 290.267 7.7C290.267 0.599997 290.267 0.5 297.665 0.5C531.414 0.5 765.162 0.5 998.911 0.5C1005.71 0.5 1005.71 0.499997 1005.71 7.2C1005.71 87.2 1005.71 167.1 1005.61 247.1C1005.61 251.5 1006.51 253 1011.31 253C1054.8 252.8 1098.19 253 1141.68 252.8C1146.38 252.8 1147.48 254.2 1147.48 258.7C1147.28 301.5 1147.48 344.3 1147.28 387.2C1147.28 391.2 1147.68 393.2 1152.48 393.9C1170.67 396.7 1181.67 410.2 1181.67 428.7C1181.67 466.5 1181.47 504.3 1181.77 542.2C1181.97 571.1 1173.07 596.4 1154.28 618.3C1143.58 630.7 1132.88 643.4 1122.08 656.1Z" fill="#5A83AF"/>
<path d="M319.26 367C319.86 371 320.56 375 321.16 379C323.559 381 322.959 383.5 322.359 386C322.259 386.1 322.259 386.3 322.159 386.4C317.86 390.2 317.86 390.2 322.859 393.1C324.459 401.8 325.359 410.5 321.26 418.9C320.36 419.7 320.46 420.7 320.36 421.7C319.76 422.3 320.16 423.4 319.26 423.8C318.96 424.4 318.76 425.1 318.46 425.7C314.861 434.5 307.363 438.3 298.964 441C296.765 441.7 294.465 442.1 292.266 442.8C291.566 443 290.766 443.1 290.066 443.2C280.668 445 280.268 442.3 281.068 454.5C281.168 455.8 281.568 457.1 280.568 458.3C280.468 458.5 280.268 458.7 280.168 458.9C278.668 460.6 276.569 460.5 274.569 460.5C265.271 460.6 255.973 460.6 246.675 460.5C244.675 460.5 242.676 460.3 241.076 458.9C240.876 458.5 240.676 458.1 240.576 457.7C240.476 447.8 240.476 437.8 240.376 427.9C240.376 423.9 239.377 421 234.578 419.7C229.579 418.3 225.679 414.5 224.58 409C223.38 403 226.379 398.8 230.978 395.5C232.178 394.6 233.578 394 233.678 392.2C235.377 390.4 237.677 390.8 239.776 390.8C255.373 390.9 268.77 386.1 279.268 374.1C285.467 367 292.866 361.4 302.164 358.7C310.162 356.3 316.361 359.3 319.26 367Z" fill="#FD9993"/>
<path d="M90.9096 680.8C90.1098 680.8 89.41 680.8 88.6102 680.8C88.6102 585.7 88.6102 490.5 88.7102 395.4C88.7102 391.9 87.1106 389.5 85.0111 387C52.9184 349.6 31.0232 306.9 19.4259 259C11.5276 226.7 9.12819 194 11.9276 160.9C12.0275 159.6 11.6276 157.9 13.3273 157.5C14.8269 157.2 15.4268 159 16.1267 160C30.6234 179.2 43.0206 199.6 53.5182 221.3C54.318 222.9 55.1178 224.5 56.4175 227.2C57.4172 215 58.2171 204 59.6168 193.1C63.5159 163.4 71.2142 134.8 82.0117 106.9C82.5116 105.6 82.6116 103.6 84.5112 103.5C86.5107 103.5 86.4107 105.5 86.9105 106.8C93.4091 123.9 98.508 141.5 102.707 159.3C103.107 160.9 103.507 162.5 104.207 165.4C107.606 152.7 110.805 141.1 114.704 129.7C122.702 106.2 132.5 83.5 144.498 61.7C145.197 60.3 145.497 57.9 147.497 58.2C149.496 58.5 148.996 60.9 149.396 62.4C156.095 90.8 160.194 119.6 161.994 148.7C162.993 165.5 162.693 182.3 162.693 199.2C164.593 199.3 164.693 197.7 165.293 196.7C172.391 186 179.989 175.7 188.388 166C189.287 165 189.887 162.9 191.687 163.6C193.486 164.2 192.887 166.1 192.987 167.6C193.886 206.7 188.687 244.9 177.29 282.3C165.093 322.3 146.397 359.1 121.403 392.6C119.403 395.2 119.003 397.9 119.003 401C119.003 471.3 119.003 541.6 119.003 611.9C118.703 615.7 118.403 619.4 117.004 623C114.404 620.4 115.204 617.1 115.204 614C115.104 549.2 115.204 484.4 115.204 419.6C115.204 414.1 115.104 408.6 115.204 403.1C115.304 399.4 113.804 397.6 109.905 397.7C105.906 397.8 101.907 397.8 97.908 397.7C93.809 397.6 92.2093 399.5 92.4093 403.4C92.5093 405.2 92.4093 407.1 92.4093 408.9C92.4093 496.5 92.4093 584.1 92.4093 671.7C92.3093 674.8 93.0092 678.1 90.9096 680.8Z" fill="#5882AE"/>
<path d="M653.886 1004.9C668.083 1008 682.28 1011 696.477 1014.1C707.874 1016.7 719.272 1019.4 730.769 1022C731.369 1023.2 731.169 1024.3 730.669 1025.4C729.57 1027.3 727.77 1028.5 725.97 1029.8C714.173 1038.2 702.376 1046.7 690.578 1055C681.88 1061.2 677.781 1070 676.081 1080.2C675.482 1083.5 676.681 1085.3 680.28 1085.3C681.98 1085.3 683.58 1085.3 685.279 1085.3C726.57 1085.3 767.861 1085.3 809.152 1085.3C811.752 1085.3 814.451 1084.9 817.05 1086.2C817.85 1086.8 818.05 1087.6 817.95 1088.6C817.45 1089.9 816.85 1090.8 815.351 1089.7C813.551 1088.9 811.752 1089.3 809.952 1089.3C759.963 1089.3 709.874 1089.3 659.885 1089.3C658.085 1089.3 656.186 1089.7 654.486 1088.9C654.286 1088.3 653.986 1087.7 653.986 1087C653.786 1059.7 653.786 1032.3 653.886 1004.9Z" fill="#202B6D"/>
<path d="M1040.6 1009.9C1039.5 1008.8 1040 1007.4 1039.9 1006.1C1042.1 1004 1044.9 1004.5 1047.5 1004.5C1064.1 1004.4 1080.79 1004.5 1097.39 1004.5C1103.79 1004.5 1104.19 1004.1 1104.19 997.7C1104.19 956.1 1104.19 914.4 1104.19 872.8C1104.19 866.1 1103.79 865.7 1097.09 865.8C1067.6 865.9 1038.2 865.4 1008.71 866.1C1007.41 865 1008.11 863.5 1008.01 862.1C1010.41 860.1 1013.41 860.6 1016.21 860.6C1042.8 860.6 1069.5 860.6 1096.09 860.6C1104.09 860.6 1104.19 860.5 1104.19 852.6C1104.19 849.6 1104.29 846.6 1104.19 843.6C1104.09 838.4 1103.59 837.9 1098.39 837.9C1083.69 837.8 1069.1 837.9 1054.4 837.8C1051.8 837.8 1049 838.4 1046.9 836.1C1049.2 834.9 1051.5 833.7 1053.9 832.5C1068.3 830.7 1082.79 832 1097.19 831.7C1103.89 831.5 1104.19 831.4 1104.19 824.6C1104.29 803.6 1104.09 782.6 1104.29 761.6C1104.29 757.1 1105.79 752.7 1104.99 748.2C1106.19 741.9 1107.39 735.6 1108.59 729.4C1111.09 731.8 1110.39 735 1110.39 737.9C1110.49 774.2 1110.39 810.5 1110.39 846.9C1110.39 907.9 1110.39 968.9 1110.39 1029.8C1110.39 1032.3 1109.79 1035.1 1111.89 1037.6C1113.79 1034.7 1113.09 1031.8 1113.09 1029.1C1113.09 926 1113.19 822.8 1113.09 719.7C1113.09 712.9 1114.39 706.1 1113.99 699.3C1114.89 695.2 1115.69 691.2 1116.58 687.1C1116.68 689.6 1116.78 692.1 1116.78 694.6C1116.78 808.6 1116.78 922.5 1116.78 1036.5C1116.78 1042.5 1113.49 1044.8 1107.69 1042.8C1105.49 1042 1105.89 1040.3 1105.79 1038.7C1105.79 1030.2 1105.69 1021.7 1105.89 1013.2C1105.99 1010 1105.09 1008.7 1101.69 1008.9C1098.09 1009.2 1094.39 1009.1 1090.69 1008.9C1087.99 1008.8 1087.29 1009.9 1087.29 1012.4C1087.39 1023.7 1087.49 1035.1 1087.19 1046.4C1087.09 1050.3 1089.59 1050 1091.89 1050.7C1100.79 1053.5 1106.39 1059.3 1107.79 1068.6C1109.19 1077.7 1105.89 1085.1 1098.39 1090.2C1090.89 1095.4 1082.69 1095.7 1074.89 1091C1067.1 1086.3 1063.2 1079.1 1064 1070C1064.8 1060.5 1071.09 1053 1080.39 1050.8C1084.19 1049.9 1084.89 1048.3 1084.89 1044.8C1084.69 1034.1 1084.79 1023.5 1084.79 1012.8C1084.79 1010.8 1085.19 1008.8 1081.99 1008.8C1068.8 1008.9 1055.7 1008.9 1042.5 1008.9C1041.8 1008.7 1041.1 1009.1 1040.6 1009.9Z" fill="#5A83B0"/>
<path d="M319.26 367C311.662 357.8 306.663 356.8 295.865 362.3C290.267 365.1 285.168 368.7 281.268 373.5C269.771 387.7 254.574 392.5 237.078 392.2C235.878 392.2 234.778 392.2 233.579 392.1C232.679 384.7 232.979 377.2 233.379 369.8C234.079 356.7 245.076 346.1 258.173 344.9C268.871 344 279.669 343.7 290.267 341.9C290.966 341.9 291.666 341.9 292.466 341.9C304.963 336.7 316.961 342.9 317.661 355.1C318.56 359 319.86 362.9 319.26 367Z" fill="black"/>
<path d="M376.547 860C377.247 860.8 377.647 861.8 377.447 862.9C375.247 864.9 372.448 864.5 369.848 864.5C352.852 864.6 335.956 864.4 318.959 864.6C306.062 864.7 295.764 874.2 294.264 886.9C293.565 893.5 294.364 894.5 301.063 894.5C326.658 894.5 352.252 894.5 377.847 894.5C380.146 894.5 382.546 894.4 384.745 895.1C385.745 896 385.245 897.1 385.245 898.2C376.547 898.2 367.949 898.4 359.251 898.1C355.252 898 354.352 899.3 354.352 903.1C354.452 964.4 354.452 1025.7 354.452 1087.1C354.452 1089 355.052 1091.1 353.752 1093.2C351.452 1091.6 352.452 1089.2 352.452 1087.4C352.352 1026.6 352.452 965.8 352.352 904.9C352.352 897.4 353.252 898.3 345.754 898.2C338.755 898.2 331.757 898.1 324.758 898.2C316.36 898.3 317.56 897 317.56 905.7C317.56 966.2 317.56 1026.7 317.56 1087.2C317.56 1089.1 318.059 1091.1 316.46 1093.4C314.86 1091.1 315.36 1088.9 315.36 1087C315.36 1026.2 315.26 965.4 315.46 904.5C315.46 899.6 314.46 897.6 309.161 898.1C304.062 898.6 298.864 898.1 293.665 898.2C291.465 898.2 290.465 897.6 290.265 895.2C288.366 874.8 301.263 860.4 321.959 860.2C329.257 860.1 336.656 860 343.954 860.3C347.853 860.5 348.853 859.1 348.553 855.5C348.253 851 348.553 846.5 348.553 842C349.253 842 349.853 842 350.553 842C353.052 845.4 352.052 849.4 351.952 853.1C351.952 857.2 353.452 858.8 357.551 858.6C361.85 858.4 366.149 858.5 370.448 858.6C372.548 858.5 374.747 858.4 376.547 860Z" fill="#5983AF"/>
<path d="M137.798 1085C137.798 1084.3 137.798 1083.6 137.698 1082.8C138.798 1080.8 140.498 1079.6 142.297 1078.4C165.593 1063.5 177.191 1041.9 177.991 1014.6C178.49 996.6 178.09 978.6 178.09 960.7C178.09 954.9 177.691 954.5 171.792 954.5C163.093 954.5 154.495 954.5 145.797 954.5C139.498 954.5 139.098 954.9 139.098 961.4C139.098 999 139.098 1036.6 139.098 1074.3C139.098 1077.3 139.498 1080.3 137.598 1083C135.899 1081.8 136.599 1080 136.599 1078.4C136.599 1037.8 136.599 997.2 136.599 956.5C136.599 946.7 136.599 936.9 136.599 927.1C136.599 925.4 135.799 923.4 137.598 922C139.298 923.9 139.098 926.3 139.098 928.6C139.198 933.7 139.098 938.9 139.098 944C139.098 946.8 140.298 948.3 143.297 948.3C153.395 948.3 163.593 948.3 173.691 948.3C176.991 948.3 177.991 946.6 177.991 943.6C177.991 938.6 177.891 933.6 177.991 928.7C178.09 924.8 176.291 923.4 172.592 923.5C163.293 923.6 153.995 923.6 144.697 923.5C142.197 923.5 139.698 923.8 137.598 922C137.598 921.3 137.598 920.6 137.598 919.9C150.896 919.9 164.193 919.9 177.491 919.8C180.39 919.8 181.59 920.5 181.59 923.7C181.49 955.7 182.49 987.7 181.19 1019.6C179.99 1049.4 164.793 1071.6 137.798 1085Z" fill="#5A83AF"/>
<path d="M1035.7 1005.9C1036 1007.2 1036.3 1008.5 1036.7 1009.8C1035.5 1008.7 1034 1008.7 1032.5 1008.7C974.117 1008.7 915.63 1008.7 857.242 1008.7C856.542 1008.7 855.943 1008.8 855.243 1008.9C855.543 1007.9 855.843 1007 856.143 1006C858.042 1004.3 860.442 1004.3 862.741 1004.3C918.229 1004.3 973.717 1004.3 1029.2 1004.3C1031.4 1004.3 1033.8 1004.1 1035.7 1005.9Z" fill="#5881AE"/>
<path d="M574.205 694.3C575.204 694.3 576.304 694.3 577.304 694.2C579.804 722.7 577.904 751.3 578.304 779.8C578.404 786.1 575.804 791.7 571.605 796.5C571.705 794.4 571.905 792.4 572.005 790.3C574.305 786.6 574.505 782.4 574.605 778.4C575.005 765.6 576.004 752.8 575.604 740C575.105 725.9 575.604 711.7 573.805 697.7C573.605 696.5 573.505 695.4 574.205 694.3Z" fill="#5982AE"/>
<path d="M393.643 1089C434.434 1089 475.126 1089.1 515.917 1089.1C536.712 1089.1 557.508 1089.1 578.203 1089.1C571.505 1090.7 564.706 1089.3 557.908 1089.9C556.208 1090 553.709 1088.7 553.209 1092C553.109 1092.7 552.009 1093.1 551.809 1092.4C550.409 1088 546.91 1090.1 544.311 1090C537.012 1089.7 529.714 1089.8 522.315 1090C520.416 1090 517.716 1088.8 517.117 1092.2C517.017 1092.8 515.817 1093.3 515.617 1092.5C514.417 1087.9 510.718 1090 508.318 1090C471.726 1089.9 435.134 1089.9 398.542 1089.9C397.043 1089.8 395.143 1090.8 393.643 1089Z" fill="#50749B"/>
<path d="M654.286 1089C706.875 1089 759.464 1088.9 811.953 1088.9C813.152 1088.9 814.352 1088.8 815.152 1089.9C763.363 1089.9 711.674 1089.9 659.885 1089.9C658.085 1089.8 655.986 1090.6 654.286 1089Z" fill="#6088B2"/>
<path d="M815.151 1089.8C815.851 1089.5 816.451 1089.1 817.151 1088.8C818.25 1088.3 819.45 1088.5 820.45 1088.9C826.448 1091.3 832.247 1089.9 838.046 1087.8L837.946 1087.9C846.044 1080.6 847.543 1071.7 843.944 1061.7C844.044 1060.1 843.944 1058.5 844.844 1057C848.043 1063 850.743 1069 849.243 1076.3C846.044 1091.7 828.048 1099 815.151 1089.8Z" fill="#6088B2"/>
<path d="M567.405 870C567.405 869 567.505 868 567.505 866.9C577.004 874.3 579.103 884.4 578.403 895.7C578.303 897.8 577.104 898.1 575.504 898.1C572.204 898.2 568.905 898.3 565.605 898.5C565.505 896.8 565.106 895.1 565.905 893.5C566.605 893.6 567.205 893.9 567.805 894.1C573.804 895.7 575.304 894.4 574.904 888.2C574.504 881.2 570.605 875.8 567.405 870Z" fill="#5C84B0"/>
<path d="M89.7095 1088.9C90.4093 1088.9 91.1092 1089 91.809 1089C93.4087 1090 95.2083 1089.8 96.908 1089.9C101.507 1089.9 106.006 1089.9 110.505 1089.9C112.505 1090 114.605 1089.9 116.504 1089.1C119.204 1089.4 121.903 1089.6 124.603 1089.9C110.905 1094.2 97.208 1094.5 83.5107 1090C85.6103 1089.2 87.9098 1090.6 89.7095 1088.9Z" fill="#5B82AE"/>
<path d="M125.603 1089.8C129.202 1088 133.001 1089.1 136.7 1089.1C133.101 1090.6 129.302 1089.5 125.603 1089.8Z" fill="#5B82AE"/>
<path d="M403.742 980C404.242 980 404.841 979.9 405.341 979.9C405.441 981.3 405.741 982.7 404.641 983.9C404.342 982.6 404.042 981.3 403.742 980Z" fill="#3F1700"/>
<path d="M321.358 387.3C321.358 384.5 321.258 381.8 321.258 379C321.358 376.2 321.458 373.3 321.458 370.5C321.458 258.7 321.458 146.9 321.358 35.1C321.358 30.1 322.458 28.8 327.557 28.8C541.61 28.9 755.763 28.9 969.817 28.8C974.615 28.8 975.815 30 975.815 34.8C975.615 105.4 975.615 176.1 975.815 246.7C975.815 251.5 974.515 252.8 969.716 252.8C927.726 252.6 885.835 252.8 843.844 252.6C839.245 252.6 838.045 253.8 838.045 258.4C838.245 292.6 838.145 326.7 838.145 360.9C838.145 362.9 837.945 364.9 837.845 366.9C836.046 368.9 833.546 368.6 831.347 368.6C762.162 368.6 692.877 368.6 623.692 368.6C622.392 368.6 620.993 368.6 619.693 368.3C616.994 367.7 616.394 366.4 618.093 364.2C619.093 362.9 620.293 361.8 621.493 360.6C635.79 346.3 650.186 331.9 664.283 317.4C649.486 331.9 634.79 346.6 620.093 361.3C617.394 363.9 615.294 367.4 611.195 368.3C608.395 368.7 605.496 368.6 602.697 368.6C559.606 368.6 516.616 368.6 473.525 368.6C456.229 368.6 447.931 376.9 447.931 394.4C447.931 428 447.931 461.6 447.931 495.2C447.931 497.9 447.931 500.5 447.731 503.2C447.631 504.4 447.731 505.7 447.031 506.6C442.532 512 438.633 518.1 432.434 521.9C426.735 528 421.036 534.1 415.338 540.2C413.338 541.2 411.239 541.5 409.039 541.5C394.042 541.5 379.146 541.5 364.149 541.5C362.149 541.5 360.15 541.3 358.45 540.1C351.952 522.5 345.553 504.8 339.054 487.2C338.155 484.9 337.155 482.5 336.655 480.1C335.255 472.6 331.056 467 324.658 463.1C321.858 461.4 321.358 459.5 321.358 456.6C321.458 444.1 321.358 431.6 321.258 419.1C322.258 412 322.658 404.8 322.258 397.6C322.158 396 322.658 394.3 321.358 392.9C320.958 391 321.158 389.2 321.358 387.3Z" fill="#FEFEFE"/>
<path d="M461.329 584C466.028 577 472.127 571.2 477.825 565.1C481.025 561.7 481.025 559.6 477.026 557.3C475.926 556.7 475.026 555.6 473.926 554.8C475.726 548.6 480.425 544.5 484.924 540.5C490.523 535.6 497.121 531.9 503.42 527.9C505.219 526.8 507.419 525.4 508.519 528.9C509.419 540.1 508.719 551.2 508.919 562.4C509.019 570.3 509.119 570.4 517.117 570.4C556.408 570.4 595.7 570.4 634.991 570.4C642.389 570.4 642.589 570.2 642.589 562.9C642.589 513.6 642.589 464.3 642.589 415C642.589 407.6 642.489 407.6 634.991 407.6C595.4 407.6 555.708 407.6 516.117 407.6C509.019 407.6 508.919 407.7 508.919 414.9C508.819 431.4 509.219 447.9 508.719 464.4C508.419 467.2 506.619 468.7 504.42 470.1C495.422 475.7 486.424 481.4 477.426 487C475.926 487.9 474.326 489.6 472.527 488C471.127 486.7 472.127 484.9 472.527 483.3C473.326 480.4 474.426 477.6 475.326 474.8C476.226 471.8 475.626 469.2 473.126 467.2C470.527 465.2 467.928 465.7 465.328 467.4C464.028 468.3 462.829 470.6 460.829 468.3C459.629 465.8 459.929 463.1 459.929 460.4C459.929 440.2 459.929 420.1 459.929 399.9C459.929 385.3 464.728 380.5 479.425 380.4C579.603 380.4 679.881 380.4 780.059 380.4C795.756 380.4 811.352 380.4 827.049 380.4C829.348 380.4 831.748 380.4 834.047 380.8C841.146 382.1 845.245 386.6 845.745 393.7C845.845 395.5 845.845 397.4 845.845 399.2C845.845 459.3 845.845 519.5 845.845 579.6C845.845 581.8 845.945 583.9 845.645 586.1C844.945 592.3 840.446 596.8 834.247 597.5C832.048 597.7 829.948 597.7 827.749 597.7C711.574 597.7 595.4 597.7 479.225 597.7C476.226 597.7 473.226 597.9 470.227 597.2C463.329 595.4 459.729 590 461.329 584Z" fill="black"/>
<path d="M461.328 584C462.728 593.1 466.227 596.1 475.225 596.1C593.6 596.1 711.974 596.1 830.349 596.1C840.446 596.1 844.146 592.3 844.146 582.2C844.146 520.2 844.146 458.3 844.146 396.3C844.146 386.4 840.046 382.3 830.248 382.3C712.174 382.3 594.2 382.3 476.125 382.3C465.527 382.3 461.528 386.3 461.528 396.7C461.528 419 461.528 441.3 461.528 463.7C461.528 465.5 461.828 467.3 461.928 469.1C463.328 470.5 462.228 471.9 461.728 473.2C458.329 482.3 454.83 491.5 451.23 500.5C450.431 502.6 449.531 505 446.631 505C446.631 466.4 446.332 427.8 446.532 389.2C446.631 376.5 456.629 366.9 469.427 366.9C517.316 366.8 565.206 366.9 613.095 366.9C614.495 366.2 615.995 365.6 617.395 366.9C690.879 366.9 764.363 366.9 837.747 366.9C838.547 366.9 839.447 366.9 840.246 366.9C846.545 365.9 854.243 370.2 858.142 376.9C859.242 378.8 859.942 380.8 860.742 382.8C861.542 385.2 862.242 387.5 862.242 390.1C862.242 405.2 862.941 420.4 862.042 435.4C861.142 448.5 861.642 461.6 861.342 474.7C861.242 476.7 861.142 478.7 861.842 480.6C862.142 481.5 862.142 482.4 862.242 483.4C862.641 492.5 862.342 501.7 862.442 510.8C862.542 517.2 862.641 517.4 869.24 517.4C877.038 517.4 884.837 517.4 892.635 517.4C894.935 517.4 897.334 517.2 899.434 518.5C899.934 519 900.133 519.5 899.834 520.1C898.034 521.6 895.734 521.3 893.635 521.3C885.037 521.4 876.439 521.3 867.84 521.4C866.041 521.4 863.741 520.6 862.741 523.2C861.842 531.6 862.542 540.1 862.342 548.5C862.342 552 864.741 552.4 867.441 552.4C877.038 552.4 886.636 552.4 896.234 552.4C898.734 552.4 901.233 552.1 903.433 553.6C903.933 554.1 903.933 554.7 903.533 555.2C889.936 555.3 876.239 556.1 862.642 554.8C862.642 554.9 862.641 555.1 862.741 555.5C876.139 555.6 889.636 555.4 903.133 555.6C903.833 555.8 904.033 556.3 903.933 557C902.033 558.9 899.634 558.5 897.334 558.5C887.636 558.6 878.038 558.5 868.34 558.5C862.742 558.5 862.342 558.9 862.242 564.4C862.142 572.7 862.442 581.1 862.142 589.4C861.742 602.8 853.743 612.3 841.446 614.4C839.946 614.3 838.547 614.7 837.047 615.1C828.949 615.8 820.951 615.6 812.852 615.2C811.453 614.9 809.953 614.9 808.553 615.2C792.557 615.9 776.66 615.4 760.664 615.5C745.867 615.6 731.07 615.5 716.273 615.5C709.775 615.5 709.375 615.9 709.375 622.2C709.375 633.7 709.275 645.2 709.375 656.6C709.375 661.8 709.975 662.2 715.173 662.4C716.673 662.4 718.173 662.4 719.672 662.4C729.77 662.6 733.669 668.5 729.67 678.4C736.969 678.4 743.967 678.4 751.066 678.4C753.565 678.4 756.065 678.1 758.364 679.4C758.964 679.9 758.964 680.4 758.464 680.9C701.776 680.9 645.089 680.8 588.301 680.8C580.502 680.8 572.704 681.5 564.906 680.6C564.906 679.9 565.206 679.4 565.806 679.2C568.305 678.1 571.005 678.5 573.704 678.5C575.604 678.5 576.703 678.3 576.203 675.7C574.604 666.6 578.003 662.7 587.401 662.5C597.699 662.3 597.399 663.5 597.399 652.4C597.399 642.6 597.399 632.8 597.399 622.9C597.399 615.6 597.199 615.5 589.8 615.5C551.409 615.5 513.017 615.5 474.525 615.5C464.728 615.5 456.029 613.2 449.831 605C448.331 603 446.631 601 447.831 598.2C452.13 593.2 456.129 588 461.328 584Z" fill="#5494A2"/>
<path d="M448.231 598.3C451.93 608.4 460.028 613.6 472.026 613.6C512.317 613.6 552.609 613.6 592.9 613.6C600.598 613.6 599.698 612.8 599.698 620.7C599.698 633.5 599.598 646.4 599.798 659.2C599.898 663 598.699 664.3 595 663.9C592.2 663.6 589.301 663.9 586.501 663.8C582.602 663.6 579.403 664.9 577.903 668.4C576.304 672 576.903 675.6 580.003 678.4C580.303 678.7 580.503 679.1 581.102 680C575.504 680 570.405 680 565.406 680C564.406 680.1 563.306 680.1 562.407 679.7C553.808 675.7 544.61 676.3 535.412 676.3C481.824 676.3 428.335 676.3 374.747 676.3C372.147 676.3 369.448 676.7 366.848 675.5C364.749 672.6 365.449 670.1 367.848 667.8C383.245 669.9 392.343 660.3 401.341 650C416.838 632.7 432.534 615.6 448.231 598.3Z" fill="#FEFEFE"/>
<path d="M90.9105 680.8C90.9105 587.5 90.9105 494.3 90.8105 401C90.8105 396.5 92.1102 395.2 96.4091 395.5C102.008 395.9 107.706 395.7 113.405 395.5C116.004 395.4 117.004 396.4 116.804 399C116.704 400.3 116.804 401.7 116.804 403C116.804 473.9 116.804 544.9 116.804 615.8C116.804 618.1 116.904 620.5 117.004 622.8C114.505 632.5 114.205 642.3 117.004 652C118.804 659.9 118.104 667.9 118.204 675.8C118.204 679.1 116.904 680.6 113.405 680.4C110.306 680.2 107.107 680 104.007 680.6C102.608 680.8 101.208 680.9 99.8083 681.1C96.7091 681.1 93.8098 681 90.9105 680.8Z" fill="#FEFEFE"/>
<path d="M446.732 505C448.732 503.8 449.631 501.9 450.331 499.8C454.23 489.5 458.13 479.3 462.029 469.1C465.528 464.4 469.027 463.2 472.926 465.2C476.726 467.1 478.025 471.2 476.326 476.3C475.126 480 473.826 483.7 472.027 488.9C484.624 480.9 496.121 473.6 507.519 466.2C508.519 464.2 510.518 463.8 512.418 463.2C518.017 461.3 523.515 461.4 528.814 464C533.513 466.2 533.713 468.6 529.314 471.3C521.716 476 514.017 480.5 506.719 485.7C508.918 485.6 510.518 484.3 512.218 483.2C517.817 479.6 523.615 476.4 529.214 472.8C537.312 467.6 540.612 468.2 546.81 475.8C547.01 476.5 547.01 477.2 546.71 477.9C537.112 484 527.115 489.5 518.117 496.5C527.814 490.5 538.412 485.8 547.31 478.5C548.01 478.2 548.71 478.3 549.41 478.7C553.409 491.3 550.409 499.6 538.812 507C529.914 512.7 521.016 518.5 512.418 524.7C510.718 525.6 509.418 527.1 507.319 527C495.021 534.8 482.024 541.7 474.026 554.7C460.229 543.7 446.332 532.7 432.535 521.8C437.234 516.2 441.933 510.6 446.732 505Z" fill="#FD9993"/>
<path d="M241.077 459C254.074 459 267.171 459 280.168 459C282.968 491.8 285.767 524.6 288.567 557.4C289.966 573.5 291.166 589.6 292.666 605.6C293.065 609.4 291.766 610 288.367 610C279.768 609.8 271.07 609.7 262.372 609.9C259.373 610 258.473 609.1 258.074 606.1C255.674 584.9 253.075 563.8 250.575 542.7C247.476 514.8 244.277 486.9 241.077 459Z" fill="black"/>
<path d="M367.849 667.9C367.449 670.3 366.949 672.6 366.549 675C367.049 676.1 366.549 677 366.049 677.9C365.349 679.2 364.35 680 362.95 680.4C362.35 680.4 361.75 680.5 361.15 680.4C339.655 680.4 318.26 680.4 296.764 680.4C294.965 680.4 293.065 681.1 291.466 679.8C294.765 665.8 298.364 651.8 301.363 637.8C302.363 633.4 303.763 631.2 308.762 631.8C312.861 632.3 317.06 632.5 321.059 633.4C329.257 635.2 337.356 637.7 345.554 639.5C360.151 642.7 366.649 651.7 367.849 667.9Z" fill="#FD9993"/>
<path d="M369.449 568.9C366.149 560 362.85 551.1 359.551 542.2C360.751 540.6 362.55 540.9 364.15 540.9C378.946 540.9 393.743 540.9 408.64 540.9C410.24 540.9 412.039 540.5 413.239 542.1C405.841 551.5 397.542 560.1 389.444 568.9C382.746 571.1 376.147 571.4 369.449 568.9Z" fill="#FEFEFE"/>
<path d="M292.465 441.9C300.164 439.3 308.362 437.6 314.061 431C315.56 429.3 317.06 427.6 318.56 425.9C318.56 436 318.56 446.1 318.66 456.2C318.66 458.5 318.56 459.6 315.46 459.3C309.362 458.7 303.263 459 297.164 458.9C295.565 458.9 293.865 459.4 292.465 458.1C290.366 452.7 290.466 447.3 292.465 441.9Z" fill="#FDFDFD"/>
<path d="M291.566 679.8C296.465 680.7 301.463 680.2 306.362 680.2C325.358 680.4 344.354 680.5 363.45 680.6V680.8C298.864 680.8 234.278 680.8 169.693 680.9C149.597 680.9 129.401 681 109.306 681C107.506 681 105.707 680.8 103.807 680.7C106.806 679.5 110.006 680.2 113.105 680.2C116.004 680.2 116.804 679.2 116.704 676.5C116.604 668.4 116.804 660.2 116.804 652.1C118.104 653.9 118.504 656.1 118.904 658.2C120.803 662.5 120.104 667 120.203 671.5C120.303 678.2 120.403 678.4 127.302 678.4C132.301 678.4 137.3 678.1 142.099 680C189.788 680 237.478 680 285.167 679.9C287.267 679.9 289.466 679.8 291.566 679.8Z" fill="#5781AD"/>
<path d="M142.099 680C135.6 680.1 129.202 680 122.703 680.2C119.504 680.3 118.804 679 118.804 676.1C119.004 670.1 118.904 664.2 118.904 658.2C123.403 664.1 127.302 670.5 133.701 674.6C136.5 676.4 139.3 678.2 142.099 680Z" fill="#F8F9FA"/>
<path d="M280.568 458.4C280.268 457.1 279.868 455.8 279.768 454.5C278.568 443.6 279.068 443 290.166 442.1C292.366 447.3 292.166 452.6 290.266 457.9C287.167 459.5 283.867 459 280.568 458.4Z" fill="#FAFAFB"/>
<path d="M387.345 571.1C383.745 575.9 379.846 580.3 375.047 584.8C373.547 579.9 371.248 575.7 370.448 571C376.147 569.4 381.746 569.3 387.345 571.1Z" fill="#FDFDFE"/>
<path d="M413.238 542.2C395.343 542.2 377.447 542.2 359.551 542.2C359.251 541.4 358.852 540.7 358.552 539.9C377.547 539.9 396.443 540 415.438 540C414.638 540.8 413.938 541.5 413.238 542.2Z" fill="#5882AE"/>
<path d="M387.344 571.1C381.746 571.1 376.047 571 370.449 571C369.649 570.5 369.449 569.8 369.449 568.9C376.147 568.9 382.746 568.9 389.444 569C389.044 570 388.344 570.7 387.344 571.1Z" fill="#5882AF"/>
<path d="M319.359 424C319.459 423.1 319.559 422.3 320.459 421.9C320.459 434.3 320.459 446.7 320.459 459.1C320.059 459.1 319.759 459.1 319.359 459.1C319.359 447.3 319.359 435.6 319.359 424Z" fill="#5882AE"/>
<path d="M290.367 457.9C290.367 452.6 290.267 447.4 290.267 442.1C290.966 442 291.765 442 292.465 441.9C292.465 447.3 292.465 452.6 292.465 458C291.666 458.3 290.966 458.9 290.367 457.9Z" fill="#5881AE"/>
<path d="M404.042 779.9C352.153 779.4 300.164 778.8 248.275 778.4C232.179 778.3 221.281 769.2 211.683 758.1C204.285 749.5 199.886 739.4 197.486 728.3C195.387 718.4 193.087 708.5 190.388 698.7C189.288 694.7 190.188 694 194.087 694C252.175 694.1 310.262 694.1 368.349 694.1C373.648 694.1 378.947 694.2 384.346 694.3C390.544 720.9 396.743 747.5 402.942 774.1C403.342 776 403.642 778 404.042 779.9Z" fill="#6DB5DE"/>
<path d="M389.345 896C386.146 885.1 384.046 873.9 381.547 862.9C382.847 861.6 384.446 861.5 386.146 861.5C396.143 861.5 406.141 861.5 416.038 861.5C417.538 861.5 419.038 861.7 420.237 862.8C418.838 873.9 417.438 884.9 416.038 896C415.039 897.1 413.739 897.3 412.439 897.3C405.941 897.4 399.543 897.4 393.044 897.3C391.645 897.3 390.445 896.9 389.345 896Z" fill="#FEFEFE"/>
<path d="M405.64 972.2C400.341 948.2 395.142 924.2 389.843 900.1C389.743 899.5 389.744 898.8 389.644 898.1C390.743 896.8 392.243 897 393.743 896.9C399.642 896.9 405.541 896.8 411.439 896.9C413.039 896.9 414.839 896.5 415.738 898.4C412.739 922.1 409.64 945.7 406.64 969.4C406.54 970.4 406.54 971.5 405.64 972.2Z" fill="#FEFEFE"/>
<path d="M490.422 1015.5C489.622 1015.5 488.922 1015.6 488.123 1015.6C486.723 1008.7 489.022 1002.1 489.822 995.5C494.221 961 498.82 926.6 503.419 892.1C508.318 855.7 513.217 819.3 518.015 782.8C518.515 779.3 518.915 775.9 519.315 772.4C519.515 770.8 519.515 768.6 521.915 769.1C523.914 769.5 523.314 771.5 523.114 772.9C521.715 783.6 520.315 794.3 518.815 805.1C514.616 836.4 510.417 867.7 506.318 899C501.219 937.1 496.221 975.2 491.222 1013.2C491.222 1014.1 490.722 1014.8 490.422 1015.5Z" fill="#FDFDFD"/>
<path d="M380.746 859.9C379.546 853.7 377.247 847.8 376.747 841.5C390.844 841.5 404.84 841.7 418.937 841.5C422.537 841.5 423.436 842.4 422.736 845.9C421.737 850.6 421.237 855.3 420.537 860.1C419.037 861.4 417.238 861.4 415.338 861.4C405.74 861.4 396.042 861.4 386.445 861.4C384.345 861.5 382.445 861.3 380.746 859.9Z" fill="#FCFDFD"/>
<path d="M574.203 694.3C575.703 698.4 576.403 702.6 576.403 706.9C576.303 730.3 576.403 753.7 576.303 777.2C576.303 781.9 576.603 786.9 572.104 790.3C573.103 774.2 574.103 758.1 575.203 742C576.602 721.5 565.105 703.6 546.01 696.3C544.11 695.6 542.311 694.9 540.511 694.1C551.609 694.2 562.906 694.3 574.203 694.3Z" fill="#FDFDFD"/>
<path d="M567.405 870C574.804 876.3 576.604 884.6 576.204 893.8C576.204 894.3 576.204 894.9 575.904 895.2C574.504 897.1 567.105 895.8 565.906 893.4C566.505 885.6 567.005 877.8 567.405 870Z" fill="#FDFDFD"/>
<path d="M380.747 859.9C393.944 860 407.241 860 420.438 860.1C420.438 861 420.338 861.9 420.338 862.8C407.441 862.8 394.544 862.9 381.647 863C381.247 861.9 381.047 860.9 380.747 859.9Z" fill="#5881AE"/>
<path d="M415.738 898.5C407.04 897.6 398.343 898.3 389.645 898.1C389.545 897.4 389.445 896.7 389.345 896C398.243 896 407.14 895.9 416.038 895.9C416.138 896.8 416.438 897.7 415.738 898.5Z" fill="#5881AD"/>
<path d="M758.864 681C758.964 680.8 759.064 680.5 759.064 680.2C761.663 674.6 766.862 671.7 771.861 668.8C782.058 663 792.956 661.3 804.453 664.3C806.353 664.8 808.353 665.1 810.252 665.5C811.052 665.6 811.852 665.7 812.652 665.9C821.15 668.2 829.748 669.4 838.246 671.8C838.746 672 839.146 672.3 839.646 672.6C848.044 685.4 855.142 699 862.841 712.2C877.837 738 892.534 763.8 907.331 789.7C908.73 792.1 911.43 794.9 910.13 797.3C908.73 799.9 905.031 798.3 902.332 798.3C891.334 798.6 880.437 798.1 869.439 798.6C854.542 798.7 839.546 798.8 824.649 798.8C822.649 798.8 820.75 798.4 820.75 801.6C820.75 814.2 820.55 826.8 820.55 839.4C820.55 839.9 820.95 840.3 821.15 840.8C822.149 843 821.95 845.4 821.95 847.7C821.95 867.3 822.05 886.9 821.95 906.5C821.95 913.5 821.35 920.4 820.15 927.3C818.55 929.5 816.251 928.7 814.151 928.5C796.255 926.7 778.459 924 760.663 921.7C756.964 921.2 753.365 921 749.766 922.1C747.666 920.7 748.066 918.7 748.266 916.7C748.366 897.4 748.466 878.1 748.666 858.7C749.366 836.6 748.766 814.4 749.066 792.3C749.166 781.3 749.766 770.3 750.265 759.4C751.065 739.7 769.761 722 789.457 721.4C796.955 721.2 804.354 721.3 811.852 720.6C819.05 719.9 826.449 720.5 833.747 720.3C819.95 720.4 806.253 720.3 792.456 720.4C767.962 720.6 749.166 739.4 749.066 764C748.966 778.3 748.766 792.7 749.066 807C749.466 822 747.566 836.9 747.966 851.9C747.966 853.7 748.066 855.6 746.466 857C736.569 853.8 726.571 850.7 717.073 846.2C728.87 795.8 740.668 745.4 752.365 695C752.465 694.7 752.365 694.3 752.365 694C754.365 689.7 756.564 685.4 758.864 681Z" fill="#FD9993"/>
<path d="M384.746 895C383.447 896.6 381.647 895.9 380.047 895.9C352.453 895.9 324.859 895.8 297.265 896C293.166 896 292.366 894.8 292.366 891C292.566 874.1 303.664 862.7 320.46 862.7C339.456 862.7 358.352 862.8 377.348 862.9C379.847 873.6 382.347 884.3 384.746 895Z" fill="#FEFEFE"/>
<path d="M363.45 680.8V680.6C363.55 680.4 363.65 680.2 363.85 680.1C365.649 678.6 367.749 678.5 369.948 678.5C429.336 678.5 488.823 678.5 548.21 678.5C551.21 678.5 554.209 679.6 557.208 679.1C553.309 679.4 549.41 678.5 545.511 678.5C488.123 678.6 430.635 678.6 373.248 678.5C370.648 678.5 367.849 679.2 365.649 677C365.949 676.3 366.249 675.7 366.549 675C426.436 675 486.323 675.1 546.311 675C553.209 675 559.508 676.4 565.307 680C565.307 680.2 565.307 680.4 565.307 680.6C543.011 680.7 520.816 680.9 498.521 681C455.53 681.1 412.439 681 369.448 681C367.449 681 365.449 680.9 363.45 680.8Z" fill="#5882AE"/>
<path d="M376.547 860C369.449 860 362.25 859.8 355.152 860.2C351.153 860.4 350.353 858.8 350.553 855.3C350.753 850.8 350.553 846.4 350.553 841.9C357.152 841 363.65 841.7 370.249 841.4C371.948 841.3 372.448 842.2 372.848 843.7C374.048 849.1 375.947 854.4 376.547 860Z" fill="#FDFDFD"/>
<path d="M869.239 798.7C879.837 797.8 890.434 798.4 901.032 798.1C903.832 798 906.631 798.1 910.43 798.1C886.235 755.9 862.54 714.5 838.745 673.1C838.745 672.1 839.445 671.6 840.345 671.5C851.643 672.9 862.54 675.9 873.538 678.3C882.336 680.2 891.234 681.6 899.832 684.3C900.832 684.8 901.832 685.4 903.032 685.6C930.426 690.9 958.02 695.5 985.314 701.8C986.114 699.8 984.814 698.7 984.115 697.6C977.716 687.5 971.717 677.1 965.418 666.9C963.519 663.9 961.319 662.7 957.82 662.3C951.421 661.5 944.923 661.6 938.424 660.7C932.325 659.8 926.527 661.1 920.928 663.7C919.428 664.4 918.029 665.4 916.329 665.4C915.729 665.2 915.329 664.9 915.029 664.4C914.329 663.1 913.829 661.7 913.629 660.3C910.83 632.9 907.831 605.5 904.831 578.1C904.232 572.7 903.632 567.2 903.232 561.7C903.132 560.1 902.732 558.4 903.932 556.9C904.132 556.6 904.132 556.4 903.932 556.1C903.232 555.8 903.232 555.4 903.832 555C903.832 554.7 903.732 554.3 903.732 554C900.732 550.4 901.632 545.9 901.132 541.7C900.332 535.8 899.433 530 899.333 524.1C899.433 522.7 899.133 521.3 900.032 520C900.132 519.7 900.132 519.4 899.932 519.2C897.033 512.9 897.833 506.2 900.532 500.5C903.632 493.9 907.831 487.5 914.429 483.4C916.029 482.5 917.229 481.2 918.828 480.3C920.028 479.7 921.228 479.1 922.428 478.4C934.325 473 946.922 474.5 959.42 474.8C969.517 474 979.516 475.1 989.613 474.5C995.712 476.5 1001.81 475 1007.91 475C1011.41 475.9 1014.91 475.9 1018.31 475.2C1026.01 473.8 1033.6 474.8 1041.2 475.6C1044.7 476 1048.6 476.2 1050.7 480C1052.7 481.3 1054.7 482.6 1056.7 483.8C1059.1 483.4 1060.4 485 1061.6 486.5C1066.4 491.9 1069.9 498 1070.8 505.3C1071.3 509.6 1072.2 513.8 1073 518C1073.1 519.3 1073.5 520.5 1073.6 521.7C1073.6 522.5 1073.3 523.2 1072.9 523.8C1077.19 544.6 1081.49 565.4 1085.79 586.1C1087.29 593.2 1088.49 600.5 1090.29 607.5C1094.59 624.3 1088.79 637.5 1075.79 648C1068.6 653.8 1061.3 659.6 1053.9 665.3C1051.5 667.1 1050.6 669.2 1050.9 672.1C1052.2 685.8 1053.6 699.5 1054.7 713.2C1056.4 734.9 1049.9 753.9 1035.7 770.2C1019.41 788.8 998.611 797.4 974.017 797.6C941.124 797.8 908.131 798.2 875.238 798.6C873.238 799 871.238 798.8 869.239 798.7Z" fill="#202B6D"/>
<path d="M1035.7 1005.9C1035 1006 1034.4 1006.1 1033.7 1006.1C974.516 1006.1 915.229 1006.1 856.042 1006C860.041 987.3 863.841 968.7 868.04 950C874.338 921.3 880.837 892.7 887.335 864C889.135 862.4 891.335 862.5 893.534 862.5C928.526 862.5 963.419 862.5 998.411 862.5C1000.41 862.5 1002.41 862.4 1004.11 863.8C1009.11 881.7 1012.71 900 1016.71 918.1C1023.21 947.4 1029.4 976.7 1035.7 1005.9Z" fill="#FEFEFE"/>
<path d="M1008.81 865.8C1009.11 863.2 1011.11 863.9 1012.61 863.9C1042.4 863.9 1072.19 863.9 1101.89 863.8C1105.19 863.8 1105.99 864.8 1105.99 868C1105.89 912.6 1105.89 957.2 1105.99 1001.8C1105.99 1005.1 1104.99 1006 1101.79 1006C1081.19 1005.8 1060.5 1005.9 1039.9 1005.9C1035.7 987.1 1031.6 968.4 1027.41 949.6C1021.21 921.8 1015.01 893.8 1008.81 865.8Z" fill="#FEFEFE"/>
<path d="M1072 518.9C1071 513.4 1070.3 507.7 1068.9 502.3C1067.1 494.8 1063.1 488.6 1056.8 484C1058.1 482.1 1060.2 483 1061.8 483C1088.39 482.9 1115.09 482.8 1141.68 483.1C1146.48 483.1 1147.58 481.6 1147.48 477.1C1147.28 462.1 1147.38 447.1 1147.38 432.1C1147.38 427.6 1148.68 426.7 1152.78 428.5C1157.78 430.7 1160.78 434.5 1160.78 440.1C1160.78 472.9 1161.38 505.7 1160.48 538.5C1159.88 560.4 1150.58 579.3 1135.18 595C1134.58 595.6 1133.88 595.9 1132.98 595.8C1138.08 574.1 1132.48 555.5 1116.89 539.7C1114.29 535.5 1115.69 530.9 1115.49 526.5C1115.19 520.4 1115.39 520.3 1109.49 520.3C1099.19 520.3 1088.89 520.3 1078.59 520.3C1076.29 520.5 1073.9 520.8 1072 518.9Z" fill="#FEFEFE"/>
<path d="M1132.08 602C1152.68 581.8 1163.78 557.9 1163.18 528.5C1162.58 500 1163.08 471.5 1163.08 443C1163.08 432.2 1160.48 428.5 1150.08 425.4C1147.58 424.7 1147.48 423.4 1147.48 421.4C1147.48 414.1 1147.58 406.7 1147.48 399.4C1147.38 396.2 1148.58 395.5 1151.58 395.7C1166.27 396.5 1179.47 410.4 1179.57 426.4C1179.77 467.1 1180.07 507.7 1179.47 548.4C1179.17 572.6 1170.77 594.4 1155.38 613.2C1145.88 624.8 1136.18 636.2 1126.48 647.6C1126.08 648 1124.98 651.9 1123.58 648C1126.38 632.7 1129.18 617.4 1132.08 602Z" fill="#FEFEFE"/>
<path d="M883.036 864C879.037 882.1 875.038 900.3 871.039 918.4C864.64 947.6 858.242 976.8 851.843 1005.9C849.243 1007.9 846.144 1007.5 843.244 1007.3C840.545 1007.1 839.045 1005.6 838.845 1002.9C838.745 1001.1 838.745 999.2 838.745 997.4C838.745 955.7 838.745 913.9 838.745 872.2C838.745 870.5 838.745 868.9 838.845 867.2C839.045 864.5 840.245 862.7 843.144 862.7C855.642 862.5 868.039 862.4 880.537 862.7C881.437 862.7 882.337 863.2 883.036 864Z" fill="#FEFEFE"/>
<path d="M819.25 927.7C820.25 900.2 819.95 872.7 820.15 845.2C820.15 843.8 819.75 842.2 820.85 840.9C826.449 842.8 832.248 843.5 838.047 844C840.846 850.2 839.046 856.7 839.246 863.1C839.346 865.2 838.946 867.4 838.946 869.6C838.946 913.2 838.846 956.7 839.046 1000.3C839.146 1010.9 839.346 1021.6 839.346 1032.2C839.346 1041 838.247 1041.9 829.548 1041.3C828.349 1041.2 827.249 1041.1 826.149 1040.5C823.05 1035.2 823.95 1029.2 823.55 1023.6C821.95 1002.6 821.95 981.5 820.25 960.5C819.45 949.5 819.85 938.6 819.25 927.7Z" fill="#FDFDFE"/>
<path d="M1047 835.8C1065.3 835.8 1083.49 835.8 1101.79 835.7C1104.99 835.7 1106.19 836.5 1106.09 839.9C1105.89 845.7 1105.79 851.5 1106.09 857.3C1106.29 861.2 1104.79 861.9 1101.19 861.9C1070.1 861.8 1039.1 861.9 1008.01 861.9C1006.71 857 1005.51 852 1004.01 847.1C1003.21 844.2 1004.31 843.8 1006.81 843.8C1020.81 843.9 1034.2 841.2 1047 835.8Z" fill="#FEFEFE"/>
<path d="M888.135 861.8C888.635 856.5 890.635 851.5 891.535 846.3C892.134 843 894.434 843.8 896.433 843.8C925.227 843.8 954.021 843.8 982.814 843.8C986.314 843.8 989.813 844.2 993.312 843.7C998.411 843 1000.41 845.2 1001.01 849.9C1001.41 853 1002.41 856 1003.11 859.1C1003.81 861.4 1003.01 862.7 1000.61 862.9C999.111 863 997.611 863 996.112 863C962.319 863 928.526 863 894.734 863C892.534 862.9 890.135 863.6 888.135 861.8Z" fill="#FEFEFE"/>
<path d="M1114.09 699C1115.19 700.7 1114.79 702.6 1114.79 704.4C1114.79 814.4 1114.79 924.3 1114.79 1034.3C1114.79 1035.5 1114.79 1036.6 1114.79 1037.8C1114.89 1040 1113.39 1040.1 1111.79 1040C1110.29 1040 1108.59 1040.2 1108.59 1037.9C1108.59 1036.4 1108.59 1034.9 1108.59 1033.4C1108.59 936.8 1108.59 840.1 1108.59 743.5C1108.59 738.7 1108.69 733.9 1108.79 729C1110.49 719.1 1112.29 709.1 1114.09 699Z" fill="#FDFDFE"/>
<path d="M1104.99 747.9C1106.39 749.3 1105.89 751 1105.89 752.6C1105.89 777.8 1105.89 803.1 1105.99 828.3C1105.99 831.9 1105.29 833.2 1101.39 833.1C1086.99 832.9 1072.5 833 1058.1 833C1056.7 833 1055.1 833.5 1053.9 832.2C1082.19 816.3 1097.89 791.9 1102.79 760.1C1103.49 756.1 1104.29 752 1104.99 747.9Z" fill="#FEFEFE"/>
<path d="M840.246 844.1C855.343 844 870.539 843.9 885.635 843.8C888.335 843.8 888.135 844.9 887.535 846.9C886.135 851.9 884.935 856.9 883.736 861.9C882.436 863.2 880.637 863 879.037 863.1C867.74 863.1 856.442 863.2 845.145 863.1C839.946 863.1 838.947 862.2 839.147 856.9C839.347 852.5 837.847 848.1 840.246 844.1Z" fill="#FEFEFE"/>
<path d="M840.246 844.1C840.246 848.3 840.546 852.4 840.246 856.5C839.946 860.5 841.146 862 845.445 861.9C858.242 861.6 871.039 861.8 883.736 861.8C883.536 862.5 883.236 863.3 883.036 864C870.439 864 857.742 864.1 845.145 863.9C841.645 863.8 840.246 864.5 840.246 868.5C840.346 912.8 840.346 957.1 840.246 1001.4C840.246 1005 840.946 1006.7 844.845 1006.2C847.144 1005.9 849.444 1006 851.843 1006C851.543 1007 851.343 1008 851.043 1009C849.944 1010.1 848.444 1010.6 846.944 1010.5C842.345 1010.2 841.445 1012.8 841.545 1016.7C841.645 1023 841.645 1029.2 841.545 1035.5C841.545 1037.8 841.745 1040.2 840.146 1042.1C838.046 1043.8 835.547 1043.3 833.147 1043.3C829.448 1043.4 828.548 1045.1 830.248 1048.3C833.347 1050.6 838.046 1050.1 840.246 1053.9C840.346 1054.8 839.846 1055.3 839.146 1055.6C838.146 1055.9 837.146 1055.8 836.247 1055.3C833.147 1053.7 830.148 1053.5 826.949 1054.9C824.849 1050 824.949 1045 826.549 1040C838.046 1040.5 838.146 1040.5 838.046 1028.9C838.046 967.3 838.046 905.6 838.046 844C838.846 844 839.546 844 840.246 844.1Z" fill="#5982AF"/>
<path d="M840.046 1054.1C836.847 1051.6 833.148 1050.6 829.249 1049.9C827.949 1048.5 828.749 1046.8 828.649 1045.2C828.349 1043 829.549 1042.4 831.548 1042.4C834.148 1042.4 836.747 1042.9 839.346 1042C841.346 1039.5 840.146 1036.6 840.246 1033.9C840.446 1027.1 840.546 1020.4 840.246 1013.6C840.146 1009.8 841.046 1008 845.145 1008.6C847.044 1008.9 849.044 1008.8 851.043 1008.8C847.944 1023.5 844.845 1038.2 841.846 1052.9C841.446 1053.8 841.146 1054.5 840.046 1054.1Z" fill="#FCFCFD"/>
<path d="M1073 524C1073 523.3 1072.99 522.7 1072.9 522C1074.39 520.3 1076.49 520.5 1078.49 520.5C1088.79 520.5 1099.09 520.4 1109.39 520.5C1115.19 520.5 1116.09 521.3 1115.79 527.2C1115.59 530.6 1117.69 534.5 1113.89 537.2C1101.99 527.5 1087.79 524.6 1073 524Z" fill="#F6F8FA"/>
<path d="M888.136 861.8C924.828 861.8 961.42 861.8 998.111 861.7C1000.11 861.7 1003.11 863 1003.11 859C1004.51 860.4 1003.81 862.2 1004.01 863.8C965.119 863.8 926.228 863.9 887.337 863.9C887.537 863.3 887.836 862.6 888.136 861.8Z" fill="#5881AE"/>
<path d="M1113.89 537.3C1115.88 532.9 1114.49 528.2 1114.69 523.6C1114.79 521.3 1112.59 521.9 1111.29 521.9C1098.49 521.9 1085.69 521.9 1072.89 522C1072.59 521 1072.29 520 1071.99 518.9C1084.89 519.9 1097.79 519.3 1110.59 519.2C1115.39 519.2 1117.58 520.1 1116.98 525.4C1116.48 530.1 1116.88 535 1116.88 539.8C1115.88 539 1114.89 538.1 1113.89 537.3Z" fill="#5881AD"/>
<path d="M827.749 1054.2C827.849 1051.8 829.348 1051.6 831.048 1052.2C833.647 1053.1 836.147 1054.1 838.746 1055C840.946 1055.6 840.646 1057.2 840.346 1058.8C839.146 1064.1 838.047 1069.5 836.847 1074.8C835.947 1074.9 835.547 1074.3 835.247 1073.6C835.347 1068.4 831.448 1066 827.849 1063.3C826.349 1060.3 826.149 1057.3 827.749 1054.2Z" fill="#FCFCFD"/>
<path d="M836.046 1073.8C836.346 1074.2 836.646 1074.5 836.846 1074.9C836.246 1078.2 835.746 1081.6 834.947 1084.9C834.147 1088 835.846 1088.1 838.046 1087.8C831.348 1093.5 824.249 1092.1 817.151 1088.8C817.151 1088.2 817.052 1087.6 817.052 1087C818.651 1085.1 820.95 1085.4 822.95 1085.6C826.749 1085.9 828.848 1084.4 829.148 1080.6C831.348 1078.2 832.747 1075.1 836.046 1073.8Z" fill="#F9FAFB"/>
<path d="M844.045 1061.7C850.344 1070.3 847.244 1083.6 838.046 1087.9C840.045 1079.2 842.045 1070.4 844.045 1061.7Z" fill="#FAFAFB"/>
<path d="M840.345 1058.9C840.345 1057.4 839.845 1056.1 838.745 1055.1C839.145 1054.8 839.545 1054.4 840.045 1054.1C840.645 1053.7 841.245 1053.4 841.845 1053C841.245 1054.9 841.645 1057.1 840.345 1058.9Z" fill="#678BB2"/>
<path d="M116.604 1089.1C115.104 1090.5 113.505 1091.2 111.405 1090.7C106.307 1090.1 101.108 1090.1 96.0096 1090.7C94.2101 1091.1 92.7105 1090.8 91.8107 1089C100.008 1089.1 108.306 1089.1 116.604 1089.1Z" fill="#929BBA"/>
<path d="M746.067 857.1C746.766 826.6 747.066 796.2 747.066 765.7C747.066 738.3 765.962 719.3 793.356 719C807.153 718.8 820.95 719.4 834.747 718.4C836.147 718.3 837.647 718.5 837.847 720.2C838.146 722.6 836.147 722.2 834.747 722.2C820.95 722.5 807.153 723.4 793.356 722.9C770.261 722.1 750.665 741.5 750.765 765.4C750.865 794.9 750.166 824.3 750.166 853.8C750.166 855.7 750.866 857.9 748.366 859C747.566 858.2 746.866 857.7 746.067 857.1Z" fill="#FEFDFD"/>
<path d="M747.967 916.8C749.966 918.1 748.566 920.3 749.366 921.9C750.866 923.7 750.666 926 750.666 928.1C750.466 946.4 749.866 964.7 748.866 983C748.466 990.2 748.566 997.3 748.766 1004.5C748.966 1011 746.667 1016.2 741.468 1020.1C739.368 1021.7 737.468 1023.6 735.269 1025.2C733.669 1026.4 731.77 1027.6 730.37 1024.9C730.47 1024 730.57 1023.1 730.67 1022.2C734.069 1019.3 737.369 1016.2 740.868 1013.4C742.968 1011.7 742.967 1009.5 743.067 1007.1C743.867 979 744.767 950.9 745.767 922.8C745.767 920.6 744.767 917.7 747.967 916.8Z" fill="#FDFCFC"/>
<path d="M317.76 355.1C313.661 343.8 309.062 340.8 297.565 341.8C295.965 341.9 294.265 341.9 292.666 341.9C292.666 306.6 292.566 271.3 292.566 235.9C292.566 160.4 292.566 84.8999 292.466 9.49991C292.466 4.49991 293.365 2.8999 298.764 2.8999C531.513 3.0999 764.263 3.0999 997.112 2.8999C1002.01 2.8999 1003.51 3.89991 1003.51 9.09991C1003.31 88.3999 1003.31 167.7 1003.51 247C1003.51 251.5 1002.51 253.3 997.711 252.8C992.912 252.4 988.013 252.4 983.215 252.8C979.115 253.1 977.716 252 977.816 247.7C978.116 234.9 977.916 222 977.916 209.2C977.916 150.4 977.816 91.5999 978.016 32.6999C978.016 27.8999 976.816 26.5999 972.017 26.5999C756.364 26.6999 540.811 26.6999 325.159 26.5999C319.96 26.5999 318.86 28.0999 318.86 32.9999C318.96 138.3 318.96 243.6 318.96 348.9C318.86 351.1 319.86 353.4 317.76 355.1Z" fill="#FEFEFE"/>
<path d="M1050.9 480.2C1041.8 475.5 1031.9 476.7 1022.21 476.6C1017.51 476.5 1012.71 477.7 1008.01 476.2C1009.21 474.3 1011.31 474.2 1013.11 473.4C1020.61 470.1 1025.9 464.9 1028.4 456.9C1029.7 452.8 1029.7 448.9 1028.3 444.8C1027.7 442.8 1026 440.3 1029.4 438.9C1043.5 438 1057.7 438.7 1071.79 438.5C1073.09 438.5 1074.49 438.4 1075.79 438.5C1079.89 439 1081.39 437.4 1081.29 433.2C1081.19 382.4 1081.19 331.6 1081.19 280.8C1081.19 275.7 1080.99 275.6 1075.19 275.6C1015.31 275.6 955.321 275.6 895.434 275.6C885.936 275.6 876.438 275.6 866.94 275.6C861.541 275.6 861.341 275.8 861.341 281.8C861.341 312.5 861.341 343.1 861.341 373.8C861.341 376.3 861.741 378.8 860.641 381.2C860.341 381.9 859.742 382.1 859.042 382C856.142 372.9 849.244 368.7 840.346 367C840.346 331.2 840.346 295.4 840.146 259.5C840.146 255.4 841.746 255 845.145 255C871.739 255.1 898.433 255.1 925.027 255.1C996.311 255.1 1067.6 255.1 1138.78 255C1143.38 255 1144.98 255.8 1144.88 260.9C1144.68 332.2 1144.68 403.5 1144.88 474.9C1144.88 479.5 1143.68 480.7 1139.08 480.7C1109.79 480.2 1080.39 480.2 1050.9 480.2Z" fill="#FEFEFE"/>
<path d="M289.167 389.6C288.767 391.5 287.867 392.9 285.867 392.8C284.067 392.7 282.767 391.5 282.867 389.6C282.967 387.8 284.067 386.5 286.067 386.6C287.967 386.7 288.967 387.9 289.167 389.6Z" fill="#1B100F"/>
<path d="M321.359 387.3C322.759 389.1 322.859 391 321.46 392.8C319.06 393.2 316.461 393.5 316.461 390C316.461 386.8 318.86 386.7 321.359 387.3Z" fill="#0D0A0A"/>
<path d="M84.5116 107C101.108 151.7 109.806 196.7 111.506 243C113.305 293.1 106.307 342.1 90.5102 391.1C71.3145 348 61.0168 304.2 59.0172 258.4C56.7177 206.6 64.9159 156.5 84.5116 107Z" fill="#FEFEFE"/>
<path d="M146.898 62.6001C151.297 80.7001 154.296 98.0001 156.496 115.4C159.495 139.9 160.795 164.5 160.495 189.1C160.395 199 158.395 207.9 153.296 216.9C133.701 252 121.903 289.7 117.404 329.7C115.304 349 114.705 368.2 116.504 387.5C116.904 391.8 116.004 393.5 111.305 393.1C106.306 392.7 101.307 392.8 96.3085 393.1C92.5093 393.3 92.3094 392 93.3092 388.8C99.6078 369 104.507 348.8 107.906 328.3C113.305 295.6 114.805 262.8 112.705 229.8C111.505 211.2 109.206 192.7 105.607 174.4C105.207 172.3 105.207 170.1 105.707 168C114.405 131.9 127.502 97.6001 144.998 64.8001C145.498 64.3001 145.998 63.9001 146.898 62.6001Z" fill="#FEFEFE"/>
<path d="M190.188 167.8C191.788 250 168.393 324.2 119.503 390.3C113.005 306.6 136.6 232.4 190.188 167.8Z" fill="#FEFEFE"/>
<path d="M14.0267 161.3C20.2253 169.1 24.9243 176.1 29.5232 183.2C39.221 198.2 47.719 213.8 55.1174 230C56.2171 232.4 56.617 234.7 56.617 237.2C55.7172 285.4 64.5152 331.8 81.9112 376.7C82.3111 377.6 82.5111 378.6 82.811 379.5C82.911 379.8 82.6111 380.1 82.5112 380.7C31.4228 316.8 8.62796 244.3 14.0267 161.3Z" fill="#FEFEFE"/>
<path d="M730.369 1024.8C731.669 1025.5 732.769 1025.7 733.969 1024.6C737.668 1021.2 741.267 1017.9 745.066 1014.6C746.966 1012.9 746.666 1010.7 746.666 1008.6C747.566 979.7 748.465 950.9 749.365 922C749.965 920.1 750.765 919.3 753.264 919.6C770.961 922 788.757 924.1 806.453 926.3C810.752 926.8 814.951 927.2 819.25 927.7C821.25 928.9 820.55 930.9 820.65 932.6C822.45 968.4 823.649 1004.2 826.649 1039.9C827.049 1044.7 827.449 1049.4 827.849 1054.2C828.548 1057.3 827.549 1060.7 829.048 1063.7C829.648 1064.3 830.148 1065 830.348 1065.9C830.748 1068.7 830.548 1071.5 830.648 1074.3C830.348 1076.1 831.448 1078.1 830.248 1079.8C830.148 1086.8 830.148 1086.8 823.05 1086.8C821.05 1086.8 819.15 1086.9 817.151 1087C781.558 1086.9 745.966 1086.9 710.274 1086.8C699.576 1086.8 688.978 1086.7 678.28 1086.9C675.081 1086.9 673.681 1086 674.181 1082.7C675.581 1071.2 679.58 1061.2 689.378 1054.2C703.075 1044.4 716.672 1034.6 730.369 1024.8Z" fill="#8F3600"/>
<path d="M1105.99 1071.7C1106.09 1082.8 1097.09 1091.9 1086.09 1091.7C1075.3 1091.6 1066.6 1082.8 1066.6 1071.9C1066.6 1060.9 1075.09 1052.1 1085.89 1052C1096.99 1051.8 1105.89 1060.6 1105.99 1071.7Z" fill="#FEFEFE"/>
<path d="M137.699 1082.9C137.699 1040.9 137.699 999 137.599 957C137.599 954 138.099 952.5 141.598 952.6C152.896 952.8 164.194 952.7 175.492 952.7C177.591 952.7 179.491 952.5 179.491 955.6C179.091 977.7 180.691 999.9 178.791 1022C176.491 1049.7 161.994 1069.7 137.699 1082.9Z" fill="#FEFEFE"/>
<path d="M137.7 922C150.197 922 162.594 922.1 175.091 922C178.491 922 179.69 922.9 179.59 926.4C179.291 933 179.39 939.7 179.59 946.3C179.59 948.9 179.091 950.2 176.091 950.2C164.494 950.1 152.796 950.1 141.199 950.2C138.199 950.2 137.6 949 137.7 946.4C137.8 938.3 137.7 930.1 137.7 922Z" fill="#FEFEFE"/>
<path d="M96.0082 1090.7C101.107 1089.4 106.306 1089.4 111.405 1090.7C106.306 1090.8 101.107 1090.7 96.0082 1090.7Z" fill="#E3EAF1"/>
<path d="M653.487 108.7C650.287 112.2 387.445 375 384.845 377.5C474.426 287.9 563.906 198.3 653.487 108.7Z" fill="#5E86B1"/>
<path d="M721.473 106.8C651.887 176.4 582.402 246 512.817 315.6C513.517 316.3 514.317 317.1 515.017 317.8C584.602 248.2 654.087 178.6 723.672 109C722.872 108.3 722.172 107.5 721.473 106.8Z" fill="#5882AF"/>
<path d="M617.495 366.9C616.096 366.9 614.596 366.9 613.196 366.9C630.692 349.4 648.188 331.9 665.784 314.4C666.183 314.8 666.583 315.1 666.983 315.5C666.883 317.4 665.184 318.4 663.984 319.5C649.687 333.9 635.291 348.2 620.994 362.6C619.595 364 617.995 365 617.495 366.9Z" fill="#638AB4"/>
<path d="M665.384 488.1C665.384 462.5 665.484 436.8 665.284 411.2C665.284 406.7 666.384 405.1 671.083 405.2C713.174 405.4 755.265 405.4 797.355 405.2C801.854 405.2 802.954 406.6 802.954 410.9C802.854 462.7 802.854 514.5 802.954 566.3C802.954 570.6 801.954 572.1 797.355 572.1C755.065 571.9 712.774 572 670.583 572.1C666.384 572.1 665.184 570.7 665.184 566.6C665.484 540.4 665.384 514.2 665.384 488.1Z" fill="#1F2969"/>
<path d="M512.217 464.3C510.618 465 509.018 465.6 507.419 466.3C507.419 447.5 507.419 428.7 507.219 409.8C507.219 406.7 508.218 405.8 511.218 405.8C554.108 405.9 597.099 405.9 639.989 405.8C643.388 405.8 644.188 407 644.088 410.2C643.988 462.7 643.988 515.1 644.088 567.6C644.088 571.3 642.788 572 639.489 572C596.899 571.9 554.308 571.9 511.718 572C507.718 572 507.119 570.5 507.119 567C507.319 553.7 507.119 540.4 507.119 527C508.118 525.6 509.618 524.9 511.118 524.1C513.217 526.1 512.717 528.7 512.817 531.1C512.917 540.8 512.817 550.4 512.917 560.1C512.917 565.8 513.417 566.3 519.216 566.3C556.808 566.3 594.399 566.3 631.991 566.3C638.09 566.3 638.489 565.8 638.589 559.7C638.589 544.4 638.689 529.1 638.589 513.8C638.589 508 638.089 507.6 632.291 507.5C625.592 507.4 618.994 507.6 612.295 507.4C609.996 507.4 607.496 507.8 605.997 505.4C607.096 503.2 609.296 503.5 611.195 503.5C618.994 503.4 626.792 503.5 634.49 503.5C627.792 503.4 620.993 503.6 614.295 503.4C612.395 503.3 609.496 504.3 609.396 500.6C613.695 498.5 618.194 499.7 622.693 499.4C626.492 499.2 630.391 499.4 634.19 499.3C637.09 499.3 638.489 497.9 638.489 495.1C638.489 493.9 638.589 492.8 638.589 491.6C638.589 467 638.589 442.3 638.589 417.7C638.589 410.9 638.389 410.7 631.591 410.6C594.299 410.6 557.007 410.6 519.716 410.6C513.217 410.6 512.917 411 512.917 417.3C512.817 430.6 512.917 443.9 512.917 457.3C513.017 459.7 513.017 462 512.217 464.3Z" fill="#202A6C"/>
<path d="M904.032 556.8C905.532 570.2 907.131 583.6 908.631 597C910.731 616.7 912.83 636.4 914.93 656.1C915.13 657.7 915.03 659.4 915.03 661.1C913.23 662.8 911.031 662.5 908.931 662.5C888.035 662.5 867.14 662.6 846.244 662.5C839.545 662.5 838.746 661.7 838.746 655.1C838.646 643.3 838.646 631.5 838.746 619.7C838.746 617.3 838.346 614.6 841.245 613.2C852.543 611.9 860.741 602.5 860.941 590.7C861.041 580.9 861.141 571.1 860.941 561.3C860.841 557.8 861.841 556.8 865.44 556.8C878.237 556.9 891.135 556.8 904.032 556.8Z" fill="#FEFEFE"/>
<path d="M810.053 666.9C797.256 663.6 784.659 663.1 772.561 669.7C767.462 672.5 763.663 676.9 758.964 680.2C748.266 680.2 737.668 680.2 727.07 680.2C726.771 678.2 728.47 677.9 729.17 676.8C732.869 671 729.47 664.2 722.571 663.8C718.772 663.6 714.873 663.7 711.074 663.8C708.674 663.9 707.874 662.9 707.874 660.6C707.974 646.1 707.974 631.6 707.874 617.1C707.874 613 710.374 613.6 712.873 613.6C740.868 613.6 768.862 613.6 796.756 613.6C801.255 613.6 805.754 613.8 810.253 613.9C811.953 615.6 811.653 617.9 811.653 620C811.653 633.6 811.653 647.2 811.653 660.7C811.453 662.9 811.753 665.1 810.053 666.9Z" fill="#FEFEFE"/>
<path d="M859.142 381.9C860.941 380.3 860.041 378.1 860.041 376.3C860.141 344.5 860.141 312.6 859.941 280.8C859.941 275.9 860.841 274.2 866.14 274.3C936.425 274.5 1006.71 274.5 1076.89 274.3C1081.49 274.3 1082.79 275.5 1082.79 280.2C1082.59 331.5 1082.59 382.8 1082.79 434.2C1082.79 438.9 1081.39 440.1 1076.89 440C1060.6 439.8 1044.3 440 1028 440.1C1026.3 439 1025.8 437.8 1027.6 436.3C1030 435.2 1032.5 435.5 1035 435.5C1047.3 435.5 1059.6 435.5 1071.89 435.5C1077.69 435.5 1078.19 435 1078.19 429.2C1078.29 381.1 1078.29 333 1078.19 284.8C1078.19 279.2 1077.69 278.8 1071.09 278.8C1028.8 278.8 986.613 278.8 944.323 278.8C919.828 278.8 895.434 278.8 870.939 278.8C863.941 278.8 863.641 279.1 863.641 286.1C863.641 333.4 863.641 380.7 863.641 428C863.641 435.3 863.841 435.5 871.239 435.6C886.536 435.6 901.832 435.6 917.129 435.6C919.628 435.6 922.128 435.4 924.627 436.1C926.627 437 928.326 438 926.827 440.5C924.427 442.1 921.728 441.7 919.028 441.7C902.332 441.7 885.736 441.7 869.039 441.7C862.841 441.7 862.541 442.1 862.541 448.2C862.541 456.4 862.441 464.5 862.541 472.7C862.641 477.9 863.141 478.4 868.34 478.4C883.636 478.5 898.933 478.4 914.329 478.5C916.929 478.5 919.728 478 921.928 480.1C921.328 481.1 920.328 481.2 919.328 481.2C916.929 482.1 914.529 482.4 912.03 482.4C897.133 482.4 882.136 482.4 867.24 482.4C865.14 482.4 862.841 482.7 861.041 481.1C859.841 480.1 860.041 478.7 860.041 477.4C860.041 465.7 859.242 454 860.241 442.4C861.641 425.8 860.441 409.1 861.041 392.5C861.241 388.8 860.641 385.3 859.142 381.9Z" fill="#5F87B2"/>
<path d="M915.829 483.8C904.132 492.7 898.133 504.1 900.033 519.1C888.135 519.2 876.137 519.2 864.24 519.3C861.54 519.3 860.841 518.2 860.841 515.7C860.941 504.7 860.941 493.8 861.04 482.8C862.44 481.7 864.14 481.9 865.84 481.9C881.036 481.9 896.233 481.8 911.43 481.9C913.03 482.1 915.229 481.1 915.829 483.8Z" fill="#FEFEFE"/>
<path d="M837.947 672.8C829.348 671.1 820.65 669.7 812.251 667.1C811.052 665.9 811.152 664.4 811.152 662.9C811.152 647.9 811.152 632.8 811.152 617.8C811.152 616.5 811.052 615.1 812.151 614.1C820.85 613.2 829.448 613.7 838.147 613.9C839.447 615.5 839.047 617.4 839.047 619.1C839.347 634.1 838.647 649.2 839.447 664.2C839.647 667.1 840.147 670.2 837.947 672.8Z" fill="#FEFEFE"/>
<path d="M900.833 523.1C901.833 533.4 902.833 543.7 903.933 554C890.735 554.1 877.437 554.1 864.24 554.3C861.54 554.3 860.841 553.3 860.841 550.8C860.941 541.2 860.941 531.6 861.04 522C862.14 521.1 863.44 521.1 864.84 521.1C875.338 521.1 885.736 521.1 896.234 521.1C898.034 521 899.934 521 900.833 523.1Z" fill="#FDFEFE"/>
<path d="M837.946 672.8C838.046 653.2 838.046 633.5 838.146 613.9C838.946 612.8 840.045 613.1 841.145 613.1C840.045 614.6 840.345 616.3 840.345 617.9C840.345 630.7 840.545 643.5 840.245 656.3C840.145 660.5 841.645 661.2 845.344 661.1C868.54 661 891.835 661 915.03 661.1C915.33 662.1 915.63 663 915.93 664C914.23 664.9 912.431 664.7 910.531 664.7C891.435 664.7 872.339 664.9 853.343 664.6C847.044 664.5 841.545 664.5 839.945 672.2C839.545 672.5 839.046 672.9 838.646 673.2C838.446 673 838.146 672.9 837.946 672.8Z" fill="#5A83AF"/>
<path d="M915.83 483.8C914.53 482.2 912.73 482.9 911.23 482.9C894.534 482.8 877.737 482.9 861.04 482.9C861.04 482.3 861.04 481.7 861.04 481C880.436 481 899.933 481.1 919.329 481.1C918.229 482.1 917.029 483 915.83 483.8Z" fill="#5781AE"/>
<path d="M812.152 614.1C812.152 631.8 812.152 649.4 812.252 667.1C811.552 667 810.852 667 810.052 666.9C810.052 649.3 810.052 631.6 810.152 614C810.852 612.9 811.552 613.1 812.152 614.1Z" fill="#5882AE"/>
<path d="M900.832 523.1C899.433 521.4 897.433 522 895.733 522C884.136 522 872.538 522 861.04 522C861.54 519.2 863.74 520.1 865.439 520.1C877.037 520 888.635 520.1 900.232 520.1C900.432 521 900.632 522 900.832 523.1Z" fill="#5881AE"/>
<path d="M904.032 555C904.032 555.4 904.132 555.7 904.132 556.1C890.235 556.1 876.237 556.1 862.34 556.1C862.34 555.7 862.34 555.4 862.34 555C876.237 555 890.135 555 904.032 555Z" fill="#5881AE"/>
<path d="M512.218 464.3C510.919 463.1 511.219 461.5 511.219 460.1C511.219 444.6 511.319 429.2 511.119 413.7C511.119 410.3 511.918 409.1 515.518 409.1C555.609 409.2 595.7 409.2 635.691 409.1C639.19 409.1 640.19 410.1 640.19 413.6C640.09 441.2 640.09 468.8 640.19 496.5C640.19 499.9 639.39 501.1 635.791 501.1C626.992 500.9 618.195 501.2 609.397 501.3C606.597 497 606.997 492.1 606.797 487.4C606.197 475.1 604.898 462.9 604.498 450.6C604.498 449 604.298 447.3 603.298 445.7C601.798 447.3 601.798 449.4 601.498 451.3C597.899 471.1 594.2 490.9 590.401 510.7C590.001 513 590.301 516.8 587.402 516.7C585.202 516.7 585.402 512.9 585.102 510.7C583.302 496.3 581.703 481.9 579.803 467.6C579.603 466.2 579.803 464.6 578.503 463.2C575.404 466.3 574.404 470.2 572.505 473.6C570.705 476.8 569.306 480.2 567.506 483.4C566.806 484.6 566.106 486.4 564.307 486C562.707 485.6 562.207 483.9 562.007 482.4C561.307 476.8 560.408 471.2 559.708 465.6C559.208 461.3 559.008 457 557.608 452.8C555.609 453.3 555.609 455 555.209 456.3C553.409 461.5 551.71 466.7 549.51 471.7C548.71 473.5 548.31 475.6 546.111 476.3C537.113 469.8 537.113 469.8 527.215 475.8C521.016 479.6 514.718 483.4 508.519 487.2C507.12 488 505.52 489.5 504.22 487.6C502.82 485.4 505.22 484.8 506.52 484.1C515.118 478.8 523.716 473.5 532.814 468C526.215 462.8 519.417 462.5 512.218 464.3Z" fill="black"/>
<path d="M606.397 505.1C607.697 506.8 609.496 506 610.996 506C619.294 506 627.592 506.1 635.89 505.9C638.99 505.8 640.289 506.5 640.289 510C640.189 528 640.189 545.9 640.289 563.9C640.289 567.3 638.99 568 635.89 568C595.799 567.9 555.808 567.9 515.716 568C511.717 568 511.117 566.6 511.117 563C511.317 550 511.217 537.1 511.117 524.1C521.215 517.2 531.213 510.1 541.511 503.5C548.709 498.8 549.909 492.1 549.409 484.5C549.309 482.7 548.009 481.1 548.909 479.2C548.909 472.8 552.608 467.7 554.808 462.1C555.108 461.4 556.008 460.8 556.908 461.1C558.107 461.6 558.307 462.9 558.507 464C559.807 471.4 560.507 478.8 561.606 486.2C561.906 488 561.806 489.9 563.106 491.6C565.106 491 565.506 489.1 566.305 487.6C569.105 482.3 571.604 476.8 574.504 471.6C575.204 470.3 576.103 468.7 577.803 469C579.602 469.4 579.403 471.3 579.603 472.7C581.802 489 583.502 505.4 585.601 521.7C585.901 524.3 586.201 526.9 587.101 529.5C588.901 528.6 588.601 527.1 588.8 525.9C592.2 507.2 595.799 488.6 599.098 469.9C599.398 468.1 599.698 466.3 600.798 464.7C601.698 463.9 602.598 463 603.797 464.3C605.697 468.5 604.997 473.1 605.197 477.5C605.697 486.8 607.697 495.9 606.397 505.1Z" fill="black"/>
<path d="M601.398 465.1C597.499 486.5 593.5 507.9 589.501 529.3C589.201 530.8 589.601 533.1 587.101 532.9C584.802 532.7 585.402 530.4 585.202 528.9C582.802 509.3 580.303 489.7 577.803 469.3C574.604 473.3 573.204 477.7 571.005 481.7C569.705 484 568.805 486.5 567.306 488.8C565.906 491 566.006 495.5 562.607 494.8C559.707 494.2 560.707 489.9 560.307 487.3C559.007 478.8 558.008 470.3 556.708 460.3C553.709 467.4 551.309 473.3 548.91 479.2C548.41 479.2 547.91 479.1 547.41 479.1C546.71 478.9 546.31 478.5 546.41 477.8C546.31 477.2 546.21 476.7 546.11 476.1C549.609 468.2 552.709 460.2 555.108 451.9C555.508 450.4 555.608 448.7 557.708 448.9C559.607 449.1 559.207 450.8 559.407 452C560.707 461.4 562.007 470.8 563.206 480.2C563.406 482 563.306 483.9 564.606 485.9C568.305 478.4 571.905 471.2 575.604 464C576.404 462.5 576.704 459.9 579.003 460.3C581.403 460.6 580.903 463.1 581.103 464.8C583.202 482 585.302 499.1 588.101 516.4C589.801 507.3 591.5 498.2 593.2 489.2C595.799 475 598.499 460.8 601.098 446.6C601.398 444.9 600.898 442.3 603.398 442.3C606.197 442.3 605.297 445 605.397 446.6C606.797 464.8 608.097 483.1 609.396 501.3C615.895 503.1 622.494 501.4 628.992 501.9C631.592 502.1 634.291 501.9 636.99 502C638.29 502 640.29 501.3 640.19 503.8C640.09 506 638.29 505.2 637.19 505.2C626.893 505.3 616.595 505.3 606.297 505.3C604.397 501.9 605.297 498.2 604.997 494.6C604.198 484.5 603.598 474.4 602.998 464.4C602.398 463.5 602.198 462.6 602.998 461.6C602.098 462.5 602.098 464 601.398 465.1Z" fill="#FDFDFD"/>
<path d="M546.51 477.8C546.81 478.2 547.21 478.7 547.51 479.1C547.41 480.9 546.01 481.5 544.81 482.3C536.512 487.4 528.114 492.5 519.815 497.6C518.616 498.3 517.216 499.8 515.916 498C514.417 495.9 516.516 495.1 517.816 494.3C526.414 489 535.112 483.8 543.71 478.6C544.51 478.1 545.51 478 546.51 477.8Z" fill="#060403"/>
<path d="M468.227 505.6C469.727 506.5 470.627 507 471.327 507.6C475.726 511.4 480.125 515.2 484.424 519C485.423 519.9 487.223 520.9 485.923 522.6C484.724 524.1 483.224 523.1 482.024 522C477.525 518.1 473.026 514.2 468.527 510.2C467.628 509.4 466.728 508.7 467.228 507.3C467.528 506.8 467.928 506.2 468.227 505.6Z" fill="#090605"/>
<path d="M365.75 677C382.346 677.1 399.043 677.1 415.639 677.1C459.23 677.1 502.82 677.1 546.411 677.1C550.61 677.1 554.609 677.5 559.708 679.7C557.508 680 556.608 680.2 555.609 680.2C492.522 680.2 429.436 680.2 366.45 680.2C365.65 680.2 364.75 680.1 363.951 680C363.851 678.7 365.15 678 365.75 677Z" fill="#E7EAED"/>
<path d="M1026.81 437.2C1027.21 438.1 1027.61 439.1 1028.01 440C1034.5 457.2 1026.41 472 1008.11 476.2C1003.41 476.9 998.712 477 993.913 476.9C992.313 476.9 990.513 477.3 989.714 475.2C988.214 473.3 988.614 471.1 988.914 469C989.913 461.7 990.813 454.5 992.013 447.2C992.813 442.5 991.813 440 987.214 437.9C978.416 433.9 971.618 427.8 969.218 417.8C968.218 413.7 968.918 409.8 969.718 405.9C972.517 391.4 966.019 380.7 955.821 371.6C952.722 368.8 949.423 366.3 945.923 363.9C944.724 363.1 943.324 362.3 943.624 360.4C947.623 356.7 952.922 357 957.721 356.7C970.818 355.9 983.815 356.3 996.712 360C1008.31 363.4 1015.71 370.4 1018.71 382.1C1021.51 392.9 1021.61 404.1 1023.11 415.1C1024.01 421 1024.61 427 1026.51 432.7C1027.01 434.2 1027.21 435.7 1026.81 437.2Z" fill="black"/>
<path d="M944.023 360.9C950.321 365.7 957.02 370.1 962.219 376.2C969.517 384.7 972.917 394.1 971.117 405.5C968.517 421.9 973.916 431 989.513 437.4C993.612 439.1 994.312 441.2 993.712 445.1C992.212 455.1 990.913 465.1 989.613 475.2C988.813 476.3 987.713 476.8 986.213 476.8C977.515 476.6 968.817 476.5 960.119 476.3C960.619 471.7 960.319 467 960.519 462.4C960.719 458.6 959.519 456.6 955.42 456C950.521 455.2 945.622 454 941.023 452C935.125 449.4 929.426 446.3 926.726 439.8C926.726 438.6 925.927 437.8 925.027 437.1C923.727 436.4 922.927 435.3 922.527 434C920.128 425.9 919.628 417.7 921.028 409.3C921.628 405.8 921.328 402 927.926 401.9C922.328 398.3 922.327 394.5 923.227 390.2C923.827 387.1 924.427 384 924.427 380.8C926.327 372.2 931.126 365.8 939.024 361.8C940.723 360.9 942.323 360.2 944.023 360.9Z" fill="#FD9993"/>
<path d="M927.026 439.7C935.124 449.6 946.222 453.3 958.219 455C961.119 455.4 962.319 456.5 962.119 459.4C961.919 463.9 962.019 468.3 962.119 472.8C962.119 474.3 962.118 475.8 960.219 476.3C952.72 476.3 945.322 476.2 937.824 476.3C932.325 476.4 927.026 477.6 921.927 480C902.631 480.1 883.435 480.1 864.14 480.3C861.34 480.3 860.84 479.1 860.84 476.7C860.94 465.6 861.04 454.4 860.84 443.3C860.74 439.8 862.64 439.7 865.139 439.7C885.835 439.8 906.431 439.7 927.026 439.7Z" fill="#FEFEFE"/>
<path d="M916.129 664.7C923.627 659.6 931.925 658.3 940.923 659.4C947.322 660.2 953.821 660.6 960.32 661C962.219 661.1 963.719 661.2 964.918 663.2C972.817 676.3 980.715 689.4 988.614 702.5C988.714 702.7 988.614 703.1 988.614 703.7C973.917 700.8 959.32 697.8 944.723 695C930.826 692.3 916.928 689.8 903.131 687.2C901.932 687 900.332 687.3 899.932 685.5C902.531 677.4 907.33 670.8 913.929 665.4C914.529 664.7 915.329 664.5 916.129 664.7Z" fill="#FD9993"/>
<path d="M916.129 664.7C908.33 669.7 904.831 678.1 899.832 685.3C879.837 680.9 859.941 676.5 839.945 672C840.845 663.1 840.845 663.1 850.243 663.1C870.139 663.1 890.134 663.1 910.03 663.1C912.03 663.1 914.029 662.7 915.829 663.8C916.029 664.1 916.129 664.4 916.129 664.7Z" fill="#FEFEFE"/>
<path d="M1017.81 545.2C1020.01 545.5 1019.91 547.5 1020.31 549C1024.21 563.6 1028 578.2 1031.9 592.8C1033.4 598.4 1034.7 604.1 1036.4 609.7C1037.2 612.2 1036.6 613.7 1034.7 615.3C1024.9 623.6 1015.31 632 1005.51 640.3C1004.31 641.3 1002.91 643.3 1001.31 641.7C999.311 639.7 1001.81 638.5 1003.11 637.4C1011.51 630.1 1019.81 622.6 1028.5 615.6C1032 612.8 1032.8 610.4 1031.6 606.1C1026.4 587.4 1021.71 568.5 1016.71 549.7C1016.21 548 1015.11 546.2 1017.81 545.2Z" fill="#FCFCFD"/>
<path d="M839.345 1042C838.046 1042.2 836.846 1042.5 835.546 1042.6C828.349 1042.8 828.349 1042.8 829.248 1049.9C826.449 1043.9 827.449 1041.9 833.447 1041.9C835.347 1041.9 837.346 1042 839.345 1042Z" fill="#678BB2"/>
<path d="M829.048 1066C829.048 1065.3 828.948 1064.5 828.948 1063.8C834.747 1064.8 836.146 1068.8 836.046 1073.9C834.547 1076.3 833.247 1079.1 830.148 1079.9C829.948 1078.5 829.648 1077 829.448 1075.6C833.847 1072.2 831.148 1069.1 829.048 1066Z" fill="#6A8FB7"/>
<path d="M1115.89 439.8C1109.89 439.8 1103.89 439.7 1097.89 439.8C1095.19 439.8 1093.99 438.9 1093.99 436C1094.19 422.6 1092.69 425.2 1104.09 425C1113.79 424.9 1123.38 425.1 1133.08 424.9C1136.48 424.8 1137.78 425.9 1137.68 429.5C1137.38 441.6 1138.98 439.6 1127.78 439.8C1123.78 439.9 1119.88 439.9 1115.89 439.8Z" fill="#6A8FB7"/>
<path d="M1115.79 299.1C1121.58 299.1 1127.38 299.2 1133.18 299C1136.28 298.9 1137.68 299.8 1137.58 303.2C1137.38 314.8 1138.58 312.8 1128.18 312.9C1118.39 313 1108.59 312.8 1098.79 313C1095.19 313.1 1093.69 312.1 1093.79 308.3C1094.09 297.3 1092.99 299.3 1102.69 299.2C1107.19 299 1111.49 299.1 1115.79 299.1Z" fill="#678DB5"/>
<path d="M1115.79 419.8C1109.99 419.8 1104.19 419.7 1098.39 419.9C1095.19 420 1093.99 418.9 1093.99 415.6C1093.99 412.3 1095.39 411.8 1098.29 411.8C1110.09 411.9 1121.88 411.9 1133.68 411.8C1136.58 411.8 1137.88 412.5 1137.78 415.7C1137.68 418.6 1136.98 420 1133.78 419.9C1127.78 419.7 1121.78 419.8 1115.79 419.8Z" fill="#648BB4"/>
<path d="M1124.28 359C1120.69 359.7 1119.89 358.1 1119.79 355C1119.79 351.3 1121.68 351.2 1124.48 351.1C1127.58 351 1128.88 351.8 1128.88 355.2C1129.08 359.2 1127.18 359.6 1124.28 359Z" fill="#698FB7"/>
<path d="M1106.99 359.1C1103.99 359.7 1102.69 358.7 1102.69 355.2C1102.69 351.8 1104.09 351.1 1107.19 351C1110.49 350.9 1111.89 351.8 1111.89 355.4C1111.89 359.3 1109.79 359.4 1106.99 359.1Z" fill="#678DB6"/>
<path d="M1106.99 377C1103.99 377.6 1102.79 376.4 1102.69 373.1C1102.59 369.3 1104.29 369 1107.39 368.9C1110.99 368.8 1111.79 370.2 1111.89 373.5C1111.89 377.4 1109.69 377.2 1106.99 377Z" fill="#6B90B7"/>
<path d="M1124.28 377C1121.08 377.6 1119.89 376.3 1119.79 373C1119.59 368.9 1121.88 369.1 1124.78 368.9C1128.18 368.7 1128.88 370.1 1128.98 373.3C1129.08 377 1127.18 377.4 1124.28 377Z" fill="#698FB7"/>
<path d="M1124.78 341.2C1121.58 341.6 1119.79 341.2 1119.89 337.5C1119.99 334.3 1120.88 333.1 1124.18 333.1C1127.18 333.2 1129.18 333.4 1129.08 337.4C1128.88 340.9 1127.58 341.9 1124.78 341.2Z" fill="#668CB5"/>
<path d="M1107.09 333.3C1110.39 332.8 1111.89 334 1111.89 337.6C1111.89 340.8 1110.49 341.5 1107.69 341.4C1104.89 341.3 1102.49 341.6 1102.69 337.4C1102.79 334.1 1103.89 332.8 1107.09 333.3Z" fill="#658CB5"/>
<path d="M829.048 1066C833.447 1068.5 834.647 1072.3 832.247 1075.4C831.247 1076.8 830.348 1076.9 829.348 1075.4C829.248 1072.3 829.148 1069.2 829.048 1066Z" fill="#F9F7F6"/>
<path d="M1094.69 1071.9C1094.59 1076.5 1090.49 1080.2 1085.79 1080C1081.19 1079.8 1077.69 1076.1 1077.79 1071.6C1077.89 1066.9 1081.89 1063.2 1086.59 1063.4C1091.09 1063.7 1094.79 1067.6 1094.69 1071.9Z" fill="#6189B3"/>
<path d="M778.26 505.3C783.759 506.8 789.458 505.8 795.057 505.9C798.056 506 799.156 506.7 799.156 509.9C799.056 528.1 799.056 546.2 799.156 564.4C799.156 567.3 798.156 568.1 795.357 568.1C754.565 568 713.774 568 673.082 568.1C669.183 568.1 669.383 566 669.383 563.3C669.383 532.2 669.383 501 669.383 469.9C669.383 451.2 669.483 432.6 669.283 413.9C669.283 410.3 670.083 409 673.982 409C714.074 409.1 754.165 409.2 794.257 409C798.456 409 799.156 410.5 799.156 414.2C799.056 441.5 799.056 468.8 799.156 496.1C799.156 499.7 798.356 501.2 794.457 500.9C789.458 500.6 784.459 501 779.46 501C774.261 497.7 772.062 492.5 770.362 486.9C773.461 478.4 773.261 470.3 767.662 462.7C764.263 458.1 760.164 454.1 754.165 454.5C747.767 455 742.468 458 739.968 464.6C739.468 465.9 739.168 467.8 737.369 467.7C735.869 467.6 735.469 466 734.969 464.8C734.169 462.9 733.17 461.3 731.77 459.8C725.071 452.8 717.373 452.5 710.274 459.1C701.476 467.3 700.077 479.3 706.675 490.6C708.175 493.2 709.975 495.6 711.574 498.1C712.974 500.3 712.074 501.5 709.775 501.9C706.975 502.4 704.076 501.5 701.476 502.5C704.476 504.4 707.775 503.1 710.874 503.4C712.874 503.6 714.873 503.3 716.773 503.9C722.372 508.1 727.771 512.4 733.57 516.3C736.269 518.1 738.569 518.2 741.368 516.5C749.466 511.2 757.265 505.7 763.263 497.9C764.963 495.8 766.063 492.9 769.262 492.3C773.861 495.5 775.761 500.6 778.26 505.3Z" fill="black"/>
<path d="M778.26 505.3C773.961 502 772.761 496.4 769.162 492.6C767.262 491.9 766.562 490.2 765.462 488.7C764.663 487.5 764.263 485.4 762.663 485.5C760.763 485.6 760.663 487.9 760.064 489.4C758.464 493.2 756.964 497.1 755.365 500.9C754.465 503 753.665 505.6 750.866 505.6C747.866 505.7 747.366 502.9 746.566 500.8C745.767 498.6 744.967 496.4 743.867 493.6C742.767 496.6 741.967 499.2 741.268 501.7C740.568 504.1 739.168 506 736.469 506C730.07 506 723.571 507 717.173 505.3C711.874 505.2 706.575 505.2 701.376 505.1C700.177 505.1 698.977 505.1 698.577 503.6C698.277 502.3 699.277 501.9 700.176 501.5C710.774 502 721.072 498.4 731.67 499.5C734.169 499.8 735.569 498 736.369 495.8C737.568 492.3 738.568 488.8 739.668 485.3C740.268 483.4 741.168 481.4 743.667 481.4C745.867 481.3 746.666 483.2 747.466 484.9C748.766 487.6 749.466 490.5 751.265 493.5C753.665 489.4 754.565 485 756.364 481.1C757.164 479.3 757.764 477.3 758.964 475.7C760.563 473.5 762.663 473.2 764.363 475.3C767.262 478.9 770.361 482.5 771.161 487.3C773.461 492.2 776.46 496.7 779.659 501.1C785.058 502.5 790.557 501.3 795.956 501.7C797.156 501.8 798.955 501.2 799.055 503.2C799.255 505.8 797.156 505 795.856 505C789.857 505.1 784.058 505.2 778.26 505.3Z" fill="#FDFCFC"/>
<path d="M924.028 434C924.428 435 924.928 436 925.328 437C905.532 437.1 885.736 437 865.941 437.2C861.342 437.3 862.341 434.4 862.341 431.9C862.341 383.8 862.341 335.6 862.341 287.5C862.341 276.9 862.341 276.9 873.039 276.9C940.124 276.9 1007.21 277 1074.29 276.8C1079.09 276.8 1080.29 278 1080.29 282.8C1080.09 332.4 1080.09 382.1 1080.29 431.7C1080.29 436.2 1079.09 437.3 1074.69 437.2C1058.7 437 1042.7 437.1 1026.81 437.2C1022.41 428.2 1022.21 418.3 1020.91 408.7C1019.71 399.5 1019.61 390.1 1016.91 381.2C1013.81 371 1007.41 364.6 996.912 361.8C979.316 357.1 961.72 356 944.023 360.9C934.826 364.1 928.627 370.2 926.027 379.8C923.628 384.9 920.329 389.5 917.629 394.4C911.331 406.1 909.831 420.9 922.828 432.3C923.328 432.8 923.628 433.5 924.028 434Z" fill="#FEFEFE"/>
<path d="M601.397 465.1C600.997 463.4 601.397 462 602.697 460.6C603.697 461.8 603.397 462.9 603.097 464.1C602.497 464.5 601.997 464.8 601.397 465.1Z" fill="#8C8C8C"/>
<path d="M998.911 434.1C998.911 424.3 999.011 415.2 998.911 406.1C998.911 403.5 999.511 402.8 1002.01 403.9C1003.01 404.4 1004.21 404.5 1005.31 404.9C1011.81 407 1016.51 412.4 1016.81 417.9C1017.11 423.2 1012.61 429.1 1006.21 431.6C1003.91 432.4 1001.71 433.1 998.911 434.1Z" fill="#FC9993"/>
<path d="M924.027 434C915.129 428.3 911.03 420 911.83 409.6C912.729 397.9 918.628 388.5 926.026 379.8C925.426 384.7 924.826 389.6 924.227 394.5C924.027 396.3 923.527 398.1 926.526 398C928.326 397.9 929.125 399.4 928.926 401.1C928.726 402.8 927.526 404.3 926.026 403.8C922.727 402.8 923.127 404.9 922.927 406.8C921.527 416 921.627 425 924.027 434Z" fill="#010101"/>
<path d="M959.219 405C957.32 404.8 956.121 403.8 956.121 401.9C956.121 400 957.32 398.8 959.319 398.9C961.019 399 962.118 400 962.218 401.7C962.318 403.6 961.219 404.8 959.219 405Z" fill="#0C0707"/>
<path d="M1115.79 427.9C1121.08 427.9 1126.38 428 1131.78 427.9C1135.68 427.8 1134.98 430.3 1134.98 432.6C1134.98 434.8 1135.68 437.3 1131.78 437.3C1121.18 437.1 1110.49 437.1 1099.89 437.3C1095.99 437.4 1096.69 434.9 1096.69 432.7C1096.69 430.5 1095.99 427.9 1099.89 428C1105.19 428 1110.49 427.9 1115.79 427.9Z" fill="#FEFEFE"/>
<path d="M1115.79 310.2C1110.49 310.2 1105.19 310.1 1099.89 310.3C1096.59 310.4 1096.49 308.5 1096.69 306.2C1096.79 304.1 1095.79 301.3 1099.69 301.4C1110.49 301.5 1121.28 301.5 1131.98 301.4C1135.98 301.4 1134.78 304.2 1134.88 306.3C1135.08 308.7 1134.88 310.5 1131.58 310.4C1126.38 310.1 1121.08 310.2 1115.79 310.2Z" fill="#FCFDFD"/>
<path d="M1116.08 414.1C1121.38 414.1 1126.68 414.1 1132.08 414.1C1133.18 414.1 1134.68 413.7 1134.78 415.4C1134.98 417.5 1133.18 417.2 1131.98 417.2C1121.18 417.2 1110.39 417.2 1099.59 417.2C1098.49 417.2 1096.99 417.5 1096.89 415.8C1096.69 413.6 1098.49 414.1 1099.69 414.1C1105.19 414 1110.69 414.1 1116.08 414.1Z" fill="#FEFEFE"/>
<path d="M1122.68 355.2C1122.78 354.1 1123.58 353.8 1124.68 353.8C1125.78 353.8 1126.58 354.2 1126.58 355.4C1126.58 356.7 1125.68 356.9 1124.58 356.9C1123.48 356.9 1122.68 356.6 1122.68 355.2Z" fill="#EEF2F7"/>
<path d="M1108.99 355.1C1109.09 356.3 1108.39 356.9 1107.29 356.9C1106.29 356.9 1105.29 356.9 1105.19 355.6C1105.09 354.4 1105.79 353.9 1106.89 353.8C1107.79 353.7 1108.79 353.9 1108.99 355.1Z" fill="#EEF2F6"/>
<path d="M1108.99 372.9C1108.99 374.1 1108.39 374.7 1107.19 374.7C1106.09 374.7 1105.19 374.3 1105.19 373C1105.19 372 1105.89 371.6 1106.79 371.5C1107.89 371.3 1108.79 371.5 1108.99 372.9Z" fill="#FEFEFE"/>
<path d="M1126.48 372.8C1126.48 374.2 1125.78 374.6 1124.68 374.7C1123.58 374.8 1122.78 374.4 1122.68 373.2C1122.58 372 1123.28 371.4 1124.48 371.5C1125.48 371.4 1126.28 371.8 1126.48 372.8Z" fill="#FEFEFE"/>
<path d="M1124.68 339.1C1123.48 339.1 1122.28 339.1 1122.28 337.5C1122.28 336.3 1123.18 335.9 1124.18 335.9C1125.38 335.9 1126.58 335.9 1126.58 337.5C1126.68 338.8 1125.78 339.1 1124.68 339.1Z" fill="#E7EDF3"/>
<path d="M1109.39 337.5C1109.39 338.7 1108.59 339.1 1107.49 339.1C1106.39 339.1 1105.09 339.2 1105.09 337.6C1105.09 336.4 1105.89 336 1106.99 336C1108.09 335.9 1109.29 335.9 1109.39 337.5Z" fill="#E7EDF3"/>
<path d="M1092.19 1071.6C1091.79 1075.6 1089.89 1077.9 1086.09 1077.8C1082.59 1077.7 1080.39 1075.4 1080.29 1072.1C1080.19 1068.5 1082.19 1066 1086.09 1066C1089.99 1065.9 1091.69 1068.2 1092.19 1071.6Z" fill="#FCFCFD"/>
<path d="M771.061 487.3C768.762 483.8 766.462 480.4 764.263 476.9C763.563 475.8 762.963 474.4 761.263 474.7C759.964 475 759.664 476.2 759.264 477.3C756.764 483.8 754.165 490.2 751.166 497.9C749.166 492.7 747.666 488.6 745.967 484.6C745.467 483.5 745.267 481.8 743.467 481.9C741.768 482 741.568 483.4 741.168 484.7C739.868 489.2 738.468 493.6 737.069 498.1C736.569 499.9 735.969 501.4 733.469 501.4C722.372 501.3 711.174 501.5 700.077 501.5C703.876 501.3 707.575 501.1 711.874 500.9C709.874 497.9 707.875 495.2 706.075 492.3C698.677 479.9 699.477 468.5 708.175 459.4C717.273 449.7 730.57 452.1 735.969 464.3C736.469 465.3 736.869 466.4 737.369 467.5C738.468 465.3 739.168 463.1 740.368 461.2C745.867 452.6 756.564 450.9 764.363 457.3C773.661 464.7 776.26 476.5 771.061 487.3Z" fill="#E74F4F"/>
<path d="M717.174 505.4C722.672 505.3 728.171 505 733.569 505.3C737.568 505.5 739.768 504.5 740.468 500.3C740.967 497.1 742.367 494 743.667 489.9C745.366 494.2 746.666 497.8 748.166 501.4C748.765 502.9 748.865 505 750.965 505.1C753.164 505.2 753.264 503 753.864 501.6C756.563 495.1 759.063 488.5 761.962 481.3C765.061 485.3 767.36 488.9 769.16 492.7C761.462 503.5 751.865 512.1 740.368 518.7C738.368 519.8 736.969 520.1 734.969 518.9C728.671 514.7 722.272 510.9 717.174 505.4Z" fill="#E74F4F"/>
</svg>
