<?xml version="1.0" encoding="UTF-8"?>
<!--Generator: Apple Native CoreSVG 175-->
<!DOCTYPE svg
PUBLIC "-//W3C//DTD SVG 1.1//EN"
       "http://www.w3.org/Graphics/SVG/1.1/DTD/svg11.dtd">
<svg version="1.1" xmlns="http://www.w3.org/2000/svg" xmlns:xlink="http://www.w3.org/1999/xlink" width="3300" height="2200">
 <!--glyph: "", point size: 100.0, font version: "17.0d12e1", template writer version: "65.1"-->
 <g id="Notes">
  <rect height="2200" id="artboard" style="fill:white;opacity:1" width="3300" x="0" y="0"/>
  <line style="fill:none;stroke:black;opacity:1;stroke-width:0.5;" x1="263" x2="3036" y1="292" y2="292"/>
  <text style="stroke:none;fill:black;font-family:sans-serif;font-size:13;font-weight:bold;" transform="matrix(1 0 0 1 263 322)">Weight/Scale Variations</text>
  <text style="stroke:none;fill:black;font-family:sans-serif;font-size:13;text-anchor:middle;" transform="matrix(1 0 0 1 559.711 322)">Ultralight</text>
  <text style="stroke:none;fill:black;font-family:sans-serif;font-size:13;text-anchor:middle;" transform="matrix(1 0 0 1 856.422 322)">Thin</text>
  <text style="stroke:none;fill:black;font-family:sans-serif;font-size:13;text-anchor:middle;" transform="matrix(1 0 0 1 1153.13 322)">Light</text>
  <text style="stroke:none;fill:black;font-family:sans-serif;font-size:13;text-anchor:middle;" transform="matrix(1 0 0 1 1449.84 322)">Regular</text>
  <text style="stroke:none;fill:black;font-family:sans-serif;font-size:13;text-anchor:middle;" transform="matrix(1 0 0 1 1746.56 322)">Medium</text>
  <text style="stroke:none;fill:black;font-family:sans-serif;font-size:13;text-anchor:middle;" transform="matrix(1 0 0 1 2043.27 322)">Semibold</text>
  <text style="stroke:none;fill:black;font-family:sans-serif;font-size:13;text-anchor:middle;" transform="matrix(1 0 0 1 2339.98 322)">Bold</text>
  <text style="stroke:none;fill:black;font-family:sans-serif;font-size:13;text-anchor:middle;" transform="matrix(1 0 0 1 2636.69 322)">Heavy</text>
  <text style="stroke:none;fill:black;font-family:sans-serif;font-size:13;text-anchor:middle;" transform="matrix(1 0 0 1 2933.4 322)">Black</text>
  <line style="fill:none;stroke:black;opacity:1;stroke-width:0.5;" x1="263" x2="3036" y1="1903" y2="1903"/>
  <g transform="matrix(1 0 0 1 263 1933)">
   <path d="M9.24805 0.830078Q10.8691 0.830078 12.2949 0.214844Q13.7207-0.400391 14.8096-1.49414Q15.8984-2.58789 16.5186-4.01367Q17.1387-5.43945 17.1387-7.05078Q17.1387-8.66211 16.5186-10.0879Q15.8984-11.5137 14.8047-12.6074Q13.7109-13.7012 12.2852-14.3164Q10.8594-14.9316 9.23828-14.9316Q7.62695-14.9316 6.20117-14.3164Q4.77539-13.7012 3.69141-12.6074Q2.60742-11.5137 1.9873-10.0879Q1.36719-8.66211 1.36719-7.05078Q1.36719-5.43945 1.9873-4.01367Q2.60742-2.58789 3.69629-1.49414Q4.78516-0.400391 6.21094 0.214844Q7.63672 0.830078 9.24805 0.830078ZM9.24805-0.654297Q7.91992-0.654297 6.7627-1.14746Q5.60547-1.64062 4.73145-2.51953Q3.85742-3.39844 3.36426-4.56055Q2.87109-5.72266 2.87109-7.05078Q2.87109-8.37891 3.35938-9.54102Q3.84766-10.7031 4.72168-11.582Q5.5957-12.4609 6.75293-12.9541Q7.91016-13.4473 9.23828-13.4473Q10.5762-13.4473 11.7334-12.9541Q12.8906-12.4609 13.7695-11.582Q14.6484-10.7031 15.1465-9.54102Q15.6445-8.37891 15.6445-7.05078Q15.6445-5.72266 15.1514-4.56055Q14.6582-3.39844 13.7842-2.51953Q12.9102-1.64062 11.748-1.14746Q10.5859-0.654297 9.24805-0.654297ZM5.6543-7.05078Q5.6543-6.72852 5.85938-6.52832Q6.06445-6.32812 6.40625-6.32812L8.51562-6.32812L8.51562-4.20898Q8.51562-3.88672 8.71094-3.67676Q8.90625-3.4668 9.23828-3.4668Q9.56055-3.4668 9.77051-3.67676Q9.98047-3.88672 9.98047-4.20898L9.98047-6.32812L12.0898-6.32812Q12.4219-6.32812 12.627-6.52832Q12.832-6.72852 12.832-7.05078Q12.832-7.38281 12.627-7.58789Q12.4219-7.79297 12.0898-7.79297L9.98047-7.79297L9.98047-9.90234Q9.98047-10.2344 9.77051-10.4443Q9.56055-10.6543 9.23828-10.6543Q8.90625-10.6543 8.71094-10.4443Q8.51562-10.2344 8.51562-9.90234L8.51562-7.79297L6.40625-7.79297Q6.06445-7.79297 5.85938-7.58789Q5.6543-7.38281 5.6543-7.05078Z"/>
  </g>
  <g transform="matrix(1 0 0 1 281.867 1933)">
   <path d="M11.709 2.91016Q13.75 2.91016 15.5518 2.12891Q17.3535 1.34766 18.7305-0.0292969Q20.1074-1.40625 20.8887-3.20801Q21.6699-5.00977 21.6699-7.05078Q21.6699-9.0918 20.8887-10.8936Q20.1074-12.6953 18.7305-14.0723Q17.3535-15.4492 15.5469-16.2305Q13.7402-17.0117 11.6992-17.0117Q9.6582-17.0117 7.85645-16.2305Q6.05469-15.4492 4.68262-14.0723Q3.31055-12.6953 2.5293-10.8936Q1.74805-9.0918 1.74805-7.05078Q1.74805-5.00977 2.5293-3.20801Q3.31055-1.40625 4.6875-0.0292969Q6.06445 1.34766 7.86621 2.12891Q9.66797 2.91016 11.709 2.91016ZM11.709 1.25Q9.98047 1.25 8.47656 0.605469Q6.97266-0.0390625 5.83496-1.17676Q4.69727-2.31445 4.05762-3.81836Q3.41797-5.32227 3.41797-7.05078Q3.41797-8.7793 4.05762-10.2832Q4.69727-11.7871 5.83008-12.9297Q6.96289-14.0723 8.4668-14.7119Q9.9707-15.3516 11.6992-15.3516Q13.4277-15.3516 14.9316-14.7119Q16.4355-14.0723 17.5781-12.9297Q18.7207-11.7871 19.3652-10.2832Q20.0098-8.7793 20.0098-7.05078Q20.0098-5.32227 19.3701-3.81836Q18.7305-2.31445 17.5928-1.17676Q16.4551-0.0390625 14.9463 0.605469Q13.4375 1.25 11.709 1.25ZM7.17773-7.05078Q7.17773-6.69922 7.41211-6.47461Q7.64648-6.25 8.01758-6.25L10.8887-6.25L10.8887-3.36914Q10.8887-2.99805 11.1133-2.76855Q11.3379-2.53906 11.6895-2.53906Q12.0605-2.53906 12.29-2.76855Q12.5195-2.99805 12.5195-3.36914L12.5195-6.25L15.4004-6.25Q15.7715-6.25 16.001-6.47461Q16.2305-6.69922 16.2305-7.05078Q16.2305-7.42188 16.001-7.65137Q15.7715-7.88086 15.4004-7.88086L12.5195-7.88086L12.5195-10.752Q12.5195-11.1328 12.29-11.3623Q12.0605-11.5918 11.6895-11.5918Q11.3379-11.5918 11.1133-11.3574Q10.8887-11.123 10.8887-10.752L10.8887-7.88086L8.01758-7.88086Q7.63672-7.88086 7.40723-7.65137Q7.17773-7.42188 7.17773-7.05078Z"/>
  </g>
  <g transform="matrix(1 0 0 1 305.646 1933)">
   <path d="M14.9707 5.66406Q17.0605 5.66406 18.96 5.01465Q20.8594 4.36523 22.4512 3.19336Q24.043 2.02148 25.2197 0.429688Q26.3965-1.16211 27.0459-3.06641Q27.6953-4.9707 27.6953-7.05078Q27.6953-9.14062 27.0459-11.04Q26.3965-12.9395 25.2197-14.5312Q24.043-16.123 22.4512-17.2998Q20.8594-18.4766 18.9551-19.126Q17.0508-19.7754 14.9609-19.7754Q12.8711-19.7754 10.9717-19.126Q9.07227-18.4766 7.48535-17.2998Q5.89844-16.123 4.72168-14.5312Q3.54492-12.9395 2.90039-11.04Q2.25586-9.14062 2.25586-7.05078Q2.25586-4.9707 2.90527-3.06641Q3.55469-1.16211 4.72656 0.429688Q5.89844 2.02148 7.49023 3.19336Q9.08203 4.36523 10.9814 5.01465Q12.8809 5.66406 14.9707 5.66406ZM14.9707 3.84766Q13.1641 3.84766 11.5283 3.2959Q9.89258 2.74414 8.53516 1.74805Q7.17773 0.751953 6.17676-0.610352Q5.17578-1.97266 4.62891-3.6084Q4.08203-5.24414 4.08203-7.05078Q4.08203-8.86719 4.62891-10.5029Q5.17578-12.1387 6.17188-13.501Q7.16797-14.8633 8.52539-15.8594Q9.88281-16.8555 11.5186-17.4023Q13.1543-17.9492 14.9609-17.9492Q16.7773-17.9492 18.4131-17.4023Q20.0488-16.8555 21.4111-15.8594Q22.7734-14.8633 23.7695-13.501Q24.7656-12.1387 25.3174-10.5029Q25.8691-8.86719 25.8691-7.05078Q25.8789-5.24414 25.332-3.6084Q24.7852-1.97266 23.7842-0.610352Q22.7832 0.751953 21.4209 1.74805Q20.0586 2.74414 18.4229 3.2959Q16.7871 3.84766 14.9707 3.84766ZM9.19922-7.05078Q9.19922-6.66992 9.45801-6.4209Q9.7168-6.17188 10.1172-6.17188L14.0625-6.17188L14.0625-2.2168Q14.0625-1.81641 14.3115-1.55762Q14.5605-1.29883 14.9512-1.29883Q15.3516-1.29883 15.6104-1.55273Q15.8691-1.80664 15.8691-2.2168L15.8691-6.17188L19.8242-6.17188Q20.2246-6.17188 20.4785-6.4209Q20.7324-6.66992 20.7324-7.05078Q20.7324-7.46094 20.4785-7.71484Q20.2246-7.96875 19.8242-7.96875L15.8691-7.96875L15.8691-11.9141Q15.8691-12.3242 15.6104-12.583Q15.3516-12.8418 14.9512-12.8418Q14.5605-12.8418 14.3115-12.583Q14.0625-12.3242 14.0625-11.9141L14.0625-7.96875L10.1172-7.96875Q9.70703-7.96875 9.45312-7.71484Q9.19922-7.46094 9.19922-7.05078Z"/>
  </g>
  <text style="stroke:none;fill:black;font-family:sans-serif;font-size:13;font-weight:bold;" transform="matrix(1 0 0 1 263 1953)">Design Variations</text>
  <text style="stroke:none;fill:black;font-family:sans-serif;font-size:13;" transform="matrix(1 0 0 1 263 1971)">Symbols are supported in up to nine weights and three scales.</text>
  <text style="stroke:none;fill:black;font-family:sans-serif;font-size:13;" transform="matrix(1 0 0 1 263 1989)">For optimal layout with text and other symbols, vertically align</text>
  <text style="stroke:none;fill:black;font-family:sans-serif;font-size:13;" transform="matrix(1 0 0 1 263 2007)">symbols with the adjacent text.</text>
  <line style="fill:none;stroke:#00AEEF;stroke-width:0.5;opacity:1.0;" x1="776" x2="776" y1="1919" y2="1933"/>
  <g transform="matrix(1 0 0 1 776 1933)">
   <path d="M3.31055 0.15625Q3.70117 0.15625 3.91602-0.00976562Q4.13086-0.175781 4.26758-0.585938L5.52734-4.0332L11.2891-4.0332L12.5488-0.585938Q12.6855-0.175781 12.9004-0.00976562Q13.1152 0.15625 13.4961 0.15625Q13.8867 0.15625 14.1162-0.0585938Q14.3457-0.273438 14.3457-0.644531Q14.3457-0.869141 14.2383-1.17188L9.6582-13.3691Q9.48242-13.8184 9.17969-14.043Q8.87695-14.2676 8.4082-14.2676Q7.5-14.2676 7.17773-13.3789L2.59766-1.16211Q2.49023-0.859375 2.49023-0.634766Q2.49023-0.263672 2.70996-0.0537109Q2.92969 0.15625 3.31055 0.15625ZM6.00586-5.51758L8.37891-12.0898L8.42773-12.0898L10.8008-5.51758Z"/>
  </g>
  <line style="fill:none;stroke:#00AEEF;stroke-width:0.5;opacity:1.0;" x1="793.197" x2="793.197" y1="1919" y2="1933"/>
  <text style="stroke:none;fill:black;font-family:sans-serif;font-size:13;font-weight:bold;" transform="matrix(1 0 0 1 776 1953)">Margins</text>
  <text style="stroke:none;fill:black;font-family:sans-serif;font-size:13;" transform="matrix(1 0 0 1 776 1971)">Leading and trailing margins on the left and right side of each symbol</text>
  <text style="stroke:none;fill:black;font-family:sans-serif;font-size:13;" transform="matrix(1 0 0 1 776 1989)">can be adjusted by modifying the x-location of the margin guidelines.</text>
  <text style="stroke:none;fill:black;font-family:sans-serif;font-size:13;" transform="matrix(1 0 0 1 776 2007)">Modifications are automatically applied proportionally to all</text>
  <text style="stroke:none;fill:black;font-family:sans-serif;font-size:13;" transform="matrix(1 0 0 1 776 2025)">scales and weights.</text>
  <g transform="matrix(1 0 0 1 1289 1933)">
   <path d="M2.8418 1.86523L4.54102 3.57422Q5.18555 4.22852 5.90332 4.17969Q6.62109 4.13086 7.31445 3.35938L18.0078-8.42773L17.041-9.4043L6.42578 2.27539Q6.16211 2.57812 5.89355 2.61719Q5.625 2.65625 5.27344 2.30469L4.10156 1.14258Q3.75 0.791016 3.79395 0.522461Q3.83789 0.253906 4.14062-0.0195312L15.6152-10.8203L14.6387-11.7871L3.04688-0.898438Q2.30469-0.214844 2.25098 0.498047Q2.19727 1.21094 2.8418 1.86523ZM9.25781-16.3281Q8.94531-16.0254 8.90625-15.6348Q8.86719-15.2441 9.04297-14.9512Q9.21875-14.6777 9.55566-14.541Q9.89258-14.4043 10.3809-14.5215Q11.4746-14.7754 12.5977-14.7314Q13.7207-14.6875 14.7949-13.9844L14.209-12.5293Q13.9551-11.9043 14.0674-11.4404Q14.1797-10.9766 14.5801-10.5664L16.875-8.25195Q17.2363-7.88086 17.5781-7.82227Q17.9199-7.76367 18.3398-7.8418L19.4043-8.03711L20.0684-7.36328L20.0293-6.80664Q20-6.43555 20.1221-6.12305Q20.2441-5.81055 20.6055-5.44922L21.3672-4.70703Q21.7285-4.3457 22.1533-4.33105Q22.5781-4.31641 22.9297-4.66797L25.8398-7.58789Q26.1914-7.93945 26.1816-8.35449Q26.1719-8.76953 25.8105-9.13086L25.0391-9.89258Q24.6875-10.2539 24.3799-10.3857Q24.0723-10.5176 23.7109-10.4883L23.1348-10.4395L22.4902-11.0742L22.7344-12.1973Q22.832-12.6172 22.6953-12.9834Q22.5586-13.3496 22.1191-13.7891L19.9219-15.9766Q18.6719-17.2168 17.2607-17.8369Q15.8496-18.457 14.4189-18.4814Q12.9883-18.5059 11.665-17.959Q10.3418-17.4121 9.25781-16.3281ZM10.752-15.957Q11.6602-16.6211 12.7002-16.9043Q13.7402-17.1875 14.8047-17.085Q15.8691-16.9824 16.8701-16.5137Q17.8711-16.0449 18.7012-15.2051L21.1328-12.793Q21.3086-12.6172 21.3525-12.4512Q21.3965-12.2852 21.3379-12.0312L21.0156-10.5469L22.5195-9.0625L23.5059-9.12109Q23.6914-9.13086 23.7891-9.09668Q23.8867-9.0625 24.0332-8.91602L24.6094-8.33984L22.168-5.89844L21.5918-6.47461Q21.4453-6.62109 21.4062-6.71875Q21.3672-6.81641 21.377-7.01172L21.4453-7.98828L19.9512-9.47266L18.4277-9.21875Q18.1836-9.16992 18.042-9.2041Q17.9004-9.23828 17.7148-9.41406L15.7129-11.416Q15.5176-11.5918 15.4932-11.7529Q15.4688-11.9141 15.5859-12.1875L16.4648-14.2773Q15.293-15.3711 13.8281-15.791Q12.3633-16.2109 10.8398-15.7617Q10.7227-15.7324 10.6885-15.8057Q10.6543-15.8789 10.752-15.957Z"/>
  </g>
  <text style="stroke:none;fill:black;font-family:sans-serif;font-size:13;font-weight:bold;" transform="matrix(1 0 0 1 1289 1953)">Exporting</text>
  <text style="stroke:none;fill:black;font-family:sans-serif;font-size:13;" transform="matrix(1 0 0 1 1289 1971)">Symbols should be outlined when exporting to ensure the</text>
  <text style="stroke:none;fill:black;font-family:sans-serif;font-size:13;" transform="matrix(1 0 0 1 1289 1989)">design is preserved when submitting to Xcode.</text>
  <text id="template-version" style="stroke:none;fill:black;font-family:sans-serif;font-size:13;text-anchor:end;" transform="matrix(1 0 0 1 3036 1933)">Template v.3.0</text>
  <text style="stroke:none;fill:black;font-family:sans-serif;font-size:13;text-anchor:end;" transform="matrix(1 0 0 1 3036 1951)">Requires Xcode 13 or greater</text>
  <text id="descriptive-name" style="stroke:none;fill:black;font-family:sans-serif;font-size:13;text-anchor:end;" transform="matrix(1 0 0 1 3036 1969)">Generated from corner-down-right</text>
  <text style="stroke:none;fill:black;font-family:sans-serif;font-size:13;text-anchor:end;" transform="matrix(1 0 0 1 3036 1987)">Typeset at 100 points</text>
  <text style="stroke:none;fill:black;font-family:sans-serif;font-size:13;" transform="matrix(1 0 0 1 263 726)">Small</text>
  <text style="stroke:none;fill:black;font-family:sans-serif;font-size:13;" transform="matrix(1 0 0 1 263 1156)">Medium</text>
  <text style="stroke:none;fill:black;font-family:sans-serif;font-size:13;" transform="matrix(1 0 0 1 263 1586)">Large</text>
 </g>
 <g id="Guides">
  <g id="H-reference" style="fill:#27AAE1;stroke:none;" transform="matrix(1 0 0 1 339 696)">
   <path d="M0.976562 0L3.66211 0L29.3457-67.1387L30.0293-67.1387L30.0293-70.459L28.125-70.459ZM11.6699-24.4629L46.9727-24.4629L46.2402-26.709L12.4512-26.709ZM55.127 0L57.7637 0L30.6152-70.459L29.4434-70.459L29.4434-67.1387Z"/>
  </g>
  <line id="Baseline-S" style="fill:none;stroke:#27AAE1;opacity:1;stroke-width:0.5;" x1="263" x2="3036" y1="696" y2="696"/>
  <line id="Capline-S" style="fill:none;stroke:#27AAE1;opacity:1;stroke-width:0.5;" x1="263" x2="3036" y1="625.541" y2="625.541"/>
  <g id="H-reference" style="fill:#27AAE1;stroke:none;" transform="matrix(1 0 0 1 339 1126)">
   <path d="M0.976562 0L3.66211 0L29.3457-67.1387L30.0293-67.1387L30.0293-70.459L28.125-70.459ZM11.6699-24.4629L46.9727-24.4629L46.2402-26.709L12.4512-26.709ZM55.127 0L57.7637 0L30.6152-70.459L29.4434-70.459L29.4434-67.1387Z"/>
  </g>
  <line id="Baseline-M" style="fill:none;stroke:#27AAE1;opacity:1;stroke-width:0.5;" x1="263" x2="3036" y1="1126" y2="1126"/>
  <line id="Capline-M" style="fill:none;stroke:#27AAE1;opacity:1;stroke-width:0.5;" x1="263" x2="3036" y1="1055.54" y2="1055.54"/>
  <g id="H-reference" style="fill:#27AAE1;stroke:none;" transform="matrix(1 0 0 1 339 1556)">
   <path d="M0.976562 0L3.66211 0L29.3457-67.1387L30.0293-67.1387L30.0293-70.459L28.125-70.459ZM11.6699-24.4629L46.9727-24.4629L46.2402-26.709L12.4512-26.709ZM55.127 0L57.7637 0L30.6152-70.459L29.4434-70.459L29.4434-67.1387Z"/>
  </g>
  <line id="Baseline-L" style="fill:none;stroke:#27AAE1;opacity:1;stroke-width:0.5;" x1="263" x2="3036" y1="1556" y2="1556"/>
  <line id="Capline-L" style="fill:none;stroke:#27AAE1;opacity:1;stroke-width:0.5;" x1="263" x2="3036" y1="1485.54" y2="1485.54"/>
  <line id="left-margin-Regular-M" style="fill:none;stroke:#00AEEF;stroke-width:0.5;opacity:1.0;" x1="1392.79" x2="1392.79" y1="1030.78" y2="1150.12"/>
  <line id="right-margin-Regular-M" style="fill:none;stroke:#00AEEF;stroke-width:0.5;opacity:1.0;" x1="1506.9" x2="1506.9" y1="1030.78" y2="1150.12"/>
 </g>
 <g id="Symbols">
  <g id="Black-L" transform="matrix(1 0 0 1 2862.95 1556)">
   <path d="M82.99-51.63C85.77-54.4 90.26-54.4 93.03-51.63L121.47-23.19C124.24-20.42 124.24-15.92 121.47-13.15L93.03 15.29C90.26 18.06 85.77 18.06 82.99 15.29C80.22 12.52 80.22 8.02 82.99 5.25L106.41-18.17L82.99-41.59C80.22-44.36 80.22-48.85 82.99-51.63ZM25.45-87.83C29.37-87.83 32.55-84.65 32.55-80.73L32.55-40.92C32.55-36.77 34.2-32.79 37.13-29.85C40.07-26.92 44.05-25.27 48.2-25.27L116.45-25.27C120.37-25.27 123.55-22.09 123.55-18.17C123.55-14.25 120.37-11.07 116.45-11.07L48.2-11.07C40.28-11.07 32.69-14.21 27.09-19.81C21.5-25.41 18.35-33 18.35-40.92L18.35-80.73C18.35-84.65 21.53-87.83 25.45-87.83Z"/>
  </g>
  <g id="Heavy-L" transform="matrix(1 0 0 1 2567.08 1556)">
   <path d="M82.74-51.02C85.18-53.47 89.14-53.47 91.58-51.02L120.02-22.59C122.46-20.15 122.46-16.19 120.02-13.75L91.58 14.69C89.14 17.13 85.18 17.13 82.74 14.69C80.3 12.25 80.3 8.29 82.74 5.85L106.76-18.17L82.74-42.19C80.3-44.63 80.3-48.58 82.74-51.02ZM24.6-86.98C28.05-86.98 30.85-84.18 30.85-80.73L30.85-40.92C30.85-36.54 32.59-32.35 35.68-29.25C38.77-26.16 42.97-24.42 47.35-24.42L115.6-24.42C119.05-24.42 121.85-21.62 121.85-18.17C121.85-14.72 119.05-11.92 115.6-11.92L47.35-11.92C39.66-11.92 32.28-14.97 26.84-20.41C21.4-25.85 18.35-33.23 18.35-40.92L18.35-80.73C18.35-84.18 21.15-86.98 24.6-86.98Z"/>
  </g>
  <g id="Bold-L" transform="matrix(1 0 0 1 2271.32 1556)">
   <path d="M82.47-50.35C84.54-52.42 87.89-52.42 89.96-50.35L118.4-21.92C120.47-19.85 120.47-16.49 118.4-14.42L89.96 14.02C87.89 16.09 84.54 16.09 82.47 14.02C80.4 11.95 80.4 8.59 82.47 6.52L107.16-18.17L82.47-42.86C80.4-44.93 80.4-48.28 82.47-50.35ZM23.65-86.03C26.58-86.03 28.95-83.66 28.95-80.73L28.95-40.92C28.95-36.29 30.79-31.85 34.06-28.58C37.34-25.31 41.78-23.47 46.4-23.47L114.65-23.47C117.58-23.47 119.95-21.1 119.95-18.17C119.95-15.24 117.58-12.87 114.65-12.87L46.4-12.87C38.96-12.87 31.83-15.82 26.57-21.08C21.31-26.34 18.35-33.48 18.35-40.92L18.35-80.73C18.35-83.66 20.73-86.03 23.65-86.03Z"/>
  </g>
  <g id="Semibold-L" transform="matrix(1 0 0 1 1975.26 1556)">
   <path d="M82.27-49.89C84.09-51.71 87.03-51.71 88.85-49.89L117.29-21.45C119.1-19.64 119.1-16.69 117.29-14.88L88.85 13.56C87.03 15.38 84.09 15.38 82.27 13.56C80.46 11.74 80.46 8.8 82.27 6.98L107.42-18.17L82.27-43.32C80.46-45.13 80.46-48.08 82.27-49.89ZM23-85.38C25.57-85.38 27.65-83.3 27.65-80.73L27.65-40.92C27.65-36.12 29.56-31.51 32.95-28.12C36.35-24.72 40.95-22.82 45.75-22.82L114-22.82C116.57-22.82 118.65-20.73 118.65-18.17C118.65-15.6 116.57-13.52 114-13.52L45.75-13.52C38.48-13.52 31.51-16.4 26.37-21.54C21.24-26.68 18.35-33.65 18.35-40.92L18.35-80.73C18.35-83.3 20.43-85.38 23-85.38Z"/>
  </g>
  <g id="Medium-L" transform="matrix(1 0 0 1 1679.05 1556)">
   <path d="M82.13-49.54C83.75-51.16 86.38-51.16 88-49.54L116.43-21.1C118.05-19.48 118.05-16.85 116.43-15.23L88 13.21C86.38 14.83 83.75 14.83 82.13 13.21C80.51 11.58 80.51 8.96 82.13 7.34L107.63-18.17L82.13-43.67C80.51-45.29 80.51-47.92 82.13-49.54ZM22.5-84.88C24.79-84.88 26.65-83.02 26.65-80.73L26.65-40.92C26.65-35.98 28.61-31.25 32.1-27.76C35.59-24.28 40.32-22.32 45.25-22.32L113.5-22.32C115.79-22.32 117.65-20.46 117.65-18.17C117.65-15.87 115.79-14.02 113.5-14.02L45.25-14.02C38.12-14.02 31.27-16.85 26.23-21.9C21.18-26.94 18.35-33.78 18.35-40.92L18.35-80.73C18.35-83.02 20.21-84.88 22.5-84.88Z"/>
  </g>
  <g id="Regular-L" transform="matrix(1 0 0 1 1382.99 1556)">
   <path d="M81.94-49.08C83.3-50.45 85.52-50.45 86.89-49.08L115.32-20.64C116.69-19.28 116.69-17.06 115.32-15.69L86.89 12.74C85.52 14.11 83.3 14.11 81.94 12.74C80.57 11.38 80.57 9.16 81.94 7.79L107.9-18.17L81.94-44.13C80.57-45.5 80.57-47.71 81.94-49.08ZM21.85-84.23C23.78-84.23 25.35-82.66 25.35-80.73L25.35-40.92C25.35-35.81 27.38-30.92 30.99-27.31C34.6-23.7 39.49-21.67 44.6-21.67L112.85-21.67C114.78-21.67 116.35-20.1 116.35-18.17C116.35-16.23 114.78-14.67 112.85-14.67L44.6-14.67C37.64-14.67 30.96-17.43 26.04-22.36C21.12-27.28 18.35-33.96 18.35-40.92L18.35-80.73C18.35-82.66 19.92-84.23 21.85-84.23Z"/>
  </g>
  <g id="Light-L" transform="matrix(1 0 0 1 1087.08 1556)">
   <path d="M81.7-48.51C82.76-49.57 84.47-49.57 85.52-48.51L113.96-20.08C115.01-19.02 115.01-17.31 113.96-16.26L85.52 12.18C84.47 13.23 82.76 13.23 81.7 12.18C80.65 11.13 80.65 9.42 81.7 8.36L108.23-18.17L81.7-44.7C80.65-45.75 80.65-47.46 81.7-48.51ZM21.05-83.43C22.54-83.43 23.75-82.22 23.75-80.73L23.75-40.92C23.75-35.6 25.86-30.5 29.62-26.74C33.38-22.98 38.48-20.87 43.8-20.87L112.05-20.87C113.54-20.87 114.75-19.66 114.75-18.17C114.75-16.68 113.54-15.47 112.05-15.47L43.8-15.47C37.05-15.47 30.58-18.15 25.8-22.92C21.03-27.69 18.35-34.17 18.35-40.92L18.35-80.73C18.35-82.22 19.56-83.43 21.05-83.43Z"/>
  </g>
  <g id="Thin-L" transform="matrix(1 0 0 1 791.417 1556)">
   <path d="M81.395-47.77C82.04-48.41 83.084-48.41 83.729-47.77L112.166-19.33C112.811-18.69 112.811-17.64 112.166-17L83.729 11.44C83.084 12.08 82.04 12.08 81.395 11.44C80.751 10.79 80.751 9.75 81.395 9.1L108.666-18.17L81.395-45.44C80.751-46.08 80.751-47.13 81.395-47.77ZM20-82.38C20.911-82.38 21.65-81.64 21.65-80.73L21.65-40.92C21.65-35.32 23.873-29.95 27.83-26C31.787-22.04 37.154-19.82 42.75-19.82L111-19.82C111.911-19.82 112.65-19.08 112.65-18.17C112.65-17.26 111.911-16.52 111-16.52L42.75-16.52C36.278-16.52 30.072-19.09 25.496-23.66C20.92-28.24 18.35-34.45 18.35-40.92L18.35-80.73C18.35-81.64 19.088-82.38 20-82.38Z"/>
  </g>
  <g id="Ultralight-L" transform="matrix(1 0 0 1 495.256 1556)">
   <path d="M81.235-47.38C81.665-47.81 82.361-47.81 82.791-47.38L111.228-18.95C111.658-18.52 111.658-17.82 111.228-17.39L82.791 11.05C82.361 11.48 81.665 11.48 81.235 11.05C80.805 10.62 80.805 9.92 81.235 9.49L108.895-18.17L81.235-45.83C80.805-46.26 80.805-46.96 81.235-47.38ZM19.45-81.83C20.058-81.83 20.55-81.34 20.55-80.73L20.55-40.92C20.55-35.18 22.831-29.67 26.892-25.61C30.952-21.55 36.458-19.27 42.2-19.27L110.45-19.27C111.058-19.27 111.55-18.78 111.55-18.17C111.55-17.56 111.058-17.07 110.45-17.07L42.2-17.07C35.875-17.07 29.809-19.58 25.336-24.06C20.863-28.53 18.35-34.59 18.35-40.92L18.35-80.73C18.35-81.34 18.843-81.83 19.45-81.83Z"/>
  </g>
  <g id="Black-M" transform="matrix(1 0 0 1 2872.74 1126)">
   <path d="M69.52-49.17C72.29-51.95 76.79-51.95 79.56-49.17L101.87-26.86C104.65-24.09 104.65-19.59 101.87-16.82L79.56 5.49C76.79 8.26 72.29 8.26 69.52 5.49C66.75 2.72 66.75-1.78 69.52-4.55L86.81-21.84L69.52-39.13C66.75-41.91 66.75-46.4 69.52-49.17ZM25.45-78.03C29.37-78.03 32.55-74.85 32.55-70.93L32.55-39.69C32.55-36.84 33.69-34.11 35.7-32.09C37.72-30.08 40.45-28.94 43.3-28.94L96.85-28.94C100.77-28.94 103.95-25.76 103.95-21.84C103.95-17.92 100.77-14.74 96.85-14.74L43.3-14.74C36.69-14.74 30.34-17.37 25.66-22.05C20.98-26.73 18.35-33.08 18.35-39.69L18.35-70.93C18.35-74.85 21.53-78.03 25.45-78.03Z"/>
  </g>
  <g id="Heavy-M" transform="matrix(1 0 0 1 2576.88 1126)">
   <path d="M69.27-48.58C71.71-51.02 75.67-51.02 78.11-48.58L100.42-26.26C102.86-23.82 102.86-19.87 100.42-17.42L78.11 4.89C75.67 7.33 71.71 7.33 69.27 4.89C66.83 2.45 66.83-1.51 69.27-3.95L87.16-21.84L69.27-39.74C66.83-42.18 66.83-46.13 69.27-48.58ZM24.6-77.18C28.06-77.18 30.85-74.38 30.85-70.93L30.85-39.69C30.85-36.62 32.08-33.67 34.25-31.49C36.43-29.31 39.38-28.09 42.45-28.09L96-28.09C99.46-28.09 102.25-25.29 102.25-21.84C102.25-18.39 99.46-15.59 96-15.59L42.45-15.59C36.06-15.59 29.93-18.13 25.41-22.65C20.89-27.17 18.35-33.3 18.35-39.69L18.35-70.93C18.35-74.38 21.15-77.18 24.6-77.18Z"/>
  </g>
  <g id="Bold-M" transform="matrix(1 0 0 1 2281.12 1126)">
   <path d="M68.99-47.9C71.06-49.97 74.42-49.97 76.49-47.9L98.8-25.59C100.87-23.52 100.87-20.17 98.8-18.1L76.49 4.22C74.42 6.29 71.06 6.29 68.99 4.22C66.93 2.15 66.93-1.21 68.99-3.28L87.56-21.84L68.99-40.41C66.93-42.48 66.93-45.83 68.99-47.9ZM23.65-76.23C26.58-76.23 28.95-73.86 28.95-70.93L28.95-39.69C28.95-36.36 30.28-33.17 32.63-30.82C34.98-28.47 38.18-27.14 41.5-27.14L95.05-27.14C97.98-27.14 100.35-24.77 100.35-21.84C100.35-18.92 97.98-16.54 95.05-16.54L41.5-16.54C35.36-16.54 29.48-18.98 25.14-23.32C20.79-27.66 18.35-33.55 18.35-39.69L18.35-70.93C18.35-73.86 20.73-76.23 23.65-76.23Z"/>
  </g>
  <g id="Semibold-M" transform="matrix(1 0 0 1 1985.06 1126)">
   <path d="M68.8-47.44C70.62-49.26 73.56-49.26 75.38-47.44L97.69-25.13C99.5-23.31 99.5-20.37 97.69-18.55L75.38 3.76C73.56 5.57 70.62 5.57 68.8 3.76C66.98 1.94 66.98-1 68.8-2.82L87.82-21.84L68.8-40.87C66.98-42.68 66.98-45.63 68.8-47.44ZM23-75.58C25.57-75.58 27.65-73.5 27.65-70.93L27.65-39.69C27.65-36.19 29.04-32.84 31.52-30.36C33.99-27.89 37.35-26.49 40.85-26.49L94.4-26.49C96.97-26.49 99.05-24.41 99.05-21.84C99.05-19.28 96.97-17.19 94.4-17.19L40.85-17.19C34.88-17.19 29.16-19.57 24.94-23.78C20.72-28 18.35-33.73 18.35-39.69L18.35-70.93C18.35-73.5 20.43-75.58 23-75.58Z"/>
  </g>
  <g id="Medium-M" transform="matrix(1 0 0 1 1688.85 1126)">
   <path d="M68.65-47.09C70.27-48.71 72.9-48.71 74.52-47.09L96.84-24.78C98.46-23.16 98.46-20.53 96.84-18.91L74.52 3.4C72.9 5.03 70.27 5.03 68.65 3.4C67.03 1.78 67.03-0.84 68.65-2.46L88.03-21.84L68.65-41.22C67.03-42.84 67.03-45.47 68.65-47.09ZM22.5-75.08C24.79-75.08 26.65-73.22 26.65-70.93L26.65-39.69C26.65-36.06 28.09-32.58 30.66-30.01C33.23-27.44 36.72-25.99 40.35-25.99L93.9-25.99C96.19-25.99 98.05-24.14 98.05-21.84C98.05-19.55 96.19-17.69 93.9-17.69L40.35-17.69C34.52-17.69 28.92-20.01 24.79-24.14C20.67-28.26 18.35-33.86 18.35-39.69L18.35-70.93C18.35-73.22 20.21-75.08 22.5-75.08Z"/>
  </g>
  <g id="Regular-M" transform="matrix(1 0 0 1 1392.79 1126)">
   <path d="M68.46-46.63C69.83-48 72.04-48 73.41-46.63L95.72-24.32C97.09-22.95 97.09-20.74 95.72-19.37L73.41 2.94C72.04 4.31 69.83 4.31 68.46 2.94C67.1 1.58 67.1-0.64 68.46-2.01L88.3-21.84L68.46-41.68C67.1-43.05 67.1-45.26 68.46-46.63ZM21.85-74.43C23.78-74.43 25.35-72.86 25.35-70.93L25.35-39.69C25.35-35.89 26.86-32.24 29.55-29.55C32.24-26.85 35.89-25.34 39.7-25.34L93.25-25.34C95.18-25.34 96.75-23.78 96.75-21.84C96.75-19.91 95.18-18.34 93.25-18.34L39.7-18.34C34.04-18.34 28.61-20.59 24.6-24.6C20.6-28.6 18.35-34.03 18.35-39.69L18.35-70.93C18.35-72.86 19.92-74.43 21.85-74.43Z"/>
  </g>
  <g id="Light-M" transform="matrix(1 0 0 1 1096.88 1126)">
   <path d="M68.23-46.06C69.28-47.12 70.99-47.12 72.05-46.06L94.36-23.75C95.41-22.7 95.41-20.99 94.36-19.93L72.05 2.38C70.99 3.43 69.28 3.43 68.23 2.38C67.17 1.32 67.17-0.39 68.23-1.44L88.63-21.84L68.23-42.25C67.17-43.3 67.17-45.01 68.23-46.06ZM21.05-73.63C22.54-73.63 23.75-72.42 23.75-70.93L23.75-39.69C23.75-35.67 25.35-31.82 28.19-28.98C31.03-26.14 34.88-24.54 38.9-24.54L92.45-24.54C93.94-24.54 95.15-23.33 95.15-21.84C95.15-20.35 93.94-19.14 92.45-19.14L38.9-19.14C33.45-19.14 28.22-21.31 24.37-25.16C20.51-29.01 18.35-34.24 18.35-39.69L18.35-70.93C18.35-72.42 19.56-73.63 21.05-73.63Z"/>
  </g>
  <g id="Thin-M" transform="matrix(1 0 0 1 801.217 1126)">
   <path d="M67.922-45.32C68.566-45.97 69.611-45.97 70.255-45.32L92.568-23.01C93.212-22.36 93.212-21.32 92.568-20.68L70.255 1.64C69.611 2.28 68.566 2.28 67.922 1.64C67.277 0.99 67.277-0.05 67.922-0.7L89.067-21.84L67.922-42.99C67.277-43.63 67.277-44.68 67.922-45.32ZM20-72.58C20.912-72.58 21.65-71.84 21.65-70.93L21.65-39.69C21.65-35.4 23.357-31.28 26.395-28.24C29.433-25.2 33.554-23.49 37.85-23.49L91.4-23.49C92.312-23.49 93.05-22.76 93.05-21.84C93.05-20.93 92.312-20.19 91.4-20.19L37.85-20.19C32.679-20.19 27.719-22.25 24.062-25.91C20.405-29.56 18.35-34.52 18.35-39.69L18.35-70.93C18.35-71.84 19.089-72.58 20-72.58Z"/>
  </g>
  <g id="Ultralight-M" transform="matrix(1 0 0 1 505.056 1126)">
   <path d="M67.76-44.93C68.19-45.36 68.886-45.36 69.316-44.93L91.628-22.62C92.058-22.19 92.058-21.49 91.628-21.06L69.316 1.25C68.886 1.68 68.19 1.68 67.76 1.25C67.331 0.82 67.331 0.12 67.76-0.31L89.295-21.84L67.76-43.38C67.331-43.81 67.331-44.5 67.76-44.93ZM19.45-72.03C20.058-72.03 20.55-71.54 20.55-70.93L20.55-39.69C20.55-35.25 22.315-30.99 25.456-27.85C28.597-24.71 32.858-22.94 37.3-22.94L90.85-22.94C91.458-22.94 91.95-22.45 91.95-21.84C91.95-21.24 91.458-20.74 90.85-20.74L37.3-20.74C32.274-20.74 27.454-22.74 23.901-26.29C20.347-29.85 18.35-34.67 18.35-39.69L18.35-70.93C18.35-71.54 18.843-72.03 19.45-72.03Z"/>
  </g>
  <g id="Black-S" transform="matrix(1 0 0 1 2880.45 696)">
   <path d="M58.93-47.354C61.7-50.127 66.2-50.127 68.97-47.354L86.47-29.854C89.24-27.081 89.24-22.586 86.47-19.813L68.97-2.313C66.2 0.46 61.7 0.46 58.93-2.313C56.16-5.086 56.16-9.581 58.93-12.354L71.41-24.834L58.93-37.313C56.16-40.086 56.16-44.581 58.93-47.354ZM25.45-70.434C29.37-70.434 32.55-67.255 32.55-63.334L32.55-38.834C32.55-37.004 33.28-35.249 34.57-33.955C35.87-32.661 37.62-31.934 39.45-31.934L81.45-31.934C85.37-31.934 88.55-28.755 88.55-24.834C88.55-20.912 85.37-17.734 81.45-17.734L39.45-17.734C33.85-17.734 28.49-19.957 24.53-23.914C20.57-27.871 18.35-33.238 18.35-38.834L18.35-63.334C18.35-67.255 21.53-70.434 25.45-70.434Z"/>
  </g>
  <g id="Heavy-S" transform="matrix(1 0 0 1 2584.58 696)">
   <path d="M58.68-46.751C61.12-49.192 65.08-49.192 67.52-46.751L85.02-29.251C87.46-26.811 87.46-22.853 85.02-20.413L67.52-2.913C65.08-0.472 61.12-0.472 58.68-2.913C56.24-5.353 56.24-9.311 58.68-11.751L71.76-24.832L58.68-37.913C56.24-40.353 56.24-44.311 58.68-46.751ZM24.6-69.582C28.05-69.582 30.85-66.784 30.85-63.332L30.85-38.832C30.85-36.777 31.67-34.805 33.12-33.352C34.57-31.899 36.55-31.082 38.6-31.082L80.6-31.082C84.05-31.082 86.85-28.284 86.85-24.832C86.85-21.38 84.05-18.582 80.6-18.582L38.6-18.582C33.23-18.582 28.08-20.716 24.28-24.513C20.48-28.311 18.35-33.461 18.35-38.832L18.35-63.332C18.35-66.784 21.15-69.582 24.6-69.582Z"/>
  </g>
  <g id="Bold-S" transform="matrix(1 0 0 1 2288.82 696)">
   <path d="M58.41-45.873C60.48-47.943 63.83-47.943 65.9-45.873L83.4-28.373C85.47-26.304 85.47-22.948 83.4-20.878L65.9-3.378C63.83-1.308 60.48-1.308 58.41-3.378C56.34-5.448 56.34-8.804 58.41-10.873L72.16-24.626L58.41-38.378C56.34-40.448 56.34-43.804 58.41-45.873ZM23.65-68.426C26.58-68.426 28.95-66.053 28.95-63.126L28.95-38.626C28.95-36.318 29.87-34.106 31.5-32.474C33.13-30.842 35.35-29.926 37.65-29.926L79.65-29.926C82.58-29.926 84.95-27.553 84.95-24.626C84.95-21.699 82.58-19.326 79.65-19.326L37.65-19.326C32.54-19.326 27.63-21.359 24.01-24.979C20.39-28.598 18.35-33.507 18.35-38.626L18.35-63.126C18.35-66.053 20.73-68.426 23.65-68.426Z"/>
  </g>
  <g id="Semibold-S" transform="matrix(1 0 0 1 1992.76 696)">
   <path d="M58.21-45.411C60.03-47.227 62.97-47.227 64.79-45.411L82.29-27.911C84.1-26.096 84.1-23.151 82.29-21.335L64.79-3.835C62.97-2.019 60.03-2.019 58.21-3.835C56.4-5.651 56.4-8.596 58.21-10.411L72.42-24.623L58.21-38.835C56.4-40.651 56.4-43.596 58.21-45.411ZM23-67.773C25.57-67.773 27.65-65.692 27.65-63.123L27.65-38.623C27.65-36.144 28.63-33.765 30.39-32.012C32.14-30.259 34.52-29.273 37-29.273L79-29.273C81.57-29.273 83.65-27.192 83.65-24.623C83.65-22.055 81.57-19.973 79-19.973L37-19.973C32.05-19.973 27.31-21.938 23.81-25.436C20.31-28.933 18.35-33.677 18.35-38.623L18.35-63.123C18.35-65.692 20.43-67.773 23-67.773Z"/>
  </g>
  <g id="Medium-S" transform="matrix(1 0 0 1 1696.55 696)">
   <path d="M58.07-45.058C59.69-46.679 62.31-46.679 63.93-45.058L81.43-27.558C83.05-25.937 83.05-23.31 81.43-21.689L63.93-4.189C62.31-2.568 59.69-2.568 58.07-4.189C56.44-5.81 56.44-8.437 58.07-10.058L72.63-24.623L58.07-39.189C56.44-40.81 56.44-43.437 58.07-45.058ZM22.5-67.273C24.79-67.273 26.65-65.415 26.65-63.123L26.65-38.623C26.65-36.011 27.69-33.506 29.53-31.658C31.38-29.811 33.89-28.773 36.5-28.773L78.5-28.773C80.79-28.773 82.65-26.915 82.65-24.623C82.65-22.331 80.79-20.473 78.5-20.473L36.5-20.473C31.69-20.473 27.07-22.386 23.67-25.789C20.26-29.193 18.35-33.81 18.35-38.623L18.35-63.123C18.35-65.415 20.21-67.273 22.5-67.273Z"/>
  </g>
  <g id="Regular-S" transform="matrix(1 0 0 1 1400.49 696)">
   <path d="M57.88-44.6C59.24-45.967 61.46-45.967 62.82-44.6L80.32-27.1C81.69-25.733 81.69-23.517 80.32-22.15L62.82-4.65C61.46-3.283 59.24-3.283 57.88-4.65C56.51-6.017 56.51-8.233 57.88-9.6L72.9-24.625L57.88-39.65C56.51-41.017 56.51-43.233 57.88-44.6ZM21.85-66.625C23.78-66.625 25.35-65.058 25.35-63.125L25.35-38.625C25.35-35.84 26.46-33.17 28.43-31.2C30.39-29.231 33.07-28.125 35.85-28.125L77.85-28.125C79.78-28.125 81.35-26.558 81.35-24.625C81.35-22.692 79.78-21.125 77.85-21.125L35.85-21.125C31.21-21.125 26.76-22.969 23.48-26.251C20.19-29.533 18.35-33.984 18.35-38.625L18.35-63.125C18.35-65.058 19.92-66.625 21.85-66.625Z"/>
  </g>
  <g id="Light-S" transform="matrix(1 0 0 1 1104.58 696)">
   <path d="M57.64-44.033C58.7-45.088 60.41-45.088 61.46-44.033L78.96-26.533C80.01-25.479 80.01-23.769 78.96-22.715L61.46-5.215C60.41-4.161 58.7-4.161 57.64-5.215C56.59-6.269 56.59-7.979 57.64-9.033L73.23-24.624L57.64-40.215C56.59-41.269 56.59-42.979 57.64-44.033ZM21.05-65.824C22.54-65.824 23.75-64.615 23.75-63.124L23.75-38.624C23.75-35.627 24.94-32.753 27.06-30.634C29.18-28.515 32.05-27.324 35.05-27.324L77.05-27.324C78.54-27.324 79.75-26.115 79.75-24.624C79.75-23.133 78.54-21.924 77.05-21.924L35.05-21.924C30.62-21.924 26.37-23.684 23.24-26.816C20.11-29.947 18.35-34.195 18.35-38.624L18.35-63.124C18.35-64.615 19.56-65.824 21.05-65.824Z"/>
  </g>
  <g id="Thin-S" transform="matrix(1 0 0 1 808.917 696)">
   <path d="M57.333-43.29C57.977-43.935 59.022-43.935 59.666-43.29L77.166-25.79C77.811-25.146 77.811-24.101 77.166-23.457L59.666-5.957C59.022-5.312 57.977-5.312 57.333-5.957C56.689-6.601 56.689-7.646 57.333-8.29L73.666-24.623L57.333-40.957C56.689-41.601 56.689-42.646 57.333-43.29ZM20-64.773C20.911-64.773 21.65-64.035 21.65-63.123L21.65-38.623C21.65-35.348 22.951-32.207 25.267-29.891C27.583-27.575 30.724-26.273 34-26.273L76-26.273C76.911-26.273 77.65-25.535 77.65-24.623C77.65-23.712 76.911-22.973 76-22.973L34-22.973C29.849-22.973 25.868-24.622 22.933-27.557C19.998-30.492 18.35-34.473 18.35-38.623L18.35-63.123C18.35-64.035 19.088-64.773 20-64.773Z"/>
  </g>
  <g id="Ultralight-S" transform="matrix(1 0 0 1 512.756 696)">
   <path d="M57.173-42.904C57.602-43.334 58.299-43.334 58.728-42.904L76.228-25.404C76.658-24.975 76.658-24.278 76.228-23.849L58.728-6.349C58.299-5.919 57.602-5.919 57.173-6.349C56.743-6.778 56.743-7.475 57.173-7.904L73.895-24.627L57.173-41.349C56.743-41.778 56.743-42.475 57.173-42.904ZM19.45-64.227C20.058-64.227 20.55-63.734 20.55-63.127L20.55-38.627C20.55-35.205 21.909-31.924 24.329-29.505C26.748-27.086 30.029-25.727 33.45-25.727L75.45-25.727C76.058-25.727 76.55-25.234 76.55-24.627C76.55-24.019 76.058-23.527 75.45-23.527L33.45-23.527C29.446-23.527 25.605-25.117 22.773-27.949C19.941-30.781 18.35-34.622 18.35-38.627L18.35-63.127C18.35-63.734 18.843-64.227 19.45-64.227Z"/>
  </g>
 </g>
</svg>
