<?xml version="1.0" encoding="UTF-8"?>
<!--Generator: Apple Native CoreSVG 175-->
<!DOCTYPE svg
PUBLIC "-//W3C//DTD SVG 1.1//EN"
       "http://www.w3.org/Graphics/SVG/1.1/DTD/svg11.dtd">
<svg version="1.1" xmlns="http://www.w3.org/2000/svg" xmlns:xlink="http://www.w3.org/1999/xlink" width="3300" height="2200">
 <!--glyph: "", point size: 100.0, font version: "17.0d12e1", template writer version: "65.1"-->
 <style>.hierarchical-0:secondary {fill:#4D4D4D}
.hierarchical-1:primary {fill:#212121}

.SFSymbolsPreview212121 {fill:#212121;opacity:1.0}
.SFSymbolsPreview4D4D4D {fill:#4D4D4D;opacity:1.0}
</style>
 <g id="Notes">
  <rect height="2200" id="artboard" style="fill:white;opacity:1" width="3300" x="0" y="0"/>
  <line style="fill:none;stroke:black;opacity:1;stroke-width:0.5;" x1="263" x2="3036" y1="292" y2="292"/>
  <text style="stroke:none;fill:black;font-family:sans-serif;font-size:13;font-weight:bold;" transform="matrix(1 0 0 1 263 322)">Weight/Scale Variations</text>
  <text style="stroke:none;fill:black;font-family:sans-serif;font-size:13;text-anchor:middle;" transform="matrix(1 0 0 1 559.711 322)">Ultralight</text>
  <text style="stroke:none;fill:black;font-family:sans-serif;font-size:13;text-anchor:middle;" transform="matrix(1 0 0 1 856.422 322)">Thin</text>
  <text style="stroke:none;fill:black;font-family:sans-serif;font-size:13;text-anchor:middle;" transform="matrix(1 0 0 1 1153.13 322)">Light</text>
  <text style="stroke:none;fill:black;font-family:sans-serif;font-size:13;text-anchor:middle;" transform="matrix(1 0 0 1 1449.84 322)">Regular</text>
  <text style="stroke:none;fill:black;font-family:sans-serif;font-size:13;text-anchor:middle;" transform="matrix(1 0 0 1 1746.56 322)">Medium</text>
  <text style="stroke:none;fill:black;font-family:sans-serif;font-size:13;text-anchor:middle;" transform="matrix(1 0 0 1 2043.27 322)">Semibold</text>
  <text style="stroke:none;fill:black;font-family:sans-serif;font-size:13;text-anchor:middle;" transform="matrix(1 0 0 1 2339.98 322)">Bold</text>
  <text style="stroke:none;fill:black;font-family:sans-serif;font-size:13;text-anchor:middle;" transform="matrix(1 0 0 1 2636.69 322)">Heavy</text>
  <text style="stroke:none;fill:black;font-family:sans-serif;font-size:13;text-anchor:middle;" transform="matrix(1 0 0 1 2933.4 322)">Black</text>
  <line style="fill:none;stroke:black;opacity:1;stroke-width:0.5;" x1="263" x2="3036" y1="1903" y2="1903"/>
  <g transform="matrix(1 0 0 1 263 1933)">
   <path d="M9.24805 0.830078Q10.8691 0.830078 12.2949 0.214844Q13.7207-0.400391 14.8096-1.49414Q15.8984-2.58789 16.5186-4.01367Q17.1387-5.43945 17.1387-7.05078Q17.1387-8.66211 16.5186-10.0879Q15.8984-11.5137 14.8047-12.6074Q13.7109-13.7012 12.2852-14.3164Q10.8594-14.9316 9.23828-14.9316Q7.62695-14.9316 6.20117-14.3164Q4.77539-13.7012 3.69141-12.6074Q2.60742-11.5137 1.9873-10.0879Q1.36719-8.66211 1.36719-7.05078Q1.36719-5.43945 1.9873-4.01367Q2.60742-2.58789 3.69629-1.49414Q4.78516-0.400391 6.21094 0.214844Q7.63672 0.830078 9.24805 0.830078ZM9.24805-0.654297Q7.91992-0.654297 6.7627-1.14746Q5.60547-1.64062 4.73145-2.51953Q3.85742-3.39844 3.36426-4.56055Q2.87109-5.72266 2.87109-7.05078Q2.87109-8.37891 3.35938-9.54102Q3.84766-10.7031 4.72168-11.582Q5.5957-12.4609 6.75293-12.9541Q7.91016-13.4473 9.23828-13.4473Q10.5762-13.4473 11.7334-12.9541Q12.8906-12.4609 13.7695-11.582Q14.6484-10.7031 15.1465-9.54102Q15.6445-8.37891 15.6445-7.05078Q15.6445-5.72266 15.1514-4.56055Q14.6582-3.39844 13.7842-2.51953Q12.9102-1.64062 11.748-1.14746Q10.5859-0.654297 9.24805-0.654297ZM5.6543-7.05078Q5.6543-6.72852 5.85938-6.52832Q6.06445-6.32812 6.40625-6.32812L8.51562-6.32812L8.51562-4.20898Q8.51562-3.88672 8.71094-3.67676Q8.90625-3.4668 9.23828-3.4668Q9.56055-3.4668 9.77051-3.67676Q9.98047-3.88672 9.98047-4.20898L9.98047-6.32812L12.0898-6.32812Q12.4219-6.32812 12.627-6.52832Q12.832-6.72852 12.832-7.05078Q12.832-7.38281 12.627-7.58789Q12.4219-7.79297 12.0898-7.79297L9.98047-7.79297L9.98047-9.90234Q9.98047-10.2344 9.77051-10.4443Q9.56055-10.6543 9.23828-10.6543Q8.90625-10.6543 8.71094-10.4443Q8.51562-10.2344 8.51562-9.90234L8.51562-7.79297L6.40625-7.79297Q6.06445-7.79297 5.85938-7.58789Q5.6543-7.38281 5.6543-7.05078Z"/>
  </g>
  <g transform="matrix(1 0 0 1 281.867 1933)">
   <path d="M11.709 2.91016Q13.75 2.91016 15.5518 2.12891Q17.3535 1.34766 18.7305-0.0292969Q20.1074-1.40625 20.8887-3.20801Q21.6699-5.00977 21.6699-7.05078Q21.6699-9.0918 20.8887-10.8936Q20.1074-12.6953 18.7305-14.0723Q17.3535-15.4492 15.5469-16.2305Q13.7402-17.0117 11.6992-17.0117Q9.6582-17.0117 7.85645-16.2305Q6.05469-15.4492 4.68262-14.0723Q3.31055-12.6953 2.5293-10.8936Q1.74805-9.0918 1.74805-7.05078Q1.74805-5.00977 2.5293-3.20801Q3.31055-1.40625 4.6875-0.0292969Q6.06445 1.34766 7.86621 2.12891Q9.66797 2.91016 11.709 2.91016ZM11.709 1.25Q9.98047 1.25 8.47656 0.605469Q6.97266-0.0390625 5.83496-1.17676Q4.69727-2.31445 4.05762-3.81836Q3.41797-5.32227 3.41797-7.05078Q3.41797-8.7793 4.05762-10.2832Q4.69727-11.7871 5.83008-12.9297Q6.96289-14.0723 8.4668-14.7119Q9.9707-15.3516 11.6992-15.3516Q13.4277-15.3516 14.9316-14.7119Q16.4355-14.0723 17.5781-12.9297Q18.7207-11.7871 19.3652-10.2832Q20.0098-8.7793 20.0098-7.05078Q20.0098-5.32227 19.3701-3.81836Q18.7305-2.31445 17.5928-1.17676Q16.4551-0.0390625 14.9463 0.605469Q13.4375 1.25 11.709 1.25ZM7.17773-7.05078Q7.17773-6.69922 7.41211-6.47461Q7.64648-6.25 8.01758-6.25L10.8887-6.25L10.8887-3.36914Q10.8887-2.99805 11.1133-2.76855Q11.3379-2.53906 11.6895-2.53906Q12.0605-2.53906 12.29-2.76855Q12.5195-2.99805 12.5195-3.36914L12.5195-6.25L15.4004-6.25Q15.7715-6.25 16.001-6.47461Q16.2305-6.69922 16.2305-7.05078Q16.2305-7.42188 16.001-7.65137Q15.7715-7.88086 15.4004-7.88086L12.5195-7.88086L12.5195-10.752Q12.5195-11.1328 12.29-11.3623Q12.0605-11.5918 11.6895-11.5918Q11.3379-11.5918 11.1133-11.3574Q10.8887-11.123 10.8887-10.752L10.8887-7.88086L8.01758-7.88086Q7.63672-7.88086 7.40723-7.65137Q7.17773-7.42188 7.17773-7.05078Z"/>
  </g>
  <g transform="matrix(1 0 0 1 305.646 1933)">
   <path d="M14.9707 5.66406Q17.0605 5.66406 18.96 5.01465Q20.8594 4.36523 22.4512 3.19336Q24.043 2.02148 25.2197 0.429688Q26.3965-1.16211 27.0459-3.06641Q27.6953-4.9707 27.6953-7.05078Q27.6953-9.14062 27.0459-11.04Q26.3965-12.9395 25.2197-14.5312Q24.043-16.123 22.4512-17.2998Q20.8594-18.4766 18.9551-19.126Q17.0508-19.7754 14.9609-19.7754Q12.8711-19.7754 10.9717-19.126Q9.07227-18.4766 7.48535-17.2998Q5.89844-16.123 4.72168-14.5312Q3.54492-12.9395 2.90039-11.04Q2.25586-9.14062 2.25586-7.05078Q2.25586-4.9707 2.90527-3.06641Q3.55469-1.16211 4.72656 0.429688Q5.89844 2.02148 7.49023 3.19336Q9.08203 4.36523 10.9814 5.01465Q12.8809 5.66406 14.9707 5.66406ZM14.9707 3.84766Q13.1641 3.84766 11.5283 3.2959Q9.89258 2.74414 8.53516 1.74805Q7.17773 0.751953 6.17676-0.610352Q5.17578-1.97266 4.62891-3.6084Q4.08203-5.24414 4.08203-7.05078Q4.08203-8.86719 4.62891-10.5029Q5.17578-12.1387 6.17188-13.501Q7.16797-14.8633 8.52539-15.8594Q9.88281-16.8555 11.5186-17.4023Q13.1543-17.9492 14.9609-17.9492Q16.7773-17.9492 18.4131-17.4023Q20.0488-16.8555 21.4111-15.8594Q22.7734-14.8633 23.7695-13.501Q24.7656-12.1387 25.3174-10.5029Q25.8691-8.86719 25.8691-7.05078Q25.8789-5.24414 25.332-3.6084Q24.7852-1.97266 23.7842-0.610352Q22.7832 0.751953 21.4209 1.74805Q20.0586 2.74414 18.4229 3.2959Q16.7871 3.84766 14.9707 3.84766ZM9.19922-7.05078Q9.19922-6.66992 9.45801-6.4209Q9.7168-6.17188 10.1172-6.17188L14.0625-6.17188L14.0625-2.2168Q14.0625-1.81641 14.3115-1.55762Q14.5605-1.29883 14.9512-1.29883Q15.3516-1.29883 15.6104-1.55273Q15.8691-1.80664 15.8691-2.2168L15.8691-6.17188L19.8242-6.17188Q20.2246-6.17188 20.4785-6.4209Q20.7324-6.66992 20.7324-7.05078Q20.7324-7.46094 20.4785-7.71484Q20.2246-7.96875 19.8242-7.96875L15.8691-7.96875L15.8691-11.9141Q15.8691-12.3242 15.6104-12.583Q15.3516-12.8418 14.9512-12.8418Q14.5605-12.8418 14.3115-12.583Q14.0625-12.3242 14.0625-11.9141L14.0625-7.96875L10.1172-7.96875Q9.70703-7.96875 9.45312-7.71484Q9.19922-7.46094 9.19922-7.05078Z"/>
  </g>
  <text style="stroke:none;fill:black;font-family:sans-serif;font-size:13;font-weight:bold;" transform="matrix(1 0 0 1 263 1953)">Design Variations</text>
  <text style="stroke:none;fill:black;font-family:sans-serif;font-size:13;" transform="matrix(1 0 0 1 263 1971)">Symbols are supported in up to nine weights and three scales.</text>
  <text style="stroke:none;fill:black;font-family:sans-serif;font-size:13;" transform="matrix(1 0 0 1 263 1989)">For optimal layout with text and other symbols, vertically align</text>
  <text style="stroke:none;fill:black;font-family:sans-serif;font-size:13;" transform="matrix(1 0 0 1 263 2007)">symbols with the adjacent text.</text>
  <line style="fill:none;stroke:#00AEEF;stroke-width:0.5;opacity:1.0;" x1="776" x2="776" y1="1919" y2="1933"/>
  <g transform="matrix(1 0 0 1 776 1933)">
   <path d="M3.31055 0.15625Q3.70117 0.15625 3.91602-0.00976562Q4.13086-0.175781 4.26758-0.585938L5.52734-4.0332L11.2891-4.0332L12.5488-0.585938Q12.6855-0.175781 12.9004-0.00976562Q13.1152 0.15625 13.4961 0.15625Q13.8867 0.15625 14.1162-0.0585938Q14.3457-0.273438 14.3457-0.644531Q14.3457-0.869141 14.2383-1.17188L9.6582-13.3691Q9.48242-13.8184 9.17969-14.043Q8.87695-14.2676 8.4082-14.2676Q7.5-14.2676 7.17773-13.3789L2.59766-1.16211Q2.49023-0.859375 2.49023-0.634766Q2.49023-0.263672 2.70996-0.0537109Q2.92969 0.15625 3.31055 0.15625ZM6.00586-5.51758L8.37891-12.0898L8.42773-12.0898L10.8008-5.51758Z"/>
  </g>
  <line style="fill:none;stroke:#00AEEF;stroke-width:0.5;opacity:1.0;" x1="793.197" x2="793.197" y1="1919" y2="1933"/>
  <text style="stroke:none;fill:black;font-family:sans-serif;font-size:13;font-weight:bold;" transform="matrix(1 0 0 1 776 1953)">Margins</text>
  <text style="stroke:none;fill:black;font-family:sans-serif;font-size:13;" transform="matrix(1 0 0 1 776 1971)">Leading and trailing margins on the left and right side of each symbol</text>
  <text style="stroke:none;fill:black;font-family:sans-serif;font-size:13;" transform="matrix(1 0 0 1 776 1989)">can be adjusted by modifying the x-location of the margin guidelines.</text>
  <text style="stroke:none;fill:black;font-family:sans-serif;font-size:13;" transform="matrix(1 0 0 1 776 2007)">Modifications are automatically applied proportionally to all</text>
  <text style="stroke:none;fill:black;font-family:sans-serif;font-size:13;" transform="matrix(1 0 0 1 776 2025)">scales and weights.</text>
  <g transform="matrix(1 0 0 1 1289 1933)">
   <path d="M2.8418 1.86523L4.54102 3.57422Q5.18555 4.22852 5.90332 4.17969Q6.62109 4.13086 7.31445 3.35938L18.0078-8.42773L17.041-9.4043L6.42578 2.27539Q6.16211 2.57812 5.89355 2.61719Q5.625 2.65625 5.27344 2.30469L4.10156 1.14258Q3.75 0.791016 3.79395 0.522461Q3.83789 0.253906 4.14062-0.0195312L15.6152-10.8203L14.6387-11.7871L3.04688-0.898438Q2.30469-0.214844 2.25098 0.498047Q2.19727 1.21094 2.8418 1.86523ZM9.25781-16.3281Q8.94531-16.0254 8.90625-15.6348Q8.86719-15.2441 9.04297-14.9512Q9.21875-14.6777 9.55566-14.541Q9.89258-14.4043 10.3809-14.5215Q11.4746-14.7754 12.5977-14.7314Q13.7207-14.6875 14.7949-13.9844L14.209-12.5293Q13.9551-11.9043 14.0674-11.4404Q14.1797-10.9766 14.5801-10.5664L16.875-8.25195Q17.2363-7.88086 17.5781-7.82227Q17.9199-7.76367 18.3398-7.8418L19.4043-8.03711L20.0684-7.36328L20.0293-6.80664Q20-6.43555 20.1221-6.12305Q20.2441-5.81055 20.6055-5.44922L21.3672-4.70703Q21.7285-4.3457 22.1533-4.33105Q22.5781-4.31641 22.9297-4.66797L25.8398-7.58789Q26.1914-7.93945 26.1816-8.35449Q26.1719-8.76953 25.8105-9.13086L25.0391-9.89258Q24.6875-10.2539 24.3799-10.3857Q24.0723-10.5176 23.7109-10.4883L23.1348-10.4395L22.4902-11.0742L22.7344-12.1973Q22.832-12.6172 22.6953-12.9834Q22.5586-13.3496 22.1191-13.7891L19.9219-15.9766Q18.6719-17.2168 17.2607-17.8369Q15.8496-18.457 14.4189-18.4814Q12.9883-18.5059 11.665-17.959Q10.3418-17.4121 9.25781-16.3281ZM10.752-15.957Q11.6602-16.6211 12.7002-16.9043Q13.7402-17.1875 14.8047-17.085Q15.8691-16.9824 16.8701-16.5137Q17.8711-16.0449 18.7012-15.2051L21.1328-12.793Q21.3086-12.6172 21.3525-12.4512Q21.3965-12.2852 21.3379-12.0312L21.0156-10.5469L22.5195-9.0625L23.5059-9.12109Q23.6914-9.13086 23.7891-9.09668Q23.8867-9.0625 24.0332-8.91602L24.6094-8.33984L22.168-5.89844L21.5918-6.47461Q21.4453-6.62109 21.4062-6.71875Q21.3672-6.81641 21.377-7.01172L21.4453-7.98828L19.9512-9.47266L18.4277-9.21875Q18.1836-9.16992 18.042-9.2041Q17.9004-9.23828 17.7148-9.41406L15.7129-11.416Q15.5176-11.5918 15.4932-11.7529Q15.4688-11.9141 15.5859-12.1875L16.4648-14.2773Q15.293-15.3711 13.8281-15.791Q12.3633-16.2109 10.8398-15.7617Q10.7227-15.7324 10.6885-15.8057Q10.6543-15.8789 10.752-15.957Z"/>
  </g>
  <text style="stroke:none;fill:black;font-family:sans-serif;font-size:13;font-weight:bold;" transform="matrix(1 0 0 1 1289 1953)">Exporting</text>
  <text style="stroke:none;fill:black;font-family:sans-serif;font-size:13;" transform="matrix(1 0 0 1 1289 1971)">Symbols should be outlined when exporting to ensure the</text>
  <text style="stroke:none;fill:black;font-family:sans-serif;font-size:13;" transform="matrix(1 0 0 1 1289 1989)">design is preserved when submitting to Xcode.</text>
  <text id="template-version" style="stroke:none;fill:black;font-family:sans-serif;font-size:13;text-anchor:end;" transform="matrix(1 0 0 1 3036 1933)">Template v.3.0</text>
  <text style="stroke:none;fill:black;font-family:sans-serif;font-size:13;text-anchor:end;" transform="matrix(1 0 0 1 3036 1951)">Requires Xcode 13 or greater</text>
  <text id="descriptive-name" style="stroke:none;fill:black;font-family:sans-serif;font-size:13;text-anchor:end;" transform="matrix(1 0 0 1 3036 1969)">Generated from fast-forward</text>
  <text style="stroke:none;fill:black;font-family:sans-serif;font-size:13;text-anchor:end;" transform="matrix(1 0 0 1 3036 1987)">Typeset at 100 points</text>
  <text style="stroke:none;fill:black;font-family:sans-serif;font-size:13;" transform="matrix(1 0 0 1 263 726)">Small</text>
  <text style="stroke:none;fill:black;font-family:sans-serif;font-size:13;" transform="matrix(1 0 0 1 263 1156)">Medium</text>
  <text style="stroke:none;fill:black;font-family:sans-serif;font-size:13;" transform="matrix(1 0 0 1 263 1586)">Large</text>
 </g>
 <g id="Guides">
  <g id="H-reference" style="fill:#27AAE1;stroke:none;" transform="matrix(1 0 0 1 339 696)">
   <path d="M0.976562 0L3.66211 0L29.3457-67.1387L30.0293-67.1387L30.0293-70.459L28.125-70.459ZM11.6699-24.4629L46.9727-24.4629L46.2402-26.709L12.4512-26.709ZM55.127 0L57.7637 0L30.6152-70.459L29.4434-70.459L29.4434-67.1387Z"/>
  </g>
  <line id="Baseline-S" style="fill:none;stroke:#27AAE1;opacity:1;stroke-width:0.5;" x1="263" x2="3036" y1="696" y2="696"/>
  <line id="Capline-S" style="fill:none;stroke:#27AAE1;opacity:1;stroke-width:0.5;" x1="263" x2="3036" y1="625.541" y2="625.541"/>
  <g id="H-reference" style="fill:#27AAE1;stroke:none;" transform="matrix(1 0 0 1 339 1126)">
   <path d="M0.976562 0L3.66211 0L29.3457-67.1387L30.0293-67.1387L30.0293-70.459L28.125-70.459ZM11.6699-24.4629L46.9727-24.4629L46.2402-26.709L12.4512-26.709ZM55.127 0L57.7637 0L30.6152-70.459L29.4434-70.459L29.4434-67.1387Z"/>
  </g>
  <line id="Baseline-M" style="fill:none;stroke:#27AAE1;opacity:1;stroke-width:0.5;" x1="263" x2="3036" y1="1126" y2="1126"/>
  <line id="Capline-M" style="fill:none;stroke:#27AAE1;opacity:1;stroke-width:0.5;" x1="263" x2="3036" y1="1055.54" y2="1055.54"/>
  <g id="H-reference" style="fill:#27AAE1;stroke:none;" transform="matrix(1 0 0 1 339 1556)">
   <path d="M0.976562 0L3.66211 0L29.3457-67.1387L30.0293-67.1387L30.0293-70.459L28.125-70.459ZM11.6699-24.4629L46.9727-24.4629L46.2402-26.709L12.4512-26.709ZM55.127 0L57.7637 0L30.6152-70.459L29.4434-70.459L29.4434-67.1387Z"/>
  </g>
  <line id="Baseline-L" style="fill:none;stroke:#27AAE1;opacity:1;stroke-width:0.5;" x1="263" x2="3036" y1="1556" y2="1556"/>
  <line id="Capline-L" style="fill:none;stroke:#27AAE1;opacity:1;stroke-width:0.5;" x1="263" x2="3036" y1="1485.54" y2="1485.54"/>
  <line id="left-margin-Regular-M" style="fill:none;stroke:#00AEEF;stroke-width:0.5;opacity:1.0;" x1="1392.45" x2="1392.45" y1="1030.78" y2="1150.12"/>
  <line id="right-margin-Regular-M" style="fill:none;stroke:#00AEEF;stroke-width:0.5;opacity:1.0;" x1="1507.24" x2="1507.24" y1="1030.78" y2="1150.12"/>
 </g>
 <g id="Symbols">
  <g id="Black-L" transform="matrix(1 0 0 1 2860.16 1556)">
   <path class="hierarchical-0:secondary SFSymbolsPreview4D4D4D" d="M13.41-82.3574C15.84-83.5474 18.74-83.2474 20.88-81.5874L72.07-41.7774C73.8-40.4274 74.81-38.3574 74.81-36.1674C74.81-33.9774 73.8-31.9074 72.07-30.5674L20.88 9.2426C18.74 10.9126 15.84 11.2126 13.41 10.0226C10.97 8.8326 9.43 6.3526 9.43 3.6426L9.43-75.9774C9.43-78.6974 10.97-81.1674 13.41-82.3574ZM23.63-61.4674L23.63-10.8774L56.15-36.1674L23.63-61.4674Z"/>
   <path class="hierarchical-1:primary SFSymbolsPreview212121" d="M75.97-82.3574C78.4-83.5474 81.31-83.2474 83.45-81.5874L134.63-41.7774C136.36-40.4274 137.38-38.3574 137.38-36.1674C137.38-33.9774 136.36-31.9074 134.63-30.5674L83.45 9.2426C81.31 10.9126 78.4 11.2126 75.97 10.0226C73.53 8.8326 71.99 6.3526 71.99 3.6426L71.99-75.9774C71.99-78.6974 73.53-81.1674 75.97-82.3574ZM86.19-61.4674L86.19-10.8774L118.71-36.1674L86.19-61.4674Z"/>
  </g>
  <g id="Heavy-L" transform="matrix(1 0 0 1 2564.29 1556)">
   <path class="hierarchical-0:secondary SFSymbolsPreview4D4D4D" d="M12.94-81.4904C15.08-82.5404 17.64-82.2704 19.52-80.8104L70.71-40.9904C72.23-39.8104 73.12-37.9904 73.12-36.0604C73.12-34.1304 72.23-32.3104 70.71-31.1304L19.52 8.6897C17.64 10.1496 15.08 10.4196 12.94 9.3697C10.79 8.3197 9.43 6.1397 9.43 3.7497L9.43-75.8704C9.43-78.2604 10.79-80.4404 12.94-81.4904ZM21.93-63.0904L21.93-9.0303L56.69-36.0604L21.93-63.0904Z"/>
   <path class="hierarchical-1:primary SFSymbolsPreview212121" d="M75.5-81.4904C77.64-82.5404 80.2-82.2704 82.08-80.8104L133.27-40.9904C134.79-39.8104 135.68-37.9904 135.68-36.0604C135.68-34.1304 134.79-32.3104 133.27-31.1304L82.08 8.6897C80.2 10.1496 77.64 10.4196 75.5 9.3697C73.35 8.3197 71.99 6.1397 71.99 3.7497L71.99-75.8704C71.99-78.2604 73.35-80.4404 75.5-81.4904ZM84.49-63.0904L84.49-9.0303L119.25-36.0604L84.49-63.0904Z"/>
  </g>
  <g id="Bold-L" transform="matrix(1 0 0 1 2268.53 1556)">
   <path class="hierarchical-0:secondary SFSymbolsPreview4D4D4D" d="M12.4-80.4978C14.22-81.3878 16.38-81.1678 17.98-79.9278L69.17-40.1078C70.46-39.1078 71.22-37.5678 71.22-35.9278C71.22-34.2978 70.46-32.7478 69.17-31.7478L17.98 8.0623C16.38 9.3123 14.22 9.5323 12.4 8.6423C10.58 7.7523 9.43 5.9123 9.43 3.8823L9.43-75.7378C9.43-77.7678 10.58-79.6178 12.4-80.4978ZM20.03-64.9078L20.03-6.9577L57.28-35.9278L20.03-64.9078Z"/>
   <path class="hierarchical-1:primary SFSymbolsPreview212121" d="M74.96-80.4978C76.78-81.3878 78.95-81.1678 80.55-79.9278L131.73-40.1078C133.02-39.1078 133.78-37.5678 133.78-35.9278C133.78-34.2978 133.02-32.7478 131.73-31.7478L80.55 8.0623C78.95 9.3123 76.78 9.5323 74.96 8.6423C73.14 7.7523 71.99 5.9123 71.99 3.8823L71.99-75.7378C71.99-77.7678 73.14-79.6178 74.96-80.4978ZM82.59-64.9078L82.59-6.9577L119.85-35.9278L82.59-64.9078Z"/>
  </g>
  <g id="Semibold-L" transform="matrix(1 0 0 1 1972.47 1556)">
   <path class="hierarchical-0:secondary SFSymbolsPreview4D4D4D" d="M12.04-79.8372C13.64-80.6172 15.54-80.4172 16.94-79.3272L68.13-39.5172C69.26-38.6372 69.92-37.2772 69.92-35.8472C69.92-34.4072 69.26-33.0572 68.13-32.1772L16.94 7.6329C15.54 8.7229 13.64 8.9229 12.04 8.1429C10.45 7.3629 9.43 5.7429 9.43 3.9629L9.43-75.6572C9.43-77.4372 10.45-79.0572 12.04-79.8372ZM18.73-66.1472L18.73-5.5371L57.7-35.8472L18.73-66.1472Z"/>
   <path class="hierarchical-1:primary SFSymbolsPreview212121" d="M74.6-79.8372C76.2-80.6172 78.1-80.4172 79.5-79.3272L130.69-39.5172C131.82-38.6372 132.48-37.2772 132.48-35.8472C132.48-34.4072 131.82-33.0572 130.69-32.1772L79.5 7.6329C78.1 8.7229 76.2 8.9229 74.6 8.1429C73.01 7.3629 72 5.7429 72 3.9629L72-75.6572C72-77.4372 73.01-79.0572 74.6-79.8372ZM81.3-66.1472L81.3-5.5371L120.26-35.8472L81.3-66.1472Z"/>
  </g>
  <g id="Medium-L" transform="matrix(1 0 0 1 1676.26 1556)">
   <path class="hierarchical-0:secondary SFSymbolsPreview4D4D4D" d="M11.76-79.323C13.19-80.023 14.88-79.843 16.13-78.873L67.32-39.053C68.33-38.273 68.92-37.063 68.92-35.783C68.92-34.503 68.33-33.293 67.32-32.503L16.13 7.30692C14.88 8.27692 13.19 8.45692 11.76 7.75692C10.34 7.06692 9.43 5.61692 9.43 4.02692L9.43-75.593C9.43-77.183 10.34-78.623 11.76-79.323ZM17.73-67.113L17.73-4.45308L58.01-35.783L17.73-67.113Z"/>
   <path class="hierarchical-1:primary SFSymbolsPreview212121" d="M74.32-79.323C75.75-80.023 77.44-79.843 78.69-78.873L129.88-39.053C130.89-38.273 131.48-37.063 131.48-35.783C131.48-34.503 130.89-33.293 129.88-32.503L78.69 7.30692C77.44 8.27692 75.75 8.45692 74.32 7.75692C72.9 7.06692 72 5.61692 72 4.02692L72-75.593C72-77.183 72.9-78.623 74.32-79.323ZM80.3-67.113L80.3-4.45308L120.57-35.783L80.3-67.113Z"/>
  </g>
  <g id="Regular-L" transform="matrix(1 0 0 1 1380.19 1556)">
   <path class="hierarchical-0:secondary SFSymbolsPreview4D4D4D" d="M11.4-78.6438C12.6-79.2238 14.03-79.0838 15.08-78.2638L66.27-38.4438C67.12-37.7838 67.62-36.7638 67.62-35.6838C67.62-34.6038 67.12-33.5838 66.27-32.9238L15.08 6.88616C14.03 7.71616 12.6 7.85616 11.4 7.27616C10.2 6.68616 9.43 5.46616 9.43 4.12616L9.43-75.4938C9.43-76.8338 10.2-78.0538 11.4-78.6438ZM16.43-68.3438L16.43-3.02384L58.42-35.6838L16.43-68.3438Z"/>
   <path class="hierarchical-1:primary SFSymbolsPreview212121" d="M73.96-78.6438C75.16-79.2238 76.59-79.0838 77.65-78.2638L128.83-38.4438C129.69-37.7838 130.19-36.7638 130.19-35.6838C130.19-34.6038 129.69-33.5838 128.83-32.9238L77.65 6.88616C76.59 7.71616 75.16 7.85616 73.96 7.27616C72.76 6.68616 72 5.46616 72 4.12616L72-75.4938C72-76.8338 72.76-78.0538 73.96-78.6438ZM79-68.3438L79-3.02384L120.98-35.6838L79-68.3438Z"/>
  </g>
  <g id="Light-L" transform="matrix(1 0 0 1 1084.29 1556)">
   <path class="hierarchical-0:secondary SFSymbolsPreview4D4D4D" d="M10.94-77.8236C11.87-78.2736 12.97-78.1636 13.78-77.5236L64.97-37.7136C65.63-37.2036 66.01-36.4136 66.01-35.5836C66.01-34.7536 65.63-33.9636 64.97-33.4536L13.78 6.35636C12.97 6.99636 11.87 7.10636 10.94 6.65636C10.01 6.20636 9.43 5.25636 9.43 4.22636L9.43-75.3936C9.43-76.4236 10.01-77.3636 10.94-77.8236ZM14.83-69.8736L14.83-1.29364L58.92-35.5836L14.83-69.8736Z"/>
   <path class="hierarchical-1:primary SFSymbolsPreview212121" d="M73.5-77.8236C74.43-78.2736 75.53-78.1636 76.35-77.5236L127.53-37.7136C128.19-37.2036 128.58-36.4136 128.58-35.5836C128.58-34.7536 128.19-33.9636 127.53-33.4536L76.35 6.35636C75.53 6.99636 74.43 7.10636 73.5 6.65636C72.58 6.20636 71.99 5.25636 71.99 4.22636L71.99-75.3936C71.99-76.4236 72.58-77.3636 73.5-77.8236ZM77.39-69.8736L77.39-1.29364L121.48-35.5836L77.39-69.8736Z"/>
  </g>
  <g id="Thin-L" transform="matrix(1 0 0 1 788.627 1556)">
   <path class="hierarchical-0:secondary SFSymbolsPreview4D4D4D" d="M10.355-76.74C10.921-77.02 11.595-76.95 12.093-76.56L63.28-36.75C63.682-36.44 63.917-35.96 63.917-35.45C63.917-34.94 63.682-34.46 63.28-34.15L12.093 5.66994C11.595 6.04994 10.921 6.11994 10.355 5.84994C9.789 5.56994 9.43 4.98994 9.43 4.35994L9.43-75.26C9.43-75.89 9.789-76.47 10.355-76.74ZM12.73-71.89L12.73 0.989941L59.58-35.45L12.73-71.89Z"/>
   <path class="hierarchical-1:primary SFSymbolsPreview212121" d="M72.917-76.74C73.483-77.02 74.158-76.95 74.655-76.56L125.843-36.75C126.245-36.44 126.48-35.96 126.48-35.45C126.48-34.94 126.245-34.46 125.843-34.15L74.655 5.66994C74.158 6.04994 73.483 6.11994 72.917 5.84994C72.351 5.56994 71.992 4.98994 71.992 4.35994L71.992-75.26C71.992-75.89 72.351-76.47 72.917-76.74ZM75.292-71.89L75.292 0.989941L122.142-35.45L75.292-71.89Z"/>
  </g>
  <g id="Ultralight-L" transform="matrix(1 0 0 1 492.466 1556)">
   <path class="hierarchical-0:secondary SFSymbolsPreview4D4D4D" d="M10.047-76.1806C10.425-76.3706 10.874-76.3206 11.206-76.0606L62.393-36.2506C62.661-36.0406 62.818-35.7206 62.818-35.3806C62.818-35.0406 62.661-34.7206 62.393-34.5106L11.206 5.2995C10.874 5.5595 10.425 5.5995 10.047 5.4195C9.67 5.2295 9.43 4.8495 9.43 4.4295L9.43-75.1906C9.43-75.6106 9.67-76.0006 10.047-76.1806ZM11.63-72.9506L11.63 2.1795L59.926-35.3806L11.63-72.9506Z"/>
   <path class="hierarchical-1:primary SFSymbolsPreview212121" d="M72.61-76.1806C72.987-76.3706 73.437-76.3206 73.768-76.0606L124.956-36.2506C125.224-36.0406 125.38-35.7206 125.38-35.3806C125.38-35.0406 125.224-34.7206 124.956-34.5106L73.768 5.2995C73.437 5.5595 72.987 5.5995 72.61 5.4195C72.232 5.2295 71.993 4.8495 71.993 4.4295L71.993-75.1906C71.993-75.6106 72.232-76.0006 72.61-76.1806ZM74.193-72.9506L74.193 2.1795L122.489-35.3806L74.193-72.9506Z"/>
  </g>
  <g id="Black-M" transform="matrix(1 0 0 1 2872.41 1126)">
   <path class="hierarchical-0:secondary SFSymbolsPreview4D4D4D" d="M13.41-73.783C15.85-74.983 18.75-74.683 20.89-73.013L61.05-41.773C62.78-40.433 63.79-38.363 63.79-36.173C63.79-33.983 62.78-31.913 61.05-30.563L20.89 0.667084C18.75 2.33708 15.85 2.63708 13.41 1.44708C10.97 0.257088 9.43-2.22292 9.43-4.93292L9.43-67.413C9.43-70.123 10.97-72.593 13.41-73.783ZM23.63-52.893L23.63-19.453L45.13-36.173L23.63-52.893Z"/>
   <path class="hierarchical-1:primary SFSymbolsPreview212121" d="M62.5-73.783C64.93-74.983 67.84-74.683 69.98-73.013L110.14-41.773C111.87-40.433 112.88-38.363 112.88-36.173C112.88-33.983 111.87-31.913 110.14-30.563L69.98 0.667084C67.84 2.33708 64.93 2.63708 62.5 1.44708C60.06 0.257088 58.52-2.22292 58.52-4.93292L58.52-67.413C58.52-70.123 60.06-72.593 62.5-73.783ZM72.72-52.893L72.72-19.453L94.22-36.173L72.72-52.893Z"/>
  </g>
  <g id="Heavy-M" transform="matrix(1 0 0 1 2576.54 1126)">
   <path class="hierarchical-0:secondary SFSymbolsPreview4D4D4D" d="M12.93-72.9044C15.08-73.9544 17.63-73.6944 19.52-72.2244L59.68-40.9844C61.2-39.8044 62.09-37.9844 62.09-36.0544C62.09-34.1244 61.2-32.3044 59.68-31.1244L19.52 0.115582C17.63 1.58558 15.08 1.84558 12.93 0.795581C10.79-0.254418 9.43-2.43442 9.43-4.81442L9.43-67.2944C9.43-69.6844 10.79-71.8544 12.93-72.9044ZM21.93-54.5144L21.93-17.5944L45.66-36.0544L21.93-54.5144Z"/>
   <path class="hierarchical-1:primary SFSymbolsPreview212121" d="M62.02-72.9044C64.16-73.9544 66.72-73.6944 68.6-72.2244L108.77-40.9844C110.29-39.8044 111.18-37.9844 111.18-36.0544C111.18-34.1244 110.29-32.3044 108.77-31.1244L68.6 0.115582C66.72 1.58558 64.16 1.84558 62.02 0.795581C59.88-0.254418 58.52-2.43442 58.52-4.81442L58.52-67.2944C58.52-69.6844 59.88-71.8544 62.02-72.9044ZM71.02-54.5144L71.02-17.5944L94.75-36.0544L71.02-54.5144Z"/>
  </g>
  <g id="Bold-M" transform="matrix(1 0 0 1 2280.78 1126)">
   <path class="hierarchical-0:secondary SFSymbolsPreview4D4D4D" d="M12.4-71.929C14.22-72.819 16.38-72.599 17.98-71.349L58.15-40.119C59.44-39.109 60.19-37.569 60.19-35.929C60.19-34.299 59.44-32.749 58.15-31.749L17.98-0.509056C16.38 0.730942 14.22 0.960942 12.4 0.0709444C10.58-0.819056 9.43-2.66906 9.43-4.68906L9.43-67.169C9.43-69.189 10.58-71.039 12.4-71.929ZM20.03-56.329L20.03-15.529L46.26-35.929L20.03-56.329Z"/>
   <path class="hierarchical-1:primary SFSymbolsPreview212121" d="M61.49-71.929C63.31-72.819 65.47-72.599 67.07-71.349L107.23-40.119C108.52-39.109 109.28-37.569 109.28-35.929C109.28-34.299 108.52-32.749 107.23-31.749L67.07-0.509056C65.47 0.730942 63.31 0.960942 61.49 0.0709444C59.67-0.819056 58.52-2.66906 58.52-4.68906L58.52-67.169C58.52-69.189 59.67-71.039 61.49-71.929ZM69.12-56.329L69.12-15.529L95.35-35.929L69.12-56.329Z"/>
  </g>
  <g id="Semibold-M" transform="matrix(1 0 0 1 1984.72 1126)">
   <path class="hierarchical-0:secondary SFSymbolsPreview4D4D4D" d="M12.04-71.2498C13.64-72.0298 15.54-71.8398 16.94-70.7498L57.1-39.5098C58.23-38.6298 58.9-37.2698 58.9-35.8398C58.9-34.3998 58.23-33.0498 57.1-32.1698L16.94-0.929872C15.54 0.160128 13.64 0.360128 12.04-0.419872C10.45-1.20987 9.43-2.82988 9.43-4.59988L9.43-67.0798C9.43-68.8498 10.45-70.4698 12.04-71.2498ZM18.73-57.5698L18.73-14.1098L46.67-35.8398L18.73-57.5698Z"/>
   <path class="hierarchical-1:primary SFSymbolsPreview212121" d="M61.13-71.2498C62.72-72.0298 64.63-71.8398 66.03-70.7498L106.19-39.5098C107.32-38.6298 107.98-37.2698 107.98-35.8398C107.98-34.3998 107.32-33.0498 106.19-32.1698L66.03-0.929872C64.63 0.160128 62.72 0.360128 61.13-0.419872C59.53-1.20987 58.52-2.82988 58.52-4.59988L58.52-67.0798C58.52-68.8498 59.53-70.4698 61.13-71.2498ZM67.82-57.5698L67.82-14.1098L95.76-35.8398L67.82-57.5698Z"/>
  </g>
  <g id="Medium-M" transform="matrix(1 0 0 1 1688.51 1126)">
   <path class="hierarchical-0:secondary SFSymbolsPreview4D4D4D" d="M11.76-70.743C13.19-71.433 14.88-71.263 16.13-70.283L56.29-39.053C57.31-38.263 57.9-37.053 57.9-35.773C57.9-34.493 57.31-33.283 56.29-32.493L16.13-1.26302C14.88-0.283021 13.19-0.113022 11.76-0.803022C10.34-1.50302 9.43-2.95302 9.43-4.53302L9.43-67.013C9.43-68.593 10.34-70.043 11.76-70.743ZM17.73-58.523L17.73-13.023L46.99-35.773L17.73-58.523Z"/>
   <path class="hierarchical-1:primary SFSymbolsPreview212121" d="M60.85-70.743C62.27-71.433 63.97-71.263 65.22-70.283L105.38-39.053C106.39-38.263 106.98-37.053 106.98-35.773C106.98-34.493 106.39-33.283 105.38-32.493L65.22-1.26302C63.97-0.283021 62.27-0.113022 60.85-0.803022C59.43-1.50302 58.52-2.95302 58.52-4.53302L58.52-67.013C58.52-68.593 59.43-70.043 60.85-70.743ZM66.82-58.523L66.82-13.023L96.08-35.773L66.82-58.523Z"/>
  </g>
  <g id="Regular-M" transform="matrix(1 0 0 1 1392.45 1126)">
   <path class="hierarchical-0:secondary SFSymbolsPreview4D4D4D" d="M11.39-70.0752C12.59-70.6652 14.02-70.5152 15.07-69.6952L55.24-38.4552C56.09-37.7952 56.59-36.7752 56.59-35.6952C56.59-34.6152 56.09-33.5952 55.24-32.9352L15.07-1.69526C14.02-0.875262 12.59-0.725262 11.39-1.31526C10.19-1.90526 9.43-3.12526 9.43-4.45526L9.43-66.9352C9.43-68.2752 10.19-69.4952 11.39-70.0752ZM16.43-59.7752L16.43-11.6152L47.39-35.6952L16.43-59.7752Z"/>
   <path class="hierarchical-1:primary SFSymbolsPreview212121" d="M60.48-70.0752C61.68-70.6652 63.11-70.5152 64.16-69.6952L104.32-38.4552C105.18-37.7952 105.68-36.7752 105.68-35.6952C105.68-34.6152 105.18-33.5952 104.32-32.9352L64.16-1.69526C63.11-0.875262 61.68-0.725262 60.48-1.31526C59.27-1.90526 58.51-3.12526 58.51-4.45526L58.51-66.9352C58.51-68.2752 59.27-69.4952 60.48-70.0752ZM65.51-59.7752L65.51-11.6152L96.47-35.6952L65.51-59.7752Z"/>
  </g>
  <g id="Light-M" transform="matrix(1 0 0 1 1096.54 1126)">
   <path class="hierarchical-0:secondary SFSymbolsPreview4D4D4D" d="M10.94-69.2536C11.87-69.7136 12.97-69.5936 13.78-68.9636L53.95-37.7236C54.6-37.2136 54.99-36.4236 54.99-35.5936C54.99-34.7636 54.6-33.9736 53.95-33.4636L13.78-2.2237C12.97-1.5937 11.87-1.4737 10.94-1.9337C10.01-2.3837 9.43-3.3237 9.43-4.3537L9.43-66.8336C9.43-67.8636 10.01-68.8036 10.94-69.2536ZM14.83-61.3136L14.83-9.8737L47.89-35.5936L14.83-61.3136Z"/>
   <path class="hierarchical-1:primary SFSymbolsPreview212121" d="M60.03-69.2536C60.95-69.7136 62.06-69.5936 62.87-68.9636L103.03-37.7236C103.69-37.2136 104.07-36.4236 104.07-35.5936C104.07-34.7636 103.69-33.9736 103.03-33.4636L62.87-2.2237C62.06-1.5937 60.95-1.4737 60.03-1.9337C59.1-2.3837 58.51-3.3237 58.51-4.3537L58.51-66.8336C58.51-67.8636 59.1-68.8036 60.03-69.2536ZM63.91-61.3136L63.91-9.8737L96.98-35.5936L63.91-61.3136Z"/>
  </g>
  <g id="Thin-M" transform="matrix(1 0 0 1 800.877 1126)">
   <path class="hierarchical-0:secondary SFSymbolsPreview4D4D4D" d="M10.355-68.17C10.921-68.45 11.595-68.38 12.093-67.99L52.255-36.75C52.657-36.44 52.892-35.96 52.892-35.45C52.892-34.94 52.657-34.46 52.255-34.15L12.093-2.91006C11.595-2.52006 10.921-2.45006 10.355-2.73006C9.789-3.01006 9.43-3.58006 9.43-4.21006L9.43-66.69C9.43-67.32 9.789-67.89 10.355-68.17ZM12.73-63.31L12.73-7.59006L48.555-35.45L12.73-63.31Z"/>
   <path class="hierarchical-1:primary SFSymbolsPreview212121" d="M59.443-68.17C60.009-68.45 60.683-68.38 61.181-67.99L101.343-36.75C101.745-36.44 101.98-35.96 101.98-35.45C101.98-34.94 101.745-34.46 101.343-34.15L61.181-2.91006C60.683-2.52006 60.009-2.45006 59.443-2.73006C58.876-3.01006 58.517-3.58006 58.517-4.21006L58.517-66.69C58.517-67.32 58.876-67.89 59.443-68.17ZM61.817-63.31L61.817-7.59006L97.642-35.45L61.817-63.31Z"/>
  </g>
  <g id="Ultralight-M" transform="matrix(1 0 0 1 504.716 1126)">
   <path class="hierarchical-0:secondary SFSymbolsPreview4D4D4D" d="M10.047-67.6006C10.425-67.7906 10.874-67.7406 11.206-67.4806L51.368-36.2506C51.636-36.0406 51.793-35.7206 51.793-35.3806C51.793-35.0406 51.636-34.7206 51.368-34.5106L11.206-3.2705C10.874-3.0205 10.425-2.9705 10.047-3.1505C9.67-3.3405 9.43-3.7205 9.43-4.1405L9.43-66.6206C9.43-67.0406 9.67-67.4206 10.047-67.6006ZM11.63-64.3706L11.63-6.3905L48.901-35.3806L11.63-64.3706Z"/>
   <path class="hierarchical-1:primary SFSymbolsPreview212121" d="M59.135-67.6006C59.512-67.7906 59.962-67.7406 60.294-67.4806L100.456-36.2506C100.724-36.0406 100.881-35.7206 100.881-35.3806C100.881-35.0406 100.724-34.7206 100.456-34.5106L60.294-3.2705C59.962-3.0205 59.512-2.9705 59.135-3.1505C58.758-3.3405 58.518-3.7205 58.518-4.1405L58.518-66.6206C58.518-67.0406 58.758-67.4206 59.135-67.6006ZM60.718-64.3706L60.718-6.3905L97.989-35.3806L60.718-64.3706Z"/>
  </g>
  <g id="Black-S" transform="matrix(1 0 0 1 2882.03 696)">
   <path class="hierarchical-0:secondary SFSymbolsPreview4D4D4D" d="M13.41-67.1504C15.85-68.3414 18.75-68.0414 20.89-66.3764L52.39-41.8764C54.12-40.5314 55.13-38.4634 55.13-36.2724C55.13-34.0814 54.12-32.0124 52.39-30.6674L20.89-6.16748C18.75-4.50248 15.85-4.20248 13.41-5.39448C10.98-6.58548 9.43-9.06048 9.43-11.7724L9.43-60.7724C9.43-63.4834 10.98-65.9584 13.41-67.1504ZM23.63-46.2554L23.63-26.2884L36.47-36.2724L23.63-46.2554Z"/>
   <path class="hierarchical-1:primary SFSymbolsPreview212121" d="M51.91-67.1504C54.35-68.3414 57.25-68.0414 59.39-66.3764L90.89-41.8764C92.62-40.5314 93.63-38.4634 93.63-36.2724C93.63-34.0814 92.62-32.0124 90.89-30.6674L59.39-6.16748C57.25-4.50248 54.35-4.20248 51.91-5.39448C49.48-6.58548 47.93-9.06048 47.93-11.7724L47.93-60.7724C47.93-63.4834 49.48-65.9584 51.91-67.1504ZM62.13-46.2554L62.13-26.2884L74.97-36.2724L62.13-46.2554Z"/>
  </g>
  <g id="Heavy-S" transform="matrix(1 0 0 1 2586.17 696)">
   <path class="hierarchical-0:secondary SFSymbolsPreview4D4D4D" d="M12.94-66.2724C15.08-67.3214 17.63-67.0574 19.52-65.5914L51.02-41.0914C52.54-39.9074 53.43-38.0874 53.43-36.1584C53.43-34.2294 52.54-32.4094 51.02-31.2254L19.52-6.72536C17.63-5.25936 15.08-4.99536 12.94-6.04436C10.79-7.09236 9.43-9.27136 9.43-11.6584L9.43-60.6584C9.43-63.0454 10.79-65.2244 12.94-66.2724ZM21.93-47.8794L21.93-24.4374L37-36.1584L21.93-47.8794Z"/>
   <path class="hierarchical-1:primary SFSymbolsPreview212121" d="M51.44-66.2724C53.58-67.3214 56.13-67.0574 58.02-65.5914L89.52-41.0914C91.04-39.9074 91.93-38.0874 91.93-36.1584C91.93-34.2294 91.04-32.4094 89.52-31.2254L58.02-6.72536C56.13-5.25936 53.58-4.99536 51.44-6.04436C49.29-7.09236 47.93-9.27136 47.93-11.6584L47.93-60.6584C47.93-63.0454 49.29-65.2244 51.44-66.2724ZM60.43-47.8794L60.43-24.4374L75.5-36.1584L60.43-47.8794Z"/>
  </g>
  <g id="Bold-S" transform="matrix(1 0 0 1 2290.41 696)">
   <path class="hierarchical-0:secondary SFSymbolsPreview4D4D4D" d="M12.41-65.0876C14.22-65.9766 16.39-65.7526 17.99-64.5096L49.49-40.0096C50.78-39.0056 51.53-37.4616 51.53-35.8266C51.53-34.1906 50.78-32.6466 49.49-31.6426L17.99-7.14258C16.39-5.89958 14.22-5.67558 12.41-6.56558C10.59-7.45458 9.43-9.30158 9.43-11.3266L9.43-60.3266C9.43-62.3506 10.59-64.1976 12.41-65.0876ZM20.03-49.4896L20.03-22.1626L37.6-35.8266L20.03-49.4896Z"/>
   <path class="hierarchical-1:primary SFSymbolsPreview212121" d="M50.91-65.0876C52.72-65.9766 54.89-65.7526 56.49-64.5096L87.99-40.0096C89.28-39.0056 90.03-37.4616 90.03-35.8266C90.03-34.1906 89.28-32.6466 87.99-31.6426L56.49-7.14258C54.89-5.89958 52.72-5.67558 50.91-6.56558C49.09-7.45458 47.93-9.30158 47.93-11.3266L47.93-60.3266C47.93-62.3506 49.09-64.1976 50.91-65.0876ZM58.53-49.4896L58.53-22.1626L76.1-35.8266L58.53-49.4896Z"/>
  </g>
  <g id="Semibold-S" transform="matrix(1 0 0 1 1994.35 696)">
   <path class="hierarchical-0:secondary SFSymbolsPreview4D4D4D" d="M12.04-64.416C13.63-65.196 15.53-64.999 16.93-63.909L48.43-39.409C49.57-38.528 50.23-37.173 50.23-35.738C50.23-34.303 49.57-32.949 48.43-32.068L16.93-7.56794C15.53-6.47794 13.63-6.28094 12.04-7.06094C10.44-7.84194 9.43-9.46194 9.43-11.238L9.43-60.238C9.43-62.014 10.44-63.635 12.04-64.416ZM18.73-50.731L18.73-20.746L38.01-35.738L18.73-50.731Z"/>
   <path class="hierarchical-1:primary SFSymbolsPreview212121" d="M50.54-64.416C52.13-65.196 54.03-64.999 55.43-63.909L86.93-39.409C88.07-38.528 88.73-37.173 88.73-35.738C88.73-34.303 88.07-32.949 86.93-32.068L55.43-7.56794C54.03-6.47794 52.13-6.28094 50.54-7.06094C48.94-7.84194 47.93-9.46194 47.93-11.238L47.93-60.238C47.93-62.014 48.94-63.635 50.54-64.416ZM57.23-50.731L57.23-20.746L76.51-35.738L57.23-50.731Z"/>
  </g>
  <g id="Medium-S" transform="matrix(1 0 0 1 1698.14 696)">
   <path class="hierarchical-0:secondary SFSymbolsPreview4D4D4D" d="M11.76-63.9004C13.18-64.5974 14.88-64.4214 16.13-63.4484L47.63-38.9484C48.64-38.1624 49.23-36.9534 49.23-35.6724C49.23-34.3924 48.64-33.1834 47.63-32.3974L16.13-7.89734C14.88-6.92334 13.18-6.74834 11.76-7.44434C10.33-8.14134 9.43-9.58734 9.43-11.1724L9.43-60.1724C9.43-61.7574 10.33-63.2044 11.76-63.9004ZM17.73-51.6874L17.73-19.6584L38.32-35.6724L17.73-51.6874Z"/>
   <path class="hierarchical-1:primary SFSymbolsPreview212121" d="M50.26-63.9004C51.68-64.5974 53.38-64.4214 54.63-63.4484L86.13-38.9484C87.14-38.1624 87.73-36.9534 87.73-35.6724C87.73-34.3924 87.14-33.1834 86.13-32.3974L54.63-7.89734C53.38-6.92334 51.68-6.74834 50.26-7.44434C48.83-8.14134 47.93-9.58734 47.93-11.1724L47.93-60.1724C47.93-61.7574 48.83-63.2044 50.26-63.9004ZM56.23-51.6874L56.23-19.6584L76.82-35.6724L56.23-51.6874Z"/>
  </g>
  <g id="Regular-S" transform="matrix(1 0 0 1 1402.07 696)">
   <path class="hierarchical-0:secondary SFSymbolsPreview4D4D4D" d="M11.39-63.2316C12.59-63.8186 14.02-63.6706 15.08-62.8506L46.58-38.3506C47.43-37.6876 47.93-36.6676 47.93-35.5876C47.93-34.5076 47.43-33.4876 46.58-32.8246L15.08-8.32456C14.02-7.50456 12.59-7.35656 11.39-7.94356C10.19-8.53056 9.43-9.75056 9.43-11.0876L9.43-60.0876C9.43-61.4246 10.19-62.6446 11.39-63.2316ZM16.43-52.9316L16.43-18.2436L38.73-35.5876L16.43-52.9316Z"/>
   <path class="hierarchical-1:primary SFSymbolsPreview212121" d="M49.89-63.2316C51.09-63.8186 52.52-63.6706 53.58-62.8506L85.08-38.3506C85.93-37.6876 86.43-36.6676 86.43-35.5876C86.43-34.5076 85.93-33.4876 85.08-32.8246L53.58-8.32456C52.52-7.50456 51.09-7.35656 49.89-7.94356C48.69-8.53056 47.93-9.75056 47.93-11.0876L47.93-60.0876C47.93-61.4246 48.69-62.6446 49.89-63.2316ZM54.93-52.9316L54.93-18.2436L77.23-35.5876L54.93-52.9316Z"/>
  </g>
  <g id="Light-S" transform="matrix(1 0 0 1 1106.16 696)">
   <path class="hierarchical-0:secondary SFSymbolsPreview4D4D4D" d="M10.94-62.407C11.87-62.86 12.97-62.746 13.79-62.112L45.29-37.612C45.95-37.101 46.33-36.314 46.33-35.481C46.33-34.648 45.95-33.861 45.29-33.35L13.79-8.84998C12.97-8.21698 11.87-8.10298 10.94-8.55598C10.02-9.00898 9.43-9.94998 9.43-10.981L9.43-59.981C9.43-61.012 10.02-61.954 10.94-62.407ZM14.83-54.461L14.83-16.502L39.23-35.481L14.83-54.461Z"/>
   <path class="hierarchical-1:primary SFSymbolsPreview212121" d="M49.44-62.407C50.37-62.86 51.47-62.746 52.29-62.112L83.79-37.612C84.45-37.101 84.83-36.314 84.83-35.481C84.83-34.648 84.45-33.861 83.79-33.35L52.29-8.84998C51.47-8.21698 50.37-8.10298 49.44-8.55598C48.52-9.00898 47.93-9.94998 47.93-10.981L47.93-59.981C47.93-61.012 48.52-61.954 49.44-62.407ZM53.33-54.461L53.33-16.502L77.73-35.481L53.33-54.461Z"/>
  </g>
  <g id="Thin-S" transform="matrix(1 0 0 1 810.502 696)">
   <path class="hierarchical-0:secondary SFSymbolsPreview4D4D4D" d="M10.355-61.3244C10.921-61.6014 11.595-61.5314 12.093-61.1444L43.593-36.6444C43.995-36.3314 44.23-35.8514 44.23-35.3414C44.23-34.8324 43.995-34.3524 43.593-34.0394L12.093-9.5394C11.595-9.1524 10.921-9.0824 10.355-9.3594C9.789-9.6364 9.43-10.2114 9.43-10.8414L9.43-59.8414C9.43-60.4724 9.789-61.0474 10.355-61.3244ZM12.73-56.4684L12.73-14.2154L39.892-35.3414L12.73-56.4684Z"/>
   <path class="hierarchical-1:primary SFSymbolsPreview212121" d="M48.855-61.3244C49.421-61.6014 50.095-61.5314 50.593-61.1444L82.093-36.6444C82.495-36.3314 82.73-35.8514 82.73-35.3414C82.73-34.8324 82.495-34.3524 82.093-34.0394L50.593-9.5394C50.095-9.1524 49.421-9.0824 48.855-9.3594C48.289-9.6364 47.93-10.2114 47.93-10.8414L47.93-59.8414C47.93-60.4724 48.289-61.0474 48.855-61.3244ZM51.23-56.4684L51.23-14.2154L78.392-35.3414L51.23-56.4684Z"/>
  </g>
  <g id="Ultralight-S" transform="matrix(1 0 0 1 514.341 696)">
   <path class="hierarchical-0:secondary SFSymbolsPreview4D4D4D" d="M10.047-60.7598C10.425-60.9438 10.874-60.8978 11.206-60.6398L42.706-36.1398C42.974-35.9308 43.13-35.6108 43.13-35.2718C43.13-34.9318 42.974-34.6118 42.706-34.4028L11.206-9.90284C10.874-9.64484 10.425-9.59884 10.047-9.78284C9.67-9.96784 9.43-10.3508 9.43-10.7718L9.43-59.7718C9.43-60.1918 9.67-60.5748 10.047-60.7598ZM11.63-57.5218L11.63-13.0208L40.239-35.2718L11.63-57.5218Z"/>
   <path class="hierarchical-1:primary SFSymbolsPreview212121" d="M48.547-60.7598C48.925-60.9438 49.374-60.8978 49.706-60.6398L81.206-36.1398C81.474-35.9308 81.63-35.6108 81.63-35.2718C81.63-34.9318 81.474-34.6118 81.206-34.4028L49.706-9.90284C49.374-9.64484 48.925-9.59884 48.547-9.78284C48.17-9.96784 47.93-10.3508 47.93-10.7718L47.93-59.7718C47.93-60.1918 48.17-60.5748 48.547-60.7598ZM50.13-57.5218L50.13-13.0208L78.739-35.2718L50.13-57.5218Z"/>
  </g>
 </g>
</svg>
