<?xml version="1.0" encoding="UTF-8"?>
<!--Generator: Apple Native CoreSVG 175-->
<!DOCTYPE svg
PUBLIC "-//W3C//DTD SVG 1.1//EN"
       "http://www.w3.org/Graphics/SVG/1.1/DTD/svg11.dtd">
<svg version="1.1" xmlns="http://www.w3.org/2000/svg" xmlns:xlink="http://www.w3.org/1999/xlink" width="3300" height="2200">
 <!--glyph: "", point size: 100.0, font version: "17.0d12e1", template writer version: "65.1"-->
 <g id="Notes">
  <rect height="2200" id="artboard" style="fill:white;opacity:1" width="3300" x="0" y="0"/>
  <line style="fill:none;stroke:black;opacity:1;stroke-width:0.5;" x1="263" x2="3036" y1="292" y2="292"/>
  <text style="stroke:none;fill:black;font-family:sans-serif;font-size:13;font-weight:bold;" transform="matrix(1 0 0 1 263 322)">Weight/Scale Variations</text>
  <text style="stroke:none;fill:black;font-family:sans-serif;font-size:13;text-anchor:middle;" transform="matrix(1 0 0 1 559.711 322)">Ultralight</text>
  <text style="stroke:none;fill:black;font-family:sans-serif;font-size:13;text-anchor:middle;" transform="matrix(1 0 0 1 856.422 322)">Thin</text>
  <text style="stroke:none;fill:black;font-family:sans-serif;font-size:13;text-anchor:middle;" transform="matrix(1 0 0 1 1153.13 322)">Light</text>
  <text style="stroke:none;fill:black;font-family:sans-serif;font-size:13;text-anchor:middle;" transform="matrix(1 0 0 1 1449.84 322)">Regular</text>
  <text style="stroke:none;fill:black;font-family:sans-serif;font-size:13;text-anchor:middle;" transform="matrix(1 0 0 1 1746.56 322)">Medium</text>
  <text style="stroke:none;fill:black;font-family:sans-serif;font-size:13;text-anchor:middle;" transform="matrix(1 0 0 1 2043.27 322)">Semibold</text>
  <text style="stroke:none;fill:black;font-family:sans-serif;font-size:13;text-anchor:middle;" transform="matrix(1 0 0 1 2339.98 322)">Bold</text>
  <text style="stroke:none;fill:black;font-family:sans-serif;font-size:13;text-anchor:middle;" transform="matrix(1 0 0 1 2636.69 322)">Heavy</text>
  <text style="stroke:none;fill:black;font-family:sans-serif;font-size:13;text-anchor:middle;" transform="matrix(1 0 0 1 2933.4 322)">Black</text>
  <line style="fill:none;stroke:black;opacity:1;stroke-width:0.5;" x1="263" x2="3036" y1="1903" y2="1903"/>
  <g transform="matrix(1 0 0 1 263 1933)">
   <path d="M9.24805 0.830078Q10.8691 0.830078 12.2949 0.214844Q13.7207-0.400391 14.8096-1.49414Q15.8984-2.58789 16.5186-4.01367Q17.1387-5.43945 17.1387-7.05078Q17.1387-8.66211 16.5186-10.0879Q15.8984-11.5137 14.8047-12.6074Q13.7109-13.7012 12.2852-14.3164Q10.8594-14.9316 9.23828-14.9316Q7.62695-14.9316 6.20117-14.3164Q4.77539-13.7012 3.69141-12.6074Q2.60742-11.5137 1.9873-10.0879Q1.36719-8.66211 1.36719-7.05078Q1.36719-5.43945 1.9873-4.01367Q2.60742-2.58789 3.69629-1.49414Q4.78516-0.400391 6.21094 0.214844Q7.63672 0.830078 9.24805 0.830078ZM9.24805-0.654297Q7.91992-0.654297 6.7627-1.14746Q5.60547-1.64062 4.73145-2.51953Q3.85742-3.39844 3.36426-4.56055Q2.87109-5.72266 2.87109-7.05078Q2.87109-8.37891 3.35938-9.54102Q3.84766-10.7031 4.72168-11.582Q5.5957-12.4609 6.75293-12.9541Q7.91016-13.4473 9.23828-13.4473Q10.5762-13.4473 11.7334-12.9541Q12.8906-12.4609 13.7695-11.582Q14.6484-10.7031 15.1465-9.54102Q15.6445-8.37891 15.6445-7.05078Q15.6445-5.72266 15.1514-4.56055Q14.6582-3.39844 13.7842-2.51953Q12.9102-1.64062 11.748-1.14746Q10.5859-0.654297 9.24805-0.654297ZM5.6543-7.05078Q5.6543-6.72852 5.85938-6.52832Q6.06445-6.32812 6.40625-6.32812L8.51562-6.32812L8.51562-4.20898Q8.51562-3.88672 8.71094-3.67676Q8.90625-3.4668 9.23828-3.4668Q9.56055-3.4668 9.77051-3.67676Q9.98047-3.88672 9.98047-4.20898L9.98047-6.32812L12.0898-6.32812Q12.4219-6.32812 12.627-6.52832Q12.832-6.72852 12.832-7.05078Q12.832-7.38281 12.627-7.58789Q12.4219-7.79297 12.0898-7.79297L9.98047-7.79297L9.98047-9.90234Q9.98047-10.2344 9.77051-10.4443Q9.56055-10.6543 9.23828-10.6543Q8.90625-10.6543 8.71094-10.4443Q8.51562-10.2344 8.51562-9.90234L8.51562-7.79297L6.40625-7.79297Q6.06445-7.79297 5.85938-7.58789Q5.6543-7.38281 5.6543-7.05078Z"/>
  </g>
  <g transform="matrix(1 0 0 1 281.867 1933)">
   <path d="M11.709 2.91016Q13.75 2.91016 15.5518 2.12891Q17.3535 1.34766 18.7305-0.0292969Q20.1074-1.40625 20.8887-3.20801Q21.6699-5.00977 21.6699-7.05078Q21.6699-9.0918 20.8887-10.8936Q20.1074-12.6953 18.7305-14.0723Q17.3535-15.4492 15.5469-16.2305Q13.7402-17.0117 11.6992-17.0117Q9.6582-17.0117 7.85645-16.2305Q6.05469-15.4492 4.68262-14.0723Q3.31055-12.6953 2.5293-10.8936Q1.74805-9.0918 1.74805-7.05078Q1.74805-5.00977 2.5293-3.20801Q3.31055-1.40625 4.6875-0.0292969Q6.06445 1.34766 7.86621 2.12891Q9.66797 2.91016 11.709 2.91016ZM11.709 1.25Q9.98047 1.25 8.47656 0.605469Q6.97266-0.0390625 5.83496-1.17676Q4.69727-2.31445 4.05762-3.81836Q3.41797-5.32227 3.41797-7.05078Q3.41797-8.7793 4.05762-10.2832Q4.69727-11.7871 5.83008-12.9297Q6.96289-14.0723 8.4668-14.7119Q9.9707-15.3516 11.6992-15.3516Q13.4277-15.3516 14.9316-14.7119Q16.4355-14.0723 17.5781-12.9297Q18.7207-11.7871 19.3652-10.2832Q20.0098-8.7793 20.0098-7.05078Q20.0098-5.32227 19.3701-3.81836Q18.7305-2.31445 17.5928-1.17676Q16.4551-0.0390625 14.9463 0.605469Q13.4375 1.25 11.709 1.25ZM7.17773-7.05078Q7.17773-6.69922 7.41211-6.47461Q7.64648-6.25 8.01758-6.25L10.8887-6.25L10.8887-3.36914Q10.8887-2.99805 11.1133-2.76855Q11.3379-2.53906 11.6895-2.53906Q12.0605-2.53906 12.29-2.76855Q12.5195-2.99805 12.5195-3.36914L12.5195-6.25L15.4004-6.25Q15.7715-6.25 16.001-6.47461Q16.2305-6.69922 16.2305-7.05078Q16.2305-7.42188 16.001-7.65137Q15.7715-7.88086 15.4004-7.88086L12.5195-7.88086L12.5195-10.752Q12.5195-11.1328 12.29-11.3623Q12.0605-11.5918 11.6895-11.5918Q11.3379-11.5918 11.1133-11.3574Q10.8887-11.123 10.8887-10.752L10.8887-7.88086L8.01758-7.88086Q7.63672-7.88086 7.40723-7.65137Q7.17773-7.42188 7.17773-7.05078Z"/>
  </g>
  <g transform="matrix(1 0 0 1 305.646 1933)">
   <path d="M14.9707 5.66406Q17.0605 5.66406 18.96 5.01465Q20.8594 4.36523 22.4512 3.19336Q24.043 2.02148 25.2197 0.429688Q26.3965-1.16211 27.0459-3.06641Q27.6953-4.9707 27.6953-7.05078Q27.6953-9.14062 27.0459-11.04Q26.3965-12.9395 25.2197-14.5312Q24.043-16.123 22.4512-17.2998Q20.8594-18.4766 18.9551-19.126Q17.0508-19.7754 14.9609-19.7754Q12.8711-19.7754 10.9717-19.126Q9.07227-18.4766 7.48535-17.2998Q5.89844-16.123 4.72168-14.5312Q3.54492-12.9395 2.90039-11.04Q2.25586-9.14062 2.25586-7.05078Q2.25586-4.9707 2.90527-3.06641Q3.55469-1.16211 4.72656 0.429688Q5.89844 2.02148 7.49023 3.19336Q9.08203 4.36523 10.9814 5.01465Q12.8809 5.66406 14.9707 5.66406ZM14.9707 3.84766Q13.1641 3.84766 11.5283 3.2959Q9.89258 2.74414 8.53516 1.74805Q7.17773 0.751953 6.17676-0.610352Q5.17578-1.97266 4.62891-3.6084Q4.08203-5.24414 4.08203-7.05078Q4.08203-8.86719 4.62891-10.5029Q5.17578-12.1387 6.17188-13.501Q7.16797-14.8633 8.52539-15.8594Q9.88281-16.8555 11.5186-17.4023Q13.1543-17.9492 14.9609-17.9492Q16.7773-17.9492 18.4131-17.4023Q20.0488-16.8555 21.4111-15.8594Q22.7734-14.8633 23.7695-13.501Q24.7656-12.1387 25.3174-10.5029Q25.8691-8.86719 25.8691-7.05078Q25.8789-5.24414 25.332-3.6084Q24.7852-1.97266 23.7842-0.610352Q22.7832 0.751953 21.4209 1.74805Q20.0586 2.74414 18.4229 3.2959Q16.7871 3.84766 14.9707 3.84766ZM9.19922-7.05078Q9.19922-6.66992 9.45801-6.4209Q9.7168-6.17188 10.1172-6.17188L14.0625-6.17188L14.0625-2.2168Q14.0625-1.81641 14.3115-1.55762Q14.5605-1.29883 14.9512-1.29883Q15.3516-1.29883 15.6104-1.55273Q15.8691-1.80664 15.8691-2.2168L15.8691-6.17188L19.8242-6.17188Q20.2246-6.17188 20.4785-6.4209Q20.7324-6.66992 20.7324-7.05078Q20.7324-7.46094 20.4785-7.71484Q20.2246-7.96875 19.8242-7.96875L15.8691-7.96875L15.8691-11.9141Q15.8691-12.3242 15.6104-12.583Q15.3516-12.8418 14.9512-12.8418Q14.5605-12.8418 14.3115-12.583Q14.0625-12.3242 14.0625-11.9141L14.0625-7.96875L10.1172-7.96875Q9.70703-7.96875 9.45312-7.71484Q9.19922-7.46094 9.19922-7.05078Z"/>
  </g>
  <text style="stroke:none;fill:black;font-family:sans-serif;font-size:13;font-weight:bold;" transform="matrix(1 0 0 1 263 1953)">Design Variations</text>
  <text style="stroke:none;fill:black;font-family:sans-serif;font-size:13;" transform="matrix(1 0 0 1 263 1971)">Symbols are supported in up to nine weights and three scales.</text>
  <text style="stroke:none;fill:black;font-family:sans-serif;font-size:13;" transform="matrix(1 0 0 1 263 1989)">For optimal layout with text and other symbols, vertically align</text>
  <text style="stroke:none;fill:black;font-family:sans-serif;font-size:13;" transform="matrix(1 0 0 1 263 2007)">symbols with the adjacent text.</text>
  <line style="fill:none;stroke:#00AEEF;stroke-width:0.5;opacity:1.0;" x1="776" x2="776" y1="1919" y2="1933"/>
  <g transform="matrix(1 0 0 1 776 1933)">
   <path d="M3.31055 0.15625Q3.70117 0.15625 3.91602-0.00976562Q4.13086-0.175781 4.26758-0.585938L5.52734-4.0332L11.2891-4.0332L12.5488-0.585938Q12.6855-0.175781 12.9004-0.00976562Q13.1152 0.15625 13.4961 0.15625Q13.8867 0.15625 14.1162-0.0585938Q14.3457-0.273438 14.3457-0.644531Q14.3457-0.869141 14.2383-1.17188L9.6582-13.3691Q9.48242-13.8184 9.17969-14.043Q8.87695-14.2676 8.4082-14.2676Q7.5-14.2676 7.17773-13.3789L2.59766-1.16211Q2.49023-0.859375 2.49023-0.634766Q2.49023-0.263672 2.70996-0.0537109Q2.92969 0.15625 3.31055 0.15625ZM6.00586-5.51758L8.37891-12.0898L8.42773-12.0898L10.8008-5.51758Z"/>
  </g>
  <line style="fill:none;stroke:#00AEEF;stroke-width:0.5;opacity:1.0;" x1="793.197" x2="793.197" y1="1919" y2="1933"/>
  <text style="stroke:none;fill:black;font-family:sans-serif;font-size:13;font-weight:bold;" transform="matrix(1 0 0 1 776 1953)">Margins</text>
  <text style="stroke:none;fill:black;font-family:sans-serif;font-size:13;" transform="matrix(1 0 0 1 776 1971)">Leading and trailing margins on the left and right side of each symbol</text>
  <text style="stroke:none;fill:black;font-family:sans-serif;font-size:13;" transform="matrix(1 0 0 1 776 1989)">can be adjusted by modifying the x-location of the margin guidelines.</text>
  <text style="stroke:none;fill:black;font-family:sans-serif;font-size:13;" transform="matrix(1 0 0 1 776 2007)">Modifications are automatically applied proportionally to all</text>
  <text style="stroke:none;fill:black;font-family:sans-serif;font-size:13;" transform="matrix(1 0 0 1 776 2025)">scales and weights.</text>
  <g transform="matrix(1 0 0 1 1289 1933)">
   <path d="M2.8418 1.86523L4.54102 3.57422Q5.18555 4.22852 5.90332 4.17969Q6.62109 4.13086 7.31445 3.35938L18.0078-8.42773L17.041-9.4043L6.42578 2.27539Q6.16211 2.57812 5.89355 2.61719Q5.625 2.65625 5.27344 2.30469L4.10156 1.14258Q3.75 0.791016 3.79395 0.522461Q3.83789 0.253906 4.14062-0.0195312L15.6152-10.8203L14.6387-11.7871L3.04688-0.898438Q2.30469-0.214844 2.25098 0.498047Q2.19727 1.21094 2.8418 1.86523ZM9.25781-16.3281Q8.94531-16.0254 8.90625-15.6348Q8.86719-15.2441 9.04297-14.9512Q9.21875-14.6777 9.55566-14.541Q9.89258-14.4043 10.3809-14.5215Q11.4746-14.7754 12.5977-14.7314Q13.7207-14.6875 14.7949-13.9844L14.209-12.5293Q13.9551-11.9043 14.0674-11.4404Q14.1797-10.9766 14.5801-10.5664L16.875-8.25195Q17.2363-7.88086 17.5781-7.82227Q17.9199-7.76367 18.3398-7.8418L19.4043-8.03711L20.0684-7.36328L20.0293-6.80664Q20-6.43555 20.1221-6.12305Q20.2441-5.81055 20.6055-5.44922L21.3672-4.70703Q21.7285-4.3457 22.1533-4.33105Q22.5781-4.31641 22.9297-4.66797L25.8398-7.58789Q26.1914-7.93945 26.1816-8.35449Q26.1719-8.76953 25.8105-9.13086L25.0391-9.89258Q24.6875-10.2539 24.3799-10.3857Q24.0723-10.5176 23.7109-10.4883L23.1348-10.4395L22.4902-11.0742L22.7344-12.1973Q22.832-12.6172 22.6953-12.9834Q22.5586-13.3496 22.1191-13.7891L19.9219-15.9766Q18.6719-17.2168 17.2607-17.8369Q15.8496-18.457 14.4189-18.4814Q12.9883-18.5059 11.665-17.959Q10.3418-17.4121 9.25781-16.3281ZM10.752-15.957Q11.6602-16.6211 12.7002-16.9043Q13.7402-17.1875 14.8047-17.085Q15.8691-16.9824 16.8701-16.5137Q17.8711-16.0449 18.7012-15.2051L21.1328-12.793Q21.3086-12.6172 21.3525-12.4512Q21.3965-12.2852 21.3379-12.0312L21.0156-10.5469L22.5195-9.0625L23.5059-9.12109Q23.6914-9.13086 23.7891-9.09668Q23.8867-9.0625 24.0332-8.91602L24.6094-8.33984L22.168-5.89844L21.5918-6.47461Q21.4453-6.62109 21.4062-6.71875Q21.3672-6.81641 21.377-7.01172L21.4453-7.98828L19.9512-9.47266L18.4277-9.21875Q18.1836-9.16992 18.042-9.2041Q17.9004-9.23828 17.7148-9.41406L15.7129-11.416Q15.5176-11.5918 15.4932-11.7529Q15.4688-11.9141 15.5859-12.1875L16.4648-14.2773Q15.293-15.3711 13.8281-15.791Q12.3633-16.2109 10.8398-15.7617Q10.7227-15.7324 10.6885-15.8057Q10.6543-15.8789 10.752-15.957Z"/>
  </g>
  <text style="stroke:none;fill:black;font-family:sans-serif;font-size:13;font-weight:bold;" transform="matrix(1 0 0 1 1289 1953)">Exporting</text>
  <text style="stroke:none;fill:black;font-family:sans-serif;font-size:13;" transform="matrix(1 0 0 1 1289 1971)">Symbols should be outlined when exporting to ensure the</text>
  <text style="stroke:none;fill:black;font-family:sans-serif;font-size:13;" transform="matrix(1 0 0 1 1289 1989)">design is preserved when submitting to Xcode.</text>
  <text id="template-version" style="stroke:none;fill:black;font-family:sans-serif;font-size:13;text-anchor:end;" transform="matrix(1 0 0 1 3036 1933)">Template v.3.0</text>
  <text style="stroke:none;fill:black;font-family:sans-serif;font-size:13;text-anchor:end;" transform="matrix(1 0 0 1 3036 1951)">Requires Xcode 13 or greater</text>
  <text id="descriptive-name" style="stroke:none;fill:black;font-family:sans-serif;font-size:13;text-anchor:end;" transform="matrix(1 0 0 1 3036 1969)">Generated from code</text>
  <text style="stroke:none;fill:black;font-family:sans-serif;font-size:13;text-anchor:end;" transform="matrix(1 0 0 1 3036 1987)">Typeset at 100 points</text>
  <text style="stroke:none;fill:black;font-family:sans-serif;font-size:13;" transform="matrix(1 0 0 1 263 726)">Small</text>
  <text style="stroke:none;fill:black;font-family:sans-serif;font-size:13;" transform="matrix(1 0 0 1 263 1156)">Medium</text>
  <text style="stroke:none;fill:black;font-family:sans-serif;font-size:13;" transform="matrix(1 0 0 1 263 1586)">Large</text>
 </g>
 <g id="Guides">
  <g id="H-reference" style="fill:#27AAE1;stroke:none;" transform="matrix(1 0 0 1 339 696)">
   <path d="M0.976562 0L3.66211 0L29.3457-67.1387L30.0293-67.1387L30.0293-70.459L28.125-70.459ZM11.6699-24.4629L46.9727-24.4629L46.2402-26.709L12.4512-26.709ZM55.127 0L57.7637 0L30.6152-70.459L29.4434-70.459L29.4434-67.1387Z"/>
  </g>
  <line id="Baseline-S" style="fill:none;stroke:#27AAE1;opacity:1;stroke-width:0.5;" x1="263" x2="3036" y1="696" y2="696"/>
  <line id="Capline-S" style="fill:none;stroke:#27AAE1;opacity:1;stroke-width:0.5;" x1="263" x2="3036" y1="625.541" y2="625.541"/>
  <g id="H-reference" style="fill:#27AAE1;stroke:none;" transform="matrix(1 0 0 1 339 1126)">
   <path d="M0.976562 0L3.66211 0L29.3457-67.1387L30.0293-67.1387L30.0293-70.459L28.125-70.459ZM11.6699-24.4629L46.9727-24.4629L46.2402-26.709L12.4512-26.709ZM55.127 0L57.7637 0L30.6152-70.459L29.4434-70.459L29.4434-67.1387Z"/>
  </g>
  <line id="Baseline-M" style="fill:none;stroke:#27AAE1;opacity:1;stroke-width:0.5;" x1="263" x2="3036" y1="1126" y2="1126"/>
  <line id="Capline-M" style="fill:none;stroke:#27AAE1;opacity:1;stroke-width:0.5;" x1="263" x2="3036" y1="1055.54" y2="1055.54"/>
  <g id="H-reference" style="fill:#27AAE1;stroke:none;" transform="matrix(1 0 0 1 339 1556)">
   <path d="M0.976562 0L3.66211 0L29.3457-67.1387L30.0293-67.1387L30.0293-70.459L28.125-70.459ZM11.6699-24.4629L46.9727-24.4629L46.2402-26.709L12.4512-26.709ZM55.127 0L57.7637 0L30.6152-70.459L29.4434-70.459L29.4434-67.1387Z"/>
  </g>
  <line id="Baseline-L" style="fill:none;stroke:#27AAE1;opacity:1;stroke-width:0.5;" x1="263" x2="3036" y1="1556" y2="1556"/>
  <line id="Capline-L" style="fill:none;stroke:#27AAE1;opacity:1;stroke-width:0.5;" x1="263" x2="3036" y1="1485.54" y2="1485.54"/>
  <line id="left-margin-Regular-M" style="fill:none;stroke:#00AEEF;stroke-width:0.5;opacity:1.0;" x1="1393.13" x2="1393.13" y1="1030.78" y2="1150.12"/>
  <line id="right-margin-Regular-M" style="fill:none;stroke:#00AEEF;stroke-width:0.5;opacity:1.0;" x1="1506.56" x2="1506.56" y1="1030.78" y2="1150.12"/>
 </g>
 <g id="Symbols">
  <g id="Black-L" transform="matrix(1 0 0 1 2860.84 1556)">
   <path d="M90.445-75.765C93.215-78.535 97.705-78.535 100.485-75.765L134.605-41.635C137.386-38.865 137.386-34.365 134.605-31.595L100.485 2.525C97.705 5.305 93.215 5.305 90.445 2.525C87.665-0.245 87.665-4.735 90.445-7.515L119.545-36.615L90.445-65.725C87.665-68.495 87.665-72.985 90.445-75.765ZM54.985-75.765C57.755-72.985 57.755-68.495 54.985-65.725L25.875-36.615L54.985-7.515C57.755-4.735 57.755-0.245 54.985 2.525C52.205 5.305 47.715 5.305 44.945 2.525L10.815-31.595C8.045-34.365 8.045-38.865 10.815-41.635L44.945-75.765C47.715-78.535 52.205-78.535 54.985-75.765Z"/>
  </g>
  <g id="Heavy-L" transform="matrix(1 0 0 1 2564.98 1556)">
   <path d="M90.1975-74.995C92.6375-77.445 96.5975-77.445 99.0375-74.995L133.158-40.875C135.598-38.435 135.598-34.475 133.158-32.035L99.0375 2.085C96.5975 4.525 92.6375 4.525 90.1975 2.085C87.7575-0.355 87.7575-4.305 90.1975-6.745L119.897-36.455L90.1975-66.165C87.7575-68.605 87.7575-72.555 90.1975-74.995ZM53.5375-74.995C55.9775-72.555 55.9775-68.605 53.5375-66.165L23.8275-36.455L53.5375-6.745C55.9775-4.305 55.9775-0.355 53.5375 2.085C51.0975 4.525 47.1375 4.525 44.6975 2.085L10.5675-32.035C8.1275-34.475 8.1275-38.435 10.5675-40.875L44.6975-74.995C47.1375-77.445 51.0975-77.445 53.5375-74.995Z"/>
  </g>
  <g id="Bold-L" transform="matrix(1 0 0 1 2269.22 1556)">
   <path d="M89.92-74.135C91.99-76.205 95.34-76.205 97.41-74.135L131.539-40.015C133.61-37.945 133.61-34.585 131.539-32.515L97.41 1.605C95.34 3.675 91.99 3.675 89.92 1.605C87.85-0.465 87.85-3.815 89.92-5.885L120.299-36.265L89.92-66.645C87.85-68.715 87.85-72.065 89.92-74.135ZM51.91-74.135C53.98-72.065 53.98-68.715 51.91-66.645L21.54-36.265L51.91-5.885C53.98-3.815 53.98-0.465 51.91 1.605C49.84 3.675 46.49 3.675 44.42 1.605L10.29-32.515C8.22-34.585 8.22-37.945 10.29-40.015L44.42-74.135C46.49-76.205 49.84-76.205 51.91-74.135Z"/>
  </g>
  <g id="Semibold-L" transform="matrix(1 0 0 1 1973.16 1556)">
   <path d="M89.7225-73.55C91.5425-75.37 94.4825-75.37 96.3025-73.55L130.423-39.43C132.242-37.61 132.242-34.67 130.423-32.85L96.3025 1.27C94.4825 3.09 91.5425 3.09 89.7225 1.27C87.9125-0.54 87.9125-3.49 89.7225-5.3L120.562-36.14L89.7225-66.98C87.9125-68.79 87.9125-71.74 89.7225-73.55ZM50.8025-73.55C52.6225-71.74 52.6225-68.79 50.8025-66.98L19.9625-36.14L50.8025-5.3C52.6225-3.49 52.6225-0.54 50.8025 1.27C48.9825 3.09 46.0425 3.09 44.2225 1.27L10.1025-32.85C8.2825-34.67 8.2825-37.61 10.1025-39.43L44.2225-73.55C46.0425-75.37 48.9825-75.37 50.8025-73.55Z"/>
  </g>
  <g id="Medium-L" transform="matrix(1 0 0 1 1676.95 1556)">
   <path d="M89.5825-73.1C91.2025-74.72 93.8325-74.72 95.4525-73.1L129.572-38.97C131.193-37.35 131.193-34.73 129.572-33.1L95.4525 1.02C93.8325 2.64 91.2025 2.64 89.5825 1.02C87.9625-0.6 87.9625-3.23 89.5825-4.85L120.772-36.04L89.5825-67.23C87.9625-68.85 87.9625-71.48 89.5825-73.1ZM49.9525-73.1C51.5725-71.48 51.5725-68.85 49.9525-67.23L18.7625-36.04L49.9525-4.85C51.5725-3.23 51.5725-0.6 49.9525 1.02C48.3325 2.64 45.7025 2.64 44.0825 1.02L9.9525-33.1C8.3325-34.73 8.3325-37.35 9.9525-38.97L44.0825-73.1C45.7025-74.72 48.3325-74.72 49.9525-73.1Z"/>
  </g>
  <g id="Regular-L" transform="matrix(1 0 0 1 1380.88 1556)">
   <path d="M89.395-72.515C90.755-73.885 92.975-73.885 94.335-72.515L128.464-38.395C129.834-37.025 129.834-34.805 128.464-33.445L94.335 0.685C92.975 2.055 90.755 2.055 89.395 0.685C88.025-0.685 88.025-2.895 89.395-4.265L121.044-35.915L89.395-67.565C88.025-68.935 88.025-71.145 89.395-72.515ZM48.835-72.515C50.205-71.145 50.205-68.935 48.835-67.565L17.185-35.915L48.835-4.265C50.205-2.895 50.205-0.685 48.835 0.685C47.475 2.055 45.255 2.055 43.895 0.685L9.765-33.445C8.395-34.805 8.395-37.025 9.765-38.395L43.895-72.515C45.255-73.885 47.475-73.885 48.835-72.515Z"/>
  </g>
  <g id="Light-L" transform="matrix(1 0 0 1 1084.97 1556)">
   <path d="M89.1525-71.79C90.2125-72.85 91.9225-72.85 92.9725-71.79L127.092-37.67C128.152-36.61 128.152-34.9 127.092-33.85L92.9725 0.27C91.9225 1.33 90.2125 1.33 89.1525 0.27C88.1025-0.78 88.1025-2.49 89.1525-3.54L121.372-35.76L89.1525-67.98C88.1025-69.03 88.1025-70.74 89.1525-71.79ZM47.4725-71.79C48.5225-70.74 48.5225-69.03 47.4725-67.98L15.2525-35.76L47.4725-3.54C48.5225-2.49 48.5225-0.78 47.4725 0.27C46.4225 1.33 44.7125 1.33 43.6525 0.27L9.5325-33.85C8.4725-34.9 8.4725-36.61 9.5325-37.67L43.6525-71.79C44.7125-72.85 46.4225-72.85 47.4725-71.79Z"/>
  </g>
  <g id="Thin-L" transform="matrix(1 0 0 1 789.312 1556)">
   <path d="M88.8462-70.84C89.4902-71.48 90.5352-71.48 91.1792-70.84L125.304-36.72C125.949-36.07 125.949-35.03 125.304-34.38L91.1792-0.26C90.5352 0.39 89.4902 0.39 88.8462-0.26C88.2012-0.9 88.2012-1.95 88.8462-2.59L121.804-35.55L88.8462-68.51C88.2012-69.15 88.2012-70.2 88.8462-70.84ZM45.6792-70.84C46.3242-70.2 46.3242-69.15 45.6792-68.51L12.7212-35.55L45.6792-2.59C46.3242-1.95 46.3242-0.9 45.6792-0.26C45.0352 0.39 43.9902 0.39 43.3462-0.26L9.22125-34.38C8.57625-35.03 8.57625-36.07 9.22125-36.72L43.3462-70.84C43.9902-71.48 45.0352-71.48 45.6792-70.84Z"/>
  </g>
  <g id="Ultralight-L" transform="matrix(1 0 0 1 493.151 1556)">
   <path d="M88.685-70.345C89.114-70.775 89.811-70.775 90.24-70.345L124.364-36.225C124.794-35.795 124.794-35.095 124.364-34.665L90.24-0.545C89.811-0.115 89.114-0.115 88.685-0.545C88.255-0.975 88.255-1.675 88.685-2.095L122.031-35.445L88.685-68.795C88.255-69.225 88.255-69.925 88.685-70.345ZM44.74-70.345C45.17-69.925 45.17-69.225 44.74-68.795L11.393-35.445L44.74-2.095C45.17-1.675 45.17-0.975 44.74-0.545C44.311-0.115 43.614-0.115 43.185-0.545L9.06-34.665C8.63-35.095 8.63-35.795 9.06-36.225L43.185-70.345C43.614-70.775 44.311-70.775 44.74-70.345Z"/>
  </g>
  <g id="Black-M" transform="matrix(1 0 0 1 2873.09 1126)">
   <path d="M73.295-68.415C76.065-71.185 80.555-71.185 83.335-68.415L110.106-41.635C112.875-38.865 112.875-34.365 110.106-31.595L83.335-4.815C80.555-2.045 76.065-2.045 73.295-4.815C70.515-7.595 70.515-12.085 73.295-14.865L95.045-36.615L73.295-58.375C70.515-61.145 70.515-65.635 73.295-68.415ZM47.635-68.415C50.405-65.635 50.405-61.145 47.635-58.375L25.875-36.615L47.635-14.865C50.405-12.085 50.405-7.595 47.635-4.815C44.855-2.045 40.365-2.045 37.585-4.815L10.815-31.595C8.045-34.365 8.045-38.865 10.815-41.635L37.585-68.415C40.365-71.185 44.855-71.185 47.635-68.415Z"/>
  </g>
  <g id="Heavy-M" transform="matrix(1 0 0 1 2577.23 1126)">
   <path d="M73.0475-67.64C75.4875-70.08 79.4375-70.08 81.8775-67.64L108.658-40.87C111.098-38.43 111.098-34.47 108.658-32.03L81.8775-5.25C79.4375-2.81 75.4875-2.81 73.0475-5.25C70.5975-7.7 70.5975-11.65 73.0475-14.09L95.3975-36.45L73.0475-58.8C70.5975-61.25 70.5975-65.2 73.0475-67.64ZM46.1775-67.64C48.6175-65.2 48.6175-61.25 46.1775-58.8L23.8275-36.45L46.1775-14.09C48.6175-11.65 48.6175-7.7 46.1775-5.25C43.7375-2.81 39.7775-2.81 37.3375-5.25L10.5675-32.03C8.1275-34.47 8.1275-38.43 10.5675-40.87L37.3375-67.64C39.7775-70.08 43.7375-70.08 46.1775-67.64Z"/>
  </g>
  <g id="Bold-M" transform="matrix(1 0 0 1 2281.47 1126)">
   <path d="M72.77-66.785C74.84-68.855 78.2-68.855 80.27-66.785L107.039-40.015C109.11-37.945 109.11-34.585 107.039-32.515L80.27-5.745C78.2-3.675 74.84-3.675 72.77-5.745C70.7-7.815 70.7-11.165 72.77-13.235L95.8-36.265L72.77-59.295C70.7-61.365 70.7-64.715 72.77-66.785ZM44.56-66.785C46.63-64.715 46.63-61.365 44.56-59.295L21.54-36.265L44.56-13.235C46.63-11.165 46.63-7.815 44.56-5.745C42.49-3.675 39.14-3.675 37.07-5.745L10.29-32.515C8.22-34.585 8.22-37.945 10.29-40.015L37.07-66.785C39.14-68.855 42.49-68.855 44.56-66.785Z"/>
  </g>
  <g id="Semibold-M" transform="matrix(1 0 0 1 1985.41 1126)">
   <path d="M72.5725-66.2C74.3925-68.02 77.3325-68.02 79.1525-66.2L105.923-39.43C107.742-37.61 107.742-34.67 105.923-32.85L79.1525-6.08C77.3325-4.26 74.3925-4.26 72.5725-6.08C70.7625-7.89 70.7625-10.84 72.5725-12.65L96.0625-36.14L72.5725-59.63C70.7625-61.44 70.7625-64.39 72.5725-66.2ZM43.4525-66.2C45.2725-64.39 45.2725-61.44 43.4525-59.63L19.9625-36.14L43.4525-12.65C45.2725-10.84 45.2725-7.89 43.4525-6.08C41.6325-4.26 38.6925-4.26 36.8725-6.08L10.1025-32.85C8.2825-34.67 8.2825-37.61 10.1025-39.43L36.8725-66.2C38.6925-68.02 41.6325-68.02 43.4525-66.2Z"/>
  </g>
  <g id="Medium-M" transform="matrix(1 0 0 1 1689.2 1126)">
   <path d="M72.4225-65.75C74.0525-67.37 76.6725-67.37 78.2925-65.75L105.072-38.98C106.693-37.36 106.693-34.73 105.072-33.11L78.2925-6.33C76.6725-4.71 74.0525-4.71 72.4225-6.33C70.8025-7.95 70.8025-10.58 72.4225-12.2L96.2725-36.04L72.4225-59.88C70.8025-61.5 70.8025-64.13 72.4225-65.75ZM42.6025-65.75C44.2225-64.13 44.2225-61.5 42.6025-59.88L18.7625-36.04L42.6025-12.2C44.2225-10.58 44.2225-7.95 42.6025-6.33C40.9825-4.71 38.3525-4.71 36.7325-6.33L9.9525-33.11C8.3325-34.73 8.3325-37.36 9.9525-38.98L36.7325-65.75C38.3525-67.37 40.9825-67.37 42.6025-65.75Z"/>
  </g>
  <g id="Regular-M" transform="matrix(1 0 0 1 1393.13 1126)">
   <path d="M72.245-65.165C73.605-66.535 75.825-66.535 77.195-65.165L103.965-38.385C105.334-37.025 105.334-34.805 103.965-33.435L77.195-6.665C75.825-5.295 73.605-5.295 72.245-6.665C70.875-8.035 70.875-10.245 72.245-11.615L96.545-35.915L72.245-60.215C70.875-61.585 70.875-63.795 72.245-65.165ZM41.485-65.165C42.855-63.795 42.855-61.585 41.485-60.215L17.185-35.915L41.485-11.615C42.855-10.245 42.855-8.035 41.485-6.665C40.125-5.295 37.905-5.295 36.545-6.665L9.765-33.435C8.395-34.805 8.395-37.025 9.765-38.385L36.545-65.165C37.905-66.535 40.125-66.535 41.485-65.165Z"/>
  </g>
  <g id="Light-M" transform="matrix(1 0 0 1 1097.22 1126)">
   <path d="M72.0025-64.445C73.0525-65.495 74.7625-65.495 75.8225-64.445L102.592-37.665C103.652-36.615 103.652-34.905 102.592-33.845L75.8225-7.075C74.7625-6.015 73.0525-6.015 72.0025-7.075C70.9425-8.125 70.9425-9.835 72.0025-10.895L96.8725-35.755L72.0025-60.625C70.9425-61.675 70.9425-63.385 72.0025-64.445ZM40.1225-64.445C41.1725-63.385 41.1725-61.675 40.1225-60.625L15.2525-35.755L40.1225-10.895C41.1725-9.835 41.1725-8.125 40.1225-7.075C39.0725-6.015 37.3625-6.015 36.3025-7.075L9.5325-33.845C8.4725-34.905 8.4725-36.615 9.5325-37.665L36.3025-64.445C37.3625-65.495 39.0725-65.495 40.1225-64.445Z"/>
  </g>
  <g id="Thin-M" transform="matrix(1 0 0 1 801.563 1126)">
   <path d="M71.6932-63.495C72.3382-64.145 73.3832-64.145 74.0272-63.495L100.802-36.725C101.446-36.075 101.446-35.035 100.802-34.385L74.0272-7.615C73.3832-6.975 72.3382-6.975 71.6932-7.615C71.0492-8.255 71.0492-9.305 71.6932-9.945L97.3022-35.555L71.6932-61.165C71.0492-61.805 71.0492-62.855 71.6932-63.495ZM38.3292-63.495C38.9742-62.855 38.9742-61.805 38.3292-61.165L12.7212-35.555L38.3292-9.945C38.9742-9.305 38.9742-8.255 38.3292-7.615C37.6852-6.975 36.6402-6.975 35.9962-7.615L9.22125-34.385C8.57625-35.035 8.57625-36.075 9.22125-36.725L35.9962-63.495C36.6402-64.145 37.6852-64.145 38.3292-63.495Z"/>
  </g>
  <g id="Ultralight-M" transform="matrix(1 0 0 1 505.4 1126)">
   <path d="M71.536-62.995C71.966-63.425 72.662-63.425 73.092-62.995L99.8665-36.225C100.295-35.795 100.295-35.095 99.8665-34.665L73.092-7.895C72.662-7.465 71.966-7.465 71.536-7.895C71.107-8.325 71.107-9.015 71.536-9.445L97.533-35.445L71.536-61.445C71.107-61.875 71.107-62.565 71.536-62.995ZM37.39-62.995C37.82-62.565 37.82-61.875 37.39-61.445L11.393-35.445L37.39-9.445C37.82-9.015 37.82-8.325 37.39-7.895C36.961-7.465 36.264-7.465 35.835-7.895L9.06-34.665C8.63-35.095 8.63-35.795 9.06-36.225L35.835-62.995C36.264-63.425 36.961-63.425 37.39-62.995Z"/>
  </g>
  <g id="Black-S" transform="matrix(1 0 0 1 2882.71 696)">
   <path d="M59.8225-62.7405C62.5925-65.5134 67.0825-65.5134 69.8625-62.7405L90.8625-41.7405C93.6325-38.9675 93.6325-34.4725 90.8625-31.6995L69.8625-10.6995C67.0825-7.92647 62.5925-7.92647 59.8225-10.6995C57.0425-13.4725 57.0425-17.9675 59.8225-20.7405L75.8025-36.7204L59.8225-52.6995C57.0425-55.4725 57.0425-59.9675 59.8225-62.7405ZM41.8625-62.7405C44.6325-59.9675 44.6325-55.4725 41.8625-52.6995L25.8825-36.7204L41.8625-20.7405C44.6325-17.9675 44.6325-13.4725 41.8625-10.6995C39.0825-7.92647 34.5925-7.92647 31.8225-10.6995L10.8225-31.6995C8.0425-34.4725 8.0425-38.9675 10.8225-41.7405L31.8225-62.7405C34.5925-65.5134 39.0825-65.5134 41.8625-62.7405Z"/>
  </g>
  <g id="Heavy-S" transform="matrix(1 0 0 1 2586.85 696)">
   <path d="M59.5675-61.9715C62.0075-64.4124 65.9675-64.4124 68.4075-61.9715L89.4075-40.9715C91.8475-38.5314 91.8475-34.5734 89.4075-32.1334L68.4075-11.1334C65.9675-8.6925 62.0075-8.6925 59.5675-11.1334C57.1275-13.5734 57.1275-17.5314 59.5675-19.9715L76.1475-36.5524L59.5675-53.1334C57.1275-55.5734 57.1275-59.5314 59.5675-61.9715ZM40.4075-61.9715C42.8475-59.5314 42.8475-55.5734 40.4075-53.1334L23.8275-36.5524L40.4075-19.9715C42.8475-17.5314 42.8475-13.5734 40.4075-11.1334C37.9675-8.6925 34.0075-8.6925 31.5675-11.1334L10.5675-32.1334C8.1275-34.5734 8.1275-38.5314 10.5675-40.9715L31.5675-61.9715C34.0075-64.4124 37.9675-64.4124 40.4075-61.9715Z"/>
  </g>
  <g id="Bold-S" transform="matrix(1 0 0 1 2291.1 696)">
   <path d="M59.29-60.908C61.36-62.978 64.71-62.978 66.78-60.908L87.78-39.908C89.85-37.839 89.85-34.483 87.78-32.413L66.78-11.413C64.71-9.343 61.36-9.343 59.29-11.413C57.22-13.483 57.22-16.839 59.29-18.908L76.54-36.161L59.29-53.413C57.22-55.483 57.22-58.839 59.29-60.908ZM38.78-60.908C40.85-58.839 40.85-55.483 38.78-53.413L21.53-36.161L38.78-18.908C40.85-16.839 40.85-13.483 38.78-11.413C36.71-9.343 33.36-9.343 31.29-11.413L10.29-32.413C8.22-34.483 8.22-37.839 10.29-39.908L31.29-60.908C33.36-62.978 36.71-62.978 38.78-60.908Z"/>
  </g>
  <g id="Semibold-S" transform="matrix(1 0 0 1 1995.03 696)">
   <path d="M59.095-60.319C60.915-62.135 63.855-62.135 65.675-60.319L86.675-39.319C88.495-37.504 88.495-34.559 86.675-32.743L65.675-11.743C63.855-9.927 60.915-9.927 59.095-11.743C57.285-13.559 57.285-16.504 59.095-18.319L76.815-36.031L59.095-53.743C57.285-55.559 57.285-58.504 59.095-60.319ZM37.675-60.319C39.495-58.504 39.495-55.559 37.675-53.743L19.965-36.031L37.675-18.319C39.495-16.504 39.495-13.559 37.675-11.743C35.855-9.927 32.915-9.927 31.095-11.743L10.095-32.743C8.285-34.559 8.285-37.504 10.095-39.319L31.095-60.319C32.915-62.135 35.855-62.135 37.675-60.319Z"/>
  </g>
  <g id="Medium-S" transform="matrix(1 0 0 1 1698.82 696)">
   <path d="M58.9525-59.8685C60.5725-61.4894 63.2025-61.4894 64.8225-59.8685L85.8225-38.8685C87.4425-37.2475 87.4425-34.6204 85.8225-32.9994L64.8225-11.9994C63.2025-10.3785 60.5725-10.3785 58.9525-11.9994C57.3325-13.6204 57.3325-16.2475 58.9525-17.8685L77.0125-35.9335L58.9525-53.9994C57.3325-55.6204 57.3325-58.2475 58.9525-59.8685ZM36.8225-59.8685C38.4425-58.2475 38.4425-55.6204 36.8225-53.9994L18.7525-35.9335L36.8225-17.8685C38.4425-16.2475 38.4425-13.6204 36.8225-11.9994C35.2025-10.3785 32.5725-10.3785 30.9525-11.9994L9.9525-32.9994C8.3325-34.6204 8.3325-37.2475 9.9525-38.8685L30.9525-59.8685C32.5725-61.4894 35.2025-61.4894 36.8225-59.8685Z"/>
  </g>
  <g id="Regular-S" transform="matrix(1 0 0 1 1402.76 696)">
   <path d="M58.765-59.2835C60.125-60.6505 62.345-60.6505 63.705-59.2835L84.705-38.2835C86.075-36.9165 86.075-34.7005 84.705-33.3335L63.705-12.3335C62.345-10.9665 60.125-10.9665 58.765-12.3335C57.395-13.7005 57.395-15.9165 58.765-17.2835L77.285-35.8084L58.765-54.3335C57.395-55.7005 57.395-57.9165 58.765-59.2835ZM35.705-59.2835C37.075-57.9165 37.075-55.7005 35.705-54.3335L17.185-35.8084L35.705-17.2835C37.075-15.9165 37.075-13.7005 35.705-12.3335C34.345-10.9665 32.125-10.9665 30.765-12.3335L9.765-33.3335C8.395-34.7005 8.395-36.9165 9.765-38.2835L30.765-59.2835C32.125-60.6505 34.345-60.6505 35.705-59.2835Z"/>
  </g>
  <g id="Light-S" transform="matrix(1 0 0 1 1106.85 696)">
   <path d="M58.525-58.5604C59.585-59.6155 61.295-59.6155 62.345-58.5604L83.345-37.5604C84.395-36.5065 84.395-34.7964 83.345-33.7424L62.345-12.7424C61.295-11.6884 59.585-11.6884 58.525-12.7424C57.475-13.7964 57.475-15.5065 58.525-16.5604L77.615-35.6514L58.525-54.7424C57.475-55.7964 57.475-57.5065 58.525-58.5604ZM34.345-58.5604C35.395-57.5065 35.395-55.7964 34.345-54.7424L15.255-35.6514L34.345-16.5604C35.395-15.5065 35.395-13.7964 34.345-12.7424C33.295-11.6884 31.585-11.6884 30.525-12.7424L9.525-33.7424C8.475-34.7964 8.475-36.5065 9.525-37.5604L30.525-58.5604C31.585-59.6155 33.295-59.6155 34.345-58.5604Z"/>
  </g>
  <g id="Thin-S" transform="matrix(1 0 0 1 811.187 696)">
   <path d="M58.2212-57.6124C58.8652-58.2574 59.9102-58.2574 60.5542-57.6124L81.5542-36.6124C82.1992-35.9684 82.1992-34.9235 81.5542-34.2794L60.5542-13.2794C59.9102-12.6345 58.8652-12.6345 58.2212-13.2794C57.5762-13.9235 57.5762-14.9684 58.2212-15.6124L78.0542-35.4456L58.2212-55.2794C57.5762-55.9235 57.5762-56.9684 58.2212-57.6124ZM32.5542-57.6124C33.1992-56.9684 33.1992-55.9235 32.5542-55.2794L12.7212-35.4456L32.5542-15.6124C33.1992-14.9684 33.1992-13.9235 32.5542-13.2794C31.9102-12.6345 30.8652-12.6345 30.2212-13.2794L9.22125-34.2794C8.57625-34.9235 8.57625-35.9684 9.22125-36.6124L30.2212-57.6124C30.8652-58.2574 31.9102-58.2574 32.5542-57.6124Z"/>
  </g>
  <g id="Ultralight-S" transform="matrix(1 0 0 1 515.026 696)">
   <path d="M58.06-57.119C58.489-57.549 59.186-57.549 59.615-57.119L80.615-36.119C81.045-35.69 81.045-34.993 80.615-34.564L59.615-13.564C59.186-13.134 58.489-13.134 58.06-13.564C57.63-13.993 57.63-14.69 58.06-15.119L78.282-35.342L58.06-55.564C57.63-55.993 57.63-56.69 58.06-57.119ZM31.615-57.119C32.045-56.69 32.045-55.993 31.615-55.564L11.393-35.342L31.615-15.119C32.045-14.69 32.045-13.993 31.615-13.564C31.186-13.134 30.489-13.134 30.06-13.564L9.06-34.564C8.63-34.993 8.63-35.69 9.06-36.119L30.06-57.119C30.489-57.549 31.186-57.549 31.615-57.119Z"/>
  </g>
 </g>
</svg>
