<svg width="1254" height="1093" viewBox="0 0 1254 1093" fill="none" xmlns="http://www.w3.org/2000/svg">
<path d="M198.366 423C198.467 421.2 198.569 419.4 198.569 417.5C198.569 334.6 198.569 251.7 198.569 168.8C198.569 159.8 201.417 152.6 209.554 147.9C212.504 146.2 215.657 145.5 218.912 144.8C220.947 144.2 222.981 144.5 225.015 144.5C349.212 144.5 473.409 144.5 597.606 144.5C598.929 144.2 600.048 143.5 601.472 143.6C615.102 143.3 628.732 143.3 642.362 143.6C643.583 143.6 644.905 143.7 646.126 143.6C656.602 143.5 667.079 143.5 677.556 143.6C690.983 143.7 700.137 151.6 702.579 164.5C703.596 169.8 703.494 175.1 703.494 180.4C703.494 192.9 703.596 205.3 703.392 217.8C703.291 218.7 703.189 219.6 703.087 220.5C702.986 221.1 702.884 221.7 702.68 222.2C702.07 232.5 702.274 242.9 702.68 253.2C702.274 256 702.375 258.8 702.375 261.7C702.375 314.1 702.375 366.5 702.375 418.8C702.375 421.5 703.494 425.1 700.748 426.7C697.9 428.3 695.458 425.4 693.119 424C687.219 420.7 681.727 416.8 675.318 414.5C673.894 414 672.572 413.1 671.86 411.8C670.538 408.8 670.944 405.6 670.944 402.4C670.944 330.6 670.944 258.8 670.944 187C670.944 177.7 670.945 177.7 661.485 177.7C520.81 177.7 380.134 177.7 239.459 177.7C229.898 177.7 229.898 177.7 229.898 187C229.898 404.1 229.898 621.2 229.898 838.3C229.898 847.3 229.898 847.3 239.154 847.3C380.033 847.3 520.81 847.3 661.688 847.3C671.046 847.3 671.046 847.3 671.046 837.8C671.046 718.5 671.046 599.2 671.046 479.9C671.046 476.6 670.334 473.2 672.369 470.2C674.606 469 676.335 470.5 678.065 471.4C684.88 475.1 691.593 479.1 698.307 482.9C700.646 484.2 701.867 485.9 701.867 488.9C701.663 610.5 701.765 732 701.765 853.6C701.765 855.6 701.968 857.6 701.561 859.6C699.324 872.7 688.237 880.1 676.132 879.8C659.044 879.4 641.955 879.7 624.867 879.7C623.239 879.7 621.51 879.9 619.882 880.1C619.475 880.4 618.967 880.7 618.458 881C617.645 881.3 616.831 881.4 616.017 881.4C612.152 881.5 608.287 881.5 604.421 881.4C603.608 881.4 602.794 881.3 601.98 881C601.472 880.8 601.065 880.4 600.556 880.1C588.248 880 575.839 879.8 563.531 879.8C549.494 879.7 535.355 879.9 521.318 879.7C517.25 879.6 516.843 880.6 517.758 884.5C524.573 913.9 530.981 943.3 537.593 972.8C542.781 996.3 548.07 1019.8 553.257 1043.3C556.411 1057.7 559.666 1072 562.819 1086.5C563.124 1087.9 564.345 1090.3 561.598 1091C558.343 1091.9 559.36 1088.9 559.055 1087.6C556.919 1079 555.088 1070.3 553.054 1061.7C548.985 1043.6 545.018 1025.4 540.848 1007.3C536.983 990.3 533.423 973.2 529.557 956.2C525.183 936.8 521.522 917.4 516.436 898.2C515.215 893.5 513.689 888.7 513.486 883.8C513.283 880.3 511.35 879.9 508.502 879.9C490.498 880 472.596 879.9 454.592 879.9C433.536 879.9 412.582 879.9 391.527 879.9C388.78 879.9 387.357 880.1 386.543 883.6C381.457 907.1 375.964 930.5 370.675 954C362.537 990.3 354.502 1026.5 346.364 1062.8C344.533 1071.1 342.804 1079.5 341.177 1087.9C340.872 1089.6 340.77 1091.3 338.329 1091.3C337.006 1091.3 335.989 1091.6 336.498 1089.2C340.058 1072.4 343.821 1055.6 347.483 1038.8C350.535 1024.7 353.79 1010.6 356.841 996.4C361.113 976.8 365.894 957.3 369.759 937.6C372.811 922.2 376.778 907 380.745 891.8C383.796 880.1 384 880.1 371.489 880.1C320.528 880.1 269.466 880.2 218.506 880C209.351 880 199.586 871.3 199.179 861.8C198.467 843 198.772 824.2 198.671 805.4C198.671 797.4 198.569 789.4 198.569 781.4C197.653 780.3 197.348 779.1 197.247 777.7C196.738 772.1 197.043 766.4 197.043 760.8C197.145 721.3 196.84 681.7 197.145 642.2C197.145 640.9 197.043 639.7 197.145 638.4C197.043 632.8 197.043 627.2 197.145 621.7C197.145 620.7 197.145 619.8 197.145 618.8C196.84 589.9 196.84 560.9 197.145 532C197.145 531 197.145 530.1 197.145 529.1C196.941 506.4 196.84 483.8 197.145 461.1C197.145 460.2 197.145 459.2 197.145 458.3C196.941 448.1 197.043 437.9 197.145 427.7C197.247 426.8 197.348 425.9 197.552 425C197.755 424 198.06 423.5 198.366 423Z" fill="black"/>
<path d="M791.682 655C791.988 653.6 791.377 652.1 792.598 650.9C793.615 648 793.615 644.9 794.734 642C797.073 631.5 799.311 620.9 801.854 610.4C804.397 599.8 807.347 589.3 809.991 578.7C812.534 568.5 814.874 558.2 817.315 548C819.349 547 821.587 547.4 823.825 547.4C851.797 547.3 879.769 548.7 907.843 548.6C915.981 548.6 924.322 548.6 932.459 550.2C934.9 552.2 934.392 554.9 934.086 557.6C932.561 561.6 929.204 564.3 926.356 567.3C914.15 580.4 902.045 593.6 889.738 606.6C883.024 613.7 876.515 620.9 870.005 628C865.834 632.6 865.834 637.8 870.513 642.2C879.159 650.4 888.212 658.1 897.061 666.1C906.928 674.9 916.794 683.8 926.661 692.6C930.323 695.9 934.188 698.7 937.647 702.2C939.376 704 941.207 705.8 941.41 708.5C943.038 721.6 943.037 734.7 943.648 747.8C944.462 763.6 945.682 779.3 945.784 795.1C945.784 796.7 946.191 798.4 945.275 800C943.241 801.6 940.8 801.3 938.562 801.4C932.154 801.5 925.745 801.2 919.439 802C897.57 800.9 875.599 801.8 853.73 801.5C849.661 801.4 845.592 801.6 841.625 801.4C829.826 801.3 818.129 800.3 806.33 799.9C795.751 799.5 785.172 798.5 774.492 798.5C771.135 798.5 767.779 798.3 764.422 797.8C760.862 797.3 758.828 795.7 759.54 791.9C762.184 774.2 767.169 756.9 771.339 739.5C777.747 712.5 783.952 685.5 790.869 658.7C791.275 657.5 790.564 656.1 791.682 655Z" fill="#8F3600"/>
<path d="M932.968 558.8C932.968 556.2 932.866 553.5 932.866 550.9C931.544 549.3 932.053 547.4 932.154 545.6C934.392 517.9 936.834 490.2 939.173 462.5C941.004 440.6 942.835 418.7 944.666 396.8C946.191 378.4 947.615 360 949.65 341.6C949.853 339.9 949.853 338.3 951.074 336.9C955.041 334.7 959.11 335 963.178 336.5C964.297 337.5 964.094 338.9 964.094 340.2C963.89 359.5 963.992 378.8 964.094 398.2C964.094 403 962.771 405.9 957.686 407.3C952.701 408.6 950.057 412.5 949.853 417.8C949.853 418.5 949.853 417.6 949.853 418.3C948.633 435.6 956.668 436.4 970.604 435.1C972.333 434.9 973.757 433.9 975.079 432.8C982.81 426.2 980.47 410.8 970.909 407.2C966.738 405.7 965.111 403.4 965.111 399.1C965.213 380.1 965.111 361.1 965.111 342.1C965.111 340.4 965.111 338.8 965.925 337.2C966.738 336 968.061 335.6 969.485 335.6C982.098 335.8 994.812 334.1 1007.32 337.4C1023.19 341.6 1035.4 350.1 1042.11 365.3C1043.03 367.5 1043.84 369.6 1043.64 372C1043.03 380.6 1042.52 389.2 1042.01 397.8C1039.87 432 1037.74 466.2 1035.6 500.3C1034.28 522.2 1032.85 544.1 1031.43 566C1030.82 574.4 1030.82 574.4 1021.87 573.4C1010.99 572.1 1000 571.1 989.014 569.7C985.149 569.2 983.42 570 983.013 574.1C982.606 578.7 981.996 583.4 978.944 587.3C976.91 589 975.486 587.5 974.164 586.3C966.738 580 959.516 573.5 952.295 566.9C950.565 565.3 948.734 563.8 947.107 562.1C943.038 558.4 938.054 558.4 932.968 558.8Z" fill="#6DB5DE"/>
<path d="M760.048 790.9C759.438 794.6 760.557 796.3 764.931 796.5C782.528 797.1 800.125 798.1 817.722 799C825.452 799.4 833.284 799.8 841.015 800.2C843.965 802.4 844.27 805.9 845.49 809C855.967 835.9 866.342 862.8 876.921 889.6C881.396 901.4 885.669 913.2 890.856 924.8C891.568 926.9 892.28 929.1 893.094 931.2C901.13 952 909.369 972.6 917.303 993.4C917.71 994.3 918.015 995.2 918.421 996.1C920.252 1001.6 922.49 1006.9 924.524 1012.2C924.931 1013.8 925.847 1015.3 925.44 1017C925.44 1017.4 925.44 1017.7 925.44 1018.1C923.609 1019.7 921.371 1019.6 919.235 1019.6C895.535 1019.7 871.835 1019.6 848.135 1019.6C845.796 1019.6 843.354 1019.9 841.524 1017.9C833.691 998.1 825.859 978.4 818.027 958.6C806.94 930.9 795.751 903.3 784.562 875.6C777.747 858.8 771.034 841.9 764.32 825.1C761.981 819.3 760.353 813.2 759.946 806.9C759.031 805 760.252 802.8 759.133 800.9C759.133 797.7 759.133 794.4 759.133 791.2C759.336 790.5 759.641 790.4 760.048 790.9Z" fill="#FD9993"/>
<path d="M951.176 337C949.752 355.3 948.328 373.5 946.802 391.7C944.564 417.9 942.326 444.1 940.089 470.3C937.749 497.2 935.308 524 932.968 550.9C908.454 550.5 883.839 550.5 859.325 549.7C847.017 549.3 834.607 549.3 822.299 549C820.57 549 818.943 549 817.417 548C816.908 547 817.214 546.3 818.129 545.7C823.724 524.5 832.98 504.7 841.728 484.7C859.223 444.8 878.651 405.7 894.824 365.2C897.977 357.3 900.724 349.2 903.877 341.3C904.691 339.3 905.098 337.1 907.336 336C910.896 335 914.456 335.5 918.118 335.4C927.272 335.2 936.529 335.3 945.683 335.3C947.311 335.3 949.04 335.3 950.566 336.2C950.769 336.6 950.972 336.8 951.176 337Z" fill="black"/>
<path d="M906.521 337.3C889.738 385.9 866.648 431.8 845.796 478.6C836.54 499.3 827.69 520.1 820.061 541.4C819.553 542.9 819.553 544.7 818.027 545.8C818.943 538.1 819.858 530.3 820.977 521.3C814.874 527.9 809.279 533.8 800.735 535.1C797.378 535.6 794.022 535.6 790.665 535.1C787.105 534.8 783.952 533.6 780.798 532C764.523 523.6 748.147 515.3 731.872 506.9C728.312 505.1 724.955 502.9 721.293 501.3C718.852 500.2 717.733 498.8 718.547 496.2C726.685 481.5 734.822 466.9 743.061 452.3C746.926 446.4 747.74 446.1 753.945 449.5C760.862 453.4 767.982 456.9 774.695 461C778.255 463.2 780.29 462.6 782.528 459.2C796.26 438.4 809.686 417.4 823.418 396.6C828.402 389 833.183 381.4 838.269 373.9C841.219 369.4 843.66 364.7 845.999 359.9C853.018 344.7 865.834 337.3 882.414 335.8C889.128 335.2 895.943 335.6 902.758 335.7C903.979 335.8 905.606 335.7 906.521 337.3Z" fill="#6DB5DE"/>
<path d="M919.948 800.8C928.187 799.5 936.426 801 944.665 800C947.106 801.3 946.699 803.7 946.699 805.7C947.208 830 949.039 854.2 950.056 878.4C950.463 887.8 950.361 897.3 951.582 906.8C952.09 911.2 953.921 912.4 957.99 912.3C968.975 912.2 979.961 912.2 991.048 912.3C993.591 912.3 996.134 912 998.371 913.7C999.592 915.3 999.592 917.1 999.592 918.9C999.592 943.6 999.795 968.3 999.49 993C999.49 993.9 999.388 994.9 999.49 995.8C999.592 1001.3 999.694 1006.7 999.388 1012.2C999.287 1013.4 999.083 1014.6 997.964 1015.5C997.863 1016.3 997.863 1017 997.761 1017.8C996.032 1019.5 993.794 1019.4 991.556 1019.4C972.637 1019.5 953.819 1019.5 934.9 1019.4C932.866 1019.4 930.831 1019.5 929.102 1018C928.594 1017 927.576 1016.8 926.559 1016.6C925.542 1015.4 925.339 1013.9 925.237 1012.5C925.339 1006.9 923.61 1001.5 924.118 995.9C924.118 995 924.118 994.1 924.118 993.1C923.813 977.1 923.203 961.2 922.694 945.2C922.084 928.3 922.084 911.3 920.965 894.3C920.863 892.8 920.965 891.3 921.067 889.8C921.067 875.2 920.253 860.6 919.642 846C919.134 832.6 919.642 819.1 918.422 805.7C918.422 804.1 918.422 802.3 919.948 800.8Z" fill="#FD9993"/>
<path d="M841.524 1017.8C869.496 1017.9 897.57 1017.9 925.542 1018C920.253 1040.8 914.964 1063.7 909.674 1086.5C909.369 1087.8 909.572 1089.1 909.471 1090.5C908.454 1092.2 906.724 1091.4 905.402 1091.4C860.138 1091.5 814.874 1091.5 769.61 1091.4C768.186 1091.4 766.558 1092.1 765.338 1090.6L765.541 1090.4L765.338 1090.2C766.355 1088.6 765.338 1086.7 766.152 1085C768.186 1073 774.899 1064.1 784.867 1057.3C798.599 1047.9 812.229 1038.4 825.859 1028.9C830.945 1025.2 836.235 1021.5 841.524 1017.8Z" fill="black"/>
<path d="M963.178 337.2C959.211 337.1 955.244 337.1 951.175 337L951.277 337.1C949.853 335.6 949.649 333.8 949.853 332C951.582 313.4 945.784 296.6 937.952 280.1C933.476 270.6 929.306 260.9 925.644 251.1C923.61 245.7 920.151 243.3 914.659 243.5C906.013 243.8 897.468 242.1 888.822 242.3C885.669 242.4 882.211 242.2 881.092 238.2C881.702 228.5 887.195 221.5 897.773 219.6C914.964 216.4 932.154 215 949.548 219.4C966.535 223.7 976.299 233.4 978.029 250.7C978.13 251.9 977.825 253 977.011 253.9C977.52 263.2 977.011 272.5 975.079 281.7C974.773 283.1 973.655 284.8 976.808 285.2C998.982 288.2 1005.9 295.8 1006.61 317.7C1006.61 318 1006.71 318.3 1006.81 318.6C1031.63 313.6 1044.55 317.1 1051.77 331.2C1057.67 342.7 1056.66 362.7 1043.84 372.1C1041.4 369.2 1041.3 365.4 1039.47 362.2C1030.01 346.6 1015.56 338.7 997.66 337.3C987.488 336.5 977.113 337.2 966.84 337.3C965.314 338 964.195 338.1 963.178 337.2Z" fill="black"/>
<path d="M929.306 1018.2C952.193 1018.1 974.978 1018.1 997.864 1018C1007.73 1041.3 1017.7 1064.6 1027.57 1087.9C1027.87 1088.6 1028.38 1089.3 1028.89 1090C1028.48 1092 1026.85 1091.4 1025.63 1091.4C988.709 1091.4 951.786 1091.4 914.862 1091.4C914.049 1091.4 913.133 1091.5 912.828 1090.5C916.388 1074.9 919.948 1059.3 923.61 1043.7C925.441 1035.2 927.374 1026.7 929.306 1018.2Z" fill="black"/>
<path d="M743.671 452.9C736.144 466.5 728.719 480.1 721.192 493.7C720.581 494.8 720.073 496.2 718.344 496.3C713.156 493.6 708.07 491 702.069 487.9C702.069 490.2 702.069 492.1 702.069 494C702.069 613.8 702.069 733.5 702.069 853.3C702.069 855.4 702.781 857.6 701.357 859.6C701.357 737.3 701.357 615.1 701.459 492.8C701.459 488.3 700.442 485.6 696.17 483.5C688.236 479.5 680.607 474.8 672.877 470.4C667.893 470.5 664.434 467.2 660.671 464.9C642.26 453.5 625.477 440 610.118 424.8C602.693 417.4 603.506 402.1 611.237 395.5C613.169 395 614.491 396 615.814 397.1C620.798 401.4 626.189 405.3 631.173 410.6C628.223 404 630.359 399.9 637.276 397.3C639.005 396.9 640.633 397.2 642.158 397.9C651.109 401.7 660.06 405.5 669.113 409.2C670.537 409.8 671.758 410.7 672.47 412C677.555 413.8 682.54 415.6 687.117 418.6C691.389 421.5 695.966 424 700.442 426.7C701.764 424.7 701.255 422.8 701.255 421.1C701.255 367.1 701.255 313.2 701.255 259.2C701.255 257.2 701.459 255.2 701.561 253.2C701.866 253.4 702.069 253.5 702.374 253.7C704.002 256.3 703.493 259.2 703.493 262C703.493 313.8 703.697 365.5 703.391 417.3C703.391 424.4 705.528 428.7 711.834 432C721.192 437 730.143 442.8 739.094 448.4C741.026 449.6 743.061 450.5 743.671 452.9Z" fill="#FD9993"/>
<path d="M198.468 423.9C198.468 424.6 198.468 425.4 198.468 426.1C195.111 428.5 191.246 427.4 187.686 427.5C184.329 427.6 182.701 428.8 182.803 432.2C183.007 438.5 182.6 444.8 183.108 451.1C183.414 454.9 185.143 456.7 189.211 456.6C192.365 456.5 195.62 455.8 198.468 458C198.468 458.7 198.468 459.5 198.366 460.2C195.721 462.2 192.466 461.6 189.517 461.5C185.448 461.4 183.617 463 183.312 466.9C183.108 469 182.803 471.2 182.803 473.3C182.803 489.2 182.803 505.2 182.803 521.1C182.803 527 183.21 527.2 189.11 527.4C192.263 527.5 195.62 526.7 198.366 528.9C198.366 529.6 198.366 530.4 198.264 531.1C195.009 533.3 191.347 532.3 187.889 532.4C184.227 532.5 182.702 533.9 182.702 537.5C182.702 558.8 182.498 580 182.803 601.3C182.905 608.8 186.77 614.2 194.399 616.5C195.925 617 197.247 617.5 198.264 618.7C198.264 619.4 198.264 620.2 198.366 620.9C195.62 623.2 192.263 622.5 189.11 622.5C131.842 622.5 74.6772 622.5 17.41 622.5C16.0877 622.5 14.6636 622.5 13.3413 622.5C5.30559 622.5 2.96611 625.6 5.10218 633.4C5.61077 635.1 6.62792 635.9 8.25541 636.1C10.4932 636.4 12.6293 636.3 14.8671 636.3C72.948 636.3 131.029 636.3 189.11 636.3C192.263 636.3 195.62 635.6 198.366 637.9C198.366 638.9 198.366 639.9 198.366 640.9C195.925 643.1 192.975 642.6 190.127 642.6C158.594 642.6 127.062 642.6 95.5292 642.6C93.8 642.6 92.1726 642.7 90.4434 642.7C87.3918 642.7 86.1712 644.2 86.1712 647C86.1712 648.3 86.1712 649.7 86.1712 651C86.1712 690 86.1712 729 86.1712 768C86.1712 776.4 86.1712 776.4 94.5121 776.4C126.248 776.4 157.882 776.4 189.618 776.4C192.568 776.4 195.823 775.8 198.366 778.1C198.366 779.1 198.366 780.1 198.366 781C160.73 781 123.197 781.1 85.561 781.1C84.5438 783 85.0524 785 85.0524 787C85.0524 886 85.0524 985.1 84.9507 1084.1C84.9507 1086 85.561 1088.1 84.4421 1090L84.5438 1089.9C78.8476 1091 73.0497 1090.5 67.3534 1090.1C66.0311 1088.1 66.6415 1085.9 66.6415 1083.8C66.6415 938.4 66.6415 793 66.6415 647.6C66.6415 639.9 67.4552 640.8 59.5212 640.7C41.4155 640.7 23.3097 640.5 5.10218 640.8C0.931748 640.9 0.0162377 639.5 0.219673 635.8C0.524827 630.3 0.321366 624.8 0.321366 619.3C1.94885 617.8 3.88157 618.6 5.61077 618.6C44.1618 618.5 82.6112 618.6 121.162 618.5C122.79 618.5 125.231 620 126.35 617.2C121.06 613.2 119.331 607.9 119.433 601.3C119.636 559.4 119.535 517.5 119.535 475.5C119.535 472.6 119.636 470.2 115.873 469.2C111.397 468 114.449 463.6 112.923 461.1C101.836 460 90.8502 460.9 79.763 460.5C78.0338 460.4 76.1012 461.3 74.5754 459.8C75.3891 457.1 77.6269 458.2 79.2544 458.2C89.2227 458.1 99.1911 458.1 109.159 458.2C111.804 458.2 113.94 458.1 113.432 454.6C113.228 453 113.94 451 115.364 450.9C120.959 450.3 119.331 446.4 119.535 443.2C119.942 436.8 118.518 430.3 120.348 424C132.148 423.6 144.049 423.2 155.848 424.2L155.746 424.1C157.069 430.3 155.95 436.5 156.357 442.7C156.56 445.1 155.746 447.6 156.865 450C160.12 450.4 162.358 451.8 161.951 455.5C161.748 457.8 162.968 458.3 165.003 458.2C168.97 458 174.361 459.9 173.445 452.6C173.343 451.6 174.361 451 175.073 451C180.362 450.8 179.243 447 179.243 443.9C179.243 437.4 179.243 430.9 179.243 424.4C185.651 422.9 192.06 423.5 198.468 423.9Z" fill="#5983AF"/>
<path d="M977.52 588C980.368 583.1 981.588 577.8 981.486 572.3C981.385 568.2 983.216 567.6 986.674 568.1C998.676 569.5 1010.78 570.8 1022.78 572.2C1030 573 1030 573.1 1031.23 566.2C1030.62 580.2 1030.11 594.2 1029.5 608.2C1029.39 610.2 1029.5 612.2 1029.5 614.1C1030.31 615 1030.72 616.1 1030.72 617.4C1031.02 622.9 1029.29 628.4 1029.8 633.9C1029.9 642.1 1028.78 650.2 1028.48 658.3C1028.17 667.4 1024.82 675.3 1015.76 679.5C1010.17 682.1 1008.24 681 1007.53 675C1007.53 666.5 1007.22 658.1 1008.24 649.6C1007.02 657.1 1006.2 664.6 1006.41 672.3C1006.51 675.1 1007.02 678 1004.98 680.4C1002.03 681.8 998.982 681.8 996.032 680.5C993.184 676.8 994.303 672.5 994.811 668.5C995.625 661.9 995.116 655.3 994.913 648.7C993.896 658.7 995.218 668.9 992.268 678.7C987.895 680.7 985.352 677.8 983.012 675C981.079 672.7 980.062 669.8 979.452 666.8C978.231 660.4 976.604 654.1 976.604 647.6C977.723 644.6 978.231 641.5 978.13 638.3C977.723 630.5 978.74 622.7 978.638 614.9C978.435 620.7 977.011 626.4 977.011 632.2C977.011 634.7 977.418 637.2 976.095 639.5C973.451 640.9 973.247 638.4 972.739 637.2C967.348 625.8 965.314 614 970.603 602C972.841 597.4 973.349 591.8 977.52 588Z" fill="#FD9993"/>
<path d="M1029.6 616.7C1029.6 615.8 1029.6 614.9 1029.6 614.1C1102.02 614.1 1174.34 614.1 1246.77 614.2C1254.19 614.2 1253.28 613.5 1253.28 620.6C1253.28 627.4 1253.28 634.3 1253.28 641.1C1248.7 642.1 1244.12 641.3 1239.44 641.6C1237.71 641.7 1235.78 641.1 1234.15 642.1C1234.05 644.2 1233.75 646.4 1233.75 648.5C1233.75 768.6 1233.75 888.6 1233.75 1008.7C1233.75 1015.8 1233.75 1015.8 1226.63 1015.8C1223.27 1015.8 1219.81 1016 1216.45 1015.7C1212.59 1015.4 1211.27 1016.6 1211.27 1020.6C1211.47 1041.7 1211.37 1062.9 1211.37 1084C1211.37 1086 1211.57 1088 1210.55 1089.8C1199.06 1090.9 1187.57 1090.4 1176.07 1090.1C1174.85 1088.5 1175.36 1086.6 1175.36 1084.8C1175.36 1063.7 1175.16 1042.5 1175.46 1021.4C1175.46 1016.9 1174.34 1015.6 1169.66 1015.6C1112.5 1015.8 1055.23 1015.7 998.066 1015.7C998.066 1014.8 998.066 1014 998.066 1013.1C1000.81 1010.6 1004.17 1011.3 1007.32 1011.3C1072.63 1011.3 1137.83 1011.3 1203.13 1011.3C1210.05 1011.3 1217.06 1011.2 1223.98 1011.3C1227.85 1011.3 1229.68 1009.8 1229.37 1006C1229.27 1004.5 1229.37 1003 1229.37 1001.5C1229.37 885.2 1229.37 768.9 1229.37 652.6C1229.37 642.6 1229.37 642.6 1219 642.6C1160.81 642.6 1102.73 642.6 1044.55 642.6C1042.52 642.6 1040.48 642.4 1038.45 642.5C1036.11 641.9 1033.46 641.7 1035.4 638.2C1038.24 636.9 1041.4 637.3 1044.45 637.3C1109.14 637.3 1173.83 637.3 1238.53 637.3C1240.26 637.3 1241.88 637.3 1243.61 637.3C1249.21 637.2 1249.72 636.7 1249.72 631.2C1249.72 617 1251.04 618.6 1237 618.6C1170.99 618.6 1104.87 618.6 1038.86 618.5C1035.6 618.6 1032.24 619.4 1029.6 616.7Z" fill="#5D86B1"/>
<path d="M976.807 254C976.807 253 976.705 252 976.705 251C979.35 248.8 982.503 249.4 985.453 249.4C1021.36 249.4 1057.27 249.4 1093.27 249.4C1094.09 249.4 1095 249.4 1095.82 249.4C1104.16 249.4 1104.16 249.4 1104.16 241C1104.16 165 1104.16 89.1 1104.16 13.1C1104.16 11.6 1104.16 10.1 1104.06 8.60005C1103.95 6.20005 1102.73 5.00004 1100.29 4.90004C1098.56 4.80004 1096.94 4.80005 1095.21 4.80005C934.086 4.80005 772.864 4.80005 611.744 4.80005C611.235 4.80005 610.727 4.80005 610.218 4.80005C603.403 4.90005 603.098 5.10004 603.098 11.9C603.098 53.4 603.098 94.9 603.098 136.3C603.098 139.2 603.81 142.4 601.572 144.9C600.555 144.9 599.538 144.9 598.521 144.9C598.114 144.7 598.012 144.6 598.114 144.4C598.216 144.2 598.317 144.1 598.419 144.1C598.521 142.1 598.826 140.1 598.826 138.2C598.826 94.1 598.927 49.9 598.724 5.80005C598.724 1.50005 599.64 0.300049 604.217 0.300049C770.423 0.400049 936.629 0.40004 1102.83 0.40004C1104.67 0.40004 1106.6 -0.0999572 1108.23 1.20004C1108.84 2.80004 1108.53 4.50005 1108.53 6.10005C1108.53 86.8 1108.53 167.5 1108.53 248.2C1108.53 249.8 1108.94 251.5 1108.02 253.1C1106.29 254 1104.36 253.5 1102.53 253.5C1062.76 253.5 1023.09 253.5 983.317 253.5C981.486 253.5 979.554 253 977.824 254H977.417H976.807Z" fill="#6289B3"/>
<path d="M598.217 144.1C598.318 144.4 598.318 144.7 598.318 144.9C595.063 144.9 591.91 145 588.655 145C467.103 145 345.55 145 223.998 145C222.269 145 220.641 144.9 218.912 144.9C220.743 143.4 222.777 144.1 224.812 144.1C349.314 144 473.816 144.1 598.217 144.1Z" fill="#FCFCFC"/>
<path d="M84.6456 1089.9C84.6456 1087.7 84.7473 1085.6 84.7473 1083.4C84.7473 984.5 84.7473 885.5 84.8491 786.6C84.8491 784.8 83.9332 782.6 85.7651 781C85.7651 881.9 85.7651 982.8 85.7651 1083.7C85.6633 1085.8 86.5793 1088.2 84.6456 1089.9Z" fill="#FCFCFC"/>
<path d="M1107.92 253C1107.92 178.9 1107.92 104.7 1108.02 30.6C1108.02 20.8 1108.02 10.9 1108.02 1.09998C1109.55 2.69998 1108.84 4.59997 1108.84 6.29997C1108.84 86.8 1108.84 167.3 1108.84 247.8C1108.84 249.6 1109.55 251.6 1107.92 253Z" fill="#FCFCFC"/>
<path d="M760.048 790.9C759.743 791 759.336 791 759.031 791.1C759.54 787 759.642 782.8 760.557 778.9C768.593 745.8 776.832 712.8 784.969 679.7C787.004 671.4 788.326 662.9 791.581 655C789.547 668.3 785.783 681.2 782.732 694.3C775.408 726.5 767.677 758.7 760.048 790.9Z" fill="#FCFCFC"/>
<path d="M618.764 880C619.069 879.8 619.374 879.8 619.679 880C619.679 948.1 619.679 1016.2 619.679 1084.3C619.679 1086.2 620.391 1088.3 618.764 1090C618.56 1089.8 618.255 1089.5 618.052 1089.3C616.933 1087.3 617.238 1085.1 617.238 1082.9C617.238 1017.6 617.238 952.3 617.238 887.1C617.238 884.7 616.73 882 618.764 880Z" fill="#FCFCFC"/>
<path d="M600.352 880C600.657 879.8 600.962 879.8 601.268 880C602.997 881.7 602.793 884 602.793 886.1C602.793 952 602.793 1017.9 602.793 1083.9C602.793 1085.7 602.997 1087.6 602.081 1089.3C601.878 1089.5 601.573 1089.8 601.369 1090C599.64 1088.3 600.454 1086.2 600.454 1084.3C600.352 1016.2 600.352 948.1 600.352 880Z" fill="#FCFCFC"/>
<path d="M765.236 1090.6C766.864 1090.8 768.593 1091.1 770.22 1091.1C814.976 1091.1 859.629 1091.1 904.385 1091.1C906.114 1091.1 907.742 1091.4 909.369 1090.5C908.454 1092.6 906.521 1091.9 904.995 1091.9C859.935 1091.9 814.772 1091.9 769.712 1091.9C768.186 1091.9 766.253 1092.6 765.236 1090.6Z" fill="#FCFCFC"/>
<path d="M977.724 254C979.351 252.6 981.284 253.3 983.115 253.3C1022.48 253.3 1061.94 253.3 1101.31 253.3C1103.55 253.3 1105.68 253.1 1107.92 253.1C1106.4 254.7 1104.46 254.1 1102.63 254.1C1060.93 254.1 1019.33 254 977.724 254Z" fill="#FCFCFC"/>
<path d="M126.35 617.1C127.367 617.8 127.367 618.5 126.146 618.6C124.621 618.8 123.095 618.7 121.569 618.7C83.3234 618.7 45.0777 618.7 6.93375 618.7C4.79769 618.7 2.55989 619 0.423828 619.2C1.84787 617.1 4.08564 618 6.01827 618C44.1622 617.9 82.4079 618 120.552 617.9C122.484 617.9 124.519 618.6 126.35 617.1Z" fill="#FCFCFC"/>
<path d="M912.727 1090.5C914.456 1091.5 916.388 1091.1 918.219 1091.1C953.413 1091.1 988.607 1091.1 1023.8 1091.1C1025.43 1091.1 1027.57 1092.2 1028.79 1090C1029.4 1093.2 1026.85 1091.9 1025.73 1091.9C1015.97 1092 1006.1 1092 996.338 1092C970.298 1092 944.259 1092 918.219 1092C916.287 1091.9 913.947 1092.9 912.727 1090.5Z" fill="#FCFCFC"/>
<path d="M457.744 107.9C457.947 111.9 454.998 112.4 453.472 113.9C449.098 118 444.521 121.9 439.842 125.8C439.232 126.3 438.215 127.4 437.198 126.5C436.486 125.9 436.689 124.7 437.299 124.3C444.216 119.2 449.607 112.4 457.744 107.9Z" fill="#668CB5"/>
<path d="M1150.03 479.9C1150.64 480.4 1151.15 480.7 1151.56 481.2C1156.44 486.7 1161.32 492.2 1166.1 497.8C1166.81 498.6 1168.14 499.5 1166.51 500.6C1165.29 501.4 1164.58 500.4 1164.07 499.7C1159.8 494.2 1155.12 489.1 1150.24 484.1C1149.42 483.3 1148.61 482.3 1148.91 481C1149.01 480.6 1149.52 480.3 1150.03 479.9Z" fill="#658BB5"/>
<path d="M152.797 343.8C159.001 337.4 165.206 332 171.817 327.1C172.631 326.5 173.139 325.6 174.258 326.7C174.868 327.3 174.868 327.9 174.258 328.4C167.749 333.5 162.256 339.8 155.034 344.1C154.526 344.2 153.916 343.9 152.797 343.8Z" fill="#668CB5"/>
<path d="M156.052 136.6C152.797 137.4 152.288 135.6 151.271 134.7C146.083 130.1 141.811 124.6 137.437 119.3C136.725 118.4 136.42 117.5 137.234 116.8C137.437 116.6 138.556 116.9 138.963 117.3C144.558 123.5 150.05 129.8 156.052 136.6Z" fill="#648BB4"/>
<path d="M74.5752 459.7C85.561 460.9 96.6484 459.9 107.736 460.3C109.465 460.4 111.398 459.6 113.025 461C101.938 461 90.7487 461 79.6612 461C77.932 461 75.7958 461.8 74.5752 459.7Z" fill="#FCFCFC"/>
<path d="M155.848 424.1C144.049 424 132.148 424 120.349 423.9C123.298 422.1 126.553 423.2 129.605 423.1C136.827 422.9 143.947 423 151.169 423.1C152.796 423 154.627 422.5 155.848 424.1Z" fill="#FCFCFC"/>
<path d="M1176.07 1090.1C1187.57 1090 1199.06 1089.9 1210.55 1089.8C1209.74 1090.9 1208.52 1090.9 1207.4 1090.9C1197.94 1090.9 1188.38 1090.9 1178.92 1090.9C1177.9 1090.9 1176.89 1090.9 1176.07 1090.1Z" fill="#FCFCFC"/>
<path d="M156.864 449.9C154.831 446.6 156.153 442.9 155.949 439.4C155.644 434.3 155.746 429.1 155.746 424C157.881 426.3 156.661 429 156.763 431.6C157.068 437.7 156.864 443.8 156.864 449.9Z" fill="#FCFCFC"/>
<path d="M1234.15 642C1240.46 640.1 1246.97 642 1253.28 641C1247.07 643.2 1240.56 641.4 1234.15 642Z" fill="#FCFCFC"/>
<path d="M198.468 423.9C192.059 424 185.752 424.1 179.344 424.3C182.599 421.7 186.363 423.5 189.923 423.1C192.771 422.8 195.619 423 198.468 423C198.569 423.3 198.569 423.6 198.468 423.9Z" fill="#FCFCFC"/>
<path d="M67.4551 1090.1C73.1513 1090 78.9493 1089.9 84.6455 1089.9C78.9493 1091.8 73.253 1091.3 67.4551 1090.1Z" fill="#FCFCFC"/>
<path d="M618.764 1090C612.966 1091.4 607.167 1091.5 601.369 1090L601.471 1089.9C607.167 1087.8 612.966 1087.7 618.764 1090Z" fill="#FCFCFC"/>
<path d="M794.734 642C794.734 645.1 794.226 648.1 792.598 650.9C792.497 647.7 792.802 644.6 794.734 642Z" fill="#FCFCFC"/>
<path d="M926.558 1012.9C926.66 1014.2 926.66 1015.5 926.762 1016.8C926.355 1016.9 925.948 1017 925.542 1017C924.525 1015.9 923.915 1014.6 923.813 1013C924.728 1012.1 925.643 1012.1 926.558 1012.9Z" fill="#8D9AB7"/>
<path d="M790.563 535.2C793.92 535.2 797.276 535.2 800.633 535.2C797.276 536.5 793.92 536.5 790.563 535.2Z" fill="#FCFCFC"/>
<path d="M759.031 800.9C760.353 802.8 759.844 804.9 759.844 806.9C758.32 805.1 759.336 802.9 759.031 800.9Z" fill="#FCFCFC"/>
<path d="M765.948 1084.9C765.643 1086.6 765.44 1088.4 765.135 1090.1C765.236 1088.4 764.525 1086.5 765.948 1084.9Z" fill="#FCFCFC"/>
<path d="M611.745 395.7C603.912 405.3 604.218 417.7 613.169 426C631.275 443 650.601 458.6 672.877 470.3C672.775 472.5 672.674 474.6 672.674 476.8C672.674 598.8 672.673 720.8 672.775 842.7C672.775 847.4 672.063 849 666.672 849C522.437 848.8 378.202 848.8 233.967 849C228.881 849 227.66 847.9 227.66 842.8C227.762 622.5 227.762 402.2 227.762 181.9C227.762 174.6 226.846 175.5 234.17 175.5C378.202 175.5 522.335 175.5 666.367 175.3C671.86 175.3 672.775 176.9 672.775 181.8C672.572 258.5 672.674 335.1 672.674 411.8C662.502 407.5 652.33 403.2 642.158 398.9C640.429 398.1 638.598 397.9 636.767 398.1C631.987 396.7 629.139 392.8 625.375 390C617.543 383.9 610.016 377.4 602.387 371.1C596.996 366.6 596.894 365.6 599.132 359.1C601.065 353.5 600.454 352.6 594.656 352.4C592.317 352.3 589.672 351.8 587.638 352.6C582.552 354.6 579.297 352.1 575.838 349.2C569.227 343.7 562.717 338.1 556.004 332.8C554.986 332 553.969 331.1 552.647 330.5C550.104 329.5 547.968 330 546.239 332C544.408 334.1 544.611 336.3 546.34 338.4C548.07 340.5 550.002 342.3 552.139 344C559.259 349.7 566.175 355.5 573.194 361.3C577.568 365 577.771 366.7 573.601 370.6C560.174 383.2 539.729 389.4 519.894 381.7C499.754 373.9 487.65 356.2 487.039 336C486.327 312.8 503.314 286 537.186 285C556.614 284.4 574.72 294.3 584.078 314.4C584.281 314.9 584.485 315.3 584.688 315.8C588.35 324.7 589.367 325.2 598.928 324.6C602.285 324.4 602.997 323.1 602.183 320.1C599.742 311.1 595.979 302.9 590.283 295.4C568.108 266.2 522.437 260 493.142 286.9C473.104 305.3 466.492 328.6 474.935 354.4C483.377 380.2 502.297 395.5 529.557 399.1C551.528 402 570.651 394.9 586.112 379C588.248 376.8 590.486 375.4 593.13 377.7C598.725 382.5 604.828 386.8 610.117 392C610.931 393.2 611.846 394.2 611.745 395.7Z" fill="#ECE9E9"/>
<path d="M601.47 144.8C601.369 143.3 601.267 141.8 601.267 140.3C601.267 96.2 601.267 52 601.165 7.90004C601.165 4.20004 601.877 2.80005 606.048 2.80005C770.932 2.90005 935.815 2.90005 1100.7 2.80005C1104.67 2.80005 1105.79 3.90005 1105.79 7.80005C1105.68 87.3 1105.68 166.7 1105.79 246.2C1105.79 249.5 1105.48 251.2 1101.31 251.2C1059.81 251 1018.31 251.1 976.808 251C972.434 228.1 964.093 223.5 939.782 219.1C926.254 216.6 912.726 218.6 899.401 220.7C888.313 222.5 883.94 227.4 881.905 238.4C882.21 243.1 883.431 247.9 879.362 251.8C877.226 252.6 874.988 252.4 872.852 252.4C818.637 252.4 764.421 252.4 710.206 252.4C709.189 252.4 708.172 252.3 707.155 252.4C703.188 252.6 701.357 251.1 701.56 246.8C702.069 238.2 701.153 229.5 702.069 220.9C704.103 219.3 706.544 219.6 708.884 219.6C724.853 219.6 740.721 219.6 756.691 219.6C762.489 219.6 762.794 219.4 762.794 213.7C762.794 155.9 762.794 98.1 762.794 40.3C762.794 34.7 762.489 34.5 756.691 34.5C721.395 34.5 686.201 34.5 650.905 34.5C644.903 34.5 644.7 34.7 644.7 40.8C644.7 73 644.7 105.1 644.7 137.3C644.7 139.9 645.412 142.7 643.276 144.9C629.137 144.8 615.304 144.8 601.47 144.8Z" fill="#FEFEFE"/>
<path d="M702.07 219C701.053 212.2 701.765 205.4 701.663 198.7C701.562 188.7 701.765 178.8 701.562 168.8C701.256 154.2 691.797 145.1 676.946 145C666.673 145 656.4 145 646.025 144.9C643.99 143.8 644.092 141.9 644.092 140.1C644.092 106.5 644.092 72.8 643.99 39.2C643.99 35.3 645.516 34 649.381 34C685.49 34.1 721.498 34.1 757.607 34C761.879 34 763.1 35.6 763.1 39.6C762.998 97.9 762.998 156.1 763.1 214.4C763.1 218.3 761.981 220.1 757.607 220.1C740.722 219.9 723.736 220 706.851 220C705.223 220 703.392 220.2 702.07 219Z" fill="#FEFEFE"/>
<path d="M198.57 778C187.585 778.1 176.599 778.2 165.613 778.3C140.387 778.3 115.161 778.2 89.9355 778.4C85.9685 778.4 84.8496 777.4 84.8496 773.4C84.9513 730.8 84.9514 688.1 84.9514 645.5C84.9514 642.6 84.748 640.5 89.0201 640.5C125.13 640.7 161.138 640.6 197.248 640.6C197.756 640.6 198.265 640.8 198.773 640.8C198.57 686.6 198.57 732.3 198.57 778Z" fill="#FEFEFE"/>
<path d="M198.468 638C134.792 638 71.0152 638 7.33973 638.1C4.18648 638.1 2.96581 637.4 2.96581 634C2.76237 620.9 2.66071 620.9 15.9858 620.9C76.8131 620.9 137.64 621 198.468 621C198.468 626.7 198.468 632.3 198.468 638Z" fill="#FEFEFE"/>
<path d="M603.403 880C607.777 879.5 612.253 879.6 616.627 880C617.949 881.8 617.542 883.8 617.542 885.8C617.542 951.4 617.542 1017 617.542 1082.6C617.542 1088.9 617.339 1089 610.931 1089C609.913 1089 608.896 1088.9 607.879 1089C603.708 1089.5 602.183 1087.7 602.183 1083.6C602.284 1017.3 602.284 951.1 602.284 884.8C602.386 883.1 602.183 881.4 603.403 880Z" fill="#FEFEFE"/>
<path d="M198.366 618.8C185.956 616.8 181.582 611.8 181.582 599.4C181.582 578.8 181.582 558.2 181.582 537.6C181.582 531.3 181.582 531.3 188.296 531.3C191.652 531.3 195.009 531.3 198.468 531.2C198.366 560.4 198.366 589.6 198.366 618.8Z" fill="#FEFEFE"/>
<path d="M198.468 529C193.89 529 189.313 529 184.736 529.1C182.295 529.2 181.481 528.3 181.481 525.9C181.786 505.1 180.972 484.3 181.989 463.5C182.091 460.8 183.21 460.1 185.651 460.2C189.923 460.3 194.094 460.2 198.366 460.2C198.468 483.1 198.468 506 198.468 529Z" fill="#FEFEFE"/>
<path d="M702.069 219C720.378 218.9 738.687 218.7 756.996 218.9C761.37 218.9 762.286 217.6 762.286 213.6C762.184 155.8 762.184 98 762.286 40.2C762.286 36.1 761.37 34.9 756.996 35C721.599 35.2 686.201 35.2 650.804 35C646.735 35 645.311 35.8 645.311 40.1C645.514 73.4 645.413 106.7 645.413 140C645.413 141.7 645.209 143.3 646.125 144.9C645.108 144.9 644.09 144.9 643.073 144.8C643.073 109.7 643.175 74.6 643.175 39.4C643.175 32.1 642.259 32.9 650.092 32.9C686.506 32.9 722.921 32.9 759.336 32.8C763.201 32.8 764.523 33.6 764.523 37.7C764.422 97.1 764.422 156.6 764.523 216C764.523 219.8 763.608 221.2 759.438 221.1C740.315 220.9 721.192 221 702.069 220.9C701.967 220.3 701.967 219.6 702.069 219Z" fill="#5882AF"/>
<path d="M603.403 880C603.403 947.3 603.403 1014.6 603.505 1081.9C603.505 1083.8 602.182 1087 604.827 1087.6C608.387 1088.3 612.253 1088.1 615.813 1087.4C617.441 1087.1 616.627 1084.4 616.627 1082.8C616.627 1060.8 616.627 1038.8 616.627 1016.8C616.627 971.2 616.627 925.5 616.627 879.9C617.339 879.9 618.052 880 618.764 880C618.764 913.7 618.865 947.3 618.865 981C618.865 1015.3 618.865 1049.7 618.865 1084C618.865 1086 618.764 1088 618.662 1090C612.863 1090 607.167 1089.9 601.368 1089.9C601.267 1089.1 601.165 1088.2 601.165 1087.4C601.165 1018.3 601.165 949.1 601.165 880C601.979 880 602.691 880 603.403 880Z" fill="#5A83AF"/>
<path d="M198.468 458C195.62 458 192.772 458.1 189.822 458.1C181.787 458.1 181.685 458.1 181.583 450.1C181.482 443.3 181.685 436.5 181.481 429.7C181.38 426.8 182.397 425.9 185.245 426C189.619 426.2 193.992 426.1 198.366 426.1C198.468 436.7 198.468 447.3 198.468 458Z" fill="#FEFEFE"/>
<path d="M701.967 221C701.967 229.2 702.272 237.3 701.967 245.5C701.764 249.9 702.883 251.3 707.663 251.3C747.943 251.1 788.224 251.2 828.504 251.2C845.592 251.2 862.68 251.3 879.769 251.3C880.99 253.1 879.566 253.6 878.345 254.2C875.904 255 873.259 254.8 870.818 254.8C816.094 254.8 761.37 254.8 706.544 254.9C705.019 254.9 703.493 254.8 701.967 254.5C701.865 254.1 701.662 253.8 701.56 253.4C700.95 242.5 700.34 231.7 701.967 221Z" fill="#5881AE"/>
<path d="M997.864 914C983.624 913.9 969.485 913.7 955.244 913.9C951.277 914 950.26 912.8 950.057 908.9C948.836 880.5 947.412 852.2 945.988 823.8C945.581 815.8 945.073 807.9 944.666 799.9C943.242 768.9 941.716 737.9 940.292 707C945.073 708 947.819 711.7 951.074 714.6C958.398 721.2 965.62 728 973.248 734.3C978.639 738.7 983.623 738.3 988.302 733.1C998.779 721.4 1009.56 709.9 1020.45 698.5C1021.77 697.1 1022.78 694.3 1025.63 696.5C1028.18 703.4 1028.58 710.8 1029.6 718C1033.97 748.9 1038.86 779.8 1043.23 810.8C1043.64 813.8 1044.35 816.7 1046.89 818.7C1046.89 819.4 1046.89 819.8 1047.91 819.8C1096.73 819.1 1145.66 819.7 1194.48 819.5C1196.52 819.5 1198.55 819.2 1200.28 820.7C1200.28 823.2 1198.25 823 1196.72 823.3C1194.58 823.7 1192.35 823.5 1190.11 823.5C1145.25 823.5 1100.29 823.5 1055.44 823.5C1054.62 823.5 1053.71 823.5 1052.89 823.5C1045.57 823.6 1045.37 823.8 1046.38 830.9C1047.09 836.2 1048.01 841.4 1048.62 846.7C1049.13 850.8 1051.16 852.6 1055.33 852.3C1057.06 852.2 1058.69 852.3 1060.42 852.3C1104.67 852.3 1148.81 852.3 1193.06 852.4C1195.91 852.4 1199.67 850.9 1201.2 855.1C1198.86 856.1 1196.52 855.4 1194.18 855.4C1147.79 855.5 1101.41 855.4 1055.03 855.4C1053.4 855.4 1051.77 855.7 1049.54 854.9C1051.77 855.7 1053.4 855.4 1054.93 855.4C1101.31 855.4 1147.69 855.4 1194.08 855.5C1195.81 855.5 1198.14 854.2 1199.47 856.8C1197.03 859.3 1193.77 858.5 1190.82 858.5C1147.69 858.6 1104.67 858.5 1061.54 858.5C1060.01 858.5 1058.49 858.5 1056.96 858.5C1051.16 858.6 1051.06 858.8 1051.16 864.4C1051.16 865.3 1051.16 866.2 1051.27 867C1051.98 869.7 1052.08 872.5 1052.89 875.2C1053.1 876.1 1053.2 877 1053.3 877.8C1054.72 887.9 1056.45 897.9 1057.67 908C1058.39 913.9 1057.27 915.2 1051.27 915.3C1035.3 915.4 1019.43 915.4 1003.46 915.3C1001.53 915.5 999.491 915.3 997.864 914Z" fill="#6DB5DE"/>
<path d="M1024.51 696C1013.12 708.3 1001.63 720.5 990.234 732.8C983.521 740.1 978.639 740.7 971.213 734.3C960.838 725.3 950.463 716.1 940.189 707.1C930.323 697 919.439 688.1 908.962 678.7C895.841 666.8 882.414 655 869.394 643C864.41 638.5 864.41 632.4 868.886 627.5C889.127 605.6 909.369 583.8 929.713 561.9C930.73 560.8 931.849 559.8 932.967 558.8C938.257 555.9 942.834 557 947.208 560.9C957.278 570 967.348 578.9 977.52 587.9C974.977 594.9 971.824 601.7 969.891 608.8C966.941 619.8 970.501 629.9 975.485 639.7C977.927 641.9 976.604 645.1 977.621 647.8C978.638 654 979.656 660.2 980.775 666.4C981.893 672.7 985.148 677.4 991.862 679C993.184 679.5 994.608 680 996.032 679.8C998.982 679.8 1001.93 679.8 1004.78 679.8C1006.41 680.1 1006.61 679.1 1006.92 677.9C1007.22 676.8 1006.81 675.2 1008.75 675.2C1008.34 679.7 1010.17 680.5 1014.24 678.7C1021.16 675.5 1025.73 670.5 1026.55 662.9C1027.56 653.4 1027.97 643.8 1028.58 634.2C1032.14 633.9 1033.36 636.4 1034.48 639C1035.4 640.1 1036.21 641.3 1037.63 641.8C1044.35 644.7 1049.13 650.1 1052.99 655.8C1055.54 659.6 1054.72 664.6 1051.37 668.3C1048.11 671.9 1045.26 675.9 1041.7 679.1C1040.48 680.2 1039.26 681.3 1038.14 682.6C1034.07 687.5 1030.21 692.6 1024.51 696Z" fill="#202B6D"/>
<path d="M919.948 800.8C920.863 828.5 921.779 856.1 922.694 883.8C922.796 885.8 922.694 887.8 922.694 889.8C921.168 891.4 919.134 891.5 917.1 891.5C909.064 891.5 901.028 891.7 892.993 891.4C892.077 891.4 891.06 891.4 890.145 891.4C885.466 891.1 880.583 892.7 876.209 889.9C869.394 872.7 862.579 855.6 855.866 838.4C850.882 825.7 846.101 812.9 841.32 800.2C866.444 800.2 891.569 800.2 916.591 800.3C917.608 800.3 918.727 800.6 919.948 800.8Z" fill="#6DB5DE"/>
<path d="M963.177 337.2C964.296 336.4 965.313 336.9 966.432 337.3C966.432 358.1 966.534 378.9 966.432 399.7C966.432 403 966.635 405.2 970.907 405.7C975.891 406.3 978.943 409.7 980.062 414.5C981.079 418.9 981.181 423.5 980.062 427.8C978.74 433.4 974.162 436.7 968.263 436.9C968.059 436.9 967.958 436.9 967.754 436.9C951.581 438 947.208 433.2 948.021 417.7C948.428 410.9 951.785 406.1 958.702 405.2C962.465 404.7 962.465 403 962.465 400.3C962.363 381.1 962.465 362 962.465 342.8C962.465 341.1 962.262 339.1 963.177 337.2Z" fill="#FDFDFE"/>
<path d="M985.657 500.3C985.657 504.8 985.657 509.3 985.657 513.9C985.454 513.9 985.352 513.9 985.148 513.9C985.148 509.4 985.148 504.8 985.148 500.3C985.25 500.2 985.454 500.2 985.657 500.3Z" fill="#81B1D3"/>
<path d="M892.179 890C902.351 890 912.421 889.9 922.592 889.9C922.999 900.7 923.406 911.5 923.711 922.3C924.423 946.2 925.033 970.1 925.644 994.1C922.592 996.1 919.642 995.8 916.591 994.2C907.843 973.3 899.706 952.2 891.976 930.9C889.738 918.6 891.162 906.1 890.857 893.8C890.857 892.3 891.264 891 892.179 890Z" fill="#FEFEFE"/>
<path d="M876.006 889.9C880.685 889.9 885.262 890 889.94 890C891.364 891.1 891.161 892.6 891.161 894.1C891.161 903.1 891.161 912.1 891.161 921C891.161 922.4 891.466 924.1 889.737 924.9C884.651 913.5 880.176 901.7 876.006 889.9Z" fill="#FBFBFC"/>
<path d="M926.56 1012.9C925.644 1012.9 924.729 1013 923.813 1013C921.473 1007.6 918.93 1002.2 917.607 996.4C920.252 994.2 922.999 994.4 925.746 996.3C926.051 1001.8 926.254 1007.3 926.56 1012.9Z" fill="#FBFBFC"/>
<path d="M889.737 925C889.839 913.3 889.839 901.7 889.941 890C890.653 890 891.467 890 892.18 890C892.078 903.6 892.078 917.2 891.976 930.8C891.264 928.8 890.45 926.9 889.737 925Z" fill="#5881AE"/>
<path d="M925.746 996.2C923 996.2 920.355 996.3 917.609 996.3C917.304 995.5 916.999 994.8 916.592 994C919.643 994 922.593 994 925.645 993.9C925.746 994.7 925.746 995.5 925.746 996.2Z" fill="#648AB3"/>
<path d="M702.069 254.3C703.188 252.8 704.816 253.3 706.341 253.3C763.405 253.3 820.57 253.3 877.634 253.3C878.143 253.3 878.651 253.4 879.16 253.4C880.685 255 880.38 257 880.177 258.9C879.77 260.7 879.465 262.6 879.465 264.5C879.77 269 878.447 273.4 878.447 277.9C878.447 297 886.788 307.6 905.606 312.3C908.556 313 911.607 313.4 914.557 314.2C916.592 314.8 918.728 315.6 918.83 317.9C919.135 324.3 920.457 330.8 918.016 337C914.252 337.1 910.489 337.2 906.725 337.3C896.96 337.3 887.094 336.3 877.329 337.9C861.868 340.5 851.492 349.2 845.694 363.5C842.236 372.1 836.235 379.2 831.251 386.8C815.078 411.8 798.701 436.5 782.528 461.5C780.392 464.8 778.866 464.8 775.815 463C768.491 458.8 760.964 455.1 753.742 450.7C749.368 448 746.113 447.2 743.774 452.7C731.262 445.1 718.853 437.4 706.138 430C703.087 428.2 702.069 426.3 702.069 422.9C702.171 366.8 702.069 310.6 702.069 254.3Z" fill="#FEFEFE"/>
<path d="M917.812 337C917.812 331.5 917.507 326 917.914 320.6C918.219 316.4 915.981 315.6 912.726 315.1C903.979 313.7 895.638 311.4 888.416 306C880.38 300 877.633 291.5 877.023 282.1C876.616 275.9 877.633 269.9 878.244 263.8C879.464 263.2 881.6 264.1 882.007 262.3C882.516 260.2 879.769 260.3 878.956 259C878.956 257.1 878.956 255.3 878.956 253.4C879.159 252.7 879.464 251.9 879.668 251.2C880.38 247 880.99 242.7 881.702 238.5C882.211 241.5 884.855 240.6 886.585 240.7C897.367 241.4 908.149 242.1 919.033 242.5C922.389 242.6 924.017 243.8 925.237 246.9C932.663 264.8 940.495 282.7 948.022 300.6C950.565 306.7 950.667 313.3 951.176 319.7C951.582 325.5 951.176 331.3 951.176 337.1C940.19 337.1 929.001 337 917.812 337Z" fill="#FD9993"/>
<path d="M1040.48 679C1043.64 675.5 1046.69 672 1049.84 668.6C1054.72 663.2 1054.62 657.4 1049.33 652.4C1045.57 648.9 1041.7 645.4 1037.84 641.9C1039.47 640.6 1041.4 641.3 1043.23 641.3C1103.85 641.3 1164.58 641.3 1225.2 641.1C1230.29 641.1 1231.2 642.5 1231.2 647.2C1231.1 767.1 1231.1 887 1231.2 1007C1231.2 1012.3 1229.57 1013.1 1224.69 1013.1C1149.12 1013 1073.54 1013 997.965 1013C997.965 1007.4 997.965 1001.8 997.965 996.2C1000.2 993.7 1003.36 994.5 1006.1 994.5C1051.67 994.4 1097.24 994.5 1142.91 994.5C1159.9 994.5 1176.78 994.5 1193.77 994.5C1199.77 994.5 1199.98 994.3 1199.98 988.2C1199.98 946.7 1199.98 905.2 1199.98 863.7C1199.98 860.7 1199.67 857.7 1201.09 854.9C1199.47 853 1197.33 854 1195.4 854C1148.1 853.9 1100.9 853.9 1053.6 854C1049.43 854 1047.7 853.2 1047.4 848.8C1046.69 841 1045.26 833.3 1043.84 825.7C1043.13 821.7 1045.47 821.9 1048.21 821.9C1082.59 821.9 1116.97 821.9 1151.35 821.9C1165.9 821.9 1180.45 821.9 1195.09 821.9C1196.92 821.9 1198.86 822.5 1200.48 821.2C1199.77 818.9 1199.98 816.6 1199.98 814.3C1199.98 772.7 1199.98 731.1 1199.98 689.5C1199.98 687.8 1199.98 686.2 1199.98 684.5C1199.98 681.9 1198.96 680.4 1196.01 680.6C1194.48 680.7 1192.96 680.6 1191.43 680.6C1143.73 680.6 1095.92 680.6 1048.21 680.6C1045.57 680.4 1042.72 681.1 1040.48 679Z" fill="#FEFEFE"/>
<path d="M997.863 914C1015.77 913.9 1033.77 913.8 1051.67 913.9C1055.54 913.9 1057.37 913.8 1056.45 908.8C1054.42 898.4 1053.5 887.8 1052.08 877.3C1053.6 875.2 1055.94 875.6 1058.08 875.6C1066.52 875.5 1074.96 875.5 1083.41 875.6C1086.36 875.6 1088.19 875 1088.19 871.5C1088.19 868 1086.36 867.4 1083.31 867.4C1074.15 867.4 1065.1 867.5 1055.94 867.4C1053.81 867.4 1051.47 867.8 1049.94 865.7C1048.62 856.9 1048.62 856.9 1057.88 856.9C1102.73 856.9 1147.69 856.9 1192.55 856.9C1194.79 856.9 1196.92 857.2 1199.16 857.3C1200.89 858.7 1200.38 860.7 1200.38 862.4C1200.38 904.7 1200.38 947 1200.38 989.4C1200.38 994.7 1199.98 995 1194.58 995.1C1130.71 995.1 1066.83 995.1 1002.95 995.1C1001.22 995.1 999.491 995.3 998.067 994.2C997.965 967.3 997.863 940.7 997.863 914Z" fill="#FEFEFE"/>
<path d="M997.965 994C1062.96 994 1128.06 993.9 1193.06 994.1C1197.94 994.1 1199.16 992.9 1199.16 988.1C1198.96 944.5 1199.06 900.8 1199.06 857.2C1197.64 854.9 1195.4 856 1193.57 856C1147.49 855.9 1101.41 856 1055.23 855.9C1053.4 855.9 1051.57 856.3 1048.62 854.9C1100.19 854.9 1150.64 854.9 1201.1 854.9C1201.2 856.6 1201.4 858.2 1201.4 859.9C1201.4 903.4 1201.3 946.9 1201.5 990.3C1201.5 995.2 1199.98 996.3 1195.2 996.3C1129.49 996.2 1063.67 996.2 997.965 996.2C998.067 995.5 997.965 994.7 997.965 994Z" fill="#5F87B2"/>
<path d="M955.447 294.1C955.447 283.9 955.447 273.9 955.447 264C965.416 265 972.74 270.7 973.452 277.8C974.164 285.1 967.959 290.9 955.447 294.1Z" fill="#FC9993"/>
<path d="M611.744 395.7C605.234 390.1 598.623 384.7 592.316 379C589.672 376.6 588.553 378.6 587.129 380.1C576.754 391 564.039 397.7 548.985 400.4C513.079 406.9 476.664 381.6 471.171 346C466.899 318.1 479.817 291.2 503.924 277.7C528.947 263.8 558.546 266.2 580.822 284.1C593.334 294.2 600.759 307.3 604.115 322.8C604.726 325.5 604.014 326.5 601.166 326C600.962 326 600.861 326 600.657 326C591.604 326.9 586.112 324.8 582.348 314.7C574.211 293.4 549.188 282.1 526.811 287.4C502.399 293.2 487.141 313.6 488.362 338.6C489.481 360.8 507.79 380 530.676 383.1C547.256 385.3 561.293 380.3 573.295 369C575.635 366.8 576.245 365.4 573.194 363C564.344 356.1 555.8 348.7 547.154 341.5C542.78 337.9 542.068 334 545.12 330.8C548.171 327.4 552.036 327.5 556.308 331.1C564.344 337.8 572.278 344.5 580.314 351.1C581.433 352.1 582.145 353.1 584.891 351.8C589.875 349.5 596.182 351.4 601.878 352C602.997 352.1 602.691 353.3 602.488 354.1C602.285 355.1 601.878 356 601.572 356.9C598.318 366.3 598.419 366.2 606.252 372.7C616.423 381.2 626.595 389.7 636.767 398.2C630.358 401.7 629.443 404.6 632.291 411.9C625.374 406.5 618.559 401.1 611.744 395.7Z" fill="black"/>
<path d="M638.089 414.9C651.923 421.3 665.858 427.7 679.692 434.3C684.472 436.5 685.795 440.7 683.354 444.5C680.912 448.3 676.64 448.8 672.47 445.6C668.808 442.7 665.044 439.8 661.586 436.6C659.348 434.5 658.128 434.5 656.907 437.4C656.093 439.2 655.076 440.9 654.059 442.7C653.347 443.8 652.431 444.5 651.109 443.7C650.092 443.1 650.092 442.1 650.6 441.1C650.702 440.8 650.906 440.5 651.109 440.2C655.178 431.5 655.178 431.5 647.753 425.1C644.192 422 640.632 419 637.072 416C636.767 415 636.971 414.5 638.089 414.9Z" fill="#010101"/>
<path d="M638.09 414.9C637.683 415.2 637.378 415.6 636.971 415.9C635.648 415.5 634.732 414.6 633.816 413.2C635.75 413.1 636.971 413.8 638.09 414.9Z" fill="#36211F"/>
<path d="M69.3885 864.5C69.3885 791.9 69.3884 719.2 69.4901 646.6C69.4901 644.7 67.9645 641.6 70.9141 641C74.4739 640.3 78.339 640.2 81.8988 641.3C82.3057 641.4 82.5091 642.8 82.5091 643.5C82.6108 644.7 82.5091 645.8 82.5091 647C82.5091 791.9 82.5091 936.9 82.4074 1081.8C82.4074 1083.8 83.7295 1086.9 81.1868 1087.5C77.6269 1088.2 73.7619 1088 70.1004 1087.4C68.5747 1087.2 69.2868 1084.8 69.2868 1083.3C69.2868 1070.5 69.2868 1057.6 69.2868 1044.8C69.3885 984.7 69.3885 924.6 69.3885 864.5Z" fill="#FEFEFE"/>
<path d="M122.078 550.6C122.078 533.5 122.179 516.3 121.976 499.2C121.874 494.9 123.298 493.9 127.469 494C134.894 494.3 142.421 494.2 149.846 494C153 493.9 153.813 495 153.813 498C153.712 532.8 153.814 567.6 153.712 602.4C153.712 611.6 146.795 618.5 137.946 618.6C129.096 618.7 122.281 611.8 122.179 602.5C121.976 585.2 122.078 567.9 122.078 550.6Z" fill="#FEFEFE"/>
<path d="M147.202 618.5C155.645 612.5 156.052 604.8 156.052 596.5C155.848 555.9 155.95 515.2 155.95 474.6C155.95 471.8 155.34 469 159.815 468.7C162.256 468.5 162.155 465.7 161.951 463.7C161.443 459.5 164.393 459.9 166.834 460.3C169.275 460.6 173.547 458.2 173.242 463.7C173.039 466.7 173.751 469 177.514 469.1C179.955 469.2 179.345 471.1 179.345 472.5C179.447 477.3 179.345 482.2 179.345 487C179.345 523.3 179.447 559.6 179.243 595.9C179.243 604.3 179.447 612.2 188.093 618.4C174.056 618.5 161.443 618.5 147.202 618.5Z" fill="#FEFEFE"/>
<path d="M122.078 441.5C122.078 437.5 122.281 433.5 121.976 429.5C121.772 426.6 122.993 425.8 125.74 425.9C133.877 426 141.913 426 150.051 425.9C152.085 425.9 153.712 426 153.611 428.7C153.407 437.2 153.306 445.6 153.306 454.1C153.306 456.9 152.39 458.2 149.237 458.1C141.506 457.9 133.674 457.9 125.943 458.1C123.095 458.2 122.078 457.3 122.179 454.5C122.383 450.2 122.281 445.9 122.281 441.6C122.179 441.5 122.179 441.5 122.078 441.5Z" fill="#FEFEFE"/>
<path d="M122.28 475.9C122.28 472.2 122.484 468.6 122.179 464.9C121.873 461.3 122.992 459.9 126.858 460.1C134.08 460.4 141.404 460.3 148.626 460.1C151.576 460 153 460.5 153.305 464.1C153.915 472.2 153.305 480.4 153.712 488.5C153.814 491.2 152.796 491.9 150.152 491.9C142.014 491.8 133.978 491.7 125.841 491.9C122.484 492 121.873 490.6 121.975 487.8C122.179 483.8 121.975 479.8 121.975 475.8C122.179 475.9 122.179 475.9 122.28 475.9Z" fill="#FEFEFE"/>
<path d="M155.949 463.8C156.254 462.6 155.136 460.6 157.577 460.4C159.814 460.2 159.916 461.9 159.814 463.5C159.713 464.9 160.323 466.8 157.983 467C155.542 467.2 156.051 465.3 155.949 463.8Z" fill="#F7F9FB"/>
<path d="M179.344 463.8C179.14 465 179.852 466.8 177.717 466.8C175.175 466.9 175.48 464.9 175.48 463.3C175.378 461.7 175.581 460.1 177.717 460.3C180.157 460.6 179.039 462.6 179.344 463.8Z" fill="#FDFDFE"/>
<path d="M179.345 455.3C179.243 456.6 179.65 458.1 177.514 458.1C175.683 458.1 175.378 457 175.378 455.5C175.378 454.1 175.581 452.8 177.31 452.6C179.345 452.4 179.345 453.9 179.345 455.3Z" fill="#F0F3F7"/>
<path d="M115.975 463.4C116.076 462.1 115.669 460.4 117.602 460.4C119.942 460.3 119.535 462.3 119.434 463.6C119.434 464.9 120.044 467 117.602 466.8C115.466 466.7 116.178 464.7 115.975 463.4Z" fill="#F6F8FA"/>
<path d="M157.679 452.6C159.611 452.8 159.917 454 159.815 455.4C159.815 456.8 159.713 458 157.78 458C155.746 458 155.848 456.6 155.848 455.3C155.949 454 155.848 452.7 157.679 452.6Z" fill="#EFF3F7"/>
<path d="M117.805 452.8C119.434 453 119.434 454.2 119.434 455.4C119.434 456.8 119.434 458.2 117.398 458C115.669 457.8 115.974 456.4 115.974 455.3C115.974 454.1 116.177 452.9 117.805 452.8Z" fill="#FEFEFE"/>
<path d="M1034.58 639.1C1032.65 637.5 1030.62 635.9 1028.68 634.3C1028.17 628.4 1029.4 622.6 1029.6 616.7C1101.11 616.7 1172.61 616.7 1244.12 616.8C1252.46 616.8 1251.24 615.7 1251.24 624C1251.24 628.8 1253.38 635.1 1250.43 638C1247.27 641.2 1240.76 639 1235.78 639C1168.75 639.1 1101.72 639.1 1034.58 639.1Z" fill="#FEFEFE"/>
<path d="M996.134 679.9C994.1 682.7 992.879 681.6 991.964 679.1C992.371 670.1 992.778 661.2 993.184 652.2C993.286 650.7 993.184 649.2 993.388 647.7C993.49 646.4 993.49 644.8 995.321 644.7C997.66 644.7 997.253 646.6 997.253 648C996.948 657 996.541 665.9 996.236 674.9C996.033 676.6 996.134 678.2 996.134 679.9Z" fill="#050303"/>
<path d="M977.622 647.9C973.96 646 976.299 642.5 975.486 639.8C975.893 631.4 976.198 622.9 976.604 614.5C976.706 613 976.096 610.7 978.639 610.8C981.08 610.9 980.571 613.1 980.571 614.7C980.266 624.3 979.859 633.9 979.452 643.5C979.452 645.2 979.045 646.8 977.622 647.9Z" fill="#060404"/>
<path d="M1008.85 675.3C1007.83 676.6 1008.44 678.2 1008.24 679.6C1008.14 680.6 1008.14 681.7 1006.81 681.8C1005.49 681.9 1005.19 680.8 1004.88 679.9C1005.29 669.8 1005.59 659.7 1006.1 649.5C1006.2 647.9 1005.29 645.2 1008.04 645.2C1010.78 645.2 1010.07 647.7 1009.97 649.4C1009.66 658.1 1009.26 666.7 1008.85 675.3Z" fill="#070404"/>
<path d="M1177.9 1051.7C1177.9 1041.2 1178 1030.7 1177.8 1020.3C1177.7 1017 1178.51 1015.6 1182.28 1015.7C1189.7 1016 1197.13 1015.9 1204.65 1015.7C1208.11 1015.6 1208.93 1016.9 1208.82 1020C1208.72 1041.3 1208.72 1062.6 1208.82 1083.9C1208.82 1086.8 1208.11 1088 1204.86 1088C1197.13 1087.8 1189.3 1087.8 1181.46 1088C1178.51 1088.1 1177.8 1086.9 1177.8 1084.2C1178 1073.3 1177.9 1062.5 1177.9 1051.7Z" fill="#FEFEFE"/>
<path d="M306.795 298.1C307.507 298.7 307.812 299 308.219 299.4C311.678 302.8 316.255 305.7 318.289 309.8C320.324 314 315.645 318.1 314.526 322.4C307.405 349.2 323.782 376 351.348 382.6C377.693 388.9 404.953 372.1 410.955 345.9C416.956 319.4 399.766 293.1 372.708 287.5C362.13 285.3 351.755 286.3 342.091 291C338.938 292.5 336.904 292.3 334.869 289.6C333.852 288.3 332.53 287.2 331.309 286C324.799 279.6 324.698 279.3 332.937 275.7C358.773 264.3 383.491 266.5 405.258 284.2C427.84 302.5 435.265 326.9 426.924 354.3C418.787 381.1 399.359 397.3 371.081 400.8C343.312 404.3 320.629 393.9 305.575 370.5C290.825 347.5 291.436 323.6 305.269 300.1C305.778 299.4 306.185 298.9 306.795 298.1Z" fill="black"/>
<path d="M551.324 532.7C535.761 528.1 525.59 518.4 521.419 503.4C517.045 487.5 521.012 473.3 533.117 461.8C545.831 449.7 564.954 446.9 580.721 454.4C596.996 462.1 606.455 478.4 604.726 495.9C602.997 513.5 590.892 527.8 573.6 532.6C567.701 534.2 567.904 534.2 568.209 528.2C568.413 524.7 568.82 522.4 572.99 521C587.434 516.1 595.266 502.6 593.232 487.5C591.401 474 579.805 463.3 565.463 461.8C550.917 460.3 537.389 468.9 532.71 482.5C528.031 496.1 533.32 511.3 546.238 518.3C551.528 521.2 553.053 524.2 551.731 529.5C551.528 530.3 551.528 531.3 551.324 532.7Z" fill="black"/>
<path d="M302.728 469.2C303.033 469.4 303.338 469.5 303.541 469.7C308.017 473.5 310.865 476.7 307.915 484C302.728 496.8 309.848 512 321.85 518.7C334.87 525.9 350.331 523.8 360.502 513.3C370.165 503.3 371.793 487.8 364.367 475.9C356.84 463.9 341.786 458.1 328.258 463.1C323.172 465 320.223 464.1 317.273 460.3C316.459 459.3 315.239 458.7 314.018 457.8C331.513 445.2 356.739 449 370.775 465.7C385.117 482.7 383.286 507.6 366.605 523C350.737 537.6 325.003 537.8 309.339 523.3C293.268 508.6 290.318 483.9 302.728 469.2Z" fill="black"/>
<path d="M422.653 525.4C423.772 524.4 424.585 523.9 425.196 523.1C428.451 519.1 431.604 518.4 436.995 520.7C453.778 527.8 472.698 518.6 478.191 501.6C483.683 484.7 473.41 466.6 455.914 462.3C438.521 458.1 420.72 469.4 417.567 486.8C416.652 491.6 416.448 496.7 418.584 501.1C420.619 505.2 419.194 507.5 416.041 509.7C414.719 510.7 413.498 511.8 412.176 512.9C401.19 498.8 405.056 473.7 420.008 461.1C437.707 446.1 462.526 446.9 478.801 463C494.567 478.6 495.177 503.7 480.428 520.1C465.374 536.4 440.25 538.9 422.653 525.4Z" fill="black"/>
<path d="M325.411 695.7C341.075 695.6 354.095 706.8 356.13 722.1C358.062 736.6 348.094 751 333.752 754.8C318.901 758.6 302.931 751 297.54 737.2C296.828 735.5 294.59 732.6 297.235 731.7C299.676 730.9 303.44 729.8 305.169 734.3C307.712 741 312.899 745.1 319.816 747C331.31 750.1 343.415 743.7 346.975 732.7C350.637 721.7 345.144 709.9 334.362 705.4C323.376 700.9 310.763 705.4 305.678 716.2C304.152 719.4 302.321 720 299.168 720C296.116 720 295.913 718.9 296.625 716.4C300.083 704.6 312.289 695.8 325.411 695.7Z" fill="black"/>
<path d="M325.411 643.1C312.899 643 301.405 635.2 297.235 623.8C296.726 622.3 294.387 619.7 297.337 619C299.676 618.5 303.135 617.1 304.965 621.3C308.729 630.3 315.951 635 325.919 635C337.006 635 346.263 626.9 347.89 615.9C349.416 605.8 342.703 595.3 332.734 592C322.461 588.6 310.967 593.2 305.779 602.6C304.966 604.1 305.169 606.6 302.931 606.9C300.795 607.2 298.049 607.5 296.523 606.5C294.997 605.5 296.828 603.1 297.438 601.5C302.829 587.9 318.392 580.3 333.243 583.9C347.992 587.5 357.96 601.8 356.129 616.7C354.197 631.9 340.973 643.2 325.411 643.1Z" fill="black"/>
<path d="M587.84 701.6C584.789 705.7 582.144 707.4 576.855 705C568.006 701 556.817 705.1 551.324 713C545.323 721.6 546.035 733.1 553.155 740.6C559.97 747.9 571.057 749.8 580.008 745.2C589.163 740.5 593.943 730.5 591.502 720.9C590.689 717.8 589.875 715.4 593.13 712.8C596.283 710.3 596.791 711.7 597.809 714.2C602.996 726.2 599.436 740.4 588.959 748.9C578.584 757.3 563.632 758.1 552.545 750.7C541.153 743.1 536.169 729.2 540.339 716.5C544.509 703.9 556.512 695.5 570.04 695.7C576.855 695.8 581.839 697.5 587.84 701.6Z" fill="black"/>
<path d="M486.836 643.1C470.561 643.1 457.847 631.3 456.321 614.9C454.998 600.3 466.086 586.6 481.75 583.5C496.499 580.6 511.655 589.8 516.029 604.3C516.436 605.8 518.267 608.4 515.825 608.8C513.384 609.2 509.621 610.8 508.197 606.4C505.959 599.5 501.178 594.7 494.261 592.3C482.971 588.4 470.765 593.8 466.086 604.6C461.508 615.3 466.289 627.9 476.969 633C487.65 638.1 500.364 634.2 506.467 623.9C507.281 622.5 507.281 620 509.926 620.3C511.858 620.5 514.503 619.8 515.622 621.4C516.639 622.8 515.012 624.8 514.198 626.4C509.214 636.7 498.635 643.1 486.836 643.1Z" fill="black"/>
<path d="M380.949 595.4C385.323 598.2 386.034 601.3 383.898 606.5C380.033 616 384.61 626.7 393.46 632C402.004 637.1 413.498 635.9 420.72 629C427.739 622.4 429.57 611.2 425.094 602.8C420.212 593.8 409.735 588.7 399.766 591.9C394.274 593.7 392.646 590.4 390.103 587.5C400.377 579.5 418.686 582.4 428.247 593.5C439.029 606 437.809 624.1 425.501 635.3C413.905 645.8 395.291 645.6 384.102 634.8C372.608 623.8 371.184 606 380.949 595.4Z" fill="black"/>
<path d="M587.943 589.3C584.891 593.6 581.636 594.4 576.449 592.3C566.989 588.5 556.003 593 550.51 601.7C545.323 610 546.543 621.2 553.562 628.4C560.682 635.7 571.973 637.3 581.026 632.2C589.876 627.2 594.555 617 591.198 607.5C589.367 602.2 593.232 601 595.572 598.4C603.709 608.1 601.268 625.4 590.486 635.2C578.687 646.1 559.869 645.8 548.273 634.5C536.88 623.5 536.168 605.4 546.645 593.3C556.919 581.5 575.228 579.7 587.943 589.3Z" fill="black"/>
<path d="M390.001 699.7C404.75 692 421.636 695.9 430.485 708.9C439.131 721.5 436.588 738.7 424.789 748.6C412.99 758.5 395.189 758 384.102 747.4C372.71 736.5 371.184 719.9 380.542 708.2C386.035 712.2 386.034 712.2 383.898 718.2C380.44 727.8 384 738.4 392.646 744.1C400.987 749.6 412.176 748.9 419.906 742.3C427.434 736 429.671 724.7 425.298 715.9C420.822 707 410.243 701.5 400.275 704.4C394.782 705.9 392.646 703.7 390.001 699.7Z" fill="black"/>
<path d="M486.938 695.7C500.364 695.7 511.96 704 515.926 716.6C516.435 718.1 518.673 720.9 515.621 721.4C513.282 721.8 509.518 722.9 508.094 718.6C505.043 710 498.838 704.9 489.582 703.7C478.597 702.3 468.018 709.3 465.17 719.7C462.221 730.6 467.815 741.7 478.292 745.9C488.768 750.2 500.771 746.2 506.467 736.5C507.382 734.9 507.484 732.8 510.434 732.7C516.537 732.5 517.147 733.2 514.604 738.5C508.196 751.7 492.532 758.6 478.393 754.3C463.543 749.8 454.694 735.9 457.033 720.6C459.067 706.3 471.884 695.6 486.938 695.7Z" fill="black"/>
<path d="M945.682 211.1C906.419 211.1 867.055 211 827.792 211.2C823.214 211.2 822.197 209.9 822.197 205.6C822.401 162.5 822.401 119.3 822.197 76.2C822.197 72.2 823.113 70.8 827.487 70.8C906.419 70.9 985.454 70.9 1064.39 70.8C1068.76 70.8 1069.68 72.1 1069.68 76.1C1069.57 119.2 1069.47 162.4 1069.68 205.5C1069.68 210.3 1068.05 211.1 1063.67 211.1C1024.21 211.1 984.945 211.1 945.682 211.1Z" fill="#5983AF"/>
<path d="M945.682 53.3001C906.725 53.3001 867.665 53.3001 828.707 53.3001C822.197 53.3001 822.198 53.3 822.198 46.7C822.198 43.5 822.401 40.3 822.096 37.2C821.791 33.5 823.316 32.8 826.775 32.8C906.114 32.9 985.454 32.9 1064.79 32.8C1068.76 32.8 1069.78 34 1069.57 37.6C1069.27 41.4 1069.27 45.3 1069.57 49.1C1069.78 52.5 1068.46 53.4001 1065.2 53.3001C1054.72 53.1001 1044.14 53.2 1033.67 53.2C1004.27 53.3 974.977 53.3001 945.682 53.3001Z" fill="#5882AE"/>
<path d="M1024.51 696C1028.89 691.3 1033.26 686.5 1037.64 681.8C1039.97 680.6 1042.42 680.5 1045.06 680.5C1093.99 680.5 1143.01 680.5 1191.94 680.5C1199.98 680.5 1200.38 680.9 1200.38 688.6C1200.38 729.9 1200.38 771.2 1200.38 812.5C1200.38 819.9 1200.38 819.9 1192.75 819.9C1187.36 819.9 1181.87 819.9 1176.48 819.9C1170.27 819.9 1169.56 819.3 1169.56 813C1169.46 790.5 1169.26 768 1169.66 745.5C1169.87 733.6 1165.19 724.9 1154.2 719.8C1150.44 718 1149.02 715.4 1149.22 711.4C1149.32 707.9 1149.22 704.4 1149.22 700.9C1149.22 698.4 1148.1 697.4 1145.46 697.4C1131.62 697.5 1133.66 696.3 1133.96 707.8C1134.17 714.4 1132.13 718.5 1126.13 721.9C1118.2 726.4 1114.33 733.9 1114.33 743.1C1114.43 765.4 1114.33 787.7 1114.33 810.1C1114.33 811.6 1114.33 813.1 1114.33 814.6C1114.33 818.3 1112.8 820.1 1108.84 820C1103.24 819.8 1097.65 820 1092.05 819.9C1087.07 819.8 1086.26 819.1 1086.15 813.9C1086.05 803.2 1086.15 792.6 1086.05 781.9C1086.05 776.9 1085.95 771.9 1086.15 766.9C1086.36 762.9 1085.04 761.1 1080.66 761.2C1071.81 761.4 1063.06 761.4 1054.22 761.2C1050.35 761.1 1049.23 762.7 1049.23 766.3C1049.33 781.8 1049.33 797.3 1049.23 812.8C1049.23 815.1 1050.15 818 1046.79 819C1044.35 819.1 1043.03 818.5 1042.52 815.5C1039.36 793 1035.91 770.5 1032.55 748C1029.9 730.8 1027.26 713.4 1024.51 696Z" fill="#FEFEFE"/>
<path d="M1046.79 819.1C1048.32 817.5 1047.6 815.6 1047.6 813.9C1047.71 797.6 1047.81 781.3 1047.5 764.9C1047.4 760.8 1048.82 759.9 1052.69 759.9C1062.66 760.2 1072.73 760.2 1082.7 759.9C1086.66 759.8 1087.88 760.9 1087.88 764.9C1087.68 781.4 1087.88 797.9 1087.68 814.4C1087.68 818.1 1088.6 819.4 1092.46 819.2C1097.65 818.9 1102.94 818.9 1108.23 819.2C1111.99 819.4 1113.21 818.4 1113.11 814.6C1112.8 800.6 1112.8 786.6 1112.8 772.6C1112.8 763.1 1113.21 753.6 1112.91 744.1C1112.5 732 1118.6 723.9 1128.88 718.5C1131.62 717.1 1132.54 715.7 1132.44 712.8C1132.23 708.8 1132.54 704.8 1132.33 700.8C1132.13 697.4 1133.15 696.1 1136.81 696.1C1150.74 695.9 1151.05 695.8 1150.64 709.4C1150.54 714.5 1151.86 717.1 1156.64 719.7C1165.8 724.6 1170.88 732.4 1170.78 743.3C1170.58 766.9 1170.78 790.6 1170.58 814.3C1170.58 818.2 1171.5 819.5 1175.56 819.3C1181.67 819 1187.77 819 1193.87 819.3C1197.84 819.5 1199.06 818.3 1199.06 814.3C1198.86 794.1 1198.96 774 1198.96 753.8C1198.96 731.6 1198.86 709.5 1199.06 687.3C1199.06 683 1198.04 681.7 1193.47 681.7C1141.49 681.9 1089.41 681.8 1037.43 681.8C1038.35 680.9 1039.36 679.9 1040.28 679C1042.52 679.1 1044.65 679.3 1046.89 679.3C1096.22 679.3 1145.46 679.4 1194.79 679.2C1199.77 679.2 1201.4 680.2 1201.3 685.5C1201.09 728.8 1201.2 772.1 1201.09 815.4C1201.09 817.3 1201.81 819.4 1200.28 821.1C1181.16 821 1162.04 821 1142.91 820.9C1111.38 820.9 1079.95 820.9 1048.42 820.9C1046.79 820.9 1045.16 820.9 1042.42 820.9C1044.86 820 1045.77 819.6 1046.79 819.1Z" fill="#5A83AF"/>
<path d="M1051.98 875.1C1050.04 873.1 1051.57 870.3 1050.04 868.2C1051.16 866.9 1052.69 867 1054.22 867C1063.98 867 1073.74 867 1083.51 867C1086.76 867 1088.59 867.9 1088.59 871.5C1088.59 875 1086.97 876.1 1083.61 876.1C1074.35 876 1065.1 876.1 1055.84 876.1C1054.42 875.9 1053.1 875.9 1051.98 875.1Z" fill="#FEFEFE"/>
<path d="M1051.98 875.1C1062.45 875.1 1072.83 875 1083.31 875.1C1085.95 875.1 1087.68 875.1 1087.68 871.6C1087.68 868.2 1086.15 867.9 1083.41 868C1072.32 868.2 1061.13 868.2 1050.04 868.3C1050.04 867.4 1050.04 866.6 1050.04 865.7C1061.74 865.7 1073.44 866 1085.14 865.7C1090.33 865.5 1089.82 868.3 1089.82 871.6C1089.82 874.9 1090.22 877.6 1085.04 877.5C1074.05 877.1 1062.96 877.4 1051.98 877.5C1051.98 876.6 1051.98 875.8 1051.98 875.1Z" fill="#5E86B1"/>
<path d="M963.889 433.2C953.819 433.2 952.09 431.4 952.09 421.1C952.09 411.1 954.226 409.1 964.601 409.1C974.163 409.1 976.604 411.8 976.604 422C976.706 431.2 974.366 433.2 963.889 433.2Z" fill="#6DB5DE"/>
<path d="M812.432 368.1C813.246 371.3 811.313 372.1 809.889 373.4C805.109 377.6 800.227 381.7 795.345 385.9C794.735 386.4 794.023 387.2 793.209 386.5C792.294 385.8 792.904 385 793.514 384.4C799.82 379 806.126 373.6 812.432 368.1Z" fill="#648BB4"/>
<path d="M879.058 259C880.888 258.6 882.719 258.4 883.837 260.4C884.448 261.7 884.244 262.9 883.227 264C881.499 265.7 879.973 264.7 878.346 263.8C877.634 262.1 877.837 260.5 879.058 259Z" fill="#0F0A09"/>
<path d="M918.117 262.2C917.914 264 916.999 265.2 914.964 265.3C913.134 265.3 912.015 264.3 911.811 262.7C911.608 260.8 912.828 259.4 914.659 259.2C916.693 259 917.812 260.2 918.117 262.2Z" fill="#0F0909"/>
<path d="M945.988 209C907.335 209 868.784 208.9 830.132 209.1C825.961 209.1 824.639 208.2 824.741 203.9C824.944 161.9 824.842 120 824.741 78C824.741 74.1 825.758 73 829.827 73C907.437 73.1 985.047 73.1 1062.56 73C1066.22 73 1067.44 73.8 1067.44 77.6C1067.34 119.7 1067.24 161.9 1067.44 204C1067.44 208.4 1065.91 209.1 1061.95 209C1023.19 208.9 984.641 209 945.988 209Z" fill="#FEFEFE"/>
<path d="M945.581 51.1C907.132 51.1 868.683 51 830.233 51.2C825.656 51.2 824.537 50 824.639 45.7C824.944 35.1 824.741 35.1 835.625 35.1C910.896 35.1 986.065 35.2 1061.34 35C1066.32 35 1067.54 36.3 1067.34 41.1C1066.93 51.2 1067.24 51.2 1056.86 51.2C1019.84 51.1 982.708 51.1 945.581 51.1Z" fill="#FEFEFE"/>
<path d="M1142.4 753.6C1149.83 753.6 1157.36 753.7 1164.78 753.6C1167.63 753.5 1168.65 754.4 1168.65 757.3C1168.54 769.1 1168.54 781 1168.65 792.8C1168.65 795.5 1167.53 796.2 1164.98 796.2C1149.52 796.1 1134.16 796.1 1118.7 796.2C1116.16 796.2 1115.04 795.5 1115.14 792.8C1115.24 781 1115.24 769.1 1115.14 757.3C1115.14 754.4 1116.16 753.6 1119.01 753.6C1126.84 753.7 1134.67 753.6 1142.4 753.6Z" fill="#FEFEFE"/>
<path d="M1142 751.1C1135.28 751.1 1128.47 751.1 1121.76 751.1C1115.35 751.1 1115.75 751.1 1115.25 744.6C1114.13 732.8 1123.48 721.2 1136.2 718.3C1148 715.6 1160.51 721.6 1166.41 732.5C1169.26 737.8 1168.65 743.5 1168.65 749.1C1168.65 751.7 1166.41 751.1 1164.88 751.1C1157.15 751.1 1149.63 751.1 1142 751.1Z" fill="#FEFEFE"/>
<path d="M1067.23 819.1C1062.66 819.1 1058.08 818.9 1053.5 819.2C1050.55 819.3 1049.74 818.2 1049.84 815.5C1049.94 806.5 1049.94 797.5 1049.84 788.5C1049.84 786 1050.55 785 1053.3 785C1062.96 785.1 1072.63 785.1 1082.29 785C1085.04 785 1085.75 785.9 1085.75 788.5C1085.65 797.5 1085.65 806.5 1085.75 815.5C1085.75 818.3 1085.04 819.4 1082.09 819.2C1077 818.9 1072.12 819.1 1067.23 819.1Z" fill="#FEFEFE"/>
<path d="M1141.79 819.1C1134.16 819.1 1126.54 819 1118.91 819.2C1115.96 819.3 1115.04 818.3 1115.14 815.5C1115.35 811.2 1115.35 806.8 1115.14 802.5C1114.94 799.3 1116.47 798.6 1119.42 798.6C1134.47 798.7 1149.63 798.7 1164.68 798.6C1167.83 798.6 1168.85 799.7 1168.75 802.7C1168.54 806.7 1168.54 810.7 1168.75 814.7C1168.95 818.1 1167.93 819.4 1164.27 819.3C1156.75 818.9 1149.32 819.1 1141.79 819.1Z" fill="#FEFEFE"/>
<path d="M1067.74 762.2C1072.52 762.2 1077.2 762.3 1081.98 762.1C1084.93 762 1085.85 763.1 1085.65 765.9C1085.44 770.4 1085.44 774.9 1085.65 779.4C1085.75 781.9 1084.93 782.9 1082.19 782.9C1072.52 782.8 1062.96 782.8 1053.3 782.9C1050.55 782.9 1049.74 782 1049.84 779.4C1050.04 773.9 1048.11 767 1050.76 763.4C1053.4 759.8 1060.83 762.7 1066.22 762.2C1066.73 762.2 1067.23 762.2 1067.74 762.2Z" fill="#FDFEFE"/>
<path d="M1148.61 707.8C1148.1 710 1150.03 713.9 1147.59 714.8C1144.34 716 1140.37 715.3 1136.61 715.2C1135.08 715.2 1134.98 713.8 1134.98 712.6C1134.98 710.4 1134.88 708.3 1134.98 706.1C1135.08 697.7 1133.86 698.7 1142.51 698.7C1149.83 698.8 1148.51 697.6 1148.61 707.8Z" fill="#FAFBFC"/>
</svg>
