<?xml version="1.0" encoding="UTF-8"?>
<!--Generator: Apple Native CoreSVG 175-->
<!DOCTYPE svg
PUBLIC "-//W3C//DTD SVG 1.1//EN"
       "http://www.w3.org/Graphics/SVG/1.1/DTD/svg11.dtd">
<svg version="1.1" xmlns="http://www.w3.org/2000/svg" xmlns:xlink="http://www.w3.org/1999/xlink" width="3300" height="2200">
 <!--glyph: "", point size: 100.0, font version: "17.0d12e1", template writer version: "65.1"-->
 <style>.hierarchical-0:secondary {fill:#4D4D4D}
.hierarchical-1:primary {fill:#212121}

.SFSymbolsPreview212121 {fill:#212121;opacity:1.0}
.SFSymbolsPreview4D4D4D {fill:#4D4D4D;opacity:1.0}
</style>
 <g id="Notes">
  <rect height="2200" id="artboard" style="fill:white;opacity:1" width="3300" x="0" y="0"/>
  <line style="fill:none;stroke:black;opacity:1;stroke-width:0.5;" x1="263" x2="3036" y1="292" y2="292"/>
  <text style="stroke:none;fill:black;font-family:sans-serif;font-size:13;font-weight:bold;" transform="matrix(1 0 0 1 263 322)">Weight/Scale Variations</text>
  <text style="stroke:none;fill:black;font-family:sans-serif;font-size:13;text-anchor:middle;" transform="matrix(1 0 0 1 559.711 322)">Ultralight</text>
  <text style="stroke:none;fill:black;font-family:sans-serif;font-size:13;text-anchor:middle;" transform="matrix(1 0 0 1 856.422 322)">Thin</text>
  <text style="stroke:none;fill:black;font-family:sans-serif;font-size:13;text-anchor:middle;" transform="matrix(1 0 0 1 1153.13 322)">Light</text>
  <text style="stroke:none;fill:black;font-family:sans-serif;font-size:13;text-anchor:middle;" transform="matrix(1 0 0 1 1449.84 322)">Regular</text>
  <text style="stroke:none;fill:black;font-family:sans-serif;font-size:13;text-anchor:middle;" transform="matrix(1 0 0 1 1746.56 322)">Medium</text>
  <text style="stroke:none;fill:black;font-family:sans-serif;font-size:13;text-anchor:middle;" transform="matrix(1 0 0 1 2043.27 322)">Semibold</text>
  <text style="stroke:none;fill:black;font-family:sans-serif;font-size:13;text-anchor:middle;" transform="matrix(1 0 0 1 2339.98 322)">Bold</text>
  <text style="stroke:none;fill:black;font-family:sans-serif;font-size:13;text-anchor:middle;" transform="matrix(1 0 0 1 2636.69 322)">Heavy</text>
  <text style="stroke:none;fill:black;font-family:sans-serif;font-size:13;text-anchor:middle;" transform="matrix(1 0 0 1 2933.4 322)">Black</text>
  <line style="fill:none;stroke:black;opacity:1;stroke-width:0.5;" x1="263" x2="3036" y1="1903" y2="1903"/>
  <g transform="matrix(1 0 0 1 263 1933)">
   <path d="M9.24805 0.830078Q10.8691 0.830078 12.2949 0.214844Q13.7207-0.400391 14.8096-1.49414Q15.8984-2.58789 16.5186-4.01367Q17.1387-5.43945 17.1387-7.05078Q17.1387-8.66211 16.5186-10.0879Q15.8984-11.5137 14.8047-12.6074Q13.7109-13.7012 12.2852-14.3164Q10.8594-14.9316 9.23828-14.9316Q7.62695-14.9316 6.20117-14.3164Q4.77539-13.7012 3.69141-12.6074Q2.60742-11.5137 1.9873-10.0879Q1.36719-8.66211 1.36719-7.05078Q1.36719-5.43945 1.9873-4.01367Q2.60742-2.58789 3.69629-1.49414Q4.78516-0.400391 6.21094 0.214844Q7.63672 0.830078 9.24805 0.830078ZM9.24805-0.654297Q7.91992-0.654297 6.7627-1.14746Q5.60547-1.64062 4.73145-2.51953Q3.85742-3.39844 3.36426-4.56055Q2.87109-5.72266 2.87109-7.05078Q2.87109-8.37891 3.35938-9.54102Q3.84766-10.7031 4.72168-11.582Q5.5957-12.4609 6.75293-12.9541Q7.91016-13.4473 9.23828-13.4473Q10.5762-13.4473 11.7334-12.9541Q12.8906-12.4609 13.7695-11.582Q14.6484-10.7031 15.1465-9.54102Q15.6445-8.37891 15.6445-7.05078Q15.6445-5.72266 15.1514-4.56055Q14.6582-3.39844 13.7842-2.51953Q12.9102-1.64062 11.748-1.14746Q10.5859-0.654297 9.24805-0.654297ZM5.6543-7.05078Q5.6543-6.72852 5.85938-6.52832Q6.06445-6.32812 6.40625-6.32812L8.51562-6.32812L8.51562-4.20898Q8.51562-3.88672 8.71094-3.67676Q8.90625-3.4668 9.23828-3.4668Q9.56055-3.4668 9.77051-3.67676Q9.98047-3.88672 9.98047-4.20898L9.98047-6.32812L12.0898-6.32812Q12.4219-6.32812 12.627-6.52832Q12.832-6.72852 12.832-7.05078Q12.832-7.38281 12.627-7.58789Q12.4219-7.79297 12.0898-7.79297L9.98047-7.79297L9.98047-9.90234Q9.98047-10.2344 9.77051-10.4443Q9.56055-10.6543 9.23828-10.6543Q8.90625-10.6543 8.71094-10.4443Q8.51562-10.2344 8.51562-9.90234L8.51562-7.79297L6.40625-7.79297Q6.06445-7.79297 5.85938-7.58789Q5.6543-7.38281 5.6543-7.05078Z"/>
  </g>
  <g transform="matrix(1 0 0 1 281.867 1933)">
   <path d="M11.709 2.91016Q13.75 2.91016 15.5518 2.12891Q17.3535 1.34766 18.7305-0.0292969Q20.1074-1.40625 20.8887-3.20801Q21.6699-5.00977 21.6699-7.05078Q21.6699-9.0918 20.8887-10.8936Q20.1074-12.6953 18.7305-14.0723Q17.3535-15.4492 15.5469-16.2305Q13.7402-17.0117 11.6992-17.0117Q9.6582-17.0117 7.85645-16.2305Q6.05469-15.4492 4.68262-14.0723Q3.31055-12.6953 2.5293-10.8936Q1.74805-9.0918 1.74805-7.05078Q1.74805-5.00977 2.5293-3.20801Q3.31055-1.40625 4.6875-0.0292969Q6.06445 1.34766 7.86621 2.12891Q9.66797 2.91016 11.709 2.91016ZM11.709 1.25Q9.98047 1.25 8.47656 0.605469Q6.97266-0.0390625 5.83496-1.17676Q4.69727-2.31445 4.05762-3.81836Q3.41797-5.32227 3.41797-7.05078Q3.41797-8.7793 4.05762-10.2832Q4.69727-11.7871 5.83008-12.9297Q6.96289-14.0723 8.4668-14.7119Q9.9707-15.3516 11.6992-15.3516Q13.4277-15.3516 14.9316-14.7119Q16.4355-14.0723 17.5781-12.9297Q18.7207-11.7871 19.3652-10.2832Q20.0098-8.7793 20.0098-7.05078Q20.0098-5.32227 19.3701-3.81836Q18.7305-2.31445 17.5928-1.17676Q16.4551-0.0390625 14.9463 0.605469Q13.4375 1.25 11.709 1.25ZM7.17773-7.05078Q7.17773-6.69922 7.41211-6.47461Q7.64648-6.25 8.01758-6.25L10.8887-6.25L10.8887-3.36914Q10.8887-2.99805 11.1133-2.76855Q11.3379-2.53906 11.6895-2.53906Q12.0605-2.53906 12.29-2.76855Q12.5195-2.99805 12.5195-3.36914L12.5195-6.25L15.4004-6.25Q15.7715-6.25 16.001-6.47461Q16.2305-6.69922 16.2305-7.05078Q16.2305-7.42188 16.001-7.65137Q15.7715-7.88086 15.4004-7.88086L12.5195-7.88086L12.5195-10.752Q12.5195-11.1328 12.29-11.3623Q12.0605-11.5918 11.6895-11.5918Q11.3379-11.5918 11.1133-11.3574Q10.8887-11.123 10.8887-10.752L10.8887-7.88086L8.01758-7.88086Q7.63672-7.88086 7.40723-7.65137Q7.17773-7.42188 7.17773-7.05078Z"/>
  </g>
  <g transform="matrix(1 0 0 1 305.646 1933)">
   <path d="M14.9707 5.66406Q17.0605 5.66406 18.96 5.01465Q20.8594 4.36523 22.4512 3.19336Q24.043 2.02148 25.2197 0.429688Q26.3965-1.16211 27.0459-3.06641Q27.6953-4.9707 27.6953-7.05078Q27.6953-9.14062 27.0459-11.04Q26.3965-12.9395 25.2197-14.5312Q24.043-16.123 22.4512-17.2998Q20.8594-18.4766 18.9551-19.126Q17.0508-19.7754 14.9609-19.7754Q12.8711-19.7754 10.9717-19.126Q9.07227-18.4766 7.48535-17.2998Q5.89844-16.123 4.72168-14.5312Q3.54492-12.9395 2.90039-11.04Q2.25586-9.14062 2.25586-7.05078Q2.25586-4.9707 2.90527-3.06641Q3.55469-1.16211 4.72656 0.429688Q5.89844 2.02148 7.49023 3.19336Q9.08203 4.36523 10.9814 5.01465Q12.8809 5.66406 14.9707 5.66406ZM14.9707 3.84766Q13.1641 3.84766 11.5283 3.2959Q9.89258 2.74414 8.53516 1.74805Q7.17773 0.751953 6.17676-0.610352Q5.17578-1.97266 4.62891-3.6084Q4.08203-5.24414 4.08203-7.05078Q4.08203-8.86719 4.62891-10.5029Q5.17578-12.1387 6.17188-13.501Q7.16797-14.8633 8.52539-15.8594Q9.88281-16.8555 11.5186-17.4023Q13.1543-17.9492 14.9609-17.9492Q16.7773-17.9492 18.4131-17.4023Q20.0488-16.8555 21.4111-15.8594Q22.7734-14.8633 23.7695-13.501Q24.7656-12.1387 25.3174-10.5029Q25.8691-8.86719 25.8691-7.05078Q25.8789-5.24414 25.332-3.6084Q24.7852-1.97266 23.7842-0.610352Q22.7832 0.751953 21.4209 1.74805Q20.0586 2.74414 18.4229 3.2959Q16.7871 3.84766 14.9707 3.84766ZM9.19922-7.05078Q9.19922-6.66992 9.45801-6.4209Q9.7168-6.17188 10.1172-6.17188L14.0625-6.17188L14.0625-2.2168Q14.0625-1.81641 14.3115-1.55762Q14.5605-1.29883 14.9512-1.29883Q15.3516-1.29883 15.6104-1.55273Q15.8691-1.80664 15.8691-2.2168L15.8691-6.17188L19.8242-6.17188Q20.2246-6.17188 20.4785-6.4209Q20.7324-6.66992 20.7324-7.05078Q20.7324-7.46094 20.4785-7.71484Q20.2246-7.96875 19.8242-7.96875L15.8691-7.96875L15.8691-11.9141Q15.8691-12.3242 15.6104-12.583Q15.3516-12.8418 14.9512-12.8418Q14.5605-12.8418 14.3115-12.583Q14.0625-12.3242 14.0625-11.9141L14.0625-7.96875L10.1172-7.96875Q9.70703-7.96875 9.45312-7.71484Q9.19922-7.46094 9.19922-7.05078Z"/>
  </g>
  <text style="stroke:none;fill:black;font-family:sans-serif;font-size:13;font-weight:bold;" transform="matrix(1 0 0 1 263 1953)">Design Variations</text>
  <text style="stroke:none;fill:black;font-family:sans-serif;font-size:13;" transform="matrix(1 0 0 1 263 1971)">Symbols are supported in up to nine weights and three scales.</text>
  <text style="stroke:none;fill:black;font-family:sans-serif;font-size:13;" transform="matrix(1 0 0 1 263 1989)">For optimal layout with text and other symbols, vertically align</text>
  <text style="stroke:none;fill:black;font-family:sans-serif;font-size:13;" transform="matrix(1 0 0 1 263 2007)">symbols with the adjacent text.</text>
  <line style="fill:none;stroke:#00AEEF;stroke-width:0.5;opacity:1.0;" x1="776" x2="776" y1="1919" y2="1933"/>
  <g transform="matrix(1 0 0 1 776 1933)">
   <path d="M3.31055 0.15625Q3.70117 0.15625 3.91602-0.00976562Q4.13086-0.175781 4.26758-0.585938L5.52734-4.0332L11.2891-4.0332L12.5488-0.585938Q12.6855-0.175781 12.9004-0.00976562Q13.1152 0.15625 13.4961 0.15625Q13.8867 0.15625 14.1162-0.0585938Q14.3457-0.273438 14.3457-0.644531Q14.3457-0.869141 14.2383-1.17188L9.6582-13.3691Q9.48242-13.8184 9.17969-14.043Q8.87695-14.2676 8.4082-14.2676Q7.5-14.2676 7.17773-13.3789L2.59766-1.16211Q2.49023-0.859375 2.49023-0.634766Q2.49023-0.263672 2.70996-0.0537109Q2.92969 0.15625 3.31055 0.15625ZM6.00586-5.51758L8.37891-12.0898L8.42773-12.0898L10.8008-5.51758Z"/>
  </g>
  <line style="fill:none;stroke:#00AEEF;stroke-width:0.5;opacity:1.0;" x1="793.197" x2="793.197" y1="1919" y2="1933"/>
  <text style="stroke:none;fill:black;font-family:sans-serif;font-size:13;font-weight:bold;" transform="matrix(1 0 0 1 776 1953)">Margins</text>
  <text style="stroke:none;fill:black;font-family:sans-serif;font-size:13;" transform="matrix(1 0 0 1 776 1971)">Leading and trailing margins on the left and right side of each symbol</text>
  <text style="stroke:none;fill:black;font-family:sans-serif;font-size:13;" transform="matrix(1 0 0 1 776 1989)">can be adjusted by modifying the x-location of the margin guidelines.</text>
  <text style="stroke:none;fill:black;font-family:sans-serif;font-size:13;" transform="matrix(1 0 0 1 776 2007)">Modifications are automatically applied proportionally to all</text>
  <text style="stroke:none;fill:black;font-family:sans-serif;font-size:13;" transform="matrix(1 0 0 1 776 2025)">scales and weights.</text>
  <g transform="matrix(1 0 0 1 1289 1933)">
   <path d="M2.8418 1.86523L4.54102 3.57422Q5.18555 4.22852 5.90332 4.17969Q6.62109 4.13086 7.31445 3.35938L18.0078-8.42773L17.041-9.4043L6.42578 2.27539Q6.16211 2.57812 5.89355 2.61719Q5.625 2.65625 5.27344 2.30469L4.10156 1.14258Q3.75 0.791016 3.79395 0.522461Q3.83789 0.253906 4.14062-0.0195312L15.6152-10.8203L14.6387-11.7871L3.04688-0.898438Q2.30469-0.214844 2.25098 0.498047Q2.19727 1.21094 2.8418 1.86523ZM9.25781-16.3281Q8.94531-16.0254 8.90625-15.6348Q8.86719-15.2441 9.04297-14.9512Q9.21875-14.6777 9.55566-14.541Q9.89258-14.4043 10.3809-14.5215Q11.4746-14.7754 12.5977-14.7314Q13.7207-14.6875 14.7949-13.9844L14.209-12.5293Q13.9551-11.9043 14.0674-11.4404Q14.1797-10.9766 14.5801-10.5664L16.875-8.25195Q17.2363-7.88086 17.5781-7.82227Q17.9199-7.76367 18.3398-7.8418L19.4043-8.03711L20.0684-7.36328L20.0293-6.80664Q20-6.43555 20.1221-6.12305Q20.2441-5.81055 20.6055-5.44922L21.3672-4.70703Q21.7285-4.3457 22.1533-4.33105Q22.5781-4.31641 22.9297-4.66797L25.8398-7.58789Q26.1914-7.93945 26.1816-8.35449Q26.1719-8.76953 25.8105-9.13086L25.0391-9.89258Q24.6875-10.2539 24.3799-10.3857Q24.0723-10.5176 23.7109-10.4883L23.1348-10.4395L22.4902-11.0742L22.7344-12.1973Q22.832-12.6172 22.6953-12.9834Q22.5586-13.3496 22.1191-13.7891L19.9219-15.9766Q18.6719-17.2168 17.2607-17.8369Q15.8496-18.457 14.4189-18.4814Q12.9883-18.5059 11.665-17.959Q10.3418-17.4121 9.25781-16.3281ZM10.752-15.957Q11.6602-16.6211 12.7002-16.9043Q13.7402-17.1875 14.8047-17.085Q15.8691-16.9824 16.8701-16.5137Q17.8711-16.0449 18.7012-15.2051L21.1328-12.793Q21.3086-12.6172 21.3525-12.4512Q21.3965-12.2852 21.3379-12.0312L21.0156-10.5469L22.5195-9.0625L23.5059-9.12109Q23.6914-9.13086 23.7891-9.09668Q23.8867-9.0625 24.0332-8.91602L24.6094-8.33984L22.168-5.89844L21.5918-6.47461Q21.4453-6.62109 21.4062-6.71875Q21.3672-6.81641 21.377-7.01172L21.4453-7.98828L19.9512-9.47266L18.4277-9.21875Q18.1836-9.16992 18.042-9.2041Q17.9004-9.23828 17.7148-9.41406L15.7129-11.416Q15.5176-11.5918 15.4932-11.7529Q15.4688-11.9141 15.5859-12.1875L16.4648-14.2773Q15.293-15.3711 13.8281-15.791Q12.3633-16.2109 10.8398-15.7617Q10.7227-15.7324 10.6885-15.8057Q10.6543-15.8789 10.752-15.957Z"/>
  </g>
  <text style="stroke:none;fill:black;font-family:sans-serif;font-size:13;font-weight:bold;" transform="matrix(1 0 0 1 1289 1953)">Exporting</text>
  <text style="stroke:none;fill:black;font-family:sans-serif;font-size:13;" transform="matrix(1 0 0 1 1289 1971)">Symbols should be outlined when exporting to ensure the</text>
  <text style="stroke:none;fill:black;font-family:sans-serif;font-size:13;" transform="matrix(1 0 0 1 1289 1989)">design is preserved when submitting to Xcode.</text>
  <text id="template-version" style="stroke:none;fill:black;font-family:sans-serif;font-size:13;text-anchor:end;" transform="matrix(1 0 0 1 3036 1933)">Template v.3.0</text>
  <text style="stroke:none;fill:black;font-family:sans-serif;font-size:13;text-anchor:end;" transform="matrix(1 0 0 1 3036 1951)">Requires Xcode 13 or greater</text>
  <text id="descriptive-name" style="stroke:none;fill:black;font-family:sans-serif;font-size:13;text-anchor:end;" transform="matrix(1 0 0 1 3036 1969)">Generated from refresh-ccw</text>
  <text style="stroke:none;fill:black;font-family:sans-serif;font-size:13;text-anchor:end;" transform="matrix(1 0 0 1 3036 1987)">Typeset at 100 points</text>
  <text style="stroke:none;fill:black;font-family:sans-serif;font-size:13;" transform="matrix(1 0 0 1 263 726)">Small</text>
  <text style="stroke:none;fill:black;font-family:sans-serif;font-size:13;" transform="matrix(1 0 0 1 263 1156)">Medium</text>
  <text style="stroke:none;fill:black;font-family:sans-serif;font-size:13;" transform="matrix(1 0 0 1 263 1586)">Large</text>
 </g>
 <g id="Guides">
  <g id="H-reference" style="fill:#27AAE1;stroke:none;" transform="matrix(1 0 0 1 339 696)">
   <path d="M0.976562 0L3.66211 0L29.3457-67.1387L30.0293-67.1387L30.0293-70.459L28.125-70.459ZM11.6699-24.4629L46.9727-24.4629L46.2402-26.709L12.4512-26.709ZM55.127 0L57.7637 0L30.6152-70.459L29.4434-70.459L29.4434-67.1387Z"/>
  </g>
  <line id="Baseline-S" style="fill:none;stroke:#27AAE1;opacity:1;stroke-width:0.5;" x1="263" x2="3036" y1="696" y2="696"/>
  <line id="Capline-S" style="fill:none;stroke:#27AAE1;opacity:1;stroke-width:0.5;" x1="263" x2="3036" y1="625.541" y2="625.541"/>
  <g id="H-reference" style="fill:#27AAE1;stroke:none;" transform="matrix(1 0 0 1 339 1126)">
   <path d="M0.976562 0L3.66211 0L29.3457-67.1387L30.0293-67.1387L30.0293-70.459L28.125-70.459ZM11.6699-24.4629L46.9727-24.4629L46.2402-26.709L12.4512-26.709ZM55.127 0L57.7637 0L30.6152-70.459L29.4434-70.459L29.4434-67.1387Z"/>
  </g>
  <line id="Baseline-M" style="fill:none;stroke:#27AAE1;opacity:1;stroke-width:0.5;" x1="263" x2="3036" y1="1126" y2="1126"/>
  <line id="Capline-M" style="fill:none;stroke:#27AAE1;opacity:1;stroke-width:0.5;" x1="263" x2="3036" y1="1055.54" y2="1055.54"/>
  <g id="H-reference" style="fill:#27AAE1;stroke:none;" transform="matrix(1 0 0 1 339 1556)">
   <path d="M0.976562 0L3.66211 0L29.3457-67.1387L30.0293-67.1387L30.0293-70.459L28.125-70.459ZM11.6699-24.4629L46.9727-24.4629L46.2402-26.709L12.4512-26.709ZM55.127 0L57.7637 0L30.6152-70.459L29.4434-70.459L29.4434-67.1387Z"/>
  </g>
  <line id="Baseline-L" style="fill:none;stroke:#27AAE1;opacity:1;stroke-width:0.5;" x1="263" x2="3036" y1="1556" y2="1556"/>
  <line id="Capline-L" style="fill:none;stroke:#27AAE1;opacity:1;stroke-width:0.5;" x1="263" x2="3036" y1="1485.54" y2="1485.54"/>
  <line id="left-margin-Regular-M" style="fill:none;stroke:#00AEEF;stroke-width:0.5;opacity:1.0;" x1="1393.19" x2="1393.19" y1="1030.78" y2="1150.12"/>
  <line id="right-margin-Regular-M" style="fill:none;stroke:#00AEEF;stroke-width:0.5;opacity:1.0;" x1="1506.5" x2="1506.5" y1="1030.78" y2="1150.12"/>
 </g>
 <g id="Symbols">
  <g id="Black-L" transform="matrix(1 0 0 1 2859.67 1556)">
   <path class="hierarchical-0:secondary SFSymbolsPreview4D4D4D" d="M141.621-30.1936C144.301-27.3336 144.161-22.8436 141.301-20.1536L114.991 4.56648C108.051 11.4964 99.4711 16.5464 90.0411 19.2764C80.5911 22.0064 70.5911 22.3064 60.9911 20.1364C51.3811 17.9564 42.4911 13.3864 35.1311 6.84648C27.7711 0.306477 22.1811-7.99352 18.9011-17.2736C17.5911-20.9736 19.5311-25.0236 23.2211-26.3336C26.9211-27.6436 30.9811-25.7036 32.2911-22.0136C34.7711-14.9936 38.9911-8.71352 44.5611-3.76352C50.1311 1.18648 56.8611 4.63648 64.1211 6.28648C71.3811 7.92648 78.9411 7.70648 86.1011 5.63648C93.2511 3.56648 99.771-0.283526 105.031-5.55352C105.081-5.60352 105.141-5.65352 105.191-5.70352L131.581-30.5036C134.441-33.1836 138.931-33.0436 141.621-30.1936ZM95.2211-25.3236C95.2211-29.2536 98.4011-32.4236 102.321-32.4236L136.441-32.4236C140.361-32.4236 143.541-29.2536 143.541-25.3236L143.541 8.79648C143.541 12.7164 140.361 15.8964 136.441 15.8964C132.521 15.8964 129.341 12.7164 129.341 8.79648L129.341-18.2236L102.321-18.2236C98.4011-18.2236 95.2211-21.4036 95.2211-25.3236Z"/>
   <path class="hierarchical-1:primary SFSymbolsPreview212121" d="M57.7211-92.6836C67.1711-95.4136 77.1711-95.7136 86.7811-93.5436C96.3811-91.3636 105.271-86.7936 112.631-80.2536C119.991-73.7136 125.581-65.4136 128.861-56.1336C130.171-52.4336 128.231-48.3836 124.541-47.0736C120.841-45.7636 116.781-47.7036 115.471-51.3936C112.991-58.4136 108.771-64.6936 103.201-69.6436C97.6311-74.5936 90.9111-78.0436 83.6411-79.6936C76.3811-81.3336 68.8211-81.1136 61.6611-79.0436C54.5111-76.9736 47.9911-73.1236 42.7311-67.8536C42.6811-67.8036 42.6211-67.7536 42.5711-67.7036L16.1811-42.9036C13.3211-40.2236 8.83108-40.3636 6.14108-43.2136C3.46108-46.0736 3.60108-50.5636 6.46108-53.2536L32.7711-77.9736C39.7111-84.9036 48.2911-89.9536 57.7211-92.6836ZM11.3211-89.3036C15.2411-89.3036 18.4211-86.1236 18.4211-82.2036L18.4211-55.1736L45.4411-55.1736C49.3611-55.1736 52.5411-52.0036 52.5411-48.0736C52.5411-44.1536 49.3611-40.9736 45.4411-40.9736L11.3211-40.9736C7.40108-40.9736 4.22108-44.1536 4.22108-48.0736L4.22108-82.2036C4.22108-86.1236 7.40108-89.3036 11.3211-89.3036Z"/>
  </g>
  <g id="Heavy-L" transform="matrix(1 0 0 1 2563.81 1556)">
   <path class="hierarchical-0:secondary SFSymbolsPreview4D4D4D" d="M140.153-29.5796C142.513-27.0696 142.393-23.1096 139.873-20.7496L113.553 3.98034C106.703 10.8104 98.2431 15.8004 88.9631 18.4804C79.6431 21.1804 69.7831 21.4704 60.3231 19.3304C50.8631 17.1904 42.0931 12.6804 34.8431 6.24034C27.5931-0.209662 22.0931-8.38966 18.8531-17.5296C17.7031-20.7896 19.4031-24.3596 22.6631-25.5096C25.9131-26.6596 29.4831-24.9596 30.6331-21.6996C33.1731-14.5496 37.4731-8.14966 43.1431-3.10966C48.8231 1.94034 55.6831 5.46034 63.0831 7.14034C70.4831 8.81034 78.1931 8.58034 85.4831 6.47034C92.7731 4.37034 99.4131 0.440339 104.783-4.92966C104.833-4.96966 104.873-5.01966 104.923-5.05966L131.313-29.8596C133.833-32.2196 137.783-32.0996 140.153-29.5796ZM95.2231-25.2996C95.2231-28.7596 98.0131-31.5496 101.473-31.5496L135.593-31.5496C139.043-31.5496 141.843-28.7596 141.843-25.2996L141.843 8.82034C141.843 12.2704 139.043 15.0704 135.593 15.0704C132.143 15.0704 129.343 12.2704 129.343 8.82034L129.343-19.0496L101.473-19.0496C98.0131-19.0496 95.2231-21.8496 95.2231-25.2996Z"/>
   <path class="hierarchical-1:primary SFSymbolsPreview212121" d="M57.1031-91.8396C66.4231-94.5396 76.2731-94.8296 85.7431-92.6896C95.2031-90.5496 103.973-86.0396 111.223-79.5996C118.473-73.1496 123.973-64.9696 127.213-55.8296C128.363-52.5696 126.653-48.9996 123.403-47.8496C120.153-46.6996 116.573-48.3996 115.423-51.6596C112.893-58.8096 108.593-65.2096 102.913-70.2496C97.2431-75.2996 90.3831-78.8196 82.9831-80.4996C75.5731-82.1696 67.8731-81.9396 60.5731-79.8296C53.2831-77.7196 46.6431-73.7996 41.2831-68.4296C41.2331-68.3896 41.1831-68.3396 41.1431-68.2996L14.7531-43.4996C12.2331-41.1396 8.27307-41.2596 5.91307-43.7696C3.55307-46.2896 3.67307-50.2496 6.19307-52.6096L32.5131-77.3396C39.3531-84.1696 47.8131-89.1596 57.1031-91.8396ZM10.4731-88.4296C13.9231-88.4296 16.7231-85.6296 16.7231-82.1796L16.7231-54.2996L44.5931-54.2996C48.0431-54.2996 50.8431-51.5096 50.8431-48.0496C50.8431-44.5996 48.0431-41.7996 44.5931-41.7996L10.4731-41.7996C7.01307-41.7996 4.22307-44.5996 4.22307-48.0496L4.22307-82.1796C4.22307-85.6296 7.01307-88.4296 10.4731-88.4296Z"/>
  </g>
  <g id="Bold-L" transform="matrix(1 0 0 1 2268.05 1556)">
   <path class="hierarchical-0:secondary SFSymbolsPreview4D4D4D" d="M138.51-28.9106C140.51-26.7806 140.41-23.4306 138.28-21.4206L111.95 3.3194C105.21 10.0394 96.89 14.9494 87.75 17.5894C78.58 20.2394 68.89 20.5294 59.59 18.4194C50.28 16.3194 41.66 11.8894 34.53 5.5494C27.4-0.790605 21.98-8.8306 18.8-17.8306C17.83-20.5906 19.27-23.6206 22.03-24.5906C24.79-25.5706 27.82-24.1206 28.79-21.3706C31.38-14.0606 35.78-7.5206 41.57-2.3706C47.36 2.7694 54.37 6.3694 61.93 8.0794C69.49 9.7894 77.36 9.5594 84.8 7.4094C92.25 5.2494 99.03 1.2494 104.51-4.2306C104.55-4.2706 104.59-4.3106 104.63-4.3506L131.02-29.1506C133.15-31.1506 136.51-31.0506 138.51-28.9106ZM95.22-25.2806C95.22-28.2106 97.6-30.5806 100.52-30.5806L134.65-30.5806C137.57-30.5806 139.95-28.2106 139.95-25.2806L139.95 8.8394C139.95 11.7694 137.57 14.1394 134.65 14.1394C131.72 14.1394 129.35 11.7694 129.35 8.8394L129.35-19.9806L100.52-19.9806C97.6-19.9806 95.22-22.3606 95.22-25.2806Z"/>
   <path class="hierarchical-1:primary SFSymbolsPreview212121" d="M56.42-90.9106C65.59-93.5606 75.28-93.8506 84.58-91.7406C93.89-89.6406 102.51-85.2106 109.64-78.8706C116.78-72.5306 122.19-64.4906 125.37-55.4906C126.34-52.7306 124.9-49.7006 122.14-48.7306C119.38-47.7506 116.35-49.1906 115.38-51.9506C112.79-59.2606 108.39-65.7906 102.6-70.9406C96.81-76.0906 89.8-79.6906 82.24-81.4006C74.68-83.1106 66.81-82.8806 59.37-80.7306C51.92-78.5706 45.14-74.5706 39.66-69.0906C39.62-69.0506 39.58-69.0106 39.54-68.9706L13.15-44.1706C11.02-42.1706 7.66-42.2706 5.66-44.4106C3.66-46.5406 3.76-49.8906 5.89-51.9006L32.22-76.6406C38.96-83.3606 47.28-88.2706 56.42-90.9106ZM9.52-87.4606C12.45-87.4606 14.82-85.0906 14.82-82.1606L14.82-53.3306L43.65-53.3306C46.57-53.3306 48.95-50.9606 48.95-48.0306C48.95-45.1106 46.57-42.7306 43.65-42.7306L9.52-42.7306C6.6-42.7306 4.22-45.1106 4.22-48.0306L4.22-82.1606C4.22-85.0906 6.6-87.4606 9.52-87.4606Z"/>
  </g>
  <g id="Semibold-L" transform="matrix(1 0 0 1 1971.99 1556)">
   <path class="hierarchical-0:secondary SFSymbolsPreview4D4D4D" d="M137.383-28.4484C139.143-26.5784 139.053-23.6284 137.183-21.8784L110.843 2.87154C104.183 9.52157 95.9534 14.3716 86.9134 16.9916C77.8534 19.6116 68.2834 19.8916 59.0834 17.8116C49.8834 15.7316 41.3534 11.3516 34.3034 5.08154C27.2534-1.17846 21.9134-9.12846 18.7634-18.0284C17.9034-20.4484 19.1734-23.0984 21.5934-23.9584C24.0134-24.8184 26.6734-23.5484 27.5334-21.1284C30.1534-13.7184 34.6134-7.08846 40.4834-1.86846C46.3634 3.35154 53.4634 7.00154 61.1334 8.74154C68.8034 10.4716 76.7834 10.2416 84.3334 8.05154C91.8834 5.87154 98.7634 1.81154 104.313-3.74846C104.353-3.78846 104.383-3.81846 104.423-3.85846L130.813-28.6484C132.683-30.4084 135.623-30.3184 137.383-28.4484ZM95.2234-25.2584C95.2234-27.8284 97.3034-29.9084 99.873-29.9084L133.993-29.9084C136.563-29.9084 138.643-27.8284 138.643-25.2584L138.643 8.86154C138.643 11.4316 136.563 13.5116 133.993 13.5116C131.423 13.5116 129.343 11.4316 129.343 8.86154L129.343-20.6084L99.873-20.6084C97.3034-20.6084 95.2234-22.6984 95.2234-25.2584Z"/>
   <path class="hierarchical-1:primary SFSymbolsPreview212121" d="M55.9534-90.2584C65.0134-92.8884 74.5834-93.1684 83.7834-91.0884C92.9834-89.0084 101.513-84.6284 108.563-78.3584C115.613-72.0984 120.953-64.1484 124.103-55.2484C124.963-52.8284 123.693-50.1784 121.273-49.3184C118.853-48.4584 116.193-49.7284 115.333-52.1484C112.713-59.5584 108.253-66.1884 102.383-71.4084C96.5034-76.6284 89.4034-80.2784 81.7334-82.0184C74.0634-83.7484 66.0834-83.5184 58.5334-81.3284C50.9834-79.1484 44.1034-75.0884 38.5534-69.5184C38.5134-69.4884 38.4834-69.4584 38.4434-69.4184L12.0534-44.6284C10.1834-42.8684 7.24342-42.9584 5.48342-44.8284C3.72342-46.6984 3.81342-49.6384 5.68342-51.3984L32.0234-76.1484C38.6834-82.7984 46.9134-87.6484 55.9534-90.2584ZM8.87342-86.7884C11.4434-86.7884 13.5234-84.7084 13.5234-82.1384L13.5234-52.6584L42.9934-52.6584C45.5634-52.6584 47.6434-50.5784 47.6434-48.0084C47.6434-45.4484 45.5634-43.3584 42.9934-43.3584L8.87342-43.3584C6.30342-43.3584 4.22342-45.4484 4.22342-48.0084L4.22342-82.1384C4.22342-84.7084 6.30342-86.7884 8.87342-86.7884Z"/>
  </g>
  <g id="Medium-L" transform="matrix(1 0 0 1 1675.78 1556)">
   <path class="hierarchical-0:secondary SFSymbolsPreview4D4D4D" d="M136.522-28.0964C138.092-26.4264 138.002-23.7964 136.332-22.2264L109.992 2.52368C103.392 9.11368 95.2323 13.9236 86.2723 16.5236C77.2923 19.1136 67.8023 19.3936 58.6923 17.3336C49.5723 15.2736 41.1223 10.9336 34.1423 4.72368C27.1523-1.48632 21.8523-9.36632 18.7323-18.1764C17.9723-20.3364 19.1023-22.7064 21.2623-23.4764C23.4223-24.2364 25.7923-23.1064 26.5623-20.9464C29.2123-13.4564 33.7123-6.75632 39.6523-1.48632C45.5923 3.79368 52.7723 7.48368 60.5223 9.23368C68.2723 10.9936 76.3423 10.7536 83.9723 8.54368C91.6023 6.33368 98.5523 2.23368 104.172-3.38632C104.202-3.41632 104.232-3.44632 104.262-3.47632L130.652-28.2764C132.322-29.8464 134.952-29.7664 136.522-28.0964ZM95.2223-25.2464C95.2223-27.5464 97.0823-29.3964 99.3723-29.3964L133.492-29.3964C135.782-29.3964 137.642-27.5464 137.642-25.2464L137.642 8.87368C137.642 11.1636 135.782 13.0236 133.492 13.0236C131.202 13.0236 129.342 11.1636 129.342 8.87368L129.342-21.0964L99.3723-21.0964C97.0823-21.0964 95.2223-22.9564 95.2223-25.2464Z"/>
   <path class="hierarchical-1:primary SFSymbolsPreview212121" d="M55.5923-89.7664C64.5723-92.3664 74.0623-92.6464 83.1723-90.5864C92.2923-88.5264 100.742-84.1864 107.722-77.9764C114.712-71.7664 120.012-63.8864 123.132-55.0764C123.892-52.9164 122.762-50.5364 120.602-49.7764C118.442-49.0164 116.072-50.1464 115.302-52.3064C112.652-59.7964 108.152-66.4964 102.212-71.7664C96.2723-77.0464 89.0923-80.7364 81.3423-82.4864C73.5923-84.2464 65.5223-84.0064 57.8923-81.7964C50.2623-79.5864 43.3123-75.4864 37.6923-69.8664C37.6623-69.8364 37.6323-69.8064 37.6023-69.7764L11.2123-44.9764C9.54227-43.4064 6.91227-43.4864 5.34227-45.1564C3.77227-46.8264 3.86227-49.4564 5.53227-51.0264L31.8723-75.7764C38.4723-82.3664 46.6323-87.1764 55.5923-89.7664ZM8.37227-86.2764C10.6623-86.2764 12.5223-84.4164 12.5223-82.1264L12.5223-52.1464L42.4923-52.1464C44.7823-52.1464 46.6423-50.2964 46.6423-47.9964C46.6423-45.7064 44.7823-43.8464 42.4923-43.8464L8.37227-43.8464C6.08227-43.8464 4.22227-45.7064 4.22227-47.9964L4.22227-82.1264C4.22227-84.4164 6.08227-86.2764 8.37227-86.2764Z"/>
  </g>
  <g id="Regular-L" transform="matrix(1 0 0 1 1379.72 1556)">
   <path class="hierarchical-0:secondary SFSymbolsPreview4D4D4D" d="M135.394-27.6224C136.724-26.2124 136.654-24.0024 135.244-22.6724L108.894 2.08754C102.364 8.59754 94.3042 13.3576 85.4442 15.9176C76.5742 18.4876 67.1942 18.7576 58.1842 16.7276C49.1742 14.6876 40.8242 10.3976 33.9242 4.25754C27.0142-1.87246 21.7842-9.66246 18.6942-18.3724C18.0542-20.1924 19.0042-22.1924 20.8342-22.8424C22.6542-23.4824 24.6542-22.5324 25.2942-20.7024C27.9842-13.1124 32.5542-6.32246 38.5742-0.972456C44.5942 4.37754 51.8742 8.11754 59.7242 9.89757C67.5842 11.6776 75.7642 11.4276 83.5042 9.19754C91.2442 6.95754 98.2842 2.79754 103.984-2.90246C104.004-2.93246 104.034-2.95246 104.064-2.98246L130.454-27.7824C131.854-29.1024 134.074-29.0324 135.394-27.6224ZM95.2242-25.2224C95.2242-27.1624 96.7842-28.7224 98.7242-28.7224L132.844-28.7224C134.784-28.7224 136.344-27.1624 136.344-25.2224L136.344 8.89754C136.344 10.8276 134.784 12.3976 132.844 12.3976C130.914 12.3976 129.344 10.8276 129.344 8.89754L129.344-21.7224L98.7242-21.7224C96.7842-21.7224 95.2242-23.2924 95.2242-25.2224Z"/>
   <path class="hierarchical-1:primary SFSymbolsPreview212121" d="M55.1242-89.1224C63.9942-91.6924 73.3742-91.9624 82.3842-89.9324C91.3942-87.8924 99.744-83.6024 106.644-77.4624C113.554-71.3224 118.784-63.5424 121.874-54.8324C122.514-53.0124 121.564-51.0124 119.734-50.3624C117.914-49.7224 115.914-50.6724 115.274-52.4924C112.584-60.0924 108.014-66.8824 101.994-72.2324C95.9742-77.5824 88.6942-81.3224 80.8442-83.1024C72.9842-84.8824 64.8042-84.6324 57.0642-82.4024C49.3242-80.1624 42.2842-76.0024 36.5842-70.3024C36.5642-70.2724 36.5342-70.2524 36.5042-70.2224L10.1142-45.4224C8.71416-44.1024 6.49416-44.1724 5.17416-45.5824C3.84416-46.9924 3.91416-49.2024 5.32416-50.5324L31.6742-75.2924C38.2042-81.8024 46.2642-86.5624 55.1242-89.1224ZM7.72416-85.6024C9.6542-85.6024 11.2242-84.0324 11.2242-82.1024L11.2242-51.4724L41.8442-51.4724C43.7842-51.4724 45.3442-49.9124 45.3442-47.9724C45.3442-46.0424 43.7842-44.4724 41.8442-44.4724L7.72416-44.4724C5.78416-44.4724 4.22416-46.0424 4.22416-47.9724L4.22416-82.1024C4.22416-84.0324 5.78416-85.6024 7.72416-85.6024Z"/>
  </g>
  <g id="Light-L" transform="matrix(1 0 0 1 1083.81 1556)">
   <path class="hierarchical-0:secondary SFSymbolsPreview4D4D4D" d="M134.013-27.0552C135.033-25.9752 134.983-24.2652 133.893-23.2452L107.533 1.52488C101.103 7.94488 93.1525 12.6448 84.4225 15.1648C75.6825 17.6948 66.4325 17.9648 57.5625 15.9648C48.6825 13.9548 40.4525 9.72484 33.6525 3.67488C26.8525-2.36512 21.6825-10.0451 18.6525-18.6252C18.1525-20.0252 18.8925-21.5752 20.2925-22.0652C21.7025-22.5652 23.2425-21.8252 23.7425-20.4252C26.4725-12.7052 31.1125-5.79512 37.2425-0.355116C43.3625 5.08488 50.7625 8.88488 58.7525 10.6948C66.7425 12.5048 75.0525 12.2548 82.9225 9.97484C90.7925 7.70488 97.9525 3.47488 103.743-2.32512C103.763-2.34512 103.783-2.36512 103.803-2.38512L130.193-27.1752C131.283-28.1952 132.993-28.1452 134.013-27.0552ZM95.2225-25.2052C95.2225-26.7052 96.4325-27.9052 97.9225-27.9052L132.043-27.9052C133.533-27.9052 134.743-26.7052 134.743-25.2052L134.743 8.91488C134.743 10.4048 133.533 11.6148 132.043 11.6148C130.553 11.6148 129.343 10.4048 129.343 8.91488L129.343-22.5052L97.9225-22.5052C96.4325-22.5052 95.2225-23.7152 95.2225-25.2052Z"/>
   <path class="hierarchical-1:primary SFSymbolsPreview212121" d="M54.5425-88.3352C63.2825-90.8652 72.5325-91.1352 81.4025-89.1352C90.2825-87.1252 98.5125-82.8952 105.313-76.8452C112.113-70.8052 117.283-63.1252 120.313-54.5452C120.813-53.1452 120.073-51.5952 118.673-51.1052C117.263-50.6052 115.723-51.3452 115.223-52.7452C112.493-60.4652 107.853-67.3752 101.723-72.8152C95.6025-78.2552 88.2025-82.0552 80.2125-83.8652C72.2225-85.6752 63.9125-85.4252 56.0425-83.1452C48.1725-80.8752 41.0125-76.6452 35.2225-70.8452C35.2025-70.8252 35.1825-70.8052 35.1625-70.7852L8.77253-45.9952C7.68253-44.9752 5.97253-45.0252 4.95253-46.1152C3.93253-47.1952 3.98253-48.9052 5.07253-49.9252L31.4325-74.6952C37.8625-81.1152 45.8125-85.8152 54.5425-88.3352ZM6.92253-84.7852C8.41253-84.7852 9.62253-83.5752 9.62253-82.0852L9.62253-50.6552L41.0425-50.6552C42.5325-50.6552 43.7425-49.4552 43.7425-47.9552C43.7425-46.4652 42.5325-45.2552 41.0425-45.2552L6.92253-45.2552C5.43253-45.2552 4.22253-46.4652 4.22253-47.9552L4.22253-82.0852C4.22253-83.5752 5.43253-84.7852 6.92253-84.7852Z"/>
  </g>
  <g id="Thin-L" transform="matrix(1 0 0 1 788.145 1556)">
   <path class="hierarchical-0:secondary SFSymbolsPreview4D4D4D" d="M132.197-26.316C132.821-25.656 132.789-24.616 132.124-23.986L105.753 0.793941C99.4473 7.09394 91.6483 11.704 83.0823 14.174C74.5083 16.654 65.4463 16.924 56.7403 14.954C48.0353 12.984 39.9703 8.84394 33.2993 2.91394C26.6283-3.01606 21.5673-10.5361 18.5903-18.956C18.2863-19.816 18.7363-20.756 19.5953-21.056C20.4543-21.366 21.3973-20.916 21.7013-20.056C24.4923-12.166 29.2373-5.11606 35.4913 0.443941C41.7463 6.00394 49.3073 9.89397 57.4683 11.734C65.6303 13.584 74.1273 13.334 82.1653 11.004C90.2043 8.68394 97.5223 4.35394 103.438-1.55606C103.45-1.57606 103.462-1.58606 103.475-1.59606L129.865-26.396C130.529-27.016 131.573-26.986 132.197-26.316ZM95.2203-25.186C95.2203-26.106 95.9583-26.836 96.8703-26.836L130.995-26.836C131.906-26.836 132.645-26.106 132.645-25.186L132.645 8.93394C132.645 9.84397 131.906 10.584 130.995 10.584C130.083 10.584 129.345 9.84397 129.345 8.93394L129.345-23.536L96.8703-23.536C95.9583-23.536 95.2203-24.276 95.2203-25.186Z"/>
   <path class="hierarchical-1:primary SFSymbolsPreview212121" d="M53.7823-87.306C62.3563-89.786 71.4193-90.056 80.1243-88.086C88.8293-86.116 96.8943-81.976 103.565-76.046C110.237-70.116 115.297-62.596 118.274-54.176C118.578-53.316 118.128-52.376 117.269-52.076C116.41-51.766 115.467-52.216 115.163-53.076C112.372-60.966 107.628-68.016 101.373-73.576C95.1183-79.136 87.5583-83.026 79.3963-84.866C71.2343-86.716 62.7383-86.466 54.6993-84.136C46.6613-81.816 39.3423-77.486 33.4273-71.576C33.4193-71.566 33.4113-71.556 33.4033-71.546C33.3993-71.546 33.3943-71.536 33.3893-71.536L6.99932-46.736C6.33532-46.116 5.29132-46.146 4.66732-46.806C4.04332-47.476 4.07632-48.516 4.74032-49.146L31.1113-73.926C37.4173-80.226 45.2173-84.836 53.7823-87.306ZM5.87032-83.716C6.78132-83.716 7.52032-82.976 7.52032-82.066L7.52032-49.586L39.9953-49.586C40.9063-49.586 41.6453-48.856 41.6453-47.936C41.6453-47.026 40.9063-46.286 39.9953-46.286L5.87032-46.286C4.95832-46.286 4.22032-47.026 4.22032-47.936L4.22032-82.066C4.22032-82.976 4.95832-83.716 5.87032-83.716Z"/>
  </g>
  <g id="Ultralight-L" transform="matrix(1 0 0 1 491.983 1556)">
   <path class="hierarchical-0:secondary SFSymbolsPreview4D4D4D" d="M131.247-25.9274C131.663-25.4874 131.641-24.7874 131.199-24.3674L104.821 0.412601C98.579 6.6526 90.859 11.2126 82.38 13.6726C73.895 16.1226 64.927 16.3826 56.312 14.4426C47.698 12.4926 39.717 8.3926 33.115 2.5226C26.513-3.3474 21.506-10.7874 18.559-19.1174C18.356-19.6874 18.656-20.3174 19.229-20.5174C19.802-20.7274 20.43-20.4274 20.633-19.8474C23.456-11.8774 28.253-4.7474 34.577 0.872601C40.901 6.4926 48.545 10.4226 56.798 12.2926C65.05 14.1626 73.641 13.9026 81.769 11.5526C89.896 9.2026 97.296 4.8326 103.277-1.1474C103.286-1.1574 103.294-1.1674 103.302-1.1774L129.692-25.9774C130.135-26.3874 130.831-26.3674 131.247-25.9274ZM95.22-25.1674C95.22-25.7774 95.713-26.2674 96.32-26.2674L130.445-26.2674C131.053-26.2674 131.545-25.7774 131.545-25.1674L131.545 8.9526C131.545 9.5626 131.053 10.0526 130.445 10.0526C129.838 10.0526 129.345 9.5626 129.345 8.9526L129.345-24.0674L96.32-24.0674C95.713-24.0674 95.22-24.5674 95.22-25.1674Z"/>
   <path class="hierarchical-1:primary SFSymbolsPreview212121" d="M53.386-86.7574C61.871-89.2174 70.839-89.4774 79.454-87.5274C88.068-85.5874 96.049-81.4874 102.651-75.6174C109.252-69.7474 114.26-62.3074 117.207-53.9774C117.409-53.4074 117.109-52.7774 116.537-52.5774C115.964-52.3674 115.335-52.6674 115.133-53.2474C112.31-61.2174 107.513-68.3474 101.189-73.9674C94.865-79.5874 87.22-83.5174 78.968-85.3874C70.716-87.2574 62.125-86.9974 53.997-84.6474C45.869-82.2974 38.47-77.9274 32.488-71.9374C32.48-71.9374 32.472-71.9274 32.464-71.9174L6.074-47.1174C5.631-46.7074 4.935-46.7274 4.519-47.1674C4.103-47.6074 4.124-48.3074 4.567-48.7274L30.945-73.5074C37.186-79.7474 44.907-84.3074 53.386-86.7574ZM5.32-83.1474C5.928-83.1474 6.42-82.6574 6.42-82.0474L6.42-49.0174L39.445-49.0174C40.053-49.0174 40.545-48.5274 40.545-47.9174C40.545-47.3174 40.053-46.8174 39.445-46.8174L5.32-46.8174C4.713-46.8174 4.22-47.3174 4.22-47.9174L4.22-82.0474C4.22-82.6574 4.713-83.1474 5.32-83.1474Z"/>
  </g>
  <g id="Black-M" transform="matrix(1 0 0 1 2873.15 1126)">
   <path class="hierarchical-0:secondary SFSymbolsPreview4D4D4D" d="M114.672-32.3634C117.352-29.5034 117.212-25.0134 114.352-22.3234L93.7322-2.94338C88.1022 2.66662 81.1422 6.75662 73.5122 8.96662C65.8422 11.1866 57.7422 11.4266 49.9522 9.66661C42.1622 7.90662 34.9522 4.19662 28.9822-1.10338C23.0122-6.41338 18.4922-13.1434 15.8222-20.6634C14.5222-24.3634 16.4522-28.4234 20.1522-29.7334C23.8522-31.0334 27.9022-29.1034 29.2122-25.4034C31.0722-20.1434 34.2422-15.4334 38.4222-11.7234C42.5922-8.01338 47.6422-5.42338 53.0822-4.18338C58.5322-2.95338 64.2022-3.12338 69.5722-4.67338C74.9322-6.22338 79.8222-9.11338 83.7622-13.0634C83.8222-13.1134 83.8722-13.1634 83.9222-13.2134L104.632-32.6734C107.492-35.3534 111.982-35.2134 114.672-32.3634ZM75.6222-27.4934C75.6222-31.4234 78.8022-34.5934 82.7222-34.5934L109.492-34.5934C113.412-34.5934 116.592-31.4234 116.592-27.4934L116.592-0.723382C116.592 3.19662 113.412 6.37662 109.492 6.37662C105.572 6.37662 102.392 3.19662 102.392-0.723382L102.392-20.3934L82.7222-20.3934C78.8022-20.3934 75.6222-23.5734 75.6222-27.4934Z"/>
   <path class="hierarchical-1:primary SFSymbolsPreview212121" d="M47.3022-81.8134C54.9722-84.0334 63.0722-84.2734 70.8622-82.5134C78.6522-80.7434 85.8622-77.0434 91.8322-71.7334C97.7922-66.4334 102.322-59.7034 104.982-52.1834C106.292-48.4834 104.362-44.4234 100.662-43.1134C96.9622-41.8134 92.9122-43.7434 91.6022-47.4434C89.7322-52.7034 86.5722-57.4134 82.3922-61.1234C78.2222-64.8334 73.1722-67.4234 67.7322-68.6634C62.2822-69.8934 56.6122-69.7234 51.2422-68.1734C45.8822-66.6234 40.9922-63.7334 37.0422-59.7834C36.9922-59.7334 36.9422-59.6834 36.8822-59.6334L16.1822-40.1734C13.3222-37.4934 8.83218-37.6234 6.14218-40.4834C3.46218-43.3434 3.60218-47.8334 6.45218-50.5234L27.0822-69.9034C32.7122-75.5134 39.6622-79.6034 47.3022-81.8134ZM11.3222-79.2234C15.2422-79.2234 18.4222-76.0434 18.4222-72.1234L18.4222-52.4434L38.0922-52.4434C42.0122-52.4434 45.1922-49.2734 45.1922-45.3434C45.1922-41.4234 42.0122-38.2434 38.0922-38.2434L11.3222-38.2434C7.40218-38.2434 4.22218-41.4234 4.22218-45.3434L4.22218-72.1234C4.22218-76.0434 7.40218-79.2234 11.3222-79.2234Z"/>
  </g>
  <g id="Heavy-M" transform="matrix(1 0 0 1 2577.29 1126)">
   <path class="hierarchical-0:secondary SFSymbolsPreview4D4D4D" d="M113.203-31.756C115.563-29.246 115.443-25.286 112.923-22.926L92.2831-3.53604C86.7631 1.97396 79.9231 6.00396 72.4331 8.16396C64.8931 10.344 56.9331 10.584 49.2931 8.85396C41.6431 7.12396 34.5631 3.48396 28.7031-1.72604C22.8431-6.93604 18.3931-13.546 15.7831-20.936C14.6231-24.186 16.3331-27.756 19.5831-28.906C22.8431-30.066 26.4131-28.356 27.5631-25.106C29.4731-19.706 32.7231-14.876 37.0031-11.066C41.2831-7.26604 46.4631-4.60604 52.0531-3.33604C57.6331-2.07604 63.4531-2.24604 68.9531-3.83604C74.4631-5.42604 79.4731-8.38604 83.5231-12.446C83.5631-12.486 83.6131-12.536 83.6631-12.576L104.363-32.036C106.883-34.396 110.833-34.276 113.203-31.756ZM75.6231-27.476C75.6231-30.936 78.4231-33.726 81.8731-33.726L108.643-33.726C112.093-33.726 114.893-30.936 114.893-27.476L114.893-0.706038C114.893 2.74396 112.093 5.54396 108.643 5.54396C105.193 5.54396 102.393 2.74396 102.393-0.706038L102.393-21.226L81.8731-21.226C78.4231-21.226 75.6231-24.026 75.6231-27.476Z"/>
   <path class="hierarchical-1:primary SFSymbolsPreview212121" d="M46.6831-80.976C54.2131-83.156 62.1831-83.396 69.8231-81.666C77.4731-79.936 84.5531-76.296 90.4131-71.086C96.2731-65.876 100.723-59.266 103.333-51.876C104.483-48.626 102.783-45.056 99.5331-43.906C96.2731-42.746 92.7031-44.456 91.5531-47.706C89.6431-53.106 86.3931-57.936 82.1131-61.746C77.8331-65.546 72.6531-68.206 67.0631-69.476C61.4831-70.736 55.6631-70.566 50.1631-68.976C44.6531-67.376 39.6431-64.416 35.5931-60.366C35.5531-60.326 35.5031-60.276 35.4531-60.236L14.7531-40.776C12.2331-38.416 8.28307-38.536 5.91307-41.046C3.55307-43.566 3.67307-47.526 6.19307-49.886L26.8231-69.276C32.3531-74.786 39.1831-78.806 46.6831-80.976ZM10.4731-78.356C13.9231-78.356 16.7231-75.556 16.7231-72.106L16.7231-51.576L37.2431-51.576C40.6931-51.576 43.4931-48.786 43.4931-45.326C43.4931-41.876 40.6931-39.076 37.2431-39.076L10.4731-39.076C7.02307-39.076 4.22307-41.876 4.22307-45.326L4.22307-72.106C4.22307-75.556 7.02307-78.356 10.4731-78.356Z"/>
  </g>
  <g id="Bold-M" transform="matrix(1 0 0 1 2281.53 1126)">
   <path class="hierarchical-0:secondary SFSymbolsPreview4D4D4D" d="M111.56-31.0804C113.56-28.9504 113.46-25.6004 111.32-23.5904L90.6701-4.19046C85.2601 1.20954 78.5601 5.15954 71.2101 7.27954C63.8401 9.41954 56.0401 9.64957 48.5501 7.94954C41.0601 6.25954 34.1201 2.68954 28.3801-2.41046C22.6401-7.51046 18.2801-13.9804 15.7201-21.2204C14.7501-23.9804 16.1901-27.0104 18.9501-27.9904C21.7101-28.9704 24.7401-27.5204 25.7101-24.7604C27.6801-19.2104 31.0201-14.2404 35.4201-10.3305C39.8201-6.42046 45.1401-3.69046 50.8901-2.39046C56.6301-1.09046 62.6101-1.26046 68.2701-2.90046C73.9201-4.54046 79.0701-7.58046 83.2401-11.7404C83.2801-11.7804 83.3201-11.8204 83.3601-11.8604L104.06-31.3204C106.2-33.3204 109.55-33.2204 111.56-31.0804ZM75.6201-27.4504C75.6201-30.3804 77.9901-32.7504 80.9201-32.7504L107.69-32.7504C110.62-32.7504 112.99-30.3804 112.99-27.4504L112.99-0.680458C112.99 2.24954 110.62 4.61954 107.69 4.61954C104.77 4.61954 102.39 2.24954 102.39-0.680458L102.39-22.1504L80.9201-22.1504C77.9901-22.1504 75.6201-24.5304 75.6201-27.4504Z"/>
   <path class="hierarchical-1:primary SFSymbolsPreview212121" d="M46.0001-80.0404C53.3701-82.1804 61.1701-82.4104 68.6601-80.7104C76.1501-79.0204 83.0901-75.4504 88.8301-70.3504C94.5701-65.2504 98.9301-58.7704 101.49-51.5404C102.46-48.7804 101.02-45.7504 98.2601-44.7704C95.5001-43.7904 92.4701-45.2404 91.5001-48.0004C89.5301-53.5504 86.1901-58.5104 81.7901-62.4304C77.3901-66.3404 72.0701-69.0704 66.3201-70.3704C60.5801-71.6704 54.6001-71.5004 48.9401-69.8604C43.2901-68.2204 38.1401-65.1804 33.9701-61.0104C33.9301-60.9804 33.8901-60.9404 33.8501-60.9004L13.1501-41.4404C11.0101-39.4404 7.66012-39.5404 5.66012-41.6804C3.65012-43.8104 3.76012-47.1604 5.89012-49.1704L26.5401-68.5704C31.9501-73.9704 38.6501-77.9204 46.0001-80.0404ZM9.52012-77.3804C12.4401-77.3804 14.8201-75.0104 14.8201-72.0804L14.8201-50.6004L36.2901-50.6004C39.2201-50.6004 41.5901-48.2304 41.5901-45.3004C41.5901-42.3804 39.2201-40.0004 36.2901-40.0004L9.52012-40.0004C6.59012-40.0004 4.22012-42.3804 4.22012-45.3004L4.22012-72.0804C4.22012-75.0104 6.59012-77.3804 9.52012-77.3804Z"/>
  </g>
  <g id="Semibold-M" transform="matrix(1 0 0 1 1985.46 1126)">
   <path class="hierarchical-0:secondary SFSymbolsPreview4D4D4D" d="M110.44-30.6232C112.2-28.7532 112.1-25.8032 110.23-24.0532L89.58-4.64312C84.24 0.686881 77.63 4.57688 70.39 6.67688C63.12 8.77688 55.43 9.00688 48.05 7.33688C40.66 5.66688 33.82 2.14688 28.17-2.88312C22.51-7.90312 18.22-14.2832 15.69-21.4232C14.83-23.8432 16.1-26.5032 18.52-27.3632C20.94-28.2132 23.6-26.9432 24.46-24.5232C26.46-18.8732 29.86-13.8132 34.34-9.83312C38.83-5.84312 44.25-3.06312 50.1-1.73312C55.95-0.413118 62.04-0.593117 67.8-2.26312C73.57-3.92312 78.81-7.02312 83.05-11.2732C83.09-11.3032 83.12-11.3332 83.16-11.3732L103.86-30.8232C105.74-32.5832 108.68-32.4932 110.44-30.6232ZM75.62-27.4332C75.62-30.0032 77.7-32.0832 80.27-32.0832L107.05-32.0832C109.62-32.0832 111.7-30.0032 111.7-27.4332L111.7-0.663117C111.7 1.90688 109.62 3.98688 107.05 3.98688C104.48 3.98688 102.4 1.90688 102.4-0.663117L102.4-22.7832L80.27-22.7832C77.7-22.7832 75.62-24.8732 75.62-27.4332Z"/>
   <path class="hierarchical-1:primary SFSymbolsPreview212121" d="M45.53-79.4032C52.81-81.5032 60.49-81.7332 67.87-80.0632C75.26-78.3932 82.1-74.8732 87.76-69.8432C93.41-64.8132 97.71-58.4332 100.23-51.3032C101.09-48.8832 99.82-46.2232 97.4-45.3632C94.98-44.5132 92.32-45.7732 91.46-48.2032C89.46-53.8532 86.06-58.9132 81.58-62.8932C77.09-66.8832 71.67-69.6632 65.82-70.9932C59.97-72.3132 53.88-72.1332 48.12-70.4632C42.35-68.8032 37.11-65.7032 32.87-61.4532C32.83-61.4232 32.8-61.3932 32.76-61.3532L12.06-41.9032C10.19-40.1432 7.24-40.2332 5.48-42.1032C3.73-43.9732 3.82-46.9132 5.69-48.6732L26.34-68.0832C31.68-73.4132 38.29-77.3032 45.53-79.4032ZM8.87-76.7132C11.44-76.7132 13.52-74.6332 13.52-72.0632L13.52-49.9332L35.65-49.9332C38.22-49.9332 40.3-47.8532 40.3-45.2832C40.3-42.7232 38.22-40.6332 35.65-40.6332L8.87-40.6332C6.3-40.6332 4.22-42.7232 4.22-45.2832L4.22-72.0632C4.22-74.6332 6.3-76.7132 8.87-76.7132Z"/>
  </g>
  <g id="Medium-M" transform="matrix(1 0 0 1 1689.25 1126)">
   <path class="hierarchical-0:secondary SFSymbolsPreview4D4D4D" d="M109.57-30.2644C111.14-28.5944 111.06-25.9644 109.39-24.3944L88.73-4.98446C83.45 0.285544 76.92 4.13554 69.75 6.21554C62.56 8.29554 54.96 8.51554 47.66 6.86554C40.36 5.21554 33.59 1.73554 28-3.23446C22.4-8.20446 18.16-14.5144 15.66-21.5744C14.9-23.7344 16.03-26.1044 18.19-26.8644C20.35-27.6344 22.72-26.5044 23.49-24.3444C25.52-18.6044 28.96-13.4744 33.51-9.43446C38.06-5.39446 43.55-2.57446 49.49-1.23446C55.42 0.115544 61.6-0.074456 67.44-1.76446C73.29-3.45446 78.61-6.59446 82.91-10.8944C82.93-10.9144 82.95-10.9444 82.98-10.9644C82.98-10.9744 82.99-10.9744 83-10.9844L103.71-30.4444C105.38-32.0144 108-31.9344 109.57-30.2644ZM75.62-27.4144C75.62-29.7144 77.48-31.5644 79.77-31.5644L106.55-31.5644C108.84-31.5644 110.7-29.7144 110.7-27.4144L110.7-0.644456C110.7 1.64554 108.84 3.50554 106.55 3.50554C104.26 3.50554 102.4 1.64554 102.4-0.644456L102.4-23.2644L79.77-23.2644C77.48-23.2644 75.62-25.1244 75.62-27.4144Z"/>
   <path class="hierarchical-1:primary SFSymbolsPreview212121" d="M45.17-78.9044C52.36-80.9844 59.96-81.2044 67.26-79.5544C74.56-77.9044 81.33-74.4244 86.92-69.4544C92.52-64.4844 96.76-58.1744 99.26-51.1144C100.02-48.9544 98.89-46.5844 96.73-45.8144C94.57-45.0544 92.2-46.1844 91.43-48.3444C89.41-54.0844 85.96-59.2044 81.41-63.2544C76.86-67.2944 71.37-70.1144 65.43-71.4544C59.5-72.8044 53.32-72.6144 47.48-70.9244C41.63-69.2344 36.31-66.0944 32.01-61.7944C31.98-61.7644 31.95-61.7344 31.92-61.7044L11.21-42.2444C9.54-40.6744 6.92-40.7544 5.35-42.4244C3.78-44.0944 3.86-46.7244 5.53-48.2944L26.19-67.7044C31.47-72.9744 38-76.8244 45.17-78.9044ZM8.37-76.1944C10.66-76.1944 12.52-74.3344 12.52-72.0444L12.52-49.4144L35.15-49.4144C37.44-49.4144 39.3-47.5644 39.3-45.2644C39.3-42.9744 37.44-41.1144 35.15-41.1144L8.37-41.1144C6.08-41.1144 4.22-42.9744 4.22-45.2644L4.22-72.0444C4.22-74.3344 6.08-76.1944 8.37-76.1944Z"/>
  </g>
  <g id="Regular-M" transform="matrix(1 0 0 1 1393.19 1126)">
   <path class="hierarchical-0:secondary SFSymbolsPreview4D4D4D" d="M108.45-29.7988C109.77-28.3888 109.7-26.1788 108.29-24.8488L87.63-5.42884C82.42-0.238834 75.98 3.56116 68.92 5.60116C61.83 7.65116 54.34 7.87116 47.15 6.25116C39.96 4.62116 33.29 1.19116 27.78-3.70884C22.27-8.59884 18.08-14.8188 15.62-21.7688C14.98-23.5988 15.93-25.5988 17.76-26.2388C19.58-26.8888 21.58-25.9288 22.22-24.1088C24.29-18.2688 27.8-13.0488 32.43-8.93884C37.06-4.81884 42.65-1.94884 48.69-0.578834C54.73 0.791163 61.02 0.601163 66.97-1.11883C72.92-2.83884 78.34-6.03884 82.72-10.4188C82.74-10.4488 82.77-10.4688 82.79-10.4988L103.5-29.9588C104.91-31.2788 107.12-31.2088 108.45-29.7988ZM75.62-27.3988C75.62-29.3388 77.19-30.8988 79.12-30.8988L105.9-30.8988C107.83-30.8988 109.4-29.3388 109.4-27.3988L109.4-0.628834C109.4 1.30116 107.83 2.87116 105.9 2.87116C103.96 2.87116 102.4 1.30116 102.4-0.628834L102.4-23.8988L79.12-23.8988C77.19-23.8988 75.62-25.4688 75.62-27.3988Z"/>
   <path class="hierarchical-1:primary SFSymbolsPreview212121" d="M44.7-78.2588C51.79-80.3088 59.28-80.5288 66.47-78.9088C73.66-77.2788 80.33-73.8488 85.84-68.9488C91.35-64.0488 95.54-57.8388 98-50.8788C98.64-49.0588 97.69-47.0588 95.86-46.4188C94.04-45.7688 92.04-46.7288 91.4-48.5488C89.33-54.3888 85.82-59.6088 81.19-63.7188C76.56-67.8388 70.97-70.7088 64.93-72.0788C58.89-73.4388 52.6-73.2588 46.65-71.5388C40.7-69.8188 35.28-66.6188 30.9-62.2388C30.88-62.2088 30.85-62.1888 30.83-62.1588L10.12-42.6988C8.71-41.3788 6.5-41.4488 5.17-42.8588C3.85-44.2688 3.92-46.4788 5.33-47.8088L25.99-67.2288C31.2-72.4188 37.64-76.2188 44.7-78.2588ZM7.72-75.5288C9.66-75.5288 11.22-73.9588 11.22-72.0288L11.22-48.7488L34.5-48.7488C36.43-48.7488 38-47.1888 38-45.2488C38-43.3188 36.43-41.7488 34.5-41.7488L7.72-41.7488C5.79-41.7488 4.22-43.3188 4.22-45.2488L4.22-72.0288C4.22-73.9588 5.79-75.5288 7.72-75.5288Z"/>
  </g>
  <g id="Light-M" transform="matrix(1 0 0 1 1097.28 1126)">
   <path class="hierarchical-0:secondary SFSymbolsPreview4D4D4D" d="M107.07-29.2284C108.09-28.1484 108.03-26.4384 106.95-25.4184L86.27-5.98846C81.16-0.878454 74.84 2.85154 67.89 4.85154C60.94 6.87154 53.59 7.08154 46.53 5.49154C39.46 3.89154 32.92 0.531543 27.51-4.27846C22.1-9.08846 17.99-15.1984 15.58-22.0184C15.08-23.4284 15.82-24.9684 17.22-25.4684C18.63-25.9584 20.17-25.2284 20.67-23.8184C22.78-17.8584 26.37-12.5184 31.1-8.31846C35.83-4.11846 41.55-1.17845 47.72 0.221546C53.89 1.62154 60.32 1.43154 66.39-0.328454C72.47-2.08846 78.01-5.35846 82.48-9.83846C82.5-9.84846 82.51-9.85846 82.52-9.87846C82.53-9.87846 82.54-9.88846 82.54-9.89846L103.25-29.3484C104.34-30.3684 106.04-30.3184 107.07-29.2284ZM75.62-27.3784C75.62-28.8784 76.83-30.0784 78.32-30.0784L105.1-30.0784C106.59-30.0784 107.8-28.8784 107.8-27.3784L107.8-0.608453C107.8 0.881543 106.59 2.09154 105.1 2.09154C103.61 2.09154 102.4 0.881543 102.4-0.608453L102.4-24.6784L78.32-24.6784C76.83-24.6784 75.62-25.8884 75.62-27.3784Z"/>
   <path class="hierarchical-1:primary SFSymbolsPreview212121" d="M44.12-77.4684C51.08-79.4884 58.43-79.6984 65.49-78.0984C72.56-76.5084 79.1-73.1484 84.51-68.3384C89.92-63.5284 94.03-57.4184 96.44-50.5984C96.94-49.1884 96.2-47.6484 94.8-47.1484C93.39-46.6484 91.85-47.3884 91.35-48.7984C89.24-54.7584 85.65-60.0984 80.92-64.2984C76.19-68.4984 70.47-71.4384 64.3-72.8384C58.13-74.2284 51.7-74.0384 45.63-72.2884C39.55-70.5284 34.01-67.2584 29.54-62.7784C29.52-62.7584 29.5-62.7384 29.48-62.7184L8.77-43.2684C7.68-42.2484 5.98-42.2984 4.95-43.3884C3.93-44.4684 3.99-46.1784 5.07-47.1984L25.75-66.6284C30.86-71.7384 37.18-75.4684 44.12-77.4684ZM6.92-74.7084C8.41-74.7084 9.62-73.4984 9.62-72.0084L9.62-47.9284L33.7-47.9284C35.19-47.9284 36.4-46.7284 36.4-45.2284C36.4-43.7384 35.19-42.5284 33.7-42.5284L6.92-42.5284C5.43-42.5284 4.22-43.7384 4.22-45.2284L4.22-72.0084C4.22-73.4984 5.43-74.7084 6.92-74.7084Z"/>
  </g>
  <g id="Thin-M" transform="matrix(1 0 0 1 801.62 1126)">
   <path class="hierarchical-0:secondary SFSymbolsPreview4D4D4D" d="M105.247-28.486C105.871-27.826 105.839-26.786 105.175-26.156L84.4873-6.71592C79.4973-1.73592 73.3273 1.91408 66.5503 3.87408C59.7663 5.83408 52.5943 6.04408 45.7053 4.48408C38.8163 2.92408 32.4343-0.355912 27.1553-5.04592C21.8763-9.73592 17.8713-15.686 15.5153-22.346C15.2113-23.206 15.6613-24.146 16.5203-24.456C17.3793-24.756 18.3223-24.306 18.6263-23.446C20.7963-17.316 24.4853-11.836 29.3473-7.50592C34.2103-3.18592 40.0883-0.165912 46.4333 1.26408C52.7793 2.70408 59.3843 2.50408 65.6343 0.704084C71.8833-1.10591 77.5733-4.46592 82.1723-9.06592C82.1843-9.08592 82.1963-9.09592 82.2093-9.10592L102.915-28.566C103.579-29.186 104.623-29.156 105.247-28.486ZM75.6203-27.356C75.6203-28.276 76.3583-29.006 77.2703-29.006L104.045-29.006C104.956-29.006 105.695-28.276 105.695-27.356L105.695-0.585912C105.695 0.324088 104.956 1.06408 104.045 1.06408C103.133 1.06408 102.395 0.324088 102.395-0.585912L102.395-25.706L77.2703-25.706C76.3583-25.706 75.6203-26.446 75.6203-27.356Z"/>
   <path class="hierarchical-1:primary SFSymbolsPreview212121" d="M43.3643-76.436C50.1493-78.406 57.3203-78.616 64.2093-77.056C71.0983-75.496 77.4803-72.216 82.7593-67.526C88.0393-62.836 92.0433-56.886 94.3993-50.226C94.7033-49.366 94.2533-48.426 93.3943-48.116C92.5353-47.816 91.5923-48.266 91.2883-49.126C89.1183-55.256 85.4303-60.736 80.5673-65.056C75.7043-69.386 69.8263-72.406 63.4813-73.836C57.1363-75.276 50.5303-75.076 44.2813-73.266C38.0313-71.466 32.3423-68.106 27.7433-63.496C27.7313-63.486 27.7183-63.476 27.7063-63.466L7.00032-44.006C6.33532-43.386 5.29132-43.416 4.66732-44.076C4.04332-44.746 4.07632-45.786 4.74032-46.416L25.4273-65.856C30.4173-70.836 36.5873-74.476 43.3643-76.436ZM5.87032-73.636C6.78132-73.636 7.52032-72.896 7.52032-71.986L7.52032-46.856L32.6453-46.856C33.5563-46.856 34.2953-46.126 34.2953-45.206C34.2953-44.296 33.5563-43.556 32.6453-43.556L5.87032-43.556C4.95832-43.556 4.22032-44.296 4.22032-45.206L4.22032-71.986C4.22032-72.896 4.95832-73.636 5.87032-73.636Z"/>
  </g>
  <g id="Ultralight-M" transform="matrix(1 0 0 1 505.458 1126)">
   <path class="hierarchical-0:secondary SFSymbolsPreview4D4D4D" d="M104.297-28.102C104.713-27.662 104.691-26.962 104.249-26.542L83.555-7.10206C78.63-2.17206 72.539 1.41794 65.848 3.35794C59.153 5.28794 52.076 5.49794 45.277 3.96794C38.479 2.42794 32.181-0.81206 26.971-5.44206C21.761-10.0721 17.81-15.942 15.484-22.522C15.282-23.092 15.582-23.722 16.154-23.922C16.727-24.122 17.356-23.822 17.558-23.252C19.76-17.032 23.501-11.472 28.433-7.08206C33.365-2.70206 39.327 0.35794 45.763 1.81794C52.199 3.27794 58.898 3.07794 65.237 1.23794C71.576-0.59206 77.347-4.00206 82.012-8.67206C82.016-8.67206 82.021-8.68206 82.026-8.68206C82.029-8.68206 82.033-8.69206 82.036-8.69206L102.742-28.152C103.185-28.562 103.881-28.542 104.297-28.102ZM75.62-27.342C75.62-27.952 76.113-28.442 76.72-28.442L103.495-28.442C104.103-28.442 104.595-27.952 104.595-27.342L104.595-0.57206C104.595 0.0379401 104.103 0.52794 103.495 0.52794C102.888 0.52794 102.395 0.0379401 102.395-0.57206L102.395-26.242L76.72-26.242C76.113-26.242 75.62-26.742 75.62-27.342Z"/>
   <path class="hierarchical-1:primary SFSymbolsPreview212121" d="M42.968-75.902C49.663-77.832 56.74-78.042 63.539-76.502C70.337-74.972 76.635-71.732 81.845-67.102C87.055-62.472 91.006-56.592 93.332-50.022C93.534-49.452 93.234-48.822 92.662-48.622C92.089-48.422 91.46-48.722 91.258-49.292C89.056-55.512 85.315-61.072 80.383-65.462C75.451-69.842 69.489-72.902 63.053-74.362C56.617-75.812 49.918-75.622 43.579-73.782C37.24-71.952 31.469-68.542 26.805-63.872C26.799-63.872 26.793-63.862 26.787-63.862C26.785-63.852 26.782-63.852 26.78-63.852L6.074-44.392C5.631-43.982 4.935-44.002 4.519-44.442C4.103-44.882 4.125-45.582 4.567-46.002L25.261-65.442C30.186-70.362 36.277-73.962 42.968-75.902ZM5.321-73.072C5.928-73.072 6.421-72.582 6.421-71.972L6.421-46.292L32.095-46.292C32.703-46.292 33.195-45.802 33.195-45.192C33.195-44.592 32.703-44.092 32.095-44.092L5.321-44.092C4.713-44.092 4.22-44.592 4.22-45.192L4.22-71.972C4.22-72.582 4.713-73.072 5.321-73.072Z"/>
  </g>
  <g id="Black-S" transform="matrix(1 0 0 1 2883.74 696)">
   <path class="hierarchical-0:secondary SFSymbolsPreview4D4D4D" d="M93.49-34.1682C96.18-31.3102 96.04-26.8172 93.18-24.1322L77.02-8.94418C72.42-4.37518 66.75-1.03518 60.53 0.76582C54.26 2.57682 47.64 2.77282 41.28 1.33382C34.92-0.10518 29.03-3.13218 24.16-7.46318C19.28-11.7952 15.59-17.2912 13.41-23.4382C12.1-27.1342 14.04-31.1912 17.74-32.4992C21.43-33.8072 25.49-31.8712 26.8-28.1752C28.17-24.2892 30.51-20.8152 33.59-18.0772C36.67-15.3392 40.4-13.4262 44.42-12.5162C48.44-11.6062 52.62-11.7302 56.58-12.8752C60.54-14.0202 64.14-16.1502 67.06-19.0652C67.11-19.1182 67.16-19.1692 67.22-19.2202L83.46-34.4802C86.32-37.1652 90.81-37.0262 93.49-34.1682ZM60.22-29.3062C60.22-33.2272 63.4-36.4062 67.32-36.4062L88.32-36.4062C92.24-36.4062 95.42-33.2272 95.42-29.3062L95.42-8.30618C95.42-4.38518 92.24-1.20618 88.32-1.20618C84.4-1.20618 81.22-4.38518 81.22-8.30618L81.22-22.2062L67.32-22.2062C63.4-22.2062 60.22-25.3852 60.22-29.3062Z"/>
   <path class="hierarchical-1:primary SFSymbolsPreview212121" d="M39.11-73.3782C45.38-75.1902 52-75.3852 58.36-73.9462C64.72-72.5072 70.61-69.4812 75.48-65.1492C80.36-60.8172 84.05-55.3222 86.23-49.1752C87.54-45.4782 85.6-41.4212 81.9-40.1132C78.21-38.8052 74.15-40.7412 72.84-44.4382C71.47-48.3232 69.13-51.7972 66.05-54.5352C62.97-57.2742 59.24-59.1872 55.22-60.0962C51.2-61.0062 47.02-60.8822 43.06-59.7372C39.1-58.5922 35.5-56.4622 32.58-53.5472C32.53-53.4942 32.48-53.4432 32.42-53.3922L16.18-38.1322C13.32-35.4472 8.83-35.5872 6.15-38.4442C3.46-41.3022 3.6-45.7952 6.46-48.4802L22.62-63.6682C27.22-68.2372 32.89-71.5772 39.11-73.3782ZM11.32-71.4062C15.24-71.4062 18.42-68.2272 18.42-64.3062L18.42-50.4062L32.32-50.4062C36.24-50.4062 39.42-47.2272 39.42-43.3062C39.42-39.3852 36.24-36.2062 32.32-36.2062L11.32-36.2062C7.4-36.2062 4.22-39.3852 4.22-43.3062L4.22-64.3062C4.22-68.2272 7.4-71.4062 11.32-71.4062Z"/>
  </g>
  <g id="Heavy-S" transform="matrix(1 0 0 1 2587.87 696)">
   <path class="hierarchical-0:secondary SFSymbolsPreview4D4D4D" d="M92.03-33.5648C94.39-31.0488 94.27-27.0938 91.75-24.7298L75.58-9.53384C71.08-5.06084 65.53-1.79184 59.44-0.0298455C53.31 1.74216 46.84 1.93316 40.62 0.526157C34.4-0.880846 28.64-3.84084 23.87-8.07684C19.11-12.3138 15.49-17.6878 13.36-23.6998C12.21-26.9538 13.92-30.5248 17.17-31.6768C20.42-32.8278 24-31.1238 25.15-27.8698C26.57-23.8488 28.99-20.2538 32.18-17.4198C35.36-14.5868 39.22-12.6068 43.38-11.6658C47.54-10.7248 51.87-10.8518 55.97-12.0378C60.06-13.2228 63.79-15.4268 66.81-18.4428C66.86-18.4898 66.9-18.5348 66.95-18.5798L83.19-33.8398C85.71-36.2028 89.66-36.0798 92.03-33.5648ZM60.22-29.2848C60.22-32.7368 63.02-35.5348 66.47-35.5348L87.47-35.5348C90.92-35.5348 93.72-32.7368 93.72-29.2848L93.72-8.28484C93.72-4.83284 90.92-2.03484 87.47-2.03484C84.02-2.03484 81.22-4.83284 81.22-8.28484L81.22-23.0348L66.47-23.0348C63.02-23.0348 60.22-25.8328 60.22-29.2848Z"/>
   <path class="hierarchical-1:primary SFSymbolsPreview212121" d="M38.5-72.5398C44.63-74.3118 51.1-74.5028 57.32-73.0958C63.54-71.6888 69.3-68.7288 74.07-64.4928C78.83-60.2558 82.45-54.8818 84.58-48.8698C85.73-45.6158 84.02-42.0448 80.77-40.8928C77.52-39.7418 73.94-41.4458 72.79-44.6998C71.37-48.7208 68.95-52.3158 65.76-55.1498C62.58-57.9828 58.72-59.9628 54.56-60.9038C50.4-61.8448 46.07-61.7178 41.97-60.5318C37.88-59.3468 34.15-57.1428 31.13-54.1268C31.08-54.0808 31.04-54.0348 30.99-53.9898L14.75-38.7298C12.23-36.3668 8.28-36.4898 5.92-39.0048C3.55-41.5208 3.68-45.4758 6.19-47.8398L22.36-63.0358C26.86-67.5088 32.41-70.7778 38.5-72.5398ZM10.47-70.5348C13.92-70.5348 16.72-67.7368 16.72-64.2848L16.72-49.5348L31.47-49.5348C34.92-49.5348 37.72-46.7368 37.72-43.2848C37.72-39.8328 34.92-37.0348 31.47-37.0348L10.47-37.0348C7.02-37.0348 4.22-39.8328 4.22-43.2848L4.22-64.2848C4.22-67.7368 7.02-70.5348 10.47-70.5348Z"/>
  </g>
  <g id="Bold-S" transform="matrix(1 0 0 1 2292.11 696)">
   <path class="hierarchical-0:secondary SFSymbolsPreview4D4D4D" d="M90.3851-32.6848C92.3851-30.5518 92.2851-27.1978 90.1451-25.1938L73.9651-9.98778C69.5851-5.62278 64.1651-2.43278 58.2251-0.71278C52.2551 1.01422 45.9451 1.20022 39.8751-0.17178C33.8151-1.54278 28.1951-4.42878 23.5551-8.55878C18.9051-12.6878 15.3851-17.9278 13.3051-23.7878C12.3351-26.5468 13.7751-29.5758 16.5351-30.5518C19.2951-31.5288 22.3251-30.0828 23.3051-27.3238C24.7751-23.1518 27.2851-19.4218 30.5951-16.4808C33.9051-13.5408 37.9051-11.4868 42.2151-10.5098C46.5351-9.53378 51.0251-9.66578 55.2851-10.8958C59.5351-12.1258 63.4051-14.4118 66.5351-17.5428C66.5751-17.5818 66.6151-17.6198 66.6551-17.6578L82.8951-32.9178C85.0251-34.9228 88.3751-34.8178 90.3851-32.6848ZM60.2251-29.0558C60.2251-31.9828 62.5951-34.3558 65.5251-34.3558L86.5251-34.3558C89.4451-34.3558 91.8251-31.9828 91.8251-29.0558L91.8251-8.05578C91.8251-5.12878 89.4451-2.75578 86.5251-2.75578C83.5951-2.75578 81.2251-5.12878 81.2251-8.05578L81.2251-23.7558L65.5251-23.7558C62.5951-23.7558 60.2251-26.1288 60.2251-29.0558Z"/>
   <path class="hierarchical-1:primary SFSymbolsPreview212121" d="M37.8151-71.3988C43.7851-73.1258 50.0951-73.3118 56.1651-71.9398C62.2251-70.5688 67.8451-67.6828 72.4851-63.5528C77.1351-59.4238 80.6551-54.1838 82.7351-48.3238C83.7051-45.5648 82.2651-42.5358 79.5051-41.5598C76.7451-40.5828 73.7151-42.0278 72.7351-44.7878C71.2651-48.9598 68.7551-52.6898 65.4451-55.6308C62.1351-58.5708 58.1351-60.6248 53.8251-61.6018C49.5051-62.5778 45.0151-62.4458 40.7551-61.2158C36.5051-59.9858 32.6351-57.6998 29.5051-54.5688C29.4651-54.5298 29.4251-54.4918 29.3851-54.4538L13.1451-39.1938C11.0151-37.1888 7.66512-37.2938 5.65512-39.4268C3.65512-41.5598 3.75512-44.9138 5.89512-46.9178L22.0751-62.1238C26.4551-66.4888 31.8751-69.6788 37.8151-71.3988ZM9.52512-69.3558C12.4451-69.3558 14.8251-66.9828 14.8251-64.0558L14.8251-48.3558L30.5251-48.3558C33.4451-48.3558 35.8251-45.9828 35.8251-43.0558C35.8251-40.1288 33.4451-37.7558 30.5251-37.7558L9.52512-37.7558C6.59512-37.7558 4.22512-40.1288 4.22512-43.0558L4.22512-64.0558C4.22512-66.9828 6.59512-69.3558 9.52512-69.3558Z"/>
  </g>
  <g id="Semibold-S" transform="matrix(1 0 0 1 1996.05 696)">
   <path class="hierarchical-0:secondary SFSymbolsPreview4D4D4D" d="M89.2623-32.2238C91.0223-30.3528 90.9323-27.4098 89.0523-25.6508L72.8723-10.4388C68.5623-6.14778 63.2423-3.01078 57.4023-1.32178C51.5323 0.375222 45.3323 0.558221 39.3723-0.788778C33.4223-2.13678 27.9023-4.97078 23.3423-9.02778C18.7723-13.0848 15.3123-18.2318 13.2723-23.9888C12.4123-26.4098 13.6823-29.0668 16.1023-29.9228C18.5223-30.7798 21.1823-29.5118 22.0423-27.0908C23.5523-22.8148 26.1223-18.9928 29.5123-15.9788C32.9023-12.9658 37.0023-10.8608 41.4323-9.85978C45.8523-8.85878 50.4523-8.99478 54.8123-10.2548C59.1723-11.5158 63.1323-13.8588 66.3423-17.0668C66.3823-17.1008 66.4123-17.1348 66.4523-17.1688L82.6923-32.4288C84.5623-34.1868 87.5023-34.0958 89.2623-32.2238ZM60.2223-29.0398C60.2223-31.6078 62.3023-33.6898 64.8723-33.6898L85.8723-33.6898C88.4423-33.6898 90.5223-31.6078 90.5223-29.0398L90.5223-8.03978C90.5223-5.47178 88.4423-3.38978 85.8723-3.38978C83.3023-3.38978 81.2223-5.47178 81.2223-8.03978L81.2223-24.3898L64.8723-24.3898C62.3023-24.3898 60.2223-26.4718 60.2223-29.0398Z"/>
   <path class="hierarchical-1:primary SFSymbolsPreview212121" d="M37.3423-70.7578C43.2123-72.4548 49.4123-72.6378 55.3723-71.2898C61.3223-69.9428 66.8423-67.1078 71.4123-63.0508C75.9723-58.9948 79.4323-53.8478 81.4723-48.0908C82.3323-45.6698 81.0623-43.0128 78.6423-42.1558C76.2223-41.2988 73.5623-42.5678 72.7023-44.9888C71.1923-49.2638 68.6223-53.0868 65.2323-56.0998C61.8423-59.1128 57.7423-61.2188 53.3123-62.2198C48.8923-63.2208 44.2923-63.0838 39.9323-61.8238C35.5723-60.5638 31.6123-58.2208 28.4023-55.0128C28.3623-54.9778 28.3323-54.9438 28.2923-54.9108L12.0523-39.6508C10.1823-37.8928 7.24232-37.9838 5.48232-39.8558C3.72232-41.7268 3.81232-44.6698 5.69232-46.4288L21.8723-61.6398C26.1823-65.9318 31.5023-69.0678 37.3423-70.7578ZM8.87232-68.6898C11.4423-68.6898 13.5223-66.6078 13.5223-64.0398L13.5223-47.6898L29.8723-47.6898C32.4423-47.6898 34.5223-45.6078 34.5223-43.0398C34.5223-40.4718 32.4423-38.3898 29.8723-38.3898L8.87232-38.3898C6.30232-38.3898 4.22232-40.4718 4.22232-43.0398L4.22232-64.0398C4.22232-66.6078 6.30232-68.6898 8.87232-68.6898Z"/>
  </g>
  <g id="Medium-S" transform="matrix(1 0 0 1 1699.84 696)">
   <path class="hierarchical-0:secondary SFSymbolsPreview4D4D4D" d="M88.39-31.8694C89.96-30.1984 89.88-27.5724 88.21-26.0034L72.02-10.7864C67.77-6.55138 62.52-3.45638 56.76-1.78938C50.97-0.116376 44.86 0.0646241 38.98-1.26438C33.11-2.59338 27.67-5.38838 23.17-9.38938C18.67-13.3904 15.25-18.4654 13.24-24.1424C12.48-26.3034 13.61-28.6754 15.77-29.4394C17.93-30.2044 20.3-29.0724 21.07-26.9114C22.61-22.5564 25.23-18.6624 28.68-15.5934C32.13-12.5234 36.31-10.3794 40.81-9.35938C45.32-8.34038 50.01-8.47838 54.45-9.76238C58.89-11.0464 62.93-13.4334 66.19-16.7014C66.23-16.7314 66.26-16.7614 66.29-16.7914L82.53-32.0514C84.2-33.6214 86.82-33.5394 88.39-31.8694ZM60.22-29.0274C60.22-31.3194 62.08-33.1774 64.37-33.1774L85.37-33.1774C87.66-33.1774 89.52-31.3194 89.52-29.0274L89.52-8.02738C89.52-5.73538 87.66-3.87738 85.37-3.87738C83.08-3.87738 81.22-5.73538 81.22-8.02738L81.22-24.8774L64.37-24.8774C62.08-24.8774 60.22-26.7354 60.22-29.0274Z"/>
   <path class="hierarchical-1:primary SFSymbolsPreview212121" d="M36.98-70.2654C42.77-71.9384 48.88-72.1194 54.76-70.7904C60.63-69.4614 66.07-66.6654 70.57-62.6654C75.07-58.6644 78.49-53.5884 80.5-47.9114C81.26-45.7514 80.13-43.3794 77.97-42.6154C75.81-41.8504 73.44-42.9824 72.67-45.1424C71.13-49.4984 68.51-53.3924 65.06-56.4614C61.61-59.5304 57.43-61.6754 52.93-62.6944C48.42-63.7144 43.73-63.5754 39.29-62.2924C34.85-61.0084 30.81-58.6214 27.55-55.3534C27.51-55.3224 27.48-55.2924 27.45-55.2634L11.21-40.0034C9.54-38.4334 6.92-38.5154 5.35-40.1854C3.78-41.8554 3.86-44.4824 5.53-46.0514L21.72-61.2684C25.97-65.5034 31.22-68.5984 36.98-70.2654ZM8.37-68.1774C10.66-68.1774 12.52-66.3194 12.52-64.0274L12.52-47.1774L29.37-47.1774C31.66-47.1774 33.52-45.3194 33.52-43.0274C33.52-40.7354 31.66-38.8774 29.37-38.8774L8.37-38.8774C6.08-38.8774 4.22-40.7354 4.22-43.0274L4.22-64.0274C4.22-66.3194 6.08-68.1774 8.37-68.1774Z"/>
  </g>
  <g id="Regular-S" transform="matrix(1 0 0 1 1403.78 696)">
   <path class="hierarchical-0:secondary SFSymbolsPreview4D4D4D" d="M87.2703-31.4072C88.5903-29.9982 88.5303-27.7832 87.1203-26.4592L70.9203-11.2362C66.7403-7.0752 61.5903-4.0342 55.9303-2.3962C50.2503-0.7542 44.2403-0.5762 38.4803-1.8812C32.7103-3.1862 27.3703-5.9302 22.9503-9.8582C18.5303-13.7862 15.1803-18.7692 13.2103-24.3422C12.5603-26.1652 13.5203-28.1652 15.3403-28.8092C17.1603-29.4542 19.1603-28.5002 19.8003-26.6782C21.3803-22.2192 24.0603-18.2322 27.6003-15.0902C31.1303-11.9482 35.4103-9.7522 40.0203-8.7092C44.6303-7.6652 49.4403-7.8072 53.9803-9.1212C58.5203-10.4352 62.6603-12.8792 66.0003-16.2242C66.0303-16.2502 66.0603-16.2762 66.0803-16.3012L82.3203-31.5612C83.7303-32.8842 85.9503-32.8152 87.2703-31.4072ZM60.2203-29.0102C60.2203-30.9432 61.7903-32.5102 63.7203-32.5102L84.7203-32.5102C86.6503-32.5102 88.2203-30.9432 88.2203-29.0102L88.2203-8.0102C88.2203-6.0772 86.6503-4.5102 84.7203-4.5102C82.7903-4.5102 81.2203-6.0772 81.2203-8.0102L81.2203-25.5102L63.7203-25.5102C61.7903-25.5102 60.2203-27.0772 60.2203-29.0102Z"/>
   <path class="hierarchical-1:primary SFSymbolsPreview212121" d="M36.5103-69.6232C42.1903-71.2662 48.2003-71.4432 53.9603-70.1392C59.7303-68.8342 65.0703-66.0902 69.4903-62.1622C73.9103-58.2342 77.2603-53.2512 79.2303-47.6782C79.8803-45.8552 78.9203-43.8552 77.1003-43.2102C75.2803-42.5662 73.2803-43.5202 72.6403-45.3422C71.0603-49.8012 68.3803-53.7882 64.8403-56.9302C61.3103-60.0722 57.0303-62.2682 52.4203-63.3112C47.8103-64.3552 43.0003-64.2132 38.4603-62.8992C33.9203-61.5852 29.7803-59.1412 26.4403-55.7962C26.4103-55.7702 26.3803-55.7442 26.3603-55.7192L10.1203-40.4592C8.71026-39.1362 6.49026-39.2052 5.17026-40.6132C3.85026-42.0222 3.91026-44.2372 5.32026-45.5612L21.5203-60.7842C25.7003-64.9452 30.8503-67.9862 36.5103-69.6232ZM7.72026-67.5102C9.6503-67.5102 11.2203-65.9432 11.2203-64.0102L11.2203-46.5102L28.7203-46.5102C30.6503-46.5102 32.2203-44.9432 32.2203-43.0102C32.2203-41.0772 30.6503-39.5102 28.7203-39.5102L7.72026-39.5102C5.79026-39.5102 4.22026-41.0772 4.22026-43.0102L4.22026-64.0102C4.22026-65.9432 5.79026-67.5102 7.72026-67.5102Z"/>
  </g>
  <g id="Light-S" transform="matrix(1 0 0 1 1107.87 696)">
   <path class="hierarchical-0:secondary SFSymbolsPreview4D4D4D" d="M85.8925-30.8392C86.9125-29.7522 86.8625-28.0432 85.7725-27.0222L69.5625-11.7912C65.4825-7.72026 60.4425-4.74626 54.9025-3.14526C49.3525-1.54026 43.4925-1.36626 37.8525-2.64126C32.2225-3.91626 27.0025-6.59826 22.6825-10.4362C18.3625-14.2742 15.0925-19.1432 13.1625-24.5892C12.6625-25.9952 13.4025-27.5382 14.8025-28.0352C16.2125-28.5332 17.7525-27.7962 18.2525-26.3912C19.8725-21.8042 22.6325-17.7042 26.2725-14.4722C29.9025-11.2402 34.3025-8.98226 39.0425-7.90826C43.7925-6.83526 48.7325-6.98026 53.4025-8.33226C58.0825-9.68426 62.3325-12.1982 65.7725-15.6392C65.7925-15.6592 65.8125-15.6782 65.8325-15.6982L82.0725-30.9582C83.1625-31.9792 84.8725-31.9252 85.8925-30.8392ZM60.2225-28.9902C60.2225-30.4812 61.4325-31.6902 62.9225-31.6902L83.9225-31.6902C85.4125-31.6902 86.6225-30.4812 86.6225-28.9902L86.6225-7.99026C86.6225-6.49926 85.4125-5.29026 83.9225-5.29026C82.4325-5.29026 81.2225-6.49926 81.2225-7.99026L81.2225-26.2902L62.9225-26.2902C61.4325-26.2902 60.2225-27.4992 60.2225-28.9902Z"/>
   <path class="hierarchical-1:primary SFSymbolsPreview212121" d="M35.9425-68.8352C41.4925-70.4402 47.3525-70.6132 52.9925-69.3382C58.6225-68.0632 63.8425-65.3822 68.1625-61.5442C72.4825-57.7062 75.7525-52.8372 77.6825-47.3912C78.1825-45.9852 77.4425-44.4422 76.0425-43.9452C74.6325-43.4472 73.0925-44.1832 72.5925-45.5892C70.9725-50.1752 68.2125-54.2762 64.5725-57.5082C60.9425-60.7402 56.5425-62.9982 51.7925-64.0722C47.0525-65.1452 42.1125-64.9992 37.4425-63.6472C32.7625-62.2962 28.5125-59.7822 25.0725-56.3412C25.0525-56.3212 25.0325-56.3022 25.0125-56.2822L8.77253-41.0222C7.68253-40.0012 5.97253-40.0542 4.95253-41.1412C3.93253-42.2282 3.98253-43.9362 5.07253-44.9582L21.2825-60.1892C25.3625-64.2602 30.4025-67.2342 35.9425-68.8352ZM6.92253-66.6902C8.41253-66.6902 9.62253-65.4812 9.62253-63.9902L9.62253-45.6902L27.9225-45.6902C29.4125-45.6902 30.6225-44.4812 30.6225-42.9902C30.6225-41.4992 29.4125-40.2902 27.9225-40.2902L6.92253-40.2902C5.43253-40.2902 4.22253-41.4992 4.22253-42.9902L4.22253-63.9902C4.22253-65.4812 5.43253-66.6902 6.92253-66.6902Z"/>
  </g>
  <g id="Thin-S" transform="matrix(1 0 0 1 812.207 696)">
   <path class="hierarchical-0:secondary SFSymbolsPreview4D4D4D" d="M84.073-30.0942C84.697-29.4302 84.664-28.3852 84-27.7612L67.779-12.5192C63.823-8.5681 58.933-5.6811 53.562-4.1281C48.182-2.5721 42.497-2.4041 37.035-3.6391C31.573-4.8751 26.514-7.4741 22.328-11.1952C18.143-14.9152 14.968-19.6342 13.1-24.9132C12.796-25.7722 13.246-26.7152 14.105-27.0192C14.964-27.3232 15.907-26.8732 16.211-26.0142C17.893-21.2612 20.752-17.0112 24.52-13.6612C28.289-10.3111 32.845-7.9711 37.763-6.8581C42.681-5.7451 47.801-5.8961 52.645-7.2981C57.489-8.6991 61.899-11.3042 65.463-14.8702C65.475-14.8822 65.488-14.8942 65.5-14.9062L81.74-30.1662C82.404-30.7902 83.449-30.7582 84.073-30.0942ZM60.22-28.9642C60.22-29.8752 60.959-30.6142 61.87-30.6142L82.87-30.6142C83.781-30.6142 84.52-29.8752 84.52-28.9642L84.52-7.9641C84.52-7.0531 83.781-6.3141 82.87-6.3141C81.959-6.3141 81.22-7.0531 81.22-7.9641L81.22-27.3142L61.87-27.3142C60.959-27.3142 60.22-28.0532 60.22-28.9642Z"/>
   <path class="hierarchical-1:primary SFSymbolsPreview212121" d="M35.178-67.8002C40.558-69.3562 46.244-69.5242 51.705-68.2882C57.167-67.0522 62.227-64.4532 66.412-60.7332C70.598-57.0132 73.773-52.2932 75.641-47.0142C75.945-46.1552 75.495-45.2122 74.636-44.9082C73.776-44.6042 72.834-45.0542 72.53-45.9132C70.848-50.6672 67.989-54.9172 64.22-58.2672C60.451-61.6162 55.895-63.9572 50.977-65.0702C46.059-66.1822 40.939-66.0312 36.095-64.6302C31.252-63.2292 26.842-60.6242 23.277-57.0572C23.265-57.0452 23.253-57.0332 23.24-57.0212L7-41.7612C6.336-41.1372 5.292-41.1702 4.668-41.8342C4.044-42.4982 4.076-43.5422 4.74-44.1662L20.962-59.4092C24.917-63.3602 29.808-66.2472 35.178-67.8002ZM5.87-65.6142C6.781-65.6142 7.52-64.8752 7.52-63.9642L7.52-44.6142L26.87-44.6142C27.781-44.6142 28.52-43.8752 28.52-42.9642C28.52-42.0532 27.781-41.3142 26.87-41.3142L5.87-41.3142C4.959-41.3142 4.22-42.0532 4.22-42.9642L4.22-63.9642C4.22-64.8752 4.959-65.6142 5.87-65.6142Z"/>
  </g>
  <g id="Ultralight-S" transform="matrix(1 0 0 1 516.046 696)">
   <path class="hierarchical-0:secondary SFSymbolsPreview4D4D4D" d="M83.1222-29.7028C83.5382-29.2608 83.5162-28.5638 83.0732-28.1478L66.8462-12.8998C62.9552-9.01084 58.1432-6.17084 52.8592-4.64184C47.5692-3.11184 41.9772-2.94684 36.6062-4.16184C31.2352-5.37684 26.2592-7.93284 22.1432-11.5918C18.0272-15.2498 14.9052-19.8918 13.0682-25.0828C12.8652-25.6558 13.1652-26.2838 13.7382-26.4868C14.3112-26.6898 14.9392-26.3898 15.1422-25.8168C16.8552-20.9758 19.7672-16.6478 23.6052-13.2358C27.4432-9.82484 32.0832-7.44084 37.0922-6.30784C42.1002-5.17484 47.3142-5.32884 52.2472-6.75484C57.1802-8.18184 61.6722-10.8358 65.3022-14.4678C65.3102-14.4758 65.3182-14.4838 65.3272-14.4918L81.5672-29.7518C82.0092-30.1678 82.7062-30.1458 83.1222-29.7028ZM60.2202-28.9498C60.2202-29.5578 60.7122-30.0498 61.3202-30.0498L82.3202-30.0498C82.9272-30.0498 83.4202-29.5578 83.4202-28.9498L83.4202-7.94984C83.4202-7.34284 82.9272-6.84984 82.3202-6.84984C81.7122-6.84984 81.2202-7.34284 81.2202-7.94984L81.2202-27.8498L61.3202-27.8498C60.7122-27.8498 60.2202-28.3428 60.2202-28.9498Z"/>
   <path class="hierarchical-1:primary SFSymbolsPreview212121" d="M34.7812-67.2578C40.0712-68.7878 45.6632-68.9528 51.0342-67.7378C56.4052-66.5228 61.3802-63.9668 65.4972-60.3078C69.6132-56.6498 72.7352-52.0078 74.5722-46.8168C74.7752-46.2438 74.4752-45.6158 73.9022-45.4128C73.3292-45.2098 72.7012-45.5098 72.4982-46.0828C70.7852-50.9238 67.8732-55.2518 64.0352-58.6638C60.1972-62.0748 55.5572-64.4588 50.5482-65.5918C45.5402-66.7258 40.3252-66.5718 35.3922-65.1448C30.4592-63.7178 25.9682-61.0638 22.3382-57.4318C22.3302-57.4238 22.3222-57.4158 22.3132-57.4078L6.07318-42.1478C5.63018-41.7318 4.93418-41.7538 4.51818-42.1968C4.10218-42.6398 4.12418-43.3358 4.56718-43.7518L20.7942-58.9998C24.6852-62.8888 29.4972-65.7288 34.7812-67.2578ZM5.32018-65.0498C5.92718-65.0498 6.42018-64.5578 6.42018-63.9498L6.42018-44.0498L26.3202-44.0498C26.9272-44.0498 27.4202-43.5578 27.4202-42.9498C27.4202-42.3428 26.9272-41.8498 26.3202-41.8498L5.32018-41.8498C4.71218-41.8498 4.22018-42.3428 4.22018-42.9498L4.22018-63.9498C4.22018-64.5578 4.71218-65.0498 5.32018-65.0498Z"/>
  </g>
 </g>
</svg>
