<?xml version="1.0" encoding="UTF-8"?>
<!--Generator: Apple Native CoreSVG 175-->
<!DOCTYPE svg
PUBLIC "-//W3C//DTD SVG 1.1//EN"
       "http://www.w3.org/Graphics/SVG/1.1/DTD/svg11.dtd">
<svg version="1.1" xmlns="http://www.w3.org/2000/svg" xmlns:xlink="http://www.w3.org/1999/xlink" width="3300" height="2200">
 <!--glyph: "", point size: 100.0, font version: "17.0d12e1", template writer version: "65.1"-->
 <style>.hierarchical-0:primary {fill:#212121}
.hierarchical-1:secondary {fill:#4D4D4D}

.SFSymbolsPreview212121 {fill:#212121;opacity:1.0}
.SFSymbolsPreview4D4D4D {fill:#4D4D4D;opacity:1.0}
</style>
 <g id="Notes">
  <rect height="2200" id="artboard" style="fill:white;opacity:1" width="3300" x="0" y="0"/>
  <line style="fill:none;stroke:black;opacity:1;stroke-width:0.5;" x1="263" x2="3036" y1="292" y2="292"/>
  <text style="stroke:none;fill:black;font-family:sans-serif;font-size:13;font-weight:bold;" transform="matrix(1 0 0 1 263 322)">Weight/Scale Variations</text>
  <text style="stroke:none;fill:black;font-family:sans-serif;font-size:13;text-anchor:middle;" transform="matrix(1 0 0 1 559.711 322)">Ultralight</text>
  <text style="stroke:none;fill:black;font-family:sans-serif;font-size:13;text-anchor:middle;" transform="matrix(1 0 0 1 856.422 322)">Thin</text>
  <text style="stroke:none;fill:black;font-family:sans-serif;font-size:13;text-anchor:middle;" transform="matrix(1 0 0 1 1153.13 322)">Light</text>
  <text style="stroke:none;fill:black;font-family:sans-serif;font-size:13;text-anchor:middle;" transform="matrix(1 0 0 1 1449.84 322)">Regular</text>
  <text style="stroke:none;fill:black;font-family:sans-serif;font-size:13;text-anchor:middle;" transform="matrix(1 0 0 1 1746.56 322)">Medium</text>
  <text style="stroke:none;fill:black;font-family:sans-serif;font-size:13;text-anchor:middle;" transform="matrix(1 0 0 1 2043.27 322)">Semibold</text>
  <text style="stroke:none;fill:black;font-family:sans-serif;font-size:13;text-anchor:middle;" transform="matrix(1 0 0 1 2339.98 322)">Bold</text>
  <text style="stroke:none;fill:black;font-family:sans-serif;font-size:13;text-anchor:middle;" transform="matrix(1 0 0 1 2636.69 322)">Heavy</text>
  <text style="stroke:none;fill:black;font-family:sans-serif;font-size:13;text-anchor:middle;" transform="matrix(1 0 0 1 2933.4 322)">Black</text>
  <line style="fill:none;stroke:black;opacity:1;stroke-width:0.5;" x1="263" x2="3036" y1="1903" y2="1903"/>
  <g transform="matrix(1 0 0 1 263 1933)">
   <path d="M9.24805 0.830078Q10.8691 0.830078 12.2949 0.214844Q13.7207-0.400391 14.8096-1.49414Q15.8984-2.58789 16.5186-4.01367Q17.1387-5.43945 17.1387-7.05078Q17.1387-8.66211 16.5186-10.0879Q15.8984-11.5137 14.8047-12.6074Q13.7109-13.7012 12.2852-14.3164Q10.8594-14.9316 9.23828-14.9316Q7.62695-14.9316 6.20117-14.3164Q4.77539-13.7012 3.69141-12.6074Q2.60742-11.5137 1.9873-10.0879Q1.36719-8.66211 1.36719-7.05078Q1.36719-5.43945 1.9873-4.01367Q2.60742-2.58789 3.69629-1.49414Q4.78516-0.400391 6.21094 0.214844Q7.63672 0.830078 9.24805 0.830078ZM9.24805-0.654297Q7.91992-0.654297 6.7627-1.14746Q5.60547-1.64062 4.73145-2.51953Q3.85742-3.39844 3.36426-4.56055Q2.87109-5.72266 2.87109-7.05078Q2.87109-8.37891 3.35938-9.54102Q3.84766-10.7031 4.72168-11.582Q5.5957-12.4609 6.75293-12.9541Q7.91016-13.4473 9.23828-13.4473Q10.5762-13.4473 11.7334-12.9541Q12.8906-12.4609 13.7695-11.582Q14.6484-10.7031 15.1465-9.54102Q15.6445-8.37891 15.6445-7.05078Q15.6445-5.72266 15.1514-4.56055Q14.6582-3.39844 13.7842-2.51953Q12.9102-1.64062 11.748-1.14746Q10.5859-0.654297 9.24805-0.654297ZM5.6543-7.05078Q5.6543-6.72852 5.85938-6.52832Q6.06445-6.32812 6.40625-6.32812L8.51562-6.32812L8.51562-4.20898Q8.51562-3.88672 8.71094-3.67676Q8.90625-3.4668 9.23828-3.4668Q9.56055-3.4668 9.77051-3.67676Q9.98047-3.88672 9.98047-4.20898L9.98047-6.32812L12.0898-6.32812Q12.4219-6.32812 12.627-6.52832Q12.832-6.72852 12.832-7.05078Q12.832-7.38281 12.627-7.58789Q12.4219-7.79297 12.0898-7.79297L9.98047-7.79297L9.98047-9.90234Q9.98047-10.2344 9.77051-10.4443Q9.56055-10.6543 9.23828-10.6543Q8.90625-10.6543 8.71094-10.4443Q8.51562-10.2344 8.51562-9.90234L8.51562-7.79297L6.40625-7.79297Q6.06445-7.79297 5.85938-7.58789Q5.6543-7.38281 5.6543-7.05078Z"/>
  </g>
  <g transform="matrix(1 0 0 1 281.867 1933)">
   <path d="M11.709 2.91016Q13.75 2.91016 15.5518 2.12891Q17.3535 1.34766 18.7305-0.0292969Q20.1074-1.40625 20.8887-3.20801Q21.6699-5.00977 21.6699-7.05078Q21.6699-9.0918 20.8887-10.8936Q20.1074-12.6953 18.7305-14.0723Q17.3535-15.4492 15.5469-16.2305Q13.7402-17.0117 11.6992-17.0117Q9.6582-17.0117 7.85645-16.2305Q6.05469-15.4492 4.68262-14.0723Q3.31055-12.6953 2.5293-10.8936Q1.74805-9.0918 1.74805-7.05078Q1.74805-5.00977 2.5293-3.20801Q3.31055-1.40625 4.6875-0.0292969Q6.06445 1.34766 7.86621 2.12891Q9.66797 2.91016 11.709 2.91016ZM11.709 1.25Q9.98047 1.25 8.47656 0.605469Q6.97266-0.0390625 5.83496-1.17676Q4.69727-2.31445 4.05762-3.81836Q3.41797-5.32227 3.41797-7.05078Q3.41797-8.7793 4.05762-10.2832Q4.69727-11.7871 5.83008-12.9297Q6.96289-14.0723 8.4668-14.7119Q9.9707-15.3516 11.6992-15.3516Q13.4277-15.3516 14.9316-14.7119Q16.4355-14.0723 17.5781-12.9297Q18.7207-11.7871 19.3652-10.2832Q20.0098-8.7793 20.0098-7.05078Q20.0098-5.32227 19.3701-3.81836Q18.7305-2.31445 17.5928-1.17676Q16.4551-0.0390625 14.9463 0.605469Q13.4375 1.25 11.709 1.25ZM7.17773-7.05078Q7.17773-6.69922 7.41211-6.47461Q7.64648-6.25 8.01758-6.25L10.8887-6.25L10.8887-3.36914Q10.8887-2.99805 11.1133-2.76855Q11.3379-2.53906 11.6895-2.53906Q12.0605-2.53906 12.29-2.76855Q12.5195-2.99805 12.5195-3.36914L12.5195-6.25L15.4004-6.25Q15.7715-6.25 16.001-6.47461Q16.2305-6.69922 16.2305-7.05078Q16.2305-7.42188 16.001-7.65137Q15.7715-7.88086 15.4004-7.88086L12.5195-7.88086L12.5195-10.752Q12.5195-11.1328 12.29-11.3623Q12.0605-11.5918 11.6895-11.5918Q11.3379-11.5918 11.1133-11.3574Q10.8887-11.123 10.8887-10.752L10.8887-7.88086L8.01758-7.88086Q7.63672-7.88086 7.40723-7.65137Q7.17773-7.42188 7.17773-7.05078Z"/>
  </g>
  <g transform="matrix(1 0 0 1 305.646 1933)">
   <path d="M14.9707 5.66406Q17.0605 5.66406 18.96 5.01465Q20.8594 4.36523 22.4512 3.19336Q24.043 2.02148 25.2197 0.429688Q26.3965-1.16211 27.0459-3.06641Q27.6953-4.9707 27.6953-7.05078Q27.6953-9.14062 27.0459-11.04Q26.3965-12.9395 25.2197-14.5312Q24.043-16.123 22.4512-17.2998Q20.8594-18.4766 18.9551-19.126Q17.0508-19.7754 14.9609-19.7754Q12.8711-19.7754 10.9717-19.126Q9.07227-18.4766 7.48535-17.2998Q5.89844-16.123 4.72168-14.5312Q3.54492-12.9395 2.90039-11.04Q2.25586-9.14062 2.25586-7.05078Q2.25586-4.9707 2.90527-3.06641Q3.55469-1.16211 4.72656 0.429688Q5.89844 2.02148 7.49023 3.19336Q9.08203 4.36523 10.9814 5.01465Q12.8809 5.66406 14.9707 5.66406ZM14.9707 3.84766Q13.1641 3.84766 11.5283 3.2959Q9.89258 2.74414 8.53516 1.74805Q7.17773 0.751953 6.17676-0.610352Q5.17578-1.97266 4.62891-3.6084Q4.08203-5.24414 4.08203-7.05078Q4.08203-8.86719 4.62891-10.5029Q5.17578-12.1387 6.17188-13.501Q7.16797-14.8633 8.52539-15.8594Q9.88281-16.8555 11.5186-17.4023Q13.1543-17.9492 14.9609-17.9492Q16.7773-17.9492 18.4131-17.4023Q20.0488-16.8555 21.4111-15.8594Q22.7734-14.8633 23.7695-13.501Q24.7656-12.1387 25.3174-10.5029Q25.8691-8.86719 25.8691-7.05078Q25.8789-5.24414 25.332-3.6084Q24.7852-1.97266 23.7842-0.610352Q22.7832 0.751953 21.4209 1.74805Q20.0586 2.74414 18.4229 3.2959Q16.7871 3.84766 14.9707 3.84766ZM9.19922-7.05078Q9.19922-6.66992 9.45801-6.4209Q9.7168-6.17188 10.1172-6.17188L14.0625-6.17188L14.0625-2.2168Q14.0625-1.81641 14.3115-1.55762Q14.5605-1.29883 14.9512-1.29883Q15.3516-1.29883 15.6104-1.55273Q15.8691-1.80664 15.8691-2.2168L15.8691-6.17188L19.8242-6.17188Q20.2246-6.17188 20.4785-6.4209Q20.7324-6.66992 20.7324-7.05078Q20.7324-7.46094 20.4785-7.71484Q20.2246-7.96875 19.8242-7.96875L15.8691-7.96875L15.8691-11.9141Q15.8691-12.3242 15.6104-12.583Q15.3516-12.8418 14.9512-12.8418Q14.5605-12.8418 14.3115-12.583Q14.0625-12.3242 14.0625-11.9141L14.0625-7.96875L10.1172-7.96875Q9.70703-7.96875 9.45312-7.71484Q9.19922-7.46094 9.19922-7.05078Z"/>
  </g>
  <text style="stroke:none;fill:black;font-family:sans-serif;font-size:13;font-weight:bold;" transform="matrix(1 0 0 1 263 1953)">Design Variations</text>
  <text style="stroke:none;fill:black;font-family:sans-serif;font-size:13;" transform="matrix(1 0 0 1 263 1971)">Symbols are supported in up to nine weights and three scales.</text>
  <text style="stroke:none;fill:black;font-family:sans-serif;font-size:13;" transform="matrix(1 0 0 1 263 1989)">For optimal layout with text and other symbols, vertically align</text>
  <text style="stroke:none;fill:black;font-family:sans-serif;font-size:13;" transform="matrix(1 0 0 1 263 2007)">symbols with the adjacent text.</text>
  <line style="fill:none;stroke:#00AEEF;stroke-width:0.5;opacity:1.0;" x1="776" x2="776" y1="1919" y2="1933"/>
  <g transform="matrix(1 0 0 1 776 1933)">
   <path d="M3.31055 0.15625Q3.70117 0.15625 3.91602-0.00976562Q4.13086-0.175781 4.26758-0.585938L5.52734-4.0332L11.2891-4.0332L12.5488-0.585938Q12.6855-0.175781 12.9004-0.00976562Q13.1152 0.15625 13.4961 0.15625Q13.8867 0.15625 14.1162-0.0585938Q14.3457-0.273438 14.3457-0.644531Q14.3457-0.869141 14.2383-1.17188L9.6582-13.3691Q9.48242-13.8184 9.17969-14.043Q8.87695-14.2676 8.4082-14.2676Q7.5-14.2676 7.17773-13.3789L2.59766-1.16211Q2.49023-0.859375 2.49023-0.634766Q2.49023-0.263672 2.70996-0.0537109Q2.92969 0.15625 3.31055 0.15625ZM6.00586-5.51758L8.37891-12.0898L8.42773-12.0898L10.8008-5.51758Z"/>
  </g>
  <line style="fill:none;stroke:#00AEEF;stroke-width:0.5;opacity:1.0;" x1="793.197" x2="793.197" y1="1919" y2="1933"/>
  <text style="stroke:none;fill:black;font-family:sans-serif;font-size:13;font-weight:bold;" transform="matrix(1 0 0 1 776 1953)">Margins</text>
  <text style="stroke:none;fill:black;font-family:sans-serif;font-size:13;" transform="matrix(1 0 0 1 776 1971)">Leading and trailing margins on the left and right side of each symbol</text>
  <text style="stroke:none;fill:black;font-family:sans-serif;font-size:13;" transform="matrix(1 0 0 1 776 1989)">can be adjusted by modifying the x-location of the margin guidelines.</text>
  <text style="stroke:none;fill:black;font-family:sans-serif;font-size:13;" transform="matrix(1 0 0 1 776 2007)">Modifications are automatically applied proportionally to all</text>
  <text style="stroke:none;fill:black;font-family:sans-serif;font-size:13;" transform="matrix(1 0 0 1 776 2025)">scales and weights.</text>
  <g transform="matrix(1 0 0 1 1289 1933)">
   <path d="M2.8418 1.86523L4.54102 3.57422Q5.18555 4.22852 5.90332 4.17969Q6.62109 4.13086 7.31445 3.35938L18.0078-8.42773L17.041-9.4043L6.42578 2.27539Q6.16211 2.57812 5.89355 2.61719Q5.625 2.65625 5.27344 2.30469L4.10156 1.14258Q3.75 0.791016 3.79395 0.522461Q3.83789 0.253906 4.14062-0.0195312L15.6152-10.8203L14.6387-11.7871L3.04688-0.898438Q2.30469-0.214844 2.25098 0.498047Q2.19727 1.21094 2.8418 1.86523ZM9.25781-16.3281Q8.94531-16.0254 8.90625-15.6348Q8.86719-15.2441 9.04297-14.9512Q9.21875-14.6777 9.55566-14.541Q9.89258-14.4043 10.3809-14.5215Q11.4746-14.7754 12.5977-14.7314Q13.7207-14.6875 14.7949-13.9844L14.209-12.5293Q13.9551-11.9043 14.0674-11.4404Q14.1797-10.9766 14.5801-10.5664L16.875-8.25195Q17.2363-7.88086 17.5781-7.82227Q17.9199-7.76367 18.3398-7.8418L19.4043-8.03711L20.0684-7.36328L20.0293-6.80664Q20-6.43555 20.1221-6.12305Q20.2441-5.81055 20.6055-5.44922L21.3672-4.70703Q21.7285-4.3457 22.1533-4.33105Q22.5781-4.31641 22.9297-4.66797L25.8398-7.58789Q26.1914-7.93945 26.1816-8.35449Q26.1719-8.76953 25.8105-9.13086L25.0391-9.89258Q24.6875-10.2539 24.3799-10.3857Q24.0723-10.5176 23.7109-10.4883L23.1348-10.4395L22.4902-11.0742L22.7344-12.1973Q22.832-12.6172 22.6953-12.9834Q22.5586-13.3496 22.1191-13.7891L19.9219-15.9766Q18.6719-17.2168 17.2607-17.8369Q15.8496-18.457 14.4189-18.4814Q12.9883-18.5059 11.665-17.959Q10.3418-17.4121 9.25781-16.3281ZM10.752-15.957Q11.6602-16.6211 12.7002-16.9043Q13.7402-17.1875 14.8047-17.085Q15.8691-16.9824 16.8701-16.5137Q17.8711-16.0449 18.7012-15.2051L21.1328-12.793Q21.3086-12.6172 21.3525-12.4512Q21.3965-12.2852 21.3379-12.0312L21.0156-10.5469L22.5195-9.0625L23.5059-9.12109Q23.6914-9.13086 23.7891-9.09668Q23.8867-9.0625 24.0332-8.91602L24.6094-8.33984L22.168-5.89844L21.5918-6.47461Q21.4453-6.62109 21.4062-6.71875Q21.3672-6.81641 21.377-7.01172L21.4453-7.98828L19.9512-9.47266L18.4277-9.21875Q18.1836-9.16992 18.042-9.2041Q17.9004-9.23828 17.7148-9.41406L15.7129-11.416Q15.5176-11.5918 15.4932-11.7529Q15.4688-11.9141 15.5859-12.1875L16.4648-14.2773Q15.293-15.3711 13.8281-15.791Q12.3633-16.2109 10.8398-15.7617Q10.7227-15.7324 10.6885-15.8057Q10.6543-15.8789 10.752-15.957Z"/>
  </g>
  <text style="stroke:none;fill:black;font-family:sans-serif;font-size:13;font-weight:bold;" transform="matrix(1 0 0 1 1289 1953)">Exporting</text>
  <text style="stroke:none;fill:black;font-family:sans-serif;font-size:13;" transform="matrix(1 0 0 1 1289 1971)">Symbols should be outlined when exporting to ensure the</text>
  <text style="stroke:none;fill:black;font-family:sans-serif;font-size:13;" transform="matrix(1 0 0 1 1289 1989)">design is preserved when submitting to Xcode.</text>
  <text id="template-version" style="stroke:none;fill:black;font-family:sans-serif;font-size:13;text-anchor:end;" transform="matrix(1 0 0 1 3036 1933)">Template v.3.0</text>
  <text style="stroke:none;fill:black;font-family:sans-serif;font-size:13;text-anchor:end;" transform="matrix(1 0 0 1 3036 1951)">Requires Xcode 13 or greater</text>
  <text id="descriptive-name" style="stroke:none;fill:black;font-family:sans-serif;font-size:13;text-anchor:end;" transform="matrix(1 0 0 1 3036 1969)">Generated from cloud-lightning</text>
  <text style="stroke:none;fill:black;font-family:sans-serif;font-size:13;text-anchor:end;" transform="matrix(1 0 0 1 3036 1987)">Typeset at 100 points</text>
  <text style="stroke:none;fill:black;font-family:sans-serif;font-size:13;" transform="matrix(1 0 0 1 263 726)">Small</text>
  <text style="stroke:none;fill:black;font-family:sans-serif;font-size:13;" transform="matrix(1 0 0 1 263 1156)">Medium</text>
  <text style="stroke:none;fill:black;font-family:sans-serif;font-size:13;" transform="matrix(1 0 0 1 263 1586)">Large</text>
 </g>
 <g id="Guides">
  <g id="H-reference" style="fill:#27AAE1;stroke:none;" transform="matrix(1 0 0 1 339 696)">
   <path d="M0.976562 0L3.66211 0L29.3457-67.1387L30.0293-67.1387L30.0293-70.459L28.125-70.459ZM11.6699-24.4629L46.9727-24.4629L46.2402-26.709L12.4512-26.709ZM55.127 0L57.7637 0L30.6152-70.459L29.4434-70.459L29.4434-67.1387Z"/>
  </g>
  <line id="Baseline-S" style="fill:none;stroke:#27AAE1;opacity:1;stroke-width:0.5;" x1="263" x2="3036" y1="696" y2="696"/>
  <line id="Capline-S" style="fill:none;stroke:#27AAE1;opacity:1;stroke-width:0.5;" x1="263" x2="3036" y1="625.541" y2="625.541"/>
  <g id="H-reference" style="fill:#27AAE1;stroke:none;" transform="matrix(1 0 0 1 339 1126)">
   <path d="M0.976562 0L3.66211 0L29.3457-67.1387L30.0293-67.1387L30.0293-70.459L28.125-70.459ZM11.6699-24.4629L46.9727-24.4629L46.2402-26.709L12.4512-26.709ZM55.127 0L57.7637 0L30.6152-70.459L29.4434-70.459L29.4434-67.1387Z"/>
  </g>
  <line id="Baseline-M" style="fill:none;stroke:#27AAE1;opacity:1;stroke-width:0.5;" x1="263" x2="3036" y1="1126" y2="1126"/>
  <line id="Capline-M" style="fill:none;stroke:#27AAE1;opacity:1;stroke-width:0.5;" x1="263" x2="3036" y1="1055.54" y2="1055.54"/>
  <g id="H-reference" style="fill:#27AAE1;stroke:none;" transform="matrix(1 0 0 1 339 1556)">
   <path d="M0.976562 0L3.66211 0L29.3457-67.1387L30.0293-67.1387L30.0293-70.459L28.125-70.459ZM11.6699-24.4629L46.9727-24.4629L46.2402-26.709L12.4512-26.709ZM55.127 0L57.7637 0L30.6152-70.459L29.4434-70.459L29.4434-67.1387Z"/>
  </g>
  <line id="Baseline-L" style="fill:none;stroke:#27AAE1;opacity:1;stroke-width:0.5;" x1="263" x2="3036" y1="1556" y2="1556"/>
  <line id="Capline-L" style="fill:none;stroke:#27AAE1;opacity:1;stroke-width:0.5;" x1="263" x2="3036" y1="1485.54" y2="1485.54"/>
  <line id="left-margin-Regular-M" style="fill:none;stroke:#00AEEF;stroke-width:0.5;opacity:1.0;" x1="1393.35" x2="1393.35" y1="1030.78" y2="1150.12"/>
  <line id="right-margin-Regular-M" style="fill:none;stroke:#00AEEF;stroke-width:0.5;opacity:1.0;" x1="1506.34" x2="1506.34" y1="1030.78" y2="1150.12"/>
 </g>
 <g id="Symbols">
  <g id="Black-L" transform="matrix(1 0 0 1 2859.82 1556)">
   <path class="hierarchical-0:primary SFSymbolsPreview212121" d="M83.4918-48.2648C86.7518-46.0848 87.6318-41.6748 85.4618-38.4148L70.0618-15.3248L90.9218-15.3248C93.5418-15.3248 95.9518-13.8848 97.1818-11.5748C98.4218-9.27482 98.2818-6.46482 96.8318-4.29482L74.0818 29.8352C71.9118 33.0952 67.5018 33.9752 64.2318 31.8052C60.9718 29.6252 60.0918 25.2252 62.2718 21.9552L77.6618-1.12481L56.8018-1.12481C54.1818-1.12481 51.7718-2.56482 50.5418-4.87482C49.3018-7.18482 49.4418-9.98482 50.8918-12.1648L73.6418-46.2948C75.8218-49.5548 80.2218-50.4348 83.4918-48.2648Z"/>
   <path class="hierarchical-1:secondary SFSymbolsPreview4D4D4D" d="M48.1418-105.614C56.7318-107.044 65.5418-106.314 73.7918-103.494C82.0318-100.675 89.4418-95.8548 95.3618-89.4648C100.012-84.4448 103.622-78.5748 106.012-72.2048L107.982-72.2048C116.792-72.2148 125.292-68.9448 131.832-63.0448C138.372-57.1348 142.492-49.0048 143.372-40.2348C144.262-31.4748 141.852-22.6848 136.632-15.5848C131.402-8.49482 123.722-3.59482 115.092-1.84482C111.242-1.05481 107.502-3.54482 106.722-7.38482C105.932-11.2248 108.422-14.9748 112.262-15.7548C117.452-16.8048 122.062-19.7548 125.192-24.0148C128.332-28.2748 129.782-33.5448 129.242-38.8148C128.712-44.0748 126.242-48.9548 122.322-52.5048C118.392-56.0448 113.282-58.0048 107.992-58.0048L100.822-58.0048C97.5818-58.0048 94.7518-60.1948 93.9418-63.3248C92.3518-69.4848 89.2618-75.1548 84.9418-79.8148C80.6218-84.4848 75.2118-88.0048 69.1918-90.0548C63.1718-92.1148 56.7418-92.6448 50.4718-91.6048C44.1918-90.5648 38.2818-87.9748 33.2518-84.0848C28.2218-80.1948 24.2418-75.1048 21.6618-69.2948C19.0918-63.4848 17.9918-57.1248 18.4818-50.7848C18.9718-44.4448 21.0218-38.3248 24.4618-32.9748C27.8918-27.6248 32.6118-23.2048 38.1718-20.1248C41.6018-18.2248 42.8418-13.9048 40.9418-10.4748C39.0418-7.04482 34.7218-5.80482 31.2918-7.70482C23.6718-11.9248 17.2218-17.9648 12.5118-25.2948C7.80182-32.6248 4.99182-41.0048 4.32182-49.6948C3.65182-58.3748 5.15182-67.0948 8.68182-75.0548C12.2218-83.0148 17.6718-89.9748 24.5618-95.3148C31.4418-100.645 39.5518-104.184 48.1418-105.614Z"/>
  </g>
  <g id="Heavy-L" transform="matrix(1 0 0 1 2563.96 1556)">
   <path class="hierarchical-0:primary SFSymbolsPreview212121" d="M73.5-45.8108C75.42-48.6808 79.3-49.4608 82.17-47.5408C84.97-45.6708 85.78-41.9208 84.03-39.0808L83.9-38.8708L67.62-14.4608L90.07-14.4608C94.99-14.4608 97.95-9.07074 95.39-4.94074L95.27-4.74074L72.52 29.3792C70.61 32.2492 66.72 33.0192 63.85 31.1092C61.05 29.2392 60.24 25.4892 61.99 22.6392L62.12 22.4392L78.39-1.96074L55.94-1.96074C51.02-1.96074 48.06-7.36074 50.62-11.4908L50.74-11.6808L73.5-45.8108Z"/>
   <path class="hierarchical-1:secondary SFSymbolsPreview4D4D4D" d="M47.42-104.75C55.87-106.17 64.55-105.45 72.65-102.67C80.77-99.9008 88.06-95.1508 93.88-88.8708C98.4-84.0008 101.92-78.3008 104.28-72.1108L104.56-71.3408L107.13-71.3408C115.55-71.3408 123.69-68.2808 130-62.7508L130.4-62.3908C136.79-56.6408 140.81-48.6908 141.67-40.1408C142.53-31.5808 140.19-23.0008 135.08-16.0708C129.98-9.15074 122.49-4.37074 114.07-2.66074C110.69-1.97074 107.38-4.15074 106.69-7.53074C106.02-10.8408 108.09-14.0708 111.35-14.8508L111.57-14.9008C116.96-16.0008 121.76-19.0608 125.02-23.4808C128.29-27.9208 129.78-33.4008 129.23-38.8908C128.68-44.3608 126.12-49.4308 122.03-53.1108C118.07-56.6908 112.94-58.7208 107.6-58.8408L107.13-58.8408L99.97-58.8408C97.12-58.8408 94.63-60.7708 93.92-63.5208C92.28-69.8308 89.12-75.6208 84.71-80.3708C80.3-85.1408 74.76-88.7408 68.6-90.8508C62.46-92.9508 55.88-93.4908 49.47-92.4208C43.07-91.3708 37.02-88.7208 31.87-84.7408C26.74-80.7708 22.67-75.5808 20.03-69.6308C17.4-63.6808 16.28-57.1708 16.78-50.6908C17.27-44.2308 19.37-37.9708 22.89-32.5008C26.39-27.0308 31.22-22.5208 36.91-19.3708C39.93-17.7008 41.02-13.8908 39.35-10.8708C37.67-7.85074 33.87-6.76074 30.85-8.43074C23.35-12.5908 17-18.5408 12.37-25.7408C7.72998-32.9608 4.95998-41.2108 4.31998-49.7408C3.65998-58.2708 5.12998-66.8508 8.60998-74.7008C12.09-82.5408 17.45-89.3908 24.22-94.6208C31.01-99.8708 38.99-103.36 47.42-104.75Z"/>
  </g>
  <g id="Bold-L" transform="matrix(1 0 0 1 2268.2 1556)">
   <path class="hierarchical-0:primary SFSymbolsPreview212121" d="M73.3336-45.2422C74.9636-47.6822 78.2536-48.3422 80.6836-46.7122C83.0536-45.1322 83.7436-41.9722 82.2836-39.5622L82.1536-39.3622L64.9036-13.4722L89.1236-13.4722C93.2836-13.4722 95.7936-8.91222 93.6536-5.41222L93.5336-5.23222L70.7836 28.8878C69.1636 31.3178 65.8736 31.9778 63.4336 30.3578C61.0636 28.7778 60.3836 25.6178 61.8436 23.2078L61.9636 23.0078L79.2236-2.87222L54.9936-2.87222C50.8336-2.87222 48.3236-7.43222 50.4736-10.9322L50.5836-11.1122L73.3336-45.2422Z"/>
   <path class="hierarchical-1:secondary SFSymbolsPreview4D4D4D" d="M46.6336-103.782C54.9336-105.162 63.4436-104.462 71.4036-101.742C79.3636-99.0122 86.5236-94.3622 92.2336-88.1922C96.8336-83.2322 100.384-77.4022 102.694-71.0722L102.954-70.3522L106.193-70.3522C114.373-70.3522 122.273-67.3822 128.433-62.0022L128.833-61.6522C135.033-56.0522 138.943-48.3322 139.783-40.0022C140.623-31.6722 138.343-23.3322 133.373-16.6022C128.413-9.87222 121.133-5.22222 112.943-3.55222C110.073-2.96222 107.273-4.81222 106.683-7.68222C106.103-10.5522 107.953-13.3522 110.823-13.9322C116.443-15.0822 121.443-18.2722 124.843-22.8922C128.253-27.5022 129.813-33.2222 129.233-38.9422C128.653-44.6422 125.983-49.9422 121.723-53.7822C117.583-57.5222 112.233-59.6322 106.663-59.7522L106.193-59.7522L99.0236-59.7522C96.6036-59.7522 94.4936-61.3922 93.8836-63.7322C92.2236-70.1722 88.9836-76.1022 84.4636-80.9822C79.9336-85.8722 74.2736-89.5522 67.9736-91.7122C61.6736-93.8622 54.9436-94.4222 48.3736-93.3222C41.8136-92.2422 35.6236-89.5322 30.3536-85.4522C25.0836-81.3822 20.9136-76.0622 18.2236-69.9722C15.5236-63.8922 14.3836-57.2322 14.8836-50.5922C15.3936-43.9522 17.5436-37.5422 21.1536-31.9422C24.7436-26.3422 29.6736-21.7222 35.4936-18.5022C38.0536-17.0822 38.9836-13.8522 37.5636-11.2922C36.1436-8.73222 32.9236-7.81222 30.3636-9.22222C23.0036-13.3022 16.7736-19.1422 12.2336-26.2122C7.68361-33.2822 4.96361-41.3822 4.31361-49.7822C3.67361-58.1822 5.12361-66.5922 8.53361-74.2722C11.9336-81.9622 17.2036-88.6822 23.8636-93.8322C30.5136-98.9922 38.3436-102.412 46.6336-103.782Z"/>
  </g>
  <g id="Semibold-L" transform="matrix(1 0 0 1 1972.14 1556)">
   <path class="hierarchical-0:primary SFSymbolsPreview212121" d="M73.2351-44.874C74.6551-47.014 77.5451-47.594 79.6751-46.164C81.7551-44.784 82.3551-42.034 81.0951-39.914L80.9651-39.714L63.0351-12.814L88.4751-12.814C92.1151-12.814 94.3151-8.82408 92.4451-5.75408L92.3351-5.58408L69.5851 28.536C68.1651 30.666 65.2751 31.246 63.1451 29.826C61.0651 28.436 60.4651 25.686 61.7251 23.566L61.8551 23.376L79.7851-3.51408L54.3551-3.51408C50.7051-3.51408 48.5051-7.51408 50.3751-10.5841L50.4851-10.744L73.2351-44.874Z"/>
   <path class="hierarchical-1:secondary SFSymbolsPreview4D4D4D" d="M46.0851-103.134C54.2751-104.504 62.6851-103.804 70.5451-101.114C78.4051-98.424 85.4651-93.834 91.1051-87.734C95.7751-82.704 99.3551-76.764 101.625-70.294L101.835-69.694L105.525-69.694C113.575-69.694 121.315-66.784 127.345-61.504L127.735-61.164C133.825-55.674 137.655-48.104 138.485-39.934C139.315-31.774 137.075-23.594 132.205-16.974C127.345-10.3841 120.185-5.82408 112.145-4.18408C109.635-3.66408 107.175-5.29408 106.665-7.80408C106.155-10.3241 107.775-12.784 110.285-13.294C116.075-14.474 121.225-17.754 124.715-22.494C128.215-27.254 129.825-33.134 129.235-38.994C128.635-44.864 125.885-50.314 121.505-54.254C117.245-58.104 111.745-60.274 106.005-60.394L105.525-60.394L98.3651-60.394C96.2551-60.394 94.4051-61.824 93.8651-63.884C92.1651-70.444 88.8751-76.474 84.2851-81.414C79.6951-86.384 73.9351-90.124 67.5351-92.314C61.1351-94.504 54.2851-95.074 47.6051-93.954C40.9551-92.854 34.6551-90.104 29.2951-85.964C23.9551-81.824 19.7151-76.414 16.9751-70.234C14.2351-64.044 13.0651-57.274 13.5851-50.534C14.1051-43.784 16.2951-37.274 19.9451-31.584C23.5951-25.904 28.6151-21.204 34.5351-17.924C36.7751-16.684 37.5951-13.854 36.3451-11.604C35.1051-9.35408 32.2751-8.54408 30.0251-9.78408C22.7551-13.814 16.5951-19.584 12.1151-26.564C7.63508-33.544 4.95508-41.534 4.31508-49.814C3.67508-58.094 5.10508-66.404 8.46508-74.004C11.8451-81.594 17.0451-88.234 23.6051-93.314C30.1851-98.404 37.9151-101.784 46.0851-103.134Z"/>
  </g>
  <g id="Medium-L" transform="matrix(1 0 0 1 1675.93 1556)">
   <path class="hierarchical-0:primary SFSymbolsPreview212121" d="M73.1459-44.5848C74.4159-46.4848 76.9959-47.0048 78.9059-45.7348C80.7459-44.5048 81.2959-42.0448 80.1659-40.1548L80.0559-39.9748L61.6059-12.2948L87.9659-12.2948C91.2259-12.2948 93.1859-8.7448 91.5259-6.0048L91.4259-5.8448L68.6759 28.2752C67.4059 30.1852 64.8259 30.6952 62.9159 29.4252C61.0659 28.1952 60.5259 25.7352 61.6559 23.8452L61.7659 23.6652L80.2159-3.9948L53.8459-3.9948C50.5959-3.9948 48.6359-7.5548 50.2959-10.2948L50.3959-10.4548L73.1459-44.5848Z"/>
   <path class="hierarchical-1:secondary SFSymbolsPreview4D4D4D" d="M45.6659-102.624C53.7759-103.974 62.1059-103.284 69.8859-100.625C77.6659-97.9648 84.6559-93.4148 90.2459-87.3748C95.0259-82.2248 98.6459-76.1048 100.886-69.4448L100.976-69.1748L105.026-69.1748C112.946-69.1748 120.576-66.3148 126.506-61.1248L126.896-60.7748C132.896-55.3648 136.676-47.9048 137.486-39.8648C138.306-31.8248 136.096-23.7748 131.306-17.2548C126.516-10.7648 119.466-6.2648 111.546-4.6548C109.306-4.1948 107.116-5.6448 106.656-7.8848C106.196-10.1348 107.646-12.3248 109.886-12.7848C115.796-13.9848 121.056-17.3448 124.616-22.1748C128.196-27.0348 129.836-33.0348 129.236-39.0248C128.626-45.0248 125.816-50.5748 121.336-54.6048C116.996-58.5348 111.376-60.7548 105.516-60.8748L105.026-60.8748L97.8659-60.8748C95.9759-60.8748 94.3259-62.1548 93.8559-63.9848C92.1359-70.6248 88.7959-76.7348 84.1559-81.7348C79.5059-86.7648 73.6759-90.5548 67.1959-92.7748C60.7159-94.9848 53.7859-95.5648 47.0259-94.4348C40.2859-93.3148 33.9159-90.5348 28.4959-86.3348C23.0859-82.1448 18.7959-76.6748 16.0159-70.4148C13.2358-64.1448 12.0658-57.2948 12.5858-50.4748C13.1158-43.6448 15.3259-37.0548 19.0259-31.2948C22.7159-25.5448 27.7959-20.7848 33.7959-17.4648C35.7959-16.3548 36.5259-13.8348 35.4159-11.8248C34.2959-9.8248 31.7759-9.0948 29.7659-10.2048C22.5759-14.1948 16.4759-19.9048 12.0358-26.8148C7.59584-33.7348 4.94584-41.6448 4.31584-49.8348C3.67584-58.0248 5.09584-66.2548 8.42584-73.7848C11.7658-81.2948 16.9159-87.8648 23.4159-92.9048C29.9259-97.9348 37.5759-101.284 45.6659-102.624Z"/>
  </g>
  <g id="Regular-L" transform="matrix(1 0 0 1 1379.86 1556)">
   <path class="hierarchical-0:primary SFSymbolsPreview212121" d="M73.0334-44.2015C74.1134-45.8115 76.2834-46.2515 77.8934-45.1715C79.4434-44.1415 79.9034-42.0815 78.9634-40.4915L78.8634-40.3215L59.7334-11.6315L87.3234-11.6315C90.0534-11.6315 91.7134-8.65149 90.3234-6.34149L90.2334-6.19149L67.4834 27.9285C66.4134 29.5385 64.2334 29.9685 62.6234 28.8985C61.0734 27.8685 60.6134 25.7985 61.5534 24.2185L61.6534 24.0485L80.7734-4.63149L53.2034-4.63149C50.4634-4.63149 48.8034-7.62149 50.1934-9.92149L50.2834-10.0715L73.0334-44.2015Z"/>
   <path class="hierarchical-1:secondary SFSymbolsPreview4D4D4D" d="M45.1234-101.962C53.1234-103.302 61.3434-102.622 69.0234-99.9915C76.7034-97.3615 83.6034-92.8715 89.1134-86.9215C93.8334-81.8415 97.4034-75.8115 99.6134-69.2415L99.8534-68.5115L104.383-68.5115C112.143-68.5115 119.613-65.7015 125.423-60.6115L125.813-60.2715C131.693-54.9715 135.393-47.6615 136.193-39.7815C136.993-31.9015 134.823-24.0115 130.123-17.6215C125.433-11.2615 118.533-6.85149 110.773-5.27149C108.873-4.88149 107.023-6.11149 106.643-8.00149C106.253-9.89149 107.473-11.7415 109.373-12.1315C115.433-13.3715 120.833-16.8115 124.493-21.7715C128.163-26.7615 129.853-32.9315 129.223-39.0815C128.603-45.2315 125.713-50.9415 121.123-55.0715C116.663-59.1115 110.893-61.3915 104.873-61.5115L104.383-61.5115L97.2234-61.5115C95.6234-61.5115 94.2334-62.5915 93.8334-64.1315C92.0834-70.8815 88.7034-77.0815 83.9834-82.1615C79.2534-87.2715 73.3434-91.1215 66.7534-93.3715C60.1734-95.6215 53.1334-96.2015 46.2734-95.0615C39.4234-93.9215 32.9534-91.0915 27.4434-86.8315C21.9534-82.5815 17.5934-77.0215 14.7734-70.6615C11.9533-64.3015 10.7533-57.3415 11.2933-50.4115C11.8233-43.4715 14.0733-36.7815 17.8234-30.9315C21.5834-25.0815 26.7334-20.2515 32.8234-16.8815C34.5134-15.9515 35.1334-13.8215 34.1934-12.1215C33.2534-10.4315 31.1234-9.82149 29.4334-10.7615C22.3334-14.6915 16.3134-20.3315 11.9333-27.1515C7.55332-33.9715 4.93332-41.7815 4.31332-49.8715C3.68332-57.9515 5.08332-66.0715 8.37332-73.5015C11.6633-80.9215 16.7434-87.4015 23.1634-92.3715C29.5834-97.3415 37.1334-100.641 45.1234-101.962Z"/>
  </g>
  <g id="Light-L" transform="matrix(1 0 0 1 1083.96 1556)">
   <path class="hierarchical-0:primary SFSymbolsPreview212121" d="M72.9008-43.7348C73.7308-44.9748 75.4108-45.3148 76.6508-44.4848C77.8408-43.6948 78.1908-42.1148 77.4908-40.8948L77.4008-40.7448L57.4408-10.8148L86.5208-10.8048C88.6208-10.8048 89.9008-8.5248 88.8508-6.7548L88.7708-6.6148L66.0208 27.5052C65.1908 28.7452 63.5108 29.0852 62.2708 28.2552C61.0808 27.4652 60.7208 25.8852 61.4308 24.6652L61.5208 24.5152L81.4708-5.4148L52.4008-5.4048C50.3008-5.4048 49.0208-7.6948 50.0708-9.4648L50.1508-9.6048L72.9008-43.7348Z"/>
   <path class="hierarchical-1:secondary SFSymbolsPreview4D4D4D" d="M44.4508-101.154C52.3208-102.464 60.4108-101.794 67.9608-99.2148C75.5208-96.6248 82.3108-92.2148 87.7308-86.3548C92.5008-81.2048 96.0908-75.0548 98.2508-68.3648L98.4608-67.6848L103.581-67.6848C111.141-67.6848 118.421-64.9548 124.091-59.9948L124.471-59.6548C130.211-54.4948 133.821-47.3648 134.591-39.6748C135.371-31.9948 133.261-24.3048 128.681-18.0748C124.111-11.8748 117.381-7.5748 109.811-6.0348C108.351-5.7348 106.921-6.6748 106.621-8.1348C106.321-9.5948 107.271-11.0248 108.731-11.3248C114.991-12.6048 120.551-16.1548 124.331-21.2748C128.121-26.4248 129.861-32.7848 129.221-39.1348C128.581-45.4848 125.601-51.3748 120.861-55.6448C116.251-59.8148 110.291-62.1648 104.071-62.2848L103.581-62.2848L96.4208-62.2848C95.1908-62.2848 94.1108-63.1148 93.8008-64.3148C92.0208-71.1848 88.5708-77.5048 83.7708-82.6848C78.9508-87.8848 72.9208-91.8048 66.2108-94.1048C59.5108-96.3948 52.3308-96.9948 45.3408-95.8248C38.3608-94.6648 31.7708-91.7848 26.1508-87.4448C20.5508-83.1048 16.1108-77.4448 13.2409-70.9648C10.3609-64.4748 9.14086-57.3848 9.69086-50.3248C10.2409-43.2548 12.5209-36.4348 16.3508-30.4748C20.1708-24.5148 25.4308-19.5948 31.6408-16.1648C32.9408-15.4348 33.4108-13.7948 32.6908-12.4948C31.9708-11.1848 30.3208-10.7148 29.0208-11.4348C22.0308-15.3048 16.1108-20.8448 11.8109-27.5548C7.50086-34.2748 4.92086-41.9548 4.31086-49.9148C3.69086-57.8548 5.07086-65.8448 8.30086-73.1548C11.5409-80.4448 16.5408-86.8248 22.8508-91.7148C29.1708-96.6048 36.6008-99.8548 44.4508-101.154Z"/>
  </g>
  <g id="Thin-L" transform="matrix(1 0 0 1 788.294 1556)">
   <path class="hierarchical-0:primary SFSymbolsPreview212121" d="M72.7268-43.1228C73.2328-43.8828 74.2568-44.0828 75.0148-43.5828C75.7288-43.1028 75.9518-42.1728 75.5548-41.4328L75.4728-41.2928L54.4318-9.72279L85.4738-9.72279C86.7458-9.72279 87.5228-8.35279 86.9168-7.27279L86.8468-7.16279L64.0968 26.9572C63.5908 27.7172 62.5668 27.9172 61.8088 27.4172C61.0948 26.9372 60.8718 26.0072 61.2688 25.2672L61.3508 25.1272L82.3898-6.42279L51.3498-6.42279C50.0778-6.42279 49.3008-7.79279 49.9068-8.87279L49.9768-8.99279L72.7268-43.1228Z"/>
   <path class="hierarchical-1:secondary SFSymbolsPreview4D4D4D" d="M43.5818-100.083C51.2828-101.362 59.1828-100.712 66.5728-98.1828C73.9628-95.6528 80.6078-91.3328 85.9088-85.6028C90.7428-80.3928 94.3298-74.1528 96.4068-67.3528L96.6288-66.6028L102.537-66.6028C109.833-66.6028 116.871-63.9628 122.351-59.1828L122.731-58.8428C128.265-53.8528 131.75-46.9628 132.5-39.5428C133.25-32.1128 131.215-24.6728 126.789-18.6628C122.365-12.6628 115.865-8.52279 108.554-7.03279C107.661-6.84279 106.789-7.42279 106.607-8.31279C106.425-9.21279 107.001-10.0828 107.894-10.2628C114.406-11.5928 120.194-15.2828 124.132-20.6228C128.073-25.9728 129.885-32.5928 129.217-39.2128C128.549-45.8128 125.447-51.9428 120.519-56.3928C115.713-60.7328 109.497-63.1828 103.023-63.3028L102.537-63.3028L95.3698-63.3028C94.6168-63.3028 93.9598-63.8128 93.7718-64.5428C91.9548-71.5728 88.4188-78.0528 83.4888-83.3628C78.5568-88.6928 72.3768-92.7128 65.5038-95.0628C58.6328-97.4128 51.2858-98.0228 44.1228-96.8228C36.9718-95.6428 30.2148-92.6928 24.4648-88.2428C18.7238-83.7928 14.1768-77.9928 11.2327-71.3528C8.2887-64.7128 7.0387-57.4528 7.5947-50.2128C8.1517-42.9728 10.4977-35.9828 14.4218-29.8728C18.3468-23.7628 23.7278-18.7228 30.0808-15.2128C30.8778-14.7628 31.1668-13.7628 30.7248-12.9628C30.2838-12.1728 29.2798-11.8828 28.4818-12.3228C21.6518-16.1028 15.8658-21.5228 11.6447-28.0928C7.4257-34.6628 4.9037-42.1728 4.3047-49.9628C3.7067-57.7428 5.0507-65.5528 8.2157-72.6928C11.3817-79.8328 16.2708-86.0728 22.4448-90.8528C28.6268-95.6328 35.8928-98.8128 43.5818-100.083Z"/>
  </g>
  <g id="Ultralight-L" transform="matrix(1 0 0 1 492.133 1556)">
   <path class="hierarchical-0:primary SFSymbolsPreview212121" d="M72.634-42.8046C72.971-43.3146 73.653-43.4546 74.159-43.1146C74.628-42.8046 74.78-42.1846 74.529-41.6946L74.464-41.5846L52.853-9.16459L84.923-9.16459C85.763-9.16459 86.279-8.27459 85.896-7.55459L85.838-7.45459L63.088 26.6654C62.751 27.1654 62.068 27.3054 61.563 26.9654C61.093 26.6554 60.942 26.0454 61.193 25.5554L61.258 25.4454L82.867-6.96459L50.799-6.96459C49.959-6.96459 49.443-7.86459 49.826-8.58459L49.884-8.67459L72.634-42.8046Z"/>
   <path class="hierarchical-1:secondary SFSymbolsPreview4D4D4D" d="M43.122-99.5346C50.734-100.804 58.541-100.155 65.845-97.6546C73.148-95.1546 79.716-90.8846 84.956-85.2246C89.878-79.9146 93.492-73.5246 95.513-66.5746L95.662-66.0446L101.986-66.0446C109.15-66.0446 116.06-63.4546 121.439-58.7546L121.812-58.4246C127.245-53.5246 130.666-46.7646 131.403-39.4746C132.139-32.1846 130.141-24.8846 125.796-18.9846C121.453-13.0946 115.072-9.02459 107.893-7.55459C107.298-7.43459 106.717-7.82459 106.596-8.41459C106.474-9.01459 106.858-9.59459 107.454-9.71459C114.099-11.0746 120.005-14.8346 124.025-20.2846C128.046-25.7446 129.896-32.5046 129.214-39.2546C128.532-45.9946 125.366-52.2546 120.338-56.7946C115.433-61.2246 109.09-63.7246 102.482-63.8446L101.986-63.8446L94.819-63.8446C94.318-63.8446 93.88-64.1846 93.754-64.6746C91.914-71.7946 88.334-78.3446 83.342-83.7246C78.349-89.1246 72.091-93.1946 65.132-95.5746C58.174-97.9546 50.736-98.5746 43.483-97.3646C36.242-96.1646 29.4-93.1746 23.578-88.6646C17.765-84.1646 13.1611-78.2946 10.1801-71.5746C7.19909-64.8446 5.93309-57.4846 6.49609-50.1646C7.06009-42.8346 9.43509-35.7546 13.4091-29.5746C17.384-23.3846 22.832-18.2846 29.264-14.7146C29.796-14.4246 29.988-13.7546 29.694-13.2246C29.399-12.6946 28.73-12.5046 28.199-12.7946C21.448-16.5346 15.73-21.8846 11.5581-28.3846C7.38809-34.8746 4.89509-42.3046 4.30309-49.9946C3.71209-57.6846 5.04009-65.4046 8.16909-72.4646C11.2981-79.5146 16.13-85.6846 22.231-90.4046C28.342-95.1346 35.522-98.2746 43.122-99.5346Z"/>
  </g>
  <g id="Black-M" transform="matrix(1 0 0 1 2873.3 1126)">
   <path class="hierarchical-0:primary SFSymbolsPreview212121" d="M58.9347-44.793C61.1147-48.053 65.5147-48.933 68.7847-46.763C71.9747-44.633 72.8847-40.373 70.8847-37.133L70.7547-36.913L60.2647-21.183L73.7647-21.183C79.3547-21.183 82.7247-15.043 79.8047-10.343L79.6747-10.143L61.8247 16.637C59.6447 19.897 55.2347 20.777 51.9747 18.607C48.7847 16.477 47.8647 12.207 49.8647 8.96704L50.0047 8.75704L60.4947-6.98296L46.9947-6.98296C41.4047-6.98296 38.0347-13.133 40.9547-17.823L41.0847-18.023L58.9347-44.793Z"/>
   <path class="hierarchical-1:secondary SFSymbolsPreview4D4D4D" d="M39.9447-92.003C46.9347-93.163 54.1047-92.573 60.8147-90.283C67.5347-87.983 73.5647-84.053 78.3547-78.863C81.8247-75.133 84.5847-70.823 86.5147-66.133L86.6547-65.803L87.1447-65.803C94.2647-65.823 101.155-63.243 106.525-58.553L106.895-58.223C112.305-53.323 115.715-46.593 116.435-39.353C117.175-32.103 115.185-24.823 110.855-18.953C106.525-13.083 100.175-9.03296 93.0247-7.58296C89.1847-6.80296 85.4347-9.28296 84.6547-13.123C83.8947-16.883 86.2547-20.563 89.9647-21.443L90.2047-21.493C93.9047-22.243 97.1847-24.343 99.4247-27.383C101.665-30.413 102.695-34.173 102.305-37.933C101.935-41.673 100.175-45.153 97.3747-47.683C94.6747-50.123 91.1947-51.513 87.5547-51.603L87.1547-51.603L81.5347-51.603C78.2947-51.603 75.4647-53.793 74.6547-56.933C73.4747-61.523 71.1647-65.743 67.9347-69.213C64.7347-72.693 60.7047-75.313 56.2147-76.843C51.7447-78.373 46.9547-78.773 42.2747-77.993C37.5947-77.213 33.1947-75.293 29.4547-72.393C25.7047-69.483 22.7347-65.703 20.8247-61.373C18.9047-57.053 18.0847-52.313 18.4547-47.583C18.8147-42.873 20.3447-38.313 22.8947-34.333C25.3647-30.493 28.7047-27.303 32.6347-25.023L33.1147-24.763C36.5447-22.863 37.7847-18.543 35.8847-15.113C33.9847-11.683 29.6647-10.433 26.2347-12.333C20.0447-15.763 14.7947-20.683 10.9448-26.653C7.12478-32.623 4.83478-39.453 4.29478-46.493C3.74478-53.563 4.96478-60.663 7.83478-67.123C10.7048-73.603 15.1447-79.273 20.7547-83.613C26.3547-87.963 32.9447-90.833 39.9447-92.003Z"/>
  </g>
  <g id="Heavy-M" transform="matrix(1 0 0 1 2577.44 1126)">
   <path class="hierarchical-0:primary SFSymbolsPreview212121" d="M58.7929-44.303C60.7029-47.173 64.5829-47.953 67.4529-46.033C70.2629-44.163 71.0629-40.413 69.3129-37.573L69.1929-37.363L57.8229-20.313L72.9129-20.313C77.8229-20.313 80.7829-14.923 78.2329-10.793L78.1129-10.593L60.2629 16.187C58.3429 19.057 54.4629 19.827 51.5929 17.917C48.7829 16.047 47.9829 12.297 49.7329 9.44702L49.8629 9.24704L61.2329-7.81296L46.1429-7.81296C41.2229-7.81296 38.2629-13.203 40.8129-17.343L40.9429-17.533L58.7929-44.303Z"/>
   <path class="hierarchical-1:secondary SFSymbolsPreview4D4D4D" d="M39.2329-91.143C46.0829-92.283 53.1129-91.703 59.6829-89.453C66.2729-87.203 72.1829-83.353 76.8829-78.263C80.4229-74.453 83.2129-70.013 85.1229-65.193L85.2229-64.933L86.2929-64.933C93.2029-64.943 99.8929-62.443 105.103-57.893L105.473-57.573C110.723-52.823 114.023-46.293 114.743-39.243C115.453-32.203 113.523-25.133 109.323-19.433C105.113-13.733 98.9429-9.80296 92.0029-8.39296C88.6229-7.70296 85.3229-9.89296 84.6329-13.273C83.9629-16.583 86.0429-19.803 89.2929-20.593L89.5129-20.643C93.4229-21.433 96.8929-23.643 99.2629-26.853C101.623-30.053 102.703-34.023 102.303-37.983C101.903-41.953 100.043-45.623 97.0929-48.293C94.2329-50.873 90.5529-52.343 86.7129-52.433L86.3029-52.433L80.6829-52.433C77.9129-52.433 75.4929-54.253 74.6929-56.883L74.6329-57.123C73.4129-61.853 71.0329-66.193 67.7129-69.773C64.4129-73.343 60.2629-76.043 55.6429-77.633C51.0329-79.203 46.1029-79.613 41.2829-78.813C36.4629-78.013 31.9329-76.033 28.0829-73.043C24.2129-70.053 21.1629-66.153 19.1929-61.693C17.2129-57.243 16.3729-52.363 16.7529-47.503C17.1229-42.643 18.7029-37.953 21.3229-33.853C23.9729-29.733 27.5929-26.353 31.8429-23.993C34.8629-22.323 35.9629-18.523 34.2929-15.503C32.6229-12.483 28.8129-11.383 25.7929-13.053C19.7229-16.413 14.5829-21.233 10.8129-27.093C7.06295-32.943 4.81295-39.633 4.29295-46.543C3.75295-53.463 4.94295-60.423 7.76295-66.763C10.5629-73.103 14.9229-78.663 20.4229-82.923C25.9129-87.183 32.3729-90.003 39.2329-91.143Z"/>
  </g>
  <g id="Bold-M" transform="matrix(1 0 0 1 2281.68 1126)">
   <path class="hierarchical-0:primary SFSymbolsPreview212121" d="M58.6405-43.7404C60.2605-46.1804 63.5505-46.8404 65.9905-45.2104C68.3605-43.6304 69.0405-40.4704 67.5805-38.0604L67.4605-37.8604L55.1005-19.3304L71.9705-19.3304C76.1305-19.3304 78.6405-14.7704 76.4905-11.2704L76.3805-11.0904L58.5305 15.6896C56.9005 18.1196 53.6105 18.7796 51.1805 17.1596C48.8105 15.5796 48.1205 12.4196 49.5805 10.0096L49.7105 9.80962L62.0605-8.73036L45.2005-8.73036C41.0305-8.73036 38.5205-13.2904 40.6705-16.7904L40.7905-16.9704L58.6405-43.7404Z"/>
   <path class="hierarchical-1:secondary SFSymbolsPreview4D4D4D" d="M38.4505-90.1704C45.1405-91.2804 52.0105-90.7204 58.4405-88.5304C64.8705-86.3204 70.6505-82.5604 75.2405-77.5904C78.8205-73.7404 81.6105-69.2404 83.4705-64.3504L83.6205-63.9504L85.3505-63.9504C92.0305-63.9604 98.4905-61.5504 103.53-57.1604L103.89-56.8304C108.97-52.2304 112.17-45.9204 112.85-39.1204C113.54-32.3104 111.67-25.4804 107.61-19.9704C103.54-14.4504 97.5805-10.6504 90.8705-9.29036C88.0005-8.71036 85.2005-10.5604 84.6205-13.4304C84.0505-16.2304 85.8005-18.9504 88.5505-19.6304L88.7605-19.6804C92.9005-20.5204 96.5705-22.8604 99.0805-26.2604C101.58-29.6504 102.73-33.8604 102.3-38.0604C101.88-42.2504 99.9105-46.1404 96.7805-48.9704C93.7605-51.7004 89.8505-53.2504 85.7805-53.3504L85.3605-53.3504L79.7405-53.3504C77.3205-53.3504 75.2105-54.9904 74.6005-57.3304C73.3405-62.2104 70.8905-66.6904 67.4605-70.3904C64.0505-74.0804 59.7705-76.8604 55.0005-78.5004C50.2505-80.1204 45.1505-80.5404 40.1805-79.7104C35.2105-78.8904 30.5305-76.8404 26.5505-73.7604C22.5705-70.6804 19.4205-66.6604 17.3805-62.0504C15.3405-57.4504 14.4705-52.4104 14.8605-47.4004C15.2405-42.3904 16.8705-37.5404 19.5805-33.3004C22.3105-29.0604 26.0505-25.5604 30.4405-23.1304C33.0005-21.7104 33.9305-18.4904 32.5105-15.9304C31.1005-13.3704 27.8705-12.4404 25.3105-13.8504C19.3805-17.1404 14.3505-21.8504 10.6605-27.5704C7.0005-33.2904 4.8105-39.8304 4.2905-46.5804C3.7605-53.3504 4.9305-60.1504 7.6905-66.3504C10.4505-72.5604 14.6905-77.9804 20.0605-82.1404C25.4205-86.3004 31.7405-89.0604 38.4505-90.1704Z"/>
  </g>
  <g id="Semibold-M" transform="matrix(1 0 0 1 1985.62 1126)">
   <path class="hierarchical-0:primary SFSymbolsPreview212121" d="M58.5241-43.3612C59.9441-45.5012 62.8341-46.0712 64.9741-44.6512C67.0441-43.2712 67.6441-40.5112 66.3841-38.4012L66.2641-38.2012L53.2341-18.6612L71.3241-18.6612C74.9641-18.6612 77.1741-14.6712 75.2941-11.6012L75.1941-11.4312L57.3441 15.3488C55.9141 17.4888 53.0241 18.0588 50.8941 16.6388C48.8241 15.2588 48.2141 12.4988 49.4741 10.3888L49.6041 10.1888L62.6341-9.36112L44.5441-9.36112C40.8941-9.36112 38.6941-13.3512 40.5641-16.4212L40.6741-16.5912L58.5241-43.3612Z"/>
   <path class="hierarchical-1:secondary SFSymbolsPreview4D4D4D" d="M37.8941-89.5112C44.4941-90.6012 51.2441-90.0512 57.5841-87.8912C63.9041-85.7212 69.5841-82.0212 74.1241-77.1212C77.7841-73.1812 80.6041-68.5412 82.4341-63.5012L82.5141-63.2812L84.7041-63.2812C91.2241-63.2912 97.5341-60.9312 102.434-56.6612L102.794-56.3312C107.764-51.8512 110.884-45.6912 111.554-39.0212C112.224-32.3712 110.394-25.7112 106.434-20.3412C102.474-14.9512 96.6541-11.2312 90.0941-9.90112C87.5841-9.39112 85.1241-11.0212 84.6141-13.5412C84.1041-16.0512 85.7341-18.5112 88.2441-19.0212C92.5441-19.8912 96.3541-22.3212 98.9441-25.8512C101.544-29.3712 102.744-33.7412 102.304-38.0912C101.864-42.4612 99.8141-46.4912 96.5641-49.4312C93.4241-52.2712 89.3641-53.8812 85.1341-53.9812L84.7141-53.9812L79.0841-53.9812C76.9641-53.9812 75.1141-55.4112 74.5841-57.4712C73.2941-62.4612 70.7941-67.0412 67.3041-70.8012C63.8041-74.5712 59.4341-77.4212 54.5741-79.0912C49.7041-80.7512 44.4941-81.1812 39.4241-80.3312C34.3541-79.4912 29.5641-77.4012 25.5041-74.2512C21.4341-71.1012 18.2241-67.0012 16.1341-62.3012C14.054-57.6012 13.164-52.4512 13.554-47.3312C13.964-42.1912 15.6141-37.2412 18.3941-32.9312C21.1841-28.5912 24.9941-25.0212 29.4841-22.5412C31.7341-21.3012 32.5441-18.4712 31.3041-16.2212C30.0541-13.9712 27.2241-13.1612 24.9841-14.4012C19.1441-17.6312 14.1941-22.2712 10.574-27.9012C6.96403-33.5112 4.80403-39.9412 4.28403-46.6212C3.77403-53.2712 4.92403-59.9612 7.63403-66.0712C10.344-72.1812 14.5241-77.5212 19.8141-81.6112C25.0941-85.7012 31.3041-88.4112 37.8941-89.5112Z"/>
  </g>
  <g id="Medium-M" transform="matrix(1 0 0 1 1689.41 1126)">
   <path class="hierarchical-0:primary SFSymbolsPreview212121" d="M58.4316-43.0788C59.7016-44.9888 62.2816-45.4988 64.1916-44.2288C66.0416-42.9988 66.5816-40.5388 65.4516-38.6588L65.3416-38.4788L51.7916-18.1588L70.8216-18.1588C74.0716-18.1588 76.0316-14.6088 74.3716-11.8688L74.2716-11.7088L56.4216 15.0712C55.1516 16.9812 52.5716 17.4912 50.6616 16.2212C48.8216 14.9912 48.2816 12.5412 49.4016 10.6512L49.5116 10.4712L63.0616-9.85888L44.0416-9.85888C40.7916-9.85888 38.8216-13.4088 40.4816-16.1488L40.5816-16.3088L58.4316-43.0788Z"/>
   <path class="hierarchical-1:secondary SFSymbolsPreview4D4D4D" d="M37.4816-89.0088C43.9916-90.0988 50.6616-89.5488 56.9216-87.4188C63.1616-85.2688 68.7716-81.6188 73.2516-76.7788C76.8616-72.8888 79.6516-68.3088 81.4616-63.3188L81.6616-62.7788L84.2016-62.7788C90.6016-62.7888 96.7816-60.4788 101.592-56.2888L101.962-55.9588C106.831-51.5588 109.891-45.5088 110.561-38.9688C111.211-32.4488 109.421-25.8988 105.531-20.6288C101.642-15.3488 95.9316-11.6988 89.4916-10.3889C87.2516-9.93888 85.0616-11.3888 84.6016-13.6288C84.1516-15.8788 85.6016-18.0688 87.8416-18.5288C92.2616-19.4188 96.1816-21.9188 98.8516-25.5488C101.522-29.1688 102.752-33.6688 102.302-38.1388C101.842-42.6288 99.7416-46.7788 96.3916-49.7988C93.1716-52.7188 88.9916-54.3788 84.6416-54.4788L84.2116-54.4788L78.5816-54.4788C76.6916-54.4788 75.0316-55.7588 74.5616-57.5888C73.2516-62.6688 70.7116-67.3188 67.1616-71.1388C63.6116-74.9688 59.1716-77.8688 54.2316-79.5588C49.2816-81.2488 43.9916-81.6788 38.8416-80.8288C33.6816-79.9688 28.8216-77.8488 24.7016-74.6488C20.5616-71.4488 17.2916-67.2788 15.1716-62.4988C13.0615-57.7188 12.1615-52.4888 12.5615-47.2888C12.9615-42.0688 14.6516-37.0388 17.4716-32.6588C20.3016-28.2488 24.1816-24.6188 28.7416-22.0988C30.7416-20.9888 31.4716-18.4688 30.3616-16.4588C29.2516-14.4588 26.7216-13.7288 24.7216-14.8388C18.9616-18.0288 14.0615-22.6088 10.4915-28.1688C6.92151-33.7088 4.80151-40.0588 4.28151-46.6488C3.78151-53.2188 4.91151-59.8288 7.58151-65.8588C10.2615-71.8988 14.4016-77.1688 19.6216-81.2088C24.8316-85.2488 30.9716-87.9288 37.4816-89.0088Z"/>
  </g>
  <g id="Regular-M" transform="matrix(1 0 0 1 1393.35 1126)">
   <path class="hierarchical-0:primary SFSymbolsPreview212121" d="M58.3322-42.6996C59.4022-44.3096 61.5722-44.7496 63.1822-43.6696C64.7322-42.6396 65.1922-40.5796 64.2622-38.9896L64.1522-38.8196L49.9322-17.4896L70.1722-17.4896C72.9022-17.4896 74.5622-14.5096 73.1722-12.1996L73.0822-12.0496L55.2322 14.7304C54.1622 16.3404 51.9822 16.7704 50.3822 15.7004C48.8222 14.6704 48.3622 12.6004 49.3022 11.0204L49.4122 10.8504L63.6322-10.4896L43.3922-10.4896C40.6522-10.4896 39.0022-13.4796 40.3822-15.7796L40.4822-15.9296L58.3322-42.6996Z"/>
   <path class="hierarchical-1:secondary SFSymbolsPreview4D4D4D" d="M36.9322-88.3496C43.3322-89.4196 49.9022-88.8796 56.0522-86.7796C62.1922-84.6696 67.7122-81.0796 72.1222-76.3196C75.8222-72.3396 78.6422-67.6296 80.4122-62.4896L80.5422-62.1096L83.5522-62.1096C89.7922-62.1196 95.8122-59.8696 100.502-55.7896L100.872-55.4596C105.622-51.1696 108.612-45.2696 109.262-38.8896C109.902-32.5196 108.152-26.1396 104.362-20.9996C100.562-15.8396 94.9922-12.2896 88.7122-11.0096C86.8222-10.6296 84.9722-11.8496 84.5922-13.7496C84.2022-15.6396 85.4322-17.4896 87.3222-17.8696C91.9022-18.7996 95.9622-21.3896 98.7222-25.1496C101.482-28.8996 102.762-33.5496 102.292-38.1896C101.822-42.8396 99.6521-47.1396 96.1822-50.2696C92.8322-53.2896 88.5022-55.0096 83.9922-55.1096L83.5622-55.1096L77.9322-55.1096C76.3322-55.1096 74.9422-56.1896 74.5422-57.7396C73.2022-62.9096 70.6122-67.6596 66.9922-71.5596C63.3722-75.4696 58.8322-78.4296 53.7922-80.1596C48.7422-81.8796 43.3422-82.3196 38.0822-81.4496C32.8222-80.5696 27.8622-78.4096 23.6522-75.1396C19.4322-71.8796 16.0922-67.6196 13.9322-62.7496C11.7722-57.8696 10.8522-52.5296 11.2622-47.2196C11.6722-41.8896 13.3922-36.7596 16.2722-32.2896C19.1622-27.7896 23.1222-24.0896 27.7722-21.5096C29.4622-20.5796 30.0722-18.4496 29.1422-16.7596C28.2022-15.0696 26.0722-14.4496 24.3822-15.3896C18.7122-18.5296 13.9022-23.0296 10.3822-28.4996C6.8823-33.9496 4.7823-40.1996 4.2823-46.6896C3.7823-53.1496 4.9023-59.6496 7.5323-65.5796C10.1622-71.5196 14.2322-76.7096 19.3622-80.6796C24.4922-84.6496 30.5322-87.2896 36.9322-88.3496Z"/>
  </g>
  <g id="Light-M" transform="matrix(1 0 0 1 1097.44 1126)">
   <path class="hierarchical-0:primary SFSymbolsPreview212121" d="M58.1898-42.2396C59.0198-43.4796 60.6898-43.8096 61.9298-42.9896C63.1298-42.1896 63.4798-40.6196 62.7798-39.3896L62.6798-39.2396L47.6298-16.6696L69.3698-16.6696C71.4698-16.6696 72.7398-14.3896 71.6998-12.6096L71.6098-12.4696L53.7598 14.3104C52.9398 15.5504 51.2598 15.8804 50.0198 15.0604C48.8298 14.2604 48.4698 12.6904 49.1798 11.4604L49.2698 11.3104L64.3198-11.2696L42.5898-11.2696C40.4898-11.2696 39.2098-13.5496 40.2498-15.3296L40.3398-15.4696L58.1898-42.2396Z"/>
   <path class="hierarchical-1:secondary SFSymbolsPreview4D4D4D" d="M36.2598-87.5396C42.5398-88.5896 48.9698-88.0596 54.9898-85.9996C61.0098-83.9396 66.4198-80.4196 70.7398-75.7596C74.4798-71.7296 77.2998-66.9296 79.0198-61.7096L79.1598-61.2896L82.7498-61.2896C88.7898-61.2996 94.6298-59.1196 99.1698-55.1696L99.5398-54.8496C104.14-50.6896 107.04-44.9696 107.66-38.7896C108.28-32.6196 106.59-26.4396 102.91-21.4496C99.2398-16.4596 93.8398-13.0096 87.7498-11.7696C86.2898-11.4796 84.8698-12.4196 84.5698-13.8796C84.2698-15.3496 85.2198-16.7696 86.6798-17.0696C91.4498-18.0296 95.6798-20.7396 98.5598-24.6496C101.45-28.5596 102.77-33.4096 102.29-38.2496C101.8-43.0896 99.5298-47.5796 95.9198-50.8396C92.4298-53.9996 87.9098-55.7896 83.2098-55.8896L82.7598-55.8896L77.1298-55.8896C75.8998-55.8896 74.8198-56.7196 74.5098-57.9196C73.1398-63.2196 70.4898-68.0896 66.7798-72.0896C63.0598-76.0896 58.4098-79.1196 53.2498-80.8996C48.0698-82.6596 42.5398-83.1096 37.1498-82.2196C31.7598-81.3196 26.6698-79.0996 22.3598-75.7596C18.0298-72.4096 14.6098-68.0496 12.3998-63.0496C10.1898-58.0496 9.23985-52.5796 9.65985-47.1396C10.0898-41.6796 11.8498-36.4196 14.7998-31.8296C17.7598-27.2296 21.8098-23.4296 26.5798-20.7896C27.8898-20.0696 28.3598-18.4296 27.6398-17.1196C26.9198-15.8196 25.2798-15.3496 23.9698-16.0696C18.4198-19.1396 13.6998-23.5596 10.2598-28.9096C6.81985-34.2496 4.76985-40.3696 4.27985-46.7296C3.78985-53.0596 4.88985-59.4196 7.45985-65.2396C10.0398-71.0596 14.0198-76.1296 19.0498-80.0196C24.0698-83.9196 29.9898-86.4996 36.2598-87.5396Z"/>
  </g>
  <g id="Thin-M" transform="matrix(1 0 0 1 801.776 1126)">
   <path class="hierarchical-0:primary SFSymbolsPreview212121" d="M58.019-41.6212C58.525-42.3712 59.549-42.5812 60.307-42.0712C61.021-41.6012 61.244-40.6612 60.846-39.9212L60.765-39.7812L44.625-15.5812L68.317-15.5812C69.589-15.5812 70.366-14.2112 69.76-13.1312L69.69-13.0112L51.84 13.7688C51.334 14.5188 50.31 14.7288 49.552 14.2188C48.838 13.7488 48.614 12.8088 49.012 12.0688L49.094 11.9388L65.234-12.2812L41.542-12.2812C40.269-12.2812 39.493-13.6512 40.099-14.7312L40.169-14.8512L58.019-41.6212Z"/>
   <path class="hierarchical-1:secondary SFSymbolsPreview4D4D4D" d="M35.391-86.4712C41.493-87.4812 47.751-86.9712 53.603-84.9712C59.46-82.9612 64.722-79.5412 68.919-75.0012C72.701-70.9312 75.518-66.0512 77.171-60.7512L77.335-60.2012L81.701-60.2012C87.483-60.2112 93.067-58.1312 97.428-54.3412L97.789-54.0212C102.2-50.0412 104.971-44.5612 105.568-38.6512C106.165-32.7412 104.543-26.8112 101.02-22.0312C97.498-17.2512 92.323-13.9512 86.495-12.7612C85.602-12.5812 84.732-13.1612 84.55-14.0512C84.369-14.9512 84.946-15.8212 85.839-16.0012C90.865-17.0212 95.326-19.8612 98.364-23.9912C101.401-28.1112 102.8-33.2212 102.285-38.3112C101.77-43.4212 99.38-48.1412 95.576-51.5812C91.888-54.9112 87.128-56.7912 82.17-56.9012L81.704-56.9012L76.081-56.9012C75.329-56.9012 74.672-57.4112 74.484-58.1412C73.074-63.6012 70.329-68.6312 66.498-72.7612C62.671-76.8912 57.874-80.0212 52.534-81.8512C47.202-83.6712 41.496-84.1412 35.932-83.2112C30.367-82.2912 25.122-80.0012 20.666-76.5512C16.205-73.0912 12.677-68.5912 10.391-63.4312C8.105-58.2812 7.134-52.6412 7.567-47.0212C7.999-41.4012 9.82-35.9712 12.867-31.2212C15.919-26.4812 20.1-22.5612 25.026-19.8312C25.823-19.3912 26.112-18.3912 25.671-17.5912C25.23-16.7912 24.226-16.5112 23.429-16.9512C18.024-19.9312 13.438-24.2312 10.091-29.4412C6.748-34.6512 4.75-40.6012 4.276-46.7612C3.802-52.9312 4.867-59.1212 7.374-64.7712C9.881-70.4312 13.752-75.3712 18.645-79.1512C23.533-82.9412 29.287-85.4512 35.391-86.4712Z"/>
  </g>
  <g id="Ultralight-M" transform="matrix(1 0 0 1 505.614 1126)">
   <path class="hierarchical-0:primary SFSymbolsPreview212121" d="M57.9258-41.303C58.2628-41.813 58.9458-41.953 59.4508-41.613C59.9198-41.303 60.0718-40.683 59.8208-40.193L59.7558-40.083L43.0468-15.023L67.7658-15.023C68.6058-15.023 69.1218-14.133 68.7388-13.413L68.6808-13.313L50.8308 13.467C50.4938 13.967 49.8108 14.107 49.3058 13.767C48.8358 13.457 48.6848 12.847 48.9348 12.357L48.9998 12.247L65.7098-12.823L40.9908-12.823C40.1498-12.823 39.6338-13.723 40.0178-14.443L40.0758-14.533L57.9258-41.303Z"/>
   <path class="hierarchical-1:secondary SFSymbolsPreview4D4D4D" d="M34.9308-85.923C40.9428-86.923 47.1098-86.413 52.8738-84.443C58.6458-82.463 63.8298-79.093 67.9658-74.623C71.8298-70.463 74.6718-65.453 76.2718-59.993L76.3708-59.643L81.1518-59.643C86.7958-59.653 92.2478-57.623 96.5078-53.933L96.8698-53.613C101.18-49.723 103.888-44.363 104.471-38.583C105.054-32.813 103.469-27.023 100.027-22.353C96.5858-17.683 91.5298-14.453 85.8358-13.303C85.2408-13.173 84.6598-13.563 84.5388-14.153C84.4178-14.753 84.8028-15.333 85.3988-15.453C90.5578-16.503 95.1378-19.423 98.2558-23.663C101.375-27.883 102.811-33.133 102.282-38.363C101.753-43.603 99.2998-48.453 95.3948-51.983C91.6048-55.403 86.7128-57.343 81.6178-57.443L81.1538-57.443L75.5308-57.443C75.0298-57.443 74.5908-57.783 74.4658-58.273C73.0328-63.823 70.2448-68.933 66.3518-73.133C62.4628-77.333 57.5878-80.503 52.1618-82.363C46.7428-84.213 40.9448-84.693 35.2918-83.753C29.6368-82.813 24.3068-80.483 19.7788-76.973C15.2458-73.463 11.6607-68.893 9.33773-63.653C7.01573-58.423 6.02873-52.683 6.46773-46.973C6.90673-41.263 8.75773-35.743 11.8547-30.923C14.9548-26.093 19.2038-22.113 24.2098-19.353C24.7408-19.053 24.9338-18.383 24.6398-17.853C24.3458-17.323 23.6768-17.133 23.1448-17.423C17.8198-20.373 13.3007-24.603 10.0027-29.733C6.70973-34.863 4.74073-40.733 4.27473-46.803C3.80673-52.873 4.85673-58.973 7.32673-64.543C9.79673-70.113 13.6107-74.983 18.4318-78.713C23.2478-82.443 28.9168-84.923 34.9308-85.923Z"/>
  </g>
  <g id="Black-S" transform="matrix(1 0 0 1 2883.9 696)">
   <path class="hierarchical-0:primary SFSymbolsPreview212121" d="M47.3773-43.7258C49.5473-46.9888 53.9573-47.8698 57.2273-45.6948C60.4173-43.5678 61.3273-39.3028 59.3273-36.0638L59.1873-35.8488L52.5473-25.8888L60.2873-25.8878C65.8773-25.8878 69.2373-19.7448 66.3173-15.0498L66.1873-14.8488L52.1873 6.15112C50.0173 9.41312 45.6073 10.2952 42.3473 8.12012C39.1573 5.99212 38.2373 1.72712 40.2373-1.51188L40.3773-1.72588L47.0173-11.6888L39.2873-11.6878C33.6973-11.6878 30.3273-17.8308 33.2473-22.5258L33.3773-22.7258L47.3773-43.7258Z"/>
   <path class="hierarchical-1:secondary SFSymbolsPreview4D4D4D" d="M33.5073-81.4098C39.2373-82.3618 45.1173-81.8768 50.6173-79.9968C56.1173-78.1158 61.0673-74.8998 65.0073-70.6418C67.5973-67.8498 69.7073-64.6648 71.2673-61.2138L71.4073-60.8788L71.7373-60.8688C77.3373-60.6568 82.6973-58.5398 86.9373-54.8618L87.2973-54.5428C91.8173-50.4568 94.6573-44.8348 95.2773-38.7658C95.8973-32.6988 94.2273-26.6168 90.6073-21.6898C86.9873-16.7828 81.6673-13.3928 75.6973-12.1788C71.8573-11.3978 68.1073-13.8798 67.3273-17.7218C66.5573-21.4848 68.9273-25.1568 72.6273-26.0418L72.8673-26.0938C75.3973-26.6078 77.6473-28.0438 79.1773-30.1148C80.7073-32.1978 81.4073-34.7688 81.1473-37.3258C80.8873-39.9008 79.6873-42.2798 77.7773-44.0058C75.9473-45.6588 73.5873-46.6048 71.1173-46.6818L70.7873-46.6868L66.3773-46.6868C63.2273-46.6868 60.4673-48.7598 59.5673-51.7588L59.4973-52.0108C58.6373-55.3708 56.9473-58.4488 54.5973-60.9858C52.2373-63.5278 49.2973-65.4408 46.0273-66.5598C42.7473-67.6798 39.2473-67.9688 35.8373-67.4018C32.4173-66.8348 29.2073-65.4298 26.4673-63.3058C23.7373-61.1908 21.5673-58.4268 20.1673-55.2598C18.7573-52.0948 18.1673-48.6288 18.4273-45.1898C18.6873-41.7368 19.8173-38.4008 21.6773-35.4938C23.4673-32.7128 25.8773-30.4028 28.7173-28.7428L29.1373-28.4988C32.5773-26.6008 33.8173-22.2808 31.9173-18.8498C30.0173-15.4188 25.6973-14.1758 22.2673-16.0738C17.1873-18.8858 12.8773-22.9168 9.72727-27.8208C6.59727-32.7098 4.71727-38.2988 4.26727-44.1028C3.82727-49.8958 4.82727-55.7078 7.18727-61.0178C9.54727-66.3348 13.1873-70.9808 17.7773-74.5318C22.3673-78.0938 27.7773-80.4578 33.5073-81.4098Z"/>
  </g>
  <g id="Heavy-S" transform="matrix(1 0 0 1 2588.03 696)">
   <path class="hierarchical-0:primary SFSymbolsPreview212121" d="M47.2349-43.2298C49.1449-46.1018 53.0349-46.8778 55.9049-44.9638C58.7049-43.0938 59.5149-39.3478 57.7649-36.4978L57.6349-36.2958L50.1149-25.0138L59.4349-25.0128C64.3549-25.0128 67.3149-19.6198 64.7549-15.4888L64.6349-15.2958L50.6349 5.7043C48.7249 8.5763 44.8449 9.3523 41.9649 7.4373C39.1649 5.5673 38.3549 1.8213 40.1049-1.0277L40.2349-1.2297L47.7549-12.5138L38.4349-12.5128C33.5249-12.5128 30.5549-17.9068 33.1149-22.0378L33.2349-22.2298L47.2349-43.2298Z"/>
   <path class="hierarchical-1:secondary SFSymbolsPreview4D4D4D" d="M32.7949-80.5468C38.3849-81.4758 44.1249-81.0028 49.4949-79.1678C54.8649-77.3318 59.6949-74.1918 63.5449-70.0318C66.2049-67.1638 68.3349-63.8708 69.8749-60.3008L69.9949-60.0118L70.4049-60.0078C75.9649-59.9028 81.3149-57.8478 85.5149-54.2038L85.8749-53.8878C90.2349-49.9428 92.9849-44.5148 93.5849-38.6548C94.1749-32.7988 92.5649-26.9258 89.0749-22.1798C85.5849-17.4348 80.4549-14.1588 74.6749-12.9868C71.2949-12.3008 67.9949-14.4868 67.3049-17.8698C66.6349-21.1778 68.7149-24.4048 71.9649-25.1878L72.1949-25.2378C74.9249-25.7928 77.3549-27.3428 79.0049-29.5858C80.6649-31.8388 81.4249-34.6208 81.1449-37.3878C80.8649-40.1708 79.5649-42.7448 77.4949-44.6128C75.5149-46.4028 72.9549-47.4278 70.2849-47.5068L69.9349-47.5118L65.5249-47.5118C62.6749-47.5118 60.1849-49.4398 59.4749-52.1988C58.5649-55.6928 56.8149-58.9008 54.3749-61.5388C51.9349-64.1788 48.8649-66.1728 45.4549-67.3398C42.0449-68.5048 38.3949-68.8058 34.8449-68.2158C31.2949-67.6248 27.9449-66.1598 25.0949-63.9538C22.2549-61.7518 19.9949-58.8758 18.5349-55.5798C17.0749-52.2868 16.4549-48.6808 16.7249-45.0988C17.0049-41.5058 18.1649-38.0358 20.1049-35.0088C21.9649-32.1168 24.4949-29.7038 27.4549-27.9708L27.8849-27.7278C30.9049-26.0538 31.9949-22.2498 30.3149-19.2308C28.6449-16.2118 24.8449-15.1218 21.8249-16.7958C16.8649-19.5438 12.6648-23.4798 9.59482-28.2548C6.53482-33.0258 4.70482-38.4798 4.26482-44.1418C3.83482-49.7958 4.81482-55.4668 7.11482-60.6488C9.41482-65.8368 12.9648-70.3698 17.4449-73.8358C21.9149-77.3078 27.2049-79.6158 32.7949-80.5468Z"/>
  </g>
  <g id="Bold-S" transform="matrix(1 0 0 1 2292.27 696)">
   <path class="hierarchical-0:primary SFSymbolsPreview212121" d="M47.077-42.4708C48.697-44.9068 51.987-45.5648 54.427-43.9408C56.787-42.3608 57.477-39.2028 56.017-36.7908L55.897-36.5908L47.387-23.8318L58.487-23.8308C62.647-23.8308 65.157-19.2718 63.007-15.7708L62.897-15.5908L48.897 5.40916C47.267 7.84416 43.977 8.50216 41.547 6.87916C39.177 5.29916 38.487 2.14116 39.947-0.27185L40.077-0.47085L48.577-13.2318L37.487-13.2308C33.317-13.2308 30.807-17.7898 32.957-21.2908L33.077-21.4708L47.077-42.4708Z"/>
   <path class="hierarchical-1:secondary SFSymbolsPreview4D4D4D" d="M32.007-79.3778C37.447-80.2808 43.027-79.8208 48.247-78.0358C53.467-76.2488 58.157-73.1958 61.907-69.1538C64.577-66.2628 66.717-62.9298 68.217-59.3158L68.417-58.8308L68.987-58.8298C74.477-58.8358 79.777-56.8598 83.927-53.2718L84.287-52.9508C88.487-49.1568 91.127-43.9388 91.687-38.3258C92.257-32.6948 90.717-27.0548 87.367-22.5108C84.017-17.9578 79.087-14.8118 73.547-13.6858C70.677-13.1028 67.887-14.9558 67.297-17.8238C66.727-20.6208 68.477-23.3508 71.227-24.0258L71.437-24.0738C74.397-24.6758 77.037-26.3578 78.827-28.7988C80.627-31.2298 81.447-34.2408 81.137-37.2638C80.837-40.2648 79.427-43.0538 77.177-45.0848C75.027-47.0318 72.257-48.1418 69.357-48.2248L68.997-48.2298L64.587-48.2298C62.167-48.2298 60.057-49.8648 59.447-52.2038C58.517-55.8408 56.677-59.1908 54.127-61.9518C51.577-64.7068 48.367-66.7898 44.817-68.0068C41.257-69.2228 37.457-69.5368 33.747-68.9208C30.037-68.3038 26.547-66.7768 23.567-64.4728C20.597-62.1748 18.247-59.1728 16.717-55.7328C15.197-52.2938 14.547-48.5348 14.837-44.7808C15.117-41.0398 16.337-37.4258 18.377-34.2548C20.307-31.2358 22.947-28.7178 26.057-26.9098L26.477-26.6678C29.037-25.2508 29.967-22.0258 28.547-19.4638C27.137-16.9028 23.907-15.9748 21.347-17.3918C16.517-20.0658 12.427-23.8958 9.45698-28.5268C6.46698-33.1708 4.68698-38.4808 4.26698-43.9698C3.83698-49.4668 4.78698-54.9858 7.02698-60.0308C9.26698-65.0758 12.717-69.4828 17.077-72.8568C21.447-76.2318 26.567-78.4718 32.007-79.3778Z"/>
  </g>
  <g id="Semibold-S" transform="matrix(1 0 0 1 1996.21 696)">
   <path class="hierarchical-0:primary SFSymbolsPreview212121" d="M46.9706-42.095C48.3906-44.232 51.2806-44.809 53.4206-43.385C55.4906-42.004 56.0906-39.247 54.8306-37.133L54.7106-36.936L45.5306-23.167L57.8406-23.166C61.4906-23.166 63.6906-19.173 61.8106-16.103L61.7106-15.936L47.7106 5.06404C46.2806 7.20004 43.4006 7.77804 41.2606 6.35304C39.1906 4.97204 38.5806 2.21504 39.8406 0.10104L39.9706-0.0949603L49.1506-13.867L36.8406-13.866C33.1906-13.866 30.9906-17.859 32.8606-20.929L32.9706-21.095L46.9706-42.095Z"/>
   <path class="hierarchical-1:secondary SFSymbolsPreview4D4D4D" d="M31.4706-78.721C36.8006-79.607 42.2606-79.155 47.3806-77.406C52.5006-75.657 57.1006-72.666 60.7706-68.697C63.5306-65.72 65.7006-62.266 67.1806-58.517L67.3206-58.165L68.3306-58.165C73.6706-58.171 78.8306-56.249 82.8506-52.764L83.2106-52.453C87.2806-48.774 89.8406-43.711 90.4006-38.234C90.9406-32.77 89.4406-27.299 86.1906-22.873C82.9306-18.453 78.1406-15.401 72.7706-14.308C70.2506-13.796 67.7906-15.422 67.2806-17.938C66.7806-20.385 68.3106-22.773 70.7006-23.374L70.9106-23.421C74.0306-24.056 76.8106-25.829 78.7006-28.391C80.5906-30.955 81.4606-34.135 81.1406-37.302C80.8206-40.48 79.3306-43.419 76.9706-45.552C74.7006-47.604 71.7706-48.776 68.7106-48.86L68.3406-48.865L63.9306-48.865C61.8106-48.865 59.9606-50.299 59.4306-52.351C58.4606-56.092 56.5806-59.538 53.9506-62.378C51.3206-65.218 48.0306-67.356 44.3806-68.606C40.7106-69.857 36.8006-70.18 32.9906-69.546C29.1706-68.912 25.5806-67.342 22.5206-64.975C19.4606-62.603 17.0306-59.509 15.4706-55.981C13.9105-52.457 13.2405-48.587 13.5305-44.727C13.8405-40.871 15.0906-37.146 17.1706-33.896C19.1806-30.777 21.8806-28.188 25.0706-26.332L25.5106-26.083C27.7606-24.84 28.5706-22.011 27.3306-19.764C26.0806-17.516 23.2606-16.702 21.0106-17.946C16.2806-20.561 12.2805-24.311 9.34052-28.871C6.43052-33.419 4.68052-38.619 4.26052-44.015C3.85052-49.413 4.78052-54.82 6.97052-59.752C9.16052-64.687 12.5505-69.01 16.8206-72.327C21.1006-75.639 26.1306-77.834 31.4706-78.721Z"/>
  </g>
  <g id="Medium-S" transform="matrix(1 0 0 1 1700 696)">
   <path class="hierarchical-0:primary SFSymbolsPreview212121" d="M46.8879-41.8042C48.1579-43.7112 50.7379-44.2262 52.6379-42.9552C54.4879-41.7232 55.0279-39.2672 53.9079-37.3812L53.7879-37.2002L44.0879-22.6532L57.3379-22.6522C60.5879-22.6522 62.5579-19.0992 60.8979-16.3602L60.7879-16.2002L46.7879 4.79982C45.5179 6.70682 42.9479 7.22182 41.0379 5.95082C39.1879 4.71882 38.6479 2.26282 39.7679 0.376816L39.8879 0.195816L49.5879-14.3532L36.3379-14.3522C33.0879-14.3522 31.1279-17.9052 32.7879-20.6442L32.8879-20.8042L46.8879-41.8042Z"/>
   <path class="hierarchical-1:secondary SFSymbolsPreview4D4D4D" d="M31.0479-78.2132C36.2979-79.0862 41.6779-78.6422 46.7179-76.9192C51.7579-75.1972 56.2779-72.2522 59.8979-68.3432C62.7479-65.2722 64.9579-61.6862 66.4179-57.7902L66.4679-57.6512L67.8279-57.6512C73.0479-57.6572 78.0779-55.7822 82.0179-52.3812L82.3679-52.0682C86.3479-48.4722 88.8479-43.5242 89.3979-38.1712C89.9279-32.8292 88.4679-27.4812 85.2879-23.1562C82.0979-18.8362 77.4179-15.8522 72.1679-14.7842C69.9179-14.3272 67.7279-15.7782 67.2679-18.0242C66.8279-20.2022 68.1779-22.3282 70.3079-22.8712L70.5079-22.9172C73.7479-23.5762 76.6379-25.4182 78.6079-28.0802C80.5679-30.7452 81.4679-34.0472 81.1379-37.3392C80.7979-40.6392 79.2579-43.6922 76.8079-45.9092C74.4479-48.0412 71.3979-49.2582 68.2179-49.3462L67.8379-49.3512L63.4279-49.3512C61.5379-49.3512 59.8779-50.6302 59.4079-52.4622C58.4179-56.2832 56.4979-59.8032 53.8079-62.7042C51.1279-65.6042 47.7679-67.7882 44.0379-69.0652C40.2979-70.3432 36.2979-70.6732 32.4079-70.0262C28.5079-69.3782 24.8379-67.7742 21.7079-65.3562C18.5879-62.9332 16.1079-59.7732 14.5079-56.1702C12.918-52.5702 12.238-48.6182 12.538-44.6742C12.838-40.7362 14.118-36.9322 16.2479-33.6112C18.3879-30.2812 21.3079-27.5422 24.7679-25.6322C26.7679-24.5222 27.4979-21.9972 26.3879-19.9922C25.2779-17.9862 22.7579-17.2602 20.7479-18.3692C16.0879-20.9452 12.148-24.6372 9.25797-29.1262C6.38797-33.6062 4.66797-38.7272 4.25797-44.0382C3.85797-49.3552 4.76797-54.6792 6.92797-59.5352C9.07797-64.3952 12.418-68.6512 16.6279-71.9182C20.8379-75.1792 25.7879-77.3402 31.0479-78.2132Z"/>
  </g>
  <g id="Regular-S" transform="matrix(1 0 0 1 1403.94 696)">
   <path class="hierarchical-0:primary SFSymbolsPreview212121" d="M46.7787-41.4238C47.8487-43.0318 50.0187-43.4668 51.6287-42.3948C53.1787-41.3598 53.6387-39.2978 52.7087-37.7098L52.5987-37.5408L42.2287-21.9838L56.6887-21.9828C59.4187-21.9828 61.0787-18.9978 59.6887-16.6908L59.5987-16.5408L45.5987 4.4593C44.5287 6.0673 42.3487 6.5023 40.7487 5.4303C39.1887 4.3943 38.7387 2.3333 39.6687 0.744299L39.7787 0.576299L50.1487-14.9838L35.6887-14.9828C32.9487-14.9828 31.2987-17.9668 32.6787-20.2748L32.7787-20.4238L46.7787-41.4238Z"/>
   <path class="hierarchical-1:secondary SFSymbolsPreview4D4D4D" d="M30.4987-77.5528C35.6487-78.4078 40.9187-77.9718 45.8587-76.2848C50.7987-74.5968 55.2287-71.7118 58.7787-67.8818C61.5487-64.8858 63.7087-61.3898 65.1387-57.5918L65.3587-56.9818L67.1787-56.9808C72.2287-56.9868 77.1087-55.1718 80.9287-51.8788L81.2787-51.5658C85.1387-48.0778 87.5687-43.2778 88.0987-38.0868C88.6187-32.9048 87.1987-27.7178 84.1087-23.5228C81.0187-19.3318 76.4787-16.4378 71.3787-15.4008C69.4887-15.0158 67.6387-16.2398 67.2587-18.1338C66.8687-20.0278 68.0987-21.8758 69.9887-22.2608C73.3887-22.9518 76.4187-24.8828 78.4787-27.6758C80.5287-30.4698 81.4787-33.9318 81.1387-37.3848C80.7787-40.8458 79.1587-44.0468 76.5887-46.3718C74.1087-48.6118 70.9087-49.8878 67.5687-49.9758L67.1887-49.9808L62.7787-49.9808C61.1787-49.9808 59.7887-51.0608 59.3887-52.6058C58.3687-56.5308 56.3987-60.1468 53.6387-63.1258C50.8787-66.1058 47.4287-68.3488 43.5987-69.6608C39.7487-70.9738 35.6487-71.3128 31.6487-70.6478C27.6487-69.9818 23.8687-68.3348 20.6587-65.8508C17.4487-63.3618 14.9087-60.1158 13.2688-56.4138C11.6288-52.7158 10.9288-48.6558 11.2388-44.6038C11.5488-40.5588 12.8588-36.6518 15.0487-33.2398C17.2487-29.8198 20.2487-27.0058 23.7987-25.0438C25.4887-24.1078 26.1087-21.9778 25.1687-20.2868C24.2287-18.5958 22.0987-17.9828 20.4087-18.9188C15.8487-21.4418 11.9888-25.0598 9.15879-29.4578C6.34879-33.8468 4.65879-38.8648 4.25879-44.0678C3.85879-49.2778 4.75879-54.4938 6.86879-59.2518C8.97879-64.0138 12.2488-68.1838 16.3787-71.3848C20.5087-74.5788 25.3587-76.6968 30.4987-77.5528Z"/>
  </g>
  <g id="Light-S" transform="matrix(1 0 0 1 1108.03 696)">
   <path class="hierarchical-0:primary SFSymbolsPreview212121" d="M50.3864-41.706C51.6264-40.879 51.9564-39.203 51.1364-37.962L39.9264-21.16L55.8864-21.16C56.8864-21.16 57.7964-20.612 58.2664-19.734C58.7364-18.856 58.6864-17.791 58.1364-16.962L44.1364 4.03808C43.3064 5.27808 41.6264 5.61408 40.3864 4.78708C39.1464 3.95908 38.8164 2.28308 39.6364 1.04208L50.8364-15.76L34.8864-15.76C33.8864-15.76 32.9764-16.308 32.5064-17.186C32.0364-18.064 32.0864-19.129 32.6364-19.958L46.6364-40.958C47.4664-42.198 49.1464-42.534 50.3864-41.706Z"/>
   <path class="hierarchical-1:secondary SFSymbolsPreview4D4D4D" d="M29.8264-76.744C34.8464-77.578 39.9864-77.154 44.7964-75.509C49.6064-73.864 53.9364-71.05 57.3864-67.32C60.3664-64.107 62.6164-60.301 63.9964-56.163L66.3864-56.163C71.3964-56.167 76.2264-54.311 79.9464-50.954C83.6564-47.596 85.9964-42.977 86.4964-37.993C87.0064-33.009 85.6364-28.015 82.6664-23.982C79.6964-19.949 75.3364-17.163 70.4264-16.167C68.9664-15.87 67.5364-16.814 67.2364-18.275C66.9464-19.737 67.8864-21.162 69.3464-21.459C72.9464-22.189 76.1464-24.23 78.3164-27.185C80.4964-30.14 81.4964-33.798 81.1264-37.45C80.7564-41.102 79.0464-44.486 76.3264-46.946C73.5964-49.406 70.0564-50.766 66.3864-50.763L61.9764-50.763C60.7464-50.763 59.6664-51.595 59.3664-52.787C58.3164-56.844 56.2764-60.577 53.4264-63.651C50.5864-66.725 47.0164-69.043 43.0564-70.399C39.0864-71.755 34.8464-72.105 30.7164-71.418C26.5864-70.73 22.6864-69.028 19.3764-66.462C16.0564-63.897 13.4363-60.549 11.7363-56.719C10.0363-52.89 9.3163-48.698 9.6363-44.521C9.9563-40.343 11.3163-36.311 13.5763-32.786C15.8464-29.261 18.9464-26.354 22.6164-24.325C23.9164-23.603 24.3864-21.96 23.6664-20.655C22.9464-19.35 21.3064-18.878 19.9964-19.6C15.5464-22.062 11.7863-25.59 9.0363-29.868C6.2863-34.145 4.6463-39.038 4.2563-44.107C3.8663-49.175 4.7463-54.262 6.8063-58.909C8.8663-63.556 12.0463-67.618 16.0664-70.732C20.0864-73.845 24.8164-75.911 29.8264-76.744Z"/>
  </g>
  <g id="Thin-S" transform="matrix(1 0 0 1 812.368 696)">
   <path class="hierarchical-0:primary SFSymbolsPreview212121" d="M46.4656-40.3494C46.9706-41.1084 47.9956-41.3134 48.7536-40.8074C49.4666-40.3314 49.6906-39.3964 49.2926-38.6554L49.2106-38.5194L36.9216-20.0854L54.8386-20.0844C56.1106-20.0844 56.8876-18.7154 56.2816-17.6344L56.2106-17.5194L42.2106 3.48066C41.7056 4.23866 40.6806 4.44366 39.9226 3.93866C39.2096 3.46266 38.9856 2.52766 39.3836 1.78666L39.4656 1.65066L51.7546-16.7854L33.8386-16.7844C32.5656-16.7844 31.7886-18.1534 32.3946-19.2354L32.4656-19.3494L46.4656-40.3494Z"/>
   <path class="hierarchical-1:secondary SFSymbolsPreview4D4D4D" d="M28.9526-75.6874C33.7966-76.4924 38.7636-76.0824 43.4106-74.4934C48.0566-72.9044 52.2346-70.1864 55.5696-66.5854C58.5216-63.3984 60.7316-59.6074 62.0526-55.4834L62.1736-55.0914L65.3346-55.0904C69.9346-55.0964 74.3776-53.4444 77.8556-50.4464L78.1886-50.1524C81.7136-46.9704 83.9296-42.5914 84.4066-37.8654C84.8846-33.1404 83.5886-28.4064 80.7716-24.5834C77.9556-20.7594 73.8186-18.1194 69.1646-17.1734C68.2716-16.9924 67.4006-17.5694 67.2196-18.4624C67.0376-19.3554 67.6146-20.2264 68.5076-20.4074C72.3596-21.1904 75.7836-23.3754 78.1146-26.5404C80.4466-29.7054 81.5186-33.6234 81.1236-37.5344C80.7286-41.4454 78.8946-45.0694 75.9776-47.7034C73.1606-50.2474 69.5286-51.6934 65.7426-51.7864L65.3366-51.7904L60.9266-51.7904C60.1736-51.7904 59.5166-52.2994 59.3286-53.0284C58.2366-57.2544 56.1136-61.1414 53.1486-64.3424C50.1846-67.5434 46.4716-69.9584 42.3426-71.3714C38.2136-72.7834 33.7986-73.1474 29.4946-72.4324C25.1896-71.7154 21.1306-69.9424 17.6806-67.2714C14.2306-64.5984 11.4987-61.1124 9.72966-57.1234C7.95966-53.1334 7.20866-48.7674 7.54366-44.4184C7.87766-40.0684 9.28766-35.8694 11.6457-32.1974C14.0037-28.5264 17.2366-25.4984 21.0556-23.3844C21.8526-22.9434 22.1416-21.9384 21.6996-21.1414C21.2586-20.3444 20.2546-20.0554 19.4576-20.4974C15.1606-22.8764 11.5217-26.2834 8.86966-30.4144C6.21566-34.5454 4.62966-39.2704 4.25366-44.1654C3.87666-49.0594 4.72166-53.9714 6.71366-58.4614C8.70366-62.9494 11.7777-66.8724 15.6606-69.8804C19.5416-72.8864 24.1086-74.8814 28.9526-75.6874Z"/>
  </g>
  <g id="Ultralight-S" transform="matrix(1 0 0 1 516.207 696)">
   <path class="hierarchical-0:primary SFSymbolsPreview212121" d="M47.896-40.3346C48.401-39.9976 48.538-39.3146 48.201-38.8086L35.341-19.5186L54.285-19.5186C54.691-19.5186 55.064-19.2956 55.255-18.9376C55.447-18.5806 55.426-18.1466 55.201-17.8086L41.201 3.1914C40.864 3.6964 40.181 3.8334 39.675 3.4964C39.17 3.1594 39.033 2.4764 39.37 1.9704L52.23-17.3186L33.285-17.3186C32.88-17.3186 32.507-17.5426 32.316-17.8996C32.124-18.2576 32.145-18.6916 32.37-19.0296L46.37-40.0296C46.707-40.5346 47.39-40.6716 47.896-40.3346Z"/>
   <path class="hierarchical-1:secondary SFSymbolsPreview4D4D4D" d="M28.493-75.1256C33.247-75.9156 38.122-75.5126 42.683-73.9536C47.243-72.3936 51.343-69.7266 54.617-66.1916C57.639-62.9286 59.87-59.0196 61.143-54.7666L61.214-54.5226L64.785-54.5216C69.248-54.5266 73.559-52.9256 76.936-50.0206L77.271-49.7256C80.694-46.6336 82.847-42.3806 83.31-37.7906C83.773-33.2016 82.515-28.6036 79.779-24.8896C77.043-21.1766 73.026-18.6116 68.506-17.6936C67.91-17.5726 67.33-17.9566 67.209-18.5526C67.088-19.1476 67.472-19.7286 68.068-19.8496C72.053-20.6586 75.596-22.9206 78.008-26.1946C80.42-29.4686 81.53-33.5236 81.121-37.5696C80.713-41.6166 78.815-45.3666 75.796-48.0926C72.881-50.7246 69.123-52.2206 65.207-52.3166L64.787-52.3216L60.377-52.3216C59.875-52.3216 59.437-52.6606 59.312-53.1456C58.197-57.4606 56.029-61.4286 53.002-64.6966C49.977-67.9646 46.186-70.4306 41.971-71.8726C37.755-73.3136 33.249-73.6856 28.854-72.9556C24.459-72.2236 20.316-70.4136 16.794-67.6866C13.272-64.9586 10.483-61.3986 8.67699-57.3276C6.86999-53.2536 6.10299-48.7966 6.44499-44.3566C6.78599-39.9156 8.22499-35.6286 10.633-31.8806C13.041-28.1336 16.342-25.0416 20.239-22.8836C20.771-22.5896 20.963-21.9196 20.669-21.3886C20.375-20.8566 19.705-20.6646 19.174-20.9586C14.957-23.2936 11.386-26.6376 8.78199-30.6916C6.17699-34.7466 4.62099-39.3836 4.25199-44.1876C3.88199-48.9916 4.71199-53.8126 6.66599-58.2196C8.61999-62.6236 11.637-66.4746 15.447-69.4256C19.257-72.3766 23.739-74.3346 28.493-75.1256Z"/>
  </g>
 </g>
</svg>
