<?xml version="1.0" encoding="UTF-8"?>
<!--Generator: Apple Native CoreSVG 175-->
<!DOCTYPE svg
PUBLIC "-//W3C//DTD SVG 1.1//EN"
       "http://www.w3.org/Graphics/SVG/1.1/DTD/svg11.dtd">
<svg version="1.1" xmlns="http://www.w3.org/2000/svg" xmlns:xlink="http://www.w3.org/1999/xlink" width="3300" height="2200">
 <!--glyph: "", point size: 100.0, font version: "17.0d12e1", template writer version: "65.1"-->
 <style>.hierarchical-0:secondary {fill:#4D4D4D}
.hierarchical-1:primary {fill:#212121}

.SFSymbolsPreview212121 {fill:#212121;opacity:1.0}
.SFSymbolsPreview4D4D4D {fill:#4D4D4D;opacity:1.0}
</style>
 <g id="Notes">
  <rect height="2200" id="artboard" style="fill:white;opacity:1" width="3300" x="0" y="0"/>
  <line style="fill:none;stroke:black;opacity:1;stroke-width:0.5;" x1="263" x2="3036" y1="292" y2="292"/>
  <text style="stroke:none;fill:black;font-family:sans-serif;font-size:13;font-weight:bold;" transform="matrix(1 0 0 1 263 322)">Weight/Scale Variations</text>
  <text style="stroke:none;fill:black;font-family:sans-serif;font-size:13;text-anchor:middle;" transform="matrix(1 0 0 1 559.711 322)">Ultralight</text>
  <text style="stroke:none;fill:black;font-family:sans-serif;font-size:13;text-anchor:middle;" transform="matrix(1 0 0 1 856.422 322)">Thin</text>
  <text style="stroke:none;fill:black;font-family:sans-serif;font-size:13;text-anchor:middle;" transform="matrix(1 0 0 1 1153.13 322)">Light</text>
  <text style="stroke:none;fill:black;font-family:sans-serif;font-size:13;text-anchor:middle;" transform="matrix(1 0 0 1 1449.84 322)">Regular</text>
  <text style="stroke:none;fill:black;font-family:sans-serif;font-size:13;text-anchor:middle;" transform="matrix(1 0 0 1 1746.56 322)">Medium</text>
  <text style="stroke:none;fill:black;font-family:sans-serif;font-size:13;text-anchor:middle;" transform="matrix(1 0 0 1 2043.27 322)">Semibold</text>
  <text style="stroke:none;fill:black;font-family:sans-serif;font-size:13;text-anchor:middle;" transform="matrix(1 0 0 1 2339.98 322)">Bold</text>
  <text style="stroke:none;fill:black;font-family:sans-serif;font-size:13;text-anchor:middle;" transform="matrix(1 0 0 1 2636.69 322)">Heavy</text>
  <text style="stroke:none;fill:black;font-family:sans-serif;font-size:13;text-anchor:middle;" transform="matrix(1 0 0 1 2933.4 322)">Black</text>
  <line style="fill:none;stroke:black;opacity:1;stroke-width:0.5;" x1="263" x2="3036" y1="1903" y2="1903"/>
  <g transform="matrix(1 0 0 1 263 1933)">
   <path d="M9.24805 0.830078Q10.8691 0.830078 12.2949 0.214844Q13.7207-0.400391 14.8096-1.49414Q15.8984-2.58789 16.5186-4.01367Q17.1387-5.43945 17.1387-7.05078Q17.1387-8.66211 16.5186-10.0879Q15.8984-11.5137 14.8047-12.6074Q13.7109-13.7012 12.2852-14.3164Q10.8594-14.9316 9.23828-14.9316Q7.62695-14.9316 6.20117-14.3164Q4.77539-13.7012 3.69141-12.6074Q2.60742-11.5137 1.9873-10.0879Q1.36719-8.66211 1.36719-7.05078Q1.36719-5.43945 1.9873-4.01367Q2.60742-2.58789 3.69629-1.49414Q4.78516-0.400391 6.21094 0.214844Q7.63672 0.830078 9.24805 0.830078ZM9.24805-0.654297Q7.91992-0.654297 6.7627-1.14746Q5.60547-1.64062 4.73145-2.51953Q3.85742-3.39844 3.36426-4.56055Q2.87109-5.72266 2.87109-7.05078Q2.87109-8.37891 3.35938-9.54102Q3.84766-10.7031 4.72168-11.582Q5.5957-12.4609 6.75293-12.9541Q7.91016-13.4473 9.23828-13.4473Q10.5762-13.4473 11.7334-12.9541Q12.8906-12.4609 13.7695-11.582Q14.6484-10.7031 15.1465-9.54102Q15.6445-8.37891 15.6445-7.05078Q15.6445-5.72266 15.1514-4.56055Q14.6582-3.39844 13.7842-2.51953Q12.9102-1.64062 11.748-1.14746Q10.5859-0.654297 9.24805-0.654297ZM5.6543-7.05078Q5.6543-6.72852 5.85938-6.52832Q6.06445-6.32812 6.40625-6.32812L8.51562-6.32812L8.51562-4.20898Q8.51562-3.88672 8.71094-3.67676Q8.90625-3.4668 9.23828-3.4668Q9.56055-3.4668 9.77051-3.67676Q9.98047-3.88672 9.98047-4.20898L9.98047-6.32812L12.0898-6.32812Q12.4219-6.32812 12.627-6.52832Q12.832-6.72852 12.832-7.05078Q12.832-7.38281 12.627-7.58789Q12.4219-7.79297 12.0898-7.79297L9.98047-7.79297L9.98047-9.90234Q9.98047-10.2344 9.77051-10.4443Q9.56055-10.6543 9.23828-10.6543Q8.90625-10.6543 8.71094-10.4443Q8.51562-10.2344 8.51562-9.90234L8.51562-7.79297L6.40625-7.79297Q6.06445-7.79297 5.85938-7.58789Q5.6543-7.38281 5.6543-7.05078Z"/>
  </g>
  <g transform="matrix(1 0 0 1 281.867 1933)">
   <path d="M11.709 2.91016Q13.75 2.91016 15.5518 2.12891Q17.3535 1.34766 18.7305-0.0292969Q20.1074-1.40625 20.8887-3.20801Q21.6699-5.00977 21.6699-7.05078Q21.6699-9.0918 20.8887-10.8936Q20.1074-12.6953 18.7305-14.0723Q17.3535-15.4492 15.5469-16.2305Q13.7402-17.0117 11.6992-17.0117Q9.6582-17.0117 7.85645-16.2305Q6.05469-15.4492 4.68262-14.0723Q3.31055-12.6953 2.5293-10.8936Q1.74805-9.0918 1.74805-7.05078Q1.74805-5.00977 2.5293-3.20801Q3.31055-1.40625 4.6875-0.0292969Q6.06445 1.34766 7.86621 2.12891Q9.66797 2.91016 11.709 2.91016ZM11.709 1.25Q9.98047 1.25 8.47656 0.605469Q6.97266-0.0390625 5.83496-1.17676Q4.69727-2.31445 4.05762-3.81836Q3.41797-5.32227 3.41797-7.05078Q3.41797-8.7793 4.05762-10.2832Q4.69727-11.7871 5.83008-12.9297Q6.96289-14.0723 8.4668-14.7119Q9.9707-15.3516 11.6992-15.3516Q13.4277-15.3516 14.9316-14.7119Q16.4355-14.0723 17.5781-12.9297Q18.7207-11.7871 19.3652-10.2832Q20.0098-8.7793 20.0098-7.05078Q20.0098-5.32227 19.3701-3.81836Q18.7305-2.31445 17.5928-1.17676Q16.4551-0.0390625 14.9463 0.605469Q13.4375 1.25 11.709 1.25ZM7.17773-7.05078Q7.17773-6.69922 7.41211-6.47461Q7.64648-6.25 8.01758-6.25L10.8887-6.25L10.8887-3.36914Q10.8887-2.99805 11.1133-2.76855Q11.3379-2.53906 11.6895-2.53906Q12.0605-2.53906 12.29-2.76855Q12.5195-2.99805 12.5195-3.36914L12.5195-6.25L15.4004-6.25Q15.7715-6.25 16.001-6.47461Q16.2305-6.69922 16.2305-7.05078Q16.2305-7.42188 16.001-7.65137Q15.7715-7.88086 15.4004-7.88086L12.5195-7.88086L12.5195-10.752Q12.5195-11.1328 12.29-11.3623Q12.0605-11.5918 11.6895-11.5918Q11.3379-11.5918 11.1133-11.3574Q10.8887-11.123 10.8887-10.752L10.8887-7.88086L8.01758-7.88086Q7.63672-7.88086 7.40723-7.65137Q7.17773-7.42188 7.17773-7.05078Z"/>
  </g>
  <g transform="matrix(1 0 0 1 305.646 1933)">
   <path d="M14.9707 5.66406Q17.0605 5.66406 18.96 5.01465Q20.8594 4.36523 22.4512 3.19336Q24.043 2.02148 25.2197 0.429688Q26.3965-1.16211 27.0459-3.06641Q27.6953-4.9707 27.6953-7.05078Q27.6953-9.14062 27.0459-11.04Q26.3965-12.9395 25.2197-14.5312Q24.043-16.123 22.4512-17.2998Q20.8594-18.4766 18.9551-19.126Q17.0508-19.7754 14.9609-19.7754Q12.8711-19.7754 10.9717-19.126Q9.07227-18.4766 7.48535-17.2998Q5.89844-16.123 4.72168-14.5312Q3.54492-12.9395 2.90039-11.04Q2.25586-9.14062 2.25586-7.05078Q2.25586-4.9707 2.90527-3.06641Q3.55469-1.16211 4.72656 0.429688Q5.89844 2.02148 7.49023 3.19336Q9.08203 4.36523 10.9814 5.01465Q12.8809 5.66406 14.9707 5.66406ZM14.9707 3.84766Q13.1641 3.84766 11.5283 3.2959Q9.89258 2.74414 8.53516 1.74805Q7.17773 0.751953 6.17676-0.610352Q5.17578-1.97266 4.62891-3.6084Q4.08203-5.24414 4.08203-7.05078Q4.08203-8.86719 4.62891-10.5029Q5.17578-12.1387 6.17188-13.501Q7.16797-14.8633 8.52539-15.8594Q9.88281-16.8555 11.5186-17.4023Q13.1543-17.9492 14.9609-17.9492Q16.7773-17.9492 18.4131-17.4023Q20.0488-16.8555 21.4111-15.8594Q22.7734-14.8633 23.7695-13.501Q24.7656-12.1387 25.3174-10.5029Q25.8691-8.86719 25.8691-7.05078Q25.8789-5.24414 25.332-3.6084Q24.7852-1.97266 23.7842-0.610352Q22.7832 0.751953 21.4209 1.74805Q20.0586 2.74414 18.4229 3.2959Q16.7871 3.84766 14.9707 3.84766ZM9.19922-7.05078Q9.19922-6.66992 9.45801-6.4209Q9.7168-6.17188 10.1172-6.17188L14.0625-6.17188L14.0625-2.2168Q14.0625-1.81641 14.3115-1.55762Q14.5605-1.29883 14.9512-1.29883Q15.3516-1.29883 15.6104-1.55273Q15.8691-1.80664 15.8691-2.2168L15.8691-6.17188L19.8242-6.17188Q20.2246-6.17188 20.4785-6.4209Q20.7324-6.66992 20.7324-7.05078Q20.7324-7.46094 20.4785-7.71484Q20.2246-7.96875 19.8242-7.96875L15.8691-7.96875L15.8691-11.9141Q15.8691-12.3242 15.6104-12.583Q15.3516-12.8418 14.9512-12.8418Q14.5605-12.8418 14.3115-12.583Q14.0625-12.3242 14.0625-11.9141L14.0625-7.96875L10.1172-7.96875Q9.70703-7.96875 9.45312-7.71484Q9.19922-7.46094 9.19922-7.05078Z"/>
  </g>
  <text style="stroke:none;fill:black;font-family:sans-serif;font-size:13;font-weight:bold;" transform="matrix(1 0 0 1 263 1953)">Design Variations</text>
  <text style="stroke:none;fill:black;font-family:sans-serif;font-size:13;" transform="matrix(1 0 0 1 263 1971)">Symbols are supported in up to nine weights and three scales.</text>
  <text style="stroke:none;fill:black;font-family:sans-serif;font-size:13;" transform="matrix(1 0 0 1 263 1989)">For optimal layout with text and other symbols, vertically align</text>
  <text style="stroke:none;fill:black;font-family:sans-serif;font-size:13;" transform="matrix(1 0 0 1 263 2007)">symbols with the adjacent text.</text>
  <line style="fill:none;stroke:#00AEEF;stroke-width:0.5;opacity:1.0;" x1="776" x2="776" y1="1919" y2="1933"/>
  <g transform="matrix(1 0 0 1 776 1933)">
   <path d="M3.31055 0.15625Q3.70117 0.15625 3.91602-0.00976562Q4.13086-0.175781 4.26758-0.585938L5.52734-4.0332L11.2891-4.0332L12.5488-0.585938Q12.6855-0.175781 12.9004-0.00976562Q13.1152 0.15625 13.4961 0.15625Q13.8867 0.15625 14.1162-0.0585938Q14.3457-0.273438 14.3457-0.644531Q14.3457-0.869141 14.2383-1.17188L9.6582-13.3691Q9.48242-13.8184 9.17969-14.043Q8.87695-14.2676 8.4082-14.2676Q7.5-14.2676 7.17773-13.3789L2.59766-1.16211Q2.49023-0.859375 2.49023-0.634766Q2.49023-0.263672 2.70996-0.0537109Q2.92969 0.15625 3.31055 0.15625ZM6.00586-5.51758L8.37891-12.0898L8.42773-12.0898L10.8008-5.51758Z"/>
  </g>
  <line style="fill:none;stroke:#00AEEF;stroke-width:0.5;opacity:1.0;" x1="793.197" x2="793.197" y1="1919" y2="1933"/>
  <text style="stroke:none;fill:black;font-family:sans-serif;font-size:13;font-weight:bold;" transform="matrix(1 0 0 1 776 1953)">Margins</text>
  <text style="stroke:none;fill:black;font-family:sans-serif;font-size:13;" transform="matrix(1 0 0 1 776 1971)">Leading and trailing margins on the left and right side of each symbol</text>
  <text style="stroke:none;fill:black;font-family:sans-serif;font-size:13;" transform="matrix(1 0 0 1 776 1989)">can be adjusted by modifying the x-location of the margin guidelines.</text>
  <text style="stroke:none;fill:black;font-family:sans-serif;font-size:13;" transform="matrix(1 0 0 1 776 2007)">Modifications are automatically applied proportionally to all</text>
  <text style="stroke:none;fill:black;font-family:sans-serif;font-size:13;" transform="matrix(1 0 0 1 776 2025)">scales and weights.</text>
  <g transform="matrix(1 0 0 1 1289 1933)">
   <path d="M2.8418 1.86523L4.54102 3.57422Q5.18555 4.22852 5.90332 4.17969Q6.62109 4.13086 7.31445 3.35938L18.0078-8.42773L17.041-9.4043L6.42578 2.27539Q6.16211 2.57812 5.89355 2.61719Q5.625 2.65625 5.27344 2.30469L4.10156 1.14258Q3.75 0.791016 3.79395 0.522461Q3.83789 0.253906 4.14062-0.0195312L15.6152-10.8203L14.6387-11.7871L3.04688-0.898438Q2.30469-0.214844 2.25098 0.498047Q2.19727 1.21094 2.8418 1.86523ZM9.25781-16.3281Q8.94531-16.0254 8.90625-15.6348Q8.86719-15.2441 9.04297-14.9512Q9.21875-14.6777 9.55566-14.541Q9.89258-14.4043 10.3809-14.5215Q11.4746-14.7754 12.5977-14.7314Q13.7207-14.6875 14.7949-13.9844L14.209-12.5293Q13.9551-11.9043 14.0674-11.4404Q14.1797-10.9766 14.5801-10.5664L16.875-8.25195Q17.2363-7.88086 17.5781-7.82227Q17.9199-7.76367 18.3398-7.8418L19.4043-8.03711L20.0684-7.36328L20.0293-6.80664Q20-6.43555 20.1221-6.12305Q20.2441-5.81055 20.6055-5.44922L21.3672-4.70703Q21.7285-4.3457 22.1533-4.33105Q22.5781-4.31641 22.9297-4.66797L25.8398-7.58789Q26.1914-7.93945 26.1816-8.35449Q26.1719-8.76953 25.8105-9.13086L25.0391-9.89258Q24.6875-10.2539 24.3799-10.3857Q24.0723-10.5176 23.7109-10.4883L23.1348-10.4395L22.4902-11.0742L22.7344-12.1973Q22.832-12.6172 22.6953-12.9834Q22.5586-13.3496 22.1191-13.7891L19.9219-15.9766Q18.6719-17.2168 17.2607-17.8369Q15.8496-18.457 14.4189-18.4814Q12.9883-18.5059 11.665-17.959Q10.3418-17.4121 9.25781-16.3281ZM10.752-15.957Q11.6602-16.6211 12.7002-16.9043Q13.7402-17.1875 14.8047-17.085Q15.8691-16.9824 16.8701-16.5137Q17.8711-16.0449 18.7012-15.2051L21.1328-12.793Q21.3086-12.6172 21.3525-12.4512Q21.3965-12.2852 21.3379-12.0312L21.0156-10.5469L22.5195-9.0625L23.5059-9.12109Q23.6914-9.13086 23.7891-9.09668Q23.8867-9.0625 24.0332-8.91602L24.6094-8.33984L22.168-5.89844L21.5918-6.47461Q21.4453-6.62109 21.4062-6.71875Q21.3672-6.81641 21.377-7.01172L21.4453-7.98828L19.9512-9.47266L18.4277-9.21875Q18.1836-9.16992 18.042-9.2041Q17.9004-9.23828 17.7148-9.41406L15.7129-11.416Q15.5176-11.5918 15.4932-11.7529Q15.4688-11.9141 15.5859-12.1875L16.4648-14.2773Q15.293-15.3711 13.8281-15.791Q12.3633-16.2109 10.8398-15.7617Q10.7227-15.7324 10.6885-15.8057Q10.6543-15.8789 10.752-15.957Z"/>
  </g>
  <text style="stroke:none;fill:black;font-family:sans-serif;font-size:13;font-weight:bold;" transform="matrix(1 0 0 1 1289 1953)">Exporting</text>
  <text style="stroke:none;fill:black;font-family:sans-serif;font-size:13;" transform="matrix(1 0 0 1 1289 1971)">Symbols should be outlined when exporting to ensure the</text>
  <text style="stroke:none;fill:black;font-family:sans-serif;font-size:13;" transform="matrix(1 0 0 1 1289 1989)">design is preserved when submitting to Xcode.</text>
  <text id="template-version" style="stroke:none;fill:black;font-family:sans-serif;font-size:13;text-anchor:end;" transform="matrix(1 0 0 1 3036 1933)">Template v.3.0</text>
  <text style="stroke:none;fill:black;font-family:sans-serif;font-size:13;text-anchor:end;" transform="matrix(1 0 0 1 3036 1951)">Requires Xcode 13 or greater</text>
  <text id="descriptive-name" style="stroke:none;fill:black;font-family:sans-serif;font-size:13;text-anchor:end;" transform="matrix(1 0 0 1 3036 1969)">Generated from video-off</text>
  <text style="stroke:none;fill:black;font-family:sans-serif;font-size:13;text-anchor:end;" transform="matrix(1 0 0 1 3036 1987)">Typeset at 100 points</text>
  <text style="stroke:none;fill:black;font-family:sans-serif;font-size:13;" transform="matrix(1 0 0 1 263 726)">Small</text>
  <text style="stroke:none;fill:black;font-family:sans-serif;font-size:13;" transform="matrix(1 0 0 1 263 1156)">Medium</text>
  <text style="stroke:none;fill:black;font-family:sans-serif;font-size:13;" transform="matrix(1 0 0 1 263 1586)">Large</text>
 </g>
 <g id="Guides">
  <g id="H-reference" style="fill:#27AAE1;stroke:none;" transform="matrix(1 0 0 1 339 696)">
   <path d="M0.976562 0L3.66211 0L29.3457-67.1387L30.0293-67.1387L30.0293-70.459L28.125-70.459ZM11.6699-24.4629L46.9727-24.4629L46.2402-26.709L12.4512-26.709ZM55.127 0L57.7637 0L30.6152-70.459L29.4434-70.459L29.4434-67.1387Z"/>
  </g>
  <line id="Baseline-S" style="fill:none;stroke:#27AAE1;opacity:1;stroke-width:0.5;" x1="263" x2="3036" y1="696" y2="696"/>
  <line id="Capline-S" style="fill:none;stroke:#27AAE1;opacity:1;stroke-width:0.5;" x1="263" x2="3036" y1="625.541" y2="625.541"/>
  <g id="H-reference" style="fill:#27AAE1;stroke:none;" transform="matrix(1 0 0 1 339 1126)">
   <path d="M0.976562 0L3.66211 0L29.3457-67.1387L30.0293-67.1387L30.0293-70.459L28.125-70.459ZM11.6699-24.4629L46.9727-24.4629L46.2402-26.709L12.4512-26.709ZM55.127 0L57.7637 0L30.6152-70.459L29.4434-70.459L29.4434-67.1387Z"/>
  </g>
  <line id="Baseline-M" style="fill:none;stroke:#27AAE1;opacity:1;stroke-width:0.5;" x1="263" x2="3036" y1="1126" y2="1126"/>
  <line id="Capline-M" style="fill:none;stroke:#27AAE1;opacity:1;stroke-width:0.5;" x1="263" x2="3036" y1="1055.54" y2="1055.54"/>
  <g id="H-reference" style="fill:#27AAE1;stroke:none;" transform="matrix(1 0 0 1 339 1556)">
   <path d="M0.976562 0L3.66211 0L29.3457-67.1387L30.0293-67.1387L30.0293-70.459L28.125-70.459ZM11.6699-24.4629L46.9727-24.4629L46.2402-26.709L12.4512-26.709ZM55.127 0L57.7637 0L30.6152-70.459L29.4434-70.459L29.4434-67.1387Z"/>
  </g>
  <line id="Baseline-L" style="fill:none;stroke:#27AAE1;opacity:1;stroke-width:0.5;" x1="263" x2="3036" y1="1556" y2="1556"/>
  <line id="Capline-L" style="fill:none;stroke:#27AAE1;opacity:1;stroke-width:0.5;" x1="263" x2="3036" y1="1485.54" y2="1485.54"/>
  <line id="left-margin-Regular-M" style="fill:none;stroke:#00AEEF;stroke-width:0.5;opacity:1.0;" x1="1393.13" x2="1393.13" y1="1030.78" y2="1150.12"/>
  <line id="right-margin-Regular-M" style="fill:none;stroke:#00AEEF;stroke-width:0.5;opacity:1.0;" x1="1506.56" x2="1506.56" y1="1030.78" y2="1150.12"/>
 </g>
 <g id="Symbols">
  <g id="Black-L" transform="matrix(1 0 0 1 2859.61 1556)">
   <path class="hierarchical-0:secondary SFSymbolsPreview4D4D4D" d="M9.695-78.12C13.155-81.59 17.855-83.53 22.755-83.53L34.135-83.53C36.015-83.53 37.825-82.79 39.155-81.45L101.715-18.89C103.045-17.56 103.795-15.76 103.795-13.87L103.795-8.18C103.795-3.28 101.845 1.41 98.385 4.88C94.915 8.34 90.225 10.29 85.325 10.29L22.755 10.29C17.855 10.29 13.155 8.34 9.695 4.88C6.225 1.41 4.285-3.28 4.285-8.18L4.285-65.06C4.285-69.96 6.225-74.66 9.695-78.12ZM22.755-69.33C21.625-69.33 20.535-68.88 19.735-68.08C18.935-67.28 18.485-66.19 18.485-65.06L18.485-8.18C18.485-7.05 18.935-5.96 19.735-5.16C20.535-4.36 21.625-3.91 22.755-3.91L85.325-3.91C86.455-3.91 87.545-4.36 88.345-5.16C89.145-5.96 89.595-7.05 89.595-8.18L89.595-10.93L31.195-69.33L22.755-69.33ZM59.225-76.43C59.225-80.36 62.405-83.53 66.325-83.53L85.325-83.53C90.225-83.53 94.915-81.59 98.385-78.12C101.845-74.66 103.795-69.96 103.795-65.06L103.795-50.16L132.345-70.81C134.505-72.38 137.365-72.6 139.735-71.38C142.115-70.17 143.605-67.73 143.605-65.06L143.605-8.18C143.605-4.26 140.425-1.08 136.505-1.08C132.585-1.08 129.405-4.26 129.405-8.18L129.405-51.16L106.545-34.62C103.715-32.58 99.825-32.89 97.365-35.36L91.675-41.04C90.345-42.37 89.595-44.18 89.595-46.06L89.595-65.06C89.595-66.19 89.145-67.28 88.345-68.08C87.545-68.88 86.455-69.33 85.325-69.33L66.325-69.33C62.405-69.33 59.225-72.51 59.225-76.43Z"/>
   <path class="hierarchical-1:primary SFSymbolsPreview212121" d="M6.365-104.2C9.135-106.98 13.635-106.98 16.405-104.2L141.525 20.92C144.305 23.69 144.305 28.19 141.525 30.96C138.755 33.73 134.265 33.73 131.485 30.96L6.365-94.16C3.585-96.94 3.585-101.43 6.365-104.2Z"/>
  </g>
  <g id="Heavy-L" transform="matrix(1 0 0 1 2563.75 1556)">
   <path class="hierarchical-0:secondary SFSymbolsPreview4D4D4D" d="M9.44-77.35C12.74-80.66 17.23-82.51 21.9-82.51L33.28-82.51C34.93-82.51 36.52-81.85 37.69-80.68L100.26-18.12C101.43-16.95 102.09-15.36 102.09-13.7L102.09-8.01C102.09-3.34 100.23 1.14 96.93 4.45C93.62 7.76 89.14 9.61 84.46 9.61L21.9 9.61C17.23 9.61 12.74 7.76 9.44 4.45C6.13 1.14 4.28-3.34 4.28-8.01L4.28-64.89C4.28-69.56 6.13-74.05 9.44-77.35ZM21.9-70.01C20.54-70.01 19.24-69.47 18.28-68.51C17.32-67.55 16.78-66.25 16.78-64.89L16.78-8.01C16.78-6.65 17.32-5.35 18.28-4.39C19.24-3.43 20.54-2.89 21.9-2.89L84.46-2.89C85.82-2.89 87.13-3.43 88.09-4.39C89.05-5.35 89.59-6.65 89.59-8.01L89.59-11.11L30.69-70.01L21.9-70.01ZM84.46-70.01L65.47-70.01C62.01-70.01 59.22-72.81 59.22-76.26C59.22-79.71 62.01-82.51 65.47-82.51L84.46-82.51C89.14-82.51 93.62-80.66 96.93-77.35C100.23-74.05 102.09-69.56 102.09-64.89L102.09-48.48L102.18-48.39L131.99-69.95C133.89-71.33 136.4-71.52 138.49-70.45C140.58-69.39 141.9-67.24 141.9-64.89L141.9-8.01C141.9-4.56 139.1-1.76 135.65-1.76C132.2-1.76 129.4-4.56 129.4-8.01L129.4-52.65L105.19-35.14C102.7-33.34 99.28-33.61 97.11-35.78L91.42-41.47C90.25-42.64 89.59-44.23 89.59-45.89L89.59-64.89C89.59-66.25 89.05-67.55 88.09-68.51C87.13-69.47 85.82-70.01 84.46-70.01Z"/>
   <path class="hierarchical-1:primary SFSymbolsPreview212121" d="M6.11-103.43C8.55-105.87 12.5-105.87 14.94-103.43L140.07 21.69C142.51 24.13 142.51 28.09 140.07 30.53C137.63 32.97 133.67 32.97 131.23 30.53L6.11-94.59C3.67-97.03 3.67-100.99 6.11-103.43Z"/>
  </g>
  <g id="Bold-L" transform="matrix(1 0 0 1 2267.99 1556)">
   <path class="hierarchical-0:secondary SFSymbolsPreview4D4D4D" d="M9.17-76.495C12.29-79.625 16.54-81.375 20.96-81.375L32.33-81.375C33.74-81.375 35.09-80.825 36.08-79.825L98.64-17.265C99.64-16.265 100.2-14.925 100.2-13.515L100.2-7.825C100.2-3.405 98.44 0.835 95.31 3.965C92.18 7.085 87.94 8.845 83.52 8.845L20.96 8.845C16.54 8.845 12.29 7.085 9.17 3.965C6.04 0.835 4.28-3.405 4.28-7.825L4.28-64.705C4.28-69.125 6.04-73.365 9.17-76.495ZM20.96-70.775C19.35-70.775 17.8-70.135 16.66-68.995C15.52-67.865 14.88-66.315 14.88-64.705L14.88-7.825C14.88-6.215 15.52-4.675 16.66-3.535C17.8-2.395 19.35-1.755 20.96-1.755L83.52-1.755C85.13-1.755 86.68-2.395 87.82-3.535C88.96-4.675 89.6-6.215 89.6-7.825L89.6-11.325L30.14-70.775L20.96-70.775ZM83.52-70.775L64.52-70.775C61.6-70.775 59.22-73.155 59.22-76.075C59.22-79.005 61.6-81.375 64.52-81.375L83.52-81.375C87.94-81.375 92.18-79.625 95.31-76.495C98.44-73.365 100.2-69.125 100.2-64.705L100.2-47.905L101.14-46.965L131.6-68.995C133.21-70.165 135.35-70.325 137.12-69.425C138.89-68.515 140.01-66.695 140.01-64.705L140.01-7.825C140.01-4.905 137.63-2.525 134.71-2.525C131.78-2.525 129.41-4.905 129.41-7.825L129.41-54.325L103.69-35.725C101.58-34.205 98.68-34.435 96.84-36.275L91.15-41.955C90.15-42.955 89.6-44.305 89.6-45.705L89.6-64.705C89.6-66.315 88.96-67.865 87.82-68.995C86.68-70.135 85.13-70.775 83.52-70.775Z"/>
   <path class="hierarchical-1:primary SFSymbolsPreview212121" d="M5.84-102.574C7.9-104.644 11.26-104.644 13.33-102.574L138.46 22.545C140.53 24.615 140.53 27.975 138.46 30.045C136.39 32.115 133.03 32.115 130.96 30.045L5.84-95.085C3.77-97.155 3.77-100.505 5.84-102.574Z"/>
  </g>
  <g id="Semibold-L" transform="matrix(1 0 0 1 1971.93 1556)">
   <path class="hierarchical-0:secondary SFSymbolsPreview4D4D4D" d="M8.975-75.91C11.985-78.91 16.055-80.6 20.305-80.6L31.685-80.6C32.915-80.6 34.095-80.11 34.975-79.24L97.535-16.68C98.405-15.8 98.895-14.62 98.895-13.39L98.895-7.7C98.895-3.45 97.205 0.62 94.205 3.63C91.195 6.64 87.125 8.32 82.875 8.32L20.305 8.32C16.055 8.32 11.985 6.64 8.975 3.63C5.975 0.62 4.285-3.45 4.285-7.7L4.285-64.58C4.285-68.83 5.975-72.9 8.975-75.91ZM20.305-71.3C18.525-71.3 16.815-70.59 15.555-69.33C14.295-68.07 13.585-66.36 13.585-64.58L13.585-7.7C13.585-5.92 14.295-4.21 15.555-2.95C16.815-1.68 18.525-0.98 20.305-0.98L82.875-0.98C84.655-0.98 86.365-1.68 87.625-2.95C88.885-4.21 89.595-5.92 89.595-7.7L89.595-11.46L29.755-71.3L20.305-71.3ZM59.225-75.95C59.225-78.52 61.305-80.6 63.875-80.6L82.875-80.6C87.125-80.6 91.195-78.91 94.205-75.91C97.205-72.9 98.895-68.83 98.895-64.58L98.895-47.51L100.415-45.98L131.335-68.34C132.745-69.37 134.615-69.51 136.175-68.72C137.725-67.92 138.705-66.32 138.705-64.58L138.705-7.7C138.705-5.13 136.625-3.05 134.055-3.05C131.485-3.05 129.405-5.13 129.405-7.7L129.405-55.47L102.655-36.12C100.805-34.79 98.255-34.99 96.645-36.6L90.955-42.29C90.085-43.16 89.595-44.35 89.595-45.58L89.595-64.58C89.595-66.36 88.885-68.07 87.625-69.33C86.365-70.59 84.655-71.3 82.875-71.3L63.875-71.3C61.305-71.3 59.225-73.38 59.225-75.95Z"/>
   <path class="hierarchical-1:primary SFSymbolsPreview212121" d="M5.645-101.99C7.465-103.81 10.405-103.81 12.225-101.99L137.345 23.14C139.165 24.95 139.165 27.9 137.345 29.71C135.525 31.53 132.585 31.53 130.765 29.71L5.645-95.41C3.825-97.23 3.825-100.17 5.645-101.99Z"/>
  </g>
  <g id="Medium-L" transform="matrix(1 0 0 1 1675.72 1556)">
   <path class="hierarchical-0:secondary SFSymbolsPreview4D4D4D" d="M8.825-75.45C11.745-78.37 15.695-80 19.805-80L31.185-80C32.285-80 33.335-79.56 34.115-78.79L96.675-16.22C97.455-15.45 97.895-14.39 97.895-13.29L97.895-7.6C97.895-3.48 96.255 0.46 93.345 3.38C90.435 6.29 86.485 7.92 82.375 7.92L19.805 7.92C15.695 7.92 11.745 6.29 8.825 3.38C5.915 0.46 4.285-3.48 4.285-7.6L4.285-64.48C4.285-68.59 5.915-72.54 8.825-75.45ZM19.805-71.7C17.895-71.7 16.055-70.94 14.695-69.59C13.345-68.23 12.585-66.39 12.585-64.48L12.585-7.6C12.585-5.69 13.345-3.85 14.695-2.49C16.055-1.14 17.895-0.38 19.805-0.38L82.375-0.38C84.285-0.38 86.125-1.14 87.475-2.49C88.835-3.85 89.595-5.69 89.595-7.6L89.595-11.57L29.465-71.7L19.805-71.7ZM59.225-75.85C59.225-78.14 61.085-80 63.375-80L82.375-80C86.485-80 90.435-78.37 93.345-75.45C96.255-72.54 97.895-68.59 97.895-64.48L97.895-47.2L99.865-45.23L131.125-67.84C132.385-68.75 134.055-68.88 135.445-68.17C136.835-67.46 137.705-66.04 137.705-64.48L137.705-7.6C137.705-5.31 135.845-3.45 133.555-3.45C131.265-3.45 129.405-5.31 129.405-7.6L129.405-56.35L101.865-36.43C100.215-35.24 97.935-35.42 96.495-36.86L90.815-42.55C90.035-43.32 89.595-44.38 89.595-45.48L89.595-64.48C89.595-66.39 88.835-68.23 87.475-69.59C86.125-70.94 84.285-71.7 82.375-71.7L63.375-71.7C61.085-71.7 59.225-73.56 59.225-75.85Z"/>
   <path class="hierarchical-1:primary SFSymbolsPreview212121" d="M5.495-101.54C7.115-103.16 9.745-103.16 11.365-101.54L136.495 23.59C138.115 25.21 138.115 27.84 136.495 29.46C134.875 31.08 132.245 31.08 130.625 29.46L5.495-95.67C3.875-97.29 3.875-99.92 5.495-101.54Z"/>
  </g>
  <g id="Regular-L" transform="matrix(1 0 0 1 1379.66 1556)">
   <path class="hierarchical-0:secondary SFSymbolsPreview4D4D4D" d="M8.63-74.87C11.42-77.66 15.21-79.22 19.15-79.22L30.53-79.22C31.46-79.22 32.35-78.85 33-78.2L95.56-15.64C96.22-14.98 96.59-14.09 96.59-13.16L96.59-7.47C96.59-3.53 95.02 0.26 92.23 3.05C89.44 5.83 85.66 7.4 81.72 7.4L19.15 7.4C15.21 7.4 11.42 5.83 8.63 3.05C5.84 0.26 4.28-3.53 4.28-7.47L4.28-64.35C4.28-68.29 5.84-72.08 8.63-74.87ZM19.15-72.22C17.06-72.22 15.06-71.39 13.58-69.92C12.11-68.44 11.28-66.44 11.28-64.35L11.28-7.47C11.28-5.38 12.11-3.38 13.58-1.9C15.06-0.43 17.06 0.4 19.15 0.4L81.72 0.4C83.8 0.4 85.81-0.43 87.28-1.9C88.76-3.38 89.59-5.38 89.59-7.47L89.59-11.71L29.08-72.22L19.15-72.22ZM81.72-72.22L62.72-72.22C60.79-72.22 59.22-73.79 59.22-75.72C59.22-77.66 60.79-79.22 62.72-79.22L81.72-79.22C85.66-79.22 89.44-77.66 92.23-74.87C95.02-72.08 96.59-68.29 96.59-64.35L96.59-46.8L99.14-44.25L130.85-67.18C131.92-67.95 133.32-68.06 134.49-67.46C135.67-66.87 136.4-65.66 136.4-64.35L136.4-7.47C136.4-5.54 134.84-3.97 132.9-3.97C130.97-3.97 129.4-5.54 129.4-7.47L129.4-57.5L100.83-36.83C99.44-35.82 97.52-35.97 96.3-37.19L90.62-42.88C89.96-43.53 89.59-44.42 89.59-45.35L89.59-64.35C89.59-66.44 88.76-68.44 87.28-69.92C85.81-71.39 83.8-72.22 81.72-72.22Z"/>
   <path class="hierarchical-1:primary SFSymbolsPreview212121" d="M5.3-100.95C6.67-102.31 8.89-102.31 10.25-100.95L135.38 24.18C136.74 25.54 136.74 27.76 135.38 29.13C134.01 30.49 131.79 30.49 130.43 29.13L5.3-96C3.94-97.36 3.94-99.58 5.3-100.95Z"/>
  </g>
  <g id="Light-L" transform="matrix(1 0 0 1 1083.74 1556)">
   <path class="hierarchical-0:secondary SFSymbolsPreview4D4D4D" d="M8.405-74.15C11.045-76.79 14.625-78.27 18.355-78.27L29.735-78.27C30.445-78.27 31.135-77.99 31.645-77.48L94.205-14.92C94.715-14.41 94.995-13.73 94.995-13.01L94.995-7.32C94.995-3.59 93.515-0.01 90.875 2.63C88.235 5.27 84.655 6.75 80.915 6.75L18.355 6.75C14.625 6.75 11.045 5.27 8.405 2.63C5.765-0.01 4.285-3.59 4.285-7.32L4.285-64.2C4.285-67.93 5.765-71.51 8.405-74.15ZM18.355-72.87C16.055-72.87 13.855-71.96 12.225-70.33C10.595-68.7 9.685-66.5 9.685-64.2L9.685-7.32C9.685-5.02 10.595-2.81 12.225-1.19C13.855 0.44 16.055 1.35 18.355 1.35L80.915 1.35C83.225 1.35 85.425 0.44 87.055-1.19C88.685-2.81 89.595-5.02 89.595-7.32L89.595-11.89L28.615-72.87L18.355-72.87ZM59.225-75.57C59.225-77.06 60.435-78.27 61.925-78.27L80.915-78.27C84.655-78.27 88.235-76.79 90.875-74.15C93.515-71.51 94.995-67.93 94.995-64.2L94.995-46.32L98.265-43.05L130.525-66.38C131.345-66.98 132.435-67.06 133.335-66.6C134.235-66.14 134.805-65.21 134.805-64.2L134.805-7.32C134.805-5.83 133.595-4.62 132.105-4.62C130.615-4.62 129.405-5.83 129.405-7.32L129.405-58.91L99.565-37.33C98.495-36.55 97.015-36.67 96.075-37.6L90.385-43.29C89.875-43.8 89.595-44.48 89.595-45.2L89.595-64.2C89.595-66.5 88.685-68.7 87.055-70.33C85.425-71.96 83.225-72.87 80.915-72.87L61.925-72.87C60.435-72.87 59.225-74.08 59.225-75.57Z"/>
   <path class="hierarchical-1:primary SFSymbolsPreview212121" d="M5.075-100.23C6.125-101.29 7.835-101.29 8.895-100.23L134.015 24.89C135.075 25.95 135.075 27.66 134.015 28.71C132.965 29.77 131.255 29.77 130.195 28.71L5.075-96.41C4.015-97.47 4.015-99.18 5.075-100.23Z"/>
  </g>
  <g id="Thin-L" transform="matrix(1 0 0 1 788.085 1556)">
   <path class="hierarchical-0:secondary SFSymbolsPreview4D4D4D" d="M8.095-73.2C10.537-75.64 13.85-77.01 17.305-77.01L28.68-77.01C29.117-77.01 29.537-76.84 29.846-76.53L92.409-13.97C92.718-13.66 92.892-13.24 92.892-12.8L92.892-7.11C92.892-3.66 91.52-0.34 89.077 2.1C86.635 4.54 83.322 5.91 79.867 5.91L17.305 5.91C13.85 5.91 10.537 4.54 8.095 2.1C5.652-0.34 4.28-3.66 4.28-7.11L4.28-63.99C4.28-67.44 5.652-70.75 8.095-73.2ZM17.305-73.71C14.725-73.71 12.252-72.69 10.428-70.86C8.604-69.04 7.58-66.57 7.58-63.99L7.58-7.11C7.58-4.53 8.604-2.06 10.428-0.23C12.252 1.59 14.725 2.61 17.305 2.61L79.867 2.61C82.446 2.61 84.92 1.59 86.744-0.23C88.568-2.06 89.592-4.53 89.592-7.11L89.592-12.12L27.996-73.71L17.305-73.71ZM59.221-75.36C59.221-76.27 59.96-77.01 60.871-77.01L79.867-77.01C83.322-77.01 86.635-75.64 89.077-73.2C91.52-70.75 92.892-67.44 92.892-63.99L92.892-45.67L97.102-41.46L130.088-65.32C130.59-65.69 131.253-65.74 131.805-65.46C132.357-65.17 132.705-64.61 132.705-63.99L132.705-7.11C132.705-6.2 131.966-5.46 131.055-5.46C130.143-5.46 129.405-6.2 129.405-7.11L129.405-60.76L97.897-37.97C97.24-37.49 96.336-37.56 95.763-38.14L90.075-43.82C89.766-44.13 89.592-44.55 89.592-44.99L89.592-63.99C89.592-66.57 88.568-69.04 86.744-70.86C84.92-72.69 82.446-73.71 79.867-73.71L60.871-73.71C59.96-73.71 59.221-74.45 59.221-75.36Z"/>
   <path class="hierarchical-1:primary SFSymbolsPreview212121" d="M4.763-99.28C5.407-99.92 6.452-99.92 7.096-99.28L132.221 25.85C132.866 26.49 132.866 27.54 132.221 28.18C131.577 28.82 130.532 28.82 129.888 28.18L4.763-96.94C4.119-97.59 4.119-98.63 4.763-99.28Z"/>
  </g>
  <g id="Ultralight-L" transform="matrix(1 0 0 1 491.923 1556)">
   <path class="hierarchical-0:secondary SFSymbolsPreview4D4D4D" d="M7.934-72.705C10.274-75.045 13.447-76.355 16.755-76.355L28.13-76.355C28.422-76.355 28.702-76.245 28.908-76.035L91.471-13.475C91.677-13.265 91.793-12.985 91.793-12.695L91.793-7.005C91.793-3.705 90.479-0.525 88.139 1.815C85.8 4.155 82.626 5.465 79.318 5.465L16.755 5.465C13.447 5.465 10.274 4.155 7.934 1.815C5.595-0.525 4.28-3.705 4.28-7.005L4.28-63.885C4.28-67.195 5.595-70.365 7.934-72.705ZM16.755-74.155C14.03-74.155 11.417-73.075 9.49-71.155C7.563-69.225 6.48-66.605 6.48-63.885L6.48-7.005C6.48-4.285 7.563-1.675 9.49 0.255C11.417 2.185 14.03 3.265 16.755 3.265L79.318 3.265C82.043 3.265 84.656 2.185 86.583 0.255C88.51-1.675 89.593-4.285 89.593-7.005L89.593-12.245L27.675-74.155L16.755-74.155ZM59.222-75.255C59.222-75.865 59.714-76.355 60.322-76.355L79.318-76.355C82.626-76.355 85.8-75.045 88.139-72.705C90.479-70.365 91.793-67.195 91.793-63.885L91.793-45.345L96.495-40.645L129.861-64.775C130.196-65.015 130.638-65.055 131.006-64.865C131.374-64.675 131.605-64.295 131.605-63.885L131.605-7.005C131.605-6.405 131.113-5.905 130.505-5.905C129.898-5.905 129.405-6.405 129.405-7.005L129.405-61.735L97.025-38.305C96.587-37.995 95.985-38.045 95.603-38.425L89.915-44.115C89.709-44.315 89.593-44.595 89.593-44.885L89.593-63.885C89.593-66.605 88.51-69.225 86.583-71.155C84.656-73.075 82.043-74.155 79.318-74.155L60.322-74.155C59.714-74.155 59.222-74.655 59.222-75.255Z"/>
   <path class="hierarchical-1:primary SFSymbolsPreview212121" d="M4.603-98.785C5.032-99.215 5.729-99.215 6.158-98.785L131.283 26.335C131.713 26.765 131.713 27.465 131.283 27.895C130.854 28.325 130.157 28.325 129.728 27.895L4.603-97.235C4.173-97.665 4.173-98.355 4.603-98.785Z"/>
  </g>
  <g id="Black-M" transform="matrix(1 0 0 1 2873.09 1126)">
   <path class="hierarchical-0:secondary SFSymbolsPreview4D4D4D" d="M8.975-70.255C11.985-73.265 16.055-74.955 20.305-74.955L29.235-74.955C31.115-74.955 32.925-74.205 34.255-72.875L83.335-23.785C84.675-22.455 85.415-20.645 85.415-18.765L85.415-14.305C85.415-10.055 83.735-5.975 80.725-2.975C77.725 0.035 73.645 1.725 69.395 1.725L20.305 1.725C16.055 1.725 11.985 0.035 8.975-2.975C5.975-5.975 4.285-10.055 4.285-14.305L4.285-58.925C4.285-63.175 5.975-67.255 8.975-70.255ZM20.305-60.755C19.825-60.755 19.355-60.555 19.015-60.215C18.675-59.875 18.485-59.415 18.485-58.925L18.485-14.305C18.485-13.815 18.675-13.355 19.015-13.015C19.355-12.665 19.825-12.475 20.305-12.475L69.395-12.475C69.875-12.475 70.345-12.665 70.685-13.015C71.025-13.355 71.215-13.815 71.215-14.305L71.215-15.825L26.295-60.755L20.305-60.755ZM69.395-60.755L54.485-60.755C50.565-60.755 47.385-63.935 47.385-67.855C47.385-71.775 50.565-74.955 54.485-74.955L69.395-74.955C73.645-74.955 77.725-73.265 80.725-70.255C83.735-67.255 85.415-63.175 85.415-58.925L85.415-50.225L105.395-64.675C107.555-66.245 110.415-66.465 112.785-65.245C115.165-64.035 116.655-61.595 116.655-58.925L116.655-14.305C116.655-10.385 113.475-7.205 109.555-7.205C105.635-7.205 102.455-10.385 102.455-14.305L102.455-45.025L86.945-33.805C84.115-31.765 80.225-32.075 77.765-34.535L73.295-39.005C71.965-40.335 71.215-42.135 71.215-44.025L71.215-58.925C71.215-59.415 71.025-59.875 70.685-60.215C70.345-60.555 69.875-60.755 69.395-60.755Z"/>
   <path class="hierarchical-1:primary SFSymbolsPreview212121" d="M6.365-90.725C9.135-93.495 13.625-93.495 16.405-90.725L114.575 7.455C117.345 10.225 117.345 14.715 114.575 17.495C111.805 20.265 107.305 20.265 104.535 17.495L6.365-80.685C3.585-83.455 3.585-87.955 6.365-90.725Z"/>
  </g>
  <g id="Heavy-M" transform="matrix(1 0 0 1 2577.23 1126)">
   <path class="hierarchical-0:secondary SFSymbolsPreview4D4D4D" d="M8.72-69.49C11.57-72.34 15.43-73.94 19.45-73.94L28.38-73.94C30.03-73.94 31.62-73.28 32.8-72.11L81.88-23.02C83.06-21.85 83.71-20.26 83.71-18.6L83.71-14.14C83.71-10.11 82.12-6.25 79.27-3.41C76.42-0.56 72.56 1.04 68.54 1.04L19.45 1.04C15.43 1.04 11.57-0.56 8.72-3.41C5.88-6.25 4.28-10.11 4.28-14.14L4.28-58.76C4.28-62.79 5.88-66.65 8.72-69.49ZM19.45-61.44C18.74-61.44 18.06-61.16 17.56-60.66C17.06-60.15 16.78-59.47 16.78-58.76L16.78-14.14C16.78-13.43 17.06-12.75 17.56-12.25C18.06-11.75 18.74-11.46 19.45-11.46L68.54-11.46C69.25-11.46 69.93-11.75 70.43-12.25C70.93-12.75 71.21-13.43 71.21-14.14L71.21-16.01L25.79-61.44L19.45-61.44ZM47.38-67.69C47.38-71.14 50.18-73.94 53.63-73.94L68.54-73.94C72.56-73.94 76.42-72.34 79.27-69.49C82.12-66.65 83.71-62.79 83.71-58.76L83.71-48.4L105.04-63.83C106.94-65.2 109.45-65.4 111.55-64.33C113.64-63.26 114.95-61.11 114.95-58.76L114.95-14.14C114.95-10.69 112.15-7.89 108.7-7.89C105.25-7.89 102.45-10.69 102.45-14.14L102.45-46.53L85.59-34.33C83.1-32.53 79.68-32.81 77.51-34.98L73.05-39.44C71.87-40.61 71.21-42.2 71.21-43.86L71.21-58.76C71.21-59.47 70.93-60.15 70.43-60.66C69.93-61.16 69.25-61.44 68.54-61.44L53.63-61.44C50.18-61.44 47.38-64.24 47.38-67.69Z"/>
   <path class="hierarchical-1:primary SFSymbolsPreview212121" d="M6.11-89.96C8.55-92.4 12.51-92.4 14.95-89.96L113.12 8.22C115.56 10.66 115.56 14.62 113.12 17.06C110.68 19.5 106.72 19.5 104.28 17.06L6.11-81.12C3.67-83.56 3.67-87.52 6.11-89.96Z"/>
  </g>
  <g id="Bold-M" transform="matrix(1 0 0 1 2281.47 1126)">
   <path class="hierarchical-0:secondary SFSymbolsPreview4D4D4D" d="M8.4425-68.635C11.1125-71.305 14.7325-72.805 18.5025-72.805L27.4325-72.805C28.8325-72.805 30.1825-72.245 31.1825-71.255L80.2625-22.165C81.2625-21.175 81.8125-19.825 81.8125-18.415L81.8125-13.955C81.8125-10.185 80.3225-6.565 77.6525-3.895C74.9825-1.225 71.3625 0.275 67.5925 0.275L18.5025 0.275C14.7325 0.275 11.1125-1.225 8.4425-3.895C5.7825-6.565 4.2825-10.185 4.2825-13.955L4.2825-58.575C4.2825-62.355 5.7825-65.975 8.4425-68.635ZM18.5025-62.205C17.5425-62.205 16.6225-61.825 15.9425-61.145C15.2625-60.465 14.8825-59.545 14.8825-58.575L14.8825-13.955C14.8825-12.995 15.2625-12.075 15.9425-11.395C16.6225-10.715 17.5425-10.325 18.5025-10.325L67.5925-10.325C68.5525-10.325 69.4725-10.715 70.1525-11.395C70.8325-12.075 71.2125-12.995 71.2125-13.955L71.2125-16.225L25.2325-62.205L18.5025-62.205ZM67.5925-62.205L52.6925-62.205C49.7625-62.205 47.3925-64.575 47.3925-67.505C47.3925-70.435 49.7625-72.805 52.6925-72.805L67.5925-72.805C71.3625-72.805 74.9825-71.305 77.6525-68.635C80.3225-65.975 81.8125-62.355 81.8125-58.575L81.8125-46.355L104.652-62.875C106.262-64.045 108.392-64.205 110.162-63.295C111.942-62.395 113.052-60.575 113.052-58.575L113.052-13.955C113.052-11.025 110.682-8.655 107.752-8.655C104.832-8.655 102.453-11.025 102.453-13.955L102.453-48.205L84.0825-34.915C81.9725-33.395 79.0725-33.625 77.2325-35.465L72.7725-39.925C71.7725-40.925 71.2125-42.265 71.2125-43.675L71.2125-58.575C71.2125-59.545 70.8325-60.465 70.1525-61.145C69.4725-61.825 68.5525-62.205 67.5925-62.205Z"/>
   <path class="hierarchical-1:primary SFSymbolsPreview212121" d="M5.8325-89.095C7.9025-91.165 11.2625-91.165 13.3325-89.095L111.502 9.075C113.572 11.145 113.572 14.505 111.502 16.575C109.432 18.645 106.072 18.645 104.002 16.575L5.8325-81.605C3.7625-83.675 3.7625-87.035 5.8325-89.095Z"/>
  </g>
  <g id="Semibold-M" transform="matrix(1 0 0 1 1985.4 1126)">
   <path class="hierarchical-0:secondary SFSymbolsPreview4D4D4D" d="M8.26-68.045C10.8-70.595 14.26-72.025 17.86-72.025L26.78-72.025C28.02-72.025 29.2-71.535 30.07-70.665L79.16-21.575C80.03-20.705 80.52-19.515 80.52-18.285L80.52-13.825C80.52-10.225 79.09-6.765 76.54-4.225C74-1.675 70.55-0.245 66.95-0.245L17.86-0.245C14.26-0.245 10.8-1.675 8.26-4.225C5.71-6.765 4.28-10.225 4.28-13.825L4.28-58.445C4.28-62.045 5.71-65.505 8.26-68.045ZM17.86-62.725C16.72-62.725 15.64-62.275 14.83-61.475C14.03-60.665 13.58-59.585 13.58-58.445L13.58-13.825C13.58-12.685 14.03-11.605 14.83-10.795C15.64-9.995 16.72-9.545 17.86-9.545L66.95-9.545C68.08-9.545 69.17-9.995 69.97-10.795C70.77-11.605 71.22-12.685 71.22-13.825L71.22-16.355L24.86-62.725L17.86-62.725ZM47.39-67.375C47.39-69.945 49.47-72.025 52.04-72.025L66.95-72.025C70.55-72.025 74-70.595 76.54-68.045C79.09-65.505 80.52-62.045 80.52-58.445L80.52-45.465L80.82-45.175L104.38-62.215C105.8-63.235 107.67-63.385 109.22-62.585C110.78-61.795 111.76-60.195 111.76-58.445L111.76-13.825C111.76-11.255 109.68-9.175 107.11-9.175C104.54-9.175 102.46-11.255 102.46-13.825L102.46-49.345L83.06-35.315C81.21-33.975 78.66-34.175 77.04-35.795L72.58-40.255C71.71-41.125 71.22-42.305 71.22-43.545L71.22-58.445C71.22-59.585 70.77-60.665 69.97-61.475C69.17-62.275 68.08-62.725 66.95-62.725L52.04-62.725C49.47-62.725 47.39-64.805 47.39-67.375Z"/>
   <path class="hierarchical-1:primary SFSymbolsPreview212121" d="M5.64-88.515C7.46-90.325 10.4-90.325 12.22-88.515L110.4 9.665C112.21 11.475 112.21 14.425 110.4 16.235C108.58 18.055 105.64 18.055 103.82 16.235L5.64-81.935C3.83-83.755 3.83-86.695 5.64-88.515Z"/>
  </g>
  <g id="Medium-M" transform="matrix(1 0 0 1 1689.19 1126)">
   <path class="hierarchical-0:secondary SFSymbolsPreview4D4D4D" d="M8.11-67.6C10.56-70.05 13.89-71.43 17.36-71.43L26.28-71.43C27.38-71.43 28.44-70.99 29.22-70.21L78.3-21.12C79.08-20.35 79.52-19.29 79.52-18.19L79.52-13.73C79.52-10.26 78.14-6.93 75.69-4.48C73.24-2.03 69.91-0.65 66.45-0.65L17.36-0.65C13.89-0.65 10.56-2.03 8.11-4.48C5.66-6.93 4.28-10.26 4.28-13.73L4.28-58.35C4.28-61.82 5.66-65.15 8.11-67.6ZM17.36-63.13C16.09-63.13 14.88-62.62 13.98-61.73C13.09-60.83 12.58-59.62 12.58-58.35L12.58-13.73C12.58-12.46 13.09-11.25 13.98-10.35C14.88-9.46 16.09-8.95 17.36-8.95L66.45-8.95C67.71-8.95 68.93-9.46 69.82-10.35C70.72-11.25 71.22-12.46 71.22-13.73L71.22-16.47L24.56-63.13L17.36-63.13ZM47.39-67.28C47.39-69.57 49.25-71.43 51.54-71.43L66.45-71.43C69.91-71.43 73.24-70.05 75.69-67.6C78.14-65.15 79.52-61.82 79.52-58.35L79.52-45.17L80.27-44.42L104.18-61.71C105.44-62.63 107.11-62.76 108.5-62.05C109.88-61.34 110.76-59.91 110.76-58.35L110.76-13.73C110.76-11.44 108.9-9.58 106.61-9.58C104.32-9.58 102.46-11.44 102.46-13.73L102.46-50.23L82.26-35.62C80.61-34.43 78.34-34.61 76.9-36.05L72.44-40.51C71.66-41.29 71.22-42.35 71.22-43.45L71.22-58.35C71.22-59.62 70.72-60.83 69.82-61.73C68.93-62.62 67.71-63.13 66.45-63.13L51.54-63.13C49.25-63.13 47.39-64.99 47.39-67.28Z"/>
   <path class="hierarchical-1:primary SFSymbolsPreview212121" d="M5.5-88.06C7.12-89.68 9.75-89.68 11.37-88.06L109.54 10.11C111.16 11.73 111.16 14.36 109.54 15.98C107.92 17.6 105.29 17.6 103.67 15.98L5.5-82.19C3.88-83.81 3.88-86.44 5.5-88.06Z"/>
  </g>
  <g id="Regular-M" transform="matrix(1 0 0 1 1393.13 1126)">
   <path class="hierarchical-0:secondary SFSymbolsPreview4D4D4D" d="M7.92-67.015C10.25-69.345 13.41-70.655 16.71-70.655L25.63-70.655C26.56-70.655 27.45-70.285 28.11-69.625L77.19-20.545C77.85-19.885 78.22-18.995 78.22-18.065L78.22-13.605C78.22-10.305 76.91-7.145 74.58-4.815C72.25-2.485 69.09-1.175 65.8-1.175L16.71-1.175C13.41-1.175 10.25-2.485 7.92-4.815C5.59-7.145 4.28-10.305 4.28-13.605L4.28-58.225C4.28-61.525 5.59-64.685 7.92-67.015ZM16.71-63.655C15.27-63.655 13.89-63.085 12.87-62.065C11.85-61.045 11.28-59.665 11.28-58.225L11.28-13.605C11.28-12.165 11.85-10.785 12.87-9.765C13.89-8.755 15.27-8.175 16.71-8.175L65.8-8.175C67.23-8.175 68.61-8.755 69.63-9.765C70.65-10.785 71.22-12.165 71.22-13.605L71.22-16.615L24.18-63.655L16.71-63.655ZM47.39-67.155C47.39-69.085 48.96-70.655 50.89-70.655L65.8-70.655C69.09-70.655 72.25-69.345 74.58-67.015C76.91-64.685 78.22-61.525 78.22-58.225L78.22-44.775L79.55-43.445L103.91-61.065C104.97-61.835 106.38-61.945 107.55-61.345C108.72-60.745 109.46-59.545 109.46-58.225L109.46-13.605C109.46-11.675 107.89-10.105 105.96-10.105C104.02-10.105 102.46-11.675 102.46-13.605L102.46-51.375L81.23-36.025C79.84-35.015 77.92-35.175 76.71-36.385L72.25-40.845C71.59-41.505 71.22-42.395 71.22-43.325L71.22-58.225C71.22-59.665 70.65-61.045 69.63-62.065C68.61-63.085 67.23-63.655 65.8-63.655L50.89-63.655C48.96-63.655 47.39-65.225 47.39-67.155Z"/>
   <path class="hierarchical-1:primary SFSymbolsPreview212121" d="M5.31-87.475C6.67-88.845 8.89-88.845 10.26-87.475L108.43 10.695C109.8 12.065 109.8 14.285 108.43 15.645C107.07 17.015 104.85 17.015 103.48 15.645L5.31-82.525C3.94-83.895 3.94-86.105 5.31-87.475Z"/>
  </g>
  <g id="Light-M" transform="matrix(1 0 0 1 1097.22 1126)">
   <path class="hierarchical-0:secondary SFSymbolsPreview4D4D4D" d="M7.69-66.285C9.87-68.465 12.82-69.695 15.91-69.695L24.83-69.695C25.55-69.695 26.24-69.405 26.74-68.905L75.83-19.815C76.34-19.305 76.62-18.625 76.62-17.905L76.62-13.445C76.62-10.355 75.4-7.405 73.22-5.225C71.03-3.045 68.08-1.815 64.99-1.815L15.91-1.815C12.82-1.815 9.87-3.045 7.69-5.225C5.51-7.405 4.28-10.355 4.28-13.445L4.28-58.065C4.28-61.155 5.51-64.105 7.69-66.285ZM15.91-64.295C14.26-64.295 12.67-63.635 11.51-62.465C10.34-61.305 9.68-59.715 9.68-58.065L9.68-13.445C9.68-11.795 10.34-10.205 11.51-9.045C12.67-7.875 14.26-7.215 15.91-7.215L64.99-7.215C66.65-7.215 68.23-7.875 69.4-9.045C70.56-10.205 71.22-11.795 71.22-13.445L71.22-16.785L23.71-64.295L15.91-64.295ZM47.39-66.995C47.39-68.485 48.6-69.695 50.09-69.695L64.99-69.695C68.08-69.695 71.03-68.465 73.22-66.285C75.4-64.105 76.62-61.155 76.62-58.065L76.62-44.285L78.66-42.235L103.57-60.255C104.4-60.855 105.48-60.935 106.39-60.475C107.29-60.015 107.86-59.085 107.86-58.065L107.86-13.445C107.86-11.955 106.65-10.745 105.16-10.745C103.67-10.745 102.46-11.955 102.46-13.445L102.46-52.785L79.96-36.515C78.89-35.735 77.41-35.855 76.47-36.795L72.01-41.255C71.5-41.765 71.22-42.445 71.22-43.165L71.22-58.065C71.22-59.715 70.56-61.305 69.4-62.465C68.23-63.635 66.65-64.295 64.99-64.295L50.09-64.295C48.6-64.295 47.39-65.505 47.39-66.995Z"/>
   <path class="hierarchical-1:primary SFSymbolsPreview212121" d="M5.07-86.755C6.13-87.805 7.84-87.805 8.89-86.755L107.07 11.425C108.12 12.475 108.12 14.185 107.07 15.235C106.01 16.295 104.3 16.295 103.25 15.235L5.07-82.935C4.02-83.985 4.02-85.695 5.07-86.755Z"/>
  </g>
  <g id="Thin-M" transform="matrix(1 0 0 1 801.56 1126)">
   <path class="hierarchical-0:secondary SFSymbolsPreview4D4D4D" d="M7.377-65.34C9.36-67.32 12.05-68.44 14.855-68.44L23.78-68.44C24.217-68.44 24.637-68.26 24.946-67.95L74.034-18.87C74.343-18.56 74.517-18.14 74.517-17.7L74.517-13.24C74.517-10.43 73.403-7.74 71.42-5.76C69.437-3.78 66.747-2.66 63.942-2.66L14.855-2.66C12.05-2.66 9.36-3.78 7.377-5.76C5.394-7.74 4.28-10.43 4.28-13.24L4.28-57.86C4.28-60.67 5.394-63.36 7.377-65.34ZM14.855-65.14C12.925-65.14 11.075-64.37 9.71-63.01C8.346-61.64 7.58-59.79 7.58-57.86L7.58-13.24C7.58-11.31 8.346-9.46 9.71-8.09C11.075-6.73 12.925-5.96 14.855-5.96L63.942-5.96C65.872-5.96 67.722-6.73 69.086-8.09C70.451-9.46 71.217-11.31 71.217-13.24L71.217-17.02L23.096-65.14L14.855-65.14ZM47.387-66.79C47.387-67.7 48.126-68.44 49.037-68.44L63.942-68.44C66.747-68.44 69.437-67.32 71.42-65.34C73.403-63.36 74.517-60.67 74.517-57.86L74.517-43.64L77.502-40.66L103.138-59.2C103.64-59.56 104.303-59.61 104.855-59.33C105.407-59.05 105.755-58.48 105.755-57.86L105.755-13.24C105.755-12.33 105.016-11.59 104.105-11.59C103.193-11.59 102.455-12.33 102.455-13.24L102.455-54.63L78.297-37.16C77.64-36.68 76.736-36.76 76.163-37.33L71.7-41.79C71.391-42.1 71.217-42.52 71.217-42.96L71.217-57.86C71.217-59.79 70.451-61.64 69.086-63.01C67.722-64.37 65.872-65.14 63.942-65.14L49.037-65.14C48.126-65.14 47.387-65.88 47.387-66.79Z"/>
   <path class="hierarchical-1:primary SFSymbolsPreview212121" d="M4.763-85.81C5.407-86.45 6.452-86.45 7.096-85.81L105.271 12.37C105.916 13.01 105.916 14.06 105.271 14.7C104.627 15.35 103.582 15.35 102.938 14.7L4.763-83.47C4.119-84.12 4.119-85.16 4.763-85.81Z"/>
  </g>
  <g id="Ultralight-M" transform="matrix(1 0 0 1 505.398 1126)">
   <path class="hierarchical-0:secondary SFSymbolsPreview4D4D4D" d="M7.217-64.845C9.097-66.725 11.647-67.785 14.306-67.785L23.231-67.785C23.522-67.785 23.802-67.665 24.008-67.455L73.096-18.375C73.302-18.165 73.418-17.885 73.418-17.595L73.418-13.135C73.418-10.475 72.362-7.925 70.482-6.045C68.602-4.165 66.052-3.105 63.393-3.105L14.306-3.105C11.647-3.105 9.097-4.165 7.217-6.045C5.337-7.925 4.28-10.475 4.28-13.135L4.28-57.755C4.28-60.415 5.337-62.965 7.217-64.845ZM14.306-65.585C12.23-65.585 10.24-64.755 8.772-63.285C7.305-61.825 6.481-59.835 6.481-57.755L6.481-13.135C6.481-11.055 7.305-9.065 8.772-7.595C10.24-6.135 12.23-5.305 14.306-5.305L63.393-5.305C65.468-5.305 67.459-6.135 68.926-7.595C70.394-9.065 71.218-11.055 71.218-13.135L71.218-17.135L22.775-65.585L14.306-65.585ZM63.393-65.585L48.488-65.585C47.881-65.585 47.388-66.075 47.388-66.685C47.388-67.285 47.881-67.785 48.488-67.785L63.393-67.785C66.052-67.785 68.602-66.725 70.482-64.845C72.362-62.965 73.418-60.415 73.418-57.755L73.418-43.305L76.895-39.825L102.911-58.645C103.246-58.885 103.688-58.925 104.056-58.735C104.424-58.545 104.656-58.165 104.656-57.755L104.656-13.135C104.656-12.525 104.163-12.035 103.556-12.035C102.948-12.035 102.456-12.525 102.456-13.135L102.456-55.605L77.425-37.495C76.987-37.185 76.385-37.225 76.003-37.615L71.54-42.075C71.334-42.285 71.218-42.555 71.218-42.855L71.218-57.755C71.218-59.835 70.394-61.825 68.926-63.285C67.459-64.755 65.468-65.585 63.393-65.585Z"/>
   <path class="hierarchical-1:primary SFSymbolsPreview212121" d="M4.603-85.315C5.032-85.745 5.729-85.745 6.158-85.315L104.333 12.865C104.763 13.295 104.763 13.995 104.333 14.415C103.904 14.845 103.207 14.845 102.778 14.415L4.603-83.755C4.173-84.185 4.173-84.885 4.603-85.315Z"/>
  </g>
  <g id="Black-S" transform="matrix(1 0 0 1 2883.68 696)">
   <path class="hierarchical-0:secondary SFSymbolsPreview4D4D4D" d="M8.41-64.1905C11.05-66.8345 14.64-68.3205 18.38-68.3205L25.38-68.3205C27.26-68.3205 29.07-67.5725 30.4-66.2405L39.14-57.4985C38.48-58.5804 38.09-59.8555 38.09-61.2204C38.09-65.1415 41.27-68.3205 45.19-68.3205L56.88-68.3205C60.62-68.3205 64.21-66.8345 66.85-64.1905C69.49-61.5465 70.98-57.9595 70.98-54.2204L70.98-50.3965L84.22-59.9725C86.38-61.5365 89.24-61.7565 91.61-60.5424C93.99-59.3295 95.48-56.8875 95.48-54.2204L95.48-19.2204C95.48-15.2985 92.3-12.1205 88.38-12.1205C84.46-12.1205 81.28-15.2985 81.28-19.2204L81.28-40.3214L71.54-33.2774C69.17-31.5645 66.06-31.5055 63.66-32.9825L68.9-27.7405C70.23-26.4095 70.98-24.6035 70.98-22.7204L70.98-19.2204C70.98-15.4805 69.49-11.8945 66.85-9.24947C64.21-6.60547 60.62-5.12047 56.88-5.12047L18.38-5.12047C14.64-5.12047 11.05-6.60547 8.41-9.24947C5.77-11.8945 4.28-15.4805 4.28-19.2204L4.28-54.2204C4.28-57.9595 5.77-61.5465 8.41-64.1905ZM18.48-54.1205L18.48-19.3205L56.78-19.3205L56.78-19.7795L22.44-54.1205L18.48-54.1205ZM57.84-38.8055C57.15-39.9165 56.78-41.2045 56.78-42.5305L56.78-54.1205L45.19-54.1205C43.83-54.1205 42.55-54.5055 41.47-55.1724L57.84-38.8055Z"/>
   <path class="hierarchical-1:primary SFSymbolsPreview212121" d="M6.36-80.2405C9.13-83.0134 13.63-83.0134 16.4-80.2405L93.4-3.24047C96.17-0.467475 96.17 4.02752 93.4 6.80052C90.63 9.57358 86.13 9.57358 83.36 6.80052L6.36-70.1995C3.59-72.9725 3.59-77.4675 6.36-80.2405Z"/>
  </g>
  <g id="Heavy-S" transform="matrix(1 0 0 1 2587.81 696)">
   <path class="hierarchical-0:secondary SFSymbolsPreview4D4D4D" d="M8.16-63.4214C10.65-65.9064 14.02-67.3024 17.53-67.3024L24.53-67.3024C26.19-67.3024 27.78-66.6445 28.95-65.4715L67.45-26.9715C68.62-25.7994 69.28-24.2104 69.28-22.5524L69.28-19.0524C69.28-15.5384 67.88-12.1684 65.4-9.6835C62.91-7.1985 59.54-5.8025 56.03-5.8025L17.53-5.8025C14.02-5.8025 10.65-7.1985 8.16-9.6835C5.68-12.1684 4.28-15.5384 4.28-19.0524L4.28-54.0524C4.28-57.5664 5.68-60.9364 8.16-63.4214ZM17.53-54.8024C17.33-54.8024 17.14-54.7234 17-54.5824C16.86-54.4425 16.78-54.2514 16.78-54.0524L16.78-19.0524C16.78-18.8534 16.86-18.6624 17-18.5224C17.14-18.3814 17.33-18.3024 17.53-18.3024L56.03-18.3024C56.23-18.3024 56.42-18.3814 56.56-18.5224C56.7-18.6624 56.78-18.8534 56.78-19.0524L56.78-19.9635L21.94-54.8024L17.53-54.8024ZM56.03-54.8024L44.34-54.8024C40.89-54.8024 38.09-57.6004 38.09-61.0524C38.09-64.5044 40.89-67.3024 44.34-67.3024L56.03-67.3024C59.54-67.3024 62.91-65.9064 65.4-63.4214C67.88-60.9364 69.28-57.5664 69.28-54.0524L69.28-48.5654L83.87-59.1164C85.77-60.4924 88.28-60.6864 90.37-59.6184C92.46-58.5504 93.78-56.4004 93.78-54.0524L93.78-19.0524C93.78-15.6004 90.98-12.8024 87.53-12.8024C84.08-12.8024 81.28-15.6004 81.28-19.0524L81.28-41.8184L70.19-33.7985C67.71-31.9994 64.28-32.2724 62.11-34.4434L58.61-37.9434C57.44-39.1155 56.78-40.7044 56.78-42.3625L56.78-54.0524C56.78-54.2514 56.7-54.4425 56.56-54.5824C56.42-54.7234 56.23-54.8024 56.03-54.8024Z"/>
   <path class="hierarchical-1:primary SFSymbolsPreview212121" d="M6.11-79.4715C8.55-81.9124 12.51-81.9124 14.95-79.4715L91.95-2.4715C94.39-0.0315 94.39 3.9265 91.95 6.3665C89.51 8.8075 85.55 8.8075 83.11 6.3665L6.11-70.6334C3.67-73.0734 3.67-77.0314 6.11-79.4715Z"/>
  </g>
  <g id="Bold-S" transform="matrix(1 0 0 1 2292.05 696)">
   <path class="hierarchical-0:secondary SFSymbolsPreview4D4D4D" d="M7.8825-62.358C10.1825-64.665 13.3125-65.961 16.5825-65.961L23.5825-65.961C24.9825-65.961 26.3325-65.402 27.3225-64.408L65.8225-25.908C66.8225-24.915 67.3825-23.566 67.3825-22.161L67.3825-18.661C67.3825-15.399 66.0825-12.27 63.7725-9.963C61.4725-7.657 58.3425-6.361 55.0825-6.361L16.5825-6.361C13.3125-6.361 10.1825-7.657 7.8825-9.963C5.5725-12.27 4.2825-15.399 4.2825-18.661L4.2825-53.661C4.2825-56.923 5.5725-60.051 7.8825-62.358ZM16.5825-55.361C16.1225-55.361 15.6925-55.182 15.3725-54.863C15.0525-54.544 14.8825-54.112 14.8825-53.661L14.8825-18.661C14.8825-18.21 15.0525-17.778 15.3725-17.459C15.6925-17.14 16.1225-16.961 16.5825-16.961L55.0825-16.961C55.5325-16.961 55.9625-17.14 56.2825-17.459C56.6025-17.778 56.7825-18.21 56.7825-18.661L56.7825-19.965L21.3825-55.361L16.5825-55.361ZM38.0925-60.661C38.0925-63.588 40.4625-65.961 43.3925-65.961L55.0825-65.961C58.3425-65.961 61.4725-64.665 63.7725-62.358C66.0825-60.051 67.3825-56.923 67.3825-53.661L67.3825-46.314L83.4725-57.955C85.0825-59.122 87.2125-59.286 88.9925-58.381C90.7625-57.475 91.8825-55.652 91.8825-53.661L91.8825-18.661C91.8825-15.734 89.5025-13.361 86.5825-13.361C83.6525-13.361 81.2825-15.734 81.2825-18.661L81.2825-43.286L68.6825-34.176C66.5725-32.651 63.6725-32.883 61.8325-34.723L58.3325-38.223C57.3325-39.217 56.7825-40.565 56.7825-41.971L56.7825-53.661C56.7825-54.112 56.6025-54.544 56.2825-54.863C55.9625-55.182 55.5325-55.361 55.0825-55.361L43.3925-55.361C40.4625-55.361 38.0925-57.734 38.0925-60.661Z"/>
   <path class="hierarchical-1:primary SFSymbolsPreview212121" d="M5.8325-78.408C7.9025-80.478 11.2525-80.478 13.3225-78.408L90.3225-1.408C92.3925 0.661 92.3925 4.017 90.3225 6.087C88.2525 8.157 84.9025 8.157 82.8325 6.087L5.8325-70.913C3.7625-72.983 3.7625-76.339 5.8325-78.408Z"/>
  </g>
  <g id="Semibold-S" transform="matrix(1 0 0 1 1995.99 696)">
   <path class="hierarchical-0:secondary SFSymbolsPreview4D4D4D" d="M7.69-61.769C9.88-63.954 12.84-65.181 15.93-65.181L22.93-65.181C24.16-65.181 25.35-64.692 26.22-63.819L64.72-25.319C65.59-24.447 66.08-23.265 66.08-22.031L66.08-18.531C66.08-15.442 64.85-12.478 62.67-10.294C60.48-8.109 57.52-6.881 54.43-6.881L15.93-6.881C12.84-6.881 9.88-8.109 7.69-10.294C5.51-12.478 4.28-15.442 4.28-18.531L4.28-53.531C4.28-56.621 5.51-59.584 7.69-61.769ZM15.93-55.881C15.31-55.881 14.71-55.634 14.27-55.193C13.83-54.752 13.58-54.155 13.58-53.531L13.58-18.531C13.58-17.908 13.83-17.31 14.27-16.87C14.71-16.429 15.31-16.181 15.93-16.181L54.43-16.181C55.05-16.181 55.65-16.429 56.09-16.87C56.53-17.31 56.78-17.908 56.78-18.531L56.78-20.105L21-55.881L15.93-55.881ZM54.43-55.881L42.74-55.881C40.17-55.881 38.09-57.963 38.09-60.531C38.09-63.1 40.17-65.181 42.74-65.181L54.43-65.181C57.52-65.181 60.48-63.954 62.67-61.769C64.85-59.584 66.08-56.621 66.08-53.531L66.08-44.912L83.2-57.299C84.62-58.323 86.49-58.467 88.05-57.672C89.6-56.878 90.58-55.278 90.58-53.531L90.58-18.531C90.58-15.963 88.5-13.881 85.93-13.881C83.36-13.881 81.28-15.963 81.28-18.531L81.28-44.429L67.66-34.574C65.81-33.235 63.26-33.439 61.64-35.053L58.14-38.553C57.27-39.425 56.78-40.608 56.78-41.841L56.78-53.531C56.78-54.155 56.53-54.752 56.09-55.193C55.65-55.634 55.05-55.881 54.43-55.881Z"/>
   <path class="hierarchical-1:primary SFSymbolsPreview212121" d="M5.64-77.819C7.46-79.635 10.4-79.635 12.22-77.819L89.22-0.819C91.03 0.996 91.03 3.941 89.22 5.757C87.4 7.573 84.46 7.573 82.64 5.757L5.64-71.243C3.83-73.059 3.83-76.004 5.64-77.819Z"/>
  </g>
  <g id="Medium-S" transform="matrix(1 0 0 1 1699.78 696)">
   <path class="hierarchical-0:secondary SFSymbolsPreview4D4D4D" d="M7.5525-61.3185C9.6425-63.4095 12.4725-64.5835 15.4325-64.5835L22.4325-64.5835C23.5325-64.5835 24.5925-64.1465 25.3625-63.3685L63.8625-24.8685C64.6425-24.0904 65.0825-23.0345 65.0825-21.9335L65.0825-18.4335C65.0825-15.4765 63.9125-12.6405 61.8125-10.5495C59.7225-8.45848 56.8925-7.28347 53.9325-7.28347L15.4325-7.28347C12.4725-7.28347 9.6425-8.45848 7.5525-10.5495C5.4525-12.6405 4.2825-15.4765 4.2825-18.4335L4.2825-53.4335C4.2825-56.3915 5.4525-59.2275 7.5525-61.3185ZM15.4325-56.2834C14.6725-56.2834 13.9525-55.9835 13.4125-55.4495C12.8825-54.9145 12.5825-54.1895 12.5825-53.4335L12.5825-18.4335C12.5825-17.6785 12.8825-16.9535 13.4125-16.4184C13.9525-15.8844 14.6725-15.5835 15.4325-15.5835L53.9325-15.5835C54.6925-15.5835 55.4125-15.8844 55.9525-16.4184C56.4825-16.9535 56.7825-17.6785 56.7825-18.4335L56.7825-20.2145L20.7125-56.2834L15.4325-56.2834ZM53.9325-56.2834L42.2425-56.2834C39.9525-56.2834 38.0925-58.1415 38.0925-60.4335C38.0925-62.7254 39.9525-64.5835 42.2425-64.5835L53.9325-64.5835C56.8925-64.5835 59.7225-63.4095 61.8125-61.3185C63.9125-59.2275 65.0825-56.3915 65.0825-53.4335L65.0825-43.8355L83.0025-56.7965C84.2625-57.7105 85.9325-57.8385 87.3225-57.1294C88.7125-56.4205 89.5825-54.9925 89.5825-53.4335L89.5825-18.4335C89.5825-16.1415 87.7225-14.2834 85.4325-14.2834C83.1425-14.2834 81.2825-16.1415 81.2825-18.4335L81.2825-45.3105L66.8625-34.8815C65.2125-33.6864 62.9425-33.8685 61.5025-35.3095L58.0025-38.8095C57.2225-39.5875 56.7825-40.6434 56.7825-41.7435L56.7825-53.4335C56.7825-54.1895 56.4825-54.9145 55.9525-55.4495C55.4125-55.9835 54.6925-56.2834 53.9325-56.2834Z"/>
   <path class="hierarchical-1:primary SFSymbolsPreview212121" d="M5.5025-77.3685C7.1225-78.9894 9.7425-78.9894 11.3625-77.3685L88.3625-0.368475C89.9925 1.25252 89.9925 3.87953 88.3625 5.50053C86.7425 7.12153 84.1225 7.12153 82.5025 5.50053L5.5025-71.4994C3.8725-73.1204 3.8725-75.7475 5.5025-77.3685Z"/>
  </g>
  <g id="Regular-S" transform="matrix(1 0 0 1 1403.72 696)">
   <path class="hierarchical-0:secondary SFSymbolsPreview4D4D4D" d="M7.36-60.7335C9.32-62.7024 12-63.8084 14.78-63.8084L21.78-63.8084C22.71-63.8084 23.6-63.4395 24.25-62.7835L62.75-24.2835C63.41-23.6265 63.78-22.7365 63.78-21.8084L63.78-18.3084C63.78-15.5235 62.67-12.8535 60.7-10.8835C58.74-8.9145 56.06-7.8085 53.28-7.8085L14.78-7.8085C12-7.8085 9.32-8.9145 7.36-10.8835C5.39-12.8535 4.28-15.5235 4.28-18.3084L4.28-53.3084C4.28-56.0935 5.39-58.7635 7.36-60.7335ZM14.78-56.8084C13.85-56.8084 12.96-56.4395 12.31-55.7835C11.65-55.1265 11.28-54.2365 11.28-53.3084L11.28-18.3084C11.28-17.3804 11.65-16.4905 12.31-15.8335C12.96-15.1775 13.85-14.8084 14.78-14.8084L53.28-14.8084C54.21-14.8084 55.1-15.1775 55.75-15.8335C56.41-16.4905 56.78-17.3804 56.78-18.3084L56.78-20.3585L20.33-56.8084L14.78-56.8084ZM53.28-56.8084L41.59-56.8084C39.66-56.8084 38.09-58.3755 38.09-60.3084C38.09-62.2415 39.66-63.8084 41.59-63.8084L53.28-63.8084C56.06-63.8084 58.74-62.7024 60.7-60.7335C62.67-58.7635 63.78-56.0935 63.78-53.3084L63.78-43.0685L64.15-42.7024L82.73-56.1445C83.79-56.9144 85.2-57.0235 86.37-56.4255C87.54-55.8274 88.28-54.6235 88.28-53.3084L88.28-18.3084C88.28-16.3755 86.71-14.8084 84.78-14.8084C82.85-14.8084 81.28-16.3755 81.28-18.3084L81.28-46.4574L65.83-35.2825C64.44-34.2755 62.52-34.4284 61.31-35.6435L57.81-39.1435C57.15-39.8005 56.78-40.6905 56.78-41.6185L56.78-53.3084C56.78-54.2365 56.41-55.1265 55.75-55.7835C55.1-56.4395 54.21-56.8084 53.28-56.8084Z"/>
   <path class="hierarchical-1:primary SFSymbolsPreview212121" d="M5.31-76.7835C6.67-78.1505 8.89-78.1505 10.25-76.7835L87.25 0.2165C88.62 1.5835 88.62 3.7995 87.25 5.1665C85.89 6.5335 83.67 6.5335 82.31 5.1665L5.31-71.8335C3.94-73.2005 3.94-75.4165 5.31-76.7835Z"/>
  </g>
  <g id="Light-S" transform="matrix(1 0 0 1 1107.81 696)">
   <path class="hierarchical-0:secondary SFSymbolsPreview4D4D4D" d="M7.12-60.0104C8.94-61.8294 11.41-62.8514 13.98-62.8514L20.98-62.8514C21.7-62.8514 22.38-62.5675 22.89-62.0604L61.39-23.5604C61.9-23.0545 62.18-22.3674 62.18-21.6514L62.18-18.1514C62.18-15.5794 61.16-13.1114 59.34-11.2924C57.52-9.4735 55.05-8.4515 52.48-8.4515L13.98-8.4515C11.41-8.4515 8.94-9.4735 7.12-11.2924C5.3-13.1114 4.28-15.5794 4.28-18.1514L4.28-53.1514C4.28-55.7244 5.3-58.1914 7.12-60.0104ZM13.98-57.4514C12.84-57.4514 11.75-56.9984 10.94-56.1925C10.13-55.3854 9.68-54.2924 9.68-53.1514L9.68-18.1514C9.68-17.0114 10.13-15.9174 10.94-15.1114C11.75-14.3045 12.84-13.8514 13.98-13.8514L52.48-13.8514C53.62-13.8514 54.71-14.3045 55.52-15.1114C56.33-15.9174 56.78-17.0114 56.78-18.1514L56.78-20.5335L19.86-57.4514L13.98-57.4514ZM38.09-60.1514C38.09-61.6424 39.3-62.8514 40.79-62.8514L52.48-62.8514C55.05-62.8514 57.52-61.8294 59.34-60.0104C61.16-58.1914 62.18-55.7244 62.18-53.1514L62.18-42.5804L63.26-41.4984L82.4-55.3394C83.22-55.9334 84.3-56.0174 85.21-55.5564C86.11-55.0944 86.68-54.1664 86.68-53.1514L86.68-18.1514C86.68-16.6604 85.47-15.4514 83.98-15.4514C82.49-15.4514 81.28-16.6604 81.28-18.1514L81.28-47.8665L64.56-35.7745C63.49-34.9965 62.01-35.1144 61.07-36.0524L57.57-39.5524C57.06-40.0584 56.78-40.7455 56.78-41.4614L56.78-53.1514C56.78-54.2924 56.33-55.3854 55.52-56.1925C54.71-56.9984 53.62-57.4514 52.48-57.4514L40.79-57.4514C39.3-57.4514 38.09-58.6604 38.09-60.1514Z"/>
   <path class="hierarchical-1:primary SFSymbolsPreview212121" d="M5.07-76.0604C6.13-77.1154 7.83-77.1154 8.89-76.0604L85.89 0.9395C86.94 1.9935 86.94 3.7035 85.89 4.7575C84.83 5.8115 83.13 5.8115 82.07 4.7575L5.07-72.2424C4.02-73.2964 4.02-75.0065 5.07-76.0604Z"/>
  </g>
  <g id="Thin-S" transform="matrix(1 0 0 1 812.147 696)">
   <path class="hierarchical-0:secondary SFSymbolsPreview4D4D4D" d="M6.814-59.0625C8.436-60.6844 10.636-61.5956 12.93-61.5956L19.93-61.5956C20.368-61.5956 20.787-61.4226 21.097-61.1124L59.597-22.6124C59.906-22.3034 60.08-21.8836 60.08-21.4456L60.08-17.9456C60.08-15.6514 59.169-13.4515 57.547-11.8294C55.924-10.2074 53.724-9.2955 51.43-9.2955L12.93-9.2955C10.636-9.2955 8.436-10.2074 6.814-11.8294C5.191-13.4515 4.28-15.6514 4.28-17.9456L4.28-52.9456C4.28-55.2405 5.191-57.4406 6.814-59.0625ZM12.93-58.2954C11.511-58.2954 10.15-57.7324 9.147-56.7284C8.144-55.7255 7.58-54.3646 7.58-52.9456L7.58-17.9456C7.58-16.5276 8.144-15.1666 9.147-14.1626C10.15-13.1594 11.511-12.5956 12.93-12.5956L51.43-12.5956C52.849-12.5956 54.21-13.1594 55.213-14.1626C56.216-15.1666 56.78-16.5276 56.78-17.9456L56.78-20.7626L19.247-58.2954L12.93-58.2954ZM51.43-58.2954L39.74-58.2954C38.829-58.2954 38.09-59.0344 38.09-59.9456C38.09-60.8574 38.829-61.5956 39.74-61.5956L51.43-61.5956C53.724-61.5956 55.924-60.6844 57.547-59.0625C59.169-57.4406 60.08-55.2405 60.08-52.9456L60.08-41.9394L62.102-39.9176L81.963-54.2826C82.465-54.6464 83.129-54.6975 83.681-54.4154C84.233-54.1336 84.58-53.5656 84.58-52.9456L84.58-17.9456C84.58-17.0344 83.841-16.2954 82.93-16.2954C82.019-16.2954 81.28-17.0344 81.28-17.9456L81.28-49.7165L62.897-36.4194C62.241-35.9444 61.336-36.0164 60.763-36.5896L57.263-40.0896C56.954-40.3986 56.78-40.8184 56.78-41.2554L56.78-52.9456C56.78-54.3646 56.216-55.7255 55.213-56.7284C54.21-57.7324 52.849-58.2954 51.43-58.2954Z"/>
   <path class="hierarchical-1:primary SFSymbolsPreview212121" d="M4.763-75.1124C5.408-75.7574 6.452-75.7574 7.097-75.1124L84.097 1.8875C84.741 2.5315 84.741 3.5765 84.097 4.2205C83.452 4.8655 82.408 4.8655 81.763 4.2205L4.763-72.7794C4.119-73.4235 4.119-74.4684 4.763-75.1124Z"/>
  </g>
  <g id="Ultralight-S" transform="matrix(1 0 0 1 515.986 696)">
   <path class="hierarchical-0:secondary SFSymbolsPreview4D4D4D" d="M6.652-58.569C8.171-60.088 10.232-60.942 12.38-60.942L19.38-60.942C19.672-60.942 19.951-60.826 20.158-60.619L58.658-22.119C58.864-21.913 58.98-21.633 58.98-21.342L58.98-17.842C58.98-15.693 58.127-13.633 56.607-12.114C55.088-10.595 53.028-9.742 50.88-9.742L12.38-9.742C10.232-9.742 8.171-10.595 6.652-12.114C5.133-13.633 4.28-15.693 4.28-17.842L4.28-52.842C4.28-54.99 5.133-57.05 6.652-58.569ZM12.38-58.742C10.815-58.742 9.314-58.12 8.208-57.013C7.102-55.907 6.48-54.406 6.48-52.842L6.48-17.842C6.48-16.277 7.102-14.776 8.208-13.67C9.314-12.563 10.815-11.942 12.38-11.942L50.88-11.942C52.445-11.942 53.945-12.563 55.052-13.67C56.158-14.776 56.78-16.277 56.78-17.842L56.78-20.886L18.924-58.742L12.38-58.742ZM38.09-59.842C38.09-60.449 38.582-60.942 39.19-60.942L50.88-60.942C53.028-60.942 55.088-60.088 56.607-58.569C58.127-57.05 58.98-54.99 58.98-52.842L58.98-41.607L61.495-39.092L81.735-53.733C82.07-53.975 82.512-54.009 82.88-53.821C83.248-53.633 83.48-53.255 83.48-52.842L83.48-17.842C83.48-17.234 82.987-16.742 82.38-16.742C81.772-16.742 81.28-17.234 81.28-17.842L81.28-50.688L62.025-36.76C61.587-36.444 60.984-36.492 60.602-36.874L57.102-40.374C56.896-40.58 56.78-40.86 56.78-41.152L56.78-52.842C56.78-54.406 56.158-55.907 55.052-57.013C53.945-58.12 52.445-58.742 50.88-58.742L39.19-58.742C38.582-58.742 38.09-59.234 38.09-59.842Z"/>
   <path class="hierarchical-1:primary SFSymbolsPreview212121" d="M4.602-74.619C5.032-75.049 5.728-75.049 6.158-74.619L83.158 2.381C83.587 2.81 83.587 3.507 83.158 3.936C82.728 4.366 82.032 4.366 81.602 3.936L4.602-73.064C4.173-73.493 4.173-74.19 4.602-74.619Z"/>
  </g>
 </g>
</svg>
