<?xml version="1.0" encoding="UTF-8"?>
<!--Generator: Apple Native CoreSVG 175-->
<!DOCTYPE svg
PUBLIC "-//W3C//DTD SVG 1.1//EN"
       "http://www.w3.org/Graphics/SVG/1.1/DTD/svg11.dtd">
<svg version="1.1" xmlns="http://www.w3.org/2000/svg" xmlns:xlink="http://www.w3.org/1999/xlink" width="3300" height="2200">
 <!--glyph: "", point size: 100.0, font version: "17.0d12e1", template writer version: "65.1"-->
 <g id="Notes">
  <rect height="2200" id="artboard" style="fill:white;opacity:1" width="3300" x="0" y="0"/>
  <line style="fill:none;stroke:black;opacity:1;stroke-width:0.5;" x1="263" x2="3036" y1="292" y2="292"/>
  <text style="stroke:none;fill:black;font-family:sans-serif;font-size:13;font-weight:bold;" transform="matrix(1 0 0 1 263 322)">Weight/Scale Variations</text>
  <text style="stroke:none;fill:black;font-family:sans-serif;font-size:13;text-anchor:middle;" transform="matrix(1 0 0 1 559.711 322)">Ultralight</text>
  <text style="stroke:none;fill:black;font-family:sans-serif;font-size:13;text-anchor:middle;" transform="matrix(1 0 0 1 856.422 322)">Thin</text>
  <text style="stroke:none;fill:black;font-family:sans-serif;font-size:13;text-anchor:middle;" transform="matrix(1 0 0 1 1153.13 322)">Light</text>
  <text style="stroke:none;fill:black;font-family:sans-serif;font-size:13;text-anchor:middle;" transform="matrix(1 0 0 1 1449.84 322)">Regular</text>
  <text style="stroke:none;fill:black;font-family:sans-serif;font-size:13;text-anchor:middle;" transform="matrix(1 0 0 1 1746.56 322)">Medium</text>
  <text style="stroke:none;fill:black;font-family:sans-serif;font-size:13;text-anchor:middle;" transform="matrix(1 0 0 1 2043.27 322)">Semibold</text>
  <text style="stroke:none;fill:black;font-family:sans-serif;font-size:13;text-anchor:middle;" transform="matrix(1 0 0 1 2339.98 322)">Bold</text>
  <text style="stroke:none;fill:black;font-family:sans-serif;font-size:13;text-anchor:middle;" transform="matrix(1 0 0 1 2636.69 322)">Heavy</text>
  <text style="stroke:none;fill:black;font-family:sans-serif;font-size:13;text-anchor:middle;" transform="matrix(1 0 0 1 2933.4 322)">Black</text>
  <line style="fill:none;stroke:black;opacity:1;stroke-width:0.5;" x1="263" x2="3036" y1="1903" y2="1903"/>
  <g transform="matrix(1 0 0 1 263 1933)">
   <path d="M9.24805 0.830078Q10.8691 0.830078 12.2949 0.214844Q13.7207-0.400391 14.8096-1.49414Q15.8984-2.58789 16.5186-4.01367Q17.1387-5.43945 17.1387-7.05078Q17.1387-8.66211 16.5186-10.0879Q15.8984-11.5137 14.8047-12.6074Q13.7109-13.7012 12.2852-14.3164Q10.8594-14.9316 9.23828-14.9316Q7.62695-14.9316 6.20117-14.3164Q4.77539-13.7012 3.69141-12.6074Q2.60742-11.5137 1.9873-10.0879Q1.36719-8.66211 1.36719-7.05078Q1.36719-5.43945 1.9873-4.01367Q2.60742-2.58789 3.69629-1.49414Q4.78516-0.400391 6.21094 0.214844Q7.63672 0.830078 9.24805 0.830078ZM9.24805-0.654297Q7.91992-0.654297 6.7627-1.14746Q5.60547-1.64062 4.73145-2.51953Q3.85742-3.39844 3.36426-4.56055Q2.87109-5.72266 2.87109-7.05078Q2.87109-8.37891 3.35938-9.54102Q3.84766-10.7031 4.72168-11.582Q5.5957-12.4609 6.75293-12.9541Q7.91016-13.4473 9.23828-13.4473Q10.5762-13.4473 11.7334-12.9541Q12.8906-12.4609 13.7695-11.582Q14.6484-10.7031 15.1465-9.54102Q15.6445-8.37891 15.6445-7.05078Q15.6445-5.72266 15.1514-4.56055Q14.6582-3.39844 13.7842-2.51953Q12.9102-1.64062 11.748-1.14746Q10.5859-0.654297 9.24805-0.654297ZM5.6543-7.05078Q5.6543-6.72852 5.85938-6.52832Q6.06445-6.32812 6.40625-6.32812L8.51562-6.32812L8.51562-4.20898Q8.51562-3.88672 8.71094-3.67676Q8.90625-3.4668 9.23828-3.4668Q9.56055-3.4668 9.77051-3.67676Q9.98047-3.88672 9.98047-4.20898L9.98047-6.32812L12.0898-6.32812Q12.4219-6.32812 12.627-6.52832Q12.832-6.72852 12.832-7.05078Q12.832-7.38281 12.627-7.58789Q12.4219-7.79297 12.0898-7.79297L9.98047-7.79297L9.98047-9.90234Q9.98047-10.2344 9.77051-10.4443Q9.56055-10.6543 9.23828-10.6543Q8.90625-10.6543 8.71094-10.4443Q8.51562-10.2344 8.51562-9.90234L8.51562-7.79297L6.40625-7.79297Q6.06445-7.79297 5.85938-7.58789Q5.6543-7.38281 5.6543-7.05078Z"/>
  </g>
  <g transform="matrix(1 0 0 1 281.867 1933)">
   <path d="M11.709 2.91016Q13.75 2.91016 15.5518 2.12891Q17.3535 1.34766 18.7305-0.0292969Q20.1074-1.40625 20.8887-3.20801Q21.6699-5.00977 21.6699-7.05078Q21.6699-9.0918 20.8887-10.8936Q20.1074-12.6953 18.7305-14.0723Q17.3535-15.4492 15.5469-16.2305Q13.7402-17.0117 11.6992-17.0117Q9.6582-17.0117 7.85645-16.2305Q6.05469-15.4492 4.68262-14.0723Q3.31055-12.6953 2.5293-10.8936Q1.74805-9.0918 1.74805-7.05078Q1.74805-5.00977 2.5293-3.20801Q3.31055-1.40625 4.6875-0.0292969Q6.06445 1.34766 7.86621 2.12891Q9.66797 2.91016 11.709 2.91016ZM11.709 1.25Q9.98047 1.25 8.47656 0.605469Q6.97266-0.0390625 5.83496-1.17676Q4.69727-2.31445 4.05762-3.81836Q3.41797-5.32227 3.41797-7.05078Q3.41797-8.7793 4.05762-10.2832Q4.69727-11.7871 5.83008-12.9297Q6.96289-14.0723 8.4668-14.7119Q9.9707-15.3516 11.6992-15.3516Q13.4277-15.3516 14.9316-14.7119Q16.4355-14.0723 17.5781-12.9297Q18.7207-11.7871 19.3652-10.2832Q20.0098-8.7793 20.0098-7.05078Q20.0098-5.32227 19.3701-3.81836Q18.7305-2.31445 17.5928-1.17676Q16.4551-0.0390625 14.9463 0.605469Q13.4375 1.25 11.709 1.25ZM7.17773-7.05078Q7.17773-6.69922 7.41211-6.47461Q7.64648-6.25 8.01758-6.25L10.8887-6.25L10.8887-3.36914Q10.8887-2.99805 11.1133-2.76855Q11.3379-2.53906 11.6895-2.53906Q12.0605-2.53906 12.29-2.76855Q12.5195-2.99805 12.5195-3.36914L12.5195-6.25L15.4004-6.25Q15.7715-6.25 16.001-6.47461Q16.2305-6.69922 16.2305-7.05078Q16.2305-7.42188 16.001-7.65137Q15.7715-7.88086 15.4004-7.88086L12.5195-7.88086L12.5195-10.752Q12.5195-11.1328 12.29-11.3623Q12.0605-11.5918 11.6895-11.5918Q11.3379-11.5918 11.1133-11.3574Q10.8887-11.123 10.8887-10.752L10.8887-7.88086L8.01758-7.88086Q7.63672-7.88086 7.40723-7.65137Q7.17773-7.42188 7.17773-7.05078Z"/>
  </g>
  <g transform="matrix(1 0 0 1 305.646 1933)">
   <path d="M14.9707 5.66406Q17.0605 5.66406 18.96 5.01465Q20.8594 4.36523 22.4512 3.19336Q24.043 2.02148 25.2197 0.429688Q26.3965-1.16211 27.0459-3.06641Q27.6953-4.9707 27.6953-7.05078Q27.6953-9.14062 27.0459-11.04Q26.3965-12.9395 25.2197-14.5312Q24.043-16.123 22.4512-17.2998Q20.8594-18.4766 18.9551-19.126Q17.0508-19.7754 14.9609-19.7754Q12.8711-19.7754 10.9717-19.126Q9.07227-18.4766 7.48535-17.2998Q5.89844-16.123 4.72168-14.5312Q3.54492-12.9395 2.90039-11.04Q2.25586-9.14062 2.25586-7.05078Q2.25586-4.9707 2.90527-3.06641Q3.55469-1.16211 4.72656 0.429688Q5.89844 2.02148 7.49023 3.19336Q9.08203 4.36523 10.9814 5.01465Q12.8809 5.66406 14.9707 5.66406ZM14.9707 3.84766Q13.1641 3.84766 11.5283 3.2959Q9.89258 2.74414 8.53516 1.74805Q7.17773 0.751953 6.17676-0.610352Q5.17578-1.97266 4.62891-3.6084Q4.08203-5.24414 4.08203-7.05078Q4.08203-8.86719 4.62891-10.5029Q5.17578-12.1387 6.17188-13.501Q7.16797-14.8633 8.52539-15.8594Q9.88281-16.8555 11.5186-17.4023Q13.1543-17.9492 14.9609-17.9492Q16.7773-17.9492 18.4131-17.4023Q20.0488-16.8555 21.4111-15.8594Q22.7734-14.8633 23.7695-13.501Q24.7656-12.1387 25.3174-10.5029Q25.8691-8.86719 25.8691-7.05078Q25.8789-5.24414 25.332-3.6084Q24.7852-1.97266 23.7842-0.610352Q22.7832 0.751953 21.4209 1.74805Q20.0586 2.74414 18.4229 3.2959Q16.7871 3.84766 14.9707 3.84766ZM9.19922-7.05078Q9.19922-6.66992 9.45801-6.4209Q9.7168-6.17188 10.1172-6.17188L14.0625-6.17188L14.0625-2.2168Q14.0625-1.81641 14.3115-1.55762Q14.5605-1.29883 14.9512-1.29883Q15.3516-1.29883 15.6104-1.55273Q15.8691-1.80664 15.8691-2.2168L15.8691-6.17188L19.8242-6.17188Q20.2246-6.17188 20.4785-6.4209Q20.7324-6.66992 20.7324-7.05078Q20.7324-7.46094 20.4785-7.71484Q20.2246-7.96875 19.8242-7.96875L15.8691-7.96875L15.8691-11.9141Q15.8691-12.3242 15.6104-12.583Q15.3516-12.8418 14.9512-12.8418Q14.5605-12.8418 14.3115-12.583Q14.0625-12.3242 14.0625-11.9141L14.0625-7.96875L10.1172-7.96875Q9.70703-7.96875 9.45312-7.71484Q9.19922-7.46094 9.19922-7.05078Z"/>
  </g>
  <text style="stroke:none;fill:black;font-family:sans-serif;font-size:13;font-weight:bold;" transform="matrix(1 0 0 1 263 1953)">Design Variations</text>
  <text style="stroke:none;fill:black;font-family:sans-serif;font-size:13;" transform="matrix(1 0 0 1 263 1971)">Symbols are supported in up to nine weights and three scales.</text>
  <text style="stroke:none;fill:black;font-family:sans-serif;font-size:13;" transform="matrix(1 0 0 1 263 1989)">For optimal layout with text and other symbols, vertically align</text>
  <text style="stroke:none;fill:black;font-family:sans-serif;font-size:13;" transform="matrix(1 0 0 1 263 2007)">symbols with the adjacent text.</text>
  <line style="fill:none;stroke:#00AEEF;stroke-width:0.5;opacity:1.0;" x1="776" x2="776" y1="1919" y2="1933"/>
  <g transform="matrix(1 0 0 1 776 1933)">
   <path d="M3.31055 0.15625Q3.70117 0.15625 3.91602-0.00976562Q4.13086-0.175781 4.26758-0.585938L5.52734-4.0332L11.2891-4.0332L12.5488-0.585938Q12.6855-0.175781 12.9004-0.00976562Q13.1152 0.15625 13.4961 0.15625Q13.8867 0.15625 14.1162-0.0585938Q14.3457-0.273438 14.3457-0.644531Q14.3457-0.869141 14.2383-1.17188L9.6582-13.3691Q9.48242-13.8184 9.17969-14.043Q8.87695-14.2676 8.4082-14.2676Q7.5-14.2676 7.17773-13.3789L2.59766-1.16211Q2.49023-0.859375 2.49023-0.634766Q2.49023-0.263672 2.70996-0.0537109Q2.92969 0.15625 3.31055 0.15625ZM6.00586-5.51758L8.37891-12.0898L8.42773-12.0898L10.8008-5.51758Z"/>
  </g>
  <line style="fill:none;stroke:#00AEEF;stroke-width:0.5;opacity:1.0;" x1="793.197" x2="793.197" y1="1919" y2="1933"/>
  <text style="stroke:none;fill:black;font-family:sans-serif;font-size:13;font-weight:bold;" transform="matrix(1 0 0 1 776 1953)">Margins</text>
  <text style="stroke:none;fill:black;font-family:sans-serif;font-size:13;" transform="matrix(1 0 0 1 776 1971)">Leading and trailing margins on the left and right side of each symbol</text>
  <text style="stroke:none;fill:black;font-family:sans-serif;font-size:13;" transform="matrix(1 0 0 1 776 1989)">can be adjusted by modifying the x-location of the margin guidelines.</text>
  <text style="stroke:none;fill:black;font-family:sans-serif;font-size:13;" transform="matrix(1 0 0 1 776 2007)">Modifications are automatically applied proportionally to all</text>
  <text style="stroke:none;fill:black;font-family:sans-serif;font-size:13;" transform="matrix(1 0 0 1 776 2025)">scales and weights.</text>
  <g transform="matrix(1 0 0 1 1289 1933)">
   <path d="M2.8418 1.86523L4.54102 3.57422Q5.18555 4.22852 5.90332 4.17969Q6.62109 4.13086 7.31445 3.35938L18.0078-8.42773L17.041-9.4043L6.42578 2.27539Q6.16211 2.57812 5.89355 2.61719Q5.625 2.65625 5.27344 2.30469L4.10156 1.14258Q3.75 0.791016 3.79395 0.522461Q3.83789 0.253906 4.14062-0.0195312L15.6152-10.8203L14.6387-11.7871L3.04688-0.898438Q2.30469-0.214844 2.25098 0.498047Q2.19727 1.21094 2.8418 1.86523ZM9.25781-16.3281Q8.94531-16.0254 8.90625-15.6348Q8.86719-15.2441 9.04297-14.9512Q9.21875-14.6777 9.55566-14.541Q9.89258-14.4043 10.3809-14.5215Q11.4746-14.7754 12.5977-14.7314Q13.7207-14.6875 14.7949-13.9844L14.209-12.5293Q13.9551-11.9043 14.0674-11.4404Q14.1797-10.9766 14.5801-10.5664L16.875-8.25195Q17.2363-7.88086 17.5781-7.82227Q17.9199-7.76367 18.3398-7.8418L19.4043-8.03711L20.0684-7.36328L20.0293-6.80664Q20-6.43555 20.1221-6.12305Q20.2441-5.81055 20.6055-5.44922L21.3672-4.70703Q21.7285-4.3457 22.1533-4.33105Q22.5781-4.31641 22.9297-4.66797L25.8398-7.58789Q26.1914-7.93945 26.1816-8.35449Q26.1719-8.76953 25.8105-9.13086L25.0391-9.89258Q24.6875-10.2539 24.3799-10.3857Q24.0723-10.5176 23.7109-10.4883L23.1348-10.4395L22.4902-11.0742L22.7344-12.1973Q22.832-12.6172 22.6953-12.9834Q22.5586-13.3496 22.1191-13.7891L19.9219-15.9766Q18.6719-17.2168 17.2607-17.8369Q15.8496-18.457 14.4189-18.4814Q12.9883-18.5059 11.665-17.959Q10.3418-17.4121 9.25781-16.3281ZM10.752-15.957Q11.6602-16.6211 12.7002-16.9043Q13.7402-17.1875 14.8047-17.085Q15.8691-16.9824 16.8701-16.5137Q17.8711-16.0449 18.7012-15.2051L21.1328-12.793Q21.3086-12.6172 21.3525-12.4512Q21.3965-12.2852 21.3379-12.0312L21.0156-10.5469L22.5195-9.0625L23.5059-9.12109Q23.6914-9.13086 23.7891-9.09668Q23.8867-9.0625 24.0332-8.91602L24.6094-8.33984L22.168-5.89844L21.5918-6.47461Q21.4453-6.62109 21.4062-6.71875Q21.3672-6.81641 21.377-7.01172L21.4453-7.98828L19.9512-9.47266L18.4277-9.21875Q18.1836-9.16992 18.042-9.2041Q17.9004-9.23828 17.7148-9.41406L15.7129-11.416Q15.5176-11.5918 15.4932-11.7529Q15.4688-11.9141 15.5859-12.1875L16.4648-14.2773Q15.293-15.3711 13.8281-15.791Q12.3633-16.2109 10.8398-15.7617Q10.7227-15.7324 10.6885-15.8057Q10.6543-15.8789 10.752-15.957Z"/>
  </g>
  <text style="stroke:none;fill:black;font-family:sans-serif;font-size:13;font-weight:bold;" transform="matrix(1 0 0 1 1289 1953)">Exporting</text>
  <text style="stroke:none;fill:black;font-family:sans-serif;font-size:13;" transform="matrix(1 0 0 1 1289 1971)">Symbols should be outlined when exporting to ensure the</text>
  <text style="stroke:none;fill:black;font-family:sans-serif;font-size:13;" transform="matrix(1 0 0 1 1289 1989)">design is preserved when submitting to Xcode.</text>
  <text id="template-version" style="stroke:none;fill:black;font-family:sans-serif;font-size:13;text-anchor:end;" transform="matrix(1 0 0 1 3036 1933)">Template v.3.0</text>
  <text style="stroke:none;fill:black;font-family:sans-serif;font-size:13;text-anchor:end;" transform="matrix(1 0 0 1 3036 1951)">Requires Xcode 13 or greater</text>
  <text id="descriptive-name" style="stroke:none;fill:black;font-family:sans-serif;font-size:13;text-anchor:end;" transform="matrix(1 0 0 1 3036 1969)">Generated from aperture</text>
  <text style="stroke:none;fill:black;font-family:sans-serif;font-size:13;text-anchor:end;" transform="matrix(1 0 0 1 3036 1987)">Typeset at 100 points</text>
  <text style="stroke:none;fill:black;font-family:sans-serif;font-size:13;" transform="matrix(1 0 0 1 263 726)">Small</text>
  <text style="stroke:none;fill:black;font-family:sans-serif;font-size:13;" transform="matrix(1 0 0 1 263 1156)">Medium</text>
  <text style="stroke:none;fill:black;font-family:sans-serif;font-size:13;" transform="matrix(1 0 0 1 263 1586)">Large</text>
 </g>
 <g id="Guides">
  <g id="H-reference" style="fill:#27AAE1;stroke:none;" transform="matrix(1 0 0 1 339 696)">
   <path d="M0.976562 0L3.66211 0L29.3457-67.1387L30.0293-67.1387L30.0293-70.459L28.125-70.459ZM11.6699-24.4629L46.9727-24.4629L46.2402-26.709L12.4512-26.709ZM55.127 0L57.7637 0L30.6152-70.459L29.4434-70.459L29.4434-67.1387Z"/>
  </g>
  <line id="Baseline-S" style="fill:none;stroke:#27AAE1;opacity:1;stroke-width:0.5;" x1="263" x2="3036" y1="696" y2="696"/>
  <line id="Capline-S" style="fill:none;stroke:#27AAE1;opacity:1;stroke-width:0.5;" x1="263" x2="3036" y1="625.541" y2="625.541"/>
  <g id="H-reference" style="fill:#27AAE1;stroke:none;" transform="matrix(1 0 0 1 339 1126)">
   <path d="M0.976562 0L3.66211 0L29.3457-67.1387L30.0293-67.1387L30.0293-70.459L28.125-70.459ZM11.6699-24.4629L46.9727-24.4629L46.2402-26.709L12.4512-26.709ZM55.127 0L57.7637 0L30.6152-70.459L29.4434-70.459L29.4434-67.1387Z"/>
  </g>
  <line id="Baseline-M" style="fill:none;stroke:#27AAE1;opacity:1;stroke-width:0.5;" x1="263" x2="3036" y1="1126" y2="1126"/>
  <line id="Capline-M" style="fill:none;stroke:#27AAE1;opacity:1;stroke-width:0.5;" x1="263" x2="3036" y1="1055.54" y2="1055.54"/>
  <g id="H-reference" style="fill:#27AAE1;stroke:none;" transform="matrix(1 0 0 1 339 1556)">
   <path d="M0.976562 0L3.66211 0L29.3457-67.1387L30.0293-67.1387L30.0293-70.459L28.125-70.459ZM11.6699-24.4629L46.9727-24.4629L46.2402-26.709L12.4512-26.709ZM55.127 0L57.7637 0L30.6152-70.459L29.4434-70.459L29.4434-67.1387Z"/>
  </g>
  <line id="Baseline-L" style="fill:none;stroke:#27AAE1;opacity:1;stroke-width:0.5;" x1="263" x2="3036" y1="1556" y2="1556"/>
  <line id="Capline-L" style="fill:none;stroke:#27AAE1;opacity:1;stroke-width:0.5;" x1="263" x2="3036" y1="1485.54" y2="1485.54"/>
  <line id="left-margin-Regular-M" style="fill:none;stroke:#00AEEF;stroke-width:0.5;opacity:1.0;" x1="1392.45" x2="1392.45" y1="1030.78" y2="1150.12"/>
  <line id="right-margin-Regular-M" style="fill:none;stroke:#00AEEF;stroke-width:0.5;opacity:1.0;" x1="1507.24" x2="1507.24" y1="1030.78" y2="1150.12"/>
 </g>
 <g id="Symbols">
  <g id="Black-L" transform="matrix(1 0 0 1 2860.15 1556)">
   <path d="M73.4-86.34C45.91-86.34 23.63-64.06 23.63-36.57C23.63-9.08 45.91 13.21 73.4 13.21C100.89 13.21 123.18-9.08 123.18-36.57C123.18-64.06 100.89-86.34 73.4-86.34ZM9.43-36.57C9.43-71.9 38.07-100.54 73.4-100.54C108.73-100.54 137.38-71.9 137.38-36.57C137.38-1.24 108.73 27.41 73.4 27.41C38.07 27.41 9.43-1.24 9.43-36.57ZM14.15-13.82C14.15-17.74 17.33-20.92 21.25-20.92L86.54-20.92C90.46-20.92 93.64-17.74 93.64-13.82C93.64-9.9 90.46-6.72 86.54-6.72L21.25-6.72C17.33-6.72 14.15-9.9 14.15-13.82ZM82.99-65.47C86.38-67.43 90.73-66.27 92.69-62.87L125.33-6.34C127.29-2.94 126.13 1.4 122.74 3.36C119.34 5.32 115 4.16 113.04 0.76L80.39-55.77C78.43-59.16 79.59-63.51 82.99-65.47ZM103.23-42.72C106.62-40.76 107.79-36.41 105.83-33.02L73.18 23.51C71.22 26.91 66.88 28.07 63.48 26.11C60.08 24.15 58.92 19.81 60.88 16.41L93.53-40.12C95.49-43.52 99.83-44.68 103.23-42.72ZM53.16-59.32C53.16-63.24 56.34-66.42 60.26-66.42L125.55-66.42C129.48-66.42 132.65-63.24 132.65-59.32C132.65-55.4 129.48-52.22 125.55-52.22L60.26-52.22C56.34-52.22 53.16-55.4 53.16-59.32ZM83.32-99.25C86.72-97.29 87.88-92.95 85.92-89.55L53.27-33.02C51.31-29.62 46.97-28.46 43.57-30.42C40.18-32.38 39.02-36.72 40.98-40.12L73.62-96.65C75.58-100.05 79.93-101.21 83.32-99.25ZM24.07-76.5C27.46-78.46 31.8-77.3 33.77-73.9L66.41-17.37C68.37-13.97 67.21-9.63 63.81-7.67C60.42-5.71 56.08-6.87 54.11-10.27L21.47-66.8C19.51-70.2 20.67-74.54 24.07-76.5Z"/>
  </g>
  <g id="Heavy-L" transform="matrix(1 0 0 1 2564.29 1556)">
   <path d="M72.56-86.95C44.6-86.95 21.93-64.29 21.93-36.33C21.93-8.37 44.6 14.3 72.56 14.3C100.52 14.3 123.18-8.37 123.18-36.33C123.18-64.29 100.52-86.95 72.56-86.95ZM9.43-36.33C9.43-71.19 37.69-99.45 72.56-99.45C107.42-99.45 135.68-71.19 135.68-36.33C135.68-1.47 107.42 26.8 72.56 26.8C37.69 26.8 9.43-1.47 9.43-36.33ZM14.15-13.58C14.15-17.03 16.95-19.83 20.4-19.83L85.7-19.83C89.15-19.83 91.95-17.03 91.95-13.58C91.95-10.13 89.15-7.33 85.7-7.33L20.4-7.33C16.95-7.33 14.15-10.13 14.15-13.58ZM82.57-64.49C85.56-66.22 89.38-65.19 91.11-62.2L123.75-5.67C125.48-2.68 124.46 1.14 121.47 2.87C118.48 4.59 114.66 3.57 112.93 0.58L80.28-55.95C78.56-58.94 79.58-62.77 82.57-64.49ZM101.96-41.74C104.95-40.02 105.97-36.19 104.25-33.2L71.6 23.33C69.87 26.32 66.05 27.34 63.06 25.62C60.07 23.89 59.05 20.07 60.78 17.08L93.42-39.45C95.15-42.44 98.97-43.47 101.96-41.74ZM53.17-59.08C53.17-62.53 55.97-65.33 59.42-65.33L124.71-65.33C128.16-65.33 130.96-62.53 130.96-59.08C130.96-55.63 128.16-52.83 124.71-52.83L59.42-52.83C55.97-52.83 53.17-55.63 53.17-59.08ZM82.05-98.28C85.04-96.55 86.07-92.73 84.34-89.74L51.69-33.2C49.97-30.21 46.14-29.19 43.16-30.92C40.17-32.64 39.14-36.47 40.87-39.45L73.52-95.99C75.24-98.98 79.06-100 82.05-98.28ZM23.65-75.53C26.64-77.25 30.46-76.23 32.19-73.24L64.83-16.7C66.56-13.72 65.53-9.89 62.55-8.17C59.56-6.44 55.73-7.46 54.01-10.45L21.36-66.99C19.63-69.98 20.66-73.8 23.65-75.53Z"/>
  </g>
  <g id="Bold-L" transform="matrix(1 0 0 1 2268.53 1556)">
   <path d="M71.6-87.64C43.12-87.64 20.03-64.55 20.03-36.07C20.03-7.59 43.12 15.51 71.6 15.51C100.09 15.51 123.18-7.59 123.18-36.07C123.18-64.55 100.09-87.64 71.6-87.64ZM9.43-36.07C9.43-70.41 37.27-98.24 71.6-98.24C105.94-98.24 133.78-70.41 133.78-36.07C133.78-1.73 105.94 26.11 71.6 26.11C37.27 26.11 9.43-1.73 9.43-36.07ZM14.15-13.32C14.15-16.25 16.52-18.62 19.45-18.62L84.74-18.62C87.67-18.62 90.04-16.25 90.04-13.32C90.04-10.39 87.67-8.02 84.74-8.02L19.45-8.02C16.52-8.02 14.15-10.39 14.15-13.32ZM82.09-63.41C84.63-64.87 87.87-64 89.33-61.47L121.98-4.94C123.44-2.4 122.57 0.84 120.04 2.3C117.51 3.77 114.26 2.9 112.8 0.36L80.15-56.17C78.69-58.7 79.56-61.95 82.09-63.41ZM100.53-40.66C103.07-39.2 103.94-35.95 102.47-33.42L69.83 23.11C68.36 25.65 65.12 26.52 62.59 25.05C60.05 23.59 59.18 20.35 60.65 17.81L93.29-38.72C94.76-41.25 98-42.12 100.53-40.66ZM53.17-58.82C53.17-61.75 55.54-64.12 58.47-64.12L123.76-64.12C126.69-64.12 129.06-61.75 129.06-58.82C129.06-55.89 126.69-53.52 123.76-53.52L58.47-53.52C55.54-53.52 53.17-55.89 53.17-58.82ZM80.63-97.19C83.16-95.73 84.03-92.49 82.57-89.95L49.92-33.42C48.46-30.88 45.21-30.02 42.68-31.48C40.14-32.94 39.28-36.18 40.74-38.72L73.39-95.25C74.85-97.79 78.09-98.66 80.63-97.19ZM23.17-74.44C25.7-75.91 28.95-75.04 30.41-72.5L63.06-15.97C64.52-13.43 63.65-10.19 61.12-8.73C58.58-7.27 55.34-8.13 53.88-10.67L21.23-67.2C19.77-69.74 20.63-72.98 23.17-74.44Z"/>
  </g>
  <g id="Semibold-L" transform="matrix(1 0 0 1 1972.47 1556)">
   <path d="M70.96-88.09C42.12-88.09 18.73-64.71 18.73-35.87C18.73-7.03 42.12 16.36 70.96 16.36C99.8 16.36 123.18-7.03 123.18-35.87C123.18-64.71 99.8-88.09 70.96-88.09ZM9.43-35.87C9.43-69.85 36.98-97.39 70.96-97.39C104.94-97.39 132.48-69.85 132.48-35.87C132.48-1.89 104.94 25.66 70.96 25.66C36.98 25.66 9.43-1.89 9.43-35.87ZM14.16-13.12C14.16-15.69 16.24-17.77 18.81-17.77L84.1-17.77C86.67-17.77 88.75-15.69 88.75-13.12C88.75-10.55 86.67-8.47 84.1-8.47L18.81-8.47C16.24-8.47 14.16-10.55 14.16-13.12ZM81.77-62.65C84-63.93 86.84-63.17 88.12-60.94L120.77-4.41C122.06-2.19 121.29 0.66 119.07 1.94C116.85 3.23 114 2.46 112.72 0.24L80.07-56.29C78.79-58.52 79.55-61.36 81.77-62.65ZM99.56-39.9C101.79-38.61 102.55-35.77 101.26-33.54L68.62 22.99C67.33 25.21 64.49 25.98 62.26 24.69C60.04 23.41 59.28 20.56 60.56 18.34L93.21-38.19C94.49-40.42 97.34-41.18 99.56-39.9ZM53.17-58.62C53.17-61.19 55.25-63.27 57.82-63.27L123.11-63.27C125.68-63.27 127.76-61.19 127.76-58.62C127.76-56.05 125.68-53.97 123.11-53.97L57.82-53.97C55.25-53.97 53.17-56.05 53.17-58.62ZM79.66-96.43C81.88-95.15 82.64-92.3 81.36-90.08L48.71-33.54C47.43-31.32 44.58-30.56 42.36-31.84C40.13-33.13 39.37-35.97 40.66-38.19L73.3-94.73C74.59-96.95 77.43-97.71 79.66-96.43ZM22.85-73.68C25.07-74.96 27.92-74.2 29.2-71.98L61.85-15.44C63.13-13.22 62.37-10.38 60.15-9.09C57.92-7.81 55.08-8.57 53.8-10.79L21.15-67.33C19.87-69.55 20.63-72.4 22.85-73.68Z"/>
  </g>
  <g id="Medium-L" transform="matrix(1 0 0 1 1676.26 1556)">
   <path d="M70.46-88.45C41.34-88.45 17.73-64.85 17.73-35.73C17.73-6.61 41.34 17 70.46 17C99.58 17 123.18-6.61 123.18-35.73C123.18-64.85 99.58-88.45 70.46-88.45ZM9.43-35.73C9.43-69.43 36.76-96.75 70.46-96.75C104.16-96.75 131.48-69.43 131.48-35.73C131.48-2.03 104.16 25.3 70.46 25.3C36.76 25.3 9.43-2.03 9.43-35.73ZM14.16-12.98C14.16-15.27 16.01-17.13 18.31-17.13L83.6-17.13C85.89-17.13 87.75-15.27 87.75-12.98C87.75-10.69 85.89-8.83 83.6-8.83L18.31-8.83C16.01-8.83 14.16-10.69 14.16-12.98ZM81.52-62.07C83.51-63.22 86.05-62.54 87.19-60.55L119.84-4.02C120.98-2.04 120.3 0.5 118.32 1.65C116.33 2.79 113.8 2.11 112.65 0.13L80-56.4C78.86-58.39 79.54-60.93 81.52-62.07ZM98.81-39.32C100.8-38.18 101.48-35.64 100.33-33.65L67.68 22.88C66.54 24.86 64 25.54 62.01 24.4C60.03 23.25 59.35 20.71 60.5 18.73L93.14-37.8C94.29-39.79 96.83-40.47 98.81-39.32ZM53.17-58.48C53.17-60.77 55.03-62.63 57.32-62.63L122.61-62.63C124.91-62.63 126.76-60.77 126.76-58.48C126.76-56.19 124.91-54.33 122.61-54.33L57.32-54.33C55.03-54.33 53.17-56.19 53.17-58.48ZM78.91-95.86C80.89-94.71 81.57-92.17 80.42-90.19L47.78-33.65C46.63-31.67 44.09-30.99 42.11-32.14C40.12-33.28 39.44-35.82 40.59-37.8L73.24-94.34C74.38-96.32 76.92-97 78.91-95.86ZM22.6-73.11C24.59-74.25 27.12-73.57 28.27-71.59L60.92-15.05C62.06-13.07 61.38-10.53 59.4-9.39C57.41-8.24 54.87-8.92 53.73-10.9L21.08-67.44C19.94-69.42 20.62-71.96 22.6-73.11Z"/>
  </g>
  <g id="Regular-L" transform="matrix(1 0 0 1 1380.19 1556)">
   <path d="M69.81-88.92C40.33-88.92 16.43-65.03 16.43-35.55C16.43-6.07 40.33 17.83 69.81 17.83C99.29 17.83 123.19-6.07 123.19-35.55C123.19-65.03 99.29-88.92 69.81-88.92ZM9.43-35.55C9.43-68.89 36.47-95.92 69.81-95.92C103.15-95.92 130.19-68.89 130.19-35.55C130.19-2.21 103.15 24.83 69.81 24.83C36.47 24.83 9.43-2.21 9.43-35.55ZM14.16-12.8C14.16-14.73 15.72-16.3 17.66-16.3L82.95-16.3C84.88-16.3 86.45-14.73 86.45-12.8C86.45-10.87 84.88-9.3 82.95-9.3L17.66-9.3C15.72-9.3 14.16-10.87 14.16-12.8ZM81.2-61.33C82.87-62.3 85.01-61.72 85.98-60.05L118.63-3.52C119.59-1.84 119.02 0.3 117.34 1.27C115.67 2.23 113.53 1.66 112.56-0.02L79.92-56.55C78.95-58.22 79.52-60.36 81.2-61.33ZM97.84-38.58C99.51-37.61 100.08-35.47 99.12-33.8L66.47 22.73C65.5 24.41 63.36 24.98 61.69 24.02C60.02 23.05 59.44 20.91 60.41 19.23L93.06-37.3C94.02-38.97 96.16-39.55 97.84-38.58ZM53.17-58.3C53.17-60.23 54.74-61.8 56.67-61.8L121.96-61.8C123.9-61.8 125.46-60.23 125.46-58.3C125.46-56.37 123.9-54.8 121.96-54.8L56.67-54.8C54.74-54.8 53.17-56.37 53.17-58.3ZM77.93-95.11C79.6-94.15 80.18-92.01 79.21-90.33L46.57-33.8C45.6-32.13 43.46-31.55 41.78-32.52C40.11-33.49 39.54-35.63 40.5-37.3L73.15-93.83C74.12-95.51 76.26-96.08 77.93-95.11ZM22.28-72.36C23.95-73.33 26.09-72.76 27.06-71.08L59.7-14.55C60.67-12.88 60.1-10.74 58.42-9.77C56.75-8.8 54.61-9.38 53.64-11.05L20.99-67.58C20.03-69.26 20.6-71.4 22.28-72.36Z"/>
  </g>
  <g id="Light-L" transform="matrix(1 0 0 1 1084.28 1556)">
   <path d="M69.01-89.5C39.09-89.5 14.83-65.25 14.83-35.33C14.83-5.41 39.09 18.85 69.01 18.85C98.93 18.85 123.18-5.41 123.18-35.33C123.18-65.25 98.93-89.5 69.01-89.5ZM9.43-35.33C9.43-68.23 36.11-94.9 69.01-94.9C101.91-94.9 128.58-68.23 128.58-35.33C128.58-2.43 101.91 24.25 69.01 24.25C36.11 24.25 9.43-2.43 9.43-35.33ZM14.16-12.58C14.16-14.07 15.36-15.28 16.86-15.28L82.15-15.28C83.64-15.28 84.85-14.07 84.85-12.58C84.85-11.09 83.64-9.88 82.15-9.88L16.86-9.88C15.36-9.88 14.16-11.09 14.16-12.58ZM80.8-60.42C82.09-61.16 83.74-60.72 84.49-59.43L117.13-2.9C117.88-1.6 117.44 0.05 116.14 0.79C114.85 1.54 113.2 1.1 112.46-0.2L79.81-56.73C79.06-58.02 79.51-59.67 80.8-60.42ZM96.64-37.67C97.93-36.92 98.37-35.27 97.62-33.98L64.98 22.55C64.23 23.85 62.58 24.29 61.29 23.54C60 22.8 59.56 21.15 60.3 19.85L92.95-36.68C93.69-37.97 95.35-38.41 96.64-37.67ZM53.17-58.08C53.17-59.57 54.38-60.78 55.87-60.78L121.16-60.78C122.66-60.78 123.86-59.57 123.86-58.08C123.86-56.59 122.66-55.38 121.16-55.38L55.87-55.38C54.38-55.38 53.17-56.59 53.17-58.08ZM76.73-94.2C78.02-93.46 78.46-91.8 77.72-90.51L45.07-33.98C44.33-32.69 42.68-32.25 41.38-32.99C40.09-33.74 39.65-35.39 40.4-36.68L73.04-93.21C73.79-94.5 75.44-94.95 76.73-94.2ZM21.88-71.45C23.17-72.2 24.82-71.75 25.56-70.46L58.21-13.93C58.96-12.64 58.51-10.99 57.22-10.24C55.93-9.5 54.28-9.94 53.53-11.23L20.89-67.76C20.14-69.05 20.58-70.71 21.88-71.45Z"/>
  </g>
  <g id="Thin-L" transform="matrix(1 0 0 1 788.622 1556)">
   <path d="M67.955-90.45C37.455-90.45 12.73-65.73 12.73-35.23C12.73-4.73 37.455 20 67.955 20C98.455 20 123.18-4.73 123.18-35.23C123.18-65.73 98.455-90.45 67.955-90.45ZM9.43-35.23C9.43-67.55 35.632-93.75 67.955-93.75C100.277-93.75 126.48-67.55 126.48-35.23C126.48-2.91 100.277 23.3 67.955 23.3C35.632 23.3 9.43-2.91 9.43-35.23ZM14.15-12.48C14.15-13.39 14.889-14.13 15.8-14.13L81.093-14.13C82.004-14.13 82.743-13.39 82.743-12.48C82.743-11.57 82.004-10.83 81.093-10.83L15.8-10.83C14.889-10.83 14.15-11.57 14.15-12.48ZM80.268-59.41C81.058-59.86 82.067-59.59 82.522-58.8L115.169-2.27C115.624-1.48 115.354-0.47 114.565-0.02C113.776 0.44 112.767 0.17 112.311-0.62L79.665-57.15C79.209-57.94 79.479-58.95 80.268-59.41ZM95.056-36.66C95.845-36.2 96.116-35.19 95.66-34.4L63.014 22.13C62.558 22.92 61.549 23.19 60.76 22.73C59.971 22.28 59.7 21.27 60.156 20.48L92.802-36.05C93.258-36.84 94.267-37.11 95.056-36.66ZM53.167-57.98C53.167-58.89 53.906-59.63 54.817-59.63L120.109-59.63C121.021-59.63 121.759-58.89 121.759-57.98C121.759-57.07 121.021-56.33 120.109-56.33L54.817-56.33C53.906-56.33 53.167-57.07 53.167-57.98ZM75.15-93.19C75.939-92.74 76.209-91.73 75.754-90.94L43.107-34.4C42.652-33.62 41.643-33.34 40.853-33.8C40.064-34.26 39.794-35.27 40.25-36.05L72.896-92.59C73.352-93.38 74.361-93.65 75.15-93.19ZM21.346-70.44C22.135-70.9 23.144-70.63 23.6-69.84L56.246-13.3C56.702-12.52 56.431-11.51 55.642-11.05C54.853-10.59 53.844-10.87 53.388-11.65L20.742-68.19C20.286-68.98 20.556-69.99 21.346-70.44Z"/>
  </g>
  <g id="Ultralight-L" transform="matrix(1 0 0 1 492.461 1556)">
   <path d="M67.405-91C36.602-91 11.63-66.03 11.63-35.23C11.63-4.43 36.602 20.55 67.405 20.55C98.209 20.55 123.18-4.43 123.18-35.23C123.18-66.03 98.209-91 67.405-91ZM9.43-35.23C9.43-67.25 35.387-93.2 67.405-93.2C99.424-93.2 125.38-67.25 125.38-35.23C125.38-3.21 99.424 22.75 67.405 22.75C35.387 22.75 9.43-3.21 9.43-35.23ZM14.15-12.48C14.15-13.09 14.643-13.58 15.25-13.58L80.543-13.58C81.15-13.58 81.643-13.09 81.643-12.48C81.643-11.87 81.15-11.38 80.543-11.38L15.25-11.38C14.643-11.38 14.15-11.87 14.15-12.48ZM79.993-58.93C80.519-59.24 81.192-59.06 81.496-58.53L114.142-2C114.446-1.47 114.266-0.8 113.74-0.49C113.213-0.19 112.541-0.37 112.237-0.9L79.591-57.43C79.287-57.96 79.467-58.63 79.993-58.93ZM94.232-36.18C94.758-35.88 94.938-35.21 94.634-34.68L61.988 21.85C61.684 22.38 61.011 22.56 60.485 22.26C59.959 21.95 59.779 21.28 60.083 20.75L92.729-35.78C93.033-36.31 93.706-36.49 94.232-36.18ZM53.167-57.98C53.167-58.59 53.659-59.08 54.267-59.08L119.559-59.08C120.167-59.08 120.659-58.59 120.659-57.98C120.659-57.37 120.167-56.88 119.559-56.88L54.267-56.88C53.659-56.88 53.167-57.37 53.167-57.98ZM74.326-92.72C74.852-92.41 75.032-91.74 74.728-91.21L42.082-34.68C41.778-34.15 41.105-33.97 40.579-34.28C40.053-34.58 39.873-35.25 40.177-35.78L72.823-92.31C73.127-92.84 73.799-93.02 74.326-92.72ZM21.07-69.97C21.596-70.27 22.269-70.09 22.573-69.56L55.219-13.03C55.523-12.5 55.343-11.83 54.817-11.53C54.291-11.22 53.618-11.4 53.314-11.93L20.668-68.46C20.364-68.99 20.544-69.66 21.07-69.97Z"/>
  </g>
  <g id="Black-M" transform="matrix(1 0 0 1 2872.4 1126)">
   <path d="M61.15-74.25C40.43-74.25 23.63-57.45 23.63-36.73C23.63-16.01 40.43 0.8 61.15 0.8C81.88 0.8 98.68-16.01 98.68-36.73C98.68-57.45 81.88-74.25 61.15-74.25ZM9.43-36.73C9.43-65.3 32.59-88.45 61.15-88.45C89.72-88.45 112.88-65.3 112.88-36.73C112.88-8.16 89.72 15 61.15 15C32.59 15 9.43-8.16 9.43-36.73ZM13.13-18.88C13.13-22.8 16.31-25.98 20.23-25.98L71.46-25.98C75.38-25.98 78.56-22.8 78.56-18.88C78.56-14.96 75.38-11.78 71.46-11.78L20.23-11.78C16.31-11.78 13.13-14.96 13.13-18.88ZM67.91-60.73C71.31-62.69 75.65-61.53 77.61-58.13L103.23-13.77C105.19-10.38 104.02-6.03 100.63-4.07C97.23-2.11 92.89-3.28 90.93-6.67L65.31-51.03C63.35-54.42 64.52-58.77 67.91-60.73ZM85.32-42.88C88.72-40.92 89.88-36.57 87.92-33.18L62.3 11.18C60.34 14.57 56 15.74 52.61 13.78C49.21 11.82 48.05 7.47 50.01 4.08L75.62-40.28C77.58-43.68 81.93-44.84 85.32-42.88ZM43.75-54.58C43.75-58.5 46.92-61.68 50.85-61.68L102.08-61.68C106-61.68 109.18-58.5 109.18-54.58C109.18-50.66 106-47.48 102.08-47.48L50.85-47.48C46.92-47.48 43.75-50.66 43.75-54.58ZM69.7-87.24C73.1-85.27 74.26-80.93 72.3-77.54L46.69-33.18C44.72-29.78 40.38-28.62 36.99-30.58C33.59-32.54 32.43-36.88 34.39-40.28L60-84.64C61.96-88.03 66.31-89.2 69.7-87.24ZM21.68-69.39C25.08-71.35 29.42-70.18 31.38-66.79L57-22.43C58.96-19.03 57.79-14.69 54.4-12.73C51-10.77 46.66-11.93 44.7-15.33L19.08-59.69C17.12-63.08 18.29-67.42 21.68-69.39Z"/>
  </g>
  <g id="Heavy-M" transform="matrix(1 0 0 1 2576.54 1126)">
   <path d="M60.3-74.86C39.11-74.86 21.93-57.68 21.93-36.49C21.93-15.3 39.11 1.89 60.3 1.89C81.5 1.89 98.68-15.3 98.68-36.49C98.68-57.68 81.5-74.86 60.3-74.86ZM9.43-36.49C9.43-64.59 32.21-87.36 60.3-87.36C88.4-87.36 111.18-64.59 111.18-36.49C111.18-8.39 88.4 14.39 60.3 14.39C32.21 14.39 9.43-8.39 9.43-36.49ZM13.13-18.64C13.13-22.09 15.93-24.89 19.38-24.89L70.61-24.89C74.06-24.89 76.86-22.09 76.86-18.64C76.86-15.19 74.06-12.39 70.61-12.39L19.38-12.39C15.93-12.39 13.13-15.19 13.13-18.64ZM67.49-59.75C70.47-61.48 74.3-60.45 76.02-57.46L101.64-13.11C103.36-10.12 102.34-6.3 99.35-4.57C96.36-2.84 92.54-3.87 90.81-6.86L65.2-51.21C63.47-54.2 64.5-58.03 67.49-59.75ZM84.04-41.9C87.03-40.18 88.06-36.35 86.33-33.36L60.72 10.99C58.99 13.98 55.17 15.01 52.18 13.28C49.19 11.55 48.17 7.73 49.89 4.74L75.51-39.61C77.23-42.6 81.06-43.63 84.04-41.9ZM43.74-54.34C43.74-57.79 46.54-60.59 50-60.59L101.22-60.59C104.68-60.59 107.47-57.79 107.47-54.34C107.47-50.89 104.68-48.09 101.22-48.09L50-48.09C46.54-48.09 43.74-50.89 43.74-54.34ZM68.43-86.26C71.42-84.53 72.44-80.71 70.71-77.72L45.1-33.36C43.37-30.37 39.55-29.35 36.56-31.08C33.57-32.8 32.55-36.63 34.28-39.62L59.89-83.97C61.62-86.96 65.44-87.99 68.43-86.26ZM21.26-68.41C24.24-70.14 28.07-69.11 29.79-66.12L55.41-21.76C57.13-18.78 56.11-14.95 53.12-13.23C50.13-11.5 46.31-12.52 44.58-15.51L18.97-59.87C17.24-62.86 18.27-66.68 21.26-68.41Z"/>
  </g>
  <g id="Bold-M" transform="matrix(1 0 0 1 2280.78 1126)">
   <path d="M59.35-75.53C37.64-75.53 20.03-57.93 20.03-36.21C20.03-14.49 37.64 3.12 59.35 3.12C81.07 3.12 98.68-14.49 98.68-36.21C98.68-57.93 81.07-75.53 59.35-75.53ZM9.43-36.21C9.43-63.78 31.78-86.13 59.35-86.13C86.93-86.13 109.28-63.78 109.28-36.21C109.28-8.64 86.93 13.72 59.35 13.72C31.78 13.72 9.43-8.64 9.43-36.21ZM13.13-18.36C13.13-21.29 15.51-23.66 18.43-23.66L69.66-23.66C72.59-23.66 74.96-21.29 74.96-18.36C74.96-15.43 72.59-13.06 69.66-13.06L18.43-13.06C15.51-13.06 13.13-15.43 13.13-18.36ZM67.01-58.65C69.55-60.11 72.79-59.24 74.25-56.71L99.87-12.35C101.33-9.82 100.46-6.58 97.93-5.11C95.39-3.65 92.15-4.52 90.69-7.05L65.07-51.41C63.61-53.94 64.48-57.19 67.01-58.65ZM82.62-40.8C85.16-39.34 86.02-36.09 84.56-33.56L58.95 10.8C57.48 13.33 54.24 14.2 51.71 12.74C49.17 11.27 48.3 8.03 49.77 5.5L75.38-38.86C76.85-41.39 80.09-42.26 82.62-40.8ZM43.75-54.06C43.75-56.99 46.12-59.36 49.05-59.36L100.28-59.36C103.2-59.36 105.58-56.99 105.58-54.06C105.58-51.13 103.2-48.76 100.28-48.76L49.05-48.76C46.12-48.76 43.75-51.13 43.75-54.06ZM67-85.16C69.54-83.69 70.41-80.45 68.94-77.92L43.33-33.56C41.86-31.02 38.62-30.16 36.09-31.62C33.55-33.08 32.68-36.33 34.15-38.86L59.76-83.22C61.23-85.75 64.47-86.62 67-85.16ZM20.78-67.31C23.32-68.77 26.56-67.9 28.02-65.37L53.64-21.01C55.1-18.48 54.23-15.23 51.7-13.77C49.16-12.31 45.92-13.17 44.46-15.71L18.84-60.07C17.38-62.6 18.25-65.84 20.78-67.31Z"/>
  </g>
  <g id="Semibold-M" transform="matrix(1 0 0 1 1984.72 1126)">
   <path d="M58.71-76C36.63-76 18.73-58.11 18.73-36.03C18.73-13.95 36.63 3.95 58.71 3.95C80.79 3.95 98.68-13.95 98.68-36.03C98.68-58.11 80.79-76 58.71-76ZM9.43-36.03C9.43-63.24 31.5-85.3 58.71-85.3C85.92-85.3 107.98-63.24 107.98-36.03C107.98-8.82 85.92 13.25 58.71 13.25C31.5 13.25 9.43-8.82 9.43-36.03ZM13.14-18.18C13.14-20.75 15.22-22.83 17.79-22.83L69.02-22.83C71.59-22.83 73.67-20.75 73.67-18.18C73.67-15.61 71.59-13.53 69.02-13.53L17.79-13.53C15.22-13.53 13.14-15.61 13.14-18.18ZM66.69-57.91C68.92-59.19 71.76-58.43 73.04-56.21L98.66-11.85C99.94-9.62 99.18-6.78 96.96-5.5C94.73-4.21 91.89-4.97 90.61-7.2L64.99-51.55C63.71-53.78 64.47-56.62 66.69-57.91ZM81.65-40.06C83.88-38.77 84.64-35.93 83.35-33.7L57.74 10.65C56.45 12.88 53.61 13.64 51.39 12.35C49.16 11.07 48.4 8.23 49.69 6L75.3-38.35C76.58-40.58 79.43-41.34 81.65-40.06ZM43.75-53.88C43.75-56.45 45.83-58.53 48.4-58.53L99.63-58.53C102.2-58.53 104.28-56.45 104.28-53.88C104.28-51.31 102.2-49.23 99.63-49.23L48.4-49.23C45.83-49.23 43.75-51.31 43.75-53.88ZM66.03-84.41C68.26-83.13 69.02-80.29 67.73-78.06L42.12-33.7C40.84-31.48 37.99-30.72 35.77-32C33.54-33.29 32.78-36.13 34.07-38.35L59.68-82.71C60.97-84.94 63.81-85.7 66.03-84.41ZM20.46-66.56C22.69-67.85 25.53-67.09 26.81-64.86L52.43-20.51C53.71-18.28 52.95-15.44 50.73-14.15C48.5-12.87 45.66-13.63 44.37-15.85L18.76-60.21C17.48-62.44 18.24-65.28 20.46-66.56Z"/>
  </g>
  <g id="Medium-M" transform="matrix(1 0 0 1 1688.51 1126)">
   <path d="M58.21-76.36C35.86-76.36 17.73-58.24 17.73-35.89C17.73-13.54 35.86 4.59 58.21 4.59C80.56 4.59 98.68-13.54 98.68-35.89C98.68-58.24 80.56-76.36 58.21-76.36ZM9.43-35.89C9.43-62.83 31.27-84.66 58.21-84.66C85.15-84.66 106.98-62.83 106.98-35.89C106.98-8.95 85.15 12.89 58.21 12.89C31.27 12.89 9.43-8.95 9.43-35.89ZM13.14-18.04C13.14-20.33 15-22.19 17.29-22.19L68.52-22.19C70.81-22.19 72.67-20.33 72.67-18.04C72.67-15.75 70.81-13.89 68.52-13.89L17.29-13.89C15-13.89 13.14-15.75 13.14-18.04ZM66.44-57.33C68.43-58.48 70.97-57.8 72.11-55.81L97.73-11.46C98.87-9.47 98.19-6.93 96.21-5.79C94.22-4.64 91.68-5.32 90.54-7.31L64.92-51.66C63.78-53.65 64.46-56.19 66.44-57.33ZM80.9-39.48C82.89-38.34 83.57-35.8 82.42-33.81L56.81 10.54C55.66 12.53 53.12 13.21 51.14 12.06C49.15 10.92 48.47 8.38 49.62 6.39L75.23-37.96C76.38-39.95 78.92-40.63 80.9-39.48ZM43.75-53.74C43.75-56.03 45.61-57.89 47.9-57.89L99.13-57.89C101.42-57.89 103.28-56.03 103.28-53.74C103.28-51.45 101.42-49.59 99.13-49.59L47.9-49.59C45.61-49.59 43.75-51.45 43.75-53.74ZM65.28-83.84C67.27-82.69 67.95-80.16 66.8-78.17L41.19-33.81C40.04-31.83 37.5-31.15 35.52-32.3C33.53-33.44 32.85-35.98 34-37.96L59.61-82.32C60.76-84.31 63.3-84.99 65.28-83.84ZM20.21-65.99C22.2-67.14 24.73-66.46 25.88-64.47L51.5-20.12C52.64-18.13 51.96-15.59 49.98-14.45C47.99-13.3 45.45-13.98 44.31-15.96L18.69-60.32C17.55-62.31 18.23-64.84 20.21-65.99Z"/>
  </g>
  <g id="Regular-M" transform="matrix(1 0 0 1 1392.45 1126)">
   <path d="M57.55-76.81C34.84-76.81 16.43-58.4 16.43-35.69C16.43-12.98 34.84 5.44 57.55 5.44C80.26 5.44 98.67-12.98 98.67-35.69C98.67-58.4 80.26-76.81 57.55-76.81ZM9.43-35.69C9.43-62.27 30.97-83.81 57.55-83.81C84.13-83.81 105.67-62.27 105.67-35.69C105.67-9.11 84.13 12.44 57.55 12.44C30.97 12.44 9.43-9.11 9.43-35.69ZM13.13-17.84C13.13-19.77 14.7-21.34 16.63-21.34L67.86-21.34C69.79-21.34 71.36-19.77 71.36-17.84C71.36-15.91 69.79-14.34 67.86-14.34L16.63-14.34C14.7-14.34 13.13-15.91 13.13-17.84ZM66.11-56.57C67.78-57.54 69.92-56.96 70.89-55.29L96.5-10.93C97.47-9.26 96.9-7.12 95.22-6.15C93.55-5.18 91.41-5.76 90.44-7.43L64.83-51.79C63.86-53.46 64.43-55.6 66.11-56.57ZM79.92-38.72C81.59-37.75 82.16-35.61 81.2-33.94L55.58 10.42C54.62 12.09 52.48 12.67 50.8 11.7C49.13 10.73 48.55 8.59 49.52 6.92L75.14-37.44C76.1-39.11 78.24-39.69 79.92-38.72ZM43.74-53.54C43.74-55.47 45.31-57.04 47.24-57.04L98.47-57.04C100.4-57.04 101.97-55.47 101.97-53.54C101.97-51.61 100.4-50.04 98.47-50.04L47.24-50.04C45.31-50.04 43.74-51.61 43.74-53.54ZM64.3-83.08C65.97-82.11 66.55-79.97 65.58-78.3L39.96-33.94C39-32.27 36.86-31.69 35.18-32.66C33.51-33.63 32.94-35.77 33.9-37.44L59.52-81.8C60.48-83.47 62.62-84.04 64.3-83.08ZM19.88-65.23C21.55-66.19 23.69-65.62 24.66-63.95L50.27-19.59C51.24-17.92 50.67-15.78 48.99-14.81C47.32-13.84 45.18-14.42 44.21-16.09L18.6-60.45C17.63-62.12 18.2-64.26 19.88-65.23Z"/>
  </g>
  <g id="Light-M" transform="matrix(1 0 0 1 1096.53 1126)">
   <path d="M56.76-77.39C33.61-77.39 14.83-58.62 14.83-35.47C14.83-12.32 33.61 6.46 56.76 6.46C79.91 6.46 98.68-12.32 98.68-35.47C98.68-58.62 79.91-77.39 56.76-77.39ZM9.43-35.47C9.43-61.61 30.62-82.79 56.76-82.79C82.9-82.79 104.08-61.61 104.08-35.47C104.08-9.33 82.9 11.86 56.76 11.86C30.62 11.86 9.43-9.33 9.43-35.47ZM13.14-17.62C13.14-19.11 14.35-20.32 15.84-20.32L67.07-20.32C68.56-20.32 69.77-19.11 69.77-17.62C69.77-16.13 68.56-14.92 67.07-14.92L15.84-14.92C14.35-14.92 13.14-16.13 13.14-17.62ZM65.72-55.66C67.01-56.4 68.66-55.96 69.41-54.67L95.02-10.31C95.77-9.02 95.33-7.37 94.03-6.62C92.74-5.88 91.09-6.32 90.35-7.61L64.73-51.97C63.99-53.26 64.43-54.91 65.72-55.66ZM78.73-37.81C80.02-37.06 80.46-35.41 79.72-34.12L54.1 10.24C53.35 11.53 51.7 11.97 50.41 11.23C49.12 10.48 48.68 8.83 49.42 7.54L75.04-36.82C75.78-38.11 77.44-38.55 78.73-37.81ZM43.75-53.32C43.75-54.81 44.96-56.02 46.45-56.02L97.68-56.02C99.17-56.02 100.38-54.81 100.38-53.32C100.38-51.83 99.17-50.62 97.68-50.62L46.45-50.62C44.96-50.62 43.75-51.83 43.75-53.32ZM63.11-82.16C64.4-81.42 64.84-79.77 64.1-78.48L38.48-34.12C37.74-32.83 36.08-32.39 34.79-33.13C33.5-33.88 33.06-35.53 33.8-36.82L59.42-81.18C60.17-82.47 61.82-82.91 63.11-82.16ZM19.49-64.31C20.78-65.06 22.43-64.62 23.18-63.33L48.79-18.97C49.54-17.68 49.09-16.03 47.8-15.28C46.51-14.54 44.86-14.98 44.11-16.27L18.5-60.63C17.75-61.92 18.2-63.57 19.49-64.31Z"/>
  </g>
  <g id="Thin-M" transform="matrix(1 0 0 1 800.872 1126)">
   <path d="M55.705-78.2C31.97-78.2 12.73-58.96 12.73-35.23C12.73-11.49 31.97 7.75 55.705 7.75C79.439 7.75 98.68-11.49 98.68-35.23C98.68-58.96 79.439-78.2 55.705-78.2ZM9.43-35.23C9.43-60.79 30.148-81.5 55.705-81.5C81.262-81.5 101.98-60.79 101.98-35.23C101.98-9.67 81.262 11.05 55.705 11.05C30.148 11.05 9.43-9.67 9.43-35.23ZM13.134-17.38C13.134-18.29 13.872-19.03 14.784-19.03L66.013-19.03C66.924-19.03 67.663-18.29 67.663-17.38C67.663-16.47 66.924-15.73 66.013-15.73L14.784-15.73C13.872-15.73 13.134-16.47 13.134-17.38ZM65.188-54.51C65.977-54.96 66.987-54.69 67.442-53.9L93.057-9.55C93.513-8.76 93.242-7.75 92.453-7.29C91.664-6.84 90.655-7.11 90.199-7.9L64.585-52.25C64.129-53.04 64.399-54.05 65.188-54.51ZM77.147-36.66C77.936-36.2 78.206-35.19 77.75-34.4L52.136 9.95C51.68 10.74 50.671 11.01 49.882 10.56C49.093 10.1 48.822 9.09 49.278 8.3L74.893-36.05C75.348-36.84 76.358-37.11 77.147-36.66ZM43.747-53.08C43.747-53.99 44.486-54.73 45.397-54.73L96.626-54.73C97.538-54.73 98.276-53.99 98.276-53.08C98.276-52.17 97.538-51.43 96.626-51.43L45.397-51.43C44.486-51.43 43.747-52.17 43.747-53.08ZM61.529-81.02C62.318-80.56 62.588-79.55 62.132-78.76L36.518-34.4C36.062-33.62 35.053-33.34 34.264-33.8C33.474-34.26 33.204-35.27 33.66-36.05L59.275-80.41C59.73-81.2 60.739-81.47 61.529-81.02ZM18.957-63.17C19.746-63.62 20.755-63.35 21.211-62.56L46.826-18.2C47.281-17.42 47.011-16.41 46.222-15.95C45.433-15.5 44.424-15.77 43.968-16.55L18.353-60.91C17.897-61.7 18.168-62.71 18.957-63.17Z"/>
  </g>
  <g id="Ultralight-M" transform="matrix(1 0 0 1 504.711 1126)">
   <path d="M55.155-78.75C31.117-78.75 11.63-59.27 11.63-35.23C11.63-11.19 31.117 8.3 55.155 8.3C79.194 8.3 98.68-11.19 98.68-35.23C98.68-59.27 79.194-78.75 55.155-78.75ZM9.43-35.23C9.43-60.48 29.902-80.95 55.155-80.95C80.409-80.95 100.88-60.48 100.88-35.23C100.88-9.98 80.409 10.5 55.155 10.5C29.902 10.5 9.43-9.98 9.43-35.23ZM13.134-17.38C13.134-17.99 13.626-18.48 14.234-18.48L65.463-18.48C66.071-18.48 66.563-17.99 66.563-17.38C66.563-16.77 66.071-16.28 65.463-16.28L14.234-16.28C13.626-16.28 13.134-16.77 13.134-17.38ZM64.913-54.03C65.439-54.34 66.112-54.16 66.416-53.63L92.031-9.27C92.334-8.75 92.154-8.07 91.628-7.77C91.102-7.47 90.429-7.65 90.125-8.17L64.511-52.53C64.207-53.06 64.387-53.73 64.913-54.03ZM76.321-36.18C76.847-35.88 77.028-35.21 76.724-34.68L51.109 9.68C50.805 10.2 50.133 10.38 49.606 10.08C49.08 9.78 48.9 9.1 49.204 8.58L74.819-35.78C75.123-36.31 75.795-36.49 76.321-36.18ZM43.747-53.08C43.747-53.69 44.239-54.18 44.847-54.18L96.076-54.18C96.684-54.18 97.176-53.69 97.176-53.08C97.176-52.47 96.684-51.98 96.076-51.98L44.847-51.98C44.239-51.98 43.747-52.47 43.747-53.08ZM60.703-80.54C61.229-80.24 61.41-79.56 61.106-79.04L35.491-34.68C35.187-34.15 34.514-33.97 33.988-34.28C33.462-34.58 33.282-35.25 33.586-35.78L59.201-80.14C59.504-80.66 60.177-80.84 60.703-80.54ZM18.682-62.69C19.208-62.99 19.881-62.81 20.184-62.29L45.799-17.93C46.103-17.4 45.923-16.73 45.397-16.43C44.87-16.12 44.198-16.3 43.894-16.83L18.279-61.19C17.975-61.71 18.156-62.39 18.682-62.69Z"/>
  </g>
  <g id="Black-S" transform="matrix(1 0 0 1 2882.03 696)">
   <path d="M51.53-64.83C36.12-64.83 23.63-52.339 23.63-36.93C23.63-21.521 36.12-9.03 51.53-9.03C66.94-9.03 79.43-21.521 79.43-36.93C79.43-52.339 66.94-64.83 51.53-64.83ZM9.43-36.93C9.43-60.181 28.28-79.03 51.53-79.03C74.78-79.03 93.63-60.181 93.63-36.93C93.63-13.679 74.78 5.17 51.53 5.17C28.28 5.17 9.43-13.679 9.43-36.93ZM12.34-22.93C12.34-26.851 15.51-30.03 19.44-30.03L59.62-30.03C63.54-30.03 66.72-26.851 66.72-22.93C66.72-19.009 63.54-15.83 59.62-15.83L19.44-15.83C15.51-15.83 12.34-19.009 12.34-22.93ZM56.07-57.078C59.46-59.039 63.8-57.876 65.76-54.48L85.85-19.69C87.82-16.295 86.65-11.952 83.26-9.991C79.86-8.031 75.52-9.194 73.56-12.589L53.47-47.379C51.51-50.775 52.67-55.117 56.07-57.078ZM71.25-43.078C74.65-41.117 75.81-36.775 73.85-33.379L53.76 1.411C51.8 4.806 47.46 5.969 44.06 4.009C40.66 2.048 39.5-2.295 41.46-5.69L61.55-40.48C63.51-43.876 67.85-45.039 71.25-43.078ZM36.34-50.93C36.34-54.851 39.52-58.03 43.44-58.03L83.62-58.03C87.55-58.03 90.72-54.851 90.72-50.93C90.72-47.009 87.55-43.83 83.62-43.83L43.44-43.83C39.52-43.83 36.34-47.009 36.34-50.93ZM59-77.868C62.4-75.908 63.56-71.565 61.6-68.169L41.51-33.379C39.55-29.984 35.21-28.821 31.81-30.781C28.41-32.742 27.25-37.085 29.21-40.48L49.3-75.27C51.26-78.666 55.6-79.829 59-77.868ZM19.81-63.868C23.2-65.829 27.54-64.666 29.5-61.27L49.59-26.48C51.56-23.085 50.39-18.742 47-16.781C43.6-14.821 39.26-15.984 37.3-19.379L17.21-54.169C15.25-57.565 16.41-61.908 19.81-63.868Z"/>
  </g>
  <g id="Heavy-S" transform="matrix(1 0 0 1 2586.16 696)">
   <path d="M50.68-65.44C34.8-65.44 21.93-52.568 21.93-36.69C21.93-20.812 34.8-7.94 50.68-7.94C66.56-7.94 79.43-20.812 79.43-36.69C79.43-52.568 66.56-65.44 50.68-65.44ZM9.43-36.69C9.43-59.472 27.9-77.94 50.68-77.94C73.46-77.94 91.93-59.472 91.93-36.69C91.93-13.908 73.46 4.56 50.68 4.56C27.9 4.56 9.43-13.908 9.43-36.69ZM12.34-22.69C12.34-26.142 15.13-28.94 18.59-28.94L58.77-28.94C62.22-28.94 65.02-26.142 65.02-22.69C65.02-19.238 62.22-16.44 58.77-16.44L18.59-16.44C15.13-16.44 12.34-19.238 12.34-22.69ZM55.64-56.102C58.63-57.829 62.45-56.805 64.18-53.815L84.27-19.025C85.99-16.036 84.97-12.214 81.98-10.488C78.99-8.761 75.17-9.785 73.44-12.775L53.35-47.565C51.63-50.554 52.65-54.376 55.64-56.102ZM69.98-42.102C72.97-40.376 73.99-36.554 72.26-33.565L52.17 1.225C50.45 4.215 46.62 5.239 43.64 3.512C40.65 1.786 39.62-2.036 41.35-5.025L61.44-39.815C63.16-42.805 66.99-43.829 69.98-42.102ZM36.35-50.69C36.35-54.142 39.14-56.94 42.6-56.94L82.78-56.94C86.23-56.94 89.03-54.142 89.03-50.69C89.03-47.238 86.23-44.44 82.78-44.44L42.6-44.44C39.14-44.44 36.35-47.238 36.35-50.69ZM57.73-76.892C60.72-75.166 61.74-71.344 60.01-68.355L39.92-33.565C38.2-30.575 34.37-29.551 31.39-31.278C28.4-33.004 27.37-36.826 29.1-39.815L49.19-74.605C50.91-77.595 54.74-78.619 57.73-76.892ZM19.38-62.892C22.37-64.619 26.19-63.595 27.92-60.605L48.01-25.815C49.74-22.826 48.71-19.004 45.72-17.278C42.73-15.551 38.91-16.575 37.18-19.565L17.09-54.355C15.37-57.344 16.39-61.166 19.38-62.892Z"/>
  </g>
  <g id="Bold-S" transform="matrix(1 0 0 1 2290.4 696)">
   <path d="M49.73-65.913C33.33-65.913 20.03-52.616 20.03-36.213C20.03-19.81 33.33-6.513 49.73-6.513C66.14-6.513 79.43-19.81 79.43-36.213C79.43-52.616 66.14-65.913 49.73-65.913ZM9.43-36.213C9.43-58.47 27.48-76.513 49.73-76.513C71.99-76.513 90.03-58.47 90.03-36.213C90.03-13.956 71.99 4.087 49.73 4.087C27.48 4.087 9.43-13.956 9.43-36.213ZM12.34-22.213C12.34-25.14 14.71-27.513 17.64-27.513L57.82-27.513C60.75-27.513 63.12-25.14 63.12-22.213C63.12-19.286 60.75-16.913 57.82-16.913L17.64-16.913C14.71-16.913 12.34-19.286 12.34-22.213ZM55.17-54.803C57.7-56.266 60.94-55.398 62.41-52.863L82.5-18.073C83.96-15.538 83.09-12.297 80.56-10.833C78.02-9.369 74.78-10.238 73.32-12.772L53.23-47.562C51.77-50.097 52.63-53.339 55.17-54.803ZM68.56-40.803C71.09-39.339 71.96-36.097 70.49-33.562L50.4 1.228C48.94 3.762 45.7 4.631 43.16 3.167C40.63 1.703 39.76-1.538 41.23-4.073L61.32-38.863C62.78-41.398 66.02-42.266 68.56-40.803ZM36.35-50.213C36.35-53.14 38.72-55.513 41.65-55.513L81.83-55.513C84.76-55.513 87.13-53.14 87.13-50.213C87.13-47.286 84.76-44.913 81.83-44.913L41.65-44.913C38.72-44.913 36.35-47.286 36.35-50.213ZM56.31-75.593C58.84-74.129 59.71-70.887 58.24-68.352L38.15-33.562C36.69-31.028 33.45-30.159 30.91-31.623C28.38-33.087 27.51-36.328 28.98-38.863L49.07-73.653C50.53-76.188 53.77-77.056 56.31-75.593ZM18.91-61.593C21.44-63.056 24.68-62.188 26.15-59.653L46.24-24.863C47.7-22.328 46.83-19.087 44.3-17.623C41.76-16.159 38.52-17.028 37.06-19.562L16.97-54.352C15.51-56.887 16.37-60.129 18.91-61.593Z"/>
  </g>
  <g id="Semibold-S" transform="matrix(1 0 0 1 1994.34 696)">
   <path d="M49.08-66.379C32.32-66.379 18.73-52.791 18.73-36.029C18.73-19.267 32.32-5.679 49.08-5.679C65.84-5.679 79.43-19.267 79.43-36.029C79.43-52.791 65.84-66.379 49.08-66.379ZM9.43-36.029C9.43-57.927 27.18-75.679 49.08-75.679C70.98-75.679 88.73-57.927 88.73-36.029C88.73-14.131 70.98 3.621 49.08 3.621C27.18 3.621 9.43-14.131 9.43-36.029ZM12.33-22.029C12.33-24.597 14.42-26.679 16.98-26.679L57.16-26.679C59.73-26.679 61.81-24.597 61.81-22.029C61.81-19.461 59.73-17.379 57.16-17.379L16.98-17.379C14.42-17.379 12.33-19.461 12.33-22.029ZM54.84-54.056C57.06-55.34 59.91-54.578 61.19-52.354L81.28-17.564C82.57-15.34 81.8-12.496 79.58-11.212C77.36-9.928 74.51-10.69 73.23-12.914L53.14-47.704C51.85-49.928 52.62-52.772 54.84-54.056ZM67.58-40.056C69.8-38.772 70.56-35.928 69.28-33.704L49.19 1.086C47.9 3.31 45.06 4.072 42.84 2.788C40.61 1.504 39.85-1.34 41.13-3.564L61.22-38.354C62.51-40.578 65.35-41.34 67.58-40.056ZM36.34-50.029C36.34-52.597 38.43-54.679 40.99-54.679L81.17-54.679C83.74-54.679 85.82-52.597 85.82-50.029C85.82-47.461 83.74-45.379 81.17-45.379L40.99-45.379C38.43-45.379 36.34-47.461 36.34-50.029ZM55.33-74.846C57.55-73.562 58.31-70.718 57.03-68.494L36.94-33.704C35.65-31.48 32.81-30.718 30.59-32.002C28.36-33.287 27.6-36.13 28.88-38.354L48.97-73.144C50.26-75.368 53.1-76.13 55.33-74.846ZM18.58-60.846C20.8-62.13 23.65-61.368 24.93-59.144L45.02-24.354C46.31-22.13 45.54-19.287 43.32-18.002C41.1-16.718 38.25-17.48 36.97-19.704L16.88-54.494C15.59-56.718 16.36-59.562 18.58-60.846Z"/>
  </g>
  <g id="Medium-S" transform="matrix(1 0 0 1 1698.13 696)">
   <path d="M48.58-66.737C31.54-66.737 17.73-52.925 17.73-35.887C17.73-18.849 31.54-5.037 48.58-5.037C65.62-5.037 79.43-18.849 79.43-35.887C79.43-52.925 65.62-66.737 48.58-66.737ZM9.43-35.887C9.43-57.509 26.96-75.037 48.58-75.037C70.2-75.037 87.73-57.509 87.73-35.887C87.73-14.265 70.2 3.263 48.58 3.263C26.96 3.263 9.43-14.265 9.43-35.887ZM12.33-21.887C12.33-24.179 14.19-26.037 16.48-26.037L56.66-26.037C58.96-26.037 60.81-24.179 60.81-21.887C60.81-19.595 58.96-17.737 56.66-17.737L16.48-17.737C14.19-17.737 12.33-19.595 12.33-21.887ZM54.59-53.481C56.57-54.627 59.11-53.947 60.26-51.962L80.35-17.172C81.5-15.188 80.82-12.649 78.83-11.503C76.85-10.357 74.31-11.037 73.16-13.022L53.07-47.812C51.93-49.797 52.61-52.335 54.59-53.481ZM66.83-39.481C68.81-38.335 69.49-35.797 68.34-33.812L48.25 0.978C47.11 2.963 44.57 3.643 42.59 2.497C40.6 1.351 39.92-1.188 41.07-3.172L61.16-37.962C62.3-39.947 64.84-40.627 66.83-39.481ZM36.34-49.887C36.34-52.179 38.2-54.037 40.49-54.037L80.67-54.037C82.97-54.037 84.82-52.179 84.82-49.887C84.82-47.595 82.97-45.737 80.67-45.737L40.49-45.737C38.2-45.737 36.34-47.595 36.34-49.887ZM54.58-74.271C56.56-73.125 57.24-70.587 56.09-68.602L36-33.812C34.86-31.827 32.32-31.147 30.34-32.293C28.35-33.44 27.67-35.978 28.82-37.962L48.91-72.752C50.05-74.737 52.59-75.417 54.58-74.271ZM18.33-60.271C20.31-61.417 22.85-60.737 24-58.752L44.09-23.962C45.23-21.978 44.55-19.44 42.57-18.293C40.59-17.147 38.05-17.827 36.9-19.812L16.81-54.602C15.66-56.587 16.34-59.125 18.33-60.271Z"/>
  </g>
  <g id="Regular-S" transform="matrix(1 0 0 1 1402.07 696)">
   <path d="M47.93-67.201C30.53-67.201 16.43-53.098 16.43-35.701C16.43-18.304 30.53-4.201 47.93-4.201C65.33-4.201 79.43-18.304 79.43-35.701C79.43-53.098 65.33-67.201 47.93-67.201ZM9.43-35.701C9.43-56.964 26.67-74.201 47.93-74.201C69.19-74.201 86.43-56.964 86.43-35.701C86.43-14.438 69.19 2.799 47.93 2.799C26.67 2.799 9.43-14.438 9.43-35.701ZM12.34-21.701C12.34-23.634 13.9-25.201 15.84-25.201L56.02-25.201C57.95-25.201 59.52-23.634 59.52-21.701C59.52-19.768 57.95-18.201 56.02-18.201L15.84-18.201C13.9-18.201 12.34-19.768 12.34-21.701ZM54.26-52.732C55.94-53.698 58.08-53.125 59.05-51.451L79.14-16.661C80.1-14.987 79.53-12.847 77.85-11.88C76.18-10.913 74.04-11.487 73.07-13.161L52.98-47.951C52.02-49.625 52.59-51.765 54.26-52.732ZM65.85-38.732C67.52-37.765 68.1-35.625 67.13-33.951L47.04 0.839C46.07 2.513 43.93 3.087 42.26 2.12C40.59 1.153 40.01-0.987 40.98-2.661L61.07-37.451C62.04-39.125 64.18-39.698 65.85-38.732ZM36.35-49.701C36.35-51.634 37.91-53.201 39.85-53.201L80.03-53.201C81.96-53.201 83.53-51.634 83.53-49.701C83.53-47.768 81.96-46.201 80.03-46.201L39.85-46.201C37.91-46.201 36.35-47.768 36.35-49.701ZM53.6-73.522C55.27-72.555 55.85-70.415 54.88-68.741L34.79-33.951C33.82-32.277 31.68-31.703 30.01-32.67C28.34-33.637 27.76-35.777 28.73-37.451L48.82-72.241C49.79-73.915 51.93-74.488 53.6-73.522ZM18-59.522C19.68-60.488 21.82-59.915 22.79-58.241L42.88-23.451C43.84-21.777 43.27-19.637 41.6-18.67C39.92-17.703 37.78-18.277 36.81-19.951L16.72-54.741C15.76-56.415 16.33-58.555 18-59.522Z"/>
  </g>
  <g id="Light-S" transform="matrix(1 0 0 1 1106.16 696)">
   <path d="M47.13-67.775C29.29-67.775 14.83-53.314 14.83-35.475C14.83-17.636 29.29-3.175 47.13-3.175C64.97-3.175 79.43-17.636 79.43-35.475C79.43-53.314 64.97-67.775 47.13-67.775ZM9.43-35.475C9.43-56.296 26.31-73.175 47.13-73.175C67.95-73.175 84.83-56.296 84.83-35.475C84.83-14.654 67.95 2.225 47.13 2.225C26.31 2.225 9.43-14.654 9.43-35.475ZM12.34-21.475C12.34-22.966 13.54-24.175 15.04-24.175L55.22-24.175C56.71-24.175 57.92-22.966 57.92-21.475C57.92-19.984 56.71-18.775 55.22-18.775L15.04-18.775C13.54-18.775 12.34-19.984 12.34-21.475ZM53.87-51.813C55.16-52.559 56.81-52.117 57.55-50.825L77.64-16.035C78.39-14.744 77.95-13.093 76.66-12.347C75.36-11.601 73.71-12.044 72.97-13.335L52.88-48.125C52.13-49.416 52.57-51.068 53.87-51.813ZM64.65-37.813C65.94-37.068 66.38-35.416 65.64-34.125L45.55 0.665C44.8 1.956 43.15 2.399 41.86 1.653C40.57 0.907 40.13-0.744 40.87-2.035L60.96-36.825C61.71-38.117 63.36-38.559 64.65-37.813ZM36.34-49.475C36.34-50.966 37.55-52.175 39.04-52.175L79.22-52.175C80.72-52.175 81.92-50.966 81.92-49.475C81.92-47.984 80.72-46.775 79.22-46.775L39.04-46.775C37.55-46.775 36.34-47.984 36.34-49.475ZM52.4-72.603C53.69-71.857 54.13-70.206 53.39-68.915L33.3-34.125C32.55-32.833 30.9-32.391 29.61-33.137C28.32-33.882 27.88-35.534 28.62-36.825L48.71-71.615C49.46-72.906 51.11-73.349 52.4-72.603ZM17.61-58.603C18.9-59.349 20.55-58.906 21.29-57.615L41.38-22.825C42.13-21.534 41.69-19.882 40.4-19.137C39.1-18.391 37.45-18.833 36.71-20.125L16.62-54.915C15.87-56.206 16.31-57.857 17.61-58.603Z"/>
  </g>
  <g id="Thin-S" transform="matrix(1 0 0 1 810.497 696)">
   <path d="M46.08-68.527C27.661-68.527 12.73-53.596 12.73-35.177C12.73-16.758 27.661-1.827 46.08-1.827C64.498-1.827 79.43-16.758 79.43-35.177C79.43-53.596 64.498-68.527 46.08-68.527ZM9.43-35.177C9.43-55.418 25.838-71.827 46.08-71.827C66.321-71.827 82.73-55.418 82.73-35.177C82.73-14.936 66.321 1.473 46.08 1.473C25.838 1.473 9.43-14.936 9.43-35.177ZM12.335-21.177C12.335-22.088 13.074-22.827 13.985-22.827L54.165-22.827C55.076-22.827 55.815-22.088 55.815-21.177C55.815-20.266 55.076-19.527 54.165-19.527L13.985-19.527C13.074-19.527 12.335-20.266 12.335-21.177ZM53.34-50.606C54.129-51.062 55.138-50.791 55.594-50.002L75.684-15.212C76.139-14.423 75.869-13.414 75.08-12.958C74.291-12.502 73.282-12.773 72.826-13.562L52.736-48.352C52.28-49.141 52.551-50.15 53.34-50.606ZM63.075-36.606C63.864-36.15 64.135-35.141 63.679-34.352L43.589 0.438C43.133 1.227 42.124 1.498 41.335 1.042C40.546 0.586 40.275-0.423 40.731-1.212L60.821-36.002C61.277-36.791 62.286-37.062 63.075-36.606ZM36.345-49.177C36.345-50.088 37.083-50.827 37.995-50.827L78.175-50.827C79.086-50.827 79.825-50.088 79.825-49.177C79.825-48.266 79.086-47.527 78.175-47.527L37.995-47.527C37.083-47.527 36.345-48.266 36.345-49.177ZM50.825-71.396C51.614-70.94 51.885-69.931 51.429-69.142L31.339-34.352C30.883-33.563 29.874-33.293 29.085-33.748C28.296-34.204 28.025-35.213 28.481-36.002L48.571-70.792C49.027-71.581 50.036-71.852 50.825-71.396ZM17.08-57.396C17.869-57.852 18.878-57.581 19.334-56.792L39.424-22.002C39.88-21.213 39.609-20.204 38.82-19.748C38.031-19.293 37.022-19.563 36.566-20.352L16.476-55.142C16.021-55.931 16.291-56.94 17.08-57.396Z"/>
  </g>
  <g id="Ultralight-S" transform="matrix(1 0 0 1 514.336 696)">
   <path d="M45.53-69.027C26.808-69.027 11.63-53.85 11.63-35.127C11.63-16.405 26.808-1.227 45.53-1.227C64.253-1.227 79.43-16.405 79.43-35.127C79.43-53.85 64.253-69.027 45.53-69.027ZM9.43-35.127C9.43-55.065 25.593-71.227 45.53-71.227C65.468-71.227 81.63-55.065 81.63-35.127C81.63-15.19 65.468 0.973 45.53 0.973C25.593 0.973 9.43-15.19 9.43-35.127ZM12.335-21.127C12.335-21.735 12.827-22.227 13.435-22.227L53.615-22.227C54.222-22.227 54.715-21.735 54.715-21.127C54.715-20.52 54.222-20.027 53.615-20.027L13.435-20.027C12.827-20.027 12.335-20.52 12.335-21.127ZM53.064-50.079C53.591-50.383 54.263-50.203 54.567-49.677L74.657-14.887C74.961-14.361 74.781-13.688 74.255-13.384C73.729-13.08 73.056-13.261 72.752-13.787L52.662-48.577C52.358-49.103 52.538-49.776 53.064-50.079ZM62.25-36.079C62.776-35.776 62.956-35.103 62.652-34.577L42.562 0.213C42.258 0.739 41.586 0.92 41.06 0.616C40.533 0.312 40.353-0.361 40.657-0.887L60.747-35.677C61.051-36.203 61.724-36.383 62.25-36.079ZM36.345-49.127C36.345-49.735 36.838-50.227 37.445-50.227L77.625-50.227C78.233-50.227 78.725-49.735 78.725-49.127C78.725-48.52 78.233-48.027 77.625-48.027L37.445-48.027C36.838-48.027 36.345-48.52 36.345-49.127ZM50-70.869C50.526-70.566 50.706-69.893 50.402-69.367L30.312-34.577C30.008-34.051 29.336-33.871 28.81-34.174C28.283-34.478 28.103-35.151 28.407-35.677L48.497-70.467C48.801-70.993 49.474-71.173 50-70.869ZM16.805-56.869C17.331-57.173 18.004-56.993 18.307-56.467L38.397-21.677C38.701-21.151 38.521-20.478 37.995-20.174C37.469-19.871 36.796-20.051 36.492-20.577L16.402-55.367C16.098-55.893 16.279-56.566 16.805-56.869Z"/>
  </g>
 </g>
</svg>
