<?xml version="1.0" encoding="UTF-8"?>
<!--Generator: Apple Native CoreSVG 175-->
<!DOCTYPE svg
PUBLIC "-//W3C//DTD SVG 1.1//EN"
       "http://www.w3.org/Graphics/SVG/1.1/DTD/svg11.dtd">
<svg version="1.1" xmlns="http://www.w3.org/2000/svg" xmlns:xlink="http://www.w3.org/1999/xlink" width="3300" height="2200">
 <!--glyph: "", point size: 100.0, font version: "17.0d12e1", template writer version: "65.1"-->
 <style>.hierarchical-0:secondary {fill:#4D4D4D}
.hierarchical-1:primary {fill:#212121}

.SFSymbolsPreview212121 {fill:#212121;opacity:1.0}
.SFSymbolsPreview4D4D4D {fill:#4D4D4D;opacity:1.0}
</style>
 <g id="Notes">
  <rect height="2200" id="artboard" style="fill:white;opacity:1" width="3300" x="0" y="0"/>
  <line style="fill:none;stroke:black;opacity:1;stroke-width:0.5;" x1="263" x2="3036" y1="292" y2="292"/>
  <text style="stroke:none;fill:black;font-family:sans-serif;font-size:13;font-weight:bold;" transform="matrix(1 0 0 1 263 322)">Weight/Scale Variations</text>
  <text style="stroke:none;fill:black;font-family:sans-serif;font-size:13;text-anchor:middle;" transform="matrix(1 0 0 1 559.711 322)">Ultralight</text>
  <text style="stroke:none;fill:black;font-family:sans-serif;font-size:13;text-anchor:middle;" transform="matrix(1 0 0 1 856.422 322)">Thin</text>
  <text style="stroke:none;fill:black;font-family:sans-serif;font-size:13;text-anchor:middle;" transform="matrix(1 0 0 1 1153.13 322)">Light</text>
  <text style="stroke:none;fill:black;font-family:sans-serif;font-size:13;text-anchor:middle;" transform="matrix(1 0 0 1 1449.84 322)">Regular</text>
  <text style="stroke:none;fill:black;font-family:sans-serif;font-size:13;text-anchor:middle;" transform="matrix(1 0 0 1 1746.56 322)">Medium</text>
  <text style="stroke:none;fill:black;font-family:sans-serif;font-size:13;text-anchor:middle;" transform="matrix(1 0 0 1 2043.27 322)">Semibold</text>
  <text style="stroke:none;fill:black;font-family:sans-serif;font-size:13;text-anchor:middle;" transform="matrix(1 0 0 1 2339.98 322)">Bold</text>
  <text style="stroke:none;fill:black;font-family:sans-serif;font-size:13;text-anchor:middle;" transform="matrix(1 0 0 1 2636.69 322)">Heavy</text>
  <text style="stroke:none;fill:black;font-family:sans-serif;font-size:13;text-anchor:middle;" transform="matrix(1 0 0 1 2933.4 322)">Black</text>
  <line style="fill:none;stroke:black;opacity:1;stroke-width:0.5;" x1="263" x2="3036" y1="1903" y2="1903"/>
  <g transform="matrix(1 0 0 1 263 1933)">
   <path d="M9.24805 0.830078Q10.8691 0.830078 12.2949 0.214844Q13.7207-0.400391 14.8096-1.49414Q15.8984-2.58789 16.5186-4.01367Q17.1387-5.43945 17.1387-7.05078Q17.1387-8.66211 16.5186-10.0879Q15.8984-11.5137 14.8047-12.6074Q13.7109-13.7012 12.2852-14.3164Q10.8594-14.9316 9.23828-14.9316Q7.62695-14.9316 6.20117-14.3164Q4.77539-13.7012 3.69141-12.6074Q2.60742-11.5137 1.9873-10.0879Q1.36719-8.66211 1.36719-7.05078Q1.36719-5.43945 1.9873-4.01367Q2.60742-2.58789 3.69629-1.49414Q4.78516-0.400391 6.21094 0.214844Q7.63672 0.830078 9.24805 0.830078ZM9.24805-0.654297Q7.91992-0.654297 6.7627-1.14746Q5.60547-1.64062 4.73145-2.51953Q3.85742-3.39844 3.36426-4.56055Q2.87109-5.72266 2.87109-7.05078Q2.87109-8.37891 3.35938-9.54102Q3.84766-10.7031 4.72168-11.582Q5.5957-12.4609 6.75293-12.9541Q7.91016-13.4473 9.23828-13.4473Q10.5762-13.4473 11.7334-12.9541Q12.8906-12.4609 13.7695-11.582Q14.6484-10.7031 15.1465-9.54102Q15.6445-8.37891 15.6445-7.05078Q15.6445-5.72266 15.1514-4.56055Q14.6582-3.39844 13.7842-2.51953Q12.9102-1.64062 11.748-1.14746Q10.5859-0.654297 9.24805-0.654297ZM5.6543-7.05078Q5.6543-6.72852 5.85938-6.52832Q6.06445-6.32812 6.40625-6.32812L8.51562-6.32812L8.51562-4.20898Q8.51562-3.88672 8.71094-3.67676Q8.90625-3.4668 9.23828-3.4668Q9.56055-3.4668 9.77051-3.67676Q9.98047-3.88672 9.98047-4.20898L9.98047-6.32812L12.0898-6.32812Q12.4219-6.32812 12.627-6.52832Q12.832-6.72852 12.832-7.05078Q12.832-7.38281 12.627-7.58789Q12.4219-7.79297 12.0898-7.79297L9.98047-7.79297L9.98047-9.90234Q9.98047-10.2344 9.77051-10.4443Q9.56055-10.6543 9.23828-10.6543Q8.90625-10.6543 8.71094-10.4443Q8.51562-10.2344 8.51562-9.90234L8.51562-7.79297L6.40625-7.79297Q6.06445-7.79297 5.85938-7.58789Q5.6543-7.38281 5.6543-7.05078Z"/>
  </g>
  <g transform="matrix(1 0 0 1 281.867 1933)">
   <path d="M11.709 2.91016Q13.75 2.91016 15.5518 2.12891Q17.3535 1.34766 18.7305-0.0292969Q20.1074-1.40625 20.8887-3.20801Q21.6699-5.00977 21.6699-7.05078Q21.6699-9.0918 20.8887-10.8936Q20.1074-12.6953 18.7305-14.0723Q17.3535-15.4492 15.5469-16.2305Q13.7402-17.0117 11.6992-17.0117Q9.6582-17.0117 7.85645-16.2305Q6.05469-15.4492 4.68262-14.0723Q3.31055-12.6953 2.5293-10.8936Q1.74805-9.0918 1.74805-7.05078Q1.74805-5.00977 2.5293-3.20801Q3.31055-1.40625 4.6875-0.0292969Q6.06445 1.34766 7.86621 2.12891Q9.66797 2.91016 11.709 2.91016ZM11.709 1.25Q9.98047 1.25 8.47656 0.605469Q6.97266-0.0390625 5.83496-1.17676Q4.69727-2.31445 4.05762-3.81836Q3.41797-5.32227 3.41797-7.05078Q3.41797-8.7793 4.05762-10.2832Q4.69727-11.7871 5.83008-12.9297Q6.96289-14.0723 8.4668-14.7119Q9.9707-15.3516 11.6992-15.3516Q13.4277-15.3516 14.9316-14.7119Q16.4355-14.0723 17.5781-12.9297Q18.7207-11.7871 19.3652-10.2832Q20.0098-8.7793 20.0098-7.05078Q20.0098-5.32227 19.3701-3.81836Q18.7305-2.31445 17.5928-1.17676Q16.4551-0.0390625 14.9463 0.605469Q13.4375 1.25 11.709 1.25ZM7.17773-7.05078Q7.17773-6.69922 7.41211-6.47461Q7.64648-6.25 8.01758-6.25L10.8887-6.25L10.8887-3.36914Q10.8887-2.99805 11.1133-2.76855Q11.3379-2.53906 11.6895-2.53906Q12.0605-2.53906 12.29-2.76855Q12.5195-2.99805 12.5195-3.36914L12.5195-6.25L15.4004-6.25Q15.7715-6.25 16.001-6.47461Q16.2305-6.69922 16.2305-7.05078Q16.2305-7.42188 16.001-7.65137Q15.7715-7.88086 15.4004-7.88086L12.5195-7.88086L12.5195-10.752Q12.5195-11.1328 12.29-11.3623Q12.0605-11.5918 11.6895-11.5918Q11.3379-11.5918 11.1133-11.3574Q10.8887-11.123 10.8887-10.752L10.8887-7.88086L8.01758-7.88086Q7.63672-7.88086 7.40723-7.65137Q7.17773-7.42188 7.17773-7.05078Z"/>
  </g>
  <g transform="matrix(1 0 0 1 305.646 1933)">
   <path d="M14.9707 5.66406Q17.0605 5.66406 18.96 5.01465Q20.8594 4.36523 22.4512 3.19336Q24.043 2.02148 25.2197 0.429688Q26.3965-1.16211 27.0459-3.06641Q27.6953-4.9707 27.6953-7.05078Q27.6953-9.14062 27.0459-11.04Q26.3965-12.9395 25.2197-14.5312Q24.043-16.123 22.4512-17.2998Q20.8594-18.4766 18.9551-19.126Q17.0508-19.7754 14.9609-19.7754Q12.8711-19.7754 10.9717-19.126Q9.07227-18.4766 7.48535-17.2998Q5.89844-16.123 4.72168-14.5312Q3.54492-12.9395 2.90039-11.04Q2.25586-9.14062 2.25586-7.05078Q2.25586-4.9707 2.90527-3.06641Q3.55469-1.16211 4.72656 0.429688Q5.89844 2.02148 7.49023 3.19336Q9.08203 4.36523 10.9814 5.01465Q12.8809 5.66406 14.9707 5.66406ZM14.9707 3.84766Q13.1641 3.84766 11.5283 3.2959Q9.89258 2.74414 8.53516 1.74805Q7.17773 0.751953 6.17676-0.610352Q5.17578-1.97266 4.62891-3.6084Q4.08203-5.24414 4.08203-7.05078Q4.08203-8.86719 4.62891-10.5029Q5.17578-12.1387 6.17188-13.501Q7.16797-14.8633 8.52539-15.8594Q9.88281-16.8555 11.5186-17.4023Q13.1543-17.9492 14.9609-17.9492Q16.7773-17.9492 18.4131-17.4023Q20.0488-16.8555 21.4111-15.8594Q22.7734-14.8633 23.7695-13.501Q24.7656-12.1387 25.3174-10.5029Q25.8691-8.86719 25.8691-7.05078Q25.8789-5.24414 25.332-3.6084Q24.7852-1.97266 23.7842-0.610352Q22.7832 0.751953 21.4209 1.74805Q20.0586 2.74414 18.4229 3.2959Q16.7871 3.84766 14.9707 3.84766ZM9.19922-7.05078Q9.19922-6.66992 9.45801-6.4209Q9.7168-6.17188 10.1172-6.17188L14.0625-6.17188L14.0625-2.2168Q14.0625-1.81641 14.3115-1.55762Q14.5605-1.29883 14.9512-1.29883Q15.3516-1.29883 15.6104-1.55273Q15.8691-1.80664 15.8691-2.2168L15.8691-6.17188L19.8242-6.17188Q20.2246-6.17188 20.4785-6.4209Q20.7324-6.66992 20.7324-7.05078Q20.7324-7.46094 20.4785-7.71484Q20.2246-7.96875 19.8242-7.96875L15.8691-7.96875L15.8691-11.9141Q15.8691-12.3242 15.6104-12.583Q15.3516-12.8418 14.9512-12.8418Q14.5605-12.8418 14.3115-12.583Q14.0625-12.3242 14.0625-11.9141L14.0625-7.96875L10.1172-7.96875Q9.70703-7.96875 9.45312-7.71484Q9.19922-7.46094 9.19922-7.05078Z"/>
  </g>
  <text style="stroke:none;fill:black;font-family:sans-serif;font-size:13;font-weight:bold;" transform="matrix(1 0 0 1 263 1953)">Design Variations</text>
  <text style="stroke:none;fill:black;font-family:sans-serif;font-size:13;" transform="matrix(1 0 0 1 263 1971)">Symbols are supported in up to nine weights and three scales.</text>
  <text style="stroke:none;fill:black;font-family:sans-serif;font-size:13;" transform="matrix(1 0 0 1 263 1989)">For optimal layout with text and other symbols, vertically align</text>
  <text style="stroke:none;fill:black;font-family:sans-serif;font-size:13;" transform="matrix(1 0 0 1 263 2007)">symbols with the adjacent text.</text>
  <line style="fill:none;stroke:#00AEEF;stroke-width:0.5;opacity:1.0;" x1="776" x2="776" y1="1919" y2="1933"/>
  <g transform="matrix(1 0 0 1 776 1933)">
   <path d="M3.31055 0.15625Q3.70117 0.15625 3.91602-0.00976562Q4.13086-0.175781 4.26758-0.585938L5.52734-4.0332L11.2891-4.0332L12.5488-0.585938Q12.6855-0.175781 12.9004-0.00976562Q13.1152 0.15625 13.4961 0.15625Q13.8867 0.15625 14.1162-0.0585938Q14.3457-0.273438 14.3457-0.644531Q14.3457-0.869141 14.2383-1.17188L9.6582-13.3691Q9.48242-13.8184 9.17969-14.043Q8.87695-14.2676 8.4082-14.2676Q7.5-14.2676 7.17773-13.3789L2.59766-1.16211Q2.49023-0.859375 2.49023-0.634766Q2.49023-0.263672 2.70996-0.0537109Q2.92969 0.15625 3.31055 0.15625ZM6.00586-5.51758L8.37891-12.0898L8.42773-12.0898L10.8008-5.51758Z"/>
  </g>
  <line style="fill:none;stroke:#00AEEF;stroke-width:0.5;opacity:1.0;" x1="793.197" x2="793.197" y1="1919" y2="1933"/>
  <text style="stroke:none;fill:black;font-family:sans-serif;font-size:13;font-weight:bold;" transform="matrix(1 0 0 1 776 1953)">Margins</text>
  <text style="stroke:none;fill:black;font-family:sans-serif;font-size:13;" transform="matrix(1 0 0 1 776 1971)">Leading and trailing margins on the left and right side of each symbol</text>
  <text style="stroke:none;fill:black;font-family:sans-serif;font-size:13;" transform="matrix(1 0 0 1 776 1989)">can be adjusted by modifying the x-location of the margin guidelines.</text>
  <text style="stroke:none;fill:black;font-family:sans-serif;font-size:13;" transform="matrix(1 0 0 1 776 2007)">Modifications are automatically applied proportionally to all</text>
  <text style="stroke:none;fill:black;font-family:sans-serif;font-size:13;" transform="matrix(1 0 0 1 776 2025)">scales and weights.</text>
  <g transform="matrix(1 0 0 1 1289 1933)">
   <path d="M2.8418 1.86523L4.54102 3.57422Q5.18555 4.22852 5.90332 4.17969Q6.62109 4.13086 7.31445 3.35938L18.0078-8.42773L17.041-9.4043L6.42578 2.27539Q6.16211 2.57812 5.89355 2.61719Q5.625 2.65625 5.27344 2.30469L4.10156 1.14258Q3.75 0.791016 3.79395 0.522461Q3.83789 0.253906 4.14062-0.0195312L15.6152-10.8203L14.6387-11.7871L3.04688-0.898438Q2.30469-0.214844 2.25098 0.498047Q2.19727 1.21094 2.8418 1.86523ZM9.25781-16.3281Q8.94531-16.0254 8.90625-15.6348Q8.86719-15.2441 9.04297-14.9512Q9.21875-14.6777 9.55566-14.541Q9.89258-14.4043 10.3809-14.5215Q11.4746-14.7754 12.5977-14.7314Q13.7207-14.6875 14.7949-13.9844L14.209-12.5293Q13.9551-11.9043 14.0674-11.4404Q14.1797-10.9766 14.5801-10.5664L16.875-8.25195Q17.2363-7.88086 17.5781-7.82227Q17.9199-7.76367 18.3398-7.8418L19.4043-8.03711L20.0684-7.36328L20.0293-6.80664Q20-6.43555 20.1221-6.12305Q20.2441-5.81055 20.6055-5.44922L21.3672-4.70703Q21.7285-4.3457 22.1533-4.33105Q22.5781-4.31641 22.9297-4.66797L25.8398-7.58789Q26.1914-7.93945 26.1816-8.35449Q26.1719-8.76953 25.8105-9.13086L25.0391-9.89258Q24.6875-10.2539 24.3799-10.3857Q24.0723-10.5176 23.7109-10.4883L23.1348-10.4395L22.4902-11.0742L22.7344-12.1973Q22.832-12.6172 22.6953-12.9834Q22.5586-13.3496 22.1191-13.7891L19.9219-15.9766Q18.6719-17.2168 17.2607-17.8369Q15.8496-18.457 14.4189-18.4814Q12.9883-18.5059 11.665-17.959Q10.3418-17.4121 9.25781-16.3281ZM10.752-15.957Q11.6602-16.6211 12.7002-16.9043Q13.7402-17.1875 14.8047-17.085Q15.8691-16.9824 16.8701-16.5137Q17.8711-16.0449 18.7012-15.2051L21.1328-12.793Q21.3086-12.6172 21.3525-12.4512Q21.3965-12.2852 21.3379-12.0312L21.0156-10.5469L22.5195-9.0625L23.5059-9.12109Q23.6914-9.13086 23.7891-9.09668Q23.8867-9.0625 24.0332-8.91602L24.6094-8.33984L22.168-5.89844L21.5918-6.47461Q21.4453-6.62109 21.4062-6.71875Q21.3672-6.81641 21.377-7.01172L21.4453-7.98828L19.9512-9.47266L18.4277-9.21875Q18.1836-9.16992 18.042-9.2041Q17.9004-9.23828 17.7148-9.41406L15.7129-11.416Q15.5176-11.5918 15.4932-11.7529Q15.4688-11.9141 15.5859-12.1875L16.4648-14.2773Q15.293-15.3711 13.8281-15.791Q12.3633-16.2109 10.8398-15.7617Q10.7227-15.7324 10.6885-15.8057Q10.6543-15.8789 10.752-15.957Z"/>
  </g>
  <text style="stroke:none;fill:black;font-family:sans-serif;font-size:13;font-weight:bold;" transform="matrix(1 0 0 1 1289 1953)">Exporting</text>
  <text style="stroke:none;fill:black;font-family:sans-serif;font-size:13;" transform="matrix(1 0 0 1 1289 1971)">Symbols should be outlined when exporting to ensure the</text>
  <text style="stroke:none;fill:black;font-family:sans-serif;font-size:13;" transform="matrix(1 0 0 1 1289 1989)">design is preserved when submitting to Xcode.</text>
  <text id="template-version" style="stroke:none;fill:black;font-family:sans-serif;font-size:13;text-anchor:end;" transform="matrix(1 0 0 1 3036 1933)">Template v.3.0</text>
  <text style="stroke:none;fill:black;font-family:sans-serif;font-size:13;text-anchor:end;" transform="matrix(1 0 0 1 3036 1951)">Requires Xcode 13 or greater</text>
  <text id="descriptive-name" style="stroke:none;fill:black;font-family:sans-serif;font-size:13;text-anchor:end;" transform="matrix(1 0 0 1 3036 1969)">Generated from wifi-off</text>
  <text style="stroke:none;fill:black;font-family:sans-serif;font-size:13;text-anchor:end;" transform="matrix(1 0 0 1 3036 1987)">Typeset at 100 points</text>
  <text style="stroke:none;fill:black;font-family:sans-serif;font-size:13;" transform="matrix(1 0 0 1 263 726)">Small</text>
  <text style="stroke:none;fill:black;font-family:sans-serif;font-size:13;" transform="matrix(1 0 0 1 263 1156)">Medium</text>
  <text style="stroke:none;fill:black;font-family:sans-serif;font-size:13;" transform="matrix(1 0 0 1 263 1586)">Large</text>
 </g>
 <g id="Guides">
  <g id="H-reference" style="fill:#27AAE1;stroke:none;" transform="matrix(1 0 0 1 339 696)">
   <path d="M0.976562 0L3.66211 0L29.3457-67.1387L30.0293-67.1387L30.0293-70.459L28.125-70.459ZM11.6699-24.4629L46.9727-24.4629L46.2402-26.709L12.4512-26.709ZM55.127 0L57.7637 0L30.6152-70.459L29.4434-70.459L29.4434-67.1387Z"/>
  </g>
  <line id="Baseline-S" style="fill:none;stroke:#27AAE1;opacity:1;stroke-width:0.5;" x1="263" x2="3036" y1="696" y2="696"/>
  <line id="Capline-S" style="fill:none;stroke:#27AAE1;opacity:1;stroke-width:0.5;" x1="263" x2="3036" y1="625.541" y2="625.541"/>
  <g id="H-reference" style="fill:#27AAE1;stroke:none;" transform="matrix(1 0 0 1 339 1126)">
   <path d="M0.976562 0L3.66211 0L29.3457-67.1387L30.0293-67.1387L30.0293-70.459L28.125-70.459ZM11.6699-24.4629L46.9727-24.4629L46.2402-26.709L12.4512-26.709ZM55.127 0L57.7637 0L30.6152-70.459L29.4434-70.459L29.4434-67.1387Z"/>
  </g>
  <line id="Baseline-M" style="fill:none;stroke:#27AAE1;opacity:1;stroke-width:0.5;" x1="263" x2="3036" y1="1126" y2="1126"/>
  <line id="Capline-M" style="fill:none;stroke:#27AAE1;opacity:1;stroke-width:0.5;" x1="263" x2="3036" y1="1055.54" y2="1055.54"/>
  <g id="H-reference" style="fill:#27AAE1;stroke:none;" transform="matrix(1 0 0 1 339 1556)">
   <path d="M0.976562 0L3.66211 0L29.3457-67.1387L30.0293-67.1387L30.0293-70.459L28.125-70.459ZM11.6699-24.4629L46.9727-24.4629L46.2402-26.709L12.4512-26.709ZM55.127 0L57.7637 0L30.6152-70.459L29.4434-70.459L29.4434-67.1387Z"/>
  </g>
  <line id="Baseline-L" style="fill:none;stroke:#27AAE1;opacity:1;stroke-width:0.5;" x1="263" x2="3036" y1="1556" y2="1556"/>
  <line id="Capline-L" style="fill:none;stroke:#27AAE1;opacity:1;stroke-width:0.5;" x1="263" x2="3036" y1="1485.54" y2="1485.54"/>
  <line id="left-margin-Regular-M" style="fill:none;stroke:#00AEEF;stroke-width:0.5;opacity:1.0;" x1="1393.13" x2="1393.13" y1="1030.78" y2="1150.12"/>
  <line id="right-margin-Regular-M" style="fill:none;stroke:#00AEEF;stroke-width:0.5;opacity:1.0;" x1="1506.56" x2="1506.56" y1="1030.78" y2="1150.12"/>
 </g>
 <g id="Symbols">
  <g id="Black-L" transform="matrix(1 0 0 1 2859.61 1556)">
   <path class="hierarchical-0:secondary SFSymbolsPreview4D4D4D" d="M100.402-65.05C89.7125-68.61 78.4125-69.98 67.1725-69.07C63.2725-68.76 59.8425-71.67 59.5325-75.58C59.2125-79.49 62.1225-82.91 66.0325-83.23C79.1725-84.28 92.3825-82.68 104.892-78.52C117.392-74.36 128.932-67.73 138.812-59.01C141.752-56.41 142.032-51.93 139.442-48.99C136.842-46.05 132.362-45.76 129.422-48.36C120.972-55.81 111.102-61.49 100.402-65.05ZM73.9725-12.45C68.3625-12.45 62.8925-10.71 58.3225-7.46C55.1225-5.19 50.6925-5.94 48.4225-9.13C46.1525-12.33 46.9025-16.76 50.0925-19.03C57.0725-23.99 65.4125-26.65 73.9725-26.65C82.5325-26.65 90.8725-23.99 97.8425-19.03C101.043-16.76 101.793-12.33 99.5225-9.13C97.2525-5.94 92.8225-5.19 89.6225-7.46C85.0525-10.71 79.5825-12.45 73.9725-12.45ZM70.5325-48.28C71.1925-44.42 68.6025-40.75 64.7325-40.09C55.1425-38.44 46.1525-34.29 38.6825-28.05C35.6725-25.53 31.2025-25.93 28.6825-28.94C26.1725-31.95 26.5725-36.42 29.5725-38.94C38.9625-46.79 50.2725-52.02 62.3325-54.08C66.2025-54.75 69.8725-52.15 70.5325-48.28ZM47.1025-72.67C48.5425-69.02 46.7525-64.9 43.1025-63.46C34.0825-59.9 25.7425-54.79 18.4725-48.36C15.5325-45.76 11.0425-46.04 8.4525-48.98C5.8525-51.92 6.1325-56.4 9.0625-59C17.5725-66.52 27.3325-72.5 37.8925-76.67C41.5425-78.11 45.6625-76.31 47.1025-72.67ZM94.4025-45.08C96.1225-48.61 100.382-50.07 103.902-48.35C109.092-45.82 113.942-42.64 118.352-38.91C121.342-36.37 121.702-31.89 119.172-28.9C116.632-25.91 112.152-25.54 109.162-28.08C105.662-31.05 101.802-33.57 97.6725-35.59C94.1525-37.31 92.6825-41.56 94.4025-45.08ZM66.8425 8.88C66.8425 4.96 70.0225 1.78 73.9425 1.78L74.0025 1.78C77.9225 1.78 81.1025 4.96 81.1025 8.88C81.1025 12.8 77.9225 15.98 74.0025 15.98L73.9425 15.98C70.0225 15.98 66.8425 12.8 66.8425 8.88Z"/>
   <path class="hierarchical-1:primary SFSymbolsPreview212121" d="M6.3625-104.2C9.1325-106.98 13.6325-106.98 16.4025-104.2L141.523 20.92C144.302 23.69 144.302 28.19 141.523 30.96C138.752 33.73 134.262 33.73 131.482 30.96L6.3625-94.16C3.5825-96.94 3.5825-101.43 6.3625-104.2Z"/>
  </g>
  <g id="Heavy-L" transform="matrix(1 0 0 1 2563.75 1556)">
   <path class="hierarchical-0:secondary SFSymbolsPreview4D4D4D" d="M99.8175-65.69C89.0175-69.28 77.5975-70.66 66.2475-69.75C62.8075-69.47 59.7975-72.03 59.5175-75.47C59.2375-78.92 61.8075-81.93 65.2475-82.21C78.2675-83.26 91.3675-81.67 103.767-77.55C116.157-73.42 127.597-66.84 137.397-58.2C139.977-55.91 140.227-51.96 137.947-49.38C135.668-46.79 131.717-46.54 129.127-48.82C120.587-56.36 110.617-62.09 99.8175-65.69ZM73.1175-13.13C67.3275-13.13 61.6875-11.33 56.9675-7.98C54.1575-5.98 50.2575-6.64 48.2575-9.45C46.2575-12.27 46.9175-16.17 49.7275-18.17C56.5575-23.02 64.7375-25.63 73.1175-25.63C81.4975-25.63 89.6675-23.02 96.4975-18.17C99.3075-16.17 99.9675-12.27 97.9775-9.45C95.9775-6.64 92.0675-5.98 89.2575-7.98C84.5375-11.33 78.8975-13.13 73.1175-13.13ZM68.8375-47.97C69.4175-44.57 67.1375-41.34 63.7375-40.75C53.9875-39.09 44.8675-34.87 37.2775-28.53C34.6375-26.31 30.6875-26.66 28.4775-29.31C26.2675-31.96 26.6175-35.9 29.2675-38.12C38.5375-45.87 49.7075-51.03 61.6175-53.07C65.0275-53.66 68.2575-51.37 68.8375-47.97ZM45.4575-72.19C46.7275-68.98 45.1475-65.35 41.9375-64.08C32.8175-60.48 24.3975-55.32 17.0475-48.83C14.4675-46.55 10.5175-46.79 8.2275-49.37C5.9475-51.96 6.1875-55.91 8.7675-58.2C17.2075-65.65 26.8775-71.58 37.3475-75.71C40.5575-76.97 44.1875-75.4 45.4575-72.19ZM94.3175-44.54C95.8275-47.64 99.5675-48.93 102.668-47.41C107.797-44.91 112.587-41.78 116.938-38.09C119.577-35.85 119.897-31.91 117.668-29.28C115.427-26.65 111.487-26.32 108.857-28.56C105.297-31.57 101.377-34.13 97.1875-36.18C94.0875-37.69 92.7975-41.44 94.3175-44.54ZM66.8375 9.05C66.8375 5.6 69.6375 2.8 73.0875 2.8L73.1375 2.8C76.5975 2.8 79.3875 5.6 79.3875 9.05C79.3875 12.5 76.5975 15.3 73.1375 15.3L73.0875 15.3C69.6375 15.3 66.8375 12.5 66.8375 9.05Z"/>
   <path class="hierarchical-1:primary SFSymbolsPreview212121" d="M6.1075-103.43C8.5475-105.87 12.4975-105.87 14.9375-103.43L140.067 21.69C142.507 24.13 142.507 28.09 140.067 30.53C137.627 32.97 133.668 32.97 131.227 30.53L6.1075-94.59C3.6675-97.03 3.6675-100.99 6.1075-103.43Z"/>
  </g>
  <g id="Bold-L" transform="matrix(1 0 0 1 2267.99 1556)">
   <path class="hierarchical-0:secondary SFSymbolsPreview4D4D4D" d="M99.17-66.405C88.24-70.035 76.7-71.435 65.22-70.505C62.31-70.275 59.75-72.445 59.52-75.365C59.28-78.285 61.45-80.845 64.37-81.075C77.27-82.115 90.24-80.545 102.509-76.465C114.79-72.375 126.109-65.855 135.819-57.305C138.009-55.365 138.219-52.015 136.279-49.825C134.349-47.625 131-47.415 128.799-49.355C120.17-56.965 110.089-62.765 99.17-66.405ZM72.16-13.895C66.18-13.895 60.35-12.035 55.47-8.565C53.08-6.875 49.77-7.435 48.08-9.825C46.38-12.205 46.94-15.515 49.33-17.215C56-21.945 63.98-24.495 72.16-24.495C80.35-24.495 88.33-21.945 95-17.215C97.38-15.515 97.94-12.205 96.25-9.825C94.55-7.435 91.24-6.875 88.86-8.565C83.98-12.035 78.15-13.895 72.16-13.895ZM66.95-47.625C67.44-44.745 65.51-42.005 62.62-41.505C52.71-39.805 43.43-35.515 35.72-29.075C33.48-27.195 30.13-27.495 28.26-29.735C26.38-31.985 26.68-35.325 28.92-37.205C38.07-44.855 49.08-49.945 60.83-51.955C63.72-52.445 66.46-50.515 66.95-47.625ZM43.62-71.655C44.7-68.925 43.36-65.845 40.64-64.775C31.42-61.135 22.9-55.925 15.47-49.355C13.28-47.415 9.93-47.625 7.99-49.815C6.05-52.005 6.26-55.355 8.45-57.295C16.8-64.675 26.38-70.545 36.75-74.635C39.47-75.715 42.55-74.375 43.62-71.655ZM94.22-43.935C95.5-46.565 98.67-47.655 101.299-46.375C106.359-43.905 111.089-40.815 115.38-37.175C117.609-35.285 117.88-31.945 115.989-29.705C114.099-27.475 110.75-27.205 108.52-29.095C104.9-32.165 100.92-34.765 96.66-36.845C94.03-38.135 92.93-41.305 94.22-43.935ZM66.84 9.235C66.84 6.305 69.21 3.935 72.14 3.935L72.19 3.935C75.12 3.935 77.49 6.305 77.49 9.235C77.49 12.165 75.12 14.535 72.19 14.535L72.14 14.535C69.21 14.535 66.84 12.165 66.84 9.235Z"/>
   <path class="hierarchical-1:primary SFSymbolsPreview212121" d="M5.83-102.574C7.89-104.644 11.25-104.644 13.32-102.574L138.449 22.545C140.52 24.615 140.52 27.975 138.449 30.045C136.38 32.115 133.02 32.115 130.949 30.045L5.83-95.085C3.76-97.155 3.76-100.505 5.83-102.574Z"/>
  </g>
  <g id="Semibold-L" transform="matrix(1 0 0 1 1971.93 1556)">
   <path class="hierarchical-0:secondary SFSymbolsPreview4D4D4D" d="M98.7325-66.9C87.7225-70.56 76.0925-71.97 64.5325-71.03C61.9725-70.83 59.7225-72.74 59.5225-75.3C59.3125-77.86 61.2225-80.1 63.7825-80.3C76.5925-81.34 89.4725-79.78 101.662-75.72C113.852-71.66 125.102-65.19 134.742-56.69C136.673-54.99 136.852-52.05 135.153-50.13C133.452-48.2 130.512-48.02 128.593-49.72C119.892-57.39 109.733-63.23 98.7325-66.9ZM71.5225-14.42C65.4025-14.42 59.4325-12.52 54.4525-8.98C52.3525-7.49 49.4525-7.98 47.9625-10.07C46.4825-12.17 46.9725-15.07 49.0625-16.56C55.6225-21.22 63.4725-23.72 71.5225-23.72C79.5725-23.72 87.4125-21.22 93.9825-16.56C96.0725-15.07 96.5625-12.17 95.0725-10.07C93.5925-7.98 90.6825-7.49 88.5925-8.98C83.6025-12.52 77.6425-14.42 71.5225-14.42ZM65.6725-47.39C66.1025-44.86 64.4025-42.46 61.8725-42.02C51.8525-40.31 42.4625-35.97 34.6625-29.45C32.6925-27.8 29.7625-28.06 28.1125-30.03C26.4625-32 26.7225-34.93 28.7025-36.58C37.7525-44.16 48.6625-49.2 60.3025-51.19C62.8325-51.62 65.2325-49.92 65.6725-47.39ZM42.3725-71.29C43.3225-68.9 42.1425-66.2 39.7525-65.26C30.4625-61.59 21.8825-56.33 14.4025-49.72C12.4725-48.02 9.5325-48.2 7.8325-50.12C6.1325-52.05 6.3125-54.99 8.2425-56.69C16.5325-64.02 26.0425-69.85 36.3425-73.91C38.7325-74.85 41.4325-73.68 42.3725-71.29ZM94.1625-43.52C95.2825-45.83 98.0725-46.79 100.372-45.66C105.383-43.22 110.062-40.16 114.312-36.56C116.272-34.9 116.512-31.96 114.852-30C113.193-28.04 110.252-27.8 108.292-29.47C104.642-32.57 100.613-35.2 96.3025-37.31C93.9925-38.43 93.0325-41.22 94.1625-43.52ZM66.8425 9.36C66.8425 6.79 68.9225 4.71 71.4925 4.71L71.5525 4.71C74.1225 4.71 76.2025 6.79 76.2025 9.36C76.2025 11.93 74.1225 14.01 71.5525 14.01L71.4925 14.01C68.9225 14.01 66.8425 11.93 66.8425 9.36Z"/>
   <path class="hierarchical-1:primary SFSymbolsPreview212121" d="M5.6425-101.99C7.4625-103.81 10.4025-103.81 12.2225-101.99L137.343 23.14C139.162 24.95 139.162 27.9 137.343 29.71C135.522 31.53 132.582 31.53 130.762 29.71L5.6425-95.41C3.8225-97.23 3.8225-100.17 5.6425-101.99Z"/>
  </g>
  <g id="Medium-L" transform="matrix(1 0 0 1 1675.72 1556)">
   <path class="hierarchical-0:secondary SFSymbolsPreview4D4D4D" d="M98.3825-67.27C87.3125-70.95 75.6225-72.37 63.9925-71.43C61.7025-71.25 59.7025-72.95 59.5225-75.24C59.3325-77.52 61.0425-79.52 63.3225-79.71C76.0625-80.73 88.8825-79.18 101.012-75.15C113.132-71.11 124.322-64.67 133.913-56.22C135.632-54.7 135.792-52.08 134.282-50.36C132.762-48.64 130.143-48.48 128.422-49.99C119.673-57.71 109.453-63.59 98.3825-67.27ZM71.0225-14.82C64.8025-14.82 58.7325-12.89 53.6625-9.28C51.7925-7.96 49.2025-8.39 47.8725-10.26C46.5425-12.13 46.9825-14.72 48.8525-16.05C55.3325-20.65 63.0725-23.12 71.0225-23.12C78.9625-23.12 86.7125-20.65 93.1925-16.05C95.0525-14.72 95.4925-12.13 94.1725-10.26C92.8425-8.39 90.2525-7.96 88.3825-9.28C83.3125-12.89 77.2425-14.82 71.0225-14.82ZM64.6725-47.21C65.0625-44.95 63.5425-42.8 61.2825-42.42C51.1825-40.68 41.7125-36.31 33.8425-29.73C32.0825-28.26 29.4625-28.49 27.9925-30.25C26.5225-32.01 26.7625-34.63 28.5225-36.1C37.5125-43.62 48.3325-48.62 59.8825-50.6C62.1425-50.98 64.2925-49.47 64.6725-47.21ZM41.4125-71.01C42.2525-68.87 41.2025-66.46 39.0725-65.62C29.7225-61.94 21.0925-56.65 13.5625-49.99C11.8525-48.48 9.2225-48.64 7.7125-50.35C6.1925-52.07 6.3525-54.69 8.0725-56.21C16.3225-63.51 25.7825-69.3 36.0325-73.34C38.1625-74.18 40.5725-73.14 41.4125-71.01ZM94.1125-43.21C95.1125-45.27 97.6025-46.12 99.6525-45.12C104.622-42.69 109.272-39.65 113.493-36.08C115.233-34.59 115.453-31.97 113.973-30.23C112.483-28.48 109.862-28.26 108.122-29.75C104.433-32.88 100.362-35.53 96.0125-37.66C93.9525-38.66 93.1025-41.15 94.1125-43.21ZM66.8425 9.46C66.8425 7.17 68.7025 5.31 70.9925 5.31L71.0525 5.31C73.3425 5.31 75.2025 7.17 75.2025 9.46C75.2025 11.75 73.3425 13.61 71.0525 13.61L70.9925 13.61C68.7025 13.61 66.8425 11.75 66.8425 9.46Z"/>
   <path class="hierarchical-1:primary SFSymbolsPreview212121" d="M5.4925-101.54C7.1125-103.16 9.7425-103.16 11.3625-101.54L136.493 23.59C138.112 25.21 138.112 27.84 136.493 29.46C134.872 31.08 132.243 31.08 130.622 29.46L5.4925-95.67C3.8725-97.29 3.8725-99.92 5.4925-101.54Z"/>
  </g>
  <g id="Regular-L" transform="matrix(1 0 0 1 1379.66 1556)">
   <path class="hierarchical-0:secondary SFSymbolsPreview4D4D4D" d="M97.9375-67.75C86.7875-71.47 74.9975-72.89 63.2775-71.95C61.3575-71.79 59.6675-73.23 59.5075-75.16C59.3575-77.08 60.7975-78.77 62.7175-78.93C75.3775-79.95 88.1075-78.4 100.147-74.4C112.197-70.39 123.308-63.99 132.827-55.6C134.278-54.32 134.417-52.11 133.137-50.66C131.857-49.21 129.647-49.07 128.197-50.35C119.377-58.12 109.087-64.04 97.9375-67.75ZM70.3675-15.34C64.0075-15.34 57.8075-13.36 52.6275-9.68C51.0575-8.56 48.8675-8.93 47.7475-10.51C46.6275-12.08 46.9975-14.27 48.5775-15.39C54.9375-19.91 62.5575-22.34 70.3675-22.34C78.1775-22.34 85.7875-19.91 92.1575-15.39C93.7375-14.27 94.1075-12.08 92.9875-10.51C91.8675-8.93 89.6775-8.56 88.1075-9.68C82.9175-13.36 76.7175-15.34 70.3675-15.34ZM63.3775-46.97C63.7075-45.06 62.4275-43.25 60.5175-42.93C50.2975-41.17 40.7275-36.75 32.7675-30.1C31.2875-28.86 29.0775-29.05 27.8375-30.54C26.5975-32.02 26.7975-34.23 28.2775-35.47C37.1875-42.91 47.8975-47.86 59.3375-49.82C61.2475-50.15 63.0575-48.87 63.3775-46.97ZM40.1475-70.64C40.8575-68.84 39.9775-66.81 38.1775-66.1C28.7575-62.39 20.0675-57.06 12.4775-50.35C11.0375-49.07 8.8175-49.21 7.5375-50.66C6.2575-52.11 6.3975-54.32 7.8475-55.6C16.0375-62.84 25.4375-68.6 35.6075-72.61C37.4075-73.32 39.4375-72.44 40.1475-70.64ZM94.0375-42.79C94.8875-44.53 96.9775-45.25 98.7175-44.4C103.637-42 108.237-38.99 112.417-35.45C113.887-34.2 114.067-31.99 112.817-30.52C111.567-29.04 109.357-28.86 107.887-30.11C104.157-33.28 100.048-35.97 95.6475-38.11C93.9075-38.96 93.1875-41.06 94.0375-42.79ZM66.8375 9.59C66.8375 7.66 68.4075 6.09 70.3375 6.09L70.3975 6.09C72.3275 6.09 73.8975 7.66 73.8975 9.59C73.8975 11.52 72.3275 13.09 70.3975 13.09L70.3375 13.09C68.4075 13.09 66.8375 11.52 66.8375 9.59Z"/>
   <path class="hierarchical-1:primary SFSymbolsPreview212121" d="M5.2975-100.95C6.6675-102.31 8.8875-102.31 10.2475-100.95L135.377 24.18C136.737 25.54 136.737 27.76 135.377 29.13C134.007 30.49 131.787 30.49 130.427 29.13L5.2975-96C3.9375-97.36 3.9375-99.58 5.2975-100.95Z"/>
  </g>
  <g id="Light-L" transform="matrix(1 0 0 1 1083.74 1556)">
   <path class="hierarchical-0:secondary SFSymbolsPreview4D4D4D" d="M97.3925-68.37C86.1425-72.11 74.2425-73.55 62.4225-72.6C60.9325-72.48 59.6325-73.59 59.5125-75.07C59.3925-76.56 60.5025-77.86 61.9925-77.98C74.5325-78.99 87.1525-77.46 99.1025-73.49C111.042-69.52 122.062-63.18 131.502-54.85C132.622-53.86 132.722-52.16 131.742-51.04C130.752-49.92 129.052-49.81 127.933-50.8C119.032-58.65 108.652-64.62 97.3925-68.37ZM69.5725-15.99C63.0525-15.99 56.6925-13.96 51.3725-10.18C50.1525-9.32 48.4725-9.6 47.6025-10.82C46.7425-12.04 47.0225-13.72 48.2425-14.58C54.4725-19.01 61.9325-21.39 69.5725-21.39C77.2125-21.39 84.6725-19.01 90.9025-14.58C92.1125-13.72 92.4025-12.04 91.5325-10.82C90.6725-9.6 88.9825-9.32 87.7725-10.18C82.4525-13.96 76.0925-15.99 69.5725-15.99ZM61.7925-46.68C62.0425-45.21 61.0625-43.81 59.5925-43.56C49.2325-41.79 39.5225-37.3 31.4625-30.56C30.3225-29.6 28.6125-29.76 27.6625-30.9C26.7025-32.04 26.8525-33.75 28.0025-34.7C36.7925-42.06 47.3825-46.95 58.6825-48.89C60.1525-49.14 61.5425-48.15 61.7925-46.68ZM38.6125-70.19C39.1625-68.81 38.4825-67.24 37.0925-66.69C27.5825-62.94 18.8125-57.57 11.1525-50.8C10.0425-49.81 8.3325-49.92 7.3425-51.04C6.3625-52.15 6.4625-53.86 7.5825-54.85C15.7025-62.03 25.0225-67.74 35.1125-71.72C36.4925-72.26 38.0625-71.58 38.6125-70.19ZM93.9625-42.29C94.6125-43.63 96.2325-44.19 97.5725-43.53C102.433-41.16 106.982-38.19 111.102-34.69C112.242-33.73 112.382-32.02 111.413-30.89C110.452-29.75 108.742-29.61 107.612-30.57C103.822-33.78 99.6625-36.51 95.2025-38.68C93.8625-39.33 93.3025-40.95 93.9625-42.29ZM66.8425 9.74C66.8425 8.25 68.0525 7.04 69.5425 7.04L69.6025 7.04C71.0925 7.04 72.3025 8.25 72.3025 9.74C72.3025 11.23 71.0925 12.44 69.6025 12.44L69.5425 12.44C68.0525 12.44 66.8425 11.23 66.8425 9.74Z"/>
   <path class="hierarchical-1:primary SFSymbolsPreview212121" d="M5.0725-100.23C6.1225-101.29 7.8325-101.29 8.8925-100.23L134.012 24.89C135.072 25.95 135.072 27.66 134.012 28.71C132.962 29.77 131.252 29.77 130.192 28.71L5.0725-96.41C4.0125-97.47 4.0125-99.18 5.0725-100.23Z"/>
  </g>
  <g id="Thin-L" transform="matrix(1 0 0 1 788.085 1556)">
   <path class="hierarchical-0:secondary SFSymbolsPreview4D4D4D" d="M96.6735-69.15C85.2845-72.94 73.2495-74.4 61.2855-73.43C60.3765-73.36 59.5815-74.04 59.5085-74.95C59.4345-75.85 60.1115-76.65 61.0205-76.72C73.4265-77.72 85.9065-76.21 97.7155-72.28C109.526-68.35 120.421-62.08 129.754-53.85C130.439-53.25 130.503-52.21 129.901-51.52C129.297-50.84 128.256-50.77 127.571-51.38C118.57-59.32 108.062-65.36 96.6735-69.15ZM68.5175-16.83C61.7775-16.83 55.2045-14.74 49.7095-10.83C48.9665-10.3 47.9365-10.48 47.4085-11.22C46.8815-11.96 47.0555-12.99 47.7985-13.52C53.8515-17.82 61.0925-20.13 68.5175-20.13C75.9435-20.13 83.1845-17.82 89.2375-13.52C89.9805-12.99 90.1545-11.96 89.6275-11.22C89.0995-10.48 88.0695-10.3 87.3265-10.83C81.8315-14.74 75.2585-16.83 68.5175-16.83ZM59.7075-46.29C59.8615-45.39 59.2585-44.54 58.3605-44.39C47.8175-42.58 37.9415-38.02 29.7355-31.15C29.0365-30.57 27.9955-30.66 27.4115-31.36C26.8265-32.06 26.9195-33.1 27.6185-33.69C36.2715-40.92 46.6855-45.74 57.8025-47.64C58.7015-47.79 59.5535-47.19 59.7075-46.29ZM36.5815-69.6C36.9165-68.75 36.5005-67.79 35.6525-67.46C26.0355-63.67 17.1545-58.22 9.4085-51.38C8.7255-50.77 7.6835-50.84 7.0795-51.52C6.4765-52.2 6.5405-53.25 7.2235-53.85C15.2565-60.95 24.4675-66.6 34.4415-70.53C35.2895-70.86 36.2475-70.45 36.5815-69.6ZM93.8515-41.62C94.2515-42.44 95.2395-42.78 96.0585-42.38C100.84-40.05 105.312-37.12 109.369-33.68C110.065-33.09 110.149-32.05 109.56-31.35C108.97-30.66 107.93-30.57 107.234-31.16C103.387-34.43 99.1465-37.2 94.6115-39.41C93.7925-39.81 93.4525-40.8 93.8515-41.62ZM66.8395 9.95C66.8395 9.04 67.5785 8.3 68.4895 8.3L68.5465 8.3C69.4575 8.3 70.1965 9.04 70.1965 9.95C70.1965 10.86 69.4575 11.6 68.5465 11.6L68.4895 11.6C67.5785 11.6 66.8395 10.86 66.8395 9.95Z"/>
   <path class="hierarchical-1:primary SFSymbolsPreview212121" d="M4.7605-99.28C5.4045-99.92 6.4495-99.92 7.0935-99.28L132.219 25.85C132.863 26.49 132.863 27.54 132.219 28.18C131.575 28.82 130.529 28.82 129.885 28.18L4.7605-96.94C4.1165-97.59 4.1165-98.63 4.7605-99.28Z"/>
  </g>
  <g id="Ultralight-L" transform="matrix(1 0 0 1 491.924 1556)">
   <path class="hierarchical-0:secondary SFSymbolsPreview4D4D4D" d="M96.298-69.565C84.839-73.385 72.729-74.845 60.691-73.875C60.086-73.825 59.555-74.275 59.507-74.885C59.458-75.495 59.909-76.025 60.515-76.065C72.847-77.065 85.253-75.565 96.992-71.655C108.731-67.745 119.563-61.515 128.84-53.335C129.296-52.935 129.339-52.235 128.938-51.785C128.536-51.325 127.841-51.285 127.385-51.685C118.329-59.675 107.756-65.755 96.298-69.565ZM67.968-17.275C61.114-17.275 54.429-15.145 48.841-11.175C48.346-10.825 47.659-10.935 47.307-11.435C46.956-11.925 47.072-12.615 47.567-12.965C53.527-17.205 60.657-19.475 67.968-19.475C75.279-19.475 82.409-17.205 88.369-12.965C88.865-12.615 88.981-11.925 88.629-11.435C88.277-10.935 87.59-10.825 87.095-11.175C81.507-15.145 74.823-17.275 67.968-17.275ZM58.616-46.095C58.719-45.495 58.316-44.935 57.718-44.825C47.079-43.005 37.113-38.395 28.833-31.475C28.367-31.085 27.673-31.145 27.284-31.615C26.894-32.075 26.956-32.775 27.422-33.165C36-40.335 46.325-45.105 57.346-46.995C57.945-47.095 58.513-46.695 58.616-46.095ZM35.521-69.295C35.744-68.725 35.466-68.085 34.901-67.865C25.224-64.045 16.288-58.575 8.495-51.685C8.039-51.285 7.344-51.325 6.942-51.775C6.54-52.235 6.582-52.925 7.038-53.335C15.023-60.395 24.179-66.005 34.094-69.915C34.659-70.135 35.298-69.855 35.521-69.295ZM93.796-41.275C94.063-41.815 94.721-42.045 95.267-41.775C100.007-39.465 104.441-36.565 108.463-33.155C108.926-32.765 108.983-32.065 108.59-31.605C108.197-31.145 107.503-31.085 107.04-31.475C103.157-34.775 98.879-37.565 94.302-39.805C93.756-40.065 93.53-40.725 93.796-41.275ZM66.84 10.055C66.84 9.445 67.332 8.955 67.94 8.955L67.997 8.955C68.604 8.955 69.097 9.445 69.097 10.055C69.097 10.665 68.604 11.155 67.997 11.155L67.94 11.155C67.332 11.155 66.84 10.665 66.84 10.055Z"/>
   <path class="hierarchical-1:primary SFSymbolsPreview212121" d="M4.6-98.785C5.029-99.215 5.726-99.215 6.155-98.785L131.279 26.335C131.709 26.765 131.709 27.465 131.279 27.895C130.85 28.325 130.153 28.325 129.724 27.895L4.6-97.235C4.17-97.665 4.17-98.355 4.6-98.785Z"/>
  </g>
  <g id="Black-M" transform="matrix(1 0 0 1 2873.09 1126)">
   <path class="hierarchical-0:secondary SFSymbolsPreview4D4D4D" d="M80.7525-57.465C72.5525-60.195 63.8925-61.245 55.2825-60.555C51.3725-60.235 47.9525-63.145 47.6325-67.055C47.3225-70.965 50.2325-74.395 54.1425-74.705C64.6525-75.555 75.2225-74.275 85.2325-70.945C95.2325-67.615 104.472-62.305 112.372-55.325C115.322-52.735 115.602-48.245 113.002-45.305C110.412-42.365 105.922-42.085 102.982-44.675C96.5025-50.395 88.9425-54.745 80.7525-57.465ZM60.4925-16.125C56.4025-16.125 52.4225-14.855 49.0925-12.485C45.8925-10.215 41.4625-10.965 39.1925-14.165C36.9225-17.355 37.6725-21.795 40.8725-24.065C46.6025-28.135 53.4625-30.325 60.4925-30.325C67.5225-30.325 74.3725-28.135 80.1125-24.065C83.3025-21.795 84.0525-17.355 81.7825-14.165C79.5125-10.965 75.0825-10.215 71.8825-12.485C68.5525-14.855 64.5725-16.125 60.4925-16.125ZM59.3025-46.025C59.9625-42.165 57.3625-38.495 53.5025-37.825C46.2425-36.585 39.4325-33.445 33.7825-28.715C30.7725-26.195 26.3025-26.595 23.7825-29.605C21.2625-32.615 21.6625-37.095 24.6725-39.605C32.2525-45.945 41.3725-50.155 51.1025-51.825C54.9625-52.485 58.6325-49.895 59.3025-46.025ZM40.8325-65.455C42.2725-61.815 40.4825-57.685 36.8325-56.245C29.9125-53.525 23.5225-49.605 17.9525-44.685C15.0225-42.085 10.5325-42.365 7.9325-45.295C5.3325-48.235 5.6125-52.725 8.5525-55.325C15.3625-61.335 23.1725-66.125 31.6225-69.455C35.2725-70.895 39.3925-69.105 40.8325-65.455ZM75.1525-43.925C76.8725-47.445 81.1225-48.915 84.6425-47.195C88.8325-45.145 92.7425-42.585 96.3025-39.575C99.2925-37.035 99.6525-32.555 97.1225-29.565C94.5825-26.575 90.1025-26.215 87.1125-28.745C84.4625-30.995 81.5425-32.905 78.4125-34.435C74.8925-36.145 73.4325-40.405 75.1525-43.925ZM53.3625-0.915C53.3625-4.835 56.5425-8.015 60.4625-8.015L60.5125-8.015C64.4325-8.015 67.6125-4.835 67.6125-0.915C67.6125 3.005 64.4325 6.185 60.5125 6.185L60.4625 6.185C56.5425 6.185 53.3625 3.005 53.3625-0.915Z"/>
   <path class="hierarchical-1:primary SFSymbolsPreview212121" d="M6.3625-90.725C9.1325-93.495 13.6225-93.495 16.4025-90.725L114.572 7.455C117.342 10.225 117.342 14.715 114.572 17.495C111.802 20.265 107.302 20.265 104.532 17.495L6.3625-80.685C3.5825-83.455 3.5825-87.955 6.3625-90.725Z"/>
  </g>
  <g id="Heavy-M" transform="matrix(1 0 0 1 2577.23 1126)">
   <path class="hierarchical-0:secondary SFSymbolsPreview4D4D4D" d="M80.1575-58.11C71.8575-60.88 63.0775-61.94 54.3575-61.24C50.9175-60.96 47.9075-63.52 47.6275-66.96C47.3475-70.4 49.9175-73.42 53.3575-73.7C63.7475-74.53 74.2075-73.27 84.1075-69.97C94.0075-66.68 103.137-61.43 110.957-54.53C113.547-52.24 113.797-48.29 111.507-45.7C109.227-43.12 105.277-42.87 102.688-45.15C96.1275-50.94 88.4675-55.35 80.1575-58.11ZM59.6375-16.81C55.3775-16.81 51.2175-15.48 47.7475-13.01C44.9375-11.01 41.0275-11.67 39.0275-14.49C37.0375-17.3 37.6975-21.2 40.5075-23.2C46.0975-27.17 52.7775-29.31 59.6375-29.31C66.4875-29.31 73.1775-27.17 78.7575-23.2C81.5775-21.2 82.2375-17.3 80.2375-14.49C78.2375-11.67 74.3375-11.01 71.5175-13.01C68.0475-15.48 63.8975-16.81 59.6375-16.81ZM57.6075-45.72C58.1875-42.31 55.9075-39.08 52.4975-38.5C45.0875-37.23 38.1475-34.02 32.3875-29.2C29.7375-26.99 25.7975-27.34 23.5775-29.99C21.3675-32.63 21.7175-36.58 24.3675-38.79C31.8275-45.03 40.8075-49.18 50.3875-50.82C53.7975-51.4 57.0275-49.12 57.6075-45.72ZM39.1875-64.98C40.4575-61.77 38.8775-58.14 35.6675-56.88C28.6575-54.11 22.1875-50.15 16.5375-45.16C13.9475-42.87 9.9975-43.11 7.7175-45.7C5.4275-48.29 5.6775-52.24 8.2575-54.52C14.9975-60.48 22.7175-65.21 31.0775-68.51C34.2875-69.77 37.9175-68.2 39.1875-64.98ZM75.0575-43.39C76.5675-46.49 80.3175-47.78 83.4175-46.26C87.5375-44.25 91.3975-41.73 94.8975-38.76C97.5275-36.53 97.8475-32.58 95.6175-29.95C93.3775-27.32 89.4375-27 86.8075-29.23C84.0975-31.52 81.1175-33.47 77.9375-35.03C74.8275-36.54 73.5475-40.28 75.0575-43.39ZM53.3575-0.75C53.3575-4.2 56.1575-7 59.6075-7L59.6575-7C63.1075-7 65.9075-4.2 65.9075-0.75C65.9075 2.7 63.1075 5.5 59.6575 5.5L59.6075 5.5C56.1575 5.5 53.3575 2.7 53.3575-0.75Z"/>
   <path class="hierarchical-1:primary SFSymbolsPreview212121" d="M6.1075-89.96C8.5475-92.4 12.5075-92.4 14.9475-89.96L113.117 8.22C115.557 10.66 115.557 14.62 113.117 17.06C110.677 19.5 106.717 19.5 104.277 17.06L6.1075-81.12C3.6675-83.56 3.6675-87.52 6.1075-89.96Z"/>
  </g>
  <g id="Bold-M" transform="matrix(1 0 0 1 2281.47 1126)">
   <path class="hierarchical-0:secondary SFSymbolsPreview4D4D4D" d="M79.51-58.835C71.09-61.635 62.18-62.715 53.33-61.995C50.42-61.765 47.86-63.935 47.63-66.855C47.39-69.775 49.56-72.325 52.48-72.565C62.75-73.395 73.08-72.145 82.86-68.885C92.64-65.635 101.659-60.445 109.38-53.625C111.579-51.695 111.789-48.345 109.849-46.145C107.92-43.955 104.569-43.745 102.369-45.685C95.71-51.555 87.94-56.025 79.51-58.835ZM58.69-17.575C54.23-17.575 49.88-16.185 46.25-13.605C43.86-11.905 40.56-12.465 38.86-14.855C37.16-17.245 37.72-20.545 40.11-22.245C45.54-26.105 52.03-28.175 58.69-28.175C65.34-28.175 71.84-26.105 77.26-22.245C79.65-20.545 80.21-17.245 78.52-14.855C76.82-12.465 73.51-11.905 71.13-13.605C67.49-16.185 63.14-17.575 58.69-17.575ZM55.72-45.375C56.22-42.485 54.28-39.745 51.39-39.255C43.82-37.955 36.72-34.675 30.83-29.745C28.58-27.865 25.24-28.165 23.36-30.415C21.48-32.655 21.78-35.995 24.03-37.875C31.36-44.005 40.18-48.085 49.6-49.705C52.49-50.195 55.23-48.255 55.72-45.375ZM37.36-64.445C38.43-61.725 37.09-58.645 34.37-57.575C27.26-54.765 20.69-50.745 14.96-45.685C12.77-43.745 9.42-43.945 7.48-46.145C5.54-48.335 5.75-51.685 7.94-53.625C14.59-59.505 22.22-64.175 30.48-67.435C33.2-68.505 36.28-67.175 37.36-64.445ZM74.96-42.785C76.25-45.415 79.42-46.505 82.05-45.225C86.1-43.245 89.89-40.765 93.33-37.855C95.56-35.955 95.84-32.615 93.94-30.385C92.05-28.155 88.71-27.875 86.47-29.775C83.71-32.115 80.66-34.105 77.4-35.695C74.77-36.985 73.68-40.155 74.96-42.785ZM53.37-0.565C53.37-3.495 55.74-5.865 58.67-5.865L58.71-5.865C61.64-5.865 64.01-3.495 64.01-0.565C64.01 2.365 61.64 4.735 58.71 4.735L58.67 4.735C55.74 4.735 53.37 2.365 53.37-0.565Z"/>
   <path class="hierarchical-1:primary SFSymbolsPreview212121" d="M5.83-89.095C7.9-91.165 11.26-91.165 13.33-89.095L111.5 9.075C113.569 11.145 113.569 14.505 111.5 16.575C109.429 18.645 106.069 18.645 104 16.575L5.83-81.605C3.76-83.675 3.76-87.035 5.83-89.095Z"/>
  </g>
  <g id="Semibold-M" transform="matrix(1 0 0 1 1985.4 1126)">
   <path class="hierarchical-0:secondary SFSymbolsPreview4D4D4D" d="M79.065-59.315C70.565-62.145 61.565-63.235 52.635-62.515C50.075-62.305 47.825-64.215 47.625-66.775C47.415-69.335 49.325-71.575 51.885-71.785C62.065-72.605 72.315-71.365 82.005-68.135C91.695-64.915 100.645-59.765 108.304-53.005C110.234-51.315 110.415-48.375 108.714-46.445C107.014-44.525 104.074-44.335 102.154-46.035C95.425-51.965 87.575-56.485 79.065-59.315ZM58.035-18.095C53.445-18.095 48.965-16.665 45.225-14.005C43.125-12.515 40.225-13.005 38.735-15.105C37.255-17.195 37.745-20.095 39.835-21.585C45.155-25.365 51.515-27.395 58.035-27.395C64.555-27.395 70.925-25.365 76.235-21.585C78.335-20.095 78.825-17.195 77.335-15.105C75.845-13.005 72.945-12.515 70.855-14.005C67.105-16.665 62.625-18.095 58.035-18.095ZM54.435-45.135C54.865-42.605 53.165-40.195 50.635-39.765C42.945-38.445 35.745-35.115 29.765-30.115C27.785-28.465 24.855-28.725 23.215-30.695C21.565-32.675 21.825-35.605 23.795-37.245C31.035-43.305 39.755-47.335 49.065-48.935C51.595-49.365 53.995-47.665 54.435-45.135ZM36.105-64.085C37.045-61.695 35.875-58.995 33.485-58.045C26.295-55.215 19.665-51.155 13.885-46.035C11.955-44.335 9.015-44.515 7.315-46.445C5.615-48.365 5.795-51.305 7.725-53.005C14.315-58.835 21.885-63.475 30.065-66.705C32.455-67.645 35.155-66.465 36.105-64.085ZM74.895-42.365C76.025-44.675 78.805-45.635 81.115-44.505C85.125-42.555 88.865-40.105 92.265-37.225C94.215-35.565 94.455-32.625 92.795-30.675C91.135-28.715 88.205-28.475 86.245-30.135C83.435-32.515 80.345-34.535 77.035-36.145C74.735-37.275 73.775-40.055 74.895-42.365ZM53.365-0.435C53.365-3.005 55.445-5.085 58.015-5.085L58.055-5.085C60.625-5.085 62.705-3.005 62.705-0.435C62.705 2.135 60.625 4.215 58.055 4.215L58.015 4.215C55.445 4.215 53.365 2.135 53.365-0.435Z"/>
   <path class="hierarchical-1:primary SFSymbolsPreview212121" d="M5.635-88.515C7.455-90.325 10.395-90.325 12.215-88.515L110.395 9.665C112.206 11.475 112.206 14.425 110.395 16.235C108.574 18.055 105.634 18.055 103.815 16.235L5.635-81.935C3.825-83.755 3.825-86.695 5.635-88.515Z"/>
  </g>
  <g id="Medium-M" transform="matrix(1 0 0 1 1689.2 1126)">
   <path class="hierarchical-0:secondary SFSymbolsPreview4D4D4D" d="M78.7225-59.69C70.1525-62.55 61.0925-63.64 52.0925-62.92C49.8025-62.73 47.8025-64.44 47.6225-66.72C47.4325-69.01 49.1425-71.01 51.4225-71.19C61.5425-72.01 71.7125-70.77 81.3425-67.57C90.9725-64.37 99.8625-59.25 107.473-52.54C109.193-51.02 109.352-48.4 107.842-46.68C106.322-44.96 103.703-44.8 101.983-46.32C95.2025-52.29 87.2925-56.84 78.7225-59.69ZM57.5325-18.5C52.8425-18.5 48.2625-17.04 44.4325-14.32C42.5625-12.99 39.9725-13.43 38.6425-15.3C37.3125-17.17 37.7525-19.76 39.6225-21.08C44.8525-24.8 51.1125-26.8 57.5325-26.8C63.9525-26.8 70.2125-24.8 75.4425-21.08C77.3125-19.76 77.7525-17.17 76.4225-15.3C75.1025-13.43 72.5025-12.99 70.6425-14.32C66.8125-17.04 62.2325-18.5 57.5325-18.5ZM53.4325-44.95C53.8225-42.69 52.3025-40.55 50.0425-40.16C42.2725-38.83 34.9925-35.46 28.9325-30.4C27.1825-28.93 24.5625-29.17 23.0925-30.93C21.6225-32.68 21.8525-35.3 23.6125-36.77C30.7925-42.77 39.4225-46.76 48.6425-48.34C50.9025-48.73 53.0525-47.21 53.4325-44.95ZM35.1325-63.8C35.9725-61.67 34.9325-59.26 32.7925-58.42C25.5625-55.57 18.8725-51.47 13.0525-46.32C11.3325-44.8 8.7125-44.96 7.1925-46.68C5.6725-48.4 5.8325-51.02 7.5525-52.54C14.1025-58.33 21.6125-62.93 29.7525-66.14C31.8825-66.98 34.2925-65.93 35.1325-63.8ZM74.8425-42.05C75.8525-44.11 78.3325-44.97 80.3925-43.96C84.3625-42.03 88.0725-39.6 91.4325-36.75C93.1825-35.27 93.3925-32.65 91.9125-30.9C90.4325-29.15 87.8125-28.94 86.0625-30.42C83.2225-32.83 80.1025-34.87 76.7525-36.5C74.6925-37.51 73.8425-39.99 74.8425-42.05ZM53.3625-0.34C53.3625-2.63 55.2225-4.49 57.5125-4.49L57.5525-4.49C59.8525-4.49 61.7025-2.63 61.7025-0.34C61.7025 1.95 59.8525 3.81 57.5525 3.81L57.5125 3.81C55.2225 3.81 53.3625 1.95 53.3625-0.34Z"/>
   <path class="hierarchical-1:primary SFSymbolsPreview212121" d="M5.4925-88.06C7.1125-89.68 9.7425-89.68 11.3625-88.06L109.532 10.11C111.153 11.73 111.153 14.36 109.532 15.98C107.912 17.6 105.282 17.6 103.662 15.98L5.4925-82.19C3.8725-83.81 3.8725-86.44 5.4925-88.06Z"/>
  </g>
  <g id="Regular-M" transform="matrix(1 0 0 1 1393.13 1126)">
   <path class="hierarchical-0:secondary SFSymbolsPreview4D4D4D" d="M78.285-60.185C69.625-63.065 60.485-64.175 51.385-63.445C49.465-63.285 47.775-64.725 47.615-66.645C47.465-68.575 48.905-70.265 50.825-70.415C60.855-71.225 70.945-70.005 80.495-66.825C90.035-63.655 98.845-58.585 106.395-51.925C107.844-50.645 107.985-48.435 106.705-46.985C105.425-45.535 103.215-45.405 101.765-46.675C94.925-52.715 86.935-57.305 78.285-60.185ZM56.885-19.025C52.055-19.025 47.345-17.515 43.405-14.715C41.835-13.605 39.645-13.975 38.525-15.545C37.405-17.125 37.775-19.305 39.355-20.425C44.475-24.065 50.605-26.025 56.885-26.025C63.175-26.025 69.295-24.065 74.425-20.425C75.995-19.305 76.365-17.125 75.245-15.545C74.125-13.975 71.945-13.605 70.365-14.715C66.425-17.515 61.715-19.025 56.885-19.025ZM52.145-44.715C52.475-42.815 51.195-41.005 49.285-40.675C41.405-39.325 34.015-35.905 27.875-30.775C26.385-29.535 24.185-29.735 22.945-31.215C21.705-32.695 21.895-34.905 23.385-36.145C30.475-42.075 39.005-46.015 48.105-47.575C50.015-47.905 51.825-46.625 52.145-44.715ZM33.885-63.445C34.595-61.645 33.705-59.605 31.905-58.905C24.605-56.015 17.855-51.885 11.965-46.685C10.525-45.405 8.305-45.535 7.025-46.985C5.745-48.435 5.885-50.645 7.335-51.925C13.825-57.665 21.275-62.235 29.345-65.415C31.135-66.125 33.175-65.235 33.885-63.445ZM74.785-41.645C75.635-43.385 77.725-44.105 79.465-43.255C83.385-41.345 87.045-38.945 90.365-36.125C91.845-34.875 92.025-32.675 90.775-31.195C89.525-29.725 87.315-29.545 85.835-30.795C82.955-33.235 79.785-35.305 76.395-36.965C74.655-37.815 73.935-39.905 74.785-41.645ZM53.365-0.215C53.365-2.145 54.935-3.715 56.865-3.715L56.905-3.715C58.845-3.715 60.405-2.145 60.405-0.215C60.405 1.715 58.845 3.285 56.905 3.285L56.865 3.285C54.935 3.285 53.365 1.715 53.365-0.215Z"/>
   <path class="hierarchical-1:primary SFSymbolsPreview212121" d="M5.305-87.475C6.665-88.845 8.885-88.845 10.255-87.475L108.425 10.695C109.794 12.065 109.794 14.285 108.425 15.645C107.064 17.015 104.844 17.015 103.475 15.645L5.305-82.525C3.935-83.895 3.935-86.105 5.305-87.475Z"/>
  </g>
  <g id="Light-M" transform="matrix(1 0 0 1 1097.22 1126)">
   <path class="hierarchical-0:secondary SFSymbolsPreview4D4D4D" d="M77.735-60.785C68.975-63.705 59.725-64.825 50.525-64.075C49.035-63.955 47.735-65.065 47.615-66.555C47.495-68.035 48.605-69.345 50.095-69.465C60.015-70.265 69.995-69.055 79.445-65.915C88.885-62.765 97.605-57.755 105.064-51.165C106.184-50.185 106.284-48.475 105.304-47.355C104.314-46.235 102.614-46.135 101.494-47.115C94.575-53.225 86.495-57.875 77.735-60.785ZM56.085-19.665C51.095-19.665 46.215-18.105 42.145-15.215C40.925-14.355 39.245-14.635 38.375-15.855C37.515-17.065 37.805-18.755 39.015-19.615C44.005-23.165 49.965-25.065 56.085-25.065C62.205-25.065 68.175-23.165 73.155-19.615C74.375-18.755 74.655-17.065 73.795-15.855C72.935-14.635 71.245-14.355 70.035-15.215C65.955-18.105 61.085-19.665 56.085-19.665ZM50.555-44.425C50.815-42.955 49.825-41.555 48.355-41.305C40.325-39.925 32.805-36.455 26.555-31.225C25.415-30.275 23.715-30.425 22.755-31.565C21.795-32.715 21.955-34.415 23.095-35.375C30.075-41.205 38.475-45.095 47.445-46.625C48.915-46.875 50.305-45.895 50.555-44.425ZM32.335-62.985C32.885-61.595 32.205-60.035 30.815-59.485C23.425-56.565 16.595-52.385 10.645-47.125C9.525-46.135 7.815-46.235 6.825-47.355C5.845-48.475 5.945-50.175 7.065-51.165C13.485-56.845 20.855-61.365 28.835-64.505C30.225-65.055 31.795-64.375 32.335-62.985ZM74.705-41.135C75.355-42.475 76.975-43.025 78.315-42.375C82.165-40.495 85.775-38.135 89.045-35.355C90.185-34.395 90.325-32.695 89.365-31.555C88.395-30.415 86.695-30.275 85.555-31.245C82.625-33.725 79.395-35.835 75.945-37.525C74.605-38.175 74.045-39.795 74.705-41.135ZM53.365-0.055C53.365-1.545 54.575-2.755 56.065-2.755L56.105-2.755C57.605-2.755 58.805-1.545 58.805-0.055C58.805 1.435 57.605 2.645 56.105 2.645L56.065 2.645C54.575 2.645 53.365 1.435 53.365-0.055Z"/>
   <path class="hierarchical-1:primary SFSymbolsPreview212121" d="M5.065-86.755C6.125-87.805 7.835-87.805 8.885-86.755L107.064 11.425C108.114 12.475 108.114 14.185 107.064 15.235C106.004 16.295 104.294 16.295 103.244 15.235L5.065-82.935C4.015-83.985 4.015-85.695 5.065-86.755Z"/>
  </g>
  <g id="Thin-M" transform="matrix(1 0 0 1 801.56 1126)">
   <path class="hierarchical-0:secondary SFSymbolsPreview4D4D4D" d="M77.0155-61.58C68.1255-64.54 58.7295-65.67 49.3905-64.92C48.4825-64.85 47.6865-65.52 47.6135-66.43C47.5395-67.34 48.2165-68.14 49.1255-68.21C58.9065-69 68.7465-67.81 78.0575-64.71C87.3695-61.61 95.9605-56.67 103.32-50.17C104.002-49.57 104.067-48.53 103.465-47.85C102.863-47.16 101.82-47.1 101.137-47.7C94.1095-53.9 85.9065-58.62 77.0155-61.58ZM55.0365-20.51C49.8215-20.51 44.7365-18.89 40.4855-15.87C39.7425-15.34 38.7125-15.51 38.1845-16.25C37.6565-17 37.8305-18.03 38.5735-18.56C43.3835-21.97 49.1365-23.81 55.0365-23.81C60.9365-23.81 66.6895-21.97 71.4995-18.56C72.2425-18.03 72.4165-17 71.8885-16.25C71.3615-15.51 70.3315-15.34 69.5885-15.87C65.3365-18.89 60.2515-20.51 55.0365-20.51ZM48.4745-44.04C48.6285-43.14 48.0245-42.29 47.1265-42.13C38.9165-40.73 31.2255-37.17 24.8355-31.83C24.1365-31.24 23.0955-31.34 22.5115-32.04C21.9265-32.73 22.0195-33.78 22.7185-34.36C29.5555-40.08 37.7845-43.88 46.5695-45.39C47.4675-45.54 48.3205-44.94 48.4745-44.04ZM30.3095-62.4C30.6445-61.55 30.2285-60.59 29.3805-60.26C21.8735-57.3 14.9405-53.05 8.8945-47.7C8.2115-47.1 7.1685-47.16 6.5645-47.85C5.9615-48.53 6.0255-49.57 6.7085-50.17C13.0425-55.77 20.3055-60.22 28.1695-63.33C29.0175-63.66 29.9755-63.24 30.3095-62.4ZM74.5945-40.47C74.9945-41.29 75.9825-41.63 76.8015-41.23C80.5795-39.38 84.1135-37.07 87.3195-34.35C88.0145-33.76 88.0995-32.72 87.5105-32.03C86.9205-31.33 85.8795-31.25 85.1845-31.84C82.1875-34.38 78.8855-36.54 75.3535-38.26C74.5345-38.66 74.1945-39.65 74.5945-40.47ZM53.3645 0.15C53.3645-0.76 54.1035-1.5 55.0145-1.5L55.0595-1.5C55.9705-1.5 56.7095-0.76 56.7095 0.15C56.7095 1.06 55.9705 1.8 55.0595 1.8L55.0145 1.8C54.1035 1.8 53.3645 1.06 53.3645 0.15Z"/>
   <path class="hierarchical-1:primary SFSymbolsPreview212121" d="M4.7605-85.81C5.4045-86.45 6.4495-86.45 7.0935-85.81L105.268 12.37C105.913 13.01 105.913 14.06 105.268 14.7C104.624 15.35 103.579 15.35 102.935 14.7L4.7605-83.47C4.1165-84.12 4.1165-85.16 4.7605-85.81Z"/>
  </g>
  <g id="Ultralight-M" transform="matrix(1 0 0 1 505.399 1126)">
   <path class="hierarchical-0:secondary SFSymbolsPreview4D4D4D" d="M76.64-61.995C67.68-64.975 58.21-66.125 48.797-65.365C48.191-65.315 47.661-65.765 47.612-66.375C47.563-66.975 48.015-67.505 48.62-67.555C58.328-68.335 68.094-67.155 77.335-64.085C86.576-61.005 95.103-56.095 102.405-49.655C102.861-49.255 102.904-48.555 102.502-48.105C102.1-47.645 101.405-47.605 100.95-48.005C93.869-54.255 85.601-59.015 76.64-61.995ZM54.487-20.955C49.158-20.955 43.961-19.295 39.617-16.205C39.122-15.855 38.435-15.975 38.083-16.465C37.732-16.965 37.848-17.645 38.343-18.005C43.06-21.355 48.702-23.155 54.487-23.155C60.273-23.155 65.915-21.355 70.632-18.005C71.127-17.645 71.243-16.965 70.891-16.465C70.539-15.975 69.853-15.855 69.357-16.205C65.013-19.295 59.816-20.955 54.487-20.955ZM47.383-43.845C47.486-43.245 47.083-42.675 46.484-42.575C38.179-41.155 30.398-37.555 23.933-32.145C23.467-31.755 22.773-31.825 22.384-32.285C21.994-32.755 22.056-33.445 22.522-33.835C29.285-39.495 37.424-43.255 46.113-44.745C46.712-44.845 47.28-44.445 47.383-43.845ZM29.249-62.085C29.471-61.525 29.194-60.885 28.629-60.665C21.062-57.675 14.074-53.395 7.98-48.005C7.525-47.605 6.83-47.645 6.427-48.105C6.025-48.555 6.068-49.255 6.523-49.655C12.809-55.215 20.017-59.635 27.822-62.705C28.387-62.935 29.026-62.655 29.249-62.085ZM74.54-40.125C74.806-40.665 75.465-40.895 76.011-40.625C79.748-38.805 83.243-36.515 86.414-33.825C86.878-33.435 86.934-32.745 86.541-32.275C86.148-31.815 85.454-31.755 84.991-32.155C81.96-34.725 78.619-36.905 75.046-38.645C74.5-38.915 74.273-39.575 74.54-40.125ZM53.365 0.255C53.365-0.355 53.857-0.845 54.465-0.845L54.51-0.845C55.117-0.845 55.61-0.355 55.61 0.255C55.61 0.865 55.117 1.355 54.51 1.355L54.465 1.355C53.857 1.355 53.365 0.865 53.365 0.255Z"/>
   <path class="hierarchical-1:primary SFSymbolsPreview212121" d="M4.6-85.315C5.029-85.745 5.726-85.745 6.155-85.315L104.329 12.865C104.759 13.295 104.759 13.995 104.329 14.415C103.9 14.845 103.203 14.845 102.774 14.415L4.6-83.755C4.17-84.185 4.17-84.885 4.6-85.315Z"/>
  </g>
  <g id="Black-S" transform="matrix(1 0 0 1 2883.68 696)">
   <path class="hierarchical-0:secondary SFSymbolsPreview4D4D4D" d="M65.295-51.6225C59.065-53.6964 52.475-54.4935 45.935-53.9665C42.025-53.6515 38.595-56.5645 38.285-60.4725C37.965-64.3815 40.885-67.8055 44.795-68.1205C53.235-68.8005 61.735-67.7725 69.785-65.0954C77.825-62.4195 85.245-58.1505 91.605-52.5424C94.545-49.9485 94.825-45.4615 92.225-42.5215C89.635-39.5804 85.145-39.2995 82.205-41.8934C77.285-46.2394 71.535-49.5485 65.295-51.6225ZM49.895-19.1125C47.005-19.1125 44.195-18.2145 41.845-16.5435C38.645-14.2725 34.215-15.0225 31.945-18.2195C29.675-21.4165 30.425-25.8485 33.615-28.1194C38.375-31.4975 44.065-33.3125 49.895-33.3125C55.725-33.3125 61.415-31.4975 66.165-28.1194C69.365-25.8485 70.115-21.4165 67.845-18.2195C65.575-15.0225 61.135-14.2725 57.945-16.5435C55.595-18.2145 52.775-19.1125 49.895-19.1125ZM50.465-44.3594C51.135-40.4944 48.535-36.8245 44.665-36.1624C39.245-35.2325 34.155-32.8815 29.925-29.3485C26.925-26.8335 22.445-27.2325 19.925-30.2415C17.415-33.2495 17.815-37.7275 20.825-40.2425C26.975-45.3834 34.375-48.8045 42.275-50.1585C46.135-50.8205 49.805-48.2244 50.465-44.3594ZM35.905-59.9055C37.335-56.2575 35.545-52.1334 31.905-50.6955C26.645-48.6215 21.785-45.6445 17.545-41.9005C14.605-39.3035 10.125-39.5804 7.525-42.5184C4.925-45.4565 5.205-49.9425 8.145-52.5395C13.615-57.3784 19.895-61.2244 26.695-63.9055C30.335-65.3435 34.465-63.5525 35.905-59.9055ZM60.015-43.1215C61.735-46.6455 65.985-48.1085 69.505-46.3884C72.905-44.7294 76.085-42.6524 78.965-40.2065C81.955-37.6695 82.325-33.1885 79.785-30.1985C77.255-27.2085 72.775-26.8415 69.785-29.3784C67.805-31.0605 65.615-32.4875 63.285-33.6265C59.755-35.3465 58.295-39.5975 60.015-43.1215ZM42.775-8.72047C42.775-12.6415 45.955-15.8205 49.875-15.8205L49.915-15.8205C53.835-15.8205 57.015-12.6415 57.015-8.72047C57.015-4.79847 53.835-1.62047 49.915-1.62047L49.875-1.62047C45.955-1.62047 42.775-4.79847 42.775-8.72047Z"/>
   <path class="hierarchical-1:primary SFSymbolsPreview212121" d="M6.355-80.2405C9.125-83.0134 13.625-83.0134 16.395-80.2405L93.395-3.24047C96.165-0.467475 96.165 4.02752 93.395 6.80052C90.625 9.57358 86.125 9.57358 83.355 6.80052L6.355-70.1995C3.585-72.9725 3.585-77.4675 6.355-80.2405Z"/>
  </g>
  <g id="Heavy-S" transform="matrix(1 0 0 1 2587.81 696)">
   <path class="hierarchical-0:secondary SFSymbolsPreview4D4D4D" d="M64.7175-52.2654C58.3775-54.3755 51.6775-55.1864 45.0175-54.6495C41.5775-54.3724 38.5575-56.9364 38.2875-60.3774C38.0075-63.8184 40.5675-66.8314 44.0075-67.1094C52.3475-67.7804 60.7275-66.7664 68.6675-64.1255C76.5975-61.4854 83.9175-57.2734 90.1975-51.7414C92.7775-49.4574 93.0275-45.5084 90.7475-42.9194C88.4575-40.3314 84.5075-40.0844 81.9275-42.3674C76.9075-46.7884 71.0575-50.1554 64.7175-52.2654ZM49.0475-19.7985C45.9875-19.7985 42.9975-18.8465 40.5075-17.0725C37.6875-15.0734 33.7875-15.7344 31.7875-18.5485C29.7875-21.3625 30.4475-25.2634 33.2675-27.2634C37.8775-30.5384 43.3875-32.2985 49.0475-32.2985C54.6975-32.2985 60.2175-30.5384 64.8275-27.2634C67.6375-25.2634 68.2975-21.3625 66.3075-18.5485C64.3075-15.7344 60.3975-15.0734 57.5875-17.0725C55.0875-18.8465 52.1075-19.7985 49.0475-19.7985ZM48.7875-44.0485C49.3675-40.6464 47.0775-37.4155 43.6775-36.8324C38.0975-35.8774 32.8775-33.4624 28.5375-29.8335C25.8875-27.6184 21.9475-27.9704 19.7375-30.6184C17.5175-33.2674 17.8675-37.2085 20.5175-39.4224C26.5575-44.4674 33.8175-47.8254 41.5675-49.1534C44.9675-49.7364 48.1975-47.4504 48.7875-44.0485ZM34.2575-59.4254C35.5275-56.2144 33.9475-52.5854 30.7375-51.3184C25.3875-49.2085 20.4475-46.1794 16.1375-42.3704C13.5475-40.0844 9.5975-40.3274 7.3175-42.9134C5.0275-45.4994 5.2675-49.4494 7.8575-51.7354C13.2575-56.5084 19.4475-60.3024 26.1575-62.9475C29.3675-64.2135 32.9975-62.6365 34.2575-59.4254ZM59.9275-42.5854C61.4475-45.6874 65.1875-46.9744 68.2875-45.4604C71.6275-43.8335 74.7375-41.7954 77.5675-39.3945C80.2075-37.1614 80.5275-33.2174 78.2975-30.5854C76.0575-27.9534 72.1175-27.6304 69.4875-29.8634C67.4475-31.5904 65.2075-33.0564 62.8075-34.2274C59.7075-35.7414 58.4175-39.4834 59.9275-42.5854ZM42.7775-8.5525C42.7775-12.0044 45.5775-14.8024 49.0275-14.8024L49.0675-14.8024C52.5175-14.8024 55.3175-12.0044 55.3175-8.5525C55.3175-5.1005 52.5175-2.3025 49.0675-2.3025L49.0275-2.3025C45.5775-2.3025 42.7775-5.1005 42.7775-8.5525Z"/>
   <path class="hierarchical-1:primary SFSymbolsPreview212121" d="M6.1075-79.4715C8.5475-81.9124 12.5075-81.9124 14.9475-79.4715L91.9475-2.4715C94.3875-0.0315 94.3875 3.9265 91.9475 6.3665C89.5075 8.8075 85.5475 8.8075 83.1075 6.3665L6.1075-70.6334C3.6675-73.0734 3.6675-77.0314 6.1075-79.4715Z"/>
  </g>
  <g id="Bold-S" transform="matrix(1 0 0 1 2292.06 696)">
   <path class="hierarchical-0:secondary SFSymbolsPreview4D4D4D" d="M64.07-52.771C57.6-54.922 50.77-55.748 43.99-55.201C41.07-54.966 38.51-57.14 38.28-60.058C38.04-62.976 40.22-65.532 43.13-65.767C51.34-66.428 59.6-65.429 67.41-62.829C75.23-60.229 82.44-56.081 88.61-50.633C90.81-48.697 91.02-45.348 89.08-43.153C87.14-40.957 83.79-40.748 81.6-42.684C76.49-47.19 70.53-50.621 64.07-52.771ZM48.09-20.357C44.83-20.357 41.66-19.343 39-17.456C36.61-15.76 33.3-16.32 31.61-18.707C29.91-21.093 30.47-24.402 32.86-26.097C37.31-29.258 42.63-30.957 48.09-30.957C53.55-30.957 58.87-29.258 63.32-26.097C65.71-24.402 66.27-21.093 64.58-18.707C62.88-16.32 59.57-15.76 57.19-17.456C54.53-19.343 51.35-20.357 48.09-20.357ZM46.89-43.496C47.39-40.611 45.45-37.872 42.56-37.377C36.82-36.394 31.44-33.907 26.97-30.17C24.73-28.293 21.39-28.591 19.51-30.837C17.63-33.082 17.93-36.425 20.18-38.302C26.08-43.24 33.19-46.525 40.77-47.825C43.66-48.319 46.4-46.381 46.89-43.496ZM32.43-58.686C33.5-55.963 32.16-52.885 29.44-51.811C23.99-49.66 18.95-46.573 14.56-42.69C12.36-40.752 9.01-40.958 7.07-43.151C5.14-45.344 5.34-48.694 7.53-50.632C12.85-55.332 18.95-59.068 25.55-61.672C28.27-62.746 31.35-61.409 32.43-58.686ZM59.83-41.773C61.12-44.404 64.29-45.495 66.92-44.212C70.18-42.619 73.24-40.624 76-38.275C78.24-36.381 78.51-33.036 76.62-30.805C74.72-28.573 71.38-28.299 69.15-30.192C67.05-31.971 64.74-33.48 62.27-34.686C59.64-35.969 58.55-39.143 59.83-41.773ZM42.78-8.161C42.78-11.088 45.15-13.461 48.08-13.461L48.11-13.461C51.04-13.461 53.41-11.088 53.41-8.161C53.41-5.234 51.04-2.861 48.11-2.861L48.08-2.861C45.15-2.861 42.78-5.234 42.78-8.161Z"/>
   <path class="hierarchical-1:primary SFSymbolsPreview212121" d="M5.83-78.408C7.9-80.478 11.25-80.478 13.32-78.408L90.32-1.408C92.39 0.661 92.39 4.017 90.32 6.087C88.25 8.157 84.9 8.157 82.83 6.087L5.83-70.913C3.76-72.983 3.76-76.339 5.83-78.408Z"/>
  </g>
  <g id="Semibold-S" transform="matrix(1 0 0 1 1995.99 696)">
   <path class="hierarchical-0:secondary SFSymbolsPreview4D4D4D" d="M63.625-53.262C57.075-55.44 50.155-56.277 43.285-55.723C40.725-55.517 38.485-57.425 38.275-59.985C38.065-62.545 39.975-64.787 42.535-64.993C50.655-65.648 58.825-64.659 66.555-62.087C74.285-59.514 81.425-55.41 87.535-50.02C89.455-48.321 89.645-45.383 87.945-43.457C86.245-41.531 83.305-41.347 81.375-43.046C76.205-47.61 70.165-51.084 63.625-53.262ZM47.445-20.878C44.045-20.878 40.735-19.822 37.975-17.856C35.875-16.369 32.975-16.86 31.485-18.954C30.005-21.047 30.495-23.95 32.585-25.438C36.925-28.521 42.115-30.178 47.445-30.178C52.765-30.178 57.955-28.521 62.295-25.438C64.395-23.95 64.885-21.047 63.395-18.954C61.905-16.86 59.005-16.369 56.915-17.856C54.145-19.822 50.835-20.878 47.445-20.878ZM45.605-43.257C46.035-40.726 44.335-38.323 41.805-37.889C35.955-36.886 30.465-34.35 25.905-30.54C23.935-28.892 21.005-29.154 19.355-31.124C17.715-33.095 17.975-36.027 19.945-37.674C25.755-42.538 32.765-45.775 40.235-47.055C42.765-47.489 45.165-45.789 45.605-43.257ZM31.175-58.318C32.115-55.929 30.935-53.229 28.555-52.286C23.025-50.108 17.925-46.981 13.475-43.048C11.555-41.347 8.615-41.528 6.915-43.453C5.215-45.377 5.395-48.315 7.315-50.016C12.575-54.666 18.605-58.362 25.135-60.938C27.525-61.88 30.225-60.707 31.175-58.318ZM59.765-41.363C60.895-43.671 63.675-44.629 65.985-43.502C69.195-41.933 72.205-39.969 74.935-37.654C76.895-35.992 77.135-33.058 75.475-31.1C73.805-29.142 70.875-28.901 68.915-30.563C66.775-32.376 64.425-33.915 61.905-35.144C59.595-36.271 58.635-39.055 59.765-41.363ZM42.775-8.031C42.775-10.6 44.855-12.681 47.425-12.681L47.465-12.681C50.025-12.681 52.115-10.6 52.115-8.031C52.115-5.463 50.025-3.381 47.465-3.381L47.425-3.381C44.855-3.381 42.775-5.463 42.775-8.031Z"/>
   <path class="hierarchical-1:primary SFSymbolsPreview212121" d="M5.635-77.819C7.455-79.635 10.395-79.635 12.215-77.819L89.215-0.819C91.025 0.996 91.025 3.941 89.215 5.757C87.395 7.573 84.455 7.573 82.635 5.757L5.635-71.243C3.825-73.059 3.825-76.004 5.635-77.819Z"/>
  </g>
  <g id="Medium-S" transform="matrix(1 0 0 1 1699.78 696)">
   <path class="hierarchical-0:secondary SFSymbolsPreview4D4D4D" d="M63.28-53.6394C56.68-55.8385 49.69-56.6835 42.75-56.1244C40.46-55.9405 38.46-57.6425 38.28-59.9274C38.09-62.2125 39.8-64.2135 42.08-64.3975C50.14-65.0465 58.24-64.0655 65.91-61.5144C73.57-58.9635 80.65-54.8934 86.71-49.5474C88.42-48.0315 88.59-45.4095 87.07-43.6905C85.56-41.9714 82.93-41.8074 81.21-43.3235C75.99-47.9315 69.89-51.4395 63.28-53.6394ZM46.95-21.2805C43.45-21.2805 40.04-20.1914 37.19-18.1665C35.32-16.8385 32.73-17.2775 31.4-19.1455C30.07-21.0144 30.51-23.6054 32.38-24.9324C36.64-27.9555 41.73-29.5805 46.95-29.5805C52.17-29.5805 57.26-27.9555 61.51-24.9324C63.38-23.6054 63.82-21.0144 62.49-19.1455C61.17-17.2775 58.57-16.8385 56.71-18.1665C53.86-20.1914 50.44-21.2805 46.95-21.2805ZM44.62-43.0755C45-40.8164 43.49-38.6715 41.23-38.2845C35.28-37.2665 29.72-34.6924 25.09-30.8255C23.33-29.3554 20.72-29.5895 19.25-31.3475C17.78-33.1065 18.01-35.7235 19.77-37.1935C25.52-42.0005 32.44-45.1995 39.82-46.4654C42.08-46.8525 44.23-45.3345 44.62-43.0755ZM30.21-58.0374C31.05-55.9055 30-53.4954 27.87-52.6545C22.29-50.4545 17.14-47.2974 12.65-43.3255C10.93-41.8074 8.31-41.9695 6.79-43.6864C5.27-45.4034 5.43-48.0265 7.15-49.5445C12.37-54.1555 18.35-57.8214 24.83-60.3755C26.96-61.2164 29.37-60.1695 30.21-58.0374ZM59.72-41.0465C60.73-43.1054 63.21-43.9605 65.27-42.9555C68.45-41.4045 71.42-39.4625 74.12-37.1755C75.86-35.6924 76.08-33.0735 74.59-31.3255C73.11-29.5785 70.49-29.3635 68.75-30.8464C66.58-32.6864 64.19-34.2485 61.63-35.4965C59.57-36.5015 58.72-38.9865 59.72-41.0465ZM42.78-7.93347C42.78-10.2255 44.64-12.0835 46.93-12.0835L46.97-12.0835C49.26-12.0835 51.12-10.2255 51.12-7.93347C51.12-5.64148 49.26-3.78347 46.97-3.78347L46.93-3.78347C44.64-3.78347 42.78-5.64148 42.78-7.93347Z"/>
   <path class="hierarchical-1:primary SFSymbolsPreview212121" d="M5.5-77.3685C7.12-78.9894 9.74-78.9894 11.36-77.3685L88.36-0.368475C89.99 1.25252 89.99 3.87953 88.36 5.50053C86.74 7.12153 84.12 7.12153 82.5 5.50053L5.5-71.4994C3.87-73.1204 3.87-75.7475 5.5-77.3685Z"/>
  </g>
  <g id="Regular-S" transform="matrix(1 0 0 1 1403.72 696)">
   <path class="hierarchical-0:secondary SFSymbolsPreview4D4D4D" d="M62.835-54.1304C56.145-56.3575 49.075-57.2135 42.045-56.6465C40.115-56.4915 38.425-57.9275 38.275-59.8545C38.115-61.7815 39.555-63.4685 41.475-63.6245C49.445-64.2665 57.465-63.2965 65.045-60.7725C72.625-58.2485 79.625-54.2225 85.625-48.9355C87.075-47.6565 87.205-45.4445 85.925-43.9945C84.655-42.5455 82.435-42.4065 80.985-43.6855C75.705-48.3514 69.525-51.9035 62.835-54.1304ZM46.295-21.8045C42.665-21.8045 39.115-20.6745 36.155-18.5705C34.585-17.4515 32.395-17.8215 31.275-19.3965C30.155-20.9725 30.525-23.1575 32.105-24.2775C36.245-27.2225 41.205-28.8045 46.295-28.8045C51.375-28.8045 56.335-27.2225 60.485-24.2775C62.055-23.1575 62.425-20.9725 61.305-19.3965C60.185-17.8215 58.005-17.4515 56.425-18.5705C53.465-20.6745 49.925-21.8045 46.295-21.8045ZM43.315-42.8405C43.645-40.9355 42.365-39.1265 40.465-38.7995C34.405-37.7625 28.735-35.1395 24.025-31.1995C22.535-29.9595 20.325-30.1565 19.085-31.6395C17.855-33.1225 18.045-35.3295 19.535-36.5695C25.195-41.3034 32.005-44.4524 39.275-45.6995C41.185-46.0255 42.995-44.7455 43.315-42.8405ZM28.955-57.6735C29.655-55.8755 28.775-53.8425 26.975-53.1335C21.325-50.9055 16.115-47.7085 11.565-43.6875C10.115-42.4075 7.905-42.5435 6.625-43.9915C5.345-45.4395 5.475-47.6515 6.925-48.9315C12.085-53.4935 18.005-57.1185 24.415-59.6455C26.205-60.3545 28.245-59.4715 28.955-57.6735ZM59.645-40.6315C60.495-42.3685 62.595-43.0895 64.325-42.2425C67.455-40.7155 70.385-38.8034 73.035-36.5505C74.515-35.2995 74.695-33.0915 73.445-31.6175C72.195-30.1435 69.985-29.9624 68.515-31.2135C66.305-33.0885 63.865-34.6805 61.255-35.9515C59.525-36.7995 58.805-38.8945 59.645-40.6315ZM42.775-7.8085C42.775-9.7415 44.345-11.3084 46.275-11.3084L46.315-11.3084C48.245-11.3084 49.815-9.7415 49.815-7.8085C49.815-5.8755 48.245-4.3085 46.315-4.3085L46.275-4.3085C44.345-4.3085 42.775-5.8755 42.775-7.8085Z"/>
   <path class="hierarchical-1:primary SFSymbolsPreview212121" d="M5.305-76.7835C6.665-78.1505 8.885-78.1505 10.245-76.7835L87.245 0.2165C88.615 1.5835 88.615 3.7995 87.245 5.1665C85.885 6.5335 83.665 6.5335 82.305 5.1665L5.305-71.8335C3.935-73.2005 3.935-75.4165 5.305-76.7835Z"/>
  </g>
  <g id="Light-S" transform="matrix(1 0 0 1 1107.81 696)">
   <path class="hierarchical-0:secondary SFSymbolsPreview4D4D4D" d="M62.285-54.7325C55.495-56.9934 48.315-57.8624 41.175-57.2874C39.695-57.1674 38.385-58.2755 38.265-59.7614C38.145-61.2484 39.255-62.5504 40.745-62.6695C48.605-63.3034 56.505-62.3465 63.995-59.8564C71.475-57.3665 78.375-53.3955 84.295-48.1784C85.405-47.1914 85.515-45.4855 84.525-44.3674C83.545-43.2494 81.835-43.1424 80.715-44.1284C75.345-48.8655 69.085-52.4725 62.285-54.7325ZM45.495-22.4475C41.695-22.4475 37.995-21.2655 34.895-19.0664C33.675-18.2024 31.995-18.4874 31.125-19.7035C30.265-20.9195 30.555-22.6044 31.765-23.4684C35.775-26.3175 40.575-27.8475 45.495-27.8475C50.415-27.8475 55.205-26.3175 59.215-23.4684C60.435-22.6044 60.715-20.9195 59.855-19.7035C58.995-18.4874 57.305-18.2024 56.095-19.0664C52.995-21.2655 49.295-22.4475 45.495-22.4475ZM41.735-42.5485C41.985-41.0785 40.995-39.6834 39.525-39.4314C33.335-38.3705 27.525-35.6875 22.705-31.6564C21.565-30.6994 19.855-30.8514 18.905-31.9955C17.945-33.1395 18.095-34.8425 19.245-35.7995C24.795-40.4414 31.475-43.5314 38.615-44.7534C40.085-45.0054 41.475-44.0184 41.735-42.5485ZM27.405-57.2234C27.955-55.8364 27.275-54.2684 25.885-53.7215C20.145-51.4594 14.855-48.2134 10.235-44.1304C9.115-43.1424 7.405-43.2474 6.425-44.3644C5.435-45.4825 5.535-47.1884 6.655-48.1764C11.745-52.6754 17.585-56.2524 23.905-58.7444C25.295-59.2914 26.855-58.6105 27.405-57.2234ZM59.565-40.1284C60.225-41.4684 61.835-42.0245 63.175-41.3705C66.245-39.8724 69.115-37.9974 71.725-35.7874C72.855-34.8235 72.995-33.1194 72.035-31.9825C71.065-30.8454 69.365-30.7054 68.225-31.6704C65.965-33.5884 63.475-35.2175 60.815-36.5174C59.475-37.1714 58.915-38.7885 59.565-40.1284ZM42.775-7.6515C42.775-9.1425 43.985-10.3514 45.475-10.3514L45.505-10.3514C47.005-10.3514 48.205-9.1425 48.205-7.6515C48.205-6.1605 47.005-4.9515 45.505-4.9515L45.475-4.9515C43.985-4.9515 42.775-6.1605 42.775-7.6515Z"/>
   <path class="hierarchical-1:primary SFSymbolsPreview212121" d="M5.065-76.0604C6.125-77.1154 7.825-77.1154 8.885-76.0604L85.885 0.9395C86.935 1.9935 86.935 3.7035 85.885 4.7575C84.825 5.8115 83.125 5.8115 82.065 4.7575L5.065-72.2424C4.015-73.2964 4.015-75.0065 5.065-76.0604Z"/>
  </g>
  <g id="Thin-S" transform="matrix(1 0 0 1 812.147 696)">
   <path class="hierarchical-0:secondary SFSymbolsPreview4D4D4D" d="M61.5715-55.5236C54.6435-57.8284 47.3225-58.7146 40.0455-58.1286C39.1365-58.0544 38.3415-58.7314 38.2675-59.6404C38.1945-60.5485 38.8715-61.3446 39.7805-61.4176C47.4995-62.0394 55.2645-61.0996 62.6135-58.6544C69.9615-56.2094 76.7415-52.3084 82.5495-47.1856C83.2325-46.5824 83.2975-45.5394 82.6945-44.8564C82.0925-44.1726 81.0495-44.1074 80.3655-44.7106C74.8905-49.5404 68.4985-53.2184 61.5715-55.5236ZM44.4455-23.2926C40.4295-23.2926 36.5125-22.0426 33.2385-19.7165C32.4955-19.1884 31.4655-19.3624 30.9375-20.1055C30.4095-20.8484 30.5845-21.8786 31.3275-22.4064C35.1595-25.1295 39.7445-26.5924 44.4455-26.5924C49.1465-26.5924 53.7305-25.1295 57.5635-22.4064C58.3065-21.8786 58.4805-20.8484 57.9525-20.1055C57.4255-19.3624 56.3945-19.1884 55.6525-19.7165C52.3785-22.0426 48.4615-23.2926 44.4455-23.2926ZM39.6485-42.1654C39.8025-41.2676 39.1995-40.4144 38.3015-40.2604C31.9235-39.1685 25.9495-36.4064 20.9865-32.2564C20.2865-31.6716 19.2465-31.7645 18.6615-32.4634C18.0775-33.1626 18.1705-34.2034 18.8695-34.7876C24.2805-39.3116 30.7925-42.3225 37.7445-43.5136C38.6425-43.6676 39.4955-43.0634 39.6485-42.1654ZM25.3825-56.6324C25.7165-55.7854 25.3005-54.8265 24.4525-54.4924C18.6035-52.1856 13.2015-48.8755 8.4905-44.7115C7.8075-44.1074 6.7645-44.1716 6.1615-44.8546C5.5575-45.5376 5.6215-46.5806 6.3045-47.1834C11.3035-51.6024 17.0355-55.1146 23.2425-57.5625C24.0895-57.8964 25.0475-57.4805 25.3825-56.6324ZM59.4645-39.4624C59.8645-40.2814 60.8525-40.6214 61.6715-40.2215C64.6615-38.7614 67.4575-36.9344 69.9955-34.7814C70.6895-34.1925 70.7755-33.1504 70.1855-32.4556C69.5965-31.7614 68.5545-31.6754 67.8595-32.2654C65.5325-34.2405 62.9675-35.9166 60.2235-37.2554C59.4045-37.6554 59.0645-38.6436 59.4645-39.4624ZM42.7775-7.4455C42.7775-8.3575 43.5165-9.0955 44.4275-9.0955L44.4625-9.0955C45.3735-9.0955 46.1125-8.3575 46.1125-7.4455C46.1125-6.5345 45.3735-5.7955 44.4625-5.7955L44.4275-5.7955C43.5165-5.7955 42.7775-6.5345 42.7775-7.4455Z"/>
   <path class="hierarchical-1:primary SFSymbolsPreview212121" d="M4.7605-75.1124C5.4055-75.7574 6.4495-75.7574 7.0945-75.1124L84.0945 1.8875C84.7385 2.5315 84.7385 3.5765 84.0945 4.2205C83.4495 4.8655 82.4055 4.8655 81.7605 4.2205L4.7605-72.7794C4.1165-73.4235 4.1165-74.4684 4.7605-75.1124Z"/>
  </g>
  <g id="Ultralight-S" transform="matrix(1 0 0 1 515.986 696)">
   <path class="hierarchical-0:secondary SFSymbolsPreview4D4D4D" d="M61.1942-55.937C54.1962-58.266 46.8012-59.16 39.4502-58.568C38.8452-58.519 38.3142-58.971 38.2652-59.576C38.2172-60.182 38.6682-60.712 39.2732-60.761C46.9192-61.377 54.6112-60.446 61.8892-58.024C69.1672-55.602 75.8822-51.739 81.6352-46.664C82.0902-46.263 82.1342-45.567 81.7322-45.112C81.3302-44.656 80.6352-44.613 80.1792-45.015C74.6492-49.894 68.1922-53.608 61.1942-55.937ZM43.8942-23.734C39.7642-23.734 35.7362-22.449 32.3692-20.056C31.8742-19.705 31.1872-19.821 30.8352-20.316C30.4832-20.811 30.6002-21.498 31.0952-21.85C34.8342-24.506 39.3082-25.934 43.8942-25.934C48.4812-25.934 52.9552-24.506 56.6942-21.85C57.1892-21.498 57.3062-20.811 56.9542-20.316C56.6022-19.821 55.9152-19.705 55.4202-20.056C52.0532-22.449 48.0252-23.734 43.8942-23.734ZM38.5562-41.965C38.6592-41.366 38.2562-40.797 37.6582-40.695C31.1852-39.586 25.1212-36.782 20.0832-32.57C19.6162-32.18 18.9232-32.242 18.5332-32.708C18.1432-33.174 18.2052-33.868 18.6712-34.258C24.0082-38.719 30.4302-41.689 37.2862-42.863C37.8852-42.966 38.4542-42.563 38.5562-41.965ZM24.3202-56.323C24.5432-55.758 24.2662-55.119 23.7012-54.896C17.7922-52.566 12.3352-49.222 7.57625-45.015C7.12025-44.613 6.42525-44.656 6.02325-45.111C5.62125-45.566 5.66325-46.261 6.11925-46.664C11.0702-51.04 16.7462-54.518 22.8942-56.943C23.4592-57.166 24.0982-56.888 24.3202-56.323ZM59.4092-39.113C59.6752-39.659 60.3342-39.885 60.8802-39.619C63.8292-38.18 66.5872-36.377 69.0892-34.254C69.5522-33.861 69.6092-33.167 69.2162-32.704C68.8232-32.24 68.1292-32.184 67.6652-32.577C65.3032-34.581 62.6992-36.283 59.9152-37.642C59.3692-37.908 59.1422-38.567 59.4092-39.113ZM42.7772-7.342C42.7772-7.949 43.2692-8.442 43.8772-8.442L43.9122-8.442C44.5192-8.442 45.0122-7.949 45.0122-7.342C45.0122-6.734 44.5192-6.242 43.9122-6.242L43.8772-6.242C43.2692-6.242 42.7772-6.734 42.7772-7.342Z"/>
   <path class="hierarchical-1:primary SFSymbolsPreview212121" d="M4.59925-74.619C5.02925-75.049 5.72525-75.049 6.15525-74.619L83.1552 2.381C83.5842 2.81 83.5842 3.507 83.1552 3.936C82.7252 4.366 82.0292 4.366 81.5992 3.936L4.59925-73.064C4.17025-73.493 4.17025-74.19 4.59925-74.619Z"/>
  </g>
 </g>
</svg>
