<?xml version="1.0" encoding="UTF-8"?>
<!--Generator: Apple Native CoreSVG 175-->
<!DOCTYPE svg
PUBLIC "-//W3C//DTD SVG 1.1//EN"
       "http://www.w3.org/Graphics/SVG/1.1/DTD/svg11.dtd">
<svg version="1.1" xmlns="http://www.w3.org/2000/svg" xmlns:xlink="http://www.w3.org/1999/xlink" width="3300" height="2200">
 <!--glyph: "", point size: 100.0, font version: "17.0d12e1", template writer version: "65.1"-->
 <g id="Notes">
  <rect height="2200" id="artboard" style="fill:white;opacity:1" width="3300" x="0" y="0"/>
  <line style="fill:none;stroke:black;opacity:1;stroke-width:0.5;" x1="263" x2="3036" y1="292" y2="292"/>
  <text style="stroke:none;fill:black;font-family:sans-serif;font-size:13;font-weight:bold;" transform="matrix(1 0 0 1 263 322)">Weight/Scale Variations</text>
  <text style="stroke:none;fill:black;font-family:sans-serif;font-size:13;text-anchor:middle;" transform="matrix(1 0 0 1 559.711 322)">Ultralight</text>
  <text style="stroke:none;fill:black;font-family:sans-serif;font-size:13;text-anchor:middle;" transform="matrix(1 0 0 1 856.422 322)">Thin</text>
  <text style="stroke:none;fill:black;font-family:sans-serif;font-size:13;text-anchor:middle;" transform="matrix(1 0 0 1 1153.13 322)">Light</text>
  <text style="stroke:none;fill:black;font-family:sans-serif;font-size:13;text-anchor:middle;" transform="matrix(1 0 0 1 1449.84 322)">Regular</text>
  <text style="stroke:none;fill:black;font-family:sans-serif;font-size:13;text-anchor:middle;" transform="matrix(1 0 0 1 1746.56 322)">Medium</text>
  <text style="stroke:none;fill:black;font-family:sans-serif;font-size:13;text-anchor:middle;" transform="matrix(1 0 0 1 2043.27 322)">Semibold</text>
  <text style="stroke:none;fill:black;font-family:sans-serif;font-size:13;text-anchor:middle;" transform="matrix(1 0 0 1 2339.98 322)">Bold</text>
  <text style="stroke:none;fill:black;font-family:sans-serif;font-size:13;text-anchor:middle;" transform="matrix(1 0 0 1 2636.69 322)">Heavy</text>
  <text style="stroke:none;fill:black;font-family:sans-serif;font-size:13;text-anchor:middle;" transform="matrix(1 0 0 1 2933.4 322)">Black</text>
  <line style="fill:none;stroke:black;opacity:1;stroke-width:0.5;" x1="263" x2="3036" y1="1903" y2="1903"/>
  <g transform="matrix(1 0 0 1 263 1933)">
   <path d="M9.24805 0.830078Q10.8691 0.830078 12.2949 0.214844Q13.7207-0.400391 14.8096-1.49414Q15.8984-2.58789 16.5186-4.01367Q17.1387-5.43945 17.1387-7.05078Q17.1387-8.66211 16.5186-10.0879Q15.8984-11.5137 14.8047-12.6074Q13.7109-13.7012 12.2852-14.3164Q10.8594-14.9316 9.23828-14.9316Q7.62695-14.9316 6.20117-14.3164Q4.77539-13.7012 3.69141-12.6074Q2.60742-11.5137 1.9873-10.0879Q1.36719-8.66211 1.36719-7.05078Q1.36719-5.43945 1.9873-4.01367Q2.60742-2.58789 3.69629-1.49414Q4.78516-0.400391 6.21094 0.214844Q7.63672 0.830078 9.24805 0.830078ZM9.24805-0.654297Q7.91992-0.654297 6.7627-1.14746Q5.60547-1.64062 4.73145-2.51953Q3.85742-3.39844 3.36426-4.56055Q2.87109-5.72266 2.87109-7.05078Q2.87109-8.37891 3.35938-9.54102Q3.84766-10.7031 4.72168-11.582Q5.5957-12.4609 6.75293-12.9541Q7.91016-13.4473 9.23828-13.4473Q10.5762-13.4473 11.7334-12.9541Q12.8906-12.4609 13.7695-11.582Q14.6484-10.7031 15.1465-9.54102Q15.6445-8.37891 15.6445-7.05078Q15.6445-5.72266 15.1514-4.56055Q14.6582-3.39844 13.7842-2.51953Q12.9102-1.64062 11.748-1.14746Q10.5859-0.654297 9.24805-0.654297ZM5.6543-7.05078Q5.6543-6.72852 5.85938-6.52832Q6.06445-6.32812 6.40625-6.32812L8.51562-6.32812L8.51562-4.20898Q8.51562-3.88672 8.71094-3.67676Q8.90625-3.4668 9.23828-3.4668Q9.56055-3.4668 9.77051-3.67676Q9.98047-3.88672 9.98047-4.20898L9.98047-6.32812L12.0898-6.32812Q12.4219-6.32812 12.627-6.52832Q12.832-6.72852 12.832-7.05078Q12.832-7.38281 12.627-7.58789Q12.4219-7.79297 12.0898-7.79297L9.98047-7.79297L9.98047-9.90234Q9.98047-10.2344 9.77051-10.4443Q9.56055-10.6543 9.23828-10.6543Q8.90625-10.6543 8.71094-10.4443Q8.51562-10.2344 8.51562-9.90234L8.51562-7.79297L6.40625-7.79297Q6.06445-7.79297 5.85938-7.58789Q5.6543-7.38281 5.6543-7.05078Z"/>
  </g>
  <g transform="matrix(1 0 0 1 281.867 1933)">
   <path d="M11.709 2.91016Q13.75 2.91016 15.5518 2.12891Q17.3535 1.34766 18.7305-0.0292969Q20.1074-1.40625 20.8887-3.20801Q21.6699-5.00977 21.6699-7.05078Q21.6699-9.0918 20.8887-10.8936Q20.1074-12.6953 18.7305-14.0723Q17.3535-15.4492 15.5469-16.2305Q13.7402-17.0117 11.6992-17.0117Q9.6582-17.0117 7.85645-16.2305Q6.05469-15.4492 4.68262-14.0723Q3.31055-12.6953 2.5293-10.8936Q1.74805-9.0918 1.74805-7.05078Q1.74805-5.00977 2.5293-3.20801Q3.31055-1.40625 4.6875-0.0292969Q6.06445 1.34766 7.86621 2.12891Q9.66797 2.91016 11.709 2.91016ZM11.709 1.25Q9.98047 1.25 8.47656 0.605469Q6.97266-0.0390625 5.83496-1.17676Q4.69727-2.31445 4.05762-3.81836Q3.41797-5.32227 3.41797-7.05078Q3.41797-8.7793 4.05762-10.2832Q4.69727-11.7871 5.83008-12.9297Q6.96289-14.0723 8.4668-14.7119Q9.9707-15.3516 11.6992-15.3516Q13.4277-15.3516 14.9316-14.7119Q16.4355-14.0723 17.5781-12.9297Q18.7207-11.7871 19.3652-10.2832Q20.0098-8.7793 20.0098-7.05078Q20.0098-5.32227 19.3701-3.81836Q18.7305-2.31445 17.5928-1.17676Q16.4551-0.0390625 14.9463 0.605469Q13.4375 1.25 11.709 1.25ZM7.17773-7.05078Q7.17773-6.69922 7.41211-6.47461Q7.64648-6.25 8.01758-6.25L10.8887-6.25L10.8887-3.36914Q10.8887-2.99805 11.1133-2.76855Q11.3379-2.53906 11.6895-2.53906Q12.0605-2.53906 12.29-2.76855Q12.5195-2.99805 12.5195-3.36914L12.5195-6.25L15.4004-6.25Q15.7715-6.25 16.001-6.47461Q16.2305-6.69922 16.2305-7.05078Q16.2305-7.42188 16.001-7.65137Q15.7715-7.88086 15.4004-7.88086L12.5195-7.88086L12.5195-10.752Q12.5195-11.1328 12.29-11.3623Q12.0605-11.5918 11.6895-11.5918Q11.3379-11.5918 11.1133-11.3574Q10.8887-11.123 10.8887-10.752L10.8887-7.88086L8.01758-7.88086Q7.63672-7.88086 7.40723-7.65137Q7.17773-7.42188 7.17773-7.05078Z"/>
  </g>
  <g transform="matrix(1 0 0 1 305.646 1933)">
   <path d="M14.9707 5.66406Q17.0605 5.66406 18.96 5.01465Q20.8594 4.36523 22.4512 3.19336Q24.043 2.02148 25.2197 0.429688Q26.3965-1.16211 27.0459-3.06641Q27.6953-4.9707 27.6953-7.05078Q27.6953-9.14062 27.0459-11.04Q26.3965-12.9395 25.2197-14.5312Q24.043-16.123 22.4512-17.2998Q20.8594-18.4766 18.9551-19.126Q17.0508-19.7754 14.9609-19.7754Q12.8711-19.7754 10.9717-19.126Q9.07227-18.4766 7.48535-17.2998Q5.89844-16.123 4.72168-14.5312Q3.54492-12.9395 2.90039-11.04Q2.25586-9.14062 2.25586-7.05078Q2.25586-4.9707 2.90527-3.06641Q3.55469-1.16211 4.72656 0.429688Q5.89844 2.02148 7.49023 3.19336Q9.08203 4.36523 10.9814 5.01465Q12.8809 5.66406 14.9707 5.66406ZM14.9707 3.84766Q13.1641 3.84766 11.5283 3.2959Q9.89258 2.74414 8.53516 1.74805Q7.17773 0.751953 6.17676-0.610352Q5.17578-1.97266 4.62891-3.6084Q4.08203-5.24414 4.08203-7.05078Q4.08203-8.86719 4.62891-10.5029Q5.17578-12.1387 6.17188-13.501Q7.16797-14.8633 8.52539-15.8594Q9.88281-16.8555 11.5186-17.4023Q13.1543-17.9492 14.9609-17.9492Q16.7773-17.9492 18.4131-17.4023Q20.0488-16.8555 21.4111-15.8594Q22.7734-14.8633 23.7695-13.501Q24.7656-12.1387 25.3174-10.5029Q25.8691-8.86719 25.8691-7.05078Q25.8789-5.24414 25.332-3.6084Q24.7852-1.97266 23.7842-0.610352Q22.7832 0.751953 21.4209 1.74805Q20.0586 2.74414 18.4229 3.2959Q16.7871 3.84766 14.9707 3.84766ZM9.19922-7.05078Q9.19922-6.66992 9.45801-6.4209Q9.7168-6.17188 10.1172-6.17188L14.0625-6.17188L14.0625-2.2168Q14.0625-1.81641 14.3115-1.55762Q14.5605-1.29883 14.9512-1.29883Q15.3516-1.29883 15.6104-1.55273Q15.8691-1.80664 15.8691-2.2168L15.8691-6.17188L19.8242-6.17188Q20.2246-6.17188 20.4785-6.4209Q20.7324-6.66992 20.7324-7.05078Q20.7324-7.46094 20.4785-7.71484Q20.2246-7.96875 19.8242-7.96875L15.8691-7.96875L15.8691-11.9141Q15.8691-12.3242 15.6104-12.583Q15.3516-12.8418 14.9512-12.8418Q14.5605-12.8418 14.3115-12.583Q14.0625-12.3242 14.0625-11.9141L14.0625-7.96875L10.1172-7.96875Q9.70703-7.96875 9.45312-7.71484Q9.19922-7.46094 9.19922-7.05078Z"/>
  </g>
  <text style="stroke:none;fill:black;font-family:sans-serif;font-size:13;font-weight:bold;" transform="matrix(1 0 0 1 263 1953)">Design Variations</text>
  <text style="stroke:none;fill:black;font-family:sans-serif;font-size:13;" transform="matrix(1 0 0 1 263 1971)">Symbols are supported in up to nine weights and three scales.</text>
  <text style="stroke:none;fill:black;font-family:sans-serif;font-size:13;" transform="matrix(1 0 0 1 263 1989)">For optimal layout with text and other symbols, vertically align</text>
  <text style="stroke:none;fill:black;font-family:sans-serif;font-size:13;" transform="matrix(1 0 0 1 263 2007)">symbols with the adjacent text.</text>
  <line style="fill:none;stroke:#00AEEF;stroke-width:0.5;opacity:1.0;" x1="776" x2="776" y1="1919" y2="1933"/>
  <g transform="matrix(1 0 0 1 776 1933)">
   <path d="M3.31055 0.15625Q3.70117 0.15625 3.91602-0.00976562Q4.13086-0.175781 4.26758-0.585938L5.52734-4.0332L11.2891-4.0332L12.5488-0.585938Q12.6855-0.175781 12.9004-0.00976562Q13.1152 0.15625 13.4961 0.15625Q13.8867 0.15625 14.1162-0.0585938Q14.3457-0.273438 14.3457-0.644531Q14.3457-0.869141 14.2383-1.17188L9.6582-13.3691Q9.48242-13.8184 9.17969-14.043Q8.87695-14.2676 8.4082-14.2676Q7.5-14.2676 7.17773-13.3789L2.59766-1.16211Q2.49023-0.859375 2.49023-0.634766Q2.49023-0.263672 2.70996-0.0537109Q2.92969 0.15625 3.31055 0.15625ZM6.00586-5.51758L8.37891-12.0898L8.42773-12.0898L10.8008-5.51758Z"/>
  </g>
  <line style="fill:none;stroke:#00AEEF;stroke-width:0.5;opacity:1.0;" x1="793.197" x2="793.197" y1="1919" y2="1933"/>
  <text style="stroke:none;fill:black;font-family:sans-serif;font-size:13;font-weight:bold;" transform="matrix(1 0 0 1 776 1953)">Margins</text>
  <text style="stroke:none;fill:black;font-family:sans-serif;font-size:13;" transform="matrix(1 0 0 1 776 1971)">Leading and trailing margins on the left and right side of each symbol</text>
  <text style="stroke:none;fill:black;font-family:sans-serif;font-size:13;" transform="matrix(1 0 0 1 776 1989)">can be adjusted by modifying the x-location of the margin guidelines.</text>
  <text style="stroke:none;fill:black;font-family:sans-serif;font-size:13;" transform="matrix(1 0 0 1 776 2007)">Modifications are automatically applied proportionally to all</text>
  <text style="stroke:none;fill:black;font-family:sans-serif;font-size:13;" transform="matrix(1 0 0 1 776 2025)">scales and weights.</text>
  <g transform="matrix(1 0 0 1 1289 1933)">
   <path d="M2.8418 1.86523L4.54102 3.57422Q5.18555 4.22852 5.90332 4.17969Q6.62109 4.13086 7.31445 3.35938L18.0078-8.42773L17.041-9.4043L6.42578 2.27539Q6.16211 2.57812 5.89355 2.61719Q5.625 2.65625 5.27344 2.30469L4.10156 1.14258Q3.75 0.791016 3.79395 0.522461Q3.83789 0.253906 4.14062-0.0195312L15.6152-10.8203L14.6387-11.7871L3.04688-0.898438Q2.30469-0.214844 2.25098 0.498047Q2.19727 1.21094 2.8418 1.86523ZM9.25781-16.3281Q8.94531-16.0254 8.90625-15.6348Q8.86719-15.2441 9.04297-14.9512Q9.21875-14.6777 9.55566-14.541Q9.89258-14.4043 10.3809-14.5215Q11.4746-14.7754 12.5977-14.7314Q13.7207-14.6875 14.7949-13.9844L14.209-12.5293Q13.9551-11.9043 14.0674-11.4404Q14.1797-10.9766 14.5801-10.5664L16.875-8.25195Q17.2363-7.88086 17.5781-7.82227Q17.9199-7.76367 18.3398-7.8418L19.4043-8.03711L20.0684-7.36328L20.0293-6.80664Q20-6.43555 20.1221-6.12305Q20.2441-5.81055 20.6055-5.44922L21.3672-4.70703Q21.7285-4.3457 22.1533-4.33105Q22.5781-4.31641 22.9297-4.66797L25.8398-7.58789Q26.1914-7.93945 26.1816-8.35449Q26.1719-8.76953 25.8105-9.13086L25.0391-9.89258Q24.6875-10.2539 24.3799-10.3857Q24.0723-10.5176 23.7109-10.4883L23.1348-10.4395L22.4902-11.0742L22.7344-12.1973Q22.832-12.6172 22.6953-12.9834Q22.5586-13.3496 22.1191-13.7891L19.9219-15.9766Q18.6719-17.2168 17.2607-17.8369Q15.8496-18.457 14.4189-18.4814Q12.9883-18.5059 11.665-17.959Q10.3418-17.4121 9.25781-16.3281ZM10.752-15.957Q11.6602-16.6211 12.7002-16.9043Q13.7402-17.1875 14.8047-17.085Q15.8691-16.9824 16.8701-16.5137Q17.8711-16.0449 18.7012-15.2051L21.1328-12.793Q21.3086-12.6172 21.3525-12.4512Q21.3965-12.2852 21.3379-12.0312L21.0156-10.5469L22.5195-9.0625L23.5059-9.12109Q23.6914-9.13086 23.7891-9.09668Q23.8867-9.0625 24.0332-8.91602L24.6094-8.33984L22.168-5.89844L21.5918-6.47461Q21.4453-6.62109 21.4062-6.71875Q21.3672-6.81641 21.377-7.01172L21.4453-7.98828L19.9512-9.47266L18.4277-9.21875Q18.1836-9.16992 18.042-9.2041Q17.9004-9.23828 17.7148-9.41406L15.7129-11.416Q15.5176-11.5918 15.4932-11.7529Q15.4688-11.9141 15.5859-12.1875L16.4648-14.2773Q15.293-15.3711 13.8281-15.791Q12.3633-16.2109 10.8398-15.7617Q10.7227-15.7324 10.6885-15.8057Q10.6543-15.8789 10.752-15.957Z"/>
  </g>
  <text style="stroke:none;fill:black;font-family:sans-serif;font-size:13;font-weight:bold;" transform="matrix(1 0 0 1 1289 1953)">Exporting</text>
  <text style="stroke:none;fill:black;font-family:sans-serif;font-size:13;" transform="matrix(1 0 0 1 1289 1971)">Symbols should be outlined when exporting to ensure the</text>
  <text style="stroke:none;fill:black;font-family:sans-serif;font-size:13;" transform="matrix(1 0 0 1 1289 1989)">design is preserved when submitting to Xcode.</text>
  <text id="template-version" style="stroke:none;fill:black;font-family:sans-serif;font-size:13;text-anchor:end;" transform="matrix(1 0 0 1 3036 1933)">Template v.3.0</text>
  <text style="stroke:none;fill:black;font-family:sans-serif;font-size:13;text-anchor:end;" transform="matrix(1 0 0 1 3036 1951)">Requires Xcode 13 or greater</text>
  <text id="descriptive-name" style="stroke:none;fill:black;font-family:sans-serif;font-size:13;text-anchor:end;" transform="matrix(1 0 0 1 3036 1969)">Generated from book-open</text>
  <text style="stroke:none;fill:black;font-family:sans-serif;font-size:13;text-anchor:end;" transform="matrix(1 0 0 1 3036 1987)">Typeset at 100 points</text>
  <text style="stroke:none;fill:black;font-family:sans-serif;font-size:13;" transform="matrix(1 0 0 1 263 726)">Small</text>
  <text style="stroke:none;fill:black;font-family:sans-serif;font-size:13;" transform="matrix(1 0 0 1 263 1156)">Medium</text>
  <text style="stroke:none;fill:black;font-family:sans-serif;font-size:13;" transform="matrix(1 0 0 1 263 1586)">Large</text>
 </g>
 <g id="Guides">
  <g id="H-reference" style="fill:#27AAE1;stroke:none;" transform="matrix(1 0 0 1 339 696)">
   <path d="M0.976562 0L3.66211 0L29.3457-67.1387L30.0293-67.1387L30.0293-70.459L28.125-70.459ZM11.6699-24.4629L46.9727-24.4629L46.2402-26.709L12.4512-26.709ZM55.127 0L57.7637 0L30.6152-70.459L29.4434-70.459L29.4434-67.1387Z"/>
  </g>
  <line id="Baseline-S" style="fill:none;stroke:#27AAE1;opacity:1;stroke-width:0.5;" x1="263" x2="3036" y1="696" y2="696"/>
  <line id="Capline-S" style="fill:none;stroke:#27AAE1;opacity:1;stroke-width:0.5;" x1="263" x2="3036" y1="625.541" y2="625.541"/>
  <g id="H-reference" style="fill:#27AAE1;stroke:none;" transform="matrix(1 0 0 1 339 1126)">
   <path d="M0.976562 0L3.66211 0L29.3457-67.1387L30.0293-67.1387L30.0293-70.459L28.125-70.459ZM11.6699-24.4629L46.9727-24.4629L46.2402-26.709L12.4512-26.709ZM55.127 0L57.7637 0L30.6152-70.459L29.4434-70.459L29.4434-67.1387Z"/>
  </g>
  <line id="Baseline-M" style="fill:none;stroke:#27AAE1;opacity:1;stroke-width:0.5;" x1="263" x2="3036" y1="1126" y2="1126"/>
  <line id="Capline-M" style="fill:none;stroke:#27AAE1;opacity:1;stroke-width:0.5;" x1="263" x2="3036" y1="1055.54" y2="1055.54"/>
  <g id="H-reference" style="fill:#27AAE1;stroke:none;" transform="matrix(1 0 0 1 339 1556)">
   <path d="M0.976562 0L3.66211 0L29.3457-67.1387L30.0293-67.1387L30.0293-70.459L28.125-70.459ZM11.6699-24.4629L46.9727-24.4629L46.2402-26.709L12.4512-26.709ZM55.127 0L57.7637 0L30.6152-70.459L29.4434-70.459L29.4434-67.1387Z"/>
  </g>
  <line id="Baseline-L" style="fill:none;stroke:#27AAE1;opacity:1;stroke-width:0.5;" x1="263" x2="3036" y1="1556" y2="1556"/>
  <line id="Capline-L" style="fill:none;stroke:#27AAE1;opacity:1;stroke-width:0.5;" x1="263" x2="3036" y1="1485.54" y2="1485.54"/>
  <line id="left-margin-Regular-M" style="fill:none;stroke:#00AEEF;stroke-width:0.5;opacity:1.0;" x1="1392.45" x2="1392.45" y1="1030.78" y2="1150.12"/>
  <line id="right-margin-Regular-M" style="fill:none;stroke:#00AEEF;stroke-width:0.5;opacity:1.0;" x1="1507.24" x2="1507.24" y1="1030.78" y2="1150.12"/>
 </g>
 <g id="Symbols">
  <g id="Black-L" transform="matrix(1 0 0 1 2860.15 1556)">
   <path d="M75.04-84.77C80.64-90.37 88.23-93.52 96.15-93.52L130.28-93.52C134.2-93.52 137.38-90.34 137.38-86.42L137.38-1.11C137.38 2.82 134.2 5.99 130.28 5.99L90.46 5.99C87.82 5.99 85.29 7.04 83.42 8.91C81.55 10.78 80.5 13.32 80.5 15.96C80.5 19.88 77.32 23.06 73.4 23.06C69.48 23.06 66.3 19.88 66.3 15.96L66.3-63.67C66.3-71.58 69.45-79.18 75.04-84.77ZM80.5-6.06C83.6-7.46 86.99-8.21 90.46-8.21L123.18-8.21L123.18-79.32L96.15-79.32C92-79.32 88.02-77.67 85.08-74.73C82.15-71.8 80.5-67.82 80.5-63.67L80.5-6.06ZM9.43-86.42C9.43-90.34 12.6-93.52 16.53-93.52L50.65-93.52C58.57-93.52 66.16-90.37 71.76-84.77C77.36-79.18 80.5-71.58 80.5-63.67L80.5 15.96C80.5 19.88 77.32 23.06 73.4 23.06C69.48 23.06 66.3 19.88 66.3 15.96C66.3 13.32 65.25 10.78 63.38 8.91C61.51 7.04 58.98 5.99 56.34 5.99L16.53 5.99C12.6 5.99 9.43 2.82 9.43-1.11L9.43-86.42ZM66.3-6.06L66.3-63.67C66.3-67.82 64.65-71.8 61.72-74.73C58.78-77.67 54.8-79.32 50.65-79.32L23.63-79.32L23.63-8.21L56.34-8.21C59.81-8.21 63.2-7.46 66.3-6.06Z"/>
  </g>
  <g id="Heavy-L" transform="matrix(1 0 0 1 2564.29 1556)">
   <path d="M74.8-84.17C80.24-89.61 87.62-92.67 95.31-92.67L129.43-92.67C132.88-92.67 135.68-89.87 135.68-86.42L135.68-1.11C135.68 2.35 132.88 5.14 129.43 5.14L89.62 5.14C86.75 5.14 84 6.28 81.97 8.31C79.95 10.34 78.81 13.09 78.81 15.96C78.81 19.41 76.01 22.21 72.56 22.21C69.11 22.21 66.31 19.41 66.31 15.96L66.31-63.67C66.31-71.36 69.36-78.74 74.8-84.17ZM78.81-4.7C82.11-6.43 85.82-7.36 89.62-7.36L123.18-7.36L123.18-80.17L95.31-80.17C90.93-80.17 86.73-78.43 83.64-75.34C80.55-72.24 78.81-68.04 78.81-63.67L78.81-4.7ZM9.43-86.42C9.43-89.87 12.23-92.67 15.68-92.67L49.81-92.67C57.5-92.67 64.88-89.61 70.31-84.17C75.75-78.74 78.81-71.36 78.81-63.67L78.81 15.96C78.81 19.41 76.01 22.21 72.56 22.21C69.11 22.21 66.31 19.41 66.31 15.96C66.31 13.09 65.17 10.34 63.14 8.31C61.11 6.28 58.36 5.14 55.49 5.14L15.68 5.14C12.23 5.14 9.43 2.35 9.43-1.11L9.43-86.42ZM66.31-4.7L66.31-63.67C66.31-68.04 64.57-72.24 61.47-75.34C58.38-78.43 54.18-80.17 49.81-80.17L21.93-80.17L21.93-7.36L55.49-7.36C59.3-7.36 63-6.43 66.31-4.7Z"/>
  </g>
  <g id="Bold-L" transform="matrix(1 0 0 1 2268.53 1556)">
   <path d="M74.52-83.5C79.78-88.76 86.91-91.72 94.35-91.72L128.48-91.72C131.41-91.72 133.78-89.35 133.78-86.42L133.78-1.11C133.78 1.82 131.41 4.19 128.48 4.19L88.67 4.19C85.55 4.19 82.55 5.43 80.35 7.64C78.14 9.84 76.9 12.84 76.9 15.96C76.9 18.88 74.53 21.26 71.6 21.26C68.68 21.26 66.3 18.88 66.3 15.96L66.3-63.67C66.3-71.11 69.26-78.24 74.52-83.5ZM76.9-3.06C80.41-5.23 84.48-6.41 88.67-6.41L123.18-6.41L123.18-81.12L94.35-81.12C89.73-81.12 85.29-79.28 82.01-76.01C78.74-72.74 76.9-68.3 76.9-63.67L76.9-3.06ZM9.43-86.42C9.43-89.35 11.8-91.72 14.73-91.72L48.85-91.72C56.29-91.72 63.43-88.76 68.69-83.5C73.95-78.24 76.9-71.11 76.9-63.67L76.9 15.96C76.9 18.88 74.53 21.26 71.6 21.26C68.68 21.26 66.3 18.88 66.3 15.96C66.3 12.84 65.06 9.84 62.86 7.64C60.65 5.43 57.66 4.19 54.54 4.19L14.73 4.19C11.8 4.19 9.43 1.82 9.43-1.11L9.43-86.42ZM66.3-3.06L66.3-63.67C66.3-68.3 64.47-72.74 61.19-76.01C57.92-79.28 53.48-81.12 48.85-81.12L20.03-81.12L20.03-6.41L54.54-6.41C58.73-6.41 62.8-5.23 66.3-3.06Z"/>
  </g>
  <g id="Semibold-L" transform="matrix(1 0 0 1 1972.47 1556)">
   <path d="M74.33-83.04C79.47-88.18 86.44-91.07 93.71-91.07L127.83-91.07C130.4-91.07 132.48-88.99 132.48-86.42L132.48-1.11C132.48 1.46 130.4 3.54 127.83 3.54L88.02 3.54C84.73 3.54 81.57 4.85 79.25 7.18C76.92 9.51 75.61 12.66 75.61 15.96C75.61 18.52 73.53 20.61 70.96 20.61C68.39 20.61 66.31 18.52 66.31 15.96L66.31-63.67C66.31-70.94 69.2-77.9 74.33-83.04ZM75.61-1.86C79.23-4.38 83.55-5.76 88.02-5.76L123.18-5.76L123.18-81.77L93.71-81.77C88.91-81.77 84.31-79.86 80.91-76.47C77.52-73.07 75.61-68.47 75.61-63.67L75.61-1.86ZM9.43-86.42C9.43-88.99 11.52-91.07 14.08-91.07L48.21-91.07C55.48-91.07 62.45-88.18 67.58-83.04C72.72-77.9 75.61-70.94 75.61-63.67L75.61 15.96C75.61 18.52 73.53 20.61 70.96 20.61C68.39 20.61 66.31 18.52 66.31 15.96C66.31 12.66 65 9.51 62.67 7.18C60.35 4.85 57.19 3.54 53.9 3.54L14.08 3.54C11.52 3.54 9.43 1.46 9.43-1.11L9.43-86.42ZM66.31-1.86L66.31-63.67C66.31-68.47 64.4-73.07 61.01-76.47C57.61-79.86 53.01-81.77 48.21-81.77L18.73-81.77L18.73-5.76L53.9-5.76C58.37-5.76 62.69-4.38 66.31-1.86Z"/>
  </g>
  <g id="Medium-L" transform="matrix(1 0 0 1 1676.26 1556)">
   <path d="M74.19-82.69C79.23-87.73 86.08-90.57 93.21-90.57L127.33-90.57C129.63-90.57 131.48-88.71 131.48-86.42L131.48-1.11C131.48 1.19 129.63 3.04 127.33 3.04L87.52 3.04C84.1 3.04 80.81 4.4 78.39 6.83C75.97 9.25 74.61 12.53 74.61 15.96C74.61 18.25 72.75 20.11 70.46 20.11C68.17 20.11 66.31 18.25 66.31 15.96L66.31-63.67C66.31-70.8 69.14-77.64 74.19-82.69ZM74.61-0.87C78.29-3.7 82.83-5.26 87.52-5.26L123.18-5.26L123.18-82.27L93.21-82.27C88.28-82.27 83.55-80.31 80.06-76.82C76.57-73.33 74.61-68.6 74.61-63.67L74.61-0.87ZM9.43-86.42C9.43-88.71 11.29-90.57 13.58-90.57L47.71-90.57C54.84-90.57 61.69-87.73 66.73-82.69C71.78-77.64 74.61-70.8 74.61-63.67L74.61 15.96C74.61 18.25 72.75 20.11 70.46 20.11C68.17 20.11 66.31 18.25 66.31 15.96C66.31 12.53 64.95 9.25 62.53 6.83C60.11 4.4 56.82 3.04 53.4 3.04L13.58 3.04C11.29 3.04 9.43 1.19 9.43-1.11L9.43-86.42ZM66.31-0.87L66.31-63.67C66.31-68.6 64.35-73.33 60.86-76.82C57.37-80.31 52.64-82.27 47.71-82.27L17.73-82.27L17.73-5.26L53.4-5.26C58.09-5.26 62.63-3.7 66.31-0.87Z"/>
  </g>
  <g id="Regular-L" transform="matrix(1 0 0 1 1380.19 1556)">
   <path d="M74-82.23C78.92-87.15 85.6-89.92 92.56-89.92L126.69-89.92C128.62-89.92 130.19-88.35 130.19-86.42L130.19-1.11C130.19 0.83 128.62 2.39 126.69 2.39L86.87 2.39C83.28 2.39 79.83 3.82 77.28 6.37C74.74 8.91 73.31 12.36 73.31 15.96C73.31 17.89 71.74 19.46 69.81 19.46C67.88 19.46 66.31 17.89 66.31 15.96L66.31-63.67C66.31-70.63 69.08-77.31 74-82.23ZM73.31 0.5C77.05-2.78 81.87-4.61 86.87-4.61L123.19-4.61L123.19-82.92L92.56-82.92C87.45-82.92 82.56-80.89 78.95-77.28C75.34-73.67 73.31-68.77 73.31-63.67L73.31 0.5ZM9.43-86.42C9.43-88.35 11-89.92 12.93-89.92L47.06-89.92C54.02-89.92 60.7-87.15 65.62-82.23C70.54-77.31 73.31-70.63 73.31-63.67L73.31 15.96C73.31 17.89 71.74 19.46 69.81 19.46C67.88 19.46 66.31 17.89 66.31 15.96C66.31 12.36 64.88 8.91 62.34 6.37C59.79 3.82 56.34 2.39 52.75 2.39L12.93 2.39C11 2.39 9.43 0.83 9.43-1.11L9.43-86.42ZM66.31 0.5L66.31-63.67C66.31-68.77 64.28-73.67 60.67-77.28C57.06-80.89 52.17-82.92 47.06-82.92L16.43-82.92L16.43-4.61L52.75-4.61C57.75-4.61 62.57-2.78 66.31 0.5Z"/>
  </g>
  <g id="Light-L" transform="matrix(1 0 0 1 1084.28 1556)">
   <path d="M73.76-81.66C78.54-86.44 85.01-89.12 91.76-89.12L125.88-89.12C127.38-89.12 128.58-87.91 128.58-86.42L128.58-1.1C128.58 0.39 127.38 1.6 125.88 1.6L86.07 1.6C82.26 1.6 78.61 3.11 75.92 5.8C73.22 8.5 71.71 12.15 71.71 15.96C71.71 17.45 70.5 18.66 69.01 18.66C67.52 18.66 66.31 17.45 66.31 15.96L66.31-63.67C66.31-70.42 68.99-76.89 73.76-81.66ZM71.71 2.38C71.84 2.25 71.97 2.12 72.1 1.98C75.8-1.72 80.83-3.8 86.07-3.8L123.18-3.8L123.18-83.72L91.76-83.72C86.44-83.72 81.34-81.6 77.58-77.84C73.82-74.08 71.71-68.98 71.71-63.67L71.71 2.38ZM9.43-86.42C9.43-87.91 10.64-89.12 12.13-89.12L46.26-89.12C53.01-89.12 59.48-86.44 64.26-81.66C69.03-76.89 71.71-70.42 71.71-63.67L71.71 15.96C71.71 17.45 70.5 18.66 69.01 18.66C67.52 18.66 66.31 17.45 66.31 15.96C66.31 12.15 64.8 8.5 62.1 5.8C59.41 3.11 55.76 1.6 51.95 1.6L12.13 1.6C10.64 1.6 9.43 0.39 9.43-1.1L9.43-86.42ZM66.31 2.38L66.31-63.67C66.31-68.98 64.2-74.08 60.44-77.84C56.68-81.6 51.58-83.72 46.26-83.72L14.83-83.72L14.83-3.8L51.95-3.8C57.19-3.8 62.22-1.72 65.92 1.98C66.05 2.12 66.18 2.25 66.31 2.38Z"/>
  </g>
  <g id="Thin-L" transform="matrix(1 0 0 1 788.622 1556)">
   <path d="M73.451-80.92C78.027-85.5 84.233-88.07 90.705-88.07L124.83-88.07C125.741-88.07 126.48-87.33 126.48-86.42L126.48-1.11C126.48-0.19 125.741 0.54 124.83 0.54L85.017 0.54C80.929 0.54 77.009 2.17 74.119 5.06C71.228 7.95 69.605 11.87 69.605 15.96C69.605 16.87 68.866 17.61 67.955 17.61C67.043 17.61 66.305 16.87 66.305 15.96L66.305-63.67C66.305-70.14 68.875-76.35 73.451-80.92ZM69.605 5.34C70.246 4.41 70.975 3.54 71.785 2.72C75.295-0.78 80.054-2.76 85.017-2.76L123.18-2.76L123.18-84.77L90.705-84.77C85.109-84.77 79.742-82.55 75.785-78.59C71.828-74.63 69.605-69.26 69.605-63.67L69.605 5.34ZM9.43-86.42C9.43-87.33 10.168-88.07 11.08-88.07L45.205-88.07C51.676-88.07 57.882-85.5 62.458-80.92C67.034-76.35 69.605-70.14 69.605-63.67L69.605 15.96C69.605 16.87 68.866 17.61 67.955 17.61C67.043 17.61 66.305 16.87 66.305 15.96C66.305 11.87 64.681 7.95 61.79 5.06C58.9 2.17 54.98 0.54 50.892 0.54L11.08 0.54C10.168 0.54 9.43-0.19 9.43-1.11L9.43-86.42ZM66.305 5.34L66.305-63.67C66.305-69.26 64.082-74.63 60.125-78.59C56.168-82.55 50.801-84.77 45.205-84.77L12.73-84.77L12.73-2.76L50.892-2.76C55.855-2.76 60.615-0.78 64.124 2.72C64.935 3.54 65.663 4.41 66.305 5.34Z"/>
  </g>
  <g id="Ultralight-L" transform="matrix(1 0 0 1 492.461 1556)">
   <path d="M73.291-80.53C77.764-85 83.83-87.52 90.155-87.52L124.28-87.52C124.888-87.52 125.38-87.03 125.38-86.42L125.38-1.11C125.38-0.5 124.888-0.01 124.28-0.01L84.468-0.01C80.234-0.01 76.174 1.68 73.181 4.67C70.187 7.66 68.505 11.72 68.505 15.96C68.505 16.56 68.013 17.06 67.405 17.06C66.798 17.06 66.305 16.56 66.305 15.96L66.305-63.67C66.305-69.99 68.818-76.06 73.291-80.53ZM68.505 7.29C69.332 5.77 70.378 4.36 71.625 3.11C75.031-0.29 79.651-2.21 84.468-2.21L123.18-2.21L123.18-85.32L90.155-85.32C84.413-85.32 78.907-83.04 74.847-78.98C70.786-74.92 68.505-69.41 68.505-63.67L68.505 7.29ZM9.43-86.42C9.43-87.03 9.923-87.52 10.53-87.52L44.655-87.52C50.981-87.52 57.047-85 61.52-80.53C65.993-76.06 68.505-69.99 68.505-63.67L68.505 15.96C68.505 16.56 68.013 17.06 67.405 17.06C66.798 17.06 66.305 16.56 66.305 15.96C66.305 11.72 64.624 7.66 61.63 4.67C58.637 1.68 54.576-0.01 50.343-0.01L10.53-0.01C9.923-0.01 9.43-0.5 9.43-1.11L9.43-86.42ZM66.305 7.29L66.305-63.67C66.305-69.41 64.024-74.92 59.964-78.98C55.904-83.04 50.397-85.32 44.655-85.32L11.63-85.32L11.63-2.21L50.343-2.21C55.16-2.21 59.78-0.29 63.186 3.11C64.432 4.36 65.479 5.77 66.305 7.29Z"/>
  </g>
  <g id="Black-M" transform="matrix(1 0 0 1 2872.4 1126)">
   <path d="M61.36-75.18C66.04-79.86 72.39-82.49 79-82.49L105.78-82.49C109.7-82.49 112.88-79.31 112.88-75.39L112.88-8.45C112.88-4.53 109.7-1.35 105.78-1.35L74.54-1.35C72.87-1.35 71.28-0.69 70.1 0.49C68.92 1.67 68.25 3.27 68.25 4.93C68.25 8.85 65.08 12.03 61.15 12.03C57.23 12.03 54.05 8.85 54.05 4.93L54.05-57.54C54.05-64.16 56.68-70.51 61.36-75.18ZM68.25-14.57C70.27-15.22 72.39-15.55 74.54-15.55L98.68-15.55L98.68-68.29L79-68.29C76.15-68.29 73.42-67.16 71.4-65.14C69.39-63.13 68.25-60.39 68.25-57.54L68.25-14.57ZM9.43-75.39C9.43-79.31 12.61-82.49 16.53-82.49L43.3-82.49C49.92-82.49 56.27-79.86 60.95-75.18C65.63-70.51 68.25-64.16 68.25-57.54L68.25 4.93C68.25 8.85 65.08 12.03 61.15 12.03C57.23 12.03 54.05 8.85 54.05 4.93C54.05 3.27 53.39 1.67 52.21 0.49C51.03-0.69 49.43-1.35 47.77-1.35L16.53-1.35C12.61-1.35 9.43-4.53 9.43-8.45L9.43-75.39ZM54.05-14.57L54.05-57.54C54.05-60.39 52.92-63.13 50.91-65.14C48.89-67.16 46.16-68.29 43.3-68.29L23.63-68.29L23.63-15.55L47.77-15.55C49.92-15.55 52.04-15.22 54.05-14.57Z"/>
  </g>
  <g id="Heavy-M" transform="matrix(1 0 0 1 2576.54 1126)">
   <path d="M61.11-74.58C65.63-79.1 71.76-81.64 78.15-81.64L104.93-81.64C108.38-81.64 111.18-78.84 111.18-75.39L111.18-8.46C111.18-5 108.38-2.21 104.93-2.21L73.69-2.21C71.8-2.21 69.98-1.45 68.64-0.11C67.31 1.22 66.55 3.04 66.55 4.93C66.55 8.38 63.76 11.18 60.3 11.18C56.85 11.18 54.05 8.38 54.05 4.93L54.05-57.54C54.05-63.93 56.59-70.06 61.11-74.58ZM66.55-13.36C68.81-14.24 71.23-14.71 73.69-14.71L98.68-14.71L98.68-69.14L78.15-69.14C75.08-69.14 72.13-67.92 69.95-65.75C67.78-63.57 66.55-60.62 66.55-57.54L66.55-13.36ZM9.43-75.39C9.43-78.84 12.23-81.64 15.68-81.64L42.45-81.64C48.85-81.64 54.98-79.1 59.49-74.58C64.01-70.06 66.55-63.93 66.55-57.54L66.55 4.93C66.55 8.38 63.76 11.18 60.3 11.18C56.85 11.18 54.05 8.38 54.05 4.93C54.05 3.04 53.3 1.22 51.96-0.11C50.62-1.45 48.81-2.21 46.92-2.21L15.68-2.21C12.23-2.21 9.43-5 9.43-8.46L9.43-75.39ZM54.05-13.36L54.05-57.54C54.05-60.62 52.83-63.57 50.66-65.75C48.48-67.92 45.53-69.14 42.45-69.14L21.93-69.14L21.93-14.71L46.92-14.71C49.38-14.71 51.8-14.24 54.05-13.36Z"/>
  </g>
  <g id="Bold-M" transform="matrix(1 0 0 1 2280.78 1126)">
   <path d="M60.83-73.91C65.18-78.25 71.06-80.69 77.2-80.69L103.98-80.69C106.91-80.69 109.28-78.32 109.28-75.39L109.28-8.45C109.28-5.53 106.91-3.15 103.98-3.15L72.74-3.15C70.6-3.15 68.54-2.3 67.02-0.79C65.51 0.73 64.65 2.79 64.65 4.93C64.65 7.86 62.28 10.23 59.35 10.23C56.43 10.23 54.05 7.86 54.05 4.93L54.05-57.54C54.05-63.68 56.49-69.57 60.83-73.91ZM64.65-11.91C67.15-13.11 69.91-13.75 72.74-13.75L98.68-13.75L98.68-70.09L77.2-70.09C73.88-70.09 70.68-68.77 68.33-66.42C65.98-64.06 64.65-60.87 64.65-57.54L64.65-11.91ZM9.43-75.39C9.43-78.32 11.8-80.69 14.73-80.69L41.5-80.69C47.64-80.69 53.53-78.25 57.87-73.91C62.21-69.57 64.65-63.68 64.65-57.54L64.65 4.93C64.65 7.86 62.28 10.23 59.35 10.23C56.43 10.23 54.05 7.86 54.05 4.93C54.05 2.79 53.2 0.73 51.69-0.79C50.17-2.3 48.11-3.15 45.97-3.15L14.73-3.15C11.8-3.15 9.43-5.53 9.43-8.45L9.43-75.39ZM54.05-11.91L54.05-57.54C54.05-60.87 52.73-64.06 50.38-66.42C48.02-68.77 44.83-70.09 41.5-70.09L20.03-70.09L20.03-13.75L45.97-13.75C48.79-13.75 51.55-13.11 54.05-11.91Z"/>
  </g>
  <g id="Semibold-M" transform="matrix(1 0 0 1 1984.72 1126)">
   <path d="M60.65-73.45C64.87-77.67 70.59-80.04 76.56-80.04L103.33-80.04C105.9-80.04 107.98-77.96 107.98-75.39L107.98-8.45C107.98-5.89 105.9-3.8 103.33-3.8L72.1-3.8C69.78-3.8 67.56-2.88 65.92-1.24C64.28 0.39 63.36 2.62 63.36 4.93C63.36 7.5 61.28 9.58 58.71 9.58C56.14 9.58 54.06 7.5 54.06 4.93L54.06-57.54C54.06-63.51 56.43-69.23 60.65-73.45ZM63.36-10.85C66.01-12.31 69.01-13.1 72.1-13.1L98.68-13.1L98.68-70.74L76.56-70.74C73.06-70.74 69.7-69.35 67.23-66.87C64.75-64.4 63.36-61.04 63.36-57.54L63.36-10.85ZM9.43-75.39C9.43-77.96 11.52-80.04 14.08-80.04L40.86-80.04C46.83-80.04 52.55-77.67 56.77-73.45C60.99-69.23 63.36-63.51 63.36-57.54L63.36 4.93C63.36 7.5 61.28 9.58 58.71 9.58C56.14 9.58 54.06 7.5 54.06 4.93C54.06 2.62 53.14 0.39 51.5-1.24C49.86-2.88 47.64-3.8 45.32-3.8L14.08-3.8C11.52-3.8 9.43-5.89 9.43-8.45L9.43-75.39ZM54.06-10.85L54.06-57.54C54.06-61.04 52.67-64.4 50.19-66.87C47.72-69.35 44.36-70.74 40.86-70.74L18.73-70.74L18.73-13.1L45.32-13.1C48.41-13.1 51.41-12.31 54.06-10.85Z"/>
  </g>
  <g id="Medium-M" transform="matrix(1 0 0 1 1688.51 1126)">
   <path d="M60.5-73.1C64.63-77.22 70.22-79.54 76.06-79.54L102.83-79.54C105.13-79.54 106.98-77.68 106.98-75.39L106.98-8.45C106.98-6.16 105.13-4.3 102.83-4.3L71.6-4.3C69.15-4.3 66.8-3.33 65.07-1.6C63.33 0.13 62.36 2.48 62.36 4.93C62.36 7.23 60.5 9.08 58.21 9.08C55.92 9.08 54.06 7.23 54.06 4.93L54.06-57.54C54.06-63.38 56.38-68.97 60.5-73.1ZM62.36-9.97C65.11-11.68 68.31-12.6 71.6-12.6L98.68-12.6L98.68-71.24L76.06-71.24C72.43-71.24 68.94-69.8 66.37-67.23C63.8-64.66 62.36-61.17 62.36-57.54L62.36-9.97ZM9.43-75.39C9.43-77.68 11.29-79.54 13.58-79.54L40.36-79.54C46.19-79.54 51.79-77.22 55.92-73.1C60.04-68.97 62.36-63.38 62.36-57.54L62.36 4.93C62.36 7.23 60.5 9.08 58.21 9.08C55.92 9.08 54.06 7.23 54.06 4.93C54.06 2.48 53.09 0.13 51.35-1.6C49.62-3.33 47.27-4.3 44.82-4.3L13.58-4.3C11.29-4.3 9.43-6.16 9.43-8.45L9.43-75.39ZM54.06-9.97L54.06-57.54C54.06-61.17 52.62-64.66 50.05-67.23C47.48-69.8 43.99-71.24 40.36-71.24L17.73-71.24L17.73-12.6L44.82-12.6C48.11-12.6 51.31-11.68 54.06-9.97Z"/>
  </g>
  <g id="Regular-M" transform="matrix(1 0 0 1 1392.45 1126)">
   <path d="M60.3-72.64C64.31-76.64 69.74-78.89 75.4-78.89L102.17-78.89C104.11-78.89 105.67-77.32 105.67-75.39L105.67-8.45C105.67-6.52 104.11-4.95 102.17-4.95L70.94-4.95C68.32-4.95 65.8-3.91 63.95-2.06C62.09-0.2 61.05 2.31 61.05 4.93C61.05 6.87 59.48 8.43 57.55 8.43C55.62 8.43 54.05 6.87 54.05 4.93L54.05-57.54C54.05-63.2 56.3-68.63 60.3-72.64ZM61.05-8.76C63.91-10.82 67.37-11.95 70.94-11.95L98.67-11.95L98.67-71.89L75.4-71.89C71.59-71.89 67.94-70.38 65.25-67.69C62.56-65 61.05-61.35 61.05-57.54L61.05-8.76ZM9.43-75.39C9.43-77.32 10.99-78.89 12.93-78.89L39.7-78.89C45.36-78.89 50.79-76.64 54.8-72.64C58.8-68.63 61.05-63.2 61.05-57.54L61.05 4.93C61.05 6.87 59.48 8.43 57.55 8.43C55.62 8.43 54.05 6.87 54.05 4.93C54.05 2.31 53.01-0.2 51.15-2.06C49.3-3.91 46.78-4.95 44.16-4.95L12.93-4.95C10.99-4.95 9.43-6.52 9.43-8.45L9.43-75.39ZM54.05-8.76L54.05-57.54C54.05-61.35 52.54-65 49.85-67.69C47.16-70.38 43.51-71.89 39.7-71.89L16.43-71.89L16.43-11.95L44.16-11.95C47.73-11.95 51.19-10.82 54.05-8.76Z"/>
  </g>
  <g id="Light-M" transform="matrix(1 0 0 1 1096.53 1126)">
   <path d="M60.08-72.07C63.93-75.93 69.16-78.09 74.61-78.09L101.38-78.09C102.88-78.09 104.08-76.88 104.08-75.39L104.08-8.45C104.08-6.96 102.88-5.75 101.38-5.75L70.15-5.75C67.31-5.75 64.59-4.63 62.59-2.62C60.59-0.62 59.46 2.1 59.46 4.93C59.46 6.42 58.25 7.63 56.76 7.63C55.27 7.63 54.06 6.42 54.06 4.93L54.06-57.54C54.06-62.99 56.22-68.22 60.08-72.07ZM59.46-7.09C62.4-9.7 66.2-11.15 70.15-11.15L98.68-11.15L98.68-72.69L74.61-72.69C70.59-72.69 66.74-71.1 63.9-68.25C61.06-65.41 59.46-61.56 59.46-57.54L59.46-7.09ZM9.43-75.39C9.43-76.88 10.64-78.09 12.13-78.09L38.91-78.09C44.36-78.09 49.59-75.93 53.44-72.07C57.29-68.22 59.46-62.99 59.46-57.54L59.46 4.93C59.46 6.42 58.25 7.63 56.76 7.63C55.27 7.63 54.06 6.42 54.06 4.93C54.06 2.1 52.93-0.62 50.93-2.62C48.93-4.63 46.21-5.75 43.37-5.75L12.13-5.75C10.64-5.75 9.43-6.96 9.43-8.45L9.43-75.39ZM54.06-7.09L54.06-57.54C54.06-61.56 52.46-65.41 49.62-68.25C46.78-71.1 42.93-72.69 38.91-72.69L14.83-72.69L14.83-11.15L43.37-11.15C47.32-11.15 51.12-9.7 54.06-7.09Z"/>
  </g>
  <g id="Thin-M" transform="matrix(1 0 0 1 800.872 1126)">
   <path d="M59.766-71.33C63.423-74.99 68.383-77.04 73.555-77.04L100.33-77.04C101.241-77.04 101.98-76.3 101.98-75.39L101.98-8.45C101.98-7.54 101.241-6.8 100.33-6.8L69.092-6.8C65.979-6.8 62.994-5.57 60.792-3.37C58.591-1.16 57.355 1.82 57.355 4.93C57.355 5.85 56.616 6.58 55.705 6.58C54.793 6.58 54.055 5.85 54.055 4.93L54.055-57.54C54.055-62.71 56.109-67.67 59.766-71.33ZM57.355-4.47C57.698-4.89 58.067-5.31 58.459-5.7C61.279-8.52 65.104-10.1 69.092-10.1L98.68-10.1L98.68-73.74L73.555-73.74C69.258-73.74 65.138-72.03 62.099-69C59.061-65.96 57.355-61.84 57.355-57.54L57.355-4.47ZM9.43-75.39C9.43-76.3 10.168-77.04 11.08-77.04L37.855-77.04C43.026-77.04 47.986-74.99 51.643-71.33C55.3-67.67 57.355-62.71 57.355-57.54L57.355 4.93C57.355 5.85 56.616 6.58 55.705 6.58C54.793 6.58 54.055 5.85 54.055 4.93C54.055 1.82 52.818-1.16 50.617-3.37C48.416-5.57 45.43-6.8 42.317-6.8L11.08-6.8C10.168-6.8 9.43-7.54 9.43-8.45L9.43-75.39ZM54.055-4.47L54.055-57.54C54.055-61.84 52.348-65.96 49.31-69C46.272-72.03 42.151-73.74 37.855-73.74L12.73-73.74L12.73-10.1L42.317-10.1C46.305-10.1 50.13-8.52 52.95-5.7C53.343-5.31 53.711-4.89 54.055-4.47Z"/>
  </g>
  <g id="Ultralight-M" transform="matrix(1 0 0 1 504.711 1126)">
   <path d="M59.606-70.94C63.16-74.49 67.98-76.49 73.005-76.49L99.78-76.49C100.388-76.49 100.88-76 100.88-75.39L100.88-8.45C100.88-7.85 100.388-7.35 99.78-7.35L68.543-7.35C65.284-7.35 62.159-6.06 59.854-3.75C57.55-1.45 56.255 1.68 56.255 4.93C56.255 5.54 55.763 6.03 55.155 6.03C54.548 6.03 54.055 5.54 54.055 4.93L54.055-57.54C54.055-62.57 56.052-67.39 59.606-70.94ZM56.255-2.74C56.832-3.66 57.516-4.53 58.299-5.31C61.016-8.03 64.701-9.55 68.543-9.55L98.68-9.55L98.68-74.29L73.005-74.29C68.563-74.29 64.303-72.53 61.161-69.38C58.02-66.24 56.255-61.98 56.255-57.54L56.255-2.74ZM9.43-75.39C9.43-76 9.923-76.49 10.53-76.49L37.305-76.49C42.331-76.49 47.151-74.49 50.705-70.94C54.259-67.39 56.255-62.57 56.255-57.54L56.255 4.93C56.255 5.54 55.763 6.03 55.155 6.03C54.548 6.03 54.055 5.54 54.055 4.93C54.055 1.68 52.761-1.45 50.456-3.75C48.152-6.06 45.027-7.35 41.768-7.35L10.53-7.35C9.923-7.35 9.43-7.85 9.43-8.45L9.43-75.39ZM54.055-2.74L54.055-57.54C54.055-61.98 52.291-66.24 49.149-69.38C46.008-72.53 41.748-74.29 37.305-74.29L11.63-74.29L11.63-9.55L41.768-9.55C45.61-9.55 49.295-8.03 52.012-5.31C52.795-4.53 53.478-3.66 54.055-2.74Z"/>
  </g>
  <g id="Black-S" transform="matrix(1 0 0 1 2882.03 696)">
   <path d="M50.61-67.752C54.57-71.709 59.93-73.932 65.53-73.932L86.53-73.932C90.45-73.932 93.63-70.753 93.63-66.832L93.63-14.332C93.63-10.41 90.45-7.232 86.53-7.232L62.03-7.232C61.13-7.232 60.26-6.873 59.63-6.236C58.99-5.598 58.63-4.733 58.63-3.832C58.63 0.09 55.45 3.268 51.53 3.268C47.61 3.268 44.43 0.09 44.43-3.832L44.43-52.832C44.43-58.428 46.65-63.795 50.61-67.752ZM58.63-21.1C59.74-21.319 60.88-21.432 62.03-21.432L79.43-21.432L79.43-59.732L65.53-59.732C63.7-59.732 61.95-59.005 60.65-57.711C59.36-56.417 58.63-54.662 58.63-52.832L58.63-21.1ZM9.43-66.832C9.43-70.753 12.61-73.932 16.53-73.932L37.53-73.932C43.13-73.932 48.49-71.709 52.45-67.752C56.41-63.795 58.63-58.428 58.63-52.832L58.63-3.832C58.63 0.09 55.45 3.268 51.53 3.268C47.61 3.268 44.43 0.09 44.43-3.832C44.43-4.733 44.07-5.598 43.43-6.236C42.8-6.873 41.93-7.232 41.03-7.232L16.53-7.232C12.61-7.232 9.43-10.41 9.43-14.332L9.43-66.832ZM44.43-21.1L44.43-52.832C44.43-54.662 43.7-56.417 42.41-57.711C41.12-59.005 39.36-59.732 37.53-59.732L23.63-59.732L23.63-21.432L41.03-21.432C42.18-21.432 43.32-21.319 44.43-21.1Z"/>
  </g>
  <g id="Heavy-S" transform="matrix(1 0 0 1 2586.16 696)">
   <path d="M50.36-67.151C54.16-70.949 59.31-73.082 64.68-73.082L85.68-73.082C89.13-73.082 91.93-70.284 91.93-66.832L91.93-14.332C91.93-10.88 89.13-8.082 85.68-8.082L61.18-8.082C60.05-8.082 58.97-7.634 58.18-6.837C57.38-6.04 56.93-4.959 56.93-3.832C56.93-0.38 54.13 2.418 50.68 2.418C47.23 2.418 44.43-0.38 44.43-3.832L44.43-52.832C44.43-58.203 46.56-63.353 50.36-67.151ZM56.93-20.034C58.31-20.395 59.73-20.582 61.18-20.582L79.43-20.582L79.43-60.582L64.68-60.582C62.63-60.582 60.65-59.766 59.2-58.312C57.75-56.859 56.93-54.887 56.93-52.832L56.93-20.034ZM9.43-66.832C9.43-70.284 12.23-73.082 15.68-73.082L36.68-73.082C42.05-73.082 47.2-70.949 51-67.151C54.8-63.353 56.93-58.203 56.93-52.832L56.93-3.832C56.93-0.38 54.13 2.418 50.68 2.418C47.23 2.418 44.43-0.38 44.43-3.832C44.43-4.959 43.98-6.04 43.19-6.837C42.39-7.634 41.31-8.082 40.18-8.082L15.68-8.082C12.23-8.082 9.43-10.88 9.43-14.332L9.43-66.832ZM44.43-20.034L44.43-52.832C44.43-54.887 43.61-56.859 42.16-58.312C40.71-59.766 38.74-60.582 36.68-60.582L21.93-60.582L21.93-20.582L40.18-20.582C41.63-20.582 43.06-20.395 44.43-20.034Z"/>
  </g>
  <g id="Bold-S" transform="matrix(1 0 0 1 2290.4 696)">
   <path d="M50.09-66.275C53.71-69.894 58.62-71.928 63.73-71.928L84.73-71.928C87.66-71.928 90.03-69.555 90.03-66.628L90.03-14.128C90.03-11.201 87.66-8.828 84.73-8.828L60.23-8.828C58.85-8.828 57.53-8.28 56.56-7.305C55.58-6.33 55.03-5.007 55.03-3.628C55.03-0.701 52.66 1.672 49.73 1.672C46.81 1.672 44.43-0.701 44.43-3.628L44.43-52.628C44.43-57.746 46.47-62.655 50.09-66.275ZM55.03-18.548C56.69-19.125 58.45-19.428 60.23-19.428L79.43-19.428L79.43-61.328L63.73-61.328C61.43-61.328 59.21-60.411 57.58-58.78C55.95-57.148 55.03-54.935 55.03-52.628L55.03-18.548ZM9.43-66.628C9.43-69.555 11.81-71.928 14.73-71.928L35.73-71.928C40.85-71.928 45.76-69.894 49.38-66.275C53-62.655 55.03-57.746 55.03-52.628L55.03-3.628C55.03-0.701 52.66 1.672 49.73 1.672C46.81 1.672 44.43-0.701 44.43-3.628C44.43-5.007 43.89-6.33 42.91-7.305C41.94-8.28 40.61-8.828 39.23-8.828L14.73-8.828C11.81-8.828 9.43-11.201 9.43-14.128L9.43-66.628ZM44.43-18.548L44.43-52.628C44.43-54.935 43.52-57.148 41.89-58.78C40.25-60.411 38.04-61.328 35.73-61.328L20.03-61.328L20.03-19.428L39.23-19.428C41.02-19.428 42.78-19.125 44.43-18.548Z"/>
  </g>
  <g id="Semibold-S" transform="matrix(1 0 0 1 1994.34 696)">
   <path d="M49.89-65.815C53.39-69.312 58.13-71.277 63.08-71.277L84.08-71.277C86.65-71.277 88.73-69.195 88.73-66.627L88.73-14.127C88.73-11.559 86.65-9.477 84.08-9.477L59.58-9.477C58.03-9.477 56.54-8.861 55.44-7.764C54.35-6.667 53.73-5.179 53.73-3.627C53.73-1.059 51.65 1.023 49.08 1.023C46.51 1.023 44.43-1.059 44.43-3.627L44.43-52.627C44.43-57.574 46.39-62.317 49.89-65.815ZM53.73-17.602C55.56-18.371 57.55-18.777 59.58-18.777L79.43-18.777L79.43-61.977L63.08-61.977C60.6-61.977 58.22-60.992 56.47-59.239C54.71-57.485 53.73-55.107 53.73-52.627L53.73-17.602ZM9.43-66.627C9.43-69.195 11.51-71.277 14.08-71.277L35.08-71.277C40.03-71.277 44.77-69.312 48.27-65.815C51.76-62.317 53.73-57.574 53.73-52.627L53.73-3.627C53.73-1.059 51.65 1.023 49.08 1.023C46.51 1.023 44.43-1.059 44.43-3.627C44.43-5.179 43.81-6.667 42.72-7.764C41.62-8.861 40.13-9.477 38.58-9.477L14.08-9.477C11.51-9.477 9.43-11.559 9.43-14.127L9.43-66.627ZM44.43-17.602L44.43-52.627C44.43-55.107 43.44-57.485 41.69-59.239C39.94-60.992 37.56-61.977 35.08-61.977L18.73-61.977L18.73-18.777L38.58-18.777C40.61-18.777 42.59-18.371 44.43-17.602Z"/>
  </g>
  <g id="Medium-S" transform="matrix(1 0 0 1 1698.13 696)">
   <path d="M49.75-65.461C53.15-68.865 57.77-70.777 62.58-70.777L83.58-70.777C85.87-70.777 87.73-68.919 87.73-66.627L87.73-14.127C87.73-11.835 85.87-9.977 83.58-9.977L59.08-9.977C57.4-9.977 55.78-9.308 54.59-8.117C53.4-6.927 52.73-5.311 52.73-3.627C52.73-1.335 50.87 0.523 48.58 0.523C46.29 0.523 44.43-1.335 44.43-3.627L44.43-52.627C44.43-57.441 46.34-62.058 49.75-65.461ZM52.73-16.83C54.69-17.774 56.86-18.277 59.08-18.277L79.43-18.277L79.43-62.477L62.58-62.477C59.97-62.477 57.46-61.44 55.61-59.592C53.77-57.745 52.73-55.24 52.73-52.627L52.73-16.83ZM9.43-66.627C9.43-68.919 11.29-70.777 13.58-70.777L34.58-70.777C39.39-70.777 44.01-68.865 47.41-65.461C50.82-62.058 52.73-57.441 52.73-52.627L52.73-3.627C52.73-1.335 50.87 0.523 48.58 0.523C46.29 0.523 44.43-1.335 44.43-3.627C44.43-5.311 43.76-6.927 42.57-8.117C41.38-9.308 39.76-9.977 38.08-9.977L13.58-9.977C11.29-9.977 9.43-11.835 9.43-14.127L9.43-66.627ZM44.43-16.83L44.43-52.627C44.43-55.24 43.39-57.745 41.54-59.592C39.7-61.44 37.19-62.477 34.58-62.477L17.73-62.477L17.73-18.277L38.08-18.277C40.3-18.277 42.47-17.774 44.43-16.83Z"/>
  </g>
  <g id="Regular-S" transform="matrix(1 0 0 1 1402.07 696)">
   <path d="M49.56-65.001C52.84-68.283 57.29-70.127 61.93-70.127L82.93-70.127C84.86-70.127 86.43-68.56 86.43-66.627L86.43-14.127C86.43-12.194 84.86-10.627 82.93-10.627L58.43-10.627C56.57-10.627 54.79-9.889 53.48-8.577C52.17-7.264 51.43-5.483 51.43-3.627C51.43-1.694 49.86-0.127 47.93-0.127C46-0.127 44.43-1.694 44.43-3.627L44.43-52.627C44.43-57.268 46.27-61.719 49.56-65.001ZM51.43-15.751C53.54-16.97 55.95-17.627 58.43-17.627L79.43-17.627L79.43-63.127L61.93-63.127C59.15-63.127 56.47-62.021 54.51-60.052C52.54-58.082 51.43-55.412 51.43-52.627L51.43-15.751ZM9.43-66.627C9.43-68.56 11-70.127 12.93-70.127L33.93-70.127C38.57-70.127 43.02-68.283 46.3-65.001C49.59-61.719 51.43-57.268 51.43-52.627L51.43-3.627C51.43-1.694 49.86-0.127 47.93-0.127C46-0.127 44.43-1.694 44.43-3.627C44.43-5.483 43.69-7.264 42.38-8.577C41.07-9.889 39.29-10.627 37.43-10.627L12.93-10.627C11-10.627 9.43-12.194 9.43-14.127L9.43-66.627ZM44.43-15.751L44.43-52.627C44.43-55.412 43.32-58.082 41.35-60.052C39.39-62.021 36.71-63.127 33.93-63.127L16.43-63.127L16.43-17.627L37.43-17.627C39.91-17.627 42.32-16.97 44.43-15.751Z"/>
  </g>
  <g id="Light-S" transform="matrix(1 0 0 1 1106.16 696)">
   <path d="M49.32-64.435C52.45-67.567 56.7-69.326 61.13-69.326L82.13-69.326C83.62-69.326 84.83-68.117 84.83-66.626L84.83-14.126C84.83-12.635 83.62-11.426 82.13-11.426L57.63-11.426C55.56-11.426 53.58-10.604 52.11-9.142C50.65-7.679 49.83-5.695 49.83-3.626C49.83-2.135 48.62-0.926 47.13-0.926C45.64-0.926 44.43-2.135 44.43-3.626L44.43-52.626C44.43-57.055 46.19-61.303 49.32-64.435ZM49.83-14.275C52.08-15.922 54.81-16.826 57.63-16.826L79.43-16.826L79.43-63.926L61.13-63.926C58.13-63.926 55.26-62.736 53.14-60.616C51.02-58.497 49.83-55.623 49.83-52.626L49.83-14.275ZM9.43-66.626C9.43-68.117 10.64-69.326 12.13-69.326L33.13-69.326C37.56-69.326 41.81-67.567 44.94-64.435C48.07-61.303 49.83-57.055 49.83-52.626L49.83-3.626C49.83-2.135 48.62-0.926 47.13-0.926C45.64-0.926 44.43-2.135 44.43-3.626C44.43-5.695 43.61-7.679 42.15-9.142C40.68-10.604 38.7-11.426 36.63-11.426L12.13-11.426C10.64-11.426 9.43-12.635 9.43-14.126L9.43-66.626ZM44.43-14.275L44.43-52.626C44.43-55.623 43.24-58.497 41.12-60.616C39-62.736 36.13-63.926 33.13-63.926L14.83-63.926L14.83-16.826L36.63-16.826C39.45-16.826 42.18-15.922 44.43-14.275Z"/>
  </g>
  <g id="Thin-S" transform="matrix(1 0 0 1 810.497 696)">
   <path d="M49.013-63.694C51.948-66.629 55.929-68.277 60.08-68.277L81.08-68.277C81.991-68.277 82.73-67.539 82.73-66.627L82.73-14.127C82.73-13.216 81.991-12.477 81.08-12.477L56.58-12.477C54.232-12.477 51.981-11.545 50.322-9.885C48.662-8.226 47.73-5.975 47.73-3.627C47.73-2.716 46.991-1.977 46.08-1.977C45.168-1.977 44.43-2.716 44.43-3.627L44.43-52.627C44.43-56.778 46.078-60.759 49.013-63.694ZM47.73-11.952C47.814-12.042 47.901-12.131 47.988-12.219C50.267-14.497 53.357-15.777 56.58-15.777L79.43-15.777L79.43-64.977L60.08-64.977C56.804-64.977 53.663-63.676 51.347-61.36C49.031-59.044 47.73-55.903 47.73-52.627L47.73-11.952ZM9.43-66.627C9.43-67.539 10.168-68.277 11.08-68.277L32.08-68.277C36.23-68.277 40.211-66.629 43.146-63.694C46.081-60.759 47.73-56.778 47.73-52.627L47.73-3.627C47.73-2.716 46.991-1.977 46.08-1.977C45.168-1.977 44.43-2.716 44.43-3.627C44.43-5.975 43.497-8.226 41.838-9.885C40.178-11.545 37.927-12.477 35.58-12.477L11.08-12.477C10.168-12.477 9.43-13.216 9.43-14.127L9.43-66.627ZM44.43-11.952L44.43-52.627C44.43-55.903 43.128-59.044 40.812-61.36C38.496-63.676 35.355-64.977 32.08-64.977L12.73-64.977L12.73-15.777L35.58-15.777C38.802-15.777 41.892-14.497 44.171-12.219C44.259-12.131 44.345-12.042 44.43-11.952Z"/>
  </g>
  <g id="Ultralight-S" transform="matrix(1 0 0 1 514.336 696)">
   <path d="M48.853-63.304C51.685-66.136 55.526-67.727 59.53-67.727L80.53-67.727C81.138-67.727 81.63-67.234 81.63-66.627L81.63-14.127C81.63-13.519 81.138-13.027 80.53-13.027L56.03-13.027C53.537-13.027 51.146-12.036 49.384-10.273C47.621-8.511 46.63-6.12 46.63-3.627C46.63-3.019 46.138-2.527 45.53-2.527C44.923-2.527 44.43-3.019 44.43-3.627L44.43-52.627C44.43-56.631 46.021-60.472 48.853-63.304ZM46.63-10.424C46.989-10.92 47.389-11.39 47.828-11.829C50.003-14.004 52.954-15.227 56.03-15.227L79.43-15.227L79.43-65.527L59.53-65.527C56.109-65.527 52.828-64.167 50.409-61.748C47.989-59.329 46.63-56.048 46.63-52.627L46.63-10.424ZM9.43-66.627C9.43-67.234 9.923-67.727 10.53-67.727L31.53-67.727C35.535-67.727 39.376-66.136 42.208-63.304C45.04-60.472 46.63-56.631 46.63-52.627L46.63-3.627C46.63-3.019 46.138-2.527 45.53-2.527C44.923-2.527 44.43-3.019 44.43-3.627C44.43-6.12 43.44-8.511 41.677-10.273C39.914-12.036 37.523-13.027 35.03-13.027L10.53-13.027C9.923-13.027 9.43-13.519 9.43-14.127L9.43-66.627ZM44.43-10.424L44.43-52.627C44.43-56.048 43.071-59.329 40.652-61.748C38.233-64.167 34.952-65.527 31.53-65.527L11.63-65.527L11.63-15.227L35.03-15.227C38.107-15.227 41.057-14.004 43.233-11.829C43.672-11.39 44.071-10.92 44.43-10.424Z"/>
  </g>
 </g>
</svg>
