<?xml version="1.0" encoding="UTF-8"?>
<!--Generator: Apple Native CoreSVG 175-->
<!DOCTYPE svg
PUBLIC "-//W3C//DTD SVG 1.1//EN"
       "http://www.w3.org/Graphics/SVG/1.1/DTD/svg11.dtd">
<svg version="1.1" xmlns="http://www.w3.org/2000/svg" xmlns:xlink="http://www.w3.org/1999/xlink" width="3300" height="2200">
 <!--glyph: "", point size: 100.0, font version: "17.0d12e1", template writer version: "65.1"-->
 <g id="Notes">
  <rect height="2200" id="artboard" style="fill:white;opacity:1" width="3300" x="0" y="0"/>
  <line style="fill:none;stroke:black;opacity:1;stroke-width:0.5;" x1="263" x2="3036" y1="292" y2="292"/>
  <text style="stroke:none;fill:black;font-family:sans-serif;font-size:13;font-weight:bold;" transform="matrix(1 0 0 1 263 322)">Weight/Scale Variations</text>
  <text style="stroke:none;fill:black;font-family:sans-serif;font-size:13;text-anchor:middle;" transform="matrix(1 0 0 1 559.711 322)">Ultralight</text>
  <text style="stroke:none;fill:black;font-family:sans-serif;font-size:13;text-anchor:middle;" transform="matrix(1 0 0 1 856.422 322)">Thin</text>
  <text style="stroke:none;fill:black;font-family:sans-serif;font-size:13;text-anchor:middle;" transform="matrix(1 0 0 1 1153.13 322)">Light</text>
  <text style="stroke:none;fill:black;font-family:sans-serif;font-size:13;text-anchor:middle;" transform="matrix(1 0 0 1 1449.84 322)">Regular</text>
  <text style="stroke:none;fill:black;font-family:sans-serif;font-size:13;text-anchor:middle;" transform="matrix(1 0 0 1 1746.56 322)">Medium</text>
  <text style="stroke:none;fill:black;font-family:sans-serif;font-size:13;text-anchor:middle;" transform="matrix(1 0 0 1 2043.27 322)">Semibold</text>
  <text style="stroke:none;fill:black;font-family:sans-serif;font-size:13;text-anchor:middle;" transform="matrix(1 0 0 1 2339.98 322)">Bold</text>
  <text style="stroke:none;fill:black;font-family:sans-serif;font-size:13;text-anchor:middle;" transform="matrix(1 0 0 1 2636.69 322)">Heavy</text>
  <text style="stroke:none;fill:black;font-family:sans-serif;font-size:13;text-anchor:middle;" transform="matrix(1 0 0 1 2933.4 322)">Black</text>
  <line style="fill:none;stroke:black;opacity:1;stroke-width:0.5;" x1="263" x2="3036" y1="1903" y2="1903"/>
  <g transform="matrix(1 0 0 1 263 1933)">
   <path d="M9.24805 0.830078Q10.8691 0.830078 12.2949 0.214844Q13.7207-0.400391 14.8096-1.49414Q15.8984-2.58789 16.5186-4.01367Q17.1387-5.43945 17.1387-7.05078Q17.1387-8.66211 16.5186-10.0879Q15.8984-11.5137 14.8047-12.6074Q13.7109-13.7012 12.2852-14.3164Q10.8594-14.9316 9.23828-14.9316Q7.62695-14.9316 6.20117-14.3164Q4.77539-13.7012 3.69141-12.6074Q2.60742-11.5137 1.9873-10.0879Q1.36719-8.66211 1.36719-7.05078Q1.36719-5.43945 1.9873-4.01367Q2.60742-2.58789 3.69629-1.49414Q4.78516-0.400391 6.21094 0.214844Q7.63672 0.830078 9.24805 0.830078ZM9.24805-0.654297Q7.91992-0.654297 6.7627-1.14746Q5.60547-1.64062 4.73145-2.51953Q3.85742-3.39844 3.36426-4.56055Q2.87109-5.72266 2.87109-7.05078Q2.87109-8.37891 3.35938-9.54102Q3.84766-10.7031 4.72168-11.582Q5.5957-12.4609 6.75293-12.9541Q7.91016-13.4473 9.23828-13.4473Q10.5762-13.4473 11.7334-12.9541Q12.8906-12.4609 13.7695-11.582Q14.6484-10.7031 15.1465-9.54102Q15.6445-8.37891 15.6445-7.05078Q15.6445-5.72266 15.1514-4.56055Q14.6582-3.39844 13.7842-2.51953Q12.9102-1.64062 11.748-1.14746Q10.5859-0.654297 9.24805-0.654297ZM5.6543-7.05078Q5.6543-6.72852 5.85938-6.52832Q6.06445-6.32812 6.40625-6.32812L8.51562-6.32812L8.51562-4.20898Q8.51562-3.88672 8.71094-3.67676Q8.90625-3.4668 9.23828-3.4668Q9.56055-3.4668 9.77051-3.67676Q9.98047-3.88672 9.98047-4.20898L9.98047-6.32812L12.0898-6.32812Q12.4219-6.32812 12.627-6.52832Q12.832-6.72852 12.832-7.05078Q12.832-7.38281 12.627-7.58789Q12.4219-7.79297 12.0898-7.79297L9.98047-7.79297L9.98047-9.90234Q9.98047-10.2344 9.77051-10.4443Q9.56055-10.6543 9.23828-10.6543Q8.90625-10.6543 8.71094-10.4443Q8.51562-10.2344 8.51562-9.90234L8.51562-7.79297L6.40625-7.79297Q6.06445-7.79297 5.85938-7.58789Q5.6543-7.38281 5.6543-7.05078Z"/>
  </g>
  <g transform="matrix(1 0 0 1 281.867 1933)">
   <path d="M11.709 2.91016Q13.75 2.91016 15.5518 2.12891Q17.3535 1.34766 18.7305-0.0292969Q20.1074-1.40625 20.8887-3.20801Q21.6699-5.00977 21.6699-7.05078Q21.6699-9.0918 20.8887-10.8936Q20.1074-12.6953 18.7305-14.0723Q17.3535-15.4492 15.5469-16.2305Q13.7402-17.0117 11.6992-17.0117Q9.6582-17.0117 7.85645-16.2305Q6.05469-15.4492 4.68262-14.0723Q3.31055-12.6953 2.5293-10.8936Q1.74805-9.0918 1.74805-7.05078Q1.74805-5.00977 2.5293-3.20801Q3.31055-1.40625 4.6875-0.0292969Q6.06445 1.34766 7.86621 2.12891Q9.66797 2.91016 11.709 2.91016ZM11.709 1.25Q9.98047 1.25 8.47656 0.605469Q6.97266-0.0390625 5.83496-1.17676Q4.69727-2.31445 4.05762-3.81836Q3.41797-5.32227 3.41797-7.05078Q3.41797-8.7793 4.05762-10.2832Q4.69727-11.7871 5.83008-12.9297Q6.96289-14.0723 8.4668-14.7119Q9.9707-15.3516 11.6992-15.3516Q13.4277-15.3516 14.9316-14.7119Q16.4355-14.0723 17.5781-12.9297Q18.7207-11.7871 19.3652-10.2832Q20.0098-8.7793 20.0098-7.05078Q20.0098-5.32227 19.3701-3.81836Q18.7305-2.31445 17.5928-1.17676Q16.4551-0.0390625 14.9463 0.605469Q13.4375 1.25 11.709 1.25ZM7.17773-7.05078Q7.17773-6.69922 7.41211-6.47461Q7.64648-6.25 8.01758-6.25L10.8887-6.25L10.8887-3.36914Q10.8887-2.99805 11.1133-2.76855Q11.3379-2.53906 11.6895-2.53906Q12.0605-2.53906 12.29-2.76855Q12.5195-2.99805 12.5195-3.36914L12.5195-6.25L15.4004-6.25Q15.7715-6.25 16.001-6.47461Q16.2305-6.69922 16.2305-7.05078Q16.2305-7.42188 16.001-7.65137Q15.7715-7.88086 15.4004-7.88086L12.5195-7.88086L12.5195-10.752Q12.5195-11.1328 12.29-11.3623Q12.0605-11.5918 11.6895-11.5918Q11.3379-11.5918 11.1133-11.3574Q10.8887-11.123 10.8887-10.752L10.8887-7.88086L8.01758-7.88086Q7.63672-7.88086 7.40723-7.65137Q7.17773-7.42188 7.17773-7.05078Z"/>
  </g>
  <g transform="matrix(1 0 0 1 305.646 1933)">
   <path d="M14.9707 5.66406Q17.0605 5.66406 18.96 5.01465Q20.8594 4.36523 22.4512 3.19336Q24.043 2.02148 25.2197 0.429688Q26.3965-1.16211 27.0459-3.06641Q27.6953-4.9707 27.6953-7.05078Q27.6953-9.14062 27.0459-11.04Q26.3965-12.9395 25.2197-14.5312Q24.043-16.123 22.4512-17.2998Q20.8594-18.4766 18.9551-19.126Q17.0508-19.7754 14.9609-19.7754Q12.8711-19.7754 10.9717-19.126Q9.07227-18.4766 7.48535-17.2998Q5.89844-16.123 4.72168-14.5312Q3.54492-12.9395 2.90039-11.04Q2.25586-9.14062 2.25586-7.05078Q2.25586-4.9707 2.90527-3.06641Q3.55469-1.16211 4.72656 0.429688Q5.89844 2.02148 7.49023 3.19336Q9.08203 4.36523 10.9814 5.01465Q12.8809 5.66406 14.9707 5.66406ZM14.9707 3.84766Q13.1641 3.84766 11.5283 3.2959Q9.89258 2.74414 8.53516 1.74805Q7.17773 0.751953 6.17676-0.610352Q5.17578-1.97266 4.62891-3.6084Q4.08203-5.24414 4.08203-7.05078Q4.08203-8.86719 4.62891-10.5029Q5.17578-12.1387 6.17188-13.501Q7.16797-14.8633 8.52539-15.8594Q9.88281-16.8555 11.5186-17.4023Q13.1543-17.9492 14.9609-17.9492Q16.7773-17.9492 18.4131-17.4023Q20.0488-16.8555 21.4111-15.8594Q22.7734-14.8633 23.7695-13.501Q24.7656-12.1387 25.3174-10.5029Q25.8691-8.86719 25.8691-7.05078Q25.8789-5.24414 25.332-3.6084Q24.7852-1.97266 23.7842-0.610352Q22.7832 0.751953 21.4209 1.74805Q20.0586 2.74414 18.4229 3.2959Q16.7871 3.84766 14.9707 3.84766ZM9.19922-7.05078Q9.19922-6.66992 9.45801-6.4209Q9.7168-6.17188 10.1172-6.17188L14.0625-6.17188L14.0625-2.2168Q14.0625-1.81641 14.3115-1.55762Q14.5605-1.29883 14.9512-1.29883Q15.3516-1.29883 15.6104-1.55273Q15.8691-1.80664 15.8691-2.2168L15.8691-6.17188L19.8242-6.17188Q20.2246-6.17188 20.4785-6.4209Q20.7324-6.66992 20.7324-7.05078Q20.7324-7.46094 20.4785-7.71484Q20.2246-7.96875 19.8242-7.96875L15.8691-7.96875L15.8691-11.9141Q15.8691-12.3242 15.6104-12.583Q15.3516-12.8418 14.9512-12.8418Q14.5605-12.8418 14.3115-12.583Q14.0625-12.3242 14.0625-11.9141L14.0625-7.96875L10.1172-7.96875Q9.70703-7.96875 9.45312-7.71484Q9.19922-7.46094 9.19922-7.05078Z"/>
  </g>
  <text style="stroke:none;fill:black;font-family:sans-serif;font-size:13;font-weight:bold;" transform="matrix(1 0 0 1 263 1953)">Design Variations</text>
  <text style="stroke:none;fill:black;font-family:sans-serif;font-size:13;" transform="matrix(1 0 0 1 263 1971)">Symbols are supported in up to nine weights and three scales.</text>
  <text style="stroke:none;fill:black;font-family:sans-serif;font-size:13;" transform="matrix(1 0 0 1 263 1989)">For optimal layout with text and other symbols, vertically align</text>
  <text style="stroke:none;fill:black;font-family:sans-serif;font-size:13;" transform="matrix(1 0 0 1 263 2007)">symbols with the adjacent text.</text>
  <line style="fill:none;stroke:#00AEEF;stroke-width:0.5;opacity:1.0;" x1="776" x2="776" y1="1919" y2="1933"/>
  <g transform="matrix(1 0 0 1 776 1933)">
   <path d="M3.31055 0.15625Q3.70117 0.15625 3.91602-0.00976562Q4.13086-0.175781 4.26758-0.585938L5.52734-4.0332L11.2891-4.0332L12.5488-0.585938Q12.6855-0.175781 12.9004-0.00976562Q13.1152 0.15625 13.4961 0.15625Q13.8867 0.15625 14.1162-0.0585938Q14.3457-0.273438 14.3457-0.644531Q14.3457-0.869141 14.2383-1.17188L9.6582-13.3691Q9.48242-13.8184 9.17969-14.043Q8.87695-14.2676 8.4082-14.2676Q7.5-14.2676 7.17773-13.3789L2.59766-1.16211Q2.49023-0.859375 2.49023-0.634766Q2.49023-0.263672 2.70996-0.0537109Q2.92969 0.15625 3.31055 0.15625ZM6.00586-5.51758L8.37891-12.0898L8.42773-12.0898L10.8008-5.51758Z"/>
  </g>
  <line style="fill:none;stroke:#00AEEF;stroke-width:0.5;opacity:1.0;" x1="793.197" x2="793.197" y1="1919" y2="1933"/>
  <text style="stroke:none;fill:black;font-family:sans-serif;font-size:13;font-weight:bold;" transform="matrix(1 0 0 1 776 1953)">Margins</text>
  <text style="stroke:none;fill:black;font-family:sans-serif;font-size:13;" transform="matrix(1 0 0 1 776 1971)">Leading and trailing margins on the left and right side of each symbol</text>
  <text style="stroke:none;fill:black;font-family:sans-serif;font-size:13;" transform="matrix(1 0 0 1 776 1989)">can be adjusted by modifying the x-location of the margin guidelines.</text>
  <text style="stroke:none;fill:black;font-family:sans-serif;font-size:13;" transform="matrix(1 0 0 1 776 2007)">Modifications are automatically applied proportionally to all</text>
  <text style="stroke:none;fill:black;font-family:sans-serif;font-size:13;" transform="matrix(1 0 0 1 776 2025)">scales and weights.</text>
  <g transform="matrix(1 0 0 1 1289 1933)">
   <path d="M2.8418 1.86523L4.54102 3.57422Q5.18555 4.22852 5.90332 4.17969Q6.62109 4.13086 7.31445 3.35938L18.0078-8.42773L17.041-9.4043L6.42578 2.27539Q6.16211 2.57812 5.89355 2.61719Q5.625 2.65625 5.27344 2.30469L4.10156 1.14258Q3.75 0.791016 3.79395 0.522461Q3.83789 0.253906 4.14062-0.0195312L15.6152-10.8203L14.6387-11.7871L3.04688-0.898438Q2.30469-0.214844 2.25098 0.498047Q2.19727 1.21094 2.8418 1.86523ZM9.25781-16.3281Q8.94531-16.0254 8.90625-15.6348Q8.86719-15.2441 9.04297-14.9512Q9.21875-14.6777 9.55566-14.541Q9.89258-14.4043 10.3809-14.5215Q11.4746-14.7754 12.5977-14.7314Q13.7207-14.6875 14.7949-13.9844L14.209-12.5293Q13.9551-11.9043 14.0674-11.4404Q14.1797-10.9766 14.5801-10.5664L16.875-8.25195Q17.2363-7.88086 17.5781-7.82227Q17.9199-7.76367 18.3398-7.8418L19.4043-8.03711L20.0684-7.36328L20.0293-6.80664Q20-6.43555 20.1221-6.12305Q20.2441-5.81055 20.6055-5.44922L21.3672-4.70703Q21.7285-4.3457 22.1533-4.33105Q22.5781-4.31641 22.9297-4.66797L25.8398-7.58789Q26.1914-7.93945 26.1816-8.35449Q26.1719-8.76953 25.8105-9.13086L25.0391-9.89258Q24.6875-10.2539 24.3799-10.3857Q24.0723-10.5176 23.7109-10.4883L23.1348-10.4395L22.4902-11.0742L22.7344-12.1973Q22.832-12.6172 22.6953-12.9834Q22.5586-13.3496 22.1191-13.7891L19.9219-15.9766Q18.6719-17.2168 17.2607-17.8369Q15.8496-18.457 14.4189-18.4814Q12.9883-18.5059 11.665-17.959Q10.3418-17.4121 9.25781-16.3281ZM10.752-15.957Q11.6602-16.6211 12.7002-16.9043Q13.7402-17.1875 14.8047-17.085Q15.8691-16.9824 16.8701-16.5137Q17.8711-16.0449 18.7012-15.2051L21.1328-12.793Q21.3086-12.6172 21.3525-12.4512Q21.3965-12.2852 21.3379-12.0312L21.0156-10.5469L22.5195-9.0625L23.5059-9.12109Q23.6914-9.13086 23.7891-9.09668Q23.8867-9.0625 24.0332-8.91602L24.6094-8.33984L22.168-5.89844L21.5918-6.47461Q21.4453-6.62109 21.4062-6.71875Q21.3672-6.81641 21.377-7.01172L21.4453-7.98828L19.9512-9.47266L18.4277-9.21875Q18.1836-9.16992 18.042-9.2041Q17.9004-9.23828 17.7148-9.41406L15.7129-11.416Q15.5176-11.5918 15.4932-11.7529Q15.4688-11.9141 15.5859-12.1875L16.4648-14.2773Q15.293-15.3711 13.8281-15.791Q12.3633-16.2109 10.8398-15.7617Q10.7227-15.7324 10.6885-15.8057Q10.6543-15.8789 10.752-15.957Z"/>
  </g>
  <text style="stroke:none;fill:black;font-family:sans-serif;font-size:13;font-weight:bold;" transform="matrix(1 0 0 1 1289 1953)">Exporting</text>
  <text style="stroke:none;fill:black;font-family:sans-serif;font-size:13;" transform="matrix(1 0 0 1 1289 1971)">Symbols should be outlined when exporting to ensure the</text>
  <text style="stroke:none;fill:black;font-family:sans-serif;font-size:13;" transform="matrix(1 0 0 1 1289 1989)">design is preserved when submitting to Xcode.</text>
  <text id="template-version" style="stroke:none;fill:black;font-family:sans-serif;font-size:13;text-anchor:end;" transform="matrix(1 0 0 1 3036 1933)">Template v.3.0</text>
  <text style="stroke:none;fill:black;font-family:sans-serif;font-size:13;text-anchor:end;" transform="matrix(1 0 0 1 3036 1951)">Requires Xcode 13 or greater</text>
  <text id="descriptive-name" style="stroke:none;fill:black;font-family:sans-serif;font-size:13;text-anchor:end;" transform="matrix(1 0 0 1 3036 1969)">Generated from chrome</text>
  <text style="stroke:none;fill:black;font-family:sans-serif;font-size:13;text-anchor:end;" transform="matrix(1 0 0 1 3036 1987)">Typeset at 100 points</text>
  <text style="stroke:none;fill:black;font-family:sans-serif;font-size:13;" transform="matrix(1 0 0 1 263 726)">Small</text>
  <text style="stroke:none;fill:black;font-family:sans-serif;font-size:13;" transform="matrix(1 0 0 1 263 1156)">Medium</text>
  <text style="stroke:none;fill:black;font-family:sans-serif;font-size:13;" transform="matrix(1 0 0 1 263 1586)">Large</text>
 </g>
 <g id="Guides">
  <g id="H-reference" style="fill:#27AAE1;stroke:none;" transform="matrix(1 0 0 1 339 696)">
   <path d="M0.976562 0L3.66211 0L29.3457-67.1387L30.0293-67.1387L30.0293-70.459L28.125-70.459ZM11.6699-24.4629L46.9727-24.4629L46.2402-26.709L12.4512-26.709ZM55.127 0L57.7637 0L30.6152-70.459L29.4434-70.459L29.4434-67.1387Z"/>
  </g>
  <line id="Baseline-S" style="fill:none;stroke:#27AAE1;opacity:1;stroke-width:0.5;" x1="263" x2="3036" y1="696" y2="696"/>
  <line id="Capline-S" style="fill:none;stroke:#27AAE1;opacity:1;stroke-width:0.5;" x1="263" x2="3036" y1="625.541" y2="625.541"/>
  <g id="H-reference" style="fill:#27AAE1;stroke:none;" transform="matrix(1 0 0 1 339 1126)">
   <path d="M0.976562 0L3.66211 0L29.3457-67.1387L30.0293-67.1387L30.0293-70.459L28.125-70.459ZM11.6699-24.4629L46.9727-24.4629L46.2402-26.709L12.4512-26.709ZM55.127 0L57.7637 0L30.6152-70.459L29.4434-70.459L29.4434-67.1387Z"/>
  </g>
  <line id="Baseline-M" style="fill:none;stroke:#27AAE1;opacity:1;stroke-width:0.5;" x1="263" x2="3036" y1="1126" y2="1126"/>
  <line id="Capline-M" style="fill:none;stroke:#27AAE1;opacity:1;stroke-width:0.5;" x1="263" x2="3036" y1="1055.54" y2="1055.54"/>
  <g id="H-reference" style="fill:#27AAE1;stroke:none;" transform="matrix(1 0 0 1 339 1556)">
   <path d="M0.976562 0L3.66211 0L29.3457-67.1387L30.0293-67.1387L30.0293-70.459L28.125-70.459ZM11.6699-24.4629L46.9727-24.4629L46.2402-26.709L12.4512-26.709ZM55.127 0L57.7637 0L30.6152-70.459L29.4434-70.459L29.4434-67.1387Z"/>
  </g>
  <line id="Baseline-L" style="fill:none;stroke:#27AAE1;opacity:1;stroke-width:0.5;" x1="263" x2="3036" y1="1556" y2="1556"/>
  <line id="Capline-L" style="fill:none;stroke:#27AAE1;opacity:1;stroke-width:0.5;" x1="263" x2="3036" y1="1485.54" y2="1485.54"/>
  <line id="left-margin-Regular-M" style="fill:none;stroke:#00AEEF;stroke-width:0.5;opacity:1.0;" x1="1392.45" x2="1392.45" y1="1030.78" y2="1150.12"/>
  <line id="right-margin-Regular-M" style="fill:none;stroke:#00AEEF;stroke-width:0.5;opacity:1.0;" x1="1507.24" x2="1507.24" y1="1030.78" y2="1150.12"/>
 </g>
 <g id="Symbols">
  <g id="Black-L" transform="matrix(1 0 0 1 2860.15 1556)">
   <path d="M73.4-85.01C45.91-85.01 23.63-62.72 23.63-35.23C23.63-7.74 45.91 14.54 73.4 14.54C100.89 14.54 123.18-7.74 123.18-35.23C123.18-62.72 100.89-85.01 73.4-85.01ZM9.43-35.23C9.43-70.56 38.07-99.21 73.4-99.21C108.73-99.21 137.38-70.56 137.38-35.23C137.38 0.1 108.73 28.74 73.4 28.74C38.07 28.74 9.43 0.1 9.43-35.23ZM66.3-57.98C66.3-61.9 69.48-65.08 73.4-65.08L125.56-65.08C129.48-65.08 132.66-61.9 132.66-57.98C132.66-54.06 129.48-50.88 125.56-50.88L73.4-50.88C69.48-50.88 66.3-54.06 66.3-57.98ZM73.4-50.88C64.76-50.88 57.75-43.87 57.75-35.23C57.75-26.59 64.76-19.58 73.4-19.58C82.04-19.58 89.05-26.59 89.05-35.23C89.05-43.87 82.04-50.88 73.4-50.88ZM43.55-35.23C43.55-51.72 56.92-65.08 73.4-65.08C89.89-65.08 103.25-51.72 103.25-35.23C103.25-18.74 89.89-5.38 73.4-5.38C56.92-5.38 43.55-18.74 43.55-35.23ZM96.63-30.01C100.02-28.05 101.19-23.7 99.23-20.31L73.18 24.85C71.22 28.25 66.88 29.41 63.48 27.45C60.09 25.49 58.92 21.15 60.88 17.76L86.93-27.4C88.89-30.8 93.23-31.97 96.63-30.01ZM24.06-75.16C27.46-77.12 31.8-75.96 33.76-72.57L59.87-27.41C61.83-24.01 60.67-19.67 57.28-17.71C53.88-15.75 49.54-16.91 47.58-20.3L21.47-65.46C19.51-68.86 20.67-73.2 24.06-75.16Z"/>
  </g>
  <g id="Heavy-L" transform="matrix(1 0 0 1 2564.29 1556)">
   <path d="M72.56-85.86C44.6-85.86 21.93-63.19 21.93-35.23C21.93-7.27 44.6 15.39 72.56 15.39C100.52 15.39 123.18-7.27 123.18-35.23C123.18-63.19 100.52-85.86 72.56-85.86ZM9.43-35.23C9.43-70.09 37.69-98.36 72.56-98.36C107.42-98.36 135.68-70.09 135.68-35.23C135.68-0.37 107.42 27.89 72.56 27.89C37.69 27.89 9.43-0.37 9.43-35.23ZM66.31-57.98C66.31-61.43 69.11-64.23 72.56-64.23L124.71-64.23C128.16-64.23 130.96-61.43 130.96-57.98C130.96-54.53 128.16-51.73 124.71-51.73L72.56-51.73C69.11-51.73 66.31-54.53 66.31-57.98ZM72.56-51.73C63.44-51.73 56.06-44.34 56.06-35.23C56.06-26.12 63.44-18.73 72.56-18.73C81.67-18.73 89.06-26.12 89.06-35.23C89.06-44.34 81.67-51.73 72.56-51.73ZM43.56-35.23C43.56-51.25 56.54-64.23 72.56-64.23C88.57-64.23 101.56-51.25 101.56-35.23C101.56-19.21 88.57-6.23 72.56-6.23C56.54-6.23 43.56-19.21 43.56-35.23ZM95.36-29.27C98.35-27.55 99.37-23.72 97.65-20.73L71.6 24.43C69.88 27.42 66.05 28.44 63.06 26.72C60.07 24.99 59.05 21.17 60.77 18.18L86.82-26.98C88.55-29.97 92.37-30.99 95.36-29.27ZM23.65-74.43C26.63-76.15 30.46-75.13 32.18-72.14L58.29-26.98C60.02-24 59-20.17 56.01-18.44C53.02-16.72 49.2-17.74 47.47-20.73L21.36-65.89C19.63-68.87 20.66-72.7 23.65-74.43Z"/>
  </g>
  <g id="Bold-L" transform="matrix(1 0 0 1 2268.53 1556)">
   <path d="M71.6-86.81C43.12-86.81 20.03-63.72 20.03-35.23C20.03-6.75 43.12 16.34 71.6 16.34C100.09 16.34 123.18-6.75 123.18-35.23C123.18-63.72 100.09-86.81 71.6-86.81ZM9.43-35.23C9.43-69.57 37.27-97.41 71.6-97.41C105.94-97.41 133.78-69.57 133.78-35.23C133.78-0.89 105.94 26.94 71.6 26.94C37.27 26.94 9.43-0.89 9.43-35.23ZM66.3-57.98C66.3-60.91 68.68-63.28 71.6-63.28L123.76-63.28C126.69-63.28 129.06-60.91 129.06-57.98C129.06-55.05 126.69-52.68 123.76-52.68L71.6-52.68C68.68-52.68 66.3-55.05 66.3-57.98ZM71.6-52.68C61.97-52.68 54.15-44.87 54.15-35.23C54.15-25.59 61.97-17.78 71.6-17.78C81.24-17.78 89.05-25.59 89.05-35.23C89.05-44.87 81.24-52.68 71.6-52.68ZM43.55-35.23C43.55-50.72 56.11-63.28 71.6-63.28C87.1-63.28 99.65-50.72 99.65-35.23C99.65-19.74 87.1-7.18 71.6-7.18C56.11-7.18 43.55-19.74 43.55-35.23ZM93.93-28.45C96.47-26.98 97.34-23.74 95.88-21.21L69.83 23.95C68.36 26.49 65.12 27.36 62.59 25.89C60.05 24.43 59.18 21.19 60.64 18.66L86.69-26.5C88.16-29.04 91.4-29.91 93.93-28.45ZM23.17-73.6C25.7-75.07 28.94-74.2 30.41-71.67L56.51-26.51C57.98-23.97 57.11-20.73 54.58-19.27C52.04-17.8 48.8-18.67 47.34-21.2L21.23-66.36C19.77-68.9 20.63-72.14 23.17-73.6Z"/>
  </g>
  <g id="Semibold-L" transform="matrix(1 0 0 1 1972.47 1556)">
   <path d="M70.96-87.46C42.12-87.46 18.73-64.07 18.73-35.23C18.73-6.39 42.12 16.99 70.96 16.99C99.8 16.99 123.18-6.39 123.18-35.23C123.18-64.07 99.8-87.46 70.96-87.46ZM9.43-35.23C9.43-69.21 36.98-96.76 70.96-96.76C104.94-96.76 132.48-69.21 132.48-35.23C132.48-1.25 104.94 26.29 70.96 26.29C36.98 26.29 9.43-1.25 9.43-35.23ZM66.31-57.98C66.31-60.55 68.39-62.63 70.96-62.63L123.11-62.63C125.68-62.63 127.76-60.55 127.76-57.98C127.76-55.41 125.68-53.33 123.11-53.33L70.96-53.33C68.39-53.33 66.31-55.41 66.31-57.98ZM70.96-53.33C60.96-53.33 52.86-45.23 52.86-35.23C52.86-25.23 60.96-17.13 70.96-17.13C80.96-17.13 89.06-25.23 89.06-35.23C89.06-45.23 80.96-53.33 70.96-53.33ZM43.56-35.23C43.56-50.36 55.83-62.63 70.96-62.63C86.09-62.63 98.36-50.36 98.36-35.23C98.36-20.1 86.09-7.83 70.96-7.83C55.83-7.83 43.56-20.1 43.56-35.23ZM92.96-27.88C95.19-26.6 95.95-23.76 94.67-21.53L68.62 23.63C67.33 25.85 64.49 26.61 62.27 25.33C60.04 24.05 59.28 21.2 60.56 18.98L86.61-26.18C87.89-28.4 90.74-29.17 92.96-27.88ZM22.85-73.04C25.07-74.32 27.92-73.56 29.2-71.34L55.31-26.18C56.59-23.96 55.83-21.11 53.61-19.83C51.38-18.54 48.54-19.3 47.26-21.53L21.15-66.69C19.86-68.91 20.62-71.75 22.85-73.04Z"/>
  </g>
  <g id="Medium-L" transform="matrix(1 0 0 1 1676.26 1556)">
   <path d="M70.46-87.96C41.34-87.96 17.73-64.35 17.73-35.23C17.73-6.11 41.34 17.49 70.46 17.49C99.58 17.49 123.18-6.11 123.18-35.23C123.18-64.35 99.58-87.96 70.46-87.96ZM9.43-35.23C9.43-68.93 36.76-96.26 70.46-96.26C104.16-96.26 131.48-68.93 131.48-35.23C131.48-1.53 104.16 25.79 70.46 25.79C36.76 25.79 9.43-1.53 9.43-35.23ZM66.31-57.98C66.31-60.27 68.17-62.13 70.46-62.13L122.61-62.13C124.91-62.13 126.76-60.27 126.76-57.98C126.76-55.69 124.91-53.83 122.61-53.83L70.46-53.83C68.17-53.83 66.31-55.69 66.31-57.98ZM70.46-53.83C60.19-53.83 51.86-45.5 51.86-35.23C51.86-24.96 60.19-16.63 70.46-16.63C80.73-16.63 89.06-24.96 89.06-35.23C89.06-45.5 80.73-53.83 70.46-53.83ZM43.56-35.23C43.56-50.09 55.6-62.13 70.46-62.13C85.32-62.13 97.36-50.09 97.36-35.23C97.36-20.37 85.32-8.33 70.46-8.33C55.6-8.33 43.56-20.37 43.56-35.23ZM92.21-27.45C94.2-26.3 94.88-23.77 93.73-21.78L67.68 23.38C66.54 25.36 64 26.04 62.02 24.9C60.03 23.75 59.35 21.22 60.49 19.23L86.54-25.93C87.69-27.91 90.23-28.6 92.21-27.45ZM22.6-72.61C24.58-73.75 27.12-73.07 28.27-71.09L54.37-25.93C55.52-23.95 54.84-21.41 52.86-20.26C50.87-19.11 48.33-19.79 47.19-21.78L21.08-66.94C19.94-68.92 20.61-71.46 22.6-72.61Z"/>
  </g>
  <g id="Regular-L" transform="matrix(1 0 0 1 1380.19 1556)">
   <path d="M69.81-88.61C40.33-88.61 16.43-64.71 16.43-35.23C16.43-5.75 40.33 18.14 69.81 18.14C99.29 18.14 123.19-5.75 123.19-35.23C123.19-64.71 99.29-88.61 69.81-88.61ZM9.43-35.23C9.43-68.57 36.47-95.61 69.81-95.61C103.15-95.61 130.19-68.57 130.19-35.23C130.19-1.89 103.15 25.14 69.81 25.14C36.47 25.14 9.43-1.89 9.43-35.23ZM66.31-57.98C66.31-59.91 67.88-61.48 69.81-61.48L121.96-61.48C123.9-61.48 125.46-59.91 125.46-57.98C125.46-56.05 123.9-54.48 121.96-54.48L69.81-54.48C67.88-54.48 66.31-56.05 66.31-57.98ZM69.81-54.48C59.18-54.48 50.56-45.86 50.56-35.23C50.56-24.6 59.18-15.98 69.81-15.98C80.44-15.98 89.06-24.6 89.06-35.23C89.06-45.86 80.44-54.48 69.81-54.48ZM43.56-35.23C43.56-49.73 55.31-61.48 69.81-61.48C84.31-61.48 96.06-49.73 96.06-35.23C96.06-20.73 84.31-8.98 69.81-8.98C55.31-8.98 43.56-20.73 43.56-35.23ZM91.24-26.89C92.91-25.92 93.49-23.78 92.52-22.11L66.47 23.05C65.51 24.73 63.37 25.3 61.69 24.34C60.02 23.37 59.44 21.23 60.41 19.56L86.46-25.6C87.42-27.28 89.56-27.85 91.24-26.89ZM22.27-72.05C23.95-73.01 26.09-72.44 27.06-70.77L53.16-25.61C54.13-23.93 53.56-21.79 51.88-20.83C50.21-19.86 48.07-20.43 47.1-22.1L21-67.26C20.03-68.94 20.6-71.08 22.27-72.05Z"/>
  </g>
  <g id="Light-L" transform="matrix(1 0 0 1 1084.28 1556)">
   <path d="M69-89.4C39.08-89.4 14.83-65.15 14.83-35.23C14.83-5.31 39.08 18.95 69 18.95C98.92 18.95 123.18-5.31 123.18-35.23C123.18-65.15 98.92-89.4 69-89.4ZM9.43-35.23C9.43-68.13 36.1-94.8 69-94.8C101.9-94.8 128.58-68.13 128.58-35.23C128.58-2.33 101.9 24.35 69 24.35C36.1 24.35 9.43-2.33 9.43-35.23ZM66.3-57.98C66.3-59.47 67.51-60.68 69-60.68L121.16-60.68C122.65-60.68 123.86-59.47 123.86-57.98C123.86-56.49 122.65-55.28 121.16-55.28L69-55.28C67.51-55.28 66.3-56.49 66.3-57.98ZM69-55.28C57.93-55.28 48.95-46.3 48.95-35.23C48.95-24.16 57.93-15.18 69-15.18C80.07-15.18 89.05-24.16 89.05-35.23C89.05-46.3 80.07-55.28 69-55.28ZM43.55-35.23C43.55-49.29 54.95-60.68 69-60.68C83.06-60.68 94.45-49.29 94.45-35.23C94.45-21.17 83.06-9.78 69-9.78C54.95-9.78 43.55-21.17 43.55-35.23ZM90.03-26.19C91.32-25.45 91.76-23.8 91.02-22.51L64.97 22.65C64.22 23.94 62.57 24.39 61.28 23.64C59.99 22.9 59.55 21.25 60.29 19.95L86.34-25.21C87.09-26.5 88.74-26.94 90.03-26.19ZM21.86-71.35C23.16-72.1 24.81-71.66 25.55-70.37L51.66-25.21C52.41-23.92 51.96-22.26 50.67-21.52C49.38-20.77 47.73-21.21 46.98-22.5L20.88-67.66C20.13-68.95 20.57-70.61 21.86-71.35Z"/>
  </g>
  <g id="Thin-L" transform="matrix(1 0 0 1 788.622 1556)">
   <path d="M67.955-90.46C37.455-90.46 12.73-65.73 12.73-35.23C12.73-4.73 37.455 19.99 67.955 19.99C98.455 19.99 123.18-4.73 123.18-35.23C123.18-65.73 98.455-90.46 67.955-90.46ZM9.43-35.23C9.43-67.55 35.632-93.76 67.955-93.76C100.277-93.76 126.48-67.55 126.48-35.23C126.48-2.91 100.277 23.29 67.955 23.29C35.632 23.29 9.43-2.91 9.43-35.23ZM66.305-57.98C66.305-58.89 67.043-59.63 67.955-59.63L120.109-59.63C121.02-59.63 121.759-58.89 121.759-57.98C121.759-57.07 121.02-56.33 120.109-56.33L67.955-56.33C67.043-56.33 66.305-57.07 66.305-57.98ZM67.955-56.33C56.301-56.33 46.855-46.88 46.855-35.23C46.855-23.58 56.301-14.13 67.955-14.13C79.608-14.13 89.055-23.58 89.055-35.23C89.055-46.88 79.608-56.33 67.955-56.33ZM43.555-35.23C43.555-48.71 54.479-59.63 67.955-59.63C81.43-59.63 92.355-48.71 92.355-35.23C92.355-21.76 81.43-10.83 67.955-10.83C54.479-10.83 43.555-21.76 43.555-35.23ZM88.459-25.28C89.248-24.83 89.519-23.82 89.064-23.03L63.015 22.13C62.56 22.92 61.551 23.19 60.761 22.73C59.972 22.28 59.701 21.27 60.156 20.48L86.205-24.68C86.661-25.47 87.67-25.74 88.459-25.28ZM21.346-70.44C22.135-70.9 23.144-70.63 23.6-69.84L49.706-24.68C50.162-23.89 49.892-22.88 49.103-22.43C48.314-21.97 47.305-22.24 46.849-23.03L20.743-68.19C20.287-68.98 20.557-69.99 21.346-70.44Z"/>
  </g>
  <g id="Ultralight-L" transform="matrix(1 0 0 1 492.461 1556)">
   <path d="M67.405-91.01C36.602-91.01 11.63-66.03 11.63-35.23C11.63-4.43 36.602 20.54 67.405 20.54C98.209 20.54 123.18-4.43 123.18-35.23C123.18-66.03 98.209-91.01 67.405-91.01ZM9.43-35.23C9.43-67.25 35.387-93.21 67.405-93.21C99.424-93.21 125.38-67.25 125.38-35.23C125.38-3.21 99.424 22.74 67.405 22.74C35.387 22.74 9.43-3.21 9.43-35.23ZM66.305-57.98C66.305-58.59 66.798-59.08 67.405-59.08L119.56-59.08C120.167-59.08 120.66-58.59 120.66-57.98C120.66-57.37 120.167-56.88 119.56-56.88L67.405-56.88C66.798-56.88 66.305-57.37 66.305-57.98ZM67.405-56.88C55.448-56.88 45.755-47.19 45.755-35.23C45.755-23.27 55.448-13.58 67.405-13.58C79.362-13.58 89.055-23.27 89.055-35.23C89.055-47.19 79.362-56.88 67.405-56.88ZM43.555-35.23C43.555-48.4 54.233-59.08 67.405-59.08C80.577-59.08 91.255-48.4 91.255-35.23C91.255-22.06 80.577-11.38 67.405-11.38C54.233-11.38 43.555-22.06 43.555-35.23ZM87.633-24.81C88.159-24.5 88.34-23.83 88.036-23.31L61.987 21.85C61.684 22.38 61.011 22.56 60.485 22.26C59.959 21.95 59.778 21.28 60.082 20.75L86.13-24.4C86.434-24.93 87.107-25.11 87.633-24.81ZM21.07-69.97C21.596-70.27 22.269-70.09 22.573-69.57L48.678-24.41C48.982-23.88 48.803-23.21 48.277-22.9C47.751-22.6 47.078-22.78 46.774-23.31L20.668-68.46C20.364-68.99 20.544-69.66 21.07-69.97Z"/>
  </g>
  <g id="Black-M" transform="matrix(1 0 0 1 2872.4 1126)">
   <path d="M61.15-72.76C40.43-72.76 23.63-55.95 23.63-35.23C23.63-14.51 40.43 2.29 61.15 2.29C81.88 2.29 98.68-14.51 98.68-35.23C98.68-55.95 81.88-72.76 61.15-72.76ZM9.43-35.23C9.43-63.8 32.59-86.96 61.15-86.96C89.72-86.96 112.88-63.8 112.88-35.23C112.88-6.66 89.72 16.49 61.15 16.49C32.59 16.49 9.43-6.66 9.43-35.23ZM54.05-53.08C54.05-57 57.23-60.18 61.15-60.18L102.08-60.18C106-60.18 109.18-57 109.18-53.08C109.18-49.16 106-45.98 102.08-45.98L61.15-45.98C57.23-45.98 54.05-49.16 54.05-53.08ZM61.16-45.98C55.22-45.98 50.41-41.17 50.41-35.23C50.41-29.29 55.22-24.48 61.16-24.48C67.09-24.48 71.91-29.29 71.91-35.23C71.91-41.17 67.09-45.98 61.16-45.98ZM36.21-35.23C36.21-49.01 47.38-60.18 61.16-60.18C74.93-60.18 86.11-49.01 86.11-35.23C86.11-21.45 74.93-10.28 61.16-10.28C47.38-10.28 36.21-21.45 36.21-35.23ZM80.14-32.46C83.54-30.5 84.7-26.15 82.74-22.76L62.31 12.67C60.35 16.07 56 17.24 52.61 15.28C49.21 13.32 48.05 8.98 50.01 5.58L70.44-29.85C72.4-33.25 76.75-34.41 80.14-32.46ZM21.68-67.89C25.07-69.85 29.42-68.69 31.38-65.29L51.86-29.86C53.82-26.47 52.66-22.12 49.27-20.16C45.87-18.2 41.53-19.36 39.57-22.75L19.09-58.19C17.12-61.58 18.28-65.92 21.68-67.89Z"/>
  </g>
  <g id="Heavy-M" transform="matrix(1 0 0 1 2576.54 1126)">
   <path d="M60.3-73.61C39.11-73.61 21.93-56.42 21.93-35.23C21.93-14.04 39.11 3.14 60.3 3.14C81.5 3.14 98.68-14.04 98.68-35.23C98.68-56.42 81.5-73.61 60.3-73.61ZM9.43-35.23C9.43-63.33 32.21-86.11 60.3-86.11C88.4-86.11 111.18-63.33 111.18-35.23C111.18-7.13 88.4 15.64 60.3 15.64C32.21 15.64 9.43-7.13 9.43-35.23ZM54.05-53.08C54.05-56.53 56.85-59.33 60.3-59.33L101.22-59.33C104.68-59.33 107.47-56.53 107.47-53.08C107.47-49.63 104.68-46.83 101.22-46.83L60.3-46.83C56.85-46.83 54.05-49.63 54.05-53.08ZM60.3-46.83C53.9-46.83 48.7-41.64 48.7-35.23C48.7-28.82 53.9-23.63 60.3-23.63C66.71-23.63 71.9-28.82 71.9-35.23C71.9-41.64 66.71-46.83 60.3-46.83ZM36.2-35.23C36.2-48.54 46.99-59.33 60.3-59.33C73.61-59.33 84.4-48.54 84.4-35.23C84.4-21.92 73.61-11.13 60.3-11.13C46.99-11.13 36.2-21.92 36.2-35.23ZM78.87-31.72C81.86-29.99 82.88-26.17 81.16-23.18L60.72 12.25C58.99 15.24 55.17 16.27 52.18 14.54C49.19 12.82 48.17 8.99 49.89 6L70.33-29.43C72.05-32.42 75.88-33.44 78.87-31.72ZM21.25-67.15C24.24-68.88 28.06-67.85 29.79-64.87L50.27-29.43C52-26.44 50.98-22.62 47.99-20.89C45-19.17 41.18-20.19 39.45-23.18L18.97-58.61C17.24-61.6 18.26-65.42 21.25-67.15Z"/>
  </g>
  <g id="Bold-M" transform="matrix(1 0 0 1 2280.78 1126)">
   <path d="M59.35-74.55C37.64-74.55 20.03-56.95 20.03-35.23C20.03-13.51 37.64 4.1 59.35 4.1C81.07 4.1 98.68-13.51 98.68-35.23C98.68-56.95 81.07-74.55 59.35-74.55ZM9.43-35.23C9.43-62.8 31.78-85.15 59.35-85.15C86.93-85.15 109.28-62.8 109.28-35.23C109.28-7.66 86.93 14.7 59.35 14.7C31.78 14.7 9.43-7.66 9.43-35.23ZM54.05-53.08C54.05-56.01 56.43-58.38 59.35-58.38L100.27-58.38C103.2-58.38 105.57-56.01 105.57-53.08C105.57-50.15 103.2-47.78 100.27-47.78L59.35-47.78C56.43-47.78 54.05-50.15 54.05-53.08ZM59.35-47.78C52.42-47.78 46.8-42.16 46.8-35.23C46.8-28.3 52.42-22.68 59.35-22.68C66.29-22.68 71.9-28.3 71.9-35.23C71.9-42.16 66.29-47.78 59.35-47.78ZM36.2-35.23C36.2-48.01 46.57-58.38 59.35-58.38C72.14-58.38 82.5-48.01 82.5-35.23C82.5-22.44 72.14-12.08 59.35-12.08C46.57-12.08 36.2-22.44 36.2-35.23ZM77.44-30.89C79.98-29.43 80.85-26.19 79.39-23.65L58.95 11.78C57.49 14.31 54.24 15.18 51.71 13.72C49.17 12.26 48.3 9.02 49.77 6.48L70.2-28.95C71.67-31.49 74.91-32.36 77.44-30.89ZM20.78-66.32C23.31-67.79 26.55-66.92 28.02-64.39L48.5-28.96C49.97-26.42 49.1-23.18 46.57-21.72C44.03-20.25 40.79-21.12 39.33-23.65L18.84-59.08C17.38-61.62 18.24-64.86 20.78-66.32Z"/>
  </g>
  <g id="Semibold-M" transform="matrix(1 0 0 1 1984.72 1126)">
   <path d="M58.71-75.2C36.63-75.2 18.73-57.31 18.73-35.23C18.73-13.15 36.63 4.75 58.71 4.75C80.79 4.75 98.68-13.15 98.68-35.23C98.68-57.31 80.79-75.2 58.71-75.2ZM9.43-35.23C9.43-62.44 31.5-84.5 58.71-84.5C85.92-84.5 107.98-62.44 107.98-35.23C107.98-8.02 85.92 14.05 58.71 14.05C31.5 14.05 9.43-8.02 9.43-35.23ZM54.06-53.08C54.06-55.65 56.14-57.73 58.71-57.73L99.63-57.73C102.2-57.73 104.28-55.65 104.28-53.08C104.28-50.51 102.2-48.43 99.63-48.43L58.71-48.43C56.14-48.43 54.06-50.51 54.06-53.08ZM58.71-48.43C51.42-48.43 45.51-42.52 45.51-35.23C45.51-27.94 51.42-22.03 58.71-22.03C66-22.03 71.91-27.94 71.91-35.23C71.91-42.52 66-48.43 58.71-48.43ZM36.21-35.23C36.21-47.65 46.28-57.73 58.71-57.73C71.14-57.73 81.21-47.65 81.21-35.23C81.21-22.8 71.14-12.73 58.71-12.73C46.28-12.73 36.21-22.8 36.21-35.23ZM76.47-30.33C78.7-29.05 79.46-26.21 78.18-23.98L57.74 11.45C56.46 13.68 53.61 14.44 51.39 13.16C49.16 11.87 48.4 9.03 49.68 6.8L70.12-28.63C71.41-30.85 74.25-31.62 76.47-30.33ZM20.46-65.76C22.68-67.05 25.53-66.29 26.81-64.06L47.3-28.63C48.58-26.41 47.82-23.56 45.6-22.28C43.37-20.99 40.53-21.75 39.24-23.98L18.76-59.41C17.48-61.63 18.24-64.48 20.46-65.76Z"/>
  </g>
  <g id="Medium-M" transform="matrix(1 0 0 1 1688.51 1126)">
   <path d="M58.21-75.7C35.86-75.7 17.73-57.58 17.73-35.23C17.73-12.88 35.86 5.25 58.21 5.25C80.56 5.25 98.68-12.88 98.68-35.23C98.68-57.58 80.56-75.7 58.21-75.7ZM9.43-35.23C9.43-62.17 31.27-84 58.21-84C85.15-84 106.98-62.17 106.98-35.23C106.98-8.29 85.15 13.55 58.21 13.55C31.27 13.55 9.43-8.29 9.43-35.23ZM54.06-53.08C54.06-55.37 55.92-57.23 58.21-57.23L99.13-57.23C101.42-57.23 103.28-55.37 103.28-53.08C103.28-50.79 101.42-48.93 99.13-48.93L58.21-48.93C55.92-48.93 54.06-50.79 54.06-53.08ZM58.21-48.93C50.64-48.93 44.51-42.79 44.51-35.23C44.51-27.66 50.64-21.53 58.21-21.53C65.78-21.53 71.91-27.66 71.91-35.23C71.91-42.79 65.78-48.93 58.21-48.93ZM36.21-35.23C36.21-47.38 46.06-57.23 58.21-57.23C70.36-57.23 80.21-47.38 80.21-35.23C80.21-23.08 70.36-13.23 58.21-13.23C46.06-13.23 36.21-23.08 36.21-35.23ZM75.72-29.9C77.71-28.75 78.39-26.22 77.25-24.23L56.81 11.2C55.66 13.19 53.12 13.87 51.14 12.72C49.15 11.58 48.47 9.04 49.62 7.05L70.06-28.38C71.2-30.36 73.74-31.04 75.72-29.9ZM20.21-65.33C22.19-66.48 24.73-65.8 25.88-63.81L46.36-28.38C47.51-26.4 46.83-23.86 44.85-22.71C42.86-21.56 40.32-22.24 39.18-24.23L18.69-59.66C17.55-61.64 18.23-64.18 20.21-65.33Z"/>
  </g>
  <g id="Regular-M" transform="matrix(1 0 0 1 1392.45 1126)">
   <path d="M57.55-76.35C34.84-76.35 16.43-57.94 16.43-35.23C16.43-12.52 34.84 5.9 57.55 5.9C80.26 5.9 98.67-12.52 98.67-35.23C98.67-57.94 80.26-76.35 57.55-76.35ZM9.43-35.23C9.43-61.81 30.97-83.35 57.55-83.35C84.13-83.35 105.67-61.81 105.67-35.23C105.67-8.65 84.13 12.9 57.55 12.9C30.97 12.9 9.43-8.65 9.43-35.23ZM54.05-53.08C54.05-55.01 55.62-56.58 57.55-56.58L98.47-56.58C100.4-56.58 101.97-55.01 101.97-53.08C101.97-51.15 100.4-49.58 98.47-49.58L57.55-49.58C55.62-49.58 54.05-51.15 54.05-53.08ZM57.55-49.58C49.63-49.58 43.2-43.15 43.2-35.23C43.2-27.3 49.63-20.88 57.55-20.88C65.48-20.88 71.9-27.3 71.9-35.23C71.9-43.15 65.48-49.58 57.55-49.58ZM36.2-35.23C36.2-47.02 45.76-56.58 57.55-56.58C69.34-56.58 78.9-47.02 78.9-35.23C78.9-23.44 69.34-13.88 57.55-13.88C45.76-13.88 36.2-23.44 36.2-35.23ZM74.74-29.34C76.41-28.37 76.99-26.23 76.02-24.56L55.58 10.88C54.62 12.55 52.48 13.13 50.8 12.16C49.13 11.19 48.55 9.05 49.52 7.38L69.96-28.05C70.92-29.73 73.07-30.3 74.74-29.34ZM19.88-64.77C21.55-65.73 23.69-65.16 24.66-63.49L45.14-28.06C46.11-26.38 45.53-24.24 43.86-23.27C42.19-22.31 40.05-22.88 39.08-24.55L18.6-59.98C17.63-61.66 18.2-63.8 19.88-64.77Z"/>
  </g>
  <g id="Light-M" transform="matrix(1 0 0 1 1096.53 1126)">
   <path d="M56.75-77.15C33.6-77.15 14.83-58.38 14.83-35.23C14.83-12.07 33.6 6.7 56.75 6.7C79.91 6.7 98.68-12.07 98.68-35.23C98.68-58.38 79.91-77.15 56.75-77.15ZM9.43-35.23C9.43-61.36 30.61-82.55 56.75-82.55C82.89-82.55 104.08-61.36 104.08-35.23C104.08-9.09 82.89 12.1 56.75 12.1C30.61 12.1 9.43-9.09 9.43-35.23ZM54.05-53.08C54.05-54.57 55.26-55.78 56.75-55.78L97.67-55.78C99.16-55.78 100.37-54.57 100.37-53.08C100.37-51.59 99.16-50.38 97.67-50.38L56.75-50.38C55.26-50.38 54.05-51.59 54.05-53.08ZM56.75-50.38C48.38-50.38 41.6-43.6 41.6-35.23C41.6-26.86 48.38-20.08 56.75-20.08C65.12-20.08 71.9-26.86 71.9-35.23C71.9-43.6 65.12-50.38 56.75-50.38ZM36.2-35.23C36.2-46.58 45.4-55.78 56.75-55.78C68.1-55.78 77.3-46.58 77.3-35.23C77.3-23.88 68.1-14.68 56.75-14.68C45.4-14.68 36.2-23.88 36.2-35.23ZM73.54-28.64C74.83-27.9 75.27-26.25 74.53-24.95L54.09 10.48C53.34 11.77 51.69 12.21 50.4 11.47C49.11 10.72 48.67 9.07 49.41 7.78L69.85-27.65C70.6-28.94 72.25-29.39 73.54-28.64ZM19.48-64.07C20.77-64.82 22.42-64.38 23.16-63.09L43.65-27.65C44.39-26.36 43.95-24.71 42.66-23.97C41.37-23.22 39.72-23.66 38.97-24.95L18.49-60.38C17.74-61.67 18.19-63.33 19.48-64.07Z"/>
  </g>
  <g id="Thin-M" transform="matrix(1 0 0 1 800.872 1126)">
   <path d="M55.705-78.2C31.97-78.2 12.73-58.96 12.73-35.23C12.73-11.49 31.97 7.75 55.705 7.75C79.439 7.75 98.68-11.49 98.68-35.23C98.68-58.96 79.439-78.2 55.705-78.2ZM9.43-35.23C9.43-60.79 30.148-81.5 55.705-81.5C81.262-81.5 101.98-60.79 101.98-35.23C101.98-9.67 81.262 11.05 55.705 11.05C30.148 11.05 9.43-9.67 9.43-35.23ZM54.055-53.08C54.055-53.99 54.793-54.73 55.705-54.73L96.626-54.73C97.537-54.73 98.276-53.99 98.276-53.08C98.276-52.17 97.537-51.43 96.626-51.43L55.705-51.43C54.793-51.43 54.055-52.17 54.055-53.08ZM55.705-51.43C46.758-51.43 39.505-44.18 39.505-35.23C39.505-26.28 46.758-19.03 55.705-19.03C64.652-19.03 71.905-26.28 71.905-35.23C71.905-44.18 64.652-51.43 55.705-51.43ZM36.205-35.23C36.205-46 44.935-54.73 55.705-54.73C66.475-54.73 75.205-46 75.205-35.23C75.205-24.46 66.475-15.73 55.705-15.73C44.935-15.73 36.205-24.46 36.205-35.23ZM71.97-27.73C72.759-27.28 73.03-26.27 72.574-25.48L52.136 9.95C51.681 10.74 50.672 11.01 49.882 10.56C49.093 10.1 48.822 9.09 49.278 8.3L69.716-27.13C70.171-27.92 71.18-28.19 71.97-27.73ZM18.955-63.16C19.744-63.62 20.753-63.35 21.21-62.56L41.692-27.13C42.148-26.34 41.879-25.33 41.09-24.88C40.301-24.42 39.292-24.69 38.835-25.48L18.353-60.91C17.896-61.7 18.166-62.71 18.955-63.16Z"/>
  </g>
  <g id="Ultralight-M" transform="matrix(1 0 0 1 504.711 1126)">
   <path d="M55.155-78.75C31.117-78.75 11.63-59.27 11.63-35.23C11.63-11.19 31.117 8.3 55.155 8.3C79.194 8.3 98.68-11.19 98.68-35.23C98.68-59.27 79.194-78.75 55.155-78.75ZM9.43-35.23C9.43-60.48 29.902-80.95 55.155-80.95C80.409-80.95 100.88-60.48 100.88-35.23C100.88-9.97 80.409 10.5 55.155 10.5C29.902 10.5 9.43-9.97 9.43-35.23ZM54.055-53.08C54.055-53.69 54.548-54.18 55.155-54.18L96.077-54.18C96.684-54.18 97.177-53.69 97.177-53.08C97.177-52.47 96.684-51.98 96.077-51.98L55.155-51.98C54.548-51.98 54.055-52.47 54.055-53.08ZM55.156-51.98C45.905-51.98 38.406-44.48 38.406-35.23C38.406-25.98 45.905-18.48 55.156-18.48C64.407-18.48 71.906-25.98 71.906-35.23C71.906-44.48 64.407-51.98 55.156-51.98ZM36.206-35.23C36.206-45.69 44.69-54.18 55.156-54.18C65.622-54.18 74.106-45.69 74.106-35.23C74.106-24.76 65.622-16.28 55.156-16.28C44.69-16.28 36.206-24.76 36.206-35.23ZM71.145-27.26C71.672-26.95 71.852-26.28 71.549-25.75L51.11 9.68C50.807 10.2 50.134 10.38 49.608 10.08C49.082 9.78 48.901 9.1 49.205 8.58L69.643-26.85C69.946-27.38 70.619-27.56 71.145-27.26ZM18.681-62.69C19.207-62.99 19.88-62.81 20.184-62.29L40.667-26.85C40.971-26.33 40.791-25.66 40.265-25.35C39.739-25.05 39.066-25.23 38.762-25.75L18.279-61.19C17.975-61.71 18.155-62.38 18.681-62.69Z"/>
  </g>
  <g id="Black-S" transform="matrix(1 0 0 1 2882.03 696)">
   <path d="M51.53-63.232C36.12-63.232 23.63-50.74 23.63-35.332C23.63-19.923 36.12-7.432 51.53-7.432C66.94-7.432 79.43-19.923 79.43-35.332C79.43-50.74 66.94-63.232 51.53-63.232ZM9.43-35.332C9.43-58.583 28.28-77.432 51.53-77.432C74.78-77.432 93.63-58.583 93.63-35.332C93.63-12.08 74.78 6.768 51.53 6.768C28.28 6.768 9.43-12.08 9.43-35.332ZM44.43-49.332C44.43-53.253 47.61-56.432 51.53-56.432L83.63-56.432C87.55-56.432 90.73-53.253 90.73-49.332C90.73-45.41 87.55-42.232 83.63-42.232L51.53-42.232C47.61-42.232 44.43-45.41 44.43-49.332ZM51.53-42.232C47.72-42.232 44.63-39.142 44.63-35.332C44.63-31.521 47.72-28.432 51.53-28.432C55.34-28.432 58.43-31.521 58.43-35.332C58.43-39.142 55.34-42.232 51.53-42.232ZM30.43-35.332C30.43-46.985 39.88-56.432 51.53-56.432C63.18-56.432 72.63-46.985 72.63-35.332C72.63-23.678 63.18-14.232 51.53-14.232C39.88-14.232 30.43-23.678 30.43-35.332ZM67.19-34.483C70.58-32.523 71.75-28.181 69.79-24.785L53.76 3.005C51.8 6.402 47.46 7.567 44.06 5.608C40.67 3.648 39.5-0.693 41.46-4.09L57.49-31.88C59.45-35.277 63.79-36.442 67.19-34.483ZM19.8-62.268C23.2-64.231 27.54-63.07 29.5-59.675L45.57-31.885C47.53-28.49 46.37-24.147 42.97-22.185C39.58-20.222 35.24-21.383 33.27-24.778L17.21-52.568C15.25-55.963 16.41-60.306 19.8-62.268Z"/>
  </g>
  <g id="Heavy-S" transform="matrix(1 0 0 1 2586.16 696)">
   <path d="M50.68-64.082C34.8-64.082 21.93-51.21 21.93-35.332C21.93-19.454 34.8-6.582 50.68-6.582C66.56-6.582 79.43-19.454 79.43-35.332C79.43-51.21 66.56-64.082 50.68-64.082ZM9.43-35.332C9.43-58.114 27.9-76.582 50.68-76.582C73.46-76.582 91.93-58.114 91.93-35.332C91.93-12.55 73.46 5.918 50.68 5.918C27.9 5.918 9.43-12.55 9.43-35.332ZM44.43-49.332C44.43-52.784 47.23-55.582 50.68-55.582L82.78-55.582C86.23-55.582 89.03-52.784 89.03-49.332C89.03-45.88 86.23-43.082 82.78-43.082L50.68-43.082C47.23-43.082 44.43-45.88 44.43-49.332ZM50.68-43.082C46.4-43.082 42.93-39.612 42.93-35.332C42.93-31.052 46.4-27.582 50.68-27.582C54.96-27.582 58.43-31.052 58.43-35.332C58.43-39.612 54.96-43.082 50.68-43.082ZM30.43-35.332C30.43-46.516 39.5-55.582 50.68-55.582C61.87-55.582 70.93-46.516 70.93-35.332C70.93-24.148 61.87-15.082 50.68-15.082C39.5-15.082 30.43-24.148 30.43-35.332ZM65.91-33.747C68.9-32.022 69.93-28.2 68.2-25.21L52.17 2.58C50.45 5.57 46.63 6.596 43.64 4.871C40.65 3.146 39.62-0.676 41.35-3.666L57.38-31.456C59.1-34.446 62.92-35.472 65.91-33.747ZM19.38-61.533C22.37-63.26 26.19-62.238 27.92-59.25L43.98-31.46C45.71-28.472 44.69-24.649 41.7-22.921C38.71-21.194 34.89-22.216 33.16-25.204L17.1-52.994C15.37-55.982 16.39-59.805 19.38-61.533Z"/>
  </g>
  <g id="Bold-S" transform="matrix(1 0 0 1 2290.4 696)">
   <path d="M49.73-64.828C33.33-64.828 20.03-51.531 20.03-35.128C20.03-18.725 33.33-5.428 49.73-5.428C66.14-5.428 79.43-18.725 79.43-35.128C79.43-51.531 66.14-64.828 49.73-64.828ZM9.43-35.128C9.43-57.385 27.48-75.428 49.73-75.428C71.99-75.428 90.03-57.385 90.03-35.128C90.03-12.871 71.99 5.172 49.73 5.172C27.48 5.172 9.43-12.871 9.43-35.128ZM44.43-49.128C44.43-52.055 46.81-54.428 49.73-54.428L81.83-54.428C84.76-54.428 87.13-52.055 87.13-49.128C87.13-46.201 84.76-43.828 81.83-43.828L49.73-43.828C46.81-43.828 44.43-46.201 44.43-49.128ZM49.73-43.828C44.93-43.828 41.03-39.933 41.03-35.128C41.03-30.323 44.93-26.428 49.73-26.428C54.54-26.428 58.43-30.323 58.43-35.128C58.43-39.933 54.54-43.828 49.73-43.828ZM30.43-35.128C30.43-45.787 39.07-54.428 49.73-54.428C60.39-54.428 69.03-45.787 69.03-35.128C69.03-24.469 60.39-15.828 49.73-15.828C39.07-15.828 30.43-24.469 30.43-35.128ZM64.49-32.718C67.03-31.255 67.9-28.014 66.44-25.479L50.41 2.311C48.94 4.847 45.7 5.717 43.17 4.254C40.63 2.792 39.76-0.45 41.22-2.985L57.25-30.775C58.72-33.311 61.96-34.18 64.49-32.718ZM18.91-60.506C21.44-61.971 24.68-61.105 26.15-58.57L42.21-30.78C43.68-28.246 42.81-25.004 40.28-23.539C37.74-22.074 34.5-22.941 33.04-25.475L16.97-53.265C15.51-55.799 16.37-59.041 18.91-60.506Z"/>
  </g>
  <g id="Semibold-S" transform="matrix(1 0 0 1 1994.34 696)">
   <path d="M49.08-65.477C32.32-65.477 18.73-51.889 18.73-35.127C18.73-18.366 32.32-4.777 49.08-4.777C65.84-4.777 79.43-18.366 79.43-35.127C79.43-51.889 65.84-65.477 49.08-65.477ZM9.43-35.127C9.43-57.025 27.18-74.777 49.08-74.777C70.98-74.777 88.73-57.025 88.73-35.127C88.73-13.229 70.98 4.523 49.08 4.523C27.18 4.523 9.43-13.229 9.43-35.127ZM44.43-49.127C44.43-51.695 46.51-53.777 49.08-53.777L81.17-53.777C83.74-53.777 85.82-51.695 85.82-49.127C85.82-46.559 83.74-44.477 81.17-44.477L49.08-44.477C46.51-44.477 44.43-46.559 44.43-49.127ZM49.08-44.477C43.92-44.477 39.73-40.291 39.73-35.127C39.73-29.963 43.92-25.777 49.08-25.777C54.24-25.777 58.43-29.963 58.43-35.127C58.43-40.291 54.24-44.477 49.08-44.477ZM30.43-35.127C30.43-45.427 38.78-53.777 49.08-53.777C59.38-53.777 67.73-45.427 67.73-35.127C67.73-24.827 59.38-16.477 49.08-16.477C38.78-16.477 30.43-24.827 30.43-35.127ZM63.51-32.154C65.74-30.871 66.5-28.028 65.22-25.803L49.19 1.987C47.91 4.211 45.06 4.975 42.84 3.691C40.61 2.408 39.85-0.435 41.13-2.66L57.16-30.45C58.45-32.675 61.29-33.438 63.51-32.154ZM18.58-59.943C20.8-61.229 23.65-60.468 24.93-58.245L41-30.455C42.28-28.231 41.52-25.387 39.3-24.102C37.07-22.817 34.23-23.577 32.94-25.8L16.88-53.59C15.59-55.814 16.35-58.658 18.58-59.943Z"/>
  </g>
  <g id="Medium-S" transform="matrix(1 0 0 1 1698.13 696)">
   <path d="M48.58-65.977C31.54-65.977 17.73-52.165 17.73-35.127C17.73-18.089 31.54-4.277 48.58-4.277C65.62-4.277 79.43-18.089 79.43-35.127C79.43-52.165 65.62-65.977 48.58-65.977ZM9.43-35.127C9.43-56.749 26.96-74.277 48.58-74.277C70.2-74.277 87.73-56.749 87.73-35.127C87.73-13.505 70.2 4.023 48.58 4.023C26.96 4.023 9.43-13.505 9.43-35.127ZM44.43-49.127C44.43-51.419 46.29-53.277 48.58-53.277L80.67-53.277C82.97-53.277 84.82-51.419 84.82-49.127C84.82-46.835 82.97-44.977 80.67-44.977L48.58-44.977C46.29-44.977 44.43-46.835 44.43-49.127ZM48.58-44.977C43.14-44.977 38.73-40.567 38.73-35.127C38.73-29.687 43.14-25.277 48.58-25.277C54.02-25.277 58.43-29.687 58.43-35.127C58.43-40.567 54.02-44.977 48.58-44.977ZM30.43-35.127C30.43-45.151 38.56-53.277 48.58-53.277C58.6-53.277 66.73-45.151 66.73-35.127C66.73-25.103 58.6-16.977 48.58-16.977C38.56-16.977 30.43-25.103 30.43-35.127ZM62.76-31.721C64.75-30.576 65.43-28.038 64.29-26.053L48.26 1.737C47.11 3.722 44.57 4.403 42.59 3.258C40.6 2.113 39.92-0.425 41.07-2.41L57.1-30.2C58.24-32.186 60.78-32.867 62.76-31.721ZM18.33-59.511C20.31-60.658 22.85-59.979 24-57.995L40.06-30.205C41.21-28.22 40.53-25.682 38.55-24.535C36.56-23.388 34.02-24.066 32.88-26.051L16.81-53.841C15.66-55.825 16.34-58.363 18.33-59.511Z"/>
  </g>
  <g id="Regular-S" transform="matrix(1 0 0 1 1402.07 696)">
   <path d="M47.93-66.627C30.53-66.627 16.43-52.524 16.43-35.127C16.43-17.73 30.53-3.627 47.93-3.627C65.33-3.627 79.43-17.73 79.43-35.127C79.43-52.524 65.33-66.627 47.93-66.627ZM9.43-35.127C9.43-56.39 26.67-73.627 47.93-73.627C69.19-73.627 86.43-56.39 86.43-35.127C86.43-13.864 69.19 3.373 47.93 3.373C26.67 3.373 9.43-13.864 9.43-35.127ZM44.43-49.127C44.43-51.06 46-52.627 47.93-52.627L80.03-52.627C81.96-52.627 83.53-51.06 83.53-49.127C83.53-47.194 81.96-45.627 80.03-45.627L47.93-45.627C46-45.627 44.43-47.194 44.43-49.127ZM47.93-45.627C42.13-45.627 37.43-40.926 37.43-35.127C37.43-29.328 42.13-24.627 47.93-24.627C53.73-24.627 58.43-29.328 58.43-35.127C58.43-40.926 53.73-45.627 47.93-45.627ZM30.43-35.127C30.43-44.792 38.27-52.627 47.93-52.627C57.59-52.627 65.43-44.792 65.43-35.127C65.43-25.462 57.59-17.627 47.93-17.627C38.27-17.627 30.43-25.462 30.43-35.127ZM61.79-31.158C63.46-30.192 64.04-28.052 63.07-26.378L47.04 1.412C46.08 3.087 43.94 3.661 42.26 2.695C40.59 1.73 40.01-0.411 40.98-2.085L57.01-29.875C57.97-31.55 60.12-32.124 61.79-31.158ZM18-58.948C19.68-59.915 21.82-59.343 22.78-57.669L38.85-29.879C39.82-28.206 39.24-26.065 37.57-25.097C35.9-24.13 33.76-24.702 32.79-26.376L16.72-54.166C15.76-55.839 16.33-57.98 18-58.948Z"/>
  </g>
  <g id="Light-S" transform="matrix(1 0 0 1 1106.16 696)">
   <path d="M47.13-67.426C29.29-67.426 14.83-52.965 14.83-35.126C14.83-17.287 29.29-2.826 47.13-2.826C64.97-2.826 79.43-17.287 79.43-35.126C79.43-52.965 64.97-67.426 47.13-67.426ZM9.43-35.126C9.43-55.947 26.31-72.826 47.13-72.826C67.95-72.826 84.83-55.947 84.83-35.126C84.83-14.305 67.95 2.574 47.13 2.574C26.31 2.574 9.43-14.305 9.43-35.126ZM44.43-49.126C44.43-50.617 45.64-51.826 47.13-51.826L79.23-51.826C80.72-51.826 81.93-50.617 81.93-49.126C81.93-47.635 80.72-46.426 79.23-46.426L47.13-46.426C45.64-46.426 44.43-47.635 44.43-49.126ZM47.13-46.426C40.89-46.426 35.83-41.367 35.83-35.126C35.83-28.885 40.89-23.826 47.13-23.826C53.37-23.826 58.43-28.885 58.43-35.126C58.43-41.367 53.37-46.426 47.13-46.426ZM30.43-35.126C30.43-44.349 37.91-51.826 47.13-51.826C56.35-51.826 63.83-44.349 63.83-35.126C63.83-25.903 56.35-18.426 47.13-18.426C37.91-18.426 30.43-25.903 30.43-35.126ZM60.59-30.466C61.88-29.721 62.32-28.07 61.58-26.779L45.55 1.011C44.8 2.303 43.15 2.746 41.86 2.001C40.57 1.256 40.13-0.395 40.87-1.687L56.9-29.477C57.65-30.768 59.3-31.212 60.59-30.466ZM17.6-58.254C18.9-59.001 20.55-58.559 21.29-57.268L37.36-29.478C38.1-28.187 37.66-26.536 36.37-25.789C35.08-25.043 33.43-25.484 32.68-26.775L16.62-54.565C15.87-55.856 16.31-57.508 17.6-58.254Z"/>
  </g>
  <g id="Thin-S" transform="matrix(1 0 0 1 810.497 696)">
   <path d="M46.08-68.477C27.661-68.477 12.73-53.546 12.73-35.127C12.73-16.709 27.661-1.777 46.08-1.777C64.498-1.777 79.43-16.709 79.43-35.127C79.43-53.546 64.498-68.477 46.08-68.477ZM9.43-35.127C9.43-55.369 25.838-71.777 46.08-71.777C66.321-71.777 82.73-55.369 82.73-35.127C82.73-14.886 66.321 1.523 46.08 1.523C25.838 1.523 9.43-14.886 9.43-35.127ZM44.43-49.127C44.43-50.039 45.168-50.777 46.08-50.777L78.175-50.777C79.086-50.777 79.825-50.039 79.825-49.127C79.825-48.216 79.086-47.477 78.175-47.477L46.08-47.477C45.168-47.477 44.43-48.216 44.43-49.127ZM46.08-47.477C39.259-47.477 33.73-41.948 33.73-35.127C33.73-28.307 39.259-22.777 46.08-22.777C52.9-22.777 58.43-28.307 58.43-35.127C58.43-41.948 52.9-47.477 46.08-47.477ZM30.43-35.127C30.43-43.771 37.436-50.777 46.08-50.777C54.723-50.777 61.73-43.771 61.73-35.127C61.73-26.484 54.723-19.477 46.08-19.477C37.436-19.477 30.43-26.484 30.43-35.127ZM59.014-29.556C59.804-29.101 60.075-28.092 59.619-27.303L43.589 0.487C43.134 1.277 42.125 1.548 41.336 1.092C40.546 0.637 40.275-0.372 40.731-1.162L56.761-28.952C57.216-29.741 58.225-30.012 59.014-29.556ZM17.078-57.345C17.867-57.801 18.877-57.531 19.333-56.742L35.398-28.952C35.854-28.163 35.584-27.154 34.795-26.698C34.006-26.242 32.997-26.511 32.541-27.3L16.476-55.09C16.02-55.879 16.289-56.889 17.078-57.345Z"/>
  </g>
  <g id="Ultralight-S" transform="matrix(1 0 0 1 514.336 696)">
   <path d="M45.53-69.027C26.808-69.027 11.63-53.849 11.63-35.127C11.63-16.404 26.808-1.227 45.53-1.227C64.253-1.227 79.43-16.404 79.43-35.127C79.43-53.849 64.253-69.027 45.53-69.027ZM9.43-35.127C9.43-55.064 25.593-71.227 45.53-71.227C65.468-71.227 81.63-55.064 81.63-35.127C81.63-15.189 65.468 0.973 45.53 0.973C25.593 0.973 9.43-15.189 9.43-35.127ZM44.43-49.127C44.43-49.734 44.923-50.227 45.53-50.227L77.625-50.227C78.233-50.227 78.725-49.734 78.725-49.127C78.725-48.519 78.233-48.027 77.625-48.027L45.53-48.027C44.923-48.027 44.43-48.519 44.43-49.127ZM45.53-48.027C38.406-48.027 32.63-42.251 32.63-35.127C32.63-28.002 38.406-22.227 45.53-22.227C52.655-22.227 58.43-28.002 58.43-35.127C58.43-42.251 52.655-48.027 45.53-48.027ZM30.43-35.127C30.43-43.466 37.191-50.227 45.53-50.227C53.87-50.227 60.63-43.466 60.63-35.127C60.63-26.787 53.87-20.027 45.53-20.027C37.191-20.027 30.43-26.787 30.43-35.127ZM58.19-29.079C58.717-28.776 58.897-28.103 58.593-27.577L42.563 0.213C42.26 0.739 41.587 0.92 41.061 0.616C40.535 0.313 40.354-0.36 40.658-0.886L56.688-28.676C56.991-29.202 57.664-29.383 58.19-29.079ZM16.804-56.87C17.33-57.174 18.003-56.994 18.307-56.468L34.372-28.678C34.676-28.152 34.496-27.479 33.97-27.175C33.444-26.871 32.772-27.051 32.467-27.577L16.402-55.367C16.098-55.893 16.278-56.566 16.804-56.87Z"/>
  </g>
 </g>
</svg>
