<?xml version="1.0" encoding="UTF-8"?>
<!--Generator: Apple Native CoreSVG 175-->
<!DOCTYPE svg
PUBLIC "-//W3C//DTD SVG 1.1//EN"
       "http://www.w3.org/Graphics/SVG/1.1/DTD/svg11.dtd">
<svg version="1.1" xmlns="http://www.w3.org/2000/svg" xmlns:xlink="http://www.w3.org/1999/xlink" width="3300" height="2200">
 <!--glyph: "", point size: 100.0, font version: "17.0d12e1", template writer version: "65.1"-->
 <g id="Notes">
  <rect height="2200" id="artboard" style="fill:white;opacity:1" width="3300" x="0" y="0"/>
  <line style="fill:none;stroke:black;opacity:1;stroke-width:0.5;" x1="263" x2="3036" y1="292" y2="292"/>
  <text style="stroke:none;fill:black;font-family:sans-serif;font-size:13;font-weight:bold;" transform="matrix(1 0 0 1 263 322)">Weight/Scale Variations</text>
  <text style="stroke:none;fill:black;font-family:sans-serif;font-size:13;text-anchor:middle;" transform="matrix(1 0 0 1 559.711 322)">Ultralight</text>
  <text style="stroke:none;fill:black;font-family:sans-serif;font-size:13;text-anchor:middle;" transform="matrix(1 0 0 1 856.422 322)">Thin</text>
  <text style="stroke:none;fill:black;font-family:sans-serif;font-size:13;text-anchor:middle;" transform="matrix(1 0 0 1 1153.13 322)">Light</text>
  <text style="stroke:none;fill:black;font-family:sans-serif;font-size:13;text-anchor:middle;" transform="matrix(1 0 0 1 1449.84 322)">Regular</text>
  <text style="stroke:none;fill:black;font-family:sans-serif;font-size:13;text-anchor:middle;" transform="matrix(1 0 0 1 1746.56 322)">Medium</text>
  <text style="stroke:none;fill:black;font-family:sans-serif;font-size:13;text-anchor:middle;" transform="matrix(1 0 0 1 2043.27 322)">Semibold</text>
  <text style="stroke:none;fill:black;font-family:sans-serif;font-size:13;text-anchor:middle;" transform="matrix(1 0 0 1 2339.98 322)">Bold</text>
  <text style="stroke:none;fill:black;font-family:sans-serif;font-size:13;text-anchor:middle;" transform="matrix(1 0 0 1 2636.69 322)">Heavy</text>
  <text style="stroke:none;fill:black;font-family:sans-serif;font-size:13;text-anchor:middle;" transform="matrix(1 0 0 1 2933.4 322)">Black</text>
  <line style="fill:none;stroke:black;opacity:1;stroke-width:0.5;" x1="263" x2="3036" y1="1903" y2="1903"/>
  <g transform="matrix(1 0 0 1 263 1933)">
   <path d="M9.24805 0.830078Q10.8691 0.830078 12.2949 0.214844Q13.7207-0.400391 14.8096-1.49414Q15.8984-2.58789 16.5186-4.01367Q17.1387-5.43945 17.1387-7.05078Q17.1387-8.66211 16.5186-10.0879Q15.8984-11.5137 14.8047-12.6074Q13.7109-13.7012 12.2852-14.3164Q10.8594-14.9316 9.23828-14.9316Q7.62695-14.9316 6.20117-14.3164Q4.77539-13.7012 3.69141-12.6074Q2.60742-11.5137 1.9873-10.0879Q1.36719-8.66211 1.36719-7.05078Q1.36719-5.43945 1.9873-4.01367Q2.60742-2.58789 3.69629-1.49414Q4.78516-0.400391 6.21094 0.214844Q7.63672 0.830078 9.24805 0.830078ZM9.24805-0.654297Q7.91992-0.654297 6.7627-1.14746Q5.60547-1.64062 4.73145-2.51953Q3.85742-3.39844 3.36426-4.56055Q2.87109-5.72266 2.87109-7.05078Q2.87109-8.37891 3.35938-9.54102Q3.84766-10.7031 4.72168-11.582Q5.5957-12.4609 6.75293-12.9541Q7.91016-13.4473 9.23828-13.4473Q10.5762-13.4473 11.7334-12.9541Q12.8906-12.4609 13.7695-11.582Q14.6484-10.7031 15.1465-9.54102Q15.6445-8.37891 15.6445-7.05078Q15.6445-5.72266 15.1514-4.56055Q14.6582-3.39844 13.7842-2.51953Q12.9102-1.64062 11.748-1.14746Q10.5859-0.654297 9.24805-0.654297ZM5.6543-7.05078Q5.6543-6.72852 5.85938-6.52832Q6.06445-6.32812 6.40625-6.32812L8.51562-6.32812L8.51562-4.20898Q8.51562-3.88672 8.71094-3.67676Q8.90625-3.4668 9.23828-3.4668Q9.56055-3.4668 9.77051-3.67676Q9.98047-3.88672 9.98047-4.20898L9.98047-6.32812L12.0898-6.32812Q12.4219-6.32812 12.627-6.52832Q12.832-6.72852 12.832-7.05078Q12.832-7.38281 12.627-7.58789Q12.4219-7.79297 12.0898-7.79297L9.98047-7.79297L9.98047-9.90234Q9.98047-10.2344 9.77051-10.4443Q9.56055-10.6543 9.23828-10.6543Q8.90625-10.6543 8.71094-10.4443Q8.51562-10.2344 8.51562-9.90234L8.51562-7.79297L6.40625-7.79297Q6.06445-7.79297 5.85938-7.58789Q5.6543-7.38281 5.6543-7.05078Z"/>
  </g>
  <g transform="matrix(1 0 0 1 281.867 1933)">
   <path d="M11.709 2.91016Q13.75 2.91016 15.5518 2.12891Q17.3535 1.34766 18.7305-0.0292969Q20.1074-1.40625 20.8887-3.20801Q21.6699-5.00977 21.6699-7.05078Q21.6699-9.0918 20.8887-10.8936Q20.1074-12.6953 18.7305-14.0723Q17.3535-15.4492 15.5469-16.2305Q13.7402-17.0117 11.6992-17.0117Q9.6582-17.0117 7.85645-16.2305Q6.05469-15.4492 4.68262-14.0723Q3.31055-12.6953 2.5293-10.8936Q1.74805-9.0918 1.74805-7.05078Q1.74805-5.00977 2.5293-3.20801Q3.31055-1.40625 4.6875-0.0292969Q6.06445 1.34766 7.86621 2.12891Q9.66797 2.91016 11.709 2.91016ZM11.709 1.25Q9.98047 1.25 8.47656 0.605469Q6.97266-0.0390625 5.83496-1.17676Q4.69727-2.31445 4.05762-3.81836Q3.41797-5.32227 3.41797-7.05078Q3.41797-8.7793 4.05762-10.2832Q4.69727-11.7871 5.83008-12.9297Q6.96289-14.0723 8.4668-14.7119Q9.9707-15.3516 11.6992-15.3516Q13.4277-15.3516 14.9316-14.7119Q16.4355-14.0723 17.5781-12.9297Q18.7207-11.7871 19.3652-10.2832Q20.0098-8.7793 20.0098-7.05078Q20.0098-5.32227 19.3701-3.81836Q18.7305-2.31445 17.5928-1.17676Q16.4551-0.0390625 14.9463 0.605469Q13.4375 1.25 11.709 1.25ZM7.17773-7.05078Q7.17773-6.69922 7.41211-6.47461Q7.64648-6.25 8.01758-6.25L10.8887-6.25L10.8887-3.36914Q10.8887-2.99805 11.1133-2.76855Q11.3379-2.53906 11.6895-2.53906Q12.0605-2.53906 12.29-2.76855Q12.5195-2.99805 12.5195-3.36914L12.5195-6.25L15.4004-6.25Q15.7715-6.25 16.001-6.47461Q16.2305-6.69922 16.2305-7.05078Q16.2305-7.42188 16.001-7.65137Q15.7715-7.88086 15.4004-7.88086L12.5195-7.88086L12.5195-10.752Q12.5195-11.1328 12.29-11.3623Q12.0605-11.5918 11.6895-11.5918Q11.3379-11.5918 11.1133-11.3574Q10.8887-11.123 10.8887-10.752L10.8887-7.88086L8.01758-7.88086Q7.63672-7.88086 7.40723-7.65137Q7.17773-7.42188 7.17773-7.05078Z"/>
  </g>
  <g transform="matrix(1 0 0 1 305.646 1933)">
   <path d="M14.9707 5.66406Q17.0605 5.66406 18.96 5.01465Q20.8594 4.36523 22.4512 3.19336Q24.043 2.02148 25.2197 0.429688Q26.3965-1.16211 27.0459-3.06641Q27.6953-4.9707 27.6953-7.05078Q27.6953-9.14062 27.0459-11.04Q26.3965-12.9395 25.2197-14.5312Q24.043-16.123 22.4512-17.2998Q20.8594-18.4766 18.9551-19.126Q17.0508-19.7754 14.9609-19.7754Q12.8711-19.7754 10.9717-19.126Q9.07227-18.4766 7.48535-17.2998Q5.89844-16.123 4.72168-14.5312Q3.54492-12.9395 2.90039-11.04Q2.25586-9.14062 2.25586-7.05078Q2.25586-4.9707 2.90527-3.06641Q3.55469-1.16211 4.72656 0.429688Q5.89844 2.02148 7.49023 3.19336Q9.08203 4.36523 10.9814 5.01465Q12.8809 5.66406 14.9707 5.66406ZM14.9707 3.84766Q13.1641 3.84766 11.5283 3.2959Q9.89258 2.74414 8.53516 1.74805Q7.17773 0.751953 6.17676-0.610352Q5.17578-1.97266 4.62891-3.6084Q4.08203-5.24414 4.08203-7.05078Q4.08203-8.86719 4.62891-10.5029Q5.17578-12.1387 6.17188-13.501Q7.16797-14.8633 8.52539-15.8594Q9.88281-16.8555 11.5186-17.4023Q13.1543-17.9492 14.9609-17.9492Q16.7773-17.9492 18.4131-17.4023Q20.0488-16.8555 21.4111-15.8594Q22.7734-14.8633 23.7695-13.501Q24.7656-12.1387 25.3174-10.5029Q25.8691-8.86719 25.8691-7.05078Q25.8789-5.24414 25.332-3.6084Q24.7852-1.97266 23.7842-0.610352Q22.7832 0.751953 21.4209 1.74805Q20.0586 2.74414 18.4229 3.2959Q16.7871 3.84766 14.9707 3.84766ZM9.19922-7.05078Q9.19922-6.66992 9.45801-6.4209Q9.7168-6.17188 10.1172-6.17188L14.0625-6.17188L14.0625-2.2168Q14.0625-1.81641 14.3115-1.55762Q14.5605-1.29883 14.9512-1.29883Q15.3516-1.29883 15.6104-1.55273Q15.8691-1.80664 15.8691-2.2168L15.8691-6.17188L19.8242-6.17188Q20.2246-6.17188 20.4785-6.4209Q20.7324-6.66992 20.7324-7.05078Q20.7324-7.46094 20.4785-7.71484Q20.2246-7.96875 19.8242-7.96875L15.8691-7.96875L15.8691-11.9141Q15.8691-12.3242 15.6104-12.583Q15.3516-12.8418 14.9512-12.8418Q14.5605-12.8418 14.3115-12.583Q14.0625-12.3242 14.0625-11.9141L14.0625-7.96875L10.1172-7.96875Q9.70703-7.96875 9.45312-7.71484Q9.19922-7.46094 9.19922-7.05078Z"/>
  </g>
  <text style="stroke:none;fill:black;font-family:sans-serif;font-size:13;font-weight:bold;" transform="matrix(1 0 0 1 263 1953)">Design Variations</text>
  <text style="stroke:none;fill:black;font-family:sans-serif;font-size:13;" transform="matrix(1 0 0 1 263 1971)">Symbols are supported in up to nine weights and three scales.</text>
  <text style="stroke:none;fill:black;font-family:sans-serif;font-size:13;" transform="matrix(1 0 0 1 263 1989)">For optimal layout with text and other symbols, vertically align</text>
  <text style="stroke:none;fill:black;font-family:sans-serif;font-size:13;" transform="matrix(1 0 0 1 263 2007)">symbols with the adjacent text.</text>
  <line style="fill:none;stroke:#00AEEF;stroke-width:0.5;opacity:1.0;" x1="776" x2="776" y1="1919" y2="1933"/>
  <g transform="matrix(1 0 0 1 776 1933)">
   <path d="M3.31055 0.15625Q3.70117 0.15625 3.91602-0.00976562Q4.13086-0.175781 4.26758-0.585938L5.52734-4.0332L11.2891-4.0332L12.5488-0.585938Q12.6855-0.175781 12.9004-0.00976562Q13.1152 0.15625 13.4961 0.15625Q13.8867 0.15625 14.1162-0.0585938Q14.3457-0.273438 14.3457-0.644531Q14.3457-0.869141 14.2383-1.17188L9.6582-13.3691Q9.48242-13.8184 9.17969-14.043Q8.87695-14.2676 8.4082-14.2676Q7.5-14.2676 7.17773-13.3789L2.59766-1.16211Q2.49023-0.859375 2.49023-0.634766Q2.49023-0.263672 2.70996-0.0537109Q2.92969 0.15625 3.31055 0.15625ZM6.00586-5.51758L8.37891-12.0898L8.42773-12.0898L10.8008-5.51758Z"/>
  </g>
  <line style="fill:none;stroke:#00AEEF;stroke-width:0.5;opacity:1.0;" x1="793.197" x2="793.197" y1="1919" y2="1933"/>
  <text style="stroke:none;fill:black;font-family:sans-serif;font-size:13;font-weight:bold;" transform="matrix(1 0 0 1 776 1953)">Margins</text>
  <text style="stroke:none;fill:black;font-family:sans-serif;font-size:13;" transform="matrix(1 0 0 1 776 1971)">Leading and trailing margins on the left and right side of each symbol</text>
  <text style="stroke:none;fill:black;font-family:sans-serif;font-size:13;" transform="matrix(1 0 0 1 776 1989)">can be adjusted by modifying the x-location of the margin guidelines.</text>
  <text style="stroke:none;fill:black;font-family:sans-serif;font-size:13;" transform="matrix(1 0 0 1 776 2007)">Modifications are automatically applied proportionally to all</text>
  <text style="stroke:none;fill:black;font-family:sans-serif;font-size:13;" transform="matrix(1 0 0 1 776 2025)">scales and weights.</text>
  <g transform="matrix(1 0 0 1 1289 1933)">
   <path d="M2.8418 1.86523L4.54102 3.57422Q5.18555 4.22852 5.90332 4.17969Q6.62109 4.13086 7.31445 3.35938L18.0078-8.42773L17.041-9.4043L6.42578 2.27539Q6.16211 2.57812 5.89355 2.61719Q5.625 2.65625 5.27344 2.30469L4.10156 1.14258Q3.75 0.791016 3.79395 0.522461Q3.83789 0.253906 4.14062-0.0195312L15.6152-10.8203L14.6387-11.7871L3.04688-0.898438Q2.30469-0.214844 2.25098 0.498047Q2.19727 1.21094 2.8418 1.86523ZM9.25781-16.3281Q8.94531-16.0254 8.90625-15.6348Q8.86719-15.2441 9.04297-14.9512Q9.21875-14.6777 9.55566-14.541Q9.89258-14.4043 10.3809-14.5215Q11.4746-14.7754 12.5977-14.7314Q13.7207-14.6875 14.7949-13.9844L14.209-12.5293Q13.9551-11.9043 14.0674-11.4404Q14.1797-10.9766 14.5801-10.5664L16.875-8.25195Q17.2363-7.88086 17.5781-7.82227Q17.9199-7.76367 18.3398-7.8418L19.4043-8.03711L20.0684-7.36328L20.0293-6.80664Q20-6.43555 20.1221-6.12305Q20.2441-5.81055 20.6055-5.44922L21.3672-4.70703Q21.7285-4.3457 22.1533-4.33105Q22.5781-4.31641 22.9297-4.66797L25.8398-7.58789Q26.1914-7.93945 26.1816-8.35449Q26.1719-8.76953 25.8105-9.13086L25.0391-9.89258Q24.6875-10.2539 24.3799-10.3857Q24.0723-10.5176 23.7109-10.4883L23.1348-10.4395L22.4902-11.0742L22.7344-12.1973Q22.832-12.6172 22.6953-12.9834Q22.5586-13.3496 22.1191-13.7891L19.9219-15.9766Q18.6719-17.2168 17.2607-17.8369Q15.8496-18.457 14.4189-18.4814Q12.9883-18.5059 11.665-17.959Q10.3418-17.4121 9.25781-16.3281ZM10.752-15.957Q11.6602-16.6211 12.7002-16.9043Q13.7402-17.1875 14.8047-17.085Q15.8691-16.9824 16.8701-16.5137Q17.8711-16.0449 18.7012-15.2051L21.1328-12.793Q21.3086-12.6172 21.3525-12.4512Q21.3965-12.2852 21.3379-12.0312L21.0156-10.5469L22.5195-9.0625L23.5059-9.12109Q23.6914-9.13086 23.7891-9.09668Q23.8867-9.0625 24.0332-8.91602L24.6094-8.33984L22.168-5.89844L21.5918-6.47461Q21.4453-6.62109 21.4062-6.71875Q21.3672-6.81641 21.377-7.01172L21.4453-7.98828L19.9512-9.47266L18.4277-9.21875Q18.1836-9.16992 18.042-9.2041Q17.9004-9.23828 17.7148-9.41406L15.7129-11.416Q15.5176-11.5918 15.4932-11.7529Q15.4688-11.9141 15.5859-12.1875L16.4648-14.2773Q15.293-15.3711 13.8281-15.791Q12.3633-16.2109 10.8398-15.7617Q10.7227-15.7324 10.6885-15.8057Q10.6543-15.8789 10.752-15.957Z"/>
  </g>
  <text style="stroke:none;fill:black;font-family:sans-serif;font-size:13;font-weight:bold;" transform="matrix(1 0 0 1 1289 1953)">Exporting</text>
  <text style="stroke:none;fill:black;font-family:sans-serif;font-size:13;" transform="matrix(1 0 0 1 1289 1971)">Symbols should be outlined when exporting to ensure the</text>
  <text style="stroke:none;fill:black;font-family:sans-serif;font-size:13;" transform="matrix(1 0 0 1 1289 1989)">design is preserved when submitting to Xcode.</text>
  <text id="template-version" style="stroke:none;fill:black;font-family:sans-serif;font-size:13;text-anchor:end;" transform="matrix(1 0 0 1 3036 1933)">Template v.3.0</text>
  <text style="stroke:none;fill:black;font-family:sans-serif;font-size:13;text-anchor:end;" transform="matrix(1 0 0 1 3036 1951)">Requires Xcode 13 or greater</text>
  <text id="descriptive-name" style="stroke:none;fill:black;font-family:sans-serif;font-size:13;text-anchor:end;" transform="matrix(1 0 0 1 3036 1969)">Generated from navigation</text>
  <text style="stroke:none;fill:black;font-family:sans-serif;font-size:13;text-anchor:end;" transform="matrix(1 0 0 1 3036 1987)">Typeset at 100 points</text>
  <text style="stroke:none;fill:black;font-family:sans-serif;font-size:13;" transform="matrix(1 0 0 1 263 726)">Small</text>
  <text style="stroke:none;fill:black;font-family:sans-serif;font-size:13;" transform="matrix(1 0 0 1 263 1156)">Medium</text>
  <text style="stroke:none;fill:black;font-family:sans-serif;font-size:13;" transform="matrix(1 0 0 1 263 1586)">Large</text>
 </g>
 <g id="Guides">
  <g id="H-reference" style="fill:#27AAE1;stroke:none;" transform="matrix(1 0 0 1 339 696)">
   <path d="M0.976562 0L3.66211 0L29.3457-67.1387L30.0293-67.1387L30.0293-70.459L28.125-70.459ZM11.6699-24.4629L46.9727-24.4629L46.2402-26.709L12.4512-26.709ZM55.127 0L57.7637 0L30.6152-70.459L29.4434-70.459L29.4434-67.1387Z"/>
  </g>
  <line id="Baseline-S" style="fill:none;stroke:#27AAE1;opacity:1;stroke-width:0.5;" x1="263" x2="3036" y1="696" y2="696"/>
  <line id="Capline-S" style="fill:none;stroke:#27AAE1;opacity:1;stroke-width:0.5;" x1="263" x2="3036" y1="625.541" y2="625.541"/>
  <g id="H-reference" style="fill:#27AAE1;stroke:none;" transform="matrix(1 0 0 1 339 1126)">
   <path d="M0.976562 0L3.66211 0L29.3457-67.1387L30.0293-67.1387L30.0293-70.459L28.125-70.459ZM11.6699-24.4629L46.9727-24.4629L46.2402-26.709L12.4512-26.709ZM55.127 0L57.7637 0L30.6152-70.459L29.4434-70.459L29.4434-67.1387Z"/>
  </g>
  <line id="Baseline-M" style="fill:none;stroke:#27AAE1;opacity:1;stroke-width:0.5;" x1="263" x2="3036" y1="1126" y2="1126"/>
  <line id="Capline-M" style="fill:none;stroke:#27AAE1;opacity:1;stroke-width:0.5;" x1="263" x2="3036" y1="1055.54" y2="1055.54"/>
  <g id="H-reference" style="fill:#27AAE1;stroke:none;" transform="matrix(1 0 0 1 339 1556)">
   <path d="M0.976562 0L3.66211 0L29.3457-67.1387L30.0293-67.1387L30.0293-70.459L28.125-70.459ZM11.6699-24.4629L46.9727-24.4629L46.2402-26.709L12.4512-26.709ZM55.127 0L57.7637 0L30.6152-70.459L29.4434-70.459L29.4434-67.1387Z"/>
  </g>
  <line id="Baseline-L" style="fill:none;stroke:#27AAE1;opacity:1;stroke-width:0.5;" x1="263" x2="3036" y1="1556" y2="1556"/>
  <line id="Capline-L" style="fill:none;stroke:#27AAE1;opacity:1;stroke-width:0.5;" x1="263" x2="3036" y1="1485.54" y2="1485.54"/>
  <line id="left-margin-Regular-M" style="fill:none;stroke:#00AEEF;stroke-width:0.5;opacity:1.0;" x1="1392.87" x2="1392.87" y1="1030.78" y2="1150.12"/>
  <line id="right-margin-Regular-M" style="fill:none;stroke:#00AEEF;stroke-width:0.5;opacity:1.0;" x1="1506.82" x2="1506.82" y1="1030.78" y2="1150.12"/>
 </g>
 <g id="Symbols">
  <g id="Black-L" transform="matrix(1 0 0 1 2861.19 1556)">
   <path d="M133.814-98.3353C135.934-96.2053 136.494-92.9853 135.204-90.2753L84.0139 17.7947C82.7339 20.5047 79.8839 22.1147 76.9039 21.8147C73.9139 21.5247 71.4439 19.3847 70.7139 16.4747L60.3739-24.8953L19.0039-35.2353C16.0939-35.9653 13.9539-38.4353 13.6639-41.4253C13.3639-44.4053 14.9739-47.2553 17.6839-48.5353L125.754-99.7253C128.464-101.016 131.684-100.455 133.814-98.3353ZM41.6939-44.1953L67.9439-37.6353C70.4939-36.9953 72.4739-35.0153 73.1139-32.4653L79.6739-6.21536L113.864-78.3853L41.6939-44.1953Z"/>
  </g>
  <g id="Heavy-L" transform="matrix(1 0 0 1 2565.33 1556)">
   <path d="M132.359-97.5764C134.229-95.7164 134.719-92.8764 133.589-90.4864L82.3987 17.5736C81.2687 19.9636 78.7687 21.3836 76.1387 21.1236C73.5087 20.8636 71.3287 18.9836 70.6887 16.4136L60.2287-25.4464L18.3587-35.9064C15.7987-36.5464 13.9187-38.7264 13.6587-41.3564C13.3987-43.9864 14.8187-46.4964 17.1987-47.6264L125.269-98.8064C127.649-99.9364 130.489-99.4464 132.359-97.5764ZM38.3387-43.7964L66.8987-36.6664C69.1387-36.1064 70.8787-34.3564 71.4387-32.1164L78.5787-3.55648L114.799-80.0164L38.3387-43.7964Z"/>
  </g>
  <g id="Bold-L" transform="matrix(1 0 0 1 2269.56 1556)">
   <path d="M130.744-96.744C132.324-95.164 132.744-92.754 131.784-90.734L80.5939 17.336C79.6339 19.356 77.5139 20.556 75.2839 20.336C73.0539 20.116 71.2039 18.526 70.6639 16.346L60.0639-26.064L17.6439-36.664C15.4739-37.214 13.8739-39.064 13.6539-41.284C13.4339-43.514 14.6439-45.644 16.6639-46.604L124.724-97.784C126.754-98.744 129.154-98.334 130.744-96.744ZM34.5839-43.364L65.7139-35.574C67.6139-35.104 69.0939-33.624 69.5739-31.724L77.3539-0.58398L115.854-81.854L34.5839-43.364Z"/>
  </g>
  <g id="Semibold-L" transform="matrix(1 0 0 1 1973.5 1556)">
   <path d="M129.63-96.1788C131.02-94.7888 131.39-92.6788 130.55-90.8988L79.3601 17.1612C78.5201 18.9312 76.6501 19.9912 74.7001 19.8012C72.7401 19.6012 71.1201 18.2012 70.6501 16.3012L59.9501-26.4988L17.1501-37.1988C15.2501-37.6688 13.8501-39.2888 13.6501-41.2488C13.4601-43.1988 14.5201-45.0688 16.2901-45.9088L124.35-97.0988C126.13-97.9388 128.24-97.5688 129.63-96.1788ZM32.0201-43.0688L64.9101-34.8388C66.5801-34.4288 67.8801-33.1288 68.2901-31.4588L76.5201 1.4313L116.57-83.1188L32.0201-43.0688Z"/>
  </g>
  <g id="Medium-L" transform="matrix(1 0 0 1 1677.29 1556)">
   <path d="M128.778-95.7438C130.018-94.5038 130.348-92.6138 129.598-91.0338L78.4079 17.0262C77.6579 18.6162 75.9879 19.5562 74.2479 19.3862C72.4979 19.2062 71.0579 17.9562 70.6279 16.2562L59.8579-26.8238L16.7779-37.5938C15.0779-38.0238 13.8279-39.4638 13.6479-41.2138C13.4779-42.9538 14.4179-44.6238 16.0079-45.3738L124.068-96.5638C125.648-97.3138 127.538-96.9838 128.778-95.7438ZM30.0379-42.8338L64.2879-34.2738C65.7779-33.9038 66.9379-32.7438 67.3079-31.2538L75.8679 2.9961L117.118-84.0838L30.0379-42.8338Z"/>
  </g>
  <g id="Regular-L" transform="matrix(1 0 0 1 1381.23 1556)">
   <path d="M127.666-95.1678C128.716-94.1178 128.986-92.5278 128.356-91.1978L77.1662 16.8722C76.5362 18.2022 75.1262 19.0022 73.6562 18.8522C72.1862 18.7122 70.9662 17.6522 70.6062 16.2222L59.7462-27.2478L16.2762-38.1078C14.8462-38.4678 13.7962-39.6878 13.6462-41.1578C13.4962-42.6278 14.2962-44.0378 15.6262-44.6678L123.696-95.8578C125.026-96.4878 126.616-96.2178 127.666-95.1678ZM27.4662-42.5278L63.4762-33.5278C64.7362-33.2078 65.7062-32.2278 66.0262-30.9778L75.0262 5.03216L117.836-85.3378L27.4662-42.5278Z"/>
  </g>
  <g id="Light-L" transform="matrix(1 0 0 1 1085.32 1556)">
   <path d="M126.293-94.4666C127.103-93.6666 127.313-92.4366 126.823-91.4066L75.643 16.6534C75.153 17.6834 74.073 18.3034 72.933 18.1834C71.803 18.0734 70.853 17.2634 70.583 16.1534L59.603-27.7766L15.673-38.7566C14.563-39.0266 13.753-39.9766 13.643-41.1066C13.523-42.2466 14.143-43.3266 15.173-43.8166L123.233-94.9966C124.263-95.4866 125.493-95.2766 126.293-94.4666ZM24.303-42.1666L62.483-32.6166C63.443-32.3766 64.203-31.6166 64.443-30.6566L73.993 7.52342L118.713-86.8866L24.303-42.1666Z"/>
  </g>
  <g id="Thin-L" transform="matrix(1 0 0 1 789.661 1556)">
   <path d="M124.507-93.5446C125-93.0546 125.13-92.3046 124.832-91.6746L73.6441 16.3854C73.3461 17.0154 72.6841 17.3954 71.9911 17.3254C71.2971 17.2554 70.7211 16.7554 70.5521 16.0854L59.4181-28.4546L14.8781-39.5946C14.2021-39.7646 13.7051-40.3346 13.6361-41.0246C13.5681-41.7246 13.9421-42.3846 14.5721-42.6846L122.634-93.8746C123.264-94.1646 124.014-94.0346 124.507-93.5446ZM20.1511-41.6746L61.1781-31.4146C61.7701-31.2746 62.2311-30.8046 62.3791-30.2146L72.6361 10.8054L119.872-88.9146L20.1511-41.6746Z"/>
  </g>
  <g id="Ultralight-L" transform="matrix(1 0 0 1 493.5 1556)">
   <path d="M123.568-93.0688C123.897-92.7388 123.984-92.2388 123.785-91.8188L72.5976 16.2412C72.3986 16.6612 71.9576 16.9112 71.4956 16.8612C71.0326 16.8212 70.6486 16.4912 70.5366 16.0412L59.3216-28.8188L14.4616-40.0388C14.0106-40.1488 13.6796-40.5388 13.6336-40.9988C13.5876-41.4588 13.8376-41.8988 14.2576-42.0988L122.32-93.2888C122.74-93.4888 123.24-93.3988 123.568-93.0688ZM17.9776-41.4288L60.4956-30.7988C60.8896-30.6988 61.1976-30.3888 61.2956-29.9988L71.9256 12.5212L120.478-89.9788L17.9776-41.4288Z"/>
  </g>
  <g id="Black-M" transform="matrix(1 0 0 1 2872.83 1126)">
   <path d="M110.534-86.085C112.654-83.955 113.214-80.735 111.934-78.025L71.7639 6.76492C70.4839 9.47496 67.6339 11.085 64.6539 10.795C61.6639 10.495 59.1939 8.35492 58.4639 5.44492L50.5739-26.115L19.0039-34.005C16.0939-34.735 13.9539-37.215 13.6639-40.195C13.3639-43.185 14.9739-46.035 17.6839-47.315L102.474-87.475C105.184-88.765 108.414-88.205 110.534-86.085ZM41.6939-42.975L58.1439-38.865C60.6939-38.225 62.6739-36.235 63.3139-33.695L67.4239-17.245L90.5839-66.135L41.6939-42.975Z"/>
  </g>
  <g id="Heavy-M" transform="matrix(1 0 0 1 2576.96 1126)">
   <path d="M109.089-85.3264C110.959-83.4664 111.449-80.6264 110.319-78.2364L70.1587 6.55352C69.0187 8.93352 66.5187 10.3536 63.8887 10.0936C61.2587 9.83356 59.0787 7.95352 58.4387 5.39352L50.4287-26.6664L18.3687-34.6864C15.7987-35.3264 13.9187-37.5064 13.6587-40.1364C13.3987-42.7564 14.8187-45.2664 17.2087-46.3964L101.989-86.5564C104.379-87.6864 107.219-87.1964 109.089-85.3264ZM38.3387-42.5764L57.0987-37.8864C59.3387-37.3264 61.0887-35.5764 61.6487-33.3364L66.3287-14.5864L91.5287-67.7664L38.3387-42.5764Z"/>
  </g>
  <g id="Bold-M" transform="matrix(1 0 0 1 2281.2 1126)">
   <path d="M107.464-84.494C109.044-82.914 109.464-80.504 108.504-78.484L68.344 6.30602C67.384 8.33602 65.254 9.53602 63.024 9.31602C60.804 9.09602 58.954 7.49602 58.414 5.32602L50.254-27.294L17.644-35.444C15.464-35.984 13.874-37.834 13.654-40.064C13.434-42.294 14.634-44.414 16.654-45.374L101.444-85.534C103.464-86.494 105.874-86.084 107.464-84.494ZM34.574-42.134L55.914-36.804C57.814-36.324 59.294-34.844 59.764-32.944L65.104-11.614L92.574-69.604L34.574-42.134Z"/>
  </g>
  <g id="Semibold-M" transform="matrix(1 0 0 1 1985.14 1126)">
   <path d="M106.35-83.9288C107.74-82.5388 108.11-80.4288 107.27-78.6488L67.1003 6.1313C66.2603 7.9113 64.4003 8.9613 62.4403 8.7713C60.4903 8.5813 58.8703 7.1813 58.3903 5.2713L50.1403-27.7188L17.1503-35.9688C15.2403-36.4488 13.8403-38.0688 13.6503-40.0188C13.4603-41.9788 14.5103-43.8388 16.2903-44.6788L101.07-84.8488C102.85-85.6888 104.96-85.3188 106.35-83.9288ZM32.0103-41.8388L55.1103-36.0688C56.7703-35.6488 58.0703-34.3488 58.4903-32.6888L64.2603-9.5887L93.2903-70.8688L32.0103-41.8388Z"/>
  </g>
  <g id="Medium-M" transform="matrix(1 0 0 1 1688.93 1126)">
   <path d="M105.498-83.4938C106.738-82.2538 107.068-80.3638 106.318-78.7838L66.1479 6.0061C65.3979 7.5861 63.7379 8.5361 61.9879 8.3561C60.2479 8.1861 58.7979 6.9361 58.3779 5.2361L50.0579-28.0538L16.7679-36.3738C15.0679-36.7938 13.8179-38.2438 13.6479-39.9838C13.4779-41.7338 14.4179-43.3938 15.9979-44.1438L100.788-84.3138C102.368-85.0638 104.258-84.7338 105.498-83.4938ZM30.0279-41.6138L54.4779-35.4938C55.9679-35.1238 57.1279-33.9638 57.4979-32.4738L63.6179-8.0239L93.8379-71.8338L30.0279-41.6138Z"/>
  </g>
  <g id="Regular-M" transform="matrix(1 0 0 1 1392.87 1126)">
   <path d="M104.386-82.9178C105.436-81.8678 105.706-80.2778 105.076-78.9478L64.9164 5.84216C64.2764 7.18216 62.8764 7.97216 61.4064 7.83216C59.9364 7.68216 58.7164 6.63216 58.3564 5.19216L49.9364-28.4678L16.2764-36.8878C14.8364-37.2378 13.7864-38.4678 13.6464-39.9378C13.4964-41.4078 14.2864-42.8078 15.6264-43.4378L100.416-83.6078C101.746-84.2378 103.336-83.9678 104.386-82.9178ZM27.4564-41.3078L53.6764-34.7478C54.9264-34.4378 55.9064-33.4578 56.2164-32.2078L62.7764-5.98784L94.5564-73.0878L27.4564-41.3078Z"/>
  </g>
  <g id="Light-M" transform="matrix(1 0 0 1 1096.96 1126)">
   <path d="M103.021-82.2166C103.831-81.4166 104.041-80.1866 103.561-79.1566L63.3909 5.63342C62.9009 6.66342 61.8209 7.27342 60.6909 7.16342C59.5509 7.05342 58.6109 6.23342 58.3309 5.13342L49.8009-28.9966L15.6709-37.5266C14.5709-37.8066 13.7509-38.7466 13.6409-39.8866C13.5309-41.0166 14.1409-42.0966 15.1709-42.5866L99.9612-82.7466C100.991-83.2366 102.221-83.0266 103.021-82.2166ZM24.3009-40.9366L52.6809-33.8466C53.6509-33.5966 54.4109-32.8466 54.6509-31.8766L61.7409-3.49658L95.4409-74.6366L24.3009-40.9366Z"/>
  </g>
  <g id="Thin-M" transform="matrix(1 0 0 1 801.299 1126)">
   <path d="M101.232-81.2946C101.725-80.8046 101.855-80.0546 101.556-79.4246L61.3944 5.36548C61.0954 5.99548 60.4334 6.36548 59.7404 6.29548C59.0464 6.23548 58.4714 5.73548 58.3024 5.05548L49.6174-29.6846L14.8774-38.3646C14.2014-38.5346 13.7044-39.1146 13.6364-39.8046C13.5674-40.4946 13.9414-41.1646 14.5714-41.4546L99.3594-81.6246C99.9892-81.9146 100.739-81.7846 101.232-81.2946ZM20.1514-40.4446L51.3784-32.6446C51.9694-32.4946 52.4304-32.0346 52.5784-31.4446L60.3854-0.214513L96.5964-76.6646L20.1514-40.4446Z"/>
  </g>
  <g id="Ultralight-M" transform="matrix(1 0 0 1 505.138 1126)">
   <path d="M100.293-80.8188C100.621-80.4888 100.708-79.9888 100.509-79.5688L60.3466 5.2112C60.1486 5.6312 59.7066 5.8812 59.2446 5.8412C58.7826 5.7912 58.3986 5.4612 58.2856 5.0112L49.5206-30.0488L14.4616-38.8088C14.0106-38.9288 13.6786-39.3088 13.6336-39.7688C13.5876-40.2388 13.8376-40.6788 14.2566-40.8788L99.0446-81.0388C99.4646-81.2388 99.9642-81.1488 100.293-80.8188ZM17.9766-40.1988L50.6946-32.0188C51.0886-31.9288 51.3966-31.6188 51.4946-31.2188L59.6746 1.4912L97.2026-77.7288L17.9766-40.1988Z"/>
  </g>
  <g id="Black-S" transform="matrix(1 0 0 1 2881.97 696)">
   <path d="M92.2518-76.554C94.3718-74.432 94.9318-71.206 93.6518-68.494L62.1518-1.99392C60.8618 0.716077 58.0118 2.32808 55.0318 2.03208C52.0518 1.73708 49.5718-0.401926 48.8418-3.31092L42.8818-27.179L19.0118-33.145C16.1018-33.873 13.9618-36.35 13.6618-39.334C13.3718-42.318 14.9818-45.166 17.6918-46.45L84.1918-77.95C86.9018-79.234 90.1318-78.676 92.2518-76.554ZM41.7018-42.11L50.4518-39.921C53.0018-39.285 54.9818-37.299 55.6218-34.755L57.8118-26.002L72.3018-56.607L41.7018-42.11Z"/>
  </g>
  <g id="Heavy-S" transform="matrix(1 0 0 1 2586.11 696)">
   <path d="M90.7987-75.809C92.6687-73.942 93.1587-71.101 92.0287-68.714L60.5287-2.214C59.3987 0.170994 56.8887 1.59 54.2587 1.33C51.6387 1.07 49.4587-0.813006 48.8187-3.374L42.7287-27.736L18.3587-33.826C15.7987-34.467 13.9187-36.647 13.6587-39.274C13.3987-41.901 14.8187-44.408 17.2087-45.538L83.7087-77.038C86.0887-78.169 88.9287-77.677 90.7987-75.809ZM38.3387-41.718L49.3987-38.953C51.6387-38.393 53.3787-36.645 53.9387-34.406L56.7087-23.348L73.2387-58.25L38.3387-41.718Z"/>
  </g>
  <g id="Bold-S" transform="matrix(1 0 0 1 2290.35 696)">
   <path d="M89.174-74.771C90.764-73.187 91.174-70.779 90.214-68.755L58.714-2.25502C57.764-0.23201 55.634 0.970985 53.404 0.750985C51.174 0.52999 49.334-1.06601 48.784-3.23802L42.554-28.153L17.644-34.382C15.474-34.925 13.874-36.774 13.654-39.001C13.434-41.229 14.634-43.355 16.664-44.313L83.164-75.813C85.184-76.772 87.594-76.355 89.174-74.771ZM34.584-41.074L48.214-37.665C50.114-37.191 51.594-35.708 52.074-33.809L55.474-20.176L74.284-59.881L34.584-41.074Z"/>
  </g>
  <g id="Semibold-S" transform="matrix(1 0 0 1 1994.29 696)">
   <path d="M88.0703-74.202C89.4603-72.813 89.8203-70.7 88.9803-68.924L57.4803-2.4239C56.6403-0.648902 54.7803 0.407098 52.8203 0.213098C50.8703 0.0200977 49.2403-1.3809 48.7703-3.2859L42.4503-28.58L17.1503-34.903C15.2503-35.379 13.8503-37.002 13.6503-38.956C13.4603-40.91 14.5103-42.776 16.2903-43.617L82.7903-75.117C84.5703-75.958 86.6803-75.592 88.0703-74.202ZM32.0103-40.774L47.4103-36.925C49.0703-36.509 50.3703-35.208 50.7903-33.542L54.6403-18.147L75.0003-61.138L32.0103-40.774Z"/>
  </g>
  <g id="Medium-S" transform="matrix(1 0 0 1 1698.08 696)">
   <path d="M87.2079-73.7646C88.4479-72.5246 88.7779-70.6386 88.0279-69.0536L56.5279-2.55368C55.7779-0.969676 54.1179-0.0276757 52.3679-0.199676C50.6279-0.372675 49.1779-1.62268 48.7479-3.32368L42.3579-28.9076L16.7679-35.3036C15.0679-35.7286 13.8179-37.1766 13.6479-38.9206C13.4779-40.6656 14.4179-42.3296 15.9979-43.0806L82.4979-74.5806C84.0879-75.3316 85.9679-75.0046 87.2079-73.7646ZM30.0379-40.5436L46.7879-36.3556C48.2679-35.9846 49.4279-34.8236 49.8079-33.3366L53.9879-16.5866L75.5479-62.1046L30.0379-40.5436Z"/>
  </g>
  <g id="Regular-S" transform="matrix(1 0 0 1 1402.02 696)">
   <path d="M86.0962-73.194C87.1462-72.148 87.4262-70.557 86.7862-69.221L55.2862-2.72098C54.6562-1.38498 53.2562-0.589982 51.7862-0.735982C50.3062-0.881982 49.0862-1.93598 48.7262-3.36998L42.2362-29.333L16.2762-35.823C14.8462-36.182 13.7862-37.403 13.6462-38.874C13.4962-40.345 14.2962-41.749 15.6262-42.382L82.1262-73.882C83.4662-74.515 85.0562-74.24 86.0962-73.194ZM27.4662-40.242L45.9762-35.614C47.2262-35.301 48.2062-34.322 48.5262-33.068L53.1462-14.556L76.2662-63.361L27.4662-40.242Z"/>
  </g>
  <g id="Light-S" transform="matrix(1 0 0 1 1106.1 696)">
   <path d="M84.7409-72.4936C85.5509-71.6866 85.7609-70.4596 85.2709-69.4286L53.7709-2.92854C53.2809-1.89854 52.2009-1.28554 51.0609-1.39754C49.9309-1.51054 48.9909-2.32354 48.7109-3.42954L42.1009-29.8586L15.6809-36.4656C14.5709-36.7416 13.7609-37.6836 13.6409-38.8186C13.5309-39.9536 14.1409-41.0366 15.1709-41.5246L81.6709-73.0246C82.7109-73.5136 83.9309-73.3006 84.7409-72.4936ZM24.3009-39.8746L44.9809-34.7036C45.9509-34.4626 46.7109-33.7066 46.9509-32.7396L52.1209-12.0586L77.1509-64.9086L24.3009-39.8746Z"/>
  </g>
  <g id="Thin-S" transform="matrix(1 0 0 1 810.442 696)">
   <path d="M82.9444-71.5736C83.4374-71.0806 83.5674-70.3306 83.2694-69.7006L51.7694-3.20058C51.4704-2.57058 50.8094-2.19658 50.1154-2.26458C49.4224-2.33358 48.8464-2.83058 48.6774-3.50658L41.9174-30.5466L14.8774-37.3066C14.2014-37.4756 13.7044-38.0506 13.6364-38.7446C13.5674-39.4376 13.9414-40.0996 14.5714-40.3976L81.0714-71.8976C81.7014-72.1966 82.4514-72.0666 82.9444-71.5736ZM20.1514-39.3896L43.6784-33.5076C44.2694-33.3596 44.7314-32.8986 44.8784-32.3066L50.7604-8.77958L78.3094-66.9376L20.1514-39.3896Z"/>
  </g>
  <g id="Ultralight-S" transform="matrix(1 0 0 1 514.281 696)">
   <path d="M82.0056-71.0904C82.3346-70.7624 82.4216-70.2624 82.2226-69.8424L50.7226-3.34244C50.5236-2.92244 50.0816-2.67244 49.6196-2.71844C49.1576-2.76444 48.7736-3.09544 48.6606-3.54644L41.8206-30.9054L14.4616-37.7454C14.0106-37.8584 13.6796-38.2424 13.6336-38.7044C13.5876-39.1664 13.8376-39.6084 14.2576-39.8074L80.7576-71.3074C81.1776-71.5064 81.6776-71.4194 82.0056-71.0904ZM17.9766-39.1344L42.9946-32.8804C43.3886-32.7814 43.6966-32.4734 43.7956-32.0794L50.0496-7.06144L78.9156-68.0004L17.9766-39.1344Z"/>
  </g>
 </g>
</svg>
