<?xml version="1.0" encoding="UTF-8"?>
<!--Generator: Apple Native CoreSVG 175-->
<!DOCTYPE svg
PUBLIC "-//W3C//DTD SVG 1.1//EN"
       "http://www.w3.org/Graphics/SVG/1.1/DTD/svg11.dtd">
<svg version="1.1" xmlns="http://www.w3.org/2000/svg" xmlns:xlink="http://www.w3.org/1999/xlink" width="3300" height="2200">
 <!--glyph: "", point size: 100.0, font version: "17.0d12e1", template writer version: "65.1"-->
 <g id="Notes">
  <rect height="2200" id="artboard" style="fill:white;opacity:1" width="3300" x="0" y="0"/>
  <line style="fill:none;stroke:black;opacity:1;stroke-width:0.5;" x1="263" x2="3036" y1="292" y2="292"/>
  <text style="stroke:none;fill:black;font-family:sans-serif;font-size:13;font-weight:bold;" transform="matrix(1 0 0 1 263 322)">Weight/Scale Variations</text>
  <text style="stroke:none;fill:black;font-family:sans-serif;font-size:13;text-anchor:middle;" transform="matrix(1 0 0 1 559.711 322)">Ultralight</text>
  <text style="stroke:none;fill:black;font-family:sans-serif;font-size:13;text-anchor:middle;" transform="matrix(1 0 0 1 856.422 322)">Thin</text>
  <text style="stroke:none;fill:black;font-family:sans-serif;font-size:13;text-anchor:middle;" transform="matrix(1 0 0 1 1153.13 322)">Light</text>
  <text style="stroke:none;fill:black;font-family:sans-serif;font-size:13;text-anchor:middle;" transform="matrix(1 0 0 1 1449.84 322)">Regular</text>
  <text style="stroke:none;fill:black;font-family:sans-serif;font-size:13;text-anchor:middle;" transform="matrix(1 0 0 1 1746.56 322)">Medium</text>
  <text style="stroke:none;fill:black;font-family:sans-serif;font-size:13;text-anchor:middle;" transform="matrix(1 0 0 1 2043.27 322)">Semibold</text>
  <text style="stroke:none;fill:black;font-family:sans-serif;font-size:13;text-anchor:middle;" transform="matrix(1 0 0 1 2339.98 322)">Bold</text>
  <text style="stroke:none;fill:black;font-family:sans-serif;font-size:13;text-anchor:middle;" transform="matrix(1 0 0 1 2636.69 322)">Heavy</text>
  <text style="stroke:none;fill:black;font-family:sans-serif;font-size:13;text-anchor:middle;" transform="matrix(1 0 0 1 2933.4 322)">Black</text>
  <line style="fill:none;stroke:black;opacity:1;stroke-width:0.5;" x1="263" x2="3036" y1="1903" y2="1903"/>
  <g transform="matrix(1 0 0 1 263 1933)">
   <path d="M9.24805 0.830078Q10.8691 0.830078 12.2949 0.214844Q13.7207-0.400391 14.8096-1.49414Q15.8984-2.58789 16.5186-4.01367Q17.1387-5.43945 17.1387-7.05078Q17.1387-8.66211 16.5186-10.0879Q15.8984-11.5137 14.8047-12.6074Q13.7109-13.7012 12.2852-14.3164Q10.8594-14.9316 9.23828-14.9316Q7.62695-14.9316 6.20117-14.3164Q4.77539-13.7012 3.69141-12.6074Q2.60742-11.5137 1.9873-10.0879Q1.36719-8.66211 1.36719-7.05078Q1.36719-5.43945 1.9873-4.01367Q2.60742-2.58789 3.69629-1.49414Q4.78516-0.400391 6.21094 0.214844Q7.63672 0.830078 9.24805 0.830078ZM9.24805-0.654297Q7.91992-0.654297 6.7627-1.14746Q5.60547-1.64062 4.73145-2.51953Q3.85742-3.39844 3.36426-4.56055Q2.87109-5.72266 2.87109-7.05078Q2.87109-8.37891 3.35938-9.54102Q3.84766-10.7031 4.72168-11.582Q5.5957-12.4609 6.75293-12.9541Q7.91016-13.4473 9.23828-13.4473Q10.5762-13.4473 11.7334-12.9541Q12.8906-12.4609 13.7695-11.582Q14.6484-10.7031 15.1465-9.54102Q15.6445-8.37891 15.6445-7.05078Q15.6445-5.72266 15.1514-4.56055Q14.6582-3.39844 13.7842-2.51953Q12.9102-1.64062 11.748-1.14746Q10.5859-0.654297 9.24805-0.654297ZM5.6543-7.05078Q5.6543-6.72852 5.85938-6.52832Q6.06445-6.32812 6.40625-6.32812L8.51562-6.32812L8.51562-4.20898Q8.51562-3.88672 8.71094-3.67676Q8.90625-3.4668 9.23828-3.4668Q9.56055-3.4668 9.77051-3.67676Q9.98047-3.88672 9.98047-4.20898L9.98047-6.32812L12.0898-6.32812Q12.4219-6.32812 12.627-6.52832Q12.832-6.72852 12.832-7.05078Q12.832-7.38281 12.627-7.58789Q12.4219-7.79297 12.0898-7.79297L9.98047-7.79297L9.98047-9.90234Q9.98047-10.2344 9.77051-10.4443Q9.56055-10.6543 9.23828-10.6543Q8.90625-10.6543 8.71094-10.4443Q8.51562-10.2344 8.51562-9.90234L8.51562-7.79297L6.40625-7.79297Q6.06445-7.79297 5.85938-7.58789Q5.6543-7.38281 5.6543-7.05078Z"/>
  </g>
  <g transform="matrix(1 0 0 1 281.867 1933)">
   <path d="M11.709 2.91016Q13.75 2.91016 15.5518 2.12891Q17.3535 1.34766 18.7305-0.0292969Q20.1074-1.40625 20.8887-3.20801Q21.6699-5.00977 21.6699-7.05078Q21.6699-9.0918 20.8887-10.8936Q20.1074-12.6953 18.7305-14.0723Q17.3535-15.4492 15.5469-16.2305Q13.7402-17.0117 11.6992-17.0117Q9.6582-17.0117 7.85645-16.2305Q6.05469-15.4492 4.68262-14.0723Q3.31055-12.6953 2.5293-10.8936Q1.74805-9.0918 1.74805-7.05078Q1.74805-5.00977 2.5293-3.20801Q3.31055-1.40625 4.6875-0.0292969Q6.06445 1.34766 7.86621 2.12891Q9.66797 2.91016 11.709 2.91016ZM11.709 1.25Q9.98047 1.25 8.47656 0.605469Q6.97266-0.0390625 5.83496-1.17676Q4.69727-2.31445 4.05762-3.81836Q3.41797-5.32227 3.41797-7.05078Q3.41797-8.7793 4.05762-10.2832Q4.69727-11.7871 5.83008-12.9297Q6.96289-14.0723 8.4668-14.7119Q9.9707-15.3516 11.6992-15.3516Q13.4277-15.3516 14.9316-14.7119Q16.4355-14.0723 17.5781-12.9297Q18.7207-11.7871 19.3652-10.2832Q20.0098-8.7793 20.0098-7.05078Q20.0098-5.32227 19.3701-3.81836Q18.7305-2.31445 17.5928-1.17676Q16.4551-0.0390625 14.9463 0.605469Q13.4375 1.25 11.709 1.25ZM7.17773-7.05078Q7.17773-6.69922 7.41211-6.47461Q7.64648-6.25 8.01758-6.25L10.8887-6.25L10.8887-3.36914Q10.8887-2.99805 11.1133-2.76855Q11.3379-2.53906 11.6895-2.53906Q12.0605-2.53906 12.29-2.76855Q12.5195-2.99805 12.5195-3.36914L12.5195-6.25L15.4004-6.25Q15.7715-6.25 16.001-6.47461Q16.2305-6.69922 16.2305-7.05078Q16.2305-7.42188 16.001-7.65137Q15.7715-7.88086 15.4004-7.88086L12.5195-7.88086L12.5195-10.752Q12.5195-11.1328 12.29-11.3623Q12.0605-11.5918 11.6895-11.5918Q11.3379-11.5918 11.1133-11.3574Q10.8887-11.123 10.8887-10.752L10.8887-7.88086L8.01758-7.88086Q7.63672-7.88086 7.40723-7.65137Q7.17773-7.42188 7.17773-7.05078Z"/>
  </g>
  <g transform="matrix(1 0 0 1 305.646 1933)">
   <path d="M14.9707 5.66406Q17.0605 5.66406 18.96 5.01465Q20.8594 4.36523 22.4512 3.19336Q24.043 2.02148 25.2197 0.429688Q26.3965-1.16211 27.0459-3.06641Q27.6953-4.9707 27.6953-7.05078Q27.6953-9.14062 27.0459-11.04Q26.3965-12.9395 25.2197-14.5312Q24.043-16.123 22.4512-17.2998Q20.8594-18.4766 18.9551-19.126Q17.0508-19.7754 14.9609-19.7754Q12.8711-19.7754 10.9717-19.126Q9.07227-18.4766 7.48535-17.2998Q5.89844-16.123 4.72168-14.5312Q3.54492-12.9395 2.90039-11.04Q2.25586-9.14062 2.25586-7.05078Q2.25586-4.9707 2.90527-3.06641Q3.55469-1.16211 4.72656 0.429688Q5.89844 2.02148 7.49023 3.19336Q9.08203 4.36523 10.9814 5.01465Q12.8809 5.66406 14.9707 5.66406ZM14.9707 3.84766Q13.1641 3.84766 11.5283 3.2959Q9.89258 2.74414 8.53516 1.74805Q7.17773 0.751953 6.17676-0.610352Q5.17578-1.97266 4.62891-3.6084Q4.08203-5.24414 4.08203-7.05078Q4.08203-8.86719 4.62891-10.5029Q5.17578-12.1387 6.17188-13.501Q7.16797-14.8633 8.52539-15.8594Q9.88281-16.8555 11.5186-17.4023Q13.1543-17.9492 14.9609-17.9492Q16.7773-17.9492 18.4131-17.4023Q20.0488-16.8555 21.4111-15.8594Q22.7734-14.8633 23.7695-13.501Q24.7656-12.1387 25.3174-10.5029Q25.8691-8.86719 25.8691-7.05078Q25.8789-5.24414 25.332-3.6084Q24.7852-1.97266 23.7842-0.610352Q22.7832 0.751953 21.4209 1.74805Q20.0586 2.74414 18.4229 3.2959Q16.7871 3.84766 14.9707 3.84766ZM9.19922-7.05078Q9.19922-6.66992 9.45801-6.4209Q9.7168-6.17188 10.1172-6.17188L14.0625-6.17188L14.0625-2.2168Q14.0625-1.81641 14.3115-1.55762Q14.5605-1.29883 14.9512-1.29883Q15.3516-1.29883 15.6104-1.55273Q15.8691-1.80664 15.8691-2.2168L15.8691-6.17188L19.8242-6.17188Q20.2246-6.17188 20.4785-6.4209Q20.7324-6.66992 20.7324-7.05078Q20.7324-7.46094 20.4785-7.71484Q20.2246-7.96875 19.8242-7.96875L15.8691-7.96875L15.8691-11.9141Q15.8691-12.3242 15.6104-12.583Q15.3516-12.8418 14.9512-12.8418Q14.5605-12.8418 14.3115-12.583Q14.0625-12.3242 14.0625-11.9141L14.0625-7.96875L10.1172-7.96875Q9.70703-7.96875 9.45312-7.71484Q9.19922-7.46094 9.19922-7.05078Z"/>
  </g>
  <text style="stroke:none;fill:black;font-family:sans-serif;font-size:13;font-weight:bold;" transform="matrix(1 0 0 1 263 1953)">Design Variations</text>
  <text style="stroke:none;fill:black;font-family:sans-serif;font-size:13;" transform="matrix(1 0 0 1 263 1971)">Symbols are supported in up to nine weights and three scales.</text>
  <text style="stroke:none;fill:black;font-family:sans-serif;font-size:13;" transform="matrix(1 0 0 1 263 1989)">For optimal layout with text and other symbols, vertically align</text>
  <text style="stroke:none;fill:black;font-family:sans-serif;font-size:13;" transform="matrix(1 0 0 1 263 2007)">symbols with the adjacent text.</text>
  <line style="fill:none;stroke:#00AEEF;stroke-width:0.5;opacity:1.0;" x1="776" x2="776" y1="1919" y2="1933"/>
  <g transform="matrix(1 0 0 1 776 1933)">
   <path d="M3.31055 0.15625Q3.70117 0.15625 3.91602-0.00976562Q4.13086-0.175781 4.26758-0.585938L5.52734-4.0332L11.2891-4.0332L12.5488-0.585938Q12.6855-0.175781 12.9004-0.00976562Q13.1152 0.15625 13.4961 0.15625Q13.8867 0.15625 14.1162-0.0585938Q14.3457-0.273438 14.3457-0.644531Q14.3457-0.869141 14.2383-1.17188L9.6582-13.3691Q9.48242-13.8184 9.17969-14.043Q8.87695-14.2676 8.4082-14.2676Q7.5-14.2676 7.17773-13.3789L2.59766-1.16211Q2.49023-0.859375 2.49023-0.634766Q2.49023-0.263672 2.70996-0.0537109Q2.92969 0.15625 3.31055 0.15625ZM6.00586-5.51758L8.37891-12.0898L8.42773-12.0898L10.8008-5.51758Z"/>
  </g>
  <line style="fill:none;stroke:#00AEEF;stroke-width:0.5;opacity:1.0;" x1="793.197" x2="793.197" y1="1919" y2="1933"/>
  <text style="stroke:none;fill:black;font-family:sans-serif;font-size:13;font-weight:bold;" transform="matrix(1 0 0 1 776 1953)">Margins</text>
  <text style="stroke:none;fill:black;font-family:sans-serif;font-size:13;" transform="matrix(1 0 0 1 776 1971)">Leading and trailing margins on the left and right side of each symbol</text>
  <text style="stroke:none;fill:black;font-family:sans-serif;font-size:13;" transform="matrix(1 0 0 1 776 1989)">can be adjusted by modifying the x-location of the margin guidelines.</text>
  <text style="stroke:none;fill:black;font-family:sans-serif;font-size:13;" transform="matrix(1 0 0 1 776 2007)">Modifications are automatically applied proportionally to all</text>
  <text style="stroke:none;fill:black;font-family:sans-serif;font-size:13;" transform="matrix(1 0 0 1 776 2025)">scales and weights.</text>
  <g transform="matrix(1 0 0 1 1289 1933)">
   <path d="M2.8418 1.86523L4.54102 3.57422Q5.18555 4.22852 5.90332 4.17969Q6.62109 4.13086 7.31445 3.35938L18.0078-8.42773L17.041-9.4043L6.42578 2.27539Q6.16211 2.57812 5.89355 2.61719Q5.625 2.65625 5.27344 2.30469L4.10156 1.14258Q3.75 0.791016 3.79395 0.522461Q3.83789 0.253906 4.14062-0.0195312L15.6152-10.8203L14.6387-11.7871L3.04688-0.898438Q2.30469-0.214844 2.25098 0.498047Q2.19727 1.21094 2.8418 1.86523ZM9.25781-16.3281Q8.94531-16.0254 8.90625-15.6348Q8.86719-15.2441 9.04297-14.9512Q9.21875-14.6777 9.55566-14.541Q9.89258-14.4043 10.3809-14.5215Q11.4746-14.7754 12.5977-14.7314Q13.7207-14.6875 14.7949-13.9844L14.209-12.5293Q13.9551-11.9043 14.0674-11.4404Q14.1797-10.9766 14.5801-10.5664L16.875-8.25195Q17.2363-7.88086 17.5781-7.82227Q17.9199-7.76367 18.3398-7.8418L19.4043-8.03711L20.0684-7.36328L20.0293-6.80664Q20-6.43555 20.1221-6.12305Q20.2441-5.81055 20.6055-5.44922L21.3672-4.70703Q21.7285-4.3457 22.1533-4.33105Q22.5781-4.31641 22.9297-4.66797L25.8398-7.58789Q26.1914-7.93945 26.1816-8.35449Q26.1719-8.76953 25.8105-9.13086L25.0391-9.89258Q24.6875-10.2539 24.3799-10.3857Q24.0723-10.5176 23.7109-10.4883L23.1348-10.4395L22.4902-11.0742L22.7344-12.1973Q22.832-12.6172 22.6953-12.9834Q22.5586-13.3496 22.1191-13.7891L19.9219-15.9766Q18.6719-17.2168 17.2607-17.8369Q15.8496-18.457 14.4189-18.4814Q12.9883-18.5059 11.665-17.959Q10.3418-17.4121 9.25781-16.3281ZM10.752-15.957Q11.6602-16.6211 12.7002-16.9043Q13.7402-17.1875 14.8047-17.085Q15.8691-16.9824 16.8701-16.5137Q17.8711-16.0449 18.7012-15.2051L21.1328-12.793Q21.3086-12.6172 21.3525-12.4512Q21.3965-12.2852 21.3379-12.0312L21.0156-10.5469L22.5195-9.0625L23.5059-9.12109Q23.6914-9.13086 23.7891-9.09668Q23.8867-9.0625 24.0332-8.91602L24.6094-8.33984L22.168-5.89844L21.5918-6.47461Q21.4453-6.62109 21.4062-6.71875Q21.3672-6.81641 21.377-7.01172L21.4453-7.98828L19.9512-9.47266L18.4277-9.21875Q18.1836-9.16992 18.042-9.2041Q17.9004-9.23828 17.7148-9.41406L15.7129-11.416Q15.5176-11.5918 15.4932-11.7529Q15.4688-11.9141 15.5859-12.1875L16.4648-14.2773Q15.293-15.3711 13.8281-15.791Q12.3633-16.2109 10.8398-15.7617Q10.7227-15.7324 10.6885-15.8057Q10.6543-15.8789 10.752-15.957Z"/>
  </g>
  <text style="stroke:none;fill:black;font-family:sans-serif;font-size:13;font-weight:bold;" transform="matrix(1 0 0 1 1289 1953)">Exporting</text>
  <text style="stroke:none;fill:black;font-family:sans-serif;font-size:13;" transform="matrix(1 0 0 1 1289 1971)">Symbols should be outlined when exporting to ensure the</text>
  <text style="stroke:none;fill:black;font-family:sans-serif;font-size:13;" transform="matrix(1 0 0 1 1289 1989)">design is preserved when submitting to Xcode.</text>
  <text id="template-version" style="stroke:none;fill:black;font-family:sans-serif;font-size:13;text-anchor:end;" transform="matrix(1 0 0 1 3036 1933)">Template v.3.0</text>
  <text style="stroke:none;fill:black;font-family:sans-serif;font-size:13;text-anchor:end;" transform="matrix(1 0 0 1 3036 1951)">Requires Xcode 13 or greater</text>
  <text id="descriptive-name" style="stroke:none;fill:black;font-family:sans-serif;font-size:13;text-anchor:end;" transform="matrix(1 0 0 1 3036 1969)">Generated from arrow-down</text>
  <text style="stroke:none;fill:black;font-family:sans-serif;font-size:13;text-anchor:end;" transform="matrix(1 0 0 1 3036 1987)">Typeset at 100 points</text>
  <text style="stroke:none;fill:black;font-family:sans-serif;font-size:13;" transform="matrix(1 0 0 1 263 726)">Small</text>
  <text style="stroke:none;fill:black;font-family:sans-serif;font-size:13;" transform="matrix(1 0 0 1 263 1156)">Medium</text>
  <text style="stroke:none;fill:black;font-family:sans-serif;font-size:13;" transform="matrix(1 0 0 1 263 1586)">Large</text>
 </g>
 <g id="Guides">
  <g id="H-reference" style="fill:#27AAE1;stroke:none;" transform="matrix(1 0 0 1 339 696)">
   <path d="M0.976562 0L3.66211 0L29.3457-67.1387L30.0293-67.1387L30.0293-70.459L28.125-70.459ZM11.6699-24.4629L46.9727-24.4629L46.2402-26.709L12.4512-26.709ZM55.127 0L57.7637 0L30.6152-70.459L29.4434-70.459L29.4434-67.1387Z"/>
  </g>
  <line id="Baseline-S" style="fill:none;stroke:#27AAE1;opacity:1;stroke-width:0.5;" x1="263" x2="3036" y1="696" y2="696"/>
  <line id="Capline-S" style="fill:none;stroke:#27AAE1;opacity:1;stroke-width:0.5;" x1="263" x2="3036" y1="625.541" y2="625.541"/>
  <g id="H-reference" style="fill:#27AAE1;stroke:none;" transform="matrix(1 0 0 1 339 1126)">
   <path d="M0.976562 0L3.66211 0L29.3457-67.1387L30.0293-67.1387L30.0293-70.459L28.125-70.459ZM11.6699-24.4629L46.9727-24.4629L46.2402-26.709L12.4512-26.709ZM55.127 0L57.7637 0L30.6152-70.459L29.4434-70.459L29.4434-67.1387Z"/>
  </g>
  <line id="Baseline-M" style="fill:none;stroke:#27AAE1;opacity:1;stroke-width:0.5;" x1="263" x2="3036" y1="1126" y2="1126"/>
  <line id="Capline-M" style="fill:none;stroke:#27AAE1;opacity:1;stroke-width:0.5;" x1="263" x2="3036" y1="1055.54" y2="1055.54"/>
  <g id="H-reference" style="fill:#27AAE1;stroke:none;" transform="matrix(1 0 0 1 339 1556)">
   <path d="M0.976562 0L3.66211 0L29.3457-67.1387L30.0293-67.1387L30.0293-70.459L28.125-70.459ZM11.6699-24.4629L46.9727-24.4629L46.2402-26.709L12.4512-26.709ZM55.127 0L57.7637 0L30.6152-70.459L29.4434-70.459L29.4434-67.1387Z"/>
  </g>
  <line id="Baseline-L" style="fill:none;stroke:#27AAE1;opacity:1;stroke-width:0.5;" x1="263" x2="3036" y1="1556" y2="1556"/>
  <line id="Capline-L" style="fill:none;stroke:#27AAE1;opacity:1;stroke-width:0.5;" x1="263" x2="3036" y1="1485.54" y2="1485.54"/>
  <line id="left-margin-Regular-M" style="fill:none;stroke:#00AEEF;stroke-width:0.5;opacity:1.0;" x1="1393.13" x2="1393.13" y1="1030.78" y2="1150.12"/>
  <line id="right-margin-Regular-M" style="fill:none;stroke:#00AEEF;stroke-width:0.5;opacity:1.0;" x1="1506.56" x2="1506.56" y1="1030.78" y2="1150.12"/>
 </g>
 <g id="Symbols">
  <g id="Black-L" transform="matrix(1 0 0 1 2864.51 1556)">
   <path d="M69.035-82.14C72.955-82.14 76.135-78.96 76.135-75.04L76.135 4.58C76.135 8.5 72.955 11.68 69.035 11.68C65.115 11.68 61.935 8.5 61.935 4.58L61.935-75.04C61.935-78.96 65.115-82.14 69.035-82.14ZM24.205-40.25C26.975-43.02 31.475-43.02 34.245-40.25L69.035-5.46L103.824-40.25C106.605-43.02 111.094-43.02 113.864-40.25C116.645-37.48 116.645-32.98 113.864-30.21L74.055 9.6C71.285 12.38 66.785 12.38 64.015 9.6L24.205-30.21C21.435-32.98 21.435-37.48 24.205-40.25Z"/>
  </g>
  <g id="Heavy-L" transform="matrix(1 0 0 1 2568.65 1556)">
   <path d="M68.195-81.29C71.645-81.29 74.445-78.49 74.445-75.04L74.445 4.58C74.445 8.03 71.645 10.83 68.195 10.83C64.745 10.83 61.945 8.03 61.945 4.58L61.945-75.04C61.945-78.49 64.745-81.29 68.195-81.29ZM23.965-39.65C26.405-42.09 30.355-42.09 32.795-39.65L68.195-4.26L103.585-39.65C106.025-42.09 109.984-42.09 112.424-39.65C114.864-37.21 114.864-33.25 112.424-30.81L72.615 9C70.175 11.44 66.215 11.44 63.775 9L23.965-30.81C21.515-33.25 21.515-37.21 23.965-39.65Z"/>
  </g>
  <g id="Bold-L" transform="matrix(1 0 0 1 2272.89 1556)">
   <path d="M67.24-80.34C70.17-80.34 72.54-77.97 72.54-75.04L72.54 4.58C72.54 7.51 70.17 9.88 67.24 9.88C64.32 9.88 61.94 7.51 61.94 4.58L61.94-75.04C61.94-77.97 64.32-80.34 67.24-80.34ZM23.68-38.98C25.75-41.05 29.11-41.05 31.18-38.98L67.24-2.91L103.31-38.98C105.381-41.05 108.73-41.05 110.801-38.98C112.87-36.91 112.87-33.55 110.801-31.48L70.99 8.33C68.92 10.4 65.57 10.4 63.5 8.33L23.68-31.48C21.61-33.55 21.61-36.91 23.68-38.98Z"/>
  </g>
  <g id="Semibold-L" transform="matrix(1 0 0 1 1976.83 1556)">
   <path d="M66.5925-79.69C69.1625-79.69 71.2425-77.61 71.2425-75.04L71.2425 4.58C71.2425 7.15 69.1625 9.23 66.5925 9.23C64.0225 9.23 61.9425 7.15 61.9425 4.58L61.9425-75.04C61.9425-77.61 64.0225-79.69 66.5925-79.69ZM23.4925-38.52C25.3125-40.33 28.2525-40.33 30.0725-38.52L66.5925-1.99L103.113-38.52C104.932-40.33 107.872-40.33 109.693-38.52C111.512-36.7 111.512-33.76 109.693-31.94L69.8825 7.87C68.0625 9.69 65.1225 9.69 63.3025 7.87L23.4925-31.94C21.6725-33.76 21.6725-36.7 23.4925-38.52Z"/>
  </g>
  <g id="Medium-L" transform="matrix(1 0 0 1 1680.62 1556)">
   <path d="M66.0925-79.19C68.3825-79.19 70.2425-77.33 70.2425-75.04L70.2425 4.58C70.2425 6.88 68.3825 8.73 66.0925 8.73C63.8025 8.73 61.9425 6.88 61.9425 4.58L61.9425-75.04C61.9425-77.33 63.8025-79.19 66.0925-79.19ZM23.3425-38.16C24.9625-39.78 27.5925-39.78 29.2125-38.16L66.0925-1.29L102.973-38.16C104.592-39.78 107.223-39.78 108.842-38.16C110.463-36.54 110.463-33.92 108.842-32.29L69.0225 7.52C67.4025 9.14 64.7825 9.14 63.1625 7.52L23.3425-32.29C21.7225-33.92 21.7225-36.54 23.3425-38.16Z"/>
  </g>
  <g id="Regular-L" transform="matrix(1 0 0 1 1384.56 1556)">
   <path d="M65.4375-78.54C67.3675-78.54 68.9375-76.97 68.9375-75.04L68.9375 4.58C68.9375 6.52 67.3675 8.08 65.4375 8.08C63.5075 8.08 61.9375 6.52 61.9375 4.58L61.9375-75.04C61.9375-76.97 63.5075-78.54 65.4375-78.54ZM23.1475-37.7C24.5175-39.07 26.7375-39.07 28.0975-37.7L65.4375-0.37L102.778-37.7C104.137-39.07 106.358-39.07 107.727-37.7C109.088-36.34 109.088-34.12 107.727-32.75L67.9075 7.06C66.5475 8.42 64.3275 8.42 62.9675 7.06L23.1475-32.75C21.7875-34.12 21.7875-36.34 23.1475-37.7Z"/>
  </g>
  <g id="Light-L" transform="matrix(1 0 0 1 1088.64 1556)">
   <path d="M64.6425-77.74C66.1325-77.74 67.3425-76.53 67.3425-75.04L67.3425 4.58C67.3425 6.07 66.1325 7.28 64.6425 7.28C63.1525 7.28 61.9425 6.07 61.9425 4.58L61.9425-75.04C61.9425-76.53 63.1525-77.74 64.6425-77.74ZM22.9225-37.14C23.9725-38.19 25.6825-38.19 26.7425-37.14L64.6425 0.76L102.543-37.14C103.603-38.19 105.313-38.19 106.363-37.14C107.423-36.08 107.423-34.37 106.363-33.32L66.5525 6.49C65.5025 7.55 63.7925 7.55 62.7325 6.49L22.9225-33.32C21.8625-34.37 21.8625-36.08 22.9225-37.14Z"/>
  </g>
  <g id="Thin-L" transform="matrix(1 0 0 1 792.985 1556)">
   <path d="M63.5905-76.69C64.5015-76.69 65.2405-75.95 65.2405-75.04L65.2405 4.58C65.2405 5.49 64.5015 6.23 63.5905 6.23C62.6785 6.23 61.9405 5.49 61.9405 4.58L61.9405-75.04C61.9405-75.95 62.6785-76.69 63.5905-76.69ZM22.6105-36.4C23.2555-37.04 24.2995-37.04 24.9445-36.4L63.5905 2.25L102.236-36.4C102.881-37.04 103.925-37.04 104.57-36.4C105.214-35.75 105.214-34.71 104.57-34.06L64.7565 5.75C64.1125 6.39 63.0675 6.39 62.4235 5.75L22.6105-34.06C21.9665-34.71 21.9665-35.75 22.6105-36.4Z"/>
  </g>
  <g id="Ultralight-L" transform="matrix(1 0 0 1 496.823 1556)">
   <path d="M63.04-76.14C63.648-76.14 64.14-75.65 64.14-75.04L64.14 4.58C64.14 5.19 63.648 5.68 63.04 5.68C62.433 5.68 61.94 5.19 61.94 4.58L61.94-75.04C61.94-75.65 62.433-76.14 63.04-76.14ZM22.45-36.01C22.88-36.44 23.576-36.44 24.006-36.01L63.04 3.03L102.075-36.01C102.506-36.44 103.201-36.44 103.632-36.01C104.061-35.58 104.061-34.88 103.632-34.45L63.818 5.36C63.389 5.79 62.692 5.79 62.263 5.36L22.45-34.45C22.02-34.88 22.02-35.58 22.45-36.01Z"/>
  </g>
  <g id="Black-M" transform="matrix(1 0 0 1 2873.09 1126)">
   <path d="M60.4625-73.57C64.3925-73.57 67.5625-70.39 67.5625-66.47L67.5625-3.99C67.5625-0.07 64.3925 3.11 60.4625 3.11C56.5425 3.11 53.3625-0.07 53.3625-3.99L53.3625-66.47C53.3625-70.39 56.5425-73.57 60.4625-73.57ZM24.2125-40.25C26.9825-43.02 31.4725-43.02 34.2525-40.25L60.4625-14.03L86.6825-40.25C89.4525-43.02 93.9525-43.02 96.7225-40.25C99.4925-37.48 99.4925-32.98 96.7225-30.21L65.4825 1.03C64.1525 2.36 62.3525 3.11 60.4625 3.11C58.5825 3.11 56.7725 2.36 55.4425 1.03L24.2125-30.21C21.4325-32.98 21.4325-37.48 24.2125-40.25Z"/>
  </g>
  <g id="Heavy-M" transform="matrix(1 0 0 1 2577.23 1126)">
   <path d="M59.6075-72.72C63.0675-72.72 65.8575-69.92 65.8575-66.47L65.8575-3.99C65.8575-0.54 63.0675 2.26 59.6075 2.26C56.1575 2.26 53.3575-0.54 53.3575-3.99L53.3575-66.47C53.3575-69.92 56.1575-72.72 59.6075-72.72ZM23.9575-39.65C26.3975-42.09 30.3475-42.09 32.7875-39.65L59.6075-12.83L86.4275-39.65C88.8675-42.09 92.8275-42.09 95.2675-39.65C97.7075-37.21 97.7075-33.25 95.2675-30.81L64.0275 0.43C62.8575 1.6 61.2675 2.26 59.6075 2.26C57.9575 2.26 56.3675 1.6 55.1875 0.43L23.9575-30.81C21.5175-33.25 21.5175-37.21 23.9575-39.65Z"/>
  </g>
  <g id="Bold-M" transform="matrix(1 0 0 1 2281.47 1126)">
   <path d="M58.66-71.77C61.59-71.77 63.96-69.39 63.96-66.47L63.96-3.99C63.96-1.06 61.59 1.31 58.66 1.31C55.74 1.31 53.36-1.06 53.36-3.99L53.36-66.47C53.36-69.39 55.74-71.77 58.66-71.77ZM23.68-38.98C25.75-41.05 29.11-41.05 31.18-38.98L58.67-11.49L86.15-38.98C88.22-41.05 91.58-41.05 93.65-38.98C95.72-36.91 95.72-33.55 93.65-31.48L62.41-0.24C61.42 0.75 60.07 1.31 58.67 1.31C57.26 1.31 55.91 0.75 54.92-0.24L23.68-31.48C21.61-33.55 21.61-36.91 23.68-38.98Z"/>
  </g>
  <g id="Semibold-M" transform="matrix(1 0 0 1 1985.41 1126)">
   <path d="M58.0125-71.12C60.5825-71.12 62.6625-69.04 62.6625-66.47L62.6625-3.99C62.6625-1.42 60.5825 0.66 58.0125 0.66C55.4425 0.66 53.3625-1.42 53.3625-3.99L53.3625-66.47C53.3625-69.04 55.4425-71.12 58.0125-71.12ZM23.4925-38.52C25.3025-40.33 28.2525-40.33 30.0625-38.52L58.0125-10.57L85.9625-38.52C87.7825-40.33 90.7225-40.33 92.5425-38.52C94.3525-36.7 94.3525-33.76 92.5425-31.94L61.3025-0.7C60.4325 0.17 59.2425 0.66 58.0125 0.66C56.7825 0.66 55.5925 0.17 54.7225-0.7L23.4925-31.94C21.6725-33.76 21.6725-36.7 23.4925-38.52Z"/>
  </g>
  <g id="Medium-M" transform="matrix(1 0 0 1 1689.2 1126)">
   <path d="M57.5125-70.62C59.8025-70.62 61.6625-68.76 61.6625-66.47L61.6625-3.99C61.6625-1.7 59.8025 0.16 57.5125 0.16C55.2225 0.16 53.3625-1.7 53.3625-3.99L53.3625-66.47C53.3625-68.76 55.2225-70.62 57.5125-70.62ZM23.3425-38.16C24.9625-39.78 27.5925-39.78 29.2125-38.16L57.5125-9.86L85.8125-38.16C87.4325-39.78 90.0625-39.78 91.6825-38.16C93.3025-36.54 93.3025-33.92 91.6825-32.29L60.4525-1.06C59.6725-0.28 58.6125 0.16 57.5125 0.16C56.4125 0.16 55.3525-0.28 54.5825-1.06L23.3425-32.29C21.7225-33.92 21.7225-36.54 23.3425-38.16Z"/>
  </g>
  <g id="Regular-M" transform="matrix(1 0 0 1 1393.13 1126)">
   <path d="M56.865-69.97C58.795-69.97 60.365-68.4 60.365-66.47L60.365-3.99C60.365-2.06 58.795-0.49 56.865-0.49C54.935-0.49 53.365-2.06 53.365-3.99L53.365-66.47C53.365-68.4 54.935-69.97 56.865-69.97ZM23.155-37.7C24.515-39.07 26.735-39.07 28.105-37.7L56.865-8.94L85.625-37.7C86.995-39.07 89.205-39.07 90.575-37.7C91.945-36.34 91.945-34.12 90.575-32.75L59.335-1.52C58.685-0.86 57.795-0.49 56.865-0.49C55.935-0.49 55.045-0.86 54.385-1.52L23.155-32.75C21.785-34.12 21.785-36.34 23.155-37.7Z"/>
  </g>
  <g id="Light-M" transform="matrix(1 0 0 1 1097.22 1126)">
   <path d="M56.065-69.17C57.555-69.17 58.765-67.96 58.765-66.47L58.765-3.99C58.765-2.5 57.555-1.29 56.065-1.29C54.575-1.29 53.365-2.5 53.365-3.99L53.365-66.47C53.365-67.96 54.575-69.17 56.065-69.17ZM22.915-37.14C23.975-38.19 25.685-38.19 26.735-37.14L56.065-7.81L85.395-37.14C86.445-38.19 88.155-38.19 89.215-37.14C90.265-36.08 90.265-34.37 89.215-33.32L57.975-2.08C57.465-1.58 56.785-1.29 56.065-1.29C55.345-1.29 54.665-1.58 54.155-2.08L22.915-33.32C21.865-34.37 21.865-36.08 22.915-37.14Z"/>
  </g>
  <g id="Thin-M" transform="matrix(1 0 0 1 801.56 1126)">
   <path d="M55.0143-68.12C55.9252-68.12 56.6643-67.38 56.6643-66.47L56.6643-3.99C56.6643-3.08 55.9252-2.34 55.0143-2.34C54.1022-2.34 53.3643-3.08 53.3643-3.99L53.3643-66.47C53.3643-67.38 54.1022-68.12 55.0143-68.12ZM22.6113-36.4C23.2553-37.04 24.3002-37.04 24.9442-36.4L55.0153-6.33L85.0863-36.4C85.7303-37.04 86.7753-37.04 87.4193-36.4C88.0633-35.75 88.0633-34.71 87.4193-34.06L56.1823-2.83C55.8722-2.52 55.4523-2.34 55.0153-2.34C54.5773-2.34 54.1573-2.52 53.8482-2.83L22.6113-34.06C21.9663-34.71 21.9663-35.75 22.6113-36.4Z"/>
  </g>
  <g id="Ultralight-M" transform="matrix(1 0 0 1 505.398 1126)">
   <path d="M54.4653-67.57C55.0733-67.57 55.5653-67.07 55.5653-66.47L55.5653-3.99C55.5653-3.38 55.0733-2.89 54.4653-2.89C53.8583-2.89 53.3653-3.38 53.3653-3.99L53.3653-66.47C53.3653-67.07 53.8583-67.57 54.4653-67.57ZM22.4493-36.01C22.8793-36.44 23.5753-36.44 24.0053-36.01L54.4653-5.55L84.9243-36.01C85.3543-36.44 86.0503-36.44 86.4803-36.01C86.9103-35.58 86.9103-34.88 86.4803-34.45L55.2423-3.21C55.0363-3.01 54.7563-2.89 54.4653-2.89C54.1733-2.89 53.8933-3.01 53.6873-3.21L22.4493-34.45C22.0203-34.88 22.0203-35.58 22.4493-36.01Z"/>
  </g>
  <g id="Black-S" transform="matrix(1 0 0 1 2879.83 696)">
   <path d="M53.725-66.932C57.645-66.932 60.825-63.753 60.825-59.832L60.825-10.832C60.825-6.911 57.645-3.732 53.725-3.732C49.805-3.732 46.625-6.911 46.625-10.832L46.625-59.832C46.625-63.753 49.805-66.932 53.725-66.932ZM24.205-40.353C26.975-43.125 31.475-43.125 34.245-40.353L53.725-20.873L73.205-40.353C75.975-43.125 80.475-43.125 83.245-40.353C86.015-37.58 86.015-33.084 83.245-30.312L58.745-5.812C55.975-3.039 51.475-3.039 48.705-5.812L24.205-30.312C21.435-33.084 21.435-37.58 24.205-40.353Z"/>
  </g>
  <g id="Heavy-S" transform="matrix(1 0 0 1 2583.96 696)">
   <path d="M52.8775-66.082C56.3275-66.082 59.1275-63.284 59.1275-59.832L59.1275-10.832C59.1275-7.38 56.3275-4.582 52.8775-4.582C49.4275-4.582 46.6275-7.38 46.6275-10.832L46.6275-59.832C46.6275-63.284 49.4275-66.082 52.8775-66.082ZM23.9575-39.751C26.3975-42.192 30.3575-42.192 32.7975-39.751L52.8775-19.671L72.9575-39.751C75.3975-42.192 79.3575-42.192 81.7975-39.751C84.2375-37.311 84.2375-33.353 81.7975-30.913L57.2975-6.413C54.8575-3.972 50.8975-3.972 48.4575-6.413L23.9575-30.913C21.5175-33.353 21.5175-37.311 23.9575-39.751Z"/>
  </g>
  <g id="Bold-S" transform="matrix(1 0 0 1 2288.21 696)">
   <path d="M51.92-64.927C54.85-64.927 57.22-62.554 57.22-59.627L57.22-10.627C57.22-7.7 54.85-5.327 51.92-5.327C49-5.327 46.62-7.7 46.62-10.627L46.62-59.627C46.62-62.554 49-64.927 51.92-64.927ZM23.68-38.874C25.75-40.944 29.1-40.944 31.17-38.874L51.92-18.122L72.68-38.874C74.75-40.944 78.1-40.944 80.17-38.874C82.24-36.805 82.24-33.449 80.17-31.379L55.67-6.879C53.6-4.809 50.25-4.809 48.18-6.879L23.68-31.379C21.61-33.449 21.61-36.805 23.68-38.874Z"/>
  </g>
  <g id="Semibold-S" transform="matrix(1 0 0 1 1992.14 696)">
   <path d="M51.275-64.277C53.845-64.277 55.925-62.195 55.925-59.627L55.925-10.627C55.925-8.059 53.845-5.977 51.275-5.977C48.705-5.977 46.625-8.059 46.625-10.627L46.625-59.627C46.625-62.195 48.705-64.277 51.275-64.277ZM23.485-38.415C25.305-40.231 28.245-40.231 30.065-38.415L51.275-17.203L72.485-38.415C74.305-40.231 77.245-40.231 79.065-38.415C80.875-36.599 80.875-33.655 79.065-31.839L54.565-7.339C52.745-5.523 49.805-5.523 47.985-7.339L23.485-31.839C21.675-33.655 21.675-36.599 23.485-38.415Z"/>
  </g>
  <g id="Medium-S" transform="matrix(1 0 0 1 1695.93 696)">
   <path d="M50.78-63.777C53.07-63.777 54.93-61.919 54.93-59.627L54.93-10.627C54.93-8.335 53.07-6.477 50.78-6.477C48.49-6.477 46.63-8.335 46.63-10.627L46.63-59.627C46.63-61.919 48.49-63.777 50.78-63.777ZM23.35-38.061C24.97-39.682 27.59-39.682 29.21-38.061L50.78-16.496L72.35-38.061C73.97-39.682 76.59-39.682 78.21-38.061C79.83-36.441 79.83-33.813 78.21-32.192L53.71-7.692C52.09-6.072 49.47-6.072 47.85-7.692L23.35-32.192C21.72-33.813 21.72-36.441 23.35-38.061Z"/>
  </g>
  <g id="Regular-S" transform="matrix(1 0 0 1 1399.87 696)">
   <path d="M50.125-63.127C52.055-63.127 53.625-61.56 53.625-59.627L53.625-10.627C53.625-8.694 52.055-7.127 50.125-7.127C48.195-7.127 46.625-8.694 46.625-10.627L46.625-59.627C46.625-61.56 48.195-63.127 50.125-63.127ZM23.155-37.602C24.515-38.969 26.735-38.969 28.095-37.602L50.125-15.577L72.155-37.602C73.515-38.969 75.735-38.969 77.095-37.602C78.465-36.235 78.465-34.019 77.095-32.652L52.595-8.152C51.235-6.785 49.015-6.785 47.655-8.152L23.155-32.652C21.785-34.019 21.785-36.235 23.155-37.602Z"/>
  </g>
  <g id="Light-S" transform="matrix(1 0 0 1 1103.96 696)">
   <path d="M49.325-62.327C50.815-62.327 52.025-61.118 52.025-59.627L52.025-10.627C52.025-9.136 50.815-7.927 49.325-7.927C47.835-7.927 46.625-9.136 46.625-10.627L46.625-59.627C46.625-61.118 47.835-62.327 49.325-62.327ZM22.915-37.036C23.975-38.091 25.685-38.091 26.735-37.036L49.325-14.446L71.915-37.036C72.975-38.091 74.685-38.091 75.735-37.036C76.785-35.982 76.785-34.272 75.735-33.218L51.235-8.718C50.185-7.664 48.475-7.664 47.415-8.718L22.915-33.218C21.865-34.272 21.865-35.982 22.915-37.036Z"/>
  </g>
  <g id="Thin-S" transform="matrix(1 0 0 1 808.297 696)">
   <path d="M48.2775-61.277C49.1885-61.277 49.9275-60.538 49.9275-59.627L49.9275-10.627C49.9275-9.716 49.1885-8.977 48.2775-8.977C47.3655-8.977 46.6275-9.716 46.6275-10.627L46.6275-59.627C46.6275-60.538 47.3655-61.277 48.2775-61.277ZM22.6105-36.294C23.2545-36.938 24.2995-36.938 24.9435-36.294L48.2775-12.96L71.6105-36.294C72.2545-36.938 73.2995-36.938 73.9435-36.294C74.5885-35.649 74.5885-34.604 73.9435-33.96L49.4435-9.46C48.7995-8.816 47.7545-8.816 47.1105-9.46L22.6105-33.96C21.9665-34.604 21.9665-35.649 22.6105-36.294Z"/>
  </g>
  <g id="Ultralight-S" transform="matrix(1 0 0 1 512.136 696)">
   <path d="M47.727-60.727C48.335-60.727 48.827-60.235 48.827-59.627L48.827-10.627C48.827-10.02 48.335-9.527 47.727-9.527C47.12-9.527 46.627-10.02 46.627-10.627L46.627-59.627C46.627-60.235 47.12-60.727 47.727-60.727ZM22.45-35.905C22.879-36.334 23.576-36.334 24.005-35.905L47.727-12.183L71.45-35.905C71.879-36.334 72.576-36.334 73.005-35.905C73.435-35.475 73.435-34.779 73.005-34.349L48.505-9.849C48.076-9.42 47.379-9.42 46.95-9.849L22.45-34.349C22.02-34.779 22.02-35.475 22.45-35.905Z"/>
  </g>
 </g>
</svg>
