<?xml version="1.0" encoding="UTF-8"?>
<!--Generator: Apple Native CoreSVG 175-->
<!DOCTYPE svg
PUBLIC "-//W3C//DTD SVG 1.1//EN"
       "http://www.w3.org/Graphics/SVG/1.1/DTD/svg11.dtd">
<svg version="1.1" xmlns="http://www.w3.org/2000/svg" xmlns:xlink="http://www.w3.org/1999/xlink" width="3300" height="2200">
 <!--glyph: "", point size: 100.0, font version: "17.0d12e1", template writer version: "65.1"-->
 <style>.hierarchical-0:secondary {fill:#4D4D4D}
.hierarchical-1:primary {fill:#212121}

.SFSymbolsPreview212121 {fill:#212121;opacity:1.0}
.SFSymbolsPreview4D4D4D {fill:#4D4D4D;opacity:1.0}
</style>
 <g id="Notes">
  <rect height="2200" id="artboard" style="fill:white;opacity:1" width="3300" x="0" y="0"/>
  <line style="fill:none;stroke:black;opacity:1;stroke-width:0.5;" x1="263" x2="3036" y1="292" y2="292"/>
  <text style="stroke:none;fill:black;font-family:sans-serif;font-size:13;font-weight:bold;" transform="matrix(1 0 0 1 263 322)">Weight/Scale Variations</text>
  <text style="stroke:none;fill:black;font-family:sans-serif;font-size:13;text-anchor:middle;" transform="matrix(1 0 0 1 559.711 322)">Ultralight</text>
  <text style="stroke:none;fill:black;font-family:sans-serif;font-size:13;text-anchor:middle;" transform="matrix(1 0 0 1 856.422 322)">Thin</text>
  <text style="stroke:none;fill:black;font-family:sans-serif;font-size:13;text-anchor:middle;" transform="matrix(1 0 0 1 1153.13 322)">Light</text>
  <text style="stroke:none;fill:black;font-family:sans-serif;font-size:13;text-anchor:middle;" transform="matrix(1 0 0 1 1449.84 322)">Regular</text>
  <text style="stroke:none;fill:black;font-family:sans-serif;font-size:13;text-anchor:middle;" transform="matrix(1 0 0 1 1746.56 322)">Medium</text>
  <text style="stroke:none;fill:black;font-family:sans-serif;font-size:13;text-anchor:middle;" transform="matrix(1 0 0 1 2043.27 322)">Semibold</text>
  <text style="stroke:none;fill:black;font-family:sans-serif;font-size:13;text-anchor:middle;" transform="matrix(1 0 0 1 2339.98 322)">Bold</text>
  <text style="stroke:none;fill:black;font-family:sans-serif;font-size:13;text-anchor:middle;" transform="matrix(1 0 0 1 2636.69 322)">Heavy</text>
  <text style="stroke:none;fill:black;font-family:sans-serif;font-size:13;text-anchor:middle;" transform="matrix(1 0 0 1 2933.4 322)">Black</text>
  <line style="fill:none;stroke:black;opacity:1;stroke-width:0.5;" x1="263" x2="3036" y1="1903" y2="1903"/>
  <g transform="matrix(1 0 0 1 263 1933)">
   <path d="M9.24805 0.830078Q10.8691 0.830078 12.2949 0.214844Q13.7207-0.400391 14.8096-1.49414Q15.8984-2.58789 16.5186-4.01367Q17.1387-5.43945 17.1387-7.05078Q17.1387-8.66211 16.5186-10.0879Q15.8984-11.5137 14.8047-12.6074Q13.7109-13.7012 12.2852-14.3164Q10.8594-14.9316 9.23828-14.9316Q7.62695-14.9316 6.20117-14.3164Q4.77539-13.7012 3.69141-12.6074Q2.60742-11.5137 1.9873-10.0879Q1.36719-8.66211 1.36719-7.05078Q1.36719-5.43945 1.9873-4.01367Q2.60742-2.58789 3.69629-1.49414Q4.78516-0.400391 6.21094 0.214844Q7.63672 0.830078 9.24805 0.830078ZM9.24805-0.654297Q7.91992-0.654297 6.7627-1.14746Q5.60547-1.64062 4.73145-2.51953Q3.85742-3.39844 3.36426-4.56055Q2.87109-5.72266 2.87109-7.05078Q2.87109-8.37891 3.35938-9.54102Q3.84766-10.7031 4.72168-11.582Q5.5957-12.4609 6.75293-12.9541Q7.91016-13.4473 9.23828-13.4473Q10.5762-13.4473 11.7334-12.9541Q12.8906-12.4609 13.7695-11.582Q14.6484-10.7031 15.1465-9.54102Q15.6445-8.37891 15.6445-7.05078Q15.6445-5.72266 15.1514-4.56055Q14.6582-3.39844 13.7842-2.51953Q12.9102-1.64062 11.748-1.14746Q10.5859-0.654297 9.24805-0.654297ZM5.6543-7.05078Q5.6543-6.72852 5.85938-6.52832Q6.06445-6.32812 6.40625-6.32812L8.51562-6.32812L8.51562-4.20898Q8.51562-3.88672 8.71094-3.67676Q8.90625-3.4668 9.23828-3.4668Q9.56055-3.4668 9.77051-3.67676Q9.98047-3.88672 9.98047-4.20898L9.98047-6.32812L12.0898-6.32812Q12.4219-6.32812 12.627-6.52832Q12.832-6.72852 12.832-7.05078Q12.832-7.38281 12.627-7.58789Q12.4219-7.79297 12.0898-7.79297L9.98047-7.79297L9.98047-9.90234Q9.98047-10.2344 9.77051-10.4443Q9.56055-10.6543 9.23828-10.6543Q8.90625-10.6543 8.71094-10.4443Q8.51562-10.2344 8.51562-9.90234L8.51562-7.79297L6.40625-7.79297Q6.06445-7.79297 5.85938-7.58789Q5.6543-7.38281 5.6543-7.05078Z"/>
  </g>
  <g transform="matrix(1 0 0 1 281.867 1933)">
   <path d="M11.709 2.91016Q13.75 2.91016 15.5518 2.12891Q17.3535 1.34766 18.7305-0.0292969Q20.1074-1.40625 20.8887-3.20801Q21.6699-5.00977 21.6699-7.05078Q21.6699-9.0918 20.8887-10.8936Q20.1074-12.6953 18.7305-14.0723Q17.3535-15.4492 15.5469-16.2305Q13.7402-17.0117 11.6992-17.0117Q9.6582-17.0117 7.85645-16.2305Q6.05469-15.4492 4.68262-14.0723Q3.31055-12.6953 2.5293-10.8936Q1.74805-9.0918 1.74805-7.05078Q1.74805-5.00977 2.5293-3.20801Q3.31055-1.40625 4.6875-0.0292969Q6.06445 1.34766 7.86621 2.12891Q9.66797 2.91016 11.709 2.91016ZM11.709 1.25Q9.98047 1.25 8.47656 0.605469Q6.97266-0.0390625 5.83496-1.17676Q4.69727-2.31445 4.05762-3.81836Q3.41797-5.32227 3.41797-7.05078Q3.41797-8.7793 4.05762-10.2832Q4.69727-11.7871 5.83008-12.9297Q6.96289-14.0723 8.4668-14.7119Q9.9707-15.3516 11.6992-15.3516Q13.4277-15.3516 14.9316-14.7119Q16.4355-14.0723 17.5781-12.9297Q18.7207-11.7871 19.3652-10.2832Q20.0098-8.7793 20.0098-7.05078Q20.0098-5.32227 19.3701-3.81836Q18.7305-2.31445 17.5928-1.17676Q16.4551-0.0390625 14.9463 0.605469Q13.4375 1.25 11.709 1.25ZM7.17773-7.05078Q7.17773-6.69922 7.41211-6.47461Q7.64648-6.25 8.01758-6.25L10.8887-6.25L10.8887-3.36914Q10.8887-2.99805 11.1133-2.76855Q11.3379-2.53906 11.6895-2.53906Q12.0605-2.53906 12.29-2.76855Q12.5195-2.99805 12.5195-3.36914L12.5195-6.25L15.4004-6.25Q15.7715-6.25 16.001-6.47461Q16.2305-6.69922 16.2305-7.05078Q16.2305-7.42188 16.001-7.65137Q15.7715-7.88086 15.4004-7.88086L12.5195-7.88086L12.5195-10.752Q12.5195-11.1328 12.29-11.3623Q12.0605-11.5918 11.6895-11.5918Q11.3379-11.5918 11.1133-11.3574Q10.8887-11.123 10.8887-10.752L10.8887-7.88086L8.01758-7.88086Q7.63672-7.88086 7.40723-7.65137Q7.17773-7.42188 7.17773-7.05078Z"/>
  </g>
  <g transform="matrix(1 0 0 1 305.646 1933)">
   <path d="M14.9707 5.66406Q17.0605 5.66406 18.96 5.01465Q20.8594 4.36523 22.4512 3.19336Q24.043 2.02148 25.2197 0.429688Q26.3965-1.16211 27.0459-3.06641Q27.6953-4.9707 27.6953-7.05078Q27.6953-9.14062 27.0459-11.04Q26.3965-12.9395 25.2197-14.5312Q24.043-16.123 22.4512-17.2998Q20.8594-18.4766 18.9551-19.126Q17.0508-19.7754 14.9609-19.7754Q12.8711-19.7754 10.9717-19.126Q9.07227-18.4766 7.48535-17.2998Q5.89844-16.123 4.72168-14.5312Q3.54492-12.9395 2.90039-11.04Q2.25586-9.14062 2.25586-7.05078Q2.25586-4.9707 2.90527-3.06641Q3.55469-1.16211 4.72656 0.429688Q5.89844 2.02148 7.49023 3.19336Q9.08203 4.36523 10.9814 5.01465Q12.8809 5.66406 14.9707 5.66406ZM14.9707 3.84766Q13.1641 3.84766 11.5283 3.2959Q9.89258 2.74414 8.53516 1.74805Q7.17773 0.751953 6.17676-0.610352Q5.17578-1.97266 4.62891-3.6084Q4.08203-5.24414 4.08203-7.05078Q4.08203-8.86719 4.62891-10.5029Q5.17578-12.1387 6.17188-13.501Q7.16797-14.8633 8.52539-15.8594Q9.88281-16.8555 11.5186-17.4023Q13.1543-17.9492 14.9609-17.9492Q16.7773-17.9492 18.4131-17.4023Q20.0488-16.8555 21.4111-15.8594Q22.7734-14.8633 23.7695-13.501Q24.7656-12.1387 25.3174-10.5029Q25.8691-8.86719 25.8691-7.05078Q25.8789-5.24414 25.332-3.6084Q24.7852-1.97266 23.7842-0.610352Q22.7832 0.751953 21.4209 1.74805Q20.0586 2.74414 18.4229 3.2959Q16.7871 3.84766 14.9707 3.84766ZM9.19922-7.05078Q9.19922-6.66992 9.45801-6.4209Q9.7168-6.17188 10.1172-6.17188L14.0625-6.17188L14.0625-2.2168Q14.0625-1.81641 14.3115-1.55762Q14.5605-1.29883 14.9512-1.29883Q15.3516-1.29883 15.6104-1.55273Q15.8691-1.80664 15.8691-2.2168L15.8691-6.17188L19.8242-6.17188Q20.2246-6.17188 20.4785-6.4209Q20.7324-6.66992 20.7324-7.05078Q20.7324-7.46094 20.4785-7.71484Q20.2246-7.96875 19.8242-7.96875L15.8691-7.96875L15.8691-11.9141Q15.8691-12.3242 15.6104-12.583Q15.3516-12.8418 14.9512-12.8418Q14.5605-12.8418 14.3115-12.583Q14.0625-12.3242 14.0625-11.9141L14.0625-7.96875L10.1172-7.96875Q9.70703-7.96875 9.45312-7.71484Q9.19922-7.46094 9.19922-7.05078Z"/>
  </g>
  <text style="stroke:none;fill:black;font-family:sans-serif;font-size:13;font-weight:bold;" transform="matrix(1 0 0 1 263 1953)">Design Variations</text>
  <text style="stroke:none;fill:black;font-family:sans-serif;font-size:13;" transform="matrix(1 0 0 1 263 1971)">Symbols are supported in up to nine weights and three scales.</text>
  <text style="stroke:none;fill:black;font-family:sans-serif;font-size:13;" transform="matrix(1 0 0 1 263 1989)">For optimal layout with text and other symbols, vertically align</text>
  <text style="stroke:none;fill:black;font-family:sans-serif;font-size:13;" transform="matrix(1 0 0 1 263 2007)">symbols with the adjacent text.</text>
  <line style="fill:none;stroke:#00AEEF;stroke-width:0.5;opacity:1.0;" x1="776" x2="776" y1="1919" y2="1933"/>
  <g transform="matrix(1 0 0 1 776 1933)">
   <path d="M3.31055 0.15625Q3.70117 0.15625 3.91602-0.00976562Q4.13086-0.175781 4.26758-0.585938L5.52734-4.0332L11.2891-4.0332L12.5488-0.585938Q12.6855-0.175781 12.9004-0.00976562Q13.1152 0.15625 13.4961 0.15625Q13.8867 0.15625 14.1162-0.0585938Q14.3457-0.273438 14.3457-0.644531Q14.3457-0.869141 14.2383-1.17188L9.6582-13.3691Q9.48242-13.8184 9.17969-14.043Q8.87695-14.2676 8.4082-14.2676Q7.5-14.2676 7.17773-13.3789L2.59766-1.16211Q2.49023-0.859375 2.49023-0.634766Q2.49023-0.263672 2.70996-0.0537109Q2.92969 0.15625 3.31055 0.15625ZM6.00586-5.51758L8.37891-12.0898L8.42773-12.0898L10.8008-5.51758Z"/>
  </g>
  <line style="fill:none;stroke:#00AEEF;stroke-width:0.5;opacity:1.0;" x1="793.197" x2="793.197" y1="1919" y2="1933"/>
  <text style="stroke:none;fill:black;font-family:sans-serif;font-size:13;font-weight:bold;" transform="matrix(1 0 0 1 776 1953)">Margins</text>
  <text style="stroke:none;fill:black;font-family:sans-serif;font-size:13;" transform="matrix(1 0 0 1 776 1971)">Leading and trailing margins on the left and right side of each symbol</text>
  <text style="stroke:none;fill:black;font-family:sans-serif;font-size:13;" transform="matrix(1 0 0 1 776 1989)">can be adjusted by modifying the x-location of the margin guidelines.</text>
  <text style="stroke:none;fill:black;font-family:sans-serif;font-size:13;" transform="matrix(1 0 0 1 776 2007)">Modifications are automatically applied proportionally to all</text>
  <text style="stroke:none;fill:black;font-family:sans-serif;font-size:13;" transform="matrix(1 0 0 1 776 2025)">scales and weights.</text>
  <g transform="matrix(1 0 0 1 1289 1933)">
   <path d="M2.8418 1.86523L4.54102 3.57422Q5.18555 4.22852 5.90332 4.17969Q6.62109 4.13086 7.31445 3.35938L18.0078-8.42773L17.041-9.4043L6.42578 2.27539Q6.16211 2.57812 5.89355 2.61719Q5.625 2.65625 5.27344 2.30469L4.10156 1.14258Q3.75 0.791016 3.79395 0.522461Q3.83789 0.253906 4.14062-0.0195312L15.6152-10.8203L14.6387-11.7871L3.04688-0.898438Q2.30469-0.214844 2.25098 0.498047Q2.19727 1.21094 2.8418 1.86523ZM9.25781-16.3281Q8.94531-16.0254 8.90625-15.6348Q8.86719-15.2441 9.04297-14.9512Q9.21875-14.6777 9.55566-14.541Q9.89258-14.4043 10.3809-14.5215Q11.4746-14.7754 12.5977-14.7314Q13.7207-14.6875 14.7949-13.9844L14.209-12.5293Q13.9551-11.9043 14.0674-11.4404Q14.1797-10.9766 14.5801-10.5664L16.875-8.25195Q17.2363-7.88086 17.5781-7.82227Q17.9199-7.76367 18.3398-7.8418L19.4043-8.03711L20.0684-7.36328L20.0293-6.80664Q20-6.43555 20.1221-6.12305Q20.2441-5.81055 20.6055-5.44922L21.3672-4.70703Q21.7285-4.3457 22.1533-4.33105Q22.5781-4.31641 22.9297-4.66797L25.8398-7.58789Q26.1914-7.93945 26.1816-8.35449Q26.1719-8.76953 25.8105-9.13086L25.0391-9.89258Q24.6875-10.2539 24.3799-10.3857Q24.0723-10.5176 23.7109-10.4883L23.1348-10.4395L22.4902-11.0742L22.7344-12.1973Q22.832-12.6172 22.6953-12.9834Q22.5586-13.3496 22.1191-13.7891L19.9219-15.9766Q18.6719-17.2168 17.2607-17.8369Q15.8496-18.457 14.4189-18.4814Q12.9883-18.5059 11.665-17.959Q10.3418-17.4121 9.25781-16.3281ZM10.752-15.957Q11.6602-16.6211 12.7002-16.9043Q13.7402-17.1875 14.8047-17.085Q15.8691-16.9824 16.8701-16.5137Q17.8711-16.0449 18.7012-15.2051L21.1328-12.793Q21.3086-12.6172 21.3525-12.4512Q21.3965-12.2852 21.3379-12.0312L21.0156-10.5469L22.5195-9.0625L23.5059-9.12109Q23.6914-9.13086 23.7891-9.09668Q23.8867-9.0625 24.0332-8.91602L24.6094-8.33984L22.168-5.89844L21.5918-6.47461Q21.4453-6.62109 21.4062-6.71875Q21.3672-6.81641 21.377-7.01172L21.4453-7.98828L19.9512-9.47266L18.4277-9.21875Q18.1836-9.16992 18.042-9.2041Q17.9004-9.23828 17.7148-9.41406L15.7129-11.416Q15.5176-11.5918 15.4932-11.7529Q15.4688-11.9141 15.5859-12.1875L16.4648-14.2773Q15.293-15.3711 13.8281-15.791Q12.3633-16.2109 10.8398-15.7617Q10.7227-15.7324 10.6885-15.8057Q10.6543-15.8789 10.752-15.957Z"/>
  </g>
  <text style="stroke:none;fill:black;font-family:sans-serif;font-size:13;font-weight:bold;" transform="matrix(1 0 0 1 1289 1953)">Exporting</text>
  <text style="stroke:none;fill:black;font-family:sans-serif;font-size:13;" transform="matrix(1 0 0 1 1289 1971)">Symbols should be outlined when exporting to ensure the</text>
  <text style="stroke:none;fill:black;font-family:sans-serif;font-size:13;" transform="matrix(1 0 0 1 1289 1989)">design is preserved when submitting to Xcode.</text>
  <text id="template-version" style="stroke:none;fill:black;font-family:sans-serif;font-size:13;text-anchor:end;" transform="matrix(1 0 0 1 3036 1933)">Template v.3.0</text>
  <text style="stroke:none;fill:black;font-family:sans-serif;font-size:13;text-anchor:end;" transform="matrix(1 0 0 1 3036 1951)">Requires Xcode 13 or greater</text>
  <text id="descriptive-name" style="stroke:none;fill:black;font-family:sans-serif;font-size:13;text-anchor:end;" transform="matrix(1 0 0 1 3036 1969)">Generated from stop-circle</text>
  <text style="stroke:none;fill:black;font-family:sans-serif;font-size:13;text-anchor:end;" transform="matrix(1 0 0 1 3036 1987)">Typeset at 100 points</text>
  <text style="stroke:none;fill:black;font-family:sans-serif;font-size:13;" transform="matrix(1 0 0 1 263 726)">Small</text>
  <text style="stroke:none;fill:black;font-family:sans-serif;font-size:13;" transform="matrix(1 0 0 1 263 1156)">Medium</text>
  <text style="stroke:none;fill:black;font-family:sans-serif;font-size:13;" transform="matrix(1 0 0 1 263 1586)">Large</text>
 </g>
 <g id="Guides">
  <g id="H-reference" style="fill:#27AAE1;stroke:none;" transform="matrix(1 0 0 1 339 696)">
   <path d="M0.976562 0L3.66211 0L29.3457-67.1387L30.0293-67.1387L30.0293-70.459L28.125-70.459ZM11.6699-24.4629L46.9727-24.4629L46.2402-26.709L12.4512-26.709ZM55.127 0L57.7637 0L30.6152-70.459L29.4434-70.459L29.4434-67.1387Z"/>
  </g>
  <line id="Baseline-S" style="fill:none;stroke:#27AAE1;opacity:1;stroke-width:0.5;" x1="263" x2="3036" y1="696" y2="696"/>
  <line id="Capline-S" style="fill:none;stroke:#27AAE1;opacity:1;stroke-width:0.5;" x1="263" x2="3036" y1="625.541" y2="625.541"/>
  <g id="H-reference" style="fill:#27AAE1;stroke:none;" transform="matrix(1 0 0 1 339 1126)">
   <path d="M0.976562 0L3.66211 0L29.3457-67.1387L30.0293-67.1387L30.0293-70.459L28.125-70.459ZM11.6699-24.4629L46.9727-24.4629L46.2402-26.709L12.4512-26.709ZM55.127 0L57.7637 0L30.6152-70.459L29.4434-70.459L29.4434-67.1387Z"/>
  </g>
  <line id="Baseline-M" style="fill:none;stroke:#27AAE1;opacity:1;stroke-width:0.5;" x1="263" x2="3036" y1="1126" y2="1126"/>
  <line id="Capline-M" style="fill:none;stroke:#27AAE1;opacity:1;stroke-width:0.5;" x1="263" x2="3036" y1="1055.54" y2="1055.54"/>
  <g id="H-reference" style="fill:#27AAE1;stroke:none;" transform="matrix(1 0 0 1 339 1556)">
   <path d="M0.976562 0L3.66211 0L29.3457-67.1387L30.0293-67.1387L30.0293-70.459L28.125-70.459ZM11.6699-24.4629L46.9727-24.4629L46.2402-26.709L12.4512-26.709ZM55.127 0L57.7637 0L30.6152-70.459L29.4434-70.459L29.4434-67.1387Z"/>
  </g>
  <line id="Baseline-L" style="fill:none;stroke:#27AAE1;opacity:1;stroke-width:0.5;" x1="263" x2="3036" y1="1556" y2="1556"/>
  <line id="Capline-L" style="fill:none;stroke:#27AAE1;opacity:1;stroke-width:0.5;" x1="263" x2="3036" y1="1485.54" y2="1485.54"/>
  <line id="left-margin-Regular-M" style="fill:none;stroke:#00AEEF;stroke-width:0.5;opacity:1.0;" x1="1392.45" x2="1392.45" y1="1030.78" y2="1150.12"/>
  <line id="right-margin-Regular-M" style="fill:none;stroke:#00AEEF;stroke-width:0.5;opacity:1.0;" x1="1507.24" x2="1507.24" y1="1030.78" y2="1150.12"/>
 </g>
 <g id="Symbols">
  <g id="Black-L" transform="matrix(1 0 0 1 2860.15 1556)">
   <path class="hierarchical-0:secondary SFSymbolsPreview4D4D4D" d="M9.43-35.23C9.43-70.56 38.07-99.21 73.4-99.21C108.73-99.21 137.38-70.56 137.38-35.23C137.38 0.1 108.73 28.74 73.4 28.74C38.07 28.74 9.43 0.1 9.43-35.23ZM73.4-85.01C45.91-85.01 23.63-62.72 23.63-35.23C23.63-7.74 45.91 14.54 73.4 14.54C100.89 14.54 123.18-7.74 123.18-35.23C123.18-62.72 100.89-85.01 73.4-85.01Z"/>
   <path class="hierarchical-1:primary SFSymbolsPreview212121" d="M49.24-52.29C49.24-56.21 52.42-59.39 56.34-59.39L90.46-59.39C94.38-59.39 97.56-56.21 97.56-52.29L97.56-18.17C97.56-14.25 94.38-11.07 90.46-11.07L56.34-11.07C52.42-11.07 49.24-14.25 49.24-18.17L49.24-52.29ZM63.44-45.19L63.44-25.27L83.36-25.27L83.36-45.19L63.44-45.19Z"/>
  </g>
  <g id="Heavy-L" transform="matrix(1 0 0 1 2564.29 1556)">
   <path class="hierarchical-0:secondary SFSymbolsPreview4D4D4D" d="M9.43-35.23C9.43-70.09 37.7-98.36 72.56-98.36C107.42-98.36 135.68-70.09 135.68-35.23C135.68-0.37 107.42 27.89 72.56 27.89C37.7 27.89 9.43-0.37 9.43-35.23ZM72.56-85.86C44.6-85.86 21.93-63.19 21.93-35.23C21.93-7.27 44.6 15.39 72.56 15.39C100.52 15.39 123.18-7.27 123.18-35.23C123.18-63.19 100.52-85.86 72.56-85.86Z"/>
   <path class="hierarchical-1:primary SFSymbolsPreview212121" d="M49.25-52.29C49.25-55.74 52.04-58.54 55.5-58.54L89.62-58.54C93.07-58.54 95.87-55.74 95.87-52.29L95.87-18.17C95.87-14.72 93.07-11.92 89.62-11.92L55.5-11.92C52.04-11.92 49.25-14.72 49.25-18.17L49.25-52.29ZM61.75-46.04L61.75-24.42L83.37-24.42L83.37-46.04L61.75-46.04Z"/>
  </g>
  <g id="Bold-L" transform="matrix(1 0 0 1 2268.53 1556)">
   <path class="hierarchical-0:secondary SFSymbolsPreview4D4D4D" d="M9.43-35.23C9.43-69.57 37.27-97.41 71.61-97.41C105.94-97.41 133.78-69.57 133.78-35.23C133.78-0.89 105.94 26.94 71.61 26.94C37.27 26.94 9.43-0.89 9.43-35.23ZM71.61-86.81C43.12-86.81 20.03-63.72 20.03-35.23C20.03-6.75 43.12 16.34 71.61 16.34C100.09 16.34 123.18-6.75 123.18-35.23C123.18-63.72 100.09-86.81 71.61-86.81Z"/>
   <path class="hierarchical-1:primary SFSymbolsPreview212121" d="M49.24-52.29C49.24-55.22 51.62-57.59 54.54-57.59L88.67-57.59C91.59-57.59 93.97-55.22 93.97-52.29L93.97-18.17C93.97-15.24 91.59-12.87 88.67-12.87L54.54-12.87C51.62-12.87 49.24-15.24 49.24-18.17L49.24-52.29ZM59.84-46.99L59.84-23.47L83.37-23.47L83.37-46.99L59.84-46.99Z"/>
  </g>
  <g id="Semibold-L" transform="matrix(1 0 0 1 1972.47 1556)">
   <path class="hierarchical-0:secondary SFSymbolsPreview4D4D4D" d="M9.43-35.23C9.43-69.21 36.97-96.76 70.95-96.76C104.93-96.76 132.48-69.21 132.48-35.23C132.48-1.25 104.93 26.29 70.95 26.29C36.97 26.29 9.43-1.25 9.43-35.23ZM70.95-87.46C42.11-87.46 18.73-64.07 18.73-35.23C18.73-6.39 42.11 16.99 70.95 16.99C99.79 16.99 123.18-6.39 123.18-35.23C123.18-64.07 99.79-87.46 70.95-87.46Z"/>
   <path class="hierarchical-1:primary SFSymbolsPreview212121" d="M49.24-52.29C49.24-54.86 51.32-56.94 53.89-56.94L88.01-56.94C90.58-56.94 92.66-54.86 92.66-52.29L92.66-18.17C92.66-15.6 90.58-13.52 88.01-13.52L53.89-13.52C51.32-13.52 49.24-15.6 49.24-18.17L49.24-52.29ZM58.54-47.64L58.54-22.82L83.36-22.82L83.36-47.64L58.54-47.64Z"/>
  </g>
  <g id="Medium-L" transform="matrix(1 0 0 1 1676.26 1556)">
   <path class="hierarchical-0:secondary SFSymbolsPreview4D4D4D" d="M9.43-35.23C9.43-68.93 36.75-96.26 70.45-96.26C104.15-96.26 131.48-68.93 131.48-35.23C131.48-1.53 104.15 25.79 70.45 25.79C36.75 25.79 9.43-1.53 9.43-35.23ZM70.45-87.96C41.33-87.96 17.73-64.35 17.73-35.23C17.73-6.11 41.33 17.49 70.45 17.49C99.57 17.49 123.18-6.11 123.18-35.23C123.18-64.35 99.57-87.96 70.45-87.96Z"/>
   <path class="hierarchical-1:primary SFSymbolsPreview212121" d="M49.24-52.29C49.24-54.59 51.1-56.44 53.39-56.44L87.51-56.44C89.8-56.44 91.66-54.59 91.66-52.29L91.66-18.17C91.66-15.88 89.8-14.02 87.51-14.02L53.39-14.02C51.1-14.02 49.24-15.88 49.24-18.17L49.24-52.29ZM57.54-48.14L57.54-22.32L83.36-22.32L83.36-48.14L57.54-48.14Z"/>
  </g>
  <g id="Regular-L" transform="matrix(1 0 0 1 1380.19 1556)">
   <path class="hierarchical-0:secondary SFSymbolsPreview4D4D4D" d="M9.43-35.23C9.43-68.57 36.47-95.61 69.81-95.61C103.15-95.61 130.19-68.57 130.19-35.23C130.19-1.89 103.15 25.14 69.81 25.14C36.47 25.14 9.43-1.89 9.43-35.23ZM69.81-88.61C40.33-88.61 16.43-64.71 16.43-35.23C16.43-5.75 40.33 18.14 69.81 18.14C99.29 18.14 123.19-5.75 123.19-35.23C123.19-64.71 99.29-88.61 69.81-88.61Z"/>
   <path class="hierarchical-1:primary SFSymbolsPreview212121" d="M49.25-52.29C49.25-54.23 50.81-55.79 52.75-55.79L86.87-55.79C88.81-55.79 90.37-54.23 90.37-52.29L90.37-18.17C90.37-16.23 88.81-14.67 86.87-14.67L52.75-14.67C50.81-14.67 49.25-16.23 49.25-18.17L49.25-52.29ZM56.25-48.79L56.25-21.67L83.37-21.67L83.37-48.79L56.25-48.79Z"/>
  </g>
  <g id="Light-L" transform="matrix(1 0 0 1 1084.28 1556)">
   <path class="hierarchical-0:secondary SFSymbolsPreview4D4D4D" d="M9.43-35.23C9.43-68.13 36.11-94.8 69.01-94.8C101.91-94.8 128.58-68.13 128.58-35.23C128.58-2.33 101.91 24.35 69.01 24.35C36.11 24.35 9.43-2.33 9.43-35.23ZM69.01-89.4C39.09-89.4 14.83-65.15 14.83-35.23C14.83-5.31 39.09 18.95 69.01 18.95C98.93 18.95 123.18-5.31 123.18-35.23C123.18-65.15 98.93-89.4 69.01-89.4Z"/>
   <path class="hierarchical-1:primary SFSymbolsPreview212121" d="M49.25-52.29C49.25-53.78 50.46-54.99 51.95-54.99L86.07-54.99C87.56-54.99 88.77-53.78 88.77-52.29L88.77-18.17C88.77-16.68 87.56-15.47 86.07-15.47L51.95-15.47C50.46-15.47 49.25-16.68 49.25-18.17L49.25-52.29ZM54.65-49.59L54.65-20.87L83.37-20.87L83.37-49.59L54.65-49.59Z"/>
  </g>
  <g id="Thin-L" transform="matrix(1 0 0 1 788.622 1556)">
   <path class="hierarchical-0:secondary SFSymbolsPreview4D4D4D" d="M9.43-35.23C9.43-67.55 35.632-93.76 67.955-93.76C100.277-93.76 126.48-67.55 126.48-35.23C126.48-2.91 100.277 23.29 67.955 23.29C35.632 23.29 9.43-2.91 9.43-35.23ZM67.955-90.46C37.455-90.46 12.73-65.73 12.73-35.23C12.73-4.73 37.455 19.99 67.955 19.99C98.455 19.99 123.18-4.73 123.18-35.23C123.18-65.73 98.455-90.46 67.955-90.46Z"/>
   <path class="hierarchical-1:primary SFSymbolsPreview212121" d="M49.242-52.29C49.242-53.2 49.981-53.94 50.892-53.94L85.017-53.94C85.928-53.94 86.667-53.2 86.667-52.29L86.667-18.17C86.667-17.26 85.928-16.52 85.017-16.52L50.892-16.52C49.981-16.52 49.242-17.26 49.242-18.17L49.242-52.29ZM52.542-50.64L52.542-19.82L83.367-19.82L83.367-50.64L52.542-50.64Z"/>
  </g>
  <g id="Ultralight-L" transform="matrix(1 0 0 1 492.461 1556)">
   <path class="hierarchical-0:secondary SFSymbolsPreview4D4D4D" d="M9.43-35.23C9.43-67.25 35.387-93.21 67.405-93.21C99.424-93.21 125.38-67.25 125.38-35.23C125.38-3.21 99.424 22.74 67.405 22.74C35.387 22.74 9.43-3.21 9.43-35.23ZM67.405-91.01C36.602-91.01 11.63-66.03 11.63-35.23C11.63-4.43 36.602 20.54 67.405 20.54C98.209 20.54 123.18-4.43 123.18-35.23C123.18-66.03 98.209-91.01 67.405-91.01Z"/>
   <path class="hierarchical-1:primary SFSymbolsPreview212121" d="M49.243-52.29C49.243-52.9 49.735-53.39 50.343-53.39L84.468-53.39C85.075-53.39 85.568-52.9 85.568-52.29L85.568-18.17C85.568-17.56 85.075-17.07 84.468-17.07L50.343-17.07C49.735-17.07 49.243-17.56 49.243-18.17L49.243-52.29ZM51.443-51.19L51.443-19.27L83.368-19.27L83.368-51.19L51.443-51.19Z"/>
  </g>
  <g id="Black-M" transform="matrix(1 0 0 1 2872.4 1126)">
   <path class="hierarchical-0:secondary SFSymbolsPreview4D4D4D" d="M9.43-35.23C9.43-63.8 32.59-86.96 61.15-86.96C89.72-86.96 112.88-63.8 112.88-35.23C112.88-6.66 89.72 16.49 61.15 16.49C32.59 16.49 9.43-6.66 9.43-35.23ZM61.15-72.76C40.43-72.76 23.63-55.95 23.63-35.23C23.63-14.51 40.43 2.29 61.15 2.29C81.88 2.29 98.68-14.51 98.68-35.23C98.68-55.95 81.88-72.76 61.15-72.76Z"/>
   <path class="hierarchical-1:primary SFSymbolsPreview212121" d="M40.67-48.62C40.67-52.54 43.85-55.72 47.77-55.72L74.54-55.72C78.46-55.72 81.64-52.54 81.64-48.62L81.64-21.84C81.64-17.92 78.46-14.74 74.54-14.74L47.77-14.74C43.85-14.74 40.67-17.92 40.67-21.84L40.67-48.62ZM54.87-41.52L54.87-28.94L67.44-28.94L67.44-41.52L54.87-41.52Z"/>
  </g>
  <g id="Heavy-M" transform="matrix(1 0 0 1 2576.54 1126)">
   <path class="hierarchical-0:secondary SFSymbolsPreview4D4D4D" d="M9.43-35.23C9.43-63.33 32.21-86.11 60.3-86.11C88.4-86.11 111.18-63.33 111.18-35.23C111.18-7.13 88.4 15.64 60.3 15.64C32.21 15.64 9.43-7.13 9.43-35.23ZM60.3-73.61C39.11-73.61 21.93-56.42 21.93-35.23C21.93-14.04 39.11 3.14 60.3 3.14C81.5 3.14 98.68-14.04 98.68-35.23C98.68-56.42 81.5-73.61 60.3-73.61Z"/>
   <path class="hierarchical-1:primary SFSymbolsPreview212121" d="M40.67-48.62C40.67-52.07 43.47-54.87 46.92-54.87L73.69-54.87C77.14-54.87 79.94-52.07 79.94-48.62L79.94-21.84C79.94-18.39 77.14-15.59 73.69-15.59L46.92-15.59C43.47-15.59 40.67-18.39 40.67-21.84L40.67-48.62ZM53.17-42.37L53.17-28.09L67.44-28.09L67.44-42.37L53.17-42.37Z"/>
  </g>
  <g id="Bold-M" transform="matrix(1 0 0 1 2280.78 1126)">
   <path class="hierarchical-0:secondary SFSymbolsPreview4D4D4D" d="M9.43-35.23C9.43-62.8 31.78-85.15 59.36-85.15C86.93-85.15 109.28-62.8 109.28-35.23C109.28-7.66 86.93 14.7 59.36 14.7C31.78 14.7 9.43-7.66 9.43-35.23ZM59.36-74.55C37.64-74.55 20.03-56.95 20.03-35.23C20.03-13.51 37.64 4.1 59.36 4.1C81.07 4.1 98.68-13.51 98.68-35.23C98.68-56.95 81.07-74.55 59.36-74.55Z"/>
   <path class="hierarchical-1:primary SFSymbolsPreview212121" d="M40.67-48.62C40.67-51.54 43.04-53.92 45.97-53.92L72.74-53.92C75.67-53.92 78.04-51.54 78.04-48.62L78.04-21.84C78.04-18.91 75.67-16.54 72.74-16.54L45.97-16.54C43.04-16.54 40.67-18.91 40.67-21.84L40.67-48.62ZM51.27-43.32L51.27-27.14L67.44-27.14L67.44-43.32L51.27-43.32Z"/>
  </g>
  <g id="Semibold-M" transform="matrix(1 0 0 1 1984.72 1126)">
   <path class="hierarchical-0:secondary SFSymbolsPreview4D4D4D" d="M9.43-35.23C9.43-62.44 31.49-84.5 58.7-84.5C85.91-84.5 107.98-62.44 107.98-35.23C107.98-8.02 85.91 14.05 58.7 14.05C31.49 14.05 9.43-8.02 9.43-35.23ZM58.7-75.2C36.62-75.2 18.73-57.31 18.73-35.23C18.73-13.15 36.62 4.75 58.7 4.75C80.78 4.75 98.68-13.15 98.68-35.23C98.68-57.31 80.78-75.2 58.7-75.2Z"/>
   <path class="hierarchical-1:primary SFSymbolsPreview212121" d="M40.66-48.62C40.66-51.18 42.74-53.27 45.31-53.27L72.09-53.27C74.66-53.27 76.74-51.18 76.74-48.62L76.74-21.84C76.74-19.27 74.66-17.19 72.09-17.19L45.31-17.19C42.74-17.19 40.66-19.27 40.66-21.84L40.66-48.62ZM49.96-43.97L49.96-26.49L67.44-26.49L67.44-43.97L49.96-43.97Z"/>
  </g>
  <g id="Medium-M" transform="matrix(1 0 0 1 1688.51 1126)">
   <path class="hierarchical-0:secondary SFSymbolsPreview4D4D4D" d="M9.43-35.23C9.43-62.17 31.26-84 58.2-84C85.14-84 106.98-62.17 106.98-35.23C106.98-8.29 85.14 13.55 58.2 13.55C31.26 13.55 9.43-8.29 9.43-35.23ZM58.2-75.7C35.85-75.7 17.73-57.58 17.73-35.23C17.73-12.88 35.85 5.25 58.2 5.25C80.55 5.25 98.68-12.88 98.68-35.23C98.68-57.58 80.55-75.7 58.2-75.7Z"/>
   <path class="hierarchical-1:primary SFSymbolsPreview212121" d="M40.66-48.62C40.66-50.91 42.52-52.77 44.81-52.77L71.59-52.77C73.88-52.77 75.74-50.91 75.74-48.62L75.74-21.84C75.74-19.55 73.88-17.69 71.59-17.69L44.81-17.69C42.52-17.69 40.66-19.55 40.66-21.84L40.66-48.62ZM48.96-44.47L48.96-25.99L67.44-25.99L67.44-44.47L48.96-44.47Z"/>
  </g>
  <g id="Regular-M" transform="matrix(1 0 0 1 1392.45 1126)">
   <path class="hierarchical-0:secondary SFSymbolsPreview4D4D4D" d="M9.43-35.23C9.43-61.81 30.97-83.35 57.55-83.35C84.13-83.35 105.67-61.81 105.67-35.23C105.67-8.65 84.13 12.9 57.55 12.9C30.97 12.9 9.43-8.65 9.43-35.23ZM57.55-76.35C34.84-76.35 16.43-57.94 16.43-35.23C16.43-12.52 34.84 5.9 57.55 5.9C80.26 5.9 98.67-12.52 98.67-35.23C98.67-57.94 80.26-76.35 57.55-76.35Z"/>
   <path class="hierarchical-1:primary SFSymbolsPreview212121" d="M40.66-48.62C40.66-50.55 42.23-52.12 44.16-52.12L70.94-52.12C72.87-52.12 74.44-50.55 74.44-48.62L74.44-21.84C74.44-19.91 72.87-18.34 70.94-18.34L44.16-18.34C42.23-18.34 40.66-19.91 40.66-21.84L40.66-48.62ZM47.66-45.12L47.66-25.34L67.44-25.34L67.44-45.12L47.66-45.12Z"/>
  </g>
  <g id="Light-M" transform="matrix(1 0 0 1 1096.53 1126)">
   <path class="hierarchical-0:secondary SFSymbolsPreview4D4D4D" d="M9.43-35.23C9.43-61.36 30.62-82.55 56.76-82.55C82.9-82.55 104.08-61.36 104.08-35.23C104.08-9.09 82.9 12.1 56.76 12.1C30.62 12.1 9.43-9.09 9.43-35.23ZM56.76-77.15C33.61-77.15 14.83-58.38 14.83-35.23C14.83-12.07 33.61 6.7 56.76 6.7C79.91 6.7 98.68-12.07 98.68-35.23C98.68-58.38 79.91-77.15 56.76-77.15Z"/>
   <path class="hierarchical-1:primary SFSymbolsPreview212121" d="M40.67-48.62C40.67-50.11 41.88-51.32 43.37-51.32L70.15-51.32C71.64-51.32 72.85-50.11 72.85-48.62L72.85-21.84C72.85-20.35 71.64-19.14 70.15-19.14L43.37-19.14C41.88-19.14 40.67-20.35 40.67-21.84L40.67-48.62ZM46.07-45.92L46.07-24.54L67.45-24.54L67.45-45.92L46.07-45.92Z"/>
  </g>
  <g id="Thin-M" transform="matrix(1 0 0 1 800.872 1126)">
   <path class="hierarchical-0:secondary SFSymbolsPreview4D4D4D" d="M9.43-35.23C9.43-60.79 30.148-81.5 55.705-81.5C81.262-81.5 101.98-60.79 101.98-35.23C101.98-9.67 81.262 11.05 55.705 11.05C30.148 11.05 9.43-9.67 9.43-35.23ZM55.705-78.2C31.97-78.2 12.73-58.96 12.73-35.23C12.73-11.49 31.97 7.75 55.705 7.75C79.439 7.75 98.68-11.49 98.68-35.23C98.68-58.96 79.439-78.2 55.705-78.2Z"/>
   <path class="hierarchical-1:primary SFSymbolsPreview212121" d="M40.668-48.62C40.668-49.53 41.407-50.27 42.318-50.27L69.093-50.27C70.004-50.27 70.743-49.53 70.743-48.62L70.743-21.84C70.743-20.93 70.004-20.19 69.093-20.19L42.318-20.19C41.407-20.19 40.668-20.93 40.668-21.84L40.668-48.62ZM43.968-46.97L43.968-23.49L67.443-23.49L67.443-46.97L43.968-46.97Z"/>
  </g>
  <g id="Ultralight-M" transform="matrix(1 0 0 1 504.711 1126)">
   <path class="hierarchical-0:secondary SFSymbolsPreview4D4D4D" d="M9.43-35.23C9.43-60.48 29.902-80.95 55.155-80.95C80.409-80.95 100.88-60.48 100.88-35.23C100.88-9.97 80.409 10.5 55.155 10.5C29.902 10.5 9.43-9.97 9.43-35.23ZM55.155-78.75C31.117-78.75 11.63-59.27 11.63-35.23C11.63-11.19 31.117 8.3 55.155 8.3C79.194 8.3 98.68-11.19 98.68-35.23C98.68-59.27 79.194-78.75 55.155-78.75Z"/>
   <path class="hierarchical-1:primary SFSymbolsPreview212121" d="M40.668-48.62C40.668-49.22 41.16-49.72 41.768-49.72L68.543-49.72C69.15-49.72 69.643-49.22 69.643-48.62L69.643-21.84C69.643-21.23 69.15-20.74 68.543-20.74L41.768-20.74C41.16-20.74 40.668-21.23 40.668-21.84L40.668-48.62ZM42.868-47.52L42.868-22.94L67.443-22.94L67.443-47.52L42.868-47.52Z"/>
  </g>
  <g id="Black-S" transform="matrix(1 0 0 1 2882.03 696)">
   <path class="hierarchical-0:secondary SFSymbolsPreview4D4D4D" d="M9.43-35.332C9.43-58.583 28.28-77.432 51.53-77.432C74.78-77.432 93.63-58.583 93.63-35.332C93.63-12.08 74.78 6.768 51.53 6.768C28.28 6.768 9.43-12.08 9.43-35.332ZM51.53-63.232C36.12-63.232 23.63-50.74 23.63-35.332C23.63-19.923 36.12-7.432 51.53-7.432C66.94-7.432 79.43-19.923 79.43-35.332C79.43-50.74 66.94-63.232 51.53-63.232Z"/>
   <path class="hierarchical-1:primary SFSymbolsPreview212121" d="M33.93-45.832C33.93-49.753 37.11-52.932 41.03-52.932L62.03-52.932C65.95-52.932 69.13-49.753 69.13-45.832L69.13-24.832C69.13-20.91 65.95-17.732 62.03-17.732L41.03-17.732C37.11-17.732 33.93-20.91 33.93-24.832L33.93-45.832ZM48.13-38.732L48.13-31.932L54.93-31.932L54.93-38.732L48.13-38.732Z"/>
  </g>
  <g id="Heavy-S" transform="matrix(1 0 0 1 2586.16 696)">
   <path class="hierarchical-0:secondary SFSymbolsPreview4D4D4D" d="M9.43-35.332C9.43-58.114 27.9-76.582 50.68-76.582C73.46-76.582 91.93-58.114 91.93-35.332C91.93-12.55 73.46 5.918 50.68 5.918C27.9 5.918 9.43-12.55 9.43-35.332ZM50.68-64.082C34.8-64.082 21.93-51.21 21.93-35.332C21.93-19.454 34.8-6.582 50.68-6.582C66.56-6.582 79.43-19.454 79.43-35.332C79.43-51.21 66.56-64.082 50.68-64.082Z"/>
   <path class="hierarchical-1:primary SFSymbolsPreview212121" d="M33.93-45.832C33.93-49.284 36.73-52.082 40.18-52.082L61.18-52.082C64.63-52.082 67.43-49.284 67.43-45.832L67.43-24.832C67.43-21.38 64.63-18.582 61.18-18.582L40.18-18.582C36.73-18.582 33.93-21.38 33.93-24.832L33.93-45.832ZM46.43-39.582L46.43-31.082L54.93-31.082L54.93-39.582L46.43-39.582Z"/>
  </g>
  <g id="Bold-S" transform="matrix(1 0 0 1 2290.4 696)">
   <path class="hierarchical-0:secondary SFSymbolsPreview4D4D4D" d="M9.43-35.128C9.43-57.385 27.47-75.428 49.73-75.428C71.98-75.428 90.03-57.385 90.03-35.128C90.03-12.871 71.98 5.172 49.73 5.172C27.47 5.172 9.43-12.871 9.43-35.128ZM49.73-64.828C33.32-64.828 20.03-51.531 20.03-35.128C20.03-18.725 33.32-5.428 49.73-5.428C66.13-5.428 79.43-18.725 79.43-35.128C79.43-51.531 66.13-64.828 49.73-64.828Z"/>
   <path class="hierarchical-1:primary SFSymbolsPreview212121" d="M33.93-45.628C33.93-48.555 36.3-50.928 39.23-50.928L60.23-50.928C63.15-50.928 65.53-48.555 65.53-45.628L65.53-24.628C65.53-21.701 63.15-19.328 60.23-19.328L39.23-19.328C36.3-19.328 33.93-21.701 33.93-24.628L33.93-45.628ZM44.53-40.328L44.53-29.928L54.93-29.928L54.93-40.328L44.53-40.328Z"/>
  </g>
  <g id="Semibold-S" transform="matrix(1 0 0 1 1994.34 696)">
   <path class="hierarchical-0:secondary SFSymbolsPreview4D4D4D" d="M9.43-35.127C9.43-57.025 27.18-74.777 49.08-74.777C70.98-74.777 88.73-57.025 88.73-35.127C88.73-13.229 70.98 4.523 49.08 4.523C27.18 4.523 9.43-13.229 9.43-35.127ZM49.08-65.477C32.32-65.477 18.73-51.889 18.73-35.127C18.73-18.366 32.32-4.777 49.08-4.777C65.84-4.777 79.43-18.366 79.43-35.127C79.43-51.889 65.84-65.477 49.08-65.477Z"/>
   <path class="hierarchical-1:primary SFSymbolsPreview212121" d="M33.93-45.627C33.93-48.195 36.01-50.277 38.58-50.277L59.58-50.277C62.15-50.277 64.23-48.195 64.23-45.627L64.23-24.627C64.23-22.059 62.15-19.977 59.58-19.977L38.58-19.977C36.01-19.977 33.93-22.059 33.93-24.627L33.93-45.627ZM43.23-40.977L43.23-29.277L54.93-29.277L54.93-40.977L43.23-40.977Z"/>
  </g>
  <g id="Medium-S" transform="matrix(1 0 0 1 1698.13 696)">
   <path class="hierarchical-0:secondary SFSymbolsPreview4D4D4D" d="M9.43-35.127C9.43-56.749 26.96-74.277 48.58-74.277C70.2-74.277 87.73-56.749 87.73-35.127C87.73-13.505 70.2 4.023 48.58 4.023C26.96 4.023 9.43-13.505 9.43-35.127ZM48.58-65.977C31.54-65.977 17.73-52.165 17.73-35.127C17.73-18.089 31.54-4.277 48.58-4.277C65.62-4.277 79.43-18.089 79.43-35.127C79.43-52.165 65.62-65.977 48.58-65.977Z"/>
   <path class="hierarchical-1:primary SFSymbolsPreview212121" d="M33.93-45.627C33.93-47.919 35.79-49.777 38.08-49.777L59.08-49.777C61.37-49.777 63.23-47.919 63.23-45.627L63.23-24.627C63.23-22.335 61.37-20.477 59.08-20.477L38.08-20.477C35.79-20.477 33.93-22.335 33.93-24.627L33.93-45.627ZM42.23-41.477L42.23-28.777L54.93-28.777L54.93-41.477L42.23-41.477Z"/>
  </g>
  <g id="Regular-S" transform="matrix(1 0 0 1 1402.07 696)">
   <path class="hierarchical-0:secondary SFSymbolsPreview4D4D4D" d="M9.43-35.127C9.43-56.39 26.67-73.627 47.93-73.627C69.19-73.627 86.43-56.39 86.43-35.127C86.43-13.864 69.19 3.373 47.93 3.373C26.67 3.373 9.43-13.864 9.43-35.127ZM47.93-66.627C30.53-66.627 16.43-52.524 16.43-35.127C16.43-17.73 30.53-3.627 47.93-3.627C65.33-3.627 79.43-17.73 79.43-35.127C79.43-52.524 65.33-66.627 47.93-66.627Z"/>
   <path class="hierarchical-1:primary SFSymbolsPreview212121" d="M33.93-45.627C33.93-47.56 35.5-49.127 37.43-49.127L58.43-49.127C60.36-49.127 61.93-47.56 61.93-45.627L61.93-24.627C61.93-22.694 60.36-21.127 58.43-21.127L37.43-21.127C35.5-21.127 33.93-22.694 33.93-24.627L33.93-45.627ZM40.93-42.127L40.93-28.127L54.93-28.127L54.93-42.127L40.93-42.127Z"/>
  </g>
  <g id="Light-S" transform="matrix(1 0 0 1 1106.16 696)">
   <path class="hierarchical-0:secondary SFSymbolsPreview4D4D4D" d="M9.43-35.126C9.43-55.947 26.31-72.826 47.13-72.826C67.95-72.826 84.83-55.947 84.83-35.126C84.83-14.305 67.95 2.574 47.13 2.574C26.31 2.574 9.43-14.305 9.43-35.126ZM47.13-67.426C29.29-67.426 14.83-52.965 14.83-35.126C14.83-17.287 29.29-2.826 47.13-2.826C64.97-2.826 79.43-17.287 79.43-35.126C79.43-52.965 64.97-67.426 47.13-67.426Z"/>
   <path class="hierarchical-1:primary SFSymbolsPreview212121" d="M33.93-45.626C33.93-47.117 35.14-48.326 36.63-48.326L57.63-48.326C59.12-48.326 60.33-47.117 60.33-45.626L60.33-24.626C60.33-23.135 59.12-21.926 57.63-21.926L36.63-21.926C35.14-21.926 33.93-23.135 33.93-24.626L33.93-45.626ZM39.33-42.926L39.33-27.326L54.93-27.326L54.93-42.926L39.33-42.926Z"/>
  </g>
  <g id="Thin-S" transform="matrix(1 0 0 1 810.497 696)">
   <path class="hierarchical-0:secondary SFSymbolsPreview4D4D4D" d="M9.43-35.127C9.43-55.369 25.838-71.777 46.08-71.777C66.321-71.777 82.73-55.369 82.73-35.127C82.73-14.886 66.321 1.523 46.08 1.523C25.838 1.523 9.43-14.886 9.43-35.127ZM46.08-68.477C27.661-68.477 12.73-53.546 12.73-35.127C12.73-16.709 27.661-1.777 46.08-1.777C64.498-1.777 79.43-16.709 79.43-35.127C79.43-53.546 64.498-68.477 46.08-68.477Z"/>
   <path class="hierarchical-1:primary SFSymbolsPreview212121" d="M33.93-45.627C33.93-46.539 34.668-47.277 35.58-47.277L56.58-47.277C57.491-47.277 58.23-46.539 58.23-45.627L58.23-24.627C58.23-23.716 57.491-22.977 56.58-22.977L35.58-22.977C34.668-22.977 33.93-23.716 33.93-24.627L33.93-45.627ZM37.23-43.977L37.23-26.277L54.93-26.277L54.93-43.977L37.23-43.977Z"/>
  </g>
  <g id="Ultralight-S" transform="matrix(1 0 0 1 514.336 696)">
   <path class="hierarchical-0:secondary SFSymbolsPreview4D4D4D" d="M9.43-35.127C9.43-55.064 25.593-71.227 45.53-71.227C65.468-71.227 81.63-55.064 81.63-35.127C81.63-15.189 65.468 0.973 45.53 0.973C25.593 0.973 9.43-15.189 9.43-35.127ZM45.53-69.027C26.808-69.027 11.63-53.849 11.63-35.127C11.63-16.404 26.808-1.227 45.53-1.227C64.253-1.227 79.43-16.404 79.43-35.127C79.43-53.849 64.253-69.027 45.53-69.027Z"/>
   <path class="hierarchical-1:primary SFSymbolsPreview212121" d="M33.93-45.627C33.93-46.234 34.423-46.727 35.03-46.727L56.03-46.727C56.638-46.727 57.13-46.234 57.13-45.627L57.13-24.627C57.13-24.019 56.638-23.527 56.03-23.527L35.03-23.527C34.423-23.527 33.93-24.019 33.93-24.627L33.93-45.627ZM36.13-44.527L36.13-25.727L54.93-25.727L54.93-44.527L36.13-44.527Z"/>
  </g>
 </g>
</svg>
