<?xml version="1.0" encoding="UTF-8"?>
<!--Generator: Apple Native CoreSVG 175-->
<!DOCTYPE svg
PUBLIC "-//W3C//DTD SVG 1.1//EN"
       "http://www.w3.org/Graphics/SVG/1.1/DTD/svg11.dtd">
<svg version="1.1" xmlns="http://www.w3.org/2000/svg" xmlns:xlink="http://www.w3.org/1999/xlink" width="3300" height="2200">
 <!--glyph: "", point size: 100.0, font version: "17.0d12e1", template writer version: "65.1"-->
 <style>.hierarchical-0:secondary {fill:#4D4D4D}
.hierarchical-1:primary {fill:#212121}

.SFSymbolsPreview212121 {fill:#212121;opacity:1.0}
.SFSymbolsPreview4D4D4D {fill:#4D4D4D;opacity:1.0}
</style>
 <g id="Notes">
  <rect height="2200" id="artboard" style="fill:white;opacity:1" width="3300" x="0" y="0"/>
  <line style="fill:none;stroke:black;opacity:1;stroke-width:0.5;" x1="263" x2="3036" y1="292" y2="292"/>
  <text style="stroke:none;fill:black;font-family:sans-serif;font-size:13;font-weight:bold;" transform="matrix(1 0 0 1 263 322)">Weight/Scale Variations</text>
  <text style="stroke:none;fill:black;font-family:sans-serif;font-size:13;text-anchor:middle;" transform="matrix(1 0 0 1 559.711 322)">Ultralight</text>
  <text style="stroke:none;fill:black;font-family:sans-serif;font-size:13;text-anchor:middle;" transform="matrix(1 0 0 1 856.422 322)">Thin</text>
  <text style="stroke:none;fill:black;font-family:sans-serif;font-size:13;text-anchor:middle;" transform="matrix(1 0 0 1 1153.13 322)">Light</text>
  <text style="stroke:none;fill:black;font-family:sans-serif;font-size:13;text-anchor:middle;" transform="matrix(1 0 0 1 1449.84 322)">Regular</text>
  <text style="stroke:none;fill:black;font-family:sans-serif;font-size:13;text-anchor:middle;" transform="matrix(1 0 0 1 1746.56 322)">Medium</text>
  <text style="stroke:none;fill:black;font-family:sans-serif;font-size:13;text-anchor:middle;" transform="matrix(1 0 0 1 2043.27 322)">Semibold</text>
  <text style="stroke:none;fill:black;font-family:sans-serif;font-size:13;text-anchor:middle;" transform="matrix(1 0 0 1 2339.98 322)">Bold</text>
  <text style="stroke:none;fill:black;font-family:sans-serif;font-size:13;text-anchor:middle;" transform="matrix(1 0 0 1 2636.69 322)">Heavy</text>
  <text style="stroke:none;fill:black;font-family:sans-serif;font-size:13;text-anchor:middle;" transform="matrix(1 0 0 1 2933.4 322)">Black</text>
  <line style="fill:none;stroke:black;opacity:1;stroke-width:0.5;" x1="263" x2="3036" y1="1903" y2="1903"/>
  <g transform="matrix(1 0 0 1 263 1933)">
   <path d="M9.24805 0.830078Q10.8691 0.830078 12.2949 0.214844Q13.7207-0.400391 14.8096-1.49414Q15.8984-2.58789 16.5186-4.01367Q17.1387-5.43945 17.1387-7.05078Q17.1387-8.66211 16.5186-10.0879Q15.8984-11.5137 14.8047-12.6074Q13.7109-13.7012 12.2852-14.3164Q10.8594-14.9316 9.23828-14.9316Q7.62695-14.9316 6.20117-14.3164Q4.77539-13.7012 3.69141-12.6074Q2.60742-11.5137 1.9873-10.0879Q1.36719-8.66211 1.36719-7.05078Q1.36719-5.43945 1.9873-4.01367Q2.60742-2.58789 3.69629-1.49414Q4.78516-0.400391 6.21094 0.214844Q7.63672 0.830078 9.24805 0.830078ZM9.24805-0.654297Q7.91992-0.654297 6.7627-1.14746Q5.60547-1.64062 4.73145-2.51953Q3.85742-3.39844 3.36426-4.56055Q2.87109-5.72266 2.87109-7.05078Q2.87109-8.37891 3.35938-9.54102Q3.84766-10.7031 4.72168-11.582Q5.5957-12.4609 6.75293-12.9541Q7.91016-13.4473 9.23828-13.4473Q10.5762-13.4473 11.7334-12.9541Q12.8906-12.4609 13.7695-11.582Q14.6484-10.7031 15.1465-9.54102Q15.6445-8.37891 15.6445-7.05078Q15.6445-5.72266 15.1514-4.56055Q14.6582-3.39844 13.7842-2.51953Q12.9102-1.64062 11.748-1.14746Q10.5859-0.654297 9.24805-0.654297ZM5.6543-7.05078Q5.6543-6.72852 5.85938-6.52832Q6.06445-6.32812 6.40625-6.32812L8.51562-6.32812L8.51562-4.20898Q8.51562-3.88672 8.71094-3.67676Q8.90625-3.4668 9.23828-3.4668Q9.56055-3.4668 9.77051-3.67676Q9.98047-3.88672 9.98047-4.20898L9.98047-6.32812L12.0898-6.32812Q12.4219-6.32812 12.627-6.52832Q12.832-6.72852 12.832-7.05078Q12.832-7.38281 12.627-7.58789Q12.4219-7.79297 12.0898-7.79297L9.98047-7.79297L9.98047-9.90234Q9.98047-10.2344 9.77051-10.4443Q9.56055-10.6543 9.23828-10.6543Q8.90625-10.6543 8.71094-10.4443Q8.51562-10.2344 8.51562-9.90234L8.51562-7.79297L6.40625-7.79297Q6.06445-7.79297 5.85938-7.58789Q5.6543-7.38281 5.6543-7.05078Z"/>
  </g>
  <g transform="matrix(1 0 0 1 281.867 1933)">
   <path d="M11.709 2.91016Q13.75 2.91016 15.5518 2.12891Q17.3535 1.34766 18.7305-0.0292969Q20.1074-1.40625 20.8887-3.20801Q21.6699-5.00977 21.6699-7.05078Q21.6699-9.0918 20.8887-10.8936Q20.1074-12.6953 18.7305-14.0723Q17.3535-15.4492 15.5469-16.2305Q13.7402-17.0117 11.6992-17.0117Q9.6582-17.0117 7.85645-16.2305Q6.05469-15.4492 4.68262-14.0723Q3.31055-12.6953 2.5293-10.8936Q1.74805-9.0918 1.74805-7.05078Q1.74805-5.00977 2.5293-3.20801Q3.31055-1.40625 4.6875-0.0292969Q6.06445 1.34766 7.86621 2.12891Q9.66797 2.91016 11.709 2.91016ZM11.709 1.25Q9.98047 1.25 8.47656 0.605469Q6.97266-0.0390625 5.83496-1.17676Q4.69727-2.31445 4.05762-3.81836Q3.41797-5.32227 3.41797-7.05078Q3.41797-8.7793 4.05762-10.2832Q4.69727-11.7871 5.83008-12.9297Q6.96289-14.0723 8.4668-14.7119Q9.9707-15.3516 11.6992-15.3516Q13.4277-15.3516 14.9316-14.7119Q16.4355-14.0723 17.5781-12.9297Q18.7207-11.7871 19.3652-10.2832Q20.0098-8.7793 20.0098-7.05078Q20.0098-5.32227 19.3701-3.81836Q18.7305-2.31445 17.5928-1.17676Q16.4551-0.0390625 14.9463 0.605469Q13.4375 1.25 11.709 1.25ZM7.17773-7.05078Q7.17773-6.69922 7.41211-6.47461Q7.64648-6.25 8.01758-6.25L10.8887-6.25L10.8887-3.36914Q10.8887-2.99805 11.1133-2.76855Q11.3379-2.53906 11.6895-2.53906Q12.0605-2.53906 12.29-2.76855Q12.5195-2.99805 12.5195-3.36914L12.5195-6.25L15.4004-6.25Q15.7715-6.25 16.001-6.47461Q16.2305-6.69922 16.2305-7.05078Q16.2305-7.42188 16.001-7.65137Q15.7715-7.88086 15.4004-7.88086L12.5195-7.88086L12.5195-10.752Q12.5195-11.1328 12.29-11.3623Q12.0605-11.5918 11.6895-11.5918Q11.3379-11.5918 11.1133-11.3574Q10.8887-11.123 10.8887-10.752L10.8887-7.88086L8.01758-7.88086Q7.63672-7.88086 7.40723-7.65137Q7.17773-7.42188 7.17773-7.05078Z"/>
  </g>
  <g transform="matrix(1 0 0 1 305.646 1933)">
   <path d="M14.9707 5.66406Q17.0605 5.66406 18.96 5.01465Q20.8594 4.36523 22.4512 3.19336Q24.043 2.02148 25.2197 0.429688Q26.3965-1.16211 27.0459-3.06641Q27.6953-4.9707 27.6953-7.05078Q27.6953-9.14062 27.0459-11.04Q26.3965-12.9395 25.2197-14.5312Q24.043-16.123 22.4512-17.2998Q20.8594-18.4766 18.9551-19.126Q17.0508-19.7754 14.9609-19.7754Q12.8711-19.7754 10.9717-19.126Q9.07227-18.4766 7.48535-17.2998Q5.89844-16.123 4.72168-14.5312Q3.54492-12.9395 2.90039-11.04Q2.25586-9.14062 2.25586-7.05078Q2.25586-4.9707 2.90527-3.06641Q3.55469-1.16211 4.72656 0.429688Q5.89844 2.02148 7.49023 3.19336Q9.08203 4.36523 10.9814 5.01465Q12.8809 5.66406 14.9707 5.66406ZM14.9707 3.84766Q13.1641 3.84766 11.5283 3.2959Q9.89258 2.74414 8.53516 1.74805Q7.17773 0.751953 6.17676-0.610352Q5.17578-1.97266 4.62891-3.6084Q4.08203-5.24414 4.08203-7.05078Q4.08203-8.86719 4.62891-10.5029Q5.17578-12.1387 6.17188-13.501Q7.16797-14.8633 8.52539-15.8594Q9.88281-16.8555 11.5186-17.4023Q13.1543-17.9492 14.9609-17.9492Q16.7773-17.9492 18.4131-17.4023Q20.0488-16.8555 21.4111-15.8594Q22.7734-14.8633 23.7695-13.501Q24.7656-12.1387 25.3174-10.5029Q25.8691-8.86719 25.8691-7.05078Q25.8789-5.24414 25.332-3.6084Q24.7852-1.97266 23.7842-0.610352Q22.7832 0.751953 21.4209 1.74805Q20.0586 2.74414 18.4229 3.2959Q16.7871 3.84766 14.9707 3.84766ZM9.19922-7.05078Q9.19922-6.66992 9.45801-6.4209Q9.7168-6.17188 10.1172-6.17188L14.0625-6.17188L14.0625-2.2168Q14.0625-1.81641 14.3115-1.55762Q14.5605-1.29883 14.9512-1.29883Q15.3516-1.29883 15.6104-1.55273Q15.8691-1.80664 15.8691-2.2168L15.8691-6.17188L19.8242-6.17188Q20.2246-6.17188 20.4785-6.4209Q20.7324-6.66992 20.7324-7.05078Q20.7324-7.46094 20.4785-7.71484Q20.2246-7.96875 19.8242-7.96875L15.8691-7.96875L15.8691-11.9141Q15.8691-12.3242 15.6104-12.583Q15.3516-12.8418 14.9512-12.8418Q14.5605-12.8418 14.3115-12.583Q14.0625-12.3242 14.0625-11.9141L14.0625-7.96875L10.1172-7.96875Q9.70703-7.96875 9.45312-7.71484Q9.19922-7.46094 9.19922-7.05078Z"/>
  </g>
  <text style="stroke:none;fill:black;font-family:sans-serif;font-size:13;font-weight:bold;" transform="matrix(1 0 0 1 263 1953)">Design Variations</text>
  <text style="stroke:none;fill:black;font-family:sans-serif;font-size:13;" transform="matrix(1 0 0 1 263 1971)">Symbols are supported in up to nine weights and three scales.</text>
  <text style="stroke:none;fill:black;font-family:sans-serif;font-size:13;" transform="matrix(1 0 0 1 263 1989)">For optimal layout with text and other symbols, vertically align</text>
  <text style="stroke:none;fill:black;font-family:sans-serif;font-size:13;" transform="matrix(1 0 0 1 263 2007)">symbols with the adjacent text.</text>
  <line style="fill:none;stroke:#00AEEF;stroke-width:0.5;opacity:1.0;" x1="776" x2="776" y1="1919" y2="1933"/>
  <g transform="matrix(1 0 0 1 776 1933)">
   <path d="M3.31055 0.15625Q3.70117 0.15625 3.91602-0.00976562Q4.13086-0.175781 4.26758-0.585938L5.52734-4.0332L11.2891-4.0332L12.5488-0.585938Q12.6855-0.175781 12.9004-0.00976562Q13.1152 0.15625 13.4961 0.15625Q13.8867 0.15625 14.1162-0.0585938Q14.3457-0.273438 14.3457-0.644531Q14.3457-0.869141 14.2383-1.17188L9.6582-13.3691Q9.48242-13.8184 9.17969-14.043Q8.87695-14.2676 8.4082-14.2676Q7.5-14.2676 7.17773-13.3789L2.59766-1.16211Q2.49023-0.859375 2.49023-0.634766Q2.49023-0.263672 2.70996-0.0537109Q2.92969 0.15625 3.31055 0.15625ZM6.00586-5.51758L8.37891-12.0898L8.42773-12.0898L10.8008-5.51758Z"/>
  </g>
  <line style="fill:none;stroke:#00AEEF;stroke-width:0.5;opacity:1.0;" x1="793.197" x2="793.197" y1="1919" y2="1933"/>
  <text style="stroke:none;fill:black;font-family:sans-serif;font-size:13;font-weight:bold;" transform="matrix(1 0 0 1 776 1953)">Margins</text>
  <text style="stroke:none;fill:black;font-family:sans-serif;font-size:13;" transform="matrix(1 0 0 1 776 1971)">Leading and trailing margins on the left and right side of each symbol</text>
  <text style="stroke:none;fill:black;font-family:sans-serif;font-size:13;" transform="matrix(1 0 0 1 776 1989)">can be adjusted by modifying the x-location of the margin guidelines.</text>
  <text style="stroke:none;fill:black;font-family:sans-serif;font-size:13;" transform="matrix(1 0 0 1 776 2007)">Modifications are automatically applied proportionally to all</text>
  <text style="stroke:none;fill:black;font-family:sans-serif;font-size:13;" transform="matrix(1 0 0 1 776 2025)">scales and weights.</text>
  <g transform="matrix(1 0 0 1 1289 1933)">
   <path d="M2.8418 1.86523L4.54102 3.57422Q5.18555 4.22852 5.90332 4.17969Q6.62109 4.13086 7.31445 3.35938L18.0078-8.42773L17.041-9.4043L6.42578 2.27539Q6.16211 2.57812 5.89355 2.61719Q5.625 2.65625 5.27344 2.30469L4.10156 1.14258Q3.75 0.791016 3.79395 0.522461Q3.83789 0.253906 4.14062-0.0195312L15.6152-10.8203L14.6387-11.7871L3.04688-0.898438Q2.30469-0.214844 2.25098 0.498047Q2.19727 1.21094 2.8418 1.86523ZM9.25781-16.3281Q8.94531-16.0254 8.90625-15.6348Q8.86719-15.2441 9.04297-14.9512Q9.21875-14.6777 9.55566-14.541Q9.89258-14.4043 10.3809-14.5215Q11.4746-14.7754 12.5977-14.7314Q13.7207-14.6875 14.7949-13.9844L14.209-12.5293Q13.9551-11.9043 14.0674-11.4404Q14.1797-10.9766 14.5801-10.5664L16.875-8.25195Q17.2363-7.88086 17.5781-7.82227Q17.9199-7.76367 18.3398-7.8418L19.4043-8.03711L20.0684-7.36328L20.0293-6.80664Q20-6.43555 20.1221-6.12305Q20.2441-5.81055 20.6055-5.44922L21.3672-4.70703Q21.7285-4.3457 22.1533-4.33105Q22.5781-4.31641 22.9297-4.66797L25.8398-7.58789Q26.1914-7.93945 26.1816-8.35449Q26.1719-8.76953 25.8105-9.13086L25.0391-9.89258Q24.6875-10.2539 24.3799-10.3857Q24.0723-10.5176 23.7109-10.4883L23.1348-10.4395L22.4902-11.0742L22.7344-12.1973Q22.832-12.6172 22.6953-12.9834Q22.5586-13.3496 22.1191-13.7891L19.9219-15.9766Q18.6719-17.2168 17.2607-17.8369Q15.8496-18.457 14.4189-18.4814Q12.9883-18.5059 11.665-17.959Q10.3418-17.4121 9.25781-16.3281ZM10.752-15.957Q11.6602-16.6211 12.7002-16.9043Q13.7402-17.1875 14.8047-17.085Q15.8691-16.9824 16.8701-16.5137Q17.8711-16.0449 18.7012-15.2051L21.1328-12.793Q21.3086-12.6172 21.3525-12.4512Q21.3965-12.2852 21.3379-12.0312L21.0156-10.5469L22.5195-9.0625L23.5059-9.12109Q23.6914-9.13086 23.7891-9.09668Q23.8867-9.0625 24.0332-8.91602L24.6094-8.33984L22.168-5.89844L21.5918-6.47461Q21.4453-6.62109 21.4062-6.71875Q21.3672-6.81641 21.377-7.01172L21.4453-7.98828L19.9512-9.47266L18.4277-9.21875Q18.1836-9.16992 18.042-9.2041Q17.9004-9.23828 17.7148-9.41406L15.7129-11.416Q15.5176-11.5918 15.4932-11.7529Q15.4688-11.9141 15.5859-12.1875L16.4648-14.2773Q15.293-15.3711 13.8281-15.791Q12.3633-16.2109 10.8398-15.7617Q10.7227-15.7324 10.6885-15.8057Q10.6543-15.8789 10.752-15.957Z"/>
  </g>
  <text style="stroke:none;fill:black;font-family:sans-serif;font-size:13;font-weight:bold;" transform="matrix(1 0 0 1 1289 1953)">Exporting</text>
  <text style="stroke:none;fill:black;font-family:sans-serif;font-size:13;" transform="matrix(1 0 0 1 1289 1971)">Symbols should be outlined when exporting to ensure the</text>
  <text style="stroke:none;fill:black;font-family:sans-serif;font-size:13;" transform="matrix(1 0 0 1 1289 1989)">design is preserved when submitting to Xcode.</text>
  <text id="template-version" style="stroke:none;fill:black;font-family:sans-serif;font-size:13;text-anchor:end;" transform="matrix(1 0 0 1 3036 1933)">Template v.3.0</text>
  <text style="stroke:none;fill:black;font-family:sans-serif;font-size:13;text-anchor:end;" transform="matrix(1 0 0 1 3036 1951)">Requires Xcode 13 or greater</text>
  <text id="descriptive-name" style="stroke:none;fill:black;font-family:sans-serif;font-size:13;text-anchor:end;" transform="matrix(1 0 0 1 3036 1969)">Generated from x-circle</text>
  <text style="stroke:none;fill:black;font-family:sans-serif;font-size:13;text-anchor:end;" transform="matrix(1 0 0 1 3036 1987)">Typeset at 100 points</text>
  <text style="stroke:none;fill:black;font-family:sans-serif;font-size:13;" transform="matrix(1 0 0 1 263 726)">Small</text>
  <text style="stroke:none;fill:black;font-family:sans-serif;font-size:13;" transform="matrix(1 0 0 1 263 1156)">Medium</text>
  <text style="stroke:none;fill:black;font-family:sans-serif;font-size:13;" transform="matrix(1 0 0 1 263 1586)">Large</text>
 </g>
 <g id="Guides">
  <g id="H-reference" style="fill:#27AAE1;stroke:none;" transform="matrix(1 0 0 1 339 696)">
   <path d="M0.976562 0L3.66211 0L29.3457-67.1387L30.0293-67.1387L30.0293-70.459L28.125-70.459ZM11.6699-24.4629L46.9727-24.4629L46.2402-26.709L12.4512-26.709ZM55.127 0L57.7637 0L30.6152-70.459L29.4434-70.459L29.4434-67.1387Z"/>
  </g>
  <line id="Baseline-S" style="fill:none;stroke:#27AAE1;opacity:1;stroke-width:0.5;" x1="263" x2="3036" y1="696" y2="696"/>
  <line id="Capline-S" style="fill:none;stroke:#27AAE1;opacity:1;stroke-width:0.5;" x1="263" x2="3036" y1="625.541" y2="625.541"/>
  <g id="H-reference" style="fill:#27AAE1;stroke:none;" transform="matrix(1 0 0 1 339 1126)">
   <path d="M0.976562 0L3.66211 0L29.3457-67.1387L30.0293-67.1387L30.0293-70.459L28.125-70.459ZM11.6699-24.4629L46.9727-24.4629L46.2402-26.709L12.4512-26.709ZM55.127 0L57.7637 0L30.6152-70.459L29.4434-70.459L29.4434-67.1387Z"/>
  </g>
  <line id="Baseline-M" style="fill:none;stroke:#27AAE1;opacity:1;stroke-width:0.5;" x1="263" x2="3036" y1="1126" y2="1126"/>
  <line id="Capline-M" style="fill:none;stroke:#27AAE1;opacity:1;stroke-width:0.5;" x1="263" x2="3036" y1="1055.54" y2="1055.54"/>
  <g id="H-reference" style="fill:#27AAE1;stroke:none;" transform="matrix(1 0 0 1 339 1556)">
   <path d="M0.976562 0L3.66211 0L29.3457-67.1387L30.0293-67.1387L30.0293-70.459L28.125-70.459ZM11.6699-24.4629L46.9727-24.4629L46.2402-26.709L12.4512-26.709ZM55.127 0L57.7637 0L30.6152-70.459L29.4434-70.459L29.4434-67.1387Z"/>
  </g>
  <line id="Baseline-L" style="fill:none;stroke:#27AAE1;opacity:1;stroke-width:0.5;" x1="263" x2="3036" y1="1556" y2="1556"/>
  <line id="Capline-L" style="fill:none;stroke:#27AAE1;opacity:1;stroke-width:0.5;" x1="263" x2="3036" y1="1485.54" y2="1485.54"/>
  <line id="left-margin-Regular-M" style="fill:none;stroke:#00AEEF;stroke-width:0.5;opacity:1.0;" x1="1392.45" x2="1392.45" y1="1030.78" y2="1150.12"/>
  <line id="right-margin-Regular-M" style="fill:none;stroke:#00AEEF;stroke-width:0.5;opacity:1.0;" x1="1507.24" x2="1507.24" y1="1030.78" y2="1150.12"/>
 </g>
 <g id="Symbols">
  <g id="Black-L" transform="matrix(1 0 0 1 2860.15 1556)">
   <path class="hierarchical-0:secondary SFSymbolsPreview4D4D4D" d="M9.43-35.23C9.43-70.56 38.07-99.21 73.4-99.21C108.73-99.21 137.38-70.56 137.38-35.23C137.38 0.1 108.73 28.74 73.4 28.74C38.07 28.74 9.43 0.1 9.43-35.23ZM73.4-85.01C45.91-85.01 23.63-62.72 23.63-35.23C23.63-7.74 45.91 14.54 73.4 14.54C100.89 14.54 123.18-7.74 123.18-35.23C123.18-62.72 100.89-85.01 73.4-85.01Z"/>
   <path class="hierarchical-1:primary SFSymbolsPreview212121" d="M95.48-57.31C98.26-54.54 98.26-50.05 95.48-47.27L61.36-13.15C58.59-10.38 54.09-10.38 51.32-13.15C48.54-15.92 48.54-20.42 51.32-23.19L85.44-57.31C88.22-60.09 92.71-60.09 95.48-57.31ZM51.32-57.31C54.09-60.09 58.59-60.09 61.36-57.31L95.48-23.19C98.26-20.42 98.26-15.92 95.48-13.15C92.71-10.38 88.22-10.38 85.44-13.15L51.32-47.27C48.54-50.05 48.54-54.54 51.32-57.31Z"/>
  </g>
  <g id="Heavy-L" transform="matrix(1 0 0 1 2564.29 1556)">
   <path class="hierarchical-0:secondary SFSymbolsPreview4D4D4D" d="M9.43-35.23C9.43-70.09 37.7-98.36 72.56-98.36C107.42-98.36 135.68-70.09 135.68-35.23C135.68-0.37 107.42 27.89 72.56 27.89C37.7 27.89 9.43-0.37 9.43-35.23ZM72.56-85.86C44.6-85.86 21.93-63.19 21.93-35.23C21.93-7.27 44.6 15.39 72.56 15.39C100.52 15.39 123.18-7.27 123.18-35.23C123.18-63.19 100.52-85.86 72.56-85.86Z"/>
   <path class="hierarchical-1:primary SFSymbolsPreview212121" d="M94.04-56.71C96.48-54.27 96.48-50.31 94.04-47.87L59.91-13.75C57.47-11.31 53.52-11.31 51.08-13.75C48.64-16.19 48.64-20.15 51.08-22.59L85.2-56.71C87.64-59.15 91.6-59.15 94.04-56.71ZM51.08-56.71C53.52-59.15 57.47-59.15 59.91-56.71L94.04-22.59C96.48-20.15 96.48-16.19 94.04-13.75C91.6-11.31 87.64-11.31 85.2-13.75L51.08-47.87C48.64-50.31 48.64-54.27 51.08-56.71Z"/>
  </g>
  <g id="Bold-L" transform="matrix(1 0 0 1 2268.53 1556)">
   <path class="hierarchical-0:secondary SFSymbolsPreview4D4D4D" d="M9.43-35.23C9.43-69.57 37.27-97.41 71.61-97.41C105.94-97.41 133.78-69.57 133.78-35.23C133.78-0.89 105.94 26.94 71.61 26.94C37.27 26.94 9.43-0.89 9.43-35.23ZM71.61-86.81C43.12-86.81 20.03-63.72 20.03-35.23C20.03-6.75 43.12 16.34 71.61 16.34C100.09 16.34 123.18-6.75 123.18-35.23C123.18-63.72 100.09-86.81 71.61-86.81Z"/>
   <path class="hierarchical-1:primary SFSymbolsPreview212121" d="M92.42-56.04C94.49-53.97 94.49-50.62 92.42-48.55L58.29-14.42C56.22-12.35 52.86-12.35 50.8-14.42C48.73-16.49 48.73-19.85 50.8-21.92L84.92-56.04C86.99-58.11 90.35-58.11 92.42-56.04ZM50.8-56.04C52.86-58.11 56.22-58.11 58.29-56.04L92.42-21.92C94.49-19.85 94.49-16.49 92.42-14.42C90.35-12.35 86.99-12.35 84.92-14.42L50.8-48.55C48.73-50.62 48.73-53.97 50.8-56.04Z"/>
  </g>
  <g id="Semibold-L" transform="matrix(1 0 0 1 1972.47 1556)">
   <path class="hierarchical-0:secondary SFSymbolsPreview4D4D4D" d="M9.43-35.23C9.43-69.21 36.97-96.75 70.95-96.75C104.93-96.75 132.48-69.21 132.48-35.23C132.48-1.25 104.93 26.3 70.95 26.3C36.97 26.3 9.43-1.25 9.43-35.23ZM70.95-87.45C42.11-87.45 18.73-64.07 18.73-35.23C18.73-6.39 42.11 17 70.95 17C99.79 17 123.18-6.39 123.18-35.23C123.18-64.07 99.79-87.45 70.95-87.45Z"/>
   <path class="hierarchical-1:primary SFSymbolsPreview212121" d="M91.3-55.58C93.12-53.76 93.12-50.82 91.3-49L57.18-14.88C55.36-13.06 52.42-13.06 50.6-14.88C48.78-16.69 48.78-19.64 50.6-21.45L84.72-55.58C86.54-57.4 89.48-57.4 91.3-55.58ZM50.6-55.58C52.42-57.4 55.36-57.4 57.18-55.58L91.3-21.45C93.12-19.64 93.12-16.69 91.3-14.88C89.48-13.06 86.54-13.06 84.72-14.88L50.6-49C48.78-50.82 48.78-53.76 50.6-55.58Z"/>
  </g>
  <g id="Medium-L" transform="matrix(1 0 0 1 1676.26 1556)">
   <path class="hierarchical-0:secondary SFSymbolsPreview4D4D4D" d="M9.43-35.23C9.43-68.93 36.76-96.25 70.46-96.25C104.16-96.25 131.48-68.93 131.48-35.23C131.48-1.53 104.16 25.8 70.46 25.8C36.76 25.8 9.43-1.53 9.43-35.23ZM70.46-87.95C41.34-87.95 17.73-64.35 17.73-35.23C17.73-6.11 41.34 17.5 70.46 17.5C99.58 17.5 123.18-6.11 123.18-35.23C123.18-64.35 99.58-87.95 70.46-87.95Z"/>
   <path class="hierarchical-1:primary SFSymbolsPreview212121" d="M90.46-55.23C92.08-53.61 92.08-50.98 90.46-49.36L56.33-15.23C54.71-13.61 52.08-13.61 50.46-15.23C48.84-16.85 48.84-19.48 50.46-21.1L84.59-55.23C86.21-56.85 88.84-56.85 90.46-55.23ZM50.46-55.23C52.08-56.85 54.71-56.85 56.33-55.23L90.46-21.1C92.08-19.48 92.08-16.85 90.46-15.23C88.84-13.61 86.21-13.61 84.59-15.23L50.46-49.36C48.84-50.98 48.84-53.61 50.46-55.23Z"/>
  </g>
  <g id="Regular-L" transform="matrix(1 0 0 1 1380.19 1556)">
   <path class="hierarchical-0:secondary SFSymbolsPreview4D4D4D" d="M9.43-35.23C9.43-68.57 36.47-95.61 69.81-95.61C103.15-95.61 130.19-68.57 130.19-35.23C130.19-1.89 103.15 25.14 69.81 25.14C36.47 25.14 9.43-1.89 9.43-35.23ZM69.81-88.61C40.33-88.61 16.43-64.71 16.43-35.23C16.43-5.75 40.33 18.14 69.81 18.14C99.29 18.14 123.19-5.75 123.19-35.23C123.19-64.71 99.29-88.61 69.81-88.61Z"/>
   <path class="hierarchical-1:primary SFSymbolsPreview212121" d="M89.35-54.77C90.71-53.4 90.71-51.18 89.35-49.82L55.22-15.69C53.86-14.33 51.64-14.33 50.27-15.69C48.91-17.06 48.91-19.28 50.27-20.64L84.4-54.77C85.76-56.13 87.98-56.13 89.35-54.77ZM50.27-54.77C51.64-56.13 53.86-56.13 55.22-54.77L89.35-20.64C90.71-19.28 90.71-17.06 89.35-15.69C87.98-14.33 85.76-14.33 84.4-15.69L50.27-49.82C48.91-51.18 48.91-53.4 50.27-54.77Z"/>
  </g>
  <g id="Light-L" transform="matrix(1 0 0 1 1084.28 1556)">
   <path class="hierarchical-0:secondary SFSymbolsPreview4D4D4D" d="M9.43-35.23C9.43-68.13 36.11-94.8 69.01-94.8C101.91-94.8 128.58-68.13 128.58-35.23C128.58-2.33 101.91 24.35 69.01 24.35C36.11 24.35 9.43-2.33 9.43-35.23ZM69.01-89.4C39.09-89.4 14.83-65.15 14.83-35.23C14.83-5.31 39.09 18.95 69.01 18.95C98.93 18.95 123.18-5.31 123.18-35.23C123.18-65.15 98.93-89.4 69.01-89.4Z"/>
   <path class="hierarchical-1:primary SFSymbolsPreview212121" d="M87.98-54.2C89.04-53.15 89.04-51.44 87.98-50.38L53.86-16.26C52.8-15.2 51.09-15.2 50.04-16.26C48.98-17.31 48.98-19.02 50.04-20.08L84.16-54.2C85.22-55.26 86.93-55.26 87.98-54.2ZM50.04-54.2C51.09-55.26 52.8-55.26 53.86-54.2L87.98-20.08C89.04-19.02 89.04-17.31 87.98-16.26C86.93-15.2 85.22-15.2 84.16-16.26L50.04-50.38C48.98-51.44 48.98-53.15 50.04-54.2Z"/>
  </g>
  <g id="Thin-L" transform="matrix(1 0 0 1 788.622 1556)">
   <path class="hierarchical-0:secondary SFSymbolsPreview4D4D4D" d="M9.43-35.23C9.43-67.55 35.632-93.75 67.955-93.75C100.277-93.75 126.48-67.55 126.48-35.23C126.48-2.91 100.277 23.3 67.955 23.3C35.632 23.3 9.43-2.91 9.43-35.23ZM67.955-90.45C37.455-90.45 12.73-65.73 12.73-35.23C12.73-4.73 37.455 20 67.955 20C98.455 20 123.18-4.73 123.18-35.23C123.18-65.73 98.455-90.45 67.955-90.45Z"/>
   <path class="hierarchical-1:primary SFSymbolsPreview212121" d="M86.184-53.46C86.828-52.81 86.828-51.77 86.184-51.12L52.059-17C51.414-16.36 50.37-16.36 49.725-17C49.081-17.64 49.081-18.69 49.725-19.33L83.85-53.46C84.495-54.1 85.539-54.1 86.184-53.46ZM49.725-53.46C50.37-54.1 51.414-54.1 52.059-53.46L86.184-19.33C86.828-18.69 86.828-17.64 86.184-17C85.539-16.36 84.495-16.36 83.85-17L49.725-51.12C49.081-51.77 49.081-52.81 49.725-53.46Z"/>
  </g>
  <g id="Ultralight-L" transform="matrix(1 0 0 1 492.461 1556)">
   <path class="hierarchical-0:secondary SFSymbolsPreview4D4D4D" d="M9.43-35.23C9.43-67.25 35.387-93.21 67.405-93.21C99.424-93.21 125.38-67.25 125.38-35.23C125.38-3.21 99.424 22.74 67.405 22.74C35.387 22.74 9.43-3.21 9.43-35.23ZM67.405-91.01C36.602-91.01 11.63-66.04 11.63-35.23C11.63-4.43 36.602 20.54 67.405 20.54C98.209 20.54 123.18-4.43 123.18-35.23C123.18-66.04 98.209-91.01 67.405-91.01Z"/>
   <path class="hierarchical-1:primary SFSymbolsPreview212121" d="M85.246-53.07C85.675-52.64 85.675-51.95 85.246-51.52L51.121-17.39C50.691-16.96 49.995-16.96 49.565-17.39C49.135-17.82 49.135-18.52 49.565-18.95L83.69-53.07C84.12-53.5 84.816-53.5 85.246-53.07ZM49.565-53.07C49.995-53.5 50.691-53.5 51.121-53.07L85.246-18.95C85.675-18.52 85.675-17.82 85.246-17.39C84.816-16.96 84.12-16.96 83.69-17.39L49.565-51.52C49.135-51.95 49.135-52.64 49.565-53.07Z"/>
  </g>
  <g id="Black-M" transform="matrix(1 0 0 1 2872.4 1126)">
   <path class="hierarchical-0:secondary SFSymbolsPreview4D4D4D" d="M9.43-35.23C9.43-63.8 32.59-86.96 61.15-86.96C89.72-86.96 112.88-63.8 112.88-35.23C112.88-6.67 89.72 16.49 61.15 16.49C32.59 16.49 9.43-6.67 9.43-35.23ZM61.15-72.76C40.43-72.76 23.63-55.96 23.63-35.23C23.63-14.51 40.43 2.29 61.15 2.29C81.88 2.29 98.68-14.51 98.68-35.23C98.68-55.96 81.88-72.76 61.15-72.76Z"/>
   <path class="hierarchical-1:primary SFSymbolsPreview212121" d="M79.56-53.64C82.34-50.87 82.34-46.37 79.56-43.6L52.79-16.82C50.01-14.05 45.52-14.05 42.75-16.82C39.97-19.6 39.97-24.09 42.75-26.86L69.52-53.64C72.29-56.41 76.79-56.41 79.56-53.64ZM42.75-53.64C45.52-56.41 50.01-56.41 52.79-53.64L79.56-26.86C82.34-24.09 82.34-19.6 79.56-16.82C76.79-14.05 72.29-14.05 69.52-16.82L42.75-43.6C39.97-46.37 39.97-50.87 42.75-53.64Z"/>
  </g>
  <g id="Heavy-M" transform="matrix(1 0 0 1 2576.54 1126)">
   <path class="hierarchical-0:secondary SFSymbolsPreview4D4D4D" d="M9.43-35.23C9.43-63.33 32.21-86.11 60.3-86.11C88.4-86.11 111.18-63.33 111.18-35.23C111.18-7.13 88.4 15.64 60.3 15.64C32.21 15.64 9.43-7.13 9.43-35.23ZM60.3-73.61C39.11-73.61 21.93-56.42 21.93-35.23C21.93-14.04 39.11 3.14 60.3 3.14C81.5 3.14 98.68-14.04 98.68-35.23C98.68-56.42 81.5-73.61 60.3-73.61Z"/>
   <path class="hierarchical-1:primary SFSymbolsPreview212121" d="M78.11-53.04C80.55-50.6 80.55-46.64 78.11-44.2L51.34-17.42C48.9-14.98 44.94-14.98 42.5-17.42C40.06-19.86 40.06-23.82 42.5-26.26L69.27-53.04C71.71-55.48 75.67-55.48 78.11-53.04ZM42.5-53.04C44.94-55.48 48.9-55.48 51.34-53.04L78.11-26.26C80.55-23.82 80.55-19.86 78.11-17.42C75.67-14.98 71.71-14.98 69.27-17.42L42.5-44.2C40.06-46.64 40.06-50.6 42.5-53.04Z"/>
  </g>
  <g id="Bold-M" transform="matrix(1 0 0 1 2280.78 1126)">
   <path class="hierarchical-0:secondary SFSymbolsPreview4D4D4D" d="M9.43-35.23C9.43-62.8 31.78-85.16 59.36-85.16C86.93-85.16 109.28-62.8 109.28-35.23C109.28-7.66 86.93 14.69 59.36 14.69C31.78 14.69 9.43-7.66 9.43-35.23ZM59.36-74.56C37.64-74.56 20.03-56.95 20.03-35.23C20.03-13.51 37.64 4.09 59.36 4.09C81.07 4.09 98.68-13.51 98.68-35.23C98.68-56.95 81.07-74.56 59.36-74.56Z"/>
   <path class="hierarchical-1:primary SFSymbolsPreview212121" d="M76.49-52.37C78.56-50.3 78.56-46.94 76.49-44.87L49.72-18.1C47.65-16.03 44.29-16.03 42.22-18.1C40.15-20.17 40.15-23.52 42.22-25.59L68.99-52.37C71.06-54.44 74.42-54.44 76.49-52.37ZM42.22-52.37C44.29-54.44 47.65-54.44 49.72-52.37L76.49-25.59C78.56-23.52 78.56-20.17 76.49-18.1C74.42-16.03 71.06-16.03 68.99-18.1L42.22-44.87C40.15-46.94 40.15-50.3 42.22-52.37Z"/>
  </g>
  <g id="Semibold-M" transform="matrix(1 0 0 1 1984.72 1126)">
   <path class="hierarchical-0:secondary SFSymbolsPreview4D4D4D" d="M9.43-35.23C9.43-62.44 31.49-84.5 58.7-84.5C85.91-84.5 107.98-62.44 107.98-35.23C107.98-8.02 85.91 14.05 58.7 14.05C31.49 14.05 9.43-8.02 9.43-35.23ZM58.7-75.2C36.62-75.2 18.73-57.31 18.73-35.23C18.73-13.15 36.62 4.75 58.7 4.75C80.78 4.75 98.68-13.15 98.68-35.23C98.68-57.31 80.78-75.2 58.7-75.2Z"/>
   <path class="hierarchical-1:primary SFSymbolsPreview212121" d="M75.38-51.91C77.19-50.09 77.19-47.15 75.38-45.33L48.6-18.56C46.78-16.74 43.84-16.74 42.02-18.56C40.21-20.37 40.21-23.32 42.02-25.13L68.8-51.91C70.62-53.72 73.56-53.72 75.38-51.91ZM42.02-51.91C43.84-53.72 46.78-53.72 48.6-51.91L75.38-25.13C77.19-23.32 77.19-20.37 75.38-18.56C73.56-16.74 70.62-16.74 68.8-18.56L42.02-45.33C40.21-47.15 40.21-50.09 42.02-51.91Z"/>
  </g>
  <g id="Medium-M" transform="matrix(1 0 0 1 1688.51 1126)">
   <path class="hierarchical-0:secondary SFSymbolsPreview4D4D4D" d="M9.43-35.23C9.43-62.17 31.27-84 58.21-84C85.15-84 106.98-62.17 106.98-35.23C106.98-8.29 85.15 13.55 58.21 13.55C31.27 13.55 9.43-8.29 9.43-35.23ZM58.21-75.7C35.86-75.7 17.73-57.58 17.73-35.23C17.73-12.88 35.86 5.25 58.21 5.25C80.56 5.25 98.68-12.88 98.68-35.23C98.68-57.58 80.56-75.7 58.21-75.7Z"/>
   <path class="hierarchical-1:primary SFSymbolsPreview212121" d="M74.53-51.55C76.15-49.93 76.15-47.31 74.53-45.69L47.76-18.91C46.14-17.29 43.51-17.29 41.89-18.91C40.27-20.53 40.27-23.16 41.89-24.78L68.66-51.55C70.28-53.17 72.91-53.17 74.53-51.55ZM41.89-51.55C43.51-53.17 46.14-53.17 47.76-51.55L74.53-24.78C76.15-23.16 76.15-20.53 74.53-18.91C72.91-17.29 70.28-17.29 68.66-18.91L41.89-45.69C40.27-47.31 40.27-49.93 41.89-51.55Z"/>
  </g>
  <g id="Regular-M" transform="matrix(1 0 0 1 1392.45 1126)">
   <path class="hierarchical-0:secondary SFSymbolsPreview4D4D4D" d="M9.43-35.23C9.43-61.81 30.97-83.36 57.55-83.36C84.13-83.36 105.67-61.81 105.67-35.23C105.67-8.65 84.13 12.89 57.55 12.89C30.97 12.89 9.43-8.65 9.43-35.23ZM57.55-76.36C34.84-76.36 16.43-57.94 16.43-35.23C16.43-12.52 34.84 5.89 57.55 5.89C80.26 5.89 98.67-12.52 98.67-35.23C98.67-57.94 80.26-76.36 57.55-76.36Z"/>
   <path class="hierarchical-1:primary SFSymbolsPreview212121" d="M73.41-51.09C74.78-49.73 74.78-47.51 73.41-46.14L46.64-19.37C45.27-18 43.05-18 41.69-19.37C40.32-20.73 40.32-22.95 41.69-24.32L68.46-51.09C69.83-52.46 72.05-52.46 73.41-51.09ZM41.69-51.09C43.05-52.46 45.27-52.46 46.64-51.09L73.41-24.32C74.78-22.95 74.78-20.73 73.41-19.37C72.05-18 69.83-18 68.46-19.37L41.69-46.14C40.32-47.51 40.32-49.73 41.69-51.09Z"/>
  </g>
  <g id="Light-M" transform="matrix(1 0 0 1 1096.53 1126)">
   <path class="hierarchical-0:secondary SFSymbolsPreview4D4D4D" d="M9.43-35.23C9.43-61.37 30.62-82.55 56.76-82.55C82.9-82.55 104.08-61.37 104.08-35.23C104.08-9.09 82.9 12.1 56.76 12.1C30.62 12.1 9.43-9.09 9.43-35.23ZM56.76-77.15C33.61-77.15 14.83-58.38 14.83-35.23C14.83-12.08 33.61 6.7 56.76 6.7C79.91 6.7 98.68-12.08 98.68-35.23C98.68-58.38 79.91-77.15 56.76-77.15Z"/>
   <path class="hierarchical-1:primary SFSymbolsPreview212121" d="M72.06-50.53C73.11-49.47 73.11-47.76 72.06-46.71L45.28-19.93C44.23-18.88 42.52-18.88 41.46-19.93C40.41-20.99 40.41-22.7 41.46-23.75L68.24-50.53C69.29-51.58 71-51.58 72.06-50.53ZM41.46-50.53C42.52-51.58 44.23-51.58 45.28-50.53L72.06-23.75C73.11-22.7 73.11-20.99 72.06-19.93C71-18.88 69.29-18.88 68.24-19.93L41.46-46.71C40.41-47.76 40.41-49.47 41.46-50.53Z"/>
  </g>
  <g id="Thin-M" transform="matrix(1 0 0 1 800.872 1126)">
   <path class="hierarchical-0:secondary SFSymbolsPreview4D4D4D" d="M9.43-35.23C9.43-60.79 30.148-81.5 55.705-81.5C81.262-81.5 101.98-60.79 101.98-35.23C101.98-9.67 81.262 11.05 55.705 11.05C30.148 11.05 9.43-9.67 9.43-35.23ZM55.705-78.2C31.97-78.2 12.73-58.96 12.73-35.23C12.73-11.49 31.97 7.75 55.705 7.75C79.439 7.75 98.68-11.49 98.68-35.23C98.68-58.96 79.439-78.2 55.705-78.2Z"/>
   <path class="hierarchical-1:primary SFSymbolsPreview212121" d="M70.26-49.79C70.904-49.14 70.904-48.1 70.26-47.45L43.485-20.68C42.84-20.03 41.796-20.03 41.151-20.68C40.507-21.32 40.507-22.37 41.151-23.01L67.926-49.79C68.571-50.43 69.615-50.43 70.26-49.79ZM41.151-49.79C41.796-50.43 42.84-50.43 43.485-49.79L70.26-23.01C70.904-22.37 70.904-21.32 70.26-20.68C69.615-20.03 68.571-20.03 67.926-20.68L41.151-47.45C40.507-48.1 40.507-49.14 41.151-49.79Z"/>
  </g>
  <g id="Ultralight-M" transform="matrix(1 0 0 1 504.711 1126)">
   <path class="hierarchical-0:secondary SFSymbolsPreview4D4D4D" d="M9.43-35.23C9.43-60.49 29.902-80.96 55.155-80.96C80.409-80.96 100.88-60.49 100.88-35.23C100.88-9.98 80.409 10.49 55.155 10.49C29.902 10.49 9.43-9.98 9.43-35.23ZM55.155-78.76C31.117-78.76 11.63-59.27 11.63-35.23C11.63-11.19 31.117 8.29 55.155 8.29C79.194 8.29 98.68-11.19 98.68-35.23C98.68-59.27 79.194-78.76 55.155-78.76Z"/>
   <path class="hierarchical-1:primary SFSymbolsPreview212121" d="M69.321-49.4C69.75-48.97 69.75-48.27 69.321-47.84L42.546-21.07C42.116-20.64 41.419-20.64 40.99-21.07C40.56-21.5 40.56-22.19 40.99-22.62L67.765-49.4C68.194-49.83 68.891-49.83 69.321-49.4ZM40.99-49.4C41.419-49.83 42.116-49.83 42.546-49.4L69.321-22.62C69.75-22.19 69.75-21.5 69.321-21.07C68.891-20.64 68.194-20.64 67.765-21.07L40.99-47.84C40.56-48.27 40.56-48.97 40.99-49.4Z"/>
  </g>
  <g id="Black-S" transform="matrix(1 0 0 1 2882.03 696)">
   <path class="hierarchical-0:secondary SFSymbolsPreview4D4D4D" d="M9.43-35.334C9.43-58.585 28.28-77.434 51.53-77.434C74.78-77.434 93.63-58.585 93.63-35.334C93.63-12.082 74.78 6.766 51.53 6.766C28.28 6.766 9.43-12.082 9.43-35.334ZM51.53-63.234C36.12-63.234 23.63-50.742 23.63-35.334C23.63-19.925 36.12-7.434 51.53-7.434C66.94-7.434 79.43-19.925 79.43-35.334C79.43-50.742 66.94-63.234 51.53-63.234Z"/>
   <path class="hierarchical-1:primary SFSymbolsPreview212121" d="M67.05-50.854C69.82-48.081 69.82-43.586 67.05-40.813L46.05-19.813C43.28-17.04 38.78-17.04 36.01-19.813C33.24-22.586 33.24-27.081 36.01-29.854L57.01-50.854C59.78-53.627 64.28-53.627 67.05-50.854ZM36.01-50.854C38.78-53.627 43.28-53.627 46.05-50.854L67.05-29.854C69.82-27.081 69.82-22.586 67.05-19.813C64.28-17.04 59.78-17.04 57.01-19.813L36.01-40.813C33.24-43.586 33.24-48.081 36.01-50.854Z"/>
  </g>
  <g id="Heavy-S" transform="matrix(1 0 0 1 2586.16 696)">
   <path class="hierarchical-0:secondary SFSymbolsPreview4D4D4D" d="M9.43-35.332C9.43-58.114 27.9-76.582 50.68-76.582C73.46-76.582 91.93-58.114 91.93-35.332C91.93-12.55 73.46 5.918 50.68 5.918C27.9 5.918 9.43-12.55 9.43-35.332ZM50.68-64.082C34.8-64.082 21.93-51.21 21.93-35.332C21.93-19.454 34.8-6.582 50.68-6.582C66.56-6.582 79.43-19.454 79.43-35.332C79.43-51.21 66.56-64.082 50.68-64.082Z"/>
   <path class="hierarchical-1:primary SFSymbolsPreview212121" d="M65.6-50.251C68.04-47.811 68.04-43.853 65.6-41.413L44.6-20.413C42.16-17.972 38.2-17.972 35.76-20.413C33.32-22.853 33.32-26.811 35.76-29.251L56.76-50.251C59.2-52.692 63.16-52.692 65.6-50.251ZM35.76-50.251C38.2-52.692 42.16-52.692 44.6-50.251L65.6-29.251C68.04-26.811 68.04-22.853 65.6-20.413C63.16-17.972 59.2-17.972 56.76-20.413L35.76-41.413C33.32-43.853 33.32-47.811 35.76-50.251Z"/>
  </g>
  <g id="Bold-S" transform="matrix(1 0 0 1 2290.4 696)">
   <path class="hierarchical-0:secondary SFSymbolsPreview4D4D4D" d="M9.43-35.126C9.43-57.383 27.47-75.426 49.73-75.426C71.98-75.426 90.03-57.383 90.03-35.126C90.03-12.869 71.98 5.174 49.73 5.174C27.47 5.174 9.43-12.869 9.43-35.126ZM49.73-64.826C33.32-64.826 20.03-51.529 20.03-35.126C20.03-18.723 33.32-5.426 49.73-5.426C66.13-5.426 79.43-18.723 79.43-35.126C79.43-51.529 66.13-64.826 49.73-64.826Z"/>
   <path class="hierarchical-1:primary SFSymbolsPreview212121" d="M63.97-49.373C66.04-47.304 66.04-43.948 63.97-41.878L42.97-20.878C40.9-18.808 37.55-18.808 35.48-20.878C33.41-22.948 33.41-26.304 35.48-28.373L56.48-49.373C58.55-51.443 61.9-51.443 63.97-49.373ZM35.48-49.373C37.55-51.443 40.9-51.443 42.97-49.373L63.97-28.373C66.04-26.304 66.04-22.948 63.97-20.878C61.9-18.808 58.55-18.808 56.48-20.878L35.48-41.878C33.41-43.948 33.41-47.304 35.48-49.373Z"/>
  </g>
  <g id="Semibold-S" transform="matrix(1 0 0 1 1994.34 696)">
   <path class="hierarchical-0:secondary SFSymbolsPreview4D4D4D" d="M9.43-35.123C9.43-57.022 27.18-74.773 49.08-74.773C70.98-74.773 88.73-57.022 88.73-35.123C88.73-13.225 70.98 4.527 49.08 4.527C27.18 4.527 9.43-13.225 9.43-35.123ZM49.08-65.473C32.32-65.473 18.73-51.885 18.73-35.123C18.73-18.362 32.32-4.773 49.08-4.773C65.84-4.773 79.43-18.362 79.43-35.123C79.43-51.885 65.84-65.473 49.08-65.473Z"/>
   <path class="hierarchical-1:primary SFSymbolsPreview212121" d="M62.87-48.911C64.68-47.096 64.68-44.151 62.87-42.335L41.87-21.335C40.05-19.519 37.11-19.519 35.29-21.335C33.48-23.151 33.48-26.096 35.29-27.911L56.29-48.911C58.11-50.727 61.05-50.727 62.87-48.911ZM35.29-48.911C37.11-50.727 40.05-50.727 41.87-48.911L62.87-27.911C64.68-26.096 64.68-23.151 62.87-21.335C61.05-19.519 58.11-19.519 56.29-21.335L35.29-42.335C33.48-44.151 33.48-47.096 35.29-48.911Z"/>
  </g>
  <g id="Medium-S" transform="matrix(1 0 0 1 1698.13 696)">
   <path class="hierarchical-0:secondary SFSymbolsPreview4D4D4D" d="M9.43-35.123C9.43-56.745 26.96-74.273 48.58-74.273C70.2-74.273 87.73-56.745 87.73-35.123C87.73-13.501 70.2 4.027 48.58 4.027C26.96 4.027 9.43-13.501 9.43-35.123ZM48.58-65.973C31.54-65.973 17.73-52.161 17.73-35.123C17.73-18.085 31.54-4.273 48.58-4.273C65.62-4.273 79.43-18.085 79.43-35.123C79.43-52.161 65.62-65.973 48.58-65.973Z"/>
   <path class="hierarchical-1:primary SFSymbolsPreview212121" d="M62.01-48.558C63.63-46.937 63.63-44.31 62.01-42.689L41.01-21.689C39.39-20.068 36.77-20.068 35.15-21.689C33.52-23.31 33.52-25.937 35.15-27.558L56.15-48.558C57.77-50.179 60.39-50.179 62.01-48.558ZM35.15-48.558C36.77-50.179 39.39-50.179 41.01-48.558L62.01-27.558C63.63-25.937 63.63-23.31 62.01-21.689C60.39-20.068 57.77-20.068 56.15-21.689L35.15-42.689C33.52-44.31 33.52-46.937 35.15-48.558Z"/>
  </g>
  <g id="Regular-S" transform="matrix(1 0 0 1 1402.07 696)">
   <path class="hierarchical-0:secondary SFSymbolsPreview4D4D4D" d="M9.43-35.125C9.43-56.388 26.67-73.625 47.93-73.625C69.19-73.625 86.43-56.388 86.43-35.125C86.43-13.862 69.19 3.375 47.93 3.375C26.67 3.375 9.43-13.862 9.43-35.125ZM47.93-66.625C30.53-66.625 16.43-52.522 16.43-35.125C16.43-17.728 30.53-3.625 47.93-3.625C65.33-3.625 79.43-17.728 79.43-35.125C79.43-52.522 65.33-66.625 47.93-66.625Z"/>
   <path class="hierarchical-1:primary SFSymbolsPreview212121" d="M60.9-48.1C62.27-46.733 62.27-44.517 60.9-43.15L39.9-22.15C38.54-20.783 36.32-20.783 34.96-22.15C33.59-23.517 33.59-25.733 34.96-27.1L55.96-48.1C57.32-49.467 59.54-49.467 60.9-48.1ZM34.96-48.1C36.32-49.467 38.54-49.467 39.9-48.1L60.9-27.1C62.27-25.733 62.27-23.517 60.9-22.15C59.54-20.783 57.32-20.783 55.96-22.15L34.96-43.15C33.59-44.517 33.59-46.733 34.96-48.1Z"/>
  </g>
  <g id="Light-S" transform="matrix(1 0 0 1 1106.16 696)">
   <path class="hierarchical-0:secondary SFSymbolsPreview4D4D4D" d="M9.43-35.124C9.43-55.945 26.31-72.824 47.13-72.824C67.95-72.824 84.83-55.945 84.83-35.124C84.83-14.303 67.95 2.576 47.13 2.576C26.31 2.576 9.43-14.303 9.43-35.124ZM47.13-67.424C29.29-67.424 14.83-52.963 14.83-35.124C14.83-17.285 29.29-2.824 47.13-2.824C64.97-2.824 79.43-17.285 79.43-35.124C79.43-52.963 64.97-67.424 47.13-67.424Z"/>
   <path class="hierarchical-1:primary SFSymbolsPreview212121" d="M59.54-47.533C60.59-46.479 60.59-44.769 59.54-43.715L38.54-22.715C37.48-21.661 35.78-21.661 34.72-22.715C33.67-23.769 33.67-25.479 34.72-26.533L55.72-47.533C56.78-48.588 58.48-48.588 59.54-47.533ZM34.72-47.533C35.78-48.588 37.48-48.588 38.54-47.533L59.54-26.533C60.59-25.479 60.59-23.769 59.54-22.715C58.48-21.661 56.78-21.661 55.72-22.715L34.72-43.715C33.67-44.769 33.67-46.479 34.72-47.533Z"/>
  </g>
  <g id="Thin-S" transform="matrix(1 0 0 1 810.497 696)">
   <path class="hierarchical-0:secondary SFSymbolsPreview4D4D4D" d="M9.43-35.123C9.43-55.365 25.838-71.773 46.08-71.773C66.321-71.773 82.73-55.365 82.73-35.123C82.73-14.882 66.321 1.527 46.08 1.527C25.838 1.527 9.43-14.882 9.43-35.123ZM46.08-68.473C27.661-68.473 12.73-53.542 12.73-35.123C12.73-16.705 27.661-1.773 46.08-1.773C64.498-1.773 79.43-16.705 79.43-35.123C79.43-53.542 64.498-68.473 46.08-68.473Z"/>
   <path class="hierarchical-1:primary SFSymbolsPreview212121" d="M57.746-46.79C58.391-46.146 58.391-45.101 57.746-44.457L36.746-23.457C36.102-22.812 35.057-22.812 34.413-23.457C33.769-24.101 33.769-25.146 34.413-25.79L55.413-46.79C56.057-47.435 57.102-47.435 57.746-46.79ZM34.413-46.79C35.057-47.435 36.102-47.435 36.746-46.79L57.746-25.79C58.391-25.146 58.391-24.101 57.746-23.457C57.102-22.812 56.057-22.812 55.413-23.457L34.413-44.457C33.769-45.101 33.769-46.146 34.413-46.79Z"/>
  </g>
  <g id="Ultralight-S" transform="matrix(1 0 0 1 514.336 696)">
   <path class="hierarchical-0:secondary SFSymbolsPreview4D4D4D" d="M9.43-35.127C9.43-55.064 25.593-71.227 45.53-71.227C65.468-71.227 81.63-55.064 81.63-35.127C81.63-15.189 65.468 0.973 45.53 0.973C25.593 0.973 9.43-15.189 9.43-35.127ZM45.53-69.027C26.808-69.027 11.63-53.849 11.63-35.127C11.63-16.404 26.808-1.227 45.53-1.227C64.253-1.227 79.43-16.404 79.43-35.127C79.43-53.849 64.253-69.027 45.53-69.027Z"/>
   <path class="hierarchical-1:primary SFSymbolsPreview212121" d="M56.808-46.404C57.238-45.975 57.238-45.278 56.808-44.849L35.808-23.849C35.379-23.419 34.682-23.419 34.253-23.849C33.823-24.278 33.823-24.975 34.253-25.404L55.253-46.404C55.682-46.834 56.379-46.834 56.808-46.404ZM34.253-46.404C34.682-46.834 35.379-46.834 35.808-46.404L56.808-25.404C57.238-24.975 57.238-24.278 56.808-23.849C56.379-23.419 55.682-23.419 55.253-23.849L34.253-44.849C33.823-45.278 33.823-45.975 34.253-46.404Z"/>
  </g>
 </g>
</svg>
