<?xml version="1.0" encoding="UTF-8"?>
<!--Generator: Apple Native CoreSVG 175-->
<!DOCTYPE svg
PUBLIC "-//W3C//DTD SVG 1.1//EN"
       "http://www.w3.org/Graphics/SVG/1.1/DTD/svg11.dtd">
<svg version="1.1" xmlns="http://www.w3.org/2000/svg" xmlns:xlink="http://www.w3.org/1999/xlink" width="3300" height="2200">
 <!--glyph: "", point size: 100.0, font version: "17.0d12e1", template writer version: "65.1"-->
 <style>.hierarchical-0:secondary {fill:#4D4D4D}
.hierarchical-1:primary {fill:#212121}

.SFSymbolsPreview212121 {fill:#212121;opacity:1.0}
.SFSymbolsPreview4D4D4D {fill:#4D4D4D;opacity:1.0}
</style>
 <g id="Notes">
  <rect height="2200" id="artboard" style="fill:white;opacity:1" width="3300" x="0" y="0"/>
  <line style="fill:none;stroke:black;opacity:1;stroke-width:0.5;" x1="263" x2="3036" y1="292" y2="292"/>
  <text style="stroke:none;fill:black;font-family:sans-serif;font-size:13;font-weight:bold;" transform="matrix(1 0 0 1 263 322)">Weight/Scale Variations</text>
  <text style="stroke:none;fill:black;font-family:sans-serif;font-size:13;text-anchor:middle;" transform="matrix(1 0 0 1 559.711 322)">Ultralight</text>
  <text style="stroke:none;fill:black;font-family:sans-serif;font-size:13;text-anchor:middle;" transform="matrix(1 0 0 1 856.422 322)">Thin</text>
  <text style="stroke:none;fill:black;font-family:sans-serif;font-size:13;text-anchor:middle;" transform="matrix(1 0 0 1 1153.13 322)">Light</text>
  <text style="stroke:none;fill:black;font-family:sans-serif;font-size:13;text-anchor:middle;" transform="matrix(1 0 0 1 1449.84 322)">Regular</text>
  <text style="stroke:none;fill:black;font-family:sans-serif;font-size:13;text-anchor:middle;" transform="matrix(1 0 0 1 1746.56 322)">Medium</text>
  <text style="stroke:none;fill:black;font-family:sans-serif;font-size:13;text-anchor:middle;" transform="matrix(1 0 0 1 2043.27 322)">Semibold</text>
  <text style="stroke:none;fill:black;font-family:sans-serif;font-size:13;text-anchor:middle;" transform="matrix(1 0 0 1 2339.98 322)">Bold</text>
  <text style="stroke:none;fill:black;font-family:sans-serif;font-size:13;text-anchor:middle;" transform="matrix(1 0 0 1 2636.69 322)">Heavy</text>
  <text style="stroke:none;fill:black;font-family:sans-serif;font-size:13;text-anchor:middle;" transform="matrix(1 0 0 1 2933.4 322)">Black</text>
  <line style="fill:none;stroke:black;opacity:1;stroke-width:0.5;" x1="263" x2="3036" y1="1903" y2="1903"/>
  <g transform="matrix(1 0 0 1 263 1933)">
   <path d="M9.24805 0.830078Q10.8691 0.830078 12.2949 0.214844Q13.7207-0.400391 14.8096-1.49414Q15.8984-2.58789 16.5186-4.01367Q17.1387-5.43945 17.1387-7.05078Q17.1387-8.66211 16.5186-10.0879Q15.8984-11.5137 14.8047-12.6074Q13.7109-13.7012 12.2852-14.3164Q10.8594-14.9316 9.23828-14.9316Q7.62695-14.9316 6.20117-14.3164Q4.77539-13.7012 3.69141-12.6074Q2.60742-11.5137 1.9873-10.0879Q1.36719-8.66211 1.36719-7.05078Q1.36719-5.43945 1.9873-4.01367Q2.60742-2.58789 3.69629-1.49414Q4.78516-0.400391 6.21094 0.214844Q7.63672 0.830078 9.24805 0.830078ZM9.24805-0.654297Q7.91992-0.654297 6.7627-1.14746Q5.60547-1.64062 4.73145-2.51953Q3.85742-3.39844 3.36426-4.56055Q2.87109-5.72266 2.87109-7.05078Q2.87109-8.37891 3.35938-9.54102Q3.84766-10.7031 4.72168-11.582Q5.5957-12.4609 6.75293-12.9541Q7.91016-13.4473 9.23828-13.4473Q10.5762-13.4473 11.7334-12.9541Q12.8906-12.4609 13.7695-11.582Q14.6484-10.7031 15.1465-9.54102Q15.6445-8.37891 15.6445-7.05078Q15.6445-5.72266 15.1514-4.56055Q14.6582-3.39844 13.7842-2.51953Q12.9102-1.64062 11.748-1.14746Q10.5859-0.654297 9.24805-0.654297ZM5.6543-7.05078Q5.6543-6.72852 5.85938-6.52832Q6.06445-6.32812 6.40625-6.32812L8.51562-6.32812L8.51562-4.20898Q8.51562-3.88672 8.71094-3.67676Q8.90625-3.4668 9.23828-3.4668Q9.56055-3.4668 9.77051-3.67676Q9.98047-3.88672 9.98047-4.20898L9.98047-6.32812L12.0898-6.32812Q12.4219-6.32812 12.627-6.52832Q12.832-6.72852 12.832-7.05078Q12.832-7.38281 12.627-7.58789Q12.4219-7.79297 12.0898-7.79297L9.98047-7.79297L9.98047-9.90234Q9.98047-10.2344 9.77051-10.4443Q9.56055-10.6543 9.23828-10.6543Q8.90625-10.6543 8.71094-10.4443Q8.51562-10.2344 8.51562-9.90234L8.51562-7.79297L6.40625-7.79297Q6.06445-7.79297 5.85938-7.58789Q5.6543-7.38281 5.6543-7.05078Z"/>
  </g>
  <g transform="matrix(1 0 0 1 281.867 1933)">
   <path d="M11.709 2.91016Q13.75 2.91016 15.5518 2.12891Q17.3535 1.34766 18.7305-0.0292969Q20.1074-1.40625 20.8887-3.20801Q21.6699-5.00977 21.6699-7.05078Q21.6699-9.0918 20.8887-10.8936Q20.1074-12.6953 18.7305-14.0723Q17.3535-15.4492 15.5469-16.2305Q13.7402-17.0117 11.6992-17.0117Q9.6582-17.0117 7.85645-16.2305Q6.05469-15.4492 4.68262-14.0723Q3.31055-12.6953 2.5293-10.8936Q1.74805-9.0918 1.74805-7.05078Q1.74805-5.00977 2.5293-3.20801Q3.31055-1.40625 4.6875-0.0292969Q6.06445 1.34766 7.86621 2.12891Q9.66797 2.91016 11.709 2.91016ZM11.709 1.25Q9.98047 1.25 8.47656 0.605469Q6.97266-0.0390625 5.83496-1.17676Q4.69727-2.31445 4.05762-3.81836Q3.41797-5.32227 3.41797-7.05078Q3.41797-8.7793 4.05762-10.2832Q4.69727-11.7871 5.83008-12.9297Q6.96289-14.0723 8.4668-14.7119Q9.9707-15.3516 11.6992-15.3516Q13.4277-15.3516 14.9316-14.7119Q16.4355-14.0723 17.5781-12.9297Q18.7207-11.7871 19.3652-10.2832Q20.0098-8.7793 20.0098-7.05078Q20.0098-5.32227 19.3701-3.81836Q18.7305-2.31445 17.5928-1.17676Q16.4551-0.0390625 14.9463 0.605469Q13.4375 1.25 11.709 1.25ZM7.17773-7.05078Q7.17773-6.69922 7.41211-6.47461Q7.64648-6.25 8.01758-6.25L10.8887-6.25L10.8887-3.36914Q10.8887-2.99805 11.1133-2.76855Q11.3379-2.53906 11.6895-2.53906Q12.0605-2.53906 12.29-2.76855Q12.5195-2.99805 12.5195-3.36914L12.5195-6.25L15.4004-6.25Q15.7715-6.25 16.001-6.47461Q16.2305-6.69922 16.2305-7.05078Q16.2305-7.42188 16.001-7.65137Q15.7715-7.88086 15.4004-7.88086L12.5195-7.88086L12.5195-10.752Q12.5195-11.1328 12.29-11.3623Q12.0605-11.5918 11.6895-11.5918Q11.3379-11.5918 11.1133-11.3574Q10.8887-11.123 10.8887-10.752L10.8887-7.88086L8.01758-7.88086Q7.63672-7.88086 7.40723-7.65137Q7.17773-7.42188 7.17773-7.05078Z"/>
  </g>
  <g transform="matrix(1 0 0 1 305.646 1933)">
   <path d="M14.9707 5.66406Q17.0605 5.66406 18.96 5.01465Q20.8594 4.36523 22.4512 3.19336Q24.043 2.02148 25.2197 0.429688Q26.3965-1.16211 27.0459-3.06641Q27.6953-4.9707 27.6953-7.05078Q27.6953-9.14062 27.0459-11.04Q26.3965-12.9395 25.2197-14.5312Q24.043-16.123 22.4512-17.2998Q20.8594-18.4766 18.9551-19.126Q17.0508-19.7754 14.9609-19.7754Q12.8711-19.7754 10.9717-19.126Q9.07227-18.4766 7.48535-17.2998Q5.89844-16.123 4.72168-14.5312Q3.54492-12.9395 2.90039-11.04Q2.25586-9.14062 2.25586-7.05078Q2.25586-4.9707 2.90527-3.06641Q3.55469-1.16211 4.72656 0.429688Q5.89844 2.02148 7.49023 3.19336Q9.08203 4.36523 10.9814 5.01465Q12.8809 5.66406 14.9707 5.66406ZM14.9707 3.84766Q13.1641 3.84766 11.5283 3.2959Q9.89258 2.74414 8.53516 1.74805Q7.17773 0.751953 6.17676-0.610352Q5.17578-1.97266 4.62891-3.6084Q4.08203-5.24414 4.08203-7.05078Q4.08203-8.86719 4.62891-10.5029Q5.17578-12.1387 6.17188-13.501Q7.16797-14.8633 8.52539-15.8594Q9.88281-16.8555 11.5186-17.4023Q13.1543-17.9492 14.9609-17.9492Q16.7773-17.9492 18.4131-17.4023Q20.0488-16.8555 21.4111-15.8594Q22.7734-14.8633 23.7695-13.501Q24.7656-12.1387 25.3174-10.5029Q25.8691-8.86719 25.8691-7.05078Q25.8789-5.24414 25.332-3.6084Q24.7852-1.97266 23.7842-0.610352Q22.7832 0.751953 21.4209 1.74805Q20.0586 2.74414 18.4229 3.2959Q16.7871 3.84766 14.9707 3.84766ZM9.19922-7.05078Q9.19922-6.66992 9.45801-6.4209Q9.7168-6.17188 10.1172-6.17188L14.0625-6.17188L14.0625-2.2168Q14.0625-1.81641 14.3115-1.55762Q14.5605-1.29883 14.9512-1.29883Q15.3516-1.29883 15.6104-1.55273Q15.8691-1.80664 15.8691-2.2168L15.8691-6.17188L19.8242-6.17188Q20.2246-6.17188 20.4785-6.4209Q20.7324-6.66992 20.7324-7.05078Q20.7324-7.46094 20.4785-7.71484Q20.2246-7.96875 19.8242-7.96875L15.8691-7.96875L15.8691-11.9141Q15.8691-12.3242 15.6104-12.583Q15.3516-12.8418 14.9512-12.8418Q14.5605-12.8418 14.3115-12.583Q14.0625-12.3242 14.0625-11.9141L14.0625-7.96875L10.1172-7.96875Q9.70703-7.96875 9.45312-7.71484Q9.19922-7.46094 9.19922-7.05078Z"/>
  </g>
  <text style="stroke:none;fill:black;font-family:sans-serif;font-size:13;font-weight:bold;" transform="matrix(1 0 0 1 263 1953)">Design Variations</text>
  <text style="stroke:none;fill:black;font-family:sans-serif;font-size:13;" transform="matrix(1 0 0 1 263 1971)">Symbols are supported in up to nine weights and three scales.</text>
  <text style="stroke:none;fill:black;font-family:sans-serif;font-size:13;" transform="matrix(1 0 0 1 263 1989)">For optimal layout with text and other symbols, vertically align</text>
  <text style="stroke:none;fill:black;font-family:sans-serif;font-size:13;" transform="matrix(1 0 0 1 263 2007)">symbols with the adjacent text.</text>
  <line style="fill:none;stroke:#00AEEF;stroke-width:0.5;opacity:1.0;" x1="776" x2="776" y1="1919" y2="1933"/>
  <g transform="matrix(1 0 0 1 776 1933)">
   <path d="M3.31055 0.15625Q3.70117 0.15625 3.91602-0.00976562Q4.13086-0.175781 4.26758-0.585938L5.52734-4.0332L11.2891-4.0332L12.5488-0.585938Q12.6855-0.175781 12.9004-0.00976562Q13.1152 0.15625 13.4961 0.15625Q13.8867 0.15625 14.1162-0.0585938Q14.3457-0.273438 14.3457-0.644531Q14.3457-0.869141 14.2383-1.17188L9.6582-13.3691Q9.48242-13.8184 9.17969-14.043Q8.87695-14.2676 8.4082-14.2676Q7.5-14.2676 7.17773-13.3789L2.59766-1.16211Q2.49023-0.859375 2.49023-0.634766Q2.49023-0.263672 2.70996-0.0537109Q2.92969 0.15625 3.31055 0.15625ZM6.00586-5.51758L8.37891-12.0898L8.42773-12.0898L10.8008-5.51758Z"/>
  </g>
  <line style="fill:none;stroke:#00AEEF;stroke-width:0.5;opacity:1.0;" x1="793.197" x2="793.197" y1="1919" y2="1933"/>
  <text style="stroke:none;fill:black;font-family:sans-serif;font-size:13;font-weight:bold;" transform="matrix(1 0 0 1 776 1953)">Margins</text>
  <text style="stroke:none;fill:black;font-family:sans-serif;font-size:13;" transform="matrix(1 0 0 1 776 1971)">Leading and trailing margins on the left and right side of each symbol</text>
  <text style="stroke:none;fill:black;font-family:sans-serif;font-size:13;" transform="matrix(1 0 0 1 776 1989)">can be adjusted by modifying the x-location of the margin guidelines.</text>
  <text style="stroke:none;fill:black;font-family:sans-serif;font-size:13;" transform="matrix(1 0 0 1 776 2007)">Modifications are automatically applied proportionally to all</text>
  <text style="stroke:none;fill:black;font-family:sans-serif;font-size:13;" transform="matrix(1 0 0 1 776 2025)">scales and weights.</text>
  <g transform="matrix(1 0 0 1 1289 1933)">
   <path d="M2.8418 1.86523L4.54102 3.57422Q5.18555 4.22852 5.90332 4.17969Q6.62109 4.13086 7.31445 3.35938L18.0078-8.42773L17.041-9.4043L6.42578 2.27539Q6.16211 2.57812 5.89355 2.61719Q5.625 2.65625 5.27344 2.30469L4.10156 1.14258Q3.75 0.791016 3.79395 0.522461Q3.83789 0.253906 4.14062-0.0195312L15.6152-10.8203L14.6387-11.7871L3.04688-0.898438Q2.30469-0.214844 2.25098 0.498047Q2.19727 1.21094 2.8418 1.86523ZM9.25781-16.3281Q8.94531-16.0254 8.90625-15.6348Q8.86719-15.2441 9.04297-14.9512Q9.21875-14.6777 9.55566-14.541Q9.89258-14.4043 10.3809-14.5215Q11.4746-14.7754 12.5977-14.7314Q13.7207-14.6875 14.7949-13.9844L14.209-12.5293Q13.9551-11.9043 14.0674-11.4404Q14.1797-10.9766 14.5801-10.5664L16.875-8.25195Q17.2363-7.88086 17.5781-7.82227Q17.9199-7.76367 18.3398-7.8418L19.4043-8.03711L20.0684-7.36328L20.0293-6.80664Q20-6.43555 20.1221-6.12305Q20.2441-5.81055 20.6055-5.44922L21.3672-4.70703Q21.7285-4.3457 22.1533-4.33105Q22.5781-4.31641 22.9297-4.66797L25.8398-7.58789Q26.1914-7.93945 26.1816-8.35449Q26.1719-8.76953 25.8105-9.13086L25.0391-9.89258Q24.6875-10.2539 24.3799-10.3857Q24.0723-10.5176 23.7109-10.4883L23.1348-10.4395L22.4902-11.0742L22.7344-12.1973Q22.832-12.6172 22.6953-12.9834Q22.5586-13.3496 22.1191-13.7891L19.9219-15.9766Q18.6719-17.2168 17.2607-17.8369Q15.8496-18.457 14.4189-18.4814Q12.9883-18.5059 11.665-17.959Q10.3418-17.4121 9.25781-16.3281ZM10.752-15.957Q11.6602-16.6211 12.7002-16.9043Q13.7402-17.1875 14.8047-17.085Q15.8691-16.9824 16.8701-16.5137Q17.8711-16.0449 18.7012-15.2051L21.1328-12.793Q21.3086-12.6172 21.3525-12.4512Q21.3965-12.2852 21.3379-12.0312L21.0156-10.5469L22.5195-9.0625L23.5059-9.12109Q23.6914-9.13086 23.7891-9.09668Q23.8867-9.0625 24.0332-8.91602L24.6094-8.33984L22.168-5.89844L21.5918-6.47461Q21.4453-6.62109 21.4062-6.71875Q21.3672-6.81641 21.377-7.01172L21.4453-7.98828L19.9512-9.47266L18.4277-9.21875Q18.1836-9.16992 18.042-9.2041Q17.9004-9.23828 17.7148-9.41406L15.7129-11.416Q15.5176-11.5918 15.4932-11.7529Q15.4688-11.9141 15.5859-12.1875L16.4648-14.2773Q15.293-15.3711 13.8281-15.791Q12.3633-16.2109 10.8398-15.7617Q10.7227-15.7324 10.6885-15.8057Q10.6543-15.8789 10.752-15.957Z"/>
  </g>
  <text style="stroke:none;fill:black;font-family:sans-serif;font-size:13;font-weight:bold;" transform="matrix(1 0 0 1 1289 1953)">Exporting</text>
  <text style="stroke:none;fill:black;font-family:sans-serif;font-size:13;" transform="matrix(1 0 0 1 1289 1971)">Symbols should be outlined when exporting to ensure the</text>
  <text style="stroke:none;fill:black;font-family:sans-serif;font-size:13;" transform="matrix(1 0 0 1 1289 1989)">design is preserved when submitting to Xcode.</text>
  <text id="template-version" style="stroke:none;fill:black;font-family:sans-serif;font-size:13;text-anchor:end;" transform="matrix(1 0 0 1 3036 1933)">Template v.3.0</text>
  <text style="stroke:none;fill:black;font-family:sans-serif;font-size:13;text-anchor:end;" transform="matrix(1 0 0 1 3036 1951)">Requires Xcode 13 or greater</text>
  <text id="descriptive-name" style="stroke:none;fill:black;font-family:sans-serif;font-size:13;text-anchor:end;" transform="matrix(1 0 0 1 3036 1969)">Generated from camera</text>
  <text style="stroke:none;fill:black;font-family:sans-serif;font-size:13;text-anchor:end;" transform="matrix(1 0 0 1 3036 1987)">Typeset at 100 points</text>
  <text style="stroke:none;fill:black;font-family:sans-serif;font-size:13;" transform="matrix(1 0 0 1 263 726)">Small</text>
  <text style="stroke:none;fill:black;font-family:sans-serif;font-size:13;" transform="matrix(1 0 0 1 263 1156)">Medium</text>
  <text style="stroke:none;fill:black;font-family:sans-serif;font-size:13;" transform="matrix(1 0 0 1 263 1586)">Large</text>
 </g>
 <g id="Guides">
  <g id="H-reference" style="fill:#27AAE1;stroke:none;" transform="matrix(1 0 0 1 339 696)">
   <path d="M0.976562 0L3.66211 0L29.3457-67.1387L30.0293-67.1387L30.0293-70.459L28.125-70.459ZM11.6699-24.4629L46.9727-24.4629L46.2402-26.709L12.4512-26.709ZM55.127 0L57.7637 0L30.6152-70.459L29.4434-70.459L29.4434-67.1387Z"/>
  </g>
  <line id="Baseline-S" style="fill:none;stroke:#27AAE1;opacity:1;stroke-width:0.5;" x1="263" x2="3036" y1="696" y2="696"/>
  <line id="Capline-S" style="fill:none;stroke:#27AAE1;opacity:1;stroke-width:0.5;" x1="263" x2="3036" y1="625.541" y2="625.541"/>
  <g id="H-reference" style="fill:#27AAE1;stroke:none;" transform="matrix(1 0 0 1 339 1126)">
   <path d="M0.976562 0L3.66211 0L29.3457-67.1387L30.0293-67.1387L30.0293-70.459L28.125-70.459ZM11.6699-24.4629L46.9727-24.4629L46.2402-26.709L12.4512-26.709ZM55.127 0L57.7637 0L30.6152-70.459L29.4434-70.459L29.4434-67.1387Z"/>
  </g>
  <line id="Baseline-M" style="fill:none;stroke:#27AAE1;opacity:1;stroke-width:0.5;" x1="263" x2="3036" y1="1126" y2="1126"/>
  <line id="Capline-M" style="fill:none;stroke:#27AAE1;opacity:1;stroke-width:0.5;" x1="263" x2="3036" y1="1055.54" y2="1055.54"/>
  <g id="H-reference" style="fill:#27AAE1;stroke:none;" transform="matrix(1 0 0 1 339 1556)">
   <path d="M0.976562 0L3.66211 0L29.3457-67.1387L30.0293-67.1387L30.0293-70.459L28.125-70.459ZM11.6699-24.4629L46.9727-24.4629L46.2402-26.709L12.4512-26.709ZM55.127 0L57.7637 0L30.6152-70.459L29.4434-70.459L29.4434-67.1387Z"/>
  </g>
  <line id="Baseline-L" style="fill:none;stroke:#27AAE1;opacity:1;stroke-width:0.5;" x1="263" x2="3036" y1="1556" y2="1556"/>
  <line id="Capline-L" style="fill:none;stroke:#27AAE1;opacity:1;stroke-width:0.5;" x1="263" x2="3036" y1="1485.54" y2="1485.54"/>
  <line id="left-margin-Regular-M" style="fill:none;stroke:#00AEEF;stroke-width:0.5;opacity:1.0;" x1="1392.45" x2="1392.45" y1="1030.78" y2="1150.12"/>
  <line id="right-margin-Regular-M" style="fill:none;stroke:#00AEEF;stroke-width:0.5;opacity:1.0;" x1="1507.24" x2="1507.24" y1="1030.78" y2="1150.12"/>
 </g>
 <g id="Symbols">
  <g id="Black-L" transform="matrix(1 0 0 1 2858.94 1556)">
   <path class="hierarchical-0:secondary SFSymbolsPreview4D4D4D" d="M44.77-29.54C44.77-46.03 58.14-59.39 74.62-59.39C91.11-59.39 104.47-46.03 104.47-29.54C104.47-13.06 91.11 0.31 74.62 0.31C58.14 0.31 44.77-13.06 44.77-29.54ZM74.62-45.19C65.98-45.19 58.97-38.19 58.97-29.54C58.97-20.9 65.98-13.89 74.62-13.89C83.26-13.89 90.27-20.9 90.27-29.54C90.27-38.19 83.26-45.19 74.62-45.19Z"/>
   <path class="hierarchical-1:primary SFSymbolsPreview212121" d="M51.65-90.36C52.97-92.33 55.18-93.52 57.56-93.52L91.68-93.52C94.06-93.52 96.27-92.33 97.59-90.36L106.86-76.46L125.81-76.46C130.71-76.46 135.41-74.51 138.87-71.04C142.34-67.58 144.28-62.88 144.28-57.98L144.28 4.58C144.28 9.48 142.34 14.18 138.87 17.65C135.41 21.11 130.71 23.06 125.81 23.06L23.43 23.06C18.53 23.06 13.83 21.11 10.37 17.65C6.9 14.18 4.96 9.48 4.96 4.58L4.96-57.98C4.96-62.88 6.9-67.58 10.37-71.04C13.83-74.51 18.53-76.46 23.43-76.46L42.38-76.46L51.65-90.36ZM61.36-79.32L52.09-65.42C50.77-63.44 48.56-62.26 46.18-62.26L23.43-62.26C22.3-62.26 21.21-61.8 20.41-61C19.61-60.2 19.16-59.11 19.16-57.98L19.16 4.58C19.16 5.72 19.61 6.8 20.41 7.61C21.21 8.41 22.3 8.86 23.43 8.86L125.81 8.86C126.94 8.86 128.03 8.41 128.83 7.61C129.63 6.8 130.08 5.72 130.08 4.58L130.08-57.98C130.08-59.11 129.63-60.2 128.83-61C128.03-61.8 126.94-62.26 125.81-62.26L103.06-62.26C100.68-62.26 98.47-63.44 97.15-65.42L87.88-79.32L61.36-79.32Z"/>
  </g>
  <g id="Heavy-L" transform="matrix(1 0 0 1 2563.07 1556)">
   <path class="hierarchical-0:secondary SFSymbolsPreview4D4D4D" d="M44.77-29.54C44.77-45.56 57.75-58.54 73.77-58.54C89.78-58.54 102.77-45.56 102.77-29.54C102.77-13.53 89.78-0.54 73.77-0.54C57.75-0.54 44.77-13.53 44.77-29.54ZM73.77-46.04C64.65-46.04 57.27-38.66 57.27-29.54C57.27-20.43 64.65-13.04 73.77-13.04C82.88-13.04 90.27-20.43 90.27-29.54C90.27-38.66 82.88-46.04 73.77-46.04Z"/>
   <path class="hierarchical-1:primary SFSymbolsPreview212121" d="M51.5-89.88C52.66-91.62 54.62-92.67 56.7-92.67L90.83-92.67C92.92-92.67 94.87-91.62 96.03-89.88L105.55-75.61L124.96-75.61C129.63-75.61 134.11-73.75 137.42-70.44C140.72-67.14 142.58-62.65 142.58-57.98L142.58 4.58C142.58 9.26 140.72 13.74 137.42 17.04C134.11 20.35 129.63 22.21 124.96 22.21L22.58 22.21C17.91 22.21 13.42 20.35 10.12 17.04C6.81 13.74 4.96 9.26 4.96 4.58L4.96-57.98C4.96-62.65 6.81-67.14 10.12-70.44C13.42-73.75 17.91-75.61 22.58-75.61L41.99-75.61L51.5-89.88ZM60.05-80.17L50.53-65.89C49.37-64.15 47.42-63.11 45.33-63.11L22.58-63.11C21.22-63.11 19.92-62.57 18.96-61.6C17.99-60.64 17.46-59.34 17.46-57.98L17.46 4.58C17.46 5.94 17.99 7.24 18.96 8.21C19.92 9.17 21.22 9.71 22.58 9.71L124.96 9.71C126.31 9.71 127.62 9.17 128.58 8.21C129.54 7.24 130.08 5.94 130.08 4.58L130.08-57.98C130.08-59.34 129.54-60.64 128.58-61.6C127.62-62.57 126.31-63.11 124.96-63.11L102.2-63.11C100.12-63.11 98.16-64.15 97-65.89L87.49-80.17L60.05-80.17Z"/>
  </g>
  <g id="Bold-L" transform="matrix(1 0 0 1 2267.31 1556)">
   <path class="hierarchical-0:secondary SFSymbolsPreview4D4D4D" d="M44.77-29.54C44.77-45.04 57.33-57.59 72.82-57.59C88.32-57.59 100.87-45.04 100.87-29.54C100.87-14.05 88.32-1.49 72.82-1.49C57.33-1.49 44.77-14.05 44.77-29.54ZM72.82-46.99C63.19-46.99 55.37-39.18 55.37-29.54C55.37-19.91 63.19-12.09 72.82-12.09C82.46-12.09 90.27-19.91 90.27-29.54C90.27-39.18 82.46-46.99 72.82-46.99Z"/>
   <path class="hierarchical-1:primary SFSymbolsPreview212121" d="M51.35-89.36C52.33-90.83 53.99-91.72 55.76-91.72L89.89-91.72C91.66-91.72 93.31-90.83 94.3-89.36L104.1-74.66L124.01-74.66C128.43-74.66 132.68-72.9 135.8-69.77C138.93-66.65 140.69-62.4 140.69-57.98L140.69 4.58C140.69 9 138.93 13.25 135.8 16.37C132.68 19.5 128.43 21.26 124.01 21.26L21.64 21.26C17.21 21.26 12.97 19.5 9.85 16.37C6.72 13.25 4.96 9 4.96 4.58L4.96-57.98C4.96-62.4 6.72-66.65 9.85-69.77C12.97-72.9 17.21-74.66 21.64-74.66L41.55-74.66L51.35-89.36ZM58.6-81.12L48.8-66.42C47.81-64.94 46.16-64.06 44.39-64.06L21.64-64.06C20.03-64.06 18.48-63.42 17.34-62.28C16.2-61.14 15.56-59.59 15.56-57.98L15.56 4.58C15.56 6.19 16.2 7.74 17.34 8.88C18.48 10.02 20.03 10.66 21.64 10.66L124.01 10.66C125.62 10.66 127.17 10.02 128.31 8.88C129.45 7.74 130.09 6.19 130.09 4.58L130.09-57.98C130.09-59.59 129.45-61.14 128.31-62.28C127.17-63.42 125.62-64.06 124.01-64.06L101.26-64.06C99.49-64.06 97.83-64.94 96.85-66.42L87.05-81.12L58.6-81.12Z"/>
  </g>
  <g id="Semibold-L" transform="matrix(1 0 0 1 1971.25 1556)">
   <path class="hierarchical-0:secondary SFSymbolsPreview4D4D4D" d="M44.77-29.54C44.77-44.68 57.04-56.94 72.17-56.94C87.3-56.94 99.57-44.68 99.57-29.54C99.57-14.41 87.3-2.14 72.17-2.14C57.04-2.14 44.77-14.41 44.77-29.54ZM72.17-47.64C62.17-47.64 54.07-39.54 54.07-29.54C54.07-19.55 62.17-11.44 72.17-11.44C82.17-11.44 90.27-19.55 90.27-29.54C90.27-39.54 82.17-47.64 72.17-47.64Z"/>
   <path class="hierarchical-1:primary SFSymbolsPreview212121" d="M51.24-89C52.1-90.29 53.55-91.07 55.11-91.07L89.23-91.07C90.79-91.07 92.24-90.29 93.1-89L103.1-74.01L123.36-74.01C127.61-74.01 131.68-72.32 134.69-69.31C137.69-66.31 139.38-62.23 139.38-57.98L139.38 4.58C139.38 8.83 137.69 12.91 134.69 15.91C131.68 18.92 127.61 20.61 123.36 20.61L20.98 20.61C16.73 20.61 12.66 18.92 9.65 15.91C6.65 12.91 4.96 8.83 4.96 4.58L4.96-57.98C4.96-62.23 6.65-66.31 9.65-69.31C12.66-72.32 16.73-74.01 20.98-74.01L41.24-74.01L51.24-89ZM57.6-81.77L47.6-66.78C46.74-65.48 45.29-64.71 43.73-64.71L20.98-64.71C19.2-64.71 17.49-64 16.23-62.74C14.97-61.47 14.26-59.76 14.26-57.98L14.26 4.58C14.26 6.37 14.97 8.08 16.23 9.34C17.49 10.6 19.2 11.31 20.98 11.31L123.36 11.31C125.14 11.31 126.85 10.6 128.11 9.34C129.37 8.08 130.08 6.37 130.08 4.58L130.08-57.98C130.08-59.76 129.37-61.47 128.11-62.74C126.85-64 125.14-64.71 123.36-64.71L100.61-64.71C99.05-64.71 97.6-65.48 96.74-66.78L86.74-81.77L57.6-81.77Z"/>
  </g>
  <g id="Medium-L" transform="matrix(1 0 0 1 1675.04 1556)">
   <path class="hierarchical-0:secondary SFSymbolsPreview4D4D4D" d="M44.77-29.54C44.77-44.4 56.81-56.44 71.67-56.44C86.53-56.44 98.57-44.4 98.57-29.54C98.57-14.69 86.53-2.64 71.67-2.64C56.81-2.64 44.77-14.69 44.77-29.54ZM71.67-48.14C61.4-48.14 53.07-39.82 53.07-29.54C53.07-19.27 61.4-10.94 71.67-10.94C81.94-10.94 90.27-19.27 90.27-29.54C90.27-39.82 81.94-48.14 71.67-48.14Z"/>
   <path class="hierarchical-1:primary SFSymbolsPreview212121" d="M51.15-88.72C51.92-89.87 53.22-90.57 54.61-90.57L88.73-90.57C90.12-90.57 91.42-89.87 92.19-88.72L102.33-73.51L122.86-73.51C126.97-73.51 130.92-71.87 133.83-68.96C136.75-66.05 138.38-62.1 138.38-57.98L138.38 4.58C138.38 8.7 136.75 12.65 133.83 15.56C130.92 18.47 126.97 20.11 122.86 20.11L20.48 20.11C16.36 20.11 12.42 18.47 9.5 15.56C6.59 12.65 4.96 8.7 4.96 4.58L4.96-57.98C4.96-62.1 6.59-66.05 9.5-68.96C12.42-71.87 16.36-73.51 20.48-73.51L41.01-73.51L51.15-88.72ZM56.83-82.27L46.69-67.05C45.92-65.9 44.62-65.21 43.23-65.21L20.48-65.21C18.57-65.21 16.73-64.44 15.37-63.09C14.02-61.73 13.26-59.9 13.26-57.98L13.26 4.58C13.26 6.5 14.02 8.34 15.37 9.69C16.73 11.05 18.57 11.81 20.48 11.81L122.86 11.81C124.77 11.81 126.61 11.05 127.97 9.69C129.32 8.34 130.08 6.5 130.08 4.58L130.08-57.98C130.08-59.9 129.32-61.73 127.97-63.09C126.61-64.44 124.77-65.21 122.86-65.21L100.11-65.21C98.72-65.21 97.42-65.9 96.65-67.05L86.51-82.27L56.83-82.27Z"/>
  </g>
  <g id="Regular-L" transform="matrix(1 0 0 1 1378.98 1556)">
   <path class="hierarchical-0:secondary SFSymbolsPreview4D4D4D" d="M44.77-29.54C44.77-44.04 56.52-55.79 71.02-55.79C85.52-55.79 97.27-44.04 97.27-29.54C97.27-15.05 85.52-3.29 71.02-3.29C56.52-3.29 44.77-15.05 44.77-29.54ZM71.02-48.79C60.39-48.79 51.77-40.17 51.77-29.54C51.77-18.91 60.39-10.29 71.02-10.29C81.65-10.29 90.27-18.91 90.27-29.54C90.27-40.17 81.65-48.79 71.02-48.79Z"/>
   <path class="hierarchical-1:primary SFSymbolsPreview212121" d="M51.05-88.36C51.69-89.33 52.79-89.92 53.96-89.92L88.08-89.92C89.25-89.92 90.35-89.33 90.99-88.36L101.33-72.86L122.21-72.86C126.15-72.86 129.94-71.29 132.73-68.5C135.52-65.71 137.08-61.93 137.08-57.98L137.08 4.58C137.08 8.53 135.52 12.31 132.73 15.1C129.94 17.89 126.15 19.46 122.21 19.46L19.83 19.46C15.89 19.46 12.1 17.89 9.31 15.1C6.52 12.31 4.96 8.53 4.96 4.58L4.96-57.98C4.96-61.93 6.52-65.71 9.31-68.5C12.1-71.29 15.89-72.86 19.83-72.86L40.71-72.86L51.05-88.36ZM55.83-82.92L45.49-67.41C44.85-66.44 43.75-65.86 42.58-65.86L19.83-65.86C17.74-65.86 15.74-65.03 14.26-63.55C12.79-62.07 11.96-60.07 11.96-57.98L11.96 4.58C11.96 6.67 12.79 8.67 14.26 10.15C15.74 11.63 17.74 12.46 19.83 12.46L122.21 12.46C124.3 12.46 126.3 11.63 127.78 10.15C129.25 8.67 130.08 6.67 130.08 4.58L130.08-57.98C130.08-60.07 129.25-62.07 127.78-63.55C126.3-65.03 124.3-65.86 122.21-65.86L99.46-65.86C98.29-65.86 97.19-66.44 96.55-67.41L86.21-82.92L55.83-82.92Z"/>
  </g>
  <g id="Light-L" transform="matrix(1 0 0 1 1083.07 1556)">
   <path class="hierarchical-0:secondary SFSymbolsPreview4D4D4D" d="M44.77-29.54C44.77-43.6 56.16-54.99 70.22-54.99C84.28-54.99 95.67-43.6 95.67-29.54C95.67-15.49 84.28-4.09 70.22-4.09C56.16-4.09 44.77-15.49 44.77-29.54ZM70.22-49.59C59.15-49.59 50.17-40.62 50.17-29.54C50.17-18.47 59.15-9.49 70.22-9.49C81.29-9.49 90.27-18.47 90.27-29.54C90.27-40.62 81.29-49.59 70.22-49.59Z"/>
   <path class="hierarchical-1:primary SFSymbolsPreview212121" d="M50.91-87.91C51.41-88.67 52.25-89.12 53.16-89.12L87.28-89.12C88.19-89.12 89.03-88.67 89.53-87.91L100.1-72.05L121.41-72.05C125.14-72.05 128.72-70.57 131.36-67.93C134-65.29 135.48-61.71 135.48-57.98L135.48 4.58C135.48 8.32 134 11.9 131.36 14.54C128.72 17.17 125.14 18.66 121.41 18.66L19.03 18.66C15.3 18.66 11.72 17.17 9.08 14.54C6.44 11.9 4.96 8.32 4.96 4.58L4.96-57.98C4.96-61.71 6.44-65.29 9.08-67.93C11.72-70.57 15.3-72.05 19.03-72.05L40.34-72.05L50.91-87.91ZM54.6-83.72L44.03-67.86C43.53-67.11 42.69-66.65 41.78-66.65L19.03-66.65C16.73-66.65 14.53-65.74 12.9-64.11C11.27-62.49 10.36-60.28 10.36-57.98L10.36 4.58C10.36 6.88 11.27 9.09 12.9 10.72C14.53 12.34 16.73 13.26 19.03 13.26L121.41 13.26C123.71 13.26 125.91 12.34 127.54 10.72C129.17 9.09 130.08 6.88 130.08 4.58L130.08-57.98C130.08-60.28 129.17-62.49 127.54-64.11C125.91-65.74 123.71-66.65 121.41-66.65L98.66-66.65C97.75-66.65 96.91-67.11 96.41-67.86L85.84-83.72L54.6-83.72Z"/>
  </g>
  <g id="Thin-L" transform="matrix(1 0 0 1 787.405 1556)">
   <path class="hierarchical-0:secondary SFSymbolsPreview4D4D4D" d="M44.773-29.54C44.773-43.02 55.697-53.94 69.173-53.94C82.648-53.94 93.573-43.02 93.573-29.54C93.573-16.07 82.648-5.14 69.173-5.14C55.697-5.14 44.773-16.07 44.773-29.54ZM69.173-50.64C57.519-50.64 48.073-41.2 48.073-29.54C48.073-17.89 57.519-8.44 69.173-8.44C80.826-8.44 90.273-17.89 90.273-29.54C90.273-41.2 80.826-50.64 69.173-50.64Z"/>
   <path class="hierarchical-1:primary SFSymbolsPreview212121" d="M50.737-87.33C51.043-87.79 51.558-88.07 52.11-88.07L86.235-88.07C86.787-88.07 87.302-87.79 87.608-87.33L98.493-71.01L120.36-71.01C123.815-71.01 127.128-69.63 129.57-67.19C132.013-64.75 133.385-61.44 133.385-57.98L133.385 4.58C133.385 8.04 132.013 11.35 129.57 13.79C127.128 16.23 123.815 17.61 120.36 17.61L17.985 17.61C14.531 17.61 11.218 16.23 8.775 13.79C6.332 11.35 4.96 8.04 4.96 4.58L4.96-57.98C4.96-61.44 6.332-64.75 8.775-67.19C11.218-69.63 14.531-71.01 17.985-71.01L39.852-71.01L50.737-87.33ZM52.993-84.77L42.108-68.44C41.802-67.98 41.287-67.71 40.735-67.71L17.985-67.71C15.406-67.71 12.932-66.68 11.108-64.86C9.285-63.03 8.26-60.56 8.26-57.98L8.26 4.58C8.26 7.16 9.285 9.63 11.108 11.46C12.932 13.28 15.406 14.31 17.985 14.31L120.36 14.31C122.939 14.31 125.413 13.28 127.237 11.46C129.061 9.63 130.085 7.16 130.085 4.58L130.085-57.98C130.085-60.56 129.061-63.03 127.237-64.86C125.413-66.68 122.939-67.71 120.36-67.71L97.61-67.71C97.058-67.71 96.543-67.98 96.237-68.44L85.352-84.77L52.993-84.77Z"/>
  </g>
  <g id="Ultralight-L" transform="matrix(1 0 0 1 491.244 1556)">
   <path class="hierarchical-0:secondary SFSymbolsPreview4D4D4D" d="M44.772-29.54C44.772-42.71 55.45-53.39 68.622-53.39C81.794-53.39 92.472-42.71 92.472-29.54C92.472-16.37 81.794-5.69 68.622-5.69C55.45-5.69 44.772-16.37 44.772-29.54ZM68.622-51.19C56.665-51.19 46.972-41.5 46.972-29.54C46.972-17.59 56.665-7.89 68.622-7.89C80.579-7.89 90.272-17.59 90.272-29.54C90.272-41.5 80.579-51.19 68.622-51.19Z"/>
   <path class="hierarchical-1:primary SFSymbolsPreview212121" d="M50.645-87.03C50.849-87.33 51.192-87.52 51.56-87.52L85.685-87.52C86.053-87.52 86.396-87.33 86.6-87.03L97.649-70.46L119.81-70.46C123.118-70.46 126.292-69.14 128.631-66.8C130.971-64.46 132.285-61.29 132.285-57.98L132.285 4.58C132.285 7.89 130.971 11.06 128.631 13.4C126.292 15.74 123.118 17.06 119.81 17.06L17.435 17.06C14.126 17.06 10.953 15.74 8.614 13.4C6.274 11.06 4.96 7.89 4.96 4.58L4.96-57.98C4.96-61.29 6.274-64.46 8.614-66.8C10.953-69.14 14.126-70.46 17.435-70.46L39.596-70.46L50.645-87.03ZM52.149-85.32L41.1-68.74C40.896-68.44 40.553-68.26 40.185-68.26L17.435-68.26C14.71-68.26 12.096-67.17 10.169-65.25C8.242-63.32 7.16-60.71 7.16-57.98L7.16 4.58C7.16 7.31 8.242 9.92 10.169 11.85C12.096 13.77 14.71 14.86 17.435 14.86L119.81 14.86C122.535 14.86 125.148 13.77 127.075 11.85C129.002 9.92 130.085 7.31 130.085 4.58L130.085-57.98C130.085-60.71 129.002-63.32 127.075-65.25C125.148-67.17 122.535-68.26 119.81-68.26L97.06-68.26C96.692-68.26 96.349-68.44 96.145-68.74L85.096-85.32L52.149-85.32Z"/>
  </g>
  <g id="Black-M" transform="matrix(1 0 0 1 2872.41 1126)">
   <path class="hierarchical-0:secondary SFSymbolsPreview4D4D4D" d="M36.2-30.77C36.2-44.55 47.37-55.72 61.15-55.72C74.92-55.72 86.1-44.55 86.1-30.77C86.1-16.99 74.92-5.82 61.15-5.82C47.37-5.82 36.2-16.99 36.2-30.77ZM61.15-41.52C55.21-41.52 50.4-36.71 50.4-30.77C50.4-24.83 55.21-20.02 61.15-20.02C67.08-20.02 71.9-24.83 71.9-30.77C71.9-36.71 67.08-41.52 61.15-41.52Z"/>
   <path class="hierarchical-1:primary SFSymbolsPreview212121" d="M41.85-79.33C43.17-81.31 45.38-82.49 47.76-82.49L74.53-82.49C76.91-82.49 79.12-81.31 80.44-79.33L87.26-69.1L101.31-69.1C105.56-69.1 109.63-67.42 112.64-64.41C115.64-61.41 117.33-57.33 117.33-53.08L117.33-3.99C117.33 0.26 115.64 4.33 112.64 7.34C109.63 10.34 105.56 12.03 101.31 12.03L20.98 12.03C16.73 12.03 12.66 10.34 9.65 7.34C6.65 4.33 4.96 0.26 4.96-3.99L4.96-53.08C4.96-57.33 6.65-61.41 9.65-64.41C12.66-67.42 16.73-69.1 20.98-69.1L35.03-69.1L41.85-79.33ZM51.56-68.29L44.74-58.07C43.42-56.09 41.21-54.9 38.83-54.9L20.98-54.9C20.5-54.9 20.03-54.71 19.69-54.37C19.35-54.03 19.16-53.56 19.16-53.08L19.16-3.99C19.16-3.51 19.35-3.04 19.69-2.7C20.03-2.36 20.5-2.17 20.98-2.17L101.31-2.17C101.79-2.17 102.26-2.36 102.6-2.7C102.94-3.04 103.13-3.51 103.13-3.99L103.13-53.08C103.13-53.56 102.94-54.03 102.6-54.37C102.26-54.71 101.79-54.9 101.31-54.9L83.46-54.9C81.08-54.9 78.87-56.09 77.55-58.07L70.73-68.29L51.56-68.29Z"/>
  </g>
  <g id="Heavy-M" transform="matrix(1 0 0 1 2576.55 1126)">
   <path class="hierarchical-0:secondary SFSymbolsPreview4D4D4D" d="M36.19-30.77C36.19-44.08 46.98-54.87 60.29-54.87C73.6-54.87 84.39-44.08 84.39-30.77C84.39-17.46 73.6-6.67 60.29-6.67C46.98-6.67 36.19-17.46 36.19-30.77ZM60.29-42.37C53.89-42.37 48.69-37.17 48.69-30.77C48.69-24.36 53.89-19.17 60.29-19.17C66.7-19.17 71.89-24.36 71.89-30.77C71.89-37.17 66.7-42.37 60.29-42.37Z"/>
   <path class="hierarchical-1:primary SFSymbolsPreview212121" d="M41.71-78.86C42.86-80.6 44.82-81.64 46.91-81.64L73.68-81.64C75.77-81.64 77.72-80.6 78.88-78.86L85.95-68.26L100.46-68.26C104.48-68.26 108.34-66.66 111.19-63.81C114.03-60.96 115.63-57.1 115.63-53.08L115.63-3.99C115.63 0.03 114.03 3.89 111.19 6.74C108.34 9.58 104.48 11.18 100.46 11.18L20.13 11.18C16.11 11.18 12.25 9.58 9.4 6.74C6.55 3.89 4.96 0.03 4.96-3.99L4.96-53.08C4.96-57.1 6.55-60.96 9.4-63.81C12.25-66.66 16.11-68.26 20.13-68.26L34.64-68.26L41.71-78.86ZM50.25-69.14L43.18-58.54C42.02-56.8 40.07-55.76 37.98-55.76L20.13-55.76C19.42-55.76 18.74-55.47 18.24-54.97C17.74-54.47 17.46-53.79 17.46-53.08L17.46-3.99C17.46-3.28 17.74-2.6 18.24-2.1C18.74-1.6 19.42-1.32 20.13-1.32L100.46-1.32C101.17-1.32 101.85-1.6 102.35-2.1C102.85-2.6 103.13-3.28 103.13-3.99L103.13-53.08C103.13-53.79 102.85-54.47 102.35-54.97C101.85-55.47 101.17-55.76 100.46-55.76L82.61-55.76C80.52-55.76 78.56-56.8 77.41-58.54L70.34-69.14L50.25-69.14Z"/>
  </g>
  <g id="Bold-M" transform="matrix(1 0 0 1 2280.79 1126)">
   <path class="hierarchical-0:secondary SFSymbolsPreview4D4D4D" d="M36.19-30.77C36.19-43.55 46.56-53.92 59.34-53.92C72.13-53.92 82.49-43.55 82.49-30.77C82.49-17.98 72.13-7.62 59.34-7.62C46.56-7.62 36.19-17.98 36.19-30.77ZM59.34-43.32C52.41-43.32 46.79-37.7 46.79-30.77C46.79-23.83 52.41-18.22 59.34-18.22C66.28-18.22 71.89-23.83 71.89-30.77C71.89-37.7 66.28-43.32 59.34-43.32Z"/>
   <path class="hierarchical-1:primary SFSymbolsPreview212121" d="M41.55-78.33C42.53-79.81 44.19-80.69 45.96-80.69L72.73-80.69C74.5-80.69 76.16-79.81 77.14-78.33L84.49-67.3L99.51-67.3C103.28-67.3 106.9-65.81 109.57-63.14C112.23-60.47 113.73-56.85 113.73-53.08L113.73-3.99C113.73-0.22 112.23 3.4 109.57 6.07C106.9 8.73 103.28 10.23 99.51 10.23L19.18 10.23C15.41 10.23 11.79 8.73 9.12 6.07C6.46 3.4 4.96-0.22 4.96-3.99L4.96-53.08C4.96-56.85 6.46-60.47 9.12-63.14C11.79-65.81 15.41-67.3 19.18-67.3L34.2-67.3L41.55-78.33ZM48.79-70.09L41.44-59.06C40.46-57.59 38.8-56.7 37.03-56.7L19.18-56.7C18.22-56.7 17.3-56.32 16.62-55.64C15.94-54.96 15.56-54.04 15.56-53.08L15.56-3.99C15.56-3.03 15.94-2.11 16.62-1.43C17.3-0.75 18.22-0.37 19.18-0.37L99.51-0.37C100.47-0.37 101.39-0.75 102.07-1.43C102.75-2.11 103.13-3.03 103.13-3.99L103.13-53.08C103.13-54.04 102.75-54.96 102.07-55.64C101.39-56.32 100.47-56.7 99.51-56.7L81.66-56.7C79.89-56.7 78.23-57.59 77.25-59.06L69.9-70.09L48.79-70.09Z"/>
  </g>
  <g id="Semibold-M" transform="matrix(1 0 0 1 1984.72 1126)">
   <path class="hierarchical-0:secondary SFSymbolsPreview4D4D4D" d="M36.2-30.77C36.2-43.19 46.27-53.27 58.7-53.27C71.13-53.27 81.2-43.19 81.2-30.77C81.2-18.34 71.13-8.27 58.7-8.27C46.27-8.27 36.2-18.34 36.2-30.77ZM58.7-43.97C51.41-43.97 45.5-38.06 45.5-30.77C45.5-23.48 51.41-17.57 58.7-17.57C65.99-17.57 71.9-23.48 71.9-30.77C71.9-38.06 65.99-43.97 58.7-43.97Z"/>
   <path class="hierarchical-1:primary SFSymbolsPreview212121" d="M41.44-77.97C42.31-79.26 43.76-80.04 45.31-80.04L72.09-80.04C73.64-80.04 75.09-79.26 75.96-77.97L83.5-66.65L98.86-66.65C102.46-66.65 105.92-65.22 108.46-62.68C111.01-60.13 112.44-56.68 112.44-53.08L112.44-3.99C112.44-0.39 111.01 3.06 108.46 5.61C105.92 8.15 102.46 9.58 98.86 9.58L18.54 9.58C14.94 9.58 11.48 8.15 8.94 5.61C6.39 3.06 4.96-0.39 4.96-3.99L4.96-53.08C4.96-56.68 6.39-60.13 8.94-62.68C11.48-65.22 14.94-66.65 18.54-66.65L33.9-66.65L41.44-77.97ZM47.8-70.74L40.26-59.42C39.39-58.13 37.94-57.35 36.39-57.35L18.54-57.35C17.4-57.35 16.32-56.9 15.51-56.1C14.71-55.3 14.26-54.21 14.26-53.08L14.26-3.99C14.26-2.86 14.71-1.77 15.51-0.97C16.32-0.17 17.4 0.28 18.54 0.28L98.86 0.28C100 0.28 101.08-0.17 101.89-0.97C102.69-1.77 103.14-2.86 103.14-3.99L103.14-53.08C103.14-54.21 102.69-55.3 101.89-56.1C101.08-56.9 100-57.35 98.86-57.35L81.01-57.35C79.46-57.35 78.01-58.13 77.14-59.42L69.6-70.74L47.8-70.74Z"/>
  </g>
  <g id="Medium-M" transform="matrix(1 0 0 1 1688.51 1126)">
   <path class="hierarchical-0:secondary SFSymbolsPreview4D4D4D" d="M36.2-30.77C36.2-42.92 46.05-52.77 58.2-52.77C70.35-52.77 80.2-42.92 80.2-30.77C80.2-18.62 70.35-8.77 58.2-8.77C46.05-8.77 36.2-18.62 36.2-30.77ZM58.2-44.47C50.63-44.47 44.5-38.33 44.5-30.77C44.5-23.2 50.63-17.07 58.2-17.07C65.77-17.07 71.9-23.2 71.9-30.77C71.9-38.33 65.77-44.47 58.2-44.47Z"/>
   <path class="hierarchical-1:primary SFSymbolsPreview212121" d="M41.36-77.69C42.13-78.85 43.43-79.54 44.81-79.54L71.59-79.54C72.98-79.54 74.27-78.85 75.04-77.69L82.73-66.15L98.36-66.15C101.83-66.15 105.16-64.78 107.61-62.32C110.06-59.87 111.44-56.55 111.44-53.08L111.44-3.99C111.44-0.52 110.06 2.8 107.61 5.25C105.16 7.71 101.83 9.08 98.36 9.08L18.04 9.08C14.57 9.08 11.24 7.71 8.79 5.25C6.34 2.8 4.96-0.52 4.96-3.99L4.96-53.08C4.96-56.55 6.34-59.87 8.79-62.32C11.24-64.78 14.57-66.15 18.04-66.15L33.67-66.15L41.36-77.69ZM47.03-71.24L39.34-59.7C38.57-58.55 37.28-57.85 35.89-57.85L18.04-57.85C16.77-57.85 15.56-57.35 14.66-56.45C13.77-55.56 13.26-54.34 13.26-53.08L13.26-3.99C13.26-2.72 13.77-1.51 14.66-0.61C15.56 0.28 16.77 0.78 18.04 0.78L98.36 0.78C99.63 0.78 100.84 0.28 101.74-0.61C102.63-1.51 103.14-2.72 103.14-3.99L103.14-53.08C103.14-54.34 102.63-55.56 101.74-56.45C100.84-57.35 99.63-57.85 98.36-57.85L80.51-57.85C79.13-57.85 77.83-58.55 77.06-59.7L69.37-71.24L47.03-71.24Z"/>
  </g>
  <g id="Regular-M" transform="matrix(1 0 0 1 1392.45 1126)">
   <path class="hierarchical-0:secondary SFSymbolsPreview4D4D4D" d="M36.2-30.77C36.2-42.56 45.76-52.12 57.55-52.12C69.34-52.12 78.9-42.56 78.9-30.77C78.9-18.97 69.34-9.42 57.55-9.42C45.76-9.42 36.2-18.97 36.2-30.77ZM57.55-45.12C49.63-45.12 43.2-38.69 43.2-30.77C43.2-22.84 49.63-16.42 57.55-16.42C65.48-16.42 71.9-22.84 71.9-30.77C71.9-38.69 65.48-45.12 57.55-45.12Z"/>
   <path class="hierarchical-1:primary SFSymbolsPreview212121" d="M41.25-77.33C41.9-78.31 42.99-78.89 44.16-78.89L70.94-78.89C72.11-78.89 73.2-78.31 73.85-77.33L81.74-65.5L97.71-65.5C101.01-65.5 104.17-64.19 106.5-61.86C108.83-59.53 110.14-56.37 110.14-53.08L110.14-3.99C110.14-0.7 108.83 2.47 106.5 4.8C104.17 7.13 101.01 8.43 97.71 8.43L17.39 8.43C14.09 8.43 10.93 7.13 8.6 4.8C6.27 2.47 4.96-0.7 4.96-3.99L4.96-53.08C4.96-56.37 6.27-59.53 8.6-61.86C10.93-64.19 14.09-65.5 17.39-65.5L33.36-65.5L41.25-77.33ZM46.04-71.89L38.15-60.06C37.5-59.09 36.41-58.5 35.24-58.5L17.39-58.5C15.95-58.5 14.57-57.93 13.55-56.91C12.53-55.9 11.96-54.52 11.96-53.08L11.96-3.99C11.96-2.55 12.53-1.17 13.55-0.15C14.57 0.86 15.95 1.43 17.39 1.43L97.71 1.43C99.15 1.43 100.53 0.86 101.55-0.15C102.57-1.17 103.14-2.55 103.14-3.99L103.14-53.08C103.14-54.52 102.57-55.9 101.55-56.91C100.53-57.93 99.15-58.5 97.71-58.5L79.86-58.5C78.69-58.5 77.6-59.09 76.95-60.06L69.06-71.89L46.04-71.89Z"/>
  </g>
  <g id="Light-M" transform="matrix(1 0 0 1 1096.54 1126)">
   <path class="hierarchical-0:secondary SFSymbolsPreview4D4D4D" d="M36.2-30.77C36.2-42.12 45.4-51.32 56.75-51.32C68.1-51.32 77.3-42.12 77.3-30.77C77.3-19.42 68.1-10.22 56.75-10.22C45.4-10.22 36.2-19.42 36.2-30.77ZM56.75-45.92C48.38-45.92 41.6-39.13 41.6-30.77C41.6-22.4 48.38-15.62 56.75-15.62C65.12-15.62 71.9-22.4 71.9-30.77C71.9-39.13 65.12-45.92 56.75-45.92Z"/>
   <path class="hierarchical-1:primary SFSymbolsPreview212121" d="M41.12-76.89C41.62-77.64 42.46-78.09 43.36-78.09L70.14-78.09C71.04-78.09 71.88-77.64 72.38-76.89L80.51-64.7L96.91-64.7C100-64.7 102.95-63.48 105.13-61.3C107.31-59.12 108.54-56.16 108.54-53.08L108.54-3.99C108.54-0.91 107.31 2.05 105.13 4.23C102.95 6.41 100 7.63 96.91 7.63L16.59 7.63C13.5 7.63 10.55 6.41 8.37 4.23C6.19 2.05 4.96-0.91 4.96-3.99L4.96-53.08C4.96-56.16 6.19-59.12 8.37-61.3C10.55-63.48 13.5-64.7 16.59-64.7L32.99-64.7L41.12-76.89ZM44.81-72.69L36.68-60.51C36.18-59.76 35.34-59.3 34.44-59.3L16.59-59.3C14.94-59.3 13.35-58.65 12.19-57.48C11.02-56.31 10.36-54.73 10.36-53.08L10.36-3.99C10.36-2.34 11.02-0.76 12.19 0.41C13.35 1.58 14.94 2.23 16.59 2.23L96.91 2.23C98.56 2.23 100.15 1.58 101.31 0.41C102.48-0.76 103.14-2.34 103.14-3.99L103.14-53.08C103.14-54.73 102.48-56.31 101.31-57.48C100.15-58.65 98.56-59.3 96.91-59.3L79.06-59.3C78.16-59.3 77.32-59.76 76.82-60.51L68.69-72.69L44.81-72.69Z"/>
  </g>
  <g id="Thin-M" transform="matrix(1 0 0 1 800.88 1126)">
   <path class="hierarchical-0:secondary SFSymbolsPreview4D4D4D" d="M36.197-30.77C36.197-41.54 44.927-50.27 55.697-50.27C66.467-50.27 75.197-41.54 75.197-30.77C75.197-20 66.467-11.27 55.697-11.27C44.927-11.27 36.197-20 36.197-30.77ZM55.697-46.97C46.75-46.97 39.497-39.71 39.497-30.77C39.497-21.82 46.75-14.57 55.697-14.57C64.644-14.57 71.897-21.82 71.897-30.77C71.897-39.71 64.644-46.97 55.697-46.97Z"/>
   <path class="hierarchical-1:primary SFSymbolsPreview212121" d="M40.937-76.31C41.243-76.77 41.758-77.04 42.31-77.04L69.085-77.04C69.636-77.04 70.152-76.77 70.458-76.31L78.893-63.65L95.86-63.65C98.664-63.65 101.354-62.54 103.337-60.56C105.321-58.57 106.435-55.88 106.435-53.08L106.435-3.99C106.435-1.19 105.321 1.5 103.337 3.49C101.354 5.47 98.664 6.58 95.86 6.58L15.535 6.58C12.73 6.58 10.04 5.47 8.057 3.49C6.074 1.5 4.96-1.19 4.96-3.99L4.96-53.08C4.96-55.88 6.074-58.57 8.057-60.56C10.04-62.54 12.73-63.65 15.535-63.65L32.502-63.65L40.937-76.31ZM43.193-73.74L34.758-61.09C34.452-60.63 33.936-60.35 33.385-60.35L15.535-60.35C13.605-60.35 11.755-59.59 10.39-58.22C9.026-56.86 8.26-55.01 8.26-53.08L8.26-3.99C8.26-2.06 9.026-0.21 10.39 1.15C11.755 2.52 13.605 3.28 15.535 3.28L95.86 3.28C97.789 3.28 99.64 2.52 101.004 1.15C102.368-0.21 103.135-2.06 103.135-3.99L103.135-53.08C103.135-55.01 102.368-56.86 101.004-58.22C99.64-59.59 97.789-60.35 95.86-60.35L78.01-60.35C77.458-60.35 76.943-60.63 76.637-61.09L68.202-73.74L43.193-73.74Z"/>
  </g>
  <g id="Ultralight-M" transform="matrix(1 0 0 1 504.718 1126)">
   <path class="hierarchical-0:secondary SFSymbolsPreview4D4D4D" d="M36.198-30.77C36.198-41.23 44.682-49.72 55.148-49.72C65.614-49.72 74.098-41.23 74.098-30.77C74.098-20.3 65.614-11.82 55.148-11.82C44.682-11.82 36.198-20.3 36.198-30.77ZM55.148-47.52C45.897-47.52 38.398-40.02 38.398-30.77C38.398-21.52 45.897-14.02 55.148-14.02C64.399-14.02 71.898-21.52 71.898-30.77C71.898-40.02 64.399-47.52 55.148-47.52Z"/>
   <path class="hierarchical-1:primary SFSymbolsPreview212121" d="M40.845-76C41.049-76.31 41.393-76.49 41.76-76.49L68.536-76.49C68.903-76.49 69.247-76.31 69.451-76L78.049-63.1L95.31-63.1C97.969-63.1 100.519-62.05 102.399-60.17C104.279-58.29 105.336-55.74 105.336-53.08L105.336-3.99C105.336-1.33 104.279 1.22 102.399 3.1C100.519 4.98 97.969 6.03 95.31 6.03L14.986 6.03C12.327 6.03 9.777 4.98 7.897 3.1C6.017 1.22 4.96-1.33 4.96-3.99L4.96-53.08C4.96-55.74 6.017-58.29 7.897-60.17C9.777-62.05 12.327-63.1 14.986-63.1L32.247-63.1L40.845-76ZM42.349-74.29L33.751-61.39C33.547-61.09 33.203-60.9 32.836-60.9L14.986-60.9C12.91-60.9 10.92-60.08 9.452-58.61C7.985-57.14 7.161-55.15 7.161-53.08L7.161-3.99C7.161-1.91 7.985 0.08 9.452 1.54C10.92 3.01 12.91 3.83 14.986 3.83L95.31 3.83C97.386 3.83 99.376 3.01 100.844 1.54C102.311 0.08 103.136-1.91 103.136-3.99L103.136-53.08C103.136-55.15 102.311-57.14 100.844-58.61C99.376-60.08 97.386-60.9 95.31-60.9L77.46-60.9C77.093-60.9 76.749-61.09 76.545-61.39L67.947-74.29L42.349-74.29Z"/>
  </g>
  <g id="Black-S" transform="matrix(1 0 0 1 2883 696)">
   <path class="hierarchical-0:secondary SFSymbolsPreview4D4D4D" d="M29.46-31.832C29.46-43.485 38.91-52.932 50.56-52.932C62.21-52.932 71.66-43.485 71.66-31.832C71.66-20.178 62.21-10.732 50.56-10.732C38.91-10.732 29.46-20.178 29.46-31.832ZM50.56-38.732C46.75-38.732 43.66-35.642 43.66-31.832C43.66-28.021 46.75-24.932 50.56-24.932C54.37-24.932 57.46-28.021 57.46-31.832C57.46-35.642 54.37-38.732 50.56-38.732Z"/>
   <path class="hierarchical-1:primary SFSymbolsPreview212121" d="M34.15-70.77C35.47-72.745 37.69-73.932 40.06-73.932L61.06-73.932C63.43-73.932 65.65-72.745 66.97-70.77L71.86-63.432L82.06-63.432C85.8-63.432 89.39-61.946 92.03-59.302C94.68-56.658 96.16-53.071 96.16-49.332L96.16-10.832C96.16-7.092 94.68-3.506 92.03-0.861C89.39 1.783 85.8 3.268 82.06 3.268L19.06 3.268C15.32 3.268 11.73 1.783 9.09-0.861C6.45-3.506 4.96-7.092 4.96-10.832L4.96-49.332C4.96-53.071 6.45-56.658 9.09-59.302C11.73-61.946 15.32-63.432 19.06-63.432L29.26-63.432L34.15-70.77ZM43.86-59.732L38.97-52.393C37.65-50.418 35.43-49.232 33.06-49.232L19.16-49.232L19.16-10.932L81.96-10.932L81.96-49.232L68.06-49.232C65.69-49.232 63.47-50.418 62.15-52.393L57.26-59.732L43.86-59.732Z"/>
  </g>
  <g id="Heavy-S" transform="matrix(1 0 0 1 2587.13 696)">
   <path class="hierarchical-0:secondary SFSymbolsPreview4D4D4D" d="M29.46-31.832C29.46-43.016 38.53-52.082 49.71-52.082C60.9-52.082 69.96-43.016 69.96-31.832C69.96-20.648 60.9-11.582 49.71-11.582C38.53-11.582 29.46-20.648 29.46-31.832ZM49.71-39.582C45.43-39.582 41.96-36.112 41.96-31.832C41.96-27.552 45.43-24.082 49.71-24.082C53.99-24.082 57.46-27.552 57.46-31.832C57.46-36.112 53.99-39.582 49.71-39.582Z"/>
   <path class="hierarchical-1:primary SFSymbolsPreview212121" d="M34.01-70.299C35.17-72.038 37.12-73.082 39.21-73.082L60.21-73.082C62.3-73.082 64.25-72.038 65.41-70.299L70.56-62.582L81.21-62.582C84.73-62.582 88.1-61.186 90.58-58.701C93.07-56.216 94.46-52.846 94.46-49.332L94.46-10.832C94.46-7.318 93.07-3.948 90.58-1.463C88.1 1.022 84.73 2.418 81.21 2.418L18.21 2.418C14.7 2.418 11.33 1.022 8.84-1.463C6.36-3.948 4.96-7.318 4.96-10.832L4.96-49.332C4.96-52.846 6.36-56.216 8.84-58.701C11.33-61.186 14.7-62.582 18.21-62.582L28.87-62.582L34.01-70.299ZM42.56-60.582L37.41-52.865C36.25-51.126 34.3-50.082 32.21-50.082L18.21-50.082C18.01-50.082 17.82-50.003 17.68-49.862C17.54-49.722 17.46-49.531 17.46-49.332L17.46-10.832C17.46-10.633 17.54-10.442 17.68-10.302C17.82-10.161 18.01-10.082 18.21-10.082L81.21-10.082C81.41-10.082 81.6-10.161 81.74-10.302C81.88-10.442 81.96-10.633 81.96-10.832L81.96-49.332C81.96-49.531 81.88-49.722 81.74-49.862C81.6-50.003 81.41-50.082 81.21-50.082L67.21-50.082C65.12-50.082 63.17-51.126 62.01-52.865L56.87-60.582L42.56-60.582Z"/>
  </g>
  <g id="Bold-S" transform="matrix(1 0 0 1 2291.37 696)">
   <path class="hierarchical-0:secondary SFSymbolsPreview4D4D4D" d="M29.46-31.628C29.46-42.287 38.1-50.928 48.76-50.928C59.42-50.928 68.06-42.287 68.06-31.628C68.06-20.969 59.42-12.328 48.76-12.328C38.1-12.328 29.46-20.969 29.46-31.628ZM48.76-40.328C43.96-40.328 40.06-36.433 40.06-31.628C40.06-26.823 43.96-22.928 48.76-22.928C53.57-22.928 57.46-26.823 57.46-31.628C57.46-36.433 53.57-40.328 48.76-40.328Z"/>
   <path class="hierarchical-1:primary SFSymbolsPreview212121" d="M33.85-69.568C34.84-71.042 36.49-71.928 38.26-71.928L59.26-71.928C61.04-71.928 62.69-71.042 63.67-69.568L69.1-61.428L80.26-61.428C83.53-61.428 86.65-60.132 88.96-57.825C91.27-55.518 92.56-52.39 92.56-49.128L92.56-10.628C92.56-7.366 91.27-4.237 88.96-1.93C86.65 0.376 83.53 1.672 80.26 1.672L17.26 1.672C14 1.672 10.87 0.376 8.57-1.93C6.26-4.237 4.96-7.366 4.96-10.628L4.96-49.128C4.96-52.39 6.26-55.518 8.57-57.825C10.87-60.132 14-61.428 17.26-61.428L28.43-61.428L33.85-69.568ZM41.1-61.328L35.67-53.188C34.69-51.713 33.04-50.828 31.26-50.828L17.26-50.828C16.81-50.828 16.38-50.649 16.06-50.33C15.74-50.011 15.56-49.579 15.56-49.128L15.56-10.628C15.56-10.177 15.74-9.744 16.06-9.426C16.38-9.107 16.81-8.928 17.26-8.928L80.26-8.928C80.71-8.928 81.15-9.107 81.47-9.426C81.78-9.744 81.96-10.177 81.96-10.628L81.96-49.128C81.96-49.579 81.78-50.011 81.47-50.33C81.15-50.649 80.71-50.828 80.26-50.828L66.26-50.828C64.49-50.828 62.84-51.713 61.85-53.188L56.43-61.328L41.1-61.328Z"/>
  </g>
  <g id="Semibold-S" transform="matrix(1 0 0 1 1995.31 696)">
   <path class="hierarchical-0:secondary SFSymbolsPreview4D4D4D" d="M29.46-31.627C29.46-41.927 37.81-50.277 48.11-50.277C58.41-50.277 66.76-41.927 66.76-31.627C66.76-21.327 58.41-12.977 48.11-12.977C37.81-12.977 29.46-21.327 29.46-31.627ZM48.11-40.977C42.95-40.977 38.76-36.791 38.76-31.627C38.76-26.463 42.95-22.277 48.11-22.277C53.27-22.277 57.46-26.463 57.46-31.627C57.46-36.791 53.27-40.977 48.11-40.977Z"/>
   <path class="hierarchical-1:primary SFSymbolsPreview212121" d="M33.74-69.207C34.6-70.5 36.05-71.277 37.61-71.277L58.61-71.277C60.16-71.277 61.62-70.5 62.48-69.207L68.1-60.777L79.61-60.777C82.7-60.777 85.66-59.55 87.85-57.365C90.03-55.18 91.26-52.217 91.26-49.127L91.26-10.627C91.26-7.538 90.03-4.574 87.85-2.39C85.66-0.205 82.7 1.023 79.61 1.023L16.61 1.023C13.52 1.023 10.56-0.205 8.37-2.39C6.19-4.574 4.96-7.538 4.96-10.627L4.96-49.127C4.96-52.217 6.19-55.18 8.37-57.365C10.56-59.55 13.52-60.777 16.61-60.777L28.12-60.777L33.74-69.207ZM40.1-61.977L34.48-53.548C33.62-52.254 32.16-51.477 30.61-51.477L16.61-51.477C15.99-51.477 15.39-51.23 14.95-50.789C14.51-50.348 14.26-49.751 14.26-49.127L14.26-10.627C14.26-10.004 14.51-9.406 14.95-8.966C15.39-8.525 15.99-8.277 16.61-8.277L79.61-8.277C80.23-8.277 80.83-8.525 81.27-8.966C81.71-9.406 81.96-10.004 81.96-10.627L81.96-49.127C81.96-49.751 81.71-50.348 81.27-50.789C80.83-51.23 80.23-51.477 79.61-51.477L65.61-51.477C64.05-51.477 62.6-52.254 61.74-53.548L56.12-61.977L40.1-61.977Z"/>
  </g>
  <g id="Medium-S" transform="matrix(1 0 0 1 1699.1 696)">
   <path class="hierarchical-0:secondary SFSymbolsPreview4D4D4D" d="M29.46-31.627C29.46-41.651 37.59-49.777 47.61-49.777C57.63-49.777 65.76-41.651 65.76-31.627C65.76-21.603 57.63-13.477 47.61-13.477C37.59-13.477 29.46-21.603 29.46-31.627ZM47.61-41.477C42.17-41.477 37.76-37.067 37.76-31.627C37.76-26.187 42.17-21.777 47.61-21.777C53.05-21.777 57.46-26.187 57.46-31.627C57.46-37.067 53.05-41.477 47.61-41.477Z"/>
   <path class="hierarchical-1:primary SFSymbolsPreview212121" d="M33.66-68.929C34.43-70.084 35.72-70.777 37.11-70.777L58.11-70.777C59.5-70.777 60.79-70.084 61.56-68.929L67.33-60.277L79.11-60.277C82.07-60.277 84.9-59.103 86.99-57.012C89.08-54.921 90.26-52.085 90.26-49.127L90.26-10.627C90.26-7.67 89.08-4.834 86.99-2.743C84.9-0.652 82.07 0.523 79.11 0.523L16.11 0.523C13.15 0.523 10.32-0.652 8.23-2.743C6.13-4.834 4.96-7.67 4.96-10.627L4.96-49.127C4.96-52.085 6.13-54.921 8.23-57.012C10.32-59.103 13.15-60.277 16.11-60.277L27.89-60.277L33.66-68.929ZM39.33-62.477L33.56-53.825C32.79-52.671 31.5-51.977 30.11-51.977L16.11-51.977C15.35-51.977 14.63-51.677 14.09-51.143C13.56-50.608 13.26-49.883 13.26-49.127L13.26-10.627C13.26-9.871 13.56-9.147 14.09-8.612C14.63-8.078 15.35-7.777 16.11-7.777L79.11-7.777C79.87-7.777 80.59-8.078 81.12-8.612C81.66-9.147 81.96-9.871 81.96-10.627L81.96-49.127C81.96-49.883 81.66-50.608 81.12-51.143C80.59-51.677 79.87-51.977 79.11-51.977L65.11-51.977C63.72-51.977 62.43-52.671 61.66-53.825L55.89-62.477L39.33-62.477Z"/>
  </g>
  <g id="Regular-S" transform="matrix(1 0 0 1 1403.04 696)">
   <path class="hierarchical-0:secondary SFSymbolsPreview4D4D4D" d="M29.46-31.627C29.46-41.292 37.3-49.127 46.96-49.127C56.62-49.127 64.46-41.292 64.46-31.627C64.46-21.962 56.62-14.127 46.96-14.127C37.3-14.127 29.46-21.962 29.46-31.627ZM46.96-42.127C41.16-42.127 36.46-37.426 36.46-31.627C36.46-25.828 41.16-21.127 46.96-21.127C52.76-21.127 57.46-25.828 57.46-31.627C57.46-37.426 52.76-42.127 46.96-42.127Z"/>
   <path class="hierarchical-1:primary SFSymbolsPreview212121" d="M33.55-68.568C34.2-69.542 35.29-70.127 36.46-70.127L57.46-70.127C58.63-70.127 59.72-69.542 60.37-68.568L66.33-59.627L78.46-59.627C81.24-59.627 83.92-58.521 85.88-56.552C87.85-54.582 88.96-51.912 88.96-49.127L88.96-10.627C88.96-7.842 87.85-5.171 85.88-3.202C83.92-1.233 81.24-0.127 78.46-0.127L15.46-0.127C12.68-0.127 10-1.233 8.04-3.202C6.07-5.171 4.96-7.842 4.96-10.627L4.96-49.127C4.96-51.912 6.07-54.582 8.04-56.552C10-58.521 12.68-59.627 15.46-59.627L27.59-59.627L33.55-68.568ZM38.33-63.127L32.37-54.186C31.72-53.212 30.63-52.627 29.46-52.627L15.46-52.627C14.53-52.627 13.64-52.258 12.99-51.602C12.33-50.945 11.96-50.055 11.96-49.127L11.96-10.627C11.96-9.699 12.33-8.808 12.99-8.152C13.64-7.496 14.53-7.127 15.46-7.127L78.46-7.127C79.39-7.127 80.28-7.496 80.93-8.152C81.59-8.808 81.96-9.699 81.96-10.627L81.96-49.127C81.96-50.055 81.59-50.945 80.93-51.602C80.28-52.258 79.39-52.627 78.46-52.627L64.46-52.627C63.29-52.627 62.2-53.212 61.55-54.186L55.59-63.127L38.33-63.127Z"/>
  </g>
  <g id="Light-S" transform="matrix(1 0 0 1 1107.13 696)">
   <path class="hierarchical-0:secondary SFSymbolsPreview4D4D4D" d="M29.46-31.626C29.46-40.849 36.94-48.326 46.16-48.326C55.38-48.326 62.86-40.849 62.86-31.626C62.86-22.403 55.38-14.926 46.16-14.926C36.94-14.926 29.46-22.403 29.46-31.626ZM46.16-42.926C39.92-42.926 34.86-37.867 34.86-31.626C34.86-25.385 39.92-20.326 46.16-20.326C52.4-20.326 57.46-25.385 57.46-31.626C57.46-37.867 52.4-42.926 46.16-42.926Z"/>
   <path class="hierarchical-1:primary SFSymbolsPreview212121" d="M33.41-68.124C33.91-68.875 34.76-69.326 35.66-69.326L56.66-69.326C57.56-69.326 58.41-68.875 58.91-68.124L65.1-58.826L77.66-58.826C80.23-58.826 82.7-57.804 84.52-55.985C86.34-54.166 87.36-51.699 87.36-49.126L87.36-10.626C87.36-8.054 86.34-5.586 84.52-3.767C82.7-1.948 80.23-0.926 77.66-0.926L14.66-0.926C12.09-0.926 9.62-1.948 7.8-3.767C5.98-5.586 4.96-8.054 4.96-10.626L4.96-49.126C4.96-51.699 5.98-54.166 7.8-55.985C9.62-57.804 12.09-58.826 14.66-58.826L27.21-58.826L33.41-68.124ZM37.1-63.926L30.91-54.628C30.41-53.877 29.56-53.426 28.66-53.426L14.66-53.426C13.52-53.426 12.43-52.973 11.62-52.167C10.81-51.36 10.36-50.267 10.36-49.126L10.36-10.626C10.36-9.486 10.81-8.392 11.62-7.586C12.43-6.779 13.52-6.326 14.66-6.326L77.66-6.326C78.8-6.326 79.89-6.779 80.7-7.586C81.51-8.392 81.96-9.486 81.96-10.626L81.96-49.126C81.96-50.267 81.51-51.36 80.7-52.167C79.89-52.973 78.8-53.426 77.66-53.426L63.66-53.426C62.76-53.426 61.91-53.877 61.41-54.628L55.21-63.926L37.1-63.926Z"/>
  </g>
  <g id="Thin-S" transform="matrix(1 0 0 1 811.467 696)">
   <path class="hierarchical-0:secondary SFSymbolsPreview4D4D4D" d="M29.46-31.627C29.46-40.271 36.466-47.277 45.11-47.277C53.753-47.277 60.76-40.271 60.76-31.627C60.76-22.984 53.753-15.977 45.11-15.977C36.466-15.977 29.46-22.984 29.46-31.627ZM45.11-43.977C38.289-43.977 32.76-38.448 32.76-31.627C32.76-24.807 38.289-19.277 45.11-19.277C51.93-19.277 57.46-24.807 57.46-31.627C57.46-38.448 51.93-43.977 45.11-43.977Z"/>
   <path class="hierarchical-1:primary SFSymbolsPreview212121" d="M33.237-67.543C33.543-68.002 34.058-68.277 34.61-68.277L55.61-68.277C56.161-68.277 56.676-68.002 56.982-67.543L63.493-57.777L76.61-57.777C78.904-57.777 81.104-56.866 82.726-55.244C84.348-53.622 85.26-51.421 85.26-49.127L85.26-10.627C85.26-8.333 84.348-6.133 82.726-4.511C81.104-2.889 78.904-1.977 76.61-1.977L13.61-1.977C11.315-1.977 9.115-2.889 7.493-4.511C5.871-6.133 4.96-8.333 4.96-10.627L4.96-49.127C4.96-51.421 5.871-53.622 7.493-55.244C9.115-56.866 11.315-57.777 13.61-57.777L26.727-57.777L33.237-67.543ZM35.493-64.977L28.982-55.212C28.676-54.753 28.161-54.477 27.61-54.477L13.61-54.477C12.191-54.477 10.83-53.914 9.827-52.91C8.823-51.907 8.26-50.546 8.26-49.127L8.26-10.627C8.26-9.208 8.823-7.848 9.827-6.844C10.83-5.841 12.191-5.277 13.61-5.277L76.61-5.277C78.029-5.277 79.389-5.841 80.393-6.844C81.396-7.848 81.96-9.208 81.96-10.627L81.96-49.127C81.96-50.546 81.396-51.907 80.393-52.91C79.389-53.914 78.029-54.477 76.61-54.477L62.61-54.477C62.058-54.477 61.543-54.753 61.237-55.212L54.727-64.977L35.493-64.977Z"/>
  </g>
  <g id="Ultralight-S" transform="matrix(1 0 0 1 515.306 696)">
   <path class="hierarchical-0:secondary SFSymbolsPreview4D4D4D" d="M29.46-31.627C29.46-39.966 36.221-46.727 44.56-46.727C52.9-46.727 59.66-39.966 59.66-31.627C59.66-23.287 52.9-16.527 44.56-16.527C36.221-16.527 29.46-23.287 29.46-31.627ZM44.56-44.527C37.436-44.527 31.66-38.751 31.66-31.627C31.66-24.502 37.436-18.727 44.56-18.727C51.685-18.727 57.46-24.502 57.46-31.627C57.46-38.751 51.685-44.527 44.56-44.527Z"/>
   <path class="hierarchical-1:primary SFSymbolsPreview212121" d="M33.145-67.237C33.349-67.543 33.693-67.727 34.06-67.727L55.06-67.727C55.428-67.727 55.772-67.543 55.976-67.237L62.649-57.227L76.06-57.227C78.209-57.227 80.269-56.373 81.788-54.854C83.307-53.335 84.16-51.275 84.16-49.127L84.16-10.627C84.16-8.478 83.307-6.418 81.788-4.899C80.269-3.38 78.209-2.527 76.06-2.527L13.06-2.527C10.912-2.527 8.852-3.38 7.333-4.899C5.814-6.418 4.96-8.478 4.96-10.627L4.96-49.127C4.96-51.275 5.814-53.335 7.333-54.854C8.852-56.373 10.912-57.227 13.06-57.227L26.472-57.227L33.145-67.237ZM34.649-65.527L27.976-55.516C27.772-55.21 27.428-55.027 27.06-55.027L13.06-55.027C11.496-55.027 9.995-54.405 8.888-53.298C7.782-52.192 7.16-50.691 7.16-49.127L7.16-10.627C7.16-9.062 7.782-7.561 8.888-6.455C9.995-5.348 11.496-4.727 13.06-4.727L76.06-4.727C77.625-4.727 79.126-5.348 80.232-6.455C81.339-7.561 81.96-9.062 81.96-10.627L81.96-49.127C81.96-50.691 81.339-52.192 80.232-53.298C79.126-54.405 77.625-55.027 76.06-55.027L62.06-55.027C61.693-55.027 61.349-55.21 61.145-55.516L54.472-65.527L34.649-65.527Z"/>
  </g>
 </g>
</svg>
