<?xml version="1.0" encoding="UTF-8"?>
<!--Generator: Apple Native CoreSVG 175-->
<!DOCTYPE svg
PUBLIC "-//W3C//DTD SVG 1.1//EN"
       "http://www.w3.org/Graphics/SVG/1.1/DTD/svg11.dtd">
<svg version="1.1" xmlns="http://www.w3.org/2000/svg" xmlns:xlink="http://www.w3.org/1999/xlink" width="3300" height="2200">
 <!--glyph: "", point size: 100.0, font version: "17.0d12e1", template writer version: "65.1"-->
 <style>.hierarchical-0:secondary {fill:#4D4D4D}
.hierarchical-1:primary {fill:#212121}

.SFSymbolsPreview212121 {fill:#212121;opacity:1.0}
.SFSymbolsPreview4D4D4D {fill:#4D4D4D;opacity:1.0}
</style>
 <g id="Notes">
  <rect height="2200" id="artboard" style="fill:white;opacity:1" width="3300" x="0" y="0"/>
  <line style="fill:none;stroke:black;opacity:1;stroke-width:0.5;" x1="263" x2="3036" y1="292" y2="292"/>
  <text style="stroke:none;fill:black;font-family:sans-serif;font-size:13;font-weight:bold;" transform="matrix(1 0 0 1 263 322)">Weight/Scale Variations</text>
  <text style="stroke:none;fill:black;font-family:sans-serif;font-size:13;text-anchor:middle;" transform="matrix(1 0 0 1 559.711 322)">Ultralight</text>
  <text style="stroke:none;fill:black;font-family:sans-serif;font-size:13;text-anchor:middle;" transform="matrix(1 0 0 1 856.422 322)">Thin</text>
  <text style="stroke:none;fill:black;font-family:sans-serif;font-size:13;text-anchor:middle;" transform="matrix(1 0 0 1 1153.13 322)">Light</text>
  <text style="stroke:none;fill:black;font-family:sans-serif;font-size:13;text-anchor:middle;" transform="matrix(1 0 0 1 1449.84 322)">Regular</text>
  <text style="stroke:none;fill:black;font-family:sans-serif;font-size:13;text-anchor:middle;" transform="matrix(1 0 0 1 1746.56 322)">Medium</text>
  <text style="stroke:none;fill:black;font-family:sans-serif;font-size:13;text-anchor:middle;" transform="matrix(1 0 0 1 2043.27 322)">Semibold</text>
  <text style="stroke:none;fill:black;font-family:sans-serif;font-size:13;text-anchor:middle;" transform="matrix(1 0 0 1 2339.98 322)">Bold</text>
  <text style="stroke:none;fill:black;font-family:sans-serif;font-size:13;text-anchor:middle;" transform="matrix(1 0 0 1 2636.69 322)">Heavy</text>
  <text style="stroke:none;fill:black;font-family:sans-serif;font-size:13;text-anchor:middle;" transform="matrix(1 0 0 1 2933.4 322)">Black</text>
  <line style="fill:none;stroke:black;opacity:1;stroke-width:0.5;" x1="263" x2="3036" y1="1903" y2="1903"/>
  <g transform="matrix(1 0 0 1 263 1933)">
   <path d="M9.24805 0.830078Q10.8691 0.830078 12.2949 0.214844Q13.7207-0.400391 14.8096-1.49414Q15.8984-2.58789 16.5186-4.01367Q17.1387-5.43945 17.1387-7.05078Q17.1387-8.66211 16.5186-10.0879Q15.8984-11.5137 14.8047-12.6074Q13.7109-13.7012 12.2852-14.3164Q10.8594-14.9316 9.23828-14.9316Q7.62695-14.9316 6.20117-14.3164Q4.77539-13.7012 3.69141-12.6074Q2.60742-11.5137 1.9873-10.0879Q1.36719-8.66211 1.36719-7.05078Q1.36719-5.43945 1.9873-4.01367Q2.60742-2.58789 3.69629-1.49414Q4.78516-0.400391 6.21094 0.214844Q7.63672 0.830078 9.24805 0.830078ZM9.24805-0.654297Q7.91992-0.654297 6.7627-1.14746Q5.60547-1.64062 4.73145-2.51953Q3.85742-3.39844 3.36426-4.56055Q2.87109-5.72266 2.87109-7.05078Q2.87109-8.37891 3.35938-9.54102Q3.84766-10.7031 4.72168-11.582Q5.5957-12.4609 6.75293-12.9541Q7.91016-13.4473 9.23828-13.4473Q10.5762-13.4473 11.7334-12.9541Q12.8906-12.4609 13.7695-11.582Q14.6484-10.7031 15.1465-9.54102Q15.6445-8.37891 15.6445-7.05078Q15.6445-5.72266 15.1514-4.56055Q14.6582-3.39844 13.7842-2.51953Q12.9102-1.64062 11.748-1.14746Q10.5859-0.654297 9.24805-0.654297ZM5.6543-7.05078Q5.6543-6.72852 5.85938-6.52832Q6.06445-6.32812 6.40625-6.32812L8.51562-6.32812L8.51562-4.20898Q8.51562-3.88672 8.71094-3.67676Q8.90625-3.4668 9.23828-3.4668Q9.56055-3.4668 9.77051-3.67676Q9.98047-3.88672 9.98047-4.20898L9.98047-6.32812L12.0898-6.32812Q12.4219-6.32812 12.627-6.52832Q12.832-6.72852 12.832-7.05078Q12.832-7.38281 12.627-7.58789Q12.4219-7.79297 12.0898-7.79297L9.98047-7.79297L9.98047-9.90234Q9.98047-10.2344 9.77051-10.4443Q9.56055-10.6543 9.23828-10.6543Q8.90625-10.6543 8.71094-10.4443Q8.51562-10.2344 8.51562-9.90234L8.51562-7.79297L6.40625-7.79297Q6.06445-7.79297 5.85938-7.58789Q5.6543-7.38281 5.6543-7.05078Z"/>
  </g>
  <g transform="matrix(1 0 0 1 281.867 1933)">
   <path d="M11.709 2.91016Q13.75 2.91016 15.5518 2.12891Q17.3535 1.34766 18.7305-0.0292969Q20.1074-1.40625 20.8887-3.20801Q21.6699-5.00977 21.6699-7.05078Q21.6699-9.0918 20.8887-10.8936Q20.1074-12.6953 18.7305-14.0723Q17.3535-15.4492 15.5469-16.2305Q13.7402-17.0117 11.6992-17.0117Q9.6582-17.0117 7.85645-16.2305Q6.05469-15.4492 4.68262-14.0723Q3.31055-12.6953 2.5293-10.8936Q1.74805-9.0918 1.74805-7.05078Q1.74805-5.00977 2.5293-3.20801Q3.31055-1.40625 4.6875-0.0292969Q6.06445 1.34766 7.86621 2.12891Q9.66797 2.91016 11.709 2.91016ZM11.709 1.25Q9.98047 1.25 8.47656 0.605469Q6.97266-0.0390625 5.83496-1.17676Q4.69727-2.31445 4.05762-3.81836Q3.41797-5.32227 3.41797-7.05078Q3.41797-8.7793 4.05762-10.2832Q4.69727-11.7871 5.83008-12.9297Q6.96289-14.0723 8.4668-14.7119Q9.9707-15.3516 11.6992-15.3516Q13.4277-15.3516 14.9316-14.7119Q16.4355-14.0723 17.5781-12.9297Q18.7207-11.7871 19.3652-10.2832Q20.0098-8.7793 20.0098-7.05078Q20.0098-5.32227 19.3701-3.81836Q18.7305-2.31445 17.5928-1.17676Q16.4551-0.0390625 14.9463 0.605469Q13.4375 1.25 11.709 1.25ZM7.17773-7.05078Q7.17773-6.69922 7.41211-6.47461Q7.64648-6.25 8.01758-6.25L10.8887-6.25L10.8887-3.36914Q10.8887-2.99805 11.1133-2.76855Q11.3379-2.53906 11.6895-2.53906Q12.0605-2.53906 12.29-2.76855Q12.5195-2.99805 12.5195-3.36914L12.5195-6.25L15.4004-6.25Q15.7715-6.25 16.001-6.47461Q16.2305-6.69922 16.2305-7.05078Q16.2305-7.42188 16.001-7.65137Q15.7715-7.88086 15.4004-7.88086L12.5195-7.88086L12.5195-10.752Q12.5195-11.1328 12.29-11.3623Q12.0605-11.5918 11.6895-11.5918Q11.3379-11.5918 11.1133-11.3574Q10.8887-11.123 10.8887-10.752L10.8887-7.88086L8.01758-7.88086Q7.63672-7.88086 7.40723-7.65137Q7.17773-7.42188 7.17773-7.05078Z"/>
  </g>
  <g transform="matrix(1 0 0 1 305.646 1933)">
   <path d="M14.9707 5.66406Q17.0605 5.66406 18.96 5.01465Q20.8594 4.36523 22.4512 3.19336Q24.043 2.02148 25.2197 0.429688Q26.3965-1.16211 27.0459-3.06641Q27.6953-4.9707 27.6953-7.05078Q27.6953-9.14062 27.0459-11.04Q26.3965-12.9395 25.2197-14.5312Q24.043-16.123 22.4512-17.2998Q20.8594-18.4766 18.9551-19.126Q17.0508-19.7754 14.9609-19.7754Q12.8711-19.7754 10.9717-19.126Q9.07227-18.4766 7.48535-17.2998Q5.89844-16.123 4.72168-14.5312Q3.54492-12.9395 2.90039-11.04Q2.25586-9.14062 2.25586-7.05078Q2.25586-4.9707 2.90527-3.06641Q3.55469-1.16211 4.72656 0.429688Q5.89844 2.02148 7.49023 3.19336Q9.08203 4.36523 10.9814 5.01465Q12.8809 5.66406 14.9707 5.66406ZM14.9707 3.84766Q13.1641 3.84766 11.5283 3.2959Q9.89258 2.74414 8.53516 1.74805Q7.17773 0.751953 6.17676-0.610352Q5.17578-1.97266 4.62891-3.6084Q4.08203-5.24414 4.08203-7.05078Q4.08203-8.86719 4.62891-10.5029Q5.17578-12.1387 6.17188-13.501Q7.16797-14.8633 8.52539-15.8594Q9.88281-16.8555 11.5186-17.4023Q13.1543-17.9492 14.9609-17.9492Q16.7773-17.9492 18.4131-17.4023Q20.0488-16.8555 21.4111-15.8594Q22.7734-14.8633 23.7695-13.501Q24.7656-12.1387 25.3174-10.5029Q25.8691-8.86719 25.8691-7.05078Q25.8789-5.24414 25.332-3.6084Q24.7852-1.97266 23.7842-0.610352Q22.7832 0.751953 21.4209 1.74805Q20.0586 2.74414 18.4229 3.2959Q16.7871 3.84766 14.9707 3.84766ZM9.19922-7.05078Q9.19922-6.66992 9.45801-6.4209Q9.7168-6.17188 10.1172-6.17188L14.0625-6.17188L14.0625-2.2168Q14.0625-1.81641 14.3115-1.55762Q14.5605-1.29883 14.9512-1.29883Q15.3516-1.29883 15.6104-1.55273Q15.8691-1.80664 15.8691-2.2168L15.8691-6.17188L19.8242-6.17188Q20.2246-6.17188 20.4785-6.4209Q20.7324-6.66992 20.7324-7.05078Q20.7324-7.46094 20.4785-7.71484Q20.2246-7.96875 19.8242-7.96875L15.8691-7.96875L15.8691-11.9141Q15.8691-12.3242 15.6104-12.583Q15.3516-12.8418 14.9512-12.8418Q14.5605-12.8418 14.3115-12.583Q14.0625-12.3242 14.0625-11.9141L14.0625-7.96875L10.1172-7.96875Q9.70703-7.96875 9.45312-7.71484Q9.19922-7.46094 9.19922-7.05078Z"/>
  </g>
  <text style="stroke:none;fill:black;font-family:sans-serif;font-size:13;font-weight:bold;" transform="matrix(1 0 0 1 263 1953)">Design Variations</text>
  <text style="stroke:none;fill:black;font-family:sans-serif;font-size:13;" transform="matrix(1 0 0 1 263 1971)">Symbols are supported in up to nine weights and three scales.</text>
  <text style="stroke:none;fill:black;font-family:sans-serif;font-size:13;" transform="matrix(1 0 0 1 263 1989)">For optimal layout with text and other symbols, vertically align</text>
  <text style="stroke:none;fill:black;font-family:sans-serif;font-size:13;" transform="matrix(1 0 0 1 263 2007)">symbols with the adjacent text.</text>
  <line style="fill:none;stroke:#00AEEF;stroke-width:0.5;opacity:1.0;" x1="776" x2="776" y1="1919" y2="1933"/>
  <g transform="matrix(1 0 0 1 776 1933)">
   <path d="M3.31055 0.15625Q3.70117 0.15625 3.91602-0.00976562Q4.13086-0.175781 4.26758-0.585938L5.52734-4.0332L11.2891-4.0332L12.5488-0.585938Q12.6855-0.175781 12.9004-0.00976562Q13.1152 0.15625 13.4961 0.15625Q13.8867 0.15625 14.1162-0.0585938Q14.3457-0.273438 14.3457-0.644531Q14.3457-0.869141 14.2383-1.17188L9.6582-13.3691Q9.48242-13.8184 9.17969-14.043Q8.87695-14.2676 8.4082-14.2676Q7.5-14.2676 7.17773-13.3789L2.59766-1.16211Q2.49023-0.859375 2.49023-0.634766Q2.49023-0.263672 2.70996-0.0537109Q2.92969 0.15625 3.31055 0.15625ZM6.00586-5.51758L8.37891-12.0898L8.42773-12.0898L10.8008-5.51758Z"/>
  </g>
  <line style="fill:none;stroke:#00AEEF;stroke-width:0.5;opacity:1.0;" x1="793.197" x2="793.197" y1="1919" y2="1933"/>
  <text style="stroke:none;fill:black;font-family:sans-serif;font-size:13;font-weight:bold;" transform="matrix(1 0 0 1 776 1953)">Margins</text>
  <text style="stroke:none;fill:black;font-family:sans-serif;font-size:13;" transform="matrix(1 0 0 1 776 1971)">Leading and trailing margins on the left and right side of each symbol</text>
  <text style="stroke:none;fill:black;font-family:sans-serif;font-size:13;" transform="matrix(1 0 0 1 776 1989)">can be adjusted by modifying the x-location of the margin guidelines.</text>
  <text style="stroke:none;fill:black;font-family:sans-serif;font-size:13;" transform="matrix(1 0 0 1 776 2007)">Modifications are automatically applied proportionally to all</text>
  <text style="stroke:none;fill:black;font-family:sans-serif;font-size:13;" transform="matrix(1 0 0 1 776 2025)">scales and weights.</text>
  <g transform="matrix(1 0 0 1 1289 1933)">
   <path d="M2.8418 1.86523L4.54102 3.57422Q5.18555 4.22852 5.90332 4.17969Q6.62109 4.13086 7.31445 3.35938L18.0078-8.42773L17.041-9.4043L6.42578 2.27539Q6.16211 2.57812 5.89355 2.61719Q5.625 2.65625 5.27344 2.30469L4.10156 1.14258Q3.75 0.791016 3.79395 0.522461Q3.83789 0.253906 4.14062-0.0195312L15.6152-10.8203L14.6387-11.7871L3.04688-0.898438Q2.30469-0.214844 2.25098 0.498047Q2.19727 1.21094 2.8418 1.86523ZM9.25781-16.3281Q8.94531-16.0254 8.90625-15.6348Q8.86719-15.2441 9.04297-14.9512Q9.21875-14.6777 9.55566-14.541Q9.89258-14.4043 10.3809-14.5215Q11.4746-14.7754 12.5977-14.7314Q13.7207-14.6875 14.7949-13.9844L14.209-12.5293Q13.9551-11.9043 14.0674-11.4404Q14.1797-10.9766 14.5801-10.5664L16.875-8.25195Q17.2363-7.88086 17.5781-7.82227Q17.9199-7.76367 18.3398-7.8418L19.4043-8.03711L20.0684-7.36328L20.0293-6.80664Q20-6.43555 20.1221-6.12305Q20.2441-5.81055 20.6055-5.44922L21.3672-4.70703Q21.7285-4.3457 22.1533-4.33105Q22.5781-4.31641 22.9297-4.66797L25.8398-7.58789Q26.1914-7.93945 26.1816-8.35449Q26.1719-8.76953 25.8105-9.13086L25.0391-9.89258Q24.6875-10.2539 24.3799-10.3857Q24.0723-10.5176 23.7109-10.4883L23.1348-10.4395L22.4902-11.0742L22.7344-12.1973Q22.832-12.6172 22.6953-12.9834Q22.5586-13.3496 22.1191-13.7891L19.9219-15.9766Q18.6719-17.2168 17.2607-17.8369Q15.8496-18.457 14.4189-18.4814Q12.9883-18.5059 11.665-17.959Q10.3418-17.4121 9.25781-16.3281ZM10.752-15.957Q11.6602-16.6211 12.7002-16.9043Q13.7402-17.1875 14.8047-17.085Q15.8691-16.9824 16.8701-16.5137Q17.8711-16.0449 18.7012-15.2051L21.1328-12.793Q21.3086-12.6172 21.3525-12.4512Q21.3965-12.2852 21.3379-12.0312L21.0156-10.5469L22.5195-9.0625L23.5059-9.12109Q23.6914-9.13086 23.7891-9.09668Q23.8867-9.0625 24.0332-8.91602L24.6094-8.33984L22.168-5.89844L21.5918-6.47461Q21.4453-6.62109 21.4062-6.71875Q21.3672-6.81641 21.377-7.01172L21.4453-7.98828L19.9512-9.47266L18.4277-9.21875Q18.1836-9.16992 18.042-9.2041Q17.9004-9.23828 17.7148-9.41406L15.7129-11.416Q15.5176-11.5918 15.4932-11.7529Q15.4688-11.9141 15.5859-12.1875L16.4648-14.2773Q15.293-15.3711 13.8281-15.791Q12.3633-16.2109 10.8398-15.7617Q10.7227-15.7324 10.6885-15.8057Q10.6543-15.8789 10.752-15.957Z"/>
  </g>
  <text style="stroke:none;fill:black;font-family:sans-serif;font-size:13;font-weight:bold;" transform="matrix(1 0 0 1 1289 1953)">Exporting</text>
  <text style="stroke:none;fill:black;font-family:sans-serif;font-size:13;" transform="matrix(1 0 0 1 1289 1971)">Symbols should be outlined when exporting to ensure the</text>
  <text style="stroke:none;fill:black;font-family:sans-serif;font-size:13;" transform="matrix(1 0 0 1 1289 1989)">design is preserved when submitting to Xcode.</text>
  <text id="template-version" style="stroke:none;fill:black;font-family:sans-serif;font-size:13;text-anchor:end;" transform="matrix(1 0 0 1 3036 1933)">Template v.3.0</text>
  <text style="stroke:none;fill:black;font-family:sans-serif;font-size:13;text-anchor:end;" transform="matrix(1 0 0 1 3036 1951)">Requires Xcode 13 or greater</text>
  <text id="descriptive-name" style="stroke:none;fill:black;font-family:sans-serif;font-size:13;text-anchor:end;" transform="matrix(1 0 0 1 3036 1969)">Generated from bell</text>
  <text style="stroke:none;fill:black;font-family:sans-serif;font-size:13;text-anchor:end;" transform="matrix(1 0 0 1 3036 1987)">Typeset at 100 points</text>
  <text style="stroke:none;fill:black;font-family:sans-serif;font-size:13;" transform="matrix(1 0 0 1 263 726)">Small</text>
  <text style="stroke:none;fill:black;font-family:sans-serif;font-size:13;" transform="matrix(1 0 0 1 263 1156)">Medium</text>
  <text style="stroke:none;fill:black;font-family:sans-serif;font-size:13;" transform="matrix(1 0 0 1 263 1586)">Large</text>
 </g>
 <g id="Guides">
  <g id="H-reference" style="fill:#27AAE1;stroke:none;" transform="matrix(1 0 0 1 339 696)">
   <path d="M0.976562 0L3.66211 0L29.3457-67.1387L30.0293-67.1387L30.0293-70.459L28.125-70.459ZM11.6699-24.4629L46.9727-24.4629L46.2402-26.709L12.4512-26.709ZM55.127 0L57.7637 0L30.6152-70.459L29.4434-70.459L29.4434-67.1387Z"/>
  </g>
  <line id="Baseline-S" style="fill:none;stroke:#27AAE1;opacity:1;stroke-width:0.5;" x1="263" x2="3036" y1="696" y2="696"/>
  <line id="Capline-S" style="fill:none;stroke:#27AAE1;opacity:1;stroke-width:0.5;" x1="263" x2="3036" y1="625.541" y2="625.541"/>
  <g id="H-reference" style="fill:#27AAE1;stroke:none;" transform="matrix(1 0 0 1 339 1126)">
   <path d="M0.976562 0L3.66211 0L29.3457-67.1387L30.0293-67.1387L30.0293-70.459L28.125-70.459ZM11.6699-24.4629L46.9727-24.4629L46.2402-26.709L12.4512-26.709ZM55.127 0L57.7637 0L30.6152-70.459L29.4434-70.459L29.4434-67.1387Z"/>
  </g>
  <line id="Baseline-M" style="fill:none;stroke:#27AAE1;opacity:1;stroke-width:0.5;" x1="263" x2="3036" y1="1126" y2="1126"/>
  <line id="Capline-M" style="fill:none;stroke:#27AAE1;opacity:1;stroke-width:0.5;" x1="263" x2="3036" y1="1055.54" y2="1055.54"/>
  <g id="H-reference" style="fill:#27AAE1;stroke:none;" transform="matrix(1 0 0 1 339 1556)">
   <path d="M0.976562 0L3.66211 0L29.3457-67.1387L30.0293-67.1387L30.0293-70.459L28.125-70.459ZM11.6699-24.4629L46.9727-24.4629L46.2402-26.709L12.4512-26.709ZM55.127 0L57.7637 0L30.6152-70.459L29.4434-70.459L29.4434-67.1387Z"/>
  </g>
  <line id="Baseline-L" style="fill:none;stroke:#27AAE1;opacity:1;stroke-width:0.5;" x1="263" x2="3036" y1="1556" y2="1556"/>
  <line id="Capline-L" style="fill:none;stroke:#27AAE1;opacity:1;stroke-width:0.5;" x1="263" x2="3036" y1="1485.54" y2="1485.54"/>
  <line id="left-margin-Regular-M" style="fill:none;stroke:#00AEEF;stroke-width:0.5;opacity:1.0;" x1="1395.03" x2="1395.03" y1="1030.78" y2="1150.12"/>
  <line id="right-margin-Regular-M" style="fill:none;stroke:#00AEEF;stroke-width:0.5;opacity:1.0;" x1="1504.66" x2="1504.66" y1="1030.78" y2="1150.12"/>
 </g>
 <g id="Symbols">
  <g id="Black-L" transform="matrix(1 0 0 1 2863.95 1556)">
   <path class="hierarchical-0:secondary SFSymbolsPreview4D4D4D" d="M73.1296 12.6L73.2596 12.39C75.2296 9 79.5796 7.85 82.9696 9.82C86.3596 11.79 87.5096 16.14 85.5396 19.53C83.9196 22.31 81.5996 24.63 78.7696 26.27C75.9596 27.88 72.7896 28.72 69.5596 28.72C66.3296 28.72 63.1596 27.88 60.3096 26.25C57.5196 24.63 55.1996 22.31 53.5796 19.53C51.6096 16.14 52.7596 11.79 56.1496 9.82C59.4696 7.89 63.6996 8.95 65.7296 12.17L65.8596 12.39C66.2296 13.04 66.7796 13.59 67.4096 13.95C68.0596 14.32 68.7996 14.52 69.5596 14.52C70.3096 14.52 71.0596 14.32 71.6696 13.97C72.2596 13.63 72.7596 13.16 73.1296 12.6Z"/>
   <path class="hierarchical-1:primary SFSymbolsPreview212121" d="M14.4096-12.68L14.4296-12.7C8.58958-8.8 11.3396 0.31 18.3696 0.31L120.749 0.31C127.689 0.31 130.469-8.59 124.879-12.56L124.689-12.7C124.709-12.68 124.719-12.67 124.719-12.67L124.559-12.81C124.189-13.12 123.749-13.54 123.239-14.07C121.659-15.74 120.019-17.98 118.449-20.85C113.709-29.56 110.79-41.72 110.79-57.98C110.79-68.91 106.44-79.4 98.7096-87.13C90.9796-94.86 80.4896-99.21 69.5596-99.21C58.6296-99.21 48.1396-94.86 40.4096-87.13C32.8096-79.53 28.4896-69.28 28.3396-58.54L28.3396-57.98C28.3396-41.72 25.4196-29.56 20.6696-20.86C19.0996-17.98 17.4696-15.74 15.8796-14.07C15.4496-13.61 15.0596-13.24 14.7196-12.95L14.3996-12.68C14.3996-12.68 14.3996-12.68 14.4096-12.68ZM69.5596-85.01C76.7196-85.01 83.5996-82.16 88.6696-77.09C93.7396-72.02 96.5896-65.14 96.5896-57.98L96.5896-57.08C96.6996-39.24 100.05-25.21 105.7-14.59L106.08-13.89L33.0496-13.89L33.1396-14.05C39.0596-24.91 42.5396-39.41 42.5396-57.98C42.5396-65.15 45.3796-72.02 50.4496-77.09C55.5196-82.16 62.3996-85.01 69.5596-85.01Z"/>
  </g>
  <g id="Heavy-L" transform="matrix(1 0 0 1 2568.09 1556)">
   <path class="hierarchical-0:secondary SFSymbolsPreview4D4D4D" d="M72.9866 13.07L73.1466 12.82C74.8766 9.83 78.7066 8.82 81.6866 10.56C84.6766 12.29 85.6866 16.12 83.9466 19.1C82.4066 21.76 80.1866 23.97 77.4866 25.53C74.8166 27.06 71.7866 27.87 68.7066 27.87C65.6266 27.87 62.5966 27.06 59.8966 25.52C57.2266 23.98 55.0166 21.77 53.4666 19.1C51.7266 16.12 52.7366 12.29 55.7266 10.56C58.6366 8.86 62.3566 9.79 64.1466 12.61L64.2666 12.82C64.7266 13.6 65.3666 14.25 66.1266 14.69C66.9166 15.13 67.8066 15.37 68.7066 15.37C69.6066 15.37 70.4966 15.13 71.2466 14.71C71.9466 14.3 72.5466 13.74 72.9866 13.07Z"/>
   <path class="hierarchical-1:primary SFSymbolsPreview212121" d="M14.4266-12.31L14.0366-11.98L14.0466-11.99C8.90655-8.56 11.3366-0.54 17.5166-0.54L119.896-0.54L120.116-0.54C126.066-0.73 128.386-8.41 123.546-11.86L123.376-11.98L123.166-12.16C122.766-12.49 122.296-12.93 121.766-13.49C120.136-15.21 118.456-17.51 116.846-20.45C112.116-29.13 109.177-41.16 109.077-57.15L109.077-57.98C109.077-68.69 104.827-78.96 97.2566-86.53C89.6866-94.1 79.4166-98.36 68.7066-98.36C57.9966-98.36 47.7266-94.1 40.1566-86.53C32.5866-78.96 28.3266-68.69 28.3266-57.98C28.3266-41.58 25.3766-29.28 20.5566-20.45C18.9566-17.51 17.2766-15.21 15.6466-13.49C15.1866-13.01 14.7766-12.62 14.4266-12.31ZM68.7066-85.86C76.0966-85.86 83.1866-82.92 88.4166-77.69C93.6466-72.46 96.5766-65.38 96.5766-57.98C96.5766-39.54 100.027-25.18 105.877-14.46L106.237-13.82L106.407-13.5L106.677-13.04L30.7266-13.04L30.8166-13.19C31.0566-13.61 31.2966-14.03 31.5366-14.46C37.3766-25.19 40.8266-39.55 40.8266-57.98C40.8266-65.37 43.7666-72.46 48.9966-77.69C54.2266-82.92 61.3166-85.86 68.7066-85.86Z"/>
  </g>
  <g id="Bold-L" transform="matrix(1 0 0 1 2272.34 1556)">
   <path class="hierarchical-0:secondary SFSymbolsPreview4D4D4D" d="M72.8536 13.54L73.0036 13.3C74.4736 10.76 77.7136 9.91 80.2436 11.38C82.7736 12.85 83.6336 16.09 82.1636 18.62C80.7036 21.14 78.6036 23.24 76.0636 24.7C73.5436 26.16 70.6736 26.92 67.7536 26.92C64.8236 26.92 61.9536 26.16 59.4236 24.7C56.8936 23.24 54.7936 21.14 53.3336 18.62C51.8636 16.09 52.7236 12.85 55.2536 11.38C57.7136 9.95 60.8536 10.72 62.3736 13.09L62.4936 13.3C63.0336 14.22 63.8036 14.98 64.7136 15.52C65.6336 16.04 66.6736 16.32 67.7536 16.32C68.8236 16.32 69.8636 16.04 70.7736 15.52C71.6136 15.03 72.3236 14.36 72.8536 13.54Z"/>
   <path class="hierarchical-1:primary SFSymbolsPreview212121" d="M67.7536-97.41C57.2936-97.41 47.2636-93.25 39.8736-85.85C32.4836-78.46 28.3236-68.43 28.3236-57.98C28.3236-41.43 25.3336-28.97 20.4436-19.99C18.7936-16.98 17.0636-14.62 15.3836-12.83C14.9036-12.33 14.4736-11.92 14.0936-11.59L13.8236-11.36L13.6236-11.2C9.26362-8.29 11.3236-1.49 16.5636-1.49L118.933-1.49C124.103-1.49 126.173-8.1 122.053-11.07L121.833-11.23L121.593-11.43C121.173-11.78 120.673-12.25 120.113-12.83C118.433-14.62 116.703-16.98 115.053-19.99C110.244-28.82 107.274-41 107.174-57.14L107.174-57.98C107.174-68.43 103.024-78.46 95.6336-85.85C88.2336-93.25 78.2036-97.41 67.7536-97.41ZM67.7536-86.81C75.3936-86.81 82.7236-83.77 88.1336-78.36C93.5336-72.95 96.5736-65.62 96.5736-57.98C96.5736-39.7 99.9836-25.5 105.754-14.92L106.104-14.29C106.454-13.66 106.804-13.06 107.164-12.47L107.404-12.09L28.0936-12.09L28.3336-12.47C28.8136-13.25 29.2836-14.07 29.7436-14.92C35.5136-25.5 38.9236-39.7 38.9236-57.98C38.9236-65.62 41.9636-72.95 47.3736-78.36C52.7736-83.77 60.1036-86.81 67.7536-86.81Z"/>
  </g>
  <g id="Semibold-L" transform="matrix(1 0 0 1 1976.27 1556)">
   <path class="hierarchical-0:secondary SFSymbolsPreview4D4D4D" d="M72.9259 13.62C74.2159 11.4 77.0659 10.65 79.2859 11.94C81.5059 13.23 82.2559 16.08 80.9659 18.3C79.5659 20.71 77.5459 22.72 75.0959 24.15C72.6659 25.54 69.9059 26.27 67.1059 26.27C64.3059 26.27 61.5459 25.54 59.0859 24.13C56.6659 22.72 54.6459 20.71 53.2459 18.3C51.9559 16.08 52.7059 13.23 54.9259 11.94C57.0859 10.69 59.8259 11.36 61.1659 13.43L61.2859 13.62C61.8759 14.64 62.7359 15.49 63.7359 16.07C64.7559 16.66 65.9259 16.97 67.1059 16.97C68.2859 16.97 69.4559 16.66 70.4459 16.09C71.3959 15.54 72.1959 14.78 72.7759 13.87L72.9259 13.62Z"/>
   <path class="hierarchical-1:primary SFSymbolsPreview212121" d="M67.1059-96.76C56.8259-96.76 46.9659-92.67 39.6859-85.4C32.5459-78.26 28.4859-68.62 28.3359-58.53L28.3359-57.98C28.3359-41.32 25.3159-28.76 20.3659-19.68C18.6959-16.62 16.9359-14.21 15.2059-12.39C14.7159-11.87 14.2659-11.44 13.8659-11.09L13.3359-10.66C9.50587-8.11 11.3159-2.14 15.9159-2.14L118.296-2.14C122.826-2.14 124.646-7.92 121.046-10.54L120.846-10.68L120.536-10.93C120.096-11.3 119.576-11.78 119.006-12.39C117.276-14.21 115.516-16.62 113.846-19.68C108.976-28.6 105.976-40.9 105.876-57.14L105.876-57.98C105.876-68.27 101.796-78.13 94.5259-85.4C87.2459-92.67 77.3859-96.76 67.1059-96.76ZM67.1059-87.46C74.9159-87.46 82.4159-84.35 87.9459-78.82C93.4759-73.3 96.5759-65.8 96.5759-57.98C96.5759-39.81 99.9559-25.71 105.676-15.23L106.026-14.61C106.606-13.58 107.196-12.61 107.796-11.69L107.956-11.44L26.2559-11.44L26.4159-11.69C27.1359-12.79 27.8459-13.97 28.5359-15.23C34.2559-25.71 37.6359-39.81 37.6359-57.98C37.6359-65.8 40.7359-73.3 46.2659-78.82C51.7959-84.35 59.2959-87.46 67.1059-87.46Z"/>
  </g>
  <g id="Medium-L" transform="matrix(1 0 0 1 1680.06 1556)">
   <path class="hierarchical-0:secondary SFSymbolsPreview4D4D4D" d="M72.8551 13.87C74.0051 11.89 76.5451 11.22 78.5351 12.37C80.5151 13.52 81.1851 16.06 80.0351 18.05C78.6751 20.38 76.7151 22.33 74.3451 23.71C71.9851 25.06 69.3151 25.77 66.6051 25.77C63.8951 25.77 61.2251 25.06 58.8351 23.7C56.4951 22.33 54.5351 20.38 53.1751 18.05C52.0251 16.06 52.6951 13.52 54.6751 12.37C56.5951 11.26 59.0451 11.85 60.2451 13.69L60.3551 13.87C60.9851 14.96 61.9051 15.88 62.9851 16.51C64.0851 17.14 65.3351 17.47 66.6051 17.47C67.8751 17.47 69.1251 17.14 70.1951 16.52C71.2151 15.93 72.0651 15.11 72.6951 14.14L72.8551 13.87Z"/>
   <path class="hierarchical-1:primary SFSymbolsPreview212121" d="M66.6051-96.26C56.4551-96.26 46.7251-92.22 39.5451-85.04C32.4951-78 28.4751-68.48 28.3351-58.52L28.3351-57.98C28.3351-41.24 25.2951-28.59 20.3051-19.44C18.6151-16.34 16.8251-13.9 15.0651-12.04L14.8851-11.86L14.5451-11.51L14.2351-11.21L13.9551-10.94L13.7051-10.72L13.3951-10.46L13.2351-10.33C13.2151-10.31 13.1951-10.3 13.1751-10.28L13.1151-10.24C9.69509-7.97 11.3051-2.64 15.4151-2.64L117.795-2.64C121.835-2.64 123.455-7.79 120.265-10.13L120.035-10.28L119.815-10.46L119.615-10.62L119.385-10.83L119.115-11.07L118.825-11.35L118.495-11.68C118.385-11.79 118.265-11.91 118.145-12.04C116.385-13.9 114.595-16.34 112.905-19.44C107.995-28.44 104.975-40.81 104.875-57.13L104.875-57.98C104.875-68.13 100.845-77.87 93.6651-85.04C86.4851-92.22 76.7551-96.26 66.6051-96.26ZM66.6051-87.96C74.5551-87.96 82.1751-84.8 87.8051-79.18C93.4151-73.56 96.5751-65.93 96.5751-57.98C96.5751-39.89 99.9351-25.87 105.615-15.47L105.975-14.82C106.705-13.53 107.455-12.32 108.215-11.21L108.405-10.94L24.8051-10.94L24.9951-11.21C25.8851-12.51 26.7551-13.93 27.5951-15.47C33.2751-25.87 36.6351-39.89 36.6351-57.98C36.6351-65.93 39.7951-73.56 45.4051-79.18C51.0351-84.8 58.6551-87.96 66.6051-87.96Z"/>
  </g>
  <g id="Regular-L" transform="matrix(1 0 0 1 1384 1556)">
   <path class="hierarchical-0:secondary SFSymbolsPreview4D4D4D" d="M72.6003 14.47L72.7603 14.2C73.7403 12.53 75.8803 11.96 77.5503 12.94C79.2203 13.91 79.7903 16.05 78.8203 17.72C77.5103 19.96 75.6403 21.83 73.3703 23.15C71.1103 24.44 68.5503 25.12 65.9503 25.12C63.3503 25.12 60.7903 24.44 58.5103 23.14C56.2603 21.83 54.3903 19.96 53.0803 17.72C52.1103 16.05 52.6803 13.91 54.3503 12.94C55.9603 12 58.0203 12.49 59.0303 14.03L59.1403 14.2C59.8303 15.39 60.8303 16.39 62.0103 17.07C63.2103 17.76 64.5703 18.12 65.9503 18.12C67.3303 18.12 68.6903 17.76 69.8703 17.09C70.9803 16.44 71.9203 15.54 72.6003 14.47Z"/>
   <path class="hierarchical-1:primary SFSymbolsPreview212121" d="M65.9503-95.61C55.9703-95.61 46.4003-91.64 39.3503-84.58C32.4203-77.66 28.4703-68.31 28.3303-58.52L28.3303-57.98C28.3303-41.13 25.2703-28.38 20.2203-19.13C18.5003-15.98 16.6803-13.49 14.8903-11.6C14.3703-11.05 13.8903-10.59 13.4603-10.22L13.0603-9.89L12.8403-9.72L12.8203-9.7C9.9403-7.78 11.3003-3.29 14.7603-3.29L117.14-3.29C120.54-3.29 121.91-7.62 119.23-9.6L119.03-9.74L118.84-9.89L118.65-10.04C118.17-10.44 117.62-10.96 117.01-11.6C115.22-13.49 113.4-15.98 111.68-19.13C106.72-28.22 103.67-40.71 103.57-57.14L103.57-57.98C103.57-67.96 99.6103-77.53 92.5503-84.58C85.5003-91.64 75.9303-95.61 65.9503-95.61ZM65.9503-88.61C74.0703-88.61 81.8603-85.38 87.6103-79.63C93.3503-73.89 96.5703-66.1 96.5703-57.98C96.5703-39.99 99.9103-26.09 105.53-15.78L105.89-15.14C106.85-13.44 107.84-11.9 108.85-10.51L109.01-10.29L22.8903-10.29L23.0503-10.51C24.1903-12.07 25.3003-13.83 26.3703-15.78C31.9903-26.09 35.3303-39.99 35.3303-57.98C35.3303-66.1 38.5503-73.89 44.2903-79.63C50.0403-85.38 57.8303-88.61 65.9503-88.61Z"/>
  </g>
  <g id="Light-L" transform="matrix(1 0 0 1 1088.09 1556)">
   <path class="hierarchical-0:secondary SFSymbolsPreview4D4D4D" d="M72.6612 14.6C73.4112 13.31 75.0612 12.88 76.3512 13.63C77.6412 14.38 78.0712 16.03 77.3212 17.32C76.0912 19.44 74.3212 21.21 72.1712 22.45C70.0312 23.68 67.6112 24.32 65.1512 24.32C62.6912 24.32 60.2712 23.68 58.1112 22.44C55.9812 21.21 54.2112 19.44 52.9812 17.32C52.2312 16.03 52.6612 14.38 53.9512 13.63C55.2412 12.88 56.8912 13.31 57.6412 14.6C58.4012 15.91 59.5012 17.01 60.8112 17.77C62.1312 18.52 63.6312 18.92 65.1512 18.92C66.6712 18.92 68.1712 18.52 69.4712 17.78C70.8012 17.01 71.9012 15.91 72.6612 14.6Z"/>
   <path class="hierarchical-1:primary SFSymbolsPreview212121" d="M65.1512-94.81C55.3912-94.81 46.0212-90.93 39.1112-84.02C32.3312-77.24 28.4712-68.09 28.3312-58.51L28.3312-57.98C28.3312-41 25.2412-28.12 20.1212-18.75C18.3712-15.54 16.5112-12.99 14.6712-11.05C14.1312-10.48 13.6312-10.01 13.1812-9.62L12.8512-9.34L12.6012-9.14L12.4612-9.04C10.2412-7.56 11.2912-4.09 13.9612-4.09L116.341-4.09C118.951-4.09 120.021-7.41 117.981-8.94L117.701-9.14L117.451-9.34L117.331-9.43C116.831-9.85 116.261-10.39 115.631-11.05C113.791-12.99 111.931-15.54 110.181-18.75C105.151-27.96 102.071-40.57 101.971-57.14L101.971-57.98C101.971-67.75 98.0912-77.12 91.1912-84.02C84.2812-90.93 74.9112-94.81 65.1512-94.81ZM65.1512-89.41C73.4812-89.41 81.4812-86.1 87.3712-80.2C93.1412-74.43 96.4412-66.64 96.5712-58.48L96.5712-57.98C96.5712-40.12 99.8812-26.35 105.431-16.16L105.791-15.53C106.961-13.44 108.191-11.6 109.441-9.99L109.831-9.49L20.4612-9.49L20.4812-9.51C21.9912-11.39 23.4712-13.6 24.8712-16.16C30.3312-26.18 33.6212-39.67 33.7312-57.11L33.7312-57.98C33.7312-66.32 37.0412-74.31 42.9312-80.2C48.8212-86.1 56.8212-89.41 65.1512-89.41Z"/>
  </g>
  <g id="Thin-L" transform="matrix(1 0 0 1 792.431 1556)">
   <path class="hierarchical-0:secondary SFSymbolsPreview4D4D4D" d="M72.5105 15.13C72.9685 14.34 73.9785 14.08 74.7655 14.53C75.5535 14.99 75.8205 16 75.3625 16.79C74.2185 18.76 72.5775 20.39 70.5955 21.54C68.6205 22.68 66.3795 23.27 64.0975 23.27C61.8155 23.27 59.5745 22.67 57.5935 21.54C55.6175 20.39 53.9765 18.76 52.8325 16.79C52.3745 16 52.6415 14.99 53.4295 14.53C54.2165 14.08 55.2265 14.34 55.6845 15.13C56.5395 16.6 57.7675 17.83 59.2415 18.68C60.7165 19.53 62.3915 19.97 64.0975 19.97C65.8035 19.97 67.4785 19.53 68.9475 18.68C70.4275 17.83 71.6555 16.6 72.5105 15.13Z"/>
   <path class="hierarchical-1:primary SFSymbolsPreview212121" d="M64.0975-93.76C54.6115-93.76 45.5125-89.99 38.8005-83.28C32.0915-76.57 28.3225-67.47 28.3225-57.98C28.3225-40.83 25.1885-27.77 19.9925-18.25C18.1955-14.95 16.2805-12.33 14.3775-10.32C13.8165-9.73 13.2935-9.23 12.8195-8.82L12.4625-8.52L12.2525-8.35L12.0375-8.19L11.9935-8.16C10.6355-7.26 11.2775-5.14 12.9095-5.14L115.285-5.14C116.868-5.14 117.519-7.13 116.318-8.08L116.099-8.23L115.942-8.35L115.732-8.52L115.608-8.62C115.074-9.07 114.472-9.63 113.817-10.32C111.914-12.33 109.999-14.95 108.202-18.25C103.006-27.77 99.8725-40.83 99.8725-57.98C99.8725-67.47 96.1035-76.57 89.3945-83.28C82.6825-89.99 73.5835-93.76 64.0975-93.76ZM64.0975-90.46C72.7075-90.46 80.9685-87.04 87.0605-80.94C93.0315-74.97 96.4375-66.92 96.5685-58.49L96.5725-57.98C96.5725-40.29 99.8375-26.69 105.305-16.67L105.648-16.05C107.256-13.19 108.959-10.81 110.682-8.86L111.062-8.44L17.1315-8.44L17.5125-8.86C19.3585-10.95 21.1815-13.54 22.8895-16.67C28.3575-26.69 31.6225-40.29 31.6225-57.98C31.6225-66.59 35.0435-74.85 41.1345-80.94C47.2265-87.04 55.4875-90.46 64.0975-90.46Z"/>
  </g>
  <g id="Ultralight-L" transform="matrix(1 0 0 1 496.271 1556)">
   <path class="hierarchical-0:secondary SFSymbolsPreview4D4D4D" d="M72.4342 15.41C72.7392 14.88 73.4132 14.71 73.9382 15.01C74.4632 15.32 74.6412 15.99 74.3362 16.51C73.2402 18.4 71.6672 19.97 69.7702 21.07C67.8782 22.15 65.7322 22.72 63.5462 22.72C61.3602 22.72 59.2132 22.15 57.3182 21.06C55.4242 19.97 53.8522 18.4 52.7562 16.51C52.4512 15.99 52.6292 15.32 53.1542 15.01C53.6792 14.71 54.3532 14.88 54.6582 15.41C55.5612 16.96 56.8582 18.25 58.4162 19.16C59.9752 20.05 61.7442 20.52 63.5462 20.52C65.3482 20.52 67.1172 20.05 68.6722 19.16C70.2342 18.25 71.5312 16.96 72.4342 15.41Z"/>
   <path class="hierarchical-1:primary SFSymbolsPreview212121" d="M63.5462-93.21C54.2062-93.21 45.2462-89.5 38.6382-82.89C32.0322-76.28 28.3212-67.32 28.3212-57.98C28.3212-40.74 25.1652-27.59 19.9242-17.98C18.1042-14.64 16.1602-11.99 14.2252-9.95C13.6512-9.34 13.1152-8.83 12.6272-8.4L12.2562-8.09L12.0332-7.91L11.7982-7.74C11.7792-7.73 11.7622-7.71 11.7482-7.7C10.8422-7.1 11.2702-5.69 12.3582-5.69L114.734-5.69C115.822-5.69 116.25-7.1 115.344-7.7L115.294-7.74L115.059-7.91L114.836-8.09L114.705-8.2C114.155-8.66 113.536-9.24 112.867-9.95C110.932-11.99 108.988-14.64 107.168-17.98C102.014-27.43 98.8772-40.3 98.7742-57.12L98.7712-57.98C98.7712-67.32 95.0602-76.28 88.4542-82.89C81.8462-89.5 72.8862-93.21 63.5462-93.21ZM63.5462-91.01C72.3022-91.01 80.7022-87.53 86.8982-81.33C93.0922-75.14 96.5712-66.74 96.5712-57.98C96.5712-40.38 99.8142-26.87 105.237-16.93C107.149-13.42 109.205-10.61 111.269-8.43L111.728-7.96L111.796-7.89L15.2952-7.89L15.3642-7.96C15.5122-8.11 15.6652-8.27 15.8232-8.43C17.8872-10.61 19.9432-13.42 21.8552-16.93C27.2782-26.87 30.5212-40.38 30.5212-57.98C30.5212-66.74 34.0002-75.14 40.1942-81.33C46.3902-87.53 54.7902-91.01 63.5462-91.01Z"/>
  </g>
  <g id="Black-M" transform="matrix(1 0 0 1 2874.97 1126)">
   <path class="hierarchical-0:secondary SFSymbolsPreview4D4D4D" d="M60.0994 1.38C62.0594-2.02 66.4094-3.18 69.7994-1.22C73.1994 0.75 74.3594 5.09 72.3994 8.48C70.9994 10.91 68.9694 12.94 66.5194 14.35C64.0894 15.75 61.3394 16.48 58.5294 16.48C55.7194 16.48 52.9594 15.74 50.5494 14.35C48.1194 12.96 46.0994 10.94 44.6794 8.52C42.6994 5.13 43.8394 0.78 47.2194-1.2C50.6094-3.18 54.9594-2.04 56.9394 1.35C57.1094 1.65 57.3494 1.88 57.6294 2.04C57.8994 2.2 58.2094 2.28 58.5294 2.28C58.8594 2.28 59.1694 2.2 59.4394 2.04C59.7094 1.89 59.9494 1.65 60.0994 1.38Z"/>
   <path class="hierarchical-1:primary SFSymbolsPreview212121" d="M14.6194-19.01L14.3394-18.77L14.3694-18.78C8.5994-14.85 11.3794-5.82 18.3694-5.82L98.6994-5.82L98.9394-5.82C105.709-6.02 108.359-14.77 102.829-18.69L102.709-18.78C102.709-18.78 102.719-18.77 102.719-18.77L102.669-18.82C102.419-19.02 102.119-19.31 101.759-19.69C100.609-20.9 99.3994-22.55 98.2394-24.68C94.6394-31.28 92.4094-40.57 92.4094-53.08C92.4094-62.06 88.8394-70.68 82.4894-77.03C76.1394-83.38 67.5194-86.96 58.5294-86.96C49.5494-86.96 40.9294-83.38 34.5794-77.03C28.3494-70.8 24.7994-62.39 24.6594-53.6L24.6594-53.08C24.6594-40.78 22.4994-31.58 18.9994-24.99C17.8394-22.82 16.6394-21.12 15.4694-19.86C15.1494-19.51 14.8694-19.23 14.6194-19.01ZM58.5294-72.76C63.7494-72.76 68.7594-70.68 72.4494-66.99C76.1394-63.3 78.2094-58.3 78.2094-53.08L78.2094-52.27C78.2994-39.17 80.5994-28.6 84.5194-20.34L84.6794-20.02L32.3894-20.02L32.5294-20.3C36.5494-28.75 38.8594-39.59 38.8594-53.08C38.8594-58.3 40.9294-63.3 44.6194-66.99C48.3094-70.68 53.3194-72.76 58.5294-72.76Z"/>
  </g>
  <g id="Heavy-M" transform="matrix(1 0 0 1 2579.11 1126)">
   <path class="hierarchical-0:secondary SFSymbolsPreview4D4D4D" d="M59.9866 1.8C61.7166-1.18 65.5366-2.21 68.5266-0.48C71.5166 1.25 72.5366 5.07 70.8066 8.06C69.4766 10.36 67.5666 12.27 65.2466 13.61C62.9366 14.94 60.3366 15.63 57.6766 15.63C55.0166 15.63 52.3966 14.93 50.0966 13.6C47.8066 12.28 45.8966 10.37 44.5666 8.09C42.8166 5.11 43.8166 1.28 46.7966-0.46C49.7766-2.21 53.6066-1.21 55.3466 1.77C55.5966 2.19 55.9466 2.54 56.3566 2.78C56.7466 3.01 57.2066 3.13 57.6766 3.13C58.1566 3.13 58.6066 3.01 59.0066 2.78C59.4066 2.55 59.7566 2.21 59.9866 1.8Z"/>
   <path class="hierarchical-1:primary SFSymbolsPreview212121" d="M101.357-18.09C101.367-18.08 101.367-18.08 101.367-18.09L101.187-18.24C100.877-18.5 100.527-18.85 100.127-19.28C98.9066-20.6 97.6566-22.35 96.4666-24.59C92.8966-31.31 90.7066-40.64 90.7066-53.08C90.7066-61.84 87.2266-70.24 81.0366-76.43C74.8366-82.62 66.4366-86.11 57.6766-86.11C48.9266-86.11 40.5266-82.62 34.3266-76.43C28.1366-70.24 24.6566-61.84 24.6566-53.08C24.6566-40.64 22.4666-31.31 18.8966-24.59C17.7066-22.35 16.4566-20.6 15.2366-19.28C14.9066-18.92 14.6066-18.62 14.3366-18.38L13.9866-18.07L13.9966-18.08C8.91656-14.62 11.3666-6.67 17.5166-6.67L97.8466-6.67C103.917-6.67 106.387-14.42 101.547-17.96L101.357-18.09ZM57.6766-73.61C63.1166-73.61 68.3466-71.44 72.1966-67.59C76.0466-63.74 78.2066-58.52 78.2066-53.08L78.2066-52.28C78.3066-38.77 80.7566-27.99 84.9266-19.7L85.1966-19.17L30.1666-19.17L30.4266-19.69C34.6866-28.15 37.1566-39.19 37.1566-53.08C37.1566-58.52 39.3166-63.74 43.1666-67.59C47.0166-71.44 52.2366-73.61 57.6766-73.61Z"/>
  </g>
  <g id="Bold-M" transform="matrix(1 0 0 1 2283.35 1126)">
   <path class="hierarchical-0:secondary SFSymbolsPreview4D4D4D" d="M59.8762 2.27C61.3462-0.26 64.5862-1.12 67.1162 0.35C69.6462 1.82 70.5062 5.06 69.0362 7.59C67.7862 9.75 65.9962 11.53 63.8262 12.79C61.6562 14.03 59.2262 14.68 56.7362 14.68C54.2462 14.68 51.8062 14.03 49.6262 12.78C47.4662 11.53 45.6762 9.75 44.4262 7.59C42.9562 5.06 43.8162 1.82 46.3462 0.35C48.8062-1.08 51.9462-0.31 53.4662 2.07L53.5862 2.27C53.9062 2.82 54.3662 3.28 54.9162 3.59C55.4762 3.91 56.0962 4.08 56.7362 4.08C57.3662 4.08 57.9862 3.91 58.5362 3.6C59.0262 3.32 59.4362 2.93 59.7462 2.47L59.8762 2.27Z"/>
   <path class="hierarchical-1:primary SFSymbolsPreview212121" d="M56.7262-85.15C48.2162-85.15 40.0662-81.77 34.0462-75.76C28.0362-69.74 24.6562-61.59 24.6562-53.08C24.6562-40.49 22.4262-31 18.7862-24.15C17.5562-21.84 16.2562-20.02 14.9862-18.64L14.6762-18.31L14.3962-18.02L14.1462-17.78L13.9362-17.59L13.7662-17.44C13.7362-17.42 13.7162-17.4 13.6962-17.38L13.5762-17.3C9.27625-14.36 11.3462-7.62 16.5662-7.62L96.8962-7.62C102.036-7.62 104.126-14.17 100.066-17.17L99.8162-17.35L99.6762-17.45L99.4962-17.61L99.2762-17.82C99.2362-17.86 99.1962-17.9 99.1462-17.94L98.8962-18.19L98.6262-18.48C98.5762-18.53 98.5262-18.58 98.4762-18.64C97.2062-20.02 95.9062-21.84 94.6762-24.15C91.0362-31 88.8062-40.49 88.8062-53.08C88.8062-61.59 85.4262-69.74 79.4162-75.76C73.3962-81.77 65.2362-85.15 56.7262-85.15ZM56.7262-74.55C62.4262-74.55 67.8962-72.29 71.9162-68.26C75.9462-64.24 78.2062-58.78 78.2062-53.08C78.2062-38.8 80.8362-27.61 85.3162-19.17L85.6362-18.59L85.8362-18.22L27.6162-18.22L27.8262-18.59L28.1462-19.17C32.6262-27.61 35.2562-38.8 35.2562-53.08C35.2562-58.78 37.5162-64.24 41.5462-68.26C45.5662-72.29 51.0362-74.55 56.7262-74.55Z"/>
  </g>
  <g id="Semibold-M" transform="matrix(1 0 0 1 1987.3 1126)">
   <path class="hierarchical-0:secondary SFSymbolsPreview4D4D4D" d="M59.7634 2.62C61.0334 0.39 63.8834-0.38 66.1034 0.9C68.3334 2.17 69.1034 5.02 67.8234 7.24C66.6334 9.32 64.9134 11.03 62.8534 12.22C60.7934 13.4 58.4534 14.03 56.0734 14.03C53.6934 14.03 51.3534 13.4 49.3134 12.22C47.2334 11.03 45.5134 9.32 44.3234 7.24C43.0434 5.02 43.8134 2.17 46.0434 0.9C48.2034-0.34 50.9434 0.35 52.2734 2.42L52.3834 2.62C52.7534 3.25 53.2834 3.78 53.9534 4.16C54.5934 4.53 55.3234 4.73 56.0734 4.73C56.8234 4.73 57.5534 4.53 58.2134 4.16C58.7934 3.82 59.2734 3.37 59.6334 2.82L59.7634 2.62Z"/>
   <path class="hierarchical-1:primary SFSymbolsPreview212121" d="M56.0734-84.5C47.7434-84.5 39.7434-81.19 33.8534-75.3C27.9634-69.4 24.6434-61.41 24.6434-53.08C24.6434-40.39 22.3934-30.79 18.6934-23.84C17.4434-21.48 16.1134-19.62 14.8134-18.2C14.4434-17.8 14.1034-17.46 13.7934-17.18L13.5334-16.95L13.3134-16.77L13.2934-16.76C9.51342-14.18 11.3434-8.27 15.9134-8.27L96.2334-8.27C100.733-8.27 102.573-14 99.0234-16.64L98.8034-16.8L98.6034-16.96L98.5234-17.03C98.1734-17.33 97.7734-17.72 97.3334-18.2C96.0234-19.62 94.6934-21.48 93.4434-23.84C89.8134-30.66 87.5834-40.01 87.4934-52.34L87.4934-53.08C87.4934-61.41 84.1834-69.41 78.2934-75.3C72.4034-81.19 64.4034-84.5 56.0734-84.5ZM56.0734-75.2C61.9434-75.2 67.5634-72.87 71.7134-68.72C75.8634-64.57 78.1934-58.95 78.1934-53.08C78.1934-38.91 80.7934-27.81 85.2334-19.47L85.5434-18.91C85.7434-18.53 85.9534-18.17 86.1634-17.81L86.3034-17.57L25.8334-17.57L25.9734-17.81C26.2934-18.35 26.6034-18.9 26.9134-19.48C31.3434-27.82 33.9434-38.91 33.9434-53.08C33.9434-58.94 36.2834-64.57 40.4334-68.72C44.5834-72.87 50.2034-75.2 56.0734-75.2Z"/>
  </g>
  <g id="Medium-M" transform="matrix(1 0 0 1 1691.09 1126)">
   <path class="hierarchical-0:secondary SFSymbolsPreview4D4D4D" d="M45.7926 1.33C47.7726 0.19 50.3126 0.88 51.4526 2.87C51.8626 3.58 52.4526 4.17 53.2026 4.6C53.9126 5.01 54.7326 5.23 55.5726 5.23C56.4026 5.23 57.2326 5.01 57.9626 4.59C58.6826 4.17 59.2826 3.58 59.6926 2.87C60.8326 0.88 63.3726 0.19 65.3526 1.33C67.3426 2.47 68.0326 5.01 66.8926 6.99C65.7426 8.99 64.0926 10.64 62.1026 11.78C60.1226 12.93 57.8626 13.53 55.5726 13.53C53.2826 13.53 51.0226 12.93 49.0626 11.79C47.0526 10.64 45.3926 8.99 44.2526 6.99C43.1126 5.01 43.8026 2.47 45.7926 1.33Z"/>
   <path class="hierarchical-1:primary SFSymbolsPreview212121" d="M55.5726-84C47.3726-84 39.5026-80.74 33.7126-74.94C28.0226-69.26 24.7726-61.6 24.6426-53.58L24.6426-53.08C24.6426-40.31 22.3726-30.63 18.6426-23.61C17.3626-21.21 16.0126-19.31 14.6826-17.86C14.2226-17.36 13.8126-16.96 13.4426-16.65L13.1926-16.44L13.0726-16.35C9.70263-14.05 11.3326-8.77 15.4126-8.77L95.7326-8.77C99.7726-8.77 101.393-13.92 98.1926-16.26L98.0026-16.4L97.8126-16.55C97.4826-16.83 97.0926-17.2 96.6526-17.66C95.3226-19.05 93.9726-20.91 92.6826-23.27C88.8426-30.31 86.4926-40.09 86.4926-53.08C86.4926-61.28 83.2326-69.15 77.4326-74.94C71.6426-80.74 63.7726-84 55.5726-84ZM55.5726-75.7C61.5726-75.7 67.3226-73.32 71.5726-69.08C75.8126-64.83 78.1926-59.08 78.1926-53.08C78.1926-38.74 80.8626-27.59 85.3926-19.3L85.7026-18.74C86.0126-18.19 86.3326-17.66 86.6526-17.15L86.7026-17.07L24.4426-17.07L24.6526-17.41C25.1026-18.13 25.5426-18.9 25.9726-19.71C30.3626-27.98 32.9426-38.99 32.9426-53.08C32.9426-59.07 35.3326-64.83 39.5726-69.08C43.8226-73.32 49.5726-75.7 55.5726-75.7Z"/>
  </g>
  <g id="Regular-M" transform="matrix(1 0 0 1 1395.03 1126)">
   <path class="hierarchical-0:secondary SFSymbolsPreview4D4D4D" d="M45.4624 1.89C47.0824 0.97 49.1324 1.47 50.1324 3.02L50.2424 3.19C50.7024 4 51.3824 4.68 52.2224 5.16C53.0424 5.63 53.9724 5.88 54.9224 5.88C55.8724 5.88 56.8024 5.63 57.6324 5.15C58.3824 4.73 59.0024 4.14 59.4624 3.43L59.6024 3.19C60.5724 1.51 62.7024 0.93 64.3824 1.89C66.0624 2.86 66.6424 4.99 65.6824 6.67C64.5924 8.57 63.0124 10.14 61.1224 11.22C59.2424 12.31 57.1024 12.88 54.9224 12.88C52.7424 12.88 50.6024 12.31 48.7324 11.23C46.8324 10.14 45.2524 8.57 44.1624 6.67C43.2024 4.99 43.7824 2.86 45.4624 1.89Z"/>
   <path class="hierarchical-1:primary SFSymbolsPreview212121" d="M54.9224-83.35C46.8924-83.35 39.1924-80.16 33.5224-74.48C27.9524-68.92 24.7724-61.42 24.6424-53.58L24.6424-53.08C24.6424-40.2 22.3524-30.43 18.5624-23.3C17.2624-20.85 15.8824-18.91 14.5024-17.42C14.0324-16.9 13.6024-16.49 13.2124-16.15L13.0224-15.99L12.7924-15.81C9.94242-13.87 11.3224-9.42 14.7624-9.42L95.0824-9.42C98.4824-9.42 99.8522-13.75 97.1724-15.73L96.9724-15.87L96.8424-15.96L96.6824-16.1L96.4824-16.27L96.2524-16.49C96.2124-16.53 96.1624-16.57 96.1224-16.61L95.8424-16.89L95.5324-17.21C94.1624-18.65 92.7824-20.55 91.4624-22.96C87.5624-30.1 85.1924-39.98 85.1924-53.08C85.1924-61.11 82.0024-68.81 76.3224-74.48C70.6524-80.16 62.9524-83.35 54.9224-83.35ZM54.9224-76.35C61.0924-76.35 67.0124-73.9 71.3824-69.53C75.7424-65.17 78.1924-59.25 78.1924-53.08C78.1924-38.84 80.8424-27.81 85.3124-19.61L85.6224-19.06C86.0224-18.34 86.4424-17.65 86.8624-17L87.2524-16.42L22.5924-16.42L22.7824-16.7C23.4524-17.72 24.1124-18.82 24.7424-20.01C29.0824-28.18 31.6424-39.09 31.6424-53.08C31.6424-59.25 34.1024-65.17 38.4624-69.53C42.8324-73.9 48.7524-76.35 54.9224-76.35Z"/>
  </g>
  <g id="Light-M" transform="matrix(1 0 0 1 1099.12 1126)">
   <path class="hierarchical-0:secondary SFSymbolsPreview4D4D4D" d="M59.5035 3.59C60.2435 2.29 61.8935 1.85 63.1835 2.59C64.4835 3.33 64.9235 4.98 64.1835 6.27C63.1735 8.05 61.6935 9.51 59.9235 10.53C58.1635 11.55 56.1635 12.08 54.1235 12.08C52.0835 12.08 50.0835 11.55 48.3335 10.53C46.5535 9.51 45.0735 8.05 44.0635 6.27C43.3235 4.98 43.7635 3.33 45.0635 2.59C46.3535 1.85 48.0035 2.29 48.7435 3.59C49.2835 4.52 50.0635 5.3 51.0235 5.85C51.9635 6.39 53.0335 6.68 54.1235 6.68C55.2135 6.68 56.2835 6.39 57.2335 5.85C58.1835 5.3 58.9635 4.52 59.5035 3.59Z"/>
   <path class="hierarchical-1:primary SFSymbolsPreview212121" d="M54.1235-82.55C46.3035-82.55 38.8135-79.44 33.2835-73.92C27.8735-68.5 24.7735-61.2 24.6435-53.57L24.6435-53.08C24.6435-40.08 22.3235-30.17 18.4735-22.92C17.1335-20.42 15.7135-18.42 14.2935-16.87C13.8035-16.34 13.3435-15.9 12.9435-15.55L12.7235-15.37L12.5535-15.23L12.4435-15.15C10.2435-13.65 11.3035-10.22 13.9635-10.22L94.2835-10.22C96.9035-10.22 97.9635-13.54 95.9135-15.07L95.6535-15.26L95.4835-15.39C95.4535-15.41 95.4235-15.44 95.3935-15.47L95.1735-15.66L94.9135-15.89L94.6335-16.17L94.3235-16.48C94.2635-16.54 94.2035-16.6 94.1535-16.66C92.7435-18.15 91.3135-20.1 89.9635-22.58C85.9935-29.84 83.5935-39.85 83.5935-53.08C83.5935-60.9 80.4935-68.39 74.9635-73.92C69.4335-79.44 61.9435-82.55 54.1235-82.55ZM54.1235-77.15C60.5035-77.15 66.6335-74.61 71.1435-70.1C75.6535-65.59 78.1935-59.46 78.1935-53.08C78.1935-38.97 80.8135-28.07 85.2135-19.99L85.5335-19.42C86.2835-18.11 87.0535-16.91 87.8335-15.83L87.9935-15.62L20.2435-15.62L20.3235-15.71C21.3235-17.08 22.3035-18.64 23.2335-20.39C27.5135-28.44 30.0435-39.22 30.0435-53.08C30.0435-59.46 32.5835-65.58 37.1035-70.1C41.6135-74.61 47.7435-77.15 54.1235-77.15Z"/>
  </g>
  <g id="Thin-M" transform="matrix(1 0 0 1 803.456 1126)">
   <path class="hierarchical-0:secondary SFSymbolsPreview4D4D4D" d="M59.3635 4.1C59.8185 3.32 60.8285 3.04 61.6175 3.5C62.4065 3.96 62.6765 4.97 62.2215 5.75C61.2935 7.36 59.9595 8.69 58.3505 9.62C56.7465 10.54 54.9255 11.03 53.0725 11.03C51.2195 11.03 49.3995 10.54 47.7945 9.62C46.1835 8.69 44.8505 7.36 43.9225 5.75C43.4675 4.96 43.7385 3.96 44.5285 3.5C45.3175 3.04 46.3265 3.32 46.7815 4.11C47.4185 5.21 48.3335 6.12 49.4405 6.76C50.5445 7.4 51.7965 7.73 53.0725 7.73C54.3475 7.73 55.6005 7.39 56.7035 6.76C57.8105 6.12 58.7255 5.21 59.3635 4.1Z"/>
   <path class="hierarchical-1:primary SFSymbolsPreview212121" d="M53.0725-81.5C45.5335-81.5 38.3035-78.51 32.9725-73.18C27.7585-67.96 24.7785-60.93 24.6515-53.57L24.6475-53.08C24.6475-39.91 22.2825-29.83 18.3475-22.43C16.9715-19.84 15.4965-17.77 14.0175-16.17C13.4655-15.57 12.9845-15.1 12.5955-14.77L12.3215-14.54C12.2365-14.47 12.1575-14.41 12.0845-14.36L11.9795-14.28C10.6385-13.37 11.2855-11.27 12.9095-11.27L93.2345-11.27C94.8175-11.27 95.4685-13.26 94.2675-14.21L93.9645-14.43L93.7155-14.63C93.3065-14.97 92.8445-15.4 92.3405-15.94C90.8685-17.49 89.3845-19.52 87.9895-22.08C83.9425-29.49 81.4975-39.68 81.4975-53.08C81.4975-60.62 78.5025-67.85 73.1725-73.18C67.8405-78.51 60.6105-81.5 53.0725-81.5ZM53.0725-78.2C59.7355-78.2 66.1265-75.55 70.8385-70.84C75.4405-66.24 78.0735-60.04 78.1935-53.54L78.1975-53.08C78.1975-39.14 80.7725-28.41 85.0925-20.49L85.4005-19.94C86.5365-17.93 87.7335-16.22 88.9475-14.78L89.1295-14.57L17.0135-14.57L17.1115-14.68C18.5475-16.37 19.9535-18.42 21.2615-20.88C25.3785-28.63 27.8525-38.99 27.9445-52.31L27.9475-53.08C27.9475-59.74 30.5945-66.13 35.3065-70.84C40.0175-75.55 46.4085-78.2 53.0725-78.2Z"/>
  </g>
  <g id="Ultralight-M" transform="matrix(1 0 0 1 507.297 1126)">
   <path class="hierarchical-0:secondary SFSymbolsPreview4D4D4D" d="M59.2872 4.38C59.5902 3.85 60.2632 3.67 60.7892 3.98C61.3162 4.28 61.4962 4.95 61.1932 5.48C60.3142 7 59.0502 8.26 57.5242 9.14C56.0022 10.02 54.2772 10.48 52.5202 10.48C50.7632 10.48 49.0382 10.02 47.5162 9.14C45.9902 8.26 44.7252 7 43.8472 5.48C43.5442 4.95 43.7242 4.28 44.2512 3.98C44.7772 3.67 45.4502 3.85 45.7532 4.38C46.4372 5.57 47.4232 6.55 48.6142 7.24C49.8012 7.92 51.1482 8.28 52.5202 8.28C53.8922 8.28 55.2392 7.92 56.4262 7.24C57.6172 6.55 58.6022 5.57 59.2872 4.38Z"/>
   <path class="hierarchical-1:primary SFSymbolsPreview212121" d="M52.5202-80.95C45.1272-80.95 38.0382-78.01 32.8092-72.79C27.6962-67.67 24.7742-60.78 24.6492-53.56L24.6452-53.08C24.6452-39.82 22.2602-29.66 18.2812-22.17C16.8832-19.54 15.3812-17.43 13.8712-15.79C13.7382-15.65 13.6102-15.51 13.4862-15.38L13.1252-15.02C13.0092-14.91 12.8982-14.8 12.7912-14.7L12.4842-14.42L12.2072-14.19L11.9622-13.99C11.9232-13.96 11.8872-13.93 11.8512-13.91L11.7382-13.83C10.8442-13.22 11.2762-11.82 12.3582-11.82L92.6832-11.82C93.7312-11.82 94.1662-13.13 93.3882-13.76L93.1502-13.94L92.9112-14.13C92.8802-14.15 92.8472-14.18 92.8122-14.21C92.3872-14.56 91.9092-15.01 91.3902-15.56C89.8852-17.14 88.3732-19.21 86.9552-21.81C82.8622-29.31 80.3952-39.59 80.3952-53.08C80.3952-60.47 77.4582-67.56 72.2312-72.79C67.0042-78.01 59.9132-80.95 52.5202-80.95ZM52.5202-78.75C59.3302-78.75 65.8612-76.04 70.6752-71.23C75.4902-66.42 78.1952-59.89 78.1952-53.08C78.1952-39.23 80.7492-28.59 85.0232-20.76L85.3272-20.21C86.6492-17.87 88.0522-15.95 89.4662-14.4L89.8162-14.02L15.2242-14.02L15.4902-14.3C17.1252-16.08 18.7372-18.34 20.2242-21.14C24.2972-28.8 26.7492-39.07 26.8422-52.3L26.8452-53.08C26.8452-59.89 29.5502-66.42 34.3652-71.23C39.1802-76.05 45.7112-78.75 52.5202-78.75Z"/>
  </g>
  <g id="Black-S" transform="matrix(1 0 0 1 2883.63 696)">
   <path class="hierarchical-0:secondary SFSymbolsPreview4D4D4D" d="M49.9314-7.632C51.9714-10.848 56.2014-11.898 59.5114-9.962C62.9014-7.984 64.0414-3.636 62.0614-0.25C60.8114 1.885 59.0314 3.655 56.9114 4.869C54.7714 6.105 52.3514 6.756 49.8714 6.756C47.4014 6.756 44.9714 6.105 42.8614 4.884C40.6914 3.647 38.9014 1.862 37.6614-0.294C35.7114-3.693 36.8814-8.033 40.2814-9.988C43.5414-11.859 47.6514-10.865 49.7114-7.793L49.8814-7.539L49.9314-7.632Z"/>
   <path class="hierarchical-1:primary SFSymbolsPreview212121" d="M14.2814-23.635L14.0514-23.469C8.71143-19.438 11.5014-10.732 18.3714-10.732L81.3714-10.732L81.6114-10.735C88.3014-10.931 90.9714-19.484 85.6914-23.469L85.4714-23.631C85.3214-23.757 85.1214-23.941 84.8814-24.191C84.0714-25.049 83.2014-26.234 82.3514-27.794C79.6614-32.735 77.9714-39.768 77.9714-49.332C77.9714-56.787 75.0114-63.934 69.7414-69.202C64.4714-74.472 57.3214-77.432 49.8714-77.432C42.4214-77.432 35.2714-74.472 30.0014-69.202C24.8414-64.048 21.9014-57.096 21.7714-49.817L21.7714-49.332C21.7714-39.768 20.0814-32.735 17.3914-27.794C16.5414-26.234 15.6714-25.049 14.8614-24.191C14.6214-23.941 14.4214-23.757 14.2814-23.635ZM49.8714-63.232C53.5614-63.232 57.0914-61.768 59.7014-59.16C62.3114-56.554 63.7714-53.02 63.7714-49.332L63.7714-48.577C63.8514-39.313 65.3114-31.596 67.8514-25.32L68.0114-24.932L31.7314-24.932L31.8914-25.32C34.5014-31.766 35.9714-39.731 35.9714-49.332C35.9714-53.02 37.4314-56.554 40.0414-59.159C42.6514-61.768 46.1814-63.232 49.8714-63.232Z"/>
  </g>
  <g id="Heavy-S" transform="matrix(1 0 0 1 2587.78 696)">
   <path class="hierarchical-0:secondary SFSymbolsPreview4D4D4D" d="M39.8466-9.251C42.8466-10.972 46.6666-9.941 48.3866-6.948C48.4466-6.847 48.5266-6.765 48.6566-6.693C48.7666-6.628 48.8866-6.595 49.0166-6.595C49.1466-6.595 49.2666-6.628 49.4066-6.705C49.5166-6.768 49.6066-6.861 49.6766-6.986C51.4266-9.966 55.2466-10.971 58.2266-9.229C61.2066-7.488 62.2166-3.66 60.4766-0.68C59.2966 1.328 57.6266 2.99 55.6366 4.133C53.6166 5.294 51.3466 5.905 49.0166 5.905C46.6866 5.905 44.4166 5.294 42.4266 4.145C40.3966 2.984 38.7166 1.307 37.5466-0.718C35.8266-3.71 36.8566-7.531 39.8466-9.251Z"/>
   <path class="hierarchical-1:primary SFSymbolsPreview212121" d="M49.0166-76.582C41.7866-76.582 34.8566-73.712 29.7466-68.601C24.7466-63.606 21.8966-56.869 21.7666-49.814L21.7666-49.332C21.7666-39.63 20.0466-32.457 17.2766-27.387C16.3966-25.762 15.4866-24.518 14.6166-23.607C14.5166-23.497 14.4166-23.398 14.3266-23.31L14.0766-23.076L13.9466-22.965L14.0466-23.032C8.90655-19.602 11.3366-11.582 17.5166-11.582L80.5166-11.582C86.5466-11.582 89.0066-19.216 84.3466-22.773L84.0766-22.969C84.0866-22.966 84.0866-22.965 84.0866-22.965L83.9566-23.076L83.7066-23.31C83.6166-23.398 83.5166-23.497 83.4166-23.607C82.5466-24.518 81.6366-25.762 80.7566-27.387C77.9866-32.457 76.2666-39.63 76.2666-49.332C76.2666-56.561 73.3966-63.492 68.2866-68.602C63.1766-73.712 56.2466-76.582 49.0166-76.582ZM49.0166-64.082C52.9266-64.082 56.6766-62.528 59.4466-59.761C62.2166-56.996 63.7666-53.246 63.7666-49.332L63.7666-48.586C63.8466-38.956 65.4366-31.039 68.1766-24.704L68.4466-24.082L29.5866-24.082L29.6266-24.179C32.5766-30.762 34.2666-39.094 34.2666-49.332C34.2666-53.246 35.8166-56.996 38.5866-59.76C41.3566-62.528 45.1066-64.082 49.0166-64.082Z"/>
  </g>
  <g id="Bold-S" transform="matrix(1 0 0 1 2292.02 696)">
   <path class="hierarchical-0:secondary SFSymbolsPreview4D4D4D" d="M49.5336-6.299C51.0136-8.826 54.2636-9.678 56.7836-8.201C59.3136-6.724 60.1636-3.478 58.6936-0.951C57.6036 0.905 56.0636 2.445 54.2036 3.518C52.3436 4.595 50.2136 5.163 48.0636 5.163C45.9036 5.163 43.7836 4.596 41.9136 3.518C40.0536 2.445 38.5136 0.905 37.4236-0.951C35.9536-3.478 36.8036-6.724 39.3336-8.201C41.8536-9.678 45.1036-8.826 46.5836-6.299C46.7336-6.028 46.9536-5.811 47.2136-5.662C47.4636-5.516 47.7636-5.437 48.0636-5.437C48.3536-5.437 48.6536-5.516 48.9036-5.662C49.1636-5.811 49.3836-6.028 49.5336-6.299Z"/>
   <path class="hierarchical-1:primary SFSymbolsPreview212121" d="M48.0636-75.426C41.0836-75.426 34.3836-72.652 29.4636-67.719C24.6436-62.905 21.8936-56.406 21.7636-49.601L21.7636-49.126C21.7636-39.27 20.0036-31.94 17.1636-26.726C16.2336-25.028 15.2736-23.717 14.3536-22.747C14.1236-22.506 13.9236-22.309 13.7436-22.154L13.5736-22.001L13.6236-22.036C9.26362-19.127 11.3236-12.326 16.5636-12.326L79.5636-12.326C84.6636-12.326 86.7436-18.749 82.8536-21.781L82.5536-22.007L82.5036-22.046C82.3036-22.213 82.0536-22.445 81.7736-22.747C80.8536-23.717 79.8936-25.028 78.9636-26.726C76.1236-31.94 74.3636-39.27 74.3636-49.126C74.3636-56.099 71.5836-62.79 66.6536-67.723C61.7336-72.651 55.0336-75.426 48.0636-75.426ZM48.0636-64.826C52.2236-64.826 56.2236-63.169 59.1536-60.231C62.1036-57.279 63.7636-53.284 63.7636-49.126L63.7636-48.39C63.8536-38.142 65.6536-29.887 68.7436-23.451L68.9936-22.926L27.1336-22.926L27.1636-22.984C30.4536-29.637 32.3636-38.284 32.3636-49.126C32.3636-53.291 34.0136-57.284 36.9636-60.226C39.8936-63.17 43.8936-64.826 48.0636-64.826Z"/>
  </g>
  <g id="Semibold-S" transform="matrix(1 0 0 1 1995.96 696)">
   <path class="hierarchical-0:secondary SFSymbolsPreview4D4D4D" d="M49.4659-5.973C50.7559-8.19 53.6059-8.937 55.8259-7.641C58.0359-6.346 58.7859-3.498 57.4859-1.28C56.4559 0.486 54.9859 1.948 53.2259 2.953C51.4659 3.974 49.4559 4.511 47.4159 4.511C45.3759 4.511 43.3659 3.974 41.6159 2.963C39.8359 1.942 38.3559 0.47 37.3359-1.309C36.0559-3.535 36.8259-6.378 39.0459-7.658C41.2759-8.938 44.1159-8.171 45.3959-5.944C45.5959-5.597 45.8859-5.311 46.2459-5.101C46.6059-4.895 47.0059-4.789 47.4159-4.789C47.8259-4.789 48.2259-4.895 48.5959-5.11C48.9559-5.313 49.2459-5.607 49.4659-5.973Z"/>
   <path class="hierarchical-1:primary SFSymbolsPreview212121" d="M47.4159-74.777C40.6159-74.777 34.0959-72.075 29.2759-67.265C24.5759-62.566 21.8859-56.227 21.7659-49.591L21.7659-49.127C21.7659-39.165 19.9759-31.728 17.0859-26.417C16.1259-24.668 15.1359-23.312 14.1759-22.302L13.9459-22.064L13.7559-21.869L13.4659-21.603L13.3559-21.509L13.3359-21.496C9.50587-18.944 11.3159-12.977 15.9159-12.977L78.9159-12.977C83.4459-12.977 85.2659-18.762 81.6659-21.376L81.4759-21.509L81.3659-21.603L81.1659-21.787L80.9859-21.961L80.7659-22.177C80.7359-22.217 80.6959-22.259 80.6459-22.302C79.6959-23.312 78.7059-24.668 77.7459-26.417C74.8459-31.728 73.0659-39.165 73.0659-49.127C73.0659-55.932 70.3659-62.456 65.5559-67.265C60.7359-72.075 54.2159-74.777 47.4159-74.777ZM47.4159-65.477C51.7559-65.477 55.9059-63.755 58.9759-60.687C62.0459-57.623 63.7659-53.465 63.7659-49.127L63.7659-48.398C63.8559-37.76 65.8159-29.312 69.1159-22.843L69.4159-22.277L25.4159-22.277L25.7059-22.833C29.0959-29.451 31.0659-38.14 31.0659-49.127C31.0659-53.465 32.7859-57.623 35.8559-60.687C38.9259-63.755 43.0759-65.477 47.4159-65.477Z"/>
  </g>
  <g id="Medium-S" transform="matrix(1 0 0 1 1699.75 696)">
   <path class="hierarchical-0:secondary SFSymbolsPreview4D4D4D" d="M49.3951-5.72C50.5451-7.699 53.0851-8.366 55.0651-7.21C57.0451-6.053 57.7151-3.512 56.5551-1.533C55.5651 0.158 54.1651 1.557 52.4851 2.52C50.7851 3.497 48.8751 4.011 46.9151 4.011C44.9551 4.011 43.0451 3.497 41.3651 2.529C39.6551 1.552 38.2451 0.144 37.2651-1.558C36.1251-3.545 36.8051-6.082 38.7951-7.224C40.7251-8.331 43.1651-7.723 44.3551-5.878L44.4651-5.695C44.7051-5.271 45.0551-4.921 45.5051-4.668C45.9351-4.419 46.4151-4.289 46.9151-4.289C47.4151-4.289 47.8951-4.419 48.3451-4.676C48.7151-4.887 49.0351-5.18 49.2751-5.537L49.3951-5.72Z"/>
   <path class="hierarchical-1:primary SFSymbolsPreview212121" d="M80.8851-20.966L80.7351-21.072L80.6251-21.164C80.3851-21.36 80.1051-21.623 79.7851-21.958C78.8051-22.999 77.7851-24.39 76.8051-26.177C73.8651-31.564 72.0651-39.084 72.0651-49.127C72.0651-55.799 69.4151-62.197 64.6951-66.912C59.9751-71.628 53.5851-74.277 46.9151-74.277C40.2451-74.277 33.8451-71.628 29.1351-66.912C24.5251-62.306 21.8851-56.096 21.7651-49.592L21.7651-49.127C21.7651-39.084 19.9651-31.564 17.0251-26.177C16.0451-24.39 15.0251-22.999 14.0451-21.958C13.7851-21.69 13.5551-21.468 13.3551-21.29L13.0951-21.072L13.1151-21.08C9.69509-18.803 11.3051-13.477 15.4151-13.477L78.4151-13.477C82.4551-13.477 84.0751-18.63 80.8851-20.966ZM46.9151-65.977C51.3851-65.977 55.6651-64.202 58.8351-61.041C61.9951-57.883 63.7651-53.598 63.7651-49.127L63.7651-48.388C63.8551-37.348 65.9751-28.702 69.5251-22.203L69.7551-21.777L24.0751-21.777L24.3051-22.203C27.9351-28.846 30.0651-37.733 30.0651-49.127C30.0651-53.598 31.8351-57.883 34.9951-61.041C38.1651-64.202 42.4451-65.977 46.9151-65.977Z"/>
  </g>
  <g id="Regular-S" transform="matrix(1 0 0 1 1403.69 696)">
   <path class="hierarchical-0:secondary SFSymbolsPreview4D4D4D" d="M38.4703-6.661C40.0803-7.591 42.1303-7.085 43.1403-5.54L43.2403-5.371C43.5503-4.846 43.9803-4.414 44.5203-4.104C45.0503-3.798 45.6503-3.638 46.2603-3.638C46.8703-3.638 47.4703-3.798 48.0103-4.112C48.4803-4.377 48.8703-4.746 49.1703-5.195L49.3003-5.392C50.2703-7.061 52.4203-7.623 54.0903-6.648C55.7503-5.673 56.3203-3.529 55.3403-1.861C54.4103-0.267 53.0903 1.05 51.5003 1.958C49.9103 2.878 48.1003 3.362 46.2603 3.362C44.4203 3.362 42.6103 2.878 41.0303 1.965C39.4203 1.045 38.1003-0.28 37.1803-1.882C36.2103-3.558 36.7903-5.697 38.4703-6.661Z"/>
   <path class="hierarchical-1:primary SFSymbolsPreview212121" d="M79.8503-20.434L79.6803-20.56L79.5503-20.664C79.3003-20.876 79.0003-21.157 78.6603-21.511C77.6403-22.592 76.5803-24.029 75.5803-25.865C72.5903-31.351 70.7603-38.978 70.7603-49.127C70.7603-55.626 68.1803-61.858 63.5803-66.451C58.9903-71.046 52.7603-73.627 46.2603-73.627C39.7603-73.627 33.5303-71.046 28.9403-66.451C24.4503-61.965 21.8803-55.915 21.7603-49.58L21.7603-49.127C21.7603-38.978 19.9303-31.351 16.9403-25.865C15.9403-24.029 14.8803-22.592 13.8603-21.511C13.5903-21.228 13.3503-20.992 13.1303-20.8L12.8203-20.539C9.9403-18.618 11.3003-14.127 14.7603-14.127L77.7603-14.127C81.1603-14.127 82.5303-18.459 79.8503-20.434ZM46.2603-66.627C50.9003-66.627 55.3503-64.783 58.6403-61.5C61.9203-58.221 63.7603-53.77 63.7603-49.127C63.7603-37.839 65.8703-29.059 69.4403-22.513L69.7203-22.012C69.8103-21.847 69.9003-21.684 70.0003-21.523L70.2403-21.127L22.2803-21.127L22.5203-21.523C22.7103-21.844 22.9003-22.174 23.0803-22.513C26.6503-29.059 28.7603-37.839 28.7603-49.127C28.7603-53.77 30.6003-58.221 33.8803-61.5C37.1703-64.783 41.6203-66.627 46.2603-66.627Z"/>
  </g>
  <g id="Light-S" transform="matrix(1 0 0 1 1107.78 696)">
   <path class="hierarchical-0:secondary SFSymbolsPreview4D4D4D" d="M38.0612-5.966C39.3112-6.68 40.8812-6.298 41.6612-5.123L41.7512-4.971C42.1212-4.324 42.6612-3.789 43.3212-3.411C43.9712-3.035 44.7112-2.838 45.4612-2.838C46.2112-2.838 46.9512-3.035 47.6112-3.416C48.1912-3.748 48.6812-4.211 49.0512-4.773L49.1912-4.988C49.9412-6.275 51.5912-6.709 52.8812-5.957C54.1712-5.205 54.6012-3.551 53.8512-2.263C52.9912-0.791 51.7712 0.426 50.3012 1.266C48.8312 2.115 47.1612 2.562 45.4612 2.562C43.7612 2.562 42.0912 2.115 40.6312 1.271C39.1512 0.422 37.9212-0.801 37.0712-2.28C36.3312-3.573 36.7712-5.223 38.0612-5.966Z"/>
   <path class="hierarchical-1:primary SFSymbolsPreview212121" d="M45.4612-72.826C39.1712-72.826 33.1512-70.329 28.7012-65.885C24.3612-61.55 21.8812-55.707 21.7612-49.586L21.7612-49.126C21.7612-38.847 19.9012-31.088 16.8412-25.482C15.8012-23.583 14.7112-22.091 13.6412-20.96L13.3612-20.668C13.3112-20.624 13.2712-20.581 13.2312-20.54L12.9912-20.317L12.7912-20.137L12.5612-19.947L12.4612-19.873C10.2412-18.391 11.2912-14.926 13.9612-14.926L76.9612-14.926C79.5712-14.926 80.6312-18.245 78.6012-19.775L78.4112-19.905L78.2112-20.063C78.1812-20.086 78.1612-20.111 78.1312-20.137L77.9312-20.317L77.6912-20.54L77.4212-20.808C77.3812-20.857 77.3312-20.907 77.2812-20.96C76.2112-22.091 75.1212-23.583 74.0812-25.482C71.0212-31.088 69.1612-38.847 69.1612-49.126C69.1612-55.413 66.6612-61.442 62.2212-65.885C57.7712-70.329 51.7412-72.826 45.4612-72.826ZM45.4612-67.426C50.3112-67.426 54.9712-65.498 58.4012-62.065C61.8312-58.636 63.7612-53.981 63.7612-49.126C63.7612-37.968 65.8412-29.32 69.3412-22.896L69.6112-22.407C69.9812-21.764 70.3512-21.157 70.7312-20.585L70.9012-20.326L20.0212-20.326L20.1912-20.585C20.6712-21.3 21.1312-22.07 21.5812-22.896C25.0812-29.32 27.1612-37.968 27.1612-49.126C27.1612-53.981 29.0912-58.636 32.5212-62.065C35.9512-65.498 40.6112-67.426 45.4612-67.426Z"/>
  </g>
  <g id="Thin-S" transform="matrix(1 0 0 1 812.119 696)">
   <path class="hierarchical-0:secondary SFSymbolsPreview4D4D4D" d="M49.0365-4.455C49.4935-5.243 50.5035-5.512 51.2915-5.055C52.0805-4.598 52.3485-3.588 51.8915-2.8C51.1315-1.488 50.0405-0.401 48.7265 0.356C47.4125 1.112 45.9235 1.511 44.4095 1.511C42.8955 1.511 41.4065 1.112 40.0915 0.356C38.7785-0.401 37.6865-1.489 36.9265-2.8C36.4695-3.588 36.7385-4.598 37.5265-5.055C38.3155-5.512 39.3245-5.243 39.7815-4.455C40.2515-3.645 40.9265-2.972 41.7385-2.504C42.5525-2.036 43.4735-1.789 44.4095-1.789C45.3455-1.789 46.2665-2.036 47.0805-2.504C47.8925-2.972 48.5675-3.644 49.0365-4.455Z"/>
   <path class="hierarchical-1:primary SFSymbolsPreview212121" d="M44.4095-71.777C38.4025-71.777 32.6415-69.391 28.3935-65.143C24.2525-61.002 21.8795-55.422 21.7635-49.577L21.7595-49.127C21.7595-38.677 19.8555-30.746 16.7105-24.98C15.6315-23.001 14.4855-21.435 13.3525-20.239C13.0435-19.913 12.7565-19.637 12.4955-19.407L12.2245-19.178L11.9945-19C10.6355-18.095 11.2765-15.977 12.9095-15.977L75.9095-15.977C77.4925-15.977 78.1435-17.968 76.9425-18.915L76.7205-19.077L76.5945-19.178L76.5145-19.244C76.2045-19.502 75.8525-19.832 75.4665-20.239C74.3335-21.435 73.1875-23.001 72.1075-24.98C68.9625-30.746 67.0595-38.677 67.0595-49.127C67.0595-55.135 64.6735-60.896 60.4255-65.143C56.1775-69.391 50.4165-71.777 44.4095-71.777ZM44.4095-68.477C49.5415-68.477 54.4625-66.439 58.0915-62.81C61.7205-59.181 63.7595-54.259 63.7595-49.127C63.7595-38.14 65.7935-29.665 69.2105-23.4L69.4735-22.928C70.1765-21.688 70.9105-20.589 71.6575-19.624L71.9305-19.277L16.8875-19.277L17.1615-19.624C18.0025-20.71 18.8255-21.965 19.6075-23.4C22.9515-29.529 24.9705-37.773 25.0565-48.414L25.0595-49.127C25.0595-54.259 27.0985-59.181 30.7275-62.809C34.3565-66.439 39.2775-68.477 44.4095-68.477Z"/>
  </g>
  <g id="Ultralight-S" transform="matrix(1 0 0 1 515.959 696)">
   <path class="hierarchical-0:secondary SFSymbolsPreview4D4D4D" d="M48.9612-4.178C49.2662-4.704 49.9392-4.883 50.4652-4.578C50.9902-4.273 51.1692-3.6 50.8652-3.075C50.1542-1.848 49.1312-0.829 47.9012-0.12C46.6702 0.588 45.2762 0.962 43.8582 0.962C42.4402 0.962 41.0462 0.588 39.8152-0.12C38.5852-0.828 37.5632-1.847 36.8512-3.075C36.5472-3.6 36.7262-4.273 37.2512-4.578C37.7772-4.883 38.4502-4.704 38.7552-4.178C39.2732-3.284 40.0172-2.543 40.9132-2.027C41.8102-1.51 42.8262-1.238 43.8582-1.238C44.8902-1.238 45.9062-1.51 46.8032-2.026C47.6992-2.543 48.4442-3.285 48.9612-4.178Z"/>
   <path class="hierarchical-1:primary SFSymbolsPreview212121" d="M43.8582-71.227C37.9972-71.227 32.3762-68.898 28.2312-64.753C24.1932-60.716 21.8792-55.275 21.7632-49.577L21.7582-49.127C21.7582-38.587 19.8332-30.565 16.6422-24.716C15.5402-22.695 14.3662-21.09 13.2002-19.86C12.8802-19.521 12.5802-19.233 12.3062-18.992L12.0182-18.748L11.8212-18.595L11.7482-18.542C10.8422-17.938 11.2702-16.527 12.3582-16.527L75.3582-16.527C76.4062-16.527 76.8412-17.835 76.0632-18.472L75.8942-18.595L75.6982-18.748L75.6112-18.82C75.2852-19.092 74.9172-19.437 74.5162-19.86C73.3502-21.09 72.1762-22.695 71.0742-24.716C67.8832-30.565 65.9582-38.587 65.9582-49.127C65.9582-54.988 63.6302-60.61 59.4852-64.753C55.3402-68.898 49.7192-71.227 43.8582-71.227ZM43.8582-69.027C49.1362-69.027 54.1972-66.93 57.9292-63.198C61.6612-59.467 63.7582-54.405 63.7582-49.127C63.7582-38.229 65.7702-29.844 69.1422-23.662L69.4202-23.165C70.3492-21.531 71.3292-20.151 72.3222-19.006L72.5692-18.727L15.1462-18.727L15.3942-19.006C16.4862-20.265 17.5632-21.809 18.5742-23.662C21.8722-29.71 23.8702-37.865 23.9552-48.419L23.9582-49.127C23.9582-54.405 26.0552-59.467 29.7872-63.198C33.5192-66.93 38.5802-69.027 43.8582-69.027Z"/>
  </g>
 </g>
</svg>
