<?xml version="1.0" encoding="UTF-8"?>
<!--Generator: Apple Native CoreSVG 175-->
<!DOCTYPE svg
PUBLIC "-//W3C//DTD SVG 1.1//EN"
       "http://www.w3.org/Graphics/SVG/1.1/DTD/svg11.dtd">
<svg version="1.1" xmlns="http://www.w3.org/2000/svg" xmlns:xlink="http://www.w3.org/1999/xlink" width="3300" height="2200">
 <!--glyph: "", point size: 100.0, font version: "17.0d12e1", template writer version: "65.1"-->
 <g id="Notes">
  <rect height="2200" id="artboard" style="fill:white;opacity:1" width="3300" x="0" y="0"/>
  <line style="fill:none;stroke:black;opacity:1;stroke-width:0.5;" x1="263" x2="3036" y1="292" y2="292"/>
  <text style="stroke:none;fill:black;font-family:sans-serif;font-size:13;font-weight:bold;" transform="matrix(1 0 0 1 263 322)">Weight/Scale Variations</text>
  <text style="stroke:none;fill:black;font-family:sans-serif;font-size:13;text-anchor:middle;" transform="matrix(1 0 0 1 559.711 322)">Ultralight</text>
  <text style="stroke:none;fill:black;font-family:sans-serif;font-size:13;text-anchor:middle;" transform="matrix(1 0 0 1 856.422 322)">Thin</text>
  <text style="stroke:none;fill:black;font-family:sans-serif;font-size:13;text-anchor:middle;" transform="matrix(1 0 0 1 1153.13 322)">Light</text>
  <text style="stroke:none;fill:black;font-family:sans-serif;font-size:13;text-anchor:middle;" transform="matrix(1 0 0 1 1449.84 322)">Regular</text>
  <text style="stroke:none;fill:black;font-family:sans-serif;font-size:13;text-anchor:middle;" transform="matrix(1 0 0 1 1746.56 322)">Medium</text>
  <text style="stroke:none;fill:black;font-family:sans-serif;font-size:13;text-anchor:middle;" transform="matrix(1 0 0 1 2043.27 322)">Semibold</text>
  <text style="stroke:none;fill:black;font-family:sans-serif;font-size:13;text-anchor:middle;" transform="matrix(1 0 0 1 2339.98 322)">Bold</text>
  <text style="stroke:none;fill:black;font-family:sans-serif;font-size:13;text-anchor:middle;" transform="matrix(1 0 0 1 2636.69 322)">Heavy</text>
  <text style="stroke:none;fill:black;font-family:sans-serif;font-size:13;text-anchor:middle;" transform="matrix(1 0 0 1 2933.4 322)">Black</text>
  <line style="fill:none;stroke:black;opacity:1;stroke-width:0.5;" x1="263" x2="3036" y1="1903" y2="1903"/>
  <g transform="matrix(1 0 0 1 263 1933)">
   <path d="M9.24805 0.830078Q10.8691 0.830078 12.2949 0.214844Q13.7207-0.400391 14.8096-1.49414Q15.8984-2.58789 16.5186-4.01367Q17.1387-5.43945 17.1387-7.05078Q17.1387-8.66211 16.5186-10.0879Q15.8984-11.5137 14.8047-12.6074Q13.7109-13.7012 12.2852-14.3164Q10.8594-14.9316 9.23828-14.9316Q7.62695-14.9316 6.20117-14.3164Q4.77539-13.7012 3.69141-12.6074Q2.60742-11.5137 1.9873-10.0879Q1.36719-8.66211 1.36719-7.05078Q1.36719-5.43945 1.9873-4.01367Q2.60742-2.58789 3.69629-1.49414Q4.78516-0.400391 6.21094 0.214844Q7.63672 0.830078 9.24805 0.830078ZM9.24805-0.654297Q7.91992-0.654297 6.7627-1.14746Q5.60547-1.64062 4.73145-2.51953Q3.85742-3.39844 3.36426-4.56055Q2.87109-5.72266 2.87109-7.05078Q2.87109-8.37891 3.35938-9.54102Q3.84766-10.7031 4.72168-11.582Q5.5957-12.4609 6.75293-12.9541Q7.91016-13.4473 9.23828-13.4473Q10.5762-13.4473 11.7334-12.9541Q12.8906-12.4609 13.7695-11.582Q14.6484-10.7031 15.1465-9.54102Q15.6445-8.37891 15.6445-7.05078Q15.6445-5.72266 15.1514-4.56055Q14.6582-3.39844 13.7842-2.51953Q12.9102-1.64062 11.748-1.14746Q10.5859-0.654297 9.24805-0.654297ZM5.6543-7.05078Q5.6543-6.72852 5.85938-6.52832Q6.06445-6.32812 6.40625-6.32812L8.51562-6.32812L8.51562-4.20898Q8.51562-3.88672 8.71094-3.67676Q8.90625-3.4668 9.23828-3.4668Q9.56055-3.4668 9.77051-3.67676Q9.98047-3.88672 9.98047-4.20898L9.98047-6.32812L12.0898-6.32812Q12.4219-6.32812 12.627-6.52832Q12.832-6.72852 12.832-7.05078Q12.832-7.38281 12.627-7.58789Q12.4219-7.79297 12.0898-7.79297L9.98047-7.79297L9.98047-9.90234Q9.98047-10.2344 9.77051-10.4443Q9.56055-10.6543 9.23828-10.6543Q8.90625-10.6543 8.71094-10.4443Q8.51562-10.2344 8.51562-9.90234L8.51562-7.79297L6.40625-7.79297Q6.06445-7.79297 5.85938-7.58789Q5.6543-7.38281 5.6543-7.05078Z"/>
  </g>
  <g transform="matrix(1 0 0 1 281.867 1933)">
   <path d="M11.709 2.91016Q13.75 2.91016 15.5518 2.12891Q17.3535 1.34766 18.7305-0.0292969Q20.1074-1.40625 20.8887-3.20801Q21.6699-5.00977 21.6699-7.05078Q21.6699-9.0918 20.8887-10.8936Q20.1074-12.6953 18.7305-14.0723Q17.3535-15.4492 15.5469-16.2305Q13.7402-17.0117 11.6992-17.0117Q9.6582-17.0117 7.85645-16.2305Q6.05469-15.4492 4.68262-14.0723Q3.31055-12.6953 2.5293-10.8936Q1.74805-9.0918 1.74805-7.05078Q1.74805-5.00977 2.5293-3.20801Q3.31055-1.40625 4.6875-0.0292969Q6.06445 1.34766 7.86621 2.12891Q9.66797 2.91016 11.709 2.91016ZM11.709 1.25Q9.98047 1.25 8.47656 0.605469Q6.97266-0.0390625 5.83496-1.17676Q4.69727-2.31445 4.05762-3.81836Q3.41797-5.32227 3.41797-7.05078Q3.41797-8.7793 4.05762-10.2832Q4.69727-11.7871 5.83008-12.9297Q6.96289-14.0723 8.4668-14.7119Q9.9707-15.3516 11.6992-15.3516Q13.4277-15.3516 14.9316-14.7119Q16.4355-14.0723 17.5781-12.9297Q18.7207-11.7871 19.3652-10.2832Q20.0098-8.7793 20.0098-7.05078Q20.0098-5.32227 19.3701-3.81836Q18.7305-2.31445 17.5928-1.17676Q16.4551-0.0390625 14.9463 0.605469Q13.4375 1.25 11.709 1.25ZM7.17773-7.05078Q7.17773-6.69922 7.41211-6.47461Q7.64648-6.25 8.01758-6.25L10.8887-6.25L10.8887-3.36914Q10.8887-2.99805 11.1133-2.76855Q11.3379-2.53906 11.6895-2.53906Q12.0605-2.53906 12.29-2.76855Q12.5195-2.99805 12.5195-3.36914L12.5195-6.25L15.4004-6.25Q15.7715-6.25 16.001-6.47461Q16.2305-6.69922 16.2305-7.05078Q16.2305-7.42188 16.001-7.65137Q15.7715-7.88086 15.4004-7.88086L12.5195-7.88086L12.5195-10.752Q12.5195-11.1328 12.29-11.3623Q12.0605-11.5918 11.6895-11.5918Q11.3379-11.5918 11.1133-11.3574Q10.8887-11.123 10.8887-10.752L10.8887-7.88086L8.01758-7.88086Q7.63672-7.88086 7.40723-7.65137Q7.17773-7.42188 7.17773-7.05078Z"/>
  </g>
  <g transform="matrix(1 0 0 1 305.646 1933)">
   <path d="M14.9707 5.66406Q17.0605 5.66406 18.96 5.01465Q20.8594 4.36523 22.4512 3.19336Q24.043 2.02148 25.2197 0.429688Q26.3965-1.16211 27.0459-3.06641Q27.6953-4.9707 27.6953-7.05078Q27.6953-9.14062 27.0459-11.04Q26.3965-12.9395 25.2197-14.5312Q24.043-16.123 22.4512-17.2998Q20.8594-18.4766 18.9551-19.126Q17.0508-19.7754 14.9609-19.7754Q12.8711-19.7754 10.9717-19.126Q9.07227-18.4766 7.48535-17.2998Q5.89844-16.123 4.72168-14.5312Q3.54492-12.9395 2.90039-11.04Q2.25586-9.14062 2.25586-7.05078Q2.25586-4.9707 2.90527-3.06641Q3.55469-1.16211 4.72656 0.429688Q5.89844 2.02148 7.49023 3.19336Q9.08203 4.36523 10.9814 5.01465Q12.8809 5.66406 14.9707 5.66406ZM14.9707 3.84766Q13.1641 3.84766 11.5283 3.2959Q9.89258 2.74414 8.53516 1.74805Q7.17773 0.751953 6.17676-0.610352Q5.17578-1.97266 4.62891-3.6084Q4.08203-5.24414 4.08203-7.05078Q4.08203-8.86719 4.62891-10.5029Q5.17578-12.1387 6.17188-13.501Q7.16797-14.8633 8.52539-15.8594Q9.88281-16.8555 11.5186-17.4023Q13.1543-17.9492 14.9609-17.9492Q16.7773-17.9492 18.4131-17.4023Q20.0488-16.8555 21.4111-15.8594Q22.7734-14.8633 23.7695-13.501Q24.7656-12.1387 25.3174-10.5029Q25.8691-8.86719 25.8691-7.05078Q25.8789-5.24414 25.332-3.6084Q24.7852-1.97266 23.7842-0.610352Q22.7832 0.751953 21.4209 1.74805Q20.0586 2.74414 18.4229 3.2959Q16.7871 3.84766 14.9707 3.84766ZM9.19922-7.05078Q9.19922-6.66992 9.45801-6.4209Q9.7168-6.17188 10.1172-6.17188L14.0625-6.17188L14.0625-2.2168Q14.0625-1.81641 14.3115-1.55762Q14.5605-1.29883 14.9512-1.29883Q15.3516-1.29883 15.6104-1.55273Q15.8691-1.80664 15.8691-2.2168L15.8691-6.17188L19.8242-6.17188Q20.2246-6.17188 20.4785-6.4209Q20.7324-6.66992 20.7324-7.05078Q20.7324-7.46094 20.4785-7.71484Q20.2246-7.96875 19.8242-7.96875L15.8691-7.96875L15.8691-11.9141Q15.8691-12.3242 15.6104-12.583Q15.3516-12.8418 14.9512-12.8418Q14.5605-12.8418 14.3115-12.583Q14.0625-12.3242 14.0625-11.9141L14.0625-7.96875L10.1172-7.96875Q9.70703-7.96875 9.45312-7.71484Q9.19922-7.46094 9.19922-7.05078Z"/>
  </g>
  <text style="stroke:none;fill:black;font-family:sans-serif;font-size:13;font-weight:bold;" transform="matrix(1 0 0 1 263 1953)">Design Variations</text>
  <text style="stroke:none;fill:black;font-family:sans-serif;font-size:13;" transform="matrix(1 0 0 1 263 1971)">Symbols are supported in up to nine weights and three scales.</text>
  <text style="stroke:none;fill:black;font-family:sans-serif;font-size:13;" transform="matrix(1 0 0 1 263 1989)">For optimal layout with text and other symbols, vertically align</text>
  <text style="stroke:none;fill:black;font-family:sans-serif;font-size:13;" transform="matrix(1 0 0 1 263 2007)">symbols with the adjacent text.</text>
  <line style="fill:none;stroke:#00AEEF;stroke-width:0.5;opacity:1.0;" x1="776" x2="776" y1="1919" y2="1933"/>
  <g transform="matrix(1 0 0 1 776 1933)">
   <path d="M3.31055 0.15625Q3.70117 0.15625 3.91602-0.00976562Q4.13086-0.175781 4.26758-0.585938L5.52734-4.0332L11.2891-4.0332L12.5488-0.585938Q12.6855-0.175781 12.9004-0.00976562Q13.1152 0.15625 13.4961 0.15625Q13.8867 0.15625 14.1162-0.0585938Q14.3457-0.273438 14.3457-0.644531Q14.3457-0.869141 14.2383-1.17188L9.6582-13.3691Q9.48242-13.8184 9.17969-14.043Q8.87695-14.2676 8.4082-14.2676Q7.5-14.2676 7.17773-13.3789L2.59766-1.16211Q2.49023-0.859375 2.49023-0.634766Q2.49023-0.263672 2.70996-0.0537109Q2.92969 0.15625 3.31055 0.15625ZM6.00586-5.51758L8.37891-12.0898L8.42773-12.0898L10.8008-5.51758Z"/>
  </g>
  <line style="fill:none;stroke:#00AEEF;stroke-width:0.5;opacity:1.0;" x1="793.197" x2="793.197" y1="1919" y2="1933"/>
  <text style="stroke:none;fill:black;font-family:sans-serif;font-size:13;font-weight:bold;" transform="matrix(1 0 0 1 776 1953)">Margins</text>
  <text style="stroke:none;fill:black;font-family:sans-serif;font-size:13;" transform="matrix(1 0 0 1 776 1971)">Leading and trailing margins on the left and right side of each symbol</text>
  <text style="stroke:none;fill:black;font-family:sans-serif;font-size:13;" transform="matrix(1 0 0 1 776 1989)">can be adjusted by modifying the x-location of the margin guidelines.</text>
  <text style="stroke:none;fill:black;font-family:sans-serif;font-size:13;" transform="matrix(1 0 0 1 776 2007)">Modifications are automatically applied proportionally to all</text>
  <text style="stroke:none;fill:black;font-family:sans-serif;font-size:13;" transform="matrix(1 0 0 1 776 2025)">scales and weights.</text>
  <g transform="matrix(1 0 0 1 1289 1933)">
   <path d="M2.8418 1.86523L4.54102 3.57422Q5.18555 4.22852 5.90332 4.17969Q6.62109 4.13086 7.31445 3.35938L18.0078-8.42773L17.041-9.4043L6.42578 2.27539Q6.16211 2.57812 5.89355 2.61719Q5.625 2.65625 5.27344 2.30469L4.10156 1.14258Q3.75 0.791016 3.79395 0.522461Q3.83789 0.253906 4.14062-0.0195312L15.6152-10.8203L14.6387-11.7871L3.04688-0.898438Q2.30469-0.214844 2.25098 0.498047Q2.19727 1.21094 2.8418 1.86523ZM9.25781-16.3281Q8.94531-16.0254 8.90625-15.6348Q8.86719-15.2441 9.04297-14.9512Q9.21875-14.6777 9.55566-14.541Q9.89258-14.4043 10.3809-14.5215Q11.4746-14.7754 12.5977-14.7314Q13.7207-14.6875 14.7949-13.9844L14.209-12.5293Q13.9551-11.9043 14.0674-11.4404Q14.1797-10.9766 14.5801-10.5664L16.875-8.25195Q17.2363-7.88086 17.5781-7.82227Q17.9199-7.76367 18.3398-7.8418L19.4043-8.03711L20.0684-7.36328L20.0293-6.80664Q20-6.43555 20.1221-6.12305Q20.2441-5.81055 20.6055-5.44922L21.3672-4.70703Q21.7285-4.3457 22.1533-4.33105Q22.5781-4.31641 22.9297-4.66797L25.8398-7.58789Q26.1914-7.93945 26.1816-8.35449Q26.1719-8.76953 25.8105-9.13086L25.0391-9.89258Q24.6875-10.2539 24.3799-10.3857Q24.0723-10.5176 23.7109-10.4883L23.1348-10.4395L22.4902-11.0742L22.7344-12.1973Q22.832-12.6172 22.6953-12.9834Q22.5586-13.3496 22.1191-13.7891L19.9219-15.9766Q18.6719-17.2168 17.2607-17.8369Q15.8496-18.457 14.4189-18.4814Q12.9883-18.5059 11.665-17.959Q10.3418-17.4121 9.25781-16.3281ZM10.752-15.957Q11.6602-16.6211 12.7002-16.9043Q13.7402-17.1875 14.8047-17.085Q15.8691-16.9824 16.8701-16.5137Q17.8711-16.0449 18.7012-15.2051L21.1328-12.793Q21.3086-12.6172 21.3525-12.4512Q21.3965-12.2852 21.3379-12.0312L21.0156-10.5469L22.5195-9.0625L23.5059-9.12109Q23.6914-9.13086 23.7891-9.09668Q23.8867-9.0625 24.0332-8.91602L24.6094-8.33984L22.168-5.89844L21.5918-6.47461Q21.4453-6.62109 21.4062-6.71875Q21.3672-6.81641 21.377-7.01172L21.4453-7.98828L19.9512-9.47266L18.4277-9.21875Q18.1836-9.16992 18.042-9.2041Q17.9004-9.23828 17.7148-9.41406L15.7129-11.416Q15.5176-11.5918 15.4932-11.7529Q15.4688-11.9141 15.5859-12.1875L16.4648-14.2773Q15.293-15.3711 13.8281-15.791Q12.3633-16.2109 10.8398-15.7617Q10.7227-15.7324 10.6885-15.8057Q10.6543-15.8789 10.752-15.957Z"/>
  </g>
  <text style="stroke:none;fill:black;font-family:sans-serif;font-size:13;font-weight:bold;" transform="matrix(1 0 0 1 1289 1953)">Exporting</text>
  <text style="stroke:none;fill:black;font-family:sans-serif;font-size:13;" transform="matrix(1 0 0 1 1289 1971)">Symbols should be outlined when exporting to ensure the</text>
  <text style="stroke:none;fill:black;font-family:sans-serif;font-size:13;" transform="matrix(1 0 0 1 1289 1989)">design is preserved when submitting to Xcode.</text>
  <text id="template-version" style="stroke:none;fill:black;font-family:sans-serif;font-size:13;text-anchor:end;" transform="matrix(1 0 0 1 3036 1933)">Template v.3.0</text>
  <text style="stroke:none;fill:black;font-family:sans-serif;font-size:13;text-anchor:end;" transform="matrix(1 0 0 1 3036 1951)">Requires Xcode 13 or greater</text>
  <text id="descriptive-name" style="stroke:none;fill:black;font-family:sans-serif;font-size:13;text-anchor:end;" transform="matrix(1 0 0 1 3036 1969)">Generated from arrow-right</text>
  <text style="stroke:none;fill:black;font-family:sans-serif;font-size:13;text-anchor:end;" transform="matrix(1 0 0 1 3036 1987)">Typeset at 100 points</text>
  <text style="stroke:none;fill:black;font-family:sans-serif;font-size:13;" transform="matrix(1 0 0 1 263 726)">Small</text>
  <text style="stroke:none;fill:black;font-family:sans-serif;font-size:13;" transform="matrix(1 0 0 1 263 1156)">Medium</text>
  <text style="stroke:none;fill:black;font-family:sans-serif;font-size:13;" transform="matrix(1 0 0 1 263 1586)">Large</text>
 </g>
 <g id="Guides">
  <g id="H-reference" style="fill:#27AAE1;stroke:none;" transform="matrix(1 0 0 1 339 696)">
   <path d="M0.976562 0L3.66211 0L29.3457-67.1387L30.0293-67.1387L30.0293-70.459L28.125-70.459ZM11.6699-24.4629L46.9727-24.4629L46.2402-26.709L12.4512-26.709ZM55.127 0L57.7637 0L30.6152-70.459L29.4434-70.459L29.4434-67.1387Z"/>
  </g>
  <line id="Baseline-S" style="fill:none;stroke:#27AAE1;opacity:1;stroke-width:0.5;" x1="263" x2="3036" y1="696" y2="696"/>
  <line id="Capline-S" style="fill:none;stroke:#27AAE1;opacity:1;stroke-width:0.5;" x1="263" x2="3036" y1="625.541" y2="625.541"/>
  <g id="H-reference" style="fill:#27AAE1;stroke:none;" transform="matrix(1 0 0 1 339 1126)">
   <path d="M0.976562 0L3.66211 0L29.3457-67.1387L30.0293-67.1387L30.0293-70.459L28.125-70.459ZM11.6699-24.4629L46.9727-24.4629L46.2402-26.709L12.4512-26.709ZM55.127 0L57.7637 0L30.6152-70.459L29.4434-70.459L29.4434-67.1387Z"/>
  </g>
  <line id="Baseline-M" style="fill:none;stroke:#27AAE1;opacity:1;stroke-width:0.5;" x1="263" x2="3036" y1="1126" y2="1126"/>
  <line id="Capline-M" style="fill:none;stroke:#27AAE1;opacity:1;stroke-width:0.5;" x1="263" x2="3036" y1="1055.54" y2="1055.54"/>
  <g id="H-reference" style="fill:#27AAE1;stroke:none;" transform="matrix(1 0 0 1 339 1556)">
   <path d="M0.976562 0L3.66211 0L29.3457-67.1387L30.0293-67.1387L30.0293-70.459L28.125-70.459ZM11.6699-24.4629L46.9727-24.4629L46.2402-26.709L12.4512-26.709ZM55.127 0L57.7637 0L30.6152-70.459L29.4434-70.459L29.4434-67.1387Z"/>
  </g>
  <line id="Baseline-L" style="fill:none;stroke:#27AAE1;opacity:1;stroke-width:0.5;" x1="263" x2="3036" y1="1556" y2="1556"/>
  <line id="Capline-L" style="fill:none;stroke:#27AAE1;opacity:1;stroke-width:0.5;" x1="263" x2="3036" y1="1485.54" y2="1485.54"/>
  <line id="left-margin-Regular-M" style="fill:none;stroke:#00AEEF;stroke-width:0.5;opacity:1.0;" x1="1392.45" x2="1392.45" y1="1030.78" y2="1150.12"/>
  <line id="right-margin-Regular-M" style="fill:none;stroke:#00AEEF;stroke-width:0.5;opacity:1.0;" x1="1507.24" x2="1507.24" y1="1030.78" y2="1150.12"/>
 </g>
 <g id="Symbols">
  <g id="Black-L" transform="matrix(1 0 0 1 2863.83 1556)">
   <path d="M22.81-36.615C22.81-40.535 25.99-43.715 29.91-43.715L109.53-43.715C113.45-43.715 116.63-40.535 116.63-36.615C116.63-32.695 113.45-29.515 109.53-29.515L29.91-29.515C25.99-29.515 22.81-32.695 22.81-36.615ZM64.7-81.445C67.47-84.215 71.97-84.215 74.74-81.445L114.55-41.635C117.33-38.865 117.33-34.365 114.55-31.595L74.74 8.215C71.97 10.995 67.47 10.995 64.7 8.215C61.93 5.445 61.93 0.955 64.7-1.825L99.49-36.615L64.7-71.405C61.93-74.175 61.93-78.675 64.7-81.445Z"/>
  </g>
  <g id="Heavy-L" transform="matrix(1 0 0 1 2567.97 1556)">
   <path d="M22.81-36.45C22.81-39.9 25.61-42.7 29.07-42.7L108.69-42.7C112.14-42.7 114.94-39.9 114.94-36.45C114.94-33 112.14-30.2 108.69-30.2L29.07-30.2C25.61-30.2 22.81-33 22.81-36.45ZM64.46-80.68C66.9-83.12 70.86-83.12 73.3-80.68L113.11-40.87C115.55-38.43 115.55-34.47 113.11-32.03L73.3 7.78C70.86 10.22 66.9 10.22 64.46 7.78C62.02 5.34 62.02 1.38 64.46-1.06L99.85-36.45L64.46-71.84C62.02-74.28 62.02-78.24 64.46-80.68Z"/>
  </g>
  <g id="Bold-L" transform="matrix(1 0 0 1 2272.21 1556)">
   <path d="M22.81-36.265C22.81-39.195 25.18-41.565 28.11-41.565L107.74-41.565C110.66-41.565 113.04-39.195 113.04-36.265C113.04-33.335 110.66-30.965 107.74-30.965L28.11-30.965C25.18-30.965 22.81-33.335 22.81-36.265ZM64.18-79.825C66.25-81.895 69.6-81.895 71.67-79.825L111.48-40.015C113.55-37.945 113.55-34.585 111.48-32.515L71.67 7.295C69.6 9.365 66.25 9.365 64.18 7.295C62.11 5.225 62.11 1.875 64.18-0.195L100.24-36.265L64.18-72.325C62.11-74.395 62.11-77.755 64.18-79.825Z"/>
  </g>
  <g id="Semibold-L" transform="matrix(1 0 0 1 1976.15 1556)">
   <path d="M22.81-36.14C22.81-38.71 24.89-40.79 27.46-40.79L107.08-40.79C109.65-40.79 111.73-38.71 111.73-36.14C111.73-33.57 109.65-31.49 107.08-31.49L27.46-31.49C24.89-31.49 22.81-33.57 22.81-36.14ZM63.98-79.24C65.8-81.06 68.74-81.06 70.56-79.24L110.37-39.43C112.19-37.61 112.19-34.67 110.37-32.85L70.56 6.96C68.74 8.78 65.8 8.78 63.98 6.96C62.17 5.14 62.17 2.2 63.98 0.38L100.51-36.14L63.98-72.66C62.17-74.48 62.17-77.42 63.98-79.24Z"/>
  </g>
  <g id="Medium-L" transform="matrix(1 0 0 1 1679.94 1556)">
   <path d="M22.81-36.04C22.81-38.33 24.67-40.19 26.96-40.19L106.58-40.19C108.87-40.19 110.73-38.33 110.73-36.04C110.73-33.75 108.87-31.89 106.58-31.89L26.96-31.89C24.67-31.89 22.81-33.75 22.81-36.04ZM63.84-78.79C65.46-80.41 68.08-80.41 69.7-78.79L109.52-38.97C111.14-37.35 111.14-34.73 109.52-33.11L69.7 6.71C68.08 8.33 65.46 8.33 63.84 6.71C62.21 5.09 62.21 2.46 63.84 0.84L100.71-36.04L63.84-72.92C62.21-74.54 62.21-77.17 63.84-78.79Z"/>
  </g>
  <g id="Regular-L" transform="matrix(1 0 0 1 1383.88 1556)">
   <path d="M22.81-35.91C22.81-37.84 24.37-39.41 26.31-39.41L105.93-39.41C107.87-39.41 109.43-37.84 109.43-35.91C109.43-33.98 107.87-32.41 105.93-32.41L26.31-32.41C24.37-32.41 22.81-33.98 22.81-35.91ZM63.65-78.2C65.01-79.56 67.23-79.56 68.59-78.2L108.41-38.38C109.77-37.02 109.77-34.8 108.41-33.43L68.59 6.38C67.23 7.74 65.01 7.74 63.65 6.38C62.28 5.01 62.28 2.79 63.65 1.43L100.98-35.91L63.65-73.25C62.28-74.61 62.28-76.83 63.65-78.2Z"/>
  </g>
  <g id="Light-L" transform="matrix(1 0 0 1 1087.97 1556)">
   <path d="M22.81-35.76C22.81-37.25 24.02-38.46 25.51-38.46L105.13-38.46C106.62-38.46 107.83-37.25 107.83-35.76C107.83-34.27 106.62-33.06 105.13-33.06L25.51-33.06C24.02-33.06 22.81-34.27 22.81-35.76ZM63.41-77.48C64.47-78.54 66.18-78.54 67.23-77.48L107.04-37.67C108.1-36.61 108.1-34.9 107.04-33.85L67.23 5.96C66.18 7.02 64.47 7.02 63.41 5.96C62.36 4.91 62.36 3.2 63.41 2.14L101.31-35.76L63.41-73.66C62.36-74.72 62.36-76.43 63.41-77.48Z"/>
  </g>
  <g id="Thin-L" transform="matrix(1 0 0 1 792.305 1556)">
   <path d="M22.81-35.55C22.81-36.46 23.549-37.2 24.46-37.2L104.085-37.2C104.996-37.2 105.735-36.46 105.735-35.55C105.735-34.64 104.996-33.9 104.085-33.9L24.46-33.9C23.549-33.9 22.81-34.64 22.81-35.55ZM63.106-76.53C63.75-77.17 64.795-77.17 65.439-76.53L105.252-36.72C105.896-36.07 105.896-35.03 105.252-34.38L65.439 5.43C64.795 6.07 63.75 6.07 63.106 5.43C62.462 4.78 62.462 3.74 63.106 3.1L101.752-35.55L63.106-74.2C62.462-74.84 62.462-75.88 63.106-76.53Z"/>
  </g>
  <g id="Ultralight-L" transform="matrix(1 0 0 1 496.144 1556)">
   <path d="M22.81-35.445C22.81-36.055 23.302-36.545 23.91-36.545L103.535-36.545C104.142-36.545 104.635-36.055 104.635-35.445C104.635-34.835 104.142-34.345 103.535-34.345L23.91-34.345C23.302-34.345 22.81-34.835 22.81-35.445ZM62.945-76.035C63.374-76.465 64.071-76.465 64.5-76.035L104.313-36.225C104.742-35.795 104.742-35.095 104.313-34.665L64.5 5.145C64.071 5.575 63.374 5.575 62.945 5.145C62.515 4.715 62.515 4.025 62.945 3.595L101.979-35.445L62.945-74.475C62.515-74.905 62.515-75.605 62.945-76.035Z"/>
  </g>
  <g id="Black-M" transform="matrix(1 0 0 1 2872.41 1126)">
   <path d="M22.81-36.615C22.81-40.535 25.99-43.715 29.91-43.715L92.38-43.715C96.3-43.715 99.48-40.535 99.48-36.615C99.48-32.695 96.3-29.515 92.38-29.515L29.91-29.515C25.99-29.515 22.81-32.695 22.81-36.615ZM56.12-72.875C58.9-75.645 63.39-75.645 66.17-72.875L97.4-41.635C98.73-40.305 99.48-38.495 99.48-36.615C99.48-34.735 98.73-32.925 97.4-31.595L66.17-0.355C63.39 2.415 58.9 2.415 56.12-0.355C53.35-3.125 53.35-7.625 56.12-10.395L82.34-36.615L56.12-62.835C53.35-65.605 53.35-70.095 56.12-72.875Z"/>
  </g>
  <g id="Heavy-M" transform="matrix(1 0 0 1 2576.55 1126)">
   <path d="M22.81-36.45C22.81-39.9 25.6-42.7 29.06-42.7L91.53-42.7C94.98-42.7 97.78-39.9 97.78-36.45C97.78-33 94.98-30.2 91.53-30.2L29.06-30.2C25.6-30.2 22.81-33 22.81-36.45ZM55.87-72.11C58.31-74.55 62.27-74.55 64.71-72.11L95.95-40.87C97.12-39.7 97.78-38.11 97.78-36.45C97.78-34.79 97.12-33.2 95.95-32.03L64.71-0.79C62.27 1.65 58.31 1.65 55.87-0.79C53.43-3.23 53.43-7.19 55.87-9.63L82.69-36.45L55.87-63.27C53.43-65.71 53.43-69.67 55.87-72.11Z"/>
  </g>
  <g id="Bold-M" transform="matrix(1 0 0 1 2280.79 1126)">
   <path d="M22.81-36.265C22.81-39.195 25.18-41.565 28.11-41.565L90.58-41.565C93.51-41.565 95.88-39.195 95.88-36.265C95.88-33.335 93.51-30.965 90.58-30.965L28.11-30.965C25.18-30.965 22.81-33.335 22.81-36.265ZM55.6-71.245C57.67-73.315 61.02-73.315 63.09-71.245L94.33-40.015C95.32-39.015 95.88-37.675 95.88-36.265C95.88-34.855 95.32-33.515 94.33-32.515L63.09-1.275C61.02 0.795 57.67 0.795 55.6-1.275C53.53-3.345 53.53-6.705 55.6-8.775L83.09-36.265L55.6-63.755C53.53-65.825 53.53-69.175 55.6-71.245Z"/>
  </g>
  <g id="Semibold-M" transform="matrix(1 0 0 1 1984.72 1126)">
   <path d="M22.81-36.135C22.81-38.705 24.9-40.785 27.46-40.785L89.94-40.785C92.51-40.785 94.59-38.705 94.59-36.135C94.59-33.565 92.51-31.485 89.94-31.485L27.46-31.485C24.9-31.485 22.81-33.565 22.81-36.135ZM55.41-70.665C57.23-72.475 60.17-72.475 61.99-70.665L93.23-39.425C94.1-38.555 94.59-37.365 94.59-36.135C94.59-34.905 94.1-33.715 93.23-32.845L61.99-1.605C60.17 0.205 57.23 0.205 55.41-1.605C53.6-3.425 53.6-6.365 55.41-8.185L83.36-36.135L55.41-64.085C53.6-65.905 53.6-68.845 55.41-70.665Z"/>
  </g>
  <g id="Medium-M" transform="matrix(1 0 0 1 1688.51 1126)">
   <path d="M22.81-36.04C22.81-38.33 24.67-40.19 26.96-40.19L89.44-40.19C91.73-40.19 93.59-38.33 93.59-36.04C93.59-33.75 91.73-31.89 89.44-31.89L26.96-31.89C24.67-31.89 22.81-33.75 22.81-36.04ZM55.27-70.21C56.89-71.83 59.51-71.83 61.13-70.21L92.37-38.97C93.15-38.2 93.59-37.14 93.59-36.04C93.59-34.94 93.15-33.88 92.37-33.11L61.13-1.87C59.51-0.25 56.89-0.25 55.27-1.87C53.64-3.49 53.64-6.12 55.27-7.74L83.57-36.04L55.27-64.34C53.64-65.96 53.64-68.59 55.27-70.21Z"/>
  </g>
  <g id="Regular-M" transform="matrix(1 0 0 1 1392.45 1126)">
   <path d="M22.81-35.915C22.81-37.845 24.38-39.415 26.31-39.415L88.79-39.415C90.72-39.415 92.29-37.845 92.29-35.915C92.29-33.985 90.72-32.415 88.79-32.415L26.31-32.415C24.38-32.415 22.81-33.985 22.81-35.915ZM55.08-69.625C56.44-70.995 58.66-70.995 60.02-69.625L91.26-38.385C91.92-37.735 92.29-36.845 92.29-35.915C92.29-34.985 91.92-34.095 91.26-33.435L60.02-2.205C58.66-0.835 56.44-0.835 55.08-2.205C53.71-3.565 53.71-5.785 55.08-7.155L83.84-35.915L55.08-64.675C53.71-66.045 53.71-68.255 55.08-69.625Z"/>
  </g>
  <g id="Light-M" transform="matrix(1 0 0 1 1096.54 1126)">
   <path d="M22.81-35.755C22.81-37.245 24.02-38.455 25.51-38.455L87.99-38.455C89.48-38.455 90.69-37.245 90.69-35.755C90.69-34.265 89.48-33.055 87.99-33.055L25.51-33.055C24.02-33.055 22.81-34.265 22.81-35.755ZM54.84-68.905C55.9-69.955 57.61-69.955 58.66-68.905L89.9-37.665C90.4-37.155 90.69-36.475 90.69-35.755C90.69-35.035 90.4-34.355 89.9-33.845L58.66-2.605C57.61-1.555 55.9-1.555 54.84-2.605C53.79-3.665 53.79-5.375 54.84-6.425L84.17-35.755L54.84-65.085C53.79-66.135 53.79-67.845 54.84-68.905Z"/>
  </g>
  <g id="Thin-M" transform="matrix(1 0 0 1 800.88 1126)">
   <path d="M22.81-35.555C22.81-36.465 23.549-37.205 24.46-37.205L86.935-37.205C87.847-37.205 88.585-36.465 88.585-35.555C88.585-34.645 87.847-33.905 86.935-33.905L24.46-33.905C23.549-33.905 22.81-34.645 22.81-35.555ZM54.53-67.955C55.174-68.605 56.219-68.605 56.863-67.955L88.101-36.725C88.41-36.415 88.584-35.995 88.584-35.555C88.584-35.115 88.41-34.695 88.101-34.385L56.863-3.155C56.219-2.505 55.174-2.505 54.53-3.155C53.886-3.795 53.886-4.835 54.53-5.485L84.601-35.555L54.53-65.625C53.886-66.265 53.886-67.315 54.53-67.955Z"/>
  </g>
  <g id="Ultralight-M" transform="matrix(1 0 0 1 504.718 1126)">
   <path d="M22.81-35.445C22.81-36.055 23.303-36.545 23.91-36.545L86.385-36.545C86.993-36.545 87.485-36.055 87.485-35.445C87.485-34.835 86.993-34.345 86.385-34.345L23.91-34.345C23.303-34.345 22.81-34.835 22.81-35.445ZM54.371-67.455C54.8-67.885 55.497-67.885 55.926-67.455L87.164-36.225C87.37-36.015 87.486-35.735 87.486-35.445C87.486-35.155 87.37-34.875 87.164-34.665L55.926-3.425C55.497-2.995 54.8-2.995 54.371-3.425C53.941-3.855 53.941-4.555 54.371-4.985L84.83-35.445L54.371-65.905C53.941-66.335 53.941-67.035 54.371-67.455Z"/>
  </g>
  <g id="Black-S" transform="matrix(1 0 0 1 2879.15 696)">
   <path d="M22.81-36.718C22.81-40.639 25.99-43.818 29.91-43.818L78.91-43.818C82.83-43.818 86.01-40.639 86.01-36.718C86.01-32.797 82.83-29.618 78.91-29.618L29.91-29.618C25.99-29.618 22.81-32.797 22.81-36.718ZM49.39-66.239C52.16-69.011 56.66-69.011 59.43-66.239L83.93-41.739C86.7-38.966 86.7-34.47 83.93-31.698L59.43-7.198C56.66-4.425 52.16-4.425 49.39-7.198C46.62-9.97 46.62-14.466 49.39-17.239L68.87-36.718L49.39-56.198C46.62-58.97 46.62-63.466 49.39-66.239Z"/>
  </g>
  <g id="Heavy-S" transform="matrix(1 0 0 1 2583.28 696)">
   <path d="M22.81-36.5524C22.81-40.0044 25.61-42.8024 29.06-42.8024L78.06-42.8024C81.51-42.8024 84.31-40.0044 84.31-36.5524C84.31-33.1004 81.51-30.3024 78.06-30.3024L29.06-30.3024C25.61-30.3024 22.81-33.1004 22.81-36.5524ZM49.14-65.4715C51.58-67.9124 55.54-67.9124 57.98-65.4715L82.48-40.9715C84.92-38.5314 84.92-34.5734 82.48-32.1334L57.98-7.6335C55.54-5.1925 51.58-5.1925 49.14-7.6335C46.7-10.0735 46.7-14.0314 49.14-16.4715L69.22-36.5524L49.14-56.6334C46.7-59.0734 46.7-63.0314 49.14-65.4715Z"/>
  </g>
  <g id="Bold-S" transform="matrix(1 0 0 1 2287.52 696)">
   <path d="M22.81-36.162C22.81-39.089 25.19-41.462 28.11-41.462L77.11-41.462C80.04-41.462 82.41-39.089 82.41-36.162C82.41-33.235 80.04-30.862 77.11-30.862L28.11-30.862C25.19-30.862 22.81-33.235 22.81-36.162ZM48.87-64.409C50.94-66.479 54.29-66.479 56.36-64.409L80.86-39.909C82.93-37.84 82.93-34.484 80.86-32.414L56.36-7.914C54.29-5.844 50.94-5.844 48.87-7.914C46.8-9.984 46.8-13.34 48.87-15.409L69.62-36.162L48.87-56.914C46.8-58.984 46.8-62.34 48.87-64.409Z"/>
  </g>
  <g id="Semibold-S" transform="matrix(1 0 0 1 1991.46 696)">
   <path d="M22.81-36.035C22.81-38.603 24.89-40.685 27.46-40.685L76.46-40.685C79.03-40.685 81.11-38.603 81.11-36.035C81.11-33.467 79.03-31.385 76.46-31.385L27.46-31.385C24.89-31.385 22.81-33.467 22.81-36.035ZM48.67-63.823C50.49-65.639 53.43-65.639 55.25-63.823L79.75-39.323C81.56-37.507 81.56-34.563 79.75-32.747L55.25-8.247C53.43-6.431 50.49-6.431 48.67-8.247C46.86-10.063 46.86-13.007 48.67-14.823L69.88-36.035L48.67-57.247C46.86-59.063 46.86-62.007 48.67-63.823Z"/>
  </g>
  <g id="Medium-S" transform="matrix(1 0 0 1 1695.25 696)">
   <path d="M22.81-35.9375C22.81-38.2296 24.67-40.0875 26.96-40.0875L75.96-40.0875C78.25-40.0875 80.11-38.2296 80.11-35.9375C80.11-33.6456 78.25-31.7875 75.96-31.7875L26.96-31.7875C24.67-31.7875 22.81-33.6456 22.81-35.9375ZM48.53-63.3716C50.15-64.9926 52.77-64.9926 54.39-63.3716L78.89-38.8716C80.51-37.2516 80.51-34.6236 78.89-33.0026L54.39-8.5025C52.77-6.8825 50.15-6.8825 48.53-8.5025C46.9-10.1235 46.9-12.7516 48.53-14.3716L70.09-35.9375L48.53-57.5026C46.9-59.1236 46.9-61.7516 48.53-63.3716Z"/>
  </g>
  <g id="Regular-S" transform="matrix(1 0 0 1 1399.19 696)">
   <path d="M22.81-35.8106C22.81-37.7435 24.38-39.3106 26.31-39.3106L75.31-39.3106C77.24-39.3106 78.81-37.7435 78.81-35.8106C78.81-33.8776 77.24-32.3106 75.31-32.3106L26.31-32.3106C24.38-32.3106 22.81-33.8776 22.81-35.8106ZM48.34-62.7856C49.7-64.1526 51.92-64.1526 53.28-62.7856L77.78-38.2856C79.15-36.9186 79.15-34.7026 77.78-33.3356L53.28-8.8355C51.92-7.4685 49.7-7.4685 48.34-8.8355C46.97-10.2025 46.97-12.4186 48.34-13.7856L70.36-35.8106L48.34-57.8356C46.97-59.2026 46.97-61.4186 48.34-62.7856Z"/>
  </g>
  <g id="Light-S" transform="matrix(1 0 0 1 1103.28 696)">
   <path d="M22.81-35.6544C22.81-37.1455 24.02-38.3544 25.51-38.3544L74.51-38.3544C76-38.3544 77.21-37.1455 77.21-35.6544C77.21-34.1635 76-32.9544 74.51-32.9544L25.51-32.9544C24.02-32.9544 22.81-34.1635 22.81-35.6544ZM48.1-62.0634C49.16-63.1184 50.87-63.1184 51.92-62.0634L76.42-37.5634C77.47-36.5094 77.47-34.7995 76.42-33.7455L51.92-9.2455C50.87-8.1915 49.16-8.1915 48.1-9.2455C47.05-10.2995 47.05-12.0094 48.1-13.0634L70.69-35.6544L48.1-58.2455C47.05-59.2995 47.05-61.0094 48.1-62.0634Z"/>
  </g>
  <g id="Thin-S" transform="matrix(1 0 0 1 807.617 696)">
   <path d="M22.81-35.449C22.81-36.36 23.548-37.099 24.46-37.099L73.46-37.099C74.371-37.099 75.11-36.36 75.11-35.449C75.11-34.538 74.371-33.799 73.46-33.799L24.46-33.799C23.548-33.799 22.81-34.538 22.81-35.449ZM47.793-61.116C48.437-61.76 49.482-61.76 50.126-61.116L74.626-36.616C75.271-35.971 75.271-34.926 74.626-34.282L50.126-9.782C49.482-9.138 48.437-9.138 47.793-9.782C47.149-10.426 47.149-11.471 47.793-12.116L71.126-35.449L47.793-58.782C47.149-59.426 47.149-60.471 47.793-61.116Z"/>
  </g>
  <g id="Ultralight-S" transform="matrix(1 0 0 1 511.456 696)">
   <path d="M22.81-35.3415C22.81-35.9496 23.303-36.4415 23.91-36.4415L72.91-36.4415C73.518-36.4415 74.01-35.9496 74.01-35.3415C74.01-34.7346 73.518-34.2416 72.91-34.2416L23.91-34.2416C23.303-34.2416 22.81-34.7346 22.81-35.3415ZM47.633-60.6195C48.062-61.0485 48.759-61.0485 49.188-60.6195L73.688-36.1195C74.118-35.6896 74.118-34.9936 73.688-34.5636L49.188-10.0635C48.759-9.6345 48.062-9.6345 47.633-10.0635C47.203-10.4936 47.203-11.1896 47.633-11.6195L71.355-35.3415L47.633-59.0636C47.203-59.4936 47.203-60.1896 47.633-60.6195Z"/>
  </g>
 </g>
</svg>
