<?xml version="1.0" encoding="UTF-8"?>
<!--Generator: Apple Native CoreSVG 175-->
<!DOCTYPE svg
PUBLIC "-//W3C//DTD SVG 1.1//EN"
       "http://www.w3.org/Graphics/SVG/1.1/DTD/svg11.dtd">
<svg version="1.1" xmlns="http://www.w3.org/2000/svg" xmlns:xlink="http://www.w3.org/1999/xlink" width="3300" height="2200">
 <!--glyph: "", point size: 100.0, font version: "17.0d12e1", template writer version: "65.1"-->
 <style>.hierarchical-0:secondary {fill:#4D4D4D}
.hierarchical-1:primary {fill:#212121}

.SFSymbolsPreview212121 {fill:#212121;opacity:1.0}
.SFSymbolsPreview4D4D4D {fill:#4D4D4D;opacity:1.0}
</style>
 <g id="Notes">
  <rect height="2200" id="artboard" style="fill:white;opacity:1" width="3300" x="0" y="0"/>
  <line style="fill:none;stroke:black;opacity:1;stroke-width:0.5;" x1="263" x2="3036" y1="292" y2="292"/>
  <text style="stroke:none;fill:black;font-family:sans-serif;font-size:13;font-weight:bold;" transform="matrix(1 0 0 1 263 322)">Weight/Scale Variations</text>
  <text style="stroke:none;fill:black;font-family:sans-serif;font-size:13;text-anchor:middle;" transform="matrix(1 0 0 1 559.711 322)">Ultralight</text>
  <text style="stroke:none;fill:black;font-family:sans-serif;font-size:13;text-anchor:middle;" transform="matrix(1 0 0 1 856.422 322)">Thin</text>
  <text style="stroke:none;fill:black;font-family:sans-serif;font-size:13;text-anchor:middle;" transform="matrix(1 0 0 1 1153.13 322)">Light</text>
  <text style="stroke:none;fill:black;font-family:sans-serif;font-size:13;text-anchor:middle;" transform="matrix(1 0 0 1 1449.84 322)">Regular</text>
  <text style="stroke:none;fill:black;font-family:sans-serif;font-size:13;text-anchor:middle;" transform="matrix(1 0 0 1 1746.56 322)">Medium</text>
  <text style="stroke:none;fill:black;font-family:sans-serif;font-size:13;text-anchor:middle;" transform="matrix(1 0 0 1 2043.27 322)">Semibold</text>
  <text style="stroke:none;fill:black;font-family:sans-serif;font-size:13;text-anchor:middle;" transform="matrix(1 0 0 1 2339.98 322)">Bold</text>
  <text style="stroke:none;fill:black;font-family:sans-serif;font-size:13;text-anchor:middle;" transform="matrix(1 0 0 1 2636.69 322)">Heavy</text>
  <text style="stroke:none;fill:black;font-family:sans-serif;font-size:13;text-anchor:middle;" transform="matrix(1 0 0 1 2933.4 322)">Black</text>
  <line style="fill:none;stroke:black;opacity:1;stroke-width:0.5;" x1="263" x2="3036" y1="1903" y2="1903"/>
  <g transform="matrix(1 0 0 1 263 1933)">
   <path d="M9.24805 0.830078Q10.8691 0.830078 12.2949 0.214844Q13.7207-0.400391 14.8096-1.49414Q15.8984-2.58789 16.5186-4.01367Q17.1387-5.43945 17.1387-7.05078Q17.1387-8.66211 16.5186-10.0879Q15.8984-11.5137 14.8047-12.6074Q13.7109-13.7012 12.2852-14.3164Q10.8594-14.9316 9.23828-14.9316Q7.62695-14.9316 6.20117-14.3164Q4.77539-13.7012 3.69141-12.6074Q2.60742-11.5137 1.9873-10.0879Q1.36719-8.66211 1.36719-7.05078Q1.36719-5.43945 1.9873-4.01367Q2.60742-2.58789 3.69629-1.49414Q4.78516-0.400391 6.21094 0.214844Q7.63672 0.830078 9.24805 0.830078ZM9.24805-0.654297Q7.91992-0.654297 6.7627-1.14746Q5.60547-1.64062 4.73145-2.51953Q3.85742-3.39844 3.36426-4.56055Q2.87109-5.72266 2.87109-7.05078Q2.87109-8.37891 3.35938-9.54102Q3.84766-10.7031 4.72168-11.582Q5.5957-12.4609 6.75293-12.9541Q7.91016-13.4473 9.23828-13.4473Q10.5762-13.4473 11.7334-12.9541Q12.8906-12.4609 13.7695-11.582Q14.6484-10.7031 15.1465-9.54102Q15.6445-8.37891 15.6445-7.05078Q15.6445-5.72266 15.1514-4.56055Q14.6582-3.39844 13.7842-2.51953Q12.9102-1.64062 11.748-1.14746Q10.5859-0.654297 9.24805-0.654297ZM5.6543-7.05078Q5.6543-6.72852 5.85938-6.52832Q6.06445-6.32812 6.40625-6.32812L8.51562-6.32812L8.51562-4.20898Q8.51562-3.88672 8.71094-3.67676Q8.90625-3.4668 9.23828-3.4668Q9.56055-3.4668 9.77051-3.67676Q9.98047-3.88672 9.98047-4.20898L9.98047-6.32812L12.0898-6.32812Q12.4219-6.32812 12.627-6.52832Q12.832-6.72852 12.832-7.05078Q12.832-7.38281 12.627-7.58789Q12.4219-7.79297 12.0898-7.79297L9.98047-7.79297L9.98047-9.90234Q9.98047-10.2344 9.77051-10.4443Q9.56055-10.6543 9.23828-10.6543Q8.90625-10.6543 8.71094-10.4443Q8.51562-10.2344 8.51562-9.90234L8.51562-7.79297L6.40625-7.79297Q6.06445-7.79297 5.85938-7.58789Q5.6543-7.38281 5.6543-7.05078Z"/>
  </g>
  <g transform="matrix(1 0 0 1 281.867 1933)">
   <path d="M11.709 2.91016Q13.75 2.91016 15.5518 2.12891Q17.3535 1.34766 18.7305-0.0292969Q20.1074-1.40625 20.8887-3.20801Q21.6699-5.00977 21.6699-7.05078Q21.6699-9.0918 20.8887-10.8936Q20.1074-12.6953 18.7305-14.0723Q17.3535-15.4492 15.5469-16.2305Q13.7402-17.0117 11.6992-17.0117Q9.6582-17.0117 7.85645-16.2305Q6.05469-15.4492 4.68262-14.0723Q3.31055-12.6953 2.5293-10.8936Q1.74805-9.0918 1.74805-7.05078Q1.74805-5.00977 2.5293-3.20801Q3.31055-1.40625 4.6875-0.0292969Q6.06445 1.34766 7.86621 2.12891Q9.66797 2.91016 11.709 2.91016ZM11.709 1.25Q9.98047 1.25 8.47656 0.605469Q6.97266-0.0390625 5.83496-1.17676Q4.69727-2.31445 4.05762-3.81836Q3.41797-5.32227 3.41797-7.05078Q3.41797-8.7793 4.05762-10.2832Q4.69727-11.7871 5.83008-12.9297Q6.96289-14.0723 8.4668-14.7119Q9.9707-15.3516 11.6992-15.3516Q13.4277-15.3516 14.9316-14.7119Q16.4355-14.0723 17.5781-12.9297Q18.7207-11.7871 19.3652-10.2832Q20.0098-8.7793 20.0098-7.05078Q20.0098-5.32227 19.3701-3.81836Q18.7305-2.31445 17.5928-1.17676Q16.4551-0.0390625 14.9463 0.605469Q13.4375 1.25 11.709 1.25ZM7.17773-7.05078Q7.17773-6.69922 7.41211-6.47461Q7.64648-6.25 8.01758-6.25L10.8887-6.25L10.8887-3.36914Q10.8887-2.99805 11.1133-2.76855Q11.3379-2.53906 11.6895-2.53906Q12.0605-2.53906 12.29-2.76855Q12.5195-2.99805 12.5195-3.36914L12.5195-6.25L15.4004-6.25Q15.7715-6.25 16.001-6.47461Q16.2305-6.69922 16.2305-7.05078Q16.2305-7.42188 16.001-7.65137Q15.7715-7.88086 15.4004-7.88086L12.5195-7.88086L12.5195-10.752Q12.5195-11.1328 12.29-11.3623Q12.0605-11.5918 11.6895-11.5918Q11.3379-11.5918 11.1133-11.3574Q10.8887-11.123 10.8887-10.752L10.8887-7.88086L8.01758-7.88086Q7.63672-7.88086 7.40723-7.65137Q7.17773-7.42188 7.17773-7.05078Z"/>
  </g>
  <g transform="matrix(1 0 0 1 305.646 1933)">
   <path d="M14.9707 5.66406Q17.0605 5.66406 18.96 5.01465Q20.8594 4.36523 22.4512 3.19336Q24.043 2.02148 25.2197 0.429688Q26.3965-1.16211 27.0459-3.06641Q27.6953-4.9707 27.6953-7.05078Q27.6953-9.14062 27.0459-11.04Q26.3965-12.9395 25.2197-14.5312Q24.043-16.123 22.4512-17.2998Q20.8594-18.4766 18.9551-19.126Q17.0508-19.7754 14.9609-19.7754Q12.8711-19.7754 10.9717-19.126Q9.07227-18.4766 7.48535-17.2998Q5.89844-16.123 4.72168-14.5312Q3.54492-12.9395 2.90039-11.04Q2.25586-9.14062 2.25586-7.05078Q2.25586-4.9707 2.90527-3.06641Q3.55469-1.16211 4.72656 0.429688Q5.89844 2.02148 7.49023 3.19336Q9.08203 4.36523 10.9814 5.01465Q12.8809 5.66406 14.9707 5.66406ZM14.9707 3.84766Q13.1641 3.84766 11.5283 3.2959Q9.89258 2.74414 8.53516 1.74805Q7.17773 0.751953 6.17676-0.610352Q5.17578-1.97266 4.62891-3.6084Q4.08203-5.24414 4.08203-7.05078Q4.08203-8.86719 4.62891-10.5029Q5.17578-12.1387 6.17188-13.501Q7.16797-14.8633 8.52539-15.8594Q9.88281-16.8555 11.5186-17.4023Q13.1543-17.9492 14.9609-17.9492Q16.7773-17.9492 18.4131-17.4023Q20.0488-16.8555 21.4111-15.8594Q22.7734-14.8633 23.7695-13.501Q24.7656-12.1387 25.3174-10.5029Q25.8691-8.86719 25.8691-7.05078Q25.8789-5.24414 25.332-3.6084Q24.7852-1.97266 23.7842-0.610352Q22.7832 0.751953 21.4209 1.74805Q20.0586 2.74414 18.4229 3.2959Q16.7871 3.84766 14.9707 3.84766ZM9.19922-7.05078Q9.19922-6.66992 9.45801-6.4209Q9.7168-6.17188 10.1172-6.17188L14.0625-6.17188L14.0625-2.2168Q14.0625-1.81641 14.3115-1.55762Q14.5605-1.29883 14.9512-1.29883Q15.3516-1.29883 15.6104-1.55273Q15.8691-1.80664 15.8691-2.2168L15.8691-6.17188L19.8242-6.17188Q20.2246-6.17188 20.4785-6.4209Q20.7324-6.66992 20.7324-7.05078Q20.7324-7.46094 20.4785-7.71484Q20.2246-7.96875 19.8242-7.96875L15.8691-7.96875L15.8691-11.9141Q15.8691-12.3242 15.6104-12.583Q15.3516-12.8418 14.9512-12.8418Q14.5605-12.8418 14.3115-12.583Q14.0625-12.3242 14.0625-11.9141L14.0625-7.96875L10.1172-7.96875Q9.70703-7.96875 9.45312-7.71484Q9.19922-7.46094 9.19922-7.05078Z"/>
  </g>
  <text style="stroke:none;fill:black;font-family:sans-serif;font-size:13;font-weight:bold;" transform="matrix(1 0 0 1 263 1953)">Design Variations</text>
  <text style="stroke:none;fill:black;font-family:sans-serif;font-size:13;" transform="matrix(1 0 0 1 263 1971)">Symbols are supported in up to nine weights and three scales.</text>
  <text style="stroke:none;fill:black;font-family:sans-serif;font-size:13;" transform="matrix(1 0 0 1 263 1989)">For optimal layout with text and other symbols, vertically align</text>
  <text style="stroke:none;fill:black;font-family:sans-serif;font-size:13;" transform="matrix(1 0 0 1 263 2007)">symbols with the adjacent text.</text>
  <line style="fill:none;stroke:#00AEEF;stroke-width:0.5;opacity:1.0;" x1="776" x2="776" y1="1919" y2="1933"/>
  <g transform="matrix(1 0 0 1 776 1933)">
   <path d="M3.31055 0.15625Q3.70117 0.15625 3.91602-0.00976562Q4.13086-0.175781 4.26758-0.585938L5.52734-4.0332L11.2891-4.0332L12.5488-0.585938Q12.6855-0.175781 12.9004-0.00976562Q13.1152 0.15625 13.4961 0.15625Q13.8867 0.15625 14.1162-0.0585938Q14.3457-0.273438 14.3457-0.644531Q14.3457-0.869141 14.2383-1.17188L9.6582-13.3691Q9.48242-13.8184 9.17969-14.043Q8.87695-14.2676 8.4082-14.2676Q7.5-14.2676 7.17773-13.3789L2.59766-1.16211Q2.49023-0.859375 2.49023-0.634766Q2.49023-0.263672 2.70996-0.0537109Q2.92969 0.15625 3.31055 0.15625ZM6.00586-5.51758L8.37891-12.0898L8.42773-12.0898L10.8008-5.51758Z"/>
  </g>
  <line style="fill:none;stroke:#00AEEF;stroke-width:0.5;opacity:1.0;" x1="793.197" x2="793.197" y1="1919" y2="1933"/>
  <text style="stroke:none;fill:black;font-family:sans-serif;font-size:13;font-weight:bold;" transform="matrix(1 0 0 1 776 1953)">Margins</text>
  <text style="stroke:none;fill:black;font-family:sans-serif;font-size:13;" transform="matrix(1 0 0 1 776 1971)">Leading and trailing margins on the left and right side of each symbol</text>
  <text style="stroke:none;fill:black;font-family:sans-serif;font-size:13;" transform="matrix(1 0 0 1 776 1989)">can be adjusted by modifying the x-location of the margin guidelines.</text>
  <text style="stroke:none;fill:black;font-family:sans-serif;font-size:13;" transform="matrix(1 0 0 1 776 2007)">Modifications are automatically applied proportionally to all</text>
  <text style="stroke:none;fill:black;font-family:sans-serif;font-size:13;" transform="matrix(1 0 0 1 776 2025)">scales and weights.</text>
  <g transform="matrix(1 0 0 1 1289 1933)">
   <path d="M2.8418 1.86523L4.54102 3.57422Q5.18555 4.22852 5.90332 4.17969Q6.62109 4.13086 7.31445 3.35938L18.0078-8.42773L17.041-9.4043L6.42578 2.27539Q6.16211 2.57812 5.89355 2.61719Q5.625 2.65625 5.27344 2.30469L4.10156 1.14258Q3.75 0.791016 3.79395 0.522461Q3.83789 0.253906 4.14062-0.0195312L15.6152-10.8203L14.6387-11.7871L3.04688-0.898438Q2.30469-0.214844 2.25098 0.498047Q2.19727 1.21094 2.8418 1.86523ZM9.25781-16.3281Q8.94531-16.0254 8.90625-15.6348Q8.86719-15.2441 9.04297-14.9512Q9.21875-14.6777 9.55566-14.541Q9.89258-14.4043 10.3809-14.5215Q11.4746-14.7754 12.5977-14.7314Q13.7207-14.6875 14.7949-13.9844L14.209-12.5293Q13.9551-11.9043 14.0674-11.4404Q14.1797-10.9766 14.5801-10.5664L16.875-8.25195Q17.2363-7.88086 17.5781-7.82227Q17.9199-7.76367 18.3398-7.8418L19.4043-8.03711L20.0684-7.36328L20.0293-6.80664Q20-6.43555 20.1221-6.12305Q20.2441-5.81055 20.6055-5.44922L21.3672-4.70703Q21.7285-4.3457 22.1533-4.33105Q22.5781-4.31641 22.9297-4.66797L25.8398-7.58789Q26.1914-7.93945 26.1816-8.35449Q26.1719-8.76953 25.8105-9.13086L25.0391-9.89258Q24.6875-10.2539 24.3799-10.3857Q24.0723-10.5176 23.7109-10.4883L23.1348-10.4395L22.4902-11.0742L22.7344-12.1973Q22.832-12.6172 22.6953-12.9834Q22.5586-13.3496 22.1191-13.7891L19.9219-15.9766Q18.6719-17.2168 17.2607-17.8369Q15.8496-18.457 14.4189-18.4814Q12.9883-18.5059 11.665-17.959Q10.3418-17.4121 9.25781-16.3281ZM10.752-15.957Q11.6602-16.6211 12.7002-16.9043Q13.7402-17.1875 14.8047-17.085Q15.8691-16.9824 16.8701-16.5137Q17.8711-16.0449 18.7012-15.2051L21.1328-12.793Q21.3086-12.6172 21.3525-12.4512Q21.3965-12.2852 21.3379-12.0312L21.0156-10.5469L22.5195-9.0625L23.5059-9.12109Q23.6914-9.13086 23.7891-9.09668Q23.8867-9.0625 24.0332-8.91602L24.6094-8.33984L22.168-5.89844L21.5918-6.47461Q21.4453-6.62109 21.4062-6.71875Q21.3672-6.81641 21.377-7.01172L21.4453-7.98828L19.9512-9.47266L18.4277-9.21875Q18.1836-9.16992 18.042-9.2041Q17.9004-9.23828 17.7148-9.41406L15.7129-11.416Q15.5176-11.5918 15.4932-11.7529Q15.4688-11.9141 15.5859-12.1875L16.4648-14.2773Q15.293-15.3711 13.8281-15.791Q12.3633-16.2109 10.8398-15.7617Q10.7227-15.7324 10.6885-15.8057Q10.6543-15.8789 10.752-15.957Z"/>
  </g>
  <text style="stroke:none;fill:black;font-family:sans-serif;font-size:13;font-weight:bold;" transform="matrix(1 0 0 1 1289 1953)">Exporting</text>
  <text style="stroke:none;fill:black;font-family:sans-serif;font-size:13;" transform="matrix(1 0 0 1 1289 1971)">Symbols should be outlined when exporting to ensure the</text>
  <text style="stroke:none;fill:black;font-family:sans-serif;font-size:13;" transform="matrix(1 0 0 1 1289 1989)">design is preserved when submitting to Xcode.</text>
  <text id="template-version" style="stroke:none;fill:black;font-family:sans-serif;font-size:13;text-anchor:end;" transform="matrix(1 0 0 1 3036 1933)">Template v.3.0</text>
  <text style="stroke:none;fill:black;font-family:sans-serif;font-size:13;text-anchor:end;" transform="matrix(1 0 0 1 3036 1951)">Requires Xcode 13 or greater</text>
  <text id="descriptive-name" style="stroke:none;fill:black;font-family:sans-serif;font-size:13;text-anchor:end;" transform="matrix(1 0 0 1 3036 1969)">Generated from chevrons-down</text>
  <text style="stroke:none;fill:black;font-family:sans-serif;font-size:13;text-anchor:end;" transform="matrix(1 0 0 1 3036 1987)">Typeset at 100 points</text>
  <text style="stroke:none;fill:black;font-family:sans-serif;font-size:13;" transform="matrix(1 0 0 1 263 726)">Small</text>
  <text style="stroke:none;fill:black;font-family:sans-serif;font-size:13;" transform="matrix(1 0 0 1 263 1156)">Medium</text>
  <text style="stroke:none;fill:black;font-family:sans-serif;font-size:13;" transform="matrix(1 0 0 1 263 1586)">Large</text>
 </g>
 <g id="Guides">
  <g id="H-reference" style="fill:#27AAE1;stroke:none;" transform="matrix(1 0 0 1 339 696)">
   <path d="M0.976562 0L3.66211 0L29.3457-67.1387L30.0293-67.1387L30.0293-70.459L28.125-70.459ZM11.6699-24.4629L46.9727-24.4629L46.2402-26.709L12.4512-26.709ZM55.127 0L57.7637 0L30.6152-70.459L29.4434-70.459L29.4434-67.1387Z"/>
  </g>
  <line id="Baseline-S" style="fill:none;stroke:#27AAE1;opacity:1;stroke-width:0.5;" x1="263" x2="3036" y1="696" y2="696"/>
  <line id="Capline-S" style="fill:none;stroke:#27AAE1;opacity:1;stroke-width:0.5;" x1="263" x2="3036" y1="625.541" y2="625.541"/>
  <g id="H-reference" style="fill:#27AAE1;stroke:none;" transform="matrix(1 0 0 1 339 1126)">
   <path d="M0.976562 0L3.66211 0L29.3457-67.1387L30.0293-67.1387L30.0293-70.459L28.125-70.459ZM11.6699-24.4629L46.9727-24.4629L46.2402-26.709L12.4512-26.709ZM55.127 0L57.7637 0L30.6152-70.459L29.4434-70.459L29.4434-67.1387Z"/>
  </g>
  <line id="Baseline-M" style="fill:none;stroke:#27AAE1;opacity:1;stroke-width:0.5;" x1="263" x2="3036" y1="1126" y2="1126"/>
  <line id="Capline-M" style="fill:none;stroke:#27AAE1;opacity:1;stroke-width:0.5;" x1="263" x2="3036" y1="1055.54" y2="1055.54"/>
  <g id="H-reference" style="fill:#27AAE1;stroke:none;" transform="matrix(1 0 0 1 339 1556)">
   <path d="M0.976562 0L3.66211 0L29.3457-67.1387L30.0293-67.1387L30.0293-70.459L28.125-70.459ZM11.6699-24.4629L46.9727-24.4629L46.2402-26.709L12.4512-26.709ZM55.127 0L57.7637 0L30.6152-70.459L29.4434-70.459L29.4434-67.1387Z"/>
  </g>
  <line id="Baseline-L" style="fill:none;stroke:#27AAE1;opacity:1;stroke-width:0.5;" x1="263" x2="3036" y1="1556" y2="1556"/>
  <line id="Capline-L" style="fill:none;stroke:#27AAE1;opacity:1;stroke-width:0.5;" x1="263" x2="3036" y1="1485.54" y2="1485.54"/>
  <line id="left-margin-Regular-M" style="fill:none;stroke:#00AEEF;stroke-width:0.5;opacity:1.0;" x1="1393.13" x2="1393.13" y1="1030.78" y2="1150.12"/>
  <line id="right-margin-Regular-M" style="fill:none;stroke:#00AEEF;stroke-width:0.5;opacity:1.0;" x1="1506.56" x2="1506.56" y1="1030.78" y2="1150.12"/>
 </g>
 <g id="Symbols">
  <g id="Black-L" transform="matrix(1 0 0 1 2866.96 1556)">
   <path class="hierarchical-0:secondary SFSymbolsPreview4D4D4D" d="M33.1375-75.765C35.9175-78.535 40.4075-78.535 43.1775-75.765L66.5975-52.345L90.0175-75.765C92.7875-78.535 97.2875-78.535 100.058-75.765C102.827-72.985 102.827-68.495 100.058-65.715L71.6175-37.285C68.8475-34.505 64.3475-34.505 61.5775-37.285L33.1375-65.715C30.3675-68.495 30.3675-72.985 33.1375-75.765Z"/>
   <path class="hierarchical-1:primary SFSymbolsPreview212121" d="M33.1375-35.945C35.9175-38.725 40.4075-38.725 43.1775-35.945L66.5975-12.535L90.0175-35.945C92.7875-38.725 97.2875-38.725 100.058-35.945C102.827-33.175 102.827-28.675 100.058-25.905L71.6175 2.535C68.8475 5.305 64.3475 5.305 61.5775 2.535L33.1375-25.905C30.3675-28.675 30.3675-33.175 33.1375-35.945Z"/>
  </g>
  <g id="Heavy-L" transform="matrix(1 0 0 1 2571.1 1556)">
   <path class="hierarchical-0:secondary SFSymbolsPreview4D4D4D" d="M32.89-74.995C35.33-77.445 39.29-77.445 41.73-74.995L65.75-50.985L89.77-74.995C92.21-77.445 96.16-77.445 98.6-74.995C101.05-72.555 101.05-68.605 98.6-66.165L70.17-37.725C67.73-35.285 63.77-35.285 61.33-37.725L32.89-66.165C30.45-68.605 30.45-72.555 32.89-74.995Z"/>
   <path class="hierarchical-1:primary SFSymbolsPreview212121" d="M32.89-35.185C35.33-37.625 39.29-37.625 41.73-35.185L65.75-11.165L89.77-35.185C92.21-37.625 96.16-37.625 98.6-35.185C101.05-32.745 101.05-28.785 98.6-26.345L70.17 2.085C67.73 4.525 63.77 4.525 61.33 2.085L32.89-26.345C30.45-28.785 30.45-32.745 32.89-35.185Z"/>
  </g>
  <g id="Bold-L" transform="matrix(1 0 0 1 2275.34 1556)">
   <path class="hierarchical-0:secondary SFSymbolsPreview4D4D4D" d="M32.6125-74.135C34.6825-76.205 38.0325-76.205 40.1025-74.135L64.7925-49.445L89.4825-74.135C91.5525-76.205 94.9125-76.205 96.9825-74.135C99.0525-72.065 99.0525-68.715 96.9825-66.645L68.5425-38.205C66.4725-36.135 63.1225-36.135 61.0525-38.205L32.6125-66.645C30.5425-68.715 30.5425-72.065 32.6125-74.135Z"/>
   <path class="hierarchical-1:primary SFSymbolsPreview212121" d="M32.6125-34.325C34.6825-36.395 38.0325-36.395 40.1025-34.325L64.7925-9.635L89.4825-34.325C91.5525-36.395 94.9125-36.395 96.9825-34.325C99.0525-32.255 99.0525-28.905 96.9825-26.835L68.5425 1.605C66.4725 3.675 63.1225 3.675 61.0525 1.605L32.6125-26.835C30.5425-28.905 30.5425-32.255 32.6125-34.325Z"/>
  </g>
  <g id="Semibold-L" transform="matrix(1 0 0 1 1979.27 1556)">
   <path class="hierarchical-0:secondary SFSymbolsPreview4D4D4D" d="M32.4175-73.55C34.2375-75.37 37.1775-75.37 38.9975-73.55L64.1475-48.4L89.2975-73.55C91.1175-75.37 94.0575-75.37 95.8775-73.55C97.6875-71.74 97.6875-68.79 95.8775-66.98L67.4375-38.54C65.6175-36.72 62.6775-36.72 60.8575-38.54L32.4175-66.98C30.6075-68.79 30.6075-71.74 32.4175-73.55Z"/>
   <path class="hierarchical-1:primary SFSymbolsPreview212121" d="M32.4175-33.74C34.2375-35.56 37.1775-35.56 38.9975-33.74L64.1475-8.59L89.2975-33.74C91.1175-35.56 94.0575-35.56 95.8775-33.74C97.6875-31.93 97.6875-28.98 95.8775-27.17L67.4375 1.27C65.6175 3.09 62.6775 3.09 60.8575 1.27L32.4175-27.17C30.6075-28.98 30.6075-31.93 32.4175-33.74Z"/>
  </g>
  <g id="Medium-L" transform="matrix(1 0 0 1 1683.07 1556)">
   <path class="hierarchical-0:secondary SFSymbolsPreview4D4D4D" d="M32.275-73.1C33.895-74.72 36.525-74.72 38.145-73.1L63.645-47.6L89.145-73.1C90.765-74.72 93.395-74.72 95.015-73.1C96.635-71.48 96.635-68.85 95.015-67.23L66.575-38.79C64.955-37.17 62.335-37.17 60.715-38.79L32.275-67.23C30.655-68.85 30.655-71.48 32.275-73.1Z"/>
   <path class="hierarchical-1:primary SFSymbolsPreview212121" d="M32.275-33.29C33.895-34.91 36.525-34.91 38.145-33.29L63.645-7.78L89.145-33.29C90.765-34.91 93.395-34.91 95.015-33.29C96.635-31.67 96.635-29.04 95.015-27.42L66.575 1.02C64.955 2.64 62.335 2.64 60.715 1.02L32.275-27.42C30.655-29.04 30.655-31.67 32.275-33.29Z"/>
  </g>
  <g id="Regular-L" transform="matrix(1 0 0 1 1387 1556)">
   <path class="hierarchical-0:secondary SFSymbolsPreview4D4D4D" d="M32.0875-72.515C33.4475-73.885 35.6675-73.885 37.0375-72.515L62.9975-46.555L88.9575-72.515C90.3275-73.885 92.5475-73.885 93.9075-72.515C95.2775-71.145 95.2775-68.935 93.9075-67.565L65.4675-39.125C64.1075-37.765 61.8875-37.765 60.5275-39.125L32.0875-67.565C30.7175-68.935 30.7175-71.145 32.0875-72.515Z"/>
   <path class="hierarchical-1:primary SFSymbolsPreview212121" d="M32.0875-32.705C33.4475-34.065 35.6675-34.065 37.0375-32.705L62.9975-6.745L88.9575-32.705C90.3275-34.065 92.5475-34.065 93.9075-32.705C95.2775-31.335 95.2775-29.115 93.9075-27.755L65.4675 0.685C64.1075 2.055 61.8875 2.055 60.5275 0.685L32.0875-27.755C30.7175-29.115 30.7175-31.335 32.0875-32.705Z"/>
  </g>
  <g id="Light-L" transform="matrix(1 0 0 1 1091.09 1556)">
   <path class="hierarchical-0:secondary SFSymbolsPreview4D4D4D" d="M31.8475-71.79C32.9075-72.85 34.6175-72.85 35.6675-71.79L62.1975-45.27L88.7275-71.79C89.7775-72.85 91.4875-72.85 92.5475-71.79C93.5975-70.74 93.5975-69.03 92.5475-67.98L64.1075-39.54C63.0475-38.48 61.3475-38.48 60.2875-39.54L31.8475-67.98C30.7975-69.03 30.7975-70.74 31.8475-71.79Z"/>
   <path class="hierarchical-1:primary SFSymbolsPreview212121" d="M31.8475-31.98C32.9075-33.04 34.6175-33.04 35.6675-31.98L62.1975-5.45L88.7275-31.98C89.7775-33.04 91.4875-33.04 92.5475-31.98C93.5975-30.93 93.5975-29.22 92.5475-28.16L64.1075 0.27C63.0475 1.33 61.3475 1.33 60.2875 0.27L31.8475-28.16C30.7975-29.22 30.7975-30.93 31.8475-31.98Z"/>
  </g>
  <g id="Thin-L" transform="matrix(1 0 0 1 795.43 1556)">
   <path class="hierarchical-0:secondary SFSymbolsPreview4D4D4D" d="M31.543-70.845C32.188-71.495 33.232-71.495 33.877-70.845L61.148-43.575L88.418-70.845C89.063-71.495 90.107-71.495 90.752-70.845C91.396-70.205 91.396-69.155 90.752-68.515L62.314-40.075C61.67-39.435 60.625-39.435 59.981-40.075L31.543-68.515C30.899-69.155 30.899-70.205 31.543-70.845Z"/>
   <path class="hierarchical-1:primary SFSymbolsPreview212121" d="M31.543-31.035C32.188-31.675 33.232-31.675 33.877-31.035L61.148-3.765L88.418-31.035C89.063-31.675 90.107-31.675 90.752-31.035C91.396-30.395 91.396-29.345 90.752-28.705L62.314-0.265C61.67 0.385 60.625 0.385 59.981-0.265L31.543-28.705C30.899-29.345 30.899-30.395 31.543-31.035Z"/>
  </g>
  <g id="Ultralight-L" transform="matrix(1 0 0 1 499.268 1556)">
   <path class="hierarchical-0:secondary SFSymbolsPreview4D4D4D" d="M31.3825-70.345C31.8125-70.775 32.5085-70.775 32.9385-70.345L60.5975-42.685L88.2575-70.345C88.6875-70.775 89.3835-70.775 89.8135-70.345C90.2425-69.915 90.2425-69.225 89.8135-68.795L61.3755-40.355C60.9465-39.925 60.2495-39.925 59.8205-40.355L31.3825-68.795C30.9525-69.225 30.9525-69.915 31.3825-70.345Z"/>
   <path class="hierarchical-1:primary SFSymbolsPreview212121" d="M31.3825-30.535C31.8125-30.965 32.5085-30.965 32.9385-30.535L60.5975-2.875L88.2575-30.535C88.6875-30.965 89.3835-30.965 89.8135-30.535C90.2425-30.105 90.2425-29.405 89.8135-28.975L61.3755-0.545C60.9465-0.115 60.2495-0.115 59.8205-0.545L31.3825-28.975C30.9525-29.405 30.9525-30.105 31.3825-30.535Z"/>
  </g>
  <g id="Black-M" transform="matrix(1 0 0 1 2873.08 1126)">
   <path class="hierarchical-0:secondary SFSymbolsPreview4D4D4D" d="M33.1375-68.415C35.9075-71.185 40.4075-71.185 43.1775-68.415L60.4675-51.115L77.7675-68.415C80.5375-71.185 85.0275-71.185 87.8075-68.415C90.5775-65.635 90.5775-61.145 87.8075-58.375L65.4975-36.055C62.7175-33.285 58.2275-33.285 55.4475-36.055L33.1375-58.375C30.3675-61.145 30.3675-65.635 33.1375-68.415Z"/>
   <path class="hierarchical-1:primary SFSymbolsPreview212121" d="M33.1375-37.175C35.9075-39.945 40.4075-39.945 43.1775-37.175L60.4675-19.885L77.7675-37.175C80.5375-39.945 85.0275-39.945 87.8075-37.175C90.5775-34.395 90.5775-29.905 87.8075-27.135L65.4975-4.815C64.1575-3.485 62.3575-2.735 60.4675-2.735C58.5875-2.735 56.7875-3.485 55.4475-4.815L33.1375-27.135C30.3675-29.905 30.3675-34.395 33.1375-37.175Z"/>
  </g>
  <g id="Heavy-M" transform="matrix(1 0 0 1 2577.22 1126)">
   <path class="hierarchical-0:secondary SFSymbolsPreview4D4D4D" d="M32.89-67.65C35.33-70.09 39.29-70.09 41.73-67.65L59.62-49.75L77.52-67.65C79.96-70.09 83.91-70.09 86.36-67.65C88.8-65.2 88.8-61.25 86.36-58.81L64.04-36.49C61.6-34.05 57.64-34.05 55.2-36.49L32.89-58.81C30.45-61.25 30.45-65.2 32.89-67.65Z"/>
   <path class="hierarchical-1:primary SFSymbolsPreview212121" d="M32.89-36.41C35.33-38.85 39.29-38.85 41.73-36.41L59.62-18.51L77.52-36.41C79.96-38.85 83.91-38.85 86.36-36.41C88.8-33.97 88.8-30.01 86.36-27.57L64.04-5.26C62.87-4.08 61.28-3.43 59.62-3.43C57.97-3.43 56.38-4.08 55.2-5.26L32.89-27.57C30.45-30.01 30.45-33.97 32.89-36.41Z"/>
  </g>
  <g id="Bold-M" transform="matrix(1 0 0 1 2281.46 1126)">
   <path class="hierarchical-0:secondary SFSymbolsPreview4D4D4D" d="M32.6125-66.785C34.6825-68.855 38.0425-68.855 40.1125-66.785L58.6725-48.225L77.2425-66.785C79.3125-68.855 82.6625-68.855 84.7325-66.785C86.8025-64.715 86.8025-61.355 84.7325-59.295L62.4225-36.975C60.3525-34.905 57.0025-34.905 54.9325-36.975L32.6125-59.295C30.5425-61.355 30.5425-64.715 32.6125-66.785Z"/>
   <path class="hierarchical-1:primary SFSymbolsPreview212121" d="M32.6125-35.545C34.6825-37.615 38.0425-37.615 40.1125-35.545L58.6725-16.985L77.2425-35.545C79.3125-37.615 82.6625-37.615 84.7325-35.545C86.8025-33.475 86.8025-30.125 84.7325-28.055L62.4225-5.745C61.4325-4.745 60.0825-4.185 58.6725-4.185C57.2725-4.185 55.9225-4.745 54.9325-5.745L32.6125-28.055C30.5425-30.125 30.5425-33.475 32.6125-35.545Z"/>
  </g>
  <g id="Semibold-M" transform="matrix(1 0 0 1 1985.4 1126)">
   <path class="hierarchical-0:secondary SFSymbolsPreview4D4D4D" d="M32.425-66.2C34.245-68.02 37.185-68.02 39.005-66.2L58.025-47.18L77.045-66.2C78.865-68.02 81.805-68.02 83.625-66.2C85.445-64.39 85.445-61.44 83.625-59.63L61.315-37.31C59.495-35.5 56.555-35.5 54.735-37.31L32.425-59.63C30.605-61.44 30.605-64.39 32.425-66.2Z"/>
   <path class="hierarchical-1:primary SFSymbolsPreview212121" d="M32.425-34.96C34.245-36.78 37.185-36.78 39.005-34.96L58.025-15.94L77.045-34.96C78.865-36.78 81.805-36.78 83.625-34.96C85.445-33.15 85.445-30.2 83.625-28.39L61.315-6.08C60.445-5.2 59.255-4.71 58.025-4.71C56.795-4.71 55.605-5.2 54.735-6.08L32.425-28.39C30.605-30.2 30.605-33.15 32.425-34.96Z"/>
  </g>
  <g id="Medium-M" transform="matrix(1 0 0 1 1689.19 1126)">
   <path class="hierarchical-0:secondary SFSymbolsPreview4D4D4D" d="M32.275-65.75C33.895-67.37 36.525-67.37 38.145-65.75L57.525-46.37L76.905-65.75C78.525-67.37 81.155-67.37 82.775-65.75C84.395-64.13 84.395-61.5 82.775-59.88L60.455-37.57C58.835-35.95 56.215-35.95 54.595-37.57L32.275-59.88C30.655-61.5 30.655-64.13 32.275-65.75Z"/>
   <path class="hierarchical-1:primary SFSymbolsPreview212121" d="M32.275-34.51C33.895-36.13 36.525-36.13 38.145-34.51L57.525-15.13L76.905-34.51C78.525-36.13 81.155-36.13 82.775-34.51C84.395-32.89 84.395-30.26 82.775-28.64L60.455-6.33C59.685-5.55 58.625-5.11 57.525-5.11C56.425-5.11 55.365-5.55 54.595-6.33L32.275-28.64C30.655-30.26 30.655-32.89 32.275-34.51Z"/>
  </g>
  <g id="Regular-M" transform="matrix(1 0 0 1 1393.13 1126)">
   <path class="hierarchical-0:secondary SFSymbolsPreview4D4D4D" d="M32.08-65.165C33.45-66.535 35.67-66.535 37.03-65.165L56.87-45.325L76.71-65.165C78.07-66.535 80.29-66.535 81.66-65.165C83.02-63.795 83.02-61.585 81.66-60.215L59.34-37.905C57.98-36.535 55.76-36.535 54.4-37.905L32.08-60.215C30.72-61.585 30.72-63.795 32.08-65.165Z"/>
   <path class="hierarchical-1:primary SFSymbolsPreview212121" d="M32.08-33.925C33.45-35.295 35.67-35.295 37.03-33.925L56.87-14.085L76.71-33.925C78.07-35.295 80.29-35.295 81.66-33.925C83.02-32.555 83.02-30.345 81.66-28.975L59.34-6.665C58.69-6.005 57.8-5.635 56.87-5.635C55.94-5.635 55.05-6.005 54.4-6.665L32.08-28.975C30.72-30.345 30.72-32.555 32.08-33.925Z"/>
  </g>
  <g id="Light-M" transform="matrix(1 0 0 1 1097.21 1126)">
   <path class="hierarchical-0:secondary SFSymbolsPreview4D4D4D" d="M31.855-64.44C32.905-65.5 34.615-65.5 35.675-64.44L56.075-44.04L76.475-64.44C77.535-65.5 79.245-65.5 80.295-64.44C81.355-63.39 81.355-61.68 80.295-60.62L57.985-38.31C56.925-37.26 55.225-37.26 54.165-38.31L31.855-60.62C30.795-61.68 30.795-63.39 31.855-64.44Z"/>
   <path class="hierarchical-1:primary SFSymbolsPreview212121" d="M31.855-33.21C32.905-34.26 34.615-34.26 35.675-33.21L56.075-12.8L76.475-33.21C77.535-34.26 79.245-34.26 80.295-33.21C81.355-32.15 81.355-30.44 80.295-29.39L57.985-7.08C57.475-6.57 56.795-6.28 56.075-6.28C55.355-6.28 54.675-6.57 54.165-7.08L31.855-29.39C30.795-30.44 30.795-32.15 31.855-33.21Z"/>
  </g>
  <g id="Thin-M" transform="matrix(1 0 0 1 801.555 1126)">
   <path class="hierarchical-0:secondary SFSymbolsPreview4D4D4D" d="M31.543-63.495C32.188-64.145 33.232-64.145 33.877-63.495L55.023-42.355L76.168-63.495C76.813-64.145 77.857-64.145 78.502-63.495C79.146-62.855 79.146-61.805 78.502-61.165L56.189-38.855C55.545-38.205 54.5-38.205 53.856-38.855L31.543-61.165C30.899-61.805 30.899-62.855 31.543-63.495Z"/>
   <path class="hierarchical-1:primary SFSymbolsPreview212121" d="M31.543-32.255C32.188-32.905 33.232-32.905 33.877-32.255L55.023-11.115L76.168-32.255C76.813-32.905 77.857-32.905 78.502-32.255C79.146-31.615 79.146-30.565 78.502-29.925L56.189-7.615C55.88-7.305 55.46-7.125 55.023-7.125C54.585-7.125 54.165-7.305 53.856-7.615L31.543-29.925C30.899-30.565 30.899-31.615 31.543-32.255Z"/>
  </g>
  <g id="Ultralight-M" transform="matrix(1 0 0 1 505.393 1126)">
   <path class="hierarchical-0:secondary SFSymbolsPreview4D4D4D" d="M31.3825-62.995C31.8125-63.425 32.5085-63.425 32.9385-62.995L54.4725-41.465L76.0075-62.995C76.4375-63.425 77.1335-63.425 77.5635-62.995C77.9925-62.565 77.9925-61.875 77.5635-61.445L55.2505-39.125C54.8215-38.695 54.1245-38.695 53.6955-39.125L31.3825-61.445C30.9525-61.875 30.9525-62.565 31.3825-62.995Z"/>
   <path class="hierarchical-1:primary SFSymbolsPreview212121" d="M31.3825-31.755C31.8125-32.185 32.5085-32.185 32.9385-31.755L54.4725-10.225L76.0075-31.755C76.4375-32.185 77.1335-32.185 77.5635-31.755C77.9925-31.325 77.9925-30.635 77.5635-30.205L55.2505-7.885C55.0445-7.685 54.7645-7.565 54.4725-7.565C54.1815-7.565 53.9015-7.685 53.6955-7.885L31.3825-30.205C30.9525-30.635 30.9525-31.325 31.3825-31.755Z"/>
  </g>
  <g id="Black-S" transform="matrix(1 0 0 1 2877.9 696)">
   <path class="hierarchical-0:secondary SFSymbolsPreview4D4D4D" d="M33.1375-62.7386C35.9075-65.5116 40.4075-65.5116 43.1775-62.7386L55.6575-50.2595L68.1375-62.7386C70.9075-65.5116 75.4075-65.5116 78.1775-62.7386C80.9475-59.9655 80.9475-55.4705 78.1775-52.6976L60.6775-35.1976C57.9075-32.4246 53.4075-32.4246 50.6375-35.1976L33.1375-52.6976C30.3675-55.4705 30.3675-59.9655 33.1375-62.7386Z"/>
   <path class="hierarchical-1:primary SFSymbolsPreview212121" d="M33.1375-38.2386C35.9075-41.0116 40.4075-41.0116 43.1775-38.2386L55.6575-25.7595L68.1375-38.2386C70.9075-41.0116 75.4075-41.0116 78.1775-38.2386C80.9475-35.4655 80.9475-30.9705 78.1775-28.1976L60.6775-10.6976C57.9075-7.9245 53.4075-7.9245 50.6375-10.6976L33.1375-28.1976C30.3675-30.9705 30.3675-35.4655 33.1375-38.2386Z"/>
  </g>
  <g id="Heavy-S" transform="matrix(1 0 0 1 2582.03 696)">
   <path class="hierarchical-0:secondary SFSymbolsPreview4D4D4D" d="M32.89-61.9715C35.33-64.4124 39.29-64.4124 41.73-61.9715L54.81-48.8914L67.89-61.9715C70.33-64.4124 74.29-64.4124 76.73-61.9715C79.17-59.5314 79.17-55.5734 76.73-53.1334L59.23-35.6334C56.79-33.1925 52.83-33.1925 50.39-35.6334L32.89-53.1334C30.45-55.5734 30.45-59.5314 32.89-61.9715Z"/>
   <path class="hierarchical-1:primary SFSymbolsPreview212121" d="M32.89-37.4715C35.33-39.9124 39.29-39.9124 41.73-37.4715L54.81-24.3914L67.89-37.4715C70.33-39.9124 74.29-39.9124 76.73-37.4715C79.17-35.0314 79.17-31.0734 76.73-28.6334L59.23-11.1334C56.79-8.6925 52.83-8.6925 50.39-11.1334L32.89-28.6334C30.45-31.0734 30.45-35.0314 32.89-37.4715Z"/>
  </g>
  <g id="Bold-S" transform="matrix(1 0 0 1 2286.28 696)">
   <path class="hierarchical-0:secondary SFSymbolsPreview4D4D4D" d="M32.6125-60.91C34.6825-62.98 38.0325-62.98 40.1025-60.91L53.8525-47.158L67.6125-60.91C69.6825-62.98 73.0325-62.98 75.1025-60.91C77.1725-58.841 77.1725-55.485 75.1025-53.415L57.6025-35.915C55.5325-33.845 52.1825-33.845 50.1125-35.915L32.6125-53.415C30.5425-55.485 30.5425-58.841 32.6125-60.91Z"/>
   <path class="hierarchical-1:primary SFSymbolsPreview212121" d="M32.6125-36.41C34.6825-38.48 38.0325-38.48 40.1025-36.41L53.8525-22.658L67.6125-36.41C69.6825-38.48 73.0325-38.48 75.1025-36.41C77.1725-34.341 77.1725-30.985 75.1025-28.915L57.6025-11.415C55.5325-9.345 52.1825-9.345 50.1125-11.415L32.6125-28.915C30.5425-30.985 30.5425-34.341 32.6125-36.41Z"/>
  </g>
  <g id="Semibold-S" transform="matrix(1 0 0 1 1990.21 696)">
   <path class="hierarchical-0:secondary SFSymbolsPreview4D4D4D" d="M32.4175-60.323C34.2375-62.139 37.1775-62.139 38.9975-60.323L53.2075-46.111L67.4175-60.323C69.2375-62.139 72.1775-62.139 73.9975-60.323C75.8075-58.507 75.8075-55.563 73.9975-53.747L56.4975-36.247C54.6775-34.431 51.7375-34.431 49.9175-36.247L32.4175-53.747C30.6075-55.563 30.6075-58.507 32.4175-60.323Z"/>
   <path class="hierarchical-1:primary SFSymbolsPreview212121" d="M32.4175-35.823C34.2375-37.639 37.1775-37.639 38.9975-35.823L53.2075-21.611L67.4175-35.823C69.2375-37.639 72.1775-37.639 73.9975-35.823C75.8075-34.007 75.8075-31.063 73.9975-29.247L56.4975-11.747C54.6775-9.931 51.7375-9.931 49.9175-11.747L32.4175-29.247C30.6075-31.063 30.6075-34.007 32.4175-35.823Z"/>
  </g>
  <g id="Medium-S" transform="matrix(1 0 0 1 1694 696)">
   <path class="hierarchical-0:secondary SFSymbolsPreview4D4D4D" d="M32.2825-59.8726C33.9025-61.4936 36.5225-61.4936 38.1425-59.8726L52.7125-45.3066L67.2825-59.8726C68.9025-61.4936 71.5225-61.4936 73.1425-59.8726C74.7625-58.2516 74.7625-55.6245 73.1425-54.0036L55.6425-36.5036C54.0225-34.8826 51.4025-34.8826 49.7825-36.5036L32.2825-54.0036C30.6525-55.6245 30.6525-58.2516 32.2825-59.8726Z"/>
   <path class="hierarchical-1:primary SFSymbolsPreview212121" d="M32.2825-35.3726C33.9025-36.9936 36.5225-36.9936 38.1425-35.3726L52.7125-20.8066L67.2825-35.3726C68.9025-36.9936 71.5225-36.9936 73.1425-35.3726C74.7625-33.7516 74.7625-31.1245 73.1425-29.5036L55.6425-12.0036C54.0225-10.3825 51.4025-10.3825 49.7825-12.0036L32.2825-29.5036C30.6525-31.1245 30.6525-33.7516 32.2825-35.3726Z"/>
  </g>
  <g id="Regular-S" transform="matrix(1 0 0 1 1397.94 696)">
   <path class="hierarchical-0:secondary SFSymbolsPreview4D4D4D" d="M32.0875-59.2856C33.4475-60.6526 35.6675-60.6526 37.0275-59.2856L52.0575-44.2606L67.0875-59.2856C68.4475-60.6526 70.6675-60.6526 72.0275-59.2856C73.3975-57.9186 73.3975-55.7026 72.0275-54.3356L54.5275-36.8356C53.1675-35.4686 50.9475-35.4686 49.5875-36.8356L32.0875-54.3356C30.7175-55.7026 30.7175-57.9186 32.0875-59.2856Z"/>
   <path class="hierarchical-1:primary SFSymbolsPreview212121" d="M32.0875-34.7856C33.4475-36.1526 35.6675-36.1526 37.0275-34.7856L52.0575-19.7606L67.0875-34.7856C68.4475-36.1526 70.6675-36.1526 72.0275-34.7856C73.3975-33.4186 73.3975-31.2026 72.0275-29.8356L54.5275-12.3356C53.1675-10.9686 50.9475-10.9686 49.5875-12.3356L32.0875-29.8356C30.7175-31.2026 30.7175-33.4186 32.0875-34.7856Z"/>
  </g>
  <g id="Light-S" transform="matrix(1 0 0 1 1102.03 696)">
   <path class="hierarchical-0:secondary SFSymbolsPreview4D4D4D" d="M31.8475-58.5625C32.9075-59.6174 34.6075-59.6174 35.6675-58.5625L51.2575-42.9725L66.8475-58.5625C67.9075-59.6174 69.6075-59.6174 70.6675-58.5625C71.7175-57.5084 71.7175-55.7985 70.6675-54.7444L53.1675-37.2444C52.1075-36.1904 50.4075-36.1904 49.3475-37.2444L31.8475-54.7444C30.7975-55.7985 30.7975-57.5084 31.8475-58.5625Z"/>
   <path class="hierarchical-1:primary SFSymbolsPreview212121" d="M31.8475-34.0625C32.9075-35.1174 34.6075-35.1174 35.6675-34.0625L51.2575-18.4725L66.8475-34.0625C67.9075-35.1174 69.6075-35.1174 70.6675-34.0625C71.7175-33.0084 71.7175-31.2985 70.6675-30.2444L53.1675-12.7444C52.1075-11.6904 50.4075-11.6904 49.3475-12.7444L31.8475-30.2444C30.7975-31.2985 30.7975-33.0084 31.8475-34.0625Z"/>
  </g>
  <g id="Thin-S" transform="matrix(1 0 0 1 806.367 696)">
   <path class="hierarchical-0:secondary SFSymbolsPreview4D4D4D" d="M31.543-57.616C32.187-58.26 33.232-58.26 33.876-57.616L50.21-41.283L66.543-57.616C67.187-58.26 68.232-58.26 68.876-57.616C69.521-56.972 69.521-55.927 68.876-55.283L51.376-37.783C50.732-37.138 49.687-37.138 49.043-37.783L31.543-55.283C30.899-55.927 30.899-56.972 31.543-57.616Z"/>
   <path class="hierarchical-1:primary SFSymbolsPreview212121" d="M31.543-33.116C32.187-33.76 33.232-33.76 33.876-33.116L50.21-16.783L66.543-33.116C67.187-33.76 68.232-33.76 68.876-33.116C69.521-32.472 69.521-31.427 68.876-30.783L51.376-13.283C50.732-12.638 49.687-12.638 49.043-13.283L31.543-30.783C30.899-31.427 30.899-32.472 31.543-33.116Z"/>
  </g>
  <g id="Ultralight-S" transform="matrix(1 0 0 1 510.206 696)">
   <path class="hierarchical-0:secondary SFSymbolsPreview4D4D4D" d="M31.3825-57.119C31.8115-57.549 32.5085-57.549 32.9375-57.119L49.6595-40.397L66.3825-57.119C66.8115-57.549 67.5085-57.549 67.9375-57.119C68.3675-56.69 68.3675-55.993 67.9375-55.564L50.4375-38.064C50.0085-37.634 49.3115-37.634 48.8825-38.064L31.3825-55.564C30.9525-55.993 30.9525-56.69 31.3825-57.119Z"/>
   <path class="hierarchical-1:primary SFSymbolsPreview212121" d="M31.3825-32.619C31.8115-33.049 32.5085-33.049 32.9375-32.619L49.6595-15.897L66.3825-32.619C66.8115-33.049 67.5085-33.049 67.9375-32.619C68.3675-32.19 68.3675-31.493 67.9375-31.064L50.4375-13.564C50.0085-13.134 49.3115-13.134 48.8825-13.564L31.3825-31.064C30.9525-31.493 30.9525-32.19 31.3825-32.619Z"/>
  </g>
 </g>
</svg>
