<?xml version="1.0" encoding="UTF-8"?>
<!--Generator: Apple Native CoreSVG 175-->
<!DOCTYPE svg
PUBLIC "-//W3C//DTD SVG 1.1//EN"
       "http://www.w3.org/Graphics/SVG/1.1/DTD/svg11.dtd">
<svg version="1.1" xmlns="http://www.w3.org/2000/svg" xmlns:xlink="http://www.w3.org/1999/xlink" width="3300" height="2200">
 <!--glyph: "", point size: 100.0, font version: "17.0d12e1", template writer version: "65.1"-->
 <style>.hierarchical-0:secondary {fill:#4D4D4D}
.hierarchical-1:primary {fill:#212121}

.SFSymbolsPreview212121 {fill:#212121;opacity:1.0}
.SFSymbolsPreview4D4D4D {fill:#4D4D4D;opacity:1.0}
</style>
 <g id="Notes">
  <rect height="2200" id="artboard" style="fill:white;opacity:1" width="3300" x="0" y="0"/>
  <line style="fill:none;stroke:black;opacity:1;stroke-width:0.5;" x1="263" x2="3036" y1="292" y2="292"/>
  <text style="stroke:none;fill:black;font-family:sans-serif;font-size:13;font-weight:bold;" transform="matrix(1 0 0 1 263 322)">Weight/Scale Variations</text>
  <text style="stroke:none;fill:black;font-family:sans-serif;font-size:13;text-anchor:middle;" transform="matrix(1 0 0 1 559.711 322)">Ultralight</text>
  <text style="stroke:none;fill:black;font-family:sans-serif;font-size:13;text-anchor:middle;" transform="matrix(1 0 0 1 856.422 322)">Thin</text>
  <text style="stroke:none;fill:black;font-family:sans-serif;font-size:13;text-anchor:middle;" transform="matrix(1 0 0 1 1153.13 322)">Light</text>
  <text style="stroke:none;fill:black;font-family:sans-serif;font-size:13;text-anchor:middle;" transform="matrix(1 0 0 1 1449.84 322)">Regular</text>
  <text style="stroke:none;fill:black;font-family:sans-serif;font-size:13;text-anchor:middle;" transform="matrix(1 0 0 1 1746.56 322)">Medium</text>
  <text style="stroke:none;fill:black;font-family:sans-serif;font-size:13;text-anchor:middle;" transform="matrix(1 0 0 1 2043.27 322)">Semibold</text>
  <text style="stroke:none;fill:black;font-family:sans-serif;font-size:13;text-anchor:middle;" transform="matrix(1 0 0 1 2339.98 322)">Bold</text>
  <text style="stroke:none;fill:black;font-family:sans-serif;font-size:13;text-anchor:middle;" transform="matrix(1 0 0 1 2636.69 322)">Heavy</text>
  <text style="stroke:none;fill:black;font-family:sans-serif;font-size:13;text-anchor:middle;" transform="matrix(1 0 0 1 2933.4 322)">Black</text>
  <line style="fill:none;stroke:black;opacity:1;stroke-width:0.5;" x1="263" x2="3036" y1="1903" y2="1903"/>
  <g transform="matrix(1 0 0 1 263 1933)">
   <path d="M9.24805 0.830078Q10.8691 0.830078 12.2949 0.214844Q13.7207-0.400391 14.8096-1.49414Q15.8984-2.58789 16.5186-4.01367Q17.1387-5.43945 17.1387-7.05078Q17.1387-8.66211 16.5186-10.0879Q15.8984-11.5137 14.8047-12.6074Q13.7109-13.7012 12.2852-14.3164Q10.8594-14.9316 9.23828-14.9316Q7.62695-14.9316 6.20117-14.3164Q4.77539-13.7012 3.69141-12.6074Q2.60742-11.5137 1.9873-10.0879Q1.36719-8.66211 1.36719-7.05078Q1.36719-5.43945 1.9873-4.01367Q2.60742-2.58789 3.69629-1.49414Q4.78516-0.400391 6.21094 0.214844Q7.63672 0.830078 9.24805 0.830078ZM9.24805-0.654297Q7.91992-0.654297 6.7627-1.14746Q5.60547-1.64062 4.73145-2.51953Q3.85742-3.39844 3.36426-4.56055Q2.87109-5.72266 2.87109-7.05078Q2.87109-8.37891 3.35938-9.54102Q3.84766-10.7031 4.72168-11.582Q5.5957-12.4609 6.75293-12.9541Q7.91016-13.4473 9.23828-13.4473Q10.5762-13.4473 11.7334-12.9541Q12.8906-12.4609 13.7695-11.582Q14.6484-10.7031 15.1465-9.54102Q15.6445-8.37891 15.6445-7.05078Q15.6445-5.72266 15.1514-4.56055Q14.6582-3.39844 13.7842-2.51953Q12.9102-1.64062 11.748-1.14746Q10.5859-0.654297 9.24805-0.654297ZM5.6543-7.05078Q5.6543-6.72852 5.85938-6.52832Q6.06445-6.32812 6.40625-6.32812L8.51562-6.32812L8.51562-4.20898Q8.51562-3.88672 8.71094-3.67676Q8.90625-3.4668 9.23828-3.4668Q9.56055-3.4668 9.77051-3.67676Q9.98047-3.88672 9.98047-4.20898L9.98047-6.32812L12.0898-6.32812Q12.4219-6.32812 12.627-6.52832Q12.832-6.72852 12.832-7.05078Q12.832-7.38281 12.627-7.58789Q12.4219-7.79297 12.0898-7.79297L9.98047-7.79297L9.98047-9.90234Q9.98047-10.2344 9.77051-10.4443Q9.56055-10.6543 9.23828-10.6543Q8.90625-10.6543 8.71094-10.4443Q8.51562-10.2344 8.51562-9.90234L8.51562-7.79297L6.40625-7.79297Q6.06445-7.79297 5.85938-7.58789Q5.6543-7.38281 5.6543-7.05078Z"/>
  </g>
  <g transform="matrix(1 0 0 1 281.867 1933)">
   <path d="M11.709 2.91016Q13.75 2.91016 15.5518 2.12891Q17.3535 1.34766 18.7305-0.0292969Q20.1074-1.40625 20.8887-3.20801Q21.6699-5.00977 21.6699-7.05078Q21.6699-9.0918 20.8887-10.8936Q20.1074-12.6953 18.7305-14.0723Q17.3535-15.4492 15.5469-16.2305Q13.7402-17.0117 11.6992-17.0117Q9.6582-17.0117 7.85645-16.2305Q6.05469-15.4492 4.68262-14.0723Q3.31055-12.6953 2.5293-10.8936Q1.74805-9.0918 1.74805-7.05078Q1.74805-5.00977 2.5293-3.20801Q3.31055-1.40625 4.6875-0.0292969Q6.06445 1.34766 7.86621 2.12891Q9.66797 2.91016 11.709 2.91016ZM11.709 1.25Q9.98047 1.25 8.47656 0.605469Q6.97266-0.0390625 5.83496-1.17676Q4.69727-2.31445 4.05762-3.81836Q3.41797-5.32227 3.41797-7.05078Q3.41797-8.7793 4.05762-10.2832Q4.69727-11.7871 5.83008-12.9297Q6.96289-14.0723 8.4668-14.7119Q9.9707-15.3516 11.6992-15.3516Q13.4277-15.3516 14.9316-14.7119Q16.4355-14.0723 17.5781-12.9297Q18.7207-11.7871 19.3652-10.2832Q20.0098-8.7793 20.0098-7.05078Q20.0098-5.32227 19.3701-3.81836Q18.7305-2.31445 17.5928-1.17676Q16.4551-0.0390625 14.9463 0.605469Q13.4375 1.25 11.709 1.25ZM7.17773-7.05078Q7.17773-6.69922 7.41211-6.47461Q7.64648-6.25 8.01758-6.25L10.8887-6.25L10.8887-3.36914Q10.8887-2.99805 11.1133-2.76855Q11.3379-2.53906 11.6895-2.53906Q12.0605-2.53906 12.29-2.76855Q12.5195-2.99805 12.5195-3.36914L12.5195-6.25L15.4004-6.25Q15.7715-6.25 16.001-6.47461Q16.2305-6.69922 16.2305-7.05078Q16.2305-7.42188 16.001-7.65137Q15.7715-7.88086 15.4004-7.88086L12.5195-7.88086L12.5195-10.752Q12.5195-11.1328 12.29-11.3623Q12.0605-11.5918 11.6895-11.5918Q11.3379-11.5918 11.1133-11.3574Q10.8887-11.123 10.8887-10.752L10.8887-7.88086L8.01758-7.88086Q7.63672-7.88086 7.40723-7.65137Q7.17773-7.42188 7.17773-7.05078Z"/>
  </g>
  <g transform="matrix(1 0 0 1 305.646 1933)">
   <path d="M14.9707 5.66406Q17.0605 5.66406 18.96 5.01465Q20.8594 4.36523 22.4512 3.19336Q24.043 2.02148 25.2197 0.429688Q26.3965-1.16211 27.0459-3.06641Q27.6953-4.9707 27.6953-7.05078Q27.6953-9.14062 27.0459-11.04Q26.3965-12.9395 25.2197-14.5312Q24.043-16.123 22.4512-17.2998Q20.8594-18.4766 18.9551-19.126Q17.0508-19.7754 14.9609-19.7754Q12.8711-19.7754 10.9717-19.126Q9.07227-18.4766 7.48535-17.2998Q5.89844-16.123 4.72168-14.5312Q3.54492-12.9395 2.90039-11.04Q2.25586-9.14062 2.25586-7.05078Q2.25586-4.9707 2.90527-3.06641Q3.55469-1.16211 4.72656 0.429688Q5.89844 2.02148 7.49023 3.19336Q9.08203 4.36523 10.9814 5.01465Q12.8809 5.66406 14.9707 5.66406ZM14.9707 3.84766Q13.1641 3.84766 11.5283 3.2959Q9.89258 2.74414 8.53516 1.74805Q7.17773 0.751953 6.17676-0.610352Q5.17578-1.97266 4.62891-3.6084Q4.08203-5.24414 4.08203-7.05078Q4.08203-8.86719 4.62891-10.5029Q5.17578-12.1387 6.17188-13.501Q7.16797-14.8633 8.52539-15.8594Q9.88281-16.8555 11.5186-17.4023Q13.1543-17.9492 14.9609-17.9492Q16.7773-17.9492 18.4131-17.4023Q20.0488-16.8555 21.4111-15.8594Q22.7734-14.8633 23.7695-13.501Q24.7656-12.1387 25.3174-10.5029Q25.8691-8.86719 25.8691-7.05078Q25.8789-5.24414 25.332-3.6084Q24.7852-1.97266 23.7842-0.610352Q22.7832 0.751953 21.4209 1.74805Q20.0586 2.74414 18.4229 3.2959Q16.7871 3.84766 14.9707 3.84766ZM9.19922-7.05078Q9.19922-6.66992 9.45801-6.4209Q9.7168-6.17188 10.1172-6.17188L14.0625-6.17188L14.0625-2.2168Q14.0625-1.81641 14.3115-1.55762Q14.5605-1.29883 14.9512-1.29883Q15.3516-1.29883 15.6104-1.55273Q15.8691-1.80664 15.8691-2.2168L15.8691-6.17188L19.8242-6.17188Q20.2246-6.17188 20.4785-6.4209Q20.7324-6.66992 20.7324-7.05078Q20.7324-7.46094 20.4785-7.71484Q20.2246-7.96875 19.8242-7.96875L15.8691-7.96875L15.8691-11.9141Q15.8691-12.3242 15.6104-12.583Q15.3516-12.8418 14.9512-12.8418Q14.5605-12.8418 14.3115-12.583Q14.0625-12.3242 14.0625-11.9141L14.0625-7.96875L10.1172-7.96875Q9.70703-7.96875 9.45312-7.71484Q9.19922-7.46094 9.19922-7.05078Z"/>
  </g>
  <text style="stroke:none;fill:black;font-family:sans-serif;font-size:13;font-weight:bold;" transform="matrix(1 0 0 1 263 1953)">Design Variations</text>
  <text style="stroke:none;fill:black;font-family:sans-serif;font-size:13;" transform="matrix(1 0 0 1 263 1971)">Symbols are supported in up to nine weights and three scales.</text>
  <text style="stroke:none;fill:black;font-family:sans-serif;font-size:13;" transform="matrix(1 0 0 1 263 1989)">For optimal layout with text and other symbols, vertically align</text>
  <text style="stroke:none;fill:black;font-family:sans-serif;font-size:13;" transform="matrix(1 0 0 1 263 2007)">symbols with the adjacent text.</text>
  <line style="fill:none;stroke:#00AEEF;stroke-width:0.5;opacity:1.0;" x1="776" x2="776" y1="1919" y2="1933"/>
  <g transform="matrix(1 0 0 1 776 1933)">
   <path d="M3.31055 0.15625Q3.70117 0.15625 3.91602-0.00976562Q4.13086-0.175781 4.26758-0.585938L5.52734-4.0332L11.2891-4.0332L12.5488-0.585938Q12.6855-0.175781 12.9004-0.00976562Q13.1152 0.15625 13.4961 0.15625Q13.8867 0.15625 14.1162-0.0585938Q14.3457-0.273438 14.3457-0.644531Q14.3457-0.869141 14.2383-1.17188L9.6582-13.3691Q9.48242-13.8184 9.17969-14.043Q8.87695-14.2676 8.4082-14.2676Q7.5-14.2676 7.17773-13.3789L2.59766-1.16211Q2.49023-0.859375 2.49023-0.634766Q2.49023-0.263672 2.70996-0.0537109Q2.92969 0.15625 3.31055 0.15625ZM6.00586-5.51758L8.37891-12.0898L8.42773-12.0898L10.8008-5.51758Z"/>
  </g>
  <line style="fill:none;stroke:#00AEEF;stroke-width:0.5;opacity:1.0;" x1="793.197" x2="793.197" y1="1919" y2="1933"/>
  <text style="stroke:none;fill:black;font-family:sans-serif;font-size:13;font-weight:bold;" transform="matrix(1 0 0 1 776 1953)">Margins</text>
  <text style="stroke:none;fill:black;font-family:sans-serif;font-size:13;" transform="matrix(1 0 0 1 776 1971)">Leading and trailing margins on the left and right side of each symbol</text>
  <text style="stroke:none;fill:black;font-family:sans-serif;font-size:13;" transform="matrix(1 0 0 1 776 1989)">can be adjusted by modifying the x-location of the margin guidelines.</text>
  <text style="stroke:none;fill:black;font-family:sans-serif;font-size:13;" transform="matrix(1 0 0 1 776 2007)">Modifications are automatically applied proportionally to all</text>
  <text style="stroke:none;fill:black;font-family:sans-serif;font-size:13;" transform="matrix(1 0 0 1 776 2025)">scales and weights.</text>
  <g transform="matrix(1 0 0 1 1289 1933)">
   <path d="M2.8418 1.86523L4.54102 3.57422Q5.18555 4.22852 5.90332 4.17969Q6.62109 4.13086 7.31445 3.35938L18.0078-8.42773L17.041-9.4043L6.42578 2.27539Q6.16211 2.57812 5.89355 2.61719Q5.625 2.65625 5.27344 2.30469L4.10156 1.14258Q3.75 0.791016 3.79395 0.522461Q3.83789 0.253906 4.14062-0.0195312L15.6152-10.8203L14.6387-11.7871L3.04688-0.898438Q2.30469-0.214844 2.25098 0.498047Q2.19727 1.21094 2.8418 1.86523ZM9.25781-16.3281Q8.94531-16.0254 8.90625-15.6348Q8.86719-15.2441 9.04297-14.9512Q9.21875-14.6777 9.55566-14.541Q9.89258-14.4043 10.3809-14.5215Q11.4746-14.7754 12.5977-14.7314Q13.7207-14.6875 14.7949-13.9844L14.209-12.5293Q13.9551-11.9043 14.0674-11.4404Q14.1797-10.9766 14.5801-10.5664L16.875-8.25195Q17.2363-7.88086 17.5781-7.82227Q17.9199-7.76367 18.3398-7.8418L19.4043-8.03711L20.0684-7.36328L20.0293-6.80664Q20-6.43555 20.1221-6.12305Q20.2441-5.81055 20.6055-5.44922L21.3672-4.70703Q21.7285-4.3457 22.1533-4.33105Q22.5781-4.31641 22.9297-4.66797L25.8398-7.58789Q26.1914-7.93945 26.1816-8.35449Q26.1719-8.76953 25.8105-9.13086L25.0391-9.89258Q24.6875-10.2539 24.3799-10.3857Q24.0723-10.5176 23.7109-10.4883L23.1348-10.4395L22.4902-11.0742L22.7344-12.1973Q22.832-12.6172 22.6953-12.9834Q22.5586-13.3496 22.1191-13.7891L19.9219-15.9766Q18.6719-17.2168 17.2607-17.8369Q15.8496-18.457 14.4189-18.4814Q12.9883-18.5059 11.665-17.959Q10.3418-17.4121 9.25781-16.3281ZM10.752-15.957Q11.6602-16.6211 12.7002-16.9043Q13.7402-17.1875 14.8047-17.085Q15.8691-16.9824 16.8701-16.5137Q17.8711-16.0449 18.7012-15.2051L21.1328-12.793Q21.3086-12.6172 21.3525-12.4512Q21.3965-12.2852 21.3379-12.0312L21.0156-10.5469L22.5195-9.0625L23.5059-9.12109Q23.6914-9.13086 23.7891-9.09668Q23.8867-9.0625 24.0332-8.91602L24.6094-8.33984L22.168-5.89844L21.5918-6.47461Q21.4453-6.62109 21.4062-6.71875Q21.3672-6.81641 21.377-7.01172L21.4453-7.98828L19.9512-9.47266L18.4277-9.21875Q18.1836-9.16992 18.042-9.2041Q17.9004-9.23828 17.7148-9.41406L15.7129-11.416Q15.5176-11.5918 15.4932-11.7529Q15.4688-11.9141 15.5859-12.1875L16.4648-14.2773Q15.293-15.3711 13.8281-15.791Q12.3633-16.2109 10.8398-15.7617Q10.7227-15.7324 10.6885-15.8057Q10.6543-15.8789 10.752-15.957Z"/>
  </g>
  <text style="stroke:none;fill:black;font-family:sans-serif;font-size:13;font-weight:bold;" transform="matrix(1 0 0 1 1289 1953)">Exporting</text>
  <text style="stroke:none;fill:black;font-family:sans-serif;font-size:13;" transform="matrix(1 0 0 1 1289 1971)">Symbols should be outlined when exporting to ensure the</text>
  <text style="stroke:none;fill:black;font-family:sans-serif;font-size:13;" transform="matrix(1 0 0 1 1289 1989)">design is preserved when submitting to Xcode.</text>
  <text id="template-version" style="stroke:none;fill:black;font-family:sans-serif;font-size:13;text-anchor:end;" transform="matrix(1 0 0 1 3036 1933)">Template v.3.0</text>
  <text style="stroke:none;fill:black;font-family:sans-serif;font-size:13;text-anchor:end;" transform="matrix(1 0 0 1 3036 1951)">Requires Xcode 13 or greater</text>
  <text id="descriptive-name" style="stroke:none;fill:black;font-family:sans-serif;font-size:13;text-anchor:end;" transform="matrix(1 0 0 1 3036 1969)">Generated from git-branch</text>
  <text style="stroke:none;fill:black;font-family:sans-serif;font-size:13;text-anchor:end;" transform="matrix(1 0 0 1 3036 1987)">Typeset at 100 points</text>
  <text style="stroke:none;fill:black;font-family:sans-serif;font-size:13;" transform="matrix(1 0 0 1 263 726)">Small</text>
  <text style="stroke:none;fill:black;font-family:sans-serif;font-size:13;" transform="matrix(1 0 0 1 263 1156)">Medium</text>
  <text style="stroke:none;fill:black;font-family:sans-serif;font-size:13;" transform="matrix(1 0 0 1 263 1586)">Large</text>
 </g>
 <g id="Guides">
  <g id="H-reference" style="fill:#27AAE1;stroke:none;" transform="matrix(1 0 0 1 339 696)">
   <path d="M0.976562 0L3.66211 0L29.3457-67.1387L30.0293-67.1387L30.0293-70.459L28.125-70.459ZM11.6699-24.4629L46.9727-24.4629L46.2402-26.709L12.4512-26.709ZM55.127 0L57.7637 0L30.6152-70.459L29.4434-70.459L29.4434-67.1387Z"/>
  </g>
  <line id="Baseline-S" style="fill:none;stroke:#27AAE1;opacity:1;stroke-width:0.5;" x1="263" x2="3036" y1="696" y2="696"/>
  <line id="Capline-S" style="fill:none;stroke:#27AAE1;opacity:1;stroke-width:0.5;" x1="263" x2="3036" y1="625.541" y2="625.541"/>
  <g id="H-reference" style="fill:#27AAE1;stroke:none;" transform="matrix(1 0 0 1 339 1126)">
   <path d="M0.976562 0L3.66211 0L29.3457-67.1387L30.0293-67.1387L30.0293-70.459L28.125-70.459ZM11.6699-24.4629L46.9727-24.4629L46.2402-26.709L12.4512-26.709ZM55.127 0L57.7637 0L30.6152-70.459L29.4434-70.459L29.4434-67.1387Z"/>
  </g>
  <line id="Baseline-M" style="fill:none;stroke:#27AAE1;opacity:1;stroke-width:0.5;" x1="263" x2="3036" y1="1126" y2="1126"/>
  <line id="Capline-M" style="fill:none;stroke:#27AAE1;opacity:1;stroke-width:0.5;" x1="263" x2="3036" y1="1055.54" y2="1055.54"/>
  <g id="H-reference" style="fill:#27AAE1;stroke:none;" transform="matrix(1 0 0 1 339 1556)">
   <path d="M0.976562 0L3.66211 0L29.3457-67.1387L30.0293-67.1387L30.0293-70.459L28.125-70.459ZM11.6699-24.4629L46.9727-24.4629L46.2402-26.709L12.4512-26.709ZM55.127 0L57.7637 0L30.6152-70.459L29.4434-70.459L29.4434-67.1387Z"/>
  </g>
  <line id="Baseline-L" style="fill:none;stroke:#27AAE1;opacity:1;stroke-width:0.5;" x1="263" x2="3036" y1="1556" y2="1556"/>
  <line id="Capline-L" style="fill:none;stroke:#27AAE1;opacity:1;stroke-width:0.5;" x1="263" x2="3036" y1="1485.54" y2="1485.54"/>
  <line id="left-margin-Regular-M" style="fill:none;stroke:#00AEEF;stroke-width:0.5;opacity:1.0;" x1="1392.45" x2="1392.45" y1="1030.78" y2="1150.12"/>
  <line id="right-margin-Regular-M" style="fill:none;stroke:#00AEEF;stroke-width:0.5;opacity:1.0;" x1="1507.24" x2="1507.24" y1="1030.78" y2="1150.12"/>
 </g>
 <g id="Symbols">
  <g id="Black-L" transform="matrix(1 0 0 1 2861.38 1556)">
   <path class="hierarchical-0:secondary SFSymbolsPreview4D4D4D" d="M106.31-59.39C110.23-59.39 113.41-56.21 113.41-52.29C113.41-36.83 107.26-22.01 96.33-11.08C85.4-0.15 70.58 5.99 55.12 5.99C51.2 5.99 48.02 2.82 48.02-1.11C48.02-5.03 51.2-8.21 55.12-8.21C66.81-8.21 78.02-12.85 86.29-21.12C94.56-29.39 99.21-40.6 99.21-52.29C99.21-56.21 102.38-59.39 106.31-59.39ZM38.06-93.52C41.98-93.52 45.16-90.34 45.16-86.42L45.16-18.17C45.16-14.25 41.98-11.07 38.06-11.07C34.13-11.07 30.96-14.25 30.96-18.17L30.96-86.42C30.96-90.34 34.13-93.52 38.06-93.52Z"/>
   <path class="hierarchical-1:primary SFSymbolsPreview212121" d="M82.14-69.36C82.14-82.7 92.96-93.52 106.31-93.52C119.65-93.52 130.47-82.7 130.47-69.36C130.47-56.01 119.65-45.19 106.31-45.19C92.96-45.19 82.14-56.01 82.14-69.36ZM13.89-1.11C13.89-14.45 24.71-25.27 38.06-25.27C51.4-25.27 62.22-14.45 62.22-1.11C62.22 12.24 51.4 23.06 38.06 23.06C24.71 23.06 13.89 12.24 13.89-1.11ZM38.06-11.07C32.55-11.07 28.09-6.61 28.09-1.11C28.09 4.4 32.55 8.86 38.06 8.86C43.56 8.86 48.02 4.4 48.02-1.11C48.02-6.61 43.56-11.07 38.06-11.07ZM106.31-79.32C100.8-79.32 96.34-74.86 96.34-69.36C96.34-63.85 100.8-59.39 106.31-59.39C111.81-59.39 116.27-63.85 116.27-69.36C116.27-74.86 111.81-79.32 106.31-79.32Z"/>
  </g>
  <g id="Heavy-L" transform="matrix(1 0 0 1 2565.52 1556)">
   <path class="hierarchical-0:secondary SFSymbolsPreview4D4D4D" d="M105.45-58.54C108.9-58.54 111.7-55.74 111.7-52.29C111.7-37.06 105.65-22.45 94.88-11.68C84.11-0.91 69.5 5.14 54.26 5.14C50.81 5.14 48.02 2.35 48.02-1.11C48.02-4.56 50.81-7.36 54.26-7.36C66.18-7.36 77.61-12.09 86.04-20.52C94.47-28.94 99.2-40.37 99.2-52.29C99.2-55.74 102-58.54 105.45-58.54ZM37.2-92.67C40.65-92.67 43.45-89.87 43.45-86.42L43.45-18.17C43.45-14.72 40.65-11.92 37.2-11.92C33.75-11.92 30.95-14.72 30.95-18.17L30.95-86.42C30.95-89.87 33.75-92.67 37.2-92.67Z"/>
   <path class="hierarchical-1:primary SFSymbolsPreview212121" d="M82.14-69.36C82.14-82.23 92.58-92.67 105.45-92.67C118.33-92.67 128.76-82.23 128.76-69.36C128.76-56.48 118.33-46.04 105.45-46.04C92.58-46.04 82.14-56.48 82.14-69.36ZM13.89-1.11C13.89-13.98 24.33-24.42 37.2-24.42C50.08-24.42 60.52-13.98 60.52-1.11C60.52 11.77 50.08 22.21 37.2 22.21C24.33 22.21 13.89 11.77 13.89-1.11ZM37.2-11.92C31.23-11.92 26.39-7.08 26.39-1.11C26.39 4.87 31.23 9.71 37.2 9.71C43.17 9.71 48.02 4.87 48.02-1.11C48.02-7.08 43.17-11.92 37.2-11.92ZM105.45-80.17C99.48-80.17 94.64-75.33 94.64-69.36C94.64-63.38 99.48-58.54 105.45-58.54C111.42-58.54 116.26-63.38 116.26-69.36C116.26-75.33 111.42-80.17 105.45-80.17Z"/>
  </g>
  <g id="Bold-L" transform="matrix(1 0 0 1 2269.76 1556)">
   <path class="hierarchical-0:secondary SFSymbolsPreview4D4D4D" d="M104.5-57.59C107.43-57.59 109.8-55.22 109.8-52.29C109.8-37.31 103.85-22.94 93.25-12.35C82.66-1.76 68.29 4.19 53.31 4.19C50.38 4.19 48.01 1.82 48.01-1.11C48.01-4.03 50.38-6.41 53.31-6.41C65.48-6.41 77.15-11.24 85.76-19.85C94.36-28.45 99.2-40.12 99.2-52.29C99.2-55.22 101.57-57.59 104.5-57.59ZM36.25-91.72C39.18-91.72 41.55-89.35 41.55-86.42L41.55-18.17C41.55-15.24 39.18-12.87 36.25-12.87C33.32-12.87 30.95-15.24 30.95-18.17L30.95-86.42C30.95-89.35 33.32-91.72 36.25-91.72Z"/>
   <path class="hierarchical-1:primary SFSymbolsPreview212121" d="M82.14-69.36C82.14-81.71 92.15-91.72 104.5-91.72C116.85-91.72 126.86-81.71 126.86-69.36C126.86-57.01 116.85-46.99 104.5-46.99C92.15-46.99 82.14-57.01 82.14-69.36ZM13.89-1.11C13.89-13.46 23.9-23.47 36.25-23.47C48.6-23.47 58.61-13.46 58.61-1.11C58.61 11.24 48.6 21.26 36.25 21.26C23.9 21.26 13.89 11.24 13.89-1.11ZM36.25-12.87C29.75-12.87 24.49-7.6 24.49-1.11C24.49 5.39 29.75 10.66 36.25 10.66C42.75 10.66 48.01 5.39 48.01-1.11C48.01-7.6 42.75-12.87 36.25-12.87ZM104.5-81.12C98-81.12 92.74-75.85 92.74-69.36C92.74-62.86 98-57.59 104.5-57.59C111-57.59 116.26-62.86 116.26-69.36C116.26-75.85 111-81.12 104.5-81.12Z"/>
  </g>
  <g id="Semibold-L" transform="matrix(1 0 0 1 1973.69 1556)">
   <path class="hierarchical-0:secondary SFSymbolsPreview4D4D4D" d="M103.85-56.94C106.42-56.94 108.5-54.86 108.5-52.29C108.5-37.48 102.62-23.28 92.15-12.81C81.68-2.34 67.48 3.54 52.67 3.54C50.1 3.54 48.02 1.46 48.02-1.11C48.02-3.67 50.1-5.76 52.67-5.76C65.01-5.76 76.85-10.66 85.57-19.39C94.3-28.11 99.2-39.95 99.2-52.29C99.2-54.86 101.29-56.94 103.85-56.94ZM35.6-91.07C38.17-91.07 40.25-88.99 40.25-86.42L40.25-18.17C40.25-15.6 38.17-13.52 35.6-13.52C33.04-13.52 30.95-15.6 30.95-18.17L30.95-86.42C30.95-88.99 33.04-91.07 35.6-91.07Z"/>
   <path class="hierarchical-1:primary SFSymbolsPreview212121" d="M82.14-69.36C82.14-81.35 91.86-91.07 103.85-91.07C115.85-91.07 125.57-81.35 125.57-69.36C125.57-57.36 115.85-47.64 103.85-47.64C91.86-47.64 82.14-57.36 82.14-69.36ZM13.89-1.11C13.89-13.1 23.61-22.82 35.6-22.82C47.6-22.82 57.32-13.1 57.32-1.11C57.32 10.89 47.6 20.61 35.6 20.61C23.61 20.61 13.89 10.89 13.89-1.11ZM35.6-13.52C28.75-13.52 23.19-7.96 23.19-1.11C23.19 5.75 28.75 11.31 35.6 11.31C42.46 11.31 48.02 5.75 48.02-1.11C48.02-7.96 42.46-13.52 35.6-13.52ZM103.85-81.77C97-81.77 91.44-76.21 91.44-69.36C91.44-62.5 97-56.94 103.85-56.94C110.71-56.94 116.27-62.5 116.27-69.36C116.27-76.21 110.71-81.77 103.85-81.77Z"/>
  </g>
  <g id="Medium-L" transform="matrix(1 0 0 1 1677.48 1556)">
   <path class="hierarchical-0:secondary SFSymbolsPreview4D4D4D" d="M103.35-56.44C105.65-56.44 107.5-54.59 107.5-52.29C107.5-37.62 101.67-23.54 91.3-13.16C80.92-2.79 66.84 3.04 52.17 3.04C49.88 3.04 48.02 1.19 48.02-1.11C48.02-3.4 49.88-5.26 52.17-5.26C64.64-5.26 76.61-10.21 85.43-19.03C94.25-27.85 99.2-39.82 99.2-52.29C99.2-54.59 101.06-56.44 103.35-56.44ZM35.1-90.57C37.4-90.57 39.25-88.71 39.25-86.42L39.25-18.17C39.25-15.88 37.4-14.02 35.1-14.02C32.81-14.02 30.95-15.88 30.95-18.17L30.95-86.42C30.95-88.71 32.81-90.57 35.1-90.57Z"/>
   <path class="hierarchical-1:primary SFSymbolsPreview212121" d="M82.14-69.36C82.14-81.07 91.64-90.57 103.35-90.57C115.07-90.57 124.57-81.07 124.57-69.36C124.57-57.64 115.07-48.14 103.35-48.14C91.64-48.14 82.14-57.64 82.14-69.36ZM13.89-1.11C13.89-12.82 23.39-22.32 35.1-22.32C46.82-22.32 56.32-12.82 56.32-1.11C56.32 10.61 46.82 20.11 35.1 20.11C23.39 20.11 13.89 10.61 13.89-1.11ZM35.1-14.02C27.97-14.02 22.19-8.24 22.19-1.11C22.19 6.03 27.97 11.81 35.1 11.81C42.24 11.81 48.02 6.03 48.02-1.11C48.02-8.24 42.24-14.02 35.1-14.02ZM103.35-82.27C96.22-82.27 90.44-76.49 90.44-69.36C90.44-62.22 96.22-56.44 103.35-56.44C110.49-56.44 116.27-62.22 116.27-69.36C116.27-76.49 110.49-82.27 103.35-82.27Z"/>
  </g>
  <g id="Regular-L" transform="matrix(1 0 0 1 1381.42 1556)">
   <path class="hierarchical-0:secondary SFSymbolsPreview4D4D4D" d="M102.7-55.79C104.64-55.79 106.2-54.23 106.2-52.29C106.2-37.79 100.44-23.88 90.19-13.62C79.93-3.37 66.02 2.39 51.52 2.39C49.58 2.39 48.02 0.83 48.02-1.11C48.02-3.04 49.58-4.61 51.52-4.61C64.17-4.61 76.29-9.63 85.24-18.57C94.18-27.52 99.2-39.65 99.2-52.29C99.2-54.23 100.77-55.79 102.7-55.79ZM34.46-89.92C36.39-89.92 37.96-88.35 37.96-86.42L37.96-18.17C37.96-16.23 36.39-14.67 34.46-14.67C32.52-14.67 30.96-16.23 30.96-18.17L30.96-86.42C30.96-88.35 32.52-89.92 34.46-89.92Z"/>
   <path class="hierarchical-1:primary SFSymbolsPreview212121" d="M82.14-69.36C82.14-80.71 91.35-89.92 102.7-89.92C114.06-89.92 123.27-80.71 123.27-69.36C123.27-58 114.06-48.79 102.7-48.79C91.35-48.79 82.14-58 82.14-69.36ZM13.89-1.11C13.89-12.46 23.1-21.67 34.46-21.67C45.81-21.67 55.02-12.46 55.02-1.11C55.02 10.25 45.81 19.46 34.46 19.46C23.1 19.46 13.89 10.25 13.89-1.11ZM34.46-14.67C26.96-14.67 20.89-8.6 20.89-1.11C20.89 6.38 26.96 12.46 34.46 12.46C41.95 12.46 48.02 6.38 48.02-1.11C48.02-8.6 41.95-14.67 34.46-14.67ZM102.7-82.92C95.21-82.92 89.14-76.85 89.14-69.36C89.14-61.87 95.21-55.79 102.7-55.79C110.2-55.79 116.27-61.87 116.27-69.36C116.27-76.85 110.2-82.92 102.7-82.92Z"/>
  </g>
  <g id="Light-L" transform="matrix(1 0 0 1 1085.51 1556)">
   <path class="hierarchical-0:secondary SFSymbolsPreview4D4D4D" d="M101.91-54.99C103.4-54.99 104.61-53.78 104.61-52.29C104.61-38 98.93-24.29 88.82-14.19C78.72-4.08 65.01 1.6 50.72 1.6C49.23 1.6 48.02 0.39 48.02-1.1C48.02-2.6 49.23-3.8 50.72-3.8C63.58-3.8 75.91-8.91 85-18.01C94.1-27.1 99.21-39.43 99.21-52.29C99.21-53.78 100.41-54.99 101.91-54.99ZM33.66-89.12C35.15-89.12 36.36-87.91 36.36-86.42L36.36-18.17C36.36-16.68 35.15-15.47 33.66-15.47C32.16-15.47 30.96-16.68 30.96-18.17L30.96-86.42C30.96-87.91 32.16-89.12 33.66-89.12Z"/>
   <path class="hierarchical-1:primary SFSymbolsPreview212121" d="M82.14-69.35C82.14-80.27 90.99-89.12 101.91-89.12C112.82-89.12 121.67-80.27 121.67-69.35C121.67-58.44 112.82-49.59 101.91-49.59C90.99-49.59 82.14-58.44 82.14-69.35ZM13.89-1.1C13.89-12.02 22.74-20.87 33.66-20.87C44.57-20.87 53.42-12.02 53.42-1.1C53.42 9.81 44.57 18.66 33.66 18.66C22.74 18.66 13.89 9.81 13.89-1.1ZM33.66-15.47C25.72-15.47 19.29-9.04 19.29-1.1C19.29 6.83 25.72 13.26 33.66 13.26C41.59 13.26 48.02 6.83 48.02-1.1C48.02-9.04 41.59-15.47 33.66-15.47ZM101.91-83.72C93.97-83.72 87.54-77.29 87.54-69.35C87.54-61.42 93.97-54.99 101.91-54.99C109.84-54.99 116.27-61.42 116.27-69.35C116.27-77.29 109.84-83.72 101.91-83.72Z"/>
  </g>
  <g id="Thin-L" transform="matrix(1 0 0 1 789.85 1556)">
   <path class="hierarchical-0:secondary SFSymbolsPreview4D4D4D" d="M100.853-53.94C101.764-53.94 102.503-53.2 102.503-52.29C102.503-38.28 96.936-24.84 87.027-14.93C77.118-5.02 63.678 0.54 49.665 0.54C48.754 0.54 48.015-0.19 48.015-1.11C48.015-2.02 48.754-2.76 49.665-2.76C62.803-2.76 75.403-7.97 84.693-17.27C93.983-26.56 99.203-39.16 99.203-52.29C99.203-53.2 99.941-53.94 100.853-53.94ZM32.603-88.07C33.514-88.07 34.253-87.33 34.253-86.42L34.253-18.17C34.253-17.26 33.514-16.52 32.603-16.52C31.691-16.52 30.953-17.26 30.953-18.17L30.953-86.42C30.953-87.33 31.691-88.07 32.603-88.07Z"/>
   <path class="hierarchical-1:primary SFSymbolsPreview212121" d="M82.14-69.36C82.14-79.69 90.518-88.07 100.853-88.07C111.187-88.07 119.565-79.69 119.565-69.36C119.565-59.02 111.187-50.64 100.853-50.64C90.518-50.64 82.14-59.02 82.14-69.36ZM13.89-1.11C13.89-11.44 22.268-19.82 32.603-19.82C42.937-19.82 51.315-11.44 51.315-1.11C51.315 9.23 42.937 17.61 32.603 17.61C22.268 17.61 13.89 9.23 13.89-1.11ZM32.603-16.52C24.091-16.52 17.19-9.62 17.19-1.11C17.19 7.41 24.091 14.31 32.603 14.31C41.115 14.31 48.015 7.41 48.015-1.11C48.015-9.62 41.115-16.52 32.603-16.52ZM100.853-84.77C92.341-84.77 85.44-77.87 85.44-69.36C85.44-60.84 92.341-53.94 100.853-53.94C109.365-53.94 116.265-60.84 116.265-69.36C116.265-77.87 109.365-84.77 100.853-84.77Z"/>
  </g>
  <g id="Ultralight-L" transform="matrix(1 0 0 1 493.689 1556)">
   <path class="hierarchical-0:secondary SFSymbolsPreview4D4D4D" d="M100.302-53.39C100.91-53.39 101.402-52.9 101.402-52.29C101.402-38.43 95.894-25.13 86.088-15.32C76.282-5.51 62.982-0.01 49.115-0.01C48.507-0.01 48.015-0.5 48.015-1.11C48.015-1.71 48.507-2.21 49.115-2.21C62.399-2.21 75.139-7.48 84.532-16.88C93.925-26.27 99.202-39.01 99.202-52.29C99.202-52.9 99.695-53.39 100.302-53.39ZM32.052-87.52C32.66-87.52 33.152-87.03 33.152-86.42L33.152-18.17C33.152-17.56 32.66-17.07 32.052-17.07C31.445-17.07 30.952-17.56 30.952-18.17L30.952-86.42C30.952-87.03 31.445-87.52 32.052-87.52Z"/>
   <path class="hierarchical-1:primary SFSymbolsPreview212121" d="M82.14-69.36C82.14-79.39 90.272-87.52 100.302-87.52C110.333-87.52 118.465-79.39 118.465-69.36C118.465-59.32 110.333-51.19 100.302-51.19C90.272-51.19 82.14-59.32 82.14-69.36ZM13.89-1.11C13.89-11.14 22.022-19.27 32.052-19.27C42.083-19.27 50.215-11.14 50.215-1.11C50.215 8.93 42.083 17.06 32.052 17.06C22.022 17.06 13.89 8.93 13.89-1.11ZM32.052-17.07C23.237-17.07 16.09-9.92 16.09-1.11C16.09 7.71 23.237 14.86 32.052 14.86C40.868 14.86 48.015 7.71 48.015-1.11C48.015-9.92 40.868-17.07 32.052-17.07ZM100.302-85.32C91.487-85.32 84.34-78.17 84.34-69.36C84.34-60.54 91.487-53.39 100.302-53.39C109.118-53.39 116.265-60.54 116.265-69.36C116.265-78.17 109.118-85.32 100.302-85.32Z"/>
  </g>
  <g id="Black-M" transform="matrix(1 0 0 1 2872.4 1126)">
   <path class="hierarchical-0:secondary SFSymbolsPreview4D4D4D" d="M87.93-55.72C91.85-55.72 95.03-52.54 95.03-48.62C95.03-36.08 90.05-24.06 81.19-15.2C72.32-6.34 60.3-1.36 47.77-1.36C43.84-1.36 40.67-4.54 40.67-8.46C40.67-12.38 43.84-15.56 47.77-15.56C56.53-15.56 64.94-19.04 71.14-25.24C77.35-31.44 80.83-39.85 80.83-48.62C80.83-52.54 84.01-55.72 87.93-55.72ZM34.38-82.49C38.3-82.49 41.48-79.31 41.48-75.39L41.48-21.84C41.48-17.92 38.3-14.74 34.38-14.74C30.46-14.74 27.28-17.92 27.28-21.84L27.28-75.39C27.28-79.31 30.46-82.49 34.38-82.49Z"/>
   <path class="hierarchical-1:primary SFSymbolsPreview212121" d="M67.44-62C67.44-73.32 76.61-82.49 87.93-82.49C99.24-82.49 108.42-73.32 108.42-62C108.42-50.69 99.24-41.52 87.93-41.52C76.61-41.52 67.44-50.69 67.44-62ZM13.89-8.46C13.89-19.77 23.07-28.94 34.38-28.94C45.7-28.94 54.87-19.77 54.87-8.46C54.87 2.86 45.7 12.03 34.38 12.03C23.07 12.03 13.89 2.86 13.89-8.46ZM34.38-14.74C30.91-14.74 28.09-11.93 28.09-8.46C28.09-4.98 30.91-2.17 34.38-2.17C37.85-2.17 40.67-4.98 40.67-8.46C40.67-11.93 37.85-14.74 34.38-14.74ZM87.93-68.29C84.46-68.29 81.64-65.48 81.64-62C81.64-58.53 84.46-55.72 87.93-55.72C91.4-55.72 94.22-58.53 94.22-62C94.22-65.48 91.4-68.29 87.93-68.29Z"/>
  </g>
  <g id="Heavy-M" transform="matrix(1 0 0 1 2576.54 1126)">
   <path class="hierarchical-0:secondary SFSymbolsPreview4D4D4D" d="M87.08-54.87C90.53-54.87 93.33-52.07 93.33-48.62C93.33-36.31 88.44-24.5 79.74-15.8C71.03-7.09 59.23-2.2 46.92-2.2C43.47-2.2 40.67-5 40.67-8.45C40.67-11.91 43.47-14.7 46.92-14.7C55.91-14.7 64.54-18.28 70.9-24.64C77.26-31 80.83-39.62 80.83-48.62C80.83-52.07 83.63-54.87 87.08-54.87ZM33.53-81.64C36.98-81.64 39.78-78.84 39.78-75.39L39.78-21.84C39.78-18.39 36.98-15.59 33.53-15.59C30.08-15.59 27.28-18.39 27.28-21.84L27.28-75.39C27.28-78.84 30.08-81.64 33.53-81.64Z"/>
   <path class="hierarchical-1:primary SFSymbolsPreview212121" d="M67.44-62.01C67.44-72.85 76.23-81.64 87.08-81.64C97.92-81.64 106.72-72.85 106.72-62.01C106.72-51.16 97.92-42.37 87.08-42.37C76.23-42.37 67.44-51.16 67.44-62.01ZM13.89-8.46C13.89-19.3 22.68-28.09 33.53-28.09C44.37-28.09 53.17-19.3 53.17-8.46C53.17 2.39 44.37 11.18 33.53 11.18C22.68 11.18 13.89 2.39 13.89-8.46ZM33.53-15.59C29.59-15.59 26.39-12.4 26.39-8.46C26.39-4.51 29.59-1.32 33.53-1.32C37.47-1.32 40.67-4.51 40.67-8.46C40.67-12.4 37.47-15.59 33.53-15.59ZM87.08-69.14C83.14-69.14 79.94-65.95 79.94-62.01C79.94-58.06 83.14-54.87 87.08-54.87C91.02-54.87 94.22-58.06 94.22-62.01C94.22-65.95 91.02-69.14 87.08-69.14Z"/>
  </g>
  <g id="Bold-M" transform="matrix(1 0 0 1 2280.78 1126)">
   <path class="hierarchical-0:secondary SFSymbolsPreview4D4D4D" d="M86.13-53.92C89.06-53.92 91.43-51.54 91.43-48.62C91.43-36.56 86.64-25 78.11-16.47C69.59-7.94 58.02-3.15 45.97-3.15C43.04-3.15 40.67-5.53 40.67-8.45C40.67-11.38 43.04-13.75 45.97-13.75C55.21-13.75 64.08-17.43 70.62-23.96C77.16-30.5 80.83-39.37 80.83-48.62C80.83-51.54 83.2-53.92 86.13-53.92ZM32.58-80.69C35.51-80.69 37.88-78.32 37.88-75.39L37.88-21.84C37.88-18.91 35.51-16.54 32.58-16.54C29.65-16.54 27.28-18.91 27.28-21.84L27.28-75.39C27.28-78.32 29.65-80.69 32.58-80.69Z"/>
   <path class="hierarchical-1:primary SFSymbolsPreview212121" d="M67.44-62C67.44-72.32 75.81-80.69 86.13-80.69C96.45-80.69 104.82-72.32 104.82-62C104.82-51.68 96.45-43.32 86.13-43.32C75.81-43.32 67.44-51.68 67.44-62ZM13.89-8.45C13.89-18.77 22.26-27.14 32.58-27.14C42.9-27.14 51.27-18.77 51.27-8.45C51.27 1.87 42.9 10.23 32.58 10.23C22.26 10.23 13.89 1.87 13.89-8.45ZM32.58-16.54C28.11-16.54 24.49-12.92 24.49-8.45C24.49-3.99 28.11-0.37 32.58-0.37C37.05-0.37 40.67-3.99 40.67-8.45C40.67-12.92 37.05-16.54 32.58-16.54ZM86.13-70.09C81.66-70.09 78.04-66.47 78.04-62C78.04-57.54 81.66-53.92 86.13-53.92C90.6-53.92 94.22-57.54 94.22-62C94.22-66.47 90.6-70.09 86.13-70.09Z"/>
  </g>
  <g id="Semibold-M" transform="matrix(1 0 0 1 1984.72 1126)">
   <path class="hierarchical-0:secondary SFSymbolsPreview4D4D4D" d="M85.48-53.27C88.04-53.27 90.13-51.18 90.13-48.62C90.13-36.73 85.4-25.33 77-16.93C68.6-8.52 57.2-3.8 45.31-3.8C42.74-3.8 40.66-5.88 40.66-8.45C40.66-11.02 42.74-13.1 45.31-13.1C54.73-13.1 63.76-16.84 70.42-23.5C77.08-30.16 80.83-39.2 80.83-48.62C80.83-51.18 82.91-53.27 85.48-53.27ZM31.92-80.04C34.49-80.04 36.57-77.96 36.57-75.39L36.57-21.84C36.57-19.27 34.49-17.19 31.92-17.19C29.36-17.19 27.27-19.27 27.27-21.84L27.27-75.39C27.27-77.96 29.36-80.04 31.92-80.04Z"/>
   <path class="hierarchical-1:primary SFSymbolsPreview212121" d="M67.44-62C67.44-71.97 75.51-80.04 85.48-80.04C95.44-80.04 103.51-71.97 103.51-62C103.51-52.04 95.44-43.97 85.48-43.97C75.51-43.97 67.44-52.04 67.44-62ZM13.89-8.45C13.89-18.41 21.96-26.49 31.92-26.49C41.89-26.49 49.96-18.41 49.96-8.45C49.96 1.51 41.89 9.58 31.92 9.58C21.96 9.58 13.89 1.51 13.89-8.45ZM31.92-17.19C27.1-17.19 23.19-13.28 23.19-8.45C23.19-3.63 27.1 0.28 31.92 0.28C36.75 0.28 40.66-3.63 40.66-8.45C40.66-13.28 36.75-17.19 31.92-17.19ZM85.48-70.74C80.65-70.74 76.74-66.83 76.74-62C76.74-57.18 80.65-53.27 85.48-53.27C90.3-53.27 94.21-57.18 94.21-62C94.21-66.83 90.3-70.74 85.48-70.74Z"/>
  </g>
  <g id="Medium-M" transform="matrix(1 0 0 1 1688.51 1126)">
   <path class="hierarchical-0:secondary SFSymbolsPreview4D4D4D" d="M84.98-52.77C87.27-52.77 89.13-50.91 89.13-48.62C89.13-36.86 84.46-25.59 76.15-17.28C67.84-8.97 56.57-4.3 44.81-4.3C42.52-4.3 40.66-6.16 40.66-8.45C40.66-10.75 42.52-12.6 44.81-12.6C54.36-12.6 63.52-16.4 70.28-23.15C77.03-29.9 80.83-39.06 80.83-48.62C80.83-50.91 82.68-52.77 84.98-52.77ZM31.42-79.54C33.72-79.54 35.57-77.68 35.57-75.39L35.57-21.84C35.57-19.55 33.72-17.69 31.42-17.69C29.13-17.69 27.27-19.55 27.27-21.84L27.27-75.39C27.27-77.68 29.13-79.54 31.42-79.54Z"/>
   <path class="hierarchical-1:primary SFSymbolsPreview212121" d="M67.44-62C67.44-71.69 75.29-79.54 84.98-79.54C94.66-79.54 102.51-71.69 102.51-62C102.51-52.32 94.66-44.47 84.98-44.47C75.29-44.47 67.44-52.32 67.44-62ZM13.89-8.45C13.89-18.14 21.74-25.99 31.42-25.99C41.11-25.99 48.96-18.14 48.96-8.45C48.96 1.23 41.11 9.08 31.42 9.08C21.74 9.08 13.89 1.23 13.89-8.45ZM31.42-17.69C26.32-17.69 22.19-13.55 22.19-8.45C22.19-3.35 26.32 0.78 31.42 0.78C36.53 0.78 40.66-3.35 40.66-8.45C40.66-13.55 36.53-17.69 31.42-17.69ZM84.98-71.24C79.87-71.24 75.74-67.11 75.74-62C75.74-56.9 79.87-52.77 84.98-52.77C90.08-52.77 94.21-56.9 94.21-62C94.21-67.11 90.08-71.24 84.98-71.24Z"/>
  </g>
  <g id="Regular-M" transform="matrix(1 0 0 1 1392.45 1126)">
   <path class="hierarchical-0:secondary SFSymbolsPreview4D4D4D" d="M84.33-52.12C86.26-52.12 87.83-50.55 87.83-48.62C87.83-37.04 83.23-25.93 75.04-17.74C66.85-9.55 55.74-4.95 44.16-4.95C42.23-4.95 40.66-6.52 40.66-8.45C40.66-10.39 42.23-11.95 44.16-11.95C53.89-11.95 63.21-15.82 70.09-22.69C76.96-29.57 80.83-38.89 80.83-48.62C80.83-50.55 82.39-52.12 84.33-52.12ZM30.77-78.89C32.71-78.89 34.27-77.32 34.27-75.39L34.27-21.84C34.27-19.91 32.71-18.34 30.77-18.34C28.84-18.34 27.27-19.91 27.27-21.84L27.27-75.39C27.27-77.32 28.84-78.89 30.77-78.89Z"/>
   <path class="hierarchical-1:primary SFSymbolsPreview212121" d="M67.44-62C67.44-71.33 75-78.89 84.32-78.89C93.65-78.89 101.21-71.33 101.21-62C101.21-52.68 93.65-45.12 84.32-45.12C75-45.12 67.44-52.68 67.44-62ZM13.89-8.45C13.89-17.78 21.45-25.34 30.78-25.34C40.1-25.34 47.66-17.78 47.66-8.45C47.66 0.87 40.1 8.43 30.78 8.43C21.45 8.43 13.89 0.87 13.89-8.45ZM30.78-18.34C25.31-18.34 20.89-13.92 20.89-8.45C20.89-2.99 25.31 1.43 30.78 1.43C36.24 1.43 40.66-2.99 40.66-8.45C40.66-13.92 36.24-18.34 30.78-18.34ZM84.32-71.89C78.86-71.89 74.44-67.46 74.44-62C74.44-56.54 78.86-52.12 84.32-52.12C89.78-52.12 94.21-56.54 94.21-62C94.21-67.46 89.78-71.89 84.32-71.89Z"/>
  </g>
  <g id="Light-M" transform="matrix(1 0 0 1 1096.54 1126)">
   <path class="hierarchical-0:secondary SFSymbolsPreview4D4D4D" d="M83.52-51.32C85.02-51.32 86.22-50.11 86.22-48.62C86.22-37.25 81.71-26.35 73.67-18.31C65.63-10.27 54.73-5.75 43.36-5.75C41.87-5.75 40.66-6.96 40.66-8.45C40.66-9.95 41.87-11.15 43.36-11.15C53.3-11.15 62.83-15.1 69.85-22.13C76.88-29.15 80.82-38.68 80.82-48.62C80.82-50.11 82.03-51.32 83.52-51.32ZM29.98-78.09C31.47-78.09 32.68-76.88 32.68-75.39L32.68-21.84C32.68-20.35 31.47-19.14 29.98-19.14C28.48-19.14 27.28-20.35 27.28-21.84L27.28-75.39C27.28-76.88 28.48-78.09 29.98-78.09Z"/>
   <path class="hierarchical-1:primary SFSymbolsPreview212121" d="M67.44-62C67.44-70.89 74.64-78.09 83.52-78.09C92.41-78.09 99.61-70.89 99.61-62C99.61-53.12 92.41-45.92 83.52-45.92C74.64-45.92 67.44-53.12 67.44-62ZM13.89-8.45C13.89-17.34 21.09-24.54 29.97-24.54C38.86-24.54 46.06-17.34 46.06-8.45C46.06 0.43 38.86 7.63 29.97 7.63C21.09 7.63 13.89 0.43 13.89-8.45ZM29.97-19.14C24.07-19.14 19.29-14.36 19.29-8.45C19.29-2.55 24.07 2.23 29.97 2.23C35.88 2.23 40.66-2.55 40.66-8.45C40.66-14.36 35.88-19.14 29.97-19.14ZM83.52-72.69C77.62-72.69 72.84-67.91 72.84-62C72.84-56.1 77.62-51.32 83.52-51.32C89.43-51.32 94.21-56.1 94.21-62C94.21-67.91 89.43-72.69 83.52-72.69Z"/>
  </g>
  <g id="Thin-M" transform="matrix(1 0 0 1 800.875 1126)">
   <path class="hierarchical-0:secondary SFSymbolsPreview4D4D4D" d="M82.477-50.27C83.389-50.27 84.127-49.53 84.127-48.62C84.127-37.53 79.722-26.89 71.881-19.05C64.039-11.21 53.404-6.8 42.315-6.8C41.404-6.8 40.665-7.54 40.665-8.45C40.665-9.36 41.404-10.1 42.315-10.1C52.529-10.1 62.325-14.16 69.547-21.38C76.77-28.61 80.827-38.4 80.827-48.62C80.827-49.53 81.566-50.27 82.477-50.27ZM28.926-77.04C29.837-77.04 30.576-76.3 30.576-75.39L30.576-21.84C30.576-20.93 29.837-20.19 28.926-20.19C28.015-20.19 27.276-20.93 27.276-21.84L27.276-75.39C27.276-76.3 28.015-77.04 28.926-77.04Z"/>
   <path class="hierarchical-1:primary SFSymbolsPreview212121" d="M67.44-62C67.44-70.31 74.173-77.04 82.478-77.04C90.783-77.04 97.515-70.31 97.515-62C97.515-53.7 90.783-46.97 82.478-46.97C74.173-46.97 67.44-53.7 67.44-62ZM13.89-8.45C13.89-16.76 20.622-23.49 28.927-23.49C37.232-23.49 43.964-16.76 43.964-8.45C43.964-0.15 37.232 6.58 28.927 6.58C20.622 6.58 13.89-0.15 13.89-8.45ZM28.927-20.19C22.445-20.19 17.189-14.94 17.189-8.45C17.189-1.97 22.445 3.28 28.927 3.28C35.409 3.28 40.664-1.97 40.664-8.45C40.664-14.94 35.409-20.19 28.927-20.19ZM82.478-73.74C75.995-73.74 70.74-68.49 70.74-62C70.74-55.52 75.995-50.27 82.478-50.27C88.96-50.27 94.215-55.52 94.215-62C94.215-68.49 88.96-73.74 82.478-73.74Z"/>
  </g>
  <g id="Ultralight-M" transform="matrix(1 0 0 1 504.714 1126)">
   <path class="hierarchical-0:secondary SFSymbolsPreview4D4D4D" d="M81.926-49.72C82.534-49.72 83.026-49.22 83.026-48.62C83.026-37.67 78.679-27.18 70.941-19.44C63.203-11.7 52.707-7.35 41.764-7.35C41.156-7.35 40.664-7.85 40.664-8.45C40.664-9.06 41.156-9.55 41.764-9.55C52.124-9.55 62.059-13.67 69.385-21C76.711-28.32 80.826-38.26 80.826-48.62C80.826-49.22 81.319-49.72 81.926-49.72ZM28.377-76.49C28.985-76.49 29.477-76 29.477-75.39L29.477-21.84C29.477-21.23 28.985-20.74 28.377-20.74C27.769-20.74 27.277-21.23 27.277-21.84L27.277-75.39C27.277-76 27.769-76.49 28.377-76.49Z"/>
   <path class="hierarchical-1:primary SFSymbolsPreview212121" d="M67.439-62C67.439-70 73.925-76.49 81.927-76.49C89.928-76.49 96.414-70 96.414-62C96.414-54 89.928-47.52 81.927-47.52C73.925-47.52 67.439-54 67.439-62ZM13.89-8.45C13.89-16.46 20.377-22.94 28.378-22.94C36.379-22.94 42.865-16.46 42.865-8.45C42.865-0.45 36.379 6.03 28.378 6.03C20.377 6.03 13.89-0.45 13.89-8.45ZM28.378-20.74C21.592-20.74 16.09-15.24 16.09-8.45C16.09-1.67 21.592 3.83 28.378 3.83C35.164 3.83 40.665-1.67 40.665-8.45C40.665-15.24 35.164-20.74 28.378-20.74ZM81.927-74.29C75.14-74.29 69.639-68.79 69.639-62C69.639-55.22 75.14-49.72 81.927-49.72C88.713-49.72 94.214-55.22 94.214-62C94.214-68.79 88.713-74.29 81.927-74.29Z"/>
  </g>
  <g id="Black-S" transform="matrix(1 0 0 1 2881.07 696)">
   <path class="hierarchical-0:secondary SFSymbolsPreview4D4D4D" d="M73.49-52.932C77.41-52.932 80.59-49.753 80.59-45.832C80.59-35.594 76.52-25.776 69.29-18.537C62.05-11.298 52.23-7.232 41.99-7.232C38.07-7.232 34.89-10.41 34.89-14.332C34.89-18.253 38.07-21.432 41.99-21.432C48.46-21.432 54.67-24.002 59.24-28.578C63.82-33.154 66.39-39.36 66.39-45.832C66.39-49.753 69.57-52.932 73.49-52.932ZM31.49-73.932C35.41-73.932 38.59-70.753 38.59-66.832L38.59-24.832C38.59-20.91 35.41-17.732 31.49-17.732C27.57-17.732 24.39-20.91 24.39-24.832L24.39-66.832C24.39-70.753 27.57-73.932 31.49-73.932Z"/>
   <path class="hierarchical-1:primary SFSymbolsPreview212121" d="M55.89-56.332C55.89-66.052 63.77-73.932 73.49-73.932C83.21-73.932 91.09-66.052 91.09-56.332C91.09-46.611 83.21-38.732 73.49-38.732C63.77-38.732 55.89-46.611 55.89-56.332ZM13.89-14.332C13.89-24.052 21.77-31.932 31.49-31.932C41.21-31.932 49.09-24.052 49.09-14.332C49.09-4.611 41.21 3.268 31.49 3.268C21.77 3.268 13.89-4.611 13.89-14.332ZM31.49-17.732C29.61-17.732 28.09-16.209 28.09-14.332C28.09-12.454 29.61-10.932 31.49-10.932C33.37-10.932 34.89-12.454 34.89-14.332C34.89-16.209 33.37-17.732 31.49-17.732ZM73.49-59.732C71.61-59.732 70.09-58.209 70.09-56.332C70.09-54.454 71.61-52.932 73.49-52.932C75.37-52.932 76.89-54.454 76.89-56.332C76.89-58.209 75.37-59.732 73.49-59.732Z"/>
  </g>
  <g id="Heavy-S" transform="matrix(1 0 0 1 2585.2 696)">
   <path class="hierarchical-0:secondary SFSymbolsPreview4D4D4D" d="M72.64-52.082C76.09-52.082 78.89-49.284 78.89-45.832C78.89-35.82 74.91-26.218 67.83-19.139C60.76-12.059 51.15-8.082 41.14-8.082C37.69-8.082 34.89-10.88 34.89-14.332C34.89-17.784 37.69-20.582 41.14-20.582C47.84-20.582 54.26-23.242 59-27.978C63.73-32.713 66.39-39.135 66.39-45.832C66.39-49.284 69.19-52.082 72.64-52.082ZM30.64-73.082C34.09-73.082 36.89-70.284 36.89-66.832L36.89-24.832C36.89-21.38 34.09-18.582 30.64-18.582C27.19-18.582 24.39-21.38 24.39-24.832L24.39-66.832C24.39-70.284 27.19-73.082 30.64-73.082Z"/>
   <path class="hierarchical-1:primary SFSymbolsPreview212121" d="M55.89-56.332C55.89-65.583 63.39-73.082 72.64-73.082C81.89-73.082 89.39-65.583 89.39-56.332C89.39-47.081 81.89-39.582 72.64-39.582C63.39-39.582 55.89-47.081 55.89-56.332ZM13.89-14.332C13.89-23.583 21.39-31.082 30.64-31.082C39.89-31.082 47.39-23.583 47.39-14.332C47.39-5.081 39.89 2.418 30.64 2.418C21.39 2.418 13.89-5.081 13.89-14.332ZM30.64-18.582C28.29-18.582 26.39-16.679 26.39-14.332C26.39-11.985 28.29-10.082 30.64-10.082C32.99-10.082 34.89-11.985 34.89-14.332C34.89-16.679 32.99-18.582 30.64-18.582ZM72.64-60.582C70.29-60.582 68.39-58.679 68.39-56.332C68.39-53.985 70.29-52.082 72.64-52.082C74.99-52.082 76.89-53.985 76.89-56.332C76.89-58.679 74.99-60.582 72.64-60.582Z"/>
  </g>
  <g id="Bold-S" transform="matrix(1 0 0 1 2289.44 696)">
   <path class="hierarchical-0:secondary SFSymbolsPreview4D4D4D" d="M71.69-50.928C74.62-50.928 76.99-48.555 76.99-45.628C76.99-35.868 73.12-26.508 66.22-19.606C59.31-12.705 49.95-8.828 40.19-8.828C37.27-8.828 34.89-11.201 34.89-14.128C34.89-17.055 37.27-19.428 40.19-19.428C47.14-19.428 53.81-22.188 58.72-27.102C63.63-32.015 66.39-38.679 66.39-45.628C66.39-48.555 68.77-50.928 71.69-50.928ZM29.69-71.928C32.62-71.928 34.99-69.555 34.99-66.628L34.99-24.628C34.99-21.701 32.62-19.328 29.69-19.328C26.77-19.328 24.39-21.701 24.39-24.628L24.39-66.628C24.39-69.555 26.77-71.928 29.69-71.928Z"/>
   <path class="hierarchical-1:primary SFSymbolsPreview212121" d="M55.89-56.128C55.89-64.854 62.97-71.928 71.69-71.928C80.42-71.928 87.49-64.854 87.49-56.128C87.49-47.402 80.42-40.328 71.69-40.328C62.97-40.328 55.89-47.402 55.89-56.128ZM13.89-14.128C13.89-22.854 20.97-29.928 29.69-29.928C38.42-29.928 45.49-22.854 45.49-14.128C45.49-5.402 38.42 1.672 29.69 1.672C20.97 1.672 13.89-5.402 13.89-14.128ZM29.69-19.328C26.82-19.328 24.49-17 24.49-14.128C24.49-11.256 26.82-8.928 29.69-8.928C32.57-8.928 34.89-11.256 34.89-14.128C34.89-17 32.57-19.328 29.69-19.328ZM71.69-61.328C68.82-61.328 66.49-59 66.49-56.128C66.49-53.256 68.82-50.928 71.69-50.928C74.57-50.928 76.89-53.256 76.89-56.128C76.89-59 74.57-61.328 71.69-61.328Z"/>
  </g>
  <g id="Semibold-S" transform="matrix(1 0 0 1 1993.38 696)">
   <path class="hierarchical-0:secondary SFSymbolsPreview4D4D4D" d="M71.04-50.277C73.61-50.277 75.69-48.195 75.69-45.627C75.69-36.04 71.88-26.845 65.1-20.065C58.32-13.286 49.13-9.477 39.54-9.477C36.97-9.477 34.89-11.559 34.89-14.127C34.89-16.695 36.97-18.777 39.54-18.777C46.66-18.777 53.49-21.606 58.53-26.642C63.56-31.677 66.39-38.506 66.39-45.627C66.39-48.195 68.47-50.277 71.04-50.277ZM29.04-71.277C31.61-71.277 33.69-69.195 33.69-66.627L33.69-24.627C33.69-22.059 31.61-19.977 29.04-19.977C26.47-19.977 24.39-22.059 24.39-24.627L24.39-66.627C24.39-69.195 26.47-71.277 29.04-71.277Z"/>
   <path class="hierarchical-1:primary SFSymbolsPreview212121" d="M55.89-56.127C55.89-64.494 62.67-71.277 71.04-71.277C79.41-71.277 86.19-64.494 86.19-56.127C86.19-47.76 79.41-40.977 71.04-40.977C62.67-40.977 55.89-47.76 55.89-56.127ZM13.89-14.127C13.89-22.494 20.67-29.277 29.04-29.277C37.41-29.277 44.19-22.494 44.19-14.127C44.19-5.76 37.41 1.023 29.04 1.023C20.67 1.023 13.89-5.76 13.89-14.127ZM29.04-19.977C25.81-19.977 23.19-17.358 23.19-14.127C23.19-10.896 25.81-8.277 29.04-8.277C32.27-8.277 34.89-10.896 34.89-14.127C34.89-17.358 32.27-19.977 29.04-19.977ZM71.04-61.977C67.81-61.977 65.19-59.358 65.19-56.127C65.19-52.896 67.81-50.277 71.04-50.277C74.27-50.277 76.89-52.896 76.89-56.127C76.89-59.358 74.27-61.977 71.04-61.977Z"/>
  </g>
  <g id="Medium-S" transform="matrix(1 0 0 1 1697.17 696)">
   <path class="hierarchical-0:secondary SFSymbolsPreview4D4D4D" d="M70.54-49.777C72.83-49.777 74.69-47.919 74.69-45.627C74.69-36.172 70.93-27.105 64.25-20.419C57.56-13.733 48.49-9.977 39.04-9.977C36.75-9.977 34.89-11.835 34.89-14.127C34.89-16.419 36.75-18.277 39.04-18.277C46.29-18.277 53.25-21.159 58.38-26.288C63.51-31.417 66.39-38.374 66.39-45.627C66.39-47.919 68.25-49.777 70.54-49.777ZM28.54-70.777C30.83-70.777 32.69-68.919 32.69-66.627L32.69-24.627C32.69-22.335 30.83-20.477 28.54-20.477C26.25-20.477 24.39-22.335 24.39-24.627L24.39-66.627C24.39-68.919 26.25-70.777 28.54-70.777Z"/>
   <path class="hierarchical-1:primary SFSymbolsPreview212121" d="M55.89-56.127C55.89-64.218 62.45-70.777 70.54-70.777C78.63-70.777 85.19-64.218 85.19-56.127C85.19-48.036 78.63-41.477 70.54-41.477C62.45-41.477 55.89-48.036 55.89-56.127ZM13.89-14.127C13.89-22.218 20.45-28.777 28.54-28.777C36.63-28.777 43.19-22.218 43.19-14.127C43.19-6.036 36.63 0.523 28.54 0.523C20.45 0.523 13.89-6.036 13.89-14.127ZM28.54-20.477C25.03-20.477 22.19-17.634 22.19-14.127C22.19-10.62 25.03-7.777 28.54-7.777C32.05-7.777 34.89-10.62 34.89-14.127C34.89-17.634 32.05-20.477 28.54-20.477ZM70.54-62.477C67.03-62.477 64.19-59.634 64.19-56.127C64.19-52.62 67.03-49.777 70.54-49.777C74.05-49.777 76.89-52.62 76.89-56.127C76.89-59.634 74.05-62.477 70.54-62.477Z"/>
  </g>
  <g id="Regular-S" transform="matrix(1 0 0 1 1401.11 696)">
   <path class="hierarchical-0:secondary SFSymbolsPreview4D4D4D" d="M69.89-49.127C71.82-49.127 73.39-47.56 73.39-45.627C73.39-36.344 69.7-27.442 63.14-20.878C56.57-14.314 47.67-10.627 38.39-10.627C36.46-10.627 34.89-12.194 34.89-14.127C34.89-16.06 36.46-17.627 38.39-17.627C45.82-17.627 52.94-20.577 58.19-25.828C63.44-31.079 66.39-38.201 66.39-45.627C66.39-47.56 67.96-49.127 69.89-49.127ZM27.89-70.127C29.82-70.127 31.39-68.56 31.39-66.627L31.39-24.627C31.39-22.694 29.82-21.127 27.89-21.127C25.96-21.127 24.39-22.694 24.39-24.627L24.39-66.627C24.39-68.56 25.96-70.127 27.89-70.127Z"/>
   <path class="hierarchical-1:primary SFSymbolsPreview212121" d="M55.89-56.127C55.89-63.859 62.16-70.127 69.89-70.127C77.62-70.127 83.89-63.859 83.89-56.127C83.89-48.395 77.62-42.127 69.89-42.127C62.16-42.127 55.89-48.395 55.89-56.127ZM13.89-14.127C13.89-21.859 20.16-28.127 27.89-28.127C35.62-28.127 41.89-21.859 41.89-14.127C41.89-6.395 35.62-0.127 27.89-0.127C20.16-0.127 13.89-6.395 13.89-14.127ZM27.89-21.127C24.02-21.127 20.89-17.993 20.89-14.127C20.89-10.261 24.02-7.127 27.89-7.127C31.76-7.127 34.89-10.261 34.89-14.127C34.89-17.993 31.76-21.127 27.89-21.127ZM69.89-63.127C66.02-63.127 62.89-59.993 62.89-56.127C62.89-52.261 66.02-49.127 69.89-49.127C73.76-49.127 76.89-52.261 76.89-56.127C76.89-59.993 73.76-63.127 69.89-63.127Z"/>
  </g>
  <g id="Light-S" transform="matrix(1 0 0 1 1105.2 696)">
   <path class="hierarchical-0:secondary SFSymbolsPreview4D4D4D" d="M69.09-48.326C70.58-48.326 71.79-47.117 71.79-45.626C71.79-36.556 68.19-27.857 61.77-21.443C55.36-15.029 46.66-11.426 37.59-11.426C36.1-11.426 34.89-12.635 34.89-14.126C34.89-15.617 36.1-16.826 37.59-16.826C45.23-16.826 52.55-19.86 57.96-25.261C63.36-30.663 66.39-37.988 66.39-45.626C66.39-47.117 67.6-48.326 69.09-48.326ZM27.09-69.326C28.58-69.326 29.79-68.117 29.79-66.626L29.79-24.626C29.79-23.135 28.58-21.926 27.09-21.926C25.6-21.926 24.39-23.135 24.39-24.626L24.39-66.626C24.39-68.117 25.6-69.326 27.09-69.326Z"/>
   <path class="hierarchical-1:primary SFSymbolsPreview212121" d="M55.89-56.126C55.89-63.416 61.8-69.326 69.09-69.326C76.38-69.326 82.29-63.416 82.29-56.126C82.29-48.836 76.38-42.926 69.09-42.926C61.8-42.926 55.89-48.836 55.89-56.126ZM13.89-14.126C13.89-21.416 19.8-27.326 27.09-27.326C34.38-27.326 40.29-21.416 40.29-14.126C40.29-6.836 34.38-0.926 27.09-0.926C19.8-0.926 13.89-6.836 13.89-14.126ZM27.09-21.926C22.78-21.926 19.29-18.434 19.29-14.126C19.29-9.818 22.78-6.326 27.09-6.326C31.4-6.326 34.89-9.818 34.89-14.126C34.89-18.434 31.4-21.926 27.09-21.926ZM69.09-63.926C64.78-63.926 61.29-60.434 61.29-56.126C61.29-51.818 64.78-48.326 69.09-48.326C73.4-48.326 76.89-51.818 76.89-56.126C76.89-60.434 73.4-63.926 69.09-63.926Z"/>
  </g>
  <g id="Thin-S" transform="matrix(1 0 0 1 809.537 696)">
   <path class="hierarchical-0:secondary SFSymbolsPreview4D4D4D" d="M68.04-47.277C68.951-47.277 69.69-46.539 69.69-45.627C69.69-36.835 66.197-28.404 59.98-22.187C53.763-15.97 45.332-12.477 36.54-12.477C35.628-12.477 34.89-13.216 34.89-14.127C34.89-15.039 35.628-15.777 36.54-15.777C44.456-15.777 52.049-18.922 57.647-24.52C63.245-30.118 66.39-37.711 66.39-45.627C66.39-46.539 67.128-47.277 68.04-47.277ZM26.04-68.277C26.951-68.277 27.69-67.539 27.69-66.627L27.69-24.627C27.69-23.716 26.951-22.977 26.04-22.977C25.128-22.977 24.39-23.716 24.39-24.627L24.39-66.627C24.39-67.539 25.128-68.277 26.04-68.277Z"/>
   <path class="hierarchical-1:primary SFSymbolsPreview212121" d="M55.89-56.127C55.89-62.838 61.329-68.277 68.04-68.277C74.75-68.277 80.19-62.838 80.19-56.127C80.19-49.417 74.75-43.977 68.04-43.977C61.329-43.977 55.89-49.417 55.89-56.127ZM13.89-14.127C13.89-20.838 19.329-26.277 26.04-26.277C32.75-26.277 38.19-20.838 38.19-14.127C38.19-7.417 32.75-1.977 26.04-1.977C19.329-1.977 13.89-7.417 13.89-14.127ZM26.04-22.977C21.152-22.977 17.19-19.015 17.19-14.127C17.19-9.24 21.152-5.277 26.04-5.277C30.927-5.277 34.89-9.24 34.89-14.127C34.89-19.015 30.927-22.977 26.04-22.977ZM68.04-64.977C63.152-64.977 59.19-61.015 59.19-56.127C59.19-51.24 63.152-47.277 68.04-47.277C72.927-47.277 76.89-51.24 76.89-56.127C76.89-61.015 72.927-64.977 68.04-64.977Z"/>
  </g>
  <g id="Ultralight-S" transform="matrix(1 0 0 1 513.376 696)">
   <path class="hierarchical-0:secondary SFSymbolsPreview4D4D4D" d="M67.49-46.727C68.098-46.727 68.59-46.234 68.59-45.627C68.59-36.981 65.156-28.689 59.042-22.575C52.928-16.461 44.636-13.027 35.99-13.027C35.383-13.027 34.89-13.519 34.89-14.127C34.89-14.734 35.383-15.227 35.99-15.227C44.053-15.227 51.785-18.429 57.486-24.131C63.188-29.832 66.39-37.564 66.39-45.627C66.39-46.234 66.883-46.727 67.49-46.727ZM25.49-67.727C26.098-67.727 26.59-67.234 26.59-66.627L26.59-24.627C26.59-24.019 26.098-23.527 25.49-23.527C24.883-23.527 24.39-24.019 24.39-24.627L24.39-66.627C24.39-67.234 24.883-67.727 25.49-67.727Z"/>
   <path class="hierarchical-1:primary SFSymbolsPreview212121" d="M55.89-56.127C55.89-62.533 61.084-67.727 67.49-67.727C73.897-67.727 79.09-62.533 79.09-56.127C79.09-49.72 73.897-44.527 67.49-44.527C61.084-44.527 55.89-49.72 55.89-56.127ZM13.89-14.127C13.89-20.533 19.084-25.727 25.49-25.727C31.897-25.727 37.09-20.533 37.09-14.127C37.09-7.72 31.897-2.527 25.49-2.527C19.084-2.527 13.89-7.72 13.89-14.127ZM25.49-23.527C20.299-23.527 16.09-19.318 16.09-14.127C16.09-8.935 20.299-4.727 25.49-4.727C30.682-4.727 34.89-8.935 34.89-14.127C34.89-19.318 30.682-23.527 25.49-23.527ZM67.49-65.527C62.299-65.527 58.09-61.318 58.09-56.127C58.09-50.935 62.299-46.727 67.49-46.727C72.682-46.727 76.89-50.935 76.89-56.127C76.89-61.318 72.682-65.527 67.49-65.527Z"/>
  </g>
 </g>
</svg>
