<?xml version="1.0" encoding="UTF-8"?>
<!--Generator: Apple Native CoreSVG 175-->
<!DOCTYPE svg
PUBLIC "-//W3C//DTD SVG 1.1//EN"
       "http://www.w3.org/Graphics/SVG/1.1/DTD/svg11.dtd">
<svg version="1.1" xmlns="http://www.w3.org/2000/svg" xmlns:xlink="http://www.w3.org/1999/xlink" width="3300" height="2200">
 <!--glyph: "", point size: 100.0, font version: "17.0d12e1", template writer version: "65.1"-->
 <style>.hierarchical-0:secondary {fill:#4D4D4D}
.hierarchical-1:primary {fill:#212121}

.SFSymbolsPreview212121 {fill:#212121;opacity:1.0}
.SFSymbolsPreview4D4D4D {fill:#4D4D4D;opacity:1.0}
</style>
 <g id="Notes">
  <rect height="2200" id="artboard" style="fill:white;opacity:1" width="3300" x="0" y="0"/>
  <line style="fill:none;stroke:black;opacity:1;stroke-width:0.5;" x1="263" x2="3036" y1="292" y2="292"/>
  <text style="stroke:none;fill:black;font-family:sans-serif;font-size:13;font-weight:bold;" transform="matrix(1 0 0 1 263 322)">Weight/Scale Variations</text>
  <text style="stroke:none;fill:black;font-family:sans-serif;font-size:13;text-anchor:middle;" transform="matrix(1 0 0 1 559.711 322)">Ultralight</text>
  <text style="stroke:none;fill:black;font-family:sans-serif;font-size:13;text-anchor:middle;" transform="matrix(1 0 0 1 856.422 322)">Thin</text>
  <text style="stroke:none;fill:black;font-family:sans-serif;font-size:13;text-anchor:middle;" transform="matrix(1 0 0 1 1153.13 322)">Light</text>
  <text style="stroke:none;fill:black;font-family:sans-serif;font-size:13;text-anchor:middle;" transform="matrix(1 0 0 1 1449.84 322)">Regular</text>
  <text style="stroke:none;fill:black;font-family:sans-serif;font-size:13;text-anchor:middle;" transform="matrix(1 0 0 1 1746.56 322)">Medium</text>
  <text style="stroke:none;fill:black;font-family:sans-serif;font-size:13;text-anchor:middle;" transform="matrix(1 0 0 1 2043.27 322)">Semibold</text>
  <text style="stroke:none;fill:black;font-family:sans-serif;font-size:13;text-anchor:middle;" transform="matrix(1 0 0 1 2339.98 322)">Bold</text>
  <text style="stroke:none;fill:black;font-family:sans-serif;font-size:13;text-anchor:middle;" transform="matrix(1 0 0 1 2636.69 322)">Heavy</text>
  <text style="stroke:none;fill:black;font-family:sans-serif;font-size:13;text-anchor:middle;" transform="matrix(1 0 0 1 2933.4 322)">Black</text>
  <line style="fill:none;stroke:black;opacity:1;stroke-width:0.5;" x1="263" x2="3036" y1="1903" y2="1903"/>
  <g transform="matrix(1 0 0 1 263 1933)">
   <path d="M9.24805 0.830078Q10.8691 0.830078 12.2949 0.214844Q13.7207-0.400391 14.8096-1.49414Q15.8984-2.58789 16.5186-4.01367Q17.1387-5.43945 17.1387-7.05078Q17.1387-8.66211 16.5186-10.0879Q15.8984-11.5137 14.8047-12.6074Q13.7109-13.7012 12.2852-14.3164Q10.8594-14.9316 9.23828-14.9316Q7.62695-14.9316 6.20117-14.3164Q4.77539-13.7012 3.69141-12.6074Q2.60742-11.5137 1.9873-10.0879Q1.36719-8.66211 1.36719-7.05078Q1.36719-5.43945 1.9873-4.01367Q2.60742-2.58789 3.69629-1.49414Q4.78516-0.400391 6.21094 0.214844Q7.63672 0.830078 9.24805 0.830078ZM9.24805-0.654297Q7.91992-0.654297 6.7627-1.14746Q5.60547-1.64062 4.73145-2.51953Q3.85742-3.39844 3.36426-4.56055Q2.87109-5.72266 2.87109-7.05078Q2.87109-8.37891 3.35938-9.54102Q3.84766-10.7031 4.72168-11.582Q5.5957-12.4609 6.75293-12.9541Q7.91016-13.4473 9.23828-13.4473Q10.5762-13.4473 11.7334-12.9541Q12.8906-12.4609 13.7695-11.582Q14.6484-10.7031 15.1465-9.54102Q15.6445-8.37891 15.6445-7.05078Q15.6445-5.72266 15.1514-4.56055Q14.6582-3.39844 13.7842-2.51953Q12.9102-1.64062 11.748-1.14746Q10.5859-0.654297 9.24805-0.654297ZM5.6543-7.05078Q5.6543-6.72852 5.85938-6.52832Q6.06445-6.32812 6.40625-6.32812L8.51562-6.32812L8.51562-4.20898Q8.51562-3.88672 8.71094-3.67676Q8.90625-3.4668 9.23828-3.4668Q9.56055-3.4668 9.77051-3.67676Q9.98047-3.88672 9.98047-4.20898L9.98047-6.32812L12.0898-6.32812Q12.4219-6.32812 12.627-6.52832Q12.832-6.72852 12.832-7.05078Q12.832-7.38281 12.627-7.58789Q12.4219-7.79297 12.0898-7.79297L9.98047-7.79297L9.98047-9.90234Q9.98047-10.2344 9.77051-10.4443Q9.56055-10.6543 9.23828-10.6543Q8.90625-10.6543 8.71094-10.4443Q8.51562-10.2344 8.51562-9.90234L8.51562-7.79297L6.40625-7.79297Q6.06445-7.79297 5.85938-7.58789Q5.6543-7.38281 5.6543-7.05078Z"/>
  </g>
  <g transform="matrix(1 0 0 1 281.867 1933)">
   <path d="M11.709 2.91016Q13.75 2.91016 15.5518 2.12891Q17.3535 1.34766 18.7305-0.0292969Q20.1074-1.40625 20.8887-3.20801Q21.6699-5.00977 21.6699-7.05078Q21.6699-9.0918 20.8887-10.8936Q20.1074-12.6953 18.7305-14.0723Q17.3535-15.4492 15.5469-16.2305Q13.7402-17.0117 11.6992-17.0117Q9.6582-17.0117 7.85645-16.2305Q6.05469-15.4492 4.68262-14.0723Q3.31055-12.6953 2.5293-10.8936Q1.74805-9.0918 1.74805-7.05078Q1.74805-5.00977 2.5293-3.20801Q3.31055-1.40625 4.6875-0.0292969Q6.06445 1.34766 7.86621 2.12891Q9.66797 2.91016 11.709 2.91016ZM11.709 1.25Q9.98047 1.25 8.47656 0.605469Q6.97266-0.0390625 5.83496-1.17676Q4.69727-2.31445 4.05762-3.81836Q3.41797-5.32227 3.41797-7.05078Q3.41797-8.7793 4.05762-10.2832Q4.69727-11.7871 5.83008-12.9297Q6.96289-14.0723 8.4668-14.7119Q9.9707-15.3516 11.6992-15.3516Q13.4277-15.3516 14.9316-14.7119Q16.4355-14.0723 17.5781-12.9297Q18.7207-11.7871 19.3652-10.2832Q20.0098-8.7793 20.0098-7.05078Q20.0098-5.32227 19.3701-3.81836Q18.7305-2.31445 17.5928-1.17676Q16.4551-0.0390625 14.9463 0.605469Q13.4375 1.25 11.709 1.25ZM7.17773-7.05078Q7.17773-6.69922 7.41211-6.47461Q7.64648-6.25 8.01758-6.25L10.8887-6.25L10.8887-3.36914Q10.8887-2.99805 11.1133-2.76855Q11.3379-2.53906 11.6895-2.53906Q12.0605-2.53906 12.29-2.76855Q12.5195-2.99805 12.5195-3.36914L12.5195-6.25L15.4004-6.25Q15.7715-6.25 16.001-6.47461Q16.2305-6.69922 16.2305-7.05078Q16.2305-7.42188 16.001-7.65137Q15.7715-7.88086 15.4004-7.88086L12.5195-7.88086L12.5195-10.752Q12.5195-11.1328 12.29-11.3623Q12.0605-11.5918 11.6895-11.5918Q11.3379-11.5918 11.1133-11.3574Q10.8887-11.123 10.8887-10.752L10.8887-7.88086L8.01758-7.88086Q7.63672-7.88086 7.40723-7.65137Q7.17773-7.42188 7.17773-7.05078Z"/>
  </g>
  <g transform="matrix(1 0 0 1 305.646 1933)">
   <path d="M14.9707 5.66406Q17.0605 5.66406 18.96 5.01465Q20.8594 4.36523 22.4512 3.19336Q24.043 2.02148 25.2197 0.429688Q26.3965-1.16211 27.0459-3.06641Q27.6953-4.9707 27.6953-7.05078Q27.6953-9.14062 27.0459-11.04Q26.3965-12.9395 25.2197-14.5312Q24.043-16.123 22.4512-17.2998Q20.8594-18.4766 18.9551-19.126Q17.0508-19.7754 14.9609-19.7754Q12.8711-19.7754 10.9717-19.126Q9.07227-18.4766 7.48535-17.2998Q5.89844-16.123 4.72168-14.5312Q3.54492-12.9395 2.90039-11.04Q2.25586-9.14062 2.25586-7.05078Q2.25586-4.9707 2.90527-3.06641Q3.55469-1.16211 4.72656 0.429688Q5.89844 2.02148 7.49023 3.19336Q9.08203 4.36523 10.9814 5.01465Q12.8809 5.66406 14.9707 5.66406ZM14.9707 3.84766Q13.1641 3.84766 11.5283 3.2959Q9.89258 2.74414 8.53516 1.74805Q7.17773 0.751953 6.17676-0.610352Q5.17578-1.97266 4.62891-3.6084Q4.08203-5.24414 4.08203-7.05078Q4.08203-8.86719 4.62891-10.5029Q5.17578-12.1387 6.17188-13.501Q7.16797-14.8633 8.52539-15.8594Q9.88281-16.8555 11.5186-17.4023Q13.1543-17.9492 14.9609-17.9492Q16.7773-17.9492 18.4131-17.4023Q20.0488-16.8555 21.4111-15.8594Q22.7734-14.8633 23.7695-13.501Q24.7656-12.1387 25.3174-10.5029Q25.8691-8.86719 25.8691-7.05078Q25.8789-5.24414 25.332-3.6084Q24.7852-1.97266 23.7842-0.610352Q22.7832 0.751953 21.4209 1.74805Q20.0586 2.74414 18.4229 3.2959Q16.7871 3.84766 14.9707 3.84766ZM9.19922-7.05078Q9.19922-6.66992 9.45801-6.4209Q9.7168-6.17188 10.1172-6.17188L14.0625-6.17188L14.0625-2.2168Q14.0625-1.81641 14.3115-1.55762Q14.5605-1.29883 14.9512-1.29883Q15.3516-1.29883 15.6104-1.55273Q15.8691-1.80664 15.8691-2.2168L15.8691-6.17188L19.8242-6.17188Q20.2246-6.17188 20.4785-6.4209Q20.7324-6.66992 20.7324-7.05078Q20.7324-7.46094 20.4785-7.71484Q20.2246-7.96875 19.8242-7.96875L15.8691-7.96875L15.8691-11.9141Q15.8691-12.3242 15.6104-12.583Q15.3516-12.8418 14.9512-12.8418Q14.5605-12.8418 14.3115-12.583Q14.0625-12.3242 14.0625-11.9141L14.0625-7.96875L10.1172-7.96875Q9.70703-7.96875 9.45312-7.71484Q9.19922-7.46094 9.19922-7.05078Z"/>
  </g>
  <text style="stroke:none;fill:black;font-family:sans-serif;font-size:13;font-weight:bold;" transform="matrix(1 0 0 1 263 1953)">Design Variations</text>
  <text style="stroke:none;fill:black;font-family:sans-serif;font-size:13;" transform="matrix(1 0 0 1 263 1971)">Symbols are supported in up to nine weights and three scales.</text>
  <text style="stroke:none;fill:black;font-family:sans-serif;font-size:13;" transform="matrix(1 0 0 1 263 1989)">For optimal layout with text and other symbols, vertically align</text>
  <text style="stroke:none;fill:black;font-family:sans-serif;font-size:13;" transform="matrix(1 0 0 1 263 2007)">symbols with the adjacent text.</text>
  <line style="fill:none;stroke:#00AEEF;stroke-width:0.5;opacity:1.0;" x1="776" x2="776" y1="1919" y2="1933"/>
  <g transform="matrix(1 0 0 1 776 1933)">
   <path d="M3.31055 0.15625Q3.70117 0.15625 3.91602-0.00976562Q4.13086-0.175781 4.26758-0.585938L5.52734-4.0332L11.2891-4.0332L12.5488-0.585938Q12.6855-0.175781 12.9004-0.00976562Q13.1152 0.15625 13.4961 0.15625Q13.8867 0.15625 14.1162-0.0585938Q14.3457-0.273438 14.3457-0.644531Q14.3457-0.869141 14.2383-1.17188L9.6582-13.3691Q9.48242-13.8184 9.17969-14.043Q8.87695-14.2676 8.4082-14.2676Q7.5-14.2676 7.17773-13.3789L2.59766-1.16211Q2.49023-0.859375 2.49023-0.634766Q2.49023-0.263672 2.70996-0.0537109Q2.92969 0.15625 3.31055 0.15625ZM6.00586-5.51758L8.37891-12.0898L8.42773-12.0898L10.8008-5.51758Z"/>
  </g>
  <line style="fill:none;stroke:#00AEEF;stroke-width:0.5;opacity:1.0;" x1="793.197" x2="793.197" y1="1919" y2="1933"/>
  <text style="stroke:none;fill:black;font-family:sans-serif;font-size:13;font-weight:bold;" transform="matrix(1 0 0 1 776 1953)">Margins</text>
  <text style="stroke:none;fill:black;font-family:sans-serif;font-size:13;" transform="matrix(1 0 0 1 776 1971)">Leading and trailing margins on the left and right side of each symbol</text>
  <text style="stroke:none;fill:black;font-family:sans-serif;font-size:13;" transform="matrix(1 0 0 1 776 1989)">can be adjusted by modifying the x-location of the margin guidelines.</text>
  <text style="stroke:none;fill:black;font-family:sans-serif;font-size:13;" transform="matrix(1 0 0 1 776 2007)">Modifications are automatically applied proportionally to all</text>
  <text style="stroke:none;fill:black;font-family:sans-serif;font-size:13;" transform="matrix(1 0 0 1 776 2025)">scales and weights.</text>
  <g transform="matrix(1 0 0 1 1289 1933)">
   <path d="M2.8418 1.86523L4.54102 3.57422Q5.18555 4.22852 5.90332 4.17969Q6.62109 4.13086 7.31445 3.35938L18.0078-8.42773L17.041-9.4043L6.42578 2.27539Q6.16211 2.57812 5.89355 2.61719Q5.625 2.65625 5.27344 2.30469L4.10156 1.14258Q3.75 0.791016 3.79395 0.522461Q3.83789 0.253906 4.14062-0.0195312L15.6152-10.8203L14.6387-11.7871L3.04688-0.898438Q2.30469-0.214844 2.25098 0.498047Q2.19727 1.21094 2.8418 1.86523ZM9.25781-16.3281Q8.94531-16.0254 8.90625-15.6348Q8.86719-15.2441 9.04297-14.9512Q9.21875-14.6777 9.55566-14.541Q9.89258-14.4043 10.3809-14.5215Q11.4746-14.7754 12.5977-14.7314Q13.7207-14.6875 14.7949-13.9844L14.209-12.5293Q13.9551-11.9043 14.0674-11.4404Q14.1797-10.9766 14.5801-10.5664L16.875-8.25195Q17.2363-7.88086 17.5781-7.82227Q17.9199-7.76367 18.3398-7.8418L19.4043-8.03711L20.0684-7.36328L20.0293-6.80664Q20-6.43555 20.1221-6.12305Q20.2441-5.81055 20.6055-5.44922L21.3672-4.70703Q21.7285-4.3457 22.1533-4.33105Q22.5781-4.31641 22.9297-4.66797L25.8398-7.58789Q26.1914-7.93945 26.1816-8.35449Q26.1719-8.76953 25.8105-9.13086L25.0391-9.89258Q24.6875-10.2539 24.3799-10.3857Q24.0723-10.5176 23.7109-10.4883L23.1348-10.4395L22.4902-11.0742L22.7344-12.1973Q22.832-12.6172 22.6953-12.9834Q22.5586-13.3496 22.1191-13.7891L19.9219-15.9766Q18.6719-17.2168 17.2607-17.8369Q15.8496-18.457 14.4189-18.4814Q12.9883-18.5059 11.665-17.959Q10.3418-17.4121 9.25781-16.3281ZM10.752-15.957Q11.6602-16.6211 12.7002-16.9043Q13.7402-17.1875 14.8047-17.085Q15.8691-16.9824 16.8701-16.5137Q17.8711-16.0449 18.7012-15.2051L21.1328-12.793Q21.3086-12.6172 21.3525-12.4512Q21.3965-12.2852 21.3379-12.0312L21.0156-10.5469L22.5195-9.0625L23.5059-9.12109Q23.6914-9.13086 23.7891-9.09668Q23.8867-9.0625 24.0332-8.91602L24.6094-8.33984L22.168-5.89844L21.5918-6.47461Q21.4453-6.62109 21.4062-6.71875Q21.3672-6.81641 21.377-7.01172L21.4453-7.98828L19.9512-9.47266L18.4277-9.21875Q18.1836-9.16992 18.042-9.2041Q17.9004-9.23828 17.7148-9.41406L15.7129-11.416Q15.5176-11.5918 15.4932-11.7529Q15.4688-11.9141 15.5859-12.1875L16.4648-14.2773Q15.293-15.3711 13.8281-15.791Q12.3633-16.2109 10.8398-15.7617Q10.7227-15.7324 10.6885-15.8057Q10.6543-15.8789 10.752-15.957Z"/>
  </g>
  <text style="stroke:none;fill:black;font-family:sans-serif;font-size:13;font-weight:bold;" transform="matrix(1 0 0 1 1289 1953)">Exporting</text>
  <text style="stroke:none;fill:black;font-family:sans-serif;font-size:13;" transform="matrix(1 0 0 1 1289 1971)">Symbols should be outlined when exporting to ensure the</text>
  <text style="stroke:none;fill:black;font-family:sans-serif;font-size:13;" transform="matrix(1 0 0 1 1289 1989)">design is preserved when submitting to Xcode.</text>
  <text id="template-version" style="stroke:none;fill:black;font-family:sans-serif;font-size:13;text-anchor:end;" transform="matrix(1 0 0 1 3036 1933)">Template v.3.0</text>
  <text style="stroke:none;fill:black;font-family:sans-serif;font-size:13;text-anchor:end;" transform="matrix(1 0 0 1 3036 1951)">Requires Xcode 13 or greater</text>
  <text id="descriptive-name" style="stroke:none;fill:black;font-family:sans-serif;font-size:13;text-anchor:end;" transform="matrix(1 0 0 1 3036 1969)">Generated from git-merge</text>
  <text style="stroke:none;fill:black;font-family:sans-serif;font-size:13;text-anchor:end;" transform="matrix(1 0 0 1 3036 1987)">Typeset at 100 points</text>
  <text style="stroke:none;fill:black;font-family:sans-serif;font-size:13;" transform="matrix(1 0 0 1 263 726)">Small</text>
  <text style="stroke:none;fill:black;font-family:sans-serif;font-size:13;" transform="matrix(1 0 0 1 263 1156)">Medium</text>
  <text style="stroke:none;fill:black;font-family:sans-serif;font-size:13;" transform="matrix(1 0 0 1 263 1586)">Large</text>
 </g>
 <g id="Guides">
  <g id="H-reference" style="fill:#27AAE1;stroke:none;" transform="matrix(1 0 0 1 339 696)">
   <path d="M0.976562 0L3.66211 0L29.3457-67.1387L30.0293-67.1387L30.0293-70.459L28.125-70.459ZM11.6699-24.4629L46.9727-24.4629L46.2402-26.709L12.4512-26.709ZM55.127 0L57.7637 0L30.6152-70.459L29.4434-70.459L29.4434-67.1387Z"/>
  </g>
  <line id="Baseline-S" style="fill:none;stroke:#27AAE1;opacity:1;stroke-width:0.5;" x1="263" x2="3036" y1="696" y2="696"/>
  <line id="Capline-S" style="fill:none;stroke:#27AAE1;opacity:1;stroke-width:0.5;" x1="263" x2="3036" y1="625.541" y2="625.541"/>
  <g id="H-reference" style="fill:#27AAE1;stroke:none;" transform="matrix(1 0 0 1 339 1126)">
   <path d="M0.976562 0L3.66211 0L29.3457-67.1387L30.0293-67.1387L30.0293-70.459L28.125-70.459ZM11.6699-24.4629L46.9727-24.4629L46.2402-26.709L12.4512-26.709ZM55.127 0L57.7637 0L30.6152-70.459L29.4434-70.459L29.4434-67.1387Z"/>
  </g>
  <line id="Baseline-M" style="fill:none;stroke:#27AAE1;opacity:1;stroke-width:0.5;" x1="263" x2="3036" y1="1126" y2="1126"/>
  <line id="Capline-M" style="fill:none;stroke:#27AAE1;opacity:1;stroke-width:0.5;" x1="263" x2="3036" y1="1055.54" y2="1055.54"/>
  <g id="H-reference" style="fill:#27AAE1;stroke:none;" transform="matrix(1 0 0 1 339 1556)">
   <path d="M0.976562 0L3.66211 0L29.3457-67.1387L30.0293-67.1387L30.0293-70.459L28.125-70.459ZM11.6699-24.4629L46.9727-24.4629L46.2402-26.709L12.4512-26.709ZM55.127 0L57.7637 0L30.6152-70.459L29.4434-70.459L29.4434-67.1387Z"/>
  </g>
  <line id="Baseline-L" style="fill:none;stroke:#27AAE1;opacity:1;stroke-width:0.5;" x1="263" x2="3036" y1="1556" y2="1556"/>
  <line id="Capline-L" style="fill:none;stroke:#27AAE1;opacity:1;stroke-width:0.5;" x1="263" x2="3036" y1="1485.54" y2="1485.54"/>
  <line id="left-margin-Regular-M" style="fill:none;stroke:#00AEEF;stroke-width:0.5;opacity:1.0;" x1="1392.45" x2="1392.45" y1="1030.78" y2="1150.12"/>
  <line id="right-margin-Regular-M" style="fill:none;stroke:#00AEEF;stroke-width:0.5;opacity:1.0;" x1="1507.24" x2="1507.24" y1="1030.78" y2="1150.12"/>
 </g>
 <g id="Symbols">
  <g id="Black-L" transform="matrix(1 0 0 1 2861.38 1556)">
   <path class="hierarchical-0:secondary SFSymbolsPreview4D4D4D" d="M38.06-59.39C41.98-59.39 45.16-56.21 45.16-52.29C45.16-40.6 49.8-29.39 58.07-21.12C66.34-12.85 77.55-8.21 89.24-8.21C93.16-8.21 96.34-5.03 96.34-1.11C96.34 2.82 93.16 5.99 89.24 5.99C73.78 5.99 58.96-0.15 48.03-11.08C47.03-12.07 46.07-13.1 45.16-14.16L45.16 15.96C45.16 19.88 41.98 23.06 38.06 23.06C34.13 23.06 30.96 19.88 30.96 15.96L30.96-52.29C30.96-56.21 34.13-59.39 38.06-59.39Z"/>
   <path class="hierarchical-1:primary SFSymbolsPreview212121" d="M13.89-69.36C13.89-82.7 24.71-93.52 38.06-93.52C51.4-93.52 62.22-82.7 62.22-69.36C62.22-56.01 51.4-45.19 38.06-45.19C24.71-45.19 13.89-56.01 13.89-69.36ZM82.14-1.11C82.14-14.45 92.96-25.27 106.31-25.27C119.65-25.27 130.47-14.45 130.47-1.11C130.47 12.24 119.65 23.06 106.31 23.06C92.96 23.06 82.14 12.24 82.14-1.11ZM106.31-11.07C100.8-11.07 96.34-6.61 96.34-1.11C96.34 4.4 100.8 8.86 106.31 8.86C111.81 8.86 116.27 4.4 116.27-1.11C116.27-6.61 111.81-11.07 106.31-11.07ZM38.06-79.32C32.55-79.32 28.09-74.86 28.09-69.36C28.09-63.85 32.55-59.39 38.06-59.39C43.56-59.39 48.02-63.85 48.02-69.36C48.02-74.86 43.56-79.32 38.06-79.32Z"/>
  </g>
  <g id="Heavy-L" transform="matrix(1 0 0 1 2565.52 1556)">
   <path class="hierarchical-0:secondary SFSymbolsPreview4D4D4D" d="M37.2-58.54C40.65-58.54 43.45-55.74 43.45-52.29C43.45-40.37 48.19-28.94 56.61-20.52C65.04-12.09 76.47-7.36 88.39-7.36C91.84-7.36 94.64-4.56 94.64-1.11C94.64 2.35 91.84 5.14 88.39 5.14C73.16 5.14 58.55-0.91 47.78-11.68C46.24-13.22 44.79-14.83 43.45-16.52L43.45 15.96C43.45 19.41 40.65 22.21 37.2 22.21C33.75 22.21 30.95 19.41 30.95 15.96L30.95-52.29C30.95-55.74 33.75-58.54 37.2-58.54Z"/>
   <path class="hierarchical-1:primary SFSymbolsPreview212121" d="M13.89-69.36C13.89-82.23 24.33-92.67 37.2-92.67C50.08-92.67 60.52-82.23 60.52-69.36C60.52-56.48 50.08-46.04 37.2-46.04C24.33-46.04 13.89-56.48 13.89-69.36ZM82.14-1.11C82.14-13.98 92.58-24.42 105.45-24.42C118.33-24.42 128.76-13.98 128.76-1.11C128.76 11.77 118.33 22.21 105.45 22.21C92.58 22.21 82.14 11.77 82.14-1.11ZM105.45-11.92C99.48-11.92 94.64-7.08 94.64-1.11C94.64 4.87 99.48 9.71 105.45 9.71C111.42 9.71 116.26 4.87 116.26-1.11C116.26-7.08 111.42-11.92 105.45-11.92ZM37.2-80.17C31.23-80.17 26.39-75.33 26.39-69.36C26.39-63.38 31.23-58.54 37.2-58.54C43.17-58.54 48.02-63.38 48.02-69.36C48.02-75.33 43.17-80.17 37.2-80.17Z"/>
  </g>
  <g id="Bold-L" transform="matrix(1 0 0 1 2269.76 1556)">
   <path class="hierarchical-0:secondary SFSymbolsPreview4D4D4D" d="M36.25-57.59C39.18-57.59 41.55-55.22 41.55-52.29C41.55-40.12 46.38-28.45 54.99-19.85C63.6-11.24 75.27-6.41 87.44-6.41C90.36-6.41 92.74-4.03 92.74-1.11C92.74 1.82 90.36 4.19 87.44 4.19C72.46 4.19 58.09-1.76 47.49-12.35C45.31-14.53 43.33-16.88 41.55-19.35L41.55 15.96C41.55 18.88 39.18 21.26 36.25 21.26C33.32 21.26 30.95 18.88 30.95 15.96L30.95-52.29C30.95-55.22 33.32-57.59 36.25-57.59Z"/>
   <path class="hierarchical-1:primary SFSymbolsPreview212121" d="M13.89-69.36C13.89-81.71 23.9-91.72 36.25-91.72C48.6-91.72 58.61-81.71 58.61-69.36C58.61-57.01 48.6-46.99 36.25-46.99C23.9-46.99 13.89-57.01 13.89-69.36ZM82.14-1.11C82.14-13.46 92.15-23.47 104.5-23.47C116.85-23.47 126.86-13.46 126.86-1.11C126.86 11.24 116.85 21.26 104.5 21.26C92.15 21.26 82.14 11.24 82.14-1.11ZM104.5-12.87C98-12.87 92.74-7.6 92.74-1.11C92.74 5.39 98 10.66 104.5 10.66C111 10.66 116.26 5.39 116.26-1.11C116.26-7.6 111-12.87 104.5-12.87ZM36.25-81.12C29.75-81.12 24.49-75.85 24.49-69.36C24.49-62.86 29.75-57.59 36.25-57.59C42.75-57.59 48.01-62.86 48.01-69.36C48.01-75.85 42.75-81.12 36.25-81.12Z"/>
  </g>
  <g id="Semibold-L" transform="matrix(1 0 0 1 1973.69 1556)">
   <path class="hierarchical-0:secondary SFSymbolsPreview4D4D4D" d="M35.61-56.94C38.17-56.94 40.26-54.86 40.26-52.29C40.26-39.95 45.16-28.11 53.89-19.39C62.61-10.66 74.45-5.76 86.79-5.76C89.36-5.76 91.44-3.67 91.44-1.11C91.44 1.46 89.36 3.54 86.79 3.54C71.98 3.54 57.78-2.34 47.31-12.81C44.66-15.46 42.3-18.36 40.26-21.44L40.26 15.96C40.26 18.52 38.17 20.61 35.61 20.61C33.04 20.61 30.96 18.52 30.96 15.96L30.96-52.29C30.96-54.86 33.04-56.94 35.61-56.94Z"/>
   <path class="hierarchical-1:primary SFSymbolsPreview212121" d="M13.89-69.36C13.89-81.35 23.61-91.07 35.61-91.07C47.6-91.07 57.32-81.35 57.32-69.36C57.32-57.36 47.6-47.64 35.61-47.64C23.61-47.64 13.89-57.36 13.89-69.36ZM82.14-1.11C82.14-13.1 91.86-22.82 103.85-22.82C115.85-22.82 125.57-13.1 125.57-1.11C125.57 10.89 115.85 20.61 103.85 20.61C91.86 20.61 82.14 10.89 82.14-1.11ZM103.85-13.52C97-13.52 91.44-7.96 91.44-1.11C91.44 5.75 97 11.31 103.85 11.31C110.71 11.31 116.27 5.75 116.27-1.11C116.27-7.96 110.71-13.52 103.85-13.52ZM35.61-81.77C28.75-81.77 23.19-76.21 23.19-69.36C23.19-62.5 28.75-56.94 35.61-56.94C42.46-56.94 48.02-62.5 48.02-69.36C48.02-76.21 42.46-81.77 35.61-81.77Z"/>
  </g>
  <g id="Medium-L" transform="matrix(1 0 0 1 1677.48 1556)">
   <path class="hierarchical-0:secondary SFSymbolsPreview4D4D4D" d="M35.11-56.44C37.4-56.44 39.26-54.59 39.26-52.29C39.26-39.82 44.21-27.85 53.03-19.03C61.85-10.21 73.82-5.26 86.29-5.26C88.58-5.26 90.44-3.4 90.44-1.11C90.44 1.19 88.58 3.04 86.29 3.04C71.62 3.04 57.54-2.79 47.16-13.16C44.13-16.2 41.48-19.55 39.26-23.14L39.26 15.96C39.26 18.25 37.4 20.11 35.11 20.11C32.81 20.11 30.96 18.25 30.96 15.96L30.96-52.29C30.96-54.59 32.81-56.44 35.11-56.44Z"/>
   <path class="hierarchical-1:primary SFSymbolsPreview212121" d="M13.89-69.36C13.89-81.07 23.39-90.57 35.11-90.57C46.82-90.57 56.32-81.07 56.32-69.36C56.32-57.64 46.82-48.14 35.11-48.14C23.39-48.14 13.89-57.64 13.89-69.36ZM82.14-1.11C82.14-12.82 91.64-22.32 103.36-22.32C115.07-22.32 124.57-12.82 124.57-1.11C124.57 10.61 115.07 20.11 103.36 20.11C91.64 20.11 82.14 10.61 82.14-1.11ZM103.36-14.02C96.22-14.02 90.44-8.24 90.44-1.11C90.44 6.03 96.22 11.81 103.36 11.81C110.49 11.81 116.27 6.03 116.27-1.11C116.27-8.24 110.49-14.02 103.36-14.02ZM35.11-82.27C27.97-82.27 22.19-76.49 22.19-69.36C22.19-62.22 27.97-56.44 35.11-56.44C42.24-56.44 48.02-62.22 48.02-69.36C48.02-76.49 42.24-82.27 35.11-82.27Z"/>
  </g>
  <g id="Regular-L" transform="matrix(1 0 0 1 1381.42 1556)">
   <path class="hierarchical-0:secondary SFSymbolsPreview4D4D4D" d="M34.46-55.79C36.39-55.79 37.96-54.23 37.96-52.29C37.96-39.65 42.98-27.52 51.92-18.57C60.87-9.63 72.99-4.61 85.64-4.61C87.58-4.61 89.14-3.04 89.14-1.11C89.14 0.83 87.58 2.39 85.64 2.39C71.14 2.39 57.23-3.37 46.97-13.62C43.41-17.19 40.38-21.2 37.96-25.52L37.96 15.96C37.96 17.89 36.39 19.46 34.46 19.46C32.52 19.46 30.96 17.89 30.96 15.96L30.96-52.29C30.96-54.23 32.52-55.79 34.46-55.79Z"/>
   <path class="hierarchical-1:primary SFSymbolsPreview212121" d="M13.89-69.36C13.89-80.71 23.1-89.92 34.46-89.92C45.81-89.92 55.02-80.71 55.02-69.36C55.02-58 45.81-48.79 34.46-48.79C23.1-48.79 13.89-58 13.89-69.36ZM82.14-1.11C82.14-12.46 91.35-21.67 102.7-21.67C114.06-21.67 123.27-12.46 123.27-1.11C123.27 10.25 114.06 19.46 102.7 19.46C91.35 19.46 82.14 10.25 82.14-1.11ZM102.7-14.67C95.21-14.67 89.14-8.6 89.14-1.11C89.14 6.38 95.21 12.46 102.7 12.46C110.2 12.46 116.27 6.38 116.27-1.11C116.27-8.6 110.2-14.67 102.7-14.67ZM34.46-82.92C26.96-82.92 20.89-76.85 20.89-69.36C20.89-61.87 26.96-55.79 34.46-55.79C41.95-55.79 48.02-61.87 48.02-69.36C48.02-76.85 41.95-82.92 34.46-82.92Z"/>
  </g>
  <g id="Light-L" transform="matrix(1 0 0 1 1085.51 1556)">
   <path class="hierarchical-0:secondary SFSymbolsPreview4D4D4D" d="M33.65-54.99C35.15-54.99 36.35-53.78 36.35-52.29C36.35-39.43 41.46-27.1 50.56-18.01C59.65-8.91 71.98-3.8 84.84-3.8C86.33-3.8 87.54-2.6 87.54-1.1C87.54 0.39 86.33 1.6 84.84 1.6C70.55 1.6 56.84-4.08 46.74-14.19C42.45-18.48 38.95-23.42 36.35-28.78L36.35 15.96C36.35 17.45 35.15 18.66 33.65 18.66C32.16 18.66 30.95 17.45 30.95 15.96L30.95-52.29C30.95-53.78 32.16-54.99 33.65-54.99Z"/>
   <path class="hierarchical-1:primary SFSymbolsPreview212121" d="M13.89-69.35C13.89-80.27 22.74-89.12 33.65-89.12C44.57-89.12 53.42-80.27 53.42-69.35C53.42-58.44 44.57-49.59 33.65-49.59C22.74-49.59 13.89-58.44 13.89-69.35ZM82.14-1.1C82.14-12.02 90.99-20.87 101.9-20.87C112.82-20.87 121.67-12.02 121.67-1.1C121.67 9.81 112.82 18.66 101.9 18.66C90.99 18.66 82.14 9.81 82.14-1.1ZM101.9-15.47C93.97-15.47 87.54-9.04 87.54-1.1C87.54 6.83 93.97 13.26 101.9 13.26C109.84 13.26 116.27 6.83 116.27-1.1C116.27-9.04 109.84-15.47 101.9-15.47ZM33.65-83.72C25.72-83.72 19.29-77.29 19.29-69.35C19.29-61.42 25.72-54.99 33.65-54.99C41.59-54.99 48.02-61.42 48.02-69.35C48.02-77.29 41.59-83.72 33.65-83.72Z"/>
  </g>
  <g id="Thin-L" transform="matrix(1 0 0 1 789.85 1556)">
   <path class="hierarchical-0:secondary SFSymbolsPreview4D4D4D" d="M32.602-53.94C33.513-53.94 34.252-53.2 34.252-52.29C34.252-39.16 39.471-26.56 48.761-17.27C58.051-7.97 70.651-2.76 83.79-2.76C84.701-2.76 85.44-2.02 85.44-1.11C85.44-0.19 84.701 0.54 83.79 0.54C69.776 0.54 56.337-5.02 46.428-14.93C40.999-20.36 36.873-26.85 34.252-33.91L34.252 15.96C34.252 16.87 33.513 17.61 32.602 17.61C31.691 17.61 30.952 16.87 30.952 15.96L30.952-52.29C30.952-53.2 31.691-53.94 32.602-53.94Z"/>
   <path class="hierarchical-1:primary SFSymbolsPreview212121" d="M13.89-69.36C13.89-79.69 22.267-88.07 32.602-88.07C42.937-88.07 51.315-79.69 51.315-69.36C51.315-59.02 42.937-50.64 32.602-50.64C22.267-50.64 13.89-59.02 13.89-69.36ZM82.14-1.11C82.14-11.44 90.517-19.82 100.852-19.82C111.187-19.82 119.565-11.44 119.565-1.11C119.565 9.23 111.187 17.61 100.852 17.61C90.517 17.61 82.14 9.23 82.14-1.11ZM100.852-16.52C92.34-16.52 85.44-9.62 85.44-1.11C85.44 7.41 92.34 14.31 100.852 14.31C109.364 14.31 116.265 7.41 116.265-1.11C116.265-9.62 109.364-16.52 100.852-16.52ZM32.602-84.77C24.09-84.77 17.19-77.87 17.19-69.36C17.19-60.84 24.09-53.94 32.602-53.94C41.114-53.94 48.015-60.84 48.015-69.36C48.015-77.87 41.114-84.77 32.602-84.77Z"/>
  </g>
  <g id="Ultralight-L" transform="matrix(1 0 0 1 493.689 1556)">
   <path class="hierarchical-0:secondary SFSymbolsPreview4D4D4D" d="M32.053-53.39C32.66-53.39 33.153-52.9 33.153-52.29C33.153-39.01 38.43-26.27 47.823-16.88C57.216-7.48 69.956-2.21 83.24-2.21C83.848-2.21 84.34-1.71 84.34-1.11C84.34-0.5 83.848-0.01 83.24-0.01C69.373-0.01 56.073-5.51 46.268-15.32C40.089-21.5 35.616-29.06 33.153-37.28L33.153 15.96C33.153 16.56 32.66 17.06 32.053 17.06C31.445 17.06 30.953 16.56 30.953 15.96L30.953-52.29C30.953-52.9 31.445-53.39 32.053-53.39Z"/>
   <path class="hierarchical-1:primary SFSymbolsPreview212121" d="M13.89-69.36C13.89-79.39 22.022-87.52 32.053-87.52C42.084-87.52 50.215-79.39 50.215-69.36C50.215-59.32 42.084-51.19 32.053-51.19C22.022-51.19 13.89-59.32 13.89-69.36ZM82.14-1.11C82.14-11.14 90.272-19.27 100.303-19.27C110.334-19.27 118.465-11.14 118.465-1.11C118.465 8.93 110.334 17.06 100.303 17.06C90.272 17.06 82.14 8.93 82.14-1.11ZM100.303-17.07C91.487-17.07 84.34-9.92 84.34-1.11C84.34 7.71 91.487 14.86 100.303 14.86C109.119 14.86 116.265 7.71 116.265-1.11C116.265-9.92 109.119-17.07 100.303-17.07ZM32.053-85.32C23.237-85.32 16.09-78.17 16.09-69.36C16.09-60.54 23.237-53.39 32.053-53.39C40.869-53.39 48.015-60.54 48.015-69.36C48.015-78.17 40.869-85.32 32.053-85.32Z"/>
  </g>
  <g id="Black-M" transform="matrix(1 0 0 1 2872.4 1126)">
   <path class="hierarchical-0:secondary SFSymbolsPreview4D4D4D" d="M34.38-55.72C38.3-55.72 41.48-52.54 41.48-48.62C41.48-39.85 44.96-31.44 51.16-25.24C57.36-19.04 65.77-15.56 74.54-15.56C78.46-15.56 81.64-12.38 81.64-8.46C81.64-4.54 78.46-1.36 74.54-1.36C62.17-1.36 50.31-6.2 41.48-14.85L41.48 4.93C41.48 8.85 38.3 12.03 34.38 12.03C30.46 12.03 27.28 8.85 27.28 4.93L27.28-48.62C27.28-52.54 30.46-55.72 34.38-55.72Z"/>
   <path class="hierarchical-1:primary SFSymbolsPreview212121" d="M13.89-62C13.89-73.32 23.06-82.49 34.38-82.49C45.69-82.49 54.87-73.32 54.87-62C54.87-50.69 45.69-41.52 34.38-41.52C23.06-41.52 13.89-50.69 13.89-62ZM67.44-8.46C67.44-19.77 76.61-28.94 87.93-28.94C99.24-28.94 108.42-19.77 108.42-8.46C108.42 2.86 99.24 12.03 87.93 12.03C76.61 12.03 67.44 2.86 67.44-8.46ZM87.93-14.74C84.46-14.74 81.64-11.93 81.64-8.46C81.64-4.98 84.46-2.17 87.93-2.17C91.4-2.17 94.22-4.98 94.22-8.46C94.22-11.93 91.4-14.74 87.93-14.74ZM34.38-68.29C30.91-68.29 28.09-65.48 28.09-62C28.09-58.53 30.91-55.72 34.38-55.72C37.85-55.72 40.67-58.53 40.67-62C40.67-65.48 37.85-68.29 34.38-68.29Z"/>
  </g>
  <g id="Heavy-M" transform="matrix(1 0 0 1 2576.54 1126)">
   <path class="hierarchical-0:secondary SFSymbolsPreview4D4D4D" d="M33.53-54.87C36.98-54.87 39.78-52.07 39.78-48.62C39.78-39.62 43.35-31 49.71-24.64C56.07-18.28 64.7-14.7 73.69-14.7C77.14-14.7 79.94-11.91 79.94-8.45C79.94-5 77.14-2.2 73.69-2.2C61.38-2.2 49.58-7.09 40.87-15.8C40.5-16.17 40.14-16.55 39.78-16.93L39.78 4.93C39.78 8.38 36.98 11.18 33.53 11.18C30.08 11.18 27.28 8.38 27.28 4.93L27.28-48.62C27.28-52.07 30.08-54.87 33.53-54.87Z"/>
   <path class="hierarchical-1:primary SFSymbolsPreview212121" d="M13.89-62.01C13.89-72.85 22.68-81.64 33.53-81.64C44.38-81.64 53.17-72.85 53.17-62.01C53.17-51.16 44.38-42.37 33.53-42.37C22.68-42.37 13.89-51.16 13.89-62.01ZM67.44-8.46C67.44-19.3 76.23-28.09 87.08-28.09C97.93-28.09 106.72-19.3 106.72-8.46C106.72 2.39 97.93 11.18 87.08 11.18C76.23 11.18 67.44 2.39 67.44-8.46ZM87.08-15.59C83.14-15.59 79.94-12.4 79.94-8.46C79.94-4.51 83.14-1.32 87.08-1.32C91.02-1.32 94.22-4.51 94.22-8.46C94.22-12.4 91.02-15.59 87.08-15.59ZM33.53-69.14C29.59-69.14 26.39-65.95 26.39-62.01C26.39-58.06 29.59-54.87 33.53-54.87C37.47-54.87 40.67-58.06 40.67-62.01C40.67-65.95 37.47-69.14 33.53-69.14Z"/>
  </g>
  <g id="Bold-M" transform="matrix(1 0 0 1 2280.78 1126)">
   <path class="hierarchical-0:secondary SFSymbolsPreview4D4D4D" d="M32.58-53.92C35.51-53.92 37.88-51.54 37.88-48.62C37.88-39.37 41.55-30.5 48.09-23.96C54.63-17.43 63.5-13.75 72.74-13.75C75.67-13.75 78.04-11.38 78.04-8.45C78.04-5.53 75.67-3.15 72.74-3.15C60.68-3.15 49.12-7.94 40.6-16.47C39.64-17.42 38.74-18.41 37.88-19.44L37.88 4.93C37.88 7.86 35.51 10.23 32.58 10.23C29.65 10.23 27.28 7.86 27.28 4.93L27.28-48.62C27.28-51.54 29.65-53.92 32.58-53.92Z"/>
   <path class="hierarchical-1:primary SFSymbolsPreview212121" d="M13.89-62C13.89-72.32 22.26-80.69 32.58-80.69C42.9-80.69 51.27-72.32 51.27-62C51.27-51.68 42.9-43.32 32.58-43.32C22.26-43.32 13.89-51.68 13.89-62ZM67.44-8.45C67.44-18.77 75.81-27.14 86.13-27.14C96.45-27.14 104.82-18.77 104.82-8.45C104.82 1.87 96.45 10.23 86.13 10.23C75.81 10.23 67.44 1.87 67.44-8.45ZM86.13-16.54C81.66-16.54 78.04-12.92 78.04-8.45C78.04-3.99 81.66-0.37 86.13-0.37C90.6-0.37 94.22-3.99 94.22-8.45C94.22-12.92 90.6-16.54 86.13-16.54ZM32.58-70.09C28.11-70.09 24.49-66.47 24.49-62C24.49-57.54 28.11-53.92 32.58-53.92C37.05-53.92 40.67-57.54 40.67-62C40.67-66.47 37.05-70.09 32.58-70.09Z"/>
  </g>
  <g id="Semibold-M" transform="matrix(1 0 0 1 1984.72 1126)">
   <path class="hierarchical-0:secondary SFSymbolsPreview4D4D4D" d="M31.93-53.27C34.49-53.27 36.58-51.18 36.58-48.62C36.58-39.2 40.32-30.16 46.98-23.5C53.64-16.84 62.67-13.1 72.09-13.1C74.66-13.1 76.74-11.02 76.74-8.45C76.74-5.89 74.66-3.8 72.09-3.8C60.2-3.8 48.8-8.52 40.4-16.93C39.03-18.3 37.75-19.76 36.58-21.28L36.58 4.93C36.58 7.5 34.49 9.58 31.93 9.58C29.36 9.58 27.28 7.5 27.28 4.93L27.28-48.62C27.28-51.18 29.36-53.27 31.93-53.27Z"/>
   <path class="hierarchical-1:primary SFSymbolsPreview212121" d="M13.89-62C13.89-71.97 21.96-80.04 31.92-80.04C41.89-80.04 49.96-71.97 49.96-62C49.96-52.04 41.89-43.97 31.92-43.97C21.96-43.97 13.89-52.04 13.89-62ZM67.44-8.45C67.44-18.41 75.51-26.49 85.47-26.49C95.44-26.49 103.51-18.41 103.51-8.45C103.51 1.51 95.44 9.58 85.47 9.58C75.51 9.58 67.44 1.51 67.44-8.45ZM85.47-17.19C80.65-17.19 76.74-13.28 76.74-8.45C76.74-3.63 80.65 0.28 85.47 0.28C90.3 0.28 94.21-3.63 94.21-8.45C94.21-13.28 90.3-17.19 85.47-17.19ZM31.92-70.74C27.1-70.74 23.19-66.83 23.19-62C23.19-57.18 27.1-53.27 31.92-53.27C36.75-53.27 40.66-57.18 40.66-62C40.66-66.83 36.75-70.74 31.92-70.74Z"/>
  </g>
  <g id="Medium-M" transform="matrix(1 0 0 1 1688.51 1126)">
   <path class="hierarchical-0:secondary SFSymbolsPreview4D4D4D" d="M31.43-52.77C33.72-52.77 35.58-50.91 35.58-48.62C35.58-39.06 39.37-29.9 46.12-23.15C52.88-16.4 62.04-12.6 71.59-12.6C73.88-12.6 75.74-10.75 75.74-8.45C75.74-6.16 73.88-4.3 71.59-4.3C59.84-4.3 48.56-8.97 40.25-17.28C38.54-19 36.97-20.85 35.58-22.79L35.58 4.93C35.58 7.23 33.72 9.08 31.43 9.08C29.13 9.08 27.28 7.23 27.28 4.93L27.28-48.62C27.28-50.91 29.13-52.77 31.43-52.77Z"/>
   <path class="hierarchical-1:primary SFSymbolsPreview212121" d="M13.89-62C13.89-71.69 21.74-79.54 31.42-79.54C41.11-79.54 48.96-71.69 48.96-62C48.96-52.32 41.11-44.47 31.42-44.47C21.74-44.47 13.89-52.32 13.89-62ZM67.44-8.45C67.44-18.14 75.29-25.99 84.97-25.99C94.66-25.99 102.51-18.14 102.51-8.45C102.51 1.23 94.66 9.08 84.97 9.08C75.29 9.08 67.44 1.23 67.44-8.45ZM84.97-17.69C79.87-17.69 75.74-13.55 75.74-8.45C75.74-3.35 79.87 0.78 84.97 0.78C90.08 0.78 94.21-3.35 94.21-8.45C94.21-13.55 90.08-17.69 84.97-17.69ZM31.42-71.24C26.32-71.24 22.19-67.11 22.19-62C22.19-56.9 26.32-52.77 31.42-52.77C36.53-52.77 40.66-56.9 40.66-62C40.66-67.11 36.53-71.24 31.42-71.24Z"/>
  </g>
  <g id="Regular-M" transform="matrix(1 0 0 1 1392.45 1126)">
   <path class="hierarchical-0:secondary SFSymbolsPreview4D4D4D" d="M30.78-52.12C32.71-52.12 34.28-50.55 34.28-48.62C34.28-38.89 38.14-29.57 45.01-22.69C51.89-15.82 61.21-11.95 70.94-11.95C72.87-11.95 74.44-10.39 74.44-8.45C74.44-6.52 72.87-4.95 70.94-4.95C59.36-4.95 48.25-9.55 40.06-17.74C37.87-19.93 35.93-22.34 34.28-24.9L34.28 4.93C34.28 6.87 32.71 8.43 30.78 8.43C28.84 8.43 27.28 6.87 27.28 4.93L27.28-48.62C27.28-50.55 28.84-52.12 30.78-52.12Z"/>
   <path class="hierarchical-1:primary SFSymbolsPreview212121" d="M13.89-62C13.89-71.33 21.45-78.89 30.77-78.89C40.1-78.89 47.66-71.33 47.66-62C47.66-52.68 40.1-45.12 30.77-45.12C21.45-45.12 13.89-52.68 13.89-62ZM67.44-8.45C67.44-17.78 75-25.34 84.33-25.34C93.65-25.34 101.21-17.78 101.21-8.45C101.21 0.87 93.65 8.43 84.33 8.43C75 8.43 67.44 0.87 67.44-8.45ZM84.33-18.34C78.86-18.34 74.44-13.92 74.44-8.45C74.44-2.99 78.86 1.43 84.33 1.43C89.79 1.43 94.21-2.99 94.21-8.45C94.21-13.92 89.79-18.34 84.33-18.34ZM30.77-71.89C25.31-71.89 20.89-67.46 20.89-62C20.89-56.54 25.31-52.12 30.77-52.12C36.24-52.12 40.66-56.54 40.66-62C40.66-67.46 36.24-71.89 30.77-71.89Z"/>
  </g>
  <g id="Light-M" transform="matrix(1 0 0 1 1096.54 1126)">
   <path class="hierarchical-0:secondary SFSymbolsPreview4D4D4D" d="M29.97-51.32C31.47-51.32 32.67-50.11 32.67-48.62C32.67-38.68 36.62-29.15 43.65-22.13C50.67-15.1 60.2-11.15 70.14-11.15C71.63-11.15 72.84-9.95 72.84-8.45C72.84-6.96 71.63-5.75 70.14-5.75C58.77-5.75 47.87-10.27 39.83-18.31C36.99-21.15 34.59-24.34 32.67-27.79L32.67 4.93C32.67 6.42 31.47 7.63 29.97 7.63C28.48 7.63 27.27 6.42 27.27 4.93L27.27-48.62C27.27-50.11 28.48-51.32 29.97-51.32Z"/>
   <path class="hierarchical-1:primary SFSymbolsPreview212121" d="M13.89-62C13.89-70.89 21.09-78.09 29.98-78.09C38.86-78.09 46.06-70.89 46.06-62C46.06-53.12 38.86-45.92 29.98-45.92C21.09-45.92 13.89-53.12 13.89-62ZM67.44-8.45C67.44-17.34 74.64-24.54 83.52-24.54C92.41-24.54 99.61-17.34 99.61-8.45C99.61 0.43 92.41 7.63 83.52 7.63C74.64 7.63 67.44 0.43 67.44-8.45ZM83.52-19.14C77.62-19.14 72.84-14.36 72.84-8.45C72.84-2.55 77.62 2.23 83.52 2.23C89.43 2.23 94.21-2.55 94.21-8.45C94.21-14.36 89.43-19.14 83.52-19.14ZM29.98-72.69C24.07-72.69 19.29-67.91 19.29-62C19.29-56.1 24.07-51.32 29.98-51.32C35.88-51.32 40.66-56.1 40.66-62C40.66-67.91 35.88-72.69 29.98-72.69Z"/>
  </g>
  <g id="Thin-M" transform="matrix(1 0 0 1 800.875 1126)">
   <path class="hierarchical-0:secondary SFSymbolsPreview4D4D4D" d="M28.927-50.27C29.838-50.27 30.577-49.53 30.577-48.62C30.577-38.4 34.635-28.61 41.857-21.38C49.08-14.16 58.876-10.1 69.09-10.1C70.001-10.1 70.74-9.36 70.74-8.45C70.74-7.54 70.001-6.8 69.09-6.8C58-6.8 47.365-11.21 39.524-19.05C35.676-22.9 32.656-27.42 30.577-32.33L30.577 4.93C30.577 5.85 29.838 6.58 28.927 6.58C28.016 6.58 27.277 5.85 27.277 4.93L27.277-48.62C27.277-49.53 28.016-50.27 28.927-50.27Z"/>
   <path class="hierarchical-1:primary SFSymbolsPreview212121" d="M13.89-62C13.89-70.31 20.622-77.04 28.927-77.04C37.232-77.04 43.964-70.31 43.964-62C43.964-53.7 37.232-46.97 28.927-46.97C20.622-46.97 13.89-53.7 13.89-62ZM67.439-8.45C67.439-16.76 74.172-23.49 82.477-23.49C90.782-23.49 97.514-16.76 97.514-8.45C97.514-0.15 90.782 6.58 82.477 6.58C74.172 6.58 67.439-0.15 67.439-8.45ZM82.477-20.19C75.994-20.19 70.739-14.94 70.739-8.45C70.739-1.97 75.994 3.28 82.477 3.28C88.959 3.28 94.214-1.97 94.214-8.45C94.214-14.94 88.959-20.19 82.477-20.19ZM28.927-73.74C22.445-73.74 17.189-68.49 17.189-62C17.189-55.52 22.445-50.27 28.927-50.27C35.409-50.27 40.664-55.52 40.664-62C40.664-68.49 35.409-73.74 28.927-73.74Z"/>
  </g>
  <g id="Ultralight-M" transform="matrix(1 0 0 1 504.713 1126)">
   <path class="hierarchical-0:secondary SFSymbolsPreview4D4D4D" d="M28.378-49.72C28.986-49.72 29.478-49.22 29.478-48.62C29.478-38.26 33.594-28.32 40.919-21C48.245-13.67 58.18-9.55 68.541-9.55C69.148-9.55 69.641-9.06 69.641-8.45C69.641-7.85 69.148-7.35 68.541-7.35C57.597-7.35 47.102-11.7 39.364-19.44C34.853-23.95 31.495-29.4 29.478-35.32L29.478 4.93C29.478 5.54 28.986 6.03 28.378 6.03C27.77 6.03 27.278 5.54 27.278 4.93L27.278-48.62C27.278-49.22 27.77-49.72 28.378-49.72Z"/>
   <path class="hierarchical-1:primary SFSymbolsPreview212121" d="M13.89-62C13.89-70 20.377-76.49 28.378-76.49C36.379-76.49 42.865-70 42.865-62C42.865-54 36.379-47.52 28.378-47.52C20.377-47.52 13.89-54 13.89-62ZM67.441-8.45C67.441-16.46 73.927-22.94 81.928-22.94C89.929-22.94 96.416-16.46 96.416-8.45C96.416-0.45 89.929 6.03 81.928 6.03C73.927 6.03 67.441-0.45 67.441-8.45ZM81.928-20.74C75.142-20.74 69.641-15.24 69.641-8.45C69.641-1.67 75.142 3.83 81.928 3.83C88.714 3.83 94.216-1.67 94.216-8.45C94.216-15.24 88.714-20.74 81.928-20.74ZM28.378-74.29C21.592-74.29 16.09-68.79 16.09-62C16.09-55.22 21.592-49.72 28.378-49.72C35.164-49.72 40.665-55.22 40.665-62C40.665-68.79 35.164-74.29 28.378-74.29Z"/>
  </g>
  <g id="Black-S" transform="matrix(1 0 0 1 2881.07 696)">
   <path class="hierarchical-0:secondary SFSymbolsPreview4D4D4D" d="M31.49-52.932C35.41-52.932 38.59-49.753 38.59-45.832C38.59-39.36 41.16-33.154 45.74-28.578C50.31-24.002 56.52-21.432 62.99-21.432C66.91-21.432 70.09-18.253 70.09-14.332C70.09-10.41 66.91-7.232 62.99-7.232C54.06-7.232 45.45-10.326 38.59-15.922L38.59-3.832C38.59 0.09 35.41 3.268 31.49 3.268C27.57 3.268 24.39 0.09 24.39-3.832L24.39-45.832C24.39-49.753 27.57-52.932 31.49-52.932Z"/>
   <path class="hierarchical-1:primary SFSymbolsPreview212121" d="M13.89-56.332C13.89-66.052 21.77-73.932 31.49-73.932C41.21-73.932 49.09-66.052 49.09-56.332C49.09-46.611 41.21-38.732 31.49-38.732C21.77-38.732 13.89-46.611 13.89-56.332ZM55.89-14.332C55.89-24.052 63.77-31.932 73.49-31.932C83.21-31.932 91.09-24.052 91.09-14.332C91.09-4.611 83.21 3.268 73.49 3.268C63.77 3.268 55.89-4.611 55.89-14.332ZM73.49-17.732C71.61-17.732 70.09-16.209 70.09-14.332C70.09-12.454 71.61-10.932 73.49-10.932C75.37-10.932 76.89-12.454 76.89-14.332C76.89-16.209 75.37-17.732 73.49-17.732ZM31.49-59.732C29.61-59.732 28.09-58.209 28.09-56.332C28.09-54.454 29.61-52.932 31.49-52.932C33.37-52.932 34.89-54.454 34.89-56.332C34.89-58.209 33.37-59.732 31.49-59.732Z"/>
  </g>
  <g id="Heavy-S" transform="matrix(1 0 0 1 2585.2 696)">
   <path class="hierarchical-0:secondary SFSymbolsPreview4D4D4D" d="M30.64-52.082C34.09-52.082 36.89-49.284 36.89-45.832C36.89-39.135 39.55-32.713 44.29-27.978C49.02-23.242 55.44-20.582 62.14-20.582C65.59-20.582 68.39-17.784 68.39-14.332C68.39-10.88 65.59-8.082 62.14-8.082C52.79-8.082 43.8-11.549 36.89-17.77L36.89-3.832C36.89-0.38 34.09 2.418 30.64 2.418C27.19 2.418 24.39-0.38 24.39-3.832L24.39-45.832C24.39-49.284 27.19-52.082 30.64-52.082Z"/>
   <path class="hierarchical-1:primary SFSymbolsPreview212121" d="M13.89-56.332C13.89-65.583 21.39-73.082 30.64-73.082C39.89-73.082 47.39-65.583 47.39-56.332C47.39-47.081 39.89-39.582 30.64-39.582C21.39-39.582 13.89-47.081 13.89-56.332ZM55.89-14.332C55.89-23.583 63.39-31.082 72.64-31.082C81.89-31.082 89.39-23.583 89.39-14.332C89.39-5.081 81.89 2.418 72.64 2.418C63.39 2.418 55.89-5.081 55.89-14.332ZM72.64-18.582C70.29-18.582 68.39-16.679 68.39-14.332C68.39-11.985 70.29-10.082 72.64-10.082C74.99-10.082 76.89-11.985 76.89-14.332C76.89-16.679 74.99-18.582 72.64-18.582ZM30.64-60.582C28.29-60.582 26.39-58.679 26.39-56.332C26.39-53.985 28.29-52.082 30.64-52.082C32.99-52.082 34.89-53.985 34.89-56.332C34.89-58.679 32.99-60.582 30.64-60.582Z"/>
  </g>
  <g id="Bold-S" transform="matrix(1 0 0 1 2289.44 696)">
   <path class="hierarchical-0:secondary SFSymbolsPreview4D4D4D" d="M29.69-50.928C32.62-50.928 34.99-48.555 34.99-45.628C34.99-38.679 37.76-32.015 42.67-27.102C47.58-22.188 54.25-19.428 61.19-19.428C64.12-19.428 66.49-17.055 66.49-14.128C66.49-11.201 64.12-8.828 61.19-8.828C51.43-8.828 42.07-12.705 35.17-19.606C35.11-19.666 35.05-19.726 34.99-19.786L34.99-3.628C34.99-0.701 32.62 1.672 29.69 1.672C26.77 1.672 24.39-0.701 24.39-3.628L24.39-45.628C24.39-48.555 26.77-50.928 29.69-50.928Z"/>
   <path class="hierarchical-1:primary SFSymbolsPreview212121" d="M13.89-56.128C13.89-64.854 20.97-71.928 29.69-71.928C38.42-71.928 45.49-64.854 45.49-56.128C45.49-47.402 38.42-40.328 29.69-40.328C20.97-40.328 13.89-47.402 13.89-56.128ZM55.89-14.128C55.89-22.854 62.97-29.928 71.69-29.928C80.42-29.928 87.49-22.854 87.49-14.128C87.49-5.402 80.42 1.672 71.69 1.672C62.97 1.672 55.89-5.402 55.89-14.128ZM71.69-19.328C68.82-19.328 66.49-17 66.49-14.128C66.49-11.256 68.82-8.928 71.69-8.928C74.57-8.928 76.89-11.256 76.89-14.128C76.89-17 74.57-19.328 71.69-19.328ZM29.69-61.328C26.82-61.328 24.49-59 24.49-56.128C24.49-53.256 26.82-50.928 29.69-50.928C32.57-50.928 34.89-53.256 34.89-56.128C34.89-59 32.57-61.328 29.69-61.328Z"/>
  </g>
  <g id="Semibold-S" transform="matrix(1 0 0 1 1993.38 696)">
   <path class="hierarchical-0:secondary SFSymbolsPreview4D4D4D" d="M29.04-50.277C31.61-50.277 33.69-48.195 33.69-45.627C33.69-38.506 36.52-31.677 41.55-26.642C46.59-21.606 53.42-18.777 60.54-18.777C63.11-18.777 65.19-16.695 65.19-14.127C65.19-11.559 63.11-9.477 60.54-9.477C50.95-9.477 41.76-13.286 34.98-20.065C34.54-20.508 34.11-20.96 33.69-21.422L33.69-3.627C33.69-1.059 31.61 1.023 29.04 1.023C26.47 1.023 24.39-1.059 24.39-3.627L24.39-45.627C24.39-48.195 26.47-50.277 29.04-50.277Z"/>
   <path class="hierarchical-1:primary SFSymbolsPreview212121" d="M13.89-56.127C13.89-64.494 20.67-71.277 29.04-71.277C37.41-71.277 44.19-64.494 44.19-56.127C44.19-47.76 37.41-40.977 29.04-40.977C20.67-40.977 13.89-47.76 13.89-56.127ZM55.89-14.127C55.89-22.494 62.67-29.277 71.04-29.277C79.41-29.277 86.19-22.494 86.19-14.127C86.19-5.76 79.41 1.023 71.04 1.023C62.67 1.023 55.89-5.76 55.89-14.127ZM71.04-19.977C67.81-19.977 65.19-17.358 65.19-14.127C65.19-10.896 67.81-8.277 71.04-8.277C74.27-8.277 76.89-10.896 76.89-14.127C76.89-17.358 74.27-19.977 71.04-19.977ZM29.04-61.977C25.81-61.977 23.19-59.358 23.19-56.127C23.19-52.896 25.81-50.277 29.04-50.277C32.27-50.277 34.89-52.896 34.89-56.127C34.89-59.358 32.27-61.977 29.04-61.977Z"/>
  </g>
  <g id="Medium-S" transform="matrix(1 0 0 1 1697.17 696)">
   <path class="hierarchical-0:secondary SFSymbolsPreview4D4D4D" d="M28.54-49.777C30.83-49.777 32.69-47.919 32.69-45.627C32.69-38.374 35.57-31.417 40.7-26.288C45.83-21.159 52.79-18.277 60.04-18.277C62.33-18.277 64.19-16.419 64.19-14.127C64.19-11.835 62.33-9.977 60.04-9.977C50.59-9.977 41.52-13.733 34.83-20.419C34.08-21.17 33.37-21.952 32.69-22.76L32.69-3.627C32.69-1.335 30.83 0.523 28.54 0.523C26.25 0.523 24.39-1.335 24.39-3.627L24.39-45.627C24.39-47.919 26.25-49.777 28.54-49.777Z"/>
   <path class="hierarchical-1:primary SFSymbolsPreview212121" d="M13.89-56.127C13.89-64.218 20.45-70.777 28.54-70.777C36.63-70.777 43.19-64.218 43.19-56.127C43.19-48.036 36.63-41.477 28.54-41.477C20.45-41.477 13.89-48.036 13.89-56.127ZM55.89-14.127C55.89-22.218 62.45-28.777 70.54-28.777C78.63-28.777 85.19-22.218 85.19-14.127C85.19-6.036 78.63 0.523 70.54 0.523C62.45 0.523 55.89-6.036 55.89-14.127ZM70.54-20.477C67.03-20.477 64.19-17.634 64.19-14.127C64.19-10.62 67.03-7.777 70.54-7.777C74.05-7.777 76.89-10.62 76.89-14.127C76.89-17.634 74.05-20.477 70.54-20.477ZM28.54-62.477C25.03-62.477 22.19-59.634 22.19-56.127C22.19-52.62 25.03-49.777 28.54-49.777C32.05-49.777 34.89-52.62 34.89-56.127C34.89-59.634 32.05-62.477 28.54-62.477Z"/>
  </g>
  <g id="Regular-S" transform="matrix(1 0 0 1 1401.11 696)">
   <path class="hierarchical-0:secondary SFSymbolsPreview4D4D4D" d="M27.89-49.127C29.82-49.127 31.39-47.56 31.39-45.627C31.39-38.201 34.34-31.079 39.59-25.828C44.84-20.577 51.96-17.627 59.39-17.627C61.32-17.627 62.89-16.06 62.89-14.127C62.89-12.194 61.32-10.627 59.39-10.627C50.11-10.627 41.21-14.314 34.64-20.878C33.46-22.056 32.38-23.309 31.39-24.627L31.39-3.627C31.39-1.694 29.82-0.127 27.89-0.127C25.96-0.127 24.39-1.694 24.39-3.627L24.39-45.627C24.39-47.56 25.96-49.127 27.89-49.127Z"/>
   <path class="hierarchical-1:primary SFSymbolsPreview212121" d="M13.89-56.127C13.89-63.859 20.16-70.127 27.89-70.127C35.62-70.127 41.89-63.859 41.89-56.127C41.89-48.395 35.62-42.127 27.89-42.127C20.16-42.127 13.89-48.395 13.89-56.127ZM55.89-14.127C55.89-21.859 62.16-28.127 69.89-28.127C77.62-28.127 83.89-21.859 83.89-14.127C83.89-6.395 77.62-0.127 69.89-0.127C62.16-0.127 55.89-6.395 55.89-14.127ZM69.89-21.127C66.02-21.127 62.89-17.993 62.89-14.127C62.89-10.261 66.02-7.127 69.89-7.127C73.76-7.127 76.89-10.261 76.89-14.127C76.89-17.993 73.76-21.127 69.89-21.127ZM27.89-63.127C24.02-63.127 20.89-59.993 20.89-56.127C20.89-52.261 24.02-49.127 27.89-49.127C31.76-49.127 34.89-52.261 34.89-56.127C34.89-59.993 31.76-63.127 27.89-63.127Z"/>
  </g>
  <g id="Light-S" transform="matrix(1 0 0 1 1105.2 696)">
   <path class="hierarchical-0:secondary SFSymbolsPreview4D4D4D" d="M27.09-48.326C28.58-48.326 29.79-47.117 29.79-45.626C29.79-37.988 32.82-30.663 38.23-25.261C43.63-19.86 50.95-16.826 58.59-16.826C60.08-16.826 61.29-15.617 61.29-14.126C61.29-12.635 60.08-11.426 58.59-11.426C49.52-11.426 40.82-15.029 34.41-21.443C32.65-23.198 31.11-25.124 29.79-27.181L29.79-3.626C29.79-2.135 28.58-0.926 27.09-0.926C25.6-0.926 24.39-2.135 24.39-3.626L24.39-45.626C24.39-47.117 25.6-48.326 27.09-48.326Z"/>
   <path class="hierarchical-1:primary SFSymbolsPreview212121" d="M13.89-56.126C13.89-63.416 19.8-69.326 27.09-69.326C34.38-69.326 40.29-63.416 40.29-56.126C40.29-48.836 34.38-42.926 27.09-42.926C19.8-42.926 13.89-48.836 13.89-56.126ZM55.89-14.126C55.89-21.416 61.8-27.326 69.09-27.326C76.38-27.326 82.29-21.416 82.29-14.126C82.29-6.836 76.38-0.926 69.09-0.926C61.8-0.926 55.89-6.836 55.89-14.126ZM69.09-21.926C64.78-21.926 61.29-18.434 61.29-14.126C61.29-9.818 64.78-6.326 69.09-6.326C73.4-6.326 76.89-9.818 76.89-14.126C76.89-18.434 73.4-21.926 69.09-21.926ZM27.09-63.926C22.78-63.926 19.29-60.434 19.29-56.126C19.29-51.818 22.78-48.326 27.09-48.326C31.4-48.326 34.89-51.818 34.89-56.126C34.89-60.434 31.4-63.926 27.09-63.926Z"/>
  </g>
  <g id="Thin-S" transform="matrix(1 0 0 1 809.537 696)">
   <path class="hierarchical-0:secondary SFSymbolsPreview4D4D4D" d="M26.04-47.277C26.951-47.277 27.69-46.539 27.69-45.627C27.69-37.711 30.835-30.118 36.433-24.52C42.031-18.922 49.623-15.777 57.54-15.777C58.451-15.777 59.19-15.039 59.19-14.127C59.19-13.216 58.451-12.477 57.54-12.477C48.748-12.477 40.316-15.97 34.1-22.187C31.447-24.839 29.291-27.894 27.69-31.209L27.69-3.627C27.69-2.716 26.951-1.977 26.04-1.977C25.129-1.977 24.39-2.716 24.39-3.627L24.39-45.627C24.39-46.539 25.129-47.277 26.04-47.277Z"/>
   <path class="hierarchical-1:primary SFSymbolsPreview212121" d="M13.89-56.127C13.89-62.838 19.33-68.277 26.04-68.277C32.75-68.277 38.19-62.838 38.19-56.127C38.19-49.417 32.75-43.977 26.04-43.977C19.33-43.977 13.89-49.417 13.89-56.127ZM55.89-14.127C55.89-20.838 61.33-26.277 68.04-26.277C74.75-26.277 80.19-20.838 80.19-14.127C80.19-7.417 74.75-1.977 68.04-1.977C61.33-1.977 55.89-7.417 55.89-14.127ZM68.04-22.977C63.152-22.977 59.19-19.015 59.19-14.127C59.19-9.24 63.152-5.277 68.04-5.277C72.928-5.277 76.89-9.24 76.89-14.127C76.89-19.015 72.928-22.977 68.04-22.977ZM26.04-64.977C21.152-64.977 17.19-61.015 17.19-56.127C17.19-51.24 21.152-47.277 26.04-47.277C30.928-47.277 34.89-51.24 34.89-56.127C34.89-61.015 30.928-64.977 26.04-64.977Z"/>
  </g>
  <g id="Ultralight-S" transform="matrix(1 0 0 1 513.376 696)">
   <path class="hierarchical-0:secondary SFSymbolsPreview4D4D4D" d="M25.49-46.727C26.097-46.727 26.59-46.234 26.59-45.627C26.59-37.564 29.793-29.832 35.494-24.131C41.195-18.429 48.927-15.227 56.99-15.227C57.597-15.227 58.09-14.734 58.09-14.127C58.09-13.519 57.597-13.027 56.99-13.027C48.344-13.027 40.052-16.461 33.938-22.575C30.7-25.814 28.213-29.664 26.59-33.854L26.59-3.627C26.59-3.019 26.097-2.527 25.49-2.527C24.882-2.527 24.39-3.019 24.39-3.627L24.39-45.627C24.39-46.234 24.882-46.727 25.49-46.727Z"/>
   <path class="hierarchical-1:primary SFSymbolsPreview212121" d="M13.89-56.127C13.89-62.533 19.083-67.727 25.49-67.727C31.896-67.727 37.09-62.533 37.09-56.127C37.09-49.72 31.896-44.527 25.49-44.527C19.083-44.527 13.89-49.72 13.89-56.127ZM55.89-14.127C55.89-20.533 61.083-25.727 67.49-25.727C73.896-25.727 79.09-20.533 79.09-14.127C79.09-7.72 73.896-2.527 67.49-2.527C61.083-2.527 55.89-7.72 55.89-14.127ZM67.49-23.527C62.298-23.527 58.09-19.318 58.09-14.127C58.09-8.935 62.298-4.727 67.49-4.727C72.681-4.727 76.89-8.935 76.89-14.127C76.89-19.318 72.681-23.527 67.49-23.527ZM25.49-65.527C20.298-65.527 16.09-61.318 16.09-56.127C16.09-50.935 20.298-46.727 25.49-46.727C30.681-46.727 34.89-50.935 34.89-56.127C34.89-61.318 30.681-65.527 25.49-65.527Z"/>
  </g>
 </g>
</svg>
