<?xml version="1.0" encoding="UTF-8"?>
<!--Generator: Apple Native CoreSVG 175-->
<!DOCTYPE svg
PUBLIC "-//W3C//DTD SVG 1.1//EN"
       "http://www.w3.org/Graphics/SVG/1.1/DTD/svg11.dtd">
<svg version="1.1" xmlns="http://www.w3.org/2000/svg" xmlns:xlink="http://www.w3.org/1999/xlink" width="3300" height="2200">
 <!--glyph: "", point size: 100.0, font version: "17.0d12e1", template writer version: "65.1"-->
 <style>.hierarchical-0:secondary {fill:#4D4D4D}
.hierarchical-1:primary {fill:#212121}

.SFSymbolsPreview212121 {fill:#212121;opacity:1.0}
.SFSymbolsPreview4D4D4D {fill:#4D4D4D;opacity:1.0}
</style>
 <g id="Notes">
  <rect height="2200" id="artboard" style="fill:white;opacity:1" width="3300" x="0" y="0"/>
  <line style="fill:none;stroke:black;opacity:1;stroke-width:0.5;" x1="263" x2="3036" y1="292" y2="292"/>
  <text style="stroke:none;fill:black;font-family:sans-serif;font-size:13;font-weight:bold;" transform="matrix(1 0 0 1 263 322)">Weight/Scale Variations</text>
  <text style="stroke:none;fill:black;font-family:sans-serif;font-size:13;text-anchor:middle;" transform="matrix(1 0 0 1 559.711 322)">Ultralight</text>
  <text style="stroke:none;fill:black;font-family:sans-serif;font-size:13;text-anchor:middle;" transform="matrix(1 0 0 1 856.422 322)">Thin</text>
  <text style="stroke:none;fill:black;font-family:sans-serif;font-size:13;text-anchor:middle;" transform="matrix(1 0 0 1 1153.13 322)">Light</text>
  <text style="stroke:none;fill:black;font-family:sans-serif;font-size:13;text-anchor:middle;" transform="matrix(1 0 0 1 1449.84 322)">Regular</text>
  <text style="stroke:none;fill:black;font-family:sans-serif;font-size:13;text-anchor:middle;" transform="matrix(1 0 0 1 1746.56 322)">Medium</text>
  <text style="stroke:none;fill:black;font-family:sans-serif;font-size:13;text-anchor:middle;" transform="matrix(1 0 0 1 2043.27 322)">Semibold</text>
  <text style="stroke:none;fill:black;font-family:sans-serif;font-size:13;text-anchor:middle;" transform="matrix(1 0 0 1 2339.98 322)">Bold</text>
  <text style="stroke:none;fill:black;font-family:sans-serif;font-size:13;text-anchor:middle;" transform="matrix(1 0 0 1 2636.69 322)">Heavy</text>
  <text style="stroke:none;fill:black;font-family:sans-serif;font-size:13;text-anchor:middle;" transform="matrix(1 0 0 1 2933.4 322)">Black</text>
  <line style="fill:none;stroke:black;opacity:1;stroke-width:0.5;" x1="263" x2="3036" y1="1903" y2="1903"/>
  <g transform="matrix(1 0 0 1 263 1933)">
   <path d="M9.24805 0.830078Q10.8691 0.830078 12.2949 0.214844Q13.7207-0.400391 14.8096-1.49414Q15.8984-2.58789 16.5186-4.01367Q17.1387-5.43945 17.1387-7.05078Q17.1387-8.66211 16.5186-10.0879Q15.8984-11.5137 14.8047-12.6074Q13.7109-13.7012 12.2852-14.3164Q10.8594-14.9316 9.23828-14.9316Q7.62695-14.9316 6.20117-14.3164Q4.77539-13.7012 3.69141-12.6074Q2.60742-11.5137 1.9873-10.0879Q1.36719-8.66211 1.36719-7.05078Q1.36719-5.43945 1.9873-4.01367Q2.60742-2.58789 3.69629-1.49414Q4.78516-0.400391 6.21094 0.214844Q7.63672 0.830078 9.24805 0.830078ZM9.24805-0.654297Q7.91992-0.654297 6.7627-1.14746Q5.60547-1.64062 4.73145-2.51953Q3.85742-3.39844 3.36426-4.56055Q2.87109-5.72266 2.87109-7.05078Q2.87109-8.37891 3.35938-9.54102Q3.84766-10.7031 4.72168-11.582Q5.5957-12.4609 6.75293-12.9541Q7.91016-13.4473 9.23828-13.4473Q10.5762-13.4473 11.7334-12.9541Q12.8906-12.4609 13.7695-11.582Q14.6484-10.7031 15.1465-9.54102Q15.6445-8.37891 15.6445-7.05078Q15.6445-5.72266 15.1514-4.56055Q14.6582-3.39844 13.7842-2.51953Q12.9102-1.64062 11.748-1.14746Q10.5859-0.654297 9.24805-0.654297ZM5.6543-7.05078Q5.6543-6.72852 5.85938-6.52832Q6.06445-6.32812 6.40625-6.32812L8.51562-6.32812L8.51562-4.20898Q8.51562-3.88672 8.71094-3.67676Q8.90625-3.4668 9.23828-3.4668Q9.56055-3.4668 9.77051-3.67676Q9.98047-3.88672 9.98047-4.20898L9.98047-6.32812L12.0898-6.32812Q12.4219-6.32812 12.627-6.52832Q12.832-6.72852 12.832-7.05078Q12.832-7.38281 12.627-7.58789Q12.4219-7.79297 12.0898-7.79297L9.98047-7.79297L9.98047-9.90234Q9.98047-10.2344 9.77051-10.4443Q9.56055-10.6543 9.23828-10.6543Q8.90625-10.6543 8.71094-10.4443Q8.51562-10.2344 8.51562-9.90234L8.51562-7.79297L6.40625-7.79297Q6.06445-7.79297 5.85938-7.58789Q5.6543-7.38281 5.6543-7.05078Z"/>
  </g>
  <g transform="matrix(1 0 0 1 281.867 1933)">
   <path d="M11.709 2.91016Q13.75 2.91016 15.5518 2.12891Q17.3535 1.34766 18.7305-0.0292969Q20.1074-1.40625 20.8887-3.20801Q21.6699-5.00977 21.6699-7.05078Q21.6699-9.0918 20.8887-10.8936Q20.1074-12.6953 18.7305-14.0723Q17.3535-15.4492 15.5469-16.2305Q13.7402-17.0117 11.6992-17.0117Q9.6582-17.0117 7.85645-16.2305Q6.05469-15.4492 4.68262-14.0723Q3.31055-12.6953 2.5293-10.8936Q1.74805-9.0918 1.74805-7.05078Q1.74805-5.00977 2.5293-3.20801Q3.31055-1.40625 4.6875-0.0292969Q6.06445 1.34766 7.86621 2.12891Q9.66797 2.91016 11.709 2.91016ZM11.709 1.25Q9.98047 1.25 8.47656 0.605469Q6.97266-0.0390625 5.83496-1.17676Q4.69727-2.31445 4.05762-3.81836Q3.41797-5.32227 3.41797-7.05078Q3.41797-8.7793 4.05762-10.2832Q4.69727-11.7871 5.83008-12.9297Q6.96289-14.0723 8.4668-14.7119Q9.9707-15.3516 11.6992-15.3516Q13.4277-15.3516 14.9316-14.7119Q16.4355-14.0723 17.5781-12.9297Q18.7207-11.7871 19.3652-10.2832Q20.0098-8.7793 20.0098-7.05078Q20.0098-5.32227 19.3701-3.81836Q18.7305-2.31445 17.5928-1.17676Q16.4551-0.0390625 14.9463 0.605469Q13.4375 1.25 11.709 1.25ZM7.17773-7.05078Q7.17773-6.69922 7.41211-6.47461Q7.64648-6.25 8.01758-6.25L10.8887-6.25L10.8887-3.36914Q10.8887-2.99805 11.1133-2.76855Q11.3379-2.53906 11.6895-2.53906Q12.0605-2.53906 12.29-2.76855Q12.5195-2.99805 12.5195-3.36914L12.5195-6.25L15.4004-6.25Q15.7715-6.25 16.001-6.47461Q16.2305-6.69922 16.2305-7.05078Q16.2305-7.42188 16.001-7.65137Q15.7715-7.88086 15.4004-7.88086L12.5195-7.88086L12.5195-10.752Q12.5195-11.1328 12.29-11.3623Q12.0605-11.5918 11.6895-11.5918Q11.3379-11.5918 11.1133-11.3574Q10.8887-11.123 10.8887-10.752L10.8887-7.88086L8.01758-7.88086Q7.63672-7.88086 7.40723-7.65137Q7.17773-7.42188 7.17773-7.05078Z"/>
  </g>
  <g transform="matrix(1 0 0 1 305.646 1933)">
   <path d="M14.9707 5.66406Q17.0605 5.66406 18.96 5.01465Q20.8594 4.36523 22.4512 3.19336Q24.043 2.02148 25.2197 0.429688Q26.3965-1.16211 27.0459-3.06641Q27.6953-4.9707 27.6953-7.05078Q27.6953-9.14062 27.0459-11.04Q26.3965-12.9395 25.2197-14.5312Q24.043-16.123 22.4512-17.2998Q20.8594-18.4766 18.9551-19.126Q17.0508-19.7754 14.9609-19.7754Q12.8711-19.7754 10.9717-19.126Q9.07227-18.4766 7.48535-17.2998Q5.89844-16.123 4.72168-14.5312Q3.54492-12.9395 2.90039-11.04Q2.25586-9.14062 2.25586-7.05078Q2.25586-4.9707 2.90527-3.06641Q3.55469-1.16211 4.72656 0.429688Q5.89844 2.02148 7.49023 3.19336Q9.08203 4.36523 10.9814 5.01465Q12.8809 5.66406 14.9707 5.66406ZM14.9707 3.84766Q13.1641 3.84766 11.5283 3.2959Q9.89258 2.74414 8.53516 1.74805Q7.17773 0.751953 6.17676-0.610352Q5.17578-1.97266 4.62891-3.6084Q4.08203-5.24414 4.08203-7.05078Q4.08203-8.86719 4.62891-10.5029Q5.17578-12.1387 6.17188-13.501Q7.16797-14.8633 8.52539-15.8594Q9.88281-16.8555 11.5186-17.4023Q13.1543-17.9492 14.9609-17.9492Q16.7773-17.9492 18.4131-17.4023Q20.0488-16.8555 21.4111-15.8594Q22.7734-14.8633 23.7695-13.501Q24.7656-12.1387 25.3174-10.5029Q25.8691-8.86719 25.8691-7.05078Q25.8789-5.24414 25.332-3.6084Q24.7852-1.97266 23.7842-0.610352Q22.7832 0.751953 21.4209 1.74805Q20.0586 2.74414 18.4229 3.2959Q16.7871 3.84766 14.9707 3.84766ZM9.19922-7.05078Q9.19922-6.66992 9.45801-6.4209Q9.7168-6.17188 10.1172-6.17188L14.0625-6.17188L14.0625-2.2168Q14.0625-1.81641 14.3115-1.55762Q14.5605-1.29883 14.9512-1.29883Q15.3516-1.29883 15.6104-1.55273Q15.8691-1.80664 15.8691-2.2168L15.8691-6.17188L19.8242-6.17188Q20.2246-6.17188 20.4785-6.4209Q20.7324-6.66992 20.7324-7.05078Q20.7324-7.46094 20.4785-7.71484Q20.2246-7.96875 19.8242-7.96875L15.8691-7.96875L15.8691-11.9141Q15.8691-12.3242 15.6104-12.583Q15.3516-12.8418 14.9512-12.8418Q14.5605-12.8418 14.3115-12.583Q14.0625-12.3242 14.0625-11.9141L14.0625-7.96875L10.1172-7.96875Q9.70703-7.96875 9.45312-7.71484Q9.19922-7.46094 9.19922-7.05078Z"/>
  </g>
  <text style="stroke:none;fill:black;font-family:sans-serif;font-size:13;font-weight:bold;" transform="matrix(1 0 0 1 263 1953)">Design Variations</text>
  <text style="stroke:none;fill:black;font-family:sans-serif;font-size:13;" transform="matrix(1 0 0 1 263 1971)">Symbols are supported in up to nine weights and three scales.</text>
  <text style="stroke:none;fill:black;font-family:sans-serif;font-size:13;" transform="matrix(1 0 0 1 263 1989)">For optimal layout with text and other symbols, vertically align</text>
  <text style="stroke:none;fill:black;font-family:sans-serif;font-size:13;" transform="matrix(1 0 0 1 263 2007)">symbols with the adjacent text.</text>
  <line style="fill:none;stroke:#00AEEF;stroke-width:0.5;opacity:1.0;" x1="776" x2="776" y1="1919" y2="1933"/>
  <g transform="matrix(1 0 0 1 776 1933)">
   <path d="M3.31055 0.15625Q3.70117 0.15625 3.91602-0.00976562Q4.13086-0.175781 4.26758-0.585938L5.52734-4.0332L11.2891-4.0332L12.5488-0.585938Q12.6855-0.175781 12.9004-0.00976562Q13.1152 0.15625 13.4961 0.15625Q13.8867 0.15625 14.1162-0.0585938Q14.3457-0.273438 14.3457-0.644531Q14.3457-0.869141 14.2383-1.17188L9.6582-13.3691Q9.48242-13.8184 9.17969-14.043Q8.87695-14.2676 8.4082-14.2676Q7.5-14.2676 7.17773-13.3789L2.59766-1.16211Q2.49023-0.859375 2.49023-0.634766Q2.49023-0.263672 2.70996-0.0537109Q2.92969 0.15625 3.31055 0.15625ZM6.00586-5.51758L8.37891-12.0898L8.42773-12.0898L10.8008-5.51758Z"/>
  </g>
  <line style="fill:none;stroke:#00AEEF;stroke-width:0.5;opacity:1.0;" x1="793.197" x2="793.197" y1="1919" y2="1933"/>
  <text style="stroke:none;fill:black;font-family:sans-serif;font-size:13;font-weight:bold;" transform="matrix(1 0 0 1 776 1953)">Margins</text>
  <text style="stroke:none;fill:black;font-family:sans-serif;font-size:13;" transform="matrix(1 0 0 1 776 1971)">Leading and trailing margins on the left and right side of each symbol</text>
  <text style="stroke:none;fill:black;font-family:sans-serif;font-size:13;" transform="matrix(1 0 0 1 776 1989)">can be adjusted by modifying the x-location of the margin guidelines.</text>
  <text style="stroke:none;fill:black;font-family:sans-serif;font-size:13;" transform="matrix(1 0 0 1 776 2007)">Modifications are automatically applied proportionally to all</text>
  <text style="stroke:none;fill:black;font-family:sans-serif;font-size:13;" transform="matrix(1 0 0 1 776 2025)">scales and weights.</text>
  <g transform="matrix(1 0 0 1 1289 1933)">
   <path d="M2.8418 1.86523L4.54102 3.57422Q5.18555 4.22852 5.90332 4.17969Q6.62109 4.13086 7.31445 3.35938L18.0078-8.42773L17.041-9.4043L6.42578 2.27539Q6.16211 2.57812 5.89355 2.61719Q5.625 2.65625 5.27344 2.30469L4.10156 1.14258Q3.75 0.791016 3.79395 0.522461Q3.83789 0.253906 4.14062-0.0195312L15.6152-10.8203L14.6387-11.7871L3.04688-0.898438Q2.30469-0.214844 2.25098 0.498047Q2.19727 1.21094 2.8418 1.86523ZM9.25781-16.3281Q8.94531-16.0254 8.90625-15.6348Q8.86719-15.2441 9.04297-14.9512Q9.21875-14.6777 9.55566-14.541Q9.89258-14.4043 10.3809-14.5215Q11.4746-14.7754 12.5977-14.7314Q13.7207-14.6875 14.7949-13.9844L14.209-12.5293Q13.9551-11.9043 14.0674-11.4404Q14.1797-10.9766 14.5801-10.5664L16.875-8.25195Q17.2363-7.88086 17.5781-7.82227Q17.9199-7.76367 18.3398-7.8418L19.4043-8.03711L20.0684-7.36328L20.0293-6.80664Q20-6.43555 20.1221-6.12305Q20.2441-5.81055 20.6055-5.44922L21.3672-4.70703Q21.7285-4.3457 22.1533-4.33105Q22.5781-4.31641 22.9297-4.66797L25.8398-7.58789Q26.1914-7.93945 26.1816-8.35449Q26.1719-8.76953 25.8105-9.13086L25.0391-9.89258Q24.6875-10.2539 24.3799-10.3857Q24.0723-10.5176 23.7109-10.4883L23.1348-10.4395L22.4902-11.0742L22.7344-12.1973Q22.832-12.6172 22.6953-12.9834Q22.5586-13.3496 22.1191-13.7891L19.9219-15.9766Q18.6719-17.2168 17.2607-17.8369Q15.8496-18.457 14.4189-18.4814Q12.9883-18.5059 11.665-17.959Q10.3418-17.4121 9.25781-16.3281ZM10.752-15.957Q11.6602-16.6211 12.7002-16.9043Q13.7402-17.1875 14.8047-17.085Q15.8691-16.9824 16.8701-16.5137Q17.8711-16.0449 18.7012-15.2051L21.1328-12.793Q21.3086-12.6172 21.3525-12.4512Q21.3965-12.2852 21.3379-12.0312L21.0156-10.5469L22.5195-9.0625L23.5059-9.12109Q23.6914-9.13086 23.7891-9.09668Q23.8867-9.0625 24.0332-8.91602L24.6094-8.33984L22.168-5.89844L21.5918-6.47461Q21.4453-6.62109 21.4062-6.71875Q21.3672-6.81641 21.377-7.01172L21.4453-7.98828L19.9512-9.47266L18.4277-9.21875Q18.1836-9.16992 18.042-9.2041Q17.9004-9.23828 17.7148-9.41406L15.7129-11.416Q15.5176-11.5918 15.4932-11.7529Q15.4688-11.9141 15.5859-12.1875L16.4648-14.2773Q15.293-15.3711 13.8281-15.791Q12.3633-16.2109 10.8398-15.7617Q10.7227-15.7324 10.6885-15.8057Q10.6543-15.8789 10.752-15.957Z"/>
  </g>
  <text style="stroke:none;fill:black;font-family:sans-serif;font-size:13;font-weight:bold;" transform="matrix(1 0 0 1 1289 1953)">Exporting</text>
  <text style="stroke:none;fill:black;font-family:sans-serif;font-size:13;" transform="matrix(1 0 0 1 1289 1971)">Symbols should be outlined when exporting to ensure the</text>
  <text style="stroke:none;fill:black;font-family:sans-serif;font-size:13;" transform="matrix(1 0 0 1 1289 1989)">design is preserved when submitting to Xcode.</text>
  <text id="template-version" style="stroke:none;fill:black;font-family:sans-serif;font-size:13;text-anchor:end;" transform="matrix(1 0 0 1 3036 1933)">Template v.3.0</text>
  <text style="stroke:none;fill:black;font-family:sans-serif;font-size:13;text-anchor:end;" transform="matrix(1 0 0 1 3036 1951)">Requires Xcode 13 or greater</text>
  <text id="descriptive-name" style="stroke:none;fill:black;font-family:sans-serif;font-size:13;text-anchor:end;" transform="matrix(1 0 0 1 3036 1969)">Generated from calendar</text>
  <text style="stroke:none;fill:black;font-family:sans-serif;font-size:13;text-anchor:end;" transform="matrix(1 0 0 1 3036 1987)">Typeset at 100 points</text>
  <text style="stroke:none;fill:black;font-family:sans-serif;font-size:13;" transform="matrix(1 0 0 1 263 726)">Small</text>
  <text style="stroke:none;fill:black;font-family:sans-serif;font-size:13;" transform="matrix(1 0 0 1 263 1156)">Medium</text>
  <text style="stroke:none;fill:black;font-family:sans-serif;font-size:13;" transform="matrix(1 0 0 1 263 1586)">Large</text>
 </g>
 <g id="Guides">
  <g id="H-reference" style="fill:#27AAE1;stroke:none;" transform="matrix(1 0 0 1 339 696)">
   <path d="M0.976562 0L3.66211 0L29.3457-67.1387L30.0293-67.1387L30.0293-70.459L28.125-70.459ZM11.6699-24.4629L46.9727-24.4629L46.2402-26.709L12.4512-26.709ZM55.127 0L57.7637 0L30.6152-70.459L29.4434-70.459L29.4434-67.1387Z"/>
  </g>
  <line id="Baseline-S" style="fill:none;stroke:#27AAE1;opacity:1;stroke-width:0.5;" x1="263" x2="3036" y1="696" y2="696"/>
  <line id="Capline-S" style="fill:none;stroke:#27AAE1;opacity:1;stroke-width:0.5;" x1="263" x2="3036" y1="625.541" y2="625.541"/>
  <g id="H-reference" style="fill:#27AAE1;stroke:none;" transform="matrix(1 0 0 1 339 1126)">
   <path d="M0.976562 0L3.66211 0L29.3457-67.1387L30.0293-67.1387L30.0293-70.459L28.125-70.459ZM11.6699-24.4629L46.9727-24.4629L46.2402-26.709L12.4512-26.709ZM55.127 0L57.7637 0L30.6152-70.459L29.4434-70.459L29.4434-67.1387Z"/>
  </g>
  <line id="Baseline-M" style="fill:none;stroke:#27AAE1;opacity:1;stroke-width:0.5;" x1="263" x2="3036" y1="1126" y2="1126"/>
  <line id="Capline-M" style="fill:none;stroke:#27AAE1;opacity:1;stroke-width:0.5;" x1="263" x2="3036" y1="1055.54" y2="1055.54"/>
  <g id="H-reference" style="fill:#27AAE1;stroke:none;" transform="matrix(1 0 0 1 339 1556)">
   <path d="M0.976562 0L3.66211 0L29.3457-67.1387L30.0293-67.1387L30.0293-70.459L28.125-70.459ZM11.6699-24.4629L46.9727-24.4629L46.2402-26.709L12.4512-26.709ZM55.127 0L57.7637 0L30.6152-70.459L29.4434-70.459L29.4434-67.1387Z"/>
  </g>
  <line id="Baseline-L" style="fill:none;stroke:#27AAE1;opacity:1;stroke-width:0.5;" x1="263" x2="3036" y1="1556" y2="1556"/>
  <line id="Capline-L" style="fill:none;stroke:#27AAE1;opacity:1;stroke-width:0.5;" x1="263" x2="3036" y1="1485.54" y2="1485.54"/>
  <line id="left-margin-Regular-M" style="fill:none;stroke:#00AEEF;stroke-width:0.5;opacity:1.0;" x1="1392.45" x2="1392.45" y1="1030.78" y2="1150.12"/>
  <line id="right-margin-Regular-M" style="fill:none;stroke:#00AEEF;stroke-width:0.5;opacity:1.0;" x1="1507.24" x2="1507.24" y1="1030.78" y2="1150.12"/>
 </g>
 <g id="Symbols">
  <g id="Black-L" transform="matrix(1 0 0 1 2861.38 1556)">
   <path class="hierarchical-0:secondary SFSymbolsPreview4D4D4D" d="M49.43-99.21C53.35-99.21 56.53-96.03 56.53-92.11L56.53-69.36C56.53-65.43 53.35-62.26 49.43-62.26C45.51-62.26 42.33-65.43 42.33-69.36L42.33-92.11C42.33-96.03 45.51-99.21 49.43-99.21ZM94.93-99.21C98.85-99.21 102.03-96.03 102.03-92.11L102.03-69.36C102.03-65.43 98.85-62.26 94.93-62.26C91.01-62.26 87.83-65.43 87.83-69.36L87.83-92.11C87.83-96.03 91.01-99.21 94.93-99.21Z"/>
   <path class="hierarchical-1:primary SFSymbolsPreview212121" d="M13.89-69.36C13.89-79.56 22.16-87.83 32.37-87.83L111.99-87.83C122.2-87.83 130.47-79.56 130.47-69.36L130.47 10.27C130.47 20.47 122.2 28.74 111.99 28.74L32.37 28.74C22.16 28.74 13.89 20.47 13.89 10.27L13.89-69.36ZM32.37-73.63C30.01-73.63 28.09-71.72 28.09-69.36L28.09 10.27C28.09 12.63 30.01 14.54 32.37 14.54L111.99 14.54C114.35 14.54 116.27 12.63 116.27 10.27L116.27-69.36C116.27-71.72 114.35-73.63 111.99-73.63L32.37-73.63ZM13.89-46.61C13.89-50.53 17.07-53.71 20.99-53.71L123.37-53.71C127.29-53.71 130.47-50.53 130.47-46.61C130.47-42.68 127.29-39.51 123.37-39.51L20.99-39.51C17.07-39.51 13.89-42.68 13.89-46.61Z"/>
  </g>
  <g id="Heavy-L" transform="matrix(1 0 0 1 2565.52 1556)">
   <path class="hierarchical-0:secondary SFSymbolsPreview4D4D4D" d="M48.58-98.36C52.03-98.36 54.83-95.56 54.83-92.11L54.83-69.36C54.83-65.9 52.03-63.11 48.58-63.11C45.13-63.11 42.33-65.9 42.33-69.36L42.33-92.11C42.33-95.56 45.13-98.36 48.58-98.36ZM94.08-98.36C97.53-98.36 100.33-95.56 100.33-92.11L100.33-69.36C100.33-65.9 97.53-63.11 94.08-63.11C90.63-63.11 87.83-65.9 87.83-69.36L87.83-92.11C87.83-95.56 90.63-98.36 94.08-98.36Z"/>
   <path class="hierarchical-1:primary SFSymbolsPreview212121" d="M13.89-69.36C13.89-79.09 21.78-86.98 31.52-86.98L111.14-86.98C120.87-86.98 128.76-79.09 128.76-69.36L128.76 10.27C128.76 20 120.87 27.89 111.14 27.89L31.52 27.89C21.78 27.89 13.89 20 13.89 10.27L13.89-69.36ZM31.52-74.48C28.68-74.48 26.39-72.19 26.39-69.36L26.39 10.27C26.39 13.1 28.68 15.39 31.52 15.39L111.14 15.39C113.97 15.39 116.26 13.1 116.26 10.27L116.26-69.36C116.26-72.19 113.97-74.48 111.14-74.48L31.52-74.48ZM13.89-46.61C13.89-50.06 16.69-52.86 20.14-52.86L122.52-52.86C125.97-52.86 128.76-50.06 128.76-46.61C128.76-43.15 125.97-40.36 122.52-40.36L20.14-40.36C16.69-40.36 13.89-43.15 13.89-46.61Z"/>
  </g>
  <g id="Bold-L" transform="matrix(1 0 0 1 2269.76 1556)">
   <path class="hierarchical-0:secondary SFSymbolsPreview4D4D4D" d="M47.62-97.41C50.55-97.41 52.92-95.03 52.92-92.11L52.92-69.36C52.92-66.43 50.55-64.06 47.62-64.06C44.7-64.06 42.32-66.43 42.32-69.36L42.32-92.11C42.32-95.03 44.7-97.41 47.62-97.41ZM93.12-97.41C96.05-97.41 98.42-95.03 98.42-92.11L98.42-69.36C98.42-66.43 96.05-64.06 93.12-64.06C90.2-64.06 87.82-66.43 87.82-69.36L87.82-92.11C87.82-95.03 90.2-97.41 93.12-97.41Z"/>
   <path class="hierarchical-1:primary SFSymbolsPreview212121" d="M13.89-69.36C13.89-78.57 21.35-86.03 30.56-86.03L110.19-86.03C119.4-86.03 126.86-78.57 126.86-69.36L126.86 10.27C126.86 19.48 119.4 26.94 110.19 26.94L30.56 26.94C21.35 26.94 13.89 19.48 13.89 10.27L13.89-69.36ZM30.56-75.43C27.21-75.43 24.49-72.71 24.49-69.36L24.49 10.27C24.49 13.62 27.21 16.34 30.56 16.34L110.19 16.34C113.54 16.34 116.26 13.62 116.26 10.27L116.26-69.36C116.26-72.71 113.54-75.43 110.19-75.43L30.56-75.43ZM13.89-46.61C13.89-49.53 16.26-51.91 19.19-51.91L121.56-51.91C124.49-51.91 126.86-49.53 126.86-46.61C126.86-43.68 124.49-41.31 121.56-41.31L19.19-41.31C16.26-41.31 13.89-43.68 13.89-46.61Z"/>
  </g>
  <g id="Semibold-L" transform="matrix(1 0 0 1 1973.69 1556)">
   <path class="hierarchical-0:secondary SFSymbolsPreview4D4D4D" d="M46.98-96.76C49.55-96.76 51.63-94.67 51.63-92.11L51.63-69.36C51.63-66.79 49.55-64.71 46.98-64.71C44.41-64.71 42.33-66.79 42.33-69.36L42.33-92.11C42.33-94.67 44.41-96.76 46.98-96.76ZM92.48-96.76C95.05-96.76 97.13-94.67 97.13-92.11L97.13-69.36C97.13-66.79 95.05-64.71 92.48-64.71C89.91-64.71 87.83-66.79 87.83-69.36L87.83-92.11C87.83-94.67 89.91-96.76 92.48-96.76Z"/>
   <path class="hierarchical-1:primary SFSymbolsPreview212121" d="M13.89-69.36C13.89-78.21 21.07-85.38 29.92-85.38L109.54-85.38C118.39-85.38 125.57-78.21 125.57-69.36L125.57 10.27C125.57 19.12 118.39 26.29 109.54 26.29L29.92 26.29C21.07 26.29 13.89 19.12 13.89 10.27L13.89-69.36ZM29.92-76.08C26.2-76.08 23.19-73.07 23.19-69.36L23.19 10.27C23.19 13.98 26.2 16.99 29.92 16.99L109.54 16.99C113.26 16.99 116.27 13.98 116.27 10.27L116.27-69.36C116.27-73.07 113.26-76.08 109.54-76.08L29.92-76.08ZM13.89-46.61C13.89-49.17 15.97-51.26 18.54-51.26L120.92-51.26C123.49-51.26 125.57-49.17 125.57-46.61C125.57-44.04 123.49-41.96 120.92-41.96L18.54-41.96C15.97-41.96 13.89-44.04 13.89-46.61Z"/>
  </g>
  <g id="Medium-L" transform="matrix(1 0 0 1 1677.48 1556)">
   <path class="hierarchical-0:secondary SFSymbolsPreview4D4D4D" d="M46.48-96.26C48.77-96.26 50.63-94.4 50.63-92.11L50.63-69.36C50.63-67.06 48.77-65.21 46.48-65.21C44.19-65.21 42.33-67.06 42.33-69.36L42.33-92.11C42.33-94.4 44.19-96.26 46.48-96.26ZM91.98-96.26C94.27-96.26 96.13-94.4 96.13-92.11L96.13-69.36C96.13-67.06 94.27-65.21 91.98-65.21C89.69-65.21 87.83-67.06 87.83-69.36L87.83-92.11C87.83-94.4 89.69-96.26 91.98-96.26Z"/>
   <path class="hierarchical-1:primary SFSymbolsPreview212121" d="M13.89-69.36C13.89-77.93 20.84-84.88 29.42-84.88L109.04-84.88C117.62-84.88 124.57-77.93 124.57-69.36L124.57 10.27C124.57 18.84 117.62 25.79 109.04 25.79L29.42 25.79C20.84 25.79 13.89 18.84 13.89 10.27L13.89-69.36ZM29.42-76.58C25.43-76.58 22.19-73.35 22.19-69.36L22.19 10.27C22.19 14.26 25.43 17.49 29.42 17.49L109.04 17.49C113.03 17.49 116.27 14.26 116.27 10.27L116.27-69.36C116.27-73.35 113.03-76.58 109.04-76.58L29.42-76.58ZM13.89-46.61C13.89-48.9 15.75-50.76 18.04-50.76L120.42-50.76C122.71-50.76 124.57-48.9 124.57-46.61C124.57-44.31 122.71-42.46 120.42-42.46L18.04-42.46C15.75-42.46 13.89-44.31 13.89-46.61Z"/>
  </g>
  <g id="Regular-L" transform="matrix(1 0 0 1 1381.42 1556)">
   <path class="hierarchical-0:secondary SFSymbolsPreview4D4D4D" d="M45.83-95.61C47.76-95.61 49.33-94.04 49.33-92.11L49.33-69.36C49.33-67.42 47.76-65.86 45.83-65.86C43.9-65.86 42.33-67.42 42.33-69.36L42.33-92.11C42.33-94.04 43.9-95.61 45.83-95.61ZM91.33-95.61C93.26-95.61 94.83-94.04 94.83-92.11L94.83-69.36C94.83-67.42 93.26-65.86 91.33-65.86C89.4-65.86 87.83-67.42 87.83-69.36L87.83-92.11C87.83-94.04 89.4-95.61 91.33-95.61Z"/>
   <path class="hierarchical-1:primary SFSymbolsPreview212121" d="M13.89-69.36C13.89-77.57 20.55-84.23 28.77-84.23L108.39-84.23C116.61-84.23 123.27-77.57 123.27-69.36L123.27 10.27C123.27 18.48 116.61 25.14 108.39 25.14L28.77 25.14C20.55 25.14 13.89 18.48 13.89 10.27L13.89-69.36ZM28.77-77.23C24.42-77.23 20.89-73.7 20.89-69.36L20.89 10.27C20.89 14.62 24.42 18.14 28.77 18.14L108.39 18.14C112.74 18.14 116.27 14.62 116.27 10.27L116.27-69.36C116.27-73.7 112.74-77.23 108.39-77.23L28.77-77.23ZM13.89-46.61C13.89-48.54 15.46-50.11 17.39-50.11L119.77-50.11C121.7-50.11 123.27-48.54 123.27-46.61C123.27-44.67 121.7-43.11 119.77-43.11L17.39-43.11C15.46-43.11 13.89-44.67 13.89-46.61Z"/>
  </g>
  <g id="Light-L" transform="matrix(1 0 0 1 1085.51 1556)">
   <path class="hierarchical-0:secondary SFSymbolsPreview4D4D4D" d="M45.03-94.8C46.52-94.8 47.73-93.6 47.73-92.1L47.73-69.35C47.73-67.86 46.52-66.65 45.03-66.65C43.54-66.65 42.33-67.86 42.33-69.35L42.33-92.1C42.33-93.6 43.54-94.8 45.03-94.8ZM90.53-94.8C92.02-94.8 93.23-93.6 93.23-92.1L93.23-69.35C93.23-67.86 92.02-66.65 90.53-66.65C89.04-66.65 87.83-67.86 87.83-69.35L87.83-92.1C87.83-93.6 89.04-94.8 90.53-94.8Z"/>
   <path class="hierarchical-1:primary SFSymbolsPreview212121" d="M13.89-69.35C13.89-77.13 20.19-83.43 27.97-83.43L107.59-83.43C115.37-83.43 121.67-77.13 121.67-69.35L121.67 10.27C121.67 18.04 115.37 24.35 107.59 24.35L27.97 24.35C20.19 24.35 13.89 18.04 13.89 10.27L13.89-69.35ZM27.97-78.03C23.18-78.03 19.29-74.15 19.29-69.35L19.29 10.27C19.29 15.06 23.18 18.95 27.97 18.95L107.59 18.95C112.38 18.95 116.27 15.06 116.27 10.27L116.27-69.35C116.27-74.15 112.38-78.03 107.59-78.03L27.97-78.03ZM13.89-46.6C13.89-48.1 15.1-49.3 16.59-49.3L118.97-49.3C120.46-49.3 121.67-48.1 121.67-46.6C121.67-45.11 120.46-43.9 118.97-43.9L16.59-43.9C15.1-43.9 13.89-45.11 13.89-46.6Z"/>
  </g>
  <g id="Thin-L" transform="matrix(1 0 0 1 789.85 1556)">
   <path class="hierarchical-0:secondary SFSymbolsPreview4D4D4D" d="M43.978-93.76C44.889-93.76 45.628-93.02 45.628-92.11L45.628-69.36C45.628-68.44 44.889-67.71 43.978-67.71C43.066-67.71 42.328-68.44 42.328-69.36L42.328-92.11C42.328-93.02 43.066-93.76 43.978-93.76ZM89.478-93.76C90.389-93.76 91.128-93.02 91.128-92.11L91.128-69.36C91.128-68.44 90.389-67.71 89.478-67.71C88.566-67.71 87.828-68.44 87.828-69.36L87.828-92.11C87.828-93.02 88.566-93.76 89.478-93.76Z"/>
   <path class="hierarchical-1:primary SFSymbolsPreview212121" d="M13.89-69.36C13.89-76.55 19.722-82.38 26.915-82.38L106.54-82.38C113.734-82.38 119.565-76.55 119.565-69.36L119.565 10.27C119.565 17.46 113.734 23.29 106.54 23.29L26.915 23.29C19.722 23.29 13.89 17.46 13.89 10.27L13.89-69.36ZM26.915-79.08C21.544-79.08 17.19-74.73 17.19-69.36L17.19 10.27C17.19 15.64 21.544 19.99 26.915 19.99L106.54 19.99C111.911 19.99 116.265 15.64 116.265 10.27L116.265-69.36C116.265-74.73 111.911-79.08 106.54-79.08L26.915-79.08ZM13.89-46.61C13.89-47.52 14.629-48.26 15.54-48.26L117.915-48.26C118.826-48.26 119.565-47.52 119.565-46.61C119.565-45.69 118.826-44.96 117.915-44.96L15.54-44.96C14.629-44.96 13.89-45.69 13.89-46.61Z"/>
  </g>
  <g id="Ultralight-L" transform="matrix(1 0 0 1 493.689 1556)">
   <path class="hierarchical-0:secondary SFSymbolsPreview4D4D4D" d="M43.427-93.21C44.035-93.21 44.527-92.71 44.527-92.11L44.527-69.36C44.527-68.75 44.035-68.26 43.427-68.26C42.82-68.26 42.327-68.75 42.327-69.36L42.327-92.11C42.327-92.71 42.82-93.21 43.427-93.21ZM88.927-93.21C89.535-93.21 90.027-92.71 90.027-92.11L90.027-69.36C90.027-68.75 89.535-68.26 88.927-68.26C88.32-68.26 87.827-68.75 87.827-69.36L87.827-92.11C87.827-92.71 88.32-93.21 88.927-93.21Z"/>
   <path class="hierarchical-1:primary SFSymbolsPreview212121" d="M13.89-69.36C13.89-76.24 19.475-81.83 26.365-81.83L105.99-81.83C112.88-81.83 118.465-76.24 118.465-69.36L118.465 10.27C118.465 17.16 112.88 22.74 105.99 22.74L26.365 22.74C19.475 22.74 13.89 17.16 13.89 10.27L13.89-69.36ZM26.365-79.63C20.69-79.63 16.09-75.03 16.09-69.36L16.09 10.27C16.09 15.94 20.69 20.54 26.365 20.54L105.99 20.54C111.665 20.54 116.265 15.94 116.265 10.27L116.265-69.36C116.265-75.03 111.665-79.63 105.99-79.63L26.365-79.63ZM13.89-46.61C13.89-47.21 14.382-47.71 14.99-47.71L117.365-47.71C117.972-47.71 118.465-47.21 118.465-46.61C118.465-46 117.972-45.51 117.365-45.51L14.99-45.51C14.382-45.51 13.89-46 13.89-46.61Z"/>
  </g>
  <g id="Black-M" transform="matrix(1 0 0 1 2872.4 1126)">
   <path class="hierarchical-0:secondary SFSymbolsPreview4D4D4D" d="M43.31-86.96C47.23-86.96 50.41-83.78 50.41-79.86L50.41-62.01C50.41-58.08 47.23-54.91 43.31-54.91C39.38-54.91 36.21-58.08 36.21-62.01L36.21-79.86C36.21-83.78 39.38-86.96 43.31-86.96ZM79-86.96C82.93-86.96 86.1-83.78 86.1-79.86L86.1-62.01C86.1-58.08 82.93-54.91 79-54.91C75.08-54.91 71.9-58.08 71.9-62.01L71.9-79.86C71.9-83.78 75.08-86.96 79-86.96Z"/>
   <path class="hierarchical-1:primary SFSymbolsPreview212121" d="M13.89-62.01C13.89-70.86 21.07-78.03 29.92-78.03L92.39-78.03C101.24-78.03 108.42-70.86 108.42-62.01L108.42 0.47C108.42 9.32 101.24 16.49 92.39 16.49L29.92 16.49C21.07 16.49 13.89 9.32 13.89 0.47L13.89-62.01ZM29.92-63.83C28.91-63.83 28.09-63.01 28.09-62.01L28.09 0.47C28.09 1.48 28.91 2.29 29.92 2.29L92.39 2.29C93.4 2.29 94.22 1.48 94.22 0.47L94.22-62.01C94.22-63.01 93.4-63.83 92.39-63.83L29.92-63.83ZM13.89-44.16C13.89-48.08 17.07-51.26 20.99-51.26L101.32-51.26C105.24-51.26 108.42-48.08 108.42-44.16C108.42-40.23 105.24-37.06 101.32-37.06L20.99-37.06C17.07-37.06 13.89-40.23 13.89-44.16Z"/>
  </g>
  <g id="Heavy-M" transform="matrix(1 0 0 1 2576.54 1126)">
   <path class="hierarchical-0:secondary SFSymbolsPreview4D4D4D" d="M42.45-86.11C45.91-86.11 48.7-83.31 48.7-79.86L48.7-62.01C48.7-58.55 45.91-55.76 42.45-55.76C39-55.76 36.2-58.55 36.2-62.01L36.2-79.86C36.2-83.31 39-86.11 42.45-86.11ZM78.15-86.11C81.6-86.11 84.4-83.31 84.4-79.86L84.4-62.01C84.4-58.55 81.6-55.76 78.15-55.76C74.7-55.76 71.9-58.55 71.9-62.01L71.9-79.86C71.9-83.31 74.7-86.11 78.15-86.11Z"/>
   <path class="hierarchical-1:primary SFSymbolsPreview212121" d="M13.89-62C13.89-70.39 20.69-77.18 29.07-77.18L91.54-77.18C99.92-77.18 106.72-70.39 106.72-62L106.72 0.47C106.72 8.85 99.92 15.65 91.54 15.65L29.07 15.65C20.69 15.65 13.89 8.85 13.89 0.47L13.89-62ZM29.07-64.68C27.59-64.68 26.39-63.48 26.39-62L26.39 0.47C26.39 1.95 27.59 3.15 29.07 3.15L91.54 3.15C93.02 3.15 94.22 1.95 94.22 0.47L94.22-62C94.22-63.48 93.02-64.68 91.54-64.68L29.07-64.68ZM13.89-44.16C13.89-47.61 16.69-50.41 20.14-50.41L100.47-50.41C103.92-50.41 106.72-47.61 106.72-44.16C106.72-40.7 103.92-37.91 100.47-37.91L20.14-37.91C16.69-37.91 13.89-40.7 13.89-44.16Z"/>
  </g>
  <g id="Bold-M" transform="matrix(1 0 0 1 2280.78 1126)">
   <path class="hierarchical-0:secondary SFSymbolsPreview4D4D4D" d="M41.5-85.15C44.43-85.15 46.8-82.78 46.8-79.85L46.8-62C46.8-59.08 44.43-56.7 41.5-56.7C38.58-56.7 36.2-59.08 36.2-62L36.2-79.85C36.2-82.78 38.58-85.15 41.5-85.15ZM77.21-85.15C80.13-85.15 82.51-82.78 82.51-79.85L82.51-62C82.51-59.08 80.13-56.7 77.21-56.7C74.28-56.7 71.91-59.08 71.91-62L71.91-79.85C71.91-82.78 74.28-85.15 77.21-85.15Z"/>
   <path class="hierarchical-1:primary SFSymbolsPreview212121" d="M13.89-62C13.89-69.86 20.26-76.23 28.12-76.23L90.59-76.23C98.45-76.23 104.82-69.86 104.82-62L104.82 0.47C104.82 8.33 98.45 14.7 90.59 14.7L28.12 14.7C20.26 14.7 13.89 8.33 13.89 0.47L13.89-62ZM28.12-65.63C26.11-65.63 24.49-64.01 24.49-62L24.49 0.47C24.49 2.47 26.11 4.1 28.12 4.1L90.59 4.1C92.59 4.1 94.22 2.47 94.22 0.47L94.22-62C94.22-64.01 92.59-65.63 90.59-65.63L28.12-65.63ZM13.89-44.15C13.89-47.08 16.26-49.45 19.19-49.45L99.52-49.45C102.44-49.45 104.82-47.08 104.82-44.15C104.82-41.23 102.44-38.85 99.52-38.85L19.19-38.85C16.26-38.85 13.89-41.23 13.89-44.15Z"/>
  </g>
  <g id="Semibold-M" transform="matrix(1 0 0 1 1984.72 1126)">
   <path class="hierarchical-0:secondary SFSymbolsPreview4D4D4D" d="M40.85-84.5C43.42-84.5 45.5-82.42 45.5-79.85L45.5-62C45.5-59.44 43.42-57.35 40.85-57.35C38.28-57.35 36.2-59.44 36.2-62L36.2-79.85C36.2-82.42 38.28-84.5 40.85-84.5ZM76.55-84.5C79.12-84.5 81.2-82.42 81.2-79.85L81.2-62C81.2-59.44 79.12-57.35 76.55-57.35C73.98-57.35 71.9-59.44 71.9-62L71.9-79.85C71.9-82.42 73.98-84.5 76.55-84.5Z"/>
   <path class="hierarchical-1:primary SFSymbolsPreview212121" d="M13.89-62C13.89-69.5 19.97-75.58 27.46-75.58L89.94-75.58C97.43-75.58 103.51-69.5 103.51-62L103.51 0.47C103.51 7.97 97.43 14.05 89.94 14.05L27.46 14.05C19.97 14.05 13.89 7.97 13.89 0.47L13.89-62ZM27.46-66.28C25.1-66.28 23.19-64.36 23.19-62L23.19 0.47C23.19 2.83 25.1 4.75 27.46 4.75L89.94 4.75C92.3 4.75 94.21 2.83 94.21 0.47L94.21-62C94.21-64.36 92.3-66.28 89.94-66.28L27.46-66.28ZM13.89-44.15C13.89-46.72 15.97-48.8 18.54-48.8L98.86-48.8C101.43-48.8 103.51-46.72 103.51-44.15C103.51-41.58 101.43-39.5 98.86-39.5L18.54-39.5C15.97-39.5 13.89-41.58 13.89-44.15Z"/>
  </g>
  <g id="Medium-M" transform="matrix(1 0 0 1 1688.51 1126)">
   <path class="hierarchical-0:secondary SFSymbolsPreview4D4D4D" d="M40.35-84C42.64-84 44.5-82.15 44.5-79.85L44.5-62C44.5-59.71 42.64-57.85 40.35-57.85C38.06-57.85 36.2-59.71 36.2-62L36.2-79.85C36.2-82.15 38.06-84 40.35-84ZM76.05-84C78.34-84 80.2-82.15 80.2-79.85L80.2-62C80.2-59.71 78.34-57.85 76.05-57.85C73.76-57.85 71.9-59.71 71.9-62L71.9-79.85C71.9-82.15 73.76-84 76.05-84Z"/>
   <path class="hierarchical-1:primary SFSymbolsPreview212121" d="M13.89-62C13.89-69.22 19.74-75.08 26.96-75.08L89.44-75.08C96.66-75.08 102.51-69.22 102.51-62L102.51 0.47C102.51 7.69 96.66 13.55 89.44 13.55L26.96 13.55C19.74 13.55 13.89 7.69 13.89 0.47L13.89-62ZM26.96-66.78C24.33-66.78 22.19-64.64 22.19-62L22.19 0.47C22.19 3.11 24.33 5.25 26.96 5.25L89.44 5.25C92.07 5.25 94.21 3.11 94.21 0.47L94.21-62C94.21-64.64 92.07-66.78 89.44-66.78L26.96-66.78ZM13.89-44.15C13.89-46.44 15.75-48.3 18.04-48.3L98.36-48.3C100.65-48.3 102.51-46.44 102.51-44.15C102.51-41.86 100.65-40 98.36-40L18.04-40C15.75-40 13.89-41.86 13.89-44.15Z"/>
  </g>
  <g id="Regular-M" transform="matrix(1 0 0 1 1392.45 1126)">
   <path class="hierarchical-0:secondary SFSymbolsPreview4D4D4D" d="M39.7-83.35C41.63-83.35 43.2-81.79 43.2-79.85L43.2-62C43.2-60.07 41.63-58.5 39.7-58.5C37.77-58.5 36.2-60.07 36.2-62L36.2-79.85C36.2-81.79 37.77-83.35 39.7-83.35ZM75.4-83.35C77.33-83.35 78.9-81.79 78.9-79.85L78.9-62C78.9-60.07 77.33-58.5 75.4-58.5C73.47-58.5 71.9-60.07 71.9-62L71.9-79.85C71.9-81.79 73.47-83.35 75.4-83.35Z"/>
   <path class="hierarchical-1:primary SFSymbolsPreview212121" d="M13.89-62C13.89-68.86 19.45-74.43 26.31-74.43L88.79-74.43C95.65-74.43 101.21-68.86 101.21-62L101.21 0.47C101.21 7.33 95.65 12.9 88.79 12.9L26.31 12.9C19.45 12.9 13.89 7.33 13.89 0.47L13.89-62ZM26.31-67.43C23.32-67.43 20.89-65 20.89-62L20.89 0.47C20.89 3.47 23.32 5.9 26.31 5.9L88.79 5.9C91.78 5.9 94.21 3.47 94.21 0.47L94.21-62C94.21-65 91.78-67.43 88.79-67.43L26.31-67.43ZM13.89-44.15C13.89-46.09 15.45-47.65 17.39-47.65L97.71-47.65C99.65-47.65 101.21-46.09 101.21-44.15C101.21-42.22 99.65-40.65 97.71-40.65L17.39-40.65C15.45-40.65 13.89-42.22 13.89-44.15Z"/>
  </g>
  <g id="Light-M" transform="matrix(1 0 0 1 1096.54 1126)">
   <path class="hierarchical-0:secondary SFSymbolsPreview4D4D4D" d="M38.9-82.55C40.39-82.55 41.6-81.34 41.6-79.85L41.6-62C41.6-60.51 40.39-59.3 38.9-59.3C37.41-59.3 36.2-60.51 36.2-62L36.2-79.85C36.2-81.34 37.41-82.55 38.9-82.55ZM74.6-82.55C76.09-82.55 77.3-81.34 77.3-79.85L77.3-62C77.3-60.51 76.09-59.3 74.6-59.3C73.11-59.3 71.9-60.51 71.9-62L71.9-79.85C71.9-81.34 73.11-82.55 74.6-82.55Z"/>
   <path class="hierarchical-1:primary SFSymbolsPreview212121" d="M13.89-62C13.89-68.42 19.09-73.63 25.51-73.63L87.99-73.63C94.41-73.63 99.61-68.42 99.61-62L99.61 0.47C99.61 6.89 94.41 12.1 87.99 12.1L25.51 12.1C19.09 12.1 13.89 6.89 13.89 0.47L13.89-62ZM25.51-68.23C22.07-68.23 19.29-65.44 19.29-62L19.29 0.47C19.29 3.91 22.07 6.7 25.51 6.7L87.99 6.7C91.42 6.7 94.21 3.91 94.21 0.47L94.21-62C94.21-65.44 91.42-68.23 87.99-68.23L25.51-68.23ZM13.89-44.15C13.89-45.64 15.1-46.85 16.59-46.85L96.91-46.85C98.4-46.85 99.61-45.64 99.61-44.15C99.61-42.66 98.4-41.45 96.91-41.45L16.59-41.45C15.1-41.45 13.89-42.66 13.89-44.15Z"/>
  </g>
  <g id="Thin-M" transform="matrix(1 0 0 1 800.875 1126)">
   <path class="hierarchical-0:secondary SFSymbolsPreview4D4D4D" d="M37.852-81.5C38.763-81.5 39.502-80.77 39.502-79.85L39.502-62C39.502-61.09 38.763-60.35 37.852-60.35C36.941-60.35 36.202-61.09 36.202-62L36.202-79.85C36.202-80.77 36.941-81.5 37.852-81.5ZM73.551-81.5C74.462-81.5 75.201-80.77 75.201-79.85L75.201-62C75.201-61.09 74.462-60.35 73.551-60.35C72.64-60.35 71.901-61.09 71.901-62L71.901-79.85C71.901-80.77 72.64-81.5 73.551-81.5Z"/>
   <path class="hierarchical-1:primary SFSymbolsPreview212121" d="M13.89-62C13.89-67.84 18.624-72.58 24.464-72.58L86.939-72.58C92.78-72.58 97.514-67.84 97.514-62L97.514 0.47C97.514 6.31 92.78 11.05 86.939 11.05L24.464 11.05C18.624 11.05 13.89 6.31 13.89 0.47L13.89-62ZM24.464-69.28C20.447-69.28 17.189-66.02 17.189-62L17.189 0.47C17.189 4.49 20.447 7.75 24.464 7.75L86.939 7.75C90.957 7.75 94.214 4.49 94.214 0.47L94.214-62C94.214-66.02 90.957-69.28 86.939-69.28L24.464-69.28ZM13.89-44.15C13.89-45.06 14.628-45.8 15.539-45.8L95.864-45.8C96.776-45.8 97.514-45.06 97.514-44.15C97.514-43.24 96.776-42.5 95.864-42.5L15.539-42.5C14.628-42.5 13.89-43.24 13.89-44.15Z"/>
  </g>
  <g id="Ultralight-M" transform="matrix(1 0 0 1 504.714 1126)">
   <path class="hierarchical-0:secondary SFSymbolsPreview4D4D4D" d="M37.303-80.95C37.91-80.95 38.403-80.46 38.403-79.85L38.403-62C38.403-61.4 37.91-60.9 37.303-60.9C36.695-60.9 36.203-61.4 36.203-62L36.203-79.85C36.203-80.46 36.695-80.95 37.303-80.95ZM73.002-80.95C73.61-80.95 74.102-80.46 74.102-79.85L74.102-62C74.102-61.4 73.61-60.9 73.002-60.9C72.394-60.9 71.902-61.4 71.902-62L71.902-79.85C71.902-80.46 72.394-80.95 73.002-80.95Z"/>
   <path class="hierarchical-1:primary SFSymbolsPreview212121" d="M13.89-62C13.89-67.54 18.379-72.03 23.915-72.03L86.39-72.03C91.927-72.03 96.415-67.54 96.415-62L96.415 0.47C96.415 6.01 91.927 10.5 86.39 10.5L23.915 10.5C18.379 10.5 13.89 6.01 13.89 0.47L13.89-62ZM23.915-69.83C19.594-69.83 16.09-66.33 16.09-62L16.09 0.47C16.09 4.79 19.594 8.3 23.915 8.3L86.39 8.3C90.712 8.3 94.215 4.79 94.215 0.47L94.215-62C94.215-66.33 90.712-69.83 86.39-69.83L23.915-69.83ZM13.89-44.15C13.89-44.76 14.383-45.25 14.99-45.25L95.315-45.25C95.923-45.25 96.415-44.76 96.415-44.15C96.415-43.55 95.923-43.05 95.315-43.05L14.99-43.05C14.383-43.05 13.89-43.55 13.89-44.15Z"/>
  </g>
  <g id="Black-S" transform="matrix(1 0 0 1 2881.07 696)">
   <path class="hierarchical-0:secondary SFSymbolsPreview4D4D4D" d="M38.49-77.432C42.41-77.432 45.59-74.253 45.59-70.332L45.59-56.332C45.59-52.41 42.41-49.232 38.49-49.232C34.57-49.232 31.39-52.41 31.39-56.332L31.39-70.332C31.39-74.253 34.57-77.432 38.49-77.432ZM66.49-77.432C70.41-77.432 73.59-74.253 73.59-70.332L73.59-56.332C73.59-52.41 70.41-49.232 66.49-49.232C62.57-49.232 59.39-52.41 59.39-56.332L59.39-70.332C59.39-74.253 62.57-77.432 66.49-77.432Z"/>
   <path class="hierarchical-1:primary SFSymbolsPreview212121" d="M13.89-56.332C13.89-64.119 20.2-70.432 27.99-70.432L76.99-70.432C84.78-70.432 91.09-64.119 91.09-56.332L91.09-7.332C91.09 0.456 84.78 6.768 76.99 6.768L27.99 6.768C20.2 6.768 13.89 0.456 13.89-7.332L13.89-56.332ZM28.09-56.232L28.09-7.432L76.89-7.432L76.89-56.232L28.09-56.232ZM13.89-42.332C13.89-46.253 17.07-49.432 20.99-49.432L83.99-49.432C87.91-49.432 91.09-46.253 91.09-42.332C91.09-38.41 87.91-35.232 83.99-35.232L20.99-35.232C17.07-35.232 13.89-38.41 13.89-42.332Z"/>
  </g>
  <g id="Heavy-S" transform="matrix(1 0 0 1 2585.2 696)">
   <path class="hierarchical-0:secondary SFSymbolsPreview4D4D4D" d="M37.64-76.582C41.09-76.582 43.89-73.784 43.89-70.332L43.89-56.332C43.89-52.88 41.09-50.082 37.64-50.082C34.19-50.082 31.39-52.88 31.39-56.332L31.39-70.332C31.39-73.784 34.19-76.582 37.64-76.582ZM65.64-76.582C69.09-76.582 71.89-73.784 71.89-70.332L71.89-56.332C71.89-52.88 69.09-50.082 65.64-50.082C62.19-50.082 59.39-52.88 59.39-56.332L59.39-70.332C59.39-73.784 62.19-76.582 65.64-76.582Z"/>
   <path class="hierarchical-1:primary SFSymbolsPreview212121" d="M13.89-56.332C13.89-63.65 19.82-69.582 27.14-69.582L76.14-69.582C83.46-69.582 89.39-63.65 89.39-56.332L89.39-7.332C89.39-0.014 83.46 5.918 76.14 5.918L27.14 5.918C19.82 5.918 13.89-0.014 13.89-7.332L13.89-56.332ZM27.14-57.082C26.73-57.082 26.39-56.746 26.39-56.332L26.39-7.332C26.39-6.918 26.73-6.582 27.14-6.582L76.14-6.582C76.56-6.582 76.89-6.918 76.89-7.332L76.89-56.332C76.89-56.746 76.56-57.082 76.14-57.082L27.14-57.082ZM13.89-42.332C13.89-45.784 16.69-48.582 20.14-48.582L83.14-48.582C86.59-48.582 89.39-45.784 89.39-42.332C89.39-38.88 86.59-36.082 83.14-36.082L20.14-36.082C16.69-36.082 13.89-38.88 13.89-42.332Z"/>
  </g>
  <g id="Bold-S" transform="matrix(1 0 0 1 2289.44 696)">
   <path class="hierarchical-0:secondary SFSymbolsPreview4D4D4D" d="M36.69-75.428C39.62-75.428 41.99-73.055 41.99-70.128L41.99-56.128C41.99-53.201 39.62-50.828 36.69-50.828C33.77-50.828 31.39-53.201 31.39-56.128L31.39-70.128C31.39-73.055 33.77-75.428 36.69-75.428ZM64.69-75.428C67.62-75.428 69.99-73.055 69.99-70.128L69.99-56.128C69.99-53.201 67.62-50.828 64.69-50.828C61.77-50.828 59.39-53.201 59.39-56.128L59.39-70.128C59.39-73.055 61.77-75.428 64.69-75.428Z"/>
   <path class="hierarchical-1:primary SFSymbolsPreview212121" d="M13.89-56.128C13.89-62.921 19.4-68.428 26.19-68.428L75.19-68.428C81.99-68.428 87.49-62.921 87.49-56.128L87.49-7.128C87.49-0.335 81.99 5.172 75.19 5.172L26.19 5.172C19.4 5.172 13.89-0.335 13.89-7.128L13.89-56.128ZM26.19-57.828C25.25-57.828 24.49-57.067 24.49-56.128L24.49-7.128C24.49-6.189 25.25-5.428 26.19-5.428L75.19-5.428C76.13-5.428 76.89-6.189 76.89-7.128L76.89-56.128C76.89-57.067 76.13-57.828 75.19-57.828L26.19-57.828ZM13.89-42.128C13.89-45.055 16.27-47.428 19.19-47.428L82.19-47.428C85.12-47.428 87.49-45.055 87.49-42.128C87.49-39.201 85.12-36.828 82.19-36.828L19.19-36.828C16.27-36.828 13.89-39.201 13.89-42.128Z"/>
  </g>
  <g id="Semibold-S" transform="matrix(1 0 0 1 1993.38 696)">
   <path class="hierarchical-0:secondary SFSymbolsPreview4D4D4D" d="M36.04-74.777C38.61-74.777 40.69-72.695 40.69-70.127L40.69-56.127C40.69-53.559 38.61-51.477 36.04-51.477C33.47-51.477 31.39-53.559 31.39-56.127L31.39-70.127C31.39-72.695 33.47-74.777 36.04-74.777ZM64.04-74.777C66.61-74.777 68.69-72.695 68.69-70.127L68.69-56.127C68.69-53.559 66.61-51.477 64.04-51.477C61.47-51.477 59.39-53.559 59.39-56.127L59.39-70.127C59.39-72.695 61.47-74.777 64.04-74.777Z"/>
   <path class="hierarchical-1:primary SFSymbolsPreview212121" d="M13.89-56.127C13.89-62.561 19.11-67.777 25.54-67.777L74.54-67.777C80.97-67.777 86.19-62.561 86.19-56.127L86.19-7.127C86.19-0.693 80.97 4.523 74.54 4.523L25.54 4.523C19.11 4.523 13.89-0.693 13.89-7.127L13.89-56.127ZM25.54-58.477C24.24-58.477 23.19-57.425 23.19-56.127L23.19-7.127C23.19-5.829 24.24-4.777 25.54-4.777L74.54-4.777C75.84-4.777 76.89-5.829 76.89-7.127L76.89-56.127C76.89-57.425 75.84-58.477 74.54-58.477L25.54-58.477ZM13.89-42.127C13.89-44.695 15.97-46.777 18.54-46.777L81.54-46.777C84.11-46.777 86.19-44.695 86.19-42.127C86.19-39.559 84.11-37.477 81.54-37.477L18.54-37.477C15.97-37.477 13.89-39.559 13.89-42.127Z"/>
  </g>
  <g id="Medium-S" transform="matrix(1 0 0 1 1697.17 696)">
   <path class="hierarchical-0:secondary SFSymbolsPreview4D4D4D" d="M35.54-74.277C37.83-74.277 39.69-72.419 39.69-70.127L39.69-56.127C39.69-53.835 37.83-51.977 35.54-51.977C33.25-51.977 31.39-53.835 31.39-56.127L31.39-70.127C31.39-72.419 33.25-74.277 35.54-74.277ZM63.54-74.277C65.83-74.277 67.69-72.419 67.69-70.127L67.69-56.127C67.69-53.835 65.83-51.977 63.54-51.977C61.25-51.977 59.39-53.835 59.39-56.127L59.39-70.127C59.39-72.419 61.25-74.277 63.54-74.277Z"/>
   <path class="hierarchical-1:primary SFSymbolsPreview212121" d="M13.89-56.127C13.89-62.285 18.88-67.277 25.04-67.277L74.04-67.277C80.2-67.277 85.19-62.285 85.19-56.127L85.19-7.127C85.19-0.969 80.2 4.023 74.04 4.023L25.04 4.023C18.88 4.023 13.89-0.969 13.89-7.127L13.89-56.127ZM25.04-58.977C23.47-58.977 22.19-57.701 22.19-56.127L22.19-7.127C22.19-5.553 23.47-4.277 25.04-4.277L74.04-4.277C75.61-4.277 76.89-5.553 76.89-7.127L76.89-56.127C76.89-57.701 75.61-58.977 74.04-58.977L25.04-58.977ZM13.89-42.127C13.89-44.419 15.75-46.277 18.04-46.277L81.04-46.277C83.33-46.277 85.19-44.419 85.19-42.127C85.19-39.835 83.33-37.977 81.04-37.977L18.04-37.977C15.75-37.977 13.89-39.835 13.89-42.127Z"/>
  </g>
  <g id="Regular-S" transform="matrix(1 0 0 1 1401.11 696)">
   <path class="hierarchical-0:secondary SFSymbolsPreview4D4D4D" d="M34.89-73.627C36.82-73.627 38.39-72.06 38.39-70.127L38.39-56.127C38.39-54.194 36.82-52.627 34.89-52.627C32.96-52.627 31.39-54.194 31.39-56.127L31.39-70.127C31.39-72.06 32.96-73.627 34.89-73.627ZM62.89-73.627C64.82-73.627 66.39-72.06 66.39-70.127L66.39-56.127C66.39-54.194 64.82-52.627 62.89-52.627C60.96-52.627 59.39-54.194 59.39-56.127L59.39-70.127C59.39-72.06 60.96-73.627 62.89-73.627Z"/>
   <path class="hierarchical-1:primary SFSymbolsPreview212121" d="M13.89-56.127C13.89-61.926 18.59-66.627 24.39-66.627L73.39-66.627C79.19-66.627 83.89-61.926 83.89-56.127L83.89-7.127C83.89-1.328 79.19 3.373 73.39 3.373L24.39 3.373C18.59 3.373 13.89-1.328 13.89-7.127L13.89-56.127ZM24.39-59.627C22.46-59.627 20.89-58.06 20.89-56.127L20.89-7.127C20.89-5.194 22.46-3.627 24.39-3.627L73.39-3.627C75.32-3.627 76.89-5.194 76.89-7.127L76.89-56.127C76.89-58.06 75.32-59.627 73.39-59.627L24.39-59.627ZM13.89-42.127C13.89-44.06 15.46-45.627 17.39-45.627L80.39-45.627C82.32-45.627 83.89-44.06 83.89-42.127C83.89-40.194 82.32-38.627 80.39-38.627L17.39-38.627C15.46-38.627 13.89-40.194 13.89-42.127Z"/>
  </g>
  <g id="Light-S" transform="matrix(1 0 0 1 1105.2 696)">
   <path class="hierarchical-0:secondary SFSymbolsPreview4D4D4D" d="M34.09-72.826C35.58-72.826 36.79-71.617 36.79-70.126L36.79-56.126C36.79-54.635 35.58-53.426 34.09-53.426C32.6-53.426 31.39-54.635 31.39-56.126L31.39-70.126C31.39-71.617 32.6-72.826 34.09-72.826ZM62.09-72.826C63.58-72.826 64.79-71.617 64.79-70.126L64.79-56.126C64.79-54.635 63.58-53.426 62.09-53.426C60.6-53.426 59.39-54.635 59.39-56.126L59.39-70.126C59.39-71.617 60.6-72.826 62.09-72.826Z"/>
   <path class="hierarchical-1:primary SFSymbolsPreview212121" d="M13.89-56.126C13.89-61.483 18.23-65.826 23.59-65.826L72.59-65.826C77.95-65.826 82.29-61.483 82.29-56.126L82.29-7.126C82.29-1.769 77.95 2.574 72.59 2.574L23.59 2.574C18.23 2.574 13.89-1.769 13.89-7.126L13.89-56.126ZM23.59-60.426C21.22-60.426 19.29-58.501 19.29-56.126L19.29-7.126C19.29-4.751 21.22-2.826 23.59-2.826L72.59-2.826C74.97-2.826 76.89-4.751 76.89-7.126L76.89-56.126C76.89-58.501 74.97-60.426 72.59-60.426L23.59-60.426ZM13.89-42.126C13.89-43.617 15.1-44.826 16.59-44.826L79.59-44.826C81.08-44.826 82.29-43.617 82.29-42.126C82.29-40.635 81.08-39.426 79.59-39.426L16.59-39.426C15.1-39.426 13.89-40.635 13.89-42.126Z"/>
  </g>
  <g id="Thin-S" transform="matrix(1 0 0 1 809.537 696)">
   <path class="hierarchical-0:secondary SFSymbolsPreview4D4D4D" d="M33.04-71.777C33.951-71.777 34.69-71.039 34.69-70.127L34.69-56.127C34.69-55.216 33.951-54.477 33.04-54.477C32.128-54.477 31.39-55.216 31.39-56.127L31.39-70.127C31.39-71.039 32.128-71.777 33.04-71.777ZM61.04-71.777C61.951-71.777 62.69-71.039 62.69-70.127L62.69-56.127C62.69-55.216 61.951-54.477 61.04-54.477C60.128-54.477 59.39-55.216 59.39-56.127L59.39-70.127C59.39-71.039 60.128-71.777 61.04-71.777Z"/>
   <path class="hierarchical-1:primary SFSymbolsPreview212121" d="M13.89-56.127C13.89-60.905 17.762-64.777 22.54-64.777L71.54-64.777C76.317-64.777 80.19-60.905 80.19-56.127L80.19-7.127C80.19-2.35 76.317 1.523 71.54 1.523L22.54 1.523C17.762 1.523 13.89-2.35 13.89-7.127L13.89-56.127ZM22.54-61.477C19.585-61.477 17.19-59.082 17.19-56.127L17.19-7.127C17.19-4.173 19.585-1.777 22.54-1.777L71.54-1.777C74.494-1.777 76.89-4.173 76.89-7.127L76.89-56.127C76.89-59.082 74.494-61.477 71.54-61.477L22.54-61.477ZM13.89-42.127C13.89-43.039 14.628-43.777 15.54-43.777L78.54-43.777C79.451-43.777 80.19-43.039 80.19-42.127C80.19-41.216 79.451-40.477 78.54-40.477L15.54-40.477C14.628-40.477 13.89-41.216 13.89-42.127Z"/>
  </g>
  <g id="Ultralight-S" transform="matrix(1 0 0 1 513.376 696)">
   <path class="hierarchical-0:secondary SFSymbolsPreview4D4D4D" d="M32.49-71.227C33.098-71.227 33.59-70.734 33.59-70.127L33.59-56.127C33.59-55.519 33.098-55.027 32.49-55.027C31.883-55.027 31.39-55.519 31.39-56.127L31.39-70.127C31.39-70.734 31.883-71.227 32.49-71.227ZM60.49-71.227C61.098-71.227 61.59-70.734 61.59-70.127L61.59-56.127C61.59-55.519 61.098-55.027 60.49-55.027C59.883-55.027 59.39-55.519 59.39-56.127L59.39-70.127C59.39-70.734 59.883-71.227 60.49-71.227Z"/>
   <path class="hierarchical-1:primary SFSymbolsPreview212121" d="M13.89-56.127C13.89-60.6 17.517-64.227 21.99-64.227L70.99-64.227C75.464-64.227 79.09-60.6 79.09-56.127L79.09-7.127C79.09-2.653 75.464 0.973 70.99 0.973L21.99 0.973C17.517 0.973 13.89-2.653 13.89-7.127L13.89-56.127ZM21.99-62.027C18.732-62.027 16.09-59.385 16.09-56.127L16.09-7.127C16.09-3.868 18.732-1.227 21.99-1.227L70.99-1.227C74.249-1.227 76.89-3.868 76.89-7.127L76.89-56.127C76.89-59.385 74.249-62.027 70.99-62.027L21.99-62.027ZM13.89-42.127C13.89-42.734 14.383-43.227 14.99-43.227L77.99-43.227C78.598-43.227 79.09-42.734 79.09-42.127C79.09-41.519 78.598-41.027 77.99-41.027L14.99-41.027C14.383-41.027 13.89-41.519 13.89-42.127Z"/>
  </g>
 </g>
</svg>
