<?xml version="1.0" encoding="UTF-8"?>
<!--Generator: Apple Native CoreSVG 175-->
<!DOCTYPE svg
PUBLIC "-//W3C//DTD SVG 1.1//EN"
       "http://www.w3.org/Graphics/SVG/1.1/DTD/svg11.dtd">
<svg version="1.1" xmlns="http://www.w3.org/2000/svg" xmlns:xlink="http://www.w3.org/1999/xlink" width="3300" height="2200">
 <!--glyph: "", point size: 100.0, font version: "17.0d12e1", template writer version: "65.1"-->
 <style>.hierarchical-0:secondary {fill:#4D4D4D}
.hierarchical-1:primary {fill:#212121}

.SFSymbolsPreview212121 {fill:#212121;opacity:1.0}
.SFSymbolsPreview4D4D4D {fill:#4D4D4D;opacity:1.0}
</style>
 <g id="Notes">
  <rect height="2200" id="artboard" style="fill:white;opacity:1" width="3300" x="0" y="0"/>
  <line style="fill:none;stroke:black;opacity:1;stroke-width:0.5;" x1="263" x2="3036" y1="292" y2="292"/>
  <text style="stroke:none;fill:black;font-family:sans-serif;font-size:13;font-weight:bold;" transform="matrix(1 0 0 1 263 322)">Weight/Scale Variations</text>
  <text style="stroke:none;fill:black;font-family:sans-serif;font-size:13;text-anchor:middle;" transform="matrix(1 0 0 1 559.711 322)">Ultralight</text>
  <text style="stroke:none;fill:black;font-family:sans-serif;font-size:13;text-anchor:middle;" transform="matrix(1 0 0 1 856.422 322)">Thin</text>
  <text style="stroke:none;fill:black;font-family:sans-serif;font-size:13;text-anchor:middle;" transform="matrix(1 0 0 1 1153.13 322)">Light</text>
  <text style="stroke:none;fill:black;font-family:sans-serif;font-size:13;text-anchor:middle;" transform="matrix(1 0 0 1 1449.84 322)">Regular</text>
  <text style="stroke:none;fill:black;font-family:sans-serif;font-size:13;text-anchor:middle;" transform="matrix(1 0 0 1 1746.56 322)">Medium</text>
  <text style="stroke:none;fill:black;font-family:sans-serif;font-size:13;text-anchor:middle;" transform="matrix(1 0 0 1 2043.27 322)">Semibold</text>
  <text style="stroke:none;fill:black;font-family:sans-serif;font-size:13;text-anchor:middle;" transform="matrix(1 0 0 1 2339.98 322)">Bold</text>
  <text style="stroke:none;fill:black;font-family:sans-serif;font-size:13;text-anchor:middle;" transform="matrix(1 0 0 1 2636.69 322)">Heavy</text>
  <text style="stroke:none;fill:black;font-family:sans-serif;font-size:13;text-anchor:middle;" transform="matrix(1 0 0 1 2933.4 322)">Black</text>
  <line style="fill:none;stroke:black;opacity:1;stroke-width:0.5;" x1="263" x2="3036" y1="1903" y2="1903"/>
  <g transform="matrix(1 0 0 1 263 1933)">
   <path d="M9.24805 0.830078Q10.8691 0.830078 12.2949 0.214844Q13.7207-0.400391 14.8096-1.49414Q15.8984-2.58789 16.5186-4.01367Q17.1387-5.43945 17.1387-7.05078Q17.1387-8.66211 16.5186-10.0879Q15.8984-11.5137 14.8047-12.6074Q13.7109-13.7012 12.2852-14.3164Q10.8594-14.9316 9.23828-14.9316Q7.62695-14.9316 6.20117-14.3164Q4.77539-13.7012 3.69141-12.6074Q2.60742-11.5137 1.9873-10.0879Q1.36719-8.66211 1.36719-7.05078Q1.36719-5.43945 1.9873-4.01367Q2.60742-2.58789 3.69629-1.49414Q4.78516-0.400391 6.21094 0.214844Q7.63672 0.830078 9.24805 0.830078ZM9.24805-0.654297Q7.91992-0.654297 6.7627-1.14746Q5.60547-1.64062 4.73145-2.51953Q3.85742-3.39844 3.36426-4.56055Q2.87109-5.72266 2.87109-7.05078Q2.87109-8.37891 3.35938-9.54102Q3.84766-10.7031 4.72168-11.582Q5.5957-12.4609 6.75293-12.9541Q7.91016-13.4473 9.23828-13.4473Q10.5762-13.4473 11.7334-12.9541Q12.8906-12.4609 13.7695-11.582Q14.6484-10.7031 15.1465-9.54102Q15.6445-8.37891 15.6445-7.05078Q15.6445-5.72266 15.1514-4.56055Q14.6582-3.39844 13.7842-2.51953Q12.9102-1.64062 11.748-1.14746Q10.5859-0.654297 9.24805-0.654297ZM5.6543-7.05078Q5.6543-6.72852 5.85938-6.52832Q6.06445-6.32812 6.40625-6.32812L8.51562-6.32812L8.51562-4.20898Q8.51562-3.88672 8.71094-3.67676Q8.90625-3.4668 9.23828-3.4668Q9.56055-3.4668 9.77051-3.67676Q9.98047-3.88672 9.98047-4.20898L9.98047-6.32812L12.0898-6.32812Q12.4219-6.32812 12.627-6.52832Q12.832-6.72852 12.832-7.05078Q12.832-7.38281 12.627-7.58789Q12.4219-7.79297 12.0898-7.79297L9.98047-7.79297L9.98047-9.90234Q9.98047-10.2344 9.77051-10.4443Q9.56055-10.6543 9.23828-10.6543Q8.90625-10.6543 8.71094-10.4443Q8.51562-10.2344 8.51562-9.90234L8.51562-7.79297L6.40625-7.79297Q6.06445-7.79297 5.85938-7.58789Q5.6543-7.38281 5.6543-7.05078Z"/>
  </g>
  <g transform="matrix(1 0 0 1 281.867 1933)">
   <path d="M11.709 2.91016Q13.75 2.91016 15.5518 2.12891Q17.3535 1.34766 18.7305-0.0292969Q20.1074-1.40625 20.8887-3.20801Q21.6699-5.00977 21.6699-7.05078Q21.6699-9.0918 20.8887-10.8936Q20.1074-12.6953 18.7305-14.0723Q17.3535-15.4492 15.5469-16.2305Q13.7402-17.0117 11.6992-17.0117Q9.6582-17.0117 7.85645-16.2305Q6.05469-15.4492 4.68262-14.0723Q3.31055-12.6953 2.5293-10.8936Q1.74805-9.0918 1.74805-7.05078Q1.74805-5.00977 2.5293-3.20801Q3.31055-1.40625 4.6875-0.0292969Q6.06445 1.34766 7.86621 2.12891Q9.66797 2.91016 11.709 2.91016ZM11.709 1.25Q9.98047 1.25 8.47656 0.605469Q6.97266-0.0390625 5.83496-1.17676Q4.69727-2.31445 4.05762-3.81836Q3.41797-5.32227 3.41797-7.05078Q3.41797-8.7793 4.05762-10.2832Q4.69727-11.7871 5.83008-12.9297Q6.96289-14.0723 8.4668-14.7119Q9.9707-15.3516 11.6992-15.3516Q13.4277-15.3516 14.9316-14.7119Q16.4355-14.0723 17.5781-12.9297Q18.7207-11.7871 19.3652-10.2832Q20.0098-8.7793 20.0098-7.05078Q20.0098-5.32227 19.3701-3.81836Q18.7305-2.31445 17.5928-1.17676Q16.4551-0.0390625 14.9463 0.605469Q13.4375 1.25 11.709 1.25ZM7.17773-7.05078Q7.17773-6.69922 7.41211-6.47461Q7.64648-6.25 8.01758-6.25L10.8887-6.25L10.8887-3.36914Q10.8887-2.99805 11.1133-2.76855Q11.3379-2.53906 11.6895-2.53906Q12.0605-2.53906 12.29-2.76855Q12.5195-2.99805 12.5195-3.36914L12.5195-6.25L15.4004-6.25Q15.7715-6.25 16.001-6.47461Q16.2305-6.69922 16.2305-7.05078Q16.2305-7.42188 16.001-7.65137Q15.7715-7.88086 15.4004-7.88086L12.5195-7.88086L12.5195-10.752Q12.5195-11.1328 12.29-11.3623Q12.0605-11.5918 11.6895-11.5918Q11.3379-11.5918 11.1133-11.3574Q10.8887-11.123 10.8887-10.752L10.8887-7.88086L8.01758-7.88086Q7.63672-7.88086 7.40723-7.65137Q7.17773-7.42188 7.17773-7.05078Z"/>
  </g>
  <g transform="matrix(1 0 0 1 305.646 1933)">
   <path d="M14.9707 5.66406Q17.0605 5.66406 18.96 5.01465Q20.8594 4.36523 22.4512 3.19336Q24.043 2.02148 25.2197 0.429688Q26.3965-1.16211 27.0459-3.06641Q27.6953-4.9707 27.6953-7.05078Q27.6953-9.14062 27.0459-11.04Q26.3965-12.9395 25.2197-14.5312Q24.043-16.123 22.4512-17.2998Q20.8594-18.4766 18.9551-19.126Q17.0508-19.7754 14.9609-19.7754Q12.8711-19.7754 10.9717-19.126Q9.07227-18.4766 7.48535-17.2998Q5.89844-16.123 4.72168-14.5312Q3.54492-12.9395 2.90039-11.04Q2.25586-9.14062 2.25586-7.05078Q2.25586-4.9707 2.90527-3.06641Q3.55469-1.16211 4.72656 0.429688Q5.89844 2.02148 7.49023 3.19336Q9.08203 4.36523 10.9814 5.01465Q12.8809 5.66406 14.9707 5.66406ZM14.9707 3.84766Q13.1641 3.84766 11.5283 3.2959Q9.89258 2.74414 8.53516 1.74805Q7.17773 0.751953 6.17676-0.610352Q5.17578-1.97266 4.62891-3.6084Q4.08203-5.24414 4.08203-7.05078Q4.08203-8.86719 4.62891-10.5029Q5.17578-12.1387 6.17188-13.501Q7.16797-14.8633 8.52539-15.8594Q9.88281-16.8555 11.5186-17.4023Q13.1543-17.9492 14.9609-17.9492Q16.7773-17.9492 18.4131-17.4023Q20.0488-16.8555 21.4111-15.8594Q22.7734-14.8633 23.7695-13.501Q24.7656-12.1387 25.3174-10.5029Q25.8691-8.86719 25.8691-7.05078Q25.8789-5.24414 25.332-3.6084Q24.7852-1.97266 23.7842-0.610352Q22.7832 0.751953 21.4209 1.74805Q20.0586 2.74414 18.4229 3.2959Q16.7871 3.84766 14.9707 3.84766ZM9.19922-7.05078Q9.19922-6.66992 9.45801-6.4209Q9.7168-6.17188 10.1172-6.17188L14.0625-6.17188L14.0625-2.2168Q14.0625-1.81641 14.3115-1.55762Q14.5605-1.29883 14.9512-1.29883Q15.3516-1.29883 15.6104-1.55273Q15.8691-1.80664 15.8691-2.2168L15.8691-6.17188L19.8242-6.17188Q20.2246-6.17188 20.4785-6.4209Q20.7324-6.66992 20.7324-7.05078Q20.7324-7.46094 20.4785-7.71484Q20.2246-7.96875 19.8242-7.96875L15.8691-7.96875L15.8691-11.9141Q15.8691-12.3242 15.6104-12.583Q15.3516-12.8418 14.9512-12.8418Q14.5605-12.8418 14.3115-12.583Q14.0625-12.3242 14.0625-11.9141L14.0625-7.96875L10.1172-7.96875Q9.70703-7.96875 9.45312-7.71484Q9.19922-7.46094 9.19922-7.05078Z"/>
  </g>
  <text style="stroke:none;fill:black;font-family:sans-serif;font-size:13;font-weight:bold;" transform="matrix(1 0 0 1 263 1953)">Design Variations</text>
  <text style="stroke:none;fill:black;font-family:sans-serif;font-size:13;" transform="matrix(1 0 0 1 263 1971)">Symbols are supported in up to nine weights and three scales.</text>
  <text style="stroke:none;fill:black;font-family:sans-serif;font-size:13;" transform="matrix(1 0 0 1 263 1989)">For optimal layout with text and other symbols, vertically align</text>
  <text style="stroke:none;fill:black;font-family:sans-serif;font-size:13;" transform="matrix(1 0 0 1 263 2007)">symbols with the adjacent text.</text>
  <line style="fill:none;stroke:#00AEEF;stroke-width:0.5;opacity:1.0;" x1="776" x2="776" y1="1919" y2="1933"/>
  <g transform="matrix(1 0 0 1 776 1933)">
   <path d="M3.31055 0.15625Q3.70117 0.15625 3.91602-0.00976562Q4.13086-0.175781 4.26758-0.585938L5.52734-4.0332L11.2891-4.0332L12.5488-0.585938Q12.6855-0.175781 12.9004-0.00976562Q13.1152 0.15625 13.4961 0.15625Q13.8867 0.15625 14.1162-0.0585938Q14.3457-0.273438 14.3457-0.644531Q14.3457-0.869141 14.2383-1.17188L9.6582-13.3691Q9.48242-13.8184 9.17969-14.043Q8.87695-14.2676 8.4082-14.2676Q7.5-14.2676 7.17773-13.3789L2.59766-1.16211Q2.49023-0.859375 2.49023-0.634766Q2.49023-0.263672 2.70996-0.0537109Q2.92969 0.15625 3.31055 0.15625ZM6.00586-5.51758L8.37891-12.0898L8.42773-12.0898L10.8008-5.51758Z"/>
  </g>
  <line style="fill:none;stroke:#00AEEF;stroke-width:0.5;opacity:1.0;" x1="793.197" x2="793.197" y1="1919" y2="1933"/>
  <text style="stroke:none;fill:black;font-family:sans-serif;font-size:13;font-weight:bold;" transform="matrix(1 0 0 1 776 1953)">Margins</text>
  <text style="stroke:none;fill:black;font-family:sans-serif;font-size:13;" transform="matrix(1 0 0 1 776 1971)">Leading and trailing margins on the left and right side of each symbol</text>
  <text style="stroke:none;fill:black;font-family:sans-serif;font-size:13;" transform="matrix(1 0 0 1 776 1989)">can be adjusted by modifying the x-location of the margin guidelines.</text>
  <text style="stroke:none;fill:black;font-family:sans-serif;font-size:13;" transform="matrix(1 0 0 1 776 2007)">Modifications are automatically applied proportionally to all</text>
  <text style="stroke:none;fill:black;font-family:sans-serif;font-size:13;" transform="matrix(1 0 0 1 776 2025)">scales and weights.</text>
  <g transform="matrix(1 0 0 1 1289 1933)">
   <path d="M2.8418 1.86523L4.54102 3.57422Q5.18555 4.22852 5.90332 4.17969Q6.62109 4.13086 7.31445 3.35938L18.0078-8.42773L17.041-9.4043L6.42578 2.27539Q6.16211 2.57812 5.89355 2.61719Q5.625 2.65625 5.27344 2.30469L4.10156 1.14258Q3.75 0.791016 3.79395 0.522461Q3.83789 0.253906 4.14062-0.0195312L15.6152-10.8203L14.6387-11.7871L3.04688-0.898438Q2.30469-0.214844 2.25098 0.498047Q2.19727 1.21094 2.8418 1.86523ZM9.25781-16.3281Q8.94531-16.0254 8.90625-15.6348Q8.86719-15.2441 9.04297-14.9512Q9.21875-14.6777 9.55566-14.541Q9.89258-14.4043 10.3809-14.5215Q11.4746-14.7754 12.5977-14.7314Q13.7207-14.6875 14.7949-13.9844L14.209-12.5293Q13.9551-11.9043 14.0674-11.4404Q14.1797-10.9766 14.5801-10.5664L16.875-8.25195Q17.2363-7.88086 17.5781-7.82227Q17.9199-7.76367 18.3398-7.8418L19.4043-8.03711L20.0684-7.36328L20.0293-6.80664Q20-6.43555 20.1221-6.12305Q20.2441-5.81055 20.6055-5.44922L21.3672-4.70703Q21.7285-4.3457 22.1533-4.33105Q22.5781-4.31641 22.9297-4.66797L25.8398-7.58789Q26.1914-7.93945 26.1816-8.35449Q26.1719-8.76953 25.8105-9.13086L25.0391-9.89258Q24.6875-10.2539 24.3799-10.3857Q24.0723-10.5176 23.7109-10.4883L23.1348-10.4395L22.4902-11.0742L22.7344-12.1973Q22.832-12.6172 22.6953-12.9834Q22.5586-13.3496 22.1191-13.7891L19.9219-15.9766Q18.6719-17.2168 17.2607-17.8369Q15.8496-18.457 14.4189-18.4814Q12.9883-18.5059 11.665-17.959Q10.3418-17.4121 9.25781-16.3281ZM10.752-15.957Q11.6602-16.6211 12.7002-16.9043Q13.7402-17.1875 14.8047-17.085Q15.8691-16.9824 16.8701-16.5137Q17.8711-16.0449 18.7012-15.2051L21.1328-12.793Q21.3086-12.6172 21.3525-12.4512Q21.3965-12.2852 21.3379-12.0312L21.0156-10.5469L22.5195-9.0625L23.5059-9.12109Q23.6914-9.13086 23.7891-9.09668Q23.8867-9.0625 24.0332-8.91602L24.6094-8.33984L22.168-5.89844L21.5918-6.47461Q21.4453-6.62109 21.4062-6.71875Q21.3672-6.81641 21.377-7.01172L21.4453-7.98828L19.9512-9.47266L18.4277-9.21875Q18.1836-9.16992 18.042-9.2041Q17.9004-9.23828 17.7148-9.41406L15.7129-11.416Q15.5176-11.5918 15.4932-11.7529Q15.4688-11.9141 15.5859-12.1875L16.4648-14.2773Q15.293-15.3711 13.8281-15.791Q12.3633-16.2109 10.8398-15.7617Q10.7227-15.7324 10.6885-15.8057Q10.6543-15.8789 10.752-15.957Z"/>
  </g>
  <text style="stroke:none;fill:black;font-family:sans-serif;font-size:13;font-weight:bold;" transform="matrix(1 0 0 1 1289 1953)">Exporting</text>
  <text style="stroke:none;fill:black;font-family:sans-serif;font-size:13;" transform="matrix(1 0 0 1 1289 1971)">Symbols should be outlined when exporting to ensure the</text>
  <text style="stroke:none;fill:black;font-family:sans-serif;font-size:13;" transform="matrix(1 0 0 1 1289 1989)">design is preserved when submitting to Xcode.</text>
  <text id="template-version" style="stroke:none;fill:black;font-family:sans-serif;font-size:13;text-anchor:end;" transform="matrix(1 0 0 1 3036 1933)">Template v.3.0</text>
  <text style="stroke:none;fill:black;font-family:sans-serif;font-size:13;text-anchor:end;" transform="matrix(1 0 0 1 3036 1951)">Requires Xcode 13 or greater</text>
  <text id="descriptive-name" style="stroke:none;fill:black;font-family:sans-serif;font-size:13;text-anchor:end;" transform="matrix(1 0 0 1 3036 1969)">Generated from users</text>
  <text style="stroke:none;fill:black;font-family:sans-serif;font-size:13;text-anchor:end;" transform="matrix(1 0 0 1 3036 1987)">Typeset at 100 points</text>
  <text style="stroke:none;fill:black;font-family:sans-serif;font-size:13;" transform="matrix(1 0 0 1 263 726)">Small</text>
  <text style="stroke:none;fill:black;font-family:sans-serif;font-size:13;" transform="matrix(1 0 0 1 263 1156)">Medium</text>
  <text style="stroke:none;fill:black;font-family:sans-serif;font-size:13;" transform="matrix(1 0 0 1 263 1586)">Large</text>
 </g>
 <g id="Guides">
  <g id="H-reference" style="fill:#27AAE1;stroke:none;" transform="matrix(1 0 0 1 339 696)">
   <path d="M0.976562 0L3.66211 0L29.3457-67.1387L30.0293-67.1387L30.0293-70.459L28.125-70.459ZM11.6699-24.4629L46.9727-24.4629L46.2402-26.709L12.4512-26.709ZM55.127 0L57.7637 0L30.6152-70.459L29.4434-70.459L29.4434-67.1387Z"/>
  </g>
  <line id="Baseline-S" style="fill:none;stroke:#27AAE1;opacity:1;stroke-width:0.5;" x1="263" x2="3036" y1="696" y2="696"/>
  <line id="Capline-S" style="fill:none;stroke:#27AAE1;opacity:1;stroke-width:0.5;" x1="263" x2="3036" y1="625.541" y2="625.541"/>
  <g id="H-reference" style="fill:#27AAE1;stroke:none;" transform="matrix(1 0 0 1 339 1126)">
   <path d="M0.976562 0L3.66211 0L29.3457-67.1387L30.0293-67.1387L30.0293-70.459L28.125-70.459ZM11.6699-24.4629L46.9727-24.4629L46.2402-26.709L12.4512-26.709ZM55.127 0L57.7637 0L30.6152-70.459L29.4434-70.459L29.4434-67.1387Z"/>
  </g>
  <line id="Baseline-M" style="fill:none;stroke:#27AAE1;opacity:1;stroke-width:0.5;" x1="263" x2="3036" y1="1126" y2="1126"/>
  <line id="Capline-M" style="fill:none;stroke:#27AAE1;opacity:1;stroke-width:0.5;" x1="263" x2="3036" y1="1055.54" y2="1055.54"/>
  <g id="H-reference" style="fill:#27AAE1;stroke:none;" transform="matrix(1 0 0 1 339 1556)">
   <path d="M0.976562 0L3.66211 0L29.3457-67.1387L30.0293-67.1387L30.0293-70.459L28.125-70.459ZM11.6699-24.4629L46.9727-24.4629L46.2402-26.709L12.4512-26.709ZM55.127 0L57.7637 0L30.6152-70.459L29.4434-70.459L29.4434-67.1387Z"/>
  </g>
  <line id="Baseline-L" style="fill:none;stroke:#27AAE1;opacity:1;stroke-width:0.5;" x1="263" x2="3036" y1="1556" y2="1556"/>
  <line id="Capline-L" style="fill:none;stroke:#27AAE1;opacity:1;stroke-width:0.5;" x1="263" x2="3036" y1="1485.54" y2="1485.54"/>
  <line id="left-margin-Regular-M" style="fill:none;stroke:#00AEEF;stroke-width:0.5;opacity:1.0;" x1="1392.45" x2="1392.45" y1="1030.78" y2="1150.12"/>
  <line id="right-margin-Regular-M" style="fill:none;stroke:#00AEEF;stroke-width:0.5;opacity:1.0;" x1="1507.24" x2="1507.24" y1="1030.78" y2="1150.12"/>
 </g>
 <g id="Symbols">
  <g id="Black-L" transform="matrix(1 0 0 1 2858.94 1556)">
   <path class="hierarchical-0:secondary SFSymbolsPreview4D4D4D" d="M90.62-87.46C91.59-91.26 95.46-93.54 99.26-92.56C105.68-90.91 111.37-87.18 115.43-81.96C119.49-76.72 121.7-70.28 121.7-63.65C121.7-57.02 119.49-50.58 115.43-45.34C111.36-40.11 105.67-36.37 99.25-34.73C95.45-33.76 91.58-36.05 90.61-39.85C89.66-43.57 91.84-47.36 95.5-48.42L95.73-48.49C99.09-49.35 102.08-51.31 104.21-54.06C106.34-56.8 107.5-60.17 107.5-63.65C107.5-67.13 106.34-70.5 104.21-73.24C102.17-75.88 99.32-77.79 96.11-78.71L95.72-78.81C91.92-79.79 89.64-83.66 90.62-87.46ZM113.37-19.21C114.35-23.01 118.22-25.29 122.02-24.31C128.41-22.66 134.08-18.93 138.14-13.7C142.09-8.6 144.28-2.39 144.4 4.03L144.4 4.57L144.4 15.95C144.4 19.87 141.22 23.05 137.3 23.05C133.46 23.05 130.33 20 130.2 16.19L130.2 15.95L130.2 4.57C130.2 1.11 129.05-2.25 126.92-5C124.88-7.63 122.05-9.54 118.87-10.46L118.47-10.56C114.67-11.55 112.39-15.42 113.37-19.21Z"/>
   <path class="hierarchical-1:primary SFSymbolsPreview212121" d="M57.68-93.53C41.19-93.53 27.83-80.16 27.83-63.68C27.83-47.19 41.19-33.83 57.68-33.83C74.16-33.83 87.53-47.19 87.53-63.68C87.53-80.16 74.16-93.53 57.68-93.53ZM80.43-25.28C88.35-25.28 95.95-22.13 101.52-16.54C107.01-11.06 110.15-3.66 110.28 4.08L110.28 4.57L110.28 15.95C110.28 19.87 107.1 23.05 103.18 23.05C99.34 23.05 96.21 20 96.08 16.19L96.08 15.95L96.08 4.57C96.08 0.42 94.43-3.56 91.48-6.49C88.65-9.33 84.83-10.97 80.83-11.07L80.43-11.08L34.93-11.08C30.78-11.08 26.8-9.43 23.85-6.48C21.02-3.66 19.39 0.16 19.29 4.17L19.28 4.57L19.28 15.95C19.28 19.87 16.1 23.05 12.18 23.05C8.34 23.05 5.21 20 5.08 16.19L5.08 15.95L5.08 4.57C5.08-3.35 8.22-10.95 13.82-16.53C19.31-22.02 26.69-25.15 34.44-25.28L34.93-25.28L80.43-25.28ZM57.68-79.33C66.32-79.33 73.33-72.32 73.33-63.68C73.33-55.03 66.32-48.03 57.68-48.03C49.03-48.03 42.03-55.03 42.03-63.68C42.03-72.32 49.04-79.33 57.68-79.33Z"/>
  </g>
  <g id="Heavy-L" transform="matrix(1 0 0 1 2563.07 1556)">
   <path class="hierarchical-0:secondary SFSymbolsPreview4D4D4D" d="M90.6-87.24C91.46-90.58 94.87-92.59 98.21-91.73C104.44-90.13 109.97-86.5 113.92-81.42C117.86-76.33 120-70.07 120-63.64C120-57.21 117.86-50.95 113.92-45.86C109.96-40.77 104.43-37.14 98.2-35.54C94.85-34.69 91.45-36.71 90.59-40.05C89.76-43.32 91.67-46.65 94.88-47.59L95.1-47.66C98.64-48.56 101.79-50.63 104.04-53.52C106.28-56.41 107.5-59.98 107.5-63.64C107.5-67.3 106.28-70.87 104.04-73.76C101.88-76.54 98.88-78.56 95.48-79.52L95.09-79.63C91.75-80.49 89.74-83.9 90.6-87.24ZM113.35-18.99C114.21-22.33 117.62-24.34 120.96-23.48C127.18-21.88 132.69-18.25 136.63-13.17C140.46-8.22 142.59-2.19 142.71 4.05L142.71 4.58L142.71 15.96C142.71 19.41 139.91 22.21 136.46 22.21C133.08 22.21 130.33 19.53 130.21 16.19L130.21 15.96L130.21 4.58C130.21 0.93 128.99-2.61 126.75-5.51C124.59-8.29 121.61-10.31 118.24-11.27L117.84-11.38C114.5-12.24 112.49-15.65 113.35-18.99Z"/>
   <path class="hierarchical-1:primary SFSymbolsPreview212121" d="M56.83-92.67C40.82-92.67 27.84-79.68 27.84-63.67C27.84-47.65 40.82-34.67 56.83-34.67C72.85-34.67 85.84-47.65 85.84-63.67C85.84-79.68 72.85-92.67 56.83-92.67ZM79.59-24.42C87.28-24.42 94.66-21.36 100.08-15.92C105.41-10.61 108.45-3.43 108.58 4.09L108.58 4.58L108.58 15.96C108.58 19.41 105.78 22.21 102.33 22.21C98.96 22.21 96.2 19.53 96.08 16.19L96.08 15.96L96.08 4.58C96.08 0.2 94.34-3.99 91.25-7.09C88.26-10.08 84.22-11.81 80-11.91L79.59-11.92L34.09-11.92C29.71-11.92 25.51-10.18 22.41-7.08C19.42-4.09 17.69-0.05 17.59 4.17L17.58 4.58L17.58 15.96C17.58 19.41 14.78 22.21 11.33 22.21C7.96 22.21 5.2 19.53 5.08 16.19L5.08 15.96L5.08 4.58C5.08-3.11 8.14-10.49 13.58-15.91C18.89-21.24 26.08-24.29 33.6-24.42L34.09-24.42L79.59-24.42ZM56.83-80.17C65.95-80.17 73.34-72.78 73.34-63.67C73.34-54.55 65.95-47.17 56.83-47.17C47.72-47.17 40.34-54.55 40.34-63.67C40.34-72.78 47.72-80.17 56.83-80.17Z"/>
  </g>
  <g id="Bold-L" transform="matrix(1 0 0 1 2267.31 1556)">
   <path class="hierarchical-0:secondary SFSymbolsPreview4D4D4D" d="M90.56-87C91.29-89.83 94.17-91.54 97.01-90.81C103.05-89.26 108.4-85.75 112.2-80.84C116.03-75.92 118.1-69.87 118.1-63.64C118.1-57.41 116.03-51.36 112.21-46.44C108.4-41.52 103.04-38 97-36.46C94.16-35.74 91.28-37.45 90.55-40.29C89.83-43.13 91.54-46.01 94.38-46.73C98.13-47.69 101.46-49.88 103.83-52.94C106.21-56 107.5-59.76 107.5-63.64C107.5-67.51 106.21-71.28 103.83-74.34C101.47-77.4 98.14-79.58 94.37-80.55C91.53-81.28 89.83-84.16 90.56-87ZM113.31-18.75C114.04-21.59 116.93-23.29 119.76-22.56C125.78-21.01 131.11-17.5 134.93-12.58C138.62-7.81 140.68-1.99 140.8 4.05L140.81 4.58L140.81 15.96C140.81 18.89 138.44 21.26 135.51 21.26C132.66 21.26 130.33 19.01 130.21 16.18L130.21 15.96L130.21 4.59C130.2 0.72 128.92-3.04 126.55-6.09C124.18-9.15 120.86-11.33 117.12-12.3C114.28-13.03 112.58-15.92 113.31-18.75Z"/>
   <path class="hierarchical-1:primary SFSymbolsPreview212121" d="M55.88-91.72C40.39-91.72 27.83-79.16 27.83-63.67C27.83-48.17 40.39-35.62 55.88-35.62C71.38-35.62 83.93-48.17 83.93-63.67C83.93-79.16 71.37-91.72 55.88-91.72ZM78.63-23.47C86.07-23.47 93.2-20.51 98.46-15.25C103.61-10.11 106.55-3.17 106.68 4.1L106.68 4.58L106.68 15.96C106.68 18.89 104.31 21.26 101.38 21.26C98.53 21.26 96.2 19.01 96.08 16.18L96.08 15.96L96.08 4.58C96.08-0.05 94.24-4.49 90.97-7.75C87.79-10.93 83.53-12.76 79.05-12.86L78.63-12.87L33.13-12.87C28.51-12.87 24.07-11.03 20.79-7.75C17.62-4.58 15.79-0.31 15.68 4.16L15.68 4.58L15.68 15.96C15.68 18.89 13.31 21.26 10.38 21.26C7.53 21.26 5.2 19.01 5.08 16.18L5.08 15.96L5.08 4.58C5.08-2.86 8.04-10 13.3-15.24C18.44-20.39 25.38-23.34 32.64-23.46L33.13-23.47L78.63-23.47ZM55.88-81.12C65.52-81.12 73.33-73.31 73.33-63.67C73.33-54.03 65.52-46.22 55.88-46.22C46.24-46.22 38.43-54.03 38.43-63.67C38.43-73.3 46.25-81.12 55.88-81.12Z"/>
  </g>
  <g id="Semibold-L" transform="matrix(1 0 0 1 1971.25 1556)">
   <path class="hierarchical-0:secondary SFSymbolsPreview4D4D4D" d="M90.54-86.84C91.18-89.33 93.71-90.82 96.2-90.18C102.09-88.67 107.31-85.24 111.04-80.44C114.77-75.64 116.8-69.73 116.8-63.64C116.8-57.56 114.77-51.64 111.04-46.84C107.31-42.03 102.08-38.6 96.19-37.1C93.7-36.46 91.17-37.96 90.53-40.45C89.9-42.94 91.4-45.47 93.89-46.11C97.77-47.1 101.23-49.37 103.7-52.54C106.16-55.72 107.5-59.62 107.5-63.64C107.5-67.66 106.16-71.57 103.7-74.74C101.32-77.8 98.03-80.01 94.3-81.07L93.88-81.18C91.39-81.82 89.9-84.35 90.54-86.84ZM113.29-18.59C113.93-21.08 116.47-22.58 118.95-21.93C124.82-20.42 130.03-16.99 133.76-12.19C137.37-7.52 139.38-1.83 139.49 4.04L139.5 4.58L139.5 15.96C139.5 18.53 137.42 20.61 134.85 20.61C132.35 20.61 130.32 18.64 130.2 16.17L130.2 15.96L130.2 4.58C130.2 0.58 128.87-3.31 126.41-6.49C123.94-9.66 120.5-11.93 116.63-12.93C114.14-13.57 112.65-16.11 113.29-18.59Z"/>
   <path class="hierarchical-1:primary SFSymbolsPreview212121" d="M55.23-91.07C40.1-91.07 27.83-78.8 27.83-63.67C27.83-48.53 40.09-36.27 55.23-36.27C70.36-36.27 82.63-48.54 82.63-63.67C82.63-78.8 70.36-91.07 55.23-91.07ZM77.98-22.82C85.25-22.82 92.22-19.93 97.34-14.79C102.38-9.77 105.25-2.99 105.38 4.11L105.38 4.58L105.38 15.96C105.38 18.53 103.3 20.61 100.73 20.61C98.23 20.61 96.2 18.64 96.08 16.17L96.08 15.96L96.08 4.58C96.08-0.22 94.17-4.82 90.77-8.22C87.48-11.51 83.05-13.4 78.42-13.52L77.98-13.52L32.48-13.52C27.68-13.52 23.08-11.61 19.67-8.21C16.39-4.93 14.5-0.5 14.39 4.14L14.38 4.58L14.38 15.96C14.38 18.53 12.3 20.61 9.73 20.61C7.23 20.61 5.2 18.64 5.08 16.17L5.08 15.96L5.08 4.58C5.08-2.69 7.97-9.66 13.1-14.79C18.13-19.82 24.9-22.69 32-22.82L32.48-22.82L77.98-22.82ZM55.23-81.77C65.22-81.77 73.33-73.66 73.33-63.67C73.33-53.67 65.23-45.57 55.23-45.57C45.23-45.57 37.13-53.67 37.13-63.67C37.13-73.67 45.23-81.77 55.23-81.77Z"/>
  </g>
  <g id="Medium-L" transform="matrix(1 0 0 1 1675.04 1556)">
   <path class="hierarchical-0:secondary SFSymbolsPreview4D4D4D" d="M90.52-86.72C91.09-88.94 93.36-90.27 95.58-89.7C101.36-88.21 106.49-84.85 110.15-80.14C113.81-75.42 115.8-69.62 115.8-63.64C115.8-57.67 113.81-51.86 110.15-47.14C106.48-42.43 101.35-39.06 95.57-37.58C93.35-37.01 91.09-38.35 90.52-40.57C89.97-42.73 91.21-44.92 93.31-45.57L93.51-45.62C97.51-46.64 101.06-48.97 103.59-52.24C106.12-55.5 107.5-59.51 107.5-63.64C107.5-67.77 106.12-71.79 103.59-75.04C101.15-78.19 97.76-80.46 93.93-81.55L93.5-81.66C91.28-82.23 89.95-84.5 90.52-86.72ZM113.27-18.47C113.84-20.69 116.11-22.02 118.33-21.45C124.09-19.96 129.2-16.6 132.86-11.88C136.41-7.3 138.38-1.72 138.49 4.05L138.5 4.58L138.5 15.96C138.5 18.25 136.64 20.11 134.35 20.11C132.13 20.11 130.31 18.36 130.2 16.17L130.2 15.96L130.2 4.58C130.2 0.46 128.83-3.53 126.3-6.8C123.77-10.06 120.24-12.38 116.25-13.41C114.03-13.99 112.7-16.25 113.27-18.47Z"/>
   <path class="hierarchical-1:primary SFSymbolsPreview212121" d="M54.73-90.57C39.87-90.57 27.83-78.53 27.83-63.67C27.83-48.81 39.87-36.77 54.73-36.77C69.59-36.77 81.63-48.81 81.63-63.67C81.63-78.52 69.58-90.57 54.73-90.57ZM77.48-22.32C84.61-22.32 91.46-19.48 96.49-14.44C101.43-9.51 104.25-2.86 104.38 4.1L104.38 4.58L104.38 15.96C104.38 18.25 102.52 20.11 100.23 20.11C98.01 20.11 96.19 18.36 96.09 16.17L96.08 15.96L96.08 4.58C96.08-0.35 94.12-5.08 90.62-8.57C87.24-11.96 82.69-13.9 77.91-14.02L77.48-14.02L31.98-14.02C27.04-14.02 22.32-12.06 18.82-8.56C15.44-5.19 13.5-0.63 13.39 4.14L13.38 4.58L13.38 15.96C13.38 18.25 11.52 20.11 9.23 20.11C7.01 20.11 5.19 18.36 5.09 16.17L5.08 15.96L5.08 4.58C5.08-2.56 7.91-9.4 12.96-14.43C17.89-19.37 24.54-22.19 31.5-22.32L31.98-22.32L77.48-22.32ZM54.73-82.27C65-82.27 73.33-73.94 73.33-63.67C73.33-53.4 65-45.07 54.73-45.07C44.45-45.07 36.13-53.39 36.13-63.67C36.13-73.94 44.46-82.27 54.73-82.27Z"/>
  </g>
  <g id="Regular-L" transform="matrix(1 0 0 1 1378.98 1556)">
   <path class="hierarchical-0:secondary SFSymbolsPreview4D4D4D" d="M90.5-86.55C90.98-88.43 92.89-89.55 94.76-89.07C100.41-87.62 105.41-84.34 108.98-79.74C112.56-75.14 114.5-69.47 114.5-63.64C114.5-57.81 112.56-52.15 108.98-47.54C105.41-42.94 100.4-39.65 94.76-38.21C92.88-37.73 90.98-38.86 90.5-40.73C90.04-42.54 91.08-44.39 92.84-44.94L93.02-44.99C97.16-46.05 100.83-48.46 103.46-51.84C106.08-55.21 107.5-59.37 107.5-63.64C107.5-67.92 106.08-72.07 103.46-75.44C100.84-78.82 97.16-81.22 93.02-82.29C91.14-82.77 90.02-84.68 90.5-86.55ZM113.25-18.31C113.73-20.18 115.64-21.3 117.51-20.82C123.14-19.37 128.13-16.08 131.7-11.48C135.16-7.02 137.08-1.57 137.19 4.05L137.2 4.58L137.2 15.96C137.2 17.89 135.63 19.46 133.7 19.46C131.83 19.46 130.3 17.99 130.21 16.15L130.2 15.96L130.2 4.58C130.2 0.32 128.78-3.82 126.17-7.19C123.55-10.57 119.89-12.98 115.76-14.04C113.89-14.53 112.77-16.43 113.25-18.31Z"/>
   <path class="hierarchical-1:primary SFSymbolsPreview212121" d="M54.08-89.92C39.58-89.92 27.83-78.17 27.83-63.67C27.83-49.17 39.58-37.42 54.08-37.42C68.58-37.42 80.33-49.17 80.33-63.67C80.33-78.16 68.57-89.92 54.08-89.92ZM76.83-21.67C83.79-21.67 90.47-18.9 95.38-13.98C100.2-9.17 102.95-2.68 103.08 4.11L103.08 4.58L103.08 15.96C103.08 17.89 101.51 19.46 99.58 19.46C97.71 19.46 96.18 18 96.08 16.15L96.08 15.96L96.08 4.58C96.08-0.52 94.05-5.42 90.43-9.03C86.93-12.54 82.21-14.55 77.27-14.66L76.83-14.67L31.33-14.67C26.22-14.67 21.33-12.64 17.71-9.02C14.21-5.53 12.2-0.81 12.08 4.14L12.08 4.58L12.08 15.96C12.08 17.89 10.51 19.46 8.58 19.46C6.71 19.46 5.18 18 5.08 16.15L5.08 15.96L5.08 4.58C5.08-2.39 7.84-9.07 12.76-13.97C17.58-18.79 24.06-21.54 30.86-21.67L31.33-21.67L76.83-21.67ZM54.08-82.92C64.71-82.92 73.33-74.3 73.33-63.67C73.33-53.04 64.71-44.42 54.08-44.42C43.44-44.42 34.83-53.03 34.83-63.67C34.83-74.3 43.45-82.92 54.08-82.92Z"/>
  </g>
  <g id="Light-L" transform="matrix(1 0 0 1 1083.07 1556)">
   <path class="hierarchical-0:secondary SFSymbolsPreview4D4D4D" d="M90.48-86.35C90.85-87.8 92.32-88.66 93.76-88.29C99.24-86.88 104.09-83.7 107.55-79.24C111.02-74.78 112.9-69.29 112.9-63.64C112.9-57.99 111.02-52.49 107.55-48.03C104.08-43.57 99.23-40.38 93.76-38.98C92.31-38.61 90.84-39.48 90.47-40.93C90.11-42.37 90.98-43.84 92.42-44.21C96.73-45.31 100.55-47.83 103.29-51.34C106.02-54.86 107.5-59.19 107.5-63.64C107.5-68.09 106.02-72.42 103.29-75.93C100.56-79.44 96.74-81.95 92.42-83.06C90.97-83.44 90.1-84.91 90.48-86.35ZM113.23-18.1C113.6-19.55 115.07-20.42 116.52-20.04C121.97-18.63 126.8-15.45 130.27-10.99C133.62-6.66 135.49-1.38 135.6 4.07L135.6 4.58L135.6 15.96C135.6 17.45 134.39 18.66 132.9 18.66C131.47 18.66 130.29 17.54 130.21 16.13L130.2 15.96L130.2 4.58C130.2 0.15 128.72-4.16 126-7.68C123.27-11.2 119.46-13.71 115.17-14.81C113.72-15.19 112.85-16.66 113.23-18.1Z"/>
   <path class="hierarchical-1:primary SFSymbolsPreview212121" d="M53.28-89.12C39.22-89.12 27.83-77.72 27.83-63.67C27.83-49.61 39.22-38.22 53.28-38.22C67.33-38.22 78.73-49.61 78.73-63.67C78.73-77.72 67.33-89.12 53.28-89.12ZM76.03-20.87C82.78-20.87 89.26-18.18 94.02-13.41C98.69-8.75 101.36-2.46 101.48 4.12L101.48 4.58L101.48 15.96C101.48 17.45 100.27 18.66 98.78 18.66C97.35 18.66 96.17 17.54 96.09 16.13L96.08 15.96L96.08 4.58C96.08-0.73 93.96-5.84 90.2-9.59C86.55-13.25 81.63-15.35 76.47-15.46L76.03-15.47L30.53-15.47C25.21-15.47 20.12-13.36 16.35-9.59C12.69-5.94 10.6-1.02 10.49 4.14L10.48 4.58L10.48 15.96C10.48 17.45 9.27 18.66 7.78 18.66C6.35 18.66 5.17 17.54 5.09 16.13L5.08 15.96L5.08 4.58C5.08-2.17 7.76-8.65 12.53-13.41C17.2-18.08 23.48-20.75 30.07-20.86L30.53-20.87L76.03-20.87ZM53.28-83.72C64.35-83.72 73.33-74.74 73.33-63.67C73.33-52.59 64.35-43.62 53.28-43.62C42.2-43.62 33.23-52.59 33.23-63.67C33.23-74.74 42.21-83.72 53.28-83.72Z"/>
  </g>
  <g id="Thin-L" transform="matrix(1 0 0 1 787.405 1556)">
   <path class="hierarchical-0:secondary SFSymbolsPreview4D4D4D" d="M90.444-86.09C90.671-86.97 91.571-87.5 92.453-87.28C97.707-85.93 102.355-82.88 105.673-78.6C108.995-74.32 110.799-69.06 110.799-63.64C110.799-58.22 108.995-52.96 105.673-48.68C102.349-44.4 97.696-41.34 92.45-40C91.567-39.78 90.669-40.31 90.443-41.19C90.218-42.07 90.751-42.97 91.634-43.2C96.168-44.36 100.192-47 103.067-50.7C105.939-54.4 107.499-58.95 107.499-63.64C107.499-68.32 105.939-72.88 103.067-76.58C100.198-80.27 96.177-82.91 91.631-84.08C90.748-84.31 90.217-85.21 90.444-86.09ZM113.194-17.84C113.422-18.72 114.322-19.26 115.204-19.03C120.435-17.68 125.074-14.62 128.39-10.35C131.599-6.2 133.387-1.15 133.498 4.07L133.504 4.58L133.504 15.96C133.504 16.87 132.765 17.61 131.854 17.61C130.991 17.61 130.282 16.95 130.21 16.1L130.204 15.96L130.204 4.58C130.201-0.09 128.647-4.63 125.781-8.33C122.915-12.02 118.903-14.66 114.38-15.83C113.497-16.06 112.967-16.96 113.194-17.84Z"/>
   <path class="hierarchical-1:primary SFSymbolsPreview212121" d="M52.23-88.07C38.755-88.07 27.83-77.14 27.83-63.67C27.83-50.19 38.752-39.27 52.23-39.27C65.707-39.27 76.63-50.19 76.63-63.67C76.63-77.14 65.704-88.07 52.23-88.07ZM74.98-19.82C81.451-19.82 87.658-17.25 92.232-12.67C96.698-8.21 99.256-2.19 99.376 4.12L99.38 4.58L99.38 15.96C99.38 16.87 98.641 17.61 97.73 17.61C96.867 17.61 96.158 16.95 96.086 16.1L96.08 15.96L96.08 4.58C96.08-1.01 93.856-6.38 89.899-10.33C86.049-14.19 80.864-16.4 75.433-16.52L74.98-16.52L29.48-16.52C23.885-16.52 18.517-14.29 14.559-10.33C10.711-6.49 8.502-1.3 8.385 4.13L8.38 4.58L8.38 15.96C8.38 16.87 7.641 17.61 6.73 17.61C5.867 17.61 5.158 16.95 5.086 16.1L5.08 15.96L5.08 4.58C5.08-1.89 7.652-8.1 12.226-12.67C16.693-17.14 22.714-19.7 29.018-19.82L29.48-19.82L74.98-19.82ZM52.23-84.77C63.881-84.77 73.33-75.32 73.33-63.67C73.33-52.01 63.885-42.57 52.23-42.57C40.575-42.57 31.13-52.01 31.13-63.67C31.13-75.32 40.578-84.77 52.23-84.77Z"/>
  </g>
  <g id="Ultralight-L" transform="matrix(1 0 0 1 491.244 1556)">
   <path class="hierarchical-0:secondary SFSymbolsPreview4D4D4D" d="M90.426-85.95C90.578-86.54 91.178-86.9 91.766-86.74C96.901-85.42 101.446-82.44 104.689-78.26C107.936-74.08 109.699-68.93 109.699-63.64C109.699-58.34 107.936-53.2 104.689-49.01C101.44-44.83 96.891-41.84 91.764-40.53C91.175-40.38 90.576-40.74 90.426-41.33C90.276-41.92 90.631-42.51 91.219-42.66C95.873-43.85 100.001-46.56 102.951-50.36C105.898-54.16 107.499-58.83 107.499-63.64C107.499-68.45 105.898-73.12 102.951-76.91C100.007-80.71 95.881-83.41 91.217-84.61C90.629-84.77 90.275-85.36 90.426-85.95ZM113.177-17.7C113.328-18.29 113.928-18.65 114.517-18.49C119.63-17.17 124.164-14.19 127.405-10.01C130.542-5.96 132.289-1.02 132.398 4.09L132.404 4.58L132.404 15.96C132.404 16.57 131.911 17.06 131.304 17.06C130.737 17.06 130.27 16.63 130.21 16.08L130.204 15.96L130.204 4.58C130.201-0.21 128.606-4.87 125.666-8.66C122.724-12.46 118.608-15.17 113.967-16.36C113.379-16.52 113.025-17.12 113.177-17.7Z"/>
   <path class="hierarchical-1:primary SFSymbolsPreview212121" d="M51.68-87.52C38.509-87.52 27.83-76.84 27.83-63.67C27.83-50.49 38.506-39.82 51.68-39.82C64.853-39.82 75.53-50.49 75.53-63.67C75.53-76.84 64.85-87.52 51.68-87.52ZM74.43-19.27C80.754-19.27 86.822-16.75 91.293-12.28C95.659-7.92 98.159-2.03 98.276 4.13L98.28 4.58L98.28 15.96C98.28 16.57 97.787 17.06 97.18 17.06C96.613 17.06 96.146 16.63 96.086 16.08L96.08 15.96L96.08 4.58C96.08-1.16 93.797-6.67 89.738-10.72C85.785-14.68 80.459-16.95 74.883-17.06L74.43-17.07L28.93-17.07C23.188-17.07 17.681-14.79 13.62-10.72C9.669-6.78 7.401-1.45 7.285 4.13L7.28 4.58L7.28 15.96C7.28 16.57 6.787 17.06 6.18 17.06C5.613 17.06 5.146 16.63 5.086 16.08L5.08 15.96L5.08 4.58C5.08-1.74 7.594-7.81 12.065-12.28C16.431-16.65 22.316-19.15 28.479-19.27L28.93-19.27L74.43-19.27ZM51.68-85.32C63.635-85.32 73.33-75.62 73.33-63.67C73.33-51.71 63.638-42.02 51.68-42.02C39.721-42.02 30.03-51.71 30.03-63.67C30.03-75.62 39.724-85.32 51.68-85.32Z"/>
  </g>
  <g id="Black-M" transform="matrix(1 0 0 1 2872.41 1126)">
   <path class="hierarchical-0:secondary SFSymbolsPreview4D4D4D" d="M72.23-76.74C73.2-80.54 77.07-82.83 80.87-81.86C86.24-80.49 91-77.37 94.41-72.99C97.8-68.6 99.64-63.22 99.64-57.69C99.64-52.15 97.8-46.77 94.41-42.41C91.01-38.02 86.24-34.89 80.87-33.52C77.07-32.55 73.2-34.85 72.23-38.64C71.28-42.36 73.46-46.15 77.12-47.22L77.35-47.28C79.67-47.87 81.72-49.21 83.18-51.1C84.65-52.99 85.44-55.31 85.44-57.69C85.44-60.07 84.64-62.4 83.18-64.29C81.8-66.07 79.87-67.37 77.7-68.01L77.35-68.1C73.55-69.07 71.26-72.94 72.23-76.74ZM90.09-23.21C91.07-27 94.94-29.29 98.74-28.3C104.09-26.92 108.84-23.8 112.23-19.43C115.51-15.19 117.34-10.01 117.44-4.66L117.45-4.16L117.45 4.76C117.45 8.68 114.27 11.86 110.35 11.86C106.51 11.86 103.38 8.81 103.25 5L103.25 4.76L103.25-4.16C103.25-6.54 102.46-8.85 101-10.74C99.62-12.52 97.7-13.82 95.53-14.46L95.18-14.56C91.39-15.54 89.1-19.41 90.09-23.21Z"/>
   <path class="hierarchical-1:primary SFSymbolsPreview212121" d="M47.88-82.66C34.1-82.66 22.93-71.49 22.93-57.71C22.93-43.93 34.1-32.76 47.88-32.76C61.66-32.76 72.83-43.93 72.83-57.71C72.83-71.49 61.66-82.66 47.88-82.66ZM65.73-29.11C72.34-29.11 78.68-26.49 83.37-21.81C87.94-17.24 90.56-11.08 90.68-4.62L90.68-4.16L90.68 4.76C90.68 8.68 87.5 11.86 83.58 11.86C79.74 11.86 76.61 8.81 76.48 5L76.48 4.76L76.48-4.16C76.48-7.02 75.35-9.75 73.34-11.76C71.4-13.7 68.8-14.82 66.07-14.9L65.73-14.91L30.03-14.91C27.17-14.91 24.43-13.78 22.43-11.78C20.49-9.84 19.37-7.23 19.29-4.5L19.28-4.16L19.28 4.76C19.28 8.68 16.1 11.86 12.18 11.86C8.34 11.86 5.21 8.81 5.08 5L5.08 4.76L5.08-4.16C5.08-10.78 7.7-17.12 12.39-21.82C16.96-26.38 23.12-28.99 29.57-29.11L30.03-29.11L65.73-29.11ZM47.88-68.46C53.82-68.46 58.63-63.65 58.63-57.71C58.63-51.77 53.82-46.96 47.88-46.96C41.94-46.96 37.13-51.77 37.13-57.71C37.13-63.65 41.94-68.46 47.88-68.46Z"/>
  </g>
  <g id="Heavy-M" transform="matrix(1 0 0 1 2576.55 1126)">
   <path class="hierarchical-0:secondary SFSymbolsPreview4D4D4D" d="M72.2-76.44C73.06-79.78 76.46-81.8 79.81-80.95C84.99-79.62 89.6-76.61 92.88-72.38C96.16-68.14 97.94-62.95 97.94-57.6C97.94-52.25 96.16-47.05 92.88-42.84C89.6-38.6 85-35.58 79.81-34.26C76.46-33.4 73.06-35.42 72.2-38.77C71.37-42.04 73.28-45.36 76.49-46.31L76.71-46.37C79.21-47 81.42-48.45 83-50.49C84.58-52.53 85.44-55.03 85.44-57.6C85.44-60.17 84.58-62.68 83-64.72C81.5-66.65 79.42-68.06 77.07-68.74L76.71-68.84C73.37-69.69 71.35-73.09 72.2-76.44ZM90.06-22.9C90.92-26.25 94.33-28.26 97.67-27.39C102.84-26.05 107.43-23.04 110.7-18.82C113.87-14.73 115.64-9.73 115.74-4.57L115.75-4.07L115.75 4.85C115.75 8.3 112.95 11.1 109.5 11.1C106.12 11.1 103.37 8.42 103.25 5.08L103.25 4.85L103.25-4.07C103.25-6.64 102.39-9.14 100.82-11.17C99.33-13.1 97.25-14.5 94.9-15.19L94.55-15.29C91.2-16.15 89.19-19.56 90.06-22.9Z"/>
   <path class="hierarchical-1:primary SFSymbolsPreview212121" d="M47.03-81.72C33.72-81.72 22.93-70.93 22.93-57.62C22.93-44.31 33.72-33.52 47.03-33.52C60.34-33.52 71.13-44.31 71.13-57.62C71.13-70.93 60.34-81.72 47.03-81.72ZM64.88-28.17C71.26-28.17 77.39-25.63 81.92-21.12C86.33-16.7 88.86-10.76 88.98-4.53L88.98-4.07L88.98 4.85C88.98 8.3 86.18 11.1 82.73 11.1C79.35 11.1 76.6 8.42 76.48 5.08L76.48 4.85L76.48-4.07C76.48-7.15 75.26-10.1 73.09-12.27C70.99-14.36 68.18-15.57 65.23-15.66L64.88-15.67L29.18-15.67C26.1-15.67 23.14-14.45 20.98-12.29C18.88-10.19 17.67-7.38 17.59-4.42L17.58-4.07L17.58 4.85C17.58 8.3 14.78 11.1 11.33 11.1C7.95 11.1 5.2 8.42 5.08 5.08L5.08 4.85L5.08-4.07C5.08-10.46 7.61-16.59 12.14-21.13C16.55-25.53 22.5-28.05 28.72-28.17L29.18-28.17L64.88-28.17ZM47.03-69.22C53.44-69.22 58.63-64.03 58.63-57.62C58.63-51.21 53.44-46.02 47.03-46.02C40.62-46.02 35.43-51.21 35.43-57.62C35.43-64.03 40.62-69.22 47.03-69.22Z"/>
  </g>
  <g id="Bold-M" transform="matrix(1 0 0 1 2280.79 1126)">
   <path class="hierarchical-0:secondary SFSymbolsPreview4D4D4D" d="M72.17-76.12C72.9-78.96 75.78-80.67 78.62-79.95C83.6-78.67 88.02-75.77 91.18-71.71C94.33-67.65 96.04-62.66 96.04-57.52C96.04-52.37 94.33-47.38 91.18-43.32C88.03-39.26 83.6-36.37 78.62-35.09C75.78-34.37 72.9-36.08 72.17-38.92C71.47-41.68 73.08-44.49 75.78-45.31L76-45.37C78.7-46.06 81.1-47.62 82.8-49.82C84.51-52.02 85.44-54.73 85.44-57.52C85.44-60.3 84.51-63.01 82.8-65.21C81.17-67.32 78.9-68.85 76.35-69.58L76-69.67C73.16-70.4 71.45-73.28 72.17-76.12ZM90.03-22.59C90.76-25.42 93.65-27.12 96.49-26.39C101.46-25.11 105.87-22.21 109-18.16C112.04-14.24 113.74-9.44 113.84-4.49L113.85-3.99L113.85 4.93C113.85 7.86 111.48 10.23 108.55 10.23C105.7 10.23 103.37 7.98 103.25 5.15L103.25 4.93L103.25-3.99C103.25-6.77 102.32-9.47 100.62-11.67C99-13.76 96.75-15.29 94.2-16.03L93.83-16.13C91-16.86 89.3-19.75 90.03-22.59Z"/>
   <path class="hierarchical-1:primary SFSymbolsPreview212121" d="M46.08-80.69C33.29-80.69 22.93-70.33 22.93-57.54C22.93-44.75 33.29-34.39 46.08-34.39C58.87-34.39 69.23-44.75 69.23-57.54C69.23-70.33 58.87-80.69 46.08-80.69ZM63.93-27.14C70.07-27.14 75.95-24.7 80.29-20.36C84.53-16.14 86.96-10.43 87.08-4.45L87.08-3.99L87.08 4.93C87.08 7.86 84.71 10.23 81.78 10.23C78.93 10.23 76.6 7.98 76.48 5.15L76.48 4.93L76.48-3.99C76.48-7.32 75.16-10.51 72.8-12.86C70.53-15.13 67.48-16.44 64.29-16.53L63.93-16.54L28.23-16.54C24.9-16.54 21.7-15.22 19.35-12.86C17.08-10.6 15.78-7.55 15.68-4.35L15.68-3.99L15.68 4.93C15.68 7.86 13.31 10.23 10.38 10.23C7.53 10.23 5.2 7.98 5.08 5.15L5.08 4.93L5.08-3.99C5.08-10.13 7.52-16.02 11.85-20.36C16.09-24.59 21.79-27.02 27.77-27.13L28.23-27.14L63.93-27.14ZM46.08-70.09C53.01-70.09 58.63-64.47 58.63-57.54C58.63-50.61 53.01-44.99 46.08-44.99C39.15-44.99 33.53-50.61 33.53-57.54C33.53-64.47 39.15-70.09 46.08-70.09Z"/>
  </g>
  <g id="Semibold-M" transform="matrix(1 0 0 1 1984.72 1126)">
   <path class="hierarchical-0:secondary SFSymbolsPreview4D4D4D" d="M72.16-75.96C72.8-78.45 75.33-79.95 77.82-79.32C82.66-78.08 86.95-75.26 90.01-71.31C93.08-67.37 94.74-62.51 94.74-57.52C94.74-52.52 93.08-47.67 90.01-43.72C86.95-39.77 82.66-36.96 77.82-35.72C75.33-35.09 72.8-36.59 72.16-39.08C71.55-41.5 72.95-43.96 75.31-44.68L75.52-44.74C78.36-45.46 80.87-47.11 82.67-49.42C84.46-51.74 85.44-54.58 85.44-57.52C85.44-60.45 84.46-63.29 82.67-65.61C80.94-67.83 78.57-69.44 75.89-70.2L75.52-70.3C73.03-70.94 71.53-73.47 72.16-75.96ZM90.02-22.42C90.66-24.91 93.2-26.4 95.68-25.76C100.51-24.51 104.78-21.7 107.84-17.76C110.79-13.96 112.44-9.3 112.55-4.47L112.56-3.99L112.56 4.93C112.56 7.5 110.48 9.58 107.91 9.58C105.41 9.58 103.38 7.61 103.26 5.14L103.26 4.93L103.26-3.98C103.25-6.92 102.28-9.76 100.5-12.06C98.7-14.37 96.19-16.02 93.36-16.76C90.87-17.4 89.38-19.94 90.02-22.42Z"/>
   <path class="hierarchical-1:primary SFSymbolsPreview212121" d="M45.43-80.04C33-80.04 22.93-69.97 22.93-57.54C22.93-45.11 33-35.04 45.43-35.04C57.86-35.04 67.93-45.11 67.93-57.54C67.93-69.97 57.86-80.04 45.43-80.04ZM63.28-26.49C69.26-26.49 74.98-24.12 79.18-19.9C83.3-15.8 85.66-10.26 85.78-4.45L85.78-3.99L85.78 4.93C85.78 7.5 83.7 9.58 81.13 9.58C78.63 9.58 76.6 7.61 76.48 5.14L76.48 4.93L76.48-3.99C76.48-7.49 75.09-10.85 72.61-13.33C70.23-15.71 67.02-17.09 63.65-17.18L63.28-17.19L27.58-17.19C24.08-17.19 20.72-15.8 18.24-13.32C15.86-10.94 14.48-7.73 14.39-4.36L14.38-3.99L14.38 4.93C14.38 7.5 12.3 9.58 9.73 9.58C7.23 9.58 5.2 7.61 5.08 5.14L5.08 4.93L5.08-3.99C5.08-9.96 7.45-15.69 11.67-19.9C15.78-24.01 21.32-26.37 27.12-26.48L27.58-26.49L63.28-26.49ZM45.43-70.74C52.72-70.74 58.63-64.83 58.63-57.54C58.63-50.25 52.72-44.34 45.43-44.34C38.14-44.34 32.23-50.25 32.23-57.54C32.23-64.83 38.14-70.74 45.43-70.74Z"/>
  </g>
  <g id="Medium-M" transform="matrix(1 0 0 1 1688.51 1126)">
   <path class="hierarchical-0:secondary SFSymbolsPreview4D4D4D" d="M72.15-75.84C72.72-78.06 74.98-79.4 77.2-78.83C81.93-77.62 86.12-74.87 89.12-71C92.11-67.15 93.74-62.4 93.74-57.52C93.74-52.63 92.11-47.88 89.12-44.02C86.12-40.17 81.93-37.42 77.2-36.21C74.98-35.64 72.72-36.98 72.15-39.2C71.58-41.42 72.92-43.68 75.14-44.25C78.09-45 80.7-46.71 82.56-49.11C84.43-51.52 85.44-54.47 85.44-57.52C85.44-60.56 84.43-63.51 82.56-65.91C80.69-68.32 78.08-70.04 75.14-70.79C72.92-71.36 71.58-73.62 72.15-75.84ZM90-22.3C90.58-24.52 92.84-25.85 95.06-25.28C99.78-24.06 103.96-21.31 106.95-17.45C109.83-13.74 111.44-9.19 111.55-4.48L111.56-3.99L111.56 4.93C111.56 7.22 109.7 9.08 107.41 9.08C105.19 9.08 103.37 7.33 103.26 5.14L103.26 4.93L103.26-3.98C103.25-7.03 102.24-9.98 100.39-12.36C98.61-14.66 96.15-16.33 93.36-17.14L92.98-17.24C90.76-17.81 89.43-20.08 90-22.3Z"/>
   <path class="hierarchical-1:primary SFSymbolsPreview212121" d="M44.93-79.54C38.97-79.54 33.57-77.17 29.61-73.33L29.14-72.86C25.29-68.89 22.93-63.49 22.93-57.54C22.93-51.58 25.29-46.18 29.14-42.22L29.61-41.75C33.57-37.9 38.97-35.54 44.93-35.54C50.88-35.54 56.29-37.9 60.25-41.75L60.72-42.22C64.56-46.18 66.93-51.58 66.93-57.54C66.93-63.49 64.56-68.89 60.72-72.86L60.25-73.33C56.29-77.17 50.88-79.54 44.93-79.54ZM62.78-25.99C68.62-25.99 74.22-23.67 78.33-19.55C82.35-15.53 84.66-10.12 84.78-4.44L84.78-3.99L84.78 4.93C84.78 7.22 82.92 9.08 80.63 9.08C78.41 9.08 76.59 7.33 76.48 5.14L76.48 4.93L76.48-3.99C76.48-7.63 75.04-11.11 72.46-13.68C69.99-16.16 66.66-17.59 63.16-17.68L62.78-17.69L27.08-17.69C23.45-17.69 19.97-16.24 17.39-13.67C14.91-11.2 13.48-7.87 13.38-4.36L13.38-3.99L13.38 4.93C13.38 7.22 11.52 9.08 9.23 9.08C7.01 9.08 5.19 7.33 5.08 5.14L5.08 4.93L5.08-3.99C5.08-9.83 7.4-15.43 11.53-19.54C15.55-23.56 20.96-25.87 26.63-25.98L27.08-25.99L62.78-25.99ZM44.93-71.24C52.5-71.24 58.63-65.11 58.63-57.54C58.63-49.97 52.5-43.84 44.93-43.84C37.36-43.84 31.23-49.97 31.23-57.54C31.23-65.11 37.36-71.24 44.93-71.24Z"/>
  </g>
  <g id="Regular-M" transform="matrix(1 0 0 1 1392.45 1126)">
   <path class="hierarchical-0:secondary SFSymbolsPreview4D4D4D" d="M72.13-75.68C72.61-77.55 74.51-78.68 76.39-78.2C80.97-77.03 85.04-74.35 87.96-70.61C90.86-66.86 92.44-62.26 92.44-57.52C92.44-52.77 90.86-48.17 87.96-44.42C85.05-40.68 80.98-38.01 76.39-36.84C74.51-36.36 72.61-37.49 72.13-39.36C71.65-41.24 72.78-43.14 74.65-43.62C77.74-44.41 80.47-46.2 82.43-48.72C84.38-51.23 85.44-54.33 85.44-57.52C85.44-60.7 84.38-63.8 82.43-66.31C80.47-68.84 77.73-70.63 74.65-71.42C72.78-71.9 71.65-73.8 72.13-75.68ZM89.98-22.14C90.47-24.01 92.37-25.13 94.25-24.65C98.83-23.47 102.88-20.8 105.79-17.06C108.58-13.45 110.14-9.04 110.25-4.46L110.26-3.99L110.26 4.93C110.26 6.86 108.69 8.43 106.76 8.43C104.89 8.43 103.36 6.96 103.27 5.12L103.26 4.93L103.26-3.98C103.25-7.18 102.2-10.26 100.26-12.76C98.3-15.28 95.57-17.08 92.49-17.87C90.62-18.36 89.5-20.27 89.98-22.14Z"/>
   <path class="hierarchical-1:primary SFSymbolsPreview212121" d="M44.28-78.89C32.49-78.89 22.93-69.33 22.93-57.54C22.93-45.75 32.49-36.19 44.28-36.19C56.07-36.19 65.63-45.75 65.63-57.54C65.63-69.33 56.07-78.89 44.28-78.89ZM62.13-25.34C67.8-25.34 73.23-23.09 77.22-19.09C81.12-15.2 83.36-9.95 83.48-4.44L83.48-3.99L83.48 4.93C83.48 6.86 81.91 8.43 79.98 8.43C78.11 8.43 76.59 6.97 76.49 5.12L76.48 4.93L76.48-3.99C76.48-7.8 74.97-11.45 72.27-14.14C69.68-16.74 66.19-18.23 62.52-18.33L62.13-18.34L26.43-18.34C22.63-18.34 18.98-16.83 16.28-14.13C13.68-11.54 12.19-8.05 12.09-4.38L12.08-3.99L12.08 4.93C12.08 6.86 10.51 8.43 8.58 8.43C6.71 8.43 5.19 6.97 5.09 5.12L5.08 4.93L5.08-3.99C5.08-9.66 7.33-15.09 11.34-19.08C15.24-22.98 20.49-25.22 25.98-25.34L26.43-25.34L62.13-25.34ZM44.28-71.89C52.21-71.89 58.63-65.47 58.63-57.54C58.63-49.61 52.21-43.19 44.28-43.19C36.35-43.19 29.93-49.61 29.93-57.54C29.93-65.47 36.35-71.89 44.28-71.89Z"/>
  </g>
  <g id="Light-M" transform="matrix(1 0 0 1 1096.54 1126)">
   <path class="hierarchical-0:secondary SFSymbolsPreview4D4D4D" d="M72.1-75.48C72.47-76.92 73.94-77.79 75.39-77.43C79.8-76.3 83.72-73.72 86.52-70.11C89.32-66.51 90.84-62.08 90.84-57.52C90.84-52.95 89.32-48.52 86.52-44.91C83.72-41.31 79.81-38.74 75.39-37.61C73.94-37.24 72.47-38.12 72.1-39.56C71.74-41.01 72.61-42.48 74.05-42.85C77.31-43.68 80.19-45.57 82.26-48.22C84.32-50.88 85.44-54.15 85.44-57.52C85.44-60.88 84.32-64.15 82.26-66.8C80.19-69.47 77.3-71.36 74.05-72.19C72.61-72.56 71.74-74.03 72.1-75.48ZM89.96-21.94C90.33-23.38 91.8-24.25 93.25-23.87C97.65-22.73 101.56-20.17 104.35-16.57C107.04-13.1 108.54-8.86 108.65-4.46L108.66-3.99L108.66 4.93C108.66 6.42 107.45 7.63 105.96 7.63C104.53 7.63 103.35 6.51 103.26 5.1L103.26 4.93L103.26-3.98C103.25-7.35 102.14-10.61 100.09-13.25C98.02-15.91 95.15-17.81 91.89-18.65C90.45-19.02 89.58-20.49 89.96-21.94Z"/>
   <path class="hierarchical-1:primary SFSymbolsPreview212121" d="M43.48-78.09C32.13-78.09 22.93-68.89 22.93-57.54C22.93-46.19 32.13-36.99 43.48-36.99C54.83-36.99 64.03-46.19 64.03-57.54C64.03-68.89 54.83-78.09 43.48-78.09ZM61.33-24.54C66.79-24.54 72.02-22.37 75.86-18.52C79.61-14.78 81.76-9.74 81.87-4.44L81.88-3.99L81.88 4.93C81.88 6.42 80.67 7.63 79.18 7.63C77.75 7.63 76.57 6.51 76.49 5.1L76.48 4.93L76.48-3.99C76.48-8.01 74.88-11.86 72.04-14.7C69.3-17.45 65.61-19.03 61.73-19.13L61.33-19.14L25.63-19.14C21.61-19.14 17.76-17.54 14.92-14.7C12.17-11.96 10.59-8.27 10.49-4.39L10.48-3.99L10.48 4.93C10.48 6.42 9.27 7.63 7.78 7.63C6.35 7.63 5.17 6.51 5.09 5.1L5.08 4.93L5.08-3.99C5.08-9.45 7.25-14.68 11.1-18.52C14.85-22.27 19.89-24.42 25.18-24.53L25.63-24.54L61.33-24.54ZM43.48-72.69C51.85-72.69 58.63-65.91 58.63-57.54C58.63-49.17 51.85-42.39 43.48-42.39C35.11-42.39 28.33-49.17 28.33-57.54C28.33-65.91 35.11-72.69 43.48-72.69Z"/>
  </g>
  <g id="Thin-M" transform="matrix(1 0 0 1 800.879 1126)">
   <path class="hierarchical-0:secondary SFSymbolsPreview4D4D4D" d="M72.069-75.22C72.294-76.1 73.193-76.63 74.076-76.41C78.265-75.34 81.985-72.89 84.644-69.47C87.298-66.05 88.74-61.85 88.74-57.52C88.74-53.18 87.299-48.98 84.644-45.56C81.988-42.14 78.27-39.7 74.076-38.63C73.193-38.4 72.294-38.94 72.069-39.82C71.843-40.7 72.377-41.6 73.259-41.83C76.744-42.72 79.832-44.74 82.037-47.58C84.243-50.42 85.44-53.92 85.44-57.52C85.44-61.11 84.242-64.61 82.037-67.45C79.827-70.29 76.737-72.32 73.259-73.21C72.377-73.44 71.843-74.33 72.069-75.22ZM89.921-21.67C90.149-22.55 91.049-23.09 91.931-22.86C96.118-21.77 99.823-19.34 102.466-15.92C105.023-12.63 106.452-8.6 106.551-4.44L106.556-3.99L106.556 4.93C106.556 5.84 105.817 6.58 104.906 6.58C104.043 6.58 103.334 5.92 103.262 5.07L103.256 4.93L103.256-3.99C103.253-7.58 102.059-11.07 99.858-13.9C97.661-16.74 94.584-18.76 91.105-19.66C90.223-19.89 89.693-20.79 89.921-21.67Z"/>
   <path class="hierarchical-1:primary SFSymbolsPreview212121" d="M42.43-77.04C31.66-77.04 22.93-68.31 22.93-57.54C22.93-46.77 31.66-38.04 42.43-38.04C53.2-38.04 61.93-46.77 61.93-57.54C61.93-68.31 53.2-77.04 42.43-77.04ZM60.28-23.49C65.452-23.49 70.412-21.43 74.067-17.78C77.62-14.23 79.661-9.45 79.775-4.43L79.78-3.99L79.78 4.93C79.78 5.84 79.041 6.58 78.13 6.58C77.266 6.58 76.558 5.92 76.486 5.07L76.48 4.93L76.48-3.99C76.48-8.29 74.773-12.41 71.735-15.44C68.795-18.38 64.842-20.08 60.695-20.18L60.28-20.19L24.58-20.19C20.282-20.19 16.163-18.48 13.123-15.44C10.184-12.51 8.491-8.55 8.385-4.4L8.38-3.99L8.38 4.93C8.38 5.84 7.641 6.58 6.73 6.58C5.866 6.58 5.158 5.92 5.086 5.07L5.08 4.93L5.08-3.99C5.08-9.17 7.135-14.13 10.791-17.77C14.343-21.33 19.125-23.37 24.137-23.48L24.58-23.49L60.28-23.49ZM42.43-73.74C51.378-73.74 58.63-66.49 58.63-57.54C58.63-48.59 51.378-41.34 42.43-41.34C33.482-41.34 26.23-48.59 26.23-57.54C26.23-66.49 33.482-73.74 42.43-73.74Z"/>
  </g>
  <g id="Ultralight-M" transform="matrix(1 0 0 1 504.718 1126)">
   <path class="hierarchical-0:secondary SFSymbolsPreview4D4D4D" d="M72.051-75.08C72.202-75.67 72.801-76.03 73.389-75.88C77.46-74.84 81.075-72.46 83.659-69.13C86.239-65.81 87.639-61.72 87.639-57.52C87.639-53.31 86.24-49.22 83.659-45.9C81.078-42.57 77.466-40.2 73.389-39.16C72.801-39.01 72.202-39.37 72.051-39.96C71.901-40.55 72.257-41.15 72.845-41.3C76.448-42.22 79.641-44.31 81.921-47.24C84.202-50.18 85.439-53.8 85.439-57.52C85.439-61.24 84.201-64.85 81.922-67.79C79.637-70.73 76.441-72.83 72.845-73.74C72.257-73.89 71.901-74.49 72.051-75.08ZM89.903-21.54C90.055-22.12 90.655-22.48 91.243-22.33C95.312-21.27 98.912-18.9 101.482-15.59C103.963-12.39 105.351-8.49 105.45-4.44L105.456-3.99L105.456 4.93C105.456 5.54 104.963 6.03 104.356 6.03C103.789 6.03 103.322 5.6 103.262 5.05L103.256 4.93L103.256-3.99C103.253-7.71 102.018-11.31 99.743-14.24C97.471-17.17 94.29-19.27 90.693-20.2C90.104-20.35 89.751-20.95 89.903-21.54Z"/>
   <path class="hierarchical-1:primary SFSymbolsPreview212121" d="M41.88-76.49C31.413-76.49 22.93-68.01 22.93-57.54C22.93-47.07 31.413-38.59 41.88-38.59C52.346-38.59 60.83-47.07 60.83-57.54C60.83-68.01 52.346-76.49 41.88-76.49ZM59.73-22.94C64.756-22.94 69.576-20.94 73.129-17.39C76.578-13.95 78.561-9.3 78.674-4.43L78.68-3.99L78.68 4.93C78.68 5.54 78.187 6.03 77.58 6.03C77.013 6.03 76.546 5.6 76.486 5.05L76.48 4.93L76.48-3.99C76.48-8.44 74.715-12.7 71.573-15.83C68.531-18.88 64.438-20.63 60.146-20.73L59.73-20.74L24.03-20.74C19.586-20.74 15.327-18.97 12.185-15.83C9.142-12.8 7.391-8.7 7.285-4.41L7.28-3.99L7.28 4.93C7.28 5.54 6.787 6.03 6.18 6.03C5.613 6.03 5.146 5.6 5.086 5.05L5.08 4.93L5.08-3.99C5.08-9.02 7.076-13.84 10.629-17.39C14.079-20.84 18.72-22.82 23.587-22.93L24.03-22.94L59.73-22.94ZM41.88-74.29C51.131-74.29 58.63-66.79 58.63-57.54C58.63-48.29 51.131-40.79 41.88-40.79C32.628-40.79 25.13-48.29 25.13-57.54C25.13-66.79 32.628-74.29 41.88-74.29Z"/>
  </g>
  <g id="Black-S" transform="matrix(1 0 0 1 2882.5 696)">
   <path class="hierarchical-0:secondary SFSymbolsPreview4D4D4D" d="M58.8-68.435C59.77-72.233 63.64-74.524 67.44-73.551C71.98-72.389 76-69.751 78.89-66.039C81.75-62.337 83.31-57.788 83.31-53.11C83.31-48.432 81.75-43.884 78.87-40.167C76-36.469 71.98-33.832 67.44-32.67C63.64-31.697 59.77-33.987 58.8-37.786C57.85-41.505 60.03-45.292 63.68-46.361L63.92-46.426C65.4-46.806 66.72-47.671 67.65-48.87C68.6-50.09 69.11-51.583 69.11-53.11C69.11-54.637 68.6-56.131 67.67-57.335C66.78-58.468 65.58-59.298 64.21-59.712L63.92-59.795C60.12-60.768 57.83-64.636 58.8-68.435ZM72.81-26.451C73.79-30.247 77.66-32.529 81.46-31.547C85.97-30.378 89.98-27.745 92.86-24.044C95.63-20.47 97.17-16.106 97.27-11.595L97.28-11.128L97.28-4.128C97.28-0.207 94.1 2.972 90.18 2.972C86.34 2.972 83.21-0.078 83.08-3.889L83.08-4.128L83.08-11.128C83.08-12.656 82.57-14.139 81.65-15.331C80.76-16.468 79.56-17.299 78.2-17.716L77.9-17.799C74.11-18.781 71.82-22.655 72.81-26.451Z"/>
   <path class="hierarchical-1:primary SFSymbolsPreview212121" d="M40.18-74.228C28.53-74.228 19.08-64.78 19.08-53.128C19.08-41.475 28.53-32.028 40.18-32.028C51.83-32.028 61.28-41.475 61.28-53.128C61.28-64.78 51.83-74.228 40.18-74.228ZM54.18-32.228C59.77-32.228 65.13-30.006 69.1-26.052C72.95-22.203 75.16-17.017 75.27-11.581L75.28-11.128L75.28-4.128C75.28-0.206 72.1 2.972 68.18 2.972C64.34 2.972 61.21-0.078 61.08-3.889L61.08-4.128L61.08-11.128C61.08-12.962 60.35-14.714 59.06-16.002C57.84-17.228 56.2-17.945 54.48-18.021L54.18-18.028L26.18-18.028C24.35-18.028 22.6-17.3 21.31-16.013C20.08-14.785 19.36-13.148 19.29-11.431L19.28-11.128L19.28-4.128C19.28-0.206 16.1 2.972 12.18 2.972C8.34 2.972 5.21-0.078 5.08-3.889L5.08-4.128L5.08-11.128C5.08-16.718 7.3-22.084 11.26-26.053C15.12-29.899 20.3-32.106 25.73-32.223L26.18-32.228L54.18-32.228ZM40.18-60.028C43.99-60.028 47.08-56.938 47.08-53.128C47.08-49.318 43.99-46.228 40.18-46.228C36.37-46.228 33.28-49.318 33.28-53.128C33.28-56.938 36.37-60.028 40.18-60.028Z"/>
  </g>
  <g id="Heavy-S" transform="matrix(1 0 0 1 2587.13 696)">
   <path class="hierarchical-0:secondary SFSymbolsPreview4D4D4D" d="M57.77-68.134C58.63-71.478 62.04-73.494 65.38-72.638C69.73-71.523 73.59-68.992 76.36-65.43C79.11-61.876 80.61-57.51 80.61-53.02C80.61-48.532 79.11-44.166 76.35-40.6C73.59-37.05 69.73-34.519 65.38-33.404C62.04-32.547 58.63-34.564 57.77-37.908C56.94-41.177 58.85-44.505 62.06-45.452L62.28-45.513C63.95-45.94 65.43-46.911 66.48-48.261C67.53-49.629 68.11-51.305 68.11-53.02C68.11-54.736 67.53-56.413 66.49-57.768C65.49-59.045 64.13-59.979 62.59-60.442L62.28-60.529C58.93-61.385 56.92-64.79 57.77-68.134ZM71.78-26.149C72.64-29.49 76.05-31.499 79.39-30.634C83.73-29.513 87.57-26.985 90.34-23.434C92.99-20.009 94.47-15.826 94.57-11.502L94.58-11.038L94.58-4.038C94.58-0.587 91.78 2.212 88.33 2.212C84.95 2.212 82.2-0.464 82.08-3.809L82.08-4.038L82.08-11.038C82.08-12.755 81.51-14.421 80.47-15.764C79.47-17.045 78.11-17.98 76.57-18.446L76.26-18.533C72.92-19.397 70.91-22.807 71.78-26.149Z"/>
   <path class="hierarchical-1:primary SFSymbolsPreview212121" d="M39.33-73.288C28.15-73.288 19.08-64.221 19.08-53.038C19.08-41.855 28.15-32.788 39.33-32.788C50.51-32.788 59.58-41.855 59.58-53.038C59.58-64.221 50.51-73.288 39.33-73.288ZM53.33-31.288C58.7-31.288 63.84-29.156 67.65-25.361C71.34-21.67 73.46-16.698 73.57-11.485L73.58-11.038L73.58-4.038C73.58-0.586 70.78 2.212 67.33 2.212C63.95 2.212 61.2-0.463 61.08-3.809L61.08-4.038L61.08-11.038C61.08-13.098 60.27-15.066 58.81-16.514C57.43-17.898 55.58-18.705 53.64-18.782L53.33-18.788L25.33-18.788C23.28-18.788 21.3-17.971 19.85-16.524C18.47-15.138 17.66-13.286 17.59-11.345L17.58-11.038L17.58-4.038C17.58-0.586 14.78 2.212 11.33 2.212C7.95 2.212 5.2-0.463 5.08-3.809L5.08-4.038L5.08-11.038C5.08-16.403 7.21-21.553 11.01-25.362C14.71-29.05 19.68-31.168 24.88-31.283L25.33-31.288L53.33-31.288ZM39.33-60.788C43.61-60.788 47.08-57.317 47.08-53.038C47.08-48.759 43.61-45.288 39.33-45.288C35.05-45.288 31.58-48.759 31.58-53.038C31.58-57.317 35.05-60.788 39.33-60.788Z"/>
  </g>
  <g id="Bold-S" transform="matrix(1 0 0 1 2291.37 696)">
   <path class="hierarchical-0:secondary SFSymbolsPreview4D4D4D" d="M57.74-67.587C58.47-70.424 61.36-72.136 64.19-71.412C68.35-70.349 72.04-67.932 74.65-64.552C77.29-61.168 78.71-57.004 78.71-52.713C78.71-48.424 77.29-44.26 74.66-40.886C72.04-37.495 68.35-35.079 64.19-34.016C61.36-33.292 58.47-35.004 57.74-37.84C57.04-40.604 58.65-43.415 61.35-44.227L61.57-44.287C63.45-44.766 65.1-45.852 66.29-47.383C67.47-48.904 68.11-50.778 68.11-52.713C68.11-54.65 67.47-56.524 66.28-58.055C65.17-59.486 63.64-60.533 61.9-61.05L61.57-61.141C58.73-61.865 57.02-64.751 57.74-67.587ZM71.75-25.599C72.48-28.434 75.37-30.139 78.2-29.409C82.35-28.34 86.02-25.927 88.64-22.545C91.17-19.28 92.58-15.295 92.68-11.173L92.68-10.731L92.68-3.731C92.68-0.804 90.31 1.569 87.38 1.569C84.53 1.569 82.2-0.687 82.08-3.513L82.08-3.731L82.08-10.731C82.08-12.659 81.44-14.53 80.26-16.051C79.15-17.485 77.62-18.533 75.88-19.053L75.56-19.144C72.72-19.875 71.02-22.765 71.75-25.599Z"/>
   <path class="hierarchical-1:primary SFSymbolsPreview212121" d="M38.38-72.031C27.72-72.031 19.08-63.389 19.08-52.731C19.08-42.072 27.72-33.431 38.38-33.431C49.04-33.431 57.68-42.069 57.68-52.731C57.68-63.392 49.04-72.031 38.38-72.031ZM52.38-30.031C57.51-30.031 62.42-27.997 66.02-24.381C69.54-20.867 71.56-16.133 71.67-11.169L71.68-10.731L71.68-3.731C71.68-0.804 69.31 1.569 66.38 1.569C63.53 1.569 61.2-0.687 61.08-3.512L61.08-3.731L61.08-10.731C61.08-13.042 60.17-15.252 58.53-16.886C56.98-18.441 54.89-19.346 52.69-19.425L52.38-19.431L24.38-19.431C22.08-19.431 19.87-18.515 18.23-16.879C16.67-15.32 15.76-13.234 15.69-11.044L15.68-10.731L15.68-3.731C15.68-0.804 13.31 1.569 10.38 1.569C7.53 1.569 5.2-0.687 5.08-3.512L5.08-3.731L5.08-10.731C5.08-15.851 7.12-20.761 10.74-24.373C14.25-27.892 18.98-29.913 23.94-30.026L24.38-30.031L52.38-30.031ZM38.38-61.431C43.19-61.431 47.08-57.539 47.08-52.731C47.08-47.923 43.19-44.031 38.38-44.031C33.58-44.031 29.68-47.927 29.68-52.731C29.68-57.535 33.58-61.431 38.38-61.431Z"/>
  </g>
  <g id="Semibold-S" transform="matrix(1 0 0 1 1995.31 696)">
   <path class="hierarchical-0:secondary SFSymbolsPreview4D4D4D" d="M57.73-67.365C58.36-69.853 60.9-71.353 63.38-70.716C67.39-69.689 70.95-67.357 73.5-64.078C76.03-60.804 77.41-56.783 77.41-52.648C77.41-48.514 76.03-44.493 73.49-41.209C70.95-37.94 67.39-35.608 63.38-34.582C60.9-33.944 58.36-35.444 57.73-37.932C57.11-40.349 58.5-42.809 60.87-43.531L61.08-43.591C63.09-44.106 64.87-45.276 66.14-46.909C67.42-48.557 68.11-50.578 68.11-52.648C68.11-54.719 67.42-56.74 66.15-58.378C64.94-59.929 63.28-61.06 61.41-61.615L61.08-61.707C58.59-62.344 57.09-64.877 57.73-67.365ZM71.73-25.376C72.37-27.862 74.91-29.356 77.39-28.713C81.39-27.679 84.93-25.346 87.46-22.091C89.91-18.941 91.28-15.093 91.37-11.109L91.38-10.666L91.38-3.666C91.38-1.098 89.3 0.984 86.73 0.984C84.23 0.984 82.2-0.984 82.08-3.453L82.08-3.666L82.08-10.666C82.08-12.738 81.39-14.744 80.11-16.384C78.92-17.93 77.26-19.06 75.4-19.617L75.07-19.709C72.58-20.352 71.08-22.889 71.73-25.376Z"/>
   <path class="hierarchical-1:primary SFSymbolsPreview212121" d="M37.73-71.315C27.43-71.315 19.08-62.965 19.08-52.665C19.08-42.366 27.43-34.015 37.73-34.015C48.03-34.015 56.38-42.366 56.38-52.665C56.38-62.965 48.03-71.315 37.73-71.315ZM51.73-29.315C56.67-29.315 61.41-27.351 64.91-23.856C68.31-20.463 70.26-15.894 70.37-11.102L70.38-10.665L70.38-3.665C70.38-1.097 68.3 0.985 65.73 0.985C63.23 0.985 61.2-0.983 61.08-3.452L61.08-3.665L61.08-10.665C61.08-13.149 60.1-15.524 58.34-17.274C56.66-18.954 54.41-19.928 52.05-20.01L51.73-20.015L23.73-20.015C21.25-20.015 18.87-19.03 17.11-17.273C15.44-15.601 14.47-13.355 14.39-10.989L14.38-10.665L14.38-3.665C14.38-1.097 12.3 0.985 9.73 0.985C7.23 0.985 5.2-0.983 5.08-3.452L5.08-3.665L5.08-10.665C5.08-15.616 7.04-20.36 10.54-23.855C13.94-27.248 18.51-29.198 23.29-29.31L23.73-29.315L51.73-29.315ZM37.73-62.015C42.89-62.015 47.08-57.828 47.08-52.665C47.08-47.502 42.89-43.315 37.73-43.315C32.57-43.315 28.38-47.502 28.38-52.665C28.38-57.828 32.57-62.015 37.73-62.015Z"/>
  </g>
  <g id="Medium-S" transform="matrix(1 0 0 1 1699.1 696)">
   <path class="hierarchical-0:secondary SFSymbolsPreview4D4D4D" d="M57.71-67.203C58.28-69.423 60.54-70.762 62.76-70.193C66.66-69.194 70.12-66.925 72.6-63.735C75.07-60.548 76.41-56.634 76.41-52.61C76.41-48.587 75.07-44.673 72.6-41.479C70.12-38.297 66.66-36.027 62.76-35.028C60.54-34.459 58.28-35.798 57.71-38.018C57.16-40.171 58.4-42.363 60.5-43.012L60.7-43.068C62.82-43.611 64.7-44.844 66.04-46.566C67.38-48.301 68.11-50.429 68.11-52.61C68.11-54.792 67.38-56.921 66.04-58.647C64.77-60.281 63.02-61.472 61.05-62.056L60.7-62.153C58.48-62.722 57.14-64.983 57.71-67.203ZM71.71-25.212C72.29-27.431 74.55-28.765 76.77-28.191C80.66-27.185 84.11-24.915 86.56-21.745C88.95-18.681 90.28-14.936 90.37-11.059L90.38-10.628L90.38-3.628C90.38-1.336 88.52 0.522 86.23 0.522C84.01 0.522 82.19-1.225 82.08-3.421L82.08-3.628L82.08-10.628C82.08-12.812 81.35-14.926 80.01-16.653C78.75-18.281 77.01-19.471 75.04-20.058L74.69-20.155C72.47-20.729 71.14-22.994 71.71-25.212Z"/>
   <path class="hierarchical-1:primary SFSymbolsPreview212121" d="M37.23-70.777C27.21-70.777 19.08-62.651 19.08-52.627C19.08-42.604 27.21-34.477 37.23-34.477C47.25-34.477 55.38-42.604 55.38-52.627C55.38-62.651 47.25-70.777 37.23-70.777ZM51.23-28.777C56.04-28.777 60.65-26.866 64.06-23.464C67.37-20.165 69.26-15.724 69.37-11.065L69.38-10.627L69.38-3.627C69.38-1.335 67.52 0.523 65.23 0.523C63.01 0.523 61.19-1.224 61.08-3.42L61.08-3.627L61.08-10.627C61.08-13.244 60.04-15.746 58.2-17.59C56.42-19.362 54.05-20.389 51.56-20.472L51.23-20.477L23.23-20.477C20.62-20.477 18.11-19.439 16.26-17.589C14.49-15.823 13.47-13.451 13.38-10.954L13.38-10.627L13.38-3.627C13.38-1.335 11.52 0.523 9.23 0.523C7.01 0.523 5.19-1.224 5.08-3.42L5.08-3.627L5.08-10.627C5.08-15.446 6.99-20.062 10.4-23.463C13.7-26.763 18.14-28.66 22.79-28.772L23.23-28.777L51.23-28.777ZM37.23-62.477C42.67-62.477 47.08-58.067 47.08-52.627C47.08-47.188 42.67-42.777 37.23-42.777C31.79-42.777 27.38-47.188 27.38-52.627C27.38-58.067 31.79-62.477 37.23-62.477Z"/>
  </g>
  <g id="Regular-S" transform="matrix(1 0 0 1 1403.04 696)">
   <path class="hierarchical-0:secondary SFSymbolsPreview4D4D4D" d="M57.69-67.04C58.17-68.912 60.08-70.041 61.95-69.562C65.71-68.598 69.05-66.41 71.44-63.335C73.82-60.262 75.11-56.487 75.11-52.608C75.11-48.729 73.82-44.955 71.43-41.875C69.05-38.807 65.71-36.619 61.95-35.655C60.08-35.176 58.17-36.305 57.69-38.178C57.21-40.05 58.34-41.957 60.21-42.437C62.47-43.015 64.47-44.329 65.9-46.166C67.33-48.015 68.11-50.283 68.11-52.608C68.11-54.934 67.33-57.202 65.91-59.044C64.47-60.888 62.47-62.202 60.21-62.78C58.34-63.26 57.21-65.167 57.69-67.04ZM71.69-25.048C72.18-26.919 74.08-28.044 75.96-27.56C79.71-26.589 83.03-24.4 85.4-21.344C87.7-18.393 88.98-14.789 89.07-11.057L89.08-10.626L89.08-3.626C89.08-1.693 87.51-0.126 85.58-0.126C83.71-0.126 82.18-1.59 82.09-3.434L82.08-3.626L82.08-10.626C82.08-12.954 81.31-15.209 79.87-17.049C78.52-18.79 76.66-20.061 74.56-20.685L74.2-20.783C72.33-21.267 71.21-23.176 71.69-25.048Z"/>
   <path class="hierarchical-1:primary SFSymbolsPreview212121" d="M36.58-70.127C26.92-70.127 19.08-62.291 19.08-52.627C19.08-42.963 26.92-35.127 36.58-35.127C46.24-35.127 54.08-42.963 54.08-52.627C54.08-62.291 46.24-70.127 36.58-70.127ZM50.58-28.127C55.22-28.127 59.67-26.284 62.95-23.003C66.14-19.823 67.97-15.541 68.07-11.049L68.08-10.627L68.08-3.627C68.08-1.694 66.51-0.127 64.58-0.127C62.71-0.127 61.18-1.591 61.09-3.435L61.08-3.627L61.08-10.627C61.08-13.416 59.98-16.084 58.01-18.049C56.11-19.942 53.57-21.037 50.91-21.122L50.58-21.127L22.58-21.127C19.8-21.127 17.13-20.021 15.15-18.049C13.26-16.163 12.17-13.628 12.09-10.961L12.08-10.627L12.08-3.627C12.08-1.694 10.51-0.127 8.58-0.127C6.71-0.127 5.18-1.591 5.09-3.435L5.08-3.627L5.08-10.627C5.08-15.273 6.92-19.724 10.21-23.003C13.39-26.184 17.67-28.014 22.16-28.122L22.58-28.127L50.58-28.127ZM36.58-63.127C42.38-63.127 47.08-58.425 47.08-52.627C47.08-46.829 42.38-42.127 36.58-42.127C30.78-42.127 26.08-46.829 26.08-52.627C26.08-58.425 30.78-63.127 36.58-63.127Z"/>
  </g>
  <g id="Light-S" transform="matrix(1 0 0 1 1107.13 696)">
   <path class="hierarchical-0:secondary SFSymbolsPreview4D4D4D" d="M57.66-66.84C58.03-68.285 59.5-69.156 60.95-68.786C64.54-67.867 67.72-65.778 70.01-62.845C72.27-59.911 73.51-56.309 73.51-52.607C73.51-48.906 72.27-45.304 70-42.366C67.72-39.438 64.54-37.349 60.95-36.43C59.5-36.06 58.03-36.931 57.66-38.375C57.31-39.764 58.1-41.178 59.45-41.613L59.61-41.661C62.04-42.283 64.2-43.697 65.73-45.676C67.27-47.664 68.11-50.105 68.11-52.607C68.11-55.111 67.27-57.552 65.74-59.535C64.27-61.424 62.24-62.797 59.95-63.461L59.61-63.555C58.16-63.925 57.29-65.396 57.66-66.84ZM71.67-24.847C72.04-26.29 73.51-27.158 74.96-26.784C78.53-25.859 81.71-23.77 83.97-20.852C86.16-18.041 87.38-14.608 87.47-11.053L87.48-10.625L87.48-3.625C87.48-2.134 86.27-0.925 84.78-0.925C83.35-0.925 82.17-2.043 82.08-3.455L82.08-3.625L82.08-10.625C82.08-13.131 81.25-15.559 79.71-17.538C78.25-19.422 76.23-20.794 73.95-21.462L73.6-21.556C72.16-21.93 71.29-23.403 71.67-24.847Z"/>
   <path class="hierarchical-1:primary SFSymbolsPreview212121" d="M35.78-69.326C26.56-69.326 19.08-61.849 19.08-52.626C19.08-43.404 26.56-35.926 35.78-35.926C45-35.926 52.48-43.404 52.48-52.626C52.48-61.849 45-69.326 35.78-69.326ZM49.78-27.326C54.21-27.326 58.45-25.567 61.59-22.436C64.62-19.405 66.37-15.324 66.47-11.041L66.48-10.626L66.48-3.626C66.48-2.135 65.27-0.926 63.78-0.926C62.35-0.926 61.17-2.044 61.09-3.455L61.08-3.626L61.08-10.626C61.08-13.627 59.89-16.499 57.77-18.615C55.73-20.654 52.99-21.833 50.12-21.921L49.78-21.926L21.78-21.926C18.79-21.926 15.91-20.736 13.79-18.614C11.75-16.581 10.57-13.847 10.49-10.972L10.48-10.626L10.48-3.626C10.48-2.135 9.27-0.926 7.78-0.926C6.35-0.926 5.17-2.044 5.09-3.455L5.08-3.626L5.08-10.626C5.08-15.06 6.84-19.307 9.97-22.436C13.01-25.469 17.09-27.215 21.37-27.321L21.78-27.326L49.78-27.326ZM35.78-63.926C42.02-63.926 47.08-58.866 47.08-52.626C47.08-46.386 42.02-41.326 35.78-41.326C29.54-41.326 24.48-46.386 24.48-52.626C24.48-58.866 29.54-63.926 35.78-63.926Z"/>
  </g>
  <g id="Thin-S" transform="matrix(1 0 0 1 811.467 696)">
   <path class="hierarchical-0:secondary SFSymbolsPreview4D4D4D" d="M57.632-66.581C57.858-67.464 58.757-67.996 59.639-67.77C63.005-66.908 65.99-64.95 68.121-62.205C70.251-59.46 71.407-56.084 71.407-52.609C71.407-49.134 70.251-45.758 68.121-43.013C65.99-40.268 63.006-38.311 59.639-37.448C58.757-37.222 57.858-37.755 57.632-38.638C57.406-39.52 57.938-40.419 58.821-40.645C61.478-41.326 63.833-42.871 65.513-45.036C67.195-47.203 68.107-49.867 68.107-52.609C68.107-55.352 67.195-58.016 65.514-60.182C63.832-62.348 61.477-63.893 58.821-64.573C57.938-64.799 57.406-65.698 57.632-66.581ZM71.632-24.585C71.86-25.467 72.761-25.997 73.643-25.769C77-24.902 79.974-22.945 82.099-20.205C84.139-17.573 85.284-14.363 85.374-11.042L85.38-10.627L85.38-3.627C85.38-2.716 84.641-1.977 83.73-1.977C82.867-1.977 82.158-2.64 82.086-3.484L82.08-3.627L82.08-10.626C82.078-13.361 81.167-16.019 79.491-18.183C77.814-20.345 75.467-21.89 72.817-22.574C71.935-22.802 71.404-23.702 71.632-24.585Z"/>
   <path class="hierarchical-1:primary SFSymbolsPreview212121" d="M34.73-68.277C26.086-68.277 19.08-61.271 19.08-52.627C19.08-43.984 26.086-36.977 34.73-36.977C43.373-36.977 50.38-43.984 50.38-52.627C50.38-61.271 43.373-68.277 34.73-68.277ZM48.73-26.277C52.881-26.277 56.861-24.628 59.795-21.693C62.636-18.854 64.272-15.034 64.374-11.028L64.38-10.627L64.38-3.627C64.38-2.716 63.641-1.977 62.73-1.977C61.866-1.977 61.158-2.64 61.086-3.485L61.08-3.627L61.08-10.627C61.08-13.903 59.778-17.044 57.462-19.36C55.229-21.593 52.228-22.883 49.08-22.972L48.73-22.977L20.73-22.977C17.454-22.977 14.313-21.676 11.997-19.359C9.764-17.127 8.474-14.126 8.385-10.978L8.38-10.627L8.38-3.627C8.38-2.716 7.641-1.977 6.73-1.977C5.866-1.977 5.158-2.64 5.086-3.485L5.08-3.627L5.08-10.627C5.08-14.778 6.729-18.759 9.664-21.693C12.503-24.534 16.323-26.17 20.328-26.272L20.73-26.277L48.73-26.277ZM34.73-64.977C41.55-64.977 47.08-59.448 47.08-52.627C47.08-45.807 41.55-40.277 34.73-40.277C27.909-40.277 22.38-45.807 22.38-52.627C22.38-59.448 27.909-64.977 34.73-64.977Z"/>
  </g>
  <g id="Ultralight-S" transform="matrix(1 0 0 1 515.306 696)">
   <path class="hierarchical-0:secondary SFSymbolsPreview4D4D4D" d="M57.615-66.444C57.766-67.033 58.365-67.388 58.954-67.237C62.201-66.405 65.081-64.516 67.137-61.868C69.192-59.219 70.308-55.962 70.308-52.608C70.308-49.256 69.192-45.998 67.137-43.35C65.081-40.701 62.202-38.812 58.954-37.981C58.365-37.83 57.766-38.185 57.615-38.773C57.464-39.362 57.819-39.961 58.408-40.112C61.183-40.822 63.643-42.436 65.399-44.699C67.155-46.961 68.108-49.744 68.108-52.608C68.108-55.473 67.155-58.256 65.399-60.519C63.642-62.781 61.182-64.395 58.408-65.106C57.819-65.256 57.464-65.856 57.615-66.444ZM71.616-24.446C71.768-25.035 72.368-25.388 72.956-25.236C76.195-24.399 79.065-22.511 81.115-19.867C83.083-17.328 84.188-14.231 84.275-11.027L84.281-10.626L84.281-3.626C84.281-3.019 83.788-2.526 83.181-2.526C82.614-2.526 82.147-2.955 82.087-3.506L82.081-3.626L82.081-10.626C82.079-13.483 81.127-16.259 79.376-18.519C77.625-20.778 75.173-22.391 72.405-23.106C71.817-23.258 71.464-23.858 71.616-24.446Z"/>
   <path class="hierarchical-1:primary SFSymbolsPreview212121" d="M34.18-67.727C25.841-67.727 19.08-60.966 19.08-52.627C19.08-44.287 25.841-37.527 34.18-37.527C42.52-37.527 49.28-44.287 49.28-52.627C49.28-60.966 42.52-67.727 34.18-67.727ZM48.18-25.727C52.185-25.727 56.026-24.135 58.857-21.304C61.595-18.567 63.173-14.887 63.275-11.026L63.28-10.627L63.28-3.627C63.28-3.019 62.788-2.527 62.18-2.527C61.613-2.527 61.147-2.956 61.087-3.507L61.08-3.627L61.08-10.627C61.08-14.048 59.721-17.329 57.301-19.748C54.969-22.081 51.835-23.428 48.546-23.521L48.18-23.527L20.18-23.527C16.759-23.527 13.478-22.167 11.059-19.748C8.726-17.415 7.379-14.281 7.286-10.993L7.28-10.627L7.28-3.627C7.28-3.019 6.788-2.527 6.18-2.527C5.613-2.527 5.147-2.956 5.087-3.507L5.08-3.627L5.08-10.627C5.08-14.632 6.672-18.472 9.503-21.303C12.24-24.041 15.92-25.619 19.78-25.721L20.18-25.727L48.18-25.727ZM34.18-65.527C41.305-65.527 47.08-59.751 47.08-52.627C47.08-45.502 41.305-39.727 34.18-39.727C27.056-39.727 21.28-45.502 21.28-52.627C21.28-59.751 27.056-65.527 34.18-65.527Z"/>
  </g>
 </g>
</svg>
