<?xml version="1.0" encoding="UTF-8"?>
<!--Generator: Apple Native CoreSVG 175-->
<!DOCTYPE svg
PUBLIC "-//W3C//DTD SVG 1.1//EN"
       "http://www.w3.org/Graphics/SVG/1.1/DTD/svg11.dtd">
<svg version="1.1" xmlns="http://www.w3.org/2000/svg" xmlns:xlink="http://www.w3.org/1999/xlink" width="3300" height="2200">
 <!--glyph: "", point size: 100.0, font version: "17.0d12e1", template writer version: "65.1"-->
 <style>.hierarchical-0:secondary {fill:#4D4D4D}
.hierarchical-1:primary {fill:#212121}

.SFSymbolsPreview212121 {fill:#212121;opacity:1.0}
.SFSymbolsPreview4D4D4D {fill:#4D4D4D;opacity:1.0}
</style>
 <g id="Notes">
  <rect height="2200" id="artboard" style="fill:white;opacity:1" width="3300" x="0" y="0"/>
  <line style="fill:none;stroke:black;opacity:1;stroke-width:0.5;" x1="263" x2="3036" y1="292" y2="292"/>
  <text style="stroke:none;fill:black;font-family:sans-serif;font-size:13;font-weight:bold;" transform="matrix(1 0 0 1 263 322)">Weight/Scale Variations</text>
  <text style="stroke:none;fill:black;font-family:sans-serif;font-size:13;text-anchor:middle;" transform="matrix(1 0 0 1 559.711 322)">Ultralight</text>
  <text style="stroke:none;fill:black;font-family:sans-serif;font-size:13;text-anchor:middle;" transform="matrix(1 0 0 1 856.422 322)">Thin</text>
  <text style="stroke:none;fill:black;font-family:sans-serif;font-size:13;text-anchor:middle;" transform="matrix(1 0 0 1 1153.13 322)">Light</text>
  <text style="stroke:none;fill:black;font-family:sans-serif;font-size:13;text-anchor:middle;" transform="matrix(1 0 0 1 1449.84 322)">Regular</text>
  <text style="stroke:none;fill:black;font-family:sans-serif;font-size:13;text-anchor:middle;" transform="matrix(1 0 0 1 1746.56 322)">Medium</text>
  <text style="stroke:none;fill:black;font-family:sans-serif;font-size:13;text-anchor:middle;" transform="matrix(1 0 0 1 2043.27 322)">Semibold</text>
  <text style="stroke:none;fill:black;font-family:sans-serif;font-size:13;text-anchor:middle;" transform="matrix(1 0 0 1 2339.98 322)">Bold</text>
  <text style="stroke:none;fill:black;font-family:sans-serif;font-size:13;text-anchor:middle;" transform="matrix(1 0 0 1 2636.69 322)">Heavy</text>
  <text style="stroke:none;fill:black;font-family:sans-serif;font-size:13;text-anchor:middle;" transform="matrix(1 0 0 1 2933.4 322)">Black</text>
  <line style="fill:none;stroke:black;opacity:1;stroke-width:0.5;" x1="263" x2="3036" y1="1903" y2="1903"/>
  <g transform="matrix(1 0 0 1 263 1933)">
   <path d="M9.24805 0.830078Q10.8691 0.830078 12.2949 0.214844Q13.7207-0.400391 14.8096-1.49414Q15.8984-2.58789 16.5186-4.01367Q17.1387-5.43945 17.1387-7.05078Q17.1387-8.66211 16.5186-10.0879Q15.8984-11.5137 14.8047-12.6074Q13.7109-13.7012 12.2852-14.3164Q10.8594-14.9316 9.23828-14.9316Q7.62695-14.9316 6.20117-14.3164Q4.77539-13.7012 3.69141-12.6074Q2.60742-11.5137 1.9873-10.0879Q1.36719-8.66211 1.36719-7.05078Q1.36719-5.43945 1.9873-4.01367Q2.60742-2.58789 3.69629-1.49414Q4.78516-0.400391 6.21094 0.214844Q7.63672 0.830078 9.24805 0.830078ZM9.24805-0.654297Q7.91992-0.654297 6.7627-1.14746Q5.60547-1.64062 4.73145-2.51953Q3.85742-3.39844 3.36426-4.56055Q2.87109-5.72266 2.87109-7.05078Q2.87109-8.37891 3.35938-9.54102Q3.84766-10.7031 4.72168-11.582Q5.5957-12.4609 6.75293-12.9541Q7.91016-13.4473 9.23828-13.4473Q10.5762-13.4473 11.7334-12.9541Q12.8906-12.4609 13.7695-11.582Q14.6484-10.7031 15.1465-9.54102Q15.6445-8.37891 15.6445-7.05078Q15.6445-5.72266 15.1514-4.56055Q14.6582-3.39844 13.7842-2.51953Q12.9102-1.64062 11.748-1.14746Q10.5859-0.654297 9.24805-0.654297ZM5.6543-7.05078Q5.6543-6.72852 5.85938-6.52832Q6.06445-6.32812 6.40625-6.32812L8.51562-6.32812L8.51562-4.20898Q8.51562-3.88672 8.71094-3.67676Q8.90625-3.4668 9.23828-3.4668Q9.56055-3.4668 9.77051-3.67676Q9.98047-3.88672 9.98047-4.20898L9.98047-6.32812L12.0898-6.32812Q12.4219-6.32812 12.627-6.52832Q12.832-6.72852 12.832-7.05078Q12.832-7.38281 12.627-7.58789Q12.4219-7.79297 12.0898-7.79297L9.98047-7.79297L9.98047-9.90234Q9.98047-10.2344 9.77051-10.4443Q9.56055-10.6543 9.23828-10.6543Q8.90625-10.6543 8.71094-10.4443Q8.51562-10.2344 8.51562-9.90234L8.51562-7.79297L6.40625-7.79297Q6.06445-7.79297 5.85938-7.58789Q5.6543-7.38281 5.6543-7.05078Z"/>
  </g>
  <g transform="matrix(1 0 0 1 281.867 1933)">
   <path d="M11.709 2.91016Q13.75 2.91016 15.5518 2.12891Q17.3535 1.34766 18.7305-0.0292969Q20.1074-1.40625 20.8887-3.20801Q21.6699-5.00977 21.6699-7.05078Q21.6699-9.0918 20.8887-10.8936Q20.1074-12.6953 18.7305-14.0723Q17.3535-15.4492 15.5469-16.2305Q13.7402-17.0117 11.6992-17.0117Q9.6582-17.0117 7.85645-16.2305Q6.05469-15.4492 4.68262-14.0723Q3.31055-12.6953 2.5293-10.8936Q1.74805-9.0918 1.74805-7.05078Q1.74805-5.00977 2.5293-3.20801Q3.31055-1.40625 4.6875-0.0292969Q6.06445 1.34766 7.86621 2.12891Q9.66797 2.91016 11.709 2.91016ZM11.709 1.25Q9.98047 1.25 8.47656 0.605469Q6.97266-0.0390625 5.83496-1.17676Q4.69727-2.31445 4.05762-3.81836Q3.41797-5.32227 3.41797-7.05078Q3.41797-8.7793 4.05762-10.2832Q4.69727-11.7871 5.83008-12.9297Q6.96289-14.0723 8.4668-14.7119Q9.9707-15.3516 11.6992-15.3516Q13.4277-15.3516 14.9316-14.7119Q16.4355-14.0723 17.5781-12.9297Q18.7207-11.7871 19.3652-10.2832Q20.0098-8.7793 20.0098-7.05078Q20.0098-5.32227 19.3701-3.81836Q18.7305-2.31445 17.5928-1.17676Q16.4551-0.0390625 14.9463 0.605469Q13.4375 1.25 11.709 1.25ZM7.17773-7.05078Q7.17773-6.69922 7.41211-6.47461Q7.64648-6.25 8.01758-6.25L10.8887-6.25L10.8887-3.36914Q10.8887-2.99805 11.1133-2.76855Q11.3379-2.53906 11.6895-2.53906Q12.0605-2.53906 12.29-2.76855Q12.5195-2.99805 12.5195-3.36914L12.5195-6.25L15.4004-6.25Q15.7715-6.25 16.001-6.47461Q16.2305-6.69922 16.2305-7.05078Q16.2305-7.42188 16.001-7.65137Q15.7715-7.88086 15.4004-7.88086L12.5195-7.88086L12.5195-10.752Q12.5195-11.1328 12.29-11.3623Q12.0605-11.5918 11.6895-11.5918Q11.3379-11.5918 11.1133-11.3574Q10.8887-11.123 10.8887-10.752L10.8887-7.88086L8.01758-7.88086Q7.63672-7.88086 7.40723-7.65137Q7.17773-7.42188 7.17773-7.05078Z"/>
  </g>
  <g transform="matrix(1 0 0 1 305.646 1933)">
   <path d="M14.9707 5.66406Q17.0605 5.66406 18.96 5.01465Q20.8594 4.36523 22.4512 3.19336Q24.043 2.02148 25.2197 0.429688Q26.3965-1.16211 27.0459-3.06641Q27.6953-4.9707 27.6953-7.05078Q27.6953-9.14062 27.0459-11.04Q26.3965-12.9395 25.2197-14.5312Q24.043-16.123 22.4512-17.2998Q20.8594-18.4766 18.9551-19.126Q17.0508-19.7754 14.9609-19.7754Q12.8711-19.7754 10.9717-19.126Q9.07227-18.4766 7.48535-17.2998Q5.89844-16.123 4.72168-14.5312Q3.54492-12.9395 2.90039-11.04Q2.25586-9.14062 2.25586-7.05078Q2.25586-4.9707 2.90527-3.06641Q3.55469-1.16211 4.72656 0.429688Q5.89844 2.02148 7.49023 3.19336Q9.08203 4.36523 10.9814 5.01465Q12.8809 5.66406 14.9707 5.66406ZM14.9707 3.84766Q13.1641 3.84766 11.5283 3.2959Q9.89258 2.74414 8.53516 1.74805Q7.17773 0.751953 6.17676-0.610352Q5.17578-1.97266 4.62891-3.6084Q4.08203-5.24414 4.08203-7.05078Q4.08203-8.86719 4.62891-10.5029Q5.17578-12.1387 6.17188-13.501Q7.16797-14.8633 8.52539-15.8594Q9.88281-16.8555 11.5186-17.4023Q13.1543-17.9492 14.9609-17.9492Q16.7773-17.9492 18.4131-17.4023Q20.0488-16.8555 21.4111-15.8594Q22.7734-14.8633 23.7695-13.501Q24.7656-12.1387 25.3174-10.5029Q25.8691-8.86719 25.8691-7.05078Q25.8789-5.24414 25.332-3.6084Q24.7852-1.97266 23.7842-0.610352Q22.7832 0.751953 21.4209 1.74805Q20.0586 2.74414 18.4229 3.2959Q16.7871 3.84766 14.9707 3.84766ZM9.19922-7.05078Q9.19922-6.66992 9.45801-6.4209Q9.7168-6.17188 10.1172-6.17188L14.0625-6.17188L14.0625-2.2168Q14.0625-1.81641 14.3115-1.55762Q14.5605-1.29883 14.9512-1.29883Q15.3516-1.29883 15.6104-1.55273Q15.8691-1.80664 15.8691-2.2168L15.8691-6.17188L19.8242-6.17188Q20.2246-6.17188 20.4785-6.4209Q20.7324-6.66992 20.7324-7.05078Q20.7324-7.46094 20.4785-7.71484Q20.2246-7.96875 19.8242-7.96875L15.8691-7.96875L15.8691-11.9141Q15.8691-12.3242 15.6104-12.583Q15.3516-12.8418 14.9512-12.8418Q14.5605-12.8418 14.3115-12.583Q14.0625-12.3242 14.0625-11.9141L14.0625-7.96875L10.1172-7.96875Q9.70703-7.96875 9.45312-7.71484Q9.19922-7.46094 9.19922-7.05078Z"/>
  </g>
  <text style="stroke:none;fill:black;font-family:sans-serif;font-size:13;font-weight:bold;" transform="matrix(1 0 0 1 263 1953)">Design Variations</text>
  <text style="stroke:none;fill:black;font-family:sans-serif;font-size:13;" transform="matrix(1 0 0 1 263 1971)">Symbols are supported in up to nine weights and three scales.</text>
  <text style="stroke:none;fill:black;font-family:sans-serif;font-size:13;" transform="matrix(1 0 0 1 263 1989)">For optimal layout with text and other symbols, vertically align</text>
  <text style="stroke:none;fill:black;font-family:sans-serif;font-size:13;" transform="matrix(1 0 0 1 263 2007)">symbols with the adjacent text.</text>
  <line style="fill:none;stroke:#00AEEF;stroke-width:0.5;opacity:1.0;" x1="776" x2="776" y1="1919" y2="1933"/>
  <g transform="matrix(1 0 0 1 776 1933)">
   <path d="M3.31055 0.15625Q3.70117 0.15625 3.91602-0.00976562Q4.13086-0.175781 4.26758-0.585938L5.52734-4.0332L11.2891-4.0332L12.5488-0.585938Q12.6855-0.175781 12.9004-0.00976562Q13.1152 0.15625 13.4961 0.15625Q13.8867 0.15625 14.1162-0.0585938Q14.3457-0.273438 14.3457-0.644531Q14.3457-0.869141 14.2383-1.17188L9.6582-13.3691Q9.48242-13.8184 9.17969-14.043Q8.87695-14.2676 8.4082-14.2676Q7.5-14.2676 7.17773-13.3789L2.59766-1.16211Q2.49023-0.859375 2.49023-0.634766Q2.49023-0.263672 2.70996-0.0537109Q2.92969 0.15625 3.31055 0.15625ZM6.00586-5.51758L8.37891-12.0898L8.42773-12.0898L10.8008-5.51758Z"/>
  </g>
  <line style="fill:none;stroke:#00AEEF;stroke-width:0.5;opacity:1.0;" x1="793.197" x2="793.197" y1="1919" y2="1933"/>
  <text style="stroke:none;fill:black;font-family:sans-serif;font-size:13;font-weight:bold;" transform="matrix(1 0 0 1 776 1953)">Margins</text>
  <text style="stroke:none;fill:black;font-family:sans-serif;font-size:13;" transform="matrix(1 0 0 1 776 1971)">Leading and trailing margins on the left and right side of each symbol</text>
  <text style="stroke:none;fill:black;font-family:sans-serif;font-size:13;" transform="matrix(1 0 0 1 776 1989)">can be adjusted by modifying the x-location of the margin guidelines.</text>
  <text style="stroke:none;fill:black;font-family:sans-serif;font-size:13;" transform="matrix(1 0 0 1 776 2007)">Modifications are automatically applied proportionally to all</text>
  <text style="stroke:none;fill:black;font-family:sans-serif;font-size:13;" transform="matrix(1 0 0 1 776 2025)">scales and weights.</text>
  <g transform="matrix(1 0 0 1 1289 1933)">
   <path d="M2.8418 1.86523L4.54102 3.57422Q5.18555 4.22852 5.90332 4.17969Q6.62109 4.13086 7.31445 3.35938L18.0078-8.42773L17.041-9.4043L6.42578 2.27539Q6.16211 2.57812 5.89355 2.61719Q5.625 2.65625 5.27344 2.30469L4.10156 1.14258Q3.75 0.791016 3.79395 0.522461Q3.83789 0.253906 4.14062-0.0195312L15.6152-10.8203L14.6387-11.7871L3.04688-0.898438Q2.30469-0.214844 2.25098 0.498047Q2.19727 1.21094 2.8418 1.86523ZM9.25781-16.3281Q8.94531-16.0254 8.90625-15.6348Q8.86719-15.2441 9.04297-14.9512Q9.21875-14.6777 9.55566-14.541Q9.89258-14.4043 10.3809-14.5215Q11.4746-14.7754 12.5977-14.7314Q13.7207-14.6875 14.7949-13.9844L14.209-12.5293Q13.9551-11.9043 14.0674-11.4404Q14.1797-10.9766 14.5801-10.5664L16.875-8.25195Q17.2363-7.88086 17.5781-7.82227Q17.9199-7.76367 18.3398-7.8418L19.4043-8.03711L20.0684-7.36328L20.0293-6.80664Q20-6.43555 20.1221-6.12305Q20.2441-5.81055 20.6055-5.44922L21.3672-4.70703Q21.7285-4.3457 22.1533-4.33105Q22.5781-4.31641 22.9297-4.66797L25.8398-7.58789Q26.1914-7.93945 26.1816-8.35449Q26.1719-8.76953 25.8105-9.13086L25.0391-9.89258Q24.6875-10.2539 24.3799-10.3857Q24.0723-10.5176 23.7109-10.4883L23.1348-10.4395L22.4902-11.0742L22.7344-12.1973Q22.832-12.6172 22.6953-12.9834Q22.5586-13.3496 22.1191-13.7891L19.9219-15.9766Q18.6719-17.2168 17.2607-17.8369Q15.8496-18.457 14.4189-18.4814Q12.9883-18.5059 11.665-17.959Q10.3418-17.4121 9.25781-16.3281ZM10.752-15.957Q11.6602-16.6211 12.7002-16.9043Q13.7402-17.1875 14.8047-17.085Q15.8691-16.9824 16.8701-16.5137Q17.8711-16.0449 18.7012-15.2051L21.1328-12.793Q21.3086-12.6172 21.3525-12.4512Q21.3965-12.2852 21.3379-12.0312L21.0156-10.5469L22.5195-9.0625L23.5059-9.12109Q23.6914-9.13086 23.7891-9.09668Q23.8867-9.0625 24.0332-8.91602L24.6094-8.33984L22.168-5.89844L21.5918-6.47461Q21.4453-6.62109 21.4062-6.71875Q21.3672-6.81641 21.377-7.01172L21.4453-7.98828L19.9512-9.47266L18.4277-9.21875Q18.1836-9.16992 18.042-9.2041Q17.9004-9.23828 17.7148-9.41406L15.7129-11.416Q15.5176-11.5918 15.4932-11.7529Q15.4688-11.9141 15.5859-12.1875L16.4648-14.2773Q15.293-15.3711 13.8281-15.791Q12.3633-16.2109 10.8398-15.7617Q10.7227-15.7324 10.6885-15.8057Q10.6543-15.8789 10.752-15.957Z"/>
  </g>
  <text style="stroke:none;fill:black;font-family:sans-serif;font-size:13;font-weight:bold;" transform="matrix(1 0 0 1 1289 1953)">Exporting</text>
  <text style="stroke:none;fill:black;font-family:sans-serif;font-size:13;" transform="matrix(1 0 0 1 1289 1971)">Symbols should be outlined when exporting to ensure the</text>
  <text style="stroke:none;fill:black;font-family:sans-serif;font-size:13;" transform="matrix(1 0 0 1 1289 1989)">design is preserved when submitting to Xcode.</text>
  <text id="template-version" style="stroke:none;fill:black;font-family:sans-serif;font-size:13;text-anchor:end;" transform="matrix(1 0 0 1 3036 1933)">Template v.3.0</text>
  <text style="stroke:none;fill:black;font-family:sans-serif;font-size:13;text-anchor:end;" transform="matrix(1 0 0 1 3036 1951)">Requires Xcode 13 or greater</text>
  <text id="descriptive-name" style="stroke:none;fill:black;font-family:sans-serif;font-size:13;text-anchor:end;" transform="matrix(1 0 0 1 3036 1969)">Generated from mic</text>
  <text style="stroke:none;fill:black;font-family:sans-serif;font-size:13;text-anchor:end;" transform="matrix(1 0 0 1 3036 1987)">Typeset at 100 points</text>
  <text style="stroke:none;fill:black;font-family:sans-serif;font-size:13;" transform="matrix(1 0 0 1 263 726)">Small</text>
  <text style="stroke:none;fill:black;font-family:sans-serif;font-size:13;" transform="matrix(1 0 0 1 263 1156)">Medium</text>
  <text style="stroke:none;fill:black;font-family:sans-serif;font-size:13;" transform="matrix(1 0 0 1 263 1586)">Large</text>
 </g>
 <g id="Guides">
  <g id="H-reference" style="fill:#27AAE1;stroke:none;" transform="matrix(1 0 0 1 339 696)">
   <path d="M0.976562 0L3.66211 0L29.3457-67.1387L30.0293-67.1387L30.0293-70.459L28.125-70.459ZM11.6699-24.4629L46.9727-24.4629L46.2402-26.709L12.4512-26.709ZM55.127 0L57.7637 0L30.6152-70.459L29.4434-70.459L29.4434-67.1387Z"/>
  </g>
  <line id="Baseline-S" style="fill:none;stroke:#27AAE1;opacity:1;stroke-width:0.5;" x1="263" x2="3036" y1="696" y2="696"/>
  <line id="Capline-S" style="fill:none;stroke:#27AAE1;opacity:1;stroke-width:0.5;" x1="263" x2="3036" y1="625.541" y2="625.541"/>
  <g id="H-reference" style="fill:#27AAE1;stroke:none;" transform="matrix(1 0 0 1 339 1126)">
   <path d="M0.976562 0L3.66211 0L29.3457-67.1387L30.0293-67.1387L30.0293-70.459L28.125-70.459ZM11.6699-24.4629L46.9727-24.4629L46.2402-26.709L12.4512-26.709ZM55.127 0L57.7637 0L30.6152-70.459L29.4434-70.459L29.4434-67.1387Z"/>
  </g>
  <line id="Baseline-M" style="fill:none;stroke:#27AAE1;opacity:1;stroke-width:0.5;" x1="263" x2="3036" y1="1126" y2="1126"/>
  <line id="Capline-M" style="fill:none;stroke:#27AAE1;opacity:1;stroke-width:0.5;" x1="263" x2="3036" y1="1055.54" y2="1055.54"/>
  <g id="H-reference" style="fill:#27AAE1;stroke:none;" transform="matrix(1 0 0 1 339 1556)">
   <path d="M0.976562 0L3.66211 0L29.3457-67.1387L30.0293-67.1387L30.0293-70.459L28.125-70.459ZM11.6699-24.4629L46.9727-24.4629L46.2402-26.709L12.4512-26.709ZM55.127 0L57.7637 0L30.6152-70.459L29.4434-70.459L29.4434-67.1387Z"/>
  </g>
  <line id="Baseline-L" style="fill:none;stroke:#27AAE1;opacity:1;stroke-width:0.5;" x1="263" x2="3036" y1="1556" y2="1556"/>
  <line id="Capline-L" style="fill:none;stroke:#27AAE1;opacity:1;stroke-width:0.5;" x1="263" x2="3036" y1="1485.54" y2="1485.54"/>
  <line id="left-margin-Regular-M" style="fill:none;stroke:#00AEEF;stroke-width:0.5;opacity:1.0;" x1="1392.45" x2="1392.45" y1="1030.78" y2="1150.12"/>
  <line id="right-margin-Regular-M" style="fill:none;stroke:#00AEEF;stroke-width:0.5;opacity:1.0;" x1="1507.24" x2="1507.24" y1="1030.78" y2="1150.12"/>
 </g>
 <g id="Symbols">
  <g id="Black-L" transform="matrix(1 0 0 1 2863.84 1556)">
   <path class="hierarchical-0:secondary SFSymbolsPreview4D4D4D" d="M29.91-53.71C33.83-53.71 37.01-50.53 37.01-46.61L37.01-35.23C37.01-26.56 40.45-18.24 46.59-12.1C52.72-5.97 61.04-2.52 69.72-2.52C78.4-2.52 86.72-5.97 92.85-12.1C98.99-18.24 102.43-26.56 102.43-35.23L102.43-46.61C102.43-50.53 105.61-53.71 109.53-53.71C113.45-53.71 116.63-50.53 116.63-46.61L116.63-35.23C116.63-22.79 111.69-10.86 102.89-2.06C94.1 6.74 82.16 11.68 69.72 11.68C57.28 11.68 45.35 6.74 36.55-2.06C27.75-10.86 22.81-22.79 22.81-35.23L22.81-46.61C22.81-50.53 25.99-53.71 29.91-53.71ZM39.87 27.33C39.87 23.41 43.05 20.23 46.97 20.23L92.47 20.23C96.39 20.23 99.57 23.41 99.57 27.33C99.57 31.25 96.39 34.43 92.47 34.43L46.97 34.43C43.05 34.43 39.87 31.25 39.87 27.33ZM69.72-2.52C73.64-2.52 76.82 0.66 76.82 4.58L76.82 27.33C76.82 31.25 73.64 34.43 69.72 34.43C65.8 34.43 62.62 31.25 62.62 27.33L62.62 4.58C62.62 0.66 65.8-2.52 69.72-2.52Z"/>
   <path class="hierarchical-1:primary SFSymbolsPreview212121" d="M52.64-97.82C57.17-102.35 63.31-104.89 69.72-104.89C76.13-104.89 82.27-102.35 86.81-97.82C91.34-93.29 93.88-87.14 93.88-80.73L93.88-35.23C93.88-28.82 91.34-22.68 86.81-18.15C82.27-13.62 76.13-11.07 69.72-11.07C63.31-11.07 57.17-13.62 52.64-18.15C48.1-22.68 45.56-28.82 45.56-35.23L45.56-80.73C45.56-87.14 48.1-93.29 52.64-97.82ZM69.72-90.69C67.08-90.69 64.54-89.64 62.68-87.78C60.81-85.91 59.76-83.37 59.76-80.73L59.76-35.23C59.76-32.59 60.81-30.06 62.68-28.19C64.54-26.32 67.08-25.27 69.72-25.27C72.36-25.27 74.9-26.32 76.77-28.19C78.63-30.06 79.68-32.59 79.68-35.23L79.68-80.73C79.68-83.37 78.63-85.91 76.77-87.78C74.9-89.64 72.36-90.69 69.72-90.69Z"/>
  </g>
  <g id="Heavy-L" transform="matrix(1 0 0 1 2567.97 1556)">
   <path class="hierarchical-0:secondary SFSymbolsPreview4D4D4D" d="M29.07-52.86C32.52-52.86 35.31-50.06 35.31-46.61L35.31-35.23C35.31-26.33 38.85-17.79 45.15-11.5C51.44-5.2 59.98-1.67 68.88-1.67C77.78-1.67 86.32-5.2 92.61-11.5C98.9-17.79 102.44-26.33 102.44-35.23L102.44-46.61C102.44-50.06 105.24-52.86 108.69-52.86C112.14-52.86 114.94-50.06 114.94-46.61L114.94-35.23C114.94-23.01 110.09-11.3 101.45-2.66C92.81 5.98 81.09 10.83 68.88 10.83C56.66 10.83 44.94 5.98 36.31-2.66C27.67-11.3 22.81-23.01 22.81-35.23L22.81-46.61C22.81-50.06 25.61-52.86 29.07-52.86ZM39.88 27.33C39.88 23.88 42.68 21.08 46.13 21.08L91.63 21.08C95.08 21.08 97.88 23.88 97.88 27.33C97.88 30.78 95.08 33.58 91.63 33.58L46.13 33.58C42.68 33.58 39.88 30.78 39.88 27.33ZM68.88-1.67C72.33-1.67 75.13 1.13 75.13 4.58L75.13 27.33C75.13 30.78 72.33 33.58 68.88 33.58C65.43 33.58 62.63 30.78 62.63 27.33L62.63 4.58C62.63 1.13 65.43-1.67 68.88-1.67Z"/>
   <path class="hierarchical-1:primary SFSymbolsPreview212121" d="M52.39-97.21C56.77-101.59 62.69-104.04 68.88-104.04C75.06-104.04 80.99-101.59 85.36-97.21C89.73-92.84 92.19-86.91 92.19-80.73L92.19-35.23C92.19-29.05 89.73-23.12 85.36-18.75C80.99-14.37 75.06-11.92 68.88-11.92C62.69-11.92 56.77-14.37 52.39-18.75C48.02-23.12 45.57-29.05 45.57-35.23L45.57-80.73C45.57-86.91 48.02-92.84 52.39-97.21ZM68.88-91.54C66.01-91.54 63.26-90.4 61.23-88.38C59.2-86.35 58.07-83.6 58.07-80.73L58.07-35.23C58.07-32.36 59.2-29.61 61.23-27.58C63.26-25.56 66.01-24.42 68.88-24.42C71.75-24.42 74.5-25.56 76.52-27.58C78.55-29.61 79.69-32.36 79.69-35.23L79.69-80.73C79.69-83.6 78.55-86.35 76.52-88.38C74.5-90.4 71.75-91.54 68.88-91.54Z"/>
  </g>
  <g id="Bold-L" transform="matrix(1 0 0 1 2272.21 1556)">
   <path class="hierarchical-0:secondary SFSymbolsPreview4D4D4D" d="M28.11-51.91C31.04-51.91 33.41-49.53 33.41-46.61L33.41-35.23C33.41-26.08 37.05-17.3 43.52-10.83C49.99-4.35 58.77-0.72 67.92-0.72C77.08-0.72 85.86-4.35 92.33-10.83C98.8-17.3 102.44-26.08 102.44-35.23L102.44-46.61C102.44-49.53 104.81-51.91 107.74-51.91C110.66-51.91 113.04-49.53 113.04-46.61L113.04-35.23C113.04-23.27 108.28-11.79 99.82-3.33C91.36 5.13 79.89 9.88 67.92 9.88C55.96 9.88 44.48 5.13 36.02-3.33C27.56-11.79 22.81-23.27 22.81-35.23L22.81-46.61C22.81-49.53 25.18-51.91 28.11-51.91ZM39.87 27.33C39.87 24.4 42.25 22.03 45.17 22.03L90.67 22.03C93.6 22.03 95.97 24.4 95.97 27.33C95.97 30.26 93.6 32.63 90.67 32.63L45.17 32.63C42.25 32.63 39.87 30.26 39.87 27.33ZM67.92-0.72C70.85-0.72 73.22 1.65 73.22 4.58L73.22 27.33C73.22 30.26 70.85 32.63 67.92 32.63C65 32.63 62.62 30.26 62.62 27.33L62.62 4.58C62.62 1.65 65-0.72 67.92-0.72Z"/>
   <path class="hierarchical-1:primary SFSymbolsPreview212121" d="M52.11-96.54C56.3-100.74 61.99-103.09 67.92-103.09C73.85-103.09 79.54-100.74 83.74-96.54C87.93-92.35 90.29-86.66 90.29-80.73L90.29-35.23C90.29-29.3 87.93-23.61 83.74-19.42C79.54-15.22 73.85-12.87 67.92-12.87C61.99-12.87 56.3-15.22 52.11-19.42C47.92-23.61 45.56-29.3 45.56-35.23L45.56-80.73C45.56-86.66 47.92-92.35 52.11-96.54ZM67.92-92.49C64.8-92.49 61.81-91.25 59.61-89.05C57.4-86.84 56.16-83.85 56.16-80.73L56.16-35.23C56.16-32.11 57.4-29.12 59.61-26.91C61.81-24.71 64.8-23.47 67.92-23.47C71.04-23.47 74.04-24.71 76.24-26.91C78.45-29.12 79.69-32.11 79.69-35.23L79.69-80.73C79.69-83.85 78.45-86.84 76.24-89.05C74.04-91.25 71.04-92.49 67.92-92.49Z"/>
  </g>
  <g id="Semibold-L" transform="matrix(1 0 0 1 1976.15 1556)">
   <path class="hierarchical-0:secondary SFSymbolsPreview4D4D4D" d="M27.46-51.25C30.03-51.25 32.11-49.17 32.11-46.6L32.11-35.23C32.11-25.9 35.81-16.96 42.41-10.37C49-3.77 57.94-0.07 67.27-0.07C76.6-0.07 85.54-3.77 92.13-10.37C98.73-16.96 102.43-25.9 102.43-35.23L102.43-46.6C102.43-49.17 104.51-51.25 107.08-51.25C109.65-51.25 111.73-49.17 111.73-46.6L111.73-35.23C111.73-23.44 107.05-12.13 98.71-3.79C90.37 4.55 79.06 9.23 67.27 9.23C55.48 9.23 44.17 4.55 35.83-3.79C27.49-12.13 22.81-23.44 22.81-35.23L22.81-46.6C22.81-49.17 24.89-51.25 27.46-51.25ZM39.87 27.33C39.87 24.77 41.95 22.68 44.52 22.68L90.02 22.68C92.59 22.68 94.67 24.77 94.67 27.33C94.67 29.9 92.59 31.98 90.02 31.98L44.52 31.98C41.95 31.98 39.87 29.9 39.87 27.33ZM67.27-0.07C69.84-0.07 71.92 2.02 71.92 4.58L71.92 27.33C71.92 29.9 69.84 31.98 67.27 31.98C64.7 31.98 62.62 29.9 62.62 27.33L62.62 4.58C62.62 2.02 64.7-0.07 67.27-0.07Z"/>
   <path class="hierarchical-1:primary SFSymbolsPreview212121" d="M51.92-96.08C55.99-100.15 61.51-102.44 67.27-102.44C73.03-102.44 78.55-100.15 82.62-96.08C86.69-92.01 88.98-86.49 88.98-80.73L88.98-35.23C88.98-29.47 86.69-23.95 82.62-19.88C78.55-15.8 73.03-13.52 67.27-13.52C61.51-13.52 55.99-15.8 51.92-19.88C47.84-23.95 45.56-29.47 45.56-35.23L45.56-80.73C45.56-86.49 47.84-92.01 51.92-96.08ZM67.27-93.14C63.98-93.14 60.82-91.83 58.49-89.51C56.16-87.18 54.86-84.02 54.86-80.73L54.86-35.23C54.86-31.94 56.16-28.78 58.49-26.45C60.82-24.12 63.98-22.82 67.27-22.82C70.56-22.82 73.72-24.12 76.05-26.45C78.37-28.78 79.68-31.94 79.68-35.23L79.68-80.73C79.68-84.02 78.37-87.18 76.05-89.51C73.72-91.83 70.56-93.14 67.27-93.14Z"/>
  </g>
  <g id="Medium-L" transform="matrix(1 0 0 1 1679.94 1556)">
   <path class="hierarchical-0:secondary SFSymbolsPreview4D4D4D" d="M26.96-50.75C29.25-50.75 31.11-48.9 31.11-46.6L31.11-35.23C31.11-25.77 34.86-16.7 41.55-10.01C48.24-3.32 57.31 0.43 66.77 0.43C76.23 0.43 85.3-3.32 91.99-10.01C98.67-16.7 102.43-25.77 102.43-35.23L102.43-46.6C102.43-48.9 104.29-50.75 106.58-50.75C108.87-50.75 110.73-48.9 110.73-46.6L110.73-35.23C110.73-23.57 106.1-12.39 97.86-4.14C89.61 4.1 78.43 8.73 66.77 8.73C55.11 8.73 43.93 4.1 35.68-4.14C27.44-12.39 22.81-23.57 22.81-35.23L22.81-46.6C22.81-48.9 24.67-50.75 26.96-50.75ZM39.87 27.33C39.87 25.04 41.73 23.18 44.02 23.18L89.52 23.18C91.81 23.18 93.67 25.04 93.67 27.33C93.67 29.63 91.81 31.48 89.52 31.48L44.02 31.48C41.73 31.48 39.87 29.63 39.87 27.33ZM66.77 0.43C69.06 0.43 70.92 2.29 70.92 4.58L70.92 27.33C70.92 29.63 69.06 31.48 66.77 31.48C64.48 31.48 62.62 29.63 62.62 27.33L62.62 4.58C62.62 2.29 64.48 0.43 66.77 0.43Z"/>
   <path class="hierarchical-1:primary SFSymbolsPreview212121" d="M51.77-95.73C55.75-99.71 61.14-101.94 66.77-101.94C72.4-101.94 77.79-99.71 81.77-95.73C85.75-91.75 87.98-86.35 87.98-80.73L87.98-35.23C87.98-29.6 85.75-24.21 81.77-20.23C77.79-16.25 72.4-14.02 66.77-14.02C61.14-14.02 55.75-16.25 51.77-20.23C47.79-24.21 45.56-29.6 45.56-35.23L45.56-80.73C45.56-86.35 47.79-91.75 51.77-95.73ZM66.77-93.64C63.35-93.64 60.06-92.28 57.64-89.86C55.22-87.44 53.86-84.15 53.86-80.73L53.86-35.23C53.86-31.8 55.22-28.52 57.64-26.1C60.06-23.68 63.34-22.32 66.77-22.32C70.19-22.32 73.48-23.68 75.9-26.1C78.32-28.52 79.68-31.8 79.68-35.23L79.68-80.73C79.68-84.15 78.32-87.44 75.9-89.86C73.48-92.28 70.19-93.64 66.77-93.64Z"/>
  </g>
  <g id="Regular-L" transform="matrix(1 0 0 1 1383.88 1556)">
   <path class="hierarchical-0:secondary SFSymbolsPreview4D4D4D" d="M26.31-50.11C28.24-50.11 29.81-48.54 29.81-46.61L29.81-35.23C29.81-25.6 33.63-16.36 40.44-9.55C47.25-2.74 56.49 1.08 66.12 1.08C75.75 1.08 84.99-2.74 91.8-9.55C98.61-16.36 102.43-25.6 102.43-35.23L102.43-46.61C102.43-48.54 104-50.11 105.93-50.11C107.87-50.11 109.43-48.54 109.43-46.61L109.43-35.23C109.43-23.74 104.87-12.73 96.75-4.6C88.62 3.52 77.61 8.08 66.12 8.08C54.63 8.08 43.62 3.52 35.49-4.6C27.37-12.73 22.81-23.74 22.81-35.23L22.81-46.61C22.81-48.54 24.37-50.11 26.31-50.11ZM39.87 27.33C39.87 25.4 41.44 23.83 43.37 23.83L88.87 23.83C90.8 23.83 92.37 25.4 92.37 27.33C92.37 29.27 90.8 30.83 88.87 30.83L43.37 30.83C41.44 30.83 39.87 29.27 39.87 27.33ZM66.12 1.08C68.05 1.08 69.62 2.65 69.62 4.58L69.62 27.33C69.62 29.27 68.05 30.83 66.12 30.83C64.19 30.83 62.62 29.27 62.62 27.33L62.62 4.58C62.62 2.65 64.19 1.08 66.12 1.08Z"/>
   <path class="hierarchical-1:primary SFSymbolsPreview212121" d="M51.58-95.27C55.44-99.13 60.67-101.29 66.12-101.29C71.57-101.29 76.8-99.13 80.66-95.27C84.52-91.41 86.68-86.18 86.68-80.73L86.68-35.23C86.68-29.78 84.52-24.55 80.66-20.69C76.8-16.83 71.57-14.67 66.12-14.67C60.67-14.67 55.44-16.83 51.58-20.69C47.72-24.55 45.56-29.78 45.56-35.23L45.56-80.73C45.56-86.18 47.72-91.41 51.58-95.27ZM66.12-94.29C62.52-94.29 59.07-92.86 56.53-90.32C53.99-87.78 52.56-84.33 52.56-80.73L52.56-35.23C52.56-31.63 53.99-28.18 56.53-25.64C59.07-23.1 62.52-21.67 66.12-21.67C69.72-21.67 73.17-23.1 75.71-25.64C78.25-28.18 79.68-31.63 79.68-35.23L79.68-80.73C79.68-84.33 78.25-87.78 75.71-90.32C73.17-92.86 69.72-94.29 66.12-94.29Z"/>
  </g>
  <g id="Light-L" transform="matrix(1 0 0 1 1087.97 1556)">
   <path class="hierarchical-0:secondary SFSymbolsPreview4D4D4D" d="M25.51-49.3C27-49.3 28.21-48.1 28.21-46.6L28.21-35.23C28.21-25.39 32.12-15.95 39.08-8.99C46.04-2.03 55.48 1.88 65.32 1.88C75.16 1.88 84.6-2.03 91.56-8.99C98.52-15.95 102.43-25.39 102.43-35.23L102.43-46.6C102.43-48.1 103.64-49.3 105.13-49.3C106.62-49.3 107.83-48.1 107.83-46.6L107.83-35.23C107.83-23.95 103.35-13.14 95.38-5.17C87.41 2.8 76.6 7.28 65.32 7.28C54.05 7.28 43.23 2.8 35.26-5.17C27.29-13.14 22.81-23.95 22.81-35.23L22.81-46.6C22.81-48.1 24.02-49.3 25.51-49.3ZM39.87 27.33C39.87 25.84 41.08 24.63 42.57 24.63L88.07 24.63C89.56 24.63 90.77 25.84 90.77 27.33C90.77 28.82 89.56 30.03 88.07 30.03L42.57 30.03C41.08 30.03 39.87 28.82 39.87 27.33ZM65.32 1.88C66.81 1.88 68.02 3.09 68.02 4.58L68.02 27.33C68.02 28.82 66.81 30.03 65.32 30.03C63.83 30.03 62.62 28.82 62.62 27.33L62.62 4.58C62.62 3.09 63.83 1.88 65.32 1.88Z"/>
   <path class="hierarchical-1:primary SFSymbolsPreview212121" d="M51.35-94.7C55.05-98.41 60.08-100.49 65.32-100.49C70.56-100.49 75.59-98.41 79.29-94.7C83-91 85.08-85.97 85.08-80.73L85.08-35.23C85.08-29.99 83-24.96 79.29-21.26C75.59-17.55 70.56-15.47 65.32-15.47C60.08-15.47 55.05-17.55 51.35-21.26C47.64-24.96 45.56-29.99 45.56-35.23L45.56-80.73C45.56-85.97 47.64-91 51.35-94.7ZM65.32-95.09C61.51-95.09 57.86-93.58 55.16-90.89C52.47-88.19 50.96-84.54 50.96-80.73L50.96-35.23C50.96-31.42 52.47-27.77 55.16-25.07C57.86-22.38 61.51-20.87 65.32-20.87C69.13-20.87 72.78-22.38 75.48-25.07C78.17-27.77 79.68-31.42 79.68-35.23L79.68-80.73C79.68-84.54 78.17-88.19 75.48-90.89C72.78-93.58 69.13-95.09 65.32-95.09Z"/>
  </g>
  <g id="Thin-L" transform="matrix(1 0 0 1 792.305 1556)">
   <path class="hierarchical-0:secondary SFSymbolsPreview4D4D4D" d="M24.46-48.25C25.371-48.25 26.11-47.52 26.11-46.6L26.11-35.23C26.11-25.11 30.131-15.4 37.288-8.24C44.445-1.09 54.151 2.93 64.273 2.93C74.394 2.93 84.101-1.09 91.258-8.24C98.414-15.4 102.435-25.11 102.435-35.23L102.435-46.6C102.435-47.52 103.174-48.25 104.085-48.25C104.996-48.25 105.735-47.52 105.735-46.6L105.735-35.23C105.735-24.23 101.367-13.69 93.591-5.91C85.815 1.87 75.269 6.23 64.273 6.23C53.276 6.23 42.73 1.87 34.954-5.91C27.178-13.69 22.81-24.23 22.81-35.23L22.81-46.6C22.81-47.52 23.549-48.25 24.46-48.25ZM39.873 27.33C39.873 26.42 40.611 25.68 41.523 25.68L87.023 25.68C87.934 25.68 88.673 26.42 88.673 27.33C88.673 28.24 87.934 28.98 87.023 28.98L41.523 28.98C40.611 28.98 39.873 28.24 39.873 27.33ZM64.273 2.93C65.184 2.93 65.923 3.67 65.923 4.58L65.923 27.33C65.923 28.24 65.184 28.98 64.273 28.98C63.361 28.98 62.623 28.24 62.623 27.33L62.623 4.58C62.623 3.67 63.361 2.93 64.273 2.93Z"/>
   <path class="hierarchical-1:primary SFSymbolsPreview212121" d="M51.041-93.96C54.55-97.47 59.31-99.44 64.273-99.44C69.235-99.44 73.995-97.47 77.504-93.96C81.014-90.45 82.985-85.69 82.985-80.73L82.985-35.23C82.985-30.27 81.014-25.51 77.504-22C73.995-18.49 69.235-16.52 64.273-16.52C59.31-16.52 54.55-18.49 51.041-22C47.532-25.51 45.56-30.27 45.56-35.23L45.56-80.73C45.56-85.69 47.532-90.45 51.041-93.96ZM64.273-96.14C60.185-96.14 56.265-94.52 53.374-91.63C50.484-88.74 48.86-84.82 48.86-80.73L48.86-35.23C48.86-31.14 50.484-27.22 53.374-24.33C56.265-21.44 60.185-19.82 64.273-19.82C68.36-19.82 72.28-21.44 75.171-24.33C78.061-27.22 79.685-31.14 79.685-35.23L79.685-80.73C79.685-84.82 78.061-88.74 75.171-91.63C72.28-94.52 68.36-96.14 64.273-96.14Z"/>
  </g>
  <g id="Ultralight-L" transform="matrix(1 0 0 1 496.144 1556)">
   <path class="hierarchical-0:secondary SFSymbolsPreview4D4D4D" d="M23.91-47.71C24.517-47.71 25.01-47.21 25.01-46.61L25.01-35.23C25.01-24.96 29.089-15.12 36.349-7.86C43.609-0.6 53.455 3.48 63.722 3.48C73.99 3.48 83.836-0.6 91.096-7.86C98.356-15.12 102.435-24.96 102.435-35.23L102.435-46.61C102.435-47.21 102.927-47.71 103.535-47.71C104.142-47.71 104.635-47.21 104.635-46.61L104.635-35.23C104.635-24.38 100.324-13.98 92.652-6.3C84.979 1.37 74.573 5.68 63.722 5.68C52.872 5.68 42.465 1.37 34.793-6.3C27.12-13.98 22.81-24.38 22.81-35.23L22.81-46.61C22.81-47.21 23.302-47.71 23.91-47.71ZM39.872 27.33C39.872 26.72 40.365 26.23 40.972 26.23L86.472 26.23C87.08 26.23 87.572 26.72 87.572 27.33C87.572 27.94 87.08 28.43 86.472 28.43L40.972 28.43C40.365 28.43 39.872 27.94 39.872 27.33ZM63.722 3.48C64.33 3.48 64.822 3.97 64.822 4.58L64.822 27.33C64.822 27.94 64.33 28.43 63.722 28.43C63.115 28.43 62.622 27.94 62.622 27.33L62.622 4.58C62.622 3.97 63.115 3.48 63.722 3.48Z"/>
   <path class="hierarchical-1:primary SFSymbolsPreview212121" d="M50.88-93.57C54.286-96.98 58.905-98.89 63.722-98.89C68.539-98.89 73.159-96.98 76.565-93.57C79.971-90.17 81.885-85.55 81.885-80.73L81.885-35.23C81.885-30.42 79.971-25.8 76.565-22.39C73.159-18.98 68.539-17.07 63.722-17.07C58.905-17.07 54.286-18.98 50.88-22.39C47.473-25.8 45.56-30.42 45.56-35.23L45.56-80.73C45.56-85.55 47.473-90.17 50.88-93.57ZM63.722-96.69C59.489-96.69 55.429-95.01 52.435-92.02C49.442-89.03 47.76-84.97 47.76-80.73L47.76-35.23C47.76-31 49.442-26.94 52.435-23.94C55.429-20.95 59.489-19.27 63.722-19.27C67.956-19.27 72.016-20.95 75.01-23.94C78.003-26.94 79.685-31 79.685-35.23L79.685-80.73C79.685-84.97 78.003-89.03 75.01-92.02C72.016-95.01 67.956-96.69 63.722-96.69Z"/>
  </g>
  <g id="Black-M" transform="matrix(1 0 0 1 2872.41 1126)">
   <path class="hierarchical-0:secondary SFSymbolsPreview4D4D4D" d="M29.91-51.25C33.83-51.25 37.01-48.08 37.01-44.15L37.01-35.23C37.01-28.83 39.55-22.69 44.08-18.16C48.6-13.63 54.74-11.09 61.14-11.09C67.55-11.09 73.69-13.63 78.21-18.16C82.74-22.69 85.28-28.83 85.28-35.23L85.28-44.15C85.28-48.08 88.46-51.25 92.38-51.25C96.3-51.25 99.48-48.08 99.48-44.15L99.48-35.23C99.48-25.06 95.44-15.31 88.25-8.12C81.06-0.93 71.31 3.11 61.14 3.11C50.98 3.11 41.22-0.93 34.04-8.12C26.85-15.31 22.81-25.06 22.81-35.23L22.81-44.15C22.81-48.08 25.99-51.25 29.91-51.25ZM36.2 13.86C36.2 9.94 39.37 6.76 43.3 6.76L79 6.76C82.92 6.76 86.1 9.94 86.1 13.86C86.1 17.78 82.92 20.96 79 20.96L43.3 20.96C39.37 20.96 36.2 17.78 36.2 13.86ZM61.14-11.09C65.07-11.09 68.24-7.91 68.24-3.99L68.24 13.86C68.24 17.78 65.07 20.96 61.14 20.96C57.22 20.96 54.04 17.78 54.04 13.86L54.04-3.99C54.04-7.91 57.22-11.09 61.14-11.09Z"/>
   <path class="hierarchical-1:primary SFSymbolsPreview212121" d="M46.66-85.42C50.5-89.26 55.71-91.42 61.14-91.42C66.58-91.42 71.79-89.26 75.63-85.42C79.47-81.58 81.63-76.36 81.63-70.93L81.63-35.23C81.63-29.8 79.47-24.59 75.63-20.74C71.79-16.9 66.58-14.74 61.14-14.74C55.71-14.74 50.5-16.9 46.66-20.74C42.81-24.59 40.66-29.8 40.66-35.23L40.66-70.93C40.66-76.36 42.81-81.58 46.66-85.42ZM61.14-77.22C59.48-77.22 57.88-76.56 56.7-75.38C55.52-74.2 54.86-72.6 54.86-70.93L54.86-35.23C54.86-33.56 55.52-31.96 56.7-30.78C57.88-29.61 59.48-28.94 61.14-28.94C62.81-28.94 64.41-29.61 65.59-30.78C66.77-31.96 67.43-33.56 67.43-35.23L67.43-70.93C67.43-72.6 66.77-74.2 65.59-75.38C64.41-76.56 62.81-77.22 61.14-77.22Z"/>
  </g>
  <g id="Heavy-M" transform="matrix(1 0 0 1 2576.55 1126)">
   <path class="hierarchical-0:secondary SFSymbolsPreview4D4D4D" d="M29.06-50.41C32.51-50.41 35.31-47.61 35.31-44.16L35.31-35.23C35.31-28.6 37.94-22.25 42.62-17.56C47.31-12.88 53.67-10.24 60.29-10.24C66.92-10.24 73.28-12.88 77.96-17.56C82.65-22.25 85.28-28.6 85.28-35.23L85.28-44.16C85.28-47.61 88.08-50.41 91.53-50.41C94.98-50.41 97.78-47.61 97.78-44.16L97.78-35.23C97.78-25.29 93.83-15.75 86.8-8.72C79.77-1.69 70.24 2.26 60.29 2.26C50.35 2.26 40.82-1.69 33.79-8.72C26.75-15.75 22.81-25.29 22.81-35.23L22.81-44.16C22.81-47.61 25.6-50.41 29.06-50.41ZM36.19 13.86C36.19 10.4 38.99 7.61 42.44 7.61L78.14 7.61C81.6 7.61 84.39 10.4 84.39 13.86C84.39 17.31 81.6 20.11 78.14 20.11L42.44 20.11C38.99 20.11 36.19 17.31 36.19 13.86ZM60.29-10.24C63.75-10.24 66.54-7.44 66.54-3.99L66.54 13.86C66.54 17.31 63.75 20.11 60.29 20.11C56.84 20.11 54.04 17.31 54.04 13.86L54.04-3.99C54.04-7.44 56.84-10.24 60.29-10.24Z"/>
   <path class="hierarchical-1:primary SFSymbolsPreview212121" d="M46.41-84.81C50.09-88.5 55.09-90.57 60.29-90.57C65.5-90.57 70.5-88.5 74.18-84.81C77.86-81.13 79.93-76.14 79.93-70.93L79.93-35.23C79.93-30.02 77.86-25.03 74.18-21.34C70.5-17.66 65.5-15.59 60.29-15.59C55.09-15.59 50.09-17.66 46.41-21.34C42.73-25.03 40.66-30.02 40.66-35.23L40.66-70.93C40.66-76.14 42.73-81.13 46.41-84.81ZM60.29-78.07C58.4-78.07 56.59-77.31 55.25-75.98C53.91-74.64 53.16-72.82 53.16-70.93L53.16-35.23C53.16-33.34 53.91-31.52 55.25-30.18C56.59-28.84 58.4-28.09 60.29-28.09C62.19-28.09 64-28.84 65.34-30.18C66.68-31.52 67.43-33.34 67.43-35.23L67.43-70.93C67.43-72.82 66.68-74.64 65.34-75.98C64-77.31 62.19-78.07 60.29-78.07Z"/>
  </g>
  <g id="Bold-M" transform="matrix(1 0 0 1 2280.79 1126)">
   <path class="hierarchical-0:secondary SFSymbolsPreview4D4D4D" d="M28.11-49.46C31.03-49.46 33.41-47.08 33.41-44.16L33.41-35.23C33.41-28.35 36.14-21.76 41-16.89C45.87-12.03 52.47-9.29 59.35-9.29C66.22-9.29 72.82-12.03 77.69-16.89C82.55-21.76 85.28-28.35 85.28-35.23L85.28-44.16C85.28-47.08 87.66-49.46 90.58-49.46C93.51-49.46 95.88-47.08 95.88-44.16L95.88-35.23C95.88-25.54 92.03-16.25 85.18-9.4C78.33-2.54 69.04 1.31 59.35 1.31C49.65 1.31 40.36-2.54 33.51-9.4C26.66-16.25 22.81-25.54 22.81-35.23L22.81-44.16C22.81-47.08 25.18-49.46 28.11-49.46ZM36.19 13.86C36.19 10.93 38.57 8.56 41.49 8.56L77.19 8.56C80.12 8.56 82.49 10.93 82.49 13.86C82.49 16.79 80.12 19.16 77.19 19.16L41.49 19.16C38.57 19.16 36.19 16.79 36.19 13.86ZM59.34-9.29C62.27-9.29 64.64-6.92 64.64-3.99L64.64 13.86C64.64 16.78 62.27 19.16 59.34 19.16C56.42 19.16 54.04 16.78 54.04 13.86L54.04-3.99C54.04-6.92 56.42-9.29 59.34-9.29Z"/>
   <path class="hierarchical-1:primary SFSymbolsPreview212121" d="M46.13-84.14C49.64-87.65 54.39-89.62 59.34-89.62C64.3-89.62 69.05-87.65 72.56-84.14C76.06-80.64 78.03-75.89 78.03-70.93L78.03-35.23C78.03-30.27 76.06-25.52 72.56-22.02C69.05-18.51 64.3-16.54 59.34-16.54C54.39-16.54 49.64-18.51 46.13-22.02C42.63-25.52 40.66-30.27 40.66-35.23L40.66-70.93C40.66-75.89 42.63-80.64 46.13-84.14ZM59.34-79.02C57.2-79.02 55.14-78.17 53.63-76.65C52.11-75.13 51.26-73.07 51.26-70.93L51.26-35.23C51.26-33.08 52.11-31.03 53.63-29.51C55.14-27.99 57.2-27.14 59.34-27.14C61.49-27.14 63.55-27.99 65.06-29.51C66.58-31.03 67.43-33.08 67.43-35.23L67.43-70.93C67.43-73.07 66.58-75.13 65.06-76.65C63.55-78.17 61.49-79.02 59.34-79.02Z"/>
  </g>
  <g id="Semibold-M" transform="matrix(1 0 0 1 1984.72 1126)">
   <path class="hierarchical-0:secondary SFSymbolsPreview4D4D4D" d="M27.46-48.8C30.03-48.8 32.11-46.72 32.11-44.15L32.11-35.23C32.11-28.18 34.91-21.42 39.9-16.43C44.89-11.44 51.65-8.64 58.7-8.64C65.75-8.64 72.51-11.44 77.5-16.43C82.49-21.42 85.29-28.18 85.29-35.23L85.29-44.15C85.29-46.72 87.37-48.8 89.94-48.8C92.51-48.8 94.59-46.72 94.59-44.15L94.59-35.23C94.59-25.71 90.81-16.58 84.08-9.85C77.35-3.12 68.22 0.66 58.7 0.66C49.18 0.66 40.05-3.12 33.32-9.85C26.59-16.58 22.81-25.71 22.81-35.23L22.81-44.15C22.81-46.72 24.9-48.8 27.46-48.8ZM36.2 13.86C36.2 11.29 38.28 9.21 40.85 9.21L76.55 9.21C79.12 9.21 81.2 11.29 81.2 13.86C81.2 16.43 79.12 18.51 76.55 18.51L40.85 18.51C38.28 18.51 36.2 16.43 36.2 13.86ZM58.7-8.64C61.27-8.64 63.35-6.56 63.35-3.99L63.35 13.86C63.35 16.42 61.27 18.51 58.7 18.51C56.13 18.51 54.05 16.42 54.05 13.86L54.05-3.99C54.05-6.56 56.13-8.64 58.7-8.64Z"/>
   <path class="hierarchical-1:primary SFSymbolsPreview212121" d="M45.95-83.69C49.33-87.07 53.92-88.97 58.7-88.97C63.48-88.97 68.07-87.07 71.45-83.69C74.84-80.3 76.74-75.72 76.74-70.93L76.74-35.23C76.74-30.45 74.84-25.86 71.45-22.48C68.07-19.09 63.48-17.19 58.7-17.19C53.92-17.19 49.33-19.09 45.95-22.48C42.56-25.86 40.66-30.45 40.66-35.23L40.66-70.93C40.66-75.72 42.56-80.3 45.95-83.69ZM58.7-79.67C56.38-79.67 54.16-78.75 52.52-77.11C50.88-75.47 49.96-73.25 49.96-70.93L49.96-35.23C49.96-32.91 50.88-30.69 52.52-29.05C54.16-27.41 56.38-26.49 58.7-26.49C61.02-26.49 63.24-27.41 64.88-29.05C66.52-30.69 67.44-32.91 67.44-35.23L67.44-70.93C67.44-73.25 66.52-75.47 64.88-77.11C63.24-78.75 61.02-79.67 58.7-79.67Z"/>
  </g>
  <g id="Medium-M" transform="matrix(1 0 0 1 1688.51 1126)">
   <path class="hierarchical-0:secondary SFSymbolsPreview4D4D4D" d="M26.96-48.3C29.26-48.3 31.11-46.45 31.11-44.15L31.11-35.23C31.11-28.05 33.97-21.16 39.05-16.08C44.13-11 51.02-8.14 58.2-8.14C65.38-8.14 72.27-11 77.35-16.08C82.43-21.16 85.29-28.05 85.29-35.23L85.29-44.15C85.29-46.45 87.15-48.3 89.44-48.3C91.73-48.3 93.59-46.45 93.59-44.15L93.59-35.23C93.59-25.84 89.86-16.84 83.22-10.21C76.59-3.57 67.59 0.16 58.2 0.16C48.82 0.16 39.81-3.57 33.18-10.21C26.54-16.84 22.81-25.84 22.81-35.23L22.81-44.15C22.81-46.45 24.67-48.3 26.96-48.3ZM36.2 13.86C36.2 11.57 38.06 9.71 40.35 9.71L76.05 9.71C78.34 9.71 80.2 11.57 80.2 13.86C80.2 16.15 78.34 18.01 76.05 18.01L40.35 18.01C38.06 18.01 36.2 16.15 36.2 13.86ZM58.2-8.14C60.49-8.14 62.35-6.29 62.35-3.99L62.35 13.86C62.35 16.15 60.49 18.01 58.2 18.01C55.91 18.01 54.05 16.15 54.05 13.86L54.05-3.99C54.05-6.29 55.91-8.14 58.2-8.14Z"/>
   <path class="hierarchical-1:primary SFSymbolsPreview212121" d="M45.8-83.33C49.09-86.62 53.55-88.47 58.2-88.47C62.85-88.47 67.31-86.62 70.6-83.33C73.89-80.04 75.74-75.58 75.74-70.93L75.74-35.23C75.74-30.58 73.89-26.12 70.6-22.83C67.31-19.54 62.85-17.69 58.2-17.69C53.55-17.69 49.09-19.54 45.8-22.83C42.51-26.12 40.66-30.58 40.66-35.23L40.66-70.93C40.66-75.58 42.51-80.04 45.8-83.33ZM58.2-80.17C55.75-80.17 53.4-79.2 51.67-77.46C49.94-75.73 48.96-73.38 48.96-70.93L48.96-35.23C48.96-32.78 49.94-30.43 51.67-28.7C53.4-26.97 55.75-25.99 58.2-25.99C60.65-25.99 63-26.97 64.73-28.7C66.46-30.43 67.44-32.78 67.44-35.23L67.44-70.93C67.44-73.38 66.46-75.73 64.73-77.46C63-79.2 60.65-80.17 58.2-80.17Z"/>
  </g>
  <g id="Regular-M" transform="matrix(1 0 0 1 1392.45 1126)">
   <path class="hierarchical-0:secondary SFSymbolsPreview4D4D4D" d="M26.31-47.66C28.24-47.66 29.81-46.09 29.81-44.16L29.81-35.23C29.81-27.87 32.73-20.82 37.94-15.62C43.14-10.42 50.19-7.49 57.55-7.49C64.91-7.49 71.96-10.42 77.16-15.62C82.36-20.82 85.29-27.87 85.29-35.23L85.29-44.16C85.29-46.09 86.85-47.66 88.79-47.66C90.72-47.66 92.29-46.09 92.29-44.16L92.29-35.23C92.29-26.02 88.63-17.18 82.11-10.67C75.6-4.15 66.76-0.49 57.55-0.49C48.34-0.49 39.5-4.15 32.99-10.67C26.47-17.18 22.81-26.02 22.81-35.23L22.81-44.16C22.81-46.09 24.38-47.66 26.31-47.66ZM36.2 13.86C36.2 11.92 37.77 10.36 39.7 10.36L75.4 10.36C77.33 10.36 78.9 11.92 78.9 13.86C78.9 15.79 77.33 17.36 75.4 17.36L39.7 17.36C37.77 17.36 36.2 15.79 36.2 13.86ZM57.55-7.49C59.48-7.49 61.05-5.93 61.05-3.99L61.05 13.86C61.05 15.79 59.48 17.36 57.55 17.36C55.62 17.36 54.05 15.79 54.05 13.86L54.05-3.99C54.05-5.93 55.62-7.49 57.55-7.49Z"/>
   <path class="hierarchical-1:primary SFSymbolsPreview212121" d="M45.61-82.87C48.78-86.04 53.07-87.82 57.55-87.82C62.03-87.82 66.33-86.04 69.49-82.87C72.66-79.7 74.44-75.41 74.44-70.93L74.44-35.23C74.44-30.75 72.66-26.45 69.49-23.29C66.33-20.12 62.03-18.34 57.55-18.34C53.07-18.34 48.78-20.12 45.61-23.29C42.44-26.45 40.66-30.75 40.66-35.23L40.66-70.93C40.66-75.41 42.44-79.7 45.61-82.87ZM57.55-80.82C54.93-80.82 52.41-79.77 50.56-77.92C48.7-76.07 47.66-73.55 47.66-70.93L47.66-35.23C47.66-32.61 48.7-30.09 50.56-28.24C52.41-26.38 54.93-25.34 57.55-25.34C60.17-25.34 62.69-26.38 64.54-28.24C66.4-30.09 67.44-32.61 67.44-35.23L67.44-70.93C67.44-73.55 66.4-76.07 64.54-77.92C62.69-79.77 60.17-80.82 57.55-80.82Z"/>
  </g>
  <g id="Light-M" transform="matrix(1 0 0 1 1096.54 1126)">
   <path class="hierarchical-0:secondary SFSymbolsPreview4D4D4D" d="M25.51-46.86C27-46.86 28.21-45.65 28.21-44.16L28.21-35.23C28.21-27.66 31.22-20.4 36.57-15.05C41.92-9.7 49.18-6.69 56.75-6.69C64.32-6.69 71.58-9.7 76.93-15.05C82.28-20.4 85.29-27.66 85.29-35.23L85.29-44.16C85.29-45.65 86.5-46.86 87.99-46.86C89.48-46.86 90.69-45.65 90.69-44.16L90.69-35.23C90.69-26.23 87.11-17.6 80.75-11.23C74.38-4.87 65.75-1.29 56.75-1.29C47.75-1.29 39.12-4.87 32.75-11.23C26.39-17.6 22.81-26.23 22.81-35.23L22.81-44.16C22.81-45.65 24.02-46.86 25.51-46.86ZM36.2 13.86C36.2 12.37 37.41 11.16 38.9 11.16L74.6 11.16C76.09 11.16 77.3 12.37 77.3 13.86C77.3 15.35 76.09 16.56 74.6 16.56L38.9 16.56C37.41 16.56 36.2 15.35 36.2 13.86ZM56.75-6.69C58.24-6.69 59.45-5.48 59.45-3.99L59.45 13.86C59.45 15.35 58.24 16.56 56.75 16.56C55.26 16.56 54.05 15.35 54.05 13.86L54.05-3.99C54.05-5.48 55.26-6.69 56.75-6.69Z"/>
   <path class="hierarchical-1:primary SFSymbolsPreview212121" d="M45.37-82.31C48.39-85.32 52.48-87.02 56.75-87.02C61.02-87.02 65.11-85.32 68.13-82.31C71.14-79.29 72.84-75.2 72.84-70.93L72.84-35.23C72.84-30.97 71.14-26.87 68.13-23.86C65.11-20.84 61.02-19.14 56.75-19.14C52.48-19.14 48.39-20.84 45.37-23.86C42.36-26.87 40.66-30.97 40.66-35.23L40.66-70.93C40.66-75.2 42.36-79.29 45.37-82.31ZM56.75-81.62C53.92-81.62 51.2-80.49 49.19-78.49C47.19-76.48 46.06-73.77 46.06-70.93L46.06-35.23C46.06-32.4 47.19-29.68 49.19-27.67C51.2-25.67 53.92-24.54 56.75-24.54C59.58-24.54 62.3-25.67 64.31-27.67C66.31-29.68 67.44-32.4 67.44-35.23L67.44-70.93C67.44-73.77 66.31-76.48 64.31-78.49C62.3-80.49 59.58-81.62 56.75-81.62Z"/>
  </g>
  <g id="Thin-M" transform="matrix(1 0 0 1 800.88 1126)">
   <path class="hierarchical-0:secondary SFSymbolsPreview4D4D4D" d="M24.46-45.8C25.372-45.8 26.11-45.07 26.11-44.15L26.11-35.23C26.11-27.38 29.228-19.86 34.776-14.31C40.325-8.76 47.851-5.64 55.698-5.64C63.545-5.64 71.071-8.76 76.619-14.31C82.168-19.86 85.285-27.38 85.285-35.23L85.285-44.15C85.285-45.07 86.024-45.8 86.935-45.8C87.847-45.8 88.585-45.07 88.585-44.15L88.585-35.23C88.585-26.51 85.12-18.14 78.953-11.97C72.785-5.81 64.42-2.34 55.698-2.34C46.975-2.34 38.61-5.81 32.443-11.97C26.275-18.14 22.81-26.51 22.81-35.23L22.81-44.15C22.81-45.07 23.549-45.8 24.46-45.8ZM36.197 13.86C36.197 12.95 36.936 12.21 37.847 12.21L73.547 12.21C74.458 12.21 75.197 12.95 75.197 13.86C75.197 14.77 74.458 15.51 73.547 15.51L37.847 15.51C36.936 15.51 36.197 14.77 36.197 13.86ZM55.697-5.64C56.608-5.64 57.347-4.91 57.347-3.99L57.347 13.86C57.347 14.77 56.608 15.51 55.697 15.51C54.785 15.51 54.047 14.77 54.047 13.86L54.047-3.99C54.047-4.91 54.785-5.64 55.697-5.64Z"/>
   <path class="hierarchical-1:primary SFSymbolsPreview212121" d="M45.064-81.56C47.884-84.38 51.709-85.97 55.697-85.97C59.686-85.97 63.51-84.38 66.331-81.56C69.151-78.74 70.735-74.92 70.735-70.93L70.735-35.23C70.735-31.24 69.151-27.42 66.331-24.6C63.51-21.78 59.686-20.19 55.697-20.19C51.709-20.19 47.884-21.78 45.064-24.6C42.244-27.42 40.66-31.24 40.66-35.23L40.66-70.93C40.66-74.92 42.244-78.74 45.064-81.56ZM55.697-82.67C52.584-82.67 49.599-81.43 47.398-79.23C45.197-77.03 43.96-74.04 43.96-70.93L43.96-35.23C43.96-32.12 45.197-29.13 47.398-26.93C49.599-24.73 52.584-23.49 55.697-23.49C58.81-23.49 61.796-24.73 63.997-26.93C66.198-29.13 67.435-32.12 67.435-35.23L67.435-70.93C67.435-74.04 66.198-77.03 63.997-79.23C61.796-81.43 58.81-82.67 55.697-82.67Z"/>
  </g>
  <g id="Ultralight-M" transform="matrix(1 0 0 1 504.719 1126)">
   <path class="hierarchical-0:secondary SFSymbolsPreview4D4D4D" d="M23.91-45.25C24.518-45.25 25.01-44.76 25.01-44.15L25.01-35.23C25.01-27.24 28.185-19.57 33.837-13.92C39.489-8.27 47.155-5.09 55.148-5.09C63.141-5.09 70.806-8.27 76.458-13.92C82.11-19.57 85.285-27.24 85.285-35.23L85.285-44.15C85.285-44.76 85.778-45.25 86.385-45.25C86.993-45.25 87.485-44.76 87.485-44.15L87.485-35.23C87.485-26.65 84.078-18.43 78.014-12.36C71.949-6.3 63.724-2.89 55.148-2.89C46.571-2.89 38.346-6.3 32.282-12.36C26.217-18.43 22.81-26.65 22.81-35.23L22.81-44.15C22.81-44.76 23.303-45.25 23.91-45.25ZM36.199 13.86C36.199 13.25 36.691 12.76 37.299 12.76L72.999 12.76C73.606 12.76 74.099 13.25 74.099 13.86C74.099 14.47 73.606 14.96 72.999 14.96L37.299 14.96C36.691 14.96 36.199 14.47 36.199 13.86ZM55.148-5.09C55.756-5.09 56.248-4.6 56.248-3.99L56.248 13.86C56.248 14.46 55.756 14.96 55.148 14.96C54.541 14.96 54.048 14.46 54.048 13.86L54.048-3.99C54.048-4.6 54.541-5.09 55.148-5.09Z"/>
   <path class="hierarchical-1:primary SFSymbolsPreview212121" d="M44.903-81.17C47.62-83.89 51.305-85.42 55.147-85.42C58.99-85.42 62.675-83.89 65.391-81.17C68.108-78.46 69.635-74.77 69.635-70.93L69.635-35.23C69.635-31.39 68.108-27.7 65.391-24.99C62.675-22.27 58.99-20.74 55.147-20.74C51.305-20.74 47.62-22.27 44.903-24.99C42.186-27.7 40.66-31.39 40.66-35.23L40.66-70.93C40.66-74.77 42.186-78.46 44.903-81.17ZM55.147-83.22C51.888-83.22 48.763-81.92 46.459-79.62C44.154-77.31 42.86-74.19 42.86-70.93L42.86-35.23C42.86-31.97 44.154-28.85 46.459-26.54C48.763-24.24 51.888-22.94 55.147-22.94C58.406-22.94 61.531-24.24 63.836-26.54C66.14-28.85 67.435-31.97 67.435-35.23L67.435-70.93C67.435-74.19 66.14-77.31 63.836-79.62C61.531-81.92 58.406-83.22 55.147-83.22Z"/>
  </g>
  <g id="Black-S" transform="matrix(1 0 0 1 2879.15 696)">
   <path class="hierarchical-0:secondary SFSymbolsPreview4D4D4D" d="M29.91-49.434C33.83-49.434 37.01-46.255 37.01-42.334L37.01-35.334C37.01-30.719 38.84-26.293 42.11-23.03C45.37-19.767 49.8-17.934 54.41-17.934C59.03-17.934 63.45-19.767 66.71-23.03C69.98-26.293 71.81-30.719 71.81-35.334L71.81-42.334C71.81-46.255 74.99-49.434 78.91-49.434C82.83-49.434 86.01-46.255 86.01-42.334L86.01-35.334C86.01-26.953 82.68-18.915 76.76-12.989C70.83-7.063 62.79-3.734 54.41-3.734C46.03-3.734 37.99-7.063 32.07-12.989C26.14-18.915 22.81-26.953 22.81-35.334L22.81-42.334C22.81-46.255 25.99-49.434 29.91-49.434ZM33.31 3.166C33.31-0.755 36.49-3.934 40.41-3.934L68.41-3.934C72.33-3.934 75.51-0.755 75.51 3.166C75.51 7.088 72.33 10.266 68.41 10.266L40.41 10.266C36.49 10.266 33.31 7.088 33.31 3.166ZM54.41-17.934C58.33-17.934 61.51-14.755 61.51-10.834L61.51 3.166C61.51 7.088 58.33 10.266 54.41 10.266C50.49 10.266 47.31 7.088 47.31 3.166L47.31-10.834C47.31-14.755 50.49-17.934 54.41-17.934Z"/>
   <path class="hierarchical-1:primary SFSymbolsPreview212121" d="M41.97-75.779C45.27-79.079 49.74-80.934 54.41-80.934C59.08-80.934 63.56-79.079 66.86-75.779C70.16-72.478 72.01-68.001 72.01-63.334L72.01-35.334C72.01-30.666 70.16-26.189 66.86-22.889C63.56-19.588 59.08-17.734 54.41-17.734C49.74-17.734 45.27-19.588 41.97-22.889C38.67-26.189 36.81-30.666 36.81-35.334L36.81-63.334C36.81-68.001 38.67-72.478 41.97-75.779ZM54.41-66.734C53.51-66.734 52.64-66.375 52.01-65.738C51.37-65.1 51.01-64.235 51.01-63.334L51.01-35.334C51.01-34.432 51.37-33.567 52.01-32.929C52.64-32.292 53.51-31.934 54.41-31.934C55.31-31.934 56.18-32.292 56.81-32.929C57.45-33.567 57.81-34.432 57.81-35.334L57.81-63.334C57.81-64.235 57.45-65.1 56.81-65.738C56.18-66.375 55.31-66.734 54.41-66.734Z"/>
  </g>
  <g id="Heavy-S" transform="matrix(1 0 0 1 2583.28 696)">
   <path class="hierarchical-0:secondary SFSymbolsPreview4D4D4D" d="M29.06-48.582C32.51-48.582 35.31-45.784 35.31-42.332L35.31-35.332C35.31-30.492 37.23-25.85 40.66-22.427C44.08-19.005 48.72-17.082 53.56-17.082C58.4-17.082 63.04-19.005 66.47-22.427C69.89-25.85 71.81-30.492 71.81-35.332L71.81-42.332C71.81-45.784 74.61-48.582 78.06-48.582C81.51-48.582 84.31-45.784 84.31-42.332L84.31-35.332C84.31-27.177 81.07-19.355 75.3-13.589C69.54-7.822 61.72-4.582 53.56-4.582C45.41-4.582 37.58-7.822 31.82-13.589C26.05-19.355 22.81-27.177 22.81-35.332L22.81-42.332C22.81-45.784 25.61-48.582 29.06-48.582ZM33.31 3.168C33.31-0.284 36.11-3.082 39.56-3.082L67.56-3.082C71.01-3.082 73.81-0.284 73.81 3.168C73.81 6.62 71.01 9.418 67.56 9.418L39.56 9.418C36.11 9.418 33.31 6.62 33.31 3.168ZM53.56-17.082C57.01-17.082 59.81-14.284 59.81-10.832L59.81 3.168C59.81 6.62 57.01 9.418 53.56 9.418C50.11 9.418 47.31 6.62 47.31 3.168L47.31-10.832C47.31-14.284 50.11-17.082 53.56-17.082Z"/>
   <path class="hierarchical-1:primary SFSymbolsPreview212121" d="M41.72-75.176C44.86-78.317 49.12-80.082 53.56-80.082C58-80.082 62.26-78.317 65.41-75.176C68.55-72.035 70.31-67.774 70.31-63.332L70.31-35.332C70.31-30.89 68.55-26.629 65.41-23.488C62.26-20.347 58-18.582 53.56-18.582C49.12-18.582 44.86-20.347 41.72-23.488C38.58-26.629 36.81-30.89 36.81-35.332L36.81-63.332C36.81-67.774 38.58-72.035 41.72-75.176ZM53.56-67.582C52.43-67.582 51.35-67.134 50.56-66.337C49.76-65.54 49.31-64.459 49.31-63.332L49.31-35.332C49.31-34.205 49.76-33.124 50.56-32.327C51.35-31.53 52.43-31.082 53.56-31.082C54.69-31.082 55.77-31.53 56.57-32.327C57.36-33.124 57.81-34.205 57.81-35.332L57.81-63.332C57.81-64.459 57.36-65.54 56.57-66.337C55.77-67.134 54.69-67.582 53.56-67.582Z"/>
  </g>
  <g id="Bold-S" transform="matrix(1 0 0 1 2287.52 696)">
   <path class="hierarchical-0:secondary SFSymbolsPreview4D4D4D" d="M28.11-47.426C31.04-47.426 33.41-45.053 33.41-42.126L33.41-35.126C33.41-30.034 35.44-25.15 39.04-21.549C42.64-17.949 47.52-15.926 52.61-15.926C57.71-15.926 62.59-17.949 66.19-21.549C69.79-25.15 71.81-30.034 71.81-35.126L71.81-42.126C71.81-45.053 74.19-47.426 77.11-47.426C80.04-47.426 82.41-45.053 82.41-42.126L82.41-35.126C82.41-27.222 79.27-19.643 73.69-14.054C68.1-8.465 60.52-5.326 52.61-5.326C44.71-5.326 37.13-8.465 31.54-14.054C25.95-19.643 22.81-27.222 22.81-35.126L22.81-42.126C22.81-45.053 25.19-47.426 28.11-47.426ZM33.31 3.374C33.31 0.447 35.69-1.926 38.61-1.926L66.61-1.926C69.54-1.926 71.91 0.447 71.91 3.374C71.91 6.301 69.54 8.674 66.61 8.674L38.61 8.674C35.69 8.674 33.31 6.301 33.31 3.374ZM52.61-15.926C55.54-15.926 57.91-13.553 57.91-10.626L57.91 3.374C57.91 6.301 55.54 8.674 52.61 8.674C49.69 8.674 47.31 6.301 47.31 3.374L47.31-10.626C47.31-13.553 49.69-15.926 52.61-15.926Z"/>
   <path class="hierarchical-1:primary SFSymbolsPreview212121" d="M41.44-74.298C44.4-77.261 48.42-78.926 52.61-78.926C56.8-78.926 60.82-77.261 63.79-74.298C66.75-71.335 68.41-67.316 68.41-63.126L68.41-35.126C68.41-30.935 66.75-26.917 63.79-23.953C60.82-20.99 56.8-19.326 52.61-19.326C48.42-19.326 44.4-20.99 41.44-23.953C38.48-26.917 36.81-30.935 36.81-35.126L36.81-63.126C36.81-67.316 38.48-71.335 41.44-74.298ZM52.61-68.326C51.23-68.326 49.91-67.778 48.94-66.803C47.96-65.828 47.41-64.505 47.41-63.126L47.41-35.126C47.41-33.747 47.96-32.424 48.94-31.449C49.91-30.474 51.23-29.926 52.61-29.926C53.99-29.926 55.32-30.474 56.29-31.449C57.27-32.424 57.81-33.747 57.81-35.126L57.81-63.126C57.81-64.505 57.27-65.828 56.29-66.803C55.32-67.778 53.99-68.326 52.61-68.326Z"/>
  </g>
  <g id="Semibold-S" transform="matrix(1 0 0 1 1991.46 696)">
   <path class="hierarchical-0:secondary SFSymbolsPreview4D4D4D" d="M27.46-46.773C30.03-46.773 32.11-44.692 32.11-42.123L32.11-35.123C32.11-29.859 34.2-24.81 37.92-21.087C41.65-17.365 46.7-15.273 51.96-15.273C57.22-15.273 62.27-17.365 66-21.087C69.72-24.81 71.81-29.859 71.81-35.123L71.81-42.123C71.81-44.692 73.89-46.773 76.46-46.773C79.03-46.773 81.11-44.692 81.11-42.123L81.11-35.123C81.11-27.392 78.04-19.978 72.57-14.511C67.11-9.045 59.69-5.973 51.96-5.973C44.23-5.973 36.81-9.045 31.35-14.511C25.88-19.978 22.81-27.392 22.81-35.123L22.81-42.123C22.81-44.692 24.89-46.773 27.46-46.773ZM33.31 3.377C33.31 0.808 35.39-1.273 37.96-1.273L65.96-1.273C68.53-1.273 70.61 0.808 70.61 3.377C70.61 5.945 68.53 8.027 65.96 8.027L37.96 8.027C35.39 8.027 33.31 5.945 33.31 3.377ZM51.96-15.273C54.53-15.273 56.61-13.192 56.61-10.623L56.61 3.377C56.61 5.945 54.53 8.027 51.96 8.027C49.39 8.027 47.31 5.945 47.31 3.377L47.31-10.623C47.31-13.192 49.39-15.273 51.96-15.273Z"/>
   <path class="hierarchical-1:primary SFSymbolsPreview212121" d="M41.25-73.836C44.09-76.677 47.94-78.273 51.96-78.273C55.98-78.273 59.83-76.677 62.67-73.836C65.51-70.995 67.11-67.141 67.11-63.123L67.11-35.123C67.11-31.105 65.51-27.252 62.67-24.411C59.83-21.57 55.98-19.973 51.96-19.973C47.94-19.973 44.09-21.57 41.25-24.411C38.41-27.252 36.81-31.105 36.81-35.123L36.81-63.123C36.81-67.141 38.41-70.995 41.25-73.836ZM51.96-68.973C50.41-68.973 48.92-68.357 47.82-67.26C46.73-66.163 46.11-64.675 46.11-63.123L46.11-35.123C46.11-33.572 46.73-32.084 47.82-30.987C48.92-29.89 50.41-29.273 51.96-29.273C53.51-29.273 55-29.89 56.1-30.987C57.19-32.084 57.81-33.572 57.81-35.123L57.81-63.123C57.81-64.675 57.19-66.163 56.1-67.26C55-68.357 53.51-68.973 51.96-68.973Z"/>
  </g>
  <g id="Medium-S" transform="matrix(1 0 0 1 1695.25 696)">
   <path class="hierarchical-0:secondary SFSymbolsPreview4D4D4D" d="M26.96-46.273C29.25-46.273 31.11-44.415 31.11-42.123L31.11-35.123C31.11-29.726 33.25-24.55 37.07-20.734C40.89-16.917 46.06-14.773 51.46-14.773C56.86-14.773 62.03-16.917 65.85-20.734C69.67-24.55 71.81-29.726 71.81-35.123L71.81-42.123C71.81-44.415 73.67-46.273 75.96-46.273C78.25-46.273 80.11-44.415 80.11-42.123L80.11-35.123C80.11-27.525 77.09-20.238 71.72-14.865C66.35-9.492 59.06-6.473 51.46-6.473C43.86-6.473 36.57-9.492 31.2-14.865C25.83-20.238 22.81-27.525 22.81-35.123L22.81-42.123C22.81-44.415 24.67-46.273 26.96-46.273ZM33.31 3.377C33.31 1.085 35.17-0.773 37.46-0.773L65.46-0.773C67.75-0.773 69.61 1.085 69.61 3.377C69.61 5.669 67.75 7.527 65.46 7.527L37.46 7.527C35.17 7.527 33.31 5.669 33.31 3.377ZM51.46-14.773C53.75-14.773 55.61-12.915 55.61-10.623L55.61 3.377C55.61 5.669 53.75 7.527 51.46 7.527C49.17 7.527 47.31 5.669 47.31 3.377L47.31-10.623C47.31-12.915 49.17-14.773 51.46-14.773Z"/>
   <path class="hierarchical-1:primary SFSymbolsPreview212121" d="M41.1-73.483C43.85-76.23 47.57-77.773 51.46-77.773C55.35-77.773 59.07-76.23 61.82-73.483C64.57-70.735 66.11-67.009 66.11-63.123L66.11-35.123C66.11-31.238 64.57-27.512 61.82-24.764C59.07-22.017 55.35-20.473 51.46-20.473C47.57-20.473 43.85-22.017 41.1-24.764C38.35-27.512 36.81-31.238 36.81-35.123L36.81-63.123C36.81-67.009 38.35-70.735 41.1-73.483ZM51.46-69.473C49.78-69.473 48.16-68.804 46.97-67.614C45.78-66.423 45.11-64.808 45.11-63.123L45.11-35.123C45.11-33.439 45.78-31.824 46.97-30.633C48.16-29.442 49.78-28.773 51.46-28.773C53.14-28.773 54.76-29.442 55.95-30.633C57.14-31.824 57.81-33.439 57.81-35.123L57.81-63.123C57.81-64.808 57.14-66.423 55.95-67.614C54.76-68.804 53.14-69.473 51.46-69.473Z"/>
  </g>
  <g id="Regular-S" transform="matrix(1 0 0 1 1399.19 696)">
   <path class="hierarchical-0:secondary SFSymbolsPreview4D4D4D" d="M26.31-45.625C28.24-45.625 29.81-44.058 29.81-42.125L29.81-35.125C29.81-29.555 32.02-24.214 35.96-20.276C39.9-16.337 45.24-14.125 50.81-14.125C56.38-14.125 61.72-16.337 65.66-20.276C69.6-24.214 71.81-29.555 71.81-35.125L71.81-42.125C71.81-44.058 73.38-45.625 75.31-45.625C77.24-45.625 78.81-44.058 78.81-42.125L78.81-35.125C78.81-27.699 75.86-20.577 70.61-15.326C65.36-10.075 58.24-7.125 50.81-7.125C43.38-7.125 36.26-10.075 31.01-15.326C25.76-20.577 22.81-27.699 22.81-35.125L22.81-42.125C22.81-44.058 24.38-45.625 26.31-45.625ZM33.31 3.375C33.31 1.442 34.88-0.125 36.81-0.125L64.81-0.125C66.74-0.125 68.31 1.442 68.31 3.375C68.31 5.308 66.74 6.875 64.81 6.875L36.81 6.875C34.88 6.875 33.31 5.308 33.31 3.375ZM50.81-14.125C52.74-14.125 54.31-12.558 54.31-10.625L54.31 3.375C54.31 5.308 52.74 6.875 50.81 6.875C48.88 6.875 47.31 5.308 47.31 3.375L47.31-10.625C47.31-12.558 48.88-14.125 50.81-14.125Z"/>
   <path class="hierarchical-1:primary SFSymbolsPreview212121" d="M40.91-73.024C43.54-75.65 47.1-77.125 50.81-77.125C54.52-77.125 58.08-75.65 60.71-73.024C63.34-70.399 64.81-66.838 64.81-63.125L64.81-35.125C64.81-31.412 63.34-27.851 60.71-25.226C58.08-22.6 54.52-21.125 50.81-21.125C47.1-21.125 43.54-22.6 40.91-25.226C38.28-27.851 36.81-31.412 36.81-35.125L36.81-63.125C36.81-66.838 38.28-70.399 40.91-73.024ZM50.81-70.125C48.95-70.125 47.17-69.388 45.86-68.075C44.55-66.762 43.81-64.982 43.81-63.125L43.81-35.125C43.81-33.268 44.55-31.488 45.86-30.175C47.17-28.862 48.95-28.125 50.81-28.125C52.67-28.125 54.45-28.862 55.76-30.175C57.07-31.488 57.81-33.268 57.81-35.125L57.81-63.125C57.81-64.982 57.07-66.762 55.76-68.075C54.45-69.388 52.67-70.125 50.81-70.125Z"/>
  </g>
  <g id="Light-S" transform="matrix(1 0 0 1 1103.28 696)">
   <path class="hierarchical-0:secondary SFSymbolsPreview4D4D4D" d="M25.51-44.824C27-44.824 28.21-43.615 28.21-42.124L28.21-35.124C28.21-29.342 30.51-23.798 34.6-19.709C38.68-15.621 44.23-13.324 50.01-13.324C55.79-13.324 61.34-15.621 65.43-19.709C69.51-23.798 71.81-29.342 71.81-35.124L71.81-42.124C71.81-43.615 73.02-44.824 74.51-44.824C76-44.824 77.21-43.615 77.21-42.124L77.21-35.124C77.21-27.91 74.35-20.992 69.24-15.891C64.14-10.79 57.22-7.924 50.01-7.924C42.8-7.924 35.88-10.79 30.78-15.891C25.68-20.992 22.81-27.91 22.81-35.124L22.81-42.124C22.81-43.615 24.02-44.824 25.51-44.824ZM33.31 3.376C33.31 1.885 34.52 0.676 36.01 0.676L64.01 0.676C65.5 0.676 66.71 1.885 66.71 3.376C66.71 4.867 65.5 6.076 64.01 6.076L36.01 6.076C34.52 6.076 33.31 4.867 33.31 3.376ZM50.01-13.324C51.5-13.324 52.71-12.115 52.71-10.624L52.71 3.376C52.71 4.867 51.5 6.076 50.01 6.076C48.52 6.076 47.31 4.867 47.31 3.376L47.31-10.624C47.31-12.115 48.52-13.324 50.01-13.324Z"/>
   <path class="hierarchical-1:primary SFSymbolsPreview212121" d="M40.68-72.458C43.15-74.934 46.51-76.324 50.01-76.324C53.51-76.324 56.87-74.934 59.34-72.458C61.82-69.983 63.21-66.625 63.21-63.124L63.21-35.124C63.21-31.623 61.82-28.266 59.34-25.79C56.87-23.315 53.51-21.924 50.01-21.924C46.51-21.924 43.15-23.315 40.68-25.79C38.2-28.266 36.81-31.623 36.81-35.124L36.81-63.124C36.81-66.625 38.2-69.983 40.68-72.458ZM50.01-70.924C47.94-70.924 45.96-70.102 44.5-68.64C43.03-67.177 42.21-65.193 42.21-63.124L42.21-35.124C42.21-33.056 43.03-31.072 44.5-29.609C45.96-28.146 47.94-27.324 50.01-27.324C52.08-27.324 54.06-28.146 55.53-29.609C56.99-31.072 57.81-33.056 57.81-35.124L57.81-63.124C57.81-65.193 56.99-67.177 55.53-68.64C54.06-70.102 52.08-70.924 50.01-70.924Z"/>
  </g>
  <g id="Thin-S" transform="matrix(1 0 0 1 807.617 696)">
   <path class="hierarchical-0:secondary SFSymbolsPreview4D4D4D" d="M24.46-43.773C25.371-43.773 26.11-43.035 26.11-42.123L26.11-35.123C26.11-29.063 28.517-23.251 32.802-18.966C37.087-14.681 42.899-12.273 48.96-12.273C55.02-12.273 60.832-14.681 65.117-18.966C69.402-23.251 71.81-29.063 71.81-35.123L71.81-42.123C71.81-43.035 72.548-43.773 73.46-43.773C74.371-43.773 75.11-43.035 75.11-42.123L75.11-35.123C75.11-28.188 72.355-21.537 67.45-16.633C62.546-11.729 55.895-8.973 48.96-8.973C42.024-8.973 35.373-11.729 30.469-16.633C25.565-21.537 22.81-28.188 22.81-35.123L22.81-42.123C22.81-43.035 23.548-43.773 24.46-43.773ZM33.31 3.377C33.31 2.465 34.048 1.727 34.96 1.727L62.96 1.727C63.871 1.727 64.61 2.465 64.61 3.377C64.61 4.288 63.871 5.027 62.96 5.027L34.96 5.027C34.048 5.027 33.31 4.288 33.31 3.377ZM48.96-12.273C49.871-12.273 50.61-11.535 50.61-10.623L50.61 3.377C50.61 4.288 49.871 5.027 48.96 5.027C48.048 5.027 47.31 4.288 47.31 3.377L47.31-10.623C47.31-11.535 48.048-12.273 48.96-12.273Z"/>
   <path class="hierarchical-1:primary SFSymbolsPreview212121" d="M40.368-71.715C42.647-73.993 45.737-75.273 48.96-75.273C52.182-75.273 55.272-73.993 57.551-71.715C59.83-69.436 61.11-66.346 61.11-63.123L61.11-35.123C61.11-31.901 59.83-28.811 57.551-26.532C55.272-24.254 52.182-22.973 48.96-22.973C45.737-22.973 42.647-24.254 40.368-26.532C38.09-28.811 36.81-31.901 36.81-35.123L36.81-63.123C36.81-66.346 38.09-69.436 40.368-71.715ZM48.96-71.973C46.612-71.973 44.361-71.041 42.702-69.381C41.042-67.722 40.11-65.471 40.11-63.123L40.11-35.123C40.11-32.776 41.042-30.525 42.702-28.866C44.361-27.206 46.612-26.273 48.96-26.273C51.307-26.273 53.558-27.206 55.218-28.866C56.877-30.525 57.81-32.776 57.81-35.123L57.81-63.123C57.81-65.471 56.877-67.722 55.218-69.381C53.558-71.041 51.307-71.973 48.96-71.973Z"/>
  </g>
  <g id="Ultralight-S" transform="matrix(1 0 0 1 511.456 696)">
   <path class="hierarchical-0:secondary SFSymbolsPreview4D4D4D" d="M23.91-43.227C24.518-43.227 25.01-42.734 25.01-42.127L25.01-35.127C25.01-28.92 27.476-22.969 31.864-18.58C36.252-14.192 42.204-11.727 48.41-11.727C54.616-11.727 60.568-14.192 64.957-18.58C69.345-22.969 71.81-28.92 71.81-35.127L71.81-42.127C71.81-42.734 72.303-43.227 72.91-43.227C73.518-43.227 74.01-42.734 74.01-42.127L74.01-35.127C74.01-28.337 71.313-21.826 66.512-17.025C61.711-12.224 55.2-9.527 48.41-9.527C41.621-9.527 35.109-12.224 30.308-17.025C25.508-21.826 22.81-28.337 22.81-35.127L22.81-42.127C22.81-42.734 23.303-43.227 23.91-43.227ZM33.31 3.373C33.31 2.766 33.803 2.273 34.41 2.273L62.41 2.273C63.018 2.273 63.51 2.766 63.51 3.373C63.51 3.981 63.018 4.473 62.41 4.473L34.41 4.473C33.803 4.473 33.31 3.981 33.31 3.373ZM48.41-11.727C49.018-11.727 49.51-11.234 49.51-10.627L49.51 3.373C49.51 3.981 49.018 4.473 48.41 4.473C47.803 4.473 47.31 3.981 47.31 3.373L47.31-10.627C47.31-11.234 47.803-11.727 48.41-11.727Z"/>
   <path class="hierarchical-1:primary SFSymbolsPreview212121" d="M40.208-71.329C42.383-73.504 45.334-74.727 48.41-74.727C51.487-74.727 54.437-73.504 56.613-71.329C58.788-69.154 60.01-66.203 60.01-63.127L60.01-35.127C60.01-32.05 58.788-29.1 56.613-26.924C54.437-24.749 51.487-23.527 48.41-23.527C45.334-23.527 42.383-24.749 40.208-26.924C38.033-29.1 36.81-32.05 36.81-35.127L36.81-63.127C36.81-66.203 38.033-69.154 40.208-71.329ZM48.41-72.527C45.917-72.527 43.526-71.536 41.764-69.773C40.001-68.011 39.01-65.62 39.01-63.127L39.01-35.127C39.01-32.634 40.001-30.243 41.764-28.48C43.526-26.717 45.917-25.727 48.41-25.727C50.903-25.727 53.294-26.717 55.057-28.48C56.82-30.243 57.81-32.634 57.81-35.127L57.81-63.127C57.81-65.62 56.82-68.011 55.057-69.773C53.294-71.536 50.903-72.527 48.41-72.527Z"/>
  </g>
 </g>
</svg>
