<?xml version="1.0" encoding="UTF-8"?>
<!--Generator: Apple Native CoreSVG 175-->
<!DOCTYPE svg
PUBLIC "-//W3C//DTD SVG 1.1//EN"
       "http://www.w3.org/Graphics/SVG/1.1/DTD/svg11.dtd">
<svg version="1.1" xmlns="http://www.w3.org/2000/svg" xmlns:xlink="http://www.w3.org/1999/xlink" width="3300" height="2200">
 <!--glyph: "", point size: 100.0, font version: "17.0d12e1", template writer version: "65.1"-->
 <g id="Notes">
  <rect height="2200" id="artboard" style="fill:white;opacity:1" width="3300" x="0" y="0"/>
  <line style="fill:none;stroke:black;opacity:1;stroke-width:0.5;" x1="263" x2="3036" y1="292" y2="292"/>
  <text style="stroke:none;fill:black;font-family:sans-serif;font-size:13;font-weight:bold;" transform="matrix(1 0 0 1 263 322)">Weight/Scale Variations</text>
  <text style="stroke:none;fill:black;font-family:sans-serif;font-size:13;text-anchor:middle;" transform="matrix(1 0 0 1 559.711 322)">Ultralight</text>
  <text style="stroke:none;fill:black;font-family:sans-serif;font-size:13;text-anchor:middle;" transform="matrix(1 0 0 1 856.422 322)">Thin</text>
  <text style="stroke:none;fill:black;font-family:sans-serif;font-size:13;text-anchor:middle;" transform="matrix(1 0 0 1 1153.13 322)">Light</text>
  <text style="stroke:none;fill:black;font-family:sans-serif;font-size:13;text-anchor:middle;" transform="matrix(1 0 0 1 1449.84 322)">Regular</text>
  <text style="stroke:none;fill:black;font-family:sans-serif;font-size:13;text-anchor:middle;" transform="matrix(1 0 0 1 1746.56 322)">Medium</text>
  <text style="stroke:none;fill:black;font-family:sans-serif;font-size:13;text-anchor:middle;" transform="matrix(1 0 0 1 2043.27 322)">Semibold</text>
  <text style="stroke:none;fill:black;font-family:sans-serif;font-size:13;text-anchor:middle;" transform="matrix(1 0 0 1 2339.98 322)">Bold</text>
  <text style="stroke:none;fill:black;font-family:sans-serif;font-size:13;text-anchor:middle;" transform="matrix(1 0 0 1 2636.69 322)">Heavy</text>
  <text style="stroke:none;fill:black;font-family:sans-serif;font-size:13;text-anchor:middle;" transform="matrix(1 0 0 1 2933.4 322)">Black</text>
  <line style="fill:none;stroke:black;opacity:1;stroke-width:0.5;" x1="263" x2="3036" y1="1903" y2="1903"/>
  <g transform="matrix(1 0 0 1 263 1933)">
   <path d="M9.24805 0.830078Q10.8691 0.830078 12.2949 0.214844Q13.7207-0.400391 14.8096-1.49414Q15.8984-2.58789 16.5186-4.01367Q17.1387-5.43945 17.1387-7.05078Q17.1387-8.66211 16.5186-10.0879Q15.8984-11.5137 14.8047-12.6074Q13.7109-13.7012 12.2852-14.3164Q10.8594-14.9316 9.23828-14.9316Q7.62695-14.9316 6.20117-14.3164Q4.77539-13.7012 3.69141-12.6074Q2.60742-11.5137 1.9873-10.0879Q1.36719-8.66211 1.36719-7.05078Q1.36719-5.43945 1.9873-4.01367Q2.60742-2.58789 3.69629-1.49414Q4.78516-0.400391 6.21094 0.214844Q7.63672 0.830078 9.24805 0.830078ZM9.24805-0.654297Q7.91992-0.654297 6.7627-1.14746Q5.60547-1.64062 4.73145-2.51953Q3.85742-3.39844 3.36426-4.56055Q2.87109-5.72266 2.87109-7.05078Q2.87109-8.37891 3.35938-9.54102Q3.84766-10.7031 4.72168-11.582Q5.5957-12.4609 6.75293-12.9541Q7.91016-13.4473 9.23828-13.4473Q10.5762-13.4473 11.7334-12.9541Q12.8906-12.4609 13.7695-11.582Q14.6484-10.7031 15.1465-9.54102Q15.6445-8.37891 15.6445-7.05078Q15.6445-5.72266 15.1514-4.56055Q14.6582-3.39844 13.7842-2.51953Q12.9102-1.64062 11.748-1.14746Q10.5859-0.654297 9.24805-0.654297ZM5.6543-7.05078Q5.6543-6.72852 5.85938-6.52832Q6.06445-6.32812 6.40625-6.32812L8.51562-6.32812L8.51562-4.20898Q8.51562-3.88672 8.71094-3.67676Q8.90625-3.4668 9.23828-3.4668Q9.56055-3.4668 9.77051-3.67676Q9.98047-3.88672 9.98047-4.20898L9.98047-6.32812L12.0898-6.32812Q12.4219-6.32812 12.627-6.52832Q12.832-6.72852 12.832-7.05078Q12.832-7.38281 12.627-7.58789Q12.4219-7.79297 12.0898-7.79297L9.98047-7.79297L9.98047-9.90234Q9.98047-10.2344 9.77051-10.4443Q9.56055-10.6543 9.23828-10.6543Q8.90625-10.6543 8.71094-10.4443Q8.51562-10.2344 8.51562-9.90234L8.51562-7.79297L6.40625-7.79297Q6.06445-7.79297 5.85938-7.58789Q5.6543-7.38281 5.6543-7.05078Z"/>
  </g>
  <g transform="matrix(1 0 0 1 281.867 1933)">
   <path d="M11.709 2.91016Q13.75 2.91016 15.5518 2.12891Q17.3535 1.34766 18.7305-0.0292969Q20.1074-1.40625 20.8887-3.20801Q21.6699-5.00977 21.6699-7.05078Q21.6699-9.0918 20.8887-10.8936Q20.1074-12.6953 18.7305-14.0723Q17.3535-15.4492 15.5469-16.2305Q13.7402-17.0117 11.6992-17.0117Q9.6582-17.0117 7.85645-16.2305Q6.05469-15.4492 4.68262-14.0723Q3.31055-12.6953 2.5293-10.8936Q1.74805-9.0918 1.74805-7.05078Q1.74805-5.00977 2.5293-3.20801Q3.31055-1.40625 4.6875-0.0292969Q6.06445 1.34766 7.86621 2.12891Q9.66797 2.91016 11.709 2.91016ZM11.709 1.25Q9.98047 1.25 8.47656 0.605469Q6.97266-0.0390625 5.83496-1.17676Q4.69727-2.31445 4.05762-3.81836Q3.41797-5.32227 3.41797-7.05078Q3.41797-8.7793 4.05762-10.2832Q4.69727-11.7871 5.83008-12.9297Q6.96289-14.0723 8.4668-14.7119Q9.9707-15.3516 11.6992-15.3516Q13.4277-15.3516 14.9316-14.7119Q16.4355-14.0723 17.5781-12.9297Q18.7207-11.7871 19.3652-10.2832Q20.0098-8.7793 20.0098-7.05078Q20.0098-5.32227 19.3701-3.81836Q18.7305-2.31445 17.5928-1.17676Q16.4551-0.0390625 14.9463 0.605469Q13.4375 1.25 11.709 1.25ZM7.17773-7.05078Q7.17773-6.69922 7.41211-6.47461Q7.64648-6.25 8.01758-6.25L10.8887-6.25L10.8887-3.36914Q10.8887-2.99805 11.1133-2.76855Q11.3379-2.53906 11.6895-2.53906Q12.0605-2.53906 12.29-2.76855Q12.5195-2.99805 12.5195-3.36914L12.5195-6.25L15.4004-6.25Q15.7715-6.25 16.001-6.47461Q16.2305-6.69922 16.2305-7.05078Q16.2305-7.42188 16.001-7.65137Q15.7715-7.88086 15.4004-7.88086L12.5195-7.88086L12.5195-10.752Q12.5195-11.1328 12.29-11.3623Q12.0605-11.5918 11.6895-11.5918Q11.3379-11.5918 11.1133-11.3574Q10.8887-11.123 10.8887-10.752L10.8887-7.88086L8.01758-7.88086Q7.63672-7.88086 7.40723-7.65137Q7.17773-7.42188 7.17773-7.05078Z"/>
  </g>
  <g transform="matrix(1 0 0 1 305.646 1933)">
   <path d="M14.9707 5.66406Q17.0605 5.66406 18.96 5.01465Q20.8594 4.36523 22.4512 3.19336Q24.043 2.02148 25.2197 0.429688Q26.3965-1.16211 27.0459-3.06641Q27.6953-4.9707 27.6953-7.05078Q27.6953-9.14062 27.0459-11.04Q26.3965-12.9395 25.2197-14.5312Q24.043-16.123 22.4512-17.2998Q20.8594-18.4766 18.9551-19.126Q17.0508-19.7754 14.9609-19.7754Q12.8711-19.7754 10.9717-19.126Q9.07227-18.4766 7.48535-17.2998Q5.89844-16.123 4.72168-14.5312Q3.54492-12.9395 2.90039-11.04Q2.25586-9.14062 2.25586-7.05078Q2.25586-4.9707 2.90527-3.06641Q3.55469-1.16211 4.72656 0.429688Q5.89844 2.02148 7.49023 3.19336Q9.08203 4.36523 10.9814 5.01465Q12.8809 5.66406 14.9707 5.66406ZM14.9707 3.84766Q13.1641 3.84766 11.5283 3.2959Q9.89258 2.74414 8.53516 1.74805Q7.17773 0.751953 6.17676-0.610352Q5.17578-1.97266 4.62891-3.6084Q4.08203-5.24414 4.08203-7.05078Q4.08203-8.86719 4.62891-10.5029Q5.17578-12.1387 6.17188-13.501Q7.16797-14.8633 8.52539-15.8594Q9.88281-16.8555 11.5186-17.4023Q13.1543-17.9492 14.9609-17.9492Q16.7773-17.9492 18.4131-17.4023Q20.0488-16.8555 21.4111-15.8594Q22.7734-14.8633 23.7695-13.501Q24.7656-12.1387 25.3174-10.5029Q25.8691-8.86719 25.8691-7.05078Q25.8789-5.24414 25.332-3.6084Q24.7852-1.97266 23.7842-0.610352Q22.7832 0.751953 21.4209 1.74805Q20.0586 2.74414 18.4229 3.2959Q16.7871 3.84766 14.9707 3.84766ZM9.19922-7.05078Q9.19922-6.66992 9.45801-6.4209Q9.7168-6.17188 10.1172-6.17188L14.0625-6.17188L14.0625-2.2168Q14.0625-1.81641 14.3115-1.55762Q14.5605-1.29883 14.9512-1.29883Q15.3516-1.29883 15.6104-1.55273Q15.8691-1.80664 15.8691-2.2168L15.8691-6.17188L19.8242-6.17188Q20.2246-6.17188 20.4785-6.4209Q20.7324-6.66992 20.7324-7.05078Q20.7324-7.46094 20.4785-7.71484Q20.2246-7.96875 19.8242-7.96875L15.8691-7.96875L15.8691-11.9141Q15.8691-12.3242 15.6104-12.583Q15.3516-12.8418 14.9512-12.8418Q14.5605-12.8418 14.3115-12.583Q14.0625-12.3242 14.0625-11.9141L14.0625-7.96875L10.1172-7.96875Q9.70703-7.96875 9.45312-7.71484Q9.19922-7.46094 9.19922-7.05078Z"/>
  </g>
  <text style="stroke:none;fill:black;font-family:sans-serif;font-size:13;font-weight:bold;" transform="matrix(1 0 0 1 263 1953)">Design Variations</text>
  <text style="stroke:none;fill:black;font-family:sans-serif;font-size:13;" transform="matrix(1 0 0 1 263 1971)">Symbols are supported in up to nine weights and three scales.</text>
  <text style="stroke:none;fill:black;font-family:sans-serif;font-size:13;" transform="matrix(1 0 0 1 263 1989)">For optimal layout with text and other symbols, vertically align</text>
  <text style="stroke:none;fill:black;font-family:sans-serif;font-size:13;" transform="matrix(1 0 0 1 263 2007)">symbols with the adjacent text.</text>
  <line style="fill:none;stroke:#00AEEF;stroke-width:0.5;opacity:1.0;" x1="776" x2="776" y1="1919" y2="1933"/>
  <g transform="matrix(1 0 0 1 776 1933)">
   <path d="M3.31055 0.15625Q3.70117 0.15625 3.91602-0.00976562Q4.13086-0.175781 4.26758-0.585938L5.52734-4.0332L11.2891-4.0332L12.5488-0.585938Q12.6855-0.175781 12.9004-0.00976562Q13.1152 0.15625 13.4961 0.15625Q13.8867 0.15625 14.1162-0.0585938Q14.3457-0.273438 14.3457-0.644531Q14.3457-0.869141 14.2383-1.17188L9.6582-13.3691Q9.48242-13.8184 9.17969-14.043Q8.87695-14.2676 8.4082-14.2676Q7.5-14.2676 7.17773-13.3789L2.59766-1.16211Q2.49023-0.859375 2.49023-0.634766Q2.49023-0.263672 2.70996-0.0537109Q2.92969 0.15625 3.31055 0.15625ZM6.00586-5.51758L8.37891-12.0898L8.42773-12.0898L10.8008-5.51758Z"/>
  </g>
  <line style="fill:none;stroke:#00AEEF;stroke-width:0.5;opacity:1.0;" x1="793.197" x2="793.197" y1="1919" y2="1933"/>
  <text style="stroke:none;fill:black;font-family:sans-serif;font-size:13;font-weight:bold;" transform="matrix(1 0 0 1 776 1953)">Margins</text>
  <text style="stroke:none;fill:black;font-family:sans-serif;font-size:13;" transform="matrix(1 0 0 1 776 1971)">Leading and trailing margins on the left and right side of each symbol</text>
  <text style="stroke:none;fill:black;font-family:sans-serif;font-size:13;" transform="matrix(1 0 0 1 776 1989)">can be adjusted by modifying the x-location of the margin guidelines.</text>
  <text style="stroke:none;fill:black;font-family:sans-serif;font-size:13;" transform="matrix(1 0 0 1 776 2007)">Modifications are automatically applied proportionally to all</text>
  <text style="stroke:none;fill:black;font-family:sans-serif;font-size:13;" transform="matrix(1 0 0 1 776 2025)">scales and weights.</text>
  <g transform="matrix(1 0 0 1 1289 1933)">
   <path d="M2.8418 1.86523L4.54102 3.57422Q5.18555 4.22852 5.90332 4.17969Q6.62109 4.13086 7.31445 3.35938L18.0078-8.42773L17.041-9.4043L6.42578 2.27539Q6.16211 2.57812 5.89355 2.61719Q5.625 2.65625 5.27344 2.30469L4.10156 1.14258Q3.75 0.791016 3.79395 0.522461Q3.83789 0.253906 4.14062-0.0195312L15.6152-10.8203L14.6387-11.7871L3.04688-0.898438Q2.30469-0.214844 2.25098 0.498047Q2.19727 1.21094 2.8418 1.86523ZM9.25781-16.3281Q8.94531-16.0254 8.90625-15.6348Q8.86719-15.2441 9.04297-14.9512Q9.21875-14.6777 9.55566-14.541Q9.89258-14.4043 10.3809-14.5215Q11.4746-14.7754 12.5977-14.7314Q13.7207-14.6875 14.7949-13.9844L14.209-12.5293Q13.9551-11.9043 14.0674-11.4404Q14.1797-10.9766 14.5801-10.5664L16.875-8.25195Q17.2363-7.88086 17.5781-7.82227Q17.9199-7.76367 18.3398-7.8418L19.4043-8.03711L20.0684-7.36328L20.0293-6.80664Q20-6.43555 20.1221-6.12305Q20.2441-5.81055 20.6055-5.44922L21.3672-4.70703Q21.7285-4.3457 22.1533-4.33105Q22.5781-4.31641 22.9297-4.66797L25.8398-7.58789Q26.1914-7.93945 26.1816-8.35449Q26.1719-8.76953 25.8105-9.13086L25.0391-9.89258Q24.6875-10.2539 24.3799-10.3857Q24.0723-10.5176 23.7109-10.4883L23.1348-10.4395L22.4902-11.0742L22.7344-12.1973Q22.832-12.6172 22.6953-12.9834Q22.5586-13.3496 22.1191-13.7891L19.9219-15.9766Q18.6719-17.2168 17.2607-17.8369Q15.8496-18.457 14.4189-18.4814Q12.9883-18.5059 11.665-17.959Q10.3418-17.4121 9.25781-16.3281ZM10.752-15.957Q11.6602-16.6211 12.7002-16.9043Q13.7402-17.1875 14.8047-17.085Q15.8691-16.9824 16.8701-16.5137Q17.8711-16.0449 18.7012-15.2051L21.1328-12.793Q21.3086-12.6172 21.3525-12.4512Q21.3965-12.2852 21.3379-12.0312L21.0156-10.5469L22.5195-9.0625L23.5059-9.12109Q23.6914-9.13086 23.7891-9.09668Q23.8867-9.0625 24.0332-8.91602L24.6094-8.33984L22.168-5.89844L21.5918-6.47461Q21.4453-6.62109 21.4062-6.71875Q21.3672-6.81641 21.377-7.01172L21.4453-7.98828L19.9512-9.47266L18.4277-9.21875Q18.1836-9.16992 18.042-9.2041Q17.9004-9.23828 17.7148-9.41406L15.7129-11.416Q15.5176-11.5918 15.4932-11.7529Q15.4688-11.9141 15.5859-12.1875L16.4648-14.2773Q15.293-15.3711 13.8281-15.791Q12.3633-16.2109 10.8398-15.7617Q10.7227-15.7324 10.6885-15.8057Q10.6543-15.8789 10.752-15.957Z"/>
  </g>
  <text style="stroke:none;fill:black;font-family:sans-serif;font-size:13;font-weight:bold;" transform="matrix(1 0 0 1 1289 1953)">Exporting</text>
  <text style="stroke:none;fill:black;font-family:sans-serif;font-size:13;" transform="matrix(1 0 0 1 1289 1971)">Symbols should be outlined when exporting to ensure the</text>
  <text style="stroke:none;fill:black;font-family:sans-serif;font-size:13;" transform="matrix(1 0 0 1 1289 1989)">design is preserved when submitting to Xcode.</text>
  <text id="template-version" style="stroke:none;fill:black;font-family:sans-serif;font-size:13;text-anchor:end;" transform="matrix(1 0 0 1 3036 1933)">Template v.3.0</text>
  <text style="stroke:none;fill:black;font-family:sans-serif;font-size:13;text-anchor:end;" transform="matrix(1 0 0 1 3036 1951)">Requires Xcode 13 or greater</text>
  <text id="descriptive-name" style="stroke:none;fill:black;font-family:sans-serif;font-size:13;text-anchor:end;" transform="matrix(1 0 0 1 3036 1969)">Generated from life-buoy</text>
  <text style="stroke:none;fill:black;font-family:sans-serif;font-size:13;text-anchor:end;" transform="matrix(1 0 0 1 3036 1987)">Typeset at 100 points</text>
  <text style="stroke:none;fill:black;font-family:sans-serif;font-size:13;" transform="matrix(1 0 0 1 263 726)">Small</text>
  <text style="stroke:none;fill:black;font-family:sans-serif;font-size:13;" transform="matrix(1 0 0 1 263 1156)">Medium</text>
  <text style="stroke:none;fill:black;font-family:sans-serif;font-size:13;" transform="matrix(1 0 0 1 263 1586)">Large</text>
 </g>
 <g id="Guides">
  <g id="H-reference" style="fill:#27AAE1;stroke:none;" transform="matrix(1 0 0 1 339 696)">
   <path d="M0.976562 0L3.66211 0L29.3457-67.1387L30.0293-67.1387L30.0293-70.459L28.125-70.459ZM11.6699-24.4629L46.9727-24.4629L46.2402-26.709L12.4512-26.709ZM55.127 0L57.7637 0L30.6152-70.459L29.4434-70.459L29.4434-67.1387Z"/>
  </g>
  <line id="Baseline-S" style="fill:none;stroke:#27AAE1;opacity:1;stroke-width:0.5;" x1="263" x2="3036" y1="696" y2="696"/>
  <line id="Capline-S" style="fill:none;stroke:#27AAE1;opacity:1;stroke-width:0.5;" x1="263" x2="3036" y1="625.541" y2="625.541"/>
  <g id="H-reference" style="fill:#27AAE1;stroke:none;" transform="matrix(1 0 0 1 339 1126)">
   <path d="M0.976562 0L3.66211 0L29.3457-67.1387L30.0293-67.1387L30.0293-70.459L28.125-70.459ZM11.6699-24.4629L46.9727-24.4629L46.2402-26.709L12.4512-26.709ZM55.127 0L57.7637 0L30.6152-70.459L29.4434-70.459L29.4434-67.1387Z"/>
  </g>
  <line id="Baseline-M" style="fill:none;stroke:#27AAE1;opacity:1;stroke-width:0.5;" x1="263" x2="3036" y1="1126" y2="1126"/>
  <line id="Capline-M" style="fill:none;stroke:#27AAE1;opacity:1;stroke-width:0.5;" x1="263" x2="3036" y1="1055.54" y2="1055.54"/>
  <g id="H-reference" style="fill:#27AAE1;stroke:none;" transform="matrix(1 0 0 1 339 1556)">
   <path d="M0.976562 0L3.66211 0L29.3457-67.1387L30.0293-67.1387L30.0293-70.459L28.125-70.459ZM11.6699-24.4629L46.9727-24.4629L46.2402-26.709L12.4512-26.709ZM55.127 0L57.7637 0L30.6152-70.459L29.4434-70.459L29.4434-67.1387Z"/>
  </g>
  <line id="Baseline-L" style="fill:none;stroke:#27AAE1;opacity:1;stroke-width:0.5;" x1="263" x2="3036" y1="1556" y2="1556"/>
  <line id="Capline-L" style="fill:none;stroke:#27AAE1;opacity:1;stroke-width:0.5;" x1="263" x2="3036" y1="1485.54" y2="1485.54"/>
  <line id="left-margin-Regular-M" style="fill:none;stroke:#00AEEF;stroke-width:0.5;opacity:1.0;" x1="1392.45" x2="1392.45" y1="1030.78" y2="1150.12"/>
  <line id="right-margin-Regular-M" style="fill:none;stroke:#00AEEF;stroke-width:0.5;opacity:1.0;" x1="1507.24" x2="1507.24" y1="1030.78" y2="1150.12"/>
 </g>
 <g id="Symbols">
  <g id="Black-L" transform="matrix(1 0 0 1 2860.15 1556)">
   <path d="M73.4-85.01C45.91-85.01 23.63-62.72 23.63-35.23C23.63-7.74 45.91 14.54 73.4 14.54C100.89 14.54 123.18-7.74 123.18-35.23C123.18-62.72 100.89-85.01 73.4-85.01ZM9.43-35.23C9.43-70.56 38.07-99.21 73.4-99.21C108.73-99.21 137.38-70.56 137.38-35.23C137.38 0.1 108.73 28.74 73.4 28.74C38.07 28.74 9.43 0.1 9.43-35.23ZM73.4-50.88C64.76-50.88 57.75-43.88 57.75-35.23C57.75-26.59 64.76-19.58 73.4-19.58C82.04-19.58 89.05-26.59 89.05-35.23C89.05-43.88 82.04-50.88 73.4-50.88ZM43.55-35.23C43.55-51.72 56.92-65.08 73.4-65.08C89.89-65.08 103.25-51.72 103.25-35.23C103.25-18.75 89.89-5.38 73.4-5.38C56.92-5.38 43.55-18.75 43.55-35.23ZM84.48-24.15C87.25-26.93 91.74-26.93 94.52-24.15L118.63-0.04C121.4 2.73 121.4 7.23 118.63 10C115.86 12.77 111.36 12.77 108.59 10L84.48-14.11C81.7-16.89 81.7-21.38 84.48-24.15ZM62.33-24.15C65.1-21.38 65.1-16.89 62.33-14.11L38.21 10C35.44 12.77 30.94 12.77 28.17 10C25.4 7.23 25.4 2.73 28.17-0.04L52.28-24.15C55.06-26.93 59.55-26.93 62.33-24.15ZM118.63-80.46C121.4-77.69 121.4-73.19 118.63-70.42L94.52-46.3C91.74-43.53 87.25-43.53 84.48-46.3C81.7-49.08 81.7-53.57 84.48-56.34L108.59-80.46C111.36-83.23 115.86-83.23 118.63-80.46ZM114.59-76.42C117.37-73.65 117.37-69.16 114.59-66.38L94.52-46.31C91.74-43.53 87.25-43.53 84.48-46.31C81.7-49.08 81.7-53.57 84.48-56.35L104.55-76.42C107.33-79.2 111.82-79.2 114.59-76.42ZM28.17-80.46C30.94-83.23 35.44-83.23 38.21-80.46L62.33-56.34C65.1-53.57 65.1-49.08 62.33-46.3C59.55-43.53 55.06-43.53 52.28-46.3L28.17-70.42C25.4-73.19 25.4-77.69 28.17-80.46Z"/>
  </g>
  <g id="Heavy-L" transform="matrix(1 0 0 1 2564.29 1556)">
   <path d="M72.56-85.86C44.6-85.86 21.93-63.19 21.93-35.23C21.93-7.27 44.6 15.39 72.56 15.39C100.52 15.39 123.18-7.27 123.18-35.23C123.18-63.19 100.52-85.86 72.56-85.86ZM9.43-35.23C9.43-70.09 37.69-98.36 72.56-98.36C107.42-98.36 135.68-70.09 135.68-35.23C135.68-0.37 107.42 27.89 72.56 27.89C37.69 27.89 9.43-0.37 9.43-35.23ZM72.56-51.73C63.44-51.73 56.06-44.34 56.06-35.23C56.06-26.12 63.44-18.73 72.56-18.73C81.67-18.73 89.06-26.12 89.06-35.23C89.06-44.34 81.67-51.73 72.56-51.73ZM43.56-35.23C43.56-51.25 56.54-64.23 72.56-64.23C88.57-64.23 101.56-51.25 101.56-35.23C101.56-19.21 88.57-6.23 72.56-6.23C56.54-6.23 43.56-19.21 43.56-35.23ZM84.23-23.56C86.67-26 90.63-26 93.07-23.56L117.19 0.56C119.63 3 119.63 6.96 117.19 9.4C114.75 11.84 110.79 11.84 108.35 9.4L84.23-14.72C81.79-17.16 81.79-21.12 84.23-23.56ZM60.88-23.56C63.32-21.12 63.32-17.16 60.88-14.72L36.77 9.4C34.33 11.84 30.37 11.84 27.93 9.4C25.49 6.96 25.49 3 27.93 0.56L52.04-23.56C54.48-26 58.44-26 60.88-23.56ZM117.19-79.86C119.63-77.42 119.63-73.46 117.19-71.02L93.07-46.91C90.63-44.47 86.67-44.47 84.23-46.91C81.79-49.35 81.79-53.31 84.23-55.75L108.35-79.86C110.79-82.3 114.75-82.3 117.19-79.86ZM113.15-75.82C115.59-73.38 115.59-69.42 113.15-66.98L93.07-46.91C90.63-44.47 86.67-44.47 84.23-46.91C81.79-49.35 81.79-53.3 84.23-55.74L104.31-75.82C106.75-78.26 110.71-78.26 113.15-75.82ZM27.93-79.86C30.37-82.3 34.33-82.3 36.77-79.86L60.88-55.75C63.32-53.31 63.32-49.35 60.88-46.91C58.44-44.47 54.48-44.47 52.04-46.91L27.93-71.02C25.49-73.46 25.49-77.42 27.93-79.86Z"/>
  </g>
  <g id="Bold-L" transform="matrix(1 0 0 1 2268.53 1556)">
   <path d="M71.6-86.81C43.12-86.81 20.03-63.72 20.03-35.23C20.03-6.75 43.12 16.34 71.6 16.34C100.09 16.34 123.18-6.75 123.18-35.23C123.18-63.72 100.09-86.81 71.6-86.81ZM9.43-35.23C9.43-69.57 37.27-97.41 71.6-97.41C105.94-97.41 133.78-69.57 133.78-35.23C133.78-0.89 105.94 26.94 71.6 26.94C37.27 26.94 9.43-0.89 9.43-35.23ZM71.6-52.68C61.97-52.68 54.15-44.87 54.15-35.23C54.15-25.59 61.97-17.78 71.6-17.78C81.24-17.78 89.05-25.59 89.05-35.23C89.05-44.87 81.24-52.68 71.6-52.68ZM43.55-35.23C43.55-50.72 56.11-63.28 71.6-63.28C87.1-63.28 99.65-50.72 99.65-35.23C99.65-19.74 87.1-7.18 71.6-7.18C56.11-7.18 43.55-19.74 43.55-35.23ZM83.95-22.88C86.02-24.95 89.38-24.95 91.45-22.88L115.56 1.23C117.63 3.3 117.63 6.66 115.56 8.73C113.49 10.8 110.14 10.8 108.07 8.73L83.95-15.39C81.88-17.46 81.88-20.81 83.95-22.88ZM59.26-22.88C61.33-20.81 61.33-17.46 59.26-15.39L35.14 8.73C33.07 10.8 29.72 10.8 27.65 8.73C25.58 6.66 25.58 3.3 27.65 1.23L51.76-22.88C53.83-24.95 57.19-24.95 59.26-22.88ZM115.56-79.19C117.63-77.12 117.63-73.76 115.56-71.69L91.45-47.58C89.38-45.51 86.02-45.51 83.95-47.58C81.88-49.65 81.88-53.01 83.95-55.07L108.07-79.19C110.14-81.26 113.49-81.26 115.56-79.19ZM111.53-75.15C113.59-73.08 113.59-69.73 111.53-67.66L91.45-47.58C89.38-45.51 86.02-45.51 83.95-47.58C81.88-49.65 81.88-53 83.95-55.07L104.03-75.15C106.1-77.22 109.46-77.22 111.53-75.15ZM27.65-79.19C29.72-81.26 33.07-81.26 35.14-79.19L59.26-55.07C61.33-53.01 61.33-49.65 59.26-47.58C57.19-45.51 53.83-45.51 51.76-47.58L27.65-71.69C25.58-73.76 25.58-77.12 27.65-79.19Z"/>
  </g>
  <g id="Semibold-L" transform="matrix(1 0 0 1 1972.47 1556)">
   <path d="M70.96-87.45C42.12-87.45 18.73-64.07 18.73-35.23C18.73-6.39 42.12 17 70.96 17C99.8 17 123.18-6.39 123.18-35.23C123.18-64.07 99.8-87.45 70.96-87.45ZM9.43-35.23C9.43-69.21 36.98-96.75 70.96-96.75C104.94-96.75 132.48-69.21 132.48-35.23C132.48-1.25 104.94 26.3 70.96 26.3C36.98 26.3 9.43-1.25 9.43-35.23ZM70.96-53.33C60.96-53.33 52.86-45.23 52.86-35.23C52.86-25.23 60.96-17.13 70.96-17.13C80.96-17.13 89.06-25.23 89.06-35.23C89.06-45.23 80.96-53.33 70.96-53.33ZM43.56-35.23C43.56-50.36 55.83-62.63 70.96-62.63C86.09-62.63 98.36-50.36 98.36-35.23C98.36-20.1 86.09-7.83 70.96-7.83C55.83-7.83 43.56-20.1 43.56-35.23ZM83.77-22.42C85.58-24.24 88.53-24.24 90.34-22.42L114.46 1.69C116.27 3.51 116.27 6.45 114.46 8.27C112.64 10.08 109.7 10.08 107.88 8.27L83.77-15.85C81.95-17.66 81.95-20.61 83.77-22.42ZM58.15-22.42C59.97-20.61 59.97-17.66 58.15-15.85L34.04 8.27C32.22 10.08 29.28 10.08 27.46 8.27C25.65 6.45 25.65 3.51 27.46 1.69L51.58-22.42C53.39-24.24 56.34-24.24 58.15-22.42ZM114.46-78.73C116.27-76.91 116.27-73.97 114.46-72.15L90.34-48.04C88.53-46.22 85.58-46.22 83.77-48.04C81.95-49.85 81.95-52.8 83.77-54.61L107.88-78.73C109.7-80.54 112.64-80.54 114.46-78.73ZM110.42-74.69C112.24-72.88 112.24-69.93 110.42-68.12L90.34-48.04C88.53-46.22 85.58-46.22 83.77-48.04C81.95-49.86 81.95-52.8 83.77-54.62L103.84-74.69C105.66-76.51 108.6-76.51 110.42-74.69ZM27.46-78.73C29.28-80.54 32.22-80.54 34.04-78.73L58.15-54.61C59.97-52.8 59.97-49.85 58.15-48.04C56.34-46.22 53.39-46.22 51.58-48.04L27.46-72.15C25.65-73.97 25.65-76.91 27.46-78.73Z"/>
  </g>
  <g id="Medium-L" transform="matrix(1 0 0 1 1676.26 1556)">
   <path d="M70.46-87.95C41.34-87.95 17.73-64.35 17.73-35.23C17.73-6.11 41.34 17.5 70.46 17.5C99.58 17.5 123.18-6.11 123.18-35.23C123.18-64.35 99.58-87.95 70.46-87.95ZM9.43-35.23C9.43-68.93 36.76-96.25 70.46-96.25C104.16-96.25 131.48-68.93 131.48-35.23C131.48-1.53 104.16 25.8 70.46 25.8C36.76 25.8 9.43-1.53 9.43-35.23ZM70.46-53.83C60.19-53.83 51.86-45.5 51.86-35.23C51.86-24.96 60.19-16.63 70.46-16.63C80.73-16.63 89.06-24.96 89.06-35.23C89.06-45.5 80.73-53.83 70.46-53.83ZM43.56-35.23C43.56-50.09 55.6-62.13 70.46-62.13C85.32-62.13 97.36-50.09 97.36-35.23C97.36-20.37 85.32-8.33 70.46-8.33C55.6-8.33 43.56-20.37 43.56-35.23ZM83.62-22.07C85.24-23.69 87.87-23.69 89.49-22.07L113.6 2.05C115.23 3.67 115.23 6.29 113.6 7.91C111.98 9.54 109.36 9.54 107.74 7.91L83.62-16.2C82-17.82 82-20.45 83.62-22.07ZM57.3-22.07C58.92-20.45 58.92-17.82 57.3-16.2L33.18 7.91C31.56 9.54 28.94 9.54 27.32 7.91C25.69 6.29 25.69 3.67 27.32 2.05L51.43-22.07C53.05-23.69 55.68-23.69 57.3-22.07ZM113.6-78.37C115.23-76.75 115.23-74.13 113.6-72.51L89.49-48.39C87.87-46.77 85.24-46.77 83.62-48.39C82-50.01 82-52.64 83.62-54.26L107.74-78.37C109.36-80 111.98-80 113.6-78.37ZM109.57-74.34C111.19-72.72 111.19-70.09 109.57-68.47L89.49-48.39C87.87-46.77 85.24-46.77 83.62-48.39C82-50.01 82-52.64 83.62-54.26L103.7-74.34C105.32-75.96 107.95-75.96 109.57-74.34ZM27.32-78.37C28.94-80 31.56-80 33.18-78.37L57.3-54.26C58.92-52.64 58.92-50.01 57.3-48.39C55.68-46.77 53.05-46.77 51.43-48.39L27.32-72.51C25.69-74.13 25.69-76.75 27.32-78.37Z"/>
  </g>
  <g id="Regular-L" transform="matrix(1 0 0 1 1380.19 1556)">
   <path d="M69.81-88.61C40.33-88.61 16.43-64.71 16.43-35.23C16.43-5.75 40.33 18.14 69.81 18.14C99.29 18.14 123.19-5.75 123.19-35.23C123.19-64.71 99.29-88.61 69.81-88.61ZM9.43-35.23C9.43-68.57 36.47-95.61 69.81-95.61C103.15-95.61 130.19-68.57 130.19-35.23C130.19-1.89 103.15 25.14 69.81 25.14C36.47 25.14 9.43-1.89 9.43-35.23ZM69.81-54.48C59.18-54.48 50.56-45.86 50.56-35.23C50.56-24.6 59.18-15.98 69.81-15.98C80.44-15.98 89.06-24.6 89.06-35.23C89.06-45.86 80.44-54.48 69.81-54.48ZM43.56-35.23C43.56-49.73 55.31-61.48 69.81-61.48C84.31-61.48 96.06-49.73 96.06-35.23C96.06-20.73 84.31-8.98 69.81-8.98C55.31-8.98 43.56-20.73 43.56-35.23ZM83.43-21.61C84.8-22.98 87.01-22.98 88.38-21.61L112.5 2.5C113.86 3.87 113.86 6.09 112.5 7.45C111.13 8.82 108.91 8.82 107.55 7.45L83.43-16.66C82.06-18.03 82.06-20.24 83.43-21.61ZM56.19-21.61C57.56-20.24 57.56-18.03 56.19-16.66L32.07 7.45C30.71 8.82 28.49 8.82 27.12 7.45C25.76 6.09 25.76 3.87 27.12 2.5L51.24-21.61C52.61-22.98 54.82-22.98 56.19-21.61ZM112.5-77.92C113.86-76.55 113.86-74.33 112.5-72.97L88.38-48.85C87.01-47.48 84.8-47.48 83.43-48.85C82.06-50.22 82.06-52.43 83.43-53.8L107.55-77.92C108.91-79.28 111.13-79.28 112.5-77.92ZM108.46-73.88C109.82-72.51 109.82-70.29 108.46-68.93L88.38-48.85C87.01-47.48 84.8-47.48 83.43-48.85C82.06-50.22 82.06-52.43 83.43-53.8L103.51-73.88C104.87-75.24 107.09-75.24 108.46-73.88ZM27.12-77.92C28.49-79.28 30.71-79.28 32.07-77.92L56.19-53.8C57.56-52.43 57.56-50.22 56.19-48.85C54.82-47.48 52.61-47.48 51.24-48.85L27.12-72.97C25.76-74.33 25.76-76.55 27.12-77.92Z"/>
  </g>
  <g id="Light-L" transform="matrix(1 0 0 1 1084.28 1556)">
   <path d="M69.01-89.4C39.09-89.4 14.83-65.15 14.83-35.23C14.83-5.31 39.09 18.95 69.01 18.95C98.93 18.95 123.18-5.31 123.18-35.23C123.18-65.15 98.93-89.4 69.01-89.4ZM9.43-35.23C9.43-68.13 36.11-94.8 69.01-94.8C101.91-94.8 128.58-68.13 128.58-35.23C128.58-2.33 101.91 24.35 69.01 24.35C36.11 24.35 9.43-2.33 9.43-35.23ZM69.01-55.28C57.94-55.28 48.96-46.3 48.96-35.23C48.96-24.16 57.94-15.18 69.01-15.18C80.08-15.18 89.06-24.16 89.06-35.23C89.06-46.3 80.08-55.28 69.01-55.28ZM43.56-35.23C43.56-49.29 54.95-60.68 69.01-60.68C83.07-60.68 94.46-49.29 94.46-35.23C94.46-21.17 83.07-9.78 69.01-9.78C54.95-9.78 43.56-21.17 43.56-35.23ZM83.2-21.05C84.25-22.1 85.96-22.1 87.01-21.05L111.13 3.07C112.18 4.12 112.18 5.83 111.13 6.89C110.08 7.94 108.37 7.94 107.31 6.89L83.2-17.23C82.14-18.28 82.14-19.99 83.2-21.05ZM54.82-21.05C55.88-19.99 55.88-18.28 54.82-17.23L30.71 6.89C29.65 7.94 27.95 7.94 26.89 6.89C25.84 5.83 25.84 4.12 26.89 3.07L51.01-21.05C52.06-22.1 53.77-22.1 54.82-21.05ZM111.13-77.35C112.18-76.3 112.18-74.59 111.13-73.53L87.01-49.42C85.96-48.36 84.25-48.36 83.2-49.42C82.14-50.47 82.14-52.18 83.2-53.23L107.31-77.35C108.37-78.4 110.08-78.4 111.13-77.35ZM107.09-73.31C108.15-72.26 108.15-70.55 107.09-69.49L87.01-49.42C85.96-48.36 84.25-48.36 83.2-49.42C82.14-50.47 82.14-52.18 83.2-53.23L103.27-73.31C104.33-74.37 106.04-74.37 107.09-73.31ZM26.89-77.35C27.95-78.4 29.65-78.4 30.71-77.35L54.82-53.23C55.88-52.18 55.88-50.47 54.82-49.42C53.77-48.36 52.06-48.36 51.01-49.42L26.89-73.53C25.84-74.59 25.84-76.3 26.89-77.35Z"/>
  </g>
  <g id="Thin-L" transform="matrix(1 0 0 1 788.622 1556)">
   <path d="M67.955-90.45C37.455-90.45 12.73-65.73 12.73-35.23C12.73-4.73 37.455 20 67.955 20C98.455 20 123.18-4.73 123.18-35.23C123.18-65.73 98.455-90.45 67.955-90.45ZM9.43-35.23C9.43-67.55 35.632-93.75 67.955-93.75C100.277-93.75 126.48-67.55 126.48-35.23C126.48-2.91 100.277 23.3 67.955 23.3C35.632 23.3 9.43-2.91 9.43-35.23ZM67.955-56.33C56.301-56.33 46.855-46.88 46.855-35.23C46.855-23.58 56.301-14.13 67.955-14.13C79.608-14.13 89.055-23.58 89.055-35.23C89.055-46.88 79.608-56.33 67.955-56.33ZM43.555-35.23C43.555-48.7 54.479-59.63 67.955-59.63C81.43-59.63 92.355-48.7 92.355-35.23C92.355-21.75 81.43-10.83 67.955-10.83C54.479-10.83 43.555-21.75 43.555-35.23ZM82.884-20.3C83.528-20.95 84.573-20.95 85.217-20.3L109.332 3.81C109.976 4.46 109.976 5.5 109.332 6.15C108.688 6.79 107.643 6.79 106.999 6.15L82.884-17.97C82.239-18.61 82.239-19.66 82.884-20.3ZM53.026-20.3C53.671-19.66 53.671-18.61 53.026-17.97L28.911 6.15C28.267 6.79 27.222 6.79 26.578 6.15C25.934 5.5 25.934 4.46 26.578 3.81L50.693-20.3C51.337-20.95 52.382-20.95 53.026-20.3ZM109.332-76.61C109.976-75.96 109.976-74.92 109.332-74.27L85.217-50.16C84.573-49.51 83.528-49.51 82.884-50.16C82.239-50.8 82.239-51.85 82.884-52.49L106.999-76.61C107.643-77.25 108.688-77.25 109.332-76.61ZM105.294-72.57C105.938-71.93 105.938-70.88 105.294-70.24L85.217-50.16C84.573-49.52 83.528-49.52 82.884-50.16C82.239-50.81 82.239-51.85 82.884-52.49L102.96-72.57C103.605-73.22 104.65-73.22 105.294-72.57ZM26.578-76.61C27.222-77.25 28.267-77.25 28.911-76.61L53.026-52.49C53.671-51.85 53.671-50.8 53.026-50.16C52.382-49.51 51.337-49.51 50.693-50.16L26.578-74.27C25.934-74.92 25.934-75.96 26.578-76.61Z"/>
  </g>
  <g id="Ultralight-L" transform="matrix(1 0 0 1 492.461 1556)">
   <path d="M67.405-91.01C36.602-91.01 11.63-66.04 11.63-35.23C11.63-4.43 36.602 20.54 67.405 20.54C98.209 20.54 123.18-4.43 123.18-35.23C123.18-66.04 98.209-91.01 67.405-91.01ZM9.43-35.23C9.43-67.25 35.387-93.21 67.405-93.21C99.424-93.21 125.38-67.25 125.38-35.23C125.38-3.21 99.424 22.74 67.405 22.74C35.387 22.74 9.43-3.21 9.43-35.23ZM67.405-56.88C55.448-56.88 45.755-47.19 45.755-35.23C45.755-23.28 55.448-13.58 67.405-13.58C79.362-13.58 89.055-23.28 89.055-35.23C89.055-47.19 79.362-56.88 67.405-56.88ZM43.555-35.23C43.555-48.4 54.233-59.08 67.405-59.08C80.577-59.08 91.255-48.4 91.255-35.23C91.255-22.06 80.577-11.38 67.405-11.38C54.233-11.38 43.555-22.06 43.555-35.23ZM82.723-19.91C83.153-20.34 83.849-20.34 84.279-19.91L108.394 4.2C108.823 4.63 108.823 5.33 108.394 5.76C107.964 6.19 107.268 6.19 106.838 5.76L82.723-18.36C82.294-18.79 82.294-19.48 82.723-19.91ZM52.087-19.91C52.517-19.48 52.517-18.79 52.087-18.36L27.972 5.76C27.543 6.19 26.846 6.19 26.417 5.76C25.987 5.33 25.987 4.63 26.417 4.2L50.532-19.91C50.961-20.34 51.658-20.34 52.087-19.91ZM108.394-76.22C108.823-75.79 108.823-75.09 108.394-74.66L84.279-50.55C83.849-50.12 83.153-50.12 82.723-50.55C82.294-50.98 82.294-51.67 82.723-52.1L106.838-76.22C107.268-76.65 107.964-76.65 108.394-76.22ZM104.356-72.18C104.785-71.75 104.785-71.06 104.356-70.63L84.279-50.55C83.849-50.12 83.153-50.12 82.723-50.55C82.294-50.98 82.294-51.68 82.723-52.1L102.8-72.18C103.23-72.61 103.926-72.61 104.356-72.18ZM26.417-76.22C26.846-76.65 27.543-76.65 27.972-76.22L52.087-52.1C52.517-51.67 52.517-50.98 52.087-50.55C51.658-50.12 50.961-50.12 50.532-50.55L26.417-74.66C25.987-75.09 25.987-75.79 26.417-76.22Z"/>
  </g>
  <g id="Black-M" transform="matrix(1 0 0 1 2872.4 1126)">
   <path d="M61.15-72.76C40.43-72.76 23.63-55.96 23.63-35.23C23.63-14.51 40.43 2.29 61.15 2.29C81.88 2.29 98.68-14.51 98.68-35.23C98.68-55.96 81.88-72.76 61.15-72.76ZM9.43-35.23C9.43-63.8 32.59-86.96 61.15-86.96C89.72-86.96 112.88-63.8 112.88-35.23C112.88-6.67 89.72 16.49 61.15 16.49C32.59 16.49 9.43-6.67 9.43-35.23ZM61.15-45.98C55.22-45.98 50.4-41.17 50.4-35.23C50.4-29.29 55.22-24.48 61.15-24.48C67.09-24.48 71.9-29.29 71.9-35.23C71.9-41.17 67.09-45.98 61.15-45.98ZM36.2-35.23C36.2-49.01 47.37-60.18 61.15-60.18C74.93-60.18 86.1-49.01 86.1-35.23C86.1-21.45 74.93-10.28 61.15-10.28C47.37-10.28 36.2-21.45 36.2-35.23ZM68.76-27.62C71.54-30.4 76.03-30.4 78.8-27.62L97.73-8.7C100.5-5.93 100.5-1.43 97.73 1.34C94.95 4.11 90.46 4.11 87.68 1.34L68.76-17.58C65.99-20.36 65.99-24.85 68.76-27.62ZM53.55-27.62C56.32-24.85 56.32-20.36 53.55-17.58L34.63 1.34C31.85 4.11 27.36 4.11 24.58 1.34C21.81-1.43 21.81-5.93 24.58-8.7L43.51-27.62C46.28-30.4 50.77-30.4 53.55-27.62ZM97.73-71.8C100.5-69.03 100.5-64.53 97.73-61.76L78.8-42.84C76.03-40.06 71.54-40.06 68.76-42.84C65.99-45.61 65.99-50.11 68.76-52.88L87.68-71.8C90.46-74.57 94.95-74.57 97.73-71.8ZM94.56-68.63C97.33-65.86 97.33-61.36 94.56-58.59L78.8-42.84C76.03-40.07 71.54-40.07 68.76-42.84C65.99-45.61 65.99-50.11 68.76-52.88L84.52-68.63C87.29-71.4 91.78-71.4 94.56-68.63ZM24.58-71.8C27.36-74.57 31.85-74.57 34.63-71.8L53.55-52.88C56.32-50.11 56.32-45.61 53.55-42.84C50.77-40.06 46.28-40.06 43.51-42.84L24.58-61.76C21.81-64.53 21.81-69.03 24.58-71.8Z"/>
  </g>
  <g id="Heavy-M" transform="matrix(1 0 0 1 2576.54 1126)">
   <path d="M60.3-73.61C39.11-73.61 21.93-56.42 21.93-35.23C21.93-14.04 39.11 3.14 60.3 3.14C81.5 3.14 98.68-14.04 98.68-35.23C98.68-56.42 81.5-73.61 60.3-73.61ZM9.43-35.23C9.43-63.33 32.21-86.11 60.3-86.11C88.4-86.11 111.18-63.33 111.18-35.23C111.18-7.13 88.4 15.64 60.3 15.64C32.21 15.64 9.43-7.13 9.43-35.23ZM60.3-46.83C53.9-46.83 48.7-41.64 48.7-35.23C48.7-28.83 53.9-23.63 60.3-23.63C66.71-23.63 71.9-28.83 71.9-35.23C71.9-41.64 66.71-46.83 60.3-46.83ZM36.2-35.23C36.2-48.54 46.99-59.33 60.3-59.33C73.62-59.33 84.4-48.54 84.4-35.23C84.4-21.92 73.62-11.13 60.3-11.13C46.99-11.13 36.2-21.92 36.2-35.23ZM68.51-27.02C70.95-29.46 74.91-29.46 77.35-27.02L96.27-8.1C98.71-5.66 98.71-1.7 96.27 0.74C93.83 3.18 89.88 3.18 87.44 0.74L68.51-18.18C66.07-20.62 66.07-24.58 68.51-27.02ZM52.1-27.02C54.54-24.58 54.54-20.62 52.1-18.18L33.17 0.74C30.73 3.18 26.78 3.18 24.34 0.74C21.89-1.7 21.89-5.66 24.34-8.1L43.26-27.02C45.7-29.46 49.65-29.46 52.1-27.02ZM96.27-71.2C98.71-68.76 98.71-64.8 96.27-62.36L77.35-43.44C74.91-41 70.95-41 68.51-43.44C66.07-45.88 66.07-49.84 68.51-52.28L87.44-71.2C89.88-73.64 93.83-73.64 96.27-71.2ZM93.11-68.03C95.55-65.59 95.55-61.63 93.11-59.19L77.35-43.44C74.91-41 70.95-41 68.51-43.44C66.07-45.88 66.07-49.84 68.51-52.28L84.27-68.03C86.71-70.47 90.66-70.47 93.11-68.03ZM24.34-71.2C26.78-73.64 30.73-73.64 33.17-71.2L52.1-52.28C54.54-49.84 54.54-45.88 52.1-43.44C49.65-41 45.7-41 43.26-43.44L24.34-62.36C21.89-64.8 21.89-68.76 24.34-71.2Z"/>
  </g>
  <g id="Bold-M" transform="matrix(1 0 0 1 2280.78 1126)">
   <path d="M59.35-74.56C37.64-74.56 20.03-56.95 20.03-35.23C20.03-13.51 37.64 4.09 59.35 4.09C81.07 4.09 98.68-13.51 98.68-35.23C98.68-56.95 81.07-74.56 59.35-74.56ZM9.43-35.23C9.43-62.8 31.78-85.16 59.35-85.16C86.93-85.16 109.28-62.8 109.28-35.23C109.28-7.66 86.93 14.69 59.35 14.69C31.78 14.69 9.43-7.66 9.43-35.23ZM59.35-47.78C52.42-47.78 46.8-42.16 46.8-35.23C46.8-28.3 52.42-22.68 59.35-22.68C66.29-22.68 71.9-28.3 71.9-35.23C71.9-42.16 66.29-47.78 59.35-47.78ZM36.2-35.23C36.2-48.01 46.57-58.38 59.35-58.38C72.14-58.38 82.5-48.01 82.5-35.23C82.5-22.44 72.14-12.08 59.35-12.08C46.57-12.08 36.2-22.44 36.2-35.23ZM68.24-26.35C70.31-28.42 73.66-28.42 75.73-26.35L94.65-7.43C96.72-5.36 96.72-2 94.65 0.07C92.58 2.14 89.23 2.14 87.16 0.07L68.24-18.85C66.17-20.92 66.17-24.28 68.24-26.35ZM50.47-26.35C52.54-24.28 52.54-20.92 50.47-18.85L31.55 0.07C29.48 2.14 26.13 2.14 24.06 0.07C21.99-2 21.99-5.36 24.06-7.43L42.98-26.35C45.05-28.42 48.4-28.42 50.47-26.35ZM94.65-70.53C96.72-68.46 96.72-65.1 94.65-63.03L75.73-44.11C73.66-42.04 70.31-42.04 68.24-44.11C66.17-46.18 66.17-49.54 68.24-51.61L87.16-70.53C89.23-72.6 92.58-72.6 94.65-70.53ZM91.48-67.36C93.55-65.29 93.55-61.93 91.48-59.86L75.73-44.11C73.66-42.04 70.31-42.04 68.24-44.11C66.17-46.18 66.17-49.54 68.24-51.61L83.99-67.36C86.06-69.43 89.41-69.43 91.48-67.36ZM24.06-70.53C26.13-72.6 29.48-72.6 31.55-70.53L50.47-51.61C52.54-49.54 52.54-46.18 50.47-44.11C48.4-42.04 45.05-42.04 42.98-44.11L24.06-63.03C21.99-65.1 21.99-68.46 24.06-70.53Z"/>
  </g>
  <g id="Semibold-M" transform="matrix(1 0 0 1 1984.72 1126)">
   <path d="M58.71-75.2C36.63-75.2 18.73-57.31 18.73-35.23C18.73-13.15 36.63 4.75 58.71 4.75C80.79 4.75 98.68-13.15 98.68-35.23C98.68-57.31 80.79-75.2 58.71-75.2ZM9.43-35.23C9.43-62.44 31.5-84.5 58.71-84.5C85.92-84.5 107.98-62.44 107.98-35.23C107.98-8.02 85.92 14.05 58.71 14.05C31.5 14.05 9.43-8.02 9.43-35.23ZM58.71-48.43C51.42-48.43 45.51-42.52 45.51-35.23C45.51-27.94 51.42-22.03 58.71-22.03C66-22.03 71.91-27.94 71.91-35.23C71.91-42.52 66-48.43 58.71-48.43ZM36.21-35.23C36.21-47.66 46.28-57.73 58.71-57.73C71.14-57.73 81.21-47.66 81.21-35.23C81.21-22.8 71.14-12.73 58.71-12.73C46.28-12.73 36.21-22.8 36.21-35.23ZM68.05-25.89C69.87-27.7 72.81-27.7 74.63-25.89L93.55-6.97C95.36-5.15 95.36-2.21 93.55-0.39C91.73 1.42 88.79 1.42 86.97-0.39L68.05-19.31C66.23-21.13 66.23-24.07 68.05-25.89ZM49.37-25.89C51.18-24.07 51.18-21.13 49.37-19.31L30.45-0.39C28.63 1.42 25.69 1.42 23.87-0.39C22.06-2.21 22.06-5.15 23.87-6.97L42.79-25.89C44.61-27.7 47.55-27.7 49.37-25.89ZM93.55-70.07C95.36-68.25 95.36-65.31 93.55-63.49L74.63-44.57C72.81-42.75 69.87-42.75 68.05-44.57C66.23-46.39 66.23-49.33 68.05-51.15L86.97-70.07C88.79-71.88 91.73-71.88 93.55-70.07ZM90.38-66.9C92.2-65.08 92.2-62.14 90.38-60.32L74.63-44.57C72.81-42.76 69.87-42.76 68.05-44.57C66.23-46.39 66.23-49.33 68.05-51.15L83.8-66.9C85.62-68.72 88.56-68.72 90.38-66.9ZM23.87-70.07C25.69-71.88 28.63-71.88 30.45-70.07L49.37-51.15C51.18-49.33 51.18-46.39 49.37-44.57C47.55-42.75 44.61-42.75 42.79-44.57L23.87-63.49C22.06-65.31 22.06-68.25 23.87-70.07Z"/>
  </g>
  <g id="Medium-M" transform="matrix(1 0 0 1 1688.51 1126)">
   <path d="M58.21-75.7C35.86-75.7 17.73-57.58 17.73-35.23C17.73-12.88 35.86 5.25 58.21 5.25C80.56 5.25 98.68-12.88 98.68-35.23C98.68-57.58 80.56-75.7 58.21-75.7ZM9.43-35.23C9.43-62.17 31.27-84 58.21-84C85.15-84 106.98-62.17 106.98-35.23C106.98-8.29 85.15 13.55 58.21 13.55C31.27 13.55 9.43-8.29 9.43-35.23ZM58.21-48.93C50.64-48.93 44.51-42.8 44.51-35.23C44.51-27.66 50.64-21.53 58.21-21.53C65.78-21.53 71.91-27.66 71.91-35.23C71.91-42.8 65.78-48.93 58.21-48.93ZM36.21-35.23C36.21-47.38 46.06-57.23 58.21-57.23C70.36-57.23 80.21-47.38 80.21-35.23C80.21-23.08 70.36-13.23 58.21-13.23C46.06-13.23 36.21-23.08 36.21-35.23ZM67.9-25.53C69.52-27.16 72.15-27.16 73.77-25.53L92.69-6.61C94.31-4.99 94.31-2.37 92.69-0.74C91.07 0.88 88.45 0.88 86.83-0.74L67.9-19.67C66.28-21.29 66.28-23.91 67.9-25.53ZM48.52-25.53C50.14-23.91 50.14-21.29 48.52-19.67L29.59-0.74C27.97 0.88 25.35 0.88 23.73-0.74C22.1-2.37 22.1-4.99 23.73-6.61L42.65-25.53C44.27-27.16 46.89-27.16 48.52-25.53ZM92.69-69.71C94.31-68.09 94.31-65.47 92.69-63.85L73.77-44.92C72.15-43.3 69.52-43.3 67.9-44.92C66.28-46.54 66.28-49.17 67.9-50.79L86.83-69.71C88.45-71.33 91.07-71.33 92.69-69.71ZM89.53-66.55C91.15-64.93 91.15-62.3 89.53-60.68L73.77-44.92C72.15-43.3 69.52-43.3 67.9-44.92C66.28-46.55 66.28-49.17 67.9-50.79L83.66-66.55C85.28-68.17 87.9-68.17 89.53-66.55ZM23.73-69.71C25.35-71.33 27.97-71.33 29.59-69.71L48.52-50.79C50.14-49.17 50.14-46.54 48.52-44.92C46.89-43.3 44.27-43.3 42.65-44.92L23.73-63.85C22.1-65.47 22.1-68.09 23.73-69.71Z"/>
  </g>
  <g id="Regular-M" transform="matrix(1 0 0 1 1392.45 1126)">
   <path d="M57.55-76.36C34.84-76.36 16.43-57.94 16.43-35.23C16.43-12.52 34.84 5.89 57.55 5.89C80.26 5.89 98.67-12.52 98.67-35.23C98.67-57.94 80.26-76.36 57.55-76.36ZM9.43-35.23C9.43-61.81 30.97-83.36 57.55-83.36C84.13-83.36 105.67-61.81 105.67-35.23C105.67-8.65 84.13 12.89 57.55 12.89C30.97 12.89 9.43-8.65 9.43-35.23ZM57.55-49.58C49.63-49.58 43.2-43.16 43.2-35.23C43.2-27.31 49.63-20.88 57.55-20.88C65.48-20.88 71.9-27.31 71.9-35.23C71.9-43.16 65.48-49.58 57.55-49.58ZM36.2-35.23C36.2-47.02 45.76-56.58 57.55-56.58C69.34-56.58 78.9-47.02 78.9-35.23C78.9-23.44 69.34-13.88 57.55-13.88C45.76-13.88 36.2-23.44 36.2-35.23ZM67.7-25.08C69.07-26.44 71.29-26.44 72.65-25.08L91.57-6.16C92.94-4.79 92.94-2.57 91.57-1.21C90.21 0.16 87.99 0.16 86.63-1.21L67.7-20.13C66.34-21.49 66.34-23.71 67.7-25.08ZM47.4-25.08C48.76-23.71 48.76-21.49 47.4-20.13L28.48-1.21C27.11 0.16 24.89 0.16 23.53-1.21C22.16-2.57 22.16-4.79 23.53-6.16L42.45-25.08C43.81-26.44 46.03-26.44 47.4-25.08ZM91.57-69.26C92.94-67.89 92.94-65.67 91.57-64.31L72.65-45.39C71.29-44.02 69.07-44.02 67.7-45.39C66.34-46.75 66.34-48.97 67.7-50.34L86.63-69.26C87.99-70.62 90.21-70.62 91.57-69.26ZM88.41-66.09C89.77-64.72 89.77-62.51 88.41-61.14L72.65-45.39C71.29-44.02 69.07-44.02 67.7-45.39C66.34-46.75 66.34-48.97 67.7-50.34L83.46-66.09C84.82-67.45 87.04-67.45 88.41-66.09ZM23.53-69.26C24.89-70.62 27.11-70.62 28.48-69.26L47.4-50.34C48.76-48.97 48.76-46.75 47.4-45.39C46.03-44.02 43.81-44.02 42.45-45.39L23.53-64.31C22.16-65.67 22.16-67.89 23.53-69.26Z"/>
  </g>
  <g id="Light-M" transform="matrix(1 0 0 1 1096.53 1126)">
   <path d="M56.76-77.15C33.61-77.15 14.83-58.38 14.83-35.23C14.83-12.08 33.61 6.7 56.76 6.7C79.91 6.7 98.68-12.08 98.68-35.23C98.68-58.38 79.91-77.15 56.76-77.15ZM9.43-35.23C9.43-61.37 30.62-82.55 56.76-82.55C82.9-82.55 104.08-61.37 104.08-35.23C104.08-9.09 82.9 12.1 56.76 12.1C30.62 12.1 9.43-9.09 9.43-35.23ZM56.76-50.38C48.39-50.38 41.61-43.6 41.61-35.23C41.61-26.86 48.39-20.08 56.76-20.08C65.13-20.08 71.91-26.86 71.91-35.23C71.91-43.6 65.13-50.38 56.76-50.38ZM36.21-35.23C36.21-46.58 45.41-55.78 56.76-55.78C68.11-55.78 77.31-46.58 77.31-35.23C77.31-23.88 68.11-14.68 56.76-14.68C45.41-14.68 36.21-23.88 36.21-35.23ZM67.48-24.51C68.53-25.56 70.24-25.56 71.3-24.51L90.22-5.59C91.27-4.53 91.27-2.83 90.22-1.77C89.16-0.72 87.45-0.72 86.4-1.77L67.48-20.69C66.43-21.75 66.43-23.46 67.48-24.51ZM46.04-24.51C47.09-23.46 47.09-21.75 46.04-20.69L27.12-1.77C26.06-0.72 24.36-0.72 23.3-1.77C22.25-2.83 22.25-4.53 23.3-5.59L42.22-24.51C43.28-25.56 44.99-25.56 46.04-24.51ZM90.22-68.69C91.27-67.64 91.27-65.93 90.22-64.87L71.3-45.95C70.24-44.9 68.53-44.9 67.48-45.95C66.43-47 66.43-48.71 67.48-49.77L86.4-68.69C87.45-69.74 89.16-69.74 90.22-68.69ZM87.05-65.52C88.1-64.47 88.1-62.76 87.05-61.7L71.3-45.95C70.24-44.9 68.53-44.9 67.48-45.95C66.43-47.01 66.43-48.71 67.48-49.77L83.23-65.52C84.29-66.58 86-66.58 87.05-65.52ZM23.3-68.69C24.36-69.74 26.06-69.74 27.12-68.69L46.04-49.77C47.09-48.71 47.09-47 46.04-45.95C44.99-44.9 43.28-44.9 42.22-45.95L23.3-64.87C22.25-65.93 22.25-67.64 23.3-68.69Z"/>
  </g>
  <g id="Thin-M" transform="matrix(1 0 0 1 800.872 1126)">
   <path d="M55.705-78.2C31.97-78.2 12.73-58.96 12.73-35.23C12.73-11.49 31.97 7.75 55.705 7.75C79.439 7.75 98.68-11.49 98.68-35.23C98.68-58.96 79.439-78.2 55.705-78.2ZM9.43-35.23C9.43-60.79 30.148-81.5 55.705-81.5C81.262-81.5 101.98-60.79 101.98-35.23C101.98-9.67 81.262 11.05 55.705 11.05C30.148 11.05 9.43-9.67 9.43-35.23ZM55.705-51.43C46.758-51.43 39.505-44.18 39.505-35.23C39.505-26.28 46.758-19.03 55.705-19.03C64.652-19.03 71.905-26.28 71.905-35.23C71.905-44.18 64.652-51.43 55.705-51.43ZM36.205-35.23C36.205-46 44.935-54.73 55.705-54.73C66.475-54.73 75.205-46 75.205-35.23C75.205-24.46 66.475-15.73 55.705-15.73C44.935-15.73 36.205-24.46 36.205-35.23ZM67.167-23.77C67.811-24.41 68.856-24.41 69.5-23.77L88.421-4.85C89.066-4.2 89.066-3.16 88.421-2.51C87.777-1.87 86.732-1.87 86.088-2.51L67.167-21.43C66.522-22.08 66.522-23.12 67.167-23.77ZM44.243-23.77C44.887-23.12 44.887-22.08 44.243-21.43L25.322-2.51C24.677-1.87 23.632-1.87 22.988-2.51C22.344-3.16 22.344-4.2 22.988-4.85L41.909-23.77C42.553-24.41 43.598-24.41 44.243-23.77ZM88.421-67.95C89.066-67.3 89.066-66.26 88.421-65.61L69.5-46.69C68.856-46.05 67.811-46.05 67.167-46.69C66.522-47.34 66.522-48.38 67.167-49.03L86.088-67.95C86.732-68.59 87.777-68.59 88.421-67.95ZM85.253-64.78C85.897-64.13 85.897-63.09 85.253-62.44L69.5-46.69C68.856-46.05 67.811-46.05 67.167-46.69C66.522-47.34 66.522-48.38 67.167-49.03L82.919-64.78C83.564-65.42 84.608-65.42 85.253-64.78ZM22.988-67.95C23.632-68.59 24.677-68.59 25.322-67.95L44.243-49.03C44.887-48.38 44.887-47.34 44.243-46.69C43.598-46.05 42.553-46.05 41.909-46.69L22.988-65.61C22.344-66.26 22.344-67.3 22.988-67.95Z"/>
  </g>
  <g id="Ultralight-M" transform="matrix(1 0 0 1 504.711 1126)">
   <path d="M55.155-78.76C31.117-78.76 11.63-59.27 11.63-35.23C11.63-11.19 31.117 8.29 55.155 8.29C79.194 8.29 98.68-11.19 98.68-35.23C98.68-59.27 79.194-78.76 55.155-78.76ZM9.43-35.23C9.43-60.49 29.902-80.96 55.155-80.96C80.409-80.96 100.88-60.49 100.88-35.23C100.88-9.98 80.409 10.49 55.155 10.49C29.902 10.49 9.43-9.98 9.43-35.23ZM55.155-51.98C45.904-51.98 38.405-44.48 38.405-35.23C38.405-25.98 45.904-18.48 55.155-18.48C64.406-18.48 71.905-25.98 71.905-35.23C71.905-44.48 64.406-51.98 55.155-51.98ZM36.205-35.23C36.205-45.7 44.689-54.18 55.155-54.18C65.621-54.18 74.105-45.7 74.105-35.23C74.105-24.76 65.621-16.28 55.155-16.28C44.689-16.28 36.205-24.76 36.205-35.23ZM67.006-23.38C67.436-23.81 68.133-23.81 68.562-23.38L87.483-4.46C87.913-4.03 87.913-3.33 87.483-2.9C87.054-2.47 86.357-2.47 85.927-2.9L67.006-21.83C66.577-22.25 66.577-22.95 67.006-23.38ZM43.304-23.38C43.734-22.95 43.734-22.25 43.304-21.83L24.383-2.9C23.954-2.47 23.257-2.47 22.828-2.9C22.398-3.33 22.398-4.03 22.828-4.46L41.749-23.38C42.178-23.81 42.875-23.81 43.304-23.38ZM87.483-67.56C87.913-67.13 87.913-66.43 87.483-66L68.562-47.08C68.133-46.65 67.436-46.65 67.006-47.08C66.577-47.51 66.577-48.21 67.006-48.64L85.927-67.56C86.357-67.99 87.054-67.99 87.483-67.56ZM84.315-64.39C84.744-63.96 84.744-63.26 84.315-62.83L68.562-47.08C68.133-46.65 67.436-46.65 67.006-47.08C66.577-47.51 66.577-48.21 67.006-48.64L82.759-64.39C83.189-64.82 83.885-64.82 84.315-64.39ZM22.828-67.56C23.257-67.99 23.954-67.99 24.383-67.56L43.304-48.64C43.734-48.21 43.734-47.51 43.304-47.08C42.875-46.65 42.178-46.65 41.749-47.08L22.828-66C22.398-66.43 22.398-67.13 22.828-67.56Z"/>
  </g>
  <g id="Black-S" transform="matrix(1 0 0 1 2882.03 696)">
   <path d="M51.53-63.234C36.12-63.234 23.63-50.742 23.63-35.334C23.63-19.925 36.12-7.434 51.53-7.434C66.94-7.434 79.43-19.925 79.43-35.334C79.43-50.742 66.94-63.234 51.53-63.234ZM9.43-35.334C9.43-58.585 28.28-77.434 51.53-77.434C74.78-77.434 93.63-58.585 93.63-35.334C93.63-12.082 74.78 6.766 51.53 6.766C28.28 6.766 9.43-12.082 9.43-35.334ZM51.53-42.234C47.72-42.234 44.63-39.144 44.63-35.334C44.63-31.523 47.72-28.434 51.53-28.434C55.34-28.434 58.43-31.523 58.43-35.334C58.43-39.144 55.34-42.234 51.53-42.234ZM30.43-35.334C30.43-46.987 39.88-56.434 51.53-56.434C63.18-56.434 72.63-46.987 72.63-35.334C72.63-23.68 63.18-14.234 51.53-14.234C39.88-14.234 30.43-23.68 30.43-35.334ZM56.41-30.448C59.19-33.221 63.68-33.221 66.46-30.448L81.3-15.608C84.07-12.835 84.07-8.34 81.3-5.567C78.52-2.794 74.03-2.794 71.25-5.567L56.41-20.407C53.64-23.18 53.64-27.675 56.41-30.448ZM46.65-30.448C49.42-27.675 49.42-23.18 46.65-20.407L31.81-5.567C29.03-2.794 24.54-2.794 21.77-5.567C18.99-8.34 18.99-12.835 21.77-15.608L36.61-30.448C39.38-33.221 43.87-33.221 46.65-30.448ZM81.3-65.096C84.07-62.324 84.07-57.828 81.3-55.055L66.46-40.215C63.68-37.443 59.19-37.443 56.41-40.215C53.64-42.988 53.64-47.484 56.41-50.256L71.25-65.096C74.03-67.869 78.52-67.869 81.3-65.096ZM78.81-62.612C81.58-59.839 81.58-55.344 78.81-52.571L66.46-40.216C63.68-37.443 59.19-37.443 56.41-40.216C53.64-42.989 53.64-47.484 56.41-50.257L68.77-62.612C71.54-65.385 76.04-65.385 78.81-62.612ZM21.77-65.096C24.54-67.869 29.03-67.869 31.81-65.096L46.65-50.256C49.42-47.484 49.42-42.988 46.65-40.215C43.87-37.443 39.38-37.443 36.61-40.215L21.77-55.055C18.99-57.828 18.99-62.324 21.77-65.096Z"/>
  </g>
  <g id="Heavy-S" transform="matrix(1 0 0 1 2586.16 696)">
   <path d="M50.68-64.082C34.8-64.082 21.93-51.21 21.93-35.332C21.93-19.454 34.8-6.582 50.68-6.582C66.56-6.582 79.43-19.454 79.43-35.332C79.43-51.21 66.56-64.082 50.68-64.082ZM9.43-35.332C9.43-58.114 27.9-76.582 50.68-76.582C73.46-76.582 91.93-58.114 91.93-35.332C91.93-12.55 73.46 5.918 50.68 5.918C27.9 5.918 9.43-12.55 9.43-35.332ZM50.68-43.082C46.4-43.082 42.93-39.612 42.93-35.332C42.93-31.052 46.4-27.582 50.68-27.582C54.96-27.582 58.43-31.052 58.43-35.332C58.43-39.612 54.96-43.082 50.68-43.082ZM30.43-35.332C30.43-46.516 39.5-55.582 50.68-55.582C61.86-55.582 70.93-46.516 70.93-35.332C70.93-24.148 61.86-15.082 50.68-15.082C39.5-15.082 30.43-24.148 30.43-35.332ZM56.17-29.845C58.61-32.286 62.56-32.286 65.01-29.845L79.85-15.005C82.29-12.564 82.29-8.607 79.85-6.166C77.4-3.726 73.45-3.726 71.01-6.166L56.17-21.006C53.73-23.447 53.73-27.404 56.17-29.845ZM45.19-29.845C47.64-27.404 47.64-23.447 45.19-21.006L30.35-6.166C27.91-3.726 23.96-3.726 21.52-6.166C19.08-8.607 19.08-12.564 21.52-15.005L36.36-29.845C38.8-32.286 42.75-32.286 45.19-29.845ZM79.85-64.498C82.29-62.057 82.29-58.099 79.85-55.659L65.01-40.819C62.56-38.378 58.61-38.378 56.17-40.819C53.73-43.259 53.73-47.217 56.17-49.658L71.01-64.498C73.45-66.938 77.4-66.938 79.85-64.498ZM77.36-62.013C79.8-59.572 79.8-55.615 77.36-53.174L65.01-40.819C62.56-38.379 58.61-38.379 56.17-40.819C53.73-43.26 53.73-47.217 56.17-49.658L68.52-62.013C70.96-64.454 74.92-64.454 77.36-62.013ZM21.52-64.498C23.96-66.938 27.91-66.938 30.35-64.498L45.19-49.658C47.64-47.217 47.64-43.259 45.19-40.819C42.75-38.378 38.8-38.378 36.36-40.819L21.52-55.659C19.08-58.099 19.08-62.057 21.52-64.498Z"/>
  </g>
  <g id="Bold-S" transform="matrix(1 0 0 1 2290.4 696)">
   <path d="M49.73-64.826C33.33-64.826 20.03-51.529 20.03-35.126C20.03-18.723 33.33-5.426 49.73-5.426C66.14-5.426 79.43-18.723 79.43-35.126C79.43-51.529 66.14-64.826 49.73-64.826ZM9.43-35.126C9.43-57.383 27.48-75.426 49.73-75.426C71.99-75.426 90.03-57.383 90.03-35.126C90.03-12.869 71.99 5.174 49.73 5.174C27.48 5.174 9.43-12.869 9.43-35.126ZM49.73-43.826C44.93-43.826 41.03-39.931 41.03-35.126C41.03-30.321 44.93-26.426 49.73-26.426C54.54-26.426 58.43-30.321 58.43-35.126C58.43-39.931 54.54-43.826 49.73-43.826ZM30.43-35.126C30.43-45.785 39.08-54.426 49.73-54.426C60.39-54.426 69.03-45.785 69.03-35.126C69.03-24.467 60.39-15.826 49.73-15.826C39.08-15.826 30.43-24.467 30.43-35.126ZM55.89-28.967C57.96-31.037 61.32-31.037 63.39-28.967L78.23-14.127C80.3-12.057 80.3-8.702 78.23-6.632C76.16-4.562 72.8-4.562 70.73-6.632L55.89-21.472C53.82-23.542 53.82-26.897 55.89-28.967ZM43.58-28.967C45.65-26.897 45.65-23.542 43.58-21.472L28.74-6.632C26.67-4.562 23.31-4.562 21.24-6.632C19.17-8.702 19.17-12.057 21.24-14.127L36.08-28.967C38.15-31.037 41.51-31.037 43.58-28.967ZM78.23-63.62C80.3-61.55 80.3-58.194 78.23-56.124L63.39-41.284C61.32-39.214 57.96-39.214 55.89-41.284C53.82-43.354 53.82-46.71 55.89-48.78L70.73-63.62C72.8-65.689 76.16-65.689 78.23-63.62ZM75.74-61.131C77.81-59.061 77.81-55.706 75.74-53.636L63.39-41.281C61.32-39.211 57.96-39.211 55.89-41.281C53.82-43.351 53.82-46.706 55.89-48.776L68.25-61.131C70.32-63.201 73.67-63.201 75.74-61.131ZM21.24-63.62C23.31-65.689 26.67-65.689 28.74-63.62L43.58-48.78C45.65-46.71 45.65-43.354 43.58-41.284C41.51-39.214 38.15-39.214 36.08-41.284L21.24-56.124C19.17-58.194 19.17-61.55 21.24-63.62Z"/>
  </g>
  <g id="Semibold-S" transform="matrix(1 0 0 1 1994.34 696)">
   <path d="M49.08-65.473C32.32-65.473 18.73-51.885 18.73-35.123C18.73-18.362 32.32-4.773 49.08-4.773C65.84-4.773 79.43-18.362 79.43-35.123C79.43-51.885 65.84-65.473 49.08-65.473ZM9.43-35.123C9.43-57.022 27.18-74.773 49.08-74.773C70.98-74.773 88.73-57.022 88.73-35.123C88.73-13.225 70.98 4.527 49.08 4.527C27.18 4.527 9.43-13.225 9.43-35.123ZM49.08-44.473C43.92-44.473 39.73-40.287 39.73-35.123C39.73-29.96 43.92-25.773 49.08-25.773C54.24-25.773 58.43-29.96 58.43-35.123C58.43-40.287 54.24-44.473 49.08-44.473ZM30.43-35.123C30.43-45.424 38.78-53.773 49.08-53.773C59.38-53.773 67.73-45.424 67.73-35.123C67.73-24.823 59.38-16.473 49.08-16.473C38.78-16.473 30.43-24.823 30.43-35.123ZM55.7-28.509C57.51-30.325 60.46-30.325 62.27-28.509L77.11-13.669C78.93-11.853 78.93-8.909 77.11-7.093C75.3-5.277 72.35-5.277 70.54-7.093L55.7-21.933C53.88-23.749 53.88-26.693 55.7-28.509ZM42.46-28.509C44.28-26.693 44.28-23.749 42.46-21.933L27.62-7.093C25.81-5.277 22.86-5.277 21.05-7.093C19.23-8.909 19.23-11.853 21.05-13.669L35.89-28.509C37.7-30.325 40.65-30.325 42.46-28.509ZM77.11-63.158C78.93-61.342 78.93-58.397 77.11-56.581L62.27-41.741C60.46-39.926 57.51-39.926 55.7-41.741C53.88-43.557 53.88-46.502 55.7-48.318L70.54-63.158C72.35-64.974 75.3-64.974 77.11-63.158ZM74.63-60.673C76.44-58.857 76.44-55.913 74.63-54.097L62.27-41.742C60.46-39.926 57.51-39.926 55.7-41.742C53.88-43.558 53.88-46.502 55.7-48.318L68.05-60.673C69.87-62.489 72.81-62.489 74.63-60.673ZM21.05-63.158C22.86-64.974 25.81-64.974 27.62-63.158L42.46-48.318C44.28-46.502 44.28-43.557 42.46-41.741C40.65-39.926 37.7-39.926 35.89-41.741L21.05-56.581C19.23-58.397 19.23-61.342 21.05-63.158Z"/>
  </g>
  <g id="Medium-S" transform="matrix(1 0 0 1 1698.13 696)">
   <path d="M48.58-65.973C31.54-65.973 17.73-52.161 17.73-35.123C17.73-18.085 31.54-4.273 48.58-4.273C65.62-4.273 79.43-18.085 79.43-35.123C79.43-52.161 65.62-65.973 48.58-65.973ZM9.43-35.123C9.43-56.745 26.96-74.273 48.58-74.273C70.2-74.273 87.73-56.745 87.73-35.123C87.73-13.501 70.2 4.027 48.58 4.027C26.96 4.027 9.43-13.501 9.43-35.123ZM48.58-44.973C43.14-44.973 38.73-40.563 38.73-35.123C38.73-29.683 43.14-25.273 48.58-25.273C54.02-25.273 58.43-29.683 58.43-35.123C58.43-40.563 54.02-44.973 48.58-44.973ZM30.43-35.123C30.43-45.147 38.56-53.273 48.58-53.273C58.6-53.273 66.73-45.147 66.73-35.123C66.73-25.099 58.6-16.973 48.58-16.973C38.56-16.973 30.43-25.099 30.43-35.123ZM55.55-28.156C57.17-29.776 59.8-29.776 61.42-28.156L76.26-13.316C77.88-11.695 77.88-9.067 76.26-7.447C74.64-5.826 72.01-5.826 70.39-7.447L55.55-22.287C53.93-23.907 53.93-26.535 55.55-28.156ZM41.61-28.156C43.23-26.535 43.23-23.907 41.61-22.287L26.77-7.447C25.15-5.826 22.52-5.826 20.9-7.447C19.28-9.067 19.28-11.695 20.9-13.316L35.74-28.156C37.36-29.776 39.99-29.776 41.61-28.156ZM76.26-62.804C77.88-61.183 77.88-58.556 76.26-56.935L61.42-42.095C59.8-40.474 57.17-40.474 55.55-42.095C53.93-43.716 53.93-46.343 55.55-47.964L70.39-62.804C72.01-64.425 74.64-64.425 76.26-62.804ZM73.77-60.32C75.4-58.699 75.4-56.071 73.77-54.451L61.42-42.096C59.8-40.475 57.17-40.475 55.55-42.096C53.93-43.716 53.93-46.344 55.55-47.965L67.91-60.32C69.53-61.94 72.15-61.94 73.77-60.32ZM20.9-62.804C22.52-64.425 25.15-64.425 26.77-62.804L41.61-47.964C43.23-46.343 43.23-43.716 41.61-42.095C39.99-40.474 37.36-40.474 35.74-42.095L20.9-56.935C19.28-58.556 19.28-61.183 20.9-62.804Z"/>
  </g>
  <g id="Regular-S" transform="matrix(1 0 0 1 1402.07 696)">
   <path d="M47.93-66.625C30.53-66.625 16.43-52.522 16.43-35.125C16.43-17.728 30.53-3.625 47.93-3.625C65.33-3.625 79.43-17.728 79.43-35.125C79.43-52.522 65.33-66.625 47.93-66.625ZM9.43-35.125C9.43-56.388 26.67-73.625 47.93-73.625C69.19-73.625 86.43-56.388 86.43-35.125C86.43-13.862 69.19 3.375 47.93 3.375C26.67 3.375 9.43-13.862 9.43-35.125ZM47.93-45.625C42.13-45.625 37.43-40.924 37.43-35.125C37.43-29.326 42.13-24.625 47.93-24.625C53.73-24.625 58.43-29.326 58.43-35.125C58.43-40.924 53.73-45.625 47.93-45.625ZM30.43-35.125C30.43-44.79 38.27-52.625 47.93-52.625C57.59-52.625 65.43-44.79 65.43-35.125C65.43-25.46 57.59-17.625 47.93-17.625C38.27-17.625 30.43-25.46 30.43-35.125ZM55.36-27.694C56.73-29.06 58.94-29.06 60.31-27.694L75.15-12.854C76.52-11.487 76.52-9.271 75.15-7.904C73.78-6.537 71.57-6.537 70.2-7.904L55.36-22.744C53.99-24.111 53.99-26.327 55.36-27.694ZM40.5-27.694C41.87-26.327 41.87-24.111 40.5-22.744L25.66-7.904C24.29-6.537 22.08-6.537 20.71-7.904C19.34-9.271 19.34-11.487 20.71-12.854L35.55-27.694C36.92-29.06 39.13-29.06 40.5-27.694ZM75.15-62.346C76.52-60.979 76.52-58.763 75.15-57.396L60.31-42.556C58.94-41.189 56.73-41.189 55.36-42.556C53.99-43.923 53.99-46.139 55.36-47.506L70.2-62.346C71.57-63.713 73.78-63.713 75.15-62.346ZM72.67-59.862C74.03-58.495 74.03-56.279 72.67-54.912L60.31-42.557C58.94-41.19 56.73-41.19 55.36-42.557C53.99-43.924 53.99-46.14 55.36-47.507L67.72-59.862C69.08-61.228 71.3-61.228 72.67-59.862ZM20.71-62.346C22.08-63.713 24.29-63.713 25.66-62.346L40.5-47.506C41.87-46.139 41.87-43.923 40.5-42.556C39.13-41.189 36.92-41.189 35.55-42.556L20.71-57.396C19.34-58.763 19.34-60.979 20.71-62.346Z"/>
  </g>
  <g id="Light-S" transform="matrix(1 0 0 1 1106.16 696)">
   <path d="M47.13-67.424C29.29-67.424 14.83-52.963 14.83-35.124C14.83-17.285 29.29-2.824 47.13-2.824C64.97-2.824 79.43-17.285 79.43-35.124C79.43-52.963 64.97-67.424 47.13-67.424ZM9.43-35.124C9.43-55.945 26.31-72.824 47.13-72.824C67.95-72.824 84.83-55.945 84.83-35.124C84.83-14.303 67.95 2.576 47.13 2.576C26.31 2.576 9.43-14.303 9.43-35.124ZM47.13-46.424C40.89-46.424 35.83-41.365 35.83-35.124C35.83-28.883 40.89-23.824 47.13-23.824C53.37-23.824 58.43-28.883 58.43-35.124C58.43-41.365 53.37-46.424 47.13-46.424ZM30.43-35.124C30.43-44.347 37.91-51.824 47.13-51.824C56.35-51.824 63.83-44.347 63.83-35.124C63.83-25.901 56.35-18.424 47.13-18.424C37.91-18.424 30.43-25.901 30.43-35.124ZM55.13-27.131C56.18-28.185 57.89-28.185 58.94-27.131L73.78-12.291C74.84-11.237 74.84-9.527 73.78-8.473C72.73-7.418 71.02-7.418 69.97-8.473L55.13-23.313C54.07-24.367 54.07-26.077 55.13-27.131ZM39.13-27.131C40.19-26.077 40.19-24.367 39.13-23.313L24.29-8.473C23.24-7.418 21.53-7.418 20.48-8.473C19.42-9.527 19.42-11.237 20.48-12.291L35.32-27.131C36.37-28.185 38.08-28.185 39.13-27.131ZM73.78-61.78C74.84-60.725 74.84-59.016 73.78-57.961L58.94-43.121C57.89-42.067 56.18-42.067 55.13-43.121C54.07-44.176 54.07-45.885 55.13-46.939L69.97-61.78C71.02-62.834 72.73-62.834 73.78-61.78ZM71.3-59.295C72.35-58.241 72.35-56.531 71.3-55.477L58.94-43.122C57.89-42.067 56.18-42.067 55.13-43.122C54.07-44.176 54.07-45.886 55.13-46.94L67.48-59.295C68.54-60.35 70.24-60.35 71.3-59.295ZM20.48-61.78C21.53-62.834 23.24-62.834 24.29-61.78L39.13-46.939C40.19-45.885 40.19-44.176 39.13-43.121C38.08-42.067 36.37-42.067 35.32-43.121L20.48-57.961C19.42-59.016 19.42-60.725 20.48-61.78Z"/>
  </g>
  <g id="Thin-S" transform="matrix(1 0 0 1 810.497 696)">
   <path d="M46.08-68.473C27.661-68.473 12.73-53.542 12.73-35.123C12.73-16.705 27.661-1.773 46.08-1.773C64.498-1.773 79.43-16.705 79.43-35.123C79.43-53.542 64.498-68.473 46.08-68.473ZM9.43-35.123C9.43-55.365 25.838-71.773 46.08-71.773C66.321-71.773 82.73-55.365 82.73-35.123C82.73-14.882 66.321 1.527 46.08 1.527C25.838 1.527 9.43-14.882 9.43-35.123ZM46.08-47.473C39.259-47.473 33.73-41.944 33.73-35.123C33.73-28.303 39.259-22.773 46.08-22.773C52.9-22.773 58.43-28.303 58.43-35.123C58.43-41.944 52.9-47.473 46.08-47.473ZM30.43-35.123C30.43-43.767 37.436-50.773 46.08-50.773C54.723-50.773 61.73-43.767 61.73-35.123C61.73-26.48 54.723-19.473 46.08-19.473C37.436-19.473 30.43-26.48 30.43-35.123ZM54.818-26.388C55.463-27.032 56.507-27.032 57.152-26.388L71.992-11.548C72.636-10.903 72.636-9.859 71.992-9.214C71.347-8.57 70.303-8.57 69.658-9.214L54.818-24.054C54.174-24.699 54.174-25.743 54.818-26.388ZM37.342-26.388C37.987-25.743 37.987-24.699 37.342-24.054L22.502-9.214C21.858-8.57 20.813-8.57 20.169-9.214C19.524-9.859 19.524-10.903 20.169-11.548L35.009-26.388C35.653-27.032 36.698-27.032 37.342-26.388ZM71.992-61.036C72.636-60.392 72.636-59.347 71.992-58.703L57.152-43.863C56.507-43.218 55.463-43.218 54.818-43.863C54.174-44.507 54.174-45.552 54.818-46.196L69.658-61.036C70.303-61.681 71.347-61.681 71.992-61.036ZM69.507-58.552C70.151-57.908 70.151-56.863 69.507-56.218L57.152-43.863C56.507-43.219 55.463-43.219 54.818-43.863C54.174-44.508 54.174-45.553 54.818-46.197L67.173-58.552C67.818-59.196 68.862-59.196 69.507-58.552ZM20.169-61.036C20.813-61.681 21.858-61.681 22.502-61.036L37.342-46.196C37.987-45.552 37.987-44.507 37.342-43.863C36.698-43.218 35.653-43.218 35.009-43.863L20.169-58.703C19.524-59.347 19.524-60.392 20.169-61.036Z"/>
  </g>
  <g id="Ultralight-S" transform="matrix(1 0 0 1 514.336 696)">
   <path d="M45.53-69.027C26.808-69.027 11.63-53.849 11.63-35.127C11.63-16.404 26.808-1.227 45.53-1.227C64.253-1.227 79.43-16.404 79.43-35.127C79.43-53.849 64.253-69.027 45.53-69.027ZM9.43-35.127C9.43-55.064 25.593-71.227 45.53-71.227C65.468-71.227 81.63-55.064 81.63-35.127C81.63-15.189 65.468 0.973 45.53 0.973C25.593 0.973 9.43-15.189 9.43-35.127ZM45.53-48.027C38.406-48.027 32.63-42.251 32.63-35.127C32.63-28.002 38.406-22.227 45.53-22.227C52.655-22.227 58.43-28.002 58.43-35.127C58.43-42.251 52.655-48.027 45.53-48.027ZM30.43-35.127C30.43-43.466 37.191-50.227 45.53-50.227C53.87-50.227 60.63-43.466 60.63-35.127C60.63-26.787 53.87-20.027 45.53-20.027C37.191-20.027 30.43-26.787 30.43-35.127ZM54.657-25.998C55.086-26.428 55.783-26.428 56.213-25.998L71.053-11.158C71.482-10.729 71.482-10.032 71.053-9.602C70.623-9.173 69.926-9.173 69.497-9.602L54.657-24.442C54.227-24.872 54.227-25.569 54.657-25.998ZM36.403-25.998C36.833-25.569 36.833-24.872 36.403-24.442L21.563-9.602C21.134-9.173 20.437-9.173 20.007-9.602C19.578-10.032 19.578-10.729 20.007-11.158L34.847-25.998C35.277-26.428 35.974-26.428 36.403-25.998ZM71.053-60.647C71.482-60.217 71.482-59.521 71.053-59.091L56.213-44.251C55.783-43.821 55.086-43.821 54.657-44.251C54.227-44.681 54.227-45.377 54.657-45.807L69.497-60.647C69.926-61.076 70.623-61.076 71.053-60.647ZM68.568-58.162C68.997-57.733 68.997-57.036 68.568-56.607L56.213-44.252C55.783-43.822 55.086-43.822 54.657-44.252C54.227-44.681 54.227-45.378 54.657-45.807L67.012-58.162C67.441-58.592 68.138-58.592 68.568-58.162ZM20.007-60.647C20.437-61.076 21.134-61.076 21.563-60.647L36.403-45.807C36.833-45.377 36.833-44.681 36.403-44.251C35.974-43.821 35.277-43.821 34.847-44.251L20.007-59.091C19.578-59.521 19.578-60.217 20.007-60.647Z"/>
  </g>
 </g>
</svg>
