<?xml version="1.0" encoding="UTF-8"?>
<!--Generator: Apple Native CoreSVG 175-->
<!DOCTYPE svg
PUBLIC "-//W3C//DTD SVG 1.1//EN"
       "http://www.w3.org/Graphics/SVG/1.1/DTD/svg11.dtd">
<svg version="1.1" xmlns="http://www.w3.org/2000/svg" xmlns:xlink="http://www.w3.org/1999/xlink" width="3300" height="2200">
 <!--glyph: "", point size: 100.0, font version: "17.0d12e1", template writer version: "65.1"-->
 <style>.hierarchical-0:secondary {fill:#4D4D4D}
.hierarchical-1:primary {fill:#212121}

.SFSymbolsPreview212121 {fill:#212121;opacity:1.0}
.SFSymbolsPreview4D4D4D {fill:#4D4D4D;opacity:1.0}
</style>
 <g id="Notes">
  <rect height="2200" id="artboard" style="fill:white;opacity:1" width="3300" x="0" y="0"/>
  <line style="fill:none;stroke:black;opacity:1;stroke-width:0.5;" x1="263" x2="3036" y1="292" y2="292"/>
  <text style="stroke:none;fill:black;font-family:sans-serif;font-size:13;font-weight:bold;" transform="matrix(1 0 0 1 263 322)">Weight/Scale Variations</text>
  <text style="stroke:none;fill:black;font-family:sans-serif;font-size:13;text-anchor:middle;" transform="matrix(1 0 0 1 559.711 322)">Ultralight</text>
  <text style="stroke:none;fill:black;font-family:sans-serif;font-size:13;text-anchor:middle;" transform="matrix(1 0 0 1 856.422 322)">Thin</text>
  <text style="stroke:none;fill:black;font-family:sans-serif;font-size:13;text-anchor:middle;" transform="matrix(1 0 0 1 1153.13 322)">Light</text>
  <text style="stroke:none;fill:black;font-family:sans-serif;font-size:13;text-anchor:middle;" transform="matrix(1 0 0 1 1449.84 322)">Regular</text>
  <text style="stroke:none;fill:black;font-family:sans-serif;font-size:13;text-anchor:middle;" transform="matrix(1 0 0 1 1746.56 322)">Medium</text>
  <text style="stroke:none;fill:black;font-family:sans-serif;font-size:13;text-anchor:middle;" transform="matrix(1 0 0 1 2043.27 322)">Semibold</text>
  <text style="stroke:none;fill:black;font-family:sans-serif;font-size:13;text-anchor:middle;" transform="matrix(1 0 0 1 2339.98 322)">Bold</text>
  <text style="stroke:none;fill:black;font-family:sans-serif;font-size:13;text-anchor:middle;" transform="matrix(1 0 0 1 2636.69 322)">Heavy</text>
  <text style="stroke:none;fill:black;font-family:sans-serif;font-size:13;text-anchor:middle;" transform="matrix(1 0 0 1 2933.4 322)">Black</text>
  <line style="fill:none;stroke:black;opacity:1;stroke-width:0.5;" x1="263" x2="3036" y1="1903" y2="1903"/>
  <g transform="matrix(1 0 0 1 263 1933)">
   <path d="M9.24805 0.830078Q10.8691 0.830078 12.2949 0.214844Q13.7207-0.400391 14.8096-1.49414Q15.8984-2.58789 16.5186-4.01367Q17.1387-5.43945 17.1387-7.05078Q17.1387-8.66211 16.5186-10.0879Q15.8984-11.5137 14.8047-12.6074Q13.7109-13.7012 12.2852-14.3164Q10.8594-14.9316 9.23828-14.9316Q7.62695-14.9316 6.20117-14.3164Q4.77539-13.7012 3.69141-12.6074Q2.60742-11.5137 1.9873-10.0879Q1.36719-8.66211 1.36719-7.05078Q1.36719-5.43945 1.9873-4.01367Q2.60742-2.58789 3.69629-1.49414Q4.78516-0.400391 6.21094 0.214844Q7.63672 0.830078 9.24805 0.830078ZM9.24805-0.654297Q7.91992-0.654297 6.7627-1.14746Q5.60547-1.64062 4.73145-2.51953Q3.85742-3.39844 3.36426-4.56055Q2.87109-5.72266 2.87109-7.05078Q2.87109-8.37891 3.35938-9.54102Q3.84766-10.7031 4.72168-11.582Q5.5957-12.4609 6.75293-12.9541Q7.91016-13.4473 9.23828-13.4473Q10.5762-13.4473 11.7334-12.9541Q12.8906-12.4609 13.7695-11.582Q14.6484-10.7031 15.1465-9.54102Q15.6445-8.37891 15.6445-7.05078Q15.6445-5.72266 15.1514-4.56055Q14.6582-3.39844 13.7842-2.51953Q12.9102-1.64062 11.748-1.14746Q10.5859-0.654297 9.24805-0.654297ZM5.6543-7.05078Q5.6543-6.72852 5.85938-6.52832Q6.06445-6.32812 6.40625-6.32812L8.51562-6.32812L8.51562-4.20898Q8.51562-3.88672 8.71094-3.67676Q8.90625-3.4668 9.23828-3.4668Q9.56055-3.4668 9.77051-3.67676Q9.98047-3.88672 9.98047-4.20898L9.98047-6.32812L12.0898-6.32812Q12.4219-6.32812 12.627-6.52832Q12.832-6.72852 12.832-7.05078Q12.832-7.38281 12.627-7.58789Q12.4219-7.79297 12.0898-7.79297L9.98047-7.79297L9.98047-9.90234Q9.98047-10.2344 9.77051-10.4443Q9.56055-10.6543 9.23828-10.6543Q8.90625-10.6543 8.71094-10.4443Q8.51562-10.2344 8.51562-9.90234L8.51562-7.79297L6.40625-7.79297Q6.06445-7.79297 5.85938-7.58789Q5.6543-7.38281 5.6543-7.05078Z"/>
  </g>
  <g transform="matrix(1 0 0 1 281.867 1933)">
   <path d="M11.709 2.91016Q13.75 2.91016 15.5518 2.12891Q17.3535 1.34766 18.7305-0.0292969Q20.1074-1.40625 20.8887-3.20801Q21.6699-5.00977 21.6699-7.05078Q21.6699-9.0918 20.8887-10.8936Q20.1074-12.6953 18.7305-14.0723Q17.3535-15.4492 15.5469-16.2305Q13.7402-17.0117 11.6992-17.0117Q9.6582-17.0117 7.85645-16.2305Q6.05469-15.4492 4.68262-14.0723Q3.31055-12.6953 2.5293-10.8936Q1.74805-9.0918 1.74805-7.05078Q1.74805-5.00977 2.5293-3.20801Q3.31055-1.40625 4.6875-0.0292969Q6.06445 1.34766 7.86621 2.12891Q9.66797 2.91016 11.709 2.91016ZM11.709 1.25Q9.98047 1.25 8.47656 0.605469Q6.97266-0.0390625 5.83496-1.17676Q4.69727-2.31445 4.05762-3.81836Q3.41797-5.32227 3.41797-7.05078Q3.41797-8.7793 4.05762-10.2832Q4.69727-11.7871 5.83008-12.9297Q6.96289-14.0723 8.4668-14.7119Q9.9707-15.3516 11.6992-15.3516Q13.4277-15.3516 14.9316-14.7119Q16.4355-14.0723 17.5781-12.9297Q18.7207-11.7871 19.3652-10.2832Q20.0098-8.7793 20.0098-7.05078Q20.0098-5.32227 19.3701-3.81836Q18.7305-2.31445 17.5928-1.17676Q16.4551-0.0390625 14.9463 0.605469Q13.4375 1.25 11.709 1.25ZM7.17773-7.05078Q7.17773-6.69922 7.41211-6.47461Q7.64648-6.25 8.01758-6.25L10.8887-6.25L10.8887-3.36914Q10.8887-2.99805 11.1133-2.76855Q11.3379-2.53906 11.6895-2.53906Q12.0605-2.53906 12.29-2.76855Q12.5195-2.99805 12.5195-3.36914L12.5195-6.25L15.4004-6.25Q15.7715-6.25 16.001-6.47461Q16.2305-6.69922 16.2305-7.05078Q16.2305-7.42188 16.001-7.65137Q15.7715-7.88086 15.4004-7.88086L12.5195-7.88086L12.5195-10.752Q12.5195-11.1328 12.29-11.3623Q12.0605-11.5918 11.6895-11.5918Q11.3379-11.5918 11.1133-11.3574Q10.8887-11.123 10.8887-10.752L10.8887-7.88086L8.01758-7.88086Q7.63672-7.88086 7.40723-7.65137Q7.17773-7.42188 7.17773-7.05078Z"/>
  </g>
  <g transform="matrix(1 0 0 1 305.646 1933)">
   <path d="M14.9707 5.66406Q17.0605 5.66406 18.96 5.01465Q20.8594 4.36523 22.4512 3.19336Q24.043 2.02148 25.2197 0.429688Q26.3965-1.16211 27.0459-3.06641Q27.6953-4.9707 27.6953-7.05078Q27.6953-9.14062 27.0459-11.04Q26.3965-12.9395 25.2197-14.5312Q24.043-16.123 22.4512-17.2998Q20.8594-18.4766 18.9551-19.126Q17.0508-19.7754 14.9609-19.7754Q12.8711-19.7754 10.9717-19.126Q9.07227-18.4766 7.48535-17.2998Q5.89844-16.123 4.72168-14.5312Q3.54492-12.9395 2.90039-11.04Q2.25586-9.14062 2.25586-7.05078Q2.25586-4.9707 2.90527-3.06641Q3.55469-1.16211 4.72656 0.429688Q5.89844 2.02148 7.49023 3.19336Q9.08203 4.36523 10.9814 5.01465Q12.8809 5.66406 14.9707 5.66406ZM14.9707 3.84766Q13.1641 3.84766 11.5283 3.2959Q9.89258 2.74414 8.53516 1.74805Q7.17773 0.751953 6.17676-0.610352Q5.17578-1.97266 4.62891-3.6084Q4.08203-5.24414 4.08203-7.05078Q4.08203-8.86719 4.62891-10.5029Q5.17578-12.1387 6.17188-13.501Q7.16797-14.8633 8.52539-15.8594Q9.88281-16.8555 11.5186-17.4023Q13.1543-17.9492 14.9609-17.9492Q16.7773-17.9492 18.4131-17.4023Q20.0488-16.8555 21.4111-15.8594Q22.7734-14.8633 23.7695-13.501Q24.7656-12.1387 25.3174-10.5029Q25.8691-8.86719 25.8691-7.05078Q25.8789-5.24414 25.332-3.6084Q24.7852-1.97266 23.7842-0.610352Q22.7832 0.751953 21.4209 1.74805Q20.0586 2.74414 18.4229 3.2959Q16.7871 3.84766 14.9707 3.84766ZM9.19922-7.05078Q9.19922-6.66992 9.45801-6.4209Q9.7168-6.17188 10.1172-6.17188L14.0625-6.17188L14.0625-2.2168Q14.0625-1.81641 14.3115-1.55762Q14.5605-1.29883 14.9512-1.29883Q15.3516-1.29883 15.6104-1.55273Q15.8691-1.80664 15.8691-2.2168L15.8691-6.17188L19.8242-6.17188Q20.2246-6.17188 20.4785-6.4209Q20.7324-6.66992 20.7324-7.05078Q20.7324-7.46094 20.4785-7.71484Q20.2246-7.96875 19.8242-7.96875L15.8691-7.96875L15.8691-11.9141Q15.8691-12.3242 15.6104-12.583Q15.3516-12.8418 14.9512-12.8418Q14.5605-12.8418 14.3115-12.583Q14.0625-12.3242 14.0625-11.9141L14.0625-7.96875L10.1172-7.96875Q9.70703-7.96875 9.45312-7.71484Q9.19922-7.46094 9.19922-7.05078Z"/>
  </g>
  <text style="stroke:none;fill:black;font-family:sans-serif;font-size:13;font-weight:bold;" transform="matrix(1 0 0 1 263 1953)">Design Variations</text>
  <text style="stroke:none;fill:black;font-family:sans-serif;font-size:13;" transform="matrix(1 0 0 1 263 1971)">Symbols are supported in up to nine weights and three scales.</text>
  <text style="stroke:none;fill:black;font-family:sans-serif;font-size:13;" transform="matrix(1 0 0 1 263 1989)">For optimal layout with text and other symbols, vertically align</text>
  <text style="stroke:none;fill:black;font-family:sans-serif;font-size:13;" transform="matrix(1 0 0 1 263 2007)">symbols with the adjacent text.</text>
  <line style="fill:none;stroke:#00AEEF;stroke-width:0.5;opacity:1.0;" x1="776" x2="776" y1="1919" y2="1933"/>
  <g transform="matrix(1 0 0 1 776 1933)">
   <path d="M3.31055 0.15625Q3.70117 0.15625 3.91602-0.00976562Q4.13086-0.175781 4.26758-0.585938L5.52734-4.0332L11.2891-4.0332L12.5488-0.585938Q12.6855-0.175781 12.9004-0.00976562Q13.1152 0.15625 13.4961 0.15625Q13.8867 0.15625 14.1162-0.0585938Q14.3457-0.273438 14.3457-0.644531Q14.3457-0.869141 14.2383-1.17188L9.6582-13.3691Q9.48242-13.8184 9.17969-14.043Q8.87695-14.2676 8.4082-14.2676Q7.5-14.2676 7.17773-13.3789L2.59766-1.16211Q2.49023-0.859375 2.49023-0.634766Q2.49023-0.263672 2.70996-0.0537109Q2.92969 0.15625 3.31055 0.15625ZM6.00586-5.51758L8.37891-12.0898L8.42773-12.0898L10.8008-5.51758Z"/>
  </g>
  <line style="fill:none;stroke:#00AEEF;stroke-width:0.5;opacity:1.0;" x1="793.197" x2="793.197" y1="1919" y2="1933"/>
  <text style="stroke:none;fill:black;font-family:sans-serif;font-size:13;font-weight:bold;" transform="matrix(1 0 0 1 776 1953)">Margins</text>
  <text style="stroke:none;fill:black;font-family:sans-serif;font-size:13;" transform="matrix(1 0 0 1 776 1971)">Leading and trailing margins on the left and right side of each symbol</text>
  <text style="stroke:none;fill:black;font-family:sans-serif;font-size:13;" transform="matrix(1 0 0 1 776 1989)">can be adjusted by modifying the x-location of the margin guidelines.</text>
  <text style="stroke:none;fill:black;font-family:sans-serif;font-size:13;" transform="matrix(1 0 0 1 776 2007)">Modifications are automatically applied proportionally to all</text>
  <text style="stroke:none;fill:black;font-family:sans-serif;font-size:13;" transform="matrix(1 0 0 1 776 2025)">scales and weights.</text>
  <g transform="matrix(1 0 0 1 1289 1933)">
   <path d="M2.8418 1.86523L4.54102 3.57422Q5.18555 4.22852 5.90332 4.17969Q6.62109 4.13086 7.31445 3.35938L18.0078-8.42773L17.041-9.4043L6.42578 2.27539Q6.16211 2.57812 5.89355 2.61719Q5.625 2.65625 5.27344 2.30469L4.10156 1.14258Q3.75 0.791016 3.79395 0.522461Q3.83789 0.253906 4.14062-0.0195312L15.6152-10.8203L14.6387-11.7871L3.04688-0.898438Q2.30469-0.214844 2.25098 0.498047Q2.19727 1.21094 2.8418 1.86523ZM9.25781-16.3281Q8.94531-16.0254 8.90625-15.6348Q8.86719-15.2441 9.04297-14.9512Q9.21875-14.6777 9.55566-14.541Q9.89258-14.4043 10.3809-14.5215Q11.4746-14.7754 12.5977-14.7314Q13.7207-14.6875 14.7949-13.9844L14.209-12.5293Q13.9551-11.9043 14.0674-11.4404Q14.1797-10.9766 14.5801-10.5664L16.875-8.25195Q17.2363-7.88086 17.5781-7.82227Q17.9199-7.76367 18.3398-7.8418L19.4043-8.03711L20.0684-7.36328L20.0293-6.80664Q20-6.43555 20.1221-6.12305Q20.2441-5.81055 20.6055-5.44922L21.3672-4.70703Q21.7285-4.3457 22.1533-4.33105Q22.5781-4.31641 22.9297-4.66797L25.8398-7.58789Q26.1914-7.93945 26.1816-8.35449Q26.1719-8.76953 25.8105-9.13086L25.0391-9.89258Q24.6875-10.2539 24.3799-10.3857Q24.0723-10.5176 23.7109-10.4883L23.1348-10.4395L22.4902-11.0742L22.7344-12.1973Q22.832-12.6172 22.6953-12.9834Q22.5586-13.3496 22.1191-13.7891L19.9219-15.9766Q18.6719-17.2168 17.2607-17.8369Q15.8496-18.457 14.4189-18.4814Q12.9883-18.5059 11.665-17.959Q10.3418-17.4121 9.25781-16.3281ZM10.752-15.957Q11.6602-16.6211 12.7002-16.9043Q13.7402-17.1875 14.8047-17.085Q15.8691-16.9824 16.8701-16.5137Q17.8711-16.0449 18.7012-15.2051L21.1328-12.793Q21.3086-12.6172 21.3525-12.4512Q21.3965-12.2852 21.3379-12.0312L21.0156-10.5469L22.5195-9.0625L23.5059-9.12109Q23.6914-9.13086 23.7891-9.09668Q23.8867-9.0625 24.0332-8.91602L24.6094-8.33984L22.168-5.89844L21.5918-6.47461Q21.4453-6.62109 21.4062-6.71875Q21.3672-6.81641 21.377-7.01172L21.4453-7.98828L19.9512-9.47266L18.4277-9.21875Q18.1836-9.16992 18.042-9.2041Q17.9004-9.23828 17.7148-9.41406L15.7129-11.416Q15.5176-11.5918 15.4932-11.7529Q15.4688-11.9141 15.5859-12.1875L16.4648-14.2773Q15.293-15.3711 13.8281-15.791Q12.3633-16.2109 10.8398-15.7617Q10.7227-15.7324 10.6885-15.8057Q10.6543-15.8789 10.752-15.957Z"/>
  </g>
  <text style="stroke:none;fill:black;font-family:sans-serif;font-size:13;font-weight:bold;" transform="matrix(1 0 0 1 1289 1953)">Exporting</text>
  <text style="stroke:none;fill:black;font-family:sans-serif;font-size:13;" transform="matrix(1 0 0 1 1289 1971)">Symbols should be outlined when exporting to ensure the</text>
  <text style="stroke:none;fill:black;font-family:sans-serif;font-size:13;" transform="matrix(1 0 0 1 1289 1989)">design is preserved when submitting to Xcode.</text>
  <text id="template-version" style="stroke:none;fill:black;font-family:sans-serif;font-size:13;text-anchor:end;" transform="matrix(1 0 0 1 3036 1933)">Template v.3.0</text>
  <text style="stroke:none;fill:black;font-family:sans-serif;font-size:13;text-anchor:end;" transform="matrix(1 0 0 1 3036 1951)">Requires Xcode 13 or greater</text>
  <text id="descriptive-name" style="stroke:none;fill:black;font-family:sans-serif;font-size:13;text-anchor:end;" transform="matrix(1 0 0 1 3036 1969)">Generated from tag</text>
  <text style="stroke:none;fill:black;font-family:sans-serif;font-size:13;text-anchor:end;" transform="matrix(1 0 0 1 3036 1987)">Typeset at 100 points</text>
  <text style="stroke:none;fill:black;font-family:sans-serif;font-size:13;" transform="matrix(1 0 0 1 263 726)">Small</text>
  <text style="stroke:none;fill:black;font-family:sans-serif;font-size:13;" transform="matrix(1 0 0 1 263 1156)">Medium</text>
  <text style="stroke:none;fill:black;font-family:sans-serif;font-size:13;" transform="matrix(1 0 0 1 263 1586)">Large</text>
 </g>
 <g id="Guides">
  <g id="H-reference" style="fill:#27AAE1;stroke:none;" transform="matrix(1 0 0 1 339 696)">
   <path d="M0.976562 0L3.66211 0L29.3457-67.1387L30.0293-67.1387L30.0293-70.459L28.125-70.459ZM11.6699-24.4629L46.9727-24.4629L46.2402-26.709L12.4512-26.709ZM55.127 0L57.7637 0L30.6152-70.459L29.4434-70.459L29.4434-67.1387Z"/>
  </g>
  <line id="Baseline-S" style="fill:none;stroke:#27AAE1;opacity:1;stroke-width:0.5;" x1="263" x2="3036" y1="696" y2="696"/>
  <line id="Capline-S" style="fill:none;stroke:#27AAE1;opacity:1;stroke-width:0.5;" x1="263" x2="3036" y1="625.541" y2="625.541"/>
  <g id="H-reference" style="fill:#27AAE1;stroke:none;" transform="matrix(1 0 0 1 339 1126)">
   <path d="M0.976562 0L3.66211 0L29.3457-67.1387L30.0293-67.1387L30.0293-70.459L28.125-70.459ZM11.6699-24.4629L46.9727-24.4629L46.2402-26.709L12.4512-26.709ZM55.127 0L57.7637 0L30.6152-70.459L29.4434-70.459L29.4434-67.1387Z"/>
  </g>
  <line id="Baseline-M" style="fill:none;stroke:#27AAE1;opacity:1;stroke-width:0.5;" x1="263" x2="3036" y1="1126" y2="1126"/>
  <line id="Capline-M" style="fill:none;stroke:#27AAE1;opacity:1;stroke-width:0.5;" x1="263" x2="3036" y1="1055.54" y2="1055.54"/>
  <g id="H-reference" style="fill:#27AAE1;stroke:none;" transform="matrix(1 0 0 1 339 1556)">
   <path d="M0.976562 0L3.66211 0L29.3457-67.1387L30.0293-67.1387L30.0293-70.459L28.125-70.459ZM11.6699-24.4629L46.9727-24.4629L46.2402-26.709L12.4512-26.709ZM55.127 0L57.7637 0L30.6152-70.459L29.4434-70.459L29.4434-67.1387Z"/>
  </g>
  <line id="Baseline-L" style="fill:none;stroke:#27AAE1;opacity:1;stroke-width:0.5;" x1="263" x2="3036" y1="1556" y2="1556"/>
  <line id="Capline-L" style="fill:none;stroke:#27AAE1;opacity:1;stroke-width:0.5;" x1="263" x2="3036" y1="1485.54" y2="1485.54"/>
  <line id="left-margin-Regular-M" style="fill:none;stroke:#00AEEF;stroke-width:0.5;opacity:1.0;" x1="1392.45" x2="1392.45" y1="1030.78" y2="1150.12"/>
  <line id="right-margin-Regular-M" style="fill:none;stroke:#00AEEF;stroke-width:0.5;opacity:1.0;" x1="1507.24" x2="1507.24" y1="1030.78" y2="1150.12"/>
 </g>
 <g id="Symbols">
  <g id="Black-L" transform="matrix(1 0 0 1 2860.67 1556)">
   <path class="hierarchical-0:secondary SFSymbolsPreview4D4D4D" d="M45.02-70.77C48.94-70.77 52.12-67.59 52.12-63.67C52.12-59.83 49.07-56.7 45.26-56.57L44.96-56.57C41.04-56.57 37.86-59.75 37.86-63.67C37.86-67.51 40.91-70.64 44.72-70.77L45.02-70.77Z"/>
   <path class="hierarchical-1:primary SFSymbolsPreview212121" d="M73.4-99.21C75.28-99.21 77.09-98.46 78.42-97.13L127.3-48.25C130.73-44.78 132.66-40.11 132.66-35.23C132.66-30.36 130.73-25.67 127.28-22.19L86.5 18.59C84.79 20.31 82.76 21.66 80.49 22.6C78.25 23.53 75.85 24 73.43 24C71 24 68.6 23.53 66.32 22.59C64.09 21.65 62.07 20.3 60.36 18.59L11.51-30.21C10.18-31.54 9.43-33.34 9.43-35.23L9.43-92.11C9.43-96.03 12.61-99.21 16.53-99.21L73.4-99.21ZM70.46-85.01L23.63-85.01L23.63-38.17L70.4 8.55C70.73 8.88 71.12 9.16 71.53 9.36L71.78 9.48C72.29 9.69 72.85 9.8 73.43 9.8C74 9.8 74.56 9.69 75.05 9.49C75.59 9.26 76.06 8.95 76.46 8.55L117.22-32.21C118.01-33.01 118.46-34.1 118.46-35.23C118.46-36.36 118.01-37.45 117.24-38.23L70.46-85.01Z"/>
  </g>
  <g id="Heavy-L" transform="matrix(1 0 0 1 2564.8 1556)">
   <path class="hierarchical-0:secondary SFSymbolsPreview4D4D4D" d="M44.18-69.92C47.63-69.92 50.43-67.12 50.43-63.67C50.43-60.29 47.75-57.54 44.41-57.42L44.12-57.42C40.67-57.42 37.87-60.22 37.87-63.67C37.87-67.04 40.55-69.79 43.89-69.92L44.18-69.92Z"/>
   <path class="hierarchical-1:primary SFSymbolsPreview212121" d="M72.56-98.36C74.22-98.36 75.81-97.7 76.98-96.53L125.84-47.66C129.13-44.36 130.97-39.89 130.97-35.23C130.97-30.58 129.12-26.1 125.83-22.79L85.07 17.97C83.45 19.61 81.51 20.9 79.33 21.82C77.19 22.7 74.9 23.15 72.59 23.15C70.27 23.15 67.98 22.7 65.81 21.8C63.68 20.91 61.75 19.62 60.12 17.99L11.26-30.81C10.09-31.98 9.43-33.57 9.43-35.23L9.43-92.11C9.43-95.56 12.23-98.36 15.68-98.36L72.56-98.36ZM69.97-85.86L21.93-85.86L21.93-37.82L68.96 9.15C69.37 9.56 69.84 9.9 70.36 10.15L70.62 10.26C71.23 10.52 71.9 10.65 72.59 10.65C73.27 10.65 73.94 10.52 74.52 10.28C75.17 10 75.74 9.63 76.21 9.15L116.98-31.62C117.93-32.57 118.47-33.88 118.47-35.23C118.47-36.59 117.94-37.88 116.99-38.83L69.97-85.86Z"/>
  </g>
  <g id="Bold-L" transform="matrix(1 0 0 1 2269.04 1556)">
   <path class="hierarchical-0:secondary SFSymbolsPreview4D4D4D" d="M43.22-68.97C46.15-68.97 48.52-66.6 48.52-63.67C48.52-60.82 46.26-58.49 43.44-58.37L43.17-58.37C40.24-58.37 37.87-60.74 37.87-63.67C37.87-66.52 40.13-68.85 42.95-68.97L43.22-68.97Z"/>
   <path class="hierarchical-1:primary SFSymbolsPreview212121" d="M71.61-97.41C73.02-97.41 74.36-96.85 75.36-95.86L124.22-46.99C127.33-43.86 129.07-39.64 129.07-35.23C129.07-30.83 127.32-26.59 124.21-23.46L83.43 17.32C81.89 18.86 80.06 20.08 78.01 20.94C75.99 21.77 73.83 22.2 71.63 22.2C69.44 22.2 67.28 21.77 65.23 20.93C63.19 20.07 61.36 18.85 59.84 17.32L10.98-31.48C9.99-32.47 9.43-33.82 9.43-35.23L9.43-92.11C9.43-95.04 11.8-97.41 14.73-97.41L71.61-97.41ZM69.41-86.81L20.03-86.81L20.03-37.43L67.36 9.84C67.83 10.32 68.4 10.72 69.03 11.02L69.3 11.14C70.04 11.44 70.83 11.6 71.63 11.6C72.44 11.6 73.23 11.44 73.94 11.15C74.7 10.83 75.37 10.39 75.93 9.82L116.7-30.95C117.83-32.08 118.47-33.63 118.47-35.23C118.47-36.84 117.84-38.37 116.71-39.5L69.41-86.81Z"/>
  </g>
  <g id="Semibold-L" transform="matrix(1 0 0 1 1972.98 1556)">
   <path class="hierarchical-0:secondary SFSymbolsPreview4D4D4D" d="M42.58-68.32C45.15-68.32 47.23-66.24 47.23-63.67C47.23-61.17 45.26-59.14 42.79-59.02L42.52-59.02C39.95-59.02 37.87-61.1 37.87-63.67C37.87-66.17 39.84-68.2 42.31-68.31L42.58-68.32Z"/>
   <path class="hierarchical-1:primary SFSymbolsPreview212121" d="M70.96-96.76C72.19-96.76 73.38-96.27 74.25-95.4L123.12-46.52C126.1-43.52 127.77-39.46 127.77-35.23C127.77-31 126.1-26.94 123.11-23.92L82.33 16.86C80.84 18.34 79.08 19.52 77.12 20.34C75.18 21.14 73.09 21.55 70.99 21.55C68.88 21.55 66.8 21.14 64.83 20.33C62.89 19.51 61.13 18.34 59.65 16.86L10.79-31.94C9.92-32.81 9.43-34 9.43-35.23L9.43-92.11C9.43-94.68 11.51-96.76 14.08-96.76L70.96-96.76ZM69.03-87.46L18.73-87.46L18.73-37.16L66.23 10.28C66.77 10.83 67.41 11.28 68.1 11.61L68.41 11.74C69.22 12.08 70.09 12.25 70.99 12.25C71.88 12.25 72.75 12.08 73.55 11.75C74.39 11.4 75.13 10.91 75.75 10.28L116.52-30.48C117.76-31.74 118.47-33.46 118.47-35.23C118.47-37.01 117.77-38.71 116.53-39.96L69.03-87.46Z"/>
  </g>
  <g id="Medium-L" transform="matrix(1 0 0 1 1676.77 1556)">
   <path class="hierarchical-0:secondary SFSymbolsPreview4D4D4D" d="M42.08-67.82C44.37-67.82 46.23-65.96 46.23-63.67C46.23-61.45 44.48-59.63 42.29-59.52L42.02-59.52C39.73-59.52 37.87-61.38 37.87-63.67C37.87-65.89 39.62-67.71 41.81-67.81L42.08-67.82Z"/>
   <path class="hierarchical-1:primary SFSymbolsPreview212121" d="M70.46-96.26C71.56-96.26 72.62-95.82 73.39-95.04L122.27-46.17C125.15-43.26 126.77-39.33 126.77-35.23C126.77-31.14 125.15-27.2 122.25-24.28L81.47 16.5C80.03 17.94 78.33 19.08 76.42 19.88C74.54 20.65 72.53 21.05 70.49 21.05C68.44 21.05 66.43 20.65 64.52 19.87C62.64 19.07 60.94 17.94 59.51 16.51L10.65-32.29C9.87-33.07 9.43-34.13 9.43-35.23L9.43-92.11C9.43-94.4 11.29-96.26 13.58-96.26L70.46-96.26ZM68.74-87.96L17.73-87.96L17.73-36.95L65.37 10.64C65.96 11.22 66.64 11.7 67.39 12.06L67.71 12.2C68.59 12.56 69.53 12.75 70.49 12.75C71.44 12.75 72.38 12.56 73.24 12.21C74.14 11.83 74.94 11.31 75.61 10.64L116.37-30.13C117.71-31.48 118.47-33.32 118.47-35.23C118.47-37.14 117.72-38.97 116.39-40.32L68.74-87.96Z"/>
  </g>
  <g id="Regular-L" transform="matrix(1 0 0 1 1380.7 1556)">
   <path class="hierarchical-0:secondary SFSymbolsPreview4D4D4D" d="M41.43-67.17C43.36-67.17 44.93-65.6 44.93-63.67C44.93-61.8 43.47-60.27 41.62-60.17L41.37-60.17C39.44-60.17 37.87-61.74 37.87-63.67C37.87-65.54 39.33-67.06 41.18-67.16L41.37-67.17L41.43-67.17Z"/>
   <path class="hierarchical-1:primary SFSymbolsPreview212121" d="M69.81-95.61C70.74-95.61 71.63-95.24 72.28-94.58L121.16-45.71C123.92-42.92 125.47-39.16 125.47-35.23C125.47-31.31 123.92-27.53 121.14-24.73L80.36 16.05C78.99 17.43 77.35 18.51 75.53 19.28C73.73 20.02 71.79 20.4 69.84 20.4C67.88 20.4 65.95 20.02 64.12 19.27C62.32 18.51 60.69 17.42 59.32 16.05L10.46-32.75C9.8-33.41 9.43-34.3 9.43-35.23L9.43-92.11C9.43-94.04 11-95.61 12.93-95.61L69.81-95.61ZM68.36-88.61L16.43-88.61L16.43-36.68L64.26 11.1C64.91 11.74 65.67 12.27 66.5 12.67L66.82 12.81C67.77 13.2 68.79 13.4 69.84 13.4C70.88 13.4 71.9 13.2 72.84 12.81C73.82 12.4 74.69 11.83 75.42 11.1L116.18-29.67C117.64-31.15 118.47-33.15 118.47-35.23C118.47-37.31 117.65-39.31 116.2-40.77L68.36-88.61Z"/>
  </g>
  <g id="Light-L" transform="matrix(1 0 0 1 1084.79 1556)">
   <path class="hierarchical-0:secondary SFSymbolsPreview4D4D4D" d="M40.63-66.37C42.12-66.37 43.33-65.16 43.33-63.67C43.33-62.24 42.21-61.06 40.8-60.98L40.57-60.97C39.08-60.97 37.87-62.18 37.87-63.67C37.87-65.1 38.99-66.28 40.4-66.37L40.57-66.37L40.63-66.37Z"/>
   <path class="hierarchical-1:primary SFSymbolsPreview212121" d="M69.01-94.81C69.73-94.81 70.41-94.53 70.92-94.02L119.79-45.15C122.4-42.51 123.87-38.95 123.87-35.23C123.87-31.52 122.4-27.95 119.78-25.3L79 15.48C77.69 16.78 76.15 17.81 74.42 18.53C72.72 19.24 70.89 19.6 69.04 19.6C67.18 19.6 65.35 19.24 63.63 18.53C61.92 17.81 60.38 16.78 59.08 15.48L10.22-33.32C9.71-33.83 9.43-34.51 9.43-35.23L9.43-92.11C9.43-93.6 10.64-94.81 12.13-94.81L69.01-94.81ZM67.89-89.41L14.83-89.41L14.83-36.35L62.9 11.66C63.61 12.37 64.45 12.96 65.36 13.39L65.71 13.54C66.76 13.98 67.89 14.2 69.04 14.2C70.18 14.2 71.31 13.98 72.35 13.55C73.42 13.1 74.38 12.46 75.18 11.66L115.95-29.11C117.56-30.74 118.47-32.94 118.47-35.23C118.47-37.52 117.56-39.72 115.96-41.34L67.89-89.41Z"/>
  </g>
  <g id="Thin-L" transform="matrix(1 0 0 1 789.133 1556)">
   <path class="hierarchical-0:secondary SFSymbolsPreview4D4D4D" d="M39.574-65.32C40.485-65.32 41.224-64.58 41.224-63.67C41.224-62.81 40.561-62.1 39.716-62.03L39.574-62.02L39.517-62.02C38.606-62.02 37.867-62.76 37.867-63.67C37.867-64.53 38.53-65.24 39.375-65.31L39.517-65.32L39.574-65.32Z"/>
   <path class="hierarchical-1:primary SFSymbolsPreview212121" d="M67.955-93.76C68.393-93.76 68.812-93.59 69.122-93.28L117.981-44.41C120.407-41.97 121.768-38.67 121.768-35.23C121.768-31.79 120.405-28.48 117.978-26.04L77.2 14.73C76.001 15.94 74.57 16.89 72.969 17.57C71.391 18.22 69.698 18.55 67.983 18.55C66.269 18.55 64.575 18.22 62.988 17.56C61.397 16.89 59.966 15.94 58.77 14.74L9.914-34.06C9.604-34.37 9.43-34.79 9.43-35.23L9.43-92.11C9.43-93.02 10.169-93.76 11.08-93.76L67.955-93.76ZM67.272-90.46L12.73-90.46L12.73-35.91L61.105 12.41C61.908 13.21 62.855 13.87 63.903 14.36L64.257 14.52C65.433 15 66.7 15.25 67.983 15.25C69.267 15.25 70.533 15 71.7 14.52C72.9 14.02 73.97 13.3 74.864 12.4L115.641-28.37C117.45-30.19 118.468-32.66 118.468-35.23C118.468-37.8 117.453-40.26 115.644-42.08L67.272-90.46Z"/>
  </g>
  <g id="Ultralight-L" transform="matrix(1 0 0 1 492.972 1556)">
   <path class="hierarchical-0:secondary SFSymbolsPreview4D4D4D" d="M39.024-64.77C39.632-64.77 40.124-64.28 40.124-63.67C40.124-63.1 39.695-62.64 39.144-62.58L39.024-62.57L38.967-62.57C38.36-62.57 37.867-63.06 37.867-63.67C37.867-64.24 38.296-64.7 38.847-64.76L38.967-64.77L39.024-64.77Z"/>
   <path class="hierarchical-1:primary SFSymbolsPreview212121" d="M67.405-93.21C67.697-93.21 67.977-93.09 68.183-92.89L117.041-44.02C119.365-41.69 120.668-38.53 120.668-35.23C120.668-31.94 119.362-28.77 117.039-26.43L76.26 14.35C75.113 15.5 73.741 16.41 72.209 17.06C70.698 17.68 69.076 18 67.433 18C65.791 18 64.168 17.68 62.651 17.06C61.125 16.41 59.754 15.5 58.609 14.35L9.753-34.45C9.546-34.66 9.43-34.94 9.43-35.23L9.43-92.11C9.43-92.72 9.923-93.21 10.53-93.21L67.405-93.21ZM66.95-91.01L11.63-91.01L11.63-35.68L60.165 12.79C61.014 13.65 62.015 14.34 63.123 14.86L63.497 15.02C64.74 15.54 66.078 15.8 67.433 15.8C68.789 15.8 70.126 15.54 71.363 15.03C72.628 14.5 73.759 13.74 74.703 12.79L115.481-27.98C117.392-29.91 118.468-32.52 118.468-35.23C118.468-37.95 117.395-40.55 115.483-42.47L66.95-91.01Z"/>
  </g>
  <g id="Black-M" transform="matrix(1 0 0 1 2872.41 1126)">
   <path class="hierarchical-0:secondary SFSymbolsPreview4D4D4D" d="M38.89-64.64C42.81-64.64 45.99-61.46 45.99-57.54C45.99-53.7 42.94-50.57 39.13-50.44L38.84-50.44C34.92-50.44 31.74-53.62 31.74-57.54C31.74-61.38 34.79-64.51 38.6-64.64L38.89-64.64Z"/>
   <path class="hierarchical-1:primary SFSymbolsPreview212121" d="M61.15-86.96C63.03-86.96 64.84-86.21 66.17-84.88L104.53-46.52C107.51-43.52 109.18-39.46 109.18-35.23C109.18-30.99 107.51-26.93 104.51-23.92L72.51 8.08C71.02 9.57 69.25 10.76 67.27 11.58C65.33 12.36 63.27 12.78 61.18 12.78C59.09 12.78 57.02 12.37 55.03 11.55C53.09 10.75 51.32 9.57 49.84 8.08L11.51-30.21C10.18-31.54 9.43-33.34 9.43-35.23L9.43-79.86C9.43-83.78 12.61-86.96 16.53-86.96L61.15-86.96ZM58.21-72.76L23.63-72.76L23.63-38.17L59.88-1.96C60.02-1.82 60.18-1.71 60.33-1.63L60.44-1.57C60.7-1.47 60.95-1.42 61.18-1.42C61.4-1.42 61.65-1.47 61.88-1.56C62.1-1.65 62.29-1.78 62.47-1.96L94.45-33.94C94.79-34.28 94.98-34.74 94.98-35.23C94.98-35.72 94.79-36.18 94.47-36.5L58.21-72.76Z"/>
  </g>
  <g id="Heavy-M" transform="matrix(1 0 0 1 2576.54 1126)">
   <path class="hierarchical-0:secondary SFSymbolsPreview4D4D4D" d="M38.04-63.79C41.49-63.79 44.29-60.99 44.29-57.54C44.29-54.16 41.61-51.41 38.27-51.29L37.99-51.29C34.54-51.29 31.74-54.09 31.74-57.54C31.74-60.91 34.42-63.66 37.76-63.79L38.04-63.79Z"/>
   <path class="hierarchical-1:primary SFSymbolsPreview212121" d="M60.3-86.11C61.96-86.11 63.55-85.45 64.72-84.28L103.07-45.93C105.9-43.08 107.48-39.24 107.48-35.23C107.48-31.22 105.9-27.37 103.06-24.52L71.06 7.48C69.65 8.89 67.97 10.01 66.1 10.79C64.26 11.54 62.3 11.93 60.33 11.93C58.35 11.93 56.39 11.54 54.51 10.77C52.67 10.01 51 8.89 49.59 7.48L11.26-30.81C10.09-31.98 9.43-33.57 9.43-35.23L9.43-79.86C9.43-83.31 12.23-86.11 15.68-86.11L60.3-86.11ZM57.71-73.61L21.93-73.61L21.93-37.82L58.43-1.36C58.63-1.16 58.86-0.99 59.1-0.87L59.27-0.79C59.63-0.64 59.99-0.57 60.33-0.57C60.66-0.57 61.03-0.64 61.36-0.78C61.67-0.91 61.96-1.1 62.22-1.36L94.21-33.35C94.7-33.84 94.98-34.52 94.98-35.23C94.98-35.94 94.7-36.62 94.22-37.1L57.71-73.61Z"/>
  </g>
  <g id="Bold-M" transform="matrix(1 0 0 1 2280.78 1126)">
   <path class="hierarchical-0:secondary SFSymbolsPreview4D4D4D" d="M37.09-62.84C40.02-62.84 42.39-60.47 42.39-57.54C42.39-54.69 40.13-52.36 37.31-52.24L37.04-52.24C34.11-52.24 31.74-54.61 31.74-57.54C31.74-60.39 34-62.72 36.82-62.84L37.09-62.84Z"/>
   <path class="hierarchical-1:primary SFSymbolsPreview212121" d="M59.36-85.15C60.77-85.15 62.11-84.59 63.11-83.6L101.45-45.26C104.1-42.59 105.58-38.99 105.58-35.23C105.58-31.47 104.1-27.87 101.44-25.19L69.44 6.81C68.12 8.13 66.56 9.18 64.82 9.9C63.09 10.61 61.25 10.98 59.38 10.98C57.5 10.98 55.65 10.61 53.92 9.89C52.2 9.17 50.63 8.13 49.31 6.81L10.98-31.48C9.99-32.47 9.43-33.82 9.43-35.23L9.43-79.85C9.43-82.78 11.8-85.15 14.73-85.15L59.36-85.15ZM57.17-74.55L20.03-74.55L20.03-37.43L56.81-0.69C57.09-0.41 57.42-0.17 57.78 0.01L58 0.11C58.43 0.29 58.9 0.38 59.38 0.38C59.86 0.38 60.33 0.29 60.76 0.11C61.2-0.07 61.6-0.34 61.94-0.69L93.93-32.68C94.6-33.35 94.98-34.27 94.98-35.23C94.98-36.19 94.6-37.11 93.94-37.77L57.17-74.55Z"/>
  </g>
  <g id="Semibold-M" transform="matrix(1 0 0 1 1984.72 1126)">
   <path class="hierarchical-0:secondary SFSymbolsPreview4D4D4D" d="M36.43-62.19C39-62.19 41.08-60.11 41.08-57.54C41.08-55.04 39.11-53.01 36.64-52.89L36.39-52.89C33.82-52.89 31.74-54.97 31.74-57.54C31.74-60.04 33.71-62.07 36.18-62.19L36.43-62.19Z"/>
   <path class="hierarchical-1:primary SFSymbolsPreview212121" d="M58.7-84.5C59.93-84.5 61.12-84.01 61.99-83.14L100.32-44.81C102.86-42.27 104.28-38.83 104.28-35.23C104.28-31.63 102.86-28.19 100.32-25.65L68.33 6.35C67.07 7.61 65.57 8.61 63.93 9.29C62.28 9.98 60.51 10.33 58.72 10.33C56.94 10.33 55.18 9.98 53.51 9.29C51.87 8.61 50.38 7.61 49.12 6.35L10.79-31.94C9.92-32.81 9.43-34 9.43-35.23L9.43-79.85C9.43-82.42 11.51-84.5 14.08-84.5L58.7-84.5ZM56.77-75.2L18.73-75.2L18.73-37.16L55.7-0.23C56.04 0.12 56.44 0.4 56.86 0.61L57.07 0.7C57.6 0.92 58.16 1.03 58.72 1.03C59.29 1.03 59.84 0.92 60.35 0.71C60.88 0.49 61.35 0.17 61.75-0.23L93.74-32.23C94.54-33.02 94.98-34.1 94.98-35.23C94.98-36.36 94.54-37.44 93.74-38.23L56.77-75.2Z"/>
  </g>
  <g id="Medium-M" transform="matrix(1 0 0 1 1688.51 1126)">
   <path class="hierarchical-0:secondary SFSymbolsPreview4D4D4D" d="M35.93-61.69C38.22-61.69 40.08-59.83 40.08-57.54C40.08-55.32 38.33-53.5 36.14-53.4L35.89-53.39C33.6-53.39 31.74-55.25 31.74-57.54C31.74-59.76 33.49-61.58 35.68-61.68L35.93-61.69Z"/>
   <path class="hierarchical-1:primary SFSymbolsPreview212121" d="M58.2-84C59.3-84 60.36-83.56 61.13-82.78L99.46-44.45C101.91-42.01 103.28-38.69 103.28-35.23C103.28-31.77 101.91-28.45 99.46-26.01L67.47 5.99C66.26 7.21 64.82 8.17 63.24 8.83C61.65 9.49 59.95 9.83 58.22 9.83C56.5 9.83 54.81 9.49 53.2 8.83C51.62 8.17 50.19 7.21 48.98 6L10.65-32.29C9.87-33.07 9.43-34.13 9.43-35.23L9.43-79.85C9.43-82.14 11.29-84 13.58-84L58.2-84ZM56.48-75.7L17.73-75.7L17.73-36.95L54.84 0.13C55.23 0.51 55.67 0.83 56.15 1.06L56.38 1.16C56.97 1.41 57.59 1.53 58.22 1.53C58.86 1.53 59.47 1.41 60.04 1.17C60.63 0.93 61.16 0.57 61.61 0.13L93.6-31.87C94.48-32.76 94.98-33.97 94.98-35.23C94.98-36.49 94.48-37.7 93.6-38.59L56.48-75.7Z"/>
  </g>
  <g id="Regular-M" transform="matrix(1 0 0 1 1392.45 1126)">
   <path class="hierarchical-0:secondary SFSymbolsPreview4D4D4D" d="M35.28-61.04C37.21-61.04 38.78-59.47 38.78-57.54C38.78-55.67 37.32-54.14 35.47-54.04L35.24-54.04C33.31-54.04 31.74-55.61 31.74-57.54C31.74-59.41 33.2-60.93 35.05-61.03L35.28-61.04Z"/>
   <path class="hierarchical-1:primary SFSymbolsPreview212121" d="M57.55-83.35C58.48-83.35 59.37-82.98 60.02-82.32L98.35-43.99C100.68-41.67 101.98-38.52 101.98-35.23C101.98-31.94 100.68-28.79 98.36-26.47L66.36 5.54C65.21 6.69 63.84 7.6 62.34 8.23C60.83 8.86 59.21 9.18 57.57 9.18C55.94 9.18 54.33 8.86 52.8 8.23C51.3 7.61 49.94 6.69 48.79 5.54L10.46-32.75C9.8-33.41 9.43-34.3 9.43-35.23L9.43-79.85C9.43-81.78 11-83.35 12.93-83.35L57.55-83.35ZM56.1-76.35L16.43-76.35L16.43-36.68L53.73 0.59C54.17 1.02 54.67 1.38 55.21 1.64L55.49 1.77C56.15 2.04 56.86 2.18 57.57 2.18C58.29 2.18 58.99 2.04 59.64 1.77C60.31 1.49 60.91 1.09 61.41 0.59L93.41-31.41C94.41-32.42 94.98-33.79 94.98-35.23C94.98-36.67 94.41-38.03 93.41-39.04L56.1-76.35Z"/>
  </g>
  <g id="Light-M" transform="matrix(1 0 0 1 1096.54 1126)">
   <path class="hierarchical-0:secondary SFSymbolsPreview4D4D4D" d="M34.48-60.24C35.97-60.24 37.18-59.03 37.18-57.54C37.18-56.11 36.06-54.93 34.65-54.84L34.44-54.84C32.95-54.84 31.74-56.05 31.74-57.54C31.74-58.97 32.86-60.15 34.27-60.23L34.48-60.24Z"/>
   <path class="hierarchical-1:primary SFSymbolsPreview212121" d="M56.75-82.55C57.47-82.55 58.15-82.26 58.66-81.76L96.99-43.43C99.16-41.25 100.38-38.31 100.38-35.23C100.38-32.15 99.16-29.2 96.99-27.03L65 4.97C63.92 6.05 62.64 6.91 61.23 7.49C59.82 8.08 58.31 8.38 56.77 8.38C55.25 8.38 53.74 8.08 52.31 7.49C50.91 6.91 49.63 6.05 48.55 4.97L10.22-33.32C9.72-33.83 9.43-34.51 9.43-35.23L9.43-79.85C9.43-81.34 10.64-82.55 12.13-82.55L56.75-82.55ZM55.63-77.15L14.83-77.15L14.83-36.35L52.37 1.15C52.88 1.66 53.47 2.08 54.11 2.38L54.38 2.51C55.14 2.82 55.95 2.98 56.77 2.98C57.6 2.98 58.4 2.82 59.15 2.51C59.91 2.19 60.6 1.73 61.18 1.15L93.17-30.85C94.33-32.01 94.98-33.58 94.98-35.23C94.98-36.88 94.33-38.45 93.17-39.61L55.63-77.15Z"/>
  </g>
  <g id="Thin-M" transform="matrix(1 0 0 1 800.876 1126)">
   <path class="hierarchical-0:secondary SFSymbolsPreview4D4D4D" d="M33.437-59.19C34.348-59.19 35.087-58.45 35.087-57.54C35.087-56.68 34.424-55.97 33.579-55.9L33.393-55.89C32.482-55.89 31.743-56.63 31.743-57.54C31.743-58.4 32.406-59.11 33.251-59.18L33.393-59.19L33.437-59.19Z"/>
   <path class="hierarchical-1:primary SFSymbolsPreview212121" d="M55.705-81.5C56.143-81.5 56.562-81.33 56.872-81.02L95.208-42.68C97.178-40.7 98.283-38.03 98.283-35.23C98.283-32.43 97.178-29.76 95.205-27.77L63.21 4.23C62.226 5.21 61.06 5.99 59.778 6.52C58.496 7.06 57.119 7.33 55.727 7.33C54.335 7.33 52.959 7.06 51.677 6.52C50.395 5.99 49.229 5.21 48.247 4.23L9.914-34.06C9.604-34.37 9.43-34.79 9.43-35.23L9.43-79.85C9.43-80.76 10.169-81.5 11.08-81.5L55.705-81.5ZM55.022-78.2L12.73-78.2L12.73-35.92L50.581 1.89C51.173 2.49 51.862 2.97 52.616 3.33L52.943 3.48C53.823 3.84 54.769 4.03 55.727 4.03C56.685 4.03 57.632 3.84 58.512 3.48C59.395 3.11 60.197 2.57 60.875 1.89L92.869-30.1C94.223-31.47 94.983-33.31 94.983-35.23C94.983-37.15 94.223-38.99 92.871-40.35L55.022-78.2Z"/>
  </g>
  <g id="Ultralight-M" transform="matrix(1 0 0 1 504.715 1126)">
   <path class="hierarchical-0:secondary SFSymbolsPreview4D4D4D" d="M32.887-58.64C33.495-58.64 33.987-58.15 33.987-57.54C33.987-56.97 33.558-56.51 33.007-56.45L32.887-56.44L32.843-56.44C32.236-56.44 31.743-56.93 31.743-57.54C31.743-58.11 32.172-58.57 32.723-58.63L32.843-58.64L32.887-58.64Z"/>
   <path class="hierarchical-1:primary SFSymbolsPreview212121" d="M55.155-80.95C55.447-80.95 55.727-80.83 55.933-80.63L94.268-42.3C96.135-40.42 97.183-37.88 97.183-35.23C97.183-32.58 96.135-30.04 94.266-28.16L62.27 3.84C61.338 4.77 60.233 5.51 59.017 6.02C57.802 6.52 56.497 6.78 55.177 6.78C53.857 6.78 52.553 6.52 51.338 6.02C50.122 5.51 49.017 4.77 48.086 3.84L9.753-34.45C9.546-34.66 9.43-34.94 9.43-35.23L9.43-79.85C9.43-80.46 9.923-80.95 10.53-80.95L55.155-80.95ZM54.7-78.75L11.63-78.75L11.63-35.69L49.641 2.28C50.289 2.93 51.043 3.46 51.869 3.85L52.182 3.98C53.129 4.38 54.147 4.58 55.177 4.58C56.208 4.58 57.226 4.38 58.173 3.98C59.122 3.59 59.985 3.01 60.714 2.28L92.708-29.72C94.166-31.18 94.983-33.16 94.983-35.23C94.983-37.3 94.166-39.28 92.71-40.74L54.7-78.75Z"/>
  </g>
  <g id="Black-S" transform="matrix(1 0 0 1 2881.63 696)">
   <path class="hierarchical-0:secondary SFSymbolsPreview4D4D4D" d="M34.07-59.932C37.99-59.932 41.17-56.753 41.17-52.832C41.17-48.99 38.12-45.862 34.31-45.736L34.03-45.732C30.11-45.732 26.93-48.91 26.93-52.832C26.93-56.673 29.98-59.802 33.79-59.928L34.07-59.932Z"/>
   <path class="hierarchical-1:primary SFSymbolsPreview212121" d="M51.53-77.432C53.41-77.432 55.22-76.684 56.55-75.353L86.64-45.264C89.26-42.622 90.73-39.052 90.73-35.332C90.73-31.611 89.26-28.041 86.62-25.376L61.52-0.285C60.21 1.027 58.66 2.068 56.95 2.774C55.24 3.486 53.4 3.851 51.55 3.851C49.7 3.851 47.86 3.486 46.15 2.777C44.44 2.068 42.89 1.027 41.58-0.278L11.51-30.308C10.18-31.64 9.43-33.447 9.43-35.332L9.43-70.332C9.43-74.253 12.61-77.432 16.53-77.432L51.53-77.432ZM48.59-63.232L23.63-63.232L23.63-38.276L51.55-10.393L76.49-35.332L48.59-63.232Z"/>
  </g>
  <g id="Heavy-S" transform="matrix(1 0 0 1 2585.77 696)">
   <path class="hierarchical-0:secondary SFSymbolsPreview4D4D4D" d="M33.22-59.082C36.67-59.082 39.47-56.284 39.47-52.832C39.47-49.457 36.79-46.707 33.45-46.586L33.18-46.582C29.73-46.582 26.93-49.38 26.93-52.832C26.93-56.207 29.61-58.957 32.95-59.078L33.22-59.082Z"/>
   <path class="hierarchical-1:primary SFSymbolsPreview212121" d="M50.68-76.582C52.34-76.582 53.93-75.924 55.1-74.752L85.19-44.666C87.65-42.183 89.03-38.828 89.03-35.332C89.03-31.836 87.65-28.481 85.17-25.977L60.07-0.886C58.84 0.347 57.38 1.325 55.78 1.989C54.17 2.657 52.44 3.001 50.7 3.001C48.96 3.001 47.23 2.657 45.63 1.991C44.02 1.325 42.56 0.347 41.33-0.88L11.26-30.91C10.09-32.082 9.43-33.673 9.43-35.332L9.43-70.332C9.43-73.784 12.23-76.582 15.68-76.582L50.68-76.582ZM48.09-64.082L21.93-64.082L21.93-37.923L50.17-9.718C50.22-9.671 50.27-9.632 50.33-9.599L50.42-9.555C50.51-9.518 50.6-9.499 50.7-9.499C50.8-9.499 50.89-9.518 50.99-9.557C51.08-9.594 51.16-9.648 51.23-9.722L76.31-34.796C76.45-34.938 76.53-35.131 76.53-35.332C76.53-35.533 76.45-35.726 76.33-35.847L48.09-64.082Z"/>
  </g>
  <g id="Bold-S" transform="matrix(1 0 0 1 2290.01 696)">
   <path class="hierarchical-0:secondary SFSymbolsPreview4D4D4D" d="M32.26-57.926C35.19-57.926 37.56-55.553 37.56-52.626C37.56-49.772 35.3-47.445 32.48-47.33L32.23-47.326C29.3-47.326 26.93-49.699 26.93-52.626C26.93-55.48 29.19-57.807 32.01-57.921L32.26-57.926Z"/>
   <path class="hierarchical-1:primary SFSymbolsPreview212121" d="M49.73-75.426C51.14-75.426 52.48-74.867 53.48-73.873L83.56-43.791C85.84-41.486 87.13-38.371 87.13-35.126C87.13-31.88 85.84-28.764 83.54-26.443L58.42-1.322C57.28-0.191 55.93 0.706 54.45 1.318C52.96 1.938 51.36 2.257 49.74 2.257C48.12 2.257 46.52 1.938 45.03 1.32C43.54 0.701 42.18-0.206 41.04-1.346L10.98-31.376C9.99-32.37 9.43-33.719 9.43-35.126L9.43-70.126C9.43-73.053 11.8-75.426 14.73-75.426L49.73-75.426ZM47.54-64.826L20.03-64.826L20.03-37.323L48.54-8.841C48.66-8.721 48.79-8.622 48.94-8.543L49.09-8.471C49.3-8.386 49.52-8.343 49.74-8.343C49.96-8.343 50.18-8.386 50.39-8.474C50.6-8.56 50.8-8.691 50.95-8.843L76.03-33.923C76.35-34.248 76.53-34.684 76.53-35.126C76.53-35.567 76.35-36.003 76.04-36.313L47.54-64.826Z"/>
  </g>
  <g id="Semibold-S" transform="matrix(1 0 0 1 1993.95 696)">
   <path class="hierarchical-0:secondary SFSymbolsPreview4D4D4D" d="M31.62-57.277C34.19-57.277 36.27-55.195 36.27-52.627C36.27-50.131 34.3-48.093 31.83-47.982L31.58-47.977C29.01-47.977 26.93-50.059 26.93-52.627C26.93-55.124 28.9-57.161 31.37-57.273L31.62-57.277Z"/>
   <path class="hierarchical-1:primary SFSymbolsPreview212121" d="M49.08-74.777C50.31-74.777 51.5-74.288 52.37-73.416L82.45-43.335C84.62-41.152 85.83-38.202 85.83-35.127C85.83-32.052 84.62-29.1 82.44-26.904L57.34-1.812C56.26-0.727 54.97 0.132 53.56 0.716C52.15 1.304 50.63 1.606 49.1 1.606C47.57 1.606 46.05 1.304 44.64 0.718C43.23 0.132 41.94-0.727 40.86-1.807L10.79-31.837C9.92-32.709 9.43-33.893 9.43-35.127L9.43-70.127C9.43-72.695 11.51-74.777 14.08-74.777L49.08-74.777ZM47.15-65.477L18.73-65.477L18.73-37.055L47.44-8.383C47.62-8.207 47.82-8.062 48.03-7.95L48.2-7.873C48.49-7.755 48.79-7.694 49.1-7.694C49.41-7.694 49.71-7.755 50-7.875C50.28-7.992 50.54-8.164 50.76-8.386L75.85-33.467C76.28-33.906 76.53-34.504 76.53-35.127C76.53-35.75 76.28-36.348 75.86-36.774L47.15-65.477Z"/>
  </g>
  <g id="Medium-S" transform="matrix(1 0 0 1 1697.74 696)">
   <path class="hierarchical-0:secondary SFSymbolsPreview4D4D4D" d="M31.12-56.777C33.41-56.777 35.27-54.919 35.27-52.627C35.27-50.405 33.52-48.59 31.33-48.482L31.08-48.477C28.79-48.477 26.93-50.335 26.93-52.627C26.93-54.85 28.68-56.664 30.87-56.772L31.12-56.777Z"/>
   <path class="hierarchical-1:primary SFSymbolsPreview212121" d="M48.58-74.277C49.68-74.277 50.74-73.84 51.51-73.062L81.6-42.983C83.67-40.894 84.83-38.07 84.83-35.127C84.83-32.184 83.67-29.359 81.58-27.258L56.49-2.165C55.45-1.127 54.22-0.305 52.87 0.254C51.52 0.817 50.07 1.106 48.6 1.106C47.13 1.106 45.68 0.817 44.33 0.256C42.98-0.305 41.75-1.127 40.72-2.161L10.65-32.191C9.87-32.969 9.43-34.026 9.43-35.127L9.43-70.127C9.43-72.419 11.29-74.277 13.58-74.277L48.58-74.277ZM46.86-65.977L17.73-65.977L17.73-36.848L46.59-8.03C46.8-7.817 47.04-7.641 47.31-7.505L47.51-7.411C47.86-7.268 48.23-7.194 48.6-7.194C48.97-7.194 49.34-7.268 49.69-7.413C50.04-7.555 50.35-7.764 50.62-8.032L75.7-33.114C76.23-33.648 76.53-34.372 76.53-35.127C76.53-35.882 76.23-36.606 75.72-37.128L46.86-65.977Z"/>
  </g>
  <g id="Regular-S" transform="matrix(1 0 0 1 1401.67 696)">
   <path class="hierarchical-0:secondary SFSymbolsPreview4D4D4D" d="M30.47-56.127C32.4-56.127 33.97-54.56 33.97-52.627C33.97-50.758 32.51-49.232 30.66-49.132L30.43-49.127C28.5-49.127 26.93-50.694 26.93-52.627C26.93-54.496 28.39-56.022 30.24-56.122L30.47-56.127Z"/>
   <path class="hierarchical-1:primary SFSymbolsPreview212121" d="M47.93-73.627C48.86-73.627 49.75-73.258 50.4-72.602L80.49-42.525C82.44-40.558 83.53-37.898 83.53-35.127C83.53-32.355 82.44-29.694 80.47-27.717L55.38-2.624C54.4-1.647 53.24-0.872 51.97-0.346C50.7 0.184 49.33 0.456 47.95 0.456C46.57 0.456 45.2 0.184 43.93-0.344C42.66-0.872 41.5-1.647 40.53-2.62L10.46-32.65C9.8-33.307 9.43-34.198 9.43-35.127L9.43-70.127C9.43-72.06 11-73.627 12.93-73.627L47.93-73.627ZM46.48-66.627L16.43-66.627L16.43-36.578L45.48-7.57C45.75-7.298 46.06-7.074 46.4-6.905L46.61-6.81C47.04-6.634 47.49-6.544 47.95-6.544C48.41-6.544 48.86-6.634 49.29-6.812C49.71-6.987 50.1-7.244 50.43-7.572L75.51-32.656C76.16-33.311 76.53-34.201 76.53-35.127C76.53-36.053 76.16-36.942 75.53-37.587L46.48-66.627Z"/>
  </g>
  <g id="Light-S" transform="matrix(1 0 0 1 1105.76 696)">
   <path class="hierarchical-0:secondary SFSymbolsPreview4D4D4D" d="M29.67-55.326C31.16-55.326 32.37-54.117 32.37-52.626C32.37-51.192 31.25-50.02 29.84-49.931L29.63-49.926C28.14-49.926 26.93-51.135 26.93-52.626C26.93-54.06 28.05-55.233 29.46-55.321L29.67-55.326Z"/>
   <path class="hierarchical-1:primary SFSymbolsPreview212121" d="M47.13-72.826C47.85-72.826 48.53-72.542 49.04-72.036L79.12-41.962C80.92-40.144 81.93-37.687 81.93-35.126C81.93-32.565 80.92-30.107 79.11-28.282L54.01-3.188C53.11-2.285 52.04-1.57 50.87-1.084C49.69-0.594 48.43-0.343 47.15-0.343C45.87-0.343 44.61-0.594 43.44-1.083C42.26-1.57 41.19-2.285 40.29-3.186L10.22-33.216C9.72-33.722 9.43-34.409 9.43-35.126L9.43-70.126C9.43-71.617 10.64-72.826 12.13-72.826L47.13-72.826ZM46.01-67.426L14.83-67.426L14.83-36.245L44.11-7.004C44.44-6.67 44.83-6.395 45.25-6.187L45.51-6.071C46.03-5.854 46.58-5.743 47.15-5.743C47.72-5.743 48.27-5.854 48.8-6.072C49.32-6.287 49.79-6.603 50.19-7.006L75.28-32.092C76.08-32.897 76.53-33.989 76.53-35.126C76.53-36.263 76.08-37.354 75.29-38.152L46.01-67.426Z"/>
  </g>
  <g id="Thin-S" transform="matrix(1 0 0 1 810.102 696)">
   <path class="hierarchical-0:secondary SFSymbolsPreview4D4D4D" d="M28.615-54.277C29.526-54.277 30.265-53.539 30.265-52.627C30.265-51.764 29.602-51.056 28.757-50.983L28.58-50.977C27.669-50.977 26.93-51.716 26.93-52.627C26.93-53.491 27.593-54.199 28.438-54.271L28.615-54.277Z"/>
   <path class="hierarchical-1:primary SFSymbolsPreview212121" d="M46.08-71.777C46.518-71.777 46.937-71.604 47.247-71.294L77.315-41.225C78.927-39.604 79.831-37.412 79.831-35.127C79.831-32.842 78.926-30.649 77.312-29.026L52.218-3.932C51.414-3.127 50.46-2.489 49.411-2.055C48.361-1.619 47.235-1.394 46.098-1.394C44.96-1.394 43.834-1.618 42.786-2.054C41.735-2.489 40.781-3.127 39.979-3.93L9.914-33.96C9.604-34.269 9.43-34.689 9.43-35.127L9.43-70.127C9.43-71.039 10.169-71.777 11.08-71.777L46.08-71.777ZM45.397-68.477L12.73-68.477L12.73-35.812L42.313-6.263C42.738-5.837 43.232-5.487 43.775-5.225L44.05-5.102C44.698-4.833 45.394-4.694 46.098-4.694C46.801-4.694 47.497-4.833 48.147-5.103C48.796-5.372 49.386-5.766 49.883-6.264L74.975-31.356C75.971-32.358 76.531-33.714 76.531-35.127C76.531-36.54 75.972-37.896 74.978-38.896L45.397-68.477Z"/>
  </g>
  <g id="Ultralight-S" transform="matrix(1 0 0 1 513.941 696)">
   <path class="hierarchical-0:secondary SFSymbolsPreview4D4D4D" d="M28.065-53.727C28.673-53.727 29.165-53.234 29.165-52.627C29.165-52.06 28.736-51.593 28.185-51.533L28.065-51.527L28.03-51.527C27.423-51.527 26.93-52.019 26.93-52.627C26.93-53.194 27.359-53.66 27.91-53.72L28.065-53.727Z"/>
   <path class="hierarchical-1:primary SFSymbolsPreview212121" d="M45.53-71.227C45.822-71.227 46.102-71.111 46.308-70.904L76.375-40.837C77.884-39.319 78.731-37.266 78.731-35.127C78.731-32.987 77.884-30.933 76.373-29.414L51.278-4.319C50.526-3.566 49.633-2.969 48.65-2.562C47.667-2.153 46.613-1.944 45.548-1.944C44.483-1.944 43.428-2.153 42.446-2.561C41.462-2.969 40.569-3.566 39.818-4.318L9.753-34.348C9.546-34.555 9.43-34.835 9.43-35.127L9.43-70.127C9.43-70.734 9.923-71.227 10.53-71.227L45.53-71.227ZM45.075-69.027L11.63-69.027L11.63-35.583L41.373-5.874C41.853-5.394 42.41-5.001 43.023-4.711L43.289-4.593C44.004-4.296 44.772-4.144 45.548-4.144C46.323-4.144 47.091-4.296 47.807-4.594C48.524-4.891 49.174-5.325 49.722-5.874L74.815-30.967C75.914-32.072 76.531-33.568 76.531-35.127C76.531-36.685 75.914-38.18 74.817-39.284L45.075-69.027Z"/>
  </g>
 </g>
</svg>
