<?xml version="1.0" encoding="UTF-8"?>
<!--Generator: Apple Native CoreSVG 175-->
<!DOCTYPE svg
PUBLIC "-//W3C//DTD SVG 1.1//EN"
       "http://www.w3.org/Graphics/SVG/1.1/DTD/svg11.dtd">
<svg version="1.1" xmlns="http://www.w3.org/2000/svg" xmlns:xlink="http://www.w3.org/1999/xlink" width="3300" height="2200">
 <!--glyph: "", point size: 100.0, font version: "17.0d12e1", template writer version: "65.1"-->
 <g id="Notes">
  <rect height="2200" id="artboard" style="fill:white;opacity:1" width="3300" x="0" y="0"/>
  <line style="fill:none;stroke:black;opacity:1;stroke-width:0.5;" x1="263" x2="3036" y1="292" y2="292"/>
  <text style="stroke:none;fill:black;font-family:sans-serif;font-size:13;font-weight:bold;" transform="matrix(1 0 0 1 263 322)">Weight/Scale Variations</text>
  <text style="stroke:none;fill:black;font-family:sans-serif;font-size:13;text-anchor:middle;" transform="matrix(1 0 0 1 559.711 322)">Ultralight</text>
  <text style="stroke:none;fill:black;font-family:sans-serif;font-size:13;text-anchor:middle;" transform="matrix(1 0 0 1 856.422 322)">Thin</text>
  <text style="stroke:none;fill:black;font-family:sans-serif;font-size:13;text-anchor:middle;" transform="matrix(1 0 0 1 1153.13 322)">Light</text>
  <text style="stroke:none;fill:black;font-family:sans-serif;font-size:13;text-anchor:middle;" transform="matrix(1 0 0 1 1449.84 322)">Regular</text>
  <text style="stroke:none;fill:black;font-family:sans-serif;font-size:13;text-anchor:middle;" transform="matrix(1 0 0 1 1746.56 322)">Medium</text>
  <text style="stroke:none;fill:black;font-family:sans-serif;font-size:13;text-anchor:middle;" transform="matrix(1 0 0 1 2043.27 322)">Semibold</text>
  <text style="stroke:none;fill:black;font-family:sans-serif;font-size:13;text-anchor:middle;" transform="matrix(1 0 0 1 2339.98 322)">Bold</text>
  <text style="stroke:none;fill:black;font-family:sans-serif;font-size:13;text-anchor:middle;" transform="matrix(1 0 0 1 2636.69 322)">Heavy</text>
  <text style="stroke:none;fill:black;font-family:sans-serif;font-size:13;text-anchor:middle;" transform="matrix(1 0 0 1 2933.4 322)">Black</text>
  <line style="fill:none;stroke:black;opacity:1;stroke-width:0.5;" x1="263" x2="3036" y1="1903" y2="1903"/>
  <g transform="matrix(1 0 0 1 263 1933)">
   <path d="M9.24805 0.830078Q10.8691 0.830078 12.2949 0.214844Q13.7207-0.400391 14.8096-1.49414Q15.8984-2.58789 16.5186-4.01367Q17.1387-5.43945 17.1387-7.05078Q17.1387-8.66211 16.5186-10.0879Q15.8984-11.5137 14.8047-12.6074Q13.7109-13.7012 12.2852-14.3164Q10.8594-14.9316 9.23828-14.9316Q7.62695-14.9316 6.20117-14.3164Q4.77539-13.7012 3.69141-12.6074Q2.60742-11.5137 1.9873-10.0879Q1.36719-8.66211 1.36719-7.05078Q1.36719-5.43945 1.9873-4.01367Q2.60742-2.58789 3.69629-1.49414Q4.78516-0.400391 6.21094 0.214844Q7.63672 0.830078 9.24805 0.830078ZM9.24805-0.654297Q7.91992-0.654297 6.7627-1.14746Q5.60547-1.64062 4.73145-2.51953Q3.85742-3.39844 3.36426-4.56055Q2.87109-5.72266 2.87109-7.05078Q2.87109-8.37891 3.35938-9.54102Q3.84766-10.7031 4.72168-11.582Q5.5957-12.4609 6.75293-12.9541Q7.91016-13.4473 9.23828-13.4473Q10.5762-13.4473 11.7334-12.9541Q12.8906-12.4609 13.7695-11.582Q14.6484-10.7031 15.1465-9.54102Q15.6445-8.37891 15.6445-7.05078Q15.6445-5.72266 15.1514-4.56055Q14.6582-3.39844 13.7842-2.51953Q12.9102-1.64062 11.748-1.14746Q10.5859-0.654297 9.24805-0.654297ZM5.6543-7.05078Q5.6543-6.72852 5.85938-6.52832Q6.06445-6.32812 6.40625-6.32812L8.51562-6.32812L8.51562-4.20898Q8.51562-3.88672 8.71094-3.67676Q8.90625-3.4668 9.23828-3.4668Q9.56055-3.4668 9.77051-3.67676Q9.98047-3.88672 9.98047-4.20898L9.98047-6.32812L12.0898-6.32812Q12.4219-6.32812 12.627-6.52832Q12.832-6.72852 12.832-7.05078Q12.832-7.38281 12.627-7.58789Q12.4219-7.79297 12.0898-7.79297L9.98047-7.79297L9.98047-9.90234Q9.98047-10.2344 9.77051-10.4443Q9.56055-10.6543 9.23828-10.6543Q8.90625-10.6543 8.71094-10.4443Q8.51562-10.2344 8.51562-9.90234L8.51562-7.79297L6.40625-7.79297Q6.06445-7.79297 5.85938-7.58789Q5.6543-7.38281 5.6543-7.05078Z"/>
  </g>
  <g transform="matrix(1 0 0 1 281.867 1933)">
   <path d="M11.709 2.91016Q13.75 2.91016 15.5518 2.12891Q17.3535 1.34766 18.7305-0.0292969Q20.1074-1.40625 20.8887-3.20801Q21.6699-5.00977 21.6699-7.05078Q21.6699-9.0918 20.8887-10.8936Q20.1074-12.6953 18.7305-14.0723Q17.3535-15.4492 15.5469-16.2305Q13.7402-17.0117 11.6992-17.0117Q9.6582-17.0117 7.85645-16.2305Q6.05469-15.4492 4.68262-14.0723Q3.31055-12.6953 2.5293-10.8936Q1.74805-9.0918 1.74805-7.05078Q1.74805-5.00977 2.5293-3.20801Q3.31055-1.40625 4.6875-0.0292969Q6.06445 1.34766 7.86621 2.12891Q9.66797 2.91016 11.709 2.91016ZM11.709 1.25Q9.98047 1.25 8.47656 0.605469Q6.97266-0.0390625 5.83496-1.17676Q4.69727-2.31445 4.05762-3.81836Q3.41797-5.32227 3.41797-7.05078Q3.41797-8.7793 4.05762-10.2832Q4.69727-11.7871 5.83008-12.9297Q6.96289-14.0723 8.4668-14.7119Q9.9707-15.3516 11.6992-15.3516Q13.4277-15.3516 14.9316-14.7119Q16.4355-14.0723 17.5781-12.9297Q18.7207-11.7871 19.3652-10.2832Q20.0098-8.7793 20.0098-7.05078Q20.0098-5.32227 19.3701-3.81836Q18.7305-2.31445 17.5928-1.17676Q16.4551-0.0390625 14.9463 0.605469Q13.4375 1.25 11.709 1.25ZM7.17773-7.05078Q7.17773-6.69922 7.41211-6.47461Q7.64648-6.25 8.01758-6.25L10.8887-6.25L10.8887-3.36914Q10.8887-2.99805 11.1133-2.76855Q11.3379-2.53906 11.6895-2.53906Q12.0605-2.53906 12.29-2.76855Q12.5195-2.99805 12.5195-3.36914L12.5195-6.25L15.4004-6.25Q15.7715-6.25 16.001-6.47461Q16.2305-6.69922 16.2305-7.05078Q16.2305-7.42188 16.001-7.65137Q15.7715-7.88086 15.4004-7.88086L12.5195-7.88086L12.5195-10.752Q12.5195-11.1328 12.29-11.3623Q12.0605-11.5918 11.6895-11.5918Q11.3379-11.5918 11.1133-11.3574Q10.8887-11.123 10.8887-10.752L10.8887-7.88086L8.01758-7.88086Q7.63672-7.88086 7.40723-7.65137Q7.17773-7.42188 7.17773-7.05078Z"/>
  </g>
  <g transform="matrix(1 0 0 1 305.646 1933)">
   <path d="M14.9707 5.66406Q17.0605 5.66406 18.96 5.01465Q20.8594 4.36523 22.4512 3.19336Q24.043 2.02148 25.2197 0.429688Q26.3965-1.16211 27.0459-3.06641Q27.6953-4.9707 27.6953-7.05078Q27.6953-9.14062 27.0459-11.04Q26.3965-12.9395 25.2197-14.5312Q24.043-16.123 22.4512-17.2998Q20.8594-18.4766 18.9551-19.126Q17.0508-19.7754 14.9609-19.7754Q12.8711-19.7754 10.9717-19.126Q9.07227-18.4766 7.48535-17.2998Q5.89844-16.123 4.72168-14.5312Q3.54492-12.9395 2.90039-11.04Q2.25586-9.14062 2.25586-7.05078Q2.25586-4.9707 2.90527-3.06641Q3.55469-1.16211 4.72656 0.429688Q5.89844 2.02148 7.49023 3.19336Q9.08203 4.36523 10.9814 5.01465Q12.8809 5.66406 14.9707 5.66406ZM14.9707 3.84766Q13.1641 3.84766 11.5283 3.2959Q9.89258 2.74414 8.53516 1.74805Q7.17773 0.751953 6.17676-0.610352Q5.17578-1.97266 4.62891-3.6084Q4.08203-5.24414 4.08203-7.05078Q4.08203-8.86719 4.62891-10.5029Q5.17578-12.1387 6.17188-13.501Q7.16797-14.8633 8.52539-15.8594Q9.88281-16.8555 11.5186-17.4023Q13.1543-17.9492 14.9609-17.9492Q16.7773-17.9492 18.4131-17.4023Q20.0488-16.8555 21.4111-15.8594Q22.7734-14.8633 23.7695-13.501Q24.7656-12.1387 25.3174-10.5029Q25.8691-8.86719 25.8691-7.05078Q25.8789-5.24414 25.332-3.6084Q24.7852-1.97266 23.7842-0.610352Q22.7832 0.751953 21.4209 1.74805Q20.0586 2.74414 18.4229 3.2959Q16.7871 3.84766 14.9707 3.84766ZM9.19922-7.05078Q9.19922-6.66992 9.45801-6.4209Q9.7168-6.17188 10.1172-6.17188L14.0625-6.17188L14.0625-2.2168Q14.0625-1.81641 14.3115-1.55762Q14.5605-1.29883 14.9512-1.29883Q15.3516-1.29883 15.6104-1.55273Q15.8691-1.80664 15.8691-2.2168L15.8691-6.17188L19.8242-6.17188Q20.2246-6.17188 20.4785-6.4209Q20.7324-6.66992 20.7324-7.05078Q20.7324-7.46094 20.4785-7.71484Q20.2246-7.96875 19.8242-7.96875L15.8691-7.96875L15.8691-11.9141Q15.8691-12.3242 15.6104-12.583Q15.3516-12.8418 14.9512-12.8418Q14.5605-12.8418 14.3115-12.583Q14.0625-12.3242 14.0625-11.9141L14.0625-7.96875L10.1172-7.96875Q9.70703-7.96875 9.45312-7.71484Q9.19922-7.46094 9.19922-7.05078Z"/>
  </g>
  <text style="stroke:none;fill:black;font-family:sans-serif;font-size:13;font-weight:bold;" transform="matrix(1 0 0 1 263 1953)">Design Variations</text>
  <text style="stroke:none;fill:black;font-family:sans-serif;font-size:13;" transform="matrix(1 0 0 1 263 1971)">Symbols are supported in up to nine weights and three scales.</text>
  <text style="stroke:none;fill:black;font-family:sans-serif;font-size:13;" transform="matrix(1 0 0 1 263 1989)">For optimal layout with text and other symbols, vertically align</text>
  <text style="stroke:none;fill:black;font-family:sans-serif;font-size:13;" transform="matrix(1 0 0 1 263 2007)">symbols with the adjacent text.</text>
  <line style="fill:none;stroke:#00AEEF;stroke-width:0.5;opacity:1.0;" x1="776" x2="776" y1="1919" y2="1933"/>
  <g transform="matrix(1 0 0 1 776 1933)">
   <path d="M3.31055 0.15625Q3.70117 0.15625 3.91602-0.00976562Q4.13086-0.175781 4.26758-0.585938L5.52734-4.0332L11.2891-4.0332L12.5488-0.585938Q12.6855-0.175781 12.9004-0.00976562Q13.1152 0.15625 13.4961 0.15625Q13.8867 0.15625 14.1162-0.0585938Q14.3457-0.273438 14.3457-0.644531Q14.3457-0.869141 14.2383-1.17188L9.6582-13.3691Q9.48242-13.8184 9.17969-14.043Q8.87695-14.2676 8.4082-14.2676Q7.5-14.2676 7.17773-13.3789L2.59766-1.16211Q2.49023-0.859375 2.49023-0.634766Q2.49023-0.263672 2.70996-0.0537109Q2.92969 0.15625 3.31055 0.15625ZM6.00586-5.51758L8.37891-12.0898L8.42773-12.0898L10.8008-5.51758Z"/>
  </g>
  <line style="fill:none;stroke:#00AEEF;stroke-width:0.5;opacity:1.0;" x1="793.197" x2="793.197" y1="1919" y2="1933"/>
  <text style="stroke:none;fill:black;font-family:sans-serif;font-size:13;font-weight:bold;" transform="matrix(1 0 0 1 776 1953)">Margins</text>
  <text style="stroke:none;fill:black;font-family:sans-serif;font-size:13;" transform="matrix(1 0 0 1 776 1971)">Leading and trailing margins on the left and right side of each symbol</text>
  <text style="stroke:none;fill:black;font-family:sans-serif;font-size:13;" transform="matrix(1 0 0 1 776 1989)">can be adjusted by modifying the x-location of the margin guidelines.</text>
  <text style="stroke:none;fill:black;font-family:sans-serif;font-size:13;" transform="matrix(1 0 0 1 776 2007)">Modifications are automatically applied proportionally to all</text>
  <text style="stroke:none;fill:black;font-family:sans-serif;font-size:13;" transform="matrix(1 0 0 1 776 2025)">scales and weights.</text>
  <g transform="matrix(1 0 0 1 1289 1933)">
   <path d="M2.8418 1.86523L4.54102 3.57422Q5.18555 4.22852 5.90332 4.17969Q6.62109 4.13086 7.31445 3.35938L18.0078-8.42773L17.041-9.4043L6.42578 2.27539Q6.16211 2.57812 5.89355 2.61719Q5.625 2.65625 5.27344 2.30469L4.10156 1.14258Q3.75 0.791016 3.79395 0.522461Q3.83789 0.253906 4.14062-0.0195312L15.6152-10.8203L14.6387-11.7871L3.04688-0.898438Q2.30469-0.214844 2.25098 0.498047Q2.19727 1.21094 2.8418 1.86523ZM9.25781-16.3281Q8.94531-16.0254 8.90625-15.6348Q8.86719-15.2441 9.04297-14.9512Q9.21875-14.6777 9.55566-14.541Q9.89258-14.4043 10.3809-14.5215Q11.4746-14.7754 12.5977-14.7314Q13.7207-14.6875 14.7949-13.9844L14.209-12.5293Q13.9551-11.9043 14.0674-11.4404Q14.1797-10.9766 14.5801-10.5664L16.875-8.25195Q17.2363-7.88086 17.5781-7.82227Q17.9199-7.76367 18.3398-7.8418L19.4043-8.03711L20.0684-7.36328L20.0293-6.80664Q20-6.43555 20.1221-6.12305Q20.2441-5.81055 20.6055-5.44922L21.3672-4.70703Q21.7285-4.3457 22.1533-4.33105Q22.5781-4.31641 22.9297-4.66797L25.8398-7.58789Q26.1914-7.93945 26.1816-8.35449Q26.1719-8.76953 25.8105-9.13086L25.0391-9.89258Q24.6875-10.2539 24.3799-10.3857Q24.0723-10.5176 23.7109-10.4883L23.1348-10.4395L22.4902-11.0742L22.7344-12.1973Q22.832-12.6172 22.6953-12.9834Q22.5586-13.3496 22.1191-13.7891L19.9219-15.9766Q18.6719-17.2168 17.2607-17.8369Q15.8496-18.457 14.4189-18.4814Q12.9883-18.5059 11.665-17.959Q10.3418-17.4121 9.25781-16.3281ZM10.752-15.957Q11.6602-16.6211 12.7002-16.9043Q13.7402-17.1875 14.8047-17.085Q15.8691-16.9824 16.8701-16.5137Q17.8711-16.0449 18.7012-15.2051L21.1328-12.793Q21.3086-12.6172 21.3525-12.4512Q21.3965-12.2852 21.3379-12.0312L21.0156-10.5469L22.5195-9.0625L23.5059-9.12109Q23.6914-9.13086 23.7891-9.09668Q23.8867-9.0625 24.0332-8.91602L24.6094-8.33984L22.168-5.89844L21.5918-6.47461Q21.4453-6.62109 21.4062-6.71875Q21.3672-6.81641 21.377-7.01172L21.4453-7.98828L19.9512-9.47266L18.4277-9.21875Q18.1836-9.16992 18.042-9.2041Q17.9004-9.23828 17.7148-9.41406L15.7129-11.416Q15.5176-11.5918 15.4932-11.7529Q15.4688-11.9141 15.5859-12.1875L16.4648-14.2773Q15.293-15.3711 13.8281-15.791Q12.3633-16.2109 10.8398-15.7617Q10.7227-15.7324 10.6885-15.8057Q10.6543-15.8789 10.752-15.957Z"/>
  </g>
  <text style="stroke:none;fill:black;font-family:sans-serif;font-size:13;font-weight:bold;" transform="matrix(1 0 0 1 1289 1953)">Exporting</text>
  <text style="stroke:none;fill:black;font-family:sans-serif;font-size:13;" transform="matrix(1 0 0 1 1289 1971)">Symbols should be outlined when exporting to ensure the</text>
  <text style="stroke:none;fill:black;font-family:sans-serif;font-size:13;" transform="matrix(1 0 0 1 1289 1989)">design is preserved when submitting to Xcode.</text>
  <text id="template-version" style="stroke:none;fill:black;font-family:sans-serif;font-size:13;text-anchor:end;" transform="matrix(1 0 0 1 3036 1933)">Template v.3.0</text>
  <text style="stroke:none;fill:black;font-family:sans-serif;font-size:13;text-anchor:end;" transform="matrix(1 0 0 1 3036 1951)">Requires Xcode 13 or greater</text>
  <text id="descriptive-name" style="stroke:none;fill:black;font-family:sans-serif;font-size:13;text-anchor:end;" transform="matrix(1 0 0 1 3036 1969)">Generated from navigation-2</text>
  <text style="stroke:none;fill:black;font-family:sans-serif;font-size:13;text-anchor:end;" transform="matrix(1 0 0 1 3036 1987)">Typeset at 100 points</text>
  <text style="stroke:none;fill:black;font-family:sans-serif;font-size:13;" transform="matrix(1 0 0 1 263 726)">Small</text>
  <text style="stroke:none;fill:black;font-family:sans-serif;font-size:13;" transform="matrix(1 0 0 1 263 1156)">Medium</text>
  <text style="stroke:none;fill:black;font-family:sans-serif;font-size:13;" transform="matrix(1 0 0 1 263 1586)">Large</text>
 </g>
 <g id="Guides">
  <g id="H-reference" style="fill:#27AAE1;stroke:none;" transform="matrix(1 0 0 1 339 696)">
   <path d="M0.976562 0L3.66211 0L29.3457-67.1387L30.0293-67.1387L30.0293-70.459L28.125-70.459ZM11.6699-24.4629L46.9727-24.4629L46.2402-26.709L12.4512-26.709ZM55.127 0L57.7637 0L30.6152-70.459L29.4434-70.459L29.4434-67.1387Z"/>
  </g>
  <line id="Baseline-S" style="fill:none;stroke:#27AAE1;opacity:1;stroke-width:0.5;" x1="263" x2="3036" y1="696" y2="696"/>
  <line id="Capline-S" style="fill:none;stroke:#27AAE1;opacity:1;stroke-width:0.5;" x1="263" x2="3036" y1="625.541" y2="625.541"/>
  <g id="H-reference" style="fill:#27AAE1;stroke:none;" transform="matrix(1 0 0 1 339 1126)">
   <path d="M0.976562 0L3.66211 0L29.3457-67.1387L30.0293-67.1387L30.0293-70.459L28.125-70.459ZM11.6699-24.4629L46.9727-24.4629L46.2402-26.709L12.4512-26.709ZM55.127 0L57.7637 0L30.6152-70.459L29.4434-70.459L29.4434-67.1387Z"/>
  </g>
  <line id="Baseline-M" style="fill:none;stroke:#27AAE1;opacity:1;stroke-width:0.5;" x1="263" x2="3036" y1="1126" y2="1126"/>
  <line id="Capline-M" style="fill:none;stroke:#27AAE1;opacity:1;stroke-width:0.5;" x1="263" x2="3036" y1="1055.54" y2="1055.54"/>
  <g id="H-reference" style="fill:#27AAE1;stroke:none;" transform="matrix(1 0 0 1 339 1556)">
   <path d="M0.976562 0L3.66211 0L29.3457-67.1387L30.0293-67.1387L30.0293-70.459L28.125-70.459ZM11.6699-24.4629L46.9727-24.4629L46.2402-26.709L12.4512-26.709ZM55.127 0L57.7637 0L30.6152-70.459L29.4434-70.459L29.4434-67.1387Z"/>
  </g>
  <line id="Baseline-L" style="fill:none;stroke:#27AAE1;opacity:1;stroke-width:0.5;" x1="263" x2="3036" y1="1556" y2="1556"/>
  <line id="Capline-L" style="fill:none;stroke:#27AAE1;opacity:1;stroke-width:0.5;" x1="263" x2="3036" y1="1485.54" y2="1485.54"/>
  <line id="left-margin-Regular-M" style="fill:none;stroke:#00AEEF;stroke-width:0.5;opacity:1.0;" x1="1393.03" x2="1393.03" y1="1030.78" y2="1150.12"/>
  <line id="right-margin-Regular-M" style="fill:none;stroke:#00AEEF;stroke-width:0.5;opacity:1.0;" x1="1506.66" x2="1506.66" y1="1030.78" y2="1150.12"/>
 </g>
 <g id="Symbols">
  <g id="Black-L" transform="matrix(1 0 0 1 2864.41 1556)">
   <path d="M69.14-99.2C72.11-99.2 74.77-97.35 75.8-94.56L115.61 13.5C116.65 16.3 115.82 19.45 113.54 21.38C111.26 23.31 108.02 23.6 105.43 22.12L69.14 1.39L32.85 22.12C30.26 23.6 27.02 23.31 24.74 21.38C22.46 19.45 21.63 16.3 22.67 13.5L62.48-94.56C63.51-97.35 66.17-99.2 69.14-99.2ZM42.73 0.12L65.62-12.96C67.8-14.2 70.48-14.2 72.66-12.96L95.55 0.12L69.14-71.57L42.73 0.12Z"/>
  </g>
  <g id="Heavy-L" transform="matrix(1 0 0 1 2568.55 1556)">
   <path d="M68.2935-98.35C70.9135-98.35 73.2535-96.72 74.1535-94.27L113.964 13.8C114.874 16.26 114.144 19.03 112.144 20.73C110.134 22.43 107.284 22.69 105.004 21.38L68.2935 0.41L31.5835 21.38C29.3035 22.69 26.4435 22.43 24.4435 20.73C22.4335 19.03 21.7035 16.26 22.6135 13.8L62.4235-94.27C63.3335-96.72 65.6735-98.35 68.2935-98.35ZM40.2735 2.02L65.1935-12.22C67.1135-13.32 69.4735-13.32 71.3935-12.22L96.3035 2.02L68.2935-74.03L40.2735 2.02Z"/>
  </g>
  <g id="Bold-L" transform="matrix(1 0 0 1 2272.79 1556)">
   <path d="M67.3435-97.4C69.5635-97.4 71.5435-96.02 72.3135-93.94L112.124 14.13C112.894 16.22 112.274 18.56 110.574 20C108.874 21.44 106.454 21.67 104.524 20.56L67.3435-0.69L30.1535 20.56C28.2235 21.67 25.8035 21.44 24.1035 20C22.4035 18.56 21.7835 16.22 22.5535 14.13L62.3635-93.94C63.1335-96.02 65.1135-97.4 67.3435-97.4ZM37.5335 4.14L64.7135-11.39C66.3335-12.32 68.3435-12.32 69.9635-11.39L97.1435 4.14L67.3435-76.77L37.5335 4.14Z"/>
  </g>
  <g id="Semibold-L" transform="matrix(1 0 0 1 1976.73 1556)">
   <path d="M66.6907-96.75C68.6407-96.75 70.3807-95.54 71.0507-93.71L110.871 14.35C111.541 16.18 111.001 18.24 109.511 19.51C108.011 20.77 105.891 20.96 104.201 19.99L66.6907-1.44L29.1807 19.99C27.4907 20.96 25.3707 20.77 23.8707 19.51C22.3807 18.24 21.8407 16.18 22.5107 14.35L62.3307-93.71C63.0007-95.54 64.7407-96.75 66.6907-96.75ZM35.6507 5.59L64.3807-10.83C65.8107-11.65 67.5707-11.65 69.0007-10.83L97.7307 5.59L66.6907-78.65L35.6507 5.59Z"/>
  </g>
  <g id="Medium-L" transform="matrix(1 0 0 1 1680.52 1556)">
   <path d="M66.1916-96.25C67.9316-96.25 69.4816-95.17 70.0816-93.54L109.902 14.52C110.502 16.16 110.012 18 108.682 19.13C107.352 20.25 105.462 20.43 103.942 19.56L66.1916-2.01L28.4416 19.56C26.9216 20.43 25.0316 20.25 23.7016 19.13C22.3616 18 21.8816 16.16 22.4816 14.52L62.3016-93.54C62.9016-95.17 64.4516-96.25 66.1916-96.25ZM34.2116 6.7L64.1316-10.4C65.4116-11.12 66.9716-11.12 68.2516-10.4L98.1716 6.7L66.1916-80.1L34.2116 6.7Z"/>
  </g>
  <g id="Regular-L" transform="matrix(1 0 0 1 1384.45 1556)">
   <path d="M65.5432-95.6C67.0132-95.6 68.3232-94.69 68.8232-93.31L108.644 14.75C109.154 16.13 108.744 17.68 107.614 18.63C106.494 19.58 104.894 19.73 103.624 19L65.5432-2.76L27.4632 19C26.1932 19.73 24.5932 19.58 23.4732 18.63C22.3432 17.68 21.9332 16.13 22.4432 14.75L62.2632-93.31C62.7632-94.69 64.0732-95.6 65.5432-95.6ZM32.3332 8.15L63.8032-9.83C64.8832-10.45 66.2032-10.45 67.2832-9.83L98.7532 8.15L65.5432-81.98L32.3332 8.15Z"/>
  </g>
  <g id="Light-L" transform="matrix(1 0 0 1 1088.54 1556)">
   <path d="M64.7411-94.8C65.8711-94.8 66.8811-94.1 67.2711-93.04L107.091 15.02C107.481 16.09 107.161 17.29 106.301 18.02C105.431 18.75 104.201 18.87 103.211 18.3L64.7411-3.68L26.2711 18.3C25.2811 18.87 24.0511 18.75 23.1811 18.02C22.3211 17.29 22.0011 16.09 22.3911 15.02L62.2111-93.04C62.6011-94.1 63.6111-94.8 64.7411-94.8ZM30.0211 9.94L63.4011-9.14C64.2311-9.61 65.2511-9.61 66.0811-9.14L99.4611 9.94L64.7411-84.29L30.0211 9.94Z"/>
  </g>
  <g id="Thin-L" transform="matrix(1 0 0 1 792.885 1556)">
   <path d="M63.6896-93.75C64.3806-93.75 64.9986-93.32 65.2376-92.68L105.05 15.39C105.29 16.04 105.097 16.77 104.568 17.22C104.039 17.67 103.286 17.73 102.684 17.39L63.6896-4.89L24.6956 17.39C24.0936 17.73 23.3406 17.67 22.8106 17.22C22.2816 16.77 22.0886 16.04 22.3286 15.39L62.1406-92.68C62.3796-93.32 62.9976-93.75 63.6896-93.75ZM26.9906 12.28L62.8706-8.22C63.3776-8.51 64.0006-8.51 64.5076-8.22L100.388 12.28L63.6896-87.33L26.9906 12.28Z"/>
  </g>
  <g id="Ultralight-L" transform="matrix(1 0 0 1 496.724 1556)">
   <path d="M63.1388-93.2C63.5998-93.2 64.0118-92.92 64.1718-92.48L103.984 15.58C104.144 16.01 104.015 16.5 103.663 16.8C103.31 17.1 102.808 17.14 102.406 16.91L63.1388-5.52L23.8728 16.91C23.4708 17.14 22.9688 17.1 22.6158 16.8C22.2628 16.5 22.1348 16.01 22.2948 15.58L62.1068-92.48C62.2668-92.92 62.6788-93.2 63.1388-93.2ZM25.4028 13.51L62.5938-7.75C62.9318-7.94 63.3468-7.94 63.6848-7.75L100.876 13.51L63.1388-88.92L25.4028 13.51Z"/>
  </g>
  <g id="Black-M" transform="matrix(1 0 0 1 2872.98 1126)">
   <path d="M60.5636-86.95C63.5436-86.95 66.2036-85.1 67.2336-82.31L98.4636 2.48C99.5036 5.28 98.6736 8.43 96.3936 10.35C94.1136 12.28 90.8736 12.58 88.2836 11.1L60.5636-4.74L32.8536 11.1C30.2636 12.58 27.0236 12.28 24.7436 10.35C22.4636 8.43 21.6336 5.28 22.6636 2.48L53.9036-82.31C54.9336-85.1 57.5936-86.95 60.5636-86.95ZM42.7336-10.9L57.0436-19.08C59.2236-20.33 61.9036-20.33 64.0936-19.08L78.4036-10.9L60.5636-59.32L42.7336-10.9Z"/>
  </g>
  <g id="Heavy-M" transform="matrix(1 0 0 1 2577.13 1126)">
   <path d="M59.7135-86.1C62.3335-86.1 64.6735-84.47 65.5835-82.02L96.8235 2.77C97.7235 5.24 96.9935 8.01 94.9935 9.7C92.9835 11.4 90.1335 11.66 87.8535 10.36L59.7135-5.72L31.5835 10.36C29.3035 11.66 26.4435 11.4 24.4435 9.7C22.4335 8.01 21.7035 5.24 22.6135 2.77L53.8535-82.02C54.7635-84.47 57.1035-86.1 59.7135-86.1ZM40.2735-9.01L56.6135-18.34C58.5435-19.44 60.8935-19.44 62.8235-18.34L79.1635-9.01L59.7135-61.78L40.2735-9.01Z"/>
  </g>
  <g id="Bold-M" transform="matrix(1 0 0 1 2281.36 1126)">
   <path d="M58.7735-85.15C60.9935-85.15 62.9735-83.77 63.7435-81.69L94.9835 3.1C95.7535 5.19 95.1335 7.54 93.4335 8.98C91.7335 10.42 89.3135 10.64 87.3735 9.53L58.7735-6.81L30.1635 9.53C28.2235 10.64 25.8035 10.42 24.1035 8.98C22.4035 7.54 21.7835 5.19 22.5535 3.1L53.7935-81.69C54.5635-83.77 56.5435-85.15 58.7735-85.15ZM37.5335-6.89L56.1435-17.52C57.7735-18.45 59.7735-18.45 61.3935-17.52L80.0035-6.89L58.7735-64.52L37.5335-6.89Z"/>
  </g>
  <g id="Semibold-M" transform="matrix(1 0 0 1 1985.3 1126)">
   <path d="M58.1151-84.5C60.0651-84.5 61.8051-83.29 62.4751-81.46L93.7151 3.33C94.3951 5.16 93.8451 7.22 92.3551 8.48C90.8651 9.74 88.7451 9.94 87.0451 8.97L58.1151-7.56L29.1851 8.97C27.4851 9.94 25.3651 9.74 23.8751 8.48C22.3851 7.22 21.8351 5.16 22.5151 3.33L53.7551-81.46C54.4251-83.29 56.1651-84.5 58.1151-84.5ZM35.6551-5.44L55.8051-16.95C57.2351-17.77 58.9951-17.77 60.4251-16.95L80.5751-5.44L58.1151-66.4L35.6551-5.44Z"/>
  </g>
  <g id="Medium-M" transform="matrix(1 0 0 1 1689.1 1126)">
   <path d="M57.6119-84C59.3519-84 60.9019-82.92 61.5019-81.29L92.7419 3.5C93.3419 5.13 92.8619 6.97 91.5319 8.1C90.2019 9.23 88.3019 9.4 86.7919 8.54L57.6119-8.14L28.4319 8.54C26.9219 9.4 25.0219 9.23 23.6919 8.1C22.3619 6.97 21.8819 5.13 22.4819 3.5L53.7219-81.29C54.3219-82.92 55.8719-84 57.6119-84ZM34.2119-4.32L55.5519-16.52C56.8319-17.25 58.3919-17.25 59.6719-16.52L81.0119-4.32L57.6119-67.85L34.2119-4.32Z"/>
  </g>
  <g id="Regular-M" transform="matrix(1 0 0 1 1393.03 1126)">
   <path d="M56.9634-83.35C58.4334-83.35 59.7434-82.44 60.2434-81.06L91.4834 3.72C91.9934 5.1 91.5834 6.65 90.4634 7.6C89.3434 8.56 87.7434 8.7 86.4634 7.97L56.9634-8.89L27.4634 7.97C26.1834 8.7 24.5834 8.56 23.4634 7.6C22.3434 6.65 21.9334 5.1 22.4434 3.72L53.6834-81.06C54.1834-82.44 55.4934-83.35 56.9634-83.35ZM32.3334-2.87L55.2234-15.96C56.3034-16.57 57.6234-16.57 58.7034-15.96L81.5934-2.87L56.9634-69.73L32.3334-2.87Z"/>
  </g>
  <g id="Light-M" transform="matrix(1 0 0 1 1097.12 1126)">
   <path d="M56.1628-82.55C57.2928-82.55 58.3028-81.85 58.6928-80.79L89.9328 4C90.3228 5.06 90.0128 6.26 89.1428 6.99C88.2828 7.73 87.0428 7.84 86.0628 7.28L56.1628-9.81L26.2628 7.28C25.2828 7.84 24.0428 7.73 23.1828 6.99C22.3128 6.26 22.0028 5.06 22.3928 4L53.6328-80.79C54.0228-81.85 55.0328-82.55 56.1628-82.55ZM30.0228-1.09L54.8228-15.26C55.6528-15.74 56.6728-15.74 57.5028-15.26L82.3028-1.09L56.1628-72.04L30.0228-1.09Z"/>
  </g>
  <g id="Thin-M" transform="matrix(1 0 0 1 801.46 1126)">
   <path d="M55.1146-81.5C55.8056-81.5 56.4236-81.07 56.6626-80.43L87.9006 4.36C88.1396 5.01 87.9476 5.74 87.4176 6.19C86.8886 6.64 86.1356 6.71 85.5336 6.37L55.1146-11.02L24.6956 6.37C24.0936 6.71 23.3406 6.64 22.8116 6.19C22.2816 5.74 22.0886 5.01 22.3286 4.36L53.5666-80.43C53.8056-81.07 54.4236-81.5 55.1146-81.5ZM26.9916 1.25L54.2956-14.35C54.8036-14.64 55.4256-14.64 55.9336-14.35L83.2376 1.25L55.1146-75.08L26.9916 1.25Z"/>
  </g>
  <g id="Ultralight-M" transform="matrix(1 0 0 1 505.299 1126)">
   <path d="M54.5646-80.95C55.0256-80.95 55.4376-80.67 55.5966-80.23L86.8336 4.55C86.9936 4.99 86.8656 5.47 86.5126 5.77C86.1596 6.07 85.6576 6.12 85.2556 5.89L54.5646-11.65L23.8726 5.89C23.4716 6.12 22.9686 6.07 22.6166 5.77C22.2636 5.47 22.1346 4.99 22.2946 4.55L53.5316-80.23C53.6916-80.67 54.1036-80.95 54.5646-80.95ZM25.4026 2.48L54.0186-13.87C54.3566-14.06 54.7716-14.06 55.1096-13.87L83.7256 2.48L54.5646-76.67L25.4026 2.48Z"/>
  </g>
  <g id="Black-S" transform="matrix(1 0 0 1 2879.73 696)">
   <path d="M53.8238-77.432C56.7938-77.432 59.4538-75.577 60.4838-72.786L84.9838-6.286C86.0138-3.486 85.1838-0.34 82.9138 1.588C80.6338 3.516 77.3938 3.813 74.8038 2.333L53.8238-9.654L32.8438 2.333C30.2538 3.813 27.0138 3.516 24.7338 1.588C22.4638-0.34 21.6338-3.486 22.6638-6.286L47.1638-72.786C48.1938-75.577 50.8538-77.432 53.8238-77.432ZM42.7238-19.666L50.3038-23.996C52.4838-25.243 55.1638-25.243 57.3438-23.996L64.9238-19.666L53.8238-49.794L42.7238-19.666Z"/>
  </g>
  <g id="Heavy-S" transform="matrix(1 0 0 1 2583.87 696)">
   <path d="M52.9737-76.582C55.5937-76.582 57.9337-74.95 58.8337-72.493L83.3337-5.993C84.2437-3.528 83.5137-0.758 81.5137 0.939C79.5037 2.636 76.6537 2.898 74.3737 1.594L52.9737-10.634L31.5737 1.594C29.2937 2.898 26.4437 2.636 24.4337 0.939C22.4337-0.758 21.7037-3.528 22.6137-5.993L47.1137-72.493C48.0137-74.95 50.3537-76.582 52.9737-76.582ZM40.2737-17.771L49.8737-23.259C51.7937-24.357 54.1537-24.357 56.0737-23.259L65.6737-17.771L52.9737-52.253L40.2737-17.771Z"/>
  </g>
  <g id="Bold-S" transform="matrix(1 0 0 1 2288.1 696)">
   <path d="M52.0335-75.427C54.2535-75.427 56.2335-74.043 57.0035-71.959L81.5035-5.459C82.2735-3.369 81.6535-1.02 79.9535 0.419C78.2535 1.858 75.8335 2.08 73.9035 0.975L52.0335-11.522L30.1535 0.975C28.2235 2.08 25.8035 1.858 24.1035 0.419C22.4035-1.02 21.7835-3.369 22.5535-5.459L47.0535-71.959C47.8235-74.043 49.8035-75.427 52.0335-75.427ZM37.5335-15.447L49.4035-22.228C51.0235-23.16 53.0335-23.16 54.6535-22.228L66.5235-15.447L52.0335-54.796L37.5335-15.447Z"/>
  </g>
  <g id="Semibold-S" transform="matrix(1 0 0 1 1992.04 696)">
   <path d="M51.3769-74.777C53.3269-74.777 55.0669-73.563 55.7369-71.735L80.2369-5.235C80.9169-3.401 80.3769-1.34 78.8769-0.078C77.3869 1.185 75.2669 1.38 73.5669 0.41L51.3769-12.272L29.1869 0.41C27.4869 1.38 25.3669 1.185 23.8769-0.078C22.3769-1.34 21.8369-3.401 22.5169-5.235L47.0169-71.735C47.6869-73.563 49.4269-74.777 51.3769-74.777ZM35.6569-13.998L49.0669-21.665C50.4969-22.482 52.2569-22.482 53.6869-21.665L67.0969-13.998L51.3769-56.677L35.6569-13.998Z"/>
  </g>
  <g id="Medium-S" transform="matrix(1 0 0 1 1695.83 696)">
   <path d="M50.8762-74.277C52.6162-74.277 54.1662-73.194 54.7662-71.562L79.2662-5.062C79.8762-3.425 79.3862-1.586 78.0562-0.459C76.7262 0.667 74.8362 0.841 73.3162-0.024L50.8762-12.848L28.4362-0.024C26.9162 0.841 25.0262 0.667 23.6962-0.459C22.3662-1.586 21.8762-3.425 22.4862-5.062L46.9862-71.562C47.5862-73.194 49.1362-74.277 50.8762-74.277ZM34.2062-12.883L48.8162-21.231C50.0962-21.96 51.6562-21.96 52.9362-21.231L67.5462-12.883L50.8762-58.123L34.2062-12.883Z"/>
  </g>
  <g id="Regular-S" transform="matrix(1 0 0 1 1399.77 696)">
   <path d="M50.2234-73.627C51.6934-73.627 53.0034-72.713 53.5034-71.337L78.0034-4.837C78.5134-3.457 78.1034-1.906 76.9834-0.955C75.8634-0.005 74.2634 0.142 72.9834-0.588L50.2234-13.596L27.4634-0.588C26.1834 0.142 24.5834-0.005 23.4634-0.955C22.3434-1.906 21.9334-3.457 22.4434-4.837L46.9434-71.337C47.4434-72.713 48.7534-73.627 50.2234-73.627ZM32.3334-11.433L48.4834-20.666C49.5634-21.281 50.8834-21.281 51.9634-20.666L68.1134-11.433L50.2234-60.003L32.3334-11.433Z"/>
  </g>
  <g id="Light-S" transform="matrix(1 0 0 1 1103.86 696)">
   <path d="M49.4272-72.827C50.5572-72.827 51.5672-72.122 51.9572-71.061L76.4572-4.561C76.8572-3.496 76.5372-2.299 75.6672-1.566C74.8072-0.833 73.5772-0.72 72.5872-1.283L49.4272-14.517L26.2672-1.283C25.2772-0.72 24.0472-0.833 23.1872-1.566C22.3172-2.299 21.9972-3.496 22.3972-4.561L46.8972-71.061C47.2872-72.122 48.2972-72.827 49.4272-72.827ZM30.0272-9.649L48.0872-19.971C48.9172-20.446 49.9372-20.446 50.7672-19.971L68.8272-9.649L49.4272-62.317L30.0272-9.649Z"/>
  </g>
  <g id="Thin-S" transform="matrix(1 0 0 1 808.197 696)">
   <path d="M48.3772-71.777C49.0682-71.777 49.6862-71.346 49.9252-70.698L74.4252-4.198C74.6652-3.547 74.4722-2.816 73.9432-2.368C73.4132-1.92 72.6602-1.851 72.0582-2.195L48.3772-15.727L24.6952-2.195C24.0932-1.851 23.3402-1.92 22.8112-2.368C22.2812-2.816 22.0892-3.547 22.3282-4.198L46.8282-70.698C47.0672-71.346 47.6852-71.777 48.3772-71.777ZM26.9912-7.307L47.5582-19.06C48.0652-19.35 48.6882-19.35 49.1952-19.06L69.7632-7.307L48.3772-65.354L26.9912-7.307Z"/>
  </g>
  <g id="Ultralight-S" transform="matrix(1 0 0 1 512.036 696)">
   <path d="M47.8266-71.227C48.2876-71.227 48.6996-70.939 48.8596-70.507L73.3596-4.007C73.5186-3.573 73.3906-3.086 73.0376-2.787C72.6846-2.488 72.1826-2.442 71.7816-2.671L47.8266-16.36L23.8726-2.671C23.4716-2.442 22.9696-2.488 22.6166-2.787C22.2636-3.086 22.1346-3.573 22.2946-4.007L46.7946-70.507C46.9546-70.939 47.3666-71.227 47.8266-71.227ZM25.4036-6.08L47.2816-18.582C47.6196-18.775 48.0346-18.775 48.3726-18.582L70.2506-6.08L47.8266-66.945L25.4036-6.08Z"/>
  </g>
 </g>
</svg>
