<?xml version="1.0" encoding="UTF-8"?>
<!--Generator: Apple Native CoreSVG 175-->
<!DOCTYPE svg
PUBLIC "-//W3C//DTD SVG 1.1//EN"
       "http://www.w3.org/Graphics/SVG/1.1/DTD/svg11.dtd">
<svg version="1.1" xmlns="http://www.w3.org/2000/svg" xmlns:xlink="http://www.w3.org/1999/xlink" width="3300" height="2200">
 <!--glyph: "", point size: 100.0, font version: "17.0d12e1", template writer version: "65.1"-->
 <g id="Notes">
  <rect height="2200" id="artboard" style="fill:white;opacity:1" width="3300" x="0" y="0"/>
  <line style="fill:none;stroke:black;opacity:1;stroke-width:0.5;" x1="263" x2="3036" y1="292" y2="292"/>
  <text style="stroke:none;fill:black;font-family:sans-serif;font-size:13;font-weight:bold;" transform="matrix(1 0 0 1 263 322)">Weight/Scale Variations</text>
  <text style="stroke:none;fill:black;font-family:sans-serif;font-size:13;text-anchor:middle;" transform="matrix(1 0 0 1 559.711 322)">Ultralight</text>
  <text style="stroke:none;fill:black;font-family:sans-serif;font-size:13;text-anchor:middle;" transform="matrix(1 0 0 1 856.422 322)">Thin</text>
  <text style="stroke:none;fill:black;font-family:sans-serif;font-size:13;text-anchor:middle;" transform="matrix(1 0 0 1 1153.13 322)">Light</text>
  <text style="stroke:none;fill:black;font-family:sans-serif;font-size:13;text-anchor:middle;" transform="matrix(1 0 0 1 1449.84 322)">Regular</text>
  <text style="stroke:none;fill:black;font-family:sans-serif;font-size:13;text-anchor:middle;" transform="matrix(1 0 0 1 1746.56 322)">Medium</text>
  <text style="stroke:none;fill:black;font-family:sans-serif;font-size:13;text-anchor:middle;" transform="matrix(1 0 0 1 2043.27 322)">Semibold</text>
  <text style="stroke:none;fill:black;font-family:sans-serif;font-size:13;text-anchor:middle;" transform="matrix(1 0 0 1 2339.98 322)">Bold</text>
  <text style="stroke:none;fill:black;font-family:sans-serif;font-size:13;text-anchor:middle;" transform="matrix(1 0 0 1 2636.69 322)">Heavy</text>
  <text style="stroke:none;fill:black;font-family:sans-serif;font-size:13;text-anchor:middle;" transform="matrix(1 0 0 1 2933.4 322)">Black</text>
  <line style="fill:none;stroke:black;opacity:1;stroke-width:0.5;" x1="263" x2="3036" y1="1903" y2="1903"/>
  <g transform="matrix(1 0 0 1 263 1933)">
   <path d="M9.24805 0.830078Q10.8691 0.830078 12.2949 0.214844Q13.7207-0.400391 14.8096-1.49414Q15.8984-2.58789 16.5186-4.01367Q17.1387-5.43945 17.1387-7.05078Q17.1387-8.66211 16.5186-10.0879Q15.8984-11.5137 14.8047-12.6074Q13.7109-13.7012 12.2852-14.3164Q10.8594-14.9316 9.23828-14.9316Q7.62695-14.9316 6.20117-14.3164Q4.77539-13.7012 3.69141-12.6074Q2.60742-11.5137 1.9873-10.0879Q1.36719-8.66211 1.36719-7.05078Q1.36719-5.43945 1.9873-4.01367Q2.60742-2.58789 3.69629-1.49414Q4.78516-0.400391 6.21094 0.214844Q7.63672 0.830078 9.24805 0.830078ZM9.24805-0.654297Q7.91992-0.654297 6.7627-1.14746Q5.60547-1.64062 4.73145-2.51953Q3.85742-3.39844 3.36426-4.56055Q2.87109-5.72266 2.87109-7.05078Q2.87109-8.37891 3.35938-9.54102Q3.84766-10.7031 4.72168-11.582Q5.5957-12.4609 6.75293-12.9541Q7.91016-13.4473 9.23828-13.4473Q10.5762-13.4473 11.7334-12.9541Q12.8906-12.4609 13.7695-11.582Q14.6484-10.7031 15.1465-9.54102Q15.6445-8.37891 15.6445-7.05078Q15.6445-5.72266 15.1514-4.56055Q14.6582-3.39844 13.7842-2.51953Q12.9102-1.64062 11.748-1.14746Q10.5859-0.654297 9.24805-0.654297ZM5.6543-7.05078Q5.6543-6.72852 5.85938-6.52832Q6.06445-6.32812 6.40625-6.32812L8.51562-6.32812L8.51562-4.20898Q8.51562-3.88672 8.71094-3.67676Q8.90625-3.4668 9.23828-3.4668Q9.56055-3.4668 9.77051-3.67676Q9.98047-3.88672 9.98047-4.20898L9.98047-6.32812L12.0898-6.32812Q12.4219-6.32812 12.627-6.52832Q12.832-6.72852 12.832-7.05078Q12.832-7.38281 12.627-7.58789Q12.4219-7.79297 12.0898-7.79297L9.98047-7.79297L9.98047-9.90234Q9.98047-10.2344 9.77051-10.4443Q9.56055-10.6543 9.23828-10.6543Q8.90625-10.6543 8.71094-10.4443Q8.51562-10.2344 8.51562-9.90234L8.51562-7.79297L6.40625-7.79297Q6.06445-7.79297 5.85938-7.58789Q5.6543-7.38281 5.6543-7.05078Z"/>
  </g>
  <g transform="matrix(1 0 0 1 281.867 1933)">
   <path d="M11.709 2.91016Q13.75 2.91016 15.5518 2.12891Q17.3535 1.34766 18.7305-0.0292969Q20.1074-1.40625 20.8887-3.20801Q21.6699-5.00977 21.6699-7.05078Q21.6699-9.0918 20.8887-10.8936Q20.1074-12.6953 18.7305-14.0723Q17.3535-15.4492 15.5469-16.2305Q13.7402-17.0117 11.6992-17.0117Q9.6582-17.0117 7.85645-16.2305Q6.05469-15.4492 4.68262-14.0723Q3.31055-12.6953 2.5293-10.8936Q1.74805-9.0918 1.74805-7.05078Q1.74805-5.00977 2.5293-3.20801Q3.31055-1.40625 4.6875-0.0292969Q6.06445 1.34766 7.86621 2.12891Q9.66797 2.91016 11.709 2.91016ZM11.709 1.25Q9.98047 1.25 8.47656 0.605469Q6.97266-0.0390625 5.83496-1.17676Q4.69727-2.31445 4.05762-3.81836Q3.41797-5.32227 3.41797-7.05078Q3.41797-8.7793 4.05762-10.2832Q4.69727-11.7871 5.83008-12.9297Q6.96289-14.0723 8.4668-14.7119Q9.9707-15.3516 11.6992-15.3516Q13.4277-15.3516 14.9316-14.7119Q16.4355-14.0723 17.5781-12.9297Q18.7207-11.7871 19.3652-10.2832Q20.0098-8.7793 20.0098-7.05078Q20.0098-5.32227 19.3701-3.81836Q18.7305-2.31445 17.5928-1.17676Q16.4551-0.0390625 14.9463 0.605469Q13.4375 1.25 11.709 1.25ZM7.17773-7.05078Q7.17773-6.69922 7.41211-6.47461Q7.64648-6.25 8.01758-6.25L10.8887-6.25L10.8887-3.36914Q10.8887-2.99805 11.1133-2.76855Q11.3379-2.53906 11.6895-2.53906Q12.0605-2.53906 12.29-2.76855Q12.5195-2.99805 12.5195-3.36914L12.5195-6.25L15.4004-6.25Q15.7715-6.25 16.001-6.47461Q16.2305-6.69922 16.2305-7.05078Q16.2305-7.42188 16.001-7.65137Q15.7715-7.88086 15.4004-7.88086L12.5195-7.88086L12.5195-10.752Q12.5195-11.1328 12.29-11.3623Q12.0605-11.5918 11.6895-11.5918Q11.3379-11.5918 11.1133-11.3574Q10.8887-11.123 10.8887-10.752L10.8887-7.88086L8.01758-7.88086Q7.63672-7.88086 7.40723-7.65137Q7.17773-7.42188 7.17773-7.05078Z"/>
  </g>
  <g transform="matrix(1 0 0 1 305.646 1933)">
   <path d="M14.9707 5.66406Q17.0605 5.66406 18.96 5.01465Q20.8594 4.36523 22.4512 3.19336Q24.043 2.02148 25.2197 0.429688Q26.3965-1.16211 27.0459-3.06641Q27.6953-4.9707 27.6953-7.05078Q27.6953-9.14062 27.0459-11.04Q26.3965-12.9395 25.2197-14.5312Q24.043-16.123 22.4512-17.2998Q20.8594-18.4766 18.9551-19.126Q17.0508-19.7754 14.9609-19.7754Q12.8711-19.7754 10.9717-19.126Q9.07227-18.4766 7.48535-17.2998Q5.89844-16.123 4.72168-14.5312Q3.54492-12.9395 2.90039-11.04Q2.25586-9.14062 2.25586-7.05078Q2.25586-4.9707 2.90527-3.06641Q3.55469-1.16211 4.72656 0.429688Q5.89844 2.02148 7.49023 3.19336Q9.08203 4.36523 10.9814 5.01465Q12.8809 5.66406 14.9707 5.66406ZM14.9707 3.84766Q13.1641 3.84766 11.5283 3.2959Q9.89258 2.74414 8.53516 1.74805Q7.17773 0.751953 6.17676-0.610352Q5.17578-1.97266 4.62891-3.6084Q4.08203-5.24414 4.08203-7.05078Q4.08203-8.86719 4.62891-10.5029Q5.17578-12.1387 6.17188-13.501Q7.16797-14.8633 8.52539-15.8594Q9.88281-16.8555 11.5186-17.4023Q13.1543-17.9492 14.9609-17.9492Q16.7773-17.9492 18.4131-17.4023Q20.0488-16.8555 21.4111-15.8594Q22.7734-14.8633 23.7695-13.501Q24.7656-12.1387 25.3174-10.5029Q25.8691-8.86719 25.8691-7.05078Q25.8789-5.24414 25.332-3.6084Q24.7852-1.97266 23.7842-0.610352Q22.7832 0.751953 21.4209 1.74805Q20.0586 2.74414 18.4229 3.2959Q16.7871 3.84766 14.9707 3.84766ZM9.19922-7.05078Q9.19922-6.66992 9.45801-6.4209Q9.7168-6.17188 10.1172-6.17188L14.0625-6.17188L14.0625-2.2168Q14.0625-1.81641 14.3115-1.55762Q14.5605-1.29883 14.9512-1.29883Q15.3516-1.29883 15.6104-1.55273Q15.8691-1.80664 15.8691-2.2168L15.8691-6.17188L19.8242-6.17188Q20.2246-6.17188 20.4785-6.4209Q20.7324-6.66992 20.7324-7.05078Q20.7324-7.46094 20.4785-7.71484Q20.2246-7.96875 19.8242-7.96875L15.8691-7.96875L15.8691-11.9141Q15.8691-12.3242 15.6104-12.583Q15.3516-12.8418 14.9512-12.8418Q14.5605-12.8418 14.3115-12.583Q14.0625-12.3242 14.0625-11.9141L14.0625-7.96875L10.1172-7.96875Q9.70703-7.96875 9.45312-7.71484Q9.19922-7.46094 9.19922-7.05078Z"/>
  </g>
  <text style="stroke:none;fill:black;font-family:sans-serif;font-size:13;font-weight:bold;" transform="matrix(1 0 0 1 263 1953)">Design Variations</text>
  <text style="stroke:none;fill:black;font-family:sans-serif;font-size:13;" transform="matrix(1 0 0 1 263 1971)">Symbols are supported in up to nine weights and three scales.</text>
  <text style="stroke:none;fill:black;font-family:sans-serif;font-size:13;" transform="matrix(1 0 0 1 263 1989)">For optimal layout with text and other symbols, vertically align</text>
  <text style="stroke:none;fill:black;font-family:sans-serif;font-size:13;" transform="matrix(1 0 0 1 263 2007)">symbols with the adjacent text.</text>
  <line style="fill:none;stroke:#00AEEF;stroke-width:0.5;opacity:1.0;" x1="776" x2="776" y1="1919" y2="1933"/>
  <g transform="matrix(1 0 0 1 776 1933)">
   <path d="M3.31055 0.15625Q3.70117 0.15625 3.91602-0.00976562Q4.13086-0.175781 4.26758-0.585938L5.52734-4.0332L11.2891-4.0332L12.5488-0.585938Q12.6855-0.175781 12.9004-0.00976562Q13.1152 0.15625 13.4961 0.15625Q13.8867 0.15625 14.1162-0.0585938Q14.3457-0.273438 14.3457-0.644531Q14.3457-0.869141 14.2383-1.17188L9.6582-13.3691Q9.48242-13.8184 9.17969-14.043Q8.87695-14.2676 8.4082-14.2676Q7.5-14.2676 7.17773-13.3789L2.59766-1.16211Q2.49023-0.859375 2.49023-0.634766Q2.49023-0.263672 2.70996-0.0537109Q2.92969 0.15625 3.31055 0.15625ZM6.00586-5.51758L8.37891-12.0898L8.42773-12.0898L10.8008-5.51758Z"/>
  </g>
  <line style="fill:none;stroke:#00AEEF;stroke-width:0.5;opacity:1.0;" x1="793.197" x2="793.197" y1="1919" y2="1933"/>
  <text style="stroke:none;fill:black;font-family:sans-serif;font-size:13;font-weight:bold;" transform="matrix(1 0 0 1 776 1953)">Margins</text>
  <text style="stroke:none;fill:black;font-family:sans-serif;font-size:13;" transform="matrix(1 0 0 1 776 1971)">Leading and trailing margins on the left and right side of each symbol</text>
  <text style="stroke:none;fill:black;font-family:sans-serif;font-size:13;" transform="matrix(1 0 0 1 776 1989)">can be adjusted by modifying the x-location of the margin guidelines.</text>
  <text style="stroke:none;fill:black;font-family:sans-serif;font-size:13;" transform="matrix(1 0 0 1 776 2007)">Modifications are automatically applied proportionally to all</text>
  <text style="stroke:none;fill:black;font-family:sans-serif;font-size:13;" transform="matrix(1 0 0 1 776 2025)">scales and weights.</text>
  <g transform="matrix(1 0 0 1 1289 1933)">
   <path d="M2.8418 1.86523L4.54102 3.57422Q5.18555 4.22852 5.90332 4.17969Q6.62109 4.13086 7.31445 3.35938L18.0078-8.42773L17.041-9.4043L6.42578 2.27539Q6.16211 2.57812 5.89355 2.61719Q5.625 2.65625 5.27344 2.30469L4.10156 1.14258Q3.75 0.791016 3.79395 0.522461Q3.83789 0.253906 4.14062-0.0195312L15.6152-10.8203L14.6387-11.7871L3.04688-0.898438Q2.30469-0.214844 2.25098 0.498047Q2.19727 1.21094 2.8418 1.86523ZM9.25781-16.3281Q8.94531-16.0254 8.90625-15.6348Q8.86719-15.2441 9.04297-14.9512Q9.21875-14.6777 9.55566-14.541Q9.89258-14.4043 10.3809-14.5215Q11.4746-14.7754 12.5977-14.7314Q13.7207-14.6875 14.7949-13.9844L14.209-12.5293Q13.9551-11.9043 14.0674-11.4404Q14.1797-10.9766 14.5801-10.5664L16.875-8.25195Q17.2363-7.88086 17.5781-7.82227Q17.9199-7.76367 18.3398-7.8418L19.4043-8.03711L20.0684-7.36328L20.0293-6.80664Q20-6.43555 20.1221-6.12305Q20.2441-5.81055 20.6055-5.44922L21.3672-4.70703Q21.7285-4.3457 22.1533-4.33105Q22.5781-4.31641 22.9297-4.66797L25.8398-7.58789Q26.1914-7.93945 26.1816-8.35449Q26.1719-8.76953 25.8105-9.13086L25.0391-9.89258Q24.6875-10.2539 24.3799-10.3857Q24.0723-10.5176 23.7109-10.4883L23.1348-10.4395L22.4902-11.0742L22.7344-12.1973Q22.832-12.6172 22.6953-12.9834Q22.5586-13.3496 22.1191-13.7891L19.9219-15.9766Q18.6719-17.2168 17.2607-17.8369Q15.8496-18.457 14.4189-18.4814Q12.9883-18.5059 11.665-17.959Q10.3418-17.4121 9.25781-16.3281ZM10.752-15.957Q11.6602-16.6211 12.7002-16.9043Q13.7402-17.1875 14.8047-17.085Q15.8691-16.9824 16.8701-16.5137Q17.8711-16.0449 18.7012-15.2051L21.1328-12.793Q21.3086-12.6172 21.3525-12.4512Q21.3965-12.2852 21.3379-12.0312L21.0156-10.5469L22.5195-9.0625L23.5059-9.12109Q23.6914-9.13086 23.7891-9.09668Q23.8867-9.0625 24.0332-8.91602L24.6094-8.33984L22.168-5.89844L21.5918-6.47461Q21.4453-6.62109 21.4062-6.71875Q21.3672-6.81641 21.377-7.01172L21.4453-7.98828L19.9512-9.47266L18.4277-9.21875Q18.1836-9.16992 18.042-9.2041Q17.9004-9.23828 17.7148-9.41406L15.7129-11.416Q15.5176-11.5918 15.4932-11.7529Q15.4688-11.9141 15.5859-12.1875L16.4648-14.2773Q15.293-15.3711 13.8281-15.791Q12.3633-16.2109 10.8398-15.7617Q10.7227-15.7324 10.6885-15.8057Q10.6543-15.8789 10.752-15.957Z"/>
  </g>
  <text style="stroke:none;fill:black;font-family:sans-serif;font-size:13;font-weight:bold;" transform="matrix(1 0 0 1 1289 1953)">Exporting</text>
  <text style="stroke:none;fill:black;font-family:sans-serif;font-size:13;" transform="matrix(1 0 0 1 1289 1971)">Symbols should be outlined when exporting to ensure the</text>
  <text style="stroke:none;fill:black;font-family:sans-serif;font-size:13;" transform="matrix(1 0 0 1 1289 1989)">design is preserved when submitting to Xcode.</text>
  <text id="template-version" style="stroke:none;fill:black;font-family:sans-serif;font-size:13;text-anchor:end;" transform="matrix(1 0 0 1 3036 1933)">Template v.3.0</text>
  <text style="stroke:none;fill:black;font-family:sans-serif;font-size:13;text-anchor:end;" transform="matrix(1 0 0 1 3036 1951)">Requires Xcode 13 or greater</text>
  <text id="descriptive-name" style="stroke:none;fill:black;font-family:sans-serif;font-size:13;text-anchor:end;" transform="matrix(1 0 0 1 3036 1969)">Generated from paperclip</text>
  <text style="stroke:none;fill:black;font-family:sans-serif;font-size:13;text-anchor:end;" transform="matrix(1 0 0 1 3036 1987)">Typeset at 100 points</text>
  <text style="stroke:none;fill:black;font-family:sans-serif;font-size:13;" transform="matrix(1 0 0 1 263 726)">Small</text>
  <text style="stroke:none;fill:black;font-family:sans-serif;font-size:13;" transform="matrix(1 0 0 1 263 1156)">Medium</text>
  <text style="stroke:none;fill:black;font-family:sans-serif;font-size:13;" transform="matrix(1 0 0 1 263 1586)">Large</text>
 </g>
 <g id="Guides">
  <g id="H-reference" style="fill:#27AAE1;stroke:none;" transform="matrix(1 0 0 1 339 696)">
   <path d="M0.976562 0L3.66211 0L29.3457-67.1387L30.0293-67.1387L30.0293-70.459L28.125-70.459ZM11.6699-24.4629L46.9727-24.4629L46.2402-26.709L12.4512-26.709ZM55.127 0L57.7637 0L30.6152-70.459L29.4434-70.459L29.4434-67.1387Z"/>
  </g>
  <line id="Baseline-S" style="fill:none;stroke:#27AAE1;opacity:1;stroke-width:0.5;" x1="263" x2="3036" y1="696" y2="696"/>
  <line id="Capline-S" style="fill:none;stroke:#27AAE1;opacity:1;stroke-width:0.5;" x1="263" x2="3036" y1="625.541" y2="625.541"/>
  <g id="H-reference" style="fill:#27AAE1;stroke:none;" transform="matrix(1 0 0 1 339 1126)">
   <path d="M0.976562 0L3.66211 0L29.3457-67.1387L30.0293-67.1387L30.0293-70.459L28.125-70.459ZM11.6699-24.4629L46.9727-24.4629L46.2402-26.709L12.4512-26.709ZM55.127 0L57.7637 0L30.6152-70.459L29.4434-70.459L29.4434-67.1387Z"/>
  </g>
  <line id="Baseline-M" style="fill:none;stroke:#27AAE1;opacity:1;stroke-width:0.5;" x1="263" x2="3036" y1="1126" y2="1126"/>
  <line id="Capline-M" style="fill:none;stroke:#27AAE1;opacity:1;stroke-width:0.5;" x1="263" x2="3036" y1="1055.54" y2="1055.54"/>
  <g id="H-reference" style="fill:#27AAE1;stroke:none;" transform="matrix(1 0 0 1 339 1556)">
   <path d="M0.976562 0L3.66211 0L29.3457-67.1387L30.0293-67.1387L30.0293-70.459L28.125-70.459ZM11.6699-24.4629L46.9727-24.4629L46.2402-26.709L12.4512-26.709ZM55.127 0L57.7637 0L30.6152-70.459L29.4434-70.459L29.4434-67.1387Z"/>
  </g>
  <line id="Baseline-L" style="fill:none;stroke:#27AAE1;opacity:1;stroke-width:0.5;" x1="263" x2="3036" y1="1556" y2="1556"/>
  <line id="Capline-L" style="fill:none;stroke:#27AAE1;opacity:1;stroke-width:0.5;" x1="263" x2="3036" y1="1485.54" y2="1485.54"/>
  <line id="left-margin-Regular-M" style="fill:none;stroke:#00AEEF;stroke-width:0.5;opacity:1.0;" x1="1392.79" x2="1392.79" y1="1030.78" y2="1150.12"/>
  <line id="right-margin-Regular-M" style="fill:none;stroke:#00AEEF;stroke-width:0.5;opacity:1.0;" x1="1506.9" x2="1506.9" y1="1030.78" y2="1150.12"/>
 </g>
 <g id="Symbols">
  <g id="Black-L" transform="matrix(1 0 0 1 2860.85 1556)">
   <path d="M94.89-102.69C102.81-102.69 110.41-99.54 116.02-93.93C121.61-88.33 124.75-80.74 124.75-72.82C124.75-65.08 121.74-57.63 116.35-52.06L116.01-51.71L63.68 0.56C60.22 4.02 55.51 5.97 50.61 5.97C45.71 5.97 41.02 4.03 37.54 0.56C34.08-2.9 32.13-7.61 32.13-12.51C32.13-17.26 33.96-21.82 37.24-25.27L37.54-25.58L85.83-73.81C88.61-76.59 93.1-76.58 95.87-73.81C98.58-71.1 98.64-66.74 96.05-63.96L95.87-63.77L47.59-15.55C46.78-14.74 46.33-13.65 46.33-12.51C46.33-11.37 46.78-10.28 47.57-9.49C48.38-8.68 49.47-8.23 50.61-8.23C51.67-8.23 52.69-8.62 53.47-9.32L53.64-9.48L105.96-61.74C108.9-64.69 110.55-68.67 110.55-72.82C110.55-76.98 108.9-80.96 105.97-83.9C103.03-86.84 99.05-88.49 94.89-88.49C90.87-88.49 87.01-86.94 84.1-84.18L83.81-83.9L31.55-31.63C26.48-26.57 23.63-19.69 23.63-12.51C23.63-5.33 26.48 1.54 31.55 6.62C36.62 11.69 43.5 14.54 50.67 14.54C57.68 14.54 64.42 11.81 69.45 6.95L69.79 6.62L122.06-45.65C124.83-48.42 129.33-48.42 132.1-45.65C134.81-42.94 134.87-38.59 132.29-35.8L132.1-35.61L79.83 16.66C72.1 24.39 61.6 28.74 50.67 28.74C39.73 28.74 29.24 24.39 21.51 16.66C13.77 8.92 9.43-1.56 9.43-12.51C9.43-23.26 13.63-33.59 21.11-41.27L21.51-41.67L73.77-93.94C79.37-99.54 86.97-102.69 94.89-102.69Z"/>
  </g>
  <g id="Heavy-L" transform="matrix(1 0 0 1 2564.98 1556)">
   <path d="M94.05-101.84C101.74-101.84 109.12-98.78 114.56-93.34C120-87.9 123.06-80.52 123.06-72.82C123.06-65.3 120.13-58.07 114.9-52.66L114.56-52.31L62.23-0.03C58.92 3.27 54.44 5.12 49.77 5.12C45.1 5.12 40.62 3.27 37.3-0.04C34-3.34 32.14-7.83 32.14-12.51C32.14-17.04 33.88-21.39 37.01-24.68L37.3-24.98L85.59-73.21C88.04-75.65 91.99-75.65 94.43-73.21C96.81-70.83 96.87-67 94.61-64.55L94.43-64.37L46.15-16.15C45.18-15.18 44.64-13.87 44.64-12.51C44.64-11.15 45.18-9.84 46.13-8.89C47.1-7.92 48.41-7.38 49.77-7.38C51.05-7.38 52.27-7.86 53.22-8.71L53.4-8.88L105.72-61.15C108.82-64.25 110.56-68.45 110.56-72.82C110.56-77.2 108.82-81.4 105.72-84.5C102.62-87.6 98.42-89.34 94.05-89.34C89.81-89.34 85.73-87.71 82.66-84.79L82.37-84.5L30.1-32.23C24.87-27 21.93-19.9 21.93-12.51C21.93-5.11 24.87 1.98 30.1 7.22C35.34 12.45 42.43 15.39 49.83 15.39C57.06 15.39 64.01 12.58 69.21 7.56L69.55 7.22L121.82-45.05C124.26-47.49 128.22-47.49 130.66-45.05C133.04-42.67 133.1-38.85 130.84-36.4L130.66-36.21L78.39 16.06C70.82 23.63 60.54 27.89 49.83 27.89C39.12 27.89 28.85 23.64 21.26 16.06C13.68 8.47 9.43-1.8 9.43-12.51C9.43-23.03 13.54-33.14 20.87-40.67L21.26-41.07L73.53-93.34C78.97-98.78 86.35-101.84 94.05-101.84Z"/>
  </g>
  <g id="Bold-L" transform="matrix(1 0 0 1 2269.22 1556)">
   <path d="M93.09-100.89C100.54-100.89 107.67-97.93 112.94-92.67C118.2-87.4 121.16-80.27 121.16-72.82C121.16-65.55 118.33-58.56 113.28-53.33L112.94-52.98L60.61-0.71C57.48 2.41 53.24 4.17 48.82 4.17C44.4 4.17 40.15 2.41 37.03-0.7C33.9-3.83 32.14-8.08 32.14-12.51C32.14-16.8 33.78-20.91 36.74-24.01L37.03-24.31L85.32-72.54C87.39-74.61 90.74-74.61 92.81-72.54C94.82-70.52 94.88-67.3 92.98-65.22L92.81-65.04L44.52-16.81C43.38-15.67 42.74-14.13 42.74-12.51C42.74-10.89 43.38-9.34 44.52-8.21C45.65-7.07 47.21-6.43 48.82-6.43C50.33-6.43 51.79-7 52.91-8.01L53.12-8.21L105.44-60.48C108.72-63.75 110.56-68.2 110.56-72.82C110.56-77.45 108.72-81.9 105.44-85.17C102.17-88.45 97.72-90.29 93.09-90.29C88.61-90.29 84.29-88.56 81.05-85.47L80.75-85.17L28.48-32.9C23.07-27.5 20.03-20.15 20.03-12.51C20.03-4.86 23.07 2.47 28.48 7.89C33.88 13.3 41.23 16.34 48.87 16.34C56.36 16.34 63.54 13.43 68.92 8.23L69.27 7.89L121.53-44.38C123.6-46.45 126.96-46.45 129.03-44.38C131.04-42.37 131.1-39.14 129.2-37.06L129.03-36.88L76.77 15.39C69.36 22.79 59.33 26.94 48.87 26.94C38.41 26.94 28.38 22.78 20.98 15.38C13.58 7.98 9.43-2.05 9.43-12.51C9.43-22.78 13.44-32.65 20.6-40.01L20.98-40.4L73.25-92.67C78.52-97.93 85.65-100.89 93.09-100.89Z"/>
  </g>
  <g id="Semibold-L" transform="matrix(1 0 0 1 1973.16 1556)">
   <path d="M92.45-100.24C99.73-100.24 106.7-97.35 111.83-92.21C116.97-87.07 119.86-80.09 119.86-72.82C119.86-65.72 117.1-58.89 112.17-53.79L111.83-53.44L59.51-1.17C56.51 1.83 52.42 3.52 48.17 3.52C43.92 3.52 39.85 1.83 36.83-1.17C33.83-4.17 32.14-8.26 32.14-12.51C32.14-16.62 33.72-20.56 36.55-23.55L36.83-23.85L85.12-72.08C86.94-73.9 89.89-73.89 91.7-72.08C93.46-70.32 93.51-67.5 91.86-65.67L91.7-65.5L43.42-17.28C42.15-16.01 41.44-14.29 41.44-12.51C41.44-10.72 42.15-9.01 43.4-7.76C44.67-6.49 46.39-5.78 48.17-5.78C49.86-5.78 51.48-6.41 52.72-7.55L52.93-7.75L105.25-60.02C108.65-63.42 110.56-68.02 110.56-72.82C110.56-77.63 108.65-82.23 105.25-85.64C101.86-89.03 97.26-90.94 92.45-90.94C87.79-90.94 83.32-89.15 79.95-85.94L79.64-85.63L27.38-33.36C21.84-27.83 18.73-20.33 18.73-12.51C18.73-4.69 21.84 2.81 27.38 8.35C32.91 13.88 40.41 16.99 48.23 16.99C55.88 16.99 63.24 14.01 68.73 8.69L69.08 8.35L121.35-43.92C123.17-45.73 126.11-45.73 127.93-43.92C129.69-42.16 129.74-39.34 128.09-37.52L127.93-37.34L75.66 14.93C68.39 22.2 58.51 26.29 48.23 26.29C37.94 26.29 28.08 22.2 20.8 14.93C13.52 7.64 9.43-2.22 9.43-12.51C9.43-22.61 13.38-32.32 20.42-39.55L20.8-39.94L73.06-92.21C78.21-97.35 85.18-100.24 92.45-100.24Z"/>
  </g>
  <g id="Medium-L" transform="matrix(1 0 0 1 1676.95 1556)">
   <path d="M91.95-99.74C99.09-99.74 105.94-96.9 110.97-91.85C116.02-86.81 118.86-79.96 118.86-72.82C118.86-65.85 116.15-59.15 111.31-54.13L110.97-53.79L58.65-1.53C55.75 1.38 51.79 3.02 47.67 3.02C43.56 3.02 39.61 1.39 36.69-1.53C33.78-4.43 32.14-8.39 32.14-12.51C32.14-16.49 33.67-20.31 36.41-23.21L36.69-23.5L84.98-71.73C86.6-73.35 89.23-73.34 90.85-71.72C92.41-70.16 92.46-67.65 91-66.02L90.84-65.85L42.56-17.63C41.2-16.27 40.44-14.43 40.44-12.51C40.44-10.59 41.2-8.75 42.55-7.4C43.91-6.04 45.75-5.28 47.67-5.28C49.49-5.28 51.24-5.97 52.57-7.19L52.79-7.4L105.11-59.66C108.6-63.16 110.56-67.89 110.56-72.82C110.56-77.76 108.6-82.49 105.1-85.99C101.62-89.48 96.89-91.44 91.95-91.44C87.16-91.44 82.56-89.59 79.1-86.29L78.79-85.99L26.52-33.71C20.89-28.09 17.73-20.46 17.73-12.51C17.73-4.55 20.89 3.07 26.52 8.71C32.15 14.33 39.78 17.49 47.73 17.49C55.51 17.49 63 14.46 68.58 9.05L68.94 8.71L121.21-43.56C122.83-45.19 125.45-45.19 127.07-43.56C128.64-42 128.69-39.49 127.23-37.86L127.07-37.7L74.8 14.57C67.63 21.75 57.88 25.79 47.73 25.79C37.57 25.79 27.84 21.76 20.66 14.57C13.47 7.38 9.43-2.35 9.43-12.51C9.43-22.48 13.33-32.06 20.27-39.2L20.66-39.58L72.92-91.85C77.96-96.9 84.81-99.74 91.95-99.74Z"/>
  </g>
  <g id="Regular-L" transform="matrix(1 0 0 1 1380.88 1556)">
   <path d="M91.3-99.09C98.27-99.09 104.95-96.32 109.86-91.39C114.79-86.47 117.56-79.79 117.56-72.82C117.56-66.02 114.92-59.48 110.2-54.59L109.86-54.25L57.54-1.98C54.76 0.8 50.97 2.37 47.02 2.37C43.08 2.37 39.3 0.81 36.5-1.98C33.71-4.77 32.14-8.56 32.14-12.51C32.14-16.32 33.6-19.98 36.22-22.75L36.5-23.04L84.79-71.27C86.15-72.63 88.37-72.63 89.74-71.26C91.05-69.94 91.1-67.84 89.87-66.46L89.73-66.31L41.45-18.09C39.97-16.6 39.14-14.6 39.14-12.51C39.14-10.42 39.97-8.41 41.44-6.94C42.93-5.46 44.93-4.63 47.02-4.63C49.01-4.63 50.92-5.38 52.37-6.72L52.6-6.94L104.92-59.2C108.53-62.82 110.56-67.72 110.56-72.82C110.56-77.93 108.53-82.83 104.91-86.45C101.31-90.06 96.41-92.09 91.3-92.09C86.34-92.09 81.57-90.17 77.99-86.75L77.67-86.45L25.41-34.17C19.66-28.43 16.43-20.63 16.43-12.51C16.43-4.38 19.66 3.41 25.41 9.17C31.16 14.91 38.95 18.14 47.08 18.14C55.04 18.14 62.68 15.04 68.39 9.51L68.75 9.17L121.02-43.1C122.38-44.47 124.6-44.47 125.96-43.1C127.28-41.79 127.33-39.68 126.11-38.3L125.96-38.15L73.69 14.12C66.64 21.17 57.06 25.14 47.08 25.14C37.1 25.14 27.52 21.17 20.47 14.12C13.4 7.05 9.43-2.52 9.43-12.51C9.43-22.31 13.26-31.72 20.08-38.74L20.46-39.12L72.73-91.39C77.65-96.32 84.33-99.09 91.3-99.09Z"/>
  </g>
  <g id="Light-L" transform="matrix(1 0 0 1 1084.97 1556)">
   <path d="M90.5-98.29C97.26-98.29 103.73-95.6 108.5-90.83C113.28-86.05 115.96-79.58 115.96-72.82C115.96-66.23 113.4-59.89 108.82-55.15L108.5-54.82L56.18-2.55C53.54 0.09 49.96 1.57 46.22 1.57C42.49 1.57 38.91 0.09 36.26-2.55C33.62-5.19 32.14-8.77 32.14-12.51C32.14-16.11 33.52-19.57 35.99-22.19L36.26-22.47L84.55-70.7C85.61-71.75 87.32-71.75 88.37-70.7C89.38-69.69 89.42-68.07 88.49-67.01L88.37-66.88L40.08-18.66C38.45-17.02 37.54-14.81 37.54-12.51C37.54-10.21 38.46-7.99 40.07-6.37C41.71-4.74 43.92-3.83 46.22-3.83C48.42-3.83 50.54-4.66 52.14-6.15L52.36-6.37L104.68-58.64C108.44-62.4 110.56-67.51 110.56-72.82C110.56-78.14 108.45-83.25 104.68-87.01C100.93-90.78 95.82-92.89 90.5-92.89C85.32-92.89 80.36-90.89 76.63-87.32L76.31-87.01L24.05-34.74C18.15-28.85 14.83-20.85 14.83-12.51C14.83-4.17 18.14 3.83 24.05 9.73C29.95 15.63 37.94 18.94 46.28 18.94C54.45 18.94 62.3 15.76 68.15 10.08L68.51 9.73L120.78-42.54C121.83-43.59 123.54-43.59 124.6-42.54C125.61-41.53 125.65-39.92 124.73-38.86L124.6-38.72L72.33 13.55C65.42 20.46 56.05 24.34 46.28 24.34C36.51 24.34 27.14 20.46 20.23 13.55C13.31 6.63 9.43-2.74 9.43-12.51C9.43-22.1 13.18-31.32 19.86-38.18L20.23-38.56L72.49-90.83C77.27-95.61 83.74-98.29 90.5-98.29Z"/>
  </g>
  <g id="Thin-L" transform="matrix(1 0 0 1 789.315 1556)">
   <path d="M89.444-97.24C95.918-97.24 102.128-94.67 106.707-90.09C111.286-85.51 113.857-79.3 113.857-72.82C113.857-66.51 111.406-60.44 107.03-55.89L106.706-55.56L54.381-3.29C51.935-0.85 48.621 0.52 45.167 0.52C41.713 0.52 38.398-0.85 35.954-3.29C33.51-5.73 32.136-9.05 32.136-12.51C32.136-15.84 33.411-19.04 35.695-21.46L35.953-21.73L84.24-69.96C84.885-70.6 85.93-70.6 86.574-69.96C87.18-69.35 87.215-68.39 86.679-67.74L86.572-67.62L38.288-19.4C36.46-17.56 35.436-15.09 35.436-12.51C35.436-9.93 36.462-7.45 38.285-5.63C40.111-3.81 42.587-2.78 45.167-2.78C47.639-2.78 50.016-3.72 51.818-5.4L52.049-5.63L104.373-57.9C108.332-61.86 110.557-67.23 110.557-72.82C110.557-78.42 108.333-83.79 104.373-87.75C100.413-91.71 95.043-93.94 89.444-93.94C83.997-93.94 78.766-91.83 74.839-88.07L74.515-87.75L22.247-35.48C16.155-29.39 12.73-21.13 12.73-12.51C12.73-3.89 16.152 4.37 22.247 10.47C28.343 16.57 36.609 19.99 45.224 19.99C53.67 19.99 61.781 16.7 67.84 10.83L68.201 10.47L120.469-41.8C121.113-42.44 122.158-42.44 122.802-41.8C123.409-41.19 123.444-40.23 122.909-39.58L122.802-39.46L70.534 12.81C63.82 19.52 54.715 23.29 45.224 23.29C35.734 23.29 26.629 19.52 19.913 12.81C13.199 6.08 9.43-3.02 9.43-12.51C9.43-21.82 13.065-30.77 19.544-37.44L19.914-37.82L72.181-90.09C76.76-94.67 82.97-97.24 89.444-97.24Z"/>
  </g>
  <g id="Ultralight-L" transform="matrix(1 0 0 1 493.154 1556)">
   <path d="M88.894-96.69C95.222-96.69 101.292-94.17 105.768-89.7C110.244-85.22 112.757-79.15 112.757-72.82C112.757-66.65 110.361-60.72 106.084-56.27L105.768-55.95L53.442-3.68C51.1-1.34 47.925-0.03 44.617-0.03C41.309-0.03 38.134-1.34 35.792-3.68C33.452-6.02 32.136-9.2 32.136-12.51C32.136-15.7 33.357-18.76 35.545-21.08L35.792-21.34L84.079-69.57C84.509-70 85.205-70 85.634-69.57C86.033-69.17 86.061-68.54 85.719-68.11L85.634-68.01L37.348-19.78C35.418-17.85 34.336-15.24 34.336-12.51C34.336-9.78 35.42-7.16 37.346-5.24C39.275-3.31 41.892-2.23 44.617-2.23C47.228-2.23 49.74-3.23 51.643-5L51.888-5.24L104.212-57.51C108.274-61.57 110.557-67.08 110.557-72.82C110.557-78.57 108.275-84.08 104.212-88.14C100.149-92.21 94.639-94.49 88.894-94.49C83.301-94.49 77.929-92.33 73.9-88.46L73.576-88.14L21.308-35.87C15.113-29.68 11.63-21.27 11.63-12.51C11.63-3.74 15.11 4.66 21.308 10.86C27.508 17.06 35.913 20.54 44.674 20.54C53.263 20.54 61.511 17.19 67.672 11.22L68.039 10.86L120.307-41.41C120.737-41.84 121.433-41.84 121.863-41.41C122.262-41.01 122.29-40.38 121.948-39.95L121.863-39.85L69.595 12.42C62.984 19.03 54.018 22.74 44.674 22.74C35.329 22.74 26.365 19.03 19.752 12.42C13.141 5.8 9.43-3.16 9.43-12.51C9.43-21.68 13.009-30.49 19.388-37.06L19.752-37.43L72.02-89.7C76.496-94.17 82.566-96.69 88.894-96.69Z"/>
  </g>
  <g id="Black-M" transform="matrix(1 0 0 1 2872.75 1126)">
   <path d="M78.01-89.69C84.63-89.69 90.98-87.06 95.66-82.38C100.34-77.7 102.97-71.35 102.97-64.73C102.97-58.26 100.46-52.06 95.98-47.41L95.66-47.08L54.61-6.07C51.6-3.06 47.52-1.37 43.27-1.37C39.01-1.37 34.93-3.06 31.95-6.06C28.93-9.06 27.24-13.14 27.24-17.4C27.24-21.52 28.82-25.47 31.66-28.45L31.94-28.74L69.82-66.58C72.6-69.35 77.09-69.35 79.86-66.58C82.57-63.87 82.63-59.51 80.04-56.73L79.86-56.54L41.98-18.7C41.63-18.35 41.44-17.89 41.44-17.4C41.44-16.92 41.63-16.46 42-16.1C42.33-15.76 42.79-15.57 43.27-15.57C43.7-15.57 44.12-15.72 44.45-16L44.57-16.11L85.62-57.12C87.64-59.14 88.77-61.87 88.77-64.73C88.77-67.58 87.64-70.32 85.62-72.34C83.6-74.36 80.87-75.49 78.01-75.49C75.27-75.49 72.64-74.44 70.65-72.58L70.4-72.34L29.4-31.33C25.7-27.63 23.63-22.63 23.63-17.4C23.63-12.18 25.7-7.17 29.39-3.48C33.09 0.22 38.09 2.29 43.32 2.29C48.39 2.29 53.27 0.33 56.92-3.17L57.24-3.48L98.25-44.49C101.02-47.26 105.52-47.26 108.29-44.49C111-41.78 111.06-37.43 108.48-34.64L108.29-34.45L67.29 6.56C60.94 12.92 52.31 16.49 43.32 16.49C34.33 16.49 25.71 12.92 19.35 6.56C13 0.21 9.43-8.42 9.43-17.4C9.43-26.22 12.86-34.67 18.99-41L19.35-41.37L60.36-82.38C65.04-87.06 71.39-89.69 78.01-89.69Z"/>
  </g>
  <g id="Heavy-M" transform="matrix(1 0 0 1 2576.89 1126)">
   <path d="M77.16-88.84C83.56-88.84 89.69-86.3 94.21-81.78C98.73-77.26 101.27-71.12 101.27-64.73C101.27-58.48 98.85-52.49 94.53-48L94.21-47.68L53.16-6.67C50.31-3.82 46.45-2.22 42.42-2.22C38.39-2.22 34.52-3.82 31.7-6.66C28.84-9.5 27.24-13.37 27.24-17.4C27.24-21.29 28.73-25.03 31.41-27.85L31.69-28.14L69.57-65.98C72.02-68.42 75.97-68.42 78.41-65.98C80.79-63.6 80.85-59.77 78.59-57.32L78.41-57.14L40.53-19.3C40.02-18.79 39.74-18.11 39.74-17.4C39.74-16.69 40.02-16.02 40.54-15.5C41.04-15 41.71-14.72 42.42-14.72C43.07-14.72 43.69-14.95 44.18-15.38L44.32-15.51L85.37-56.52C87.55-58.7 88.77-61.65 88.77-64.73C88.77-67.81 87.55-70.77 85.37-72.94C83.19-75.12 80.24-76.34 77.16-76.34C74.2-76.34 71.35-75.21 69.2-73.19L68.95-72.94L27.94-31.93C24.09-28.07 21.93-22.85 21.93-17.4C21.93-11.95 24.09-6.72 27.94-2.88C31.8 0.98 37.02 3.14 42.47 3.14C47.77 3.14 52.85 1.09 56.67-2.56L56.99-2.88L98-43.89C100.44-46.33 104.4-46.33 106.84-43.89C109.22-41.51 109.28-37.69 107.02-35.24L106.84-35.05L65.83 5.96C59.65 12.16 51.23 15.64 42.47 15.64C33.7 15.64 25.3 12.16 19.1 5.96C12.91-0.23 9.43-8.64 9.43-17.4C9.43-25.99 12.77-34.23 18.74-40.4L19.1-40.77L60.11-81.78C64.63-86.3 70.77-88.84 77.16-88.84Z"/>
  </g>
  <g id="Bold-M" transform="matrix(1 0 0 1 2281.13 1126)">
   <path d="M76.21-87.89C82.36-87.89 88.24-85.45 92.59-81.11C96.93-76.77 99.37-70.87 99.37-64.73C99.37-58.74 97.05-52.99 92.91-48.68L92.59-48.35L51.54-7.34C48.87-4.67 45.25-3.17 41.47-3.17C37.69-3.17 34.07-4.67 31.42-7.33C28.74-10 27.24-13.62 27.24-17.4C27.24-21.05 28.64-24.55 31.14-27.19L31.41-27.47L69.29-65.31C71.37-67.38 74.72-67.38 76.79-65.31C78.8-63.29 78.86-60.07 76.96-57.99L76.79-57.81L38.91-19.97C38.22-19.29 37.84-18.37 37.84-17.4C37.84-16.44 38.22-15.52 38.92-14.83C39.59-14.15 40.51-13.77 41.47-13.77C42.36-13.77 43.22-14.1 43.88-14.69L44.04-14.84L85.09-55.85C87.45-58.2 88.77-61.4 88.77-64.73C88.77-68.06 87.45-71.26 85.09-73.61C82.74-75.97 79.55-77.29 76.21-77.29C73-77.29 69.91-76.06 67.58-73.86L67.33-73.61L26.32-32.61C22.29-28.57 20.03-23.1 20.03-17.4C20.03-11.7 22.29-6.23 26.32-2.21C30.35 1.83 35.82 4.09 41.52 4.09C47.07 4.09 52.4 1.94 56.39-1.89L56.71-2.21L97.72-43.22C99.79-45.29 103.15-45.29 105.22-43.22C107.23-41.21 107.29-37.98 105.39-35.9L105.22-35.72L64.21 5.28C58.2 11.31 50.03 14.69 41.52 14.69C33 14.69 24.85 11.31 18.82 5.29C12.81-0.73 9.43-8.89 9.43-17.4C9.43-25.74 12.67-33.74 18.47-39.73L18.82-40.1L59.83-81.11C64.17-85.45 70.07-87.89 76.21-87.89Z"/>
  </g>
  <g id="Semibold-M" transform="matrix(1 0 0 1 1985.06 1126)">
   <path d="M75.57-87.24C81.54-87.24 87.27-84.87 91.49-80.65C95.71-76.43 98.08-70.7 98.08-64.73C98.08-58.91 95.83-53.33 91.81-49.14L91.49-48.81L50.44-7.81C47.9-5.25 44.44-3.82 40.83-3.82C37.23-3.82 33.77-5.25 31.22-7.8C28.68-10.35 27.25-13.8 27.25-17.4C27.25-20.87 28.58-24.21 30.96-26.74L31.22-27.01L69.11-64.85C70.93-66.67 73.88-66.66 75.69-64.85C77.45-63.09 77.5-60.27 75.85-58.44L75.69-58.27L37.81-20.44C37-19.63 36.55-18.54 36.55-17.4C36.55-16.26 37-15.18 37.8-14.38C38.61-13.57 39.69-13.12 40.83-13.12C41.89-13.12 42.89-13.51 43.68-14.21L43.85-14.38L84.91-55.39C87.39-57.87 88.78-61.22 88.78-64.73C88.78-68.23 87.39-71.6 84.91-74.07C82.43-76.55 79.08-77.94 75.57-77.94C72.19-77.94 68.95-76.65 66.5-74.33L66.23-74.07L25.22-33.07C21.07-28.9 18.73-23.27 18.73-17.4C18.73-11.54 21.07-5.9 25.22-1.75C29.36 2.41 35 4.74 40.87 4.74C46.6 4.74 52.09 2.53 56.21-1.43L56.53-1.75L97.54-42.76C99.36-44.57 102.3-44.57 104.12-42.76C105.88-41 105.93-38.18 104.28-36.36L104.12-36.18L63.11 4.83C57.21 10.73 49.21 14.04 40.87 14.04C32.53 14.04 24.53 10.73 18.64 4.83C12.75-1.07 9.43-9.07 9.43-17.4C9.43-25.57 12.61-33.41 18.29-39.28L18.64-39.64L59.65-80.65C63.87-84.87 69.6-87.24 75.57-87.24Z"/>
  </g>
  <g id="Medium-M" transform="matrix(1 0 0 1 1688.85 1126)">
   <path d="M75.07-86.74C80.91-86.74 86.51-84.42 90.63-80.29C94.76-76.17 97.08-70.56 97.08-64.73C97.08-59.04 94.88-53.58 90.95-49.48L90.63-49.16L49.58-8.16C47.14-5.7 43.81-4.32 40.33-4.32C36.86-4.32 33.53-5.7 31.08-8.16C28.63-10.61 27.25-13.93 27.25-17.4C27.25-20.74 28.53-23.95 30.82-26.39L31.08-26.66L68.97-64.5C70.59-66.12 73.22-66.11 74.84-64.49C76.4-62.93 76.45-60.42 74.99-58.79L74.83-58.62L36.95-20.79C36.05-19.89 35.55-18.67 35.55-17.4C35.55-16.13 36.05-14.92 36.94-14.02C37.85-13.12 39.06-12.62 40.33-12.62C41.51-12.62 42.65-13.06 43.52-13.85L43.71-14.03L84.77-55.03C87.34-57.61 88.78-61.09 88.78-64.73C88.78-68.36 87.33-71.86 84.77-74.43C82.19-77 78.71-78.44 75.07-78.44C71.56-78.44 68.19-77.1 65.64-74.69L65.37-74.43L24.37-33.42C20.12-29.16 17.73-23.4 17.73-17.4C17.73-11.4 20.12-5.64 24.37-1.39C28.6 2.85 34.37 5.24 40.37 5.24C46.23 5.24 51.85 2.97 56.06-1.08L56.39-1.39L97.4-42.4C99.02-44.03 101.64-44.03 103.26-42.4C104.83-40.84 104.88-38.33 103.42-36.7L103.26-36.54L62.25 4.47C56.45 10.28 48.58 13.54 40.37 13.54C32.16 13.54 24.29 10.28 18.5 4.47C12.7-1.33 9.43-9.2 9.43-17.4C9.43-25.44 12.56-33.15 18.14-38.93L18.5-39.28L59.51-80.29C63.63-84.42 69.23-86.74 75.07-86.74Z"/>
  </g>
  <g id="Regular-M" transform="matrix(1 0 0 1 1392.79 1126)">
   <path d="M74.42-86.09C80.09-86.09 85.52-83.84 89.52-79.83C93.53-75.83 95.78-70.39 95.78-64.73C95.78-59.21 93.65-53.92 89.84-49.94L89.52-49.62L48.47-8.62C46.15-6.28 42.98-4.97 39.68-4.97C36.38-4.97 33.22-6.28 30.89-8.61C28.56-10.94 27.25-14.1 27.25-17.4C27.25-20.58 28.46-23.62 30.64-25.94L30.89-26.2L68.78-64.04C70.14-65.4 72.36-65.4 73.73-64.03C75.04-62.71 75.09-60.61 73.86-59.23L73.72-59.08L35.84-21.25C34.82-20.23 34.25-18.84 34.25-17.4C34.25-15.96 34.82-14.58 35.83-13.56C36.86-12.54 38.24-11.97 39.68-11.97C41.03-11.97 42.32-12.47 43.32-13.38L43.52-13.57L84.58-54.57C87.27-57.27 88.78-60.92 88.78-64.73C88.78-68.54 87.27-72.19 84.58-74.88C81.88-77.58 78.23-79.09 74.42-79.09C70.74-79.09 67.21-77.68 64.55-75.16L64.26-74.88L23.26-33.88C18.89-29.5 16.43-23.57 16.43-17.4C16.43-11.23 18.89-5.3 23.26-0.93C27.62 3.44 33.54 5.89 39.72 5.89C45.75 5.89 51.53 3.56 55.87-0.62L56.2-0.93L97.21-41.94C98.57-43.31 100.79-43.31 102.15-41.94C103.47-40.63 103.52-38.52 102.3-37.14L102.15-36.99L61.14 4.02C55.46 9.7 47.76 12.89 39.72 12.89C31.69 12.89 23.98 9.7 18.31 4.02C12.63-1.66 9.43-9.37 9.43-17.4C9.43-25.26 12.49-32.81 17.95-38.47L18.31-38.82L59.32-79.83C63.32-83.84 68.75-86.09 74.42-86.09Z"/>
  </g>
  <g id="Light-M" transform="matrix(1 0 0 1 1096.88 1126)">
   <path d="M73.62-85.29C79.08-85.29 84.3-83.13 88.16-79.27C92.01-75.42 94.18-70.18 94.18-64.73C94.18-59.43 92.13-54.34 88.48-50.51L88.16-50.19L47.1-9.19C44.93-7 41.97-5.77 38.88-5.77C35.79-5.77 32.84-7 30.65-9.18C28.47-11.36 27.25-14.32 27.25-17.4C27.25-20.36 28.38-23.21 30.4-25.37L30.65-25.63L68.54-63.47C69.6-64.52 71.31-64.52 72.36-63.47C73.37-62.46 73.41-60.84 72.48-59.78L72.36-59.65L34.47-21.82C33.31-20.64 32.65-19.05 32.65-17.4C32.65-15.75 33.3-14.16 34.47-13C35.64-11.83 37.23-11.17 38.88-11.17C40.44-11.17 41.93-11.75 43.07-12.8L43.28-13L84.34-54.01C87.18-56.85 88.78-60.71 88.78-64.73C88.78-68.75 87.18-72.61 84.34-75.45C81.5-78.29 77.64-79.89 73.62-79.89C69.73-79.89 66-78.4 63.19-75.73L62.9-75.45L21.89-34.44C17.37-29.91 14.83-23.79 14.83-17.4C14.83-11.02 17.37-4.89 21.89-0.37C26.4 4.15 32.53 6.69 38.92 6.69C45.16 6.69 51.15 4.27 55.63-0.05L55.96-0.37L96.97-41.38C98.02-42.43 99.73-42.43 100.79-41.38C101.8-40.37 101.84-38.76 100.92-37.7L100.79-37.56L59.78 3.45C54.24 8.98 46.75 12.09 38.92 12.09C31.1 12.09 23.59 8.98 18.07 3.45C12.54-2.08 9.43-9.59 9.43-17.4C9.43-25.05 12.41-32.4 17.72-37.9L18.07-38.26L59.08-79.27C62.94-83.13 68.16-85.29 73.62-85.29Z"/>
  </g>
  <g id="Thin-M" transform="matrix(1 0 0 1 801.221 1126)">
   <path d="M72.566-84.24C77.741-84.24 82.703-82.19 86.362-78.53C90.019-74.87 92.076-69.9 92.076-64.73C92.076-59.7 90.137-54.88 86.671-51.25L86.361-50.93L45.309-9.93C43.326-7.94 40.634-6.82 37.825-6.82C35.017-6.82 32.325-7.94 30.346-9.92C28.361-11.9 27.245-14.59 27.245-17.4C27.245-20.09 28.272-22.68 30.111-24.65L30.345-24.89L68.231-62.73C68.876-63.37 69.921-63.37 70.565-62.73C71.171-62.12 71.206-61.16 70.671-60.51L70.563-60.39L32.68-22.56C31.312-21.18 30.545-19.33 30.545-17.4C30.545-15.47 31.312-13.62 32.68-12.25C34.043-10.89 35.893-10.12 37.825-10.12C39.656-10.12 41.413-10.81 42.755-12.05L42.974-12.26L84.028-53.27C87.069-56.31 88.776-60.43 88.776-64.73C88.776-69.02 87.067-73.15 84.029-76.19C80.989-79.23 76.866-80.94 72.566-80.94C68.404-80.94 64.409-79.34 61.402-76.48L61.104-76.19L20.094-35.18C15.377-30.46 12.73-24.07 12.73-17.4C12.73-10.74 15.381-4.34 20.094 0.37C24.806 5.09 31.2 7.74 37.87 7.74C44.386 7.74 50.636 5.21 55.315 0.7L55.647 0.37L96.657-40.64C97.301-41.28 98.346-41.28 98.99-40.64C99.597-40.03 99.632-39.07 99.097-38.42L98.99-38.3L57.981 2.71C52.65 8.04 45.417 11.04 37.87 11.04C30.324 11.04 23.09 8.04 17.76 2.71C12.428-2.62 9.43-9.86 9.43-17.4C9.43-24.78 12.296-31.86 17.415-37.17L17.76-37.52L58.77-78.53C62.428-82.19 67.391-84.24 72.566-84.24Z"/>
  </g>
  <g id="Ultralight-M" transform="matrix(1 0 0 1 505.06 1126)">
   <path d="M72.016-83.69C77.045-83.69 81.868-81.69 85.423-78.14C88.977-74.58 90.976-69.75 90.976-64.73C90.976-59.85 89.095-55.16 85.732-51.64L85.423-51.32L44.369-10.31C42.489-8.43 39.938-7.37 37.275-7.37C34.613-7.37 32.061-8.43 30.185-10.31C28.302-12.19 27.245-14.74 27.245-17.4C27.245-19.95 28.215-22.4 29.953-24.26L30.184-24.5L68.07-62.34C68.5-62.77 69.196-62.77 69.625-62.34C70.024-61.94 70.052-61.31 69.71-60.88L69.625-60.78L31.74-22.94C30.27-21.47 29.445-19.48 29.445-17.4C29.445-15.32 30.27-13.33 31.74-11.87C33.206-10.4 35.197-9.57 37.275-9.57C39.249-9.57 41.145-10.32 42.589-11.65L42.813-11.87L83.867-52.88C87.011-56.02 88.776-60.28 88.776-64.73C88.776-69.17 87.008-73.44 83.867-76.58C80.725-79.73 76.462-81.49 72.016-81.49C67.709-81.49 63.574-79.83 60.463-76.87L60.165-76.58L19.154-35.57C14.335-30.75 11.63-24.22 11.63-17.4C11.63-10.59 14.338-4.05 19.154 0.76C23.97 5.58 30.504 8.29 37.32 8.29C43.982 8.29 50.373 5.7 55.154 1.09L55.485 0.76L96.495-40.25C96.925-40.68 97.621-40.68 98.051-40.25C98.45-39.85 98.478-39.22 98.136-38.79L98.051-38.69L57.041 2.32C51.813 7.55 44.72 10.49 37.32 10.49C29.92 10.49 22.826 7.55 17.599 2.32C12.37-2.91 9.43-10.01 9.43-17.4C9.43-24.64 12.24-31.58 17.26-36.78L17.598-37.13L58.609-78.14C62.164-81.69 66.986-83.69 72.016-83.69Z"/>
  </g>
  <g id="Black-S" transform="matrix(1 0 0 1 2882.11 696)">
   <path d="M64.75-79.575C70.35-79.575 75.72-77.353 79.69-73.386C83.64-69.426 85.86-64.059 85.86-58.467C85.86-53.48 84.09-48.671 80.9-44.874L80.65-44.585L80.76-44.657C83.43-46.353 86.99-46.088 89.39-43.863L89.58-43.678C92.29-40.969 92.35-36.614 89.77-33.829L89.58-33.637L57.42-1.466C52.13 3.803 44.99 6.762 37.54 6.762C30.09 6.762 22.93 3.799 17.66-1.472C12.39-6.742 9.43-13.893 9.43-21.349C9.43-28.644 12.26-35.644 17.32-40.882L17.66-41.228L49.82-73.386C53.77-77.348 59.15-79.575 64.75-79.575ZM64.75-65.375C63.02-65.375 61.36-64.725 60.09-63.562L59.87-63.351L58.55-62.028L58.69-62.118C61.34-63.663 64.77-63.351 67.1-61.184L67.29-60.999C69.62-58.666 69.99-55.116 68.4-52.398L68.32-52.263L69.63-53.576C70.86-54.804 71.58-56.444 71.65-58.163L71.66-58.467C71.66-60.296 70.93-62.058 69.64-63.349C68.34-64.648 66.59-65.375 64.75-65.375Z"/>
  </g>
  <g id="Heavy-S" transform="matrix(1 0 0 1 2586.24 696)">
   <path d="M63.9-78.726C69.28-78.726 74.42-76.593 78.24-72.786C82.03-68.985 84.16-63.834 84.16-58.468C84.16-53.25 82.14-48.236 78.54-44.461L78.23-44.141L46.02-11.968C43.53-9.489 40.16-8.096 36.65-8.096C33.14-8.096 29.76-9.496 27.28-11.983C24.8-14.468 23.4-17.838 23.4-21.35C23.4-24.736 24.7-27.988 27.02-30.454L27.28-30.725L57-60.405C59.45-62.844 63.4-62.841 65.84-60.399C68.22-58.018 68.28-54.196 66.02-51.746L65.84-51.56L36.13-21.89C35.98-21.744 35.9-21.549 35.9-21.35C35.9-21.151 35.98-20.956 36.13-20.81C36.26-20.677 36.46-20.596 36.65-20.596C36.81-20.596 36.97-20.647 37.1-20.741L37.19-20.819L69.38-52.976C70.84-54.436 71.66-56.414 71.66-58.468C71.66-60.522 70.84-62.499 69.39-63.951C67.93-65.409 65.96-66.226 63.9-66.226C61.95-66.226 60.07-65.487 58.64-64.166L58.42-63.953L26.25-31.789C23.48-29.021 21.93-25.268 21.93-21.35C21.93-17.432 23.48-13.678 26.25-10.911C29.02-8.145 32.78-6.589 36.69-6.589C40.47-6.589 44.11-8.043 46.85-10.639L47.13-10.912L79.29-43.077C81.73-45.518 85.69-45.518 88.13-43.077C90.51-40.698 90.57-36.876 88.31-34.424L88.13-34.239L55.97-2.074C50.86 3.038 43.92 5.911 36.69 5.911C29.46 5.911 22.52 3.038 17.41-2.073C12.3-7.184 9.43-14.118 9.43-21.35C9.43-28.42 12.17-35.206 17.07-40.284L17.41-40.627L49.57-72.786C53.37-76.588 58.53-78.726 63.9-78.726Z"/>
  </g>
  <g id="Bold-S" transform="matrix(1 0 0 1 2290.48 696)">
   <path d="M62.95-77.57C68.07-77.57 72.98-75.538 76.61-71.917C80.23-68.298 82.26-63.387 82.26-58.262C82.26-53.284 80.34-48.508 76.91-44.921L76.61-44.608L44.41-12.45C42.11-10.14 38.97-8.84 35.71-8.84C32.45-8.84 29.32-10.134 27-12.449C24.7-14.756 23.4-17.885 23.4-21.144C23.4-24.284 24.6-27.299 26.75-29.587L27-29.848L56.72-59.528C58.8-61.596 62.15-61.594 64.22-59.522C66.23-57.51 66.28-54.286 64.39-52.208L64.21-52.027L34.5-22.355C34.18-22.032 34-21.595 34-21.144C34-20.694 34.18-20.257 34.49-19.949C34.82-19.621 35.25-19.44 35.71-19.44C36.1-19.44 36.48-19.579 36.79-19.828L36.91-19.942L69.11-52.107C70.74-53.736 71.66-55.948 71.66-58.262C71.66-60.577 70.74-62.789 69.11-64.418C67.48-66.054 65.26-66.97 62.95-66.97C60.75-66.97 58.63-66.134 57.02-64.638L56.8-64.419L24.63-32.255C21.68-29.31 20.03-25.314 20.03-21.144C20.03-16.975 21.68-12.979 24.62-10.039C27.58-7.088 31.58-5.433 35.74-5.433C39.77-5.433 43.65-6.985 46.56-9.754L46.85-10.035L79.01-42.2C81.08-44.27 84.44-44.27 86.51-42.2C88.52-40.19 88.58-36.966 86.68-34.885L86.51-34.705L54.35-2.54C49.42 2.394 42.72 5.167 35.74 5.167C28.77 5.167 22.08 2.397 17.13-2.54C12.2-7.472 9.43-14.165 9.43-21.144C9.43-27.965 12.07-34.511 16.8-39.411L17.13-39.75L49.3-71.917C52.93-75.536 57.83-77.57 62.95-77.57Z"/>
  </g>
  <g id="Semibold-S" transform="matrix(1 0 0 1 1994.42 696)">
   <path d="M62.3-76.92C67.25-76.92 71.99-74.956 75.5-71.451C78.99-67.95 80.96-63.205 80.96-58.262C80.96-53.465 79.11-48.854 75.8-45.38L75.5-45.067L43.29-12.896C41.1-10.715 38.14-9.49 35.05-9.49C31.96-9.49 28.99-10.719 26.81-12.908C24.63-15.093 23.4-18.056 23.4-21.144C23.4-24.113 24.53-26.965 26.57-29.131L26.81-29.387L56.53-59.067C58.35-60.882 61.3-60.88 63.11-59.063C64.87-57.302 64.92-54.484 63.27-52.66L63.11-52.487L33.39-22.814C32.95-22.369 32.7-21.767 32.7-21.144C32.7-20.521 32.95-19.92 33.39-19.475C33.83-19.037 34.43-18.79 35.05-18.79C35.62-18.79 36.16-18.992 36.59-19.355L36.72-19.482L68.92-51.641C70.67-53.4 71.66-55.784 71.66-58.262C71.66-60.74 70.67-63.124 68.92-64.877C67.16-66.635 64.79-67.62 62.3-67.62C59.92-67.62 57.65-66.719 55.92-65.103L55.69-64.879L23.52-32.714C20.45-29.647 18.73-25.486 18.73-21.144C18.73-16.802 20.45-12.641 23.52-9.575C26.59-6.505 30.75-4.783 35.09-4.783C39.29-4.783 43.33-6.4 46.37-9.291L46.66-9.575L78.82-41.74C80.64-43.556 83.58-43.556 85.4-41.74C87.16-39.981 87.21-37.163 85.56-35.338L85.4-35.164L53.23-2.995C48.41 1.816 41.89 4.517 35.09 4.517C28.28 4.517 21.76 1.815 16.94-2.999C12.13-7.81 9.43-14.337 9.43-21.144C9.43-27.797 12.01-34.181 16.62-38.959L16.94-39.29L49.11-71.451C52.6-74.953 57.35-76.92 62.3-76.92Z"/>
  </g>
  <g id="Medium-S" transform="matrix(1 0 0 1 1698.21 696)">
   <path d="M61.8-76.42C66.62-76.42 71.23-74.508 74.65-71.097C78.05-67.69 79.96-63.072 79.96-58.262C79.96-53.597 78.16-49.114 74.95-45.734L74.64-45.421L42.44-13.251C40.34-11.163 37.51-9.99 34.55-9.99C31.59-9.99 28.75-11.166 26.66-13.261C24.58-15.353 23.4-18.189 23.4-21.144C23.4-23.985 24.49-26.716 26.43-28.788L26.67-29.033L56.39-58.713C58.01-60.333 60.64-60.331 62.26-58.709C63.82-57.142 63.87-54.634 62.41-53.006L62.25-52.84L32.54-23.167C32-22.628 31.7-21.9 31.7-21.144C31.7-20.389 32-19.66 32.54-19.122C33.07-18.589 33.79-18.29 34.55-18.29C35.24-18.29 35.91-18.539 36.43-18.988L36.58-19.128L68.77-51.287C70.62-53.141 71.66-55.651 71.66-58.262C71.66-60.872 70.62-63.383 68.78-65.231C66.92-67.082 64.42-68.12 61.8-68.12C59.29-68.12 56.89-67.167 55.07-65.459L54.83-65.232L22.67-33.068C19.5-29.907 17.73-25.619 17.73-21.144C17.73-16.67 19.51-12.381 22.67-9.221C25.83-6.058 30.11-4.283 34.59-4.283C38.92-4.283 43.08-5.949 46.22-8.929L46.52-9.221L78.68-41.386C80.3-43.007 82.92-43.007 84.54-41.387C86.11-39.82 86.16-37.313 84.7-35.683L84.55-35.518L52.38-3.349C47.65 1.369 41.26 4.017 34.59 4.017C27.91 4.017 21.51 1.368 16.8-3.352C12.08-8.069 9.43-14.47 9.43-21.144C9.43-27.664 11.96-33.92 16.47-38.605L16.8-38.937L48.96-71.097C52.36-74.506 56.98-76.42 61.8-76.42Z"/>
  </g>
  <g id="Regular-S" transform="matrix(1 0 0 1 1402.15 696)">
   <path d="M61.15-75.771C65.8-75.771 70.25-73.927 73.54-70.639C76.81-67.353 78.66-62.901 78.66-58.263C78.66-53.765 76.92-49.442 73.83-46.184L73.53-45.881L41.33-13.712C39.35-11.745 36.68-10.641 33.9-10.641C31.11-10.641 28.44-11.748 26.47-13.72C24.51-15.69 23.4-18.362 23.4-21.145C23.4-23.816 24.42-26.384 26.24-28.334L26.48-28.574L56.2-58.254C57.56-59.62 59.78-59.618 61.15-58.251C62.46-56.932 62.51-54.824 61.28-53.45L61.14-53.301L31.43-23.626C30.77-22.966 30.4-22.072 30.4-21.145C30.4-20.217 30.77-19.323 31.43-18.664C32.08-18.009 32.97-17.641 33.9-17.641C34.76-17.641 35.59-17.955 36.23-18.522L36.39-18.669L68.58-50.829C70.55-52.804 71.66-55.48 71.66-58.263C71.66-61.045 70.55-63.721 68.59-65.691C66.61-67.664 63.94-68.771 61.15-68.771C58.47-68.771 55.9-67.751 53.96-65.925L53.72-65.692L21.55-33.528C18.27-30.245 16.43-25.792 16.43-21.145C16.43-16.498 18.27-12.044 21.55-8.762C24.84-5.477 29.29-3.634 33.94-3.634C38.44-3.634 42.76-5.367 46.02-8.468L46.32-8.762L78.48-40.927C79.85-42.294 82.07-42.294 83.43-40.928C84.75-39.61 84.8-37.502 83.58-36.127L83.43-35.978L51.27-3.81C46.67 0.786 40.44 3.366 33.94 3.366C27.43 3.366 21.2 0.786 16.6-3.813C12.01-8.408 9.43-14.642 9.43-21.145C9.43-27.496 11.89-33.591 16.29-38.154L16.61-38.478L48.77-70.639C52.05-73.925 56.5-75.771 61.15-75.771Z"/>
  </g>
  <g id="Light-S" transform="matrix(1 0 0 1 1106.24 696)">
   <path d="M60.35-74.97C64.78-74.97 69.03-73.211 72.17-70.073C75.3-66.937 77.06-62.688 77.06-58.262C77.06-53.974 75.41-49.852 72.46-46.744L72.17-46.446L39.97-14.278C38.14-12.46 35.67-11.44 33.1-11.44C30.52-11.44 28.06-12.463 26.24-14.285C24.42-16.105 23.4-18.573 23.4-21.144C23.4-23.603 24.34-25.967 26.01-27.765L26.24-28.007L55.96-57.687C57.02-58.741 58.73-58.74 59.78-57.685C60.79-56.673 60.83-55.061 59.9-54.001L59.78-53.866L30.06-24.19C29.25-23.38 28.8-22.284 28.8-21.144C28.8-20.004 29.26-18.907 30.06-18.098C30.87-17.292 31.96-16.84 33.1-16.84C34.16-16.84 35.18-17.231 35.97-17.934L36.15-18.102L68.35-50.263C70.47-52.388 71.66-55.267 71.66-58.262C71.66-61.257 70.47-64.135 68.35-66.256C66.23-68.379 63.35-69.57 60.35-69.57C57.46-69.57 54.7-68.469 52.61-66.498L52.36-66.257L20.19-34.093C16.76-30.66 14.83-26.003 14.83-21.144C14.83-16.285 16.76-11.628 20.19-8.196C23.62-4.76 28.28-2.833 33.14-2.833C37.85-2.833 42.37-4.646 45.77-7.888L46.09-8.196L78.25-40.361C79.31-41.415 81.02-41.415 82.07-40.361C83.08-39.351 83.12-37.739 82.2-36.678L82.07-36.543L49.91-4.375C45.45 0.071 39.42 2.567 33.14 2.567C26.85 2.567 20.82 0.071 16.37-4.378C11.93-8.823 9.43-14.854 9.43-21.144C9.43-27.281 11.81-33.17 16.05-37.583L16.37-37.911L48.54-70.073C51.67-73.209 55.91-74.97 60.35-74.97Z"/>
  </g>
  <g id="Thin-S" transform="matrix(1 0 0 1 810.575 696)">
   <path d="M59.304-73.92C63.457-73.92 67.44-72.27 70.376-69.334C73.313-66.397 74.962-62.414 74.962-58.262C74.962-54.243 73.417-50.384 70.656-47.477L70.376-47.19L38.177-15.026C36.554-13.402 34.353-12.49 32.057-12.49C29.762-12.49 27.561-13.402 25.938-15.025C24.315-16.648 23.403-18.849 23.403-21.144C23.403-23.335 24.234-25.439 25.721-27.039L25.938-27.264L55.653-56.944C56.298-57.588 57.343-57.588 57.987-56.943C58.593-56.336 58.628-55.375 58.093-54.727L57.985-54.61L28.272-24.931C27.267-23.926 26.703-22.564 26.703-21.144C26.703-19.724 27.268-18.362 28.271-17.359C29.276-16.354 30.637-15.79 32.057-15.79C33.388-15.79 34.669-16.286 35.651-17.176L35.843-17.359L68.043-49.524C70.36-51.841 71.662-54.985 71.662-58.262C71.662-61.539 70.36-64.683 68.043-67C65.725-69.318 62.582-70.62 59.304-70.62C56.144-70.62 53.108-69.409 50.818-67.245L50.566-67L18.401-34.835C14.77-31.203 12.73-26.279 12.73-21.144C12.73-16.01 14.771-11.084 18.401-7.453C22.031-3.823 26.956-1.783 32.092-1.783C37.081-1.783 41.871-3.708 45.468-7.146L45.783-7.454L77.948-39.619C78.592-40.263 79.637-40.263 80.281-39.619C80.888-39.012 80.923-38.051 80.388-37.403L80.281-37.285L48.116-5.12C43.867-0.87 38.103 1.517 32.092 1.517C26.081 1.517 20.317-0.87 16.068-5.12C11.818-9.37 9.43-15.134 9.43-21.144C9.43-27.004 11.7-32.629 15.752-36.847L16.068-37.169L48.233-69.334C51.169-72.27 55.152-73.92 59.304-73.92Z"/>
  </g>
  <g id="Ultralight-S" transform="matrix(1 0 0 1 514.414 696)">
   <path d="M58.754-73.37C62.761-73.37 66.604-71.778 69.437-68.945C72.27-66.112 73.862-62.269 73.862-58.262C73.862-54.389 72.375-50.669 69.716-47.866L69.437-47.579L37.237-15.415C35.718-13.894 33.656-13.04 31.507-13.04C29.358-13.04 27.297-13.894 25.776-15.414C24.257-16.934 23.403-18.995 23.403-21.144C23.403-23.191 24.177-25.158 25.564-26.654L25.777-26.875L55.492-56.555C55.922-56.985 56.618-56.984 57.048-56.554C57.446-56.155 57.474-55.526 57.132-55.095L57.047-54.999L27.332-25.32C26.225-24.212 25.603-22.71 25.603-21.144C25.603-19.579 26.225-18.077 27.332-16.97C28.44-15.862 29.941-15.24 31.507-15.24C32.981-15.24 34.398-15.791 35.482-16.78L35.682-16.97L67.881-49.135C70.302-51.556 71.662-54.839 71.662-58.262C71.662-61.685 70.302-64.969 67.881-67.389C65.461-69.81 62.177-71.17 58.754-71.17C55.453-71.17 52.283-69.905 49.89-67.645L49.627-67.389L17.462-35.224C13.728-31.489 11.63-26.425 11.63-21.144C11.63-15.864 13.728-10.799 17.462-7.065C21.195-3.331 26.26-1.233 31.542-1.233C36.677-1.233 41.607-3.216 45.307-6.758L45.621-7.065L77.786-39.23C78.216-39.66 78.912-39.66 79.342-39.23C79.741-38.831 79.769-38.202 79.428-37.77L79.342-37.674L47.177-5.509C43.031-1.363 37.407 0.967 31.542 0.967C25.677 0.967 20.052-1.363 15.906-5.509C11.76-9.656 9.43-15.28 9.43-21.144C9.43-26.858 11.642-32.344 15.591-36.458L15.906-36.78L48.071-68.945C50.905-71.778 54.748-73.37 58.754-73.37Z"/>
  </g>
 </g>
</svg>
