<?xml version="1.0" encoding="UTF-8"?>
<!--Generator: Apple Native CoreSVG 175-->
<!DOCTYPE svg
PUBLIC "-//W3C//DTD SVG 1.1//EN"
       "http://www.w3.org/Graphics/SVG/1.1/DTD/svg11.dtd">
<svg version="1.1" xmlns="http://www.w3.org/2000/svg" xmlns:xlink="http://www.w3.org/1999/xlink" width="3300" height="2200">
 <!--glyph: "", point size: 100.0, font version: "17.0d12e1", template writer version: "65.1"-->
 <g id="Notes">
  <rect height="2200" id="artboard" style="fill:white;opacity:1" width="3300" x="0" y="0"/>
  <line style="fill:none;stroke:black;opacity:1;stroke-width:0.5;" x1="263" x2="3036" y1="292" y2="292"/>
  <text style="stroke:none;fill:black;font-family:sans-serif;font-size:13;font-weight:bold;" transform="matrix(1 0 0 1 263 322)">Weight/Scale Variations</text>
  <text style="stroke:none;fill:black;font-family:sans-serif;font-size:13;text-anchor:middle;" transform="matrix(1 0 0 1 559.711 322)">Ultralight</text>
  <text style="stroke:none;fill:black;font-family:sans-serif;font-size:13;text-anchor:middle;" transform="matrix(1 0 0 1 856.422 322)">Thin</text>
  <text style="stroke:none;fill:black;font-family:sans-serif;font-size:13;text-anchor:middle;" transform="matrix(1 0 0 1 1153.13 322)">Light</text>
  <text style="stroke:none;fill:black;font-family:sans-serif;font-size:13;text-anchor:middle;" transform="matrix(1 0 0 1 1449.84 322)">Regular</text>
  <text style="stroke:none;fill:black;font-family:sans-serif;font-size:13;text-anchor:middle;" transform="matrix(1 0 0 1 1746.56 322)">Medium</text>
  <text style="stroke:none;fill:black;font-family:sans-serif;font-size:13;text-anchor:middle;" transform="matrix(1 0 0 1 2043.27 322)">Semibold</text>
  <text style="stroke:none;fill:black;font-family:sans-serif;font-size:13;text-anchor:middle;" transform="matrix(1 0 0 1 2339.98 322)">Bold</text>
  <text style="stroke:none;fill:black;font-family:sans-serif;font-size:13;text-anchor:middle;" transform="matrix(1 0 0 1 2636.69 322)">Heavy</text>
  <text style="stroke:none;fill:black;font-family:sans-serif;font-size:13;text-anchor:middle;" transform="matrix(1 0 0 1 2933.4 322)">Black</text>
  <line style="fill:none;stroke:black;opacity:1;stroke-width:0.5;" x1="263" x2="3036" y1="1903" y2="1903"/>
  <g transform="matrix(1 0 0 1 263 1933)">
   <path d="M9.24805 0.830078Q10.8691 0.830078 12.2949 0.214844Q13.7207-0.400391 14.8096-1.49414Q15.8984-2.58789 16.5186-4.01367Q17.1387-5.43945 17.1387-7.05078Q17.1387-8.66211 16.5186-10.0879Q15.8984-11.5137 14.8047-12.6074Q13.7109-13.7012 12.2852-14.3164Q10.8594-14.9316 9.23828-14.9316Q7.62695-14.9316 6.20117-14.3164Q4.77539-13.7012 3.69141-12.6074Q2.60742-11.5137 1.9873-10.0879Q1.36719-8.66211 1.36719-7.05078Q1.36719-5.43945 1.9873-4.01367Q2.60742-2.58789 3.69629-1.49414Q4.78516-0.400391 6.21094 0.214844Q7.63672 0.830078 9.24805 0.830078ZM9.24805-0.654297Q7.91992-0.654297 6.7627-1.14746Q5.60547-1.64062 4.73145-2.51953Q3.85742-3.39844 3.36426-4.56055Q2.87109-5.72266 2.87109-7.05078Q2.87109-8.37891 3.35938-9.54102Q3.84766-10.7031 4.72168-11.582Q5.5957-12.4609 6.75293-12.9541Q7.91016-13.4473 9.23828-13.4473Q10.5762-13.4473 11.7334-12.9541Q12.8906-12.4609 13.7695-11.582Q14.6484-10.7031 15.1465-9.54102Q15.6445-8.37891 15.6445-7.05078Q15.6445-5.72266 15.1514-4.56055Q14.6582-3.39844 13.7842-2.51953Q12.9102-1.64062 11.748-1.14746Q10.5859-0.654297 9.24805-0.654297ZM5.6543-7.05078Q5.6543-6.72852 5.85938-6.52832Q6.06445-6.32812 6.40625-6.32812L8.51562-6.32812L8.51562-4.20898Q8.51562-3.88672 8.71094-3.67676Q8.90625-3.4668 9.23828-3.4668Q9.56055-3.4668 9.77051-3.67676Q9.98047-3.88672 9.98047-4.20898L9.98047-6.32812L12.0898-6.32812Q12.4219-6.32812 12.627-6.52832Q12.832-6.72852 12.832-7.05078Q12.832-7.38281 12.627-7.58789Q12.4219-7.79297 12.0898-7.79297L9.98047-7.79297L9.98047-9.90234Q9.98047-10.2344 9.77051-10.4443Q9.56055-10.6543 9.23828-10.6543Q8.90625-10.6543 8.71094-10.4443Q8.51562-10.2344 8.51562-9.90234L8.51562-7.79297L6.40625-7.79297Q6.06445-7.79297 5.85938-7.58789Q5.6543-7.38281 5.6543-7.05078Z"/>
  </g>
  <g transform="matrix(1 0 0 1 281.867 1933)">
   <path d="M11.709 2.91016Q13.75 2.91016 15.5518 2.12891Q17.3535 1.34766 18.7305-0.0292969Q20.1074-1.40625 20.8887-3.20801Q21.6699-5.00977 21.6699-7.05078Q21.6699-9.0918 20.8887-10.8936Q20.1074-12.6953 18.7305-14.0723Q17.3535-15.4492 15.5469-16.2305Q13.7402-17.0117 11.6992-17.0117Q9.6582-17.0117 7.85645-16.2305Q6.05469-15.4492 4.68262-14.0723Q3.31055-12.6953 2.5293-10.8936Q1.74805-9.0918 1.74805-7.05078Q1.74805-5.00977 2.5293-3.20801Q3.31055-1.40625 4.6875-0.0292969Q6.06445 1.34766 7.86621 2.12891Q9.66797 2.91016 11.709 2.91016ZM11.709 1.25Q9.98047 1.25 8.47656 0.605469Q6.97266-0.0390625 5.83496-1.17676Q4.69727-2.31445 4.05762-3.81836Q3.41797-5.32227 3.41797-7.05078Q3.41797-8.7793 4.05762-10.2832Q4.69727-11.7871 5.83008-12.9297Q6.96289-14.0723 8.4668-14.7119Q9.9707-15.3516 11.6992-15.3516Q13.4277-15.3516 14.9316-14.7119Q16.4355-14.0723 17.5781-12.9297Q18.7207-11.7871 19.3652-10.2832Q20.0098-8.7793 20.0098-7.05078Q20.0098-5.32227 19.3701-3.81836Q18.7305-2.31445 17.5928-1.17676Q16.4551-0.0390625 14.9463 0.605469Q13.4375 1.25 11.709 1.25ZM7.17773-7.05078Q7.17773-6.69922 7.41211-6.47461Q7.64648-6.25 8.01758-6.25L10.8887-6.25L10.8887-3.36914Q10.8887-2.99805 11.1133-2.76855Q11.3379-2.53906 11.6895-2.53906Q12.0605-2.53906 12.29-2.76855Q12.5195-2.99805 12.5195-3.36914L12.5195-6.25L15.4004-6.25Q15.7715-6.25 16.001-6.47461Q16.2305-6.69922 16.2305-7.05078Q16.2305-7.42188 16.001-7.65137Q15.7715-7.88086 15.4004-7.88086L12.5195-7.88086L12.5195-10.752Q12.5195-11.1328 12.29-11.3623Q12.0605-11.5918 11.6895-11.5918Q11.3379-11.5918 11.1133-11.3574Q10.8887-11.123 10.8887-10.752L10.8887-7.88086L8.01758-7.88086Q7.63672-7.88086 7.40723-7.65137Q7.17773-7.42188 7.17773-7.05078Z"/>
  </g>
  <g transform="matrix(1 0 0 1 305.646 1933)">
   <path d="M14.9707 5.66406Q17.0605 5.66406 18.96 5.01465Q20.8594 4.36523 22.4512 3.19336Q24.043 2.02148 25.2197 0.429688Q26.3965-1.16211 27.0459-3.06641Q27.6953-4.9707 27.6953-7.05078Q27.6953-9.14062 27.0459-11.04Q26.3965-12.9395 25.2197-14.5312Q24.043-16.123 22.4512-17.2998Q20.8594-18.4766 18.9551-19.126Q17.0508-19.7754 14.9609-19.7754Q12.8711-19.7754 10.9717-19.126Q9.07227-18.4766 7.48535-17.2998Q5.89844-16.123 4.72168-14.5312Q3.54492-12.9395 2.90039-11.04Q2.25586-9.14062 2.25586-7.05078Q2.25586-4.9707 2.90527-3.06641Q3.55469-1.16211 4.72656 0.429688Q5.89844 2.02148 7.49023 3.19336Q9.08203 4.36523 10.9814 5.01465Q12.8809 5.66406 14.9707 5.66406ZM14.9707 3.84766Q13.1641 3.84766 11.5283 3.2959Q9.89258 2.74414 8.53516 1.74805Q7.17773 0.751953 6.17676-0.610352Q5.17578-1.97266 4.62891-3.6084Q4.08203-5.24414 4.08203-7.05078Q4.08203-8.86719 4.62891-10.5029Q5.17578-12.1387 6.17188-13.501Q7.16797-14.8633 8.52539-15.8594Q9.88281-16.8555 11.5186-17.4023Q13.1543-17.9492 14.9609-17.9492Q16.7773-17.9492 18.4131-17.4023Q20.0488-16.8555 21.4111-15.8594Q22.7734-14.8633 23.7695-13.501Q24.7656-12.1387 25.3174-10.5029Q25.8691-8.86719 25.8691-7.05078Q25.8789-5.24414 25.332-3.6084Q24.7852-1.97266 23.7842-0.610352Q22.7832 0.751953 21.4209 1.74805Q20.0586 2.74414 18.4229 3.2959Q16.7871 3.84766 14.9707 3.84766ZM9.19922-7.05078Q9.19922-6.66992 9.45801-6.4209Q9.7168-6.17188 10.1172-6.17188L14.0625-6.17188L14.0625-2.2168Q14.0625-1.81641 14.3115-1.55762Q14.5605-1.29883 14.9512-1.29883Q15.3516-1.29883 15.6104-1.55273Q15.8691-1.80664 15.8691-2.2168L15.8691-6.17188L19.8242-6.17188Q20.2246-6.17188 20.4785-6.4209Q20.7324-6.66992 20.7324-7.05078Q20.7324-7.46094 20.4785-7.71484Q20.2246-7.96875 19.8242-7.96875L15.8691-7.96875L15.8691-11.9141Q15.8691-12.3242 15.6104-12.583Q15.3516-12.8418 14.9512-12.8418Q14.5605-12.8418 14.3115-12.583Q14.0625-12.3242 14.0625-11.9141L14.0625-7.96875L10.1172-7.96875Q9.70703-7.96875 9.45312-7.71484Q9.19922-7.46094 9.19922-7.05078Z"/>
  </g>
  <text style="stroke:none;fill:black;font-family:sans-serif;font-size:13;font-weight:bold;" transform="matrix(1 0 0 1 263 1953)">Design Variations</text>
  <text style="stroke:none;fill:black;font-family:sans-serif;font-size:13;" transform="matrix(1 0 0 1 263 1971)">Symbols are supported in up to nine weights and three scales.</text>
  <text style="stroke:none;fill:black;font-family:sans-serif;font-size:13;" transform="matrix(1 0 0 1 263 1989)">For optimal layout with text and other symbols, vertically align</text>
  <text style="stroke:none;fill:black;font-family:sans-serif;font-size:13;" transform="matrix(1 0 0 1 263 2007)">symbols with the adjacent text.</text>
  <line style="fill:none;stroke:#00AEEF;stroke-width:0.5;opacity:1.0;" x1="776" x2="776" y1="1919" y2="1933"/>
  <g transform="matrix(1 0 0 1 776 1933)">
   <path d="M3.31055 0.15625Q3.70117 0.15625 3.91602-0.00976562Q4.13086-0.175781 4.26758-0.585938L5.52734-4.0332L11.2891-4.0332L12.5488-0.585938Q12.6855-0.175781 12.9004-0.00976562Q13.1152 0.15625 13.4961 0.15625Q13.8867 0.15625 14.1162-0.0585938Q14.3457-0.273438 14.3457-0.644531Q14.3457-0.869141 14.2383-1.17188L9.6582-13.3691Q9.48242-13.8184 9.17969-14.043Q8.87695-14.2676 8.4082-14.2676Q7.5-14.2676 7.17773-13.3789L2.59766-1.16211Q2.49023-0.859375 2.49023-0.634766Q2.49023-0.263672 2.70996-0.0537109Q2.92969 0.15625 3.31055 0.15625ZM6.00586-5.51758L8.37891-12.0898L8.42773-12.0898L10.8008-5.51758Z"/>
  </g>
  <line style="fill:none;stroke:#00AEEF;stroke-width:0.5;opacity:1.0;" x1="793.197" x2="793.197" y1="1919" y2="1933"/>
  <text style="stroke:none;fill:black;font-family:sans-serif;font-size:13;font-weight:bold;" transform="matrix(1 0 0 1 776 1953)">Margins</text>
  <text style="stroke:none;fill:black;font-family:sans-serif;font-size:13;" transform="matrix(1 0 0 1 776 1971)">Leading and trailing margins on the left and right side of each symbol</text>
  <text style="stroke:none;fill:black;font-family:sans-serif;font-size:13;" transform="matrix(1 0 0 1 776 1989)">can be adjusted by modifying the x-location of the margin guidelines.</text>
  <text style="stroke:none;fill:black;font-family:sans-serif;font-size:13;" transform="matrix(1 0 0 1 776 2007)">Modifications are automatically applied proportionally to all</text>
  <text style="stroke:none;fill:black;font-family:sans-serif;font-size:13;" transform="matrix(1 0 0 1 776 2025)">scales and weights.</text>
  <g transform="matrix(1 0 0 1 1289 1933)">
   <path d="M2.8418 1.86523L4.54102 3.57422Q5.18555 4.22852 5.90332 4.17969Q6.62109 4.13086 7.31445 3.35938L18.0078-8.42773L17.041-9.4043L6.42578 2.27539Q6.16211 2.57812 5.89355 2.61719Q5.625 2.65625 5.27344 2.30469L4.10156 1.14258Q3.75 0.791016 3.79395 0.522461Q3.83789 0.253906 4.14062-0.0195312L15.6152-10.8203L14.6387-11.7871L3.04688-0.898438Q2.30469-0.214844 2.25098 0.498047Q2.19727 1.21094 2.8418 1.86523ZM9.25781-16.3281Q8.94531-16.0254 8.90625-15.6348Q8.86719-15.2441 9.04297-14.9512Q9.21875-14.6777 9.55566-14.541Q9.89258-14.4043 10.3809-14.5215Q11.4746-14.7754 12.5977-14.7314Q13.7207-14.6875 14.7949-13.9844L14.209-12.5293Q13.9551-11.9043 14.0674-11.4404Q14.1797-10.9766 14.5801-10.5664L16.875-8.25195Q17.2363-7.88086 17.5781-7.82227Q17.9199-7.76367 18.3398-7.8418L19.4043-8.03711L20.0684-7.36328L20.0293-6.80664Q20-6.43555 20.1221-6.12305Q20.2441-5.81055 20.6055-5.44922L21.3672-4.70703Q21.7285-4.3457 22.1533-4.33105Q22.5781-4.31641 22.9297-4.66797L25.8398-7.58789Q26.1914-7.93945 26.1816-8.35449Q26.1719-8.76953 25.8105-9.13086L25.0391-9.89258Q24.6875-10.2539 24.3799-10.3857Q24.0723-10.5176 23.7109-10.4883L23.1348-10.4395L22.4902-11.0742L22.7344-12.1973Q22.832-12.6172 22.6953-12.9834Q22.5586-13.3496 22.1191-13.7891L19.9219-15.9766Q18.6719-17.2168 17.2607-17.8369Q15.8496-18.457 14.4189-18.4814Q12.9883-18.5059 11.665-17.959Q10.3418-17.4121 9.25781-16.3281ZM10.752-15.957Q11.6602-16.6211 12.7002-16.9043Q13.7402-17.1875 14.8047-17.085Q15.8691-16.9824 16.8701-16.5137Q17.8711-16.0449 18.7012-15.2051L21.1328-12.793Q21.3086-12.6172 21.3525-12.4512Q21.3965-12.2852 21.3379-12.0312L21.0156-10.5469L22.5195-9.0625L23.5059-9.12109Q23.6914-9.13086 23.7891-9.09668Q23.8867-9.0625 24.0332-8.91602L24.6094-8.33984L22.168-5.89844L21.5918-6.47461Q21.4453-6.62109 21.4062-6.71875Q21.3672-6.81641 21.377-7.01172L21.4453-7.98828L19.9512-9.47266L18.4277-9.21875Q18.1836-9.16992 18.042-9.2041Q17.9004-9.23828 17.7148-9.41406L15.7129-11.416Q15.5176-11.5918 15.4932-11.7529Q15.4688-11.9141 15.5859-12.1875L16.4648-14.2773Q15.293-15.3711 13.8281-15.791Q12.3633-16.2109 10.8398-15.7617Q10.7227-15.7324 10.6885-15.8057Q10.6543-15.8789 10.752-15.957Z"/>
  </g>
  <text style="stroke:none;fill:black;font-family:sans-serif;font-size:13;font-weight:bold;" transform="matrix(1 0 0 1 1289 1953)">Exporting</text>
  <text style="stroke:none;fill:black;font-family:sans-serif;font-size:13;" transform="matrix(1 0 0 1 1289 1971)">Symbols should be outlined when exporting to ensure the</text>
  <text style="stroke:none;fill:black;font-family:sans-serif;font-size:13;" transform="matrix(1 0 0 1 1289 1989)">design is preserved when submitting to Xcode.</text>
  <text id="template-version" style="stroke:none;fill:black;font-family:sans-serif;font-size:13;text-anchor:end;" transform="matrix(1 0 0 1 3036 1933)">Template v.3.0</text>
  <text style="stroke:none;fill:black;font-family:sans-serif;font-size:13;text-anchor:end;" transform="matrix(1 0 0 1 3036 1951)">Requires Xcode 13 or greater</text>
  <text id="descriptive-name" style="stroke:none;fill:black;font-family:sans-serif;font-size:13;text-anchor:end;" transform="matrix(1 0 0 1 3036 1969)">Generated from arrow-up-left</text>
  <text style="stroke:none;fill:black;font-family:sans-serif;font-size:13;text-anchor:end;" transform="matrix(1 0 0 1 3036 1987)">Typeset at 100 points</text>
  <text style="stroke:none;fill:black;font-family:sans-serif;font-size:13;" transform="matrix(1 0 0 1 263 726)">Small</text>
  <text style="stroke:none;fill:black;font-family:sans-serif;font-size:13;" transform="matrix(1 0 0 1 263 1156)">Medium</text>
  <text style="stroke:none;fill:black;font-family:sans-serif;font-size:13;" transform="matrix(1 0 0 1 263 1586)">Large</text>
 </g>
 <g id="Guides">
  <g id="H-reference" style="fill:#27AAE1;stroke:none;" transform="matrix(1 0 0 1 339 696)">
   <path d="M0.976562 0L3.66211 0L29.3457-67.1387L30.0293-67.1387L30.0293-70.459L28.125-70.459ZM11.6699-24.4629L46.9727-24.4629L46.2402-26.709L12.4512-26.709ZM55.127 0L57.7637 0L30.6152-70.459L29.4434-70.459L29.4434-67.1387Z"/>
  </g>
  <line id="Baseline-S" style="fill:none;stroke:#27AAE1;opacity:1;stroke-width:0.5;" x1="263" x2="3036" y1="696" y2="696"/>
  <line id="Capline-S" style="fill:none;stroke:#27AAE1;opacity:1;stroke-width:0.5;" x1="263" x2="3036" y1="625.541" y2="625.541"/>
  <g id="H-reference" style="fill:#27AAE1;stroke:none;" transform="matrix(1 0 0 1 339 1126)">
   <path d="M0.976562 0L3.66211 0L29.3457-67.1387L30.0293-67.1387L30.0293-70.459L28.125-70.459ZM11.6699-24.4629L46.9727-24.4629L46.2402-26.709L12.4512-26.709ZM55.127 0L57.7637 0L30.6152-70.459L29.4434-70.459L29.4434-67.1387Z"/>
  </g>
  <line id="Baseline-M" style="fill:none;stroke:#27AAE1;opacity:1;stroke-width:0.5;" x1="263" x2="3036" y1="1126" y2="1126"/>
  <line id="Capline-M" style="fill:none;stroke:#27AAE1;opacity:1;stroke-width:0.5;" x1="263" x2="3036" y1="1055.54" y2="1055.54"/>
  <g id="H-reference" style="fill:#27AAE1;stroke:none;" transform="matrix(1 0 0 1 339 1556)">
   <path d="M0.976562 0L3.66211 0L29.3457-67.1387L30.0293-67.1387L30.0293-70.459L28.125-70.459ZM11.6699-24.4629L46.9727-24.4629L46.2402-26.709L12.4512-26.709ZM55.127 0L57.7637 0L30.6152-70.459L29.4434-70.459L29.4434-67.1387Z"/>
  </g>
  <line id="Baseline-L" style="fill:none;stroke:#27AAE1;opacity:1;stroke-width:0.5;" x1="263" x2="3036" y1="1556" y2="1556"/>
  <line id="Capline-L" style="fill:none;stroke:#27AAE1;opacity:1;stroke-width:0.5;" x1="263" x2="3036" y1="1485.54" y2="1485.54"/>
  <line id="left-margin-Regular-M" style="fill:none;stroke:#00AEEF;stroke-width:0.5;opacity:1.0;" x1="1393.13" x2="1393.13" y1="1030.78" y2="1150.12"/>
  <line id="right-margin-Regular-M" style="fill:none;stroke:#00AEEF;stroke-width:0.5;opacity:1.0;" x1="1506.56" x2="1506.56" y1="1030.78" y2="1150.12"/>
 </g>
 <g id="Symbols">
  <g id="Black-L" transform="matrix(1 0 0 1 2866.96 1556)">
   <path d="M33.14-70.07C35.92-72.84 40.41-72.84 43.18-70.07L100.06-13.19C102.83-10.42 102.83-5.92 100.06-3.15C97.29-0.38 92.79-0.38 90.02-3.15L33.14-60.03C30.37-62.8 30.37-67.29 33.14-70.07ZM31.06-65.05C31.06-68.97 34.24-72.15 38.16-72.15L95.04-72.15C98.96-72.15 102.14-68.97 102.14-65.05C102.14-61.13 98.96-57.95 95.04-57.95L45.26-57.95L45.26-8.17C45.26-4.25 42.08-1.07 38.16-1.07C34.24-1.07 31.06-4.25 31.06-8.17L31.06-65.05Z"/>
  </g>
  <g id="Heavy-L" transform="matrix(1 0 0 1 2571.09 1556)">
   <path d="M32.89-69.31C35.33-71.75 39.29-71.75 41.73-69.31L98.6-12.43C101.05-9.99 101.05-6.03 98.6-3.59C96.16-1.15 92.21-1.15 89.77-3.59L32.89-60.47C30.45-62.91 30.45-66.87 32.89-69.31ZM31.06-64.89C31.06-68.34 33.86-71.14 37.31-71.14L94.18-71.14C97.64-71.14 100.44-68.34 100.44-64.89C100.44-61.44 97.64-58.64 94.18-58.64L43.56-58.64L43.56-8.01C43.56-4.56 40.76-1.76 37.31-1.76C33.86-1.76 31.06-4.56 31.06-8.01L31.06-64.89Z"/>
  </g>
  <g id="Bold-L" transform="matrix(1 0 0 1 2275.34 1556)">
   <path d="M32.6125-68.43C34.6825-70.5 38.0325-70.5 40.1025-68.43L96.9825-11.56C99.0525-9.49 99.0525-6.13 96.9825-4.06C94.9125-1.99 91.5525-1.99 89.4825-4.06L32.6125-60.94C30.5425-63.01 30.5425-66.36 32.6125-68.43ZM31.0625-64.69C31.0625-67.61 33.4325-69.99 36.3625-69.99L93.2325-69.99C96.1625-69.99 98.5325-67.61 98.5325-64.69C98.5325-61.76 96.1625-59.39 93.2325-59.39L41.6625-59.39L41.6625-7.81C41.6625-4.88 39.2825-2.51 36.3625-2.51C33.4325-2.51 31.0625-4.88 31.0625-7.81L31.0625-64.69Z"/>
  </g>
  <g id="Semibold-L" transform="matrix(1 0 0 1 1979.27 1556)">
   <path d="M32.42-67.86C34.24-69.67 37.18-69.67 39-67.86L95.88-10.98C97.69-9.16 97.69-6.22 95.88-4.4C94.06-2.59 91.12-2.59 89.3-4.4L32.42-61.28C30.61-63.1 30.61-66.04 32.42-67.86ZM31.06-64.57C31.06-67.14 33.14-69.22 35.71-69.22L92.59-69.22C95.16-69.22 97.24-67.14 97.24-64.57C97.24-62 95.16-59.92 92.59-59.92L40.36-59.92L40.36-7.69C40.36-5.12 38.28-3.04 35.71-3.04C33.14-3.04 31.06-5.12 31.06-7.69L31.06-64.57Z"/>
  </g>
  <g id="Medium-L" transform="matrix(1 0 0 1 1683.06 1556)">
   <path d="M32.28-67.4C33.9-69.02 36.53-69.02 38.15-67.4L95.02-10.53C96.64-8.91 96.64-6.28 95.02-4.66C93.4-3.04 90.77-3.04 89.15-4.66L32.28-61.53C30.66-63.15 30.66-65.78 32.28-67.4ZM31.06-64.47C31.06-66.76 32.92-68.62 35.21-68.62L92.09-68.62C94.38-68.62 96.24-66.76 96.24-64.47C96.24-62.18 94.38-60.32 92.09-60.32L39.36-60.32L39.36-7.59C39.36-5.3 37.5-3.44 35.21-3.44C32.92-3.44 31.06-5.3 31.06-7.59L31.06-64.47Z"/>
  </g>
  <g id="Regular-L" transform="matrix(1 0 0 1 1387 1556)">
   <path d="M32.09-66.82C33.45-68.19 35.67-68.19 37.04-66.82L93.91-9.95C95.28-8.58 95.28-6.36 93.91-5C92.55-3.63 90.33-3.63 88.96-5L32.09-61.87C30.72-63.24 30.72-65.46 32.09-66.82ZM31.06-64.35C31.06-66.28 32.63-67.85 34.56-67.85L91.44-67.85C93.37-67.85 94.94-66.28 94.94-64.35C94.94-62.41 93.37-60.85 91.44-60.85L38.06-60.85L38.06-7.47C38.06-5.54 36.5-3.97 34.56-3.97C32.63-3.97 31.06-5.54 31.06-7.47L31.06-64.35Z"/>
  </g>
  <g id="Light-L" transform="matrix(1 0 0 1 1091.09 1556)">
   <path d="M31.85-66.1C32.91-67.15 34.62-67.15 35.67-66.1L92.55-9.22C93.6-8.17 93.6-6.46 92.55-5.4C91.49-4.35 89.78-4.35 88.73-5.4L31.85-62.28C30.8-63.33 30.8-65.04 31.85-66.1ZM31.06-64.19C31.06-65.68 32.27-66.89 33.76-66.89L90.64-66.89C92.13-66.89 93.34-65.68 93.34-64.19C93.34-62.7 92.13-61.49 90.64-61.49L36.46-61.49L36.46-7.31C36.46-5.82 35.25-4.61 33.76-4.61C32.27-4.61 31.06-5.82 31.06-7.31L31.06-64.19Z"/>
  </g>
  <g id="Thin-L" transform="matrix(1 0 0 1 795.43 1556)">
   <path d="M31.543-65.15C32.188-65.8 33.232-65.8 33.877-65.15L90.752-8.28C91.396-7.63 91.396-6.59 90.752-5.95C90.107-5.3 89.063-5.3 88.418-5.95L31.543-62.82C30.899-63.47 30.899-64.51 31.543-65.15ZM31.06-63.99C31.06-64.9 31.799-65.64 32.71-65.64L89.585-65.64C90.496-65.64 91.235-64.9 91.235-63.99C91.235-63.08 90.496-62.34 89.585-62.34L34.36-62.34L34.36-7.11C34.36-6.2 33.621-5.46 32.71-5.46C31.799-5.46 31.06-6.2 31.06-7.11L31.06-63.99Z"/>
  </g>
  <g id="Ultralight-L" transform="matrix(1 0 0 1 499.268 1556)">
   <path d="M31.3825-64.64C31.8125-65.07 32.5085-65.07 32.9385-64.64L89.8135-7.77C90.2425-7.34 90.2425-6.64 89.8135-6.21C89.3835-5.78 88.6875-5.78 88.2575-6.21L31.3825-63.09C30.9525-63.52 30.9525-64.21 31.3825-64.64ZM31.0605-63.87C31.0605-64.47 31.5525-64.97 32.1605-64.97L89.0355-64.97C89.6425-64.97 90.1355-64.47 90.1355-63.87C90.1355-63.26 89.6425-62.77 89.0355-62.77L33.2605-62.77L33.2605-6.99C33.2605-6.38 32.7675-5.89 32.1605-5.89C31.5525-5.89 31.0605-6.38 31.0605-6.99L31.0605-63.87Z"/>
  </g>
  <g id="Black-M" transform="matrix(1 0 0 1 2873.08 1126)">
   <path d="M33.14-63.94C35.91-66.71 40.41-66.71 43.18-63.94L87.81-19.32C90.58-16.54 90.58-12.05 87.81-9.28C85.03-6.5 80.54-6.5 77.77-9.28L33.14-53.9C30.37-56.67 30.37-61.17 33.14-63.94ZM31.06-58.92C31.06-62.84 34.24-66.02 38.16-66.02L82.79-66.02C86.71-66.02 89.89-62.84 89.89-58.92C89.89-55 86.71-51.82 82.79-51.82L45.26-51.82L45.26-14.3C45.26-10.38 42.08-7.2 38.16-7.2C34.24-7.2 31.06-10.38 31.06-14.3L31.06-58.92Z"/>
  </g>
  <g id="Heavy-M" transform="matrix(1 0 0 1 2577.22 1126)">
   <path d="M32.89-63.18C35.33-65.62 39.29-65.62 41.73-63.18L86.36-18.56C88.8-16.12 88.8-12.16 86.36-9.72C83.91-7.28 79.96-7.28 77.52-9.72L32.89-54.34C30.45-56.78 30.45-60.74 32.89-63.18ZM31.06-58.76C31.06-62.21 33.86-65.01 37.31-65.01L81.94-65.01C85.39-65.01 88.19-62.21 88.19-58.76C88.19-55.31 85.39-52.51 81.94-52.51L43.56-52.51L43.56-14.14C43.56-10.69 40.76-7.89 37.31-7.89C33.86-7.89 31.06-10.69 31.06-14.14L31.06-58.76Z"/>
  </g>
  <g id="Bold-M" transform="matrix(1 0 0 1 2281.46 1126)">
   <path d="M32.6125-62.325C34.6825-64.395 38.0425-64.395 40.1125-62.325L84.7325-17.695C86.8025-15.625 86.8025-12.275 84.7325-10.205C82.6625-8.135 79.3125-8.135 77.2425-10.205L32.6125-54.825C30.5425-56.895 30.5425-60.255 32.6125-62.325ZM31.0625-58.575C31.0625-61.505 33.4325-63.875 36.3625-63.875L80.9925-63.875C83.9125-63.875 86.2925-61.505 86.2925-58.575C86.2925-55.645 83.9125-53.275 80.9925-53.275L41.6625-53.275L41.6625-13.955C41.6625-11.025 39.2925-8.655 36.3625-8.655C33.4325-8.655 31.0625-11.025 31.0625-13.955L31.0625-58.575Z"/>
  </g>
  <g id="Semibold-M" transform="matrix(1 0 0 1 1985.4 1126)">
   <path d="M32.425-61.74C34.245-63.56 37.185-63.56 39.005-61.74L83.625-17.12C85.445-15.3 85.445-12.36 83.625-10.54C81.805-8.72 78.865-8.72 77.045-10.54L32.425-55.16C30.605-56.98 30.605-59.92 32.425-61.74ZM31.065-58.45C31.065-61.02 33.145-63.1 35.715-63.1L80.335-63.1C82.905-63.1 84.985-61.02 84.985-58.45C84.985-55.88 82.905-53.8 80.335-53.8L40.365-53.8L40.365-13.83C40.365-11.26 38.285-9.18 35.715-9.18C33.145-9.18 31.065-11.26 31.065-13.83L31.065-58.45Z"/>
  </g>
  <g id="Medium-M" transform="matrix(1 0 0 1 1689.19 1126)">
   <path d="M32.275-61.29C33.895-62.91 36.525-62.91 38.145-61.29L82.775-16.66C84.395-15.04 84.395-12.41 82.775-10.79C81.155-9.17 78.525-9.17 76.905-10.79L32.275-55.42C30.655-57.04 30.655-59.67 32.275-61.29ZM31.065-58.35C31.065-60.64 32.925-62.5 35.215-62.5L79.835-62.5C82.125-62.5 83.985-60.64 83.985-58.35C83.985-56.06 82.125-54.2 79.835-54.2L39.365-54.2L39.365-13.73C39.365-11.44 37.505-9.58 35.215-9.58C32.925-9.58 31.065-11.44 31.065-13.73L31.065-58.35Z"/>
  </g>
  <g id="Regular-M" transform="matrix(1 0 0 1 1393.13 1126)">
   <path d="M32.08-60.7C33.45-62.06 35.67-62.06 37.03-60.7L81.66-16.07C83.02-14.71 83.02-12.49 81.66-11.12C80.29-9.76 78.07-9.76 76.71-11.12L32.08-55.75C30.72-57.11 30.72-59.33 32.08-60.7ZM31.06-58.22C31.06-60.15 32.62-61.72 34.56-61.72L79.18-61.72C81.12-61.72 82.68-60.15 82.68-58.22C82.68-56.29 81.12-54.72 79.18-54.72L38.06-54.72L38.06-13.6C38.06-11.66 36.49-10.1 34.56-10.1C32.62-10.1 31.06-11.66 31.06-13.6L31.06-58.22Z"/>
  </g>
  <g id="Light-M" transform="matrix(1 0 0 1 1097.21 1126)">
   <path d="M31.855-59.98C32.905-61.04 34.615-61.04 35.675-59.98L80.295-15.36C81.355-14.3 81.355-12.59 80.295-11.54C79.245-10.48 77.535-10.48 76.475-11.54L31.855-56.16C30.795-57.22 30.795-58.93 31.855-59.98ZM31.065-58.07C31.065-59.56 32.275-60.77 33.765-60.77L78.385-60.77C79.875-60.77 81.085-59.56 81.085-58.07C81.085-56.58 79.875-55.37 78.385-55.37L36.465-55.37L36.465-13.45C36.465-11.96 35.255-10.75 33.765-10.75C32.275-10.75 31.065-11.96 31.065-13.45L31.065-58.07Z"/>
  </g>
  <g id="Thin-M" transform="matrix(1 0 0 1 801.555 1126)">
   <path d="M31.543-59.03C32.188-59.67 33.232-59.67 33.877-59.03L78.502-14.4C79.146-13.76 79.146-12.72 78.502-12.07C77.857-11.43 76.813-11.43 76.168-12.07L31.543-56.7C30.899-57.34 30.899-58.38 31.543-59.03ZM31.06-57.86C31.06-58.77 31.799-59.51 32.71-59.51L77.335-59.51C78.246-59.51 78.985-58.77 78.985-57.86C78.985-56.95 78.246-56.21 77.335-56.21L34.36-56.21L34.36-13.24C34.36-12.33 33.621-11.59 32.71-11.59C31.799-11.59 31.06-12.33 31.06-13.24L31.06-57.86Z"/>
  </g>
  <g id="Ultralight-M" transform="matrix(1 0 0 1 505.393 1126)">
   <path d="M31.3825-58.535C31.8125-58.965 32.5085-58.965 32.9385-58.535L77.5635-13.905C77.9925-13.475 77.9925-12.785 77.5635-12.355C77.1335-11.925 76.4375-11.925 76.0075-12.355L31.3825-56.975C30.9525-57.405 30.9525-58.105 31.3825-58.535ZM31.0605-57.755C31.0605-58.365 31.5525-58.855 32.1605-58.855L76.7855-58.855C77.3925-58.855 77.8855-58.365 77.8855-57.755C77.8855-57.145 77.3925-56.655 76.7855-56.655L33.2605-56.655L33.2605-13.135C33.2605-12.525 32.7675-12.035 32.1605-12.035C31.5525-12.035 31.0605-12.525 31.0605-13.135L31.0605-57.755Z"/>
  </g>
  <g id="Black-S" transform="matrix(1 0 0 1 2877.9 696)">
   <path d="M33.14-59.238C35.91-62.011 40.41-62.011 43.18-59.238L78.18-24.238C80.95-21.465 80.95-16.97 78.18-14.197C75.41-11.424 70.91-11.424 68.14-14.197L33.14-49.197C30.37-51.97 30.37-56.465 33.14-59.238ZM31.06-54.218C31.06-58.139 34.24-61.318 38.16-61.318L73.16-61.318C77.08-61.318 80.26-58.139 80.26-54.218C80.26-50.296 77.08-47.118 73.16-47.118L45.26-47.118L45.26-19.218C45.26-15.296 42.08-12.118 38.16-12.118C34.24-12.118 31.06-15.296 31.06-19.218L31.06-54.218Z"/>
  </g>
  <g id="Heavy-S" transform="matrix(1 0 0 1 2582.03 696)">
   <path d="M32.89-58.471C35.33-60.912 39.29-60.912 41.73-58.471L76.73-23.471C79.17-21.031 79.17-17.073 76.73-14.633C74.29-12.192 70.33-12.192 67.89-14.633L32.89-49.633C30.45-52.073 30.45-56.031 32.89-58.471ZM31.06-54.052C31.06-57.504 33.86-60.302 37.31-60.302L72.31-60.302C75.76-60.302 78.56-57.504 78.56-54.052C78.56-50.6 75.76-47.802 72.31-47.802L43.56-47.802L43.56-19.052C43.56-15.6 40.76-12.802 37.31-12.802C33.86-12.802 31.06-15.6 31.06-19.052L31.06-54.052Z"/>
  </g>
  <g id="Bold-S" transform="matrix(1 0 0 1 2286.27 696)">
   <path d="M32.62-57.408C34.69-59.478 38.04-59.478 40.11-57.408L75.11-22.408C77.18-20.339 77.18-16.983 75.11-14.913C73.04-12.843 69.69-12.843 67.62-14.913L32.62-49.913C30.55-51.983 30.55-55.339 32.62-57.408ZM31.06-53.661C31.06-56.588 33.44-58.961 36.36-58.961L71.36-58.961C74.29-58.961 76.66-56.588 76.66-53.661C76.66-50.734 74.29-48.361 71.36-48.361L41.66-48.361L41.66-18.661C41.66-15.734 39.29-13.361 36.36-13.361C33.44-13.361 31.06-15.734 31.06-18.661L31.06-53.661Z"/>
  </g>
  <g id="Semibold-S" transform="matrix(1 0 0 1 1990.21 696)">
   <path d="M32.42-56.823C34.24-58.639 37.18-58.639 39-56.823L74-21.823C75.81-20.007 75.81-17.063 74-15.247C72.18-13.431 69.24-13.431 67.42-15.247L32.42-50.247C30.61-52.063 30.61-55.007 32.42-56.823ZM31.06-53.535C31.06-56.103 33.14-58.185 35.71-58.185L70.71-58.185C73.28-58.185 75.36-56.103 75.36-53.535C75.36-50.967 73.28-48.885 70.71-48.885L40.36-48.885L40.36-18.535C40.36-15.967 38.28-13.885 35.71-13.885C33.14-13.885 31.06-15.967 31.06-18.535L31.06-53.535Z"/>
  </g>
  <g id="Medium-S" transform="matrix(1 0 0 1 1694 696)">
   <path d="M32.2825-56.3726C33.9025-57.9936 36.5225-57.9936 38.1425-56.3726L73.1425-21.3726C74.7625-19.7516 74.7625-17.1245 73.1425-15.5036C71.5225-13.8826 68.9025-13.8826 67.2825-15.5036L32.2825-50.5036C30.6525-52.1245 30.6525-54.7516 32.2825-56.3726ZM31.0625-53.4375C31.0625-55.7296 32.9225-57.5875 35.2125-57.5875L70.2125-57.5875C72.5025-57.5875 74.3625-55.7296 74.3625-53.4375C74.3625-51.1456 72.5025-49.2875 70.2125-49.2875L39.3625-49.2875L39.3625-18.4375C39.3625-16.1456 37.5025-14.2875 35.2125-14.2875C32.9225-14.2875 31.0625-16.1456 31.0625-18.4375L31.0625-53.4375Z"/>
  </g>
  <g id="Regular-S" transform="matrix(1 0 0 1 1397.94 696)">
   <path d="M32.09-55.7856C33.45-57.1526 35.67-57.1526 37.03-55.7856L72.03-20.7856C73.4-19.4186 73.4-17.2026 72.03-15.8356C70.67-14.4686 68.45-14.4686 67.09-15.8356L32.09-50.8356C30.72-52.2026 30.72-54.4186 32.09-55.7856ZM31.06-53.3106C31.06-55.2435 32.63-56.8106 34.56-56.8106L69.56-56.8106C71.49-56.8106 73.06-55.2435 73.06-53.3106C73.06-51.3776 71.49-49.8106 69.56-49.8106L38.06-49.8106L38.06-18.3106C38.06-16.3776 36.49-14.8106 34.56-14.8106C32.63-14.8106 31.06-16.3776 31.06-18.3106L31.06-53.3106Z"/>
  </g>
  <g id="Light-S" transform="matrix(1 0 0 1 1102.03 696)">
   <path d="M31.85-55.0634C32.91-56.1184 34.62-56.1184 35.67-55.0634L70.67-20.0634C71.72-19.0094 71.72-17.2995 70.67-16.2455C69.62-15.1914 67.91-15.1914 66.85-16.2455L31.85-51.2455C30.8-52.2995 30.8-54.0094 31.85-55.0634ZM31.06-53.1544C31.06-54.6455 32.27-55.8544 33.76-55.8544L68.76-55.8544C70.25-55.8544 71.46-54.6455 71.46-53.1544C71.46-51.6635 70.25-50.4544 68.76-50.4544L36.46-50.4544L36.46-18.1544C36.46-16.6635 35.25-15.4544 33.76-15.4544C32.27-15.4544 31.06-16.6635 31.06-18.1544L31.06-53.1544Z"/>
  </g>
  <g id="Thin-S" transform="matrix(1 0 0 1 806.367 696)">
   <path d="M31.543-54.116C32.187-54.76 33.232-54.76 33.876-54.116L68.876-19.116C69.521-18.472 69.521-17.427 68.876-16.783C68.232-16.138 67.187-16.138 66.543-16.783L31.543-51.783C30.899-52.427 30.899-53.472 31.543-54.116ZM31.06-52.949C31.06-53.861 31.798-54.599 32.71-54.599L67.71-54.599C68.621-54.599 69.36-53.861 69.36-52.949C69.36-52.038 68.621-51.299 67.71-51.299L34.36-51.299L34.36-17.949C34.36-17.038 33.621-16.299 32.71-16.299C31.798-16.299 31.06-17.038 31.06-17.949L31.06-52.949Z"/>
  </g>
  <g id="Ultralight-S" transform="matrix(1 0 0 1 510.206 696)">
   <path d="M31.383-53.618C31.812-54.048 32.509-54.048 32.938-53.618L67.938-18.618C68.368-18.189 68.368-17.492 67.938-17.063C67.509-16.633 66.812-16.633 66.383-17.063L31.383-52.063C30.953-52.492 30.953-53.189 31.383-53.618ZM31.06-52.841C31.06-53.448 31.553-53.941 32.16-53.941L67.16-53.941C67.768-53.941 68.26-53.448 68.26-52.841C68.26-52.233 67.768-51.741 67.16-51.741L33.26-51.741L33.26-17.841C33.26-17.233 32.768-16.741 32.16-16.741C31.553-16.741 31.06-17.233 31.06-17.841L31.06-52.841Z"/>
  </g>
 </g>
</svg>
