<?xml version="1.0" encoding="UTF-8"?>
<!--Generator: Apple Native CoreSVG 175-->
<!DOCTYPE svg
PUBLIC "-//W3C//DTD SVG 1.1//EN"
       "http://www.w3.org/Graphics/SVG/1.1/DTD/svg11.dtd">
<svg version="1.1" xmlns="http://www.w3.org/2000/svg" xmlns:xlink="http://www.w3.org/1999/xlink" width="3300" height="2200">
 <!--glyph: "", point size: 100.0, font version: "17.0d12e1", template writer version: "65.1"-->
 <g id="Notes">
  <rect height="2200" id="artboard" style="fill:white;opacity:1" width="3300" x="0" y="0"/>
  <line style="fill:none;stroke:black;opacity:1;stroke-width:0.5;" x1="263" x2="3036" y1="292" y2="292"/>
  <text style="stroke:none;fill:black;font-family:sans-serif;font-size:13;font-weight:bold;" transform="matrix(1 0 0 1 263 322)">Weight/Scale Variations</text>
  <text style="stroke:none;fill:black;font-family:sans-serif;font-size:13;text-anchor:middle;" transform="matrix(1 0 0 1 559.711 322)">Ultralight</text>
  <text style="stroke:none;fill:black;font-family:sans-serif;font-size:13;text-anchor:middle;" transform="matrix(1 0 0 1 856.422 322)">Thin</text>
  <text style="stroke:none;fill:black;font-family:sans-serif;font-size:13;text-anchor:middle;" transform="matrix(1 0 0 1 1153.13 322)">Light</text>
  <text style="stroke:none;fill:black;font-family:sans-serif;font-size:13;text-anchor:middle;" transform="matrix(1 0 0 1 1449.84 322)">Regular</text>
  <text style="stroke:none;fill:black;font-family:sans-serif;font-size:13;text-anchor:middle;" transform="matrix(1 0 0 1 1746.56 322)">Medium</text>
  <text style="stroke:none;fill:black;font-family:sans-serif;font-size:13;text-anchor:middle;" transform="matrix(1 0 0 1 2043.27 322)">Semibold</text>
  <text style="stroke:none;fill:black;font-family:sans-serif;font-size:13;text-anchor:middle;" transform="matrix(1 0 0 1 2339.98 322)">Bold</text>
  <text style="stroke:none;fill:black;font-family:sans-serif;font-size:13;text-anchor:middle;" transform="matrix(1 0 0 1 2636.69 322)">Heavy</text>
  <text style="stroke:none;fill:black;font-family:sans-serif;font-size:13;text-anchor:middle;" transform="matrix(1 0 0 1 2933.4 322)">Black</text>
  <line style="fill:none;stroke:black;opacity:1;stroke-width:0.5;" x1="263" x2="3036" y1="1903" y2="1903"/>
  <g transform="matrix(1 0 0 1 263 1933)">
   <path d="M9.24805 0.830078Q10.8691 0.830078 12.2949 0.214844Q13.7207-0.400391 14.8096-1.49414Q15.8984-2.58789 16.5186-4.01367Q17.1387-5.43945 17.1387-7.05078Q17.1387-8.66211 16.5186-10.0879Q15.8984-11.5137 14.8047-12.6074Q13.7109-13.7012 12.2852-14.3164Q10.8594-14.9316 9.23828-14.9316Q7.62695-14.9316 6.20117-14.3164Q4.77539-13.7012 3.69141-12.6074Q2.60742-11.5137 1.9873-10.0879Q1.36719-8.66211 1.36719-7.05078Q1.36719-5.43945 1.9873-4.01367Q2.60742-2.58789 3.69629-1.49414Q4.78516-0.400391 6.21094 0.214844Q7.63672 0.830078 9.24805 0.830078ZM9.24805-0.654297Q7.91992-0.654297 6.7627-1.14746Q5.60547-1.64062 4.73145-2.51953Q3.85742-3.39844 3.36426-4.56055Q2.87109-5.72266 2.87109-7.05078Q2.87109-8.37891 3.35938-9.54102Q3.84766-10.7031 4.72168-11.582Q5.5957-12.4609 6.75293-12.9541Q7.91016-13.4473 9.23828-13.4473Q10.5762-13.4473 11.7334-12.9541Q12.8906-12.4609 13.7695-11.582Q14.6484-10.7031 15.1465-9.54102Q15.6445-8.37891 15.6445-7.05078Q15.6445-5.72266 15.1514-4.56055Q14.6582-3.39844 13.7842-2.51953Q12.9102-1.64062 11.748-1.14746Q10.5859-0.654297 9.24805-0.654297ZM5.6543-7.05078Q5.6543-6.72852 5.85938-6.52832Q6.06445-6.32812 6.40625-6.32812L8.51562-6.32812L8.51562-4.20898Q8.51562-3.88672 8.71094-3.67676Q8.90625-3.4668 9.23828-3.4668Q9.56055-3.4668 9.77051-3.67676Q9.98047-3.88672 9.98047-4.20898L9.98047-6.32812L12.0898-6.32812Q12.4219-6.32812 12.627-6.52832Q12.832-6.72852 12.832-7.05078Q12.832-7.38281 12.627-7.58789Q12.4219-7.79297 12.0898-7.79297L9.98047-7.79297L9.98047-9.90234Q9.98047-10.2344 9.77051-10.4443Q9.56055-10.6543 9.23828-10.6543Q8.90625-10.6543 8.71094-10.4443Q8.51562-10.2344 8.51562-9.90234L8.51562-7.79297L6.40625-7.79297Q6.06445-7.79297 5.85938-7.58789Q5.6543-7.38281 5.6543-7.05078Z"/>
  </g>
  <g transform="matrix(1 0 0 1 281.867 1933)">
   <path d="M11.709 2.91016Q13.75 2.91016 15.5518 2.12891Q17.3535 1.34766 18.7305-0.0292969Q20.1074-1.40625 20.8887-3.20801Q21.6699-5.00977 21.6699-7.05078Q21.6699-9.0918 20.8887-10.8936Q20.1074-12.6953 18.7305-14.0723Q17.3535-15.4492 15.5469-16.2305Q13.7402-17.0117 11.6992-17.0117Q9.6582-17.0117 7.85645-16.2305Q6.05469-15.4492 4.68262-14.0723Q3.31055-12.6953 2.5293-10.8936Q1.74805-9.0918 1.74805-7.05078Q1.74805-5.00977 2.5293-3.20801Q3.31055-1.40625 4.6875-0.0292969Q6.06445 1.34766 7.86621 2.12891Q9.66797 2.91016 11.709 2.91016ZM11.709 1.25Q9.98047 1.25 8.47656 0.605469Q6.97266-0.0390625 5.83496-1.17676Q4.69727-2.31445 4.05762-3.81836Q3.41797-5.32227 3.41797-7.05078Q3.41797-8.7793 4.05762-10.2832Q4.69727-11.7871 5.83008-12.9297Q6.96289-14.0723 8.4668-14.7119Q9.9707-15.3516 11.6992-15.3516Q13.4277-15.3516 14.9316-14.7119Q16.4355-14.0723 17.5781-12.9297Q18.7207-11.7871 19.3652-10.2832Q20.0098-8.7793 20.0098-7.05078Q20.0098-5.32227 19.3701-3.81836Q18.7305-2.31445 17.5928-1.17676Q16.4551-0.0390625 14.9463 0.605469Q13.4375 1.25 11.709 1.25ZM7.17773-7.05078Q7.17773-6.69922 7.41211-6.47461Q7.64648-6.25 8.01758-6.25L10.8887-6.25L10.8887-3.36914Q10.8887-2.99805 11.1133-2.76855Q11.3379-2.53906 11.6895-2.53906Q12.0605-2.53906 12.29-2.76855Q12.5195-2.99805 12.5195-3.36914L12.5195-6.25L15.4004-6.25Q15.7715-6.25 16.001-6.47461Q16.2305-6.69922 16.2305-7.05078Q16.2305-7.42188 16.001-7.65137Q15.7715-7.88086 15.4004-7.88086L12.5195-7.88086L12.5195-10.752Q12.5195-11.1328 12.29-11.3623Q12.0605-11.5918 11.6895-11.5918Q11.3379-11.5918 11.1133-11.3574Q10.8887-11.123 10.8887-10.752L10.8887-7.88086L8.01758-7.88086Q7.63672-7.88086 7.40723-7.65137Q7.17773-7.42188 7.17773-7.05078Z"/>
  </g>
  <g transform="matrix(1 0 0 1 305.646 1933)">
   <path d="M14.9707 5.66406Q17.0605 5.66406 18.96 5.01465Q20.8594 4.36523 22.4512 3.19336Q24.043 2.02148 25.2197 0.429688Q26.3965-1.16211 27.0459-3.06641Q27.6953-4.9707 27.6953-7.05078Q27.6953-9.14062 27.0459-11.04Q26.3965-12.9395 25.2197-14.5312Q24.043-16.123 22.4512-17.2998Q20.8594-18.4766 18.9551-19.126Q17.0508-19.7754 14.9609-19.7754Q12.8711-19.7754 10.9717-19.126Q9.07227-18.4766 7.48535-17.2998Q5.89844-16.123 4.72168-14.5312Q3.54492-12.9395 2.90039-11.04Q2.25586-9.14062 2.25586-7.05078Q2.25586-4.9707 2.90527-3.06641Q3.55469-1.16211 4.72656 0.429688Q5.89844 2.02148 7.49023 3.19336Q9.08203 4.36523 10.9814 5.01465Q12.8809 5.66406 14.9707 5.66406ZM14.9707 3.84766Q13.1641 3.84766 11.5283 3.2959Q9.89258 2.74414 8.53516 1.74805Q7.17773 0.751953 6.17676-0.610352Q5.17578-1.97266 4.62891-3.6084Q4.08203-5.24414 4.08203-7.05078Q4.08203-8.86719 4.62891-10.5029Q5.17578-12.1387 6.17188-13.501Q7.16797-14.8633 8.52539-15.8594Q9.88281-16.8555 11.5186-17.4023Q13.1543-17.9492 14.9609-17.9492Q16.7773-17.9492 18.4131-17.4023Q20.0488-16.8555 21.4111-15.8594Q22.7734-14.8633 23.7695-13.501Q24.7656-12.1387 25.3174-10.5029Q25.8691-8.86719 25.8691-7.05078Q25.8789-5.24414 25.332-3.6084Q24.7852-1.97266 23.7842-0.610352Q22.7832 0.751953 21.4209 1.74805Q20.0586 2.74414 18.4229 3.2959Q16.7871 3.84766 14.9707 3.84766ZM9.19922-7.05078Q9.19922-6.66992 9.45801-6.4209Q9.7168-6.17188 10.1172-6.17188L14.0625-6.17188L14.0625-2.2168Q14.0625-1.81641 14.3115-1.55762Q14.5605-1.29883 14.9512-1.29883Q15.3516-1.29883 15.6104-1.55273Q15.8691-1.80664 15.8691-2.2168L15.8691-6.17188L19.8242-6.17188Q20.2246-6.17188 20.4785-6.4209Q20.7324-6.66992 20.7324-7.05078Q20.7324-7.46094 20.4785-7.71484Q20.2246-7.96875 19.8242-7.96875L15.8691-7.96875L15.8691-11.9141Q15.8691-12.3242 15.6104-12.583Q15.3516-12.8418 14.9512-12.8418Q14.5605-12.8418 14.3115-12.583Q14.0625-12.3242 14.0625-11.9141L14.0625-7.96875L10.1172-7.96875Q9.70703-7.96875 9.45312-7.71484Q9.19922-7.46094 9.19922-7.05078Z"/>
  </g>
  <text style="stroke:none;fill:black;font-family:sans-serif;font-size:13;font-weight:bold;" transform="matrix(1 0 0 1 263 1953)">Design Variations</text>
  <text style="stroke:none;fill:black;font-family:sans-serif;font-size:13;" transform="matrix(1 0 0 1 263 1971)">Symbols are supported in up to nine weights and three scales.</text>
  <text style="stroke:none;fill:black;font-family:sans-serif;font-size:13;" transform="matrix(1 0 0 1 263 1989)">For optimal layout with text and other symbols, vertically align</text>
  <text style="stroke:none;fill:black;font-family:sans-serif;font-size:13;" transform="matrix(1 0 0 1 263 2007)">symbols with the adjacent text.</text>
  <line style="fill:none;stroke:#00AEEF;stroke-width:0.5;opacity:1.0;" x1="776" x2="776" y1="1919" y2="1933"/>
  <g transform="matrix(1 0 0 1 776 1933)">
   <path d="M3.31055 0.15625Q3.70117 0.15625 3.91602-0.00976562Q4.13086-0.175781 4.26758-0.585938L5.52734-4.0332L11.2891-4.0332L12.5488-0.585938Q12.6855-0.175781 12.9004-0.00976562Q13.1152 0.15625 13.4961 0.15625Q13.8867 0.15625 14.1162-0.0585938Q14.3457-0.273438 14.3457-0.644531Q14.3457-0.869141 14.2383-1.17188L9.6582-13.3691Q9.48242-13.8184 9.17969-14.043Q8.87695-14.2676 8.4082-14.2676Q7.5-14.2676 7.17773-13.3789L2.59766-1.16211Q2.49023-0.859375 2.49023-0.634766Q2.49023-0.263672 2.70996-0.0537109Q2.92969 0.15625 3.31055 0.15625ZM6.00586-5.51758L8.37891-12.0898L8.42773-12.0898L10.8008-5.51758Z"/>
  </g>
  <line style="fill:none;stroke:#00AEEF;stroke-width:0.5;opacity:1.0;" x1="793.197" x2="793.197" y1="1919" y2="1933"/>
  <text style="stroke:none;fill:black;font-family:sans-serif;font-size:13;font-weight:bold;" transform="matrix(1 0 0 1 776 1953)">Margins</text>
  <text style="stroke:none;fill:black;font-family:sans-serif;font-size:13;" transform="matrix(1 0 0 1 776 1971)">Leading and trailing margins on the left and right side of each symbol</text>
  <text style="stroke:none;fill:black;font-family:sans-serif;font-size:13;" transform="matrix(1 0 0 1 776 1989)">can be adjusted by modifying the x-location of the margin guidelines.</text>
  <text style="stroke:none;fill:black;font-family:sans-serif;font-size:13;" transform="matrix(1 0 0 1 776 2007)">Modifications are automatically applied proportionally to all</text>
  <text style="stroke:none;fill:black;font-family:sans-serif;font-size:13;" transform="matrix(1 0 0 1 776 2025)">scales and weights.</text>
  <g transform="matrix(1 0 0 1 1289 1933)">
   <path d="M2.8418 1.86523L4.54102 3.57422Q5.18555 4.22852 5.90332 4.17969Q6.62109 4.13086 7.31445 3.35938L18.0078-8.42773L17.041-9.4043L6.42578 2.27539Q6.16211 2.57812 5.89355 2.61719Q5.625 2.65625 5.27344 2.30469L4.10156 1.14258Q3.75 0.791016 3.79395 0.522461Q3.83789 0.253906 4.14062-0.0195312L15.6152-10.8203L14.6387-11.7871L3.04688-0.898438Q2.30469-0.214844 2.25098 0.498047Q2.19727 1.21094 2.8418 1.86523ZM9.25781-16.3281Q8.94531-16.0254 8.90625-15.6348Q8.86719-15.2441 9.04297-14.9512Q9.21875-14.6777 9.55566-14.541Q9.89258-14.4043 10.3809-14.5215Q11.4746-14.7754 12.5977-14.7314Q13.7207-14.6875 14.7949-13.9844L14.209-12.5293Q13.9551-11.9043 14.0674-11.4404Q14.1797-10.9766 14.5801-10.5664L16.875-8.25195Q17.2363-7.88086 17.5781-7.82227Q17.9199-7.76367 18.3398-7.8418L19.4043-8.03711L20.0684-7.36328L20.0293-6.80664Q20-6.43555 20.1221-6.12305Q20.2441-5.81055 20.6055-5.44922L21.3672-4.70703Q21.7285-4.3457 22.1533-4.33105Q22.5781-4.31641 22.9297-4.66797L25.8398-7.58789Q26.1914-7.93945 26.1816-8.35449Q26.1719-8.76953 25.8105-9.13086L25.0391-9.89258Q24.6875-10.2539 24.3799-10.3857Q24.0723-10.5176 23.7109-10.4883L23.1348-10.4395L22.4902-11.0742L22.7344-12.1973Q22.832-12.6172 22.6953-12.9834Q22.5586-13.3496 22.1191-13.7891L19.9219-15.9766Q18.6719-17.2168 17.2607-17.8369Q15.8496-18.457 14.4189-18.4814Q12.9883-18.5059 11.665-17.959Q10.3418-17.4121 9.25781-16.3281ZM10.752-15.957Q11.6602-16.6211 12.7002-16.9043Q13.7402-17.1875 14.8047-17.085Q15.8691-16.9824 16.8701-16.5137Q17.8711-16.0449 18.7012-15.2051L21.1328-12.793Q21.3086-12.6172 21.3525-12.4512Q21.3965-12.2852 21.3379-12.0312L21.0156-10.5469L22.5195-9.0625L23.5059-9.12109Q23.6914-9.13086 23.7891-9.09668Q23.8867-9.0625 24.0332-8.91602L24.6094-8.33984L22.168-5.89844L21.5918-6.47461Q21.4453-6.62109 21.4062-6.71875Q21.3672-6.81641 21.377-7.01172L21.4453-7.98828L19.9512-9.47266L18.4277-9.21875Q18.1836-9.16992 18.042-9.2041Q17.9004-9.23828 17.7148-9.41406L15.7129-11.416Q15.5176-11.5918 15.4932-11.7529Q15.4688-11.9141 15.5859-12.1875L16.4648-14.2773Q15.293-15.3711 13.8281-15.791Q12.3633-16.2109 10.8398-15.7617Q10.7227-15.7324 10.6885-15.8057Q10.6543-15.8789 10.752-15.957Z"/>
  </g>
  <text style="stroke:none;fill:black;font-family:sans-serif;font-size:13;font-weight:bold;" transform="matrix(1 0 0 1 1289 1953)">Exporting</text>
  <text style="stroke:none;fill:black;font-family:sans-serif;font-size:13;" transform="matrix(1 0 0 1 1289 1971)">Symbols should be outlined when exporting to ensure the</text>
  <text style="stroke:none;fill:black;font-family:sans-serif;font-size:13;" transform="matrix(1 0 0 1 1289 1989)">design is preserved when submitting to Xcode.</text>
  <text id="template-version" style="stroke:none;fill:black;font-family:sans-serif;font-size:13;text-anchor:end;" transform="matrix(1 0 0 1 3036 1933)">Template v.3.0</text>
  <text style="stroke:none;fill:black;font-family:sans-serif;font-size:13;text-anchor:end;" transform="matrix(1 0 0 1 3036 1951)">Requires Xcode 13 or greater</text>
  <text id="descriptive-name" style="stroke:none;fill:black;font-family:sans-serif;font-size:13;text-anchor:end;" transform="matrix(1 0 0 1 3036 1969)">Generated from corner-up-left</text>
  <text style="stroke:none;fill:black;font-family:sans-serif;font-size:13;text-anchor:end;" transform="matrix(1 0 0 1 3036 1987)">Typeset at 100 points</text>
  <text style="stroke:none;fill:black;font-family:sans-serif;font-size:13;" transform="matrix(1 0 0 1 263 726)">Small</text>
  <text style="stroke:none;fill:black;font-family:sans-serif;font-size:13;" transform="matrix(1 0 0 1 263 1156)">Medium</text>
  <text style="stroke:none;fill:black;font-family:sans-serif;font-size:13;" transform="matrix(1 0 0 1 263 1586)">Large</text>
 </g>
 <g id="Guides">
  <g id="H-reference" style="fill:#27AAE1;stroke:none;" transform="matrix(1 0 0 1 339 696)">
   <path d="M0.976562 0L3.66211 0L29.3457-67.1387L30.0293-67.1387L30.0293-70.459L28.125-70.459ZM11.6699-24.4629L46.9727-24.4629L46.2402-26.709L12.4512-26.709ZM55.127 0L57.7637 0L30.6152-70.459L29.4434-70.459L29.4434-67.1387Z"/>
  </g>
  <line id="Baseline-S" style="fill:none;stroke:#27AAE1;opacity:1;stroke-width:0.5;" x1="263" x2="3036" y1="696" y2="696"/>
  <line id="Capline-S" style="fill:none;stroke:#27AAE1;opacity:1;stroke-width:0.5;" x1="263" x2="3036" y1="625.541" y2="625.541"/>
  <g id="H-reference" style="fill:#27AAE1;stroke:none;" transform="matrix(1 0 0 1 339 1126)">
   <path d="M0.976562 0L3.66211 0L29.3457-67.1387L30.0293-67.1387L30.0293-70.459L28.125-70.459ZM11.6699-24.4629L46.9727-24.4629L46.2402-26.709L12.4512-26.709ZM55.127 0L57.7637 0L30.6152-70.459L29.4434-70.459L29.4434-67.1387Z"/>
  </g>
  <line id="Baseline-M" style="fill:none;stroke:#27AAE1;opacity:1;stroke-width:0.5;" x1="263" x2="3036" y1="1126" y2="1126"/>
  <line id="Capline-M" style="fill:none;stroke:#27AAE1;opacity:1;stroke-width:0.5;" x1="263" x2="3036" y1="1055.54" y2="1055.54"/>
  <g id="H-reference" style="fill:#27AAE1;stroke:none;" transform="matrix(1 0 0 1 339 1556)">
   <path d="M0.976562 0L3.66211 0L29.3457-67.1387L30.0293-67.1387L30.0293-70.459L28.125-70.459ZM11.6699-24.4629L46.9727-24.4629L46.2402-26.709L12.4512-26.709ZM55.127 0L57.7637 0L30.6152-70.459L29.4434-70.459L29.4434-67.1387Z"/>
  </g>
  <line id="Baseline-L" style="fill:none;stroke:#27AAE1;opacity:1;stroke-width:0.5;" x1="263" x2="3036" y1="1556" y2="1556"/>
  <line id="Capline-L" style="fill:none;stroke:#27AAE1;opacity:1;stroke-width:0.5;" x1="263" x2="3036" y1="1485.54" y2="1485.54"/>
  <line id="left-margin-Regular-M" style="fill:none;stroke:#00AEEF;stroke-width:0.5;opacity:1.0;" x1="1392.79" x2="1392.79" y1="1030.78" y2="1150.12"/>
  <line id="right-margin-Regular-M" style="fill:none;stroke:#00AEEF;stroke-width:0.5;opacity:1.0;" x1="1506.9" x2="1506.9" y1="1030.78" y2="1150.12"/>
 </g>
 <g id="Symbols">
  <g id="Black-L" transform="matrix(1 0 0 1 2862.95 1556)">
   <path d="M58.23-87.14C61-84.37 61-79.87 58.23-77.1L34.81-53.68L58.23-30.27C61-27.49 61-23 58.23-20.23C55.46-17.45 50.96-17.45 48.19-20.23L19.75-48.66C16.98-51.44 16.98-55.93 19.75-58.7L48.19-87.14C50.96-89.92 55.46-89.92 58.23-87.14ZM17.67-53.68C17.67-57.61 20.85-60.78 24.77-60.78L93.02-60.78C100.94-60.78 108.53-57.64 114.13-52.04C119.73-46.44 122.87-38.85 122.87-30.93L122.87 8.88C122.87 12.8 119.69 15.98 115.77 15.98C111.85 15.98 108.67 12.8 108.67 8.88L108.67-30.93C108.67-35.09 107.02-39.07 104.09-42C101.15-44.94 97.17-46.58 93.02-46.58L24.77-46.58C20.85-46.58 17.67-49.76 17.67-53.68Z"/>
  </g>
  <g id="Heavy-L" transform="matrix(1 0 0 1 2567.08 1556)">
   <path d="M56.77-86.37C59.22-83.93 59.22-79.97 56.77-77.53L32.76-53.51L56.77-29.49C59.22-27.05 59.22-23.1 56.77-20.66C54.33-18.22 50.38-18.22 47.94-20.66L19.5-49.09C17.06-51.53 17.06-55.49 19.5-57.93L47.94-86.37C50.38-88.81 54.33-88.81 56.77-86.37ZM17.67-53.51C17.67-56.96 20.47-59.76 23.92-59.76L92.17-59.76C99.86-59.76 107.24-56.71 112.67-51.27C118.11-45.83 121.17-38.45 121.17-30.76L121.17 9.05C121.17 12.5 118.37 15.3 114.92 15.3C111.47 15.3 108.67 12.5 108.67 9.05L108.67-30.76C108.67-35.14 106.93-39.34 103.83-42.43C100.74-45.52 96.54-47.26 92.17-47.26L23.92-47.26C20.47-47.26 17.67-50.06 17.67-53.51Z"/>
  </g>
  <g id="Bold-L" transform="matrix(1 0 0 1 2271.32 1556)">
   <path d="M55.16-85.515C57.23-83.445 57.23-80.085 55.16-78.015L30.47-53.325L55.16-28.635C57.23-26.565 57.23-23.215 55.16-21.145C53.09-19.075 49.73-19.075 47.66-21.145L19.23-49.585C17.16-51.655 17.16-55.005 19.23-57.075L47.66-85.515C49.73-87.585 53.09-87.585 55.16-85.515ZM17.67-53.325C17.67-56.255 20.05-58.625 22.97-58.625L91.22-58.625C98.66-58.625 105.8-55.675 111.06-50.415C116.32-45.155 119.27-38.015 119.27-30.575L119.27 9.235C119.27 12.165 116.9 14.535 113.97 14.535C111.05 14.535 108.67 12.165 108.67 9.235L108.67-30.575C108.67-35.205 106.84-39.645 103.56-42.915C100.29-46.195 95.85-48.025 91.22-48.025L22.97-48.025C20.05-48.025 17.67-50.405 17.67-53.325Z"/>
  </g>
  <g id="Semibold-L" transform="matrix(1 0 0 1 1975.26 1556)">
   <path d="M54.05-84.925C55.86-83.105 55.86-80.165 54.05-78.345L28.9-53.195L54.05-28.045C55.86-26.235 55.86-23.285 54.05-21.475C52.23-19.655 49.29-19.655 47.47-21.475L19.03-49.905C17.22-51.725 17.22-54.665 19.03-56.485L47.47-84.925C49.29-86.735 52.23-86.735 54.05-84.925ZM17.67-53.195C17.67-55.765 19.75-57.845 22.32-57.845L90.57-57.845C97.84-57.845 104.81-54.955 109.94-49.825C115.08-44.685 117.97-37.715 117.97-30.445L117.97 9.365C117.97 11.935 115.89 14.015 113.32 14.015C110.75 14.015 108.67 11.935 108.67 9.365L108.67-30.445C108.67-35.245 106.76-39.855 103.37-43.245C99.97-46.635 95.37-48.545 90.57-48.545L22.32-48.545C19.75-48.545 17.67-50.625 17.67-53.195Z"/>
  </g>
  <g id="Medium-L" transform="matrix(1 0 0 1 1679.05 1556)">
   <path d="M53.1925-84.47C54.8125-82.85 54.8125-80.23 53.1925-78.6L27.6925-53.1L53.1925-27.6C54.8125-25.98 54.8125-23.35 53.1925-21.73C51.5725-20.11 48.9425-20.11 47.3225-21.73L18.8925-50.17C17.2625-51.79 17.2625-54.42 18.8925-56.04L47.3225-84.47C48.9425-86.09 51.5725-86.09 53.1925-84.47ZM17.6725-53.1C17.6725-55.39 19.5325-57.25 21.8225-57.25L90.0725-57.25C97.2025-57.25 104.052-54.42 109.092-49.37C114.142-44.33 116.973-37.49 116.973-30.35L116.973 9.46C116.973 11.75 115.112 13.61 112.822 13.61C110.533 13.61 108.672 11.75 108.672 9.46L108.672-30.35C108.672-35.28 106.713-40.02 103.223-43.5C99.733-46.99 95.0025-48.95 90.0725-48.95L21.8225-48.95C19.5325-48.95 17.6725-50.81 17.6725-53.1Z"/>
  </g>
  <g id="Regular-L" transform="matrix(1 0 0 1 1382.99 1556)">
   <path d="M52.08-83.89C53.45-82.52 53.45-80.3 52.08-78.94L26.12-52.97L52.08-27.01C53.45-25.64 53.45-23.43 52.08-22.06C50.72-20.69 48.5-20.69 47.13-22.06L18.7-50.5C17.33-51.86 17.33-54.08 18.7-55.45L47.13-83.89C48.5-85.25 50.72-85.25 52.08-83.89ZM17.67-52.97C17.67-54.91 19.24-56.47 21.17-56.47L89.42-56.47C96.38-56.47 103.06-53.71 107.98-48.78C112.9-43.86 115.67-37.18 115.67-30.22L115.67 9.59C115.67 11.52 114.1 13.09 112.17 13.09C110.24 13.09 108.67 11.52 108.67 9.59L108.67-30.22C108.67-35.33 106.64-40.22 103.03-43.83C99.42-47.44 94.53-49.47 89.42-49.47L21.17-49.47C19.24-49.47 17.67-51.04 17.67-52.97Z"/>
  </g>
  <g id="Light-L" transform="matrix(1 0 0 1 1087.08 1556)">
   <path d="M50.72-83.165C51.77-82.105 51.77-80.395 50.72-79.345L24.19-52.815L50.72-26.285C51.77-25.235 51.77-23.525 50.72-22.475C49.66-21.415 47.95-21.415 46.9-22.475L18.46-50.905C17.41-51.965 17.41-53.675 18.46-54.725L46.9-83.165C47.95-84.215 49.66-84.215 50.72-83.165ZM17.67-52.815C17.67-54.305 18.88-55.515 20.37-55.515L88.62-55.515C95.37-55.515 101.84-52.835 106.62-48.065C111.39-43.295 114.07-36.815 114.07-30.065L114.07 9.745C114.07 11.235 112.86 12.445 111.37 12.445C109.88 12.445 108.67 11.235 108.67 9.745L108.67-30.065C108.67-35.385 106.56-40.485 102.8-44.245C99.04-48.005 93.94-50.115 88.62-50.115L20.37-50.115C18.88-50.115 17.67-51.325 17.67-52.815Z"/>
  </g>
  <g id="Thin-L" transform="matrix(1 0 0 1 791.417 1556)">
   <path d="M48.924-82.22C49.568-81.57 49.568-80.53 48.924-79.88L21.653-52.61L48.924-25.34C49.568-24.7 49.568-23.65 48.924-23.01C48.279-22.36 47.235-22.36 46.59-23.01L18.153-51.44C17.509-52.09 17.509-53.13 18.153-53.78L46.59-82.22C47.235-82.86 48.279-82.86 48.924-82.22ZM17.67-52.61C17.67-53.52 18.408-54.26 19.32-54.26L87.57-54.26C94.041-54.26 100.247-51.69 104.823-47.11C109.399-42.54 111.97-36.33 111.97-29.86L111.97 9.95C111.97 10.86 111.231 11.6 110.32 11.6C109.408 11.6 108.67 10.86 108.67 9.95L108.67-29.86C108.67-35.46 106.447-40.82 102.49-44.78C98.533-48.74 93.166-50.96 87.57-50.96L19.32-50.96C18.408-50.96 17.67-51.7 17.67-52.61Z"/>
  </g>
  <g id="Ultralight-L" transform="matrix(1 0 0 1 495.256 1556)">
   <path d="M47.986-81.725C48.415-81.295 48.415-80.595 47.986-80.165L20.326-52.505L47.986-24.845C48.415-24.425 48.415-23.725 47.986-23.295C47.556-22.865 46.86-22.865 46.43-23.295L17.993-51.735C17.563-52.165 17.563-52.855 17.993-53.285L46.43-81.725C46.86-82.155 47.556-82.155 47.986-81.725ZM17.67-52.505C17.67-53.115 18.163-53.605 18.77-53.605L87.02-53.605C93.346-53.605 99.412-51.095 103.885-46.625C108.358-42.155 110.87-36.085 110.87-29.755L110.87 10.055C110.87 10.665 110.378 11.155 109.77 11.155C109.163 11.155 108.67 10.665 108.67 10.055L108.67-29.755C108.67-35.505 106.389-41.005 102.329-45.065C98.269-49.125 92.762-51.405 87.02-51.405L18.77-51.405C18.163-51.405 17.67-51.905 17.67-52.505Z"/>
  </g>
  <g id="Black-M" transform="matrix(1 0 0 1 2872.75 1126)">
   <path d="M52.11-77.335C54.88-74.565 54.88-70.065 52.11-67.295L34.81-50.005L52.11-32.715C54.88-29.935 54.88-25.445 52.11-22.675C49.33-19.895 44.84-19.895 42.07-22.675L19.75-44.985C16.98-47.755 16.98-52.255 19.75-55.025L42.07-77.335C44.84-80.105 49.33-80.105 52.11-77.335ZM17.67-50.005C17.67-53.925 20.85-57.105 24.77-57.105L78.32-57.105C84.94-57.105 91.29-54.475 95.97-49.795C100.64-45.115 103.27-38.775 103.27-32.155L103.27-0.915C103.27 3.005 100.09 6.185 96.17 6.185C92.25 6.185 89.07 3.005 89.07-0.915L89.07-32.155C89.07-35.005 87.94-37.735 85.92-39.755C83.91-41.775 81.17-42.905 78.32-42.905L24.77-42.905C20.85-42.905 17.67-46.085 17.67-50.005Z"/>
  </g>
  <g id="Heavy-M" transform="matrix(1 0 0 1 2576.88 1126)">
   <path d="M50.66-76.57C53.1-74.13 53.1-70.17 50.66-67.73L32.76-49.84L50.66-31.94C53.1-29.5 53.1-25.55 50.66-23.11C48.22-20.66 44.26-20.66 41.82-23.11L19.5-45.42C17.06-47.86 17.06-51.82 19.5-54.26L41.82-76.57C44.26-79.01 48.22-79.01 50.66-76.57ZM17.67-49.84C17.67-53.29 20.47-56.09 23.92-56.09L77.47-56.09C83.87-56.09 90-53.55 94.52-49.03C99.04-44.51 101.57-38.38 101.57-31.99L101.57-0.75C101.57 2.7 98.78 5.5 95.32 5.5C91.87 5.5 89.07 2.7 89.07-0.75L89.07-31.99C89.07-35.06 87.85-38.01 85.68-40.19C83.5-42.37 80.55-43.59 77.47-43.59L23.92-43.59C20.47-43.59 17.67-46.39 17.67-49.84Z"/>
  </g>
  <g id="Bold-M" transform="matrix(1 0 0 1 2281.12 1126)">
   <path d="M49.03-75.715C51.1-73.645 51.1-70.285 49.03-68.215L30.47-49.655L49.03-31.085C51.1-29.015 51.1-25.665 49.03-23.595C46.96-21.525 43.61-21.525 41.54-23.595L19.23-45.905C17.16-47.975 17.16-51.335 19.23-53.405L41.54-75.715C43.61-77.785 46.96-77.785 49.03-75.715ZM17.67-49.655C17.67-52.585 20.05-54.955 22.97-54.955L76.52-54.955C82.66-54.955 88.55-52.515 92.89-48.175C97.24-43.835 99.67-37.945 99.67-31.805L99.67-0.565C99.67 2.365 97.3 4.735 94.37 4.735C91.45 4.735 89.07 2.365 89.07-0.565L89.07-31.805C89.07-35.135 87.75-38.325 85.4-40.675C83.05-43.035 79.85-44.355 76.52-44.355L22.97-44.355C20.05-44.355 17.67-46.725 17.67-49.655Z"/>
  </g>
  <g id="Semibold-M" transform="matrix(1 0 0 1 1985.06 1126)">
   <path d="M47.92-75.13C49.74-73.31 49.74-70.37 47.92-68.55L28.9-49.53L47.92-30.51C49.74-28.69 49.74-25.74 47.92-23.93C46.1-22.11 43.16-22.11 41.34-23.93L19.03-46.24C17.22-48.06 17.22-51 19.03-52.82L41.34-75.13C43.16-76.95 46.1-76.95 47.92-75.13ZM17.67-49.53C17.67-52.1 19.75-54.18 22.32-54.18L75.87-54.18C81.84-54.18 87.56-51.81 91.78-47.59C96-43.37 98.37-37.65 98.37-31.68L98.37-0.44C98.37 2.13 96.29 4.21 93.72 4.21C91.15 4.21 89.07 2.13 89.07-0.44L89.07-31.68C89.07-35.18 87.68-38.54 85.2-41.01C82.73-43.49 79.37-44.88 75.87-44.88L22.32-44.88C19.75-44.88 17.67-46.96 17.67-49.53Z"/>
  </g>
  <g id="Medium-M" transform="matrix(1 0 0 1 1688.85 1126)">
   <path d="M47.07-74.68C48.69-73.06 48.69-70.43 47.07-68.81L27.69-49.43L47.07-30.05C48.69-28.43 48.69-25.8 47.07-24.18C45.45-22.56 42.82-22.56 41.2-24.18L18.89-46.5C17.27-48.12 17.27-50.74 18.89-52.36L41.2-74.68C42.82-76.3 45.45-76.3 47.07-74.68ZM17.67-49.43C17.67-51.72 19.53-53.58 21.82-53.58L75.37-53.58C81.21-53.58 86.8-51.26 90.93-47.14C95.05-43.01 97.37-37.41 97.37-31.58L97.37-0.34C97.37 1.95 95.51 3.81 93.22 3.81C90.93 3.81 89.07 1.95 89.07-0.34L89.07-31.58C89.07-35.21 87.63-38.7 85.06-41.27C82.49-43.84 79-45.28 75.37-45.28L21.82-45.28C19.53-45.28 17.67-47.14 17.67-49.43Z"/>
  </g>
  <g id="Regular-M" transform="matrix(1 0 0 1 1392.79 1126)">
   <path d="M45.96-74.085C47.32-72.725 47.32-70.505 45.96-69.135L26.12-49.305L45.96-29.465C47.32-28.095 47.32-25.885 45.96-24.515C44.59-23.145 42.38-23.145 41.01-24.515L18.7-46.825C17.33-48.195 17.33-50.415 18.7-51.775L41.01-74.085C42.38-75.455 44.59-75.455 45.96-74.085ZM17.67-49.305C17.67-51.235 19.24-52.805 21.17-52.805L74.72-52.805C80.38-52.805 85.81-50.555 89.82-46.545C93.82-42.545 96.07-37.115 96.07-31.455L96.07-0.215C96.07 1.715 94.5 3.285 92.57 3.285C90.64 3.285 89.07 1.715 89.07-0.215L89.07-31.455C89.07-35.255 87.56-38.905 84.87-41.595C82.18-44.295 78.53-45.805 74.72-45.805L21.17-45.805C19.24-45.805 17.67-47.365 17.67-49.305Z"/>
  </g>
  <g id="Light-M" transform="matrix(1 0 0 1 1096.88 1126)">
   <path d="M44.59-73.365C45.65-72.305 45.65-70.595 44.59-69.545L24.19-49.145L44.59-28.735C45.65-27.685 45.65-25.975 44.59-24.915C43.54-23.865 41.83-23.865 40.77-24.915L18.46-47.235C17.41-48.285 17.41-49.995 18.46-51.055L40.77-73.365C41.83-74.415 43.54-74.415 44.59-73.365ZM17.67-49.145C17.67-50.635 18.88-51.845 20.37-51.845L73.92-51.845C79.37-51.845 84.6-49.675 88.45-45.825C92.3-41.965 94.47-36.745 94.47-31.295L94.47-0.055C94.47 1.435 93.26 2.645 91.77 2.645C90.28 2.645 89.07 1.435 89.07-0.055L89.07-31.295C89.07-35.305 87.47-39.165 84.63-42.005C81.79-44.845 77.94-46.445 73.92-46.445L20.37-46.445C18.88-46.445 17.67-47.655 17.67-49.145Z"/>
  </g>
  <g id="Thin-M" transform="matrix(1 0 0 1 801.217 1126)">
   <path d="M42.8-72.42C43.444-71.77 43.444-70.73 42.8-70.09L21.654-48.94L42.8-27.79C43.444-27.15 43.444-26.1 42.8-25.46C42.155-24.82 41.111-24.82 40.466-25.46L18.154-47.77C17.509-48.42 17.509-49.46 18.154-50.11L40.466-72.42C41.111-73.06 42.155-73.06 42.8-72.42ZM17.67-48.94C17.67-49.85 18.409-50.59 19.32-50.59L72.87-50.59C78.042-50.59 83.002-48.54 86.659-44.88C90.316-41.22 92.37-36.26 92.37-31.09L92.37 0.15C92.37 1.06 91.632 1.8 90.72 1.8C89.809 1.8 89.07 1.06 89.07 0.15L89.07-31.09C89.07-35.39 87.364-39.51 84.326-42.54C81.287-45.58 77.167-47.29 72.87-47.29L19.32-47.29C18.409-47.29 17.67-48.03 17.67-48.94Z"/>
  </g>
  <g id="Ultralight-M" transform="matrix(1 0 0 1 505.056 1126)">
   <path d="M41.861-71.925C42.29-71.495 42.29-70.795 41.861-70.365L20.326-48.835L41.861-27.295C42.29-26.865 42.29-26.175 41.861-25.745C41.431-25.315 40.734-25.315 40.305-25.745L17.992-48.055C17.563-48.485 17.563-49.185 17.992-49.615L40.305-71.925C40.734-72.355 41.431-72.355 41.861-71.925ZM17.67-48.835C17.67-49.445 18.163-49.935 18.77-49.935L72.32-49.935C77.346-49.935 82.166-47.935 85.72-44.385C89.274-40.825 91.27-36.005 91.27-30.985L91.27 0.255C91.27 0.865 90.778 1.355 90.17 1.355C89.563 1.355 89.07 0.865 89.07 0.255L89.07-30.985C89.07-35.425 87.305-39.685 84.164-42.825C81.023-45.965 76.763-47.735 72.32-47.735L18.77-47.735C18.163-47.735 17.67-48.225 17.67-48.835Z"/>
  </g>
  <g id="Black-S" transform="matrix(1 0 0 1 2880.45 696)">
   <path d="M47.29-69.7405C50.06-66.9675 50.06-62.4725 47.29-59.6995L34.81-47.2204L47.29-34.7405C50.06-31.9675 50.06-27.4725 47.29-24.6995C44.52-21.9264 40.02-21.9264 37.25-24.6995L19.75-42.1995C16.98-44.9725 16.98-49.4675 19.75-52.2405L37.25-69.7405C40.02-72.5134 44.52-72.5134 47.29-69.7405ZM17.67-47.2204C17.67-51.1415 20.85-54.3205 24.77-54.3205L66.77-54.3205C72.37-54.3205 77.73-52.0975 81.69-48.1405C85.65-44.1835 87.87-38.8164 87.87-33.2204L87.87-8.72047C87.87-4.79847 84.69-1.62047 80.77-1.62047C76.85-1.62047 73.67-4.79847 73.67-8.72047L73.67-33.2204C73.67-35.0505 72.94-36.8055 71.65-38.0994C70.36-39.3934 68.6-40.1205 66.77-40.1205L24.77-40.1205C20.85-40.1205 17.67-43.2985 17.67-47.2204Z"/>
  </g>
  <g id="Heavy-S" transform="matrix(1 0 0 1 2584.58 696)">
   <path d="M45.84-68.9715C48.28-66.5314 48.28-62.5734 45.84-60.1334L32.76-47.0524L45.84-33.9715C48.28-31.5314 48.28-27.5734 45.84-25.1334C43.4-22.6925 39.44-22.6925 37-25.1334L19.5-42.6334C17.06-45.0734 17.06-49.0314 19.5-51.4715L37-68.9715C39.44-71.4124 43.4-71.4124 45.84-68.9715ZM17.67-47.0524C17.67-50.5044 20.47-53.3024 23.92-53.3024L65.92-53.3024C71.29-53.3024 76.44-51.1694 80.24-47.3714C84.04-43.5734 86.17-38.4235 86.17-33.0524L86.17-8.5525C86.17-5.1005 83.37-2.3025 79.92-2.3025C76.47-2.3025 73.67-5.1005 73.67-8.5525L73.67-33.0524C73.67-35.1074 72.85-37.0794 71.4-38.5324C69.95-39.9864 67.98-40.8024 65.92-40.8024L23.92-40.8024C20.47-40.8024 17.67-43.6004 17.67-47.0524Z"/>
  </g>
  <g id="Bold-S" transform="matrix(1 0 0 1 2288.82 696)">
   <path d="M44.22-67.908C46.29-65.839 46.29-62.483 44.22-60.413L30.47-46.661L44.22-32.908C46.29-30.839 46.29-27.483 44.22-25.413C42.15-23.343 38.8-23.343 36.73-25.413L19.23-42.913C17.16-44.983 17.16-48.339 19.23-50.408L36.73-67.908C38.8-69.978 42.15-69.978 44.22-67.908ZM17.67-46.661C17.67-49.588 20.05-51.961 22.97-51.961L64.97-51.961C70.09-51.961 75-49.927 78.62-46.308C82.24-42.688 84.27-37.779 84.27-32.661L84.27-8.161C84.27-5.234 81.9-2.861 78.97-2.861C76.05-2.861 73.67-5.234 73.67-8.161L73.67-32.661C73.67-34.968 72.76-37.181 71.13-38.813C69.49-40.444 67.28-41.361 64.97-41.361L22.97-41.361C20.05-41.361 17.67-43.734 17.67-46.661Z"/>
  </g>
  <g id="Semibold-S" transform="matrix(1 0 0 1 1992.76 696)">
   <path d="M43.11-67.319C44.92-65.504 44.92-62.559 43.11-60.743L28.9-46.531L43.11-32.319C44.92-30.504 44.92-27.559 43.11-25.743C41.29-23.927 38.35-23.927 36.53-25.743L19.03-43.243C17.22-45.059 17.22-48.004 19.03-49.819L36.53-67.319C38.35-69.135 41.29-69.135 43.11-67.319ZM17.67-46.531C17.67-49.1 19.75-51.181 22.32-51.181L64.32-51.181C69.27-51.181 74.01-49.217 77.51-45.719C81-42.221 82.97-37.478 82.97-32.531L82.97-8.031C82.97-5.463 80.89-3.381 78.32-3.381C75.75-3.381 73.67-5.463 73.67-8.031L73.67-32.531C73.67-35.011 72.68-37.389 70.93-39.143C69.18-40.896 66.8-41.881 64.32-41.881L22.32-41.881C19.75-41.881 17.67-43.963 17.67-46.531Z"/>
  </g>
  <g id="Medium-S" transform="matrix(1 0 0 1 1696.55 696)">
   <path d="M42.2525-66.8685C43.8725-65.2475 43.8725-62.6204 42.2525-60.9994L27.6925-46.4335L42.2525-31.8685C43.8725-30.2475 43.8725-27.6204 42.2525-25.9994C40.6325-24.3785 38.0125-24.3785 36.3925-25.9994L18.8925-43.4994C17.2625-45.1204 17.2625-47.7475 18.8925-49.3685L36.3925-66.8685C38.0125-68.4894 40.6325-68.4894 42.2525-66.8685ZM17.6725-46.4335C17.6725-48.7254 19.5325-50.5835 21.8225-50.5835L63.8225-50.5835C68.6325-50.5835 73.2525-48.6715 76.6525-45.2675C80.0625-41.8644 81.9725-37.2475 81.9725-32.4335L81.9725-7.93347C81.9725-5.64148 80.1125-3.78347 77.8225-3.78347C75.5325-3.78347 73.6725-5.64148 73.6725-7.93347L73.6725-32.4335C73.6725-35.0465 72.6325-37.5515 70.7825-39.3984C68.9425-41.2465 66.4325-42.2834 63.8225-42.2834L21.8225-42.2834C19.5325-42.2834 17.6725-44.1415 17.6725-46.4335Z"/>
  </g>
  <g id="Regular-S" transform="matrix(1 0 0 1 1400.49 696)">
   <path d="M41.14-66.2835C42.51-64.9165 42.51-62.7005 41.14-61.3335L26.12-46.3084L41.14-31.2835C42.51-29.9165 42.51-27.7005 41.14-26.3335C39.78-24.9665 37.56-24.9665 36.2-26.3335L18.7-43.8335C17.33-45.2005 17.33-47.4165 18.7-48.7835L36.2-66.2835C37.56-67.6505 39.78-67.6505 41.14-66.2835ZM17.67-46.3084C17.67-48.2415 19.24-49.8084 21.17-49.8084L63.17-49.8084C67.81-49.8084 72.26-47.9645 75.54-44.6825C78.83-41.4005 80.67-36.9495 80.67-32.3084L80.67-7.8085C80.67-5.8755 79.1-4.3085 77.17-4.3085C75.24-4.3085 73.67-5.8755 73.67-7.8085L73.67-32.3084C73.67-35.0935 72.56-37.7635 70.59-39.7335C68.63-41.7024 65.95-42.8084 63.17-42.8084L21.17-42.8084C19.24-42.8084 17.67-44.3755 17.67-46.3084Z"/>
  </g>
  <g id="Light-S" transform="matrix(1 0 0 1 1104.58 696)">
   <path d="M39.78-65.5604C40.83-64.5065 40.83-62.7964 39.78-61.7424L24.19-46.1514L39.78-30.5604C40.83-29.5065 40.83-27.7964 39.78-26.7424C38.73-25.6884 37.02-25.6884 35.96-26.7424L18.46-44.2424C17.41-45.2964 17.41-47.0065 18.46-48.0604L35.96-65.5604C37.02-66.6154 38.73-66.6154 39.78-65.5604ZM17.67-46.1514C17.67-47.6424 18.88-48.8514 20.37-48.8514L62.37-48.8514C66.8-48.8514 71.05-47.0925 74.18-43.9604C77.31-40.8285 79.07-36.5804 79.07-32.1514L79.07-7.6515C79.07-6.1605 77.86-4.9515 76.37-4.9515C74.88-4.9515 73.67-6.1605 73.67-7.6515L73.67-32.1514C73.67-35.1484 72.48-38.0224 70.36-40.1424C68.24-42.2614 65.37-43.4514 62.37-43.4514L20.37-43.4514C18.88-43.4514 17.67-44.6604 17.67-46.1514Z"/>
  </g>
  <g id="Thin-S" transform="matrix(1 0 0 1 808.917 696)">
   <path d="M37.986-64.6124C38.631-63.9684 38.631-62.9235 37.986-62.2794L21.653-45.9456L37.986-29.6124C38.631-28.9684 38.631-27.9235 37.986-27.2794C37.342-26.6345 36.297-26.6345 35.653-27.2794L18.153-44.7794C17.509-45.4235 17.509-46.4684 18.153-47.1124L35.653-64.6124C36.297-65.2574 37.342-65.2574 37.986-64.6124ZM17.67-45.9456C17.67-46.8574 18.408-47.5956 19.32-47.5956L61.32-47.5956C65.47-47.5956 69.451-45.9475 72.386-43.0126C75.321-40.0774 76.97-36.0965 76.97-31.9456L76.97-7.4455C76.97-6.5345 76.231-5.7955 75.32-5.7955C74.408-5.7955 73.67-6.5345 73.67-7.4455L73.67-31.9456C73.67-35.2215 72.368-38.3624 70.052-40.6784C67.736-42.9946 64.595-44.2954 61.32-44.2954L19.32-44.2954C18.408-44.2954 17.67-45.0344 17.67-45.9456Z"/>
  </g>
  <g id="Ultralight-S" transform="matrix(1 0 0 1 512.756 696)">
   <path d="M37.048-64.119C37.478-63.69 37.478-62.993 37.048-62.564L20.326-45.842L37.048-29.119C37.478-28.69 37.478-27.993 37.048-27.564C36.619-27.134 35.922-27.134 35.493-27.564L17.993-45.064C17.563-45.493 17.563-46.19 17.993-46.619L35.493-64.119C35.922-64.549 36.619-64.549 37.048-64.119ZM17.67-45.842C17.67-46.449 18.163-46.942 18.77-46.942L60.77-46.942C64.775-46.942 68.616-45.351 71.448-42.519C74.279-39.687 75.87-35.846 75.87-31.842L75.87-7.342C75.87-6.734 75.378-6.242 74.77-6.242C74.163-6.242 73.67-6.734 73.67-7.342L73.67-31.842C73.67-35.263 72.311-38.544 69.892-40.963C67.473-43.382 64.192-44.742 60.77-44.742L18.77-44.742C18.163-44.742 17.67-45.234 17.67-45.842Z"/>
  </g>
 </g>
</svg>
