<?xml version="1.0" encoding="UTF-8"?>
<!--Generator: Apple Native CoreSVG 175-->
<!DOCTYPE svg
PUBLIC "-//W3C//DTD SVG 1.1//EN"
       "http://www.w3.org/Graphics/SVG/1.1/DTD/svg11.dtd">
<svg version="1.1" xmlns="http://www.w3.org/2000/svg" xmlns:xlink="http://www.w3.org/1999/xlink" width="3300" height="2200">
 <!--glyph: "", point size: 100.0, font version: "17.0d12e1", template writer version: "65.1"-->
 <style>.hierarchical-0:secondary {fill:#4D4D4D}
.hierarchical-1:primary {fill:#212121}

.SFSymbolsPreview212121 {fill:#212121;opacity:1.0}
.SFSymbolsPreview4D4D4D {fill:#4D4D4D;opacity:1.0}
</style>
 <g id="Notes">
  <rect height="2200" id="artboard" style="fill:white;opacity:1" width="3300" x="0" y="0"/>
  <line style="fill:none;stroke:black;opacity:1;stroke-width:0.5;" x1="263" x2="3036" y1="292" y2="292"/>
  <text style="stroke:none;fill:black;font-family:sans-serif;font-size:13;font-weight:bold;" transform="matrix(1 0 0 1 263 322)">Weight/Scale Variations</text>
  <text style="stroke:none;fill:black;font-family:sans-serif;font-size:13;text-anchor:middle;" transform="matrix(1 0 0 1 559.711 322)">Ultralight</text>
  <text style="stroke:none;fill:black;font-family:sans-serif;font-size:13;text-anchor:middle;" transform="matrix(1 0 0 1 856.422 322)">Thin</text>
  <text style="stroke:none;fill:black;font-family:sans-serif;font-size:13;text-anchor:middle;" transform="matrix(1 0 0 1 1153.13 322)">Light</text>
  <text style="stroke:none;fill:black;font-family:sans-serif;font-size:13;text-anchor:middle;" transform="matrix(1 0 0 1 1449.84 322)">Regular</text>
  <text style="stroke:none;fill:black;font-family:sans-serif;font-size:13;text-anchor:middle;" transform="matrix(1 0 0 1 1746.56 322)">Medium</text>
  <text style="stroke:none;fill:black;font-family:sans-serif;font-size:13;text-anchor:middle;" transform="matrix(1 0 0 1 2043.27 322)">Semibold</text>
  <text style="stroke:none;fill:black;font-family:sans-serif;font-size:13;text-anchor:middle;" transform="matrix(1 0 0 1 2339.98 322)">Bold</text>
  <text style="stroke:none;fill:black;font-family:sans-serif;font-size:13;text-anchor:middle;" transform="matrix(1 0 0 1 2636.69 322)">Heavy</text>
  <text style="stroke:none;fill:black;font-family:sans-serif;font-size:13;text-anchor:middle;" transform="matrix(1 0 0 1 2933.4 322)">Black</text>
  <line style="fill:none;stroke:black;opacity:1;stroke-width:0.5;" x1="263" x2="3036" y1="1903" y2="1903"/>
  <g transform="matrix(1 0 0 1 263 1933)">
   <path d="M9.24805 0.830078Q10.8691 0.830078 12.2949 0.214844Q13.7207-0.400391 14.8096-1.49414Q15.8984-2.58789 16.5186-4.01367Q17.1387-5.43945 17.1387-7.05078Q17.1387-8.66211 16.5186-10.0879Q15.8984-11.5137 14.8047-12.6074Q13.7109-13.7012 12.2852-14.3164Q10.8594-14.9316 9.23828-14.9316Q7.62695-14.9316 6.20117-14.3164Q4.77539-13.7012 3.69141-12.6074Q2.60742-11.5137 1.9873-10.0879Q1.36719-8.66211 1.36719-7.05078Q1.36719-5.43945 1.9873-4.01367Q2.60742-2.58789 3.69629-1.49414Q4.78516-0.400391 6.21094 0.214844Q7.63672 0.830078 9.24805 0.830078ZM9.24805-0.654297Q7.91992-0.654297 6.7627-1.14746Q5.60547-1.64062 4.73145-2.51953Q3.85742-3.39844 3.36426-4.56055Q2.87109-5.72266 2.87109-7.05078Q2.87109-8.37891 3.35938-9.54102Q3.84766-10.7031 4.72168-11.582Q5.5957-12.4609 6.75293-12.9541Q7.91016-13.4473 9.23828-13.4473Q10.5762-13.4473 11.7334-12.9541Q12.8906-12.4609 13.7695-11.582Q14.6484-10.7031 15.1465-9.54102Q15.6445-8.37891 15.6445-7.05078Q15.6445-5.72266 15.1514-4.56055Q14.6582-3.39844 13.7842-2.51953Q12.9102-1.64062 11.748-1.14746Q10.5859-0.654297 9.24805-0.654297ZM5.6543-7.05078Q5.6543-6.72852 5.85938-6.52832Q6.06445-6.32812 6.40625-6.32812L8.51562-6.32812L8.51562-4.20898Q8.51562-3.88672 8.71094-3.67676Q8.90625-3.4668 9.23828-3.4668Q9.56055-3.4668 9.77051-3.67676Q9.98047-3.88672 9.98047-4.20898L9.98047-6.32812L12.0898-6.32812Q12.4219-6.32812 12.627-6.52832Q12.832-6.72852 12.832-7.05078Q12.832-7.38281 12.627-7.58789Q12.4219-7.79297 12.0898-7.79297L9.98047-7.79297L9.98047-9.90234Q9.98047-10.2344 9.77051-10.4443Q9.56055-10.6543 9.23828-10.6543Q8.90625-10.6543 8.71094-10.4443Q8.51562-10.2344 8.51562-9.90234L8.51562-7.79297L6.40625-7.79297Q6.06445-7.79297 5.85938-7.58789Q5.6543-7.38281 5.6543-7.05078Z"/>
  </g>
  <g transform="matrix(1 0 0 1 281.867 1933)">
   <path d="M11.709 2.91016Q13.75 2.91016 15.5518 2.12891Q17.3535 1.34766 18.7305-0.0292969Q20.1074-1.40625 20.8887-3.20801Q21.6699-5.00977 21.6699-7.05078Q21.6699-9.0918 20.8887-10.8936Q20.1074-12.6953 18.7305-14.0723Q17.3535-15.4492 15.5469-16.2305Q13.7402-17.0117 11.6992-17.0117Q9.6582-17.0117 7.85645-16.2305Q6.05469-15.4492 4.68262-14.0723Q3.31055-12.6953 2.5293-10.8936Q1.74805-9.0918 1.74805-7.05078Q1.74805-5.00977 2.5293-3.20801Q3.31055-1.40625 4.6875-0.0292969Q6.06445 1.34766 7.86621 2.12891Q9.66797 2.91016 11.709 2.91016ZM11.709 1.25Q9.98047 1.25 8.47656 0.605469Q6.97266-0.0390625 5.83496-1.17676Q4.69727-2.31445 4.05762-3.81836Q3.41797-5.32227 3.41797-7.05078Q3.41797-8.7793 4.05762-10.2832Q4.69727-11.7871 5.83008-12.9297Q6.96289-14.0723 8.4668-14.7119Q9.9707-15.3516 11.6992-15.3516Q13.4277-15.3516 14.9316-14.7119Q16.4355-14.0723 17.5781-12.9297Q18.7207-11.7871 19.3652-10.2832Q20.0098-8.7793 20.0098-7.05078Q20.0098-5.32227 19.3701-3.81836Q18.7305-2.31445 17.5928-1.17676Q16.4551-0.0390625 14.9463 0.605469Q13.4375 1.25 11.709 1.25ZM7.17773-7.05078Q7.17773-6.69922 7.41211-6.47461Q7.64648-6.25 8.01758-6.25L10.8887-6.25L10.8887-3.36914Q10.8887-2.99805 11.1133-2.76855Q11.3379-2.53906 11.6895-2.53906Q12.0605-2.53906 12.29-2.76855Q12.5195-2.99805 12.5195-3.36914L12.5195-6.25L15.4004-6.25Q15.7715-6.25 16.001-6.47461Q16.2305-6.69922 16.2305-7.05078Q16.2305-7.42188 16.001-7.65137Q15.7715-7.88086 15.4004-7.88086L12.5195-7.88086L12.5195-10.752Q12.5195-11.1328 12.29-11.3623Q12.0605-11.5918 11.6895-11.5918Q11.3379-11.5918 11.1133-11.3574Q10.8887-11.123 10.8887-10.752L10.8887-7.88086L8.01758-7.88086Q7.63672-7.88086 7.40723-7.65137Q7.17773-7.42188 7.17773-7.05078Z"/>
  </g>
  <g transform="matrix(1 0 0 1 305.646 1933)">
   <path d="M14.9707 5.66406Q17.0605 5.66406 18.96 5.01465Q20.8594 4.36523 22.4512 3.19336Q24.043 2.02148 25.2197 0.429688Q26.3965-1.16211 27.0459-3.06641Q27.6953-4.9707 27.6953-7.05078Q27.6953-9.14062 27.0459-11.04Q26.3965-12.9395 25.2197-14.5312Q24.043-16.123 22.4512-17.2998Q20.8594-18.4766 18.9551-19.126Q17.0508-19.7754 14.9609-19.7754Q12.8711-19.7754 10.9717-19.126Q9.07227-18.4766 7.48535-17.2998Q5.89844-16.123 4.72168-14.5312Q3.54492-12.9395 2.90039-11.04Q2.25586-9.14062 2.25586-7.05078Q2.25586-4.9707 2.90527-3.06641Q3.55469-1.16211 4.72656 0.429688Q5.89844 2.02148 7.49023 3.19336Q9.08203 4.36523 10.9814 5.01465Q12.8809 5.66406 14.9707 5.66406ZM14.9707 3.84766Q13.1641 3.84766 11.5283 3.2959Q9.89258 2.74414 8.53516 1.74805Q7.17773 0.751953 6.17676-0.610352Q5.17578-1.97266 4.62891-3.6084Q4.08203-5.24414 4.08203-7.05078Q4.08203-8.86719 4.62891-10.5029Q5.17578-12.1387 6.17188-13.501Q7.16797-14.8633 8.52539-15.8594Q9.88281-16.8555 11.5186-17.4023Q13.1543-17.9492 14.9609-17.9492Q16.7773-17.9492 18.4131-17.4023Q20.0488-16.8555 21.4111-15.8594Q22.7734-14.8633 23.7695-13.501Q24.7656-12.1387 25.3174-10.5029Q25.8691-8.86719 25.8691-7.05078Q25.8789-5.24414 25.332-3.6084Q24.7852-1.97266 23.7842-0.610352Q22.7832 0.751953 21.4209 1.74805Q20.0586 2.74414 18.4229 3.2959Q16.7871 3.84766 14.9707 3.84766ZM9.19922-7.05078Q9.19922-6.66992 9.45801-6.4209Q9.7168-6.17188 10.1172-6.17188L14.0625-6.17188L14.0625-2.2168Q14.0625-1.81641 14.3115-1.55762Q14.5605-1.29883 14.9512-1.29883Q15.3516-1.29883 15.6104-1.55273Q15.8691-1.80664 15.8691-2.2168L15.8691-6.17188L19.8242-6.17188Q20.2246-6.17188 20.4785-6.4209Q20.7324-6.66992 20.7324-7.05078Q20.7324-7.46094 20.4785-7.71484Q20.2246-7.96875 19.8242-7.96875L15.8691-7.96875L15.8691-11.9141Q15.8691-12.3242 15.6104-12.583Q15.3516-12.8418 14.9512-12.8418Q14.5605-12.8418 14.3115-12.583Q14.0625-12.3242 14.0625-11.9141L14.0625-7.96875L10.1172-7.96875Q9.70703-7.96875 9.45312-7.71484Q9.19922-7.46094 9.19922-7.05078Z"/>
  </g>
  <text style="stroke:none;fill:black;font-family:sans-serif;font-size:13;font-weight:bold;" transform="matrix(1 0 0 1 263 1953)">Design Variations</text>
  <text style="stroke:none;fill:black;font-family:sans-serif;font-size:13;" transform="matrix(1 0 0 1 263 1971)">Symbols are supported in up to nine weights and three scales.</text>
  <text style="stroke:none;fill:black;font-family:sans-serif;font-size:13;" transform="matrix(1 0 0 1 263 1989)">For optimal layout with text and other symbols, vertically align</text>
  <text style="stroke:none;fill:black;font-family:sans-serif;font-size:13;" transform="matrix(1 0 0 1 263 2007)">symbols with the adjacent text.</text>
  <line style="fill:none;stroke:#00AEEF;stroke-width:0.5;opacity:1.0;" x1="776" x2="776" y1="1919" y2="1933"/>
  <g transform="matrix(1 0 0 1 776 1933)">
   <path d="M3.31055 0.15625Q3.70117 0.15625 3.91602-0.00976562Q4.13086-0.175781 4.26758-0.585938L5.52734-4.0332L11.2891-4.0332L12.5488-0.585938Q12.6855-0.175781 12.9004-0.00976562Q13.1152 0.15625 13.4961 0.15625Q13.8867 0.15625 14.1162-0.0585938Q14.3457-0.273438 14.3457-0.644531Q14.3457-0.869141 14.2383-1.17188L9.6582-13.3691Q9.48242-13.8184 9.17969-14.043Q8.87695-14.2676 8.4082-14.2676Q7.5-14.2676 7.17773-13.3789L2.59766-1.16211Q2.49023-0.859375 2.49023-0.634766Q2.49023-0.263672 2.70996-0.0537109Q2.92969 0.15625 3.31055 0.15625ZM6.00586-5.51758L8.37891-12.0898L8.42773-12.0898L10.8008-5.51758Z"/>
  </g>
  <line style="fill:none;stroke:#00AEEF;stroke-width:0.5;opacity:1.0;" x1="793.197" x2="793.197" y1="1919" y2="1933"/>
  <text style="stroke:none;fill:black;font-family:sans-serif;font-size:13;font-weight:bold;" transform="matrix(1 0 0 1 776 1953)">Margins</text>
  <text style="stroke:none;fill:black;font-family:sans-serif;font-size:13;" transform="matrix(1 0 0 1 776 1971)">Leading and trailing margins on the left and right side of each symbol</text>
  <text style="stroke:none;fill:black;font-family:sans-serif;font-size:13;" transform="matrix(1 0 0 1 776 1989)">can be adjusted by modifying the x-location of the margin guidelines.</text>
  <text style="stroke:none;fill:black;font-family:sans-serif;font-size:13;" transform="matrix(1 0 0 1 776 2007)">Modifications are automatically applied proportionally to all</text>
  <text style="stroke:none;fill:black;font-family:sans-serif;font-size:13;" transform="matrix(1 0 0 1 776 2025)">scales and weights.</text>
  <g transform="matrix(1 0 0 1 1289 1933)">
   <path d="M2.8418 1.86523L4.54102 3.57422Q5.18555 4.22852 5.90332 4.17969Q6.62109 4.13086 7.31445 3.35938L18.0078-8.42773L17.041-9.4043L6.42578 2.27539Q6.16211 2.57812 5.89355 2.61719Q5.625 2.65625 5.27344 2.30469L4.10156 1.14258Q3.75 0.791016 3.79395 0.522461Q3.83789 0.253906 4.14062-0.0195312L15.6152-10.8203L14.6387-11.7871L3.04688-0.898438Q2.30469-0.214844 2.25098 0.498047Q2.19727 1.21094 2.8418 1.86523ZM9.25781-16.3281Q8.94531-16.0254 8.90625-15.6348Q8.86719-15.2441 9.04297-14.9512Q9.21875-14.6777 9.55566-14.541Q9.89258-14.4043 10.3809-14.5215Q11.4746-14.7754 12.5977-14.7314Q13.7207-14.6875 14.7949-13.9844L14.209-12.5293Q13.9551-11.9043 14.0674-11.4404Q14.1797-10.9766 14.5801-10.5664L16.875-8.25195Q17.2363-7.88086 17.5781-7.82227Q17.9199-7.76367 18.3398-7.8418L19.4043-8.03711L20.0684-7.36328L20.0293-6.80664Q20-6.43555 20.1221-6.12305Q20.2441-5.81055 20.6055-5.44922L21.3672-4.70703Q21.7285-4.3457 22.1533-4.33105Q22.5781-4.31641 22.9297-4.66797L25.8398-7.58789Q26.1914-7.93945 26.1816-8.35449Q26.1719-8.76953 25.8105-9.13086L25.0391-9.89258Q24.6875-10.2539 24.3799-10.3857Q24.0723-10.5176 23.7109-10.4883L23.1348-10.4395L22.4902-11.0742L22.7344-12.1973Q22.832-12.6172 22.6953-12.9834Q22.5586-13.3496 22.1191-13.7891L19.9219-15.9766Q18.6719-17.2168 17.2607-17.8369Q15.8496-18.457 14.4189-18.4814Q12.9883-18.5059 11.665-17.959Q10.3418-17.4121 9.25781-16.3281ZM10.752-15.957Q11.6602-16.6211 12.7002-16.9043Q13.7402-17.1875 14.8047-17.085Q15.8691-16.9824 16.8701-16.5137Q17.8711-16.0449 18.7012-15.2051L21.1328-12.793Q21.3086-12.6172 21.3525-12.4512Q21.3965-12.2852 21.3379-12.0312L21.0156-10.5469L22.5195-9.0625L23.5059-9.12109Q23.6914-9.13086 23.7891-9.09668Q23.8867-9.0625 24.0332-8.91602L24.6094-8.33984L22.168-5.89844L21.5918-6.47461Q21.4453-6.62109 21.4062-6.71875Q21.3672-6.81641 21.377-7.01172L21.4453-7.98828L19.9512-9.47266L18.4277-9.21875Q18.1836-9.16992 18.042-9.2041Q17.9004-9.23828 17.7148-9.41406L15.7129-11.416Q15.5176-11.5918 15.4932-11.7529Q15.4688-11.9141 15.5859-12.1875L16.4648-14.2773Q15.293-15.3711 13.8281-15.791Q12.3633-16.2109 10.8398-15.7617Q10.7227-15.7324 10.6885-15.8057Q10.6543-15.8789 10.752-15.957Z"/>
  </g>
  <text style="stroke:none;fill:black;font-family:sans-serif;font-size:13;font-weight:bold;" transform="matrix(1 0 0 1 1289 1953)">Exporting</text>
  <text style="stroke:none;fill:black;font-family:sans-serif;font-size:13;" transform="matrix(1 0 0 1 1289 1971)">Symbols should be outlined when exporting to ensure the</text>
  <text style="stroke:none;fill:black;font-family:sans-serif;font-size:13;" transform="matrix(1 0 0 1 1289 1989)">design is preserved when submitting to Xcode.</text>
  <text id="template-version" style="stroke:none;fill:black;font-family:sans-serif;font-size:13;text-anchor:end;" transform="matrix(1 0 0 1 3036 1933)">Template v.3.0</text>
  <text style="stroke:none;fill:black;font-family:sans-serif;font-size:13;text-anchor:end;" transform="matrix(1 0 0 1 3036 1951)">Requires Xcode 13 or greater</text>
  <text id="descriptive-name" style="stroke:none;fill:black;font-family:sans-serif;font-size:13;text-anchor:end;" transform="matrix(1 0 0 1 3036 1969)">Generated from pause-circle</text>
  <text style="stroke:none;fill:black;font-family:sans-serif;font-size:13;text-anchor:end;" transform="matrix(1 0 0 1 3036 1987)">Typeset at 100 points</text>
  <text style="stroke:none;fill:black;font-family:sans-serif;font-size:13;" transform="matrix(1 0 0 1 263 726)">Small</text>
  <text style="stroke:none;fill:black;font-family:sans-serif;font-size:13;" transform="matrix(1 0 0 1 263 1156)">Medium</text>
  <text style="stroke:none;fill:black;font-family:sans-serif;font-size:13;" transform="matrix(1 0 0 1 263 1586)">Large</text>
 </g>
 <g id="Guides">
  <g id="H-reference" style="fill:#27AAE1;stroke:none;" transform="matrix(1 0 0 1 339 696)">
   <path d="M0.976562 0L3.66211 0L29.3457-67.1387L30.0293-67.1387L30.0293-70.459L28.125-70.459ZM11.6699-24.4629L46.9727-24.4629L46.2402-26.709L12.4512-26.709ZM55.127 0L57.7637 0L30.6152-70.459L29.4434-70.459L29.4434-67.1387Z"/>
  </g>
  <line id="Baseline-S" style="fill:none;stroke:#27AAE1;opacity:1;stroke-width:0.5;" x1="263" x2="3036" y1="696" y2="696"/>
  <line id="Capline-S" style="fill:none;stroke:#27AAE1;opacity:1;stroke-width:0.5;" x1="263" x2="3036" y1="625.541" y2="625.541"/>
  <g id="H-reference" style="fill:#27AAE1;stroke:none;" transform="matrix(1 0 0 1 339 1126)">
   <path d="M0.976562 0L3.66211 0L29.3457-67.1387L30.0293-67.1387L30.0293-70.459L28.125-70.459ZM11.6699-24.4629L46.9727-24.4629L46.2402-26.709L12.4512-26.709ZM55.127 0L57.7637 0L30.6152-70.459L29.4434-70.459L29.4434-67.1387Z"/>
  </g>
  <line id="Baseline-M" style="fill:none;stroke:#27AAE1;opacity:1;stroke-width:0.5;" x1="263" x2="3036" y1="1126" y2="1126"/>
  <line id="Capline-M" style="fill:none;stroke:#27AAE1;opacity:1;stroke-width:0.5;" x1="263" x2="3036" y1="1055.54" y2="1055.54"/>
  <g id="H-reference" style="fill:#27AAE1;stroke:none;" transform="matrix(1 0 0 1 339 1556)">
   <path d="M0.976562 0L3.66211 0L29.3457-67.1387L30.0293-67.1387L30.0293-70.459L28.125-70.459ZM11.6699-24.4629L46.9727-24.4629L46.2402-26.709L12.4512-26.709ZM55.127 0L57.7637 0L30.6152-70.459L29.4434-70.459L29.4434-67.1387Z"/>
  </g>
  <line id="Baseline-L" style="fill:none;stroke:#27AAE1;opacity:1;stroke-width:0.5;" x1="263" x2="3036" y1="1556" y2="1556"/>
  <line id="Capline-L" style="fill:none;stroke:#27AAE1;opacity:1;stroke-width:0.5;" x1="263" x2="3036" y1="1485.54" y2="1485.54"/>
  <line id="left-margin-Regular-M" style="fill:none;stroke:#00AEEF;stroke-width:0.5;opacity:1.0;" x1="1392.45" x2="1392.45" y1="1030.78" y2="1150.12"/>
  <line id="right-margin-Regular-M" style="fill:none;stroke:#00AEEF;stroke-width:0.5;opacity:1.0;" x1="1507.24" x2="1507.24" y1="1030.78" y2="1150.12"/>
 </g>
 <g id="Symbols">
  <g id="Black-L" transform="matrix(1 0 0 1 2860.15 1556)">
   <path class="hierarchical-0:secondary SFSymbolsPreview4D4D4D" d="M9.43-35.23C9.43-70.56 38.07-99.2 73.4-99.2C108.73-99.2 137.38-70.56 137.38-35.23C137.38 0.1 108.73 28.75 73.4 28.75C38.07 28.75 9.43 0.1 9.43-35.23ZM73.4-85C45.91-85 23.63-62.72 23.63-35.23C23.63-7.74 45.91 14.55 73.4 14.55C100.89 14.55 123.18-7.74 123.18-35.23C123.18-62.72 100.89-85 73.4-85Z"/>
   <path class="hierarchical-1:primary SFSymbolsPreview212121" d="M84.78-59.39C88.7-59.39 91.88-56.21 91.88-52.29L91.88-18.17C91.88-14.25 88.7-11.07 84.78-11.07C80.85-11.07 77.68-14.25 77.68-18.17L77.68-52.29C77.68-56.21 80.85-59.39 84.78-59.39ZM62.03-59.39C65.95-59.39 69.13-56.21 69.13-52.29L69.13-18.17C69.13-14.25 65.95-11.07 62.03-11.07C58.1-11.07 54.93-14.25 54.93-18.17L54.93-52.29C54.93-56.21 58.1-59.39 62.03-59.39Z"/>
  </g>
  <g id="Heavy-L" transform="matrix(1 0 0 1 2564.29 1556)">
   <path class="hierarchical-0:secondary SFSymbolsPreview4D4D4D" d="M9.43-35.23C9.43-70.09 37.7-98.35 72.56-98.35C107.42-98.35 135.68-70.09 135.68-35.23C135.68-0.37 107.42 27.9 72.56 27.9C37.7 27.9 9.43-0.37 9.43-35.23ZM72.56-85.85C44.6-85.85 21.93-63.19 21.93-35.23C21.93-7.27 44.6 15.4 72.56 15.4C100.52 15.4 123.18-7.27 123.18-35.23C123.18-63.19 100.52-85.85 72.56-85.85Z"/>
   <path class="hierarchical-1:primary SFSymbolsPreview212121" d="M83.93-58.54C87.38-58.54 90.18-55.74 90.18-52.29L90.18-18.17C90.18-14.72 87.38-11.92 83.93-11.92C80.48-11.92 77.68-14.72 77.68-18.17L77.68-52.29C77.68-55.74 80.48-58.54 83.93-58.54ZM61.18-58.54C64.63-58.54 67.43-55.74 67.43-52.29L67.43-18.17C67.43-14.72 64.63-11.92 61.18-11.92C57.73-11.92 54.93-14.72 54.93-18.17L54.93-52.29C54.93-55.74 57.73-58.54 61.18-58.54Z"/>
  </g>
  <g id="Bold-L" transform="matrix(1 0 0 1 2268.53 1556)">
   <path class="hierarchical-0:secondary SFSymbolsPreview4D4D4D" d="M9.43-35.23C9.43-69.57 37.27-97.4 71.61-97.4C105.94-97.4 133.78-69.57 133.78-35.23C133.78-0.89 105.94 26.95 71.61 26.95C37.27 26.95 9.43-0.89 9.43-35.23ZM71.61-86.8C43.12-86.8 20.03-63.71 20.03-35.23C20.03-6.75 43.12 16.35 71.61 16.35C100.09 16.35 123.18-6.75 123.18-35.23C123.18-63.71 100.09-86.8 71.61-86.8Z"/>
   <path class="hierarchical-1:primary SFSymbolsPreview212121" d="M82.98-57.59C85.91-57.59 88.28-55.22 88.28-52.29L88.28-18.17C88.28-15.24 85.91-12.87 82.98-12.87C80.05-12.87 77.68-15.24 77.68-18.17L77.68-52.29C77.68-55.22 80.05-57.59 82.98-57.59ZM60.23-57.59C63.16-57.59 65.53-55.22 65.53-52.29L65.53-18.17C65.53-15.24 63.16-12.87 60.23-12.87C57.3-12.87 54.93-15.24 54.93-18.17L54.93-52.29C54.93-55.22 57.3-57.59 60.23-57.59Z"/>
  </g>
  <g id="Semibold-L" transform="matrix(1 0 0 1 1972.47 1556)">
   <path class="hierarchical-0:secondary SFSymbolsPreview4D4D4D" d="M9.43-35.23C9.43-69.21 36.97-96.75 70.95-96.75C104.93-96.75 132.48-69.21 132.48-35.23C132.48-1.25 104.93 26.3 70.95 26.3C36.97 26.3 9.43-1.25 9.43-35.23ZM70.95-87.45C42.11-87.45 18.73-64.07 18.73-35.23C18.73-6.39 42.11 17 70.95 17C99.79 17 123.18-6.39 123.18-35.23C123.18-64.07 99.79-87.45 70.95-87.45Z"/>
   <path class="hierarchical-1:primary SFSymbolsPreview212121" d="M82.33-56.94C84.89-56.94 86.98-54.86 86.98-52.29L86.98-18.17C86.98-15.6 84.89-13.52 82.33-13.52C79.76-13.52 77.68-15.6 77.68-18.17L77.68-52.29C77.68-54.86 79.76-56.94 82.33-56.94ZM59.58-56.94C62.14-56.94 64.23-54.86 64.23-52.29L64.23-18.17C64.23-15.6 62.14-13.52 59.58-13.52C57.01-13.52 54.93-15.6 54.93-18.17L54.93-52.29C54.93-54.86 57.01-56.94 59.58-56.94Z"/>
  </g>
  <g id="Medium-L" transform="matrix(1 0 0 1 1676.26 1556)">
   <path class="hierarchical-0:secondary SFSymbolsPreview4D4D4D" d="M9.43-35.23C9.43-68.93 36.75-96.25 70.45-96.25C104.15-96.25 131.48-68.93 131.48-35.23C131.48-1.53 104.15 25.8 70.45 25.8C36.75 25.8 9.43-1.53 9.43-35.23ZM70.45-87.95C41.33-87.95 17.73-64.35 17.73-35.23C17.73-6.11 41.33 17.5 70.45 17.5C99.57 17.5 123.18-6.11 123.18-35.23C123.18-64.35 99.57-87.95 70.45-87.95Z"/>
   <path class="hierarchical-1:primary SFSymbolsPreview212121" d="M81.83-56.44C84.12-56.44 85.98-54.58 85.98-52.29L85.98-18.17C85.98-15.88 84.12-14.02 81.83-14.02C79.53-14.02 77.68-15.88 77.68-18.17L77.68-52.29C77.68-54.58 79.53-56.44 81.83-56.44ZM59.08-56.44C61.37-56.44 63.23-54.58 63.23-52.29L63.23-18.17C63.23-15.88 61.37-14.02 59.08-14.02C56.78-14.02 54.93-15.88 54.93-18.17L54.93-52.29C54.93-54.58 56.78-56.44 59.08-56.44Z"/>
  </g>
  <g id="Regular-L" transform="matrix(1 0 0 1 1380.19 1556)">
   <path class="hierarchical-0:secondary SFSymbolsPreview4D4D4D" d="M9.43-35.23C9.43-68.57 36.47-95.6 69.81-95.6C103.15-95.6 130.19-68.57 130.19-35.23C130.19-1.89 103.15 25.15 69.81 25.15C36.47 25.15 9.43-1.89 9.43-35.23ZM69.81-88.6C40.33-88.6 16.43-64.71 16.43-35.23C16.43-5.75 40.33 18.15 69.81 18.15C99.29 18.15 123.19-5.75 123.19-35.23C123.19-64.71 99.29-88.6 69.81-88.6Z"/>
   <path class="hierarchical-1:primary SFSymbolsPreview212121" d="M81.19-55.79C83.12-55.79 84.69-54.22 84.69-52.29L84.69-18.17C84.69-16.23 83.12-14.67 81.19-14.67C79.25-14.67 77.69-16.23 77.69-18.17L77.69-52.29C77.69-54.22 79.25-55.79 81.19-55.79ZM58.43-55.79C60.37-55.79 61.93-54.22 61.93-52.29L61.93-18.17C61.93-16.23 60.37-14.67 58.43-14.67C56.5-14.67 54.93-16.23 54.93-18.17L54.93-52.29C54.93-54.22 56.5-55.79 58.43-55.79Z"/>
  </g>
  <g id="Light-L" transform="matrix(1 0 0 1 1084.28 1556)">
   <path class="hierarchical-0:secondary SFSymbolsPreview4D4D4D" d="M9.43-35.23C9.43-68.13 36.11-94.8 69.01-94.8C101.91-94.8 128.58-68.13 128.58-35.23C128.58-2.33 101.91 24.35 69.01 24.35C36.11 24.35 9.43-2.33 9.43-35.23ZM69.01-89.4C39.09-89.4 14.83-65.15 14.83-35.23C14.83-5.31 39.09 18.95 69.01 18.95C98.93 18.95 123.18-5.31 123.18-35.23C123.18-65.15 98.93-89.4 69.01-89.4Z"/>
   <path class="hierarchical-1:primary SFSymbolsPreview212121" d="M80.38-54.99C81.88-54.99 83.08-53.78 83.08-52.29L83.08-18.17C83.08-16.68 81.88-15.47 80.38-15.47C78.89-15.47 77.68-16.68 77.68-18.17L77.68-52.29C77.68-53.78 78.89-54.99 80.38-54.99ZM57.63-54.99C59.13-54.99 60.33-53.78 60.33-52.29L60.33-18.17C60.33-16.68 59.13-15.47 57.63-15.47C56.14-15.47 54.93-16.68 54.93-18.17L54.93-52.29C54.93-53.78 56.14-54.99 57.63-54.99Z"/>
  </g>
  <g id="Thin-L" transform="matrix(1 0 0 1 788.622 1556)">
   <path class="hierarchical-0:secondary SFSymbolsPreview4D4D4D" d="M9.43-35.23C9.43-67.55 35.633-93.75 67.955-93.75C100.278-93.75 126.48-67.55 126.48-35.23C126.48-2.91 100.278 23.3 67.955 23.3C35.633 23.3 9.43-2.91 9.43-35.23ZM67.955-90.45C37.455-90.45 12.73-65.73 12.73-35.23C12.73-4.73 37.455 20 67.955 20C98.455 20 123.18-4.73 123.18-35.23C123.18-65.73 98.455-90.45 67.955-90.45Z"/>
   <path class="hierarchical-1:primary SFSymbolsPreview212121" d="M79.33-53.94C80.241-53.94 80.98-53.2 80.98-52.29L80.98-18.17C80.98-17.26 80.241-16.52 79.33-16.52C78.419-16.52 77.68-17.26 77.68-18.17L77.68-52.29C77.68-53.2 78.419-53.94 79.33-53.94ZM56.58-53.94C57.491-53.94 58.23-53.2 58.23-52.29L58.23-18.17C58.23-17.26 57.491-16.52 56.58-16.52C55.669-16.52 54.93-17.26 54.93-18.17L54.93-52.29C54.93-53.2 55.669-53.94 56.58-53.94Z"/>
  </g>
  <g id="Ultralight-L" transform="matrix(1 0 0 1 492.461 1556)">
   <path class="hierarchical-0:secondary SFSymbolsPreview4D4D4D" d="M9.43-35.23C9.43-67.25 35.386-93.2 67.405-93.2C99.424-93.2 125.38-67.25 125.38-35.23C125.38-3.21 99.424 22.75 67.405 22.75C35.386 22.75 9.43-3.21 9.43-35.23ZM67.405-91C36.601-91 11.63-66.03 11.63-35.23C11.63-4.43 36.601 20.55 67.405 20.55C98.209 20.55 123.18-4.43 123.18-35.23C123.18-66.03 98.209-91 67.405-91Z"/>
   <path class="hierarchical-1:primary SFSymbolsPreview212121" d="M78.78-53.39C79.387-53.39 79.88-52.9 79.88-52.29L79.88-18.17C79.88-17.56 79.387-17.07 78.78-17.07C78.172-17.07 77.68-17.56 77.68-18.17L77.68-52.29C77.68-52.9 78.172-53.39 78.78-53.39ZM56.03-53.39C56.637-53.39 57.13-52.9 57.13-52.29L57.13-18.17C57.13-17.56 56.637-17.07 56.03-17.07C55.422-17.07 54.93-17.56 54.93-18.17L54.93-52.29C54.93-52.9 55.422-53.39 56.03-53.39Z"/>
  </g>
  <g id="Black-M" transform="matrix(1 0 0 1 2872.4 1126)">
   <path class="hierarchical-0:secondary SFSymbolsPreview4D4D4D" d="M9.43-35.23C9.43-63.8 32.59-86.95 61.15-86.95C89.72-86.95 112.88-63.8 112.88-35.23C112.88-6.66 89.72 16.5 61.15 16.5C32.59 16.5 9.43-6.66 9.43-35.23ZM61.15-72.75C40.43-72.75 23.63-55.95 23.63-35.23C23.63-14.5 40.43 2.3 61.15 2.3C81.88 2.3 98.68-14.5 98.68-35.23C98.68-55.95 81.88-72.75 61.15-72.75Z"/>
   <path class="hierarchical-1:primary SFSymbolsPreview212121" d="M70.08-55.72C74-55.72 77.18-52.54 77.18-48.62L77.18-21.84C77.18-17.92 74-14.74 70.08-14.74C66.16-14.74 62.98-17.92 62.98-21.84L62.98-48.62C62.98-52.54 66.16-55.72 70.08-55.72ZM52.23-55.72C56.15-55.72 59.33-52.54 59.33-48.62L59.33-21.84C59.33-17.92 56.15-14.74 52.23-14.74C48.31-14.74 45.13-17.92 45.13-21.84L45.13-48.62C45.13-52.54 48.31-55.72 52.23-55.72Z"/>
  </g>
  <g id="Heavy-M" transform="matrix(1 0 0 1 2576.54 1126)">
   <path class="hierarchical-0:secondary SFSymbolsPreview4D4D4D" d="M9.43-35.23C9.43-63.33 32.21-86.1 60.3-86.1C88.4-86.1 111.18-63.33 111.18-35.23C111.18-7.13 88.4 15.65 60.3 15.65C32.21 15.65 9.43-7.13 9.43-35.23ZM60.3-73.6C39.11-73.6 21.93-56.42 21.93-35.23C21.93-14.04 39.11 3.15 60.3 3.15C81.5 3.15 98.68-14.04 98.68-35.23C98.68-56.42 81.5-73.6 60.3-73.6Z"/>
   <path class="hierarchical-1:primary SFSymbolsPreview212121" d="M69.23-54.87C72.68-54.87 75.48-52.07 75.48-48.62L75.48-21.84C75.48-18.39 72.68-15.59 69.23-15.59C65.78-15.59 62.98-18.39 62.98-21.84L62.98-48.62C62.98-52.07 65.78-54.87 69.23-54.87ZM51.38-54.87C54.83-54.87 57.63-52.07 57.63-48.62L57.63-21.84C57.63-18.39 54.83-15.59 51.38-15.59C47.93-15.59 45.13-18.39 45.13-21.84L45.13-48.62C45.13-52.07 47.93-54.87 51.38-54.87Z"/>
  </g>
  <g id="Bold-M" transform="matrix(1 0 0 1 2280.78 1126)">
   <path class="hierarchical-0:secondary SFSymbolsPreview4D4D4D" d="M9.43-35.23C9.43-62.8 31.78-85.15 59.36-85.15C86.93-85.15 109.28-62.8 109.28-35.23C109.28-7.66 86.93 14.7 59.36 14.7C31.78 14.7 9.43-7.66 9.43-35.23ZM59.36-74.55C37.64-74.55 20.03-56.95 20.03-35.23C20.03-13.51 37.64 4.1 59.36 4.1C81.07 4.1 98.68-13.51 98.68-35.23C98.68-56.95 81.07-74.55 59.36-74.55Z"/>
   <path class="hierarchical-1:primary SFSymbolsPreview212121" d="M68.28-53.92C71.21-53.92 73.58-51.54 73.58-48.62L73.58-21.84C73.58-18.91 71.21-16.54 68.28-16.54C65.35-16.54 62.98-18.91 62.98-21.84L62.98-48.62C62.98-51.54 65.35-53.92 68.28-53.92ZM50.43-53.92C53.36-53.92 55.73-51.54 55.73-48.62L55.73-21.84C55.73-18.91 53.36-16.54 50.43-16.54C47.5-16.54 45.13-18.91 45.13-21.84L45.13-48.62C45.13-51.54 47.5-53.92 50.43-53.92Z"/>
  </g>
  <g id="Semibold-M" transform="matrix(1 0 0 1 1984.72 1126)">
   <path class="hierarchical-0:secondary SFSymbolsPreview4D4D4D" d="M9.43-35.23C9.43-62.44 31.49-84.5 58.7-84.5C85.91-84.5 107.98-62.44 107.98-35.23C107.98-8.02 85.91 14.05 58.7 14.05C31.49 14.05 9.43-8.02 9.43-35.23ZM58.7-75.2C36.62-75.2 18.73-57.31 18.73-35.23C18.73-13.15 36.62 4.75 58.7 4.75C80.78 4.75 98.68-13.15 98.68-35.23C98.68-57.31 80.78-75.2 58.7-75.2Z"/>
   <path class="hierarchical-1:primary SFSymbolsPreview212121" d="M67.62-53.27C70.19-53.27 72.27-51.18 72.27-48.62L72.27-21.84C72.27-19.27 70.19-17.19 67.62-17.19C65.06-17.19 62.97-19.27 62.97-21.84L62.97-48.62C62.97-51.18 65.06-53.27 67.62-53.27ZM49.77-53.27C52.34-53.27 54.42-51.18 54.42-48.62L54.42-21.84C54.42-19.27 52.34-17.19 49.77-17.19C47.21-17.19 45.12-19.27 45.12-21.84L45.12-48.62C45.12-51.18 47.21-53.27 49.77-53.27Z"/>
  </g>
  <g id="Medium-M" transform="matrix(1 0 0 1 1688.51 1126)">
   <path class="hierarchical-0:secondary SFSymbolsPreview4D4D4D" d="M9.43-35.23C9.43-62.17 31.26-84 58.2-84C85.14-84 106.98-62.17 106.98-35.23C106.98-8.29 85.14 13.55 58.2 13.55C31.26 13.55 9.43-8.29 9.43-35.23ZM58.2-75.7C35.85-75.7 17.73-57.58 17.73-35.23C17.73-12.88 35.85 5.25 58.2 5.25C80.55 5.25 98.68-12.88 98.68-35.23C98.68-57.58 80.55-75.7 58.2-75.7Z"/>
   <path class="hierarchical-1:primary SFSymbolsPreview212121" d="M67.12-52.77C69.42-52.77 71.27-50.91 71.27-48.62L71.27-21.84C71.27-19.55 69.42-17.69 67.12-17.69C64.83-17.69 62.97-19.55 62.97-21.84L62.97-48.62C62.97-50.91 64.83-52.77 67.12-52.77ZM49.27-52.77C51.57-52.77 53.42-50.91 53.42-48.62L53.42-21.84C53.42-19.55 51.57-17.69 49.27-17.69C46.98-17.69 45.12-19.55 45.12-21.84L45.12-48.62C45.12-50.91 46.98-52.77 49.27-52.77Z"/>
  </g>
  <g id="Regular-M" transform="matrix(1 0 0 1 1392.45 1126)">
   <path class="hierarchical-0:secondary SFSymbolsPreview4D4D4D" d="M9.43-35.23C9.43-61.81 30.97-83.35 57.55-83.35C84.13-83.35 105.67-61.81 105.67-35.23C105.67-8.65 84.13 12.9 57.55 12.9C30.97 12.9 9.43-8.65 9.43-35.23ZM57.55-76.35C34.84-76.35 16.43-57.94 16.43-35.23C16.43-12.52 34.84 5.9 57.55 5.9C80.26 5.9 98.67-12.52 98.67-35.23C98.67-57.94 80.26-76.35 57.55-76.35Z"/>
   <path class="hierarchical-1:primary SFSymbolsPreview212121" d="M66.47-52.12C68.41-52.12 69.97-50.55 69.97-48.62L69.97-21.84C69.97-19.91 68.41-18.34 66.47-18.34C64.54-18.34 62.97-19.91 62.97-21.84L62.97-48.62C62.97-50.55 64.54-52.12 66.47-52.12ZM48.63-52.12C50.56-52.12 52.13-50.55 52.13-48.62L52.13-21.84C52.13-19.91 50.56-18.34 48.63-18.34C46.69-18.34 45.13-19.91 45.13-21.84L45.13-48.62C45.13-50.55 46.69-52.12 48.63-52.12Z"/>
  </g>
  <g id="Light-M" transform="matrix(1 0 0 1 1096.53 1126)">
   <path class="hierarchical-0:secondary SFSymbolsPreview4D4D4D" d="M9.43-35.23C9.43-61.37 30.62-82.55 56.76-82.55C82.9-82.55 104.08-61.37 104.08-35.23C104.08-9.09 82.9 12.1 56.76 12.1C30.62 12.1 9.43-9.09 9.43-35.23ZM56.76-77.15C33.61-77.15 14.83-58.38 14.83-35.23C14.83-12.08 33.61 6.7 56.76 6.7C79.91 6.7 98.68-12.08 98.68-35.23C98.68-58.38 79.91-77.15 56.76-77.15Z"/>
   <path class="hierarchical-1:primary SFSymbolsPreview212121" d="M65.69-51.32C67.18-51.32 68.39-50.11 68.39-48.62L68.39-21.84C68.39-20.35 67.18-19.14 65.69-19.14C64.19-19.14 62.99-20.35 62.99-21.84L62.99-48.62C62.99-50.11 64.19-51.32 65.69-51.32ZM47.84-51.32C49.33-51.32 50.54-50.11 50.54-48.62L50.54-21.84C50.54-20.35 49.33-19.14 47.84-19.14C46.34-19.14 45.14-20.35 45.14-21.84L45.14-48.62C45.14-50.11 46.34-51.32 47.84-51.32Z"/>
  </g>
  <g id="Thin-M" transform="matrix(1 0 0 1 800.872 1126)">
   <path class="hierarchical-0:secondary SFSymbolsPreview4D4D4D" d="M9.43-35.23C9.43-60.79 30.148-81.5 55.705-81.5C81.262-81.5 101.98-60.79 101.98-35.23C101.98-9.67 81.262 11.05 55.705 11.05C30.148 11.05 9.43-9.67 9.43-35.23ZM55.705-78.2C31.971-78.2 12.73-58.96 12.73-35.23C12.73-11.5 31.971 7.75 55.705 7.75C79.44 7.75 98.68-11.5 98.68-35.23C98.68-58.96 79.44-78.2 55.705-78.2Z"/>
   <path class="hierarchical-1:primary SFSymbolsPreview212121" d="M64.63-50.27C65.541-50.27 66.28-49.53 66.28-48.62L66.28-21.84C66.28-20.93 65.541-20.19 64.63-20.19C63.719-20.19 62.98-20.93 62.98-21.84L62.98-48.62C62.98-49.53 63.719-50.27 64.63-50.27ZM46.78-50.27C47.691-50.27 48.43-49.53 48.43-48.62L48.43-21.84C48.43-20.93 47.691-20.19 46.78-20.19C45.869-20.19 45.13-20.93 45.13-21.84L45.13-48.62C45.13-49.53 45.869-50.27 46.78-50.27Z"/>
  </g>
  <g id="Ultralight-M" transform="matrix(1 0 0 1 504.711 1126)">
   <path class="hierarchical-0:secondary SFSymbolsPreview4D4D4D" d="M9.43-35.23C9.43-60.48 29.902-80.95 55.155-80.95C80.408-80.95 100.88-60.48 100.88-35.23C100.88-9.98 80.408 10.5 55.155 10.5C29.902 10.5 9.43-9.98 9.43-35.23ZM55.155-78.75C31.117-78.75 11.63-59.27 11.63-35.23C11.63-11.19 31.117 8.3 55.155 8.3C79.193 8.3 98.68-11.19 98.68-35.23C98.68-59.27 79.193-78.75 55.155-78.75Z"/>
   <path class="hierarchical-1:primary SFSymbolsPreview212121" d="M64.08-49.72C64.688-49.72 65.18-49.22 65.18-48.62L65.18-21.84C65.18-21.23 64.688-20.74 64.08-20.74C63.473-20.74 62.98-21.23 62.98-21.84L62.98-48.62C62.98-49.22 63.473-49.72 64.08-49.72ZM46.23-49.72C46.838-49.72 47.33-49.22 47.33-48.62L47.33-21.84C47.33-21.23 46.838-20.74 46.23-20.74C45.623-20.74 45.13-21.23 45.13-21.84L45.13-48.62C45.13-49.22 45.623-49.72 46.23-49.72Z"/>
  </g>
  <g id="Black-S" transform="matrix(1 0 0 1 2882.03 696)">
   <path class="hierarchical-0:secondary SFSymbolsPreview4D4D4D" d="M9.43-35.332C9.43-58.583 28.28-77.432 51.53-77.432C74.78-77.432 93.63-58.583 93.63-35.332C93.63-12.08 74.78 6.768 51.53 6.768C28.28 6.768 9.43-12.08 9.43-35.332ZM51.53-63.232C36.12-63.232 23.63-50.74 23.63-35.332C23.63-19.923 36.12-7.432 51.53-7.432C66.94-7.432 79.43-19.923 79.43-35.332C79.43-50.74 66.94-63.232 51.53-63.232Z"/>
   <path class="hierarchical-1:primary SFSymbolsPreview212121" d="M58.53-52.932C62.45-52.932 65.63-49.753 65.63-45.832L65.63-24.832C65.63-20.91 62.45-17.732 58.53-17.732C54.61-17.732 51.43-20.91 51.43-24.832L51.43-45.832C51.43-49.753 54.61-52.932 58.53-52.932ZM44.53-52.932C48.45-52.932 51.63-49.753 51.63-45.832L51.63-24.832C51.63-20.91 48.45-17.732 44.53-17.732C40.61-17.732 37.43-20.91 37.43-24.832L37.43-45.832C37.43-49.753 40.61-52.932 44.53-52.932Z"/>
  </g>
  <g id="Heavy-S" transform="matrix(1 0 0 1 2586.16 696)">
   <path class="hierarchical-0:secondary SFSymbolsPreview4D4D4D" d="M9.43-35.332C9.43-58.114 27.9-76.582 50.68-76.582C73.46-76.582 91.93-58.114 91.93-35.332C91.93-12.55 73.46 5.918 50.68 5.918C27.9 5.918 9.43-12.55 9.43-35.332ZM50.68-64.082C34.8-64.082 21.93-51.21 21.93-35.332C21.93-19.454 34.8-6.582 50.68-6.582C66.56-6.582 79.43-19.454 79.43-35.332C79.43-51.21 66.56-64.082 50.68-64.082Z"/>
   <path class="hierarchical-1:primary SFSymbolsPreview212121" d="M57.68-52.082C61.13-52.082 63.93-49.284 63.93-45.832L63.93-24.832C63.93-21.38 61.13-18.582 57.68-18.582C54.23-18.582 51.43-21.38 51.43-24.832L51.43-45.832C51.43-49.284 54.23-52.082 57.68-52.082ZM43.68-52.082C47.13-52.082 49.93-49.284 49.93-45.832L49.93-24.832C49.93-21.38 47.13-18.582 43.68-18.582C40.23-18.582 37.43-21.38 37.43-24.832L37.43-45.832C37.43-49.284 40.23-52.082 43.68-52.082Z"/>
  </g>
  <g id="Bold-S" transform="matrix(1 0 0 1 2290.4 696)">
   <path class="hierarchical-0:secondary SFSymbolsPreview4D4D4D" d="M9.43-35.127C9.43-57.384 27.47-75.427 49.73-75.427C71.98-75.427 90.03-57.384 90.03-35.127C90.03-12.87 71.98 5.173 49.73 5.173C27.47 5.173 9.43-12.87 9.43-35.127ZM49.73-64.827C33.32-64.827 20.03-51.53 20.03-35.127C20.03-18.724 33.32-5.427 49.73-5.427C66.13-5.427 79.43-18.724 79.43-35.127C79.43-51.53 66.13-64.827 49.73-64.827Z"/>
   <path class="hierarchical-1:primary SFSymbolsPreview212121" d="M56.73-50.927C59.65-50.927 62.03-48.554 62.03-45.627L62.03-24.627C62.03-21.7 59.65-19.327 56.73-19.327C53.8-19.327 51.43-21.7 51.43-24.627L51.43-45.627C51.43-48.554 53.8-50.927 56.73-50.927ZM42.73-50.927C45.65-50.927 48.03-48.554 48.03-45.627L48.03-24.627C48.03-21.7 45.65-19.327 42.73-19.327C39.8-19.327 37.43-21.7 37.43-24.627L37.43-45.627C37.43-48.554 39.8-50.927 42.73-50.927Z"/>
  </g>
  <g id="Semibold-S" transform="matrix(1 0 0 1 1994.34 696)">
   <path class="hierarchical-0:secondary SFSymbolsPreview4D4D4D" d="M9.43-35.127C9.43-57.025 27.18-74.777 49.08-74.777C70.98-74.777 88.73-57.025 88.73-35.127C88.73-13.229 70.98 4.523 49.08 4.523C27.18 4.523 9.43-13.229 9.43-35.127ZM49.08-65.477C32.32-65.477 18.73-51.889 18.73-35.127C18.73-18.366 32.32-4.777 49.08-4.777C65.84-4.777 79.43-18.366 79.43-35.127C79.43-51.889 65.84-65.477 49.08-65.477Z"/>
   <path class="hierarchical-1:primary SFSymbolsPreview212121" d="M56.08-50.277C58.65-50.277 60.73-48.195 60.73-45.627L60.73-24.627C60.73-22.059 58.65-19.977 56.08-19.977C53.51-19.977 51.43-22.059 51.43-24.627L51.43-45.627C51.43-48.195 53.51-50.277 56.08-50.277ZM42.08-50.277C44.65-50.277 46.73-48.195 46.73-45.627L46.73-24.627C46.73-22.059 44.65-19.977 42.08-19.977C39.51-19.977 37.43-22.059 37.43-24.627L37.43-45.627C37.43-48.195 39.51-50.277 42.08-50.277Z"/>
  </g>
  <g id="Medium-S" transform="matrix(1 0 0 1 1698.13 696)">
   <path class="hierarchical-0:secondary SFSymbolsPreview4D4D4D" d="M9.43-35.127C9.43-56.749 26.96-74.277 48.58-74.277C70.2-74.277 87.73-56.749 87.73-35.127C87.73-13.505 70.2 4.023 48.58 4.023C26.96 4.023 9.43-13.505 9.43-35.127ZM48.58-65.977C31.54-65.977 17.73-52.165 17.73-35.127C17.73-18.089 31.54-4.277 48.58-4.277C65.62-4.277 79.43-18.089 79.43-35.127C79.43-52.165 65.62-65.977 48.58-65.977Z"/>
   <path class="hierarchical-1:primary SFSymbolsPreview212121" d="M55.58-49.777C57.87-49.777 59.73-47.919 59.73-45.627L59.73-24.627C59.73-22.335 57.87-20.477 55.58-20.477C53.29-20.477 51.43-22.335 51.43-24.627L51.43-45.627C51.43-47.919 53.29-49.777 55.58-49.777ZM41.58-49.777C43.87-49.777 45.73-47.919 45.73-45.627L45.73-24.627C45.73-22.335 43.87-20.477 41.58-20.477C39.29-20.477 37.43-22.335 37.43-24.627L37.43-45.627C37.43-47.919 39.29-49.777 41.58-49.777Z"/>
  </g>
  <g id="Regular-S" transform="matrix(1 0 0 1 1402.07 696)">
   <path class="hierarchical-0:secondary SFSymbolsPreview4D4D4D" d="M9.43-35.127C9.43-56.39 26.67-73.627 47.93-73.627C69.19-73.627 86.43-56.39 86.43-35.127C86.43-13.864 69.19 3.373 47.93 3.373C26.67 3.373 9.43-13.864 9.43-35.127ZM47.93-66.627C30.53-66.627 16.43-52.524 16.43-35.127C16.43-17.73 30.53-3.627 47.93-3.627C65.33-3.627 79.43-17.73 79.43-35.127C79.43-52.524 65.33-66.627 47.93-66.627Z"/>
   <path class="hierarchical-1:primary SFSymbolsPreview212121" d="M54.93-49.127C56.86-49.127 58.43-47.56 58.43-45.627L58.43-24.627C58.43-22.694 56.86-21.127 54.93-21.127C53-21.127 51.43-22.694 51.43-24.627L51.43-45.627C51.43-47.56 53-49.127 54.93-49.127ZM40.93-49.127C42.86-49.127 44.43-47.56 44.43-45.627L44.43-24.627C44.43-22.694 42.86-21.127 40.93-21.127C39-21.127 37.43-22.694 37.43-24.627L37.43-45.627C37.43-47.56 39-49.127 40.93-49.127Z"/>
  </g>
  <g id="Light-S" transform="matrix(1 0 0 1 1106.16 696)">
   <path class="hierarchical-0:secondary SFSymbolsPreview4D4D4D" d="M9.43-35.127C9.43-55.948 26.31-72.827 47.13-72.827C67.95-72.827 84.83-55.948 84.83-35.127C84.83-14.306 67.95 2.573 47.13 2.573C26.31 2.573 9.43-14.306 9.43-35.127ZM47.13-67.427C29.29-67.427 14.83-52.966 14.83-35.127C14.83-17.288 29.29-2.827 47.13-2.827C64.97-2.827 79.43-17.288 79.43-35.127C79.43-52.966 64.97-67.427 47.13-67.427Z"/>
   <path class="hierarchical-1:primary SFSymbolsPreview212121" d="M54.13-48.327C55.62-48.327 56.83-47.118 56.83-45.627L56.83-24.627C56.83-23.136 55.62-21.927 54.13-21.927C52.64-21.927 51.43-23.136 51.43-24.627L51.43-45.627C51.43-47.118 52.64-48.327 54.13-48.327ZM40.13-48.327C41.62-48.327 42.83-47.118 42.83-45.627L42.83-24.627C42.83-23.136 41.62-21.927 40.13-21.927C38.64-21.927 37.43-23.136 37.43-24.627L37.43-45.627C37.43-47.118 38.64-48.327 40.13-48.327Z"/>
  </g>
  <g id="Thin-S" transform="matrix(1 0 0 1 810.497 696)">
   <path class="hierarchical-0:secondary SFSymbolsPreview4D4D4D" d="M9.43-35.127C9.43-55.369 25.839-71.777 46.08-71.777C66.321-71.777 82.73-55.369 82.73-35.127C82.73-14.886 66.321 1.523 46.08 1.523C25.839 1.523 9.43-14.886 9.43-35.127ZM46.08-68.477C27.661-68.477 12.73-53.546 12.73-35.127C12.73-16.709 27.661-1.777 46.08-1.777C64.499-1.777 79.43-16.709 79.43-35.127C79.43-53.546 64.499-68.477 46.08-68.477Z"/>
   <path class="hierarchical-1:primary SFSymbolsPreview212121" d="M53.08-47.277C53.991-47.277 54.73-46.539 54.73-45.627L54.73-24.627C54.73-23.716 53.991-22.977 53.08-22.977C52.169-22.977 51.43-23.716 51.43-24.627L51.43-45.627C51.43-46.539 52.169-47.277 53.08-47.277ZM39.08-47.277C39.991-47.277 40.73-46.539 40.73-45.627L40.73-24.627C40.73-23.716 39.991-22.977 39.08-22.977C38.169-22.977 37.43-23.716 37.43-24.627L37.43-45.627C37.43-46.539 38.169-47.277 39.08-47.277Z"/>
  </g>
  <g id="Ultralight-S" transform="matrix(1 0 0 1 514.336 696)">
   <path class="hierarchical-0:secondary SFSymbolsPreview4D4D4D" d="M9.43-35.127C9.43-55.064 25.592-71.227 45.53-71.227C65.467-71.227 81.63-55.064 81.63-35.127C81.63-15.189 65.467 0.973 45.53 0.973C25.592 0.973 9.43-15.189 9.43-35.127ZM45.53-69.027C26.807-69.027 11.63-53.849 11.63-35.127C11.63-16.404 26.807-1.227 45.53-1.227C64.252-1.227 79.43-16.404 79.43-35.127C79.43-53.849 64.252-69.027 45.53-69.027Z"/>
   <path class="hierarchical-1:primary SFSymbolsPreview212121" d="M52.53-46.727C53.137-46.727 53.63-46.234 53.63-45.627L53.63-24.627C53.63-24.019 53.137-23.527 52.53-23.527C51.922-23.527 51.43-24.019 51.43-24.627L51.43-45.627C51.43-46.234 51.922-46.727 52.53-46.727ZM38.53-46.727C39.137-46.727 39.63-46.234 39.63-45.627L39.63-24.627C39.63-24.019 39.137-23.527 38.53-23.527C37.922-23.527 37.43-24.019 37.43-24.627L37.43-45.627C37.43-46.234 37.922-46.727 38.53-46.727Z"/>
  </g>
 </g>
</svg>
