<?xml version="1.0" encoding="UTF-8"?>
<!--Generator: Apple Native CoreSVG 175-->
<!DOCTYPE svg
PUBLIC "-//W3C//DTD SVG 1.1//EN"
       "http://www.w3.org/Graphics/SVG/1.1/DTD/svg11.dtd">
<svg version="1.1" xmlns="http://www.w3.org/2000/svg" xmlns:xlink="http://www.w3.org/1999/xlink" width="3300" height="2200">
 <!--glyph: "", point size: 100.0, font version: "17.0d12e1", template writer version: "65.1"-->
 <style>.hierarchical-0:secondary {fill:#4D4D4D}
.hierarchical-1:primary {fill:#212121}

.SFSymbolsPreview212121 {fill:#212121;opacity:1.0}
.SFSymbolsPreview4D4D4D {fill:#4D4D4D;opacity:1.0}
</style>
 <g id="Notes">
  <rect height="2200" id="artboard" style="fill:white;opacity:1" width="3300" x="0" y="0"/>
  <line style="fill:none;stroke:black;opacity:1;stroke-width:0.5;" x1="263" x2="3036" y1="292" y2="292"/>
  <text style="stroke:none;fill:black;font-family:sans-serif;font-size:13;font-weight:bold;" transform="matrix(1 0 0 1 263 322)">Weight/Scale Variations</text>
  <text style="stroke:none;fill:black;font-family:sans-serif;font-size:13;text-anchor:middle;" transform="matrix(1 0 0 1 559.711 322)">Ultralight</text>
  <text style="stroke:none;fill:black;font-family:sans-serif;font-size:13;text-anchor:middle;" transform="matrix(1 0 0 1 856.422 322)">Thin</text>
  <text style="stroke:none;fill:black;font-family:sans-serif;font-size:13;text-anchor:middle;" transform="matrix(1 0 0 1 1153.13 322)">Light</text>
  <text style="stroke:none;fill:black;font-family:sans-serif;font-size:13;text-anchor:middle;" transform="matrix(1 0 0 1 1449.84 322)">Regular</text>
  <text style="stroke:none;fill:black;font-family:sans-serif;font-size:13;text-anchor:middle;" transform="matrix(1 0 0 1 1746.56 322)">Medium</text>
  <text style="stroke:none;fill:black;font-family:sans-serif;font-size:13;text-anchor:middle;" transform="matrix(1 0 0 1 2043.27 322)">Semibold</text>
  <text style="stroke:none;fill:black;font-family:sans-serif;font-size:13;text-anchor:middle;" transform="matrix(1 0 0 1 2339.98 322)">Bold</text>
  <text style="stroke:none;fill:black;font-family:sans-serif;font-size:13;text-anchor:middle;" transform="matrix(1 0 0 1 2636.69 322)">Heavy</text>
  <text style="stroke:none;fill:black;font-family:sans-serif;font-size:13;text-anchor:middle;" transform="matrix(1 0 0 1 2933.4 322)">Black</text>
  <line style="fill:none;stroke:black;opacity:1;stroke-width:0.5;" x1="263" x2="3036" y1="1903" y2="1903"/>
  <g transform="matrix(1 0 0 1 263 1933)">
   <path d="M9.24805 0.830078Q10.8691 0.830078 12.2949 0.214844Q13.7207-0.400391 14.8096-1.49414Q15.8984-2.58789 16.5186-4.01367Q17.1387-5.43945 17.1387-7.05078Q17.1387-8.66211 16.5186-10.0879Q15.8984-11.5137 14.8047-12.6074Q13.7109-13.7012 12.2852-14.3164Q10.8594-14.9316 9.23828-14.9316Q7.62695-14.9316 6.20117-14.3164Q4.77539-13.7012 3.69141-12.6074Q2.60742-11.5137 1.9873-10.0879Q1.36719-8.66211 1.36719-7.05078Q1.36719-5.43945 1.9873-4.01367Q2.60742-2.58789 3.69629-1.49414Q4.78516-0.400391 6.21094 0.214844Q7.63672 0.830078 9.24805 0.830078ZM9.24805-0.654297Q7.91992-0.654297 6.7627-1.14746Q5.60547-1.64062 4.73145-2.51953Q3.85742-3.39844 3.36426-4.56055Q2.87109-5.72266 2.87109-7.05078Q2.87109-8.37891 3.35938-9.54102Q3.84766-10.7031 4.72168-11.582Q5.5957-12.4609 6.75293-12.9541Q7.91016-13.4473 9.23828-13.4473Q10.5762-13.4473 11.7334-12.9541Q12.8906-12.4609 13.7695-11.582Q14.6484-10.7031 15.1465-9.54102Q15.6445-8.37891 15.6445-7.05078Q15.6445-5.72266 15.1514-4.56055Q14.6582-3.39844 13.7842-2.51953Q12.9102-1.64062 11.748-1.14746Q10.5859-0.654297 9.24805-0.654297ZM5.6543-7.05078Q5.6543-6.72852 5.85938-6.52832Q6.06445-6.32812 6.40625-6.32812L8.51562-6.32812L8.51562-4.20898Q8.51562-3.88672 8.71094-3.67676Q8.90625-3.4668 9.23828-3.4668Q9.56055-3.4668 9.77051-3.67676Q9.98047-3.88672 9.98047-4.20898L9.98047-6.32812L12.0898-6.32812Q12.4219-6.32812 12.627-6.52832Q12.832-6.72852 12.832-7.05078Q12.832-7.38281 12.627-7.58789Q12.4219-7.79297 12.0898-7.79297L9.98047-7.79297L9.98047-9.90234Q9.98047-10.2344 9.77051-10.4443Q9.56055-10.6543 9.23828-10.6543Q8.90625-10.6543 8.71094-10.4443Q8.51562-10.2344 8.51562-9.90234L8.51562-7.79297L6.40625-7.79297Q6.06445-7.79297 5.85938-7.58789Q5.6543-7.38281 5.6543-7.05078Z"/>
  </g>
  <g transform="matrix(1 0 0 1 281.867 1933)">
   <path d="M11.709 2.91016Q13.75 2.91016 15.5518 2.12891Q17.3535 1.34766 18.7305-0.0292969Q20.1074-1.40625 20.8887-3.20801Q21.6699-5.00977 21.6699-7.05078Q21.6699-9.0918 20.8887-10.8936Q20.1074-12.6953 18.7305-14.0723Q17.3535-15.4492 15.5469-16.2305Q13.7402-17.0117 11.6992-17.0117Q9.6582-17.0117 7.85645-16.2305Q6.05469-15.4492 4.68262-14.0723Q3.31055-12.6953 2.5293-10.8936Q1.74805-9.0918 1.74805-7.05078Q1.74805-5.00977 2.5293-3.20801Q3.31055-1.40625 4.6875-0.0292969Q6.06445 1.34766 7.86621 2.12891Q9.66797 2.91016 11.709 2.91016ZM11.709 1.25Q9.98047 1.25 8.47656 0.605469Q6.97266-0.0390625 5.83496-1.17676Q4.69727-2.31445 4.05762-3.81836Q3.41797-5.32227 3.41797-7.05078Q3.41797-8.7793 4.05762-10.2832Q4.69727-11.7871 5.83008-12.9297Q6.96289-14.0723 8.4668-14.7119Q9.9707-15.3516 11.6992-15.3516Q13.4277-15.3516 14.9316-14.7119Q16.4355-14.0723 17.5781-12.9297Q18.7207-11.7871 19.3652-10.2832Q20.0098-8.7793 20.0098-7.05078Q20.0098-5.32227 19.3701-3.81836Q18.7305-2.31445 17.5928-1.17676Q16.4551-0.0390625 14.9463 0.605469Q13.4375 1.25 11.709 1.25ZM7.17773-7.05078Q7.17773-6.69922 7.41211-6.47461Q7.64648-6.25 8.01758-6.25L10.8887-6.25L10.8887-3.36914Q10.8887-2.99805 11.1133-2.76855Q11.3379-2.53906 11.6895-2.53906Q12.0605-2.53906 12.29-2.76855Q12.5195-2.99805 12.5195-3.36914L12.5195-6.25L15.4004-6.25Q15.7715-6.25 16.001-6.47461Q16.2305-6.69922 16.2305-7.05078Q16.2305-7.42188 16.001-7.65137Q15.7715-7.88086 15.4004-7.88086L12.5195-7.88086L12.5195-10.752Q12.5195-11.1328 12.29-11.3623Q12.0605-11.5918 11.6895-11.5918Q11.3379-11.5918 11.1133-11.3574Q10.8887-11.123 10.8887-10.752L10.8887-7.88086L8.01758-7.88086Q7.63672-7.88086 7.40723-7.65137Q7.17773-7.42188 7.17773-7.05078Z"/>
  </g>
  <g transform="matrix(1 0 0 1 305.646 1933)">
   <path d="M14.9707 5.66406Q17.0605 5.66406 18.96 5.01465Q20.8594 4.36523 22.4512 3.19336Q24.043 2.02148 25.2197 0.429688Q26.3965-1.16211 27.0459-3.06641Q27.6953-4.9707 27.6953-7.05078Q27.6953-9.14062 27.0459-11.04Q26.3965-12.9395 25.2197-14.5312Q24.043-16.123 22.4512-17.2998Q20.8594-18.4766 18.9551-19.126Q17.0508-19.7754 14.9609-19.7754Q12.8711-19.7754 10.9717-19.126Q9.07227-18.4766 7.48535-17.2998Q5.89844-16.123 4.72168-14.5312Q3.54492-12.9395 2.90039-11.04Q2.25586-9.14062 2.25586-7.05078Q2.25586-4.9707 2.90527-3.06641Q3.55469-1.16211 4.72656 0.429688Q5.89844 2.02148 7.49023 3.19336Q9.08203 4.36523 10.9814 5.01465Q12.8809 5.66406 14.9707 5.66406ZM14.9707 3.84766Q13.1641 3.84766 11.5283 3.2959Q9.89258 2.74414 8.53516 1.74805Q7.17773 0.751953 6.17676-0.610352Q5.17578-1.97266 4.62891-3.6084Q4.08203-5.24414 4.08203-7.05078Q4.08203-8.86719 4.62891-10.5029Q5.17578-12.1387 6.17188-13.501Q7.16797-14.8633 8.52539-15.8594Q9.88281-16.8555 11.5186-17.4023Q13.1543-17.9492 14.9609-17.9492Q16.7773-17.9492 18.4131-17.4023Q20.0488-16.8555 21.4111-15.8594Q22.7734-14.8633 23.7695-13.501Q24.7656-12.1387 25.3174-10.5029Q25.8691-8.86719 25.8691-7.05078Q25.8789-5.24414 25.332-3.6084Q24.7852-1.97266 23.7842-0.610352Q22.7832 0.751953 21.4209 1.74805Q20.0586 2.74414 18.4229 3.2959Q16.7871 3.84766 14.9707 3.84766ZM9.19922-7.05078Q9.19922-6.66992 9.45801-6.4209Q9.7168-6.17188 10.1172-6.17188L14.0625-6.17188L14.0625-2.2168Q14.0625-1.81641 14.3115-1.55762Q14.5605-1.29883 14.9512-1.29883Q15.3516-1.29883 15.6104-1.55273Q15.8691-1.80664 15.8691-2.2168L15.8691-6.17188L19.8242-6.17188Q20.2246-6.17188 20.4785-6.4209Q20.7324-6.66992 20.7324-7.05078Q20.7324-7.46094 20.4785-7.71484Q20.2246-7.96875 19.8242-7.96875L15.8691-7.96875L15.8691-11.9141Q15.8691-12.3242 15.6104-12.583Q15.3516-12.8418 14.9512-12.8418Q14.5605-12.8418 14.3115-12.583Q14.0625-12.3242 14.0625-11.9141L14.0625-7.96875L10.1172-7.96875Q9.70703-7.96875 9.45312-7.71484Q9.19922-7.46094 9.19922-7.05078Z"/>
  </g>
  <text style="stroke:none;fill:black;font-family:sans-serif;font-size:13;font-weight:bold;" transform="matrix(1 0 0 1 263 1953)">Design Variations</text>
  <text style="stroke:none;fill:black;font-family:sans-serif;font-size:13;" transform="matrix(1 0 0 1 263 1971)">Symbols are supported in up to nine weights and three scales.</text>
  <text style="stroke:none;fill:black;font-family:sans-serif;font-size:13;" transform="matrix(1 0 0 1 263 1989)">For optimal layout with text and other symbols, vertically align</text>
  <text style="stroke:none;fill:black;font-family:sans-serif;font-size:13;" transform="matrix(1 0 0 1 263 2007)">symbols with the adjacent text.</text>
  <line style="fill:none;stroke:#00AEEF;stroke-width:0.5;opacity:1.0;" x1="776" x2="776" y1="1919" y2="1933"/>
  <g transform="matrix(1 0 0 1 776 1933)">
   <path d="M3.31055 0.15625Q3.70117 0.15625 3.91602-0.00976562Q4.13086-0.175781 4.26758-0.585938L5.52734-4.0332L11.2891-4.0332L12.5488-0.585938Q12.6855-0.175781 12.9004-0.00976562Q13.1152 0.15625 13.4961 0.15625Q13.8867 0.15625 14.1162-0.0585938Q14.3457-0.273438 14.3457-0.644531Q14.3457-0.869141 14.2383-1.17188L9.6582-13.3691Q9.48242-13.8184 9.17969-14.043Q8.87695-14.2676 8.4082-14.2676Q7.5-14.2676 7.17773-13.3789L2.59766-1.16211Q2.49023-0.859375 2.49023-0.634766Q2.49023-0.263672 2.70996-0.0537109Q2.92969 0.15625 3.31055 0.15625ZM6.00586-5.51758L8.37891-12.0898L8.42773-12.0898L10.8008-5.51758Z"/>
  </g>
  <line style="fill:none;stroke:#00AEEF;stroke-width:0.5;opacity:1.0;" x1="793.197" x2="793.197" y1="1919" y2="1933"/>
  <text style="stroke:none;fill:black;font-family:sans-serif;font-size:13;font-weight:bold;" transform="matrix(1 0 0 1 776 1953)">Margins</text>
  <text style="stroke:none;fill:black;font-family:sans-serif;font-size:13;" transform="matrix(1 0 0 1 776 1971)">Leading and trailing margins on the left and right side of each symbol</text>
  <text style="stroke:none;fill:black;font-family:sans-serif;font-size:13;" transform="matrix(1 0 0 1 776 1989)">can be adjusted by modifying the x-location of the margin guidelines.</text>
  <text style="stroke:none;fill:black;font-family:sans-serif;font-size:13;" transform="matrix(1 0 0 1 776 2007)">Modifications are automatically applied proportionally to all</text>
  <text style="stroke:none;fill:black;font-family:sans-serif;font-size:13;" transform="matrix(1 0 0 1 776 2025)">scales and weights.</text>
  <g transform="matrix(1 0 0 1 1289 1933)">
   <path d="M2.8418 1.86523L4.54102 3.57422Q5.18555 4.22852 5.90332 4.17969Q6.62109 4.13086 7.31445 3.35938L18.0078-8.42773L17.041-9.4043L6.42578 2.27539Q6.16211 2.57812 5.89355 2.61719Q5.625 2.65625 5.27344 2.30469L4.10156 1.14258Q3.75 0.791016 3.79395 0.522461Q3.83789 0.253906 4.14062-0.0195312L15.6152-10.8203L14.6387-11.7871L3.04688-0.898438Q2.30469-0.214844 2.25098 0.498047Q2.19727 1.21094 2.8418 1.86523ZM9.25781-16.3281Q8.94531-16.0254 8.90625-15.6348Q8.86719-15.2441 9.04297-14.9512Q9.21875-14.6777 9.55566-14.541Q9.89258-14.4043 10.3809-14.5215Q11.4746-14.7754 12.5977-14.7314Q13.7207-14.6875 14.7949-13.9844L14.209-12.5293Q13.9551-11.9043 14.0674-11.4404Q14.1797-10.9766 14.5801-10.5664L16.875-8.25195Q17.2363-7.88086 17.5781-7.82227Q17.9199-7.76367 18.3398-7.8418L19.4043-8.03711L20.0684-7.36328L20.0293-6.80664Q20-6.43555 20.1221-6.12305Q20.2441-5.81055 20.6055-5.44922L21.3672-4.70703Q21.7285-4.3457 22.1533-4.33105Q22.5781-4.31641 22.9297-4.66797L25.8398-7.58789Q26.1914-7.93945 26.1816-8.35449Q26.1719-8.76953 25.8105-9.13086L25.0391-9.89258Q24.6875-10.2539 24.3799-10.3857Q24.0723-10.5176 23.7109-10.4883L23.1348-10.4395L22.4902-11.0742L22.7344-12.1973Q22.832-12.6172 22.6953-12.9834Q22.5586-13.3496 22.1191-13.7891L19.9219-15.9766Q18.6719-17.2168 17.2607-17.8369Q15.8496-18.457 14.4189-18.4814Q12.9883-18.5059 11.665-17.959Q10.3418-17.4121 9.25781-16.3281ZM10.752-15.957Q11.6602-16.6211 12.7002-16.9043Q13.7402-17.1875 14.8047-17.085Q15.8691-16.9824 16.8701-16.5137Q17.8711-16.0449 18.7012-15.2051L21.1328-12.793Q21.3086-12.6172 21.3525-12.4512Q21.3965-12.2852 21.3379-12.0312L21.0156-10.5469L22.5195-9.0625L23.5059-9.12109Q23.6914-9.13086 23.7891-9.09668Q23.8867-9.0625 24.0332-8.91602L24.6094-8.33984L22.168-5.89844L21.5918-6.47461Q21.4453-6.62109 21.4062-6.71875Q21.3672-6.81641 21.377-7.01172L21.4453-7.98828L19.9512-9.47266L18.4277-9.21875Q18.1836-9.16992 18.042-9.2041Q17.9004-9.23828 17.7148-9.41406L15.7129-11.416Q15.5176-11.5918 15.4932-11.7529Q15.4688-11.9141 15.5859-12.1875L16.4648-14.2773Q15.293-15.3711 13.8281-15.791Q12.3633-16.2109 10.8398-15.7617Q10.7227-15.7324 10.6885-15.8057Q10.6543-15.8789 10.752-15.957Z"/>
  </g>
  <text style="stroke:none;fill:black;font-family:sans-serif;font-size:13;font-weight:bold;" transform="matrix(1 0 0 1 1289 1953)">Exporting</text>
  <text style="stroke:none;fill:black;font-family:sans-serif;font-size:13;" transform="matrix(1 0 0 1 1289 1971)">Symbols should be outlined when exporting to ensure the</text>
  <text style="stroke:none;fill:black;font-family:sans-serif;font-size:13;" transform="matrix(1 0 0 1 1289 1989)">design is preserved when submitting to Xcode.</text>
  <text id="template-version" style="stroke:none;fill:black;font-family:sans-serif;font-size:13;text-anchor:end;" transform="matrix(1 0 0 1 3036 1933)">Template v.3.0</text>
  <text style="stroke:none;fill:black;font-family:sans-serif;font-size:13;text-anchor:end;" transform="matrix(1 0 0 1 3036 1951)">Requires Xcode 13 or greater</text>
  <text id="descriptive-name" style="stroke:none;fill:black;font-family:sans-serif;font-size:13;text-anchor:end;" transform="matrix(1 0 0 1 3036 1969)">Generated from arrow-right-circle</text>
  <text style="stroke:none;fill:black;font-family:sans-serif;font-size:13;text-anchor:end;" transform="matrix(1 0 0 1 3036 1987)">Typeset at 100 points</text>
  <text style="stroke:none;fill:black;font-family:sans-serif;font-size:13;" transform="matrix(1 0 0 1 263 726)">Small</text>
  <text style="stroke:none;fill:black;font-family:sans-serif;font-size:13;" transform="matrix(1 0 0 1 263 1156)">Medium</text>
  <text style="stroke:none;fill:black;font-family:sans-serif;font-size:13;" transform="matrix(1 0 0 1 263 1586)">Large</text>
 </g>
 <g id="Guides">
  <g id="H-reference" style="fill:#27AAE1;stroke:none;" transform="matrix(1 0 0 1 339 696)">
   <path d="M0.976562 0L3.66211 0L29.3457-67.1387L30.0293-67.1387L30.0293-70.459L28.125-70.459ZM11.6699-24.4629L46.9727-24.4629L46.2402-26.709L12.4512-26.709ZM55.127 0L57.7637 0L30.6152-70.459L29.4434-70.459L29.4434-67.1387Z"/>
  </g>
  <line id="Baseline-S" style="fill:none;stroke:#27AAE1;opacity:1;stroke-width:0.5;" x1="263" x2="3036" y1="696" y2="696"/>
  <line id="Capline-S" style="fill:none;stroke:#27AAE1;opacity:1;stroke-width:0.5;" x1="263" x2="3036" y1="625.541" y2="625.541"/>
  <g id="H-reference" style="fill:#27AAE1;stroke:none;" transform="matrix(1 0 0 1 339 1126)">
   <path d="M0.976562 0L3.66211 0L29.3457-67.1387L30.0293-67.1387L30.0293-70.459L28.125-70.459ZM11.6699-24.4629L46.9727-24.4629L46.2402-26.709L12.4512-26.709ZM55.127 0L57.7637 0L30.6152-70.459L29.4434-70.459L29.4434-67.1387Z"/>
  </g>
  <line id="Baseline-M" style="fill:none;stroke:#27AAE1;opacity:1;stroke-width:0.5;" x1="263" x2="3036" y1="1126" y2="1126"/>
  <line id="Capline-M" style="fill:none;stroke:#27AAE1;opacity:1;stroke-width:0.5;" x1="263" x2="3036" y1="1055.54" y2="1055.54"/>
  <g id="H-reference" style="fill:#27AAE1;stroke:none;" transform="matrix(1 0 0 1 339 1556)">
   <path d="M0.976562 0L3.66211 0L29.3457-67.1387L30.0293-67.1387L30.0293-70.459L28.125-70.459ZM11.6699-24.4629L46.9727-24.4629L46.2402-26.709L12.4512-26.709ZM55.127 0L57.7637 0L30.6152-70.459L29.4434-70.459L29.4434-67.1387Z"/>
  </g>
  <line id="Baseline-L" style="fill:none;stroke:#27AAE1;opacity:1;stroke-width:0.5;" x1="263" x2="3036" y1="1556" y2="1556"/>
  <line id="Capline-L" style="fill:none;stroke:#27AAE1;opacity:1;stroke-width:0.5;" x1="263" x2="3036" y1="1485.54" y2="1485.54"/>
  <line id="left-margin-Regular-M" style="fill:none;stroke:#00AEEF;stroke-width:0.5;opacity:1.0;" x1="1392.45" x2="1392.45" y1="1030.78" y2="1150.12"/>
  <line id="right-margin-Regular-M" style="fill:none;stroke:#00AEEF;stroke-width:0.5;opacity:1.0;" x1="1507.24" x2="1507.24" y1="1030.78" y2="1150.12"/>
 </g>
 <g id="Symbols">
  <g id="Black-L" transform="matrix(1 0 0 1 2860.15 1556)">
   <path class="hierarchical-0:secondary SFSymbolsPreview4D4D4D" d="M9.43-35.23C9.43-70.56 38.07-99.2 73.4-99.2C108.73-99.2 137.38-70.56 137.38-35.23C137.38 0.1 108.73 28.75 73.4 28.75C38.07 28.75 9.43 0.1 9.43-35.23ZM73.4-85C45.91-85 23.63-62.72 23.63-35.23C23.63-7.74 45.91 14.55 73.4 14.55C100.89 14.55 123.18-7.74 123.18-35.23C123.18-62.72 100.89-85 73.4-85Z"/>
   <path class="hierarchical-1:primary SFSymbolsPreview212121" d="M68.38-63C71.15-65.77 75.65-65.77 78.42-63L101.17-40.25C103.94-37.48 103.94-32.98 101.17-30.21L78.42-7.46C75.65-4.69 71.15-4.69 68.38-7.46C65.61-10.23 65.61-14.73 68.38-17.5L86.11-35.23L68.38-52.96C65.61-55.73 65.61-60.23 68.38-63ZM43.55-35.23C43.55-39.15 46.73-42.33 50.65-42.33L96.15-42.33C100.07-42.33 103.25-39.15 103.25-35.23C103.25-31.31 100.07-28.13 96.15-28.13L50.65-28.13C46.73-28.13 43.55-31.31 43.55-35.23Z"/>
  </g>
  <g id="Heavy-L" transform="matrix(1 0 0 1 2564.29 1556)">
   <path class="hierarchical-0:secondary SFSymbolsPreview4D4D4D" d="M9.43-35.23C9.43-70.09 37.69-98.35 72.56-98.35C107.42-98.35 135.68-70.09 135.68-35.23C135.68-0.37 107.42 27.9 72.56 27.9C37.69 27.9 9.43-0.37 9.43-35.23ZM72.56-85.85C44.6-85.85 21.93-63.19 21.93-35.23C21.93-7.27 44.6 15.4 72.56 15.4C100.52 15.4 123.18-7.27 123.18-35.23C123.18-63.19 100.52-85.85 72.56-85.85Z"/>
   <path class="hierarchical-1:primary SFSymbolsPreview212121" d="M68.14-62.4C70.58-64.84 74.54-64.84 76.98-62.4L99.73-39.65C102.17-37.21 102.17-33.25 99.73-30.81L76.98-8.06C74.54-5.62 70.58-5.62 68.14-8.06C65.7-10.5 65.7-14.46 68.14-16.9L86.47-35.23L68.14-53.56C65.7-56 65.7-59.96 68.14-62.4ZM43.56-35.23C43.56-38.68 46.36-41.48 49.81-41.48L95.31-41.48C98.76-41.48 101.56-38.68 101.56-35.23C101.56-31.78 98.76-28.98 95.31-28.98L49.81-28.98C46.36-28.98 43.56-31.78 43.56-35.23Z"/>
  </g>
  <g id="Bold-L" transform="matrix(1 0 0 1 2268.53 1556)">
   <path class="hierarchical-0:secondary SFSymbolsPreview4D4D4D" d="M9.43-35.23C9.43-69.57 37.27-97.4 71.6-97.4C105.94-97.4 133.78-69.57 133.78-35.23C133.78-0.89 105.94 26.95 71.6 26.95C37.27 26.95 9.43-0.89 9.43-35.23ZM71.6-86.8C43.12-86.8 20.03-63.71 20.03-35.23C20.03-6.75 43.12 16.35 71.6 16.35C100.09 16.35 123.18-6.75 123.18-35.23C123.18-63.71 100.09-86.8 71.6-86.8Z"/>
   <path class="hierarchical-1:primary SFSymbolsPreview212121" d="M67.86-61.73C69.93-63.8 73.28-63.8 75.35-61.73L98.1-38.98C100.17-36.91 100.17-33.55 98.1-31.48L75.35-8.73C73.28-6.66 69.93-6.66 67.86-8.73C65.79-10.8 65.79-14.16 67.86-16.23L86.86-35.23L67.86-54.23C65.79-56.3 65.79-59.66 67.86-61.73ZM43.55-35.23C43.55-38.16 45.93-40.53 48.85-40.53L94.35-40.53C97.28-40.53 99.65-38.16 99.65-35.23C99.65-32.3 97.28-29.93 94.35-29.93L48.85-29.93C45.93-29.93 43.55-32.3 43.55-35.23Z"/>
  </g>
  <g id="Semibold-L" transform="matrix(1 0 0 1 1972.47 1556)">
   <path class="hierarchical-0:secondary SFSymbolsPreview4D4D4D" d="M9.43-35.23C9.43-69.21 36.98-96.75 70.96-96.75C104.94-96.75 132.48-69.21 132.48-35.23C132.48-1.25 104.94 26.3 70.96 26.3C36.98 26.3 9.43-1.25 9.43-35.23ZM70.96-87.45C42.12-87.45 18.73-64.07 18.73-35.23C18.73-6.39 42.12 17 70.96 17C99.8 17 123.18-6.39 123.18-35.23C123.18-64.07 99.8-87.45 70.96-87.45Z"/>
   <path class="hierarchical-1:primary SFSymbolsPreview212121" d="M67.67-61.27C69.49-63.08 72.43-63.08 74.25-61.27L97-38.52C98.81-36.7 98.81-33.76 97-31.94L74.25-9.19C72.43-7.38 69.49-7.38 67.67-9.19C65.86-11.01 65.86-13.95 67.67-15.77L87.13-35.23L67.67-54.69C65.86-56.51 65.86-59.45 67.67-61.27ZM43.56-35.23C43.56-37.8 45.64-39.88 48.21-39.88L93.71-39.88C96.28-39.88 98.36-37.8 98.36-35.23C98.36-32.66 96.28-30.58 93.71-30.58L48.21-30.58C45.64-30.58 43.56-32.66 43.56-35.23Z"/>
  </g>
  <g id="Medium-L" transform="matrix(1 0 0 1 1676.26 1556)">
   <path class="hierarchical-0:secondary SFSymbolsPreview4D4D4D" d="M9.43-35.23C9.43-68.93 36.76-96.25 70.46-96.25C104.16-96.25 131.48-68.93 131.48-35.23C131.48-1.53 104.16 25.8 70.46 25.8C36.76 25.8 9.43-1.53 9.43-35.23ZM70.46-87.95C41.34-87.95 17.73-64.35 17.73-35.23C17.73-6.11 41.34 17.5 70.46 17.5C99.58 17.5 123.18-6.11 123.18-35.23C123.18-64.35 99.58-87.95 70.46-87.95Z"/>
   <path class="hierarchical-1:primary SFSymbolsPreview212121" d="M67.53-60.91C69.15-62.54 71.77-62.54 73.39-60.91L96.14-38.16C97.76-36.54 97.76-33.92 96.14-32.3L73.39-9.55C71.77-7.92 69.15-7.92 67.53-9.55C65.9-11.17 65.9-13.79 67.53-15.41L87.34-35.23L67.53-55.05C65.9-56.67 65.9-59.29 67.53-60.91ZM43.56-35.23C43.56-37.52 45.42-39.38 47.71-39.38L93.21-39.38C95.5-39.38 97.36-37.52 97.36-35.23C97.36-32.94 95.5-31.08 93.21-31.08L47.71-31.08C45.42-31.08 43.56-32.94 43.56-35.23Z"/>
  </g>
  <g id="Regular-L" transform="matrix(1 0 0 1 1380.19 1556)">
   <path class="hierarchical-0:secondary SFSymbolsPreview4D4D4D" d="M9.43-35.23C9.43-68.57 36.47-95.6 69.81-95.6C103.15-95.6 130.19-68.57 130.19-35.23C130.19-1.89 103.15 25.15 69.81 25.15C36.47 25.15 9.43-1.89 9.43-35.23ZM69.81-88.6C40.33-88.6 16.43-64.71 16.43-35.23C16.43-5.75 40.33 18.15 69.81 18.15C99.29 18.15 123.19-5.75 123.19-35.23C123.19-64.71 99.29-88.6 69.81-88.6Z"/>
   <path class="hierarchical-1:primary SFSymbolsPreview212121" d="M67.34-60.45C68.7-61.82 70.92-61.82 72.28-60.45L95.03-37.7C96.4-36.34 96.4-34.12 95.03-32.75L72.28-10C70.92-8.64 68.7-8.64 67.34-10C65.97-11.37 65.97-13.59 67.34-14.95L87.61-35.23L67.34-55.5C65.97-56.87 65.97-59.09 67.34-60.45ZM43.56-35.23C43.56-37.16 45.13-38.73 47.06-38.73L92.56-38.73C94.49-38.73 96.06-37.16 96.06-35.23C96.06-33.3 94.49-31.73 92.56-31.73L47.06-31.73C45.13-31.73 43.56-33.3 43.56-35.23Z"/>
  </g>
  <g id="Light-L" transform="matrix(1 0 0 1 1084.28 1556)">
   <path class="hierarchical-0:secondary SFSymbolsPreview4D4D4D" d="M9.43-35.23C9.43-68.13 36.1-94.8 69-94.8C101.9-94.8 128.58-68.13 128.58-35.23C128.58-2.33 101.9 24.35 69 24.35C36.1 24.35 9.43-2.33 9.43-35.23ZM69-89.4C39.08-89.4 14.83-65.15 14.83-35.23C14.83-5.31 39.08 18.95 69 18.95C98.92 18.95 123.18-5.31 123.18-35.23C123.18-65.15 98.92-89.4 69-89.4Z"/>
   <path class="hierarchical-1:primary SFSymbolsPreview212121" d="M67.09-59.89C68.15-60.94 69.86-60.94 70.91-59.89L93.66-37.14C94.71-36.08 94.71-34.37 93.66-33.32L70.91-10.57C69.86-9.52 68.15-9.52 67.09-10.57C66.04-11.62 66.04-13.33 67.09-14.39L87.93-35.23L67.09-56.07C66.04-57.12 66.04-58.83 67.09-59.89ZM43.55-35.23C43.55-36.72 44.76-37.93 46.25-37.93L91.75-37.93C93.24-37.93 94.45-36.72 94.45-35.23C94.45-33.74 93.24-32.53 91.75-32.53L46.25-32.53C44.76-32.53 43.55-33.74 43.55-35.23Z"/>
  </g>
  <g id="Thin-L" transform="matrix(1 0 0 1 788.622 1556)">
   <path class="hierarchical-0:secondary SFSymbolsPreview4D4D4D" d="M9.43-35.23C9.43-67.55 35.632-93.75 67.955-93.75C100.277-93.75 126.48-67.55 126.48-35.23C126.48-2.91 100.277 23.3 67.955 23.3C35.632 23.3 9.43-2.91 9.43-35.23ZM67.955-90.45C37.455-90.45 12.73-65.73 12.73-35.23C12.73-4.73 37.455 20 67.955 20C98.455 20 123.18-4.73 123.18-35.23C123.18-65.73 98.455-90.45 67.955-90.45Z"/>
   <path class="hierarchical-1:primary SFSymbolsPreview212121" d="M66.788-59.15C67.432-59.79 68.477-59.79 69.121-59.15L91.871-36.4C92.516-35.75 92.516-34.71 91.871-34.06L69.121-11.31C68.477-10.67 67.432-10.67 66.788-11.31C66.144-11.96 66.144-13 66.788-13.65L88.371-35.23L66.788-56.81C66.144-57.46 66.144-58.5 66.788-59.15ZM43.555-35.23C43.555-36.14 44.293-36.88 45.205-36.88L90.705-36.88C91.616-36.88 92.355-36.14 92.355-35.23C92.355-34.32 91.616-33.58 90.705-33.58L45.205-33.58C44.293-33.58 43.555-34.32 43.555-35.23Z"/>
  </g>
  <g id="Ultralight-L" transform="matrix(1 0 0 1 492.461 1556)">
   <path class="hierarchical-0:secondary SFSymbolsPreview4D4D4D" d="M9.43-35.23C9.43-67.25 35.387-93.2 67.405-93.2C99.424-93.2 125.38-67.25 125.38-35.23C125.38-3.21 99.424 22.75 67.405 22.75C35.387 22.75 9.43-3.21 9.43-35.23ZM67.405-91C36.602-91 11.63-66.03 11.63-35.23C11.63-4.43 36.602 20.55 67.405 20.55C98.209 20.55 123.18-4.43 123.18-35.23C123.18-66.03 98.209-91 67.405-91Z"/>
   <path class="hierarchical-1:primary SFSymbolsPreview212121" d="M66.628-58.76C67.057-59.19 67.754-59.19 68.183-58.76L90.933-36.01C91.363-35.58 91.363-34.88 90.933-34.45L68.183-11.7C67.754-11.27 67.057-11.27 66.628-11.7C66.198-12.13 66.198-12.83 66.628-13.26L88.6-35.23L66.628-57.2C66.198-57.63 66.198-58.33 66.628-58.76ZM43.555-35.23C43.555-35.84 44.048-36.33 44.655-36.33L90.155-36.33C90.763-36.33 91.255-35.84 91.255-35.23C91.255-34.62 90.763-34.13 90.155-34.13L44.655-34.13C44.048-34.13 43.555-34.62 43.555-35.23Z"/>
  </g>
  <g id="Black-M" transform="matrix(1 0 0 1 2872.4 1126)">
   <path class="hierarchical-0:secondary SFSymbolsPreview4D4D4D" d="M9.43-35.23C9.43-63.8 32.59-86.95 61.15-86.95C89.72-86.95 112.88-63.8 112.88-35.23C112.88-6.66 89.72 16.5 61.15 16.5C32.59 16.5 9.43-6.66 9.43-35.23ZM61.15-72.75C40.43-72.75 23.63-55.95 23.63-35.23C23.63-14.51 40.43 2.3 61.15 2.3C81.88 2.3 98.68-14.51 98.68-35.23C98.68-55.95 81.88-72.75 61.15-72.75Z"/>
   <path class="hierarchical-1:primary SFSymbolsPreview212121" d="M56.13-58.1C58.91-60.87 63.4-60.87 66.18-58.1L84.03-40.25C86.8-37.48 86.8-32.98 84.03-30.21L66.18-12.36C63.4-9.59 58.91-9.59 56.13-12.36C53.36-15.13 53.36-19.63 56.13-22.4L68.96-35.23L56.13-48.06C53.36-50.83 53.36-55.33 56.13-58.1ZM36.21-35.23C36.21-39.15 39.38-42.33 43.31-42.33L79.01-42.33C82.93-42.33 86.11-39.15 86.11-35.23C86.11-31.31 82.93-28.13 79.01-28.13L43.31-28.13C39.38-28.13 36.21-31.31 36.21-35.23Z"/>
  </g>
  <g id="Heavy-M" transform="matrix(1 0 0 1 2576.54 1126)">
   <path class="hierarchical-0:secondary SFSymbolsPreview4D4D4D" d="M9.43-35.23C9.43-63.33 32.21-86.1 60.3-86.1C88.4-86.1 111.18-63.33 111.18-35.23C111.18-7.13 88.4 15.65 60.3 15.65C32.21 15.65 9.43-7.13 9.43-35.23ZM60.3-73.6C39.11-73.6 21.93-56.42 21.93-35.23C21.93-14.04 39.11 3.15 60.3 3.15C81.5 3.15 98.68-14.04 98.68-35.23C98.68-56.42 81.5-73.6 60.3-73.6Z"/>
   <path class="hierarchical-1:primary SFSymbolsPreview212121" d="M55.88-57.5C58.32-59.94 62.28-59.94 64.72-57.5L82.57-39.65C85.01-37.21 85.01-33.25 82.57-30.81L64.72-12.96C62.28-10.52 58.32-10.52 55.88-12.96C53.44-15.4 53.44-19.36 55.88-21.8L69.31-35.23L55.88-48.66C53.44-51.1 53.44-55.06 55.88-57.5ZM36.2-35.23C36.2-38.68 39-41.48 42.45-41.48L78.15-41.48C81.61-41.48 84.4-38.68 84.4-35.23C84.4-31.78 81.61-28.98 78.15-28.98L42.45-28.98C39-28.98 36.2-31.78 36.2-35.23Z"/>
  </g>
  <g id="Bold-M" transform="matrix(1 0 0 1 2280.78 1126)">
   <path class="hierarchical-0:secondary SFSymbolsPreview4D4D4D" d="M9.43-35.23C9.43-62.8 31.78-85.15 59.35-85.15C86.93-85.15 109.28-62.8 109.28-35.23C109.28-7.66 86.93 14.7 59.35 14.7C31.78 14.7 9.43-7.66 9.43-35.23ZM59.35-74.55C37.64-74.55 20.03-56.95 20.03-35.23C20.03-13.51 37.64 4.1 59.35 4.1C81.07 4.1 98.68-13.51 98.68-35.23C98.68-56.95 81.07-74.55 59.35-74.55Z"/>
   <path class="hierarchical-1:primary SFSymbolsPreview212121" d="M55.61-56.83C57.68-58.9 61.03-58.9 63.1-56.83L80.95-38.98C83.02-36.91 83.02-33.55 80.95-31.48L63.1-13.63C61.03-11.56 57.68-11.56 55.61-13.63C53.54-15.7 53.54-19.06 55.61-21.13L69.71-35.23L55.61-49.33C53.54-51.4 53.54-54.76 55.61-56.83ZM36.2-35.23C36.2-38.16 38.58-40.53 41.5-40.53L77.2-40.53C80.13-40.53 82.5-38.16 82.5-35.23C82.5-32.3 80.13-29.93 77.2-29.93L41.5-29.93C38.58-29.93 36.2-32.3 36.2-35.23Z"/>
  </g>
  <g id="Semibold-M" transform="matrix(1 0 0 1 1984.72 1126)">
   <path class="hierarchical-0:secondary SFSymbolsPreview4D4D4D" d="M9.43-35.23C9.43-62.44 31.5-84.5 58.71-84.5C85.92-84.5 107.98-62.44 107.98-35.23C107.98-8.02 85.92 14.05 58.71 14.05C31.5 14.05 9.43-8.02 9.43-35.23ZM58.71-75.2C36.63-75.2 18.73-57.31 18.73-35.23C18.73-13.15 36.63 4.75 58.71 4.75C80.79 4.75 98.68-13.15 98.68-35.23C98.68-57.31 80.79-75.2 58.71-75.2Z"/>
   <path class="hierarchical-1:primary SFSymbolsPreview212121" d="M55.42-56.37C57.24-58.18 60.18-58.18 62-56.37L79.85-38.52C81.66-36.7 81.66-33.76 79.85-31.94L62-14.09C60.18-12.28 57.24-12.28 55.42-14.09C53.61-15.91 53.61-18.85 55.42-20.67L69.98-35.23L55.42-49.79C53.61-51.61 53.61-54.55 55.42-56.37ZM36.21-35.23C36.21-37.8 38.29-39.88 40.86-39.88L76.56-39.88C79.13-39.88 81.21-37.8 81.21-35.23C81.21-32.66 79.13-30.58 76.56-30.58L40.86-30.58C38.29-30.58 36.21-32.66 36.21-35.23Z"/>
  </g>
  <g id="Medium-M" transform="matrix(1 0 0 1 1688.51 1126)">
   <path class="hierarchical-0:secondary SFSymbolsPreview4D4D4D" d="M9.43-35.23C9.43-62.17 31.27-84 58.21-84C85.15-84 106.98-62.17 106.98-35.23C106.98-8.29 85.15 13.55 58.21 13.55C31.27 13.55 9.43-8.29 9.43-35.23ZM58.21-75.7C35.86-75.7 17.73-57.58 17.73-35.23C17.73-12.88 35.86 5.25 58.21 5.25C80.56 5.25 98.68-12.88 98.68-35.23C98.68-57.58 80.56-75.7 58.21-75.7Z"/>
   <path class="hierarchical-1:primary SFSymbolsPreview212121" d="M55.28-56.01C56.9-57.63 59.52-57.63 61.14-56.01L78.99-38.16C80.61-36.54 80.61-33.92 78.99-32.3L61.14-14.44C59.52-12.82 56.9-12.82 55.28-14.44C53.65-16.07 53.65-18.69 55.28-20.31L70.19-35.23L55.28-50.14C53.65-51.77 53.65-54.39 55.28-56.01ZM36.21-35.23C36.21-37.52 38.07-39.38 40.36-39.38L76.06-39.38C78.35-39.38 80.21-37.52 80.21-35.23C80.21-32.94 78.35-31.08 76.06-31.08L40.36-31.08C38.07-31.08 36.21-32.94 36.21-35.23Z"/>
  </g>
  <g id="Regular-M" transform="matrix(1 0 0 1 1392.45 1126)">
   <path class="hierarchical-0:secondary SFSymbolsPreview4D4D4D" d="M9.43-35.23C9.43-61.81 30.97-83.35 57.55-83.35C84.13-83.35 105.67-61.81 105.67-35.23C105.67-8.65 84.13 12.9 57.55 12.9C30.97 12.9 9.43-8.65 9.43-35.23ZM57.55-76.35C34.84-76.35 16.43-57.94 16.43-35.23C16.43-12.52 34.84 5.9 57.55 5.9C80.26 5.9 98.67-12.52 98.67-35.23C98.67-57.94 80.26-76.35 57.55-76.35Z"/>
   <path class="hierarchical-1:primary SFSymbolsPreview212121" d="M55.08-55.55C56.44-56.92 58.66-56.92 60.02-55.55L77.87-37.7C79.24-36.34 79.24-34.12 77.87-32.75L60.02-14.9C58.66-13.54 56.44-13.54 55.08-14.9C53.71-16.27 53.71-18.49 55.08-19.85L70.45-35.23L55.08-50.6C53.71-51.97 53.71-54.19 55.08-55.55ZM36.2-35.23C36.2-37.16 37.77-38.73 39.7-38.73L75.4-38.73C77.33-38.73 78.9-37.16 78.9-35.23C78.9-33.3 77.33-31.73 75.4-31.73L39.7-31.73C37.77-31.73 36.2-33.3 36.2-35.23Z"/>
  </g>
  <g id="Light-M" transform="matrix(1 0 0 1 1096.53 1126)">
   <path class="hierarchical-0:secondary SFSymbolsPreview4D4D4D" d="M9.43-35.23C9.43-61.37 30.61-82.55 56.75-82.55C82.89-82.55 104.08-61.37 104.08-35.23C104.08-9.09 82.89 12.1 56.75 12.1C30.61 12.1 9.43-9.09 9.43-35.23ZM56.75-77.15C33.6-77.15 14.83-58.38 14.83-35.23C14.83-12.08 33.6 6.7 56.75 6.7C79.91 6.7 98.68-12.08 98.68-35.23C98.68-58.38 79.91-77.15 56.75-77.15Z"/>
   <path class="hierarchical-1:primary SFSymbolsPreview212121" d="M54.84-54.99C55.9-56.04 57.61-56.04 58.66-54.99L76.51-37.14C77.56-36.08 77.56-34.37 76.51-33.32L58.66-15.47C57.61-14.42 55.9-14.42 54.84-15.47C53.79-16.52 53.79-18.23 54.84-19.29L70.78-35.23L54.84-51.17C53.79-52.22 53.79-53.93 54.84-54.99ZM36.2-35.23C36.2-36.72 37.41-37.93 38.9-37.93L74.6-37.93C76.09-37.93 77.3-36.72 77.3-35.23C77.3-33.74 76.09-32.53 74.6-32.53L38.9-32.53C37.41-32.53 36.2-33.74 36.2-35.23Z"/>
  </g>
  <g id="Thin-M" transform="matrix(1 0 0 1 800.872 1126)">
   <path class="hierarchical-0:secondary SFSymbolsPreview4D4D4D" d="M9.43-35.23C9.43-60.79 30.148-81.5 55.705-81.5C81.262-81.5 101.98-60.79 101.98-35.23C101.98-9.67 81.262 11.05 55.705 11.05C30.148 11.05 9.43-9.67 9.43-35.23ZM55.705-78.2C31.97-78.2 12.73-58.96 12.73-35.23C12.73-11.49 31.97 7.75 55.705 7.75C79.439 7.75 98.68-11.49 98.68-35.23C98.68-58.96 79.439-78.2 55.705-78.2Z"/>
   <path class="hierarchical-1:primary SFSymbolsPreview212121" d="M54.538-54.25C55.182-54.89 56.227-54.89 56.871-54.25L74.721-36.4C75.366-35.75 75.366-34.71 74.721-34.06L56.871-16.21C56.227-15.57 55.182-15.57 54.538-16.21C53.894-16.86 53.894-17.9 54.538-18.55L71.221-35.23L54.538-51.91C53.894-52.56 53.894-53.6 54.538-54.25ZM36.205-35.23C36.205-36.14 36.944-36.88 37.855-36.88L73.555-36.88C74.466-36.88 75.205-36.14 75.205-35.23C75.205-34.32 74.466-33.58 73.555-33.58L37.855-33.58C36.944-33.58 36.205-34.32 36.205-35.23Z"/>
  </g>
  <g id="Ultralight-M" transform="matrix(1 0 0 1 504.711 1126)">
   <path class="hierarchical-0:secondary SFSymbolsPreview4D4D4D" d="M9.43-35.23C9.43-60.48 29.902-80.95 55.155-80.95C80.409-80.95 100.88-60.48 100.88-35.23C100.88-9.98 80.409 10.5 55.155 10.5C29.902 10.5 9.43-9.98 9.43-35.23ZM55.155-78.75C31.117-78.75 11.63-59.27 11.63-35.23C11.63-11.19 31.117 8.3 55.155 8.3C79.194 8.3 98.68-11.19 98.68-35.23C98.68-59.27 79.194-78.75 55.155-78.75Z"/>
   <path class="hierarchical-1:primary SFSymbolsPreview212121" d="M54.378-53.86C54.807-54.29 55.504-54.29 55.933-53.86L73.783-36.01C74.213-35.58 74.213-34.88 73.783-34.45L55.933-16.6C55.504-16.17 54.807-16.17 54.378-16.6C53.948-17.03 53.948-17.73 54.378-18.16L71.45-35.23L54.378-52.3C53.948-52.73 53.948-53.43 54.378-53.86ZM36.206-35.23C36.206-35.84 36.698-36.33 37.306-36.33L73.006-36.33C73.613-36.33 74.106-35.84 74.106-35.23C74.106-34.62 73.613-34.13 73.006-34.13L37.306-34.13C36.698-34.13 36.206-34.62 36.206-35.23Z"/>
  </g>
  <g id="Black-S" transform="matrix(1 0 0 1 2882.03 696)">
   <path class="hierarchical-0:secondary SFSymbolsPreview4D4D4D" d="M9.43-35.332C9.43-58.583 28.28-77.432 51.53-77.432C74.78-77.432 93.63-58.583 93.63-35.332C93.63-12.081 74.78 6.768 51.53 6.768C28.28 6.768 9.43-12.081 9.43-35.332ZM51.53-63.232C36.12-63.232 23.63-50.741 23.63-35.332C23.63-19.923 36.12-7.432 51.53-7.432C66.94-7.432 79.43-19.923 79.43-35.332C79.43-50.741 66.94-63.232 51.53-63.232Z"/>
   <path class="hierarchical-1:primary SFSymbolsPreview212121" d="M46.51-54.353C49.28-57.125 53.78-57.125 56.55-54.353L70.55-40.353C73.32-37.58 73.32-33.084 70.55-30.312L56.55-16.312C53.78-13.539 49.28-13.539 46.51-16.312C43.74-19.084 43.74-23.58 46.51-26.353L55.49-35.332L46.51-44.312C43.74-47.084 43.74-51.58 46.51-54.353ZM30.43-35.332C30.43-39.253 33.61-42.432 37.53-42.432L65.53-42.432C69.45-42.432 72.63-39.253 72.63-35.332C72.63-31.411 69.45-28.232 65.53-28.232L37.53-28.232C33.61-28.232 30.43-31.411 30.43-35.332Z"/>
  </g>
  <g id="Heavy-S" transform="matrix(1 0 0 1 2586.16 696)">
   <path class="hierarchical-0:secondary SFSymbolsPreview4D4D4D" d="M9.43-35.332C9.43-58.114 27.9-76.582 50.68-76.582C73.46-76.582 91.93-58.114 91.93-35.332C91.93-12.55 73.46 5.918 50.68 5.918C27.9 5.918 9.43-12.55 9.43-35.332ZM50.68-64.082C34.8-64.082 21.93-51.21 21.93-35.332C21.93-19.454 34.8-6.582 50.68-6.582C66.56-6.582 79.43-19.454 79.43-35.332C79.43-51.21 66.56-64.082 50.68-64.082Z"/>
   <path class="hierarchical-1:primary SFSymbolsPreview212121" d="M46.26-53.751C48.7-56.192 52.66-56.192 55.1-53.751L69.1-39.751C71.54-37.311 71.54-33.353 69.1-30.913L55.1-16.913C52.66-14.472 48.7-14.472 46.26-16.913C43.82-19.353 43.82-23.311 46.26-25.751L55.84-35.332L46.26-44.913C43.82-47.353 43.82-51.311 46.26-53.751ZM30.43-35.332C30.43-38.784 33.23-41.582 36.68-41.582L64.68-41.582C68.13-41.582 70.93-38.784 70.93-35.332C70.93-31.88 68.13-29.082 64.68-29.082L36.68-29.082C33.23-29.082 30.43-31.88 30.43-35.332Z"/>
  </g>
  <g id="Bold-S" transform="matrix(1 0 0 1 2290.4 696)">
   <path class="hierarchical-0:secondary SFSymbolsPreview4D4D4D" d="M9.43-35.127C9.43-57.384 27.48-75.427 49.73-75.427C71.99-75.427 90.03-57.384 90.03-35.127C90.03-12.87 71.99 5.173 49.73 5.173C27.48 5.173 9.43-12.87 9.43-35.127ZM49.73-64.827C33.33-64.827 20.03-51.53 20.03-35.127C20.03-18.724 33.33-5.427 49.73-5.427C66.14-5.427 79.43-18.724 79.43-35.127C79.43-51.53 66.14-64.827 49.73-64.827Z"/>
   <path class="hierarchical-1:primary SFSymbolsPreview212121" d="M45.99-52.874C48.06-54.944 51.41-54.944 53.48-52.874L67.48-38.874C69.55-36.805 69.55-33.449 67.48-31.379L53.48-17.379C51.41-15.309 48.06-15.309 45.99-17.379C43.92-19.449 43.92-22.805 45.99-24.874L56.24-35.127L45.99-45.379C43.92-47.449 43.92-50.805 45.99-52.874ZM30.43-35.127C30.43-38.054 32.81-40.427 35.73-40.427L63.73-40.427C66.66-40.427 69.03-38.054 69.03-35.127C69.03-32.2 66.66-29.827 63.73-29.827L35.73-29.827C32.81-29.827 30.43-32.2 30.43-35.127Z"/>
  </g>
  <g id="Semibold-S" transform="matrix(1 0 0 1 1994.34 696)">
   <path class="hierarchical-0:secondary SFSymbolsPreview4D4D4D" d="M9.43-35.127C9.43-57.025 27.18-74.777 49.08-74.777C70.98-74.777 88.73-57.025 88.73-35.127C88.73-13.229 70.98 4.523 49.08 4.523C27.18 4.523 9.43-13.229 9.43-35.127ZM49.08-65.477C32.32-65.477 18.73-51.889 18.73-35.127C18.73-18.365 32.32-4.777 49.08-4.777C65.84-4.777 79.43-18.365 79.43-35.127C79.43-51.889 65.84-65.477 49.08-65.477Z"/>
   <path class="hierarchical-1:primary SFSymbolsPreview212121" d="M45.79-52.415C47.61-54.231 50.55-54.231 52.37-52.415L66.37-38.415C68.18-36.599 68.18-33.655 66.37-31.839L52.37-17.839C50.55-16.023 47.61-16.023 45.79-17.839C43.98-19.655 43.98-22.599 45.79-24.415L56.5-35.127L45.79-45.839C43.98-47.655 43.98-50.599 45.79-52.415ZM30.43-35.127C30.43-37.695 32.51-39.777 35.08-39.777L63.08-39.777C65.65-39.777 67.73-37.695 67.73-35.127C67.73-32.559 65.65-30.477 63.08-30.477L35.08-30.477C32.51-30.477 30.43-32.559 30.43-35.127Z"/>
  </g>
  <g id="Medium-S" transform="matrix(1 0 0 1 1698.13 696)">
   <path class="hierarchical-0:secondary SFSymbolsPreview4D4D4D" d="M9.43-35.127C9.43-56.749 26.96-74.277 48.58-74.277C70.2-74.277 87.73-56.749 87.73-35.127C87.73-13.505 70.2 4.023 48.58 4.023C26.96 4.023 9.43-13.505 9.43-35.127ZM48.58-65.977C31.54-65.977 17.73-52.165 17.73-35.127C17.73-18.089 31.54-4.277 48.58-4.277C65.62-4.277 79.43-18.089 79.43-35.127C79.43-52.165 65.62-65.977 48.58-65.977Z"/>
   <path class="hierarchical-1:primary SFSymbolsPreview212121" d="M45.65-52.061C47.27-53.682 49.89-53.682 51.51-52.061L65.51-38.061C67.13-36.441 67.13-33.813 65.51-32.192L51.51-18.192C49.89-16.572 47.27-16.572 45.65-18.192C44.02-19.813 44.02-22.441 45.65-24.061L56.71-35.127L45.65-46.192C44.02-47.813 44.02-50.441 45.65-52.061ZM30.43-35.127C30.43-37.419 32.29-39.277 34.58-39.277L62.58-39.277C64.87-39.277 66.73-37.419 66.73-35.127C66.73-32.835 64.87-30.977 62.58-30.977L34.58-30.977C32.29-30.977 30.43-32.835 30.43-35.127Z"/>
  </g>
  <g id="Regular-S" transform="matrix(1 0 0 1 1402.07 696)">
   <path class="hierarchical-0:secondary SFSymbolsPreview4D4D4D" d="M9.43-35.127C9.43-56.39 26.67-73.627 47.93-73.627C69.19-73.627 86.43-56.39 86.43-35.127C86.43-13.864 69.19 3.373 47.93 3.373C26.67 3.373 9.43-13.864 9.43-35.127ZM47.93-66.627C30.53-66.627 16.43-52.524 16.43-35.127C16.43-17.73 30.53-3.627 47.93-3.627C65.33-3.627 79.43-17.73 79.43-35.127C79.43-52.524 65.33-66.627 47.93-66.627Z"/>
   <path class="hierarchical-1:primary SFSymbolsPreview212121" d="M45.46-51.602C46.82-52.969 49.04-52.969 50.4-51.602L64.4-37.602C65.77-36.235 65.77-34.019 64.4-32.652L50.4-18.652C49.04-17.285 46.82-17.285 45.46-18.652C44.09-20.019 44.09-22.235 45.46-23.602L56.98-35.127L45.46-46.652C44.09-48.019 44.09-50.235 45.46-51.602ZM30.43-35.127C30.43-37.06 32-38.627 33.93-38.627L61.93-38.627C63.86-38.627 65.43-37.06 65.43-35.127C65.43-33.194 63.86-31.627 61.93-31.627L33.93-31.627C32-31.627 30.43-33.194 30.43-35.127Z"/>
  </g>
  <g id="Light-S" transform="matrix(1 0 0 1 1106.16 696)">
   <path class="hierarchical-0:secondary SFSymbolsPreview4D4D4D" d="M9.43-35.127C9.43-55.948 26.31-72.827 47.13-72.827C67.95-72.827 84.83-55.948 84.83-35.127C84.83-14.306 67.95 2.573 47.13 2.573C26.31 2.573 9.43-14.306 9.43-35.127ZM47.13-67.427C29.29-67.427 14.83-52.966 14.83-35.127C14.83-17.288 29.29-2.827 47.13-2.827C64.97-2.827 79.43-17.288 79.43-35.127C79.43-52.966 64.97-67.427 47.13-67.427Z"/>
   <path class="hierarchical-1:primary SFSymbolsPreview212121" d="M45.22-51.036C46.28-52.091 47.99-52.091 49.04-51.036L63.04-37.036C64.09-35.982 64.09-34.272 63.04-33.218L49.04-19.218C47.99-18.164 46.28-18.164 45.22-19.218C44.17-20.272 44.17-21.982 45.22-23.036L57.31-35.127L45.22-47.218C44.17-48.272 44.17-49.982 45.22-51.036ZM30.43-35.127C30.43-36.618 31.64-37.827 33.13-37.827L61.13-37.827C62.62-37.827 63.83-36.618 63.83-35.127C63.83-33.636 62.62-32.427 61.13-32.427L33.13-32.427C31.64-32.427 30.43-33.636 30.43-35.127Z"/>
  </g>
  <g id="Thin-S" transform="matrix(1 0 0 1 810.497 696)">
   <path class="hierarchical-0:secondary SFSymbolsPreview4D4D4D" d="M9.43-35.127C9.43-55.368 25.838-71.777 46.08-71.777C66.321-71.777 82.73-55.368 82.73-35.127C82.73-14.886 66.321 1.523 46.08 1.523C25.838 1.523 9.43-14.886 9.43-35.127ZM46.08-68.477C27.661-68.477 12.73-53.546 12.73-35.127C12.73-16.708 27.661-1.777 46.08-1.777C64.498-1.777 79.43-16.708 79.43-35.127C79.43-53.546 64.498-68.477 46.08-68.477Z"/>
   <path class="hierarchical-1:primary SFSymbolsPreview212121" d="M44.913-50.294C45.557-50.938 46.602-50.938 47.246-50.294L61.246-36.294C61.891-35.649 61.891-34.604 61.246-33.96L47.246-19.96C46.602-19.316 45.557-19.316 44.913-19.96C44.269-20.604 44.269-21.649 44.913-22.294L57.746-35.127L44.913-47.96C44.269-48.604 44.269-49.649 44.913-50.294ZM30.43-35.127C30.43-36.038 31.168-36.777 32.08-36.777L60.08-36.777C60.991-36.777 61.73-36.038 61.73-35.127C61.73-34.216 60.991-33.477 60.08-33.477L32.08-33.477C31.168-33.477 30.43-34.216 30.43-35.127Z"/>
  </g>
  <g id="Ultralight-S" transform="matrix(1 0 0 1 514.336 696)">
   <path class="hierarchical-0:secondary SFSymbolsPreview4D4D4D" d="M9.43-35.127C9.43-55.065 25.593-71.227 45.53-71.227C65.468-71.227 81.63-55.065 81.63-35.127C81.63-15.19 65.468 0.973 45.53 0.973C25.593 0.973 9.43-15.19 9.43-35.127ZM45.53-69.027C26.808-69.027 11.63-53.85 11.63-35.127C11.63-16.405 26.808-1.227 45.53-1.227C64.253-1.227 79.43-16.405 79.43-35.127C79.43-53.85 64.253-69.027 45.53-69.027Z"/>
   <path class="hierarchical-1:primary SFSymbolsPreview212121" d="M44.753-49.905C45.182-50.334 45.879-50.334 46.308-49.905L60.308-35.905C60.738-35.475 60.738-34.779 60.308-34.349L46.308-20.349C45.879-19.92 45.182-19.92 44.753-20.349C44.323-20.779 44.323-21.475 44.753-21.905L57.975-35.127L44.753-48.349C44.323-48.779 44.323-49.475 44.753-49.905ZM30.43-35.127C30.43-35.735 30.923-36.227 31.53-36.227L59.53-36.227C60.138-36.227 60.63-35.735 60.63-35.127C60.63-34.52 60.138-34.027 59.53-34.027L31.53-34.027C30.923-34.027 30.43-34.52 30.43-35.127Z"/>
  </g>
 </g>
</svg>
