<?xml version="1.0" encoding="UTF-8"?>
<!--Generator: Apple Native CoreSVG 175-->
<!DOCTYPE svg
PUBLIC "-//W3C//DTD SVG 1.1//EN"
       "http://www.w3.org/Graphics/SVG/1.1/DTD/svg11.dtd">
<svg version="1.1" xmlns="http://www.w3.org/2000/svg" xmlns:xlink="http://www.w3.org/1999/xlink" width="3300" height="2200">
 <!--glyph: "", point size: 100.0, font version: "17.0d12e1", template writer version: "65.1"-->
 <g id="Notes">
  <rect height="2200" id="artboard" style="fill:white;opacity:1" width="3300" x="0" y="0"/>
  <line style="fill:none;stroke:black;opacity:1;stroke-width:0.5;" x1="263" x2="3036" y1="292" y2="292"/>
  <text style="stroke:none;fill:black;font-family:sans-serif;font-size:13;font-weight:bold;" transform="matrix(1 0 0 1 263 322)">Weight/Scale Variations</text>
  <text style="stroke:none;fill:black;font-family:sans-serif;font-size:13;text-anchor:middle;" transform="matrix(1 0 0 1 559.711 322)">Ultralight</text>
  <text style="stroke:none;fill:black;font-family:sans-serif;font-size:13;text-anchor:middle;" transform="matrix(1 0 0 1 856.422 322)">Thin</text>
  <text style="stroke:none;fill:black;font-family:sans-serif;font-size:13;text-anchor:middle;" transform="matrix(1 0 0 1 1153.13 322)">Light</text>
  <text style="stroke:none;fill:black;font-family:sans-serif;font-size:13;text-anchor:middle;" transform="matrix(1 0 0 1 1449.84 322)">Regular</text>
  <text style="stroke:none;fill:black;font-family:sans-serif;font-size:13;text-anchor:middle;" transform="matrix(1 0 0 1 1746.56 322)">Medium</text>
  <text style="stroke:none;fill:black;font-family:sans-serif;font-size:13;text-anchor:middle;" transform="matrix(1 0 0 1 2043.27 322)">Semibold</text>
  <text style="stroke:none;fill:black;font-family:sans-serif;font-size:13;text-anchor:middle;" transform="matrix(1 0 0 1 2339.98 322)">Bold</text>
  <text style="stroke:none;fill:black;font-family:sans-serif;font-size:13;text-anchor:middle;" transform="matrix(1 0 0 1 2636.69 322)">Heavy</text>
  <text style="stroke:none;fill:black;font-family:sans-serif;font-size:13;text-anchor:middle;" transform="matrix(1 0 0 1 2933.4 322)">Black</text>
  <line style="fill:none;stroke:black;opacity:1;stroke-width:0.5;" x1="263" x2="3036" y1="1903" y2="1903"/>
  <g transform="matrix(1 0 0 1 263 1933)">
   <path d="M9.24805 0.830078Q10.8691 0.830078 12.2949 0.214844Q13.7207-0.400391 14.8096-1.49414Q15.8984-2.58789 16.5186-4.01367Q17.1387-5.43945 17.1387-7.05078Q17.1387-8.66211 16.5186-10.0879Q15.8984-11.5137 14.8047-12.6074Q13.7109-13.7012 12.2852-14.3164Q10.8594-14.9316 9.23828-14.9316Q7.62695-14.9316 6.20117-14.3164Q4.77539-13.7012 3.69141-12.6074Q2.60742-11.5137 1.9873-10.0879Q1.36719-8.66211 1.36719-7.05078Q1.36719-5.43945 1.9873-4.01367Q2.60742-2.58789 3.69629-1.49414Q4.78516-0.400391 6.21094 0.214844Q7.63672 0.830078 9.24805 0.830078ZM9.24805-0.654297Q7.91992-0.654297 6.7627-1.14746Q5.60547-1.64062 4.73145-2.51953Q3.85742-3.39844 3.36426-4.56055Q2.87109-5.72266 2.87109-7.05078Q2.87109-8.37891 3.35938-9.54102Q3.84766-10.7031 4.72168-11.582Q5.5957-12.4609 6.75293-12.9541Q7.91016-13.4473 9.23828-13.4473Q10.5762-13.4473 11.7334-12.9541Q12.8906-12.4609 13.7695-11.582Q14.6484-10.7031 15.1465-9.54102Q15.6445-8.37891 15.6445-7.05078Q15.6445-5.72266 15.1514-4.56055Q14.6582-3.39844 13.7842-2.51953Q12.9102-1.64062 11.748-1.14746Q10.5859-0.654297 9.24805-0.654297ZM5.6543-7.05078Q5.6543-6.72852 5.85938-6.52832Q6.06445-6.32812 6.40625-6.32812L8.51562-6.32812L8.51562-4.20898Q8.51562-3.88672 8.71094-3.67676Q8.90625-3.4668 9.23828-3.4668Q9.56055-3.4668 9.77051-3.67676Q9.98047-3.88672 9.98047-4.20898L9.98047-6.32812L12.0898-6.32812Q12.4219-6.32812 12.627-6.52832Q12.832-6.72852 12.832-7.05078Q12.832-7.38281 12.627-7.58789Q12.4219-7.79297 12.0898-7.79297L9.98047-7.79297L9.98047-9.90234Q9.98047-10.2344 9.77051-10.4443Q9.56055-10.6543 9.23828-10.6543Q8.90625-10.6543 8.71094-10.4443Q8.51562-10.2344 8.51562-9.90234L8.51562-7.79297L6.40625-7.79297Q6.06445-7.79297 5.85938-7.58789Q5.6543-7.38281 5.6543-7.05078Z"/>
  </g>
  <g transform="matrix(1 0 0 1 281.867 1933)">
   <path d="M11.709 2.91016Q13.75 2.91016 15.5518 2.12891Q17.3535 1.34766 18.7305-0.0292969Q20.1074-1.40625 20.8887-3.20801Q21.6699-5.00977 21.6699-7.05078Q21.6699-9.0918 20.8887-10.8936Q20.1074-12.6953 18.7305-14.0723Q17.3535-15.4492 15.5469-16.2305Q13.7402-17.0117 11.6992-17.0117Q9.6582-17.0117 7.85645-16.2305Q6.05469-15.4492 4.68262-14.0723Q3.31055-12.6953 2.5293-10.8936Q1.74805-9.0918 1.74805-7.05078Q1.74805-5.00977 2.5293-3.20801Q3.31055-1.40625 4.6875-0.0292969Q6.06445 1.34766 7.86621 2.12891Q9.66797 2.91016 11.709 2.91016ZM11.709 1.25Q9.98047 1.25 8.47656 0.605469Q6.97266-0.0390625 5.83496-1.17676Q4.69727-2.31445 4.05762-3.81836Q3.41797-5.32227 3.41797-7.05078Q3.41797-8.7793 4.05762-10.2832Q4.69727-11.7871 5.83008-12.9297Q6.96289-14.0723 8.4668-14.7119Q9.9707-15.3516 11.6992-15.3516Q13.4277-15.3516 14.9316-14.7119Q16.4355-14.0723 17.5781-12.9297Q18.7207-11.7871 19.3652-10.2832Q20.0098-8.7793 20.0098-7.05078Q20.0098-5.32227 19.3701-3.81836Q18.7305-2.31445 17.5928-1.17676Q16.4551-0.0390625 14.9463 0.605469Q13.4375 1.25 11.709 1.25ZM7.17773-7.05078Q7.17773-6.69922 7.41211-6.47461Q7.64648-6.25 8.01758-6.25L10.8887-6.25L10.8887-3.36914Q10.8887-2.99805 11.1133-2.76855Q11.3379-2.53906 11.6895-2.53906Q12.0605-2.53906 12.29-2.76855Q12.5195-2.99805 12.5195-3.36914L12.5195-6.25L15.4004-6.25Q15.7715-6.25 16.001-6.47461Q16.2305-6.69922 16.2305-7.05078Q16.2305-7.42188 16.001-7.65137Q15.7715-7.88086 15.4004-7.88086L12.5195-7.88086L12.5195-10.752Q12.5195-11.1328 12.29-11.3623Q12.0605-11.5918 11.6895-11.5918Q11.3379-11.5918 11.1133-11.3574Q10.8887-11.123 10.8887-10.752L10.8887-7.88086L8.01758-7.88086Q7.63672-7.88086 7.40723-7.65137Q7.17773-7.42188 7.17773-7.05078Z"/>
  </g>
  <g transform="matrix(1 0 0 1 305.646 1933)">
   <path d="M14.9707 5.66406Q17.0605 5.66406 18.96 5.01465Q20.8594 4.36523 22.4512 3.19336Q24.043 2.02148 25.2197 0.429688Q26.3965-1.16211 27.0459-3.06641Q27.6953-4.9707 27.6953-7.05078Q27.6953-9.14062 27.0459-11.04Q26.3965-12.9395 25.2197-14.5312Q24.043-16.123 22.4512-17.2998Q20.8594-18.4766 18.9551-19.126Q17.0508-19.7754 14.9609-19.7754Q12.8711-19.7754 10.9717-19.126Q9.07227-18.4766 7.48535-17.2998Q5.89844-16.123 4.72168-14.5312Q3.54492-12.9395 2.90039-11.04Q2.25586-9.14062 2.25586-7.05078Q2.25586-4.9707 2.90527-3.06641Q3.55469-1.16211 4.72656 0.429688Q5.89844 2.02148 7.49023 3.19336Q9.08203 4.36523 10.9814 5.01465Q12.8809 5.66406 14.9707 5.66406ZM14.9707 3.84766Q13.1641 3.84766 11.5283 3.2959Q9.89258 2.74414 8.53516 1.74805Q7.17773 0.751953 6.17676-0.610352Q5.17578-1.97266 4.62891-3.6084Q4.08203-5.24414 4.08203-7.05078Q4.08203-8.86719 4.62891-10.5029Q5.17578-12.1387 6.17188-13.501Q7.16797-14.8633 8.52539-15.8594Q9.88281-16.8555 11.5186-17.4023Q13.1543-17.9492 14.9609-17.9492Q16.7773-17.9492 18.4131-17.4023Q20.0488-16.8555 21.4111-15.8594Q22.7734-14.8633 23.7695-13.501Q24.7656-12.1387 25.3174-10.5029Q25.8691-8.86719 25.8691-7.05078Q25.8789-5.24414 25.332-3.6084Q24.7852-1.97266 23.7842-0.610352Q22.7832 0.751953 21.4209 1.74805Q20.0586 2.74414 18.4229 3.2959Q16.7871 3.84766 14.9707 3.84766ZM9.19922-7.05078Q9.19922-6.66992 9.45801-6.4209Q9.7168-6.17188 10.1172-6.17188L14.0625-6.17188L14.0625-2.2168Q14.0625-1.81641 14.3115-1.55762Q14.5605-1.29883 14.9512-1.29883Q15.3516-1.29883 15.6104-1.55273Q15.8691-1.80664 15.8691-2.2168L15.8691-6.17188L19.8242-6.17188Q20.2246-6.17188 20.4785-6.4209Q20.7324-6.66992 20.7324-7.05078Q20.7324-7.46094 20.4785-7.71484Q20.2246-7.96875 19.8242-7.96875L15.8691-7.96875L15.8691-11.9141Q15.8691-12.3242 15.6104-12.583Q15.3516-12.8418 14.9512-12.8418Q14.5605-12.8418 14.3115-12.583Q14.0625-12.3242 14.0625-11.9141L14.0625-7.96875L10.1172-7.96875Q9.70703-7.96875 9.45312-7.71484Q9.19922-7.46094 9.19922-7.05078Z"/>
  </g>
  <text style="stroke:none;fill:black;font-family:sans-serif;font-size:13;font-weight:bold;" transform="matrix(1 0 0 1 263 1953)">Design Variations</text>
  <text style="stroke:none;fill:black;font-family:sans-serif;font-size:13;" transform="matrix(1 0 0 1 263 1971)">Symbols are supported in up to nine weights and three scales.</text>
  <text style="stroke:none;fill:black;font-family:sans-serif;font-size:13;" transform="matrix(1 0 0 1 263 1989)">For optimal layout with text and other symbols, vertically align</text>
  <text style="stroke:none;fill:black;font-family:sans-serif;font-size:13;" transform="matrix(1 0 0 1 263 2007)">symbols with the adjacent text.</text>
  <line style="fill:none;stroke:#00AEEF;stroke-width:0.5;opacity:1.0;" x1="776" x2="776" y1="1919" y2="1933"/>
  <g transform="matrix(1 0 0 1 776 1933)">
   <path d="M3.31055 0.15625Q3.70117 0.15625 3.91602-0.00976562Q4.13086-0.175781 4.26758-0.585938L5.52734-4.0332L11.2891-4.0332L12.5488-0.585938Q12.6855-0.175781 12.9004-0.00976562Q13.1152 0.15625 13.4961 0.15625Q13.8867 0.15625 14.1162-0.0585938Q14.3457-0.273438 14.3457-0.644531Q14.3457-0.869141 14.2383-1.17188L9.6582-13.3691Q9.48242-13.8184 9.17969-14.043Q8.87695-14.2676 8.4082-14.2676Q7.5-14.2676 7.17773-13.3789L2.59766-1.16211Q2.49023-0.859375 2.49023-0.634766Q2.49023-0.263672 2.70996-0.0537109Q2.92969 0.15625 3.31055 0.15625ZM6.00586-5.51758L8.37891-12.0898L8.42773-12.0898L10.8008-5.51758Z"/>
  </g>
  <line style="fill:none;stroke:#00AEEF;stroke-width:0.5;opacity:1.0;" x1="793.197" x2="793.197" y1="1919" y2="1933"/>
  <text style="stroke:none;fill:black;font-family:sans-serif;font-size:13;font-weight:bold;" transform="matrix(1 0 0 1 776 1953)">Margins</text>
  <text style="stroke:none;fill:black;font-family:sans-serif;font-size:13;" transform="matrix(1 0 0 1 776 1971)">Leading and trailing margins on the left and right side of each symbol</text>
  <text style="stroke:none;fill:black;font-family:sans-serif;font-size:13;" transform="matrix(1 0 0 1 776 1989)">can be adjusted by modifying the x-location of the margin guidelines.</text>
  <text style="stroke:none;fill:black;font-family:sans-serif;font-size:13;" transform="matrix(1 0 0 1 776 2007)">Modifications are automatically applied proportionally to all</text>
  <text style="stroke:none;fill:black;font-family:sans-serif;font-size:13;" transform="matrix(1 0 0 1 776 2025)">scales and weights.</text>
  <g transform="matrix(1 0 0 1 1289 1933)">
   <path d="M2.8418 1.86523L4.54102 3.57422Q5.18555 4.22852 5.90332 4.17969Q6.62109 4.13086 7.31445 3.35938L18.0078-8.42773L17.041-9.4043L6.42578 2.27539Q6.16211 2.57812 5.89355 2.61719Q5.625 2.65625 5.27344 2.30469L4.10156 1.14258Q3.75 0.791016 3.79395 0.522461Q3.83789 0.253906 4.14062-0.0195312L15.6152-10.8203L14.6387-11.7871L3.04688-0.898438Q2.30469-0.214844 2.25098 0.498047Q2.19727 1.21094 2.8418 1.86523ZM9.25781-16.3281Q8.94531-16.0254 8.90625-15.6348Q8.86719-15.2441 9.04297-14.9512Q9.21875-14.6777 9.55566-14.541Q9.89258-14.4043 10.3809-14.5215Q11.4746-14.7754 12.5977-14.7314Q13.7207-14.6875 14.7949-13.9844L14.209-12.5293Q13.9551-11.9043 14.0674-11.4404Q14.1797-10.9766 14.5801-10.5664L16.875-8.25195Q17.2363-7.88086 17.5781-7.82227Q17.9199-7.76367 18.3398-7.8418L19.4043-8.03711L20.0684-7.36328L20.0293-6.80664Q20-6.43555 20.1221-6.12305Q20.2441-5.81055 20.6055-5.44922L21.3672-4.70703Q21.7285-4.3457 22.1533-4.33105Q22.5781-4.31641 22.9297-4.66797L25.8398-7.58789Q26.1914-7.93945 26.1816-8.35449Q26.1719-8.76953 25.8105-9.13086L25.0391-9.89258Q24.6875-10.2539 24.3799-10.3857Q24.0723-10.5176 23.7109-10.4883L23.1348-10.4395L22.4902-11.0742L22.7344-12.1973Q22.832-12.6172 22.6953-12.9834Q22.5586-13.3496 22.1191-13.7891L19.9219-15.9766Q18.6719-17.2168 17.2607-17.8369Q15.8496-18.457 14.4189-18.4814Q12.9883-18.5059 11.665-17.959Q10.3418-17.4121 9.25781-16.3281ZM10.752-15.957Q11.6602-16.6211 12.7002-16.9043Q13.7402-17.1875 14.8047-17.085Q15.8691-16.9824 16.8701-16.5137Q17.8711-16.0449 18.7012-15.2051L21.1328-12.793Q21.3086-12.6172 21.3525-12.4512Q21.3965-12.2852 21.3379-12.0312L21.0156-10.5469L22.5195-9.0625L23.5059-9.12109Q23.6914-9.13086 23.7891-9.09668Q23.8867-9.0625 24.0332-8.91602L24.6094-8.33984L22.168-5.89844L21.5918-6.47461Q21.4453-6.62109 21.4062-6.71875Q21.3672-6.81641 21.377-7.01172L21.4453-7.98828L19.9512-9.47266L18.4277-9.21875Q18.1836-9.16992 18.042-9.2041Q17.9004-9.23828 17.7148-9.41406L15.7129-11.416Q15.5176-11.5918 15.4932-11.7529Q15.4688-11.9141 15.5859-12.1875L16.4648-14.2773Q15.293-15.3711 13.8281-15.791Q12.3633-16.2109 10.8398-15.7617Q10.7227-15.7324 10.6885-15.8057Q10.6543-15.8789 10.752-15.957Z"/>
  </g>
  <text style="stroke:none;fill:black;font-family:sans-serif;font-size:13;font-weight:bold;" transform="matrix(1 0 0 1 1289 1953)">Exporting</text>
  <text style="stroke:none;fill:black;font-family:sans-serif;font-size:13;" transform="matrix(1 0 0 1 1289 1971)">Symbols should be outlined when exporting to ensure the</text>
  <text style="stroke:none;fill:black;font-family:sans-serif;font-size:13;" transform="matrix(1 0 0 1 1289 1989)">design is preserved when submitting to Xcode.</text>
  <text id="template-version" style="stroke:none;fill:black;font-family:sans-serif;font-size:13;text-anchor:end;" transform="matrix(1 0 0 1 3036 1933)">Template v.3.0</text>
  <text style="stroke:none;fill:black;font-family:sans-serif;font-size:13;text-anchor:end;" transform="matrix(1 0 0 1 3036 1951)">Requires Xcode 13 or greater</text>
  <text id="descriptive-name" style="stroke:none;fill:black;font-family:sans-serif;font-size:13;text-anchor:end;" transform="matrix(1 0 0 1 3036 1969)">Generated from droplet</text>
  <text style="stroke:none;fill:black;font-family:sans-serif;font-size:13;text-anchor:end;" transform="matrix(1 0 0 1 3036 1987)">Typeset at 100 points</text>
  <text style="stroke:none;fill:black;font-family:sans-serif;font-size:13;" transform="matrix(1 0 0 1 263 726)">Small</text>
  <text style="stroke:none;fill:black;font-family:sans-serif;font-size:13;" transform="matrix(1 0 0 1 263 1156)">Medium</text>
  <text style="stroke:none;fill:black;font-family:sans-serif;font-size:13;" transform="matrix(1 0 0 1 263 1586)">Large</text>
 </g>
 <g id="Guides">
  <g id="H-reference" style="fill:#27AAE1;stroke:none;" transform="matrix(1 0 0 1 339 696)">
   <path d="M0.976562 0L3.66211 0L29.3457-67.1387L30.0293-67.1387L30.0293-70.459L28.125-70.459ZM11.6699-24.4629L46.9727-24.4629L46.2402-26.709L12.4512-26.709ZM55.127 0L57.7637 0L30.6152-70.459L29.4434-70.459L29.4434-67.1387Z"/>
  </g>
  <line id="Baseline-S" style="fill:none;stroke:#27AAE1;opacity:1;stroke-width:0.5;" x1="263" x2="3036" y1="696" y2="696"/>
  <line id="Capline-S" style="fill:none;stroke:#27AAE1;opacity:1;stroke-width:0.5;" x1="263" x2="3036" y1="625.541" y2="625.541"/>
  <g id="H-reference" style="fill:#27AAE1;stroke:none;" transform="matrix(1 0 0 1 339 1126)">
   <path d="M0.976562 0L3.66211 0L29.3457-67.1387L30.0293-67.1387L30.0293-70.459L28.125-70.459ZM11.6699-24.4629L46.9727-24.4629L46.2402-26.709L12.4512-26.709ZM55.127 0L57.7637 0L30.6152-70.459L29.4434-70.459L29.4434-67.1387Z"/>
  </g>
  <line id="Baseline-M" style="fill:none;stroke:#27AAE1;opacity:1;stroke-width:0.5;" x1="263" x2="3036" y1="1126" y2="1126"/>
  <line id="Capline-M" style="fill:none;stroke:#27AAE1;opacity:1;stroke-width:0.5;" x1="263" x2="3036" y1="1055.54" y2="1055.54"/>
  <g id="H-reference" style="fill:#27AAE1;stroke:none;" transform="matrix(1 0 0 1 339 1556)">
   <path d="M0.976562 0L3.66211 0L29.3457-67.1387L30.0293-67.1387L30.0293-70.459L28.125-70.459ZM11.6699-24.4629L46.9727-24.4629L46.2402-26.709L12.4512-26.709ZM55.127 0L57.7637 0L30.6152-70.459L29.4434-70.459L29.4434-67.1387Z"/>
  </g>
  <line id="Baseline-L" style="fill:none;stroke:#27AAE1;opacity:1;stroke-width:0.5;" x1="263" x2="3036" y1="1556" y2="1556"/>
  <line id="Capline-L" style="fill:none;stroke:#27AAE1;opacity:1;stroke-width:0.5;" x1="263" x2="3036" y1="1485.54" y2="1485.54"/>
  <line id="left-margin-Regular-M" style="fill:none;stroke:#00AEEF;stroke-width:0.5;opacity:1.0;" x1="1393.97" x2="1393.97" y1="1030.78" y2="1150.12"/>
  <line id="right-margin-Regular-M" style="fill:none;stroke:#00AEEF;stroke-width:0.5;opacity:1.0;" x1="1505.72" x2="1505.72" y1="1030.78" y2="1150.12"/>
 </g>
 <g id="Symbols">
  <g id="Black-L" transform="matrix(1 0 0 1 2864.13 1556)">
   <path d="M64.3963-94.5974L32.2663-62.4074C24.9063-55.0574 19.8863-45.6774 17.8663-35.4674C15.8263-25.2874 16.8663-14.7074 20.8463-5.0875C24.8163 4.5225 31.5563 12.7326 40.2163 18.5326C48.8663 24.3126 59.0463 27.4026 69.4463 27.4026C79.8463 27.4026 90.0263 24.3126 98.6763 18.5326C107.337 12.7326 114.077 4.5225 118.047-5.0875C122.027-14.7074 123.067-25.2874 121.027-35.4774C119.007-45.6774 113.997-55.0574 106.627-62.4174L74.4363-94.5974C71.6663-97.3774 67.1663-97.3674 64.3963-94.5974ZM42.3063-52.3674L69.4163-79.5374L96.5863-52.3674C101.967-46.9974 105.627-40.1574 107.107-32.7074C108.587-25.2574 107.827-17.5374 104.927-10.5075C102.027-3.5075 97.1063 2.4925 90.7763 6.7325C84.4663 10.9526 77.0463 13.2026 69.4463 13.2026C61.8563 13.2026 54.4263 10.9526 48.1163 6.7325C41.7863 2.4925 36.8663-3.5075 33.9663-10.5075C31.0663-17.5374 30.3063-25.2574 31.7863-32.6974C33.2663-40.1574 36.9263-46.9974 42.3063-52.3674Z"/>
  </g>
  <g id="Heavy-L" transform="matrix(1 0 0 1 2568.26 1556)">
   <path d="M64.1485-93.82L32.0085-61.63C24.7685-54.39 19.8385-45.17 17.8385-35.13C15.8485-25.08 16.8685-14.68 20.7885-5.23C24.6885 4.23 31.3185 12.31 39.8385 18.01C48.3485 23.69 58.3585 26.73 68.5985 26.73C78.8385 26.73 88.8385 23.69 97.3485 18.01C105.869 12.3 112.489 4.23 116.409-5.23C120.329-14.7 121.349-25.1 119.349-35.13C117.349-45.18 112.419-54.4 105.179-61.63L72.9885-93.82C70.5485-96.26 66.5885-96.26 64.1485-93.82ZM40.8485-52.79L68.5685-80.56L96.3385-52.79C101.829-47.31 105.569-40.31 107.089-32.69C108.609-25.08 107.829-17.19 104.859-10.01C101.889-2.84 96.8585 3.29 90.3985 7.62C83.9485 11.93 76.3585 14.23 68.5985 14.23C60.8385 14.23 53.2385 11.93 46.7885 7.61C40.3285 3.29 35.2985-2.84 32.3385-10.01C29.3585-17.18 28.5885-25.07 30.0985-32.69C31.6185-40.3 35.3585-47.3 40.8485-52.79Z"/>
  </g>
  <g id="Bold-L" transform="matrix(1 0 0 1 2272.5 1556)">
   <path d="M63.8756-92.965L31.7356-60.775C24.6356-53.675 19.7956-44.625 17.8256-34.765C15.8656-24.915 16.8656-14.705 20.7056-5.415C24.5556 3.875 31.0656 11.805 39.4156 17.395C47.7856 22.985 57.6056 25.965 67.6456 25.965C77.6956 25.965 87.5156 22.985 95.8756 17.405C104.246 11.805 110.746 3.875 114.586-5.415C118.436-14.695 119.436-24.915 117.476-34.765C115.506-44.615 110.666-53.675 103.566-60.775L71.3756-92.965C69.3056-95.035 65.9456-95.035 63.8756-92.965ZM39.2356-53.275L67.6256-81.715L96.0656-53.275C101.696-47.655 105.526-40.485 107.076-32.685C108.636-24.895 107.836-16.815 104.796-9.465C101.756-2.115 96.6056 4.155 89.9856 8.595C83.3756 13.005 75.5956 15.365 67.6456 15.365C59.6956 15.365 51.9356 13.005 45.3056 8.585C38.6956 4.155 33.5456-2.115 30.5056-9.465C27.4656-16.815 26.6656-24.895 28.2256-32.685C29.7856-40.495 33.6056-47.665 39.2356-53.275Z"/>
  </g>
  <g id="Semibold-L" transform="matrix(1 0 0 1 1976.44 1556)">
   <path d="M63.6759-92.38L31.5459-60.19C24.5259-53.18 19.7459-44.24 17.8159-34.51C15.8759-24.79 16.8659-14.71 20.6559-5.54C24.4459 3.63 30.8759 11.46 39.1359 16.98C47.3759 22.5 57.0759 25.44 66.9959 25.44C76.9159 25.44 86.6159 22.5 94.8659 16.98C103.116 11.45 109.546 3.62 113.336-5.54C117.126-14.71 118.116-24.79 116.176-34.51C114.236-44.25 109.456-53.19 102.446-60.19L70.2559-92.38C68.4359-94.2 65.4959-94.2 63.6759-92.38ZM38.1259-53.61L66.9659-82.51L95.8659-53.61C101.586-47.91 105.476-40.63 107.056-32.69C108.636-24.78 107.826-16.56 104.736-9.09C101.656-1.63 96.4159 4.75 89.6859 9.25C82.9759 13.74 75.0759 16.14 66.9959 16.14C58.9159 16.14 51.0159 13.74 44.3059 9.25C37.5759 4.75 32.3359-1.62 29.2559-9.09C26.1659-16.56 25.3559-24.78 26.9359-32.69C28.5059-40.62 32.4059-47.9 38.1259-53.61Z"/>
  </g>
  <g id="Medium-L" transform="matrix(1 0 0 1 1680.23 1556)">
   <path d="M63.5256-91.9224L31.3956-59.7324C24.4456-52.8024 19.7156-43.9424 17.8056-34.3124C15.8856-24.6924 16.8656-14.7124 20.6256-5.6325C24.3756 3.4475 30.7356 11.1976 38.9056 16.6676C47.0756 22.1176 56.6756 25.0376 66.4956 25.0376C76.3156 25.0376 85.9156 22.1176 94.0856 16.6676C102.256 11.1876 108.626 3.4375 112.376-5.6325C116.126-14.7124 117.106-24.6924 115.186-34.3124C113.266-43.9624 108.536-52.8024 101.586-59.7424L69.4056-91.9324C67.7756-93.5524 65.1456-93.5524 63.5256-91.9224ZM37.2656-53.8724L66.4656-83.1224L95.7256-53.8724C101.506-48.0924 105.446-40.7224 107.046-32.6924C108.646-24.6824 107.826-16.3624 104.706-8.8025C101.586-1.25249 96.2756 5.2075 89.4656 9.76755C82.6756 14.3076 74.6756 16.7376 66.4956 16.7376C58.3156 16.7376 50.3156 14.3076 43.5256 9.76755C36.7156 5.2075 31.4156-1.24249 28.2956-8.8025C25.1656-16.3624 24.3456-24.6824 25.9456-32.6924C27.5356-40.7124 31.4756-48.0824 37.2656-53.8724Z"/>
  </g>
  <g id="Regular-L" transform="matrix(1 0 0 1 1384.17 1556)">
   <path d="M63.3363-91.335L31.2063-59.145C24.3463-52.295 19.6763-43.565 17.7963-34.055C15.8963-24.565 16.8663-14.705 20.5663-5.745C24.2763 3.205 30.5463 10.855 38.6163 16.255C46.6763 21.635 56.1563 24.515 65.8463 24.515C75.5363 24.515 85.0163 21.635 93.0663 16.255C101.137 10.855 107.417 3.195 111.117-5.745C114.827-14.705 115.797-24.565 113.897-34.055C111.997-43.575 107.337-52.305 100.477-59.155L68.2863-91.335C66.9263-92.705 64.7063-92.705 63.3363-91.335ZM36.1563-54.195L65.8163-83.915L95.5263-54.195C101.407-48.335 105.407-40.845 107.037-32.695C108.657-24.555 107.827-16.105 104.647-8.425C101.487-0.755 96.0963 5.805 89.1763 10.435C82.2763 15.055 74.1563 17.515 65.8463 17.515C57.5363 17.515 49.4163 15.055 42.5063 10.435C35.5963 5.805 30.2163-0.745 27.0363-8.425C23.8663-16.105 23.0363-24.555 24.6563-32.685C26.2763-40.835 30.2763-48.325 36.1563-54.195Z"/>
  </g>
  <g id="Light-L" transform="matrix(1 0 0 1 1088.26 1556)">
   <path d="M63.1056-90.62L30.9756-58.43C24.2256-51.69 19.6256-43.1 17.7756-33.75C15.9156-24.41 16.8656-14.72 20.5056-5.9C24.1556 2.91 30.3256 10.43 38.2656 15.74C46.1856 21.04 55.5156 23.87 65.0456 23.87C74.5756 23.87 83.9056 21.04 91.8256 15.74C99.7658 10.43 105.946 2.9 109.586-5.9C113.226-14.72 114.176-24.41 112.316-33.75C110.446-43.11 105.856-51.7 99.1156-58.43L66.9256-90.62C65.8656-91.68 64.1556-91.68 63.1056-90.62ZM34.7956-54.61L65.0156-84.89L95.2956-54.61C101.286-48.64 105.356-41.01 107.016-32.7C108.676-24.4 107.826-15.79 104.586-7.96C101.356-0.15 95.8756 6.53 88.8256 11.25C81.7856 15.96 73.5156 18.47 65.0456 18.47C56.5756 18.47 48.3056 15.96 41.2656 11.25C34.2156 6.54 28.7356-0.14 25.5056-7.96C22.2656-15.79 21.4156-24.4 23.0756-32.69C24.7156-41 28.7956-48.63 34.7956-54.61Z"/>
  </g>
  <g id="Thin-L" transform="matrix(1 0 0 1 792.597 1556)">
   <path d="M62.8022-89.67L30.6682-57.48C24.0722-50.89 19.5782-42.49 17.7562-33.33C15.9342-24.19 16.8662-14.71 20.4342-6.09C23.9992 2.52 30.0382 9.88 37.7982 15.08C45.5552 20.26 54.6722 23.03 63.9972 23.03C73.3242 23.03 82.4412 20.26 90.1962 15.08C97.9582 9.88 103.997 2.52 107.562-6.09C111.13-14.71 112.062-24.19 110.24-33.33C108.418-42.48 103.923-50.89 97.3272-57.48L65.1362-89.67C64.4912-90.31 63.4462-90.31 62.8022-89.67ZM33.0022-55.14L63.9702-86.17L94.9942-55.15C101.129-49.02 105.309-41.2 107.003-32.69C108.698-24.19 107.831-15.37 104.513-7.35C101.198 0.66 95.5812 7.5 88.3612 12.34C81.1502 17.16 72.6712 19.73 63.9972 19.73C55.3252 19.73 46.8462 17.16 39.6332 12.34C32.4152 7.5 26.7982 0.66 23.4832-7.35C20.1652-15.37 19.2982-24.19 20.9932-32.69C22.6872-41.2 26.8672-49.02 33.0022-55.14Z"/>
  </g>
  <g id="Ultralight-L" transform="matrix(1 0 0 1 496.436 1556)">
   <path d="M62.6411-89.175L30.5071-56.985C23.9881-50.475 19.5461-42.165 17.7451-33.125C15.9451-24.085 16.8661-14.715 20.3921-6.195C23.9151 2.315 29.8841 9.595 37.5541 14.725C45.2201 19.845 54.2311 22.585 63.4471 22.585C72.6651 22.585 81.6761 19.845 89.3401 14.725C97.0111 9.595 102.981 2.315 106.504-6.195C110.03-14.715 110.951-24.085 109.15-33.125C107.349-42.165 102.907-50.475 96.3881-56.985L64.1971-89.175C63.7671-89.605 63.0701-89.605 62.6411-89.175ZM32.0631-55.425L63.4201-86.845L94.8321-55.425C101.045-49.225 105.277-41.305 106.992-32.695C108.708-24.085 107.83-15.155 104.471-7.035C101.114 1.075 95.4271 8.005 88.1171 12.895C80.8151 17.775 72.2301 20.385 63.4471 20.385C54.6661 20.385 46.0801 17.775 38.7771 12.895C31.4691 8.005 25.7811 1.075 22.4251-7.035C19.0651-15.155 18.1871-24.085 19.9031-32.695C21.6191-41.305 25.8511-49.225 32.0631-55.425Z"/>
  </g>
  <g id="Black-M" transform="matrix(1 0 0 1 2873.92 1126)">
   <path d="M54.5956-83.19L29.3856-57.93C23.4056-51.95 19.3256-44.32 17.6756-36.02C16.0156-27.73 16.8656-19.12 20.1056-11.29C23.3456-3.47 28.8356 3.22 35.8756 7.92C42.9056 12.63 51.1756 15.14 59.6556 15.14C68.1256 15.14 76.4056 12.63 83.4356 7.92C90.4656 3.22 95.9556-3.47 99.1956-11.29C102.436-19.12 103.286-27.73 101.626-36.02C99.9758-44.33 95.8956-51.96 89.9056-57.94L64.6456-83.19C61.8756-85.97 57.3756-85.97 54.5956-83.19ZM39.4356-47.89L59.6256-68.13L79.8656-47.89C83.8756-43.89 86.5956-38.8 87.7056-33.25C88.8056-27.71 88.2356-21.95 86.0756-16.72C83.9156-11.5 80.2456-7.03 75.5456-3.89C70.8356-0.74 65.3156 0.94 59.6556 0.94C53.9856 0.94 48.4656-0.74 43.7656-3.88C39.0556-7.03 35.3856-11.5 33.2256-16.72C31.0656-21.95 30.4956-27.71 31.5956-33.24C32.7056-38.79 35.4356-43.89 39.4356-47.89Z"/>
  </g>
  <g id="Heavy-M" transform="matrix(1 0 0 1 2578.06 1126)">
   <path d="M54.3548-82.42L29.1448-57.16C23.2748-51.29 19.2748-43.82 17.6548-35.68C16.0348-27.55 16.8648-19.12 20.0448-11.44C23.2148-3.78 28.5948 2.78 35.4948 7.39C42.3848 12 50.4948 14.46 58.8048 14.46C67.1048 14.46 75.2148 12 82.1148 7.38C89.0048 2.78 94.3848-3.78 97.5648-11.44C100.735-19.12 101.565-27.55 99.9448-35.68C98.3248-43.83 94.3248-51.3 88.4548-57.17L63.1948-82.42C60.7548-84.86 56.7948-84.86 54.3548-82.42ZM37.9848-48.32L58.7848-69.16L79.6148-48.32C83.7448-44.2 86.5448-38.96 87.6848-33.24C88.8248-27.54 88.2448-21.61 86.0148-16.22C83.7848-10.84 80.0048-6.24 75.1648-3.01C70.3248 0.23 64.6348 1.96 58.8048 1.96C52.9648 1.96 47.2748 0.23 42.4448-3C37.5948-6.24 33.8148-10.84 31.5948-16.22C29.3648-21.61 28.7748-27.54 29.9148-33.24C31.0548-38.95 33.8648-44.2 37.9848-48.32Z"/>
  </g>
  <g id="Bold-M" transform="matrix(1 0 0 1 2282.3 1126)">
   <path d="M54.0682-81.565L28.8582-56.305C23.1282-50.565 19.2182-43.265 17.6282-35.315C16.0582-27.355 16.8682-19.115 19.9582-11.625C23.0682-4.125 28.3182 2.275 35.0682 6.785C41.7982 11.285 49.7282 13.695 57.8482 13.695C65.9682 13.695 73.8882 11.285 80.6282 6.775C87.3682 2.275 92.6282-4.125 95.7282-11.615C98.8282-19.125 99.6378-27.365 98.0582-35.315C96.4682-43.275 92.5682-50.575 86.8182-56.305L61.5682-81.565C59.4982-83.635 56.1382-83.635 54.0682-81.565ZM36.3582-48.805L57.8182-70.315L79.3282-48.805C83.5882-44.555 86.4882-39.145 87.6582-33.245C88.8382-27.355 88.2282-21.235 85.9282-15.675C83.6282-10.125 79.7282-5.375 74.7382-2.035C69.7382 1.315 63.8682 3.095 57.8482 3.095C51.8282 3.095 45.9482 1.305 40.9582-2.035C35.9582-5.375 32.0582-10.125 29.7582-15.675C27.4582-21.225 26.8582-27.345 28.0282-33.245C29.1982-39.135 32.0982-44.555 36.3582-48.805Z"/>
  </g>
  <g id="Semibold-M" transform="matrix(1 0 0 1 1986.24 1126)">
   <path d="M53.8852-80.9674L28.6752-55.7074C23.0352-50.0774 19.1852-42.8874 17.6252-35.0574C16.0652-27.2374 16.8652-19.1274 19.9152-11.7374C22.9752-4.3575 28.1452 1.9425 34.7852 6.3725C41.4152 10.8026 49.2052 13.1726 57.1952 13.1726C65.1852 13.1726 72.9952 10.8026 79.6252 6.3625C86.2552 1.9425 91.4252-4.3675 94.4852-11.7374C97.5352-19.1174 98.3252-27.2274 96.7652-35.0574C95.2252-42.8774 91.3752-50.0674 85.7252-55.7174L60.4652-80.9774C58.6452-82.7874 55.7052-82.7874 53.8852-80.9674ZM35.2552-49.1374L57.1752-71.1074L79.1452-49.1374C83.4952-44.7874 86.4552-39.2574 87.6452-33.2474C88.8452-27.2174 88.2352-20.9674 85.8852-15.2974C83.5452-9.6275 79.5552-4.7775 74.4552-1.36749C69.3552 2.0525 63.3452 3.8725 57.1952 3.8725C51.0552 3.8725 45.0552 2.0525 39.9552-1.35749C34.8452-4.7675 30.8652-9.6175 28.5152-15.2974C26.1652-20.9774 25.5452-27.2274 26.7452-33.2374C27.9452-39.2674 30.9052-44.7974 35.2552-49.1374Z"/>
  </g>
  <g id="Medium-M" transform="matrix(1 0 0 1 1690.03 1126)">
   <path d="M53.7348-80.5324L28.5248-55.2724C22.9548-49.7124 19.1548-42.6124 17.6148-34.8724C16.0748-27.1524 16.8648-19.1424 19.8848-11.8424C22.8948-4.5525 28.0048 1.6675 34.5648 6.0375C41.1048 10.4176 48.8048 12.7576 56.6948 12.7576C64.5848 12.7576 72.2948 10.4176 78.8448 6.0375C85.3948 1.6675 90.5048-4.5625 93.5248-11.8424C96.5348-19.1324 97.3148-27.1424 95.7748-34.8724C94.2448-42.5924 90.4448-49.6924 84.8748-55.2724L59.6148-80.5324C57.9848-82.1624 55.3548-82.1524 53.7348-80.5324ZM34.3948-49.4024L56.6748-71.7324L79.0048-49.4124C83.4148-44.9924 86.4248-39.3624 87.6348-33.2524C88.8548-27.1324 88.2348-20.7824 85.8548-15.0224C83.4648-9.2625 79.4148-4.3225 74.2348-0.862494C69.0448 2.6075 62.9448 4.4575 56.6948 4.4575C50.4548 4.4575 44.3548 2.6075 39.1748-0.862494C33.9848-4.3225 29.9348-9.2525 27.5548-15.0224C25.1648-20.7924 24.5348-27.1424 25.7548-33.2524C26.9748-39.3824 29.9848-45.0024 34.3948-49.4024Z"/>
  </g>
  <g id="Regular-M" transform="matrix(1 0 0 1 1393.97 1126)">
   <path d="M53.5456-79.9324L28.3356-54.6724C22.8556-49.2024 19.1156-42.2224 17.6056-34.6024C16.0856-27.0124 16.8656-19.1324 19.8256-11.9524C22.7956-4.7825 27.8256 1.3375 34.2756 5.6375C40.7056 9.94755 48.2856 12.2476 56.0456 12.2476C63.8056 12.2476 71.3956 9.94755 77.8356 5.6375C84.2756 1.3275 89.3056-4.7925 92.2656-11.9524C95.2356-19.1224 96.0056-27.0024 94.4856-34.6124C92.9856-42.2024 89.2456-49.1924 83.7556-54.6824L58.4956-79.9424C57.1356-81.3024 54.9156-81.3024 53.5456-79.9324ZM33.2856-49.7224L56.0256-72.5124L78.8056-49.7324C83.3156-45.2224 86.3856-39.4824 87.6256-33.2424C88.8656-26.9924 88.2356-20.5224 85.7956-14.6324C83.3656-8.7525 79.2356-3.7225 73.9456-0.182494C68.6556 3.3575 62.4156 5.2475 56.0456 5.2475C49.6756 5.2475 43.4556 3.3575 38.1656-0.182494C32.8656-3.7125 28.7356-8.7425 26.2956-14.6324C23.8656-20.5224 23.2256-27.0024 24.4656-33.2424C25.7156-39.4924 28.7756-45.2324 33.2856-49.7224Z"/>
  </g>
  <g id="Light-M" transform="matrix(1 0 0 1 1098.06 1126)">
   <path d="M53.3148-79.215L28.1048-53.955C22.7348-48.595 19.0748-41.745 17.5848-34.295C16.1048-26.855 16.8648-19.135 19.7648-12.105C22.6748-5.075 27.6048 0.915 33.9148 5.135C40.2248 9.355 47.6448 11.605 55.2448 11.605C62.8448 11.605 70.2748 9.355 76.5848 5.125C82.8948 0.915 87.8248-5.085 90.7248-12.105C93.6348-19.125 94.3848-26.845 92.9048-34.295C91.4348-41.735 87.7748-48.575 82.3948-53.955L57.1348-79.215C56.0748-80.265 54.3648-80.265 53.3148-79.215ZM31.9248-50.135L55.2248-73.485L78.5748-50.135C83.1948-45.515 86.3448-39.635 87.6048-33.245C88.8848-26.835 88.2348-20.205 85.7348-14.165C83.2448-8.145 79.0148-2.985 73.5848 0.635C68.1648 4.265 61.7748 6.205 55.2448 6.205C48.7148 6.205 42.3348 4.265 36.9148 0.645C31.4848-2.975 27.2548-8.135 24.7548-14.165C22.2648-20.205 21.6048-26.845 22.8848-33.235C24.1548-39.645 27.3048-45.525 31.9248-50.135Z"/>
  </g>
  <g id="Thin-M" transform="matrix(1 0 0 1 802.397 1126)">
   <path d="M53.0082-78.27L27.7952-53.01C22.5692-47.79 19.0102-41.13 17.5672-33.88C16.1242-26.64 16.8622-19.13 19.6892-12.3C22.5162-5.47 27.3062 0.36 33.4452 4.46C39.5812 8.57 46.8032 10.76 54.1972 10.76C61.5922 10.76 68.8132 8.57 74.9522 4.46C81.0902 0.36 85.8802-5.47 88.7072-12.3C91.5332-19.13 92.2712-26.64 90.8292-33.88C89.3852-41.13 85.8262-47.79 80.6002-53.01L55.3422-78.27C54.6972-78.91 53.6522-78.91 53.0082-78.27ZM30.1292-50.67L54.1762-74.77L78.2672-50.67C83.0322-45.91 86.2762-39.85 87.5922-33.24C88.9072-26.64 88.2342-19.79 85.6582-13.56C83.0812-7.34 78.7152-2.02 73.1182 1.72C67.5212 5.46 60.9392 7.46 54.1972 7.46C47.4562 7.46 40.8732 5.46 35.2792 1.72C29.6812-2.02 25.3152-7.34 22.7382-13.56C20.1612-19.79 19.4882-26.64 20.8042-33.24C22.1192-39.85 25.3642-45.91 30.1292-50.67Z"/>
  </g>
  <g id="Ultralight-M" transform="matrix(1 0 0 1 506.236 1126)">
   <path d="M52.8471-77.775L27.6341-52.515C22.4851-47.375 18.9781-40.815 17.5561-33.675C16.1351-26.535 16.8621-19.135 19.6471-12.405C22.4331-5.685 27.1511 0.065 33.2001 4.105C39.2461 8.155 46.3611 10.315 53.6471 10.315C60.9331 10.315 68.0481 8.155 74.0961 4.105C80.1441 0.065 84.8631-5.685 87.6481-12.405C90.4331-19.135 91.1611-26.535 89.7391-33.675C88.3171-40.815 84.8101-47.375 79.6611-52.515L54.4031-77.775C53.9731-78.205 53.2761-78.205 52.8471-77.775ZM29.1901-50.955L53.6261-75.445L78.1051-50.965C82.9471-46.125 86.2441-39.955 87.5811-33.245C88.9181-26.535 88.2341-19.575 85.6161-13.245C82.9971-6.925 78.5601-1.515 72.8731 2.275C67.1871 6.085 60.4981 8.115 53.6471 8.115C46.7971 8.115 40.1081 6.085 34.4231 2.275C28.7351-1.515 24.2991-6.925 21.6791-13.245C19.0611-19.575 18.3771-26.535 19.7141-33.245C21.0501-39.955 24.3481-46.125 29.1901-50.955Z"/>
  </g>
  <g id="Black-S" transform="matrix(1 0 0 1 2881.63 696)">
   <path d="M46.8974-74.326L27.1274-54.516C22.2274-49.615 18.8774-43.36 17.5274-36.549C16.1674-29.737 16.8574-22.678 19.5174-16.267C22.1774-9.855 26.6674-4.372 32.4374-0.513998C38.2174 3.347 45.0074 5.405 51.9474 5.405C58.8874 5.405 65.6674 3.347 71.4474-0.510998C77.2174-4.372 81.7174-9.855 84.3774-16.267C87.0274-22.678 87.7274-29.737 86.3674-36.549C85.0174-43.36 81.6674-49.615 76.7574-54.524L56.9474-74.331C54.1674-77.106 49.6774-77.103 46.8974-74.326ZM37.1774-44.477L51.9274-59.265L66.7174-44.48C69.6474-41.555 71.6374-37.832 72.4474-33.78C73.2474-29.72 72.8374-25.517 71.2574-21.702C69.6774-17.882 66.9974-14.615 63.5574-12.317C60.1174-10.02 56.0774-8.795 51.9474-8.795C47.8174-8.795 43.7774-10.02 40.3274-12.32C36.8974-14.615 34.2174-17.882 32.6374-21.702C31.0574-25.517 30.6474-29.72 31.4474-33.78C32.2574-37.832 34.2474-41.555 37.1774-44.477Z"/>
  </g>
  <g id="Heavy-S" transform="matrix(1 0 0 1 2585.77 696)">
   <path d="M46.6567-73.557L26.8867-53.747C22.0967-48.964 18.8267-42.86 17.5067-36.215C16.1867-29.567 16.8567-22.68 19.4567-16.424C22.0467-10.167 26.4367-4.817 32.0567-1.052C37.7067 2.716 44.3267 4.724 51.0967 4.724C57.8667 4.724 64.4867 2.716 70.1267-1.049C75.7567-4.817 80.1467-10.167 82.7367-16.424C85.3367-22.68 86.0067-29.567 84.6867-36.215C83.3667-42.86 80.0967-48.964 75.3067-53.754L55.4967-73.561C53.0567-76.004 49.0967-76.002 46.6567-73.557ZM35.7267-44.91L51.0767-60.299L66.4667-44.913C69.5167-41.868 71.5867-37.994 72.4267-33.777C73.2667-29.552 72.8367-25.178 71.1967-21.208C69.5467-17.233 66.7567-13.833 63.1767-11.442C59.5967-9.051 55.3967-7.776 51.0967-7.776C46.7967-7.776 42.5967-9.051 39.0067-11.445C35.4367-13.833 32.6467-17.233 30.9967-21.208C29.3567-25.178 28.9267-29.552 29.7667-33.777C30.6067-37.994 32.6767-41.868 35.7267-44.91Z"/>
  </g>
  <g id="Bold-S" transform="matrix(1 0 0 1 2290 696)">
   <path d="M46.3767-72.4942L26.6067-52.6842C21.9467-48.0332 18.7767-42.0982 17.4867-35.6372C16.2067-29.1742 16.8567-22.4772 19.3767-16.3952C21.8967-10.3122 26.1667-5.11024 31.6367-1.44925C37.1267 2.21376 43.5567 4.16576 50.1467 4.16576C56.7367 4.16576 63.1867 2.21076 68.6567-1.45025C74.1267-5.10224 78.3867-10.3022 80.9167-16.3952C83.4367-22.4772 84.0867-29.1742 82.8067-35.6372C81.5167-42.0982 78.3467-48.0332 73.6867-52.6902L53.8767-72.4972C51.8067-74.5692 48.4467-74.5672 46.3767-72.4942ZM34.1067-45.1902L50.1267-61.2522L66.1867-45.1922C69.3667-42.0152 71.5367-37.9722 72.4067-33.5702C73.2867-29.1612 72.8367-24.5962 71.1167-20.4522C69.3967-16.2952 66.4967-12.7522 62.7667-10.2632C59.0367-7.76724 54.6367-6.43424 50.1467-6.43424C45.6567-6.43424 41.2667-7.76524 37.5267-10.2632C33.8067-12.7562 30.8967-16.3042 29.1767-20.4522C27.4567-24.5962 27.0067-29.1612 27.8867-33.5702C28.7567-37.9722 30.9267-42.0162 34.1067-45.1902Z"/>
  </g>
  <g id="Semibold-S" transform="matrix(1 0 0 1 1993.94 696)">
   <path d="M46.1871-71.9092L26.4171-52.0992C21.8471-47.5382 18.7371-41.7202 17.4771-35.3852C16.2171-29.0482 16.8571-22.4822 19.3271-16.5182C21.8071-10.5442 25.9871-5.44624 31.3571-1.86224C36.7171 1.72476 43.0371 3.64176 49.4971 3.64176C55.9571 3.64176 62.2671 1.72676 67.6371-1.86224C73.0071-5.45324 77.1971-10.5542 79.6671-16.5192C82.1371-22.4822 82.7771-29.0482 81.5171-35.3852C80.2571-41.7202 77.1471-47.5382 72.5771-52.1042L52.7671-71.9122C50.9471-73.7302 47.9971-73.7282 46.1871-71.9092ZM32.9971-45.5242L49.4771-62.0452L65.9971-45.5262C69.2671-42.2592 71.4971-38.0992 72.3971-33.5722C73.2971-29.0372 72.8371-24.3412 71.0671-20.0782C69.3071-15.8112 66.3071-12.1622 62.4671-9.59424C58.6271-7.02824 54.1171-5.65824 49.4971-5.65824C44.8771-5.65824 40.3571-7.02924 36.5271-9.59424C32.6771-12.1582 29.6971-15.8022 27.9271-20.0782C26.1571-24.3412 25.6971-29.0372 26.5971-33.5722C27.4971-38.0992 29.7271-42.2592 32.9971-45.5242Z"/>
  </g>
  <g id="Medium-S" transform="matrix(1 0 0 1 1697.73 696)">
   <path d="M46.0367-71.4582L26.2667-51.6482C21.7767-47.1562 18.7067-41.4272 17.4667-35.1902C16.2267-28.9492 16.8567-22.4842 19.2967-16.6122C21.7267-10.7292 25.8467-5.70924 31.1367-2.18024C36.4067 1.35176 42.6367 3.23976 48.9967 3.23976C55.3567 3.23976 61.5667 1.35376 66.8567-2.18024C72.1467-5.71624 76.2667-10.7382 78.6967-16.6122C81.1367-22.4842 81.7667-28.9492 80.5267-35.1902C79.2867-41.4272 76.2167-47.1562 71.7167-51.6532L51.9067-71.4612C50.2867-73.0832 47.6567-73.0812 46.0367-71.4582ZM32.1367-45.7802L48.9767-62.6552L65.8567-45.7822C69.1967-42.4452 71.4667-38.1962 72.3867-33.5712C73.3067-28.9392 72.8367-24.1432 71.0367-19.7892C69.2267-15.4302 66.1667-11.7032 62.2467-9.08124C58.3267-6.45924 53.7167-5.06024 48.9967-5.06024C44.2767-5.06024 39.6567-6.46124 35.7467-9.08024C31.8167-11.6992 28.7667-15.4212 26.9567-19.7882C25.1567-24.1432 24.6867-28.9392 25.6067-33.5712C26.5267-38.1962 28.7967-42.4452 32.1367-45.7802Z"/>
  </g>
  <g id="Regular-S" transform="matrix(1 0 0 1 1401.67 696)">
   <path d="M45.8471-70.8684L26.0771-51.0584C21.6771-46.6574 18.6671-41.0444 17.4571-34.9324C16.2371-28.8184 16.8571-22.4834 19.2471-16.7304C21.6271-10.9664 25.6671-6.0485 30.8471-2.5905C36.0171 0.870501 42.1171 2.7195 48.3471 2.7195C54.5771 2.7195 60.6671 0.872501 65.8471-2.5905C71.0271-6.0545 75.0671-10.9754 77.4471-16.7314C79.8371-22.4834 80.4571-28.8184 79.2371-34.9324C78.0271-41.0444 75.0171-46.6574 70.6071-51.0624L50.8071-70.8714C49.4371-72.2394 47.2171-72.2384 45.8471-70.8684ZM31.0271-46.1094L48.3271-63.4444L65.6671-46.1114C69.0971-42.6844 71.4271-38.3194 72.3771-33.5674C73.3171-28.8104 72.8371-23.8834 70.9871-19.4104C69.1271-14.9324 65.9871-11.1044 61.9571-8.4105C57.9271-5.7175 53.1971-4.2805 48.3471-4.2805C43.4971-4.2805 38.7571-5.7185 34.7371-8.4105C30.7071-11.1004 27.5671-14.9234 25.7071-19.4094C23.8571-23.8834 23.3771-28.8104 24.3171-33.5674C25.2671-38.3194 27.5971-42.6844 31.0271-46.1094Z"/>
  </g>
  <g id="Light-S" transform="matrix(1 0 0 1 1105.76 696)">
   <path d="M45.6163-70.149L25.8463-50.339C21.5463-46.049 18.6263-40.578 17.4363-34.623C16.2563-28.663 16.8563-22.489 19.1863-16.883C21.5063-11.264 25.4363-6.471 30.4863-3.101C35.5263 0.271 41.4763 2.074 47.5463 2.074C53.6163 2.074 59.5563 0.274 64.6063-3.102C69.6563-6.478 73.5863-11.274 75.9163-16.883C78.2363-22.489 78.8363-28.663 77.6563-34.623C76.4763-40.578 73.5463-46.049 69.2463-50.342L49.4363-70.151C48.3863-71.206 46.6663-71.206 45.6163-70.149ZM29.6663-46.522L47.5263-64.422L65.4263-46.523C68.9763-42.984 71.3863-38.476 72.3563-33.57C73.3363-28.657 72.8363-23.569 70.9263-18.95C69.0063-14.326 65.7663-10.373 61.6063-7.591C57.4363-4.81 52.5563-3.326 47.5463-3.326C42.5363-3.326 37.6463-4.812 33.4863-7.591C29.3263-10.368 26.0863-14.317 24.1763-18.949C22.2563-23.569 21.7563-28.657 22.7363-33.57C23.7063-38.476 26.1263-42.984 29.6663-46.522Z"/>
  </g>
  <g id="Thin-S" transform="matrix(1 0 0 1 810.097 696)">
   <path d="M45.3122-69.2024L25.5372-49.3924C21.3902-45.2484 18.5642-39.9654 17.4192-34.2134C16.2732-28.4604 16.8592-22.4974 19.1022-17.0794C21.3462-11.6604 25.1472-7.0285 30.0232-3.7695C34.8992-0.5105 40.6322 1.2295 46.4982 1.2295C52.3622 1.2295 58.0952-0.5105 62.9722-3.7695C67.8482-7.0285 71.6482-11.6604 73.8922-17.0794C76.1362-22.4974 76.7222-28.4604 75.5762-34.2134C74.4302-39.9654 71.6052-45.2484 67.4562-49.3934L47.6462-69.2034C47.0022-69.8484 45.9562-69.8474 45.3122-69.2024ZM27.8712-47.0594L46.4802-65.7024L65.1232-47.0604C68.8102-43.3754 71.3212-38.6804 72.3402-33.5684C73.3582-28.4564 72.8372-23.1574 70.8432-18.3424C68.8492-13.5254 65.4722-9.4095 61.1382-6.5135C56.8042-3.6165 51.7092-2.0705 46.4982-2.0705C41.2852-2.0705 36.1902-3.6165 31.8572-6.5135C27.5232-9.4095 24.1452-13.5254 22.1512-18.3414C20.1572-23.1574 19.6372-28.4564 20.6552-33.5684C21.6732-38.6804 24.1842-43.3754 27.8712-47.0594Z"/>
  </g>
  <g id="Ultralight-S" transform="matrix(1 0 0 1 513.936 696)">
   <path d="M45.1518-68.705L25.3768-48.895C21.3058-44.827 18.5328-39.642 17.4088-33.996C16.2838-28.351 16.8588-22.498 19.0608-17.181C21.2628-11.862 24.9928-7.316 29.7788-4.118C34.5648-0.919 40.1918 0.789 45.9488 0.789C51.7038 0.789 57.3308-0.919 62.1168-4.118C66.9028-7.316 70.6328-11.862 72.8348-17.181C75.0368-22.498 75.6118-28.351 74.4868-33.996C73.3628-39.642 70.5898-44.827 66.5178-48.896L46.7078-68.705C46.2778-69.135 45.5808-69.135 45.1518-68.705ZM26.9328-47.339L45.9308-66.372L64.9628-47.34C68.7268-43.579 71.2898-38.786 72.3298-33.567C73.3688-28.348 72.8378-22.938 70.8018-18.022C68.7658-13.105 65.3188-8.903 60.8938-5.947C56.4698-2.99 51.2688-1.412 45.9488-1.412C40.6268-1.412 35.4258-2.99 31.0018-5.947C26.5778-8.903 23.1298-13.105 21.0938-18.022C19.0578-22.938 18.5268-28.348 19.5658-33.567C20.6058-38.786 23.1688-43.579 26.9328-47.339Z"/>
  </g>
 </g>
</svg>
